<?xml version="1.0" encoding="UTF-8"?>
<!--Generator: Apple Native CoreSVG 326-->
<!DOCTYPE svg
PUBLIC "-//W3C//DTD SVG 1.1//EN"
       "http://www.w3.org/Graphics/SVG/1.1/DTD/svg11.dtd">
<svg version="1.1" xmlns="http://www.w3.org/2000/svg" xmlns:xlink="http://www.w3.org/1999/xlink" viewBox="0 0 51.25 50.918">
 <g>
  <rect height="50.918" opacity="0" width="51.25" x="0" y="0"/>
  <path d="M50.8789 25.4492C50.8789 39.4531 39.4531 50.8789 25.4297 50.8789C11.4258 50.8789 0 39.4531 0 25.4492C0 11.4258 11.4258 0 25.4297 0C39.4531 0 50.8789 11.4258 50.8789 25.4492ZM10.8203 25.4492C10.8203 30.4883 12.2656 36.3867 17.3242 36.3867C22.3633 36.3867 23.7891 30.4883 23.7891 25.4492C23.7891 20.4102 22.3633 14.5117 17.3242 14.5117C12.2656 14.5117 10.8203 20.4102 10.8203 25.4492ZM32.207 16.9336L27.1875 27.5391C26.8164 28.418 26.6602 29.0039 26.6602 29.7266C26.6602 30.8398 27.4414 31.6016 28.5742 31.6016L34.5898 31.6016L34.5898 34.5703C34.5898 35.7422 35.4102 36.2109 36.1523 36.2109C37.0117 36.2109 37.7148 35.6445 37.7148 34.5703L37.7148 31.6016L38.8086 31.6016C39.6875 31.6016 40.1172 31.0352 40.1172 30.2539C40.1172 29.5117 39.707 28.9453 38.8086 28.9453L37.7148 28.9453L37.7148 17.1484C37.7148 15.5078 36.6602 14.6875 35.2148 14.6875C33.5938 14.6875 32.8516 15.5078 32.207 16.9336ZM20.4883 25.4492C20.4883 29.7461 19.7266 33.6719 17.3242 33.6719C14.9219 33.6719 14.1602 29.7461 14.1602 25.4492C14.1602 21.1328 14.9219 17.2266 17.3242 17.2266C19.7266 17.2266 20.4883 21.1328 20.4883 25.4492ZM34.6484 29.0039L29.5117 29.0039L29.5117 28.8672L34.5508 17.6562L34.6484 17.6562Z" fill="black" fill-opacity="0.85"/>
 </g>
</svg>
