<?xml version="1.0" encoding="UTF-8"?>
<!--Generator: Apple Native CoreSVG 326-->
<!DOCTYPE svg
PUBLIC "-//W3C//DTD SVG 1.1//EN"
       "http://www.w3.org/Graphics/SVG/1.1/DTD/svg11.dtd">
<svg version="1.1" xmlns="http://www.w3.org/2000/svg" xmlns:xlink="http://www.w3.org/1999/xlink" viewBox="0 0 46.2891 37.9492">
 <g>
  <rect height="37.9492" opacity="0" width="46.2891" x="0" y="0"/>
  <path d="M0 36.2109C0 37.168 0.78125 37.9492 1.73828 37.9492C2.67578 37.9492 3.45703 37.168 3.45703 36.2109L3.45703 1.79688C3.45703 0.839844 2.67578 0.0585938 1.73828 0.0585938C0.78125 0.0585938 0 0.839844 0 1.79688ZM42.4609 36.2109C42.4609 37.168 43.2422 37.9492 44.1797 37.9492C45.1367 37.9492 45.918 37.168 45.918 36.2109L45.918 1.79688C45.918 0.839844 45.1367 0.0585938 44.1797 0.0585938C43.2422 0.0585938 42.4609 0.839844 42.4609 1.79688Z" fill="black" fill-opacity="0.85"/>
  <path d="M18.3398 29.9414C19.3555 29.9414 19.9805 29.2188 19.9805 28.2227L19.9805 10.6445C19.9805 9.49219 19.2578 8.82812 18.1055 8.82812C17.168 8.82812 16.5039 9.23828 15.7617 9.78516L12.4023 12.2656C11.9336 12.6172 11.6406 13.0078 11.6406 13.5938C11.6406 14.2773 12.1484 14.8047 12.832 14.8047C13.1641 14.8047 13.418 14.707 13.6914 14.5117L16.6602 12.3047L16.6992 12.3047L16.6992 28.2227C16.6992 29.2383 17.3047 29.9414 18.3398 29.9414ZM30.8398 29.9414C31.8555 29.9414 32.4805 29.2188 32.4805 28.2227L32.4805 10.6445C32.4805 9.49219 31.7578 8.82812 30.6055 8.82812C29.668 8.82812 29.0234 9.23828 28.2812 9.78516L24.9219 12.2656C24.4531 12.6172 24.1602 13.0078 24.1602 13.5938C24.1602 14.2773 24.6484 14.8047 25.3516 14.8047C25.6836 14.8047 25.9375 14.707 26.2109 14.5117L29.1602 12.3047L29.1992 12.3047L29.1992 28.2227C29.1992 29.2383 29.8242 29.9414 30.8398 29.9414Z" fill="black" fill-opacity="0.85"/>
 </g>
</svg>
