<?xml version="1.0" encoding="UTF-8"?>
<!--Generator: Apple Native CoreSVG 326-->
<!DOCTYPE svg
PUBLIC "-//W3C//DTD SVG 1.1//EN"
       "http://www.w3.org/Graphics/SVG/1.1/DTD/svg11.dtd">
<svg version="1.1" xmlns="http://www.w3.org/2000/svg" xmlns:xlink="http://www.w3.org/1999/xlink" viewBox="0 0 51.25 50.918">
 <g>
  <rect height="50.918" opacity="0" width="51.25" x="0" y="0"/>
  <path d="M50.8789 25.4492C50.8789 39.4531 39.4531 50.8789 25.4297 50.8789C11.4258 50.8789 0 39.4531 0 25.4492C0 11.4258 11.4258 0 25.4297 0C39.4531 0 50.8789 11.4258 50.8789 25.4492ZM26.3281 25.7422C26.3281 30.6055 27.8516 36.3867 32.9492 36.3867C36.7969 36.3867 38.9648 33.0664 38.9648 29.0625C38.9648 25.5859 37.2852 22.2461 33.8672 22.2461C31.6992 22.2461 30.0977 23.7695 29.5312 26.0156L29.4336 26.0156C29.4336 25.918 29.4336 25.8008 29.4336 25.7031C29.4336 22.6953 29.8242 17.2266 32.9297 17.2266C34.2383 17.2266 35.0781 18.1836 35.5273 19.4141C35.8594 20.1172 36.2695 20.4688 37.0312 20.4688C37.9492 20.4688 38.3594 19.8828 38.3594 19.1211C38.3594 18.8477 38.3008 18.5156 38.2031 18.1836C37.6562 15.9375 35.5078 14.5508 32.9883 14.5508C27.793 14.5508 26.3281 20.6445 26.3281 25.7422ZM11.8164 19.9414C11.8164 20.7617 12.2852 21.3672 13.1836 21.3672C13.9258 21.3672 14.3945 21.0352 14.6094 20.293C15.0781 18.3984 15.7812 17.168 17.4219 17.168C19.1406 17.168 20.0391 18.75 20.0391 20.6055C20.0391 22.6562 18.7695 24.668 17.3438 26.5234L12.5781 32.7539C12.1484 33.2812 11.7773 33.8477 11.7773 34.5703C11.7773 35.332 12.2852 35.8984 13.3008 35.8984L22.2461 35.8984C23.0469 35.8984 23.5547 35.3516 23.5547 34.5508C23.5547 33.6914 23.0273 33.1836 22.2461 33.1836L15.8203 33.1836L15.8203 33.0078L19.8633 27.7344C22.3242 24.6094 23.125 22.7148 23.125 20.4688C23.125 17.0508 20.918 14.5117 17.4219 14.5117C14.1797 14.5117 11.8164 17.2461 11.8164 19.9414ZM35.8008 29.2188C35.8008 31.2695 34.8828 33.7109 32.9102 33.7109C30.8008 33.7109 29.9219 31.1328 29.9219 29.1016C29.9219 27.0508 30.8984 24.7656 32.8906 24.7656C34.9609 24.7656 35.8398 27.1484 35.8008 29.2188Z" fill="black" fill-opacity="0.85"/>
 </g>
</svg>
