<?xml version="1.0" encoding="UTF-8"?>
<!--Generator: Apple Native CoreSVG 326-->
<!DOCTYPE svg
PUBLIC "-//W3C//DTD SVG 1.1//EN"
       "http://www.w3.org/Graphics/SVG/1.1/DTD/svg11.dtd">
<svg version="1.1" xmlns="http://www.w3.org/2000/svg" xmlns:xlink="http://www.w3.org/1999/xlink" viewBox="0 0 51.25 50.918">
 <g>
  <rect height="50.918" opacity="0" width="51.25" x="0" y="0"/>
  <path d="M25.4297 50.8789C39.4727 50.8789 50.8789 39.4922 50.8789 25.4492C50.8789 11.4062 39.4727 0 25.4297 0C11.3867 0 0 11.4062 0 25.4492C0 39.4922 11.3867 50.8789 25.4297 50.8789ZM25.4297 47.2461C13.3789 47.2461 3.63281 37.5 3.63281 25.4492C3.63281 13.3984 13.3789 3.65234 25.4297 3.65234C37.4805 3.65234 47.2266 13.3984 47.2266 25.4492C47.2266 37.5 37.4805 47.2461 25.4297 47.2461Z" fill="black" fill-opacity="0.85"/>
  <path d="M13.4766 35.6445L22.207 35.6445C22.9883 35.6445 23.4766 35.1172 23.4766 34.3359C23.4766 33.5156 22.9688 33.0273 22.207 33.0273L15.918 33.0273L15.918 32.8516L19.8828 27.6758C22.2656 24.6289 23.0664 22.7734 23.0664 20.5859C23.0664 17.2461 20.8984 14.7656 17.5 14.7656C14.3359 14.7656 12.0117 17.4414 12.0117 20.0781C12.0117 20.8789 12.5 21.4648 13.3398 21.4648C14.082 21.4648 14.5312 21.1328 14.7461 20.4102C15.1758 18.5547 15.8984 17.3438 17.4805 17.3438C19.1992 17.3438 20.0781 18.9062 20.0781 20.7227C20.0781 22.7148 18.8281 24.668 17.4414 26.5039L12.7734 32.5977C12.3633 33.125 11.9922 33.6719 11.9922 34.3359C11.9922 35.0977 12.4805 35.6445 13.4766 35.6445ZM32.4805 36.0547C36.3477 36.0547 38.8086 33.5547 38.8086 30.1367C38.8086 27.4414 37.1289 25.3906 35.0977 24.9219L35.0977 24.8438C36.8359 24.2969 38.2422 22.5977 38.2422 20.3125C38.2422 17.1289 35.957 14.8633 32.4805 14.8633C29.3945 14.8633 26.7578 16.8555 26.7578 20.293C26.7578 22.7539 28.2227 24.3164 29.9219 24.8438L29.9219 24.9219C27.7734 25.4102 26.1719 27.4609 26.1719 30.1367C26.1719 33.7305 28.8477 36.0547 32.4805 36.0547ZM32.5 23.8086C30.8398 23.8086 29.8242 22.3047 29.8242 20.6055C29.8242 18.8281 30.8203 17.2656 32.5 17.2656C34.2773 17.2656 35.1562 18.8867 35.1562 20.6055C35.1562 22.3828 34.1602 23.8086 32.5 23.8086ZM32.5 33.6328C30.5078 33.6328 29.4727 31.8945 29.4727 29.9023C29.4727 27.9102 30.5273 26.25 32.5 26.25C34.375 26.25 35.5273 27.793 35.5273 29.9023C35.5273 31.8945 34.4922 33.6328 32.5 33.6328Z" fill="black" fill-opacity="0.85"/>
 </g>
</svg>
