<?xml version="1.0" encoding="UTF-8"?>
<!--Generator: Apple Native CoreSVG 326-->
<!DOCTYPE svg
PUBLIC "-//W3C//DTD SVG 1.1//EN"
       "http://www.w3.org/Graphics/SVG/1.1/DTD/svg11.dtd">
<svg version="1.1" xmlns="http://www.w3.org/2000/svg" xmlns:xlink="http://www.w3.org/1999/xlink" viewBox="0 0 51.25 50.918">
 <g>
  <rect height="50.918" opacity="0" width="51.25" x="0" y="0"/>
  <path d="M25.4297 50.8789C39.4727 50.8789 50.8789 39.4922 50.8789 25.4492C50.8789 11.4062 39.4727 0 25.4297 0C11.3867 0 0 11.4062 0 25.4492C0 39.4922 11.3867 50.8789 25.4297 50.8789ZM25.4297 47.2461C13.3789 47.2461 3.63281 37.5 3.63281 25.4492C3.63281 13.3984 13.3789 3.65234 25.4297 3.65234C37.4805 3.65234 47.2266 13.3984 47.2266 25.4492C47.2266 37.5 37.4805 47.2461 25.4297 47.2461Z" fill="black" fill-opacity="0.85"/>
  <path d="M13.75 35.6445L22.4805 35.6445C23.2617 35.6445 23.75 35.1172 23.75 34.3359C23.75 33.5156 23.2422 33.0273 22.4805 33.0273L16.1914 33.0273L16.1914 32.8516L20.1562 27.6758C22.5391 24.6289 23.3398 22.7734 23.3398 20.5859C23.3398 17.2461 21.1719 14.7656 17.7734 14.7656C14.6094 14.7656 12.2852 17.4414 12.2852 20.0781C12.2852 20.8789 12.7539 21.4648 13.6133 21.4648C14.3555 21.4648 14.8047 21.1328 15.0195 20.4102C15.4492 18.5547 16.1719 17.3438 17.7539 17.3438C19.4727 17.3438 20.3516 18.9062 20.3516 20.7227C20.3516 22.7148 19.1016 24.668 17.7148 26.5039L13.0469 32.5977C12.6367 33.125 12.2656 33.6719 12.2656 34.3359C12.2656 35.0977 12.7539 35.6445 13.75 35.6445ZM31.3477 28.5938C33.4961 28.5938 35.0391 27.1289 35.5859 24.9219L35.6836 24.9219C35.6836 25.0195 35.6836 25.1367 35.6836 25.2344C35.6836 28.1836 35.293 33.4766 32.2461 33.4766C30.9961 33.4766 30.1562 32.5977 29.6875 31.3477C29.375 30.5664 28.9258 30.2539 28.2617 30.2539C27.3438 30.2539 26.9336 30.8789 26.9336 31.6211C26.9336 31.8945 26.9922 32.2266 27.0898 32.5391C27.6562 34.7656 29.7461 36.0938 32.207 36.0938C37.2656 36.0938 38.6914 30.2344 38.6914 25.1953C38.6914 20.4492 37.207 14.8047 32.2461 14.8047C28.5156 14.8047 26.3672 18.0469 26.3672 21.9727C26.3672 25.3516 28.0078 28.5938 31.3477 28.5938ZM32.2852 26.1328C30.2734 26.1328 29.4141 23.8477 29.4141 21.8359C29.4141 19.7656 30.3516 17.4023 32.2852 17.4023C34.3359 17.4023 35.2344 19.7852 35.2344 21.8359C35.2344 23.9258 34.2578 26.1328 32.2852 26.1328Z" fill="black" fill-opacity="0.85"/>
 </g>
</svg>
