<?xml version="1.0" encoding="UTF-8"?>
<!--Generator: Apple Native CoreSVG 326-->
<!DOCTYPE svg
PUBLIC "-//W3C//DTD SVG 1.1//EN"
       "http://www.w3.org/Graphics/SVG/1.1/DTD/svg11.dtd">
<svg version="1.1" xmlns="http://www.w3.org/2000/svg" xmlns:xlink="http://www.w3.org/1999/xlink" viewBox="0 0 51.25 50.918">
 <g>
  <rect height="50.918" opacity="0" width="51.25" x="0" y="0"/>
  <path d="M25.4297 50.8789C39.4727 50.8789 50.8789 39.4922 50.8789 25.4492C50.8789 11.4062 39.4727 0 25.4297 0C11.3867 0 0 11.4062 0 25.4492C0 39.4922 11.3867 50.8789 25.4297 50.8789ZM25.4297 47.2461C13.3789 47.2461 3.63281 37.5 3.63281 25.4492C3.63281 13.3984 13.3789 3.65234 25.4297 3.65234C37.4805 3.65234 47.2266 13.3984 47.2266 25.4492C47.2266 37.5 37.4805 47.2461 25.4297 47.2461Z" fill="black" fill-opacity="0.85"/>
  <path d="M12.5391 35.6445L21.2695 35.6445C22.0508 35.6445 22.5391 35.1172 22.5391 34.3359C22.5391 33.5156 22.0312 33.0273 21.2695 33.0273L14.9805 33.0273L14.9805 32.8516L18.9453 27.6758C21.3281 24.6289 22.1289 22.7734 22.1289 20.5859C22.1289 17.2461 19.9609 14.7656 16.5625 14.7656C13.3984 14.7656 11.0742 17.4414 11.0742 20.0781C11.0742 20.8789 11.5625 21.4648 12.4023 21.4648C13.1445 21.4648 13.5938 21.1328 13.8086 20.4102C14.2383 18.5547 14.9609 17.3438 16.543 17.3438C18.2617 17.3438 19.1406 18.9062 19.1406 20.7227C19.1406 22.7148 17.8906 24.668 16.5039 26.5039L11.8359 32.5977C11.4258 33.125 11.0547 33.6719 11.0547 34.3359C11.0547 35.0977 11.543 35.6445 12.5391 35.6445ZM27.4023 35.9375C28.2617 35.9375 28.9844 35.2148 28.9844 34.3164L28.9844 26.6016L35.7031 26.6016L35.7031 34.3164C35.7031 35.2148 36.4453 35.9375 37.3242 35.9375C38.1836 35.9375 38.9258 35.2148 38.9258 34.3164L38.9258 16.5234C38.9258 15.6641 38.1836 14.9414 37.3242 14.9414C36.4453 14.9414 35.7031 15.6641 35.7031 16.5234L35.7031 23.9062L28.9844 23.9062L28.9844 16.5234C28.9844 15.6641 28.2617 14.9414 27.4023 14.9414C26.5039 14.9414 25.7812 15.6641 25.7812 16.5234L25.7812 34.3164C25.7812 35.2148 26.5039 35.9375 27.4023 35.9375Z" fill="black" fill-opacity="0.85"/>
 </g>
</svg>
