<?xml version="1.0" encoding="UTF-8"?>
<!--Generator: Apple Native CoreSVG 326-->
<!DOCTYPE svg
PUBLIC "-//W3C//DTD SVG 1.1//EN"
       "http://www.w3.org/Graphics/SVG/1.1/DTD/svg11.dtd">
<svg version="1.1" xmlns="http://www.w3.org/2000/svg" xmlns:xlink="http://www.w3.org/1999/xlink" viewBox="0 0 51.25 50.918">
 <g>
  <rect height="50.918" opacity="0" width="51.25" x="0" y="0"/>
  <path d="M25.4297 50.8789C39.4727 50.8789 50.8789 39.4922 50.8789 25.4492C50.8789 11.4062 39.4727 0 25.4297 0C11.3867 0 0 11.4062 0 25.4492C0 39.4922 11.3867 50.8789 25.4297 50.8789ZM25.4297 47.2461C13.3789 47.2461 3.63281 37.5 3.63281 25.4492C3.63281 13.3984 13.3789 3.65234 25.4297 3.65234C37.4805 3.65234 47.2266 13.3984 47.2266 25.4492C47.2266 37.5 37.4805 47.2461 25.4297 47.2461Z" fill="black" fill-opacity="0.85"/>
  <path d="M17.9688 36.0547C21.4648 36.0547 24.1406 33.7891 24.1406 30.0391C24.1406 27.0117 22.3828 25.3516 20.1562 25.1172L20.1562 25.0391C22.4414 24.4336 23.5352 22.4023 23.5352 20.2539C23.5352 16.875 21.0742 14.8633 17.8711 14.8633C15.293 14.8633 13.2031 16.3281 12.4805 18.5547C12.3438 19.043 12.2852 19.4922 12.2852 19.9023C12.2852 20.625 12.7734 21.2109 13.6328 21.2109C14.4141 21.2109 14.8242 20.8984 15.0391 20.1172C15.4297 18.5352 16.2891 17.4219 17.8711 17.4219C19.6484 17.4219 20.5469 18.8281 20.5469 20.625C20.5469 22.5586 19.4141 24.0039 17.4414 24.0039L16.7188 24.0039C15.9375 24.0039 15.4883 24.4727 15.4883 25.1953C15.4883 25.918 15.9766 26.3672 16.7188 26.3672L17.4609 26.3672C19.7266 26.3672 20.9961 27.6172 20.9961 29.9609C20.9961 31.8359 20 33.457 17.9688 33.457C16.0156 33.457 15.0781 32.0898 14.7852 30.8203C14.5898 30.0781 14.1211 29.6875 13.3789 29.6875C12.5195 29.6875 11.9531 30.2148 11.9531 31.0742C11.9531 31.5039 12.0312 31.9922 12.1484 32.3828C12.8711 34.6875 15.2734 36.0547 17.9688 36.0547ZM32.9102 36.0547C36.4062 36.0547 39.082 33.7891 39.082 30.0391C39.082 27.0117 37.3242 25.3516 35.0977 25.1172L35.0977 25.0391C37.3828 24.4336 38.4766 22.4023 38.4766 20.2539C38.4766 16.875 36.0352 14.8633 32.8125 14.8633C30.2344 14.8633 28.1445 16.3281 27.4219 18.5547C27.2852 19.043 27.2266 19.4922 27.2266 19.9023C27.2266 20.625 27.7148 21.2109 28.5938 21.2109C29.375 21.2109 29.7852 20.8984 30 20.1172C30.3711 18.5352 31.25 17.4219 32.8125 17.4219C34.5898 17.4219 35.4883 18.8281 35.4883 20.625C35.4883 22.5586 34.3555 24.0039 32.3828 24.0039L31.6602 24.0039C30.8984 24.0039 30.4297 24.4727 30.4297 25.1953C30.4297 25.918 30.9375 26.3672 31.6602 26.3672L32.4219 26.3672C34.668 26.3672 35.9375 27.6172 35.9375 29.9609C35.9375 31.8359 34.9609 33.457 32.9297 33.457C30.957 33.457 30.0195 32.0898 29.7266 30.8203C29.5312 30.0781 29.0625 29.6875 28.3398 29.6875C27.4805 29.6875 26.8945 30.2148 26.8945 31.0742C26.8945 31.5039 26.9727 31.9922 27.1094 32.3828C27.8125 34.6875 30.2344 36.0547 32.9102 36.0547Z" fill="black" fill-opacity="0.85"/>
 </g>
</svg>
