<?xml version="1.0" encoding="UTF-8"?>
<!--Generator: Apple Native CoreSVG 326-->
<!DOCTYPE svg
PUBLIC "-//W3C//DTD SVG 1.1//EN"
       "http://www.w3.org/Graphics/SVG/1.1/DTD/svg11.dtd">
<svg version="1.1" xmlns="http://www.w3.org/2000/svg" xmlns:xlink="http://www.w3.org/1999/xlink" viewBox="0 0 46.2891 45.918">
 <g>
  <rect height="45.918" opacity="0" width="46.2891" x="0" y="0"/>
  <path d="M45.918 7.53906L45.918 38.3984C45.918 43.3594 43.3594 45.918 38.3008 45.918L7.59766 45.918C2.55859 45.918 0 43.3984 0 38.3984L0 7.53906C0 2.53906 2.55859 0 7.59766 0L38.3008 0C43.3594 0 45.918 2.55859 45.918 7.53906ZM9.31641 15.8789C9.17969 16.3867 9.12109 16.8359 9.12109 17.2656C9.12109 18.0078 9.62891 18.6133 10.5273 18.6133C11.3477 18.6133 11.7578 18.2812 11.9922 17.5C12.3633 15.8789 13.2617 14.7461 14.8633 14.7461C16.6992 14.7461 17.5781 16.1719 17.5781 18.0078C17.5781 19.9805 16.4453 21.4648 14.4141 21.4648L13.6914 21.4648C12.8906 21.4648 12.4219 21.9531 12.4219 22.6953C12.4219 23.4375 12.9297 23.9062 13.6914 23.9062L14.4531 23.9062C16.7578 23.9062 18.0469 25.1758 18.0469 27.5586C18.0469 29.4727 17.0508 31.1328 14.9805 31.1328C12.9883 31.1328 12.0312 29.7461 11.6992 28.457C11.5039 27.6758 11.0352 27.2852 10.2734 27.2852C9.39453 27.2852 8.78906 27.832 8.78906 28.7109C8.78906 29.1602 8.86719 29.6484 9.00391 30.0586C9.74609 32.4219 12.207 33.8086 14.9609 33.8086C18.5547 33.8086 21.2891 31.4844 21.2891 27.6562C21.2891 24.5508 19.4922 22.8516 17.207 22.6172L17.207 22.5391C19.5508 21.9141 20.6836 19.8242 20.6836 17.6367C20.6836 14.1602 18.1641 12.1094 14.8633 12.1094C12.207 12.1094 10.0586 13.6133 9.31641 15.8789ZM24.707 17.6562C24.707 20.1953 26.2109 21.7969 27.9492 22.3242L27.9492 22.4023C25.7422 22.9102 24.1016 25 24.1016 27.7539C24.1016 31.4648 26.8555 33.8086 30.5859 33.8086C34.5508 33.8086 37.0898 31.25 37.0898 27.7539C37.0898 24.9805 35.3516 22.8906 33.2617 22.4023L33.2617 22.3242C35.0391 21.7773 36.5039 20.0391 36.5039 17.6758C36.5039 14.4141 34.1406 12.1094 30.5859 12.1094C27.4219 12.1094 24.707 14.1406 24.707 17.6562ZM33.6914 27.5C33.6914 29.5312 32.6367 31.3086 30.6055 31.3086C28.5938 31.3086 27.5195 29.5312 27.5195 27.5C27.5195 25.4688 28.5938 23.7695 30.6055 23.7695C32.5195 23.7695 33.6914 25.3516 33.6914 27.5ZM33.3008 17.9883C33.3008 19.8047 32.3242 21.2695 30.6055 21.2695C28.9062 21.2695 27.8711 19.7266 27.8711 17.9883C27.8711 16.1719 28.8867 14.5898 30.6055 14.5898C32.4219 14.5898 33.3008 16.2305 33.3008 17.9883Z" fill="black" fill-opacity="0.85"/>
 </g>
</svg>
