<?xml version="1.0" encoding="UTF-8"?>
<!--Generator: Apple Native CoreSVG 326-->
<!DOCTYPE svg
PUBLIC "-//W3C//DTD SVG 1.1//EN"
       "http://www.w3.org/Graphics/SVG/1.1/DTD/svg11.dtd">
<svg version="1.1" xmlns="http://www.w3.org/2000/svg" xmlns:xlink="http://www.w3.org/1999/xlink" viewBox="0 0 46.2891 45.918">
 <g>
  <rect height="45.918" opacity="0" width="46.2891" x="0" y="0"/>
  <path d="M45.918 7.53906L45.918 38.3984C45.918 43.3594 43.3594 45.918 38.3008 45.918L7.59766 45.918C2.55859 45.918 0 43.3984 0 38.3984L0 7.53906C0 2.53906 2.55859 0 7.59766 0L38.3008 0C43.3594 0 45.918 2.55859 45.918 7.53906ZM24.1016 19.375C24.1016 22.8516 25.7812 26.1719 29.1992 26.1719C31.3867 26.1719 32.9688 24.668 33.5352 22.4219L33.6328 22.4219C33.6328 22.5195 33.6328 22.6367 33.6328 22.7344C33.6328 25.7422 33.2422 31.1719 30.1172 31.1719C28.8477 31.1719 28.0078 30.2539 27.5391 28.9844C27.1875 28.1836 26.7383 27.8711 26.0547 27.8711C25.0977 27.8711 24.668 28.5156 24.668 29.2773C24.668 29.5703 24.7461 29.9023 24.8438 30.2148C25.4102 32.5 27.5586 33.8477 30.0781 33.8477C35.2734 33.8477 36.7383 27.8516 36.7383 22.6953C36.7383 17.832 35.2148 12.0508 30.1172 12.0508C26.2891 12.0508 24.1016 15.3711 24.1016 19.375ZM9.43359 15.8789C9.29688 16.3867 9.23828 16.8359 9.23828 17.2656C9.23828 18.0078 9.72656 18.6133 10.625 18.6133C11.4258 18.6133 11.875 18.2812 12.0898 17.5C12.4805 15.8789 13.3594 14.7461 14.9609 14.7461C16.7773 14.7461 17.6953 16.1719 17.6953 18.0078C17.6953 19.9805 16.543 21.4648 14.5117 21.4648L13.7891 21.4648C12.9883 21.4648 12.5195 21.9531 12.5195 22.6953C12.5195 23.4375 13.0273 23.9062 13.7891 23.9062L14.5312 23.9062C16.8555 23.9062 18.1445 25.1758 18.1445 27.5586C18.1445 29.4727 17.1484 31.1328 15.0586 31.1328C13.0664 31.1328 12.1094 29.7461 11.8164 28.457C11.6016 27.6758 11.1328 27.2852 10.3711 27.2852C9.47266 27.2852 8.88672 27.832 8.88672 28.7109C8.88672 29.1602 8.96484 29.6484 9.08203 30.0586C9.82422 32.4219 12.3047 33.8086 15.0586 33.8086C18.6523 33.8086 21.3867 31.4844 21.3867 27.6562C21.3867 24.5508 19.5898 22.8516 17.3047 22.6172L17.3047 22.5391C19.6484 21.9141 20.7812 19.8242 20.7812 17.6367C20.7812 14.1602 18.2617 12.1094 14.9609 12.1094C12.3242 12.1094 10.1758 13.6133 9.43359 15.8789ZM33.1641 19.2383C33.1641 21.3867 32.168 23.6328 30.1562 23.6328C28.1055 23.6328 27.2461 21.2891 27.2461 19.2383C27.2461 17.1289 28.2227 14.7266 30.1562 14.7266C32.2656 14.7266 33.1641 17.1484 33.1641 19.2383Z" fill="black" fill-opacity="0.85"/>
 </g>
</svg>
