<?xml version="1.0" encoding="UTF-8"?>
<!--Generator: Apple Native CoreSVG 326-->
<!DOCTYPE svg
PUBLIC "-//W3C//DTD SVG 1.1//EN"
       "http://www.w3.org/Graphics/SVG/1.1/DTD/svg11.dtd">
<svg version="1.1" xmlns="http://www.w3.org/2000/svg" xmlns:xlink="http://www.w3.org/1999/xlink" viewBox="0 0 46.2891 45.918">
 <g>
  <rect height="45.918" opacity="0" width="46.2891" x="0" y="0"/>
  <path d="M7.59766 45.918L38.3008 45.918C43.3594 45.918 45.918 43.3594 45.918 38.3984L45.918 7.53906C45.918 2.55859 43.3594 0 38.3008 0L7.59766 0C2.55859 0 0 2.53906 0 7.53906L0 38.3984C0 43.3984 2.55859 45.918 7.59766 45.918ZM7.67578 42.4609C4.94141 42.4609 3.45703 41.0156 3.45703 38.2031L3.45703 7.71484C3.45703 4.92188 4.94141 3.45703 7.67578 3.45703L38.2422 3.45703C40.918 3.45703 42.4609 4.92188 42.4609 7.71484L42.4609 38.2031C42.4609 41.0156 40.918 42.4609 38.2422 42.4609Z" fill="black" fill-opacity="0.85"/>
  <path d="M17.3828 33.4375C18.2031 33.4375 18.8867 32.8906 18.8867 31.8555L18.8867 28.9453L19.9609 28.9453C20.8008 28.9453 21.2109 28.3984 21.2109 27.6367C21.2109 26.9141 20.8203 26.3672 19.9609 26.3672L18.8867 26.3672L18.8867 14.8242C18.8867 13.2617 17.8516 12.4414 16.4453 12.4414C14.9023 12.4414 14.1602 13.2422 13.5352 14.6289L8.63281 25C8.26172 25.8594 8.125 26.4258 8.125 27.1289C8.125 28.2031 8.86719 28.9453 9.98047 28.9453L15.8594 28.9453L15.8594 31.8555C15.8594 33.0078 16.6602 33.4375 17.3828 33.4375ZM15.918 26.4258L10.8594 26.4258L10.8594 26.2891L15.8203 15.332L15.918 15.332ZM30.1953 33.6328C35.1172 33.6328 36.5234 27.8516 36.5234 22.9492C36.5234 18.0469 35.1172 12.2656 30.1953 12.2656C25.2734 12.2656 23.8867 18.0469 23.8867 22.9492C23.8867 27.8516 25.2734 33.6328 30.1953 33.6328ZM30.1953 30.9961C27.832 30.9961 27.0898 27.1289 27.0898 22.9492C27.0898 18.75 27.832 14.9023 30.1953 14.9023C32.5586 14.9023 33.3008 18.75 33.3008 22.9492C33.3008 27.1289 32.5586 30.9961 30.1953 30.9961Z" fill="black" fill-opacity="0.85"/>
 </g>
</svg>
