<?xml version="1.0" encoding="UTF-8"?>
<!--Generator: Apple Native CoreSVG 326-->
<!DOCTYPE svg
PUBLIC "-//W3C//DTD SVG 1.1//EN"
       "http://www.w3.org/Graphics/SVG/1.1/DTD/svg11.dtd">
<svg version="1.1" xmlns="http://www.w3.org/2000/svg" xmlns:xlink="http://www.w3.org/1999/xlink" viewBox="0 0 70.7031 39.5508">
 <g>
  <rect height="39.5508" opacity="0" width="70.7031" x="0" y="0"/>
  <path d="M1.85547 39.4141C2.92969 39.4141 3.59375 38.8281 3.82812 37.7539L5.89844 28.5352L16.1523 28.5352L18.2422 37.7734C18.4766 38.8477 19.1602 39.4141 20.2148 39.4141C21.2695 39.4141 22.1289 38.6523 22.1289 37.5977C22.1289 37.4023 22.0703 37.1484 22.0312 36.9531L14.043 2.96875C13.6328 1.38672 12.6953 0.292969 11.0352 0.292969C9.29688 0.292969 8.45703 1.32812 8.08594 2.98828L0.15625 36.6016C0.0976562 36.9141 0 37.3438 0 37.6172C0 38.75 0.761719 39.4141 1.85547 39.4141ZM6.58203 25.1758L10.9766 5.44922L10.9961 5.44922L15.4492 25.1758ZM29.3555 38.8867L37.4023 38.8867C43.418 38.8867 46.6797 34.6289 46.6797 28.4375C46.6797 23.9844 44.6094 19.5703 40.3906 18.9258L40.3906 18.9062C43.7695 18.0273 45.4102 13.7305 45.4102 10.2344C45.4102 4.92188 42.4219 0.800781 37.2266 0.800781L29.3555 0.800781C28.1055 0.800781 27.4609 1.67969 27.4609 2.87109L27.4609 36.8359C27.4609 37.9883 28.0469 38.8867 29.3555 38.8867ZM31.2891 35.4688L31.2891 20.9375L36.25 20.9375C40.6445 20.9375 42.7148 23.8477 42.7148 28.2227C42.7148 32.4023 40.8398 35.4688 36.543 35.4688ZM31.2891 17.6367L31.2891 4.23828L36.3086 4.23828C39.9805 4.23828 41.5625 6.97266 41.5625 10.6836C41.5625 14.6875 39.7852 17.6367 35.8203 17.6367ZM60.957 39.5508C67.2852 39.5508 70.332 34.9219 70.332 29.0039C70.332 23.3789 67.8516 20.7422 62.8906 18.1445L60.9961 17.168C57.832 15.4883 55.7422 13.5742 55.7422 9.82422C55.7422 6.44531 57.3633 3.65234 60.7031 3.65234C63.9844 3.65234 65.6836 6.34766 66.1719 9.70703C66.3281 10.7812 67.1094 11.25 67.9883 11.25C69.043 11.25 69.6875 10.4492 69.6875 9.41406C69.6875 5.85938 66.8945 0.136719 60.7031 0.136719C55.2344 0.136719 51.9141 4.45312 51.9141 10.0586C51.9141 15.5078 54.668 18.2812 59.3359 20.7031L61.2305 21.6992C64.6484 23.4961 66.5039 25.4297 66.5039 29.2578C66.5039 32.9688 64.7852 36.0352 61.0352 36.0352C57.4414 36.0352 55.5469 33.0664 55.0977 29.5117C54.8828 28.3594 54.0625 27.9297 53.2617 27.9297C52.1875 27.9297 51.5625 28.7891 51.5625 29.9219C51.5625 33.4961 54.2188 39.5508 60.957 39.5508Z" fill="black" fill-opacity="0.85"/>
 </g>
</svg>
