<?xml version="1.0" encoding="UTF-8"?>
<!--Generator: Apple Native CoreSVG 326-->
<!DOCTYPE svg
PUBLIC "-//W3C//DTD SVG 1.1//EN"
       "http://www.w3.org/Graphics/SVG/1.1/DTD/svg11.dtd">
<svg version="1.1" xmlns="http://www.w3.org/2000/svg" xmlns:xlink="http://www.w3.org/1999/xlink" viewBox="0 0 57.9967 57.4805">
 <g>
  <rect height="57.4805" opacity="0" width="57.9967" x="0" y="0"/>
  <path d="M17.7093 53.2031L39.9163 53.2031C44.721 53.2031 47.2601 50.6836 47.2601 45.918L47.2601 7.28516C47.2601 2.51953 44.6819 0 39.9163 0L17.7093 0C12.9437 0 10.346 2.51953 10.346 7.28516L10.346 45.918C10.346 50.6836 12.9046 53.2031 17.7093 53.2031ZM20.0921 13.3008C18.1585 13.3008 16.5765 11.6992 16.5765 9.74609C16.5765 7.85156 18.1585 6.25 20.0921 6.25C22.0257 6.25 23.6077 7.85156 23.6077 9.74609C23.6077 11.6992 22.0257 13.3008 20.0921 13.3008ZM17.8265 34.0039C16.9866 34.0039 16.3226 33.3594 16.3226 32.5C16.3226 31.6602 16.9866 31.0156 17.8265 31.0156L25.4827 31.0156C26.3226 31.0156 26.9866 31.6602 26.9866 32.5C26.9866 33.3594 26.3226 34.0039 25.4827 34.0039ZM17.8265 40.3516C16.9866 40.3516 16.3226 39.6875 16.3226 38.8477C16.3226 38.0078 16.9866 37.3438 17.8265 37.3438L25.4827 37.3438C26.3226 37.3438 26.9866 38.0078 26.9866 38.8477C26.9866 39.6875 26.3226 40.3516 25.4827 40.3516ZM17.8265 46.6992C16.9866 46.6992 16.3226 46.0352 16.3226 45.1953C16.3226 44.3555 16.9866 43.6914 17.8265 43.6914L25.4827 43.6914C26.3226 43.6914 26.9866 44.3555 26.9866 45.1953C26.9866 46.0352 26.3226 46.6992 25.4827 46.6992ZM32.1429 34.0039C31.2835 34.0039 30.639 33.3594 30.639 32.5C30.639 31.6602 31.2835 31.0156 32.1429 31.0156L39.7991 31.0156C40.639 31.0156 41.303 31.6602 41.303 32.5C41.303 33.3594 40.639 34.0039 39.7991 34.0039ZM32.1429 40.3516C31.2835 40.3516 30.639 39.6875 30.639 38.8477C30.639 38.0078 31.2835 37.3438 32.1429 37.3438L39.7991 37.3438C40.639 37.3438 41.303 38.0078 41.303 38.8477C41.303 39.6875 40.639 40.3516 39.7991 40.3516ZM32.1429 46.6992C31.2835 46.6992 30.639 46.0352 30.639 45.1953C30.639 44.3555 31.2835 43.6914 32.1429 43.6914L39.7991 43.6914C40.639 43.6914 41.303 44.3555 41.303 45.1953C41.303 46.0352 40.639 46.6992 39.7991 46.6992ZM36.1077 12.4219C34.2132 12.4219 32.4163 12.0117 30.7952 10.9961C29.8968 10.4883 29.8382 9.51172 30.2288 8.88672C30.5999 8.32031 31.3421 8.02734 32.0843 8.45703C33.5296 9.25781 34.7015 9.58984 36.1077 9.58984C41.7132 9.58984 45.1898 4.17969 51.8694 4.17969C53.764 4.17969 55.5023 4.64844 57.1429 5.60547C58.0999 6.15234 58.1585 7.10938 57.7288 7.73438C57.3773 8.26172 56.6741 8.57422 55.8538 8.125C54.428 7.34375 53.2757 7.03125 51.8694 7.03125C46.1077 7.03125 42.5921 12.4219 36.1077 12.4219ZM36.1273 19.1992C34.2327 19.1992 32.4358 18.7891 30.8148 17.7734C29.8968 17.2461 29.8382 16.2891 30.2288 15.6641C30.5999 15.0781 31.3616 14.8047 32.1038 15.2344C33.5296 16.0352 34.7015 16.3672 36.1273 16.3672C41.7327 16.3672 45.2093 10.957 51.8694 10.957C53.764 10.957 55.5218 11.4258 57.1819 12.3828C58.1194 12.9297 58.1585 13.8867 57.7483 14.5117C57.3968 15.0391 56.6741 15.3516 55.8733 14.9023C54.4476 14.1016 53.2952 13.8086 51.8694 13.8086C46.1273 13.8086 42.5921 19.1992 36.1273 19.1992ZM36.1077 25.957C34.2132 25.957 32.4163 25.5664 30.7952 24.5508C29.8968 24.0234 29.8382 23.0664 30.2288 22.4414C30.5999 21.8555 31.3421 21.582 32.0843 22.0117C33.5296 22.8125 34.7015 23.1445 36.1077 23.1445C41.7132 23.1445 45.1898 17.7344 51.8694 17.7344C53.764 17.7344 55.5023 18.2031 57.1429 19.1602C58.0999 19.707 58.1585 20.6641 57.7288 21.2891C57.3773 21.8164 56.6741 22.1289 55.8538 21.6797C54.428 20.8789 53.2757 20.5859 51.8694 20.5859C46.1077 20.5859 42.5921 25.957 36.1077 25.957ZM17.2405 57.4219C18.2562 57.4219 18.9788 56.7188 18.9788 55.7031L18.9788 51.0742L15.5023 51.0742L15.5023 55.7031C15.5023 56.7188 16.2054 57.4219 17.2405 57.4219ZM40.3851 57.4219C41.4007 57.4219 42.1038 56.7188 42.1038 55.7031L42.1038 51.0742L38.6468 51.0742L38.6468 55.7031C38.6468 56.7188 39.3499 57.4219 40.3851 57.4219Z" fill="black" fill-opacity="0.85"/>
 </g>
</svg>
