<?xml version="1.0" encoding="UTF-8"?>
<!--Generator: Apple Native CoreSVG 326-->
<!DOCTYPE svg
PUBLIC "-//W3C//DTD SVG 1.1//EN"
       "http://www.w3.org/Graphics/SVG/1.1/DTD/svg11.dtd">
<svg version="1.1" xmlns="http://www.w3.org/2000/svg" xmlns:xlink="http://www.w3.org/1999/xlink" viewBox="0 0 102.188 43.6133">
 <g>
  <rect height="43.6133" opacity="0" width="102.188" x="0" y="0"/>
  <path d="M9.27734 38.7305C9.94141 37.9492 9.72656 36.9336 8.96484 36.0742C5.48828 32.2852 3.49609 27.3047 3.49609 21.7969C3.49609 16.2695 5.48828 11.2891 8.96484 7.5C9.72656 6.64062 9.94141 5.625 9.27734 4.86328C8.57422 4.0625 7.38281 4.0625 6.5625 4.96094C2.38281 9.41406 0 15.332 0 21.7969C0 28.2422 2.38281 34.1797 6.5625 38.6133C7.38281 39.5117 8.57422 39.5312 9.27734 38.7305ZM92.5391 38.7305C93.2422 39.5312 94.4336 39.5117 95.2539 38.6133C99.4141 34.1797 101.816 28.2422 101.816 21.7969C101.816 15.332 99.4141 9.41406 95.2539 4.96094C94.4336 4.0625 93.2422 4.0625 92.5391 4.86328C91.8555 5.625 92.0703 6.64062 92.8516 7.5C96.3281 11.2891 98.3203 16.2695 98.3203 21.7969C98.3203 27.3047 96.3281 32.2852 92.8516 36.0742C92.0703 36.9336 91.8555 37.9492 92.5391 38.7305Z" fill="black" fill-opacity="0.85"/>
  <path d="M16.25 31.6211C16.9336 30.8398 16.6406 29.8633 15.957 28.9648C14.2969 27.0703 13.4961 24.5312 13.4961 21.7969C13.4961 19.0625 14.2969 16.5039 15.957 14.6094C16.6406 13.7109 16.9336 12.7344 16.25 11.9727C15.5273 11.1719 14.2578 11.1523 13.4961 12.1094C11.2695 14.7461 10 18.1445 10 21.7969C10 25.4492 11.2695 28.8281 13.4961 31.4648C14.2578 32.4219 15.5273 32.4219 16.25 31.6211ZM85.5664 31.6211C86.2695 32.4219 87.5586 32.4219 88.3203 31.4648C90.5469 28.8281 91.8164 25.4492 91.8164 21.7969C91.8164 18.1445 90.5469 14.7461 88.3203 12.1094C87.5586 11.1523 86.2695 11.1719 85.5664 11.9727C84.8828 12.7344 85.1758 13.7109 85.8594 14.6094C87.5 16.5039 88.3203 19.0625 88.3203 21.7969C88.3203 24.5312 87.5 27.0703 85.8594 28.9648C85.1758 29.8633 84.8828 30.8398 85.5664 31.6211Z" fill="black" fill-opacity="0.85"/>
  <path d="M37.6562 43.5938L64.1602 43.5938C74.1797 43.5938 79.1211 38.7109 79.1211 28.75L79.1211 14.8242C79.1211 4.88281 74.1797 0 64.1602 0L37.6562 0C27.6172 0 22.6953 4.88281 22.6953 14.8242L22.6953 28.75C22.6953 38.7109 27.6172 43.5938 37.6562 43.5938ZM37.6562 40.1172C29.8047 40.1172 26.1523 36.5234 26.1523 28.75L26.1523 14.8242C26.1523 7.07031 29.8047 3.45703 37.6562 3.45703L64.1602 3.45703C72.0117 3.45703 75.6445 7.07031 75.6445 14.8242L75.6445 28.75C75.6445 36.5234 72.0117 40.1172 64.1602 40.1172ZM24.4531 16.5625L77.3633 16.5625L77.3633 14.2773L24.4531 14.2773ZM40.9375 18.2617L60.8789 18.2617C62.5391 18.2617 63.7305 17.0898 63.7305 15.4297C63.7305 13.75 62.5391 12.5781 60.8789 12.5781L40.9375 12.5781C39.3359 12.5781 38.0859 13.75 38.0859 15.4297C38.0859 17.0898 39.3359 18.2617 40.9375 18.2617ZM50.8984 26.7188C52.1875 26.6797 53.2227 25.6445 53.2227 24.4141C53.2227 23.1445 52.1875 22.0898 50.8984 22.0898C49.6289 22.0898 48.5742 23.1445 48.5742 24.4141C48.5742 25.6641 49.6289 26.7383 50.8984 26.7188Z" fill="black" fill-opacity="0.85"/>
 </g>
</svg>
