<?xml version="1.0" encoding="UTF-8"?>
<!--Generator: Apple Native CoreSVG 326-->
<!DOCTYPE svg
PUBLIC "-//W3C//DTD SVG 1.1//EN"
       "http://www.w3.org/Graphics/SVG/1.1/DTD/svg11.dtd">
<svg version="1.1" xmlns="http://www.w3.org/2000/svg" xmlns:xlink="http://www.w3.org/1999/xlink" viewBox="0 0 51.25 50.918">
 <g>
  <rect height="50.918" opacity="0" width="51.25" x="0" y="0"/>
  <path d="M50.8789 25.4688C50.8789 39.4922 39.4531 50.918 25.4297 50.918C11.4258 50.918 0 39.4922 0 25.4688C0 11.4648 11.4258 0.0390625 25.4297 0.0390625C39.4531 0.0390625 50.8789 11.4648 50.8789 25.4688ZM24.7266 28.6133L17.1484 37.1484C16.6211 37.7148 17.0312 38.5938 17.793 38.5938L33.0859 38.5938C33.8672 38.5938 34.2383 37.7148 33.7109 37.1484L26.1523 28.6133C25.8008 28.1836 25.0977 28.1836 24.7266 28.6133ZM12.207 25.4688C12.207 29.0625 13.6328 32.4609 16.2109 34.9219L17.4805 33.4766C15.3516 31.3477 14.1406 28.4375 14.1406 25.4688C14.1406 19.2773 19.2383 14.1602 25.4297 14.1602C31.6211 14.1602 36.7383 19.2773 36.7383 25.4688C36.7383 28.4375 35.5273 31.3477 33.3789 33.4766L34.668 34.9219C37.2266 32.4609 38.6914 29.0625 38.6914 25.4688C38.6914 18.2031 32.7148 12.2266 25.4297 12.2266C18.1641 12.2266 12.207 18.2031 12.207 25.4688ZM15.8984 25.4688C15.8984 27.9688 16.8555 30.3516 18.6523 32.1484L19.9414 30.6836C18.5938 29.2578 17.8711 27.4023 17.8711 25.4688C17.8711 21.3086 21.2891 17.8711 25.4297 17.8711C29.5898 17.8711 33.0273 21.3086 33.0273 25.4688C33.0273 27.4023 32.2656 29.2773 30.8984 30.6641L32.2266 32.1484C33.9844 30.332 34.9805 27.9688 34.9805 25.4688C34.9805 20.2344 30.6641 15.9375 25.4297 15.9375C20.1953 15.9375 15.8984 20.2344 15.8984 25.4688ZM19.6094 25.4688C19.6094 26.9531 20.1562 28.2812 21.1133 29.375L22.4414 27.8516C21.875 27.1875 21.5625 26.3086 21.5625 25.4688C21.5625 23.3398 23.3008 21.6016 25.4297 21.6016C27.5586 21.6016 29.3164 23.3398 29.3164 25.4688C29.3164 26.3086 29.0039 27.1875 28.418 27.832L29.7656 29.3555C30.7227 28.2812 31.2695 26.9336 31.2695 25.4688C31.2695 22.2852 28.6328 19.6289 25.4297 19.6289C22.2461 19.6289 19.6094 22.2852 19.6094 25.4688Z" fill="black" fill-opacity="0.85"/>
 </g>
</svg>
