<?xml version="1.0" encoding="UTF-8"?>
<!--Generator: Apple Native CoreSVG 326-->
<!DOCTYPE svg
PUBLIC "-//W3C//DTD SVG 1.1//EN"
       "http://www.w3.org/Graphics/SVG/1.1/DTD/svg11.dtd">
<svg version="1.1" xmlns="http://www.w3.org/2000/svg" xmlns:xlink="http://www.w3.org/1999/xlink" viewBox="0 0 66.0352 43.3398">
 <g>
  <rect height="43.3398" opacity="0" width="66.0352" x="0" y="0"/>
  <path d="M56.3867 38.5938C57.0703 39.3945 58.2812 39.375 59.1016 38.4766C63.2617 34.043 65.6641 28.1055 65.6641 21.6602C65.6641 15.1953 63.2617 9.27734 59.1016 4.82422C58.2812 3.92578 57.0703 3.92578 56.3867 4.72656C55.7031 5.48828 55.918 6.50391 56.6992 7.36328C60.1758 11.1523 62.1484 16.1328 62.1484 21.6602C62.1484 27.168 60.1758 32.1484 56.6992 35.9375C55.918 36.7969 55.7031 37.8125 56.3867 38.5938Z" fill="black" fill-opacity="0.85"/>
  <path d="M49.4141 31.4844C50.1172 32.2852 51.4062 32.2852 52.168 31.3281C54.375 28.6914 55.6641 25.3125 55.6641 21.6602C55.6641 18.0078 54.375 14.6094 52.168 11.9727C51.4062 11.0156 50.1172 11.0352 49.4141 11.8359C48.7305 12.5977 49.0039 13.5742 49.707 14.4727C51.3477 16.3672 52.168 18.9258 52.168 21.6602C52.168 24.3945 51.3477 26.9336 49.707 28.8281C49.0039 29.7266 48.7305 30.7031 49.4141 31.4844Z" fill="black" fill-opacity="0.85"/>
  <path d="M21.6602 43.3008C33.6133 43.3008 43.3203 33.6133 43.3203 21.6602C43.3203 9.6875 33.6133 0 21.6602 0C9.6875 0 0 9.6875 0 21.6602C0 33.6133 9.6875 43.3008 21.6602 43.3008ZM21.6602 29.2383C20.1562 29.2383 19.6094 30.0391 18.418 30.0391C17.168 30.0391 16.3281 28.9453 15.332 27.5586C14.2383 25.9375 13.3008 23.4375 13.3008 21.0547C13.3008 17.2461 15.7812 15.2148 18.2227 15.2148C19.5312 15.2148 20.5859 16.0742 21.4062 16.0742C22.1875 16.0742 23.3984 15.1758 24.8633 15.1758C25.4297 15.1758 27.4414 15.2148 28.75 17.0898C28.6523 17.2266 26.6602 18.3203 26.6602 20.8594C26.6602 23.7695 29.1992 24.8047 29.2773 24.8242C29.2773 24.8828 28.8867 26.25 27.9297 27.5977C27.0898 28.8086 26.1914 30.0195 24.8633 30.0195C23.5156 30.0195 23.2031 29.2383 21.6602 29.2383ZM24.1797 13.5352C23.5156 14.3555 22.4219 14.9609 21.5039 14.9609C21.4062 14.9609 21.3281 14.9219 21.25 14.9219C21.25 14.8633 21.2109 14.707 21.2109 14.5898C21.2109 13.5352 21.7578 12.5586 22.3047 11.9141C23.0273 11.0742 24.1797 10.4492 25.1953 10.4297C25.2148 10.5273 25.2148 10.6641 25.2148 10.8008C25.2148 11.8359 24.7852 12.8125 24.1797 13.5352Z" fill="black" fill-opacity="0.85"/>
 </g>
</svg>
