<?xml version="1.0" encoding="UTF-8"?>
<!--Generator: Apple Native CoreSVG 326-->
<!DOCTYPE svg
PUBLIC "-//W3C//DTD SVG 1.1//EN"
       "http://www.w3.org/Graphics/SVG/1.1/DTD/svg11.dtd">
<svg version="1.1" xmlns="http://www.w3.org/2000/svg" xmlns:xlink="http://www.w3.org/1999/xlink" viewBox="0 0 57.6562 47.4023">
 <g>
  <rect height="47.4023" opacity="0" width="57.6562" x="0" y="0"/>
  <path d="M6.54297 25.332L1.50391 25.332C0.664062 25.332 0 24.5898 0 23.7305C0 22.8906 0.664062 22.1484 1.50391 22.1484L6.54297 22.1484ZM57.2852 23.7305C57.2852 24.5898 56.6211 25.332 55.7812 25.332L50.8008 25.332L50.8008 22.1484L55.7812 22.1484C56.6211 22.1484 57.2852 22.8906 57.2852 23.7305ZM31.2695 25.332L26.0742 25.332L26.0742 22.1484L31.2695 22.1484Z" fill="black" fill-opacity="0.85"/>
  <path d="M11.6992 47.4023L20.8984 47.4023C24.2188 47.4023 26.0742 45.5078 26.0742 42.1484L26.0742 5.33203C26.0742 1.97266 24.2188 0.0976562 20.8984 0.0976562L11.6992 0.0976562C8.39844 0.0976562 6.54297 1.97266 6.54297 5.33203L6.54297 42.1484C6.54297 45.5078 8.39844 47.4023 11.6992 47.4023ZM36.4258 38.6523L45.6445 38.6523C48.9453 38.6523 50.8008 36.7773 50.8008 33.3984L50.8008 14.0625C50.8008 10.7031 48.9453 8.82812 45.6445 8.82812L36.4258 8.82812C33.125 8.82812 31.2695 10.7031 31.2695 14.0625L31.2695 33.3984C31.2695 36.7773 33.125 38.6523 36.4258 38.6523Z" fill="black" fill-opacity="0.85"/>
 </g>
</svg>
