<?xml version="1.0" encoding="UTF-8"?>
<!--Generator: Apple Native CoreSVG 326-->
<!DOCTYPE svg
PUBLIC "-//W3C//DTD SVG 1.1//EN"
       "http://www.w3.org/Graphics/SVG/1.1/DTD/svg11.dtd">
<svg version="1.1" xmlns="http://www.w3.org/2000/svg" xmlns:xlink="http://www.w3.org/1999/xlink" viewBox="0 0 50.9921 50.64">
 <g>
  <rect height="50.64" opacity="0" width="50.9921" x="0" y="0"/>
  <path d="M39.5488 39.5485C49.2558 29.8415 52.6738 16.1501 49.4316 5.44695C48.6113 2.7907 47.8301 2.00945 45.1738 1.18914C34.4902-2.05305 20.7793 1.36492 11.0527 11.072C1.36521 20.779-2.05276 34.4899 1.18943 45.1735C1.99021 47.8298 2.79099 48.6305 5.44724 49.4313C16.1504 52.6735 29.8222 49.2555 39.5488 39.5485ZM21.3261 36.3649C20.8965 36.7751 20.1933 36.7751 19.7636 36.3454L14.1386 30.7204C13.7285 30.3102 13.7285 29.6071 14.1386 29.1774C14.5879 28.7282 15.291 28.7282 15.7207 29.1579L17.7519 31.2087L19.9394 29.0016L17.8886 26.9899C17.459 26.5602 17.459 25.8766 17.8886 25.4274C18.3183 24.9782 19.041 24.9782 19.4902 25.4079L21.4824 27.4391L23.6699 25.2516L21.6386 23.2399C21.209 22.8102 21.1894 22.1266 21.6386 21.6579C22.0683 21.2477 22.8105 21.2477 23.2011 21.6384L25.2324 23.6891L27.4199 21.5016L25.3886 19.4899C24.9785 19.0602 24.9394 18.3571 25.3886 17.9274C25.8379 17.4782 26.5215 17.4782 26.9511 17.9079L29.0019 19.9587L31.1699 17.7712L29.1386 15.7399C28.709 15.3102 28.6894 14.6266 29.1386 14.1579C29.5683 13.7673 30.291 13.7673 30.6816 14.1384L36.3261 19.7829C36.7363 20.2126 36.7363 20.9352 36.3261 21.3454C35.8769 21.8141 35.1738 21.7946 34.7441 21.3259L32.7324 19.3337L30.5449 21.5016L32.5761 23.5329C33.0254 23.9821 33.0254 24.6657 32.5761 25.1149C32.1269 25.5641 31.4238 25.5446 31.0136 25.0954L29.0019 23.0837L26.8144 25.2516L28.8457 27.2829C29.2558 27.693 29.2558 28.4157 28.8457 28.8649C28.3769 29.2946 27.6933 29.2751 27.2636 28.8454L25.2324 26.8532L23.0644 29.0016L25.0761 31.0329C25.5254 31.443 25.5254 32.1657 25.0761 32.6149C24.6269 33.0251 23.9433 33.0251 23.4941 32.5954L21.4824 30.5837L19.334 32.7516L21.3261 34.7634C21.7754 35.2126 21.7754 35.9157 21.3261 36.3649Z" fill="black" fill-opacity="0.85"/>
 </g>
</svg>
