<?xml version="1.0" encoding="UTF-8"?>
<!--Generator: Apple Native CoreSVG 326-->
<!DOCTYPE svg
PUBLIC "-//W3C//DTD SVG 1.1//EN"
       "http://www.w3.org/Graphics/SVG/1.1/DTD/svg11.dtd">
<svg version="1.1" xmlns="http://www.w3.org/2000/svg" xmlns:xlink="http://www.w3.org/1999/xlink" viewBox="0 0 50.9921 50.64">
 <g>
  <rect height="50.64" opacity="0" width="50.9921" x="0" y="0"/>
  <path d="M39.5488 39.5485C49.2558 29.8415 52.6738 16.1501 49.4316 5.44695C48.6113 2.7907 47.8301 2.00945 45.1738 1.18914C34.4902-2.05305 20.7793 1.36492 11.0527 11.072C1.36521 20.779-2.05276 34.4899 1.18943 45.1735C1.99021 47.8298 2.79099 48.6305 5.44724 49.4313C16.1504 52.6735 29.8222 49.2555 39.5488 39.5485ZM37.0293 37.029C28.3769 45.7204 16.9902 48.904 6.61911 46.0329C5.19333 45.6618 4.95896 45.4274 4.5488 43.9235C1.75583 33.611 4.91989 22.2243 13.5722 13.5915C22.2246 4.90008 33.5918 1.73601 43.9043 4.54851C45.4277 4.95867 45.6621 5.21258 46.0527 6.63836C48.9043 16.9899 45.7011 28.3962 37.0293 37.029ZM29.3926 1.83367L26.5996 4.64617L45.9746 24.0407L48.8066 21.2282ZM1.85349 29.3923L21.2285 48.8063L24.041 45.9743L4.64646 26.5993ZM15.1152 30.3102L20.3105 35.5055C20.7207 35.8962 21.3261 35.8962 21.7363 35.5055C22.1269 35.0954 22.1269 34.4509 21.7363 34.0407L16.5605 28.8649C16.1504 28.4743 15.5058 28.4743 15.1152 28.8649C14.7051 29.2751 14.7051 29.9001 15.1152 30.3102ZM18.5527 26.8337L23.7676 32.0485C24.1582 32.4391 24.8027 32.4391 25.1933 32.0485C25.584 31.6384 25.584 30.9938 25.1933 30.5837L20.0176 25.4079C19.6074 25.0173 18.9629 25.0173 18.5527 25.4079C18.1816 25.818 18.1816 26.443 18.5527 26.8337ZM22.0293 23.3766L27.2246 28.5915C27.6152 28.9821 28.2597 28.9821 28.6699 28.5915C29.041 28.1813 29.041 27.5368 28.6699 27.1462L23.4551 21.9509C23.084 21.5602 22.4199 21.5602 22.0293 21.9509C21.6386 22.361 21.6386 22.986 22.0293 23.3766ZM25.4863 19.9587L30.6621 25.1345C31.0722 25.5055 31.7168 25.5055 32.1269 25.1345C32.5176 24.7243 32.5176 24.0993 32.1269 23.6891L26.9316 18.4938C26.5215 18.1032 25.8965 18.1032 25.4863 18.4938C25.0957 18.8845 25.0957 19.5485 25.4863 19.9587ZM28.9433 16.4821L34.1191 21.6579C34.5293 22.0485 35.1738 22.0485 35.584 21.6579C35.9746 21.2673 35.9746 20.6227 35.584 20.2321L30.3691 15.0173C29.9785 14.6462 29.3535 14.6462 28.9433 15.0173C28.5527 15.4274 28.5527 16.072 28.9433 16.4821ZM18.9433 33.1227L33.123 18.9235L31.6972 17.4977L17.5176 31.697Z" fill="black" fill-opacity="0.85"/>
 </g>
</svg>
