<?xml version="1.0" encoding="UTF-8"?>
<!--Generator: Apple Native CoreSVG 326-->
<!DOCTYPE svg
PUBLIC "-//W3C//DTD SVG 1.1//EN"
       "http://www.w3.org/Graphics/SVG/1.1/DTD/svg11.dtd">
<svg version="1.1" xmlns="http://www.w3.org/2000/svg" xmlns:xlink="http://www.w3.org/1999/xlink" viewBox="0 0 44.2578 54.0039">
 <g>
  <rect height="54.0039" opacity="0" width="44.2578" x="0" y="0"/>
  <path d="M9.60938 16.9922C9.60938 20.0977 11.7969 22.3633 15.9961 23.5547L28.9258 27.2852C34.707 28.9258 37.7344 32.3242 37.7344 37.168L37.7344 38.1445L34.2578 38.1445L34.2578 37.168C34.2578 34.043 32.0898 31.7969 27.8711 30.5859L14.9609 26.8555C9.16016 25.2148 6.15234 21.8164 6.15234 16.9922L6.15234 15.9375L9.60938 15.9375Z" fill="black" fill-opacity="0.85"/>
  <path d="M14.8633 1.11328C14.0039 0.253906 12.793 0.078125 11.2695 0.078125L4.57031 0.078125C3.06641 0.078125 1.875 0.253906 0.996094 1.11328C0.136719 1.97266 0 3.14453 0 4.64844L0 11.3281C0 12.8906 0.136719 14.082 0.996094 14.9219C1.875 15.7812 3.06641 15.9375 4.60938 15.9375L11.2695 15.9375C12.793 15.9375 14.0039 15.7812 14.8633 14.9219C15.7031 14.082 15.8594 12.8906 15.8594 11.3281L15.8594 4.6875C15.8594 3.14453 15.7031 1.95312 14.8633 1.11328ZM42.9102 39.1797C42.0312 38.3203 40.8398 38.1445 39.2969 38.1445L32.5977 38.1445C31.1133 38.1445 29.9023 38.3203 29.043 39.1797C28.1836 40.0391 28.0469 41.2109 28.0469 42.7148L28.0469 49.4141C28.0469 50.957 28.1836 52.1484 29.043 52.9883C29.9023 53.8477 31.0938 54.0039 32.6367 54.0039L39.2969 54.0039C40.8398 54.0039 42.0312 53.8477 42.9102 52.9883C43.75 52.1484 43.8867 50.957 43.8867 49.4141L43.8867 42.7539C43.8867 41.2109 43.75 40.0391 42.9102 39.1797Z" fill="black" fill-opacity="0.85"/>
 </g>
</svg>
