<?xml version="1.0" encoding="UTF-8"?>
<!--Generator: Apple Native CoreSVG 326-->
<!DOCTYPE svg
PUBLIC "-//W3C//DTD SVG 1.1//EN"
       "http://www.w3.org/Graphics/SVG/1.1/DTD/svg11.dtd">
<svg version="1.1" xmlns="http://www.w3.org/2000/svg" xmlns:xlink="http://www.w3.org/1999/xlink" viewBox="0 0 51.25 50.918">
 <g>
  <rect height="50.918" opacity="0" width="51.25" x="0" y="0"/>
  <path d="M50.8789 25.4688C50.8789 39.4922 39.4531 50.918 25.4297 50.918C11.4258 50.918 0 39.4922 0 25.4688C0 11.4648 11.4258 0.0390625 25.4297 0.0390625C39.4531 0.0390625 50.8789 11.4648 50.8789 25.4688ZM13.9844 13.5938C11.3867 13.5938 10.0391 14.8633 10.0391 17.4805L10.0391 33.5156C10.0391 36.1328 11.3867 37.4023 13.9844 37.4023L36.8555 37.4023C39.4727 37.4023 40.7812 36.1133 40.7812 33.5156L40.7812 17.4805C40.7812 14.8828 39.4727 13.5938 36.8555 13.5938ZM27.6758 24.9609C27.6758 25.4102 27.2852 25.8203 26.7773 25.8203L21.6797 25.8203C21.2109 25.8203 20.8203 25.4102 20.8203 24.9609C20.8203 24.4727 21.2109 24.1016 21.6797 24.1016L26.7773 24.1016C27.2852 24.1016 27.6758 24.4727 27.6758 24.9609ZM16.3086 18.0664L20.2148 20.4883C20.9375 20.957 20.918 22.0508 20.2148 22.5L16.3086 24.9805C15.1758 25.6641 14.2773 24.1016 15.3125 23.457L18.5742 21.5234L15.3125 19.5898C14.2773 18.9453 15.1758 17.3633 16.3086 18.0664Z" fill="black" fill-opacity="0.85"/>
 </g>
</svg>
