<?xml version="1.0" encoding="UTF-8"?>
<!--Generator: Apple Native CoreSVG 326-->
<!DOCTYPE svg
PUBLIC "-//W3C//DTD SVG 1.1//EN"
       "http://www.w3.org/Graphics/SVG/1.1/DTD/svg11.dtd">
<svg version="1.1" xmlns="http://www.w3.org/2000/svg" xmlns:xlink="http://www.w3.org/1999/xlink" viewBox="0 0 24.4531 55.5273">
 <g>
  <rect height="55.5273" opacity="0" width="24.4531" x="0" y="0"/>
  <path d="M5.78125 55.4883L18.5547 55.4883C22.2266 55.4883 24.3164 53.3984 24.3164 49.7266L24.3164 5.76172C24.3164 2.10938 22.2266 0 18.5547 0L5.78125 0C2.10938 0 0 2.10938 0 5.76172L0 49.7266C0 53.3984 2.10938 55.4883 5.78125 55.4883ZM7.59766 21.6992C5.78125 21.6992 4.35547 20.2539 4.35547 18.4961C4.35547 16.6797 5.78125 15.2539 7.59766 15.2539C9.375 15.2539 10.8203 16.6797 10.8203 18.4961C10.8203 20.2539 9.375 21.6992 7.59766 21.6992ZM16.582 21.6992C14.7852 21.6992 13.3398 20.2539 13.3398 18.4961C13.3398 16.6797 14.7852 15.2539 16.582 15.2539C18.3594 15.2539 19.7852 16.6797 19.7852 18.4961C19.7852 20.2539 18.3594 21.6992 16.582 21.6992ZM7.59766 30.9766C5.78125 30.9766 4.35547 29.5312 4.35547 27.7539C4.35547 25.957 5.78125 24.5117 7.59766 24.5117C9.375 24.5117 10.8203 25.957 10.8203 27.7539C10.8203 29.5312 9.375 30.9766 7.59766 30.9766ZM7.59766 40.2148C5.78125 40.2148 4.35547 38.7891 4.35547 36.9922C4.35547 35.2148 5.78125 33.7695 7.59766 33.7695C9.375 33.7695 10.8203 35.2148 10.8203 36.9922C10.8203 38.7891 9.375 40.2148 7.59766 40.2148ZM16.5625 40.2148C14.8438 40.2148 13.4766 38.8477 13.4766 37.1289L13.4766 27.6367C13.4766 25.8984 14.8438 24.5117 16.5625 24.5117C18.2812 24.5117 19.6875 25.8984 19.6875 27.6367L19.6875 37.1289C19.6875 38.8477 18.2812 40.2148 16.5625 40.2148Z" fill="black" fill-opacity="0.85"/>
 </g>
</svg>
