<?xml version="1.0" encoding="UTF-8"?>
<!--Generator: Apple Native CoreSVG 326-->
<!DOCTYPE svg
PUBLIC "-//W3C//DTD SVG 1.1//EN"
       "http://www.w3.org/Graphics/SVG/1.1/DTD/svg11.dtd">
<svg version="1.1" xmlns="http://www.w3.org/2000/svg" xmlns:xlink="http://www.w3.org/1999/xlink" viewBox="0 0 52.3242 65.6836">
 <g>
  <rect height="65.6836" opacity="0" width="52.3242" x="0" y="0"/>
  <path d="M37.2726 7.07031L14.6805 7.07031C14.8056 5.29862 15.9546 4.25781 17.832 4.25781L34.1211 4.25781C35.9986 4.25781 37.1475 5.29862 37.2726 7.07031Z" fill="black" fill-opacity="0.85"/>
  <path d="M42.3128 13.884C41.6187 13.7785 40.8836 13.7305 40.1172 13.7305L11.8359 13.7305C11.0623 13.7305 10.3209 13.7789 9.6213 13.8851C9.88879 11.8259 11.3193 10.6641 13.6133 10.6641L38.3398 10.6641C40.6335 10.6641 42.0481 11.8255 42.3128 13.884Z" fill="black" fill-opacity="0.85"/>
  <path d="M47.7148 25.4883L47.7148 53.9258C47.7148 58.9062 45.1562 61.4648 40.1172 61.4648L11.8359 61.4648C6.77734 61.4648 4.23828 58.9258 4.23828 53.9258L4.23828 25.4883C4.23828 20.5078 6.77734 17.9688 11.8359 17.9688L40.1172 17.9688C45.1562 17.9688 47.7148 20.5273 47.7148 25.4883ZM12.6367 51.7773C12.6367 52.4609 13.2031 53.0859 13.9062 53.0859C14.5703 53.0859 15.2148 52.4609 15.2148 51.7773C15.2148 51.1328 14.5703 50.5078 13.9062 50.5078C13.2031 50.5078 12.6367 51.1328 12.6367 51.7773ZM35.6055 51.7773C35.6055 52.4609 36.2109 53.0859 36.8945 53.0859C37.5781 53.0859 38.1836 52.4609 38.1836 51.7773C38.1836 51.1328 37.5781 50.5078 36.8945 50.5078C36.2109 50.5078 35.6055 51.1328 35.6055 51.7773ZM16.0938 49.4922C16.0938 50.1562 16.6797 50.7617 17.3633 50.7617C18.0664 50.7617 18.6914 50.1758 18.6914 49.4922C18.6914 48.7891 18.0664 48.1641 17.3633 48.1641C16.6602 48.1641 16.0938 48.7891 16.0938 49.4922ZM32.1289 49.4922C32.1289 50.1758 32.7344 50.7617 33.418 50.7617C34.1016 50.7617 34.707 50.1562 34.707 49.4922C34.707 48.7891 34.1016 48.1641 33.418 48.1641C32.7344 48.1641 32.1289 48.7891 32.1289 49.4922ZM20.0195 48.1445C20.0195 48.7891 20.625 49.4336 21.3086 49.4336C22.0117 49.4336 22.5781 48.7891 22.5781 48.1445C22.5781 47.4414 21.9922 46.8555 21.3086 46.8555C20.625 46.8555 20.0195 47.4414 20.0195 48.1445ZM28.1836 48.1445C28.1836 48.7891 28.7891 49.4336 29.4922 49.4336C30.1758 49.4336 30.7812 48.7891 30.7812 48.1445C30.7812 47.4414 30.1758 46.8555 29.4922 46.8555C28.7891 46.8555 28.1836 47.4414 28.1836 48.1445ZM25.2539 35.5859C23.2422 31.2695 18.8477 29.4141 14.9023 29.4141C14.2383 29.4141 13.8672 29.8242 13.8672 30.5078C14.043 34.2773 16.25 41.0547 24.1211 41.6992L24.1211 47.5977C24.1211 48.2812 24.7266 48.8672 25.3906 48.8672C26.0938 48.8672 26.6406 48.2617 26.6406 47.5977L26.6406 41.6992C34.7266 41.2109 39.9609 35.6641 39.8438 27.5781C39.8438 26.8359 39.3555 26.2695 38.4766 26.2695C32.2461 26.1523 27.4219 29.668 25.2539 35.5859ZM26.9141 39.1992C28.0078 33.0078 31.9141 29.1211 37.3047 28.8086C36.9922 34.6289 32.9883 38.6133 26.9141 39.1992ZM23.9648 39.1797C19.375 38.6914 17.168 35.332 16.5234 32.0898C19.5508 32.5391 23.125 34.4922 23.9648 39.1797Z" fill="black" fill-opacity="0.85"/>
 </g>
</svg>
