<?xml version="1.0" encoding="UTF-8"?>
<!--Generator: Apple Native CoreSVG 326-->
<!DOCTYPE svg
PUBLIC "-//W3C//DTD SVG 1.1//EN"
       "http://www.w3.org/Graphics/SVG/1.1/DTD/svg11.dtd">
<svg version="1.1" xmlns="http://www.w3.org/2000/svg" xmlns:xlink="http://www.w3.org/1999/xlink" viewBox="0 0 46.2891 45.918">
 <g>
  <rect height="45.918" opacity="0" width="46.2891" x="0" y="0"/>
  <path d="M45.918 7.53906L45.918 38.3984C45.918 43.3594 43.3594 45.918 38.3008 45.918L7.59766 45.918C2.55859 45.918 0 43.3984 0 38.3984L0 7.53906C0 2.53906 2.55859 0 7.59766 0L38.3008 0C43.3594 0 45.918 2.55859 45.918 7.53906ZM21.6992 10.6055L13.125 18.9258C12.793 19.2578 12.5977 19.6289 12.5977 20.0977C12.5977 20.9961 13.2812 21.6602 14.1992 21.6602C14.6289 21.6602 15.1172 21.4844 15.4297 21.1133L19.668 16.6797L21.3477 14.9414L21.2109 18.75L21.2109 34.1406C21.2109 35.0781 22.0117 35.8789 22.9883 35.8789C23.9453 35.8789 24.7461 35.0781 24.7461 34.1406L24.7461 18.75L24.6289 14.9414L26.2891 16.6797L30.5273 21.1133C30.8398 21.4844 31.3086 21.6602 31.7383 21.6602C32.6367 21.6602 33.3594 20.9961 33.3594 20.0977C33.3594 19.6289 33.1641 19.2578 32.8125 18.9258L24.2578 10.6055C23.8281 10.1562 23.4375 10.0195 22.9883 10.0195C22.5195 10.0195 22.1484 10.1562 21.6992 10.6055Z" fill="black" fill-opacity="0.85"/>
 </g>
</svg>
