<?xml version="1.0" encoding="UTF-8"?>
<!--Generator: Apple Native CoreSVG 326-->
<!DOCTYPE svg
PUBLIC "-//W3C//DTD SVG 1.1//EN"
       "http://www.w3.org/Graphics/SVG/1.1/DTD/svg11.dtd">
<svg version="1.1" xmlns="http://www.w3.org/2000/svg" xmlns:xlink="http://www.w3.org/1999/xlink" viewBox="0 0 51.25 50.918">
 <g>
  <rect height="50.918" opacity="0" width="51.25" x="0" y="0"/>
  <path d="M50.8789 25.4492C50.8789 39.4531 39.4531 50.8789 25.4297 50.8789C11.4258 50.8789 0 39.4531 0 25.4492C0 11.4258 11.4258 0 25.4297 0C39.4531 0 50.8789 11.4258 50.8789 25.4492ZM27.9883 13.8086C27.9883 14.2578 28.1836 14.6875 28.5156 14.9805L31.5625 17.9492L33.125 19.1797L30.5664 19.082L22.6758 19.082C16.7773 19.082 12.8516 22.7539 12.8516 28.2812C12.8516 34.0234 16.7969 37.8125 22.6953 37.8125L26.2109 37.8125C27.2461 37.8125 27.9492 37.168 27.9492 36.1914C27.9492 35.2344 27.2656 34.5898 26.25 34.5898L22.6953 34.5898C18.75 34.5898 16.0742 32.0508 16.0742 28.2812C16.0742 24.6875 18.7109 22.3047 22.6758 22.3047L30.5664 22.3047L33.1055 22.207L31.9531 23.0469L28.5156 26.3867C28.1836 26.7188 27.9883 27.1289 27.9883 27.5977C27.9883 28.5352 28.6914 29.2578 29.5898 29.2578C30.0781 29.2578 30.4883 29.082 30.7812 28.7891L37.3438 22.0898C37.7539 21.6602 37.9492 21.1914 37.9492 20.6836C37.9492 20.1758 37.7344 19.668 37.3438 19.2578L30.8008 12.6367C30.4883 12.3047 30.0977 12.1484 29.6094 12.1484C28.6719 12.1484 27.9883 12.8711 27.9883 13.8086Z" fill="black" fill-opacity="0.85"/>
 </g>
</svg>
