<?xml version="1.0" encoding="UTF-8"?>
<!--Generator: Apple Native CoreSVG 326-->
<!DOCTYPE svg
PUBLIC "-//W3C//DTD SVG 1.1//EN"
       "http://www.w3.org/Graphics/SVG/1.1/DTD/svg11.dtd">
<svg version="1.1" xmlns="http://www.w3.org/2000/svg" xmlns:xlink="http://www.w3.org/1999/xlink" viewBox="0 0 42.6367 39.9414">
 <g>
  <rect height="39.9414" opacity="0" width="42.6367" x="0" y="0"/>
  <path d="M38.2617 0.0390625C37.3438 0.0390625 36.6406 0.429688 35.6641 0.917969L2.51953 16.9531C0.625 17.8906 0 18.7695 0 19.9805C0 21.2109 0.625 22.0898 2.51953 23.0078L35.6641 39.0625C36.6602 39.5508 37.3633 39.9414 38.2812 39.9414C39.9609 39.9414 40.9961 38.6523 40.9961 36.6602L40.9961 3.32031C40.9961 1.30859 39.9414 0.0390625 38.2617 0.0390625ZM37.207 4.10156C37.4023 4.10156 37.5195 4.23828 37.5195 4.49219L37.5391 35.4688C37.5391 35.7422 37.4219 35.8789 37.2461 35.8789C37.0898 35.8789 36.9727 35.8008 36.8359 35.7422L4.88281 20.3906C4.72656 20.3125 4.55078 20.1758 4.55078 19.9805C4.55078 19.8047 4.72656 19.668 4.88281 19.5898L36.8164 4.23828C36.9531 4.16016 37.0703 4.10156 37.207 4.10156Z" fill="black" fill-opacity="0.85"/>
 </g>
</svg>
