<?xml version="1.0" encoding="UTF-8"?>
<!--Generator: Apple Native CoreSVG 326-->
<!DOCTYPE svg
PUBLIC "-//W3C//DTD SVG 1.1//EN"
       "http://www.w3.org/Graphics/SVG/1.1/DTD/svg11.dtd">
<svg version="1.1" xmlns="http://www.w3.org/2000/svg" xmlns:xlink="http://www.w3.org/1999/xlink" viewBox="0 0 47.5781 39.1602">
 <g>
  <rect height="39.1602" opacity="0" width="47.5781" x="0" y="0"/>
  <path d="M2.01172 39.0039C3.125 39.0039 3.92578 38.2227 3.92578 37.0898C3.92578 36.3281 3.84766 35.4492 3.84766 34.1406C3.84766 24.707 7.36328 20.8398 16.6992 20.8398L35.3906 20.8398L41.5039 20.5469L33.6719 27.8125L26.9141 34.668C26.582 35 26.3867 35.5078 26.3867 36.0156C26.3867 37.0898 27.207 37.8711 28.2617 37.8711C28.7695 37.8711 29.2188 37.6953 29.6484 37.2852L46.5234 20.3906C46.9727 19.9609 47.207 19.4727 47.207 18.9453C47.207 18.418 46.9727 17.9102 46.5234 17.4805L29.7656 0.703125C29.2383 0.195312 28.7695 0 28.2617 0C27.207 0 26.3867 0.800781 26.3867 1.85547C26.3867 2.36328 26.5625 2.87109 26.9141 3.20312L33.6719 10.0586L41.4844 17.3242L35.3906 17.0312L16.5234 17.0312C4.90234 17.0312 0 22.0898 0 33.9453C0 35.4102 0.0390625 36.6992 0.175781 37.3828C0.371094 38.2617 0.878906 39.0039 2.01172 39.0039Z" fill="black" fill-opacity="0.85"/>
 </g>
</svg>
