<?xml version="1.0" encoding="UTF-8"?>
<!--Generator: Apple Native CoreSVG 326-->
<!DOCTYPE svg
PUBLIC "-//W3C//DTD SVG 1.1//EN"
       "http://www.w3.org/Graphics/SVG/1.1/DTD/svg11.dtd">
<svg version="1.1" xmlns="http://www.w3.org/2000/svg" xmlns:xlink="http://www.w3.org/1999/xlink" viewBox="0 0 46.7188 47.832">
 <g>
  <rect height="47.832" opacity="0" width="46.7188" x="0" y="0"/>
  <path d="M30.6836 0C21.3086 0 14.8828 6.38672 14.8828 17.3438L14.8828 36.0742L15.1562 43.418L16.1133 43.0469L10.7617 36.9727L3.18359 29.2578C2.85156 28.9258 2.42188 28.75 1.875 28.75C0.78125 28.75 0 29.4922 0 30.625C0 31.0938 0.214844 31.6406 0.585938 32.0117L15.3516 46.9727C15.7617 47.4023 16.25 47.5977 16.7773 47.5977C17.3047 47.5977 17.793 47.4023 18.2031 46.9727L32.9688 32.0117C33.3398 31.6406 33.5547 31.0938 33.5547 30.625C33.5547 29.4922 32.7734 28.75 31.6797 28.75C31.1328 28.75 30.7031 28.9258 30.3711 29.2578L22.793 36.9727L17.4414 43.0469L18.3984 43.418L18.6719 36.0742L18.6719 17.0703C18.6719 8.53516 23.4961 3.78906 30.4883 3.78906C37.4805 3.78906 42.5586 8.53516 42.5586 17.0703L42.5586 23.5742C42.5586 24.7461 43.3984 25.5078 44.4531 25.5078C45.4883 25.5078 46.3477 24.7266 46.3477 23.5547L46.3477 17.0312C46.3477 6.25 40.0781 0 30.6836 0Z" fill="black" fill-opacity="0.85"/>
 </g>
</svg>
