<?xml version="1.0" encoding="UTF-8"?>
<!--Generator: Apple Native CoreSVG 326-->
<!DOCTYPE svg
PUBLIC "-//W3C//DTD SVG 1.1//EN"
       "http://www.w3.org/Graphics/SVG/1.1/DTD/svg11.dtd">
<svg version="1.1" xmlns="http://www.w3.org/2000/svg" xmlns:xlink="http://www.w3.org/1999/xlink" viewBox="0 0 46.2891 45.918">
 <g>
  <rect height="45.918" opacity="0" width="46.2891" x="0" y="0"/>
  <path d="M7.59766 45.918L38.3008 45.918C43.3594 45.918 45.918 43.3594 45.918 38.3984L45.918 7.53906C45.918 2.55859 43.3594 0 38.3008 0L7.59766 0C2.55859 0 0 2.53906 0 7.53906L0 38.3984C0 43.3984 2.55859 45.918 7.59766 45.918ZM7.67578 42.4609C4.94141 42.4609 3.45703 41.0156 3.45703 38.2031L3.45703 7.71484C3.45703 4.92188 4.94141 3.45703 7.67578 3.45703L38.2422 3.45703C40.918 3.45703 42.4609 4.92188 42.4609 7.71484L42.4609 38.2031C42.4609 41.0156 40.918 42.4609 38.2422 42.4609Z" fill="black" fill-opacity="0.85"/>
  <path d="M8.51562 22.9688C8.51562 23.8477 9.12109 24.4531 9.96094 24.4531L22.1484 24.4531L26.7969 24.1992L21.7773 28.7695L19.7656 30.6836C19.4531 30.957 19.3164 31.3086 19.3164 31.7578C19.3164 32.6172 19.9219 33.1836 20.7422 33.1836C21.1328 33.1836 21.6016 32.9688 21.8945 32.6758L30.625 24.0625C30.9766 23.7695 31.1328 23.3789 31.1328 22.9688C31.1328 22.5781 30.957 22.1875 30.625 21.875L21.8555 13.1836C21.543 12.8516 21.1523 12.7148 20.7617 12.7148C19.9609 12.7148 19.3164 13.3008 19.3164 14.1211C19.3164 14.5508 19.4531 14.9414 19.7656 15.2344L21.7383 17.168L26.7773 21.7383L22.1484 21.5234L9.96094 21.5234C9.12109 21.5234 8.51562 22.1289 8.51562 22.9688ZM34.6484 33.8281C35.5078 33.8281 36.1328 33.2422 36.1328 32.4023L36.1328 13.5156C36.1328 12.6758 35.5078 12.0703 34.6484 12.0703C33.8281 12.0703 33.2227 12.6758 33.2227 13.5156L33.2227 32.4023C33.2227 33.2422 33.8281 33.8281 34.6484 33.8281Z" fill="black" fill-opacity="0.85"/>
 </g>
</svg>
