<?xml version="1.0" encoding="UTF-8"?>
<!--Generator: Apple Native CoreSVG 326-->
<!DOCTYPE svg
PUBLIC "-//W3C//DTD SVG 1.1//EN"
       "http://www.w3.org/Graphics/SVG/1.1/DTD/svg11.dtd">
<svg version="1.1" xmlns="http://www.w3.org/2000/svg" xmlns:xlink="http://www.w3.org/1999/xlink" viewBox="0 0 59.5508 45.918">
 <g>
  <rect height="45.918" opacity="0" width="59.5508" x="0" y="0"/>
  <path d="M7.59766 45.918L51.5625 45.918C56.6211 45.918 59.1797 43.3594 59.1797 38.3984L59.1797 7.53906C59.1797 2.55859 56.6211 0 51.5625 0L7.59766 0C2.55859 0 0 2.53906 0 7.53906L0 38.3984C0 43.3984 2.55859 45.918 7.59766 45.918ZM7.67578 42.4609C4.94141 42.4609 3.45703 41.0156 3.45703 38.2031L3.45703 7.71484C3.45703 4.92188 4.94141 3.45703 7.67578 3.45703L51.5039 3.45703C54.1797 3.45703 55.7031 4.92188 55.7031 7.71484L55.7031 38.2031C55.7031 41.0156 54.1797 42.4609 51.5039 42.4609Z" fill="black" fill-opacity="0.85"/>
  <path d="M14.8828 20.8203C15.8008 20.8203 16.4258 20.1562 16.4258 19.2188L16.4258 15.6836L16.1719 12.0898L19.1211 15.2148L25.3125 21.4258C25.625 21.7188 25.9961 21.8945 26.5234 21.8945C27.4219 21.8945 28.0469 21.2891 28.0469 20.3516C28.0469 19.9219 27.832 19.5117 27.5391 19.2188L21.3477 12.9883L18.1836 10.0586L21.3672 10.3125L25.332 10.3125C26.2891 10.3125 26.9531 9.6875 26.9531 8.78906C26.9531 7.87109 26.2891 7.24609 25.3711 7.24609L15.0586 7.24609C14.0234 7.24609 13.3594 7.75391 13.3594 8.94531L13.3594 19.1797C13.3594 20.1172 13.9844 20.8203 14.8828 20.8203ZM44.2773 25.0977C43.3789 25.0977 42.7539 25.7617 42.7539 26.7188L42.7539 30.2344L43.0078 33.8281L40.0586 30.7031L33.8477 24.5117C33.5547 24.1992 33.1641 24.0234 32.6562 24.0234C31.7578 24.0234 31.1328 24.6484 31.1328 25.5859C31.1328 25.9961 31.3477 26.4258 31.6211 26.6992L37.832 32.9297L40.9961 35.8789L37.793 35.6055L33.8477 35.6055C32.8906 35.6055 32.2266 36.2305 32.2266 37.1484C32.2266 38.0469 32.8906 38.6719 33.8086 38.6719L44.1211 38.6719C45.1367 38.6719 45.8203 38.1641 45.8203 36.9922L45.8203 26.7578C45.8203 25.8008 45.1953 25.0977 44.2773 25.0977Z" fill="black" fill-opacity="0.85"/>
 </g>
</svg>
