<?xml version="1.0" encoding="UTF-8"?>
<!--Generator: Apple Native CoreSVG 326-->
<!DOCTYPE svg
PUBLIC "-//W3C//DTD SVG 1.1//EN"
       "http://www.w3.org/Graphics/SVG/1.1/DTD/svg11.dtd">
<svg version="1.1" xmlns="http://www.w3.org/2000/svg" xmlns:xlink="http://www.w3.org/1999/xlink" viewBox="0 0 46.2891 45.918">
 <g>
  <rect height="45.918" opacity="0" width="46.2891" x="0" y="0"/>
  <path d="M45.918 7.53906L45.918 38.3984C45.918 43.3594 43.3594 45.918 38.3008 45.918L7.59766 45.918C2.55859 45.918 0 43.3984 0 38.3984L0 7.53906C0 2.53906 2.55859 0 7.59766 0L38.3008 0C43.3594 0 45.918 2.55859 45.918 7.53906ZM13.3008 33.5742C12.4219 33.5742 11.8164 34.1992 11.8164 35.0391C11.8164 35.957 12.4219 36.582 13.3008 36.582L32.6562 36.582C33.5156 36.582 34.1211 35.957 34.1211 35.0391C34.1211 34.1992 33.5156 33.5742 32.6562 33.5742ZM21.4258 9.76562L21.4258 22.207L21.6797 26.9727L16.9336 21.7773L15.0586 19.7852C14.7852 19.4531 14.4141 19.3164 13.9453 19.3164C13.0664 19.3164 12.4805 19.9219 12.4805 20.7812C12.4805 21.1719 12.6758 21.6406 12.9688 21.9336L21.8164 30.918C22.1484 31.2891 22.5391 31.4453 22.9492 31.4453C23.3594 31.4453 23.75 31.25 24.082 30.918L32.9297 21.9727C33.3008 21.6211 33.457 21.2305 33.457 20.7812C33.457 19.9609 32.8711 19.3164 32.0117 19.3164C31.582 19.3164 31.1719 19.4531 30.8789 19.7852L28.8672 21.8164L24.2188 26.9531L24.4531 22.207L24.4531 9.76562C24.4531 8.88672 23.8086 8.24219 22.9492 8.24219C22.0312 8.24219 21.4258 8.88672 21.4258 9.76562Z" fill="black" fill-opacity="0.85"/>
 </g>
</svg>
