<?xml version="1.0" encoding="UTF-8"?>
<!--Generator: Apple Native CoreSVG 326-->
<!DOCTYPE svg
PUBLIC "-//W3C//DTD SVG 1.1//EN"
       "http://www.w3.org/Graphics/SVG/1.1/DTD/svg11.dtd">
<svg version="1.1" xmlns="http://www.w3.org/2000/svg" xmlns:xlink="http://www.w3.org/1999/xlink" viewBox="0 0 51.25 50.918">
 <g>
  <rect height="50.918" opacity="0" width="51.25" x="0" y="0"/>
  <path d="M50.8789 25.4492C50.8789 39.4531 39.4531 50.8789 25.4297 50.8789C11.4258 50.8789 0 39.4531 0 25.4492C0 11.4258 11.4258 0 25.4297 0C39.4531 0 50.8789 11.4258 50.8789 25.4492ZM24.1797 10.4102L16.6406 17.9297C16.3281 18.2031 16.1523 18.6133 16.1523 19.1016C16.1523 20 16.875 20.6836 17.793 20.6836C18.2812 20.6836 18.6719 20.5078 18.9844 20.1953L21.1914 17.9492L23.9844 14.7656L23.7891 19.8242L23.7891 31.0352L23.9844 36.0938L21.1914 32.9102L18.9844 30.6836C18.6719 30.3516 18.2812 30.1758 17.793 30.1758C16.875 30.1758 16.1523 30.8594 16.1523 31.7773C16.1523 32.2461 16.3281 32.6562 16.6406 32.9492L24.1797 40.4688C24.5898 40.8984 24.9805 41.0938 25.4688 41.0938C25.9375 41.0938 26.3086 40.8984 26.7578 40.4688L34.2969 32.9492C34.6094 32.6562 34.7656 32.2461 34.7656 31.7773C34.7656 30.8594 34.082 30.1758 33.1641 30.1758C32.6562 30.1758 32.2656 30.3711 31.9531 30.6836L29.7266 32.9102L26.9531 36.0742L27.1484 31.0352L27.1484 19.8242L26.9531 14.7852L29.7266 17.9492L31.9531 20.1953C32.2656 20.4883 32.6562 20.6836 33.1641 20.6836C34.082 20.6836 34.7656 20 34.7656 19.1016C34.7656 18.6133 34.6094 18.2031 34.2969 17.9297L26.7578 10.4102C26.3086 9.98047 25.9375 9.76562 25.4688 9.76562C24.9805 9.76562 24.5898 9.98047 24.1797 10.4102Z" fill="black" fill-opacity="0.85"/>
 </g>
</svg>
