<?xml version="1.0" encoding="UTF-8"?>
<!--Generator: Apple Native CoreSVG 326-->
<!DOCTYPE svg
PUBLIC "-//W3C//DTD SVG 1.1//EN"
       "http://www.w3.org/Graphics/SVG/1.1/DTD/svg11.dtd">
<svg version="1.1" xmlns="http://www.w3.org/2000/svg" xmlns:xlink="http://www.w3.org/1999/xlink" viewBox="0 0 46.2891 45.918">
 <g>
  <rect height="45.918" opacity="0" width="46.2891" x="0" y="0"/>
  <path d="M45.918 7.53906L45.918 38.3984C45.918 43.3594 43.3594 45.918 38.3008 45.918L7.59766 45.918C2.55859 45.918 0 43.3984 0 38.3984L0 7.53906C0 2.53906 2.55859 0 7.59766 0L38.3008 0C43.3594 0 45.918 2.55859 45.918 7.53906ZM20.9375 9.58984C20.9375 10 21.0938 10.3906 21.3477 10.6445L23.6719 13.0078C23.3594 12.9883 22.9492 12.9297 22.5781 12.9297C16.7188 12.9297 11.6016 17.8516 11.6016 24.1211C11.6016 30.5078 16.6602 35.6055 22.9688 35.6055C29.2969 35.6055 34.3359 30.5078 34.3359 24.1992C34.3359 23.3594 33.6133 22.6562 32.793 22.6562C31.9336 22.6562 31.2305 23.3594 31.2305 24.1992C31.2305 28.8086 27.5586 32.5 22.9688 32.5C18.3594 32.5 14.707 28.8086 14.707 24.1992C14.707 19.6094 18.3594 15.9375 22.9688 15.9375C23.4961 15.9375 24.0039 15.9766 24.4141 16.0742L21.4258 19.043C21.1133 19.3359 20.957 19.707 20.957 20.1172C20.957 20.918 21.582 21.5625 22.4219 21.5625C22.7734 21.5625 23.1641 21.3672 23.3984 21.1328L28.5352 15.957C29.1016 15.3906 29.082 14.375 28.5352 13.7891L23.4766 8.63281C23.2031 8.32031 22.8125 8.125 22.4023 8.125C21.5625 8.125 20.9375 8.76953 20.9375 9.58984Z" fill="black" fill-opacity="0.85"/>
 </g>
</svg>
