<?xml version="1.0" encoding="UTF-8"?>
<!--Generator: Apple Native CoreSVG 326-->
<!DOCTYPE svg
PUBLIC "-//W3C//DTD SVG 1.1//EN"
       "http://www.w3.org/Graphics/SVG/1.1/DTD/svg11.dtd">
<svg version="1.1" xmlns="http://www.w3.org/2000/svg" xmlns:xlink="http://www.w3.org/1999/xlink" viewBox="0 0 47.168 37.832">
 <g>
  <rect height="37.832" opacity="0" width="47.168" x="0" y="0"/>
  <path d="M46.7969 18.9062C46.7969 18.3789 46.582 17.8906 46.1523 17.4805L29.375 0.683594C28.8672 0.175781 28.3984 0 27.8906 0C26.8359 0 26.0156 0.78125 26.0156 1.83594C26.0156 2.34375 26.1914 2.83203 26.543 3.18359L33.3789 10.1172L42.5 18.5352L42.9492 17.4219L35.2734 17.0117L1.875 17.0117C0.78125 17.0117 0 17.793 0 18.9062C0 20 0.78125 20.8008 1.875 20.8008L35.2734 20.8008L42.9492 20.3711L42.5 19.2773L33.3789 27.6953L26.543 34.6094C26.2109 34.9609 26.0156 35.4688 26.0156 35.9766C26.0156 37.0312 26.8359 37.8125 27.8906 37.8125C28.3984 37.8125 28.8477 37.6172 29.2773 37.2266L46.1523 20.3125C46.582 19.9219 46.7969 19.4336 46.7969 18.9062Z" fill="black" fill-opacity="0.85"/>
 </g>
</svg>
