<?xml version="1.0" encoding="UTF-8"?>
<!--Generator: Apple Native CoreSVG 326-->
<!DOCTYPE svg
PUBLIC "-//W3C//DTD SVG 1.1//EN"
       "http://www.w3.org/Graphics/SVG/1.1/DTD/svg11.dtd">
<svg version="1.1" xmlns="http://www.w3.org/2000/svg" xmlns:xlink="http://www.w3.org/1999/xlink" viewBox="0 0 51.25 50.918">
 <g>
  <rect height="50.918" opacity="0" width="51.25" x="0" y="0"/>
  <path d="M25.4297 50.8789C39.4727 50.8789 50.8789 39.4922 50.8789 25.4492C50.8789 11.4062 39.4727 0 25.4297 0C11.3867 0 0 11.4062 0 25.4492C0 39.4922 11.3867 50.8789 25.4297 50.8789ZM25.4297 47.2461C13.3789 47.2461 3.63281 37.5 3.63281 25.4492C3.63281 13.3984 13.3789 3.65234 25.4297 3.65234C37.4805 3.65234 47.2266 13.3984 47.2266 25.4492C47.2266 37.5 37.4805 47.2461 25.4297 47.2461Z" fill="black" fill-opacity="0.85"/>
  <path d="M36.2305 25.0391C37.0898 25.0391 37.7734 24.3555 37.7734 23.5156L37.7734 14.8633C37.7734 13.6133 37.1094 13.1055 35.9961 13.1055L27.3828 13.1055C26.5234 13.1055 25.8398 13.7891 25.8398 14.6289C25.8398 15.4688 26.5234 16.1719 27.3828 16.1719L28.8672 16.1523L32.832 15.957L26.7969 21.7578C26.1523 22.3828 26.1328 23.4375 26.7773 24.0625C27.4023 24.707 28.4375 24.7266 29.082 24.043L34.9023 17.9688L34.707 22.1094L34.707 23.5156C34.707 24.3555 35.3906 25.0391 36.2305 25.0391ZM23.457 37.8125C24.2969 37.8125 24.9805 37.1289 24.9805 36.2695C24.9805 35.4297 24.2969 34.7461 23.457 34.7461L21.9531 34.7656L17.9883 34.9609L24.043 29.1406C24.668 28.5352 24.6875 27.4805 24.0625 26.8359C23.418 26.1914 22.4023 26.1719 21.7578 26.8555L15.918 32.9492L16.1328 28.8086L16.1328 27.4023C16.1328 26.543 15.4492 25.8594 14.5898 25.8594C13.75 25.8594 13.0664 26.543 13.0664 27.4023L13.0664 36.0352C13.0664 37.3047 13.7305 37.8125 14.8242 37.8125Z" fill="black" fill-opacity="0.85"/>
 </g>
</svg>
