<?xml version="1.0" encoding="UTF-8"?>
<!--Generator: Apple Native CoreSVG 326-->
<!DOCTYPE svg
PUBLIC "-//W3C//DTD SVG 1.1//EN"
       "http://www.w3.org/Graphics/SVG/1.1/DTD/svg11.dtd">
<svg version="1.1" xmlns="http://www.w3.org/2000/svg" xmlns:xlink="http://www.w3.org/1999/xlink" viewBox="0 0 65 40.8398">
 <g>
  <rect height="40.8398" opacity="0" width="65" x="0" y="0"/>
  <path d="M46.9531 8.00781L46.9531 32.793C46.9531 37.9102 43.9648 40.8203 38.8281 40.8203L11.5039 40.8203C6.36719 40.8203 3.37891 37.9102 3.37891 32.793L3.37891 8.00781C3.37891 2.91016 6.54297 0 11.5039 0L39.0234 0C44.1602 0 46.9531 2.91016 46.9531 8.00781ZM65 7.32422L65 33.4766C65 35.4883 63.7891 36.8164 61.9531 36.8164C61.0156 36.8164 60.0781 36.3477 59.1992 35.6055L50.0586 27.832L50.0586 12.9492L59.1992 5.21484C60.0781 4.47266 61.0156 4.00391 61.9531 4.00391C63.7891 4.00391 65 5.33203 65 7.32422ZM32.7344 10.7227L21.582 21.8945L17.5586 26.1914L17.9492 18.8672L17.9492 14.5898C17.9492 13.7305 17.3242 13.0078 16.4453 13.0078C15.5078 13.0078 14.7852 13.6914 14.7852 14.5898L14.7852 29.2188C14.7852 30.3906 15.3516 30.9766 16.543 30.9766L31.25 30.9766C32.1484 30.9766 32.8516 30.2344 32.8516 29.3164C32.8516 28.4375 32.1289 27.793 31.25 27.793L26.875 27.793L19.5312 28.2031L23.8867 24.1797L35.0195 13.0273C35.3906 12.6367 35.5664 12.2461 35.5664 11.7773C35.5664 10.8789 34.8633 10.2148 33.9062 10.2148C33.3984 10.2148 33.0664 10.3906 32.7344 10.7227Z" fill="black" fill-opacity="0.85"/>
 </g>
</svg>
