<?xml version="1.0" encoding="UTF-8"?>
<!--Generator: Apple Native CoreSVG 326-->
<!DOCTYPE svg
PUBLIC "-//W3C//DTD SVG 1.1//EN"
       "http://www.w3.org/Graphics/SVG/1.1/DTD/svg11.dtd">
<svg version="1.1" xmlns="http://www.w3.org/2000/svg" xmlns:xlink="http://www.w3.org/1999/xlink" viewBox="0 0 46.2891 45.918">
 <g>
  <rect height="45.918" opacity="0" width="46.2891" x="0" y="0"/>
  <path d="M45.918 7.53906L45.918 38.3984C45.918 43.3594 43.3594 45.918 38.3008 45.918L7.59766 45.918C2.55859 45.918 0 43.3984 0 38.3984L0 7.53906C0 2.53906 2.55859 0 7.59766 0L38.3008 0C43.3594 0 45.918 2.55859 45.918 7.53906ZM25.2734 23.418C24.1406 23.418 23.457 23.9453 23.457 25.2344L23.457 34.1016C23.457 35 24.1602 35.7031 25.0391 35.7031C25.918 35.7031 26.6211 35 26.6211 34.1016L26.6211 32.6758L26.4062 28.4375L33.4766 35.7617C34.1406 36.4453 35.1953 36.4453 35.8398 35.7812C36.5234 35.1172 36.4844 34.0625 35.8203 33.3984L28.5352 26.3672L32.5977 26.5625L34.1211 26.582C35 26.582 35.7031 25.8789 35.7031 25C35.7031 24.1211 35 23.418 34.1211 23.418ZM10.0977 10.0781C9.41406 10.7227 9.45312 11.7969 10.1172 12.4414L17.3828 19.4922L13.3398 19.2773L11.8164 19.2773C10.9375 19.2773 10.2344 19.9805 10.2344 20.8398C10.2344 21.7383 10.9375 22.4414 11.8164 22.4414L20.6641 22.4414C21.7969 22.4414 22.4805 21.8945 22.4805 20.6055L22.4805 11.7383C22.4805 10.8594 21.7773 10.1562 20.8984 10.1562C20.0195 10.1562 19.3164 10.8594 19.3164 11.7383L19.3164 13.1641L19.5312 17.4219L12.4609 10.0977C11.7969 9.41406 10.7422 9.41406 10.0977 10.0781Z" fill="black" fill-opacity="0.85"/>
 </g>
</svg>
