<?xml version="1.0" encoding="UTF-8"?>
<!--Generator: Apple Native CoreSVG 326-->
<!DOCTYPE svg
PUBLIC "-//W3C//DTD SVG 1.1//EN"
       "http://www.w3.org/Graphics/SVG/1.1/DTD/svg11.dtd">
<svg version="1.1" xmlns="http://www.w3.org/2000/svg" xmlns:xlink="http://www.w3.org/1999/xlink" viewBox="0 0 14.4531 56.6602">
 <g>
  <rect height="56.6602" opacity="0" width="14.4531" x="0" y="0"/>
  <path d="M7.05078 45.625C10.918 45.625 14.082 42.4609 14.082 38.5938L14.082 24.4727C14.082 23.6523 13.5352 23.1055 12.7148 23.1055L1.38672 23.1055C0.546875 23.1055 0 23.6523 0 24.4727L0 38.5938C0 42.4609 3.16406 45.625 7.05078 45.625ZM5.19531 56.6602L8.90625 56.6602L8.90625 44.082L5.17578 44.082ZM4.76562 20.3906L9.31641 20.3906L9.31641 7.16797L4.76562 7.16797ZM4.76562 4.64844L9.31641 4.64844L9.31641 1.40625C9.31641 0.566406 8.76953 0.0195312 7.94922 0.0195312L6.13281 0.0195312C5.3125 0.0195312 4.76562 0.566406 4.76562 1.40625Z" fill="black" fill-opacity="0.85"/>
 </g>
</svg>
