<?xml version="1.0" encoding="UTF-8"?>
<!--Generator: Apple Native CoreSVG 326-->
<!DOCTYPE svg
PUBLIC "-//W3C//DTD SVG 1.1//EN"
       "http://www.w3.org/Graphics/SVG/1.1/DTD/svg11.dtd">
<svg version="1.1" xmlns="http://www.w3.org/2000/svg" xmlns:xlink="http://www.w3.org/1999/xlink" viewBox="0 0 46.2891 45.918">
 <g>
  <rect height="45.918" opacity="0" width="46.2891" x="0" y="0"/>
  <path d="M45.918 7.53906L45.918 38.3984C45.918 43.3594 43.3594 45.918 38.3008 45.918L7.59766 45.918C2.55859 45.918 0 43.3984 0 38.3984L0 7.53906C0 2.53906 2.55859 0 7.59766 0L38.3008 0C43.3594 0 45.918 2.55859 45.918 7.53906ZM21.1133 12.4414L17.7344 22.6758L14.0234 22.6758C13.5742 22.6758 13.2422 23.0273 13.2422 23.457C13.2422 23.8867 13.5742 24.2383 14.0234 24.2383L17.207 24.2383L16.2109 27.2461L14.0234 27.2461C13.5742 27.2461 13.2422 27.6172 13.2422 28.0469C13.2422 28.457 13.5742 28.8281 14.0234 28.8281L15.6836 28.8281L14.3164 32.8906C14.2383 33.1641 14.1797 33.3789 14.1797 33.5742C14.1797 34.2969 14.7852 34.7656 15.5273 34.7656C16.2305 34.7656 16.6211 34.4141 16.8164 33.7305L18.3789 28.8281L27.5586 28.8281L29.1211 33.75C29.2969 34.3555 29.668 34.7656 30.4102 34.7656C31.1133 34.7656 31.7383 34.3555 31.7383 33.5742C31.7383 33.3398 31.6992 33.0664 31.6016 32.832L30.2539 28.8281L31.9141 28.8281C32.3633 28.8281 32.7148 28.457 32.7148 28.0469C32.7148 27.6172 32.3633 27.2461 31.9141 27.2461L29.7266 27.2461L28.7109 24.2383L31.9141 24.2383C32.3633 24.2383 32.7148 23.8867 32.7148 23.457C32.7148 23.0273 32.3633 22.6758 31.9141 22.6758L28.2031 22.6758L24.7852 12.4414C24.4727 11.5625 23.9453 11.0742 22.9688 11.0742C22.0312 11.0742 21.4062 11.6016 21.1133 12.4414ZM27.0703 27.2461L18.8477 27.2461L19.8047 24.2383L26.1328 24.2383ZM25.625 22.6758L20.293 22.6758L22.9102 14.3945L23.0078 14.3945Z" fill="black" fill-opacity="0.85"/>
 </g>
</svg>
