<?xml version="1.0" encoding="UTF-8"?>
<!--Generator: Apple Native CoreSVG 326-->
<!DOCTYPE svg
PUBLIC "-//W3C//DTD SVG 1.1//EN"
       "http://www.w3.org/Graphics/SVG/1.1/DTD/svg11.dtd">
<svg version="1.1" xmlns="http://www.w3.org/2000/svg" xmlns:xlink="http://www.w3.org/1999/xlink" viewBox="0 0 45.6641 37.9492">
 <g>
  <rect height="37.9492" opacity="0" width="45.6641" x="0" y="0"/>
  <path d="M45.293 34.7266L45.293 3.20312C45.293 1.01562 44.0039 0 42.5195 0C41.8555 0 41.1914 0.195312 40.5273 0.566406L14.082 16.0938C12.4219 17.0508 11.7383 17.8125 11.7383 18.9648C11.7383 20.1172 12.4219 20.8594 14.082 21.8164L40.5273 37.3438C41.1914 37.7148 41.8555 37.9102 42.5195 37.9102C44.0039 37.9102 45.293 36.9141 45.293 34.7266ZM8.75 37.793C10.8398 37.793 11.875 36.7578 11.875 34.668L11.875 3.22266C11.875 1.15234 10.8398 0.0976562 8.75 0.0976562L3.125 0.0976562C1.03516 0.0976562 0 1.05469 0 3.22266L0 34.668C0 36.7578 1.03516 37.793 3.125 37.793Z" fill="black" fill-opacity="0.85"/>
 </g>
</svg>
