<?xml version="1.0" encoding="UTF-8"?>
<!--Generator: Apple Native CoreSVG 326-->
<!DOCTYPE svg
PUBLIC "-//W3C//DTD SVG 1.1//EN"
       "http://www.w3.org/Graphics/SVG/1.1/DTD/svg11.dtd">
<svg version="1.1" xmlns="http://www.w3.org/2000/svg" xmlns:xlink="http://www.w3.org/1999/xlink" viewBox="0 0 60.961 50.918">
 <g>
  <rect height="50.918" opacity="0" width="60.961" x="0" y="0"/>
  <path d="M30.295 50.8789C44.3379 50.8789 55.7246 39.4922 55.7246 25.4492C55.7246 11.4062 44.3379 0 30.295 0C16.252 0 4.86526 11.4062 4.86526 25.4492L8.49808 25.4492C8.49808 13.3984 18.2442 3.65234 30.295 3.65234C42.3457 3.65234 52.0918 13.3984 52.0918 25.4492C52.0918 37.5 42.3457 47.2461 30.295 47.2461C22.834 47.2461 16.1739 43.457 12.3653 37.7539C11.7207 36.875 10.7051 36.6016 9.80667 37.1484C8.94729 37.6562 8.69339 38.8477 9.39651 39.8047C13.9473 46.5039 21.6426 50.8789 30.295 50.8789ZM1.60354 20.7227C0.00198146 20.7227-0.447237 21.8164 0.470731 23.0859L6.01761 30.9766C6.75979 32.0508 7.83401 32.0312 8.55667 30.9766L14.1035 23.0664C14.9825 21.8164 14.5528 20.7227 12.9707 20.7227Z" fill="black" fill-opacity="0.85"/>
  <path d="M25.295 36.4258L31.5254 36.4258C35.7246 36.4258 39.0645 34.4922 39.0645 30.332C39.0645 27.2461 36.877 25.2344 33.8887 24.8828L33.8887 24.7266C36.2129 24.375 37.9317 22.207 37.9317 19.8438C37.9317 16.1914 34.8653 14.375 31.4864 14.375L25.295 14.375C24.2598 14.375 23.6739 15.0781 23.6739 16.0352L23.6739 34.7852C23.6739 35.7422 24.2793 36.4258 25.295 36.4258ZM26.2715 24.0039L26.2715 16.582L30.8614 16.582C33.3809 16.582 35.3535 17.6367 35.3535 20.1562C35.3535 22.9297 33.0684 24.0039 30.2168 24.0039ZM26.2715 34.2383L26.2715 26.1523L30.8028 26.1523C33.8496 26.1523 36.4082 27.1484 36.4082 30.1758C36.4082 33.1445 34.045 34.2383 31.0567 34.2383ZM30.295 39.3164C30.7637 39.3164 31.0567 39.0039 31.0567 38.5352L31.0567 12.1094C31.0567 11.6211 30.7442 11.3086 30.295 11.3086C29.8262 11.3086 29.5137 11.6211 29.5137 12.1094L29.5137 38.5352C29.5137 39.0039 29.8262 39.3164 30.295 39.3164Z" fill="black" fill-opacity="0.85"/>
 </g>
</svg>
