<?xml version="1.0" encoding="UTF-8"?>
<!--Generator: Apple Native CoreSVG 326-->
<!DOCTYPE svg
PUBLIC "-//W3C//DTD SVG 1.1//EN"
       "http://www.w3.org/Graphics/SVG/1.1/DTD/svg11.dtd">
<svg version="1.1" xmlns="http://www.w3.org/2000/svg" xmlns:xlink="http://www.w3.org/1999/xlink" viewBox="0 0 51.565 51.2338">
 <g>
  <rect height="51.2338" opacity="0" width="51.565" x="0" y="0"/>
  <path d="M3.71218 47.4821C8.80984 52.6579 15.9583 52.4626 21.7395 46.9939L26.3489 42.5993C24.2786 43.4392 22.052 43.1267 19.7473 40.822L10.3137 31.3689C7.98953 29.0642 7.77468 26.9157 8.59499 24.8454L4.21999 29.4548C-1.24876 35.2751-1.38547 42.3064 3.71218 47.4821ZM21.6809 38.2634C24.1809 40.7829 26.5833 40.8415 29.1614 38.2634L38.2825 29.1423C40.8606 26.5446 40.802 24.1814 38.302 21.6814L29.5325 12.8923C27.0325 10.3923 24.6497 10.3532 22.0716 12.9314L12.9309 22.0525C10.3723 24.611 10.4309 27.0329 12.9309 29.5329ZM18.6731 27.2282C17.7552 26.2907 17.7552 24.904 18.6731 23.986C19.5911 23.0485 20.9973 23.0876 21.9153 24.0056C22.7747 24.865 22.8137 26.2907 21.9153 27.1892C20.9583 28.1462 19.5716 28.1071 18.6731 27.2282ZM24.0247 21.9157C23.0872 20.9978 23.0872 19.572 23.9856 18.6735C24.9036 17.7556 26.3098 17.7556 27.2278 18.6735C28.1067 19.572 28.1458 20.9587 27.1887 21.9157C26.3294 22.7751 24.8841 22.7751 24.0247 21.9157ZM32.5403 27.2282C31.6419 28.1071 30.2161 28.1071 29.2981 27.1892C28.4387 26.3298 28.4387 24.865 29.2981 24.0056C30.2552 23.0485 31.6419 23.0876 32.5403 23.986C33.4583 24.904 33.4583 26.2907 32.5403 27.2282ZM23.9856 32.5212C23.0872 31.6423 23.0677 30.236 24.0247 29.279C24.9036 28.4001 26.3294 28.4392 27.1887 29.279C28.1067 30.2165 28.1458 31.6423 27.2278 32.5212C26.2708 33.4587 24.9036 33.4587 23.9856 32.5212ZM42.638 26.4275L46.9934 21.7595C52.4231 15.8806 52.5794 8.88839 47.4817 3.73214C42.3645-1.42411 35.2747-1.1702 29.4544 4.22042L24.7669 8.55636C26.8177 7.71652 29.2591 8.2048 31.5833 10.5095L40.9973 19.9431C43.3216 22.2478 43.4778 24.3767 42.638 26.4275Z" fill="black" fill-opacity="0.85"/>
 </g>
</svg>
