<?xml version="1.0" encoding="UTF-8"?>
<!--Generator: Apple Native CoreSVG 326-->
<!DOCTYPE svg
PUBLIC "-//W3C//DTD SVG 1.1//EN"
       "http://www.w3.org/Graphics/SVG/1.1/DTD/svg11.dtd">
<svg version="1.1" xmlns="http://www.w3.org/2000/svg" xmlns:xlink="http://www.w3.org/1999/xlink" viewBox="0 0 48.8867 38.5742">
 <g>
  <rect height="38.5742" opacity="0" width="48.8867" x="0" y="0"/>
  <path d="M0 38.3984L4.0625 38.3984L4.0625 0L0 0ZM8.02734 38.3984L10.3516 38.3984L10.3516 0L8.02734 0ZM14.2383 38.3984L20.8984 38.3984L20.8984 0L14.2383 0ZM23.3203 38.3984L27.5586 38.3984L27.5586 0L23.3203 0ZM30.0781 38.3984L36.6797 38.3984L36.6797 0L30.0781 0ZM38.7109 38.3984L43.8867 38.3984L43.8867 0L38.7109 0ZM45.1758 38.3984L48.5156 38.3984L48.5156 0L45.1758 0Z" fill="black" fill-opacity="0.85"/>
 </g>
</svg>
