<?xml version="1.0" encoding="UTF-8"?>
<!--Generator: Apple Native CoreSVG 326-->
<!DOCTYPE svg
PUBLIC "-//W3C//DTD SVG 1.1//EN"
       "http://www.w3.org/Graphics/SVG/1.1/DTD/svg11.dtd">
<svg version="1.1" xmlns="http://www.w3.org/2000/svg" xmlns:xlink="http://www.w3.org/1999/xlink" viewBox="0 0 47.168 32.5977">
 <g>
  <rect height="32.5977" opacity="0" width="47.168" x="0" y="0"/>
  <path d="M1.89453 32.5586C3.00781 32.5586 3.78906 31.7773 3.78906 30.6836L3.78906 18.1836L43.0078 18.1836L43.0078 30.6836C43.0078 31.7773 43.8086 32.5586 44.9023 32.5586C46.0156 32.5586 46.7969 31.7773 46.7969 30.6836L46.7969 1.875C46.7969 0.78125 46.0156 0 44.9023 0C43.8086 0 43.0078 0.78125 43.0078 1.875L43.0078 14.3945L3.78906 14.3945L3.78906 1.875C3.78906 0.78125 3.00781 0 1.89453 0C0.78125 0 0 0.78125 0 1.875L0 30.6836C0 31.7773 0.78125 32.5586 1.89453 32.5586Z" fill="black" fill-opacity="0.85"/>
 </g>
</svg>
