<?xml version="1.0" encoding="UTF-8"?>
<!--Generator: Apple Native CoreSVG 326-->
<!DOCTYPE svg
PUBLIC "-//W3C//DTD SVG 1.1//EN"
       "http://www.w3.org/Graphics/SVG/1.1/DTD/svg11.dtd">
<svg version="1.1" xmlns="http://www.w3.org/2000/svg" xmlns:xlink="http://www.w3.org/1999/xlink" viewBox="0 0 85.3516 34.1211">
 <g>
  <rect height="34.1211" opacity="0" width="85.3516" x="0" y="0"/>
  <path d="M16.7773 0.546875C7.46094 0.546875 0 8.02734 0 17.3438C0 26.6602 7.46094 34.1211 16.7773 34.1211L68.1836 34.1211C77.5 34.1211 84.9805 26.6602 84.9805 17.3438C84.9805 8.02734 77.5 0.546875 68.1836 0.546875ZM42.4805 22.8711C39.5508 22.8711 37.3047 20.6445 37.3047 17.8125L37.3047 10.332L39.6484 9.31641L39.6484 13.457C40.5273 12.8125 41.4648 12.5195 42.4805 12.5195C45.3125 12.5195 47.6953 14.9023 47.6953 17.8125C47.6953 20.5859 45.3516 22.8711 42.4805 22.8711ZM42.4805 20.5859C44.0234 20.5859 45.3125 19.2969 45.3125 17.8125C45.3125 16.2695 44.0234 14.9609 42.4805 14.9609C40.9766 14.9609 39.6484 16.2305 39.6484 17.8125C39.6484 19.2969 40.9375 20.5859 42.4805 20.5859Z" fill="black" fill-opacity="0.85"/>
 </g>
</svg>
