<?xml version="1.0" encoding="UTF-8"?>
<!--Generator: Apple Native CoreSVG 326-->
<!DOCTYPE svg
PUBLIC "-//W3C//DTD SVG 1.1//EN"
       "http://www.w3.org/Graphics/SVG/1.1/DTD/svg11.dtd">
<svg version="1.1" xmlns="http://www.w3.org/2000/svg" xmlns:xlink="http://www.w3.org/1999/xlink" viewBox="0 0 51.25 50.918">
 <g>
  <rect height="50.918" opacity="0" width="51.25" x="0" y="0"/>
  <path d="M50.8789 25.4492C50.8789 39.4922 39.4727 50.8789 25.4297 50.8789C11.3867 50.8789 0 39.4922 0 25.4492C0 11.4062 11.3867 0 25.4297 0C39.4727 0 50.8789 11.4062 50.8789 25.4492ZM3.63281 25.4492C3.63281 37.5 13.3789 47.2461 25.4297 47.2461C37.4805 47.2461 47.2266 37.5 47.2266 25.4492C47.2266 13.3984 37.4805 3.65234 25.4297 3.65234C13.3789 3.65234 3.63281 13.3984 3.63281 25.4492Z" fill="black" fill-opacity="0.85"/>
  <path d="M25.4297 40.2148C23.125 40.2148 21.4844 38.6133 21.2695 36.5625L29.5898 36.5625C29.3945 38.6133 27.7344 40.2148 25.4297 40.2148ZM30.7227 34.5508L14.1016 34.5508C13.0078 34.5508 12.3633 33.9648 12.3633 33.0859C12.3633 31.6797 13.75 30.4883 14.9219 29.2188C15.9766 28.0469 16.1133 25.7031 16.3086 23.7109C16.3544 22.553 16.4677 21.4756 16.6641 20.4922ZM29.3359 14.0625C32.9297 15.293 34.375 18.7695 34.5703 23.7109C34.7461 25.7031 34.8438 28.0469 35.9375 29.2188C37.1484 30.4688 38.5156 31.6797 38.5156 33.0859C38.5156 33.5436 38.3356 33.9218 38.0072 34.1781L19.2341 15.3895C19.8775 14.8155 20.6423 14.3692 21.543 14.0625C22.0312 12.207 23.457 10.8008 25.4297 10.8008C27.4023 10.8008 28.8281 12.207 29.3359 14.0625Z" fill="black" fill-opacity="0.85"/>
  <path d="M36.5625 37.9883C36.9531 38.3984 37.6172 38.3984 38.0273 37.9883C38.4375 37.5781 38.4375 36.9531 38.0273 36.5234L14.375 12.8711C13.9648 12.4609 13.3008 12.4609 12.8906 12.8711C12.4805 13.2812 12.5 13.9453 12.8906 14.3359Z" fill="black" fill-opacity="0.85"/>
 </g>
</svg>
