<?xml version="1.0" encoding="UTF-8"?>
<!--Generator: Apple Native CoreSVG 326-->
<!DOCTYPE svg
PUBLIC "-//W3C//DTD SVG 1.1//EN"
       "http://www.w3.org/Graphics/SVG/1.1/DTD/svg11.dtd">
<svg version="1.1" xmlns="http://www.w3.org/2000/svg" xmlns:xlink="http://www.w3.org/1999/xlink" viewBox="0 0 59.3555 46.3086">
 <g>
  <rect height="46.3086" opacity="0" width="59.3555" x="0" y="0"/>
  <path d="M43.0859 0.46875C46.2891 0.898438 48.8867 2.48047 50.2148 5.3125C51.0938 7.16797 52.7734 11.9531 53.6914 16.4844L55.8398 19.2773C58.0664 22.168 58.9844 24.4727 58.9844 28.7891L58.9844 32.3242L58.9844 43.0469C58.9844 44.8828 57.5586 46.3086 55.7031 46.3086L52.7734 46.3086C50.918 46.3086 49.4922 44.8828 49.4922 43.0469L49.4922 38.8798C43.9264 39.2418 35.8729 39.4922 29.4922 39.4922C23.1115 39.4922 15.058 39.2418 9.49219 38.8798L9.49219 43.0469C9.49219 44.8828 8.06641 46.3086 6.21094 46.3086L3.28125 46.3086C1.42578 46.3086 0 44.8828 0 43.0469L0 28.7891C0 24.4727 0.917969 22.168 3.14453 19.2773L5.29297 16.4844C6.23047 11.9531 7.89062 7.16797 8.76953 5.3125C10.0977 2.48047 12.6953 0.859375 15.8984 0.46875C17.5977 0.253906 23.1836 0.0976562 29.4922 0.0976562C35.8008 0.0976562 41.3867 0.234375 43.0859 0.46875ZM32.168 7.44141L21.6602 20.6641C21.4453 20.8984 21.3477 21.1328 21.3477 21.3672C21.3477 21.7773 21.7188 22.0898 22.1484 22.0898L28.6719 22.0898L25.1758 31.4844C24.7266 32.5977 25.957 33.2227 26.6797 32.3047L37.168 19.1016C37.3828 18.8672 37.5 18.6328 37.5 18.3789C37.5 17.9688 37.1289 17.6367 36.6992 17.6367L30.1758 17.6367L33.6719 8.28125C34.1016 7.14844 32.8906 6.52344 32.168 7.44141Z" fill="black" fill-opacity="0.85"/>
 </g>
</svg>
