<?xml version="1.0" encoding="UTF-8"?>
<!--Generator: Apple Native CoreSVG 326-->
<!DOCTYPE svg
PUBLIC "-//W3C//DTD SVG 1.1//EN"
       "http://www.w3.org/Graphics/SVG/1.1/DTD/svg11.dtd">
<svg version="1.1" xmlns="http://www.w3.org/2000/svg" xmlns:xlink="http://www.w3.org/1999/xlink" viewBox="0 0 64.5312 54.2383">
 <g>
  <rect height="54.2383" opacity="0" width="64.5312" x="0" y="0"/>
  <path d="M0 25.1758C0 33.9258 5.99609 39.7266 15.0195 39.7266C23.8672 39.7266 29.8047 34.5312 29.8047 26.7383C29.8047 23.4961 28.6133 20.7617 26.7188 19.1211C25.957 18.4766 25.4883 18.2617 24.7461 18.2617C23.75 18.2617 23.0859 18.8867 23.0859 19.7656C23.0859 20.8008 23.6523 21.0938 24.6094 21.9727C25.7617 23.0859 26.4062 24.7461 26.4062 26.6797C26.4062 32.4219 21.8555 36.2891 15.0781 36.2891C8.08594 36.2891 3.45703 31.8359 3.45703 25.1367C3.45703 21.3281 5.41016 17.6172 8.55469 15.5273L6.91406 12.5C2.63672 15.1562 0 20.0781 0 25.1758ZM6.42578 12.3828C6.42578 17.6367 10.0586 21.582 16.0742 21.582C17.0117 21.582 17.793 20.7812 17.793 19.8438C17.793 18.9062 17.0117 18.1055 16.0742 18.1055C12.168 18.1055 9.88281 15.6055 9.88281 12.3828C9.88281 8.84766 12.7539 6.11328 16.9336 6.11328C18.7305 6.11328 20.6445 6.64062 22.4023 7.79297L24.4141 4.96094C22.0508 3.37891 19.4727 2.63672 16.9727 2.63672C10.8984 2.63672 6.42578 6.81641 6.42578 12.3828ZM19.4531 11.6797C19.4141 12.8125 20.1758 13.5547 21.1719 13.5547C22.1094 13.5547 22.832 12.9297 22.8711 11.8359C23.0664 6.99219 26.6016 3.4375 31.5625 3.4375C34.4727 3.4375 37.0508 4.92188 38.0664 7.40234C38.2227 7.75391 38.4961 7.77344 38.9453 7.65625C39.8633 7.36328 40.8398 7.20703 41.8164 7.22656C46.4258 7.26562 50.4883 10.7031 50.4883 16.0938C50.4883 27.5195 34.1211 26.3086 34.1211 37.5C34.1211 42.7148 38.1836 45.957 43.7109 45.957C44.2578 45.957 44.9219 45.918 45.5664 45.8984C46.0938 50.2734 48.6914 54.1992 52.8125 54.1992C58.7109 54.1992 61.6406 46.9336 61.6406 39.1992C61.6406 36.3281 61.4844 34.2969 61.2891 32.3633L57.8125 33.3789C58.0273 35.293 58.2031 37.0312 58.2031 39.1602C58.2031 45.6836 55.9766 50.7422 52.8125 50.7422C49.7656 50.7422 48.3789 46.8555 48.3789 43.2812C48.3789 43.0078 48.2422 42.8516 47.8906 42.8516C47.2461 42.8711 46.1328 42.8906 45.5469 42.8906C40.7422 42.8906 37.5781 41.2305 37.5781 37.4414C37.5781 28.3398 53.9453 29.8828 53.9453 16.0938C53.9453 8.69141 48.6133 3.76953 42.2266 3.76953C41.6211 3.75 40.8203 3.86719 40.0195 4.0625C38.1445 1.50391 35 0 31.582 0C24.6875 0 19.7656 4.80469 19.4531 11.6797ZM48.7109 35.7031C48.7109 36.6602 49.4727 37.3633 50.4492 37.4219C58.6719 37.8516 64.1602 32.9883 64.1602 25.2734C64.1602 18.7695 59.5312 13.8672 52.6172 13.0469L52.1094 16.5039C57.2656 16.6016 60.7031 20.0977 60.7031 25.2734C60.7031 30.8594 56.582 34.3555 50.4492 33.9844C49.4727 33.9062 48.7109 34.7461 48.7109 35.7031ZM35.7227 39.1992C34.2969 39.707 32.5391 39.9414 30.957 39.9414C26.8945 39.9414 22.6562 38.3789 20.9375 35.7812L18.0664 38.125C20.6641 41.3281 25.2344 43.3984 30.625 43.3984C32.5195 43.3984 34.7461 43.125 36.875 42.5195ZM27.6562 22.1875L28.8086 25.4688C34.8438 24.2578 37.6367 20.5078 37.6172 14.7852C37.6172 13.8477 36.8359 13.0664 35.8789 13.0664C34.9414 13.0664 34.1602 13.8477 34.1602 14.7852C34.1602 19.0039 32.3242 21.4844 27.6562 22.1875Z" fill="black" fill-opacity="0.85"/>
 </g>
</svg>
