<?xml version="1.0" encoding="UTF-8"?>
<!--Generator: Apple Native CoreSVG 326-->
<!DOCTYPE svg
PUBLIC "-//W3C//DTD SVG 1.1//EN"
       "http://www.w3.org/Graphics/SVG/1.1/DTD/svg11.dtd">
<svg version="1.1" xmlns="http://www.w3.org/2000/svg" xmlns:xlink="http://www.w3.org/1999/xlink" viewBox="0 0 60.961 50.918">
 <g>
  <rect height="50.918" opacity="0" width="60.961" x="0" y="0"/>
  <path d="M30.295 50.8789C44.3379 50.8789 55.7246 39.4922 55.7246 25.4492C55.7246 11.4062 44.3379 0 30.295 0C16.252 0 4.86526 11.4062 4.86526 25.4492L8.49808 25.4492C8.49808 13.3984 18.2442 3.65234 30.295 3.65234C42.3457 3.65234 52.0918 13.3984 52.0918 25.4492C52.0918 37.5 42.3457 47.2461 30.295 47.2461C22.834 47.2461 16.1739 43.457 12.3653 37.7539C11.7207 36.875 10.7051 36.6016 9.80667 37.1484C8.94729 37.6562 8.69339 38.8477 9.39651 39.8047C13.9473 46.5039 21.6426 50.8789 30.295 50.8789ZM1.60354 20.7227C0.00198146 20.7227-0.447237 21.8164 0.470731 23.0859L6.01761 30.9766C6.75979 32.0508 7.83401 32.0312 8.55667 30.9766L14.1035 23.0664C14.9825 21.8164 14.5528 20.7227 12.9707 20.7227Z" fill="black" fill-opacity="0.85"/>
  <path d="M19.1817 35.625C19.9825 35.625 20.4512 35.0977 20.4512 34.2969L20.4512 27.0508L23.8106 27.0508L27.0918 34.707C27.3653 35.332 27.7364 35.625 28.3809 35.625C29.1035 35.625 29.5918 35.1367 29.5918 34.4336C29.5918 34.1016 29.4551 33.7891 29.3379 33.4961L26.2715 26.5039C28.5567 25.6055 29.5918 23.3398 29.5918 20.957C29.5918 17.1289 27.2285 14.9414 23.5371 14.9414L19.1621 14.9414C18.3809 14.9414 17.9121 15.4492 17.9121 16.25L17.9121 34.2969C17.9121 35.0586 18.3028 35.625 19.1817 35.625ZM20.4512 25L20.4512 17.0703L23.3028 17.0703C25.7442 17.0703 27.0528 18.6328 27.0528 20.9961C27.0528 23.3594 25.8614 25 23.3223 25ZM37.834 35.0586C41.3887 35.0586 43.6934 33.0664 43.6934 29.9023C43.6934 26.9141 41.8575 25.6445 39.3575 24.4727L37.5996 23.6328C35.8809 22.8125 34.5137 21.8555 34.5137 20.0977C34.5137 18.2422 35.9395 17.2852 37.7754 17.2852C39.9434 17.2852 40.7832 18.7109 41.0371 20.4883C41.1348 20.957 41.5254 21.4258 42.209 21.4258C42.8926 21.4258 43.3418 20.9961 43.3418 20.3125C43.3418 20.1367 43.3028 19.8242 43.2637 19.5898C42.6778 16.4648 40.4317 15.2734 37.7754 15.2734C34.5723 15.2734 32.1309 17.0898 32.1309 20.2344C32.1309 22.9102 33.6739 24.3555 36.3692 25.6641L38.127 26.5039C39.8457 27.3242 41.2715 28.2227 41.2715 30.1172C41.2715 32.0508 39.9629 33.0078 37.8535 33.0078C35.5684 33.0078 34.5528 31.7773 34.2012 29.668C34.1035 29.0234 33.5957 28.7109 33.0684 28.7109C32.3848 28.7109 31.8965 29.1016 31.8965 29.8438C31.8965 30.0195 31.9356 30.3125 31.9746 30.5469C32.5996 33.75 34.9825 35.0586 37.834 35.0586ZM37.795 37.7539C38.166 37.7539 38.42 37.5 38.42 37.1094L38.42 13.2812C38.42 12.9102 38.166 12.6562 37.795 12.6562C37.4043 12.6562 37.1504 12.9102 37.1504 13.2812L37.1504 37.1094C37.1504 37.5 37.4043 37.7539 37.795 37.7539Z" fill="black" fill-opacity="0.85"/>
 </g>
</svg>
