<?xml version="1.0" encoding="UTF-8"?>
<!--Generator: Apple Native CoreSVG 326-->
<!DOCTYPE svg
PUBLIC "-//W3C//DTD SVG 1.1//EN"
       "http://www.w3.org/Graphics/SVG/1.1/DTD/svg11.dtd">
<svg version="1.1" xmlns="http://www.w3.org/2000/svg" xmlns:xlink="http://www.w3.org/1999/xlink" viewBox="0 0 35.6445 58.0664">
 <g>
  <rect height="58.0664" opacity="0" width="35.6445" x="0" y="0"/>
  <path d="M3.76953 58.0469L31.5039 58.0469C33.8672 58.0469 35.2734 56.5039 35.2734 53.9844L35.2734 4.0625C35.2734 1.52344 33.8672 0 31.5039 0L3.76953 0C1.40625 0 0 1.52344 0 4.0625L0 53.9844C0 56.5039 1.40625 58.0469 3.76953 58.0469ZM4.74609 54.7656C3.75 54.7656 3.28125 54.3164 3.28125 53.2812L3.28125 4.74609C3.28125 3.71094 3.75 3.28125 4.74609 3.28125L30.5078 3.28125C31.5234 3.28125 31.9922 3.71094 31.9922 4.74609L31.9922 53.2812C31.9922 54.3164 31.5234 54.7656 30.5078 54.7656ZM9.6875 17.2266L14.8047 17.2266C15.3711 17.2266 15.7422 16.8359 15.7422 16.25L15.7422 11.2695C15.7422 10.7031 15.3711 10.3125 14.8047 10.3125L9.6875 10.3125C9.12109 10.3125 8.76953 10.7031 8.76953 11.2695L8.76953 16.25C8.76953 16.8359 9.12109 17.2266 9.6875 17.2266ZM20.4492 17.2266L25.5469 17.2266C26.1328 17.2266 26.5039 16.8359 26.5039 16.25L26.5039 11.2695C26.5039 10.7031 26.1328 10.3125 25.5469 10.3125L20.4492 10.3125C19.8633 10.3125 19.5117 10.7031 19.5117 11.2695L19.5117 16.25C19.5117 16.8359 19.8633 17.2266 20.4492 17.2266ZM9.6875 27.4805L14.8047 27.4805C15.3711 27.4805 15.7422 27.0898 15.7422 26.5039L15.7422 21.5234C15.7422 20.957 15.3711 20.5664 14.8047 20.5664L9.6875 20.5664C9.12109 20.5664 8.76953 20.957 8.76953 21.5234L8.76953 26.5039C8.76953 27.0898 9.12109 27.4805 9.6875 27.4805ZM20.4492 27.4805L25.5469 27.4805C26.1328 27.4805 26.5039 27.0898 26.5039 26.5039L26.5039 21.5234C26.5039 20.957 26.1328 20.5664 25.5469 20.5664L20.4492 20.5664C19.8633 20.5664 19.5117 20.957 19.5117 21.5234L19.5117 26.5039C19.5117 27.0898 19.8633 27.4805 20.4492 27.4805ZM9.6875 37.7148L14.8047 37.7148C15.3711 37.7148 15.7422 37.3438 15.7422 36.7578L15.7422 31.7773C15.7422 31.2109 15.3711 30.8203 14.8047 30.8203L9.6875 30.8203C9.12109 30.8203 8.76953 31.2109 8.76953 31.7773L8.76953 36.7578C8.76953 37.3438 9.12109 37.7148 9.6875 37.7148ZM20.4492 37.7148L25.5469 37.7148C26.1328 37.7148 26.5039 37.3438 26.5039 36.7578L26.5039 31.7773C26.5039 31.2109 26.1328 30.8203 25.5469 30.8203L20.4492 30.8203C19.8633 30.8203 19.5117 31.2109 19.5117 31.7773L19.5117 36.7578C19.5117 37.3438 19.8633 37.7148 20.4492 37.7148ZM10.4883 56.3281L13.2031 56.3281L13.2031 48.4961C13.2031 47.9297 13.4766 47.6367 14.082 47.6367L21.1914 47.6367C21.7969 47.6367 22.0703 47.9297 22.0703 48.4961L22.0703 56.3281L24.7852 56.3281L24.7852 47.8125C24.7852 45.8398 23.9258 44.9023 22.0117 44.9023L13.2617 44.9023C11.3477 44.9023 10.4883 45.8398 10.4883 47.8125Z" fill="black" fill-opacity="0.85"/>
 </g>
</svg>
