<?xml version="1.0" encoding="UTF-8"?>
<!--Generator: Apple Native CoreSVG 326-->
<!DOCTYPE svg
PUBLIC "-//W3C//DTD SVG 1.1//EN"
       "http://www.w3.org/Graphics/SVG/1.1/DTD/svg11.dtd">
<svg version="1.1" xmlns="http://www.w3.org/2000/svg" xmlns:xlink="http://www.w3.org/1999/xlink" viewBox="0 0 51.25 50.918">
 <g>
  <rect height="50.918" opacity="0" width="51.25" x="0" y="0"/>
  <path d="M25.4297 50.8789C39.4727 50.8789 50.8789 39.4922 50.8789 25.4492C50.8789 11.4062 39.4727 0 25.4297 0C11.3867 0 0 11.4062 0 25.4492C0 39.4922 11.3867 50.8789 25.4297 50.8789ZM25.4297 47.2461C13.3789 47.2461 3.63281 37.5 3.63281 25.4492C3.63281 13.3984 13.3789 3.65234 25.4297 3.65234C37.4805 3.65234 47.2266 13.3984 47.2266 25.4492C47.2266 37.5 37.4805 47.2461 25.4297 47.2461Z" fill="black" fill-opacity="0.85"/>
  <path d="M16.1523 37.6758L34.6875 37.6758C37.3633 37.6758 38.7305 36.3281 38.7305 33.6719L38.7305 17.2266C38.7305 14.5703 37.3633 13.2031 34.6875 13.2031L16.1523 13.2031C13.457 13.2031 12.0898 14.5508 12.0898 17.2266L12.0898 33.6719C12.0898 36.3281 13.457 37.6758 16.1523 37.6758ZM16.0547 35.6055C14.8047 35.6055 14.1992 35.0195 14.1992 33.75L14.1992 21.3086C14.1992 19.9414 14.9023 19.2578 16.2305 19.2578L34.5703 19.2578C35.8984 19.2578 36.6406 19.9414 36.6406 21.3086L36.6406 33.75C36.6406 35.0195 36.0352 35.6055 34.7656 35.6055ZM22.6953 24.2188L23.6133 24.2188C24.1602 24.2188 24.2969 24.1016 24.2969 23.5742L24.2969 22.6367C24.2969 22.1094 24.1602 21.9531 23.6133 21.9531L22.6953 21.9531C22.1484 21.9531 22.0117 22.1094 22.0117 22.6367L22.0117 23.5742C22.0117 24.1016 22.1484 24.2188 22.6953 24.2188ZM27.2266 24.2188L28.1445 24.2188C28.6719 24.2188 28.8281 24.1016 28.8281 23.5742L28.8281 22.6367C28.8281 22.1094 28.6719 21.9531 28.1445 21.9531L27.2266 21.9531C26.6797 21.9531 26.5234 22.1094 26.5234 22.6367L26.5234 23.5742C26.5234 24.1016 26.6797 24.2188 27.2266 24.2188ZM31.7188 24.2188L32.6367 24.2188C33.1641 24.2188 33.3398 24.1016 33.3398 23.5742L33.3398 22.6367C33.3398 22.1094 33.1641 21.9531 32.6367 21.9531L31.7188 21.9531C31.1719 21.9531 31.0156 22.1094 31.0156 22.6367L31.0156 23.5742C31.0156 24.1016 31.1719 24.2188 31.7188 24.2188ZM18.1836 28.6719L19.1016 28.6719C19.6484 28.6719 19.8047 28.5352 19.8047 28.0078L19.8047 27.0703C19.8047 26.543 19.6484 26.3867 19.1016 26.3867L18.1836 26.3867C17.6562 26.3867 17.4805 26.543 17.4805 27.0703L17.4805 28.0078C17.4805 28.5352 17.6562 28.6719 18.1836 28.6719ZM22.6953 28.6719L23.6133 28.6719C24.1602 28.6719 24.2969 28.5352 24.2969 28.0078L24.2969 27.0703C24.2969 26.543 24.1602 26.3867 23.6133 26.3867L22.6953 26.3867C22.1484 26.3867 22.0117 26.543 22.0117 27.0703L22.0117 28.0078C22.0117 28.5352 22.1484 28.6719 22.6953 28.6719ZM27.2266 28.6719L28.1445 28.6719C28.6719 28.6719 28.8281 28.5352 28.8281 28.0078L28.8281 27.0703C28.8281 26.543 28.6719 26.3867 28.1445 26.3867L27.2266 26.3867C26.6797 26.3867 26.5234 26.543 26.5234 27.0703L26.5234 28.0078C26.5234 28.5352 26.6797 28.6719 27.2266 28.6719ZM31.7188 28.6719L32.6367 28.6719C33.1641 28.6719 33.3398 28.5352 33.3398 28.0078L33.3398 27.0703C33.3398 26.543 33.1641 26.3867 32.6367 26.3867L31.7188 26.3867C31.1719 26.3867 31.0156 26.543 31.0156 27.0703L31.0156 28.0078C31.0156 28.5352 31.1719 28.6719 31.7188 28.6719ZM18.1836 33.125L19.1016 33.125C19.6484 33.125 19.8047 32.9688 19.8047 32.4414L19.8047 31.5039C19.8047 30.9766 19.6484 30.8398 19.1016 30.8398L18.1836 30.8398C17.6562 30.8398 17.4805 30.9766 17.4805 31.5039L17.4805 32.4414C17.4805 32.9688 17.6562 33.125 18.1836 33.125ZM22.6953 33.125L23.6133 33.125C24.1602 33.125 24.2969 32.9688 24.2969 32.4414L24.2969 31.5039C24.2969 30.9766 24.1602 30.8398 23.6133 30.8398L22.6953 30.8398C22.1484 30.8398 22.0117 30.9766 22.0117 31.5039L22.0117 32.4414C22.0117 32.9688 22.1484 33.125 22.6953 33.125ZM27.2266 33.125L28.1445 33.125C28.6719 33.125 28.8281 32.9688 28.8281 32.4414L28.8281 31.5039C28.8281 30.9766 28.6719 30.8398 28.1445 30.8398L27.2266 30.8398C26.6797 30.8398 26.5234 30.9766 26.5234 31.5039L26.5234 32.4414C26.5234 32.9688 26.6797 33.125 27.2266 33.125Z" fill="black" fill-opacity="0.85"/>
 </g>
</svg>
