<?xml version="1.0" encoding="UTF-8"?>
<!--Generator: Apple Native CoreSVG 326-->
<!DOCTYPE svg
PUBLIC "-//W3C//DTD SVG 1.1//EN"
       "http://www.w3.org/Graphics/SVG/1.1/DTD/svg11.dtd">
<svg version="1.1" xmlns="http://www.w3.org/2000/svg" xmlns:xlink="http://www.w3.org/1999/xlink" viewBox="0 0 51.25 50.918">
 <g>
  <rect height="50.918" opacity="0" width="51.25" x="0" y="0"/>
  <path d="M50.8789 25.4688C50.8789 39.4922 39.4531 50.918 25.4297 50.918C11.4258 50.918 0 39.4922 0 25.4688C0 11.4648 11.4258 0.0390625 25.4297 0.0390625C39.4531 0.0390625 50.8789 11.4648 50.8789 25.4688ZM22.7539 12.3828C21.4453 12.3828 20.8008 12.7148 20.1562 13.457L19.0625 14.6484C18.4375 15.3125 18.1445 15.5078 17.1094 15.5078L13.75 15.5078C11.1328 15.5078 9.78516 16.8164 9.78516 19.4531L9.78516 33.2031C9.78516 35.8008 11.1328 37.1289 13.75 37.1289L37.0898 37.1289C39.707 37.1289 41.0742 35.8008 41.0742 33.2031L41.0742 19.4531C41.0742 16.8164 39.707 15.5078 37.0898 15.5078L33.5938 15.5078C32.5781 15.5078 32.2461 15.3516 31.6406 14.6484L30.5469 13.457C29.8828 12.7148 29.2578 12.3828 27.9297 12.3828ZM33.1641 26.1719C33.1641 30.5664 29.7266 33.9258 25.4492 33.9258C21.1523 33.9258 17.6953 30.5078 17.6953 26.1719C17.6953 21.8945 21.1523 18.4375 25.4492 18.4375C29.7266 18.4375 33.1641 21.8945 33.1641 26.1719ZM19.6875 26.1719C19.6875 29.375 22.2656 31.9336 25.4297 31.9336C28.5938 31.9336 31.1719 29.375 31.1719 26.1719C31.1719 22.9883 28.5938 20.4297 25.4297 20.4297C22.2656 20.4297 19.6875 22.9883 19.6875 26.1719ZM37.9102 20.3516C37.9102 21.25 37.168 21.9922 36.25 21.9922C35.3516 21.9922 34.6094 21.25 34.6094 20.3516C34.6094 19.4141 35.3516 18.6719 36.25 18.6719C37.168 18.6719 37.9102 19.4141 37.9102 20.3516Z" fill="black" fill-opacity="0.85"/>
 </g>
</svg>
