<?xml version="1.0" encoding="UTF-8"?>
<!--Generator: Apple Native CoreSVG 326-->
<!DOCTYPE svg
PUBLIC "-//W3C//DTD SVG 1.1//EN"
       "http://www.w3.org/Graphics/SVG/1.1/DTD/svg11.dtd">
<svg version="1.1" xmlns="http://www.w3.org/2000/svg" xmlns:xlink="http://www.w3.org/1999/xlink" viewBox="0 0 36.0922 58.4961">
 <g>
  <rect height="58.4961" opacity="0" width="36.0922" x="0" y="0"/>
  <path d="M5.64378 19.7852C5.64378 20.7227 6.38597 21.4648 7.36253 21.4648L8.69065 21.4648C9.64768 21.4648 10.3703 20.7227 10.3703 19.7852L10.3703 18.418L28.2219 18.418L28.2219 19.7852C28.2219 20.7227 28.9641 21.4648 29.9407 21.4648L31.2688 21.4648C32.2063 21.4648 32.968 20.7227 32.968 19.7852L32.968 12.3438C32.968 10.332 32.5774 9.14062 31.4446 7.85156L30.3703 6.62109L29.1399 3.14453C28.4367 1.15234 27.1672 0.332031 25.4875 0.175781C24.7258 0.078125 22.1867 0 19.2961 0C16.425 0 13.8664 0.078125 13.1047 0.175781C11.425 0.332031 10.1555 1.15234 9.45237 3.14453L8.2219 6.62109L7.16722 7.85156C5.99534 9.17969 5.64378 10.332 5.64378 12.3438ZM11.4446 6.40625C11.0735 6.40625 10.9367 6.19141 11.0539 5.78125L11.7375 3.69141C12.011 2.94922 12.3625 2.55859 13.1633 2.48047C14.1789 2.38281 16.2492 2.32422 19.2961 2.32422C22.5578 2.32422 24.5891 2.38281 25.468 2.48047C26.1711 2.57812 26.5813 2.92969 26.8352 3.69141L27.5383 5.80078C27.6555 6.19141 27.5188 6.40625 27.1672 6.40625ZM9.88206 13.8281C9.17893 13.8281 8.71018 13.3789 8.71018 12.6758L8.71018 10.8398C8.71018 10.1562 9.17893 9.70703 9.88206 9.70703C10.5461 9.70703 11.0344 10.1562 11.0344 10.8398L11.0344 12.6758C11.0344 13.3789 10.5461 13.8281 9.88206 13.8281ZM16.6399 13.3203C16.0735 13.3203 15.8 13.0078 15.8 12.3633L15.8 11.1328C15.8 10.5273 16.093 10.2344 16.6399 10.2344L21.8742 10.2344C22.4602 10.2344 22.7532 10.5273 22.7532 11.1328L22.7532 12.3633C22.7532 13.0078 22.4797 13.3203 21.8742 13.3203ZM28.8078 13.8281C28.1633 13.8281 27.6555 13.3789 27.6555 12.6758L27.6555 10.8398C27.6555 10.1562 28.1633 9.70703 28.8078 9.70703C29.4914 9.70703 29.9797 10.1562 29.9797 10.8398L29.9797 12.6758C29.9797 13.3789 29.4914 13.8281 28.8078 13.8281ZM15.1164 24.8828L13.8274 23.9453C13.3196 23.5742 12.7141 23.418 12.0891 23.418L9.4719 23.418C8.55393 23.418 8.20237 24.4336 8.92503 24.9219L11.5422 26.7773C12.2649 27.2852 12.1867 27.793 11.3469 28.1445L2.81175 31.6992C-0.606222 33.125-0.918722 35.332 1.93284 37.3633L3.24143 38.2617C3.76878 38.6328 4.31565 38.8281 4.97972 38.8281L7.61643 38.8281C8.5344 38.8281 8.80784 37.793 8.12425 37.3047L5.50706 35.4883C4.80393 35 4.86253 34.4141 5.70237 34.0625L14.2571 30.5469C17.636 29.1406 17.9875 26.9336 15.1164 24.8828ZM33.4563 24.9219L32.1477 24.0234C31.6008 23.6328 31.0344 23.4766 30.4094 23.4766L27.7532 23.4766C26.8742 23.4766 26.5617 24.4727 27.2453 24.9805L29.8625 26.8164C30.5657 27.3047 30.5071 27.8516 29.6867 28.1836L21.1516 31.7383C17.7336 33.1836 17.3821 35.3516 20.2532 37.4023L21.5422 38.3203C22.0696 38.7109 22.6555 38.8672 23.3196 38.8672L25.9367 38.8672C26.8352 38.8672 27.1477 37.8516 26.4446 37.3438L23.8274 35.5273C23.1242 35.0391 23.1828 34.4922 24.0422 34.1211L32.5774 30.5859C35.9758 29.1797 36.3274 26.9336 33.4563 24.9219Z" fill="black" fill-opacity="0.85"/>
  <path d="M7.51878 58.4961C11.6789 58.4961 13.7102 55.3906 13.7102 51.3477C13.7102 47.2461 11.6594 44.1211 7.51878 44.1211C3.51487 44.1211 1.3469 47.1484 1.3469 51.3477C1.3469 55.332 3.35862 58.4961 7.51878 58.4961ZM7.51878 56.1523C5.0969 56.1523 4.218 53.6719 4.218 51.3477C4.218 48.8477 5.19456 46.5039 7.51878 46.5039C9.99925 46.5039 10.8391 49.0039 10.8391 51.3477C10.8391 53.8867 9.86253 56.1523 7.51878 56.1523ZM17.4797 58.3594C18.4758 58.3594 18.886 57.7148 18.886 56.9141L18.886 52.7344L23.1438 52.7344C23.8664 52.7344 24.3352 52.3047 24.3352 51.6016C24.3352 50.8984 23.886 50.4688 23.1438 50.4688L18.886 50.4688L18.886 46.8164L23.5735 46.8164C24.3742 46.8164 24.8235 46.3867 24.8235 45.6445C24.8235 44.8828 24.3742 44.4531 23.5735 44.4531L17.4602 44.4531C16.6399 44.4531 16.0735 44.9805 16.0735 45.918L16.0735 56.9141C16.0735 57.6953 16.5032 58.3594 17.4797 58.3594ZM28.3196 58.3594C29.3157 58.3594 29.7258 57.7148 29.7258 56.9141L29.7258 52.7344L33.9641 52.7344C34.7063 52.7344 35.175 52.3047 35.175 51.6016C35.175 50.8984 34.7258 50.4688 33.9641 50.4688L29.7258 50.4688L29.7258 46.8164L34.3938 46.8164C35.1946 46.8164 35.6633 46.3867 35.6633 45.6445C35.6633 44.8828 35.1946 44.4531 34.3938 44.4531L28.3 44.4531C27.4797 44.4531 26.9133 44.9805 26.9133 45.918L26.9133 56.9141C26.9133 57.6953 27.343 58.3594 28.3196 58.3594Z" fill="black" fill-opacity="0.85"/>
 </g>
</svg>
