<?xml version="1.0" encoding="UTF-8"?>
<!--Generator: Apple Native CoreSVG 326-->
<!DOCTYPE svg
PUBLIC "-//W3C//DTD SVG 1.1//EN"
       "http://www.w3.org/Graphics/SVG/1.1/DTD/svg11.dtd">
<svg version="1.1" xmlns="http://www.w3.org/2000/svg" xmlns:xlink="http://www.w3.org/1999/xlink" viewBox="0 0 56.2793 63.5352">
 <g>
  <rect height="63.5352" opacity="0" width="56.2793" x="0" y="0"/>
  <path d="M43.9111 17.2852L43.9111 22.3242L53.2275 31.582C53.9307 32.2852 55.0635 32.2656 55.7666 31.582C56.4502 30.8789 56.4502 29.7266 55.7666 29.043ZM27.9541 63.4961C40.0635 63.4961 45.4932 60.7227 45.4932 54.2969L45.4932 11.1914C45.4932 4.10156 39.0674 0 27.9541 0C16.8408 0 10.415 4.10156 10.415 11.1914L10.415 54.2969C10.415 60.7227 15.8447 63.4961 27.9541 63.4961ZM27.9541 59.9414C18.3643 59.9414 13.9893 58.1641 13.9893 54.1406L13.9893 11.1914C13.9893 6.36719 19.1064 3.57422 27.9541 3.57422C36.8018 3.57422 41.9189 6.36719 41.9189 11.1914L41.9189 54.1406C41.9189 58.1641 37.5439 59.9414 27.9541 59.9414ZM27.9541 26.4453C30.1611 26.4453 34.1064 26.6211 35.376 26.6211C37.251 26.6211 38.0908 25.8984 38.2471 23.9258L38.6572 19.4141C38.9697 15.8398 36.665 14.3164 27.9541 14.3164C19.2627 14.3164 16.958 15.8398 17.2705 19.4141L17.6807 23.9258C17.8369 25.8984 18.6768 26.6211 20.5518 26.6211C21.8213 26.6211 25.5127 26.4453 27.9541 26.4453ZM27.9541 53.2422C36.4307 53.2422 38.9893 52.0117 38.501 48.3594L38.208 46.0938C37.8369 43.1445 35.3564 42.1484 27.9541 42.1484C20.5713 42.1484 18.0908 43.1445 17.7197 46.0938L17.4268 48.3594C16.9385 52.0117 19.4971 53.2422 27.9541 53.2422Z" fill="black" fill-opacity="0.85"/>
 </g>
</svg>
