<?xml version="1.0" encoding="UTF-8"?>
<!--Generator: Apple Native CoreSVG 326-->
<!DOCTYPE svg
PUBLIC "-//W3C//DTD SVG 1.1//EN"
       "http://www.w3.org/Graphics/SVG/1.1/DTD/svg11.dtd">
<svg version="1.1" xmlns="http://www.w3.org/2000/svg" xmlns:xlink="http://www.w3.org/1999/xlink" viewBox="0 0 93.5156 69.707">
 <g>
  <rect height="69.707" opacity="0" width="93.5156" x="0" y="0"/>
  <path d="M9.27734 57.4023C9.94141 56.6406 9.72656 55.625 8.96484 54.7461C5.48828 50.9766 3.49609 45.9961 3.49609 40.4688C3.49609 34.9609 5.48828 29.9805 8.96484 26.1914C9.72656 25.3125 9.94141 24.3164 9.27734 23.5352C8.57422 22.7344 7.38281 22.7539 6.5625 23.6523C2.38281 28.0859 0 34.0234 0 40.4688C0 46.9141 2.38281 52.8516 6.5625 57.2852C7.38281 58.2031 8.57422 58.2031 9.27734 57.4023ZM83.8867 57.4023C84.5703 58.2031 85.7812 58.2031 86.6016 57.2852C90.7617 52.8516 93.1445 46.9141 93.1445 40.4688C93.1445 34.0234 90.7617 28.0859 86.6016 23.6523C85.7812 22.7539 84.5703 22.7344 83.8867 23.5352C83.2031 24.3164 83.418 25.3125 84.1797 26.1914C87.6758 29.9805 89.6484 34.9609 89.6484 40.4688C89.6484 45.9961 87.6758 50.9766 84.1797 54.7461C83.418 55.625 83.2031 56.6406 83.8867 57.4023ZM46.5039 3.51562C52.0312 3.51562 57.0117 5.48828 60.7812 8.96484C61.6602 9.74609 62.6758 9.96094 63.4375 9.27734C64.2383 8.59375 64.2383 7.38281 63.3398 6.5625C58.9062 2.40234 52.9688 0 46.5039 0C40.0586 0 34.1211 2.40234 29.668 6.5625C28.7695 7.38281 28.7695 8.59375 29.5703 9.27734C30.3516 9.96094 31.3672 9.74609 32.2266 8.96484C36.0156 5.48828 40.9961 3.51562 46.5039 3.51562Z" fill="black" fill-opacity="0.85"/>
  <path d="M16.25 50.293C16.9336 49.5312 16.6406 48.5547 15.957 47.6367C14.2969 45.7617 13.4961 43.2031 13.4961 40.4688C13.4961 37.7344 14.2969 35.1953 15.957 33.3008C16.6406 32.3828 16.9336 31.4258 16.25 30.6445C15.5273 29.8438 14.2578 29.8438 13.4961 30.8008C11.2695 33.4375 10 36.8164 10 40.4688C10 44.1211 11.2695 47.5195 13.4961 50.1367C14.2578 51.1133 15.5273 51.0938 16.25 50.293ZM76.9141 50.293C77.6172 51.0938 78.9062 51.1133 79.668 50.1367C81.875 47.5195 83.1641 44.1211 83.1641 40.4688C83.1641 36.8164 81.875 33.4375 79.668 30.8008C78.9062 29.8438 77.6172 29.8438 76.9141 30.6445C76.2305 31.4258 76.5039 32.3828 77.1875 33.3008C78.8477 35.1953 79.668 37.7344 79.668 40.4688C79.668 43.2031 78.8477 45.7617 77.1875 47.6367C76.5039 48.5547 76.2305 49.5312 76.9141 50.293ZM46.582 13.4961C49.3164 13.4961 51.8555 14.3164 53.75 15.957C54.668 16.6602 55.6445 16.9336 56.4062 16.25C57.207 15.5469 57.2266 14.2578 56.2695 13.4961C53.6328 11.2695 50.2344 10 46.582 10C42.9297 10 39.5312 11.2695 36.8945 13.4961C35.9375 14.2578 35.957 15.5469 36.7578 16.25C37.5391 16.9336 38.4961 16.6406 39.4141 15.957C41.4062 14.4141 43.8477 13.4961 46.582 13.4961Z" fill="black" fill-opacity="0.85"/>
  <path d="M46.6797 53.7305C51.7578 53.7305 58.2422 53.5547 62.832 53.2617L62.832 56.7188C62.832 58.2227 64.0039 59.3945 65.5078 59.3945L68.2422 59.3945C69.7461 59.3945 70.9375 58.2227 70.9375 56.7188L70.9375 44.9805C70.9375 41.4453 70.1953 39.5508 68.3594 37.1875L66.582 34.9219C65.8398 31.2109 64.4727 27.3047 63.7695 25.8008C62.6562 23.4766 60.5469 22.1484 57.9102 21.8164C56.543 21.6406 51.8359 21.5234 46.6797 21.5234C41.5039 21.5234 36.7969 21.6406 35.4297 21.8164C32.793 22.1484 30.6836 23.4766 29.5703 25.8008C28.8672 27.3047 27.5 31.2109 26.7578 34.9219L24.9805 37.1875C23.1445 39.5508 22.4023 41.4453 22.4023 44.9805L22.4023 56.7188C22.4023 58.2227 23.5938 59.3945 25.0977 59.3945L27.832 59.3945C29.3359 59.3945 30.5078 58.2227 30.5078 56.7188L30.5078 53.2617C35.0977 53.5547 41.582 53.7305 46.6797 53.7305ZM30.8008 33.2617C31.3086 30.8398 32.3047 28.0078 32.9688 26.8164C33.5547 25.8203 34.2383 25.3125 35.4688 25.1367C37.0703 24.9219 40.6055 24.8047 46.6797 24.8047C52.7344 24.8047 56.2695 24.8828 57.8711 25.1367C59.1016 25.3125 59.7656 25.8203 60.3711 26.8164C61.0547 27.9883 61.9727 30.8398 62.5391 33.2617C62.7148 33.9648 62.4414 34.2969 61.6602 34.2383C58.1641 34.0039 54.1602 33.8086 46.6797 33.8086C39.1797 33.8086 35.1758 34.0039 31.6797 34.2383C30.8984 34.2969 30.6445 33.9648 30.8008 33.2617ZM31.8164 48.1445C30.0195 48.1445 28.6523 46.7773 28.6523 44.9805C28.6523 43.1836 30.0195 41.8555 31.8164 41.8555C33.6133 41.8555 34.9414 43.1836 34.9414 44.9805C34.9414 46.7773 33.6133 48.1445 31.8164 48.1445ZM41.3281 47.4414C39.9805 47.4414 39.043 46.543 39.043 45.1953C39.043 43.8477 39.9805 42.9492 41.3281 42.9492L52.0117 42.9492C53.3594 42.9492 54.2969 43.8477 54.2969 45.1953C54.2969 46.543 53.3594 47.4414 52.0117 47.4414ZM61.5234 48.1445C59.7266 48.1445 58.3984 46.7773 58.3984 44.9805C58.3984 43.1836 59.7266 41.8555 61.5234 41.8555C63.3203 41.8555 64.6875 43.1836 64.6875 44.9805C64.6875 46.7773 63.3203 48.1445 61.5234 48.1445Z" fill="black" fill-opacity="0.85"/>
 </g>
</svg>
