<?xml version="1.0" encoding="UTF-8"?>
<!--Generator: Apple Native CoreSVG 326-->
<!DOCTYPE svg
PUBLIC "-//W3C//DTD SVG 1.1//EN"
       "http://www.w3.org/Graphics/SVG/1.1/DTD/svg11.dtd">
<svg version="1.1" xmlns="http://www.w3.org/2000/svg" xmlns:xlink="http://www.w3.org/1999/xlink" viewBox="0 0 56.7773 40.0586">
 <g>
  <rect height="40.0586" opacity="0" width="56.7773" x="0" y="0"/>
  <path d="M41.5039 29.9805L40.9961 32.832L55.0195 32.832C55.8008 32.832 56.4062 32.168 56.4062 31.3867C56.4062 30.6055 55.8008 29.9805 55.0195 29.9805ZM49.1406 27.1289L53.2227 27.1289C53.457 27.1289 53.7109 27.0703 53.9258 26.9141C55.0195 26.0352 55.7422 24.7266 55.7422 23.2422C55.7422 20.7812 53.6914 18.6914 51.1719 18.6914C48.6719 18.6914 46.6016 20.7812 46.6016 23.2422C46.6016 24.7266 47.3438 26.0352 48.418 26.9141C48.6328 27.0703 48.9062 27.1289 49.1406 27.1289ZM51.1719 36.1328C52.0508 36.1328 52.7148 35.4297 52.7148 34.5703L52.7148 26.9727L49.5898 26.9727L49.5898 34.5703C49.5898 35.4297 50.3125 36.1328 51.1719 36.1328ZM26.1133 40.0195C30.957 40.0195 34.7461 36.2305 34.7461 31.3867C34.7461 26.543 30.957 22.7734 26.1133 22.7734C21.2695 22.7734 17.5 26.543 17.5 31.3867C17.5 36.2305 21.2695 40.0195 26.1133 40.0195ZM26.1133 36.7578C23.125 36.7578 20.7617 34.3945 20.7617 31.3867C20.7617 28.3984 23.125 26.0352 26.1133 26.0352C29.1211 26.0352 31.4844 28.3984 31.4844 31.3867C31.4844 34.3945 29.1211 36.7578 26.1133 36.7578ZM0 31.1328L0 34.6094L19.9609 34.6094L19.9609 31.1328ZM0 0.390625L0 3.86719C2.26562 3.57422 4.90234 3.47656 8.32031 3.47656L11.9336 3.47656C18.7695 3.47656 24.043 5.91797 30.5859 11.6602C31.6992 12.6172 32.2852 12.8516 33.6133 13.2812L36.4258 14.1797C39.4727 15.1758 40.8008 16.6992 40.8008 19.5117L40.8008 26.4844C40.8008 29.668 39.4727 31.1328 36.582 31.1328L32.9492 31.1328L32.9492 34.6094L36.582 34.6094C41.8555 34.6094 44.2773 32.0508 44.2773 26.4844L44.2773 19.5117C44.2773 14.9805 42.1094 12.2266 37.4414 10.6836L33.418 9.33594C28.0078 4.84375 21.3672 0 11.9336 0L8.32031 0C5.01953 0 2.34375 0.0976562 0 0.390625Z" fill="black" fill-opacity="0.85"/>
 </g>
</svg>
