<?xml version="1.0" encoding="UTF-8"?>
<!--Generator: Apple Native CoreSVG 326-->
<!DOCTYPE svg
PUBLIC "-//W3C//DTD SVG 1.1//EN"
       "http://www.w3.org/Graphics/SVG/1.1/DTD/svg11.dtd">
<svg version="1.1" xmlns="http://www.w3.org/2000/svg" xmlns:xlink="http://www.w3.org/1999/xlink" viewBox="0 0 57.5552 58.1483">
 <g>
  <rect height="58.1483" opacity="0" width="57.5552" x="0" y="0"/>
  <path d="M41.0921 15.9784C44.9006 13.1855 48.4553 2.11126 44.1585 1.17376C39.7835 0.275322 38.6506 11.8964 41.0921 15.9784ZM41.5608 16.7402C47.4006 16.5839 58.9241 7.3261 54.9397 3.3222C50.9749-0.642646 41.7366 10.8808 41.5608 16.7402ZM42.3421 17.1894C46.385 19.6699 58.0452 18.5175 57.1467 14.1816C56.2092 9.8261 45.1155 13.4199 42.3421 17.1894ZM41.7366 14.2402C35.4866 7.91204 27.1077 9.5136 21.7952 17.9316L0.76002 51.3886C-0.568105 53.498-0.02123 55.4316 1.36549 56.8183C2.59596 58.0488 4.49049 58.7909 6.71705 57.3847L40.2327 36.3495C48.5921 31.0956 50.135 22.7558 43.885 16.4277ZM39.4514 16.5449L41.5999 18.7324C46.385 23.5956 45.3889 29.2206 38.553 33.5175L5.09596 54.5527C4.02174 55.2167 2.88893 54.123 3.55299 53.0488L24.6077 19.5722C28.9436 12.6972 34.6467 11.6816 39.4514 16.5449ZM30.8577 24.2597C31.385 23.6738 31.385 22.8144 30.7796 22.2284L25.1546 16.7988L23.2014 18.8886L28.8069 24.2988C29.4124 24.8847 30.3108 24.8261 30.8577 24.2597ZM25.5061 27.4824C26.0921 26.9355 26.0921 26.037 25.4866 25.4316L21.1702 21.2519L19.2171 23.3613L23.4944 27.4824C24.0999 28.0683 24.9397 28.0292 25.5061 27.4824ZM19.6467 39.3378C19.0999 39.8847 19.0803 40.7831 19.7053 41.3691L23.6311 45.1386L26.1311 43.5761L21.6975 39.2988C21.0921 38.7128 20.2131 38.7519 19.6467 39.3378ZM15.6819 43.7909C15.1155 44.3769 15.1155 45.2558 15.721 45.8417L18.3577 48.4199L20.8772 46.8574L17.7131 43.7909C17.1077 43.205 16.2288 43.2441 15.6819 43.7909Z" fill="black" fill-opacity="0.85"/>
 </g>
</svg>
