<?xml version="1.0" encoding="UTF-8"?>
<!--Generator: Apple Native CoreSVG 326-->
<!DOCTYPE svg
PUBLIC "-//W3C//DTD SVG 1.1//EN"
       "http://www.w3.org/Graphics/SVG/1.1/DTD/svg11.dtd">
<svg version="1.1" xmlns="http://www.w3.org/2000/svg" xmlns:xlink="http://www.w3.org/1999/xlink" viewBox="0 0 56.2068 71.7773">
 <g>
  <rect height="71.7773" opacity="0" width="56.2068" x="0" y="0"/>
  <path d="M55.4471 42.1875C57.3807 34.9414 52.1464 31.8164 39.1776 31.8164C32.7909 31.8164 26.3846 32.3438 20.9159 33.3203L21.9315 34.5898C22.7909 23.8086 19.5096 14.5508 13.5331 10.5469L13.9432 12.6562C15.994 5.07812 11.4628 0 6.03308 0C1.59949 0-0.978636 3.20312 0.349489 8.51562L9.80261 46.9531C10.7011 50.6055 13.1425 52.5977 16.7362 52.5977L45.9354 52.5977C50.9354 52.5977 53.3378 50.1758 55.4471 42.1875ZM52.1464 41.2695C50.33 48.0664 48.9042 49.1406 45.9354 49.1406L16.7362 49.1406C14.9003 49.1406 13.6503 48.0469 13.162 46.0938L3.6698 7.63672C3.00574 5 4.15808 3.47656 6.05261 3.47656C8.90418 3.47656 11.5409 6.03516 10.8768 10.8789C10.6425 12.3438 10.7792 12.793 11.6386 13.457C16.4042 16.7578 19.08 24.9219 18.7675 34.4922C18.7479 35.8984 19.6073 36.7578 20.994 36.6992C24.2753 36.3477 30.7401 35.2734 39.1776 35.2734C50.0761 35.2734 53.2792 36.9922 52.1464 41.2695Z" fill="black" fill-opacity="0.85"/>
  <path d="M38.2596 69.9805C38.2596 71.2305 39.2948 71.7383 40.3495 71.0938L49.3143 65.625C50.369 64.9805 50.3495 63.75 49.3143 63.125L40.33 57.6172C39.2948 56.9727 38.2596 57.5 38.2596 58.7305Z" fill="black" fill-opacity="0.85"/>
  <path d="M25.037 69.9805L25.037 58.7305C25.037 57.5 24.0214 56.9727 22.9667 57.6172L13.9823 63.125C12.9471 63.75 12.9276 64.9805 13.9823 65.625L22.9471 71.0938C24.0018 71.7383 25.037 71.2305 25.037 69.9805Z" fill="black" fill-opacity="0.85"/>
 </g>
</svg>
