<?xml version="1.0" encoding="UTF-8"?>
<!--Generator: Apple Native CoreSVG 326-->
<!DOCTYPE svg
PUBLIC "-//W3C//DTD SVG 1.1//EN"
       "http://www.w3.org/Graphics/SVG/1.1/DTD/svg11.dtd">
<svg version="1.1" xmlns="http://www.w3.org/2000/svg" xmlns:xlink="http://www.w3.org/1999/xlink" viewBox="0 0 51.25 50.918">
 <g>
  <rect height="50.918" opacity="0" width="51.25" x="0" y="0"/>
  <path d="M50.8789 25.4688C50.8789 39.4922 39.4531 50.918 25.4297 50.918C11.4258 50.918 0 39.4922 0 25.4688C0 11.4648 11.4258 0.0390625 25.4297 0.0390625C39.4531 0.0390625 50.8789 11.4648 50.8789 25.4688ZM19.1992 38.3008C19.1992 39.5703 20.1953 40.5469 21.4648 40.5469C22.7148 40.5469 23.7305 39.5703 23.7305 38.3008C23.7305 37.0117 22.7148 36.0352 21.4648 36.0352C20.1953 36.0352 19.1992 37.0117 19.1992 38.3008ZM30.9375 38.3008C30.9375 39.5703 31.9727 40.5469 33.2227 40.5469C34.4922 40.5469 35.4883 39.5703 35.4883 38.3008C35.4883 37.0117 34.4922 36.0352 33.2227 36.0352C31.9727 36.0352 30.9375 37.0117 30.9375 38.3008ZM10.625 13.9844C9.92188 13.9844 9.43359 14.4727 9.43359 15.2148C9.43359 15.918 9.92188 16.4062 10.625 16.4062L14.9219 16.4062L17.0508 31.25C17.3438 33.1641 18.5547 34.1992 20.7617 34.1992L35.3711 34.1992C36.0742 34.1992 36.543 33.7305 36.543 32.9883C36.543 32.2656 36.0742 31.7969 35.3711 31.7969L20.8594 31.7969C19.9805 31.7969 19.4922 31.3477 19.375 30.5078L19.2188 29.1797L35.8008 29.1797C37.6562 29.1797 38.5742 28.0859 38.8281 26.2891L39.9219 19.043C39.9609 18.9062 39.9805 18.6719 39.9805 18.5938C39.9805 17.9883 39.5703 17.5781 38.8672 17.5781L17.5 17.5781L17.2461 15.625C17.1094 14.6484 16.2891 13.9844 15.2539 13.9844Z" fill="black" fill-opacity="0.85"/>
 </g>
</svg>
