<?xml version="1.0" encoding="UTF-8"?>
<!--Generator: Apple Native CoreSVG 326-->
<!DOCTYPE svg
PUBLIC "-//W3C//DTD SVG 1.1//EN"
       "http://www.w3.org/Graphics/SVG/1.1/DTD/svg11.dtd">
<svg version="1.1" xmlns="http://www.w3.org/2000/svg" xmlns:xlink="http://www.w3.org/1999/xlink" viewBox="0 0 60.4102 50.0586">
 <g>
  <rect height="50.0586" opacity="0" width="60.4102" x="0" y="0"/>
  <path d="M60.0391 30.0195C60.0391 22.6562 57.3828 15.918 52.9688 10.6836C52.4609 10.0781 51.6016 10.0977 51.0352 10.6641L45.3906 16.3086C44.9023 16.7969 44.8828 17.4805 45.3125 18.0273C47.9102 21.3477 49.4531 25.4883 49.4531 30.0195C49.4531 34.5508 47.9102 38.7109 45.1953 42.1484C44.8242 42.6172 44.8438 43.2031 45.2539 43.6133L51.0352 49.4141C51.6016 50 52.4414 49.9805 52.9688 49.375C57.3828 44.1406 60.0391 37.3633 60.0391 30.0195Z" fill="black" fill-opacity="0.85"/>
  <path d="M30.0195 10.5664C34.5508 10.5664 38.7305 12.1289 42.0508 14.7656C42.5781 15.1562 43.2227 15.1172 43.7109 14.6289L49.375 8.96484C49.9609 8.39844 49.9414 7.55859 49.3359 7.03125C44.1211 2.65625 37.3633 0 30.0195 0C22.6758 0 15.918 2.65625 10.7031 7.03125C10.0977 7.55859 10.0781 8.39844 10.6445 8.96484L16.3281 14.6289C16.7969 15.1172 17.5 15.1367 18.0469 14.707C21.3477 12.1289 25.5078 10.5664 30.0195 10.5664Z" fill="black" fill-opacity="0.85"/>
  <path d="M0 30.0195C0 37.3633 2.65625 44.1406 7.07031 49.375C7.57812 49.9805 8.4375 50 9.00391 49.4141L14.7852 43.6133C15.1758 43.2031 15.2148 42.6172 14.8438 42.1484C12.1289 38.7109 10.5664 34.5508 10.5664 30.0195C10.5664 25.4883 12.1094 21.3477 14.7266 18.0273C15.1367 17.4805 15.1367 16.7969 14.6484 16.3086L8.98438 10.6641C8.41797 10.0977 7.57812 10.0781 7.05078 10.6836C2.63672 15.918 0 22.6562 0 30.0195Z" fill="black" fill-opacity="0.85"/>
  <path d="M30 38.9062C32.1289 38.9062 34.2188 38.1836 35.5859 36.8359C36.3477 36.0938 37.0117 34.9023 37.0117 34.043C37.0117 33.3203 36.4453 32.9297 35.8594 32.9297C35.2148 32.9297 34.9414 33.3203 34.707 33.7891C33.75 35.7227 32.2852 36.7383 30.0195 36.7383C26.3672 36.7383 24.5703 33.9453 24.5703 30.2148C24.5703 26.4648 26.4062 23.7109 30 23.7109C32.168 23.7109 33.8477 24.668 34.6875 26.6797C34.9023 27.2266 35.3125 27.5391 35.8398 27.5391C36.5234 27.5391 36.9922 27.1094 36.9922 26.3867C36.9922 25.4688 36.2891 24.3945 35.5469 23.6133C34.1992 22.2656 32.1875 21.543 29.9805 21.543C24.9023 21.543 21.9922 25.1953 21.9922 30.2148C21.9922 35.5859 25.1367 38.9062 30 38.9062ZM29.9023 41.8359C30.332 41.8359 30.6836 41.5039 30.6836 41.0547L30.6836 19.3945C30.6836 18.9648 30.332 18.6133 29.9023 18.6133C29.4531 18.6133 29.1211 18.9648 29.1211 19.3945L29.1211 41.0547C29.1211 41.5039 29.4531 41.8359 29.9023 41.8359Z" fill="black" fill-opacity="0.85"/>
 </g>
</svg>
