<?xml version="1.0" encoding="UTF-8"?>
<!--Generator: Apple Native CoreSVG 326-->
<!DOCTYPE svg
PUBLIC "-//W3C//DTD SVG 1.1//EN"
       "http://www.w3.org/Graphics/SVG/1.1/DTD/svg11.dtd">
<svg version="1.1" xmlns="http://www.w3.org/2000/svg" xmlns:xlink="http://www.w3.org/1999/xlink" viewBox="0 0 30.7422 37.2461">
 <g>
  <rect height="37.2461" opacity="0" width="30.7422" x="0" y="0"/>
  <path d="M1.81641 37.1875C2.91016 37.1875 3.47656 36.7578 3.88672 35.5859L7.48047 25.8789L22.8516 25.8789L26.4453 35.5859C26.8555 36.7578 27.4219 37.1875 28.5156 37.1875C29.6484 37.1875 30.3711 36.5234 30.3711 35.4297C30.3711 35.0781 30.293 34.7266 30.1367 34.2773L17.8711 1.95312C17.3828 0.664062 16.5234 0 15.1758 0C13.8477 0 12.9688 0.644531 12.5195 1.93359L0.234375 34.2969C0.078125 34.7461 0 35.0977 0 35.4492C0 36.543 0.683594 37.1875 1.81641 37.1875ZM8.53516 22.6367L15.0977 4.84375L15.2344 4.84375L21.7773 22.6367Z" fill="black" fill-opacity="0.85"/>
 </g>
</svg>
