<?xml version="1.0" encoding="UTF-8"?>
<!--Generator: Apple Native CoreSVG 326-->
<!DOCTYPE svg
PUBLIC "-//W3C//DTD SVG 1.1//EN"
       "http://www.w3.org/Graphics/SVG/1.1/DTD/svg11.dtd">
<svg version="1.1" xmlns="http://www.w3.org/2000/svg" xmlns:xlink="http://www.w3.org/1999/xlink" viewBox="0 0 41.6211 51.7383">
 <g>
  <rect height="51.7383" opacity="0" width="41.6211" x="0" y="0"/>
  <path d="M20.625 51.7383C21.0742 51.7383 21.7188 51.5625 22.3047 51.2109C36.5039 43.1055 41.25 39.9023 41.25 31.0547L41.25 11.8359C41.25 9.16016 40.1953 8.30078 37.9492 7.36328C34.5898 6.01562 26.0352 2.87109 22.6758 1.71875C22.0117 1.48438 21.3086 1.32812 20.625 1.32812C19.9414 1.32812 19.2578 1.52344 18.5938 1.71875C15.2344 2.77344 6.66016 6.03516 3.30078 7.36328C1.05469 8.26172 0 9.16016 0 11.8359L0 31.0547C0 39.9023 4.80469 43.0273 18.9453 51.2109C19.5508 51.5625 20.1953 51.7383 20.625 51.7383ZM20.625 47.8906C20.2148 47.8906 19.7656 47.6953 19.1211 47.2852C7.44141 40.0977 3.41797 38.0078 3.41797 30.3125L3.41797 12.5C3.41797 11.3867 3.63281 10.957 4.49219 10.625C8.00781 9.21875 15.9766 6.44531 19.4922 5.05859C19.9414 4.88281 20.332 4.78516 20.625 4.78516C20.918 4.78516 21.3086 4.88281 21.7578 5.05859C25.293 6.44531 33.1836 9.35547 36.7773 10.625C37.6172 10.9375 37.832 11.3867 37.832 12.5L37.832 30.3125C37.832 38.0078 33.7891 40.0586 22.1289 47.2852C21.4844 47.6953 21.0352 47.8906 20.625 47.8906Z" fill="black" fill-opacity="0.85"/>
  <path d="M17.9102 37.2656C18.6328 37.2656 19.2188 36.9141 19.6484 36.2695L31.6211 17.5C31.8555 17.0898 32.1289 16.6016 32.1289 16.1523C32.1289 15.1953 31.2695 14.5508 30.3711 14.5508C29.8242 14.5508 29.2773 14.8828 28.8672 15.5273L17.8125 33.0859L12.3047 26.1914C11.8164 25.5273 11.3281 25.332 10.7422 25.332C9.80469 25.332 9.0625 26.0742 9.0625 27.0312C9.0625 27.5 9.25781 27.9688 9.57031 28.3789L16.0742 36.2695C16.6406 36.9727 17.1875 37.2656 17.9102 37.2656Z" fill="black" fill-opacity="0.85"/>
 </g>
</svg>
