<?xml version="1.0" encoding="UTF-8"?>
<!--Generator: Apple Native CoreSVG 326-->
<!DOCTYPE svg
PUBLIC "-//W3C//DTD SVG 1.1//EN"
       "http://www.w3.org/Graphics/SVG/1.1/DTD/svg11.dtd">
<svg version="1.1" xmlns="http://www.w3.org/2000/svg" xmlns:xlink="http://www.w3.org/1999/xlink" viewBox="0 0 56.8656 56.5284">
 <g>
  <rect height="56.5284" opacity="0" width="56.8656" x="0" y="0"/>
  <path d="M33.6379 2.70756L53.8137 22.8833C57.3879 26.4576 57.3879 30.0513 53.8527 33.5865L33.5988 53.8599C30.0637 57.3951 26.4699 57.3755 22.8957 53.8013L2.71991 33.6255C-0.873843 30.0513-0.912906 26.4771 2.64178 22.9224L22.9348 2.6685C26.4894-0.905717 30.0637-0.886186 33.6379 2.70756ZM36.6848 18.2154L25.3957 36.1646L19.7707 29.1333C19.2433 28.4498 18.7551 28.2349 18.1496 28.2349C17.173 28.2349 16.4113 29.0357 16.4113 30.0123C16.4113 30.5005 16.6066 30.9888 16.9387 31.4185L23.5988 39.4654C24.1652 40.188 24.7316 40.5005 25.4738 40.5005C26.216 40.5005 26.8215 40.149 27.2707 39.4654L39.4973 20.2662C39.7707 19.856 40.0246 19.3482 40.0246 18.8794C40.0246 17.8833 39.1457 17.2193 38.2277 17.2193C37.6418 17.2193 37.0754 17.5708 36.6848 18.2154Z" fill="black" fill-opacity="0.85"/>
 </g>
</svg>
