<?xml version="1.0" encoding="UTF-8"?>
<!--Generator: Apple Native CoreSVG 326-->
<!DOCTYPE svg
PUBLIC "-//W3C//DTD SVG 1.1//EN"
       "http://www.w3.org/Graphics/SVG/1.1/DTD/svg11.dtd">
<svg version="1.1" xmlns="http://www.w3.org/2000/svg" xmlns:xlink="http://www.w3.org/1999/xlink" viewBox="0 0 46.2891 45.918">
 <g>
  <rect height="45.918" opacity="0" width="46.2891" x="0" y="0"/>
  <path d="M45.918 7.53906L45.918 38.3984C45.918 43.3594 43.3594 45.918 38.3008 45.918L7.59766 45.918C2.55859 45.918 0 43.3984 0 38.3984L0 7.53906C0 2.53906 2.55859 0 7.59766 0L38.3008 0C43.3594 0 45.918 2.55859 45.918 7.53906ZM17.1875 10.2539C16.5039 10.918 16.4844 12.0117 17.168 12.6562L28.0273 22.9688L17.168 33.3008C16.5039 33.9258 16.4844 35 17.168 35.6836C17.7539 36.25 18.9258 36.2305 19.5508 35.6055L30.5664 25.1562C31.8164 23.9844 31.8359 21.9727 30.5664 20.7812L19.5508 10.332C18.8672 9.66797 17.832 9.64844 17.1875 10.2539Z" fill="black" fill-opacity="0.85"/>
 </g>
</svg>
