<?xml version="1.0" encoding="UTF-8"?>
<!--Generator: Apple Native CoreSVG 326-->
<!DOCTYPE svg
PUBLIC "-//W3C//DTD SVG 1.1//EN"
       "http://www.w3.org/Graphics/SVG/1.1/DTD/svg11.dtd">
<svg version="1.1" xmlns="http://www.w3.org/2000/svg" xmlns:xlink="http://www.w3.org/1999/xlink" viewBox="0 0 46.9531 42.7148">
 <g>
  <rect height="42.7148" opacity="0" width="46.9531" x="0" y="0"/>
  <path d="M43.2422 42.0703C43.6133 42.4414 44.082 42.6562 44.6289 42.6562C45.7422 42.6562 46.582 41.8164 46.582 40.7227C46.582 40.1758 46.3672 39.6875 46.0156 39.3359L26.0547 20.1367L26.0547 22.5195L46.0156 3.33984C46.3672 2.96875 46.582 2.46094 46.582 1.95312C46.582 0.839844 45.7422 0 44.6289 0C44.082 0 43.6328 0.214844 43.2422 0.585938L23.1836 19.8438C22.7734 20.2344 22.5195 20.7812 22.5195 21.3477C22.5195 21.9141 22.7539 22.4023 23.1836 22.8125Z" fill="black" fill-opacity="0.85"/>
  <path d="M20.7227 42.0703C21.0938 42.4414 21.5625 42.6562 22.1094 42.6562C23.2227 42.6562 24.0625 41.8164 24.0625 40.7227C24.0625 40.1758 23.8477 39.6875 23.4961 39.3359L3.53516 20.1367L3.53516 22.5195L23.4961 3.33984C23.8477 2.96875 24.0625 2.46094 24.0625 1.95312C24.0625 0.839844 23.2227 0 22.1094 0C21.5625 0 21.1133 0.214844 20.7422 0.585938L0.683594 19.8438C0.253906 20.2344 0 20.7812 0 21.3477C0 21.9141 0.234375 22.4023 0.664062 22.8125Z" fill="black" fill-opacity="0.85"/>
 </g>
</svg>
