<?xml version="1.0" encoding="UTF-8"?>
<!--Generator: Apple Native CoreSVG 326-->
<!DOCTYPE svg
PUBLIC "-//W3C//DTD SVG 1.1//EN"
       "http://www.w3.org/Graphics/SVG/1.1/DTD/svg11.dtd">
<svg version="1.1" xmlns="http://www.w3.org/2000/svg" xmlns:xlink="http://www.w3.org/1999/xlink" viewBox="0 0 45.5859 45.3711">
 <g>
  <rect height="45.3711" opacity="0" width="45.5859" x="0" y="0"/>
  <path d="M36.8359 41.1523C35.6641 41.1523 34.7266 42.0703 34.7266 43.2422C34.7266 44.3945 35.6641 45.332 36.8359 45.332C37.9883 45.332 38.9258 44.3945 38.9258 43.2422C38.9258 42.0703 37.9883 41.1523 36.8359 41.1523ZM30.5469 41.1523C29.3945 41.1523 28.457 42.0703 28.457 43.2422C28.457 44.3945 29.3945 45.332 30.5469 45.332C31.7188 45.332 32.6367 44.3945 32.6367 43.2422C32.6367 42.0703 31.7188 41.1523 30.5469 41.1523ZM24.2578 41.1523C23.1055 41.1523 22.168 42.0703 22.168 43.2422C22.168 44.3945 23.1055 45.332 24.2578 45.332C25.4297 45.332 26.3672 44.3945 26.3672 43.2422C26.3672 42.0703 25.4297 41.1523 24.2578 41.1523ZM17.9883 41.1523C16.8164 41.1523 15.8789 42.0703 15.8789 43.2422C15.8789 44.3945 16.8164 45.332 17.9883 45.332C19.1406 45.332 20.0781 44.3945 20.0781 43.2422C20.0781 42.0703 19.1406 41.1523 17.9883 41.1523ZM43.125 16.0156C41.9531 16.0156 41.0156 16.9336 41.0156 18.1055C41.0156 19.2578 41.9531 20.1953 43.125 20.1953C44.2773 20.1953 45.2148 19.2578 45.2148 18.1055C45.2148 16.9336 44.2773 16.0156 43.125 16.0156ZM43.125 22.2852C41.9531 22.2852 41.0156 23.2227 41.0156 24.3945C41.0156 25.5469 41.9531 26.4844 43.125 26.4844C44.2773 26.4844 45.2148 25.5469 45.2148 24.3945C45.2148 23.2227 44.2773 22.2852 43.125 22.2852ZM43.125 28.5742C41.9531 28.5742 41.0156 29.5117 41.0156 30.6641C41.0156 31.8359 41.9531 32.7734 43.125 32.7734C44.2773 32.7734 45.2148 31.8359 45.2148 30.6641C45.2148 29.5117 44.2773 28.5742 43.125 28.5742ZM43.125 34.8633C41.9531 34.8633 41.0156 35.8008 41.0156 36.9531C41.0156 38.125 41.9531 39.043 43.125 39.043C44.2773 39.043 45.2148 38.125 45.2148 36.9531C45.2148 35.8008 44.2773 34.8633 43.125 34.8633ZM43.125 41.1523C41.9531 41.1523 41.0156 42.0703 41.0156 43.2422C41.0156 44.3945 41.9531 45.332 43.125 45.332C44.2773 45.332 45.2148 44.3945 45.2148 43.2422C45.2148 42.0703 44.2773 41.1523 43.125 41.1523Z" fill="black" fill-opacity="0.85"/>
  <path d="M20.957 25.1367C19.7852 25.1367 18.8477 26.0742 18.8477 27.2266C18.8477 28.3984 19.7852 29.3359 20.957 29.3359C22.1094 29.3359 23.0469 28.3984 23.0469 27.2266C23.0469 26.0742 22.1094 25.1367 20.957 25.1367ZM14.668 25.1367C13.4961 25.1367 12.5586 26.0742 12.5586 27.2266C12.5586 28.3984 13.4961 29.3359 14.668 29.3359C15.8203 29.3359 16.7578 28.3984 16.7578 27.2266C16.7578 26.0742 15.8203 25.1367 14.668 25.1367ZM8.37891 25.1367C7.22656 25.1367 6.28906 26.0742 6.28906 27.2266C6.28906 28.3984 7.22656 29.3359 8.37891 29.3359C9.55078 29.3359 10.4688 28.3984 10.4688 27.2266C10.4688 26.0742 9.55078 25.1367 8.37891 25.1367ZM2.08984 25.1367C0.9375 25.1367 0 26.0742 0 27.2266C0 28.3984 0.9375 29.3359 2.08984 29.3359C3.26172 29.3359 4.19922 28.3984 4.19922 27.2266C4.19922 26.0742 3.26172 25.1367 2.08984 25.1367ZM27.2266 0C26.0742 0 25.1367 0.9375 25.1367 2.08984C25.1367 3.26172 26.0742 4.19922 27.2266 4.19922C28.3984 4.19922 29.3359 3.26172 29.3359 2.08984C29.3359 0.9375 28.3984 0 27.2266 0ZM27.2266 6.28906C26.0742 6.28906 25.1367 7.22656 25.1367 8.37891C25.1367 9.55078 26.0742 10.4883 27.2266 10.4883C28.3984 10.4883 29.3359 9.55078 29.3359 8.37891C29.3359 7.22656 28.3984 6.28906 27.2266 6.28906ZM27.2266 12.5781C26.0742 12.5781 25.1367 13.4961 25.1367 14.668C25.1367 15.8203 26.0742 16.7578 27.2266 16.7578C28.3984 16.7578 29.3359 15.8203 29.3359 14.668C29.3359 13.4961 28.3984 12.5781 27.2266 12.5781ZM27.2266 18.8477C26.0742 18.8477 25.1367 19.7852 25.1367 20.957C25.1367 22.1094 26.0742 23.0469 27.2266 23.0469C28.3984 23.0469 29.3359 22.1094 29.3359 20.957C29.3359 19.7852 28.3984 18.8477 27.2266 18.8477ZM27.2266 25.1367C26.0742 25.1367 25.1367 26.0742 25.1367 27.2266C25.1367 28.3984 26.0742 29.3359 27.2266 29.3359C28.3984 29.3359 29.3359 28.3984 29.3359 27.2266C29.3359 26.0742 28.3984 25.1367 27.2266 25.1367Z" fill="black" fill-opacity="0.85"/>
 </g>
</svg>
