<?xml version="1.0" encoding="UTF-8"?>
<!--Generator: Apple Native CoreSVG 326-->
<!DOCTYPE svg
PUBLIC "-//W3C//DTD SVG 1.1//EN"
       "http://www.w3.org/Graphics/SVG/1.1/DTD/svg11.dtd">
<svg version="1.1" xmlns="http://www.w3.org/2000/svg" xmlns:xlink="http://www.w3.org/1999/xlink" viewBox="0 0 44.4922 33.1445">
 <g>
  <rect height="33.1445" opacity="0" width="44.4922" x="0" y="0"/>
  <path d="M1.32812 25.2734L18.9648 32.2656C19.9609 32.6562 21.1328 33.1055 22.0508 33.1055C22.9883 33.1055 24.1797 32.6562 25.1367 32.2656L42.7734 25.2734C43.6133 24.9609 44.1211 24.2188 44.1211 23.4766C44.1211 22.2266 43.2031 21.2891 41.9727 21.2891C41.3477 21.2891 40.5078 21.6406 39.9609 21.8359L20.5859 29.5312L23.5156 29.5312L4.14062 21.8359C3.59375 21.6406 2.77344 21.2891 2.14844 21.2891C0.917969 21.2891 0 22.2266 0 23.4766C0 24.2188 0.507812 24.9609 1.32812 25.2734ZM1.32812 7.83203C0.507812 8.16406 0 8.88672 0 9.64844C0 10.8789 0.917969 11.8164 2.14844 11.8164C2.77344 11.8164 3.59375 11.4648 4.14062 11.2695L23.5156 3.59375L20.5859 3.59375L39.9609 11.2695C40.5078 11.4648 41.3477 11.8164 41.9727 11.8164C43.2031 11.8164 44.1211 10.8789 44.1211 9.64844C44.1211 8.88672 43.6133 8.16406 42.7734 7.83203L25.1367 0.839844C24.1797 0.449219 22.9883 0 22.0508 0C21.1328 0 19.9609 0.449219 18.9648 0.839844Z" fill="black" fill-opacity="0.85"/>
 </g>
</svg>
