<?xml version="1.0" encoding="UTF-8"?>
<!--Generator: Apple Native CoreSVG 326-->
<!DOCTYPE svg
PUBLIC "-//W3C//DTD SVG 1.1//EN"
       "http://www.w3.org/Graphics/SVG/1.1/DTD/svg11.dtd">
<svg version="1.1" xmlns="http://www.w3.org/2000/svg" xmlns:xlink="http://www.w3.org/1999/xlink" viewBox="0 0 12.1875 44.2383">
 <g>
  <rect height="44.2383" opacity="0" width="12.1875" x="0" y="0"/>
  <path d="M7.83203 42.7734C8.16406 43.6133 8.88672 44.1211 9.64844 44.1211C10.8789 44.1211 11.8164 43.2031 11.8164 41.9727C11.8164 41.3281 11.4648 40.5078 11.2695 39.9609L3.57422 20.5859L3.57422 23.5156L11.2695 4.14062C11.4648 3.59375 11.8164 2.75391 11.8164 2.14844C11.8164 0.917969 10.8789 0 9.64844 0C8.88672 0 8.16406 0.507812 7.83203 1.32812L0.839844 18.9648C0.449219 19.9219 0 21.1328 0 22.0508C0 22.9883 0.449219 24.1602 0.839844 25.1367Z" fill="black" fill-opacity="0.85"/>
 </g>
</svg>
