<?xml version="1.0" encoding="UTF-8"?>
<!--Generator: Apple Native CoreSVG 326-->
<!DOCTYPE svg
PUBLIC "-//W3C//DTD SVG 1.1//EN"
       "http://www.w3.org/Graphics/SVG/1.1/DTD/svg11.dtd">
<svg version="1.1" xmlns="http://www.w3.org/2000/svg" xmlns:xlink="http://www.w3.org/1999/xlink" viewBox="0 0 46.2891 45.918">
 <g>
  <rect height="45.918" opacity="0" width="46.2891" x="0" y="0"/>
  <path d="M7.59766 45.918L38.3008 45.918C43.3594 45.918 45.918 43.3594 45.918 38.3984L45.918 7.53906C45.918 2.55859 43.3594 0 38.3008 0L7.59766 0C2.55859 0 0 2.53906 0 7.53906L0 38.3984C0 43.3984 2.55859 45.918 7.59766 45.918ZM7.67578 42.4609C4.94141 42.4609 3.45703 41.0156 3.45703 38.2031L3.45703 7.71484C3.45703 4.92188 4.94141 3.45703 7.67578 3.45703L38.2422 3.45703C40.918 3.45703 42.4609 4.92188 42.4609 7.71484L42.4609 38.2031C42.4609 41.0156 40.918 42.4609 38.2422 42.4609Z" fill="black" fill-opacity="0.85"/>
  <path d="M22.9688 34.5508C23.7305 34.5508 24.2578 34.0039 24.2578 33.2227L24.2578 24.8633L31.4648 13.3594C31.6406 13.0469 31.7188 12.8906 31.7188 12.5195C31.7188 11.8164 31.1523 11.3477 30.4297 11.3477C29.9414 11.3477 29.5508 11.6016 29.2773 12.0898L23.0273 22.4805L22.9297 22.4805L16.6992 12.0898C16.4258 11.6016 16.0938 11.3281 15.5078 11.3281C14.7852 11.3281 14.2383 11.7969 14.2383 12.5195C14.2383 12.793 14.3164 13.0859 14.5117 13.3984L21.6797 24.8633L21.6797 33.2227C21.6797 34.0039 22.207 34.5508 22.9688 34.5508ZM15.9766 24.3359C15.9766 24.7656 16.3281 25.0977 16.7578 25.0977L29.2969 25.0977C29.7461 25.0977 30.0781 24.7656 30.0781 24.3359C30.0781 23.8867 29.7461 23.5547 29.2969 23.5547L16.7578 23.5547C16.3281 23.5547 15.9766 23.8867 15.9766 24.3359ZM15.9766 28.5742C15.9766 29.0234 16.3281 29.3555 16.7578 29.3555L29.2969 29.3555C29.7461 29.3555 30.0781 29.0234 30.0781 28.5742C30.0781 28.1445 29.7461 27.8125 29.2969 27.8125L16.7578 27.8125C16.3281 27.8125 15.9766 28.1445 15.9766 28.5742Z" fill="black" fill-opacity="0.85"/>
 </g>
</svg>
