<?xml version="1.0" encoding="UTF-8"?>
<!--Generator: Apple Native CoreSVG 326-->
<!DOCTYPE svg
PUBLIC "-//W3C//DTD SVG 1.1//EN"
       "http://www.w3.org/Graphics/SVG/1.1/DTD/svg11.dtd">
<svg version="1.1" xmlns="http://www.w3.org/2000/svg" xmlns:xlink="http://www.w3.org/1999/xlink" viewBox="0 0 59.5508 45.918">
 <g>
  <rect height="45.918" opacity="0" width="59.5508" x="0" y="0"/>
  <path d="M7.59766 45.918L51.5625 45.918C56.6211 45.918 59.1797 43.3594 59.1797 38.3984L59.1797 7.53906C59.1797 2.55859 56.6211 0 51.5625 0L7.59766 0C2.55859 0 0 2.53906 0 7.53906L0 38.3984C0 43.3984 2.55859 45.918 7.59766 45.918ZM7.67578 42.4609C4.94141 42.4609 3.45703 41.0156 3.45703 38.2031L3.45703 7.71484C3.45703 4.92188 4.94141 3.45703 7.67578 3.45703L51.5039 3.45703C54.1797 3.45703 55.7031 4.92188 55.7031 7.71484L55.7031 38.2031C55.7031 41.0156 54.1797 42.4609 51.5039 42.4609Z" fill="black" fill-opacity="0.85"/>
  <path d="M29.3359 36.7773C36.9727 36.7773 43.125 30.625 43.125 22.9883C43.125 15.3516 36.9727 9.19922 29.3359 9.19922C21.7188 9.19922 15.5469 15.3516 15.5469 22.9883C15.5469 30.625 21.7188 36.7773 29.3359 36.7773ZM29.3359 33.9453C23.2031 33.9453 18.3789 29.1211 18.3789 22.9883C18.3789 16.8555 23.2031 12.0312 29.3359 12.0312C35.4688 12.0312 40.3125 16.8555 40.3125 22.9883C40.3125 29.1211 35.4688 33.9453 29.3359 33.9453ZM19.1992 29.043L35.0586 13.1836L32.5586 11.1328L18.2812 25.4102ZM26.4062 35.0781L40.6055 20.8984L39.6094 17.3438L23.9648 32.9688Z" fill="black" fill-opacity="0.85"/>
 </g>
</svg>
