<?xml version="1.0" encoding="UTF-8"?>
<!--Generator: Apple Native CoreSVG 326-->
<!DOCTYPE svg
PUBLIC "-//W3C//DTD SVG 1.1//EN"
       "http://www.w3.org/Graphics/SVG/1.1/DTD/svg11.dtd">
<svg version="1.1" xmlns="http://www.w3.org/2000/svg" xmlns:xlink="http://www.w3.org/1999/xlink" viewBox="0 0 46.2891 45.918">
 <g>
  <rect height="45.918" opacity="0" width="46.2891" x="0" y="0"/>
  <path d="M7.59766 45.918L38.3008 45.918C43.3594 45.918 45.918 43.3594 45.918 38.3984L45.918 7.53906C45.918 2.55859 43.3594 0 38.3008 0L7.59766 0C2.55859 0 0 2.53906 0 7.53906L0 38.3984C0 43.3984 2.55859 45.918 7.59766 45.918ZM7.67578 42.4609C4.94141 42.4609 3.45703 41.0156 3.45703 38.2031L3.45703 7.71484C3.45703 4.92188 4.94141 3.45703 7.67578 3.45703L38.2422 3.45703C40.918 3.45703 42.4609 4.92188 42.4609 7.71484L42.4609 38.2031C42.4609 41.0156 40.918 42.4609 38.2422 42.4609Z" fill="black" fill-opacity="0.85"/>
  <path d="M22.9688 36.4062C30.4102 36.4062 36.4258 30.3906 36.4258 22.9492C36.4258 15.4883 30.4102 9.49219 22.9688 9.49219C15.5273 9.49219 9.51172 15.4883 9.51172 22.9492C9.51172 30.3906 15.5273 36.4062 22.9688 36.4062ZM22.9688 33.0469C17.3828 33.0469 12.8711 28.5156 12.8711 22.9492C12.8711 17.3633 17.3828 12.832 22.9688 12.832C28.5547 12.832 33.0664 17.3633 33.0664 22.9492C33.0664 28.5156 28.5547 33.0469 22.9688 33.0469Z" fill="black" fill-opacity="0.85"/>
 </g>
</svg>
