<?xml version="1.0" encoding="UTF-8"?>
<!--Generator: Apple Native CoreSVG 326-->
<!DOCTYPE svg
PUBLIC "-//W3C//DTD SVG 1.1//EN"
       "http://www.w3.org/Graphics/SVG/1.1/DTD/svg11.dtd">
<svg version="1.1" xmlns="http://www.w3.org/2000/svg" xmlns:xlink="http://www.w3.org/1999/xlink" viewBox="0 0 51.25 50.918">
 <g>
  <rect height="50.918" opacity="0" width="51.25" x="0" y="0"/>
  <path d="M25.4297 50.8789C39.4727 50.8789 50.8789 39.4922 50.8789 25.4492C50.8789 11.4062 39.4727 0 25.4297 0C11.3867 0 0 11.4062 0 25.4492C0 39.4922 11.3867 50.8789 25.4297 50.8789ZM25.4297 47.2461C13.3789 47.2461 3.63281 37.5 3.63281 25.4492C3.63281 13.3984 13.3789 3.65234 25.4297 3.65234C37.4805 3.65234 47.2266 13.3984 47.2266 25.4492C47.2266 37.5 37.4805 47.2461 25.4297 47.2461Z" fill="black" fill-opacity="0.85"/>
  <path d="M14.375 31.5625L27.207 31.5625C30.625 31.5625 33.2617 28.9453 33.2617 25.6055C33.2617 22.3438 30.625 19.8438 27.0898 19.7461C25.7031 17.168 23.2812 15.5273 20.2734 15.5273C16.4062 15.5273 13.1445 18.5742 12.7148 22.4414C10.7617 23.0859 9.35547 24.7656 9.35547 26.9727C9.35547 29.5703 11.3477 31.5625 14.375 31.5625ZM41.6406 19.2188C41.6406 18.7891 41.4453 18.5156 41.1133 18.5156C40.5859 18.5156 39.5508 19.1992 38.0078 19.1992C34.9219 19.1992 32.9883 17.3633 32.9883 14.5312C32.9883 12.9492 33.8086 11.7969 33.8086 11.2109C33.8086 10.8594 33.5156 10.6445 33.0664 10.6641C30.4492 10.8594 27.7148 13.8477 27.3828 17.2852C27.6367 17.5586 27.832 17.8711 28.0469 18.1641C31.7969 18.6133 34.5898 21.3477 34.9023 24.9414C39.2773 24.4336 41.6406 21.1719 41.6406 19.2188ZM18.0664 37.2461C17.9102 37.5977 18.0859 37.8516 18.457 37.8516L20.4492 37.8516L18.7891 41.9336C18.6328 42.3047 19.1016 42.5195 19.3555 42.207L24.4531 36.6406C24.7266 36.3086 24.5898 35.9375 24.1797 35.9375L21.7969 35.9375L23.0664 33.5156C23.2422 33.2031 23.1055 32.9492 22.7734 32.9492L20.4492 32.9492C20.0586 32.9492 19.9023 33.0859 19.7656 33.3789Z" fill="black" fill-opacity="0.85"/>
 </g>
</svg>
