<?xml version="1.0" encoding="UTF-8"?>
<!--Generator: Apple Native CoreSVG 326-->
<!DOCTYPE svg
PUBLIC "-//W3C//DTD SVG 1.1//EN"
       "http://www.w3.org/Graphics/SVG/1.1/DTD/svg11.dtd">
<svg version="1.1" xmlns="http://www.w3.org/2000/svg" xmlns:xlink="http://www.w3.org/1999/xlink" viewBox="0 0 51.25 50.918">
 <g>
  <rect height="50.918" opacity="0" width="51.25" x="0" y="0"/>
  <path d="M50.8789 25.4688C50.8789 39.4922 39.4531 50.918 25.4297 50.918C11.4258 50.918 0 39.4922 0 25.4688C0 11.4648 11.4258 0.0390625 25.4297 0.0390625C39.4531 0.0390625 50.8789 11.4648 50.8789 25.4688ZM11.8164 26.25C9.70703 26.9336 8.18359 28.75 8.18359 31.1133C8.18359 33.9453 10.332 36.0742 13.5938 36.0742L27.4805 36.0742C31.1719 36.0742 34.0234 33.2812 34.0234 29.668C34.0234 26.1328 31.1523 23.418 27.3438 23.3398C25.8398 20.5469 23.2422 18.7695 19.9805 18.7695C15.7812 18.7695 12.2656 22.0703 11.8164 26.25ZM33.75 13.6133C30.9375 13.8281 27.9688 17.0117 27.6172 20.7422C27.8906 21.0352 28.125 21.3477 28.3398 21.6992C32.3633 22.1875 35.3906 25.1172 35.7227 29.0039C40.4102 28.457 42.9492 24.9219 42.9492 22.832C42.9492 22.3828 42.7734 22.0508 42.3828 22.0508C41.8164 22.0508 40.7422 22.8125 39.043 22.8125C35.7617 22.8125 33.6523 20.8398 33.6523 17.793C33.6523 16.0938 34.5508 14.8047 34.5508 14.1797C34.5508 13.8281 34.2383 13.5938 33.75 13.6133Z" fill="black" fill-opacity="0.85"/>
 </g>
</svg>
