<?xml version="1.0" encoding="UTF-8"?>
<!--Generator: Apple Native CoreSVG 326-->
<!DOCTYPE svg
PUBLIC "-//W3C//DTD SVG 1.1//EN"
       "http://www.w3.org/Graphics/SVG/1.1/DTD/svg11.dtd">
<svg version="1.1" xmlns="http://www.w3.org/2000/svg" xmlns:xlink="http://www.w3.org/1999/xlink" viewBox="0 0 59.4727 57.0117">
 <g>
  <rect height="57.0117" opacity="0" width="59.4727" x="0" y="0"/>
  <path d="M47.6758 52.4805L14.5117 52.4805C13.7305 52.4805 13.125 53.0664 13.125 53.8477C13.125 54.6484 13.7305 55.2344 14.5117 55.2344L47.6758 55.2344C48.457 55.2344 49.082 54.6484 49.082 53.8477C49.082 53.0664 48.457 52.4805 47.6758 52.4805Z" fill="black" fill-opacity="0.85"/>
  <path d="M47.6758 43.9062L14.5117 43.9062C13.7305 43.9062 13.125 44.5117 13.125 45.293C13.125 46.0938 13.7305 46.6797 14.5117 46.6797L47.6758 46.6797C48.457 46.6797 49.082 46.0938 49.082 45.293C49.082 44.5117 48.457 43.9062 47.6758 43.9062Z" fill="black" fill-opacity="0.85"/>
  <path d="M13.8281 37.8711L45.2148 37.8711C53.3594 37.8711 59.4727 31.6992 59.4727 24.043C59.4727 16.1328 52.9883 10.3516 44.5508 10.3516C41.3867 4.0625 35.6445 0 28.2617 0C18.8867 0 11.1719 7.44141 10.3516 16.7969C5.74219 18.1055 2.20703 21.9922 2.20703 27.3047C2.20703 33.125 6.46484 37.8711 13.8281 37.8711Z" fill="black" fill-opacity="0.85"/>
 </g>
</svg>
