<?xml version="1.0" encoding="UTF-8"?>
<!--Generator: Apple Native CoreSVG 326-->
<!DOCTYPE svg
PUBLIC "-//W3C//DTD SVG 1.1//EN"
       "http://www.w3.org/Graphics/SVG/1.1/DTD/svg11.dtd">
<svg version="1.1" xmlns="http://www.w3.org/2000/svg" xmlns:xlink="http://www.w3.org/1999/xlink" viewBox="0 0 68.3617 62.6758">
 <g>
  <rect height="62.6758" opacity="0" width="68.3617" x="0" y="0"/>
  <path d="M20.0597 62.6367L47.8918 62.6367C52.2668 62.6367 55.0402 59.7266 54.8449 55.3711L54.3371 44.7656L54.3176 40.3125L52.8918 29.1016C52.8136 28.5156 52.4816 28.2227 52.0519 28.2227C51.5832 28.2227 51.2121 28.6133 51.2316 29.2578L51.8566 55.2734C51.9347 57.6172 50.4308 59.3164 47.9308 59.3164L20.0402 59.3164C17.5402 59.3164 16.0363 57.6172 16.0949 55.2734L16.7394 29.2578C16.759 28.6133 16.3879 28.2227 15.8996 28.2227C15.4894 28.2227 15.1379 28.5156 15.0597 29.1016L13.634 39.9023L13.634 44.4922L13.1066 55.3711C12.9113 59.7266 15.7043 62.6367 20.0597 62.6367ZM9.78631 50.6055C12.2668 51.3281 14.298 50.8984 14.8254 48.3789L15.5676 44.8047L14.259 36.6797L11.9738 46.4648C11.7785 47.3047 11.3488 47.5195 10.6652 47.3242L4.49334 45.625C3.61443 45.3711 3.30193 44.7852 3.61443 43.6914L12.2668 12.0898C12.716 10.4883 13.4777 9.51172 14.8449 9.00391L22.4426 6.19141L24.3371 2.28516L13.6144 6.25C11.173 7.14844 9.92302 8.71094 9.35662 10.7031L0.235525 43.1055C-0.487131 45.6641 0.450369 47.8906 3.08709 48.6523ZM58.1066 50.6055L64.9035 48.6328C67.5402 47.8711 68.4777 45.6641 67.7355 43.0859L58.6144 10.7031C58.048 8.71094 56.8176 7.14844 54.3566 6.25L43.6535 2.28516L45.509 6.19141L53.1261 8.98438C54.4933 9.49219 55.2355 10.4883 55.6847 12.0898L64.3761 43.6719C64.6886 44.7656 64.3761 45.3516 63.4777 45.6055L57.2277 47.3242C56.5246 47.5195 56.0754 47.3047 55.8996 46.4648L53.7121 36.6797L52.4035 44.8047L53.0676 48.3789C53.4972 50.918 55.6066 51.3281 58.1066 50.6055ZM38.4386 43.8086C39.8058 43.8086 40.8996 42.7148 40.8996 41.3477C40.8996 39.9805 39.8254 38.8867 38.4386 38.8867C37.0715 38.8867 35.9972 39.9414 35.9972 41.3477C35.9777 42.7148 37.0519 43.8086 38.4386 43.8086ZM38.4386 54.6289C39.8058 54.6289 40.8996 53.5352 40.8996 52.168C40.8996 50.8008 39.8254 49.707 38.4386 49.707C37.0715 49.707 35.9972 50.7812 35.9972 52.168C35.9777 53.5352 37.0519 54.6289 38.4386 54.6289ZM29.7082 61.1719L33.009 61.1719L33.009 35.0391L32.6769 36.6602L46.2707 14.3164C47.7746 11.8164 47.8527 10.5664 46.8566 8.08594L44.8644 3.14453C43.9269 0.820312 42.3449 0 39.8058 0L28.1847 0C25.6457 0 24.0636 0.820312 23.1261 3.14453L21.134 8.08594C20.216 10.3906 20.2551 11.7578 21.7199 14.3164L30.0988 29.2383L29.7082 27.9102ZM33.048 30.918L38.0285 4.92188C38.3215 3.51562 39.0246 2.91016 40.1183 2.91016C41.173 2.91016 41.798 3.55469 42.2863 4.76562L43.6926 8.35938C44.4152 10.1758 44.6105 11.2695 43.4972 13.1641ZM31.3097 25.7617L24.4738 13.1641C23.4191 11.2305 23.5754 10.1758 24.2785 8.35938L25.7043 4.76562C26.1926 3.53516 26.8176 2.91016 27.8722 2.91016C28.9465 2.91016 29.6886 3.49609 29.9426 4.92188L32.4621 18.6328Z" fill="black" fill-opacity="0.85"/>
 </g>
</svg>
