<?xml version="1.0" encoding="UTF-8"?>
<!--Generator: Apple Native CoreSVG 326-->
<!DOCTYPE svg
PUBLIC "-//W3C//DTD SVG 1.1//EN"
       "http://www.w3.org/Graphics/SVG/1.1/DTD/svg11.dtd">
<svg version="1.1" xmlns="http://www.w3.org/2000/svg" xmlns:xlink="http://www.w3.org/1999/xlink" viewBox="0 0 74.1797 53.3008">
 <g>
  <rect height="53.3008" opacity="0" width="74.1797" x="0" y="0"/>
  <path d="M66.3086 12.9883L66.3086 29.36C65.753 29.2656 65.1716 29.2188 64.5703 29.2188C63.978 29.2188 63.4017 29.2659 62.8516 29.3673L62.8516 20.6445L10.9766 20.6445L10.9766 40.1953C10.9766 42.9883 12.4609 44.4336 15.1758 44.4336L36.6406 44.4336L36.6406 47.9102L15.1172 47.9102C10.0781 47.9102 7.5 45.3711 7.5 40.3711L7.5 12.9883C7.5 7.98828 10.0781 5.44922 15.1172 5.44922L58.7109 5.44922C63.7695 5.44922 66.3086 8.00781 66.3086 12.9883ZM15.1758 8.90625C12.4609 8.90625 10.9766 10.3516 10.9766 13.1641L10.9766 14.9805L62.8516 14.9805L62.8516 13.1641C62.8516 10.3516 61.3086 8.90625 58.6328 8.90625Z" fill="black" fill-opacity="0.85"/>
  <path d="M64.6289 50.1953C68.3398 50.1953 71.0547 47.9492 71.0547 44.8828C71.0547 42.4805 69.3555 40.6641 67.0312 40.4492L67.0312 41.2891C69.1211 40.6836 70.3516 39.1211 70.3516 37.0898C70.3516 34.3359 67.9102 32.3242 64.5703 32.3242C62.0117 32.3242 59.8828 33.5352 59.0625 35.4688C58.8672 35.8984 58.7695 36.3867 58.7695 36.8359C58.7695 37.6172 59.2969 38.1641 60.0781 38.1641C60.7812 38.1641 61.1719 37.8125 61.3867 37.1094C61.7773 35.7617 62.9102 34.9609 64.5117 34.9609C66.3281 34.9609 67.5 35.8789 67.5 37.3047C67.5 38.7695 66.2695 39.7266 64.4141 39.7266L63.0664 39.7266C62.3047 39.7266 61.7578 40.2734 61.7578 41.0156C61.7578 41.7578 62.3047 42.2852 63.0664 42.2852L64.4336 42.2852C66.7969 42.2852 68.125 43.2031 68.125 44.8828C68.125 46.4453 66.7188 47.5391 64.6484 47.5391C62.793 47.5391 61.4453 46.6797 61.0742 45.332C60.8789 44.668 60.4297 44.3164 59.7656 44.3164C58.9453 44.3164 58.3984 44.8828 58.3984 45.6836C58.3984 46.1328 58.5156 46.582 58.7109 46.9922C59.6875 49.0039 61.8359 50.1953 64.6289 50.1953Z" fill="black" fill-opacity="0.85"/>
  <path d="M46.5039 49.9805L56.0742 49.9805C56.8359 49.9805 57.4219 49.4336 57.4219 48.6719C57.4219 47.8711 56.8359 47.3242 56.0742 47.3242L49.5508 47.3242L49.5508 47.1875L53.1445 43.5547C55.957 40.7422 56.7969 39.2969 56.7969 37.4414C56.7969 34.5312 54.2969 32.3242 50.9766 32.3242C48.3594 32.3242 46.1523 33.7695 45.4102 35.9375C45.2539 36.3086 45.1562 36.7383 45.1562 37.1875C45.1562 37.9688 45.6836 38.5156 46.4648 38.5156C47.1484 38.5156 47.5781 38.1641 47.7539 37.4023C47.8125 37.1484 47.8516 36.9531 47.9492 36.7578C48.4766 35.6055 49.5898 34.9609 50.9766 34.9609C52.5977 34.9609 53.9453 36.1328 53.9453 37.5391C53.9453 38.7109 53.3984 39.5312 51.1719 41.7773L45.7812 47.2461C45.2734 47.7148 45.0977 48.125 45.0977 48.6133C45.0977 49.4336 45.6836 49.9805 46.5039 49.9805Z" fill="black" fill-opacity="0.85"/>
  <path d="M41.1719 50.1562C42.0312 50.1562 42.5977 49.5703 42.5977 48.7305L42.5977 33.9062C42.5977 33.0078 41.9922 32.4023 41.0742 32.4023C40.5859 32.4023 40.2148 32.5391 39.6875 32.8906L35.7812 35.3906C35.2539 35.7227 35 36.1328 35 36.6406C35 37.3633 35.5664 37.8906 36.2891 37.8906C36.582 37.8906 36.8555 37.793 37.1484 37.5977L39.6484 36.0547L39.7656 36.0547L39.7656 48.7305C39.7656 49.5703 40.3516 50.1562 41.1719 50.1562Z" fill="black" fill-opacity="0.85"/>
 </g>
</svg>
