<?xml version="1.0" encoding="UTF-8"?>
<!--Generator: Apple Native CoreSVG 326-->
<!DOCTYPE svg
PUBLIC "-//W3C//DTD SVG 1.1//EN"
       "http://www.w3.org/Graphics/SVG/1.1/DTD/svg11.dtd">
<svg version="1.1" xmlns="http://www.w3.org/2000/svg" xmlns:xlink="http://www.w3.org/1999/xlink" viewBox="0 0 60.4102 50.0586">
 <g>
  <rect height="50.0586" opacity="0" width="60.4102" x="0" y="0"/>
  <path d="M60.0391 30.0195C60.0391 22.6562 57.3828 15.918 52.9688 10.6836C52.4609 10.0781 51.6016 10.0977 51.0352 10.6641L45.3906 16.3086C44.9023 16.7969 44.8828 17.4805 45.3125 18.0273C47.9102 21.3477 49.4531 25.4883 49.4531 30.0195C49.4531 34.5508 47.9102 38.7109 45.1953 42.1484C44.8242 42.6172 44.8438 43.2031 45.2539 43.6133L51.0352 49.4141C51.6016 50 52.4414 49.9805 52.9688 49.375C57.3828 44.1406 60.0391 37.3633 60.0391 30.0195Z" fill="black" fill-opacity="0.85"/>
  <path d="M30.0195 10.5664C34.5508 10.5664 38.7305 12.1289 42.0508 14.7656C42.5781 15.1562 43.2227 15.1172 43.7109 14.6289L49.375 8.96484C49.9609 8.39844 49.9414 7.55859 49.3359 7.03125C44.1211 2.65625 37.3633 0 30.0195 0C22.6758 0 15.918 2.65625 10.7031 7.03125C10.0977 7.55859 10.0781 8.39844 10.6445 8.96484L16.3281 14.6289C16.7969 15.1172 17.5 15.1367 18.0469 14.707C21.3477 12.1289 25.5078 10.5664 30.0195 10.5664Z" fill="black" fill-opacity="0.85"/>
  <path d="M0 30.0195C0 37.3633 2.65625 44.1406 7.07031 49.375C7.57812 49.9805 8.4375 50 9.00391 49.4141L14.7852 43.6133C15.1758 43.2031 15.2148 42.6172 14.8438 42.1484C12.1289 38.7109 10.5664 34.5508 10.5664 30.0195C10.5664 25.4883 12.1094 21.3477 14.7266 18.0273C15.1367 17.4805 15.1367 16.7969 14.6484 16.3086L8.98438 10.6641C8.41797 10.0977 7.57812 10.0781 7.05078 10.6836C2.63672 15.918 0 22.6562 0 30.0195Z" fill="black" fill-opacity="0.85"/>
  <path d="M30.1758 41.5039C34.0039 41.5039 37.4219 39.6094 38.4766 36.2891C38.6133 35.9375 38.6523 35.625 38.6523 35.293C38.6523 34.5898 38.1836 34.1602 37.4609 34.1602C36.7773 34.1602 36.3867 34.5312 36.1914 35.1758C35.4102 37.8711 32.9297 39.2383 30.1953 39.2383C25.4297 39.2383 23.2422 35.0781 23.2422 30.3711C23.2422 25.6641 25.4883 21.6211 30.1953 21.6211C32.9883 21.6211 35.332 23.2617 36.0547 25.7227C36.2891 26.3672 36.6016 26.7383 37.2656 26.7383C37.9688 26.7383 38.4961 26.2891 38.4961 25.5859C38.4961 25.3516 38.4375 24.9609 38.3008 24.6289C37.207 21.3477 33.9258 19.2969 30.1758 19.2969C24.0234 19.2969 20.5078 23.9844 20.5078 30.3711C20.5078 36.543 23.7695 41.5039 30.1758 41.5039ZM28.8867 40.332L30.4688 40.332L30.4688 35.4297C30.4688 32.9492 32.1094 31.2305 34.5508 31.2305C35.0391 31.2305 35.4102 31.3477 35.625 31.3477C36.0938 31.3477 36.4062 31.1133 36.4062 30.5859C36.4062 30.293 36.25 30.0195 35.957 29.8438C35.625 29.6094 34.9805 29.5117 34.5312 29.5117C32.5 29.5117 30.9766 30.8398 30.4883 32.4219L30.4297 32.4219L30.4297 30.3711C30.4297 29.9023 30.1172 29.5703 29.668 29.5703C29.1992 29.5703 28.8867 29.9023 28.8867 30.3711Z" fill="black" fill-opacity="0.85"/>
 </g>
</svg>
