<?xml version="1.0" encoding="UTF-8"?>
<!--Generator: Apple Native CoreSVG 326-->
<!DOCTYPE svg
PUBLIC "-//W3C//DTD SVG 1.1//EN"
       "http://www.w3.org/Graphics/SVG/1.1/DTD/svg11.dtd">
<svg version="1.1" xmlns="http://www.w3.org/2000/svg" xmlns:xlink="http://www.w3.org/1999/xlink" viewBox="0 0 51.25 50.918">
 <g>
  <rect height="50.918" opacity="0" width="51.25" x="0" y="0"/>
  <path d="M25.4297 50.8789C39.4727 50.8789 50.8789 39.4922 50.8789 25.4492C50.8789 11.4062 39.4727 0 25.4297 0C11.3867 0 0 11.4062 0 25.4492C0 39.4922 11.3867 50.8789 25.4297 50.8789ZM25.4297 47.2461C13.3789 47.2461 3.63281 37.5 3.63281 25.4492C3.63281 13.3984 13.3789 3.65234 25.4297 3.65234C37.4805 3.65234 47.2266 13.3984 47.2266 25.4492C47.2266 37.5 37.4805 47.2461 25.4297 47.2461Z" fill="black" fill-opacity="0.85"/>
  <path d="M18.6719 36.6797L25.1758 36.6797C32.1289 36.6797 36.1328 32.5977 36.1328 25.1953C36.1328 17.9688 32.168 13.8672 25.1758 13.8672L18.6719 13.8672C17.5781 13.8672 16.9922 14.6484 16.9922 15.8008L16.9922 34.7266C16.9922 35.8789 17.5781 36.6797 18.6719 36.6797ZM20.3516 33.9453L20.3516 16.6016L24.7656 16.6016C29.7656 16.6016 32.6367 19.668 32.6367 25.2539C32.6367 31.0156 29.8047 33.9453 24.7656 33.9453Z" fill="black" fill-opacity="0.85"/>
 </g>
</svg>
