<?xml version="1.0" encoding="UTF-8"?>
<!--Generator: Apple Native CoreSVG 326-->
<!DOCTYPE svg
PUBLIC "-//W3C//DTD SVG 1.1//EN"
       "http://www.w3.org/Graphics/SVG/1.1/DTD/svg11.dtd">
<svg version="1.1" xmlns="http://www.w3.org/2000/svg" xmlns:xlink="http://www.w3.org/1999/xlink" viewBox="0 0 55.6055 45.5664">
 <g>
  <rect height="45.5664" opacity="0" width="55.6055" x="0" y="0"/>
  <path d="M38.5547 45.5664C46.7578 45.5664 52.6758 41.4062 54.8047 35.1953C55.0586 34.4336 55.1953 33.6719 55.2344 32.9102C55.2344 31.7969 54.5312 30.9961 53.3594 30.9961C52.2461 30.9961 51.6797 31.6406 51.3281 32.7539C50.0586 38.1836 45.0586 41.8555 38.5742 41.8555C29.5312 41.8555 23.7891 34.4141 23.7891 22.6367C23.7891 11.0742 29.5312 3.82812 38.5547 3.82812C44.7656 3.82812 49.7656 7.79297 51.0742 13.1836C51.4453 14.4141 51.9922 14.9219 53.0859 14.9219C54.2383 14.9219 54.9805 14.1406 54.9609 12.9883C54.9219 12.2656 54.8047 11.582 54.5703 10.918C52.3438 4.33594 46.0742 0.0976562 38.5547 0.0976562C26.9727 0.0976562 19.5508 8.82812 19.5508 22.6367C19.5508 36.6602 26.9531 45.5664 38.5547 45.5664ZM7.36328 17.4219C11.4844 17.4219 14.7266 14.1797 14.7266 10.0391C14.7266 5.91797 11.4844 2.67578 7.36328 2.67578C3.24219 2.67578 0 5.91797 0 10.0391C0 14.1797 3.24219 17.4219 7.36328 17.4219ZM7.36328 14.3555C4.96094 14.3555 3.06641 12.4609 3.06641 10.0391C3.06641 7.63672 4.96094 5.74219 7.36328 5.74219C9.76562 5.74219 11.6602 7.63672 11.6602 10.0391C11.6602 12.4609 9.76562 14.3555 7.36328 14.3555Z" fill="black" fill-opacity="0.85"/>
 </g>
</svg>
