<?xml version="1.0" encoding="UTF-8"?>
<!--Generator: Apple Native CoreSVG 326-->
<!DOCTYPE svg
PUBLIC "-//W3C//DTD SVG 1.1//EN"
       "http://www.w3.org/Graphics/SVG/1.1/DTD/svg11.dtd">
<svg version="1.1" xmlns="http://www.w3.org/2000/svg" xmlns:xlink="http://www.w3.org/1999/xlink" viewBox="0 0 59.1406 59.5117">
 <g>
  <rect height="59.5117" opacity="0" width="59.1406" x="0" y="0"/>
  <path d="M19.707 18.1641L39.0625 18.1641C42.4219 18.1641 44.2969 16.3086 44.2969 13.0078L44.2969 5.15625C44.2969 1.85547 42.4219 0 39.0625 0L19.707 0C16.3477 0 14.4727 1.85547 14.4727 5.15625L14.4727 13.0078C14.4727 16.3086 16.3477 18.1641 19.707 18.1641ZM10.9766 51.9336L47.793 51.9336C51.1523 51.9336 53.0273 50.0781 53.0273 46.7773L53.0273 38.9258C53.0273 35.625 51.1523 33.7695 47.793 33.7695L10.9766 33.7695C7.61719 33.7695 5.74219 35.625 5.74219 38.9258L5.74219 46.7773C5.74219 50.0781 7.61719 51.9336 10.9766 51.9336Z" fill="black" fill-opacity="0.85"/>
  <path d="M1.50391 25.7031L57.2461 25.7031C58.1055 25.7031 58.7695 24.9609 58.7695 24.1211C58.7695 23.2617 58.1055 22.5195 57.2461 22.5195L1.50391 22.5195C0.664062 22.5195 0 23.2617 0 24.1211C0 24.9609 0.664062 25.7031 1.50391 25.7031ZM1.50391 59.4727L57.2461 59.4727C58.1055 59.4727 58.7695 58.7305 58.7695 57.8906C58.7695 57.0312 58.1055 56.2891 57.2461 56.2891L1.50391 56.2891C0.664062 56.2891 0 57.0312 0 57.8906C0 58.7305 0.664062 59.4727 1.50391 59.4727Z" fill="black" fill-opacity="0.85"/>
 </g>
</svg>
