<?xml version="1.0" encoding="UTF-8"?>
<!--Generator: Apple Native CoreSVG 326-->
<!DOCTYPE svg
PUBLIC "-//W3C//DTD SVG 1.1//EN"
       "http://www.w3.org/Graphics/SVG/1.1/DTD/svg11.dtd">
<svg version="1.1" xmlns="http://www.w3.org/2000/svg" xmlns:xlink="http://www.w3.org/1999/xlink" viewBox="0 0 54.4141 54.043">
 <g>
  <rect height="54.043" opacity="0" width="54.4141" x="0" y="0"/>
  <path d="M36.6797 42.5391C36.6797 40.0781 36.3672 39.1016 34.7461 37.5L29.8438 32.5977C28.1445 30.8984 25.8789 30.8984 24.1797 32.5977L19.2773 37.5C17.6758 39.1016 17.3438 40.0781 17.3438 42.5391L17.3438 49.1797C17.3438 52.168 19.0234 54.0039 21.7578 54.0039L32.2852 54.0039C35 54.0039 36.6797 52.168 36.6797 49.1797ZM33.5742 42.5391L33.5742 49.1016C33.5742 50.293 32.9492 50.9375 31.7383 50.9375L22.3047 50.9375C21.0742 50.9375 20.4492 50.293 20.4492 49.1016L20.4492 42.5391C20.4492 41.2695 20.625 40.5469 21.4648 39.707L26.3086 34.8633C26.7969 34.375 27.2656 34.4141 27.7344 34.8828L32.5586 39.707C33.3984 40.5469 33.5742 41.2695 33.5742 42.5391Z" fill="black" fill-opacity="0.85"/>
  <path d="M42.5586 17.3438C40.0977 17.3438 39.1211 17.6758 37.5195 19.2773L32.6172 24.1797C30.918 25.8789 30.918 28.1445 32.6172 29.8438L37.5195 34.7461C39.1211 36.3672 40.0977 36.6797 42.5586 36.6797L49.1992 36.6797C52.1875 36.6797 54.043 35 54.043 32.2656L54.043 21.7578C54.043 19.0234 52.1875 17.3438 49.1992 17.3438Z" fill="black" fill-opacity="0.85"/>
  <path d="M11.4844 36.6797C13.9453 36.6797 14.9023 36.3477 16.5234 34.7461L21.4258 29.8438C23.125 28.1445 23.125 25.8789 21.4258 24.1797L16.5234 19.2773C14.9023 17.6562 13.9453 17.3438 11.4844 17.3438L4.84375 17.3438C1.83594 17.3438 0 19.0234 0 21.7578L0 32.2656C0 35 1.83594 36.6797 4.84375 36.6797ZM11.4844 33.5742L4.92188 33.5742C3.71094 33.5742 3.08594 32.9297 3.08594 31.7188L3.08594 22.2852C3.08594 21.0742 3.71094 20.4297 4.92188 20.4297L11.4844 20.4297C12.7539 20.4297 13.457 20.625 14.2969 21.4648L19.1406 26.2891C19.6289 26.7969 19.5898 27.2656 19.1211 27.7344L14.2969 32.5586C13.457 33.3984 12.7539 33.5742 11.4844 33.5742Z" fill="black" fill-opacity="0.85"/>
  <path d="M17.3633 11.4844C17.3633 13.9453 17.6953 14.9023 19.3164 16.5234L24.2188 21.4258C25.8984 23.125 28.1641 23.125 29.8633 21.4258L34.7656 16.5234C36.3867 14.9023 36.7188 13.9453 36.7188 11.4844L36.7188 4.84375C36.7188 1.83594 35.0391 0 32.3047 0L21.7773 0C19.043 0 17.3633 1.83594 17.3633 4.84375ZM20.4688 11.4844L20.4688 4.92188C20.4688 3.71094 21.1133 3.08594 22.3242 3.08594L31.7578 3.08594C32.9688 3.08594 33.6133 3.71094 33.6133 4.92188L33.6133 11.4844C33.6133 12.7539 33.4375 13.457 32.5781 14.2969L27.7539 19.1406C27.2461 19.6289 26.7969 19.5898 26.3281 19.1211L21.5039 14.2969C20.6445 13.457 20.4688 12.7539 20.4688 11.4844Z" fill="black" fill-opacity="0.85"/>
 </g>
</svg>
