<?xml version="1.0" encoding="UTF-8"?>
<!--Generator: Apple Native CoreSVG 326-->
<!DOCTYPE svg
PUBLIC "-//W3C//DTD SVG 1.1//EN"
       "http://www.w3.org/Graphics/SVG/1.1/DTD/svg11.dtd">
<svg version="1.1" xmlns="http://www.w3.org/2000/svg" xmlns:xlink="http://www.w3.org/1999/xlink" viewBox="0 0 49.043 48.1445">
 <g>
  <rect height="48.1445" opacity="0" width="49.043" x="0" y="0"/>
  <path d="M10.7812 19.8633C16.543 19.9023 21.4258 15.3906 21.4258 9.90234C21.4258 4.47266 16.543 0 10.7812 0C5.74219 0 2.42188 3.02734 0.722656 5.54688C0.214844 6.32812 0 7.16797 0 8.08594L0 11.7578C0 12.7148 0.234375 13.5352 0.722656 14.2969C2.38281 16.8359 5.74219 19.7852 10.7812 19.8633ZM4.39453 13.75C3.78906 13.75 3.32031 13.2812 3.32031 12.6562L3.32031 7.16797C3.32031 6.5625 3.78906 6.11328 4.39453 6.11328C5.01953 6.11328 5.48828 6.5625 5.48828 7.16797L5.48828 12.6562C5.48828 13.2812 5.01953 13.75 4.39453 13.75ZM14.4727 39.1211L16.6016 39.1211C18.0469 39.1211 18.9062 38.3984 18.9062 37.0312L18.9062 19.4727C17.0312 20.918 14.6875 21.875 12.168 22.1094L12.168 37.0312C12.168 38.3984 13.0664 39.1211 14.4727 39.1211ZM14.4141 48.0664L16.6797 48.0664L16.6797 36.5625L14.4141 36.5625ZM37.8711 19.8633C42.9297 19.7852 46.2891 16.8359 47.9297 14.2969C48.4375 13.5352 48.6719 12.7148 48.6719 11.7578L48.6719 8.08594C48.6719 7.16797 48.457 6.32812 47.9297 5.54688C46.25 3.02734 42.9297 0 37.8711 0C32.1289 0 27.2461 4.47266 27.2461 9.90234C27.2461 15.3906 32.1289 19.9023 37.8711 19.8633ZM44.2578 13.75C43.6523 13.75 43.1836 13.2812 43.1836 12.6562L43.1836 7.16797C43.1836 6.5625 43.6523 6.11328 44.2578 6.11328C44.8828 6.11328 45.332 6.5625 45.332 7.16797L45.332 12.6562C45.332 13.2812 44.8828 13.75 44.2578 13.75ZM32.0703 39.1211L34.1797 39.1211C35.5859 39.1211 36.4844 38.3984 36.4844 37.0312L36.4844 22.1094C33.9844 21.875 31.6406 20.918 29.7461 19.4727L29.7461 37.0312C29.7461 38.3984 30.625 39.1211 32.0703 39.1211ZM34.2578 48.0664L34.2578 36.5625L31.9727 36.5625L31.9727 48.0664Z" fill="black" fill-opacity="0.85"/>
 </g>
</svg>
