<?xml version="1.0" encoding="UTF-8"?>
<!--Generator: Apple Native CoreSVG 326-->
<!DOCTYPE svg
PUBLIC "-//W3C//DTD SVG 1.1//EN"
       "http://www.w3.org/Graphics/SVG/1.1/DTD/svg11.dtd">
<svg version="1.1" xmlns="http://www.w3.org/2000/svg" xmlns:xlink="http://www.w3.org/1999/xlink" viewBox="0 0 51.25 50.918">
 <g>
  <rect height="50.918" opacity="0" width="51.25" x="0" y="0"/>
  <path d="M50.8789 25.4492C50.8789 39.4531 39.4531 50.8789 25.4297 50.8789C11.4258 50.8789 0 39.4531 0 25.4492C0 11.4258 11.4258 0 25.4297 0C39.4531 0 50.8789 11.4258 50.8789 25.4492ZM15.1367 29.8633C13.6523 29.8633 12.793 30.6836 12.793 32.168L12.793 33.7891C12.793 35.2734 13.6523 36.0938 15.1367 36.0938L35.7227 36.0938C37.207 36.0938 38.0664 35.2734 38.0664 33.7891L38.0664 32.168C38.0664 30.6836 37.207 29.8633 35.7227 29.8633ZM23.9258 12.3438L13.5742 23.8867C13.1836 24.2773 13.0078 24.6875 13.0273 25.1367C13.0859 25.9961 13.5742 26.5234 14.5703 26.5234L36.2695 26.5234C37.2461 26.5234 37.8516 25.9961 37.8516 25.1367C37.8516 24.6875 37.6367 24.2969 37.2656 23.8867L26.9531 12.3438C26.5625 11.8555 26.0352 11.582 25.4297 11.582C24.8242 11.582 24.2969 11.9141 23.9258 12.3438Z" fill="black" fill-opacity="0.85"/>
 </g>
</svg>
