<?xml version="1.0" encoding="UTF-8"?>
<!--Generator: Apple Native CoreSVG 326-->
<!DOCTYPE svg
PUBLIC "-//W3C//DTD SVG 1.1//EN"
       "http://www.w3.org/Graphics/SVG/1.1/DTD/svg11.dtd">
<svg version="1.1" xmlns="http://www.w3.org/2000/svg" xmlns:xlink="http://www.w3.org/1999/xlink" viewBox="0 0 60.6445 42.9102">
 <g>
  <rect height="42.9102" opacity="0" width="60.6445" x="0" y="0"/>
  <path d="M7.59766 42.9102L53.2617 42.9102C57.6953 42.9102 60.2734 40.3516 60.2734 35.3711L60.2734 7.53906C60.2734 2.55859 57.6758 0.0195312 52.6562 0.0195312L7.01172 0.0195312C2.57812 0.0195312 0 2.55859 0 7.53906L0 35.3711C0 40.3516 2.59766 42.9102 7.59766 42.9102ZM7.51953 39.6094C4.82422 39.6094 3.30078 38.125 3.30078 35.3516L3.30078 7.53906C3.30078 4.80469 4.82422 3.32031 7.51953 3.32031L52.7539 3.32031C55.4492 3.32031 56.9531 4.80469 56.9531 7.55859L56.9531 35.3711C56.9531 38.125 55.4492 39.6094 52.7539 39.6094ZM30.1172 27.8125C31.6797 27.8125 33.1445 27.2266 34.5508 25.957L58.3203 4.57031L56.0547 2.30469L32.6172 23.3984C31.7969 24.1406 30.9766 24.4922 30.1172 24.4922C29.2578 24.4922 28.457 24.1406 27.6367 23.3984L4.17969 2.30469L1.91406 4.57031L25.7031 25.957C27.1094 27.2266 28.5547 27.8125 30.1172 27.8125ZM4.57031 39.9805L22.7539 21.7969L20.4883 19.5508L2.30469 37.6953ZM55.7227 40L57.9688 37.7148L39.7852 19.5508L37.5195 21.7969Z" fill="black" fill-opacity="0.85"/>
 </g>
</svg>
