<?xml version="1.0" encoding="UTF-8"?>
<!--Generator: Apple Native CoreSVG 326-->
<!DOCTYPE svg
PUBLIC "-//W3C//DTD SVG 1.1//EN"
       "http://www.w3.org/Graphics/SVG/1.1/DTD/svg11.dtd">
<svg version="1.1" xmlns="http://www.w3.org/2000/svg" xmlns:xlink="http://www.w3.org/1999/xlink" viewBox="0 0 55.5273 53.1055">
 <g>
  <rect height="53.1055" opacity="0" width="55.5273" x="0" y="0"/>
  <path d="M3.06641 47.6758L52.0898 47.6758L52.0898 46.1719C52.0898 45.332 51.582 44.8242 50.7227 44.8242L49.1211 44.8242L49.1211 16.6797L51.3867 16.6797C52.5781 16.6797 53.2422 15.8398 53.2422 14.9609C53.2422 14.3164 52.8906 13.75 52.1094 13.3008L30.5273 0.839844C29.5703 0.292969 28.5547 0 27.5781 0C26.6016 0 25.5664 0.292969 24.6289 0.839844L3.04688 13.3008C2.24609 13.75 1.91406 14.3164 1.91406 14.9609C1.91406 15.8398 2.57812 16.6797 3.76953 16.6797L6.05469 16.6797L6.05469 44.8242L4.45312 44.8242C3.57422 44.8242 3.06641 45.332 3.06641 46.1719ZM9.31641 44.8242L9.31641 13.7109L26.4453 4.0625C26.7773 3.86719 27.1875 3.75 27.5781 3.75C27.9492 3.75 28.3398 3.86719 28.7109 4.0625L45.8594 13.7109L45.8594 44.8242ZM1.73828 53.0664L53.418 53.0664C54.375 53.0664 55.1562 52.2852 55.1562 51.3477C55.1562 50.3906 54.375 49.6094 53.418 49.6094L1.73828 49.6094C0.78125 49.6094 0 50.3906 0 51.3477C0 52.2852 0.78125 53.0664 1.73828 53.0664Z" fill="black" fill-opacity="0.85"/>
  <path d="M30.6641 37.3633C31.3477 37.3633 32.207 37.3242 32.8711 37.168C33.5547 36.9922 34.082 36.6797 34.082 35.9961C34.082 35.293 33.5938 34.9414 32.8906 34.9414C32.168 34.9414 31.7969 35.0586 30.7812 35.0586C25.2734 35.0586 21.9531 31.875 21.9531 26.3086C21.9531 20.8398 25.1172 17.5586 30.7227 17.5586C31.6406 17.5586 32.4023 17.6758 32.8906 17.6758C33.5938 17.6758 34.082 17.3047 34.082 16.6016C34.082 15.9766 33.6719 15.5859 32.8711 15.3906C32.2852 15.2734 31.4844 15.2148 30.6641 15.2148C24.3359 15.2148 19.2773 18.8867 19.2773 26.2891C19.2773 33.3789 23.9062 37.3633 30.6641 37.3633ZM15.8008 24.0625C15.8008 24.4922 16.1523 24.8242 16.5625 24.8242L30.332 24.8242C30.7617 24.8242 31.0938 24.4922 31.0938 24.0625C31.0938 23.6523 30.7617 23.3203 30.332 23.3203L16.5625 23.3203C16.1523 23.3203 15.8008 23.6523 15.8008 24.0625ZM15.8008 28.4961C15.8008 28.9258 16.1523 29.2578 16.5625 29.2578L30.332 29.2578C30.7617 29.2578 31.0938 28.9258 31.0938 28.4961C31.0938 28.0859 30.7617 27.7539 30.332 27.7539L16.5625 27.7539C16.1523 27.7539 15.8008 28.0859 15.8008 28.4961Z" fill="black" fill-opacity="0.85"/>
 </g>
</svg>
