<?xml version="1.0" encoding="UTF-8"?>
<!--Generator: Apple Native CoreSVG 326-->
<!DOCTYPE svg
PUBLIC "-//W3C//DTD SVG 1.1//EN"
       "http://www.w3.org/Graphics/SVG/1.1/DTD/svg11.dtd">
<svg version="1.1" xmlns="http://www.w3.org/2000/svg" xmlns:xlink="http://www.w3.org/1999/xlink" viewBox="0 0 60.961 50.918">
 <g>
  <rect height="50.918" opacity="0" width="60.961" x="0" y="0"/>
  <path d="M30.295 50.8789C44.3379 50.8789 55.7246 39.4922 55.7246 25.4492C55.7246 11.4062 44.3379 0 30.295 0C16.252 0 4.86526 11.4062 4.86526 25.4492L8.49808 25.4492C8.49808 13.3984 18.2442 3.65234 30.295 3.65234C42.3457 3.65234 52.0918 13.3984 52.0918 25.4492C52.0918 37.5 42.3457 47.2461 30.295 47.2461C22.834 47.2461 16.1739 43.457 12.3653 37.7539C11.7207 36.875 10.7051 36.6016 9.80667 37.1484C8.94729 37.6562 8.69339 38.8477 9.39651 39.8047C13.9473 46.5039 21.6426 50.8789 30.295 50.8789ZM1.60354 20.7227C0.00198146 20.7227-0.447237 21.8164 0.470731 23.0859L6.01761 30.9766C6.75979 32.0508 7.83401 32.0312 8.55667 30.9766L14.1035 23.0664C14.9825 21.8164 14.5528 20.7227 12.9707 20.7227Z" fill="black" fill-opacity="0.85"/>
  <path d="M19.6504 35.3906L27.4043 35.3906C28.0684 35.3906 28.5176 35 28.5176 34.3359C28.5176 33.6523 28.0684 33.2617 27.4043 33.2617L20.9004 33.2617L20.9004 26.3086L27.1114 26.3086C27.7168 26.3086 28.127 25.8984 28.127 25.2734C28.127 24.668 27.7168 24.2773 27.1114 24.2773L20.9004 24.2773L20.9004 17.7148L27.4043 17.7148C28.0684 17.7148 28.5176 17.3242 28.5176 16.6602C28.5176 15.9766 28.0684 15.6055 27.4043 15.6055L19.6504 15.6055C18.8887 15.6055 18.4395 16.0938 18.4395 16.8555L18.4395 34.1211C18.4395 34.9219 18.8496 35.3906 19.6504 35.3906ZM32.6582 35.3906L42.17 35.3906C42.795 35.3906 43.1856 34.9609 43.1856 34.3359C43.1856 33.6914 42.795 33.2617 42.17 33.2617L34.2793 33.2617L34.2793 33.125L42.5996 17.9492C42.7754 17.5977 42.9512 17.2461 42.9512 16.8164C42.9512 16.1133 42.4825 15.6055 41.6817 15.6055L32.5996 15.6055C31.9356 15.6055 31.4864 15.9961 31.4864 16.6602C31.4864 17.3047 31.9356 17.7148 32.5996 17.7148L40.1582 17.7148L40.1582 17.8516L31.7403 33.0859C31.545 33.4375 31.4082 33.7891 31.4082 34.1797C31.4082 35 32.0137 35.3906 32.6582 35.3906Z" fill="black" fill-opacity="0.85"/>
 </g>
</svg>
