<?xml version="1.0" encoding="UTF-8"?>
<!--Generator: Apple Native CoreSVG 326-->
<!DOCTYPE svg
PUBLIC "-//W3C//DTD SVG 1.1//EN"
       "http://www.w3.org/Graphics/SVG/1.1/DTD/svg11.dtd">
<svg version="1.1" xmlns="http://www.w3.org/2000/svg" xmlns:xlink="http://www.w3.org/1999/xlink" viewBox="0 0 42.8125 62.793">
 <g>
  <rect height="62.793" opacity="0" width="42.8125" x="0" y="0"/>
  <path d="M21.2305 36.2695C31.7969 36.2695 40.1367 27.9297 40.1367 17.9492C40.1367 12.7344 37.832 7.92969 34.5117 4.78516C33.1445 3.51562 31.6406 2.92969 29.6289 2.92969L12.832 2.92969C10.8203 2.92969 9.31641 3.51562 7.96875 4.78516C4.62891 7.92969 2.32422 12.7344 2.32422 17.9492C2.32422 27.9297 10.6641 36.2695 21.2305 36.2695ZM21.2305 33.1055C11.9922 33.1055 5.46875 26.6016 5.46875 17.9492C5.46875 13.457 7.22656 9.80469 10.1172 7.10938C11.0352 6.25 11.4062 6.09375 12.832 6.09375L29.6289 6.09375C31.0547 6.09375 31.4258 6.25 32.3438 7.10938C35.2344 9.80469 36.9922 13.457 36.9922 17.9492C36.9922 26.6016 30.4688 33.1055 21.2305 33.1055ZM12.4023 62.793L30.0391 62.793C37.0898 62.793 42.4414 57.3828 42.4414 50.3906C42.4414 43.418 37.0898 38.0078 30.0391 38.0078L12.4023 38.0078C5.35156 38.0078 0 43.418 0 50.3906C0 57.3828 5.35156 62.793 12.4023 62.793ZM12.4023 59.6289C7.10938 59.6289 3.125 55.6641 3.125 50.3906C3.125 45.1172 7.10938 41.1719 12.4023 41.1719L30.0391 41.1719C35.332 41.1719 39.3164 45.1172 39.3164 50.3906C39.3164 55.6641 35.332 59.6289 30.0391 59.6289Z" fill="black" fill-opacity="0.85"/>
  <path d="M16.3477 13.6133C17.9492 13.6133 19.2383 12.3242 19.2383 10.7031C19.2383 9.10156 17.9492 7.8125 16.3477 7.8125C14.7266 7.8125 13.457 9.10156 13.457 10.7031C13.457 12.3242 14.7266 13.6133 16.3477 13.6133ZM26.1133 13.6133C27.7344 13.6133 29.0234 12.3242 29.0234 10.7031C29.0234 9.10156 27.7344 7.8125 26.1133 7.8125C24.5117 7.8125 23.2227 9.10156 23.2227 10.7031C23.2227 12.3242 24.5117 13.6133 26.1133 13.6133ZM11.4648 22.0508C13.75 22.0508 15.5859 20.2148 15.5859 17.9297C15.5859 15.6445 13.75 13.8086 11.4648 13.8086C9.16016 13.8086 7.34375 15.6445 7.34375 17.9297C7.34375 20.2148 9.16016 22.0508 11.4648 22.0508ZM21.2305 22.0508C23.5156 22.0508 25.3516 20.2148 25.3516 17.9297C25.3516 15.6445 23.5156 13.8086 21.2305 13.8086C18.9453 13.8086 17.1094 15.6445 17.1094 17.9297C17.1094 20.2148 18.9453 22.0508 21.2305 22.0508ZM30.9961 22.0508C33.3008 22.0508 35.1172 20.2148 35.1172 17.9297C35.1172 15.6445 33.3008 13.8086 30.9961 13.8086C28.7109 13.8086 26.8945 15.6445 26.8945 17.9297C26.8945 20.2148 28.7109 22.0508 30.9961 22.0508ZM16.3477 30.4688C18.6328 30.4688 20.4688 28.6328 20.4688 26.3477C20.4688 24.043 18.6328 22.2266 16.3477 22.2266C14.0625 22.2266 12.2266 24.043 12.2266 26.3477C12.2266 28.6328 14.0625 30.4688 16.3477 30.4688ZM26.1133 30.4688C28.418 30.4688 30.2344 28.6328 30.2344 26.3477C30.2344 24.043 28.418 22.2266 26.1133 22.2266C23.8281 22.2266 21.9922 24.043 21.9922 26.3477C21.9922 28.6328 23.8281 30.4688 26.1133 30.4688ZM12.3633 57.1289C16.0938 57.1289 19.082 54.1211 19.082 50.3906C19.082 46.6602 16.0938 43.6719 12.3633 43.6719C8.63281 43.6719 5.625 46.6602 5.625 50.3906C5.625 54.1211 8.63281 57.1289 12.3633 57.1289ZM30.0781 57.1289C33.8086 57.1289 36.8164 54.1211 36.8164 50.3906C36.8164 46.6602 33.8086 43.6719 30.0781 43.6719C26.3477 43.6719 23.3594 46.6602 23.3594 50.3906C23.3594 54.1211 26.3477 57.1289 30.0781 57.1289Z" fill="black" fill-opacity="0.85"/>
 </g>
</svg>
