<?xml version="1.0" encoding="UTF-8"?>
<!--Generator: Apple Native CoreSVG 326-->
<!DOCTYPE svg
PUBLIC "-//W3C//DTD SVG 1.1//EN"
       "http://www.w3.org/Graphics/SVG/1.1/DTD/svg11.dtd">
<svg version="1.1" xmlns="http://www.w3.org/2000/svg" xmlns:xlink="http://www.w3.org/1999/xlink" viewBox="0 0 52.4609 45.918">
 <g>
  <rect height="45.918" opacity="0" width="52.4609" x="0" y="0"/>
  <path d="M44.3359 2.51953C48.9258 6.85547 52.0898 13.418 52.0898 20.6836C52.0898 34.4141 40.625 45.8789 26.0547 45.8789C11.4648 45.8789 0 34.4141 0 20.6836C0 13.418 3.18359 6.85547 7.75391 2.51953C9.60938 0.800781 11.6211 0 14.3555 0L37.7344 0C40.4883 0 42.5 0.800781 44.3359 2.51953ZM13.3594 32.6367C13.3594 35.8594 15.9766 38.4766 19.1992 38.4766C22.4219 38.4766 25.0195 35.8594 25.0195 32.6367C25.0195 29.4141 22.4219 26.8164 19.1992 26.8164C15.9766 26.8164 13.3594 29.4141 13.3594 32.6367ZM27.0703 32.6367C27.0703 35.8594 29.668 38.4766 32.8906 38.4766C36.1133 38.4766 38.7305 35.8594 38.7305 32.6367C38.7305 29.4141 36.1133 26.8164 32.8906 26.8164C29.668 26.8164 27.0703 29.4141 27.0703 32.6367ZM6.50391 20.6445C6.50391 23.8672 9.12109 26.4648 12.3438 26.4648C15.5469 26.4648 18.1641 23.8672 18.1641 20.6445C18.1641 17.4219 15.5469 14.8047 12.3438 14.8047C9.12109 14.8047 6.50391 17.4219 6.50391 20.6445ZM20.2148 20.6445C20.2148 23.8672 22.832 26.4648 26.0547 26.4648C29.2773 26.4648 31.875 23.8672 31.875 20.6445C31.875 17.4219 29.2773 14.8047 26.0547 14.8047C22.832 14.8047 20.2148 17.4219 20.2148 20.6445ZM33.9258 20.6445C33.9258 23.8672 36.543 26.4648 39.7461 26.4648C42.9688 26.4648 45.5859 23.8672 45.5859 20.6445C45.5859 17.4219 42.9688 14.8047 39.7461 14.8047C36.543 14.8047 33.9258 17.4219 33.9258 20.6445ZM15.0391 10.4297C15.0391 12.7148 16.8945 14.6094 19.1992 14.6094C21.5039 14.6094 23.3789 12.7148 23.3789 10.4297C23.3789 8.125 21.5039 6.26953 19.1992 6.26953C16.8945 6.26953 15.0391 8.125 15.0391 10.4297ZM28.7109 10.4297C28.7109 12.7148 30.5859 14.6094 32.8906 14.6094C35.1953 14.6094 37.0508 12.7148 37.0508 10.4297C37.0508 8.125 35.1953 6.26953 32.8906 6.26953C30.5859 6.26953 28.7109 8.125 28.7109 10.4297Z" fill="black" fill-opacity="0.85"/>
 </g>
</svg>
