<?xml version="1.0" encoding="UTF-8"?>
<!--Generator: Apple Native CoreSVG 326-->
<!DOCTYPE svg
PUBLIC "-//W3C//DTD SVG 1.1//EN"
       "http://www.w3.org/Graphics/SVG/1.1/DTD/svg11.dtd">
<svg version="1.1" xmlns="http://www.w3.org/2000/svg" xmlns:xlink="http://www.w3.org/1999/xlink" viewBox="0 0 55.3906 54.7852">
 <g>
  <rect height="54.7852" opacity="0" width="55.3906" x="0" y="0"/>
  <path d="M55.0195 14.2969L55.0195 34.2188C55.0195 41.1719 51.0742 45.1953 44.0039 45.1953L26.0547 45.1953L16.9336 53.418C15.9375 54.3359 15.293 54.7852 14.4336 54.7852C13.1836 54.7852 12.4609 53.8867 12.4609 52.5195L12.4609 45.1953L11.0156 45.1953C3.92578 45.1953 0 41.2109 0 34.2188L0 14.2969C0 7.30469 3.92578 3.28125 11.0156 3.28125L44.0039 3.28125C51.0742 3.28125 55.0195 7.32422 55.0195 14.2969ZM24.9609 34.5703C24.9609 35.918 26.1523 37.0312 27.5195 37.0312C28.8867 37.0312 30.0781 35.9375 30.0781 34.5703C30.0781 33.1836 28.9062 32.0898 27.5195 32.0898C26.1328 32.0898 24.9609 33.2031 24.9609 34.5703ZM25.4492 13.3008L25.7422 27.0508C25.7617 28.2227 26.4062 28.8867 27.5195 28.8867C28.5938 28.8867 29.2383 28.2422 29.2578 27.0508L29.5703 13.3203C29.5898 12.1484 28.7109 11.2891 27.5 11.2891C26.2695 11.2891 25.4297 12.1289 25.4492 13.3008Z" fill="black" fill-opacity="0.85"/>
 </g>
</svg>
