<?xml version="1.0" encoding="UTF-8"?>
<!--Generator: Apple Native CoreSVG 326-->
<!DOCTYPE svg
PUBLIC "-//W3C//DTD SVG 1.1//EN"
       "http://www.w3.org/Graphics/SVG/1.1/DTD/svg11.dtd">
<svg version="1.1" xmlns="http://www.w3.org/2000/svg" xmlns:xlink="http://www.w3.org/1999/xlink" viewBox="0 0 79.3945 31.1523">
 <g>
  <rect height="31.1523" opacity="0" width="79.3945" x="0" y="0"/>
  <path d="M20.2734 31.1328C28.8672 31.1328 35.8203 24.1602 35.8203 15.5664C35.8203 6.97266 28.8672 0 20.2734 0C11.6797 0 4.6875 6.97266 4.6875 15.5664C4.6875 24.1602 11.6797 31.1328 20.2734 31.1328ZM20.2734 27.5195C13.6719 27.5195 8.32031 22.168 8.32031 15.5664C8.32031 8.96484 13.6719 3.63281 20.2734 3.63281C26.8555 3.63281 32.207 8.98438 32.207 15.5664C32.207 22.1484 26.8555 27.5195 20.2734 27.5195ZM58.7695 31.1328C67.3438 31.1328 74.3164 24.1602 74.3164 15.5664C74.3164 6.97266 67.3438 0 58.7695 0C50.1562 0 43.1836 6.97266 43.1836 15.5664C43.1836 24.1602 50.1562 31.1328 58.7695 31.1328ZM58.7695 27.5195C52.168 27.5195 46.8164 22.1484 46.8164 15.5664C46.8164 8.98438 52.168 3.63281 58.7695 3.63281C65.3516 3.63281 70.7031 8.96484 70.7031 15.5664C70.7031 22.168 65.3516 27.5195 58.7695 27.5195ZM6.15234 12.6953L1.75781 12.6953C0.605469 12.6953 0 13.2812 0 14.4336L0 15.332C0 16.4844 0.605469 17.0703 1.75781 17.0703L6.15234 17.0703ZM72.8711 17.0703L77.2656 17.0703C78.418 17.0703 79.0234 16.4844 79.0234 15.332L79.0234 14.4336C79.0234 13.2812 78.418 12.6953 77.2656 12.6953L72.8711 12.6953ZM34.7852 16.1328C36.1133 15.332 37.8906 14.9414 39.5117 14.9414C41.1328 14.9414 42.9102 15.332 44.2383 16.1328L44.2383 12.0312C42.8125 11.3477 40.9375 11.0742 39.5117 11.0742C38.0859 11.0742 36.2109 11.3477 34.7852 12.0312Z" fill="black" fill-opacity="0.85"/>
 </g>
</svg>
