<?xml version="1.0" encoding="UTF-8"?>
<!--Generator: Apple Native CoreSVG 326-->
<!DOCTYPE svg
PUBLIC "-//W3C//DTD SVG 1.1//EN"
       "http://www.w3.org/Graphics/SVG/1.1/DTD/svg11.dtd">
<svg version="1.1" xmlns="http://www.w3.org/2000/svg" xmlns:xlink="http://www.w3.org/1999/xlink" viewBox="0 0 51.25 50.918">
 <g>
  <rect height="50.918" opacity="0" width="51.25" x="0" y="0"/>
  <path d="M50.8789 25.4688C50.8789 39.4922 39.4531 50.918 25.4297 50.918C11.4258 50.918 0 39.4922 0 25.4688C0 11.4648 11.4258 0.0390625 25.4297 0.0390625C39.4531 0.0390625 50.8789 11.4648 50.8789 25.4688ZM19.707 13.5938C18.5742 13.5938 17.9688 14.4141 17.9688 15.625L17.9688 35.2539C17.9688 36.4453 18.5938 37.2656 19.7266 37.2656C20.8984 37.2656 21.543 36.4844 21.543 35.2539L21.543 26.8164L31.1328 26.8164C32.0312 26.8164 32.6367 26.3086 32.6367 25.4102C32.6367 24.5117 32.0312 23.9844 31.1328 23.9844L21.543 23.9844L21.543 16.5625L32.1094 16.5625C33.0078 16.5625 33.6133 15.9766 33.6133 15.0977C33.6133 14.1602 33.0078 13.5938 32.1094 13.5938Z" fill="black" fill-opacity="0.85"/>
 </g>
</svg>
