<?xml version="1.0" encoding="UTF-8"?>
<!--Generator: Apple Native CoreSVG 326-->
<!DOCTYPE svg
PUBLIC "-//W3C//DTD SVG 1.1//EN"
       "http://www.w3.org/Graphics/SVG/1.1/DTD/svg11.dtd">
<svg version="1.1" xmlns="http://www.w3.org/2000/svg" xmlns:xlink="http://www.w3.org/1999/xlink" viewBox="0 0 51.3672 60.2539">
 <g>
  <rect height="60.2539" opacity="0" width="51.3672" x="0" y="0"/>
  <path d="M25.5078 60.2539C40.1172 60.2539 50.9961 57.1875 50.9961 52.0312C50.9961 48.8086 46.7773 46.4258 39.8438 45.0391L37.9883 47.9297C44.1016 48.8477 47.7539 50.3516 47.7539 52.0312C47.7539 54.5898 38.75 56.9727 25.5078 56.9727C12.2461 56.9727 3.24219 54.5898 3.24219 52.0312C3.24219 50.3516 6.91406 48.8477 13.0273 47.9297L11.1523 45.0391C4.21875 46.4258 0 48.8086 0 52.0312C0 57.1875 10.8789 60.2539 25.5078 60.2539ZM9.375 43.8281L11.8164 49.5117C12.1484 50.2539 13.0078 50.3906 13.5938 49.5312L16.6406 45.0781C17.168 44.3164 16.9336 43.457 15.9375 43.2812L10.5859 42.3633C9.55078 42.168 9.04297 43.0469 9.375 43.8281ZM41.6211 43.8281C41.9531 43.0469 41.4648 42.168 40.4102 42.3633L35.0586 43.2812C34.082 43.457 33.8477 44.3164 34.375 45.0781L37.4023 49.5312C38.0078 50.3906 38.8672 50.2539 39.1992 49.5117Z" fill="black" fill-opacity="0.85"/>
  <path d="M24.1211 14.4141L24.1211 5.48828C24.1211 1.89453 22.3828 0.078125 18.8867 0.078125C12.9297 0.078125 6.73828 5.41016 6.73828 10.5664C6.73828 15.4883 11.3867 18.1055 19.0625 20.9375L20.4297 17.8516C13.7305 15.293 10 13.7305 10 10.5664C10 7.20703 14.6875 3.33984 18.8867 3.33984C20.5273 3.33984 20.8398 3.63281 20.8398 5.48828L20.8398 15.3906ZM31.0742 18.5742L39.9805 18.5742C43.5742 18.5742 45.4102 16.8164 45.4102 13.3789C45.4102 7.38281 40.0391 1.19141 34.8828 1.19141C30 1.19141 27.3438 5.85938 24.5703 13.5352L27.6367 14.9219C30.1758 8.20312 31.7188 4.43359 34.8828 4.43359C38.2812 4.43359 42.1289 9.14062 42.1289 13.3789C42.1289 14.9805 41.875 15.2734 39.9805 15.2734L30.0586 15.2734ZM26.9141 25.5273L26.9141 34.4727C26.9141 38.0664 28.6523 39.8633 32.1289 39.8633C38.1055 39.8633 44.3164 34.5312 44.3164 29.375C44.3164 24.4727 39.6289 21.8359 31.9531 19.0234L30.5664 22.0898C37.2656 24.6484 41.0352 26.2109 41.0352 29.375C41.0352 32.7344 36.3086 36.6211 32.1289 36.582C30.4688 36.582 30.1953 36.3086 30.1953 34.4727L30.1953 24.5508ZM19.9219 21.3281L11.0156 21.3281C7.42188 21.3281 5.64453 23.125 5.64453 26.582C5.64453 32.5586 10.957 38.75 16.1328 38.75C21.0352 38.75 23.6523 34.082 26.4648 26.4062L23.3789 25.0195C20.8398 31.7578 19.2773 35.4688 16.1328 35.4688C12.7344 35.4688 8.92578 30.8008 8.92578 26.582C8.92578 24.9023 9.19922 24.6094 11.0156 24.6094L20.9375 24.6094ZM25.5078 27.0508C29.4336 27.0508 32.6172 23.8672 32.6172 19.9414C32.6172 16.0352 29.4336 12.8516 25.5078 12.8516C21.6016 12.8516 18.418 16.0352 18.418 19.9414C18.418 23.8672 21.6016 27.0508 25.5078 27.0508ZM25.5078 23.8281C23.3789 23.8281 21.6406 22.0898 21.6406 19.9414C21.6406 17.8125 23.3789 16.0742 25.5078 16.0742C27.6562 16.0742 29.3945 17.8125 29.3945 19.9414C29.3945 22.0898 27.6562 23.8281 25.5078 23.8281Z" fill="black" fill-opacity="0.85"/>
 </g>
</svg>
