<?xml version="1.0" encoding="UTF-8"?>
<!--Generator: Apple Native CoreSVG 326-->
<!DOCTYPE svg
PUBLIC "-//W3C//DTD SVG 1.1//EN"
       "http://www.w3.org/Graphics/SVG/1.1/DTD/svg11.dtd">
<svg version="1.1" xmlns="http://www.w3.org/2000/svg" xmlns:xlink="http://www.w3.org/1999/xlink" viewBox="0 0 47.9492 50.6055">
 <g>
  <rect height="50.6055" opacity="0" width="47.9492" x="0" y="0"/>
  <path d="M6.69922 13.6133C2.98828 13.6133 0 10.5273 0 6.93359C0 3.18359 2.98828 0.136719 6.69922 0.136719C10.4297 0.136719 13.418 3.18359 13.418 6.93359C13.418 10.6641 10.4297 13.6133 6.69922 13.6133ZM46.6797 49.082C45.3906 50.4297 43.1836 50.3125 41.6016 48.6914L30.9375 37.6562C30.5664 37.2852 30.3125 37.1875 29.7656 37.4023L21.3086 40.625C15.957 42.6562 10.9766 40.7812 8.57422 36.3867L3.32031 26.8555C1.23047 23.0273 1.89453 19.1211 5.52734 17.207C9.02344 15.2734 12.6562 16.7188 14.7656 20.6055L21.7383 33.3008L27.6562 31.1523C30.5859 30.0781 33.0273 30.4102 35.3516 32.832L46.4453 44.3164C48.0078 45.8984 47.8516 47.8906 46.6797 49.082Z" fill="black" fill-opacity="0.85"/>
  <path d="M39.043 0C38.0469 0 37.2461 0.800781 37.2461 1.83594L37.2461 13.5742L32.5391 13.5742C30.6641 13.5742 30 15.4883 31.1523 16.7969L37.6562 24.2578C38.5156 25.2344 39.6875 25.1953 40.5078 24.2578L46.9922 16.7969C48.2031 15.4297 47.4219 13.5742 45.6055 13.5742L40.8789 13.5742L40.8789 1.83594C40.8789 0.800781 40.0781 0 39.043 0Z" fill="black" fill-opacity="0.85"/>
 </g>
</svg>
