<?xml version="1.0" encoding="UTF-8"?>
<!--Generator: Apple Native CoreSVG 326-->
<!DOCTYPE svg
PUBLIC "-//W3C//DTD SVG 1.1//EN"
       "http://www.w3.org/Graphics/SVG/1.1/DTD/svg11.dtd">
<svg version="1.1" xmlns="http://www.w3.org/2000/svg" xmlns:xlink="http://www.w3.org/1999/xlink" viewBox="0 0 51.25 50.918">
 <g>
  <rect height="50.918" opacity="0" width="51.25" x="0" y="0"/>
  <path d="M25.4297 50.8789C39.4727 50.8789 50.8789 39.4922 50.8789 25.4492C50.8789 11.4062 39.4727 0 25.4297 0C11.3867 0 0 11.4062 0 25.4492C0 39.4922 11.3867 50.8789 25.4297 50.8789ZM25.4297 47.2461C13.3789 47.2461 3.63281 37.5 3.63281 25.4492C3.63281 13.3984 13.3789 3.65234 25.4297 3.65234C37.4805 3.65234 47.2266 13.3984 47.2266 25.4492C47.2266 37.5 37.4805 47.2461 25.4297 47.2461Z" fill="black" fill-opacity="0.85"/>
  <path d="M22.4805 21.1523C24.1602 21.1523 25.5273 19.7852 25.5273 18.0859C25.5273 16.4258 24.1602 15.0586 22.4805 15.0586C20.8203 15.0586 19.4336 16.4258 19.4336 18.0859C19.4336 19.7852 20.8203 21.1523 22.4805 21.1523ZM15.0977 39.4336L23.457 41.5625C24.6094 41.8555 25.4102 40.9766 25.2539 39.8828L24.4727 34.5508L31.1133 34.5508L36.2695 39.7852C36.8164 40.332 37.7148 40.332 38.2617 39.7852C38.8477 39.2383 38.8086 38.3398 38.2617 37.7734L32.793 32.2852C32.4219 31.9141 32.2656 31.8164 31.6406 31.7188L25.6445 31.1328L24.1406 26.543C24.0234 26.2305 24.2969 25.8984 24.6094 25.9961L35.5859 28.1836C36.3086 28.3203 37.0703 27.9297 37.2266 27.0898C37.3633 26.3281 36.875 25.5859 36.1523 25.4297L21.0156 22.4023C19.668 22.1484 18.9453 21.9531 18.3398 21.3672L15.4492 18.4961L15.4492 12.0312C15.4492 11.2109 14.8047 10.6055 14.043 10.6055C13.2422 10.6055 12.6172 11.2109 12.6172 12.0312L12.6172 18.8281C12.6172 19.4141 12.6953 19.7461 13.1055 20.1562L16.3477 23.3984C17.0312 24.0625 17.1289 24.3359 17.3438 25L21.7383 38.2227L15.7812 36.6992C15.0195 36.5039 14.2578 36.9922 14.082 37.7344C13.9062 38.4961 14.3555 39.2383 15.0977 39.4336ZM18.125 12.4609C19.0625 12.4609 19.8633 11.6992 19.8633 10.7227C19.8633 9.76562 19.0625 8.98438 18.125 8.98438C17.1289 8.98438 16.3867 9.76562 16.3867 10.7227C16.3867 11.6992 17.1289 12.4609 18.125 12.4609Z" fill="black" fill-opacity="0.85"/>
 </g>
</svg>
