<?xml version="1.0" encoding="UTF-8"?>
<!--Generator: Apple Native CoreSVG 326-->
<!DOCTYPE svg
PUBLIC "-//W3C//DTD SVG 1.1//EN"
       "http://www.w3.org/Graphics/SVG/1.1/DTD/svg11.dtd">
<svg version="1.1" xmlns="http://www.w3.org/2000/svg" xmlns:xlink="http://www.w3.org/1999/xlink" viewBox="0 0 51.25 50.918">
 <g>
  <rect height="50.918" opacity="0" width="51.25" x="0" y="0"/>
  <path d="M50.8789 25.4492C50.8789 39.4531 39.4531 50.8789 25.4297 50.8789C11.4258 50.8789 0 39.4531 0 25.4492C0 11.4258 11.4258 0 25.4297 0C39.4531 0 50.8789 11.4258 50.8789 25.4492ZM16.2891 40.5469C15.8398 40.5469 15.5078 40.918 15.5078 41.3477C15.5078 41.7578 15.8594 42.1484 16.2891 42.1484L22.2656 42.1484C22.7148 42.1484 23.1055 41.7578 23.1055 41.3477C23.1055 40.8984 22.7148 40.5469 22.2656 40.5469ZM33.457 20.6055L32.4609 20.7227L32.4609 37.7734L27.3828 39.4531C26.7969 39.6484 26.6797 40.1562 26.8164 40.5469C26.9531 40.8789 27.3633 41.1719 27.8516 40.9766L33.457 39.1211C33.8477 38.9844 34.0625 38.7109 34.0625 38.2422L34.0625 20.4883C33.8086 20.5664 33.7305 20.5859 33.457 20.6055ZM19.7656 31.6406L16.2695 36.8359C15.6445 37.7734 16.0938 38.6914 16.7969 39.0234C17.3828 39.3164 18.1445 39.2578 18.6523 38.4766L22.4219 32.8516C22.5391 32.6562 22.6367 32.4023 22.6562 32.0898L22.8125 29.5508L19.5508 27.6172ZM18.418 17.793L17.9688 22.7539C17.8516 24.2578 18.6523 25.7227 19.9219 26.4648L25.7617 29.8633L28.0664 35.6055C28.4375 36.582 29.4141 36.8164 30.1172 36.5039C30.7422 36.2109 31.1328 35.5078 30.7617 34.5312L28.2422 28.2422C28.1641 28.0469 28.0273 27.8906 27.6953 27.6562L23.125 24.2578L23.4766 19.1992C23.4961 18.9258 23.6914 18.8281 23.9844 18.9258L26.9336 19.9609C27.2461 20.0391 27.5781 20.0586 27.8906 20.0391L33.418 19.3945C35.3906 19.1797 35.0195 16.3086 33.1055 16.543L27.7148 17.1484L22.2656 15.332C20.293 14.668 18.5742 15.8008 18.418 17.793ZM19.6289 10.7227C19.6289 12.4414 21.0156 13.8086 22.7344 13.8086C24.4336 13.8086 25.8594 12.4414 25.8594 10.7227C25.8594 9.00391 24.4336 7.61719 22.7344 7.61719C21.0156 7.61719 19.6289 9.00391 19.6289 10.7227Z" fill="black" fill-opacity="0.85"/>
 </g>
</svg>
