<?xml version="1.0" encoding="UTF-8"?>
<!--Generator: Apple Native CoreSVG 326-->
<!DOCTYPE svg
PUBLIC "-//W3C//DTD SVG 1.1//EN"
       "http://www.w3.org/Graphics/SVG/1.1/DTD/svg11.dtd">
<svg version="1.1" xmlns="http://www.w3.org/2000/svg" xmlns:xlink="http://www.w3.org/1999/xlink" viewBox="0 0 51.25 50.918">
 <g>
  <rect height="50.918" opacity="0" width="51.25" x="0" y="0"/>
  <path d="M50.8789 25.4492C50.8789 39.4531 39.4531 50.8789 25.4297 50.8789C11.4258 50.8789 0 39.4531 0 25.4492C0 11.4258 11.4258 0 25.4297 0C39.4531 0 50.8789 11.4258 50.8789 25.4492ZM15.2539 16.7383C14.4531 16.7383 13.7695 17.4023 13.7695 18.2031C12.0117 18.2031 10.5664 19.668 10.5664 21.4062C10.5664 23.1641 12.0117 24.6289 13.7695 24.6289C15.5273 24.6289 16.9727 23.1641 16.9727 21.4062C16.9727 20.7812 16.7969 20.1953 16.4844 19.6875L25.0977 19.6875C25.5859 19.6875 25.8203 20.2344 25.4688 20.5469L22.5977 23.418C21.3086 24.6875 21.5039 26.6016 22.3633 27.2656L29.6289 32.793L27.3633 39.7266C27.0312 40.7422 27.6562 41.4648 28.418 41.6406C29.1016 41.7773 29.8828 41.5039 30.1758 40.5469L32.6953 32.7734C32.9102 32.207 32.7734 31.582 32.4023 31.2109L27.5195 26.3281L33.125 20.7031C33.3594 20.4688 33.7305 20.4883 33.9844 20.7031L35.918 22.6562L33.2617 25.293C32.6562 25.8789 32.6953 26.8164 33.2617 27.3633C33.8086 27.9102 34.7461 27.9688 35.332 27.3633L39.0234 23.7109C39.6094 23.1055 39.5898 22.1875 39.0234 21.6016L35.4688 18.0078C34.6094 17.1484 33.5742 16.7383 32.3633 16.7383ZM21.2305 32.9883L14.3945 32.9883C13.5547 32.9883 12.9102 33.6523 12.9102 34.4531C12.9102 35.2734 13.5547 35.9375 14.3945 35.9375L22.4023 35.9375C23.1836 35.9375 23.7109 35.5273 23.9062 34.8828L25.1172 30.8594L21.9531 28.457ZM30.2734 12.0898C30.2734 13.8086 31.6602 15.1953 33.3789 15.1953C35.0781 15.1953 36.4648 13.8086 36.4648 12.0898C36.4648 10.3906 35.0781 8.98438 33.3789 8.98438C31.6602 8.98438 30.2734 10.3906 30.2734 12.0898Z" fill="black" fill-opacity="0.85"/>
 </g>
</svg>
