<?xml version="1.0" encoding="UTF-8"?>
<!--Generator: Apple Native CoreSVG 326-->
<!DOCTYPE svg
PUBLIC "-//W3C//DTD SVG 1.1//EN"
       "http://www.w3.org/Graphics/SVG/1.1/DTD/svg11.dtd">
<svg version="1.1" xmlns="http://www.w3.org/2000/svg" xmlns:xlink="http://www.w3.org/1999/xlink" viewBox="0 0 51.25 50.918">
 <g>
  <rect height="50.918" opacity="0" width="51.25" x="0" y="0"/>
  <path d="M50.8789 25.4492C50.8789 39.4531 39.4531 50.8789 25.4297 50.8789C11.4258 50.8789 0 39.4531 0 25.4492C0 11.4258 11.4258 0 25.4297 0C39.4531 0 50.8789 11.4258 50.8789 25.4492ZM25.5469 38.0273C22.7734 38.0273 21.8164 35.625 18.1055 35.625C14.3945 35.625 13.418 38.0273 10.6445 38.0273L10.5859 38.0273C10.0977 38.0273 9.78516 38.418 9.78516 38.8281C9.78516 39.2578 10.1172 39.6289 10.5859 39.6289L10.6445 39.6289C14.5312 39.6289 15.4492 37.2461 18.1055 37.2461C20.7812 37.2461 21.6797 39.6289 25.5469 39.6289C29.4336 39.6289 30.332 37.2461 33.0078 37.2461C35.6641 37.2461 36.582 39.6289 40.4688 39.6289L40.5273 39.6289C40.9375 39.6289 41.3281 39.2578 41.3281 38.8281C41.3281 38.418 40.957 38.0273 40.5273 38.0273L40.4688 38.0273C37.6758 38.0273 36.7188 35.625 33.0078 35.625C29.2969 35.625 28.3203 38.0273 25.5469 38.0273ZM36.582 13.0469L18.6719 24.0234L18.6719 21.1523C18.6719 19.5703 17.5977 18.2617 15.625 18.2617L14.9609 18.2617C13.7695 18.2617 12.4609 18.418 11.2891 19.5703L8.04688 22.793C7.51953 23.3203 7.51953 24.2383 8.04688 24.7852L11.6602 28.3203L8.98438 29.9805C8.63281 30.1953 8.53516 30.6641 8.75 31.0156C8.98438 31.3867 9.41406 31.5039 9.78516 31.2695L12.4609 29.6289L12.4609 35.2344C13.1836 34.7656 14.043 34.2383 15.4492 33.9258L15.6836 31.8164C15.7031 31.6797 15.918 31.6406 15.957 31.7578L16.9336 33.7109C17.3242 33.6914 17.6953 33.6719 18.1055 33.6719C18.9258 33.6719 19.5898 33.7305 20.2344 33.8086L18.6719 29.7461L18.6719 25.8398L37.3828 14.3555C37.7734 14.1211 37.8516 13.6328 37.6367 13.2812C37.3828 12.9102 36.9531 12.8125 36.582 13.0469ZM12.4609 22.8906L12.4609 25.2734L10.9961 23.7695L12.0312 22.7344C12.2266 22.5781 12.4609 22.6562 12.4609 22.8906ZM12.4805 13.5742C12.4805 15.3125 13.9062 16.6992 15.625 16.6992C17.3242 16.6992 18.7109 15.3125 18.7109 13.5742C18.7109 11.875 17.3242 10.4688 15.625 10.4688C13.9062 10.4688 12.4805 11.875 12.4805 13.5742Z" fill="black" fill-opacity="0.85"/>
 </g>
</svg>
