<?xml version="1.0" encoding="UTF-8"?>
<!--Generator: Apple Native CoreSVG 326-->
<!DOCTYPE svg
PUBLIC "-//W3C//DTD SVG 1.1//EN"
       "http://www.w3.org/Graphics/SVG/1.1/DTD/svg11.dtd">
<svg version="1.1" xmlns="http://www.w3.org/2000/svg" xmlns:xlink="http://www.w3.org/1999/xlink" viewBox="0 0 51.25 50.918">
 <g>
  <rect height="50.918" opacity="0" width="51.25" x="0" y="0"/>
  <path d="M50.8789 25.4492C50.8789 39.4531 39.4531 50.8789 25.4297 50.8789C11.4258 50.8789 0 39.4531 0 25.4492C0 11.4258 11.4258 0 25.4297 0C39.4531 0 50.8789 11.4258 50.8789 25.4492ZM37.6758 26.1719C37.4023 26.4844 37.3633 26.9336 37.8516 27.4219C38.9062 28.3594 39.6094 29.7461 39.6094 31.3086C39.6094 34.2188 37.2656 36.5625 34.3359 36.5625C31.4258 36.5625 29.0625 34.2188 29.0625 31.3086C29.0625 30.5859 29.2188 29.8633 29.4922 29.1992C29.7656 28.6133 29.4922 28.1836 29.1016 28.0469C28.7305 27.8711 28.2617 27.9883 28.0859 28.4961C27.6758 29.3945 27.4805 30.3125 27.4805 31.3086C27.4805 35.1172 30.5273 38.1641 34.3359 38.1641C38.1641 38.1641 41.2109 35.1172 41.2109 31.3086C41.2109 29.2383 40.293 27.4023 38.8477 26.1328C38.4375 25.7617 37.9492 25.918 37.6758 26.1719ZM8.71094 31.2305C8.71094 35.0586 11.7383 38.0859 15.5469 38.0859C19.375 38.0859 22.4609 35.0586 22.4609 31.2305C22.4609 27.4023 19.375 24.3555 15.5469 24.3555C11.7383 24.3555 8.71094 27.4023 8.71094 31.2305ZM20.8594 31.2305C20.8594 34.1406 18.4766 36.4844 15.5469 36.4844C12.6562 36.4844 10.293 34.1406 10.293 31.2305C10.293 28.3203 12.6562 25.9375 15.5469 25.9375C18.4766 25.9375 20.8594 28.3203 20.8594 31.2305ZM20.8203 14.0039C19.375 14.0039 18.1055 14.8828 17.5391 16.1914C16.9727 17.5586 17.2656 19.1016 18.3008 20.1172L23.5156 25.3906L23.5156 31.9336C23.5156 32.7148 24.1797 33.3594 24.9609 33.3594C25.7422 33.3594 26.3867 32.7148 26.3867 31.9336L26.3867 24.7656C26.3867 24.4336 26.2695 24.1016 25.9766 23.8281L22.2461 19.668C22.0117 19.3945 22.1875 19.0039 22.5391 19.0039L27.1094 19.0039C27.6562 19.0039 27.8516 19.3945 27.8516 19.8047L27.8516 23.3398C27.8516 24.1016 28.4961 24.7656 29.2578 24.7656L35.0195 24.7656C35.8008 24.7656 36.4258 24.1016 36.4258 23.3398C36.4258 22.5586 35.8008 21.8945 35.0195 21.8945L30.7031 21.8945L30.7031 16.875C30.7031 15.2734 29.4141 14.0039 27.8516 14.0039ZM32.168 14.7266C32.168 16.4453 33.5352 17.832 35.293 17.832C36.9922 17.832 38.3594 16.4453 38.3594 14.7266C38.3594 12.9883 36.9922 11.6016 35.293 11.6016C33.5352 11.6016 32.168 12.9883 32.168 14.7266Z" fill="black" fill-opacity="0.85"/>
 </g>
</svg>
