<?xml version="1.0" encoding="UTF-8"?>
<!--Generator: Apple Native CoreSVG 326-->
<!DOCTYPE svg
PUBLIC "-//W3C//DTD SVG 1.1//EN"
       "http://www.w3.org/Graphics/SVG/1.1/DTD/svg11.dtd">
<svg version="1.1" xmlns="http://www.w3.org/2000/svg" xmlns:xlink="http://www.w3.org/1999/xlink" viewBox="0 0 51.25 50.918">
 <g>
  <rect height="50.918" opacity="0" width="51.25" x="0" y="0"/>
  <path d="M25.4297 50.8789C39.4727 50.8789 50.8789 39.4922 50.8789 25.4492C50.8789 11.4062 39.4727 0 25.4297 0C11.3867 0 0 11.4062 0 25.4492C0 39.4922 11.3867 50.8789 25.4297 50.8789ZM25.4297 47.2461C13.3789 47.2461 3.63281 37.5 3.63281 25.4492C3.63281 13.3984 13.3789 3.65234 25.4297 3.65234C37.4805 3.65234 47.2266 13.3984 47.2266 25.4492C47.2266 37.5 37.4805 47.2461 25.4297 47.2461Z" fill="black" fill-opacity="0.85"/>
  <path d="M18.9648 16.3867C20.6445 16.3867 21.9922 15.0195 21.9922 13.3398C21.9922 11.6797 20.6445 10.3125 18.9648 10.3125C17.3047 10.3125 15.918 11.6797 15.918 13.3398C15.918 15.0195 17.3047 16.3867 18.9648 16.3867ZM38.8086 35.4297L30.3711 30.8789L25.0781 27.207C24.668 26.9141 24.3164 26.582 23.9844 26.1914C24.5312 25.8789 24.7656 25.2539 24.5898 24.6484L23.5742 20.4297C23.1836 18.9453 21.8359 17.9297 20.3125 17.9297L17.0117 17.9297C15.9961 17.9297 15.293 18.1641 14.6289 18.8281L10.8594 22.5977C10.3906 23.0469 10.332 23.75 10.6445 24.2969L13.2812 28.9453L13.2812 36.6797C13.2812 37.4414 13.9258 38.1055 14.707 38.1055C15.4883 38.1055 16.1328 37.4414 16.1328 36.6797L16.1328 30.0781L24.2383 30.6836L29.1406 33.457L37.4609 37.9102C38.3008 38.3594 39.1016 37.9688 39.3945 37.3633C39.7461 36.6797 39.4727 35.7812 38.8086 35.4297ZM13.6328 23.8477L16.0938 21.3672L18.0078 26.2891L16.5039 27.1289L15.5469 27.1289Z" fill="black" fill-opacity="0.85"/>
 </g>
</svg>
