<?xml version="1.0" encoding="UTF-8"?>
<!--Generator: Apple Native CoreSVG 326-->
<!DOCTYPE svg
PUBLIC "-//W3C//DTD SVG 1.1//EN"
       "http://www.w3.org/Graphics/SVG/1.1/DTD/svg11.dtd">
<svg version="1.1" xmlns="http://www.w3.org/2000/svg" xmlns:xlink="http://www.w3.org/1999/xlink" viewBox="0 0 61.4453 51.582">
 <g>
  <rect height="51.582" opacity="0" width="61.4453" x="0" y="0"/>
  <path d="M3.57422 19.3945L15.5469 19.3945C16.3281 19.3945 16.9336 18.75 16.9336 17.9688C16.9336 17.1875 16.3281 16.543 15.5469 16.543L3.57422 16.543C2.8125 16.543 2.20703 17.1875 2.20703 17.9688C2.20703 18.75 2.8125 19.3945 3.57422 19.3945ZM1.34766 28.7695L15.5469 28.7695C16.3281 28.7695 16.9336 28.125 16.9336 27.3242C16.9336 26.543 16.3281 25.8984 15.5469 25.8984L1.34766 25.8984C0.605469 25.8984 0 26.5625 0 27.3242C0 28.1055 0.605469 28.7695 1.34766 28.7695ZM8.47656 38.125L15.5469 38.125C16.3281 38.125 16.9336 37.4805 16.9336 36.6992C16.9336 35.918 16.3281 35.2734 15.5469 35.2734L8.47656 35.2734C7.71484 35.2734 7.10938 35.918 7.10938 36.6992C7.10938 37.4805 7.71484 38.125 8.47656 38.125Z" fill="black" fill-opacity="0.85"/>
  <path d="M54.9805 10.7617C57.9688 10.7617 60.3516 8.35938 60.3516 5.37109C60.3516 2.38281 57.9688 0 54.9805 0C51.9922 0 49.5898 2.38281 49.5898 5.37109C49.5898 8.35938 51.9922 10.7617 54.9805 10.7617ZM40.0195 51.582C50.3711 51.582 58.1641 43.7695 58.1641 33.4375C58.1641 28.75 56.2695 25.9375 52.0898 24.5117L48.1641 23.1641C47.5195 22.9492 47.3242 22.4609 47.7539 21.8359L50.332 18.125C52.3047 15.2539 51.6016 12.8906 48.5352 10.7617L39.082 4.16016C38.1055 3.47656 36.8555 3.4375 35.8594 4.08203L27.0898 9.98047C23.8672 12.168 26.8555 16.1133 29.7656 14.1406L37.1875 9.12109L42.3047 12.6953C43.1836 13.3203 43.2812 14.0039 42.7148 14.8242L38.5938 20.7812C36.3867 23.9844 38.2031 27.4805 41.6602 28.3398L52.7344 31.0742C53.9844 31.3672 54.6094 32.2852 54.6094 33.6328C54.6094 41.7578 48.3398 48.0273 40.0391 48.0273C31.6992 48.0273 25.4297 41.7578 25.4297 33.418C25.4297 30.5859 26.2305 28.0664 27.5781 25.9375C29.043 23.5938 25.9766 21.8164 24.4727 24.1797C22.8516 26.7969 21.875 29.9219 21.875 33.418C21.875 43.7695 29.668 51.582 40.0195 51.582ZM58.3203 51.582C59.8633 51.582 61.0742 50.3711 61.0742 48.8281C61.0742 47.3047 59.8633 46.0938 58.3203 46.0938C56.7969 46.0938 55.5859 47.3047 55.5859 48.8281C55.5859 50.3711 56.7969 51.582 58.3203 51.582Z" fill="black" fill-opacity="0.85"/>
 </g>
</svg>
