<?xml version="1.0" encoding="UTF-8"?>
<!--Generator: Apple Native CoreSVG 326-->
<!DOCTYPE svg
PUBLIC "-//W3C//DTD SVG 1.1//EN"
       "http://www.w3.org/Graphics/SVG/1.1/DTD/svg11.dtd">
<svg version="1.1" xmlns="http://www.w3.org/2000/svg" xmlns:xlink="http://www.w3.org/1999/xlink" viewBox="0 0 62.4414 47.6758">
 <g>
  <rect height="47.6758" opacity="0" width="62.4414" x="0" y="0"/>
  <path d="M31.0352 37.832C32.4023 37.832 33.5156 36.7188 33.5156 35.3516L33.5156 22.8906C33.5156 22.3047 33.3008 21.7383 32.832 21.2305L26.3281 13.9844C25.9375 13.5156 26.2109 12.8711 26.8359 12.8711L34.7852 12.8711C35.7422 12.8711 36.0547 13.5547 36.0547 14.2188L36.0547 20.3711C36.0547 21.7383 37.1484 22.8516 38.5156 22.8516L48.5156 22.8516C49.8633 22.8516 50.957 21.7383 50.957 20.3711C50.957 19.0234 49.8633 17.9102 48.5156 17.9102L40.9961 17.9102L40.9961 9.16016C40.9961 6.38672 38.7891 4.17969 36.0156 4.17969L23.8477 4.17969C21.3086 4.17969 19.1016 5.70312 18.1055 8.00781C17.1484 10.3711 17.6953 13.0078 19.4531 14.7852L28.5547 23.9453L28.5547 35.3516C28.5547 36.7188 29.668 37.832 31.0352 37.832ZM13.2422 47.3633C20.625 47.3633 26.5039 41.5039 26.5039 34.1211C26.5039 26.7383 20.625 20.8594 13.2422 20.8594C5.85938 20.8594 0 26.7383 0 34.1211C0 41.5039 5.85938 47.3633 13.2422 47.3633ZM13.2422 44.2969C7.63672 44.2969 3.04688 39.7266 3.04688 34.1211C3.04688 28.4961 7.63672 23.9062 13.2422 23.9062C18.8477 23.9062 23.4375 28.4961 23.4375 34.1211C23.4375 39.7266 18.8477 44.2969 13.2422 44.2969ZM55.6055 26.5625C57.6562 28.3984 59.0039 31.0938 59.0039 34.1211C59.0039 39.7266 54.4141 44.2969 48.8086 44.2969C43.2031 44.2969 38.6328 39.7266 38.6328 34.1211C38.6328 32.6953 38.9258 31.3086 39.4531 30.0977C39.9414 28.8867 39.4727 28.0859 38.6719 27.793C37.9492 27.5195 37.1484 27.7539 36.7188 28.7109C35.9766 30.4102 35.5664 32.1875 35.5664 34.1211C35.5664 41.5039 41.4258 47.3633 48.8086 47.3633C56.1914 47.3633 62.0703 41.5039 62.0703 34.1211C62.0703 30.1172 60.332 26.6211 57.5195 24.1406C56.6992 23.4375 55.8008 23.5938 55.2539 24.1992C54.707 24.8047 54.6484 25.7031 55.6055 26.5625ZM48.9648 10.8203C51.9336 10.8203 54.3555 8.39844 54.3555 5.41016C54.3555 2.44141 51.9336 0 48.9648 0C45.957 0 43.5352 2.44141 43.5352 5.41016C43.5352 8.39844 45.957 10.8203 48.9648 10.8203Z" fill="black" fill-opacity="0.85"/>
 </g>
</svg>
