<?xml version="1.0" encoding="UTF-8"?>
<!--Generator: Apple Native CoreSVG 326-->
<!DOCTYPE svg
PUBLIC "-//W3C//DTD SVG 1.1//EN"
       "http://www.w3.org/Graphics/SVG/1.1/DTD/svg11.dtd">
<svg version="1.1" xmlns="http://www.w3.org/2000/svg" xmlns:xlink="http://www.w3.org/1999/xlink" viewBox="0 0 61.6523 49.668">
 <g>
  <rect height="49.668" opacity="0" width="61.6523" x="0" y="0"/>
  <path d="M43.5703 15.7227L43.5703 21.7578C43.5703 23.4961 44.8398 24.7852 46.5781 24.7852L51.3437 24.7852C53.0625 24.7852 54.3515 23.4961 54.3515 21.7578L54.3515 15.7227C54.3515 13.9844 53.0625 12.6953 51.3437 12.6953L46.5781 12.6953C44.8398 12.6953 43.5703 13.9844 43.5703 15.7227ZM36.5976 33.418L36.5976 39.4531C36.5976 41.1914 37.8867 42.4805 39.625 42.4805L44.3711 42.4805C46.1094 42.4805 47.418 41.1914 47.418 39.4531L47.418 33.418C47.418 31.6797 46.1094 30.4102 44.3711 30.4102L39.625 30.4102C37.8867 30.4102 36.5976 31.6797 36.5976 33.418ZM50.5039 33.418L50.5039 39.4531C50.5039 41.1914 51.7539 42.4805 53.5117 42.4805L58.2578 42.4805C59.9961 42.4805 61.2851 41.1914 61.2851 39.4531L61.2851 33.418C61.2851 31.6797 59.9961 30.4102 58.2578 30.4102L53.5117 30.4102C51.7539 30.4102 50.5039 31.6797 50.5039 33.418ZM48.9609 21.3477C47.5547 21.3477 46.3437 20.1758 46.3437 18.7305C46.3437 17.3242 47.5547 16.1523 48.9609 16.1523C50.3672 16.1523 51.5781 17.3242 51.5781 18.7305C51.5781 20.1758 50.3672 21.3477 48.9609 21.3477ZM42.0469 39.043C40.6015 39.043 39.4101 37.8906 39.4101 36.4258C39.4101 35.0195 40.6015 33.8672 42.0469 33.8672C43.4336 33.8672 44.625 35.0195 44.625 36.4258C44.625 37.8906 43.4336 39.043 42.0469 39.043ZM55.8945 39.043C54.4687 39.043 53.2578 37.8906 53.2578 36.4258C53.2578 35.0195 54.4687 33.8672 55.8945 33.8672C57.2812 33.8672 58.4922 35.0195 58.4922 36.4258C58.4922 37.8906 57.2812 39.043 55.8945 39.043ZM43.9219 9.00391L53.9609 9.00391C54.664 9.00391 54.8203 8.26172 54.2539 7.89062L49.6836 4.74609C49.1953 4.43359 48.707 4.43359 48.2187 4.74609L43.6289 7.89062C43.082 8.26172 43.2383 9.00391 43.9219 9.00391Z" fill="black" fill-opacity="0.85"/>
  <path d="M14.3125 10.9766C17.3203 10.9766 19.7617 8.45703 19.7617 5.52734C19.7617 2.48047 17.3203 0 14.3125 0C11.2461 0 8.84373 2.48047 8.84373 5.52734C8.84373 8.55469 11.2461 10.9766 14.3125 10.9766ZM3.78514 31.4258L19.4687 14.0039C17.9062 13.3984 16.207 13.1641 14.3125 13.1641C7.22264 13.1641 3.06248 16.5625 3.06248 22.2461C3.06248 23.6328 3.10154 25.4688 3.33592 27.3242ZM24.8203 31.4258L25.25 27.3242C25.4648 25.4688 25.543 23.6328 25.543 22.2461C25.543 19.4141 24.5273 17.1289 22.5156 15.5664L9.93748 29.5703C11.4219 29.3164 12.8476 29.2188 14.3125 29.2188C17.789 29.2188 21.2656 29.6875 24.8203 31.4258ZM8.25779 49.5508C9.70311 49.3359 10.6797 48.3008 10.4648 46.5234L9.50779 37.4023L19.0976 37.4023L18.1211 46.5234C17.9453 48.3008 18.8633 49.3359 20.3476 49.5508C21.832 49.6875 22.9648 48.7695 23.1406 47.0117L24.4297 34.9219C21.2265 33.0859 17.6914 32.3828 14.3125 32.3828C10.914 32.3828 7.33983 33.0859 4.21483 34.9219L5.46483 47.0117C5.66014 48.7695 6.77342 49.6875 8.25779 49.5508ZM22.5156 15.5469L27.2226 10.332C28.0039 9.45312 27.9258 8.49609 27.1836 7.85156C26.4414 7.22656 25.543 7.20703 24.7226 8.125L19.4687 14.0039C20.582 14.4336 21.6172 14.9609 22.5156 15.5469ZM0.718732 33.2812C-0.121112 33.9062-0.140643 34.8828 0.23045 35.5469C0.660138 36.2305 1.55858 36.5625 2.45701 35.9961C3.04295 35.6055 3.58983 35.2539 4.21483 34.9219L3.78514 31.4258C2.67186 31.9336 1.65623 32.5391 0.718732 33.2812ZM27.8867 33.2812C26.9492 32.5391 25.9336 31.9336 24.8203 31.4258L24.4101 34.9219C25.0351 35.2539 25.5625 35.6055 26.1484 35.9961C27.0469 36.5625 27.9062 36.25 28.3359 35.5859C28.7656 34.9219 28.7656 33.9258 27.8867 33.2812Z" fill="black" fill-opacity="0.85"/>
 </g>
</svg>
