<?xml version="1.0" encoding="UTF-8"?>
<!--Generator: Apple Native CoreSVG 326-->
<!DOCTYPE svg
PUBLIC "-//W3C//DTD SVG 1.1//EN"
       "http://www.w3.org/Graphics/SVG/1.1/DTD/svg11.dtd">
<svg version="1.1" xmlns="http://www.w3.org/2000/svg" xmlns:xlink="http://www.w3.org/1999/xlink" viewBox="0 0 51.25 50.918">
 <g>
  <rect height="50.918" opacity="0" width="51.25" x="0" y="0"/>
  <path d="M25.4297 50.8789C39.4727 50.8789 50.8789 39.4922 50.8789 25.4492C50.8789 11.4062 39.4727 0 25.4297 0C11.3867 0 0 11.4062 0 25.4492C0 39.4922 11.3867 50.8789 25.4297 50.8789ZM25.4297 47.2461C13.3789 47.2461 3.63281 37.5 3.63281 25.4492C3.63281 13.3984 13.3789 3.65234 25.4297 3.65234C37.4805 3.65234 47.2266 13.3984 47.2266 25.4492C47.2266 37.5 37.4805 47.2461 25.4297 47.2461Z" fill="black" fill-opacity="0.85"/>
  <path d="M29.5898 16.1328C31.25 16.1328 32.6367 14.7656 32.6367 13.0859C32.6367 11.4062 31.25 10.0586 29.5898 10.0586C27.9102 10.0586 26.543 11.4062 26.543 13.0859C26.543 14.7656 27.9102 16.1328 29.5898 16.1328ZM20.1758 34.0625C20.8008 34.5117 21.7188 34.3555 22.168 33.7305L25.4492 29.1406L28.5547 29.6875L25.4883 34.2578C25.0586 34.9023 25.2148 35.8203 25.8984 36.2109C26.6992 36.6992 27.4805 36.4453 27.8711 35.8203L32.0117 29.5898C32.5586 28.7695 32.2656 27.5 31.0742 27.207L25.3906 25.8398C24.8047 25.7031 24.6289 25.2148 24.9414 24.7461L27.3438 21.1328C27.5 20.8984 27.832 20.8398 28.0859 21.0156L31.5625 23.418C31.7578 23.5352 31.9141 23.6133 32.1289 23.6523L39.9609 25.0586C40.6445 25.1953 41.4648 24.7461 41.6211 23.9062C41.7383 23.1445 41.2305 22.3828 40.4688 22.2656L32.9492 20.8984L21.3477 12.9883L24.6484 10.6055C25.3125 10.1172 25.4492 9.25781 25 8.61328C24.5508 7.96875 23.6523 7.79297 23.0273 8.24219L18.0664 11.8164C17.2266 12.4219 17.2266 13.5938 18.0664 14.1602L22.3047 17.0703C22.5586 17.2461 22.6172 17.5391 22.4414 17.793L18.8867 22.9297C17.4219 25.0781 18.3398 27.9883 21.25 28.457L22.3047 28.6328L19.8633 32.0703C19.3945 32.7148 19.5117 33.6133 20.1758 34.0625ZM34.082 41.1914C34.5898 41.25 34.9414 40.8398 34.9414 40.4492C34.9414 40.1367 34.707 39.8242 34.2383 39.7852C24.707 38.7109 15.3906 34.4531 9.92188 29.5898C9.58984 29.2578 9.19922 29.3164 8.96484 29.5508C8.65234 29.8242 8.57422 30.3125 9.00391 30.7031C14.5703 35.6445 23.75 39.9414 34.082 41.1914ZM9.80469 35.4102C10.9961 35.4102 12.6367 35 14.0234 34.082L11.9336 32.0898C11.1914 33.1055 10.6055 33.5547 9.55078 34.082C9.16016 34.2969 9.02344 34.6094 9.10156 34.9414C9.17969 35.1953 9.43359 35.4102 9.80469 35.4102Z" fill="black" fill-opacity="0.85"/>
 </g>
</svg>
