<?xml version="1.0" encoding="UTF-8"?>
<!--Generator: Apple Native CoreSVG 326-->
<!DOCTYPE svg
PUBLIC "-//W3C//DTD SVG 1.1//EN"
       "http://www.w3.org/Graphics/SVG/1.1/DTD/svg11.dtd">
<svg version="1.1" xmlns="http://www.w3.org/2000/svg" xmlns:xlink="http://www.w3.org/1999/xlink" viewBox="0 0 51.25 50.918">
 <g>
  <rect height="50.918" opacity="0" width="51.25" x="0" y="0"/>
  <path d="M25.4297 50.8789C39.4727 50.8789 50.8789 39.4922 50.8789 25.4492C50.8789 11.4062 39.4727 0 25.4297 0C11.3867 0 0 11.4062 0 25.4492C0 39.4922 11.3867 50.8789 25.4297 50.8789ZM25.4297 47.2461C13.3789 47.2461 3.63281 37.5 3.63281 25.4492C3.63281 13.3984 13.3789 3.65234 25.4297 3.65234C37.4805 3.65234 47.2266 13.3984 47.2266 25.4492C47.2266 37.5 37.4805 47.2461 25.4297 47.2461Z" fill="black" fill-opacity="0.85"/>
  <path d="M26.543 13.9844C28.2031 13.9844 29.5703 12.6172 29.5703 10.9375C29.5703 9.27734 28.2031 7.91016 26.543 7.91016C24.8438 7.91016 23.4961 9.27734 23.4961 10.9375C23.4961 12.6172 24.8438 13.9844 26.543 13.9844ZM29.7852 22.1875C30.3906 22.793 31.4648 22.7539 31.9531 21.9727L35.3516 16.5234C36.3672 14.8633 33.9258 13.5547 32.9883 15.0586L30.5273 19.0039L28.6133 17.0703C26.7773 15.2344 24.7461 14.8633 21.9531 15.1758L16.9922 15.7422C16.3477 15.8008 15.8398 16.3281 15.7617 16.9336L15.0781 22.4023C14.8438 24.1602 17.5977 24.6094 17.832 22.7344L18.3789 18.3594L20.957 18.0664C21.3281 18.0469 21.582 18.3008 21.5234 18.6914L20.8594 24.0234C20.5469 26.5625 22.0117 28.0273 24.5117 27.8516L29.6289 27.4805L28.0859 33.0469C27.5781 34.9414 30.293 35.5859 30.7812 33.7891L32.793 26.3477C33.0469 25.4102 32.4023 24.6094 31.3477 24.6094L26.0547 24.6094L26.7383 20.0391C26.7969 19.5898 27.1875 19.5898 27.4414 19.8438ZM22.2461 28.6914L21.8945 33.8477L19.2969 40.4102C18.8281 41.5625 19.668 42.3828 20.5273 42.3828C21.0742 42.3828 21.6016 42.0703 21.875 41.3867L24.5508 34.6875C24.5898 34.5703 24.6094 34.4727 24.6484 34.375L25.4688 28.9453L24.6094 29.0234C23.75 29.082 23.0859 29.0039 22.2461 28.6914Z" fill="black" fill-opacity="0.85"/>
 </g>
</svg>
