<?xml version="1.0" encoding="UTF-8"?>
<!--Generator: Apple Native CoreSVG 326-->
<!DOCTYPE svg
PUBLIC "-//W3C//DTD SVG 1.1//EN"
       "http://www.w3.org/Graphics/SVG/1.1/DTD/svg11.dtd">
<svg version="1.1" xmlns="http://www.w3.org/2000/svg" xmlns:xlink="http://www.w3.org/1999/xlink" viewBox="0 0 41.1133 50.6836">
 <g>
  <rect height="50.6836" opacity="0" width="41.1133" x="0" y="0"/>
  <path d="M22.3828 1.26953C25.7227 2.40234 34.1406 5.52734 37.4805 6.85547C39.707 7.77344 40.7422 8.63281 40.7422 11.2695L40.7422 30.2734C40.7422 39.0039 36.2305 42.4805 22.0312 50.1758C21.4258 50.4883 20.8203 50.6836 20.3711 50.6836C19.9219 50.6836 19.2969 50.5078 18.7109 50.1758C4.74609 42.0898 0 39.0039 0 30.2734L0 11.2695C0 8.63281 1.03516 7.73438 3.26172 6.85547C6.60156 5.54688 15.0195 2.40234 18.3594 1.26953C19.0234 1.07422 19.6875 0.898438 20.3711 0.898438C21.0547 0.898438 21.7188 1.05469 22.3828 1.26953ZM15.7617 26.2695L9.375 30.6055C8.65234 31.1133 8.65234 32.0117 9.31641 32.4609L15.7227 36.8164C16.4844 37.3242 17.5195 36.9922 17.5195 35.9375L17.5195 33.0078L30.4492 33.0078C31.2695 33.0078 31.9336 32.3438 31.9336 31.543C31.9336 30.7227 31.2695 30.0586 30.4492 30.0586L17.5195 30.0586L17.5195 27.0703C17.5195 26.0547 16.5039 25.7812 15.7617 26.2695ZM23.2227 13.8867L23.2227 16.875L10.293 16.875C9.47266 16.875 8.80859 17.5391 8.80859 18.3594C8.80859 19.1602 9.47266 19.8242 10.293 19.8242L23.2227 19.8242L23.2227 22.7539C23.2227 23.8086 24.2578 24.1406 25.0195 23.6328L31.4258 19.2773C32.0898 18.8281 32.0898 17.9297 31.3672 17.4219L24.9609 13.0859C24.2383 12.5977 23.2227 12.8711 23.2227 13.8867Z" fill="black" fill-opacity="0.85"/>
 </g>
</svg>
