<?xml version="1.0" encoding="UTF-8"?>
<!--Generator: Apple Native CoreSVG 326-->
<!DOCTYPE svg
PUBLIC "-//W3C//DTD SVG 1.1//EN"
       "http://www.w3.org/Graphics/SVG/1.1/DTD/svg11.dtd">
<svg version="1.1" xmlns="http://www.w3.org/2000/svg" xmlns:xlink="http://www.w3.org/1999/xlink" viewBox="0 0 41.875 58.6523">
 <g>
  <rect height="58.6523" opacity="0" width="41.875" x="0" y="0"/>
  <path d="M19.6094 54.043C32.7344 54.043 41.5039 45.1562 41.5039 31.7188C41.5039 9.39453 22.5 0 9.0625 0C6.89453 0 5.56641 0.761719 5.56641 2.22656C5.56641 2.79297 5.82031 3.37891 6.32812 3.96484C9.33594 7.57812 12.3633 11.9141 12.4023 16.7578C12.4023 18.0078 12.207 19.1406 11.3281 20.5078L12.5 20.2734C11.3281 16.6406 8.16406 14.1211 5.66406 14.1211C4.74609 14.1211 4.14062 14.7852 4.14062 15.7617C4.14062 16.4258 4.33594 17.9688 4.33594 19.082C4.33594 25.0195 0 28.1445 0 37.1289C0 47.3047 7.77344 54.043 19.6094 54.043ZM20.1172 46.9531C15.5273 46.9531 12.5 44.1992 12.5 40.0586C12.5 35.7422 15.5469 34.1797 15.957 31.4062C15.9961 31.1719 16.1328 31.1133 16.3281 31.25C17.4609 32.2461 18.2227 33.4961 18.8477 34.9219C20.1562 33.1641 20.7812 29.4531 20.3125 25.3711C20.2734 25.1562 20.4297 25.0195 20.6445 25.1172C26.0156 27.6758 28.8281 32.9883 28.8281 37.793C28.8281 42.6758 25.9766 46.9531 20.1172 46.9531Z" fill="black" fill-opacity="0.85"/>
 </g>
</svg>
