<?xml version="1.0" encoding="UTF-8"?>
<!--Generator: Apple Native CoreSVG 326-->
<!DOCTYPE svg
PUBLIC "-//W3C//DTD SVG 1.1//EN"
       "http://www.w3.org/Graphics/SVG/1.1/DTD/svg11.dtd">
<svg version="1.1" xmlns="http://www.w3.org/2000/svg" xmlns:xlink="http://www.w3.org/1999/xlink" viewBox="0 0 60.4102 49.8382">
 <g>
  <rect height="49.8382" opacity="0" width="60.4102" x="0" y="0"/>
  <path d="M60.0391 29.9093C60.0391 14.1867 47.9492 1.29605 32.5977 0.00698344C31.7969-0.0711416 31.1719 0.514796 31.1719 1.33511L31.1719 9.32339C31.1719 9.98745 31.6602 10.5148 32.3438 10.5734C41.9727 11.7453 49.4531 19.9484 49.4531 29.9093C49.4531 34.4406 47.9102 38.6007 45.1758 42.0382C44.8047 42.507 44.8242 43.0929 45.2344 43.5031L51.0352 49.3039C51.6211 49.8703 52.4609 49.8703 52.9688 49.2453C57.3828 44.0109 60.0391 37.2531 60.0391 29.9093Z" fill="black" fill-opacity="0.85"/>
  <path d="M0 29.9093C0 37.2726 2.65625 44.05 7.08984 49.2843C7.57812 49.8703 8.39844 49.8703 8.98438 49.3039L14.7852 43.5031C15.1953 43.0929 15.2148 42.507 14.8438 42.0382C12.1094 38.6007 10.5664 34.4406 10.5664 29.9093C10.5664 19.9484 18.0664 11.7453 27.6758 10.5734C28.3789 10.5148 28.8477 9.98745 28.8477 9.32339L28.8477 1.33511C28.8477 0.514796 28.2422-0.0711416 27.4414 0.00698344C12.0703 1.29605 0 14.1867 0 29.9093Z" fill="black" fill-opacity="0.85"/>
  <path d="M23.9062 41.3937C27.7148 41.3937 29.5508 39.3625 30.1562 35.632L31.0156 30.6125L36.5625 30.6125C37.1094 30.6125 37.5 30.2414 37.5 29.714C37.5 29.1867 37.1094 28.796 36.5625 28.796L31.3086 28.796L31.9531 25.007C32.3633 22.6046 33.5742 21.3742 36.0156 21.3742C36.9531 21.3742 37.5781 21.589 38.125 21.589C38.7891 21.589 39.1406 21.257 39.1406 20.671C39.1406 20.1046 38.7109 19.7335 38.1641 19.5187C37.4414 19.2257 36.4258 19.1281 35.8008 19.1281C32.0703 19.1281 30.0586 21.1203 29.4336 24.8117L28.75 28.796L23.5352 28.796C22.9688 28.796 22.5781 29.1867 22.5781 29.714C22.5781 30.2414 22.9688 30.6125 23.5352 30.6125L28.457 30.6125L27.6367 35.339C27.2266 37.8195 26.1719 39.1671 23.6523 39.1671C22.6562 39.1671 22.2852 38.9718 21.4648 38.9718C20.8789 38.9718 20.5273 39.3429 20.5273 39.8507C20.5273 40.4562 20.8789 40.7882 21.4844 41.0421C22.1875 41.3351 23.1445 41.3937 23.9062 41.3937Z" fill="black" fill-opacity="0.85"/>
 </g>
</svg>
