<?xml version="1.0" encoding="UTF-8"?>
<!--Generator: Apple Native CoreSVG 326-->
<!DOCTYPE svg
PUBLIC "-//W3C//DTD SVG 1.1//EN"
       "http://www.w3.org/Graphics/SVG/1.1/DTD/svg11.dtd">
<svg version="1.1" xmlns="http://www.w3.org/2000/svg" xmlns:xlink="http://www.w3.org/1999/xlink" viewBox="0 0 79.082 37.9492">
 <g>
  <rect height="37.9492" opacity="0" width="79.082" x="0" y="0"/>
  <path d="M0 34.7266C0 36.9141 1.28906 37.9102 2.77344 37.9102C3.4375 37.9102 4.10156 37.7148 4.74609 37.3438L31.2109 21.8164C32.8711 20.8594 33.5352 20.1172 33.5352 18.9648C33.5352 17.8125 32.8711 17.0508 31.2109 16.0938L4.74609 0.566406C4.10156 0.195312 3.4375 0 2.77344 0C1.28906 0 0 1.01562 0 3.20312ZM33.418 34.7266C33.418 36.9141 34.6875 37.9102 36.1914 37.9102C36.8359 37.9102 37.5195 37.7148 38.1641 37.3438L64.6289 21.8164C66.2891 20.8594 66.9531 20.1172 66.9531 18.9648C66.9531 17.8125 66.2891 17.0508 64.6289 16.0938L38.1641 0.566406C37.5195 0.195312 36.8359 0 36.1914 0C34.6875 0 33.418 1.01562 33.418 3.20312ZM69.9609 37.793L75.5859 37.793C77.6562 37.793 78.7109 36.7578 78.7109 34.668L78.7109 3.22266C78.7109 1.05469 77.6562 0.0976562 75.5859 0.0976562L69.9609 0.0976562C67.8711 0.0976562 66.8359 1.15234 66.8359 3.22266L66.8359 34.668C66.8359 36.7578 67.8711 37.793 69.9609 37.793Z" fill="black" fill-opacity="0.85"/>
 </g>
</svg>
