<?xml version="1.0" encoding="UTF-8"?>
<!--Generator: Apple Native CoreSVG 326-->
<!DOCTYPE svg
PUBLIC "-//W3C//DTD SVG 1.1//EN"
       "http://www.w3.org/Graphics/SVG/1.1/DTD/svg11.dtd">
<svg version="1.1" xmlns="http://www.w3.org/2000/svg" xmlns:xlink="http://www.w3.org/1999/xlink" viewBox="0 0 51.25 50.918">
 <g>
  <rect height="50.918" opacity="0" width="51.25" x="0" y="0"/>
  <path d="M50.8789 25.4492C50.8789 39.4531 39.4531 50.8789 25.4297 50.8789C11.4258 50.8789 0 39.4531 0 25.4492C0 11.4258 11.4258 0 25.4297 0C39.4531 0 50.8789 11.4258 50.8789 25.4492ZM27.2852 17.9492L27.2852 24.7852C27.1094 24.4141 26.7969 24.1211 26.3477 23.8477L13.7305 16.4258C13.2812 16.1523 12.8516 16.0156 12.4023 16.0156C11.5234 16.0156 10.7617 16.6406 10.7617 17.9492L10.7617 33.0469C10.7617 34.3359 11.5234 34.9609 12.4023 34.9609C12.8516 34.9609 13.2812 34.8438 13.7305 34.5703L26.3477 27.1289C26.7969 26.875 27.1094 26.5625 27.2852 26.2109L27.2852 33.0469C27.2852 34.3359 28.0273 34.9609 28.9062 34.9609C29.375 34.9609 29.7852 34.8438 30.2344 34.5703L42.832 27.1289C43.5938 26.6992 43.9648 26.1328 43.9648 25.4883C43.9648 24.8438 43.5938 24.2969 42.832 23.8477L30.2344 16.4258C29.7852 16.1523 29.375 16.0156 28.9062 16.0156C28.0273 16.0156 27.2852 16.6406 27.2852 17.9492Z" fill="black" fill-opacity="0.85"/>
 </g>
</svg>
