<?xml version="1.0" encoding="UTF-8"?>
<!--Generator: Apple Native CoreSVG 326-->
<!DOCTYPE svg
PUBLIC "-//W3C//DTD SVG 1.1//EN"
       "http://www.w3.org/Graphics/SVG/1.1/DTD/svg11.dtd">
<svg version="1.1" xmlns="http://www.w3.org/2000/svg" xmlns:xlink="http://www.w3.org/1999/xlink" viewBox="0 0 51.25 50.918">
 <g>
  <rect height="50.918" opacity="0" width="51.25" x="0" y="0"/>
  <path d="M25.4297 50.8789C39.4727 50.8789 50.8789 39.4922 50.8789 25.4492C50.8789 11.4062 39.4727 0 25.4297 0C11.3867 0 0 11.4062 0 25.4492C0 39.4922 11.3867 50.8789 25.4297 50.8789ZM25.4297 47.2461C13.3789 47.2461 3.63281 37.5 3.63281 25.4492C3.63281 13.3984 13.3789 3.65234 25.4297 3.65234C37.4805 3.65234 47.2266 13.3984 47.2266 25.4492C47.2266 37.5 37.4805 47.2461 25.4297 47.2461Z" fill="black" fill-opacity="0.85"/>
  <path d="M18.6914 22.4609C17.7734 22.4609 17.2266 21.9336 17.2266 21.0742L17.2266 14.2188C17.2266 13.3398 17.7734 12.793 18.6914 12.793L28.418 12.793C29.3164 12.793 29.9023 13.3398 29.9023 14.2188L29.9023 21.0742C29.9023 21.9336 29.3164 22.4609 28.418 22.4609ZM13.2031 38.457C13.2031 39.0039 13.6133 39.4336 14.1602 39.4336L32.9297 39.4336C33.457 39.4336 33.9062 39.0039 33.9062 38.457C33.9062 37.9297 33.457 37.4805 32.9297 37.4805L31.9141 37.4805L31.9141 23.0078C33.0664 23.6719 33.5742 24.6875 33.5742 25.918C33.5742 27.9688 33.2812 30.4688 33.2812 32.5391C33.2812 34.8047 34.6484 36.1719 36.7578 36.1719C39.082 36.1719 40.4102 34.6094 40.4102 31.8555C40.4102 28.6523 39.7461 24.9219 38.5742 19.1016L38.2422 17.5C38.0469 16.3867 37.6758 15.5078 36.9727 14.6289L35.4492 12.7148C34.7852 11.8555 33.5156 12.832 34.2188 13.6914L36.0938 16.0156C36.1719 16.1328 36.2109 16.3086 36.1133 16.4648L34.9805 18.5547C34.6875 19.0625 34.7852 19.4531 35.1953 19.8828L37.6367 22.5C38.457 26.25 38.8867 29.2773 38.8867 31.8555C38.8867 33.6914 38.125 34.6484 36.7578 34.6484C35.5664 34.6484 34.8047 33.8672 34.8047 32.5391C34.8047 30.7227 35.0977 28.2227 35.0977 25.918C35.0977 23.8281 34.1211 22.168 31.9141 21.2891L31.9141 14.0625C31.9141 11.9531 30.7617 10.8008 28.6523 10.8008L18.457 10.8008C16.3477 10.8008 15.2344 11.9531 15.2344 14.0625L15.2344 37.4805L14.1602 37.4805C13.6133 37.4805 13.2031 37.9102 13.2031 38.457Z" fill="black" fill-opacity="0.85"/>
 </g>
</svg>
