<?xml version="1.0" encoding="UTF-8"?>
<!--Generator: Apple Native CoreSVG 326-->
<!DOCTYPE svg
PUBLIC "-//W3C//DTD SVG 1.1//EN"
       "http://www.w3.org/Graphics/SVG/1.1/DTD/svg11.dtd">
<svg version="1.1" xmlns="http://www.w3.org/2000/svg" xmlns:xlink="http://www.w3.org/1999/xlink" viewBox="0 0 51.25 50.957">
 <g>
  <rect height="50.957" opacity="0" width="51.25" x="0" y="0"/>
  <path d="M50.8789 25.5273C50.8789 39.5508 39.4531 50.957 25.4297 50.957C11.4258 50.957 0 39.5508 0 25.5273C0 11.5039 11.4258 0.0976562 25.4297 0.0976562C39.4531 0.0976562 50.8789 11.5039 50.8789 25.5273ZM18.2812 10.5469C16.1133 10.5469 14.9805 11.7188 14.9805 13.8867L14.9805 37.8516L13.8867 37.8516C13.3203 37.8516 12.8711 38.3008 12.8711 38.8477C12.8711 39.4141 13.3203 39.8438 13.8867 39.8438L33.0859 39.8438C33.6328 39.8438 34.1016 39.4141 34.1016 38.8477C34.1016 38.3203 33.6328 37.8516 33.0859 37.8516L32.0508 37.8516L32.0508 23.0469C33.2422 23.7305 33.75 24.7656 33.75 26.0156C33.75 28.1055 33.457 30.6641 33.457 32.793C33.457 35.1172 34.8633 36.5039 37.0312 36.5039C39.3945 36.5039 40.7617 34.9414 40.7617 32.0898C40.7617 28.8086 40.0977 25.0195 38.8867 19.043L38.5352 17.4023C38.3398 16.2891 37.9492 15.3516 37.2266 14.4531L35.6836 12.5C35 11.6406 33.6914 12.6172 34.4141 13.4961L36.3281 15.8789C36.4062 15.9961 36.4453 16.1719 36.3477 16.3477L35.1953 18.4766C34.9023 19.0039 35 19.3945 35.4102 19.8438L37.9102 22.5195C38.75 26.3477 39.1992 29.4531 39.1992 32.0898C39.1992 33.9648 38.418 34.9609 37.0312 34.9609C35.8008 34.9609 35.0195 34.1602 35.0195 32.793C35.0195 30.9375 35.3125 28.3789 35.3125 26.0156C35.3125 23.8672 34.3164 22.1875 32.0508 21.2695L32.0508 13.8867C32.0508 11.7383 30.8789 10.5469 28.7109 10.5469ZM30 14.043L30 21.0547C30 21.9531 29.3945 22.4805 28.4766 22.4805L18.5352 22.4805C17.5781 22.4805 17.0312 21.9531 17.0312 21.0547L17.0312 14.043C17.0312 13.1445 17.5781 12.5977 18.5352 12.5977L28.4766 12.5977C29.3945 12.5977 30 13.1445 30 14.043Z" fill="black" fill-opacity="0.85"/>
 </g>
</svg>
