<?xml version="1.0" encoding="UTF-8"?>
<!--Generator: Apple Native CoreSVG 326-->
<!DOCTYPE svg
PUBLIC "-//W3C//DTD SVG 1.1//EN"
       "http://www.w3.org/Graphics/SVG/1.1/DTD/svg11.dtd">
<svg version="1.1" xmlns="http://www.w3.org/2000/svg" xmlns:xlink="http://www.w3.org/1999/xlink" viewBox="0 0 51.25 50.918">
 <g>
  <rect height="50.918" opacity="0" width="51.25" x="0" y="0"/>
  <path d="M50.8789 25.4492C50.8789 39.4531 39.4531 50.8789 25.4297 50.8789C11.4258 50.8789 0 39.4531 0 25.4492C0 11.4258 11.4258 0 25.4297 0C39.4531 0 50.8789 11.4258 50.8789 25.4492ZM13.2031 14.5312L21.9922 27.4023C22.793 28.6133 23.9844 29.3945 25.4297 29.3945C27.6367 29.3945 29.4141 27.6367 29.4141 25.4492C29.4141 24.1016 28.75 22.9297 27.6953 22.1875L14.7656 12.9492C13.5742 12.1289 12.3828 13.3203 13.2031 14.5312Z" fill="black" fill-opacity="0.85"/>
 </g>
</svg>
