<?xml version="1.0" encoding="UTF-8"?>
<!--Generator: Apple Native CoreSVG 326-->
<!DOCTYPE svg
PUBLIC "-//W3C//DTD SVG 1.1//EN"
       "http://www.w3.org/Graphics/SVG/1.1/DTD/svg11.dtd">
<svg version="1.1" xmlns="http://www.w3.org/2000/svg" xmlns:xlink="http://www.w3.org/1999/xlink" viewBox="0 0 46.2891 45.918">
 <g>
  <rect height="45.918" opacity="0" width="46.2891" x="0" y="0"/>
  <path d="M7.59766 45.918L38.3008 45.918C43.3594 45.918 45.918 43.3594 45.918 38.3984L45.918 7.53906C45.918 2.55859 43.3594 0 38.3008 0L7.59766 0C2.55859 0 0 2.53906 0 7.53906L0 38.3984C0 43.3984 2.55859 45.918 7.59766 45.918ZM7.67578 42.4609C4.94141 42.4609 3.45703 41.0156 3.45703 38.2031L3.45703 7.71484C3.45703 4.92188 4.94141 3.45703 7.67578 3.45703L38.2422 3.45703C40.918 3.45703 42.4609 4.92188 42.4609 7.71484L42.4609 38.2031C42.4609 41.0156 40.918 42.4609 38.2422 42.4609Z" fill="black" fill-opacity="0.85"/>
  <path d="M16.5625 32.9102C16.9922 32.9102 17.2852 32.832 17.6172 32.6562L32.4219 24.8633C33.3008 24.3945 33.6914 23.8477 33.6914 22.9492C33.6914 22.1289 33.2617 21.5234 32.4219 21.0352L17.6172 13.0078C17.2656 12.832 16.9922 12.7539 16.5234 12.7539C15.5078 12.7539 14.7656 13.4961 14.7656 14.4531C14.7656 15.2539 15.1562 15.7812 16.0352 16.2305L28.9258 22.8125L28.9258 22.9688L16.0352 29.4531C15.1367 29.8828 14.7656 30.3711 14.7656 31.1914C14.7656 32.1875 15.5273 32.9102 16.5625 32.9102Z" fill="black" fill-opacity="0.85"/>
 </g>
</svg>
