<?xml version="1.0" encoding="UTF-8"?>
<!--Generator: Apple Native CoreSVG 326-->
<!DOCTYPE svg
PUBLIC "-//W3C//DTD SVG 1.1//EN"
       "http://www.w3.org/Graphics/SVG/1.1/DTD/svg11.dtd">
<svg version="1.1" xmlns="http://www.w3.org/2000/svg" xmlns:xlink="http://www.w3.org/1999/xlink" viewBox="0 0 51.25 50.918">
 <g>
  <rect height="50.918" opacity="0" width="51.25" x="0" y="0"/>
  <path d="M25.4297 50.8789C39.4727 50.8789 50.8789 39.4922 50.8789 25.4492C50.8789 11.4062 39.4727 0 25.4297 0C11.3867 0 0 11.4062 0 25.4492C0 39.4922 11.3867 50.8789 25.4297 50.8789ZM25.4297 47.2461C13.3789 47.2461 3.63281 37.5 3.63281 25.4492C3.63281 13.3984 13.3789 3.65234 25.4297 3.65234C37.4805 3.65234 47.2266 13.3984 47.2266 25.4492C47.2266 37.5 37.4805 47.2461 25.4297 47.2461Z" fill="black" fill-opacity="0.85"/>
  <path d="M25.6055 36.4258C30.957 36.4258 34.2383 33.2031 34.2383 27.5195L34.2383 26.3672C34.2383 25.5273 33.7109 25 32.9297 25L26.0547 25L26.0547 27.1094L31.7188 27.1094L31.7188 28.0859C31.7188 31.6797 29.4922 34.1602 25.625 34.1602C20.957 34.1602 18.6328 30.1562 18.6328 25.293C18.6328 20.7227 20.7617 16.543 25.5859 16.543C28.3398 16.543 30.7617 18.1445 31.4258 20.5664C31.6602 21.2305 31.9727 21.5234 32.6953 21.5234C33.3789 21.5234 33.8477 21.0742 33.8477 20.3906C33.8477 20.0781 33.7891 19.6875 33.6133 19.2773C32.4219 15.9375 28.9062 14.2578 25.5859 14.2578C19.2773 14.2578 15.9375 19.082 15.9375 25.3125C15.9375 31.7383 19.4336 36.4258 25.6055 36.4258ZM25.4688 39.375C25.918 39.375 26.25 39.043 26.25 38.6133L26.25 12.168C26.25 11.6992 25.918 11.3867 25.4688 11.3867C25 11.3867 24.6875 11.6992 24.6875 12.168L24.6875 38.6133C24.6875 39.043 25 39.375 25.4688 39.375Z" fill="black" fill-opacity="0.85"/>
 </g>
</svg>
