<?xml version="1.0" encoding="UTF-8"?>
<!--Generator: Apple Native CoreSVG 326-->
<!DOCTYPE svg
PUBLIC "-//W3C//DTD SVG 1.1//EN"
       "http://www.w3.org/Graphics/SVG/1.1/DTD/svg11.dtd">
<svg version="1.1" xmlns="http://www.w3.org/2000/svg" xmlns:xlink="http://www.w3.org/1999/xlink" viewBox="0 0 53.1055 51.8164">
 <g>
  <rect height="51.8164" opacity="0" width="53.1055" x="0" y="0"/>
  <path d="M52.7344 18.8281L52.7344 44.2773C52.7344 49.2773 50.1953 51.8164 45.1367 51.8164L19.8242 51.8164C14.7852 51.8164 12.2266 49.2578 12.2266 44.2773L12.2266 40.5859L15.6836 40.5859L15.6836 44.1016C15.6836 46.9141 17.2266 48.3594 19.9023 48.3594L45.0781 48.3594C47.793 48.3594 49.2773 46.9141 49.2773 44.1016L49.2773 19.0039C49.2773 16.1914 47.793 14.7461 45.0781 14.7461L40.5273 14.7461L40.5273 11.2891L45.1367 11.2891C50.1953 11.2891 52.7344 13.8281 52.7344 18.8281Z" fill="black" fill-opacity="0.85"/>
  <path d="M32.9102 0.0585938L7.59766 0.0585938C2.55859 0.0585938 0 2.61719 0 7.57812L0 33.0469C0 38.0273 2.55859 40.5859 7.59766 40.5859L32.9102 40.5859C37.9688 40.5859 40.5273 38.0469 40.5273 33.0469L40.5273 7.57812C40.5273 2.59766 37.9688 0.0585938 32.9102 0.0585938ZM32.8516 3.51562C35.5664 3.51562 37.0508 4.96094 37.0508 7.77344L37.0508 32.8711C37.0508 35.6836 35.5664 37.1289 32.8516 37.1289L7.67578 37.1289C5 37.1289 3.45703 35.6836 3.45703 32.8711L3.45703 7.77344C3.45703 4.96094 5 3.51562 7.67578 3.51562Z" fill="black" fill-opacity="0.85"/>
  <path d="M12.3828 31.8164C13.4961 31.8164 14.1406 31.1133 14.1406 29.9023L14.1406 21.1328L26.3867 21.1328L26.3867 29.9023C26.3867 31.0938 27.0312 31.8164 28.0859 31.8164C29.1992 31.8164 29.8242 31.1133 29.8242 29.9023L29.8242 10.3906C29.8242 9.17969 29.1992 8.47656 28.0859 8.47656C27.0312 8.47656 26.3867 9.19922 26.3867 10.3906L26.3867 18.3984L14.1406 18.3984L14.1406 10.3906C14.1406 9.17969 13.4961 8.47656 12.3828 8.47656C11.3281 8.47656 10.6836 9.19922 10.6836 10.3906L10.6836 29.9023C10.6836 31.0938 11.3281 31.8164 12.3828 31.8164Z" fill="black" fill-opacity="0.85"/>
 </g>
</svg>
