<?xml version="1.0" encoding="UTF-8"?>
<!--Generator: Apple Native CoreSVG 326-->
<!DOCTYPE svg
PUBLIC "-//W3C//DTD SVG 1.1//EN"
       "http://www.w3.org/Graphics/SVG/1.1/DTD/svg11.dtd">
<svg version="1.1" xmlns="http://www.w3.org/2000/svg" xmlns:xlink="http://www.w3.org/1999/xlink" viewBox="0 0 51.25 50.918">
 <g>
  <rect height="50.918" opacity="0" width="51.25" x="0" y="0"/>
  <path d="M50.8789 25.4492C50.8789 39.4531 39.4531 50.8789 25.4297 50.8789C11.4258 50.8789 0 39.4531 0 25.4492C0 11.4258 11.4258 0 25.4297 0C39.4531 0 50.8789 11.4258 50.8789 25.4492ZM16.7578 12.3438C15.6445 12.6367 14.5508 13.2617 14.5508 14.6289C14.5508 15.1172 14.707 15.5664 14.8633 15.8398C14.9609 16.0352 14.9414 16.1914 14.7852 16.2695C13.9258 16.582 13.1836 17.4219 13.1836 18.5156C13.1836 19.1602 13.3789 19.7266 13.7109 20.0977C13.8672 20.332 13.8281 20.5273 13.5938 20.6641C12.9297 21.0547 12.5195 21.7969 12.5195 22.7539C12.5195 23.3789 12.7148 24.1016 13.0664 24.4531C13.3203 24.6484 13.2617 24.7656 13.0078 24.9609C12.6172 25.3516 12.3242 26.0156 12.3242 26.7578C12.3242 28.1445 13.3789 29.2578 14.7461 29.2578L19.707 29.2578C20.9961 29.2578 21.7969 29.9023 21.7969 30.957C21.7969 32.8516 19.4727 36.3086 19.4727 38.75C19.4727 40.0391 20.3125 40.8203 21.3867 40.8203C22.4023 40.8203 22.9102 40.1367 23.4375 39.082C25.5273 35.0195 28.3203 31.7188 30.4492 28.8672C32.2461 26.4844 33.1445 24.4531 33.1836 21.1328C33.2422 15.9961 29.1211 12.1094 22.5781 12.0508L20.6641 12.0312C18.8477 12.0117 17.5195 12.1484 16.7578 12.3438ZM31.2109 13.3398C33.8281 15.1758 34.9609 17.9297 34.9023 21.1719C34.8633 24.7656 33.4766 27.168 32.3242 28.7305L34.3945 28.7305C37.5391 28.7305 39.9023 25.332 39.9023 21.0352C39.9023 16.8359 37.3633 13.3398 33.8867 13.3398Z" fill="black" fill-opacity="0.85"/>
 </g>
</svg>
