<?xml version="1.0" encoding="UTF-8"?>
<!--Generator: Apple Native CoreSVG 326-->
<!DOCTYPE svg
PUBLIC "-//W3C//DTD SVG 1.1//EN"
       "http://www.w3.org/Graphics/SVG/1.1/DTD/svg11.dtd">
<svg version="1.1" xmlns="http://www.w3.org/2000/svg" xmlns:xlink="http://www.w3.org/1999/xlink" viewBox="0 0 51.25 50.918">
 <g>
  <rect height="50.918" opacity="0" width="51.25" x="0" y="0"/>
  <path d="M25.4297 50.8789C39.4727 50.8789 50.8789 39.4922 50.8789 25.4492C50.8789 11.4062 39.4727 0 25.4297 0C11.3867 0 0 11.4062 0 25.4492C0 39.4922 11.3867 50.8789 25.4297 50.8789ZM25.4297 47.2461C13.3789 47.2461 3.63281 37.5 3.63281 25.4492C3.63281 13.3984 13.3789 3.65234 25.4297 3.65234C37.4805 3.65234 47.2266 13.3984 47.2266 25.4492C47.2266 37.5 37.4805 47.2461 25.4297 47.2461Z" fill="black" fill-opacity="0.85"/>
  <path d="M17.3242 20.0391L19.2773 20.0391L19.2773 18.1641C19.2773 14.8242 21.875 12.3633 25.3516 12.3633C28.8281 12.3633 31.4453 14.8242 31.4453 18.1641L31.4453 20.0391L33.3789 20.0391L33.3789 18.1641C33.3789 13.7109 29.9414 10.4297 25.3516 10.4297C20.7617 10.4297 17.3242 13.7109 17.3242 18.1641ZM25.3516 26.0156C29.668 26.0156 33.457 24.3359 35.4883 19.9023C34.9805 19.6484 34.375 19.5312 33.6523 19.5312L17.0508 19.5312C16.3281 19.5312 15.7227 19.6484 15.2148 19.9023C17.2461 24.3359 21.0352 26.0156 25.3516 26.0156ZM38.5352 32.5586L37.4219 22.9297C37.3438 22.2461 37.1484 21.7188 36.8359 21.2695C34.8438 25.1758 31.5234 27.168 27.9102 27.7734L27.9102 28.6133C27.9102 29.4922 27.3828 30.0391 26.5039 30.0391L24.1992 30.0391C23.3203 30.0391 22.793 29.4922 22.793 28.6133L22.793 27.7734C19.1797 27.168 15.8594 25.1758 13.8672 21.2695C13.5742 21.7188 13.3789 22.2461 13.3008 22.9297L12.168 32.5586C11.7773 35.8398 13.2031 37.5781 16.2695 37.5781L34.4336 37.5781C37.5 37.5781 38.9258 35.8398 38.5352 32.5586Z" fill="black" fill-opacity="0.85"/>
 </g>
</svg>
