<?xml version="1.0" encoding="UTF-8"?>
<!--Generator: Apple Native CoreSVG 326-->
<!DOCTYPE svg
PUBLIC "-//W3C//DTD SVG 1.1//EN"
       "http://www.w3.org/Graphics/SVG/1.1/DTD/svg11.dtd">
<svg version="1.1" xmlns="http://www.w3.org/2000/svg" xmlns:xlink="http://www.w3.org/1999/xlink" viewBox="0 0 66.0228 52.826">
 <g>
  <rect height="52.826" opacity="0" width="66.0228" x="0" y="0"/>
  <path d="M20.9508 20.2118C20.9508 21.0321 20.2868 21.6962 19.4665 21.6962L6.12663 21.6962C5.30632 21.6962 4.64225 21.0321 4.64225 20.2118C4.64225 19.3915 5.30632 18.747 6.12663 18.747L19.4665 18.747C20.2868 18.747 20.9508 19.3915 20.9508 20.2118Z" fill="black" fill-opacity="0.85"/>
  <path d="M23.6664 12.4579L6.12663 12.4579C5.30632 12.4579 4.64225 11.7939 4.64225 10.9735C4.64225 10.1532 5.30632 9.50871 6.12663 9.50871L22.5971 9.50871Z" fill="black" fill-opacity="0.85"/>
  <path d="M25.6188 0.36808C24.1169 0.911735 22.9801 1.93358 22.3337 3.21964L6.12663 3.21964C5.30632 3.21964 4.64225 2.57511 4.64225 1.7548C4.64225 0.934486 5.30632 0.270424 6.12663 0.270424L25.9317 0.270424Z" fill="black" fill-opacity="0.85"/>
  <path d="M51.7712 47.7509C61.9274 44.0595 65.2868 35.8564 61.2633 24.8212L59.6813 20.4657C58.1774 16.3446 55.2673 14.5478 53.0016 15.3681C52.4938 15.5634 52.318 15.9345 52.4938 16.4032L53.2555 18.5126C53.568 19.372 53.2946 19.9579 52.7673 20.1532C52.2204 20.3485 51.6149 20.0751 51.3024 19.2353L50.7946 17.8095C49.8962 15.3681 47.7477 14.3329 45.6383 15.1142C44.6618 15.4657 44.3883 16.0126 44.6813 16.8329L45.7165 19.6454C46.0094 20.5048 45.736 21.0907 45.2282 21.286C44.6618 21.5009 44.0758 21.2275 43.7633 20.3681L42.8063 17.7509C41.8102 14.997 39.7204 14.2743 37.6696 15.036C36.7712 15.3485 36.4391 15.954 36.7321 16.7353L38.7048 22.204C39.0173 23.0634 38.7438 23.6493 38.2165 23.8446C37.6696 24.04 37.0641 23.7665 36.7516 22.9071L30.3063 5.21183C29.6813 3.45402 28.1579 2.75089 26.6735 3.27824C25.111 3.84464 24.4079 5.36808 25.0524 7.12589L34.3493 32.6532C34.5641 33.2782 34.2907 33.747 33.8805 33.9032C33.4899 34.04 33.0993 33.9228 32.611 33.415L26.1852 26.5595C25.2087 25.5439 24.2321 25.3095 23.1969 25.6806C21.5758 26.286 20.9899 27.7509 21.4782 29.0985C21.6735 29.6259 21.9469 30.0165 22.2204 30.3681L30.2868 40.5439C36.7126 48.6298 44.3688 50.4462 51.7712 47.7509Z" fill="black" fill-opacity="0.85"/>
 </g>
</svg>
