<?xml version="1.0" encoding="UTF-8"?>
<!--Generator: Apple Native CoreSVG 326-->
<!DOCTYPE svg
PUBLIC "-//W3C//DTD SVG 1.1//EN"
       "http://www.w3.org/Graphics/SVG/1.1/DTD/svg11.dtd">
<svg version="1.1" xmlns="http://www.w3.org/2000/svg" xmlns:xlink="http://www.w3.org/1999/xlink" viewBox="0 0 56.01 45.0699">
 <g>
  <rect height="45.0699" opacity="0" width="56.01" x="0" y="0"/>
  <path d="M6.2472 0.611136C3.61048 3.61895 1.34485 7.56426 0.0753226 11.8221C-0.491084 13.7361 2.30189 14.6736 2.94642 12.5447C4.09876 8.73614 6.14954 5.25957 8.51282 2.58379C9.97767 0.923636 7.71204-1.00996 6.2472 0.611136ZM6.2472 35.8455C7.71204 37.4861 9.97767 35.5525 8.51282 33.8729C6.14954 31.2166 4.09876 27.74 2.94642 23.951C2.30189 21.783-0.491084 22.7205 0.0753226 24.6736C1.34485 28.9119 3.61048 32.8572 6.2472 35.8455Z" fill="black" fill-opacity="0.85"/>
  <path d="M44.0988 42.9158C53.7081 39.4393 57.3995 29.2244 54.8409 19.6541L52.7902 11.9588C51.3839 6.74395 48.1222 5.61114 43.63 6.97832L44.9386 9.49785C48.2199 8.36504 49.4894 10.5525 49.8995 12.1346L52.0089 20.24C54.1378 28.4822 51.2667 37.0564 43.1613 40.0252C36.1105 42.5838 27.3605 40.9041 20.8566 34.0486L12.2238 24.9275C10.173 22.7791 12.6339 20.2205 15.1339 22.2322L19.4699 25.7088C22.4972 28.1307 24.8995 29.5564 27.6144 29.5564C32.5167 29.5564 35.1534 26.3924 35.1534 21.8025C35.1534 19.0291 33.4933 14.5369 31.6378 12.1346C29.9972 9.94707 28.0441 9.59551 24.6847 10.4354L18.6495 11.9002C15.798 12.5643 14.4894 8.69707 17.4581 7.85723L26.0324 5.43535C31.6769 3.83379 34.548 7.23223 37.5753 12.1541C38.4542 13.6189 40.798 12.6229 39.8995 10.9627C36.4034 4.51739 31.755 0.82598 25.1534 2.79864L16.1691 5.47442C10.3488 7.19317 12.2628 16.3143 19.8214 14.4783L25.798 13.033C27.3995 12.6619 28.337 12.7986 29.0792 13.7752C30.798 16.0994 32.3214 20.0252 32.3214 21.9979C32.3214 24.9471 30.7199 26.8025 27.1261 26.8025C25.2706 26.8025 23.6105 25.865 21.5206 24.0877L16.5988 19.9275C12.3995 16.3924 5.2511 21.5486 10.1925 26.8221L18.6105 35.8064C25.4464 43.1307 35.3488 46.0799 44.0988 42.9158ZM44.0988 11.0799C44.5284 12.5057 46.9113 12.1736 46.3644 10.3377C44.3722 3.4627 37.9269 2.95489 34.1964 4.94707L35.837 7.09551C38.4933 5.92364 42.7316 6.39239 44.0988 11.0799Z" fill="black" fill-opacity="0.85"/>
 </g>
</svg>
