<?xml version="1.0" encoding="UTF-8"?>
<!--Generator: Apple Native CoreSVG 326-->
<!DOCTYPE svg
PUBLIC "-//W3C//DTD SVG 1.1//EN"
       "http://www.w3.org/Graphics/SVG/1.1/DTD/svg11.dtd">
<svg version="1.1" xmlns="http://www.w3.org/2000/svg" xmlns:xlink="http://www.w3.org/1999/xlink" viewBox="0 0 64.9219 64.3945">
 <g>
  <rect height="64.3945" opacity="0" width="64.9219" x="0" y="0"/>
  <path d="M7.51953 8.30078C9.60938 10.332 15.0781 11.7969 20.8984 11.7969C22.2108 11.7969 23.5103 11.7198 24.7571 11.575C23.9159 12.2809 23.1573 13.0664 22.4805 13.9258C22.2119 14.263 21.9576 14.6098 21.7248 14.9715C21.4522 14.9782 21.1761 14.9805 20.8984 14.9805C15.0781 14.9805 9.94141 13.9844 7.42188 11.7773C6.32812 13.5352 5.91797 15.4883 5.91797 17.6758L5.91797 34.5312C5.91797 41.9683 9.62416 45.615 18.7194 46.0918C18.7264 47.2367 18.8139 48.3094 18.9807 49.3117C7.83126 48.8755 2.73438 44.4451 2.73438 34.8828L2.73438 17.5C2.73438 13.1055 4.00391 10.2539 5.54688 8.39844C6.07422 7.75391 6.91406 7.71484 7.51953 8.30078Z" fill="black" fill-opacity="0.425"/>
  <path d="M31.6211 5.97656C31.6211 7.73438 26.7578 9.00391 20.8984 9.00391C15.0195 9.00391 10.1758 7.73438 10.1758 5.97656C10.1758 4.17969 15.0195 2.92969 20.8984 2.92969C26.7578 2.92969 31.6211 4.17969 31.6211 5.97656Z" fill="black" fill-opacity="0.85"/>
  <path d="M41.8164 61.2695C55.5664 61.2695 61.8164 56.4453 61.8164 45.3711L61.8164 26.1914C61.8164 21.3477 60.4492 18.2031 58.75 16.1523C58.1641 15.4492 57.2656 15.4297 56.5625 16.0352C54.2773 18.2812 48.2422 19.9219 41.8164 19.9219C35.3906 19.9219 29.3555 18.2812 27.0508 16.0352C26.3672 15.4297 25.4688 15.4492 24.8828 16.1523C23.1836 18.2031 21.8164 21.3477 21.8164 26.1914L21.8164 45.3711C21.8164 56.4453 28.0469 61.2695 41.8164 61.2695ZM41.8164 57.8125C30 57.8125 25.2734 53.8477 25.2734 44.9805L25.2734 26.3672C25.2734 23.9648 25.7227 21.7578 26.9336 19.8438C29.7852 22.3047 35.332 23.3789 41.8164 23.3789C48.2812 23.3789 53.8477 22.3047 56.6992 19.8438C57.8906 21.7578 58.3594 23.9648 58.3594 26.3672L58.3594 44.9805C58.3594 53.8477 53.6328 57.8125 41.8164 57.8125Z" fill="black" fill-opacity="0.425"/>
  <path d="M41.8164 16.7969C48.2812 16.7969 53.6328 15.4102 53.6328 13.457C53.6328 11.4844 48.2812 10.0977 41.8164 10.0977C35.3516 10.0977 29.9805 11.4844 29.9805 13.457C29.9805 15.4102 35.3516 16.7969 41.8164 16.7969Z" fill="black" fill-opacity="0.85"/>
 </g>
</svg>
