<?xml version="1.0" encoding="UTF-8"?>
<!--Generator: Apple Native CoreSVG 326-->
<!DOCTYPE svg
PUBLIC "-//W3C//DTD SVG 1.1//EN"
       "http://www.w3.org/Graphics/SVG/1.1/DTD/svg11.dtd">
<svg version="1.1" xmlns="http://www.w3.org/2000/svg" xmlns:xlink="http://www.w3.org/1999/xlink" viewBox="0 0 55.5273 53.1055">
 <g>
  <rect height="53.1055" opacity="0" width="55.5273" x="0" y="0"/>
  <path d="M30.5273 0.839844L52.1094 13.3008C52.8906 13.75 53.2422 14.3164 53.2422 14.9609C53.2422 15.8398 52.5781 16.6797 51.3867 16.6797L49.1211 16.6797L49.1211 46.5039L50.7227 46.5039C51.582 46.5039 52.0898 47.0117 52.0898 47.8516L52.0898 49.6094L53.418 49.6094C54.375 49.6094 55.1562 50.3906 55.1562 51.3477C55.1562 52.2852 54.375 53.0664 53.418 53.0664L1.73828 53.0664C0.78125 53.0664 0 52.2852 0 51.3477C0 50.3906 0.78125 49.6094 1.73828 49.6094L3.06641 49.6094L3.06641 47.8516C3.06641 47.0117 3.57422 46.5039 4.45312 46.5039L6.05469 46.5039L6.05469 16.6797L3.76953 16.6797C2.57812 16.6797 1.91406 15.8398 1.91406 14.9609C1.91406 14.3164 2.24609 13.75 3.04688 13.3008L24.6289 0.839844C25.5664 0.292969 26.6016 0 27.5781 0C28.5547 0 29.5703 0.292969 30.5273 0.839844ZM20.3711 17.1875C19.7852 17.1875 19.4336 17.5977 19.4336 18.2422L19.4336 18.3984C19.4336 19.0234 19.7852 19.4336 20.3711 19.4336L24.668 19.4336C27.3047 19.4336 29.4141 20.5273 29.7656 23.1641L20.2539 23.1641C19.8242 23.1641 19.4531 23.5156 19.4531 23.9453C19.4531 24.375 19.8242 24.7266 20.2539 24.7266L29.7461 24.7266C29.4141 27.4414 27.2852 28.418 24.5703 28.418L20.918 28.418C20.0586 28.418 19.4922 28.9648 19.4922 29.7266L19.4922 29.8047C19.4922 30.4688 19.7852 30.8789 20.3125 31.3477L29.3359 39.7656C29.7266 40.1367 30.0586 40.4297 30.6445 40.4297C31.3281 40.4297 31.8359 39.8633 31.8359 39.2383C31.8359 38.7891 31.6016 38.4766 31.2695 38.1641L23.2422 30.6836L24.8047 30.6836C28.8086 30.6836 32.0117 28.6914 32.5 24.7266L34.5703 24.7266C35.0195 24.7266 35.3711 24.375 35.3711 23.9453C35.3711 23.5156 35.0195 23.1641 34.5703 23.1641L32.5586 23.1641C32.4023 21.4648 31.6992 19.8242 30.2734 18.7695L34.5703 18.7695C35.0195 18.7695 35.3711 18.418 35.3711 17.9883C35.3711 17.5195 35.0195 17.1875 34.5703 17.1875Z" fill="black" fill-opacity="0.85"/>
 </g>
</svg>
