<?xml version="1.0" encoding="UTF-8"?>
<!--Generator: Apple Native CoreSVG 326-->
<!DOCTYPE svg
PUBLIC "-//W3C//DTD SVG 1.1//EN"
       "http://www.w3.org/Graphics/SVG/1.1/DTD/svg11.dtd">
<svg version="1.1" xmlns="http://www.w3.org/2000/svg" xmlns:xlink="http://www.w3.org/1999/xlink" viewBox="0 0 63.9844 48.0273">
 <g>
  <rect height="48.0273" opacity="0" width="63.9844" x="0" y="0"/>
  <path d="M0 24.0039C0 37.9492 13.1836 48.0273 31.8164 48.0273C50.4297 48.0273 63.6133 37.9492 63.6133 24.0039C63.6133 10.0586 50.4297 0 31.8164 0C13.1836 0 0 10.0586 0 24.0039ZM3.45703 24.0039C3.45703 12.1094 15.2148 3.47656 31.8164 3.47656C48.3984 3.47656 60.1562 12.1094 60.1562 24.0039C60.1562 35.918 48.3984 44.5508 31.8164 44.5508C15.2148 44.5508 3.45703 35.918 3.45703 24.0039Z" fill="black" fill-opacity="0.85"/>
  <path d="M6.77734 24.0039C6.77734 33.9844 17.1094 41.25 31.8164 41.25C46.5039 41.25 56.8359 33.9844 56.8359 24.0039C56.8359 14.0234 46.4844 6.77734 31.8164 6.77734C17.1289 6.77734 6.77734 14.0234 6.77734 24.0039Z" fill="black" fill-opacity="0.85"/>
 </g>
</svg>
