<?xml version="1.0" encoding="UTF-8"?>
<!--Generator: Apple Native CoreSVG 326-->
<!DOCTYPE svg
PUBLIC "-//W3C//DTD SVG 1.1//EN"
       "http://www.w3.org/Graphics/SVG/1.1/DTD/svg11.dtd">
<svg version="1.1" xmlns="http://www.w3.org/2000/svg" xmlns:xlink="http://www.w3.org/1999/xlink" viewBox="0 0 57.9883 41.6992">
 <g>
  <rect height="41.6992" opacity="0" width="57.9883" x="0" y="0"/>
  <path d="M21.5234 34.5508L21.5234 29.2383C21.5234 28.4961 22.1094 27.9102 22.8711 27.9102C23.6133 27.9102 24.2188 28.4961 24.2188 29.2383L24.2188 34.5508C24.2188 35.3125 23.6133 35.918 22.8711 35.918C22.1094 35.918 21.5234 35.3125 21.5234 34.5508ZM27.4414 34.5508L27.4414 29.2383C27.4414 28.4961 28.0469 27.9102 28.8086 27.9102C29.5508 27.9102 30.1562 28.4961 30.1562 29.2383L30.1562 34.5508C30.1562 35.3125 29.5508 35.918 28.8086 35.918C28.0469 35.918 27.4414 35.3125 27.4414 34.5508ZM33.3789 34.5508L33.3789 29.2383C33.3789 28.4961 33.9648 27.9102 34.7266 27.9102C35.4883 27.9102 36.0742 28.4961 36.0742 29.2383L36.0742 34.5508C36.0742 35.3125 35.4883 35.918 34.7266 35.918C33.9648 35.918 33.3789 35.3125 33.3789 34.5508ZM39.2969 34.5508L39.2969 29.2383C39.2969 28.4961 39.9023 27.9102 40.6641 27.9102C41.4062 27.9102 42.0117 28.4961 42.0117 29.2383L42.0117 34.5508C42.0117 35.3125 41.4062 35.918 40.6641 35.918C39.9023 35.918 39.2969 35.3125 39.2969 34.5508ZM45.2539 34.5508L45.2539 29.2383C45.2539 28.4961 45.8398 27.9102 46.6211 27.9102C47.3633 27.9102 47.9297 28.4961 47.9297 29.2383L47.9297 34.5508C47.9297 35.3125 47.3633 35.918 46.6211 35.918C45.8398 35.918 45.2539 35.3125 45.2539 34.5508ZM9.84375 41.6992L47.7734 41.6992C53.5156 41.6992 57.6172 37.6172 57.6172 31.9141C57.6172 26.2305 53.5156 22.1289 47.7734 22.1289L9.84375 22.1289C4.10156 22.1289 0 26.2305 0 31.9141C0 37.6172 4.10156 41.6992 9.84375 41.6992ZM9.84375 19.0039L47.7734 19.0039C50.0977 19.0039 52.207 19.5508 54.043 20.5078L47.6758 5.60547C46.1523 1.97266 43.0664 0.0390625 38.9453 0.0390625L18.6719 0.0390625C14.5508 0.0390625 11.4453 1.97266 9.94141 5.60547L3.55469 20.5078C5.39062 19.5508 7.51953 19.0039 9.84375 19.0039Z" fill="black" fill-opacity="0.85"/>
 </g>
</svg>
