<?xml version="1.0" encoding="UTF-8"?>
<!--Generator: Apple Native CoreSVG 326-->
<!DOCTYPE svg
PUBLIC "-//W3C//DTD SVG 1.1//EN"
       "http://www.w3.org/Graphics/SVG/1.1/DTD/svg11.dtd">
<svg version="1.1" xmlns="http://www.w3.org/2000/svg" xmlns:xlink="http://www.w3.org/1999/xlink" viewBox="0 0 51.25 50.918">
 <g>
  <rect height="50.918" opacity="0" width="51.25" x="0" y="0"/>
  <path d="M50.8789 25.4492C50.8789 39.4922 39.4727 50.8789 25.4297 50.8789C11.3867 50.8789 0 39.4922 0 25.4492C0 11.4062 11.3867 0 25.4297 0C39.4727 0 50.8789 11.4062 50.8789 25.4492ZM3.63281 25.4492C3.63281 37.5 13.3789 47.2461 25.4297 47.2461C37.4805 47.2461 47.2266 37.5 47.2266 25.4492C47.2266 13.3984 37.4805 3.65234 25.4297 3.65234C13.3789 3.65234 3.63281 13.3984 3.63281 25.4492Z" fill="black" fill-opacity="0.85"/>
  <path d="M18.0859 21.9141L18.0859 36.4258L32.5977 36.4258L34.8412 38.6693C34.4108 40.4245 32.9638 41.4844 30.8594 41.4844L20 41.4844C17.4609 41.4844 15.8789 39.9414 15.8789 37.5L15.8789 19.707ZM24.1992 38.6914C24.1992 39.3945 24.7656 39.9609 25.4492 39.9609C26.1328 39.9609 26.6602 39.3945 26.6602 38.6914C26.6602 38.0273 26.1328 37.4609 25.4492 37.4609C24.7656 37.4609 24.1992 38.0273 24.1992 38.6914ZM34.9805 13.3984L34.9805 31.1489L32.7734 28.94L32.7734 14.4727L18.318 14.4727L16.0288 12.1815C16.4745 10.4552 17.9144 9.41406 20 9.41406L30.8594 9.41406C33.3984 9.41406 34.9805 10.957 34.9805 13.3984ZM23.2227 11.4062C22.8906 11.4062 22.6172 11.6602 22.6172 12.0312C22.6172 12.3828 22.8906 12.6367 23.2227 12.6367L27.6367 12.6367C27.9883 12.6367 28.2422 12.3828 28.2422 12.0312C28.2422 11.6602 27.9883 11.4062 27.6367 11.4062Z" fill="black" fill-opacity="0.85"/>
  <path d="M36.5625 37.9883C36.9531 38.3984 37.6172 38.3984 38.0273 37.9883C38.4375 37.5781 38.4375 36.9531 38.0273 36.5234L14.375 12.8711C13.9648 12.4609 13.3008 12.4609 12.8906 12.8711C12.4805 13.2812 12.5 13.9453 12.8906 14.3359Z" fill="black" fill-opacity="0.85"/>
 </g>
</svg>
