<?xml version="1.0" encoding="UTF-8"?>
<!--Generator: Apple Native CoreSVG 326-->
<!DOCTYPE svg
PUBLIC "-//W3C//DTD SVG 1.1//EN"
       "http://www.w3.org/Graphics/SVG/1.1/DTD/svg11.dtd">
<svg version="1.1" xmlns="http://www.w3.org/2000/svg" xmlns:xlink="http://www.w3.org/1999/xlink" viewBox="0 0 51.25 50.918">
 <g>
  <rect height="50.918" opacity="0" width="51.25" x="0" y="0"/>
  <path d="M36.875 45.4688L40.0391 45.4688L40.0391 19.2383C40.0391 15.5469 37.6367 13.2227 33.8281 13.2227L17.0117 13.2227C13.1836 13.2227 10.8008 15.5469 10.8008 19.2383L10.8008 45.4688L13.9648 45.4688L13.9648 19.707C13.9648 17.5195 15.1367 16.3867 17.3828 16.3867L33.4375 16.3867C35.7031 16.3867 36.875 17.5195 36.875 19.707ZM22.6367 20.918L28.2031 20.918C29.043 20.918 29.6875 20.2734 29.6875 19.4336C29.6875 18.5938 29.043 17.9492 28.2031 17.9492L22.6367 17.9492C21.7773 17.9492 21.1523 18.5938 21.1523 19.4336C21.1523 20.2734 21.7773 20.918 22.6367 20.918ZM25.4297 50.8789C39.4727 50.8789 50.8789 39.4922 50.8789 25.4492C50.8789 11.4062 39.4727 0 25.4297 0C11.3867 0 0 11.4062 0 25.4492C0 39.4922 11.3867 50.8789 25.4297 50.8789ZM25.4297 47.2461C13.3789 47.2461 3.63281 37.5 3.63281 25.4492C3.63281 13.3984 13.3789 3.65234 25.4297 3.65234C37.4805 3.65234 47.2266 13.3984 47.2266 25.4492C47.2266 37.5 37.4805 47.2461 25.4297 47.2461Z" fill="black" fill-opacity="0.85"/>
 </g>
</svg>
