<?xml version="1.0" encoding="UTF-8"?>
<!--Generator: Apple Native CoreSVG 326-->
<!DOCTYPE svg
PUBLIC "-//W3C//DTD SVG 1.1//EN"
       "http://www.w3.org/Graphics/SVG/1.1/DTD/svg11.dtd">
<svg version="1.1" xmlns="http://www.w3.org/2000/svg" xmlns:xlink="http://www.w3.org/1999/xlink" viewBox="0 0 51.25 50.918">
 <g>
  <rect height="50.918" opacity="0" width="51.25" x="0" y="0"/>
  <path d="M25.4297 50.8789C39.4727 50.8789 50.8789 39.4922 50.8789 25.4492C50.8789 11.4062 39.4727 0 25.4297 0C11.3867 0 0 11.4062 0 25.4492C0 39.4922 11.3867 50.8789 25.4297 50.8789ZM25.4297 47.2461C13.3789 47.2461 3.63281 37.5 3.63281 25.4492C3.63281 13.3984 13.3789 3.65234 25.4297 3.65234C37.4805 3.65234 47.2266 13.3984 47.2266 25.4492C47.2266 37.5 37.4805 47.2461 25.4297 47.2461Z" fill="black" fill-opacity="0.85"/>
  <path d="M20.0195 41.4844L30.8398 41.4844C33.3594 41.4844 34.9805 39.9414 34.9805 37.4609L34.9805 13.4375C34.9805 10.957 33.3594 9.39453 30.8398 9.39453L20.0195 9.39453C17.4805 9.39453 15.8789 10.957 15.8789 13.4375L15.8789 37.4609C15.8789 39.9414 17.4805 41.4844 20.0195 41.4844ZM20.2734 39.2969C18.8086 39.2969 18.0664 38.5742 18.0664 37.1875L18.0664 13.7109C18.0664 12.3047 18.8086 11.582 20.2734 11.582L30.5859 11.582C32.0508 11.582 32.793 12.3047 32.793 13.7109L32.793 37.1875C32.793 38.5742 32.0508 39.2969 30.5859 39.2969ZM22.2852 38.2227L28.5938 38.2227C29.0039 38.2227 29.2969 37.9492 29.2969 37.5391C29.2969 37.1094 29.0039 36.7969 28.5938 36.7969L22.2852 36.7969C21.8555 36.7969 21.5625 37.1094 21.5625 37.5391C21.5625 37.9492 21.8555 38.2227 22.2852 38.2227ZM23.5742 14.9023L27.2656 14.9023C27.8516 14.9023 28.2812 14.4531 28.2812 13.8867C28.2812 13.3203 27.8516 12.8711 27.2656 12.8711L23.5742 12.8711C22.9883 12.8711 22.5586 13.3203 22.5586 13.8867C22.5586 14.4531 22.9883 14.9023 23.5742 14.9023Z" fill="black" fill-opacity="0.85"/>
 </g>
</svg>
