<?xml version="1.0" encoding="UTF-8"?>
<!--Generator: Apple Native CoreSVG 326-->
<!DOCTYPE svg
PUBLIC "-//W3C//DTD SVG 1.1//EN"
       "http://www.w3.org/Graphics/SVG/1.1/DTD/svg11.dtd">
<svg version="1.1" xmlns="http://www.w3.org/2000/svg" xmlns:xlink="http://www.w3.org/1999/xlink" viewBox="0 0 51.25 50.918">
 <g>
  <rect height="50.918" opacity="0" width="51.25" x="0" y="0"/>
  <path d="M50.8789 25.4688C50.8789 39.4922 39.4531 50.918 25.4297 50.918C11.4258 50.918 0 39.4922 0 25.4688C0 11.4648 11.4258 0.0390625 25.4297 0.0390625C39.4531 0.0390625 50.8789 11.4648 50.8789 25.4688ZM15.6445 37.8125C15.6445 40.332 17.2656 41.9141 19.8633 41.9141L30.9961 41.9141C33.1588 41.9141 34.628 40.8338 35.07 39.0348L32.7539 36.7187L17.9102 36.7188L17.9102 21.875L15.6445 19.6094ZM26.6992 39.043C26.6992 39.7656 26.1523 40.332 25.4492 40.332C24.7461 40.332 24.1602 39.7656 24.1602 39.043C24.1602 38.3594 24.7461 37.7734 25.4492 37.7734C26.1523 37.7734 26.6992 38.3594 26.6992 39.043ZM12.5586 12.5977C12.1484 13.0273 12.168 13.7109 12.5586 14.1016L36.8164 38.3398C37.207 38.75 37.9102 38.75 38.3203 38.3398C38.7305 37.8906 38.7305 37.2461 38.3203 36.8359L14.082 12.5977C13.6719 12.168 13.0078 12.168 12.5586 12.5977ZM19.8633 9.04297C17.7349 9.04297 16.2621 10.105 15.8012 11.8758L18.1813 14.2578L32.9492 14.2578L32.9492 29.0377L35.2148 31.3051L35.2148 13.1445C35.2148 10.625 33.6133 9.04297 30.9961 9.04297ZM28.3203 11.7578C28.3203 12.0898 28.0469 12.3828 27.6953 12.3828L23.1641 12.3828C22.832 12.3828 22.5391 12.0898 22.5391 11.7578C22.5391 11.3672 22.832 11.1133 23.1641 11.1133L27.6953 11.1133C28.0469 11.1133 28.3203 11.3672 28.3203 11.7578Z" fill="black" fill-opacity="0.85"/>
 </g>
</svg>
