<?xml version="1.0" encoding="UTF-8"?>
<!--Generator: Apple Native CoreSVG 326-->
<!DOCTYPE svg
PUBLIC "-//W3C//DTD SVG 1.1//EN"
       "http://www.w3.org/Graphics/SVG/1.1/DTD/svg11.dtd">
<svg version="1.1" xmlns="http://www.w3.org/2000/svg" xmlns:xlink="http://www.w3.org/1999/xlink" viewBox="0 0 57.6367 43.3008">
 <g>
  <rect height="43.3008" opacity="0" width="57.6367" x="0" y="0"/>
  <path d="M57.2656 19.9805L57.2656 35.918C57.2656 40.7617 54.7461 43.2617 49.8633 43.2617L7.42188 43.2617C2.51953 43.2617 0 40.7812 0 35.918L0 19.9805C0 6.62109 6.21094 0 20.4883 0L36.7773 0C51.0742 0 57.2656 6.62109 57.2656 19.9805ZM16.9922 12.5586L16.9922 30.3906C16.9922 31.4648 17.5977 32.1289 18.6133 32.1289L26.1523 32.1289C26.8945 32.1289 27.5391 31.4844 27.5391 30.7227C27.5391 29.9805 26.8945 29.3359 26.1523 29.3359L20.293 29.3359L20.293 12.5586C20.293 11.6602 19.5312 10.918 18.6523 10.918C17.7344 10.918 16.9922 11.6602 16.9922 12.5586ZM29.668 16.1719C29.668 16.9727 30.1562 17.5977 31.0547 17.5977C31.8164 17.5977 32.2656 17.2266 32.5 16.5039C32.9492 14.6094 33.6719 13.3594 35.293 13.3594C37.0312 13.3594 37.9297 14.9414 37.9297 16.8359C37.9297 18.8672 36.6406 20.8594 35.2344 22.7539L30.4688 28.9648C30.0391 29.5117 29.6484 30.0781 29.6484 30.7617C29.6484 31.543 30.1562 32.1094 31.1914 32.1094L40.1367 32.1094C40.9375 32.1094 41.4453 31.5625 41.4453 30.7617C41.4453 29.9219 40.918 29.4141 40.1367 29.4141L33.7109 29.4141L33.7109 29.2188L37.7539 23.9453C40.1953 20.8203 41.0156 18.9258 41.0156 16.6797C41.0156 13.2422 38.7891 10.7031 35.3125 10.7031C32.0703 10.7031 29.668 13.457 29.668 16.1719Z" fill="black" fill-opacity="0.85"/>
 </g>
</svg>
