<?xml version="1.0" encoding="UTF-8"?>
<!--Generator: Apple Native CoreSVG 326-->
<!DOCTYPE svg
PUBLIC "-//W3C//DTD SVG 1.1//EN"
       "http://www.w3.org/Graphics/SVG/1.1/DTD/svg11.dtd">
<svg version="1.1" xmlns="http://www.w3.org/2000/svg" xmlns:xlink="http://www.w3.org/1999/xlink" viewBox="0 0 71.7383 55.8252">
 <g>
  <rect height="55.8252" opacity="0" width="71.7383" x="0" y="0"/>
  <path d="M12.9525 11.5048C12.0145 11.8554 11.543 12.6754 11.543 13.9771L11.543 42.8247L44.2334 42.8247L49.4222 48.02L2.55859 48.02C1.13281 48.02 0 46.8677 0 45.4224C0 43.9771 1.13281 42.8247 2.55859 42.8247L8.08594 42.8247L8.08594 13.0591C8.08594 10.9744 8.81149 9.50023 10.1183 8.66709ZM63.2812 13.0591L63.2812 42.8247L68.8086 42.8247C70.2344 42.8247 71.3672 43.9771 71.3672 45.4224C71.3672 46.8677 70.2344 48.02 68.8086 48.02L61.8557 48.02L56.6647 42.8247L59.8242 42.8247L59.8242 13.9771C59.8242 12.1802 58.9258 11.3013 57.1484 11.3013L25.1675 11.3013L21.7134 7.84425L58.0273 7.84425C61.4648 7.84425 63.2812 9.62159 63.2812 13.0591Z" fill="black" fill-opacity="0.85"/>
  <path d="M57.8711 52.6099C58.5156 53.2739 59.5898 53.2739 60.2344 52.6099C60.8789 51.9653 60.8984 50.9107 60.2539 50.2661L13.3008 3.27394C12.6758 2.6294 11.6211 2.59034 10.9375 3.27394C10.293 3.91847 10.293 4.99269 10.9375 5.63722Z" fill="black" fill-opacity="0.85"/>
 </g>
</svg>
