<?xml version="1.0" encoding="UTF-8"?>
<!--Generator: Apple Native CoreSVG 326-->
<!DOCTYPE svg
PUBLIC "-//W3C//DTD SVG 1.1//EN"
       "http://www.w3.org/Graphics/SVG/1.1/DTD/svg11.dtd">
<svg version="1.1" xmlns="http://www.w3.org/2000/svg" xmlns:xlink="http://www.w3.org/1999/xlink" viewBox="0 0 51.25 50.918">
 <g>
  <rect height="50.918" opacity="0" width="51.25" x="0" y="0"/>
  <path d="M50.8789 25.4492C50.8789 39.4531 39.4531 50.8789 25.4297 50.8789C11.4258 50.8789 0 39.4531 0 25.4492C0 11.4258 11.4258 0 25.4297 0C39.4531 0 50.8789 11.4258 50.8789 25.4492ZM27.4414 11.8945L27.4414 14.3164C26.8359 14.2188 26.2109 14.1797 25.5859 14.1797C25 14.1797 24.4141 14.2188 23.8281 14.2969L23.8281 11.8945C23.8281 11.4453 23.4961 11.1133 23.0273 11.1133C22.5781 11.1133 22.2461 11.4453 22.2461 11.8945L22.2461 14.6289C17.793 15.8594 14.707 19.5703 14.707 24.4141C14.707 28.7109 16.9336 32.7344 20.7617 34.5117L20.7617 34.6094L15.8789 34.6094C15.1953 34.6094 14.7266 35.0195 14.7266 35.6836C14.7266 36.3281 15.1953 36.7969 15.8789 36.7969L33.457 36.7969C34.1406 36.7969 34.6289 36.3281 34.6289 35.6836C34.6289 35.0195 34.1406 34.5898 33.457 34.5898L27.6367 34.5898C21.5039 34.5898 17.3438 30.0977 17.3438 24.8438C17.3438 20.957 19.3164 18.2617 22.2461 17.1484L22.2461 24.0039C22.2461 24.4727 22.5781 24.8047 23.0273 24.8047C23.4961 24.8047 23.8281 24.4727 23.8281 24.0039L23.8281 16.6797C24.4141 16.6016 25 16.5234 25.5859 16.5234C26.2305 16.5234 26.8359 16.6016 27.4414 16.7188L27.4414 24.0039C27.4414 24.4727 27.793 24.8047 28.2227 24.8047C28.6914 24.8047 29.043 24.4727 29.043 24.0039L29.043 17.207C31.7773 18.3008 33.6719 20.7422 33.7695 23.7695C33.7891 24.5703 34.2578 25.1172 35.0195 25.1172C35.7812 25.1172 36.2695 24.5508 36.2695 23.7695C36.2305 19.3359 33.0859 15.918 29.043 14.6875L29.043 11.8945C29.043 11.4453 28.6914 11.1133 28.2227 11.1133C27.793 11.1133 27.4414 11.4453 27.4414 11.8945Z" fill="black" fill-opacity="0.85"/>
 </g>
</svg>
