<?xml version="1.0" encoding="UTF-8"?>
<!--Generator: Apple Native CoreSVG 326-->
<!DOCTYPE svg
PUBLIC "-//W3C//DTD SVG 1.1//EN"
       "http://www.w3.org/Graphics/SVG/1.1/DTD/svg11.dtd">
<svg version="1.1" xmlns="http://www.w3.org/2000/svg" xmlns:xlink="http://www.w3.org/1999/xlink" viewBox="0 0 55.5273 53.1055">
 <g>
  <rect height="53.1055" opacity="0" width="55.5273" x="0" y="0"/>
  <path d="M3.06641 47.6758L52.0898 47.6758L52.0898 46.1719C52.0898 45.332 51.582 44.8242 50.7227 44.8242L49.1211 44.8242L49.1211 16.6797L51.3867 16.6797C52.5781 16.6797 53.2422 15.8398 53.2422 14.9609C53.2422 14.3164 52.8906 13.75 52.1094 13.3008L30.5273 0.839844C29.5703 0.292969 28.5547 0 27.5781 0C26.6016 0 25.5664 0.292969 24.6289 0.839844L3.04688 13.3008C2.24609 13.75 1.91406 14.3164 1.91406 14.9609C1.91406 15.8398 2.57812 16.6797 3.76953 16.6797L6.05469 16.6797L6.05469 44.8242L4.45312 44.8242C3.57422 44.8242 3.06641 45.332 3.06641 46.1719ZM9.31641 44.8242L9.31641 13.7109L26.4453 4.0625C26.7773 3.86719 27.1875 3.75 27.5781 3.75C27.9492 3.75 28.3398 3.86719 28.7109 4.0625L45.8594 13.7109L45.8594 44.8242ZM1.73828 53.0664L53.418 53.0664C54.375 53.0664 55.1562 52.2852 55.1562 51.3477C55.1562 50.3906 54.375 49.6094 53.418 49.6094L1.73828 49.6094C0.78125 49.6094 0 50.3906 0 51.3477C0 52.2852 0.78125 53.0664 1.73828 53.0664Z" fill="black" fill-opacity="0.85"/>
  <path d="M18.2812 37.4414L35.4297 37.4414C36.0742 37.4414 36.543 36.9922 36.543 36.3672C36.543 35.7422 36.0742 35.293 35.4297 35.293L29.7461 35.293C23.75 35.293 19.668 30.918 19.668 25.7812C19.668 20.6641 23.2227 17.6758 27.7539 17.6758C32.1484 17.6758 35.6055 20.6836 35.7227 24.7461C35.7422 25.5078 36.2109 26.0352 36.9531 26.0352C37.6758 26.0352 38.1641 25.4883 38.1641 24.7461C38.1055 19.2578 33.1836 15.3906 27.7539 15.3906C21.7383 15.3906 17.1484 19.5312 17.1484 25.3711C17.1484 29.5703 19.3164 33.4961 23.0469 35.2148L23.0469 35.3125L18.2812 35.3125C17.6172 35.3125 17.168 35.7422 17.168 36.3672C17.168 36.9922 17.6172 37.4414 18.2812 37.4414ZM25.2344 25.7422C25.7031 25.7422 26.0156 25.4102 26.0156 24.9609L26.0156 13.1641C26.0156 12.7344 25.7031 12.4023 25.2344 12.4023C24.8047 12.4023 24.4727 12.7344 24.4727 13.1641L24.4727 24.9609C24.4727 25.4102 24.8047 25.7422 25.2344 25.7422ZM30.3125 25.7422C30.7812 25.7422 31.0938 25.4102 31.0938 24.9609L31.0938 13.1641C31.0938 12.7344 30.7812 12.4023 30.3125 12.4023C29.8828 12.4023 29.5508 12.7344 29.5508 13.1641L29.5508 24.9609C29.5508 25.4102 29.8828 25.7422 30.3125 25.7422Z" fill="black" fill-opacity="0.85"/>
 </g>
</svg>
