<?xml version="1.0" encoding="UTF-8"?>
<!--Generator: Apple Native CoreSVG 326-->
<!DOCTYPE svg
PUBLIC "-//W3C//DTD SVG 1.1//EN"
       "http://www.w3.org/Graphics/SVG/1.1/DTD/svg11.dtd">
<svg version="1.1" xmlns="http://www.w3.org/2000/svg" xmlns:xlink="http://www.w3.org/1999/xlink" viewBox="0 0 62.9688 36.3867">
 <g>
  <rect height="36.3867" opacity="0" width="62.9688" x="0" y="0"/>
  <path d="M26.3086 35.0586L60.8398 35.0586C61.8359 35.0586 62.5977 34.2969 62.5977 33.3203C62.5977 32.3438 61.8359 31.6016 60.8398 31.6016L26.3086 31.6016C25.3125 31.6016 24.5703 32.3438 24.5703 33.3203C24.5703 34.2969 25.3125 35.0586 26.3086 35.0586Z" fill="black" fill-opacity="0.85"/>
  <path d="M15.4297 36.3867C17.1289 36.3867 18.4961 35.0195 18.4961 33.3203C18.4961 31.6211 17.1289 30.2539 15.4297 30.2539C13.7305 30.2539 12.3633 31.6211 12.3633 33.3203C12.3633 35.0195 13.7305 36.3867 15.4297 36.3867Z" fill="black" fill-opacity="0.85"/>
  <path d="M20.1172 19.9219L54.668 19.9219C55.6445 19.9219 56.4062 19.1797 56.4062 18.2031C56.4062 17.2266 55.6445 16.4648 54.668 16.4648L20.1172 16.4648C19.1406 16.4648 18.3789 17.2266 18.3789 18.2031C18.3789 19.1797 19.1406 19.9219 20.1172 19.9219Z" fill="black" fill-opacity="0.85"/>
  <path d="M9.25781 21.2695C10.957 21.2695 12.3242 19.9023 12.3242 18.2031C12.3242 16.5039 10.957 15.1367 9.25781 15.1367C7.55859 15.1367 6.19141 16.5039 6.19141 18.2031C6.19141 19.9023 7.55859 21.2695 9.25781 21.2695Z" fill="black" fill-opacity="0.85"/>
  <path d="M13.9258 4.80469L48.4766 4.80469C49.4531 4.80469 50.2344 4.04297 50.2344 3.06641C50.2344 2.08984 49.4531 1.34766 48.4766 1.34766L13.9258 1.34766C12.9492 1.34766 12.207 2.08984 12.207 3.06641C12.207 4.04297 12.9492 4.80469 13.9258 4.80469Z" fill="black" fill-opacity="0.85"/>
  <path d="M3.06641 6.13281C4.76562 6.13281 6.13281 4.76562 6.13281 3.06641C6.13281 1.36719 4.76562 0 3.06641 0C1.36719 0 0 1.36719 0 3.06641C0 4.76562 1.36719 6.13281 3.06641 6.13281Z" fill="black" fill-opacity="0.85"/>
 </g>
</svg>
