<?xml version="1.0" encoding="UTF-8"?>
<!--Generator: Apple Native CoreSVG 326-->
<!DOCTYPE svg
PUBLIC "-//W3C//DTD SVG 1.1//EN"
       "http://www.w3.org/Graphics/SVG/1.1/DTD/svg11.dtd">
<svg version="1.1" xmlns="http://www.w3.org/2000/svg" xmlns:xlink="http://www.w3.org/1999/xlink" viewBox="0 0 55.957 55.5664">
 <g>
  <rect height="55.5664" opacity="0" width="55.957" x="0" y="0"/>
  <path d="M27.793 2.44141C28.4766 2.44141 29.0039 1.91406 29.0039 1.21094C29.0039 0.527344 28.4766 0 27.793 0C27.1094 0 26.5625 0.527344 26.5625 1.21094C26.5625 1.91406 27.1094 2.44141 27.793 2.44141ZM32.4219 2.85156C33.1055 2.85156 33.6328 2.32422 33.6328 1.64062C33.6328 0.957031 33.1055 0.410156 32.4219 0.410156C31.7383 0.410156 31.1914 0.957031 31.1914 1.64062C31.1914 2.32422 31.7383 2.85156 32.4219 2.85156ZM36.875 4.04297C37.5586 4.04297 38.1055 3.51562 38.1055 2.83203C38.1055 2.14844 37.5586 1.60156 36.875 1.60156C36.1914 1.60156 35.6641 2.14844 35.6641 2.83203C35.6641 3.51562 36.1914 4.04297 36.875 4.04297ZM41.0938 6.03516C41.7773 6.03516 42.3047 5.50781 42.3047 4.82422C42.3047 4.14062 41.7773 3.59375 41.0938 3.59375C40.4102 3.59375 39.8633 4.14062 39.8633 4.82422C39.8633 5.50781 40.4102 6.03516 41.0938 6.03516ZM44.8828 8.69141C45.5664 8.69141 46.1133 8.14453 46.1133 7.46094C46.1133 6.77734 45.5664 6.25 44.8828 6.25C44.1992 6.25 43.6523 6.77734 43.6523 7.46094C43.6523 8.14453 44.1992 8.69141 44.8828 8.69141ZM48.1641 11.9531C48.8477 11.9531 49.3945 11.4258 49.3945 10.7422C49.3945 10.0586 48.8477 9.51172 48.1641 9.51172C47.4805 9.51172 46.9531 10.0586 46.9531 10.7422C46.9531 11.4258 47.4805 11.9531 48.1641 11.9531ZM50.8203 15.7617C51.5039 15.7617 52.0508 15.2344 52.0508 14.5508C52.0508 13.8672 51.5039 13.3203 50.8203 13.3203C50.1367 13.3203 49.6094 13.8672 49.6094 14.5508C49.6094 15.2344 50.1367 15.7617 50.8203 15.7617ZM52.7734 19.9609C53.457 19.9609 54.0039 19.4141 54.0039 18.7305C54.0039 18.0469 53.457 17.5195 52.7734 17.5195C52.0898 17.5195 51.543 18.0469 51.543 18.7305C51.543 19.4141 52.0898 19.9609 52.7734 19.9609ZM53.9648 24.4141C54.6484 24.4141 55.1953 23.8867 55.1953 23.1836C55.1953 22.5 54.6484 21.9727 53.9648 21.9727C53.2812 21.9727 52.7344 22.5 52.7344 23.1836C52.7344 23.8867 53.2812 24.4141 53.9648 24.4141ZM54.3555 28.9844C55.0391 28.9844 55.5859 28.457 55.5859 27.7734C55.5859 27.0898 55.0391 26.543 54.3555 26.543C53.6719 26.543 53.1445 27.0898 53.1445 27.7734C53.1445 28.457 53.6719 28.9844 54.3555 28.9844ZM53.9648 33.5547C54.6484 33.5547 55.1953 33.0273 55.1953 32.3438C55.1953 31.6602 54.6484 31.1133 53.9648 31.1133C53.2812 31.1133 52.7344 31.6602 52.7344 32.3438C52.7344 33.0273 53.2812 33.5547 53.9648 33.5547ZM52.7734 38.0273C53.457 38.0273 54.0039 37.4805 54.0039 36.7969C54.0039 36.1133 53.457 35.5664 52.7734 35.5664C52.0898 35.5664 51.543 36.1133 51.543 36.7969C51.543 37.4805 52.0898 38.0273 52.7734 38.0273ZM50.8203 42.207C51.5039 42.207 52.0508 41.6797 52.0508 40.9766C52.0508 40.293 51.5039 39.7656 50.8203 39.7656C50.1367 39.7656 49.6094 40.293 49.6094 40.9766C49.6094 41.6797 50.1367 42.207 50.8203 42.207ZM48.1641 46.0156C48.8477 46.0156 49.3945 45.4883 49.3945 44.8047C49.3945 44.1016 48.8477 43.5742 48.1641 43.5742C47.4805 43.5742 46.9531 44.1016 46.9531 44.8047C46.9531 45.4883 47.4805 46.0156 48.1641 46.0156ZM44.8828 49.2969C45.5664 49.2969 46.1133 48.75 46.1133 48.0664C46.1133 47.3828 45.5664 46.8555 44.8828 46.8555C44.1992 46.8555 43.6523 47.3828 43.6523 48.0664C43.6523 48.75 44.1992 49.2969 44.8828 49.2969ZM41.0938 51.9336C41.7773 51.9336 42.3047 51.4062 42.3047 50.7227C42.3047 50.0391 41.7773 49.4922 41.0938 49.4922C40.4102 49.4922 39.8633 50.0391 39.8633 50.7227C39.8633 51.4062 40.4102 51.9336 41.0938 51.9336ZM36.875 53.9258C37.5586 53.9258 38.1055 53.3984 38.1055 52.7148C38.1055 52.0117 37.5586 51.4844 36.875 51.4844C36.1914 51.4844 35.6641 52.0117 35.6641 52.7148C35.6641 53.3984 36.1914 53.9258 36.875 53.9258ZM32.4219 55.1172C33.1055 55.1172 33.6328 54.5898 33.6328 53.9062C33.6328 53.2031 33.1055 52.6758 32.4219 52.6758C31.7383 52.6758 31.1914 53.2031 31.1914 53.9062C31.1914 54.5898 31.7383 55.1172 32.4219 55.1172ZM27.793 55.5273C28.4766 55.5273 29.0039 55 29.0039 54.3164C29.0039 53.6328 28.4766 53.0859 27.793 53.0859C27.1094 53.0859 26.5625 53.6328 26.5625 54.3164C26.5625 55 27.1094 55.5273 27.793 55.5273ZM23.1641 55.1172C23.8477 55.1172 24.375 54.5898 24.375 53.9062C24.375 53.2031 23.8477 52.6758 23.1641 52.6758C22.4805 52.6758 21.9336 53.2031 21.9336 53.9062C21.9336 54.5898 22.4805 55.1172 23.1641 55.1172ZM18.6914 53.9258C19.375 53.9258 19.9219 53.3984 19.9219 52.7148C19.9219 52.0117 19.375 51.4844 18.6914 51.4844C18.0078 51.4844 17.4805 52.0117 17.4805 52.7148C17.4805 53.3984 18.0078 53.9258 18.6914 53.9258ZM14.4922 51.9336C15.1758 51.9336 15.7031 51.4062 15.7031 50.7227C15.7031 50.0391 15.1758 49.4922 14.4922 49.4922C13.8086 49.4922 13.2617 50.0391 13.2617 50.7227C13.2617 51.4062 13.8086 51.9336 14.4922 51.9336ZM10.7031 49.2969C11.3867 49.2969 11.9141 48.75 11.9141 48.0664C11.9141 47.3828 11.3867 46.8555 10.7031 46.8555C10.0195 46.8555 9.47266 47.3828 9.47266 48.0664C9.47266 48.75 10.0195 49.2969 10.7031 49.2969ZM7.40234 46.0156C8.08594 46.0156 8.63281 45.4883 8.63281 44.8047C8.63281 44.1016 8.08594 43.5742 7.40234 43.5742C6.71875 43.5742 6.19141 44.1016 6.19141 44.8047C6.19141 45.4883 6.71875 46.0156 7.40234 46.0156ZM4.74609 42.207C5.44922 42.207 5.97656 41.6797 5.97656 40.9766C5.97656 40.293 5.44922 39.7656 4.74609 39.7656C4.0625 39.7656 3.53516 40.293 3.53516 40.9766C3.53516 41.6797 4.0625 42.207 4.74609 42.207ZM2.8125 38.0273C3.49609 38.0273 4.02344 37.4805 4.02344 36.7969C4.02344 36.1133 3.49609 35.5664 2.8125 35.5664C2.12891 35.5664 1.58203 36.1133 1.58203 36.7969C1.58203 37.4805 2.12891 38.0273 2.8125 38.0273ZM1.62109 33.5547C2.30469 33.5547 2.83203 33.0273 2.83203 32.3438C2.83203 31.6602 2.30469 31.1133 1.62109 31.1133C0.9375 31.1133 0.390625 31.6602 0.390625 32.3438C0.390625 33.0273 0.9375 33.5547 1.62109 33.5547ZM1.23047 28.9844C1.91406 28.9844 2.44141 28.457 2.44141 27.7734C2.44141 27.0898 1.91406 26.543 1.23047 26.543C0.527344 26.543 0 27.0898 0 27.7734C0 28.457 0.527344 28.9844 1.23047 28.9844ZM1.62109 24.4141C2.30469 24.4141 2.83203 23.8867 2.83203 23.1836C2.83203 22.5 2.30469 21.9727 1.62109 21.9727C0.9375 21.9727 0.390625 22.5 0.390625 23.1836C0.390625 23.8867 0.9375 24.4141 1.62109 24.4141ZM2.8125 19.9609C3.49609 19.9609 4.02344 19.4141 4.02344 18.7305C4.02344 18.0469 3.49609 17.5195 2.8125 17.5195C2.12891 17.5195 1.58203 18.0469 1.58203 18.7305C1.58203 19.4141 2.12891 19.9609 2.8125 19.9609ZM4.74609 15.7617C5.44922 15.7617 5.97656 15.2344 5.97656 14.5508C5.97656 13.8672 5.44922 13.3203 4.74609 13.3203C4.0625 13.3203 3.53516 13.8672 3.53516 14.5508C3.53516 15.2344 4.0625 15.7617 4.74609 15.7617ZM7.40234 11.9531C8.08594 11.9531 8.63281 11.4258 8.63281 10.7422C8.63281 10.0586 8.08594 9.51172 7.40234 9.51172C6.71875 9.51172 6.19141 10.0586 6.19141 10.7422C6.19141 11.4258 6.71875 11.9531 7.40234 11.9531ZM10.7031 8.69141C11.3867 8.69141 11.9141 8.14453 11.9141 7.46094C11.9141 6.77734 11.3867 6.25 10.7031 6.25C10.0195 6.25 9.47266 6.77734 9.47266 7.46094C9.47266 8.14453 10.0195 8.69141 10.7031 8.69141ZM14.4922 6.03516C15.1758 6.03516 15.7031 5.50781 15.7031 4.82422C15.7031 4.14062 15.1758 3.59375 14.4922 3.59375C13.8086 3.59375 13.2617 4.14062 13.2617 4.82422C13.2617 5.50781 13.8086 6.03516 14.4922 6.03516ZM18.6914 4.04297C19.375 4.04297 19.9219 3.51562 19.9219 2.83203C19.9219 2.14844 19.375 1.60156 18.6914 1.60156C18.0078 1.60156 17.4805 2.14844 17.4805 2.83203C17.4805 3.51562 18.0078 4.04297 18.6914 4.04297ZM23.1641 2.85156C23.8477 2.85156 24.375 2.32422 24.375 1.64062C24.375 0.957031 23.8477 0.410156 23.1641 0.410156C22.4805 0.410156 21.9336 0.957031 21.9336 1.64062C21.9336 2.32422 22.4805 2.85156 23.1641 2.85156Z" fill="black" fill-opacity="0.85"/>
  <path d="M27.793 47.8906C38.9062 47.8906 47.9102 38.9258 47.9102 27.7734C47.9102 16.6992 38.8672 7.65625 27.793 7.65625C16.6016 7.65625 7.67578 16.6406 7.67578 27.7734C7.67578 38.9648 16.582 47.8906 27.793 47.8906ZM27.793 45.6445C17.8125 45.6445 9.90234 37.7344 9.90234 27.7734C9.90234 17.8516 17.8906 9.88281 27.793 9.88281C37.6562 9.88281 45.6836 17.9102 45.6836 27.7734C45.6836 37.6758 37.6953 45.6445 27.793 45.6445Z" fill="black" fill-opacity="0.85"/>
  <path d="M27.793 37.8516C33.3594 37.8516 37.832 33.3789 37.832 27.8125C37.832 22.2461 33.3398 17.7539 27.793 17.7539C22.2266 17.7539 17.7344 22.2461 17.7344 27.8125C17.7344 33.3984 22.207 37.8516 27.793 37.8516ZM27.793 33.6914C24.5117 33.6914 21.9141 31.0742 21.9141 27.8125C21.9141 24.5508 24.5312 21.9336 27.793 21.9336C31.0156 21.9336 33.6719 24.5703 33.6719 27.8125C33.6719 31.0547 31.0352 33.6914 27.793 33.6914Z" fill="black" fill-opacity="0.85"/>
 </g>
</svg>
