<?xml version="1.0" encoding="UTF-8"?>
<!--Generator: Apple Native CoreSVG 326-->
<!DOCTYPE svg
PUBLIC "-//W3C//DTD SVG 1.1//EN"
       "http://www.w3.org/Graphics/SVG/1.1/DTD/svg11.dtd">
<svg version="1.1" xmlns="http://www.w3.org/2000/svg" xmlns:xlink="http://www.w3.org/1999/xlink" viewBox="0 0 39.4336 52.9883">
 <g>
  <rect height="52.9883" opacity="0" width="39.4336" x="0" y="0"/>
  <path d="M2.42188 51.6602C3.47656 51.6602 4.19922 51.2695 5.25391 50.2344L19.2188 36.3867C19.3359 36.2695 19.4336 36.1914 19.5312 36.1914C19.6484 36.1914 19.7461 36.2695 19.8633 36.3867L33.8086 50.2344C34.8828 51.2695 35.6055 51.6602 36.6602 51.6602C38.1445 51.6602 39.0625 50.5078 39.0625 49.0039C39.0625 48.2227 38.75 47.2656 38.4375 46.3867L22.5586 2.83203C21.8555 0.917969 20.8203 0 19.5312 0C18.2422 0 17.2266 0.917969 16.5234 2.83203L0.644531 46.3867C0.3125 47.2656 0 48.2227 0 49.0039C0 50.5078 0.9375 51.6602 2.42188 51.6602Z" fill="black" fill-opacity="0.85"/>
 </g>
</svg>
