<?xml version="1.0" encoding="UTF-8"?>
<!--Generator: Apple Native CoreSVG 326-->
<!DOCTYPE svg
PUBLIC "-//W3C//DTD SVG 1.1//EN"
       "http://www.w3.org/Graphics/SVG/1.1/DTD/svg11.dtd">
<svg version="1.1" xmlns="http://www.w3.org/2000/svg" xmlns:xlink="http://www.w3.org/1999/xlink" viewBox="0 0 62.5 50.1758">
 <g>
  <rect height="50.1758" opacity="0" width="62.5" x="0" y="0"/>
  <path d="M50 7.51953L50 11.2305L46.543 11.2305L46.543 7.71484C46.543 4.90234 45 3.45703 42.3242 3.45703L7.67578 3.45703C4.94141 3.45703 3.45703 4.90234 3.45703 7.71484L3.45703 31.2305C3.45703 34.043 4.94141 35.4883 7.67578 35.4883L12.1289 35.4883L12.1289 38.9453L7.59766 38.9453C2.53906 38.9453 0 36.4258 0 31.4258L0 7.51953C0 2.53906 2.53906 0 7.59766 0L42.4023 0C47.4219 0 50 2.55859 50 7.51953Z" fill="black" fill-opacity="0.85"/>
  <path d="M19.7266 50.1758L54.5117 50.1758C59.5508 50.1758 62.1289 47.6172 62.1289 42.6562L62.1289 18.75C62.1289 13.7891 59.5508 11.2305 54.5117 11.2305L19.7266 11.2305C14.668 11.2305 12.1289 13.7695 12.1289 18.75L12.1289 42.6562C12.1289 47.6562 14.668 50.1758 19.7266 50.1758ZM19.7852 46.7188C17.0703 46.7188 15.5859 45.2734 15.5859 42.4805L15.5859 18.9453C15.5859 16.1328 17.0703 14.6875 19.7852 14.6875L54.4531 14.6875C57.1289 14.6875 58.6523 16.1328 58.6523 18.9453L58.6523 42.4805C58.6523 45.2734 57.1289 46.7188 54.4531 46.7188Z" fill="black" fill-opacity="0.85"/>
  <path d="M28.0078 40.7031C28.0078 42.6367 28.8477 43.5156 30.6445 43.5156L43.6328 43.5156C45.4102 43.5156 46.2695 42.6367 46.2695 40.7031L46.2695 30.5469C46.2695 28.7109 45.4883 27.832 43.9062 27.7539L43.9062 24.5898C43.9062 20.0781 41.1719 17.0508 37.1289 17.0508C33.0859 17.0508 30.3516 20.0781 30.3516 24.5898L30.3516 27.7539C28.7695 27.832 28.0078 28.7109 28.0078 30.5469ZM32.6953 27.7344L32.6953 24.375C32.6953 21.3477 34.4727 19.3359 37.1289 19.3359C39.8047 19.3359 41.582 21.3477 41.582 24.375L41.582 27.7344Z" fill="black" fill-opacity="0.85"/>
 </g>
</svg>
