<?xml version="1.0" encoding="UTF-8"?>
<!--Generator: Apple Native CoreSVG 326-->
<!DOCTYPE svg
PUBLIC "-//W3C//DTD SVG 1.1//EN"
       "http://www.w3.org/Graphics/SVG/1.1/DTD/svg11.dtd">
<svg version="1.1" xmlns="http://www.w3.org/2000/svg" xmlns:xlink="http://www.w3.org/1999/xlink" viewBox="0 0 59.6289 51.582">
 <g>
  <rect height="51.582" opacity="0" width="59.6289" x="0" y="0"/>
  <path d="M5.15625 42.8516L54.1016 42.8516C57.3047 42.8516 59.2578 40.8984 59.2578 37.6953L59.2578 6.81641C59.2578 3.61328 57.3047 1.66016 54.1016 1.66016L5.15625 1.66016C1.95312 1.66016 0 3.61328 0 6.81641L0 37.6953C0 40.8984 1.95312 42.8516 5.15625 42.8516ZM5.23438 39.3945C4.14062 39.3945 3.45703 38.7109 3.45703 37.6172L3.45703 6.89453C3.45703 5.80078 4.14062 5.11719 5.23438 5.11719L54.0234 5.11719C55.1172 5.11719 55.8008 5.80078 55.8008 6.89453L55.8008 37.6172C55.8008 38.7109 55.1172 39.3945 54.0234 39.3945ZM21.8164 49.082L37.4414 49.082L37.4414 42.5391L21.8164 42.5391ZM21.5625 51.582L37.6953 51.582C38.6523 51.582 39.4336 50.8203 39.4336 49.8633C39.4336 48.8867 38.6523 48.1055 37.6953 48.1055L21.5625 48.1055C20.6055 48.1055 19.8242 48.8867 19.8242 49.8633C19.8242 50.8203 20.6055 51.582 21.5625 51.582Z" fill="black" fill-opacity="0.85"/>
  <path d="M25.332 30.7812L33.9258 30.7812C35.3125 30.7812 36.0352 30.0391 36.0352 28.5547L36.0352 21.7773C36.0352 20.5469 35.5273 19.8438 34.5703 19.6094L34.5703 18.0859C34.5703 14.8438 32.5781 12.5977 29.6289 12.5977C26.6992 12.5977 24.707 14.8438 24.707 18.0859L24.707 19.6289C23.75 19.8438 23.2422 20.5469 23.2422 21.7773L23.2422 28.5547C23.2422 30.0391 23.9453 30.7812 25.332 30.7812ZM26.9531 19.5312L26.9531 17.9102C26.9531 16.0352 28.0078 14.8047 29.6289 14.8047C31.25 14.8047 32.3242 16.0352 32.3242 17.9102L32.3242 19.5312Z" fill="black" fill-opacity="0.85"/>
 </g>
</svg>
