<?xml version="1.0" encoding="UTF-8"?>
<!--Generator: Apple Native CoreSVG 326-->
<!DOCTYPE svg
PUBLIC "-//W3C//DTD SVG 1.1//EN"
       "http://www.w3.org/Graphics/SVG/1.1/DTD/svg11.dtd">
<svg version="1.1" xmlns="http://www.w3.org/2000/svg" xmlns:xlink="http://www.w3.org/1999/xlink" viewBox="0 0 83.1641 49.3164">
 <g>
  <rect height="49.3164" opacity="0" width="83.1641" x="0" y="0"/>
  <path d="M65.5273 10.7227L65.5273 11.6602L45.3516 11.6602C40.0781 11.6602 36.8555 14.8828 36.8555 20.1367L36.8555 39.5703L17.2656 39.5703L17.2656 10.7227C17.2656 8.92578 18.1445 8.04688 19.9414 8.04688L62.8516 8.04688C64.6484 8.04688 65.5273 8.92578 65.5273 10.7227Z" fill="black" fill-opacity="0.2125"/>
  <path d="M69.0039 9.80469L69.0039 11.6602L65.5273 11.6602L65.5273 10.7227C65.5273 8.92578 64.6484 8.04688 62.8516 8.04688L19.9414 8.04688C18.1445 8.04688 17.2656 8.92578 17.2656 10.7227L17.2656 39.5703L36.8555 39.5703L36.8555 40.8594C36.8555 42.3338 37.1108 43.6467 37.6027 44.7656L8.28125 44.7656C6.85547 44.7656 5.70312 43.6133 5.70312 42.168C5.70312 40.7227 6.85547 39.5703 8.28125 39.5703L13.7891 39.5703L13.7891 9.80469C13.7891 6.36719 15.7617 4.58984 19.043 4.58984L63.75 4.58984C67.168 4.58984 69.0039 6.36719 69.0039 9.80469Z" fill="black" fill-opacity="0.85"/>
  <path d="M45.3711 43.1445C43.7891 43.1445 43.0273 42.4609 43.0273 40.7812L43.0273 20.1953C43.0273 18.5352 43.7891 17.832 45.3711 17.832L74.6289 17.832C76.1914 17.832 76.9922 18.5352 76.9922 20.1953L76.9922 40.7812C76.9922 42.4609 76.1914 43.1445 74.6289 43.1445Z" fill="black" fill-opacity="0.2125"/>
  <path d="M45.3516 46.1914L74.668 46.1914C78.2031 46.1914 80.0586 44.3555 80.0586 40.8594L80.0586 20.1367C80.0586 16.6211 78.2031 14.7852 74.668 14.7852L45.3516 14.7852C41.8164 14.7852 39.9805 16.6211 39.9805 20.1367L39.9805 40.8594C39.9805 44.375 41.8164 46.1914 45.3516 46.1914ZM45.3711 43.1445C43.7891 43.1445 43.0273 42.4609 43.0273 40.7812L43.0273 20.1953C43.0273 18.5352 43.7891 17.832 45.3711 17.832L74.6289 17.832C76.1914 17.832 76.9922 18.5352 76.9922 20.1953L76.9922 40.7812C76.9922 42.4609 76.1914 43.1445 74.6289 43.1445ZM53.418 41.1328L66.6016 41.1328C67.207 41.1328 67.6562 40.7031 67.6562 40.0781C67.6562 39.4531 67.207 39.0234 66.6016 39.0234L53.418 39.0234C52.8125 39.0234 52.3633 39.4531 52.3633 40.0781C52.3633 40.7031 52.8125 41.1328 53.418 41.1328Z" fill="black" fill-opacity="0.85"/>
 </g>
</svg>
