<?xml version="1.0" encoding="UTF-8"?>
<!--Generator: Apple Native CoreSVG 326-->
<!DOCTYPE svg
PUBLIC "-//W3C//DTD SVG 1.1//EN"
       "http://www.w3.org/Graphics/SVG/1.1/DTD/svg11.dtd">
<svg version="1.1" xmlns="http://www.w3.org/2000/svg" xmlns:xlink="http://www.w3.org/1999/xlink" viewBox="0 0 61.6211 32.793">
 <g>
  <rect height="32.793" opacity="0" width="61.6211" x="0" y="0"/>
  <path d="M7.59766 32.5781L53.6523 32.5781C58.6914 32.5781 61.25 30.0195 61.25 25.0391L61.25 7.51953C61.25 2.53906 58.6914 0 53.6523 0L7.59766 0C2.53906 0 0 2.51953 0 7.51953L0 25.0391C0 30.0391 2.53906 32.5781 7.59766 32.5781ZM7.67578 29.1016C4.94141 29.1016 3.45703 27.6562 3.45703 24.8633L3.45703 7.69531C3.45703 4.90234 4.94141 3.45703 7.67578 3.45703L53.5742 3.45703C56.25 3.45703 57.793 4.90234 57.793 7.69531L57.793 24.8633C57.793 27.6562 56.25 29.1016 53.5742 29.1016ZM9.27734 25.0195C10.0977 25 10.7227 24.3555 10.7227 23.5938L10.7227 19.2383C10.7227 18.418 10.0781 17.793 9.27734 17.8125C8.49609 17.793 7.85156 18.418 7.85156 19.2383L7.85156 23.5742C7.85156 24.375 8.47656 25 9.27734 25.0195ZM15.0977 25.0195C15.8984 25 16.5234 24.3555 16.5234 23.5938L16.5234 19.2383C16.5234 18.418 15.8789 17.793 15.0977 17.8125C14.2969 17.793 13.6523 18.418 13.6523 19.2383L13.6523 23.5742C13.6523 24.375 14.2773 25 15.0977 25.0195ZM21.4844 22.8516L31.7188 22.8516C32.5 22.8516 33.1445 22.207 33.1445 21.4062C33.1445 20.625 32.5 19.9805 31.7188 19.9805L21.4844 19.9805C20.6836 19.9805 20.0391 20.625 20.0391 21.4062C20.0391 22.207 20.6836 22.8516 21.4844 22.8516ZM50.7422 24.3164C52.2852 24.2773 53.5938 22.9883 53.5938 21.4453C53.5938 19.8633 52.2852 18.5352 50.7422 18.5352C49.1992 18.5352 47.8516 19.8633 47.8516 21.4453C47.8516 22.9883 49.1992 24.3359 50.7422 24.3164Z" fill="black" fill-opacity="0.85"/>
 </g>
</svg>
