<?xml version="1.0" encoding="UTF-8"?>
<!--Generator: Apple Native CoreSVG 326-->
<!DOCTYPE svg
PUBLIC "-//W3C//DTD SVG 1.1//EN"
       "http://www.w3.org/Graphics/SVG/1.1/DTD/svg11.dtd">
<svg version="1.1" xmlns="http://www.w3.org/2000/svg" xmlns:xlink="http://www.w3.org/1999/xlink" viewBox="0 0 59.5508 45.957">
 <g>
  <rect height="45.957" opacity="0" width="59.5508" x="0" y="0"/>
  <path d="M59.1797 7.57812L59.1797 38.4375C59.1797 43.418 56.6211 45.957 51.5625 45.957L7.59766 45.957C2.55859 45.957 0 43.4375 0 38.4375L0 7.57812C0 2.57812 2.55859 0.0585938 7.59766 0.0585938L51.5625 0.0585938C56.6211 0.0585938 59.1797 2.59766 59.1797 7.57812ZM3.45703 12.3047L3.45703 38.2617C3.45703 41.0547 4.94141 42.5 7.67578 42.5L51.5039 42.5C54.1797 42.5 55.7031 41.0547 55.7031 38.2617L55.7031 12.3047ZM5.50781 6.17188C5.50781 7.28516 6.46484 8.28125 7.61719 8.28125C8.76953 8.28125 9.70703 7.28516 9.70703 6.17188C9.70703 5.05859 8.76953 4.08203 7.61719 4.08203C6.46484 4.08203 5.50781 5.05859 5.50781 6.17188ZM12.3633 6.17188C12.3633 7.28516 13.3203 8.28125 14.4727 8.28125C15.625 8.28125 16.5625 7.28516 16.5625 6.17188C16.5625 5.05859 15.625 4.08203 14.4727 4.08203C13.3203 4.08203 12.3633 5.05859 12.3633 6.17188ZM19.2188 6.17188C19.2188 7.28516 20.1562 8.26172 21.3086 8.26172C22.4609 8.26172 23.418 7.28516 23.418 6.17188C23.418 5.05859 22.4609 4.08203 21.3086 4.08203C20.1562 4.08203 19.2188 5.05859 19.2188 6.17188Z" fill="black" fill-opacity="0.85"/>
 </g>
</svg>
