<?xml version="1.0" encoding="UTF-8"?>
<!--Generator: Apple Native CoreSVG 326-->
<!DOCTYPE svg
PUBLIC "-//W3C//DTD SVG 1.1//EN"
       "http://www.w3.org/Graphics/SVG/1.1/DTD/svg11.dtd">
<svg version="1.1" xmlns="http://www.w3.org/2000/svg" xmlns:xlink="http://www.w3.org/1999/xlink" viewBox="0 0 51.25 50.918">
 <g>
  <rect height="50.918" opacity="0" width="51.25" x="0" y="0"/>
  <path d="M50.8789 25.4492C50.8789 39.4922 39.4727 50.8789 25.4297 50.8789C11.3867 50.8789 0 39.4922 0 25.4492C0 11.4062 11.3867 0 25.4297 0C39.4727 0 50.8789 11.4062 50.8789 25.4492ZM3.63281 25.4492C3.63281 37.5 13.3789 47.2461 25.4297 47.2461C37.4805 47.2461 47.2266 37.5 47.2266 25.4492C47.2266 13.3984 37.4805 3.65234 25.4297 3.65234C13.3789 3.65234 3.63281 13.3984 3.63281 25.4492Z" fill="black" fill-opacity="0.85"/>
  <path d="M26.8945 30.7227L26.8945 34.8633C26.8945 38.3203 26.3672 41.0742 25.4102 41.0742C24.4531 41.0742 23.9062 38.2617 23.9062 34.8633L23.9062 27.7344ZM30.8984 15.7617C30.8984 18.2812 29.2188 20.3711 26.8945 20.9961L26.8945 23.0562L19.9359 16.0918C19.9252 15.9834 19.9219 15.873 19.9219 15.7617C19.9219 12.7344 22.3828 10.2734 25.4102 10.2734C28.4375 10.2734 30.8984 12.7344 30.8984 15.7617ZM22.2266 14.3555C22.2461 15.293 23.0664 16.1133 24.0039 16.1133C24.9805 16.1133 25.7617 15.293 25.7617 14.3555C25.7812 13.3789 24.9805 12.5586 24.0039 12.5586C23.0664 12.5586 22.207 13.3789 22.2266 14.3555Z" fill="black" fill-opacity="0.85"/>
  <path d="M36.5625 37.9883C36.9531 38.3984 37.6172 38.3984 38.0273 37.9883C38.4375 37.5781 38.4375 36.9531 38.0273 36.5234L14.375 12.8711C13.9648 12.4609 13.3008 12.4609 12.8906 12.8711C12.4805 13.2812 12.5 13.9453 12.8906 14.3359Z" fill="black" fill-opacity="0.85"/>
 </g>
</svg>
