<?xml version="1.0" encoding="UTF-8"?>
<!--Generator: Apple Native CoreSVG 326-->
<!DOCTYPE svg
PUBLIC "-//W3C//DTD SVG 1.1//EN"
       "http://www.w3.org/Graphics/SVG/1.1/DTD/svg11.dtd">
<svg version="1.1" xmlns="http://www.w3.org/2000/svg" xmlns:xlink="http://www.w3.org/1999/xlink" viewBox="0 0 56.8656 56.5284">
 <g>
  <rect height="56.5284" opacity="0" width="56.8656" x="0" y="0"/>
  <path d="M33.6379 2.70756L53.8137 22.8833C57.3879 26.4576 57.3879 30.0513 53.8527 33.5865L33.5988 53.8599C30.0637 57.3951 26.4699 57.3755 22.8957 53.8013L2.71991 33.6255C-0.873843 30.0513-0.912906 26.4771 2.64178 22.9224L22.9348 2.6685C26.4894-0.905717 30.0637-0.886186 33.6379 2.70756ZM17.7199 26.4185C16.4504 26.4185 15.6105 27.1216 15.6105 28.313C15.6105 29.4654 16.4894 30.149 17.7199 30.149L38.8332 30.149C40.0637 30.149 40.923 29.4654 40.923 28.313C40.923 27.1216 40.1223 26.4185 38.8332 26.4185Z" fill="black" fill-opacity="0.85"/>
 </g>
</svg>
