<?xml version="1.0" encoding="UTF-8"?>
<!--Generator: Apple Native CoreSVG 326-->
<!DOCTYPE svg
PUBLIC "-//W3C//DTD SVG 1.1//EN"
       "http://www.w3.org/Graphics/SVG/1.1/DTD/svg11.dtd">
<svg version="1.1" xmlns="http://www.w3.org/2000/svg" xmlns:xlink="http://www.w3.org/1999/xlink" viewBox="0 0 51.25 50.918">
 <g>
  <rect height="50.918" opacity="0" width="51.25" x="0" y="0"/>
  <path d="M25.4297 50.8789C39.4727 50.8789 50.8789 39.4922 50.8789 25.4492C50.8789 11.4062 39.4727 0 25.4297 0C11.3867 0 0 11.4062 0 25.4492C0 39.4922 11.3867 50.8789 25.4297 50.8789ZM25.4297 47.2461C13.3789 47.2461 3.63281 37.5 3.63281 25.4492C3.63281 13.3984 13.3789 3.65234 25.4297 3.65234C37.4805 3.65234 47.2266 13.3984 47.2266 25.4492C47.2266 37.5 37.4805 47.2461 25.4297 47.2461Z" fill="black" fill-opacity="0.85"/>
  <path d="M15.918 28.4766L34.375 28.4766C35 27.793 35.4688 26.9922 35.8594 26.1328C36.0938 25.5859 36.0547 25.1172 35.7617 24.8047C35.5273 24.6094 35.1172 24.5508 34.6289 24.7266C33.5938 25.1367 32.3242 25.3516 30.8398 25.3516C24.7461 25.3516 20.9375 21.6211 20.9375 15.6445C20.9375 14.082 21.1914 12.5 21.6797 11.5625C21.9336 11.0742 21.875 10.6055 21.6406 10.2734C21.3867 9.96094 20.8398 9.90234 20.2734 10.1758C16.2109 11.9336 13.4375 16.1523 13.4375 21.1523C13.4375 23.9844 14.3359 26.5039 15.918 28.4766ZM10.9375 32.6367L39.8828 32.6367C40.5664 32.6367 41.1719 32.1094 41.1719 31.4062C41.1719 30.7031 40.5859 30.1953 39.8828 30.1953L10.9375 30.1953C10.2344 30.1953 9.62891 30.7227 9.62891 31.4062C9.62891 32.1094 10.2539 32.6367 10.9375 32.6367ZM13.0469 37.0898C13.6719 37.0898 14.1797 36.5625 14.1797 35.9375C14.1797 35.332 13.6719 34.8047 13.0469 34.8047C12.4219 34.8047 11.9141 35.332 11.9141 35.9375C11.9141 36.5625 12.4219 37.0898 13.0469 37.0898ZM19.2578 37.0898C19.8633 37.0898 20.3906 36.5625 20.3906 35.9375C20.3906 35.332 19.8633 34.8047 19.2578 34.8047C18.6328 34.8047 18.1055 35.332 18.1055 35.9375C18.1055 36.5625 18.6328 37.0898 19.2578 37.0898ZM25.4492 37.0898C26.0547 37.0898 26.582 36.5625 26.582 35.9375C26.582 35.332 26.0547 34.8047 25.4492 34.8047C24.8242 34.8047 24.2969 35.332 24.2969 35.9375C24.2969 36.5625 24.8242 37.0898 25.4492 37.0898ZM31.6211 37.0898C32.2461 37.0898 32.7734 36.5625 32.7734 35.9375C32.7734 35.332 32.2461 34.8047 31.6211 34.8047C31.0156 34.8047 30.4883 35.332 30.4883 35.9375C30.4883 36.5625 31.0156 37.0898 31.6211 37.0898ZM37.8125 37.0898C38.4375 37.0898 38.9648 36.5625 38.9648 35.9375C38.9648 35.332 38.4375 34.8047 37.8125 34.8047C37.1875 34.8047 36.6797 35.332 36.6797 35.9375C36.6797 36.5625 37.1875 37.0898 37.8125 37.0898ZM16.1523 40.5469C16.7578 40.5469 17.2852 40.0195 17.2852 39.4141C17.2852 38.7891 16.7578 38.2617 16.1523 38.2617C15.5273 38.2617 15 38.7891 15 39.4141C15 40.0195 15.5273 40.5469 16.1523 40.5469ZM22.3438 40.5469C22.9688 40.5469 23.4766 40.0195 23.4766 39.4141C23.4766 38.7891 22.9688 38.2617 22.3438 38.2617C21.7188 38.2617 21.2109 38.7891 21.2109 39.4141C21.2109 40.0195 21.7188 40.5469 22.3438 40.5469ZM28.5352 40.5469C29.1602 40.5469 29.668 40.0195 29.668 39.4141C29.668 38.7891 29.1602 38.2617 28.5352 38.2617C27.9102 38.2617 27.4023 38.7891 27.4023 39.4141C27.4023 40.0195 27.9102 40.5469 28.5352 40.5469ZM34.707 40.5469C35.332 40.5469 35.8398 40.0195 35.8398 39.4141C35.8398 38.7891 35.332 38.2617 34.707 38.2617C34.082 38.2617 33.5742 38.7891 33.5742 39.4141C33.5742 40.0195 34.082 40.5469 34.707 40.5469Z" fill="black" fill-opacity="0.85"/>
 </g>
</svg>
