<?xml version="1.0" encoding="UTF-8"?>
<!--Generator: Apple Native CoreSVG 326-->
<!DOCTYPE svg
PUBLIC "-//W3C//DTD SVG 1.1//EN"
       "http://www.w3.org/Graphics/SVG/1.1/DTD/svg11.dtd">
<svg version="1.1" xmlns="http://www.w3.org/2000/svg" xmlns:xlink="http://www.w3.org/1999/xlink" viewBox="0 0 50.4492 50.5273">
 <g>
  <rect height="50.5273" opacity="0" width="50.4492" x="0" y="0"/>
  <path d="M39.2969 34.1992C25.1953 34.1992 16.5234 25.7227 16.5234 12.0703C16.5234 8.26172 17.2461 4.94141 18.2227 2.96875C18.5352 2.30469 18.6133 1.97266 18.6133 1.54297C18.6133 0.820312 17.9492 0 17.0312 0C16.8359 0 16.3867 0.0585938 15.7617 0.292969C6.5625 3.98438 0 13.5547 0 24.2188C0 38.6719 11.7383 50.4102 26.1719 50.4102C36.2891 50.4102 45.4297 44.668 49.7852 35.4492C50.0586 34.8633 50.0781 34.3945 50.0781 34.1602C50.0781 33.2227 49.3359 32.6172 48.6328 32.6172C48.2617 32.6172 47.9883 32.6562 47.4805 32.8516C45.5469 33.6523 42.3242 34.1992 39.2969 34.1992ZM3.37891 24.082C3.37891 15.9375 7.75391 8.28125 14.6289 4.19922C13.7695 6.62109 13.3008 9.41406 13.3008 12.3438C13.3008 27.9883 22.8516 37.3633 38.8477 37.3633C41.5039 37.3633 43.8672 37.0312 45.957 36.3086C42.0508 42.9688 34.5898 47.0508 26.3086 47.0508C13.2812 47.0508 3.37891 37.1484 3.37891 24.082Z" fill="black" fill-opacity="0.85"/>
 </g>
</svg>
