<?xml version="1.0" encoding="UTF-8"?>
<!--Generator: Apple Native CoreSVG 326-->
<!DOCTYPE svg
PUBLIC "-//W3C//DTD SVG 1.1//EN"
       "http://www.w3.org/Graphics/SVG/1.1/DTD/svg11.dtd">
<svg version="1.1" xmlns="http://www.w3.org/2000/svg" xmlns:xlink="http://www.w3.org/1999/xlink" viewBox="0 0 83.8086 50.4102">
 <g>
  <rect height="50.4102" opacity="0" width="83.8086" x="0" y="0"/>
  <path d="M45.7617 32.207C53.5352 32.207 58.3789 27.832 58.3789 22.3438C58.3789 16.5625 54.7656 12.5391 47.8516 12.4609C43.0469 12.4023 38.0273 14.4922 31.6016 19.7266L12.1094 35.6836L14.1211 38.3008L32.6367 23.1055L29.4336 24.5508C33.6523 29.5898 39.1992 32.207 45.7617 32.207ZM13.4961 50.4102C20.918 50.4102 26.9141 44.375 26.9141 36.9531C26.9141 29.4922 20.918 23.457 13.4961 23.457C6.01562 23.457 0 29.4922 0 36.9531C0 44.3945 6.01562 50.4102 13.4961 50.4102ZM13.4766 47.0703C7.79297 47.0703 3.32031 42.5781 3.32031 36.9336C3.32031 31.2695 7.79297 26.7969 13.4766 26.7969C19.1406 26.7969 23.5938 31.2695 23.5938 36.9336C23.5938 42.5781 19.1406 47.0703 13.4766 47.0703ZM17.2461 17.4609L28.8281 17.4609C29.7656 17.4609 30.5078 16.7188 30.5078 15.8008C30.5078 14.8828 29.7461 14.1211 28.8281 14.1211L17.2461 14.1211C16.3477 14.1211 15.5859 14.8828 15.5859 15.8008C15.5859 16.7188 16.3281 17.4609 17.2461 17.4609ZM70 50.4102C77.4414 50.4102 83.4375 44.375 83.4375 36.9531C83.4375 29.4922 77.4414 23.457 70 23.457C62.5195 23.457 56.5039 29.4922 56.5039 36.9531C56.5039 44.3945 62.5195 50.4102 70 50.4102ZM69.9805 47.0703C64.2969 47.0703 59.8242 42.5781 59.8242 36.9336C59.8242 31.2695 64.2969 26.7969 69.9805 26.7969C75.6445 26.7969 80.1172 31.2695 80.1172 36.9336C80.1172 42.5781 75.6445 47.0703 69.9805 47.0703ZM69.9414 39.9219C71.6016 39.9219 72.9102 38.5742 72.9102 36.9141C72.9102 35.2539 71.6211 33.9258 69.9414 33.9258C68.2617 33.9258 67.0508 35.2344 67.0312 36.9141C67.0117 38.5742 68.2422 39.9219 69.9414 39.9219ZM68.4375 37.1094L71.582 36.0352L57.7734 1.52344C57.3438 0.449219 56.543 0 55.2148 0L47.9102 0C46.9727 0 46.2305 0.742188 46.2305 1.67969C46.2305 2.59766 46.9727 3.33984 47.9102 3.33984L54.5898 3.33984C54.8047 3.33984 54.9219 3.39844 55 3.59375ZM69.5117 17.1875C70.3711 17.2656 70.7617 16.5625 70.6055 15.7422L69.2773 9.29688C69.082 8.45703 68.457 8.04688 67.6758 8.47656C67.0508 8.82812 66.4648 9.35547 66.0547 9.98047C64.6094 12.0898 65.2539 15.0781 67.3633 16.4453C67.9492 16.8359 68.7305 17.1289 69.5117 17.1875ZM13.3984 39.9414C15.0391 39.9414 16.3672 38.5938 16.3672 36.9336C16.3672 35.2539 15.0586 33.9453 13.3984 33.9453C11.7188 33.9453 10.4883 35.2344 10.4688 36.9336C10.4492 38.5938 11.6992 39.9414 13.3984 39.9414ZM33.5547 41.6211L40.1172 41.6211C41.25 41.6211 41.6992 41.4062 42.5 40.5273L52.2852 29.8828L47.4805 30L40.2539 37.9297C40.0195 38.1836 39.8047 38.2812 39.3359 38.2812L33.5547 38.2812C32.6367 38.2812 31.875 39.0234 31.875 39.9609C31.875 40.8789 32.6367 41.6211 33.5547 41.6211Z" fill="black" fill-opacity="0.85"/>
 </g>
</svg>
