<?xml version="1.0" encoding="UTF-8"?>
<!--Generator: Apple Native CoreSVG 326-->
<!DOCTYPE svg
PUBLIC "-//W3C//DTD SVG 1.1//EN"
       "http://www.w3.org/Graphics/SVG/1.1/DTD/svg11.dtd">
<svg version="1.1" xmlns="http://www.w3.org/2000/svg" xmlns:xlink="http://www.w3.org/1999/xlink" viewBox="0 0 52.9476 47.8907">
 <g>
  <rect height="47.8907" opacity="0" width="52.9476" x="0" y="0"/>
  <path d="M6.69841 38.6622L8.43669 41.6309L26.2882 32.6661L44.1593 41.6309L45.8781 38.6622L28.0265 29.7168L28.0265 8.56451L24.5695 8.56451L24.5695 29.7168ZM0.292156 42.2168C-0.410969 43.7598 0.174968 44.7364 1.83512 44.9122L12.1672 45.9668C14.2375 46.2012 15.5265 44.8536 14.4328 42.9981L8.24137 32.295C7.16716 30.4395 5.38981 30.8497 4.54997 32.7442ZM52.3039 42.2168L48.0265 32.7442C47.1867 30.8497 45.4093 30.4395 44.3547 32.295L38.1437 42.9981C37.0695 44.8536 38.339 46.2012 40.4289 45.9668L50.7414 44.9122C52.4015 44.7364 52.9875 43.7598 52.3039 42.2168ZM24.7062 1.02544L18.6515 9.42388C17.4015 11.1036 17.9679 12.9004 20.0968 12.9004L32.4406 12.9004C34.6476 12.9004 35.1554 11.1426 33.9054 9.42388L27.8312 1.02544C26.8351-0.322213 25.7023-0.361276 24.7062 1.02544Z" fill="black" fill-opacity="0.85"/>
 </g>
</svg>
