<?xml version="1.0" encoding="UTF-8"?>
<!--Generator: Apple Native CoreSVG 326-->
<!DOCTYPE svg
PUBLIC "-//W3C//DTD SVG 1.1//EN"
       "http://www.w3.org/Graphics/SVG/1.1/DTD/svg11.dtd">
<svg version="1.1" xmlns="http://www.w3.org/2000/svg" xmlns:xlink="http://www.w3.org/1999/xlink" viewBox="0 0 50.1346 52.8145">
 <g>
  <rect height="52.8145" opacity="0" width="50.1346" x="0" y="0"/>
  <path d="M25.4482 50.9873C26.6396 50.9873 27.5575 50.0694 27.5575 48.8975L27.5575 30.128L35.1552 23.0967C38.0654 23.5459 41.1708 22.3155 43.9638 19.5225L30.2333 5.7725C27.4208 8.56547 26.3075 11.5538 26.7763 14.4834L3.31926 39.7569C2.38176 40.792 2.32317 42.1006 3.53411 43.3116L0.194264 47.5303C-0.0791739 47.8623-0.0791739 48.3506 0.29192 48.7413L1.03411 49.4639C1.4052 49.835 1.85442 49.8545 2.24504 49.5616L6.46379 46.1827C7.59661 47.4131 8.98333 47.335 9.97942 46.3975L23.3193 34.0538L23.3193 48.8975C23.3193 50.0694 24.2568 50.9873 25.4482 50.9873ZM5.44817 41.6319L27.9482 17.7061C28.3974 18.5264 28.9638 19.3077 29.6474 20.0889C30.331 20.8311 31.1122 21.4561 31.874 21.8858L8.12395 44.3272ZM32.5185 3.48735L46.249 17.2373C50.7607 12.7452 50.9365 7.25688 46.6786 3.03813C42.4794-1.14156 37.0107-1.02437 32.5185 3.48735Z" fill="black" fill-opacity="0.85"/>
 </g>
</svg>
