<?xml version="1.0" encoding="UTF-8"?>
<!--Generator: Apple Native CoreSVG 326-->
<!DOCTYPE svg
PUBLIC "-//W3C//DTD SVG 1.1//EN"
       "http://www.w3.org/Graphics/SVG/1.1/DTD/svg11.dtd">
<svg version="1.1" xmlns="http://www.w3.org/2000/svg" xmlns:xlink="http://www.w3.org/1999/xlink" viewBox="0 0 46.2891 45.918">
 <g>
  <rect height="45.918" opacity="0" width="46.2891" x="0" y="0"/>
  <path d="M45.918 7.53906L45.918 38.3984C45.918 43.3594 43.3594 45.918 38.3008 45.918L7.59766 45.918C2.55859 45.918 0 43.3984 0 38.3984L0 7.53906C0 2.53906 2.55859 0 7.59766 0L38.3008 0C43.3594 0 45.918 2.55859 45.918 7.53906ZM13.2227 12.5391L13.2227 32.3242C13.2227 33.1445 13.75 33.6719 14.4922 33.6719C15.2344 33.6719 15.7422 33.1445 15.7422 32.3242L15.7422 27.6367L17.3242 26.0742L22.2852 33.0273C22.5781 33.4375 22.9297 33.6719 23.418 33.6719C24.082 33.6719 24.6094 33.2031 24.6094 32.5586C24.6094 32.2266 24.4922 31.9531 24.2578 31.6406L19.1406 24.4922L23.9453 19.375C24.2383 19.0625 24.3945 18.8672 24.3945 18.4766C24.3945 17.8906 23.9062 17.3828 23.2617 17.3828C22.9102 17.3828 22.5391 17.5781 22.2852 17.8516L15.8398 24.9414L15.7422 24.9414L15.7422 12.5586C15.7422 11.7383 15.2344 11.1914 14.4922 11.1914C13.75 11.1914 13.2227 11.7188 13.2227 12.5391ZM30.1367 20.5273L29.9609 20.5273L29.9609 18.6523C29.9609 17.9297 29.4727 17.3828 28.8086 17.3828C28.1445 17.3828 27.6367 17.9297 27.6367 18.6523L27.6367 32.3242C27.6367 33.1445 28.0859 33.6719 28.8672 33.6719C29.4531 33.6719 30.0781 33.3008 30.0781 32.3242L30.0781 23.9258C30.0781 22.0312 30.8203 19.8047 33.0859 19.8047C33.5938 19.8047 34.0625 19.7852 34.4336 19.5898C34.7852 19.4336 34.9805 19.1406 34.9805 18.7109C34.9805 17.832 34.2383 17.3828 33.3594 17.3828C31.6602 17.3828 30.5078 18.8281 30.1367 20.5273Z" fill="black" fill-opacity="0.85"/>
 </g>
</svg>
