<?xml version="1.0" encoding="UTF-8"?>
<!--Generator: Apple Native CoreSVG 326-->
<!DOCTYPE svg
PUBLIC "-//W3C//DTD SVG 1.1//EN"
       "http://www.w3.org/Graphics/SVG/1.1/DTD/svg11.dtd">
<svg version="1.1" xmlns="http://www.w3.org/2000/svg" xmlns:xlink="http://www.w3.org/1999/xlink" viewBox="0 0 52.3242 65.6836">
 <g>
  <rect height="65.6836" opacity="0" width="52.3242" x="0" y="0"/>
  <path d="M37.2726 7.07031L14.6805 7.07031C14.8056 5.29862 15.9546 4.25781 17.832 4.25781L34.1211 4.25781C35.9986 4.25781 37.1475 5.29862 37.2726 7.07031Z" fill="black" fill-opacity="0.85"/>
  <path d="M42.3128 13.884C41.6187 13.7785 40.8836 13.7305 40.1172 13.7305L11.8359 13.7305C11.0623 13.7305 10.3209 13.7789 9.6213 13.8851C9.88879 11.8259 11.3193 10.6641 13.6133 10.6641L38.3398 10.6641C40.6335 10.6641 42.0481 11.8255 42.3128 13.884Z" fill="black" fill-opacity="0.85"/>
  <path d="M23.2868 47.8618C20.8441 50.0997 19.4336 53.0527 19.4336 56.0742C19.4336 56.7762 19.5349 57.4248 19.7246 58.0078L11.8945 58.0078C9.17969 58.0078 7.69531 56.543 7.69531 53.75L7.69531 52.7414C8.89014 49.3149 12.6455 46.543 17.6953 46.543C19.8235 46.543 21.721 47.0322 23.2868 47.8618ZM22.6367 38.3984C22.6367 41.5039 20.4102 43.8672 17.7344 43.8672C15.0586 43.8672 12.8125 41.5039 12.8125 38.418C12.8125 35.4297 15.0586 33.125 17.7344 33.125C20.3906 33.125 22.6367 35.3906 22.6367 38.3984Z" fill="black" fill-opacity="0.85"/>
  <path d="M44.2578 51.1642L44.2578 53.75C44.2578 56.543 42.7148 58.0078 40.0586 58.0078L22.7901 58.0078C22.381 57.5618 22.1484 56.8973 22.1484 56.0742C22.1484 51.3086 27.0117 46.582 34.1016 46.582C38.7441 46.582 42.3924 48.5616 44.2578 51.1642ZM39.7266 37.2656C39.7266 40.8203 37.1875 43.5156 34.1211 43.5156C31.0352 43.5156 28.457 40.8203 28.457 37.3047C28.457 33.8867 31.0547 31.1914 34.1211 31.1914C37.1484 31.1914 39.7266 33.8281 39.7266 37.2656Z" fill="black" fill-opacity="0.85"/>
  <path d="M11.8359 61.4648L40.1172 61.4648C45.1562 61.4648 47.7148 58.9062 47.7148 53.9258L47.7148 25.4883C47.7148 20.5273 45.1562 17.9688 40.1172 17.9688L11.8359 17.9688C6.77734 17.9688 4.23828 20.5078 4.23828 25.4883L4.23828 53.9258C4.23828 58.9258 6.77734 61.4648 11.8359 61.4648ZM11.8945 58.0078C9.17969 58.0078 7.69531 56.543 7.69531 53.75L7.69531 25.6836C7.69531 22.8711 9.17969 21.4258 11.8945 21.4258L40.0586 21.4258C42.7148 21.4258 44.2578 22.8711 44.2578 25.6836L44.2578 53.75C44.2578 56.543 42.7148 58.0078 40.0586 58.0078Z" fill="black" fill-opacity="0.85"/>
 </g>
</svg>
