<?xml version="1.0" encoding="UTF-8"?>
<!--Generator: Apple Native CoreSVG 326-->
<!DOCTYPE svg
PUBLIC "-//W3C//DTD SVG 1.1//EN"
       "http://www.w3.org/Graphics/SVG/1.1/DTD/svg11.dtd">
<svg version="1.1" xmlns="http://www.w3.org/2000/svg" xmlns:xlink="http://www.w3.org/1999/xlink" viewBox="0 0 57.4222 56.8999">
 <g>
  <rect height="56.8999" opacity="0" width="57.4222" x="0" y="0"/>
  <path d="M29.5648 35.0263C29.2332 34.9903 28.8817 34.9831 28.5255 34.9831C16.7873 34.9831 10.1662 42.7956 10.1662 47.3464C10.1662 48.0496 10.4982 48.3035 11.4748 48.3035L42.8419 48.3035L46.0396 51.5011C45.6024 51.5444 45.1285 51.5652 44.6193 51.5652L12.4123 51.5652C8.54507 51.5652 6.6896 50.3542 6.6896 47.7371C6.6896 41.5189 14.098 32.7383 26.3357 31.7972ZM39.2482 16.7019C39.2482 20.6816 37.4348 24.1877 34.6562 26.2896L32.2801 23.9134C34.382 22.4593 35.7912 19.7958 35.7912 16.7019C35.7912 12.1121 32.5294 8.57689 28.5451 8.57689C25.5748 8.57689 22.9991 10.5938 21.8942 13.5276L19.3392 10.9726C21.1901 7.58544 24.6293 5.31518 28.5451 5.31518C34.463 5.31518 39.2482 10.3542 39.2482 16.7019Z" fill="black" fill-opacity="0.85"/>
  <path d="M51.3576 52.2683C52.0021 52.9324 53.0763 52.9128 53.7209 52.2488C54.3654 51.5847 54.3654 50.5496 53.7209 49.905L7.52945 3.71361C6.88492 3.06908 5.83023 3.04955 5.16617 3.71361C4.52163 4.33861 4.52163 5.43236 5.16617 6.05736Z" fill="black" fill-opacity="0.85"/>
 </g>
</svg>
