<?xml version="1.0" encoding="UTF-8"?>
<!--Generator: Apple Native CoreSVG 326-->
<!DOCTYPE svg
PUBLIC "-//W3C//DTD SVG 1.1//EN"
       "http://www.w3.org/Graphics/SVG/1.1/DTD/svg11.dtd">
<svg version="1.1" xmlns="http://www.w3.org/2000/svg" xmlns:xlink="http://www.w3.org/1999/xlink" viewBox="0 0 60.332 53.3008">
 <g>
  <rect height="53.3008" opacity="0" width="60.332" x="0" y="0"/>
  <path d="M9.10156 47.2461C9.10156 47.9804 9.2035 48.7103 9.44775 49.3945L1.73828 49.3945C0.78125 49.3945 0 48.6133 0 47.6758C0 46.7188 0.78125 45.9375 1.73828 45.9375L9.19284 45.9375ZM59.9609 47.6758C59.9609 48.6133 59.1797 49.3945 58.2422 49.3945L50.5135 49.3945C50.7574 48.7103 50.8594 47.9804 50.8594 47.2461C50.8594 46.8153 50.83 46.3785 50.7681 45.9375L58.2422 45.9375C59.1797 45.9375 59.9609 46.7188 59.9609 47.6758ZM12.4998 38.8477L1.73828 38.8477C0.78125 38.8477 0 38.0664 0 37.1094C0 36.1719 0.78125 35.3906 1.73828 35.3906L16.2213 35.3906C14.7732 36.4244 13.5229 37.5963 12.4998 38.8477ZM59.9609 37.1094C59.9609 38.0664 59.1797 38.8477 58.2422 38.8477L47.4612 38.8477C46.4381 37.5963 45.1878 36.4244 43.7397 35.3906L58.2422 35.3906C59.1797 35.3906 59.9609 36.1719 59.9609 37.1094ZM20.0342 28.3008L1.73828 28.3008C0.78125 28.3008 0 27.5195 0 26.5625C0 25.625 0.78125 24.8438 1.73828 24.8438L18.6035 24.8438C18.9049 26.0889 19.3936 27.2518 20.0342 28.3008ZM59.9609 26.5625C59.9609 27.5195 59.1797 28.3008 58.2422 28.3008L39.9176 28.3008C40.5567 27.2526 41.0455 26.09 41.349 24.8438L58.2422 24.8438C59.1797 24.8438 59.9609 25.625 59.9609 26.5625ZM18.7596 17.7344L1.73828 17.7344C0.78125 17.7344 0 16.9531 0 16.0156C0 15.0586 0.78125 14.2773 1.73828 14.2773L20.4477 14.2773C19.7185 15.3077 19.1449 16.4718 18.7596 17.7344ZM59.9609 16.0156C59.9609 16.9531 59.1797 17.7344 58.2422 17.7344L41.228 17.7344C40.8477 16.4693 40.2813 15.3062 39.5609 14.2773L58.2422 14.2773C59.1797 14.2773 59.9609 15.0586 59.9609 16.0156ZM59.9609 5.46875C59.9609 6.40625 59.1797 7.20703 58.2422 7.20703L1.73828 7.20703C0.78125 7.20703 0 6.40625 0 5.46875C0 4.53125 0.78125 3.73047 1.73828 3.73047L58.2422 3.73047C59.1797 3.73047 59.9609 4.53125 59.9609 5.46875Z" fill="black" fill-opacity="0.85"/>
  <path d="M29.9805 31.1133C34.5898 31.1133 38.6719 26.8945 38.6719 21.5234C38.6719 16.1523 34.5898 12.2461 29.9805 12.2461C25.3906 12.2461 21.2891 16.25 21.2891 21.582C21.2891 26.8945 25.3906 31.1133 29.9805 31.1133ZM17.0898 50.1758L42.8906 50.1758C46.6211 50.1758 47.7344 49.1211 47.7344 47.2461C47.7344 41.8164 40.957 34.2969 29.9805 34.2969C19.0039 34.2969 12.2266 41.8164 12.2266 47.2461C12.2266 49.1211 13.3594 50.1758 17.0898 50.1758Z" fill="black" fill-opacity="0.85"/>
 </g>
</svg>
