<?xml version="1.0" encoding="UTF-8"?>
<!--Generator: Apple Native CoreSVG 326-->
<!DOCTYPE svg
PUBLIC "-//W3C//DTD SVG 1.1//EN"
       "http://www.w3.org/Graphics/SVG/1.1/DTD/svg11.dtd">
<svg version="1.1" xmlns="http://www.w3.org/2000/svg" xmlns:xlink="http://www.w3.org/1999/xlink" viewBox="0 0 46.2891 45.918">
 <g>
  <rect height="45.918" opacity="0" width="46.2891" x="0" y="0"/>
  <path d="M7.59766 45.918L38.3008 45.918C43.3594 45.918 45.918 43.3594 45.918 38.3984L45.918 7.53906C45.918 2.55859 43.3594 0 38.3008 0L7.59766 0C2.55859 0 0 2.53906 0 7.53906L0 38.3984C0 43.3984 2.55859 45.918 7.59766 45.918ZM7.67578 42.4609C4.94141 42.4609 3.45703 41.0156 3.45703 38.2031L3.45703 7.71484C3.45703 4.92188 4.94141 3.45703 7.67578 3.45703L38.2422 3.45703C40.918 3.45703 42.4609 4.92188 42.4609 7.71484L42.4609 38.2031C42.4609 41.0156 40.918 42.4609 38.2422 42.4609Z" fill="black" fill-opacity="0.85"/>
  <path d="M17.168 32.4609C21.2305 32.4609 23.2031 29.9219 23.2031 26.6016C23.2031 23.1836 21.1719 21.875 18.4766 20.8398L17.0508 20.293C15.1562 19.5508 13.8867 18.6523 13.8867 16.6211C13.8867 14.7461 15.0195 13.3789 17.0312 13.3789C18.8867 13.3789 20.0586 14.4922 20.4883 16.4258C20.6641 17.0703 21.0742 17.3438 21.6797 17.3438C22.3438 17.3438 22.7539 16.875 22.7539 16.2305C22.7539 16.0156 22.7148 15.7422 22.6758 15.5273C22.0898 12.9102 19.9414 11.2109 17.0703 11.2109C13.457 11.2109 11.3867 13.6914 11.3867 16.7773C11.3867 19.8047 13.1641 21.4453 16.0156 22.5L17.4414 23.0273C19.375 23.75 20.7031 24.7852 20.7031 26.8555C20.7031 28.7109 19.5312 30.293 17.2266 30.293C15.1758 30.293 13.8672 29.1016 13.457 27.0703C13.3008 26.4453 12.9102 26.1523 12.2852 26.1523C11.6211 26.1523 11.1719 26.6406 11.1719 27.3242C11.1719 27.6172 11.2109 27.9883 11.3086 28.2422C12.0898 30.918 14.1992 32.4609 17.168 32.4609ZM25.2344 37.2656C25.9375 37.2656 26.2695 36.875 26.3867 36.1523L30.4102 13.0469C30.4492 12.8906 30.5078 12.6367 30.5078 12.3242C30.5078 11.6992 30.0781 11.25 29.4336 11.25C28.7305 11.25 28.3984 11.6406 28.2617 12.3633L24.2383 35.4688C24.2188 35.625 24.1602 35.8789 24.1602 36.1914C24.1602 36.8359 24.5898 37.2656 25.2344 37.2656ZM33.7695 32.2461C34.707 32.2461 35.4297 31.5625 35.4297 30.6445C35.4297 29.7461 34.707 29.0234 33.7695 29.0234C32.8516 29.0234 32.168 29.7461 32.168 30.6445C32.168 31.5625 32.8516 32.2461 33.7695 32.2461Z" fill="black" fill-opacity="0.85"/>
 </g>
</svg>
