<?xml version="1.0" encoding="UTF-8"?>
<!--Generator: Apple Native CoreSVG 326-->
<!DOCTYPE svg
PUBLIC "-//W3C//DTD SVG 1.1//EN"
       "http://www.w3.org/Graphics/SVG/1.1/DTD/svg11.dtd">
<svg version="1.1" xmlns="http://www.w3.org/2000/svg" xmlns:xlink="http://www.w3.org/1999/xlink" viewBox="0 0 48.6133 48.2625">
 <g>
  <rect height="48.2625" opacity="0" width="48.6133" x="0" y="0"/>
  <path d="M35.957 48.2426C40.0781 48.2426 43.0078 47.1098 45.5469 44.3363C45.7031 44.141 45.8594 43.9848 46.0156 43.7894C47.5391 42.1488 48.2422 40.5473 48.2422 39.0043C48.2422 37.3246 47.3047 35.684 45.2539 34.2777L39.0039 30.0199C37.1875 28.7699 35.5469 28.6723 33.2617 29.766L29.3164 31.6801C28.5156 32.0707 27.832 32.0707 27.0312 31.5629C25.8984 30.8793 23.2812 28.7894 21.1523 26.6605C19.043 24.4926 17.207 22.2074 16.4258 20.8402C16.0742 20.1957 16.1133 19.7074 16.543 19.0043L18.8477 15.391C19.8242 13.848 20.0586 11.8558 18.8672 10.1762L13.9258 3.00819C12.5 0.957407 10.8984 0.0199069 9.23828 0.000375601C7.71484-0.0191556 6.09375 0.723032 4.45312 2.22694C4.27734 2.38319 4.10156 2.53944 3.90625 2.71522C1.15234 5.21522 0 8.14491 0 12.2465C0 19.3949 4.55078 28.0277 12.3828 35.8598C20.1953 43.6527 28.8086 48.2426 35.957 48.2426ZM35.9766 44.9613C29.5508 45.059 21.4453 40.1762 14.8633 33.6137C8.24219 27.0121 3.18359 18.6527 3.28125 12.2269C3.32031 9.43397 4.29688 6.99256 6.30859 5.17616C6.44531 5.03944 6.5625 4.94178 6.71875 4.82459C7.57812 4.04334 8.47656 3.63319 9.25781 3.63319C10.0391 3.63319 10.7031 3.96522 11.2305 4.766L15.8398 11.6215C16.2891 12.2855 16.2695 12.9301 15.7227 13.848L13.1836 17.891C12.207 19.473 12.3438 20.7621 13.3594 22.1879C14.6484 24.0238 16.7773 26.7387 18.9258 28.9066C21.0742 31.0551 24.043 33.5355 25.7227 34.6683C27.1484 35.6449 28.4961 35.8598 30.5469 34.8832L34.8438 32.8519C35.8789 32.3637 36.7188 32.4808 37.5977 33.0668L43.4961 37.0316C44.2773 37.5394 44.6094 38.2035 44.6094 38.9848C44.6094 39.7855 44.2188 40.684 43.418 41.5433C43.3008 41.6996 43.2031 41.7973 43.0859 41.9535C41.25 43.9848 38.7891 44.9223 35.9766 44.9613Z" fill="black" fill-opacity="0.85"/>
 </g>
</svg>
