<?xml version="1.0" encoding="UTF-8"?>
<!--Generator: Apple Native CoreSVG 326-->
<!DOCTYPE svg
PUBLIC "-//W3C//DTD SVG 1.1//EN"
       "http://www.w3.org/Graphics/SVG/1.1/DTD/svg11.dtd">
<svg version="1.1" xmlns="http://www.w3.org/2000/svg" xmlns:xlink="http://www.w3.org/1999/xlink" viewBox="0 0 55.752 59.8633">
 <g>
  <rect height="59.8633" opacity="0" width="55.752" x="0" y="0"/>
  <path d="M32.2974 40.8203L29.6533 40.8203L29.6533 53.5742C29.6533 56.9727 28.2471 59.8633 27.7002 59.8633C27.1338 59.8633 25.7471 56.9727 25.7471 53.5742L25.7471 40.8203L12.0361 40.8203C9.94629 40.8203 8.61816 39.5312 8.61816 37.5977C8.61816 33.0018 11.7213 28.3201 16.9806 25.5167ZM43.3838 4.23828C43.3838 4.94141 43.0908 5.72266 42.4658 6.54297C41.1572 8.28125 38.1299 10.625 34.7705 12.5781L35.5713 24.2578C42.5244 26.7383 46.7822 32.2266 46.7822 37.5977C46.7822 39.1237 45.9428 40.2483 44.5591 40.6514L20.3572 16.4601L20.6299 12.5781C17.251 10.6445 14.2236 8.28125 12.915 6.54297C12.3096 5.72266 12.0166 4.94141 12.0166 4.23828C12.0166 2.8125 13.0908 1.75781 14.751 1.75781L40.6299 1.75781C42.29 1.75781 43.3838 2.8125 43.3838 4.23828Z" fill="black" fill-opacity="0.85"/>
  <path d="M3.20801 7.89062L48.2471 52.9102C48.9111 53.5742 49.9854 53.5742 50.6104 52.9102C51.2549 52.2461 51.2549 51.2109 50.6104 50.5664L5.57129 5.54688C4.94629 4.90234 3.87207 4.88281 3.20801 5.54688C2.56348 6.17188 2.56348 7.26562 3.20801 7.89062Z" fill="black" fill-opacity="0.85"/>
 </g>
</svg>
