<?xml version="1.0" encoding="UTF-8"?>
<!--Generator: Apple Native CoreSVG 326-->
<!DOCTYPE svg
PUBLIC "-//W3C//DTD SVG 1.1//EN"
       "http://www.w3.org/Graphics/SVG/1.1/DTD/svg11.dtd">
<svg version="1.1" xmlns="http://www.w3.org/2000/svg" xmlns:xlink="http://www.w3.org/1999/xlink" viewBox="0 0 41.8164 55.9961">
 <g>
  <rect height="55.9961" opacity="0" width="41.8164" x="0" y="0"/>
  <path d="M0 49.3555C0 53.3984 2.69531 55.9961 6.875 55.9961L34.5703 55.9961C38.75 55.9961 41.4453 53.3984 41.4453 49.3555L41.4453 6.64062C41.4453 2.59766 38.75 0 34.5703 0L6.875 0C2.69531 0 0 2.59766 0 6.64062ZM3.45703 48.8086L3.45703 7.1875C3.45703 4.80469 4.84375 3.45703 7.28516 3.45703L34.1406 3.45703C36.582 3.45703 37.9688 4.80469 37.9688 7.1875L37.9688 48.8086C37.9688 51.1719 36.582 52.5195 34.1406 52.5195L7.28516 52.5195C4.84375 52.5195 3.45703 51.1719 3.45703 48.8086Z" fill="black" fill-opacity="0.85"/>
  <path d="M10.8203 22.7344L30.625 22.7344C31.9922 22.7344 32.8906 21.8555 32.8906 20.4492L32.8906 14.9414C32.8906 13.5352 31.9922 12.6562 30.625 12.6562L10.8203 12.6562C9.45312 12.6562 8.57422 13.5352 8.57422 14.9414L8.57422 20.4492C8.57422 21.8555 9.45312 22.7344 10.8203 22.7344ZM10.8203 43.2031L30.625 43.2031C31.9922 43.2031 32.8906 42.3047 32.8906 40.8984L32.8906 35.3906C32.8906 33.9844 31.9922 33.1055 30.625 33.1055L10.8203 33.1055C9.45312 33.1055 8.57422 33.9844 8.57422 35.3906L8.57422 40.8984C8.57422 42.3047 9.45312 43.2031 10.8203 43.2031Z" fill="black" fill-opacity="0.85"/>
 </g>
</svg>
