<?xml version="1.0" encoding="UTF-8"?>
<!--Generator: Apple Native CoreSVG 326-->
<!DOCTYPE svg
PUBLIC "-//W3C//DTD SVG 1.1//EN"
       "http://www.w3.org/Graphics/SVG/1.1/DTD/svg11.dtd">
<svg version="1.1" xmlns="http://www.w3.org/2000/svg" xmlns:xlink="http://www.w3.org/1999/xlink" viewBox="0 0 62.3438 49.2383">
 <g>
  <rect height="49.2383" opacity="0" width="62.3438" x="0" y="0"/>
  <path d="M45.2344 47.4609C45.2344 48.418 44.4531 49.1992 43.4961 49.1992L18.4961 49.1992C17.5195 49.1992 16.7383 48.418 16.7383 47.4609C16.7383 46.4844 17.5195 45.7031 18.4961 45.7031L43.4961 45.7031C44.4531 45.7031 45.2344 46.4844 45.2344 47.4609ZM61.9727 6.09375L61.9727 35.0977C61.9727 39.1992 59.9023 41.1914 55.8789 41.1914L6.11328 41.1914C2.08984 41.1914 0 39.1992 0 35.0977L0 6.09375C0 1.99219 2.08984 0 6.11328 0L55.8789 0C59.9023 0 61.9727 1.99219 61.9727 6.09375ZM22.5195 9.92188L22.5195 31.2891C22.5195 32.5586 23.8672 33.0273 24.9023 32.4414L42.4805 22.0898C43.6523 21.4062 43.6133 19.8242 42.4609 19.1406L24.9023 8.78906C23.8672 8.18359 22.5195 8.67188 22.5195 9.92188Z" fill="black" fill-opacity="0.85"/>
 </g>
</svg>
