<?xml version="1.0" encoding="UTF-8"?>
<!--Generator: Apple Native CoreSVG 326-->
<!DOCTYPE svg
PUBLIC "-//W3C//DTD SVG 1.1//EN"
       "http://www.w3.org/Graphics/SVG/1.1/DTD/svg11.dtd">
<svg version="1.1" xmlns="http://www.w3.org/2000/svg" xmlns:xlink="http://www.w3.org/1999/xlink" viewBox="0 0 56.8656 56.5284">
 <g>
  <rect height="56.5284" opacity="0" width="56.8656" x="0" y="0"/>
  <path d="M33.6379 2.70756L53.8137 22.8833C57.3879 26.4576 57.3879 30.0513 53.8527 33.5865L33.5988 53.8599C30.0637 57.3951 26.4699 57.3755 22.8957 53.8013L2.71991 33.6255C-0.873843 30.0513-0.912906 26.4771 2.64178 22.9224L22.9348 2.6685C26.4894-0.905717 30.0637-0.886186 33.6379 2.70756ZM26.4113 18.0982L26.4113 26.3794L18.1301 26.3794C17.0168 26.3794 16.2355 27.1412 16.2355 28.274C16.2355 29.3482 17.0363 30.0904 18.1301 30.0904L26.4113 30.0904L26.4113 38.3912C26.4113 39.4654 27.1535 40.2662 28.2277 40.2662C29.3605 40.2662 30.1223 39.4849 30.1223 38.3912L30.1223 30.0904L38.423 30.0904C39.4973 30.0904 40.298 29.3482 40.298 28.274C40.298 27.1412 39.5168 26.3794 38.423 26.3794L30.1223 26.3794L30.1223 18.0982C30.1223 16.9849 29.3605 16.2037 28.2277 16.2037C27.1535 16.2037 26.4113 17.0044 26.4113 18.0982Z" fill="black" fill-opacity="0.85"/>
 </g>
</svg>
