<?xml version="1.0" encoding="UTF-8"?>
<!--Generator: Apple Native CoreSVG 326-->
<!DOCTYPE svg
PUBLIC "-//W3C//DTD SVG 1.1//EN"
       "http://www.w3.org/Graphics/SVG/1.1/DTD/svg11.dtd">
<svg version="1.1" xmlns="http://www.w3.org/2000/svg" xmlns:xlink="http://www.w3.org/1999/xlink" viewBox="0 0 49.1797 49.2773">
 <g>
  <rect height="49.2773" opacity="0" width="49.1797" x="0" y="0"/>
  <path d="M0 19.7656C0 30.6445 8.86719 39.5117 19.7656 39.5117C24.1602 39.5117 28.2031 38.0664 31.4844 35.625L44.3555 48.5156C44.8438 49.0234 45.5273 49.2773 46.2305 49.2773C47.7734 49.2773 48.8086 48.1055 48.8086 46.6406C48.8086 45.918 48.5547 45.293 48.0859 44.8047L35.2734 31.9336C37.9297 28.5938 39.5312 24.3555 39.5312 19.7656C39.5312 8.86719 30.6641 0 19.7656 0C8.86719 0 0 8.86719 0 19.7656ZM3.65234 19.7656C3.65234 10.8789 10.8789 3.65234 19.7656 3.65234C28.6523 3.65234 35.8594 10.8789 35.8594 19.7656C35.8594 28.6328 28.6523 35.8594 19.7656 35.8594C10.8789 35.8594 3.65234 28.6328 3.65234 19.7656ZM11.6016 19.7656C11.6016 20.6445 12.3047 21.3477 13.2031 21.3477L18.1641 21.3477L18.1641 26.3086C18.1641 27.207 18.8672 27.9102 19.7656 27.8906C20.6445 27.9102 21.3477 27.1875 21.3477 26.3086L21.3477 21.3477L26.3086 21.3477C27.1875 21.3477 27.8906 20.6445 27.8906 19.7656C27.8906 18.8672 27.1875 18.1641 26.3086 18.1641L21.3477 18.1641L21.3477 13.2031C21.3477 12.3047 20.6445 11.6016 19.7656 11.6016C18.8672 11.6016 18.1641 12.3047 18.1641 13.2031L18.1641 18.1641L13.2031 18.1641C12.3047 18.1641 11.6016 18.8672 11.6016 19.7656Z" fill="black" fill-opacity="0.85"/>
 </g>
</svg>
