<?xml version="1.0" encoding="UTF-8"?>
<!--Generator: Apple Native CoreSVG 326-->
<!DOCTYPE svg
PUBLIC "-//W3C//DTD SVG 1.1//EN"
       "http://www.w3.org/Graphics/SVG/1.1/DTD/svg11.dtd">
<svg version="1.1" xmlns="http://www.w3.org/2000/svg" xmlns:xlink="http://www.w3.org/1999/xlink" viewBox="0 0 55.3906 54.5508">
 <g>
  <rect height="54.5508" opacity="0" width="55.3906" x="0" y="0"/>
  <path d="M14.8438 54.5508C15.918 54.5508 16.6602 53.9844 17.9297 52.8516L26.7383 45.0977L44.0039 45.0977C51.0742 45.0977 55.0195 41.0547 55.0195 34.1016L55.0195 14.1797C55.0195 7.20703 51.0742 3.16406 44.0039 3.16406L11.0156 3.16406C3.92578 3.16406 0 7.1875 0 14.1797L0 34.1016C0 41.0938 3.92578 45.0977 11.0156 45.0977L12.4805 45.0977L12.4805 51.8164C12.4805 53.4766 13.3398 54.5508 14.8438 54.5508ZM15.7031 50.625L15.7031 43.2812C15.7031 42.0898 15.2539 41.6406 14.082 41.6406L11.0352 41.6406C5.99609 41.6406 3.45703 38.9453 3.45703 34.0625L3.45703 14.1992C3.45703 9.31641 5.99609 6.62109 11.0352 6.62109L43.9844 6.62109C48.9648 6.62109 51.5625 9.31641 51.5625 14.1992L51.5625 34.0625C51.5625 38.9453 48.9648 41.6406 43.9844 41.6406L26.6602 41.6406C25.4297 41.6406 24.7852 41.8359 23.9258 42.7148Z" fill="black" fill-opacity="0.85"/>
  <path d="M15.9766 24.1406C15.9766 25.1758 16.7383 25.8984 17.832 25.8984L25.7227 25.8984L25.7227 33.8086C25.7227 34.8828 26.4648 35.6445 27.4805 35.6445C28.5742 35.6445 29.3164 34.9023 29.3164 33.8086L29.3164 25.8984L37.2266 25.8984C38.3008 25.8984 39.0625 25.1758 39.0625 24.1406C39.0625 23.0664 38.3203 22.3047 37.2266 22.3047L29.3164 22.3047L29.3164 14.4141C29.3164 13.3203 28.5742 12.5586 27.4805 12.5586C26.4648 12.5586 25.7227 13.3203 25.7227 14.4141L25.7227 22.3047L17.832 22.3047C16.7383 22.3047 15.9766 23.0664 15.9766 24.1406Z" fill="black" fill-opacity="0.85"/>
 </g>
</svg>
