<?xml version="1.0" encoding="UTF-8"?>
<!--Generator: Apple Native CoreSVG 326-->
<!DOCTYPE svg
PUBLIC "-//W3C//DTD SVG 1.1//EN"
       "http://www.w3.org/Graphics/SVG/1.1/DTD/svg11.dtd">
<svg version="1.1" xmlns="http://www.w3.org/2000/svg" xmlns:xlink="http://www.w3.org/1999/xlink" viewBox="0 0 60.4102 49.8382">
 <g>
  <rect height="49.8382" opacity="0" width="60.4102" x="0" y="0"/>
  <path d="M60.0391 29.9093C60.0391 14.1867 47.9492 1.29605 32.5977 0.00698344C31.7969-0.0711416 31.1719 0.514796 31.1719 1.33511L31.1719 9.32339C31.1719 9.98745 31.6602 10.5148 32.3438 10.5734C41.9727 11.7453 49.4531 19.9484 49.4531 29.9093C49.4531 34.4406 47.9102 38.6007 45.1758 42.0382C44.8047 42.507 44.8242 43.0929 45.2344 43.5031L51.0352 49.3039C51.6211 49.8703 52.4609 49.8703 52.9688 49.2453C57.3828 44.0109 60.0391 37.2531 60.0391 29.9093Z" fill="black" fill-opacity="0.85"/>
  <path d="M0 29.9093C0 37.2726 2.65625 44.05 7.08984 49.2843C7.57812 49.8703 8.39844 49.8703 8.98438 49.3039L14.7852 43.5031C15.1953 43.0929 15.2148 42.507 14.8438 42.0382C12.1094 38.6007 10.5664 34.4406 10.5664 29.9093C10.5664 19.9484 18.0664 11.7453 27.6758 10.5734C28.3789 10.5148 28.8477 9.98745 28.8477 9.32339L28.8477 1.33511C28.8477 0.514796 28.2422-0.0711416 27.4414 0.00698344C12.0703 1.29605 0 14.1867 0 29.9093Z" fill="black" fill-opacity="0.85"/>
  <path d="M21.7188 40.6515L29.8242 40.6515C30.4297 40.6515 30.8789 40.2218 30.8789 39.6359C30.8789 39.0695 30.4297 38.6593 29.8242 38.6593L23.7109 38.6593L23.7109 38.4054L30.3125 27.6828C30.5859 27.2531 30.7812 26.921 30.7812 26.4523C30.7812 25.8468 30.4297 25.2609 29.5117 25.2609L21.582 25.2609C20.9961 25.2609 20.5469 25.6906 20.5469 26.2375C20.5469 26.8234 20.9961 27.2531 21.582 27.2531L27.8125 27.2531L27.8125 27.4875L20.957 38.4445C20.7227 38.796 20.5469 39.1281 20.5469 39.4992C20.5469 40.1828 21.0156 40.6515 21.7188 40.6515ZM35.8398 40.925C36.6016 40.925 37.0898 40.4171 37.0898 39.5968L37.0898 20.2609C37.0898 19.421 36.6016 18.9132 35.8398 18.9132C35.0586 18.9132 34.5898 19.421 34.5898 20.2414L34.5898 39.5968C34.5898 40.4171 35.0586 40.925 35.8398 40.925ZM33.457 31.8234L39.3164 28.6593C39.7656 28.4054 39.9414 28.0539 39.9414 27.7023C39.9414 27.0187 39.2578 26.3937 38.4375 26.8039L32.5195 30.0265C32.0703 30.2609 31.8555 30.6515 31.8555 31.0031C31.8555 31.6867 32.5781 32.2921 33.457 31.8234Z" fill="black" fill-opacity="0.85"/>
 </g>
</svg>
