<?xml version="1.0" encoding="UTF-8"?>
<!--Generator: Apple Native CoreSVG 326-->
<!DOCTYPE svg
PUBLIC "-//W3C//DTD SVG 1.1//EN"
       "http://www.w3.org/Graphics/SVG/1.1/DTD/svg11.dtd">
<svg version="1.1" xmlns="http://www.w3.org/2000/svg" xmlns:xlink="http://www.w3.org/1999/xlink" viewBox="0 0 53.0469 69.082">
 <g>
  <rect height="69.082" opacity="0" width="53.0469" x="0" y="0"/>
  <path d="M17.168 28.3594L20.2344 62.2461L16.3672 62.2461C12.9688 62.2461 11.2891 60.3516 10.6641 57.0312L5.58594 30.2344C4.66797 25.4297 8.02734 22.8516 11.3477 22.8516C14.082 22.8516 16.8359 24.6094 17.168 28.3594ZM32.3438 28.5547L30.5774 48.2121C27.3464 49.7091 25.3125 52.9054 25.3125 56.4648C25.3125 58.6535 26.0638 60.6687 27.3762 62.2461L23.1055 62.2461L20.0781 28.5547C19.6875 24.1211 23.3594 22.1289 26.2109 22.1289C29.0625 22.1289 32.7344 24.1211 32.3438 28.5547ZM46.8359 30.2344L44.3287 43.4649C42.9312 42.5407 41.2276 42.0117 39.3555 42.0117C37.2617 42.0117 35.3496 42.69 33.8521 43.8502L35.2539 28.3594C35.5859 24.6094 38.3398 22.8516 41.0742 22.8516C44.3945 22.8516 47.7539 25.4297 46.8359 30.2344ZM28.1836 7.08984C29.0039 6.91406 29.9414 6.95312 30.6641 7.1875C31.8164 6.07422 33.3594 5.44922 35.0586 5.44922C37.7344 5.44922 39.707 7.10938 40.625 9.53125C44.5117 9.60938 47.3047 12.6172 47.3047 16.7773C47.3047 18.4375 46.7578 19.9023 45.8789 21.1133C44.4336 20.2344 42.7148 19.7656 41.0156 19.7656C38.3789 19.7656 35.7422 20.8203 34.043 23.0273C32.3047 20.4688 29.2773 19.0234 26.2109 19.0234C23.1445 19.0234 20.1172 20.4688 18.3789 23.0273C16.6797 20.8203 14.0625 19.7656 11.4453 19.7656C9.72656 19.7656 7.98828 20.2344 6.52344 21.0938C5.80078 19.9414 5.48828 18.7305 5.48828 17.4023C5.48828 13.7109 8.53516 10.625 12.207 10.7227C12.207 8.75 13.9844 6.99219 16.0156 7.26562C16.4648 5.11719 18.7891 3.08594 22.168 3.08594C24.8047 3.08594 27.1484 4.64844 28.1836 7.08984Z" fill="black" fill-opacity="0.85"/>
  <path d="M39.3555 65.957C41.7969 65.957 44.0234 64.5117 44.9609 62.3828C48.2617 61.7578 49.9414 59.1992 49.9414 56.5039C49.9414 53.7891 48.2031 51.2891 45.1367 50.8203C45.1172 47.5391 42.6758 45.1367 39.3555 45.1367C36.1719 45.1367 33.7305 47.4023 33.6328 50.5078C30.3711 51.0156 28.418 53.6719 28.418 56.4648C28.418 59.3555 30.4297 61.9531 33.8086 62.4414C34.6094 64.5117 36.8359 65.957 39.3555 65.957Z" fill="black" fill-opacity="0.85"/>
 </g>
</svg>
