<?xml version="1.0" encoding="UTF-8"?>
<!--Generator: Apple Native CoreSVG 326-->
<!DOCTYPE svg
PUBLIC "-//W3C//DTD SVG 1.1//EN"
       "http://www.w3.org/Graphics/SVG/1.1/DTD/svg11.dtd">
<svg version="1.1" xmlns="http://www.w3.org/2000/svg" xmlns:xlink="http://www.w3.org/1999/xlink" viewBox="0 0 46.2891 45.918">
 <g>
  <rect height="45.918" opacity="0" width="46.2891" x="0" y="0"/>
  <path d="M7.59766 45.918L38.3008 45.918C43.3594 45.918 45.918 43.3594 45.918 38.3984L45.918 7.53906C45.918 2.55859 43.3594 0 38.3008 0L7.59766 0C2.55859 0 0 2.53906 0 7.53906L0 38.3984C0 43.3984 2.55859 45.918 7.59766 45.918ZM7.67578 42.4609C4.94141 42.4609 3.45703 41.0156 3.45703 38.2031L3.45703 7.71484C3.45703 4.92188 4.94141 3.45703 7.67578 3.45703L38.2422 3.45703C40.918 3.45703 42.4609 4.92188 42.4609 7.71484L42.4609 38.2031C42.4609 41.0156 40.918 42.4609 38.2422 42.4609Z" fill="black" fill-opacity="0.85"/>
  <path d="M13.1055 34.668L32.8125 34.668C34.1016 34.668 35.0391 33.7109 35.0391 32.4219L35.0391 13.4766C35.0391 12.168 34.1016 11.2305 32.8125 11.2305L13.1055 11.2305C11.8164 11.2305 10.8594 12.168 10.8594 13.4766L10.8594 32.4219C10.8594 33.7109 11.8164 34.668 13.1055 34.668ZM22.9688 21.1523C21.3086 21.1523 19.9609 19.8047 19.9609 18.1445C19.9609 16.4844 21.3086 15.1367 22.9688 15.1367C24.6484 15.1367 25.9961 16.4844 25.9961 18.1445C25.9961 19.8047 24.6484 21.1523 22.9688 21.1523ZM17.5586 30.7227C16.1719 30.7227 15.0586 29.6094 15.0586 28.2422C15.0586 26.8555 16.1719 25.7617 17.5586 25.7617C18.9258 25.7617 20.0391 26.8555 20.0391 28.2422C20.0391 29.6094 18.9258 30.7227 17.5586 30.7227ZM28.3984 30.7227C27.0312 30.7227 25.918 29.6094 25.918 28.2422C25.918 26.8555 27.0312 25.7617 28.3984 25.7617C29.7656 25.7617 30.8984 26.8555 30.8984 28.2422C30.8984 29.6094 29.7656 30.7227 28.3984 30.7227Z" fill="black" fill-opacity="0.85"/>
 </g>
</svg>
