<?xml version="1.0" encoding="UTF-8"?>
<!--Generator: Apple Native CoreSVG 326-->
<!DOCTYPE svg
PUBLIC "-//W3C//DTD SVG 1.1//EN"
       "http://www.w3.org/Graphics/SVG/1.1/DTD/svg11.dtd">
<svg version="1.1" xmlns="http://www.w3.org/2000/svg" xmlns:xlink="http://www.w3.org/1999/xlink" viewBox="0 0 61.9336 38.5742">
 <g>
  <rect height="38.5742" opacity="0" width="61.9336" x="0" y="0"/>
  <path d="M0 22.7148C0 25.8008 1.75781 27.5391 4.86328 27.5391L15.2148 27.5391C18.1055 27.5391 19.6094 28.7891 21.582 31.4453C24.9023 35.957 30.1172 38.3594 35.5664 38.3594L43.4375 38.3594C46.4844 38.3594 47.8516 36.6406 47.8516 33.5742L47.8516 30.7031L58.3398 30.7031C60.1172 30.7031 61.5625 29.2969 61.5625 27.5195C61.5625 25.7031 60.1172 24.2773 58.3398 24.2773L47.8516 24.2773L47.8516 14.0625L58.3398 14.0625C60.1172 14.0625 61.5625 12.6172 61.5625 10.8594C61.5625 9.0625 60.1172 7.61719 58.3398 7.61719L47.8516 7.61719L47.8516 4.6875C47.8516 1.64062 46.4844 0 43.4375 0L35.5664 0C30.1172 0 24.9023 2.34375 21.582 6.89453C19.6094 9.58984 18.1055 10.8203 15.2148 10.8203L4.86328 10.8203C1.77734 10.8203 0 12.5 0 15.625ZM3.45703 22.7148L3.45703 15.625C3.45703 14.8438 4.04297 14.2773 4.86328 14.2773L15.2148 14.2773C19.2578 14.2773 21.7188 12.5195 24.3555 8.96484C27.1484 5.17578 30.8984 3.45703 35.5664 3.45703L43.0469 3.45703C43.8281 3.45703 44.3945 3.96484 44.3945 4.6875L44.3945 33.5742C44.3945 34.3555 43.8281 34.8828 43.0469 34.8828L35.5664 34.8828C30.918 34.8828 27.1289 33.1445 24.3555 29.3945C21.7188 25.8398 19.2773 24.082 15.2148 24.082L4.86328 24.082C4.04297 24.082 3.45703 23.5156 3.45703 22.7148Z" fill="black" fill-opacity="0.85"/>
 </g>
</svg>
