<?xml version="1.0" encoding="UTF-8"?>
<!--Generator: Apple Native CoreSVG 326-->
<!DOCTYPE svg
PUBLIC "-//W3C//DTD SVG 1.1//EN"
       "http://www.w3.org/Graphics/SVG/1.1/DTD/svg11.dtd">
<svg version="1.1" xmlns="http://www.w3.org/2000/svg" xmlns:xlink="http://www.w3.org/1999/xlink" viewBox="0 0 56.5625 54.3555">
 <g>
  <rect height="54.3555" opacity="0" width="56.5625" x="0" y="0"/>
  <path d="M46.2891 7.32422L46.2891 9.02344L42.9102 9.02344L42.9102 7.10938C42.9102 4.82422 41.8555 3.76953 39.5703 3.76953L16.6211 3.76953C14.3359 3.76953 13.2812 4.82422 13.2812 7.10938L13.2813 9.02344L9.90234 9.02344L9.90234 7.32422C9.90234 2.67578 12.3828 0.605469 16.6602 0.605469L39.5312 0.605469C44.0039 0.605469 46.2891 2.67578 46.2891 7.32422Z" fill="black" fill-opacity="0.85"/>
  <path d="M56.1914 16.1133L56.1914 39.7461C56.1914 44.4531 53.7305 46.8359 49.0039 46.8359L46.1523 46.8359L46.1523 43.5742L49.043 43.5742C51.5039 43.5742 52.6953 42.3438 52.6953 39.9023L52.6953 15.957C52.6953 13.5156 51.5039 12.3047 49.043 12.3047L7.14844 12.3047C4.6875 12.3047 3.47656 13.5156 3.47656 15.957L3.47656 39.9023C3.47656 42.3438 4.6875 43.5742 7.14844 43.5742L10.0391 43.5742L10.0391 46.8359L7.1875 46.8359C2.46094 46.8359 0 44.4531 0 39.7461L0 16.1133C0 11.4062 2.67578 9.02344 7.1875 9.02344L49.0039 9.02344C53.7305 9.02344 56.1914 11.4062 56.1914 16.1133ZM46.2891 18.418C46.2891 20.0977 44.9023 21.4844 43.2422 21.4844C41.543 21.4844 40.1562 20.1367 40.1562 18.418C40.1562 16.7578 41.543 15.3516 43.2422 15.3516C44.9023 15.3516 46.2891 16.7578 46.2891 18.418Z" fill="black" fill-opacity="0.85"/>
  <path d="M14.9805 54.3555L41.2109 54.3555C44.5117 54.3555 46.1523 52.8516 46.1523 49.4336L46.1523 29.2383C46.1523 25.8203 44.5117 24.3164 41.2109 24.3164L14.9805 24.3164C11.7969 24.3164 10.0391 25.8203 10.0391 29.2383L10.0391 49.4336C10.0391 52.8516 11.6797 54.3555 14.9805 54.3555ZM19.5898 34.1992C18.3594 34.1992 17.3438 33.2227 17.3438 31.9531C17.3438 30.6836 18.3594 29.707 19.5898 29.707C20.8594 29.707 21.8555 30.6836 21.8555 31.9531C21.8555 33.2227 20.8594 34.1992 19.5898 34.1992ZM19.5898 41.582C18.3594 41.582 17.3438 40.6055 17.3438 39.3359C17.3438 38.0664 18.3594 37.0898 19.5898 37.0898C20.8594 37.0898 21.8555 38.0664 21.8555 39.3359C21.8555 40.6055 20.8594 41.582 19.5898 41.582ZM19.5898 48.9453C18.3594 48.9453 17.3438 47.9688 17.3438 46.6992C17.3438 45.4492 18.3594 44.4531 19.5898 44.4531C20.8594 44.4531 21.8555 45.4492 21.8555 46.6992C21.8555 47.9688 20.8594 48.9453 19.5898 48.9453ZM36.6211 34.1992C35.3906 34.1992 34.375 33.2227 34.375 31.9531C34.375 30.6836 35.3906 29.707 36.6211 29.707C37.8711 29.707 38.9062 30.6836 38.9062 31.9531C38.9062 33.2227 37.8711 34.1992 36.6211 34.1992ZM36.6211 41.582C35.3906 41.582 34.375 40.6055 34.375 39.3359C34.375 38.0664 35.3906 37.0898 36.6211 37.0898C37.8711 37.0898 38.9062 38.0664 38.9062 39.3359C38.9062 40.6055 37.8711 41.582 36.6211 41.582ZM36.6211 48.9453C35.3906 48.9453 34.375 47.9688 34.375 46.6992C34.375 45.4492 35.3906 44.4531 36.6211 44.4531C37.8711 44.4531 38.9062 45.4492 38.9062 46.6992C38.9062 47.9688 37.8711 48.9453 36.6211 48.9453Z" fill="black" fill-opacity="0.85"/>
 </g>
</svg>
