<?xml version="1.0" encoding="UTF-8"?>
<!--Generator: Apple Native CoreSVG 326-->
<!DOCTYPE svg
PUBLIC "-//W3C//DTD SVG 1.1//EN"
       "http://www.w3.org/Graphics/SVG/1.1/DTD/svg11.dtd">
<svg version="1.1" xmlns="http://www.w3.org/2000/svg" xmlns:xlink="http://www.w3.org/1999/xlink" viewBox="0 0 44.5898 53.8867">
 <g>
  <rect height="53.8867" opacity="0" width="44.5898" x="0" y="0"/>
  <path d="M29.5117 53.8867C38.457 53.8867 44.2188 48.125 44.2188 39.1797L44.2188 26.3867C44.2188 23.0273 43.1836 20.332 41.1133 18.418L25.1953 3.78906C22.1484 0.976562 18.9258 0 15.0391 0L7.28516 0C2.87109 0 0 2.87109 0 7.30469L0 46.6016C0 51.1719 2.71484 53.8867 7.34375 53.8867ZM29.4141 50.4297L7.42188 50.4297C4.66797 50.4297 3.45703 49.3555 3.45703 46.543L3.45703 7.38281C3.45703 4.98047 4.92188 3.45703 7.36328 3.45703L14.9609 3.45703C18.1055 3.45703 20.5078 4.23828 22.8125 6.32812L38.6914 20.8984C40.1367 22.2266 40.7422 23.8867 40.7422 26.4453L40.7422 39.1016C40.7422 46.2891 36.582 50.4297 29.4141 50.4297Z" fill="black" fill-opacity="0.85"/>
  <path d="M11.0156 41.9141C11.9336 41.9141 12.5 41.2891 12.5 40.332L12.5 34.1211L15.0586 34.1211L17.7344 40.7031C18.0273 41.4844 18.4766 41.9141 19.2969 41.9141C20 41.9141 20.7227 41.4844 20.7227 40.4492C20.7227 40.2148 20.5859 39.8047 20.4102 39.3555L17.9102 33.4766C19.8242 32.5586 20.7617 30.5859 20.7617 28.3008C20.7617 24.5898 18.5742 22.5 14.9609 22.5L10.9766 22.5C10 22.5 9.47266 23.0859 9.47266 24.0625L9.47266 40.332C9.47266 41.2695 10.0195 41.9141 11.0156 41.9141ZM12.5 31.8555L12.5 24.9219L14.668 24.9219C16.6211 24.9219 17.7148 26.2891 17.7148 28.3594C17.7148 30.3711 16.7773 31.8555 14.6875 31.8555ZM24.8633 41.6406L33.0469 41.6406C33.7891 41.6406 34.2383 41.1328 34.2383 40.4102C34.2383 39.6289 33.7695 39.1797 33.0469 39.1797L27.1484 39.1797L27.1484 39.0234L30.8789 34.1602C33.1055 31.3086 33.8672 29.5703 33.8672 27.5C33.8672 24.375 31.8359 22.0312 28.6328 22.0312C25.6641 22.0312 23.4961 24.5508 23.4961 27.0312C23.4961 27.7734 23.9258 28.3398 24.7461 28.3398C25.4297 28.3398 25.8594 28.0078 26.0547 27.3438C26.4648 25.6055 27.1289 24.4531 28.6328 24.4531C30.2344 24.4531 31.0547 25.918 31.0547 27.6367C31.0547 29.5117 29.8828 31.3281 28.5742 33.0664L24.1992 38.7891C23.8281 39.2773 23.457 39.7852 23.457 40.4297C23.457 41.1328 23.9258 41.6406 24.8633 41.6406Z" fill="black" fill-opacity="0.85"/>
 </g>
</svg>
