<?xml version="1.0" encoding="UTF-8"?>
<!--Generator: Apple Native CoreSVG 326-->
<!DOCTYPE svg
PUBLIC "-//W3C//DTD SVG 1.1//EN"
       "http://www.w3.org/Graphics/SVG/1.1/DTD/svg11.dtd">
<svg version="1.1" xmlns="http://www.w3.org/2000/svg" xmlns:xlink="http://www.w3.org/1999/xlink" viewBox="0 0 63.9135 54.1633">
 <g>
  <rect height="54.1633" opacity="0" width="63.9135" x="0" y="0"/>
  <path d="M49.4275 6.27112L50.6497 13.2242L47.1353 13.2242L46.0486 7.05237C45.5603 4.29846 43.8025 3.14612 41.1657 3.61487L7.02512 9.61096C4.34934 10.1188 3.1384 11.7789 3.62669 14.5524L7.70872 37.7164C8.197 40.4703 9.91575 41.6422 12.5915 41.1735L13.5486 41.0048L13.5486 44.5192L13.1384 44.5914C8.1384 45.4703 5.18919 43.4196 4.32981 38.4977L0.189186 14.9625C-0.670189 10.0406 1.40012 7.11096 6.36106 6.23206L40.6189 0.196899C45.5993-0.682007 48.5681 1.38831 49.4275 6.27112Z" fill="black" fill-opacity="0.85"/>
  <path d="M21.1462 52.1696L55.9314 52.1696C60.9704 52.1696 63.5486 49.611 63.5486 44.65L63.5486 20.7438C63.5486 15.7828 60.9704 13.2242 55.9314 13.2242L21.1462 13.2242C16.0876 13.2242 13.5486 15.7633 13.5486 20.7438L13.5486 44.65C13.5486 49.65 16.0876 52.1696 21.1462 52.1696ZM21.2048 48.7125C18.49 48.7125 17.0056 47.2672 17.0056 44.4742L17.0056 20.9391C17.0056 18.1266 18.49 16.6813 21.2048 16.6813L55.8728 16.6813C58.5486 16.6813 60.072 18.1266 60.072 20.9391L60.072 44.4742C60.072 47.2672 58.5486 48.7125 55.8728 48.7125Z" fill="black" fill-opacity="0.85"/>
 </g>
</svg>
