<?xml version="1.0" encoding="UTF-8"?>
<!--Generator: Apple Native CoreSVG 326-->
<!DOCTYPE svg
PUBLIC "-//W3C//DTD SVG 1.1//EN"
       "http://www.w3.org/Graphics/SVG/1.1/DTD/svg11.dtd">
<svg version="1.1" xmlns="http://www.w3.org/2000/svg" xmlns:xlink="http://www.w3.org/1999/xlink" viewBox="0 0 54.4824 56.7237">
 <g>
  <rect height="56.7237" opacity="0" width="54.4824" x="0" y="0"/>
  <path d="M13.4619 48.1763C13.4619 50.481 14.7119 51.7505 17.1729 51.7505L36.9971 51.7505C39.4775 51.7505 40.7275 50.481 40.7275 48.1763L40.7275 46.9628L43.8137 50.0503C43.2528 53.0282 40.9198 54.9146 37.3877 54.9146L16.7822 54.9146C12.7002 54.9146 10.2197 52.395 10.2197 48.5864L10.2197 46.1646L13.4619 46.1646ZM43.9502 37.7585L40.7275 34.533L40.7275 28.8989L43.9502 28.8989ZM13.4619 19.6854L13.4619 26.9653L10.2197 26.9653L10.2093 16.4314ZM43.9307 7.27784L43.9307 9.69972L40.708 9.69972L40.708 7.688C40.708 5.38331 39.458 4.11378 36.9775 4.11378L17.1533 4.11378C14.8496 4.11378 13.6242 5.22629 13.4773 7.2593L10.7288 4.5084C11.653 2.29452 13.7804 0.949717 16.7627 0.949717L37.3682 0.949717C41.4502 0.949717 43.9307 3.46925 43.9307 7.27784Z" fill="black" fill-opacity="0.85"/>
  <path d="M10.5908 31.0669L10.5908 34.9341L10.4541 38.5083L13.4033 35.4028L17.5439 31.2427C17.8564 30.9107 18.2275 30.7935 18.5791 30.7935C19.4385 30.7935 20.2393 31.5552 20.2393 32.4146C20.2393 32.7857 20.1025 33.1567 19.7705 33.4888L15.6104 37.6099L12.4854 40.5786L16.0986 40.4419L19.79 40.4419C20.7471 40.4419 21.2354 41.145 21.2354 41.8677C21.2354 42.5708 20.7666 43.2739 19.8486 43.2739L9.55566 43.2739C8.40332 43.2739 7.75879 42.6294 7.75879 41.4771L7.75879 31.0083C7.75879 30.0708 8.46191 29.6216 9.14551 29.6216C9.86816 29.6216 10.5908 30.1099 10.5908 31.0669ZM46.3916 14.3872L46.3916 24.856C46.3916 25.7935 45.708 26.2427 45.0049 26.2427C44.2822 26.2427 43.5596 25.7544 43.5596 24.7974L43.5596 20.9302L43.6963 17.356L40.7471 20.481L36.626 24.6216C36.2939 24.9536 35.9229 25.0708 35.5713 25.0708C34.7119 25.0708 33.9307 24.3091 33.9307 23.4497C33.9307 23.0786 34.0479 22.7271 34.3994 22.3755L38.54 18.2544L41.665 15.2857L38.0518 15.4224L34.3799 15.4224C33.4229 15.4224 32.9346 14.6997 32.9346 13.9966C32.9346 13.2935 33.4033 12.5903 34.3213 12.5903L44.5947 12.5903C45.7471 12.5903 46.3916 13.2349 46.3916 14.3872Z" fill="black" fill-opacity="0.85"/>
  <path d="M48.5596 50.9497C49.1846 51.5747 50.2783 51.5942 50.9033 50.9497C51.5479 50.2857 51.5674 49.231 50.9033 48.5864L5.57129 3.21534C4.94629 2.57081 3.87207 2.55128 3.20801 3.21534C2.56348 3.84034 2.56348 4.93409 3.20801 5.57862Z" fill="black" fill-opacity="0.85"/>
 </g>
</svg>
