<?xml version="1.0" encoding="UTF-8"?>
<!--Generator: Apple Native CoreSVG 326-->
<!DOCTYPE svg
PUBLIC "-//W3C//DTD SVG 1.1//EN"
       "http://www.w3.org/Graphics/SVG/1.1/DTD/svg11.dtd">
<svg version="1.1" xmlns="http://www.w3.org/2000/svg" xmlns:xlink="http://www.w3.org/1999/xlink" viewBox="0 0 55.9375 45.957">
 <g>
  <rect height="45.957" opacity="0" width="55.9375" x="0" y="0"/>
  <path d="M34.4141 45.957L51.0742 45.957C54.043 45.957 55.5664 44.5117 55.5664 41.4062L55.5664 29.707C55.5664 26.6016 54.043 25.1367 51.0742 25.1367L34.4141 25.1367C31.4258 25.1367 29.9219 26.6016 29.9219 29.707L29.9219 41.4062C29.9219 44.5117 31.4258 45.957 34.4141 45.957Z" fill="black" fill-opacity="0.85"/>
  <path d="M4.49219 45.957L21.1523 45.957C24.1211 45.957 25.6445 44.5117 25.6445 41.4062L25.6445 29.707C25.6445 26.6016 24.1211 25.1367 21.1523 25.1367L4.49219 25.1367C1.52344 25.1367 0 26.6016 0 29.707L0 41.4062C0 44.5117 1.52344 45.957 4.49219 45.957Z" fill="black" fill-opacity="0.85"/>
  <path d="M34.4141 20.8594L51.0742 20.8594C54.043 20.8594 55.5664 19.4141 55.5664 16.3086L55.5664 4.60938C55.5664 1.50391 54.043 0.0585938 51.0742 0.0585938L34.4141 0.0585938C31.4258 0.0585938 29.9219 1.50391 29.9219 4.60938L29.9219 16.3086C29.9219 19.4141 31.4258 20.8594 34.4141 20.8594Z" fill="black" fill-opacity="0.85"/>
  <path d="M4.49219 20.8594L21.1523 20.8594C24.1211 20.8594 25.6445 19.4141 25.6445 16.3086L25.6445 4.60938C25.6445 1.50391 24.1211 0.0585938 21.1523 0.0585938L4.49219 0.0585938C1.52344 0.0585938 0 1.50391 0 4.60938L0 16.3086C0 19.4141 1.52344 20.8594 4.49219 20.8594Z" fill="black" fill-opacity="0.85"/>
 </g>
</svg>
