<?xml version="1.0" encoding="UTF-8"?>
<!--Generator: Apple Native CoreSVG 326-->
<!DOCTYPE svg
PUBLIC "-//W3C//DTD SVG 1.1//EN"
       "http://www.w3.org/Graphics/SVG/1.1/DTD/svg11.dtd">
<svg version="1.1" xmlns="http://www.w3.org/2000/svg" xmlns:xlink="http://www.w3.org/1999/xlink" viewBox="0 0 51.25 50.918">
 <g>
  <rect height="50.918" opacity="0" width="51.25" x="0" y="0"/>
  <path d="M25.4297 50.8789C39.4727 50.8789 50.8789 39.4922 50.8789 25.4492C50.8789 11.4062 39.4727 0 25.4297 0C11.3867 0 0 11.4062 0 25.4492C0 39.4922 11.3867 50.8789 25.4297 50.8789ZM25.4297 47.2461C13.3789 47.2461 3.63281 37.5 3.63281 25.4492C3.63281 13.3984 13.3789 3.65234 25.4297 3.65234C37.4805 3.65234 47.2266 13.3984 47.2266 25.4492C47.2266 37.5 37.4805 47.2461 25.4297 47.2461Z" fill="black" fill-opacity="0.85"/>
  <path d="M9.98047 23.3203L9.98047 24.7461C9.98047 25.5664 10.6445 26.2109 11.4648 26.2109C12.2852 26.2109 12.9492 25.5664 12.9492 24.7461L12.9492 23.457C12.9492 20.957 14.6875 19.3164 17.2656 19.3164L27.207 19.3164L27.207 22.5391C27.207 23.2812 27.6758 23.75 28.3984 23.75C28.7109 23.75 29.043 23.6328 29.3359 23.3984L35 18.8086C35.6445 18.2812 35.6445 17.4219 35 16.875L29.3359 12.2656C29.043 12.0508 28.7109 11.9141 28.3984 11.9141C27.6758 11.9141 27.207 12.3828 27.207 13.125L27.207 16.4062L17.4609 16.4062C12.9492 16.4062 9.98047 19.1406 9.98047 23.3203ZM40.8984 27.6758L40.8984 26.25C40.8984 25.4102 40.2734 24.7852 39.4336 24.7852C38.5742 24.7852 37.9492 25.4102 37.9492 26.25L37.9492 27.5391C37.9492 30.0195 36.2109 31.6797 33.6328 31.6797L23.6914 31.6797L23.6914 28.4766C23.6914 27.7344 23.2227 27.2656 22.5 27.2656C22.1875 27.2656 21.8555 27.3828 21.5625 27.6172L15.8984 32.207C15.2539 32.7344 15.2344 33.6133 15.8984 34.1406L21.5625 38.75C21.8555 38.9648 22.1875 39.1016 22.5 39.1016C23.2227 39.1016 23.6914 38.6328 23.6914 37.8906L23.6914 34.5898L33.4375 34.5898C37.9492 34.5898 40.8984 31.8555 40.8984 27.6758Z" fill="black" fill-opacity="0.85"/>
 </g>
</svg>
