<?xml version="1.0" encoding="UTF-8"?>
<!--Generator: Apple Native CoreSVG 326-->
<!DOCTYPE svg
PUBLIC "-//W3C//DTD SVG 1.1//EN"
       "http://www.w3.org/Graphics/SVG/1.1/DTD/svg11.dtd">
<svg version="1.1" xmlns="http://www.w3.org/2000/svg" xmlns:xlink="http://www.w3.org/1999/xlink" viewBox="0 0 51.25 50.918">
 <g>
  <rect height="50.918" opacity="0" width="51.25" x="0" y="0"/>
  <path d="M25.4297 50.8789C39.4727 50.8789 50.8789 39.4922 50.8789 25.4492C50.8789 11.4062 39.4727 0 25.4297 0C11.3867 0 0 11.4062 0 25.4492C0 39.4922 11.3867 50.8789 25.4297 50.8789ZM25.4297 47.2461C13.3789 47.2461 3.63281 37.5 3.63281 25.4492C3.63281 13.3984 13.3789 3.65234 25.4297 3.65234C37.4805 3.65234 47.2266 13.3984 47.2266 25.4492C47.2266 37.5 37.4805 47.2461 25.4297 47.2461Z" fill="black" fill-opacity="0.85"/>
  <path d="M9.43359 25.3125C9.43359 26.0352 10 26.6406 10.7422 26.6406C11.4844 26.6406 12.0898 26.0352 12.0898 25.3125L12.0898 24.1602C12.0898 21.6406 13.75 20 16.3281 20L22.832 20L22.832 23.2031C22.832 23.8477 23.2617 24.2578 23.9062 24.2578C24.2188 24.2578 24.5117 24.1602 24.7266 23.9648L30.1953 19.5117C30.8008 19.043 30.8008 18.2812 30.1953 17.793L24.7266 13.3594C24.5117 13.1641 24.2188 13.0859 23.9062 13.0859C23.2617 13.0859 22.832 13.4766 22.832 14.1406L22.832 17.3633L16.6406 17.3633C12.207 17.3633 9.43359 19.8828 9.43359 23.9258ZM38.9453 26.7383C38.9453 25.9961 38.3398 25.4297 37.5977 25.4297C36.8555 25.4297 36.25 25.9961 36.25 26.7383L36.25 27.8906C36.25 30.4102 34.5898 32.0508 32.0117 32.0508L22.4219 32.0508L22.4219 28.8867C22.4219 28.2227 22.0117 27.832 21.3477 27.832C21.0352 27.832 20.7422 27.9297 20.5078 28.125L15.0586 32.5586C14.4727 33.0078 14.4922 33.7891 15.0781 34.2578L20.5078 38.6914C20.7422 38.8867 21.0352 38.9844 21.3477 38.9844C22.0312 38.9844 22.4219 38.5938 22.4219 37.9492L22.4219 34.668L31.6992 34.668C36.1523 34.668 38.9453 32.1484 38.9453 28.125ZM37.5781 22.5C38.418 22.5 38.9648 21.9531 38.9648 21.0742L38.9648 14.8438C38.9648 13.8086 38.2812 13.1641 37.2852 13.1641C36.6211 13.1641 36.1523 13.3398 35.4883 13.8281L33.5352 15.293C33.2031 15.5469 33.0859 15.8203 33.0859 16.1719C33.0859 16.6992 33.4961 17.1289 34.082 17.1289C34.2969 17.1289 34.5312 17.0508 34.7656 16.875L36.3086 15.7031L36.1523 15.7031L36.1523 21.0742C36.1523 21.9336 36.6992 22.5 37.5781 22.5Z" fill="black" fill-opacity="0.85"/>
 </g>
</svg>
