<?xml version="1.0" encoding="UTF-8"?>
<!--Generator: Apple Native CoreSVG 326-->
<!DOCTYPE svg
PUBLIC "-//W3C//DTD SVG 1.1//EN"
       "http://www.w3.org/Graphics/SVG/1.1/DTD/svg11.dtd">
<svg version="1.1" xmlns="http://www.w3.org/2000/svg" xmlns:xlink="http://www.w3.org/1999/xlink" viewBox="0 0 61.2891 26.5039">
 <g>
  <rect height="26.5039" opacity="0" width="61.2891" x="0" y="0"/>
  <path d="M60.918 6.58203C60.918 2.28516 58.6133 0 54.2578 0L6.60156 0C2.26562 0 0 2.28516 0 6.58203L0 19.9219C0 24.2188 2.28516 26.5039 6.62109 26.5039L54.2773 26.5039C58.6328 26.5039 60.918 24.2188 60.918 19.9219ZM57.4219 7.16797L57.4219 19.3555C57.4219 21.7578 56.0938 23.0469 53.7695 23.0469L7.10938 23.0469C4.78516 23.0469 3.45703 21.7578 3.45703 19.3555L3.45703 7.16797C3.45703 4.76562 4.78516 3.45703 7.12891 3.45703L53.7891 3.45703C56.0938 3.45703 57.4219 4.76562 57.4219 7.16797ZM9.12109 2.22656L7.22656 2.22656L7.22656 15.2734C7.22656 15.8398 7.65625 16.2109 8.18359 16.2109C8.73047 16.2109 9.12109 15.8203 9.12109 15.2539ZM13.5742 2.22656L11.6992 2.22656L11.6992 10.8789C11.6992 11.4453 12.1094 11.8164 12.6367 11.8164C13.2031 11.8164 13.5742 11.4258 13.5742 10.8594ZM18.0273 2.22656L16.1523 2.22656L16.1523 10.8789C16.1523 11.4453 16.5625 11.8164 17.0898 11.8164C17.6562 11.8164 18.0273 11.4258 18.0273 10.8594ZM22.4609 2.22656L20.5859 2.22656L20.5859 10.8789C20.5859 11.4453 20.9961 11.8164 21.5234 11.8164C22.0898 11.8164 22.4609 11.4258 22.4609 10.8594ZM26.9336 2.22656L25.0586 2.22656L25.0586 10.8789C25.0586 11.4453 25.4688 11.8164 25.9961 11.8164C26.5625 11.8164 26.9336 11.4258 26.9336 10.8594ZM31.4062 2.22656L29.5312 2.22656L29.5312 15.2734C29.5312 15.8398 29.9414 16.2109 30.4688 16.2109C31.0352 16.2109 31.4062 15.8203 31.4062 15.2539ZM35.8594 2.22656L33.9648 2.22656L33.9648 10.8789C33.9648 11.4453 34.3945 11.8164 34.9219 11.8164C35.4688 11.8164 35.8594 11.4258 35.8594 10.8594ZM40.3125 2.22656L38.4375 2.22656L38.4375 10.8789C38.4375 11.4453 38.8477 11.8164 39.375 11.8164C39.9414 11.8164 40.3125 11.4258 40.3125 10.8594ZM44.7656 2.22656L42.8906 2.22656L42.8906 10.8789C42.8906 11.4453 43.3008 11.8164 43.8281 11.8164C44.375 11.8164 44.7656 11.4258 44.7656 10.8594ZM49.2188 2.22656L47.3438 2.22656L47.3438 10.8789C47.3438 11.4453 47.7539 11.8164 48.2812 11.8164C48.8477 11.8164 49.2188 11.4258 49.2188 10.8594ZM53.6719 2.22656L51.7969 2.22656L51.7969 15.2734C51.7969 15.8398 52.207 16.2109 52.7344 16.2109C53.3008 16.2109 53.6719 15.8203 53.6719 15.2539Z" fill="black" fill-opacity="0.85"/>
 </g>
</svg>
