<?xml version="1.0" encoding="UTF-8"?>
<!--Generator: Apple Native CoreSVG 326-->
<!DOCTYPE svg
PUBLIC "-//W3C//DTD SVG 1.1//EN"
       "http://www.w3.org/Graphics/SVG/1.1/DTD/svg11.dtd">
<svg version="1.1" xmlns="http://www.w3.org/2000/svg" xmlns:xlink="http://www.w3.org/1999/xlink" viewBox="0 0 56.2305 55.8789">
 <g>
  <rect height="55.8789" opacity="0" width="56.2305" x="0" y="0"/>
  <path d="M27.9297 55.8594C43.2812 55.8594 55.8594 43.3008 55.8594 27.9297C55.8594 12.5586 43.2812 0 27.9297 0C12.5781 0 0 12.5586 0 27.9297C0 43.3008 12.5781 55.8594 27.9297 55.8594ZM27.9297 46.6797C17.5586 46.6797 9.16016 38.3008 9.16016 27.9297C9.16016 17.5586 17.5586 9.16016 27.9297 9.16016C38.3008 9.16016 46.6992 17.5586 46.6992 27.9297C46.6992 38.3008 38.3008 46.6797 27.9297 46.6797Z" fill="black" fill-opacity="0.85"/>
  <path d="M18.0664 38.3594C18.8672 38.3594 19.3359 37.8516 19.3359 37.0312L19.3359 29.8047L22.6953 29.8047L25.957 37.4414C26.2109 38.0469 26.6016 38.3594 27.2266 38.3594C27.9297 38.3594 28.4766 37.9102 28.4766 37.168C28.4766 36.8555 28.3594 36.6016 28.2031 36.25L25.1562 29.2578C27.4414 28.3008 28.4961 26.1133 28.4961 23.6914C28.4961 20.2539 26.4844 17.6953 22.4414 17.6953L18.0469 17.6953C17.2852 17.6953 16.7969 18.1836 16.7969 18.9844L16.7969 37.0312C16.7969 37.8516 17.2656 38.3594 18.0664 38.3594ZM19.3359 27.7344L19.3359 19.8242L22.207 19.8242C24.6094 19.8242 25.9375 21.3477 25.9375 23.75C25.9375 26.1523 24.6875 27.7344 22.2266 27.7344ZM36.0352 38.3789C38.9453 38.3789 41.3281 36.6992 41.3281 33.7891C41.3281 31.4062 39.9023 30.3125 37.5 29.6484L35.5078 29.1016C34.2773 28.7695 33.2812 28.125 33.2812 26.8164C33.2812 25.332 34.4727 24.375 35.957 24.375C37.5391 24.375 38.4961 25.293 39.0039 26.543C39.1602 26.9141 39.4727 27.1484 39.8828 27.1484C40.5859 27.1484 40.8594 26.7188 40.8594 26.25C40.8594 26.0742 40.8203 25.8398 40.7422 25.625C40.2539 23.8477 38.3984 22.5 36.0352 22.5C32.8711 22.5 30.8984 24.3359 30.8984 26.9531C30.8984 29.2773 32.4219 30.4883 34.668 31.0938L36.6797 31.6211C38.0078 31.9922 38.9062 32.7148 38.9062 34.0234C38.9062 35.5273 37.793 36.5039 36.1328 36.5039C34.4141 36.5039 33.4375 35.8398 32.6758 34.2969C32.4219 33.7695 32.0312 33.5547 31.6406 33.5547C31.0547 33.5547 30.625 33.9453 30.625 34.5312C30.625 34.7266 30.6836 34.9609 30.7617 35.1953C31.4258 37.3633 33.7305 38.3789 36.0352 38.3789Z" fill="black" fill-opacity="0.85"/>
 </g>
</svg>
