<?xml version="1.0" encoding="UTF-8"?>
<!--Generator: Apple Native CoreSVG 326-->
<!DOCTYPE svg
PUBLIC "-//W3C//DTD SVG 1.1//EN"
       "http://www.w3.org/Graphics/SVG/1.1/DTD/svg11.dtd">
<svg version="1.1" xmlns="http://www.w3.org/2000/svg" xmlns:xlink="http://www.w3.org/1999/xlink" viewBox="0 0 60.961 50.918">
 <g>
  <rect height="50.918" opacity="0" width="60.961" x="0" y="0"/>
  <path d="M30.295 50.8789C44.3379 50.8789 55.7246 39.4922 55.7246 25.4492C55.7246 11.4062 44.3379 0 30.295 0C16.252 0 4.86526 11.4062 4.86526 25.4492L8.49808 25.4492C8.49808 13.3984 18.2442 3.65234 30.295 3.65234C42.3457 3.65234 52.0918 13.3984 52.0918 25.4492C52.0918 37.5 42.3457 47.2461 30.295 47.2461C22.834 47.2461 16.1739 43.457 12.3653 37.7539C11.7207 36.875 10.7051 36.6016 9.80667 37.1484C8.94729 37.6562 8.69339 38.8477 9.39651 39.8047C13.9473 46.5039 21.6426 50.8789 30.295 50.8789ZM1.60354 20.7227C0.00198146 20.7227-0.447237 21.8164 0.470731 23.0859L6.01761 30.9766C6.75979 32.0508 7.83401 32.0312 8.55667 30.9766L14.1035 23.0664C14.9825 21.8164 14.5528 20.7227 12.9707 20.7227Z" fill="black" fill-opacity="0.85"/>
  <path d="M20.4512 35.8789C21.2325 35.8789 21.7012 35.3711 21.7012 34.5508L21.7012 27.3242L25.0606 27.3242L28.3418 34.9609C28.5762 35.5664 28.9668 35.8789 29.5918 35.8789C30.295 35.8789 30.8614 35.4297 30.8614 34.6875C30.8614 34.375 30.7246 34.1211 30.5684 33.7695L27.5215 26.7773C29.8067 25.8203 30.8809 23.6328 30.8809 21.2109C30.8809 17.7734 28.8496 15.2148 24.8262 15.2148L20.4317 15.2148C19.6504 15.2148 19.1621 15.7031 19.1621 16.5039L19.1621 34.5508C19.1621 35.3711 19.6504 35.8789 20.4512 35.8789ZM21.7012 25.2539L21.7012 17.3438L24.5723 17.3438C26.9746 17.3438 28.3223 18.8672 28.3223 21.2695C28.3223 23.6719 27.0528 25.2539 24.5918 25.2539ZM38.4004 35.8984C41.3301 35.8984 43.6934 34.2188 43.6934 31.3086C43.6934 28.9258 42.2676 27.832 39.8848 27.168L37.8926 26.6211C36.6621 26.2891 35.666 25.6445 35.666 24.3359C35.666 22.8516 36.8379 21.8945 38.3223 21.8945C39.9043 21.8945 40.8614 22.8125 41.3692 24.0625C41.5254 24.4336 41.8575 24.668 42.2481 24.668C42.9512 24.668 43.2246 24.2383 43.2246 23.7695C43.2246 23.5938 43.1856 23.3594 43.1075 23.1445C42.6387 21.3672 40.7637 20.0195 38.4004 20.0195C35.2364 20.0195 33.2637 21.8555 33.2637 24.4727C33.2637 26.7969 34.8067 28.0078 37.0332 28.6133L39.045 29.1406C40.3926 29.5117 41.2715 30.2344 41.2715 31.543C41.2715 33.0469 40.1582 34.0234 38.5176 34.0234C36.7793 34.0234 35.8028 33.3594 35.0606 31.8164C34.7871 31.2891 34.3965 31.0742 34.0059 31.0742C33.42 31.0742 32.9903 31.4648 32.9903 32.0508C32.9903 32.2461 33.0684 32.4805 33.1465 32.7148C33.791 34.8828 36.1153 35.8984 38.4004 35.8984Z" fill="black" fill-opacity="0.85"/>
 </g>
</svg>
