<?xml version="1.0" encoding="UTF-8"?>
<!--Generator: Apple Native CoreSVG 326-->
<!DOCTYPE svg
PUBLIC "-//W3C//DTD SVG 1.1//EN"
       "http://www.w3.org/Graphics/SVG/1.1/DTD/svg11.dtd">
<svg version="1.1" xmlns="http://www.w3.org/2000/svg" xmlns:xlink="http://www.w3.org/1999/xlink" viewBox="0 0 51.25 50.918">
 <g>
  <rect height="50.918" opacity="0" width="51.25" x="0" y="0"/>
  <path d="M50.8789 25.4492C50.8789 39.4531 39.4531 50.8789 25.4297 50.8789C11.4258 50.8789 0 39.4531 0 25.4492C0 11.4258 11.4258 0 25.4297 0C39.4531 0 50.8789 11.4258 50.8789 25.4492ZM16.7773 19.9609C16.7773 23.125 18.7891 24.9219 22.7148 25.9961L26.4453 27.0312C29.668 27.9297 30.8203 28.7891 30.8203 30.7031C30.8203 33.0469 28.4375 34.5312 25.4492 34.5312C22.5586 34.5312 20.4688 33.3008 19.6875 31.1133C19.2969 30.2734 18.8086 29.8633 17.9883 29.8633C16.9922 29.8633 16.3672 30.4688 16.3672 31.4844C16.3672 31.8359 16.4258 32.2266 16.6211 32.6758C17.4805 35.2344 20.6445 37.4805 25.1953 37.4805C30.8398 37.4805 34.5312 34.7266 34.5312 30.3906C34.5312 27.1094 32.207 25.293 27.6758 24.082L24.1992 23.1445C21.5625 22.4219 20.4688 21.4453 20.4688 19.7852C20.4688 17.5195 22.4805 15.9375 25.3516 15.9375C28.0859 15.9375 29.9023 17.1094 30.7031 19.3555C31.0156 20.1367 31.5039 20.5469 32.3633 20.5469C33.3008 20.5469 33.9648 20.0391 33.9648 18.9844C33.9648 18.6719 33.8867 18.2812 33.7305 17.8516C32.832 15.0586 29.7656 13.0664 25.4883 13.0664C20.3516 13.0664 16.7773 15.918 16.7773 19.9609Z" fill="black" fill-opacity="0.85"/>
 </g>
</svg>
