<?xml version="1.0" encoding="UTF-8"?>
<!--Generator: Apple Native CoreSVG 326-->
<!DOCTYPE svg
PUBLIC "-//W3C//DTD SVG 1.1//EN"
       "http://www.w3.org/Graphics/SVG/1.1/DTD/svg11.dtd">
<svg version="1.1" xmlns="http://www.w3.org/2000/svg" xmlns:xlink="http://www.w3.org/1999/xlink" viewBox="0 0 57.0264 56.7041">
 <g>
  <rect height="56.7041" opacity="0" width="57.0264" x="0" y="0"/>
  <path d="M12.937 49.8657L18.6206 49.8657C19.1675 49.8657 19.5581 50.0024 19.9683 50.4126L24.0112 54.4165C26.9995 57.4048 29.6558 57.3853 32.644 54.4165L36.687 50.4126C37.0972 50.0024 37.4878 49.8657 38.0347 49.8657L43.7183 49.8657C47.937 49.8657 49.8511 47.9712 49.8511 43.7329L49.8511 38.0493C49.8511 37.5024 50.0073 37.1118 50.398 36.7017L54.4214 32.6587C57.4097 29.6704 57.3901 27.0142 54.4214 24.0259L50.398 19.9634C50.0073 19.5728 49.8511 19.1821 49.8511 18.6353L49.8511 12.9321C49.8511 8.73292 47.9565 6.81885 43.7183 6.81885L38.0347 6.81885C37.4878 6.81885 37.0972 6.6626 36.687 6.27198L32.644 2.24854C29.6558-0.759271 26.9995-0.73974 24.0112 2.24854L19.9683 6.27198C19.5776 6.6626 19.1675 6.81885 18.6206 6.81885L12.937 6.81885C8.69874 6.81885 6.80421 8.69385 6.80421 12.9321L6.80421 18.6353C6.80421 19.1821 6.64796 19.5728 6.25733 19.9634L2.23389 24.0259C-0.754389 27.0142-0.734857 29.6704 2.23389 32.6587L6.25733 36.7017C6.64796 37.1118 6.80421 37.5024 6.80421 38.0493L6.80421 43.7329C6.80421 47.9517 8.69874 49.8657 12.937 49.8657ZM12.937 46.4478C10.6519 46.4478 10.2222 46.0181 10.2222 43.7329L10.2222 36.8774C10.2222 36.1353 9.9878 35.5689 9.46046 35.0415L4.63624 30.2564C3.03467 28.6157 3.03467 28.0689 4.63624 26.4282L9.46046 21.6235C9.9878 21.0962 10.2222 20.5298 10.2222 19.7876L10.2222 12.9321C10.2222 10.6274 10.6128 10.2368 12.937 10.2368L19.7925 10.2368C20.5347 10.2368 21.0815 10.022 21.6089 9.4751L26.4136 4.65088C28.0542 3.02979 28.6011 3.02979 30.2417 4.65088L35.0464 9.4751C35.5737 10.022 36.1401 10.2368 36.8823 10.2368L43.7183 10.2368C46.023 10.2368 46.4331 10.647 46.4331 12.9321L46.4331 19.7876C46.4331 20.5298 46.6675 21.0962 47.1948 21.6235L52.019 26.4282C53.6401 28.0689 53.6401 28.6157 52.019 30.2564L47.1948 35.0415C46.6675 35.5689 46.4331 36.1353 46.4331 36.8774L46.4331 43.7329C46.4331 46.0181 46.023 46.4478 43.7183 46.4478L36.8823 46.4478C36.1401 46.4478 35.5737 46.6431 35.0464 47.2095L30.2417 52.0142C28.6011 53.6353 28.0542 53.6353 26.4136 52.0142L21.6089 47.2095C21.0815 46.6431 20.5347 46.4478 19.7925 46.4478Z" fill="black" fill-opacity="0.85"/>
 </g>
</svg>
