<?xml version="1.0" encoding="UTF-8"?>
<!--Generator: Apple Native CoreSVG 326-->
<!DOCTYPE svg
PUBLIC "-//W3C//DTD SVG 1.1//EN"
       "http://www.w3.org/Graphics/SVG/1.1/DTD/svg11.dtd">
<svg version="1.1" xmlns="http://www.w3.org/2000/svg" xmlns:xlink="http://www.w3.org/1999/xlink" viewBox="0 0 51.25 50.918">
 <g>
  <rect height="50.918" opacity="0" width="51.25" x="0" y="0"/>
  <path d="M25.4297 50.8789C39.4727 50.8789 50.8789 39.4922 50.8789 25.4492C50.8789 11.4062 39.4727 0 25.4297 0C11.3867 0 0 11.4062 0 25.4492C0 39.4922 11.3867 50.8789 25.4297 50.8789ZM25.4297 47.2461C13.3789 47.2461 3.63281 37.5 3.63281 25.4492C3.63281 13.3984 13.3789 3.65234 25.4297 3.65234C37.4805 3.65234 47.2266 13.3984 47.2266 25.4492C47.2266 37.5 37.4805 47.2461 25.4297 47.2461Z" fill="black" fill-opacity="0.85"/>
  <path d="M16.2305 36.5625C16.875 36.5625 17.3047 36.1328 17.3047 35.4102L17.3047 16.9922L23.0859 16.9922C26.0156 16.9922 27.3828 17.8125 27.3828 21.1133L27.3828 28.8867C27.3828 29.6094 27.793 30.0781 28.4961 30.0781C29.1602 30.0781 29.5898 29.6094 29.5898 28.8867L29.5898 20.6445C29.5898 16.6602 27.9297 14.5703 23.8281 14.5703L16.7578 14.5703C15.7227 14.5703 15.0977 15.1953 15.0977 16.2305L15.0977 35.4102C15.0977 36.1328 15.5273 36.5625 16.2305 36.5625ZM22.832 36.3672L30.0781 36.3672C34.3359 36.3672 35.7422 34.1016 35.7422 29.8633L35.7422 15.5469C35.7422 14.8047 35.3125 14.3359 34.6289 14.3359C33.9453 14.3359 33.4961 14.8047 33.4961 15.5469L33.4961 29.7656C33.4961 33.0469 32.7344 33.9258 29.4727 33.9258L23.457 33.9258L23.457 21.9922C23.457 21.2695 23.0273 20.8398 22.3633 20.8398C21.6797 20.8398 21.2305 21.2695 21.2305 21.9922L21.2305 34.7656C21.2305 35.7812 21.8945 36.3672 22.832 36.3672Z" fill="black" fill-opacity="0.85"/>
 </g>
</svg>
