<?xml version="1.0" encoding="UTF-8"?>
<!--Generator: Apple Native CoreSVG 326-->
<!DOCTYPE svg
PUBLIC "-//W3C//DTD SVG 1.1//EN"
       "http://www.w3.org/Graphics/SVG/1.1/DTD/svg11.dtd">
<svg version="1.1" xmlns="http://www.w3.org/2000/svg" xmlns:xlink="http://www.w3.org/1999/xlink" viewBox="0 0 46.6211 58.1445">
 <g>
  <rect height="58.1445" opacity="0" width="46.6211" x="0" y="0"/>
  <path d="M40.625 16.3867C35.5078 14.5312 28.1445 20.5078 25.9375 26.5234C24.9023 29.4336 23.7891 35.5273 24.4531 40.8984L37.2461 45.5469C41.1914 41.8555 44.2773 36.5234 45.3516 33.5938C47.5195 27.5586 45.7422 18.2422 40.625 16.3867ZM25.8984 56.875C29.5508 58.2031 32.8516 55.2734 34.7266 50.1367C34.9219 49.6094 35.1562 48.7695 35.293 48.1445L24.3164 44.1406C24.0039 44.707 23.6719 45.4883 23.4766 46.0352C21.6016 51.1719 22.2461 55.5273 25.8984 56.875Z" fill="black" fill-opacity="0.85"/>
  <path d="M10.3125 0C4.88281 0 0 8.14453 0 14.5508C0 17.6562 1.05469 23.75 3.49609 28.5547L17.1289 28.5547C19.5703 23.75 20.625 17.6562 20.625 14.5508C20.625 8.14453 15.7617 0 10.3125 0ZM10.332 43.0664C14.2188 43.0664 16.3086 39.1992 16.3086 33.7305C16.3086 33.1641 16.2695 32.3047 16.1719 31.6797L4.49219 31.6797C4.375 32.3047 4.33594 33.1641 4.33594 33.7305C4.33594 39.1992 6.42578 43.0664 10.332 43.0664Z" fill="black" fill-opacity="0.85"/>
 </g>
</svg>
