<?xml version="1.0" encoding="UTF-8"?>
<!--Generator: Apple Native CoreSVG 326-->
<!DOCTYPE svg
PUBLIC "-//W3C//DTD SVG 1.1//EN"
       "http://www.w3.org/Graphics/SVG/1.1/DTD/svg11.dtd">
<svg version="1.1" xmlns="http://www.w3.org/2000/svg" xmlns:xlink="http://www.w3.org/1999/xlink" viewBox="0 0 51.4308 52.168">
 <g>
  <rect height="52.168" opacity="0" width="51.4308" x="0" y="0"/>
  <path d="M5.9693 30.9375L38.4888 30.8984C40.6373 30.8984 41.6529 30.2734 42.8834 29.1211L49.4849 22.8711C52.0435 20.4688 52.1216 17.9688 49.4654 15.4492L42.8834 9.21875C41.6529 8.06641 40.6373 7.42188 38.5084 7.42188L5.9693 7.42188C2.72711 7.42188 0.910706 9.19922 0.910706 12.3633L0.910706 25.9766C0.910706 29.1406 2.72711 30.9375 5.9693 30.9375ZM6.04742 27.4609C5.05133 27.4609 4.46539 26.8555 4.46539 25.8789L4.46539 12.4609C4.46539 11.4844 5.05133 10.8789 6.04742 10.8789L38.3912 10.8789C39.4263 10.8789 39.817 11.0938 40.3834 11.6016L47.2388 18.0078C47.9615 18.6719 47.9615 19.6094 47.2193 20.293L40.3638 26.7383C39.817 27.2461 39.4263 27.4609 38.3716 27.4609ZM22.1216 10.0391L25.5787 10.0391L25.5787 1.73828C25.5787 0.78125 24.7974 0 23.8599 0C22.9029 0 22.1216 0.78125 22.1216 1.73828ZM22.1216 29.668L22.1216 51.875L25.5787 51.875L25.5787 29.668ZM12.649 50.4102C12.649 51.3477 13.4302 52.1289 14.3677 52.1289L33.3521 52.1289C34.3091 52.1289 35.0904 51.3477 35.0904 50.4102C35.0904 49.4531 34.3091 48.6719 33.3521 48.6719L14.3677 48.6719C13.4302 48.6719 12.649 49.4531 12.649 50.4102Z" fill="black" fill-opacity="0.85"/>
 </g>
</svg>
