<?xml version="1.0" encoding="UTF-8"?>
<!--Generator: Apple Native CoreSVG 326-->
<!DOCTYPE svg
PUBLIC "-//W3C//DTD SVG 1.1//EN"
       "http://www.w3.org/Graphics/SVG/1.1/DTD/svg11.dtd">
<svg version="1.1" xmlns="http://www.w3.org/2000/svg" xmlns:xlink="http://www.w3.org/1999/xlink" viewBox="0 0 51.25 50.918">
 <g>
  <rect height="50.918" opacity="0" width="51.25" x="0" y="0"/>
  <path d="M25.4297 50.8789C39.4727 50.8789 50.8789 39.4922 50.8789 25.4492C50.8789 11.4062 39.4727 0 25.4297 0C11.3867 0 0 11.4062 0 25.4492C0 39.4922 11.3867 50.8789 25.4297 50.8789ZM25.4297 47.2461C13.3789 47.2461 3.63281 37.5 3.63281 25.4492C3.63281 13.3984 13.3789 3.65234 25.4297 3.65234C37.4805 3.65234 47.2266 13.3984 47.2266 25.4492C47.2266 37.5 37.4805 47.2461 25.4297 47.2461Z" fill="black" fill-opacity="0.85"/>
  <path d="M18.418 36.5039L35.8398 36.5039C39.3164 36.5039 41.6992 34.082 41.6992 30.9375C41.6992 28.2227 39.7461 25.918 37.0898 25.4297C36.9336 22.0312 34.1992 19.2383 30.7227 19.2383C28.418 19.2383 26.4648 20.3516 25.2734 22.168C24.6094 21.9531 24.082 21.8555 23.457 21.8555C20.7617 21.8555 18.5938 23.8086 18.2031 26.4453C15.4297 26.5039 13.2227 28.7695 13.2227 31.4648C13.2227 34.2969 15.332 36.5039 18.418 36.5039ZM8.08594 23.9062C8.08594 26.3281 9.51172 28.3594 11.9922 29.1406C12.7539 27.0508 14.5898 25.4297 16.8555 24.9414C17.793 22.1289 20.3711 20.1758 23.457 20.1758C23.8281 20.1758 24.2383 20.2148 24.6289 20.293C26.1328 18.5156 28.2422 17.6172 30.625 17.5977C30.1953 16.1133 28.6914 14.8633 26.3477 14.8633C25.6445 14.8633 25.1367 14.9609 24.5117 15.1562C23.2617 13.3008 21.3477 12.207 19.1406 12.207C15.6836 12.207 12.832 14.9805 12.6953 18.3789C10 18.9258 8.08594 21.1914 8.08594 23.9062Z" fill="black" fill-opacity="0.85"/>
 </g>
</svg>
