<?xml version="1.0" encoding="UTF-8"?>
<!--Generator: Apple Native CoreSVG 326-->
<!DOCTYPE svg
PUBLIC "-//W3C//DTD SVG 1.1//EN"
       "http://www.w3.org/Graphics/SVG/1.1/DTD/svg11.dtd">
<svg version="1.1" xmlns="http://www.w3.org/2000/svg" xmlns:xlink="http://www.w3.org/1999/xlink" viewBox="0 0 51.25 50.918">
 <g>
  <rect height="50.918" opacity="0" width="51.25" x="0" y="0"/>
  <path d="M50.8789 25.4688C50.8789 39.4922 39.4531 50.918 25.4297 50.918C11.4258 50.918 0 39.4922 0 25.4688C0 11.4648 11.4258 0.0390625 25.4297 0.0390625C39.4531 0.0390625 50.8789 11.4648 50.8789 25.4688ZM28.6133 13.9844L22.5 19.8242C22.4023 19.9219 22.207 19.9805 22.0508 19.9805L17.9102 19.9805C16.1133 19.9805 15.1172 20.9961 15.1172 22.8516L15.1172 28.1836C15.1172 30.0586 16.1133 31.0742 17.9102 31.0742L22.0508 31.0742C22.207 31.0742 22.4023 31.1328 22.5 31.2305L28.6133 37.0508C29.1797 37.6172 29.6875 37.8516 30.3125 37.8516C31.1328 37.8516 31.7188 37.2461 31.7188 36.4062L31.7188 14.6484C31.7188 13.8281 31.1328 13.1445 30.293 13.1445C29.668 13.1445 29.2578 13.3984 28.6133 13.9844Z" fill="black" fill-opacity="0.85"/>
 </g>
</svg>
