<?xml version="1.0" encoding="UTF-8"?>
<!--Generator: Apple Native CoreSVG 326-->
<!DOCTYPE svg
PUBLIC "-//W3C//DTD SVG 1.1//EN"
       "http://www.w3.org/Graphics/SVG/1.1/DTD/svg11.dtd">
<svg version="1.1" xmlns="http://www.w3.org/2000/svg" xmlns:xlink="http://www.w3.org/1999/xlink" viewBox="0 0 64.2969 67.207">
 <g>
  <rect height="67.207" opacity="0" width="64.2969" x="0" y="0"/>
  <path d="M57.3047 45.8203C57.3047 47.0898 56.5625 47.9102 54.7852 48.9453L34.8047 60.5273C33.7305 61.1523 32.8906 61.4648 31.9531 61.4648C31.0352 61.4648 30.1953 61.1523 29.1211 60.5273L9.14062 48.9453C7.36328 47.9102 6.62109 47.0898 6.62109 45.8203C6.62109 45.0612 6.89484 44.4605 7.51014 43.8696L30.8008 57.3633C31.1914 57.5781 31.6016 57.7148 31.9531 57.7148C32.3242 57.7148 32.7344 57.5781 33.125 57.3633L56.4156 43.8696C57.0309 44.4605 57.3047 45.0612 57.3047 45.8203Z" fill="black" fill-opacity="0.85"/>
  <path d="M57.3047 34.043C57.3047 35.293 56.5625 36.1133 54.7852 37.168L34.8047 48.75C33.7305 49.375 32.8906 49.6875 31.9531 49.6875C31.0352 49.6875 30.1953 49.375 29.1211 48.75L9.14062 37.168C7.36328 36.1133 6.62109 35.293 6.62109 34.043C6.62109 33.2838 6.89484 32.6832 7.51014 32.0923L30.8008 45.5859C31.1914 45.8008 31.6016 45.9375 31.9531 45.9375C32.3242 45.9375 32.7344 45.8008 33.125 45.5859L56.4156 32.0923C57.0309 32.6832 57.3047 33.2838 57.3047 34.043Z" fill="black" fill-opacity="0.85"/>
  <path d="M9.14062 24.9023L29.1211 36.4844C30.1953 37.1094 31.0352 37.4219 31.9531 37.4219C32.8906 37.4219 33.7305 37.1094 34.8047 36.4844L54.7852 24.9023C56.5625 23.8672 57.3047 23.0469 57.3047 21.7773C57.3047 20.5273 56.5625 19.707 54.7852 18.6523L34.8047 7.08984C33.7305 6.44531 32.8906 6.15234 31.9531 6.15234C31.0352 6.15234 30.1953 6.44531 29.1211 7.08984L9.14062 18.6523C7.36328 19.707 6.62109 20.5273 6.62109 21.7773C6.62109 23.0469 7.36328 23.8672 9.14062 24.9023ZM11.3477 22.1289C10.9766 21.9141 10.9766 21.6406 11.3477 21.4453L30.918 10.2148C31.3086 10 31.6211 9.88281 31.9531 9.88281C32.3047 9.88281 32.6172 10 33.0078 10.2148L52.5781 21.4453C52.9297 21.6406 52.9297 21.9141 52.5781 22.1289L33.0078 33.3398C32.6172 33.5547 32.3242 33.6719 31.9531 33.6719C31.6016 33.6719 31.3086 33.5547 30.918 33.3398Z" fill="black" fill-opacity="0.85"/>
 </g>
</svg>
