<?xml version="1.0" encoding="UTF-8"?>
<!--Generator: Apple Native CoreSVG 326-->
<!DOCTYPE svg
PUBLIC "-//W3C//DTD SVG 1.1//EN"
       "http://www.w3.org/Graphics/SVG/1.1/DTD/svg11.dtd">
<svg version="1.1" xmlns="http://www.w3.org/2000/svg" xmlns:xlink="http://www.w3.org/1999/xlink" viewBox="0 0 77.1484 52.168">
 <g>
  <rect height="52.168" opacity="0" width="77.1484" x="0" y="0"/>
  <path d="M5.42969 40.6055L23.5547 40.6055C26.9531 40.6055 29.0039 38.5742 29.0039 35.2539L29.0039 16.9727C29.0039 13.6523 26.9531 11.6211 23.5547 11.6211L5.42969 11.6211C2.05078 11.6211 0 13.6523 0 16.9727L0 35.2539C0 38.5742 2.05078 40.6055 5.42969 40.6055ZM5.50781 37.3438C4.12109 37.3438 3.26172 36.4648 3.26172 35.0781L3.26172 17.1484C3.26172 15.7617 4.12109 14.8828 5.50781 14.8828L23.4961 14.8828C24.8828 14.8828 25.7422 15.7617 25.7422 17.1484L25.7422 35.0781C25.7422 36.4648 24.8828 37.3438 23.4961 37.3438Z" fill="black" fill-opacity="0.85"/>
  <path d="M38.3789 52.168C39.3359 52.168 39.9805 51.543 39.9805 50.6445L39.9805 1.58203C39.9805 0.683594 39.3359 0.0585938 38.3789 0.0585938C37.4219 0.0585938 36.7969 0.683594 36.7969 1.58203L36.7969 50.6445C36.7969 51.543 37.4219 52.168 38.3789 52.168ZM53.2031 40.6055L71.3281 40.6055C74.7266 40.6055 76.7773 38.5742 76.7773 35.2539L76.7773 16.9727C76.7773 13.6523 74.7266 11.6211 71.3281 11.6211L53.2031 11.6211C49.8242 11.6211 47.7734 13.6523 47.7734 16.9727L47.7734 35.2539C47.7734 38.5742 49.8242 40.6055 53.2031 40.6055Z" fill="black" fill-opacity="0.85"/>
 </g>
</svg>
