<?xml version="1.0" encoding="UTF-8"?>
<!--Generator: Apple Native CoreSVG 326-->
<!DOCTYPE svg
PUBLIC "-//W3C//DTD SVG 1.1//EN"
       "http://www.w3.org/Graphics/SVG/1.1/DTD/svg11.dtd">
<svg version="1.1" xmlns="http://www.w3.org/2000/svg" xmlns:xlink="http://www.w3.org/1999/xlink" viewBox="0 0 44.5508 53.3008">
 <g>
  <rect height="53.3008" opacity="0" width="44.5508" x="0" y="0"/>
  <path d="M7.59766 53.3008L36.582 53.3008C41.6406 53.3008 44.1797 50.7422 44.1797 45.7812L44.1797 20.7227C44.1797 15.7422 41.6406 13.1836 36.582 13.1836L7.59766 13.1836C2.55859 13.1836 0 15.7227 0 20.7227L0 45.7812C0 50.7812 2.55859 53.3008 7.59766 53.3008ZM22.1094 0.273438C23.0273 0.273438 23.8086 1.03516 23.8086 1.95312L23.8086 28.1641L23.6914 31.8555L25.2148 30.2539L29.4727 25.8008C29.7852 25.4492 30.2344 25.2734 30.6445 25.2734C31.5234 25.2734 32.207 25.918 32.207 26.7969C32.207 27.2656 32.0312 27.5977 31.6992 27.9297L23.3398 36.0742C22.9102 36.4844 22.5391 36.6406 22.1094 36.6406C21.6602 36.6406 21.2891 36.4844 20.8594 36.0742L12.5 27.9297C12.168 27.5977 11.9727 27.2656 11.9727 26.7969C11.9727 25.918 12.6367 25.2734 13.5352 25.2734C13.9453 25.2734 14.4141 25.4492 14.7266 25.8008L18.9648 30.2539L20.5273 31.875L20.3906 28.1641L20.3906 1.95312C20.3906 1.03516 21.1719 0.273438 22.1094 0.273438Z" fill="black" fill-opacity="0.85"/>
 </g>
</svg>
