<?xml version="1.0" encoding="UTF-8"?>
<!--Generator: Apple Native CoreSVG 326-->
<!DOCTYPE svg
PUBLIC "-//W3C//DTD SVG 1.1//EN"
       "http://www.w3.org/Graphics/SVG/1.1/DTD/svg11.dtd">
<svg version="1.1" xmlns="http://www.w3.org/2000/svg" xmlns:xlink="http://www.w3.org/1999/xlink" viewBox="0 0 63.1445 65.8398">
 <g>
  <rect height="65.8398" opacity="0" width="63.1445" x="0" y="0"/>
  <path d="M59.668 33.2422L59.668 58.3008C59.668 63.2812 57.1094 65.8398 52.0508 65.8398L23.0859 65.8398C18.0469 65.8398 15.4883 63.3008 15.4883 58.3008L15.4883 57.6953L39.6875 57.6953C46.4648 57.6953 50.4102 53.75 50.4102 47.0508L50.4102 25.7227L52.0508 25.7227C57.1094 25.7227 59.668 28.2812 59.668 33.2422Z" fill="black" fill-opacity="0.85"/>
  <path d="M10.7227 54.5703L39.6875 54.5703C44.7461 54.5703 47.2852 52.0312 47.2852 47.0508L47.2852 21.9922C47.2852 17.0312 44.7461 14.4727 39.6875 14.4727L10.7227 14.4727C5.68359 14.4727 3.10547 16.9922 3.10547 21.9922L3.10547 47.0508C3.10547 52.0508 5.68359 54.5703 10.7227 54.5703ZM25.2148 1.5625C26.1523 1.5625 26.9336 2.32422 26.9336 3.22266L26.9336 29.4336L26.7969 33.1445L28.3398 31.543L32.5781 27.0703C32.8906 26.7383 33.3398 26.5625 33.75 26.5625C34.6484 26.5625 35.332 27.207 35.332 28.0859C35.332 28.5352 35.1367 28.8867 34.8242 29.1992L26.4648 37.3438C26.0352 37.7734 25.6445 37.9102 25.2148 37.9102C24.7852 37.9102 24.3945 37.7734 23.9844 37.3438L15.6055 29.1992C15.2734 28.8867 15.0977 28.5352 15.0977 28.0859C15.0977 27.207 15.7422 26.5625 16.6406 26.5625C17.0508 26.5625 17.5195 26.7383 17.832 27.0703L22.0898 31.543L23.6328 33.1445L23.4961 29.4336L23.4961 3.22266C23.4961 2.32422 24.2969 1.5625 25.2148 1.5625Z" fill="black" fill-opacity="0.85"/>
 </g>
</svg>
