<?xml version="1.0" encoding="UTF-8"?>
<!--Generator: Apple Native CoreSVG 326-->
<!DOCTYPE svg
PUBLIC "-//W3C//DTD SVG 1.1//EN"
       "http://www.w3.org/Graphics/SVG/1.1/DTD/svg11.dtd">
<svg version="1.1" xmlns="http://www.w3.org/2000/svg" xmlns:xlink="http://www.w3.org/1999/xlink" viewBox="0 0 46.2891 45.918">
 <g>
  <rect height="45.918" opacity="0" width="46.2891" x="0" y="0"/>
  <path d="M45.918 7.53906L45.918 38.3984C45.918 43.3594 43.3594 45.918 38.3008 45.918L7.59766 45.918C2.55859 45.918 0 43.3984 0 38.3984L0 7.53906C0 2.53906 2.55859 0 7.59766 0L38.3008 0C43.3594 0 45.918 2.55859 45.918 7.53906ZM21.6016 8.75L18.75 17.6953L9.39453 17.6367C7.71484 17.6172 7.28516 19.4141 8.53516 20.3125L16.1523 25.7617L13.1836 34.6484C12.6562 36.2305 14.082 37.2656 15.4102 36.2695L22.9688 30.7422L30.5273 36.2695C31.8555 37.2656 33.2812 36.2305 32.7539 34.6484L29.8047 25.7617L37.4219 20.293C38.6133 19.4531 38.2617 17.6172 36.543 17.6367L27.1875 17.6953L24.3359 8.75C23.8477 7.22656 22.0898 7.22656 21.6016 8.75Z" fill="black" fill-opacity="0.85"/>
 </g>
</svg>
