<?xml version="1.0" encoding="UTF-8"?>
<!--Generator: Apple Native CoreSVG 326-->
<!DOCTYPE svg
PUBLIC "-//W3C//DTD SVG 1.1//EN"
       "http://www.w3.org/Graphics/SVG/1.1/DTD/svg11.dtd">
<svg version="1.1" xmlns="http://www.w3.org/2000/svg" xmlns:xlink="http://www.w3.org/1999/xlink" viewBox="0 0 66.8555 56.2695">
 <g>
  <rect height="56.2695" opacity="0" width="66.8555" x="0" y="0"/>
  <path d="M58.569 25.7056C57.4696 25.2803 56.2431 25.0586 54.9219 25.0586C49.4367 25.0586 45.5595 28.925 45.282 34.6301C41.6045 37.4277 39.3169 41.929 39.5898 46.8164C39.6094 48.0078 40.4883 48.75 41.7188 48.1836C42.1502 48.0002 42.5742 47.8039 42.9883 47.5923L42.9883 49.8828C42.9883 50.4734 43.0441 51.0315 43.1583 51.5487C40.1104 52.8406 36.759 53.5547 33.2422 53.5547C19.1992 53.5547 7.8125 42.168 7.8125 28.125C7.8125 14.082 19.1992 2.67578 33.2422 2.67578C46.4684 2.67578 57.3557 12.7939 58.569 25.7056ZM12.1484 33.6328C13.8281 40.1562 18.4766 45.5273 24.7461 48.1836C25.957 48.75 26.8555 48.0078 26.875 46.8164C27.3047 39.082 21.3281 32.3828 13.7109 31.7188C12.5 31.582 11.7773 32.2656 12.1484 33.6328ZM27.7148 29.6484C27.7148 32.7148 30.1758 35.1562 33.2227 35.1562C36.2695 35.1562 38.7305 32.7148 38.7305 29.6484C38.7305 26.6016 36.2695 24.1602 33.2227 24.1602C30.1758 24.1602 27.7148 26.6016 27.7148 29.6484ZM14.7266 16.9531C13.8672 18.1641 14.3164 19.5312 15.7617 19.5312L50.6836 19.5312C52.1289 19.5312 52.5781 18.1641 51.7188 16.9141C48.0664 10.6055 41.1328 6.32812 33.2031 6.32812C25.293 6.32812 18.3594 10.6055 14.7266 16.9531Z" fill="black" fill-opacity="0.85"/>
  <path d="M49.1992 53.2812L60.6445 53.2812C62.6758 53.2812 63.7305 52.207 63.7305 50L63.7305 40.9961C63.7305 38.8086 62.6758 37.7344 60.6445 37.7344L49.1992 37.7344C47.168 37.7344 46.1133 38.8086 46.1133 40.9961L46.1133 50C46.1133 52.207 47.168 53.2812 49.1992 53.2812ZM48.3594 39.668L50.8008 39.668L50.8008 34.8438C50.8008 32.1875 52.4219 30.4688 54.9219 30.4688C57.4414 30.4688 59.0625 32.1875 59.0625 34.8438L59.0625 39.668L61.4844 39.668L61.4844 35.1758C61.4844 30.8203 58.9062 28.0469 54.9219 28.0469C50.957 28.0469 48.3594 30.8203 48.3594 35.1758Z" fill="black" fill-opacity="0.85"/>
 </g>
</svg>
