<?xml version="1.0" encoding="UTF-8"?>
<!--Generator: Apple Native CoreSVG 326-->
<!DOCTYPE svg
PUBLIC "-//W3C//DTD SVG 1.1//EN"
       "http://www.w3.org/Graphics/SVG/1.1/DTD/svg11.dtd">
<svg version="1.1" xmlns="http://www.w3.org/2000/svg" xmlns:xlink="http://www.w3.org/1999/xlink" viewBox="0 0 34.8047 44.5508">
 <g>
  <rect height="44.5508" opacity="0" width="34.8047" x="0" y="0"/>
  <path d="M2.30469 44.3945L32.5781 44.3945C33.6914 44.3945 34.5312 43.6914 34.5312 42.6172C34.5312 41.4648 33.6133 40.7812 32.5781 40.7812L7.30469 40.7812L7.30469 40.6055C11.5039 39.375 13.9062 34.4531 13.9062 29.7266C13.9062 27.5 13.5547 25.7422 13.125 24.0234L27.0703 24.0234C28.0664 24.0234 28.8086 23.3789 28.8086 22.4219C28.8086 21.4453 28.0664 20.8008 27.0703 20.8008L12.2461 20.8008C11.6211 18.75 11.0547 16.4062 11.0547 13.6523C11.0547 7.24609 15.8008 3.73047 22.6562 3.73047C24.8438 3.73047 27.2266 4.0625 28.9844 4.72656C29.6094 4.92188 30.1172 5.05859 30.5664 5.05859C31.6016 5.05859 32.2461 4.45312 32.2461 3.41797C32.2461 2.36328 31.5039 1.81641 30.5078 1.38672C27.8516 0.292969 25.1367 0 22.3242 0C13.3789 0 6.73828 4.72656 6.73828 13.8867C6.73828 16.1523 7.20703 18.2031 7.91016 20.8008L2.16797 20.8008C1.19141 20.8008 0.449219 21.4453 0.449219 22.4219C0.449219 23.418 1.23047 24.0234 2.16797 24.0234L8.75 24.0234C9.49219 26.5625 9.72656 28.2422 9.72656 29.9023C9.72656 34.6289 7.01172 39.0234 1.77734 40.3906C0.722656 40.7227 0 41.3477 0 42.5391C0 43.6719 0.898438 44.3945 2.30469 44.3945Z" fill="black" fill-opacity="0.85"/>
 </g>
</svg>
