<?xml version="1.0" encoding="UTF-8"?>
<!--Generator: Apple Native CoreSVG 326-->
<!DOCTYPE svg
PUBLIC "-//W3C//DTD SVG 1.1//EN"
       "http://www.w3.org/Graphics/SVG/1.1/DTD/svg11.dtd">
<svg version="1.1" xmlns="http://www.w3.org/2000/svg" xmlns:xlink="http://www.w3.org/1999/xlink" viewBox="0 0 51.25 50.918">
 <g>
  <rect height="50.918" opacity="0" width="51.25" x="0" y="0"/>
  <path d="M50.8789 25.4492C50.8789 39.4531 39.4531 50.8789 25.4297 50.8789C11.4258 50.8789 0 39.4531 0 25.4492C0 11.4258 11.4258 0 25.4297 0C39.4531 0 50.8789 11.4258 50.8789 25.4492ZM28.9062 26.9922C27.5781 26.9922 26.3477 26.5234 25.4297 25.7422C24.5117 26.5234 23.2812 26.9922 21.9531 26.9922C20.5859 26.9922 19.375 26.5234 18.457 25.7422C17.5 26.5234 16.3086 26.9922 14.9609 26.9922C14.0234 26.9922 13.1641 26.7773 12.4219 26.4453L12.4219 37.0898C12.4219 38.9062 13.4766 39.9414 15.3125 39.9414L35.5469 39.9414C37.3828 39.9414 38.4375 38.8867 38.4375 37.0898L38.4375 26.3867C37.6953 26.7383 36.8164 26.9922 35.8984 26.9922C34.5703 26.9922 33.3398 26.5234 32.4219 25.7422C31.4844 26.5234 30.2734 26.9922 28.9062 26.9922ZM30.3516 30.4883L30.3516 37.5781L20.5078 37.5781L20.5078 30.4883C20.5078 29.9023 20.8984 29.5312 21.4844 29.5312L29.4141 29.5312C29.9805 29.5312 30.3516 29.9023 30.3516 30.4883ZM10.5273 21.4648L10.5273 21.8555C10.5273 23.6914 12.4414 25.293 14.8242 25.293C16.3281 25.293 17.5781 24.5703 18.3203 23.4375C19.0234 24.5703 20.2734 25.293 21.8164 25.293C23.3203 25.293 24.5703 24.5703 25.293 23.4375C26.0156 24.5703 27.2656 25.293 28.7695 25.293C30.3125 25.293 31.5625 24.5703 32.2852 23.4375C33.0078 24.5703 34.2773 25.293 35.7617 25.293C38.1641 25.293 40.0586 23.4766 40.0586 21.6602L40.0586 21.4648ZM17.3242 10.957C16.1719 10.957 15.1953 11.5234 14.6484 12.5195L10.7812 19.8047L39.8047 19.8047L35.9375 12.5195C35.4102 11.5234 34.4141 10.957 33.2812 10.957Z" fill="black" fill-opacity="0.85"/>
 </g>
</svg>
