<?xml version="1.0" encoding="UTF-8"?>
<!--Generator: Apple Native CoreSVG 326-->
<!DOCTYPE svg
PUBLIC "-//W3C//DTD SVG 1.1//EN"
       "http://www.w3.org/Graphics/SVG/1.1/DTD/svg11.dtd">
<svg version="1.1" xmlns="http://www.w3.org/2000/svg" xmlns:xlink="http://www.w3.org/1999/xlink" viewBox="0 0 71.1914 59.3555">
 <g>
  <rect height="59.3555" opacity="0" width="71.1914" x="0" y="0"/>
  <path d="M48.9062 43.7891C48.9062 45.7658 48.4657 47.6552 47.6666 49.3555L23.1537 49.3555C22.3546 47.6552 21.9141 45.7658 21.9141 43.7891C21.9141 36.4062 28.0273 30.2734 35.4102 30.2734C42.793 30.2734 48.9062 36.4062 48.9062 43.7891ZM17.0508 43.1836C17.0703 44.1211 16.25 44.9023 15.1367 44.9023L8.22266 44.9023C7.12891 44.9023 6.32812 44.1211 6.32812 43.1836C6.32812 42.2266 7.12891 41.4453 8.22266 41.4453L15.1367 41.4453C16.2305 41.4453 17.0312 42.2266 17.0508 43.1836ZM64.4922 43.1836C64.4922 44.1211 63.7109 44.9023 62.6172 44.9023L55.6836 44.9023C54.6094 44.9023 53.8086 44.1211 53.7891 43.1836C53.7695 42.2266 54.6094 41.4453 55.6836 41.4453L62.6172 41.4453C63.7109 41.4453 64.4922 42.2266 64.4922 43.1836ZM17.4219 23.3398L22.3047 28.2422C23.0859 29.0039 23.0859 30.1367 22.4219 30.8203C21.7578 31.5039 20.6055 31.4844 19.8438 30.7227L14.9414 25.8203C14.1602 25.0195 14.1602 23.9258 14.8633 23.2617C15.5273 22.5977 16.6211 22.5586 17.4219 23.3398ZM55.9766 23.2617C56.6406 23.9453 56.6797 25.0195 55.8789 25.8203L50.9766 30.7227C50.2148 31.4844 49.082 31.4844 48.418 30.8203C47.7344 30.1562 47.7539 29.0039 48.5156 28.2422L53.418 23.3398C54.1992 22.5586 55.3125 22.5781 55.9766 23.2617Z" fill="black" fill-opacity="0.85"/>
  <path d="M4.98047 55.5078L65.8398 55.5078C66.8555 55.5078 67.7148 54.7461 67.7148 53.8086C67.7148 52.8516 66.8555 52.0898 65.8398 52.0898L4.98047 52.0898C3.96484 52.0898 3.125 52.8516 3.125 53.8086C3.125 54.7461 3.96484 55.5078 4.98047 55.5078Z" fill="black" fill-opacity="0.85"/>
  <path d="M35.4102 23.8086C36.3672 23.8086 37.168 22.9688 37.168 21.9336L37.168 12.207L36.9141 8.22266L38.9844 10.5273L42.4023 13.9844C42.7148 14.2969 43.125 14.4922 43.5547 14.4922C44.4141 14.4922 45.0391 13.8867 45.0391 13.0273C45.0391 12.5391 44.8828 12.1875 44.4922 11.8359L36.582 4.35547C36.1328 3.94531 35.8008 3.78906 35.4102 3.78906C35.0195 3.78906 34.6875 3.94531 34.2383 4.35547L26.3281 11.8359C25.957 12.1875 25.7812 12.5391 25.7812 13.0273C25.7812 13.8867 26.4062 14.4922 27.2852 14.4922C27.6953 14.4922 28.1055 14.2969 28.4375 13.9844L32.0508 10.332L33.9258 8.22266L33.6719 12.207L33.6719 21.9336C33.6719 22.9688 34.4727 23.8086 35.4102 23.8086Z" fill="black" fill-opacity="0.85"/>
 </g>
</svg>
