<?xml version="1.0" encoding="UTF-8"?>
<!--Generator: Apple Native CoreSVG 326-->
<!DOCTYPE svg
PUBLIC "-//W3C//DTD SVG 1.1//EN"
       "http://www.w3.org/Graphics/SVG/1.1/DTD/svg11.dtd">
<svg version="1.1" xmlns="http://www.w3.org/2000/svg" xmlns:xlink="http://www.w3.org/1999/xlink" viewBox="0 0 47.7734 47.2461">
 <g>
  <rect height="47.2461" opacity="0" width="47.7734" x="0" y="0"/>
  <path d="M10.5078 47.1094L36.8945 47.1094C42.7734 47.1094 47.4023 43.0078 47.4023 37.0117C47.4023 31.0352 42.7734 26.9336 36.8945 26.9336L10.5078 26.9336C4.62891 26.9336 0 31.0352 0 37.0117C0 43.0078 4.62891 47.1094 10.5078 47.1094ZM37.5391 43.7891C33.7891 43.7695 30.7812 40.7617 30.7812 37.0117C30.7812 33.2812 33.7891 30.2734 37.5391 30.2734C41.3086 30.2734 44.3359 33.2617 44.3164 36.9727C44.2969 40.7617 41.2695 43.8086 37.5391 43.7891Z" fill="black" fill-opacity="0.85"/>
  <path d="M11.543 17.6172C15.0586 17.6367 17.8711 14.7656 17.8906 11.2305C17.9102 7.75391 15.0781 4.96094 11.543 4.96094C8.04688 4.96094 5.23438 7.77344 5.23438 11.2695C5.23438 14.7852 8.02734 17.5977 11.543 17.6172Z" fill="black" fill-opacity="0.85"/>
  <path d="M11.543 22.5586L35.8594 22.5586C42.1875 22.5586 47.4023 17.9883 47.4023 11.2891C47.4023 4.58984 42.1875 0 35.8594 0L11.543 0C5.21484 0 0 4.58984 0 11.2891C0 17.9883 5.21484 22.5586 11.543 22.5586ZM11.543 19.2969C7.16797 19.2969 3.26172 16.0352 3.26172 11.2891C3.26172 6.54297 7.16797 3.28125 11.543 3.28125L35.8594 3.28125C40.2344 3.28125 44.1406 6.54297 44.1406 11.2891C44.1406 16.0352 40.2344 19.2969 35.8594 19.2969Z" fill="black" fill-opacity="0.85"/>
 </g>
</svg>
