<?xml version="1.0" encoding="UTF-8"?>
<!--Generator: Apple Native CoreSVG 326-->
<!DOCTYPE svg
PUBLIC "-//W3C//DTD SVG 1.1//EN"
       "http://www.w3.org/Graphics/SVG/1.1/DTD/svg11.dtd">
<svg version="1.1" xmlns="http://www.w3.org/2000/svg" xmlns:xlink="http://www.w3.org/1999/xlink" viewBox="0 0 46.2891 45.918">
 <g>
  <rect height="45.918" opacity="0" width="46.2891" x="0" y="0"/>
  <path d="M7.59766 45.918L38.3008 45.918C43.3594 45.918 45.918 43.3594 45.918 38.3984L45.918 7.53906C45.918 2.55859 43.3594 0 38.3008 0L7.59766 0C2.55859 0 0 2.53906 0 7.53906L0 38.3984C0 43.3984 2.55859 45.918 7.59766 45.918ZM7.67578 42.4609C4.94141 42.4609 3.45703 41.0156 3.45703 38.2031L3.45703 7.71484C3.45703 4.92188 4.94141 3.45703 7.67578 3.45703L38.2422 3.45703C40.918 3.45703 42.4609 4.92188 42.4609 7.71484L42.4609 38.2031C42.4609 41.0156 40.918 42.4609 38.2422 42.4609Z" fill="black" fill-opacity="0.85"/>
  <path d="M18.0859 36.0938C19.4531 37.4805 20.8398 37.5 22.2656 36.0742L34.6875 23.75C35.6055 22.8516 36.2695 22.207 36.2695 20.7422L36.2695 15.9375C36.2695 14.8438 35.9766 14.2188 35.2344 13.4766L32.9883 11.2695C32.2461 10.5469 31.6406 10.0977 30.5273 10.0977L25.6055 10.0977C24.1602 10.0977 23.4766 10.7617 22.5781 11.6797L10.2734 24.082C8.86719 25.5078 8.88672 26.875 10.2539 28.2422ZM27.6758 18.6719C27.0117 18.0273 27.0117 16.9336 27.6758 16.2305C28.3203 15.5664 29.4336 15.5664 30.0977 16.2305C30.7617 16.8945 30.7617 17.9688 30.0781 18.6523C29.4141 19.3555 28.3398 19.3359 27.6758 18.6719Z" fill="black" fill-opacity="0.85"/>
 </g>
</svg>
