<?xml version="1.0" encoding="UTF-8"?>
<!--Generator: Apple Native CoreSVG 326-->
<!DOCTYPE svg
PUBLIC "-//W3C//DTD SVG 1.1//EN"
       "http://www.w3.org/Graphics/SVG/1.1/DTD/svg11.dtd">
<svg version="1.1" xmlns="http://www.w3.org/2000/svg" xmlns:xlink="http://www.w3.org/1999/xlink" viewBox="0 0 42.3047 53.8477">
 <g>
  <rect height="53.8477" opacity="0" width="42.3047" x="0" y="0"/>
  <path d="M10.7031 12.1484C9.88281 12.1484 9.27734 11.5234 9.27734 10.7422C9.27734 9.94141 9.88281 9.33594 10.7031 9.33594L31.9922 9.33594C32.793 9.33594 33.3984 9.94141 33.3984 10.7422C33.3984 11.5234 32.793 12.1484 31.9922 12.1484ZM10.7031 19.5117C9.88281 19.5117 9.27734 18.8867 9.27734 18.1055C9.27734 17.3438 9.88281 16.7383 10.7031 16.7383L23.5156 16.7383C24.3359 16.7383 24.9609 17.3438 24.9609 18.1055C24.9609 18.8867 24.3359 19.5117 23.5156 19.5117ZM11.1328 46.0938C8.92578 46.0938 7.69531 44.9414 7.69531 42.6562L7.69531 27.5195C7.69531 25.2344 8.92578 24.1016 11.1328 24.1016L30.8203 24.1016C33.0859 24.1016 34.2383 25.2344 34.2383 27.5195L34.2383 42.6562C34.2383 44.9414 33.0859 46.0938 30.8203 46.0938ZM0 46.25C0 51.2891 2.51953 53.8477 7.51953 53.8477L34.4141 53.8477C39.4141 53.8477 41.9336 51.2891 41.9336 46.25L41.9336 7.61719C41.9336 2.57812 39.4141 0.0195312 34.4141 0.0195312L7.51953 0.0195312C2.51953 0.0195312 0 2.57812 0 7.61719Z" fill="black" fill-opacity="0.85"/>
 </g>
</svg>
