<?xml version="1.0" encoding="UTF-8"?>
<!--Generator: Apple Native CoreSVG 326-->
<!DOCTYPE svg
PUBLIC "-//W3C//DTD SVG 1.1//EN"
       "http://www.w3.org/Graphics/SVG/1.1/DTD/svg11.dtd">
<svg version="1.1" xmlns="http://www.w3.org/2000/svg" xmlns:xlink="http://www.w3.org/1999/xlink" viewBox="0 0 55.3906 54.5508">
 <g>
  <rect height="54.5508" opacity="0" width="55.3906" x="0" y="0"/>
  <path d="M14.8438 54.5508C15.918 54.5508 16.6602 53.9844 17.9297 52.8516L26.7383 45.0977L44.0039 45.0977C51.0742 45.0977 55.0195 41.0547 55.0195 34.1016L55.0195 14.1797C55.0195 7.20703 51.0742 3.16406 44.0039 3.16406L11.0156 3.16406C3.92578 3.16406 0 7.1875 0 14.1797L0 34.1016C0 41.0938 3.92578 45.0977 11.0156 45.0977L12.4805 45.0977L12.4805 51.8164C12.4805 53.4766 13.3398 54.5508 14.8438 54.5508ZM15.7031 50.625L15.7031 43.2812C15.7031 42.0898 15.2539 41.6406 14.082 41.6406L11.0352 41.6406C5.99609 41.6406 3.45703 38.9453 3.45703 34.0625L3.45703 14.1992C3.45703 9.31641 5.99609 6.62109 11.0352 6.62109L43.9844 6.62109C48.9648 6.62109 51.5625 9.31641 51.5625 14.1992L51.5625 34.0625C51.5625 38.9453 48.9648 41.6406 43.9844 41.6406L26.6602 41.6406C25.4297 41.6406 24.7852 41.8359 23.9258 42.7148Z" fill="black" fill-opacity="0.85"/>
  <path d="M14.2578 16.9531L40.1562 16.9531C40.8594 16.9531 41.4258 16.3867 41.4258 15.6641C41.4258 14.9609 40.8594 14.3945 40.1562 14.3945L14.2578 14.3945C13.5547 14.3945 12.9883 14.9609 12.9883 15.6641C12.9883 16.3867 13.5547 16.9531 14.2578 16.9531ZM14.2578 25.1562L40.1562 25.1562C40.8594 25.1562 41.4258 24.5898 41.4258 23.8672C41.4258 23.1641 40.8594 22.5781 40.1562 22.5781L14.2578 22.5781C13.5547 22.5781 12.9883 23.1641 12.9883 23.8672C12.9883 24.5898 13.5547 25.1562 14.2578 25.1562ZM14.2578 33.3789L31.1914 33.3789C31.8945 33.3789 32.4609 32.8125 32.4609 32.0898C32.4609 31.3672 31.8945 30.8008 31.1914 30.8008L14.2578 30.8008C13.5547 30.8008 12.9883 31.3672 12.9883 32.0898C12.9883 32.8125 13.5547 33.3789 14.2578 33.3789Z" fill="black" fill-opacity="0.85"/>
 </g>
</svg>
