<?xml version="1.0" encoding="UTF-8"?>
<!--Generator: Apple Native CoreSVG 326-->
<!DOCTYPE svg
PUBLIC "-//W3C//DTD SVG 1.1//EN"
       "http://www.w3.org/Graphics/SVG/1.1/DTD/svg11.dtd">
<svg version="1.1" xmlns="http://www.w3.org/2000/svg" xmlns:xlink="http://www.w3.org/1999/xlink" viewBox="0 0 37.3633 55.8789">
 <g>
  <rect height="55.8789" opacity="0" width="37.3633" x="0" y="0"/>
  <path d="M30.6641 9.12109L36.0352 9.12109C36.8164 9.12109 37.3633 8.53516 37.3633 7.85156C37.3633 7.14844 36.8164 6.5625 36.0352 6.5625L30.6641 6.5625C29.8828 6.5625 29.3359 7.14844 29.3359 7.85156C29.3359 8.53516 29.8828 9.12109 30.6641 9.12109ZM30.6641 16.2109L36.0352 16.2109C36.8164 16.2109 37.3633 15.6055 37.3633 14.9219C37.3633 14.2383 36.8164 13.6328 36.0352 13.6328L30.6641 13.6328C29.8828 13.6328 29.3359 14.2383 29.3359 14.9219C29.3359 15.6055 29.8828 16.2109 30.6641 16.2109ZM30.6641 23.2812L36.0352 23.2812C36.8164 23.2812 37.3633 22.6953 37.3633 21.9922C37.3633 21.3086 36.8164 20.7227 36.0352 20.7227L30.6641 20.7227C29.8828 20.7227 29.3359 21.3086 29.3359 21.9922C29.3359 22.6953 29.8828 23.2812 30.6641 23.2812ZM30.6641 30.3516L36.0352 30.3516C36.8164 30.3516 37.3633 29.7656 37.3633 29.082C37.3633 28.3789 36.8164 27.793 36.0352 27.793L30.6641 27.793C29.8828 27.793 29.3359 28.3789 29.3359 29.082C29.3359 29.7656 29.8828 30.3516 30.6641 30.3516Z" fill="black" fill-opacity="0.85"/>
  <path d="M18.5156 55.8203C25.6445 55.8203 31.4062 50.0391 31.4062 42.9297C31.4062 39.1797 29.8438 35.8594 26.8164 33.2031C26.2305 32.6953 26.1133 32.3633 26.1133 31.543L26.1328 8.22266C26.1328 3.33984 23.0273 0 18.5156 0C13.9844 0 10.8594 3.33984 10.8594 8.22266L10.8789 31.543C10.8789 32.3633 10.7617 32.6953 10.1758 33.2031C7.14844 35.8594 5.58594 39.1797 5.58594 42.9297C5.58594 50.0391 11.3477 55.8203 18.5156 55.8203ZM18.5156 52.6953C13.125 52.6953 8.75 48.3008 8.75 42.9297C8.75 39.7656 10.2148 36.8945 12.9297 35.0586C13.75 34.4922 14.0625 33.9258 14.0625 32.8711L14.0625 8.33984C14.0625 5.27344 15.8789 3.16406 18.5156 3.16406C21.1133 3.16406 22.9297 5.27344 22.9297 8.33984L22.9297 32.8711C22.9297 33.9258 23.2422 34.4922 24.0625 35.0586C26.7773 36.8945 28.2422 39.7656 28.2422 42.9297C28.2422 48.3008 23.8672 52.6953 18.5156 52.6953Z" fill="black" fill-opacity="0.85"/>
  <path d="M18.4961 49.2969C22.0117 49.2969 24.8438 46.4648 24.8438 42.9102C24.8438 40.4492 23.4766 38.418 21.4453 37.3242C20.5859 36.875 20.3125 36.543 20.3125 35.2734L20.3125 7.8125C20.3125 6.60156 19.5117 5.80078 18.4961 5.80078C17.4805 5.80078 16.6797 6.60156 16.6797 7.8125L16.6797 35.2734C16.6797 36.543 16.4062 36.875 15.5469 37.3242C13.5156 38.418 12.1484 40.4492 12.1484 42.9102C12.1484 46.4648 14.9805 49.2969 18.4961 49.2969Z" fill="black" fill-opacity="0.85"/>
 </g>
</svg>
