<?xml version="1.0" encoding="UTF-8"?>
<!--Generator: Apple Native CoreSVG 326-->
<!DOCTYPE svg
PUBLIC "-//W3C//DTD SVG 1.1//EN"
       "http://www.w3.org/Graphics/SVG/1.1/DTD/svg11.dtd">
<svg version="1.1" xmlns="http://www.w3.org/2000/svg" xmlns:xlink="http://www.w3.org/1999/xlink" viewBox="0 0 46.2891 45.918">
 <g>
  <rect height="45.918" opacity="0" width="46.2891" x="0" y="0"/>
  <path d="M7.59766 45.918L38.3008 45.918C43.3594 45.918 45.918 43.3594 45.918 38.3984L45.918 7.53906C45.918 2.55859 43.3594 0 38.3008 0L7.59766 0C2.55859 0 0 2.53906 0 7.53906L0 38.3984C0 43.3984 2.55859 45.918 7.59766 45.918ZM7.67578 42.4609C4.94141 42.4609 3.45703 41.0156 3.45703 38.2031L3.45703 7.71484C3.45703 4.92188 4.94141 3.45703 7.67578 3.45703L38.2422 3.45703C40.918 3.45703 42.4609 4.92188 42.4609 7.71484L42.4609 38.2031C42.4609 41.0156 40.918 42.4609 38.2422 42.4609Z" fill="black" fill-opacity="0.85"/>
  <path d="M8.10547 22.9688C8.10547 31.1328 14.8047 37.832 22.9688 37.832C31.1328 37.832 37.832 31.1328 37.832 22.9688C37.832 14.8242 31.1328 8.10547 22.9883 8.10547C21.9922 8.10547 21.3867 8.73047 21.3867 9.72656L21.3867 14.8828C21.3867 15.7422 21.9922 16.3672 22.832 16.3672C23.6523 16.3672 24.2773 15.7031 24.2773 14.8828L24.2773 11.3477C30.1562 11.9727 34.6875 16.9141 34.6875 22.9688C34.6875 29.4531 29.4727 34.6875 22.9688 34.6875C16.4844 34.6875 11.2305 29.4531 11.25 22.9688C11.25 20.0781 12.2852 17.3438 14.1992 15.1953C14.7656 14.4922 14.7852 13.6328 14.1992 12.9883C13.5547 12.3242 12.5391 12.3828 11.8555 13.1836C9.45312 15.8789 8.10547 19.3945 8.10547 22.9688ZM25.2148 25.0391C26.3281 23.8672 26.1133 22.207 24.7461 21.3086L17.7734 16.5039C16.8555 15.8984 16.0352 16.6797 16.6406 17.5977L21.4844 24.5703C22.4219 25.9375 24.0625 26.1719 25.2148 25.0391Z" fill="black" fill-opacity="0.85"/>
 </g>
</svg>
