<?xml version="1.0" encoding="UTF-8"?>
<!--Generator: Apple Native CoreSVG 326-->
<!DOCTYPE svg
PUBLIC "-//W3C//DTD SVG 1.1//EN"
       "http://www.w3.org/Graphics/SVG/1.1/DTD/svg11.dtd">
<svg version="1.1" xmlns="http://www.w3.org/2000/svg" xmlns:xlink="http://www.w3.org/1999/xlink" viewBox="0 0 83.3594 49.2383">
 <g>
  <rect height="49.2383" opacity="0" width="83.3594" x="0" y="0"/>
  <path d="M30.4297 24.4336C37.5391 24.4141 43.2812 21.9531 47.9297 17.168C43.418 11.2695 38.418 8.16406 30.7031 8.14453C23.0469 8.125 18.125 10.5859 13.1445 17.2656C17.8125 22.0508 23.6914 24.4531 30.4297 24.4336ZM14.1406 39.4336C17.9297 35.6445 20.7227 30.1758 21.3086 25.5859C17.8516 24.3359 13.9844 22.0117 11.5234 19.5312C10.2734 21.4844 8.98438 23.6719 7.77344 25.957C5.52734 30.332 2.73438 32.793 1.01562 34.2773C0.390625 34.8438 0 35.5078 0 36.3867C0 37.6367 1.38672 38.3398 3.76953 38.3398L7.01172 38.3398C10.0195 38.3398 12.1289 38.7891 14.1406 39.4336ZM30.1367 44.9609C36.2695 44.9609 40.5078 42.168 44.1016 40.4688C40.1367 36.5234 37.832 31.5039 37.3633 26.3086C35.1562 26.9336 32.8711 27.2461 30.4883 27.2461C28.1055 27.2656 25.8594 26.9531 23.75 26.3867C23.2227 31.1328 20.918 36.3281 17.0117 40.5078C20.4102 41.8945 24.3164 44.9609 30.1367 44.9609ZM46.6992 39.3945C49.1406 38.6914 51.3477 38.2227 54.3945 38.2227C56.582 38.2227 58.6719 37.9297 59.7461 37.3047C56.875 33.6914 52.0117 23.3984 49.4141 19.2969C46.7773 21.8555 42.8516 24.2969 39.9023 25.4688C40.3711 30.332 42.6367 35.1953 46.6992 39.3945Z" fill="black" fill-opacity="0.85"/>
  <path d="M7.14844 49.1016C11.3281 49.1016 15.6836 47.1484 17.7344 44.0625C15.4297 42.5586 12.5977 41.1914 9.82422 40.957C8.55469 41.3477 7.14844 41.4258 5.58594 41.7578C3.20312 42.2266 1.32812 43.1445 1.32812 45.2148C1.32812 47.6953 3.78906 49.1016 7.14844 49.1016ZM52.9883 49.2383C56.3672 49.2383 58.8086 47.832 58.8086 45.332C58.8086 43.2617 56.9531 41.7578 54.5508 41.4844C52.9883 41.3477 51.7773 41.2891 50.332 41.0742C47.6758 41.3477 44.8438 42.7344 42.4023 44.1797C44.4531 47.2656 48.8086 49.2383 52.9883 49.2383ZM61.9531 36.3281C65.918 34.3555 67.7344 32.5391 72.5 32.5391C78.75 32.5391 82.9883 30.1172 82.9883 26.3867C82.9883 18.1055 78.5156 12.2461 71.7773 12.2461C65.8984 12.2461 62.3242 15.9766 60.8594 21.4258C59.5703 25.8008 58.3594 27.207 56.8555 28.3984C58.0664 30.1367 60 33.4961 61.9531 36.3281ZM72.5195 23.9648C71.3867 23.9648 70.4492 23.0273 70.4492 21.8945C70.4492 20.7617 71.3867 19.8242 72.5195 19.8242C73.6523 19.8242 74.5898 20.7617 74.5898 21.8945C74.5898 23.0273 73.6523 23.9648 72.5195 23.9648Z" fill="black" fill-opacity="0.85"/>
 </g>
</svg>
