<?xml version="1.0" encoding="UTF-8"?>
<!--Generator: Apple Native CoreSVG 326-->
<!DOCTYPE svg
PUBLIC "-//W3C//DTD SVG 1.1//EN"
       "http://www.w3.org/Graphics/SVG/1.1/DTD/svg11.dtd">
<svg version="1.1" xmlns="http://www.w3.org/2000/svg" xmlns:xlink="http://www.w3.org/1999/xlink" viewBox="0 0 55.1081 53.9258">
 <g>
  <rect height="53.9258" opacity="0" width="55.1081" x="0" y="0"/>
  <path d="M2.65172 35.2734C3.29625 35.0781 3.62828 34.4141 3.43297 33.5938C2.78844 31.1328 2.45641 28.1836 2.55406 24.7656C2.57359 23.9648 2.10484 23.4961 1.44078 23.457C0.581407 23.3984 0.112657 23.9453 0.0540635 24.6289C-0.121718 27.5195 0.112657 31.0352 1.03063 34.3164C1.24547 35.1172 1.94859 35.4883 2.65172 35.2734ZM1.65563 20.4297C2.30016 20.6641 3.12047 20.4102 3.43297 19.5508C7.43688 8.10547 17.183 2.51953 27.0267 2.51953C31.6752 2.51953 35.2494 3.53516 38.14 5.25391C38.8822 5.70312 39.7416 5.64453 40.0541 4.92188C40.4056 4.14062 39.9955 3.63281 39.4291 3.28125C35.8548 0.996094 31.9681 0 27.0267 0C15.8744 0 5.52281 5.99609 1.01109 18.3203C0.600938 19.4141 1.01109 20.1758 1.65563 20.4297ZM53.5697 29.3164C54.2923 29.3164 54.8197 28.7305 54.7416 27.9492C53.6869 18.0273 50.2103 11.3867 44.5072 6.46484C43.8822 5.91797 43.0814 6.03516 42.6908 6.48438C42.2416 6.97266 42.2025 7.71484 42.8666 8.32031C47.9252 12.9688 51.4798 19.0039 52.3197 27.9883C52.3978 28.7305 52.847 29.3164 53.5697 29.3164Z" fill="black" fill-opacity="0.85"/>
  <path d="M5.73766 42.5586C6.14781 43.1641 7.00719 43.3008 7.63219 42.7539C9.40953 41.2695 10.308 38.8086 10.2884 36.3867C10.2689 32.8711 8.765 31.1719 8.765 26.7383C8.765 16.9727 16.9877 8.75 26.7728 8.75C38.8431 8.75 46.4408 18.5156 46.4994 32.7539C46.4994 38.1641 45.64 42.1875 44.6439 44.7461C44.3314 45.4688 44.6244 46.2109 45.2103 46.4844C45.8158 46.7578 46.6752 46.5234 46.9486 45.7812C48.0033 42.8711 48.9798 38.4961 48.9798 32.7344C48.9798 17.0508 40.3666 6.26953 26.7728 6.26953C15.6205 6.26953 6.28453 15.6055 6.28453 26.7383C6.28453 30.8984 7.8275 33.7109 7.86656 36.3672C7.86656 38.0664 7.2025 39.7461 5.99156 40.8008C5.46422 41.25 5.36656 42.0312 5.73766 42.5586Z" fill="black" fill-opacity="0.85"/>
  <path d="M16.7338 33.8672C16.0502 32.0898 15.0541 29.7852 15.0541 27.0117C15.0541 20.1562 20.1908 15.0195 27.0267 15.0195C29.5463 15.0195 30.6791 15.3906 32.808 16.5039C33.5111 16.8555 34.1556 16.6406 34.4095 16.1523C34.7416 15.5469 34.6244 14.7852 33.8041 14.2969C32.0463 13.2227 29.5267 12.5 27.0267 12.5C18.8041 12.5 12.5345 18.7695 12.5345 27.0117C12.5345 29.9023 13.3353 32.4805 14.2923 34.8242C14.6244 35.5859 15.308 35.918 16.0697 35.6055C16.7338 35.332 16.9877 34.6094 16.7338 33.8672Z" fill="black" fill-opacity="0.85"/>
  <path d="M11.4213 47.1875C13.2767 46.2305 15.8158 42.9883 16.4994 40.3516C16.6752 39.6875 16.3627 38.9648 15.6791 38.7305C15.0345 38.5352 14.3705 38.8867 14.1361 39.6289C13.4525 41.9727 12.1244 43.6719 10.2884 44.9414C9.48766 45.4883 9.39 46.2109 9.64391 46.7383C9.91734 47.2852 10.6205 47.5977 11.4213 47.1875ZM36.6556 19.8047C39.0775 23.3594 40.2689 28.3594 40.2689 34.1797C40.2689 40.3906 38.5697 46.3281 35.7963 49.9023C35.3861 50.4492 35.308 51.2109 35.8158 51.6992C36.3431 52.2266 37.2611 52.207 37.7298 51.6016C40.8158 47.4023 42.7494 40.8984 42.7494 34.1016C42.7494 26.9141 41.1869 22.168 38.8627 18.4961C38.3939 17.7344 37.6127 17.5391 36.9877 17.8711C36.3431 18.2227 36.1478 19.043 36.6556 19.8047Z" fill="black" fill-opacity="0.85"/>
  <path d="M16.6752 50.4688C20.7181 47.207 22.9642 42.0117 22.9252 36.2305C22.8861 31.875 21.3431 29.1602 21.3431 26.6992C21.3431 23.457 23.6283 21.2891 26.9095 21.2891C31.89 21.2891 33.7259 26.7383 33.8431 33.8672C34.0384 41.7773 31.1673 48.3203 27.4564 51.6211C26.9291 52.0898 26.8119 52.793 27.183 53.3203C27.5931 53.9258 28.472 54.043 29.058 53.4961C33.0228 49.9023 36.2455 42.168 36.2064 33.7109C36.1673 25.0977 33.6478 18.8086 26.9095 18.8086C22.3588 18.8086 18.8822 21.875 18.8822 26.4844C18.8822 29.2578 20.3861 32.7148 20.4056 36.2305C20.4447 41.2305 18.5502 45.6836 15.1127 48.4961C14.4877 49.0039 14.4095 49.7266 14.7806 50.293C15.2298 50.918 16.0502 50.9961 16.6752 50.4688Z" fill="black" fill-opacity="0.85"/>
  <path d="M22.4564 52.5C24.4486 51.0352 26.8119 47.9492 27.9056 44.4922C28.0619 43.9648 27.9447 43.1445 27.2416 42.9102C26.4994 42.6562 25.8353 43.0078 25.6205 43.6133C24.2923 47.1289 22.6517 49.1602 20.933 50.4688C20.3666 50.918 20.1908 51.6797 20.5814 52.2461C20.9525 52.8711 21.8119 52.9688 22.4564 52.5ZM29.3119 38.8477C30.0541 35.5469 29.7416 31.0742 28.4525 27.4414C28.1595 26.582 27.4955 26.2695 26.8119 26.5039C26.1478 26.6992 25.7767 27.3438 26.0111 28.1055C27.222 31.6406 27.4955 35.4297 26.8509 38.4961C26.7142 39.1797 26.9877 39.8242 27.7494 39.9609C28.4916 40.0977 29.1556 39.668 29.3119 38.8477Z" fill="black" fill-opacity="0.85"/>
 </g>
</svg>
