<?xml version="1.0" encoding="UTF-8"?>
<!--Generator: Apple Native CoreSVG 326-->
<!DOCTYPE svg
PUBLIC "-//W3C//DTD SVG 1.1//EN"
       "http://www.w3.org/Graphics/SVG/1.1/DTD/svg11.dtd">
<svg version="1.1" xmlns="http://www.w3.org/2000/svg" xmlns:xlink="http://www.w3.org/1999/xlink" viewBox="0 0 51.25 50.918">
 <g>
  <rect height="50.918" opacity="0" width="51.25" x="0" y="0"/>
  <path d="M50.8789 25.4688C50.8789 39.4922 39.4531 50.918 25.4297 50.918C11.4258 50.918 0 39.4922 0 25.4688C0 11.4648 11.4258 0.0390625 25.4297 0.0390625C39.4531 0.0390625 50.8789 11.4648 50.8789 25.4688ZM22.793 9.6875C20.625 9.6875 19.2578 11.0156 19.2578 13.0273L19.2578 15.1953L12.8125 15.1953C12.2656 15.1953 11.8164 15.6641 11.8164 16.2305C11.8164 16.7773 12.2656 17.207 12.8125 17.207L15.0586 17.207L16.0156 38.0078C16.0742 39.707 17.1484 40.7031 18.8477 40.7031L32.0898 40.7031C33.75 40.7031 34.8828 39.707 34.9414 38.0078L35.8789 17.207L38.0078 17.207C38.5938 17.207 39.0039 16.7773 39.0234 16.2305C39.043 15.6641 38.5938 15.1953 38.0078 15.1953L31.6602 15.1953L31.6602 13.0273C31.6602 11.0156 30.2539 9.6875 28.0859 9.6875ZM21.2695 20.5469L21.8555 35.8594C21.875 36.3477 21.5625 36.6992 21.0156 36.6992C20.5273 36.6992 20.1562 36.3672 20.1367 35.8789L19.4922 20.5664C19.4727 20.0391 19.8047 19.707 20.3906 19.707C20.8984 19.707 21.25 20.0195 21.2695 20.5469ZM31.2891 20.5664L30.625 35.8789C30.625 36.3672 30.2539 36.6992 29.7461 36.6992C29.2188 36.6992 28.9062 36.3477 28.9258 35.8594L29.5117 20.5469C29.5312 20.0195 29.8828 19.707 30.4102 19.707C30.957 19.707 31.2891 20.0391 31.2891 20.5664ZM26.2891 20.5664L26.2891 35.8594C26.2891 36.3281 25.918 36.6797 25.3906 36.6797C24.8633 36.6797 24.5117 36.3281 24.5117 35.8594L24.5117 20.5664C24.5117 20.0391 24.8242 19.707 25.3906 19.707C25.9375 19.707 26.2891 20.0391 26.2891 20.5664ZM29.2383 13.1641L29.2383 15.1953L21.582 15.1953L21.582 13.1641C21.582 12.4219 22.1094 11.9531 22.8711 11.9531L27.9297 11.9531C28.7109 11.9531 29.2383 12.4219 29.2383 13.1641Z" fill="black" fill-opacity="0.85"/>
 </g>
</svg>
