<?xml version="1.0" encoding="UTF-8"?>
<!--Generator: Apple Native CoreSVG 326-->
<!DOCTYPE svg
PUBLIC "-//W3C//DTD SVG 1.1//EN"
       "http://www.w3.org/Graphics/SVG/1.1/DTD/svg11.dtd">
<svg version="1.1" xmlns="http://www.w3.org/2000/svg" xmlns:xlink="http://www.w3.org/1999/xlink" viewBox="0 0 95.3516 40.0977">
 <g>
  <rect height="40.0977" opacity="0" width="95.3516" x="0" y="0"/>
  <path d="M2.46094 3.28125L9.74609 3.28125C10.7812 3.28125 11.4648 3.51562 12.0898 4.14062L20.9375 12.9883L23.9062 11.3477L14.6289 2.07031C13.3008 0.722656 11.582 0.15625 9.39453 0.15625L2.46094 0.15625C1.48438 0.15625 0.859375 0.78125 0.859375 1.69922C0.859375 2.63672 1.48438 3.28125 2.46094 3.28125ZM6.07422 34.7461L9.45312 34.7461C9.27734 34.0234 9.17969 33.3008 9.17969 32.5195C9.17969 27.2266 13.4375 22.9688 18.7305 22.9688C24.043 22.9688 28.3008 27.2266 28.3008 32.5195C28.3008 33.3008 28.2031 34.043 28.0469 34.7461L62.4219 34.7461C62.2461 34.0234 62.1484 33.3008 62.1484 32.5195C62.1484 27.2461 66.4258 22.9688 71.6992 22.9688C77.0117 22.9688 81.2695 27.2266 81.2695 32.5195C81.2695 33.3008 81.1523 34.0234 80.9766 34.7461L88.8867 34.7461C92.7344 34.7461 94.9805 32.4414 94.9805 28.4961L94.9805 18.6914C94.9805 14.7461 92.7344 12.4414 88.8867 12.4414L67.9102 12.4414L67.3047 7.12891C66.7578 2.42188 64.0625 0 59.3945 0L49.2188 0C41.0547 0 36.3672 1.17188 30.8789 4.60938L20.5078 11.1523L11.1133 12.5195C3.49609 13.6328 0 16.9336 0 22.832L0 28.4961C0 32.4414 2.24609 34.7461 6.07422 34.7461ZM18.7305 39.3555C22.5586 39.3555 25.5859 36.3477 25.5859 32.5195C25.5859 28.7109 22.5391 25.6836 18.7305 25.6836C14.9414 25.6836 11.8945 28.7109 11.8945 32.5195C11.8945 36.3281 14.9414 39.3555 18.7305 39.3555ZM71.6992 39.3555C75.5078 39.3555 78.5352 36.3281 78.5352 32.5195C78.5352 28.7109 75.5078 25.6836 71.6992 25.6836C67.9102 25.6836 64.8633 28.7305 64.8633 32.5195C64.8633 36.3281 67.8906 39.3555 71.6992 39.3555Z" fill="black" fill-opacity="0.85"/>
 </g>
</svg>
