<?xml version="1.0" encoding="UTF-8"?>
<!--Generator: Apple Native CoreSVG 326-->
<!DOCTYPE svg
PUBLIC "-//W3C//DTD SVG 1.1//EN"
       "http://www.w3.org/Graphics/SVG/1.1/DTD/svg11.dtd">
<svg version="1.1" xmlns="http://www.w3.org/2000/svg" xmlns:xlink="http://www.w3.org/1999/xlink" viewBox="0 0 83.0594 63.9115">
 <g>
  <rect height="63.9115" opacity="0" width="83.0594" x="0" y="0"/>
  <path d="M7.76992 63.0202C8.27773 63.8796 9.35195 64.153 10.1527 63.6843L80.0746 23.3718C80.8754 22.903 81.1879 21.8874 80.7191 21.0671C80.2113 20.1882 79.1371 19.9147 78.3363 20.3835L8.41445 60.696C7.61367 61.1647 7.3207 62.2194 7.76992 63.0202ZM10.2895 50.3053L12.6723 48.9382C12.2621 48.5085 11.891 48.0397 11.5785 47.4928C9.43008 43.7819 10.6801 39.0553 14.4105 36.9069C18.1215 34.778 22.8285 36.028 24.977 39.7585C25.2895 40.2858 25.5238 40.8522 25.6996 41.4186L49.8207 27.4928C49.4105 27.0632 49.0395 26.5944 48.727 26.0475C46.5785 22.3366 47.848 17.61 51.559 15.4616C55.2699 13.3132 59.977 14.5827 62.1254 18.2936C62.4574 18.8405 62.6723 19.3874 62.848 19.9733L68.3949 16.7702C71.0902 15.2077 71.7152 12.6882 70.1332 9.93425L66.1488 3.03972C64.5668 0.285817 62.0473-0.436839 59.352 1.12566L44.6449 9.62175L42.0473 6.14519C39.7816 3.05925 36.9105 2.45379 33.6293 4.34832L26.4809 8.46941C20.7582 11.7702 17.9457 14.485 15.5043 19.1335L10.8559 27.903L4.8207 32.6882C-0.0621122 36.5358-1.17539 40.2663 1.20742 44.4069L3.51211 48.3913C5.09414 51.1647 7.61367 51.8678 10.2895 50.3053ZM21.0512 48.4108C23.727 46.8678 24.6254 43.528 23.0824 40.8522C21.5395 38.1764 18.1801 37.278 15.5043 38.821C12.848 40.3639 11.9301 43.7233 13.473 46.3991C15.016 49.0553 18.3754 49.9538 21.0512 48.4108ZM58.1996 26.9655C60.8754 25.4225 61.7738 22.0632 60.2309 19.4069C58.6879 16.7311 55.3285 15.8327 52.6527 17.3757C49.9965 18.8991 49.098 22.278 50.641 24.9343C52.1645 27.61 55.5238 28.5085 58.1996 26.9655Z" fill="black" fill-opacity="0.85"/>
  <path d="M78.3754 62.2194C79.9965 62.2194 81.1293 61.3991 81.852 60.1882C82.3012 59.4655 82.6918 58.2741 82.6918 57.4733C82.6918 56.7702 82.2035 56.321 81.5004 56.321C80.934 56.321 80.5043 56.7116 80.3676 57.3366C80.0746 58.8796 79.6254 59.9538 78.2973 59.9538C76.6371 59.9538 75.9145 57.4343 75.9145 54.0358C75.9145 50.2858 76.852 48.1178 78.2973 48.1178C79.5277 48.1178 80.1137 49.3483 80.3285 50.7546C80.4262 51.4382 80.8949 51.8483 81.559 51.8483C82.2426 51.8483 82.6332 51.3405 82.6332 50.6569C82.6332 49.7389 82.184 48.3522 81.4418 47.4538C80.6605 46.4772 79.5473 45.8913 78.2777 45.8913C76.0902 45.8913 74.8012 47.3757 74.1176 49.1139C73.4926 50.5983 73.3168 52.2975 73.3168 54.0358C73.3168 56.0671 73.5316 58.0983 74.4496 59.7975C75.309 61.3405 76.5785 62.2194 78.3754 62.2194ZM52.1059 62.0827C52.8871 62.0827 53.3949 61.5749 53.3949 60.7741L53.3949 54.9733L57.6527 54.9733L57.6527 60.7741C57.6527 61.5749 58.1605 62.0827 58.9418 62.0827C59.723 62.0827 60.2309 61.5749 60.2309 60.7741L60.2309 47.3171C60.2309 46.5358 59.723 46.028 58.9418 46.028C58.1605 46.028 57.6527 46.5358 57.6527 47.3171L57.6527 52.8249L53.3949 52.8249L53.3949 47.3171C53.3949 46.5358 52.8871 46.028 52.1059 46.028C51.3441 46.028 50.8559 46.5358 50.8559 47.3171L50.8559 60.7741C50.8559 61.5749 51.3441 62.0827 52.1059 62.0827ZM63.6684 62.0827L66.4418 62.0827C70.4848 62.0827 71.8324 58.0593 71.8324 54.0163C71.8324 49.6413 70.309 46.028 66.4418 46.028L63.6684 46.028C62.9262 46.028 62.3988 46.4772 62.3988 47.3561L62.3988 60.7546C62.3988 61.6335 62.9262 62.0827 63.6684 62.0827ZM64.9184 59.9147L64.9184 48.196L66.1293 48.196C68.727 48.196 69.2348 51.4382 69.2348 54.0163C69.2348 56.6335 68.766 59.9147 66.1293 59.9147Z" fill="black" fill-opacity="0.85"/>
 </g>
</svg>
