<?xml version="1.0" encoding="UTF-8"?>
<!--Generator: Apple Native CoreSVG 326-->
<!DOCTYPE svg
PUBLIC "-//W3C//DTD SVG 1.1//EN"
       "http://www.w3.org/Graphics/SVG/1.1/DTD/svg11.dtd">
<svg version="1.1" xmlns="http://www.w3.org/2000/svg" xmlns:xlink="http://www.w3.org/1999/xlink" viewBox="0 0 62.3438 63.9552">
 <g>
  <rect height="63.9552" opacity="0" width="62.3438" x="0" y="0"/>
  <path d="M45.2344 54.8194C45.2344 55.7764 44.4531 56.5577 43.4961 56.5577L18.4961 56.5577C17.5195 56.5577 16.7383 55.7764 16.7383 54.8194C16.7383 53.8428 17.5195 53.0616 18.4961 53.0616L43.4961 53.0616C44.4531 53.0616 45.2344 53.8428 45.2344 54.8194ZM3.59375 8.17875L43.9484 48.5498L6.11328 48.5498C2.08984 48.5498 0 46.5577 0 42.4561L0 13.4522C0 10.4687 1.10579 8.60128 3.26256 7.81038C3.3652 7.93779 3.47572 8.06072 3.59375 8.17875ZM61.9727 13.4522L61.9727 42.4561C61.9727 46.0205 60.4091 47.9918 57.3569 48.445L16.3038 7.35844L55.8789 7.35844C59.9023 7.35844 61.9727 9.35062 61.9727 13.4522Z" fill="black" fill-opacity="0.85"/>
  <path d="M53.8086 54.0186C54.4531 54.6631 55.5078 54.6631 56.1523 54.0186C56.7969 53.3545 56.8164 52.2998 56.1523 51.6553L8.16406 3.62797C7.53906 2.98344 6.48438 2.94437 5.80078 3.62797C5.15625 4.25297 5.15625 5.34672 5.80078 5.97172Z" fill="black" fill-opacity="0.85"/>
 </g>
</svg>
