<?xml version="1.0" encoding="UTF-8"?>
<!--Generator: Apple Native CoreSVG 326-->
<!DOCTYPE svg
PUBLIC "-//W3C//DTD SVG 1.1//EN"
       "http://www.w3.org/Graphics/SVG/1.1/DTD/svg11.dtd">
<svg version="1.1" xmlns="http://www.w3.org/2000/svg" xmlns:xlink="http://www.w3.org/1999/xlink" viewBox="0 0 51.25 50.918">
 <g>
  <rect height="50.918" opacity="0" width="51.25" x="0" y="0"/>
  <path d="M50.8789 25.4492C50.8789 39.4531 39.4531 50.8789 25.4297 50.8789C11.4258 50.8789 0 39.4531 0 25.4492C0 11.4258 11.4258 0 25.4297 0C39.4531 0 50.8789 11.4258 50.8789 25.4492ZM12.5586 12.5586C12.1484 12.9883 12.168 13.6719 12.5586 14.0625L36.8164 38.3203C37.207 38.7109 37.9102 38.7305 38.3203 38.3203C38.7305 37.8711 38.7305 37.2266 38.3203 36.8164L14.082 12.5586C13.6719 12.1484 13.0078 12.1484 12.5586 12.5586ZM7.83203 25.3711C7.83203 30.8984 11.3086 35.1758 16.0352 35.1758C20.8203 35.1758 23.2422 31.2109 25.4297 31.2109C26.5999 31.2109 27.8371 32.3455 29.4743 33.4001L24.8246 28.7503C21.4818 29.1374 19.7427 32.6562 16.0352 32.6562C12.5195 32.6562 10.3125 29.9609 10.3125 25.3711C10.3125 21.7029 11.9434 19.7929 14.8923 18.8181L12.9981 16.9239C9.81634 18.3121 7.83203 20.8349 7.83203 25.3711ZM19.4426 15.4973L21.794 17.8487C22.9296 17.8058 24.1458 17.793 25.4297 17.793C34.7852 17.793 40.5469 18.4766 40.5469 25.3711C40.5469 29.2362 38.9818 31.7578 36.3956 32.4503L38.2745 34.3292C41.1538 32.8288 43.0469 29.4384 43.0469 25.3711C43.0469 16.2695 35.0391 15.2734 25.4297 15.2734C23.3317 15.2734 21.311 15.3209 19.4426 15.4973Z" fill="black" fill-opacity="0.85"/>
 </g>
</svg>
