<?xml version="1.0" encoding="UTF-8"?>
<!--Generator: Apple Native CoreSVG 326-->
<!DOCTYPE svg
PUBLIC "-//W3C//DTD SVG 1.1//EN"
       "http://www.w3.org/Graphics/SVG/1.1/DTD/svg11.dtd">
<svg version="1.1" xmlns="http://www.w3.org/2000/svg" xmlns:xlink="http://www.w3.org/1999/xlink" viewBox="0 0 92.6758 40.8789">
 <g>
  <rect height="40.8789" opacity="0" width="92.6758" x="0" y="0"/>
  <path d="M27.8711 33.3398C27.8711 37.5781 24.5508 40.8789 20.332 40.8789C16.0938 40.8789 12.793 37.5781 12.793 33.3398C12.793 29.1406 16.0938 25.8203 20.332 25.8203C24.5508 25.8203 27.8711 29.1406 27.8711 33.3398ZM80.1367 33.3398C80.1367 37.5781 76.8359 40.8789 72.5977 40.8789C68.3789 40.8789 65.0586 37.5781 65.0586 33.3398C65.0586 29.1406 68.3789 25.8203 72.5977 25.8203C76.8359 25.8203 80.1367 29.1406 80.1367 33.3398ZM47.4414 3.92578L36.1914 11.5039L65.7227 9.60938C66.8945 9.53125 68.0469 9.60938 69.2578 9.86328L84.3945 12.7148C90.0781 13.8086 92.3047 16.25 92.3047 21.9531L92.3047 26.3281C92.3047 31.2109 90.0391 33.7891 85.293 34.3164L82.832 34.5703C82.8516 34.2578 82.8516 34.082 82.8516 33.7305C82.8516 28.0273 78.3203 23.1055 72.5977 23.1055C66.875 23.1055 62.3438 27.6367 62.3438 33.3398C62.3438 34.082 62.4219 34.8047 62.5781 35.3711L30.4102 35.3711C30.5273 34.8438 30.5859 34.0625 30.5859 33.3398C30.5859 27.6367 26.0547 23.1055 20.332 23.1055C14.6094 23.1055 10.0586 27.6367 10.0586 33.3398C10.0586 34.2773 10.1953 35.6055 10.4297 36.4453L5.13672 35.8008C1.58203 35.3906 0 33.6523 0 30.1562L0 26.8555C0 20.1953 4.00391 16.582 11.9922 15.0781L29.4531 11.7773L45.3711 1.13281C47.5-0.292969 49.3945 2.59766 47.4414 3.92578ZM56.9141 22.832C53.9453 24.9609 50.0586 26.1328 45.957 26.1328C41.8945 26.1328 38.0078 24.9414 35.0195 22.832C34.4141 22.3828 33.6328 22.4805 33.1836 23.0859C32.793 23.6523 32.9492 24.3945 33.5547 24.8633C37.0508 27.2852 41.4453 28.6328 45.957 28.6328C50.4883 28.6328 54.8242 27.2852 58.3789 24.8633C58.9648 24.4141 59.1406 23.6719 58.75 23.0859C58.3008 22.4805 57.5391 22.3828 56.9141 22.832ZM53.4375 17.6953C51.4648 19.1406 48.7695 19.9609 45.957 19.9609C43.1445 19.9609 40.4688 19.1406 38.4961 17.6953C37.8516 17.2461 37.0703 17.4023 36.6992 17.9492C36.2891 18.5352 36.4258 19.2773 36.9922 19.668C39.4531 21.4844 42.6367 22.4609 45.957 22.4609C49.3359 22.4609 52.5586 21.4844 54.9414 19.668C55.5078 19.2773 55.6836 18.5352 55.2539 17.9492C54.8633 17.4023 54.082 17.2461 53.4375 17.6953Z" fill="black" fill-opacity="0.85"/>
 </g>
</svg>
