<?xml version="1.0" encoding="UTF-8"?>
<!--Generator: Apple Native CoreSVG 326-->
<!DOCTYPE svg
PUBLIC "-//W3C//DTD SVG 1.1//EN"
       "http://www.w3.org/Graphics/SVG/1.1/DTD/svg11.dtd">
<svg version="1.1" xmlns="http://www.w3.org/2000/svg" xmlns:xlink="http://www.w3.org/1999/xlink" viewBox="0 0 82.3242 60.0977">
 <g>
  <rect height="60.0977" opacity="0" width="82.3242" x="0" y="0"/>
  <path d="M13.1445 60.0781L68.8086 60.0781C73.2812 60.0781 76.6797 59.6094 79.1016 57.1875C81.5039 54.7656 81.9531 51.4062 81.9531 46.9336L81.9531 13.125C81.9531 8.65234 81.5039 5.29297 79.1016 2.89062C76.6602 0.46875 73.2812 0 68.8086 0L13.0078 0C8.69141 0 5.29297 0.46875 2.87109 2.89062C0.449219 5.3125 0 8.67188 0 13.0078L0 46.9336C0 51.4062 0.429688 54.7656 2.85156 57.1875C5.29297 59.6094 8.67188 60.0781 13.1445 60.0781ZM12.4609 56.6016C9.62891 56.6016 6.93359 56.1719 5.39062 54.6484C3.86719 53.1055 3.45703 50.4492 3.45703 47.6172L3.45703 12.5781C3.45703 9.62891 3.86719 6.95312 5.39062 5.41016C6.91406 3.86719 9.64844 3.45703 12.5781 3.45703L69.4922 3.45703C72.3242 3.45703 75.0195 3.88672 76.5625 5.42969C78.0859 6.95312 78.4961 9.60938 78.4961 12.4414L78.4961 47.6172C78.4961 50.4492 78.0859 53.1055 76.5625 54.6484C75.0195 56.1914 72.3242 56.6016 69.4922 56.6016Z" fill="black" fill-opacity="0.85"/>
  <path d="M10.8398 37.9492L71.1133 37.9492C71.875 37.9492 72.4805 37.3438 72.4805 36.5625C72.4805 35.8203 71.875 35.2148 71.1133 35.2148L10.8398 35.2148C10.0977 35.2148 9.47266 35.8203 9.47266 36.5625C9.47266 37.3438 10.0977 37.9492 10.8398 37.9492ZM10.8398 44.6289L71.1133 44.6289C71.875 44.6289 72.4805 44.0234 72.4805 43.2422C72.4805 42.5 71.875 41.8945 71.1133 41.8945L10.8398 41.8945C10.0977 41.8945 9.47266 42.5 9.47266 43.2422C9.47266 44.0234 10.0977 44.6289 10.8398 44.6289ZM10.8398 51.3086L55.0781 51.3086C55.8398 51.3086 56.4453 50.7031 56.4453 49.9219C56.4453 49.1797 55.8398 48.5742 55.0781 48.5742L10.8398 48.5742C10.0977 48.5742 9.47266 49.1797 9.47266 49.9219C9.47266 50.7031 10.0977 51.3086 10.8398 51.3086ZM11.7969 19.0039L17.2656 19.0039C19.4531 19.0039 20.957 17.5 20.957 15.3125L20.957 11.4453C20.957 9.25781 19.4531 7.75391 17.2656 7.75391L11.7969 7.75391C9.60938 7.75391 8.08594 9.25781 8.08594 11.4453L8.08594 15.3125C8.08594 17.5 9.60938 19.0039 11.7969 19.0039Z" fill="black" fill-opacity="0.85"/>
 </g>
</svg>
