<?xml version="1.0" encoding="UTF-8"?>
<!--Generator: Apple Native CoreSVG 326-->
<!DOCTYPE svg
PUBLIC "-//W3C//DTD SVG 1.1//EN"
       "http://www.w3.org/Graphics/SVG/1.1/DTD/svg11.dtd">
<svg version="1.1" xmlns="http://www.w3.org/2000/svg" xmlns:xlink="http://www.w3.org/1999/xlink" viewBox="0 0 47.4805 47.1289">
 <g>
  <rect height="47.1289" opacity="0" width="47.4805" x="0" y="0"/>
  <path d="M44.2578 2.89062C41.8164 0.46875 38.4375 0 33.9648 0L13.0078 0C8.69141 0 5.29297 0.46875 2.87109 2.89062C0.449219 5.3125 0 8.67188 0 13.0078L0 33.9648C0 38.457 0.429688 41.8164 2.85156 44.2188C5.29297 46.6406 8.67188 47.1094 13.1445 47.1094L33.9648 47.1094C38.4375 47.1094 41.8359 46.6406 44.2578 44.2188C46.6797 41.7969 47.1094 38.457 47.1094 33.9648L47.1094 13.125C47.1094 8.65234 46.6797 5.29297 44.2578 2.89062ZM43.6523 12.4414L43.6523 34.6484C43.6523 37.5 43.2422 40.1367 41.7188 41.6797C40.1758 43.2227 37.4805 43.6523 34.6484 43.6523L12.4609 43.6523C9.62891 43.6523 6.93359 43.2031 5.39062 41.6797C3.86719 40.1367 3.45703 37.5 3.45703 34.6484L3.45703 12.5781C3.45703 9.62891 3.86719 6.95312 5.39062 5.41016C6.91406 3.86719 9.64844 3.45703 12.5781 3.45703L34.6484 3.45703C37.4805 3.45703 40.1758 3.88672 41.7188 5.42969C43.2422 6.95312 43.6523 9.60938 43.6523 12.4414Z" fill="black" fill-opacity="0.85"/>
  <path d="M9.51172 38.0469L37.5977 38.0469C38.3594 38.0469 38.9648 37.4414 38.9648 36.6797C38.9648 35.918 38.3594 35.3125 37.5977 35.3125L9.51172 35.3125C8.76953 35.3125 8.14453 35.918 8.14453 36.6797C8.14453 37.4414 8.76953 38.0469 9.51172 38.0469ZM11.7969 19.1016L17.2656 19.1016C19.4531 19.1016 20.957 17.5977 20.957 15.4102L20.957 11.543C20.957 9.35547 19.4531 7.85156 17.2656 7.85156L11.7969 7.85156C9.60938 7.85156 8.08594 9.35547 8.08594 11.543L8.08594 15.4102C8.08594 17.5977 9.60938 19.1016 11.7969 19.1016Z" fill="black" fill-opacity="0.85"/>
 </g>
</svg>
