<?xml version="1.0" encoding="UTF-8"?>
<!--Generator: Apple Native CoreSVG 326-->
<!DOCTYPE svg
PUBLIC "-//W3C//DTD SVG 1.1//EN"
       "http://www.w3.org/Graphics/SVG/1.1/DTD/svg11.dtd">
<svg version="1.1" xmlns="http://www.w3.org/2000/svg" xmlns:xlink="http://www.w3.org/1999/xlink" viewBox="0 0 70.6445 46.7773">
 <g>
  <rect height="46.7773" opacity="0" width="70.6445" x="0" y="0"/>
  <path d="M35.1367 0C29.3164 0 23.6914 1.69922 19.1602 4.86328C18.4375 5.41016 18.2617 6.30859 18.7305 6.97266C19.2383 7.67578 20.1367 7.79297 20.8594 7.28516C24.7461 4.49219 29.8242 2.92969 35.1367 2.92969C40.4883 2.92969 45.5273 4.47266 49.3945 7.28516C50.1172 7.79297 51.0156 7.67578 51.543 6.97266C52.0312 6.28906 51.8359 5.39062 51.1133 4.86328C46.543 1.69922 40.9375 0 35.1367 0Z" fill="black" fill-opacity="0.85"/>
  <path d="M35.1367 7.96875C30.8398 7.96875 26.7578 9.21875 23.6133 11.5234C22.9102 12.0312 22.7539 12.9102 23.2422 13.5938C23.6914 14.2578 24.6094 14.4336 25.3711 13.9062C27.9492 12.0117 31.4453 10.9375 35.1367 10.9375C38.8281 10.9375 42.3242 12.0117 44.9023 13.9062C45.6641 14.4336 46.582 14.2578 47.0312 13.5938C47.5195 12.9102 47.3438 12.0312 46.6406 11.5234C43.5547 9.21875 39.4922 7.96875 35.1367 7.96875Z" fill="black" fill-opacity="0.85"/>
  <path d="M35.1367 15.9375C32.4805 15.9375 29.8633 16.7383 28.0664 18.1055C27.3828 18.5938 27.207 19.5117 27.6758 20.1758C28.2227 20.9375 29.1406 21.0352 29.9219 20.4883C31.25 19.4922 33.1836 18.9062 35.1367 18.9062C37.1289 18.9062 39.0625 19.4922 40.3516 20.4883C41.1328 21.0547 42.0703 20.957 42.6172 20.1758C43.0664 19.5117 42.8711 18.6133 42.207 18.1055C40.3516 16.7383 37.7344 15.9375 35.1367 15.9375Z" fill="black" fill-opacity="0.85"/>
  <path d="M6.52344 46.7188L63.75 46.7188C67.7539 46.7188 70.2734 44.2383 70.2734 40.293L70.2734 32.4219C70.2734 28.4766 67.7539 25.9961 63.75 25.9961L6.52344 25.9961C2.51953 25.9961 0 28.4766 0 32.4219L0 40.293C0 44.2383 2.51953 46.7188 6.52344 46.7188ZM9.04297 36.8164C8.10547 36.8164 7.44141 36.1523 7.44141 35.2539C7.44141 34.3164 8.10547 33.6523 9.04297 33.6523L17.6953 33.6523C18.5938 33.6523 19.2578 34.3164 19.2578 35.2539C19.2578 36.1523 18.5938 36.8164 17.6953 36.8164ZM30.8594 39.5703C29.082 39.5703 27.6172 38.1055 27.6172 36.3281C27.6172 34.5898 29.082 33.125 30.8594 33.125C32.6172 33.125 34.082 34.5898 34.082 36.3281C34.082 38.1055 32.6172 39.5703 30.8594 39.5703ZM40.5273 39.5703C38.7695 39.5703 37.2852 38.1055 37.2852 36.3281C37.2852 34.5898 38.7695 33.125 40.5273 33.125C42.3047 33.125 43.75 34.5898 43.75 36.3281C43.75 38.1055 42.3047 39.5703 40.5273 39.5703ZM50.2148 39.5703C48.4375 39.5703 46.9727 38.1055 46.9727 36.3281C46.9727 34.5898 48.4375 33.125 50.2148 33.125C51.9727 33.125 53.4375 34.5898 53.4375 36.3281C53.4375 38.1055 51.9727 39.5703 50.2148 39.5703ZM59.8828 39.5703C58.1055 39.5703 56.6406 38.125 56.6406 36.3477C56.6406 34.5898 58.1055 33.125 59.8828 33.125C61.6602 33.125 63.1055 34.5898 63.1055 36.3477C63.1055 38.125 61.6602 39.5703 59.8828 39.5703Z" fill="black" fill-opacity="0.85"/>
 </g>
</svg>
