<?xml version="1.0" encoding="UTF-8"?>
<!--Generator: Apple Native CoreSVG 326-->
<!DOCTYPE svg
PUBLIC "-//W3C//DTD SVG 1.1//EN"
       "http://www.w3.org/Graphics/SVG/1.1/DTD/svg11.dtd">
<svg version="1.1" xmlns="http://www.w3.org/2000/svg" xmlns:xlink="http://www.w3.org/1999/xlink" viewBox="0 0 72.8377 49.1158">
 <g>
  <rect height="49.1158" opacity="0" width="72.8377" x="0" y="0"/>
  <path d="M70.8036 21.1302C72.7177 22.6341 73.0106 24.7044 71.4677 26.6575L54.6317 48.2005C53.8895 49.1575 52.6395 49.3724 51.5263 48.806C47.1317 46.5599 41.37 45.095 36.2333 45.095C31.077 45.095 25.3349 46.5599 20.9403 48.806C19.8075 49.3724 18.5966 49.1575 17.8153 48.2005L0.979383 26.6575C-0.544055 24.7044-0.270617 22.6341 1.66298 21.1302C9.10314 15.4227 20.5026 12.3744 31.3895 11.6798L31.3895 15.2142C21.6915 15.8603 12.6369 18.556 4.69032 23.6692C4.02626 24.138 3.9286 24.763 4.41688 25.4075L19.4169 44.5872C19.9247 45.2317 20.2372 45.2513 20.8622 44.9974C26.0184 42.8685 31.4286 41.638 36.2333 41.638C41.038 41.638 46.4481 42.8685 51.6044 44.9974C52.2294 45.2513 52.5419 45.2317 53.0302 44.5872L68.0302 25.4075C68.538 24.763 68.4403 24.138 67.7567 23.6692C60.4574 18.9264 51.0291 15.9504 41.077 15.2291L41.077 11.6778C52.0403 12.3719 63.4061 15.4332 70.8036 21.1302Z" fill="black" fill-opacity="0.85"/>
  <path d="M36.2333 35.0169C37.1708 35.0169 37.952 34.2357 37.952 33.2786L37.952 26.8528C37.952 25.8958 37.1708 25.1146 36.2333 25.1146C35.2763 25.1146 34.495 25.8958 34.495 26.8528L34.495 33.2786C34.495 34.2357 35.2763 35.0169 36.2333 35.0169ZM36.2333 21.3646C37.1708 21.3646 37.952 20.5833 37.952 19.6263L37.952 13.2005C37.952 12.2435 37.1708 11.4622 36.2333 11.4622C35.2763 11.4622 34.495 12.2435 34.495 13.2005L34.495 19.6263C34.495 20.5833 35.2763 21.3646 36.2333 21.3646ZM8.75282 7.59503C9.5536 8.08331 10.4911 7.86846 11.1356 7.10674C12.5419 5.36846 14.3388 4.0794 16.37 3.39581C17.3075 3.04424 17.8934 2.24346 17.6981 1.30596C17.4638 0.231745 16.4286-0.276068 15.1395 0.15362C12.5809 0.993464 10.1981 2.71221 8.38173 4.97784C7.60048 5.93487 7.87391 7.06768 8.75282 7.59503ZM33.2059 7.55596C34.0849 7.02862 34.2997 5.91534 33.538 4.95831C31.7216 2.69268 29.3192 0.993464 26.7997 0.173151C25.4325-0.295599 24.4364 0.30987 24.2411 1.34503C24.0849 2.26299 24.6122 3.04424 25.5497 3.39581C27.5614 4.0794 29.3583 5.36846 30.7645 7.08721C31.4677 7.90753 32.3856 8.04424 33.2059 7.55596ZM39.2411 7.55596C40.0809 8.04424 40.9794 7.90753 41.6825 7.08721C43.0888 5.36846 44.8856 4.0794 46.8974 3.39581C47.8349 3.04424 48.3622 2.26299 48.2059 1.34503C48.0302 0.30987 47.0145-0.295599 45.6474 0.173151C43.1474 0.993464 40.7255 2.69268 38.9091 4.95831C38.1669 5.91534 38.3817 7.02862 39.2411 7.55596ZM63.7138 7.59503C64.5731 7.06768 64.8466 5.93487 64.0849 4.97784C62.2684 2.71221 59.8661 0.993464 57.327 0.15362C56.038-0.276068 54.9833 0.231745 54.7684 1.30596C54.5536 2.24346 55.1395 3.04424 56.077 3.39581C58.1083 4.0794 59.9052 5.36846 61.3309 7.10674C61.9755 7.86846 62.8934 8.08331 63.7138 7.59503Z" fill="black" fill-opacity="0.85"/>
 </g>
</svg>
