<?xml version="1.0" encoding="UTF-8"?>
<!--Generator: Apple Native CoreSVG 326-->
<!DOCTYPE svg
PUBLIC "-//W3C//DTD SVG 1.1//EN"
       "http://www.w3.org/Graphics/SVG/1.1/DTD/svg11.dtd">
<svg version="1.1" xmlns="http://www.w3.org/2000/svg" xmlns:xlink="http://www.w3.org/1999/xlink" viewBox="0 0 55.5273 53.1055">
 <g>
  <rect height="53.1055" opacity="0" width="55.5273" x="0" y="0"/>
  <path d="M30.5273 0.839844L52.1094 13.3008C52.8906 13.75 53.2422 14.3164 53.2422 14.9609C53.2422 15.8398 52.5781 16.6797 51.3867 16.6797L49.1211 16.6797L49.1211 46.5039L50.7227 46.5039C51.582 46.5039 52.0898 47.0117 52.0898 47.8516L52.0898 49.6094L53.418 49.6094C54.375 49.6094 55.1562 50.3906 55.1562 51.3477C55.1562 52.2852 54.375 53.0664 53.418 53.0664L1.73828 53.0664C0.78125 53.0664 0 52.2852 0 51.3477C0 50.3906 0.78125 49.6094 1.73828 49.6094L3.06641 49.6094L3.06641 47.8516C3.06641 47.0117 3.57422 46.5039 4.45312 46.5039L6.05469 46.5039L6.05469 16.6797L3.76953 16.6797C2.57812 16.6797 1.91406 15.8398 1.91406 14.9609C1.91406 14.3164 2.24609 13.75 3.04688 13.3008L24.6289 0.839844C25.5664 0.292969 26.6016 0 27.5781 0C28.5547 0 29.5703 0.292969 30.5273 0.839844ZM37.5586 18.1445L35.7812 27.8125L31.543 27.8125L29.0039 18.2617C28.8086 17.5195 28.3789 17.1094 27.6172 17.1094C26.875 17.1094 26.4062 17.5391 26.1914 18.3008L23.6328 27.8125L19.3945 27.8125L17.6172 18.1445C17.5 17.4805 16.9727 17.0508 16.3086 17.0508C15.5273 17.0508 14.9805 17.5 14.9805 18.2617C14.9805 18.418 15 18.6914 15.0586 18.9648L16.8945 27.8125L14.0039 27.8125C13.5352 27.8125 13.2031 28.125 13.2031 28.5938C13.2031 29.0625 13.5352 29.4141 14.0039 29.4141L17.207 29.4141L19.1992 38.9453C19.375 39.8633 20.0195 40.4297 20.9961 40.4297C21.8359 40.4297 22.5 39.8828 22.7539 38.9844L25.332 29.4141L29.8438 29.4141L32.4219 38.9844C32.6758 39.9219 33.2812 40.4297 34.1992 40.4297C35.1562 40.4297 35.8203 39.9023 35.9961 38.9453L37.9688 29.4141L41.1719 29.4141C41.6406 29.4141 41.9922 29.0625 41.9922 28.5938C41.9922 28.125 41.6406 27.8125 41.1719 27.8125L38.3008 27.8125L40.1367 18.9258C40.1758 18.75 40.1953 18.5156 40.1953 18.2812C40.1953 17.4609 39.5703 17.0508 38.8672 17.0508C38.3008 17.0508 37.6953 17.4219 37.5586 18.1445ZM21.2109 36.8555L21.0547 36.8555L19.6875 29.4141L23.2422 29.4141ZM34.1211 36.8555L33.9648 36.8555L31.9727 29.4141L35.5078 29.4141ZM29.4336 27.8125L25.7617 27.8125L27.5195 21.4258L27.6758 21.4258Z" fill="black" fill-opacity="0.85"/>
 </g>
</svg>
