<?xml version="1.0" encoding="UTF-8"?>
<!--Generator: Apple Native CoreSVG 326-->
<!DOCTYPE svg
PUBLIC "-//W3C//DTD SVG 1.1//EN"
       "http://www.w3.org/Graphics/SVG/1.1/DTD/svg11.dtd">
<svg version="1.1" xmlns="http://www.w3.org/2000/svg" xmlns:xlink="http://www.w3.org/1999/xlink" viewBox="0 0 51.25 50.918">
 <g>
  <rect height="50.918" opacity="0" width="51.25" x="0" y="0"/>
  <path d="M25.4297 50.8789C39.4727 50.8789 50.8789 39.4922 50.8789 25.4492C50.8789 11.4062 39.4727 0 25.4297 0C11.3867 0 0 11.4062 0 25.4492C0 39.4922 11.3867 50.8789 25.4297 50.8789ZM25.4297 47.2461C13.3789 47.2461 3.63281 37.5 3.63281 25.4492C3.63281 13.3984 13.3789 3.65234 25.4297 3.65234C37.4805 3.65234 47.2266 13.3984 47.2266 25.4492C47.2266 37.5 37.4805 47.2461 25.4297 47.2461Z" fill="black" fill-opacity="0.85"/>
  <path d="M18.9844 36.9141C19.8047 36.9141 20.4492 36.3867 20.6641 35.5469L25.332 18.3594L25.4883 18.3594L30.1367 35.5469C30.3906 36.4258 30.9766 36.9141 31.875 36.9141C32.793 36.9141 33.418 36.4258 33.5938 35.5078L37.6562 15.957C37.6758 15.7617 37.6953 15.5273 37.6953 15.332C37.6953 14.5117 37.0898 14.1406 36.4062 14.1406C35.8594 14.1406 35.293 14.4727 35.1562 15.1953L31.7969 33.457L31.6406 33.457L26.7773 15.3125C26.6016 14.5703 26.1719 14.1797 25.4297 14.1797C24.7266 14.1797 24.2773 14.6094 24.0625 15.3516L19.1797 33.457L19.043 33.457L15.6836 15.1953C15.5664 14.5508 15.0586 14.1406 14.3945 14.1406C13.6523 14.1406 13.1055 14.5703 13.1055 15.293C13.1055 15.4492 13.125 15.7031 13.2031 15.9961L17.2266 35.5078C17.4023 36.3672 18.0469 36.9141 18.9844 36.9141ZM11.3867 25.3711C11.3867 25.8203 11.7188 26.1719 12.168 26.1719L38.6719 26.1719C39.1211 26.1719 39.4531 25.8203 39.4531 25.3711C39.4531 24.9219 39.1211 24.6094 38.6719 24.6094L12.168 24.6094C11.7188 24.6094 11.3867 24.9219 11.3867 25.3711Z" fill="black" fill-opacity="0.85"/>
 </g>
</svg>
