<?xml version="1.0" encoding="UTF-8"?>
<!--Generator: Apple Native CoreSVG 326-->
<!DOCTYPE svg
PUBLIC "-//W3C//DTD SVG 1.1//EN"
       "http://www.w3.org/Graphics/SVG/1.1/DTD/svg11.dtd">
<svg version="1.1" xmlns="http://www.w3.org/2000/svg" xmlns:xlink="http://www.w3.org/1999/xlink" viewBox="0 0 51.25 50.918">
 <g>
  <rect height="50.918" opacity="0" width="51.25" x="0" y="0"/>
  <path d="M50.8789 25.4492C50.8789 39.4531 39.4531 50.8789 25.4297 50.8789C11.4258 50.8789 0 39.4531 0 25.4492C0 11.4258 11.4258 0 25.4297 0C39.4531 0 50.8789 11.4258 50.8789 25.4492ZM31.3281 14.2969L25.6836 22.6758L25.5664 22.6758L19.8438 14.2773C19.3555 13.5742 18.9062 13.3008 18.1445 13.3008C17.207 13.3008 16.4062 14.043 16.4062 14.9609C16.4062 15.4492 16.543 15.7617 16.8945 16.2305L23.2227 25.1562L16.582 34.5117C16.2891 34.9414 16.1719 35.2148 16.1719 35.6836C16.1719 36.5625 16.8945 37.2266 17.832 37.2266C18.5547 37.2266 18.9258 36.9531 19.4922 36.1914L25.293 27.832L25.3906 27.832L31.1523 36.1914C31.7188 36.9531 32.1094 37.2266 32.832 37.2266C33.8281 37.2266 34.5703 36.5625 34.5703 35.6055C34.5703 35.1367 34.4336 34.8047 34.1406 34.4141L27.5977 25.2539L34.1992 16.0547C34.5117 15.6445 34.6484 15.2734 34.6484 14.8828C34.6484 13.9844 33.9062 13.3008 32.9492 13.3008C32.2461 13.3008 31.8164 13.5742 31.3281 14.2969Z" fill="black" fill-opacity="0.85"/>
 </g>
</svg>
