<?xml version="1.0" encoding="UTF-8"?>
<!--Generator: Apple Native CoreSVG 326-->
<!DOCTYPE svg
PUBLIC "-//W3C//DTD SVG 1.1//EN"
       "http://www.w3.org/Graphics/SVG/1.1/DTD/svg11.dtd">
<svg version="1.1" xmlns="http://www.w3.org/2000/svg" xmlns:xlink="http://www.w3.org/1999/xlink" viewBox="0 0 46.1914 45.8398">
 <g>
  <rect height="45.8398" opacity="0" width="46.1914" x="0" y="0"/>
  <path d="M42.9688 2.89062C45.3906 5.29297 45.8203 8.65234 45.8203 13.125L45.8203 32.6758C45.8203 37.168 45.3906 40.5078 42.9688 42.9297C40.5469 45.3516 37.1484 45.8203 32.6758 45.8203L13.1445 45.8203C8.67188 45.8203 5.29297 45.3516 2.85156 42.9297C0.429688 40.5273 0 37.168 0 32.6758L0 13.0078C0 8.67188 0.449219 5.3125 2.87109 2.89062C5.29297 0.46875 8.69141 0 13.0078 0L32.6758 0C37.1484 0 40.5273 0.46875 42.9688 2.89062ZM30.1562 13.2031L22.8906 20.4297L15.6641 13.2227C15.293 12.8711 14.9219 12.6953 14.3945 12.6953C13.418 12.6953 12.6172 13.457 12.6172 14.4531C12.6172 14.9414 12.793 15.3711 13.1445 15.7227L20.3516 22.9297L13.1445 30.1367C12.793 30.4883 12.6172 30.9375 12.6172 31.4062C12.6172 32.4219 13.418 33.2227 14.3945 33.2227C14.9219 33.2227 15.3516 33.0273 15.7227 32.6758L22.8906 25.4688L30.0586 32.6758C30.4102 33.0273 30.8594 33.2227 31.3672 33.2227C32.3828 33.2227 33.1836 32.4219 33.1836 31.4062C33.1836 30.918 33.0078 30.4688 32.6367 30.1172L25.4297 22.9297L32.6562 15.7031C33.0469 15.3125 33.2031 14.9219 33.2031 14.4141C33.2031 13.4375 32.4023 12.6562 31.4062 12.6562C30.9375 12.6562 30.5273 12.8125 30.1562 13.2031Z" fill="black" fill-opacity="0.85"/>
 </g>
</svg>
