<?xml version="1.0" encoding="UTF-8"?>
<!--Generator: Apple Native CoreSVG 326-->
<!DOCTYPE svg
PUBLIC "-//W3C//DTD SVG 1.1//EN"
       "http://www.w3.org/Graphics/SVG/1.1/DTD/svg11.dtd">
<svg version="1.1" xmlns="http://www.w3.org/2000/svg" xmlns:xlink="http://www.w3.org/1999/xlink" viewBox="0 0 42.3047 53.8477">
 <g>
  <rect height="53.8477" opacity="0" width="42.3047" x="0" y="0"/>
  <path d="M0 46.25C0 51.2891 2.51953 53.8477 7.51953 53.8477L34.4141 53.8477C39.4141 53.8477 41.9336 51.2891 41.9336 46.25L41.9336 7.61719C41.9336 2.57812 39.4141 0.0195312 34.4141 0.0195312L7.51953 0.0195312C2.51953 0.0195312 0 2.57812 0 7.61719ZM3.45703 46.1719L3.45703 7.69531C3.45703 4.96094 4.90234 3.47656 7.71484 3.47656L34.2188 3.47656C37.0312 3.47656 38.4766 4.96094 38.4766 7.69531L38.4766 46.1719C38.4766 48.9062 37.0312 50.3906 34.2188 50.3906L7.71484 50.3906C4.90234 50.3906 3.45703 48.9062 3.45703 46.1719Z" fill="black" fill-opacity="0.85"/>
  <path d="M12.2656 37.4023C12.7539 37.4023 13.1836 37.2266 13.5352 36.8555L20.9766 29.3945L28.457 36.8555C28.7891 37.207 29.2188 37.4023 29.707 37.4023C30.6836 37.4023 31.4648 36.6211 31.4648 35.6641C31.4648 35.1562 31.2695 34.7656 30.918 34.4141L23.457 26.9336L30.957 19.4336C31.3086 19.0625 31.4844 18.6719 31.4844 18.2031C31.4844 17.2266 30.7031 16.4648 29.7266 16.4648C29.2773 16.4648 28.8867 16.6406 28.5156 17.0117L20.9766 24.5117L13.4961 17.0312C13.1445 16.6797 12.7539 16.5039 12.2656 16.5039C11.2891 16.5039 10.5273 17.2461 10.5273 18.2227C10.5273 18.6914 10.7031 19.1211 11.0547 19.4531L18.5352 26.9336L11.0547 34.4336C10.7031 34.7656 10.5273 35.1758 10.5273 35.6641C10.5273 36.6211 11.2891 37.4023 12.2656 37.4023Z" fill="black" fill-opacity="0.85"/>
 </g>
</svg>
