<?xml version="1.0" encoding="UTF-8"?>
<!--Generator: Apple Native CoreSVG 326-->
<!DOCTYPE svg
PUBLIC "-//W3C//DTD SVG 1.1//EN"
       "http://www.w3.org/Graphics/SVG/1.1/DTD/svg11.dtd">
<svg version="1.1" xmlns="http://www.w3.org/2000/svg" xmlns:xlink="http://www.w3.org/1999/xlink" viewBox="0 0 46.2891 45.918">
 <g>
  <rect height="45.918" opacity="0" width="46.2891" x="0" y="0"/>
  <path d="M7.59766 45.918L38.3008 45.918C43.3594 45.918 45.918 43.3594 45.918 38.3984L45.918 7.53906C45.918 2.55859 43.3594 0 38.3008 0L7.59766 0C2.55859 0 0 2.53906 0 7.53906L0 38.3984C0 43.3984 2.55859 45.918 7.59766 45.918ZM7.67578 42.4609C4.94141 42.4609 3.45703 41.0156 3.45703 38.2031L3.45703 7.71484C3.45703 4.92188 4.94141 3.45703 7.67578 3.45703L38.2422 3.45703C40.918 3.45703 42.4609 4.92188 42.4609 7.71484L42.4609 38.2031C42.4609 41.0156 40.918 42.4609 38.2422 42.4609Z" fill="black" fill-opacity="0.85"/>
  <path d="M15.0586 33.6328C19.9805 33.6328 21.3672 27.8516 21.3672 22.9492C21.3672 18.0469 19.9805 12.2656 15.0586 12.2656C10.1367 12.2656 8.75 18.0469 8.75 22.9492C8.75 27.8516 10.1367 33.6328 15.0586 33.6328ZM15.0586 30.9961C12.6953 30.9961 11.9531 27.1289 11.9531 22.9492C11.9531 18.75 12.6953 14.9023 15.0586 14.9023C17.4219 14.9023 18.1641 18.75 18.1641 22.9492C18.1641 27.1289 17.4219 30.9961 15.0586 30.9961ZM33.4375 33.4375C34.2578 33.4375 34.9414 32.8906 34.9414 31.8555L34.9414 28.9453L36.0156 28.9453C36.8555 28.9453 37.2852 28.3984 37.2852 27.6367C37.2852 26.9141 36.875 26.3672 36.0156 26.3672L34.9414 26.3672L34.9414 14.8242C34.9414 13.2617 33.9062 12.4414 32.5 12.4414C30.957 12.4414 30.2344 13.2422 29.5898 14.6289L24.6875 25C24.3164 25.8594 24.1797 26.4258 24.1797 27.1289C24.1797 28.2031 24.9219 28.9453 26.0352 28.9453L31.9141 28.9453L31.9141 31.8555C31.9141 33.0078 32.7148 33.4375 33.4375 33.4375ZM31.9727 26.4258L26.9336 26.4258L26.9336 26.2891L31.875 15.332L31.9727 15.332Z" fill="black" fill-opacity="0.85"/>
 </g>
</svg>
