<?xml version="1.0" encoding="UTF-8"?>
<!--Generator: Apple Native CoreSVG 326-->
<!DOCTYPE svg
PUBLIC "-//W3C//DTD SVG 1.1//EN"
       "http://www.w3.org/Graphics/SVG/1.1/DTD/svg11.dtd">
<svg version="1.1" xmlns="http://www.w3.org/2000/svg" xmlns:xlink="http://www.w3.org/1999/xlink" viewBox="0 0 51.25 50.918">
 <g>
  <rect height="50.918" opacity="0" width="51.25" x="0" y="0"/>
  <path d="M25.4297 50.8789C39.4727 50.8789 50.8789 39.4922 50.8789 25.4492C50.8789 11.4062 39.4727 0 25.4297 0C11.3867 0 0 11.4062 0 25.4492C0 39.4922 11.3867 50.8789 25.4297 50.8789ZM25.4297 47.2461C13.3789 47.2461 3.63281 37.5 3.63281 25.4492C3.63281 13.3984 13.3789 3.65234 25.4297 3.65234C37.4805 3.65234 47.2266 13.3984 47.2266 25.4492C47.2266 37.5 37.4805 47.2461 25.4297 47.2461Z" fill="black" fill-opacity="0.85"/>
  <path d="M17.6367 36.1328C22.5586 36.1328 23.9453 30.3516 23.9453 25.4492C23.9453 20.5469 22.5586 14.7656 17.6367 14.7656C12.7148 14.7656 11.3086 20.5469 11.3086 25.4492C11.3086 30.3516 12.7148 36.1328 17.6367 36.1328ZM17.6367 33.4961C15.2734 33.4961 14.5312 29.6289 14.5312 25.4492C14.5312 21.25 15.2734 17.4023 17.6367 17.4023C20 17.4023 20.7422 21.25 20.7422 25.4492C20.7422 29.6289 20 33.4961 17.6367 33.4961ZM32.8516 36.1328C36.6797 36.1328 38.7695 32.8125 38.7695 28.9258C38.7695 25.4688 37.1094 22.2461 33.8477 22.2461C32.4023 22.2461 30.9961 22.9297 30.3125 24.4727L30.2148 24.4727L30.6641 17.8906L36.6992 17.8906C37.4805 17.8906 37.9492 17.3438 37.9492 16.582C37.9492 15.8398 37.4414 15.2734 36.6992 15.2734L29.8242 15.2734C28.6328 15.2734 28.1055 16.0352 28.0273 17.207L27.5781 24.4141C27.5391 24.8047 27.5195 25.2148 27.5195 25.5273C27.5195 26.3867 27.9688 27.1289 28.9844 27.1289C29.6289 27.1289 29.9805 26.8359 30.4492 26.2109C31.0352 25.2734 31.7578 24.6094 32.8711 24.6094C34.8633 24.6094 35.6836 27.0117 35.6836 29.0039C35.6836 31.25 34.8438 33.5352 32.8125 33.5352C31.2891 33.5352 30.3711 32.3633 29.9219 30.8594C29.668 30.0977 29.1797 29.7656 28.5742 29.7656C27.7734 29.7656 27.2461 30.293 27.2461 31.1133C27.2461 31.6016 27.3828 32.1289 27.5781 32.5781C28.3984 34.6875 30.5273 36.1328 32.8516 36.1328Z" fill="black" fill-opacity="0.85"/>
 </g>
</svg>
