<?xml version="1.0" encoding="UTF-8"?>
<!--Generator: Apple Native CoreSVG 326-->
<!DOCTYPE svg
PUBLIC "-//W3C//DTD SVG 1.1//EN"
       "http://www.w3.org/Graphics/SVG/1.1/DTD/svg11.dtd">
<svg version="1.1" xmlns="http://www.w3.org/2000/svg" xmlns:xlink="http://www.w3.org/1999/xlink" viewBox="0 0 46.2891 45.918">
 <g>
  <rect height="45.918" opacity="0" width="46.2891" x="0" y="0"/>
  <path d="M7.59766 45.918L38.3008 45.918C43.3594 45.918 45.918 43.3594 45.918 38.3984L45.918 7.53906C45.918 2.55859 43.3594 0 38.3008 0L7.59766 0C2.55859 0 0 2.53906 0 7.53906L0 38.3984C0 43.3984 2.55859 45.918 7.59766 45.918ZM7.67578 42.4609C4.94141 42.4609 3.45703 41.0156 3.45703 38.2031L3.45703 7.71484C3.45703 4.92188 4.94141 3.45703 7.67578 3.45703L38.2422 3.45703C40.918 3.45703 42.4609 4.92188 42.4609 7.71484L42.4609 38.2031C42.4609 41.0156 40.918 42.4609 38.2422 42.4609Z" fill="black" fill-opacity="0.85"/>
  <path d="M18.0859 33.3984C18.9453 33.3984 19.6875 32.6758 19.6875 31.7773L19.6875 14.2383C19.6875 13.125 18.9648 12.4609 17.8516 12.4609C16.9336 12.4609 16.1719 12.9492 15.6445 13.3789L12.6953 15.7031C12.3047 16.0156 12.0117 16.4258 12.0117 16.9922C12.0117 17.6953 12.4805 18.1836 13.1641 18.1836C13.5156 18.1836 13.7305 18.0664 13.9453 17.8906L16.4648 15.8789L16.4648 31.7773C16.4648 32.6758 17.207 33.3984 18.0859 33.3984ZM29.2578 33.3984C30.1172 33.3984 30.8398 32.6758 30.8398 31.7773L30.8398 14.2383C30.8398 13.125 30.1367 12.4609 29.0039 12.4609C28.0859 12.4609 27.3438 12.9492 26.8164 13.3789L23.8672 15.7031C23.4766 16.0156 23.1836 16.4258 23.1836 16.9922C23.1836 17.6953 23.6328 18.1836 24.3164 18.1836C24.668 18.1836 24.8828 18.0664 25.1172 17.8906L27.6367 15.8789L27.6367 31.7773C27.6367 32.6758 28.3594 33.3984 29.2578 33.3984Z" fill="black" fill-opacity="0.85"/>
 </g>
</svg>
