<?xml version="1.0" encoding="UTF-8"?>
<!--Generator: Apple Native CoreSVG 326-->
<!DOCTYPE svg
PUBLIC "-//W3C//DTD SVG 1.1//EN"
       "http://www.w3.org/Graphics/SVG/1.1/DTD/svg11.dtd">
<svg version="1.1" xmlns="http://www.w3.org/2000/svg" xmlns:xlink="http://www.w3.org/1999/xlink" viewBox="0 0 46.2891 45.918">
 <g>
  <rect height="45.918" opacity="0" width="46.2891" x="0" y="0"/>
  <path d="M45.918 7.53906L45.918 38.3984C45.918 43.3594 43.3594 45.918 38.3008 45.918L7.59766 45.918C2.55859 45.918 0 43.3984 0 38.3984L0 7.53906C0 2.53906 2.55859 0 7.59766 0L38.3008 0C43.3594 0 45.918 2.55859 45.918 7.53906ZM21.5625 23.2422C21.5625 28.1055 23.0859 33.8867 28.1641 33.8867C32.0117 33.8867 34.1992 30.5664 34.1992 26.5625C34.1992 23.0859 32.5195 19.7461 29.082 19.7461C26.9141 19.7461 25.332 21.2695 24.7656 23.5156L24.668 23.5156C24.668 23.418 24.668 23.3008 24.668 23.2031C24.668 20.1953 25.0586 14.7266 28.125 14.7266C29.4531 14.7266 30.293 15.6836 30.7617 16.9141C31.0742 17.6172 31.4844 17.9688 32.2461 17.9688C33.1641 17.9688 33.5742 17.3828 33.5742 16.6211C33.5742 16.3477 33.5156 16.0156 33.4375 15.6836C32.8711 13.4375 30.7422 12.0508 28.2031 12.0508C23.0273 12.0508 21.5625 18.1445 21.5625 23.2422ZM13.2422 13.125L10.2344 15.5273C9.82422 15.8398 9.53125 16.2695 9.53125 16.8555C9.53125 17.5781 10 18.0859 10.7031 18.0859C11.0547 18.0859 11.2891 17.9688 11.5234 17.7734L14.082 15.7227L14.082 31.9727C14.082 32.9102 14.8438 33.6523 15.7617 33.6523C16.6602 33.6523 17.4023 32.9102 17.4023 31.9727L17.4023 14.043C17.4023 12.8906 16.6797 12.1875 15.5273 12.1875C14.5508 12.1875 13.7891 12.7148 13.2422 13.125ZM31.0352 26.7188C31.0352 28.7695 30.0977 31.2109 28.125 31.2109C26.0352 31.2109 25.1172 28.6328 25.1172 26.582C25.1172 24.5508 26.1133 22.2656 28.1055 22.2656C30.1758 22.2656 31.0742 24.6484 31.0352 26.7188Z" fill="black" fill-opacity="0.85"/>
 </g>
</svg>
