<?xml version="1.0" encoding="UTF-8"?>
<!--Generator: Apple Native CoreSVG 326-->
<!DOCTYPE svg
PUBLIC "-//W3C//DTD SVG 1.1//EN"
       "http://www.w3.org/Graphics/SVG/1.1/DTD/svg11.dtd">
<svg version="1.1" xmlns="http://www.w3.org/2000/svg" xmlns:xlink="http://www.w3.org/1999/xlink" viewBox="0 0 46.2891 45.918">
 <g>
  <rect height="45.918" opacity="0" width="46.2891" x="0" y="0"/>
  <path d="M45.918 7.53906L45.918 38.3984C45.918 43.3594 43.3594 45.918 38.3008 45.918L7.59766 45.918C2.55859 45.918 0 43.3984 0 38.3984L0 7.53906C0 2.53906 2.55859 0 7.59766 0L38.3008 0C43.3594 0 45.918 2.55859 45.918 7.53906ZM29.1016 13.1445L26.0938 15.5273C25.6836 15.8398 25.3711 16.2695 25.3711 16.8555C25.3711 17.5781 25.8594 18.0859 26.5625 18.0859C26.9336 18.0859 27.1484 17.9688 27.3828 17.793L29.9414 15.7227L29.9414 31.9922C29.9414 32.9102 30.7031 33.6523 31.6211 33.6523C32.5 33.6523 33.2617 32.9102 33.2617 31.9922L33.2617 14.043C33.2617 12.8906 32.5195 12.1875 31.3672 12.1875C30.4297 12.1875 29.6484 12.7148 29.1016 13.1445ZM11.3867 17.4414C11.3867 18.2617 11.8555 18.8867 12.7539 18.8867C13.5156 18.8867 13.9844 18.5352 14.1992 17.793C14.6484 15.8984 15.3711 14.668 16.9922 14.668C18.75 14.668 19.6484 16.25 19.6484 18.1055C19.6484 20.1562 18.3594 22.168 16.9336 24.043L12.168 30.2539C11.7383 30.8008 11.3672 31.3672 11.3672 32.0703C11.3672 32.832 11.8555 33.3984 12.8906 33.3984L21.8359 33.3984C22.6367 33.3984 23.1445 32.8516 23.1445 32.0508C23.1445 31.1914 22.6172 30.7031 21.8359 30.7031L15.4102 30.7031L15.4102 30.5078L19.4531 25.2344C21.9141 22.1094 22.7344 20.2148 22.7344 17.9688C22.7344 14.5508 20.4883 12.0117 17.0117 12.0117C13.7695 12.0117 11.3867 14.7461 11.3867 17.4414Z" fill="black" fill-opacity="0.85"/>
 </g>
</svg>
