<?xml version="1.0" encoding="UTF-8"?>
<!--Generator: Apple Native CoreSVG 326-->
<!DOCTYPE svg
PUBLIC "-//W3C//DTD SVG 1.1//EN"
       "http://www.w3.org/Graphics/SVG/1.1/DTD/svg11.dtd">
<svg version="1.1" xmlns="http://www.w3.org/2000/svg" xmlns:xlink="http://www.w3.org/1999/xlink" viewBox="0 0 51.25 50.918">
 <g>
  <rect height="50.918" opacity="0" width="51.25" x="0" y="0"/>
  <path d="M25.4297 50.8789C39.4727 50.8789 50.8789 39.4922 50.8789 25.4492C50.8789 11.4062 39.4727 0 25.4297 0C11.3867 0 0 11.4062 0 25.4492C0 39.4922 11.3867 50.8789 25.4297 50.8789ZM25.4297 47.2461C13.3789 47.2461 3.63281 37.5 3.63281 25.4492C3.63281 13.3984 13.3789 3.65234 25.4297 3.65234C37.4805 3.65234 47.2266 13.3984 47.2266 25.4492C47.2266 37.5 37.4805 47.2461 25.4297 47.2461Z" fill="black" fill-opacity="0.85"/>
  <path d="M13.8867 35.6445L22.5977 35.6445C23.3789 35.6445 23.8672 35.1172 23.8672 34.3359C23.8672 33.5156 23.3594 33.0273 22.5977 33.0273L16.3281 33.0273L16.3281 32.8516L20.2734 27.6758C22.6758 24.6289 23.4766 22.7734 23.4766 20.5859C23.4766 17.2461 21.3086 14.7656 17.8906 14.7656C14.7461 14.7656 12.4219 17.4414 12.4219 20.0781C12.4219 20.8789 12.8906 21.4648 13.75 21.4648C14.4922 21.4648 14.9414 21.1328 15.1562 20.4102C15.5859 18.5547 16.3086 17.3438 17.8906 17.3438C19.5898 17.3438 20.4688 18.9062 20.4688 20.7227C20.4688 22.7148 19.2383 24.668 17.832 26.5039L13.1836 32.5977C12.7734 33.125 12.4023 33.6719 12.4023 34.3359C12.4023 35.0977 12.8906 35.6445 13.8867 35.6445ZM32.6172 36.0547C36.1328 36.0547 38.7891 33.7891 38.7891 30.0391C38.7891 27.0117 37.0312 25.3516 34.8047 25.1172L34.8047 25.0391C37.0898 24.4336 38.2031 22.4023 38.2031 20.2539C38.2031 16.875 35.7422 14.8633 32.5195 14.8633C29.9609 14.8633 27.8516 16.3281 27.1484 18.5547C26.9922 19.043 26.9531 19.4922 26.9531 19.9023C26.9531 20.625 27.4219 21.2109 28.3008 21.2109C29.082 21.2109 29.4922 20.8984 29.707 20.1172C30.0977 18.5352 30.957 17.4219 32.5195 17.4219C34.3164 17.4219 35.1953 18.8281 35.1953 20.625C35.1953 22.5586 34.082 24.0039 32.0898 24.0039L31.3672 24.0039C30.6055 24.0039 30.1562 24.4727 30.1562 25.1953C30.1562 25.918 30.6445 26.3672 31.3672 26.3672L32.1289 26.3672C34.375 26.3672 35.6445 27.6172 35.6445 29.9609C35.6445 31.8359 34.668 33.457 32.6367 33.457C30.6836 33.457 29.7461 32.0898 29.4531 30.8203C29.2383 30.0781 28.7891 29.6875 28.0469 29.6875C27.1875 29.6875 26.6211 30.2148 26.6211 31.0742C26.6211 31.5039 26.6797 31.9922 26.8164 32.3828C27.5391 34.6875 29.9414 36.0547 32.6172 36.0547Z" fill="black" fill-opacity="0.85"/>
 </g>
</svg>
