<?xml version="1.0" encoding="UTF-8"?>
<!--Generator: Apple Native CoreSVG 326-->
<!DOCTYPE svg
PUBLIC "-//W3C//DTD SVG 1.1//EN"
       "http://www.w3.org/Graphics/SVG/1.1/DTD/svg11.dtd">
<svg version="1.1" xmlns="http://www.w3.org/2000/svg" xmlns:xlink="http://www.w3.org/1999/xlink" viewBox="0 0 46.2891 45.918">
 <g>
  <rect height="45.918" opacity="0" width="46.2891" x="0" y="0"/>
  <path d="M7.59766 45.918L38.3008 45.918C43.3594 45.918 45.918 43.3594 45.918 38.3984L45.918 7.53906C45.918 2.55859 43.3594 0 38.3008 0L7.59766 0C2.55859 0 0 2.53906 0 7.53906L0 38.3984C0 43.3984 2.55859 45.918 7.59766 45.918ZM7.67578 42.4609C4.94141 42.4609 3.45703 41.0156 3.45703 38.2031L3.45703 7.71484C3.45703 4.92188 4.94141 3.45703 7.67578 3.45703L38.2422 3.45703C40.918 3.45703 42.4609 4.92188 42.4609 7.71484L42.4609 38.2031C42.4609 41.0156 40.918 42.4609 38.2422 42.4609Z" fill="black" fill-opacity="0.85"/>
  <path d="M14.9805 33.5547C18.4961 33.5547 21.1523 31.2891 21.1523 27.5391C21.1523 24.5117 19.3945 22.8516 17.168 22.6172L17.168 22.5391C19.4531 21.9336 20.5469 19.9023 20.5469 17.7539C20.5469 14.375 18.1055 12.3633 14.8828 12.3633C12.3047 12.3633 10.2148 13.8281 9.49219 16.0547C9.35547 16.543 9.29688 16.9922 9.29688 17.4023C9.29688 18.125 9.78516 18.7109 10.6641 18.7109C11.4453 18.7109 11.8555 18.3984 12.0703 17.6172C12.4414 16.0352 13.3203 14.9219 14.8828 14.9219C16.6797 14.9219 17.5586 16.3281 17.5586 18.125C17.5586 20.0586 16.4258 21.5039 14.4531 21.5039L13.7305 21.5039C12.9688 21.5039 12.5 21.9727 12.5 22.6953C12.5 23.418 13.0078 23.8672 13.7305 23.8672L14.4922 23.8672C16.7383 23.8672 18.0078 25.1172 18.0078 27.4609C18.0078 29.3359 17.0312 30.957 15 30.957C13.0469 30.957 12.1094 29.5898 11.7969 28.3203C11.6016 27.5781 11.1523 27.1875 10.4102 27.1875C9.55078 27.1875 8.96484 27.7148 8.96484 28.5742C8.96484 29.0039 9.04297 29.4922 9.17969 29.8828C9.88281 32.1875 12.3047 33.5547 14.9805 33.5547ZM33.0469 33.4375C33.8672 33.4375 34.5508 32.8906 34.5508 31.8555L34.5508 28.9453L35.625 28.9453C36.4648 28.9453 36.875 28.3984 36.875 27.6367C36.875 26.9141 36.4844 26.3672 35.625 26.3672L34.5508 26.3672L34.5508 14.8242C34.5508 13.2617 33.5156 12.4414 32.1094 12.4414C30.5664 12.4414 29.8242 13.2422 29.1992 14.6289L24.2969 25C23.9258 25.8594 23.7891 26.4258 23.7891 27.1289C23.7891 28.2031 24.5312 28.9453 25.6445 28.9453L31.5234 28.9453L31.5234 31.8555C31.5234 33.0078 32.3242 33.4375 33.0469 33.4375ZM31.582 26.4258L26.5234 26.4258L26.5234 26.2891L31.4844 15.332L31.582 15.332Z" fill="black" fill-opacity="0.85"/>
 </g>
</svg>
