<?xml version="1.0" encoding="UTF-8"?>
<!--Generator: Apple Native CoreSVG 326-->
<!DOCTYPE svg
PUBLIC "-//W3C//DTD SVG 1.1//EN"
       "http://www.w3.org/Graphics/SVG/1.1/DTD/svg11.dtd">
<svg version="1.1" xmlns="http://www.w3.org/2000/svg" xmlns:xlink="http://www.w3.org/1999/xlink" viewBox="0 0 51.25 50.918">
 <g>
  <rect height="50.918" opacity="0" width="51.25" x="0" y="0"/>
  <path d="M25.4297 50.8789C39.4727 50.8789 50.8789 39.4922 50.8789 25.4492C50.8789 11.4062 39.4727 0 25.4297 0C11.3867 0 0 11.4062 0 25.4492C0 39.4922 11.3867 50.8789 25.4297 50.8789ZM25.4297 47.2461C13.3789 47.2461 3.63281 37.5 3.63281 25.4492C3.63281 13.3984 13.3789 3.65234 25.4297 3.65234C37.4805 3.65234 47.2266 13.3984 47.2266 25.4492C47.2266 37.5 37.4805 47.2461 25.4297 47.2461Z" fill="black" fill-opacity="0.85"/>
  <path d="M17.8906 36.0547C21.4062 36.0547 24.0625 33.7891 24.0625 30.0391C24.0625 27.0117 22.3242 25.3516 20.0781 25.1172L20.0781 25.0391C22.3633 24.4336 23.4766 22.4023 23.4766 20.2539C23.4766 16.875 21.0156 14.8633 17.8125 14.8633C15.2344 14.8633 13.125 16.3281 12.4219 18.5547C12.2656 19.043 12.2266 19.4922 12.2266 19.9023C12.2266 20.625 12.6953 21.2109 13.5742 21.2109C14.3555 21.2109 14.7656 20.8984 14.9805 20.1172C15.3711 18.5352 16.2305 17.4219 17.8125 17.4219C19.5898 17.4219 20.4688 18.8281 20.4688 20.625C20.4688 22.5586 19.3555 24.0039 17.3633 24.0039L16.6406 24.0039C15.8789 24.0039 15.4297 24.4727 15.4297 25.1953C15.4297 25.918 15.918 26.3672 16.6406 26.3672L17.4023 26.3672C19.6484 26.3672 20.9375 27.6172 20.9375 29.9609C20.9375 31.8359 19.9414 33.457 17.9102 33.457C15.957 33.457 15.0195 32.0898 14.7266 30.8203C14.5117 30.0781 14.0625 29.6875 13.3203 29.6875C12.4609 29.6875 11.8945 30.2148 11.8945 31.0742C11.8945 31.5039 11.9727 31.9922 12.0898 32.3828C12.8125 34.6875 15.2148 36.0547 17.8906 36.0547ZM32.8516 36.1328C36.6797 36.1328 38.75 32.8125 38.75 28.9258C38.75 25.4688 37.0898 22.2461 33.8477 22.2461C32.3828 22.2461 30.9766 22.9297 30.293 24.4727L30.1953 24.4727L30.6445 17.8906L36.6992 17.8906C37.4609 17.8906 37.9492 17.3438 37.9492 16.582C37.9492 15.8398 37.4414 15.2734 36.6992 15.2734L29.8047 15.2734C28.6133 15.2734 28.0859 16.0352 28.0078 17.207L27.5586 24.4141C27.5195 24.8047 27.5 25.2148 27.5 25.5273C27.5 26.3867 27.9492 27.1289 28.9648 27.1289C29.6094 27.1289 29.9609 26.8359 30.4297 26.2109C31.0156 25.2734 31.7578 24.6094 32.8516 24.6094C34.8633 24.6094 35.6641 27.0117 35.6641 29.0039C35.6641 31.25 34.8242 33.5352 32.8125 33.5352C31.2695 33.5352 30.3516 32.3633 29.9219 30.8594C29.668 30.0977 29.1602 29.7656 28.5742 29.7656C27.7539 29.7656 27.2461 30.293 27.2461 31.1133C27.2461 31.6016 27.3828 32.1289 27.5586 32.5781C28.3789 34.6875 30.5078 36.1328 32.8516 36.1328Z" fill="black" fill-opacity="0.85"/>
 </g>
</svg>
