<?xml version="1.0" encoding="UTF-8"?>
<!--Generator: Apple Native CoreSVG 326-->
<!DOCTYPE svg
PUBLIC "-//W3C//DTD SVG 1.1//EN"
       "http://www.w3.org/Graphics/SVG/1.1/DTD/svg11.dtd">
<svg version="1.1" xmlns="http://www.w3.org/2000/svg" xmlns:xlink="http://www.w3.org/1999/xlink" viewBox="0 0 51.25 50.918">
 <g>
  <rect height="50.918" opacity="0" width="51.25" x="0" y="0"/>
  <path d="M25.4297 50.8789C39.4727 50.8789 50.8789 39.4922 50.8789 25.4492C50.8789 11.4062 39.4727 0 25.4297 0C11.3867 0 0 11.4062 0 25.4492C0 39.4922 11.3867 50.8789 25.4297 50.8789ZM25.4297 47.2461C13.3789 47.2461 3.63281 37.5 3.63281 25.4492C3.63281 13.3984 13.3789 3.65234 25.4297 3.65234C37.4805 3.65234 47.2266 13.3984 47.2266 25.4492C47.2266 37.5 37.4805 47.2461 25.4297 47.2461Z" fill="black" fill-opacity="0.85"/>
  <path d="M16.1914 30.1367C16.1914 31.2109 16.9336 31.9141 18.125 31.9141L27.7148 31.9141L27.7148 35.4883C27.7148 36.6406 28.3203 37.3242 29.3164 37.3242C30.332 37.3242 30.9375 36.6602 30.9375 35.4883L30.9375 31.9141L32.8906 31.9141C33.8672 31.9141 34.4727 31.3281 34.4727 30.4102C34.4727 29.5898 33.8672 29.0234 32.8906 29.0234L30.9375 29.0234L30.9375 23.2812C30.9375 22.1094 30.332 21.4648 29.3164 21.4648C28.3203 21.4648 27.7148 22.1289 27.7148 23.2812L27.7148 29.0234L20.2539 29.0234C22.4805 24.8438 25.0391 20.5273 27.3633 16.2305C27.5586 15.8789 27.6562 15.5469 27.6562 15.2148C27.6562 14.3555 27.1289 13.6133 26.1133 13.6133C25.4492 13.6133 24.9805 13.9648 24.5703 14.668C21.9922 19.1992 19.1992 24.043 16.582 28.7109C16.3086 29.1992 16.1914 29.668 16.1914 30.1367Z" fill="black" fill-opacity="0.85"/>
 </g>
</svg>
