<?xml version="1.0" encoding="UTF-8"?>
<!--Generator: Apple Native CoreSVG 326-->
<!DOCTYPE svg
PUBLIC "-//W3C//DTD SVG 1.1//EN"
       "http://www.w3.org/Graphics/SVG/1.1/DTD/svg11.dtd">
<svg version="1.1" xmlns="http://www.w3.org/2000/svg" xmlns:xlink="http://www.w3.org/1999/xlink" viewBox="0 0 51.25 50.918">
 <g>
  <rect height="50.918" opacity="0" width="51.25" x="0" y="0"/>
  <path d="M50.8789 25.4492C50.8789 39.4531 39.4531 50.8789 25.4297 50.8789C11.4258 50.8789 0 39.4531 0 25.4492C0 11.4258 11.4258 0 25.4297 0C39.4531 0 50.8789 11.4258 50.8789 25.4492ZM24.2383 15.2148C21.6406 19.1016 17.9688 24.5117 15.8594 27.9688C15.4102 28.7109 15.2539 29.2773 15.2539 29.9414C15.2539 31.2891 16.1719 32.168 17.6172 32.168L27.0703 32.168L27.0703 35.293C27.0703 36.4453 27.6953 37.1484 28.7109 37.1484C29.7852 37.1484 30.3906 36.4648 30.3906 35.293L30.3906 32.168L32.6172 32.168C33.4961 32.168 34.1211 31.5625 34.1211 30.7031C34.1211 29.8047 33.5156 29.1992 32.6172 29.1992L30.3906 29.1992L30.3906 15.6641C30.3906 14.2383 29.2969 13.2812 27.6758 13.2812C26.1328 13.2812 25.1562 13.8281 24.2383 15.2148ZM27.0703 29.1992L18.5938 29.1992L18.5938 29.0625C20.4883 25.8203 24.3945 20.0195 26.8945 16.2695L27.0703 16.2695Z" fill="black" fill-opacity="0.85"/>
 </g>
</svg>
