<?xml version="1.0" encoding="UTF-8"?>
<!--Generator: Apple Native CoreSVG 326-->
<!DOCTYPE svg
PUBLIC "-//W3C//DTD SVG 1.1//EN"
       "http://www.w3.org/Graphics/SVG/1.1/DTD/svg11.dtd">
<svg version="1.1" xmlns="http://www.w3.org/2000/svg" xmlns:xlink="http://www.w3.org/1999/xlink" viewBox="0 0 46.2891 45.918">
 <g>
  <rect height="45.918" opacity="0" width="46.2891" x="0" y="0"/>
  <path d="M45.918 7.53906L45.918 38.3984C45.918 43.3594 43.3594 45.918 38.3008 45.918L7.59766 45.918C2.55859 45.918 0 43.3984 0 38.3984L0 7.53906C0 2.53906 2.55859 0 7.59766 0L38.3008 0C43.3594 0 45.918 2.55859 45.918 7.53906ZM15.2344 14.4336L10.2344 25.0391C9.84375 25.918 9.70703 26.5039 9.70703 27.2266C9.70703 28.3398 10.4688 29.1016 11.6016 29.1016L17.5977 29.1016L17.5977 32.0703C17.5977 33.2422 18.4375 33.7109 19.1992 33.7109C20.0391 33.7109 20.7227 33.1445 20.7227 32.0703L20.7227 29.1016L21.8164 29.1016C22.7148 29.1016 23.125 28.5352 23.125 27.7539C23.125 27.0117 22.7344 26.4453 21.8164 26.4453L20.7227 26.4453L20.7227 14.6484C20.7227 13.0078 19.6875 12.1875 18.2227 12.1875C16.6406 12.1875 15.8789 13.0078 15.2344 14.4336ZM28.8672 13.125L25.8398 15.5273C25.4492 15.8398 25.1367 16.2695 25.1367 16.8555C25.1367 17.5781 25.625 18.0859 26.3281 18.0859C26.6992 18.0859 26.9141 17.9688 27.1289 17.7734L29.707 15.7227L29.707 31.9727C29.707 32.9102 30.4688 33.6523 31.3867 33.6523C32.2852 33.6523 33.0273 32.9102 33.0273 31.9727L33.0273 14.043C33.0273 12.8906 32.3047 12.1875 31.1328 12.1875C30.1953 12.1875 29.3945 12.7148 28.8672 13.125ZM17.6562 26.5039L12.5195 26.5039L12.5195 26.3672L17.5586 15.1562L17.6562 15.1562Z" fill="black" fill-opacity="0.85"/>
 </g>
</svg>
