<?xml version="1.0" encoding="UTF-8"?>
<!--Generator: Apple Native CoreSVG 326-->
<!DOCTYPE svg
PUBLIC "-//W3C//DTD SVG 1.1//EN"
       "http://www.w3.org/Graphics/SVG/1.1/DTD/svg11.dtd">
<svg version="1.1" xmlns="http://www.w3.org/2000/svg" xmlns:xlink="http://www.w3.org/1999/xlink" viewBox="0 0 51.25 50.918">
 <g>
  <rect height="50.918" opacity="0" width="51.25" x="0" y="0"/>
  <path d="M50.8789 25.4492C50.8789 39.4531 39.4531 50.8789 25.4297 50.8789C11.4258 50.8789 0 39.4531 0 25.4492C0 11.4258 11.4258 0 25.4297 0C39.4531 0 50.8789 11.4258 50.8789 25.4492ZM16.6406 26.0547C16.6406 29.4922 17.2266 32.0703 18.2617 33.75C19.8438 36.4453 22.6172 37.6172 25.625 37.6172C30.7031 37.6172 34.2383 34.5703 34.2383 29.4531C34.2383 24.707 30.6641 21.8945 26.5625 21.8945C23.1055 21.8945 21.0156 23.6328 20.0977 25.6641C20.0391 25.6641 19.9805 25.6641 19.9219 25.6641C19.9219 25.5469 19.9219 25.4688 19.9219 25.3711C19.9219 19.707 22.3828 16.1523 26.1133 16.1523C28.0078 16.1523 29.2578 17.0117 30.0195 18.125C30.7031 18.8477 31.1328 19.2578 31.9141 19.2578C32.6758 19.2578 33.2812 18.7109 33.2812 17.9102C33.2812 17.5586 33.2031 17.2656 33.0664 16.9336C32.3633 15.0977 29.6289 13.2812 26.2109 13.2812C20.293 13.2812 16.6406 17.6172 16.6406 26.0547ZM30.7422 29.6289C30.7422 32.8125 28.6719 34.8828 25.4883 34.8828C22.4609 34.8828 20.2539 32.6562 20.2539 29.5898C20.2539 26.6406 22.4414 24.4922 25.5273 24.4922C28.6133 24.4922 30.7422 26.6016 30.7422 29.6289Z" fill="black" fill-opacity="0.85"/>
 </g>
</svg>
