<?xml version="1.0" encoding="UTF-8"?>
<!--Generator: Apple Native CoreSVG 326-->
<!DOCTYPE svg
PUBLIC "-//W3C//DTD SVG 1.1//EN"
       "http://www.w3.org/Graphics/SVG/1.1/DTD/svg11.dtd">
<svg version="1.1" xmlns="http://www.w3.org/2000/svg" xmlns:xlink="http://www.w3.org/1999/xlink" viewBox="0 0 46.2891 45.918">
 <g>
  <rect height="45.918" opacity="0" width="46.2891" x="0" y="0"/>
  <path d="M45.918 7.53906L45.918 38.3984C45.918 43.3594 43.3594 45.918 38.3008 45.918L7.59766 45.918C2.55859 45.918 0 43.3984 0 38.3984L0 7.53906C0 2.53906 2.55859 0 7.59766 0L38.3008 0C43.3594 0 45.918 2.55859 45.918 7.53906ZM20.4688 12.3633L13.0469 32.2461C12.8711 32.7344 12.8125 33.0469 12.8125 33.3789C12.8125 34.2969 13.457 34.9219 14.4922 34.9219C15.293 34.9219 15.8594 34.5508 16.2109 33.4961L18.2422 27.6953L27.6562 27.6953L29.6875 33.4961C30.0586 34.5508 30.6055 34.9219 31.4453 34.9219C32.4219 34.9219 33.0859 34.2969 33.0859 33.3984C33.0859 33.0469 33.0469 32.7344 32.8516 32.2461L25.4297 12.3633C25 11.1914 24.1406 10.6055 22.9297 10.6055C21.7383 10.6055 20.918 11.1914 20.4688 12.3633ZM26.7383 24.9609L19.1602 24.9609L22.832 14.5508L23.0664 14.5508Z" fill="black" fill-opacity="0.85"/>
 </g>
</svg>
