<?xml version="1.0" encoding="UTF-8"?>
<!--Generator: Apple Native CoreSVG 326-->
<!DOCTYPE svg
PUBLIC "-//W3C//DTD SVG 1.1//EN"
       "http://www.w3.org/Graphics/SVG/1.1/DTD/svg11.dtd">
<svg version="1.1" xmlns="http://www.w3.org/2000/svg" xmlns:xlink="http://www.w3.org/1999/xlink" viewBox="0 0 62.2266 59.082">
 <g>
  <rect height="59.082" opacity="0" width="62.2266" x="0" y="0"/>
  <path d="M50.2268 14.7221L47.2466 15.3734C45.434 11.6886 42.1325 8.88191 38.1254 7.71829C40.9187 9.79383 43.0694 12.6786 44.2346 16.0317L44.2188 16.0352C43.1795 16.2614 42.258 16.677 41.5076 17.2556C39.9813 12.6471 36.2627 9.05806 31.5751 7.70961C35.9291 10.9517 38.7305 16.1398 38.7305 21.9922C38.7305 27.8496 35.9244 33.0484 31.5639 36.2955C34.7668 35.3785 37.516 33.4086 39.4161 30.7763L39.436 35.1899C39.027 35.5915 38.5856 35.958 38.1143 36.2868C38.5694 36.1642 39.0117 36.0113 39.4388 35.8281L39.4531 38.999L39.4194 39.0113L36.7969 39.5898C36.6586 39.621 36.5216 39.6532 36.3933 39.6924C35.5913 39.8248 34.7653 39.8828 33.9258 39.8828C32.8093 39.8828 31.7165 39.7806 30.6608 39.5716C29.6072 39.7806 28.5166 39.8828 27.4023 39.8828C26.2795 39.8828 25.1814 39.7799 24.1211 39.5698C23.0608 39.7799 21.9626 39.8828 20.8398 39.8828C10.9766 39.8828 2.98828 31.875 2.98828 21.9922C2.98828 12.1094 10.9766 4.12109 20.8398 4.12109C21.9626 4.12109 23.0608 4.2238 24.1211 4.4334C25.1814 4.2238 26.2795 4.12109 27.4023 4.12109C28.5166 4.12109 29.6072 4.22305 30.6608 4.4316C31.7165 4.22305 32.8093 4.12109 33.9258 4.12109C41.2016 4.12109 47.4571 8.46791 50.2268 14.7221ZM5.95703 21.9922C5.95703 28.7834 10.4787 34.5006 16.6746 36.2928C12.3163 33.0455 9.51172 27.848 9.51172 21.9922C9.51172 16.1414 12.3115 10.9546 16.6635 7.71233C10.4733 9.50378 5.95703 15.205 5.95703 21.9922ZM12.5195 21.9922C12.5195 28.7703 16.9973 34.4785 23.1868 36.2835C18.8285 33.0355 16.0156 27.8424 16.0156 21.9922C16.0156 16.147 18.8237 10.9645 23.1756 7.72164C16.992 9.52582 12.5195 15.2181 12.5195 21.9922ZM19.0234 21.9922C19.0234 27.8857 22.4087 32.9703 27.3743 35.3745C32.337 32.9703 35.7422 27.8857 35.7422 21.9922C35.7422 16.0987 32.337 11.0241 27.3743 8.62556C22.4087 11.0241 19.0234 16.0987 19.0234 21.9922Z" fill="black" fill-opacity="0.85"/>
  <path d="M58.8672 27.207L58.8672 18.4766C58.8672 17.2852 57.8906 16.4844 56.7383 16.7383L44.9414 19.3164C43.5352 19.6094 42.7539 20.4102 42.7539 21.6406L42.8125 39.8633C42.8125 41.0938 42.3047 41.8359 41.25 42.0703L37.5 42.8711C32.8516 43.8672 30.6641 46.1719 30.6641 49.707C30.6641 53.2227 33.3789 55.7227 37.2266 55.7227C40.6641 55.7227 45.7422 53.2031 45.7422 46.4258L45.7422 32.8711C45.7422 31.5625 45.9766 31.2891 47.1875 31.0156L57.6367 28.7109C58.3984 28.5352 58.8672 27.9688 58.8672 27.207Z" fill="black" fill-opacity="0.85"/>
 </g>
</svg>
