<?xml version="1.0" encoding="UTF-8"?>
<!--Generator: Apple Native CoreSVG 326-->
<!DOCTYPE svg
PUBLIC "-//W3C//DTD SVG 1.1//EN"
       "http://www.w3.org/Graphics/SVG/1.1/DTD/svg11.dtd">
<svg version="1.1" xmlns="http://www.w3.org/2000/svg" xmlns:xlink="http://www.w3.org/1999/xlink" viewBox="0 0 64.8682 63.9259">
 <g>
  <rect height="63.9259" opacity="0" width="64.8682" x="0" y="0"/>
  <path d="M12.5055 13.1043C9.30833 15.8201 7.28761 19.8741 7.28761 24.4141C7.28761 31.2054 11.8093 36.9225 18.0052 38.7147C13.6468 35.4674 10.8423 30.2699 10.8423 24.4141C10.8423 20.7269 11.9543 17.3034 13.8677 14.4654L16.038 16.634C14.6461 18.8911 13.8501 21.5563 13.8501 24.4141C13.8501 31.1922 18.3279 36.9004 24.5174 38.7054C20.1591 35.4575 17.3462 30.2643 17.3462 24.4141C17.3462 22.4646 17.6586 20.5888 18.2426 18.8369L20.6847 21.2771C20.4671 22.2873 20.354 23.337 20.354 24.4141C20.354 30.3076 23.7392 35.3922 28.7049 37.7964C30.5538 36.9007 32.1865 35.6329 33.5065 34.089L35.6183 36.1991C34.8046 37.133 33.8901 37.9761 32.8945 38.7174C34.1898 38.3466 35.4109 37.8035 36.5264 37.1066L40.7834 41.3602L40.7837 41.4209L40.75 41.4333L38.1275 42.0118C37.9891 42.0429 37.8522 42.0751 37.7239 42.1143C36.9219 42.2467 36.0959 42.3047 35.2564 42.3047C34.1399 42.3047 33.0471 42.2025 31.9913 41.9935C30.9378 42.2025 29.8472 42.3047 28.7329 42.3047C27.6101 42.3047 26.5119 42.2018 25.4517 41.9917C24.3914 42.2018 23.2932 42.3047 22.1704 42.3047C12.3071 42.3047 4.31886 34.2969 4.31886 24.4141C4.31886 19.0577 6.66548 14.2578 10.3976 10.9979ZM51.5573 17.1441L48.5772 17.7954C46.7646 14.1105 43.463 11.3038 39.456 10.1402C42.2493 12.2157 44.3999 15.1005 45.5652 18.4536L45.5493 18.4571C44.5101 18.6833 43.5886 19.0989 42.8382 19.6775C41.3119 15.069 37.5933 11.48 32.9057 10.1315C37.2597 13.3736 40.061 18.5617 40.061 24.4141C40.061 25.5983 39.9463 26.7556 39.722 27.8733L37.0446 25.197C37.066 24.9391 37.0728 24.6774 37.0728 24.4141C37.0728 18.5206 33.6676 13.446 28.7049 11.0475C27.4327 11.662 26.2642 12.4521 25.232 13.389L23.1299 11.2876C23.5664 10.8813 24.0269 10.5007 24.5062 10.1436C23.873 10.3283 23.2578 10.5538 22.6689 10.8268L18.723 6.88246C19.8368 6.65739 20.9902 6.54301 22.1704 6.54301C23.2932 6.54301 24.3914 6.64571 25.4517 6.85531C26.5119 6.64571 27.6101 6.54301 28.7329 6.54301C29.8472 6.54301 30.9378 6.64496 31.9913 6.85352C33.0471 6.64496 34.1399 6.54301 35.2564 6.54301C42.5322 6.54301 48.7877 10.8898 51.5573 17.1441Z" fill="black" fill-opacity="0.85"/>
  <path d="M47.0728 47.6447L47.0728 48.8477C47.0728 55.625 41.9946 58.1446 38.5571 58.1446C34.7095 58.1446 31.9946 55.6446 31.9946 52.1289C31.9946 48.5938 34.1821 46.2891 38.8306 45.293L42.5806 44.4922C42.9489 44.4104 43.2505 44.2666 43.4856 44.0603ZM60.1978 20.8985L60.1978 29.6289C60.1978 30.3907 59.729 30.9571 58.9673 31.1329L48.5181 33.4375C47.3301 33.7058 47.082 33.974 47.0737 35.2222L44.1108 32.2605L44.0845 24.0625C44.0845 22.8321 44.8657 22.0313 46.272 21.7383L58.0689 19.1602C59.2212 18.9063 60.1978 19.7071 60.1978 20.8985Z" fill="black" fill-opacity="0.85"/>
  <path d="M59.2993 55.9961C59.9439 56.6602 61.0181 56.6602 61.6626 55.9961C62.3071 55.3321 62.3071 54.2969 61.6626 53.6524L11.2134 3.2227C10.5689 2.57817 9.49464 2.55864 8.83058 3.2227C8.20558 3.8477 8.20558 4.94145 8.83058 5.56645Z" fill="black" fill-opacity="0.85"/>
 </g>
</svg>
