<?xml version="1.0" encoding="UTF-8"?>
<!--Generator: Apple Native CoreSVG 326-->
<!DOCTYPE svg
PUBLIC "-//W3C//DTD SVG 1.1//EN"
       "http://www.w3.org/Graphics/SVG/1.1/DTD/svg11.dtd">
<svg version="1.1" xmlns="http://www.w3.org/2000/svg" xmlns:xlink="http://www.w3.org/1999/xlink" viewBox="0 0 50.0586 49.5898">
 <g>
  <rect height="49.5898" opacity="0" width="50.0586" x="0" y="0"/>
  <path d="M13.1445 49.5898L36.543 49.5898C41.0156 49.5898 44.4141 49.1211 46.8164 46.6992C49.2383 44.2773 49.6875 40.9375 49.6875 36.4453L49.6875 13.2031C49.6875 8.71094 49.2383 5.35156 46.8164 2.94922C44.3945 0.527344 41.0156 0.0585938 36.543 0.0585938L13.0078 0.0585938C8.69141 0.0585938 5.29297 0.546875 2.87109 2.96875C0.449219 5.39062 0 8.75 0 13.0664L0 36.4453C0 40.9375 0.429688 44.2969 2.85156 46.6992C5.29297 49.1211 8.67188 49.5898 13.1445 49.5898ZM12.4609 46.1328C9.62891 46.1328 6.93359 45.7031 5.39062 44.1602C3.86719 42.6172 3.45703 39.9805 3.45703 37.1289L3.45703 12.6367C3.45703 9.70703 3.86719 7.01172 5.39062 5.46875C6.91406 3.92578 9.64844 3.51562 12.5781 3.51562L37.2266 3.51562C40.0586 3.51562 42.7539 3.94531 44.2773 5.48828C45.8203 7.03125 46.2305 9.66797 46.2305 12.5195L46.2305 37.1289C46.2305 39.9805 45.8203 42.6172 44.2773 44.1602C42.7539 45.7031 40.0586 46.1328 37.2266 46.1328Z" fill="black" fill-opacity="0.85"/>
  <path d="M13.4766 19.3164C15.5273 19.5508 17.1289 17.2852 16.9922 15.4883C14.9414 15.5859 13.4375 17.4023 13.4766 19.3164ZM20.4688 28.0664C19.4922 27.6562 18.8672 27.0117 18.5156 26.1133C18.1055 25.1172 18.2031 24.1016 18.5156 23.2422C18.6914 22.6758 19.082 21.9727 20.0391 21.3867C19.3164 20.293 18.1641 19.7266 16.7969 19.7266C15.2539 19.7266 14.3555 20.5273 13.5742 20.5273C12.9297 20.5273 12.1875 19.7656 10.957 19.7656C9.60938 19.7656 8.51562 20.3125 7.79297 21.2305C6.93359 22.2656 6.58203 23.5938 6.58203 24.9219C6.58203 27.1289 7.57812 29.6875 9.00391 31.3086C9.74609 32.168 10.3516 32.5781 11.0547 32.5781C12.0898 32.5781 12.6562 31.8359 13.8867 31.8359C14.4336 31.8359 14.8828 32.0703 15.2148 32.168C15.7227 32.3438 16.0742 32.5586 16.6602 32.5586C17.2852 32.5586 17.793 32.3047 18.1055 31.9922C19.2188 30.918 20.0977 29.375 20.4688 28.0664ZM27.3828 16.7383L24.7656 16.7383L24.7656 19.7266L22.9492 19.7266L22.9492 21.7578L24.7656 21.7578L24.7656 29.082C24.7656 31.6406 25.7617 32.5586 28.3594 32.5586C28.9258 32.5586 29.5508 32.4805 29.7656 32.4609L29.7656 30.3125C29.6484 30.3906 29.1797 30.3906 28.9258 30.3906C27.8906 30.3906 27.3828 29.9414 27.3828 28.7891L27.3828 21.7578L29.8047 21.7578L29.8047 19.7266L27.3828 19.7266ZM38.418 32.4609L43.0273 19.7266L40.1758 19.7266L37.0508 29.9414L33.7695 19.7266L30.9961 19.7266L35.6836 32.4609Z" fill="black" fill-opacity="0.85"/>
 </g>
</svg>
