<?xml version="1.0" encoding="UTF-8"?>
<!--Generator: Apple Native CoreSVG 326-->
<!DOCTYPE svg
PUBLIC "-//W3C//DTD SVG 1.1//EN"
       "http://www.w3.org/Graphics/SVG/1.1/DTD/svg11.dtd">
<svg version="1.1" xmlns="http://www.w3.org/2000/svg" xmlns:xlink="http://www.w3.org/1999/xlink" viewBox="0 0 56.1133 45.6445">
 <g>
  <rect height="45.6445" opacity="0" width="56.1133" x="0" y="0"/>
  <path d="M0 22.8125C0 23.5938 0.292969 24.4922 1.32812 25.4688L21.1719 44.1406C22.2266 45.1367 23.1445 45.6055 24.2773 45.6055C25.8398 45.6055 26.9141 44.4727 26.9141 42.9297L26.9141 33.0273L47.7344 33.0273C51.5039 33.0273 53.6523 30.918 53.6523 27.2266L53.6523 18.457C53.6523 14.7656 51.5039 12.6758 47.7344 12.6758L26.9141 12.6758L26.9141 2.8125C26.9141 1.26953 25.8398 0 24.2383 0C23.1055 0 22.3242 0.507812 21.1719 1.58203L1.32812 20.1172C0.273438 21.1133 0 21.9922 0 22.8125ZM3.84766 22.8125C3.84766 22.5977 3.94531 22.3828 4.23828 22.1094L22.5781 4.64844C22.7344 4.53125 22.8906 4.41406 23.0859 4.41406C23.3008 4.41406 23.457 4.57031 23.457 4.78516L23.457 15.1367C23.457 15.6836 23.6914 15.9375 24.2578 15.9375L47.6953 15.9375C49.4336 15.9375 50.3906 16.8945 50.3906 18.6133L50.3906 27.0703C50.3906 28.8086 49.4336 29.7656 47.6953 29.7656L24.2578 29.7656C23.6914 29.7656 23.457 30 23.457 30.5664L23.457 40.6445C23.457 40.8789 23.3203 41.0352 23.0859 41.0352C22.9297 41.0352 22.7734 40.9766 22.5977 40.8008L4.23828 23.5156C3.92578 23.2227 3.84766 23.0273 3.84766 22.8125Z" fill="black" fill-opacity="0.85"/>
 </g>
</svg>
