<?xml version="1.0" encoding="UTF-8"?>
<!--Generator: Apple Native CoreSVG 326-->
<!DOCTYPE svg
PUBLIC "-//W3C//DTD SVG 1.1//EN"
       "http://www.w3.org/Graphics/SVG/1.1/DTD/svg11.dtd">
<svg version="1.1" xmlns="http://www.w3.org/2000/svg" xmlns:xlink="http://www.w3.org/1999/xlink" viewBox="0 0 42.3047 53.8477">
 <g>
  <rect height="53.8477" opacity="0" width="42.3047" x="0" y="0"/>
  <path d="M19.3359 18.3008C19.3359 21.3477 20.7812 22.8125 23.8281 22.8125L41.9336 22.8125L41.9336 46.25C41.9336 51.2695 39.4141 53.8477 34.4141 53.8477L7.51953 53.8477C2.51953 53.8477 0 51.2891 0 46.25L0 7.61719C0 2.57812 2.55859 0.0195312 7.51953 0.0195312L19.3359 0.0195312ZM19.7852 27.6172L12.4805 34.4922C12.1484 34.8047 11.9141 35.1562 11.9141 35.6836C11.9141 36.5234 12.5391 37.1289 13.3984 37.1289C13.7891 37.1289 14.2188 36.9531 14.5117 36.6602L16.6797 34.4531L19.5117 31.5625L19.375 35.8789L19.375 45.8008C19.375 46.6602 20.0977 47.3633 20.9766 47.3633C21.8359 47.3633 22.5586 46.6602 22.5586 45.8008L22.5586 35.8789L22.4219 31.5625L25.2539 34.4531L27.4219 36.6602C27.7148 36.9531 28.125 37.1289 28.5352 37.1289C29.375 37.1289 30.0195 36.5234 30.0195 35.6836C30.0195 35.1562 29.7852 34.8047 29.4531 34.4922L22.1484 27.6172C21.7188 27.2266 21.3672 27.0703 20.9766 27.0703C20.5664 27.0703 20.2148 27.2266 19.7852 27.6172ZM25.293 2.1875L39.7656 16.8555C40.8008 17.8906 41.4648 18.7695 41.6211 19.6875L23.9453 19.6875C22.9492 19.6875 22.4609 19.1992 22.4609 18.2031L22.4609 0.3125C23.3594 0.46875 24.2969 1.15234 25.293 2.1875Z" fill="black" fill-opacity="0.85"/>
 </g>
</svg>
