<?xml version="1.0" encoding="UTF-8"?>
<!--Generator: Apple Native CoreSVG 326-->
<!DOCTYPE svg
PUBLIC "-//W3C//DTD SVG 1.1//EN"
       "http://www.w3.org/Graphics/SVG/1.1/DTD/svg11.dtd">
<svg version="1.1" xmlns="http://www.w3.org/2000/svg" xmlns:xlink="http://www.w3.org/1999/xlink" viewBox="0 0 62.7734 46.6992">
 <g>
  <rect height="46.6992" opacity="0" width="62.7734" x="0" y="0"/>
  <path d="M54.5117 19.1602C59.4727 21.1133 62.4023 25.6445 62.4023 30.8203C62.4023 37.5781 56.6016 42.9492 49.1602 42.9492L14.7461 42.9297C6.32812 42.9297 0 36.9336 0 29.6484C0 23.5742 3.57422 18.6719 9.17969 17.8906C9.25781 10.8984 15.9766 6.21094 22.0703 8.18359C24.9609 3.71094 29.7461 0 36.6016 0C46.7188 0 54.6484 8.06641 54.5117 19.1602ZM21.6992 19.9805L18.5742 24.4727C18.1055 25.1562 18.2812 25.957 19.1602 25.957L21.3477 25.957C22.3242 31.6016 26.8555 35.4688 32.5781 35.4688C35.1562 35.4688 37.7734 34.5117 39.5898 32.9297C40.4492 32.2266 40.6445 31.2891 40.0195 30.625C39.3945 29.9805 38.5938 30.0781 37.832 30.625C36.2109 31.9727 34.5898 32.6172 32.5781 32.6172C28.3984 32.6172 24.9609 29.7852 24.0625 25.957L26.25 25.957C27.1094 25.957 27.3633 25.1367 26.8555 24.4727L23.6914 19.9805C23.1641 19.2578 22.2656 19.1992 21.6992 19.9805ZM25.5273 15.4688C24.6875 16.1914 24.4727 17.1094 25.0977 17.7734C25.7227 18.3984 26.543 18.3203 27.2656 17.7734C28.8867 16.4062 30.5273 15.7617 32.5586 15.7617C36.7383 15.7617 40.1562 18.6133 41.0547 22.4414L38.7695 22.4414C37.9102 22.4414 37.6562 23.2617 38.1836 23.9258L41.3281 28.418C41.8555 29.1406 42.7539 29.1992 43.3203 28.418L46.4453 23.9258C46.9141 23.2422 46.7383 22.4414 45.8594 22.4414L43.7695 22.4414C42.793 16.7969 38.2617 12.9297 32.5586 12.9297C29.9609 12.9297 27.3242 13.8867 25.5273 15.4688Z" fill="black" fill-opacity="0.85"/>
 </g>
</svg>
