<?xml version="1.0" encoding="UTF-8"?>
<!--Generator: Apple Native CoreSVG 326-->
<!DOCTYPE svg
PUBLIC "-//W3C//DTD SVG 1.1//EN"
       "http://www.w3.org/Graphics/SVG/1.1/DTD/svg11.dtd">
<svg version="1.1" xmlns="http://www.w3.org/2000/svg" xmlns:xlink="http://www.w3.org/1999/xlink" viewBox="0 0 39.0625 47.3633">
 <g>
  <rect height="47.3633" opacity="0" width="39.0625" x="0" y="0"/>
  <path d="M5 0C3.55469 0 2.30469 0.0390625 1.62109 0.15625C0.761719 0.332031 0 0.878906 0 1.97266C0 3.08594 0.800781 3.80859 1.89453 3.80859C2.63672 3.80859 3.51562 3.73047 4.80469 3.73047C13.9648 3.73047 17.9297 7.10938 17.9102 16.3281L17.8906 34.9023L18.0664 41.5039L12.9688 35.9961L4.0625 27.0898C3.73047 26.7578 3.22266 26.582 2.71484 26.582C1.66016 26.582 0.878906 27.3828 0.878906 28.457C0.878906 28.9648 1.07422 29.3945 1.46484 29.8242L18.3789 46.7188C18.7695 47.1484 19.2578 47.3633 19.7852 47.3633C20.3125 47.3633 20.8008 47.1484 21.2109 46.7188L38.1055 29.8242C38.5156 29.3945 38.6914 28.9648 38.6914 28.457C38.6914 27.3828 37.9102 26.582 36.8555 26.582C36.3477 26.582 35.8398 26.7578 35.5078 27.0898L26.6016 35.9961L21.5234 41.4844L21.6797 34.9023L21.6797 16.1523C21.6797 4.70703 16.4453 0 5 0Z" fill="black" fill-opacity="0.85"/>
 </g>
</svg>
