<?xml version="1.0" encoding="UTF-8"?>
<!--Generator: Apple Native CoreSVG 326-->
<!DOCTYPE svg
PUBLIC "-//W3C//DTD SVG 1.1//EN"
       "http://www.w3.org/Graphics/SVG/1.1/DTD/svg11.dtd">
<svg version="1.1" xmlns="http://www.w3.org/2000/svg" xmlns:xlink="http://www.w3.org/1999/xlink" viewBox="0 0 61.8359 45.7227">
 <g>
  <rect height="45.7227" opacity="0" width="61.8359" x="0" y="0"/>
  <path d="M37.5781 45.625C38.6914 45.625 39.6094 45.1367 40.6641 44.1602L60.5273 25.4688C61.5625 24.5117 61.8359 23.6133 61.8359 22.8125C61.8359 21.9922 61.5625 21.1133 60.5273 20.1367L40.6641 1.60156C39.5117 0.507812 38.7305 0 37.6172 0C36.0156 0 34.9219 1.26953 34.9219 2.8125L34.9219 12.8711L18.3984 12.8711C14.4141 12.8711 12.6562 14.5898 12.6562 18.5547L12.6562 23.5742L6.64062 23.5742C2.65625 23.5742 0.898438 25.293 0.898438 29.2578L0.898438 39.3945C0.898438 43.3594 2.65625 45.0586 6.64062 45.0586L21.6211 45.0586C25.6055 45.0586 27.3633 43.3594 27.3633 39.3945L27.3633 33.4961L34.9219 33.4961L34.9219 42.9297C34.9219 44.4727 36.0156 45.625 37.5781 45.625ZM24.7656 39.2969L15.625 35.293C13.3398 34.2578 12.4609 33.125 12.3633 31.2695C12.3438 30.7617 12.8906 30.6641 13.125 31.1719C13.8086 32.7148 15.3906 33.4961 17.7344 33.4961L25.0781 33.4961L25.0781 39.1602C25.0781 39.3164 24.9219 39.375 24.7656 39.2969Z" fill="black" fill-opacity="0.85"/>
 </g>
</svg>
