<?xml version="1.0" encoding="UTF-8"?>
<!--Generator: Apple Native CoreSVG 326-->
<!DOCTYPE svg
PUBLIC "-//W3C//DTD SVG 1.1//EN"
       "http://www.w3.org/Graphics/SVG/1.1/DTD/svg11.dtd">
<svg version="1.1" xmlns="http://www.w3.org/2000/svg" xmlns:xlink="http://www.w3.org/1999/xlink" viewBox="0 0 51.25 50.918">
 <g>
  <rect height="50.918" opacity="0" width="51.25" x="0" y="0"/>
  <path d="M50.8789 25.4492C50.8789 39.4531 39.4531 50.8789 25.4297 50.8789C11.4258 50.8789 0 39.4531 0 25.4492C0 11.4258 11.4258 0 25.4297 0C39.4531 0 50.8789 11.4258 50.8789 25.4492ZM14.2773 25.918C13.3984 25.918 12.6953 26.6211 12.6953 27.5C12.6953 28.3789 13.3984 29.082 14.2773 29.082L15.8008 29.0625L19.8633 28.8672L12.5781 35.8984C11.9141 36.5625 11.875 37.6172 12.5586 38.2812C13.2031 38.9453 14.2578 38.9453 14.9219 38.2617L21.9922 30.9375L21.7773 35.1758L21.7773 36.6016C21.7773 37.5 22.5 38.2031 23.3594 38.2031C24.2383 38.2031 24.9414 37.5 24.9414 36.6016L24.9414 27.7344C24.9414 26.4453 24.2578 25.918 23.125 25.918ZM35.9375 12.5977L28.8672 19.9219L29.082 15.6641L29.082 14.2383C29.082 13.3594 28.3789 12.6562 27.5 12.6562C26.6211 12.6562 25.918 13.3594 25.918 14.2383L25.918 23.1055C25.918 24.3945 26.6016 24.9414 27.7344 24.9414L36.582 24.9414C37.4609 24.9414 38.1641 24.2383 38.1641 23.3398C38.1641 22.4805 37.4609 21.7773 36.582 21.7773L35.0586 21.7773L31.0156 21.9922L38.3008 14.9414C38.9453 14.2969 38.9844 13.2227 38.3203 12.5781C37.6562 11.9141 36.6016 11.9141 35.9375 12.5977Z" fill="black" fill-opacity="0.85"/>
 </g>
</svg>
