<?xml version="1.0" encoding="UTF-8"?>
<!--Generator: Apple Native CoreSVG 326-->
<!DOCTYPE svg
PUBLIC "-//W3C//DTD SVG 1.1//EN"
       "http://www.w3.org/Graphics/SVG/1.1/DTD/svg11.dtd">
<svg version="1.1" xmlns="http://www.w3.org/2000/svg" xmlns:xlink="http://www.w3.org/1999/xlink" viewBox="0 0 61.6016 49.082">
 <g>
  <rect height="49.082" opacity="0" width="61.6016" x="0" y="0"/>
  <path d="M40.4688 2.07031L42.5391 4.39453C43.7305 5.72266 44.2969 6.03516 46.3086 6.03516L53.6328 6.03516C58.6719 6.03516 61.2305 8.59375 61.2305 13.5547L61.2305 40C61.2305 44.9805 58.6719 47.5195 53.6328 47.5195L7.59766 47.5195C2.55859 47.5195 0 44.9805 0 40L0 13.5547C0 8.59375 2.55859 6.03516 7.59766 6.03516L14.6289 6.03516C16.6211 6.03516 17.2461 5.68359 18.3984 4.39453L20.4688 2.07031C21.7578 0.664062 22.9688 0 25.5078 0L35.4297 0C37.9688 0 39.1797 0.664062 40.4688 2.07031ZM17.2656 20.2344L13.4375 25.7617C12.8711 26.582 13.0664 27.5195 14.1016 27.5195L16.8555 27.5195C18.0273 34.4922 23.6133 39.2578 30.6641 39.2578C33.8477 39.2578 37.0703 38.0664 39.2969 36.1328C40.332 35.293 40.5859 34.1602 39.8047 33.3789C39.0625 32.5586 38.0859 32.6758 37.207 33.3398C35.1758 35.0195 33.1836 35.8398 30.6641 35.8398C25.4492 35.8398 21.1914 32.2852 20.1172 27.5195L22.8516 27.5195C23.8672 27.5195 24.1406 26.5625 23.5547 25.7617L19.6484 20.2344C19.0039 19.3164 17.9492 19.2773 17.2656 20.2344ZM21.9922 14.6484C20.9375 15.4883 20.7031 16.6211 21.4648 17.4023C22.2461 18.2031 23.2031 18.1055 24.082 17.4414C26.0742 15.7422 28.1055 14.9414 30.625 14.9414C35.8398 14.9414 40.0977 18.4766 41.1719 23.2617L38.3203 23.2617C37.2852 23.2617 37.0312 24.2188 37.6172 25.0195L41.5234 30.5469C42.168 31.4648 43.2227 31.5039 43.8867 30.5469L47.7344 25.0195C48.3008 24.1992 48.1055 23.2617 47.0703 23.2617L44.4336 23.2617C43.2617 16.2891 37.6758 11.5234 30.625 11.5234C27.4414 11.5234 24.2188 12.7148 21.9922 14.6484Z" fill="black" fill-opacity="0.85"/>
 </g>
</svg>
