<?xml version="1.0" encoding="UTF-8"?>
<!--Generator: Apple Native CoreSVG 326-->
<!DOCTYPE svg
PUBLIC "-//W3C//DTD SVG 1.1//EN"
       "http://www.w3.org/Graphics/SVG/1.1/DTD/svg11.dtd">
<svg version="1.1" xmlns="http://www.w3.org/2000/svg" xmlns:xlink="http://www.w3.org/1999/xlink" viewBox="0 0 45.9961 53.6523">
 <g>
  <rect height="53.6523" opacity="0" width="45.9961" x="0" y="0"/>
  <path d="M22.8125 0C22.0117 0 21.1133 0.292969 20.1562 1.32812L1.46484 21.1719C0.488281 22.2266 0 23.1445 0 24.2773C0 25.8398 1.15234 26.9141 2.69531 26.9141L12.5977 26.9141L12.5977 47.7344C12.5977 51.5039 14.6875 53.6523 18.3789 53.6523L27.1484 53.6523C30.8398 53.6523 32.9492 51.5039 32.9492 47.7344L32.9492 26.9141L42.8125 26.9141C44.3555 26.9141 45.625 25.8398 45.625 24.2383C45.625 23.1055 45.1172 22.3242 44.0234 21.1719L25.4883 1.32812C24.5117 0.273438 23.6133 0 22.8125 0ZM22.8125 3.84766C23.0273 3.84766 23.2227 3.94531 23.5156 4.23828L40.957 22.5781C41.0938 22.7344 41.2109 22.8906 41.2109 23.0859C41.2109 23.3008 41.0547 23.457 40.8203 23.457L30.4883 23.457C29.9219 23.457 29.6875 23.7109 29.6875 24.2578L29.6875 47.6953C29.6875 49.4336 28.7305 50.3906 26.9922 50.3906L18.5352 50.3906C16.8164 50.3906 15.8594 49.4336 15.8594 47.6953L15.8594 24.2578C15.8594 23.7109 15.6055 23.457 15.0586 23.457L4.98047 23.457C4.72656 23.457 4.57031 23.3203 4.57031 23.0859C4.57031 22.9297 4.64844 22.7734 4.82422 22.5977L22.1094 4.23828C22.4023 3.92578 22.5977 3.84766 22.8125 3.84766Z" fill="black" fill-opacity="0.85"/>
 </g>
</svg>
