<?xml version="1.0" encoding="UTF-8"?>
<!--Generator: Apple Native CoreSVG 326-->
<!DOCTYPE svg
PUBLIC "-//W3C//DTD SVG 1.1//EN"
       "http://www.w3.org/Graphics/SVG/1.1/DTD/svg11.dtd">
<svg version="1.1" xmlns="http://www.w3.org/2000/svg" xmlns:xlink="http://www.w3.org/1999/xlink" viewBox="0 0 100.098 40.4492">
 <g>
  <rect height="40.4492" opacity="0" width="100.098" x="0" y="0"/>
  <path d="M0 20.2148C0 21.1133 0.390625 21.9336 1.21094 22.7148L18.5938 39.043C19.6094 40 20.4688 40.4102 21.5039 40.4102C22.9883 40.4102 24.1016 39.2969 24.1016 37.793L24.1016 29.4141L41.2891 29.4141C44.6875 29.4141 46.7578 27.3633 46.7578 24.0625L46.7578 16.3867C46.7578 13.1055 44.707 11.0742 41.2891 11.0742L24.1016 11.0742L24.1016 2.71484C24.1016 1.15234 22.9688 0 21.4844 0C20.4883 0 19.7852 0.351562 18.5938 1.46484L1.21094 17.6758C0.3125 18.5352 0 19.375 0 20.2148ZM4.45312 20.8789C3.94531 20.3711 3.94531 20.0195 4.45312 19.5508L20.2148 4.62891C20.3906 4.47266 20.625 4.53125 20.625 4.74609L20.625 13.6133C20.625 14.2383 20.957 14.5312 21.5625 14.5312L41.1914 14.5312C42.5195 14.5312 43.3008 15.332 43.3008 16.6602L43.3008 23.8867C43.3008 25.2148 42.5195 25.957 41.1914 25.957L21.5625 25.957C20.957 25.957 20.625 26.25 20.625 26.9141L20.625 35.5078C20.625 35.7422 20.3906 35.8008 20.2148 35.625ZM99.7266 20.2148C99.7266 19.375 99.4141 18.5352 98.4961 17.6758L81.1328 1.46484C79.9219 0.351562 79.2383 0 78.2422 0C76.7578 0 75.6055 1.15234 75.6055 2.71484L75.6055 11.0742L58.418 11.0742C55.0195 11.0742 52.9492 13.1055 52.9492 16.3867L52.9492 24.0625C52.9492 27.3633 55.0391 29.4141 58.418 29.4141L75.6055 29.4141L75.6055 37.793C75.6055 39.2969 76.7383 40.4102 78.2227 40.4102C79.2578 40.4102 80.0977 40 81.1328 39.043L98.4961 22.7148C99.3359 21.9336 99.7266 21.1133 99.7266 20.2148ZM58.5156 25.957C57.207 25.957 56.4062 25.2148 56.4062 23.8867L56.4062 16.6602C56.4062 15.332 57.207 14.5312 58.5156 14.5312L78.1445 14.5312C78.7695 14.5312 79.082 14.2383 79.082 13.6133L79.082 4.74609C79.082 4.53125 79.3359 4.47266 79.5117 4.62891L95.2539 19.5508C95.7617 20.0195 95.7812 20.3711 95.2539 20.8789L79.5117 35.625C79.3359 35.8008 79.082 35.7422 79.082 35.5078L79.082 26.9141C79.082 26.25 78.7695 25.957 78.1445 25.957Z" fill="black" fill-opacity="0.85"/>
 </g>
</svg>
