<?xml version="1.0" encoding="UTF-8"?>
<!--Generator: Apple Native CoreSVG 326-->
<!DOCTYPE svg
PUBLIC "-//W3C//DTD SVG 1.1//EN"
       "http://www.w3.org/Graphics/SVG/1.1/DTD/svg11.dtd">
<svg version="1.1" xmlns="http://www.w3.org/2000/svg" xmlns:xlink="http://www.w3.org/1999/xlink" viewBox="0 0 47.5781 41.3867">
 <g>
  <rect height="41.3867" opacity="0" width="47.5781" x="0" y="0"/>
  <path d="M45.1953 0C44.0625 0 43.2812 0.78125 43.2812 1.89453C43.2812 2.65625 43.3398 3.53516 43.3398 4.84375C43.3398 14.2969 39.8242 18.1445 30.5078 18.1445L11.8164 18.1445L5.68359 18.457L13.5352 11.1719L20.293 4.31641C20.625 3.98438 20.8203 3.47656 20.8203 2.96875C20.8203 1.91406 20 1.11328 18.9453 1.11328C18.4375 1.11328 17.9688 1.30859 17.5586 1.71875L0.664062 18.5938C0.214844 19.0234 0 19.5312 0 20.0586C0 20.5859 0.214844 21.0742 0.664062 21.5039L17.4414 38.2812C17.9688 38.7891 18.4375 38.9844 18.9453 38.9844C20 38.9844 20.8203 38.2031 20.8203 37.1289C20.8203 36.6211 20.6445 36.1328 20.293 35.7812L13.5352 28.9258L5.70312 21.6797L11.8164 21.9531L30.6836 21.9531C42.3047 21.9531 47.207 16.9141 47.207 5.03906C47.207 3.57422 47.168 2.30469 47.0117 1.62109C46.8359 0.742188 46.3086 0 45.1953 0Z" fill="black" fill-opacity="0.85"/>
 </g>
</svg>
