<?xml version="1.0" encoding="UTF-8"?>
<!--Generator: Apple Native CoreSVG 326-->
<!DOCTYPE svg
PUBLIC "-//W3C//DTD SVG 1.1//EN"
       "http://www.w3.org/Graphics/SVG/1.1/DTD/svg11.dtd">
<svg version="1.1" xmlns="http://www.w3.org/2000/svg" xmlns:xlink="http://www.w3.org/1999/xlink" viewBox="0 0 45.4297 52.168">
 <g>
  <rect height="52.168" opacity="0" width="45.4297" x="0" y="0"/>
  <path d="M22.5586 52.168C23.9258 52.168 24.7461 51.3281 24.7461 49.9023C24.7461 49.6289 24.7266 49.3555 24.7266 49.1016L24.4531 29.3555L41.2891 39.375C41.8164 39.707 42.3047 39.8438 42.8711 39.8438C44.1406 39.8438 45.0586 38.8867 45.0586 37.5977C45.0586 36.6211 44.668 36.0352 43.6328 35.5078L26.1719 26.0938L43.6328 16.6797C44.6875 16.1328 45.0586 15.5469 45.0586 14.5898C45.0586 13.3008 44.1602 12.3438 42.8711 12.3438C42.3047 12.3438 41.8164 12.4609 41.2891 12.793L24.4531 22.8125L24.7266 3.08594C24.7266 2.8125 24.7461 2.53906 24.7461 2.26562C24.7461 0.859375 23.9258 0.0195312 22.5586 0.0195312C21.1914 0.0195312 20.3711 0.859375 20.3711 2.26562C20.3711 2.53906 20.3906 2.8125 20.3906 3.08594L20.6641 22.8125L3.76953 12.793C3.24219 12.4609 2.75391 12.3438 2.1875 12.3438C0.917969 12.3438 0 13.2812 0 14.5703C0 15.5469 0.390625 16.1133 1.44531 16.6797L18.9062 26.0938L1.44531 35.5078C0.390625 36.0547 0 36.6211 0 37.5977C0 38.8867 0.917969 39.8438 2.1875 39.8438C2.75391 39.8438 3.24219 39.707 3.76953 39.375L20.6641 29.3555L20.3906 49.1016C20.3906 49.3555 20.3711 49.6289 20.3711 49.9023C20.3711 51.3281 21.1914 52.168 22.5586 52.168Z" fill="black" fill-opacity="0.85"/>
 </g>
</svg>
