<?xml version="1.0" encoding="UTF-8"?>
<!--Generator: Apple Native CoreSVG 326-->
<!DOCTYPE svg
PUBLIC "-//W3C//DTD SVG 1.1//EN"
       "http://www.w3.org/Graphics/SVG/1.1/DTD/svg11.dtd">
<svg version="1.1" xmlns="http://www.w3.org/2000/svg" xmlns:xlink="http://www.w3.org/1999/xlink" viewBox="0 0 60.4102 50.0586">
 <g>
  <rect height="50.0586" opacity="0" width="60.4102" x="0" y="0"/>
  <path d="M60.0391 30.0195C60.0391 22.6562 57.3828 15.918 52.9688 10.6836C52.4609 10.0781 51.6016 10.0977 51.0352 10.6641L45.3906 16.3086C44.9023 16.7969 44.8828 17.4805 45.3125 18.0273C47.9102 21.3477 49.4531 25.4883 49.4531 30.0195C49.4531 34.5508 47.9102 38.7109 45.1953 42.1484C44.8242 42.6172 44.8438 43.2031 45.2539 43.6133L51.0352 49.4141C51.6016 50 52.4414 49.9805 52.9688 49.375C57.3828 44.1406 60.0391 37.3633 60.0391 30.0195Z" fill="black" fill-opacity="0.85"/>
  <path d="M30.0195 10.5664C34.5508 10.5664 38.7305 12.1289 42.0508 14.7656C42.5781 15.1562 43.2227 15.1172 43.7109 14.6289L49.375 8.96484C49.9609 8.39844 49.9414 7.55859 49.3359 7.03125C44.1211 2.65625 37.3633 0 30.0195 0C22.6758 0 15.918 2.65625 10.7031 7.03125C10.0977 7.55859 10.0781 8.39844 10.6445 8.96484L16.3281 14.6289C16.7969 15.1172 17.5 15.1367 18.0469 14.707C21.3477 12.1289 25.5078 10.5664 30.0195 10.5664Z" fill="black" fill-opacity="0.85"/>
  <path d="M0 30.0195C0 37.3633 2.65625 44.1406 7.07031 49.375C7.57812 49.9805 8.4375 50 9.00391 49.4141L14.7852 43.6133C15.1758 43.2031 15.2148 42.6172 14.8438 42.1484C12.1289 38.7109 10.5664 34.5508 10.5664 30.0195C10.5664 25.4883 12.1094 21.3477 14.7266 18.0273C15.1367 17.4805 15.1367 16.7969 14.6484 16.3086L8.98438 10.6641C8.41797 10.0977 7.57812 10.0781 7.05078 10.6836C2.63672 15.918 0 22.6562 0 30.0195Z" fill="black" fill-opacity="0.85"/>
  <path d="M22.7344 41.8555C23.418 41.8555 23.7891 41.5234 23.9844 40.8789L29.9219 21.9727L30.0391 21.9727L35.9961 40.8984C36.1719 41.4844 36.5234 41.8555 37.2656 41.8555C37.9297 41.8555 38.5547 41.4648 38.5547 40.7227C38.5547 40.4688 38.4961 40.2344 38.418 39.9805L31.7383 20.0977C31.4648 19.2188 30.9375 18.7695 30 18.7695C29.0625 18.7695 28.4766 19.2773 28.2031 20.0977L21.5625 40.0586C21.4844 40.293 21.4258 40.5078 21.4258 40.7227C21.4258 41.4258 21.9922 41.8555 22.7344 41.8555ZM20.4883 30.8398C20.4883 31.25 20.8398 31.6016 21.25 31.6016L38.7305 31.6016C39.1406 31.6016 39.4922 31.25 39.4922 30.8398C39.4922 30.4297 39.1406 30.0781 38.7305 30.0781L21.25 30.0781C20.8398 30.0781 20.4883 30.4297 20.4883 30.8398ZM20.4883 35.3125C20.4883 35.7227 20.8398 36.0742 21.25 36.0742L38.7305 36.0742C39.1406 36.0742 39.4922 35.7227 39.4922 35.3125C39.4922 34.8828 39.1406 34.5508 38.7305 34.5508L21.25 34.5508C20.8398 34.5508 20.4883 34.8828 20.4883 35.3125Z" fill="black" fill-opacity="0.85"/>
 </g>
</svg>
