<?xml version="1.0" encoding="UTF-8"?>
<!--Generator: Apple Native CoreSVG 326-->
<!DOCTYPE svg
PUBLIC "-//W3C//DTD SVG 1.1//EN"
       "http://www.w3.org/Graphics/SVG/1.1/DTD/svg11.dtd">
<svg version="1.1" xmlns="http://www.w3.org/2000/svg" xmlns:xlink="http://www.w3.org/1999/xlink" viewBox="0 0 44.6973 53.3077">
 <g>
  <rect height="53.3077" opacity="0" width="44.6973" x="0" y="0"/>
  <path d="M2.15333 16.0972L4.22365 16.8589C6.07911 17.523 7.73927 16.7027 8.42286 14.8082L11.8994 5.25738C12.6026 3.34331 11.8408 1.66363 10.0049 0.999564L7.93458 0.237845C6.07911-0.445749 4.43849 0.374564 3.73536 2.30816L0.258802 11.8394C-0.444323 13.7535 0.317396 15.4332 2.15333 16.0972ZM34.3213 16.0972L36.3916 16.8589C38.2471 17.523 39.9072 16.7027 40.5908 14.8082L44.0674 5.25738C44.7705 3.34331 44.0088 1.66363 42.1729 0.999564L40.1026 0.237845C38.2666-0.445749 36.626 0.374564 35.9229 2.30816L32.4463 11.8394C31.7627 13.7535 32.5049 15.4332 34.3213 16.0972ZM4.98536 53.1675L7.1924 53.1675C9.14552 53.1675 10.4151 51.8199 10.4151 49.8082L10.4151 39.6519C10.4151 37.6207 9.14552 36.2925 7.1924 36.2925L4.98536 36.2925C3.03224 36.2925 1.74318 37.6207 1.74318 39.6519L1.74318 49.8082C1.74318 51.8199 3.03224 53.1675 4.98536 53.1675ZM37.1533 53.1675L39.3604 53.1675C41.3135 53.1675 42.583 51.8199 42.583 49.8082L42.583 39.6519C42.583 37.6207 41.3135 36.2925 39.3604 36.2925L37.1533 36.2925C35.2002 36.2925 33.9307 37.6207 33.9307 39.6519L33.9307 49.8082C33.9307 51.8199 35.2002 53.1675 37.1533 53.1675ZM8.73536 10.2769L15.2588 10.2769C15.3955 10.0816 15.5518 9.88628 15.708 9.7105L16.958 8.48003L15.8838 7.40581C15.7276 7.23003 15.5713 7.03472 15.4541 6.81988L8.73536 6.81988ZM35.6494 10.2769L35.6494 6.81988L29.0088 6.81988C28.8721 7.01519 28.7158 7.2105 28.5401 7.38628L27.2901 8.59722L28.3447 9.67144C28.5205 9.86675 28.6963 10.0621 28.8135 10.2769ZM20.4346 46.4683L23.8916 46.4683L23.8916 15.2574C23.6768 15.1207 23.4619 14.9644 23.2471 14.7691L22.1924 13.7144L20.9815 14.9644C20.8057 15.1597 20.6299 15.2769 20.4346 15.4136ZM8.73536 46.4683L35.6494 46.4683L35.6494 42.9918L8.73536 42.9918Z" fill="black" fill-opacity="0.85"/>
  <path d="M16.8994 13.773C17.4268 14.2808 18.2471 14.3785 18.794 13.8316L22.1924 10.4332L25.3369 13.5777C25.8252 14.066 26.626 14.066 27.1338 13.5777C27.6416 13.0699 27.6416 12.2496 27.1338 11.7418L24.0088 8.59722L27.4072 5.21831C27.9541 4.69097 27.8565 3.85113 27.3486 3.34331C26.8213 2.81597 26.001 2.71831 25.4346 3.26519L22.0752 6.66363L18.8916 3.51909C18.4033 3.03081 17.6026 3.05034 17.0947 3.51909C16.6065 4.00738 16.6065 4.80816 17.0947 5.3355L20.2393 8.48003L16.8408 11.8785C16.294 12.4253 16.3721 13.2457 16.8994 13.773Z" fill="black" fill-opacity="0.85"/>
 </g>
</svg>
