<?xml version="1.0" encoding="UTF-8"?>
<!--Generator: Apple Native CoreSVG 326-->
<!DOCTYPE svg
PUBLIC "-//W3C//DTD SVG 1.1//EN"
       "http://www.w3.org/Graphics/SVG/1.1/DTD/svg11.dtd">
<svg version="1.1" xmlns="http://www.w3.org/2000/svg" xmlns:xlink="http://www.w3.org/1999/xlink" viewBox="0 0 37.4414 37.9492">
 <g>
  <rect height="37.9492" opacity="0" width="37.4414" x="0" y="0"/>
  <path d="M37.0703 34.7266L37.0703 3.20312C37.0703 1.01562 35.8008 0 34.2969 0C33.6523 0 32.9688 0.195312 32.3242 0.566406L5.85938 16.0938C4.19922 17.0508 3.53516 17.8125 3.53516 18.9648C3.53516 20.1172 4.19922 20.8594 5.85938 21.8164L32.3242 37.3438C32.9688 37.7148 33.6523 37.9102 34.2969 37.9102C35.8008 37.9102 37.0703 36.9141 37.0703 34.7266ZM33.6133 33.1641C33.6133 33.4961 33.3984 33.7109 33.125 33.7109C33.0078 33.7109 32.8906 33.6914 32.7734 33.6133L8.55469 19.3555C8.35938 19.2383 8.28125 19.1016 8.28125 18.9648C8.28125 18.8086 8.35938 18.6719 8.55469 18.5547L32.7734 4.29688C32.8906 4.23828 33.0078 4.19922 33.125 4.19922C33.3984 4.19922 33.6133 4.41406 33.6133 4.74609ZM1.83594 37.9102C2.85156 37.9102 3.65234 37.1289 3.65234 36.1133L3.65234 1.79688C3.65234 0.78125 2.85156 0 1.83594 0C0.800781 0 0 0.78125 0 1.79688L0 36.1133C0 37.1289 0.800781 37.9102 1.83594 37.9102Z" fill="black" fill-opacity="0.85"/>
 </g>
</svg>
