<?xml version="1.0" encoding="UTF-8"?>
<!--Generator: Apple Native CoreSVG 326-->
<!DOCTYPE svg
PUBLIC "-//W3C//DTD SVG 1.1//EN"
       "http://www.w3.org/Graphics/SVG/1.1/DTD/svg11.dtd">
<svg version="1.1" xmlns="http://www.w3.org/2000/svg" xmlns:xlink="http://www.w3.org/1999/xlink" viewBox="0 0 51.25 50.918">
 <g>
  <rect height="50.918" opacity="0" width="51.25" x="0" y="0"/>
  <path d="M25.4297 50.8789C39.4727 50.8789 50.8789 39.4922 50.8789 25.4492C50.8789 11.4062 39.4727 0 25.4297 0C11.3867 0 0 11.4062 0 25.4492C0 39.4922 11.3867 50.8789 25.4297 50.8789ZM25.4297 47.2461C13.3789 47.2461 3.63281 37.5 3.63281 25.4492C3.63281 13.3984 13.3789 3.65234 25.4297 3.65234C37.4805 3.65234 47.2266 13.3984 47.2266 25.4492C47.2266 37.5 37.4805 47.2461 25.4297 47.2461Z" fill="black" fill-opacity="0.85"/>
  <path d="M11.9727 24.707C13.1055 23.3008 14.3945 22.0117 15.8789 20.8789C15.8203 19.9023 15.2734 18.1641 14.3359 17.8516C12.9688 19.8242 12.0508 22.4414 11.9727 24.707ZM17.3242 19.8633C17.7539 19.5703 18.1641 19.3164 18.5938 19.082C18.3594 16.9141 18.418 15.0977 18.6719 13.8281C17.4023 14.5703 16.2891 15.5078 15.3125 16.6016C16.4062 17.0898 17.0703 18.6719 17.3242 19.8633ZM20.0586 18.3594C20.7422 18.0273 21.4648 17.7539 22.1875 17.4805C22.168 17.2461 22.168 16.9531 22.168 16.6602C22.168 14.7656 23.0469 13.1055 24.5312 11.9922C23.3594 12.0703 21.6797 12.4219 20.3516 12.9883C20.0586 14.043 19.7852 15.8594 20.0586 18.3594ZM23.7695 17.0508C25.4688 16.582 27.2852 16.3477 29.1406 16.3477C31.6016 16.3477 34.0625 16.7773 36.2695 17.5586C34.1992 14.7656 31.0938 12.7539 27.5781 12.168C25.0586 13.1055 23.5742 14.7461 23.7695 17.0508ZM12.0703 27.2656C12.5 30.1367 13.8477 32.7344 15.8008 34.7656C14.668 31.1133 15.625 26.7383 15.8594 22.9492C14.4141 24.2188 13.1445 25.6445 12.0703 27.2656ZM17.4609 21.6602C17.5 27.3828 15.0977 33.8281 19.7461 37.3438C21.4062 38.3398 23.3594 38.9258 25.4297 38.9258C26.0352 38.9258 26.6406 38.8867 27.2656 38.7891C22.3047 32.5391 19.7656 25.9375 18.8672 20.7812C18.3789 21.0352 17.9102 21.3477 17.4609 21.6602ZM20.2344 20C21.0742 25.0195 23.6328 31.9141 28.9844 38.418C32.1289 37.5586 34.8438 35.5273 36.582 32.832C35.6641 26.6797 25.0195 24.6289 22.6172 19.0039C21.8164 19.2773 21.0352 19.6094 20.2344 20ZM24.1602 18.5352C26.25 22.8711 35.2344 24.9023 37.7148 30.8594C38.457 29.1797 38.9062 27.3633 38.9062 25.4492C38.9062 23.4766 38.4375 21.582 37.6172 19.8828C34.9414 18.5742 32.1875 17.9102 29.1406 17.9102C27.4219 17.9102 25.7617 18.125 24.1602 18.5352Z" fill="black" fill-opacity="0.85"/>
 </g>
</svg>
