<?xml version="1.0" encoding="UTF-8"?>
<!--Generator: Apple Native CoreSVG 326-->
<!DOCTYPE svg
PUBLIC "-//W3C//DTD SVG 1.1//EN"
       "http://www.w3.org/Graphics/SVG/1.1/DTD/svg11.dtd">
<svg version="1.1" xmlns="http://www.w3.org/2000/svg" xmlns:xlink="http://www.w3.org/1999/xlink" viewBox="0 0 73.5547 33.2227">
 <g>
  <rect height="33.2227" opacity="0" width="73.5547" x="0" y="0"/>
  <path d="M13.1445 33.2227L52.4414 33.2227C56.9141 33.2227 60.3125 32.7539 62.7344 30.332C65.1367 27.9297 65.5859 24.5703 65.5859 20.0977L65.5859 13.1445C65.5859 8.67188 65.1367 5.3125 62.7344 2.89062C60.293 0.488281 56.9141 0 52.4414 0L13.0078 0C8.69141 0 5.29297 0.488281 2.87109 2.91016C0.449219 5.33203 0 8.69141 0 13.0273L0 20.0977C0 24.5703 0.429688 27.9297 2.85156 30.332C5.29297 32.7539 8.67188 33.2227 13.1445 33.2227ZM12.4609 29.7656C9.62891 29.7656 6.93359 29.3359 5.39062 27.793C3.86719 26.2695 3.45703 23.6133 3.45703 20.7812L3.45703 12.5977C3.45703 9.64844 3.86719 6.95312 5.39062 5.42969C6.91406 3.86719 9.64844 3.47656 12.5781 3.47656L53.125 3.47656C55.957 3.47656 58.6523 3.90625 60.1953 5.42969C61.7188 6.97266 62.1289 9.62891 62.1289 12.4609L62.1289 20.7812C62.1289 23.6133 61.7188 26.2695 60.1953 27.793C58.6523 29.3555 55.957 29.7656 53.125 29.7656ZM68.6914 22.8906C70.625 22.7734 73.1836 20.3125 73.1836 16.6211C73.1836 12.9297 70.625 10.4688 68.6914 10.3516Z" fill="black" fill-opacity="0.85"/>
  <path d="M11.4062 27.0508L27.5781 27.0508C29.6484 27.0508 30.8789 26.7383 31.6602 25.9375C32.4609 25.1367 32.793 23.9062 32.793 21.8359L32.793 11.4062C32.793 9.31641 32.4609 8.10547 31.6797 7.30469C30.8789 6.50391 29.6289 6.19141 27.5781 6.19141L11.5234 6.19141C9.33594 6.19141 8.08594 6.50391 7.30469 7.28516C6.50391 8.08594 6.17188 9.35547 6.17188 11.5234L6.17188 21.8359C6.17188 23.9258 6.50391 25.1367 7.30469 25.9375C8.10547 26.7188 9.35547 27.0508 11.4062 27.0508Z" fill="black" fill-opacity="0.85"/>
 </g>
</svg>
