<?xml version="1.0" encoding="UTF-8"?>
<!--Generator: Apple Native CoreSVG 326-->
<!DOCTYPE svg
PUBLIC "-//W3C//DTD SVG 1.1//EN"
       "http://www.w3.org/Graphics/SVG/1.1/DTD/svg11.dtd">
<svg version="1.1" xmlns="http://www.w3.org/2000/svg" xmlns:xlink="http://www.w3.org/1999/xlink" viewBox="0 0 40.5562 43.418">
 <g>
  <rect height="43.418" opacity="0" width="40.5562" x="0" y="0"/>
  <path d="M8.9695 31.6016C13.9304 31.6016 17.5828 27.3242 16.6843 21.8945L15.1023 12.4023C14.8679 10.957 15.3562 10.0586 16.7234 9.43359C19.8484 7.92969 23.0711 7.05078 27.2312 6.42578C29.7312 6.05469 31.0789 4.17969 31.0789 1.64062C31.0789 0.566406 30.532 0 28.95 0C23.7547 0 18.5789 0.839844 13.3054 2.67578C4.26247 5.80078-1.12816 11.3281 0.199968 18.5547L1.50856 25.5664C2.25075 29.668 5.74684 31.6016 8.9695 31.6016ZM8.9695 27.9492C6.62575 27.9492 4.77028 26.1133 4.77028 23.75C4.77028 21.3867 6.62575 19.5508 8.9695 19.5508C11.2937 19.5508 13.1492 21.4062 13.1492 23.75C13.1492 26.0938 11.2937 27.9492 8.9695 27.9492ZM8.9695 26.25C10.3757 26.25 11.4695 25.1562 11.4695 23.75C11.4695 22.3438 10.3757 21.2305 8.9695 21.2305C7.54372 21.2305 6.44997 22.3438 6.44997 23.75C6.44997 25.1562 7.54372 26.25 8.9695 26.25ZM8.9695 33.9258C5.19997 33.9258 1.97731 32.0117 0.297624 28.9844C0.746843 37.0508 7.97341 41.25 16.5086 41.25C18.7156 41.25 20.3172 40.957 21.8601 40.1758C25.0242 34.668 27.2703 28.9258 28.6765 22.6953C27.075 19.3164 23.325 17.0508 18.0125 15.6836L18.9695 21.5039C20.1023 28.2422 15.4929 33.9258 8.9695 33.9258Z" fill="black" fill-opacity="0.85"/>
  <path d="M40.1804 32.9688C40.1804 27.4219 35.8836 23.5742 31.0007 23.0078C29.5164 29.5703 27.1336 35.7617 23.7351 41.543C25.2781 42.6172 27.4461 43.3594 29.8289 43.3594C36.0398 43.3594 40.1804 39.1992 40.1804 32.9688Z" fill="black" fill-opacity="0.425"/>
  <path d="M8.9695 27.9492C6.62575 27.9492 4.77028 26.1133 4.77028 23.75C4.77028 21.3867 6.62575 19.5508 8.9695 19.5508C11.2937 19.5508 13.1492 21.4062 13.1492 23.75C13.1492 26.0938 11.2937 27.9492 8.9695 27.9492ZM8.9695 26.25C10.3757 26.25 11.4695 25.1562 11.4695 23.75C11.4695 22.3438 10.3757 21.2305 8.9695 21.2305C7.54372 21.2305 6.44997 22.3438 6.44997 23.75C6.44997 25.1562 7.54372 26.25 8.9695 26.25Z" fill="black" fill-opacity="0.2125"/>
 </g>
</svg>
