<?xml version="1.0" encoding="UTF-8"?>
<!--Generator: Apple Native CoreSVG 326-->
<!DOCTYPE svg
PUBLIC "-//W3C//DTD SVG 1.1//EN"
       "http://www.w3.org/Graphics/SVG/1.1/DTD/svg11.dtd">
<svg version="1.1" xmlns="http://www.w3.org/2000/svg" xmlns:xlink="http://www.w3.org/1999/xlink" viewBox="0 0 51.25 50.918">
 <g>
  <rect height="50.918" opacity="0" width="51.25" x="0" y="0"/>
  <path d="M25.4297 50.8789C39.4727 50.8789 50.8789 39.4922 50.8789 25.4492C50.8789 11.4062 39.4727 0 25.4297 0C11.3867 0 0 11.4062 0 25.4492C0 39.4922 11.3867 50.8789 25.4297 50.8789ZM25.4297 47.2461C13.3789 47.2461 3.63281 37.5 3.63281 25.4492C3.63281 13.3984 13.3789 3.65234 25.4297 3.65234C37.4805 3.65234 47.2266 13.3984 47.2266 25.4492C47.2266 37.5 37.4805 47.2461 25.4297 47.2461Z" fill="black" fill-opacity="0.85"/>
  <path d="M10.1758 34.4531C10.1758 35.0586 10.5469 35.4297 11.1328 35.4297L11.7969 35.4297C12.4023 35.4297 12.7734 35.0586 12.7734 34.4531L12.7734 32.5977C12.9102 32.6367 13.2227 32.6367 13.4961 32.6367L37.3828 32.6367C37.6367 32.6367 37.9492 32.6367 38.0859 32.5977L38.0859 34.4531C38.0859 35.0586 38.4766 35.4297 39.0625 35.4297L39.7266 35.4297C40.3125 35.4297 40.7031 35.0586 40.7031 34.4531L40.7031 27.0117C40.7031 24.8828 39.4922 23.6914 37.3828 23.6914L13.4766 23.6914C11.3672 23.6914 10.1758 24.8828 10.1758 27.0117ZM13.1055 22.1289L16.0547 22.1289L16.0547 20.4883C16.0547 19.3945 16.6992 18.75 17.8125 18.75L22.4805 18.75C23.5742 18.75 24.1992 19.3945 24.1992 20.4883L24.1992 22.1289L26.9336 22.1289L26.9336 20.4883C26.9336 19.3945 27.5781 18.75 28.7891 18.75L32.9297 18.75C34.1797 18.75 34.8047 19.3945 34.8047 20.4883L34.8047 22.1289L37.7539 22.1289L37.7539 18.6914C37.7539 16.5234 36.6016 15.4492 34.5703 15.4492L16.2891 15.4492C14.2773 15.4492 13.1055 16.5234 13.1055 18.6914Z" fill="black" fill-opacity="0.85"/>
 </g>
</svg>
