<?xml version="1.0" encoding="UTF-8"?>
<!--Generator: Apple Native CoreSVG 326-->
<!DOCTYPE svg
PUBLIC "-//W3C//DTD SVG 1.1//EN"
       "http://www.w3.org/Graphics/SVG/1.1/DTD/svg11.dtd">
<svg version="1.1" xmlns="http://www.w3.org/2000/svg" xmlns:xlink="http://www.w3.org/1999/xlink" viewBox="0 0 47.4805 52.2852">
 <g>
  <rect height="52.2852" opacity="0" width="47.4805" x="0" y="0"/>
  <path d="M3.24219 42.7344L43.8477 42.7344C45.8789 42.7344 47.1094 41.6602 47.1094 40.0586C47.1094 37.5195 44.6094 35.293 42.4805 33.0664C40.5664 31.0156 40.2734 26.8359 39.9414 23.2617C39.6094 14.3555 37.0508 8.06641 30.5469 5.85938C29.6875 2.51953 27.1289 0 23.5547 0C19.9805 0 17.4219 2.51953 16.5625 5.85938C10.0586 8.06641 7.5 14.3555 7.16797 23.2617C6.83594 26.8359 6.54297 31.0156 4.62891 33.0664C2.48047 35.293 0 37.5195 0 40.0586C0 41.6602 1.23047 42.7344 3.24219 42.7344ZM23.5547 52.2852C27.7148 52.2852 30.6836 49.2773 31.0938 45.8398L16.0156 45.8398C16.4062 49.2773 19.3945 52.2852 23.5547 52.2852Z" fill="black" fill-opacity="0.85"/>
 </g>
</svg>
