<?xml version="1.0" encoding="UTF-8"?>
<!--Generator: Apple Native CoreSVG 326-->
<!DOCTYPE svg
PUBLIC "-//W3C//DTD SVG 1.1//EN"
       "http://www.w3.org/Graphics/SVG/1.1/DTD/svg11.dtd">
<svg version="1.1" xmlns="http://www.w3.org/2000/svg" xmlns:xlink="http://www.w3.org/1999/xlink" viewBox="0 0 29.7461 36.1133">
 <g>
  <rect height="36.1133" opacity="0" width="29.7461" x="0" y="0"/>
  <path d="M3.84766 36.1133L16.7969 36.1133C24.5312 36.1133 29.375 32.0898 29.375 25.8398C29.375 20.918 25.8203 17.3828 20.7031 17.0703L20.7031 16.8555C24.8438 16.2695 27.6758 13.0469 27.6758 9.0625C27.6758 3.47656 23.3789 0 16.4844 0L3.84766 0C1.40625 0 0 1.44531 0 3.92578L0 32.168C0 34.668 1.40625 36.1133 3.84766 36.1133ZM7.55859 30.6445L7.55859 20.0586L14.3555 20.0586C19.082 20.0586 21.6797 21.8945 21.6797 25.3125C21.6797 28.7891 19.1602 30.6445 14.5703 30.6445ZM7.55859 15.1367L7.55859 5.50781L14.2773 5.50781C18.0078 5.50781 20.2148 7.22656 20.2148 10.1758C20.2148 13.2812 17.7539 15.1367 13.5547 15.1367Z" fill="black" fill-opacity="0.85"/>
 </g>
</svg>
