<?xml version="1.0" encoding="UTF-8"?>
<!--Generator: Apple Native CoreSVG 326-->
<!DOCTYPE svg
PUBLIC "-//W3C//DTD SVG 1.1//EN"
       "http://www.w3.org/Graphics/SVG/1.1/DTD/svg11.dtd">
<svg version="1.1" xmlns="http://www.w3.org/2000/svg" xmlns:xlink="http://www.w3.org/1999/xlink" viewBox="0 0 49.5898 59.1211">
 <g>
  <rect height="59.1211" opacity="0" width="49.5898" x="0" y="0"/>
  <path d="M49.2188 23.1836C49.2188 29.1797 46.9336 34.6289 43.0273 37.9883L43.0273 50.332C43.0273 55.7617 37.4414 58.9648 28.457 58.9648C19.8047 58.9648 14.3359 55.9375 14.043 50.8594L14.0625 50.3516L11.1719 50.6641C7.20703 51.1133 4.25781 48.9062 4.25781 44.6289L4.25781 39.7852C1.58203 39.1797 0 37.0898 0 34.5703C0 33.2422 0.410156 31.8359 1.23047 30.3711L4.31641 24.7852C4.23828 24.1406 4.21875 23.4766 4.21875 22.6562C4.21875 9.08203 13.2227 0 26.6602 0C40.1758 0 49.2188 9.27734 49.2188 23.1836ZM30.1367 26.6406C30.1367 28.2227 31.2891 29.3359 33.1055 29.3359L33.6133 29.3359C33.9844 31.7969 35.4883 33.4375 37.4219 33.4375C40.1367 33.4375 42.0117 30.293 42.0117 25.7227C42.0117 25.3125 42.0117 24.8828 41.9922 24.4922C40.9766 24.9414 39.7852 25.1562 38.418 25.0977C37.832 25.0391 37.4023 24.5703 37.4023 24.0039C37.4023 23.418 37.8906 22.8906 38.457 22.9297C41.3672 23.0859 43.3008 21.4648 43.3008 18.8477C43.3008 16.4453 42.0312 14.4922 40.0195 13.457C39.4141 20.5664 30.1367 21.543 30.1367 26.6406ZM22.5195 10.1758C22.5195 10.8398 22.0898 11.25 21.4453 11.25C20.7617 11.25 20.3125 10.7617 20.3516 10.1172C20.3906 9.04297 20.6836 8.22266 21.0352 7.51953C20.5859 7.44141 20.1367 7.40234 19.6484 7.40234C16.582 7.40234 14.2188 9.35547 14.2188 11.9336C14.2188 13.6133 15.4492 14.8438 17.0312 14.8438C17.6758 14.8438 18.1641 15.332 18.1641 15.957C18.1641 16.5234 17.6562 17.0312 17.0312 17.0312C14.8633 17.0312 13.2227 15.9766 12.5 14.3359C11.582 15.6055 11.0547 17.1875 11.0547 18.7891C11.0547 23.0078 13.8086 26.2109 17.9492 26.2109C21.1133 26.2109 23.3398 24.1797 23.3398 21.3477C23.3398 20.3516 22.9883 19.4531 22.4023 18.8867C22.0312 18.5352 21.8945 18.1445 21.8945 17.8516C21.8945 17.2852 22.3633 16.8555 22.9492 16.8555C23.2227 16.8555 23.5352 16.9336 23.8086 17.1875C24.0625 17.3828 24.2578 17.8125 24.3359 18.0664C26.3672 17.7148 27.3633 16.5039 27.3633 14.5117C27.3633 13.9258 27.832 13.418 28.418 13.418C29.0039 13.418 29.5117 13.9453 29.5117 14.5117C29.5117 17.4219 28.0664 19.2773 25.293 19.9414C25.4297 20.3906 25.4688 20.8984 25.4688 21.3867C25.4688 23.9258 24.1797 25.9766 22.0117 27.0508C23.2617 27.7734 24.7266 28.1641 26.3477 28.1641C26.9727 28.1641 27.7344 28.0859 28.4375 27.9688C28.2812 27.5586 28.2031 27.1289 28.2031 26.6992C28.2031 20.1953 38.0469 19.043 38.0469 13.1055C38.0469 10.2148 35.7812 7.94922 32.8906 7.94922C31.9141 7.94922 31.543 7.98828 31.1914 8.06641C30.1758 6.83594 28.6133 6.07422 27.0898 6.07422C24.4531 6.07422 22.5781 7.65625 22.5195 10.1758Z" fill="black" fill-opacity="0.85"/>
 </g>
</svg>
