<?xml version="1.0" encoding="UTF-8"?>
<!--Generator: Apple Native CoreSVG 326-->
<!DOCTYPE svg
PUBLIC "-//W3C//DTD SVG 1.1//EN"
       "http://www.w3.org/Graphics/SVG/1.1/DTD/svg11.dtd">
<svg version="1.1" xmlns="http://www.w3.org/2000/svg" xmlns:xlink="http://www.w3.org/1999/xlink" viewBox="0 0 55.3906 54.9414">
 <g>
  <rect height="54.9414" opacity="0" width="55.3906" x="0" y="0"/>
  <path d="M27.4609 54.9414C28.457 54.9414 29.375 54.5117 30.2344 53.0469L34.9609 45.293L44.0039 45.293C51.0742 45.293 55.0195 41.25 55.0195 34.2969L55.0195 14.375C55.0195 7.40234 51.0742 3.35938 44.0039 3.35938L11.0156 3.35938C3.92578 3.35938 0 7.38281 0 14.375L0 34.2969C0 41.2891 3.92578 45.293 11.0156 45.293L19.9609 45.293L24.6875 53.0469C25.5664 54.5117 26.4648 54.9414 27.4609 54.9414ZM27.4609 51.4258L23.0469 43.5352C22.3438 42.1875 21.8359 41.8359 20.3125 41.8359L11.0352 41.8359C5.99609 41.8359 3.45703 39.1406 3.45703 34.2578L3.45703 14.3945C3.45703 9.51172 5.99609 6.81641 11.0352 6.81641L43.9844 6.81641C48.9648 6.81641 51.5625 9.51172 51.5625 14.3945L51.5625 34.2578C51.5625 39.1406 48.9648 41.8359 43.9844 41.8359L34.6094 41.8359C33.0859 41.8359 32.5781 42.1875 31.875 43.5352Z" fill="black" fill-opacity="0.85"/>
 </g>
</svg>
