<?xml version="1.0" encoding="UTF-8"?>
<!--Generator: Apple Native CoreSVG 326-->
<!DOCTYPE svg
PUBLIC "-//W3C//DTD SVG 1.1//EN"
       "http://www.w3.org/Graphics/SVG/1.1/DTD/svg11.dtd">
<svg version="1.1" xmlns="http://www.w3.org/2000/svg" xmlns:xlink="http://www.w3.org/1999/xlink" viewBox="0 0 76.2305 62.5586">
 <g>
  <rect height="62.5586" opacity="0" width="76.2305" x="0" y="0"/>
  <path d="M57.7062 12.9102L38.9258 12.9102C30.5078 12.9102 25.6445 17.9102 25.6445 26.1719L25.6445 40.625C25.6445 43.1814 26.1102 45.4217 27.0051 47.2948L20.6641 52.8906C19.3945 54.0039 18.6523 54.5703 17.5781 54.5703C16.0938 54.5703 15.2148 53.5156 15.2148 51.8359L15.2148 45.1172L13.75 45.1172C6.67969 45.1172 2.73438 41.1133 2.73438 34.1211L2.73438 14.1992C2.73438 7.20703 6.67969 3.18359 13.75 3.18359L46.7383 3.18359C53.379 3.18359 57.2438 6.73057 57.7062 12.9102Z" fill="black" fill-opacity="0.85"/>
  <path d="M41.5625 30.5078C40.5859 30.5078 39.8828 29.7656 39.8828 28.8281C39.8828 27.8516 40.5859 27.1484 41.5625 27.1484L60.4297 27.1484C61.4062 27.1484 62.1484 27.8516 62.1484 28.8281C62.1484 29.7656 61.4062 30.5078 60.4297 30.5078ZM41.5625 39.8633C40.5859 39.8633 39.8828 39.1797 39.8828 38.2031C39.8828 37.2656 40.5859 36.5039 41.5625 36.5039L55.4102 36.5039C56.3672 36.5039 57.1289 37.2656 57.1289 38.2031C57.1289 39.1797 56.3672 39.8633 55.4102 39.8633ZM38.9258 50.7227L48.5156 50.7227L56.7578 57.7734C58.0078 58.8672 58.75 59.4336 59.7656 59.4336C61.25 59.4336 62.0898 58.3789 62.0898 56.7578L62.0898 50.7227L62.9688 50.7227C69.6094 50.7227 73.125 47.1484 73.125 40.5859L73.125 26.1719C73.125 19.6094 69.6094 16.0156 62.9688 16.0156L38.9258 16.0156C32.2656 16.0156 28.75 19.6094 28.75 26.1719L28.75 40.625C28.75 47.168 32.2656 50.7227 38.9258 50.7227Z" fill="black" fill-opacity="0.85"/>
 </g>
</svg>
