<?xml version="1.0" encoding="UTF-8"?>
<!--Generator: Apple Native CoreSVG 326-->
<!DOCTYPE svg
PUBLIC "-//W3C//DTD SVG 1.1//EN"
       "http://www.w3.org/Graphics/SVG/1.1/DTD/svg11.dtd">
<svg version="1.1" xmlns="http://www.w3.org/2000/svg" xmlns:xlink="http://www.w3.org/1999/xlink" viewBox="0 0 55.293 58.1055">
 <g>
  <rect height="58.1055" opacity="0" width="55.293" x="0" y="0"/>
  <path d="M3.35938 44.9414C3.35938 46.4844 3.80859 47.6953 4.64844 48.5547L4.64844 54.7656C4.64844 56.582 6.07422 58.0273 7.92969 58.0273L10.8594 58.0273C12.7148 58.0273 14.1406 56.6016 14.1406 54.7656L14.1406 50.7422C18.2227 51.0352 22.6953 51.1914 27.4414 51.1914C32.1875 51.1914 36.6797 51.0352 40.7812 50.7617L40.7812 54.7656C40.7812 56.6016 42.207 58.0273 44.0625 58.0273L46.9922 58.0273C48.8477 58.0273 50.2734 56.582 50.2734 54.7656L50.2734 48.5547C51.1133 47.6953 51.5625 46.4844 51.5625 44.9414L51.5625 6.25C51.5625 3.08594 49.6875 1.32812 46.4258 0.957031C41.1328 0.332031 34.2969 0 27.4414 0C20.5859 0 13.75 0.332031 8.49609 0.957031C5.21484 1.32812 3.35938 3.08594 3.35938 6.25ZM27.4414 48.3008C20.1953 48.3008 13.9453 47.9883 9.21875 47.4219C7.03125 47.1484 6.23047 46.0938 6.23047 44.1406L6.23047 7.03125C6.23047 5.11719 7.22656 4.00391 9.21875 3.75C13.8672 3.18359 20.4492 2.87109 27.4414 2.87109C34.2969 2.89062 40.8789 3.18359 45.6836 3.75C47.8906 4.02344 48.6914 5.09766 48.6914 7.03125L48.6914 44.1406C48.6914 46.0938 47.8906 47.168 45.6836 47.4219C40.8008 47.9883 34.5508 48.3008 27.4414 48.3008ZM11.0938 34.1211C20.9766 35.5469 33.8281 35.5859 43.8281 34.1211C45.3516 33.8867 46.1133 33.0078 46.1133 31.3867L46.1133 9.25781C46.1133 7.48047 45.2734 6.48438 43.5742 6.32812C33.2617 5.29297 21.7578 5.29297 11.3867 6.32812C9.6875 6.48438 8.80859 7.48047 8.80859 9.25781L8.80859 31.3867C8.80859 33.0078 9.58984 33.8867 11.0938 34.1211ZM3.35938 23.5156L3.35938 9.23828L2.20703 9.23828C0.878906 9.23828 0 10.0391 0 11.2891L0 21.4648C0 22.7148 0.878906 23.5156 2.20703 23.5156ZM51.5625 23.5156L52.6953 23.5156C54.043 23.5156 54.9219 22.7148 54.9219 21.4648L54.9219 11.2891C54.9219 10.0391 54.043 9.23828 52.6953 9.23828L51.5625 9.23828ZM13.0664 44.1211C14.7266 44.1211 15.957 42.8906 15.957 41.2305C15.957 39.5898 14.7266 38.3398 13.0664 38.3398C11.4258 38.3398 10.1758 39.5898 10.1758 41.2305C10.1758 42.8906 11.4258 44.1211 13.0664 44.1211ZM21.4062 43.2812L33.418 43.2812C34.6484 43.2812 35.5078 42.4414 35.5078 41.1914C35.5078 39.9609 34.6484 39.1406 33.418 39.1406L21.4062 39.1406C20.1758 39.1406 19.3164 39.9609 19.3164 41.1914C19.3164 42.4414 20.1758 43.2812 21.4062 43.2812ZM41.8359 44.1211C43.4961 44.1211 44.7461 42.8906 44.7461 41.2305C44.7461 39.5898 43.4961 38.3398 41.8359 38.3398C40.1953 38.3398 38.9453 39.5898 38.9453 41.2305C38.9453 42.8906 40.1953 44.1211 41.8359 44.1211Z" fill="black" fill-opacity="0.85"/>
 </g>
</svg>
