<?xml version="1.0" encoding="UTF-8"?>
<!--Generator: Apple Native CoreSVG 326-->
<!DOCTYPE svg
PUBLIC "-//W3C//DTD SVG 1.1//EN"
       "http://www.w3.org/Graphics/SVG/1.1/DTD/svg11.dtd">
<svg version="1.1" xmlns="http://www.w3.org/2000/svg" xmlns:xlink="http://www.w3.org/1999/xlink" viewBox="0 0 44.5898 53.8867">
 <g>
  <rect height="53.8867" opacity="0" width="44.5898" x="0" y="0"/>
  <path d="M14.707 53.8867L36.8555 53.8867C41.4648 53.8867 44.1992 51.1719 44.1992 46.6016L44.2188 7.30469C44.2188 2.87109 41.3281 0 36.9141 0L29.1797 0C25.293 0 22.0703 0.976562 19.0234 3.78906L3.10547 18.418C1.03516 20.332 0 23.0273 0 26.3867L0 39.1797C0 48.125 5.74219 53.8867 14.707 53.8867ZM14.7852 50.4297C7.61719 50.4297 3.45703 46.2891 3.45703 39.1016L3.45703 26.4453C3.45703 23.8867 4.08203 22.2266 5.50781 20.8984L21.4062 6.32812C23.7109 4.23828 26.1133 3.45703 29.2578 3.45703L36.8359 3.45703C39.2578 3.45703 40.7422 4.98047 40.7422 7.38281L40.7227 46.543C40.7227 49.3555 39.5312 50.4297 36.7773 50.4297Z" fill="black" fill-opacity="0.85"/>
 </g>
</svg>
