<?xml version="1.0" encoding="UTF-8"?>
<!--Generator: Apple Native CoreSVG 326-->
<!DOCTYPE svg
PUBLIC "-//W3C//DTD SVG 1.1//EN"
       "http://www.w3.org/Graphics/SVG/1.1/DTD/svg11.dtd">
<svg version="1.1" xmlns="http://www.w3.org/2000/svg" xmlns:xlink="http://www.w3.org/1999/xlink" viewBox="0 0 46.2891 45.918">
 <g>
  <rect height="45.918" opacity="0" width="46.2891" x="0" y="0"/>
  <path d="M7.59766 45.918L38.3008 45.918C43.3594 45.918 45.918 43.3594 45.918 38.3984L45.918 7.53906C45.918 2.55859 43.3594 0 38.3008 0L7.59766 0C2.55859 0 0 2.53906 0 7.53906L0 38.3984C0 43.3984 2.55859 45.918 7.59766 45.918ZM7.67578 42.4609C4.94141 42.4609 3.45703 41.0156 3.45703 38.2031L3.45703 7.71484C3.45703 4.92188 4.94141 3.45703 7.67578 3.45703L38.2422 3.45703C40.918 3.45703 42.4609 4.92188 42.4609 7.71484L42.4609 38.2031C42.4609 41.0156 40.918 42.4609 38.2422 42.4609Z" fill="black" fill-opacity="0.85"/>
  <path d="M23.0469 34.6875C27.4609 34.6875 31.0156 32.4609 32.1094 29.043C32.2461 28.5938 32.2852 28.3203 32.2852 27.9883C32.2852 27.0508 31.7188 26.4844 30.8008 26.4844C30.1172 26.4844 29.668 26.8164 29.3359 27.5977C28.4375 30.2344 26.1523 31.7969 23.0859 31.7969C18.8867 31.7969 16.0352 28.1641 16.0352 22.7734C16.0352 17.4023 18.8867 13.7305 23.0859 13.7305C26.1523 13.7305 28.457 15.293 29.3359 17.9492C29.668 18.7109 30.1172 19.043 30.8008 19.043C31.7188 19.043 32.2852 18.4766 32.2852 17.5391C32.2852 17.1875 32.2461 16.9336 32.1094 16.4844C31.0156 13.1055 27.4219 10.8398 23.0469 10.8398C16.6797 10.8398 12.5586 15.5469 12.5586 22.7734C12.5586 30 16.6602 34.6875 23.0469 34.6875Z" fill="black" fill-opacity="0.85"/>
 </g>
</svg>
