<?xml version="1.0" encoding="UTF-8"?>
<!--Generator: Apple Native CoreSVG 326-->
<!DOCTYPE svg
PUBLIC "-//W3C//DTD SVG 1.1//EN"
       "http://www.w3.org/Graphics/SVG/1.1/DTD/svg11.dtd">
<svg version="1.1" xmlns="http://www.w3.org/2000/svg" xmlns:xlink="http://www.w3.org/1999/xlink" viewBox="0 0 56.7773 40.0586">
 <g>
  <rect height="40.0586" opacity="0" width="56.7773" x="0" y="0"/>
  <path d="M24.9023 39.8242C29.1406 39.8242 32.4414 36.5039 32.4414 32.2852C32.4414 28.0664 29.1406 24.7656 24.9023 24.7656C20.6836 24.7656 17.3633 28.0664 17.3633 32.2852C17.3633 36.5039 20.6836 39.8242 24.9023 39.8242ZM0 0.390625L0 34.6094L14.8828 34.6094C14.7461 33.8477 14.6484 33.0859 14.6484 32.2852C14.6484 26.5625 19.1602 22.0508 24.9023 22.0508C30.6445 22.0508 35.1562 26.5625 35.1562 32.2852C35.1562 33.0859 35.0586 33.8477 34.9023 34.6094L36.543 34.6094C41.8164 34.6094 44.2383 32.0508 44.2383 26.4844L44.2383 19.5117C44.2383 14.9805 42.0703 12.2266 37.4023 10.6836L33.3789 9.33594C27.9688 4.84375 21.3281 0 11.8945 0L8.26172 0C5 0 2.30469 0.0976562 0 0.390625ZM41.5039 29.9805L40.9961 32.832L55.0195 32.832C55.8008 32.832 56.4062 32.168 56.4062 31.3867C56.4062 30.6055 55.8008 29.9805 55.0195 29.9805ZM49.1406 27.1289L53.2227 27.1289C53.457 27.1289 53.7109 27.0703 53.9258 26.9141C55.0195 26.0352 55.7422 24.7266 55.7422 23.2422C55.7422 20.7812 53.6914 18.6914 51.1719 18.6914C48.6719 18.6914 46.6016 20.7812 46.6016 23.2422C46.6016 24.7266 47.3438 26.0352 48.418 26.9141C48.6328 27.0703 48.9062 27.1289 49.1406 27.1289ZM51.1719 36.1328C52.0508 36.1328 52.7148 35.4297 52.7148 34.5703L52.7148 26.9727L49.5898 26.9727L49.5898 34.5703C49.5898 35.4297 50.3125 36.1328 51.1719 36.1328Z" fill="black" fill-opacity="0.85"/>
 </g>
</svg>
