<?xml version="1.0" encoding="UTF-8"?>
<!--Generator: Apple Native CoreSVG 326-->
<!DOCTYPE svg
PUBLIC "-//W3C//DTD SVG 1.1//EN"
       "http://www.w3.org/Graphics/SVG/1.1/DTD/svg11.dtd">
<svg version="1.1" xmlns="http://www.w3.org/2000/svg" xmlns:xlink="http://www.w3.org/1999/xlink" viewBox="0 0 79.9569 61.3919">
 <g>
  <rect height="61.3919" opacity="0" width="79.9569" x="0" y="0"/>
  <path d="M8.04485 60.237C8.55267 61.0768 9.60735 61.3307 10.4081 60.901L74.9199 23.694C75.7011 23.2253 75.9941 22.1901 75.5449 21.3698C75.037 20.5104 73.9628 20.237 73.1816 20.7057L8.66985 57.9128C7.8886 58.3425 7.59564 59.4167 8.04485 60.237ZM11.1308 47.1315L13.6308 45.6667L12.2441 43.2448L9.72454 44.6901C7.71282 45.862 6.16985 45.3737 4.88079 43.1471L3.59173 40.9206C2.02923 38.2253 2.8886 35.0612 6.0722 32.6784L12.6933 27.6979C13.7089 26.9362 14.1972 26.3503 14.6659 25.4909L18.8261 17.6198C21.3066 12.9323 23.5722 10.8229 30.1738 7.01433L32.7128 5.52995C37.498 2.77605 42.205 2.36589 49.1191 3.73308C50.2909 3.96745 50.7792 3.88933 51.8925 3.65495L54.2363 3.14714C56.7558 2.60027 58.3183 3.12761 59.4706 5.10027L62.2831 10.0026C63.5722 12.2292 63.2402 13.8112 61.2089 14.9635L58.6503 16.4479L60.0566 18.8698L62.6152 17.405C66.3066 15.2565 66.9706 12.5026 64.7245 8.59636L61.8925 3.69402C60.0566 0.510422 57.4394-0.544265 53.5136 0.256516L50.1542 0.959641C44.4902-0.0950463 37.9277-0.700515 31.3261 3.10808L28.7675 4.57292C21.6972 8.65495 19.0214 11.155 16.3066 16.2917L11.7558 24.905L4.39251 30.4518C0.0175108 33.7526-1.15436 38.3034 1.16985 42.3073L2.49798 44.6315C4.72454 48.4792 7.45892 49.2409 11.1308 47.1315ZM22.9667 40.276L50.955 24.1237L49.5488 21.7018L21.58 37.8542ZM20.662 46.6823C24.0605 44.7292 25.1738 40.53 23.2206 37.1315C21.248 33.7526 17.0683 32.6198 13.6699 34.5925C10.2714 36.5456 9.15814 40.7253 11.1113 44.1237C13.0839 47.5221 17.2636 48.6354 20.662 46.6823ZM19.3339 44.3971C17.2441 45.6081 14.6269 44.905 13.4159 42.7956C12.1855 40.7057 12.8886 38.0885 14.998 36.8776C17.1074 35.6667 19.7245 36.3698 20.9355 38.4596C22.1464 40.569 21.4433 43.1862 19.3339 44.3971ZM57.4589 25.4323C60.8574 23.4792 61.9902 19.28 60.0175 15.901C58.0644 12.5026 53.8847 11.3698 50.4863 13.3425C47.0878 15.2956 45.955 19.4753 47.9277 22.8737C49.8808 26.2721 54.0605 27.3854 57.4589 25.4323ZM56.1503 23.1471C54.0409 24.3581 51.4238 23.655 50.2128 21.5456C49.0019 19.4557 49.705 16.8385 51.7949 15.6276C53.9042 14.4167 56.5214 15.1198 57.7324 17.2096C58.9433 19.319 58.2402 21.9362 56.1503 23.1471Z" fill="black" fill-opacity="0.85"/>
  <path d="M49.0019 61.155C49.7831 61.155 50.2909 60.6471 50.2909 59.8464L50.2909 54.0456L54.5488 54.0456L54.5488 59.8464C54.5488 60.6471 55.0566 61.155 55.8378 61.155C56.6191 61.155 57.1269 60.6471 57.1269 59.8464L57.1269 46.3893C57.1269 45.6081 56.6191 45.1003 55.8378 45.1003C55.0566 45.1003 54.5488 45.6081 54.5488 46.3893L54.5488 51.8971L50.2909 51.8971L50.2909 46.3893C50.2909 45.6081 49.7831 45.1003 49.0019 45.1003C48.2402 45.1003 47.7519 45.6081 47.7519 46.3893L47.7519 59.8464C47.7519 60.6471 48.2402 61.155 49.0019 61.155ZM60.5839 61.155L63.3378 61.155C67.3808 61.155 68.7284 57.1315 68.7284 53.0885C68.7284 48.7135 67.205 45.1003 63.3378 45.1003L60.5839 45.1003C59.8417 45.1003 59.2949 45.5495 59.2949 46.4284L59.2949 59.8268C59.2949 60.7057 59.8417 61.155 60.5839 61.155ZM61.8144 58.987L61.8144 47.2682L63.0253 47.2682C65.623 47.2682 66.1308 50.5104 66.1308 53.0885C66.1308 55.7057 65.662 58.987 63.0253 58.987ZM75.2714 61.2917C76.8925 61.2917 78.0253 60.4714 78.748 59.2409C79.1972 58.5182 79.5878 57.3464 79.5878 56.5456C79.5878 55.8425 79.0995 55.3932 78.3964 55.3932C77.83 55.3932 77.4003 55.7839 77.2636 56.4089C76.9706 57.9518 76.5409 59.026 75.1933 59.026C73.5331 59.026 72.8105 56.5065 72.8105 53.1081C72.8105 49.3581 73.7675 47.1901 75.1933 47.1901C76.4238 47.1901 77.0097 48.4206 77.2245 49.8268C77.3222 50.5104 77.7909 50.9206 78.455 50.9206C79.1386 50.9206 79.5292 50.4128 79.5292 49.7292C79.5292 48.8112 79.0995 47.4245 78.3378 46.526C77.5566 45.5495 76.4628 44.944 75.1738 44.944C72.9863 44.944 71.6972 46.4479 71.0136 48.1667C70.3886 49.6706 70.2324 51.3698 70.2324 53.1081C70.2324 55.1393 70.4277 57.1706 71.3456 58.8698C72.205 60.4128 73.4745 61.2917 75.2714 61.2917Z" fill="black" fill-opacity="0.85"/>
 </g>
</svg>
