<?xml version="1.0" encoding="UTF-8"?>
<!--Generator: Apple Native CoreSVG 326-->
<!DOCTYPE svg
PUBLIC "-//W3C//DTD SVG 1.1//EN"
       "http://www.w3.org/Graphics/SVG/1.1/DTD/svg11.dtd">
<svg version="1.1" xmlns="http://www.w3.org/2000/svg" xmlns:xlink="http://www.w3.org/1999/xlink" viewBox="0 0 67.7148 60.5481">
 <g>
  <rect height="60.5481" opacity="0" width="67.7148" x="0" y="0"/>
  <path d="M67.3438 27.3151L67.3438 23.7213C66.3672 24.2096 65.3906 24.7369 64.375 25.401L55.1562 31.1823L44.9805 32.4323C38.9258 33.1744 35.2539 36.9049 35.2539 42.0612L35.2539 45.0494C35.2539 50.0104 37.4609 52.2565 42.207 52.2565L45.4297 52.2565L45.4297 49.151L42.207 49.151C39.5898 49.151 38.3789 47.8229 38.3789 44.9323L38.3789 42.0612C38.3789 38.6237 40.957 36.0455 45.3711 35.4987L54.5117 34.4049C55.9375 34.2291 56.7383 33.9362 57.6562 33.3698L66.0547 28.0768C66.4844 27.8034 66.9141 27.5494 67.3438 27.3151ZM67.3438 52.2565L67.3438 49.151L57.4609 49.151L57.4609 52.2565ZM51.6406 57.1588C56.0156 57.1588 59.4336 53.7409 59.4336 49.3659C59.4336 45.0104 56.0156 41.5924 51.6406 41.5924C47.2656 41.5924 43.8672 45.0104 43.8672 49.3659C43.8672 53.7409 47.2656 57.1588 51.6406 57.1588ZM51.6406 54.2096C48.9453 54.2096 46.7969 52.0807 46.7969 49.3659C46.7969 46.6705 48.9453 44.5416 51.6406 44.5416C54.3555 44.5416 56.5039 46.6705 56.5039 49.3659C56.5039 52.0807 54.3555 54.2096 51.6406 54.2096ZM13.4375 57.1588C17.8125 57.1588 21.2109 53.7409 21.2109 49.3659C21.2109 45.0104 17.8125 41.5924 13.4375 41.5924C9.0625 41.5924 5.64453 45.0104 5.64453 49.3659C5.64453 53.7409 9.0625 57.1588 13.4375 57.1588ZM13.4375 54.2096C10.7227 54.2096 8.57422 52.0807 8.57422 49.3659C8.57422 46.6705 10.7227 44.5416 13.4375 44.5416C16.1328 44.5416 18.2812 46.6705 18.2812 49.3659C18.2812 52.0807 16.1328 54.2096 13.4375 54.2096ZM0 49.151L0 52.2565L7.87109 52.2565L7.87109 49.151ZM19.6094 52.2565L22.8711 52.2565C27.6562 52.2565 29.8047 49.9909 29.8047 44.9323L29.8047 38.6432C29.8047 34.5612 27.8906 32.0221 23.6523 30.6744L20.0195 29.5221C14.9414 25.1862 9.19922 21.0651 1.42578 21.0651L0 21.0651L0 24.1901L1.42578 24.1901C7.1875 24.1901 11.7969 26.5729 17.4609 31.5534C18.4766 32.4323 18.9844 32.6471 20.1953 33.0182L22.7344 33.8385C25.4883 34.7174 26.6992 36.1237 26.6992 38.6432L26.6992 44.9323C26.6992 47.8229 25.4883 49.151 22.8711 49.151L19.6094 49.151Z" fill="black" fill-opacity="0.85"/>
  <path d="M35.7031 10.2252C32.5586 14.8737 30.8984 20.2838 30.9766 25.5963C31.0352 26.4948 31.6797 27.1198 32.5 27.1198C33.3398 27.0807 33.9453 26.4166 33.9258 25.5182C33.8281 20.9479 35.2734 16.0846 38.125 11.8854C40.9766 7.6471 44.9219 4.46351 49.2188 2.90101C50.0391 2.56898 50.4492 1.74866 50.1562 0.928352C49.8438 0.127571 49.0039-0.184929 48.1445 0.10804C43.2031 2.06116 38.8281 5.61585 35.7031 10.2252Z" fill="black" fill-opacity="0.85"/>
  <path d="M42.0312 14.5416C39.707 17.9596 38.5352 21.8463 38.6523 25.6159C38.7109 26.4948 39.3555 27.0807 40.1758 27.1002C40.9766 27.0807 41.6406 26.4362 41.6406 25.5182C41.5234 22.4323 42.5391 19.1315 44.5117 16.1627C46.4844 13.2526 49.1797 11.0651 52.0898 10.0104C52.9297 9.67835 53.2812 8.83851 53.0078 8.09632C52.6953 7.29554 51.875 6.94398 51.0547 7.23695C47.5781 8.46741 44.3945 11.0651 42.0312 14.5416Z" fill="black" fill-opacity="0.85"/>
  <path d="M48.3789 18.7994C46.9531 20.9088 46.1914 23.4479 46.3281 25.5963C46.3086 26.4362 46.9922 27.1002 47.8125 27.0807C48.75 27.0807 49.3359 26.3385 49.3164 25.401C49.2383 23.8385 49.8242 22.0026 50.8594 20.4596C51.9336 18.8971 53.3984 17.6862 54.8633 17.1979C55.7422 16.8659 56.2109 16.026 55.8984 15.1276C55.5664 14.4049 54.7266 14.0534 53.9258 14.3268C51.8164 15.069 49.7852 16.7291 48.3789 18.7994Z" fill="black" fill-opacity="0.85"/>
 </g>
</svg>
