<?xml version="1.0" encoding="UTF-8"?>
<!--Generator: Apple Native CoreSVG 326-->
<!DOCTYPE svg
PUBLIC "-//W3C//DTD SVG 1.1//EN"
       "http://www.w3.org/Graphics/SVG/1.1/DTD/svg11.dtd">
<svg version="1.1" xmlns="http://www.w3.org/2000/svg" xmlns:xlink="http://www.w3.org/1999/xlink" viewBox="0 0 89.1406 73.2617">
 <g>
  <rect height="73.2617" opacity="0" width="89.1406" x="0" y="0"/>
  <path d="M26.8555 48.8867C26.8555 53.1055 23.5547 56.4258 19.3359 56.4258C15.0977 56.4258 11.7969 53.1055 11.7969 48.8867C11.7969 44.668 15.0977 41.3672 19.3359 41.3672C23.5547 41.3672 26.8555 44.668 26.8555 48.8867ZM76.9727 48.8867C76.9727 53.1055 73.6719 56.4258 69.4336 56.4258C65.2148 56.4258 61.8945 53.1055 61.8945 48.8867C61.8945 44.668 65.2148 41.3672 69.4336 41.3672C73.6719 41.3672 76.9727 44.668 76.9727 48.8867ZM77.9102 25.9375L81.9336 27.2852C86.6211 28.8281 88.7695 31.582 88.7695 36.1133L88.7695 43.0859C88.7695 48.6523 86.3477 51.2109 81.0742 51.2109L79.4336 51.2109C79.6094 50.4492 79.707 49.6875 79.707 48.8867C79.707 43.1641 75.1758 38.6523 69.4336 38.6523C63.6914 38.6523 59.1797 43.1641 59.1797 48.8867C59.1797 49.6875 59.2773 50.4492 59.4336 51.2109L29.3164 51.2109C29.4922 50.4492 29.5898 49.6875 29.5898 48.8867C29.5898 43.1641 25.0781 38.6523 19.3359 38.6523C13.5742 38.6523 9.0625 43.1641 9.0625 48.8867C9.0625 49.6875 9.16016 50.4492 9.31641 51.2109L7.67578 51.2109C2.46094 51.2109 0 48.6914 0 43.2031L0 39.9219C0 34.1797 4.0625 30.0586 10.7617 29.2188L22.0508 27.832L32.2656 21.4453C33.7059 20.5393 35.0533 19.7903 36.4063 19.1792L36.4062 21.9531C36.4062 25.8594 38.8477 28.3398 42.6172 28.3398L54.043 28.3398C57.832 28.3398 60.2539 25.8594 60.2539 21.9531L60.2539 16.8839C67.7042 17.958 73.2614 22.0775 77.9102 25.9375Z" fill="black" fill-opacity="0.85"/>
  <path d="M42.6172 25.2148L54.043 25.2148C56.0938 25.2148 57.1484 24.1406 57.1484 21.9531L57.1484 12.9492C57.1484 10.7422 56.0938 9.6875 54.043 9.6875L42.6172 9.6875C40.5664 9.6875 39.5117 10.7422 39.5117 12.9492L39.5117 21.9531C39.5117 24.1406 40.5664 25.2148 42.6172 25.2148ZM41.7773 11.6211L44.2188 11.6211L44.2188 6.79688C44.2188 4.12109 45.8203 2.42188 48.3398 2.42188C50.8398 2.42188 52.4805 4.12109 52.4805 6.79688L52.4805 11.6211L54.8828 11.6211L54.8828 7.12891C54.8828 2.77344 52.3242 0 48.3398 0C44.3555 0 41.7773 2.77344 41.7773 7.12891Z" fill="black" fill-opacity="0.85"/>
 </g>
</svg>
