<?xml version="1.0" encoding="UTF-8"?>
<!--Generator: Apple Native CoreSVG 326-->
<!DOCTYPE svg
PUBLIC "-//W3C//DTD SVG 1.1//EN"
       "http://www.w3.org/Graphics/SVG/1.1/DTD/svg11.dtd">
<svg version="1.1" xmlns="http://www.w3.org/2000/svg" xmlns:xlink="http://www.w3.org/1999/xlink" viewBox="0 0 89.4416 75.0195">
 <g>
  <rect height="75.0195" opacity="0" width="89.4416" x="0" y="0"/>
  <path d="M26.2247 31.1914L13.7247 61.5039C13.3146 62.5 12.67 63.1055 11.3614 63.1055L8.09973 63.1055C6.42004 63.1055 6.00988 61.8164 6.57629 60.6836L21.5568 30.8594C21.8888 30.1953 22.3575 29.8633 23.0802 29.8633L25.4435 29.8633C26.1661 29.8633 26.5177 30.4492 26.2247 31.1914ZM67.2599 30.8789L69.6685 35.6741C69.4814 35.6474 69.2889 35.6445 69.0958 35.6445C67.5664 35.6445 66.0745 35.8244 64.647 36.1823L62.5919 31.2109C62.2989 30.4688 62.6505 29.9023 63.3927 29.9023L65.7364 29.9023C66.4786 29.9023 66.9279 30.2148 67.2599 30.8789Z" fill="black" fill-opacity="0.85"/>
  <path d="M49.8885 51.1719L21.0099 51.1719L22.4161 47.6172L51.0314 47.6172C50.5362 48.7501 50.1492 49.9387 49.8885 51.1719Z" fill="black" fill-opacity="0.85"/>
  <path d="M52.2467 45.293L23.3341 45.293L24.7599 41.7188L54.9776 41.7188C53.9259 42.7903 53.0051 43.9885 52.2467 45.293Z" fill="black" fill-opacity="0.85"/>
  <path d="M62.1236 36.9673C60.5484 37.553 59.0755 38.3548 57.7375 39.3359L25.7169 39.3359L27.1232 35.7812L61.6544 35.7812Z" fill="black" fill-opacity="0.85"/>
  <path d="M50.795 12.0117C52.4357 12.207 53.6857 13.0273 54.3693 14.9609L55.6388 18.5938L56.8107 19.9219C57.963 21.2109 58.295 22.3633 58.295 24.3945L58.295 32.1094C58.295 32.9688 57.631 33.6523 56.7521 33.6523L55.3654 33.6523C54.4864 33.6523 53.8224 32.9688 53.8224 32.1094L53.8224 30.4688L34.9552 30.4688L34.9552 32.1094C34.9552 32.9688 34.2716 33.6523 33.3927 33.6523L32.0255 33.6523C31.1466 33.6523 30.463 32.9688 30.463 32.1094L30.463 24.3945C30.463 22.3633 30.8146 21.2109 31.9669 19.9219L33.1193 18.5938L34.3888 14.9609C35.0724 13.0273 36.3419 12.207 37.9825 12.0117C38.7833 11.9141 41.42 11.8555 44.3888 11.8555C47.3575 11.8555 49.9943 11.9141 50.795 12.0117ZM33.4318 22.8711L33.4318 24.7461C33.4318 25.4492 33.9396 25.9375 34.6232 25.9375C35.3263 25.9375 35.8146 25.4492 35.8146 24.7461L35.8146 22.8711C35.8146 22.168 35.3263 21.6797 34.6232 21.6797C33.9396 21.6797 33.4318 22.1875 33.4318 22.8711ZM53.0411 22.8711L53.0411 24.7461C53.0411 25.4297 53.5489 25.9375 54.2325 25.9375C54.9357 25.9375 55.4239 25.4492 55.4239 24.7461L55.4239 22.8711C55.4239 22.168 54.9357 21.6797 54.2325 21.6797C53.5489 21.6797 53.0411 22.1875 53.0411 22.8711ZM41.6544 22.2266C41.1075 22.2266 40.756 22.5781 40.756 23.1641L40.756 24.4531C40.756 25.0586 41.1075 25.4102 41.6544 25.4102L47.045 25.4102C47.6114 25.4102 47.963 25.0586 47.963 24.4531L47.963 23.1641C47.963 22.5781 47.6114 22.2266 47.045 22.2266ZM37.9825 14.0234C37.1622 14.1406 36.6935 14.4531 36.381 15.3711L35.6388 17.5586C35.463 18.0859 35.6583 18.4961 36.2052 18.4961L52.5529 18.4961C53.0997 18.4961 53.295 18.0859 53.1193 17.5586L52.3771 15.3711C52.0646 14.4531 51.5958 14.1406 50.7755 14.0234C49.9161 13.9062 47.7482 13.8281 44.3888 13.8281C41.0099 13.8281 38.8419 13.9062 37.9825 14.0234Z" fill="black" fill-opacity="0.85"/>
  <path d="M85.6193 55.332C85.6193 46.2695 78.1193 38.75 69.0958 38.75C60.0529 38.75 52.5333 46.2695 52.5333 55.332C52.5333 59.6094 54.213 63.5547 56.9669 66.5234C57.67 67.3047 58.9396 67.4805 59.8966 66.543L62.3966 64.0625C62.963 63.5156 62.963 62.5781 62.3966 62.0312C61.8302 61.4648 60.9122 61.4844 60.3654 62.0312L58.5489 63.8477C56.6544 61.5234 55.5216 58.5938 55.5216 55.332C55.5216 47.7344 61.5177 41.7383 69.0958 41.7383C76.6739 41.7383 82.631 47.7344 82.631 55.332C82.631 58.5938 81.5177 61.5234 79.6036 63.8477L77.7872 62.0312C77.2404 61.4844 76.3419 61.4648 75.7755 62.0312C75.2286 62.5781 75.2091 63.5156 75.7755 64.0625L78.256 66.543C79.213 67.5 80.5021 67.2852 81.2052 66.5039C83.9396 63.5547 85.6193 59.6094 85.6193 55.332ZM58.3341 53.8867L53.881 53.8867L53.881 56.7383L58.3341 56.7383C59.0958 56.7383 59.7794 56.0742 59.7794 55.332C59.7794 54.5312 59.0958 53.8867 58.3341 53.8867ZM79.7794 53.8867C79.0177 53.8867 78.3732 54.5312 78.3732 55.332C78.3732 56.0742 79.0177 56.7383 79.7794 56.7383L84.2325 56.7383L84.2325 53.8867ZM67.6505 44.5898C67.6505 45.3516 68.3146 46.0156 69.0958 46.0156C69.838 46.0156 70.5021 45.3516 70.5021 44.5898L70.5021 40.1367L67.6505 40.1367ZM62.5724 46.7773L59.4083 43.6328L57.4161 45.6445L60.5411 48.7891C61.1075 49.3359 62.006 49.3359 62.5919 48.8086C63.1388 48.2422 63.1193 47.3438 62.5724 46.7773ZM84.6036 35.2539C84.0568 34.7266 83.4318 35.0391 83.3146 35.6641L82.1036 41.3477C81.9669 42.0117 82.4161 42.4414 83.0802 42.3047L88.7638 41.1328C89.3888 40.9961 89.7013 40.3906 89.1739 39.8633ZM67.006 57.3438C68.0411 58.3594 69.5646 58.3594 70.5997 57.3242C70.795 57.1289 71.1075 56.6992 71.2638 56.4648L76.7521 48.6719C77.0255 48.2812 76.9474 47.8906 76.6935 47.6367C76.4396 47.4023 76.0685 47.3633 75.6583 47.6172L67.8068 53.1445C67.5724 53.3203 67.2013 53.5742 67.006 53.75C66.0099 54.7852 66.0099 56.3086 67.006 57.3438Z" fill="black" fill-opacity="0.85"/>
 </g>
</svg>
