<?xml version="1.0" encoding="UTF-8"?>
<!--Generator: Apple Native CoreSVG 326-->
<!DOCTYPE svg
PUBLIC "-//W3C//DTD SVG 1.1//EN"
       "http://www.w3.org/Graphics/SVG/1.1/DTD/svg11.dtd">
<svg version="1.1" xmlns="http://www.w3.org/2000/svg" xmlns:xlink="http://www.w3.org/1999/xlink" viewBox="0 0 48.5352 59.3164">
 <g>
  <rect height="59.3164" opacity="0" width="48.5352" x="0" y="0"/>
  <path d="M24.082 3.49609C29.6094 3.49609 34.5898 5.48828 38.3594 8.96484C39.2383 9.74609 40.2344 9.96094 41.0156 9.27734C41.8164 8.57422 41.8164 7.38281 40.918 6.5625C36.4844 2.40234 30.5273 0 24.082 0C17.6367 0 11.6797 2.40234 7.24609 6.5625C6.34766 7.38281 6.34766 8.57422 7.14844 9.27734C7.91016 9.96094 8.92578 9.74609 9.80469 8.96484C13.5742 5.48828 18.5547 3.49609 24.082 3.49609Z" fill="black" fill-opacity="0.85"/>
  <path d="M24.082 13.4961C26.8164 13.4961 29.3555 14.3164 31.25 15.957C32.168 16.6406 33.1445 16.9336 33.9062 16.25C34.707 15.5469 34.7266 14.2578 33.7695 13.4961C31.1328 11.2695 27.7344 10 24.082 10C20.4297 10 17.0312 11.2695 14.3945 13.4961C13.4375 14.2578 13.457 15.5469 14.2578 16.25C15.0195 16.9336 15.9961 16.6406 16.9141 15.957C18.9062 14.4141 21.3477 13.4961 24.082 13.4961Z" fill="black" fill-opacity="0.85"/>
  <path d="M0 56.4844C0 58.0469 1.25 59.3164 2.85156 59.3164L5.23438 59.3164C6.81641 59.3164 8.06641 58.0469 8.06641 56.4844L8.06641 53.8672L40.0977 53.8672L40.0977 56.4844C40.0977 58.0469 41.3477 59.3164 42.9297 59.3164L45.3125 59.3164C46.9141 59.3164 48.1641 58.0469 48.1641 56.4844L48.1641 43.3203C48.1641 39.8047 47.5977 37.7734 45.5664 35.4883L43.5938 33.2617L41.4062 27.0703C40.2148 23.6523 37.9688 22.1875 35.1172 21.875C33.7305 21.6992 29.1797 21.582 24.082 21.582C18.9844 21.582 14.4336 21.6992 13.0469 21.875C10.1953 22.1875 7.94922 23.6523 6.75781 27.0703L4.57031 33.2617L2.59766 35.4883C0.566406 37.7734 0 39.8047 0 43.3203ZM10.0391 32.9883C9.23828 32.9883 8.98438 32.4609 9.25781 31.6602L10.5469 27.9102C11.0547 26.4062 11.7578 25.918 13.1055 25.7227C14.5703 25.5273 18.3008 25.3711 24.082 25.3711C29.8633 25.3711 33.5742 25.5273 35.0391 25.7227C36.3867 25.918 37.1094 26.4062 37.6172 27.9102L38.9062 31.6602C39.1797 32.4609 38.9062 32.9883 38.1055 32.9883ZM7.34375 45.8008C6.21094 45.8008 5.46875 45.0391 5.46875 43.9453L5.46875 40.6836C5.46875 39.6094 6.21094 38.8672 7.34375 38.8672C8.45703 38.8672 9.17969 39.5898 9.17969 40.6836L9.17969 43.9453C9.17969 45.0586 8.45703 45.8008 7.34375 45.8008ZM19.375 44.8633C18.5156 44.8633 18.0469 44.375 18.0469 43.418L18.0469 41.1914C18.0469 40.2734 18.5156 39.7852 19.375 39.7852L28.6719 39.7852C29.5312 39.7852 30.0391 40.2734 30.0391 41.1914L30.0391 43.418C30.0391 44.375 29.5312 44.8633 28.6719 44.8633ZM40.9766 45.8008C39.9023 45.8008 39.1406 45.0391 39.1406 43.9453L39.1406 40.6836C39.1406 39.6094 39.9023 38.8672 40.9766 38.8672C42.1094 38.8672 42.8516 39.5898 42.8516 40.6836L42.8516 43.9453C42.8516 45.0586 42.1094 45.8008 40.9766 45.8008Z" fill="black" fill-opacity="0.85"/>
 </g>
</svg>
