<?xml version="1.0" encoding="UTF-8"?>
<!--Generator: Apple Native CoreSVG 326-->
<!DOCTYPE svg
PUBLIC "-//W3C//DTD SVG 1.1//EN"
       "http://www.w3.org/Graphics/SVG/1.1/DTD/svg11.dtd">
<svg version="1.1" xmlns="http://www.w3.org/2000/svg" xmlns:xlink="http://www.w3.org/1999/xlink" viewBox="0 0 58.2617 66.3086">
 <g>
  <rect height="66.3086" opacity="0" width="58.2617" x="0" y="0"/>
  <path d="M34.1602 66.2695L36.8945 66.2695L36.8945 53.3398C36.8945 50.6836 39.6094 49.1602 44.7852 49.1602C49.9609 49.1602 52.7539 50.6836 52.7539 53.3398L52.7539 66.2695L55.4883 66.2695L55.4883 53.3398C55.4883 48.9844 51.4453 46.4453 44.7852 46.4453C38.1445 46.4453 34.1602 48.9844 34.1602 53.3398ZM44.7852 62.5195C46.1133 62.5195 48.457 62.6562 49.1797 62.6562C50.3906 62.6562 50.957 62.1484 51.0742 60.8789L51.3086 58.2031C51.5039 55.9766 50.1172 55.0195 44.7852 55.0195C39.4922 55.0195 38.1445 55.9766 38.3203 58.2031L38.5352 60.8789C38.6523 62.1484 39.2188 62.6562 40.4297 62.6562C41.1523 62.6562 43.3203 62.5195 44.7852 62.5195ZM35.7227 61.4062L35.7227 57.5586L33.3984 57.5586C32.4414 57.5586 31.7578 58.2422 31.7578 59.1211L31.7578 59.8828C31.7578 60.7422 32.4414 61.4062 33.3984 61.4062ZM53.9258 61.4062L56.25 61.4062C57.168 61.4062 57.8906 60.7422 57.8906 59.8828L57.8906 59.1211C57.8906 58.2227 57.168 57.5586 56.25 57.5586L53.9258 57.5586Z" fill="black" fill-opacity="0.85"/>
  <path d="M32.6367 45.2148C35.625 42.2461 37.207 38.4375 37.4023 34.2969C37.4609 33.3398 36.8164 32.832 36.1328 32.832C35.293 32.832 34.8242 33.2812 34.7461 34.375C34.5898 37.6953 33.2617 40.8594 30.7812 43.3594C28.2812 45.8203 25.1172 47.1484 21.8164 47.2852C20.8203 47.3828 20.2539 47.8906 20.2539 48.6133C20.2539 49.4336 20.8203 50 21.7383 50C25.8398 50 29.668 48.2031 32.6367 45.2148Z" fill="black" fill-opacity="0.85"/>
  <path d="M27.8516 40.4102C29.5703 38.7305 30.5664 36.582 30.7617 34.2383C30.8594 33.2812 30.2344 32.6758 29.4922 32.7148C28.6133 32.6953 28.2422 33.1641 28.1055 34.1016C27.9297 35.8008 27.2461 37.2852 25.9961 38.5742C24.707 39.8438 23.2422 40.5078 21.6797 40.6641C20.625 40.7812 20.1172 41.3086 20.1172 42.0508C20.0977 42.793 20.6445 43.3398 21.4844 43.3398C23.3008 43.3398 25.918 42.3438 27.8516 40.4102Z" fill="black" fill-opacity="0.85"/>
  <path d="M13.0664 38.1641C20.332 38.1641 23.75 36.4453 23.75 32.2461L23.75 6.93359C23.75 2.55859 19.7266 0 13.0664 0C6.40625 0 2.40234 2.55859 2.40234 6.93359L2.40234 32.2461C2.40234 36.4453 5.80078 38.1641 13.0664 38.1641ZM13.0664 35.4297C7.46094 35.4297 5.15625 34.4922 5.15625 32.168L5.15625 6.93359C5.15625 4.25781 7.87109 2.75391 13.0664 2.75391C18.2422 2.75391 21.0156 4.25781 21.0156 6.93359L21.0156 32.168C21.0156 34.4922 18.6523 35.4297 13.0664 35.4297ZM13.0664 16.1133C14.3945 16.1133 16.7188 16.25 17.4609 16.25C18.6719 16.25 19.2383 15.7617 19.3555 14.4727L19.5898 11.8164C19.7656 9.57031 18.3984 8.61328 13.0664 8.61328C7.77344 8.61328 6.36719 9.57031 6.58203 11.8164L6.79688 14.4727C6.89453 15.7617 7.48047 16.25 8.67188 16.25C9.43359 16.25 11.6016 16.1133 13.0664 16.1133ZM13.0664 32.0312C18.2031 32.0312 19.7852 31.2695 19.4922 28.9453L19.3164 27.5977C19.0625 25.7031 17.5586 25.0977 13.0664 25.0977C8.59375 25.0977 7.10938 25.7031 6.83594 27.5977L6.64062 28.9453C6.30859 31.25 7.94922 32.0312 13.0664 32.0312ZM3.96484 15.0195L3.96484 11.1328L1.64062 11.1328C0.683594 11.1328 0 11.8359 0 12.7148L0 13.4766C0 14.3359 0.683594 15.0195 1.64062 15.0195ZM22.1875 15.0195L24.5312 15.0195C25.4492 15.0195 26.1719 14.3359 26.1719 13.4766L26.1719 12.7148C26.1719 11.8359 25.4492 11.1328 24.5312 11.1328L22.1875 11.1328Z" fill="black" fill-opacity="0.85"/>
 </g>
</svg>
