<?xml version="1.0" encoding="UTF-8"?>
<!--Generator: Apple Native CoreSVG 326-->
<!DOCTYPE svg
PUBLIC "-//W3C//DTD SVG 1.1//EN"
       "http://www.w3.org/Graphics/SVG/1.1/DTD/svg11.dtd">
<svg version="1.1" xmlns="http://www.w3.org/2000/svg" xmlns:xlink="http://www.w3.org/1999/xlink" viewBox="0 0 44.6484 40.0586">
 <g>
  <rect height="40.0586" opacity="0" width="44.6484" x="0" y="0"/>
  <path d="M0 0.390625L0 3.86719C2.26562 3.57422 4.90234 3.47656 8.32031 3.47656L11.9336 3.47656C18.7695 3.47656 24.043 5.91797 30.5859 11.6602C31.6992 12.6172 32.2852 12.8516 33.6133 13.2812L36.4258 14.1797C39.4727 15.1758 40.8008 16.6992 40.8008 19.5117L40.8008 26.4844C40.8008 29.668 39.4727 31.1328 36.582 31.1328L32.9492 31.1328L32.9492 34.6094L36.582 34.6094C41.8555 34.6094 44.2773 32.0508 44.2773 26.4844L44.2773 19.5117C44.2773 14.9805 42.1094 12.2266 37.4414 10.6836L33.418 9.33594C28.0078 4.84375 21.3672 0 11.9336 0L8.32031 0C5.01953 0 2.34375 0.0976562 0 0.390625ZM0 31.1328L0 34.6094L19.9609 34.6094L19.9609 31.1328ZM26.1133 40.0195C30.957 40.0195 34.7461 36.2305 34.7461 31.3867C34.7461 26.543 30.957 22.7734 26.1133 22.7734C21.2695 22.7734 17.5 26.543 17.5 31.3867C17.5 36.2305 21.2695 40.0195 26.1133 40.0195ZM26.1133 36.7578C23.125 36.7578 20.7617 34.3945 20.7617 31.3867C20.7617 28.3984 23.125 26.0352 26.1133 26.0352C29.1211 26.0352 31.4844 28.3984 31.4844 31.3867C31.4844 34.3945 29.1211 36.7578 26.1133 36.7578Z" fill="black" fill-opacity="0.85"/>
  <path d="M13.1445 15.6641C13.6914 16.2891 14.4141 16.2695 14.9414 15.6641L19.1406 10.8398C19.9023 9.96094 19.4141 8.80859 18.2812 8.80859L9.84375 8.80859C8.67188 8.80859 8.24219 10.0195 8.96484 10.8398ZM9.84375 20.3516L26.1133 20.3516C26.8164 20.3516 27.3633 19.8047 27.3633 19.1016C27.3633 18.418 26.8164 17.8711 26.1133 17.8711L9.84375 17.8711C9.14062 17.8711 8.59375 18.418 8.59375 19.1016C8.59375 19.8047 9.14062 20.3516 9.84375 20.3516Z" fill="black" fill-opacity="0.85"/>
 </g>
</svg>
