<?xml version="1.0" encoding="UTF-8"?>
<!--Generator: Apple Native CoreSVG 326-->
<!DOCTYPE svg
PUBLIC "-//W3C//DTD SVG 1.1//EN"
       "http://www.w3.org/Graphics/SVG/1.1/DTD/svg11.dtd">
<svg version="1.1" xmlns="http://www.w3.org/2000/svg" xmlns:xlink="http://www.w3.org/1999/xlink" viewBox="0 0 89.1406 40.0586">
 <g>
  <rect height="40.0586" opacity="0" width="89.1406" x="0" y="0"/>
  <path d="M1.62109 3.26172L9.74609 3.26172C10.7812 3.26172 11.4648 3.49609 12.0898 4.12109L20.9375 12.9688L23.9062 11.3281L14.6289 2.05078C13.3008 0.703125 11.582 0.136719 9.39453 0.136719L1.62109 0.136719C0.625 0.136719 0 0.761719 0 1.67969C0 2.61719 0.625 3.26172 1.62109 3.26172ZM7.67578 34.6094L11.2695 34.6094L11.2695 31.1328L7.67578 31.1328C4.80469 31.1328 3.45703 29.668 3.45703 26.4844L3.45703 23.3203C3.45703 19.4727 6.30859 16.6211 11.2109 16.0352L21.3477 14.8047C22.8906 14.6094 23.7891 14.2773 24.8047 13.6523L34.1211 7.79297C39.668 4.31641 43.3984 3.47656 52.8125 3.47656L56.4453 3.47656C63.2617 3.47656 68.5352 5.91797 75.0977 11.6602C76.1914 12.6172 76.7773 12.8516 78.1055 13.2812L80.918 14.1797C83.9648 15.1758 85.3125 16.6992 85.3125 19.5117L85.3125 26.4844C85.3125 29.668 83.9648 31.1328 81.0742 31.1328L77.4414 31.1328L77.4414 34.6094L81.0742 34.6094C86.3477 34.6094 88.7695 32.0508 88.7695 26.4844L88.7695 19.5117C88.7695 14.9805 86.6211 12.2266 81.9336 10.6836L77.9102 9.33594C72.5 4.72656 65.8594 0 56.4453 0L52.8125 0C42.7344 0 38.3203 1.03516 32.2656 4.84375L22.0508 11.2305L10.7617 12.6172C4.0625 13.457 0 17.5781 0 23.3203L0 26.6016C0 32.0898 2.46094 34.6094 7.67578 34.6094ZM24.5703 34.6094L64.4727 34.6094L64.4727 31.1328L24.5703 31.1328ZM18.1445 40.0195C22.9883 40.0195 26.7773 36.2305 26.7773 31.3867C26.7773 26.543 22.9883 22.7734 18.1445 22.7734C13.3008 22.7734 9.53125 26.543 9.53125 31.3867C9.53125 36.2305 13.3008 40.0195 18.1445 40.0195ZM18.1445 36.7578C15.1562 36.7578 12.793 34.3945 12.793 31.3867C12.793 28.3984 15.1562 26.0352 18.1445 26.0352C21.1523 26.0352 23.5156 28.3984 23.5156 31.3867C23.5156 34.3945 21.1523 36.7578 18.1445 36.7578ZM70.625 40.0195C75.4492 40.0195 79.2383 36.2305 79.2383 31.3867C79.2383 26.543 75.4492 22.7734 70.625 22.7734C65.7812 22.7734 61.9922 26.543 61.9922 31.3867C61.9922 36.2305 65.7812 40.0195 70.625 40.0195ZM70.625 36.7578C67.6172 36.7578 65.2539 34.3945 65.2539 31.3867C65.2539 28.3984 67.6172 26.0352 70.625 26.0352C73.6133 26.0352 75.9766 28.3984 75.9766 31.3867C75.9766 34.3945 73.6133 36.7578 70.625 36.7578Z" fill="black" fill-opacity="0.85"/>
 </g>
</svg>
