<?xml version="1.0" encoding="UTF-8"?>
<!--Generator: Apple Native CoreSVG 326-->
<!DOCTYPE svg
PUBLIC "-//W3C//DTD SVG 1.1//EN"
       "http://www.w3.org/Graphics/SVG/1.1/DTD/svg11.dtd">
<svg version="1.1" xmlns="http://www.w3.org/2000/svg" xmlns:xlink="http://www.w3.org/1999/xlink" viewBox="0 0 50.0651 54.3555">
 <g>
  <rect height="54.3555" opacity="0" width="50.0651" x="0" y="0"/>
  <path d="M8.36264 27.793C8.36264 28.9844 9.30014 29.9023 10.5111 29.9023L12.3861 29.9023C13.597 29.9023 14.515 28.9844 14.515 27.793L14.515 25.5469L40.4134 25.5469L40.4134 27.793C40.4134 28.9844 41.3314 29.9023 42.5423 29.9023L44.4173 29.9023C45.6283 29.9023 46.5658 28.9844 46.5658 27.793L46.5658 17.207C46.5658 14.3945 46.1165 12.8125 44.515 11.0352L42.9134 9.23828L41.1751 4.23828C40.2572 1.60156 38.4994 0.488281 36.2533 0.214844C35.1595 0.078125 31.5462 0 27.4642 0C23.3822 0 19.7689 0.078125 18.6751 0.214844C16.429 0.488281 14.6712 1.60156 13.7533 4.23828L12.015 9.23828L10.4134 11.0352C8.79233 12.8125 8.36264 14.3945 8.36264 17.207ZM16.2533 9.12109C15.5111 9.12109 15.2572 8.55469 15.4915 7.83203L16.4876 4.82422C16.9173 3.59375 17.5619 3.14453 18.6751 2.98828C19.8275 2.85156 22.8353 2.73438 27.4642 2.73438C32.1126 2.73438 35.0619 2.85156 36.2337 2.98828C37.3275 3.14453 37.9915 3.61328 38.4017 4.82422L39.4369 7.83203C39.6908 8.55469 39.4173 9.12109 38.6556 9.12109ZM14.1048 19.3359C13.1283 19.3359 12.4251 18.6328 12.4251 17.6758L12.4251 15.0781C12.4251 14.1602 13.1283 13.4766 14.1048 13.4766C15.0228 13.4766 15.7259 14.1406 15.7259 15.0781L15.7259 17.6758C15.7259 18.6328 15.0228 19.3359 14.1048 19.3359ZM23.7142 18.5938C22.9525 18.5938 22.4837 18.0859 22.4837 17.2656L22.4837 15.5078C22.4837 14.707 22.9525 14.2188 23.7142 14.2188L31.1165 14.2188C31.8783 14.2188 32.3861 14.707 32.3861 15.5078L32.3861 17.2656C32.3861 18.0859 31.8783 18.5938 31.1165 18.5938ZM40.9603 19.3359C40.0423 19.3359 39.3197 18.6328 39.3197 17.6758L39.3197 15.0781C39.3197 14.1797 40.0423 13.4766 40.9603 13.4766C41.9173 13.4766 42.6205 14.1406 42.6205 15.0781L42.6205 17.6758C42.6205 18.6328 41.9173 19.3359 40.9603 19.3359ZM21.058 34.082L19.2025 32.6953C18.5189 32.1875 17.7572 31.9531 16.9173 31.9531L13.1283 31.9531C12.1517 31.9531 11.8001 33.125 12.5814 33.6914L16.2923 36.4258C17.4642 37.2656 17.308 38.3984 15.9603 38.9844L3.85092 44.2383C-0.817048 46.25-1.26627 49.2969 2.63998 52.168L4.49545 53.5352C5.17905 54.043 5.9603 54.2773 6.80014 54.2773L10.5501 54.2773C11.5462 54.2773 11.8978 53.125 11.1361 52.5586L7.38608 49.8047C6.23373 48.9648 6.38998 47.8516 7.71811 47.2461L19.8665 41.9922C24.515 40 24.9447 36.9727 21.058 34.082ZM47.0736 34.1406L45.2181 32.7734C44.5345 32.2656 43.7533 32.0312 42.9134 32.0312L39.1439 32.0312C38.1673 32.0312 37.7962 33.2031 38.5775 33.75L42.308 36.4844C43.4603 37.3242 43.3236 38.457 41.9759 39.0625L29.847 44.3164C25.1986 46.3281 24.7494 49.3555 28.6556 52.2266L30.5111 53.6133C31.1751 54.1211 31.9564 54.3555 32.7962 54.3555L36.5658 54.3555C37.5423 54.3555 37.9134 53.1836 37.1322 52.6367L33.4212 49.8828C32.2494 49.043 32.3861 47.9102 33.7337 47.3242L45.8626 42.0703C50.5306 40.0586 50.9408 37.0312 47.0736 34.1406Z" fill="black" fill-opacity="0.85"/>
 </g>
</svg>
