<?xml version="1.0" encoding="UTF-8"?>
<!--Generator: Apple Native CoreSVG 326-->
<!DOCTYPE svg
PUBLIC "-//W3C//DTD SVG 1.1//EN"
       "http://www.w3.org/Graphics/SVG/1.1/DTD/svg11.dtd">
<svg version="1.1" xmlns="http://www.w3.org/2000/svg" xmlns:xlink="http://www.w3.org/1999/xlink" viewBox="0 0 48.8477 65.7617">
 <g>
  <rect height="65.7617" opacity="0" width="48.8477" x="0" y="0"/>
  <path d="M24.0625 3.51562C29.5703 3.51562 34.5508 5.48828 38.3398 8.96484C39.1992 9.74609 40.2148 9.96094 40.9961 9.27734C41.7969 8.59375 41.7969 7.38281 40.8984 6.5625C36.4453 2.40234 30.5078 0 24.0625 0C17.5977 0 11.6602 2.40234 7.22656 6.5625C6.32812 7.38281 6.32812 8.59375 7.12891 9.27734C7.89062 9.96094 8.90625 9.74609 9.78516 8.96484C13.5547 5.48828 18.5352 3.51562 24.0625 3.51562Z" fill="black" fill-opacity="0.85"/>
  <path d="M24.1406 13.4961C26.875 13.4961 29.4141 14.3164 31.3086 15.9766C32.207 16.6602 33.1836 16.9336 33.9648 16.25C34.7656 15.5469 34.7852 14.2578 33.8086 13.4961C31.1914 11.2891 27.7734 10 24.1406 10C20.4883 10 17.0703 11.2891 14.4531 13.4961C13.4766 14.2578 13.4961 15.5469 14.2969 16.25C15.0781 16.9336 16.0352 16.6406 16.9531 15.9766C18.9453 14.4141 21.3867 13.4961 24.1406 13.4961Z" fill="black" fill-opacity="0.85"/>
  <path d="M24.2188 53.9844C31.1328 53.9844 40.1953 53.6328 44.0234 53.1836C46.8164 52.8711 48.4766 51.3477 48.4766 48.6328L48.4766 44.8828C48.4766 41.3477 47.6953 39.375 45.8594 37.0312L44.1797 34.8438C43.418 31.2109 42.0703 27.4023 41.3672 25.918C40.2539 23.5156 38.0273 22.1875 35.3711 21.8359C33.9844 21.6406 29.4727 21.5234 24.2188 21.5234C18.9844 21.5234 14.4727 21.6602 13.0859 21.8359C10.4297 22.168 8.20312 23.5156 7.08984 25.918C6.36719 27.4023 5.03906 31.2109 4.27734 34.8438L2.59766 37.0312C0.761719 39.375 0 41.3477 0 44.8828L0 48.6328C0 51.3477 1.64062 52.8711 4.43359 53.1836C8.26172 53.6328 17.3242 53.9844 24.2188 53.9844ZM24.2188 51.0156C17.2852 51.0156 8.41797 50.7227 5.07812 50.3125C3.47656 50.0977 2.96875 49.4531 2.96875 47.9883L2.96875 44.8828C2.96875 42.1484 3.33984 40.8594 4.92188 38.8281L7.03125 36.0938C7.59766 33.0273 8.94531 28.9844 9.74609 27.2461C10.4102 25.8398 11.582 25.0195 13.418 24.8242C14.707 24.6484 18.8477 24.4727 24.2188 24.4727C29.6094 24.4727 33.8281 24.6484 34.9805 24.8242C36.875 25.0391 38.0469 25.8594 38.7109 27.2461C39.5312 28.9844 40.8594 33.0273 41.4258 36.0938L43.5352 38.8281C45.1172 40.8594 45.5078 42.1484 45.5078 44.8828L45.5078 47.9883C45.5078 49.4531 44.9805 50.1367 43.3789 50.3125C40.0391 50.7031 31.1719 51.0156 24.2188 51.0156ZM9.33594 34.2969C9.17969 34.9219 9.43359 35.2734 10.1953 35.2148C13.5352 34.9609 17.3828 34.8047 24.2188 34.8047C31.0742 34.8047 34.9219 34.9609 38.2617 35.2148C39.0234 35.2734 39.2773 34.9219 39.1211 34.2969C38.5938 31.9336 37.6758 29.2773 37.0312 28.125C36.4844 27.1875 35.8203 26.6992 34.6289 26.543C33.1055 26.3281 29.707 26.2109 24.2188 26.2109C18.75 26.2109 15.3516 26.3281 13.8281 26.543C12.6367 26.6992 11.9727 27.1875 11.4258 28.125C10.7812 29.2773 9.86328 31.9336 9.33594 34.2969ZM9.43359 47.9883C11.2109 47.9883 12.5195 46.6602 12.5195 44.8828C12.5195 43.125 11.2109 41.7969 9.43359 41.7969C7.65625 41.7969 6.32812 43.125 6.32812 44.8828C6.32812 46.6602 7.65625 47.9883 9.43359 47.9883ZM18.7891 47.3242L29.668 47.3242C30.9766 47.3242 31.8945 46.4062 31.8945 45.0977C31.8945 43.7891 30.9766 42.8906 29.668 42.8906L18.7891 42.8906C17.4805 42.8906 16.5625 43.7891 16.5625 45.0977C16.5625 46.4062 17.4805 47.3242 18.7891 47.3242ZM39.0234 47.9883C40.8008 47.9883 42.1289 46.6602 42.1289 44.8828C42.1289 43.125 40.8008 41.7969 39.0234 41.7969C37.2461 41.7969 35.9375 43.125 35.9375 44.8828C35.9375 46.6602 37.2461 47.9883 39.0234 47.9883ZM3.98438 59.3945L6.42578 59.3945C7.92969 59.3945 9.10156 58.2422 9.10156 56.7578L9.10156 52.0898L1.38672 51.0156L1.38672 56.7578C1.38672 58.2227 2.51953 59.3945 3.98438 59.3945ZM41.9922 59.3945L44.4336 59.3945C45.918 59.3945 47.0508 58.2227 47.0508 56.7578L47.0508 51.0156L39.3359 52.0898L39.3359 56.7578C39.3359 58.2422 40.5078 59.3945 41.9922 59.3945Z" fill="black" fill-opacity="0.85"/>
 </g>
</svg>
