<?xml version="1.0" encoding="UTF-8"?>
<!--Generator: Apple Native CoreSVG 326-->
<!DOCTYPE svg
PUBLIC "-//W3C//DTD SVG 1.1//EN"
       "http://www.w3.org/Graphics/SVG/1.1/DTD/svg11.dtd">
<svg version="1.1" xmlns="http://www.w3.org/2000/svg" xmlns:xlink="http://www.w3.org/1999/xlink" viewBox="0 0 52.3438 45.4883">
 <g>
  <rect height="45.4883" opacity="0" width="52.3438" x="0" y="0"/>
  <path d="M7.61719 45.4883L44.3555 45.4883C49.5508 45.4883 51.9727 43.0859 51.9727 37.9883L51.9727 7.22656C51.9727 2.51953 49.5117 0.0585938 44.7461 0.0585938L32.3633 0.0585938C28.5156 0.0585938 26.0156 0.9375 22.8516 3.32031L3.59375 17.9297C0.957031 19.9414 0 21.7383 0 25.1172L0 37.9883C0 43.0859 2.46094 45.4883 7.61719 45.4883ZM7.1875 22.4805C5.74219 22.4805 5.42969 20.9375 6.50391 20.1172L25.1758 5.83984C27.4219 4.0625 29.2578 3.51562 32.3633 3.51562L44.6875 3.51562C47.1094 3.51562 48.5156 4.90234 48.5156 7.40234L48.5156 18.6133C48.5156 21.0547 47.0703 22.4805 44.6875 22.4805Z" fill="black" fill-opacity="0.85"/>
 </g>
</svg>
