<?xml version="1.0" encoding="UTF-8"?>
<!--Generator: Apple Native CoreSVG 326-->
<!DOCTYPE svg
PUBLIC "-//W3C//DTD SVG 1.1//EN"
       "http://www.w3.org/Graphics/SVG/1.1/DTD/svg11.dtd">
<svg version="1.1" xmlns="http://www.w3.org/2000/svg" xmlns:xlink="http://www.w3.org/1999/xlink" viewBox="0 0 60.6836 47.3242">
 <g>
  <rect height="47.3242" opacity="0" width="60.6836" x="0" y="0"/>
  <path d="M44.6094 18.5352C53.6328 18.5156 60.3125 24.6875 60.3125 32.8516C60.3125 40.957 53.7891 47.2852 45.4102 47.2852L12.4609 47.2852C4.76562 47.2852 0.332031 42.3633 0.332031 36.2695C0.332031 30.8984 3.86719 26.7383 8.88672 25.332C9.76562 15.332 17.9102 7.69531 27.6172 7.69531C35.2344 7.69531 41.2695 11.8359 44.6094 18.5352ZM17.3438 30.6055C17.3438 35.0195 19.082 39.0039 23.5156 39.0039C26.875 39.0039 28.8281 36.5625 29.0039 33.8672C29.043 33.0078 28.5352 32.4609 27.8125 32.4609C27.1094 32.4609 26.7578 32.8516 26.5625 33.6523C26.2305 35.2344 25.3906 36.6797 23.5156 36.6797C20.7617 36.6797 19.8828 33.7109 19.8828 30.6055C19.8828 27.5977 20.8008 24.6094 23.4961 24.6094C25.3711 24.6094 26.1719 26.0742 26.5039 27.6562C26.6992 28.4766 27.0508 28.8477 27.7539 28.8477C28.4766 28.8477 28.9844 28.3008 28.9453 27.4414C28.7695 24.7461 26.8164 22.3047 23.457 22.3047C19.2383 22.3047 17.3438 26.0938 17.3438 30.6055ZM30.0977 30.6445C30.0977 35.7617 32.4805 39.0039 36.25 39.0039C39.9805 39.0039 42.3438 35.7617 42.3438 30.6445C42.3438 25.5273 39.9805 22.3047 36.2109 22.3047C32.4805 22.3047 30.0977 25.5273 30.0977 30.6445ZM39.8047 30.6445C39.8047 34.4336 38.457 36.6797 36.25 36.6797C34.0234 36.6797 32.6367 34.4336 32.6367 30.6445C32.6367 26.875 34.0234 24.6094 36.2109 24.6094C38.4375 24.6094 39.8047 26.875 39.8047 30.6445ZM6.97266 19.3359C6.97266 21.2891 5.42969 22.832 3.51562 22.832C1.54297 22.832 0 21.2891 0 19.3359C0 17.4023 1.54297 15.8789 3.51562 15.8789C5.42969 15.8789 6.97266 17.4023 6.97266 19.3359ZM55.8008 10.293C55.8008 13.0273 53.6133 15.1953 50.918 15.1953C48.1641 15.1953 45.9766 13.0273 45.9766 10.293C45.9766 7.55859 48.1641 5.39062 50.918 5.39062C53.6133 5.39062 55.8008 7.55859 55.8008 10.293ZM43.6914 3.28125C43.6914 5.07812 42.207 6.5625 40.4102 6.5625C38.6133 6.5625 37.1289 5.07812 37.1289 3.28125C37.1289 1.48438 38.6133 0 40.4102 0C42.207 0 43.6914 1.48438 43.6914 3.28125Z" fill="black" fill-opacity="0.85"/>
 </g>
</svg>
