<?xml version="1.0" encoding="UTF-8"?>
<!--Generator: Apple Native CoreSVG 326-->
<!DOCTYPE svg
PUBLIC "-//W3C//DTD SVG 1.1//EN"
       "http://www.w3.org/Graphics/SVG/1.1/DTD/svg11.dtd">
<svg version="1.1" xmlns="http://www.w3.org/2000/svg" xmlns:xlink="http://www.w3.org/1999/xlink" viewBox="0 0 56.2068 52.6367">
 <g>
  <rect height="52.6367" opacity="0" width="56.2068" x="0" y="0"/>
  <path d="M14.2708 11.0965C19.52 15.135 22.4676 23.4137 22.0133 33.1199C23.7798 32.8229 25.645 32.5771 27.5695 32.3812C26.9413 33.438 26.3847 34.6047 26.3847 36.0349C24.1257 36.2926 22.3055 36.547 20.994 36.6797C19.6073 36.7578 18.7479 35.8789 18.7675 34.4727C19.08 24.9023 16.4042 16.7578 11.6386 13.4375C10.7792 12.7734 10.6425 12.3242 10.8768 10.8594C11.5409 6.01562 8.90418 3.45703 6.05261 3.45703C4.15808 3.45703 3.00574 4.98047 3.6698 7.63672L13.162 46.0938C13.6503 48.0469 14.9003 49.1211 16.7362 49.1211L45.9354 49.1211C48.9042 49.1211 50.33 48.0469 52.1464 41.25C53.055 37.819 51.1739 36.0342 44.7578 35.4654C44.9243 34.3696 45.6881 33.367 46.3942 32.241C54.0506 33.3146 56.969 36.4649 55.4471 42.168C53.3378 50.1562 50.9354 52.5977 45.9354 52.5977L16.7362 52.5977C13.1425 52.5977 10.7011 50.5859 9.80261 46.9336L0.349489 8.49609C-0.978636 3.20312 1.59949 0 6.03308 0C11.0843 0 15.358 4.39493 14.2708 11.0965ZM34.3576 35.372C32.3661 35.4659 30.5303 35.6104 28.8749 35.7717C28.9256 34.5121 29.8212 33.3976 30.6131 32.1173C32.3216 31.9849 34.0659 31.8954 35.8232 31.8509C35.1783 32.8853 34.5217 34.0059 34.3576 35.372ZM43.6935 31.9466C43.0771 32.9399 42.4646 34.0158 42.2967 35.3148C41.3499 35.2723 40.3049 35.2539 39.1776 35.2539C38.3882 35.2539 37.6161 35.2635 36.8683 35.2838C37.1093 34.118 38.0021 33.0467 38.7313 31.8015C38.8799 31.7972 39.0288 31.7969 39.1776 31.7969C40.8044 31.7969 42.3096 31.846 43.6935 31.9466Z" fill="black" fill-opacity="0.85"/>
  <path d="M31.8339 28.4961C31.8339 25.3125 28.8651 23.4375 28.8651 21.0547C28.8651 19.7852 29.1971 19.043 30.0761 17.8711C31.1307 16.4648 29.1581 15.0391 28.0643 16.4062C26.8925 17.9102 26.3846 19.2383 26.3846 20.8984C26.3846 24.2383 29.3143 26.0938 29.3143 28.4961C29.3143 30.8594 26.3846 32.7539 26.3846 36.0352C26.3846 37.7539 26.8925 39.082 28.0448 40.5469C29.0995 41.8945 31.0917 40.4688 30.037 39.0625C29.1971 37.9492 28.8651 37.2266 28.8651 35.8984C28.8651 33.5547 31.8339 31.7383 31.8339 28.4961ZM39.7636 28.4961C39.7636 25.3125 36.7948 23.4375 36.7948 21.0547C36.7948 19.7852 37.1464 19.043 38.0057 17.8711C39.0604 16.4648 37.0878 15.0391 35.994 16.4062C34.8221 17.9102 34.3143 19.2383 34.3143 20.8984C34.3143 24.2383 37.244 26.0938 37.244 28.4961C37.244 30.8594 34.3143 32.7539 34.3143 36.0352C34.3143 37.7539 34.8221 39.082 35.9745 40.5469C37.0292 41.8945 39.0214 40.4688 37.9667 39.0625C37.1464 37.9492 36.7948 37.2266 36.7948 35.8984C36.7948 33.5547 39.7636 31.7383 39.7636 28.4961ZM47.6932 28.4961C47.6932 25.3125 44.7245 23.4375 44.7245 21.0547C44.7245 19.7852 45.0761 19.043 45.9354 17.8711C46.9901 16.4648 45.0175 15.0391 43.9432 16.4062C42.7518 17.9102 42.244 19.2383 42.244 20.8984C42.244 24.2383 45.1737 26.0938 45.1737 28.4961C45.1737 30.8594 42.244 32.7539 42.244 36.0352C42.244 37.7539 42.7518 39.082 43.9042 40.5469C44.9784 41.8945 46.9511 40.4688 45.8964 39.0625C45.0761 37.9492 44.7245 37.2266 44.7245 35.8984C44.7245 33.5547 47.6932 31.7383 47.6932 28.4961Z" fill="black" fill-opacity="0.85"/>
 </g>
</svg>
