<?xml version="1.0" encoding="UTF-8"?>
<!--Generator: Apple Native CoreSVG 326-->
<!DOCTYPE svg
PUBLIC "-//W3C//DTD SVG 1.1//EN"
       "http://www.w3.org/Graphics/SVG/1.1/DTD/svg11.dtd">
<svg version="1.1" xmlns="http://www.w3.org/2000/svg" xmlns:xlink="http://www.w3.org/1999/xlink" viewBox="0 0 70.3279 52.5977">
 <g>
  <rect height="52.5977" opacity="0" width="70.3279" x="0" y="0"/>
  <path d="M69.5682 42.1484C71.5018 34.9023 66.2479 31.7773 53.2792 31.7773C46.7362 31.7773 40.0565 32.4023 34.8222 33.4961L35.6229 34.5703C36.9511 23.3789 33.4159 13.8867 26.0722 10.0391L26.6776 12.6562C29.2557 4.6875 24.3534 0 19.8026 0C16.3651 0 13.4159 2.63672 14.8417 8.47656L24.3143 46.9141C25.1932 50.5664 27.6542 52.5781 31.2479 52.5781L60.037 52.5781C65.037 52.5781 67.4393 50.1367 69.5682 42.1484Z" fill="black" fill-opacity="0.85"/>
  <path d="M12.9081 24.9219L10.0761 14.0234C9.76356 12.832 8.63074 12.5781 7.77137 13.4766L0.486214 21.0742C-0.35363 21.9336-0.0801925 23.1445 1.11121 23.4766L11.1503 26.5039C12.3612 26.875 13.2206 26.1133 12.9081 24.9219Z" fill="black" fill-opacity="0.85"/>
  <path d="M39.5487 16.1523C39.8612 17.3828 40.994 17.5781 41.8534 16.6797L49.1581 9.14062C49.9979 8.28125 49.6659 7.07031 48.5331 6.73828L38.4354 3.67188C37.244 3.30078 36.4042 4.10156 36.7167 5.27344Z" fill="black" fill-opacity="0.85"/>
 </g>
</svg>
