<?xml version="1.0" encoding="UTF-8"?>
<!--Generator: Apple Native CoreSVG 326-->
<!DOCTYPE svg
PUBLIC "-//W3C//DTD SVG 1.1//EN"
       "http://www.w3.org/Graphics/SVG/1.1/DTD/svg11.dtd">
<svg version="1.1" xmlns="http://www.w3.org/2000/svg" xmlns:xlink="http://www.w3.org/1999/xlink" viewBox="0 0 55.8381 52.5977">
 <g>
  <rect height="52.5977" opacity="0" width="55.8381" x="0" y="0"/>
  <path d="M0.389771 42.1484C2.49915 50.1367 4.90149 52.5781 9.90149 52.5781L38.7101 52.5781C42.3038 52.5781 44.7452 50.5664 45.6437 46.9141L55.0968 8.47656C56.5421 2.63672 53.5734 0 50.1359 0C45.5851 0 40.6827 4.6875 43.2609 12.6562L43.8859 10.0391C36.5226 13.8867 33.007 23.3789 34.3156 34.5703L35.1163 33.4961C29.882 32.4023 23.2023 31.7773 16.6788 31.7773C3.69055 31.7773-1.54382 34.9023 0.389771 42.1484Z" fill="black" fill-opacity="0.85"/>
  <path d="M2.79211 16.7773C2.79211 20.4297 6.0929 24.1016 9.27649 24.1016C12.089 24.1016 13.5538 21.6406 15.0773 17.1094L15.8195 16.9922L15.8195 21.9531C15.8195 24.0039 16.8741 25.0391 18.8663 25.0391C22.5187 25.0391 26.171 21.7578 26.171 18.5742C26.171 15.7422 23.7101 14.2969 19.1593 12.7539L19.0616 12.0117L24.0226 12.0117C26.0734 12.0117 27.1085 10.957 27.1085 8.98438C27.1085 5.3125 23.8468 1.64062 20.6437 1.64062C17.8116 1.64062 16.3468 4.12109 14.8234 8.69141L14.1007 8.76953L14.1007 3.80859C14.1007 1.77734 13.046 0.703125 11.0734 0.703125C7.38196 0.703125 3.72961 4.00391 3.72961 7.1875C3.72961 10 6.21008 11.4648 10.7804 12.9883L10.8195 13.75L5.89758 13.75C3.8468 13.75 2.79211 14.8047 2.79211 16.7773ZM14.9601 15.4102C13.5538 15.4102 12.421 14.2773 12.421 12.8711C12.421 11.4844 13.5538 10.3516 14.9601 10.3516C16.3468 10.3516 17.4796 11.4844 17.4796 12.8711C17.4796 14.2773 16.3468 15.4102 14.9601 15.4102Z" fill="black" fill-opacity="0.85"/>
 </g>
</svg>
