<?xml version="1.0" encoding="UTF-8"?>
<!--Generator: Apple Native CoreSVG 326-->
<!DOCTYPE svg
PUBLIC "-//W3C//DTD SVG 1.1//EN"
       "http://www.w3.org/Graphics/SVG/1.1/DTD/svg11.dtd">
<svg version="1.1" xmlns="http://www.w3.org/2000/svg" xmlns:xlink="http://www.w3.org/1999/xlink" viewBox="0 0 51.25 50.918">
 <g>
  <rect height="50.918" opacity="0" width="51.25" x="0" y="0"/>
  <path d="M25.4297 50.8789C39.4727 50.8789 50.8789 39.4922 50.8789 25.4492C50.8789 11.4062 39.4727 0 25.4297 0C11.3867 0 0 11.4062 0 25.4492C0 39.4922 11.3867 50.8789 25.4297 50.8789ZM25.4297 47.2461C13.3789 47.2461 3.63281 37.5 3.63281 25.4492C3.63281 13.3984 13.3789 3.65234 25.4297 3.65234C37.4805 3.65234 47.2266 13.3984 47.2266 25.4492C47.2266 37.5 37.4805 47.2461 25.4297 47.2461Z" fill="black" fill-opacity="0.85"/>
  <path d="M20.8203 33.9844L35.1172 33.9844C35.8008 33.9844 36.25 33.4961 36.25 32.793C36.25 32.1094 35.8008 31.6211 35.1172 31.6211L20.918 31.6211C20.0586 31.6211 19.5898 31.2109 19.4727 30.3711L19.3164 29.082L35.5273 29.082C37.3438 29.082 38.2227 28.0078 38.4766 26.2305L39.5508 19.1602C39.5703 19.0234 39.6094 18.7891 39.6094 18.7109C39.6094 18.125 39.1992 17.7539 38.5156 17.7539L17.6367 17.7539L17.3828 15.8203C17.2461 14.8633 16.4648 14.2383 15.4492 14.2383L10.918 14.2383C10.2344 14.2383 9.76562 14.707 9.76562 15.4102C9.76562 16.1133 10.2344 16.582 10.918 16.582L15.1367 16.582L17.2266 31.1133C17.5 32.9688 18.6719 33.9844 20.8203 33.9844ZM21.5234 40.1758C22.7539 40.1758 23.7305 39.1992 23.7305 37.9688C23.7305 36.7383 22.7539 35.7617 21.5234 35.7617C20.293 35.7617 19.3359 36.7383 19.3359 37.9688C19.3359 39.1992 20.293 40.1758 21.5234 40.1758ZM33.0078 40.1758C34.2578 40.1758 35.2344 39.1992 35.2344 37.9688C35.2344 36.7383 34.2578 35.7617 33.0078 35.7617C31.7969 35.7617 30.8008 36.7383 30.8008 37.9688C30.8008 39.1992 31.7969 40.1758 33.0078 40.1758Z" fill="black" fill-opacity="0.85"/>
 </g>
</svg>
