<?xml version="1.0" encoding="UTF-8"?>
<!--Generator: Apple Native CoreSVG 326-->
<!DOCTYPE svg
PUBLIC "-//W3C//DTD SVG 1.1//EN"
       "http://www.w3.org/Graphics/SVG/1.1/DTD/svg11.dtd">
<svg version="1.1" xmlns="http://www.w3.org/2000/svg" xmlns:xlink="http://www.w3.org/1999/xlink" viewBox="0 0 51.25 50.918">
 <g>
  <rect height="50.918" opacity="0" width="51.25" x="0" y="0"/>
  <path d="M25.4297 50.8789C39.4727 50.8789 50.8789 39.4922 50.8789 25.4492C50.8789 11.4062 39.4727 0 25.4297 0C11.3867 0 0 11.4062 0 25.4492C0 39.4922 11.3867 50.8789 25.4297 50.8789ZM25.4297 47.2461C13.3789 47.2461 3.63281 37.5 3.63281 25.4492C3.63281 13.3984 13.3789 3.65234 25.4297 3.65234C37.4805 3.65234 47.2266 13.3984 47.2266 25.4492C47.2266 37.5 37.4805 47.2461 25.4297 47.2461Z" fill="black" fill-opacity="0.85"/>
  <path d="M25.625 36.3867C29.3164 36.3867 32.7344 34.7266 33.8867 31.3867C34.043 30.9961 34.1211 30.6445 34.1211 30.2148C34.1211 29.4922 33.6328 29.043 32.9102 29.043C32.2266 29.043 31.8555 29.4141 31.6406 30.0781C30.9375 32.5391 28.4766 34.0625 25.625 34.0625C20.8203 34.0625 18.6328 29.9219 18.6328 25.2344C18.6328 20.5273 20.9375 16.4844 25.6055 16.4844C28.418 16.4844 30.8398 18.2227 31.4844 20.5469C31.7188 21.2109 32.0312 21.582 32.7539 21.582C33.457 21.582 33.9648 21.1328 33.9648 20.3711C33.9648 19.8633 33.8086 19.4336 33.6328 18.9844C32.3242 15.8984 29.1211 14.1602 25.6055 14.1602C19.4336 14.1602 15.918 18.8477 15.918 25.2344C15.918 31.5234 19.2578 36.3867 25.625 36.3867ZM25.4102 39.3164C25.8594 39.3164 26.1719 39.0039 26.1719 38.5547L26.1719 12.0898C26.1719 11.6406 25.8594 11.3086 25.4102 11.3086C24.9609 11.3086 24.6289 11.6406 24.6289 12.0898L24.6289 38.5547C24.6289 38.9844 24.9609 39.3164 25.4102 39.3164Z" fill="black" fill-opacity="0.85"/>
 </g>
</svg>
