<?xml version="1.0" encoding="UTF-8"?>
<!--Generator: Apple Native CoreSVG 326-->
<!DOCTYPE svg
PUBLIC "-//W3C//DTD SVG 1.1//EN"
       "http://www.w3.org/Graphics/SVG/1.1/DTD/svg11.dtd">
<svg version="1.1" xmlns="http://www.w3.org/2000/svg" xmlns:xlink="http://www.w3.org/1999/xlink" viewBox="0 0 51.25 50.8789">
 <g>
  <rect height="50.8789" opacity="0" width="51.25" x="0" y="0"/>
  <path d="M25.4297 50.8789C31.582 50.8789 37.4219 48.6133 42.0312 44.6289L24.1406 27.0898C23.6914 26.6406 23.5742 26.25 23.5742 25.5664L23.5742 0.0976562C10.4883 1.05469 0 12.1484 0 25.4492C0 39.375 11.5234 50.8789 25.4297 50.8789ZM50.8789 25.4297C50.8789 21.6406 49.9414 17.7148 48.3398 14.5117L27.7539 26.3086L44.1602 42.5391C48.3203 38.0664 50.8789 31.8555 50.8789 25.4297ZM26.4844 23.6328L46.8945 11.9336C42.5 4.80469 34.375 0.292969 26.4844 0.0390625Z" fill="black" fill-opacity="0.85"/>
 </g>
</svg>
