<?xml version="1.0" encoding="UTF-8"?>
<!--Generator: Apple Native CoreSVG 326-->
<!DOCTYPE svg
PUBLIC "-//W3C//DTD SVG 1.1//EN"
       "http://www.w3.org/Graphics/SVG/1.1/DTD/svg11.dtd">
<svg version="1.1" xmlns="http://www.w3.org/2000/svg" xmlns:xlink="http://www.w3.org/1999/xlink" viewBox="0 0 51.25 50.918">
 <g>
  <rect height="50.918" opacity="0" width="51.25" x="0" y="0"/>
  <path d="M25.4297 50.8789C39.4727 50.8789 50.8789 39.4922 50.8789 25.4492C50.8789 11.4062 39.4727 0 25.4297 0C11.3867 0 0 11.4062 0 25.4492C0 39.4922 11.3867 50.8789 25.4297 50.8789ZM25.4297 47.2461C13.3789 47.2461 3.63281 37.5 3.63281 25.4492C3.63281 13.3984 13.3789 3.65234 25.4297 3.65234C37.4805 3.65234 47.2266 13.3984 47.2266 25.4492C47.2266 37.5 37.4805 47.2461 25.4297 47.2461Z" fill="black" fill-opacity="0.85"/>
  <path d="M22.6758 37.4023C23.3984 37.4023 23.9844 37.0703 24.4141 36.4062L36.3867 17.6367C36.6406 17.2461 36.8945 16.7578 36.8945 16.2891C36.8945 15.332 36.0352 14.6875 35.1562 14.6875C34.5898 14.6875 34.043 15.0391 33.6523 15.6641L22.5977 33.2227L17.0898 26.3281C16.582 25.6641 16.0938 25.4688 15.5078 25.4688C14.5703 25.4688 13.8281 26.2305 13.8281 27.1875C13.8281 27.6562 14.0234 28.125 14.3359 28.5352L20.8594 36.4062C21.4062 37.1094 21.9531 37.4023 22.6758 37.4023Z" fill="black" fill-opacity="0.85"/>
 </g>
</svg>
