<?xml version="1.0" encoding="UTF-8"?>
<!--Generator: Apple Native CoreSVG 326-->
<!DOCTYPE svg
PUBLIC "-//W3C//DTD SVG 1.1//EN"
       "http://www.w3.org/Graphics/SVG/1.1/DTD/svg11.dtd">
<svg version="1.1" xmlns="http://www.w3.org/2000/svg" xmlns:xlink="http://www.w3.org/1999/xlink" viewBox="0 0 45.5859 45.3711">
 <g>
  <rect height="45.3711" opacity="0" width="45.5859" x="0" y="0"/>
  <path d="M20.957 20.1953C22.1094 20.1953 23.0469 19.2578 23.0469 18.1055C23.0469 16.9336 22.1094 16.0156 20.957 16.0156C19.7852 16.0156 18.8477 16.9336 18.8477 18.1055C18.8477 19.2578 19.7852 20.1953 20.957 20.1953ZM14.668 20.1953C15.8203 20.1953 16.7578 19.2578 16.7578 18.1055C16.7578 16.9336 15.8203 16.0156 14.668 16.0156C13.4961 16.0156 12.5586 16.9336 12.5586 18.1055C12.5586 19.2578 13.4961 20.1953 14.668 20.1953ZM8.37891 20.1953C9.55078 20.1953 10.4688 19.2578 10.4688 18.1055C10.4688 16.9336 9.55078 16.0156 8.37891 16.0156C7.22656 16.0156 6.28906 16.9336 6.28906 18.1055C6.28906 19.2578 7.22656 20.1953 8.37891 20.1953ZM2.08984 20.1953C3.26172 20.1953 4.19922 19.2578 4.19922 18.1055C4.19922 16.9336 3.26172 16.0156 2.08984 16.0156C0.9375 16.0156 0 16.9336 0 18.1055C0 19.2578 0.9375 20.1953 2.08984 20.1953ZM27.2266 45.332C28.3984 45.332 29.3359 44.3945 29.3359 43.2422C29.3359 42.0703 28.3984 41.1523 27.2266 41.1523C26.0742 41.1523 25.1367 42.0703 25.1367 43.2422C25.1367 44.3945 26.0742 45.332 27.2266 45.332ZM27.2266 39.043C28.3984 39.043 29.3359 38.125 29.3359 36.9531C29.3359 35.8008 28.3984 34.8633 27.2266 34.8633C26.0742 34.8633 25.1367 35.8008 25.1367 36.9531C25.1367 38.125 26.0742 39.043 27.2266 39.043ZM27.2266 32.7734C28.3984 32.7734 29.3359 31.8359 29.3359 30.6641C29.3359 29.5117 28.3984 28.5742 27.2266 28.5742C26.0742 28.5742 25.1367 29.5117 25.1367 30.6641C25.1367 31.8359 26.0742 32.7734 27.2266 32.7734ZM27.2266 26.4844C28.3984 26.4844 29.3359 25.5469 29.3359 24.3945C29.3359 23.2227 28.3984 22.2852 27.2266 22.2852C26.0742 22.2852 25.1367 23.2227 25.1367 24.3945C25.1367 25.5469 26.0742 26.4844 27.2266 26.4844ZM27.2266 20.1953C28.3984 20.1953 29.3359 19.2578 29.3359 18.1055C29.3359 16.9336 28.3984 16.0156 27.2266 16.0156C26.0742 16.0156 25.1367 16.9336 25.1367 18.1055C25.1367 19.2578 26.0742 20.1953 27.2266 20.1953Z" fill="black" fill-opacity="0.85"/>
  <path d="M36.8359 4.19922C37.9883 4.19922 38.9258 3.26172 38.9258 2.08984C38.9258 0.9375 37.9883 0 36.8359 0C35.6641 0 34.7266 0.9375 34.7266 2.08984C34.7266 3.26172 35.6641 4.19922 36.8359 4.19922ZM30.5469 4.19922C31.7188 4.19922 32.6367 3.26172 32.6367 2.08984C32.6367 0.9375 31.7188 0 30.5469 0C29.3945 0 28.457 0.9375 28.457 2.08984C28.457 3.26172 29.3945 4.19922 30.5469 4.19922ZM24.2578 4.19922C25.4297 4.19922 26.3672 3.26172 26.3672 2.08984C26.3672 0.9375 25.4297 0 24.2578 0C23.1055 0 22.168 0.9375 22.168 2.08984C22.168 3.26172 23.1055 4.19922 24.2578 4.19922ZM17.9883 4.19922C19.1406 4.19922 20.0781 3.26172 20.0781 2.08984C20.0781 0.9375 19.1406 0 17.9883 0C16.8164 0 15.8789 0.9375 15.8789 2.08984C15.8789 3.26172 16.8164 4.19922 17.9883 4.19922ZM43.125 29.3359C44.2773 29.3359 45.2148 28.3984 45.2148 27.2266C45.2148 26.0742 44.2773 25.1367 43.125 25.1367C41.9531 25.1367 41.0156 26.0742 41.0156 27.2266C41.0156 28.3984 41.9531 29.3359 43.125 29.3359ZM43.125 23.0469C44.2773 23.0469 45.2148 22.1094 45.2148 20.957C45.2148 19.7852 44.2773 18.8477 43.125 18.8477C41.9531 18.8477 41.0156 19.7852 41.0156 20.957C41.0156 22.1094 41.9531 23.0469 43.125 23.0469ZM43.125 16.7578C44.2773 16.7578 45.2148 15.8203 45.2148 14.668C45.2148 13.4961 44.2773 12.5781 43.125 12.5781C41.9531 12.5781 41.0156 13.4961 41.0156 14.668C41.0156 15.8203 41.9531 16.7578 43.125 16.7578ZM43.125 10.4883C44.2773 10.4883 45.2148 9.55078 45.2148 8.37891C45.2148 7.22656 44.2773 6.28906 43.125 6.28906C41.9531 6.28906 41.0156 7.22656 41.0156 8.37891C41.0156 9.55078 41.9531 10.4883 43.125 10.4883ZM43.125 4.19922C44.2773 4.19922 45.2148 3.26172 45.2148 2.08984C45.2148 0.9375 44.2773 0 43.125 0C41.9531 0 41.0156 0.9375 41.0156 2.08984C41.0156 3.26172 41.9531 4.19922 43.125 4.19922Z" fill="black" fill-opacity="0.85"/>
 </g>
</svg>
