<?xml version="1.0" encoding="UTF-8"?>
<!--Generator: Apple Native CoreSVG 326-->
<!DOCTYPE svg
PUBLIC "-//W3C//DTD SVG 1.1//EN"
       "http://www.w3.org/Graphics/SVG/1.1/DTD/svg11.dtd">
<svg version="1.1" xmlns="http://www.w3.org/2000/svg" xmlns:xlink="http://www.w3.org/1999/xlink" viewBox="0 0 60.4102 49.8382">
 <g>
  <rect height="49.8382" opacity="0" width="60.4102" x="0" y="0"/>
  <path d="M60.0391 29.9093C60.0391 14.1867 47.9492 1.29605 32.5977 0.00698344C31.7969-0.0711416 31.1719 0.514796 31.1719 1.33511L31.1719 9.32339C31.1719 9.98745 31.6602 10.5148 32.3438 10.5734C41.9727 11.7453 49.4531 19.9484 49.4531 29.9093C49.4531 34.4406 47.9102 38.6007 45.1758 42.0382C44.8047 42.507 44.8242 43.0929 45.2344 43.5031L51.0352 49.3039C51.6211 49.8703 52.4609 49.8703 52.9688 49.2453C57.3828 44.0109 60.0391 37.2531 60.0391 29.9093Z" fill="black" fill-opacity="0.85"/>
  <path d="M0 29.9093C0 37.2726 2.65625 44.05 7.08984 49.2843C7.57812 49.8703 8.39844 49.8703 8.98438 49.3039L14.7852 43.5031C15.1953 43.0929 15.2148 42.507 14.8438 42.0382C12.1094 38.6007 10.5664 34.4406 10.5664 29.9093C10.5664 19.9484 18.0664 11.7453 27.6758 10.5734C28.3789 10.5148 28.8477 9.98745 28.8477 9.32339L28.8477 1.33511C28.8477 0.514796 28.2422-0.0711416 27.4414 0.00698344C12.0703 1.29605 0 14.1867 0 29.9093Z" fill="black" fill-opacity="0.85"/>
  <path d="M30 41.8429C30.7617 41.8429 31.2891 41.296 31.2891 40.4953L31.2891 32.1554L38.4766 20.6515C38.6719 20.339 38.75 20.1828 38.75 19.8117C38.75 19.1085 38.1641 18.6398 37.4609 18.6398C36.9727 18.6398 36.582 18.8937 36.2891 19.382L30.0586 29.7726L29.9414 29.7726L23.7305 19.382C23.4375 18.8937 23.1055 18.6203 22.5195 18.6203C21.7969 18.6203 21.25 19.089 21.25 19.8117C21.25 20.0656 21.3281 20.3781 21.5234 20.6906L28.7109 32.1554L28.7109 40.4953C28.7109 41.296 29.2383 41.8429 30 41.8429ZM23.0078 31.6085C23.0078 32.0578 23.3398 32.3898 23.7891 32.3898L36.3281 32.3898C36.7578 32.3898 37.1094 32.0578 37.1094 31.6085C37.1094 31.1789 36.7578 30.8273 36.3281 30.8273L23.7891 30.8273C23.3398 30.8273 23.0078 31.1789 23.0078 31.6085ZM23.0078 35.8664C23.0078 36.296 23.3398 36.6476 23.7891 36.6476L36.3281 36.6476C36.7578 36.6476 37.1094 36.296 37.1094 35.8664C37.1094 35.4367 36.7578 35.0851 36.3281 35.0851L23.7891 35.0851C23.3398 35.0851 23.0078 35.4367 23.0078 35.8664Z" fill="black" fill-opacity="0.85"/>
 </g>
</svg>
