<?xml version="1.0" encoding="UTF-8"?>
<!--Generator: Apple Native CoreSVG 326-->
<!DOCTYPE svg
PUBLIC "-//W3C//DTD SVG 1.1//EN"
       "http://www.w3.org/Graphics/SVG/1.1/DTD/svg11.dtd">
<svg version="1.1" xmlns="http://www.w3.org/2000/svg" xmlns:xlink="http://www.w3.org/1999/xlink" viewBox="0 0 50 47.9102">
 <g>
  <rect height="47.9102" opacity="0" width="50" x="0" y="0"/>
  <path d="M38.6523 47.8711C44.7266 47.8711 49.6289 42.9688 49.6289 36.8945C49.6289 30.8398 44.7266 25.918 38.6523 25.918C32.5977 25.918 27.6758 30.8398 27.6758 36.8945C27.6758 42.9688 32.5977 47.8711 38.6523 47.8711ZM38.6523 44.5117C34.4531 44.5117 31.0352 41.1133 31.0352 36.8945C31.0352 32.6758 34.4531 29.2773 38.6523 29.2773C42.8711 29.2773 46.2695 32.6758 46.2695 36.8945C46.2695 41.1133 42.8711 44.5117 38.6523 44.5117Z" fill="black" fill-opacity="0.85"/>
  <path d="M10.9766 47.8711C17.0508 47.8711 21.9531 42.9688 21.9531 36.8945C21.9531 30.8398 17.0508 25.918 10.9766 25.918C4.90234 25.918 0 30.8398 0 36.8945C0 42.9688 4.90234 47.8711 10.9766 47.8711ZM10.9766 44.5117C6.75781 44.5117 3.35938 41.1133 3.35938 36.8945C3.35938 32.6758 6.75781 29.2773 10.9766 29.2773C15.1953 29.2773 18.5938 32.6758 18.5938 36.8945C18.5938 41.1133 15.1953 44.5117 10.9766 44.5117Z" fill="black" fill-opacity="0.85"/>
  <path d="M38.6523 21.9531C44.7266 21.9531 49.6289 17.0508 49.6289 10.9766C49.6289 4.92188 44.7266 0 38.6523 0C32.5977 0 27.6758 4.92188 27.6758 10.9766C27.6758 17.0508 32.5977 21.9531 38.6523 21.9531ZM38.6523 18.5938C34.4531 18.5938 31.0352 15.1953 31.0352 10.9766C31.0352 6.75781 34.4531 3.35938 38.6523 3.35938C42.8711 3.35938 46.2695 6.75781 46.2695 10.9766C46.2695 15.1953 42.8711 18.5938 38.6523 18.5938Z" fill="black" fill-opacity="0.85"/>
  <path d="M10.9766 21.9531C17.0508 21.9531 21.9531 17.0508 21.9531 10.9766C21.9531 4.92188 17.0508 0 10.9766 0C4.90234 0 0 4.92188 0 10.9766C0 17.0508 4.90234 21.9531 10.9766 21.9531ZM10.9766 18.5938C6.75781 18.5938 3.35938 15.1953 3.35938 10.9766C3.35938 6.75781 6.75781 3.35938 10.9766 3.35938C15.1953 3.35938 18.5938 6.75781 18.5938 10.9766C18.5938 15.1953 15.1953 18.5938 10.9766 18.5938Z" fill="black" fill-opacity="0.85"/>
 </g>
</svg>
