<?xml version="1.0" encoding="UTF-8"?>
<!--Generator: Apple Native CoreSVG 326-->
<!DOCTYPE svg
PUBLIC "-//W3C//DTD SVG 1.1//EN"
       "http://www.w3.org/Graphics/SVG/1.1/DTD/svg11.dtd">
<svg version="1.1" xmlns="http://www.w3.org/2000/svg" xmlns:xlink="http://www.w3.org/1999/xlink" viewBox="0 0 41.8164 55.9961">
 <g>
  <rect height="55.9961" opacity="0" width="41.8164" x="0" y="0"/>
  <path d="M0 49.3555C0 53.3984 2.69531 55.9961 6.875 55.9961L34.5703 55.9961C38.75 55.9961 41.4453 53.3984 41.4453 49.3555L41.4453 6.64062C41.4453 2.59766 38.75 0 34.5703 0L6.875 0C2.69531 0 0 2.59766 0 6.64062ZM3.45703 48.8086L3.45703 7.1875C3.45703 4.80469 4.84375 3.45703 7.28516 3.45703L34.1406 3.45703C36.582 3.45703 37.9688 4.80469 37.9688 7.1875L37.9688 48.8086C37.9688 51.1719 36.582 52.5195 34.1406 52.5195L7.28516 52.5195C4.84375 52.5195 3.45703 51.1719 3.45703 48.8086Z" fill="black" fill-opacity="0.85"/>
  <path d="M20.7227 40.4883C27.5977 40.4883 33.2227 34.8828 33.2227 27.9688C33.2227 21.0938 27.5977 15.4883 20.7227 15.4883C13.8281 15.4883 8.20312 21.0938 8.20312 27.9688C8.20312 34.8828 13.8281 40.4883 20.7227 40.4883Z" fill="black" fill-opacity="0.85"/>
 </g>
</svg>
