<?xml version="1.0" encoding="UTF-8"?>
<!--Generator: Apple Native CoreSVG 326-->
<!DOCTYPE svg
PUBLIC "-//W3C//DTD SVG 1.1//EN"
       "http://www.w3.org/Graphics/SVG/1.1/DTD/svg11.dtd">
<svg version="1.1" xmlns="http://www.w3.org/2000/svg" xmlns:xlink="http://www.w3.org/1999/xlink" viewBox="0 0 93.1815 56.7197">
 <g>
  <rect height="56.7197" opacity="0" width="93.1815" x="0" y="0"/>
  <path d="M5.37981 43.7212L11.8056 44.4634L12.1376 41.0063L6.18059 40.3228C4.5009 40.1274 3.71965 39.3462 3.71965 37.8423L3.71965 34.7759C3.71965 30.0884 6.72746 27.5103 12.7236 26.3579L29.3251 23.1938C30.6337 22.9399 31.5126 22.7446 32.3329 22.1782L47.704 11.8462C49.6571 10.5181 47.7626 7.62744 45.6337 9.05322L29.6962 19.6978L12.2353 22.9985C4.26652 24.5024 0.243086 28.1157 0.243086 34.7759L0.243086 38.0767C0.243086 41.5728 1.84465 43.3306 5.37981 43.7212ZM18.4071 48.7993C23.2509 48.7993 27.0204 45.0103 27.0204 40.186C27.0204 35.3423 23.2509 31.5532 18.4071 31.5532C13.5634 31.5532 9.77434 35.3423 9.77434 40.186C9.77434 45.0103 13.5634 48.7993 18.4071 48.7993ZM18.4071 45.5376C15.3993 45.5376 13.0361 43.1743 13.0361 40.186C13.0361 37.1782 15.3993 34.8149 18.4071 34.8149C21.3954 34.8149 23.7587 37.1782 23.7587 40.186C23.7587 43.1743 21.3954 45.5376 18.4071 45.5376ZM24.7548 43.2915L68.1923 43.2915L68.1923 39.8345L24.7548 39.8345ZM74.4032 48.7993C79.247 48.7993 83.0361 45.0103 83.0361 40.186C83.0361 35.3423 79.247 31.5532 74.4032 31.5532C69.5595 31.5532 65.79 35.3423 65.79 40.186C65.79 45.0103 69.5595 48.7993 74.4032 48.7993ZM74.4032 45.5376C71.415 45.5376 69.0517 43.1743 69.0517 40.186C69.0517 37.1782 71.415 34.8149 74.4032 34.8149C77.4111 34.8149 79.7743 37.1782 79.7743 40.186C79.7743 43.1743 77.4111 45.5376 74.4032 45.5376ZM81.2782 42.7056L85.5361 42.2368C90.3017 41.7095 92.5673 39.1313 92.5673 34.2485L92.5673 29.8735C92.5673 24.1704 90.3017 21.7095 84.6571 20.6353L69.5204 17.7837C68.29 17.5298 67.1376 17.4712 65.9657 17.5298L30.0282 19.6978L28.7196 23.2329L66.8446 20.9478L84.0517 24.1899C87.7236 24.8931 89.0907 26.4751 89.0907 29.8735L89.0907 34.2485C89.0907 37.061 87.8407 38.5259 85.1259 38.8384L81.2782 39.2681Z" fill="black" fill-opacity="0.85"/>
  <path d="M81.1025 11.0845C80.5556 12.5688 81.415 13.3501 82.9384 12.979L91.8837 10.8892C93.1532 10.5962 93.5439 9.56103 92.8212 8.52588L87.7431 0.889157C86.9423-0.282718 85.7509-0.380374 85.165 1.104L83.8368 4.28759C77.4111 1.55322 70.0868 1.104 64.3642 1.80713C63.329 1.88525 62.5868 2.76416 62.665 3.76025C62.7431 4.75634 63.6415 5.51806 64.6571 5.42041C70.1845 4.75634 76.8251 5.20556 82.5282 7.68603Z" fill="black" fill-opacity="0.85"/>
 </g>
</svg>
