<?xml version="1.0" encoding="UTF-8"?>
<!--Generator: Apple Native CoreSVG 326-->
<!DOCTYPE svg
PUBLIC "-//W3C//DTD SVG 1.1//EN"
       "http://www.w3.org/Graphics/SVG/1.1/DTD/svg11.dtd">
<svg version="1.1" xmlns="http://www.w3.org/2000/svg" xmlns:xlink="http://www.w3.org/1999/xlink" viewBox="0 0 92.6758 59.5021">
 <g>
  <rect height="59.5021" opacity="0" width="92.6758" x="0" y="0"/>
  <path d="M5.13672 45.1124L11.543 45.8546L11.8945 42.3975L5.91797 41.7139C4.23828 41.5186 3.45703 40.7374 3.45703 39.2335L3.45703 36.1671C3.45703 31.4796 6.48438 28.9014 12.4805 27.7491L29.082 24.585C30.3711 24.3311 31.25 24.1358 32.0703 23.5694L47.4414 13.2374C49.3945 11.9092 47.5 9.01862 45.3711 10.4444L29.4531 21.0889L11.9922 24.3897C4.00391 25.8936 0 29.5069 0 36.1671L0 39.4678C0 42.9639 1.58203 44.7217 5.13672 45.1124ZM18.1445 50.1905C22.9883 50.1905 26.7773 46.4014 26.7773 41.5772C26.7773 36.7335 22.9883 32.9444 18.1445 32.9444C13.3008 32.9444 9.53125 36.7335 9.53125 41.5772C9.53125 46.4014 13.3008 50.1905 18.1445 50.1905ZM18.1445 46.9288C15.1562 46.9288 12.793 44.5655 12.793 41.5772C12.793 38.5694 15.1562 36.2061 18.1445 36.2061C21.1523 36.2061 23.5156 38.5694 23.5156 41.5772C23.5156 44.5655 21.1523 46.9288 18.1445 46.9288ZM24.5117 44.6827L67.9297 44.6827L67.9297 41.2257L24.5117 41.2257ZM74.1602 50.1905C79.0039 50.1905 82.7734 46.4014 82.7734 41.5772C82.7734 36.7335 79.0039 32.9444 74.1602 32.9444C69.3164 32.9444 65.5273 36.7335 65.5273 41.5772C65.5273 46.4014 69.3164 50.1905 74.1602 50.1905ZM74.1602 46.9288C71.1719 46.9288 68.7891 44.5655 68.7891 41.5772C68.7891 38.5694 71.1719 36.2061 74.1602 36.2061C77.1484 36.2061 79.5117 38.5694 79.5117 41.5772C79.5117 44.5655 77.1484 46.9288 74.1602 46.9288ZM81.0352 44.0967L85.293 43.628C90.0391 43.1007 92.3047 40.5225 92.3047 35.6397L92.3047 31.2647C92.3047 25.5616 90.0586 23.1007 84.3945 22.0264L69.2578 19.1749C68.0469 18.921 66.8945 18.8624 65.7227 18.921L29.7852 21.0889L28.4766 24.6241L66.6016 22.3389L83.7891 25.5811C87.4805 26.2842 88.8477 27.8663 88.8477 31.2647L88.8477 35.6397C88.8477 38.4522 87.5781 39.9171 84.8633 40.2296L81.0352 40.6592Z" fill="black" fill-opacity="0.85"/>
  <path d="M40.5273 47.671C39.2773 47.671 38.7695 48.7061 39.4336 49.7608L44.8828 58.7257C45.5273 59.7803 46.7773 59.7413 47.4023 58.7257L52.8906 49.7413C53.5547 48.6866 53.0078 47.671 51.7773 47.671Z" fill="black" fill-opacity="0.85"/>
  <path d="M40.6836 38.0811L51.6016 38.0811C52.793 38.0811 53.3008 37.1046 52.6758 36.0889L47.3242 27.378C46.7578 26.4014 45.5469 26.3624 44.9219 27.378L39.6289 36.0694C39.0234 37.085 39.4922 38.0811 40.6836 38.0811Z" fill="black" fill-opacity="0.85"/>
 </g>
</svg>
