<?xml version="1.0" encoding="UTF-8"?>
<!--Generator: Apple Native CoreSVG 326-->
<!DOCTYPE svg
PUBLIC "-//W3C//DTD SVG 1.1//EN"
       "http://www.w3.org/Graphics/SVG/1.1/DTD/svg11.dtd">
<svg version="1.1" xmlns="http://www.w3.org/2000/svg" xmlns:xlink="http://www.w3.org/1999/xlink" viewBox="0 0 51.25 50.918">
 <g>
  <rect height="50.918" opacity="0" width="51.25" x="0" y="0"/>
  <path d="M25.4297 50.8789C39.4727 50.8789 50.8789 39.4922 50.8789 25.4492C50.8789 11.4062 39.4727 0 25.4297 0C11.3867 0 0 11.4062 0 25.4492C0 39.4922 11.3867 50.8789 25.4297 50.8789ZM25.4297 47.2461C13.3789 47.2461 3.63281 37.5 3.63281 25.4492C3.63281 13.3984 13.3789 3.65234 25.4297 3.65234C37.4805 3.65234 47.2266 13.3984 47.2266 25.4492C47.2266 37.5 37.4805 47.2461 25.4297 47.2461Z" fill="black" fill-opacity="0.85"/>
  <path d="M17.8711 17.4219L20.0586 17.4219L20.0586 14.9609C20.0586 14.2383 20.5078 13.8086 21.2891 13.8086L29.5508 13.8086C30.332 13.8086 30.7812 14.2383 30.7812 14.9609L30.7812 17.4219L32.9492 17.4219L32.9492 14.8633C32.9492 12.9297 31.6797 11.7383 29.668 11.7383L21.1719 11.7383C19.1406 11.7383 17.8711 12.9297 17.8711 14.8633ZM14.9609 36.7969L35.8789 36.7969C38.4375 36.7969 39.6875 35.5664 39.6875 33.0273L39.6875 20.1758C39.6875 17.6367 38.4375 16.4062 35.8789 16.4062L14.9609 16.4062C12.3828 16.4062 11.1328 17.6367 11.1328 20.1758L11.1328 33.0273C11.1328 35.5664 12.3828 36.7969 14.9609 36.7969ZM19.5703 27.6758L19.5703 25.4688C19.5703 24.8047 20 24.3555 20.6445 24.3555L23.2031 24.3555L23.2031 21.8359C23.2031 21.1523 23.6523 20.7227 24.3164 20.7227L26.5234 20.7227C27.168 20.7227 27.6172 21.1523 27.6172 21.8359L27.6172 24.3555L30.1758 24.3555C30.8398 24.3555 31.25 24.8047 31.25 25.4688L31.25 27.6758C31.25 28.3594 30.8398 28.7695 30.1758 28.7695L27.6172 28.7695L27.6172 31.3477C27.6172 31.9922 27.168 32.4414 26.5234 32.4414L24.3164 32.4414C23.6523 32.4414 23.2031 31.9922 23.2031 31.3477L23.2031 28.7695L20.6445 28.7695C20 28.7695 19.5703 28.3594 19.5703 27.6758Z" fill="black" fill-opacity="0.85"/>
 </g>
</svg>
