<?xml version="1.0" encoding="UTF-8"?>
<!--Generator: Apple Native CoreSVG 326-->
<!DOCTYPE svg
PUBLIC "-//W3C//DTD SVG 1.1//EN"
       "http://www.w3.org/Graphics/SVG/1.1/DTD/svg11.dtd">
<svg version="1.1" xmlns="http://www.w3.org/2000/svg" xmlns:xlink="http://www.w3.org/1999/xlink" viewBox="0 0 60.4102 49.8382">
 <g>
  <rect height="49.8382" opacity="0" width="60.4102" x="0" y="0"/>
  <path d="M60.0391 29.9093C60.0391 14.1867 47.9492 1.29605 32.5977 0.00698344C31.7969-0.0711416 31.1719 0.514796 31.1719 1.33511L31.1719 9.32339C31.1719 9.98745 31.6602 10.5148 32.3438 10.5734C41.9727 11.7453 49.4531 19.9484 49.4531 29.9093C49.4531 34.4406 47.9102 38.6007 45.1758 42.0382C44.8047 42.507 44.8242 43.0929 45.2344 43.5031L51.0352 49.3039C51.6211 49.8703 52.4609 49.8703 52.9688 49.2453C57.3828 44.0109 60.0391 37.2531 60.0391 29.9093Z" fill="black" fill-opacity="0.85"/>
  <path d="M0 29.9093C0 37.2726 2.65625 44.05 7.08984 49.2843C7.57812 49.8703 8.39844 49.8703 8.98438 49.3039L14.7852 43.5031C15.1953 43.0929 15.2148 42.507 14.8438 42.0382C12.1094 38.6007 10.5664 34.4406 10.5664 29.9093C10.5664 19.9484 18.0664 11.7453 27.6758 10.5734C28.3789 10.5148 28.8477 9.98745 28.8477 9.32339L28.8477 1.33511C28.8477 0.514796 28.2422-0.0711416 27.4414 0.00698344C12.0703 1.29605 0 14.1867 0 29.9093Z" fill="black" fill-opacity="0.85"/>
  <path d="M30.1758 41.3937C34.0039 41.3937 37.4219 39.4992 38.4766 36.1789C38.6133 35.8273 38.6523 35.5148 38.6523 35.1828C38.6523 34.4796 38.1836 34.05 37.4609 34.05C36.7773 34.05 36.3867 34.421 36.1914 35.0656C35.4102 37.7609 32.9297 39.1281 30.1953 39.1281C25.4297 39.1281 23.2422 34.9679 23.2422 30.2609C23.2422 25.5539 25.4883 21.5109 30.1953 21.5109C32.9883 21.5109 35.332 23.1515 36.0547 25.6125C36.2891 26.257 36.6016 26.6281 37.2656 26.6281C37.9688 26.6281 38.4961 26.1789 38.4961 25.4757C38.4961 25.2414 38.4375 24.8507 38.3008 24.5187C37.207 21.2375 33.9258 19.1867 30.1758 19.1867C24.0234 19.1867 20.5078 23.8742 20.5078 30.2609C20.5078 36.4328 23.7695 41.3937 30.1758 41.3937ZM28.8867 40.2218L30.4688 40.2218L30.4688 35.3195C30.4688 32.839 32.1094 31.1203 34.5508 31.1203C35.0391 31.1203 35.4102 31.2375 35.625 31.2375C36.0938 31.2375 36.4062 31.0031 36.4062 30.4757C36.4062 30.1828 36.25 29.9093 35.957 29.7335C35.625 29.4992 34.9805 29.4015 34.5312 29.4015C32.5 29.4015 30.9766 30.7296 30.4883 32.3117L30.4297 32.3117L30.4297 30.2609C30.4297 29.7921 30.1172 29.4601 29.668 29.4601C29.1992 29.4601 28.8867 29.7921 28.8867 30.2609Z" fill="black" fill-opacity="0.85"/>
 </g>
</svg>
