<?xml version="1.0" encoding="UTF-8"?>
<!--Generator: Apple Native CoreSVG 326-->
<!DOCTYPE svg
PUBLIC "-//W3C//DTD SVG 1.1//EN"
       "http://www.w3.org/Graphics/SVG/1.1/DTD/svg11.dtd">
<svg version="1.1" xmlns="http://www.w3.org/2000/svg" xmlns:xlink="http://www.w3.org/1999/xlink" viewBox="0 0 50.1172 55.8496">
 <g>
  <rect height="55.8496" opacity="0" width="50.1172" x="0" y="0"/>
  <path d="M24.8828 26.4502L48.4375 13.1494C48.0469 12.7197 47.5977 12.3096 47.0703 11.9971L27.5586 0.74707C25.8594-0.249023 23.9062-0.249023 22.1875 0.74707L2.69531 11.9971C2.16797 12.3096 1.69922 12.7197 1.30859 13.1689ZM23.0273 29.7119L0.0195312 16.7627C0 16.8604 0 16.9971 0 17.0947L0 39.165C0 41.1377 0.996094 42.8369 2.69531 43.8135L22.1875 55.1025C22.4609 55.2588 22.7344 55.3955 23.0273 55.4932ZM26.7383 29.7119L26.7383 55.4932C27.0117 55.3955 27.2852 55.2783 27.5586 55.1025L47.0703 43.8135C48.75 42.8369 49.7461 41.1377 49.7461 39.165L49.7461 17.0752C49.7461 16.9775 49.7461 16.8408 49.7461 16.7432Z" fill="black" fill-opacity="0.85"/>
 </g>
</svg>
