<?xml version="1.0" encoding="UTF-8"?>
<!--Generator: Apple Native CoreSVG 326-->
<!DOCTYPE svg
PUBLIC "-//W3C//DTD SVG 1.1//EN"
       "http://www.w3.org/Graphics/SVG/1.1/DTD/svg11.dtd">
<svg version="1.1" xmlns="http://www.w3.org/2000/svg" xmlns:xlink="http://www.w3.org/1999/xlink" viewBox="0 0 62.2461 54.2773">
 <g>
  <rect height="54.2773" opacity="0" width="62.2461" x="0" y="0"/>
  <path d="M6.64062 2.20703L8.80859 2.20703L8.80859 5.68359L6.64062 5.68359C6.07422 6.77734 4.88281 7.51953 3.55469 7.51953C1.60156 7.51953 0 5.91797 0 3.94531C0 1.99219 1.60156 0.371094 3.55469 0.371094C4.88281 0.371094 6.07422 1.13281 6.64062 2.20703ZM61.875 3.94531C61.875 5.91797 60.2539 7.51953 58.3008 7.51953C56.9727 7.51953 55.8008 6.77734 55.2148 5.68359L53.0664 5.68359L53.0664 2.20703L55.2148 2.20703C55.8008 1.13281 56.9727 0.371094 58.3008 0.371094C60.2539 0.371094 61.875 1.99219 61.875 3.94531ZM45.3711 5.68359L16.4844 5.68359L16.4844 2.20703L45.3711 2.20703Z" fill="black" fill-opacity="0.85"/>
  <path d="M10.4883 52.7734L14.8242 52.7734C15.7812 52.7734 16.4844 52.0703 16.4844 51.0547L16.4844 1.71875C16.4844 0.722656 15.7812 0 14.8242 0L10.4883 0C9.51172 0 8.80859 0.722656 8.80859 1.71875L8.80859 51.0547C8.80859 52.0703 9.51172 52.7734 10.4883 52.7734ZM47.0508 52.7734L51.3867 52.7734C52.3633 52.7734 53.0664 52.0703 53.0664 51.0547L53.0664 1.71875C53.0664 0.722656 52.3633 0 51.3867 0L47.0508 0C46.0742 0 45.3711 0.722656 45.3711 1.71875L45.3711 51.0547C45.3711 52.0703 46.0742 52.7734 47.0508 52.7734Z" fill="black" fill-opacity="0.85"/>
 </g>
</svg>
