<?xml version="1.0" encoding="UTF-8"?>
<!--Generator: Apple Native CoreSVG 326-->
<!DOCTYPE svg
PUBLIC "-//W3C//DTD SVG 1.1//EN"
       "http://www.w3.org/Graphics/SVG/1.1/DTD/svg11.dtd">
<svg version="1.1" xmlns="http://www.w3.org/2000/svg" xmlns:xlink="http://www.w3.org/1999/xlink" viewBox="0 0 56.2305 55.8789">
 <g>
  <rect height="55.8789" opacity="0" width="56.2305" x="0" y="0"/>
  <path d="M27.9297 55.8594C43.2812 55.8594 55.8594 43.3008 55.8594 27.9297C55.8594 12.5586 43.2812 0 27.9297 0C12.5781 0 0 12.5586 0 27.9297C0 43.3008 12.5781 55.8594 27.9297 55.8594ZM27.9297 46.6797C17.5586 46.6797 9.16016 38.3008 9.16016 27.9297C9.16016 17.5586 17.5586 9.16016 27.9297 9.16016C38.3008 9.16016 46.6992 17.5586 46.6992 27.9297C46.6992 38.3008 38.3008 46.6797 27.9297 46.6797Z" fill="black" fill-opacity="0.85"/>
  <path d="M18.5547 38.3789C19.2773 38.3789 19.7852 37.8516 19.7852 37.0898L19.7852 32.4805L21.3281 30.957L26.1719 37.7734C26.4453 38.1445 26.7969 38.3789 27.2656 38.3789C27.9102 38.3789 28.4375 37.9297 28.4375 37.2852C28.4375 36.9922 28.3008 36.6992 28.0859 36.4258L23.0664 29.4336L27.793 24.4141C28.0664 24.1016 28.2227 23.9258 28.2227 23.5352C28.2227 22.9688 27.7344 22.4805 27.1289 22.4805C26.7773 22.4805 26.4062 22.6758 26.1719 22.9297L19.8633 29.8828L19.7852 29.8828L19.7852 17.7539C19.7852 16.9727 19.2773 16.4258 18.5547 16.4258C17.832 16.4258 17.3242 16.9531 17.3242 17.7344L17.3242 37.0898C17.3242 37.8516 17.832 38.3789 18.5547 38.3789ZM32.5781 38.3789C33.1445 38.3789 33.75 38.0273 33.75 37.0898L33.75 28.8672C33.75 27.0117 34.4727 24.8242 36.7188 24.8242C37.1875 24.8242 37.6562 24.8047 38.0078 24.6289C38.3398 24.4922 38.5352 24.1992 38.5352 23.7695C38.5352 22.9102 37.8125 22.4805 36.9531 22.4805C35.293 22.4805 34.1797 23.8867 33.8086 25.5469L33.6523 25.5469L33.6523 23.7109C33.6523 23.0078 33.1641 22.4805 32.5391 22.4805C31.875 22.4805 31.4062 23.0078 31.4062 23.7109L31.4062 37.0898C31.4062 37.8711 31.8164 38.3789 32.5781 38.3789ZM39.4922 38.1445C40.4492 38.1445 41.1523 37.4609 41.1523 36.5234C41.1523 35.5664 40.4492 34.8633 39.4922 34.8633C38.5352 34.8633 37.8516 35.5664 37.8516 36.5234C37.8516 37.4609 38.5352 38.1445 39.4922 38.1445Z" fill="black" fill-opacity="0.85"/>
 </g>
</svg>
