<?xml version="1.0" encoding="UTF-8"?>
<!--Generator: Apple Native CoreSVG 326-->
<!DOCTYPE svg
PUBLIC "-//W3C//DTD SVG 1.1//EN"
       "http://www.w3.org/Graphics/SVG/1.1/DTD/svg11.dtd">
<svg version="1.1" xmlns="http://www.w3.org/2000/svg" xmlns:xlink="http://www.w3.org/1999/xlink" viewBox="0 0 60.961 50.918">
 <g>
  <rect height="50.918" opacity="0" width="60.961" x="0" y="0"/>
  <path d="M30.295 50.8789C44.3379 50.8789 55.7246 39.4922 55.7246 25.4492C55.7246 11.4062 44.3379 0 30.295 0C16.252 0 4.86526 11.4062 4.86526 25.4492L8.49808 25.4492C8.49808 13.3984 18.2442 3.65234 30.295 3.65234C42.3457 3.65234 52.0918 13.3984 52.0918 25.4492C52.0918 37.5 42.3457 47.2461 30.295 47.2461C22.834 47.2461 16.1739 43.457 12.3653 37.7539C11.7207 36.875 10.7051 36.6016 9.80667 37.1484C8.94729 37.6562 8.69339 38.8477 9.39651 39.8047C13.9473 46.5039 21.6426 50.8789 30.295 50.8789ZM1.60354 20.7227C0.00198146 20.7227-0.447237 21.8164 0.470731 23.0859L6.01761 30.9766C6.75979 32.0508 7.83401 32.0312 8.55667 30.9766L14.1035 23.0664C14.9825 21.8164 14.5528 20.7227 12.9707 20.7227Z" fill="black" fill-opacity="0.85"/>
  <path d="M20.9395 35.8984C21.6621 35.8984 22.1504 35.3711 22.1504 34.6094L22.1504 30L23.6934 28.4766L28.5567 35.293C28.8106 35.6641 29.1621 35.8984 29.6309 35.8984C30.295 35.8984 30.8028 35.4492 30.8028 34.8047C30.8028 34.5117 30.666 34.2188 30.4707 33.9453L25.4512 26.9531L30.1582 21.9336C30.4512 21.6211 30.5879 21.4453 30.5879 21.0547C30.5879 20.4883 30.1192 20 29.4942 20C29.1621 20 28.7715 20.1953 28.5567 20.4492L22.2285 27.4023L22.1504 27.4023L22.1504 15.2734C22.1504 14.4922 21.6621 13.9453 20.9395 13.9453C20.2168 13.9453 19.6895 14.4727 19.6895 15.2539L19.6895 34.6094C19.6895 35.3711 20.2168 35.8984 20.9395 35.8984ZM34.9434 35.8984C35.5098 35.8984 36.1153 35.5469 36.1153 34.6094L36.1153 26.3867C36.1153 24.5312 36.8379 22.3438 39.084 22.3438C39.5528 22.3438 40.0215 22.3242 40.3731 22.1484C40.7246 22.0117 40.9004 21.7188 40.9004 21.2891C40.9004 20.4297 40.1778 20 39.3184 20C37.6582 20 36.5645 21.4062 36.1739 23.0664L36.0176 23.0664L36.0176 21.2305C36.0176 20.5273 35.5293 20 34.9043 20C34.2598 20 33.7715 20.5273 33.7715 21.2305L33.7715 34.6094C33.7715 35.3906 34.1817 35.8984 34.9434 35.8984ZM41.8575 35.6641C42.834 35.6641 43.5176 34.9805 43.5176 34.043C43.5176 33.0859 42.834 32.3828 41.8575 32.3828C40.9004 32.3828 40.2168 33.0859 40.2168 34.043C40.2168 34.9805 40.9004 35.6641 41.8575 35.6641Z" fill="black" fill-opacity="0.85"/>
 </g>
</svg>
