<?xml version="1.0" encoding="UTF-8"?>
<!--Generator: Apple Native CoreSVG 326-->
<!DOCTYPE svg
PUBLIC "-//W3C//DTD SVG 1.1//EN"
       "http://www.w3.org/Graphics/SVG/1.1/DTD/svg11.dtd">
<svg version="1.1" xmlns="http://www.w3.org/2000/svg" xmlns:xlink="http://www.w3.org/1999/xlink" viewBox="0 0 49.5508 15.8008">
 <g>
  <rect height="15.8008" opacity="0" width="49.5508" x="0" y="0"/>
  <path d="M0 1.83594C0 2.83203 0.820312 3.65234 1.83594 3.65234L47.3438 3.65234C48.3398 3.65234 49.1797 2.83203 49.1797 1.83594C49.1797 0.820312 48.3398 0 47.3438 0L1.83594 0C0.820312 0 0 0.820312 0 1.83594ZM0 13.9453C0 14.9414 0.820312 15.7617 1.83594 15.7617L10.7031 15.7617C11.7188 15.7617 12.5391 14.9414 12.5391 13.9453C12.5391 12.9297 11.7188 12.1094 10.7031 12.1094L1.83594 12.1094C0.820312 12.1094 0 12.9297 0 13.9453ZM18.3398 13.9453C18.3398 14.9414 19.1602 15.7617 20.1562 15.7617L29.0039 15.7617C30.0195 15.7617 30.8398 14.9414 30.8398 13.9453C30.8398 12.9297 30.0195 12.1094 29.0039 12.1094L20.1562 12.1094C19.1602 12.1094 18.3398 12.9297 18.3398 13.9453ZM36.6406 13.9453C36.6406 14.9414 37.4609 15.7617 38.457 15.7617L47.1875 15.7617C48.1836 15.7617 49.0039 14.9414 49.0039 13.9453C49.0039 12.9297 48.1836 12.1094 47.1875 12.1094L38.457 12.1094C37.4609 12.1094 36.6406 12.9297 36.6406 13.9453Z" fill="black" fill-opacity="0.85"/>
 </g>
</svg>
