<?xml version="1.0" encoding="UTF-8"?>
<!--Generator: Apple Native CoreSVG 326-->
<!DOCTYPE svg
PUBLIC "-//W3C//DTD SVG 1.1//EN"
       "http://www.w3.org/Graphics/SVG/1.1/DTD/svg11.dtd">
<svg version="1.1" xmlns="http://www.w3.org/2000/svg" xmlns:xlink="http://www.w3.org/1999/xlink" viewBox="0 0 51.25 50.918">
 <g>
  <rect height="50.918" opacity="0" width="51.25" x="0" y="0"/>
  <path d="M25.4297 50.8789C39.4727 50.8789 50.8789 39.4922 50.8789 25.4492C50.8789 11.4062 39.4727 0 25.4297 0C11.3867 0 0 11.4062 0 25.4492C0 39.4922 11.3867 50.8789 25.4297 50.8789ZM25.4297 47.2461C13.3789 47.2461 3.63281 37.5 3.63281 25.4492C3.63281 13.3984 13.3789 3.65234 25.4297 3.65234C37.4805 3.65234 47.2266 13.3984 47.2266 25.4492C47.2266 37.5 37.4805 47.2461 25.4297 47.2461Z" fill="black" fill-opacity="0.85"/>
  <path d="M33.8672 11.5234L16.8359 11.5234C15.0781 11.5234 13.9062 12.7539 13.9062 14.5898L13.9062 18.2812L36.7969 18.2812L36.7969 14.5898C36.7969 12.7539 35.625 11.5234 33.8672 11.5234ZM17.8906 15.957C17.6172 15.5469 17.6953 15 18.0859 14.707C18.4961 14.4336 19.043 14.5312 19.3164 14.9414C19.5898 15.3125 19.5117 15.8789 19.1016 16.1523C18.7109 16.4453 18.1836 16.3281 17.8906 15.957ZM22.1484 16.6602C21.4648 16.6602 20.9375 16.1133 20.9375 15.4492C20.9375 14.7656 21.4648 14.1992 22.1484 14.1992C22.8125 14.1992 23.3398 14.7656 23.3398 15.4492C23.3398 16.1133 22.8125 16.6602 22.1484 16.6602ZM13.9062 34.2578L36.7969 34.2578L36.7969 19.9609L13.9062 19.9609ZM22.1875 23.7305C21.7773 23.7305 21.4844 23.418 21.4844 23.0078C21.4844 22.5977 21.7773 22.3047 22.1875 22.3047L28.5938 22.3047C29.0234 22.3047 29.2969 22.5977 29.2969 23.0078C29.2969 23.418 29.0234 23.7305 28.5938 23.7305ZM36.7969 35.9375L13.9062 35.9375L13.9062 36.2109C13.9062 38.0469 15.0781 39.2773 16.8359 39.2773L33.8672 39.2773C35.625 39.2773 36.7969 38.0469 36.7969 36.2109Z" fill="black" fill-opacity="0.85"/>
 </g>
</svg>
