<?xml version="1.0" encoding="UTF-8"?>
<!--Generator: Apple Native CoreSVG 326-->
<!DOCTYPE svg
PUBLIC "-//W3C//DTD SVG 1.1//EN"
       "http://www.w3.org/Graphics/SVG/1.1/DTD/svg11.dtd">
<svg version="1.1" xmlns="http://www.w3.org/2000/svg" xmlns:xlink="http://www.w3.org/1999/xlink" viewBox="0 0 59.1406 59.5117">
 <g>
  <rect height="59.5117" opacity="0" width="59.1406" x="0" y="0"/>
  <path d="M19.707 25.7031L39.0625 25.7031C42.4219 25.7031 44.2969 23.8477 44.2969 20.5469L44.2969 12.6953C44.2969 9.39453 42.4219 7.53906 39.0625 7.53906L19.707 7.53906C16.3477 7.53906 14.4727 9.39453 14.4727 12.6953L14.4727 20.5469C14.4727 23.8477 16.3477 25.7031 19.707 25.7031ZM10.9766 59.4727L47.793 59.4727C51.1523 59.4727 53.0273 57.6172 53.0273 54.3164L53.0273 46.4648C53.0273 43.1641 51.1523 41.3086 47.793 41.3086L10.9766 41.3086C7.61719 41.3086 5.74219 43.1641 5.74219 46.4648L5.74219 54.3164C5.74219 57.6172 7.61719 59.4727 10.9766 59.4727Z" fill="black" fill-opacity="0.85"/>
  <path d="M1.50391 3.18359L57.2461 3.18359C58.1055 3.18359 58.7695 2.44141 58.7695 1.60156C58.7695 0.742188 58.1055 0 57.2461 0L1.50391 0C0.664062 0 0 0.742188 0 1.60156C0 2.44141 0.664062 3.18359 1.50391 3.18359ZM1.50391 36.9531L57.2461 36.9531C58.1055 36.9531 58.7695 36.2109 58.7695 35.3711C58.7695 34.5117 58.1055 33.7695 57.2461 33.7695L1.50391 33.7695C0.664062 33.7695 0 34.5117 0 35.3711C0 36.2109 0.664062 36.9531 1.50391 36.9531Z" fill="black" fill-opacity="0.85"/>
 </g>
</svg>
