<?xml version="1.0" encoding="UTF-8"?>
<!--Generator: Apple Native CoreSVG 326-->
<!DOCTYPE svg
PUBLIC "-//W3C//DTD SVG 1.1//EN"
       "http://www.w3.org/Graphics/SVG/1.1/DTD/svg11.dtd">
<svg version="1.1" xmlns="http://www.w3.org/2000/svg" xmlns:xlink="http://www.w3.org/1999/xlink" viewBox="0 0 33.9453 48.8086">
 <g>
  <rect height="48.8086" opacity="0" width="33.9453" x="0" y="0"/>
  <path d="M13.2422 41.8945C18.6133 41.8945 22.3047 39.2188 24.043 35.332L24.1992 35.332L24.1992 40.3711C24.1992 41.5234 25.0195 42.3828 26.1328 42.3633C27.2656 42.3633 28.0859 41.5234 28.0859 40.3906L28.0859 7.79297L32.168 7.77344C32.9688 7.77344 33.5742 7.16797 33.5742 6.38672C33.5742 5.58594 32.9688 5 32.168 5L28.0859 5.01953L28.0859 2.08984C28.0859 0.898438 27.207 0 26.0547 0C24.8828 0 24.0039 0.898438 24.0039 2.08984L24.0039 5.01953L13.9453 5.01953C13.125 5.01953 12.5195 5.60547 12.5195 6.40625C12.5195 7.20703 13.125 7.79297 13.9453 7.79297L24.0039 7.79297L24.0039 19.2969L23.8477 19.2969C22.1094 15.1758 18.0859 12.832 13.2422 12.832C5.33203 12.832 0 19.1406 0 27.3633C0 35.8203 5.50781 41.8945 13.2422 41.8945ZM14.1406 38.3008C8.04688 38.3008 4.19922 33.5938 4.19922 27.3633C4.19922 20.6641 8.49609 16.4258 14.1406 16.4258C19.9023 16.4258 23.9844 21.2109 23.9844 27.3633C23.9844 33.418 19.9414 38.3008 14.1406 38.3008ZM2.32422 47.3438C2.32422 48.1836 2.94922 48.7695 3.76953 48.7695L28.1445 48.7695C28.9844 48.7695 29.5898 48.1641 29.5898 47.3438C29.5898 46.543 28.9844 45.9375 28.1445 45.9375L3.76953 45.9375C2.94922 45.9375 2.32422 46.543 2.32422 47.3438Z" fill="black" fill-opacity="0.85"/>
 </g>
</svg>
