<?xml version="1.0" encoding="UTF-8"?>
<!--Generator: Apple Native CoreSVG 326-->
<!DOCTYPE svg
PUBLIC "-//W3C//DTD SVG 1.1//EN"
       "http://www.w3.org/Graphics/SVG/1.1/DTD/svg11.dtd">
<svg version="1.1" xmlns="http://www.w3.org/2000/svg" xmlns:xlink="http://www.w3.org/1999/xlink" viewBox="0 0 51.25 50.918">
 <g>
  <rect height="50.918" opacity="0" width="51.25" x="0" y="0"/>
  <path d="M50.8789 25.4492C50.8789 39.4531 39.4531 50.8789 25.4297 50.8789C11.4258 50.8789 0 39.4531 0 25.4492C0 11.4258 11.4258 0 25.4297 0C39.4531 0 50.8789 11.4258 50.8789 25.4492ZM18.9844 35.8594C18.5352 35.8594 18.1445 36.2109 18.1445 36.6602C18.1445 37.1094 18.5352 37.4609 18.9844 37.4609L31.582 37.4609C32.0117 37.4609 32.4023 37.1094 32.4023 36.6602C32.4023 36.2109 32.0117 35.8594 31.582 35.8594ZM29.082 13.75L29.082 14.9414L24.1016 14.9414C23.6523 14.9414 23.3203 15.293 23.3203 15.7031C23.3203 16.1523 23.6523 16.5039 24.1016 16.5039L29.082 16.5039L29.082 21.9727L28.9453 21.9727C28.0469 19.9023 25.9766 18.9258 23.6914 18.9258C19.9414 18.9258 16.8945 21.875 16.8945 26.4062C16.8945 30.6836 19.6875 33.9062 23.6914 33.9062C25.9375 33.9062 28.0273 32.9883 29.0625 30.8398L29.1406 30.8398L29.1406 32.9102C29.1406 33.6133 29.6875 34.1602 30.4102 34.1602C31.1133 34.1602 31.6406 33.6133 31.6406 32.9102L31.6406 16.5039L33.6133 16.5039C34.043 16.5039 34.3945 16.1328 34.3945 15.7031C34.3945 15.293 34.043 14.9414 33.6133 14.9414L31.6406 14.9414L31.6406 13.75C31.6406 12.9492 31.1523 12.4414 30.3711 12.4414C29.5703 12.4414 29.082 12.9492 29.082 13.75ZM29.0625 26.4062C29.0625 29.4141 27.1289 31.6797 24.3359 31.6797C21.3281 31.6797 19.5312 29.3555 19.5312 26.4062C19.5312 23.3203 21.5039 21.1523 24.3359 21.1523C27.2852 21.1523 29.0625 23.5742 29.0625 26.4062Z" fill="black" fill-opacity="0.85"/>
 </g>
</svg>
