<?xml version="1.0" encoding="UTF-8"?>
<!--Generator: Apple Native CoreSVG 326-->
<!DOCTYPE svg
PUBLIC "-//W3C//DTD SVG 1.1//EN"
       "http://www.w3.org/Graphics/SVG/1.1/DTD/svg11.dtd">
<svg version="1.1" xmlns="http://www.w3.org/2000/svg" xmlns:xlink="http://www.w3.org/1999/xlink" viewBox="0 0 37.5391 52.9102">
 <g>
  <rect height="52.9102" opacity="0" width="37.5391" x="0" y="0"/>
  <path d="M0 51.1328C0 52.0898 0.761719 52.8711 1.73828 52.8711C2.69531 52.8711 3.47656 52.0898 3.47656 51.1328L3.47656 4.80469C3.47656 4.00391 3.98438 3.47656 4.74609 3.47656L32.4219 3.47656C33.1836 3.47656 33.6914 4.00391 33.6914 4.80469L33.6914 51.1328C33.6914 52.0898 34.4531 52.8711 35.4297 52.8711C36.3867 52.8711 37.168 52.0898 37.168 51.1328L37.168 4.57031C37.168 1.83594 35.293 0 32.4805 0L4.6875 0C1.875 0 0 1.83594 0 4.57031Z" fill="black" fill-opacity="0.85"/>
  <path d="M6.19141 51.5234C6.19141 51.9727 6.5625 52.1875 6.99219 52.0117L15.2148 48.2812C15.8203 48.0273 16.0156 47.8125 16.0156 47.2461L16.0156 10.957C16.0156 10.3906 15.8203 10.1953 15.2734 9.96094L6.99219 6.21094C6.5625 6.01562 6.19141 6.25 6.19141 6.67969Z" fill="black" fill-opacity="0.85"/>
 </g>
</svg>
