<?xml version="1.0" encoding="UTF-8"?>
<!--Generator: Apple Native CoreSVG 326-->
<!DOCTYPE svg
PUBLIC "-//W3C//DTD SVG 1.1//EN"
       "http://www.w3.org/Graphics/SVG/1.1/DTD/svg11.dtd">
<svg version="1.1" xmlns="http://www.w3.org/2000/svg" xmlns:xlink="http://www.w3.org/1999/xlink" viewBox="0 0 55.1367 40.0977">
 <g>
  <rect height="40.0977" opacity="0" width="55.1367" x="0" y="0"/>
  <path d="M54.7656 7.59766L54.7656 32.5586C54.7656 37.5391 52.2266 40.0977 47.168 40.0977L7.59766 40.0977C2.55859 40.0977 0 37.5586 0 32.5586L0 7.59766C0 2.59766 2.55859 0.0585938 7.59766 0.0585938L47.168 0.0585938C52.2266 0.0585938 54.7656 2.61719 54.7656 7.59766ZM30.8008 28.0078C30.8008 29.6289 32.0898 30.9375 33.7109 30.9375C35.332 30.9375 36.6211 29.6289 36.6211 28.0078C36.6211 26.4062 35.332 25.0977 33.7109 25.0977C32.0898 25.0977 30.8008 26.4062 30.8008 28.0078ZM39.6875 28.0078C39.6875 29.6289 40.9961 30.9375 42.6172 30.9375C44.2188 30.9375 45.5273 29.6289 45.5273 28.0078C45.5273 26.4062 44.2188 25.0977 42.6172 25.0977C40.9961 25.0977 39.6875 26.4062 39.6875 28.0078ZM16.9336 10.1367C15.3125 12.6367 13.4961 15.625 12.3438 18.1055C11.6211 19.6875 10.7812 21.6016 10.7812 23.5938C10.7812 27.793 13.6719 30.6055 17.9883 30.6055C22.3047 30.6055 25.1953 27.793 25.1953 23.5938C25.1953 21.6016 24.3555 19.6875 23.6328 18.1055C22.4805 15.625 20.6641 12.6367 19.043 10.1367C18.75 9.66797 18.418 9.45312 17.9883 9.45312C17.5586 9.45312 17.2266 9.66797 16.9336 10.1367ZM30.8008 20.0391C30.8008 21.6406 32.0898 22.9492 33.7109 22.9492C35.332 22.9492 36.6211 21.6406 36.6211 20.0391C36.6211 18.418 35.332 17.1094 33.7109 17.1094C32.0898 17.1094 30.8008 18.418 30.8008 20.0391ZM39.6875 20.0391C39.6875 21.6406 40.9961 22.9492 42.6172 22.9492C44.2188 22.9492 45.5273 21.6406 45.5273 20.0391C45.5273 18.418 44.2188 17.1094 42.6172 17.1094C40.9961 17.1094 39.6875 18.418 39.6875 20.0391ZM30.8008 12.0508C30.8008 13.6719 32.0898 14.9609 33.7109 14.9609C35.332 14.9609 36.6211 13.6719 36.6211 12.0508C36.6211 10.4297 35.332 9.14062 33.7109 9.14062C32.0898 9.14062 30.8008 10.4297 30.8008 12.0508ZM39.6875 12.0508C39.6875 13.6719 40.9961 14.9609 42.6172 14.9609C44.2188 14.9609 45.5273 13.6719 45.5273 12.0508C45.5273 10.4297 44.2188 9.14062 42.6172 9.14062C40.9961 9.14062 39.6875 10.4297 39.6875 12.0508Z" fill="black" fill-opacity="0.85"/>
 </g>
</svg>
