<?xml version="1.0" encoding="UTF-8"?>
<!--Generator: Apple Native CoreSVG 326-->
<!DOCTYPE svg
PUBLIC "-//W3C//DTD SVG 1.1//EN"
       "http://www.w3.org/Graphics/SVG/1.1/DTD/svg11.dtd">
<svg version="1.1" xmlns="http://www.w3.org/2000/svg" xmlns:xlink="http://www.w3.org/1999/xlink" viewBox="0 0 51.25 50.918">
 <g>
  <rect height="50.918" opacity="0" width="51.25" x="0" y="0"/>
  <path d="M50.8789 25.4688C50.8789 39.4922 39.4531 50.918 25.4297 50.918C11.4258 50.918 0 39.4922 0 25.4688C0 11.4648 11.4258 0.0390625 25.4297 0.0390625C39.4531 0.0390625 50.8789 11.4648 50.8789 25.4688ZM13.6328 19.8633L13.6328 36.5039C13.6328 38.3789 14.8242 39.6484 16.6406 39.6484L34.0625 39.6484C35.8984 39.6484 37.0703 38.3789 37.0703 36.5039L37.0703 19.8633ZM32.5781 24.5703L32.5781 33.7695C32.5781 34.9609 31.7969 35.7422 30.6055 35.7422L20.1172 35.7422C18.9258 35.7422 18.125 34.9609 18.125 33.7695L18.125 24.5703C18.125 23.3789 18.9258 22.5781 20.1172 22.5781L30.6055 22.5781C31.7969 22.5781 32.5781 23.3789 32.5781 24.5703ZM20.293 24.1016C19.8633 24.1016 19.6484 24.3359 19.6484 24.7461L19.6484 33.5742C19.6484 34.0039 19.8633 34.2578 20.293 34.2578L30.4297 34.2578C30.8398 34.2578 31.0742 34.0039 31.0742 33.5742L31.0742 24.7461C31.0742 24.3359 30.8398 24.1016 30.4297 24.1016ZM16.6406 11.2305C14.8242 11.2305 13.6328 12.4805 13.6328 14.375L13.6328 18.125L37.0703 18.125L37.0703 14.375C37.0703 12.4805 35.8984 11.2305 34.0625 11.2305ZM19.6875 15.2344C19.6875 15.918 19.1406 16.4844 18.4375 16.4844C17.7539 16.4844 17.1875 15.918 17.1875 15.2344C17.1875 14.5312 17.7539 13.9648 18.4375 13.9648C19.1406 13.9648 19.6875 14.5312 19.6875 15.2344ZM23.3008 15.2344C23.3008 15.918 22.7539 16.4844 22.0703 16.4844C21.3672 16.4844 20.8398 15.918 20.8398 15.2344C20.8398 14.5312 21.3672 13.9648 22.0703 13.9648C22.7539 13.9648 23.3008 14.5312 23.3008 15.2344ZM33.7695 15.2344C33.7695 15.6445 33.457 15.957 33.0273 15.957L29.5117 15.957C29.1016 15.957 28.7891 15.6445 28.7891 15.2344C28.7891 14.8047 29.1016 14.4922 29.5117 14.4922L33.0273 14.4922C33.457 14.4922 33.7695 14.8047 33.7695 15.2344Z" fill="black" fill-opacity="0.85"/>
 </g>
</svg>
