<?xml version="1.0" encoding="UTF-8"?>
<!--Generator: Apple Native CoreSVG 326-->
<!DOCTYPE svg
PUBLIC "-//W3C//DTD SVG 1.1//EN"
       "http://www.w3.org/Graphics/SVG/1.1/DTD/svg11.dtd">
<svg version="1.1" xmlns="http://www.w3.org/2000/svg" xmlns:xlink="http://www.w3.org/1999/xlink" viewBox="0 0 55.0195 62.344">
 <g>
  <rect height="62.344" opacity="0" width="55.0195" x="0" y="0"/>
  <path d="M48.7305 33.7622C47.0012 33.1735 44.9849 33.6753 43.7503 35.2407C43.4241 34.8311 43.0161 34.4797 42.5391 34.2091C41.8485 33.7775 41.0631 33.5558 40.2734 33.547L40.2734 29.7364C40.2734 27.6661 38.9258 26.2794 36.8555 26.2794L17.793 26.2794C15.7227 26.2794 14.375 27.6661 14.375 29.7364L14.375 46.3966C14.375 48.4864 15.7227 49.8536 17.793 49.8536L29.924 49.8536C30.9264 51.5932 31.875 52.8794 31.875 54.17C31.875 54.6974 31.7383 55.0685 31.4062 55.6935C31.1461 56.1447 30.9764 56.6121 30.8921 57.0802L11.4258 57.0802C8.14453 57.0802 5.91797 54.795 5.91797 51.338L5.91797 20.6935L48.7305 20.6935ZM37.8125 30.1075L37.8125 34.227C37.3845 34.4883 36.9941 34.8317 36.6634 35.2566C36.3466 34.8503 35.9505 34.5006 35.4883 34.2286C33.4375 32.9396 30.5859 33.4669 29.2188 35.7911C28.0859 37.6075 27.6172 39.756 27.6172 41.7286C27.6172 44.0217 28.0751 45.8547 28.6936 47.3732L18.1445 47.3732C17.3438 47.3732 16.8359 46.8654 16.8359 46.045L16.8359 30.1075C16.8359 29.2677 17.3438 28.7599 18.1445 28.7599L36.5039 28.7599C37.3047 28.7599 37.8125 29.2677 37.8125 30.1075ZM48.7305 10.9669L48.7305 17.7247L5.91797 17.7247L5.91797 10.9669C5.91797 7.50988 8.14453 5.22473 11.4258 5.22473L43.2227 5.22473C46.5039 5.22473 48.7305 7.50988 48.7305 10.9669ZM12.4609 12.7443C12.4609 13.9747 13.4766 15.0099 14.7461 15.0099C15.9766 15.0099 16.9922 13.9747 16.9922 12.7443C16.9922 11.4747 15.9766 10.4591 14.7461 10.4591C13.4766 10.4591 12.4609 11.4747 12.4609 12.7443ZM19.0625 12.7443C19.0625 13.9747 20.0586 15.0099 21.3281 15.0099C22.5586 15.0099 23.5742 13.9747 23.5742 12.7443C23.5742 11.4747 22.5586 10.4591 21.3281 10.4591C20.0586 10.4591 19.0625 11.4747 19.0625 12.7443ZM34.5312 11.5724C33.8477 11.5724 33.3789 12.0411 33.3789 12.7443C33.3789 13.4279 33.8477 13.9161 34.5312 13.9161L40.8984 13.9161C41.6211 13.9161 42.0898 13.4279 42.0898 12.7443C42.0898 12.0411 41.6211 11.5724 40.8984 11.5724Z" fill="black" fill-opacity="0.85"/>
  <path d="M34.4336 59.131C35.0781 59.5411 36.1133 59.5216 36.6797 58.5646C37.4414 57.2169 37.8516 55.6935 37.8516 54.17C37.8516 48.6427 33.5742 45.8888 33.5742 41.7286C33.5742 40.6154 33.7891 39.8146 34.4336 38.7013C34.8633 37.9396 34.5508 37.1193 33.9453 36.7482C33.2812 36.338 32.2852 36.4161 31.7383 37.3341C30.9375 38.6427 30.5859 40.1857 30.5859 41.7286C30.5859 47.0607 34.8438 49.8732 34.8438 54.17C34.8438 55.2833 34.6094 56.045 33.9844 57.1583C33.5352 57.9591 33.9062 58.7599 34.4336 59.131ZM41.543 59.1114C42.2266 59.5411 43.2617 59.4825 43.7695 58.545C44.5312 57.1974 44.9609 55.6935 44.9609 54.17C44.9609 48.6232 40.6641 45.8693 40.6641 41.7091C40.6641 40.6154 40.8984 39.8146 41.5234 38.6818C41.9727 37.92 41.6406 37.1193 41.0156 36.7482C40.3711 36.3575 39.375 36.4161 38.8281 37.3146C38.0469 38.6427 37.6953 40.1661 37.6953 41.7091C37.6953 47.0607 41.9531 49.8536 41.9531 54.17C41.9531 55.2638 41.7188 56.0255 41.0938 57.1388C40.625 57.9591 40.9961 58.7404 41.543 59.1114ZM48.6328 59.0919C49.3164 59.5216 50.3516 59.463 50.8594 58.5255C51.6406 57.1779 52.0508 55.6739 52.0508 54.1505C52.0508 48.6036 47.7734 45.8497 47.7734 41.6896C47.7734 40.5958 47.9883 39.795 48.6133 38.6622C49.0625 37.9005 48.7305 37.0997 48.125 36.7286C47.4609 36.338 46.4648 36.3966 45.918 37.295C45.1367 38.6232 44.7852 40.1466 44.7852 41.6896C44.7852 47.0411 49.043 49.8341 49.043 54.1505C49.043 55.2443 48.8086 56.006 48.1836 57.1193C47.7344 57.9396 48.0859 58.7208 48.6328 59.0919Z" fill="black" fill-opacity="0.85"/>
 </g>
</svg>
