<?xml version="1.0" encoding="UTF-8"?>
<!--Generator: Apple Native CoreSVG 326-->
<!DOCTYPE svg
PUBLIC "-//W3C//DTD SVG 1.1//EN"
       "http://www.w3.org/Graphics/SVG/1.1/DTD/svg11.dtd">
<svg version="1.1" xmlns="http://www.w3.org/2000/svg" xmlns:xlink="http://www.w3.org/1999/xlink" viewBox="0 0 46.4453 45.957">
 <g>
  <rect height="45.957" opacity="0" width="46.4453" x="0" y="0"/>
  <path d="M0 38.4375C0 43.4375 2.55859 45.957 7.59766 45.957L38.4766 45.957C43.5352 45.957 46.0742 43.418 46.0742 38.4375L46.0742 7.57812C46.0742 2.59766 43.5352 0.0585938 38.4766 0.0585938L7.59766 0.0585938C2.55859 0.0585938 0 2.57812 0 7.57812ZM3.45703 38.2617L3.45703 7.75391C3.45703 4.96094 4.94141 3.51562 7.67578 3.51562L10.2734 3.51562L10.2734 7.1875C10.2734 7.94922 10.8398 8.51562 11.6016 8.51562C12.3633 8.51562 12.9297 7.94922 12.9297 7.1875L12.9297 3.51562L17.9102 3.51562L17.9102 7.1875C17.9102 7.94922 18.4766 8.51562 19.2383 8.51562C20 8.51562 20.5664 7.94922 20.5664 7.1875L20.5664 3.51562L25.5469 3.51562L25.5469 7.1875C25.5469 7.94922 26.1133 8.51562 26.875 8.51562C27.6367 8.51562 28.2227 7.94922 28.2227 7.1875L28.2227 3.51562L33.1836 3.51562L33.1836 7.1875C33.1836 7.94922 33.75 8.51562 34.5117 8.51562C35.2734 8.51562 35.8594 7.94922 35.8594 7.1875L35.8594 3.51562L38.418 3.51562C41.0938 3.51562 42.6172 4.96094 42.6172 7.75391L42.6172 38.2617C42.6172 41.0547 41.0938 42.5 38.418 42.5L35.8594 42.5L35.8594 38.8281C35.8594 38.0664 35.2734 37.4805 34.5117 37.4805C33.75 37.4805 33.1836 38.0664 33.1836 38.8281L33.1836 42.5L28.2227 42.5L28.2227 38.8281C28.2227 38.0664 27.6367 37.4805 26.875 37.4805C26.1133 37.4805 25.5469 38.0664 25.5469 38.8281L25.5469 42.5L20.5664 42.5L20.5664 38.8281C20.5664 38.0664 20 37.4805 19.2383 37.4805C18.4766 37.4805 17.9102 38.0664 17.9102 38.8281L17.9102 42.5L12.9297 42.5L12.9297 38.8281C12.9297 38.0664 12.3633 37.4805 11.6016 37.4805C10.8398 37.4805 10.2734 38.0664 10.2734 38.8281L10.2734 42.5L7.67578 42.5C4.94141 42.5 3.45703 41.0547 3.45703 38.2617ZM10.293 30.6641C10.293 31.9922 11.2109 32.8516 12.5586 32.8516L33.5352 32.8516C34.8828 32.8516 35.7812 31.9922 35.7812 30.6641L35.7812 15.3516C35.7812 14.0234 34.8828 13.1641 33.5352 13.1641L12.5586 13.1641C11.2109 13.1641 10.293 14.0234 10.293 15.3516Z" fill="black" fill-opacity="0.85"/>
 </g>
</svg>
