<?xml version="1.0" encoding="UTF-8"?>
<!--Generator: Apple Native CoreSVG 326-->
<!DOCTYPE svg
PUBLIC "-//W3C//DTD SVG 1.1//EN"
       "http://www.w3.org/Graphics/SVG/1.1/DTD/svg11.dtd">
<svg version="1.1" xmlns="http://www.w3.org/2000/svg" xmlns:xlink="http://www.w3.org/1999/xlink" viewBox="0 0 60.961 50.918">
 <g>
  <rect height="50.918" opacity="0" width="60.961" x="0" y="0"/>
  <path d="M30.295 50.8789C44.3379 50.8789 55.7246 39.4922 55.7246 25.4492C55.7246 11.4062 44.3379 0 30.295 0C16.252 0 4.86526 11.4062 4.86526 25.4492L8.49808 25.4492C8.49808 13.3984 18.2442 3.65234 30.295 3.65234C42.3457 3.65234 52.0918 13.3984 52.0918 25.4492C52.0918 37.5 42.3457 47.2461 30.295 47.2461C22.834 47.2461 16.1739 43.457 12.3653 37.7539C11.7207 36.875 10.7051 36.6016 9.80667 37.1484C8.94729 37.6562 8.69339 38.8477 9.39651 39.8047C13.9473 46.5039 21.6426 50.8789 30.295 50.8789ZM1.60354 20.7227C0.00198146 20.7227-0.447237 21.8164 0.470731 23.0859L6.01761 30.9766C6.75979 32.0508 7.83401 32.0312 8.55667 30.9766L14.1035 23.0664C14.9825 21.8164 14.5528 20.7227 12.9707 20.7227Z" fill="black" fill-opacity="0.85"/>
  <path d="M33.3809 36.3867C34.045 36.3867 34.9043 36.3672 35.5879 36.2109C36.2715 36.0352 36.7989 35.7227 36.7989 35.0391C36.7989 34.3164 36.3106 33.9844 35.6075 33.9844C34.8653 33.9844 34.5137 34.082 33.4981 34.082C27.9707 34.082 24.67 30.8984 24.67 25.3516C24.67 19.8828 27.8145 16.6016 33.4395 16.6016C34.3575 16.6016 35.0996 16.6992 35.6075 16.6992C36.3106 16.6992 36.7989 16.3477 36.7989 15.625C36.7989 15 36.3887 14.6289 35.5879 14.4336C34.9825 14.2969 34.1817 14.2578 33.3809 14.2578C27.0528 14.2578 21.9942 17.9102 21.9942 25.332C21.9942 32.4023 26.6035 36.3867 33.3809 36.3867ZM18.5176 23.1055C18.5176 23.5156 18.8692 23.8672 19.2793 23.8672L33.0489 23.8672C33.459 23.8672 33.8106 23.5156 33.8106 23.1055C33.8106 22.6953 33.459 22.3438 33.0489 22.3438L19.2793 22.3438C18.8692 22.3438 18.5176 22.6953 18.5176 23.1055ZM18.5176 27.5391C18.5176 27.9492 18.8692 28.3008 19.2793 28.3008L33.0489 28.3008C33.459 28.3008 33.8106 27.9492 33.8106 27.5391C33.8106 27.1289 33.459 26.7773 33.0489 26.7773L19.2793 26.7773C18.8692 26.7773 18.5176 27.1289 18.5176 27.5391Z" fill="black" fill-opacity="0.85"/>
 </g>
</svg>
