<?xml version="1.0" encoding="UTF-8"?>
<!--Generator: Apple Native CoreSVG 326-->
<!DOCTYPE svg
PUBLIC "-//W3C//DTD SVG 1.1//EN"
       "http://www.w3.org/Graphics/SVG/1.1/DTD/svg11.dtd">
<svg version="1.1" xmlns="http://www.w3.org/2000/svg" xmlns:xlink="http://www.w3.org/1999/xlink" viewBox="0 0 56.6797 53.1445">
 <g>
  <rect height="53.1445" opacity="0" width="56.6797" x="0" y="0"/>
  <path d="M43.3398 1.28906C50.9375 5.91797 56.3086 14.8047 56.3086 24.9414C56.3086 40.4688 43.6914 53.0859 28.1641 53.0859C12.6367 53.0859 0 40.4688 0 24.9414C0 14.8047 5.37109 5.91797 12.9883 1.28906C14.4141 0.410156 15.8398 0 17.5781 0L38.75 0C40.4688 0 41.9141 0.410156 43.3398 1.28906ZM22.7539 39.082C22.7539 42.0508 25.1758 44.4922 28.1641 44.4922C31.1328 44.4922 33.5742 42.0508 33.5742 39.082C33.5742 36.0938 31.1328 33.6523 28.1641 33.6523C25.1758 33.6523 22.7539 36.0938 22.7539 39.082ZM14.0234 39.082C14.0234 40.8398 15.4688 42.2852 17.207 42.2852C18.9648 42.2852 20.4102 40.8398 20.4102 39.082C20.4102 37.3438 18.9648 35.8984 17.207 35.8984C15.4688 35.8984 14.0234 37.3438 14.0234 39.082ZM35.8984 39.082C35.8984 40.8398 37.3438 42.2852 39.1016 42.2852C40.8398 42.2852 42.3047 40.8398 42.3047 39.082C42.3047 37.3438 40.8398 35.8984 39.1016 35.8984C37.3438 35.8984 35.8984 37.3438 35.8984 39.082ZM7.46094 24.9219C7.46094 29.1797 10.9375 32.6172 15.1953 32.6172C19.4531 32.6172 22.8906 29.1797 22.8906 24.9219C22.8906 20.6641 19.4531 17.207 15.1953 17.207C10.9375 17.207 7.46094 20.6641 7.46094 24.9219ZM33.418 24.9219C33.418 29.1797 36.875 32.6172 41.1133 32.6172C45.3711 32.6172 48.8477 29.1797 48.8477 24.9219C48.8477 20.6641 45.3711 17.207 41.1133 17.207C36.875 17.207 33.418 20.6641 33.418 24.9219ZM24.6289 19.2773C24.6289 21.2109 26.2109 22.793 28.1641 22.793C30.0977 22.793 31.6797 21.2109 31.6797 19.2773C31.6797 17.3242 30.0977 15.7422 28.1641 15.7422C26.2109 15.7422 24.6289 17.3242 24.6289 19.2773ZM16.1523 10.7812C16.1523 12.7344 17.7344 14.2969 19.668 14.2969C21.6211 14.2969 23.1836 12.7344 23.1836 10.7812C23.1836 8.84766 21.6211 7.26562 19.668 7.26562C17.7344 7.26562 16.1523 8.84766 16.1523 10.7812ZM24.6289 10.7812C24.6289 12.7344 26.2109 14.2969 28.1641 14.2969C30.0977 14.2969 31.6797 12.7344 31.6797 10.7812C31.6797 8.84766 30.0977 7.26562 28.1641 7.26562C26.2109 7.26562 24.6289 8.84766 24.6289 10.7812ZM33.125 10.7812C33.125 12.7344 34.707 14.2969 36.6406 14.2969C38.5938 14.2969 40.1562 12.7344 40.1562 10.7812C40.1562 8.84766 38.5938 7.26562 36.6406 7.26562C34.707 7.26562 33.125 8.84766 33.125 10.7812Z" fill="black" fill-opacity="0.85"/>
 </g>
</svg>
