<?xml version="1.0" encoding="UTF-8"?>
<!--Generator: Apple Native CoreSVG 326-->
<!DOCTYPE svg
PUBLIC "-//W3C//DTD SVG 1.1//EN"
       "http://www.w3.org/Graphics/SVG/1.1/DTD/svg11.dtd">
<svg version="1.1" xmlns="http://www.w3.org/2000/svg" xmlns:xlink="http://www.w3.org/1999/xlink" viewBox="0 0 50.8203 49.4727">
 <g>
  <rect height="49.4727" opacity="0" width="50.8203" x="0" y="0"/>
  <path d="M0 24.8828C0 30.8594 2.28516 35.4492 4.76562 39.043C5.97656 40.8789 6.66016 42.6172 6.66016 44.1406L6.66016 47.7344C6.66016 48.6328 7.44141 49.3945 8.33984 49.3945C9.23828 49.3945 10.0195 48.6328 10.0195 47.7344L10.0195 46.2695L13.6133 46.2695L13.6133 47.7344C13.6133 48.6328 14.3945 49.3945 15.2734 49.3945C16.1914 49.3945 16.9531 48.6328 16.9531 47.7344L16.9531 46.2695L20.2344 46.2695L20.2344 47.7344C20.2344 48.6328 21.0352 49.3945 21.9336 49.3945C22.832 49.3945 23.5938 48.6328 23.5938 47.7344L23.5938 46.2695L26.7969 46.2695L26.7969 47.7344C26.7969 48.6328 27.5977 49.3945 28.4766 49.3945C29.375 49.3945 30.1758 48.6328 30.1758 47.7344L30.1758 46.2695L33.457 46.2695L33.457 47.7344C33.457 48.6328 34.2188 49.3945 35.1172 49.3945C36.0156 49.3945 36.7969 48.6328 36.7969 47.7344L36.7969 46.2695L40.3906 46.2695L40.3906 47.7344C40.3906 48.6328 41.1719 49.3945 42.0703 49.3945C42.9688 49.3945 43.75 48.6328 43.75 47.7344L43.75 44.1406C43.75 42.7344 44.5117 40.8984 45.8789 38.7305C48.2422 35.2148 50.4492 30.7227 50.4492 24.8828C50.4492 18.6328 48.0664 13.1641 44.6875 8.76953C43.3594 7.03125 43.2422 6.60156 43.2422 5.42969L43.2422 1.67969C43.2422 0.78125 42.4609 0 41.5625 0C40.6641 0 39.8828 0.78125 39.8828 1.67969L39.8828 5.64453C39.8828 8.26172 40.3906 8.76953 41.8359 10.6445C44.7656 14.4922 46.9922 19.2188 46.9922 24.8828C46.9922 32.0117 43.3984 36.9922 38.2422 40.0781L12.1875 40.0781C7.05078 36.9922 3.45703 32.0117 3.45703 24.8828C3.45703 19.2188 5.68359 14.4922 8.59375 10.6445C10.0586 8.76953 10.5469 8.26172 10.5469 5.64453L10.5469 1.67969C10.5469 0.78125 9.78516 0 8.88672 0C7.96875 0 7.1875 0.78125 7.1875 1.67969L7.1875 5.42969C7.1875 6.60156 7.08984 7.03125 5.76172 8.76953C2.36328 13.1641 0 18.6328 0 24.8828Z" fill="black" fill-opacity="0.85"/>
  <path d="M25.2344 25.293C26.2891 25.293 26.875 24.668 26.9141 23.5156L27.2461 13.7109C27.2852 12.5 26.3867 11.6602 25.2148 11.6602C24.0234 11.6602 23.1836 12.4805 23.2227 13.6914L23.5156 23.5156C23.5547 24.6484 24.1602 25.293 25.2344 25.293ZM25.2148 32.9883C26.5625 32.9883 27.6953 31.9336 27.6953 30.5859C27.6953 29.2578 26.582 28.2031 25.2148 28.2031C23.8672 28.2031 22.7344 29.2773 22.7344 30.5859C22.7344 31.9141 23.8867 32.9883 25.2148 32.9883Z" fill="black" fill-opacity="0.85"/>
 </g>
</svg>
