<?xml version="1.0" encoding="UTF-8"?>
<!--Generator: Apple Native CoreSVG 326-->
<!DOCTYPE svg
PUBLIC "-//W3C//DTD SVG 1.1//EN"
       "http://www.w3.org/Graphics/SVG/1.1/DTD/svg11.dtd">
<svg version="1.1" xmlns="http://www.w3.org/2000/svg" xmlns:xlink="http://www.w3.org/1999/xlink" viewBox="0 0 49.1797 49.2773">
 <g>
  <rect height="49.2773" opacity="0" width="49.1797" x="0" y="0"/>
  <path d="M0 19.7656C0 30.6445 8.86719 39.5117 19.7656 39.5117C24.1602 39.5117 28.2031 38.0664 31.4844 35.625L44.3555 48.5156C44.8438 49.0234 45.5273 49.2773 46.2305 49.2773C47.7734 49.2773 48.8086 48.1055 48.8086 46.6406C48.8086 45.918 48.5547 45.293 48.0859 44.8047L35.2734 31.9336C37.9297 28.5938 39.5312 24.3555 39.5312 19.7656C39.5312 8.86719 30.6641 0 19.7656 0C8.86719 0 0 8.86719 0 19.7656ZM3.65234 19.7656C3.65234 10.8789 10.8789 3.65234 19.7656 3.65234C28.6523 3.65234 35.8594 10.8789 35.8594 19.7656C35.8594 28.6328 28.6523 35.8594 19.7656 35.8594C10.8789 35.8594 3.65234 28.6328 3.65234 19.7656ZM19.7656 23.5938C20.6836 23.5938 21.2695 23.0273 21.2891 21.9727L21.543 11.1719C21.543 10.1758 20.7812 9.41406 19.7656 9.41406C18.7109 9.41406 17.9688 10.1758 17.9688 11.1523L18.2031 21.9727C18.2031 22.9883 18.8086 23.5938 19.7656 23.5938ZM19.7656 29.9805C20.918 29.9805 21.9336 29.0234 21.9336 27.8711C21.9336 26.6797 20.9375 25.7617 19.7656 25.7617C18.5938 25.7617 17.5977 26.6992 17.5977 27.8711C17.5977 29.0234 18.6133 29.9805 19.7656 29.9805Z" fill="black" fill-opacity="0.85"/>
 </g>
</svg>
