<?xml version="1.0" encoding="UTF-8"?>
<!--Generator: Apple Native CoreSVG 326-->
<!DOCTYPE svg
PUBLIC "-//W3C//DTD SVG 1.1//EN"
       "http://www.w3.org/Graphics/SVG/1.1/DTD/svg11.dtd">
<svg version="1.1" xmlns="http://www.w3.org/2000/svg" xmlns:xlink="http://www.w3.org/1999/xlink" viewBox="0 0 51.25 50.918">
 <g>
  <rect height="50.918" opacity="0" width="51.25" x="0" y="0"/>
  <path d="M50.8789 25.4688C50.8789 39.4922 39.4531 50.918 25.4297 50.918C11.4258 50.918 0 39.4922 0 25.4688C0 11.4648 11.4258 0.0390625 25.4297 0.0390625C39.4531 0.0390625 50.8789 11.4648 50.8789 25.4688ZM8.35938 25.4883C8.35938 28.0273 15.4883 36.25 25.4297 36.25C35.4492 36.25 42.5 28.0273 42.5 25.4883C42.5 22.9297 35.4102 14.7266 25.4297 14.7266C15.3906 14.7266 8.35938 22.9297 8.35938 25.4883ZM32.5 25.4883C32.5 29.3164 29.3164 32.5391 25.4297 32.5391C21.5039 32.5391 18.3594 29.3164 18.3594 25.4883C18.3398 21.5625 21.5039 18.4375 25.4297 18.4375C29.3164 18.4375 32.5 21.5625 32.5 25.4883ZM22.4414 25.4883C22.4414 27.0703 23.8281 28.457 25.4688 28.457C27.0508 28.457 28.418 27.0703 28.418 25.4883C28.418 23.8867 27.0508 22.5 25.4688 22.5C23.8281 22.5 22.4414 23.8867 22.4414 25.4883Z" fill="black" fill-opacity="0.85"/>
 </g>
</svg>
