<?xml version="1.0" encoding="UTF-8"?>
<!--Generator: Apple Native CoreSVG 326-->
<!DOCTYPE svg
PUBLIC "-//W3C//DTD SVG 1.1//EN"
       "http://www.w3.org/Graphics/SVG/1.1/DTD/svg11.dtd">
<svg version="1.1" xmlns="http://www.w3.org/2000/svg" xmlns:xlink="http://www.w3.org/1999/xlink" viewBox="0 0 51.3672 60.2539">
 <g>
  <rect height="60.2539" opacity="0" width="51.3672" x="0" y="0"/>
  <path d="M25.5078 60.2539C40.1172 60.2539 50.9961 57.1875 50.9961 52.0312C50.9961 48.8086 46.7773 46.4258 39.8438 45.0391L37.9883 47.9297C44.1016 48.8477 47.7539 50.3516 47.7539 52.0312C47.7539 54.5898 38.75 56.9727 25.5078 56.9727C12.2461 56.9727 3.24219 54.5898 3.24219 52.0312C3.24219 50.3516 6.91406 48.8477 13.0273 47.9297L11.1523 45.0391C4.21875 46.4258 0 48.8086 0 52.0312C0 57.1875 10.8789 60.2539 25.5078 60.2539ZM9.375 43.8281L11.8164 49.5117C12.1484 50.2539 13.0078 50.3906 13.5938 49.5312L16.6406 45.0781C17.168 44.3164 16.9336 43.457 15.9375 43.2812L10.5859 42.3633C9.55078 42.168 9.04297 43.0469 9.375 43.8281ZM41.6211 43.8281C41.9531 43.0469 41.4648 42.168 40.4102 42.3633L35.0586 43.2812C34.082 43.457 33.8477 44.3164 34.375 45.0781L37.4023 49.5312C38.0078 50.3906 38.8672 50.2539 39.1992 49.5117Z" fill="black" fill-opacity="0.85"/>
  <path d="M5.64453 26.582C5.64453 32.5586 10.957 38.75 16.1328 38.75C20.6445 38.75 23.2031 34.8047 25.7422 27.9102C26.2305 27.9102 26.582 27.8711 26.9141 27.7539L26.9141 34.4727C26.9141 38.0664 28.6523 39.8633 32.1289 39.8633C38.1055 39.8633 44.3164 34.5312 44.3164 29.375C44.3164 25.0391 40.6641 22.2656 33.457 19.7461C33.457 19.2773 33.418 18.9258 33.3203 18.5742L39.9805 18.5742C43.5742 18.5742 45.4102 16.8164 45.4102 13.3789C45.4102 7.38281 40.0391 1.19141 34.8828 1.19141C30.4492 1.19141 27.8516 5.33203 25.293 12.0117C24.8047 12.0117 24.4531 12.0508 24.1211 12.168L24.1211 5.48828C24.1211 1.89453 22.3828 0.078125 18.8867 0.078125C12.9297 0.0976562 6.73828 5.41016 6.73828 10.5664C6.73828 15.0781 10.6641 17.6562 17.5195 20.1758C17.5195 20.6836 17.5586 20.9961 17.6562 21.3281L11.0156 21.3281C7.42188 21.3281 5.64453 23.125 5.64453 26.582ZM25.5078 24.0234C23.2617 24.0234 21.4258 22.207 21.4258 19.9414C21.4258 17.6953 23.2617 15.8594 25.5078 15.8594C27.7734 15.8594 29.5898 17.6953 29.5898 19.9414C29.5898 22.207 27.7734 24.0234 25.5078 24.0234Z" fill="black" fill-opacity="0.85"/>
 </g>
</svg>
