<?xml version="1.0" encoding="UTF-8"?>
<!--Generator: Apple Native CoreSVG 326-->
<!DOCTYPE svg
PUBLIC "-//W3C//DTD SVG 1.1//EN"
       "http://www.w3.org/Graphics/SVG/1.1/DTD/svg11.dtd">
<svg version="1.1" xmlns="http://www.w3.org/2000/svg" xmlns:xlink="http://www.w3.org/1999/xlink" viewBox="0 0 74.7964 26.4258">
 <g>
  <rect height="26.4258" opacity="0" width="74.7964" x="0" y="0"/>
  <path d="M9.87866 10.7617C12.8669 10.7617 15.2693 8.35938 15.2693 5.39062C15.2693 2.40234 12.8669 0 9.87866 0C6.89037 0 4.50756 2.40234 4.50756 5.39062C4.50756 8.35938 6.89037 10.7617 9.87866 10.7617ZM26.1287 25.7617L33.199 25.7617C39.0779 25.7617 40.738 22.4219 40.2497 18.5547L38.6091 5.56641L51.324 5.56641C52.7302 5.56641 53.863 4.41406 53.863 2.98828C53.863 1.58203 52.7302 0.449219 51.324 0.449219L35.4451 0.449219C33.9997 0.449219 32.8865 1.48438 32.8865 3.20312L32.8865 16.3281L28.6677 16.3281C26.4021 16.3281 24.488 15.5273 23.3943 13.7891C23.1404 13.3789 23.1404 12.793 23.6091 12.2461L29.9763 4.70703C31.4607 2.96875 30.2888 0.449219 28.1208 0.449219L19.1951 0.449219C17.7693 0.449219 16.6365 1.58203 16.6365 2.98828C16.6365 4.45312 17.7302 5.56641 19.1951 5.56641L22.8083 5.56641L19.0974 9.96094C16.4412 13.0859 14.0974 15.2734 10.1326 17.0508L6.26537 18.7695L7.47631 14.4727C7.86694 13.0664 6.94897 11.6797 5.64037 11.3867C4.25366 11.0352 2.86694 11.875 2.51537 13.2031L0.113031 22.5781C-0.5315 25.1172 1.69506 26.3867 3.88256 25.4297L11.8904 21.8945C12.6912 21.543 13.1599 21.582 13.7849 22.0703C16.3826 24.2773 20.4841 25.7617 26.1287 25.7617ZM53.4529 20L71.8708 20C73.2771 20 74.4294 18.8672 74.4294 17.4414C74.4294 16.0156 73.2771 14.8828 71.8708 14.8828L53.2185 14.8828C53.0232 14.8828 52.7888 14.8828 52.5154 14.9023L42.2224 15.7617L42.574 18.2422C42.7497 19.668 42.7107 21.0156 42.4177 22.2266Z" fill="black" fill-opacity="0.85"/>
 </g>
</svg>
