<?xml version="1.0" encoding="UTF-8"?>
<!--Generator: Apple Native CoreSVG 326-->
<!DOCTYPE svg
PUBLIC "-//W3C//DTD SVG 1.1//EN"
       "http://www.w3.org/Graphics/SVG/1.1/DTD/svg11.dtd">
<svg version="1.1" xmlns="http://www.w3.org/2000/svg" xmlns:xlink="http://www.w3.org/1999/xlink" viewBox="0 0 43.7109 60.2539">
 <g>
  <rect height="60.2539" opacity="0" width="43.7109" x="0" y="0"/>
  <path d="M10.293 18.6328C13.2617 18.6328 15.6641 16.25 15.6641 13.2422C15.6641 10.2734 13.2617 7.87109 10.293 7.87109C7.30469 7.87109 4.90234 10.2734 4.90234 13.2422C4.90234 16.25 7.30469 18.6328 10.293 18.6328ZM23.9062 44.6289L31.582 34.082L36.4258 42.9492C38.0664 50.5469 38.2617 56.3867 38.2617 57.2656C38.2617 58.7891 39.4141 59.9219 40.8008 59.9219C42.2266 59.9219 43.3398 58.7891 43.3398 57.3438C43.3398 57.0898 43.1055 50.4688 41.3867 41.543L41.2891 41.0938C39.3164 30.8594 32.6953 11.9336 15.8789 0.761719C15.0195 0.234375 14.2969 0 13.418 0L2.53906 0C1.13281 0 0 1.13281 0 2.53906C0 3.98438 1.13281 5.11719 2.53906 5.11719L13.2422 5.11719C15.8789 6.95312 18.1836 8.92578 20.293 11.0742C20.5664 11.3477 20.6055 11.7773 20.4102 12.1289L11.8555 26.7383C10.8008 28.5742 12.0703 30.5859 14.043 30.5859L25.7422 30.5859L19.5898 41.875L19.3359 42.3242L11.7773 56.1523C11.0938 57.3828 11.543 58.9648 12.7734 59.6289C13.9453 60.2344 15.5078 59.9609 16.2695 58.5938ZM18.457 25.5078L20.3516 22.2656C20.6641 21.6992 21.25 21.8164 21.5039 22.207L23.7109 25.5078Z" fill="black" fill-opacity="0.85"/>
 </g>
</svg>
