<?xml version="1.0" encoding="UTF-8"?>
<!--Generator: Apple Native CoreSVG 326-->
<!DOCTYPE svg
PUBLIC "-//W3C//DTD SVG 1.1//EN"
       "http://www.w3.org/Graphics/SVG/1.1/DTD/svg11.dtd">
<svg version="1.1" xmlns="http://www.w3.org/2000/svg" xmlns:xlink="http://www.w3.org/1999/xlink" viewBox="0 0 51.25 50.918">
 <g>
  <rect height="50.918" opacity="0" width="51.25" x="0" y="0"/>
  <path d="M25.4297 50.8789C39.4727 50.8789 50.8789 39.4922 50.8789 25.4492C50.8789 11.4062 39.4727 0 25.4297 0C11.3867 0 0 11.4062 0 25.4492C0 39.4922 11.3867 50.8789 25.4297 50.8789ZM25.4297 47.2461C13.3789 47.2461 3.63281 37.5 3.63281 25.4492C3.63281 13.3984 13.3789 3.65234 25.4297 3.65234C37.4805 3.65234 47.2266 13.3984 47.2266 25.4492C47.2266 37.5 37.4805 47.2461 25.4297 47.2461Z" fill="black" fill-opacity="0.85"/>
  <path d="M31.2891 17.207C32.9492 17.207 34.3164 15.8594 34.3164 14.1797C34.3164 12.5 32.9492 11.1328 31.2891 11.1328C29.6094 11.1328 28.2227 12.5 28.2227 14.1797C28.2227 15.8594 29.6094 17.207 31.2891 17.207ZM19.7656 19.1602L27.1875 26.0938C27.7344 26.6211 28.5938 26.582 29.1211 26.0547C29.6289 25.5078 29.6094 24.668 29.043 24.1406L26.3867 21.6797L27.5 21.0938C27.7539 20.957 28.0469 20.9961 28.2422 21.1914L30.6641 23.457L30.6641 28.8867C30.6641 29.6484 31.2891 30.2539 32.0117 30.2539C32.7734 30.2539 33.3789 29.6484 33.3789 28.8867L33.3789 22.832C33.3789 22.4414 33.2031 22.1094 32.8516 21.7773L27.1094 16.4453C26.0352 15.4492 24.4141 15.3125 23.0469 15.8398L20.1367 16.9336C19.2969 17.2266 18.9062 18.3203 19.7656 19.1602ZM18.6719 19.707L18.3789 19.8633C16.0156 21.0938 15.4492 23.9648 17.7148 25.7422L22.6953 29.6875L19.6289 35.1953C19.2578 35.8398 19.5508 36.6406 20.1953 37.0117C20.7227 37.3242 21.6016 37.1875 22.0117 36.4258L25.5859 29.9023C25.8789 29.375 25.7617 28.7891 25.3711 28.3398L21.4648 24.1211L22.6562 23.457L19.0234 20.0781C18.9258 19.9609 18.7695 19.8047 18.6719 19.707ZM9.39453 31.875L15.8984 31.875C16.4453 31.875 16.8945 31.5625 17.1094 31.1523L18.6719 27.9883L16.9727 26.6602C16.582 26.3281 16.25 26.0156 16.0742 25.7422L14.9414 29.1797L9.39453 29.1797C8.63281 29.1797 8.04688 29.7852 8.04688 30.5469C8.04688 31.2695 8.63281 31.875 9.39453 31.875ZM40.0586 35.918C41.3867 35.8789 42.3242 34.9609 42.2852 33.6914C42.2852 33.0859 41.8359 32.5195 41.25 32.5391C40.8008 32.5391 40.4883 32.832 40.4883 33.3008L40.4883 33.6523C40.4883 34.1992 39.9023 34.4922 39.3164 33.9453L24.6094 20.918L23.5938 21.6211L38.0469 35.0977C38.6328 35.625 39.3164 35.918 40.0586 35.918ZM33.4961 38.2617C34.4922 38.2617 35.332 37.4414 35.332 36.4258C35.332 35.3906 34.4922 34.5508 33.4961 34.5508C32.4609 34.5508 31.6406 35.3906 31.6406 36.4258C31.6406 37.4414 32.4609 38.2617 33.4961 38.2617Z" fill="black" fill-opacity="0.85"/>
 </g>
</svg>
