<?xml version="1.0" encoding="UTF-8"?>
<!--Generator: Apple Native CoreSVG 326-->
<!DOCTYPE svg
PUBLIC "-//W3C//DTD SVG 1.1//EN"
       "http://www.w3.org/Graphics/SVG/1.1/DTD/svg11.dtd">
<svg version="1.1" xmlns="http://www.w3.org/2000/svg" xmlns:xlink="http://www.w3.org/1999/xlink" viewBox="0 0 51.25 50.918">
 <g>
  <rect height="50.918" opacity="0" width="51.25" x="0" y="0"/>
  <path d="M25.4297 50.8789C39.4727 50.8789 50.8789 39.4922 50.8789 25.4492C50.8789 11.4062 39.4727 0 25.4297 0C11.3867 0 0 11.4062 0 25.4492C0 39.4922 11.3867 50.8789 25.4297 50.8789ZM25.4297 47.2461C13.3789 47.2461 3.63281 37.5 3.63281 25.4492C3.63281 13.3984 13.3789 3.65234 25.4297 3.65234C37.4805 3.65234 47.2266 13.3984 47.2266 25.4492C47.2266 37.5 37.4805 47.2461 25.4297 47.2461Z" fill="black" fill-opacity="0.85"/>
  <path d="M25.3711 14.2969C27.0508 14.2969 28.3984 12.9297 28.3984 11.2305C28.3984 9.58984 27.0508 8.20312 25.3711 8.20312C23.6719 8.20312 22.3242 9.58984 22.3242 11.2305C22.3242 12.9297 23.6719 14.2969 25.3711 14.2969ZM31.7383 41.4062C32.5391 41.4062 33.1836 40.7617 33.1836 39.9609L33.1836 32.0898C33.1836 31.7383 32.9883 31.25 32.5391 30.957L27.4609 27.6172L27.4609 19.0039C27.4609 18.8086 27.6172 18.6523 27.8125 18.6523L38.8477 18.6523C39.6484 18.6523 40.2734 18.0078 40.2734 17.2461C40.2734 16.4648 39.6484 15.8203 38.8477 15.8203L23.1641 15.8203C21.8359 15.8203 21.1133 16.3086 20.4297 17.1484L16.7383 21.6797C15.8203 22.7734 16.543 24.3359 17.7148 24.3359L21.7969 24.3359L21.7969 26.3086C21.7969 27.6172 22.5195 28.8281 23.6719 29.4336L30.332 33.0078L30.332 39.9609C30.332 40.7617 30.9766 41.4062 31.7383 41.4062ZM20.3516 21.6016L21.875 19.6875L21.875 21.6016ZM15.7617 40.918C16.2891 41.5039 17.1875 41.5625 17.793 41.0156L23.3594 36.1523C23.6523 35.918 23.75 35.7812 23.8477 35.5273L25.4102 31.6797L23.125 30.4492C22.7539 30.2539 22.5195 30.0781 22.4414 29.9805L21.2695 34.1992L15.8984 38.9062C15.3125 39.4141 15.2539 40.3516 15.7617 40.918Z" fill="black" fill-opacity="0.85"/>
 </g>
</svg>
