<?xml version="1.0" encoding="UTF-8"?>
<!--Generator: Apple Native CoreSVG 326-->
<!DOCTYPE svg
PUBLIC "-//W3C//DTD SVG 1.1//EN"
       "http://www.w3.org/Graphics/SVG/1.1/DTD/svg11.dtd">
<svg version="1.1" xmlns="http://www.w3.org/2000/svg" xmlns:xlink="http://www.w3.org/1999/xlink" viewBox="0 0 51.25 50.918">
 <g>
  <rect height="50.918" opacity="0" width="51.25" x="0" y="0"/>
  <path d="M50.8789 25.4492C50.8789 39.4531 39.4531 50.8789 25.4297 50.8789C11.4258 50.8789 0 39.4531 0 25.4492C0 11.4258 11.4258 0 25.4297 0C39.4531 0 50.8789 11.4258 50.8789 25.4492ZM38.0859 36.6211L11.1133 38.3008C10.7227 38.3398 10.4492 38.6133 10.4492 39.0039C10.4492 39.3555 10.7422 39.6484 11.1133 39.6484L38.3789 39.6484C39.2188 39.6484 39.8828 38.9844 39.8828 38.1055C39.8828 37.1094 39.1211 36.543 38.0859 36.6211ZM19.4922 29.5312L15.4688 34.2383C14.2188 35.7227 16.2305 37.168 17.2656 35.957L21.3086 31.1328C21.6992 30.6641 21.7773 30.5664 21.9336 30.0977L22.2461 29.082L20.1172 26.4453ZM18.9453 16.2891L16.9531 18.3008C16.3086 18.9062 16.0938 19.4336 16.0156 20.293L15.7617 23.418C15.7031 24.2188 16.1328 24.7461 16.8555 24.7656C17.5586 24.8047 18.0078 24.4141 18.0859 23.5742L18.3789 20.1367L19.375 19.2578C19.707 18.9453 20.2148 19.1406 20.1953 19.5117L19.9609 22.4219C19.8438 23.8672 20.1953 24.5898 21.1914 25.8398L23.8672 29.1992C24.1016 29.4922 24.1797 29.668 24.2969 29.9023L26.6602 34.707C27.4609 36.3477 29.8828 35.332 29.0039 33.5742L26.6797 28.8672C26.4844 28.4766 26.2109 28.0469 25.957 27.6758L24.2578 25.2148L24.3555 24.8828C24.7656 23.5156 25 22.6758 25.0977 21.3281L25.3516 17.5195C25.4688 15.7031 24.4141 14.3359 22.5586 14.3359C21.1719 14.3359 20.2344 15.0391 18.9453 16.2891ZM42.8906 19.3945L36.25 22.5C35.7812 22.7148 35.625 23.2031 35.8203 23.6328C35.9766 24.0039 36.4648 24.1797 36.9141 23.9844L38.6719 23.1445L36.5039 35.5078L37.6953 35.4492C37.9492 35.4297 38.0078 35.4297 38.1836 35.4297L40.4688 22.3242L43.5742 20.8594C43.9844 20.6836 44.1602 20.1562 43.9844 19.7852C43.8086 19.375 43.3008 19.1992 42.8906 19.3945ZM26.3281 20.4297L27.207 21.2891C27.6562 21.7188 28.0078 21.8359 28.7891 21.8359L31.6211 21.8359C32.4219 21.8359 32.9492 21.3867 32.9492 20.6445C32.9492 19.9609 32.4219 19.4922 31.6211 19.4922L28.5938 19.4922L26.5234 17.2461ZM21.1523 10.2734C21.1523 11.8555 22.4414 13.1055 24.0234 13.1055C25.6055 13.1055 26.9141 11.8555 26.9141 10.2734C26.9141 8.65234 25.6055 7.38281 24.0234 7.38281C22.4414 7.38281 21.1523 8.65234 21.1523 10.2734Z" fill="black" fill-opacity="0.85"/>
 </g>
</svg>
