<?xml version="1.0" encoding="UTF-8"?>
<!--Generator: Apple Native CoreSVG 326-->
<!DOCTYPE svg
PUBLIC "-//W3C//DTD SVG 1.1//EN"
       "http://www.w3.org/Graphics/SVG/1.1/DTD/svg11.dtd">
<svg version="1.1" xmlns="http://www.w3.org/2000/svg" xmlns:xlink="http://www.w3.org/1999/xlink" viewBox="0 0 51.25 50.918">
 <g>
  <rect height="50.918" opacity="0" width="51.25" x="0" y="0"/>
  <path d="M50.8789 25.4492C50.8789 39.4531 39.4531 50.8789 25.4297 50.8789C11.4258 50.8789 0 39.4531 0 25.4492C0 11.4258 11.4258 0 25.4297 0C39.4531 0 50.8789 11.4258 50.8789 25.4492ZM24.7656 16.3477C23.5938 16.3477 22.6953 16.543 21.5625 17.4023L16.7773 20.9766C15.957 21.582 16.0547 22.7734 16.875 23.3398L22.6953 27.2656L22.6953 27.6172L20.1758 34.6875L13.5352 36.5039C12.7734 36.6992 12.3047 37.5 12.5195 38.2812C12.7539 39.082 13.4961 39.5117 14.2969 39.2773L21.4062 37.3633C21.9727 37.1875 22.3047 37.0312 22.5195 36.6016L25.6641 30.9375C25.7227 30.8398 25.7617 30.8008 25.8984 30.8008L33.5547 30.8008L33.5547 38.0469C33.5547 38.8672 34.2188 39.4922 35.0195 39.4922C35.8203 39.4922 36.4453 38.8672 36.4453 38.0469L36.4453 29.5312C36.4453 28.5547 35.9375 28.0273 34.9609 27.9297L28.4961 27.3242L28.4961 19.2383C28.4961 17.6367 27.3828 16.3477 25.4297 16.3477ZM22.6953 20.6445L22.6953 23.7695L20.1758 22.0703L22.3242 20.4492C22.5 20.3125 22.6953 20.4297 22.6953 20.6445ZM22.3047 11.6602C22.3047 13.3789 23.6914 14.7852 25.4297 14.7852C27.1289 14.7852 28.5352 13.3789 28.5352 11.6602C28.5352 9.94141 27.1289 8.55469 25.4297 8.55469C23.6914 8.55469 22.3047 9.94141 22.3047 11.6602Z" fill="black" fill-opacity="0.85"/>
 </g>
</svg>
