<?xml version="1.0" encoding="UTF-8"?>
<!--Generator: Apple Native CoreSVG 326-->
<!DOCTYPE svg
PUBLIC "-//W3C//DTD SVG 1.1//EN"
       "http://www.w3.org/Graphics/SVG/1.1/DTD/svg11.dtd">
<svg version="1.1" xmlns="http://www.w3.org/2000/svg" xmlns:xlink="http://www.w3.org/1999/xlink" viewBox="0 0 51.25 50.918">
 <g>
  <rect height="50.918" opacity="0" width="51.25" x="0" y="0"/>
  <path d="M50.8789 25.4492C50.8789 39.4531 39.4531 50.8789 25.4297 50.8789C11.4258 50.8789 0 39.4531 0 25.4492C0 11.4258 11.4258 0 25.4297 0C39.4531 0 50.8789 11.4258 50.8789 25.4492ZM24.5312 37.0508C24.5312 37.5391 24.9023 37.9297 25.4102 37.9297C25.918 37.9297 26.2891 37.5391 26.2891 37.0508C26.2891 36.543 25.918 36.1523 25.4102 36.1523C24.9023 36.1523 24.5312 36.543 24.5312 37.0508ZM21.8555 36.5625C21.8555 37.0703 22.2266 37.4219 22.7344 37.4219C23.2422 37.4219 23.5938 37.0703 23.5938 36.5625C23.5938 36.0547 23.2422 35.6836 22.7344 35.6836C22.2266 35.6836 21.8555 36.0547 21.8555 36.5625ZM27.2656 36.5625C27.2656 37.0703 27.6172 37.4219 28.125 37.4219C28.6328 37.4219 29.0039 37.0703 29.0039 36.5625C29.0039 36.0547 28.6328 35.6836 28.125 35.6836C27.6172 35.6836 27.2656 36.0547 27.2656 36.5625ZM8.80859 36.2305C8.80859 36.7188 9.19922 37.1094 9.6875 37.1094C10.1953 37.1094 10.5859 36.7188 10.5859 36.2305C10.5859 35.7227 10.1953 35.3516 9.6875 35.3516C9.19922 35.3516 8.80859 35.7227 8.80859 36.2305ZM11.3281 36.2305C11.3281 36.7188 11.7188 37.1094 12.207 37.1094C12.7148 37.1094 13.1055 36.7188 13.1055 36.2305C13.1055 35.7227 12.7148 35.3516 12.207 35.3516C11.7188 35.3516 11.3281 35.7227 11.3281 36.2305ZM37.7539 36.2305C37.7539 36.7188 38.1445 37.1094 38.6523 37.1094C39.1406 37.1094 39.5312 36.7188 39.5312 36.2305C39.5312 35.7227 39.1406 35.3516 38.6523 35.3516C38.1445 35.3516 37.7539 35.7227 37.7539 36.2305ZM40.3125 36.2305C40.3125 36.7188 40.7031 37.1094 41.2109 37.1094C41.6992 37.1094 42.0898 36.7188 42.0898 36.2305C42.0898 35.7227 41.6992 35.3516 41.2109 35.3516C40.7031 35.3516 40.3125 35.7227 40.3125 36.2305ZM13.8867 35.3906C13.8867 35.8789 14.2773 36.2695 14.7656 36.2695C15.2539 36.2695 15.6445 35.8789 15.6445 35.3906C15.6445 34.9023 15.2539 34.5117 14.7656 34.5117C14.2773 34.5117 13.8867 34.9023 13.8867 35.3906ZM19.3164 35.3906C19.3164 35.8789 19.668 36.2695 20.1758 36.2695C20.6836 36.2695 21.0547 35.8789 21.0547 35.3906C21.0547 34.9023 20.6836 34.5117 20.1758 34.5117C19.668 34.5117 19.3164 34.9023 19.3164 35.3906ZM29.8047 35.3906C29.8047 35.8789 30.1758 36.2695 30.6836 36.2695C31.1914 36.2695 31.543 35.8789 31.543 35.3906C31.543 34.9023 31.1914 34.5117 30.6836 34.5117C30.1758 34.5117 29.8047 34.9023 29.8047 35.3906ZM35.2344 35.3906C35.2344 35.8789 35.625 36.2695 36.1133 36.2695C36.6016 36.2695 36.9922 35.8789 36.9922 35.3906C36.9922 34.9023 36.6016 34.5117 36.1133 34.5117C35.625 34.5117 35.2344 34.9023 35.2344 35.3906ZM16.582 34.7461C16.582 35.2344 16.9727 35.625 17.4805 35.625C17.9688 35.625 18.3594 35.2344 18.3594 34.7461C18.3594 34.2383 17.9688 33.8672 17.4805 33.8672C16.9727 33.8672 16.582 34.2383 16.582 34.7461ZM32.5195 34.7461C32.5195 35.2344 32.9102 35.625 33.3984 35.625C33.9062 35.625 34.2969 35.2344 34.2969 34.7461C34.2969 34.2383 33.9062 33.8672 33.3984 33.8672C32.9102 33.8672 32.5195 34.2383 32.5195 34.7461ZM25.4102 32.3438C22.6367 32.3438 21.6602 29.9219 17.9492 29.9219C14.2578 29.9219 13.3008 32.3438 10.5273 32.3438L9.60938 32.3438C9.19922 32.3438 8.80859 32.6953 8.80859 33.125C8.80859 33.5547 9.19922 33.9258 9.60938 33.9258L10.5273 33.9258C14.3945 33.9258 15.293 31.5234 17.9492 31.5234C20.6445 31.5234 21.543 33.9258 25.4102 33.9258C29.2969 33.9258 30.1953 31.5234 32.8711 31.5234C35.5469 31.5234 36.4453 33.9258 40.293 33.9258L41.2891 33.9258C41.6992 33.9258 42.0898 33.5547 42.0898 33.125C42.0898 32.6953 41.6992 32.3438 41.2891 32.3438L40.293 32.3438C37.5391 32.3438 36.582 29.9219 32.8711 29.9219C29.1602 29.9219 28.1836 32.3438 25.4102 32.3438ZM38.1836 15.1367L27.6758 20.7227C25.957 21.6211 24.375 21.7383 22.3047 20.6445L11.9727 15.1367C11.1914 14.6875 10.1953 15.0195 9.78516 15.8203C9.375 16.582 9.66797 17.5586 10.4492 17.9688L20.5469 23.418C20.8789 23.5938 21.0938 23.9453 20.9766 24.3359L19.9414 28.1641C22.7539 28.6523 23.457 30.3125 25.4102 30.3125C25.9961 30.3125 26.4453 30.1367 26.8945 29.9219L28.3008 24.7266C28.418 24.1992 28.5938 23.9258 29.1211 23.6328L39.6875 17.9688C40.4883 17.5586 40.7812 16.582 40.3906 15.8203C39.9219 15.0195 38.9648 14.6875 38.1836 15.1367ZM22.2656 16.7578C22.2656 18.457 23.6523 19.8633 25.4102 19.8633C27.1094 19.8633 28.4961 18.457 28.4961 16.7578C28.4961 15.0195 27.1094 13.6328 25.4102 13.6328C23.6523 13.6328 22.2656 15.0195 22.2656 16.7578Z" fill="black" fill-opacity="0.85"/>
 </g>
</svg>
