<?xml version="1.0" encoding="UTF-8"?>
<!--Generator: Apple Native CoreSVG 326-->
<!DOCTYPE svg
PUBLIC "-//W3C//DTD SVG 1.1//EN"
       "http://www.w3.org/Graphics/SVG/1.1/DTD/svg11.dtd">
<svg version="1.1" xmlns="http://www.w3.org/2000/svg" xmlns:xlink="http://www.w3.org/1999/xlink" viewBox="0 0 54.0625 61.543">
 <g>
  <rect height="61.543" opacity="0" width="54.0625" x="0" y="0"/>
  <path d="M40.5469 11.0742C43.5156 11.0742 45.957 8.63281 45.957 5.66406C45.957 2.69531 43.5156 0.253906 40.5469 0.253906C37.5781 0.253906 35.1367 2.69531 35.1367 5.66406C35.1367 8.63281 37.5781 11.0742 40.5469 11.0742ZM30.8984 45.9961C32.3242 45.9961 33.4375 44.8438 33.4375 43.457L33.4375 31.5234C33.4375 30.8398 33.1836 30.1562 32.7344 29.7266L26.1719 23.2031L32.0117 17.3242C32.3828 16.9531 32.9883 16.9531 33.3594 17.3242L37.4609 21.4258C37.9102 21.8945 38.5742 22.1484 39.2188 22.1484L51.1523 22.1484C52.5781 22.1484 53.6914 21.0352 53.6914 19.6094C53.6914 18.2227 52.5781 17.0898 51.1523 17.0898L40.2734 17.0898L31.4062 8.16406C30.2734 7.03125 28.6523 6.36719 27.0703 6.36719L17.7148 6.36719C15.1953 6.36719 14.4531 9.16016 16.0352 10.7422L20.1953 14.8828L16.8555 18.1641C14.7656 20.2344 14.7656 23.75 16.8555 25.8203L21.25 30.1953L21.25 44.043C21.25 45.4297 22.3633 46.582 23.7891 46.582C25.1758 46.582 26.3281 45.4297 26.3281 44.043L26.3281 30.5273L28.3594 32.5586L28.3594 43.457C28.3594 44.8438 29.5117 45.9961 30.8984 45.9961ZM1.23047 17.4805L25.1953 17.4805L25.1953 15L1.23047 15C0.566406 15 0 15.5664 0 16.25C0 16.9141 0.566406 17.4805 1.23047 17.4805ZM52.3438 44.6289C53.0078 44.6289 53.5742 44.0625 53.5742 43.3984L53.5742 19.7266L51.0938 19.7266L51.0938 43.3984C51.0938 44.0625 51.6602 44.6289 52.3438 44.6289ZM40.332 61.543C41.0156 61.543 41.5625 60.9961 41.5625 60.3125C41.5625 59.6289 41.0156 59.082 40.332 59.082C38.5938 59.082 38.0859 58.7891 36.6211 57.3242L10.2344 30.9375C9.72656 30.4297 8.96484 30.4297 8.49609 30.918C8.00781 31.4062 8.00781 32.168 8.49609 32.6562L35.1758 59.3555C36.7969 60.957 38.457 61.543 40.332 61.543ZM46.7188 60.2148C47.4219 60.2148 47.9688 59.668 47.9688 58.9844C47.9688 58.2812 47.4219 57.7344 46.7188 57.7344C44.9805 57.7344 44.4727 57.4609 43.0273 55.9961L16.6406 29.6094C16.1133 29.082 15.3516 29.082 14.8828 29.5898C14.3945 30.0781 14.3945 30.8398 14.8828 31.3281L41.582 58.0078C43.2031 59.6289 44.8438 60.2148 46.7188 60.2148Z" fill="black" fill-opacity="0.85"/>
 </g>
</svg>
