<?xml version="1.0" encoding="UTF-8"?>
<!--Generator: Apple Native CoreSVG 326-->
<!DOCTYPE svg
PUBLIC "-//W3C//DTD SVG 1.1//EN"
       "http://www.w3.org/Graphics/SVG/1.1/DTD/svg11.dtd">
<svg version="1.1" xmlns="http://www.w3.org/2000/svg" xmlns:xlink="http://www.w3.org/1999/xlink" viewBox="0 0 51.25 50.918">
 <g>
  <rect height="50.918" opacity="0" width="51.25" x="0" y="0"/>
  <path d="M25.4297 50.8789C39.4727 50.8789 50.8789 39.4922 50.8789 25.4492C50.8789 11.4062 39.4727 0 25.4297 0C11.3867 0 0 11.4062 0 25.4492C0 39.4922 11.3867 50.8789 25.4297 50.8789ZM25.4297 47.2461C13.3789 47.2461 3.63281 37.5 3.63281 25.4492C3.63281 13.3984 13.3789 3.65234 25.4297 3.65234C37.4805 3.65234 47.2266 13.3984 47.2266 25.4492C47.2266 37.5 37.4805 47.2461 25.4297 47.2461Z" fill="black" fill-opacity="0.85"/>
  <path d="M30.3906 16.9336C32.0703 16.9336 33.418 15.5859 33.418 13.9062C33.418 12.207 32.0703 10.8594 30.3906 10.8594C28.7109 10.8594 27.3438 12.207 27.3438 13.9062C27.3438 15.5859 28.7109 16.9336 30.3906 16.9336ZM19.5117 35.1562C20.1758 35.5273 21.1133 35.332 21.5234 34.668L24.9414 29.1992L28.6523 29.3945L26.3281 33.125C25.918 33.7891 26.0938 34.7656 26.7969 35.1562C27.5195 35.5273 28.3594 35.3516 28.7891 34.668L32.4023 28.9258C33.0078 27.9688 32.5 26.7578 31.1719 26.6016L25.0977 25.9375C24.5117 25.8594 24.2969 25.2539 24.5898 24.8047L27.0898 21.0156C27.2461 20.7812 27.5781 20.7227 27.793 20.8594L37.0117 26.4062C37.6953 26.7969 38.6328 26.582 39.0234 25.9375C39.4336 25.1953 39.1992 24.3164 38.5156 23.9062L20.3125 12.9492C20.0586 12.8125 19.8242 12.793 19.5703 12.793L13.7305 12.793C12.9102 12.793 12.2656 13.418 12.2656 14.1992C12.2656 15 12.9102 15.6836 13.7305 15.6836L19.1406 15.6836L21.6797 17.1875C21.9727 17.3438 22.0508 17.6758 21.875 17.9688L18.7109 22.6953C17.0117 25.2344 18.418 28.6133 21.6016 29.0234L19.0234 33.125C18.6133 33.7891 18.8086 34.7266 19.5117 35.1562ZM15.6836 38.4375L35.1172 38.4375C36.6602 38.4375 37.9492 38.125 38.9453 37.2461C39.3555 36.8945 39.3359 36.4453 39.0625 36.1328C38.8477 35.8203 38.3984 35.7227 37.9492 36.0352C37.207 36.6016 36.4453 36.875 35.1172 36.875L15.6836 36.875C14.375 36.875 13.5938 36.6016 12.8906 36.0352C12.4414 35.7422 12.0117 35.8203 11.7578 36.0742C11.4648 36.3672 11.4062 36.8945 11.8555 37.2461C12.8711 38.125 14.1406 38.4375 15.6836 38.4375Z" fill="black" fill-opacity="0.85"/>
 </g>
</svg>
