<?xml version="1.0" encoding="UTF-8"?>
<!--Generator: Apple Native CoreSVG 326-->
<!DOCTYPE svg
PUBLIC "-//W3C//DTD SVG 1.1//EN"
       "http://www.w3.org/Graphics/SVG/1.1/DTD/svg11.dtd">
<svg version="1.1" xmlns="http://www.w3.org/2000/svg" xmlns:xlink="http://www.w3.org/1999/xlink" viewBox="0 0 59.9219 59.0895">
 <g>
  <rect height="59.0895" opacity="0" width="59.9219" x="0" y="0"/>
  <path d="M6.44531 3.20686L10.5859 3.20686C10.4492 2.38654 10.5469 1.50764 10.8789 0.726387L6.44531 0.726387C5.76172 0.726387 5.21484 1.27326 5.21484 1.97639C5.21484 2.65998 5.76172 3.20686 6.44531 3.20686ZM21.6797 3.20686L45.0391 3.20686L46.4453 1.15607C46.5234 1.01936 46.6211 0.863106 46.6992 0.726387L20.0195 0.726387C20.1172 0.863106 20.1953 1.01936 20.3125 1.15607ZM56.1523 3.20686L58.3203 3.20686C59.0039 3.20686 59.5508 2.65998 59.5508 1.97639C59.5508 1.27326 59.0039 0.726387 58.3203 0.726387L55.8594 0.726387C56.1914 1.50764 56.3086 2.36701 56.1523 3.20686ZM33.5352 16.7225C36.5234 16.7225 38.9453 14.3006 38.9453 11.3123C38.9453 8.32404 36.5234 5.90217 33.5352 5.90217C30.5469 5.90217 28.125 8.32404 28.125 11.3123C28.125 14.3006 30.5469 16.7225 33.5352 16.7225ZM20.4102 38.8123C23.3984 42.4061 28.2227 41.8983 30.6836 38.2459L53.4961 4.06623C54.2969 2.87482 53.9453 1.27326 52.7734 0.492012C51.6016-0.308769 50 0.00373053 49.1992 1.19514L38.8672 16.7225C37.6953 18.5194 35.6641 19.4569 33.5352 19.4569C31.2891 19.4569 28.9648 18.4022 27.5195 16.1951L17.5586 1.19514C16.7578 0.00373053 15.1758-0.308769 13.9648 0.492012C12.793 1.27326 12.4609 2.87482 13.2617 4.06623L25.4688 22.3865C26.0352 23.2264 26.0547 24.3592 25.4688 25.2381L22.0703 30.3553L14.6484 23.8904C13.5938 22.9725 11.9922 22.9139 10.8398 24.0662L0.761719 34.2029C-0.253906 35.2186-0.253906 36.8006 0.761719 37.8162C1.875 38.8709 3.41797 38.7342 4.35547 37.8162L12.6758 29.535ZM26.4844 57.9529C27.3047 56.742 26.9922 55.2381 25.7812 54.4373L16.7188 48.3631L21.7773 42.7772C20.625 42.2498 19.5703 41.41 18.6328 40.2772L16.8359 38.1873L10.6836 47.4061C9.90234 48.5779 10.1953 50.199 11.4062 50.9998L22.9688 58.6561C24.1797 59.4569 25.7617 59.1053 26.4844 57.9529Z" fill="black" fill-opacity="0.85"/>
 </g>
</svg>
