<?xml version="1.0" encoding="UTF-8"?>
<!--Generator: Apple Native CoreSVG 326-->
<!DOCTYPE svg
PUBLIC "-//W3C//DTD SVG 1.1//EN"
       "http://www.w3.org/Graphics/SVG/1.1/DTD/svg11.dtd">
<svg version="1.1" xmlns="http://www.w3.org/2000/svg" xmlns:xlink="http://www.w3.org/1999/xlink" viewBox="0 0 70.1371 49.668">
 <g>
  <rect height="49.668" opacity="0" width="70.1371" x="0" y="0"/>
  <path d="M36.6213 12.3242L36.6213 17.7734C36.6213 19.2969 37.715 20.3906 39.2189 20.3906L43.3205 20.3906C44.8439 20.3906 45.9768 19.2969 45.9768 17.7734L45.9768 12.3242C45.9768 10.8398 44.8439 9.70703 43.3205 9.70703L39.2189 9.70703C37.715 9.70703 36.6213 10.8398 36.6213 12.3242ZM48.5158 12.3242L48.5158 17.7734C48.5158 19.2969 49.6291 20.3906 51.133 20.3906L55.2346 20.3906C56.7775 20.3906 57.8713 19.2969 57.8713 17.7734L57.8713 12.3242C57.8713 10.8398 56.7775 9.70703 55.2346 9.70703L51.133 9.70703C49.6291 9.70703 48.5158 10.8398 48.5158 12.3242ZM60.4299 12.3242L60.4299 17.7734C60.4299 19.2969 61.5236 20.3906 63.0471 20.3906L67.1486 20.3906C68.6721 20.3906 69.7658 19.2969 69.7658 17.7734L69.7658 12.3242C69.7658 10.8398 68.6721 9.70703 67.1486 9.70703L63.0471 9.70703C61.5236 9.70703 60.4299 10.8398 60.4299 12.3242ZM36.6213 26.5234L36.6213 31.9727C36.6213 33.4766 37.715 34.5703 39.2189 34.5703L43.3205 34.5703C44.8439 34.5703 45.9768 33.4766 45.9768 31.9727L45.9768 26.5234C45.9768 25.0195 44.8439 23.9258 43.3205 23.9258L39.2189 23.9258C37.715 23.9258 36.6213 25.0195 36.6213 26.5234ZM48.5158 26.5234L48.5158 31.9727C48.5158 33.4766 49.6291 34.5703 51.133 34.5703L55.2346 34.5703C56.7775 34.5703 57.8713 33.4766 57.8713 31.9727L57.8713 26.5234C57.8713 25.0195 56.7775 23.9258 55.2346 23.9258L51.133 23.9258C49.6291 23.9258 48.5158 25.0195 48.5158 26.5234ZM60.4299 26.5234L60.4299 31.9727C60.4299 33.4766 61.5236 34.5703 63.0471 34.5703L67.1486 34.5703C68.6721 34.5703 69.7658 33.4766 69.7658 31.9727L69.7658 26.5234C69.7658 25.0195 68.6721 23.9258 67.1486 23.9258L63.0471 23.9258C61.5236 23.9258 60.4299 25.0195 60.4299 26.5234ZM36.6213 40.7422L36.6213 46.1523C36.6213 47.6953 37.715 48.7695 39.2189 48.7695L43.3205 48.7695C44.8439 48.7695 45.9768 47.6953 45.9768 46.1523L45.9768 40.7422C45.9768 39.2188 44.8439 38.125 43.3205 38.125L39.2189 38.125C37.715 38.125 36.6213 39.2188 36.6213 40.7422ZM48.5158 40.7422L48.5158 46.1523C48.5158 47.6953 49.6291 48.7695 51.133 48.7695L55.2346 48.7695C56.7775 48.7695 57.8713 47.6953 57.8713 46.1523L57.8713 40.7422C57.8713 39.2188 56.7775 38.125 55.2346 38.125L51.133 38.125C49.6291 38.125 48.5158 39.2188 48.5158 40.7422ZM60.4299 40.7422L60.4299 46.1523C60.4299 47.6953 61.5236 48.7695 63.0471 48.7695L67.1486 48.7695C68.6721 48.7695 69.7658 47.6953 69.7658 46.1523L69.7658 40.7422C69.7658 39.2188 68.6721 38.125 67.1486 38.125L63.0471 38.125C61.5236 38.125 60.4299 39.2188 60.4299 40.7422ZM41.3088 17.5781C39.9025 17.5781 38.7111 16.4258 38.7111 15C38.7111 13.6133 39.9025 12.4609 41.3088 12.4609C42.676 12.4609 43.8674 13.6133 43.8674 15C43.8674 16.4258 42.676 17.5781 41.3088 17.5781ZM53.2033 17.5781C51.8166 17.5781 50.6057 16.4453 50.6057 15C50.6057 13.6133 51.8166 12.4609 53.2033 12.4609C54.5705 12.4609 55.7619 13.6133 55.7619 15C55.7619 16.4453 54.5705 17.5781 53.2033 17.5781ZM65.1174 17.5781C63.7111 17.5781 62.5197 16.4453 62.5197 15C62.5197 13.6133 63.7111 12.4609 65.1174 12.4609C66.4846 12.4609 67.6564 13.6133 67.6564 15C67.6564 16.4453 66.4846 17.5781 65.1174 17.5781ZM41.3088 31.7969C39.9221 31.7969 38.7111 30.6445 38.7111 29.2188C38.7111 27.832 39.9221 26.6797 41.3088 26.6797C42.676 26.6797 43.8674 27.832 43.8674 29.2188C43.8674 30.6445 42.676 31.7969 41.3088 31.7969ZM53.2033 31.7969C51.8166 31.7969 50.6057 30.6445 50.6057 29.2188C50.6057 27.832 51.8166 26.6797 53.2033 26.6797C54.5705 26.6797 55.7619 27.832 55.7619 29.2188C55.7619 30.6445 54.5705 31.7969 53.2033 31.7969ZM65.1174 31.7969C63.7111 31.7969 62.5197 30.6445 62.5197 29.2188C62.5197 27.832 63.7111 26.6797 65.1174 26.6797C66.4846 26.6797 67.6564 27.832 67.6564 29.2188C67.6564 30.6445 66.4846 31.7969 65.1174 31.7969ZM41.3088 45.9961C39.9221 45.9961 38.7111 44.8438 38.7111 43.418C38.7111 42.0312 39.9221 40.8984 41.3088 40.8984C42.676 40.8984 43.8674 42.0312 43.8674 43.418C43.8674 44.8438 42.676 45.9961 41.3088 45.9961ZM53.2033 45.9961C51.8166 45.9961 50.6057 44.8438 50.6057 43.418C50.6057 42.0312 51.8166 40.8984 53.2033 40.8984C54.5705 40.8984 55.7619 42.0312 55.7619 43.418C55.7619 44.8438 54.5705 45.9961 53.2033 45.9961ZM65.1174 45.9961C63.7111 45.9961 62.5197 44.8438 62.5197 43.418C62.5197 42.0312 63.7111 40.8984 65.1174 40.8984C66.4846 40.8984 67.6564 42.0312 67.6564 43.418C67.6564 44.8438 66.4846 45.9961 65.1174 45.9961ZM48.2033 6.42578L58.2619 6.42578C58.9455 6.42578 59.1018 5.68359 58.5549 5.3125L53.965 2.1875C53.4768 1.875 52.9885 1.875 52.5002 2.1875L47.9104 5.3125C47.3635 5.68359 47.5197 6.42578 48.2033 6.42578Z" fill="black" fill-opacity="0.85"/>
  <path d="M14.2971 10.9766C17.3439 10.9766 19.7463 8.45703 19.7463 5.52734C19.7463 2.48047 17.3439 0 14.2971 0C11.2307 0 8.84785 2.48047 8.84785 5.52734C8.84785 8.55469 11.2307 10.9766 14.2971 10.9766ZM3.80879 31.4258L19.4729 14.0039C17.9104 13.3984 16.2111 13.1641 14.2971 13.1641C7.24629 13.1641 3.0666 16.5625 3.0666 22.2461C3.0666 23.6328 3.12519 25.4688 3.34004 27.3242ZM24.8244 31.4258L25.2541 27.3242C25.4494 25.4688 25.5471 23.6328 25.5471 22.2461C25.5471 19.4141 24.5314 17.1289 22.5197 15.5664L9.9416 29.5703C11.426 29.3164 12.8518 29.2188 14.2971 29.2188C17.7736 29.2188 21.2893 29.6875 24.8244 31.4258ZM8.28144 49.5508C9.70723 49.3359 10.6838 48.3008 10.4885 46.5234L9.49238 37.4023L19.1018 37.4023L18.1447 46.5234C17.9689 48.3008 18.8869 49.3359 20.3322 49.5508C21.8361 49.6875 22.9689 48.7695 23.1643 47.0117L24.4338 34.9219C21.2307 33.0859 17.6955 32.3828 14.2971 32.3828C10.9182 32.3828 7.36348 33.0859 4.19941 34.9219L5.44941 47.0117C5.62519 48.7695 6.75801 49.6875 8.28144 49.5508ZM22.5197 15.5469L27.2268 10.332C28.008 9.45312 27.9299 8.49609 27.1682 7.85156C26.465 7.22656 25.5471 7.20703 24.7268 8.125L19.4729 14.0039C20.5861 14.4336 21.6213 14.9609 22.5197 15.5469ZM0.722851 33.2812C-0.116993 33.9062-0.156056 34.8828 0.254101 35.5469C0.683788 36.2305 1.54316 36.5625 2.46113 35.9961C3.0666 35.6055 3.59394 35.2539 4.19941 34.9219L3.80879 31.4258C2.67598 31.9336 1.66035 32.5391 0.722851 33.2812ZM27.8908 33.2812C26.9533 32.5391 25.9377 31.9336 24.8244 31.4258L24.4143 34.9219C25.0197 35.2539 25.5666 35.6055 26.1525 35.9961C27.0705 36.5625 27.9104 36.25 28.3596 35.5859C28.7502 34.9219 28.7502 33.9258 27.8908 33.2812Z" fill="black" fill-opacity="0.85"/>
 </g>
</svg>
