<?xml version="1.0" encoding="UTF-8"?>
<!--Generator: Apple Native CoreSVG 326-->
<!DOCTYPE svg
PUBLIC "-//W3C//DTD SVG 1.1//EN"
       "http://www.w3.org/Graphics/SVG/1.1/DTD/svg11.dtd">
<svg version="1.1" xmlns="http://www.w3.org/2000/svg" xmlns:xlink="http://www.w3.org/1999/xlink" viewBox="0 0 68.125 42.207">
 <g>
  <rect height="42.207" opacity="0" width="68.125" x="0" y="0"/>
  <path d="M5.41016 30.7422C8.39844 30.7422 10.8203 28.3203 10.8203 25.332C10.8203 22.3438 8.39844 19.9219 5.41016 19.9219C2.42188 19.9219 0 22.3438 0 25.332C0 28.3203 2.42188 30.7422 5.41016 30.7422ZM11.3867 32.5586C10.4297 35.0391 11.3672 37.5781 13.4375 39.0234C16.7773 41.3477 19.8828 42.207 24.8633 42.207L32.7539 42.207C38.8477 42.207 40.5078 37.4414 38.418 33.418L32.0508 21.1523L32.0508 2.55859C32.0508 1.11328 30.8984 0 29.4336 0C27.9883 0 26.8945 1.11328 26.8945 2.55859L26.8945 21.7773C26.8945 22.1094 26.9141 22.3828 27.0117 22.6367L30.6055 32.9102L25.918 32.9102C22.9297 32.9102 21.1914 32.0703 18.8477 30.6445C18.2227 30.2734 18.0469 29.707 18.3203 29.0039L24.1016 14.2188C24.6289 12.9102 23.9453 11.3672 22.6172 10.8789C21.2305 10.3516 19.7852 11.0156 19.2773 12.3633ZM41.6797 38.2422L50.9766 35.2148L65.6055 32.5586C67.0312 32.3242 67.9492 31.0156 67.7148 29.5703C67.4414 28.1445 66.0938 27.2461 64.6875 27.4805L49.1602 30.3125L40.4297 31.8945L40.6445 32.2656C41.8164 34.2188 42.0117 36.4062 41.6797 38.2422Z" fill="black" fill-opacity="0.85"/>
 </g>
</svg>
