<?xml version="1.0" encoding="UTF-8"?>
<!--Generator: Apple Native CoreSVG 326-->
<!DOCTYPE svg
PUBLIC "-//W3C//DTD SVG 1.1//EN"
       "http://www.w3.org/Graphics/SVG/1.1/DTD/svg11.dtd">
<svg version="1.1" xmlns="http://www.w3.org/2000/svg" xmlns:xlink="http://www.w3.org/1999/xlink" viewBox="0 0 51.25 50.918">
 <g>
  <rect height="50.918" opacity="0" width="51.25" x="0" y="0"/>
  <path d="M50.8789 25.4492C50.8789 39.4531 39.4531 50.8789 25.4297 50.8789C11.4258 50.8789 0 39.4531 0 25.4492C0 11.4258 11.4258 0 25.4297 0C39.4531 0 50.8789 11.4258 50.8789 25.4492ZM17.3438 17.4414C16.543 17.4414 15.8789 18.0859 15.8789 18.9062C15.8789 19.7266 16.5234 20.3906 17.3438 20.3906L19.4336 20.3906L17.3047 22.9297C15.7812 24.7266 14.375 25.957 12.1289 26.9727L9.92188 27.9883L10.6055 25.4883C10.8398 24.707 10.293 23.9062 9.55078 23.7109C8.73047 23.5352 7.94922 24.0039 7.75391 24.7656L6.36719 30.1758C5.99609 31.6211 7.26562 32.3633 8.55469 31.8164L13.1445 29.7656C13.6133 29.5703 13.8672 29.6094 14.2383 29.8633C15.7227 31.1523 18.0859 31.9922 21.3281 31.9922L25.3906 31.9922C28.7695 31.9922 29.7266 30.0781 29.4336 27.8516L28.5156 20.3906L34.0625 20.3906C34.8633 20.3906 35.5078 19.7266 35.5078 18.9062C35.5078 18.0859 34.8633 17.4414 34.0625 17.4414L26.6992 17.4414C25.8594 17.4414 25.2344 18.0469 25.2344 19.0234L25.2344 26.5625L22.793 26.5625C21.4844 26.5625 20.3711 26.1328 19.7852 25.1367C19.6094 24.8828 19.6094 24.5508 19.9023 24.2383L23.5352 19.8828C24.3945 18.8672 23.7109 17.4414 22.5 17.4414ZM36.9141 25.7227C36.8164 25.7227 36.6602 25.7617 36.5039 25.7617L30.4492 26.2695L30.6445 27.7148C30.7422 28.4961 30.7031 29.2969 30.5078 30.0195L37.0508 28.6914L44.3945 28.6914C45.2148 28.6914 45.8789 28.0273 45.8789 27.207C45.8789 26.3867 45.2148 25.7227 44.3945 25.7227ZM8.86719 20.2734C8.86719 21.9922 10.2734 23.3789 11.9727 23.3789C13.6914 23.3789 15.0977 21.9922 15.0977 20.2734C15.0977 18.5742 13.6914 17.1875 11.9727 17.1875C10.2734 17.1875 8.86719 18.5742 8.86719 20.2734Z" fill="black" fill-opacity="0.85"/>
 </g>
</svg>
