<?xml version="1.0" encoding="UTF-8"?>
<!--Generator: Apple Native CoreSVG 326-->
<!DOCTYPE svg
PUBLIC "-//W3C//DTD SVG 1.1//EN"
       "http://www.w3.org/Graphics/SVG/1.1/DTD/svg11.dtd">
<svg version="1.1" xmlns="http://www.w3.org/2000/svg" xmlns:xlink="http://www.w3.org/1999/xlink" viewBox="0 0 47.4628 61.9336">
 <g>
  <rect height="61.9336" opacity="0" width="47.4628" x="0" y="0"/>
  <path d="M33.3994 10.8789C36.3876 10.8789 38.8095 8.45703 38.8095 5.46875C38.8095 2.46094 36.3876 0.0585938 33.3994 0.0585938C30.4111 0.0585938 27.9892 2.46094 27.9892 5.46875C27.9892 8.45703 30.4111 10.8789 33.3994 10.8789ZM16.2314 30.5469L25.4697 39.8242L25.4697 54.3555L30.5478 54.3555L30.5478 39.0625C30.5478 38.3398 30.372 37.6562 29.8642 36.9922L23.6533 29.1016L28.9658 20.9766C29.2978 20.4492 30.04 20.4492 30.333 21.0547L32.0908 24.5898C32.5009 25.4297 33.3798 25.9961 34.3369 25.9961L44.5517 25.9961C45.958 25.9961 47.0908 24.8828 47.0908 23.457C47.0908 22.0508 45.958 20.918 44.5517 20.918L35.9189 20.918L33.2431 15.5078C32.1884 13.3594 29.9814 12.0117 27.5791 12.0117L14.0048 12.0117C13.165 12.0117 12.3447 12.4414 11.8564 13.1641L6.79781 20.7812C6.01656 21.9336 6.32906 23.5156 7.50093 24.2969C8.65327 25.0781 10.2158 24.7656 11.0166 23.5742L15.3525 17.0703L19.5322 17.0703C19.8837 17.0703 20.0595 17.3828 19.8837 17.6953L15.5673 24.1406C14.2587 26.1328 14.5126 28.8281 16.2314 30.5469ZM0.879836 34.2773L10.8798 43.0273C12.4619 44.4141 14.2197 43.6719 14.9814 42.4805L18.8681 36.4844L14.6689 32.2656C14.5908 32.207 14.5517 32.1484 14.4736 32.0898L11.9345 37.1875L4.21968 30.4492C3.16499 29.5508 1.56343 29.6094 0.62593 30.6836C-0.292039 31.7383-0.194382 33.3594 0.879836 34.2773ZM13.497 56.1328L30.9384 56.1328C33.6923 56.1328 35.8994 55.5859 37.6376 54.082C38.2626 53.5352 38.2431 52.8516 37.9306 52.3828C37.5595 51.8555 36.7783 51.6016 36.0361 52.1484C34.6884 53.2031 33.2822 53.6719 30.9384 53.6719L13.497 53.6719C11.1533 53.6719 9.74702 53.2031 8.39937 52.1484C7.71577 51.6406 7.01265 51.8164 6.62202 52.2461C6.19234 52.7148 6.11421 53.4766 6.79781 54.082C8.55562 55.5859 10.7431 56.1328 13.497 56.1328ZM13.497 61.9336C14.6494 61.9336 15.6259 60.957 15.6259 59.8047C15.6259 58.6523 14.6494 57.6758 13.497 57.6758C12.3447 57.6758 11.3681 58.6523 11.3681 59.8047C11.3681 60.957 12.3447 61.9336 13.497 61.9336ZM30.9384 61.9336C32.1103 61.9336 33.0673 60.957 33.0673 59.8047C33.0673 58.6523 32.1103 57.6758 30.9384 57.6758C29.7861 57.6758 28.8095 58.6523 28.8095 59.8047C28.8095 60.957 29.7861 61.9336 30.9384 61.9336Z" fill="black" fill-opacity="0.85"/>
 </g>
</svg>
