<?xml version="1.0" encoding="UTF-8"?>
<!--Generator: Apple Native CoreSVG 326-->
<!DOCTYPE svg
PUBLIC "-//W3C//DTD SVG 1.1//EN"
       "http://www.w3.org/Graphics/SVG/1.1/DTD/svg11.dtd">
<svg version="1.1" xmlns="http://www.w3.org/2000/svg" xmlns:xlink="http://www.w3.org/1999/xlink" viewBox="0 0 51.25 50.918">
 <g>
  <rect height="50.918" opacity="0" width="51.25" x="0" y="0"/>
  <path d="M25.4297 50.8789C39.4727 50.8789 50.8789 39.4922 50.8789 25.4492C50.8789 11.4062 39.4727 0 25.4297 0C11.3867 0 0 11.4062 0 25.4492C0 39.4922 11.3867 50.8789 25.4297 50.8789ZM25.4297 47.2461C13.3789 47.2461 3.63281 37.5 3.63281 25.4492C3.63281 13.3984 13.3789 3.65234 25.4297 3.65234C37.4805 3.65234 47.2266 13.3984 47.2266 25.4492C47.2266 37.5 37.4805 47.2461 25.4297 47.2461Z" fill="black" fill-opacity="0.85"/>
  <path d="M25.9375 15.6055C27.5977 15.6055 28.9453 14.2578 28.9453 12.5586C28.9453 10.8789 27.5977 9.53125 25.9375 9.53125C24.2383 9.53125 22.8906 10.8789 22.8906 12.5586C22.8906 14.2578 24.2383 15.6055 25.9375 15.6055ZM37.5391 19.9609C38.3203 19.9609 38.9648 19.3359 38.9648 18.5352C38.9648 17.7344 38.3203 17.1289 37.5391 17.1289L23.0078 17.1289C21.6406 17.1289 20.4688 17.832 19.8242 19.082L13.5156 31.6797L9.96094 28.1445C9.39453 27.5781 8.51562 27.5977 7.96875 28.1445C7.42188 28.6914 7.40234 29.5703 7.96875 30.1367L12.9688 35.1562C13.5742 35.7617 14.5312 35.6641 15 34.9609L19.1211 28.9453C19.3555 28.6133 19.8242 28.5547 20.1562 28.7891L25.2148 32.6562L25.2148 39.7266C25.2148 40.5078 25.8398 41.1328 26.6211 41.1328C27.4023 41.1328 28.0469 40.5078 28.0469 39.7266L28.0469 31.9336C28.0469 31.582 27.8906 31.2305 27.6367 30.9766L22.6953 26.0156L25.3516 20.7227C25.6055 20.2148 26.0547 19.9609 26.6016 19.9609ZM28.75 26.3086L34.0234 26.3086C34.8047 26.3086 35.4102 25.6641 35.4102 24.9023C35.4102 24.1211 34.8047 23.4766 34.0234 23.4766L29.3359 23.4766L26.9727 21.1133L26.6016 21.1133C26.4648 21.1133 26.4648 21.1133 26.4062 21.25L25.293 23.418L27.7539 25.8984C28.0273 26.1523 28.3789 26.3086 28.75 26.3086ZM36.4648 23.3008C36.4648 24.668 38.0469 25.7812 40 25.7812C41.9531 25.7812 43.5352 24.668 43.5352 23.3008C43.5352 21.9336 41.9531 20.8398 40 20.8398C38.0469 20.8398 36.4648 21.9336 36.4648 23.3008Z" fill="black" fill-opacity="0.85"/>
 </g>
</svg>
