<?xml version="1.0" encoding="UTF-8"?>
<!--Generator: Apple Native CoreSVG 326-->
<!DOCTYPE svg
PUBLIC "-//W3C//DTD SVG 1.1//EN"
       "http://www.w3.org/Graphics/SVG/1.1/DTD/svg11.dtd">
<svg version="1.1" xmlns="http://www.w3.org/2000/svg" xmlns:xlink="http://www.w3.org/1999/xlink" viewBox="0 0 51.25 50.918">
 <g>
  <rect height="50.918" opacity="0" width="51.25" x="0" y="0"/>
  <path d="M25.4297 50.8789C39.4727 50.8789 50.8789 39.4922 50.8789 25.4492C50.8789 11.4062 39.4727 0 25.4297 0C11.3867 0 0 11.4062 0 25.4492C0 39.4922 11.3867 50.8789 25.4297 50.8789ZM25.4297 47.2461C13.3789 47.2461 3.63281 37.5 3.63281 25.4492C3.63281 13.3984 13.3789 3.65234 25.4297 3.65234C37.4805 3.65234 47.2266 13.3984 47.2266 25.4492C47.2266 37.5 37.4805 47.2461 25.4297 47.2461Z" fill="black" fill-opacity="0.85"/>
  <path d="M26.1523 21.2695C27.8125 21.2695 29.1992 19.9023 29.1992 18.2422C29.1992 16.5625 27.8125 15.1953 26.1523 15.1953C24.4922 15.1953 23.1055 16.5625 23.1055 18.2422C23.1055 19.9023 24.4922 21.2695 26.1523 21.2695ZM19.5703 27.9102C22.5781 28.3398 23.2031 30.1172 25.3906 30.1172C25.4688 30.1172 25.5469 30.1172 25.625 30.0977L26.9727 26.2891C27.1094 25.8594 27.3828 25.6836 27.832 25.6836L40.1953 25.6836C41.0352 25.6836 41.6992 25.0195 41.6992 24.1797C41.6992 23.3984 41.0352 22.7148 40.1953 22.7148L16.9336 22.7148L15 16.4062C14.7461 15.6055 13.9453 15.1562 13.1641 15.3906C12.3828 15.625 11.9531 16.4844 12.1875 17.207L14.375 24.4531C14.5508 25.1367 15.0781 25.6836 15.8008 25.6836L19.7852 25.6836C20.0781 25.6836 20.2734 25.918 20.1758 26.2109ZM17.8906 15.9766C19.082 15.9766 20.0586 15 20.0586 13.8086C20.0586 12.6172 19.082 11.6406 17.8906 11.6406C16.6992 11.6406 15.7227 12.6172 15.7227 13.8086C15.7227 15 16.6992 15.9766 17.8906 15.9766ZM25.3906 33.75C29.1602 33.75 30.0391 31.4062 32.6758 31.4062C35.2734 31.4062 36.1523 33.75 39.9414 33.75L40.8789 33.75C41.2891 33.75 41.6602 33.3984 41.6602 32.9688C41.6602 32.5586 41.2891 32.1875 40.8789 32.1875L39.9414 32.1875C37.2266 32.1875 36.2891 29.8438 32.6758 29.8438C29.0625 29.8438 28.1055 32.1875 25.3906 32.1875C22.6758 32.1875 21.7188 29.8438 18.1055 29.8438C14.4727 29.8438 13.5352 32.1875 10.8398 32.1875L9.96094 32.1875C9.55078 32.1875 9.17969 32.5586 9.17969 32.9688C9.17969 33.3984 9.55078 33.75 9.96094 33.75L10.8398 33.75C14.6289 33.75 15.5078 31.4062 18.1055 31.4062C20.7422 31.4062 21.6016 33.75 25.3906 33.75ZM10.0391 36.8555C10.5273 36.8555 10.8984 36.4844 10.8984 35.9961C10.8984 35.5078 10.5273 35.1367 10.0391 35.1367C9.55078 35.1367 9.17969 35.5078 9.17969 35.9961C9.17969 36.4844 9.55078 36.8555 10.0391 36.8555ZM12.5 36.8555C12.9883 36.8555 13.3398 36.4844 13.3398 35.9961C13.3398 35.5078 12.9883 35.1367 12.5 35.1367C12.0117 35.1367 11.6406 35.5078 11.6406 35.9961C11.6406 36.4844 12.0117 36.8555 12.5 36.8555ZM14.9805 36.0352C15.4688 36.0352 15.8398 35.6641 15.8398 35.1758C15.8398 34.707 15.4688 34.3359 14.9805 34.3359C14.5117 34.3359 14.1406 34.707 14.1406 35.1758C14.1406 35.6641 14.5117 36.0352 14.9805 36.0352ZM17.6367 35.4102C18.125 35.4102 18.4766 35.0391 18.4766 34.5508C18.4766 34.0625 18.125 33.6914 17.6367 33.6914C17.1484 33.6914 16.7773 34.0625 16.7773 34.5508C16.7773 35.0391 17.1484 35.4102 17.6367 35.4102ZM20.2734 36.0352C20.7617 36.0352 21.1328 35.6641 21.1328 35.1758C21.1328 34.707 20.7617 34.3359 20.2734 34.3359C19.7852 34.3359 19.4141 34.707 19.4141 35.1758C19.4141 35.6641 19.7852 36.0352 20.2734 36.0352ZM22.7539 37.168C23.2422 37.168 23.6133 36.7969 23.6133 36.3281C23.6133 35.8398 23.2422 35.4688 22.7539 35.4688C22.2852 35.4688 21.9141 35.8398 21.9141 36.3281C21.9141 36.7969 22.2852 37.168 22.7539 37.168ZM25.3906 37.6367C25.8789 37.6367 26.25 37.2852 26.25 36.7969C26.25 36.3086 25.8789 35.9375 25.3906 35.9375C24.9023 35.9375 24.5312 36.3086 24.5312 36.7969C24.5312 37.2852 24.9023 37.6367 25.3906 37.6367ZM28.0469 37.168C28.5352 37.168 28.9062 36.7969 28.9062 36.3281C28.9062 35.8398 28.5352 35.4688 28.0469 35.4688C27.5586 35.4688 27.1875 35.8398 27.1875 36.3281C27.1875 36.7969 27.5586 37.168 28.0469 37.168ZM30.5273 36.0352C31.0156 36.0352 31.3867 35.6641 31.3867 35.1758C31.3867 34.707 31.0156 34.3359 30.5273 34.3359C30.0391 34.3359 29.6875 34.707 29.6875 35.1758C29.6875 35.6641 30.0391 36.0352 30.5273 36.0352ZM33.2031 35.4102C33.6719 35.4102 34.043 35.0391 34.043 34.5508C34.043 34.0625 33.6719 33.6914 33.2031 33.6914C32.7148 33.6914 32.3438 34.0625 32.3438 34.5508C32.3438 35.0391 32.7148 35.4102 33.2031 35.4102ZM35.8398 36.0352C36.3281 36.0352 36.6992 35.6641 36.6992 35.1758C36.6992 34.707 36.3281 34.3359 35.8398 34.3359C35.3516 34.3359 34.9805 34.707 34.9805 35.1758C34.9805 35.6641 35.3516 36.0352 35.8398 36.0352ZM38.3203 36.8555C38.7891 36.8555 39.1602 36.4844 39.1602 35.9961C39.1602 35.5078 38.7891 35.1367 38.3203 35.1367C37.832 35.1367 37.4609 35.5078 37.4609 35.9961C37.4609 36.4844 37.832 36.8555 38.3203 36.8555ZM40.8008 36.8555C41.2891 36.8555 41.6602 36.4844 41.6602 35.9961C41.6602 35.5078 41.2891 35.1367 40.8008 35.1367C40.332 35.1367 39.9609 35.5078 39.9609 35.9961C39.9609 36.4844 40.332 36.8555 40.8008 36.8555Z" fill="black" fill-opacity="0.85"/>
 </g>
</svg>
