<?xml version="1.0" encoding="UTF-8"?>
<!--Generator: Apple Native CoreSVG 326-->
<!DOCTYPE svg
PUBLIC "-//W3C//DTD SVG 1.1//EN"
       "http://www.w3.org/Graphics/SVG/1.1/DTD/svg11.dtd">
<svg version="1.1" xmlns="http://www.w3.org/2000/svg" xmlns:xlink="http://www.w3.org/1999/xlink" viewBox="0 0 51.25 50.918">
 <g>
  <rect height="50.918" opacity="0" width="51.25" x="0" y="0"/>
  <path d="M50.8789 25.4492C50.8789 39.4531 39.4531 50.8789 25.4297 50.8789C11.4258 50.8789 0 39.4531 0 25.4492C0 11.4258 11.4258 0 25.4297 0C39.4531 0 50.8789 11.4258 50.8789 25.4492ZM17.6953 14.7266C16.2695 14.7266 15.8984 16.25 16.7383 17.1289L18.4375 18.8477L17.7539 19.1016C15.1367 20.1562 14.3945 23.5547 16.8555 25.3516L22.3633 29.3945L19.3359 35.4688C18.9648 36.1719 19.2773 36.9922 19.9805 37.3828C20.5273 37.6562 21.5039 37.5391 21.8945 36.7188L25.4688 29.6094C25.7422 29.043 25.6445 28.418 25.1953 27.9688L20.8789 23.6328L23.125 22.5195L29.8633 29.2578L29.8633 29.6875C29.8633 30.4688 30.5273 31.0742 31.3281 31.0742C31.4258 31.0742 31.5234 31.0742 31.6406 31.0352L37.1094 36.5039C37.4219 36.7969 37.5977 36.8359 37.8906 36.8359L41.7773 36.8359C42.168 36.8359 42.5 36.5234 42.5 36.0938L42.5 35.4102C42.5 34.9805 42.168 34.6484 41.7773 34.6484L37.3438 34.6484L32.6758 29.9805C32.7344 29.8828 32.7344 29.7852 32.7344 29.6875L32.7344 23.2812C32.7344 22.8711 32.6562 22.5586 32.3242 22.2461L25.8789 15.8398C25.1562 15.1367 24.1992 14.7266 23.1836 14.7266ZM13.9062 28.9648L8.18359 28.9648C7.40234 28.9648 6.75781 29.6094 6.75781 30.4102C6.75781 31.1914 7.40234 31.8359 8.18359 31.8359L14.9219 31.8359C15.4883 31.8359 15.9375 31.4844 16.1719 31.0156L17.9102 27.5781L16.1328 26.3086C15.6641 25.9766 15.293 25.5859 15.1172 25.3125ZM27.0703 21.0352L29.8633 23.8672L29.8633 27.168L24.5117 21.8164L26.3086 20.918C26.5625 20.7812 26.8945 20.8594 27.0703 21.0352ZM27.4219 13.7109C27.4219 15.4297 28.8281 16.7969 30.5469 16.7969C32.2461 16.7969 33.6523 15.4297 33.6523 13.7109C33.6523 11.9727 32.2461 10.5859 30.5469 10.5859C28.8281 10.5859 27.4219 11.9727 27.4219 13.7109Z" fill="black" fill-opacity="0.85"/>
 </g>
</svg>
