<?xml version="1.0" encoding="UTF-8"?>
<!--Generator: Apple Native CoreSVG 326-->
<!DOCTYPE svg
PUBLIC "-//W3C//DTD SVG 1.1//EN"
       "http://www.w3.org/Graphics/SVG/1.1/DTD/svg11.dtd">
<svg version="1.1" xmlns="http://www.w3.org/2000/svg" xmlns:xlink="http://www.w3.org/1999/xlink" viewBox="0 0 46.1035 59.1602">
 <g>
  <rect height="59.1602" opacity="0" width="46.1035" x="0" y="0"/>
  <path d="M18.501 32.599L18.501 35.0781C18.501 37.5195 20.415 39.4336 22.876 39.4336C23.6022 39.4336 24.2807 39.2669 24.8743 38.9657L29.9463 44.0323L29.9463 54.2578C29.9463 57.4414 28.2666 59.1406 25.2002 59.1406L20.5322 59.1406C17.4658 59.1406 15.7861 57.4414 15.7861 54.2578L15.7861 29.887ZM35.083 11.0352C35.083 13.2812 34.2432 14.9609 33.0322 16.875L31.5869 19.1406C30.5908 20.6836 29.9463 22.5781 29.9463 25.3711L29.9463 31.6211L27.251 28.9258L27.251 27.6562C27.251 25.2148 25.3369 23.2812 22.876 23.2812C22.485 23.2812 22.1078 23.3301 21.7521 23.4269L10.7454 12.4202C10.6692 11.9804 10.6299 11.521 10.6299 11.0352L10.6299 8.47656L35.083 8.47656ZM35.083 4.86328L35.083 5.76172L10.6299 5.76172L10.6299 4.86328C10.6299 1.60156 12.2314 0 15.376 0L30.3564 0C33.501 0 35.083 1.60156 35.083 4.86328Z" fill="black" fill-opacity="0.85"/>
  <path d="M3.18848 13.457L40.2393 50.4688C40.8838 51.1133 41.958 51.1133 42.6025 50.4688C43.2471 49.8047 43.2471 48.7695 42.6025 48.1055L5.57129 11.1133C4.92676 10.4688 3.87207 10.4492 3.18848 11.1133C2.56348 11.7383 2.56348 12.832 3.18848 13.457Z" fill="black" fill-opacity="0.85"/>
 </g>
</svg>
