<?xml version="1.0" encoding="UTF-8"?>
<!--Generator: Apple Native CoreSVG 326-->
<!DOCTYPE svg
PUBLIC "-//W3C//DTD SVG 1.1//EN"
       "http://www.w3.org/Graphics/SVG/1.1/DTD/svg11.dtd">
<svg version="1.1" xmlns="http://www.w3.org/2000/svg" xmlns:xlink="http://www.w3.org/1999/xlink" viewBox="0 0 59.5508 49.082">
 <g>
  <rect height="49.082" opacity="0" width="59.5508" x="0" y="0"/>
  <path d="M7.59766 47.4805L51.5625 47.4805C56.6211 47.4805 59.1797 44.9219 59.1797 39.9609L59.1797 15.5273C59.1797 10.5469 56.6211 8.00781 51.5625 8.00781L47.9492 8.00781L47.9492 11.4648L51.5039 11.4648C54.1797 11.4648 55.7031 12.9102 55.7031 15.7031L55.7031 39.7656C55.7031 42.5781 54.1797 44.0234 51.5039 44.0234L7.67578 44.0234C4.94141 44.0234 3.45703 42.5781 3.45703 39.7656L3.45703 15.7031C3.45703 12.9102 4.94141 11.4648 7.67578 11.4648L36.6992 11.4648L36.6992 8.00781L7.59766 8.00781C2.55859 8.00781 0 10.5273 0 15.5273L0 39.9609C0 44.9609 2.55859 47.4805 7.59766 47.4805ZM6.17188 45.8398L53.125 45.8398C55.9961 45.8398 57.9883 43.6328 57.9883 40.5273L57.9883 30.0781C55.3516 29.9805 53.3008 28.9648 51.9336 27.3828C51.3867 26.7383 50.8008 26.7578 50.2539 27.3828C48.7305 29.1211 46.4453 30.0977 43.9453 30.0977C41.4258 30.0977 39.1406 29.1211 37.6172 27.3828C37.0703 26.7578 36.4844 26.7383 35.9375 27.3828C34.4922 29.0625 32.1484 30.0977 29.5898 30.0977C27.0117 30.0977 24.668 29.0625 23.2422 27.3828C22.6953 26.7383 22.1094 26.7578 21.543 27.3828C20.0391 29.1211 17.7344 30.0977 15.2344 30.0977C12.7344 30.0977 10.4297 29.1211 8.92578 27.3828C8.37891 26.7578 7.77344 26.7383 7.22656 27.3828C5.87891 28.9648 3.82812 29.9805 1.19141 30.0781L1.19141 40.5273C1.19141 43.6328 3.18359 45.8398 6.17188 45.8398ZM34.8438 11.3672L38.1055 11.3672L38.1055 1.91406L34.8438 1.91406ZM46.0352 11.3672L49.2969 11.3672L49.2969 1.91406L46.0352 1.91406ZM32.2656 3.45703L51.8555 3.45703C52.8516 3.45703 53.5938 2.67578 53.5938 1.71875C53.5938 0.78125 52.8516 0 51.8555 0L32.2656 0C31.3281 0 30.5469 0.78125 30.5469 1.71875C30.5469 2.67578 31.3281 3.45703 32.2656 3.45703Z" fill="black" fill-opacity="0.85"/>
 </g>
</svg>
