<?xml version="1.0" encoding="UTF-8"?>
<!--Generator: Apple Native CoreSVG 326-->
<!DOCTYPE svg
PUBLIC "-//W3C//DTD SVG 1.1//EN"
       "http://www.w3.org/Graphics/SVG/1.1/DTD/svg11.dtd">
<svg version="1.1" xmlns="http://www.w3.org/2000/svg" xmlns:xlink="http://www.w3.org/1999/xlink" viewBox="0 0 51.25 50.918">
 <g>
  <rect height="50.918" opacity="0" width="51.25" x="0" y="0"/>
  <path d="M50.8789 25.4492C50.8789 39.4531 39.4531 50.8789 25.4297 50.8789C11.4258 50.8789 0 39.4531 0 25.4492C0 11.4258 11.4258 0 25.4297 0C39.4531 0 50.8789 11.4258 50.8789 25.4492ZM21.2109 14.1797C20.332 14.1797 19.8047 14.707 19.8047 15.6055L19.8047 31.4258L17.3438 31.4258C16.8945 31.4258 16.5625 31.7773 16.5625 32.207C16.5625 32.6758 16.8945 32.9883 17.3438 32.9883L19.8047 32.9883L19.8047 35.918C19.8047 36.7383 20.3711 37.3242 21.1914 37.3242C21.9727 37.3242 22.5586 36.7383 22.5586 35.918L22.5586 32.9883L28.2227 32.9883C28.6719 32.9883 29.0039 32.6758 29.0039 32.207C29.0039 31.7773 28.6719 31.4258 28.2227 31.4258L22.5586 31.4258L22.5586 26.6211L31.2695 26.6211C31.9727 26.6211 32.5 26.1133 32.5 25.4492C32.5 24.7852 31.9727 24.2773 31.2695 24.2773L22.5586 24.2773L22.5586 16.5625L32.168 16.5625C32.8906 16.5625 33.418 16.0547 33.418 15.3906C33.418 14.6875 32.8906 14.1797 32.168 14.1797Z" fill="black" fill-opacity="0.85"/>
 </g>
</svg>
