<?xml version="1.0" encoding="UTF-8"?>
<!--Generator: Apple Native CoreSVG 326-->
<!DOCTYPE svg
PUBLIC "-//W3C//DTD SVG 1.1//EN"
       "http://www.w3.org/Graphics/SVG/1.1/DTD/svg11.dtd">
<svg version="1.1" xmlns="http://www.w3.org/2000/svg" xmlns:xlink="http://www.w3.org/1999/xlink" viewBox="0 0 51.25 50.918">
 <g>
  <rect height="50.918" opacity="0" width="51.25" x="0" y="0"/>
  <path d="M25.4297 50.8789C39.4727 50.8789 50.8789 39.4922 50.8789 25.4492C50.8789 11.4062 39.4727 0 25.4297 0C11.3867 0 0 11.4062 0 25.4492C0 39.4922 11.3867 50.8789 25.4297 50.8789ZM25.4297 47.2461C13.3789 47.2461 3.63281 37.5 3.63281 25.4492C3.63281 13.3984 13.3789 3.65234 25.4297 3.65234C37.4805 3.65234 47.2266 13.3984 47.2266 25.4492C47.2266 37.5 37.4805 47.2461 25.4297 47.2461Z" fill="black" fill-opacity="0.85"/>
  <path d="M14.8633 37.9492C15.9375 37.9492 16.8359 37.0508 16.8359 35.957C16.8359 34.8828 15.9375 33.9844 14.8633 33.9844C13.7695 33.9844 12.8711 34.8828 12.8711 35.957C12.8711 37.0508 13.7695 37.9492 14.8633 37.9492ZM10.4688 27.4219C11.543 27.4219 12.4414 26.5234 12.4414 25.4492C12.4414 24.3555 11.543 23.457 10.4688 23.457C9.39453 23.457 8.49609 24.3555 8.49609 25.4492C8.49609 26.5234 9.39453 27.4219 10.4688 27.4219ZM25.4102 12.4609C26.5039 12.4609 27.4023 11.5625 27.4023 10.4688C27.4023 9.39453 26.5039 8.49609 25.4102 8.49609C24.3359 8.49609 23.4375 9.39453 23.4375 10.4688C23.4375 11.5625 24.3359 12.4609 25.4102 12.4609ZM36.0156 16.8945C37.0898 16.8945 37.9883 16.0156 37.9883 14.9219C37.9883 13.8477 37.0898 12.9492 36.0156 12.9492C34.9219 12.9492 34.043 13.8477 34.043 14.9219C34.043 16.0156 34.9219 16.8945 36.0156 16.8945ZM40.4102 27.4219C41.4844 27.4219 42.3828 26.5234 42.3828 25.4492C42.3828 24.3555 41.4844 23.457 40.4102 23.457C39.3164 23.457 38.418 24.3555 38.418 25.4492C38.418 26.5234 39.3164 27.4219 40.4102 27.4219ZM36.0156 37.9492C37.0898 37.9492 37.9883 37.0508 37.9883 35.957C37.9883 34.8828 37.0898 33.9844 36.0156 33.9844C34.9219 33.9844 34.043 34.8828 34.043 35.957C34.043 37.0508 34.9219 37.9492 36.0156 37.9492ZM29.2383 28.9844C30.7812 27.4609 30.7812 25.1953 29.2383 23.6719C28.9844 23.3984 28.3984 22.9688 28.0469 22.7148L15.7227 14.0039C15.2148 13.6328 14.6875 13.7305 14.3164 14.0625C13.9844 14.4141 13.9062 14.9414 14.2773 15.4688L22.9688 27.7734C23.2227 28.125 23.6523 28.7109 23.9258 28.9844C25.4688 30.5273 27.6953 30.5273 29.2383 28.9844Z" fill="black" fill-opacity="0.85"/>
 </g>
</svg>
