<?xml version="1.0" encoding="UTF-8"?>
<!--Generator: Apple Native CoreSVG 326-->
<!DOCTYPE svg
PUBLIC "-//W3C//DTD SVG 1.1//EN"
       "http://www.w3.org/Graphics/SVG/1.1/DTD/svg11.dtd">
<svg version="1.1" xmlns="http://www.w3.org/2000/svg" xmlns:xlink="http://www.w3.org/1999/xlink" viewBox="0 0 56.2305 55.8789">
 <g>
  <rect height="55.8789" opacity="0" width="56.2305" x="0" y="0"/>
  <path d="M27.9297 55.8594C43.2812 55.8594 55.8594 43.3008 55.8594 27.9297C55.8594 12.5586 43.2812 0 27.9297 0C12.5781 0 0 12.5586 0 27.9297C0 43.3008 12.5781 55.8594 27.9297 55.8594ZM27.9297 46.6797C17.5586 46.6797 9.16016 38.3008 9.16016 27.9297C9.16016 17.5586 17.5586 9.16016 27.9297 9.16016C38.3008 9.16016 46.6992 17.5586 46.6992 27.9297C46.6992 38.3008 38.3008 46.6797 27.9297 46.6797Z" fill="black" fill-opacity="0.85"/>
  <path d="M28.1055 38.9062C33.4766 38.9062 36.7578 35.6836 36.7578 30L36.7578 28.8477C36.7578 28.0078 36.2305 27.4805 35.4297 27.4805L28.5742 27.4805L28.5742 29.5898L34.2188 29.5898L34.2188 30.5664C34.2188 34.1602 32.0117 36.6406 28.125 36.6406C23.4766 36.6406 21.1523 32.6367 21.1523 27.7734C21.1523 23.2031 23.2812 19.0234 28.0859 19.0234C30.8398 19.0234 33.2812 20.625 33.9453 23.0469C34.1797 23.7109 34.4727 24.0039 35.1953 24.0039C35.8984 24.0039 36.3477 23.5547 36.3477 22.8711C36.3477 22.5586 36.3086 22.168 36.1328 21.7578C34.9219 18.418 31.4258 16.7383 28.0859 16.7383C21.7969 16.7383 18.457 21.5625 18.457 27.793C18.457 34.2188 21.9531 38.9062 28.1055 38.9062ZM27.9883 41.8555C28.4375 41.8555 28.7695 41.5234 28.7695 41.0938L28.7695 14.6484C28.7695 14.1797 28.4375 13.8672 27.9883 13.8672C27.5195 13.8672 27.207 14.1797 27.207 14.6484L27.207 41.0938C27.207 41.5234 27.5195 41.8555 27.9883 41.8555Z" fill="black" fill-opacity="0.85"/>
 </g>
</svg>
