<?xml version="1.0" encoding="UTF-8"?>
<!--Generator: Apple Native CoreSVG 326-->
<!DOCTYPE svg
PUBLIC "-//W3C//DTD SVG 1.1//EN"
       "http://www.w3.org/Graphics/SVG/1.1/DTD/svg11.dtd">
<svg version="1.1" xmlns="http://www.w3.org/2000/svg" xmlns:xlink="http://www.w3.org/1999/xlink" viewBox="0 0 68.5422 64.4747">
 <g>
  <rect height="64.4747" opacity="0" width="68.5422" x="0" y="0"/>
  <path d="M1.65389 17.4229L8.95858 18.9854C9.7203 19.1612 10.1695 19.8643 10.0328 20.5869C9.87655 21.3487 9.13436 21.7979 8.43123 21.6612L1.10702 20.1182C0.364828 19.9815-0.0843907 19.2784 0.0132656 18.5557C0.110922 17.7549 0.872641 17.2471 1.65389 17.4229ZM7.68905 6.17288L12.9625 11.4463C13.5094 11.9932 13.4898 12.8526 12.9625 13.3994C12.4351 13.9463 11.5562 13.9463 11.0289 13.3994L5.75545 8.12601C5.16952 7.54007 5.20858 6.71976 5.75545 6.17288C6.2828 5.62601 7.12264 5.60648 7.68905 6.17288ZM19.6812 1.87601L21.2633 9.16116C21.4195 9.86429 20.9117 10.626 20.1695 10.7823C19.4078 10.958 18.6851 10.4307 18.5289 9.70804L16.9469 2.44241C16.7906 1.70023 17.318 0.958038 18.0406 0.821319C18.7828 0.665069 19.525 1.11429 19.6812 1.87601Z" fill="black" fill-opacity="0.85"/>
  <path d="M57.8648 19.6494C58.607 20.3526 59.6422 22.4424 60.5015 24.1026C62.982 28.6338 65.0914 32.7159 66.5172 36.6221C69.5055 44.1807 68.314 50.3526 62.689 55.9971C59.7537 58.9242 56.3297 60.7254 52.7533 61.2071C54.0548 60.3763 55.2938 59.3661 56.4586 58.2041C62.982 51.6807 64.3883 44.2784 61.0289 35.6651C59.5445 31.5049 57.3375 27.1885 54.8375 22.6377C54.5536 22.0967 54.2652 21.5409 53.974 20.998C54.0863 20.5204 54.3256 20.1151 54.7008 19.7471C55.6578 18.8096 56.9469 18.7119 57.8648 19.6494ZM37.2984 15.1963L42.5222 20.4257C42.3741 21.1794 42.3796 22.0159 42.5523 22.9502L43.7242 25.6651L33.4686 15.3936C33.5236 15.3254 33.5828 15.2596 33.6461 15.1963C34.6422 14.2002 36.2828 14.2002 37.2984 15.1963Z" fill="black" fill-opacity="0.85"/>
  <path d="M29.8765 55.6455C37.7867 63.5362 47.3961 62.8721 54.2711 55.9971C59.9156 50.3526 61.107 44.1807 58.0992 36.6221C56.6734 32.7159 54.564 28.6338 52.1031 24.1026C51.2242 22.4424 50.189 20.3526 49.4664 19.6494C48.5289 18.7119 47.2594 18.8096 46.2828 19.7471C45.2867 20.7432 45.2476 22.0127 46.0289 24.2393L48.9195 31.9346C49.2711 32.8526 49.1734 33.3994 48.8414 33.7315C48.4312 34.1221 47.8648 34.2002 47.1617 33.4776L28.8805 15.1963C27.8844 14.2002 26.2242 14.2002 25.2476 15.1963C24.232 16.1924 24.232 17.833 25.2476 18.8487L38.2555 31.8369C37.5523 32.1494 36.8297 32.5596 36.1265 33.0284L20.8336 17.7354C19.8375 16.7393 18.1773 16.7393 17.1812 17.7354C16.1851 18.751 16.1851 20.3721 17.1812 21.3877L32.2594 36.4659C31.693 37.1299 31.1656 37.833 30.6773 38.5166L17.0055 24.8448C15.9898 23.8291 14.3687 23.8291 13.3531 24.8448C12.3765 25.8409 12.3765 27.4815 13.3531 28.4776L28.2164 43.3213C27.8648 44.2393 27.65 45.1377 27.4937 45.958L17.1812 35.6651C16.2047 34.6494 14.5445 34.6494 13.5289 35.6651C12.5523 36.6612 12.5523 38.3018 13.5289 39.3174Z" fill="black" fill-opacity="0.85"/>
 </g>
</svg>
