<?xml version="1.0" encoding="UTF-8"?>
<!--Generator: Apple Native CoreSVG 326-->
<!DOCTYPE svg
PUBLIC "-//W3C//DTD SVG 1.1//EN"
       "http://www.w3.org/Graphics/SVG/1.1/DTD/svg11.dtd">
<svg version="1.1" xmlns="http://www.w3.org/2000/svg" xmlns:xlink="http://www.w3.org/1999/xlink" viewBox="0 0 42.832 54.9805">
 <g>
  <rect height="54.9805" opacity="0" width="42.832" x="0" y="0"/>
  <path d="M3.51562 35.7812C3.51562 46.9531 10.7812 53.2812 20.5273 53.2812C28.4961 53.2812 33.7109 49.7461 36.9141 42.2852C38.6719 38.5156 40.0781 34.1406 41.5234 29.1992C42.0898 27.4023 42.832 25.1953 42.832 24.1797C42.832 22.8516 41.8555 22.0117 40.5078 22.0117C39.082 22.0117 38.1641 22.8711 37.1484 25L33.75 32.4805C33.3594 33.3789 32.8906 33.6914 32.4219 33.6914C31.8359 33.6914 31.4062 33.3398 31.4062 32.3242L31.4062 6.46484C31.4062 5.05859 30.2539 3.88672 28.8281 3.88672C27.4219 3.88672 26.25 5.05859 26.25 6.46484L26.25 24.8633C25.5469 24.5898 24.7656 24.3555 23.9258 24.1992L23.9258 2.57812C23.9258 1.17188 22.7539 0 21.3477 0C19.9219 0 18.7695 1.17188 18.7695 2.57812L18.7695 23.9062C17.8906 23.9844 17.0312 24.082 16.1914 24.2383L16.1914 4.88281C16.1914 3.47656 15.0391 2.32422 13.6133 2.32422C12.207 2.32422 11.0352 3.47656 11.0352 4.88281L11.0352 25.8984C10.1562 26.3086 9.375 26.7773 8.67188 27.2656L8.67188 12.6758C8.67188 11.2695 7.5 10.0977 6.09375 10.0977C4.6875 10.0977 3.51562 11.2695 3.51562 12.6758Z" fill="black" fill-opacity="0.85"/>
 </g>
</svg>
