<?xml version="1.0" encoding="UTF-8"?>
<!--Generator: Apple Native CoreSVG 326-->
<!DOCTYPE svg
PUBLIC "-//W3C//DTD SVG 1.1//EN"
       "http://www.w3.org/Graphics/SVG/1.1/DTD/svg11.dtd">
<svg version="1.1" xmlns="http://www.w3.org/2000/svg" xmlns:xlink="http://www.w3.org/1999/xlink" viewBox="0 0 49.8438 53.5742">
 <g>
  <rect height="53.5742" opacity="0" width="49.8438" x="0" y="0"/>
  <path d="M49.4727 17.6562C49.4727 9.72656 44.3164 3.16406 38.125 3.16406L30.3125 3.16406C27.2461 1.5625 23.5156 0.625 19.375 0.625L16.0938 0.625C13.125 0.625 10.6055 0.78125 8.92578 1.21094C5.76172 1.99219 3.78906 4.16016 3.78906 6.93359C3.78906 7.59766 3.90625 8.16406 4.10156 8.73047C2.44141 9.90234 1.50391 11.6602 1.50391 13.6328C1.50391 14.6289 1.71875 15.625 2.10938 16.4062C0.976562 17.4414 0.3125 19.082 0.3125 20.8203C0.3125 21.9727 0.625 23.1836 1.13281 24.0039C0.429688 24.9219 0 26.25 0 27.6953C0 31.0938 2.65625 33.7891 6.03516 33.7891L14.9219 33.7891C15.7031 33.7891 16.1914 34.1406 16.1914 34.7852C16.1914 37.4219 12.168 43.418 12.168 48.1836C12.168 51.3281 14.3359 53.5742 17.3633 53.5742C19.5898 53.5742 21.0742 52.4023 22.5586 49.5703C25.4883 43.9062 28.6523 39.4727 34.4922 32.2266L39.0234 32.2266C44.7852 32.2266 49.4727 25.7422 49.4727 17.6562ZM36.1523 17.7344C36.1523 22.9102 34.9805 26.1914 31.7578 30.5273C28.1641 35.3125 23.2422 41.0156 19.6875 48.1055C18.7695 49.9219 18.1641 50.3711 17.2461 50.3711C16.1328 50.3711 15.3711 49.5703 15.3711 48.1836C15.3711 44.2773 19.3945 38.457 19.3945 34.7852C19.3945 32.1875 17.2656 30.5859 14.5117 30.5859L6.03516 30.5859C4.43359 30.5859 3.20312 29.3359 3.20312 27.6953C3.20312 26.5625 3.55469 25.8203 4.41406 24.9609C4.92188 24.5508 4.96094 23.9844 4.55078 23.4961C3.84766 22.5195 3.51562 21.7773 3.51562 20.8203C3.51562 19.668 4.0625 18.6914 5.09766 17.9102C5.70312 17.4609 5.95703 16.8359 5.56641 16.0938C5 15.0781 4.70703 14.5117 4.70703 13.6328C4.70703 12.3438 5.52734 11.3281 7.1875 10.4883C7.75391 10.1758 7.91016 9.70703 7.63672 9.14062C7.08984 7.85156 7.01172 7.55859 7.01172 6.93359C7.01172 5.72266 7.89062 4.76562 9.6875 4.31641C11.0938 3.94531 13.3398 3.78906 16.0742 3.80859L19.1406 3.80859C29.3164 3.84766 36.1523 9.62891 36.1523 17.7344ZM46.2695 17.6562C46.2695 23.9648 42.832 29.0234 39.0234 29.0234C38.2227 29.0234 37.4023 29.0234 36.582 29.0234C38.5352 25.5664 39.3555 22.0898 39.3555 17.793C39.3555 13.2422 37.6367 9.29688 34.5508 6.38672C35.7617 6.38672 36.9336 6.38672 38.125 6.38672C42.4609 6.38672 46.2695 11.4844 46.2695 17.6562Z" fill="black" fill-opacity="0.85"/>
 </g>
</svg>
