<?xml version="1.0" encoding="UTF-8"?>
<!--Generator: Apple Native CoreSVG 326-->
<!DOCTYPE svg
PUBLIC "-//W3C//DTD SVG 1.1//EN"
       "http://www.w3.org/Graphics/SVG/1.1/DTD/svg11.dtd">
<svg version="1.1" xmlns="http://www.w3.org/2000/svg" xmlns:xlink="http://www.w3.org/1999/xlink" viewBox="0 0 47.5488 46.9531">
 <g>
  <rect height="46.9531" opacity="0" width="47.5488" x="0" y="0"/>
  <path d="M17.2705 41.2012C25.1807 49.0918 34.79 48.4277 41.665 41.5332C47.3096 35.9082 48.4814 29.7168 45.4932 22.1582C44.0674 18.252 41.958 14.1699 39.4971 9.6582C38.6182 7.97852 37.583 5.9082 36.8604 5.18555C35.9229 4.26758 34.6533 4.3457 33.6768 5.2832C32.6807 6.29883 32.6416 7.56836 33.4229 9.79492L36.3135 17.4707C36.665 18.3887 36.5674 18.9355 36.2354 19.2676C35.8252 19.6777 35.2588 19.7363 34.5557 19.0332L16.2744 0.732422C15.2783-0.244141 13.6182-0.244141 12.6416 0.732422C11.626 1.74805 11.626 3.36914 12.6416 4.38477L25.6299 17.3926C24.9463 17.7051 24.2236 18.1152 23.501 18.584L8.22754 3.29102C7.23145 2.27539 5.57129 2.27539 4.5752 3.29102C3.5791 4.28711 3.5791 5.92773 4.5752 6.92383L19.6533 22.0215C19.0869 22.6855 18.5596 23.3691 18.0713 24.0723L4.39941 10.3809C3.38379 9.38477 1.7627 9.38477 0.74707 10.3809C-0.249023 11.3965-0.249023 13.0176 0.74707 14.0332L15.6104 28.877C15.2588 29.7949 15.0439 30.6738 14.8877 31.5137L4.5752 21.2012C3.5791 20.2051 1.93848 20.2051 0.922852 21.2012C-0.0537109 22.2168-0.0537109 23.8379 0.922852 24.8535Z" fill="black" fill-opacity="0.85"/>
 </g>
</svg>
