<?xml version="1.0" encoding="UTF-8"?>
<!--Generator: Apple Native CoreSVG 326-->
<!DOCTYPE svg
PUBLIC "-//W3C//DTD SVG 1.1//EN"
       "http://www.w3.org/Graphics/SVG/1.1/DTD/svg11.dtd">
<svg version="1.1" xmlns="http://www.w3.org/2000/svg" xmlns:xlink="http://www.w3.org/1999/xlink" viewBox="0 0 53.1055 51.8164">
 <g>
  <rect height="51.8164" opacity="0" width="53.1055" x="0" y="0"/>
  <path d="M40.5273 7.57812L40.5273 11.2891L37.0508 11.2891L37.0508 7.77344C37.0508 4.96094 35.5273 3.51562 32.8516 3.51562L7.67578 3.51562C4.94141 3.51562 3.45703 4.96094 3.45703 7.77344L3.45703 32.8711C3.45703 35.6836 4.94141 37.1289 7.67578 37.1289L12.2266 37.1289L12.2266 40.5859L7.59766 40.5859C2.53906 40.5859 0 38.0469 0 33.0469L0 7.57812C0 2.59766 2.53906 0.0585938 7.59766 0.0585938L32.9102 0.0585938C37.9492 0.0585938 40.5273 2.61719 40.5273 7.57812Z" fill="black" fill-opacity="0.85"/>
  <path d="M19.8242 51.8164L45.1367 51.8164C50.1758 51.8164 52.7344 49.2578 52.7344 44.2773L52.7344 18.8281C52.7344 13.8477 50.1758 11.2891 45.1367 11.2891L19.8242 11.2891C14.7656 11.2891 12.2266 13.8281 12.2266 18.8281L12.2266 44.2773C12.2266 49.2773 14.7656 51.8164 19.8242 51.8164ZM19.9023 48.3594C17.168 48.3594 15.6836 46.9141 15.6836 44.1016L15.6836 19.0039C15.6836 16.1914 17.168 14.7461 19.9023 14.7461L45.0781 14.7461C47.7539 14.7461 49.2773 16.1914 49.2773 19.0039L49.2773 44.1016C49.2773 46.9141 47.7539 48.3594 45.0781 48.3594Z" fill="black" fill-opacity="0.85"/>
  <path d="M23.0664 35.7422C23.0664 41.5625 26.8164 44.9609 32.0312 44.9609C36.0547 44.9609 38.8867 43.2031 40.6641 39.0625C41.5625 37.0898 42.2852 34.8047 43.0469 32.2266C43.3203 31.3086 43.7109 30.1953 43.7109 29.6875C43.7109 28.9844 43.1641 28.4961 42.4609 28.4961C41.6992 28.4961 41.2109 28.9648 40.6836 30.0586L38.9062 34.0039C38.7109 34.4727 38.4766 34.6094 38.2227 34.6094C37.9297 34.6094 37.7148 34.4141 37.7148 33.9258L37.7148 20.3906C37.7148 19.6484 37.1094 19.0234 36.3477 19.0234C35.5859 19.0234 34.9805 19.6484 34.9805 20.3906L34.9805 29.9805C34.6094 29.8438 34.2383 29.7266 33.8086 29.6289L33.8086 18.3594C33.8086 17.6172 33.1836 16.9727 32.4414 16.9727C31.6797 16.9727 31.0742 17.6172 31.0742 18.3594L31.0742 29.4922C30.6445 29.5117 30.1953 29.5703 29.7852 29.6484L29.7852 19.5703C29.7852 18.8086 29.1602 18.2031 28.3789 18.2031C27.6367 18.2031 26.9922 18.8086 26.9922 19.5703L26.9922 30.5273C26.543 30.7227 26.1719 30.9766 25.8398 31.1914L25.8398 23.6523C25.8398 22.8906 25.1953 22.2656 24.4531 22.2656C23.6914 22.2656 23.0664 22.8906 23.0664 23.6523Z" fill="black" fill-opacity="0.85"/>
 </g>
</svg>
