<?xml version="1.0" encoding="UTF-8"?>
<!--Generator: Apple Native CoreSVG 326-->
<!DOCTYPE svg
PUBLIC "-//W3C//DTD SVG 1.1//EN"
       "http://www.w3.org/Graphics/SVG/1.1/DTD/svg11.dtd">
<svg version="1.1" xmlns="http://www.w3.org/2000/svg" xmlns:xlink="http://www.w3.org/1999/xlink" viewBox="0 0 62.8125 53.8867">
 <g>
  <rect height="53.8867" opacity="0" width="62.8125" x="0" y="0"/>
  <path d="M0 44.8242C0 47.4609 1.77734 49.7461 5.03906 49.7461L57.3828 49.7461C60.6641 49.7461 62.4414 47.4609 62.4414 44.8242C62.4414 42.8906 61.3672 40.8789 59.2969 39.7266L31.2109 23.9844L3.125 39.7266C1.05469 40.8789 0 42.8906 0 44.8242ZM3.47656 44.6484C3.47656 43.8672 3.90625 43.1836 4.86328 42.6367L31.2109 27.9297L57.5781 42.6367C58.5352 43.1836 58.9453 43.8672 58.9453 44.6484C58.9453 45.5859 58.3203 46.3281 56.9922 46.3281L5.42969 46.3281C4.12109 46.3281 3.47656 45.5859 3.47656 44.6484ZM29.5508 25.6445L32.8906 25.6445L32.8906 23.2617C32.8906 20.8203 34.1602 19.8242 36.1523 18.2227C38.2422 16.5625 41.25 14.3359 41.25 9.45312C41.25 3.78906 37.2852 0 31.3477 0C25.4688 0 21.543 4.16016 21.543 10.3906C21.543 11.4258 22.2656 12.1289 23.1836 12.1289C24.1016 12.1289 24.8047 11.4258 24.8047 10.5859C24.8047 6.21094 27.4414 3.28125 31.3477 3.28125C35.3516 3.28125 38.0078 5.76172 38.0078 9.45312C38.0078 12.6562 36.2891 14.1406 34.5117 15.5469C32.2852 17.3438 29.5508 18.9453 29.5508 23.2617Z" fill="black" fill-opacity="0.85"/>
 </g>
</svg>
