<?xml version="1.0" encoding="UTF-8"?>
<!--Generator: Apple Native CoreSVG 326-->
<!DOCTYPE svg
PUBLIC "-//W3C//DTD SVG 1.1//EN"
       "http://www.w3.org/Graphics/SVG/1.1/DTD/svg11.dtd">
<svg version="1.1" xmlns="http://www.w3.org/2000/svg" xmlns:xlink="http://www.w3.org/1999/xlink" viewBox="0 0 69.4788 39.9414">
 <g>
  <rect height="39.9414" opacity="0" width="69.4788" x="0" y="0"/>
  <path d="M3.04016 37.5195C17.5909 36.6797 45.6183 30.4688 52.337 24.3164C47.2003 11.9922 41.1456 0.546875 20.2277 4.0625C3.76282 6.83594-2.6825 20.6445 1.00891 36.0156C1.26282 37.0703 1.92688 37.5781 3.04016 37.5195ZM4.23157 34.1016C1.32141 20.8984 6.82922 9.64844 20.8722 7.34375C37.8839 4.55078 43.4698 12.4609 48.0402 23.0078C41.9269 27.6758 16.6339 33.457 4.23157 34.1016ZM16.7706 5.42969L23.7433 4.47266L23.5284 2.83203C23.3722 1.58203 22.1222 0.839844 20.5206 1.09375L18.7238 1.40625C17.2394 1.64062 16.38 2.83203 16.5753 4.12109ZM56.6925 39.9414C62.7667 39.9414 67.2589 34.5312 68.548 31.5039C69.6613 28.6914 69.0363 27.6562 67.63 27.2266L50.13 21.9336L49.1144 25.0195L65.0323 29.8242C64.3292 32.9297 60.5988 36.4648 56.4386 36.4648C50.8722 36.4648 44.3292 33.9062 36.1456 29.8828L31.3995 31.2891C39.3488 35.0977 48.3527 39.9414 56.6925 39.9414Z" fill="black" fill-opacity="0.85"/>
 </g>
</svg>
