<?xml version="1.0" encoding="UTF-8"?>
<!--Generator: Apple Native CoreSVG 326-->
<!DOCTYPE svg
PUBLIC "-//W3C//DTD SVG 1.1//EN"
       "http://www.w3.org/Graphics/SVG/1.1/DTD/svg11.dtd">
<svg version="1.1" xmlns="http://www.w3.org/2000/svg" xmlns:xlink="http://www.w3.org/1999/xlink" viewBox="0 0 52.9492 48.1445">
 <g>
  <rect height="48.1445" opacity="0" width="52.9492" x="0" y="0"/>
  <path d="M31.8555 3.24219L51.6016 37.7734C52.2461 38.8867 52.5781 40.0977 52.5781 41.2695C52.5781 44.8828 50.1172 47.7344 46.0352 47.7344L6.52344 47.7344C2.46094 47.7344 0 44.8828 0 41.2695C0 40.0977 0.3125 38.9062 0.976562 37.7734L20.7227 3.24219C21.9531 1.07422 24.1016 0 26.2891 0C28.457 0 30.625 1.07422 31.8555 3.24219ZM25.1367 9.25781L8.125 39.0625C7.55859 40.0781 8.18359 41.0938 9.23828 41.0938L43.3008 41.0938C44.375 41.0938 44.9805 40.0391 44.4336 39.0625L27.4414 9.25781C26.875 8.28125 25.6641 8.28125 25.1367 9.25781ZM26.5625 15.0391L39.0625 36.9727C39.1992 37.2266 39.043 37.4609 38.7891 37.4609L13.7695 37.4609C13.5156 37.4609 13.3398 37.207 13.4961 36.9141L26.0156 15.0391C26.1328 14.8047 26.4453 14.8047 26.5625 15.0391Z" fill="black" fill-opacity="0.85"/>
 </g>
</svg>
