<?xml version="1.0" encoding="UTF-8"?>
<!--Generator: Apple Native CoreSVG 326-->
<!DOCTYPE svg
PUBLIC "-//W3C//DTD SVG 1.1//EN"
       "http://www.w3.org/Graphics/SVG/1.1/DTD/svg11.dtd">
<svg version="1.1" xmlns="http://www.w3.org/2000/svg" xmlns:xlink="http://www.w3.org/1999/xlink" viewBox="0 0 71.25 49.1602">
 <g>
  <rect height="49.1602" opacity="0" width="71.25" x="0" y="0"/>
  <path d="M24.4922 39.4141C24.681 40.0618 24.8937 40.6737 25.1384 41.2395L6.01562 46.3477C4.74609 46.6797 3.84766 45.9375 3.84766 44.8242C3.84766 43.9648 4.375 43.3203 5.27344 43.0859L24.1394 38.0488ZM23.1914 32.9414L6.01562 37.5C4.72656 37.832 3.84766 37.1094 3.84766 35.9766C3.84766 35.1562 4.375 34.4727 5.27344 34.2383L22.8581 29.5432C22.9286 30.6801 23.0367 31.8124 23.1914 32.9414ZM22.6995 24.1867L6.01562 28.6719C4.76562 29.0039 3.84766 28.2422 3.84766 27.1484C3.84766 26.3086 4.375 25.6445 5.27344 25.3906L22.7882 20.6997C22.7289 21.8559 22.7011 23.0172 22.6995 24.1867ZM23.3206 15.2017L6.01562 19.8242C4.74609 20.1562 3.84766 19.4141 3.84766 18.3008C3.84766 17.4609 4.375 16.7969 5.27344 16.5625L24.0161 11.5427C23.7315 12.7625 23.5023 13.9813 23.3206 15.2017Z" fill="black" fill-opacity="0.85"/>
  <path d="M26.9531 24.5703C26.9531 29.3555 27.3047 33.7891 28.5742 38.2422C30 43.1055 32.8516 44.9023 38.5352 44.9023L39.8438 44.9023C54.043 44.9023 67.0117 35.5273 67.0117 24.5703C67.0117 13.6328 54.043 4.25781 39.8438 4.25781L38.5352 4.25781C32.8711 4.25781 30.0195 6.03516 28.5742 10.8984C27.3047 15.3516 26.9531 19.8047 26.9531 24.5703Z" fill="black" fill-opacity="0.85"/>
 </g>
</svg>
