<?xml version="1.0" encoding="UTF-8"?>
<!--Generator: Apple Native CoreSVG 326-->
<!DOCTYPE svg
PUBLIC "-//W3C//DTD SVG 1.1//EN"
       "http://www.w3.org/Graphics/SVG/1.1/DTD/svg11.dtd">
<svg version="1.1" xmlns="http://www.w3.org/2000/svg" xmlns:xlink="http://www.w3.org/1999/xlink" viewBox="0 0 59.6973 56.6992">
 <g>
  <rect height="56.6992" opacity="0" width="59.6973" x="0" y="0"/>
  <path d="M9.52414 15.7426C8.79979 17.3165 8.40332 19.1562 8.40332 21.1914C8.40332 30.625 18.2666 40.6641 29.2041 47.9297C29.4189 48.0664 29.5752 48.1836 29.6729 48.1836C29.7705 48.1836 29.9268 48.0664 30.1416 47.9297C32.439 46.4008 34.6905 44.7492 36.8058 43.0007L39.2733 45.4661C36.8605 47.4282 34.1903 49.3392 31.3135 51.1914C30.8252 51.5039 30.1416 51.8164 29.6729 51.8164C29.1846 51.8164 28.501 51.5039 28.0127 51.1914C14.0479 42.1875 4.92676 31.7969 4.92676 21.1914C4.92676 18.1614 5.65461 15.4338 6.95515 13.1758ZM54.3994 21.1914C54.3994 27.4513 51.2285 33.6363 45.7351 39.5028L43.2198 36.9885C47.854 31.9276 50.9424 26.4649 50.9424 21.1914C50.9424 14.3555 46.4697 9.72656 40.415 9.72656C35.7275 9.72656 32.9541 12.6953 31.1768 15.4102C30.5518 16.2891 30.2002 16.582 29.6729 16.582C29.126 16.582 28.7354 16.3086 28.1494 15.4102C26.4502 12.6562 23.6377 9.72656 18.9307 9.72656C18.0031 9.72656 17.1127 9.8352 16.2757 10.0561L13.5396 7.32113C15.1905 6.63562 17.0208 6.26953 18.9697 6.26953C23.5596 6.26953 27.4854 8.59375 29.6729 12.1094C31.8799 8.57422 35.7666 6.26953 40.376 6.26953C48.4033 6.26953 54.3994 12.4805 54.3994 21.1914Z" fill="black" fill-opacity="0.85"/>
  <path d="M48.4424 50.7812C49.1064 51.4258 50.1807 51.4258 50.8057 50.7812C51.4502 50.1172 51.4697 49.082 50.8057 48.418L5.57129 3.22266C4.94629 2.57812 3.87207 2.55859 3.20801 3.22266C2.56348 3.84766 2.56348 4.94141 3.20801 5.56641Z" fill="black" fill-opacity="0.85"/>
 </g>
</svg>
