<?xml version="1.0" encoding="UTF-8"?>
<!--Generator: Apple Native CoreSVG 326-->
<!DOCTYPE svg
PUBLIC "-//W3C//DTD SVG 1.1//EN"
       "http://www.w3.org/Graphics/SVG/1.1/DTD/svg11.dtd">
<svg version="1.1" xmlns="http://www.w3.org/2000/svg" xmlns:xlink="http://www.w3.org/1999/xlink" viewBox="0 0 42.3047 63.2227">
 <g>
  <rect height="63.2227" opacity="0" width="42.3047" x="0" y="0"/>
  <path d="M8.33984 6.99219L8.33984 9.84375C8.33984 12.7539 10.332 14.8438 13.2422 14.8438L28.6914 14.8438C31.6016 14.8438 33.5938 12.7539 33.5938 9.84375L33.5938 6.99219C33.5938 6.89453 33.5938 6.75781 33.5938 6.66016L34.6094 6.66016C39.4141 6.66016 41.9336 9.21875 41.9336 14.2773L41.9336 52.9102C41.9336 57.9688 39.4141 60.5078 34.4141 60.5078L7.51953 60.5078C2.51953 60.5078 0 57.9688 0 52.9102L0 14.2773C0 9.21875 2.51953 6.66016 7.32422 6.66016L8.33984 6.66016C8.33984 6.75781 8.33984 6.89453 8.33984 6.99219ZM9.375 48.3984C8.57422 48.3984 7.94922 49.0234 7.94922 49.8047C7.94922 50.5664 8.59375 51.2109 9.375 51.2109L22.6172 51.2109C23.3984 51.2109 24.043 50.5664 24.043 49.8047C24.043 49.0234 23.418 48.3984 22.6172 48.3984ZM9.375 38.6328C8.57422 38.6328 7.94922 39.2578 7.94922 40.0195C7.94922 40.8008 8.57422 41.4258 9.375 41.4258L32.5586 41.4258C33.3594 41.4258 33.9844 40.8008 33.9844 40.0195C33.9844 39.2578 33.3594 38.6328 32.5586 38.6328ZM14.8242 23.1836C14.2188 22.0117 13.1055 21.1719 11.6992 21.1719C9.55078 21.1719 7.96875 22.8516 7.96875 25.0977C7.96875 28.5938 11.7188 31.6602 14.2773 33.3398C14.4727 33.4961 14.707 33.6133 14.8438 33.6133C15.0195 33.6133 15.2344 33.4766 15.4492 33.3398C18.0078 31.7773 21.7188 28.5938 21.7188 25.0977C21.7188 22.8516 20.1172 21.1719 17.9297 21.1719C16.582 21.1719 15.4688 22.0117 14.8242 23.1836ZM26.1719 4.96094L28.6914 4.96094C30.0586 4.96094 30.8984 5.80078 30.8984 7.22656L30.8984 9.84375C30.8984 11.2695 30.0586 12.1094 28.6914 12.1094L13.2422 12.1094C11.875 12.1094 11.0352 11.2695 11.0352 9.84375L11.0352 7.22656C11.0352 5.80078 11.875 4.96094 13.2422 4.96094L15.7617 4.96094C15.8984 2.22656 18.1836 0 20.9766 0C23.75 0 26.0352 2.22656 26.1719 4.96094ZM18.7305 5.11719C18.7305 6.30859 19.7266 7.34375 20.9766 7.34375C22.207 7.34375 23.2031 6.30859 23.2031 5.11719C23.2031 3.86719 22.207 2.87109 20.9766 2.87109C19.7266 2.87109 18.7305 3.86719 18.7305 5.11719Z" fill="black" fill-opacity="0.85"/>
 </g>
</svg>
