<?xml version="1.0" encoding="UTF-8"?>
<!--Generator: Apple Native CoreSVG 326-->
<!DOCTYPE svg
PUBLIC "-//W3C//DTD SVG 1.1//EN"
       "http://www.w3.org/Graphics/SVG/1.1/DTD/svg11.dtd">
<svg version="1.1" xmlns="http://www.w3.org/2000/svg" xmlns:xlink="http://www.w3.org/1999/xlink" viewBox="0 0 50.1172 55.8496">
 <g>
  <rect height="55.8496" opacity="0" width="50.1172" x="0" y="0"/>
  <path d="M2.69531 12.0166C0.996094 12.9932 0 14.7119 0 16.665L0 39.2041C0 41.1572 0.996094 42.8564 2.69531 43.833L22.1875 55.1025C23.9062 56.0986 25.8594 56.0986 27.5586 55.1025L47.0703 43.833C48.75 42.8564 49.7461 41.1572 49.7461 39.2041L49.7461 16.665C49.7461 14.7119 48.75 12.9932 47.0703 12.0166L27.5586 0.74707C25.8594-0.249023 23.9062-0.249023 22.1875 0.74707ZM3.45703 27.9346L3.45703 17.1924C3.45703 16.1963 3.98438 15.2979 4.86328 14.79L23.457 4.00879C24.3555 3.50098 25.4102 3.50098 26.2891 4.00879L44.8828 14.79C45.7812 15.2979 46.2891 16.1963 46.2891 17.1924L46.2891 27.9346Z" fill="black" fill-opacity="0.85"/>
 </g>
</svg>
