<?xml version="1.0" encoding="UTF-8"?>
<!--Generator: Apple Native CoreSVG 326-->
<!DOCTYPE svg
PUBLIC "-//W3C//DTD SVG 1.1//EN"
       "http://www.w3.org/Graphics/SVG/1.1/DTD/svg11.dtd">
<svg version="1.1" xmlns="http://www.w3.org/2000/svg" xmlns:xlink="http://www.w3.org/1999/xlink" viewBox="0 0 49.707 45.293">
 <g>
  <rect height="45.293" opacity="0" width="49.707" x="0" y="0"/>
  <path d="M24.668 45.293C34.043 45.293 37.7344 44.0625 41.25 40.7812C46.3281 36.1328 49.3359 29.4141 49.3359 22.207C49.3359 16.1914 47.2656 10.5078 42.8711 6.01562C42.0117 5.03906 41.0938 5 40.2734 5.68359C37.168 8.55469 32.6367 10.0391 24.668 10.0391C16.6992 10.0391 12.168 8.55469 9.08203 5.68359C8.26172 5 7.34375 5.03906 6.48438 6.01562C2.07031 10.5078 0 16.1914 0 22.207C0 29.4141 3.00781 36.1328 8.08594 40.7812C11.6016 44.0625 15.3125 45.293 24.668 45.293Z" fill="black" fill-opacity="0.425"/>
  <path d="M24.668 6.91406C31.8555 6.91406 36.6992 5.52734 36.6992 3.61328C36.6992 1.67969 31.8555 0.292969 24.668 0.292969C17.4805 0.292969 12.6562 1.67969 12.6562 3.61328C12.6562 5.52734 17.4805 6.91406 24.668 6.91406Z" fill="black" fill-opacity="0.85"/>
 </g>
</svg>
