<?xml version="1.0" encoding="UTF-8"?>
<!--Generator: Apple Native CoreSVG 326-->
<!DOCTYPE svg
PUBLIC "-//W3C//DTD SVG 1.1//EN"
       "http://www.w3.org/Graphics/SVG/1.1/DTD/svg11.dtd">
<svg version="1.1" xmlns="http://www.w3.org/2000/svg" xmlns:xlink="http://www.w3.org/1999/xlink" viewBox="0 0 61.0938 46.3171">
 <g>
  <rect height="46.3171" opacity="0" width="61.0938" x="0" y="0"/>
  <path d="M1.73828 30.766L24.2383 30.766C27.0312 30.766 30 31.1761 32.9688 32.016C39.9219 33.8715 45.8984 38.0707 52.4805 44.4965C55.6641 47.8558 60.7227 46.2933 60.7227 41.4301L60.7227 4.84802C60.7227-0.0152573 55.6641-1.55823 52.4805 1.78162C43.2227 11.0004 34.082 15.5121 24.2383 15.5121L1.73828 15.5121L1.73828 18.9691L24.2383 18.9691C34.9414 18.9691 44.9219 14.1254 54.8047 4.35974C56.1328 3.03162 57.2656 3.22693 57.2656 4.84802L57.2656 41.4301C57.2656 43.0511 56.1328 43.2465 54.8047 41.9379C44.9219 32.1527 34.9414 27.309 24.2383 27.309L1.73828 27.309ZM1.73828 33.5785C2.67578 33.5785 3.45703 32.7972 3.45703 31.8597L3.45703 14.3988C3.45703 13.4613 2.67578 12.6801 1.73828 12.6801C0.78125 12.6801 0 13.4613 0 14.3988L0 31.8597C0 32.7972 0.78125 33.5785 1.73828 33.5785ZM6.23047 34.9066C6.23047 38.8324 9.45312 42.0551 13.3789 42.0551L27.6562 42.0551C31.582 42.0551 34.8242 38.8324 34.8242 34.9066C34.8242 30.9808 31.582 27.7386 27.6562 27.7386L13.3789 27.7386C9.45312 27.7386 6.23047 30.9808 6.23047 34.9066ZM9.6875 34.9066C9.6875 32.8949 11.3672 31.1957 13.3789 31.1957L27.6562 31.1957C29.6875 31.1957 31.3672 32.8949 31.3672 34.9066C31.3672 36.9183 29.6875 38.5785 27.6562 38.5785L13.3789 38.5785C11.3672 38.5785 9.6875 36.9183 9.6875 34.9066Z" fill="black" fill-opacity="0.85"/>
 </g>
</svg>
