<?xml version="1.0" encoding="UTF-8"?>
<!--Generator: Apple Native CoreSVG 326-->
<!DOCTYPE svg
PUBLIC "-//W3C//DTD SVG 1.1//EN"
       "http://www.w3.org/Graphics/SVG/1.1/DTD/svg11.dtd">
<svg version="1.1" xmlns="http://www.w3.org/2000/svg" xmlns:xlink="http://www.w3.org/1999/xlink" viewBox="0 0 51.25 50.918">
 <g>
  <rect height="50.918" opacity="0" width="51.25" x="0" y="0"/>
  <path d="M25.4297 50.8789C39.4727 50.8789 50.8789 39.4922 50.8789 25.4492C50.8789 11.4062 39.4727 0 25.4297 0C11.3867 0 0 11.4062 0 25.4492C0 39.4922 11.3867 50.8789 25.4297 50.8789ZM25.4297 47.2461C13.3789 47.2461 3.63281 37.5 3.63281 25.4492C3.63281 13.3984 13.3789 3.65234 25.4297 3.65234C37.4805 3.65234 47.2266 13.3984 47.2266 25.4492C47.2266 37.5 37.4805 47.2461 25.4297 47.2461Z" fill="black" fill-opacity="0.85"/>
  <path d="M18.4961 40.1953L32.3633 40.1953C33.8867 40.1953 34.8242 39.2969 34.8242 37.6953L34.8242 37.3047C34.8242 33.5156 30.7031 29.2578 28.2617 26.8359C27.2852 25.8594 27.3438 24.9023 28.2617 24.0234C30.7031 21.6016 34.8242 17.3438 34.8242 13.5352L34.8242 13.1836C34.8242 11.6016 33.8867 10.6836 32.3633 10.6836L18.4961 10.6836C16.9727 10.6836 16.0352 11.6016 16.0352 13.1836L16.0352 13.5352C16.0352 17.3438 20.1758 21.6016 22.5977 24.0234C23.5156 24.9023 23.5742 25.8594 22.5977 26.8359C20.1758 29.2578 16.0352 33.5156 16.0352 37.3047L16.0352 37.6953C16.0352 39.2969 16.9727 40.1953 18.4961 40.1953ZM19.668 38.2031C19.043 38.2031 18.8867 37.4805 19.3164 37.0703L24.3164 31.8945C24.4922 31.6992 24.5703 31.6016 24.5703 31.3477L24.5703 24.3945C24.5703 23.7695 24.4336 23.4766 24.0039 23.0469C22.793 21.7969 21.5625 20.5664 20.5078 19.3945C20.1172 18.9844 20.3125 18.5547 20.7812 18.5547L30.0781 18.5547C30.5469 18.5547 30.7617 18.9844 30.3711 19.3945C29.3164 20.5664 28.0859 21.7969 26.875 23.0469C26.4258 23.4766 26.2891 23.7695 26.2891 24.3945L26.2891 31.3477C26.2891 31.6016 26.3672 31.6992 26.5625 31.8945L31.543 37.0703C31.9727 37.4805 31.8359 38.2031 31.1914 38.2031Z" fill="black" fill-opacity="0.85"/>
 </g>
</svg>
