<?xml version="1.0" encoding="UTF-8"?>
<!--Generator: Apple Native CoreSVG 326-->
<!DOCTYPE svg
PUBLIC "-//W3C//DTD SVG 1.1//EN"
       "http://www.w3.org/Graphics/SVG/1.1/DTD/svg11.dtd">
<svg version="1.1" xmlns="http://www.w3.org/2000/svg" xmlns:xlink="http://www.w3.org/1999/xlink" viewBox="0 0 100.857 43.0273">
 <g>
  <rect height="43.0273" opacity="0" width="100.857" x="0" y="0"/>
  <path d="M29.858 14.7656L19.5303 14.7656C18.9443 14.7656 18.6904 14.8047 18.3193 15.0391L5.81934 23.3398L18.8966 23.3398L18.8467 23.3789C17.1279 24.7266 19.2178 27.4414 21.2881 25.8203L23.417 24.1797L23.417 26.3281L7.85059 26.3281L7.85059 36.9531C7.85059 38.7695 8.74903 39.668 10.5264 39.668L23.6629 39.668C24.2713 41.8471 26.0332 43.0273 28.7295 43.0273L9.84278 43.0273C6.42481 43.0273 4.47168 41.1523 4.47168 37.7734L4.47168 26.3281L1.7959 26.3281C-0.0595659 26.3281-0.547847 24.2383 0.66309 23.3789L16.6006 12.5977C17.4404 12.0312 18.3584 11.7773 19.5303 11.7773L33.6783 11.7773Z" fill="black" fill-opacity="0.85"/>
  <path d="M83.8857 12.5977L99.8232 23.3789C101.034 24.2383 100.546 26.3281 98.71 26.3281L96.0147 26.3281L96.0147 37.7734C96.0147 41.1523 94.0615 43.0273 90.6436 43.0273L71.7178 43.0273C74.4296 43.0273 76.1947 41.8471 76.8038 39.668L89.96 39.668C91.7373 39.668 92.6357 38.7695 92.6357 36.9531L92.6357 26.3281L77.0498 26.3281L77.0498 24.1797L79.1787 25.8203C81.249 27.4414 83.3389 24.7266 81.6201 23.3789L81.5702 23.3398L94.667 23.3398L82.167 15.0391C81.7959 14.8047 81.542 14.7656 80.9561 14.7656L70.6088 14.7656L66.7885 11.7773L80.9951 11.7773C82.1279 11.7773 83.0459 12.0312 83.8857 12.5977Z" fill="black" fill-opacity="0.85"/>
  <path d="M21.2881 25.8203L49.0029 4.17969C49.3545 3.88672 49.8037 3.69141 50.2334 3.69141C50.6631 3.69141 51.1123 3.88672 51.4834 4.17969L79.1787 25.8203C81.249 27.4414 83.3389 24.7266 81.6201 23.3789L53.2803 1.21094C52.2842 0.429688 51.2686 0 50.2334 0C49.1787 0 48.1826 0.429688 47.1865 1.21094L18.8467 23.3789C17.1279 24.7266 19.2178 27.4414 21.2881 25.8203ZM28.749 43.0273L71.7178 43.0273C75.1357 43.0273 77.0498 41.1523 77.0498 37.7734L77.0498 21.1133L73.6904 20.7227L73.6904 36.9531C73.6904 38.7695 72.792 39.668 71.0342 39.668L29.4326 39.668C27.6553 39.668 26.7764 38.7695 26.7764 36.9531L26.7764 20.7227L23.417 21.1133L23.417 37.7734C23.417 41.1523 25.3506 43.0273 28.749 43.0273ZM43.6318 40.7227L56.835 40.7227L56.835 28.0859C56.835 27.1484 56.1904 26.5039 55.2334 26.5039L45.2334 26.5039C44.3154 26.5039 43.6318 27.1484 43.6318 28.0859Z" fill="black" fill-opacity="0.85"/>
 </g>
</svg>
