<?xml version="1.0" encoding="UTF-8"?>
<!--Generator: Apple Native CoreSVG 326-->
<!DOCTYPE svg
PUBLIC "-//W3C//DTD SVG 1.1//EN"
       "http://www.w3.org/Graphics/SVG/1.1/DTD/svg11.dtd">
<svg version="1.1" xmlns="http://www.w3.org/2000/svg" xmlns:xlink="http://www.w3.org/1999/xlink" viewBox="0 0 51.25 50.918">
 <g>
  <rect height="50.918" opacity="0" width="51.25" x="0" y="0"/>
  <path d="M25.4297 50.8789C39.4727 50.8789 50.8789 39.4922 50.8789 25.4492C50.8789 11.4062 39.4727 0 25.4297 0C11.3867 0 0 11.4062 0 25.4492C0 39.4922 11.3867 50.8789 25.4297 50.8789ZM25.4297 47.2461C13.3789 47.2461 3.63281 37.5 3.63281 25.4492C3.63281 13.3984 13.3789 3.65234 25.4297 3.65234C37.4805 3.65234 47.2266 13.3984 47.2266 25.4492C47.2266 37.5 37.4805 47.2461 25.4297 47.2461Z" fill="black" fill-opacity="0.85"/>
  <path d="M17.4414 25.4492C17.4414 29.8242 21.0742 33.457 25.4297 33.457C26.875 33.457 28.2031 33.0078 29.2969 32.2266C26.9531 36.5234 22.3438 39.1797 16.7773 39.1797C16.0156 39.1797 15.4492 39.7656 15.4492 40.4688C15.4492 41.1523 16.0156 41.7188 16.7773 41.7188C26.0742 41.7188 33.4375 35.1172 33.4375 25.4492C33.4375 21.0742 29.7852 17.4219 25.4297 17.4219C24.0039 17.4219 22.6562 17.8906 21.5625 18.6719C23.8867 14.375 28.5156 11.6992 34.1016 11.6992C34.8633 11.6992 35.4102 11.1328 35.4102 10.4297C35.4102 9.72656 34.8438 9.16016 34.1016 9.16016C24.7852 9.16016 17.4414 15.7617 17.4414 25.4492ZM23.0078 25.4492C23.0078 24.1211 24.1211 23.0273 25.4297 23.0273C26.7578 23.0273 27.8516 24.1211 27.8516 25.4492C27.8516 26.7383 26.7578 27.8711 25.4297 27.8711C24.1211 27.8711 23.0078 26.7578 23.0078 25.4492Z" fill="black" fill-opacity="0.85"/>
 </g>
</svg>
