<?xml version="1.0" encoding="UTF-8"?>
<!--Generator: Apple Native CoreSVG 326-->
<!DOCTYPE svg
PUBLIC "-//W3C//DTD SVG 1.1//EN"
       "http://www.w3.org/Graphics/SVG/1.1/DTD/svg11.dtd">
<svg version="1.1" xmlns="http://www.w3.org/2000/svg" xmlns:xlink="http://www.w3.org/1999/xlink" viewBox="0 0 46.2891 45.918">
 <g>
  <rect height="45.918" opacity="0" width="46.2891" x="0" y="0"/>
  <path d="M45.918 7.53906L45.918 38.3984C45.918 43.3594 43.3594 45.918 38.3008 45.918L7.59766 45.918C2.55859 45.918 0 43.3984 0 38.3984L0 7.53906C0 2.53906 2.55859 0 7.59766 0L38.3008 0C43.3594 0 45.918 2.55859 45.918 7.53906ZM21.1914 12.8125L21.1914 32.7344C21.1914 33.9062 21.8164 34.7266 22.9492 34.7266C24.1211 34.7266 24.7461 33.9648 24.7461 32.7344L24.7461 12.8125C24.7461 11.5625 24.1211 10.8008 22.9492 10.8008C21.8164 10.8008 21.1914 11.6211 21.1914 12.8125Z" fill="black" fill-opacity="0.85"/>
 </g>
</svg>
