<?xml version="1.0" encoding="UTF-8"?>
<!--Generator: Apple Native CoreSVG 326-->
<!DOCTYPE svg
PUBLIC "-//W3C//DTD SVG 1.1//EN"
       "http://www.w3.org/Graphics/SVG/1.1/DTD/svg11.dtd">
<svg version="1.1" xmlns="http://www.w3.org/2000/svg" xmlns:xlink="http://www.w3.org/1999/xlink" viewBox="0 0 46.2891 45.918">
 <g>
  <rect height="45.918" opacity="0" width="46.2891" x="0" y="0"/>
  <path d="M7.59766 45.918L38.3008 45.918C43.3594 45.918 45.918 43.3594 45.918 38.3984L45.918 7.53906C45.918 2.55859 43.3594 0 38.3008 0L7.59766 0C2.55859 0 0 2.53906 0 7.53906L0 38.3984C0 43.3984 2.55859 45.918 7.59766 45.918ZM7.67578 42.4609C4.94141 42.4609 3.45703 41.0156 3.45703 38.2031L3.45703 7.71484C3.45703 4.92188 4.94141 3.45703 7.67578 3.45703L38.2422 3.45703C40.918 3.45703 42.4609 4.92188 42.4609 7.71484L42.4609 38.2031C42.4609 41.0156 40.918 42.4609 38.2422 42.4609Z" fill="black" fill-opacity="0.85"/>
  <path d="M13.9062 32.1289L33.2227 32.1289C36.25 32.1289 38.5352 29.8047 38.5352 26.875C38.5352 24.3359 36.8164 22.2461 34.5312 21.7773C34.5703 21.4844 34.5898 21.1328 34.5898 20.8594C34.5898 15.7422 30.5859 11.6406 25.293 11.6406C22.1875 11.6406 19.4141 13.1055 17.7539 15.4883C17.4023 15.4102 16.9336 15.3516 16.6016 15.3516C14.0039 15.3516 11.8359 17.2461 11.5625 19.8438C9.21875 20.7617 7.44141 23.0273 7.44141 25.8203C7.44141 29.8242 10.1758 32.1289 13.9062 32.1289Z" fill="black" fill-opacity="0.85"/>
 </g>
</svg>
