<?xml version="1.0" encoding="UTF-8"?>
<!--Generator: Apple Native CoreSVG 326-->
<!DOCTYPE svg
PUBLIC "-//W3C//DTD SVG 1.1//EN"
       "http://www.w3.org/Graphics/SVG/1.1/DTD/svg11.dtd">
<svg version="1.1" xmlns="http://www.w3.org/2000/svg" xmlns:xlink="http://www.w3.org/1999/xlink" viewBox="0 0 65.8984 52.4805">
 <g>
  <rect height="52.4805" opacity="0" width="65.8984" x="0" y="0"/>
  <path d="M25.8984 46.0156C25.8984 49.9609 28.4766 52.4609 32.5586 52.4609L50.5469 52.4609C54.6289 52.4609 57.207 49.9609 57.207 46.0156L57.207 6.44531C57.207 2.5 54.6289 0 50.5469 0L32.5586 0C28.4766 0 25.8984 2.5 25.8984 6.44531ZM29.3555 44.2578L29.3555 8.20312L53.75 8.20312L53.75 44.2578ZM41.582 50.0586C40.4297 50.0586 39.4922 49.1016 39.4922 47.9492C39.4922 46.7969 40.4297 45.8789 41.582 45.8789C42.7344 45.8789 43.6523 46.7969 43.6523 47.9492C43.6523 49.1016 42.7344 50.0586 41.582 50.0586ZM37.0703 4.23828C37.0703 3.71094 37.4414 3.35938 37.9688 3.35938L45.1758 3.35938C45.6836 3.35938 46.0547 3.71094 46.0547 4.23828C46.0547 4.76562 45.6836 5.11719 45.1758 5.11719L37.9688 5.11719C37.4414 5.11719 37.0703 4.76562 37.0703 4.23828Z" fill="black" fill-opacity="0.85"/>
  <path d="M0 16.4844C0 17.4023 0.742188 18.1445 1.67969 18.1445L11.8164 18.1445L11.8164 22.5586C11.8164 24.2383 13.5352 24.9414 14.7656 23.8477L21.7578 17.793C22.6562 17.0117 22.6562 15.8984 21.7578 15.1367L14.7656 9.08203C13.5938 8.02734 11.8164 8.63281 11.8164 10.3711L11.8164 14.8047L1.67969 14.8047C0.742188 14.8047 0 15.5469 0 16.4844Z" fill="black" fill-opacity="0.85"/>
 </g>
</svg>
