<?xml version="1.0" encoding="UTF-8"?>
<!--Generator: Apple Native CoreSVG 326-->
<!DOCTYPE svg
PUBLIC "-//W3C//DTD SVG 1.1//EN"
       "http://www.w3.org/Graphics/SVG/1.1/DTD/svg11.dtd">
<svg version="1.1" xmlns="http://www.w3.org/2000/svg" xmlns:xlink="http://www.w3.org/1999/xlink" viewBox="0 0 52.832 31.3867">
 <g>
  <rect height="31.3867" opacity="0" width="52.832" x="0" y="0"/>
  <path d="M49.0039 24.2383C49.0039 26.6016 47.8125 27.8516 45.5078 27.8516L6.99219 27.8516C4.6875 27.8516 3.49609 26.6016 3.49609 24.2383L3.49609 21.0742C3.49609 20.7031 3.69141 20.4883 4.0625 20.4883L4.57031 20.4883C5.54688 20.4883 6.21094 19.8633 6.21094 18.8672L6.21094 12.4219C6.21094 11.4453 5.54688 10.8008 4.57031 10.8008L4.0625 10.8008C3.69141 10.8008 3.49609 10.6055 3.49609 10.2344L3.49609 7.08984C3.49609 4.70703 4.6875 3.45703 6.99219 3.45703L45.5078 3.45703C47.8125 3.45703 49.0039 4.70703 49.0039 7.08984Z" fill="black" fill-opacity="0.2125"/>
  <path d="M52.4609 24.6484L52.4609 6.66016C52.4609 2.57812 49.9609 0 46.0156 0L6.46484 0C2.53906 0 0 2.57812 0 6.66016L0 24.6484C0 28.7305 2.53906 31.3086 6.46484 31.3086L46.0156 31.3086C49.9609 31.3086 52.4609 28.7305 52.4609 24.6484ZM49.0039 24.2383C49.0039 26.6016 47.8125 27.8516 45.5078 27.8516L6.99219 27.8516C4.6875 27.8516 3.49609 26.6016 3.49609 24.2383L3.49609 21.0742C3.49609 20.7031 3.69141 20.4883 4.0625 20.4883L4.57031 20.4883C5.54688 20.4883 6.21094 19.8633 6.21094 18.8672L6.21094 12.4219C6.21094 11.4453 5.54688 10.8008 4.57031 10.8008L4.0625 10.8008C3.69141 10.8008 3.49609 10.6055 3.49609 10.2344L3.49609 7.08984C3.49609 4.70703 4.6875 3.45703 6.99219 3.45703L45.5078 3.45703C47.8125 3.45703 49.0039 4.70703 49.0039 7.08984ZM19.5703 26.0547L32.9297 26.0547C33.5547 26.0547 34.0039 25.625 34.0039 25C34.0039 24.3555 33.5547 23.9258 32.9297 23.9258L19.5703 23.9258C18.9648 23.9258 18.5156 24.3555 18.5156 25C18.5156 25.625 18.9648 26.0547 19.5703 26.0547Z" fill="black" fill-opacity="0.85"/>
 </g>
</svg>
