<?xml version="1.0" encoding="UTF-8"?>
<!--Generator: Apple Native CoreSVG 326-->
<!DOCTYPE svg
PUBLIC "-//W3C//DTD SVG 1.1//EN"
       "http://www.w3.org/Graphics/SVG/1.1/DTD/svg11.dtd">
<svg version="1.1" xmlns="http://www.w3.org/2000/svg" xmlns:xlink="http://www.w3.org/1999/xlink" viewBox="0 0 51.25 50.918">
 <g>
  <rect height="50.918" opacity="0" width="51.25" x="0" y="0"/>
  <path d="M50.8789 25.4492C50.8789 39.4531 39.4531 50.8789 25.4297 50.8789C11.4258 50.8789 0 39.4531 0 25.4492C0 11.4258 11.4258 0 25.4297 0C39.4531 0 50.8789 11.4258 50.8789 25.4492ZM28.1641 15.293L28.1641 30C28.1641 32.7148 26.7383 34.3555 24.4531 34.3555C22.3633 34.3555 20.8984 33.2422 20.332 31.4062C19.9609 30.5469 19.4531 30.1758 18.6914 30.1758C17.6953 30.1758 17.0312 30.8398 17.0312 31.8555C17.0312 32.2266 17.0898 32.5781 17.2266 32.9492C18.0273 35.625 20.7812 37.4219 24.2773 37.4219C29.082 37.4219 31.7188 34.7461 31.7188 30.0391L31.7188 15.293C31.7188 14.0625 31.0938 13.3008 29.9219 13.3008C28.7891 13.3008 28.1641 14.1016 28.1641 15.293Z" fill="black" fill-opacity="0.85"/>
 </g>
</svg>
