<?xml version="1.0" encoding="UTF-8"?>
<!--Generator: Apple Native CoreSVG 326-->
<!DOCTYPE svg
PUBLIC "-//W3C//DTD SVG 1.1//EN"
       "http://www.w3.org/Graphics/SVG/1.1/DTD/svg11.dtd">
<svg version="1.1" xmlns="http://www.w3.org/2000/svg" xmlns:xlink="http://www.w3.org/1999/xlink" viewBox="0 0 67.5102 54.1375">
 <g>
  <rect height="54.1375" opacity="0" width="67.5102" x="0" y="0"/>
  <path d="M19.9953 52.4301L31.8703 52.4301L31.8703 12.1371L29.0774 14.9887C27.632 16.434 25.5617 16.3363 24.175 14.6762L16.8508 5.71134L14.3899 6.62931C11.7336 7.62541 10.6789 8.99259 9.97579 11.6098L0.24923 46.5121C-0.473426 49.0902 0.385949 50.8871 2.69064 51.5121L8.60861 53.1527C10.8547 53.7777 12.5539 53.4262 13.0617 51.1215L16.2063 37.5277L14.7219 29.9692L14.1359 45.6137C13.9602 49.8715 15.4836 52.4301 19.9953 52.4301ZM21.3234 40.9848C20.6008 41.4926 19.6438 41.3168 19.1164 40.5942C18.6281 39.891 18.7649 38.9145 19.4875 38.3871L25.1711 34.266C25.8547 33.7582 26.8703 33.9145 27.3781 34.6371C27.9055 35.3207 27.7492 36.2973 27.007 36.8442ZM35.2688 52.4301L47.1438 52.4301C51.6555 52.4301 53.1789 49.8715 53.0031 45.6137L52.3977 28.7192L50.7375 36.6293L54.0774 51.1215C54.5852 53.4262 56.2844 53.7777 58.55 53.1527L64.4484 51.5121C66.7727 50.8871 67.6125 49.0902 66.8899 46.5121L57.1828 11.6098C56.4602 8.99259 55.4055 7.62541 52.7492 6.62931L50.3274 5.73087L43.0031 14.6762C41.6164 16.3363 39.5266 16.434 38.0813 14.9887L35.2688 12.1176ZM45.9328 40.9848L40.2492 36.8442C39.5266 36.2973 39.3703 35.3207 39.8977 34.6371C40.3859 33.9145 41.4016 33.7582 42.1047 34.266L47.7688 38.3871C48.4914 38.9145 48.6281 39.891 48.1399 40.5942C47.6125 41.3168 46.6555 41.4926 45.9328 40.9848ZM25.6984 11.6684C26.5969 12.7621 27.5344 12.6059 28.4133 11.7074L31.5774 8.50431C32.3195 7.70353 32.3391 6.70744 31.5383 5.86759L26.4406 0.613687C25.718-0.108969 24.9563-0.226157 24.1945 0.437906L20.718 3.46525C20.0539 4.05119 20.0344 4.77384 20.5813 5.45744ZM41.5578 11.6684L46.675 5.45744C47.2219 4.77384 47.2024 4.05119 46.5383 3.46525L43.0617 0.437906C42.3-0.226157 41.5383-0.108969 40.8156 0.613687L35.718 5.86759C34.9172 6.70744 34.9367 7.70353 35.6789 8.50431L38.843 11.7074C39.7219 12.6059 40.6594 12.7621 41.5578 11.6684Z" fill="black" fill-opacity="0.85"/>
 </g>
</svg>
