<?xml version="1.0" encoding="UTF-8"?>
<!--Generator: Apple Native CoreSVG 326-->
<!DOCTYPE svg
PUBLIC "-//W3C//DTD SVG 1.1//EN"
       "http://www.w3.org/Graphics/SVG/1.1/DTD/svg11.dtd">
<svg version="1.1" xmlns="http://www.w3.org/2000/svg" xmlns:xlink="http://www.w3.org/1999/xlink" viewBox="0 0 72.2629 56.0742">
 <g>
  <rect height="56.0742" opacity="0" width="72.2629" x="0" y="0"/>
  <path d="M21.9908 55.332L49.901 55.332C54.3151 55.332 57.2838 52.3438 56.9518 47.9688L56.3854 40.957L56.4244 38.8086L54.9596 28.2031C54.8619 27.6367 54.5104 27.3242 54.1002 27.3242C53.6119 27.3242 53.2604 27.7148 53.2799 28.3789L53.9049 47.9102C53.9635 50.2344 52.4205 51.9531 49.9205 51.9531L21.9518 51.9531C19.4518 51.9531 17.9283 50.2344 17.9869 47.9102L18.6119 28.3789C18.6315 27.7148 18.2604 27.3242 17.7916 27.3242C17.3619 27.3242 17.0299 27.6367 16.9322 28.2031L15.4674 38.8086L15.5065 40.957L14.9401 47.9688C14.608 52.3438 17.5768 55.332 21.9908 55.332ZM10.2916 55.3711C12.7916 56.0742 14.8815 55.6445 15.4479 53.125L17.401 44.3164L16.0533 36.1328L12.5377 51.1523C12.3424 51.9727 11.8541 52.207 11.151 52.0117L4.5299 50.2148C3.63146 49.9609 3.31896 49.3945 3.63146 48.3008L13.2408 13.3789C13.651 11.8555 14.3541 10.8203 15.9557 10.2539L21.5611 8.26172L22.5377 4.47266L14.6471 7.46094C12.1471 8.41797 10.8385 9.92188 10.2721 11.9531L0.252552 47.6953C-0.489636 50.3516 0.389271 52.5586 3.08458 53.3203ZM34.3736 54.1797L37.5182 54.1797L37.5182 13.0078L34.3736 13.0078ZM61.5807 55.3711L68.8072 53.3203C71.483 52.5586 72.3815 50.3516 71.6393 47.6953L61.6197 11.9531C61.0533 9.92188 59.7252 8.41797 57.2447 7.46094L49.3541 4.47266L50.3307 8.26172L55.9361 10.2539C57.5377 10.8203 58.2213 11.8555 58.651 13.3789L68.2604 48.3008C68.5533 49.3945 68.2604 49.9609 67.3619 50.2148L60.7213 52.0117C60.0377 52.207 59.5299 51.9727 59.3346 51.1523L55.8385 36.1328L54.4713 44.3164L56.444 53.125C56.9908 55.6445 59.1002 56.0742 61.5807 55.3711ZM31.9127 17.6172L36.6002 12.5391L35.3307 12.5391L40.0377 17.6172C41.5807 19.3164 43.8268 19.043 45.2135 17.2266L51.5221 8.67188C52.2643 7.67578 52.4401 6.44531 51.5611 5.64453L46.9322 1.38672C45.9947 0.527344 45.3502 0 43.4166 0L28.5143 0C26.5807 0 25.9361 0.527344 24.9986 1.38672L20.3697 5.64453C19.4908 6.44531 19.6666 7.67578 20.4088 8.67188L26.7369 17.2266C28.1041 19.043 30.3502 19.3164 31.9127 17.6172ZM30.6627 15.2734C30.0377 15.957 29.1393 15.9766 28.5338 15.1758L23.2213 8.02734C22.8502 7.53906 22.8502 6.95312 23.319 6.54297L27.0885 3.10547C27.5572 2.67578 28.2018 2.69531 28.651 3.16406L34.2174 9.04297C34.9205 9.76562 34.9205 10.6055 34.3151 11.2695ZM41.2682 15.2734L37.6354 11.2695C37.0299 10.6055 37.0104 9.76562 37.7135 9.04297L43.2994 3.16406C43.7291 2.69531 44.3932 2.65625 44.8815 3.10547L48.6315 6.54297C49.1002 6.97266 49.1197 7.51953 48.7291 8.02734L43.4166 15.1758C42.8111 15.9766 41.8932 15.957 41.2682 15.2734ZM24.2369 41.9141L29.4908 38.0859C30.194 37.5781 30.3502 36.6211 29.8424 35.9375C29.3541 35.2539 28.3776 35.1172 27.694 35.6055L22.4401 39.4141C21.7369 39.9219 21.6002 40.8594 22.0885 41.543C22.5963 42.2461 23.5338 42.4219 24.2369 41.9141ZM47.6744 41.9141C48.3776 42.4219 49.3151 42.2461 49.8229 41.543C50.3111 40.8594 50.1744 39.9219 49.4713 39.4141L44.2174 35.6055C43.5338 35.1172 42.5572 35.2539 42.069 35.9375C41.5611 36.6211 41.6979 37.5586 42.4205 38.0859Z" fill="black" fill-opacity="0.85"/>
 </g>
</svg>
