<?xml version="1.0" encoding="UTF-8"?>
<!--Generator: Apple Native CoreSVG 326-->
<!DOCTYPE svg
PUBLIC "-//W3C//DTD SVG 1.1//EN"
       "http://www.w3.org/Graphics/SVG/1.1/DTD/svg11.dtd">
<svg version="1.1" xmlns="http://www.w3.org/2000/svg" xmlns:xlink="http://www.w3.org/1999/xlink" viewBox="0 0 78.5254 64.5944">
 <g>
  <rect height="64.5944" opacity="0" width="78.5254" x="0" y="0"/>
  <path d="M60.7666 0.763975C64.0088 5.09991 65.9229 11.2913 65.9229 17.5413C65.9229 23.8108 63.9893 29.9632 60.7666 34.3187C60.1807 35.139 59.1846 35.3343 58.4033 34.7874C57.6025 34.2405 57.4854 33.2444 58.1104 32.346C60.9229 28.3421 62.583 23.0687 62.583 17.5413C62.583 12.014 60.9619 6.72101 58.1104 2.73663C57.4658 1.85772 57.6025 0.8421 58.4033 0.314756C59.1846-0.232119 60.1807-0.0563376 60.7666 0.763975Z" fill="black" fill-opacity="0.85"/>
  <path d="M51.6846 7.38507C53.6182 9.94366 54.8291 13.6155 54.8291 17.5413C54.8291 21.4866 53.6182 25.178 51.6846 27.7171C51.1182 28.5374 50.1025 28.6937 49.3604 28.2054C48.501 27.5804 48.3838 26.5452 49.0283 25.6273C50.6104 23.4202 51.4893 20.6468 51.4893 17.5413C51.4893 14.4554 50.6299 11.6624 49.0283 9.45538C48.3643 8.57647 48.501 7.52179 49.3604 6.91632C50.1025 6.38897 51.1182 6.56476 51.6846 7.38507Z" fill="black" fill-opacity="0.85"/>
  <path d="M33.8918 46.3555L31.8604 48.3812L36.8604 53.3226C37.3291 53.7913 37.3486 54.4554 36.8604 54.9632L28.9502 62.8733C28.4424 63.3812 27.6807 63.264 27.2705 62.8538L23.1104 58.6937C22.6611 58.2249 22.4854 57.7562 22.4854 57.1702L22.4854 34.954ZM43.9697 17.4827C43.9697 23.8529 40.2259 29.2282 33.4386 32.3984L13.1501 12.1275C15.3186 5.99321 21.1564 1.64288 28.0908 1.64288C36.8994 1.64288 43.9697 8.71319 43.9697 17.4827ZM24.0088 12.014C24.0088 14.2991 25.8252 16.1351 28.0908 16.1351C30.376 16.1351 32.2119 14.2991 32.2119 12.014C32.2119 9.74835 30.376 7.93194 28.0908 7.93194C25.8057 7.93194 24.0088 9.74835 24.0088 12.014Z" fill="black" fill-opacity="0.85"/>
  <path d="M3.54004 11.6233L48.5986 56.6429C49.2432 57.3069 50.3174 57.3069 50.9424 56.6429C51.5869 55.9788 51.6064 54.9437 50.9424 54.2991L5.90332 9.2796C5.27832 8.63507 4.2041 8.61554 3.54004 9.2796C2.89551 9.9046 2.89551 10.9983 3.54004 11.6233Z" fill="black" fill-opacity="0.85"/>
 </g>
</svg>
