<?xml version="1.0" encoding="UTF-8"?>
<!--Generator: Apple Native CoreSVG 326-->
<!DOCTYPE svg
PUBLIC "-//W3C//DTD SVG 1.1//EN"
       "http://www.w3.org/Graphics/SVG/1.1/DTD/svg11.dtd">
<svg version="1.1" xmlns="http://www.w3.org/2000/svg" xmlns:xlink="http://www.w3.org/1999/xlink" viewBox="0 0 58.1445 53.8477">
 <g>
  <rect height="53.8477" opacity="0" width="58.1445" x="0" y="0"/>
  <path d="M50.2344 44.1406C51.0352 44.6875 52.0117 44.5117 52.5977 43.6914C55.8203 39.3164 57.7734 33.1641 57.7734 26.9141C57.7734 20.6445 55.8398 14.4531 52.5977 10.1367C52.0117 9.31641 51.0352 9.12109 50.2344 9.66797C49.4336 10.2148 49.3164 11.2109 49.9414 12.1094C52.8125 16.0938 54.4336 21.3867 54.4336 26.9141C54.4336 32.4414 52.7734 37.7148 49.9414 41.7188C49.3359 42.5977 49.4336 43.6133 50.2344 44.1406Z" fill="black" fill-opacity="0.85"/>
  <path d="M41.2109 37.5586C41.9531 38.0664 42.9492 37.8906 43.5352 37.0703C45.4688 34.5312 46.6602 30.8398 46.6602 26.9141C46.6602 22.9688 45.4688 19.2969 43.5352 16.7383C42.9492 15.918 41.9531 15.7617 41.2109 16.2695C40.3516 16.875 40.1953 17.9297 40.8789 18.8281C42.4805 21.0156 43.3203 23.8086 43.3203 26.9141C43.3203 30 42.4609 32.7734 40.8789 35C40.2148 35.8984 40.3516 36.9336 41.2109 37.5586Z" fill="black" fill-opacity="0.85"/>
  <path d="M0 46.4453C0 50.4883 2.44141 53.8477 8.125 53.8477L24.1602 53.8477C29.8438 53.8477 32.2852 50.4883 32.2852 46.4453L32.2852 7.42188C32.2852 3.37891 29.8438 0.0195312 24.1602 0.0195312L8.125 0.0195312C2.44141 0.0195312 0 3.37891 0 7.42188ZM3.45703 46.3672L3.45703 7.48047C3.45703 5.54688 4.64844 3.47656 8.30078 3.47656L23.9844 3.47656C27.6367 3.47656 28.8281 5.54688 28.8281 7.48047L28.8281 46.3672C28.8281 48.3203 27.6367 50.3906 23.9844 50.3906L8.30078 50.3906C4.64844 50.3906 3.45703 48.3203 3.45703 46.3672ZM6.93359 9.58984L25.3516 9.58984C25.7031 9.58984 25.9961 9.31641 25.9961 8.94531L25.9961 8.125C25.9961 7.12891 25.1562 6.30859 24.1602 6.30859L8.125 6.30859C7.10938 6.30859 6.28906 7.12891 6.28906 8.125L6.28906 8.94531C6.28906 9.31641 6.5625 9.58984 6.93359 9.58984ZM16.1523 16.6406C12.0312 16.6406 8.75 19.9219 8.75 24.0039C8.75 27.0898 10.5859 29.8047 13.4766 30.918L13.4766 42.207C13.4766 42.5 13.5742 42.7344 13.7891 42.9688L15.7031 44.9023C15.918 45.1172 16.3281 45.1562 16.6211 44.9023L20.2734 41.2695C20.5273 41.0156 20.5078 40.625 20.2734 40.3516L18.0469 38.1836L21.0938 35.1367C21.3281 34.8828 21.3281 34.5117 21.0742 34.2188L18.0859 31.2109C21.582 29.7852 23.5547 27.168 23.5547 24.0039C23.5547 19.9414 20.2344 16.6406 16.1523 16.6406ZM16.1328 23.8672C14.9805 23.8672 14.0234 22.9297 14.0234 21.7773C14.0234 20.6055 14.9414 19.668 16.1328 19.668C17.2852 19.668 18.2422 20.6055 18.2422 21.7773C18.2422 22.9297 17.2852 23.8672 16.1328 23.8672Z" fill="black" fill-opacity="0.85"/>
 </g>
</svg>
