<?xml version="1.0" encoding="UTF-8"?>
<!--Generator: Apple Native CoreSVG 326-->
<!DOCTYPE svg
PUBLIC "-//W3C//DTD SVG 1.1//EN"
       "http://www.w3.org/Graphics/SVG/1.1/DTD/svg11.dtd">
<svg version="1.1" xmlns="http://www.w3.org/2000/svg" xmlns:xlink="http://www.w3.org/1999/xlink" viewBox="0 0 63.2812 66.0352">
 <g>
  <rect height="66.0352" opacity="0" width="63.2812" x="0" y="0"/>
  <path d="M7.59766 52.6758L55.3125 52.6758C60.3516 52.6758 62.9102 50.1172 62.9102 45.1367L62.9102 20.8398C62.9102 15.8594 60.3516 13.3008 55.3125 13.3008L7.59766 13.3008C2.53906 13.3008 0 15.8398 0 20.8398L0 45.1367C0 50.1367 2.53906 52.6758 7.59766 52.6758ZM9.47266 26.8945C8.75 26.8945 8.33984 26.4648 8.33984 25.7617L8.33984 23.4961C8.33984 22.793 8.75 22.3633 9.47266 22.3633L11.7188 22.3633C12.4414 22.3633 12.8711 22.793 12.8711 23.4961L12.8711 25.7617C12.8711 26.4648 12.4414 26.8945 11.7188 26.8945ZM17.7734 26.8945C17.0508 26.8945 16.6406 26.4648 16.6406 25.7617L16.6406 23.4961C16.6406 22.793 17.0508 22.3633 17.7734 22.3633L20.0391 22.3633C20.7422 22.3633 21.1719 22.793 21.1719 23.4961L21.1719 25.7617C21.1719 26.4648 20.7422 26.8945 20.0391 26.8945ZM26.0742 26.8945C25.3906 26.8945 24.9609 26.4648 24.9609 25.7617L24.9609 23.4961C24.9609 22.793 25.3906 22.3633 26.0742 22.3633L28.3398 22.3633C29.043 22.3633 29.4922 22.793 29.4922 23.4961L29.4922 25.7617C29.4922 26.4648 29.043 26.8945 28.3398 26.8945ZM34.3945 26.8945C33.6914 26.8945 33.2617 26.4648 33.2617 25.7617L33.2617 23.4961C33.2617 22.793 33.6914 22.3633 34.3945 22.3633L36.6602 22.3633C37.3633 22.3633 37.793 22.793 37.793 23.4961L37.793 25.7617C37.793 26.4648 37.3633 26.8945 36.6602 26.8945ZM42.7148 26.8945C41.9922 26.8945 41.5625 26.4648 41.5625 25.7617L41.5625 23.4961C41.5625 22.793 41.9922 22.3633 42.7148 22.3633L44.9609 22.3633C45.6836 22.3633 46.0938 22.793 46.0938 23.4961L46.0938 25.7617C46.0938 26.4648 45.6836 26.8945 44.9609 26.8945ZM51.0156 26.8945C50.293 26.8945 49.8633 26.4648 49.8633 25.7617L49.8633 23.4961C49.8633 22.793 50.293 22.3633 51.0156 22.3633L53.2617 22.3633C53.9844 22.3633 54.3945 22.793 54.3945 23.4961L54.3945 25.7617C54.3945 26.4648 53.9844 26.8945 53.2617 26.8945ZM9.47266 35.2148C8.75 35.2148 8.33984 34.7656 8.33984 34.082L8.33984 31.7969C8.33984 31.1133 8.75 30.6641 9.47266 30.6641L11.7188 30.6641C12.4414 30.6641 12.8711 31.1133 12.8711 31.7969L12.8711 34.082C12.8711 34.7656 12.4414 35.2148 11.7188 35.2148ZM17.7734 35.2148C17.0508 35.2148 16.6406 34.7656 16.6406 34.082L16.6406 31.7969C16.6406 31.1133 17.0508 30.6641 17.7734 30.6641L20.0391 30.6641C20.7422 30.6641 21.1719 31.1133 21.1719 31.7969L21.1719 34.082C21.1719 34.7656 20.7422 35.2148 20.0391 35.2148ZM26.0742 35.2148C25.3906 35.2148 24.9609 34.7656 24.9609 34.082L24.9609 31.7969C24.9609 31.1133 25.3906 30.6641 26.0742 30.6641L28.3398 30.6641C29.043 30.6641 29.4922 31.1133 29.4922 31.7969L29.4922 34.082C29.4922 34.7656 29.043 35.2148 28.3398 35.2148ZM34.3945 35.2148C33.6914 35.2148 33.2617 34.7656 33.2617 34.082L33.2617 31.7969C33.2617 31.1133 33.6914 30.6641 34.3945 30.6641L36.6602 30.6641C37.3633 30.6641 37.793 31.1133 37.793 31.7969L37.793 34.082C37.793 34.7656 37.3633 35.2148 36.6602 35.2148ZM42.7148 35.2148C41.9922 35.2148 41.5625 34.7656 41.5625 34.082L41.5625 31.7969C41.5625 31.1133 41.9922 30.6641 42.7148 30.6641L44.9609 30.6641C45.6836 30.6641 46.0938 31.1133 46.0938 31.7969L46.0938 34.082C46.0938 34.7656 45.6836 35.2148 44.9609 35.2148ZM51.0156 35.2148C50.293 35.2148 49.8633 34.7656 49.8633 34.082L49.8633 31.7969C49.8633 31.1133 50.293 30.6641 51.0156 30.6641L53.2617 30.6641C53.9844 30.6641 54.3945 31.1133 54.3945 31.7969L54.3945 34.082C54.3945 34.7656 53.9844 35.2148 53.2617 35.2148ZM9.47266 43.5156C8.75 43.5156 8.33984 43.0859 8.33984 42.3828L8.33984 40.1172C8.33984 39.4141 8.75 38.9844 9.47266 38.9844L11.7188 38.9844C12.4414 38.9844 12.8711 39.4141 12.8711 40.1172L12.8711 42.3828C12.8711 43.0859 12.4414 43.5156 11.7188 43.5156ZM17.9883 43.5156C17.1484 43.5156 16.6406 43.0078 16.6406 42.168L16.6406 40.332C16.6406 39.4727 17.1484 38.9844 17.9883 38.9844L44.7461 38.9844C45.6055 38.9844 46.0938 39.4727 46.0938 40.332L46.0938 42.168C46.0938 43.0078 45.6055 43.5156 44.7461 43.5156ZM51.0156 43.5156C50.293 43.5156 49.8633 43.0859 49.8633 42.3828L49.8633 40.1172C49.8633 39.4141 50.293 38.9844 51.0156 38.9844L53.2617 38.9844C53.9844 38.9844 54.3945 39.4141 54.3945 40.1172L54.3945 42.3828C54.3945 43.0859 53.9844 43.5156 53.2617 43.5156Z" fill="black" fill-opacity="0.85"/>
  <path d="M31.4648 66.0352C32.2852 66.0352 33.3398 65.5859 34.1992 65.293L47.7148 60.1562C48.5547 59.8633 48.8672 59.1211 48.8672 58.6328C48.8672 57.6172 48.1445 56.7578 47.0117 56.7578C46.5039 56.7578 45.7422 57.0508 45.2539 57.2266L30.1953 62.9883L32.7539 62.9883L17.6758 57.2266C17.1875 57.0508 16.4648 56.7578 15.918 56.7578C14.8633 56.7578 14.082 57.5781 14.082 58.6328C14.082 59.1211 14.375 59.8633 15.2148 60.1562L28.75 65.293C29.6289 65.6055 30.6445 66.0352 31.4648 66.0352Z" fill="black" fill-opacity="0.85"/>
 </g>
</svg>
