<?xml version="1.0" encoding="UTF-8"?>
<!--Generator: Apple Native CoreSVG 326-->
<!DOCTYPE svg
PUBLIC "-//W3C//DTD SVG 1.1//EN"
       "http://www.w3.org/Graphics/SVG/1.1/DTD/svg11.dtd">
<svg version="1.1" xmlns="http://www.w3.org/2000/svg" xmlns:xlink="http://www.w3.org/1999/xlink" viewBox="0 0 57.2656 63.3008">
 <g>
  <rect height="63.3008" opacity="0" width="57.2656" x="0" y="0"/>
  <path d="M28.457 48.2031C31.9293 48.2031 35.1667 47.8727 38.1055 47.2337L38.1055 48.3594C38.1055 53.0469 34.5117 55.8008 28.457 55.8008C22.3828 55.8008 18.7891 53.0469 18.7891 48.3594L18.7891 47.2315C21.7328 47.8719 24.9768 48.2031 28.457 48.2031Z" fill="black" fill-opacity="0.85"/>
  <path d="M28.457 45.4688C44.1406 45.4688 54.1797 38.5156 54.1797 28.7695C54.1797 19.043 44.1211 12.0703 28.418 12.0703C12.7734 12.0703 2.71484 19.043 2.71484 28.7695C2.71484 38.5156 12.7734 45.4688 28.457 45.4688ZM28.457 41.7969C15.3906 41.7969 6.58203 36.5039 6.58203 28.7695C6.58203 21.0547 15.3906 15.7617 28.418 15.7617C41.4844 15.7617 50.332 21.0547 50.332 28.7695C50.332 36.5039 41.5039 41.7969 28.457 41.7969Z" fill="black" fill-opacity="0.85"/>
  <path d="M24.8047 36.582L32.6953 36.582C33.5352 36.582 34.1211 35.9961 34.1211 35.1758C34.1211 34.3359 33.5352 33.7695 32.6953 33.7695L26.4062 33.7695L26.4062 21.8555C26.4062 20.8008 25.7617 20.1367 24.8047 20.1367C23.8477 20.1367 23.2031 20.8203 23.2031 21.8555L23.2031 34.8633C23.2031 35.8984 23.8281 36.582 24.8047 36.582Z" fill="black" fill-opacity="0.85"/>
  <path d="M22.3438 2.77344L27.207 9.27734C27.8516 10.1367 29.0625 10.1367 29.707 9.27734L34.5703 2.77344C35.4883 1.5625 35 0 33.3789 0L23.5156 0C21.9727 0 21.4062 1.52344 22.3438 2.77344Z" fill="black" fill-opacity="0.85"/>
 </g>
</svg>
