<?xml version="1.0" encoding="UTF-8"?>
<!--Generator: Apple Native CoreSVG 326-->
<!DOCTYPE svg
PUBLIC "-//W3C//DTD SVG 1.1//EN"
       "http://www.w3.org/Graphics/SVG/1.1/DTD/svg11.dtd">
<svg version="1.1" xmlns="http://www.w3.org/2000/svg" xmlns:xlink="http://www.w3.org/1999/xlink" viewBox="0 0 46.2891 45.918">
 <g>
  <rect height="45.918" opacity="0" width="46.2891" x="0" y="0"/>
  <path d="M45.918 7.53906L45.918 38.3984C45.918 43.3594 43.3594 45.918 38.3008 45.918L7.59766 45.918C2.55859 45.918 0 43.3984 0 38.3984L0 7.53906C0 2.53906 2.55859 0 7.59766 0L38.3008 0C43.3594 0 45.918 2.55859 45.918 7.53906ZM14.8438 32.0312C13.9258 32.0312 13.2031 32.7734 13.2031 33.6719C13.2031 34.4922 13.9258 35.2734 14.8438 35.2734L29.8047 35.2734C30.7422 35.2734 31.4648 34.4922 31.4648 33.6719C31.4648 32.7734 30.7422 32.0312 29.8047 32.0312ZM27.9688 11.2109L14.8633 17.1875C13.8086 17.6758 13.4375 18.418 13.4375 19.2773C13.4375 20.2539 13.7891 20.9375 14.8633 21.3867L27.9688 27.3438C28.4766 27.5977 28.7305 27.6758 29.0039 27.6758C30 27.6758 30.6836 26.875 30.6836 26.0352C30.6836 25.3711 30.3125 24.7461 29.6289 24.4727L18.2422 19.3359L18.2422 19.2383L29.6289 14.1406C30.3125 13.8086 30.6836 13.2031 30.6836 12.5391C30.6836 11.6992 30 10.9375 29.0039 10.9375C28.7305 10.9375 28.4766 10.9961 27.9688 11.2109Z" fill="black" fill-opacity="0.85"/>
 </g>
</svg>
