<?xml version="1.0" encoding="UTF-8"?>
<!--Generator: Apple Native CoreSVG 326-->
<!DOCTYPE svg
PUBLIC "-//W3C//DTD SVG 1.1//EN"
       "http://www.w3.org/Graphics/SVG/1.1/DTD/svg11.dtd">
<svg version="1.1" xmlns="http://www.w3.org/2000/svg" xmlns:xlink="http://www.w3.org/1999/xlink" viewBox="0 0 58.3008 86.6211">
 <g>
  <rect height="86.6211" opacity="0" width="58.3008" x="0" y="0"/>
  <path d="M6.875 30.8203C7.87109 30.8203 8.76953 29.9805 8.76953 28.9844C8.76953 27.9688 7.87109 27.1094 6.875 27.1094L1.83594 27.1094C0.839844 27.1094 0 27.9883 0 28.9844C0 29.9609 0.839844 30.8203 1.83594 30.8203ZM12.0312 14.6875C12.7344 15.3711 13.9062 15.3906 14.6289 14.6875C15.3711 13.9453 15.3516 12.793 14.6289 12.0703L11.0938 8.49609C10.4102 7.77344 9.21875 7.77344 8.47656 8.49609C7.77344 9.23828 7.77344 10.3711 8.47656 11.0938ZM27.1289 6.89453C27.1289 7.89062 27.9492 8.75 28.9453 8.75C29.9805 8.75 30.8203 7.89062 30.8203 6.89453L30.8203 1.85547C30.8203 0.859375 29.9609 0 28.9453 0C27.9492 0 27.1289 0.859375 27.1289 1.85547ZM43.2617 12.0703C42.5391 12.793 42.5195 13.9453 43.2617 14.6875C43.9844 15.4102 45.1562 15.3906 45.8594 14.6875L49.4336 11.0938C50.1562 10.3711 50.1562 9.23828 49.4336 8.49609C48.6914 7.77344 47.5586 7.77344 46.8359 8.49609ZM56.0547 30.8203C57.0508 30.8203 57.9297 29.9609 57.9297 28.9844C57.9297 27.9883 57.0508 27.1094 56.0547 27.1094L51.0156 27.1094C50.0195 27.1094 49.1602 27.9688 49.1602 28.9844C49.1602 29.9805 50.0195 30.8203 51.0156 30.8203Z" fill="black" fill-opacity="0.85"/>
  <path d="M28.9453 13.3984C20.2344 13.3984 13.3594 19.8438 13.3594 27.8125C13.3594 36.6406 18.7305 38.9844 20.1953 54.8633C20.2734 55.7227 20.7227 56.2305 21.6406 56.2305L36.2695 56.2305C37.1875 56.2305 37.6367 55.7227 37.7148 54.8633C39.1797 38.9844 44.5703 36.6406 44.5703 27.8125C44.5703 19.8438 37.6758 13.3984 28.9453 13.3984ZM21.6406 61.0938L36.2891 61.0938C37.0508 61.0938 37.6367 60.5078 37.6367 59.7461C37.6367 58.9844 37.0508 58.418 36.2891 58.418L21.6406 58.418C20.8789 58.418 20.3125 58.9844 20.3125 59.7461C20.3125 60.5078 20.8789 61.0938 21.6406 61.0938ZM28.9648 67.8125C32.6367 67.8125 35.625 65.9766 35.8008 63.2812L22.1289 63.2812C22.2852 65.9766 25.2734 67.8125 28.9648 67.8125Z" fill="black" fill-opacity="0.85"/>
 </g>
</svg>
