<?xml version="1.0" encoding="UTF-8"?>
<!--Generator: Apple Native CoreSVG 326-->
<!DOCTYPE svg
PUBLIC "-//W3C//DTD SVG 1.1//EN"
       "http://www.w3.org/Graphics/SVG/1.1/DTD/svg11.dtd">
<svg version="1.1" xmlns="http://www.w3.org/2000/svg" xmlns:xlink="http://www.w3.org/1999/xlink" viewBox="0 0 68.8141 63.5352">
 <g>
  <rect height="63.5352" opacity="0" width="68.8141" x="0" y="0"/>
  <path d="M42.0145 63.5352C59.7098 63.5352 68.4402 47.6172 68.4402 38.9258C68.4402 36.0742 64.9441 35.957 64.6121 38.6133C63.3231 49.2383 54.9246 56.7188 45.6082 56.7188C35.8035 56.7188 28.0691 49.5508 28.0691 40.3711C28.0691 31.3867 34.241 21.9922 43.2059 21.9922C46.0379 21.9922 45.9988 23.6328 48.9676 23.6328C53.2645 23.6328 62.6199 17.0898 62.6199 12.3242C62.6199 9.27734 57.8543 7.36328 49.9637 7.36328C44.3777 7.36328 42.4051 8.73047 42.0731 11.2891C41.7606 13.3008 40.6473 14.375 38.6746 14.375C25.1004 14.375 14.2215 24.8633 14.2215 38.3398C14.2215 53.1836 25.6277 63.5352 42.0145 63.5352ZM23.6551 11.4258C22.8934 12.8906 23.2645 14.5508 24.6902 15.3906L28.7332 17.7344L35.6473 15.1758L28.3035 11.6797L29.241 7.83203L34.2215 6.95312C36.0965 6.62109 35.5691 3.53516 33.2449 4.27734C31.9559 4.6875 31.0379 3.39844 31.7215 2.24609C32.7762 0.449219 29.7293-0.800781 29.1238 0.976562C28.6941 2.24609 27.2684 2.42188 26.6434 1.09375C25.7254-0.839844 22.9324 0.429688 24.0262 2.24609L26.3309 6.09375ZM35.7059 33.3984L41.6629 33.7305L43.8504 37.6562C44.8465 39.5117 47.5418 37.5977 46.1941 36.0742C45.2762 35 46.1746 33.5938 47.4637 33.8672C49.3191 34.2578 49.7879 30.9766 47.6981 30.9961C46.3309 30.9961 45.6668 29.5703 46.6824 28.6523C48.4988 27.0117 46.0965 25 44.8465 26.4648L41.5848 30.332L37.7957 29.2188L38.4598 21.1328L32.7566 25.8398L32.7957 30.4883C32.7957 32.168 34.0457 33.3008 35.7059 33.3984ZM9.29961 43.2031L6.05743 48.2227L1.54571 48.125C-0.661323 48.0664-0.387885 51.1523 1.62383 50.957C3.03008 50.8203 3.88946 52.168 2.99102 53.1445C1.62383 54.6094 4.33868 56.7578 5.39336 54.8047C6.09649 53.5742 7.63946 53.7695 7.95196 55.0586C8.51836 57.6172 11.4676 56.5234 10.7645 54.5898L9.02618 49.8438L11.8777 47.1289L18.3426 51.5625L17.0926 44.3164L13.284 42.168C11.8191 41.3086 10.2176 41.7969 9.29961 43.2031ZM35.4715 40.8203C34.0848 39.9023 32.4246 40.0977 31.3895 41.4258L28.577 45.1172L30.3543 52.2656L34.6902 45.4297L38.3621 46.8164L38.6356 51.8555C38.7723 53.7891 41.9168 53.5742 41.4285 51.2109C41.1551 49.8438 42.5613 49.1016 43.6551 49.9609C45.3152 51.2109 46.8973 48.2422 45.159 47.4805C43.9285 46.9141 44.0848 45.1172 45.4715 44.9609C47.4832 44.7852 46.4481 41.3867 44.534 42.2852L40.4324 44.1211Z" fill="black" fill-opacity="0.85"/>
 </g>
</svg>
