<?xml version="1.0" encoding="UTF-8"?>
<!--Generator: Apple Native CoreSVG 326-->
<!DOCTYPE svg
PUBLIC "-//W3C//DTD SVG 1.1//EN"
       "http://www.w3.org/Graphics/SVG/1.1/DTD/svg11.dtd">
<svg version="1.1" xmlns="http://www.w3.org/2000/svg" xmlns:xlink="http://www.w3.org/1999/xlink" viewBox="0 0 49.0039 48.6914">
 <g>
  <rect height="48.6914" opacity="0" width="49.0039" x="0" y="0"/>
  <path d="M1.73828 15.7031C2.85156 15.7031 3.45703 15.0586 3.45703 13.9453L3.45703 7.77344C3.45703 4.96094 4.94141 3.51562 7.67578 3.51562L13.9648 3.51562C15.0781 3.51562 15.7227 2.89062 15.7227 1.79688C15.7227 0.683594 15.0781 0.0585938 13.9648 0.0585938L7.59766 0.0585938C2.55859 0.0585938 0 2.57812 0 7.57812L0 13.9453C0 15.0586 0.625 15.7031 1.73828 15.7031ZM46.8945 15.7031C48.0273 15.7031 48.6328 15.0586 48.6328 13.9453L48.6328 7.57812C48.6328 2.61719 46.0938 0.0585938 41.0352 0.0585938L34.668 0.0585938C33.5547 0.0585938 32.9102 0.683594 32.9102 1.79688C32.9102 2.89062 33.5547 3.51562 34.668 3.51562L40.957 3.51562C43.6328 3.51562 45.1758 4.96094 45.1758 7.77344L45.1758 13.9453C45.1758 15.0586 45.8008 15.7031 46.8945 15.7031ZM7.59766 48.6914L13.9648 48.6914C15.0781 48.6914 15.7227 48.0664 15.7227 46.9531C15.7227 45.8594 15.0781 45.2344 13.9648 45.2344L7.67578 45.2344C4.94141 45.2344 3.45703 43.7891 3.45703 40.9766L3.45703 34.8047C3.45703 33.6914 2.83203 33.0469 1.73828 33.0469C0.605469 33.0469 0 33.6914 0 34.8047L0 41.1719C0 46.1719 2.55859 48.6914 7.59766 48.6914ZM34.668 48.6914L41.0352 48.6914C46.0938 48.6914 48.6328 46.1328 48.6328 41.1719L48.6328 34.8047C48.6328 33.6914 48.0078 33.0469 46.8945 33.0469C45.7812 33.0469 45.1758 33.6914 45.1758 34.8047L45.1758 40.9766C45.1758 43.7891 43.6328 45.2344 40.957 45.2344L34.668 45.2344C33.5547 45.2344 32.9102 45.8594 32.9102 46.9531C32.9102 48.0664 33.5547 48.6914 34.668 48.6914Z" fill="black" fill-opacity="0.85"/>
  <path d="M10.1953 26.9727L21.6992 26.9922L21.7188 38.2812C21.7188 39.8438 22.4414 40.6836 23.7305 40.6836C24.6289 40.6836 25.3906 40.0977 25.918 38.9258L37.3242 14.4531C37.5781 13.9062 37.7344 13.3789 37.7344 12.9492C37.7344 11.8164 36.8945 10.9766 35.7617 10.9766C35.293 10.9766 34.7852 11.1328 34.2578 11.3672L9.58984 22.832C8.55469 23.3008 7.98828 24.0625 7.98828 24.9609C7.98828 26.2305 8.78906 26.9727 10.1953 26.9727ZM13.3008 24.1602L34.2383 14.4727L24.5312 35.4297L24.5703 25.5078C24.5703 24.6875 24.0039 24.1016 23.1445 24.1016Z" fill="black" fill-opacity="0.85"/>
 </g>
</svg>
