<?xml version="1.0" encoding="UTF-8"?>
<!--Generator: Apple Native CoreSVG 326-->
<!DOCTYPE svg
PUBLIC "-//W3C//DTD SVG 1.1//EN"
       "http://www.w3.org/Graphics/SVG/1.1/DTD/svg11.dtd">
<svg version="1.1" xmlns="http://www.w3.org/2000/svg" xmlns:xlink="http://www.w3.org/1999/xlink" viewBox="0 0 51.2508 52.2169">
 <g>
  <rect height="52.2169" opacity="0" width="51.2508" x="0" y="0"/>
  <path d="M33.2993 36.4141L27.9887 47.7979C26.5239 50.9229 22.5395 50.2002 22.5395 46.8995L22.4809 27.9346C22.4809 27.6026 22.3637 27.4659 22.0317 27.4659L2.9301 27.3877C-0.429273 27.3682-1.03474 23.4034 1.81682 22.0948L13.5253 16.6501ZM47.0317 6.97758L37.2523 27.9404L22.0144 12.7025L42.852 3.01274C45.9574 1.56742 48.5356 3.69633 47.0317 6.97758Z" fill="black" fill-opacity="0.85"/>
  <path d="M44.6489 43.8916C45.2934 44.5557 46.3676 44.5557 46.9926 43.8916C47.6176 43.2666 47.6567 42.1924 46.9926 41.5479L8.65276 3.20805C8.02776 2.58305 6.93401 2.56352 6.28948 3.20805C5.64495 3.83305 5.64495 4.9268 6.28948 5.57133Z" fill="black" fill-opacity="0.85"/>
 </g>
</svg>
