<?xml version="1.0" encoding="UTF-8"?>
<!--Generator: Apple Native CoreSVG 326-->
<!DOCTYPE svg
PUBLIC "-//W3C//DTD SVG 1.1//EN"
       "http://www.w3.org/Graphics/SVG/1.1/DTD/svg11.dtd">
<svg version="1.1" xmlns="http://www.w3.org/2000/svg" xmlns:xlink="http://www.w3.org/1999/xlink" viewBox="0 0 51.4895 47.5363">
 <g>
  <rect height="47.5363" opacity="0" width="51.4895" x="0" y="0"/>
  <path d="M1.87757 19.6568C-1.1693 21.0631-0.309925 25.1256 3.02992 25.1451L22.1315 25.2232C22.4049 25.2232 22.483 25.3209 22.483 25.5943L22.5416 44.5592C22.5612 48.0357 26.7213 48.6217 28.1862 45.4967L47.2291 4.67636C48.7526 1.35605 46.1549-0.948642 42.9127 0.574795ZM5.51039 21.8248C5.37367 21.8248 5.35414 21.6685 5.47132 21.6295L43.3034 4.18808C43.5182 4.09042 43.6549 4.18808 43.5377 4.42245L26.0182 42.1959C25.9596 42.3131 25.8424 42.2935 25.8424 42.1764L25.9205 23.4264C25.9205 22.4303 25.2565 21.7271 24.1823 21.7271Z" fill="black" fill-opacity="0.85"/>
 </g>
</svg>
