<?xml version="1.0" encoding="UTF-8"?>
<!--Generator: Apple Native CoreSVG 326-->
<!DOCTYPE svg
PUBLIC "-//W3C//DTD SVG 1.1//EN"
       "http://www.w3.org/Graphics/SVG/1.1/DTD/svg11.dtd">
<svg version="1.1" xmlns="http://www.w3.org/2000/svg" xmlns:xlink="http://www.w3.org/1999/xlink" viewBox="0 0 51.25 50.918">
 <g>
  <rect height="50.918" opacity="0" width="51.25" x="0" y="0"/>
  <path d="M50.8789 25.4688C50.8789 39.4922 39.4531 50.918 25.4297 50.918C11.4258 50.918 0 39.4922 0 25.4688C0 11.4648 11.4258 0.0390625 25.4297 0.0390625C39.4531 0.0390625 50.8789 11.4648 50.8789 25.4688ZM18.4766 19.2969L18.4766 22.5C16.875 22.5781 16.0742 23.4766 16.0742 25.3711L16.0742 35.7617C16.0742 37.7344 16.9531 38.6328 18.7695 38.6328L32.0898 38.6328C33.9062 38.6328 34.7852 37.7344 34.7852 35.7617L34.7852 25.3711C34.7852 23.4766 33.9844 22.5781 32.3828 22.5L32.3828 19.2969C32.3828 14.6484 29.5703 11.543 25.4297 11.543C21.2891 11.543 18.4766 14.6484 18.4766 19.2969ZM29.9805 19.043L29.9805 22.4805L20.8984 22.4805L20.8984 19.043C20.8984 15.957 22.7148 13.8867 25.4297 13.8867C28.1445 13.8867 29.9805 15.957 29.9805 19.043Z" fill="black" fill-opacity="0.85"/>
 </g>
</svg>
