<?xml version="1.0" encoding="UTF-8"?>
<!--Generator: Apple Native CoreSVG 326-->
<!DOCTYPE svg
PUBLIC "-//W3C//DTD SVG 1.1//EN"
       "http://www.w3.org/Graphics/SVG/1.1/DTD/svg11.dtd">
<svg version="1.1" xmlns="http://www.w3.org/2000/svg" xmlns:xlink="http://www.w3.org/1999/xlink" viewBox="0 0 58.9258 44.5898">
 <g>
  <rect height="44.5898" opacity="0" width="58.9258" x="0" y="0"/>
  <path d="M58.5547 18.4766L58.5547 26.0742C58.5547 39.2188 53.6328 44.5508 39.3555 44.5508L19.1992 44.5508C4.92188 44.5508 0 39.2188 0 26.0742L0 18.4766C0 5.33203 4.92188 0 19.1992 0L39.3555 0C53.6328 0 58.5547 5.33203 58.5547 18.4766ZM25.8008 13.5156L21.9531 28.3789L21.8359 28.3789L17.9492 13.5156C17.6172 12.207 16.8555 11.5625 15.6055 11.5625C14.1602 11.5625 13.2422 12.4414 13.2422 13.9062L13.2422 31.5039C13.2422 32.4609 13.8281 33.0859 14.7266 33.0859C15.6445 33.0859 16.2305 32.4609 16.2305 31.5039L16.2305 16.7578L16.3672 16.7578L20.1758 31.1523C20.4102 32.0703 20.957 32.7344 21.8945 32.7344C22.8906 32.7344 23.3789 32.0898 23.6328 31.1328L27.4414 16.7578L27.5781 16.7578L27.5781 31.5039C27.5781 32.4805 28.125 33.0859 29.043 33.0859C30.0195 33.0859 30.5469 32.4609 30.5469 31.5039L30.5469 13.9062C30.5469 12.3828 29.6484 11.5625 28.1836 11.5625C26.875 11.5625 26.1328 12.207 25.8008 13.5156ZM34.043 16.7773C34.043 17.5977 34.5312 18.2227 35.4102 18.2227C36.1719 18.2227 36.6406 17.8711 36.8555 17.1289C37.3047 15.2344 38.0273 14.0039 39.6484 14.0039C41.3867 14.0039 42.2852 15.5859 42.2852 17.4414C42.2852 19.4922 41.0156 21.5039 39.5898 23.3789L34.8242 29.5898C34.3945 30.1367 34.0234 30.6836 34.0234 31.4062C34.0234 32.168 34.5117 32.7344 35.5469 32.7344L44.4922 32.7344C45.293 32.7344 45.8008 32.1875 45.8008 31.3867C45.8008 30.5273 45.2734 30.0391 44.4922 30.0391L38.0664 30.0391L38.0664 29.8438L42.1094 24.5703C44.5508 21.4453 45.3711 19.5508 45.3711 17.3047C45.3711 13.8867 43.1445 11.3477 39.668 11.3477C36.4258 11.3477 34.043 14.082 34.043 16.7773Z" fill="black" fill-opacity="0.85"/>
 </g>
</svg>
