<?xml version="1.0" encoding="UTF-8"?>
<!--Generator: Apple Native CoreSVG 326-->
<!DOCTYPE svg
PUBLIC "-//W3C//DTD SVG 1.1//EN"
       "http://www.w3.org/Graphics/SVG/1.1/DTD/svg11.dtd">
<svg version="1.1" xmlns="http://www.w3.org/2000/svg" xmlns:xlink="http://www.w3.org/1999/xlink" viewBox="0 0 51.25 50.918">
 <g>
  <rect height="50.918" opacity="0" width="51.25" x="0" y="0"/>
  <path d="M50.8789 25.4492C50.8789 39.4531 39.4531 50.8789 25.4297 50.8789C11.4258 50.8789 0 39.4531 0 25.4492C0 11.4258 11.4258 0 25.4297 0C39.4531 0 50.8789 11.4258 50.8789 25.4492ZM37.6562 16.3281L33.1836 32.3828L32.9492 32.3828L28.3984 16.3086C28.1445 15.332 27.4609 14.707 26.4648 14.707C25.3125 14.707 24.5703 15.4492 24.5703 16.582L24.5703 34.9414C24.5703 35.6836 25.0391 36.1914 25.7617 36.1914C26.4648 36.1914 26.9531 35.6836 26.9531 34.9414L26.9531 19.043L27.1289 19.043L31.5234 34.5312C31.7188 35.2539 32.168 35.8594 33.0273 35.8594C33.8867 35.8594 34.3164 35.3125 34.5703 34.4727L38.9453 19.043L39.1211 19.043L39.1211 34.9414C39.1211 35.6836 39.6094 36.1914 40.3125 36.1914C41.0156 36.1914 41.5039 35.6836 41.5039 34.9414L41.5039 16.582C41.5039 15.4297 40.7812 14.707 39.6289 14.707C38.6328 14.707 37.9297 15.3125 37.6562 16.3281ZM10.6641 15C9.90234 15 9.375 15.5078 9.375 16.3477L9.375 34.8242C9.375 35.625 9.88281 36.1719 10.7031 36.1719C11.5039 36.1719 12.0117 35.625 12.0117 34.8242L12.0117 27.4023L15.4297 27.4023L18.7695 35.2148C19.043 35.8398 19.4531 36.1719 20.0586 36.1719C20.8984 36.1719 21.3672 35.6445 21.3672 34.9805C21.3672 34.6484 21.2891 34.4141 21.0938 33.9648L17.9688 26.8359C19.9805 26.0156 21.3867 24.0625 21.3867 21.1523C21.3867 17.3242 19.0625 15 15.1758 15ZM18.75 21.1914C18.75 23.6328 17.4805 25.293 14.9414 25.293L12.0117 25.293L12.0117 17.1875L14.9219 17.1875C17.3828 17.1875 18.75 18.7695 18.75 21.1914Z" fill="black" fill-opacity="0.85"/>
 </g>
</svg>
