<?xml version="1.0" encoding="UTF-8"?>
<!--Generator: Apple Native CoreSVG 326-->
<!DOCTYPE svg
PUBLIC "-//W3C//DTD SVG 1.1//EN"
       "http://www.w3.org/Graphics/SVG/1.1/DTD/svg11.dtd">
<svg version="1.1" xmlns="http://www.w3.org/2000/svg" xmlns:xlink="http://www.w3.org/1999/xlink" viewBox="0 0 46.2891 45.918">
 <g>
  <rect height="45.918" opacity="0" width="46.2891" x="0" y="0"/>
  <path d="M45.918 7.53906L45.918 38.3984C45.918 43.3594 43.3594 45.918 38.3008 45.918L7.59766 45.918C2.55859 45.918 0 43.3984 0 38.3984L0 7.53906C0 2.53906 2.55859 0 7.59766 0L38.3008 0C43.3594 0 45.918 2.55859 45.918 7.53906ZM21.9727 10.9961L21.9727 13.9844C16.7188 14.4531 14.2383 18.8672 14.2383 24.5898L14.2383 32.6758C14.2383 33.5156 14.7461 34.0625 15.5664 34.0625C16.4258 34.0625 16.9336 33.5156 16.9336 32.6758L16.9336 24.7656C16.9336 20.4688 18.3594 16.9727 21.9727 16.4258L21.9727 33.0859C21.9727 33.6914 22.3633 34.0625 22.9688 34.0625C23.5547 34.0625 23.9062 33.6914 23.9062 33.0859L23.9062 16.4062C27.6953 16.8945 29.1016 20.4688 29.1016 24.7656L29.1016 32.6758C29.1016 33.5156 29.6094 34.0625 30.4492 34.0625C31.2891 34.0625 31.7773 33.5156 31.7773 32.6758L31.7773 24.5898C31.7773 18.7695 29.2383 14.4141 23.9062 13.9648L23.9062 10.9961C23.9062 10.3906 23.5547 10.0391 22.9688 10.0391C22.3633 10.0391 21.9727 10.3906 21.9727 10.9961Z" fill="black" fill-opacity="0.85"/>
 </g>
</svg>
