<?xml version="1.0" encoding="UTF-8"?>
<!--Generator: Apple Native CoreSVG 326-->
<!DOCTYPE svg
PUBLIC "-//W3C//DTD SVG 1.1//EN"
       "http://www.w3.org/Graphics/SVG/1.1/DTD/svg11.dtd">
<svg version="1.1" xmlns="http://www.w3.org/2000/svg" xmlns:xlink="http://www.w3.org/1999/xlink" viewBox="0 0 55.5273 53.1055">
 <g>
  <rect height="53.1055" opacity="0" width="55.5273" x="0" y="0"/>
  <path d="M3.06641 47.6758L52.0898 47.6758L52.0898 46.1719C52.0898 45.332 51.582 44.8242 50.7227 44.8242L49.1211 44.8242L49.1211 16.6797L51.3867 16.6797C52.5781 16.6797 53.2422 15.8398 53.2422 14.9609C53.2422 14.3164 52.8906 13.75 52.1094 13.3008L30.5273 0.839844C29.5703 0.292969 28.5547 0 27.5781 0C26.6016 0 25.5664 0.292969 24.6289 0.839844L3.04688 13.3008C2.24609 13.75 1.91406 14.3164 1.91406 14.9609C1.91406 15.8398 2.57812 16.6797 3.76953 16.6797L6.05469 16.6797L6.05469 44.8242L4.45312 44.8242C3.57422 44.8242 3.06641 45.332 3.06641 46.1719ZM9.31641 44.8242L9.31641 13.7109L26.4453 4.0625C26.7773 3.86719 27.1875 3.75 27.5781 3.75C27.9492 3.75 28.3398 3.86719 28.7109 4.0625L45.8594 13.7109L45.8594 44.8242ZM1.73828 53.0664L53.418 53.0664C54.375 53.0664 55.1562 52.2852 55.1562 51.3477C55.1562 50.3906 54.375 49.6094 53.418 49.6094L1.73828 49.6094C0.78125 49.6094 0 50.3906 0 51.3477C0 52.2852 0.78125 53.0664 1.73828 53.0664Z" fill="black" fill-opacity="0.85"/>
  <path d="M20.3711 37.2461C21.1914 37.2461 21.6992 36.7383 21.6992 35.8984L21.6992 28.1641C21.6992 23.6133 23.3398 19.9609 27.6172 19.9609C32.0117 19.9609 33.5742 23.6523 33.5742 28.1641L33.5742 35.8984C33.5742 36.7383 34.0625 37.2461 34.8828 37.2461C35.6836 37.2461 36.1914 36.7383 36.1914 35.8984L36.1914 28.0078C36.1914 22.0312 33.418 17.5977 27.6172 17.5977C21.7969 17.5977 19.082 22.0898 19.082 28.0078L19.082 35.8984C19.082 36.7383 19.5703 37.2461 20.3711 37.2461ZM27.5977 37.2461C28.1445 37.2461 28.5156 36.875 28.5156 36.2891L28.5156 14.7461C28.5156 14.1797 28.1445 13.8086 27.5977 13.8086C26.9922 13.8086 26.6406 14.1797 26.6406 14.7461L26.6406 36.2891C26.6406 36.875 26.9922 37.2461 27.5977 37.2461Z" fill="black" fill-opacity="0.85"/>
 </g>
</svg>
