<?xml version="1.0" encoding="UTF-8"?>
<!--Generator: Apple Native CoreSVG 326-->
<!DOCTYPE svg
PUBLIC "-//W3C//DTD SVG 1.1//EN"
       "http://www.w3.org/Graphics/SVG/1.1/DTD/svg11.dtd">
<svg version="1.1" xmlns="http://www.w3.org/2000/svg" xmlns:xlink="http://www.w3.org/1999/xlink" viewBox="0 0 46.5251 55.5664">
 <g>
  <rect height="55.5664" opacity="0" width="46.5251" x="0" y="0"/>
  <path d="M23.0672 55.5664C31.7 55.5664 38.6922 48.5742 38.6922 39.9414C38.6922 31.2891 31.7 24.2969 23.0672 24.2969C14.4149 24.2969 7.44222 31.2891 7.44222 39.9414C7.44222 48.5742 14.4149 55.5664 23.0672 55.5664ZM18.4774 48.1055C17.6571 48.7109 16.7782 48.0859 17.1102 47.1094L18.9071 41.6797L14.2782 38.3789C13.4969 37.8125 13.7508 36.6992 14.8055 36.6992L20.4891 36.7383L22.2469 31.3086C22.5594 30.3516 23.6141 30.3516 23.9071 31.3086L25.6649 36.7383L31.368 36.6992C32.4227 36.6992 32.618 37.832 31.8953 38.3594L27.2469 41.6797L29.0633 47.1094C29.3953 48.0859 28.5164 48.7109 27.6766 48.1055L23.0868 44.7461ZM8.32113 28.3594C10.7235 25.3125 14.0633 23.0078 17.911 21.9336L6.89535 1.34766L0.293783 11.4453C-0.0773112 12.0312-0.0968424 12.6758 0.235189 13.2422ZM17.286 12.9688L28.868 12.9688L35.9188 0.0390625L10.2157 0.0390625ZM28.2235 21.9336C32.0907 23.0273 35.411 25.3125 37.8328 28.3789L45.9188 13.2422C46.2508 12.6758 46.2313 12.0312 45.8602 11.4453L39.2391 1.34766Z" fill="black" fill-opacity="0.85"/>
 </g>
</svg>
