<?xml version="1.0" encoding="UTF-8"?>
<!--Generator: Apple Native CoreSVG 326-->
<!DOCTYPE svg
PUBLIC "-//W3C//DTD SVG 1.1//EN"
       "http://www.w3.org/Graphics/SVG/1.1/DTD/svg11.dtd">
<svg version="1.1" xmlns="http://www.w3.org/2000/svg" xmlns:xlink="http://www.w3.org/1999/xlink" viewBox="0 0 36.6602 57.9492">
 <g>
  <rect height="57.9492" opacity="0" width="36.6602" x="0" y="0"/>
  <path d="M1.99219 45.0586C3.22266 45.0586 3.98438 44.1992 3.98438 43.0469L3.98438 24.7656C3.98438 20.3711 6.09375 16.0938 10.4492 16.0938C14.4336 16.0938 16.1523 19.2188 16.1523 23.0469L16.1523 43.0469C16.1523 44.0625 16.7383 45.0586 18.1055 45.0586C19.4336 45.0586 20.1172 44.1406 20.1172 43.0469L20.1172 24.1406C20.1172 19.8242 22.2461 16.0938 26.5234 16.0938C30.7422 16.0938 32.2852 19.2578 32.2852 23.3789L32.2852 43.0469C32.2852 44.0234 32.832 45.0586 34.2773 45.0586C35.5273 45.0586 36.2891 44.1992 36.2891 43.0469L36.2891 22.4609C36.2891 16.7969 33.3203 12.5586 27.5391 12.5586C23.2227 12.5586 20.1758 15.0977 19.2383 18.9258L19.043 18.9258C18.2422 15.0781 15.7812 12.5586 11.4062 12.5586C7.20703 12.5586 4.74609 15.3711 3.90625 18.8867L3.76953 18.8867L3.76953 14.6875C3.76953 13.5156 3.02734 12.6953 1.875 12.6953C0.722656 12.6953 0 13.5156 0 14.6875L0 43.0469C0 44.1406 0.683594 45.0586 1.99219 45.0586ZM4.31641 57.8711C5.15625 57.8711 5.46875 57.4414 5.78125 56.6992L28.0469 2.1875C28.1641 1.89453 28.2422 1.5625 28.2422 1.28906C28.2422 0.488281 27.6367 0 26.8555 0C26.1133 0 25.7227 0.488281 25.4688 1.07422L3.14453 55.7422C3.00781 56.0742 2.94922 56.3672 2.94922 56.582C2.94922 57.4023 3.55469 57.8711 4.31641 57.8711Z" fill="black" fill-opacity="0.85"/>
 </g>
</svg>
