<?xml version="1.0" encoding="UTF-8"?>
<!--Generator: Apple Native CoreSVG 326-->
<!DOCTYPE svg
PUBLIC "-//W3C//DTD SVG 1.1//EN"
       "http://www.w3.org/Graphics/SVG/1.1/DTD/svg11.dtd">
<svg version="1.1" xmlns="http://www.w3.org/2000/svg" xmlns:xlink="http://www.w3.org/1999/xlink" viewBox="0 0 51.25 50.918">
 <g>
  <rect height="50.918" opacity="0" width="51.25" x="0" y="0"/>
  <path d="M25.4297 50.8789C39.4727 50.8789 50.8789 39.4922 50.8789 25.4492C50.8789 11.4062 39.4727 0 25.4297 0C11.3867 0 0 11.4062 0 25.4492C0 39.4922 11.3867 50.8789 25.4297 50.8789ZM25.4297 47.2461C13.3789 47.2461 3.63281 37.5 3.63281 25.4492C3.63281 13.3984 13.3789 3.65234 25.4297 3.65234C37.4805 3.65234 47.2266 13.3984 47.2266 25.4492C47.2266 37.5 37.4805 47.2461 25.4297 47.2461Z" fill="black" fill-opacity="0.85"/>
  <path d="M25.5859 40.1562C31.6211 40.1562 36.543 36.3867 38.5352 31.8359C38.6523 31.5625 38.6719 31.3086 38.6719 31.1914C38.6719 30.7031 38.2812 30.3516 37.8711 30.3516C37.6562 30.3516 37.4023 30.4492 37.0312 30.5469C35.918 30.8789 34.375 31.1914 32.6562 31.1914C25.2344 31.1914 20.4688 26.3672 20.4688 19.082C20.4688 17.3633 20.918 15.5469 21.543 13.8867C21.6211 13.7109 21.6797 13.5156 21.6797 13.3398C21.6797 12.8711 21.3281 12.5586 20.8789 12.5586C20.6641 12.5586 20.4297 12.6172 20.2344 12.7148C14.9805 14.8828 11.3477 20 11.3477 25.918C11.3477 33.7695 17.7344 40.1562 25.5859 40.1562Z" fill="black" fill-opacity="0.85"/>
 </g>
</svg>
