<?xml version="1.0" encoding="UTF-8"?>
<!--Generator: Apple Native CoreSVG 326-->
<!DOCTYPE svg
PUBLIC "-//W3C//DTD SVG 1.1//EN"
       "http://www.w3.org/Graphics/SVG/1.1/DTD/svg11.dtd">
<svg version="1.1" xmlns="http://www.w3.org/2000/svg" xmlns:xlink="http://www.w3.org/1999/xlink" viewBox="0 0 51.25 50.918">
 <g>
  <rect height="50.918" opacity="0" width="51.25" x="0" y="0"/>
  <path d="M25.4297 50.8789C39.4727 50.8789 50.8789 39.4922 50.8789 25.4492C50.8789 11.4062 39.4727 0 25.4297 0C11.3867 0 0 11.4062 0 25.4492C0 39.4922 11.3867 50.8789 25.4297 50.8789ZM25.4297 47.2461C13.3789 47.2461 3.63281 37.5 3.63281 25.4492C3.63281 13.3984 13.3789 3.65234 25.4297 3.65234C37.4805 3.65234 47.2266 13.3984 47.2266 25.4492C47.2266 37.5 37.4805 47.2461 25.4297 47.2461Z" fill="black" fill-opacity="0.85"/>
  <path d="M17.0117 28.0469L34.668 28.0469C35.2734 27.3828 35.7227 26.6211 36.1133 25.7617C36.3477 25.2539 36.2891 24.8242 36.0156 24.5312C35.7812 24.3164 35.4102 24.2578 34.9219 24.4336C33.9258 24.8438 32.7344 25.0391 31.2891 25.0391C25.4297 25.0391 21.7773 21.4648 21.7773 15.6836C21.7773 14.2188 22.0312 12.6758 22.4805 11.7969C22.7344 11.3086 22.6758 10.8789 22.4609 10.5664C22.207 10.2734 21.6992 10.2148 21.1523 10.4688C17.2656 12.168 14.6094 16.2109 14.6094 20.9766C14.6094 23.7305 15.4883 26.1523 17.0117 28.0469ZM13.0273 31.4453L40.3516 31.4453C40.8398 31.4453 41.1914 31.0938 41.1914 30.6055C41.1914 30.1172 40.8398 29.7852 40.3516 29.7852L13.0273 29.7852C12.5586 29.7852 12.1875 30.1367 12.1875 30.6055C12.1875 31.0938 12.5586 31.4453 13.0273 31.4453ZM10.4883 34.8242L37.793 34.8242C38.2812 34.8242 38.6328 34.4922 38.6328 34.0039C38.6328 33.5156 38.2812 33.1641 37.793 33.1641L10.4883 33.1641C10 33.1641 9.64844 33.5352 9.64844 34.0039C9.64844 34.4922 10 34.8242 10.4883 34.8242ZM13.0273 38.2227L40.3516 38.2227C40.8398 38.2227 41.1914 37.8711 41.1914 37.3828C41.1914 36.8945 40.8398 36.5625 40.3516 36.5625L13.0273 36.5625C12.5586 36.5625 12.1875 36.9141 12.1875 37.3828C12.1875 37.8711 12.5586 38.2227 13.0273 38.2227Z" fill="black" fill-opacity="0.85"/>
 </g>
</svg>
