<?xml version="1.0" encoding="UTF-8"?>
<!--Generator: Apple Native CoreSVG 326-->
<!DOCTYPE svg
PUBLIC "-//W3C//DTD SVG 1.1//EN"
       "http://www.w3.org/Graphics/SVG/1.1/DTD/svg11.dtd">
<svg version="1.1" xmlns="http://www.w3.org/2000/svg" xmlns:xlink="http://www.w3.org/1999/xlink" viewBox="0 0 57.5 54.8633">
 <g>
  <rect height="54.8633" opacity="0" width="57.5" x="0" y="0"/>
  <path d="M48.0469 28.8281C48.457 28.8281 48.7305 28.5547 48.7891 28.125C49.6875 21.3867 49.9219 21.3086 56.7578 20.1367C57.2266 20.0586 57.5 19.8242 57.5 19.3945C57.5 18.9844 57.2266 18.7305 56.8359 18.6523C49.9805 17.3438 49.6875 17.4219 48.7891 10.6641C48.7305 10.2344 48.457 9.96094 48.0469 9.96094C47.6562 9.96094 47.3633 10.2344 47.3242 10.6445C46.3867 17.4609 46.25 17.5977 39.2578 18.6523C38.8867 18.7109 38.5938 18.9844 38.5938 19.3945C38.5938 19.8047 38.8867 20.0586 39.2578 20.1367C46.25 21.4844 46.3672 21.4258 47.3242 28.1641C47.3633 28.5547 47.6562 28.8281 48.0469 28.8281ZM35.9961 12.1289C36.25 12.1289 36.4062 11.9727 36.4453 11.7188C37.1875 7.5 37.207 7.34375 41.6406 6.52344C41.8945 6.48438 42.0703 6.32812 42.0703 6.07422C42.0703 5.80078 41.8945 5.66406 41.6406 5.60547C37.2266 4.70703 37.3828 4.57031 36.4453 0.410156C36.4062 0.15625 36.25 0 35.9961 0C35.7422 0 35.6055 0.15625 35.5469 0.410156C34.6289 4.57031 34.8242 4.70703 30.3711 5.60547C30.1172 5.66406 29.9414 5.80078 29.9414 6.07422C29.9414 6.32812 30.1172 6.48438 30.3711 6.52344C34.8242 7.42188 34.7852 7.5 35.5469 11.7188C35.6055 11.9727 35.7422 12.1289 35.9961 12.1289Z" fill="black" fill-opacity="0.85"/>
  <path d="M28.9453 51.6406C37.8906 51.6406 45.1562 46.8164 48.4766 39.6875C48.8477 38.8672 48.7695 38.1836 48.3594 37.7539C48.0273 37.4219 47.3828 37.3438 46.6602 37.6172C44.6094 38.418 42.2852 38.8477 39.5117 38.8477C28.1445 38.8477 20.8398 31.7969 20.8398 20.4883C20.8398 17.7539 21.5039 14.6094 22.4023 12.7344C22.8125 11.9141 22.793 11.2109 22.4023 10.7812C22.0312 10.3125 21.2891 10.2148 20.3711 10.6445C12.8516 14.043 7.77344 21.6406 7.77344 30.3906C7.77344 42.168 16.7188 51.6406 28.9453 51.6406Z" fill="black" fill-opacity="0.85"/>
 </g>
</svg>
