<?xml version="1.0" encoding="UTF-8"?>
<!--Generator: Apple Native CoreSVG 326-->
<!DOCTYPE svg
PUBLIC "-//W3C//DTD SVG 1.1//EN"
       "http://www.w3.org/Graphics/SVG/1.1/DTD/svg11.dtd">
<svg version="1.1" xmlns="http://www.w3.org/2000/svg" xmlns:xlink="http://www.w3.org/1999/xlink" viewBox="0 0 51.25 50.918">
 <g>
  <rect height="50.918" opacity="0" width="51.25" x="0" y="0"/>
  <path d="M25.4297 50.8789C39.4727 50.8789 50.8789 39.4922 50.8789 25.4492C50.8789 11.4062 39.4727 0 25.4297 0C11.3867 0 0 11.4062 0 25.4492C0 39.4922 11.3867 50.8789 25.4297 50.8789ZM25.4297 47.2461C13.3789 47.2461 3.63281 37.5 3.63281 25.4492C3.63281 13.3984 13.3789 3.65234 25.4297 3.65234C37.4805 3.65234 47.2266 13.3984 47.2266 25.4492C47.2266 37.5 37.4805 47.2461 25.4297 47.2461Z" fill="black" fill-opacity="0.85"/>
  <path d="M22.5977 21.6406C23.6328 21.9922 24.4922 22.8711 25.3125 22.8711C26.3281 22.8711 27.1875 21.3672 29.0039 21.3672C30.8203 21.3672 31.6797 22.8711 32.6953 22.8711C33.4961 22.8711 34.3555 22.0117 35.4102 21.6406L30.7227 15.4883C29.7656 14.2188 28.2812 14.1797 27.3047 15.4883ZM16.9922 33.6719L40.9961 33.6719C42.7734 33.6719 43.2617 31.9727 42.3242 30.7617L36.4062 23.0078C35.5859 22.7539 34.3359 24.2773 32.6953 24.2773C30.8008 24.2773 30.0977 22.7734 29.0039 22.7734C27.9102 22.7734 27.207 24.2773 25.3125 24.2773C23.6719 24.2773 22.4023 22.7344 21.582 23.0078L15.6445 30.7617C14.7266 31.9531 15.2148 33.6719 16.9922 33.6719ZM9.86328 33.6719L13.8672 33.6719C13.2422 32.5391 13.2812 30.957 14.2383 29.707L21.0352 20.8789L20.3906 20.0977C19.3945 18.8867 18.0469 18.8867 17.0508 20.0977L8.61328 30.6055C7.55859 31.9336 8.06641 33.6719 9.86328 33.6719Z" fill="black" fill-opacity="0.85"/>
 </g>
</svg>
