<?xml version="1.0" encoding="UTF-8"?>
<!--Generator: Apple Native CoreSVG 326-->
<!DOCTYPE svg
PUBLIC "-//W3C//DTD SVG 1.1//EN"
       "http://www.w3.org/Graphics/SVG/1.1/DTD/svg11.dtd">
<svg version="1.1" xmlns="http://www.w3.org/2000/svg" xmlns:xlink="http://www.w3.org/1999/xlink" viewBox="0 0 55.5273 53.1055">
 <g>
  <rect height="53.1055" opacity="0" width="55.5273" x="0" y="0"/>
  <path d="M3.06641 47.6758L52.0898 47.6758L52.0898 46.1719C52.0898 45.332 51.582 44.8242 50.7227 44.8242L49.1211 44.8242L49.1211 16.6797L51.3867 16.6797C52.5781 16.6797 53.2422 15.8398 53.2422 14.9609C53.2422 14.3164 52.8906 13.75 52.1094 13.3008L30.5273 0.839844C29.5703 0.292969 28.5547 0 27.5781 0C26.6016 0 25.5664 0.292969 24.6289 0.839844L3.04688 13.3008C2.24609 13.75 1.91406 14.3164 1.91406 14.9609C1.91406 15.8398 2.57812 16.6797 3.76953 16.6797L6.05469 16.6797L6.05469 44.8242L4.45312 44.8242C3.57422 44.8242 3.06641 45.332 3.06641 46.1719ZM9.31641 44.8242L9.31641 13.7109L26.4453 4.0625C26.7773 3.86719 27.1875 3.75 27.5781 3.75C27.9492 3.75 28.3398 3.86719 28.7109 4.0625L45.8594 13.7109L45.8594 44.8242ZM1.73828 53.0664L53.418 53.0664C54.375 53.0664 55.1562 52.2852 55.1562 51.3477C55.1562 50.3906 54.375 49.6094 53.418 49.6094L1.73828 49.6094C0.78125 49.6094 0 50.3906 0 51.3477C0 52.2852 0.78125 53.0664 1.73828 53.0664Z" fill="black" fill-opacity="0.85"/>
  <path d="M19.3555 36.875C20.0586 36.875 20.5664 36.3477 20.5664 35.5664L20.5664 30.9766L22.1094 29.4336L26.9727 36.25C27.2266 36.6406 27.5781 36.875 28.0469 36.875C28.7109 36.875 29.2188 36.4062 29.2188 35.7812C29.2188 35.4688 29.082 35.1953 28.8867 34.9023L23.8672 27.9102L28.5742 22.9102C28.8672 22.5781 29.0039 22.4023 29.0039 22.0117C29.0039 21.4453 28.5352 20.957 27.9102 20.957C27.5781 20.957 27.1875 21.1523 26.9727 21.4258L20.6445 28.3594L20.5664 28.3594L20.5664 16.2305C20.5664 15.4688 20.0586 14.9219 19.3555 14.9219C18.6328 14.9219 18.1055 15.4492 18.1055 16.2109L18.1055 35.5664C18.1055 36.3477 18.6328 36.875 19.3555 36.875ZM33.3594 36.875C33.9258 36.875 34.5312 36.5234 34.5312 35.5664L34.5312 27.3633C34.5312 25.4883 35.2539 23.3203 37.5 23.3203C37.9688 23.3203 38.4375 23.2812 38.7891 23.1055C39.1211 22.9688 39.3164 22.6758 39.3164 22.2656C39.3164 21.4062 38.5938 20.957 37.7344 20.957C36.0742 20.957 34.9805 22.3633 34.5898 24.043L34.4336 24.043L34.4336 22.1875C34.4336 21.4844 33.9453 20.957 33.3203 20.957C32.6562 20.957 32.1875 21.4844 32.1875 22.1875L32.1875 35.5664C32.1875 36.3477 32.5977 36.875 33.3594 36.875Z" fill="black" fill-opacity="0.85"/>
 </g>
</svg>
