<?xml version="1.0" encoding="UTF-8"?>
<!--Generator: Apple Native CoreSVG 326-->
<!DOCTYPE svg
PUBLIC "-//W3C//DTD SVG 1.1//EN"
       "http://www.w3.org/Graphics/SVG/1.1/DTD/svg11.dtd">
<svg version="1.1" xmlns="http://www.w3.org/2000/svg" xmlns:xlink="http://www.w3.org/1999/xlink" viewBox="0 0 59.5508 45.918">
 <g>
  <rect height="45.918" opacity="0" width="59.5508" x="0" y="0"/>
  <path d="M59.1797 7.53906L59.1797 38.3984C59.1797 43.3594 56.6211 45.918 51.5625 45.918L7.59766 45.918C2.55859 45.918 0 43.3984 0 38.3984L0 7.53906C0 2.53906 2.55859 0 7.59766 0L51.5625 0C56.6211 0 59.1797 2.55859 59.1797 7.53906ZM37.3438 16.4648C37.2852 16.7773 37.2656 16.9727 37.2656 17.3047C37.2656 18.0664 37.793 18.6133 38.6133 18.6133C39.3359 18.6133 39.7852 18.2812 39.9805 17.5586C40.4492 15.7227 42.0508 14.6094 44.1992 14.6094C46.5625 14.6094 48.1055 15.8594 48.1055 17.793C48.1055 19.7852 46.4258 21.2891 44.1602 21.2891L42.5781 21.2891C41.875 21.2891 41.3281 21.7773 41.3281 22.5195C41.3281 23.2617 41.8359 23.7891 42.5781 23.7891L44.3164 23.7891C46.9727 23.7891 48.8281 25.293 48.8281 27.4414C48.8281 29.6094 46.9531 31.1133 44.1406 31.1133C41.8555 31.1133 40.1562 30 39.5898 28.1445C39.3359 27.4414 38.9062 27.0898 38.2031 27.0898C37.3242 27.0898 36.8359 27.6758 36.8359 28.4961C36.8359 28.7891 36.8555 28.9258 36.9141 29.1992C37.4414 31.8164 40.5469 33.6719 44.1016 33.6719C48.6523 33.6719 51.7969 31.2109 51.7969 27.5391C51.7969 24.8633 49.7461 22.7148 46.9922 22.4219L46.9922 22.3633C49.2773 21.9727 51.0547 19.8828 51.0547 17.4805C51.0547 14.3164 48.2031 12.0312 44.2383 12.0312C40.6641 12.0312 37.8906 13.7891 37.3438 16.4648ZM12.1094 12.832L7.73438 15.7812C7.30469 16.0742 7.14844 16.4062 7.14844 16.8555C7.14844 17.4805 7.65625 18.0273 8.22266 18.0273C8.53516 18.0273 8.75 17.9688 9.25781 17.6367L12.5781 15.4688L12.7734 15.4688L12.7734 31.9727C12.7734 33.0078 13.3594 33.6523 14.2969 33.6523C15.2539 33.6523 15.8398 33.0273 15.8398 31.9727L15.8398 13.7891C15.8398 12.6758 15.2148 12.0703 14.1992 12.0703C13.4375 12.0703 12.9688 12.2852 12.1094 12.832ZM20.1367 16.6992C20.0391 17.0312 20.0195 17.2656 20.0195 17.5586C20.0195 18.3398 20.5078 18.8672 21.3281 18.8672C22.0703 18.8672 22.4609 18.4375 22.793 17.832C23.2617 16.1914 24.6875 14.668 27.0117 14.668C29.3164 14.668 30.8789 16.0156 30.8789 18.0469C30.8789 19.6875 29.6289 21.0938 28.2031 22.6562L20.6836 30.7812C20.3516 31.1523 20.1367 31.5234 20.1367 31.9922C20.1367 32.832 20.7227 33.3203 21.6211 33.3203L33.3789 33.3203C34.1797 33.3203 34.7266 32.7539 34.7266 31.9922C34.7266 31.2305 34.1602 30.6836 33.3789 30.6836L24.4922 30.6836L24.4922 30.5859L30.2734 24.3359C32.4023 22.0117 33.7305 20.2344 33.7305 17.832C33.7305 14.3555 31.0156 12.0508 26.8945 12.0508C23.6523 12.0508 20.8008 14.0234 20.1367 16.6992Z" fill="black" fill-opacity="0.85"/>
 </g>
</svg>
