<?xml version="1.0" encoding="UTF-8"?>
<!--Generator: Apple Native CoreSVG 326-->
<!DOCTYPE svg
PUBLIC "-//W3C//DTD SVG 1.1//EN"
       "http://www.w3.org/Graphics/SVG/1.1/DTD/svg11.dtd">
<svg version="1.1" xmlns="http://www.w3.org/2000/svg" xmlns:xlink="http://www.w3.org/1999/xlink" viewBox="0 0 46.2891 45.918">
 <g>
  <rect height="45.918" opacity="0" width="46.2891" x="0" y="0"/>
  <path d="M7.59766 45.918L38.3008 45.918C43.3594 45.918 45.918 43.3594 45.918 38.3984L45.918 7.53906C45.918 2.55859 43.3594 0 38.3008 0L7.59766 0C2.55859 0 0 2.53906 0 7.53906L0 38.3984C0 43.3984 2.55859 45.918 7.59766 45.918ZM7.67578 42.4609C4.94141 42.4609 3.45703 41.0156 3.45703 38.2031L3.45703 7.71484C3.45703 4.92188 4.94141 3.45703 7.67578 3.45703L38.2422 3.45703C40.918 3.45703 42.4609 4.92188 42.4609 7.71484L42.4609 38.2031C42.4609 41.0156 40.918 42.4609 38.2422 42.4609Z" fill="black" fill-opacity="0.85"/>
  <path d="M16.6406 34.9805C17.5 34.9805 18.0273 34.5508 18.2031 33.7109L19.375 28.1445L24.2969 28.1445L23.2031 33.3203C23.0078 34.2188 23.6523 34.9805 24.5508 34.9805C25.4492 34.9805 25.9961 34.5508 26.1719 33.7109L27.3438 28.125L30.0977 28.125C30.957 28.125 31.5625 27.4805 31.5625 26.6406C31.5625 25.8984 31.0547 25.3516 30.3125 25.3516L27.9297 25.3516L29.082 20L31.8945 20C32.7344 20 33.3594 19.375 33.3594 18.5352C33.3594 17.7734 32.832 17.2461 32.0898 17.2461L29.6484 17.2461L30.6641 12.3047C30.8398 11.3867 30.1953 10.6445 29.2773 10.6445C28.418 10.6445 27.8906 11.0742 27.7148 11.8945L26.582 17.2461L21.6602 17.2461L22.6953 12.3047C22.8906 11.4062 22.2656 10.6445 21.3281 10.6445C20.4688 10.6445 19.9219 11.0742 19.7461 11.8945L18.6328 17.2461L15.8203 17.2461C14.9609 17.2461 14.3359 17.8711 14.3359 18.7109C14.3359 19.4531 14.8633 20 15.6055 20L18.0273 20L16.9336 25.3516L14.0234 25.3516C13.1641 25.3516 12.5586 25.9961 12.5586 26.8359C12.5586 27.5781 13.0859 28.125 13.8281 28.125L16.3281 28.125L15.2539 33.3203C15.0781 34.2188 15.7422 34.9805 16.6406 34.9805ZM19.8047 25.5859L20.9961 19.8047L26.2109 19.8047L25 25.5859Z" fill="black" fill-opacity="0.85"/>
 </g>
</svg>
