<?xml version="1.0" encoding="UTF-8"?>
<!--Generator: Apple Native CoreSVG 326-->
<!DOCTYPE svg
PUBLIC "-//W3C//DTD SVG 1.1//EN"
       "http://www.w3.org/Graphics/SVG/1.1/DTD/svg11.dtd">
<svg version="1.1" xmlns="http://www.w3.org/2000/svg" xmlns:xlink="http://www.w3.org/1999/xlink" viewBox="0 0 51.25 50.918">
 <g>
  <rect height="50.918" opacity="0" width="51.25" x="0" y="0"/>
  <path d="M50.8789 25.4688C50.8789 39.4922 39.4531 50.918 25.4297 50.918C11.4258 50.918 0 39.4922 0 25.4688C0 11.4648 11.4258 0.0390625 25.4297 0.0390625C39.4531 0.0390625 50.8789 11.4648 50.8789 25.4688ZM14.2188 33.8672L12.7148 37.168C12.4805 37.7344 13.0273 38.2031 13.4961 38.0273L16.9336 36.6211L34.3945 19.2188L31.6406 16.4453ZM34.8047 13.3203L33.0664 15.0391L35.8203 17.793L37.5391 16.0742C38.3594 15.2734 38.3789 14.3945 37.6367 13.6719L37.168 13.1836C36.4453 12.4805 35.5859 12.5586 34.8047 13.3203Z" fill="black" fill-opacity="0.85"/>
 </g>
</svg>
