<?xml version="1.0" encoding="UTF-8"?>
<!--Generator: Apple Native CoreSVG 326-->
<!DOCTYPE svg
PUBLIC "-//W3C//DTD SVG 1.1//EN"
       "http://www.w3.org/Graphics/SVG/1.1/DTD/svg11.dtd">
<svg version="1.1" xmlns="http://www.w3.org/2000/svg" xmlns:xlink="http://www.w3.org/1999/xlink" viewBox="0 0 51.25 50.918">
 <g>
  <rect height="50.918" opacity="0" width="51.25" x="0" y="0"/>
  <path d="M50.8789 25.4492C50.8789 39.4922 39.4727 50.8789 25.4297 50.8789C11.3867 50.8789 0 39.4922 0 25.4492C0 11.4062 11.3867 0 25.4297 0C39.4727 0 50.8789 11.4062 50.8789 25.4492ZM3.63281 25.4492C3.63281 33.3043 7.77378 40.1802 14.0088 43.9953L13.75 45.1953C13.5742 45.957 14.1016 46.6992 14.8438 46.8555C15.625 46.9922 16.3672 46.5234 16.5234 45.7812L16.6111 45.3767C19.301 46.5833 22.287 47.2461 25.4297 47.2461C28.5864 47.2461 31.5849 46.5774 34.2837 45.3597L34.375 45.7812C34.5117 46.4453 35.1172 46.8945 35.8203 46.875C36.4844 46.8555 37.3438 46.0742 37.168 45.1953L36.9008 43.9648C43.1078 40.1433 47.2266 33.2832 47.2266 25.4492C47.2266 13.3984 37.4805 3.65234 25.4297 3.65234C13.3789 3.65234 3.63281 13.3984 3.63281 25.4492Z" fill="black" fill-opacity="0.85"/>
  <path d="M23.9844 13.9844L19.3359 28.0664L31.5625 28.0664L26.9141 13.9844C26.4258 12.5391 24.4727 12.5391 23.9844 13.9844ZM35.8203 46.875C36.4844 46.8555 37.3438 46.0742 37.168 45.1953L33.5938 28.7305C33.3594 27.5977 32.4219 26.7578 31.3281 26.7578L19.5703 26.7578C18.4766 26.7578 17.5586 27.5977 17.3047 28.7109L13.75 45.1953C13.5742 45.957 14.1016 46.6992 14.8438 46.8555C15.625 46.9922 16.3672 46.5234 16.5234 45.7812L20.0781 29.375L19.7266 29.5898L31.1719 29.5898L30.8203 29.375L34.375 45.7812C34.5117 46.4453 35.1172 46.8945 35.8203 46.875Z" fill="black" fill-opacity="0.85"/>
 </g>
</svg>
