<?xml version="1.0" encoding="UTF-8"?>
<!--Generator: Apple Native CoreSVG 326-->
<!DOCTYPE svg
PUBLIC "-//W3C//DTD SVG 1.1//EN"
       "http://www.w3.org/Graphics/SVG/1.1/DTD/svg11.dtd">
<svg version="1.1" xmlns="http://www.w3.org/2000/svg" xmlns:xlink="http://www.w3.org/1999/xlink" viewBox="0 0 38.0469 45.5273">
 <g>
  <rect height="45.5273" opacity="0" width="38.0469" x="0" y="0"/>
  <path d="M7.03125 45.4492C8.26172 45.4492 9.14062 44.5312 9.14062 43.3008L9.14062 28.0859L18.9062 28.0859C27.6367 28.0859 33.5547 22.3633 33.5547 14.0234C33.5547 5.56641 27.5586 0 18.9453 0L7.01172 0C5.76172 0 4.88281 0.917969 4.88281 2.20703L4.88281 43.3008C4.88281 44.5312 5.80078 45.4492 7.03125 45.4492ZM9.14062 24.4141L9.14062 3.69141L17.9688 3.69141C24.8047 3.69141 29.1797 7.36328 29.1797 14.0234C29.1797 20.7812 24.7656 24.4141 17.9688 24.4141ZM0 13.7695C0 14.5898 0.625 15.1953 1.44531 15.1953L36.2305 15.1953C37.0508 15.1953 37.6758 14.5703 37.6758 13.7695C37.6758 12.9492 37.0508 12.3438 36.2305 12.3438L1.44531 12.3438C0.625 12.3438 0 12.9492 0 13.7695Z" fill="black" fill-opacity="0.85"/>
 </g>
</svg>
