<?xml version="1.0" encoding="UTF-8"?>
<!--Generator: Apple Native CoreSVG 326-->
<!DOCTYPE svg
PUBLIC "-//W3C//DTD SVG 1.1//EN"
       "http://www.w3.org/Graphics/SVG/1.1/DTD/svg11.dtd">
<svg version="1.1" xmlns="http://www.w3.org/2000/svg" xmlns:xlink="http://www.w3.org/1999/xlink" viewBox="0 0 51.25 50.918">
 <g>
  <rect height="50.918" opacity="0" width="51.25" x="0" y="0"/>
  <path d="M25.4297 50.8789C39.4727 50.8789 50.8789 39.4922 50.8789 25.4492C50.8789 11.4062 39.4727 0 25.4297 0C11.3867 0 0 11.4062 0 25.4492C0 39.4922 11.3867 50.8789 25.4297 50.8789ZM25.4297 47.2461C13.3789 47.2461 3.63281 37.5 3.63281 25.4492C3.63281 13.3984 13.3789 3.65234 25.4297 3.65234C37.4805 3.65234 47.2266 13.3984 47.2266 25.4492C47.2266 37.5 37.4805 47.2461 25.4297 47.2461Z" fill="black" fill-opacity="0.85"/>
  <path d="M17.6953 33.2617C21.7969 37.3633 26.7383 40.5273 30.7031 40.5273C32.5781 40.5273 34.1797 39.7852 35.2539 38.5938C36.2891 37.4414 36.6211 36.6016 36.6211 35.8203C36.6211 35.2344 36.2695 34.6875 35.332 34.043L31.9336 31.582C31.0547 30.957 30.6836 30.8789 30.1758 30.8789C29.7461 30.8789 29.3945 30.9375 28.6523 31.3477L26.4062 32.5781C26.1523 32.7148 26.0352 32.7539 25.8398 32.7539C25.5859 32.7539 25.4102 32.6953 25.1367 32.5781C24.043 32.0703 22.5586 30.918 21.2305 29.5703C19.9219 28.2617 18.8867 26.9141 18.3203 25.8398C18.2617 25.6836 18.1836 25.4688 18.1836 25.2344C18.1836 25.0586 18.2812 24.9023 18.3789 24.707L19.6875 22.4609C20.0586 21.8555 20.1758 21.5234 20.1758 21.0352C20.1758 20.4883 20 19.9023 19.4531 19.1602L17.0898 15.8789C16.4453 14.9219 15.918 14.3555 15.1562 14.3555C14.2188 14.3555 13.1055 15.0977 12.2852 15.8789C11.1133 16.9922 10.5078 18.5547 10.5078 20.3125C10.5078 24.2969 13.5742 29.1406 17.6953 33.2617ZM26.7188 25.5859C27.0117 25.5859 27.3242 25.4883 27.5195 25.3125L34.082 18.7305L35.7617 16.8945L35.625 20.4492L35.625 22.9492C35.625 23.5742 36.0742 24.082 36.7188 24.1406C37.3828 24.1602 37.9102 23.6133 37.9102 22.9492L37.9102 14.4531C37.9102 13.6719 37.4805 13.2031 36.6992 13.2031L28.125 13.2031C27.4609 13.2031 26.9141 13.7695 26.9531 14.4336C26.9727 15.0586 27.4609 15.5273 28.125 15.5273L30.7422 15.5273L34.2383 15.3711L32.4414 17.0703L25.8984 23.5938C25.625 23.8672 25.5273 24.1602 25.5273 24.4922C25.5273 25.1562 26.0352 25.5859 26.7188 25.5859Z" fill="black" fill-opacity="0.85"/>
 </g>
</svg>
