<?xml version="1.0" encoding="UTF-8"?>
<!--Generator: Apple Native CoreSVG 326-->
<!DOCTYPE svg
PUBLIC "-//W3C//DTD SVG 1.1//EN"
       "http://www.w3.org/Graphics/SVG/1.1/DTD/svg11.dtd">
<svg version="1.1" xmlns="http://www.w3.org/2000/svg" xmlns:xlink="http://www.w3.org/1999/xlink" viewBox="0 0 69.4336 56.4258">
 <g>
  <rect height="56.4258" opacity="0" width="69.4336" x="0" y="0"/>
  <path d="M52.1875 7.40234L52.8671 11.25L23.9062 11.25C17.1484 11.25 13.2031 15.1562 13.2031 21.875L13.2031 45.7812C13.2031 45.8216 13.2033 45.8618 13.2075 45.899C9.83267 45.6906 7.80085 43.5892 7.10938 39.6289L2.94922 16.0938C2.08984 11.1719 4.16016 8.24219 9.14062 7.36328L43.3984 1.32812C48.3594 0.449219 51.3281 2.51953 52.1875 7.40234Z" fill="black" fill-opacity="0.85"/>
  <path d="M33.2422 34.1797C30.2734 34.1797 27.8711 31.7383 27.8711 28.7695C27.8711 25.8398 30.2734 23.3789 33.2422 23.3789C36.1914 23.3789 38.6133 25.8398 38.6133 28.7695C38.6133 31.7383 36.1914 34.1797 33.2422 34.1797ZM23.1836 50.2539C20.7422 50.2539 19.2773 48.7695 19.2773 46.3281L19.2773 45.4102L25.957 39.375C26.9141 38.5156 27.8711 38.0859 28.9062 38.0859C30.0391 38.0859 31.0547 38.5156 31.9922 39.3945L36.0742 43.0859L46.3086 34.0234C47.4023 33.0859 48.4961 32.6367 49.8047 32.6367C51.0938 32.6367 52.2656 33.1055 53.3008 34.0625L63.3594 43.3789L63.3594 46.3477C63.3594 48.7891 61.8555 50.2539 59.4727 50.2539ZM23.9062 53.3008L58.7109 53.3008C63.75 53.3008 66.3086 50.7422 66.3086 45.7812L66.3086 21.875C66.3086 16.9141 63.75 14.3555 58.7109 14.3555L23.9062 14.3555C18.8672 14.3555 16.3086 16.8945 16.3086 21.875L16.3086 45.7812C16.3086 50.7812 18.8672 53.3008 23.9062 53.3008Z" fill="black" fill-opacity="0.85"/>
 </g>
</svg>
