<?xml version="1.0" encoding="UTF-8"?>
<!--Generator: Apple Native CoreSVG 326-->
<!DOCTYPE svg
PUBLIC "-//W3C//DTD SVG 1.1//EN"
       "http://www.w3.org/Graphics/SVG/1.1/DTD/svg11.dtd">
<svg version="1.1" xmlns="http://www.w3.org/2000/svg" xmlns:xlink="http://www.w3.org/1999/xlink" viewBox="0 0 49.5699 49.2628">
 <g>
  <rect height="49.2628" opacity="0" width="49.5699" x="0" y="0"/>
  <path d="M3.80838 45.4029C9.04276 50.6177 16.5037 50.5591 22.3435 44.7193L44.7264 22.3365C50.5467 16.4966 50.6053 9.05522 45.3709 3.80132C40.156-1.41353 32.6951-1.3354 26.8748 4.48491L4.49198 26.8482C-1.34787 32.688-1.40646 40.149 3.80838 45.4029ZM6.09354 43.1177C2.16776 39.231 2.63651 33.6451 6.95292 29.3091L29.2967 6.94585C33.574 2.64897 39.1599 2.19976 43.1053 6.08647C47.0506 9.97319 46.6209 15.5396 42.2459 19.9146L19.9021 42.2583C15.6443 46.5357 10.0389 47.0044 6.09354 43.1177ZM15.9373 18.2154L31.0349 33.313L33.3396 31.0279L18.2224 15.9302Z" fill="black" fill-opacity="0.85"/>
 </g>
</svg>
