<?xml version="1.0" encoding="UTF-8"?>
<!--Generator: Apple Native CoreSVG 326-->
<!DOCTYPE svg
PUBLIC "-//W3C//DTD SVG 1.1//EN"
       "http://www.w3.org/Graphics/SVG/1.1/DTD/svg11.dtd">
<svg version="1.1" xmlns="http://www.w3.org/2000/svg" xmlns:xlink="http://www.w3.org/1999/xlink" viewBox="0 0 38.5352 59.8633">
 <g>
  <rect height="59.8633" opacity="0" width="38.5352" x="0" y="0"/>
  <path d="M19.082 59.8633C19.6484 59.8633 21.0352 56.9727 21.0352 53.5742L21.0352 39.082L17.1289 39.082L17.1289 53.5742C17.1289 56.9727 18.5352 59.8633 19.082 59.8633ZM3.4375 40.8203L34.7461 40.8203C36.8359 40.8203 38.1641 39.5312 38.1641 37.5977C38.1641 30.2148 30.1172 22.9492 19.082 22.9492C8.06641 22.9492 0 30.2148 0 37.5977C0 39.5312 1.34766 40.8203 3.4375 40.8203ZM4.21875 37.5586C3.63281 37.5586 3.33984 37.2266 3.41797 36.543C3.84766 31.543 10 26.1133 19.082 26.1133C28.1836 26.1133 34.3164 31.543 34.7461 36.543C34.8242 37.2266 34.5312 37.5586 33.9453 37.5586ZM3.39844 4.23828C3.39844 4.92188 3.69141 5.70312 4.27734 6.50391C5.56641 8.26172 8.63281 10.625 11.6211 12.5781L10.7227 25.7617L14.1602 25.7617L15.0586 11.0547C15.0977 10.7031 15.0391 10.5859 14.8242 10.4688C11.2109 8.59375 8.04688 6.03516 7.89062 5.37109C7.73438 5.03906 7.92969 4.82422 8.24219 4.82422L29.9219 4.82422C30.2344 4.82422 30.4297 5.03906 30.2734 5.37109C30.1172 6.03516 26.9531 8.59375 23.3398 10.4688C23.125 10.5859 23.0664 10.7031 23.1055 11.0547L24.0234 25.7617L27.4609 25.7617L26.543 12.5781C29.5312 10.625 32.5977 8.26172 33.8867 6.50391C34.4922 5.70312 34.7656 4.92188 34.7656 4.23828C34.7656 2.8125 33.6914 1.75781 32.0312 1.75781L6.15234 1.75781C4.49219 1.75781 3.39844 2.8125 3.39844 4.23828Z" fill="black" fill-opacity="0.85"/>
 </g>
</svg>
