<?xml version="1.0" encoding="UTF-8"?>
<!--Generator: Apple Native CoreSVG 326-->
<!DOCTYPE svg
PUBLIC "-//W3C//DTD SVG 1.1//EN"
       "http://www.w3.org/Graphics/SVG/1.1/DTD/svg11.dtd">
<svg version="1.1" xmlns="http://www.w3.org/2000/svg" xmlns:xlink="http://www.w3.org/1999/xlink" viewBox="0 0 67.6123 34.7461">
 <g>
  <rect height="34.7461" opacity="0" width="67.6123" x="0" y="0"/>
  <path d="M56.4429 3.51562L65.5444 13.4375C67.8101 15.8203 67.7905 18.7109 65.564 21.1133L56.4624 31.1719C54.5093 33.2617 52.3218 34.707 49.4702 34.707L17.771 34.707C14.9194 34.707 12.7319 33.2617 10.7788 31.1719L1.65772 21.1133C-0.549308 18.7109-0.56884 15.8203 1.69679 13.4375L10.7983 3.51562C12.9273 1.28906 14.7437 0 17.771 0L49.4702 0C52.4976 0 54.2944 1.28906 56.4429 3.51562ZM29.1382 21.875C29.1382 24.3555 31.1694 26.3867 33.6304 26.3867C36.1108 26.3867 38.1421 24.3555 38.1421 21.875C38.1421 19.3945 36.1108 17.3438 33.6304 17.3438C31.1694 17.3438 29.1382 19.3945 29.1382 21.875ZM11.7944 17.2852C11.7944 19.7461 13.8257 21.7969 16.3062 21.7969C18.7671 21.7969 20.8179 19.7461 20.8179 17.2852C20.8179 14.8047 18.7671 12.7734 16.3062 12.7734C13.8257 12.7734 11.7944 14.8047 11.7944 17.2852ZM46.4624 17.2852C46.4624 19.7461 48.4937 21.7969 50.9741 21.7969C53.4546 21.7969 55.4858 19.7461 55.4858 17.2852C55.4858 14.8047 53.4546 12.7734 50.9741 12.7734C48.4937 12.7734 46.4624 14.8047 46.4624 17.2852Z" fill="black" fill-opacity="0.85"/>
 </g>
</svg>
