<?xml version="1.0" encoding="UTF-8"?>
<!--Generator: Apple Native CoreSVG 326-->
<!DOCTYPE svg
PUBLIC "-//W3C//DTD SVG 1.1//EN"
       "http://www.w3.org/Graphics/SVG/1.1/DTD/svg11.dtd">
<svg version="1.1" xmlns="http://www.w3.org/2000/svg" xmlns:xlink="http://www.w3.org/1999/xlink" viewBox="0 0 47.9297 45.957">
 <g>
  <rect height="45.957" opacity="0" width="47.9297" x="0" y="0"/>
  <path d="M7.59766 45.957L39.9609 45.957C45.0195 45.957 47.5586 43.418 47.5586 38.4375L47.5586 7.57812C47.5586 2.59766 45.0195 0.0585938 39.9609 0.0585938L7.59766 0.0585938C2.55859 0.0585938 0 2.57812 0 7.57812L0 38.4375C0 43.4375 2.55859 45.957 7.59766 45.957ZM7.67578 42.5C4.94141 42.5 3.45703 41.0547 3.45703 38.2617L3.45703 7.75391C3.45703 4.96094 4.94141 3.51562 7.67578 3.51562L39.9023 3.51562C42.5781 3.51562 44.1016 4.96094 44.1016 7.75391L44.1016 38.2617C44.1016 41.0547 42.5781 42.5 39.9023 42.5Z" fill="black" fill-opacity="0.85"/>
  <path d="M23.7891 19.8047C26.3086 19.8047 28.3594 17.7734 28.3594 15.2344C28.3594 12.6953 26.3086 10.6641 23.7891 10.6641C21.25 10.6641 19.1992 12.6953 19.1992 15.2344C19.1992 17.7734 21.25 19.8047 23.7891 19.8047ZM15.0977 35.293C17.1094 35.293 18.75 33.6523 18.75 31.6211C18.75 29.6289 17.1094 27.9688 15.0977 27.9688C13.0859 27.9688 11.4258 29.6289 11.4258 31.6211C11.4258 33.6523 13.0859 35.293 15.0977 35.293ZM32.4805 35.293C34.4922 35.293 36.1328 33.6523 36.1328 31.6211C36.1328 29.6289 34.4922 27.9688 32.4805 27.9688C30.4492 27.9688 28.8086 29.6289 28.8086 31.6211C28.8086 33.6523 30.4492 35.293 32.4805 35.293Z" fill="black" fill-opacity="0.85"/>
 </g>
</svg>
