<?xml version="1.0" encoding="UTF-8"?>
<!--Generator: Apple Native CoreSVG 326-->
<!DOCTYPE svg
PUBLIC "-//W3C//DTD SVG 1.1//EN"
       "http://www.w3.org/Graphics/SVG/1.1/DTD/svg11.dtd">
<svg version="1.1" xmlns="http://www.w3.org/2000/svg" xmlns:xlink="http://www.w3.org/1999/xlink" viewBox="0 0 27.4023 54.1992">
 <g>
  <rect height="54.1992" opacity="0" width="27.4023" x="0" y="0"/>
  <path d="M7.36328 54.1992L19.668 54.1992C24.4336 54.1992 27.0312 51.6211 27.0312 46.9141L27.0312 7.30469C27.0312 2.57812 24.4336 0.0195312 19.668 0.0195312L7.36328 0.0195312C2.59766 0.0195312 0 2.57812 0 7.30469L0 46.9141C0 51.6211 2.59766 54.1992 7.36328 54.1992ZM7.42188 50.7422C4.96094 50.7422 3.45703 49.2578 3.45703 46.7383L3.45703 7.48047C3.45703 4.96094 4.96094 3.47656 7.42188 3.47656L19.6094 3.47656C22.0508 3.47656 23.5742 4.96094 23.5742 7.48047L23.5742 46.7383C23.5742 49.2578 22.0508 50.7422 19.6094 50.7422Z" fill="black" fill-opacity="0.85"/>
  <path d="M13.5352 16.9727C15.5469 16.9727 17.1875 15.332 17.1875 13.3008C17.1875 11.2891 15.5469 9.64844 13.5352 9.64844C11.5039 9.64844 9.86328 11.2891 9.86328 13.3008C9.86328 15.332 11.5039 16.9727 13.5352 16.9727ZM13.5352 30.7617C15.5469 30.7617 17.1875 29.1016 17.1875 27.0898C17.1875 25.0781 15.5469 23.4375 13.5352 23.4375C11.5039 23.4375 9.86328 25.0781 9.86328 27.0898C9.86328 29.1016 11.5039 30.7617 13.5352 30.7617ZM13.5352 44.5312C15.5469 44.5312 17.1875 42.8906 17.1875 40.8594C17.1875 38.8672 15.5469 37.207 13.5352 37.207C11.5039 37.207 9.86328 38.8672 9.86328 40.8594C9.86328 42.8906 11.5039 44.5312 13.5352 44.5312Z" fill="black" fill-opacity="0.85"/>
 </g>
</svg>
