<?xml version="1.0" encoding="UTF-8"?>
<!--Generator: Apple Native CoreSVG 326-->
<!DOCTYPE svg
PUBLIC "-//W3C//DTD SVG 1.1//EN"
       "http://www.w3.org/Graphics/SVG/1.1/DTD/svg11.dtd">
<svg version="1.1" xmlns="http://www.w3.org/2000/svg" xmlns:xlink="http://www.w3.org/1999/xlink" viewBox="0 0 46.2891 45.918">
 <g>
  <rect height="45.918" opacity="0" width="46.2891" x="0" y="0"/>
  <path d="M45.918 7.53906L45.918 38.3984C45.918 43.3594 43.3594 45.918 38.3008 45.918L7.59766 45.918C2.55859 45.918 0 43.3984 0 38.3984L0 7.53906C0 2.53906 2.55859 0 7.59766 0L38.3008 0C43.3594 0 45.918 2.55859 45.918 7.53906ZM11.9727 22.7344C11.9727 29.9609 16.4453 34.9805 22.9688 34.9805C24.4922 34.9805 25.8984 34.707 27.168 34.1992L29.0625 36.7773C29.5117 37.3633 29.9219 37.5977 30.4688 37.5977C31.2695 37.5977 31.8164 37.0312 31.8164 36.25C31.8164 35.8594 31.6992 35.5664 31.2695 35.0195L29.6094 32.7539C32.3242 30.6445 33.9648 27.1094 33.9648 22.7344C33.9648 15.5273 29.4922 10.5273 22.9688 10.5273C16.4453 10.5273 11.9727 15.5273 11.9727 22.7344ZM30.3906 22.7344C30.3906 25.9766 29.4336 28.5742 27.6953 30.1758L25.9766 27.8516C25.625 27.3828 25.2734 27.207 24.7461 27.207C24.0039 27.207 23.3984 27.7539 23.3984 28.4961C23.3984 28.8672 23.5156 29.2188 23.8477 29.6289L25.3516 31.7383C24.6484 31.9922 23.8672 32.1289 22.9688 32.1289C18.4961 32.1289 15.5469 28.418 15.5469 22.7344C15.5469 17.1094 18.4961 13.3984 22.9688 13.3984C27.4414 13.3984 30.3906 17.1094 30.3906 22.7344Z" fill="black" fill-opacity="0.85"/>
 </g>
</svg>
