<?xml version="1.0" encoding="UTF-8"?>
<!--Generator: Apple Native CoreSVG 326-->
<!DOCTYPE svg
PUBLIC "-//W3C//DTD SVG 1.1//EN"
       "http://www.w3.org/Graphics/SVG/1.1/DTD/svg11.dtd">
<svg version="1.1" xmlns="http://www.w3.org/2000/svg" xmlns:xlink="http://www.w3.org/1999/xlink" viewBox="0 0 55.3906 54.7852">
 <g>
  <rect height="54.7852" opacity="0" width="55.3906" x="0" y="0"/>
  <path d="M55.0195 14.2969L55.0195 34.2188C55.0195 41.1719 51.0742 45.1953 44.0039 45.1953L26.0547 45.1953L16.9336 53.418C15.9375 54.3359 15.293 54.7852 14.4336 54.7852C13.1836 54.7852 12.4609 53.8867 12.4609 52.5195L12.4609 45.1953L11.0156 45.1953C3.92578 45.1953 0 41.2109 0 34.2188L0 14.2969C0 7.30469 3.92578 3.28125 11.0156 3.28125L44.0039 3.28125C51.0742 3.28125 55.0195 7.32422 55.0195 14.2969ZM24.4141 34.5703C24.4141 35.918 25.5859 37.0312 26.9727 37.0312C28.3398 37.0312 29.5312 35.9375 29.5312 34.5703C29.5312 33.1836 28.3594 32.0898 26.9727 32.0898C25.5664 32.0898 24.4141 33.2031 24.4141 34.5703ZM19.9609 15.9375C19.8633 16.3281 19.7852 16.7188 19.7852 17.1484C19.7852 18.1445 20.5664 18.7109 21.3281 18.7109C22.1094 18.7109 22.6172 18.3203 22.9883 17.7539L23.3594 17.207C24.082 15.5273 25.6055 14.3945 27.6172 14.3945C30.1367 14.3945 31.7773 15.8008 31.7773 17.8516C31.7773 19.6094 30.7422 20.5273 28.418 22.1484C26.5039 23.4961 25.2344 24.8438 25.2344 27.2852C25.2344 27.4414 25.2344 27.5977 25.2344 27.7539C25.2344 28.9258 25.8789 29.5312 27.0117 29.5312C28.125 29.5312 28.8086 28.8281 28.8086 27.9102C28.8086 27.7734 28.8086 27.6172 28.8086 27.4805C28.8086 25.9766 29.6289 25.0586 31.4844 23.8086C34.043 22.1094 35.6641 20.6055 35.6641 17.6758C35.6641 13.6328 32.0508 11.3281 27.7539 11.3281C23.418 11.3281 20.5859 13.4961 19.9609 15.9375Z" fill="black" fill-opacity="0.85"/>
 </g>
</svg>
