<?xml version="1.0" encoding="UTF-8"?>
<!--Generator: Apple Native CoreSVG 326-->
<!DOCTYPE svg
PUBLIC "-//W3C//DTD SVG 1.1//EN"
       "http://www.w3.org/Graphics/SVG/1.1/DTD/svg11.dtd">
<svg version="1.1" xmlns="http://www.w3.org/2000/svg" xmlns:xlink="http://www.w3.org/1999/xlink" viewBox="0 0 66.3477 47.9883">
 <g>
  <rect height="47.9883" opacity="0" width="66.3477" x="0" y="0"/>
  <path d="M12.1875 34.4531C13.6328 34.4531 14.3359 33.457 14.3359 32.0898C14.3359 31.6602 14.3359 31.2305 14.3359 30.8203C14.375 27.3633 15.5664 25.8398 19.707 22.9688C24.1992 19.8633 26.7383 16.6016 26.7383 11.8945C26.7383 4.57031 20.8008 0.136719 13.3008 0.136719C7.57812 0.136719 2.67578 3.04688 0.683594 7.94922C0.195312 9.10156 0 10.1758 0 11.0547C0 12.2656 0.703125 13.1055 1.97266 13.1055C3.06641 13.1055 3.78906 12.4609 4.10156 11.3867C5.27344 6.38672 8.71094 4.08203 13.1641 4.08203C18.3203 4.08203 22.3828 7.16797 22.3828 11.875C22.3828 15.4688 20.2344 17.6367 16.6992 20.1758C12.5586 23.1055 9.98047 25.8984 9.98047 30.293C9.98047 30.918 9.98047 31.5234 9.98047 32.1484C9.98047 33.5156 10.7227 34.4531 12.1875 34.4531ZM12.207 47.9883C13.9648 47.9883 15.3516 46.5625 15.3516 44.8438C15.3516 43.0859 13.9648 41.6992 12.207 41.6992C10.4883 41.6992 9.0625 43.0859 9.0625 44.8438C9.0625 46.5625 10.4883 47.9883 12.207 47.9883Z" fill="black" fill-opacity="0.85"/>
  <path d="M65.9766 23.9453C65.9766 18.457 61.582 14.0625 56.1133 14.0625C51.9922 14.0625 48.3789 16.5039 46.875 20.332L31.9336 20.332C31.5234 20.332 31.1914 20.4492 30.8789 20.7617L28.3203 23.3008C27.9883 23.6328 27.9492 24.2188 28.3203 24.6094L33.125 29.4531C33.4961 29.8242 34.0625 29.8047 34.4336 29.4531L37.2852 26.5625L41.2891 30.5664C41.6406 30.918 42.1875 30.918 42.5977 30.5273L46.5234 26.6211C48.4375 31.25 51.9336 33.8477 56.1133 33.8477C61.543 33.8477 65.9766 29.4141 65.9766 23.9453ZM56.8164 24.3555C56.8164 22.8125 58.0469 21.5625 59.5898 21.5625C61.1328 21.5625 62.3828 22.793 62.3828 24.3555C62.3828 25.8789 61.1133 27.1289 59.5898 27.1289C58.0469 27.1289 56.8164 25.8789 56.8164 24.3555Z" fill="black" fill-opacity="0.85"/>
 </g>
</svg>
