<?xml version="1.0" encoding="UTF-8"?>
<!--Generator: Apple Native CoreSVG 326-->
<!DOCTYPE svg
PUBLIC "-//W3C//DTD SVG 1.1//EN"
       "http://www.w3.org/Graphics/SVG/1.1/DTD/svg11.dtd">
<svg version="1.1" xmlns="http://www.w3.org/2000/svg" xmlns:xlink="http://www.w3.org/1999/xlink" viewBox="0 0 57.6367 43.3008">
 <g>
  <rect height="43.3008" opacity="0" width="57.6367" x="0" y="0"/>
  <path d="M57.2656 7.34375L57.2656 23.2812C57.2656 36.6406 51.0742 43.2617 36.7773 43.2617L20.4883 43.2617C6.21094 43.2617 0 36.6406 0 23.2812L0 7.34375C0 2.5 2.51953 0 7.42188 0L49.8633 0C54.7461 0 57.2656 2.51953 57.2656 7.34375ZM23.0078 10.8398C21.875 10.8398 21.2305 11.6992 21.2305 12.8516L21.2305 30.1953C21.2305 31.3477 21.8945 32.1289 23.0273 32.1289C24.1992 32.1289 24.9023 31.3672 24.9023 30.1953L24.9023 24.2969L29.0234 24.2969L32.9688 30.9961C33.457 31.8164 33.9844 32.1289 34.7656 32.1289C35.7812 32.1289 36.5039 31.4648 36.5039 30.5664C36.5039 30.1172 36.3477 29.6875 36.0547 29.2578L32.5977 23.75C35.1953 22.832 36.9336 20.4492 36.9336 17.6172C36.9336 13.5547 33.9648 10.8398 29.4336 10.8398ZM33.3398 17.6758C33.3398 20.1172 31.7188 21.4258 29.0625 21.4258L24.9023 21.4258L24.9023 13.7891L29.1211 13.7891C31.6602 13.7891 33.3398 15.2344 33.3398 17.6758Z" fill="black" fill-opacity="0.85"/>
 </g>
</svg>
