<?xml version="1.0" encoding="UTF-8"?>
<!--Generator: Apple Native CoreSVG 326-->
<!DOCTYPE svg
PUBLIC "-//W3C//DTD SVG 1.1//EN"
       "http://www.w3.org/Graphics/SVG/1.1/DTD/svg11.dtd">
<svg version="1.1" xmlns="http://www.w3.org/2000/svg" xmlns:xlink="http://www.w3.org/1999/xlink" viewBox="0 0 57.6367 43.3008">
 <g>
  <rect height="43.3008" opacity="0" width="57.6367" x="0" y="0"/>
  <path d="M57.2656 7.34375L57.2656 23.2812C57.2656 36.6406 51.0742 43.2617 36.7773 43.2617L20.4883 43.2617C6.21094 43.2617 0 36.6406 0 23.2812L0 7.34375C0 2.5 2.51953 0 7.42188 0L49.8633 0C54.7461 0 57.2656 2.51953 57.2656 7.34375ZM18.9453 11.5234C17.9102 11.5234 17.3242 12.1484 17.3242 13.1836L17.3242 30.3711C17.3242 31.3867 17.9297 32.0703 18.9844 32.0703C19.9414 32.0703 20.5469 31.4062 20.5469 30.3711L20.5469 23.8281L23.2422 23.8281L26.0742 30.7812C26.3672 31.6016 26.875 32.0703 27.7539 32.0703C28.4961 32.0703 29.2578 31.6016 29.2578 30.5273C29.2578 30.2539 29.1406 29.8242 28.9062 29.3555L26.3086 23.1445C28.3203 22.1875 29.3164 20.0781 29.3164 17.6562C29.3164 13.7305 26.9922 11.5234 23.1445 11.5234ZM35.3516 12.1484L32.4219 14.4727C32.0312 14.7656 31.7578 15.1758 31.7578 15.7617C31.7578 16.4453 32.207 16.9336 32.8906 16.9336C33.2422 16.9336 33.457 16.8359 33.6914 16.6406L36.1914 14.6484L36.1914 30.4102C36.1914 31.3086 36.9141 32.0312 37.793 32.0312C38.6719 32.0312 39.3945 31.3086 39.3945 30.4102L39.3945 13.0273C39.3945 11.8945 38.6914 11.2305 37.5586 11.2305C36.6211 11.2305 35.8789 11.7383 35.3516 12.1484ZM26.0547 17.7539C26.0547 19.8633 25.0781 21.4258 22.8711 21.4258L20.5469 21.4258L20.5469 14.1211L22.8516 14.1211C24.9023 14.1211 26.0547 15.5469 26.0547 17.7539Z" fill="black" fill-opacity="0.85"/>
 </g>
</svg>
