<?xml version="1.0" encoding="UTF-8"?>
<!--Generator: Apple Native CoreSVG 326-->
<!DOCTYPE svg
PUBLIC "-//W3C//DTD SVG 1.1//EN"
       "http://www.w3.org/Graphics/SVG/1.1/DTD/svg11.dtd">
<svg version="1.1" xmlns="http://www.w3.org/2000/svg" xmlns:xlink="http://www.w3.org/1999/xlink" viewBox="0 0 64.7461 44.5953">
 <g>
  <rect height="44.5953" opacity="0" width="64.7461" x="0" y="0"/>
  <path d="M57.1094 2.17068C61.5234 2.17068 64.375 5.08083 64.375 9.51443L64.375 25.1785C64.375 31.5652 61.6992 35.3738 55.1367 37.3074L33.3398 43.6746C27.6172 45.3543 24.043 44.6902 18.9062 42.0535L4.72656 34.7683C0.800781 32.7566 0 30.4324 0 25.1785L0 9.4363C0 5.04177 2.87109 2.15115 7.32422 2.15115ZM33.9453 13.9285C33.8086 14.4363 33.7695 14.8855 33.7695 15.2957C33.7695 16.0574 34.2578 16.6629 35.1562 16.6629C35.957 16.6629 36.3867 16.3308 36.6211 15.5301C36.9922 13.909 37.8906 12.7957 39.4922 12.7957C41.3086 12.7957 42.207 14.2215 42.207 16.0379C42.207 18.0105 41.0742 19.4949 39.043 19.4949L38.3008 19.4949C37.5195 19.4949 37.0312 20.0027 37.0312 20.7254C37.0312 21.4871 37.5586 21.9558 38.3008 21.9558L39.082 21.9558C41.3672 21.9558 42.6953 23.2058 42.6953 25.6082C42.6953 27.5222 41.6797 29.1824 39.6094 29.1824C37.6172 29.1824 36.6602 27.7957 36.3477 26.4871C36.1328 25.7058 35.6641 25.3152 34.9023 25.3152C34.0234 25.3152 33.418 25.8621 33.418 26.7605C33.418 27.1902 33.4961 27.6785 33.6328 28.1082C34.375 30.4715 36.8359 31.8582 39.5898 31.8582C43.1836 31.8582 45.918 29.5144 45.918 25.7058C45.918 22.6004 44.1211 20.8816 41.8359 20.6668L41.8359 20.5691C44.1797 19.9636 45.3125 17.8543 45.3125 15.6863C45.3125 12.2097 42.793 10.1394 39.4922 10.1394C36.8359 10.1394 34.6875 11.6433 33.9453 13.9285ZM19.707 10.5301C18.6328 10.5301 18.0469 11.1746 18.0469 12.2488L18.0469 29.9832C18.0469 31.0379 18.6719 31.7215 19.7461 31.7215C20.7422 31.7215 21.3672 31.0574 21.3672 29.9832L21.3672 23.2254L24.1602 23.2254L27.0703 30.3933C27.3828 31.2527 27.8906 31.7215 28.7891 31.7215C29.5703 31.7215 30.3516 31.2527 30.3516 30.1394C30.3516 29.866 30.2148 29.4168 30 28.9285L27.3047 22.5222C29.375 21.5261 30.4102 19.3582 30.4102 16.8582C30.4102 12.8152 28.0078 10.5301 24.043 10.5301ZM27.0508 16.9558C27.0508 19.1238 26.0352 20.7449 23.7695 20.7449L21.3672 20.7449L21.3672 13.2058L23.75 13.2058C25.8594 13.2058 27.0508 14.6902 27.0508 16.9558Z" fill="black" fill-opacity="0.85"/>
 </g>
</svg>
