<?xml version="1.0" encoding="UTF-8"?>
<!--Generator: Apple Native CoreSVG 326-->
<!DOCTYPE svg
PUBLIC "-//W3C//DTD SVG 1.1//EN"
       "http://www.w3.org/Graphics/SVG/1.1/DTD/svg11.dtd">
<svg version="1.1" xmlns="http://www.w3.org/2000/svg" xmlns:xlink="http://www.w3.org/1999/xlink" viewBox="0 0 58.9258 44.5898">
 <g>
  <rect height="44.5898" opacity="0" width="58.9258" x="0" y="0"/>
  <path d="M19.1992 44.5508L39.3555 44.5508C53.6328 44.5508 58.5547 39.2188 58.5547 26.0742L58.5547 18.4766C58.5547 5.33203 53.6328 0 39.3555 0L19.1992 0C4.92188 0 0 5.33203 0 18.4766L0 26.0742C0 39.2188 4.92188 44.5508 19.1992 44.5508ZM19.1992 41.0938C7.22656 41.0938 3.45703 37.0703 3.45703 26.0742L3.45703 18.4766C3.45703 7.48047 7.22656 3.47656 19.1992 3.47656L39.3555 3.47656C51.3281 3.47656 55.0977 7.48047 55.0977 18.4766L55.0977 26.0742C55.0977 37.0703 51.3281 41.0938 39.3555 41.0938Z" fill="black" fill-opacity="0.85"/>
  <path d="M17.3633 32.7734C18.3398 32.7734 18.9453 32.1094 18.9453 31.0938L18.9453 24.4727L21.6797 24.4727L24.5312 31.4844C24.8438 32.3047 25.332 32.7734 26.1914 32.7734C26.9531 32.7734 27.7148 32.3047 27.7148 31.2109C27.7148 30.957 27.5781 30.5273 27.3828 30.0391L24.7266 23.7891C26.7578 22.8125 27.7734 20.7031 27.7734 18.2617C27.7734 14.3164 25.4297 12.0898 21.5625 12.0898L17.3242 12.0898C16.2891 12.0898 15.7227 12.7148 15.7227 13.75L15.7227 31.0938C15.7227 32.0898 16.3281 32.7734 17.3633 32.7734ZM18.9453 22.0508L18.9453 14.668L21.2695 14.668C23.3398 14.668 24.5117 16.1133 24.5117 18.3398C24.5117 20.4688 23.5156 22.0508 21.2891 22.0508ZM39.6484 32.7734C40.4688 32.7734 41.1523 32.2266 41.1523 31.1914L41.1523 28.2812L42.207 28.2812C43.0664 28.2812 43.4766 27.7344 43.4766 26.9727C43.4766 26.25 43.0859 25.7031 42.207 25.7031L41.1523 25.7031L41.1523 14.1602C41.1523 12.5977 40.1172 11.7773 38.7109 11.7773C37.168 11.7773 36.4258 12.5781 35.8008 13.9648L30.8984 24.3359C30.5273 25.1953 30.3906 25.7617 30.3906 26.4648C30.3906 27.5391 31.1328 28.2812 32.2461 28.2812L38.125 28.2812L38.125 31.1914C38.125 32.3438 38.9258 32.7734 39.6484 32.7734ZM38.1836 25.7617L33.125 25.7617L33.125 25.625L38.0859 14.668L38.1836 14.668Z" fill="black" fill-opacity="0.85"/>
 </g>
</svg>
