<?xml version="1.0" encoding="UTF-8"?>
<!--Generator: Apple Native CoreSVG 326-->
<!DOCTYPE svg
PUBLIC "-//W3C//DTD SVG 1.1//EN"
       "http://www.w3.org/Graphics/SVG/1.1/DTD/svg11.dtd">
<svg version="1.1" xmlns="http://www.w3.org/2000/svg" xmlns:xlink="http://www.w3.org/1999/xlink" viewBox="0 0 59.5508 68.2511">
 <g>
  <rect height="68.2511" opacity="0" width="59.5508" x="0" y="0"/>
  <path d="M46.9336 28.0025C44.7656 28.0416 43.0078 26.2642 43.0078 24.1353C43.0078 22.0064 44.7656 20.1705 46.9336 20.2095C49.1016 20.2486 50.8398 22.0064 50.8398 24.1353C50.8398 26.2642 49.1016 27.983 46.9336 28.0025ZM46.9336 39.4088C44.7656 39.4088 43.0078 37.6509 43.0078 35.483C43.0078 33.315 44.7656 31.5963 46.9336 31.5963C49.1016 31.5963 50.8398 33.315 50.8398 35.483C50.8398 37.6509 49.1016 39.4088 46.9336 39.4088ZM23.5156 23.1978C22.4805 23.1978 21.6602 22.3189 21.6602 21.2642C21.6602 20.2486 22.4805 19.3892 23.5156 19.3892C24.5508 19.3892 25.3711 20.2486 25.3711 21.2642C25.3711 22.3189 24.5508 23.1978 23.5156 23.1978ZM29.9219 24.9752C28.9258 24.9752 28.125 24.1158 28.125 23.1002C28.125 22.0455 28.9258 21.1861 29.9219 21.1861C31.0156 21.1861 31.7969 22.0455 31.7969 23.1002C31.7969 24.1158 31.0156 24.9752 29.9219 24.9752ZM34.7852 29.5259C33.7891 29.5259 32.9883 28.7056 32.9883 27.6705C32.9883 26.6158 33.7891 25.7564 34.7852 25.7564C35.8203 25.7564 36.6797 26.6158 36.6797 27.6705C36.6797 28.7056 35.8203 29.5259 34.7852 29.5259ZM36.4062 35.7369C35.3711 35.7369 34.5508 34.897 34.5508 33.8814C34.5508 32.8463 35.3711 32.0259 36.4062 32.0259C37.4219 32.0259 38.2422 32.8463 38.2422 33.8814C38.2422 34.897 37.4219 35.7369 36.4062 35.7369ZM34.7852 42.0064C33.7891 42.0064 32.9883 41.1275 32.9883 40.0728C32.9883 39.0377 33.7891 38.2173 34.7852 38.2173C35.8203 38.2173 36.6797 39.0377 36.6797 40.0728C36.6797 41.1275 35.8203 42.0064 34.7852 42.0064ZM29.9219 46.8111C28.9258 46.8111 28.125 45.9517 28.125 44.897C28.125 43.8814 28.9258 43.022 29.9219 43.022C31.0156 43.022 31.7969 43.8814 31.7969 44.897C31.7969 45.9517 31.0156 46.8111 29.9219 46.8111ZM23.5156 48.8423C22.4805 48.8423 21.6602 48.0025 21.6602 46.9673C21.6602 45.9127 22.4805 45.0533 23.5156 45.0533C24.5508 45.0533 25.3711 45.9127 25.3711 46.9673C25.3711 48.0025 24.5508 48.8423 23.5156 48.8423ZM17.0898 46.8111C16.0352 46.8111 15.2344 45.9517 15.2344 44.897C15.2344 43.8814 16.0352 43.022 17.0898 43.022C18.1055 43.022 18.9062 43.8814 18.9062 44.897C18.9062 45.9517 18.1055 46.8111 17.0898 46.8111ZM12.2266 42.0064C11.2109 42.0064 10.3516 41.1275 10.3516 40.0728C10.3516 39.0377 11.2109 38.2173 12.2266 38.2173C13.2422 38.2173 14.043 39.0377 14.043 40.0728C14.043 41.1275 13.2422 42.0064 12.2266 42.0064ZM10.625 35.7369C9.60938 35.7369 8.76953 34.897 8.76953 33.8814C8.76953 32.8463 9.60938 32.0259 10.625 32.0259C11.6406 32.0259 12.5 32.8463 12.5 33.8814C12.5 34.897 11.6406 35.7369 10.625 35.7369ZM12.2266 29.5259C11.2109 29.5259 10.3516 28.7056 10.3516 27.6705C10.3516 26.6158 11.2109 25.7564 12.2266 25.7564C13.2422 25.7564 14.043 26.6158 14.043 27.6705C14.043 28.7056 13.2422 29.5259 12.2266 29.5259ZM17.0898 24.9752C16.0352 24.9752 15.2344 24.1158 15.2344 23.1002C15.2344 22.0455 16.0352 21.1861 17.0898 21.1861C18.1055 21.1861 18.9062 22.0455 18.9062 23.1002C18.9062 24.1158 18.1055 24.9752 17.0898 24.9752ZM23.5156 29.7798C22.4805 29.7798 21.6602 28.9595 21.6602 27.9244C21.6602 26.8697 22.4805 25.9908 23.5156 25.9908C24.5508 25.9908 25.3711 26.8697 25.3711 27.9244C25.3711 28.9595 24.5508 29.7798 23.5156 29.7798ZM29.5508 32.3775C28.5547 32.3775 27.6758 31.5181 27.6758 30.522C27.6758 29.5064 28.5547 28.6275 29.5508 28.6275C30.5859 28.6275 31.3867 29.5064 31.3867 30.522C31.3867 31.5181 30.5859 32.3775 29.5508 32.3775ZM29.5508 39.6041C28.5547 39.6041 27.6758 38.7447 27.6758 37.7291C27.6758 36.6548 28.5547 35.8345 29.5508 35.8345C30.5859 35.8345 31.3867 36.6548 31.3867 37.7291C31.3867 38.7447 30.5859 39.6041 29.5508 39.6041ZM23.5156 42.2408C22.4805 42.2408 21.6602 41.3619 21.6602 40.3267C21.6602 39.2916 22.4805 38.4713 23.5156 38.4713C24.5508 38.4713 25.3711 39.2916 25.3711 40.3267C25.3711 41.3619 24.5508 42.2408 23.5156 42.2408ZM17.4609 39.6041C16.4453 39.6041 15.6445 38.7447 15.6445 37.7291C15.6445 36.6548 16.4453 35.8345 17.4609 35.8345C18.4961 35.8345 19.3555 36.6548 19.3555 37.7291C19.3555 38.7447 18.4961 39.6041 17.4609 39.6041ZM17.4609 32.3775C16.4453 32.3775 15.6445 31.5181 15.6445 30.522C15.6445 29.5064 16.4453 28.6275 17.4609 28.6275C18.4961 28.6275 19.3555 29.5064 19.3555 30.522C19.3555 31.5181 18.4961 32.3775 17.4609 32.3775ZM23.5156 35.9713C22.4805 35.9713 21.6602 35.1509 21.6602 34.1158C21.6602 33.1002 22.4805 32.2603 23.5156 32.2603C24.5508 32.2603 25.3711 33.1002 25.3711 34.1158C25.3711 35.1509 24.5508 35.9713 23.5156 35.9713ZM48.1641 14.6627L49.2188 11.3619L14.5117 0.0923444C13.6133-0.220156 12.6172 0.287657 12.3438 1.20563C12.0312 2.08453 12.5586 3.08063 13.4375 3.39313ZM7.59766 57.0845L51.5625 57.0845C56.6211 57.0845 59.1797 54.5259 59.1797 49.565L59.1797 18.7056C59.1797 13.7252 56.6211 11.1666 51.5625 11.1666L7.59766 11.1666C2.55859 11.1666 0 13.7056 0 18.7056L0 49.565C0 54.565 2.55859 57.0845 7.59766 57.0845Z" fill="black" fill-opacity="0.85"/>
 </g>
</svg>
