<?xml version="1.0" encoding="UTF-8"?>
<!--Generator: Apple Native CoreSVG 326-->
<!DOCTYPE svg
PUBLIC "-//W3C//DTD SVG 1.1//EN"
       "http://www.w3.org/Graphics/SVG/1.1/DTD/svg11.dtd">
<svg version="1.1" xmlns="http://www.w3.org/2000/svg" xmlns:xlink="http://www.w3.org/1999/xlink" viewBox="0 0 53.0912 63.7962">
 <g>
  <rect height="63.7962" opacity="0" width="53.0912" x="0" y="0"/>
  <path d="M38.5573 6.38053L39.7169 12.9626L36.2178 12.9626L35.1784 7.04459C34.6706 4.34928 33.0105 3.13834 30.237 3.62662L7.07295 7.70866C4.31905 8.21647 3.14717 9.93522 3.61592 12.611L9.63155 46.7321C10.0528 49.1019 11.4681 50.3673 13.7526 50.24L13.7526 53.7357C9.58598 54.0666 7.03649 51.9308 6.23311 47.3962L0.197952 13.1383C-0.680954 8.15787 1.36983 5.20866 6.2917 4.34928L29.8269 0.189124C34.7487-0.670251 37.6784 1.40006 38.5573 6.38053Z" fill="black" fill-opacity="0.85"/>
  <path d="M52.7175 20.5602C52.7175 15.5016 50.1784 12.9626 45.1784 12.9626L21.2917 12.9626C16.2917 12.9626 13.7526 15.5016 13.7526 20.5602L13.7526 55.3454C13.7526 60.3844 16.3112 62.9626 21.2917 62.9626L45.1784 62.9626C50.1589 62.9626 52.7175 60.3844 52.7175 55.3454ZM49.2409 20.6188L49.2409 55.2868C49.2409 57.9626 47.7956 59.486 45.0026 59.486L21.4675 59.486C18.6745 59.486 17.2292 57.9626 17.2292 55.2868L17.2292 20.6188C17.2292 17.904 18.6745 16.4196 21.4675 16.4196L45.0026 16.4196C47.7956 16.4196 49.2409 17.904 49.2409 20.6188Z" fill="black" fill-opacity="0.85"/>
 </g>
</svg>
