<?xml version="1.0" encoding="UTF-8"?>
<!--Generator: Apple Native CoreSVG 326-->
<!DOCTYPE svg
PUBLIC "-//W3C//DTD SVG 1.1//EN"
       "http://www.w3.org/Graphics/SVG/1.1/DTD/svg11.dtd">
<svg version="1.1" xmlns="http://www.w3.org/2000/svg" xmlns:xlink="http://www.w3.org/1999/xlink" viewBox="0 0 38.7891 50.8008">
 <g>
  <rect height="50.8008" opacity="0" width="38.7891" x="0" y="0"/>
  <path d="M19.1992 50.7617C20.4688 50.7617 21.0938 49.9023 22.3242 48.2422L37.4414 27.9688C38.0664 27.1289 38.418 26.2891 38.418 25.3906C38.418 24.4727 38.0664 23.6523 37.4414 22.793L22.3242 2.51953C21.0938 0.859375 20.4688 0 19.1992 0C17.9492 0 17.3242 0.859375 16.0742 2.51953L0.976562 22.793C0.332031 23.6523 0 24.4727 0 25.3906C0 26.2891 0.332031 27.1289 0.976562 27.9688L16.0742 48.2422C17.3242 49.9023 17.9492 50.7617 19.1992 50.7617ZM19.1992 46.2695C19.043 46.2695 18.9648 46.1523 18.8672 46.0156L4.10156 26.0938C3.88672 25.8008 3.84766 25.6055 3.84766 25.3906C3.84766 25.1758 3.88672 24.9609 4.10156 24.6875L18.8672 4.76562C18.9648 4.62891 19.043 4.51172 19.1992 4.51172C19.375 4.51172 19.4531 4.62891 19.5508 4.76562L34.3164 24.6875C34.5312 24.9609 34.5703 25.1758 34.5703 25.3906C34.5703 25.6055 34.5312 25.8008 34.3164 26.0938L19.5508 46.0156C19.4531 46.1523 19.375 46.2695 19.1992 46.2695Z" fill="black" fill-opacity="0.85"/>
 </g>
</svg>
