<?xml version="1.0" encoding="UTF-8"?>
<!--Generator: Apple Native CoreSVG 326-->
<!DOCTYPE svg
PUBLIC "-//W3C//DTD SVG 1.1//EN"
       "http://www.w3.org/Graphics/SVG/1.1/DTD/svg11.dtd">
<svg version="1.1" xmlns="http://www.w3.org/2000/svg" xmlns:xlink="http://www.w3.org/1999/xlink" viewBox="0 0 71.7081 37.2461">
 <g>
  <rect height="37.2461" opacity="0" width="71.7081" x="0" y="0"/>
  <path d="M1.7525 37.2461L4.85797 37.2461C6.16657 37.2461 6.83063 36.6211 7.20172 35.6445C11.8306 24.2188 16.4791 12.7734 21.108 1.34766C21.4009 0.625 21.0494 0.0390625 20.3267 0.0390625L18.8619 0.0390625C18.1197 0.0390625 17.6509 0.371094 17.3384 1.01562C11.6353 12.2852 5.95172 23.5547 0.248596 34.8242C-0.337341 35.957 0.0923463 37.2461 1.7525 37.2461ZM66.4791 37.2461L69.5845 37.2461C71.2642 37.2461 71.6939 35.957 71.0884 34.8242C65.4048 23.5547 59.7213 12.2852 54.0377 1.01562C53.6861 0.371094 53.2173 0.0390625 52.4947 0.0390625L51.0298 0.0390625C50.2877 0.0390625 49.9361 0.625 50.2486 1.34766C54.858 12.7734 59.5064 24.2188 64.1353 35.6445C64.5064 36.6211 65.1705 37.2461 66.4791 37.2461ZM35.1705 6.5625L36.1275 6.5625C37.0064 6.5625 37.7095 5.87891 37.7095 4.98047C37.7095 3.86719 37.7095 2.73438 37.7095 1.60156C37.7095 0.703125 37.0064 0.0390625 36.1275 0.0390625L35.1705 0.0390625C34.2916 0.0390625 33.608 0.703125 33.608 1.60156C33.608 2.73438 33.608 3.86719 33.608 4.98047C33.608 5.87891 34.2916 6.5625 35.1705 6.5625ZM35.1705 20.8594L36.1275 20.8594C37.0064 20.8594 37.7095 20.1953 37.7095 19.2773C37.7095 17.4609 37.7095 15.625 37.7095 13.8086C37.7095 12.8906 37.0064 12.2266 36.1275 12.2266L35.1705 12.2266C34.2916 12.2266 33.608 12.8906 33.608 13.8086C33.608 15.625 33.608 17.4609 33.608 19.2773C33.608 20.1953 34.2916 20.8594 35.1705 20.8594ZM35.1705 37.2461L36.1275 37.2461C37.0064 37.2461 37.7095 36.582 37.7095 35.6836C37.7095 33.2617 37.7095 30.8594 37.7095 28.457C37.7095 27.5391 37.0064 26.875 36.1275 26.875L35.1705 26.875C34.2916 26.875 33.608 27.5391 33.608 28.457C33.608 30.8594 33.608 33.2617 33.608 35.6836C33.608 36.582 34.2916 37.2461 35.1705 37.2461Z" fill="black" fill-opacity="0.85"/>
 </g>
</svg>
