<?xml version="1.0" encoding="UTF-8"?>
<!--Generator: Apple Native CoreSVG 326-->
<!DOCTYPE svg
PUBLIC "-//W3C//DTD SVG 1.1//EN"
       "http://www.w3.org/Graphics/SVG/1.1/DTD/svg11.dtd">
<svg version="1.1" xmlns="http://www.w3.org/2000/svg" xmlns:xlink="http://www.w3.org/1999/xlink" viewBox="0 0 64.7461 44.5953">
 <g>
  <rect height="44.5953" opacity="0" width="64.7461" x="0" y="0"/>
  <path d="M0 25.1785C0 30.4324 0.800781 32.7566 4.72656 34.7683L18.9062 42.0535C24.043 44.6902 27.6172 45.3543 33.3398 43.6746L55.1367 37.3074C61.6992 35.3738 64.375 31.5652 64.375 25.1785L64.375 9.51443C64.375 5.08083 61.5234 2.17068 57.1094 2.17068L7.32422 2.15115C2.87109 2.15115 0 5.04177 0 9.4363ZM3.45703 25.1785L3.45703 9.53396C3.45703 7.09255 4.98047 5.60818 7.38281 5.60818L57.0508 5.62771C59.4141 5.62771 60.918 7.15115 60.918 9.59255L60.918 25.1785C60.918 29.9441 59.043 32.6199 54.1211 34.0652L33.2617 40.2371C28.0469 41.7801 25.1367 41.3308 20.7617 39.1043L6.89453 32.034C4.08203 30.6277 3.45703 29.0652 3.45703 25.1785Z" fill="black" fill-opacity="0.85"/>
  <path d="M13.9844 30.6472C14.9414 30.6472 15.5273 30.0222 15.5273 29.0261L15.5273 22.6004L18.1641 22.6004L20.9375 29.3972C21.25 30.198 21.7188 30.6472 22.5586 30.6472C23.2812 30.6472 24.0234 30.2176 24.0234 29.1433C24.0234 28.909 23.8867 28.4793 23.6914 28.0105L21.1133 21.9363C23.1055 20.9988 24.082 18.9676 24.082 16.6043C24.082 12.7566 21.7969 10.6082 18.0664 10.6082L13.9648 10.6082C12.9492 10.6082 12.4023 11.2136 12.4023 12.2293L12.4023 29.0261C12.4023 30.0027 12.9883 30.6472 13.9844 30.6472ZM15.5273 20.2566L15.5273 13.1082L17.7734 13.1082C19.7852 13.1082 20.918 14.5144 20.918 16.6629C20.918 18.7332 19.9414 20.2566 17.793 20.2566ZM32.793 30.8035C36.5039 30.8035 38.7305 28.616 38.7305 25.0027C38.7305 21.8582 37.0898 20.4324 34.3164 19.3582L32.9688 18.8504C31.2891 18.2058 30.0977 17.3074 30.0977 15.491C30.0977 13.8699 31.0742 12.7371 32.6758 12.7371C34.3555 12.7371 35.2539 13.9285 35.5469 15.3543C35.7422 16.0965 36.25 16.3894 36.9336 16.3894C37.7734 16.3894 38.3008 15.8426 38.3008 15.0613C38.3008 14.8269 38.2812 14.573 38.1641 14.1433C37.4414 11.6043 35.3516 10.159 32.6758 10.159C29.4336 10.159 27.0508 12.3074 27.0508 15.7254C27.0508 18.7722 28.8477 20.3543 31.3867 21.3504L32.7344 21.8582C34.4531 22.5222 35.6836 23.3621 35.6836 25.2761C35.6836 27.0144 34.6289 28.2449 32.832 28.2449C31.0742 28.2449 30 27.034 29.7266 25.5105C29.5508 24.7488 29.0039 24.4168 28.3008 24.4168C27.4609 24.4168 26.9531 25.0222 26.9531 25.8621C26.9531 26.2332 26.9727 26.3894 27.0898 26.7996C27.7734 29.3582 30 30.8035 32.793 30.8035ZM43.4375 30.3933L48.5156 30.3933C51.9336 30.3933 53.9062 28.1277 53.9062 24.8855C53.9062 22.4636 52.5 20.2957 50.1562 20.0418L50.1562 19.9246C52.0117 19.5926 53.2617 17.5222 53.2617 15.5496C53.2617 12.4832 51.25 10.6277 48.3789 10.6277L43.4375 10.6277C42.4414 10.6277 41.8945 11.3308 41.8945 12.2683L41.8945 28.7722C41.8945 29.7488 42.4609 30.3933 43.4375 30.3933ZM44.9414 19.1433L44.9414 13.0496L47.5 13.0496C49.4336 13.0496 50.2539 14.2801 50.2539 15.9988C50.2539 17.9324 49.1602 19.1433 47.2266 19.1433ZM44.9414 27.991L44.9414 21.2918L47.5 21.2918C49.4727 21.2918 50.7812 22.3855 50.7812 24.6316C50.7812 26.7215 49.707 27.991 47.5977 27.991Z" fill="black" fill-opacity="0.85"/>
 </g>
</svg>
