<?xml version="1.0" encoding="UTF-8"?>
<!--Generator: Apple Native CoreSVG 326-->
<!DOCTYPE svg
PUBLIC "-//W3C//DTD SVG 1.1//EN"
       "http://www.w3.org/Graphics/SVG/1.1/DTD/svg11.dtd">
<svg version="1.1" xmlns="http://www.w3.org/2000/svg" xmlns:xlink="http://www.w3.org/1999/xlink" viewBox="0 0 57.6367 43.3008">
 <g>
  <rect height="43.3008" opacity="0" width="57.6367" x="0" y="0"/>
  <path d="M57.2656 19.9805L57.2656 35.918C57.2656 40.7617 54.7461 43.2617 49.8633 43.2617L7.42188 43.2617C2.51953 43.2617 0 40.7812 0 35.918L0 19.9805C0 6.62109 6.21094 0 20.4883 0L36.7773 0C51.0742 0 57.2656 6.62109 57.2656 19.9805ZM17.3828 11.5234C16.3281 11.5234 15.7617 12.1484 15.7617 13.1836L15.7617 30.3711C15.7617 31.3867 16.3672 32.0703 17.4023 32.0703C18.3984 32.0703 19.0039 31.4062 19.0039 30.3711L19.0039 23.8281L21.6797 23.8281L24.5117 30.7812C24.8438 31.6016 25.3125 32.0703 26.1914 32.0703C26.9336 32.0703 27.6758 31.6016 27.6758 30.5078C27.6758 30.2539 27.5586 29.8242 27.3633 29.3359L24.7266 23.1445C26.7578 22.1875 27.7539 20.0781 27.7539 17.6562C27.7539 13.7305 25.4102 11.5234 21.582 11.5234ZM31.25 11.543C30.4883 11.543 29.9023 12.1289 29.9023 12.8516C29.9023 13.6133 30.4883 14.1992 31.25 14.1992L34.6289 14.1992L34.6289 30.4688C34.6289 31.3672 35.3516 32.0703 36.2305 32.0703C37.1289 32.0703 37.832 31.3672 37.832 30.4688L37.832 14.1992L41.0352 14.1992C41.7773 14.1992 42.3633 13.6133 42.3633 12.8516C42.3633 12.1289 41.7773 11.543 41.0352 11.543ZM24.4922 17.7344C24.4922 19.8633 23.4961 21.4062 21.3086 21.4062L19.0039 21.4062L19.0039 14.1016L21.2891 14.1016C23.3398 14.1016 24.4922 15.5469 24.4922 17.7344Z" fill="black" fill-opacity="0.85"/>
 </g>
</svg>
