<?xml version="1.0" encoding="UTF-8"?>
<!--Generator: Apple Native CoreSVG 326-->
<!DOCTYPE svg
PUBLIC "-//W3C//DTD SVG 1.1//EN"
       "http://www.w3.org/Graphics/SVG/1.1/DTD/svg11.dtd">
<svg version="1.1" xmlns="http://www.w3.org/2000/svg" xmlns:xlink="http://www.w3.org/1999/xlink" viewBox="0 0 51.25 50.918">
 <g>
  <rect height="50.918" opacity="0" width="51.25" x="0" y="0"/>
  <path d="M50.8789 25.4492C50.8789 39.4531 39.4531 50.8789 25.4297 50.8789C11.4258 50.8789 0 39.4531 0 25.4492C0 11.4258 11.4258 0 25.4297 0C39.4531 0 50.8789 11.4258 50.8789 25.4492ZM28.4375 24.4531C28.4375 26.8359 30.0195 28.0664 32.3047 28.6914L34.3555 29.2383C35.7422 29.6094 36.6406 30.3516 36.6406 31.6797C36.6406 33.2227 35.5078 34.2188 33.8281 34.2188C32.0508 34.2188 31.0547 33.5352 30.293 31.9531C30.0195 31.4258 29.6094 31.1914 29.1992 31.1914C28.5938 31.1914 28.1641 31.6016 28.1641 32.207C28.1641 32.4023 28.2422 32.6367 28.3203 32.9102C29.0039 35.0977 31.3672 36.1523 33.7305 36.1523C36.6992 36.1523 39.1406 34.4336 39.1406 31.4453C39.1406 29.0039 37.6953 27.8711 35.2344 27.207L33.1836 26.6406C31.9336 26.3086 30.918 25.6445 30.918 24.3164C30.918 22.793 32.1289 21.8164 33.6328 21.8164C35.2344 21.8164 36.2109 22.7539 36.7383 24.0234C36.8945 24.4141 37.2461 24.6484 37.6367 24.6484C38.3789 24.6484 38.6523 24.1992 38.6523 23.7305C38.6523 23.5352 38.6133 23.3008 38.5352 23.0859C38.0469 21.25 36.1133 19.8828 33.7305 19.8828C30.4688 19.8828 28.4375 21.7578 28.4375 24.4531ZM15.2734 14.9414C14.4922 14.9414 13.9844 15.4688 13.9844 16.2891L13.9844 34.7656C13.9844 35.6055 14.4727 36.1328 15.293 36.1328C16.1328 36.1328 16.6211 35.6055 16.6211 34.7656L16.6211 27.3828L20.0391 27.3828L23.3789 35.1758C23.6328 35.8008 24.043 36.1328 24.6875 36.1328C25.4102 36.1328 25.9961 35.6641 25.9961 34.9023C25.9961 34.5703 25.8398 34.3164 25.6836 33.9453L22.5781 26.8164C24.9219 25.8203 26.0156 23.5938 26.0156 21.1133C26.0156 17.5977 23.9258 14.9414 19.8047 14.9414ZM23.3789 21.1719C23.3789 23.6328 22.0703 25.2344 19.5703 25.2344L16.6211 25.2344L16.6211 17.168L19.5508 17.168C21.9922 17.168 23.3789 18.7109 23.3789 21.1719Z" fill="black" fill-opacity="0.85"/>
 </g>
</svg>
