<?xml version="1.0" encoding="UTF-8"?>
<!--Generator: Apple Native CoreSVG 326-->
<!DOCTYPE svg
PUBLIC "-//W3C//DTD SVG 1.1//EN"
       "http://www.w3.org/Graphics/SVG/1.1/DTD/svg11.dtd">
<svg version="1.1" xmlns="http://www.w3.org/2000/svg" xmlns:xlink="http://www.w3.org/1999/xlink" viewBox="0 0 51.25 50.918">
 <g>
  <rect height="50.918" opacity="0" width="51.25" x="0" y="0"/>
  <path d="M50.8789 25.4688C50.8789 39.4922 39.4531 50.918 25.4297 50.918C11.4258 50.918 0 39.4922 0 25.4688C0 11.4648 11.4258 0.0390625 25.4297 0.0390625C39.4531 0.0390625 50.8789 11.4648 50.8789 25.4688ZM24.8438 10.8984L24.3555 16.3281L14.4727 30.1172C13.8086 31.0352 14.1406 31.875 15.2148 31.9922C17.6172 32.2461 20.4297 32.2852 22.9492 32.0898L22.7344 34.4727C20.1172 34.5117 17.5 34.5117 14.9609 34.5117C14.0039 34.5117 13.5156 35.2344 13.8281 36.0938L14.8047 38.7305C15.2148 39.8242 15.918 40.293 17.0508 40.293L31.1328 40.293C32.0312 40.293 32.6758 40.0391 33.3398 39.4336C34.6484 38.1836 36.2695 35.625 36.2695 34.6289C36.2695 34.0234 35.8594 33.5352 34.9609 33.6328C31.7188 34.1016 28.2031 34.2969 24.668 34.4141L24.8828 32.0312C28.1836 32.3633 31.5039 32.207 33.5938 31.875C35.2148 31.6211 36.0156 30.9766 36.543 29.5508C37.2266 27.793 37.4609 26.0156 37.4609 24.082C37.4609 18.9648 35.2344 13.2422 28.3008 9.57031C27.7734 9.29688 27.2656 9.16016 26.8164 9.16016C25.8203 9.16016 24.9219 9.82422 24.8438 10.8984ZM26.9727 11.1914C27.8516 13.8086 28.3789 17.0703 28.3789 20.0977C28.3789 24.0234 27.2656 27.5781 25.0781 29.9023L26.6797 11.2305C26.6992 11.0156 26.8945 11.0156 26.9727 11.1914Z" fill="black" fill-opacity="0.85"/>
 </g>
</svg>
