<?xml version="1.0" encoding="UTF-8"?>
<!--Generator: Apple Native CoreSVG 326-->
<!DOCTYPE svg
PUBLIC "-//W3C//DTD SVG 1.1//EN"
       "http://www.w3.org/Graphics/SVG/1.1/DTD/svg11.dtd">
<svg version="1.1" xmlns="http://www.w3.org/2000/svg" xmlns:xlink="http://www.w3.org/1999/xlink" viewBox="0 0 46.2891 45.918">
 <g>
  <rect height="45.918" opacity="0" width="46.2891" x="0" y="0"/>
  <path d="M45.918 7.53906L45.918 38.3984C45.918 43.3594 43.3594 45.918 38.3008 45.918L7.59766 45.918C2.55859 45.918 0 43.3984 0 38.3984L0 7.53906C0 2.53906 2.55859 0 7.59766 0L38.3008 0C43.3594 0 45.918 2.55859 45.918 7.53906ZM14.1016 11.7773C13.0273 11.7773 12.3633 12.4414 12.3633 13.5156L12.3633 33.1641C12.3633 33.9062 12.832 34.3555 13.5352 34.3555C14.2188 34.3555 14.668 33.9062 14.668 33.1641L14.668 14.2969L20.5859 14.2969C23.5742 14.2969 24.9805 15.1367 24.9805 18.5156L24.9805 26.4648C24.9805 27.207 25.4102 27.6953 26.1328 27.6953C26.8164 27.6953 27.2656 27.207 27.2656 26.4648L27.2656 18.0273C27.2656 13.9453 25.5469 11.7773 21.3477 11.7773ZM31.25 12.8125L31.25 27.3633C31.25 30.7227 30.4688 31.6406 27.1289 31.6406L20.957 31.6406L20.957 19.4141C20.957 18.6719 20.5273 18.2227 19.8242 18.2227C19.1406 18.2227 18.6719 18.6719 18.6719 19.4141L18.6719 32.4805C18.6719 33.5352 19.3555 34.1406 20.332 34.1406L27.7539 34.1406C32.1289 34.1406 33.5742 31.8164 33.5742 27.4609L33.5742 12.8125C33.5742 12.0312 33.125 11.5625 32.4219 11.5625C31.7188 11.5625 31.25 12.0312 31.25 12.8125Z" fill="black" fill-opacity="0.85"/>
 </g>
</svg>
