<?xml version="1.0" encoding="UTF-8"?>
<!--Generator: Apple Native CoreSVG 326-->
<!DOCTYPE svg
PUBLIC "-//W3C//DTD SVG 1.1//EN"
       "http://www.w3.org/Graphics/SVG/1.1/DTD/svg11.dtd">
<svg version="1.1" xmlns="http://www.w3.org/2000/svg" xmlns:xlink="http://www.w3.org/1999/xlink" viewBox="0 0 60.961 50.918">
 <g>
  <rect height="50.918" opacity="0" width="60.961" x="0" y="0"/>
  <path d="M30.295 50.8789C44.3379 50.8789 55.7246 39.4922 55.7246 25.4492C55.7246 11.4062 44.3379 0 30.295 0C16.252 0 4.86526 11.4062 4.86526 25.4492L8.49808 25.4492C8.49808 13.3984 18.2442 3.65234 30.295 3.65234C42.3457 3.65234 52.0918 13.3984 52.0918 25.4492C52.0918 37.5 42.3457 47.2461 30.295 47.2461C22.834 47.2461 16.1739 43.457 12.3653 37.7539C11.7207 36.875 10.7051 36.6016 9.80667 37.1484C8.94729 37.6562 8.69339 38.8477 9.39651 39.8047C13.9473 46.5039 21.6426 50.8789 30.295 50.8789ZM1.60354 20.7227C0.00198146 20.7227-0.447237 21.8164 0.470731 23.0859L6.01761 30.9766C6.75979 32.0508 7.83401 32.0312 8.55667 30.9766L14.1035 23.0664C14.9825 21.8164 14.5528 20.7227 12.9707 20.7227Z" fill="black" fill-opacity="0.85"/>
  <path d="M21.1153 36.5625C21.7598 36.5625 22.1895 36.1328 22.1895 35.4102L22.1895 16.9922L27.9707 16.9922C30.9004 16.9922 32.2676 17.8125 32.2676 21.1133L32.2676 28.8867C32.2676 29.6094 32.6778 30.0781 33.3809 30.0781C34.045 30.0781 34.4746 29.6094 34.4746 28.8867L34.4746 20.6445C34.4746 16.6602 32.8145 14.5703 28.7129 14.5703L21.6426 14.5703C20.6075 14.5703 19.9825 15.1953 19.9825 16.2305L19.9825 35.4102C19.9825 36.1328 20.4121 36.5625 21.1153 36.5625ZM27.7168 36.3672L34.9629 36.3672C39.2207 36.3672 40.627 34.1016 40.627 29.8633L40.627 15.5469C40.627 14.8047 40.1973 14.3359 39.5137 14.3359C38.8301 14.3359 38.3809 14.8047 38.3809 15.5469L38.3809 29.7656C38.3809 33.0469 37.6192 33.9258 34.3575 33.9258L28.3418 33.9258L28.3418 21.9922C28.3418 21.2695 27.9121 20.8398 27.2481 20.8398C26.5645 20.8398 26.1153 21.2695 26.1153 21.9922L26.1153 34.7656C26.1153 35.7812 26.7793 36.3672 27.7168 36.3672Z" fill="black" fill-opacity="0.85"/>
 </g>
</svg>
