<?xml version="1.0" encoding="UTF-8"?>
<!--Generator: Apple Native CoreSVG 326-->
<!DOCTYPE svg
PUBLIC "-//W3C//DTD SVG 1.1//EN"
       "http://www.w3.org/Graphics/SVG/1.1/DTD/svg11.dtd">
<svg version="1.1" xmlns="http://www.w3.org/2000/svg" xmlns:xlink="http://www.w3.org/1999/xlink" viewBox="0 0 58.2476 55.3277">
 <g>
  <rect height="55.3277" opacity="0" width="58.2476" x="0" y="0"/>
  <path d="M40.5209 46.6941C37.9423 48.4275 34.6646 50.2889 30.5886 52.4978C30.0027 52.8103 29.3777 53.0056 28.9285 53.0056C28.4988 53.0056 27.8738 52.8299 27.2683 52.4978C13.3035 44.4119 8.55738 41.326 8.55738 32.5955L8.55738 14.7573ZM30.9597 3.59158C34.28 4.72439 42.7175 7.84939 46.0379 9.17752C48.2839 10.0955 49.2996 10.9549 49.2996 13.5916L49.2996 32.5955C49.2996 35.9166 48.6467 38.4774 47.05 40.798L14.4164 8.1782C18.3811 6.67005 24.258 4.49338 26.9168 3.59158C27.5808 3.39627 28.2449 3.22049 28.9285 3.22049C29.6316 3.22049 30.2957 3.37674 30.9597 3.59158Z" fill="black" fill-opacity="0.85"/>
  <path d="M49.7879 52.1072C50.4324 52.7517 51.4871 52.7322 52.1316 52.1072C52.7957 51.4627 52.7957 50.3885 52.1316 49.7439L5.5691 3.20095C4.9441 2.55642 3.86988 2.55642 3.20582 3.20095C2.56129 3.82595 2.56129 4.9197 3.20582 5.56424Z" fill="black" fill-opacity="0.85"/>
 </g>
</svg>
