<?xml version="1.0" encoding="UTF-8"?>
<!--Generator: Apple Native CoreSVG 326-->
<!DOCTYPE svg
PUBLIC "-//W3C//DTD SVG 1.1//EN"
       "http://www.w3.org/Graphics/SVG/1.1/DTD/svg11.dtd">
<svg version="1.1" xmlns="http://www.w3.org/2000/svg" xmlns:xlink="http://www.w3.org/1999/xlink" viewBox="0 0 59.5508 45.957">
 <g>
  <rect height="45.957" opacity="0" width="59.5508" x="0" y="0"/>
  <path d="M7.59766 45.957L51.5625 45.957C56.6211 45.957 59.1797 43.418 59.1797 38.4375L59.1797 7.57812C59.1797 2.59766 56.6211 0.0585938 51.5625 0.0585938L7.59766 0.0585938C2.55859 0.0585938 0 2.57812 0 7.57812L0 38.4375C0 43.4375 2.55859 45.957 7.59766 45.957ZM7.67578 42.5C4.94141 42.5 3.45703 41.0547 3.45703 38.2617L3.45703 7.75391C3.45703 4.96094 4.94141 3.51562 7.67578 3.51562L51.5039 3.51562C54.1797 3.51562 55.7031 4.96094 55.7031 7.75391L55.7031 38.2617C55.7031 41.0547 54.1797 42.5 51.5039 42.5ZM18.9062 43.1836L22.2852 43.1836L22.2852 2.77344L18.9062 2.77344ZM8.75 15.6836L13.6719 15.6836C14.2773 15.6836 14.7266 15.2539 14.7266 14.6484L14.7266 9.74609C14.7266 9.10156 14.2969 8.69141 13.6719 8.69141L8.75 8.69141C8.10547 8.69141 7.67578 9.10156 7.67578 9.74609L7.67578 14.6484C7.67578 15.2539 8.125 15.6836 8.75 15.6836ZM8.75 26.4844L13.6719 26.4844C14.2773 26.4844 14.7266 26.0352 14.7266 25.4492L14.7266 20.5273C14.7266 19.9219 14.2969 19.4531 13.6719 19.4531L8.75 19.4531C8.10547 19.4531 7.67578 19.9219 7.67578 20.5273L7.67578 25.4492C7.67578 26.0352 8.125 26.4844 8.75 26.4844ZM8.75 37.2461L13.6719 37.2461C14.2773 37.2461 14.7266 36.8164 14.7266 36.2109L14.7266 31.3086C14.7266 30.6836 14.2969 30.2539 13.6719 30.2539L8.75 30.2539C8.10547 30.2539 7.67578 30.6836 7.67578 31.3086L7.67578 36.2109C7.67578 36.8164 8.125 37.2461 8.75 37.2461Z" fill="black" fill-opacity="0.85"/>
 </g>
</svg>
