<?xml version="1.0" encoding="UTF-8"?>
<!--Generator: Apple Native CoreSVG 326-->
<!DOCTYPE svg
PUBLIC "-//W3C//DTD SVG 1.1//EN"
       "http://www.w3.org/Graphics/SVG/1.1/DTD/svg11.dtd">
<svg version="1.1" xmlns="http://www.w3.org/2000/svg" xmlns:xlink="http://www.w3.org/1999/xlink" viewBox="0 0 51.25 50.918">
 <g>
  <rect height="50.918" opacity="0" width="51.25" x="0" y="0"/>
  <path d="M50.8789 25.4688C50.8789 39.4922 39.4531 50.918 25.4297 50.918C11.4258 50.918 0 39.4922 0 25.4688C0 11.4648 11.4258 0.0390625 25.4297 0.0390625C39.4531 0.0390625 50.8789 11.4648 50.8789 25.4688ZM24.1016 12.5195L24.1016 15.5859L15.8594 15.5859C14.1602 15.5859 13.2031 16.5039 13.2031 18.1641L13.2031 25.3711C13.2031 27.0312 14.1602 27.9883 15.8594 27.9883L24.1016 27.9688L24.1016 37.1484L20.3516 37.1484C19.6484 37.1484 19.0625 37.7148 19.0625 38.4375C19.0625 39.1211 19.6484 39.707 20.3516 39.707L30.4297 39.707C31.1133 39.707 31.6992 39.1211 31.6992 38.4375C31.6992 37.7148 31.1133 37.1484 30.4297 37.1484L26.6406 37.1484L26.6406 27.9688L33.1641 27.9688C34.2773 27.9688 34.8438 27.6172 35.4492 27.0312L38.9648 23.7305C40.3125 22.4609 40.3516 21.1133 38.9453 19.8242L35.4492 16.5234C34.8438 15.8984 34.2773 15.5859 33.1641 15.5859L26.6406 15.5859L26.6406 12.5195C26.6406 11.7969 26.0742 11.2305 25.3906 11.2305C24.668 11.2305 24.1016 11.7969 24.1016 12.5195Z" fill="black" fill-opacity="0.85"/>
 </g>
</svg>
