<?xml version="1.0" encoding="UTF-8"?>
<!--Generator: Apple Native CoreSVG 326-->
<!DOCTYPE svg
PUBLIC "-//W3C//DTD SVG 1.1//EN"
       "http://www.w3.org/Graphics/SVG/1.1/DTD/svg11.dtd">
<svg version="1.1" xmlns="http://www.w3.org/2000/svg" xmlns:xlink="http://www.w3.org/1999/xlink" viewBox="0 0 51.25 50.918">
 <g>
  <rect height="50.918" opacity="0" width="51.25" x="0" y="0"/>
  <path d="M25.4297 50.8789C39.4727 50.8789 50.8789 39.4922 50.8789 25.4492C50.8789 11.4062 39.4727 0 25.4297 0C11.3867 0 0 11.4062 0 25.4492C0 39.4922 11.3867 50.8789 25.4297 50.8789ZM25.4297 47.2461C13.3789 47.2461 3.63281 37.5 3.63281 25.4492C3.63281 13.3984 13.3789 3.65234 25.4297 3.65234C37.4805 3.65234 47.2266 13.3984 47.2266 25.4492C47.2266 37.5 37.4805 47.2461 25.4297 47.2461Z" fill="black" fill-opacity="0.85"/>
  <path d="M21.0742 22.0703L24.1602 22.0703L24.1602 24.2578L17.5195 24.2578C16.7773 24.2578 16.2891 24.4727 15.8398 24.8828L13.3398 27.2852C12.4023 28.1641 12.4023 29.0625 13.3398 29.9609L15.8398 32.2852C16.2891 32.7539 16.7969 32.9492 17.5195 32.9492L24.1602 32.9492L24.1602 37.6953L20.625 37.6953C19.9414 37.6953 19.4141 38.2422 19.4141 38.9453C19.4141 39.6094 19.9414 40.1758 20.625 40.1758L30.1367 40.1758C30.8398 40.1758 31.3867 39.6094 31.3867 38.9453C31.3867 38.2422 30.8398 37.6953 30.1367 37.6953L26.6406 37.6953L26.6406 32.9492L29.707 32.9492C30.8203 32.9492 31.5039 32.3047 31.5039 31.1523L31.5039 26.0547C31.5039 24.9023 30.8203 24.2578 29.707 24.2578L26.6406 24.2578L26.6406 22.0703L33.2617 22.0703C33.9648 22.0703 34.4727 21.8555 34.9414 21.4062L37.4414 19.043C38.3594 18.1836 38.3789 17.2852 37.4219 16.3672L34.9414 14.0039C34.4727 13.5742 33.9844 13.3789 33.2617 13.3789L26.6406 13.3789L26.6406 10.9961C26.6406 10.332 26.0938 9.76562 25.3906 9.76562C24.6875 9.76562 24.1602 10.3516 24.1602 10.9961L24.1602 13.3789L21.0742 13.3789C19.9414 13.3789 19.2773 14.0039 19.2773 15.1562L19.2773 20.2734C19.2773 21.4062 19.9414 22.0703 21.0742 22.0703Z" fill="black" fill-opacity="0.85"/>
 </g>
</svg>
