<?xml version="1.0" encoding="UTF-8"?>
<!--Generator: Apple Native CoreSVG 326-->
<!DOCTYPE svg
PUBLIC "-//W3C//DTD SVG 1.1//EN"
       "http://www.w3.org/Graphics/SVG/1.1/DTD/svg11.dtd">
<svg version="1.1" xmlns="http://www.w3.org/2000/svg" xmlns:xlink="http://www.w3.org/1999/xlink" viewBox="0 0 51.25 50.918">
 <g>
  <rect height="50.918" opacity="0" width="51.25" x="0" y="0"/>
  <path d="M50.8789 25.4492C50.8789 39.4531 39.4531 50.8789 25.4297 50.8789C11.4258 50.8789 0 39.4531 0 25.4492C0 11.4258 11.4258 0 25.4297 0C39.4531 0 50.8789 11.4258 50.8789 25.4492ZM33.1836 14.9609L15.0391 33.2812C14.5703 33.7695 14.3164 34.3164 14.3164 34.8242C14.3164 35.8008 15.0195 36.6797 16.1133 36.6797C16.7383 36.6797 17.1875 36.4258 17.6758 35.9375L35.8203 17.5977C36.2891 17.1289 36.543 16.582 36.543 16.0742C36.543 15.0391 35.7031 14.2188 34.6875 14.2188C34.1602 14.2188 33.6328 14.4727 33.1836 14.9609Z" fill="black" fill-opacity="0.85"/>
 </g>
</svg>
