<?xml version="1.0" encoding="UTF-8"?>
<!--Generator: Apple Native CoreSVG 326-->
<!DOCTYPE svg
PUBLIC "-//W3C//DTD SVG 1.1//EN"
       "http://www.w3.org/Graphics/SVG/1.1/DTD/svg11.dtd">
<svg version="1.1" xmlns="http://www.w3.org/2000/svg" xmlns:xlink="http://www.w3.org/1999/xlink" viewBox="0 0 71.7081 37.2461">
 <g>
  <rect height="37.2461" opacity="0" width="71.7081" x="0" y="0"/>
  <path d="M1.7525 37.2461L4.85797 37.2461C6.16657 37.2461 6.83063 36.6211 7.20172 35.6445L21.108 1.34766C21.4009 0.625 21.0494 0.0390625 20.3267 0.0390625L18.8619 0.0390625C18.1197 0.0390625 17.6509 0.371094 17.3384 1.01562L0.248596 34.8242C-0.337341 35.957 0.0923463 37.2461 1.7525 37.2461ZM66.4791 37.2461L69.5845 37.2461C71.2642 37.2461 71.6939 35.957 71.0884 34.8242L54.0377 1.01562C53.6861 0.371094 53.2173 0.0390625 52.4947 0.0390625L51.0298 0.0390625C50.2877 0.0390625 49.9361 0.625 50.2486 1.34766L64.1353 35.6445C64.5064 36.6211 65.1705 37.2461 66.4791 37.2461Z" fill="black" fill-opacity="0.85"/>
  <path d="M35.6588 35.625C36.3814 35.625 36.8892 35.0977 36.8892 34.3359L36.8892 31.1719L39.3502 32.5781C40.0338 32.9688 40.6978 32.8125 41.0494 32.207C41.3619 31.6602 41.147 30.957 40.522 30.5859L36.8697 28.5156L36.8697 26.4648L36.6353 21.6602L40.7955 24.2578L42.4947 25.2539L42.4947 29.4727C42.4947 30.1953 42.9439 30.7422 43.608 30.7422C44.3111 30.7422 44.7798 30.2539 44.7798 29.4727L44.7994 26.543L47.5533 28.1641C48.1783 28.5352 48.8619 28.3789 49.2525 27.7734C49.6041 27.1094 49.3892 26.4258 48.7642 26.0547L46.0103 24.4727L48.4713 23.0273C49.1353 22.6172 49.3697 21.9922 49.0377 21.4062C48.6666 20.8203 47.9439 20.6836 47.3189 21.0352L43.7056 23.1445L41.9478 22.0898L37.5923 19.9023L41.9478 17.6953L43.7056 16.6406L47.3189 18.75C47.9439 19.1016 48.6861 18.9844 49.0377 18.3984C49.3697 17.793 49.1353 17.168 48.4713 16.7578L46.0103 15.3125L48.7642 13.75C49.3892 13.3789 49.6041 12.6953 49.2525 12.0117C48.9009 11.4062 48.1783 11.25 47.5533 11.6211L44.7994 13.2227L44.7798 10.3125C44.7798 9.57031 44.3111 9.04297 43.6275 9.04297C42.9439 9.04297 42.4947 9.58984 42.4947 10.3125L42.4947 14.5312L40.7955 15.5273L36.6353 18.125L36.8697 13.3398L36.8697 11.2695L40.522 9.19922C41.147 8.82812 41.3619 8.125 41.0494 7.57812C40.6978 6.97266 40.0338 6.81641 39.3502 7.20703L36.8892 8.61328L36.8892 5.44922C36.8892 4.6875 36.3814 4.16016 35.6588 4.16016C34.9556 4.16016 34.4478 4.70703 34.4478 5.44922L34.4478 8.65234L31.9283 7.20703C31.2447 6.83594 30.6002 6.95312 30.2486 7.57812C29.9361 8.14453 30.1509 8.82812 30.7759 9.19922L34.4478 11.2695L34.4478 13.3398L34.6822 18.125L30.5806 15.5664L28.8033 14.5312L28.8228 10.3125C28.8228 9.58984 28.3541 9.04297 27.69 9.04297C26.9869 9.04297 26.5377 9.55078 26.5377 10.3125L26.5181 13.2031L23.7642 11.6211C23.1197 11.2305 22.397 11.4258 22.0455 12.0117C21.6744 12.6758 21.9088 13.3789 22.5338 13.75L25.2877 15.3125L22.8267 16.7578C22.1627 17.1484 21.9283 17.7734 22.2603 18.418C22.6119 18.9844 23.3345 19.1211 23.9986 18.75L27.5923 16.6602L29.3697 17.6953L33.7056 19.9023L29.3697 22.0898L27.5923 23.1445L23.9986 21.0352C23.3345 20.6641 22.6119 20.8008 22.2798 21.3672C21.9478 21.9922 22.1431 22.6367 22.8267 23.0273L25.2877 24.4727L22.5338 26.0547C21.9088 26.4258 21.6939 27.1094 22.0455 27.7734C22.4166 28.3789 23.1197 28.5547 23.7642 28.1641L26.5181 26.582L26.5377 29.4727C26.5377 30.2344 26.9869 30.7422 27.69 30.7422C28.3541 30.7422 28.8228 30.1953 28.8228 29.4727L28.8033 25.2539L30.5806 24.2188L34.6822 21.6602L34.4478 26.4648L34.4478 28.5156L30.7759 30.6055C30.1509 30.9766 29.9361 31.6406 30.2486 32.207C30.6002 32.832 31.2447 32.9492 31.9283 32.5781L34.4478 31.1523L34.4478 34.3359C34.4478 35.0781 34.9556 35.625 35.6588 35.625Z" fill="black" fill-opacity="0.85"/>
 </g>
</svg>
