<?xml version="1.0" encoding="UTF-8"?>
<!--Generator: Apple Native CoreSVG 326-->
<!DOCTYPE svg
PUBLIC "-//W3C//DTD SVG 1.1//EN"
       "http://www.w3.org/Graphics/SVG/1.1/DTD/svg11.dtd">
<svg version="1.1" xmlns="http://www.w3.org/2000/svg" xmlns:xlink="http://www.w3.org/1999/xlink" viewBox="0 0 51.25 50.918">
 <g>
  <rect height="50.918" opacity="0" width="51.25" x="0" y="0"/>
  <path d="M50.8789 25.4492C50.8789 39.4531 39.4531 50.8789 25.4297 50.8789C11.4258 50.8789 0 39.4531 0 25.4492C0 11.4258 11.4258 0 25.4297 0C39.4531 0 50.8789 11.4258 50.8789 25.4492ZM12.0117 25.4492C12.0117 32.8125 18.0859 38.8867 25.4492 38.8867C32.8125 38.8867 38.8867 32.8125 38.8867 25.4492C38.8867 18.0859 32.8125 12.0117 25.4297 12.0117C18.0664 12.0117 12.0117 18.0859 12.0117 25.4492ZM29.5898 14.6484L26.1914 17.3438L26.1914 20.8203L29.8047 23.5742L33.0859 22.2656L34.375 18.0859C36.0352 20.0977 37.0508 22.6562 37.0508 25.5273L33.6914 23.6523L30.2148 25.0586L28.8672 29.2188L30.7227 31.582L35.2148 31.6406C33.6914 34.0234 31.3672 35.8008 28.6133 36.582L29.5508 32.5586L27.8516 30.3711L23.0469 30.3711L21.3281 32.5391L22.2656 36.582C19.5312 35.8008 17.1875 34.0234 15.6836 31.6406L20.1758 31.582L22.0312 29.2383L20.6836 25.0586L17.207 23.6523L13.8477 25.5273C13.8477 22.6562 14.8633 20.0977 16.5234 18.0859L17.793 22.2461L21.0938 23.5742L24.6875 20.8203L24.6875 17.3438L21.3086 14.6484C22.5977 14.1406 24.0234 13.8672 25.4492 13.8672C26.8945 13.8672 28.2812 14.1211 29.5898 14.6484Z" fill="black" fill-opacity="0.85"/>
 </g>
</svg>
