<?xml version="1.0" encoding="UTF-8"?>
<!--Generator: Apple Native CoreSVG 326-->
<!DOCTYPE svg
PUBLIC "-//W3C//DTD SVG 1.1//EN"
       "http://www.w3.org/Graphics/SVG/1.1/DTD/svg11.dtd">
<svg version="1.1" xmlns="http://www.w3.org/2000/svg" xmlns:xlink="http://www.w3.org/1999/xlink" viewBox="0 0 61.543 63.1836">
 <g>
  <rect height="63.1836" opacity="0" width="61.543" x="0" y="0"/>
  <path d="M46.5107 6.95313L14.6805 6.95313C14.8057 5.18354 15.9546 4.16016 17.832 4.16016L43.3398 4.16016C45.2172 4.16016 46.3835 5.18354 46.5107 6.95313Z" fill="black" fill-opacity="0.85"/>
  <path d="M51.5514 13.7887C50.8512 13.6817 50.1095 13.6328 49.3359 13.6328L11.8359 13.6328C11.0621 13.6328 10.3205 13.6813 9.62066 13.7875C9.88629 11.7108 11.3173 10.5469 13.6133 10.5469L47.5586 10.5469C49.8551 10.5469 51.2861 11.7112 51.5514 13.7887Z" fill="black" fill-opacity="0.85"/>
  <path d="M56.9336 25.3906L56.9336 51.4258C56.9336 56.4062 54.375 58.9648 49.3359 58.9648L11.8359 58.9648C6.77734 58.9648 4.23828 56.4258 4.23828 51.4258L4.23828 25.3906C4.23828 20.3906 6.77734 17.8711 11.8359 17.8711L49.3359 17.8711C54.375 17.8711 56.9336 20.4102 56.9336 25.3906ZM20.5859 42.2266C19.9023 45.8984 20.1758 46.2305 15.918 46.875C15.6055 46.9141 15.4102 47.168 15.4102 47.4805C15.4102 47.832 15.6055 48.0273 15.957 48.0859C20.1758 48.6719 19.9023 49.0039 20.5859 52.7148C20.6836 53.0469 20.8789 53.2617 21.2109 53.2617C21.5234 53.2617 21.7383 53.0664 21.8164 52.7734C22.4805 49.0039 22.2656 48.6719 26.5039 48.0859C26.8164 48.0273 27.0312 47.7734 27.0312 47.4805C27.0312 47.168 26.8164 46.9141 26.5039 46.875C22.2852 46.2305 22.4805 45.8984 21.8164 42.2266C21.7383 41.8945 21.543 41.6602 21.2109 41.6602C20.8984 41.6602 20.6836 41.875 20.5859 42.2266ZM30.5859 25.918C29.1602 34.1016 28.5156 35.2148 20.2344 36.3281C19.7461 36.3867 19.4531 36.7383 19.4531 37.1484C19.4531 37.6172 19.7461 37.9492 20.2344 38.0078C28.5547 38.6328 29.4531 40.293 30.5859 48.3984C30.6641 48.8477 30.9766 49.1602 31.4648 49.1602C31.8945 49.1602 32.207 48.8477 32.3047 48.418C33.6914 40.293 34.375 39.1016 42.6953 38.0078C43.1445 37.9492 43.457 37.6172 43.457 37.1484C43.457 36.7383 43.1445 36.3867 42.6953 36.3281C34.3945 35.2148 33.4961 33.9844 32.3047 25.9375C32.2266 25.4883 31.8945 25.1758 31.4648 25.1758C31.0156 25.1758 30.7031 25.4688 30.5859 25.918Z" fill="black" fill-opacity="0.85"/>
 </g>
</svg>
