<?xml version="1.0" encoding="UTF-8"?>
<!--Generator: Apple Native CoreSVG 326-->
<!DOCTYPE svg
PUBLIC "-//W3C//DTD SVG 1.1//EN"
       "http://www.w3.org/Graphics/SVG/1.1/DTD/svg11.dtd">
<svg version="1.1" xmlns="http://www.w3.org/2000/svg" xmlns:xlink="http://www.w3.org/1999/xlink" viewBox="0 0 51.4844 39.8633">
 <g>
  <rect height="39.8633" opacity="0" width="51.4844" x="0" y="0"/>
  <path d="M19.9609 10.0977L31.1328 10.0977C32.8711 10.0977 34.043 8.92578 34.043 7.20703L34.043 4.98047C34.043 2.03125 31.9336 0.0195312 28.8086 0.0195312L22.2852 0.0195312C19.1797 0.0195312 17.0703 2.03125 17.0703 4.98047L17.0703 7.20703C17.0703 8.92578 18.2422 10.0977 19.9609 10.0977ZM21.9336 15.7812L29.1992 15.7812L29.1992 8.80859L21.9336 8.80859ZM19.9805 24.375L31.1328 24.375C32.8711 24.375 34.043 23.2031 34.043 21.4844L34.043 16.9922C34.043 15.2734 32.8711 14.1016 31.1328 14.1016L19.9805 14.1016C18.2617 14.1016 17.0898 15.2734 17.0898 16.9922L17.0898 21.4844C17.0898 23.2031 18.2617 24.375 19.9805 24.375ZM21.9336 37.7734L29.1992 37.7734L29.1992 23.0273L21.9336 23.0273ZM0 38.125C0 39.082 0.78125 39.8633 1.73828 39.8633L49.3945 39.8633C50.332 39.8633 51.1133 39.082 51.1133 38.125C51.1133 37.1875 50.332 36.4062 49.3945 36.4062L1.73828 36.4062C0.78125 36.4062 0 37.1875 0 38.125Z" fill="black" fill-opacity="0.85"/>
 </g>
</svg>
