<?xml version="1.0" encoding="UTF-8"?>
<!--Generator: Apple Native CoreSVG 326-->
<!DOCTYPE svg
PUBLIC "-//W3C//DTD SVG 1.1//EN"
       "http://www.w3.org/Graphics/SVG/1.1/DTD/svg11.dtd">
<svg version="1.1" xmlns="http://www.w3.org/2000/svg" xmlns:xlink="http://www.w3.org/1999/xlink" viewBox="0 0 51.25 50.918">
 <g>
  <rect height="50.918" opacity="0" width="51.25" x="0" y="0"/>
  <path d="M50.8789 25.4688C50.8789 39.4922 39.4531 50.918 25.4297 50.918C11.4258 50.918 0 39.4922 0 25.4688C0 11.4648 11.4258 0.0390625 25.4297 0.0390625C39.4531 0.0390625 50.8789 11.4648 50.8789 25.4688ZM17.4219 14.1406C14.668 14.1406 13.1641 15.6641 13.1641 18.3789L13.1641 33.5742C13.1641 36.3086 14.668 37.793 17.4219 37.793L32.8125 37.793C35.2539 37.793 36.7578 36.3086 36.7578 33.5742L36.7578 19.7266L34.375 22.1289L34.375 33.457C34.375 34.7266 33.7109 35.3711 32.793 35.3711L17.4609 35.3711C16.2305 35.3711 15.5664 34.7266 15.5664 33.457L15.5664 18.4961C15.5664 17.207 16.2305 16.5625 17.4609 16.5625L28.9062 16.5625L31.3086 14.1406ZM22.9688 25.9961L21.8359 28.3203C21.6016 28.8086 22.1094 29.2578 22.5781 29.082L24.9805 28.0469L36.9727 16.0547L34.9023 14.0234ZM37.0703 11.875L35.9961 12.9297L38.0664 14.9609L39.1016 13.8281C39.6289 13.2812 39.6094 12.5586 39.1406 12.1094L38.8477 11.8359C38.3789 11.3477 37.5977 11.3281 37.0703 11.875Z" fill="black" fill-opacity="0.85"/>
 </g>
</svg>
