<?xml version="1.0" encoding="UTF-8"?>
<!--Generator: Apple Native CoreSVG 326-->
<!DOCTYPE svg
PUBLIC "-//W3C//DTD SVG 1.1//EN"
       "http://www.w3.org/Graphics/SVG/1.1/DTD/svg11.dtd">
<svg version="1.1" xmlns="http://www.w3.org/2000/svg" xmlns:xlink="http://www.w3.org/1999/xlink" viewBox="0 0 49.4922 56.7855">
 <g>
  <rect height="56.7855" opacity="0" width="49.4922" x="0" y="0"/>
  <path d="M26.0352 0.590008L46.3477 12.3283C48.3984 13.5197 49.1211 14.7892 49.1211 17.1134L49.1211 40.2775C49.1211 44.047 46.7969 45.2384 43.6914 43.4416L39.0234 40.7448L39.0234 36.6063L45.1172 40.1213C45.4297 40.297 45.625 40.1603 45.625 39.8478L45.625 17.2306C45.625 16.2541 45.3516 15.9025 44.5898 15.4533L25 4.12516C24.6875 3.94938 24.4141 4.10563 24.4141 4.4572L24.4141 11.4407L20.918 9.41896L20.918 3.30485C20.918 0.179852 23.6914-0.738117 26.0352 0.590008Z" fill="black" fill-opacity="0.85"/>
  <path d="M15.918 6.52751L36.25 18.2853C38.2812 19.4572 39.0234 20.7267 39.0234 23.0509L39.0234 46.215C39.0234 50.0041 36.6992 51.1759 33.5742 49.3791L28.2227 46.2844L28.2227 42.1456L35 46.0588C35.332 46.2345 35.5273 46.0978 35.5273 45.8049L35.5273 23.1681C35.5273 22.1916 35.2344 21.84 34.4727 21.3908L14.8828 10.0822C14.5703 9.88688 14.2969 10.0431 14.2969 10.3947L14.2969 18.1642L10.8008 16.1424L10.8008 9.24235C10.8008 6.11735 13.5938 5.19938 15.918 6.52751Z" fill="black" fill-opacity="0.85"/>
  <path d="M28.2227 29.3986C28.2227 27.0744 27.4805 25.7853 25.4492 24.6134L5.11719 12.8556C2.79297 11.5275 0 12.465 0 15.5705L0 39.3009C0 41.6838 0.585938 42.8947 2.8125 44.1838L22.7734 55.7072C25.8984 57.5041 28.2227 56.3322 28.2227 52.5627ZM23.6719 27.7384C24.4336 28.1877 24.707 28.5197 24.707 29.5158L24.707 52.133C24.707 52.4455 24.5117 52.5822 24.1992 52.4064L4.51172 41.0392C3.71094 40.5705 3.49609 40.1799 3.49609 39.2424L3.49609 16.7228C3.49609 16.3908 3.76953 16.2345 4.08203 16.4103Z" fill="black" fill-opacity="0.85"/>
 </g>
</svg>
