<?xml version="1.0" encoding="UTF-8"?>
<!--Generator: Apple Native CoreSVG 326-->
<!DOCTYPE svg
PUBLIC "-//W3C//DTD SVG 1.1//EN"
       "http://www.w3.org/Graphics/SVG/1.1/DTD/svg11.dtd">
<svg version="1.1" xmlns="http://www.w3.org/2000/svg" xmlns:xlink="http://www.w3.org/1999/xlink" viewBox="0 0 56.9141 76.5039">
 <g>
  <rect height="76.5039" opacity="0" width="56.9141" x="0" y="0"/>
  <path d="M56.543 38.5938L56.543 63.6328C56.543 68.6133 54.0039 71.1719 48.9453 71.1719L19.9805 71.1719C14.9414 71.1719 12.3633 68.6328 12.3633 63.6328L12.3633 59.8828L15.8398 59.8828L15.8398 63.457C15.8398 66.25 17.3242 67.6953 20.0391 67.6953L48.8867 67.6953C51.5625 67.6953 53.0859 66.25 53.0859 63.457L53.0859 38.7891C53.0859 35.9766 51.5625 34.5312 48.8867 34.5312L44.1797 34.5313L44.1797 31.0742L48.9453 31.0742C54.0039 31.0742 56.543 33.6328 56.543 38.5938Z" fill="black" fill-opacity="0.85"/>
  <path d="M44.1797 27.3242L44.1797 52.3633C44.1797 57.3438 41.6406 59.8828 36.582 59.8828L7.59766 59.8828C2.55859 59.8828 0 57.3633 0 52.3633L0 27.3242C0 22.3242 2.55859 19.8047 7.59766 19.8047L15.9766 19.8047L15.9766 23.2617L7.67578 23.2617C4.94141 23.2617 3.45703 24.707 3.45703 27.5195L3.45703 52.1875C3.45703 54.9805 4.94141 56.4258 7.67578 56.4258L36.5039 56.4258C39.1797 56.4258 40.7227 54.9805 40.7227 52.1875L40.7227 27.5195C40.7227 24.707 39.1797 23.2617 36.5039 23.2617L28.2031 23.2617L28.2031 19.8047L36.582 19.8047C41.6406 19.8047 44.1797 22.3633 44.1797 27.3242Z" fill="black" fill-opacity="0.85"/>
  <path d="M22.0898 40.3711C23.0078 40.3711 23.8086 39.6094 23.8086 38.7109L23.8086 12.5195L23.6719 8.80859L25.2148 10.4102L29.4531 14.8828C29.7656 15.2148 30.2148 15.3906 30.625 15.3906C31.5234 15.3906 32.207 14.7461 32.207 13.8672C32.207 13.418 32.0117 13.0664 31.6992 12.7539L23.3398 4.60938C22.9102 4.17969 22.5195 4.04297 22.0898 4.04297C21.6602 4.04297 21.2695 4.17969 20.8398 4.60938L12.4805 12.7539C12.1484 13.0664 11.9727 13.418 11.9727 13.8672C11.9727 14.7461 12.6172 15.3906 13.5156 15.3906C13.9258 15.3906 14.3945 15.2148 14.707 14.8828L18.9648 10.4102L20.5078 8.80859L20.3711 12.5195L20.3711 38.7109C20.3711 39.6094 21.1719 40.3711 22.0898 40.3711Z" fill="black" fill-opacity="0.85"/>
 </g>
</svg>
