<?xml version="1.0" encoding="UTF-8"?>
<!--Generator: Apple Native CoreSVG 326-->
<!DOCTYPE svg
PUBLIC "-//W3C//DTD SVG 1.1//EN"
       "http://www.w3.org/Graphics/SVG/1.1/DTD/svg11.dtd">
<svg version="1.1" xmlns="http://www.w3.org/2000/svg" xmlns:xlink="http://www.w3.org/1999/xlink" viewBox="0 0 48.0273 52.2852">
 <g>
  <rect height="52.2852" opacity="0" width="48.0273" x="0" y="0"/>
  <path d="M23.6328 52.2852L23.9648 52.2852C27.4414 52.2852 28.7305 51.1914 28.7305 47.7734L28.7305 31.5234L26.0156 33.0078L40.1367 41.1523C41.2305 41.7578 42.1094 42.1094 42.9102 42.1094C44.2773 42.1094 45.2344 41.1914 46.3672 39.4141L46.543 39.1211C47.2852 37.9688 47.6562 36.9727 47.6562 36.1328C47.6562 34.7461 46.7188 33.7305 44.9805 32.7539L30.6445 24.4727L30.6445 27.4805L44.9609 19.5312C46.7188 18.5938 47.5977 17.5781 47.5977 16.2109C47.5977 15.3516 47.2266 14.3945 46.582 13.2227L46.4062 12.9102C45.293 11.0547 44.2773 10.1367 42.9297 10.1367C42.1289 10.1367 41.2109 10.5078 40.1172 11.0938L26.0352 19.2578L28.7305 20.7422L28.7305 4.51172C28.7305 1.09375 27.4414 0 23.9648 0L23.6328 0C20.1367 0 18.8672 1.09375 18.8672 4.51172L18.8672 20.7422L21.6016 19.2578L7.5 11.0938C6.40625 10.4688 5.41016 10.0781 4.57031 10.0781C3.20312 10.0781 2.10938 11.0156 1.19141 12.9492L1.03516 13.2227C0.449219 14.4141 0.0976562 15.3906 0.0976562 16.25C0.0976562 17.5586 0.917969 18.5742 2.67578 19.5508L16.9922 27.4805L16.9922 24.4727L2.65625 32.7539C0.917969 33.7305 0 34.7266 0 36.0938C0 36.9336 0.390625 37.9297 1.05469 39.1016L1.21094 39.3555C2.28516 41.2109 3.26172 42.1289 4.66797 42.1289C5.46875 42.1289 6.40625 41.7578 7.5 41.1523L21.6016 33.0078L18.8672 31.5234L18.8672 47.7734C18.8672 51.1914 20.1367 52.2852 23.6328 52.2852Z" fill="black" fill-opacity="0.85"/>
 </g>
</svg>
