<?xml version="1.0" encoding="UTF-8"?>
<!--Generator: Apple Native CoreSVG 326-->
<!DOCTYPE svg
PUBLIC "-//W3C//DTD SVG 1.1//EN"
       "http://www.w3.org/Graphics/SVG/1.1/DTD/svg11.dtd">
<svg version="1.1" xmlns="http://www.w3.org/2000/svg" xmlns:xlink="http://www.w3.org/1999/xlink" viewBox="0 0 46.2891 45.918">
 <g>
  <rect height="45.918" opacity="0" width="46.2891" x="0" y="0"/>
  <path d="M7.59766 45.918L38.3008 45.918C43.3594 45.918 45.918 43.3594 45.918 38.3984L45.918 7.53906C45.918 2.55859 43.3594 0 38.3008 0L7.59766 0C2.55859 0 0 2.53906 0 7.53906L0 38.3984C0 43.3984 2.55859 45.918 7.59766 45.918ZM7.67578 42.4609C4.94141 42.4609 3.45703 41.0156 3.45703 38.2031L3.45703 7.71484C3.45703 4.92188 4.94141 3.45703 7.67578 3.45703L38.2422 3.45703C40.918 3.45703 42.4609 4.92188 42.4609 7.71484L42.4609 38.2031C42.4609 41.0156 40.918 42.4609 38.2422 42.4609Z" fill="black" fill-opacity="0.85"/>
  <path d="M15.5859 35.8984L22.9688 30.5078L30.3516 35.8984C31.6406 36.875 33.0273 35.8789 32.5195 34.3359L29.6094 25.625L37.0703 20.3125C38.2031 19.4727 37.8711 17.7148 36.2305 17.7344L27.0898 17.793L24.2969 9.04297C23.8281 7.57812 22.1094 7.57812 21.6406 9.04297L18.8477 17.793L9.70703 17.7344C8.08594 17.7148 7.67578 19.4336 8.88672 20.332L16.3281 25.625L13.4375 34.3359C12.9297 35.8789 14.3164 36.875 15.5859 35.8984Z" fill="black" fill-opacity="0.85"/>
 </g>
</svg>
