<?xml version="1.0" encoding="UTF-8"?>
<!--Generator: Apple Native CoreSVG 326-->
<!DOCTYPE svg
PUBLIC "-//W3C//DTD SVG 1.1//EN"
       "http://www.w3.org/Graphics/SVG/1.1/DTD/svg11.dtd">
<svg version="1.1" xmlns="http://www.w3.org/2000/svg" xmlns:xlink="http://www.w3.org/1999/xlink" viewBox="0 0 70.0097 63.4934">
 <g>
  <rect height="63.4934" opacity="0" width="70.0097" x="0" y="0"/>
  <path d="M34.8095 57.1666C48.8525 57.1666 60.2587 45.7799 60.2587 31.737C60.2587 17.694 48.8525 6.28773 34.8095 6.28773C20.7666 6.28773 9.37984 17.694 9.37984 31.737C9.37984 45.7799 20.7666 57.1666 34.8095 57.1666ZM16.2744 20.5651C19.9267 14.2174 26.8603 9.94008 34.7705 9.94008C42.7002 9.94008 49.6337 14.2174 53.2861 20.526C54.1455 21.776 53.6962 23.1432 52.2509 23.1432L17.3291 23.1432C15.8837 23.1432 15.4345 21.776 16.2744 20.5651ZM34.79 38.7682C31.7431 38.7682 29.2822 36.3268 29.2822 33.2604C29.2822 30.2135 31.7431 27.7721 34.79 27.7721C37.8369 27.7721 40.2978 30.2135 40.2978 33.2604C40.2978 36.3268 37.8369 38.7682 34.79 38.7682ZM13.7158 37.2448C13.3447 35.8776 14.0673 35.194 15.2783 35.3307C22.8955 35.9948 28.872 42.694 28.4423 50.4284C28.4228 51.6198 27.5244 52.362 26.3134 51.7955C20.0439 49.1393 15.3955 43.7682 13.7158 37.2448ZM55.8642 37.2448C54.2041 43.7682 49.5361 49.1393 43.2861 51.7955C42.0556 52.362 41.1767 51.6198 41.1572 50.4284C40.7275 42.733 46.6455 35.9948 54.3212 35.3307C55.5127 35.194 56.2548 35.8776 55.8642 37.2448Z" fill="black" fill-opacity="0.85"/>
  <path d="M9.08687 16.7174L1.80172 12.6745C0.805623 12.108-0.0732831 12.6549 0.00484186 13.8854L0.532186 21.2291C0.590779 22.2838 1.41109 22.7526 2.36812 22.2448L8.93062 18.8659C10.122 18.2604 10.0634 17.2643 9.08687 16.7174ZM20.4345 0.93617C20.0048 0.0572638 19.0087-0.274767 18.0517 0.252576C11.372 3.84633 5.90328 9.52992 2.6025 16.444L5.6689 17.8698C8.61812 11.6002 13.5205 6.46351 19.6337 3.22133C20.4931 2.73305 20.8447 1.81508 20.4345 0.93617ZM60.5517 16.7174C59.5752 17.2643 59.5166 18.2799 60.6884 18.8659L67.2509 22.2448C68.2275 22.7526 69.0087 22.2838 69.0869 21.2291L69.6142 13.8854C69.7119 12.6549 68.833 12.108 67.8369 12.6745ZM49.2041 0.93617C48.7939 1.81508 49.1259 2.73305 50.0048 3.22133C56.1181 6.46351 61.0205 11.6002 63.9697 17.8698L67.0361 16.444C63.7353 9.52992 58.2666 3.84633 51.5673 0.252576C50.6298-0.274767 49.6142 0.0572638 49.2041 0.93617Z" fill="black" fill-opacity="0.85"/>
 </g>
</svg>
