<?xml version="1.0" encoding="UTF-8"?>
<!--Generator: Apple Native CoreSVG 326-->
<!DOCTYPE svg
PUBLIC "-//W3C//DTD SVG 1.1//EN"
       "http://www.w3.org/Graphics/SVG/1.1/DTD/svg11.dtd">
<svg version="1.1" xmlns="http://www.w3.org/2000/svg" xmlns:xlink="http://www.w3.org/1999/xlink" viewBox="0 0 65.1367 50.918">
 <g>
  <rect height="50.918" opacity="0" width="65.1367" x="0" y="0"/>
  <path d="M61.7969 41.9141C63.418 41.9141 64.7656 40.5859 64.7656 39.043C64.7656 37.4414 63.4375 36.1523 61.7969 36.1523C60.1562 36.1523 58.8281 37.4414 58.8281 39.043C58.8281 40.5859 60.1758 41.9141 61.7969 41.9141ZM61.7969 31.0352C62.8516 31.0352 63.5938 30.2734 63.6328 29.1992L64.0625 11.2109C64.1016 9.84375 63.2031 8.94531 61.7969 8.94531C60.3906 8.94531 59.4922 9.84375 59.5312 11.2109L59.9609 29.1992C60 30.2734 60.7422 31.0352 61.7969 31.0352Z" fill="black" fill-opacity="0.85"/>
  <path d="M25.4297 50.8789C39.4727 50.8789 50.8789 39.4922 50.8789 25.4492C50.8789 11.4062 39.4727 0 25.4297 0C11.3867 0 0 11.4062 0 25.4492C0 39.4922 11.3867 50.8789 25.4297 50.8789ZM6.91406 14.2773C10.5469 7.92969 17.4805 3.65234 25.3906 3.65234C33.3203 3.65234 40.2539 7.92969 43.9062 14.2383C44.7656 15.4883 44.3164 16.8555 42.8711 16.8555L7.94922 16.8555C6.50391 16.8555 6.05469 15.4883 6.91406 14.2773ZM25.4102 32.4805C22.3633 32.4805 19.9023 30.0391 19.9023 26.9727C19.9023 23.9258 22.3633 21.4844 25.4102 21.4844C28.457 21.4844 30.918 23.9258 30.918 26.9727C30.918 30.0391 28.457 32.4805 25.4102 32.4805ZM4.33594 30.957C3.96484 29.5898 4.6875 28.9062 5.89844 29.043C13.5156 29.707 19.4922 36.4062 19.0625 44.1406C19.043 45.332 18.1445 46.0742 16.9336 45.5078C10.6641 42.8516 6.01562 37.4805 4.33594 30.957ZM46.4844 30.957C44.8242 37.4805 40.1562 42.8516 33.9062 45.5078C32.6758 46.0742 31.7969 45.332 31.7773 44.1406C31.3477 36.4453 37.2656 29.707 44.9414 29.043C46.1328 28.9062 46.875 29.5898 46.4844 30.957Z" fill="black" fill-opacity="0.85"/>
 </g>
</svg>
