<?xml version="1.0" encoding="UTF-8"?>
<!--Generator: Apple Native CoreSVG 326-->
<!DOCTYPE svg
PUBLIC "-//W3C//DTD SVG 1.1//EN"
       "http://www.w3.org/Graphics/SVG/1.1/DTD/svg11.dtd">
<svg version="1.1" xmlns="http://www.w3.org/2000/svg" xmlns:xlink="http://www.w3.org/1999/xlink" viewBox="0 0 46.2891 45.918">
 <g>
  <rect height="45.918" opacity="0" width="46.2891" x="0" y="0"/>
  <path d="M45.918 7.53906L45.918 38.3984C45.918 43.3594 43.3594 45.918 38.3008 45.918L7.59766 45.918C2.55859 45.918 0 43.3984 0 38.3984L0 7.53906C0 2.53906 2.55859 0 7.59766 0L38.3008 0C43.3594 0 45.918 2.55859 45.918 7.53906ZM16.9531 18.6719C16.9531 19.7461 17.1094 20.7617 17.5 21.9727L14.6875 21.9727C14.1016 21.9727 13.6719 22.3828 13.6719 22.9102C13.6719 23.4375 14.1016 23.8477 14.6875 23.8477L17.9883 23.8477C18.2422 24.7656 18.3984 25.625 18.3984 26.4844C18.3984 28.9844 17.0312 30.8594 14.668 31.6602C14.043 31.8945 13.5938 32.3047 13.5938 32.9688C13.5938 33.6523 14.1016 34.1602 14.7852 34.1602L30.0977 34.1602C30.7812 34.1602 31.3281 33.6914 31.3281 33.0078C31.3281 32.3633 30.7812 31.875 30.0977 31.875L17.9297 31.875L17.9297 31.7578C20.0195 31.0352 21.0352 28.6133 21.0352 26.3672C21.0352 25.4102 20.9375 24.5703 20.7422 23.8477L27.4805 23.8477C28.0664 23.8477 28.5156 23.4375 28.5156 22.9102C28.5156 22.3633 28.0469 21.9727 27.4805 21.9727L20.2148 21.9727C19.8438 20.5469 19.707 19.668 19.707 18.5938C19.707 15.6641 21.875 13.8281 25.332 13.8281C26.5039 13.8281 27.3438 14.0039 28.1055 14.2188C28.5156 14.3359 28.9258 14.4141 29.2188 14.4141C29.8633 14.4141 30.2344 14.043 30.2344 13.418C30.2344 12.793 29.8047 12.4414 29.1992 12.207C27.8516 11.6797 26.7383 11.5234 25.0586 11.5234C20.2148 11.5234 16.9531 14.1797 16.9531 18.6719Z" fill="black" fill-opacity="0.85"/>
 </g>
</svg>
