<?xml version="1.0" encoding="UTF-8"?>
<!--Generator: Apple Native CoreSVG 326-->
<!DOCTYPE svg
PUBLIC "-//W3C//DTD SVG 1.1//EN"
       "http://www.w3.org/Graphics/SVG/1.1/DTD/svg11.dtd">
<svg version="1.1" xmlns="http://www.w3.org/2000/svg" xmlns:xlink="http://www.w3.org/1999/xlink" viewBox="0 0 51.25 50.918">
 <g>
  <rect height="50.918" opacity="0" width="51.25" x="0" y="0"/>
  <path d="M50.8789 25.4688C50.8789 39.4922 39.4531 50.918 25.4297 50.918C11.4258 50.918 0 39.4922 0 25.4688C0 11.4648 11.4258 0.0390625 25.4297 0.0390625C39.4531 0.0390625 50.8789 11.4648 50.8789 25.4688ZM19.4922 14.3555C19.4922 15.5078 20.4492 16.4648 21.6016 16.4648C22.2461 16.4648 22.8516 16.1328 23.2227 15.6445L23.6133 15.6445C24.6875 15.6445 25.1953 16.25 25.1953 17.5391C25.1953 22.0508 21.1914 28.0273 18.1836 28.0273C15.1953 28.0273 11.1914 22.0312 11.1914 17.5391C11.1914 16.2305 11.6992 15.6445 12.7734 15.6445L13.1445 15.6445C13.5156 16.1328 14.1211 16.4648 14.7852 16.4648C15.9375 16.4648 16.875 15.5078 16.875 14.3555C16.875 13.2031 15.9375 12.2852 14.7852 12.2852C14.1016 12.2852 13.4961 12.6172 13.1055 13.125L12.9297 13.125C10.1367 13.125 8.67188 14.668 8.67188 17.5391C8.67188 22.8906 12.9688 29.4531 16.9336 30.4102C17.1289 36.3477 19.4141 39.668 23.4375 39.668C27.3633 39.668 29.4727 36.8555 30.5078 30.332C31.1523 26.2695 32.1094 24.707 33.8281 24.707C35.4492 24.707 36.4062 26.2891 36.6992 29.7461C34.9609 30.293 33.7109 31.8945 33.7109 33.8281C33.7109 36.25 35.6055 38.1641 38.0469 38.1641C40.4688 38.1641 42.4023 36.2305 42.4023 33.8281C42.4023 31.8359 41.0156 30.1562 39.1797 29.668C38.6523 24.6484 36.9531 22.207 33.8281 22.207C30.6445 22.207 28.9844 24.4141 28.0078 29.7852C27.1484 34.8828 26.1523 37.1484 23.3594 37.1484C20.9766 37.1484 19.5898 34.8047 19.4336 30.4102C23.3984 29.4727 27.7148 22.9297 27.7148 17.5391C27.7148 14.6484 26.2695 13.125 23.457 13.125L23.2617 13.125C22.8906 12.6172 22.2852 12.2852 21.6016 12.2852C20.4492 12.2852 19.4922 13.2031 19.4922 14.3555ZM40.0977 33.8281C40.0977 34.9414 39.1602 35.8789 38.0469 35.8789C36.9336 35.8789 36.0156 34.9414 36.0156 33.8281C36.0156 32.6953 36.9336 31.7773 38.0469 31.7773C39.1797 31.7773 40.0977 32.6953 40.0977 33.8281Z" fill="black" fill-opacity="0.85"/>
 </g>
</svg>
