<?xml version="1.0" encoding="UTF-8"?>
<!--Generator: Apple Native CoreSVG 326-->
<!DOCTYPE svg
PUBLIC "-//W3C//DTD SVG 1.1//EN"
       "http://www.w3.org/Graphics/SVG/1.1/DTD/svg11.dtd">
<svg version="1.1" xmlns="http://www.w3.org/2000/svg" xmlns:xlink="http://www.w3.org/1999/xlink" viewBox="0 0 47.793 48.1055">
 <g>
  <rect height="48.1055" opacity="0" width="47.793" x="0" y="0"/>
  <path d="M0 12.9492L47.4219 12.9492L47.4219 5.15625C47.4219 2.07031 45.4492 0 42.5 0L4.92188 0C1.97266 0 0 2.07031 0 5.15625ZM9.96094 9.57031C8.59375 9.57031 7.46094 8.47656 7.46094 7.10938C7.46094 5.72266 8.59375 4.62891 9.96094 4.62891C11.3281 4.62891 12.4609 5.72266 12.4609 7.10938C12.4609 8.47656 11.3281 9.57031 9.96094 9.57031ZM19.1016 9.57031C17.7148 9.57031 16.582 8.47656 16.582 7.10938C16.582 5.72266 17.7148 4.62891 19.1016 4.62891C20.4492 4.62891 21.582 5.72266 21.582 7.10938C21.582 8.47656 20.4492 9.57031 19.1016 9.57031ZM28.1836 9.57031C26.8359 9.57031 25.7031 8.47656 25.7031 7.10938C25.7031 5.72266 26.8359 4.62891 28.1836 4.62891C29.5703 4.62891 30.7031 5.72266 30.7031 7.10938C30.7031 8.47656 29.5703 9.57031 28.1836 9.57031ZM37.3242 9.57031C35.957 9.57031 34.8242 8.47656 34.8242 7.10938C34.8242 5.72266 35.957 4.62891 37.3242 4.62891C38.6914 4.62891 39.8242 5.72266 39.8242 7.10938C39.8242 8.47656 38.6914 9.57031 37.3242 9.57031ZM4.92188 43.7305L42.5 43.7305C45.4492 43.7305 47.4219 41.6797 47.4219 38.5742L47.4219 15.4297L0 15.4297L0 38.5742C0 41.6797 1.97266 43.7305 4.92188 43.7305ZM8.59375 37.7148C7.08984 37.7148 6.11328 36.7383 6.11328 35.2344L6.11328 22.207C6.11328 20.7031 7.08984 19.7266 8.59375 19.7266L38.8281 19.7266C40.332 19.7266 41.3086 20.7031 41.3086 22.207L41.3086 35.2344C41.3086 36.7383 40.332 37.7148 38.8281 37.7148ZM9.39453 35.2344L38.0273 35.2344C38.4961 35.2344 38.8281 34.8828 38.8281 34.3945L38.8281 23.0273C38.8281 22.5391 38.4961 22.1875 38.0273 22.1875L9.39453 22.1875C8.92578 22.1875 8.59375 22.5391 8.59375 23.0273L8.59375 34.3945C8.59375 34.8828 8.92578 35.2344 9.39453 35.2344ZM6.71875 48.1055C7.75391 48.1055 8.45703 47.4023 8.45703 46.3867L8.45703 41.6016L5 41.6016L5 46.3867C5 47.4023 5.70312 48.1055 6.71875 48.1055ZM40.6836 48.1055C41.7188 48.1055 42.4219 47.4023 42.4219 46.3867L42.4219 41.6016L38.9648 41.6016L38.9648 46.3867C38.9648 47.4023 39.668 48.1055 40.6836 48.1055Z" fill="black" fill-opacity="0.85"/>
 </g>
</svg>
