<?xml version="1.0" encoding="UTF-8"?>
<!--Generator: Apple Native CoreSVG 326-->
<!DOCTYPE svg
PUBLIC "-//W3C//DTD SVG 1.1//EN"
       "http://www.w3.org/Graphics/SVG/1.1/DTD/svg11.dtd">
<svg version="1.1" xmlns="http://www.w3.org/2000/svg" xmlns:xlink="http://www.w3.org/1999/xlink" viewBox="0 0 64.2188 63.6914">
 <g>
  <rect height="63.6914" opacity="0" width="64.2188" x="0" y="0"/>
  <path d="M45.4297 30.6055C45.4297 32.5606 44.9987 34.4291 44.2168 36.1133L19.6503 36.1133C18.8685 34.4291 18.4375 32.5606 18.4375 30.6055C18.4375 23.2227 24.5508 17.0898 31.9336 17.0898C39.3164 17.0898 45.4297 23.2227 45.4297 30.6055ZM13.5547 29.9805C13.5742 30.957 12.7539 31.7188 11.6602 31.7188L4.72656 31.7188C3.65234 31.7188 2.85156 30.9375 2.85156 29.9805C2.85156 29.0234 3.65234 28.2422 4.72656 28.2422L11.6602 28.2422C12.7539 28.2422 13.5352 29.043 13.5547 29.9805ZM61.0156 29.9805C61.0156 30.957 60.2148 31.7383 59.1211 31.7188L52.207 31.7188C51.1133 31.7188 50.3125 30.9375 50.293 29.9805C50.2734 29.0234 51.1133 28.2422 52.207 28.2422L59.1211 28.2422C60.2148 28.2617 61.0156 29.043 61.0156 29.9805ZM13.9258 10.1562L18.8281 15.0586C19.5898 15.8203 19.5898 16.9531 18.9258 17.6367C18.2812 18.3203 17.1289 18.3008 16.3477 17.5195L11.4648 12.6367C10.6641 11.8359 10.6836 10.7422 11.3672 10.0781C12.0312 9.41406 13.1445 9.375 13.9258 10.1562ZM52.4805 10.0781C53.1641 10.7617 53.1836 11.8359 52.4023 12.6367L47.5 17.5195C46.7383 18.3008 45.6055 18.3008 44.9219 17.6367C44.2383 16.9727 44.2578 15.8203 45.0391 15.0586L49.9219 10.1562C50.7227 9.375 51.8359 9.39453 52.4805 10.0781ZM33.6719 3.4375L33.6719 10.3516C33.6719 11.4453 32.8906 12.2461 31.9336 12.2656C30.9766 12.2852 30.1953 11.4453 30.1953 10.3516L30.1953 3.4375C30.1953 2.34375 30.9766 1.54297 31.9336 1.54297C32.8906 1.54297 33.6719 2.34375 33.6719 3.4375Z" fill="black" fill-opacity="0.85"/>
  <path d="M17.9688 54.2383C18.418 54.2383 18.7109 53.8281 18.6914 53.3594L18.5547 50.8984L20.625 52.2656C20.9961 52.5 21.5039 52.4219 21.7578 52.0508C21.9922 51.6797 21.8359 51.1523 21.3672 50.918L19.1797 49.8242L21.3867 48.6914C21.8359 48.4766 21.9727 47.9688 21.7773 47.5977C21.543 47.1875 20.9961 47.1289 20.625 47.3828L18.5547 48.7695L18.7109 46.2891C18.75 45.8203 18.418 45.4297 17.9688 45.4297C17.4609 45.4297 17.1875 45.8203 17.207 46.2891L17.3438 48.7695L15.2539 47.3828C14.8828 47.1289 14.375 47.168 14.1602 47.5977C13.9258 47.9688 14.0625 48.4766 14.5117 48.6914L16.7188 49.8242L14.5117 50.9375C14.043 51.1719 13.9062 51.6602 14.1211 52.0508C14.3359 52.4609 14.8828 52.5195 15.2539 52.2656L17.3438 50.918L17.2266 53.3594C17.207 53.8281 17.4609 54.2383 17.9688 54.2383ZM31.9336 54.2383C32.3828 54.2383 32.6758 53.8281 32.6562 53.3594L32.5195 50.8984L34.5898 52.2656C34.9414 52.5 35.4688 52.4219 35.7227 52.0508C35.957 51.6797 35.8008 51.1523 35.332 50.918L33.125 49.8242L35.3516 48.6914C35.8008 48.4766 35.9375 47.9688 35.7422 47.5977C35.5078 47.1875 34.9414 47.1289 34.5898 47.3828L32.5195 48.7695L32.6758 46.2891C32.7148 45.8203 32.3828 45.4297 31.9336 45.4297C31.4258 45.4297 31.1328 45.8203 31.1523 46.2891L31.3086 48.7695L29.2188 47.3828C28.8477 47.1289 28.3398 47.168 28.1055 47.5977C27.8906 47.9688 28.0078 48.4766 28.457 48.6914L30.6836 49.8242L28.457 50.9375C28.0078 51.1719 27.8711 51.6602 28.0859 52.0508C28.3008 52.4609 28.8477 52.5195 29.2188 52.2656L31.3086 50.918L31.1719 53.3594C31.1523 53.8281 31.4258 54.2383 31.9336 54.2383ZM45.8984 54.2383C46.3477 54.2383 46.6406 53.8281 46.6211 53.3594L46.4844 50.8984L48.5352 52.2656C48.9062 52.5 49.4336 52.4219 49.6875 52.0508C49.9023 51.6797 49.7656 51.1523 49.2969 50.918L47.0898 49.8242L49.3164 48.6914C49.7656 48.4766 49.8828 47.9688 49.707 47.5977C49.4727 47.1875 48.9062 47.1289 48.5352 47.3828L46.4844 48.7695L46.6406 46.2891C46.6797 45.8203 46.3477 45.4297 45.8984 45.4297C45.3906 45.4297 45.0977 45.8203 45.1172 46.2891L45.2539 48.7695L43.1836 47.3828C42.8125 47.1289 42.3047 47.168 42.0703 47.5977C41.8555 47.9688 41.9727 48.4766 42.4219 48.6914L44.6289 49.8242L42.4219 50.9375C41.9531 51.1719 41.8359 51.6602 42.0508 52.0508C42.2656 52.4609 42.8125 52.5195 43.1836 52.2656L45.2539 50.918L45.1367 53.3594C45.1172 53.8281 45.3906 54.2383 45.8984 54.2383ZM12.5 63.6914C12.9492 63.6914 13.2422 63.2812 13.2227 62.8125L13.0859 60.3516L15.1562 61.7188C15.5273 61.9727 16.0352 61.8945 16.2891 61.5039C16.5234 61.1328 16.3672 60.6055 15.8984 60.3906L13.7109 59.2773L15.918 58.1641C16.3672 57.9297 16.5039 57.4414 16.3086 57.0508C16.0742 56.6602 15.5273 56.6016 15.1562 56.8359L13.0859 58.2422L13.2422 55.7422C13.2812 55.2734 12.9492 54.8828 12.5 54.8828C11.9922 54.8828 11.7188 55.2734 11.7383 55.7422L11.875 58.2422L9.78516 56.8359C9.41406 56.6016 8.92578 56.6406 8.69141 57.0508C8.45703 57.4414 8.59375 57.9297 9.04297 58.1641L11.25 59.2773L9.04297 60.3906C8.57422 60.625 8.4375 61.1133 8.65234 61.5039C8.86719 61.9141 9.41406 61.9727 9.78516 61.7383L11.875 60.3711L11.7578 62.8125C11.7383 63.2812 11.9922 63.6914 12.5 63.6914ZM26.4648 63.6914C26.9141 63.6914 27.207 63.2812 27.1875 62.8125L27.0508 60.3516L29.1211 61.7188C29.4727 61.9727 30 61.8945 30.2539 61.5039C30.4883 61.1328 30.332 60.6055 29.8633 60.3906L27.6562 59.2773L29.8828 58.1641C30.332 57.9297 30.4688 57.4414 30.2734 57.0508C30.0391 56.6602 29.4727 56.6016 29.1211 56.8359L27.0508 58.2422L27.207 55.7422C27.2461 55.2734 26.9141 54.8828 26.4648 54.8828C25.957 54.8828 25.6641 55.2734 25.6836 55.7422L25.8398 58.2422L23.75 56.8359C23.3789 56.6016 22.8711 56.6406 22.6367 57.0508C22.4219 57.4414 22.5391 57.9297 23.0078 58.1641L25.2148 59.2773L23.0078 60.3906C22.5391 60.625 22.4023 61.1133 22.6172 61.5039C22.832 61.9141 23.3789 61.9727 23.75 61.7383L25.8398 60.3711L25.7031 62.8125C25.6836 63.2812 25.957 63.6914 26.4648 63.6914ZM40.4297 63.6914C40.8789 63.6914 41.1719 63.2812 41.1523 62.8125L41.0156 60.3516L43.0664 61.7188C43.4375 61.9727 43.9648 61.8945 44.2188 61.5039C44.4336 61.1328 44.2969 60.6055 43.8281 60.3906L41.6211 59.2773L43.8477 58.1641C44.2969 57.9297 44.4141 57.4414 44.2383 57.0508C44.0039 56.6602 43.4375 56.6016 43.0664 56.8359L41.0156 58.2422L41.1719 55.7422C41.2109 55.2734 40.8789 54.8828 40.4297 54.8828C39.9219 54.8828 39.6289 55.2734 39.6484 55.7422L39.8047 58.2422L37.7148 56.8359C37.3438 56.6016 36.8359 56.6406 36.6016 57.0508C36.3867 57.4414 36.5039 57.9297 36.9531 58.1641L39.1602 59.2773L36.9531 60.3906C36.4844 60.625 36.3672 61.1133 36.582 61.5039C36.7969 61.9141 37.3438 61.9727 37.7148 61.7383L39.8047 60.3711L39.668 62.8125C39.6484 63.2812 39.9219 63.6914 40.4297 63.6914ZM6.11328 41.6016L57.6758 41.6016C58.457 41.6016 59.0625 40.9961 59.0625 40.2148C59.0625 39.4336 58.457 38.8281 57.6758 38.8281L6.11328 38.8281C5.33203 38.8281 4.70703 39.4336 4.70703 40.2148C4.70703 40.9961 5.33203 41.6016 6.11328 41.6016Z" fill="black" fill-opacity="0.85"/>
 </g>
</svg>
