<?xml version="1.0" encoding="UTF-8"?>
<!--Generator: Apple Native CoreSVG 326-->
<!DOCTYPE svg
PUBLIC "-//W3C//DTD SVG 1.1//EN"
       "http://www.w3.org/Graphics/SVG/1.1/DTD/svg11.dtd">
<svg version="1.1" xmlns="http://www.w3.org/2000/svg" xmlns:xlink="http://www.w3.org/1999/xlink" viewBox="0 0 51.25 50.918">
 <g>
  <rect height="50.918" opacity="0" width="51.25" x="0" y="0"/>
  <path d="M25.4297 50.8789C39.4727 50.8789 50.8789 39.4922 50.8789 25.4492C50.8789 11.4062 39.4727 0 25.4297 0C11.3867 0 0 11.4062 0 25.4492C0 39.4922 11.3867 50.8789 25.4297 50.8789ZM25.4297 47.2461C13.3789 47.2461 3.63281 37.5 3.63281 25.4492C3.63281 13.3984 13.3789 3.65234 25.4297 3.65234C37.4805 3.65234 47.2266 13.3984 47.2266 25.4492C47.2266 37.5 37.4805 47.2461 25.4297 47.2461Z" fill="black" fill-opacity="0.85"/>
  <path d="M15.9961 25.0977C15.9961 24.4141 15.4102 23.8672 14.6484 23.8672L10.957 23.8672C10.2148 23.8672 9.64844 24.4336 9.64844 25.0977C9.64844 25.7812 10.2148 26.3477 10.957 26.3477L14.6484 26.3477C15.4297 26.3477 15.9961 25.8203 15.9961 25.0977ZM18.75 18.7891C19.2773 18.2812 19.1992 17.4805 18.6914 16.9727L16.0547 14.3359C15.4883 13.7891 14.707 13.8477 14.2578 14.3164C13.7695 14.7852 13.7891 15.5469 14.3359 16.0938L16.9727 18.7305C17.4805 19.2383 18.2617 19.2773 18.75 18.7891ZM25.4102 15.1758C26.1133 15.1758 26.6406 14.5312 26.6406 13.8086L26.6406 10.1172C26.6406 9.33594 26.0938 8.80859 25.4102 8.80859C24.7266 8.80859 24.1797 9.33594 24.1797 10.1172L24.1797 13.8086C24.1797 14.5703 24.7266 15.1758 25.4102 15.1758ZM32.0898 18.7891C32.5781 19.2578 33.3594 19.2578 33.8867 18.7305L36.4844 16.0938C37.0312 15.5469 37.0508 14.8242 36.582 14.3164C36.0938 13.8086 35.3125 13.8086 34.7852 14.3359L32.1289 16.9727C31.6016 17.5 31.582 18.2812 32.0898 18.7891ZM34.8242 25.0977C34.8242 25.8008 35.4492 26.3477 36.1719 26.3477L39.8633 26.3477C40.625 26.3477 41.1914 25.8008 41.1914 25.0977C41.1914 24.4336 40.625 23.8672 39.8633 23.8672L36.1719 23.8672C35.4102 23.8672 34.8242 24.4141 34.8242 25.0977ZM18.457 28.0469L32.3633 28.0469C32.6953 27.2266 32.9102 26.3477 32.9102 25.4492C32.9102 21.3281 29.5312 17.9297 25.4102 17.9297C21.3086 17.9297 17.9297 21.3281 17.9297 25.4492C17.9297 26.3477 18.125 27.2266 18.457 28.0469ZM13.0273 31.4453L40.3516 31.4453C40.8398 31.4453 41.1914 31.0938 41.1914 30.6055C41.1914 30.1172 40.8398 29.7852 40.3516 29.7852L13.0273 29.7852C12.5586 29.7852 12.1875 30.1367 12.1875 30.6055C12.1875 31.0938 12.5586 31.4453 13.0273 31.4453ZM10.4883 34.8242L37.793 34.8242C38.2812 34.8242 38.6328 34.4922 38.6328 34.0039C38.6328 33.5156 38.2812 33.1641 37.793 33.1641L10.4883 33.1641C10 33.1641 9.64844 33.5352 9.64844 34.0039C9.64844 34.4922 10 34.8242 10.4883 34.8242ZM13.0273 38.2227L40.3516 38.2227C40.8398 38.2227 41.1914 37.8711 41.1914 37.3828C41.1914 36.8945 40.8398 36.5625 40.3516 36.5625L13.0273 36.5625C12.5586 36.5625 12.1875 36.9141 12.1875 37.3828C12.1875 37.8711 12.5586 38.2227 13.0273 38.2227Z" fill="black" fill-opacity="0.85"/>
 </g>
</svg>
