<?xml version="1.0" encoding="UTF-8"?>
<!--Generator: Apple Native CoreSVG 326-->
<!DOCTYPE svg
PUBLIC "-//W3C//DTD SVG 1.1//EN"
       "http://www.w3.org/Graphics/SVG/1.1/DTD/svg11.dtd">
<svg version="1.1" xmlns="http://www.w3.org/2000/svg" xmlns:xlink="http://www.w3.org/1999/xlink" viewBox="0 0 83.7888 68.5134">
 <g>
  <rect height="68.5134" opacity="0" width="83.7888" x="0" y="0"/>
  <path d="M21.2303 52.704L26.5233 49.6375L25.117 47.2157L19.9413 50.204C18.6913 50.9266 17.5194 50.536 16.6991 49.1102L15.117 46.3758C13.2225 43.0946 14.2967 40.0477 18.4959 36.8641L25.0975 31.8836L29.9217 22.7821C32.4217 18.0946 34.4139 16.2 41.2108 12.2743L54.9022 4.38364C57.9881 2.58677 60.3319 2.39145 62.9881 3.64145L64.453 4.34458C66.4842 5.32114 68.1834 6.80552 69.1795 8.5438L73.6717 16.3172C74.5116 17.7625 74.2967 18.8172 72.9491 19.5985L68.8084 21.9813L70.2147 24.4227L74.492 21.9422C77.4022 20.2625 77.8709 17.9969 76.0155 14.7743L71.6209 7.13755C70.3514 4.96958 68.1834 3.01645 65.6639 1.80552L64.1991 1.10239C60.6248-0.596827 57.4608-0.34292 53.4959 1.94224L39.8045 9.85239C32.5975 14.0125 30.1561 16.3172 27.4413 21.4735L22.91 30.0282L16.7967 34.6375C11.3475 38.7391 9.99985 43.0946 12.6952 47.7821L14.4334 50.7899C16.035 53.5438 18.535 54.2469 21.2303 52.704ZM35.0194 44.7352L61.8358 29.2469L60.4491 26.825L33.6131 42.3133ZM33.0077 51.2196C36.3084 49.325 37.4022 45.2625 35.4881 41.9618C33.5936 38.661 29.5311 37.5868 26.2303 39.4813C22.9295 41.3758 21.8358 45.4579 23.7498 48.7391C25.6444 52.0399 29.7069 53.1336 33.0077 51.2196ZM31.6014 48.7977C29.6678 49.911 27.285 49.286 26.1717 47.3329C25.0584 45.3993 25.6834 43.0165 27.6366 41.9032C29.5702 40.7899 31.953 41.4344 33.0663 43.368C34.1795 45.3016 33.5545 47.6844 31.6014 48.7977ZM68.4178 30.7899C71.7186 28.8758 72.7928 24.8133 70.8983 21.5125C69.0038 18.2313 64.9217 17.1375 61.6405 19.0321C58.3397 20.9461 57.2459 25.0086 59.16 28.3094C61.0545 31.5907 65.117 32.6844 68.4178 30.7899ZM67.0116 28.3485C65.078 29.4813 62.6952 28.8368 61.5819 26.9032C60.4686 24.9696 61.0936 22.5868 63.0467 21.4735C64.9803 20.3407 67.3631 20.9852 68.4764 22.9188C69.5897 24.8524 68.9452 27.2352 67.0116 28.3485Z" fill="black" fill-opacity="0.85"/>
  <path d="M10.742 55.536L5.74203 46.8641C4.98032 45.5165 3.43735 45.829 2.9686 47.1571L0.136565 54.5594C-0.25406 55.5555 0.21469 56.3758 1.26938 56.5321L9.08188 57.8016C10.4881 58.0555 11.5233 56.8641 10.742 55.536ZM15.7225 67.4891C16.2303 68.329 17.285 68.5829 18.0858 68.1532L82.578 30.9461C83.3788 30.4969 83.6717 29.4422 83.2225 28.6219C82.6952 27.7625 81.6209 27.5086 80.8397 27.9579L16.328 65.1649C15.5467 65.5946 15.2538 66.6688 15.7225 67.4891Z" fill="black" fill-opacity="0.85"/>
 </g>
</svg>
