<?xml version="1.0" encoding="UTF-8"?>
<!--Generator: Apple Native CoreSVG 326-->
<!DOCTYPE svg
PUBLIC "-//W3C//DTD SVG 1.1//EN"
       "http://www.w3.org/Graphics/SVG/1.1/DTD/svg11.dtd">
<svg version="1.1" xmlns="http://www.w3.org/2000/svg" xmlns:xlink="http://www.w3.org/1999/xlink" viewBox="0 0 88.4375 40.0977">
 <g>
  <rect height="40.0977" opacity="0" width="88.4375" x="0" y="0"/>
  <path d="M19.5898 39.3555C23.418 39.3555 26.4258 36.3477 26.4258 32.5195C26.4258 28.7109 23.3984 25.6836 19.5898 25.6836C15.7812 25.6836 12.7539 28.7109 12.7539 32.5195C12.7539 36.3281 15.7812 39.3555 19.5898 39.3555ZM69.9609 39.3555C73.7695 39.3555 76.7969 36.3281 76.7969 32.5195C76.7969 28.7109 73.7695 25.6836 69.9609 25.6836C66.1914 25.6836 63.125 28.7305 63.125 32.5195C63.125 36.3281 66.1719 39.3555 69.9609 39.3555ZM85 7.36328L83.8672 5.72266C81.1133 1.69922 77.5586 0 71.9141 0L52.4023 0C42.1289 0 38.0859 0.976562 32.0117 4.78516L21.8945 11.1523L12.5 12.3047C4.14062 13.3398 0 17.1484 0 23.8281L0 28.1055C0 32.0508 2.24609 34.3555 6.07422 34.3555L10.2148 34.3555C10.0977 33.7695 10.0391 33.1641 10.0391 32.5195C10.0391 27.2266 14.2969 22.9688 19.5898 22.9688C24.8828 22.9688 29.1406 27.2266 29.1406 32.5195C29.1406 33.1641 29.082 33.7695 28.9648 34.3555L60.5859 34.3555C60.4688 33.7695 60.4102 33.1641 60.4102 32.5195C60.4102 27.2461 64.6875 22.9688 69.9609 22.9688C75.2734 22.9688 79.5312 27.2266 79.5312 32.5195C79.5312 33.1641 79.4531 33.7695 79.3359 34.3555L82.0117 34.3555C86.1523 34.3555 88.0664 32.207 88.0664 27.6172L88.0664 16.7578C88.0664 13.6523 86.9531 10.2148 85 7.36328Z" fill="black" fill-opacity="0.85"/>
 </g>
</svg>
