<?xml version="1.0" encoding="UTF-8"?>
<!--Generator: Apple Native CoreSVG 326-->
<!DOCTYPE svg
PUBLIC "-//W3C//DTD SVG 1.1//EN"
       "http://www.w3.org/Graphics/SVG/1.1/DTD/svg11.dtd">
<svg version="1.1" xmlns="http://www.w3.org/2000/svg" xmlns:xlink="http://www.w3.org/1999/xlink" viewBox="0 0 59.5508 45.957">
 <g>
  <rect height="45.957" opacity="0" width="59.5508" x="0" y="0"/>
  <path d="M0 32.9297L0 29.4727L27.8516 29.4727L27.8516 16.5039L0 16.5039L0 13.0469L27.8516 13.0469L27.8516 0.0390625L31.3086 0.0390625L31.3086 13.0469L59.1797 13.0469L59.1797 16.5039L31.3086 16.5039L31.3086 29.4727L59.1797 29.4727L59.1797 32.9297L31.3086 32.9297L31.3086 45.957L27.8516 45.957L27.8516 32.9297ZM7.59766 45.957L51.5625 45.957C56.6211 45.957 59.1797 43.3984 59.1797 38.418L59.1797 7.55859C59.1797 2.59766 56.6211 0.0390625 51.5625 0.0390625L7.59766 0.0390625C2.55859 0.0390625 0 2.55859 0 7.55859L0 38.418C0 43.418 2.55859 45.957 7.59766 45.957Z" fill="black" fill-opacity="0.85"/>
 </g>
</svg>
