<?xml version="1.0" encoding="UTF-8"?>
<!--Generator: Apple Native CoreSVG 326-->
<!DOCTYPE svg
PUBLIC "-//W3C//DTD SVG 1.1//EN"
       "http://www.w3.org/Graphics/SVG/1.1/DTD/svg11.dtd">
<svg version="1.1" xmlns="http://www.w3.org/2000/svg" xmlns:xlink="http://www.w3.org/1999/xlink" viewBox="0 0 46.2891 45.918">
 <g>
  <rect height="45.918" opacity="0" width="46.2891" x="0" y="0"/>
  <path d="M7.59766 45.918L38.3008 45.918C43.3594 45.918 45.918 43.3594 45.918 38.3984L45.918 7.53906C45.918 2.55859 43.3594 0 38.3008 0L7.59766 0C2.55859 0 0 2.53906 0 7.53906L0 38.3984C0 43.3984 2.55859 45.918 7.59766 45.918ZM7.67578 42.4609C4.94141 42.4609 3.45703 41.0156 3.45703 38.2031L3.45703 7.71484C3.45703 4.92188 4.94141 3.45703 7.67578 3.45703L38.2422 3.45703C40.918 3.45703 42.4609 4.92188 42.4609 7.71484L42.4609 38.2031C42.4609 41.0156 40.918 42.4609 38.2422 42.4609Z" fill="black" fill-opacity="0.85"/>
  <path d="M23.0078 34.5703C23.75 34.5703 24.2969 34.0039 24.2969 33.2422L24.2969 18.3398L30.4688 18.3398C31.0547 18.3398 31.5039 17.8906 31.5039 17.3047C31.5039 16.7383 31.0547 16.2891 30.4688 16.2891L15.4883 16.2891C14.8828 16.2891 14.4531 16.7383 14.4531 17.3047C14.4531 17.8906 14.8828 18.3398 15.4883 18.3398L21.6992 18.3398L21.6992 33.2422C21.6992 34.0039 22.2656 34.5703 23.0078 34.5703ZM14.375 12.5781C14.375 13.0273 14.7266 13.3398 15.1562 13.3398L30.7227 13.3398C31.1523 13.3398 31.5039 12.9883 31.5039 12.5781C31.5039 12.168 31.1523 11.8164 30.7227 11.8164L15.1562 11.8164C14.7266 11.8164 14.375 12.168 14.375 12.5781Z" fill="black" fill-opacity="0.85"/>
 </g>
</svg>
