<?xml version="1.0" encoding="UTF-8"?>
<!--Generator: Apple Native CoreSVG 326-->
<!DOCTYPE svg
PUBLIC "-//W3C//DTD SVG 1.1//EN"
       "http://www.w3.org/Graphics/SVG/1.1/DTD/svg11.dtd">
<svg version="1.1" xmlns="http://www.w3.org/2000/svg" xmlns:xlink="http://www.w3.org/1999/xlink" viewBox="0 0 42.3047 53.8477">
 <g>
  <rect height="53.8477" opacity="0" width="42.3047" x="0" y="0"/>
  <path d="M10.9375 12.4805L31.7383 12.4805C32.5195 12.4805 33.1055 11.875 33.1055 11.1133C33.1055 10.3711 32.5195 9.78516 31.7383 9.78516L10.9375 9.78516C10.1367 9.78516 9.55078 10.3711 9.55078 11.1133C9.55078 11.875 10.1367 12.4805 10.9375 12.4805ZM10.9375 19.6875L23.4766 19.6875C24.2578 19.6875 24.8438 19.082 24.8438 18.3008C24.8438 17.5586 24.2578 16.9727 23.4766 16.9727L10.9375 16.9727C10.1367 16.9727 9.55078 17.5586 9.55078 18.3008C9.55078 19.082 10.1367 19.6875 10.9375 19.6875ZM11.3477 45.6641L30.6055 45.6641C32.8125 45.6641 33.9453 44.5312 33.9453 42.3242L33.9453 27.5C33.9453 25.2734 32.8125 24.1602 30.6055 24.1602L11.3477 24.1602C9.19922 24.1602 7.98828 25.2734 7.98828 27.5L7.98828 42.3242C7.98828 44.5312 9.19922 45.6641 11.3477 45.6641ZM0 46.25C0 51.2891 2.51953 53.8477 7.51953 53.8477L34.4141 53.8477C39.4141 53.8477 41.9336 51.2891 41.9336 46.25L41.9336 7.61719C41.9336 2.57812 39.4141 0.0195312 34.4141 0.0195312L7.51953 0.0195312C2.51953 0.0195312 0 2.57812 0 7.61719ZM3.45703 46.1719L3.45703 7.69531C3.45703 4.96094 4.90234 3.47656 7.71484 3.47656L34.2188 3.47656C37.0312 3.47656 38.4766 4.96094 38.4766 7.69531L38.4766 46.1719C38.4766 48.9062 37.0312 50.3906 34.2188 50.3906L7.71484 50.3906C4.90234 50.3906 3.45703 48.9062 3.45703 46.1719Z" fill="black" fill-opacity="0.85"/>
 </g>
</svg>
