<?xml version="1.0" encoding="UTF-8"?>
<!--Generator: Apple Native CoreSVG 326-->
<!DOCTYPE svg
PUBLIC "-//W3C//DTD SVG 1.1//EN"
       "http://www.w3.org/Graphics/SVG/1.1/DTD/svg11.dtd">
<svg version="1.1" xmlns="http://www.w3.org/2000/svg" xmlns:xlink="http://www.w3.org/1999/xlink" viewBox="0 0 50.6055 43.1055">
 <g>
  <rect height="43.1055" opacity="0" width="50.6055" x="0" y="0"/>
  <path d="M1.73828 3.47656L48.4766 3.47656C49.4531 3.47656 50.2344 2.73438 50.2344 1.75781C50.2344 0.78125 49.4531 0.0195312 48.4766 0.0195312L1.73828 0.0195312C0.742188 0.0195312 0 0.78125 0 1.75781C0 2.73438 0.742188 3.47656 1.73828 3.47656ZM29.5898 29.8633L48.4766 29.8633C49.4531 29.8633 50.2344 29.1016 50.2344 28.125C50.2344 27.1484 49.4531 26.4062 48.4766 26.4062L29.5898 26.4062C28.6133 26.4062 27.8516 27.1484 27.8516 28.125C27.8516 29.1016 28.6133 29.8633 29.5898 29.8633ZM1.73828 43.1055L48.4766 43.1055C49.4531 43.1055 50.2344 42.3438 50.2344 41.3672C50.2344 40.3906 49.4531 39.6484 48.4766 39.6484L1.73828 39.6484C0.742188 39.6484 0 40.3906 0 41.3672C0 42.3438 0.742188 43.1055 1.73828 43.1055Z" fill="black" fill-opacity="0.85"/>
  <path d="M2.85156 18.7109L47.3633 18.7109C49.2578 18.7109 50.2344 17.7539 50.2344 15.8594L50.2344 14.0039C50.2344 12.1484 49.2578 11.1914 47.3633 11.1914L2.85156 11.1914C0.976562 11.1914 0 12.1484 0 14.0039L0 15.8594C0 17.7539 0.976562 18.7109 2.85156 18.7109ZM2.85156 31.8945L21.875 31.8945C23.7695 31.8945 24.7461 30.9375 24.7461 29.043L24.7461 27.1875C24.7461 25.332 23.7695 24.375 21.875 24.375L2.85156 24.375C0.976562 24.375 0 25.332 0 27.1875L0 29.043C0 30.9375 0.976562 31.8945 2.85156 31.8945Z" fill="black" fill-opacity="0.85"/>
 </g>
</svg>
