<?xml version="1.0" encoding="UTF-8"?>
<!--Generator: Apple Native CoreSVG 326-->
<!DOCTYPE svg
PUBLIC "-//W3C//DTD SVG 1.1//EN"
       "http://www.w3.org/Graphics/SVG/1.1/DTD/svg11.dtd">
<svg version="1.1" xmlns="http://www.w3.org/2000/svg" xmlns:xlink="http://www.w3.org/1999/xlink" viewBox="0 0 51.25 50.918">
 <g>
  <rect height="50.918" opacity="0" width="51.25" x="0" y="0"/>
  <path d="M25.4297 50.8789C39.4727 50.8789 50.8789 39.4922 50.8789 25.4492C50.8789 11.4062 39.4727 0 25.4297 0C11.3867 0 0 11.4062 0 25.4492C0 39.4922 11.3867 50.8789 25.4297 50.8789ZM25.4297 47.2461C13.3789 47.2461 3.63281 37.5 3.63281 25.4492C3.63281 13.3984 13.3789 3.65234 25.4297 3.65234C37.4805 3.65234 47.2266 13.3984 47.2266 25.4492C47.2266 37.5 37.4805 47.2461 25.4297 47.2461Z" fill="black" fill-opacity="0.85"/>
  <path d="M18.7109 40.8203C22.5586 40.8203 25.6445 37.7344 25.6445 33.9062C25.6445 31.8945 24.7852 30.0781 23.1641 28.6719C22.9102 28.4375 22.8516 28.2812 22.8516 27.8906L22.8711 15.0391C22.8711 12.3828 21.1719 10.5469 18.7109 10.5469C16.2305 10.5469 14.5703 12.3828 14.5703 15.0391L14.5703 27.8906C14.5703 28.3008 14.5117 28.4375 14.2188 28.6719C12.5977 30.0781 11.7578 31.8945 11.7578 33.9062C11.7578 37.7344 14.8438 40.8203 18.7109 40.8203ZM18.7109 38.9453C15.8984 38.9453 13.6719 36.6992 13.6719 33.9062C13.6719 32.2461 14.4141 30.7812 15.8203 29.8242C16.2891 29.5117 16.4648 29.1602 16.4648 28.5742L16.4648 15.0977C16.4648 13.5156 17.3438 12.5 18.7109 12.5C20.0391 12.5 20.9375 13.5156 20.9375 15.0977L20.9375 28.5742C20.9375 29.1602 21.0938 29.5117 21.582 29.8242C22.9883 30.7812 23.7305 32.2461 23.7305 33.9062C23.7305 36.6992 21.4844 38.9453 18.7109 38.9453ZM18.7305 16.2305C19.2969 16.2305 19.7852 15.7422 19.7852 15.1367C19.7852 14.5703 19.2969 14.082 18.7305 14.082C18.1055 14.082 17.6367 14.5703 17.6367 15.1367C17.6367 15.7422 18.1055 16.2305 18.7305 16.2305ZM18.7305 19.9023C19.2969 19.9023 19.7852 19.4336 19.7852 18.8281C19.7852 18.2422 19.2969 17.7539 18.7305 17.7539C18.1055 17.7539 17.6367 18.2422 17.6367 18.8281C17.6367 19.4336 18.1055 19.9023 18.7305 19.9023ZM18.7305 23.5742C19.2969 23.5742 19.7852 23.0859 19.7852 22.4805C19.7852 21.9141 19.2969 21.4258 18.7305 21.4258C18.1055 21.4258 17.6367 21.9141 17.6367 22.4805C17.6367 23.0859 18.1055 23.5742 18.7305 23.5742ZM18.6914 37.3828C20.6445 37.3828 22.1875 35.8203 22.1875 33.8867C22.1875 32.5391 21.4258 31.4453 20.3125 30.8398C19.8828 30.625 19.7852 30.4688 19.7852 29.8438L19.7852 26.1523C19.7852 25.5664 19.2969 25.0977 18.7305 25.0977C18.1055 25.0977 17.6367 25.5664 17.6367 26.1523L17.6367 29.8438C17.6367 30.4688 17.5195 30.6055 17.0703 30.8398C15.9766 31.4062 15.2148 32.5391 15.2148 33.8867C15.2148 35.8398 16.7578 37.3828 18.6914 37.3828ZM32.2266 15.7031C33.8867 15.7031 35.1953 14.375 35.1953 12.7344C35.1953 11.0938 33.8867 9.78516 32.2266 9.78516C30.6055 9.78516 29.2969 11.0938 29.2969 12.7344C29.2969 14.375 30.6055 15.7031 32.2266 15.7031ZM33.9844 40.1758C34.707 40.1758 35.3125 39.6094 35.3125 38.8477L35.3125 22.9102C35.3125 22.6758 35.4883 22.4609 35.7422 22.4609C35.9375 22.4609 36.1523 22.6758 36.1523 22.9102L36.1523 28.1445C36.1523 28.8086 36.6992 29.3555 37.3438 29.3555C37.9883 29.3555 38.5352 28.8086 38.5352 28.1445L38.5352 22.2852C38.5352 19.2773 36.3281 17.2852 33.1836 17.2852L31.2695 17.2852C28.125 17.2852 25.918 19.2773 25.918 22.2852L25.918 28.1445C25.918 28.8086 26.4648 29.3555 27.1094 29.3555C27.7734 29.3555 28.3008 28.8086 28.3008 28.1445L28.3008 22.9102C28.3008 22.6758 28.5156 22.4609 28.7305 22.4609C28.9844 22.4609 29.1602 22.6758 29.1602 22.9102L29.1602 38.8477C29.1602 39.6094 29.7461 40.1758 30.4688 40.1758C31.2109 40.1758 31.7773 39.6094 31.7773 38.8477L31.7773 29.1406C31.7773 28.9062 31.9922 28.7109 32.2266 28.7109C32.4805 28.7109 32.6953 28.9062 32.6953 29.1406L32.6953 38.8477C32.6953 39.6094 33.2422 40.1758 33.9844 40.1758Z" fill="black" fill-opacity="0.85"/>
 </g>
</svg>
