<?xml version="1.0" encoding="UTF-8"?>
<!--Generator: Apple Native CoreSVG 326-->
<!DOCTYPE svg
PUBLIC "-//W3C//DTD SVG 1.1//EN"
       "http://www.w3.org/Graphics/SVG/1.1/DTD/svg11.dtd">
<svg version="1.1" xmlns="http://www.w3.org/2000/svg" xmlns:xlink="http://www.w3.org/1999/xlink" viewBox="0 0 59.5508 64.2773">
 <g>
  <rect height="64.2773" opacity="0" width="59.5508" x="0" y="0"/>
  <path d="M48.6914 20.5078L57.8711 31.9922C58.8867 33.2617 59.1797 34.2578 59.1797 36.3281L59.1797 50.9375C59.1797 55.918 56.6211 58.4766 51.5625 58.4766L7.59766 58.4766C2.55859 58.4766 0 55.9375 0 50.9375L0 36.3281C0 34.2578 0.292969 33.2617 1.28906 31.9922L10.4883 20.5078C13.2031 17.1484 14.4922 16.1328 18.6914 16.1328L23.4766 16.1328L23.4766 19.1797L18.3984 19.1797C16.4844 19.1797 15.0977 19.8047 13.8672 21.3672L4.08203 33.7695C3.71094 34.2383 3.86719 34.8633 4.58984 34.8633L21.7383 34.8633C22.8906 34.8633 23.457 35.7227 23.457 36.6797L23.457 36.7969C23.457 40 25.918 43.0859 29.5898 43.0859C33.2422 43.0859 35.7227 40 35.7227 36.7969L35.7227 36.6797C35.7227 35.7227 36.2695 34.8633 37.4414 34.8633L54.5898 34.8633C55.3125 34.8633 55.4688 34.2383 55.0977 33.7695L45.3125 21.3672C44.082 19.8047 42.6953 19.1797 40.7812 19.1797L35.7031 19.1797L35.7031 16.1328L40.4883 16.1328C44.6875 16.1328 45.9766 17.1484 48.6914 20.5078ZM3.45703 38.0273L3.45703 50.7617C3.45703 53.5547 4.94141 55 7.67578 55L51.5039 55C54.1797 55 55.7031 53.5547 55.7031 50.7617L55.7031 38.0273L39.0039 38.0273C38.5156 42.793 34.6094 46.2891 29.5898 46.2891C24.5703 46.2891 20.6445 42.8125 20.1562 38.0273Z" fill="black" fill-opacity="0.85"/>
  <path d="M29.5898 0C28.6523 0 27.8711 0.761719 27.8711 1.66016L27.8711 25.8984L28.0078 29.6094L26.4453 28.0078L22.207 23.5547C21.8945 23.2031 21.4258 23.0273 21.0156 23.0273C20.1172 23.0273 19.4727 23.6719 19.4727 24.5508C19.4727 25 19.6484 25.3516 19.9805 25.6836L28.3398 33.8086C28.7695 34.2383 29.1406 34.375 29.5898 34.375C30.0195 34.375 30.4102 34.2383 30.8203 33.8086L39.1797 25.6836C39.5117 25.3516 39.6875 25 39.6875 24.5508C39.6875 23.6719 39.0039 23.0273 38.125 23.0273C37.7148 23.0273 37.2656 23.2031 36.9531 23.5547L32.7148 28.0078L31.1719 29.6094L31.2891 25.8984L31.2891 1.66016C31.2891 0.761719 30.5078 0 29.5898 0Z" fill="black" fill-opacity="0.85"/>
 </g>
</svg>
