<?xml version="1.0" encoding="UTF-8"?>
<!--Generator: Apple Native CoreSVG 326-->
<!DOCTYPE svg
PUBLIC "-//W3C//DTD SVG 1.1//EN"
       "http://www.w3.org/Graphics/SVG/1.1/DTD/svg11.dtd">
<svg version="1.1" xmlns="http://www.w3.org/2000/svg" xmlns:xlink="http://www.w3.org/1999/xlink" viewBox="0 0 83.0594 64.3974">
 <g>
  <rect height="64.3974" opacity="0" width="83.0594" x="0" y="0"/>
  <path d="M7.76992 63.2632C8.27773 64.1225 9.35195 64.396 10.1527 63.9272L80.0746 23.6147C80.8754 23.146 81.1879 22.1304 80.7191 21.31C80.2113 20.4311 79.1371 20.1577 78.3363 20.6265L8.41445 60.939C7.61367 61.4077 7.3207 62.4624 7.76992 63.2632ZM10.1332 50.2749L14.8402 47.56L13.434 45.1382L8.86367 47.7749C7.61367 48.4975 6.44179 48.1069 5.60195 46.6811L3.62929 43.2632C2.02773 40.4702 2.88711 38.0093 6.51992 35.1577L13.0434 30.021L17.9848 20.7046C20.2113 16.5444 22.6723 14.1421 27.8871 11.1343L34.8988 7.0913C36.8324 5.97802 38.5121 6.34911 39.8207 8.12645L43.434 13.0483L60.309 3.30224C61.559 2.57958 62.7504 2.9702 63.5707 4.41552L67.3793 11.0171C68.1996 12.4429 67.9652 13.6538 66.6957 14.3765L59.4301 18.5757L60.8363 20.9975L68.2387 16.7397C70.934 15.1772 71.559 12.6577 69.977 9.88427L65.8363 2.73583C64.2348-0.0376087 61.7348-0.740734 59.0395 0.802235L44.2543 9.35692L42.0473 6.38817C39.7816 3.30224 36.9105 2.69677 33.6293 4.5913L26.4809 8.71239C20.7582 12.0132 17.9457 14.728 15.5043 19.3765L10.8559 28.146L4.8207 32.9311C-0.0621122 36.7788-1.17539 40.5093 1.20742 44.6499L3.33633 48.3608C4.93789 51.1147 7.43789 51.8374 10.1332 50.2749ZM23.3363 42.6577L51.9301 26.1538L50.5238 23.7124L21.9301 40.2163ZM21.3246 49.1421C24.6254 47.2475 25.7191 43.185 23.8051 39.8843C21.9105 36.5835 17.848 35.4897 14.5473 37.4038C11.2465 39.2983 10.1527 43.3608 12.0668 46.6616C13.9613 49.9624 18.0238 51.0561 21.3246 49.1421ZM19.9184 46.7202C17.9848 47.8335 15.602 47.2085 14.4887 45.2554C13.3754 43.3218 14.0004 40.939 15.9535 39.8257C17.8871 38.7124 20.2699 39.3374 21.3832 41.2905C22.4965 43.2241 21.8715 45.6069 19.9184 46.7202ZM58.473 27.6968C61.7738 25.8022 62.8676 21.7202 60.9535 18.439C59.059 15.1382 54.9965 14.0444 51.6957 15.9585C48.3949 17.853 47.3207 21.9155 49.2152 25.2163C51.1098 28.5171 55.1918 29.5913 58.473 27.6968ZM57.0668 25.2749C55.1332 26.3882 52.7699 25.7436 51.6371 23.81C50.5238 21.8765 51.1684 19.4936 53.102 18.3804C55.0355 17.2671 57.4184 17.8921 58.5316 19.8257C59.6449 21.7788 59.0199 24.1421 57.0668 25.2749Z" fill="black" fill-opacity="0.85"/>
  <path d="M78.3754 62.4624C79.9965 62.4624 81.1293 61.6421 81.852 60.4311C82.3012 59.7085 82.6918 58.5171 82.6918 57.7163C82.6918 57.0132 82.2035 56.564 81.5004 56.564C80.934 56.564 80.5043 56.9546 80.3676 57.5796C80.0746 59.1225 79.6254 60.1968 78.2973 60.1968C76.6371 60.1968 75.9145 57.6772 75.9145 54.2788C75.9145 50.5288 76.852 48.3608 78.2973 48.3608C79.5277 48.3608 80.1137 49.5913 80.3285 50.9975C80.4262 51.6811 80.8949 52.0913 81.559 52.0913C82.2426 52.0913 82.6332 51.5835 82.6332 50.8999C82.6332 49.9819 82.184 48.5952 81.4418 47.6968C80.6605 46.7202 79.5473 46.1343 78.2777 46.1343C76.0902 46.1343 74.8012 47.6186 74.1176 49.3569C73.4926 50.8413 73.3168 52.5405 73.3168 54.2788C73.3168 56.31 73.5316 58.3413 74.4496 60.0405C75.309 61.5835 76.5785 62.4624 78.3754 62.4624ZM52.1059 62.3257C52.8871 62.3257 53.3949 61.8179 53.3949 61.0171L53.3949 55.2163L57.6527 55.2163L57.6527 61.0171C57.6527 61.8179 58.1605 62.3257 58.9418 62.3257C59.723 62.3257 60.2309 61.8179 60.2309 61.0171L60.2309 47.56C60.2309 46.7788 59.723 46.271 58.9418 46.271C58.1605 46.271 57.6527 46.7788 57.6527 47.56L57.6527 53.0679L53.3949 53.0679L53.3949 47.56C53.3949 46.7788 52.8871 46.271 52.1059 46.271C51.3441 46.271 50.8559 46.7788 50.8559 47.56L50.8559 61.0171C50.8559 61.8179 51.3441 62.3257 52.1059 62.3257ZM63.6684 62.3257L66.4418 62.3257C70.4848 62.3257 71.8324 58.3022 71.8324 54.2593C71.8324 49.8843 70.309 46.271 66.4418 46.271L63.6684 46.271C62.9262 46.271 62.3988 46.7202 62.3988 47.5991L62.3988 60.9975C62.3988 61.8765 62.9262 62.3257 63.6684 62.3257ZM64.9184 60.1577L64.9184 48.439L66.1293 48.439C68.727 48.439 69.2348 51.6811 69.2348 54.2593C69.2348 56.8765 68.766 60.1577 66.1293 60.1577Z" fill="black" fill-opacity="0.85"/>
 </g>
</svg>
