<?xml version="1.0" encoding="UTF-8"?>
<!--Generator: Apple Native CoreSVG 326-->
<!DOCTYPE svg
PUBLIC "-//W3C//DTD SVG 1.1//EN"
       "http://www.w3.org/Graphics/SVG/1.1/DTD/svg11.dtd">
<svg version="1.1" xmlns="http://www.w3.org/2000/svg" xmlns:xlink="http://www.w3.org/1999/xlink" viewBox="0 0 46.2891 45.918">
 <g>
  <rect height="45.918" opacity="0" width="46.2891" x="0" y="0"/>
  <path d="M45.918 7.53906L45.918 38.3984C45.918 43.3594 43.3594 45.918 38.3008 45.918L7.59766 45.918C2.55859 45.918 0 43.3984 0 38.3984L0 7.53906C0 2.53906 2.55859 0 7.59766 0L38.3008 0C43.3594 0 45.918 2.55859 45.918 7.53906ZM12.3633 12.6367C9.88281 12.6367 8.28125 14.1016 8.28125 16.6797L8.28125 29.2188C8.28125 31.7773 9.80469 33.2617 12.3633 33.2617L26.0156 33.2617C28.5938 33.2617 30.0977 31.7773 30.0977 29.2188L30.0977 16.6797C30.0977 14.1016 28.7109 12.6367 26.1133 12.6367ZM36.4453 15.2539L31.5234 19.3945L31.5234 26.4844L36.4453 30.625C36.8945 31.0156 37.3828 31.25 37.832 31.25C38.7695 31.25 39.375 30.5859 39.375 29.5312L39.375 16.3477C39.375 15.3125 38.7695 14.668 37.832 14.668C37.3828 14.668 36.8555 14.8828 36.4453 15.2539Z" fill="black" fill-opacity="0.85"/>
 </g>
</svg>
