<?xml version="1.0" encoding="UTF-8"?>
<!--Generator: Apple Native CoreSVG 326-->
<!DOCTYPE svg
PUBLIC "-//W3C//DTD SVG 1.1//EN"
       "http://www.w3.org/Graphics/SVG/1.1/DTD/svg11.dtd">
<svg version="1.1" xmlns="http://www.w3.org/2000/svg" xmlns:xlink="http://www.w3.org/1999/xlink" viewBox="0 0 46.2891 45.918">
 <g>
  <rect height="45.918" opacity="0" width="46.2891" x="0" y="0"/>
  <path d="M7.59766 45.918L38.3008 45.918C43.3594 45.918 45.918 43.3594 45.918 38.3984L45.918 7.53906C45.918 2.55859 43.3594 0 38.3008 0L7.59766 0C2.55859 0 0 2.53906 0 7.53906L0 38.3984C0 43.3984 2.55859 45.918 7.59766 45.918ZM7.67578 42.4609C4.94141 42.4609 3.45703 41.0156 3.45703 38.2031L3.45703 7.71484C3.45703 4.92188 4.94141 3.45703 7.67578 3.45703L38.2422 3.45703C40.918 3.45703 42.4609 4.92188 42.4609 7.71484L42.4609 38.2031C42.4609 41.0156 40.918 42.4609 38.2422 42.4609Z" fill="black" fill-opacity="0.85"/>
  <path d="M16.2891 34.6289C17.4805 34.6289 18.2617 34.043 18.5352 32.9102L22.8516 16.2695L23.0273 16.2695L27.3438 32.9102C27.6172 34.043 28.3984 34.6289 29.5898 34.6289C30.7617 34.6289 31.5039 34.0234 31.7969 32.8711L36.8555 13.3984C36.9141 13.1445 36.9336 12.9492 36.9336 12.7344C36.9336 11.7773 36.2891 11.1328 35.2734 11.1328C34.2773 11.1328 33.7891 11.6016 33.5156 12.8125L29.4922 29.6875L29.3359 29.6875L24.8633 12.6367C24.5898 11.6602 23.9844 11.1914 22.9297 11.1914C21.9141 11.1914 21.2695 11.6602 21.0156 12.6367L16.543 29.6875L16.3867 29.6875L12.3828 12.8125C12.1094 11.6016 11.6211 11.1328 10.625 11.1328C9.60938 11.1328 8.96484 11.7773 8.96484 12.7344C8.96484 12.9492 8.98438 13.1445 9.04297 13.3984L14.082 32.8711C14.375 34.0234 15.1172 34.6289 16.2891 34.6289Z" fill="black" fill-opacity="0.85"/>
 </g>
</svg>
