<?xml version="1.0" encoding="UTF-8"?>
<!--Generator: Apple Native CoreSVG 326-->
<!DOCTYPE svg
PUBLIC "-//W3C//DTD SVG 1.1//EN"
       "http://www.w3.org/Graphics/SVG/1.1/DTD/svg11.dtd">
<svg version="1.1" xmlns="http://www.w3.org/2000/svg" xmlns:xlink="http://www.w3.org/1999/xlink" viewBox="0 0 88.4375 40.0977">
 <g>
  <rect height="40.0977" opacity="0" width="88.4375" x="0" y="0"/>
  <path d="M6.07422 34.3555L13.6328 34.3555L13.6328 30.8984L6.26953 30.8984C4.47266 30.8984 3.45703 29.7461 3.45703 27.7148L3.45703 23.8281C3.45703 19.1406 6.46484 16.543 12.9297 15.7422L23.0664 14.4727L33.8477 7.73438C39.3945 4.27734 42.7148 3.45703 52.4023 3.45703L71.9141 3.45703C76.3086 3.45703 78.9453 4.70703 81.0156 7.69531L82.1484 9.33594C83.7109 11.6211 84.6094 14.2773 84.6094 16.7578L84.6094 27.832C84.6094 29.9023 83.75 30.8984 81.8164 30.8984L75.918 30.8984L75.918 34.3555L82.0117 34.3555C86.1523 34.3555 88.0664 32.207 88.0664 27.6172L88.0664 16.7578C88.0664 13.6523 86.9531 10.2148 85 7.36328L83.8672 5.72266C81.1133 1.69922 77.5586 0 71.9141 0L52.4023 0C42.1289 0 38.0859 0.976562 32.0117 4.78516L21.8945 11.1523L12.5 12.3047C4.14062 13.3398 0 17.1484 0 23.8281L0 28.1055C0 32.0508 2.24609 34.3555 6.07422 34.3555ZM25.7422 34.3555L63.9844 34.3555L63.9844 30.8984L25.7422 30.8984ZM19.5898 40.0391C24.2773 40.0391 27.9688 36.3672 27.9688 31.6797C27.9688 26.9727 24.2773 23.3008 19.5898 23.3008C14.9023 23.3008 11.2109 26.9727 11.2109 31.6797C11.2109 36.3672 14.9023 40.0391 19.5898 40.0391ZM19.5898 36.582C16.8359 36.582 14.6875 34.4336 14.6875 31.6797C14.6875 28.9062 16.8359 26.7578 19.5898 26.7578C22.3438 26.7578 24.4922 28.9062 24.4922 31.6797C24.4922 34.4336 22.3438 36.582 19.5898 36.582ZM70.0586 40.0391C74.7656 40.0391 78.4375 36.3672 78.4375 31.6797C78.4375 26.9727 74.7656 23.3008 70.0586 23.3008C65.3711 23.3008 61.6992 26.9727 61.6992 31.6797C61.6992 36.3672 65.3711 40.0391 70.0586 40.0391ZM70.0586 36.582C67.3047 36.582 65.1562 34.4336 65.1562 31.6797C65.1562 28.9062 67.3047 26.7578 70.0586 26.7578C72.832 26.7578 74.9805 28.9062 74.9805 31.6797C74.9805 34.4336 72.832 36.582 70.0586 36.582Z" fill="black" fill-opacity="0.85"/>
  <path d="M46.5625 26.1914C51.2305 26.1914 55.7031 24.8047 59.3555 22.2656C59.9609 21.8359 60.1172 21.1133 59.7266 20.5273C59.3164 19.9609 58.5352 19.8438 57.9492 20.2734C54.8633 22.5 50.8203 23.75 46.5625 23.75C42.3438 23.75 38.2812 22.5 35.1758 20.2734C34.5703 19.8438 33.8281 19.9414 33.3984 20.5273C33.0078 21.0742 33.1445 21.8359 33.75 22.2656C37.4023 24.8047 41.8945 26.1914 46.5625 26.1914Z" fill="black" fill-opacity="0.85"/>
  <path d="M46.5625 19.8047C50.0586 19.8047 53.3398 18.8086 55.8008 16.9531C56.3867 16.5234 56.5039 15.8008 56.1133 15.2344C55.7617 14.6875 54.9805 14.5312 54.3555 14.9805C52.2656 16.4844 49.5117 17.3438 46.5625 17.3438C43.6328 17.3438 40.8398 16.4844 38.7695 14.9805C38.1445 14.5312 37.4023 14.6875 37.0117 15.2344C36.6016 15.8008 36.7383 16.5234 37.3242 16.9531C39.8438 18.8086 43.125 19.8047 46.5625 19.8047Z" fill="black" fill-opacity="0.85"/>
  <path d="M46.5625 13.4375C48.6523 13.4375 50.7422 12.7734 52.2656 11.6992C52.8125 11.2891 52.9688 10.5273 52.5781 9.96094C52.1484 9.33594 51.3672 9.23828 50.7031 9.72656C49.668 10.5078 48.1445 10.957 46.5625 10.957C45.0195 10.957 43.4766 10.5078 42.4219 9.72656C41.7773 9.25781 41.0156 9.35547 40.5469 9.96094C40.1562 10.5273 40.293 11.2891 40.8594 11.6992C42.3242 12.7734 44.4336 13.4375 46.5625 13.4375Z" fill="black" fill-opacity="0.85"/>
 </g>
</svg>
