<?xml version="1.0" encoding="UTF-8"?>
<!--Generator: Apple Native CoreSVG 326-->
<!DOCTYPE svg
PUBLIC "-//W3C//DTD SVG 1.1//EN"
       "http://www.w3.org/Graphics/SVG/1.1/DTD/svg11.dtd">
<svg version="1.1" xmlns="http://www.w3.org/2000/svg" xmlns:xlink="http://www.w3.org/1999/xlink" viewBox="0 0 88.4375 40.0977">
 <g>
  <rect height="40.0977" opacity="0" width="88.4375" x="0" y="0"/>
  <path d="M26.4258 32.5195C26.4258 36.3477 23.418 39.3555 19.5898 39.3555C15.7812 39.3555 12.7539 36.3281 12.7539 32.5195C12.7539 28.7109 15.7812 25.6836 19.5898 25.6836C23.3984 25.6836 26.4258 28.7109 26.4258 32.5195ZM76.7969 32.5195C76.7969 36.3281 73.7695 39.3555 69.9609 39.3555C66.1719 39.3555 63.125 36.3281 63.125 32.5195C63.125 28.7305 66.1914 25.6836 69.9609 25.6836C73.7695 25.6836 76.7969 28.7109 76.7969 32.5195ZM83.8672 5.72266L85 7.36328C86.9531 10.2148 88.0664 13.6523 88.0664 16.7578L88.0664 27.6172C88.0664 32.207 86.1523 34.3555 82.0117 34.3555L79.3359 34.3555C79.4531 33.7695 79.5312 33.1641 79.5312 32.5195C79.5312 27.2266 75.2734 22.9688 69.9609 22.9688C64.6875 22.9688 60.4102 27.2461 60.4102 32.5195C60.4102 33.1641 60.4688 33.7695 60.5859 34.3555L28.9648 34.3555C29.082 33.7695 29.1406 33.1641 29.1406 32.5195C29.1406 27.2266 24.8828 22.9688 19.5898 22.9688C14.2969 22.9688 10.0391 27.2266 10.0391 32.5195C10.0391 33.1641 10.0977 33.7695 10.2148 34.3555L6.07422 34.3555C2.24609 34.3555 0 32.0508 0 28.1055L0 23.8281C0 17.1484 4.14062 13.3398 12.5 12.3047L21.8945 11.1523L32.0117 4.78516C38.0859 0.976562 42.1289 0 52.4023 0L71.9141 0C77.5586 0 81.1133 1.69922 83.8672 5.72266ZM33.0664 20.5664C32.6562 21.1328 32.793 21.9141 33.4375 22.3633C37.1289 24.9805 41.7578 26.3672 46.543 26.3672C51.3086 26.3672 55.918 24.9805 59.6289 22.3633C60.2734 21.9336 60.4297 21.1719 60 20.5664C59.5898 19.9805 58.8086 19.8633 58.1836 20.3125C55.0195 22.5977 50.8984 23.8477 46.543 23.8477C42.2266 23.8477 38.0664 22.5781 34.8828 20.3125C34.2578 19.8633 33.4961 19.9609 33.0664 20.5664ZM54.4922 14.8633C52.3828 16.4258 49.5508 17.3047 46.543 17.3047C43.5352 17.3047 40.6836 16.4258 38.5742 14.8633C37.9297 14.4141 37.1484 14.5898 36.7383 15.1562C36.3281 15.7422 36.4844 16.4648 37.0898 16.9336C39.668 18.8086 43.0078 19.8438 46.543 19.8438C50.1172 19.8438 53.4766 18.8086 55.9961 16.9336C56.6016 16.4648 56.7188 15.7422 56.3281 15.1562C55.957 14.5898 55.1562 14.4141 54.4922 14.8633ZM50.7812 9.49219C49.7266 10.293 48.1641 10.7617 46.543 10.7617C44.9609 10.7617 43.3984 10.293 42.3047 9.49219C41.6406 9.00391 40.8594 9.14062 40.3906 9.74609C39.9805 10.332 40.1172 11.1328 40.7031 11.5234C42.1875 12.6562 44.3555 13.3203 46.543 13.3203C48.6914 13.3203 50.8203 12.6562 52.3828 11.5234C52.9492 11.1133 53.0859 10.332 52.6953 9.74609C52.2656 9.12109 51.4453 8.98438 50.7812 9.49219Z" fill="black" fill-opacity="0.85"/>
 </g>
</svg>
