<?xml version="1.0" encoding="UTF-8"?>
<!--Generator: Apple Native CoreSVG 326-->
<!DOCTYPE svg
PUBLIC "-//W3C//DTD SVG 1.1//EN"
       "http://www.w3.org/Graphics/SVG/1.1/DTD/svg11.dtd">
<svg version="1.1" xmlns="http://www.w3.org/2000/svg" xmlns:xlink="http://www.w3.org/1999/xlink" viewBox="0 0 58.0445 58.9112">
 <g>
  <rect height="58.9112" opacity="0" width="58.0445" x="0" y="0"/>
  <path d="M16.5853 18.2638C12.3449 19.9223 8.52627 22.5196 5.27223 25.9692C4.80348 26.4575 4.13942 26.4575 3.67067 26.0083L0.311297 22.5903C-0.0793285 22.1607-0.0988597 21.6333 0.233172 21.2036C2.9184 17.885 6.70787 14.982 11.1401 12.8161ZM57.4207 21.2036C57.7527 21.6333 57.7722 22.1607 57.3425 22.5903L53.9832 25.9497C53.5144 26.4185 52.8699 26.438 52.4207 25.9888C46.3074 19.4263 38.0457 15.9497 28.8269 15.9497C28.1379 15.9497 27.4544 15.9693 26.7886 16.0471L20.3416 9.59715C23.0961 8.99215 25.95 8.66456 28.8269 8.66456C40.3699 8.66456 51.5222 13.9575 57.4207 21.2036Z" fill="black" fill-opacity="0.85"/>
  <path d="M28.9966 30.6808C28.9402 30.6762 28.8835 30.6761 28.8269 30.6763C23.8074 30.6567 18.8269 33.0591 15.78 36.438C15.2722 36.9653 14.6472 37.0239 14.1394 36.5357L10.3504 32.7466C9.92067 32.3364 9.92067 31.8286 10.2722 31.3989C12.9854 28.0844 17.361 25.4007 22.4708 24.1521ZM47.3816 31.3989C47.7332 31.8286 47.7136 32.3755 47.3035 32.7466L45.3866 34.6536L34.7945 24.0566C40.0759 25.2641 44.6135 27.9997 47.3816 31.3989Z" fill="black" fill-opacity="0.85"/>
  <path d="M36.9519 41.9458C37.284 42.395 37.2058 42.9028 36.8347 43.2544L30.741 49.0942C29.784 50.0317 29.3347 50.2661 28.8269 50.2661C28.3191 50.2661 27.8699 50.0122 26.9129 49.0942L20.8386 43.2544C20.4675 42.9028 20.3699 42.4732 20.6238 42.063C22.2058 39.9536 25.3113 38.0982 28.8269 38.0982C32.2644 38.0982 35.3699 39.895 36.9519 41.9458Z" fill="black" fill-opacity="0.85"/>
  <path d="M50.3504 48.1763C50.9949 48.8403 52.0691 48.8403 52.7136 48.1763C53.3582 47.5122 53.3582 46.4771 52.7136 45.8325L10.0965 3.21534C9.45192 2.57081 8.3777 2.55128 7.71364 3.21534C7.08864 3.84034 7.08864 4.95362 7.71364 5.57862Z" fill="black" fill-opacity="0.85"/>
 </g>
</svg>
