<?xml version="1.0" encoding="UTF-8"?>
<!--Generator: Apple Native CoreSVG 326-->
<!DOCTYPE svg
PUBLIC "-//W3C//DTD SVG 1.1//EN"
       "http://www.w3.org/Graphics/SVG/1.1/DTD/svg11.dtd">
<svg version="1.1" xmlns="http://www.w3.org/2000/svg" xmlns:xlink="http://www.w3.org/1999/xlink" viewBox="0 0 59.9219 59.0039">
 <g>
  <rect height="59.0039" opacity="0" width="59.9219" x="0" y="0"/>
  <path d="M6.36026 17.24C4.48414 17.6066 3.49609 18.9353 3.49609 21.2109L3.49609 38.457C3.49609 41.1719 4.90234 42.5391 7.53906 42.5391L21.1748 42.5391L23.1991 45.9961L7.46094 45.9961C2.55859 45.9961 0.0390625 43.5352 0.0390625 38.6523L0.0390625 21.0156C0.0390625 17.271 1.54485 14.9272 4.49985 14.063ZM59.5508 21.0156L59.5508 38.6523C59.5508 43.4961 57.0508 45.9961 52.1289 45.9961L27.2407 45.9961L25.2148 42.5391L52.0703 42.5391C54.6484 42.5391 56.0938 41.1719 56.0938 38.457L56.0938 21.2109C56.0938 18.4961 54.6484 17.1289 52.0703 17.1289L10.3236 17.1289L8.29766 13.6719L52.1289 13.6719C57.0508 13.6719 59.5508 16.1914 59.5508 21.0156Z" fill="black" fill-opacity="0.85"/>
  <path d="M16.1328 1.73828C16.1328 2.67578 15.3516 3.45703 14.3945 3.45703L1.73828 3.45703C0.78125 3.45703 0 2.67578 0 1.73828C0 0.78125 0.78125 0 1.73828 0L14.3945 0C15.3516 0 16.1328 0.78125 16.1328 1.73828ZM37.832 1.73828C37.832 2.67578 37.0508 3.45703 36.1133 3.45703L23.4375 3.45703C22.4805 3.45703 21.6992 2.67578 21.6992 1.73828C21.6992 0.78125 22.4805 0 23.4375 0L36.1133 0C37.0508 0 37.832 0.78125 37.832 1.73828ZM59.5508 1.73828C59.5508 2.67578 58.7695 3.45703 57.832 3.45703L45.1562 3.45703C44.1992 3.45703 43.418 2.67578 43.418 1.73828C43.418 0.78125 44.1992 0 45.1562 0L57.832 0C58.7695 0 59.5508 0.78125 59.5508 1.73828Z" fill="black" fill-opacity="0.85"/>
  <path d="M29.707 58.9648C32.5781 58.9648 35 56.5625 35 53.6719C35 50.7812 32.5977 48.3789 29.707 48.3789C26.8359 48.3789 24.4336 50.7812 24.4336 53.6719C24.4336 56.582 26.7969 58.9648 29.707 58.9648ZM29.707 56.0352C28.3984 56.0352 27.3633 54.9805 27.3633 53.6719C27.3633 52.3633 28.3984 51.2891 29.707 51.2891C31.0156 51.2891 32.1094 52.3828 32.1094 53.6719C32.1094 54.9805 31.0156 56.0352 29.707 56.0352ZM26.3672 51.4062L29.4727 49.8047L6.85547 11.2109C6.38672 10.4297 5.42969 10.0977 4.45312 10.5664C3.55469 11.0547 3.37891 12.1484 3.84766 12.9492Z" fill="black" fill-opacity="0.85"/>
 </g>
</svg>
