<?xml version="1.0" encoding="UTF-8"?>
<!--Generator: Apple Native CoreSVG 326-->
<!DOCTYPE svg
PUBLIC "-//W3C//DTD SVG 1.1//EN"
       "http://www.w3.org/Graphics/SVG/1.1/DTD/svg11.dtd">
<svg version="1.1" xmlns="http://www.w3.org/2000/svg" xmlns:xlink="http://www.w3.org/1999/xlink" viewBox="0 0 70.824 61.0352">
 <g>
  <rect height="61.0352" opacity="0" width="70.824" x="0" y="0"/>
  <path d="M68.8104 23.2227C70.7245 24.6875 70.9979 26.7773 69.494 28.7109L53.2049 49.5508C52.4237 50.5469 51.1542 50.7812 50.0018 50.1758C45.744 48.0273 40.2167 46.6016 35.2362 46.6016C34.198 46.6016 33.1379 46.663 32.0697 46.7932L30.1177 43.463C31.8733 43.1741 33.5909 43.0273 35.2362 43.0273C39.9042 43.0273 45.1776 44.2188 50.2167 46.3086C50.744 46.5234 50.9784 46.543 51.4276 45.957L65.9784 27.3633C66.4471 26.7578 66.3495 26.2695 65.744 25.8594C58.7152 21.3074 49.6788 18.4331 40.0799 17.6832L40.0799 14.0298C51.7189 14.8663 62.7004 18.5543 68.8104 23.2227ZM13.2257 21.5413C10.1648 22.7355 7.30959 24.1837 4.72838 25.8594C4.10338 26.2695 4.02526 26.7578 4.47448 27.3633L19.0253 45.957C19.494 46.543 19.7089 46.5234 20.2557 46.3086C22.3226 45.4481 24.4325 44.7399 26.5259 44.2144L28.3967 47.4036C25.5656 48.0179 22.8197 48.9861 20.451 50.1758C19.2987 50.7812 18.0487 50.5469 17.2479 49.5508L0.958853 28.7109C-0.545053 26.7773-0.252084 24.6875 1.64245 23.2227C4.1305 21.327 7.41933 19.593 11.2369 18.151ZM30.3924 17.6825C25.5799 18.0575 20.9119 18.9652 16.5702 20.3499L14.6008 16.9898C19.403 15.4834 24.8226 14.4301 30.3924 14.0298Z" fill="black" fill-opacity="0.85"/>
  <path d="M36.9549 27.3828L36.9549 33.8281C36.9549 34.7656 36.1737 35.5469 35.2362 35.5469C34.2792 35.5469 33.4979 34.7656 33.4979 33.8281L33.4979 27.3828C33.4979 26.4453 34.2792 25.6641 35.2362 25.6641C36.1737 25.6641 36.9549 26.4453 36.9549 27.3828ZM36.9549 13.7305L36.9549 20.1562C36.9549 21.1133 36.1737 21.8945 35.2362 21.8945C34.2792 21.8945 33.4979 21.1133 33.4979 20.1562L33.4979 13.7305C33.4979 12.793 34.2792 11.9922 35.2362 11.9922C36.1737 11.9922 36.9549 12.793 36.9549 13.7305ZM16.701 1.83594C16.8964 2.77344 16.3104 3.59375 15.3729 3.92578C13.3417 4.60938 11.5643 5.89844 10.1385 7.63672C9.49401 8.39844 8.55651 8.61328 7.75573 8.125C6.87682 7.59766 6.60338 6.46484 7.38463 5.50781C9.20104 3.24219 11.5839 1.52344 14.1424 0.703125C15.4315 0.253906 16.4667 0.761719 16.701 1.83594ZM56.3299 0.703125C58.8885 1.52344 61.2714 3.24219 63.0878 5.50781C63.8495 6.46484 63.576 7.59766 62.7167 8.125C61.8964 8.61328 60.9784 8.39844 60.3339 7.63672C58.9081 5.89844 57.1112 4.60938 55.0799 3.92578C54.1424 3.59375 53.576 2.77344 53.7714 1.83594C54.0057 0.761719 55.0409 0.253906 56.3299 0.703125ZM25.8026 0.722656C28.3221 1.52344 30.7245 3.22266 32.5409 5.48828C33.3026 6.44531 33.0878 7.55859 32.2089 8.08594C31.3885 8.57422 30.4706 8.4375 29.7674 7.61719C28.3612 5.89844 26.5643 4.60938 24.5721 3.92578C23.6151 3.59375 23.0878 2.79297 23.244 1.875C23.4393 0.839844 24.4354 0.234375 25.8026 0.722656ZM47.2089 1.875C47.3846 2.79297 46.8378 3.59375 45.9003 3.92578C43.8885 4.60938 42.0917 5.89844 40.7049 7.61719C39.9823 8.4375 39.0839 8.57422 38.244 8.08594C37.3846 7.55859 37.1698 6.44531 37.912 5.48828C39.7479 3.22266 42.1503 1.52344 44.6503 0.722656C46.0174 0.234375 47.0135 0.839844 47.2089 1.875Z" fill="black" fill-opacity="0.85"/>
  <path d="M35.2362 61.0352C38.1659 61.0352 40.6268 58.5938 40.6268 55.6445C40.6268 52.6758 38.1854 50.2344 35.2362 50.2344C32.287 50.2344 29.8456 52.6758 29.8456 55.6445C29.8456 58.6133 32.2479 61.0352 35.2362 61.0352ZM35.2362 58.125C33.8495 58.125 32.7167 57.0117 32.7167 55.6445C32.7167 54.2578 33.8495 53.1055 35.2362 53.1055C36.5839 53.1055 37.7557 54.2773 37.7557 55.6445C37.7557 57.0117 36.6034 58.125 35.2362 58.125ZM34.8651 51.5625L12.0721 12.6758C11.6034 11.875 10.6268 11.543 9.65026 12.0312C8.77135 12.5 8.57604 13.5938 9.04479 14.4141L31.7987 53.2031Z" fill="black" fill-opacity="0.85"/>
 </g>
</svg>
