<?xml version="1.0" encoding="UTF-8"?>
<!--Generator: Apple Native CoreSVG 326-->
<!DOCTYPE svg
PUBLIC "-//W3C//DTD SVG 1.1//EN"
       "http://www.w3.org/Graphics/SVG/1.1/DTD/svg11.dtd">
<svg version="1.1" xmlns="http://www.w3.org/2000/svg" xmlns:xlink="http://www.w3.org/1999/xlink" viewBox="0 0 46.2891 45.918">
 <g>
  <rect height="45.918" opacity="0" width="46.2891" x="0" y="0"/>
  <path d="M7.59766 45.918L38.3008 45.918C43.3594 45.918 45.918 43.3594 45.918 38.3984L45.918 7.53906C45.918 2.55859 43.3594 0 38.3008 0L7.59766 0C2.55859 0 0 2.53906 0 7.53906L0 38.3984C0 43.3984 2.55859 45.918 7.59766 45.918ZM7.67578 42.4609C4.94141 42.4609 3.45703 41.0156 3.45703 38.2031L3.45703 7.71484C3.45703 4.92188 4.94141 3.45703 7.67578 3.45703L38.2422 3.45703C40.918 3.45703 42.4609 4.92188 42.4609 7.71484L42.4609 38.2031C42.4609 41.0156 40.918 42.4609 38.2422 42.4609Z" fill="black" fill-opacity="0.85"/>
  <path d="M16.543 34.4141C17.3633 34.4141 17.9883 33.8867 18.2227 33.0469L22.8906 15.8594L23.0469 15.8594L27.6953 33.0469C27.9492 33.9258 28.5352 34.4141 29.4336 34.4141C30.3516 34.4141 30.9766 33.9258 31.1523 33.0078L35.2148 13.457C35.2344 13.2617 35.2539 13.0273 35.2539 12.832C35.2539 12.0117 34.6484 11.6406 33.9648 11.6406C33.418 11.6406 32.8516 11.9727 32.7148 12.6953L29.3555 30.957L29.1992 30.957L24.3359 12.8125C24.1602 12.0703 23.7305 11.6797 22.9883 11.6797C22.2852 11.6797 21.8164 12.1094 21.6211 12.8516L16.7383 30.957L16.6016 30.957L13.2422 12.6953C13.125 12.0508 12.5977 11.6406 11.9531 11.6406C11.2109 11.6406 10.6641 12.0703 10.6641 12.793C10.6641 12.9492 10.6836 13.2031 10.7617 13.4961L14.7852 33.0078C14.9609 33.8672 15.6055 34.4141 16.543 34.4141ZM8.92578 22.8711C8.92578 23.3203 9.27734 23.6719 9.72656 23.6719L36.2305 23.6719C36.6602 23.6719 37.0117 23.3203 37.0117 22.8711C37.0117 22.4219 36.6602 22.1094 36.2305 22.1094L9.72656 22.1094C9.27734 22.1094 8.92578 22.4219 8.92578 22.8711Z" fill="black" fill-opacity="0.85"/>
 </g>
</svg>
