<?xml version="1.0" encoding="UTF-8"?>
<!--Generator: Apple Native CoreSVG 326-->
<!DOCTYPE svg
PUBLIC "-//W3C//DTD SVG 1.1//EN"
       "http://www.w3.org/Graphics/SVG/1.1/DTD/svg11.dtd">
<svg version="1.1" xmlns="http://www.w3.org/2000/svg" xmlns:xlink="http://www.w3.org/1999/xlink" viewBox="0 0 51.25 50.918">
 <g>
  <rect height="50.918" opacity="0" width="51.25" x="0" y="0"/>
  <path d="M25.4297 50.8789C39.4727 50.8789 50.8789 39.4922 50.8789 25.4492C50.8789 11.4062 39.4727 0 25.4297 0C11.3867 0 0 11.4062 0 25.4492C0 39.4922 11.3867 50.8789 25.4297 50.8789ZM25.4297 47.2461C13.3789 47.2461 3.63281 37.5 3.63281 25.4492C3.63281 13.3984 13.3789 3.65234 25.4297 3.65234C37.4805 3.65234 47.2266 13.3984 47.2266 25.4492C47.2266 37.5 37.4805 47.2461 25.4297 47.2461Z" fill="black" fill-opacity="0.85"/>
  <path d="M17.9883 36.9336C18.6914 36.9336 19.0625 36.6797 19.6094 35.9375L25.2734 27.7539L25.3711 27.7539L31.0156 35.9375C31.5625 36.6797 31.9336 36.9336 32.6367 36.9336C33.5938 36.9336 34.3164 36.2695 34.3164 35.3516C34.3164 34.9219 34.1797 34.5898 33.9062 34.2188L27.5 25.2539L33.9648 16.25C34.2578 15.8594 34.375 15.5078 34.375 15.1172C34.375 14.2578 33.6719 13.6133 32.7539 13.6133C32.0703 13.6133 31.6602 13.8477 31.1719 14.5703L25.6641 22.7539L25.5469 22.7539L19.9414 14.5508C19.4727 13.8477 19.043 13.6133 18.3008 13.6133C17.3828 13.6133 16.6406 14.3164 16.6406 15.1953C16.6406 15.6641 16.7578 15.9766 17.0898 16.4453L23.2812 25.1562L16.7773 34.3164C16.5039 34.7266 16.4062 35 16.4062 35.4492C16.4062 36.2695 17.0898 36.9336 17.9883 36.9336Z" fill="black" fill-opacity="0.85"/>
 </g>
</svg>
