<?xml version="1.0" encoding="UTF-8"?>
<!--Generator: Apple Native CoreSVG 326-->
<!DOCTYPE svg
PUBLIC "-//W3C//DTD SVG 1.1//EN"
       "http://www.w3.org/Graphics/SVG/1.1/DTD/svg11.dtd">
<svg version="1.1" xmlns="http://www.w3.org/2000/svg" xmlns:xlink="http://www.w3.org/1999/xlink" viewBox="0 0 59.5508 45.918">
 <g>
  <rect height="45.918" opacity="0" width="59.5508" x="0" y="0"/>
  <path d="M59.1797 7.53906L59.1797 38.3984C59.1797 43.3594 56.6211 45.918 51.5625 45.918L7.59766 45.918C2.55859 45.918 0 43.3984 0 38.3984L0 7.53906C0 2.53906 2.55859 0 7.59766 0L51.5625 0C56.6211 0 59.1797 2.55859 59.1797 7.53906ZM36.8555 13.2617L29.6094 20.4883L22.3828 13.2812C22.0117 12.9297 21.6211 12.7539 21.1133 12.7539C20.1172 12.7539 19.3359 13.5156 19.3359 14.5117C19.3359 15 19.5117 15.4297 19.8633 15.7812L27.0703 22.9883L19.8633 30.1953C19.5117 30.5469 19.3359 30.9961 19.3359 31.4648C19.3359 32.4805 20.1172 33.2812 21.1133 33.2812C21.6211 33.2812 22.0703 33.0859 22.4414 32.7344L29.6094 25.5273L36.7773 32.7344C37.1289 33.0859 37.5781 33.2812 38.0859 33.2812C39.1016 33.2812 39.8828 32.4805 39.8828 31.4648C39.8828 30.9766 39.7266 30.5273 39.3555 30.1758L32.1484 22.9883L39.375 15.7617C39.7656 15.3711 39.9023 14.9805 39.9023 14.4727C39.9023 13.4961 39.1211 12.7148 38.125 12.7148C37.6367 12.7148 37.2461 12.8711 36.8555 13.2617Z" fill="black" fill-opacity="0.85"/>
 </g>
</svg>
