<?xml version="1.0" encoding="UTF-8"?>
<!--Generator: Apple Native CoreSVG 326-->
<!DOCTYPE svg
PUBLIC "-//W3C//DTD SVG 1.1//EN"
       "http://www.w3.org/Graphics/SVG/1.1/DTD/svg11.dtd">
<svg version="1.1" xmlns="http://www.w3.org/2000/svg" xmlns:xlink="http://www.w3.org/1999/xlink" viewBox="0 0 62.7734 46.6992">
 <g>
  <rect height="46.6992" opacity="0" width="62.7734" x="0" y="0"/>
  <path d="M54.5117 19.1602C59.4727 21.1133 62.4023 25.6445 62.4023 30.8203C62.4023 37.5781 56.6016 42.9492 49.1602 42.9492L14.7461 42.9297C6.32812 42.9297 0 36.9336 0 29.6484C0 23.5742 3.57422 18.6719 9.17969 17.8906C9.25781 10.8984 15.9766 6.21094 22.0703 8.18359C24.9609 3.71094 29.7461 0 36.6016 0C46.7188 0 54.6484 8.06641 54.5117 19.1602ZM23.3398 16.8164C22.7539 17.4609 22.6172 18.4375 23.3008 19.1602L28.8086 24.668L23.3008 30.1953C22.6172 30.918 22.6953 31.9336 23.3398 32.5195C23.9844 33.1055 24.9609 33.2617 25.7031 32.5586L31.1914 27.0703L36.6992 32.5586C37.4414 33.2617 38.4375 33.1836 39.043 32.5391C39.6484 31.8945 39.7852 30.918 39.1016 30.1953L33.5938 24.668L39.1016 19.1602C39.7852 18.4375 39.707 17.4219 39.0625 16.8164C38.418 16.2109 37.4414 16.0742 36.6992 16.7969L31.1914 22.2852L25.7031 16.7969C24.9609 16.0938 23.9453 16.1719 23.3398 16.8164Z" fill="black" fill-opacity="0.85"/>
 </g>
</svg>
