<?xml version="1.0" encoding="UTF-8"?>
<!--Generator: Apple Native CoreSVG 326-->
<!DOCTYPE svg
PUBLIC "-//W3C//DTD SVG 1.1//EN"
       "http://www.w3.org/Graphics/SVG/1.1/DTD/svg11.dtd">
<svg version="1.1" xmlns="http://www.w3.org/2000/svg" xmlns:xlink="http://www.w3.org/1999/xlink" viewBox="0 0 42.3047 53.8477">
 <g>
  <rect height="53.8477" opacity="0" width="42.3047" x="0" y="0"/>
  <path d="M41.9336 7.61719L41.9336 46.25C41.9336 51.2891 39.4141 53.8477 34.4141 53.8477L7.51953 53.8477C2.51953 53.8477 0 51.2891 0 46.25L0 7.61719C0 2.57812 2.51953 0.0195312 7.51953 0.0195312L34.4141 0.0195312C39.4141 0.0195312 41.9336 2.57812 41.9336 7.61719ZM28.2422 17.2266L20.9766 24.4531L13.75 17.2461C13.3984 16.9141 13.0078 16.7188 12.5 16.7188C11.5039 16.7188 10.7031 17.4805 10.7031 18.4961C10.7031 18.9648 10.8984 19.4141 11.25 19.7656L18.457 26.9727L11.25 34.1797C10.8984 34.5312 10.7031 34.9609 10.7031 35.4492C10.7031 36.4453 11.5039 37.2461 12.5 37.2461C13.0078 37.2461 13.457 37.0703 13.8281 36.6992L20.9766 29.4922L28.1641 36.6992C28.5156 37.0703 28.9648 37.2461 29.4727 37.2461C30.4688 37.2461 31.2695 36.4453 31.2695 35.4492C31.2695 34.9414 31.1133 34.5117 30.7422 34.1602L23.5352 26.9727L30.7617 19.7461C31.1523 19.3555 31.2891 18.9453 31.2891 18.457C31.2891 17.4609 30.4883 16.6797 29.5117 16.6797C29.0234 16.6797 28.6328 16.8555 28.2422 17.2266Z" fill="black" fill-opacity="0.85"/>
 </g>
</svg>
