<?xml version="1.0" encoding="UTF-8"?>
<!--Generator: Apple Native CoreSVG 326-->
<!DOCTYPE svg
PUBLIC "-//W3C//DTD SVG 1.1//EN"
       "http://www.w3.org/Graphics/SVG/1.1/DTD/svg11.dtd">
<svg version="1.1" xmlns="http://www.w3.org/2000/svg" xmlns:xlink="http://www.w3.org/1999/xlink" viewBox="0 0 46.2891 45.918">
 <g>
  <rect height="45.918" opacity="0" width="46.2891" x="0" y="0"/>
  <path d="M7.59766 45.918L38.3008 45.918C43.3594 45.918 45.918 43.3594 45.918 38.3984L45.918 7.53906C45.918 2.55859 43.3594 0 38.3008 0L7.59766 0C2.55859 0 0 2.53906 0 7.53906L0 38.3984C0 43.3984 2.55859 45.918 7.59766 45.918ZM7.67578 42.4609C4.94141 42.4609 3.45703 41.0156 3.45703 38.2031L3.45703 7.71484C3.45703 4.92188 4.94141 3.45703 7.67578 3.45703L38.2422 3.45703C40.918 3.45703 42.4609 4.92188 42.4609 7.71484L42.4609 38.2031C42.4609 41.0156 40.918 42.4609 38.2422 42.4609Z" fill="black" fill-opacity="0.85"/>
  <path d="M22.9492 34.4336C24.082 34.4336 24.707 33.6914 24.707 32.5195L24.707 25.332L31.9922 13.6328C32.1875 13.3203 32.2852 12.9688 32.2852 12.6367C32.2852 11.7578 31.6406 11.1133 30.7227 11.1133C29.9805 11.1133 29.5703 11.3867 29.1211 12.168L23.0664 22.0508L22.9102 22.0508L16.8555 12.168C16.4062 11.3672 15.9766 11.1133 15.2148 11.1133C14.3164 11.1133 13.6328 11.7773 13.6328 12.5977C13.6328 12.9492 13.7305 13.2812 13.9258 13.6328L21.25 25.3711L21.25 32.5195C21.25 33.6523 21.8555 34.4336 22.9492 34.4336Z" fill="black" fill-opacity="0.85"/>
 </g>
</svg>
