<?xml version="1.0" encoding="UTF-8"?>
<!--Generator: Apple Native CoreSVG 326-->
<!DOCTYPE svg
PUBLIC "-//W3C//DTD SVG 1.1//EN"
       "http://www.w3.org/Graphics/SVG/1.1/DTD/svg11.dtd">
<svg version="1.1" xmlns="http://www.w3.org/2000/svg" xmlns:xlink="http://www.w3.org/1999/xlink" viewBox="0 0 60.961 50.918">
 <g>
  <rect height="50.918" opacity="0" width="60.961" x="0" y="0"/>
  <path d="M30.295 50.8789C44.3379 50.8789 55.7246 39.4922 55.7246 25.4492C55.7246 11.4062 44.3379 0 30.295 0C16.252 0 4.86526 11.4062 4.86526 25.4492L8.49808 25.4492C8.49808 13.3984 18.2442 3.65234 30.295 3.65234C42.3457 3.65234 52.0918 13.3984 52.0918 25.4492C52.0918 37.5 42.3457 47.2461 30.295 47.2461C22.834 47.2461 16.1739 43.457 12.3653 37.7539C11.7207 36.875 10.7051 36.6016 9.80667 37.1484C8.94729 37.6562 8.69339 38.8477 9.39651 39.8047C13.9473 46.5039 21.6426 50.8789 30.295 50.8789ZM1.60354 20.7227C0.00198146 20.7227-0.447237 21.8164 0.470731 23.0859L6.01761 30.9766C6.75979 32.0508 7.83401 32.0312 8.55667 30.9766L14.1035 23.0664C14.9825 21.8164 14.5528 20.7227 12.9707 20.7227Z" fill="black" fill-opacity="0.85"/>
  <path d="M30.295 37.0508C31.0567 37.0508 31.584 36.5039 31.584 35.7227L31.584 27.3633L38.791 15.8594C38.9668 15.5469 39.045 15.3906 39.045 15.0195C39.045 14.3164 38.4785 13.8477 37.7559 13.8477C37.2676 13.8477 36.877 14.1016 36.6035 14.5898L30.3535 24.9805L30.2559 24.9805L24.0254 14.5898C23.752 14.1016 23.42 13.8281 22.834 13.8281C22.1114 13.8281 21.5645 14.2969 21.5645 15.0195C21.5645 15.293 21.6426 15.5859 21.8379 15.8984L29.0059 27.3633L29.0059 35.7227C29.0059 36.5039 29.5332 37.0508 30.295 37.0508ZM23.3028 26.8359C23.3028 27.2656 23.6543 27.5977 24.084 27.5977L36.6231 27.5977C37.0723 27.5977 37.4043 27.2656 37.4043 26.8359C37.4043 26.3867 37.0723 26.0547 36.6231 26.0547L24.084 26.0547C23.6543 26.0547 23.3028 26.3867 23.3028 26.8359ZM23.3028 31.0742C23.3028 31.5234 23.6543 31.8555 24.084 31.8555L36.6231 31.8555C37.0723 31.8555 37.4043 31.5234 37.4043 31.0742C37.4043 30.6445 37.0723 30.3125 36.6231 30.3125L24.084 30.3125C23.6543 30.3125 23.3028 30.6445 23.3028 31.0742Z" fill="black" fill-opacity="0.85"/>
 </g>
</svg>
