<?xml version="1.0" encoding="UTF-8"?>
<!--Generator: Apple Native CoreSVG 326-->
<!DOCTYPE svg
PUBLIC "-//W3C//DTD SVG 1.1//EN"
       "http://www.w3.org/Graphics/SVG/1.1/DTD/svg11.dtd">
<svg version="1.1" xmlns="http://www.w3.org/2000/svg" xmlns:xlink="http://www.w3.org/1999/xlink" viewBox="0 0 57.6367 43.3008">
 <g>
  <rect height="43.3008" opacity="0" width="57.6367" x="0" y="0"/>
  <path d="M57.2656 19.9805L57.2656 35.918C57.2656 40.7617 54.7461 43.2617 49.8633 43.2617L7.42188 43.2617C2.51953 43.2617 0 40.7812 0 35.918L0 19.9805C0 6.62109 6.21094 0 20.4883 0L36.7773 0C51.0742 0 57.2656 6.62109 57.2656 19.9805ZM17.6562 11.582C16.8945 11.582 16.2695 12.207 16.2695 12.9297C16.2695 13.6719 16.8945 14.2773 17.6562 14.2773L24.4922 14.2773L24.4922 14.4336L16.6211 28.9844C16.3672 29.4727 16.25 29.8242 16.25 30.332C16.25 31.3086 16.9141 31.875 17.8711 31.875L26.9922 31.875C27.7148 31.875 28.3398 31.25 28.3398 30.5078C28.3398 29.7852 27.7148 29.1602 26.9922 29.1602L19.8633 29.1602L19.8633 29.0039L27.6367 14.4727C27.8711 14.043 28.0469 13.6914 28.0469 13.1445C28.0469 12.2266 27.4023 11.582 26.4062 11.582ZM31.6602 12.8516L31.6602 30.1367C31.6602 31.1719 32.2461 31.8164 33.2422 31.8164L40.5273 31.8164C41.2695 31.8164 41.8945 31.1914 41.8945 30.4492C41.8945 29.707 41.2695 29.082 40.5273 29.082L34.8633 29.082L34.8633 12.8516C34.8633 11.9727 34.1211 11.25 33.2812 11.25C32.3828 11.25 31.6602 11.9727 31.6602 12.8516Z" fill="black" fill-opacity="0.85"/>
 </g>
</svg>
