<?xml version="1.0" encoding="UTF-8"?>
<!--Generator: Apple Native CoreSVG 326-->
<!DOCTYPE svg
PUBLIC "-//W3C//DTD SVG 1.1//EN"
       "http://www.w3.org/Graphics/SVG/1.1/DTD/svg11.dtd">
<svg version="1.1" xmlns="http://www.w3.org/2000/svg" xmlns:xlink="http://www.w3.org/1999/xlink" viewBox="0 0 46.2891 45.918">
 <g>
  <rect height="45.918" opacity="0" width="46.2891" x="0" y="0"/>
  <path d="M45.918 7.53906L45.918 38.3984C45.918 43.3594 43.3594 45.918 38.3008 45.918L7.59766 45.918C2.55859 45.918 0 43.3984 0 38.3984L0 7.53906C0 2.53906 2.55859 0 7.59766 0L38.3008 0C43.3594 0 45.918 2.55859 45.918 7.53906ZM14.082 22.9492C14.082 30.2148 17.6562 35.1172 22.9688 35.1172C28.2812 35.1172 31.8555 30.2148 31.8555 22.9492C31.8555 15.6641 28.2812 10.7812 22.9688 10.7812C17.6562 10.7812 14.082 15.6641 14.082 22.9492ZM28.418 22.9492C28.418 28.4766 26.2109 32.207 22.9688 32.207C19.7266 32.207 17.5195 28.4766 17.5195 22.9492C17.5195 17.4023 19.7266 13.6719 22.9688 13.6719C26.2109 13.6719 28.418 17.4023 28.418 22.9492Z" fill="black" fill-opacity="0.85"/>
 </g>
</svg>
