<?xml version="1.0" encoding="UTF-8"?>
<!--Generator: Apple Native CoreSVG 326-->
<!DOCTYPE svg
PUBLIC "-//W3C//DTD SVG 1.1//EN"
       "http://www.w3.org/Graphics/SVG/1.1/DTD/svg11.dtd">
<svg version="1.1" xmlns="http://www.w3.org/2000/svg" xmlns:xlink="http://www.w3.org/1999/xlink" viewBox="0 0 51.25 50.918">
 <g>
  <rect height="50.918" opacity="0" width="51.25" x="0" y="0"/>
  <path d="M25.4297 50.8789C39.4727 50.8789 50.8789 39.4922 50.8789 25.4492C50.8789 11.4062 39.4727 0 25.4297 0C11.3867 0 0 11.4062 0 25.4492C0 39.4922 11.3867 50.8789 25.4297 50.8789ZM25.4297 47.2461C13.3789 47.2461 3.63281 37.5 3.63281 25.4492C3.63281 13.3984 13.3789 3.65234 25.4297 3.65234C37.4805 3.65234 47.2266 13.3984 47.2266 25.4492C47.2266 37.5 37.4805 47.2461 25.4297 47.2461Z" fill="black" fill-opacity="0.85"/>
  <path d="M17.2852 36.1328C22.207 36.1328 23.5938 30.3516 23.5938 25.4492C23.5938 20.5469 22.207 14.7656 17.2852 14.7656C12.3633 14.7656 10.9766 20.5469 10.9766 25.4492C10.9766 30.3516 12.3633 36.1328 17.2852 36.1328ZM17.2852 33.4961C14.9219 33.4961 14.1797 29.6289 14.1797 25.4492C14.1797 21.25 14.9219 17.4023 17.2852 17.4023C19.6484 17.4023 20.3906 21.25 20.3906 25.4492C20.3906 29.6289 19.6484 33.4961 17.2852 33.4961ZM33.0273 36.1328C36.7773 36.1328 38.9062 32.8906 38.9062 28.9844C38.9062 25.5859 37.2656 22.3242 33.9062 22.3242C31.7773 22.3242 30.2344 23.8086 29.6875 26.0156L29.5898 26.0156C29.5898 25.918 29.5898 25.8008 29.5898 25.7031C29.5898 22.7539 29.9805 17.4023 32.9883 17.4023C34.2773 17.4023 35.0977 18.3398 35.5664 19.5508C35.8594 20.2344 36.2695 20.6055 37.0117 20.6055C37.8906 20.6055 38.2812 20.0195 38.2812 19.2773C38.2812 19.0039 38.2422 18.6914 38.1641 18.3594C37.5977 16.1719 35.5273 14.8047 33.0664 14.8047C28.0078 14.8047 26.582 20.7617 26.582 25.7422C26.582 30.4883 28.0664 36.1328 33.0273 36.1328ZM32.9883 33.5352C30.9375 33.5352 30.0391 31.0156 30.0391 29.0039C30.0391 27.0117 31.0156 24.7656 32.9688 24.7656C34.9805 24.7656 35.8594 27.0898 35.8203 29.1211C35.8203 31.1328 34.9023 33.5352 32.9883 33.5352Z" fill="black" fill-opacity="0.85"/>
 </g>
</svg>
