<?xml version="1.0" encoding="UTF-8"?>
<!--Generator: Apple Native CoreSVG 326-->
<!DOCTYPE svg
PUBLIC "-//W3C//DTD SVG 1.1//EN"
       "http://www.w3.org/Graphics/SVG/1.1/DTD/svg11.dtd">
<svg version="1.1" xmlns="http://www.w3.org/2000/svg" xmlns:xlink="http://www.w3.org/1999/xlink" viewBox="0 0 46.2891 45.918">
 <g>
  <rect height="45.918" opacity="0" width="46.2891" x="0" y="0"/>
  <path d="M45.918 7.53906L45.918 38.3984C45.918 43.3594 43.3594 45.918 38.3008 45.918L7.59766 45.918C2.55859 45.918 0 43.3984 0 38.3984L0 7.53906C0 2.53906 2.55859 0 7.59766 0L38.3008 0C43.3594 0 45.918 2.55859 45.918 7.53906ZM9.39453 22.9492C9.39453 27.9883 10.8398 33.8867 15.8789 33.8867C20.9375 33.8867 22.3633 27.9883 22.3633 22.9492C22.3633 17.9102 20.9375 12.0117 15.8789 12.0117C10.8398 12.0117 9.39453 17.9102 9.39453 22.9492ZM25.8203 12.5C25.0391 12.5 24.4922 13.0664 24.4922 13.8477C24.4922 14.6484 25.0391 15.2148 25.8203 15.2148L32.7539 15.2148L32.7539 15.4297L26.7969 30.9375C26.6016 31.4648 26.5234 31.7578 26.5234 32.2852C26.5234 32.9883 26.9531 33.7109 28.0273 33.7109C28.8672 33.7109 29.2383 33.3789 29.5703 32.5391L35.6445 16.2109C35.8984 15.5273 36.0742 14.9609 36.0742 14.2773C36.0742 13.2031 35.2734 12.5 34.2188 12.5ZM19.043 22.9492C19.043 27.2461 18.2812 31.1719 15.8789 31.1719C13.4766 31.1719 12.7148 27.2461 12.7148 22.9492C12.7148 18.6328 13.4766 14.7266 15.8789 14.7266C18.2812 14.7266 19.043 18.6328 19.043 22.9492Z" fill="black" fill-opacity="0.85"/>
 </g>
</svg>
