<?xml version="1.0" encoding="UTF-8"?>
<!--Generator: Apple Native CoreSVG 326-->
<!DOCTYPE svg
PUBLIC "-//W3C//DTD SVG 1.1//EN"
       "http://www.w3.org/Graphics/SVG/1.1/DTD/svg11.dtd">
<svg version="1.1" xmlns="http://www.w3.org/2000/svg" xmlns:xlink="http://www.w3.org/1999/xlink" viewBox="0 0 51.25 50.918">
 <g>
  <rect height="50.918" opacity="0" width="51.25" x="0" y="0"/>
  <path d="M25.4297 50.8789C39.4727 50.8789 50.8789 39.4922 50.8789 25.4492C50.8789 11.4062 39.4727 0 25.4297 0C11.3867 0 0 11.4062 0 25.4492C0 39.4922 11.3867 50.8789 25.4297 50.8789ZM25.4297 47.2461C13.3789 47.2461 3.63281 37.5 3.63281 25.4492C3.63281 13.3984 13.3789 3.65234 25.4297 3.65234C37.4805 3.65234 47.2266 13.3984 47.2266 25.4492C47.2266 37.5 37.4805 47.2461 25.4297 47.2461Z" fill="black" fill-opacity="0.85"/>
  <path d="M17.6758 36.1328C22.6172 36.1328 24.0039 30.3516 24.0039 25.4492C24.0039 20.5469 22.6172 14.7656 17.6758 14.7656C12.7539 14.7656 11.3672 20.5469 11.3672 25.4492C11.3672 30.3516 12.7539 36.1328 17.6758 36.1328ZM17.6758 33.4961C15.3125 33.4961 14.5703 29.6289 14.5703 25.4492C14.5703 21.25 15.3125 17.4023 17.6758 17.4023C20.0586 17.4023 20.7812 21.25 20.7812 25.4492C20.7812 29.6289 20.0586 33.4961 17.6758 33.4961ZM31.8359 28.5938C33.9648 28.5938 35.5078 27.1289 36.0547 24.9219L36.1523 24.9219C36.1523 25.0195 36.1523 25.1367 36.1523 25.2344C36.1523 28.1836 35.7617 33.4766 32.7344 33.4766C31.4648 33.4766 30.6445 32.5977 30.1758 31.3477C29.8438 30.5664 29.3945 30.2539 28.75 30.2539C27.8125 30.2539 27.4219 30.8789 27.4219 31.6211C27.4219 31.8945 27.4805 32.2266 27.5781 32.5391C28.1445 34.7656 30.2344 36.0938 32.6758 36.0938C37.7539 36.0938 39.1602 30.2344 39.1602 25.1953C39.1602 20.4492 37.6953 14.8047 32.7344 14.8047C29.0039 14.8047 26.8555 18.0469 26.8555 21.9727C26.8555 25.3516 28.4961 28.5938 31.8359 28.5938ZM32.7734 26.1328C30.7617 26.1328 29.9023 23.8477 29.9023 21.8359C29.9023 19.7656 30.8398 17.4023 32.7734 17.4023C34.8242 17.4023 35.7031 19.7852 35.7031 21.8359C35.7031 23.9258 34.7266 26.1328 32.7734 26.1328Z" fill="black" fill-opacity="0.85"/>
 </g>
</svg>
