<?xml version="1.0" encoding="UTF-8"?>
<!--Generator: Apple Native CoreSVG 326-->
<!DOCTYPE svg
PUBLIC "-//W3C//DTD SVG 1.1//EN"
       "http://www.w3.org/Graphics/SVG/1.1/DTD/svg11.dtd">
<svg version="1.1" xmlns="http://www.w3.org/2000/svg" xmlns:xlink="http://www.w3.org/1999/xlink" viewBox="0 0 51.25 50.918">
 <g>
  <rect height="50.918" opacity="0" width="51.25" x="0" y="0"/>
  <path d="M25.4297 50.8789C39.4727 50.8789 50.8789 39.4922 50.8789 25.4492C50.8789 11.4062 39.4727 0 25.4297 0C11.3867 0 0 11.4062 0 25.4492C0 39.4922 11.3867 50.8789 25.4297 50.8789ZM25.4297 47.2461C13.3789 47.2461 3.63281 37.5 3.63281 25.4492C3.63281 13.3984 13.3789 3.65234 25.4297 3.65234C37.4805 3.65234 47.2266 13.3984 47.2266 25.4492C47.2266 37.5 37.4805 47.2461 25.4297 47.2461Z" fill="black" fill-opacity="0.85"/>
  <path d="M18.2617 35.8984C19.1211 35.8984 19.8438 35.1758 19.8438 34.2773L19.8438 16.7383C19.8438 15.625 19.1406 14.9609 18.0078 14.9609C17.0898 14.9609 16.3477 15.4492 15.8203 15.8789L12.8516 18.2031C12.4609 18.5156 12.168 18.9258 12.168 19.4922C12.168 20.1953 12.6367 20.6836 13.3203 20.6836C13.6719 20.6836 13.8867 20.5664 14.1211 20.3906L16.6406 18.3789L16.6406 34.2773C16.6406 35.1758 17.3633 35.8984 18.2617 35.8984ZM32.8516 35.9375C33.6719 35.9375 34.3359 35.3906 34.3359 34.3555L34.3359 31.4453L35.4102 31.4453C36.2695 31.4453 36.6797 30.8984 36.6797 30.1367C36.6797 29.4141 36.2891 28.8672 35.4102 28.8672L34.3359 28.8672L34.3359 17.3242C34.3359 15.7617 33.3203 14.9414 31.9141 14.9414C30.3711 14.9414 29.6289 15.7422 29.0039 17.1289L24.1016 27.5C23.7305 28.3594 23.5938 28.9258 23.5938 29.6289C23.5938 30.7031 24.3359 31.4453 25.4492 31.4453L31.3086 31.4453L31.3086 34.3555C31.3086 35.5078 32.1094 35.9375 32.8516 35.9375ZM31.3672 28.9258L26.3281 28.9258L26.3281 28.7891L31.2695 17.832L31.3672 17.832Z" fill="black" fill-opacity="0.85"/>
 </g>
</svg>
