<?xml version="1.0" encoding="UTF-8"?>
<!--Generator: Apple Native CoreSVG 326-->
<!DOCTYPE svg
PUBLIC "-//W3C//DTD SVG 1.1//EN"
       "http://www.w3.org/Graphics/SVG/1.1/DTD/svg11.dtd">
<svg version="1.1" xmlns="http://www.w3.org/2000/svg" xmlns:xlink="http://www.w3.org/1999/xlink" viewBox="0 0 70.4688 48.6523">
 <g>
  <rect height="48.6523" opacity="0" width="70.4688" x="0" y="0"/>
  <path d="M0 24.3164C0 32.1875 2.59766 39.4531 6.97266 45.3125C7.65625 46.2109 8.76953 46.3086 9.62891 45.625C10.4102 44.9609 10.5078 43.9258 9.90234 43.0664C5.97656 37.8516 3.65234 31.3281 3.65234 24.3164C3.65234 17.2656 5.97656 10.7812 9.90234 5.52734C10.5078 4.70703 10.4297 3.67188 9.62891 2.98828C8.78906 2.30469 7.63672 2.42188 6.97266 3.32031C2.59766 9.16016 0 16.4258 0 24.3164ZM70.0977 24.3164C70.0977 16.4258 67.5 9.16016 63.1055 3.32031C62.4414 2.42188 61.3086 2.30469 60.4492 2.98828C59.668 3.67188 59.5898 4.70703 60.1953 5.52734C64.1211 10.7812 66.4258 17.2656 66.4258 24.3164C66.4258 31.3281 64.1211 37.8516 60.1953 43.0664C59.5898 43.9258 59.668 44.9609 60.4492 45.625C61.3086 46.3086 62.4414 46.2109 63.1055 45.3125C67.5 39.4531 70.0977 32.1875 70.0977 24.3164Z" fill="black" fill-opacity="0.85"/>
  <path d="M35.0391 48.6133C48.457 48.6133 59.3555 37.7344 59.3555 24.3164C59.3555 10.8984 48.457 0 35.0391 0C21.6211 0 10.7422 10.8984 10.7422 24.3164C10.7422 37.7344 21.6211 48.6133 35.0391 48.6133ZM35.0391 44.9805C23.6328 44.9805 14.375 35.7227 14.375 24.3164C14.375 12.9102 23.6328 3.63281 35.0391 3.63281C46.4453 3.63281 55.7227 12.9102 55.7227 24.3164C55.7227 35.7227 46.4453 44.9805 35.0391 44.9805Z" fill="black" fill-opacity="0.85"/>
  <path d="M29.3555 35.6641L42.2852 35.6641C43.125 35.6641 43.7305 35.0977 43.7305 34.2383C43.7305 33.3398 43.125 32.793 42.2852 32.793L32.5781 32.793L32.5781 32.6367L38.9062 25.8008C41.2305 23.3008 42.6562 21.3477 42.6562 18.7109C42.6562 14.9219 39.6875 12.4414 35.1758 12.4414C31.6211 12.4414 28.4961 14.5898 27.7734 17.4609C27.6758 17.793 27.6562 18.0859 27.6562 18.3984C27.6562 19.2383 28.2227 19.8047 29.082 19.8047C29.8828 19.8047 30.293 19.3359 30.625 18.6719C31.2109 16.9141 32.7148 15.2148 35.3125 15.2148C37.8711 15.2148 39.5508 16.6992 39.5508 18.9258C39.5508 20.7617 38.1641 22.3242 36.6016 24.0039L28.3789 32.8906C27.9883 33.3203 27.793 33.7305 27.793 34.2188C27.793 35.0977 28.3789 35.6641 29.3555 35.6641Z" fill="black" fill-opacity="0.85"/>
 </g>
</svg>
