<?xml version="1.0" encoding="UTF-8"?>
<!--Generator: Apple Native CoreSVG 326-->
<!DOCTYPE svg
PUBLIC "-//W3C//DTD SVG 1.1//EN"
       "http://www.w3.org/Graphics/SVG/1.1/DTD/svg11.dtd">
<svg version="1.1" xmlns="http://www.w3.org/2000/svg" xmlns:xlink="http://www.w3.org/1999/xlink" viewBox="0 0 51.25 50.918">
 <g>
  <rect height="50.918" opacity="0" width="51.25" x="0" y="0"/>
  <path d="M25.4297 50.8789C39.4727 50.8789 50.8789 39.4922 50.8789 25.4492C50.8789 11.4062 39.4727 0 25.4297 0C11.3867 0 0 11.4062 0 25.4492C0 39.4922 11.3867 50.8789 25.4297 50.8789ZM25.4297 47.2461C13.3789 47.2461 3.63281 37.5 3.63281 25.4492C3.63281 13.3984 13.3789 3.65234 25.4297 3.65234C37.4805 3.65234 47.2266 13.3984 47.2266 25.4492C47.2266 37.5 37.4805 47.2461 25.4297 47.2461Z" fill="black" fill-opacity="0.85"/>
  <path d="M13.7891 35.6445L22.5195 35.6445C23.3008 35.6445 23.7891 35.1172 23.7891 34.3359C23.7891 33.5156 23.2812 33.0273 22.5195 33.0273L16.2305 33.0273L16.2305 32.8516L20.1953 27.6758C22.5977 24.6289 23.3789 22.7734 23.3789 20.5859C23.3789 17.2461 21.2109 14.7656 17.8125 14.7656C14.668 14.7656 12.3438 17.4414 12.3438 20.0781C12.3438 20.8789 12.8125 21.4648 13.6719 21.4648C14.3945 21.4648 14.8438 21.1328 15.0586 20.4102C15.5078 18.5547 16.2109 17.3438 17.8125 17.3438C19.5117 17.3438 20.3906 18.9062 20.3906 20.7227C20.3906 22.7148 19.1602 24.668 17.7539 26.5039L13.1055 32.5977C12.6953 33.125 12.3047 33.6719 12.3047 34.3359C12.3047 35.0977 12.8125 35.6445 13.7891 35.6445ZM35.2148 35.9375C36.0352 35.9375 36.7188 35.3906 36.7188 34.3555L36.7188 31.4453L37.793 31.4453C38.6523 31.4453 39.0625 30.8984 39.0625 30.1367C39.0625 29.4141 38.6523 28.8672 37.793 28.8672L36.7188 28.8672L36.7188 17.3242C36.7188 15.7617 35.6836 14.9414 34.2969 14.9414C32.7344 14.9414 32.0117 15.7422 31.3867 17.1289L26.4648 27.5C26.0938 28.3594 25.957 28.9258 25.957 29.6289C25.957 30.7031 26.6992 31.4453 27.8125 31.4453L33.6914 31.4453L33.6914 34.3555C33.6914 35.5078 34.4922 35.9375 35.2148 35.9375ZM33.75 28.9258L28.7109 28.9258L28.7109 28.7891L33.6523 17.832L33.75 17.832Z" fill="black" fill-opacity="0.85"/>
 </g>
</svg>
