<?xml version="1.0" encoding="UTF-8"?>
<!--Generator: Apple Native CoreSVG 326-->
<!DOCTYPE svg
PUBLIC "-//W3C//DTD SVG 1.1//EN"
       "http://www.w3.org/Graphics/SVG/1.1/DTD/svg11.dtd">
<svg version="1.1" xmlns="http://www.w3.org/2000/svg" xmlns:xlink="http://www.w3.org/1999/xlink" viewBox="0 0 51.25 50.918">
 <g>
  <rect height="50.918" opacity="0" width="51.25" x="0" y="0"/>
  <path d="M50.8789 25.4492C50.8789 39.4531 39.4531 50.8789 25.4297 50.8789C11.4258 50.8789 0 39.4531 0 25.4492C0 11.4258 11.4258 0 25.4297 0C39.4531 0 50.8789 11.4258 50.8789 25.4492ZM29.4336 15C28.1836 15 27.6367 15.8203 27.5586 17.0117L27.0898 24.375C27.0508 24.7852 27.0508 25.1953 27.0508 25.5273C27.0508 26.4062 27.5195 27.168 28.5742 27.168C29.2188 27.168 29.5703 26.875 30.0586 26.2305C30.6836 25.2734 31.4062 24.6094 32.5391 24.6094C34.5703 24.6094 35.4102 27.0508 35.4102 29.082C35.4102 31.3867 34.5312 33.7109 32.4805 33.7109C30.9375 33.7109 29.9805 32.5195 29.5312 30.9961C29.2773 30.2148 28.75 29.8633 28.1445 29.8633C27.3047 29.8633 26.7773 30.4102 26.7773 31.25C26.7773 31.7578 26.9141 32.3047 27.1094 32.7539C27.9492 34.9219 30.1367 36.3867 32.5195 36.3867C36.4453 36.3867 38.5742 32.9883 38.5742 29.0039C38.5742 25.4688 36.875 22.168 33.5547 22.168C32.0703 22.168 30.625 22.8711 29.9414 24.4531L29.8242 24.4531L30.2734 17.7344L36.4648 17.7344C37.2852 17.7344 37.7539 17.168 37.7539 16.3477C37.7539 15.5859 37.2461 15 36.4648 15ZM11.8555 19.9414C11.8555 20.7617 12.3438 21.3672 13.2227 21.3672C13.9648 21.3672 14.4531 21.0352 14.6484 20.293C15.1172 18.3984 15.8594 17.168 17.4609 17.168C19.1992 17.168 20.0977 18.75 20.0977 20.6055C20.0977 22.6562 18.8281 24.668 17.3828 26.5234L12.6367 32.7539C12.207 33.2812 11.8164 33.8477 11.8164 34.5703C11.8164 35.332 12.3438 35.8984 13.3594 35.8984L22.2852 35.8984C23.0859 35.8984 23.5938 35.3516 23.5938 34.5508C23.5938 33.6914 23.0664 33.1836 22.2852 33.1836L15.8789 33.1836L15.8789 33.0078L19.9023 27.7344C22.3828 24.6094 23.2031 22.7148 23.2031 20.4688C23.2031 17.0508 20.9766 14.5117 17.4609 14.5117C14.2383 14.5117 11.8555 17.2461 11.8555 19.9414Z" fill="black" fill-opacity="0.85"/>
 </g>
</svg>
