<?xml version="1.0" encoding="UTF-8"?>
<!--Generator: Apple Native CoreSVG 326-->
<!DOCTYPE svg
PUBLIC "-//W3C//DTD SVG 1.1//EN"
       "http://www.w3.org/Graphics/SVG/1.1/DTD/svg11.dtd">
<svg version="1.1" xmlns="http://www.w3.org/2000/svg" xmlns:xlink="http://www.w3.org/1999/xlink" viewBox="0 0 46.2891 45.918">
 <g>
  <rect height="45.918" opacity="0" width="46.2891" x="0" y="0"/>
  <path d="M7.59766 45.918L38.3008 45.918C43.3594 45.918 45.918 43.3594 45.918 38.3984L45.918 7.53906C45.918 2.55859 43.3594 0 38.3008 0L7.59766 0C2.55859 0 0 2.53906 0 7.53906L0 38.3984C0 43.3984 2.55859 45.918 7.59766 45.918ZM7.67578 42.4609C4.94141 42.4609 3.45703 41.0156 3.45703 38.2031L3.45703 7.71484C3.45703 4.92188 4.94141 3.45703 7.67578 3.45703L38.2422 3.45703C40.918 3.45703 42.4609 4.92188 42.4609 7.71484L42.4609 38.2031C42.4609 41.0156 40.918 42.4609 38.2422 42.4609Z" fill="black" fill-opacity="0.85"/>
  <path d="M11.1328 33.1445L19.8633 33.1445C20.6445 33.1445 21.1328 32.6172 21.1328 31.8359C21.1328 31.0156 20.625 30.5273 19.8633 30.5273L13.5742 30.5273L13.5742 30.3516L17.5391 25.1758C19.9219 22.1289 20.7227 20.2734 20.7227 18.0859C20.7227 14.7461 18.5547 12.2656 15.1562 12.2656C12.0117 12.2656 9.6875 14.9414 9.6875 17.5781C9.6875 18.3789 10.1562 18.9648 11.0156 18.9648C11.7383 18.9648 12.1875 18.6328 12.4023 17.9102C12.8516 16.0547 13.5547 14.8438 15.1562 14.8438C16.8555 14.8438 17.7344 16.4062 17.7344 18.2227C17.7344 20.2148 16.5039 22.168 15.0977 24.0039L10.4492 30.0977C10.0391 30.625 9.64844 31.1719 9.64844 31.8359C9.64844 32.5977 10.1562 33.1445 11.1328 33.1445ZM30.293 33.6328C34.043 33.6328 36.1719 30.3906 36.1719 26.4844C36.1719 23.0859 34.5312 19.8242 31.1719 19.8242C29.043 19.8242 27.5 21.3086 26.9531 23.5156L26.8555 23.5156C26.8555 23.418 26.8555 23.3008 26.8555 23.2031C26.8555 20.2539 27.2461 14.9023 30.2539 14.9023C31.543 14.9023 32.3828 15.8398 32.832 17.0508C33.1445 17.7344 33.5352 18.1055 34.2773 18.1055C35.1562 18.1055 35.5469 17.5195 35.5469 16.7773C35.5469 16.5039 35.5078 16.1914 35.4297 15.8594C34.8633 13.6719 32.793 12.3047 30.332 12.3047C25.2734 12.3047 23.8477 18.2617 23.8477 23.2422C23.8477 27.9883 25.332 33.6328 30.293 33.6328ZM30.2539 31.0352C28.2031 31.0352 27.3047 28.5156 27.3047 26.5039C27.3047 24.5117 28.2812 22.2656 30.2344 22.2656C32.2656 22.2656 33.1445 24.5898 33.1055 26.6211C33.1055 28.6328 32.168 31.0352 30.2539 31.0352Z" fill="black" fill-opacity="0.85"/>
 </g>
</svg>
