<?xml version="1.0" encoding="UTF-8"?>
<!--Generator: Apple Native CoreSVG 326-->
<!DOCTYPE svg
PUBLIC "-//W3C//DTD SVG 1.1//EN"
       "http://www.w3.org/Graphics/SVG/1.1/DTD/svg11.dtd">
<svg version="1.1" xmlns="http://www.w3.org/2000/svg" xmlns:xlink="http://www.w3.org/1999/xlink" viewBox="0 0 51.25 60.6221">
 <g>
  <rect height="60.6221" opacity="0" width="51.25" x="0" y="0"/>
  <path d="M25.4297 55.7309C39.4727 55.7309 50.8789 44.3442 50.8789 30.3013C50.8789 21.5708 46.5039 13.9731 39.8242 9.38329C38.8867 8.68017 37.6562 8.93407 37.1289 9.79345C36.6016 10.6919 36.875 11.7075 37.7539 12.3716C43.457 16.2388 47.2266 22.8208 47.2266 30.3013C47.2266 42.352 37.4805 52.0981 25.4297 52.0981C13.3789 52.0981 3.63281 42.352 3.63281 30.3013C3.63281 19.8325 10.9766 11.1606 20.7227 9.0122L20.7227 12.977C20.7227 14.5591 21.8164 14.9888 23.0664 14.1099L30.9766 8.56298C32.0117 7.84032 32.0312 6.7661 30.9766 6.00439L23.0859 0.457511C21.8164-0.440926 20.7227 0.00829228 20.7227 1.59032L20.7227 5.32079C8.98438 7.48876 0 17.8403 0 30.3013C0 44.3442 11.3867 55.7309 25.4297 55.7309Z" fill="black" fill-opacity="0.85"/>
  <path d="M17.4219 40.7114C21.0547 40.7114 23.9453 38.5434 23.9453 35.0278C23.9453 32.1567 22.0703 30.5942 19.6484 30.3599L19.6484 30.3403C21.875 29.852 23.2812 28.0747 23.2812 25.8286C23.2812 22.6255 20.6836 20.7309 17.3242 20.7309C14.5508 20.7309 12.2266 22.2934 11.6406 24.52C11.543 24.813 11.5039 25.1645 11.5039 25.4966C11.5039 26.1997 11.875 26.7661 12.793 26.7661C13.5547 26.7661 13.9453 26.4145 14.1797 25.7114C14.6289 24.1099 15.7227 23.1919 17.3438 23.1919C19.1602 23.1919 20.3711 24.3442 20.3711 26.1802C20.3711 28.1138 18.9648 29.3052 16.9727 29.3052L16.0742 29.3052C15.332 29.3052 14.8633 29.7544 14.8633 30.4575C14.8633 31.1802 15.3516 31.5903 16.0742 31.5903L17.0312 31.5903C19.2578 31.5903 20.8789 32.5669 20.8789 34.9302C20.8789 36.8638 19.4727 38.2114 17.4414 38.2114C15.5273 38.2114 14.3359 37.1958 13.8672 35.6724C13.6133 35.0474 13.125 34.6372 12.5 34.6372C11.6797 34.6372 11.1328 35.1645 11.1328 35.9849C11.1328 36.3169 11.1914 36.6294 11.2891 36.9419C11.9727 39.4614 14.7461 40.7114 17.4219 40.7114ZM33.418 40.7505C38.3398 40.7505 40.0195 35.5747 40.0195 30.6724C40.0195 25.77 38.3008 20.6724 33.418 20.6724C28.457 20.6724 26.7773 25.8286 26.7773 30.6724C26.7773 35.6333 28.5156 40.7505 33.418 40.7505ZM33.418 38.2114C30.957 38.2114 29.8828 34.7153 29.8828 30.6724C29.8828 26.6294 30.957 23.1724 33.418 23.1724C35.8594 23.1724 36.9336 26.6684 36.9336 30.6724C36.9336 34.7153 35.8789 38.2114 33.418 38.2114Z" fill="black" fill-opacity="0.85"/>
 </g>
</svg>
