<?xml version="1.0" encoding="UTF-8"?>
<!--Generator: Apple Native CoreSVG 326-->
<!DOCTYPE svg
PUBLIC "-//W3C//DTD SVG 1.1//EN"
       "http://www.w3.org/Graphics/SVG/1.1/DTD/svg11.dtd">
<svg version="1.1" xmlns="http://www.w3.org/2000/svg" xmlns:xlink="http://www.w3.org/1999/xlink" viewBox="0 0 51.25 50.918">
 <g>
  <rect height="50.918" opacity="0" width="51.25" x="0" y="0"/>
  <path d="M50.8789 25.4492C50.8789 39.4531 39.4531 50.8789 25.4297 50.8789C11.4258 50.8789 0 39.4531 0 25.4492C0 11.4258 11.4258 0 25.4297 0C39.4531 0 50.8789 11.4258 50.8789 25.4492ZM29.8828 15C28.6523 15 28.1055 15.8008 28.0078 17.0117L27.5391 24.375C27.5195 24.7852 27.5 25.1953 27.5 25.5273C27.5 26.4062 27.9688 27.168 29.0234 27.168C29.6875 27.168 30.0391 26.875 30.5078 26.2305C31.1328 25.2734 31.8555 24.6094 32.9883 24.6094C35.0195 24.6094 35.8594 27.0508 35.8594 29.082C35.8594 31.3867 35 33.7109 32.9297 33.7109C31.3867 33.7109 30.4297 32.5195 29.9805 30.9766C29.7266 30.1953 29.2188 29.8633 28.5938 29.8633C27.7539 29.8633 27.2266 30.4102 27.2266 31.25C27.2266 31.7578 27.3633 32.3047 27.5391 32.7539C28.3984 34.9219 30.6055 36.3867 32.9688 36.3867C36.8945 36.3867 39.043 32.9883 39.043 29.0039C39.043 25.4688 37.3438 22.168 34.0039 22.168C32.5195 22.168 31.0742 22.8711 30.3906 24.4336L30.293 24.4336L30.7422 17.7148L36.9141 17.7148C37.7148 17.7148 38.2031 17.168 38.2031 16.3477C38.2031 15.5859 37.6758 15 36.9141 15ZM16.2109 16.9336L11.2109 27.5391C10.8203 28.418 10.6836 29.0039 10.6836 29.7266C10.6836 30.8398 11.4453 31.6016 12.5977 31.6016L18.5742 31.6016L18.5742 34.5508C18.5742 35.7422 19.4336 36.2109 20.1758 36.2109C21.0156 36.2109 21.6992 35.6445 21.6992 34.5508L21.6992 31.6016L22.793 31.6016C23.6914 31.6016 24.1016 31.0352 24.1016 30.2539C24.1016 29.5117 23.7109 28.9453 22.793 28.9453L21.6992 28.9453L21.6992 17.1484C21.6992 15.5078 20.6641 14.6875 19.1992 14.6875C17.6172 14.6875 16.8555 15.5078 16.2109 16.9336ZM18.6328 29.0039L13.4961 29.0039L13.4961 28.8672L18.5352 17.6562L18.6328 17.6562Z" fill="black" fill-opacity="0.85"/>
 </g>
</svg>
