<?xml version="1.0" encoding="UTF-8"?>
<!--Generator: Apple Native CoreSVG 326-->
<!DOCTYPE svg
PUBLIC "-//W3C//DTD SVG 1.1//EN"
       "http://www.w3.org/Graphics/SVG/1.1/DTD/svg11.dtd">
<svg version="1.1" xmlns="http://www.w3.org/2000/svg" xmlns:xlink="http://www.w3.org/1999/xlink" viewBox="0 0 51.25 50.918">
 <g>
  <rect height="50.918" opacity="0" width="51.25" x="0" y="0"/>
  <path d="M25.4297 50.8789C39.4727 50.8789 50.8789 39.4922 50.8789 25.4492C50.8789 11.4062 39.4727 0 25.4297 0C11.3867 0 0 11.4062 0 25.4492C0 39.4922 11.3867 50.8789 25.4297 50.8789ZM25.4297 47.2461C13.3789 47.2461 3.63281 37.5 3.63281 25.4492C3.63281 13.3984 13.3789 3.65234 25.4297 3.65234C37.4805 3.65234 47.2266 13.3984 47.2266 25.4492C47.2266 37.5 37.4805 47.2461 25.4297 47.2461Z" fill="black" fill-opacity="0.85"/>
  <path d="M20.9766 35.9375C21.7969 35.9375 22.4805 35.3906 22.4805 34.3555L22.4805 31.4453L23.5547 31.4453C24.4141 31.4453 24.8242 30.8984 24.8242 30.1367C24.8242 29.4141 24.4141 28.8672 23.5547 28.8672L22.4805 28.8672L22.4805 17.3242C22.4805 15.7617 21.4648 14.9414 20.0586 14.9414C18.4961 14.9414 17.7734 15.7422 17.1484 17.1289L12.2266 27.5C11.8555 28.3594 11.7383 28.9258 11.7383 29.6289C11.7383 30.7031 12.4609 31.4453 13.5742 31.4453L19.4531 31.4453L19.4531 34.3555C19.4531 35.5078 20.2539 35.9375 20.9766 35.9375ZM19.5117 28.9258L14.4727 28.9258L14.4727 28.7891L19.4141 17.832L19.5117 17.832ZM30.2539 35.957C31.0742 35.957 31.4453 35.6055 31.7383 34.8242L37.6953 18.8477C37.9492 18.1836 38.1055 17.6367 38.1055 16.9727C38.1055 15.957 37.3242 15.2734 36.3086 15.2734L28.125 15.2734C27.3633 15.2734 26.8359 15.8203 26.8359 16.582C26.8359 17.3438 27.3633 17.8906 28.125 17.8906L34.9023 17.8906L34.9023 18.0859L29.082 33.2617C28.8867 33.75 28.8086 34.0625 28.8086 34.5703C28.8086 35.2539 29.2383 35.957 30.2539 35.957Z" fill="black" fill-opacity="0.85"/>
 </g>
</svg>
