<?xml version="1.0" encoding="UTF-8"?>
<!--Generator: Apple Native CoreSVG 326-->
<!DOCTYPE svg
PUBLIC "-//W3C//DTD SVG 1.1//EN"
       "http://www.w3.org/Graphics/SVG/1.1/DTD/svg11.dtd">
<svg version="1.1" xmlns="http://www.w3.org/2000/svg" xmlns:xlink="http://www.w3.org/1999/xlink" viewBox="0 0 51.25 50.918">
 <g>
  <rect height="50.918" opacity="0" width="51.25" x="0" y="0"/>
  <path d="M25.4297 50.8789C39.4727 50.8789 50.8789 39.4922 50.8789 25.4492C50.8789 11.4062 39.4727 0 25.4297 0C11.3867 0 0 11.4062 0 25.4492C0 39.4922 11.3867 50.8789 25.4297 50.8789ZM25.4297 47.2461C13.3789 47.2461 3.63281 37.5 3.63281 25.4492C3.63281 13.3984 13.3789 3.65234 25.4297 3.65234C37.4805 3.65234 47.2266 13.3984 47.2266 25.4492C47.2266 37.5 37.4805 47.2461 25.4297 47.2461Z" fill="black" fill-opacity="0.85"/>
  <path d="M19.7266 35.9375C20.5469 35.9375 21.2305 35.3906 21.2305 34.3555L21.2305 31.4453L22.3047 31.4453C23.1641 31.4453 23.5742 30.8984 23.5742 30.1367C23.5742 29.4141 23.1641 28.8672 22.3047 28.8672L21.2305 28.8672L21.2305 17.3242C21.2305 15.7617 20.2148 14.9414 18.8086 14.9414C17.2461 14.9414 16.5234 15.7422 15.8984 17.1289L10.9766 27.5C10.625 28.3594 10.4883 28.9258 10.4883 29.6289C10.4883 30.7031 11.2305 31.4453 12.3242 31.4453L18.2031 31.4453L18.2031 34.3555C18.2031 35.5078 19.0039 35.9375 19.7266 35.9375ZM18.2617 28.9258L13.2227 28.9258L13.2227 28.7891L18.1641 17.832L18.2617 17.832ZM32.5195 36.0547C36.3672 36.0547 38.8477 33.5547 38.8477 30.1367C38.8477 27.4414 37.168 25.3906 35.1367 24.9219L35.1367 24.8438C36.875 24.2969 38.2812 22.5977 38.2812 20.3125C38.2812 17.1289 35.9766 14.8633 32.5195 14.8633C29.4141 14.8633 26.7969 16.8555 26.7969 20.293C26.7969 22.7539 28.2617 24.3164 29.9609 24.8438L29.9609 24.9219C27.8125 25.4102 26.2109 27.4609 26.2109 30.1367C26.2109 33.7305 28.8672 36.0547 32.5195 36.0547ZM32.5195 23.8086C30.8789 23.8086 29.8633 22.3047 29.8633 20.6055C29.8633 18.8281 30.8594 17.2656 32.5195 17.2656C34.3164 17.2656 35.1953 18.8867 35.1953 20.6055C35.1953 22.3828 34.1992 23.8086 32.5195 23.8086ZM32.5195 33.6328C30.5469 33.6328 29.4922 31.8945 29.4922 29.9023C29.4922 27.9102 30.5664 26.25 32.5195 26.25C34.4141 26.25 35.5664 27.793 35.5664 29.9023C35.5664 31.8945 34.5117 33.6328 32.5195 33.6328Z" fill="black" fill-opacity="0.85"/>
 </g>
</svg>
