<?xml version="1.0" encoding="UTF-8"?>
<!--Generator: Apple Native CoreSVG 326-->
<!DOCTYPE svg
PUBLIC "-//W3C//DTD SVG 1.1//EN"
       "http://www.w3.org/Graphics/SVG/1.1/DTD/svg11.dtd">
<svg version="1.1" xmlns="http://www.w3.org/2000/svg" xmlns:xlink="http://www.w3.org/1999/xlink" viewBox="0 0 51.25 50.918">
 <g>
  <rect height="50.918" opacity="0" width="51.25" x="0" y="0"/>
  <path d="M50.8789 25.4492C50.8789 39.4531 39.4531 50.8789 25.4297 50.8789C11.4258 50.8789 0 39.4531 0 25.4492C0 11.4258 11.4258 0 25.4297 0C39.4531 0 50.8789 11.4258 50.8789 25.4492ZM16.6016 16.9336L11.6016 27.5391C11.2305 28.418 11.0938 29.0039 11.0938 29.7266C11.0938 30.8398 11.8555 31.6016 13.0078 31.6016L19.0039 31.6016L19.0039 34.5508C19.0039 35.7422 19.8438 36.2109 20.5859 36.2109C21.4258 36.2109 22.1289 35.6445 22.1289 34.5508L22.1289 31.6016L23.2227 31.6016C24.1016 31.6016 24.5312 31.0352 24.5312 30.2539C24.5312 29.5117 24.1211 28.9453 23.2227 28.9453L22.1289 28.9453L22.1289 17.1484C22.1289 15.5078 21.0742 14.6875 19.6094 14.6875C18.0273 14.6875 17.2656 15.5078 16.6016 16.9336ZM27.8125 16.4453L27.8125 34.1797C27.8125 35.2344 28.3789 35.8984 29.3945 35.8984L36.875 35.8984C37.6953 35.8984 38.3203 35.3711 38.3203 34.4727C38.3203 33.6133 37.6953 33.0859 36.875 33.0859L31.1133 33.0859L31.1133 16.4453C31.1133 15.4688 30.5859 14.707 29.4336 14.707C28.3789 14.707 27.8125 15.3906 27.8125 16.4453ZM19.0625 29.0039L13.9062 29.0039L13.9062 28.8672L18.9648 17.6562L19.0625 17.6562Z" fill="black" fill-opacity="0.85"/>
 </g>
</svg>
