<?xml version="1.0" encoding="UTF-8"?>
<!--Generator: Apple Native CoreSVG 326-->
<!DOCTYPE svg
PUBLIC "-//W3C//DTD SVG 1.1//EN"
       "http://www.w3.org/Graphics/SVG/1.1/DTD/svg11.dtd">
<svg version="1.1" xmlns="http://www.w3.org/2000/svg" xmlns:xlink="http://www.w3.org/1999/xlink" viewBox="0 0 48.2227 56.1133">
 <g>
  <rect height="56.1133" opacity="0" width="48.2227" x="0" y="0"/>
  <path d="M23.9258 51.875C37.1289 51.875 47.8516 41.1523 47.8516 27.9492C47.8516 14.7461 37.1289 4.02344 23.9258 4.02344C10.7227 4.02344 0 14.7461 0 27.9492C0 41.1523 10.7227 51.875 23.9258 51.875ZM11.9727 30.5273C11.1133 30.5273 10.4492 29.8633 10.4492 29.0039C10.4492 28.1641 11.1133 27.5 11.9727 27.5L22.4023 27.5L22.4023 13.1445C22.4023 12.3047 23.0664 11.6406 23.9062 11.6406C24.7656 11.6406 25.4297 12.3047 25.4297 13.1445L25.4297 29.0039C25.4297 29.8633 24.7656 30.5273 23.9062 30.5273ZM3.75 10.1758C4.14062 10.1758 4.39453 10.1172 4.74609 9.84375L13.0078 3.75C13.418 3.4375 13.6328 3.04688 13.6328 2.63672C13.6328 2.10938 13.3789 1.67969 12.9492 1.28906C11.9922 0.429688 10.3516 0 8.86719 0C4.98047 0 1.95312 3.02734 1.95312 6.83594C1.95312 7.71484 2.08984 8.61328 2.34375 9.17969C2.61719 9.78516 3.125 10.1758 3.75 10.1758ZM44.082 10.1758C44.7266 10.1758 45.2148 9.76562 45.4883 9.17969C45.7617 8.63281 45.8984 7.71484 45.8984 6.83594C45.8984 3.02734 42.8516 0 38.9844 0C37.5 0 35.8594 0.429688 34.9023 1.28906C34.4531 1.67969 34.2188 2.10938 34.2188 2.63672C34.2188 3.04688 34.4336 3.4375 34.8438 3.75L43.0859 9.84375C43.4375 10.1172 43.7109 10.1758 44.082 10.1758ZM3.22266 51.1719C3.86719 51.8359 4.90234 51.8359 5.58594 51.1523L10.2734 46.4648L7.96875 44.1602L3.24219 48.8672C2.57812 49.5117 2.57812 50.5469 3.22266 51.1719ZM44.6289 51.1719C45.2734 50.5469 45.2734 49.5117 44.6094 48.8672L39.8828 44.1602L37.5781 46.4648L42.2656 51.1523C42.9297 51.8359 43.9844 51.8359 44.6289 51.1719Z" fill="black" fill-opacity="0.85"/>
 </g>
</svg>
