<?xml version="1.0" encoding="UTF-8"?>
<!--Generator: Apple Native CoreSVG 326-->
<!DOCTYPE svg
PUBLIC "-//W3C//DTD SVG 1.1//EN"
       "http://www.w3.org/Graphics/SVG/1.1/DTD/svg11.dtd">
<svg version="1.1" xmlns="http://www.w3.org/2000/svg" xmlns:xlink="http://www.w3.org/1999/xlink" viewBox="0 0 55.5859 57.3242">
 <g>
  <rect height="57.3242" opacity="0" width="55.5859" x="0" y="0"/>
  <path d="M13.1641 26.0352L32.5195 26.0352C35.8789 26.0352 37.7539 24.1797 37.7539 20.8789L37.7539 11.6602C37.7539 8.35938 35.8789 6.50391 32.5195 6.50391L13.1641 6.50391C9.80469 6.50391 7.92969 8.35938 7.92969 11.6602L7.92969 20.8789C7.92969 24.1797 9.80469 26.0352 13.1641 26.0352ZM13.1641 50.7617L49.9805 50.7617C53.3398 50.7617 55.2148 48.9062 55.2148 45.6055L55.2148 36.3867C55.2148 33.0859 53.3398 31.2305 49.9805 31.2305L13.1641 31.2305C9.80469 31.2305 7.92969 33.0859 7.92969 36.3867L7.92969 45.6055C7.92969 48.9062 9.80469 50.7617 13.1641 50.7617Z" fill="black" fill-opacity="0.85"/>
  <path d="M1.60156 57.2852C2.44141 57.2852 3.18359 56.6211 3.18359 55.7812L3.18359 1.50391C3.18359 0.664062 2.44141 0 1.60156 0C0.742188 0 0 0.664062 0 1.50391L0 55.7812C0 56.6211 0.742188 57.2852 1.60156 57.2852Z" fill="black" fill-opacity="0.85"/>
 </g>
</svg>
