<?xml version="1.0" encoding="UTF-8"?>
<!--Generator: Apple Native CoreSVG 326-->
<!DOCTYPE svg
PUBLIC "-//W3C//DTD SVG 1.1//EN"
       "http://www.w3.org/Graphics/SVG/1.1/DTD/svg11.dtd">
<svg version="1.1" xmlns="http://www.w3.org/2000/svg" xmlns:xlink="http://www.w3.org/1999/xlink" viewBox="0 0 51.25 50.918">
 <g>
  <rect height="50.918" opacity="0" width="51.25" x="0" y="0"/>
  <path d="M50.8789 25.4492C50.8789 39.4531 39.4531 50.8789 25.4297 50.8789C11.4258 50.8789 0 39.4531 0 25.4492C0 11.4258 11.4258 0 25.4297 0C39.4531 0 50.8789 11.4258 50.8789 25.4492ZM12.7539 35.8984C13.2031 37.2852 13.5938 37.6953 14.9805 38.125C17.4609 38.8672 20.2539 38.9258 23.0078 38.3594L12.5195 27.8711C11.9531 30.625 12.0312 33.418 12.7539 35.8984ZM17.9688 17.9883C15.7227 20.2148 14.1406 22.793 13.2031 25.4883L25.3906 37.6758C28.0859 36.7383 30.6836 35.1562 32.8906 32.9102C35.1367 30.7031 36.7188 28.1055 37.6562 25.4102L25.4883 13.2227C22.7734 14.1602 20.1758 15.7422 17.9688 17.9883ZM28.2031 19.8438L31.0156 22.6367C31.2695 22.8906 31.25 23.2617 31.0156 23.5352C30.7812 23.7695 30.4102 23.75 30.1367 23.5156L29.1797 22.5586L28.1836 23.5547L29.1406 24.5312C29.3945 24.7461 29.3945 25.1367 29.1406 25.3906C28.9062 25.625 28.5352 25.6055 28.2812 25.3711L27.3047 24.4141L26.2891 25.4102L27.2656 26.3867C27.5 26.6211 27.5391 27.0312 27.2656 27.2461C27.0508 27.5 26.6602 27.4805 26.4453 27.2461L25.4492 26.3086L24.4141 27.2852L25.4102 28.2617C25.6641 28.4766 25.6641 28.9062 25.4102 29.1211C25.1953 29.3555 24.8047 29.3945 24.5508 29.1016L23.5938 28.1445L22.5781 29.1406L23.5742 30.1367C23.7695 30.3711 23.7695 30.7422 23.5742 30.9766C23.3008 31.2305 22.9492 31.1914 22.6953 30.957L19.8828 28.2031C19.6484 27.9688 19.6289 27.5781 19.8828 27.3242C20.1562 27.0898 20.5273 27.1094 20.7617 27.3242L21.7383 28.3008L22.7344 27.2852L21.7578 26.3477C21.5039 26.1133 21.5039 25.6836 21.7578 25.4688C21.9922 25.2148 22.3828 25.2148 22.6172 25.4492L23.5938 26.4453L24.5898 25.4102L23.6328 24.4336C23.3984 24.2383 23.3789 23.8086 23.6328 23.6133C23.8477 23.3398 24.2383 23.3398 24.4531 23.5938L25.4492 24.5898L26.4844 23.5547L25.4883 22.5781C25.2539 22.3828 25.2539 21.9531 25.4883 21.7188C25.7422 21.4844 26.1328 21.4844 26.3281 21.7188L27.3047 22.6953L28.3398 21.6992L27.3633 20.7227C27.1484 20.4688 27.1289 20.0977 27.3438 19.8438C27.5977 19.6289 27.9688 19.6094 28.2031 19.8438ZM27.8711 12.5586L38.3398 23.0273C38.9258 20.2539 38.8477 17.4805 38.125 15C37.6562 13.6133 37.2656 13.2227 35.8984 12.7734C33.418 12.0312 30.6445 11.9727 27.8711 12.5586Z" fill="black" fill-opacity="0.85"/>
 </g>
</svg>
