<?xml version="1.0" encoding="UTF-8"?>
<!--Generator: Apple Native CoreSVG 326-->
<!DOCTYPE svg
PUBLIC "-//W3C//DTD SVG 1.1//EN"
       "http://www.w3.org/Graphics/SVG/1.1/DTD/svg11.dtd">
<svg version="1.1" xmlns="http://www.w3.org/2000/svg" xmlns:xlink="http://www.w3.org/1999/xlink" viewBox="0 0 51.25 50.918">
 <g>
  <rect height="50.918" opacity="0" width="51.25" x="0" y="0"/>
  <path d="M25.4297 50.8789C39.4727 50.8789 50.8789 39.4922 50.8789 25.4492C50.8789 11.4062 39.4727 0 25.4297 0C11.3867 0 0 11.4062 0 25.4492C0 39.4922 11.3867 50.8789 25.4297 50.8789ZM25.4297 47.2461C13.3789 47.2461 3.63281 37.5 3.63281 25.4492C3.63281 13.3984 13.3789 3.65234 25.4297 3.65234C37.4805 3.65234 47.2266 13.3984 47.2266 25.4492C47.2266 37.5 37.4805 47.2461 25.4297 47.2461Z" fill="black" fill-opacity="0.85"/>
  <path d="M14.375 32.0703L15.4688 39.1602C15.5664 39.8047 15.8789 40.1953 16.5039 40.1953C17.1289 40.1953 17.5781 39.707 17.4609 38.9844L16.4453 32.4023C16.3281 31.543 16.582 31.1719 17.5 30.9375C17.8516 30.8398 18.2031 30.7422 18.5547 30.6445C18.3203 31.1719 18.2031 31.7969 18.2031 32.5391C18.2031 36.9727 21.582 41.1328 25.4297 41.1328C29.2773 41.1328 32.6367 36.9727 32.6367 32.5391C32.6367 31.7969 32.5391 31.1719 32.2852 30.6445C32.6562 30.7422 33.0078 30.8398 33.3594 30.9375C34.2773 31.1719 34.5312 31.543 34.3945 32.4023L33.3984 38.9844C33.2617 39.707 33.7305 40.1953 34.3555 40.1953C34.9609 40.1953 35.293 39.8047 35.3906 39.1602L36.4844 32.0703C36.7578 30.4492 36.0938 29.5508 34.3164 29.1016L28.7305 27.793C29.1992 27.5586 29.6875 26.9336 29.8828 26.1328L33.5156 25.625C35.2734 25.3516 36.0547 24.4336 36.0547 22.7539L36.0547 18.125C36.0547 17.5 35.6836 17.1094 35.0195 17.1094C34.4141 17.1094 34.043 17.5 34.043 18.125L34.043 22.3828C34.043 23.3203 33.5742 23.6328 32.6758 23.7695L29.8047 24.1797C29.6875 23.75 29.4141 23.3398 29.1602 23.125C31.3281 22.6758 32.4805 21.2891 32.4805 19.1992C32.4805 17.4219 31.8164 15.7617 30.6836 14.5117L30.7422 14.4336C32.0508 13.457 32.2852 12.0898 31.3672 10.6055L30.4102 9.12109C30.1562 8.71094 29.8633 8.49609 29.4531 8.49609C28.9062 8.49609 28.5156 8.88672 28.5156 9.39453C28.5156 9.64844 28.5547 9.80469 28.7109 10.0391L29.6289 11.3477C30.0586 12.0117 30.1562 12.5586 29.6094 12.9883L29.3164 13.2422C28.1445 12.5 26.6992 12.0703 25.4297 12.0703C24.1406 12.0703 22.7148 12.5 21.543 13.2422L21.2305 12.9883C20.7031 12.5586 20.8203 12.0117 21.2305 11.3477L22.1484 10.0391C22.3047 9.80469 22.3438 9.64844 22.3438 9.39453C22.3438 8.88672 21.9531 8.49609 21.4062 8.49609C20.9961 8.49609 20.6836 8.69141 20.4492 9.12109L19.4922 10.6055C18.6133 12.1094 18.8086 13.457 20.1172 14.4336L20.1758 14.5117C19.0234 15.7617 18.3789 17.4219 18.3789 19.1992C18.3789 21.2695 19.5117 22.6562 21.6992 23.1055C21.4258 23.3398 21.1523 23.7305 21.0547 24.1797L18.1836 23.7695C17.2852 23.6523 16.8164 23.3203 16.8164 22.3828L16.8164 18.125C16.8164 17.5 16.4453 17.1094 15.8203 17.1094C15.1758 17.1094 14.8047 17.5 14.8047 18.125L14.8047 22.7539C14.8047 24.4336 15.5859 25.3516 17.3438 25.625L20.9766 26.1328C21.1719 26.9141 21.6406 27.5391 22.1289 27.793L16.5234 29.1016C14.7656 29.5312 14.1016 30.4492 14.375 32.0703Z" fill="black" fill-opacity="0.85"/>
 </g>
</svg>
