<?xml version="1.0" encoding="UTF-8"?>
<!--Generator: Apple Native CoreSVG 326-->
<!DOCTYPE svg
PUBLIC "-//W3C//DTD SVG 1.1//EN"
       "http://www.w3.org/Graphics/SVG/1.1/DTD/svg11.dtd">
<svg version="1.1" xmlns="http://www.w3.org/2000/svg" xmlns:xlink="http://www.w3.org/1999/xlink" viewBox="0 0 51.25 50.918">
 <g>
  <rect height="50.918" opacity="0" width="51.25" x="0" y="0"/>
  <path d="M50.8789 25.4688C50.8789 39.4922 39.4531 50.918 25.4297 50.918C11.4258 50.918 0 39.4922 0 25.4688C0 11.4648 11.4258 0.0390625 25.4297 0.0390625C39.4531 0.0390625 50.8789 11.4648 50.8789 25.4688ZM22.5977 24.5703C22.5977 25.6836 23.2422 26.6211 24.1602 27.0703L24.1602 41.0352C24.1602 41.8359 24.6875 42.4219 25.4297 42.4219C26.1914 42.4219 26.7188 41.8555 26.7188 41.0352L26.7188 27.0508C27.6367 26.6016 28.2812 25.6641 28.2812 24.5703C28.2812 22.9883 27.0117 21.7383 25.4297 21.7383C23.8477 21.7383 22.5977 22.9883 22.5977 24.5703ZM13.3789 14.1211C10.7227 16.9336 9.25781 20.6641 9.25781 24.5703C9.25781 28.5352 10.7031 32.207 13.3789 35.0586C13.9648 35.6836 14.8438 35.7227 15.3906 35.1172C15.8789 34.5508 15.8203 33.8086 15.2344 33.125C13.1055 30.8398 11.9336 27.8516 11.9336 24.5703C11.9336 21.3281 13.1055 18.3203 15.2344 16.0742C15.8203 15.3906 15.8789 14.5898 15.4102 14.0625C14.8633 13.4375 13.9648 13.457 13.3789 14.1211ZM35.4688 14.0625C34.9805 14.5898 35.0586 15.3906 35.625 16.0742C37.7734 18.3203 38.9258 21.3281 38.9258 24.5703C38.9258 27.8516 37.7734 30.8398 35.625 33.125C35.0391 33.8086 34.9805 34.5508 35.4883 35.1172C36.0156 35.7227 36.9141 35.6836 37.5 35.0586C40.1562 32.207 41.6016 28.5352 41.6016 24.5703C41.6016 20.6641 40.1367 16.9336 37.5 14.1211C36.9141 13.457 36.0156 13.4375 35.4688 14.0625ZM17.793 18.4961C16.3867 20.1758 15.6055 22.3438 15.6055 24.5703C15.6055 26.8164 16.3867 28.9844 17.793 30.6836C18.3398 31.3672 19.3555 31.3867 19.9023 30.7812C20.3516 30.2148 20.293 29.5312 19.707 28.7891C18.7695 27.6758 18.2812 26.25 18.2812 24.5703C18.2812 23.0273 18.7891 21.6016 19.7266 20.3711C20.2734 19.6484 20.3516 18.9453 19.9023 18.418C19.3164 17.7539 18.3398 17.793 17.793 18.4961ZM30.957 18.418C30.5273 18.9453 30.6055 19.6484 31.1328 20.3711C32.0703 21.6016 32.5977 23.0273 32.5977 24.5703C32.5977 26.25 32.0898 27.6758 31.1719 28.7891C30.5664 29.5312 30.5078 30.2148 30.957 30.7812C31.5234 31.3867 32.5195 31.3672 33.0664 30.6836C34.4727 28.9844 35.2539 26.8164 35.2539 24.5703C35.2539 22.3438 34.4727 20.1758 33.0664 18.4961C32.5195 17.793 31.543 17.7539 30.957 18.418Z" fill="black" fill-opacity="0.85"/>
 </g>
</svg>
