<?xml version="1.0" encoding="UTF-8"?>
<!--Generator: Apple Native CoreSVG 326-->
<!DOCTYPE svg
PUBLIC "-//W3C//DTD SVG 1.1//EN"
       "http://www.w3.org/Graphics/SVG/1.1/DTD/svg11.dtd">
<svg version="1.1" xmlns="http://www.w3.org/2000/svg" xmlns:xlink="http://www.w3.org/1999/xlink" viewBox="0 0 45.1758 44.8242">
 <g>
  <rect height="44.8242" opacity="0" width="45.1758" x="0" y="0"/>
  <path d="M3.53516 3.53516C1.5625 5.50781 0.3125 8.4375 0.234375 10.9375C0.214844 11.6992 0.683594 12.2266 1.42578 12.2266C2.10938 12.2266 2.53906 11.8359 2.65625 11.1523C2.98828 8.92578 3.63281 6.89453 5.25391 5.23438C7.03125 3.51562 8.94531 3.00781 11.2695 2.61719C11.8945 2.48047 12.2852 2.03125 12.2852 1.44531C12.2852 0.742188 11.7773 0.253906 11.0352 0.253906C8.69141 0.253906 5.64453 1.42578 3.53516 3.53516ZM28.9453 0L15.8594 0C15.1758 0 14.6094 0.566406 14.6094 1.23047C14.6094 1.89453 15.1758 2.46094 15.8594 2.46094L28.9453 2.46094C29.6289 2.46094 30.1953 1.89453 30.1953 1.23047C30.1953 0.566406 29.6289 0 28.9453 0ZM41.2695 3.53516C39.1602 1.42578 36.1133 0.253906 33.7695 0.253906C33.0273 0.253906 32.5195 0.742188 32.5195 1.44531C32.5195 2.03125 32.9102 2.48047 33.5352 2.61719C35.8008 2.98828 37.7539 3.49609 39.5508 5.23438C41.1719 6.89453 41.8164 8.92578 42.1484 11.1523C42.2656 11.8359 42.6953 12.2266 43.3789 12.2266C44.1211 12.2266 44.5898 11.6992 44.5703 10.9375C44.4922 8.4375 43.2422 5.50781 41.2695 3.53516ZM44.8047 29.0039L44.8047 15.8594C44.8047 15.1758 44.2383 14.6094 43.5742 14.6094C42.8906 14.6094 42.3242 15.1758 42.3242 15.8594L42.3242 29.0039C42.3242 29.668 42.8906 30.2344 43.5742 30.2344C44.2383 30.2344 44.8047 29.668 44.8047 29.0039ZM41.2695 41.2695C43.2422 39.2969 44.4922 36.3477 44.5703 33.8672C44.5898 33.1055 44.1211 32.5781 43.3789 32.5781C42.6953 32.5781 42.2656 32.9688 42.1484 33.6523C41.8164 35.8789 41.1719 37.8906 39.5508 39.5508C37.7734 41.2695 35.8789 41.7969 33.5352 42.168C32.9102 42.3047 32.5195 42.7539 32.5195 43.3398C32.5195 44.0625 33.0273 44.5508 33.7695 44.5508C36.1133 44.5312 39.1602 43.3789 41.2695 41.2695ZM15.8594 44.8047L28.9453 44.8047C29.6289 44.8047 30.1953 44.2383 30.1953 43.5547C30.1953 42.8906 29.6289 42.3242 28.9453 42.3242L15.8594 42.3242C15.1758 42.3242 14.6094 42.8906 14.6094 43.5547C14.6094 44.2383 15.1758 44.8047 15.8594 44.8047ZM3.53516 41.2695C5.64453 43.3789 8.69141 44.5312 11.0352 44.5508C11.7773 44.5508 12.2852 44.0625 12.2852 43.3398C12.2852 42.7539 11.8945 42.3047 11.2695 42.168C9.00391 41.8164 7.05078 41.2891 5.25391 39.5508C3.63281 37.8906 2.98828 35.8789 2.65625 33.6523C2.53906 32.9688 2.10938 32.5781 1.42578 32.5781C0.683594 32.5781 0.214844 33.1055 0.234375 33.8672C0.3125 36.3477 1.5625 39.2969 3.53516 41.2695ZM0 15.8594L0 29.0039C0 29.668 0.566406 30.2344 1.23047 30.2344C1.91406 30.2344 2.48047 29.668 2.48047 29.0039L2.48047 15.8594C2.48047 15.1758 1.91406 14.6094 1.23047 14.6094C0.566406 14.6094 0 15.1758 0 15.8594Z" fill="black" fill-opacity="0.85"/>
  <path d="M15.332 39.0039L29.4727 39.0039C32.7148 39.0039 35.1758 38.6719 36.9336 36.9141C38.7109 35.1367 39.0039 32.7148 39.0039 29.4531L39.0039 15.332C39.0039 12.0703 38.7109 9.64844 36.9336 7.89062C35.1758 6.13281 32.7148 5.80078 29.4727 5.80078L15.2344 5.80078C12.1094 5.80078 9.64844 6.13281 7.89062 7.91016C6.13281 9.64844 5.80078 12.0898 5.80078 15.2344L5.80078 29.4531C5.80078 32.7148 6.11328 35.1562 7.89062 36.9141C9.64844 38.6719 12.0898 39.0039 15.332 39.0039Z" fill="black" fill-opacity="0.85"/>
 </g>
</svg>
