<?xml version="1.0" encoding="UTF-8"?>
<!--Generator: Apple Native CoreSVG 326-->
<!DOCTYPE svg
PUBLIC "-//W3C//DTD SVG 1.1//EN"
       "http://www.w3.org/Graphics/SVG/1.1/DTD/svg11.dtd">
<svg version="1.1" xmlns="http://www.w3.org/2000/svg" xmlns:xlink="http://www.w3.org/1999/xlink" viewBox="0 0 57.2525 58.418">
 <g>
  <rect height="58.418" opacity="0" width="57.2525" x="0" y="0"/>
  <path d="M41.0579 54.9805C45.0227 53.1055 46.0188 49.3555 46.1946 44.4531C46.3313 41.0156 46.0579 37.0117 46.9368 33.0664C47.7962 29.2383 49.8079 25.7227 51.1946 22.5391C53.1282 18.125 53.8508 14.2969 51.1555 10.8789C48.3821 7.44141 44.4954 7.28516 39.7298 8.22266C36.3118 8.88672 32.4446 10.0195 28.4407 10.0195C24.4173 10.0195 20.5696 8.88672 17.1712 8.22266C12.386 7.26562 8.46022 7.44141 5.74538 10.8594C3.03054 14.2969 3.75319 18.1445 5.68679 22.5391C7.0735 25.7227 9.04616 29.2383 9.9446 33.0859C10.8235 37.0117 10.5501 41.0156 10.6868 44.4531C10.8626 49.3555 11.8587 53.1055 15.804 54.9805C16.9954 55.5469 18.1673 55.8203 19.3001 55.8203C21.9173 55.8203 24.4758 54.4531 27.1907 52.4414C30.0227 50.3906 33.0696 47.6758 36.6438 45.9375C40.2571 44.1992 44.1829 43.5742 47.4837 42.6953C52.2493 41.4258 55.6868 39.6289 56.6633 35.3711C57.6204 31.1133 55.3352 27.9492 51.6243 24.8047C48.9485 22.5391 45.6868 20.2148 43.1673 17.0898C40.7063 13.9844 39.2415 10.3125 37.6204 7.22656C35.3352 2.92969 32.8157 0 28.4407 0C24.0852 0 21.5462 2.92969 19.2805 7.22656C17.6594 10.3125 16.1751 13.9648 13.6946 17.1094C11.1946 20.2344 7.91335 22.5391 5.27663 24.8047C1.54616 27.9492-0.738995 31.1133 0.218036 35.3711C1.1946 39.6289 4.61257 41.4258 9.33913 42.6953C12.718 43.5742 16.6243 44.1992 20.2571 45.9375C23.8118 47.6758 26.8587 50.3711 29.6516 52.4609C32.386 54.4531 34.9251 55.8203 37.5618 55.8203C38.7141 55.8203 39.8665 55.5469 41.0579 54.9805ZM39.5735 51.8945C36.7415 53.2227 34.3391 51.543 31.7805 49.707C28.7727 47.5 25.4915 44.6484 21.7805 42.8516C17.9524 41.0156 13.7532 40.2539 10.179 39.3359C7.11257 38.4961 4.28054 37.6562 3.61647 34.5898C2.91335 31.543 5.06179 29.5508 7.4446 27.4805C10.2766 25.0586 13.7727 22.5391 16.3704 19.2578C19.0266 16.0156 20.6087 12.0703 22.3469 8.78906C23.8508 5.99609 25.3157 3.45703 28.4407 3.45703C31.5657 3.45703 33.0501 5.99609 34.5149 8.78906C36.2532 12.0703 37.8548 15.9766 40.4719 19.2773C43.1087 22.5586 46.5852 25.0586 49.4173 27.4805C51.8196 29.5508 53.968 31.543 53.2844 34.5898C52.6008 37.6562 49.7688 38.4961 46.7024 39.3359C43.2454 40.2148 38.929 41.0156 35.1204 42.8516C31.3899 44.6484 28.0305 47.5391 25.0813 49.7266C22.5423 51.543 20.1204 53.2227 17.2883 51.8945C14.4954 50.5273 14.2805 47.5586 14.1438 44.4141C14.0071 40.7227 14.2415 36.4453 13.304 32.3047C12.3665 28.2812 10.3548 24.5117 8.83132 21.0547C7.63991 18.1836 6.5071 15.4492 8.44069 13.0469C10.3938 10.6055 13.304 11.0352 16.4094 11.6016C20.0423 12.3047 24.2024 13.4766 28.4407 13.4766C32.679 13.4766 36.8391 12.3047 40.4719 11.6016C43.5774 11.0156 46.4876 10.6055 48.4212 13.0273C50.3743 15.4492 49.2415 18.2031 48.0501 21.0547C46.5266 24.5117 44.4758 28.2812 43.5774 32.3242C42.6399 36.4453 42.8743 40.7227 42.7376 44.4141C42.5813 47.5586 42.386 50.5273 39.5735 51.8945Z" fill="black" fill-opacity="0.85"/>
 </g>
</svg>
