<?xml version="1.0" encoding="UTF-8"?>
<!--Generator: Apple Native CoreSVG 326-->
<!DOCTYPE svg
PUBLIC "-//W3C//DTD SVG 1.1//EN"
       "http://www.w3.org/Graphics/SVG/1.1/DTD/svg11.dtd">
<svg version="1.1" xmlns="http://www.w3.org/2000/svg" xmlns:xlink="http://www.w3.org/1999/xlink" viewBox="0 0 25.1758 55.6055">
 <g>
  <rect height="55.6055" opacity="0" width="25.1758" x="0" y="0"/>
  <path d="M0 50.1758C0 53.457 2.10938 55.4883 5.56641 55.4883L19.2383 55.4883C22.6953 55.4883 24.8047 53.457 24.8047 50.1758L24.8047 5.33203C24.8047 2.03125 22.6953 0 19.2383 0L5.56641 0C2.10938 0 0 2.03125 0 5.33203ZM3.20312 49.7656L3.20312 5.74219C3.20312 4.12109 4.17969 3.16406 5.89844 3.16406L18.9062 3.16406C20.6055 3.16406 21.6016 4.12109 21.6016 5.74219L21.6016 49.7656C21.6016 51.3867 20.6055 52.3242 18.9062 52.3242L5.89844 52.3242C4.17969 52.3242 3.20312 51.3867 3.20312 49.7656ZM8.26172 30.2734C9.90234 30.2734 11.25 28.9258 11.25 27.2852C11.25 25.6055 9.90234 24.2578 8.26172 24.2578C6.58203 24.2578 5.23438 25.6055 5.23438 27.2852C5.23438 28.9258 6.58203 30.2734 8.26172 30.2734ZM16.582 30.2734C18.2227 30.2734 19.5703 28.9258 19.5703 27.2852C19.5703 25.6055 18.2227 24.2578 16.582 24.2578C14.9023 24.2578 13.5547 25.6055 13.5547 27.2852C13.5547 28.9258 14.9023 30.2734 16.582 30.2734ZM12.4023 21.0156C16.3867 21.0156 19.5898 17.793 19.5898 13.8281C19.5898 9.84375 16.3867 6.64062 12.4023 6.64062C8.4375 6.64062 5.23438 9.84375 5.23438 13.8281C5.23438 17.793 8.4375 21.0156 12.4023 21.0156ZM12.4219 16.7188C10.8203 16.7188 9.53125 15.4297 9.53125 13.8281C9.53125 12.2266 10.8203 10.9375 12.4219 10.9375C14.0234 10.9375 15.3125 12.2266 15.3125 13.8281C15.3125 15.4297 14.0234 16.7188 12.4219 16.7188Z" fill="black" fill-opacity="0.85"/>
 </g>
</svg>
