<?xml version="1.0" encoding="UTF-8"?>
<!--Generator: Apple Native CoreSVG 326-->
<!DOCTYPE svg
PUBLIC "-//W3C//DTD SVG 1.1//EN"
       "http://www.w3.org/Graphics/SVG/1.1/DTD/svg11.dtd">
<svg version="1.1" xmlns="http://www.w3.org/2000/svg" xmlns:xlink="http://www.w3.org/1999/xlink" viewBox="0 0 52.3242 65.6836">
 <g>
  <rect height="65.6836" opacity="0" width="52.3242" x="0" y="0"/>
  <path d="M37.2726 7.07031L14.6805 7.07031C14.8056 5.29862 15.9546 4.25781 17.832 4.25781L34.1211 4.25781C35.9986 4.25781 37.1475 5.29862 37.2726 7.07031Z" fill="black" fill-opacity="0.85"/>
  <path d="M42.3128 13.884C41.6187 13.7785 40.8836 13.7305 40.1172 13.7305L11.8359 13.7305C11.0623 13.7305 10.3209 13.7789 9.6213 13.8851C9.88879 11.8259 11.3193 10.6641 13.6133 10.6641L38.3398 10.6641C40.6335 10.6641 42.0481 11.8255 42.3128 13.884Z" fill="black" fill-opacity="0.85"/>
  <path d="M11.8359 61.4648L40.1172 61.4648C45.1562 61.4648 47.7148 58.9062 47.7148 53.9258L47.7148 25.4883C47.7148 20.5273 45.1562 17.9688 40.1172 17.9688L11.8359 17.9688C6.77734 17.9688 4.23828 20.5078 4.23828 25.4883L4.23828 53.9258C4.23828 58.9258 6.77734 61.4648 11.8359 61.4648ZM11.8945 58.0078C9.17969 58.0078 7.69531 56.543 7.69531 53.75L7.69531 25.6836C7.69531 22.8711 9.17969 21.4258 11.8945 21.4258L40.0586 21.4258C42.7148 21.4258 44.2578 22.8711 44.2578 25.6836L44.2578 53.75C44.2578 56.543 42.7148 58.0078 40.0586 58.0078Z" fill="black" fill-opacity="0.85"/>
  <path d="M25.4102 48.6523C26.0938 48.6523 26.6211 48.0664 26.6211 47.4219L26.6211 41.6406C34.5312 41.1719 39.6289 35.7617 39.5312 27.8516C39.5312 27.1289 39.043 26.582 38.2031 26.582C32.1094 26.4648 27.3828 29.9219 25.2734 35.7031C23.3008 31.4648 19.0039 29.6484 15.1562 29.6484C14.5117 29.6484 14.1406 30.0586 14.1406 30.7227C14.3164 34.3945 16.4844 41.0156 24.1797 41.6406L24.1797 47.4219C24.1797 48.0859 24.7656 48.6523 25.4102 48.6523ZM24.0234 39.1992C19.5117 38.7305 17.3438 35.4102 16.7188 32.2461C19.6875 32.6758 23.2031 34.6094 24.0234 39.1992ZM26.8555 39.2188C27.9492 33.1445 31.7773 29.3359 37.0703 29.043C36.7578 34.7461 32.832 38.6523 26.8555 39.2188ZM14.1992 52.7734C14.8633 52.7734 15.4688 52.168 15.4688 51.5039C15.4688 50.8594 14.8633 50.2734 14.1992 50.2734C13.5156 50.2734 12.9492 50.8594 12.9492 51.5039C12.9492 52.168 13.5156 52.7734 14.1992 52.7734ZM17.5586 50.5078C18.2422 50.5078 18.8477 49.9414 18.8477 49.2773C18.8477 48.5938 18.2422 47.9883 17.5586 47.9883C16.875 47.9883 16.3281 48.5938 16.3281 49.2773C16.3281 49.9219 16.8945 50.5078 17.5586 50.5078ZM21.4258 49.1992C22.1094 49.1992 22.6758 48.5742 22.6758 47.9492C22.6758 47.2656 22.0898 46.6992 21.4258 46.6992C20.7617 46.6992 20.1562 47.2656 20.1562 47.9492C20.1562 48.5742 20.7617 49.1992 21.4258 49.1992ZM29.4141 49.1992C30.0586 49.1992 30.6641 48.5742 30.6641 47.9492C30.6641 47.2656 30.0586 46.6992 29.4141 46.6992C28.7305 46.6992 28.1445 47.2656 28.1445 47.9492C28.1445 48.5742 28.7305 49.1992 29.4141 49.1992ZM33.2422 50.5078C33.9062 50.5078 34.4922 49.9219 34.4922 49.2773C34.4922 48.5938 33.9062 47.9883 33.2422 47.9883C32.5781 47.9883 31.9727 48.5938 31.9727 49.2773C31.9727 49.9414 32.5781 50.5078 33.2422 50.5078ZM36.6406 52.7734C37.3047 52.7734 37.8711 52.168 37.8711 51.5039C37.8711 50.8594 37.3047 50.2734 36.6406 50.2734C35.9766 50.2734 35.3906 50.8594 35.3906 51.5039C35.3906 52.168 35.9766 52.7734 36.6406 52.7734Z" fill="black" fill-opacity="0.85"/>
 </g>
</svg>
