<?xml version="1.0" encoding="UTF-8"?>
<!--Generator: Apple Native CoreSVG 326-->
<!DOCTYPE svg
PUBLIC "-//W3C//DTD SVG 1.1//EN"
       "http://www.w3.org/Graphics/SVG/1.1/DTD/svg11.dtd">
<svg version="1.1" xmlns="http://www.w3.org/2000/svg" xmlns:xlink="http://www.w3.org/1999/xlink" viewBox="0 0 51.1133 55.4297">
 <g>
  <rect height="55.4297" opacity="0" width="51.1133" x="0" y="0"/>
  <path d="M23.3203 54.5605C24.7461 55.3418 25.9961 55.3418 27.4219 54.5605L34.1211 50.752C35.1758 50.1465 35.4297 49.0918 34.9414 48.1934C34.4531 47.2949 33.3203 47.0605 32.3047 47.627L27.168 50.5371L27.168 44.9902C27.168 43.8184 26.4062 42.959 25.3711 42.959C24.3359 42.959 23.5742 43.8184 23.5742 44.9902L23.5742 50.5371L18.4375 47.627C17.4414 47.0605 16.2891 47.2949 15.8008 48.1934C15.3125 49.0918 15.5664 50.1465 16.6211 50.752ZM6.91406 45.3027C7.92969 45.8691 9.08203 45.6738 9.57031 44.7363C10.0586 43.8184 9.66797 42.7246 8.73047 42.1973L5.37109 40.3223L9.64844 37.9004C10.6836 37.3145 11.0938 36.1621 10.5273 35.3223C9.94141 34.4238 8.88672 34.1699 7.91016 34.7168L3.51562 37.1582L3.51562 33.291C3.51562 32.1387 2.75391 31.2793 1.75781 31.2793C0.722656 31.2793 0 32.1387 0 33.291L0 37.5098C0 40.9082 1.05469 42.0215 3.32031 43.3105ZM1.75781 25.3418C2.79297 25.3418 3.51562 24.4824 3.51562 23.3301L3.51562 17.9199L8.37891 20.6738C9.31641 21.2012 10.4102 20.9473 10.9961 20.0684C11.5625 19.209 11.1328 18.0566 10.0781 17.4707L5.37109 14.834L10.2148 12.1191C11.3281 11.4941 11.6602 10.3223 11.0938 9.44336C10.5469 8.60352 9.47266 8.38867 8.55469 8.93555L2.8125 12.1777C1.01562 13.2129 0 14.5996 0 17.002L0 23.3301C0 24.4824 0.761719 25.3418 1.75781 25.3418ZM25.3711 11.709C26.4062 11.709 27.168 10.8496 27.168 9.69727L27.168 4.56055L31.2305 6.8457C32.207 7.41211 33.3984 7.17773 33.8672 6.29883C34.3359 5.41992 34.1016 4.3457 33.0469 3.75977L27.7344 0.732422C25.9766-0.244141 24.7656-0.244141 23.0273 0.732422L17.6953 3.75977C16.6406 4.3457 16.4062 5.41992 16.875 6.29883C17.3438 7.17773 18.5352 7.41211 19.5117 6.8457L23.5742 4.56055L23.5742 9.69727C23.5742 10.8496 24.3359 11.709 25.3711 11.709ZM48.9844 25.3418C49.9805 25.3418 50.7422 24.4824 50.7422 23.3301L50.7422 17.002C50.7422 14.4043 49.9805 13.3301 47.9492 12.1777L42.1875 8.93555C41.2695 8.38867 40.2148 8.60352 39.6484 9.44336C39.1016 10.3223 39.4141 11.4941 40.5273 12.1191L45.3711 14.834L40.6641 17.4707C39.6094 18.0566 39.1797 19.209 39.7461 20.0684C40.332 20.9473 41.4258 21.2012 42.3633 20.6738L47.2266 17.9199L47.2266 23.3301C47.2266 24.4824 47.9492 25.3418 48.9844 25.3418ZM43.8281 45.3027L47.4219 43.3105C49.6875 42.0215 50.7422 40.9082 50.7422 37.5098L50.7422 33.291C50.7422 32.1387 50.0195 31.2793 48.9844 31.2793C47.9883 31.2793 47.2266 32.1387 47.2266 33.291L47.2266 37.1777L42.832 34.7168C41.8555 34.1699 40.8008 34.4238 40.2148 35.3223C39.6484 36.1621 40.0586 37.3145 41.1133 37.9004L45.3516 40.3223L42.0117 42.1973C41.0742 42.7246 40.6836 43.8184 41.1719 44.7363C41.6602 45.6738 42.8125 45.8691 43.8281 45.3027ZM25.3711 37.2168C26.4062 37.2168 27.168 36.377 27.168 35.2051L27.168 29.2285L32.6758 26.1035C33.7109 25.5176 34.082 24.3652 33.5156 23.5059C32.9492 22.627 31.9141 22.373 30.9375 22.9199L25.3711 26.0254L19.8242 22.9199C18.8281 22.373 17.793 22.627 17.2266 23.5059C16.6602 24.3652 17.0312 25.5176 18.0859 26.1035L23.5742 29.2285L23.5742 35.2051C23.5742 36.377 24.3359 37.2168 25.3711 37.2168Z" fill="black" fill-opacity="0.85"/>
 </g>
</svg>
