<?xml version="1.0" encoding="UTF-8"?>
<!--Generator: Apple Native CoreSVG 326-->
<!DOCTYPE svg
PUBLIC "-//W3C//DTD SVG 1.1//EN"
       "http://www.w3.org/Graphics/SVG/1.1/DTD/svg11.dtd">
<svg version="1.1" xmlns="http://www.w3.org/2000/svg" xmlns:xlink="http://www.w3.org/1999/xlink" viewBox="0 0 46.2891 45.918">
 <g>
  <rect height="45.918" opacity="0" width="46.2891" x="0" y="0"/>
  <path d="M7.59766 45.918L38.3008 45.918C43.3594 45.918 45.918 43.3594 45.918 38.3984L45.918 7.53906C45.918 2.55859 43.3594 0 38.3008 0L7.59766 0C2.55859 0 0 2.53906 0 7.53906L0 38.3984C0 43.3984 2.55859 45.918 7.59766 45.918ZM7.67578 42.4609C4.94141 42.4609 3.45703 41.0156 3.45703 38.2031L3.45703 7.71484C3.45703 4.92188 4.94141 3.45703 7.67578 3.45703L38.2422 3.45703C40.918 3.45703 42.4609 4.92188 42.4609 7.71484L42.4609 38.2031C42.4609 41.0156 40.918 42.4609 38.2422 42.4609Z" fill="black" fill-opacity="0.85"/>
  <path d="M31.0547 16.7773C30.0977 16.7773 29.4531 17.4414 29.4531 18.457L29.4531 23.5742L29.7461 27.6367L26.4062 24.082L16.1133 13.7891C15.8008 13.4766 15.4102 13.2812 14.8633 13.2812C13.9062 13.2812 13.2812 13.9062 13.2812 14.8828C13.2812 15.332 13.4961 15.7617 13.8086 16.0547L24.1211 26.3672L27.7148 29.7461L24.043 29.4336L18.4961 29.4336C17.4805 29.4336 16.7969 30.0586 16.7969 31.0156C16.7969 31.9727 17.4609 32.5781 18.457 32.5781L30.8594 32.5781C31.9336 32.5781 32.6367 32.0703 32.6367 30.8203L32.6367 18.4961C32.6367 17.5 31.9922 16.7773 31.0547 16.7773Z" fill="black" fill-opacity="0.85"/>
 </g>
</svg>
