<?xml version="1.0" encoding="UTF-8"?>
<!--Generator: Apple Native CoreSVG 326-->
<!DOCTYPE svg
PUBLIC "-//W3C//DTD SVG 1.1//EN"
       "http://www.w3.org/Graphics/SVG/1.1/DTD/svg11.dtd">
<svg version="1.1" xmlns="http://www.w3.org/2000/svg" xmlns:xlink="http://www.w3.org/1999/xlink" viewBox="0 0 46.2891 45.918">
 <g>
  <rect height="45.918" opacity="0" width="46.2891" x="0" y="0"/>
  <path d="M7.59766 45.918L38.3008 45.918C43.3594 45.918 45.918 43.3594 45.918 38.3984L45.918 7.53906C45.918 2.55859 43.3594 0 38.3008 0L7.59766 0C2.55859 0 0 2.53906 0 7.53906L0 38.3984C0 43.3984 2.55859 45.918 7.59766 45.918ZM7.67578 42.4609C4.94141 42.4609 3.45703 41.0156 3.45703 38.2031L3.45703 7.71484C3.45703 4.92188 4.94141 3.45703 7.67578 3.45703L38.2422 3.45703C40.918 3.45703 42.4609 4.92188 42.4609 7.71484L42.4609 38.2031C42.4609 41.0156 40.918 42.4609 38.2422 42.4609Z" fill="black" fill-opacity="0.85"/>
  <path d="M12.0898 22.4414L20.7227 22.4414C21.8164 22.4414 22.4805 21.9141 22.4805 20.6641L22.4805 12.0312C22.4805 11.1719 21.7969 10.4883 20.957 10.4883C20.0977 10.4883 19.4141 11.1719 19.4141 12.0312L19.4141 13.4375L19.6289 17.5781L12.7148 10.4102C12.0703 9.74609 11.0352 9.74609 10.4102 10.3906C9.76562 11.0156 9.78516 12.0703 10.4297 12.6758L17.5391 19.5898L13.5938 19.375L12.0898 19.375C11.25 19.375 10.5664 20.0586 10.5664 20.8984C10.5664 21.7578 11.25 22.4414 12.0898 22.4414ZM24.9805 35.3516C25.8203 35.3516 26.5039 34.668 26.5039 33.8281L26.5039 32.4219L26.3086 28.2812L33.2227 35.4492C33.8672 36.1133 34.9023 36.1133 35.5273 35.4688C36.1523 34.8242 36.1328 33.7695 35.5078 33.1641L28.3789 26.2695L32.3438 26.4648L33.8281 26.4844C34.6875 26.4844 35.3711 25.8008 35.3711 24.9414C35.3711 24.1016 34.6875 23.418 33.8281 23.418L25.2148 23.418C24.1211 23.418 23.4375 23.9258 23.4375 25.1758L23.4375 33.8281C23.4375 34.668 24.1406 35.3516 24.9805 35.3516Z" fill="black" fill-opacity="0.85"/>
 </g>
</svg>
