<?xml version="1.0" encoding="UTF-8"?>
<!--Generator: Apple Native CoreSVG 326-->
<!DOCTYPE svg
PUBLIC "-//W3C//DTD SVG 1.1//EN"
       "http://www.w3.org/Graphics/SVG/1.1/DTD/svg11.dtd">
<svg version="1.1" xmlns="http://www.w3.org/2000/svg" xmlns:xlink="http://www.w3.org/1999/xlink" viewBox="0 0 38.1836 51.2695">
 <g>
  <rect height="51.2695" opacity="0" width="38.1836" x="0" y="0"/>
  <path d="M37.8125 22.793C37.8125 22.2852 37.6367 21.8555 37.2266 21.4258L20.332 4.53125C19.9219 4.10156 19.4336 3.88672 18.9062 3.88672C18.3789 3.88672 17.8906 4.10156 17.4805 4.53125L0.585938 21.4258C0.175781 21.8555 0 22.2852 0 22.793C0 23.8672 0.78125 24.668 1.83594 24.668C2.34375 24.668 2.85156 24.4922 3.18359 24.1602L10.1172 17.3047L18.3789 8.33984L17.2266 7.92969L17.0117 15.0391L17.0117 49.3945C17.0117 50.4883 17.793 51.2695 18.9062 51.2695C20.0195 51.2695 20.8008 50.4883 20.8008 49.3945L20.8008 15.0391L20.5859 7.92969L19.4531 8.33984L27.6953 17.3047L34.6289 24.1602C34.9609 24.4922 35.4688 24.668 35.9766 24.668C37.0312 24.668 37.8125 23.8672 37.8125 22.793ZM37.8125 2.01172C37.8125 0.898438 37.0508 0.0976562 35.957 0.0976562L1.89453 0.0976562C0.78125 0.0976562 0 0.898438 0 2.01172C0 3.10547 0.78125 3.90625 1.89453 3.90625L35.957 3.90625C37.0508 3.90625 37.8125 3.10547 37.8125 2.01172Z" fill="black" fill-opacity="0.85"/>
 </g>
</svg>
