<?xml version="1.0" encoding="UTF-8"?>
<!--Generator: Apple Native CoreSVG 326-->
<!DOCTYPE svg
PUBLIC "-//W3C//DTD SVG 1.1//EN"
       "http://www.w3.org/Graphics/SVG/1.1/DTD/svg11.dtd">
<svg version="1.1" xmlns="http://www.w3.org/2000/svg" xmlns:xlink="http://www.w3.org/1999/xlink" viewBox="0 0 55.3711 45.6445">
 <g>
  <rect height="45.6445" opacity="0" width="55.3711" x="0" y="0"/>
  <path d="M55.3711 22.8125C55.3711 21.9922 55.0781 21.1133 54.043 20.1172L34.1797 1.58203C33.0273 0.507812 32.2461 0 31.1328 0C29.5312 0 28.4375 1.26953 28.4375 2.8125L28.4375 13.1836L7.24609 13.1836C3.71094 13.1836 1.69922 15.1367 1.69922 18.5742L1.69922 27.1094C1.69922 30.5664 3.71094 32.5 7.24609 32.5L28.4375 32.5L28.4375 42.9297C28.4375 44.4727 29.5312 45.6055 31.0938 45.6055C32.207 45.6055 33.125 45.1367 34.1797 44.1406L54.043 25.4688C55.0781 24.4922 55.3711 23.5938 55.3711 22.8125Z" fill="black" fill-opacity="0.85"/>
 </g>
</svg>
