<?xml version="1.0" encoding="UTF-8"?>
<!--Generator: Apple Native CoreSVG 326-->
<!DOCTYPE svg
PUBLIC "-//W3C//DTD SVG 1.1//EN"
       "http://www.w3.org/Graphics/SVG/1.1/DTD/svg11.dtd">
<svg version="1.1" xmlns="http://www.w3.org/2000/svg" xmlns:xlink="http://www.w3.org/1999/xlink" viewBox="0 0 57.3736 57.3536">
 <g>
  <rect height="57.3536" opacity="0" width="57.3736" x="0" y="0"/>
  <path d="M0.796165 30.3663L8.8821 37.6905C10.4251 39.1358 12.4954 38.0225 12.4954 36.0303L12.4954 30.5616L26.6165 30.5616L26.6165 44.7608L21.1087 44.7608C19.1165 44.7608 18.0032 46.8311 19.468 48.3741L26.7923 56.46C27.7884 57.5538 29.2923 57.4952 30.2493 56.4405L37.554 48.3741C38.9993 46.8311 37.886 44.7608 35.8938 44.7608L30.4251 44.7608L30.4251 30.5616L44.5071 30.5616L44.5071 36.0303C44.5071 38.0225 46.5774 39.1358 48.1204 37.6905L56.1868 30.3858C57.261 29.3897 57.2805 27.9053 56.2063 26.9092L48.1204 19.585C46.5774 18.1397 44.5071 19.253 44.5071 21.2452L44.5071 26.7335L30.4251 26.7335L30.4251 12.5147L35.8938 12.5147C37.886 12.5147 38.9993 10.4444 37.554 8.8819L30.2298 0.795965C29.2532-0.278254 27.7493-0.258722 26.7727 0.815496L19.468 8.8819C18.0032 10.4444 19.1165 12.5147 21.1087 12.5147L26.6165 12.5147L26.6165 26.7335L12.4954 26.7335L12.4954 21.2452C12.4954 19.253 10.4251 18.1397 8.8821 19.585L0.815696 26.8897C-0.238992 27.8663-0.297585 29.3507 0.796165 30.3663Z" fill="black" fill-opacity="0.85"/>
 </g>
</svg>
