<?xml version="1.0" encoding="UTF-8"?>
<!--Generator: Apple Native CoreSVG 326-->
<!DOCTYPE svg
PUBLIC "-//W3C//DTD SVG 1.1//EN"
       "http://www.w3.org/Graphics/SVG/1.1/DTD/svg11.dtd">
<svg version="1.1" xmlns="http://www.w3.org/2000/svg" xmlns:xlink="http://www.w3.org/1999/xlink" viewBox="0 0 52.7344 59.9612">
 <g>
  <rect height="59.9612" opacity="0" width="52.7344" x="0" y="0"/>
  <path d="M14.1797 38.7794C15.0977 38.5646 15.6055 37.6857 15.3516 36.7677L13.2422 28.4083C13.0273 27.6466 12.7148 27.1192 12.1484 26.7872C11.543 26.4552 10.9766 26.4357 10.1953 26.6505L1.89453 28.9942C0.957031 29.2482 0.488281 30.1271 0.742188 30.9864C0.976562 31.8849 1.875 32.4317 2.77344 32.1192L10.3516 29.9122L12.1875 37.5685C12.3828 38.506 13.3203 39.0138 14.1797 38.7794ZM6.67969 53.3888L20.625 53.3888C21.6406 53.3888 22.3828 52.6661 22.3828 51.6896C22.3828 50.7325 21.6406 50.0099 20.625 50.0099L6.71875 50.0099C4.78516 50.0099 3.47656 48.4083 3.47656 46.6896C3.47656 46.1622 3.59375 45.5763 3.90625 45.0294L12.8906 28.9357L9.94141 27.2169L0.898438 43.3888C0.3125 44.463 0 45.5763 0 46.6896C0 50.381 2.59766 53.3888 6.67969 53.3888ZM38.3008 26.8653L41.2695 25.1661L31.9336 8.5255C30.7031 6.2794 28.457 5.16612 26.1914 5.16612C23.9258 5.16612 21.6797 6.29894 20.4297 8.5255L13.2812 21.2599C12.7344 22.2364 13.0273 23.1544 13.8672 23.6427C14.7266 24.131 15.7422 23.838 16.2305 22.9591L23.3789 10.1661C24.0039 9.07237 25.0977 8.58409 26.1914 8.58409C27.2852 8.58409 28.3398 9.05284 28.9648 10.1661ZM38.5352 27.3927C39.3164 27.6075 39.8828 27.6075 40.4883 27.256C41.0547 26.9044 41.3672 26.3966 41.582 25.6349L43.6914 17.2755C43.9453 16.3575 43.4375 15.4982 42.5195 15.2833C41.6602 15.0489 40.7227 15.5372 40.5273 16.4747L38.6914 24.131L31.1133 21.9239C30.2148 21.6505 29.3359 22.1583 29.082 23.0567C28.8281 23.9357 29.2969 24.8146 30.2344 25.0685ZM27.4023 53.3888L45.6836 53.3888C49.7461 53.3888 52.3633 50.381 52.3633 46.6896C52.3633 45.5763 52.0703 44.4825 51.4648 43.3888L44.5508 31.006C44.0234 30.088 43.0273 29.8732 42.207 30.3614C41.3672 30.8497 41.0742 31.8653 41.5625 32.7247L48.4375 45.0294C48.75 45.5763 48.8672 46.1622 48.8672 46.6896C48.8672 48.4083 47.5391 50.0099 45.625 50.0099L27.4023 50.0099ZM32.9688 59.463C33.6523 60.1466 34.6484 60.1075 35.293 59.463C35.9375 58.8185 35.9375 57.7833 35.2539 57.1192L29.5508 51.6896L35.2539 46.2599C35.9375 45.5958 35.9375 44.5607 35.293 43.9357C34.6484 43.2716 33.6523 43.2521 32.9688 43.9357L26.7969 49.9513C26.2305 50.4982 25.957 51.006 25.957 51.6896C25.957 52.3732 26.2305 52.9005 26.7969 53.4474Z" fill="black" fill-opacity="0.85"/>
 </g>
</svg>
