<?xml version="1.0" encoding="UTF-8"?>
<!--Generator: Apple Native CoreSVG 326-->
<!DOCTYPE svg
PUBLIC "-//W3C//DTD SVG 1.1//EN"
       "http://www.w3.org/Graphics/SVG/1.1/DTD/svg11.dtd">
<svg version="1.1" xmlns="http://www.w3.org/2000/svg" xmlns:xlink="http://www.w3.org/1999/xlink" viewBox="0 0 51.25 50.8789">
 <g>
  <rect height="50.8789" opacity="0" width="51.25" x="0" y="0"/>
  <path d="M50.8789 25.4297C50.8789 39.4531 39.4531 50.8789 25.4297 50.8789C11.4258 50.8789 0 39.4531 0 25.4297C0 11.4258 11.4258 0 25.4297 0C39.4531 0 50.8789 11.4258 50.8789 25.4297ZM11.7969 20.0977L7.85156 25.7617C7.26562 26.6016 7.46094 27.5781 8.55469 27.5781L11.3477 27.5781C12.5781 34.707 18.2812 39.6094 25.5273 39.6094C28.7891 39.6094 32.0898 38.3984 34.3555 36.4258C35.4297 35.5273 35.6836 34.375 34.8828 33.5547C34.1211 32.7344 33.1055 32.8711 32.207 33.5547C30.1367 35.2344 28.1055 36.0742 25.5273 36.0742C20.1953 36.0742 15.8203 32.4414 14.7266 27.5781L17.5391 27.5781C18.5938 27.5781 18.8281 26.5625 18.2422 25.7617L14.2578 20.0977C13.5938 19.1602 12.4805 19.1016 11.7969 20.0977ZM16.6602 14.3555C15.5664 15.2344 15.3516 16.3867 16.1133 17.207C16.8945 18.0273 17.9102 17.8906 18.7891 17.207C20.8594 15.5273 22.9102 14.6875 25.4883 14.6875C30.8008 14.6875 35.1758 18.3203 36.2695 23.1836L33.3594 23.1836C32.2852 23.1836 32.0508 24.1992 32.6367 25.0195L36.6406 30.6836C37.3047 31.6211 38.3984 31.6602 39.1016 30.6836L43.0273 25.0195C43.6133 24.1797 43.418 23.1836 42.3438 23.1836L39.6484 23.1836C38.4375 16.0547 32.7148 11.1719 25.4883 11.1719C22.2266 11.1719 18.9258 12.3633 16.6602 14.3555Z" fill="black" fill-opacity="0.85"/>
 </g>
</svg>
