<?xml version="1.0" encoding="UTF-8"?>
<!--Generator: Apple Native CoreSVG 326-->
<!DOCTYPE svg
PUBLIC "-//W3C//DTD SVG 1.1//EN"
       "http://www.w3.org/Graphics/SVG/1.1/DTD/svg11.dtd">
<svg version="1.1" xmlns="http://www.w3.org/2000/svg" xmlns:xlink="http://www.w3.org/1999/xlink" viewBox="0 0 51.25 50.918">
 <g>
  <rect height="50.918" opacity="0" width="51.25" x="0" y="0"/>
  <path d="M50.8789 25.4492C50.8789 39.4531 39.4531 50.8789 25.4297 50.8789C11.4258 50.8789 0 39.4531 0 25.4492C0 11.4258 11.4258 0 25.4297 0C39.4531 0 50.8789 11.4258 50.8789 25.4492ZM20.8203 15.5469C19.7852 15.5469 19.1016 16.1914 19.1016 17.168C19.1016 18.1445 19.8047 18.8086 20.8594 18.8086L26.4844 18.8086L30.2539 18.4766L26.5625 21.9531L16.0547 32.4414C15.7227 32.7734 15.5078 33.2031 15.5078 33.6523C15.5078 34.668 16.1523 35.332 17.1289 35.332C17.6953 35.332 18.1055 35.1367 18.4375 34.8047L28.9062 24.3164L32.3633 20.6445L32.0508 24.8242L32.0508 30C32.0508 31.0742 32.7148 31.7383 33.7109 31.7383C34.668 31.7383 35.332 31.0156 35.332 29.9609L35.332 17.3633C35.332 16.0742 34.6094 15.5469 33.4961 15.5469Z" fill="black" fill-opacity="0.85"/>
 </g>
</svg>
