<?xml version="1.0" encoding="UTF-8"?>
<!--Generator: Apple Native CoreSVG 326-->
<!DOCTYPE svg
PUBLIC "-//W3C//DTD SVG 1.1//EN"
       "http://www.w3.org/Graphics/SVG/1.1/DTD/svg11.dtd">
<svg version="1.1" xmlns="http://www.w3.org/2000/svg" xmlns:xlink="http://www.w3.org/1999/xlink" viewBox="0 0 51.25 61.1579">
 <g>
  <rect height="61.1579" opacity="0" width="51.25" x="0" y="0"/>
  <path d="M50.8789 30.5692C50.8789 23.0887 47.6172 16.2528 42.3438 11.5653C41.3867 10.7059 40.1367 10.9989 39.5703 11.7997C39.043 12.5028 39.0234 13.4403 39.9609 14.2997C44.4727 18.3426 47.2266 24.1629 47.2266 30.5692C47.2266 41.409 39.3164 50.3739 28.9648 51.9754L28.9648 48.1473C28.9648 46.5848 27.8711 46.1356 26.6211 47.0145L18.7109 52.5614C17.6562 53.3036 17.6367 54.3778 18.7109 55.12L26.6016 60.6668C27.8711 61.5653 28.9648 61.1356 28.9648 59.534L28.9648 55.6864C41.3281 54.0262 50.8789 43.4012 50.8789 30.5692ZM0 30.5692C0 38.0497 3.26172 44.8856 8.51562 49.5536C9.49219 50.4325 10.7227 50.1395 11.3086 49.3387C11.8164 48.6356 11.8555 47.6786 10.8984 46.8192C6.40625 42.7958 3.63281 36.9754 3.63281 30.5692C3.63281 19.7098 11.5625 10.7645 21.9141 9.16294L21.9141 12.9715C21.9141 14.5536 23.0078 14.9833 24.2578 14.1043L32.168 8.55747C33.2031 7.83482 33.2227 6.7606 32.168 6.01841L24.2773 0.471537C23.0078-0.446432 21.9141 0.00278713 21.9141 1.58482L21.9141 5.43247C9.55078 7.09263 0 17.7176 0 30.5692Z" fill="black" fill-opacity="0.85"/>
 </g>
</svg>
