<?xml version="1.0" encoding="UTF-8"?>
<!--Generator: Apple Native CoreSVG 326-->
<!DOCTYPE svg
PUBLIC "-//W3C//DTD SVG 1.1//EN"
       "http://www.w3.org/Graphics/SVG/1.1/DTD/svg11.dtd">
<svg version="1.1" xmlns="http://www.w3.org/2000/svg" xmlns:xlink="http://www.w3.org/1999/xlink" viewBox="0 0 69.8828 51.9336">
 <g>
  <rect height="51.9336" opacity="0" width="69.8828" x="0" y="0"/>
  <path d="M27.9492 5.95703L27.9492 6.35882L12.2852 20.9766C10.6836 22.5 10 24.2188 10 25.9375C10 27.6172 10.6836 29.375 12.3047 30.8594L27.9492 45.5655L27.9492 46.0742C27.9492 47.6172 26.8555 48.75 25.293 48.75C24.1797 48.75 23.2617 48.2812 22.207 47.2852L2.34375 28.6133C1.40625 27.7539 1.01562 26.8164 1.01562 25.957C1.01562 25.0586 1.40625 24.1602 2.34375 23.2617L22.207 4.72656C23.3594 3.65234 24.1406 3.14453 25.2539 3.14453C26.8555 3.14453 27.9492 4.41406 27.9492 5.95703Z" fill="black" fill-opacity="0.85"/>
  <path d="M37.3828 48.7305C38.9453 48.7305 40.0391 47.5977 40.0391 46.0547L40.0391 36.1523L40.8594 36.1523C51.0938 36.1523 57.4609 38.7891 61.6406 46.9727C62.4023 48.457 63.418 48.7305 64.4336 48.7305C65.6641 48.7305 66.7773 47.6562 66.7773 45.7227C66.7773 26.6992 58.3398 15.8008 40.8594 15.8008L40.0391 15.8008L40.0391 5.91797C40.0391 4.39453 38.9453 3.125 37.3438 3.125C36.2305 3.125 35.4492 3.63281 34.2969 4.70703L14.4336 23.2422C13.4961 24.1406 13.1055 25.0391 13.1055 25.9375C13.1055 26.7969 13.4961 27.7148 14.4336 28.5938L34.2969 47.2656C35.3516 48.2617 36.2695 48.7305 37.3828 48.7305Z" fill="black" fill-opacity="0.85"/>
 </g>
</svg>
