<?xml version="1.0" encoding="UTF-8"?>
<!--Generator: Apple Native CoreSVG 326-->
<!DOCTYPE svg
PUBLIC "-//W3C//DTD SVG 1.1//EN"
       "http://www.w3.org/Graphics/SVG/1.1/DTD/svg11.dtd">
<svg version="1.1" xmlns="http://www.w3.org/2000/svg" xmlns:xlink="http://www.w3.org/1999/xlink" viewBox="0 0 52.3438 45.4883">
 <g>
  <rect height="45.4883" opacity="0" width="52.3438" x="0" y="0"/>
  <path d="M51.9727 7.22656L51.9727 37.9883C51.9727 43.0859 49.5508 45.4883 44.3555 45.4883L7.61719 45.4883C2.46094 45.4883 0 43.0859 0 37.9883L0 25.1172C0 21.7383 0.957031 19.9414 3.59375 17.9297L22.8516 3.32031C26.0156 0.9375 28.5156 0.0585938 32.3633 0.0585938L44.7461 0.0585938C49.5117 0.0585938 51.9727 2.51953 51.9727 7.22656ZM29.8242 26.9141C28.5742 26.9141 28.0664 27.9297 28.7109 28.9844L34.1797 37.9688C34.8047 39.0039 36.0547 38.9844 36.6797 37.9688L42.1875 28.9844C42.832 27.9297 42.2852 26.9141 41.0547 26.9141ZM32.3633 3.51562C29.2578 3.51562 27.4219 4.0625 25.1758 5.83984L6.50391 20.1172C5.42969 20.9375 5.74219 22.4805 7.1875 22.4805L44.6875 22.4805C47.0703 22.4805 48.5156 21.0547 48.5156 18.6133L48.5156 7.40234C48.5156 4.90234 47.1094 3.51562 44.6875 3.51562Z" fill="black" fill-opacity="0.85"/>
  <path d="M36.6797 7.65625L42.1875 16.6406C42.832 17.6953 42.2852 18.7109 41.0547 18.7109L29.8242 18.7109C28.5742 18.7109 28.0664 17.6953 28.7109 16.6406L34.1797 7.65625C34.8047 6.62109 36.0547 6.64062 36.6797 7.65625Z" fill="black" fill-opacity="0.85"/>
 </g>
</svg>
