<?xml version="1.0" encoding="UTF-8"?>
<!--Generator: Apple Native CoreSVG 326-->
<!DOCTYPE svg
PUBLIC "-//W3C//DTD SVG 1.1//EN"
       "http://www.w3.org/Graphics/SVG/1.1/DTD/svg11.dtd">
<svg version="1.1" xmlns="http://www.w3.org/2000/svg" xmlns:xlink="http://www.w3.org/1999/xlink" viewBox="0 0 60.961 50.918">
 <g>
  <rect height="50.918" opacity="0" width="60.961" x="0" y="0"/>
  <path d="M30.295 50.8789C44.3379 50.8789 55.7246 39.4922 55.7246 25.4492C55.7246 11.4062 44.3379 0 30.295 0C16.252 0 4.86526 11.4062 4.86526 25.4492L8.49808 25.4492C8.49808 13.3984 18.2442 3.65234 30.295 3.65234C42.3457 3.65234 52.0918 13.3984 52.0918 25.4492C52.0918 37.5 42.3457 47.2461 30.295 47.2461C22.834 47.2461 16.1739 43.457 12.3653 37.7539C11.7207 36.875 10.7051 36.6016 9.80667 37.1484C8.94729 37.6562 8.69339 38.8477 9.39651 39.8047C13.9473 46.5039 21.6426 50.8789 30.295 50.8789ZM1.60354 20.7227C0.00198146 20.7227-0.447237 21.8164 0.470731 23.0859L6.01761 30.9766C6.75979 32.0508 7.83401 32.0312 8.55667 30.9766L14.1035 23.0664C14.9825 21.8164 14.5528 20.7227 12.9707 20.7227Z" fill="black" fill-opacity="0.85"/>
  <path d="M23.0293 36.9531C23.7129 36.9531 24.084 36.6406 24.2793 35.9766L30.2364 17.0898L30.334 17.0898L36.3106 35.9961C36.4864 36.582 36.8379 36.9531 37.5606 36.9531C38.2442 36.9531 38.8496 36.5625 38.8496 35.8203C38.8496 35.5859 38.8106 35.332 38.7129 35.0977L32.0528 15.1953C31.7793 14.3359 31.2325 13.8672 30.295 13.8672C29.377 13.8672 28.7715 14.375 28.5176 15.1953L21.8575 35.1562C21.7793 35.3906 21.7207 35.625 21.7207 35.8203C21.7207 36.5234 22.3067 36.9531 23.0293 36.9531ZM20.8028 25.9375C20.8028 26.3672 21.1348 26.6992 21.5645 26.6992L39.0254 26.6992C39.4551 26.6992 39.7871 26.3672 39.7871 25.9375C39.7871 25.5273 39.4551 25.1758 39.0254 25.1758L21.5645 25.1758C21.1348 25.1758 20.8028 25.5273 20.8028 25.9375ZM20.8028 30.4102C20.8028 30.8203 21.1348 31.1719 21.5645 31.1719L39.0254 31.1719C39.4551 31.1719 39.7871 30.8203 39.7871 30.4102C39.7871 30 39.4551 29.6484 39.0254 29.6484L21.5645 29.6484C21.1348 29.6484 20.8028 30 20.8028 30.4102Z" fill="black" fill-opacity="0.85"/>
 </g>
</svg>
