<?xml version="1.0" encoding="UTF-8"?>
<!--Generator: Apple Native CoreSVG 326-->
<!DOCTYPE svg
PUBLIC "-//W3C//DTD SVG 1.1//EN"
       "http://www.w3.org/Graphics/SVG/1.1/DTD/svg11.dtd">
<svg version="1.1" xmlns="http://www.w3.org/2000/svg" xmlns:xlink="http://www.w3.org/1999/xlink" viewBox="0 0 28.418 58.3008">
 <g>
  <rect height="58.3008" opacity="0" width="28.418" x="0" y="0"/>
  <path d="M6.26953 58.2812L21.7773 58.2812C25.6445 58.2812 28.0469 55.957 28.0469 52.2266L28.0469 6.03516C28.0469 2.32422 25.6445 0 21.7773 0L6.26953 0C2.40234 0 0 2.32422 0 6.03516L0 52.2266C0 55.957 2.40234 58.2812 6.26953 58.2812ZM6.64062 55.1172C4.49219 55.1172 3.20312 53.8672 3.20312 51.7969L3.20312 6.48438C3.20312 4.41406 4.49219 3.16406 6.64062 3.16406L21.4062 3.16406C23.5547 3.16406 24.8438 4.41406 24.8438 6.48438L24.8438 51.7969C24.8438 53.8672 23.5547 55.1172 21.4062 55.1172ZM15.5078 9.23828L20.8789 9.23828C21.7578 9.23828 22.4219 8.57422 22.4219 7.69531C22.4219 6.81641 21.7578 6.15234 20.8789 6.15234L15.5078 6.15234C14.6289 6.15234 13.9648 6.81641 13.9648 7.69531C13.9648 8.57422 14.6289 9.23828 15.5078 9.23828ZM7.8125 18.7891C9.17969 18.7891 10.2344 17.7344 10.2344 16.3672C10.2344 15.0391 9.17969 13.9648 7.8125 13.9648C6.46484 13.9648 5.39062 15.0391 5.39062 16.3672C5.39062 17.7344 6.46484 18.7891 7.8125 18.7891ZM14.0234 18.7891C15.3711 18.7891 16.4258 17.7344 16.4258 16.3672C16.4258 15.0391 15.3711 13.9648 14.0234 13.9648C12.6562 13.9648 11.6016 15.0391 11.6016 16.3672C11.6016 17.7344 12.6562 18.7891 14.0234 18.7891ZM20.2539 18.7891C21.6211 18.7891 22.6758 17.7344 22.6758 16.3672C22.6758 15.0391 21.6211 13.9648 20.2539 13.9648C18.8867 13.9648 17.832 15.0391 17.832 16.3672C17.832 17.7344 18.8867 18.7891 20.2539 18.7891ZM7.8125 25.8398C9.17969 25.8398 10.2344 24.7656 10.2344 23.418C10.2344 22.0898 9.17969 20.9961 7.8125 20.9961C6.46484 20.9961 5.39062 22.0898 5.39062 23.418C5.39062 24.7656 6.46484 25.8398 7.8125 25.8398ZM14.0234 25.8398C15.3711 25.8398 16.4258 24.7656 16.4258 23.418C16.4258 22.0898 15.3711 20.9961 14.0234 20.9961C12.6562 20.9961 11.6016 22.0898 11.6016 23.418C11.6016 24.7656 12.6562 25.8398 14.0234 25.8398ZM20.2539 25.8398C21.6211 25.8398 22.6758 24.7656 22.6758 23.418C22.6758 22.0898 21.6211 20.9961 20.2539 20.9961C18.8867 20.9961 17.832 22.0898 17.832 23.418C17.832 24.7656 18.8867 25.8398 20.2539 25.8398ZM7.8125 32.8711C9.17969 32.8711 10.2344 31.8164 10.2344 30.4688C10.2344 29.1406 9.17969 28.0469 7.8125 28.0469C6.46484 28.0469 5.39062 29.1406 5.39062 30.4688C5.39062 31.8164 6.46484 32.8711 7.8125 32.8711ZM14.0234 32.8711C15.3711 32.8711 16.4258 31.7969 16.4258 30.4688C16.4258 29.1016 15.3711 28.0469 14.0234 28.0469C12.6562 28.0469 11.6016 29.1016 11.6016 30.4688C11.6016 31.7969 12.6562 32.8711 14.0234 32.8711ZM20.2539 32.8711C21.6211 32.8711 22.6758 31.7969 22.6758 30.4688C22.6758 29.1016 21.6211 28.0469 20.2539 28.0469C18.8867 28.0469 17.832 29.1016 17.832 30.4688C17.832 31.7969 18.8867 32.8711 20.2539 32.8711ZM7.26562 49.6094C8.30078 49.6094 9.14062 48.7695 9.14062 47.7344L9.14062 38.7695C9.14062 37.7344 8.30078 36.8945 7.26562 36.8945C6.23047 36.8945 5.39062 37.7344 5.39062 38.7695L5.39062 47.7344C5.39062 48.7695 6.23047 49.6094 7.26562 49.6094ZM12.793 42.2461L15.2344 42.2461C16.0938 42.2461 16.5234 41.7578 16.5234 40.957L16.5234 39.3164C16.5234 38.4961 16.0938 38.0273 15.2344 38.0273L12.793 38.0273C11.9922 38.0273 11.5039 38.4961 11.5039 39.3164L11.5039 40.957C11.5039 41.7578 11.9922 42.2461 12.793 42.2461ZM12.793 48.4766L15.2344 48.4766C16.0938 48.4766 16.5234 48.0078 16.5234 47.1875L16.5234 45.5469C16.5234 44.7461 16.0938 44.2578 15.2344 44.2578L12.793 44.2578C11.9922 44.2578 11.5039 44.7461 11.5039 45.5469L11.5039 47.1875C11.5039 48.0078 11.9922 48.4766 12.793 48.4766ZM20.8008 49.6094C21.8359 49.6094 22.6758 48.7695 22.6758 47.7344L22.6758 38.7695C22.6758 37.7344 21.8359 36.8945 20.8008 36.8945C19.7656 36.8945 18.9258 37.7344 18.9258 38.7695L18.9258 47.7344C18.9258 48.7695 19.7656 49.6094 20.8008 49.6094Z" fill="black" fill-opacity="0.85"/>
 </g>
</svg>
