<?xml version="1.0" encoding="UTF-8"?>
<!--Generator: Apple Native CoreSVG 326-->
<!DOCTYPE svg
PUBLIC "-//W3C//DTD SVG 1.1//EN"
       "http://www.w3.org/Graphics/SVG/1.1/DTD/svg11.dtd">
<svg version="1.1" xmlns="http://www.w3.org/2000/svg" xmlns:xlink="http://www.w3.org/1999/xlink" viewBox="0 0 44.6973 53.3077">
 <g>
  <rect height="53.3077" opacity="0" width="44.6973" x="0" y="0"/>
  <path d="M2.15333 16.0972L4.22365 16.8589C6.07911 17.523 7.73927 16.7027 8.42286 14.8082L11.8994 5.25738C12.6026 3.34331 11.8408 1.66363 10.0049 0.999564L7.93458 0.237845C6.07911-0.445749 4.43849 0.374564 3.73536 2.30816L0.258802 11.8394C-0.444323 13.7535 0.317396 15.4332 2.15333 16.0972ZM34.3213 16.0972L36.3916 16.8589C38.2471 17.523 39.9072 16.7027 40.5908 14.8082L44.0674 5.25738C44.7705 3.34331 44.0088 1.66363 42.1729 0.999564L40.1026 0.237845C38.2666-0.445749 36.626 0.374564 35.9229 2.30816L32.4463 11.8394C31.7627 13.7535 32.5049 15.4332 34.3213 16.0972ZM4.98536 53.1675L7.1924 53.1675C9.14552 53.1675 10.4151 51.8199 10.4151 49.8082L10.4151 39.6519C10.4151 37.6207 9.14552 36.2925 7.1924 36.2925L4.98536 36.2925C3.03224 36.2925 1.74318 37.6207 1.74318 39.6519L1.74318 49.8082C1.74318 51.8199 3.03224 53.1675 4.98536 53.1675ZM37.1533 53.1675L39.3604 53.1675C41.3135 53.1675 42.583 51.8199 42.583 49.8082L42.583 39.6519C42.583 37.6207 41.3135 36.2925 39.3604 36.2925L37.1533 36.2925C35.2002 36.2925 33.9307 37.6207 33.9307 39.6519L33.9307 49.8082C33.9307 51.8199 35.2002 53.1675 37.1533 53.1675ZM8.73536 10.2769L35.6494 10.2769L35.6494 6.81988L8.73536 6.81988ZM20.4346 45.2769L23.8916 45.2769L23.8916 6.81988L20.4346 6.81988ZM8.73536 46.4683L35.6494 46.4683L35.6494 42.9918L8.73536 42.9918Z" fill="black" fill-opacity="0.85"/>
 </g>
</svg>
