<?xml version="1.0" encoding="UTF-8"?>
<!--Generator: Apple Native CoreSVG 326-->
<!DOCTYPE svg
PUBLIC "-//W3C//DTD SVG 1.1//EN"
       "http://www.w3.org/Graphics/SVG/1.1/DTD/svg11.dtd">
<svg version="1.1" xmlns="http://www.w3.org/2000/svg" xmlns:xlink="http://www.w3.org/1999/xlink" viewBox="0 0 51.25 50.918">
 <g>
  <rect height="50.918" opacity="0" width="51.25" x="0" y="0"/>
  <path d="M50.8789 25.4492C50.8789 39.4531 39.4531 50.8789 25.4297 50.8789C11.4258 50.8789 0 39.4531 0 25.4492C0 11.4258 11.4258 0 25.4297 0C39.4531 0 50.8789 11.4258 50.8789 25.4492ZM19.1211 13.5156C17.8906 13.5156 17.1484 14.2578 17.1484 15.5078L17.1484 35.0195C17.1484 36.2695 17.8906 37.0117 19.1211 37.0117L26.6602 37.0117C31.8945 37.0117 35.2539 34.4727 35.2539 30.4297C35.2539 27.3047 33.1641 25.0977 29.8047 24.668L29.8047 24.5312C32.2852 23.9258 33.8477 21.875 33.8477 19.3164C33.8477 15.8203 30.9961 13.5156 26.6797 13.5156ZM31.6797 30.332C31.6797 33.0273 29.6094 34.3164 25.2344 34.3164L20.625 34.3164L20.625 26.1914L26.5039 26.1914C29.7461 26.1914 31.6797 27.7148 31.6797 30.332ZM30.4102 19.8828C30.4102 22.2266 28.418 23.6523 25 23.6523L20.625 23.6523L20.625 16.2109L25.9766 16.2109C28.7695 16.2109 30.4102 17.5781 30.4102 19.8828Z" fill="black" fill-opacity="0.85"/>
 </g>
</svg>
