<?xml version="1.0" encoding="UTF-8"?>
<!--Generator: Apple Native CoreSVG 326-->
<!DOCTYPE svg
PUBLIC "-//W3C//DTD SVG 1.1//EN"
       "http://www.w3.org/Graphics/SVG/1.1/DTD/svg11.dtd">
<svg version="1.1" xmlns="http://www.w3.org/2000/svg" xmlns:xlink="http://www.w3.org/1999/xlink" viewBox="0 0 61.8555 37.9492">
 <g>
  <rect height="37.9492" opacity="0" width="61.8555" x="0" y="0"/>
  <path d="M50.2539 37.793C52.3242 37.793 53.3594 36.7578 53.3594 34.668L53.3594 3.22266C53.3594 1.15234 52.3242 0.0976562 50.2539 0.0976562L44.6094 0.0976562C42.5391 0.0976562 41.5039 1.05469 41.5039 3.22266L41.5039 34.668C41.5039 36.7578 42.5391 37.793 44.6094 37.793ZM33.5352 34.7266L33.5352 3.20312C33.5352 1.01562 32.2656 0 30.7617 0C30.1172 0 29.4336 0.195312 28.7891 0.566406L2.32422 16.0938C0.664062 17.0508 0 17.8125 0 18.9648C0 20.1172 0.664062 20.8594 2.32422 21.8164L28.7891 37.3438C29.4336 37.7148 30.1172 37.9102 30.7617 37.9102C32.2656 37.9102 33.5352 36.9141 33.5352 34.7266Z" fill="black" fill-opacity="0.85"/>
 </g>
</svg>
