<?xml version="1.0" encoding="UTF-8"?>
<!--Generator: Apple Native CoreSVG 326-->
<!DOCTYPE svg
PUBLIC "-//W3C//DTD SVG 1.1//EN"
       "http://www.w3.org/Graphics/SVG/1.1/DTD/svg11.dtd">
<svg version="1.1" xmlns="http://www.w3.org/2000/svg" xmlns:xlink="http://www.w3.org/1999/xlink" viewBox="0 0 31.9727 67.207">
 <g>
  <rect height="67.207" opacity="0" width="31.9727" x="0" y="0"/>
  <path d="M15.7812 37.5977C24.668 37.5977 31.6016 28.1641 31.6016 16.2695C31.6016 6.93359 25.1758 0 15.7812 0C6.40625 0 0 6.93359 0 16.2695C0 28.1641 6.89453 37.5977 15.7812 37.5977ZM12.5586 36.1328L11.4453 40.293C11.2109 41.1914 11.6992 42.1094 12.8125 42.1094L18.7891 42.1094C19.9023 42.1094 20.4102 41.1914 20.1562 40.293L19.0234 36.1328ZM15.3125 66.8945C16.1719 66.8945 16.875 66.1914 16.875 65.3516C16.875 59.7461 21.9141 58.3789 21.9141 52.8906C21.9141 47.3633 17.207 46.0352 17.2461 41.0352L14.1602 41.0352C14.1406 47.6953 18.8477 48.75 18.8477 52.8906C18.8477 57.1289 13.7891 57.7539 13.7891 65.3516C13.7891 66.1914 14.4727 66.8945 15.3125 66.8945Z" fill="black" fill-opacity="0.85"/>
 </g>
</svg>
