<?xml version="1.0" encoding="UTF-8"?>
<!--Generator: Apple Native CoreSVG 326-->
<!DOCTYPE svg
PUBLIC "-//W3C//DTD SVG 1.1//EN"
       "http://www.w3.org/Graphics/SVG/1.1/DTD/svg11.dtd">
<svg version="1.1" xmlns="http://www.w3.org/2000/svg" xmlns:xlink="http://www.w3.org/1999/xlink" viewBox="0 0 79.043 34.2383">
 <g>
  <rect height="34.2383" opacity="0" width="79.043" x="0" y="0"/>
  <path d="M34.8633 34.1992L43.8086 34.1992C55.293 34.1992 61.8945 34.082 67.5391 32.207C74.668 29.7852 78.6719 24.4336 78.6719 17.1094C78.6719 9.76562 74.668 4.41406 67.5391 2.01172C61.8945 0.117188 55.293 0 43.8086 0L34.8633 0C23.3789 0 16.7773 0.117188 11.1133 2.01172C4.00391 4.41406 0 9.76562 0 17.1094C0 24.4336 4.00391 29.7852 11.1133 32.207C16.7773 34.082 23.3789 34.1992 34.8633 34.1992ZM39.3359 23.3008C36.3867 23.3008 34.1406 21.0547 34.1406 18.2031L34.1406 10.6641L36.4648 9.64844L36.4648 13.8086C37.3633 13.1641 38.3008 12.8711 39.3359 12.8711C42.1875 12.8711 44.5703 15.2539 44.5703 18.2031C44.5703 20.9961 42.2266 23.3008 39.3359 23.3008ZM39.3359 20.9961C40.8984 20.9961 42.1875 19.6875 42.1875 18.2031C42.1875 16.6406 40.8984 15.332 39.3359 15.332C37.8125 15.332 36.4648 16.6211 36.4648 18.2031C36.4648 19.6875 37.7734 20.9961 39.3359 20.9961Z" fill="black" fill-opacity="0.85"/>
 </g>
</svg>
