<?xml version="1.0" encoding="UTF-8"?>
<!--Generator: Apple Native CoreSVG 326-->
<!DOCTYPE svg
PUBLIC "-//W3C//DTD SVG 1.1//EN"
       "http://www.w3.org/Graphics/SVG/1.1/DTD/svg11.dtd">
<svg version="1.1" xmlns="http://www.w3.org/2000/svg" xmlns:xlink="http://www.w3.org/1999/xlink" viewBox="0 0 34.2188 47.8711">
 <g>
  <rect height="47.8711" opacity="0" width="34.2188" x="0" y="0"/>
  <path d="M11.7969 0C4.00391 0 0 5.74219 0 14.8438L0 20.5664C0 27.0508 1.62109 30.1172 6.23047 32.6562L16.7383 38.418C19.4727 39.9023 20.7617 40.3711 22.6758 40.3711C26.582 40.3711 29.7852 37.168 29.7852 33.2617C29.7852 30.6055 28.3789 28.125 25.332 26.5234L4.41406 15.6055C4.41406 8.35938 6.81641 4.43359 12.0508 4.43359C20.8594 4.43359 28.457 14.8047 29.3359 26.6211C31.1328 28.418 32.1094 30.7227 32.1094 33.2617C32.1094 37.5781 29.1797 41.2305 25.2344 42.3633C25.4102 45.0586 27.0703 47.832 29.1602 47.832C31.6992 47.832 33.8477 38.9648 33.8477 30.9375C33.8477 13.9062 23.9062 0 11.7969 0ZM22.8125 37.793C20.3125 37.793 18.2617 35.7422 18.2617 33.2617C18.2617 30.7617 20.3125 28.6914 22.8125 28.6914C25.332 28.6914 27.3828 30.7617 27.3828 33.2617C27.3828 35.7617 25.332 37.793 22.8125 37.793ZM22.8125 36.1133C24.4141 36.1133 25.7031 34.8242 25.7031 33.2617C25.7031 31.6797 24.4141 30.3906 22.8125 30.3906C21.25 30.3906 19.9414 31.6797 19.9414 33.2617C19.9414 34.8242 21.25 36.1133 22.8125 36.1133Z" fill="black" fill-opacity="0.85"/>
  <path d="M22.8125 37.793C20.3125 37.793 18.2617 35.7422 18.2617 33.2617C18.2617 30.7617 20.3125 28.6914 22.8125 28.6914C25.332 28.6914 27.3828 30.7617 27.3828 33.2617C27.3828 35.7617 25.332 37.793 22.8125 37.793ZM22.8125 36.1133C24.4141 36.1133 25.7031 34.8242 25.7031 33.2617C25.7031 31.6797 24.4141 30.3906 22.8125 30.3906C21.25 30.3906 19.9414 31.6797 19.9414 33.2617C19.9414 34.8242 21.25 36.1133 22.8125 36.1133Z" fill="black" fill-opacity="0.2125"/>
 </g>
</svg>
