<?xml version="1.0" encoding="UTF-8"?>
<!--Generator: Apple Native CoreSVG 326-->
<!DOCTYPE svg
PUBLIC "-//W3C//DTD SVG 1.1//EN"
       "http://www.w3.org/Graphics/SVG/1.1/DTD/svg11.dtd">
<svg version="1.1" xmlns="http://www.w3.org/2000/svg" xmlns:xlink="http://www.w3.org/1999/xlink" viewBox="0 0 52.7344 51.3086">
 <g>
  <rect height="51.3086" opacity="0" width="52.7344" x="0" y="0"/>
  <path d="M6.34766 7.98828L6.34766 14.1992C6.34766 15.1953 7.05078 15.8594 8.06641 15.8594L49.043 15.8594C50.1172 15.8594 50.7617 15.1758 50.7617 14.1797L50.7617 7.96875C50.7617 6.97266 50.0977 6.32812 49.043 6.32812L8.06641 6.32812C7.03125 6.32812 6.34766 6.99219 6.34766 7.98828ZM6.34766 19.7852L6.34766 26.0156C6.34766 26.9922 7.03125 27.6367 8.06641 27.6367L49.0625 27.6367C50.0977 27.6367 50.7617 26.9727 50.7617 26.0156L50.7617 19.7656C50.7617 18.7891 50.0977 18.1445 49.0625 18.1445L8.08594 18.1445C7.05078 18.1445 6.34766 18.7891 6.34766 19.7852ZM6.34766 31.582L6.34766 37.8125C6.34766 38.8086 7.03125 39.4531 8.06641 39.4531L49.043 39.4531C50.1172 39.4531 50.7617 38.8086 50.7617 37.8125L50.7617 31.5625C50.7617 30.6055 50.1172 29.9609 49.043 29.9609L8.06641 29.9609C7.05078 29.9609 6.34766 30.6055 6.34766 31.582ZM6.34766 43.3984L6.34766 49.6094C6.34766 50.6055 7.01172 51.25 8.04688 51.25L49.0234 51.25C50.0781 51.25 50.7617 50.6055 50.7617 49.6094L50.7617 43.3984C50.7617 42.3828 50.0977 41.7383 49.043 41.7383L8.06641 41.7383C7.01172 41.7383 6.34766 42.4023 6.34766 43.3984Z" fill="black" fill-opacity="0.85"/>
  <path d="M0 1.73828C0 2.67578 0.78125 3.45703 1.71875 3.45703L50.7617 3.45703C51.7188 3.45703 52.5 2.67578 52.5 1.73828C52.5 0.78125 51.7188 0 50.7617 0L1.71875 0C0.78125 0 0 0.78125 0 1.73828ZM1.71875 9.375C2.59766 9.375 3.28125 8.65234 3.28125 7.8125C3.28125 6.95312 2.59766 6.25 1.71875 6.25C0.859375 6.25 0.175781 6.95312 0.175781 7.8125C0.175781 8.65234 0.859375 9.375 1.71875 9.375ZM1.71875 15.2344C2.59766 15.2344 3.28125 14.5312 3.28125 13.6719C3.28125 12.8125 2.59766 12.1289 1.71875 12.1289C0.859375 12.1289 0.175781 12.8125 0.175781 13.6719C0.175781 14.5312 0.859375 15.2344 1.71875 15.2344ZM1.71875 21.1133C2.59766 21.1133 3.28125 20.4102 3.28125 19.5508C3.28125 18.6914 2.59766 18.0078 1.71875 18.0078C0.859375 18.0078 0.175781 18.6914 0.175781 19.5508C0.175781 20.4102 0.859375 21.1133 1.71875 21.1133ZM1.71875 26.9727C2.59766 26.9727 3.28125 26.2695 3.28125 25.4297C3.28125 24.5508 2.59766 23.8672 1.71875 23.8672C0.859375 23.8672 0.175781 24.5508 0.175781 25.4297C0.175781 26.2695 0.859375 26.9727 1.71875 26.9727ZM1.71875 32.8516C2.59766 32.8516 3.28125 32.1484 3.28125 31.3086C3.28125 30.4297 2.59766 29.7461 1.71875 29.7461C0.859375 29.7461 0.175781 30.4297 0.175781 31.3086C0.175781 32.1484 0.859375 32.8516 1.71875 32.8516ZM1.71875 38.7305C2.59766 38.7305 3.28125 38.0078 3.28125 37.168C3.28125 36.3086 2.59766 35.6055 1.71875 35.6055C0.859375 35.6055 0.175781 36.3086 0.175781 37.168C0.175781 38.0078 0.859375 38.7305 1.71875 38.7305ZM1.71875 51.2695C2.65625 51.2695 3.45703 50.4883 3.45703 49.5508L3.45703 43.2227C3.45703 42.2656 2.67578 41.4844 1.71875 41.4844C0.78125 41.4844 0 42.2656 0 43.2227L0 49.5508C0 50.4883 0.800781 51.2695 1.71875 51.2695Z" fill="black" fill-opacity="0.85"/>
 </g>
</svg>
