<?xml version="1.0" encoding="UTF-8"?>
<!--Generator: Apple Native CoreSVG 326-->
<!DOCTYPE svg
PUBLIC "-//W3C//DTD SVG 1.1//EN"
       "http://www.w3.org/Graphics/SVG/1.1/DTD/svg11.dtd">
<svg version="1.1" xmlns="http://www.w3.org/2000/svg" xmlns:xlink="http://www.w3.org/1999/xlink" viewBox="0 0 46.2891 45.918">
 <g>
  <rect height="45.918" opacity="0" width="46.2891" x="0" y="0"/>
  <path d="M45.918 7.53906L45.918 38.3984C45.918 43.3594 43.3594 45.918 38.3008 45.918L7.59766 45.918C2.55859 45.918 0 43.3984 0 38.3984L0 7.53906C0 2.53906 2.55859 0 7.59766 0L38.3008 0C43.3594 0 45.918 2.55859 45.918 7.53906ZM29.9805 10.5078L29.9805 12.5391C26.9922 12.7734 24.8242 14.6094 24.8242 17.6172C24.8242 20.3711 26.3867 21.8359 29.1797 23.1836L29.9805 23.5547L29.9805 30.625C28.1445 30.4102 27.2656 29.1992 26.9727 27.2852C26.875 26.6211 26.3477 26.3086 25.8008 26.3086C25.0977 26.3086 24.5898 26.7188 24.5898 27.4609C24.5898 27.6367 24.6289 27.9492 24.668 28.1836C25.2734 31.2109 27.3633 32.5586 29.9805 32.7539L29.9805 34.8828C29.9805 35.293 30.2344 35.5469 30.6445 35.5469C31.0156 35.5469 31.2891 35.293 31.2891 34.8828L31.2891 32.7734C34.5898 32.5586 36.6992 30.5469 36.6992 27.5C36.6992 24.4531 34.8047 23.1445 32.2461 21.9531L31.2891 21.5039L31.2891 14.6875C33.0273 14.9414 33.7305 16.2695 33.9453 17.8711C34.0625 18.3594 34.4531 18.8477 35.1562 18.8477C35.8594 18.8477 36.3281 18.3984 36.3281 17.6953C36.3281 17.5195 36.2891 17.1875 36.25 16.9531C35.6836 14.0234 33.7109 12.7344 31.2891 12.5586L31.2891 10.5078C31.2891 10.0977 31.0156 9.84375 30.6445 9.84375C30.2344 9.84375 29.9805 10.0977 29.9805 10.5078ZM11.543 12.207C10.7422 12.207 10.2539 12.7148 10.2539 13.5547L10.2539 32.0117C10.2539 32.793 10.6641 33.3789 11.582 33.3789C12.3828 33.3789 12.8906 32.832 12.8906 32.0117L12.8906 24.6289L16.3086 24.6289L19.668 32.4219C19.9414 33.0664 20.332 33.3789 20.9961 33.3789C21.7383 33.3789 22.2461 32.8711 22.2461 32.1484C22.2461 31.7969 22.0898 31.4844 21.9727 31.1719L18.8477 24.043C21.1914 23.125 22.2461 20.8008 22.2461 18.3594C22.2461 14.4336 19.8242 12.207 16.0352 12.207ZM34.1992 27.7344C34.1992 29.5117 33.0859 30.5078 31.2891 30.6641L31.2891 24.1992C32.9297 25 34.1992 25.918 34.1992 27.7344ZM19.6289 18.3984C19.6289 20.8203 18.3984 22.5 15.8203 22.5L12.8906 22.5L12.8906 14.3945L15.8008 14.3945C18.2812 14.3945 19.6289 15.9961 19.6289 18.3984ZM29.9805 20.8594C28.457 20.0586 27.2852 19.1016 27.2852 17.4805C27.2852 15.8008 28.4375 14.8633 29.9805 14.668Z" fill="black" fill-opacity="0.85"/>
 </g>
</svg>
