<?xml version="1.0" encoding="UTF-8"?>
<!--Generator: Apple Native CoreSVG 326-->
<!DOCTYPE svg
PUBLIC "-//W3C//DTD SVG 1.1//EN"
       "http://www.w3.org/Graphics/SVG/1.1/DTD/svg11.dtd">
<svg version="1.1" xmlns="http://www.w3.org/2000/svg" xmlns:xlink="http://www.w3.org/1999/xlink" viewBox="0 0 51.25 50.918">
 <g>
  <rect height="50.918" opacity="0" width="51.25" x="0" y="0"/>
  <path d="M25.4297 50.8789C39.4727 50.8789 50.8789 39.4922 50.8789 25.4492C50.8789 11.4062 39.4727 0 25.4297 0C11.3867 0 0 11.4062 0 25.4492C0 39.4922 11.3867 50.8789 25.4297 50.8789ZM25.4297 47.2461C13.3789 47.2461 3.63281 37.5 3.63281 25.4492C3.63281 13.3984 13.3789 3.65234 25.4297 3.65234C37.4805 3.65234 47.2266 13.3984 47.2266 25.4492C47.2266 37.5 37.4805 47.2461 25.4297 47.2461Z" fill="black" fill-opacity="0.85"/>
  <path d="M32.0117 39.9805C32.6172 39.9805 32.9883 39.5508 32.9883 38.8867L32.9883 35.2148L33.7305 35.2148C37.2266 35.2148 39.2188 33.2031 39.2188 29.707L39.2188 19.707C39.2188 16.2305 37.2266 14.2188 33.7305 14.2188L17.1289 14.2188C13.6328 14.2188 11.6406 16.25 11.6406 19.707L11.6406 29.707C11.6406 33.2031 13.6328 35.2148 17.1289 35.2148L26.1914 35.2148L30.7812 39.3164C31.2695 39.7852 31.5625 39.9805 32.0117 39.9805Z" fill="black" fill-opacity="0.85"/>
 </g>
</svg>
