<?xml version="1.0" encoding="UTF-8"?>
<!--Generator: Apple Native CoreSVG 326-->
<!DOCTYPE svg
PUBLIC "-//W3C//DTD SVG 1.1//EN"
       "http://www.w3.org/Graphics/SVG/1.1/DTD/svg11.dtd">
<svg version="1.1" xmlns="http://www.w3.org/2000/svg" xmlns:xlink="http://www.w3.org/1999/xlink" viewBox="0 0 58.6914 59.9023">
 <g>
  <rect height="59.9023" opacity="0" width="58.6914" x="0" y="0"/>
  <path d="M1.99219 47.0508L1.99219 12.7734C1.99219 5.03906 7.26562 0 15.3906 0L23.2422 5.64304e-08C30.3906 0 35.0195 5.33203 35.0195 12.7734L35.0195 21.3887L31.5625 24.3932L31.5625 12.7734C31.5625 7.44141 28.2617 3.45703 23.2422 3.45703C18.2031 3.45703 14.9219 7.44141 14.9219 12.7734L14.9219 47.0508C14.9219 52.3828 18.2031 56.3672 23.2422 56.3672C28.2617 56.3672 31.5625 52.3828 31.5625 47.0508L31.5625 35.4246L35.0195 38.4461L35.0195 47.0508C35.0195 54.4922 30.3906 59.8242 23.2422 59.8242L15.3906 59.8242C7.26562 59.8242 1.99219 54.7852 1.99219 47.0508ZM5.46875 12.7734L5.46875 47.0508C5.46875 52.486 9.13416 56.116 14.7972 56.3441C12.6692 54.0799 11.4648 50.8386 11.4648 47.0508L11.4648 12.7734C11.4648 8.98563 12.6692 5.74436 14.7972 3.48015C9.13416 3.70825 5.46875 7.33817 5.46875 12.7734Z" fill="black" fill-opacity="0.85"/>
  <path d="M30 31.9141L37.4609 38.3984C39.2383 39.9609 41.8945 38.9648 41.8945 36.4453L41.8945 32.5L54.4727 32.5C55.9375 32.5 57.0508 31.3672 57.0508 29.9414C57.0508 28.4766 55.9375 27.3438 54.4727 27.3438L41.8945 27.3438L41.8945 23.3789C41.8945 20.9375 39.2969 19.8242 37.4609 21.4062L30 27.8906C28.6914 29.0039 28.6328 30.7812 30 31.9141Z" fill="black" fill-opacity="0.85"/>
 </g>
</svg>
