<?xml version="1.0" encoding="UTF-8"?>
<!--Generator: Apple Native CoreSVG 326-->
<!DOCTYPE svg
PUBLIC "-//W3C//DTD SVG 1.1//EN"
       "http://www.w3.org/Graphics/SVG/1.1/DTD/svg11.dtd">
<svg version="1.1" xmlns="http://www.w3.org/2000/svg" xmlns:xlink="http://www.w3.org/1999/xlink" viewBox="0 0 46.2891 45.918">
 <g>
  <rect height="45.918" opacity="0" width="46.2891" x="0" y="0"/>
  <path d="M7.59766 45.918L38.3008 45.918C43.3594 45.918 45.918 43.3594 45.918 38.3984L45.918 7.53906C45.918 2.55859 43.3594 0 38.3008 0L7.59766 0C2.55859 0 0 2.53906 0 7.53906L0 38.3984C0 43.3984 2.55859 45.918 7.59766 45.918ZM7.67578 42.4609C4.94141 42.4609 3.45703 41.0156 3.45703 38.2031L3.45703 7.71484C3.45703 4.92188 4.94141 3.45703 7.67578 3.45703L38.2422 3.45703C40.918 3.45703 42.4609 4.92188 42.4609 7.71484L42.4609 38.2031C42.4609 41.0156 40.918 42.4609 38.2422 42.4609Z" fill="black" fill-opacity="0.85"/>
  <path d="M22.9492 37.1094C30.7617 37.1094 37.0898 30.7812 37.0898 22.9883C37.0898 15.1953 30.7617 8.86719 22.9492 8.86719C15.1562 8.86719 8.82812 15.1953 8.82812 22.9883C8.82812 30.7812 15.1562 37.1094 22.9492 37.1094ZM22.9492 34.0625C16.8359 34.0625 11.875 29.1211 11.875 22.9883C11.875 16.8555 16.8359 11.9141 22.9492 11.9141C29.082 11.9141 34.043 16.8555 34.043 22.9883C34.043 29.1211 29.082 34.0625 22.9492 34.0625ZM22.9492 31.6016C27.7148 31.6016 31.5625 27.7344 31.5625 22.9883C31.5625 18.2422 27.7148 14.375 22.9492 14.375C18.2031 14.375 14.3555 18.2422 14.3555 22.9883C14.3555 27.7344 18.2031 31.6016 22.9492 31.6016Z" fill="black" fill-opacity="0.85"/>
 </g>
</svg>
