<?xml version="1.0" encoding="UTF-8"?>
<!--Generator: Apple Native CoreSVG 326-->
<!DOCTYPE svg
PUBLIC "-//W3C//DTD SVG 1.1//EN"
       "http://www.w3.org/Graphics/SVG/1.1/DTD/svg11.dtd">
<svg version="1.1" xmlns="http://www.w3.org/2000/svg" xmlns:xlink="http://www.w3.org/1999/xlink" viewBox="0 0 50.4102 45.957">
 <g>
  <rect height="45.957" opacity="0" width="50.4102" x="0" y="0"/>
  <path d="M7.59766 45.957L42.4219 45.957C47.4805 45.957 50.0391 43.418 50.0391 38.4375L50.0391 7.57812C50.0391 2.59766 47.4805 0.0585938 42.4219 0.0585938L7.59766 0.0585938C2.55859 0.0585938 0 2.57812 0 7.57812L0 38.4375C0 43.4375 2.55859 45.957 7.59766 45.957ZM7.32422 42.5C4.82422 42.5 3.45703 41.1719 3.45703 38.5938L3.45703 15.293C3.45703 12.6953 4.82422 11.3867 7.32422 11.3867L42.6758 11.3867C45.1562 11.3867 46.5625 12.6953 46.5625 15.293L46.5625 38.5938C46.5625 41.1719 45.1562 42.5 42.6758 42.5ZM20.0391 20.3711L21.5234 20.3711C22.3633 20.3711 22.5977 20.1367 22.5977 19.3164L22.5977 17.8516C22.5977 17.0312 22.3633 16.8164 21.5234 16.8164L20.0391 16.8164C19.2188 16.8164 18.9844 17.0312 18.9844 17.8516L18.9844 19.3164C18.9844 20.1367 19.2188 20.3711 20.0391 20.3711ZM28.5352 20.3711L30.0195 20.3711C30.8398 20.3711 31.0742 20.1367 31.0742 19.3164L31.0742 17.8516C31.0742 17.0312 30.8398 16.8164 30.0195 16.8164L28.5352 16.8164C27.6953 16.8164 27.4609 17.0312 27.4609 17.8516L27.4609 19.3164C27.4609 20.1367 27.6953 20.3711 28.5352 20.3711ZM37.0117 20.3711L38.4961 20.3711C39.3164 20.3711 39.5703 20.1367 39.5703 19.3164L39.5703 17.8516C39.5703 17.0312 39.3164 16.8164 38.4961 16.8164L37.0117 16.8164C36.1914 16.8164 35.9375 17.0312 35.9375 17.8516L35.9375 19.3164C35.9375 20.1367 36.1914 20.3711 37.0117 20.3711ZM11.5625 28.7109L13.0469 28.7109C13.8672 28.7109 14.1211 28.4961 14.1211 27.6758L14.1211 26.1914C14.1211 25.3906 13.8672 25.1562 13.0469 25.1562L11.5625 25.1562C10.7422 25.1562 10.4883 25.3906 10.4883 26.1914L10.4883 27.6758C10.4883 28.4961 10.7422 28.7109 11.5625 28.7109ZM20.0391 28.7109L21.5234 28.7109C22.3633 28.7109 22.5977 28.4961 22.5977 27.6758L22.5977 26.1914C22.5977 25.3906 22.3633 25.1562 21.5234 25.1562L20.0391 25.1562C19.2188 25.1562 18.9844 25.3906 18.9844 26.1914L18.9844 27.6758C18.9844 28.4961 19.2188 28.7109 20.0391 28.7109ZM28.5352 28.7109L30.0195 28.7109C30.8398 28.7109 31.0742 28.4961 31.0742 27.6758L31.0742 26.1914C31.0742 25.3906 30.8398 25.1562 30.0195 25.1562L28.5352 25.1562C27.6953 25.1562 27.4609 25.3906 27.4609 26.1914L27.4609 27.6758C27.4609 28.4961 27.6953 28.7109 28.5352 28.7109ZM37.0117 28.7109L38.4961 28.7109C39.3164 28.7109 39.5703 28.4961 39.5703 27.6758L39.5703 26.1914C39.5703 25.3906 39.3164 25.1562 38.4961 25.1562L37.0117 25.1562C36.1914 25.1562 35.9375 25.3906 35.9375 26.1914L35.9375 27.6758C35.9375 28.4961 36.1914 28.7109 37.0117 28.7109ZM11.5625 37.0703L13.0469 37.0703C13.8672 37.0703 14.1211 36.8555 14.1211 36.0352L14.1211 34.5508C14.1211 33.7305 13.8672 33.5156 13.0469 33.5156L11.5625 33.5156C10.7422 33.5156 10.4883 33.7305 10.4883 34.5508L10.4883 36.0352C10.4883 36.8555 10.7422 37.0703 11.5625 37.0703ZM20.0391 37.0703L21.5234 37.0703C22.3633 37.0703 22.5977 36.8555 22.5977 36.0352L22.5977 34.5508C22.5977 33.7305 22.3633 33.5156 21.5234 33.5156L20.0391 33.5156C19.2188 33.5156 18.9844 33.7305 18.9844 34.5508L18.9844 36.0352C18.9844 36.8555 19.2188 37.0703 20.0391 37.0703ZM28.5352 37.0703L30.0195 37.0703C30.8398 37.0703 31.0742 36.8555 31.0742 36.0352L31.0742 34.5508C31.0742 33.7305 30.8398 33.5156 30.0195 33.5156L28.5352 33.5156C27.6953 33.5156 27.4609 33.7305 27.4609 34.5508L27.4609 36.0352C27.4609 36.8555 27.6953 37.0703 28.5352 37.0703Z" fill="black" fill-opacity="0.85"/>
 </g>
</svg>
