<?xml version="1.0" encoding="UTF-8"?>
<!--Generator: Apple Native CoreSVG 326-->
<!DOCTYPE svg
PUBLIC "-//W3C//DTD SVG 1.1//EN"
       "http://www.w3.org/Graphics/SVG/1.1/DTD/svg11.dtd">
<svg version="1.1" xmlns="http://www.w3.org/2000/svg" xmlns:xlink="http://www.w3.org/1999/xlink" viewBox="0 0 51.25 50.918">
 <g>
  <rect height="50.918" opacity="0" width="51.25" x="0" y="0"/>
  <path d="M50.8789 25.4688C50.8789 39.4922 39.4531 50.918 25.4297 50.918C11.4258 50.918 0 39.4922 0 25.4688C0 11.4648 11.4258 0.0390625 25.4297 0.0390625C39.4531 0.0390625 50.8789 11.4648 50.8789 25.4688ZM15.957 12.9297C13.1836 12.9297 11.7773 14.3164 11.7773 17.0508L11.7773 33.9062C11.7773 36.6406 13.1836 38.0273 15.957 38.0273L34.9219 38.0273C37.6758 38.0273 39.082 36.6406 39.082 33.9062L39.082 17.0508C39.082 14.3164 37.6758 12.9297 34.9219 12.9297ZM36.9336 21.2305L36.9336 33.9844C36.9336 35.293 36.3086 35.8984 35.0195 35.8984L15.8398 35.8984C14.5703 35.8984 13.9453 35.293 13.9453 33.9844L13.9453 21.2305C13.9453 19.8438 14.668 19.1211 16.0156 19.1211L34.8242 19.1211C36.1719 19.1211 36.9336 19.8438 36.9336 21.2305ZM18.0273 30.9961C17.4805 30.9961 17.3047 31.1328 17.3047 31.6602L17.3047 32.6367C17.3047 33.1836 17.4805 33.3398 18.0273 33.3398L18.9648 33.3398C19.5312 33.3398 19.6875 33.1836 19.6875 32.6367L19.6875 31.6602C19.6875 31.1328 19.5312 30.9961 18.9648 30.9961ZM22.6562 30.9961C22.0898 30.9961 21.9531 31.1328 21.9531 31.6602L21.9531 32.6367C21.9531 33.1836 22.0898 33.3398 22.6562 33.3398L23.5938 33.3398C24.1602 33.3398 24.2969 33.1836 24.2969 32.6367L24.2969 31.6602C24.2969 31.1328 24.1602 30.9961 23.5938 30.9961ZM27.2852 30.9961C26.7188 30.9961 26.5625 31.1328 26.5625 31.6602L26.5625 32.6367C26.5625 33.1836 26.7188 33.3398 27.2852 33.3398L28.2227 33.3398C28.7695 33.3398 28.9258 33.1836 28.9258 32.6367L28.9258 31.6602C28.9258 31.1328 28.7695 30.9961 28.2227 30.9961ZM18.0273 26.4453C17.4805 26.4453 17.3047 26.582 17.3047 27.1484L17.3047 28.1055C17.3047 28.6523 17.4805 28.7695 18.0273 28.7695L18.9648 28.7695C19.5312 28.7695 19.6875 28.6523 19.6875 28.1055L19.6875 27.1484C19.6875 26.582 19.5312 26.4453 18.9648 26.4453ZM22.6562 26.4453C22.0898 26.4453 21.9531 26.582 21.9531 27.1484L21.9531 28.1055C21.9531 28.6523 22.0898 28.7695 22.6562 28.7695L23.5938 28.7695C24.1602 28.7695 24.2969 28.6523 24.2969 28.1055L24.2969 27.1484C24.2969 26.582 24.1602 26.4453 23.5938 26.4453ZM27.2852 26.4453C26.7188 26.4453 26.5625 26.582 26.5625 27.1484L26.5625 28.1055C26.5625 28.6523 26.7188 28.7695 27.2852 28.7695L28.2227 28.7695C28.7695 28.7695 28.9258 28.6523 28.9258 28.1055L28.9258 27.1484C28.9258 26.582 28.7695 26.4453 28.2227 26.4453ZM31.8945 26.4453C31.3281 26.4453 31.1719 26.582 31.1719 27.1484L31.1719 28.1055C31.1719 28.6523 31.3281 28.7695 31.8945 28.7695L32.832 28.7695C33.3984 28.7695 33.5742 28.6523 33.5742 28.1055L33.5742 27.1484C33.5742 26.582 33.3984 26.4453 32.832 26.4453ZM22.6562 21.875C22.0898 21.875 21.9531 22.0508 21.9531 22.5781L21.9531 23.5742C21.9531 24.082 22.0898 24.2383 22.6562 24.2383L23.5938 24.2383C24.1602 24.2383 24.2969 24.082 24.2969 23.5742L24.2969 22.5781C24.2969 22.0508 24.1602 21.875 23.5938 21.875ZM27.2852 21.875C26.7188 21.875 26.5625 22.0508 26.5625 22.5781L26.5625 23.5742C26.5625 24.082 26.7188 24.2383 27.2852 24.2383L28.2227 24.2383C28.7695 24.2383 28.9258 24.082 28.9258 23.5742L28.9258 22.5781C28.9258 22.0508 28.7695 21.875 28.2227 21.875ZM31.8945 21.875C31.3281 21.875 31.1719 22.0508 31.1719 22.5781L31.1719 23.5742C31.1719 24.082 31.3281 24.2383 31.8945 24.2383L32.832 24.2383C33.3984 24.2383 33.5742 24.082 33.5742 23.5742L33.5742 22.5781C33.5742 22.0508 33.3984 21.875 32.832 21.875Z" fill="black" fill-opacity="0.85"/>
 </g>
</svg>
