<?xml version="1.0" encoding="UTF-8"?>
<!--Generator: Apple Native CoreSVG 326-->
<!DOCTYPE svg
PUBLIC "-//W3C//DTD SVG 1.1//EN"
       "http://www.w3.org/Graphics/SVG/1.1/DTD/svg11.dtd">
<svg version="1.1" xmlns="http://www.w3.org/2000/svg" xmlns:xlink="http://www.w3.org/1999/xlink" viewBox="0 0 51.25 50.918">
 <g>
  <rect height="50.918" opacity="0" width="51.25" x="0" y="0"/>
  <path d="M25.4297 50.8789C39.4727 50.8789 50.8789 39.4922 50.8789 25.4492C50.8789 11.4062 39.4727 0 25.4297 0C11.3867 0 0 11.4062 0 25.4492C0 39.4922 11.3867 50.8789 25.4297 50.8789ZM25.4297 47.2461C13.3789 47.2461 3.63281 37.5 3.63281 25.4492C3.63281 13.3984 13.3789 3.65234 25.4297 3.65234C37.4805 3.65234 47.2266 13.3984 47.2266 25.4492C47.2266 37.5 37.4805 47.2461 25.4297 47.2461Z" fill="black" fill-opacity="0.85"/>
  <path d="M26.3867 30.2148L26.3867 38.0658C27.1678 36.3504 28.2907 34.8027 29.7016 33.5298L34.5408 38.369C31.9219 40.1388 28.7291 41.1719 25.4102 41.1719C24.8828 41.1719 24.4531 40.7812 24.4531 40.2539L24.4531 28.2813ZM23.0664 35.8398L23.0664 40.2539C23.0664 40.5078 23.125 40.7617 23.2031 40.9766C17.4023 40.2344 12.3633 36.3672 10.5469 31.0938C10.293 30.3906 10.5859 29.8633 11.3477 29.8633C16.4453 29.8633 20.625 32.2852 23.0664 35.8398ZM14.375 12.8711L38.0273 36.5234C38.4375 36.9531 38.4375 37.5781 38.0273 37.9883C37.6172 38.3984 36.9531 38.3984 36.5625 37.9883L12.8906 14.3359C12.5 13.9453 12.4805 13.2812 12.8906 12.8711C13.3008 12.4609 13.9648 12.4609 14.375 12.8711ZM40.2539 31.0938C39.8224 32.3509 39.2049 33.5288 38.4267 34.5979L34.5175 30.6855C36.0307 30.1523 37.6939 29.8633 39.4727 29.8633C40.2344 29.8633 40.5273 30.3906 40.2539 31.0938ZM22.4006 26.2288C19.9229 25.3964 18.1207 23.519 17.2929 21.1211ZM26.0938 13.1836L28.6914 16.543L31.7188 13.4375C32.168 12.9688 32.8711 13.0469 33.1055 13.6328C33.7695 15.0977 34.0625 16.5625 34.0625 18.0078C34.0625 21.3982 32.3879 24.3101 29.5869 25.7509L17.672 13.8261C17.6962 13.7617 17.7247 13.6973 17.7539 13.6328C17.9688 13.0469 18.6719 12.9688 19.1016 13.4375L22.1484 16.543L24.7656 13.1836C25.1172 12.6758 25.7422 12.6758 26.0938 13.1836Z" fill="black" fill-opacity="0.85"/>
 </g>
</svg>
