<?xml version="1.0" encoding="UTF-8"?>
<!--Generator: Apple Native CoreSVG 326-->
<!DOCTYPE svg
PUBLIC "-//W3C//DTD SVG 1.1//EN"
       "http://www.w3.org/Graphics/SVG/1.1/DTD/svg11.dtd">
<svg version="1.1" xmlns="http://www.w3.org/2000/svg" xmlns:xlink="http://www.w3.org/1999/xlink" viewBox="0 0 59.5508 45.918">
 <g>
  <rect height="45.918" opacity="0" width="59.5508" x="0" y="0"/>
  <path d="M7.59766 45.918L28.0664 45.918L28.0664 42.4609L7.67578 42.4609C4.94141 42.4609 3.45703 41.0156 3.45703 38.2031L3.45703 24.5117L0 24.5117L0 38.3984C0 43.3984 2.55859 45.918 7.59766 45.918ZM31.1719 45.918L51.5625 45.918C56.6211 45.918 59.1797 43.3594 59.1797 38.3984L59.1797 24.5117L55.7031 24.5117L55.7031 38.2031C55.7031 41.0156 54.1797 42.4609 51.5039 42.4609L31.1719 42.4609ZM55.7031 21.4062L59.1797 21.4062L59.1797 7.53906C59.1797 2.55859 56.6211 0 51.5625 0L31.1719 0L31.1719 3.45703L51.5039 3.45703C54.1797 3.45703 55.7031 4.92188 55.7031 7.71484ZM0 21.4062L3.45703 21.4062L3.45703 7.71484C3.45703 4.92188 4.94141 3.45703 7.67578 3.45703L28.0664 3.45703L28.0664 0L7.59766 0C2.55859 0 0 2.53906 0 7.53906Z" fill="black" fill-opacity="0.85"/>
  <path d="M29.1406 28.1055C30.2344 28.1055 30.8789 27.4219 30.8789 26.543C30.8789 26.4062 30.8789 26.25 30.8789 26.1133C30.8789 24.6484 31.6797 23.75 33.4961 22.5195C35.9961 20.8594 37.5586 19.3945 37.5586 16.543C37.5586 12.6172 34.043 10.3711 29.8633 10.3711C25.6445 10.3711 22.8906 12.4805 22.2852 14.8633C22.168 15.2539 22.1094 15.625 22.1094 16.0352C22.1094 17.0117 22.8516 17.5586 23.5938 17.5586C24.3555 17.5586 24.8438 17.1875 25.2148 16.6211L25.5664 16.0938C26.25 14.4727 27.7539 13.3203 29.7266 13.3203C32.2266 13.3203 33.8086 14.707 33.8086 16.7188C33.8086 18.4375 32.8125 19.3359 30.5273 20.918C28.6523 22.2266 27.4219 23.5547 27.4219 25.918C27.4219 26.0742 27.4219 26.2305 27.4219 26.3867C27.4219 27.5195 28.0469 28.1055 29.1406 28.1055ZM29.1016 35.4297C30.4297 35.4297 31.582 34.3555 31.582 33.0273C31.582 31.6797 30.4492 30.625 29.1016 30.625C27.7344 30.625 26.6211 31.6992 26.6211 33.0273C26.6211 34.3359 27.7539 35.4297 29.1016 35.4297Z" fill="black" fill-opacity="0.85"/>
 </g>
</svg>
