<?xml version="1.0" encoding="UTF-8"?>
<!--Generator: Apple Native CoreSVG 326-->
<!DOCTYPE svg
PUBLIC "-//W3C//DTD SVG 1.1//EN"
       "http://www.w3.org/Graphics/SVG/1.1/DTD/svg11.dtd">
<svg version="1.1" xmlns="http://www.w3.org/2000/svg" xmlns:xlink="http://www.w3.org/1999/xlink" viewBox="0 0 51.25 50.918">
 <g>
  <rect height="50.918" opacity="0" width="51.25" x="0" y="0"/>
  <path d="M50.8789 25.4492C50.8789 39.4531 39.4531 50.8789 25.4297 50.8789C11.4258 50.8789 0 39.4531 0 25.4492C0 11.4258 11.4258 0 25.4297 0C39.4531 0 50.8789 11.4258 50.8789 25.4492ZM24.4336 40.5664C24.4336 41.1133 24.8633 41.5234 25.4102 41.5234C28.8058 41.5234 32.0665 40.4728 34.7433 38.6691L29.7794 33.7051C28.3573 34.9876 27.2227 36.5421 26.4258 38.2617L26.4258 30.3516L24.4336 28.3594ZM10.1758 31.1914C12.0117 36.582 17.1875 40.5469 23.1445 41.3086C23.0469 41.0938 22.9883 40.8203 22.9883 40.5664L22.9883 36.0156C20.4883 32.4023 16.2305 29.9414 11.0156 29.9414C10.1953 29.9414 9.92188 30.4688 10.1758 31.1914ZM12.5586 12.5586C12.1484 12.9883 12.168 13.6719 12.5586 14.0625L36.8164 38.3203C37.207 38.7109 37.9102 38.7305 38.3203 38.3203C38.7305 37.8711 38.7305 37.2266 38.3203 36.8164L14.082 12.5586C13.6719 12.1484 13.0078 12.1484 12.5586 12.5586ZM34.7272 30.7819L38.7424 34.7971C39.5435 33.6979 40.1796 32.4859 40.625 31.1914C40.8984 30.4688 40.6055 29.9414 39.8047 29.9414C37.9808 29.9414 36.2769 30.2371 34.7272 30.7819ZM22.2593 26.185L17.0815 21.0072C17.9303 23.4285 19.755 25.3275 22.2593 26.185ZM24.7266 12.8516L22.0703 16.2891L18.9648 13.125C18.5156 12.6172 17.7734 12.7148 17.5586 13.3008C17.5263 13.3748 17.4948 13.4488 17.4675 13.5222L29.6742 25.7289C32.5537 24.2582 34.2773 21.2781 34.2773 17.793C34.2773 16.3086 33.9648 14.8242 33.3008 13.3008C33.0469 12.7148 32.3242 12.6172 31.875 13.125L28.7695 16.2891L26.1133 12.8516C25.7617 12.3242 25.1172 12.3242 24.7266 12.8516Z" fill="black" fill-opacity="0.85"/>
 </g>
</svg>
