<?xml version="1.0" encoding="UTF-8"?>
<!--Generator: Apple Native CoreSVG 326-->
<!DOCTYPE svg
PUBLIC "-//W3C//DTD SVG 1.1//EN"
       "http://www.w3.org/Graphics/SVG/1.1/DTD/svg11.dtd">
<svg version="1.1" xmlns="http://www.w3.org/2000/svg" xmlns:xlink="http://www.w3.org/1999/xlink" viewBox="0 0 48.6236 64.4727">
 <g>
  <rect height="64.4727" opacity="0" width="48.6236" x="0" y="0"/>
  <path d="M6.15751 58.2812C9.98564 62.1289 14.9075 64.4531 20.22 64.4531C21.3333 64.4531 22.0755 63.7305 22.0755 62.7344C22.056 61.8164 21.3333 61.1914 20.1028 61.1133C15.8255 60.918 11.6849 59.1797 8.4622 55.9766C5.25908 52.7539 3.52079 48.6328 3.32548 44.3359C3.22783 42.9688 2.64189 42.4219 1.5872 42.4219C0.747357 42.4023-0.0729552 43.0273 0.00516975 44.1992C0.259076 49.5312 2.32939 54.4531 6.15751 58.2812Z" fill="black" fill-opacity="0.85"/>
  <path d="M12.3489 52.0898C14.8294 54.5703 18.1888 55.8398 20.5325 55.8398C21.5481 55.8398 22.2513 55.1758 22.2317 54.2578C22.2317 53.3398 21.6263 52.6953 20.2786 52.5195C18.2474 52.3633 16.3138 51.4453 14.6536 49.8047C13.013 48.1445 12.1145 46.1914 11.8997 43.9844C11.7239 42.7734 11.2747 42.2461 10.2005 42.2461C9.24345 42.2266 8.50126 42.9688 8.63798 44.1406C8.89189 47.168 10.1614 49.9219 12.3489 52.0898Z" fill="black" fill-opacity="0.85"/>
  <path d="M31.431 49.1406C40.7669 49.1406 45.1419 46.9531 45.1419 41.5625L45.1419 8.84766C45.1419 3.26172 39.9856 0 31.431 0C22.8177 0 17.681 3.26172 17.681 8.84766L17.681 41.5625C17.681 46.9531 22.0755 49.1406 31.431 49.1406ZM31.4114 20.5469C29.6536 20.5469 26.5872 20.7227 25.5911 20.7227C24.0286 20.7227 23.3255 20.0781 23.1692 18.418L22.8567 14.9219C22.6224 11.9531 24.4192 10.7617 31.4114 10.7617C38.3841 10.7617 40.181 11.9531 39.9466 14.9219L39.6145 18.418C39.4778 20.0781 38.7552 20.7227 37.2122 20.7227C36.2161 20.7227 33.345 20.5469 31.4114 20.5469ZM31.4114 41.582C24.6536 41.582 22.5442 40.5859 22.9739 37.5391L23.2083 35.7812C23.5794 33.3398 25.4935 32.5586 31.4114 32.5586C37.3099 32.5586 39.2239 33.3398 39.5755 35.7812L39.8294 37.5391C40.2591 40.5859 38.1497 41.582 31.4114 41.582ZM43.2669 19.2383L46.1966 19.2383C47.3685 19.2383 48.2474 18.3984 48.2474 17.3242L48.2474 16.3281C48.2474 15.2344 47.3685 14.3945 46.1966 14.3945L43.2669 14.3945ZM19.5364 19.2383L19.5364 14.3945L16.6067 14.3945C15.4349 14.3945 14.556 15.2344 14.556 16.3281L14.556 17.3242C14.556 18.3984 15.4349 19.2383 16.6067 19.2383Z" fill="black" fill-opacity="0.85"/>
 </g>
</svg>
