<?xml version="1.0" encoding="UTF-8"?>
<!--Generator: Apple Native CoreSVG 326-->
<!DOCTYPE svg
PUBLIC "-//W3C//DTD SVG 1.1//EN"
       "http://www.w3.org/Graphics/SVG/1.1/DTD/svg11.dtd">
<svg version="1.1" xmlns="http://www.w3.org/2000/svg" xmlns:xlink="http://www.w3.org/1999/xlink" viewBox="0 0 51.25 50.918">
 <g>
  <rect height="50.918" opacity="0" width="51.25" x="0" y="0"/>
  <path d="M25.4297 50.8789C39.4727 50.8789 50.8789 39.4922 50.8789 25.4492C50.8789 11.4062 39.4727 0 25.4297 0C11.3867 0 0 11.4062 0 25.4492C0 39.4922 11.3867 50.8789 25.4297 50.8789ZM25.4297 47.2461C13.3789 47.2461 3.63281 37.5 3.63281 25.4492C3.63281 13.3984 13.3789 3.65234 25.4297 3.65234C37.4805 3.65234 47.2266 13.3984 47.2266 25.4492C47.2266 37.5 37.4805 47.2461 25.4297 47.2461Z" fill="black" fill-opacity="0.85"/>
  <path d="M11.5039 33.9844C11.5039 34.8438 12.1875 35.5273 13.0469 35.5273L14.4531 35.5273C15.3125 35.5273 15.9961 34.8438 15.9961 33.9844L15.9961 32.0312C18.6328 32.1875 22.4219 32.3047 25.4297 32.3047C28.457 32.3047 32.2266 32.1875 34.8633 32.0312L34.8633 33.9844C34.8633 34.8438 35.5469 35.5273 36.4062 35.5273L37.793 35.5273C38.6719 35.5273 39.3555 34.8438 39.3555 33.9844L39.3555 27.2656C39.3555 25.2344 38.9062 24.1406 37.8516 22.793L36.8555 21.4648C36.3867 19.2969 35.6055 17.0508 35.2148 16.1719C34.5703 14.8438 33.3594 14.1016 31.8359 13.9062C31.0352 13.8086 28.3984 13.7305 25.4297 13.7305C22.4609 13.7305 19.8242 13.8086 19.0234 13.9062C17.5 14.082 16.2891 14.8438 15.6445 16.1719C15.2539 17.0508 14.4531 19.2969 14.0234 21.4648L13.0078 22.793C11.9531 24.1406 11.5039 25.2344 11.5039 27.2656ZM16.7578 20.4102C17.0703 19.043 17.5781 17.5 17.9492 16.875C18.2812 16.3086 18.6523 16.0156 19.3555 15.9375C20.2148 15.8008 22.1875 15.7617 25.4297 15.7617C28.6719 15.7617 30.6445 15.7812 31.5039 15.9375C32.207 16.0156 32.5781 16.3086 32.9102 16.875C33.3008 17.4805 33.8086 19.043 34.1016 20.4102C34.1992 20.7812 34.043 20.957 33.6133 20.9375C31.6992 20.7812 29.5117 20.6836 25.4297 20.6836C21.3477 20.6836 19.1602 20.7812 17.2461 20.9375C16.8164 20.957 16.6797 20.7812 16.7578 20.4102ZM15.0195 27.2656C15.0195 26.2305 15.8203 25.4492 16.8359 25.4492C17.8516 25.4492 18.6523 26.2305 18.6523 27.2656C18.6523 28.3008 17.8516 29.0625 16.8359 29.0625C15.8203 29.0625 15.0195 28.3008 15.0195 27.2656ZM21.0547 27.4023C21.0547 26.6211 21.582 26.0938 22.3438 26.0938L28.4961 26.0938C29.2773 26.0938 29.8047 26.6211 29.8047 27.4023C29.8047 28.1641 29.2773 28.6914 28.4961 28.6914L22.3438 28.6914C21.582 28.6914 21.0547 28.1641 21.0547 27.4023ZM32.207 27.2656C32.207 26.2305 33.0078 25.4492 34.0234 25.4492C35.0391 25.4492 35.8398 26.2305 35.8398 27.2656C35.8398 28.3008 35.0391 29.0625 34.0234 29.0625C33.0078 29.0625 32.207 28.3008 32.207 27.2656Z" fill="black" fill-opacity="0.85"/>
 </g>
</svg>
