<?xml version="1.0" encoding="UTF-8"?>
<!--Generator: Apple Native CoreSVG 326-->
<!DOCTYPE svg
PUBLIC "-//W3C//DTD SVG 1.1//EN"
       "http://www.w3.org/Graphics/SVG/1.1/DTD/svg11.dtd">
<svg version="1.1" xmlns="http://www.w3.org/2000/svg" xmlns:xlink="http://www.w3.org/1999/xlink" viewBox="0 0 81.2963 61.183">
 <g>
  <rect height="61.183" opacity="0" width="81.2963" x="0" y="0"/>
  <path d="M16.8005 19.4489L17.9333 20.113C18.1482 19.527 18.3825 18.9411 18.7146 18.3942C21.0192 14.3708 26.0192 13.0427 30.0427 15.3669C34.0857 17.6911 35.4138 22.6716 33.1091 26.695C32.7771 27.2614 32.406 27.7497 31.9763 28.2184L53.0896 40.4059C53.3044 39.82 53.5388 39.2536 53.8708 38.6872C56.1755 34.6638 61.1755 33.3356 65.1989 35.6599C69.2419 37.9841 70.57 42.9841 68.2458 46.988C67.9333 47.5544 67.5427 48.0427 67.1325 48.5114L68.2849 49.1755C71.9763 51.3239 74.7107 50.5036 76.9567 46.5974L79.7888 41.7145C81.6247 38.5309 81.2341 35.7184 78.5778 32.7497L76.2927 30.1716C74.32 24.8395 71.6247 18.7458 65.0036 14.9372L62.4646 13.4724C55.3942 9.39032 51.8982 8.3161 46.0974 8.53094L36.3513 8.88251L27.8552 5.28876C22.8161 3.15985 18.3044 4.40985 15.9802 8.41376L14.6521 10.738C12.4255 14.5856 13.1286 17.3395 16.8005 19.4489ZM22.8552 27.8278C25.8239 29.5466 29.4763 28.57 31.195 25.6013C32.8942 22.652 31.9177 18.9802 28.9489 17.2614C25.9802 15.5622 22.3278 16.5388 20.6091 19.488C18.9099 22.4567 19.8864 26.1091 22.8552 27.8278ZM58.0114 48.1208C60.9802 49.8395 64.6325 48.863 66.3513 45.8942C68.0505 42.945 67.0739 39.2731 64.1052 37.5739C61.1364 35.8552 57.4841 36.8317 55.7653 39.7809C54.0661 42.7497 55.0427 46.4216 58.0114 48.1208Z" fill="black" fill-opacity="0.85"/>
  <path d="M8.10909 10.9528L13.1091 2.30048C13.8903 0.952819 12.8357-0.219056 11.4489 0.0348507L3.6169 1.28485C2.58175 1.4411 2.113 2.26141 2.48409 3.25751L5.31612 10.6403C5.78487 11.988 7.32784 12.3005 8.10909 10.9528ZM0.237997 21.2458C-0.250284 22.1052 0.0426845 23.1599 0.843466 23.6286L65.3161 60.8747C66.0974 61.3434 67.1716 61.07 67.6403 60.2692C68.1286 59.3903 67.8161 58.3356 67.0349 57.8669L2.56222 20.6208C1.78097 20.1716 0.706747 20.445 0.237997 21.2458Z" fill="black" fill-opacity="0.85"/>
 </g>
</svg>
