<?xml version="1.0" encoding="UTF-8"?>
<!--Generator: Apple Native CoreSVG 326-->
<!DOCTYPE svg
PUBLIC "-//W3C//DTD SVG 1.1//EN"
       "http://www.w3.org/Graphics/SVG/1.1/DTD/svg11.dtd">
<svg version="1.1" xmlns="http://www.w3.org/2000/svg" xmlns:xlink="http://www.w3.org/1999/xlink" viewBox="0 0 67.7148 57.8868">
 <g>
  <rect height="57.8868" opacity="0" width="67.7148" x="0" y="0"/>
  <path d="M67.3438 25.9844L67.3438 22.3907C66.3672 22.879 65.3906 23.4063 64.375 24.0704L55.1562 29.8516L44.9805 31.1016C38.9258 31.8438 35.2539 35.5743 35.2539 40.7305L35.2539 43.7188C35.2539 48.6797 37.4609 50.9258 42.207 50.9258L45.4297 50.9258L45.4297 47.8204L42.207 47.8204C39.5898 47.8204 38.3789 46.4922 38.3789 43.6016L38.3789 40.7305C38.3789 37.293 40.957 34.7149 45.3711 34.168L54.5117 33.0743C55.9375 32.8985 56.7383 32.6055 57.6562 32.0391L66.0547 26.7461C66.4844 26.4727 66.9141 26.2188 67.3438 25.9844ZM67.3438 50.9258L67.3438 47.8204L57.4609 47.8204L57.4609 50.9258ZM51.6406 55.8282C56.0156 55.8282 59.4336 52.4102 59.4336 48.0352C59.4336 43.6797 56.0156 40.2618 51.6406 40.2618C47.2656 40.2618 43.8672 43.6797 43.8672 48.0352C43.8672 52.4102 47.2656 55.8282 51.6406 55.8282ZM51.6406 52.879C48.9453 52.879 46.7969 50.75 46.7969 48.0352C46.7969 45.3399 48.9453 43.211 51.6406 43.211C54.3555 43.211 56.5039 45.3399 56.5039 48.0352C56.5039 50.75 54.3555 52.879 51.6406 52.879ZM13.4375 55.8282C17.8125 55.8282 21.2109 52.4102 21.2109 48.0352C21.2109 43.6797 17.8125 40.2618 13.4375 40.2618C9.0625 40.2618 5.64453 43.6797 5.64453 48.0352C5.64453 52.4102 9.0625 55.8282 13.4375 55.8282ZM13.4375 52.879C10.7227 52.879 8.57422 50.75 8.57422 48.0352C8.57422 45.3399 10.7227 43.211 13.4375 43.211C16.1328 43.211 18.2812 45.3399 18.2812 48.0352C18.2812 50.75 16.1328 52.879 13.4375 52.879ZM0 47.8204L0 50.9258L7.87109 50.9258L7.87109 47.8204ZM19.6094 50.9258L22.8711 50.9258C27.6562 50.9258 29.8047 48.6602 29.8047 43.6016L29.8047 37.3125C29.8047 33.2305 27.8906 30.6915 23.6523 29.3438L20.0195 28.1915C14.9414 23.8555 9.19922 19.7344 1.42578 19.7344L0 19.7344L0 22.8594L1.42578 22.8594C7.1875 22.8594 11.7969 25.2422 17.4609 30.2227C18.4766 31.1016 18.9844 31.3165 20.1953 31.6875L22.7344 32.5079C25.4883 33.3868 26.6992 34.793 26.6992 37.3125L26.6992 43.6016C26.6992 46.4922 25.4883 47.8204 22.8711 47.8204L19.6094 47.8204Z" fill="black" fill-opacity="0.85"/>
  <path d="M36.3281 1.45317L35.2734 5.88677L29.7461 0.222706C29.2773-0.265575 28.6523 0.105518 28.8867 0.789112L30.8398 6.58989L28.2812 5.43755C27.6758 5.16411 27.2266 5.61333 27.6758 6.2188L29.082 8.05474L22.4805 7.13677C21.6992 7.01958 21.4648 7.80083 22.1094 8.17192L28.3398 11.961L24.6289 13.3282C23.9453 13.5821 24.043 14.3438 24.7656 14.4024L28.9062 14.6954L23.2812 18.504C22.6953 18.9141 22.9492 19.754 23.7305 19.5586L30.8984 17.9375L30.9961 24.0118C30.9961 24.6368 31.6406 24.6954 31.9141 24.2657L36.5039 16.668L44.2773 23.6407C44.8828 24.168 45.5859 23.6211 45.2148 22.8985L40.625 14.3047L45.3125 12.918C45.7031 12.7813 45.7031 12.2344 45.3125 12.0782L41.1719 10.379L44.1602 1.92192C44.3555 1.35552 43.7891 0.886768 43.3203 1.37505L38.4766 5.92583L37.3047 1.45317C37.1484 0.828175 36.4844 0.789112 36.3281 1.45317Z" fill="black" fill-opacity="0.85"/>
 </g>
</svg>
