<?xml version="1.0" encoding="UTF-8"?>
<!--Generator: Apple Native CoreSVG 326-->
<!DOCTYPE svg
PUBLIC "-//W3C//DTD SVG 1.1//EN"
       "http://www.w3.org/Graphics/SVG/1.1/DTD/svg11.dtd">
<svg version="1.1" xmlns="http://www.w3.org/2000/svg" xmlns:xlink="http://www.w3.org/1999/xlink" viewBox="0 0 57.4848 59.3945">
 <g>
  <rect height="59.3945" opacity="0" width="57.4848" x="0" y="0"/>
  <path d="M3.84983 59.0625L3.98655 59.0625C11.6233 59.0625 12.2873 53.9453 16.5842 53.9453C20.7834 53.9453 21.8772 59.0625 28.5569 59.0625C35.2365 59.0625 36.3108 53.9453 40.5295 53.9453C44.8264 53.9453 45.4905 59.0625 53.1272 59.0625L53.2639 59.0625C54.1037 59.0625 54.7873 58.3789 54.7873 57.5391C54.7873 56.6797 54.1037 55.9961 53.2639 55.9961L53.1272 55.9961C50.3342 55.9961 48.7522 54.8242 46.8576 53.4961C45.217 52.3047 43.2444 50.8789 40.5295 50.8789C37.717 50.8789 35.7053 52.3828 34.0647 53.6133C32.3264 54.9219 30.9006 55.9961 28.5569 55.9961C26.2131 55.9961 24.7873 54.9219 23.049 53.6133C21.4084 52.3828 19.3967 50.8789 16.5842 50.8789C13.8694 50.8789 11.8967 52.3047 10.2561 53.4961C8.36155 54.8242 6.77952 55.9961 3.98655 55.9961L3.84983 55.9961C3.00998 55.9961 2.32639 56.6797 2.32639 57.5391C2.32639 58.3789 3.00998 59.0625 3.84983 59.0625ZM0.959204 43.2617L7.28733 51.7578C7.65842 51.5234 8.02952 51.25 8.43967 50.957C11.0373 49.0625 13.4592 47.7734 16.5842 47.7734C19.8264 47.7734 22.2483 49.1406 24.9045 51.1133C26.6819 52.4609 27.3264 52.8906 28.5569 52.8906C29.7483 52.8906 30.3928 52.4609 31.9358 51.3086C34.7287 49.1797 37.2092 47.7734 40.5295 47.7734C43.6545 47.7734 46.0569 49.0625 48.674 50.957C49.0842 51.25 49.4553 51.5234 49.8069 51.7578L56.135 43.2617C58.1858 40.5664 56.8772 37.3828 53.303 37.3828L3.81077 37.3828C0.236547 37.3828-1.07205 40.5859 0.959204 43.2617ZM14.1819 10.625C14.6701 8.41797 15.5686 5.83984 16.174 4.78516C16.7014 3.86719 17.3264 3.39844 18.4592 3.26172C19.885 3.06641 23.1076 2.94922 28.5569 2.94922C34.0061 2.94922 37.2287 3.02734 38.674 3.26172C39.8069 3.41797 40.4123 3.86719 40.9397 4.78516C41.5647 5.83984 42.4045 8.41797 42.9319 10.625C43.0881 11.25 42.8342 11.543 42.1115 11.5039C38.967 11.2891 35.3342 11.1133 28.5569 11.1133C21.799 11.1133 18.1662 11.2891 15.0022 11.5039C14.299 11.543 14.0451 11.25 14.1819 10.625ZM15.1194 24.043C13.4983 24.043 12.2678 22.832 12.2678 21.2109C12.2678 19.5898 13.4983 18.3789 15.1194 18.3789C16.7209 18.3789 17.9514 19.5898 17.9514 21.2109C17.9514 22.832 16.7209 24.043 15.1194 24.043ZM23.7326 23.4375C22.5217 23.4375 21.7014 22.6172 21.7014 21.4062C21.7014 20.1953 22.5217 19.375 23.7326 19.375L33.4006 19.375C34.592 19.375 35.4319 20.1953 35.4319 21.4062C35.4319 22.6172 34.592 23.4375 33.4006 23.4375ZM42.0139 24.043C40.3928 24.043 39.1819 22.832 39.1819 21.2109C39.1819 19.5898 40.3928 18.3789 42.0139 18.3789C43.635 18.3789 44.8459 19.5898 44.8459 21.2109C44.8459 22.832 43.635 24.043 42.0139 24.043ZM28.5569 29.1211C34.7483 29.1211 43.049 28.8086 46.5842 28.3984C48.9865 28.125 50.3733 26.8359 50.3733 24.4922L50.3733 21.2109C50.3733 18.0273 49.6701 16.3086 48.0295 14.1797L46.4475 12.1094C45.7639 8.76953 44.5139 5.23438 43.8694 3.84766C42.8928 1.75781 40.9592 0.585938 38.5959 0.273438C37.3459 0.0976562 33.2053 0 28.5569 0C23.9084 0 19.7678 0.117188 18.5178 0.273438C16.1545 0.566406 14.2405 1.75781 13.2444 3.84766C12.5998 5.23438 11.3694 8.76953 10.6858 12.1094L9.0842 14.1797C7.44358 16.3086 6.75998 18.0273 6.75998 21.2109L6.75998 24.4922C6.75998 26.8359 8.12717 28.125 10.549 28.3984C14.0647 28.8086 22.385 29.1211 28.5569 29.1211ZM9.18186 34.1602L11.3498 34.1602C12.717 34.1602 13.7717 33.1055 13.7717 31.7578L13.7717 27.1875L6.75998 23.8281L6.75998 31.7578C6.75998 33.1055 7.81467 34.1602 9.18186 34.1602ZM45.7834 34.1602L47.9319 34.1602C49.299 34.1602 50.3733 33.1055 50.3733 31.7578L50.3733 23.8281L43.342 27.1875L43.342 31.7578C43.342 33.1055 44.3967 34.1602 45.7834 34.1602Z" fill="black" fill-opacity="0.85"/>
 </g>
</svg>
