<?xml version="1.0" encoding="UTF-8"?>
<!--Generator: Apple Native CoreSVG 326-->
<!DOCTYPE svg
PUBLIC "-//W3C//DTD SVG 1.1//EN"
       "http://www.w3.org/Graphics/SVG/1.1/DTD/svg11.dtd">
<svg version="1.1" xmlns="http://www.w3.org/2000/svg" xmlns:xlink="http://www.w3.org/1999/xlink" viewBox="0 0 55.8466 52.5977">
 <g>
  <rect height="52.5977" opacity="0" width="55.8466" x="0" y="0"/>
  <path d="M55.0815 42.1484C57.0346 34.9023 51.7807 31.7773 38.812 31.7773C32.269 31.7773 25.5893 32.4023 20.355 33.4961L21.1557 34.5703C22.4839 23.3789 18.9487 13.8867 11.5854 10.0391L12.2104 12.6562C14.7885 4.6875 9.8862 0 5.33542 0C1.89792 0-1.07083 2.63672 0.374482 8.47656L9.82761 46.9141C10.726 50.5664 13.187 52.5781 16.7807 52.5781L45.5698 52.5781C50.5698 52.5781 52.9721 50.1367 55.0815 42.1484Z" fill="black" fill-opacity="0.85"/>
  <path d="M28.7339 16.7773C28.7339 20.4297 32.0346 24.1016 35.1987 24.1016C38.0112 24.1016 39.4956 21.6406 41.019 17.1094L41.7612 16.9922L41.7612 21.9531C41.7612 24.0039 42.8159 25.0391 44.8081 25.0391C48.4409 25.0391 52.1128 21.7578 52.1128 18.5742C52.1128 15.7422 49.6518 14.2969 45.101 12.7539L45.0034 12.0117L49.9643 12.0117C52.0151 12.0117 53.0503 10.957 53.0503 8.98438C53.0503 5.3125 49.769 1.64062 46.5854 1.64062C43.7534 1.64062 42.2885 4.12109 40.7651 8.69141L40.0229 8.76953L40.0229 3.80859C40.0229 1.77734 38.9878 0.703125 36.9956 0.703125C33.3237 0.703125 29.6518 4.00391 29.6518 7.1875C29.6518 10 32.1518 11.4648 36.7026 12.9883L36.7612 13.75L31.8393 13.75C29.7885 13.75 28.7339 14.8047 28.7339 16.7773ZM40.8823 15.4102C39.4956 15.4102 38.3432 14.2773 38.3432 12.8711C38.3432 11.4844 39.4956 10.3516 40.8823 10.3516C42.2885 10.3516 43.4214 11.4844 43.4214 12.8711C43.4214 14.2773 42.2885 15.4102 40.8823 15.4102Z" fill="black" fill-opacity="0.85"/>
 </g>
</svg>
