<?xml version="1.0" encoding="UTF-8"?>
<!--Generator: Apple Native CoreSVG 326-->
<!DOCTYPE svg
PUBLIC "-//W3C//DTD SVG 1.1//EN"
       "http://www.w3.org/Graphics/SVG/1.1/DTD/svg11.dtd">
<svg version="1.1" xmlns="http://www.w3.org/2000/svg" xmlns:xlink="http://www.w3.org/1999/xlink" viewBox="0 0 56.2092 52.6367">
 <g>
  <rect height="52.6367" opacity="0" width="56.2092" x="0" y="0"/>
  <path d="M0.389771 42.168C2.49915 50.1562 4.90149 52.5977 9.90149 52.5977L39.1007 52.5977C42.6945 52.5977 45.1554 50.5859 46.0343 46.9336L55.507 8.49609C56.8156 3.20312 54.257 0 49.8038 0C44.3937 0 39.8429 5.07812 41.8937 12.6367L42.3234 10.5469C36.3273 14.5508 33.0656 23.7891 33.9249 34.5703L34.921 33.3008C29.4523 32.3242 23.046 31.7969 16.6788 31.7969C3.69055 31.7969-1.54382 34.9219 0.389771 42.168ZM3.71008 41.25C2.57727 36.9727 5.7804 35.2539 16.6788 35.2539C25.1163 35.2539 31.5812 36.3477 34.8429 36.6797C36.2296 36.7578 37.1085 35.8789 37.089 34.4727C36.757 24.9023 39.4523 16.7578 44.1984 13.4375C45.0577 12.7734 45.1945 12.3242 44.9796 10.8594C44.3156 6.01562 46.9327 3.45703 49.7843 3.45703C51.6984 3.45703 52.8312 4.98047 52.1866 7.63672L42.6749 46.0938C42.2062 48.0469 40.9366 49.1211 39.1007 49.1211L9.90149 49.1211C6.93274 49.1211 5.50696 48.0469 3.71008 41.25Z" fill="black" fill-opacity="0.85"/>
  <path d="M14.0421 23.3594C15.0577 23.3594 15.6632 22.7148 15.6632 21.582L15.6632 3.53516C15.6632 2.36328 15.0187 1.73828 13.9445 1.73828C13.1632 1.73828 12.6945 1.95312 11.8156 2.53906L7.30383 5.54688C6.83508 5.87891 6.67883 6.19141 6.67883 6.67969C6.67883 7.32422 7.20618 7.89062 7.83118 7.89062C8.12415 7.89062 8.33899 7.8125 8.86633 7.46094L12.2648 5.25391L12.4796 5.25391L12.4796 21.582C12.4796 22.6953 13.0851 23.3594 14.0421 23.3594Z" fill="black" fill-opacity="0.85"/>
 </g>
</svg>
