<?xml version="1.0" encoding="UTF-8"?>
<!--Generator: Apple Native CoreSVG 326-->
<!DOCTYPE svg
PUBLIC "-//W3C//DTD SVG 1.1//EN"
       "http://www.w3.org/Graphics/SVG/1.1/DTD/svg11.dtd">
<svg version="1.1" xmlns="http://www.w3.org/2000/svg" xmlns:xlink="http://www.w3.org/1999/xlink" viewBox="0 0 46.2891 45.918">
 <g>
  <rect height="45.918" opacity="0" width="46.2891" x="0" y="0"/>
  <path d="M45.918 7.53906L45.918 38.3984C45.918 43.3594 43.3594 45.918 38.3008 45.918L7.59766 45.918C2.55859 45.918 0 43.3984 0 38.3984L0 7.53906C0 2.53906 2.55859 0 7.59766 0L38.3008 0C43.3594 0 45.918 2.55859 45.918 7.53906ZM22.1875 9.58984L22.1875 11.7188C16.6211 12.168 13.4766 16.7188 13.4766 22.7344C13.4766 28.6914 16.4648 33.3594 22.1875 33.8281L22.1875 36.0547C22.1875 36.4844 22.5195 36.8164 22.9688 36.8164C23.418 36.8164 23.7305 36.5039 23.7305 36.0547L23.7305 33.8672C27.2266 33.7109 30.3516 32.0508 31.4453 28.8867C31.6016 28.4961 31.6602 28.1445 31.6602 27.7148C31.6602 26.9922 31.1914 26.543 30.4688 26.543C29.7852 26.543 29.4141 26.9141 29.1992 27.5781C28.5352 29.9023 26.3672 31.3477 23.7305 31.543L23.7305 14.0039C26.2891 14.2188 28.457 15.8789 29.043 18.0469C29.2773 18.7109 29.5898 19.082 30.3125 19.082C31.0156 19.082 31.5039 18.6328 31.5039 17.8711C31.5039 17.3633 31.3672 16.9336 31.1914 16.4844C29.9609 13.5547 27.0312 11.8359 23.7305 11.6797L23.7305 9.58984C23.7305 9.14062 23.418 8.80859 22.9688 8.80859C22.5195 8.80859 22.1875 9.14062 22.1875 9.58984ZM22.1875 31.4844C18.0664 30.957 16.1914 27.0898 16.1914 22.7344C16.1914 18.3789 18.1641 14.5703 22.1875 14.0625Z" fill="black" fill-opacity="0.85"/>
 </g>
</svg>
