<?xml version="1.0" encoding="UTF-8"?>
<!--Generator: Apple Native CoreSVG 326-->
<!DOCTYPE svg
PUBLIC "-//W3C//DTD SVG 1.1//EN"
       "http://www.w3.org/Graphics/SVG/1.1/DTD/svg11.dtd">
<svg version="1.1" xmlns="http://www.w3.org/2000/svg" xmlns:xlink="http://www.w3.org/1999/xlink" viewBox="0 0 30.1758 46.7773">
 <g>
  <rect height="46.7773" opacity="0" width="30.1758" x="0" y="0"/>
  <path d="M15.8398 40.8008C19.9414 40.8008 24.0039 39.5117 26.875 36.6797C28.3008 35.2344 29.8047 32.7734 29.8047 30.9961C29.8047 29.9023 29.0625 29.1797 27.9102 29.1797C27.1094 29.1797 26.4258 29.6875 26.0547 30.5078C24.4336 34.7461 20.8008 37.207 15.8594 37.207C8.02734 37.207 4.16016 31.25 4.16016 23.3789C4.16016 15.5078 8.08594 9.55078 15.8203 9.55078C20.8008 9.55078 24.3945 11.9922 26.0156 16.2305C26.3672 17.0703 27.0898 17.5977 27.9492 17.5977C29.0039 17.5977 29.7656 16.875 29.7656 15.7422C29.7656 14.0234 28.3203 11.5625 26.8359 10.0781C24.0039 7.24609 19.8633 5.95703 15.8008 5.95703C5.83984 5.95703 0 13.3008 0 23.3789C0 33.4766 5.72266 40.8008 15.8398 40.8008ZM15.6445 46.7578C16.4453 46.7578 17.0898 46.1133 17.0898 45.332L17.0898 1.42578C17.0898 0.644531 16.4453 0 15.6445 0C14.8633 0 14.2188 0.644531 14.2188 1.42578L14.2188 45.332C14.2188 46.1133 14.8633 46.7578 15.6445 46.7578Z" fill="black" fill-opacity="0.85"/>
 </g>
</svg>
