<?xml version="1.0" encoding="UTF-8"?>
<!--Generator: Apple Native CoreSVG 326-->
<!DOCTYPE svg
PUBLIC "-//W3C//DTD SVG 1.1//EN"
       "http://www.w3.org/Graphics/SVG/1.1/DTD/svg11.dtd">
<svg version="1.1" xmlns="http://www.w3.org/2000/svg" xmlns:xlink="http://www.w3.org/1999/xlink" viewBox="0 0 54.2969 46.8164">
 <g>
  <rect height="46.8164" opacity="0" width="54.2969" x="0" y="0"/>
  <path d="M31.7188 9.60938L42.5195 20.4883L46.9141 16.0742C47.6953 15.293 48.6914 15.7422 49.0039 16.8555L52.4609 31.4258C52.7148 32.4609 51.875 33.2617 50.8789 33.0078L36.3086 29.5312C35.2148 29.2383 34.7656 28.2422 35.5469 27.4609L39.9219 23.0859L29.4141 12.4414C29.1016 12.1484 28.8086 11.9727 28.5156 11.9727C28.2227 11.9727 27.9297 12.1289 27.6172 12.4414L18.0078 22.1484C16.9727 23.2227 15.918 23.7109 14.8047 23.7109C13.6914 23.7109 12.6953 23.2422 11.6016 22.1484L3.45703 13.9608L3.45703 8.79161L13.9062 19.3164C14.2188 19.6289 14.5117 19.7852 14.8047 19.7852C15.0977 19.7852 15.3906 19.6289 15.7031 19.3164L25.293 9.60938C26.3281 8.53516 27.4023 8.04688 28.5156 8.04688C29.6289 8.04688 30.6641 8.55469 31.7188 9.60938Z" fill="black" fill-opacity="0.85"/>
  <path d="M0 45C0 46.0938 0.722656 46.8164 1.81641 46.8164L52.1875 46.8164C53.125 46.8164 53.9258 46.0742 53.9258 45.0977C53.9258 44.1211 53.125 43.3789 52.1875 43.3789L4.10156 43.3789C3.61328 43.3789 3.45703 43.2227 3.45703 42.7344L3.45703 1.97266C3.45703 1.05469 2.71484 0.234375 1.73828 0.234375C0.761719 0.234375 0 1.05469 0 1.97266Z" fill="black" fill-opacity="0.85"/>
 </g>
</svg>
