<?xml version="1.0" encoding="UTF-8"?>
<!--Generator: Apple Native CoreSVG 326-->
<!DOCTYPE svg
PUBLIC "-//W3C//DTD SVG 1.1//EN"
       "http://www.w3.org/Graphics/SVG/1.1/DTD/svg11.dtd">
<svg version="1.1" xmlns="http://www.w3.org/2000/svg" xmlns:xlink="http://www.w3.org/1999/xlink" viewBox="0 0 42.3047 53.8477">
 <g>
  <rect height="53.8477" opacity="0" width="42.3047" x="0" y="0"/>
  <path d="M41.9336 7.61719L41.9336 46.25C41.9336 51.2891 39.4141 53.8477 34.4141 53.8477L7.51953 53.8477C2.51953 53.8477 0 51.2891 0 46.25L0 7.61719C0 2.57812 2.51953 0.0195312 7.51953 0.0195312L34.4141 0.0195312C39.4141 0.0195312 41.9336 2.57812 41.9336 7.61719ZM8.82812 38.0664C7.85156 38.0664 7.26562 38.7109 7.26562 39.7266L7.26562 44.1992C7.26562 45.2148 7.85156 45.8594 8.82812 45.8594L20.4102 45.8594C21.3672 45.8594 21.9727 45.2148 21.9727 44.1992L21.9727 39.7266C21.9727 38.7109 21.3672 38.0664 20.4102 38.0664ZM8.82812 28.0469C7.85156 28.0469 7.26562 28.6719 7.26562 29.6875L7.26562 34.1797C7.26562 35.1953 7.85156 35.8203 8.82812 35.8203L28.8672 35.8203C29.8438 35.8203 30.4297 35.1953 30.4297 34.1797L30.4297 29.6875C30.4297 28.6719 29.8438 28.0469 28.8672 28.0469ZM8.82812 18.0078C7.85156 18.0078 7.26562 18.6523 7.26562 19.668L7.26562 24.1406C7.26562 25.1562 7.85156 25.8008 8.82812 25.8008L33.1445 25.8008C34.1016 25.8008 34.6875 25.1562 34.6875 24.1211L34.6875 19.668C34.6875 18.6523 34.1016 18.0078 33.1445 18.0078ZM8.82812 7.98828C7.85156 7.98828 7.26562 8.61328 7.26562 9.64844L7.26562 14.1211C7.26562 15.1172 7.85156 15.7812 8.82812 15.7812L24.5703 15.7812C25.5273 15.7812 26.1328 15.1172 26.1328 14.1211L26.1328 9.64844C26.1328 8.61328 25.5273 7.98828 24.5703 7.98828Z" fill="black" fill-opacity="0.85"/>
 </g>
</svg>
