<?xml version="1.0" encoding="UTF-8"?>
<!--Generator: Apple Native CoreSVG 326-->
<!DOCTYPE svg
PUBLIC "-//W3C//DTD SVG 1.1//EN"
       "http://www.w3.org/Graphics/SVG/1.1/DTD/svg11.dtd">
<svg version="1.1" xmlns="http://www.w3.org/2000/svg" xmlns:xlink="http://www.w3.org/1999/xlink" viewBox="0 0 41.1133 50.6836">
 <g>
  <rect height="50.6836" opacity="0" width="41.1133" x="0" y="0"/>
  <path d="M22.3828 1.26953C25.7227 2.40234 34.1406 5.52734 37.4805 6.85547C39.707 7.77344 40.7422 8.63281 40.7422 11.2695L40.7422 30.2734C40.7422 39.0039 36.2305 42.4805 22.0312 50.1758C21.4258 50.4883 20.8203 50.6836 20.3711 50.6836C19.9219 50.6836 19.2969 50.5078 18.7109 50.1758C4.74609 42.0898 0 39.0039 0 30.2734L0 11.2695C0 8.63281 1.03516 7.73438 3.26172 6.85547C6.60156 5.54688 15.0195 2.40234 18.3594 1.26953C19.0234 1.07422 19.6875 0.898438 20.3711 0.898438C21.0547 0.898438 21.7188 1.05469 22.3828 1.26953ZM28.7891 14.7266L17.5 32.6953L11.875 25.6641C11.3672 24.9805 10.8789 24.7656 10.2539 24.7656C9.27734 24.7656 8.53516 25.5469 8.53516 26.5234C8.53516 27.0117 8.73047 27.5195 9.04297 27.9492L15.7031 35.9766C16.2695 36.7188 16.8555 37.0117 17.5977 37.0117C18.3203 37.0117 18.9258 36.6797 19.3945 35.9766L31.6211 16.7969C31.875 16.3672 32.1484 15.8594 32.1484 15.3906C32.1484 14.4141 31.2695 13.75 30.332 13.75C29.7461 13.75 29.1992 14.082 28.7891 14.7266Z" fill="black" fill-opacity="0.85"/>
 </g>
</svg>
