<?xml version="1.0" encoding="UTF-8"?>
<!--Generator: Apple Native CoreSVG 326-->
<!DOCTYPE svg
PUBLIC "-//W3C//DTD SVG 1.1//EN"
       "http://www.w3.org/Graphics/SVG/1.1/DTD/svg11.dtd">
<svg version="1.1" xmlns="http://www.w3.org/2000/svg" xmlns:xlink="http://www.w3.org/1999/xlink" viewBox="0 0 40.2344 44.5117">
 <g>
  <rect height="44.5117" opacity="0" width="40.2344" x="0" y="0"/>
  <path d="M35.6641 24.707C35.6641 25.8789 36.6016 26.8164 37.7539 26.8164C38.9258 26.8164 39.8633 25.8789 39.8633 24.707C39.8633 23.5547 38.9258 22.6172 37.7539 22.6172C36.6016 22.6172 35.6641 23.5547 35.6641 24.707ZM31.2109 29.1406C31.2109 30.293 32.1484 31.2305 33.3008 31.2305C34.4727 31.2305 35.3906 30.293 35.3906 29.1406C35.3906 27.9688 34.4727 27.0312 33.3008 27.0312C32.1484 27.0312 31.2109 27.9688 31.2109 29.1406ZM26.7578 33.5547C26.7578 34.7266 27.6758 35.6641 28.8477 35.6641C30 35.6641 30.9375 34.7266 30.9375 33.5547C30.9375 32.4023 30 31.4648 28.8477 31.4648C27.6758 31.4648 26.7578 32.4023 26.7578 33.5547ZM22.2852 37.9883C22.2852 39.1602 23.2227 40.0781 24.3945 40.0781C25.5469 40.0781 26.4844 39.1602 26.4844 37.9883C26.4844 36.8359 25.5469 35.8984 24.3945 35.8984C23.2227 35.8984 22.2852 36.8359 22.2852 37.9883ZM17.832 42.4219C17.832 43.5742 18.7695 44.5117 19.9219 44.5117C21.0938 44.5117 22.0312 43.5742 22.0312 42.4219C22.0312 41.25 21.0938 40.3125 19.9219 40.3125C18.7695 40.3125 17.832 41.25 17.832 42.4219ZM13.3789 37.9883C13.3789 39.1602 14.3164 40.0781 15.4688 40.0781C16.6406 40.0781 17.5586 39.1602 17.5586 37.9883C17.5586 36.8359 16.6406 35.8984 15.4688 35.8984C14.3164 35.8984 13.3789 36.8359 13.3789 37.9883ZM8.92578 33.5547C8.92578 34.7266 9.84375 35.6641 11.0156 35.6641C12.168 35.6641 13.1055 34.7266 13.1055 33.5547C13.1055 32.4023 12.168 31.4648 11.0156 31.4648C9.84375 31.4648 8.92578 32.4023 8.92578 33.5547ZM4.45312 29.1406C4.45312 30.293 5.39062 31.2305 6.5625 31.2305C7.71484 31.2305 8.65234 30.293 8.65234 29.1406C8.65234 27.9688 7.71484 27.0312 6.5625 27.0312C5.39062 27.0312 4.45312 27.9688 4.45312 29.1406ZM0 24.707C0 25.8789 0.9375 26.8164 2.08984 26.8164C3.26172 26.8164 4.19922 25.8789 4.19922 24.707C4.19922 23.5547 3.26172 22.6172 2.08984 22.6172C0.9375 22.6172 0 23.5547 0 24.707Z" fill="black" fill-opacity="0.85"/>
  <path d="M35.6641 2.1875C35.6641 3.33984 36.6016 4.27734 37.7539 4.27734C38.9258 4.27734 39.8633 3.33984 39.8633 2.1875C39.8633 1.01562 38.9258 0.078125 37.7539 0.078125C36.6016 0.078125 35.6641 1.01562 35.6641 2.1875ZM31.2109 6.60156C31.2109 7.77344 32.1484 8.71094 33.3008 8.71094C34.4727 8.71094 35.3906 7.77344 35.3906 6.60156C35.3906 5.44922 34.4727 4.51172 33.3008 4.51172C32.1484 4.51172 31.2109 5.44922 31.2109 6.60156ZM26.7578 11.0352C26.7578 12.1875 27.6758 13.125 28.8477 13.125C30 13.125 30.9375 12.1875 30.9375 11.0352C30.9375 9.86328 30 8.94531 28.8477 8.94531C27.6758 8.94531 26.7578 9.86328 26.7578 11.0352ZM22.2852 15.4492C22.2852 16.6211 23.2227 17.5586 24.3945 17.5586C25.5469 17.5586 26.4844 16.6211 26.4844 15.4492C26.4844 14.2969 25.5469 13.3594 24.3945 13.3594C23.2227 13.3594 22.2852 14.2969 22.2852 15.4492ZM17.832 19.8828C17.832 21.0547 18.7695 21.9727 19.9219 21.9727C21.0938 21.9727 22.0312 21.0547 22.0312 19.8828C22.0312 18.7305 21.0938 17.793 19.9219 17.793C18.7695 17.793 17.832 18.7305 17.832 19.8828ZM13.3789 15.4492C13.3789 16.6211 14.3164 17.5586 15.4688 17.5586C16.6406 17.5586 17.5586 16.6211 17.5586 15.4492C17.5586 14.2969 16.6406 13.3594 15.4688 13.3594C14.3164 13.3594 13.3789 14.2969 13.3789 15.4492ZM8.92578 11.0352C8.92578 12.1875 9.84375 13.125 11.0156 13.125C12.168 13.125 13.1055 12.1875 13.1055 11.0352C13.1055 9.86328 12.168 8.94531 11.0156 8.94531C9.84375 8.94531 8.92578 9.86328 8.92578 11.0352ZM4.45312 6.60156C4.45312 7.77344 5.39062 8.71094 6.5625 8.71094C7.71484 8.71094 8.65234 7.77344 8.65234 6.60156C8.65234 5.44922 7.71484 4.51172 6.5625 4.51172C5.39062 4.51172 4.45312 5.44922 4.45312 6.60156ZM0 2.1875C0 3.33984 0.9375 4.27734 2.08984 4.27734C3.26172 4.27734 4.19922 3.33984 4.19922 2.1875C4.19922 1.01562 3.26172 0.078125 2.08984 0.078125C0.9375 0.078125 0 1.01562 0 2.1875Z" fill="black" fill-opacity="0.85"/>
 </g>
</svg>
