<?xml version="1.0" encoding="UTF-8"?>
<!--Generator: Apple Native CoreSVG 326-->
<!DOCTYPE svg
PUBLIC "-//W3C//DTD SVG 1.1//EN"
       "http://www.w3.org/Graphics/SVG/1.1/DTD/svg11.dtd">
<svg version="1.1" xmlns="http://www.w3.org/2000/svg" xmlns:xlink="http://www.w3.org/1999/xlink" viewBox="0 0 69.7461 50.918">
 <g>
  <rect height="50.918" opacity="0" width="69.7461" x="0" y="0"/>
  <path d="M0 25.4688C0 24.5312 0.761719 23.75 1.67969 23.75L67.6953 23.75C68.6133 23.75 69.375 24.5312 69.375 25.4688C69.375 26.3867 68.6133 27.1875 67.6953 27.1875L1.67969 27.1875C0.761719 27.1875 0 26.3867 0 25.4688ZM34.707 50.8789C48.7109 50.8789 60.1367 39.4531 60.1367 25.4492C60.1367 11.4258 48.7109 0 34.707 0C20.6836 0 9.25781 11.4258 9.25781 25.4492C9.25781 39.4531 20.6836 50.8789 34.707 50.8789Z" fill="black" fill-opacity="0.85"/>
 </g>
</svg>
