<?xml version="1.0" encoding="UTF-8"?>
<!--Generator: Apple Native CoreSVG 326-->
<!DOCTYPE svg
PUBLIC "-//W3C//DTD SVG 1.1//EN"
       "http://www.w3.org/Graphics/SVG/1.1/DTD/svg11.dtd">
<svg version="1.1" xmlns="http://www.w3.org/2000/svg" xmlns:xlink="http://www.w3.org/1999/xlink" viewBox="0 0 51.25 50.918">
 <g>
  <rect height="50.918" opacity="0" width="51.25" x="0" y="0"/>
  <path d="M25.4297 50.8789C39.4727 50.8789 50.8789 39.4922 50.8789 25.4492C50.8789 11.4062 39.4727 0 25.4297 0C11.3867 0 0 11.4062 0 25.4492C0 39.4922 11.3867 50.8789 25.4297 50.8789ZM25.4297 47.2461C13.3789 47.2461 3.63281 37.5 3.63281 25.4492C3.63281 13.3984 13.3789 3.65234 25.4297 3.65234C37.4805 3.65234 47.2266 13.3984 47.2266 25.4492C47.2266 37.5 37.4805 47.2461 25.4297 47.2461Z" fill="black" fill-opacity="0.85"/>
  <path d="M17.7148 27.8125L32.9297 27.8125C36.8359 27.8125 39.8242 24.8242 39.8242 21.1133C39.8242 17.2852 36.6797 14.4922 32.5977 14.4922C31.0547 11.4648 28.2812 9.47266 24.7266 9.47266C20.1758 9.47266 16.4453 13.0859 16.0156 17.6367C13.8086 18.2617 12.0898 20.1367 12.0898 22.6953C12.0898 25.5078 14.1406 27.8125 17.7148 27.8125ZM19.1992 34.4727L20.7227 31.8359C20.9961 31.3672 20.8398 30.7031 20.332 30.4102C19.8438 30.1172 19.1992 30.3125 18.9258 30.8008L17.4023 33.418C17.1289 33.9062 17.2656 34.5703 17.793 34.8633C18.2812 35.1367 18.9258 34.9414 19.1992 34.4727ZM26.1328 34.4727L27.6562 31.8359C27.9297 31.3672 27.793 30.7031 27.2656 30.4102C26.7773 30.1172 26.1328 30.3125 25.8594 30.8008L24.3359 33.418C24.0625 33.9062 24.2188 34.5703 24.7266 34.8633C25.2148 35.1367 25.8594 34.9414 26.1328 34.4727ZM33.0664 34.4727L34.5898 31.8359C34.8633 31.3672 34.707 30.7031 34.1992 30.4102C33.7109 30.1172 33.0664 30.3125 32.793 30.8008L31.2695 33.418C30.9961 33.9062 31.1328 34.5703 31.6602 34.8633C32.1484 35.1367 32.793 34.9414 33.0664 34.4727ZM16.2305 40.5664C16.543 40.5664 16.8164 40.293 16.7969 39.9609L16.7383 38.8477L17.6172 39.4336C17.8711 39.6094 18.2617 39.5117 18.4375 39.2969C18.6328 39.0039 18.5742 38.5938 18.1836 38.3984L17.2461 37.9492L18.1836 37.4805C18.5352 37.2852 18.6133 36.9336 18.4766 36.6602C18.3203 36.3672 17.8906 36.3086 17.6172 36.4844L16.7383 37.0508L16.7969 35.9766C16.8164 35.6055 16.543 35.332 16.2305 35.332C15.8789 35.332 15.625 35.625 15.6445 35.9766L15.7031 37.0508L14.8047 36.4844C14.5508 36.2891 14.1602 36.3477 13.9844 36.6406C13.8477 36.875 13.8867 37.3047 14.2578 37.4805L15.1758 37.9492L14.2578 38.3984C13.8672 38.5742 13.7891 38.9648 13.9648 39.2578C14.1211 39.5703 14.5312 39.6094 14.8047 39.4336L15.7031 38.8477L15.6641 39.9609C15.6641 40.2734 15.8789 40.5664 16.2305 40.5664ZM23.1836 40.5664C23.4961 40.5664 23.7695 40.293 23.7305 39.9609L23.6914 38.8477L24.5703 39.4336C24.8242 39.6094 25.2148 39.5117 25.3711 39.2969C25.5859 39.0039 25.5273 38.5938 25.1367 38.3984L24.1992 37.9492L25.1367 37.4805C25.4883 37.2852 25.5469 36.9336 25.4102 36.6602C25.2734 36.3672 24.8438 36.3086 24.5703 36.4844L23.6914 37.0508L23.7305 35.9766C23.7695 35.6055 23.4961 35.332 23.1836 35.332C22.832 35.332 22.5781 35.625 22.5977 35.9766L22.6367 37.0508L21.7383 36.4844C21.4844 36.2891 21.0938 36.3477 20.9375 36.6406C20.8008 36.875 20.8398 37.3047 21.1914 37.4805L22.1094 37.9492L21.1914 38.3984C20.8203 38.5742 20.7227 38.9648 20.8984 39.2578C21.0742 39.5703 21.4648 39.6094 21.7383 39.4336L22.6367 38.8477L22.6172 39.9609C22.6172 40.2734 22.832 40.5664 23.1836 40.5664ZM30.0977 40.5664C30.4297 40.5664 30.6836 40.293 30.6641 39.9609L30.6055 38.8477L31.4844 39.4336C31.7578 39.6094 32.1484 39.5117 32.3047 39.2969C32.5 39.0039 32.4414 38.5742 32.0508 38.3984L31.1328 37.9492L32.0508 37.4805C32.4023 37.3047 32.4805 36.9336 32.3438 36.6602C32.1875 36.3672 31.7578 36.3086 31.4844 36.4844L30.6055 37.0508L30.6641 35.9766C30.6836 35.6055 30.4297 35.332 30.0977 35.332C29.7461 35.332 29.4922 35.625 29.5117 35.9766L29.5703 37.0508L28.6719 36.4844C28.418 36.2891 28.0273 36.3477 27.8516 36.6406C27.7148 36.875 27.7539 37.3047 28.125 37.4805L29.043 37.9492L28.125 38.3984C27.7344 38.5742 27.6562 38.9648 27.832 39.2578C27.9883 39.5703 28.3984 39.6094 28.6719 39.4336L29.5703 38.8477L29.5312 39.9609C29.5312 40.2734 29.7461 40.5664 30.0977 40.5664Z" fill="black" fill-opacity="0.85"/>
 </g>
</svg>
