<?xml version="1.0" encoding="UTF-8"?>
<!--Generator: Apple Native CoreSVG 326-->
<!DOCTYPE svg
PUBLIC "-//W3C//DTD SVG 1.1//EN"
       "http://www.w3.org/Graphics/SVG/1.1/DTD/svg11.dtd">
<svg version="1.1" xmlns="http://www.w3.org/2000/svg" xmlns:xlink="http://www.w3.org/1999/xlink" viewBox="0 0 51.25 50.918">
 <g>
  <rect height="50.918" opacity="0" width="51.25" x="0" y="0"/>
  <path d="M25.4297 50.8789C39.4727 50.8789 50.8789 39.4922 50.8789 25.4492C50.8789 11.4062 39.4727 0 25.4297 0C11.3867 0 0 11.4062 0 25.4492C0 39.4922 11.3867 50.8789 25.4297 50.8789ZM25.4297 47.2461C13.3789 47.2461 3.63281 37.5 3.63281 25.4492C3.63281 13.3984 13.3789 3.65234 25.4297 3.65234C37.4805 3.65234 47.2266 13.3984 47.2266 25.4492C47.2266 37.5 37.4805 47.2461 25.4297 47.2461Z" fill="black" fill-opacity="0.85"/>
  <path d="M17.207 28.7891L32.4023 28.7891C36.3086 28.7891 39.3164 25.8008 39.3164 22.0898C39.3164 18.2617 36.1523 15.4688 32.0703 15.4688C30.5273 12.4219 27.7734 10.4297 24.1992 10.4297C19.6484 10.4297 15.918 14.043 15.5078 18.5938C13.2812 19.2188 11.5625 21.0938 11.5625 23.6719C11.5625 26.4648 13.6133 28.7891 17.207 28.7891ZM16.9336 36.0938L18.8477 32.8125C19.1406 32.3047 18.9648 31.6602 18.4375 31.3672C17.9492 31.0938 17.3438 31.2695 17.0508 31.7578L15.1367 35.0586C14.8438 35.5469 15 36.1914 15.5273 36.4844C16.0156 36.7773 16.6406 36.6016 16.9336 36.0938ZM20.4102 39.9805L24.5703 32.8125C24.8633 32.2852 24.707 31.6602 24.1797 31.3672C23.6914 31.0938 23.0664 31.25 22.7734 31.7578L18.6133 38.9258C18.3203 39.4336 18.4961 40.0781 19.0039 40.3711C19.4922 40.6445 20.1172 40.4688 20.4102 39.9805ZM28.3789 36.0938L30.293 32.8125C30.5859 32.3047 30.4102 31.6602 29.8828 31.3672C29.4141 31.0938 28.7891 31.2695 28.4961 31.7578L26.582 35.0586C26.2891 35.5469 26.4453 36.1914 26.9727 36.4844C27.4609 36.7773 28.0859 36.6016 28.3789 36.0938ZM31.8555 39.9805L36.0156 32.8125C36.3086 32.2852 36.1523 31.6602 35.625 31.3672C35.1367 31.0938 34.5117 31.25 34.2188 31.7578L30.0586 38.9258C29.7656 39.4336 29.9414 40.0781 30.4492 40.3711C30.9375 40.6445 31.5625 40.4688 31.8555 39.9805Z" fill="black" fill-opacity="0.85"/>
 </g>
</svg>
