<?xml version="1.0" encoding="UTF-8"?>
<!--Generator: Apple Native CoreSVG 326-->
<!DOCTYPE svg
PUBLIC "-//W3C//DTD SVG 1.1//EN"
       "http://www.w3.org/Graphics/SVG/1.1/DTD/svg11.dtd">
<svg version="1.1" xmlns="http://www.w3.org/2000/svg" xmlns:xlink="http://www.w3.org/1999/xlink" viewBox="0 0 74.707 72.7556">
 <g>
  <rect height="72.7556" opacity="0" width="74.707" x="0" y="0"/>
  <path d="M30.2539 56.2899L27.8503 60.8407L32.6172 60.8407C33.3203 60.8407 33.5156 61.5047 33.0469 62.0516L23.3398 72.4422C23.1055 72.7352 22.8125 72.8133 22.5781 72.7157C22.3438 72.6375 22.2656 72.3641 22.4023 72.0125L25.6115 64.3172L21.6016 64.3172C20.9766 64.3172 20.6836 63.9461 20.9375 63.3211L24.1211 56.0946C24.3359 55.5868 24.5703 55.3329 25.2734 55.3329L29.7656 55.3329C30.332 55.3329 30.5469 55.743 30.2539 56.2899Z" fill="black" fill-opacity="0.85"/>
  <path d="M63.0078 38.6532L67.1484 42.8133C67.8516 43.5165 67.832 44.6297 67.1484 45.3133C66.4648 45.9969 65.3711 46.0165 64.668 45.3133L60.4883 41.1336C59.8047 40.45 59.8242 39.3368 60.4883 38.6532C61.1523 37.9696 62.3047 37.95 63.0078 38.6532ZM61.1328 27.0125C61.1328 32.6054 57.4721 37.2962 52.3951 38.8126C52.3645 37.7089 52.1745 36.6566 51.8559 35.6652C55.4485 34.4461 57.9688 31.078 57.9688 27.0125C57.9688 21.8563 53.9453 17.8524 48.8281 17.8524C43.7109 17.8524 39.707 21.8563 39.707 27.0125C39.707 27.0535 39.7073 27.0943 39.7129 27.1335C39.5781 27.1157 39.4378 27.112 39.2969 27.1102C38.6352 25.8619 37.86 24.7182 36.9781 23.702C38.397 18.47 43.1391 14.6688 48.8281 14.6688C55.6641 14.6688 61.1328 20.1571 61.1328 27.0125ZM74.707 27.0125C74.707 27.9891 73.9258 28.7704 72.9492 28.7704L67.0703 28.7704C66.1133 28.7704 65.293 27.9891 65.293 27.0125C65.293 26.036 66.1133 25.2352 67.0703 25.2352L72.9492 25.2352C73.9258 25.2352 74.707 26.036 74.707 27.0125ZM67.1484 8.69223C67.832 9.37583 67.8516 10.5086 67.1484 11.1922L63.0078 15.3719C62.3047 16.0555 61.1523 16.036 60.4883 15.3719C59.8242 14.6883 59.8047 13.575 60.4883 12.8915L64.668 8.69223C65.3711 8.00864 66.4648 8.00864 67.1484 8.69223ZM32.9883 8.69223L37.168 12.8915C37.8516 13.575 37.832 14.6883 37.168 15.3719C36.5039 16.036 35.3516 16.0555 34.6484 15.3719L30.5078 11.1922C29.8242 10.5086 29.8242 9.37583 30.5078 8.69223C31.1914 8.00864 32.2852 8.00864 32.9883 8.69223ZM50.5859 2.85239L50.5859 8.7313C50.5859 9.68833 49.7852 10.5086 48.8086 10.5086C47.8516 10.5086 47.0312 9.68833 47.0312 8.7313L47.0312 2.85239C47.0312 1.87583 47.8516 1.09458 48.8086 1.09458C49.7852 1.09458 50.5859 1.87583 50.5859 2.85239Z" fill="black" fill-opacity="0.85"/>
  <path d="M12.3047 51.7196L39.668 51.7196C46.8359 51.7196 52.4219 46.3094 52.4219 39.3368C52.4219 32.4227 46.7773 27.2079 39.2969 27.1102C36.3672 21.5829 31.2109 18.1063 24.9023 18.1063C16.6602 18.1063 9.80469 24.5516 9.00391 32.8133C4.80469 34.0829 1.85547 37.618 1.85547 42.2079C1.85547 47.6766 5.97656 51.7196 12.3047 51.7196ZM12.2266 48.3016C7.71484 48.3016 5.27344 45.6454 5.27344 42.286C5.27344 39.3758 7.07031 36.9344 10.8203 35.8993C11.9141 35.6063 12.3047 35.118 12.4023 34.0243C12.9688 26.8563 18.4375 21.5243 24.9023 21.5243C30.1172 21.5243 34.0234 24.4735 36.3867 29.1805C36.875 30.1571 37.4414 30.4891 38.5938 30.4891C45.0586 30.4891 48.9844 34.5321 48.9844 39.454C48.9844 44.3563 44.9609 48.3016 39.7266 48.3016Z" fill="black" fill-opacity="0.85"/>
 </g>
</svg>
