<?xml version="1.0" encoding="UTF-8"?>
<!--Generator: Apple Native CoreSVG 326-->
<!DOCTYPE svg
PUBLIC "-//W3C//DTD SVG 1.1//EN"
       "http://www.w3.org/Graphics/SVG/1.1/DTD/svg11.dtd">
<svg version="1.1" xmlns="http://www.w3.org/2000/svg" xmlns:xlink="http://www.w3.org/1999/xlink" viewBox="0 0 51.25 50.918">
 <g>
  <rect height="50.918" opacity="0" width="51.25" x="0" y="0"/>
  <path d="M50.8789 25.4688C50.8789 39.4922 39.4531 50.918 25.4297 50.918C11.4258 50.918 0 39.4922 0 25.4688C0 11.4648 11.4258 0.0390625 25.4297 0.0390625C39.4531 0.0390625 50.8789 11.4648 50.8789 25.4688ZM10.918 26.6602C8.80859 27.3242 7.28516 29.1602 7.28516 31.5234C7.28516 34.3555 9.45312 36.5039 12.7148 36.5039L26.6016 36.5039C30.293 36.5039 33.125 33.6914 33.125 30.0781C33.125 26.5234 30.2734 23.8281 26.4453 23.75C24.9609 20.957 22.3438 19.1797 19.1016 19.1797C14.9023 19.1797 11.3867 22.4805 10.918 26.6602ZM37.0703 29.4141C36.6602 29.8242 36.6406 30.5469 37.0703 30.9766L39.1992 33.1055C39.6484 33.5547 40.3516 33.5156 40.8008 33.0859C41.1914 32.6562 41.2305 31.9336 40.8008 31.5234L38.6719 29.4141C38.2227 28.9648 37.5195 28.9648 37.0703 29.4141ZM25.957 20.1953C26.543 20.7227 27.0508 21.3477 27.5 22.0703C31.4258 22.5391 34.4336 25.3711 34.8633 29.1016C36.6797 27.8711 37.793 25.918 37.793 23.6719C37.793 20.0586 34.9023 17.2461 31.3477 17.2461C29.082 17.2461 27.0703 18.3984 25.957 20.1953ZM40.5469 22.5586C39.9414 22.5586 39.4336 23.0273 39.4336 23.6719C39.4336 24.2773 39.9414 24.7656 40.5469 24.7656L43.5156 24.7656C44.1602 24.7656 44.668 24.2773 44.668 23.6719C44.668 23.0273 44.1602 22.5586 43.5156 22.5586ZM21.9336 14.2383C21.543 14.668 21.543 15.3711 21.9336 15.8398L24.0625 17.9688C24.4922 18.418 25.2344 18.3789 25.6641 17.9688C26.0547 17.5391 26.0742 16.8164 25.6641 16.4062L23.5156 14.2578C23.0664 13.8477 22.3633 13.8477 21.9336 14.2383ZM39.1992 14.2578L37.0703 16.4062C36.6406 16.8164 36.6602 17.5391 37.0703 17.9492C37.5 18.3789 38.2422 18.418 38.6719 17.9688L40.8008 15.8398C41.2109 15.3711 41.1914 14.668 40.8008 14.2578C40.3516 13.8477 39.6484 13.8281 39.1992 14.2578ZM30.2344 11.4453L30.2344 14.4727C30.2344 15.0781 30.7422 15.5859 31.3477 15.5859C31.9922 15.5859 32.4805 15.0781 32.4805 14.4727L32.4805 11.4453C32.4805 10.8203 31.9922 10.3516 31.3477 10.3516C30.7422 10.3516 30.2344 10.8203 30.2344 11.4453Z" fill="black" fill-opacity="0.85"/>
 </g>
</svg>
