<?xml version="1.0" encoding="UTF-8"?>
<!--Generator: Apple Native CoreSVG 326-->
<!DOCTYPE svg
PUBLIC "-//W3C//DTD SVG 1.1//EN"
       "http://www.w3.org/Graphics/SVG/1.1/DTD/svg11.dtd">
<svg version="1.1" xmlns="http://www.w3.org/2000/svg" xmlns:xlink="http://www.w3.org/1999/xlink" viewBox="0 0 68.5156 46.543">
 <g>
  <rect height="46.543" opacity="0" width="68.5156" x="0" y="0"/>
  <path d="M52.2461 2.91016C52.2461 4.10156 50.5664 6.50391 50.5664 9.78516C50.5664 15.8008 54.2773 19.3359 60.6836 19.3359C64.0625 19.3359 66.0742 17.8516 67.168 17.8516C67.9102 17.8516 68.3203 18.4766 68.3203 19.3359C68.3203 22.9095 64.2343 29.8686 55.7901 30.8914C55.4921 23.2709 49.5459 17.518 41.6211 16.7578C40.9439 15.6624 40.1888 14.6553 39.3638 13.7434C40.4771 7.0788 45.9063 2.05153 50.7617 1.73828C51.7383 1.67969 52.2461 2.14844 52.2461 2.91016Z" fill="black" fill-opacity="0.85"/>
  <path d="M13.0859 43.6719L40.4492 43.6719C47.4805 43.6719 52.9297 38.3594 52.9297 31.5234C52.9297 24.707 47.3633 19.5703 39.9219 19.5508C36.9336 13.8086 31.7578 10.5469 25.6641 10.5469C17.5781 10.5469 10.7227 16.9141 10 25.1758C5.64453 26.4258 2.87109 30 2.87109 34.375C2.87109 39.8828 7.03125 43.6719 13.0859 43.6719Z" fill="black" fill-opacity="0.85"/>
 </g>
</svg>
