<?xml version="1.0" encoding="UTF-8"?>
<!--Generator: Apple Native CoreSVG 326-->
<!DOCTYPE svg
PUBLIC "-//W3C//DTD SVG 1.1//EN"
       "http://www.w3.org/Graphics/SVG/1.1/DTD/svg11.dtd">
<svg version="1.1" xmlns="http://www.w3.org/2000/svg" xmlns:xlink="http://www.w3.org/1999/xlink" viewBox="0 0 51.25 50.918">
 <g>
  <rect height="50.918" opacity="0" width="51.25" x="0" y="0"/>
  <path d="M50.8789 25.4688C50.8789 39.4922 39.4531 50.918 25.4297 50.918C11.4258 50.918 0 39.4922 0 25.4688C0 11.4648 11.4258 0.0390625 25.4297 0.0390625C39.4531 0.0390625 50.8789 11.4648 50.8789 25.4688ZM27.9102 17.5586L27.9102 19.7852L22.6562 19.7852L22.6562 17.5586C22.6562 14.6289 20.2734 12.2266 17.3438 12.2266C14.4141 12.2266 12.0312 14.6094 12.0312 17.5586C12.0312 20.4688 14.4141 22.832 17.3438 22.832L19.5703 22.832L19.5703 28.1445L17.3438 28.1445C14.4141 28.1445 12.0312 30.5078 12.0312 33.418C12.0312 36.3672 14.4141 38.7305 17.3438 38.7305C20.2734 38.7305 22.6562 36.3477 22.6562 33.418L22.6562 31.1719L27.9102 31.1719L27.9102 33.418C27.9102 36.3477 30.293 38.7305 33.2227 38.7305C36.1719 38.7305 38.5352 36.3672 38.5352 33.418C38.5352 30.5078 36.1523 28.1445 33.2227 28.1445L30.9961 28.1445L30.9961 22.832L33.2227 22.832C36.1523 22.832 38.5352 20.4688 38.5352 17.5586C38.5352 14.6094 36.1719 12.2266 33.2227 12.2266C30.293 12.2266 27.9102 14.6289 27.9102 17.5586ZM19.5703 33.3984C19.5703 34.6289 18.5742 35.6641 17.3438 35.6641C16.0938 35.6641 15.0977 34.6484 15.0977 33.3984C15.0977 32.168 16.1133 31.1328 17.3438 31.1328L19.5703 31.1328ZM35.4883 33.3984C35.4883 34.6484 34.4727 35.6641 33.2227 35.6641C32.0117 35.6641 30.9961 34.6289 30.9961 33.3984L30.9961 31.1328L33.2227 31.1328C34.4531 31.1328 35.4883 32.168 35.4883 33.3984ZM27.9102 28.1641L22.6562 28.1641L22.6562 22.8125L27.9102 22.8125ZM19.5703 17.5586L19.5703 19.8047L17.3438 19.8047C16.0938 19.8047 15.0977 18.7891 15.0977 17.5586C15.0977 16.3281 16.1133 15.293 17.3438 15.293C18.5742 15.293 19.5703 16.3281 19.5703 17.5586ZM35.4883 17.5586C35.4883 18.7891 34.4727 19.8047 33.2227 19.8047L30.9961 19.8047L30.9961 17.5586C30.9961 16.3281 32.0117 15.293 33.2227 15.293C34.4531 15.293 35.4883 16.3281 35.4883 17.5586Z" fill="black" fill-opacity="0.85"/>
 </g>
</svg>
