<?xml version="1.0" encoding="UTF-8"?>
<!--Generator: Apple Native CoreSVG 326-->
<!DOCTYPE svg
PUBLIC "-//W3C//DTD SVG 1.1//EN"
       "http://www.w3.org/Graphics/SVG/1.1/DTD/svg11.dtd">
<svg version="1.1" xmlns="http://www.w3.org/2000/svg" xmlns:xlink="http://www.w3.org/1999/xlink" viewBox="0 0 64.4922 47.8711">
 <g>
  <rect height="47.8711" opacity="0" width="64.4922" x="0" y="0"/>
  <path d="M31.1328 36.2695L33.1836 36.2695C45.8984 36.2695 54.082 27.8125 54.082 14.9023L54.082 9.88281C54.082 4.12109 45.1758 0.0976562 32.1484 0.0976562C19.1211 0.0976562 10.2148 4.12109 10.2148 9.88281L10.2148 14.9023C10.2148 27.4609 18.3984 36.2695 31.1328 36.2695ZM32.1484 16.3281C21.4062 16.3281 13.5742 13.5156 13.5742 9.88281C13.5742 6.26953 21.4062 3.45703 32.1484 3.45703C42.9102 3.45703 50.7422 6.26953 50.7422 9.88281C50.7422 13.5156 42.9102 16.3281 32.1484 16.3281ZM51.5039 25.1172L53.5156 25.1172C58.8477 25.1172 62.1289 22.2266 62.1289 17.5586C62.1289 12.8906 58.8281 10.0195 53.5156 10.0195L52.207 10.0195L52.207 13.3398L53.5156 13.3398C56.7969 13.3398 58.7891 14.9414 58.7891 17.5586C58.7891 20.1562 56.7969 21.7773 53.5156 21.7773L51.5039 21.7773ZM32.0508 47.8711C50.7617 47.8711 64.1211 42.5781 64.1211 34.9219C64.1211 31.875 61.8945 29.1406 57.9688 27.0117C56.6602 27.5195 55.2734 27.793 53.6719 27.832C49.7656 34.8828 42.4805 39.0039 33.1836 39.0039L31.1328 39.0039C20.8984 39.0039 13.0273 33.75 9.49219 25.4102C3.45703 27.7148 0 31.0352 0 34.9219C0 42.5781 13.3789 47.8711 32.0508 47.8711Z" fill="black" fill-opacity="0.85"/>
 </g>
</svg>
