<?xml version="1.0" encoding="UTF-8"?>
<!--Generator: Apple Native CoreSVG 326-->
<!DOCTYPE svg
PUBLIC "-//W3C//DTD SVG 1.1//EN"
       "http://www.w3.org/Graphics/SVG/1.1/DTD/svg11.dtd">
<svg version="1.1" xmlns="http://www.w3.org/2000/svg" xmlns:xlink="http://www.w3.org/1999/xlink" viewBox="0 0 60.4102 50.0586">
 <g>
  <rect height="50.0586" opacity="0" width="60.4102" x="0" y="0"/>
  <path d="M60.0391 30.0195C60.0391 22.6562 57.3828 15.918 52.9688 10.6836C52.4609 10.0781 51.6016 10.0977 51.0352 10.6641L45.3906 16.3086C44.9023 16.7969 44.8828 17.4805 45.3125 18.0273C47.9102 21.3477 49.4531 25.4883 49.4531 30.0195C49.4531 34.5508 47.9102 38.7109 45.1953 42.1484C44.8242 42.6172 44.8438 43.2031 45.2539 43.6133L51.0352 49.4141C51.6016 50 52.4414 49.9805 52.9688 49.375C57.3828 44.1406 60.0391 37.3633 60.0391 30.0195Z" fill="black" fill-opacity="0.85"/>
  <path d="M30.0195 10.5664C34.5508 10.5664 38.7305 12.1289 42.0508 14.7656C42.5781 15.1562 43.2227 15.1172 43.7109 14.6289L49.375 8.96484C49.9609 8.39844 49.9414 7.55859 49.3359 7.03125C44.1211 2.65625 37.3633 0 30.0195 0C22.6758 0 15.918 2.65625 10.7031 7.03125C10.0977 7.55859 10.0781 8.39844 10.6445 8.96484L16.3281 14.6289C16.7969 15.1172 17.5 15.1367 18.0469 14.707C21.3477 12.1289 25.5078 10.5664 30.0195 10.5664Z" fill="black" fill-opacity="0.85"/>
  <path d="M0 30.0195C0 37.3633 2.65625 44.1406 7.07031 49.375C7.57812 49.9805 8.4375 50 9.00391 49.4141L14.7852 43.6133C15.1758 43.2031 15.2148 42.6172 14.8438 42.1484C12.1289 38.7109 10.5664 34.5508 10.5664 30.0195C10.5664 25.4883 12.1094 21.3477 14.7266 18.0273C15.1367 17.4805 15.1367 16.7969 14.6484 16.3086L8.98438 10.6641C8.41797 10.0977 7.57812 10.0781 7.05078 10.6836C2.63672 15.918 0 22.6562 0 30.0195Z" fill="black" fill-opacity="0.85"/>
  <path d="M20.625 40.8008C21.3477 40.8008 21.8359 40.2734 21.8359 39.5117L21.8359 34.9023L23.3789 33.3789L28.2422 40.1953C28.5156 40.5664 28.8672 40.8008 29.3359 40.8008C29.9805 40.8008 30.4883 40.332 30.4883 39.707C30.4883 39.3945 30.3711 39.1211 30.1562 38.8477L25.1367 31.8555L29.8438 26.8359C30.1367 26.5234 30.2734 26.3477 30.2734 25.957C30.2734 25.3906 29.8047 24.8828 29.1992 24.8828C28.8477 24.8828 28.4766 25.0977 28.2422 25.3516L21.9336 32.2852L21.8359 32.2852L21.8359 20.1758C21.8359 19.3945 21.3477 18.8477 20.625 18.8477C19.9023 18.8477 19.3945 19.375 19.3945 20.1562L19.3945 39.5117C19.3945 40.2734 19.9023 40.8008 20.625 40.8008ZM34.6484 40.8008C35.2148 40.8008 35.8203 40.4492 35.8203 39.5117L35.8203 31.2891C35.8203 29.4141 36.543 27.2461 38.7695 27.2461C39.2578 27.2461 39.707 27.207 40.0781 27.0312C40.4102 26.8945 40.6055 26.6016 40.6055 26.1914C40.6055 25.332 39.8828 24.8828 39.0234 24.8828C37.3633 24.8828 36.25 26.2891 35.8789 27.9688L35.7031 27.9688L35.7031 26.1328C35.7031 25.4297 35.2344 24.8828 34.5898 24.8828C33.9453 24.8828 33.457 25.4297 33.457 26.1328L33.457 39.5117C33.457 40.293 33.8867 40.8008 34.6484 40.8008ZM41.5625 40.5469C42.5195 40.5469 43.2227 39.8828 43.2227 38.9258C43.2227 37.9688 42.5195 37.2852 41.5625 37.2852C40.6055 37.2852 39.9023 37.9688 39.9023 38.9258C39.9023 39.8828 40.6055 40.5469 41.5625 40.5469Z" fill="black" fill-opacity="0.85"/>
 </g>
</svg>
