<?xml version="1.0" encoding="UTF-8"?>
<!--Generator: Apple Native CoreSVG 326-->
<!DOCTYPE svg
PUBLIC "-//W3C//DTD SVG 1.1//EN"
       "http://www.w3.org/Graphics/SVG/1.1/DTD/svg11.dtd">
<svg version="1.1" xmlns="http://www.w3.org/2000/svg" xmlns:xlink="http://www.w3.org/1999/xlink" viewBox="0 0 47.9883 45.3711">
 <g>
  <rect height="45.3711" opacity="0" width="47.9883" x="0" y="0"/>
  <path d="M23.5938 45.293C24.8242 45.293 25.7031 44.375 25.7031 43.125L25.7031 23.8281L43.8281 23.8281C44.9609 23.8281 45.7617 23.0273 45.7617 21.9336C45.7617 20.8398 44.9609 20.0586 43.8281 20.0586L25.7031 20.0586L25.7031 3.82812L45.6641 3.82812C46.7969 3.82812 47.6172 3.04688 47.6172 1.93359C47.6172 0.800781 46.7969 0 45.6641 0L23.5938 0C22.2852 0 21.4453 0.898438 21.4453 2.20703L21.4453 43.125C21.4453 44.3555 22.2852 45.293 23.5938 45.293ZM7.36328 17.3242C11.4844 17.3242 14.7266 14.082 14.7266 9.94141C14.7266 5.82031 11.4844 2.57812 7.36328 2.57812C3.24219 2.57812 0 5.82031 0 9.94141C0 14.082 3.24219 17.3242 7.36328 17.3242ZM7.36328 14.2578C4.96094 14.2578 3.06641 12.3633 3.06641 9.94141C3.06641 7.53906 4.96094 5.64453 7.36328 5.64453C9.76562 5.64453 11.6602 7.53906 11.6602 9.94141C11.6602 12.3633 9.76562 14.2578 7.36328 14.2578Z" fill="black" fill-opacity="0.85"/>
 </g>
</svg>
