<?xml version="1.0" encoding="UTF-8"?>
<!--Generator: Apple Native CoreSVG 326-->
<!DOCTYPE svg
PUBLIC "-//W3C//DTD SVG 1.1//EN"
       "http://www.w3.org/Graphics/SVG/1.1/DTD/svg11.dtd">
<svg version="1.1" xmlns="http://www.w3.org/2000/svg" xmlns:xlink="http://www.w3.org/1999/xlink" viewBox="0 0 58.5938 58.0273">
 <g>
  <rect height="58.0273" opacity="0" width="58.5938" x="0" y="0"/>
  <path d="M43.2617 10.6836L43.2617 11.2891L22.5781 11.2891C15.8008 11.2891 11.8555 15.1953 11.8555 21.9336L11.8555 43.6914L10.3516 43.6914C5.29297 43.6914 2.73438 41.1523 2.73438 36.1523L2.73438 10.6836C2.73438 5.70312 5.29297 3.16406 10.3516 3.16406L35.6641 3.16406C40.6836 3.16406 43.2617 5.72266 43.2617 10.6836Z" fill="black" fill-opacity="0.85"/>
  <path d="M55.4883 21.9336L55.4883 47.3828C55.4883 52.3633 52.9102 54.9219 47.8711 54.9219L22.5781 54.9219C17.5195 54.9219 14.9609 52.3828 14.9609 47.3828L14.9609 21.9336C14.9609 16.9336 17.5195 14.3945 22.5781 14.3945L47.8711 14.3945C52.9102 14.3945 55.4883 16.9531 55.4883 21.9336ZM21.3477 45C21.3477 46.9727 22.9492 48.5938 24.9219 48.5938C26.875 48.5938 28.4961 46.9727 28.4961 45C28.4961 43.0078 26.875 41.4062 24.9219 41.4062C22.9492 41.4062 21.3477 43.0078 21.3477 45ZM41.9336 45C41.9336 46.9727 43.5352 48.5938 45.5078 48.5938C47.4609 48.5938 49.082 46.9727 49.082 45C49.082 43.0078 47.4609 41.4062 45.5078 41.4062C43.5352 41.4062 41.9336 43.0078 41.9336 45ZM31.6406 34.668C31.6406 36.6797 33.2227 38.3008 35.2148 38.3008C37.168 38.3008 38.7891 36.6797 38.7891 34.668C38.7891 32.7148 37.168 31.1133 35.2148 31.1133C33.2227 31.1133 31.6406 32.7148 31.6406 34.668ZM21.3281 24.3555C21.3281 26.3672 22.9492 27.9297 24.9219 27.9688C26.875 28.0078 28.4961 26.3672 28.4961 24.3555C28.4961 22.3828 26.875 20.7812 24.9219 20.7812C22.9492 20.7812 21.3281 22.3828 21.3281 24.3555ZM41.9141 24.3555C41.9141 26.3672 43.5352 27.9297 45.5078 27.9688C47.4609 28.0078 49.082 26.3672 49.082 24.3555C49.082 22.3828 47.4609 20.7812 45.5078 20.7812C43.5352 20.7812 41.9141 22.3828 41.9141 24.3555Z" fill="black" fill-opacity="0.85"/>
 </g>
</svg>
