<?xml version="1.0" encoding="UTF-8"?>
<!--Generator: Apple Native CoreSVG 326-->
<!DOCTYPE svg
PUBLIC "-//W3C//DTD SVG 1.1//EN"
       "http://www.w3.org/Graphics/SVG/1.1/DTD/svg11.dtd">
<svg version="1.1" xmlns="http://www.w3.org/2000/svg" xmlns:xlink="http://www.w3.org/1999/xlink" viewBox="0 0 50.4297 66.9336">
 <g>
  <rect height="66.9336" opacity="0" width="50.4297" x="0" y="0"/>
  <path d="M50.0586 45.3125C50.0586 55.5859 40.4883 59.9219 25.0195 59.9219C9.55078 59.9219 0 55.5859 0 45.3125L0 41.9727C1.66016 43.9648 4.12109 45.625 7.26562 46.875L7.26562 50.7031C7.26562 51.5039 7.91016 52.1484 8.71094 52.1484C9.49219 52.1484 10.1367 51.5039 10.1367 50.7031L10.1367 47.8516C11.6797 48.3203 13.3008 48.6719 15 48.9648L15 52.4805C15 53.2617 15.6445 53.9062 16.4258 53.9062C17.207 53.9062 17.8516 53.2617 17.8516 52.4805L17.8516 49.3555C19.668 49.5703 21.582 49.6875 23.3594 49.707L23.3594 53.125C23.3594 53.9062 24.0039 54.5508 24.7852 54.5508C25.5859 54.5508 26.2305 53.9062 26.2305 53.125L26.2305 49.7266C27.7734 49.707 29.9023 49.5898 31.7188 49.3945L31.7188 52.4805C31.7188 53.2617 32.3633 53.9062 33.1445 53.9062C33.9453 53.9062 34.5898 53.2617 34.5898 52.4805L34.5898 49.043C36.0156 48.8086 37.8125 48.457 39.4336 47.9883L39.4336 50.7031C39.4336 51.5039 40.0781 52.1484 40.8789 52.1484C41.6602 52.1484 42.3047 51.5039 42.3047 50.7031L42.3047 47.0508C45.6836 45.7812 48.3203 44.0625 50.0586 41.9727ZM21.25 30.9961C23.2812 33.3594 26.6992 33.3984 28.7891 31.0156L34.0342 24.9806C43.5285 26.448 49.4141 30.3286 49.4141 35.4688C49.4141 42.0898 39.6484 46.6016 25.0195 46.6016C10.3906 46.6016 0.644531 42.0898 0.644531 35.4688C0.644531 30.3263 6.52354 26.4446 16.0202 24.9787Z" fill="black" fill-opacity="0.85"/>
  <path d="M26.4453 28.9648L32.9297 21.4844C34.1016 20.1953 33.4375 18.2812 31.543 18.2812L26.875 18.2812L26.875 4.94141C26.875 3.90625 26.0742 3.10547 25.0391 3.10547C24.0039 3.10547 23.2031 3.90625 23.2031 4.94141L23.2031 18.2812L18.4766 18.2812C16.6797 18.2812 15.8984 20.1367 17.0898 21.4844L23.5938 28.9648C24.4141 29.9023 25.6055 29.9219 26.4453 28.9648Z" fill="black" fill-opacity="0.85"/>
 </g>
</svg>
