<?xml version="1.0" encoding="UTF-8"?>
<!--Generator: Apple Native CoreSVG 326-->
<!DOCTYPE svg
PUBLIC "-//W3C//DTD SVG 1.1//EN"
       "http://www.w3.org/Graphics/SVG/1.1/DTD/svg11.dtd">
<svg version="1.1" xmlns="http://www.w3.org/2000/svg" xmlns:xlink="http://www.w3.org/1999/xlink" viewBox="0 0 55.3726 50.0977">
 <g>
  <rect height="50.0977" opacity="0" width="55.3726" x="0" y="0"/>
  <path d="M31.4265 25.0391C31.4265 40.0391 36.1336 50.0586 43.2039 50.0586C50.2937 50.0586 55.0008 40.0391 55.0008 25.0391C55.0008 10.0195 50.2937 0 43.2039 0C36.1336 0 31.4265 10.0195 31.4265 25.0391ZM34.8836 25.0391C34.8836 12.1094 38.2625 3.47656 43.2039 3.47656C48.1453 3.47656 51.5437 12.1094 51.5437 25.0391C51.5437 37.9492 48.1453 46.6016 43.2039 46.6016C38.2625 46.6016 34.8836 37.9492 34.8836 25.0391ZM18.7508 25.0391C18.7508 40.5078 23.0867 50.0586 33.3601 50.0586L43.2039 50.0586L43.2039 46.6016L33.3601 46.6016C25.2547 46.6016 22.2078 38.3398 22.2078 25.0391C22.2078 11.7188 25.2547 3.47656 33.3601 3.47656L43.2039 3.47656L43.2039 0L33.3601 0C23.0867 0 18.7508 9.57031 18.7508 25.0391ZM30.3133 10.1367L35.1765 10.1367L35.1765 7.28516L30.3133 7.28516C29.5125 7.28516 28.8679 7.92969 28.8679 8.71094C28.8679 9.49219 29.5125 10.1367 30.3133 10.1367ZM28.5554 17.8711L33.4187 17.8711L33.4187 15L28.5554 15C27.7547 15 27.1101 15.6445 27.1101 16.4258C27.1101 17.2266 27.7547 17.8711 28.5554 17.8711ZM27.9109 26.2305L32.7742 26.2305L32.7742 23.3594L27.9109 23.3594C27.1101 23.3594 26.4656 24.0039 26.4656 24.8047C26.4656 25.5859 27.1101 26.2305 27.9109 26.2305ZM28.5554 34.5898L33.4187 34.5898L33.4187 31.7188L28.5554 31.7188C27.7547 31.7188 27.1101 32.3633 27.1101 33.1641C27.1101 33.9453 27.7547 34.5898 28.5554 34.5898ZM30.3133 42.3047L35.1765 42.3047L35.1765 39.4531L30.3133 39.4531C29.5125 39.4531 28.8679 40.0977 28.8679 40.8789C28.8679 41.6602 29.5125 42.3047 30.3133 42.3047Z" fill="black" fill-opacity="0.85"/>
  <path d="M7.12967 44.5898C8.12576 44.5898 9.08279 43.7305 8.61404 42.4219C7.1492 37.8516 6.34842 32.6367 6.34842 27.4219C6.34842 22.207 7.1492 16.9727 8.61404 12.4219L5.50857 11.3672C3.94607 16.2695 3.0867 21.8555 3.0867 27.4219C3.0867 32.9688 3.9656 38.5547 5.50857 43.457C5.78201 44.2969 6.4656 44.5898 7.12967 44.5898ZM1.09451 13.1055L11.5633 16.9141C13.0281 17.4219 14.1023 16.0156 13.6922 14.7461L10.9383 6.19141C10.5867 5.09766 9.45388 4.66797 8.45779 5.29297L0.801541 10.1172C-0.31174 10.8203-0.31174 12.5977 1.09451 13.1055Z" fill="black" fill-opacity="0.85"/>
 </g>
</svg>
