<?xml version="1.0" encoding="UTF-8"?>
<!--Generator: Apple Native CoreSVG 326-->
<!DOCTYPE svg
PUBLIC "-//W3C//DTD SVG 1.1//EN"
       "http://www.w3.org/Graphics/SVG/1.1/DTD/svg11.dtd">
<svg version="1.1" xmlns="http://www.w3.org/2000/svg" xmlns:xlink="http://www.w3.org/1999/xlink" viewBox="0 0 46.2891 45.918">
 <g>
  <rect height="45.918" opacity="0" width="46.2891" x="0" y="0"/>
  <path d="M45.918 7.53906L45.918 38.3984C45.918 43.3594 43.3594 45.918 38.3008 45.918L7.59766 45.918C2.55859 45.918 0 43.3984 0 38.3984L0 7.53906C0 2.53906 2.55859 0 7.59766 0L38.3008 0C43.3594 0 45.918 2.55859 45.918 7.53906ZM20.1758 32.5C20.1758 33.9453 21.4062 35.0781 22.9297 35.0781C24.5703 35.0781 25.7617 33.9258 25.7617 32.5C25.7617 30.8789 24.5898 29.7266 22.9297 29.7266C21.4062 29.7266 20.1758 30.8789 20.1758 32.5ZM12.5586 21.1328C11.2891 21.1328 10.4688 21.7969 10.4688 22.9883C10.4688 24.1797 11.3281 24.8242 12.5586 24.8242L33.3984 24.8242C34.6289 24.8242 35.4492 24.1797 35.4492 22.9883C35.4492 21.7969 34.668 21.1328 33.3984 21.1328ZM20.1758 13.6719C20.1758 15.0977 21.4062 16.2109 22.9297 16.2109C24.5703 16.2109 25.7617 15.0977 25.7617 13.6523C25.7617 12.0312 24.5898 10.8789 22.9297 10.8789C21.4062 10.8789 20.1758 12.0508 20.1758 13.6719Z" fill="black" fill-opacity="0.85"/>
 </g>
</svg>
