<?xml version="1.0" encoding="UTF-8"?>
<!--Generator: Apple Native CoreSVG 326-->
<!DOCTYPE svg
PUBLIC "-//W3C//DTD SVG 1.1//EN"
       "http://www.w3.org/Graphics/SVG/1.1/DTD/svg11.dtd">
<svg version="1.1" xmlns="http://www.w3.org/2000/svg" xmlns:xlink="http://www.w3.org/1999/xlink" viewBox="0 0 51.543 63.0273">
 <g>
  <rect height="63.0273" opacity="0" width="51.543" x="0" y="0"/>
  <path d="M51.1719 7.59766L51.1719 43.0078C51.1719 48.0469 48.6523 50.6055 43.6523 50.6055L38.9648 50.6055L38.9648 35.1953C38.9648 32.2852 38.6133 31.0156 36.7969 29.1797L22.3242 14.5117C20.6055 12.7539 19.1992 12.3438 16.6016 12.3438L12.207 12.3438L12.207 7.59766C12.207 2.53906 14.7461 0 19.7461 0L43.6523 0C48.6523 0 51.1719 2.53906 51.1719 7.59766ZM25.7227 5.01953C24.6875 5.01953 24.1992 5.68359 24.1992 6.40625L24.1992 6.89453C24.1992 7.61719 24.6875 8.28125 25.7227 8.28125L37.6758 8.28125C38.6914 8.28125 39.1797 7.61719 39.1797 6.89453L39.1797 6.40625C39.1797 5.68359 38.6914 5.01953 37.6758 5.01953Z" fill="black" fill-opacity="0.85"/>
  <path d="M0 55.3516C0 60.4102 2.51953 62.9492 7.51953 62.9492L31.4453 62.9492C36.4453 62.9492 38.9648 60.3906 38.9648 55.3516L38.9648 35.1953C38.9648 32.2852 38.6133 31.0156 36.7969 29.1797L22.3242 14.5117C20.6055 12.7539 19.1992 12.3438 16.6016 12.3438L7.51953 12.3438C2.55859 12.3438 0 14.9219 0 19.9414ZM3.45703 55.293L3.45703 20.0195C3.45703 17.3438 4.90234 15.8008 7.71484 15.8008L16.5625 15.8008L16.5625 30.7812C16.5625 33.7695 18.0664 35.1953 20.9766 35.1953L35.5078 35.1953L35.5078 55.293C35.5078 58.0078 34.0625 59.4922 31.25 59.4922L7.69531 59.4922C4.90234 59.4922 3.45703 58.0078 3.45703 55.293ZM21.3672 31.9336C20.2539 31.9336 19.8242 31.5039 19.8242 30.3906L19.8242 16.7383L34.8242 31.9336Z" fill="black" fill-opacity="0.85"/>
 </g>
</svg>
