<?xml version="1.0" encoding="UTF-8"?>
<!--Generator: Apple Native CoreSVG 326-->
<!DOCTYPE svg
PUBLIC "-//W3C//DTD SVG 1.1//EN"
       "http://www.w3.org/Graphics/SVG/1.1/DTD/svg11.dtd">
<svg version="1.1" xmlns="http://www.w3.org/2000/svg" xmlns:xlink="http://www.w3.org/1999/xlink" viewBox="0 0 60.6836 52.9102">
 <g>
  <rect height="52.9102" opacity="0" width="60.6836" x="0" y="0"/>
  <path d="M1.73828 52.8711C2.69531 52.8711 3.47656 52.0898 3.47656 51.1328L3.47656 4.80469C3.47656 4.00391 3.98438 3.47656 4.74609 3.47656L55.5664 3.47656C56.3086 3.47656 56.8359 4.00391 56.8359 4.80469L56.8359 51.1328C56.8359 52.0898 57.5977 52.8711 58.5742 52.8711C59.5312 52.8711 60.3125 52.0898 60.3125 51.1328L60.3125 4.57031C60.3125 1.83594 58.4375 0 55.625 0L4.6875 0C1.875 0 0 1.83594 0 4.57031L0 51.1328C0 52.0898 0.761719 52.8711 1.73828 52.8711Z" fill="black" fill-opacity="0.85"/>
  <path d="M6.93359 16.7383L53.3789 16.7383C53.7891 16.7383 54.1016 16.4062 54.1016 15.9961L54.1016 6.93359C54.1016 6.52344 53.7891 6.19141 53.3789 6.19141L6.93359 6.19141C6.52344 6.19141 6.19141 6.52344 6.19141 6.93359L6.19141 15.9961C6.19141 16.4062 6.52344 16.7383 6.93359 16.7383ZM25.1172 12.6172C24.4336 12.6172 23.9648 12.1484 23.9648 11.4648C23.9648 10.7812 24.4336 10.293 25.1172 10.293L35.1758 10.293C35.8594 10.293 36.3477 10.7812 36.3477 11.4648C36.3477 12.1484 35.8594 12.6172 35.1758 12.6172Z" fill="black" fill-opacity="0.85"/>
 </g>
</svg>
