<?xml version="1.0" encoding="UTF-8"?>
<!--Generator: Apple Native CoreSVG 326-->
<!DOCTYPE svg
PUBLIC "-//W3C//DTD SVG 1.1//EN"
       "http://www.w3.org/Graphics/SVG/1.1/DTD/svg11.dtd">
<svg version="1.1" xmlns="http://www.w3.org/2000/svg" xmlns:xlink="http://www.w3.org/1999/xlink" viewBox="0 0 40.5859 48.4865">
 <g>
  <rect height="48.4865" opacity="0" width="40.5859" x="0" y="0"/>
  <path d="M28.1445 47.9054C28.8086 48.6476 29.9609 48.7257 30.7812 47.8663C36.7383 41.6944 40.2148 33.4132 40.2148 24.3311C40.2148 15.2296 36.8164 6.85068 30.7812 0.776456C29.9609-0.0829186 28.8086 0.0147377 28.1445 0.737394C27.4805 1.47958 27.6172 2.53427 28.3984 3.35458C33.7695 8.74521 36.7188 16.1671 36.7188 24.3311C36.7188 32.4757 33.6914 39.7999 28.3984 45.2882C27.6172 46.1085 27.4805 47.1827 28.1445 47.9054Z" fill="black" fill-opacity="0.85"/>
  <path d="M20.9375 41.2647C21.6406 42.0655 22.832 42.0655 23.6523 41.1671C27.8125 36.714 30.2148 30.7765 30.2148 24.3311C30.2148 17.8663 27.8711 11.8897 23.6523 7.49521C22.832 6.59677 21.6211 6.59677 20.9375 7.39755C20.2539 8.15927 20.4688 9.17489 21.25 10.0343C24.7852 13.7647 26.7188 18.8038 26.7188 24.3311C26.7188 29.839 24.7266 34.8194 21.25 38.6085C20.4688 39.4679 20.2539 40.4835 20.9375 41.2647Z" fill="black" fill-opacity="0.85"/>
  <path d="M13.9648 34.1554C14.668 34.9561 15.957 34.9757 16.7188 34.0186C18.9453 31.3819 20.2148 27.9835 20.2148 24.3311C20.2148 20.6788 18.9453 17.2608 16.7188 14.6436C15.957 13.6671 14.668 13.6866 13.9648 14.5069C13.2812 15.2686 13.5742 16.2257 14.2578 17.1436C15.8594 19.0772 16.7188 21.5772 16.7188 24.3311C16.7188 27.0655 15.8984 29.6046 14.2578 31.4991C13.5742 32.3976 13.2812 33.3741 13.9648 34.1554Z" fill="black" fill-opacity="0.85"/>
  <path d="M0 24.2921C0 26.6554 2.07031 28.6671 4.51172 28.6671C6.95312 28.6671 8.96484 26.6554 8.96484 24.2335C8.96484 21.753 6.97266 19.7413 4.51172 19.7413C2.05078 19.7413 0 21.8311 0 24.2921Z" fill="black" fill-opacity="0.85"/>
 </g>
</svg>
