<?xml version="1.0" encoding="UTF-8"?>
<!--Generator: Apple Native CoreSVG 326-->
<!DOCTYPE svg
PUBLIC "-//W3C//DTD SVG 1.1//EN"
       "http://www.w3.org/Graphics/SVG/1.1/DTD/svg11.dtd">
<svg version="1.1" xmlns="http://www.w3.org/2000/svg" xmlns:xlink="http://www.w3.org/1999/xlink" viewBox="0 0 51.25 50.918">
 <g>
  <rect height="50.918" opacity="0" width="51.25" x="0" y="0"/>
  <path d="M50.8789 25.4492C50.8789 39.4531 39.4531 50.8789 25.4297 50.8789C11.4258 50.8789 0 39.4531 0 25.4492C0 11.4258 11.4258 0 25.4297 0C39.4531 0 50.8789 11.4258 50.8789 25.4492ZM24.1211 13.0078C22.1094 16.0742 19.8828 19.7852 18.457 22.8516C17.5586 24.8242 16.5234 27.1875 16.5234 29.668C16.5234 34.8438 20.1172 38.2812 25.4297 38.2812C30.7422 38.2812 34.3555 34.8438 34.3555 29.668C34.3555 27.1875 33.3008 24.8242 32.4023 22.8516C30.9961 19.7852 28.7695 16.0742 26.7383 13.0078C26.3672 12.4219 25.957 12.168 25.4297 12.168C24.9023 12.168 24.5117 12.4219 24.1211 13.0078Z" fill="black" fill-opacity="0.85"/>
 </g>
</svg>
