<?xml version="1.0" encoding="UTF-8"?>
<!--Generator: Apple Native CoreSVG 326-->
<!DOCTYPE svg
PUBLIC "-//W3C//DTD SVG 1.1//EN"
       "http://www.w3.org/Graphics/SVG/1.1/DTD/svg11.dtd">
<svg version="1.1" xmlns="http://www.w3.org/2000/svg" xmlns:xlink="http://www.w3.org/1999/xlink" viewBox="0 0 69.4531 44.4336">
 <g>
  <rect height="44.4336" opacity="0" width="69.4531" x="0" y="0"/>
  <path d="M26.4453 44.4141L50.7617 44.4141C53.8477 44.4141 55.6445 42.6953 55.6445 39.668L55.6445 34.5117C55.6445 34.3945 55.7031 34.3359 55.8203 34.3359L58.9258 34.3359C59.043 34.3359 59.1016 34.3945 59.1016 34.5117L59.1016 37.8125C59.1016 40.3711 60.8008 41.9531 63.5547 41.9531L64.6484 41.9531C67.4023 41.9531 69.082 40.3906 69.082 37.8125L69.082 19.7656C69.082 17.1875 67.4023 15.6445 64.6484 15.6445L63.5547 15.6445C60.8008 15.6445 59.1016 17.207 59.1016 19.7656L59.1016 22.6758C59.1016 22.8125 59.043 22.8711 58.9258 22.8711L55.8203 22.8711C55.7031 22.8711 55.6445 22.8125 55.6445 22.6758L55.6445 17.6562C55.6445 14.8633 53.8867 13.1836 51.0156 13.1836L48.75 13.1836L44.4922 8.51562C43.5547 7.48047 42.6172 7.10938 41.4062 7.10938L22.168 7.10938C20.957 7.10938 20 7.51953 19.082 8.51562L14.8242 13.1836L11.7188 13.1836C8.86719 13.1836 7.12891 14.8633 7.12891 17.6562L7.12891 33.8281C7.12891 36.6211 8.84766 38.3203 11.7188 38.3203L19.1016 38.3203L23.3789 42.9883C24.2969 43.9844 25.1758 44.4141 26.4453 44.4141ZM1.73828 35.5664C2.67578 35.5664 3.45703 34.7656 3.45703 33.8281L3.45703 27.4805L8.69141 27.4805L8.69141 24.0234L3.45703 24.0234L3.45703 17.6758C3.45703 16.7188 2.65625 15.9375 1.73828 15.9375C0.78125 15.9375 0 16.7383 0 17.6758L0 33.8281C0 34.7852 0.800781 35.5664 1.73828 35.5664ZM31.582 9.23828L35.0586 9.23828L35.0586 3.47656L43.1836 3.47656C44.1406 3.47656 44.9219 2.65625 44.9219 1.71875C44.9219 0.78125 44.1406 0 43.1836 0L23.4375 0C22.4805 0 21.6992 0.78125 21.6992 1.73828C21.6992 2.67578 22.5 3.47656 23.4375 3.47656L31.582 3.47656Z" fill="black" fill-opacity="0.85"/>
 </g>
</svg>
