<?xml version="1.0" encoding="UTF-8"?>
<!--Generator: Apple Native CoreSVG 326-->
<!DOCTYPE svg
PUBLIC "-//W3C//DTD SVG 1.1//EN"
       "http://www.w3.org/Graphics/SVG/1.1/DTD/svg11.dtd">
<svg version="1.1" xmlns="http://www.w3.org/2000/svg" xmlns:xlink="http://www.w3.org/1999/xlink" viewBox="0 0 70.2734 47.8711">
 <g>
  <rect height="47.8711" opacity="0" width="70.2734" x="0" y="0"/>
  <path d="M58.5156 41.1914C58.5156 45.1562 55.8594 47.8711 52.1289 47.8711C48.418 47.8711 45.7227 45.2539 45.2539 41.7773C45.1367 40.8984 45.5469 40.0781 46.543 40.0195C47.4609 39.9609 48.0469 40.625 48.1836 41.4258C48.5352 43.6523 50.0195 45.0195 52.1289 45.0195C54.2383 45.0195 55.6445 43.5938 55.6445 41.1914C55.6445 36.6406 49.3359 32.4219 38.0469 32.4219L36.3477 32.4219L36.3477 29.5508L38.0469 29.5508C50.9375 29.5508 58.5156 34.8242 58.5156 41.1914ZM4.33594 32.4219C3.55469 32.4219 2.89062 31.7773 2.89062 30.9961C2.89062 30.1953 3.55469 29.5508 4.33594 29.5508L16.1133 29.5508L16.1133 32.4219ZM69.9023 22.5977C69.9023 26.8359 66.8359 30.0977 62.1875 30.0977C55.918 30.0977 53.1445 24.9219 40.0391 24.9219L36.3477 24.9219L36.3477 22.0703L40.1562 22.0703C53.7305 22.0703 56.8945 27.1875 62.0117 27.2461C65.293 27.2656 67.0117 25.0391 67.0117 22.4805C67.0117 19.6094 65 17.832 62.5586 17.832C61.3086 17.832 60.2734 18.3398 59.5508 19.1016C58.9258 19.6094 58.2227 19.7656 57.6172 19.2773C57.0508 18.8281 57.0117 17.8711 57.6758 17.2461C58.8672 15.9375 60.6055 15.0781 62.5391 15.0781C66.6016 15.0781 69.9023 17.9688 69.9023 22.5977ZM1.42578 24.9219C0.664062 24.9219 0 24.2773 0 23.4961C0 22.7148 0.664062 22.0703 1.42578 22.0703L16.1133 22.0703L16.1133 24.9219ZM16.1133 17.4414L4.33594 17.4414C3.55469 17.4414 2.89062 16.7773 2.89062 15.9961C2.89062 15.2148 3.55469 14.5703 4.33594 14.5703L16.1133 14.5703ZM56.6992 8.80859C56.6992 13.8672 53.0664 17.4414 41.1133 17.4414L36.3477 17.4414L36.3477 14.5703L41.1523 14.5703C51.5234 14.5703 53.8281 12.168 53.8281 8.80859C53.8281 6.36719 52.168 4.94141 49.9414 4.94141C48.1641 4.94141 46.7188 6.13281 46.1523 7.59766C45.6641 8.47656 44.9219 8.71094 44.2188 8.39844C43.4375 8.04688 43.2422 7.20703 43.5938 6.46484C44.5117 4.00391 46.9922 2.10938 49.9414 2.10938C53.7305 2.10938 56.6992 4.78516 56.6992 8.80859Z" fill="black" fill-opacity="0.85"/>
  <path d="M17.2461 7.14844L35.0195 7.14844C35.8594 7.14844 36.5625 6.46484 36.5625 5.625C36.5625 4.76562 35.8594 4.08203 35.0195 4.08203L17.2461 4.08203C16.4062 4.08203 15.7227 4.76562 15.7227 5.625C15.7227 6.46484 16.4062 7.14844 17.2461 7.14844ZM17.1289 43.75L35.1758 43.75C36.0156 43.75 36.6992 43.0664 36.6992 42.2266C36.6992 41.3672 36.0156 40.6836 35.1758 40.6836L17.1289 40.6836C16.2891 40.6836 15.6055 41.3672 15.6055 42.2266C15.6055 43.0664 16.2891 43.75 17.1289 43.75ZM21.7383 37.2266C22.8711 37.2266 23.7695 36.3086 23.7695 35.1953C23.7695 34.0625 22.8711 33.1641 21.7383 33.1641C20.6055 33.1641 19.7266 34.0625 19.7266 35.1953C19.7266 36.3086 20.625 37.2266 21.7383 37.2266ZM21.7383 29.707C22.8711 29.707 23.7695 28.7891 23.7695 27.6758C23.7695 26.543 22.8711 25.6445 21.7383 25.6445C20.6055 25.6445 19.7266 26.543 19.7266 27.6758C19.7266 28.7891 20.625 29.707 21.7383 29.707ZM30.7031 37.2266C31.8359 37.2266 32.7344 36.3086 32.7344 35.1953C32.7344 34.0625 31.8359 33.1641 30.7031 33.1641C29.5703 33.1641 28.6914 34.0625 28.6914 35.1953C28.6914 36.3086 29.5898 37.2266 30.7031 37.2266ZM21.7383 22.1875C22.8711 22.1875 23.7695 21.2695 23.7695 20.1562C23.7695 19.0234 22.8711 18.125 21.7383 18.125C20.6055 18.125 19.7266 19.0234 19.7266 20.1562C19.7266 21.2695 20.625 22.1875 21.7383 22.1875ZM30.7031 29.707C31.8359 29.707 32.7344 28.7891 32.7344 27.6758C32.7344 26.543 31.8359 25.6445 30.7031 25.6445C29.5703 25.6445 28.6914 26.543 28.6914 27.6758C28.6914 28.7891 29.5898 29.707 30.7031 29.707ZM21.7383 14.668C22.8711 14.668 23.7695 13.75 23.7695 12.6367C23.7695 11.5234 22.8711 10.625 21.7383 10.625C20.6055 10.625 19.7266 11.5234 19.7266 12.6367C19.7266 13.75 20.625 14.668 21.7383 14.668ZM30.7031 22.1875C31.8359 22.1875 32.7344 21.2695 32.7344 20.1562C32.7344 19.0234 31.8359 18.125 30.7031 18.125C29.5703 18.125 28.6914 19.0234 28.6914 20.1562C28.6914 21.2695 29.5898 22.1875 30.7031 22.1875ZM30.7031 14.668C31.8359 14.668 32.7344 13.75 32.7344 12.6367C32.7344 11.5234 31.8359 10.625 30.7031 10.625C29.5703 10.625 28.6914 11.5234 28.6914 12.6367C28.6914 13.75 29.5898 14.668 30.7031 14.668Z" fill="black" fill-opacity="0.85"/>
 </g>
</svg>
