<?xml version="1.0" encoding="UTF-8"?>
<!--Generator: Apple Native CoreSVG 326-->
<!DOCTYPE svg
PUBLIC "-//W3C//DTD SVG 1.1//EN"
       "http://www.w3.org/Graphics/SVG/1.1/DTD/svg11.dtd">
<svg version="1.1" xmlns="http://www.w3.org/2000/svg" xmlns:xlink="http://www.w3.org/1999/xlink" viewBox="0 0 42.8125 62.793">
 <g>
  <rect height="62.793" opacity="0" width="42.8125" x="0" y="0"/>
  <path d="M42.4414 50.3906C42.4414 57.3828 37.0898 62.793 30.0391 62.793L12.4023 62.793C5.35156 62.793 0 57.3828 0 50.3906C0 43.418 5.35156 38.0078 12.4023 38.0078L30.0391 38.0078C37.0898 38.0078 42.4414 43.418 42.4414 50.3906ZM5.25391 50.3906C5.25391 54.2188 8.32031 57.2852 12.1289 57.2852C15.9766 57.2852 19.043 54.2188 19.043 50.3906C19.043 46.5625 15.9766 43.5156 12.1289 43.5156C8.32031 43.5156 5.25391 46.5625 5.25391 50.3906ZM23.3984 50.3906C23.3984 54.2188 26.4648 57.2852 30.293 57.2852C34.1016 57.2852 37.1875 54.2188 37.1875 50.3906C37.1875 46.5625 34.1016 43.5156 30.293 43.5156C26.4648 43.5156 23.3984 46.5625 23.3984 50.3906ZM34.5117 4.78516C37.832 7.92969 40.1367 12.7344 40.1367 17.9492C40.1367 27.9297 31.7969 36.2695 21.2305 36.2695C10.6641 36.2695 2.32422 27.9297 2.32422 17.9492C2.32422 12.7344 4.62891 7.92969 7.96875 4.78516C9.31641 3.51562 10.8203 2.92969 12.832 2.92969L29.6289 2.92969C31.6406 2.92969 33.1445 3.51562 34.5117 4.78516ZM12.0117 26.5234C12.0117 28.8672 13.8672 30.7422 16.2305 30.7422C18.5742 30.7422 20.4492 28.8672 20.4492 26.5234C20.4492 24.1602 18.5742 22.3047 16.2305 22.3047C13.8672 22.3047 12.0117 24.1602 12.0117 26.5234ZM22.0117 26.5234C22.0117 28.8672 23.8867 30.7422 26.2305 30.7422C28.5938 30.7422 30.4492 28.8672 30.4492 26.5234C30.4492 24.1602 28.5938 22.3047 26.2305 22.3047C23.8867 22.3047 22.0117 24.1602 22.0117 26.5234ZM6.99219 17.8906C6.99219 20.2344 8.86719 22.1289 11.2109 22.1289C13.5742 22.1289 15.4297 20.2344 15.4297 17.8906C15.4297 15.5664 13.5742 13.6719 11.2109 13.6719C8.86719 13.6719 6.99219 15.5664 6.99219 17.8906ZM17.0117 17.8906C17.0117 20.2344 18.8867 22.1289 21.2305 22.1289C23.5742 22.1289 25.4492 20.2344 25.4492 17.8906C25.4492 15.5664 23.5742 13.6719 21.2305 13.6719C18.8867 13.6719 17.0117 15.5664 17.0117 17.8906ZM27.0312 17.8906C27.0312 20.2344 28.8867 22.1289 31.25 22.1289C33.5938 22.1289 35.4688 20.2344 35.4688 17.8906C35.4688 15.5664 33.5938 13.6719 31.25 13.6719C28.8867 13.6719 27.0312 15.5664 27.0312 17.8906ZM13.2422 10.5078C13.2422 12.168 14.5703 13.4766 16.2305 13.4766C17.8711 13.4766 19.1992 12.168 19.1992 10.5078C19.1992 8.86719 17.8711 7.53906 16.2305 7.53906C14.5703 7.53906 13.2422 8.86719 13.2422 10.5078ZM23.2617 10.5078C23.2617 12.168 24.5898 13.4766 26.2305 13.4766C27.8906 13.4766 29.2188 12.168 29.2188 10.5078C29.2188 8.86719 27.8906 7.53906 26.2305 7.53906C24.5898 7.53906 23.2617 8.86719 23.2617 10.5078Z" fill="black" fill-opacity="0.85"/>
 </g>
</svg>
