<?xml version="1.0" encoding="UTF-8"?>
<!--Generator: Apple Native CoreSVG 326-->
<!DOCTYPE svg
PUBLIC "-//W3C//DTD SVG 1.1//EN"
       "http://www.w3.org/Graphics/SVG/1.1/DTD/svg11.dtd">
<svg version="1.1" xmlns="http://www.w3.org/2000/svg" xmlns:xlink="http://www.w3.org/1999/xlink" viewBox="0 0 51.25 50.918">
 <g>
  <rect height="50.918" opacity="0" width="51.25" x="0" y="0"/>
  <path d="M50.8789 25.4688C50.8789 39.4922 39.4531 50.918 25.4297 50.918C11.4258 50.918 0 39.4922 0 25.4688C0 11.4648 11.4258 0.0390625 25.4297 0.0390625C39.4531 0.0390625 50.8789 11.4648 50.8789 25.4688ZM12.5586 12.5977C12.1484 13.0273 12.168 13.7109 12.5586 14.1016L36.8164 38.3398C37.207 38.75 37.9102 38.75 38.3203 38.3398C38.7305 37.8906 38.7305 37.2461 38.3203 36.8359L14.082 12.5977C13.6719 12.168 13.0078 12.168 12.5586 12.5977ZM8.35938 25.4883C8.35938 28.0273 15.4883 36.25 25.4297 36.25C27.537 36.25 29.513 35.8863 31.3092 35.274L28.0551 32.0199C27.2439 32.3557 26.3568 32.5391 25.4297 32.5391C21.5039 32.5391 18.3594 29.3164 18.3594 25.4883C18.3547 24.5452 18.5337 23.6483 18.867 22.8318L14.3146 18.2795C10.5829 20.8256 8.35938 24.0495 8.35938 25.4883ZM19.6023 15.68L22.8429 18.9232C23.6414 18.6072 24.5149 18.4375 25.4297 18.4375C29.3164 18.4375 32.5 21.5625 32.5 25.4883C32.5 26.3978 32.3203 27.2731 31.9893 28.0769L36.5729 32.6642C40.2854 30.1195 42.5 26.9113 42.5 25.4883C42.5 22.9297 35.4102 14.7266 25.4297 14.7266C23.3417 14.7266 21.3839 15.0814 19.6023 15.68Z" fill="black" fill-opacity="0.85"/>
 </g>
</svg>
