<?xml version="1.0" encoding="UTF-8"?>
<!--Generator: Apple Native CoreSVG 326-->
<!DOCTYPE svg
PUBLIC "-//W3C//DTD SVG 1.1//EN"
       "http://www.w3.org/Graphics/SVG/1.1/DTD/svg11.dtd">
<svg version="1.1" xmlns="http://www.w3.org/2000/svg" xmlns:xlink="http://www.w3.org/1999/xlink" viewBox="0 0 51.25 50.918">
 <g>
  <rect height="50.918" opacity="0" width="51.25" x="0" y="0"/>
  <path d="M25.4297 50.8789C39.4727 50.8789 50.8789 39.4922 50.8789 25.4492C50.8789 11.4062 39.4727 0 25.4297 0C11.3867 0 0 11.4062 0 25.4492C0 39.4922 11.3867 50.8789 25.4297 50.8789ZM25.4297 47.2461C13.3789 47.2461 3.63281 37.5 3.63281 25.4492C3.63281 13.3984 13.3789 3.65234 25.4297 3.65234C37.4805 3.65234 47.2266 13.3984 47.2266 25.4492C47.2266 37.5 37.4805 47.2461 25.4297 47.2461Z" fill="black" fill-opacity="0.85"/>
  <path d="M15.0391 37.8906C15.0391 39.1016 16.3867 39.7461 18.9844 39.7461C22.8906 39.7461 25.3125 37.4805 25.918 33.1836L26.9531 25.8594L34.0039 25.8594C34.9414 25.8594 35.6055 25.2148 35.6055 24.3359C35.6055 23.4375 34.9023 22.7734 33.9648 22.7734L27.4219 22.7734L28.0469 18.2031C28.457 15.3906 29.5703 14.1992 31.6992 14.1992C33.2617 14.1992 33.7695 14.375 34.4141 14.375C35.2734 14.375 35.8398 13.7891 35.8398 12.9492C35.8398 11.7383 34.3945 11.0938 31.9141 11.0938C27.9883 11.0938 25.5664 13.418 24.9609 17.6562L24.2578 22.7734L18.1641 22.7734C17.2656 22.7734 16.582 23.4375 16.582 24.3359C16.582 25.2148 17.2656 25.8594 18.1836 25.8594L23.8281 25.8594L22.832 32.6758C22.4414 35.4688 21.3281 36.6602 19.1797 36.6602C17.6562 36.6602 17.2461 36.4453 16.4844 36.4453C15.5859 36.4453 15.0391 37.0312 15.0391 37.8906Z" fill="black" fill-opacity="0.85"/>
 </g>
</svg>
