<?xml version="1.0" encoding="UTF-8"?>
<!--Generator: Apple Native CoreSVG 326-->
<!DOCTYPE svg
PUBLIC "-//W3C//DTD SVG 1.1//EN"
       "http://www.w3.org/Graphics/SVG/1.1/DTD/svg11.dtd">
<svg version="1.1" xmlns="http://www.w3.org/2000/svg" xmlns:xlink="http://www.w3.org/1999/xlink" viewBox="0 0 46.2891 45.918">
 <g>
  <rect height="45.918" opacity="0" width="46.2891" x="0" y="0"/>
  <path d="M45.918 7.53906L45.918 38.3984C45.918 43.3594 43.3594 45.918 38.3008 45.918L7.59766 45.918C2.55859 45.918 0 43.3984 0 38.3984L0 7.53906C0 2.53906 2.55859 0 7.59766 0L38.3008 0C43.3594 0 45.918 2.55859 45.918 7.53906ZM17.2461 11.0742C16.1133 11.0742 15.5078 11.8945 15.5078 13.0859L15.5078 32.7344C15.5078 33.9062 16.1328 34.7266 17.2656 34.7266C18.4375 34.7266 19.0625 33.9453 19.0625 32.7344L19.0625 24.2773L28.6719 24.2773C29.5508 24.2773 30.1758 23.7695 30.1758 22.8906C30.1758 21.9727 29.5508 21.4453 28.6719 21.4453L19.0625 21.4453L19.0625 14.043L29.6484 14.043C30.5469 14.043 31.1523 13.4375 31.1523 12.5586C31.1523 11.6406 30.5469 11.0742 29.6484 11.0742Z" fill="black" fill-opacity="0.85"/>
 </g>
</svg>
