<?xml version="1.0" encoding="UTF-8"?>
<!--Generator: Apple Native CoreSVG 326-->
<!DOCTYPE svg
PUBLIC "-//W3C//DTD SVG 1.1//EN"
       "http://www.w3.org/Graphics/SVG/1.1/DTD/svg11.dtd">
<svg version="1.1" xmlns="http://www.w3.org/2000/svg" xmlns:xlink="http://www.w3.org/1999/xlink" viewBox="0 0 75.8984 37.7539">
 <g>
  <rect height="37.7539" opacity="0" width="75.8984" x="0" y="0"/>
  <path d="M12.6703 11.2891L7.89062 11.2891C5.09766 11.2891 3.45703 13.125 3.45703 16.0352C3.45703 21.4997 7.27855 25.5159 12.9449 25.9344C13.2126 27.1852 13.7576 28.353 14.5295 29.4336L14.3359 29.4336C5.74219 29.4336 0 23.9648 0 16.0352C0 10.957 2.92969 7.83203 7.89062 7.83203L13.5454 7.83203C12.9803 8.88431 12.6841 10.0383 12.6703 11.2891ZM75.5273 16.0352C75.5273 23.9648 69.7852 29.4336 61.2109 29.4336L60.9817 29.4336C61.752 28.3533 62.296 27.1857 62.5633 25.9352C68.2403 25.5248 72.0703 21.5058 72.0703 16.0352C72.0703 13.125 70.4492 11.2891 67.6367 11.2891L62.8375 11.2891C62.8238 10.0383 62.5282 8.88431 61.9642 7.83203L67.6367 7.83203C72.5977 7.83203 75.5273 10.957 75.5273 16.0352Z" fill="black" fill-opacity="0.85"/>
  <path d="M62.8516 11.4648L62.8516 23.7109C62.8516 32.0312 52.5 37.6953 37.7734 37.6953C23.0273 37.6953 12.6562 32.0312 12.6562 23.7109L12.6562 11.4648C12.6562 4.17969 21.7773 0 37.7734 0C53.75 0 62.8516 4.17969 62.8516 11.4648ZM26.3672 21.1719C25.3906 21.1719 24.5898 21.9922 24.5898 22.9883C24.5898 23.9453 25.3906 24.7656 26.3672 24.7656L49.1797 24.7656C50.1758 24.7656 50.9961 23.9453 50.9961 22.9883C50.9961 21.9922 50.1758 21.1719 49.1797 21.1719ZM26.3672 11.7188C25.3906 11.7188 24.5898 12.5391 24.5898 13.5156C24.5898 14.4922 25.3906 15.3125 26.3672 15.3125L49.1797 15.3125C50.1758 15.3125 50.9961 14.4922 50.9961 13.5156C50.9961 12.5391 50.1758 11.7188 49.1797 11.7188Z" fill="black" fill-opacity="0.85"/>
 </g>
</svg>
