<?xml version="1.0" encoding="UTF-8"?>
<!--Generator: Apple Native CoreSVG 326-->
<!DOCTYPE svg
PUBLIC "-//W3C//DTD SVG 1.1//EN"
       "http://www.w3.org/Graphics/SVG/1.1/DTD/svg11.dtd">
<svg version="1.1" xmlns="http://www.w3.org/2000/svg" xmlns:xlink="http://www.w3.org/1999/xlink" viewBox="0 0 55.3809 55.0101">
 <g>
  <rect height="55.0101" opacity="0" width="55.3809" x="0" y="0"/>
  <path d="M32.5635 38.8171L32.5635 47.3586C32.5635 49.9758 33.5205 50.9914 36.001 50.9914C38.2926 50.9986 40.6591 50.2326 42.7294 48.9874L45.1154 51.3743C42.4002 53.2 39.1821 54.3312 36.001 54.3312C31.6846 54.3312 29.2822 51.8117 29.2822 47.3586L29.2822 35.5345ZM6.45269 12.6953C6.18014 13.4669 6.04004 14.2531 6.04004 15.0343C6.04004 19.2077 10.0384 21.7232 17.7799 24.0272L28.2693 34.5211C25.2546 46.0509 21.6053 52.2609 15.0049 52.2609C7.81738 52.2609 0.668945 44.0383 0.668945 36.0109C0.668945 31.714 3.14941 29.2726 7.62207 29.2726L21.7432 29.2726L21.7432 28.6281C9.37988 25.5422 2.73926 21.8703 2.73926 15.0343C2.73926 13.3873 3.17003 11.7422 3.94727 10.1888ZM7.62207 32.5734C5.00488 32.5734 3.96973 33.55 3.96973 36.0109C3.96973 42.2218 9.59473 48.9406 15.0049 48.9406C19.9463 48.9406 22.5635 43.3351 25.2783 32.5734ZM54.3018 18.9797C54.3018 23.2961 51.8018 25.6984 47.3291 25.6984L33.1494 25.6984L33.1494 26.3625C45.5322 29.4484 52.251 33.1203 52.251 39.9758C52.251 41.6353 51.8116 43.2938 51.0213 44.8593L48.506 42.344C48.7864 41.5634 48.9307 40.7673 48.9307 39.9758C48.9307 35.7906 44.9096 33.2726 37.1252 30.9632L26.679 20.517C29.6979 8.93423 33.3483 2.72966 39.9463 2.72966C47.1338 2.72966 54.3018 10.9718 54.3018 18.9797ZM29.6924 22.4172L47.3291 22.4172C49.9463 22.4172 51.001 21.4601 51.001 18.9797C51.001 12.7883 45.3564 6.04997 39.9463 6.04997C35.0049 6.04997 32.3877 11.6554 29.6924 22.4172ZM25.708 7.65153L25.708 19.5461L22.4072 16.2453L22.4072 7.65153C22.4072 5.03434 21.4307 3.97966 18.9697 3.97966C16.6554 3.97966 14.2706 4.76335 12.1901 6.02814L9.82547 3.66352C12.5417 1.82734 15.7697 0.686661 18.9697 0.678876C23.2666 0.678876 25.708 3.17888 25.708 7.65153Z" fill="black" fill-opacity="0.85"/>
  <path d="M49.3994 51.8117C50.0439 52.4562 51.1182 52.4367 51.7432 51.7922C52.4072 51.1281 52.4072 50.0929 51.7432 49.4289L5.57129 3.23747C4.92676 2.59294 3.87207 2.57341 3.18848 3.23747C2.56348 3.882 2.56348 4.95622 3.18848 5.60075Z" fill="black" fill-opacity="0.85"/>
 </g>
</svg>
