<?xml version="1.0" encoding="UTF-8"?>
<!--Generator: Apple Native CoreSVG 326-->
<!DOCTYPE svg
PUBLIC "-//W3C//DTD SVG 1.1//EN"
       "http://www.w3.org/Graphics/SVG/1.1/DTD/svg11.dtd">
<svg version="1.1" xmlns="http://www.w3.org/2000/svg" xmlns:xlink="http://www.w3.org/1999/xlink" viewBox="0 0 47.9688 53.3936">
 <g>
  <rect height="53.3936" opacity="0" width="47.9688" x="0" y="0"/>
  <path d="M6.69922 15.0073C2.98828 15.0073 0 11.9214 0 8.32765C0 4.57765 2.98828 1.53078 6.69922 1.53078C10.4297 1.53078 13.418 4.57765 13.418 8.32765C13.418 12.0581 10.4297 15.0073 6.69922 15.0073ZM46.6797 50.4761C45.3906 51.8237 43.1836 51.7066 41.6016 50.0855L30.9375 39.0503C30.5664 38.6792 30.3125 38.5816 29.7656 38.7964L21.3086 42.0191C15.957 44.0503 10.9766 42.1753 8.57422 37.7808L3.32031 28.2495C1.23047 24.4214 1.89453 20.5152 5.52734 18.6011C9.02344 16.6675 12.6562 18.1128 14.7656 21.9995L21.7383 34.6948L27.6562 32.5464C30.5859 31.4722 33.0273 31.8042 35.3516 34.2261L46.4453 45.7105C48.0078 47.2925 47.8516 49.2847 46.6797 50.4761Z" fill="black" fill-opacity="0.85"/>
  <path d="M47.5977 8.46437C47.5977 7.44875 46.7969 6.64797 45.7617 6.64797L34.0234 6.64797L34.0234 1.96047C34.0234 0.0659348 32.1094-0.578596 30.8008 0.573747L23.3398 7.05812C22.3633 7.9175 22.3828 9.08937 23.3398 9.90968L30.8008 16.4136C32.168 17.6245 34.0234 16.8237 34.0234 15.0269L34.0234 10.2808L45.7617 10.2808C46.7969 10.2808 47.5977 9.48 47.5977 8.46437Z" fill="black" fill-opacity="0.85"/>
 </g>
</svg>
