<?xml version="1.0" encoding="UTF-8"?>
<!--Generator: Apple Native CoreSVG 326-->
<!DOCTYPE svg
PUBLIC "-//W3C//DTD SVG 1.1//EN"
       "http://www.w3.org/Graphics/SVG/1.1/DTD/svg11.dtd">
<svg version="1.1" xmlns="http://www.w3.org/2000/svg" xmlns:xlink="http://www.w3.org/1999/xlink" viewBox="0 0 51.25 50.918">
 <g>
  <rect height="50.918" opacity="0" width="51.25" x="0" y="0"/>
  <path d="M25.4297 50.8789C39.4727 50.8789 50.8789 39.4922 50.8789 25.4492C50.8789 11.4062 39.4727 0 25.4297 0C11.3867 0 0 11.4062 0 25.4492C0 39.4922 11.3867 50.8789 25.4297 50.8789ZM25.4297 47.2461C13.3789 47.2461 3.63281 37.5 3.63281 25.4492C3.63281 13.3984 13.3789 3.65234 25.4297 3.65234C37.4805 3.65234 47.2266 13.3984 47.2266 25.4492C47.2266 37.5 37.4805 47.2461 25.4297 47.2461Z" fill="black" fill-opacity="0.85"/>
  <path d="M19.2578 40.2344L23.6523 35C24.0625 34.4922 24.1211 34.375 24.2969 33.8477L24.6484 32.7734L22.3242 29.8438L21.6016 33.2227L17.2656 38.3789C15.8789 39.9805 18.1055 41.582 19.2578 40.2344ZM29.9805 39.8242C30.8594 41.6211 33.5547 40.5078 32.5586 38.5547L29.5898 32.5C29.3555 32.0508 29.0625 31.582 28.7695 31.1719L26.8555 28.457L26.9922 28.0664C27.5195 26.5625 27.7148 25.6445 27.8125 24.1406L28.1055 19.9219C28.2422 17.8906 27.0508 16.4062 25 16.4062C23.4766 16.4062 22.4609 17.1875 21.0156 18.5742L18.7891 20.7812C18.0664 21.4844 17.8125 22.0703 17.7344 23.0078L17.5 26.4648C17.4414 27.3242 17.9102 27.9297 18.6914 27.9688C19.5117 28.0273 19.9805 27.5586 20.0586 26.6406L20.3906 22.832L21.4648 21.875C21.8555 21.5234 22.4023 21.7188 22.3633 22.168L22.1289 25.3516C22.0117 26.9727 22.3828 27.7539 23.4961 29.1406L26.4453 32.8516C26.7578 33.2227 26.7969 33.3594 26.9141 33.6133ZM35.0586 22.1289L31.6797 22.1289L29.4727 19.707L29.2383 23.1641L30.1562 24.1016C30.6445 24.5703 31.0352 24.707 31.8945 24.707L35.0586 24.707C35.918 24.707 36.4844 24.2188 36.4844 23.418C36.4844 22.6367 35.918 22.1289 35.0586 22.1289ZM26.6406 15.0586C28.3398 15.0586 29.707 13.6914 29.707 11.9922C29.707 10.2734 28.3398 8.90625 26.6406 8.90625C24.9219 8.90625 23.5352 10.2734 23.5352 11.9922C23.5352 13.6914 24.9219 15.0586 26.6406 15.0586Z" fill="black" fill-opacity="0.85"/>
 </g>
</svg>
