<?xml version="1.0" encoding="UTF-8"?>
<!--Generator: Apple Native CoreSVG 326-->
<!DOCTYPE svg
PUBLIC "-//W3C//DTD SVG 1.1//EN"
       "http://www.w3.org/Graphics/SVG/1.1/DTD/svg11.dtd">
<svg version="1.1" xmlns="http://www.w3.org/2000/svg" xmlns:xlink="http://www.w3.org/1999/xlink" viewBox="0 0 47.9492 50.332">
 <g>
  <rect height="50.332" opacity="0" width="47.9492" x="0" y="0"/>
  <path d="M6.69922 13.4766C10.4297 13.4766 13.418 10.5273 13.418 6.79688C13.418 3.04688 10.4297 0 6.69922 0C2.98828 0 0 3.04688 0 6.79688C0 10.3906 2.98828 13.4766 6.69922 13.4766ZM46.6797 48.9453C47.8516 47.7539 48.0078 45.7617 46.4453 44.1797L35.3516 32.6953C33.0273 30.2734 30.5859 29.9414 27.6562 31.0156L21.7383 33.1641L14.7656 20.4688C12.6562 16.582 9.02344 15.1367 5.52734 17.0703C1.89453 18.9844 1.23047 22.8906 3.32031 26.7188L8.57422 36.25C10.9766 40.6445 15.957 42.5195 21.3086 40.4883L29.7656 37.2656C30.3125 37.0508 30.5664 37.1484 30.9375 37.5195L41.6016 48.5547C43.1836 50.1758 45.3906 50.293 46.6797 48.9453Z" fill="black" fill-opacity="0.85"/>
  <path d="M26.7188 23.9844C27.5 23.9844 28.0469 23.6133 28.3789 22.5977L30.3711 16.9336L39.5898 16.9336L41.582 22.5977C41.9336 23.6133 42.4609 23.9844 43.2812 23.9844C44.2188 23.9844 44.8633 23.3789 44.8633 22.5C44.8633 22.168 44.8047 21.8555 44.6289 21.3867L37.3828 1.95312C36.9727 0.839844 36.1328 0.273438 34.9805 0.273438C33.8086 0.273438 33.0078 0.839844 32.5977 1.95312L25.332 21.3867C25.1758 21.8555 25.0977 22.168 25.0977 22.4805C25.0977 23.3789 25.7227 23.9844 26.7188 23.9844ZM31.2695 14.2773L34.8633 4.10156L35.0977 4.10156L38.6914 14.2773Z" fill="black" fill-opacity="0.85"/>
 </g>
</svg>
