<?xml version="1.0" encoding="UTF-8"?>
<!--Generator: Apple Native CoreSVG 326-->
<!DOCTYPE svg
PUBLIC "-//W3C//DTD SVG 1.1//EN"
       "http://www.w3.org/Graphics/SVG/1.1/DTD/svg11.dtd">
<svg version="1.1" xmlns="http://www.w3.org/2000/svg" xmlns:xlink="http://www.w3.org/1999/xlink" viewBox="0 0 51.25 50.918">
 <g>
  <rect height="50.918" opacity="0" width="51.25" x="0" y="0"/>
  <path d="M50.8789 25.4492C50.8789 39.4531 39.4531 50.8789 25.4297 50.8789C11.4258 50.8789 0 39.4531 0 25.4492C0 11.4258 11.4258 0 25.4297 0C39.4531 0 50.8789 11.4258 50.8789 25.4492ZM21.9727 16.9727L13.1641 18.7695C10 19.4336 9.12109 23.2031 11.3867 25.2344L16.8945 30.0781L16.8945 37.6172C16.8945 38.418 17.5781 39.1016 18.3984 39.1016C19.1992 39.1016 19.9023 38.418 19.9023 37.6172L19.9023 29.5117C19.9023 28.9453 19.7852 28.6719 19.4336 28.3008L15.2344 24.0625C15 23.8281 15.1172 23.4961 15.3906 23.457L21.3086 22.3438C21.8945 22.2461 22.1289 22.4219 22.1289 22.9492L22.1289 26.3867C22.1289 27.207 22.793 27.8711 23.6133 27.8711L30.332 27.8711C31.1719 27.8711 31.8359 27.207 31.8359 26.3867C31.8359 25.5664 31.1719 24.8828 30.332 24.8828L25.1172 24.8828L25.1172 19.5312C25.1172 17.7539 23.6133 16.6016 21.9727 16.9727ZM13.3789 33.3594L10.918 33.3594C10.4492 33.3594 10.0781 33.75 10.0781 34.2188C10.0781 34.6484 10.4492 35.0391 10.918 35.0391L13.3789 35.0391C14.1992 35.0391 14.9805 35 15.7031 34.8828L15.7031 33.1641C14.9805 33.2812 14.2188 33.3594 13.3789 33.3594ZM38.3398 18.3789C33.1641 18.3789 30.0586 19.7656 26.7188 23.6914L28.8477 23.6914C28.9258 23.6914 29.0039 23.6914 29.043 23.6914C31.6406 21.0352 34.2773 20.0781 38.3398 20.0781L40 20.0781L40 31.8359L38.3984 31.8359C37.8711 31.8359 37.4805 31.582 37.2852 31.1523L35.9961 28.5742C35.7422 28.125 35.293 28.0273 34.9414 28.125C34.5117 28.2812 34.1797 28.75 34.4336 29.3359L35.7617 31.9336C36.25 32.9102 37.2656 33.5352 38.3984 33.5352L40.4688 33.5352C41.2109 33.5352 41.6797 33.0469 41.6797 32.3438L41.6797 19.5312C41.6797 18.8672 41.2109 18.3789 40.5469 18.3789ZM21.0742 30.7031L21.0742 32.9102C22.6367 31.8359 23.8086 30.4688 24.8828 29.043L23.6328 29.043C23.3789 29.043 23.0664 28.9844 22.8125 28.9062C22.2656 29.5898 21.7188 30.1367 21.0742 30.7031ZM25.0586 14.9023C25.0586 16.6406 26.4648 18.0273 28.1836 18.0273C29.8828 18.0273 31.2695 16.6406 31.2695 14.9023C31.2695 13.2031 29.8828 11.7969 28.1836 11.7969C26.4648 11.7969 25.0586 13.2031 25.0586 14.9023Z" fill="black" fill-opacity="0.85"/>
 </g>
</svg>
