<?xml version="1.0" encoding="UTF-8"?>
<!--Generator: Apple Native CoreSVG 326-->
<!DOCTYPE svg
PUBLIC "-//W3C//DTD SVG 1.1//EN"
       "http://www.w3.org/Graphics/SVG/1.1/DTD/svg11.dtd">
<svg version="1.1" xmlns="http://www.w3.org/2000/svg" xmlns:xlink="http://www.w3.org/1999/xlink" viewBox="0 0 53.4942 50.7227">
 <g>
  <rect height="50.7227" opacity="0" width="53.4942" x="0" y="0"/>
  <path d="M15.1553 10.8203C18.1436 10.8203 20.5654 8.39844 20.5654 5.39062C20.5654 2.42188 18.1436 0 15.1553 0C12.1865 0 9.7256 2.42188 9.7256 5.39062C9.7256 8.39844 12.1865 10.8203 15.1553 10.8203ZM51.7959 45.4688L35.4678 36.6406L26.0342 30.0781C25.3311 29.5898 24.6865 28.9844 24.1201 28.3008C25.0772 27.7148 25.4678 26.6211 25.1944 25.5469L23.3389 18.0273C22.6944 15.3711 20.292 13.5352 17.5576 13.5352L11.6592 13.5352C9.86232 13.5352 8.61232 13.9648 7.42092 15.1562L0.721698 21.8555C-0.0986143 22.6758-0.215802 23.9258 0.350604 24.9219L5.0381 33.1836L5.0381 47.6758C5.0381 49.043 6.19045 50.2148 7.57717 50.2148C8.96389 50.2148 10.1162 49.043 10.1162 47.6758L10.1162 35.2344L24.5498 36.2695L33.2803 41.2109L49.4131 49.8828C50.8975 50.6836 52.3233 49.9414 52.8506 48.8867C53.4756 47.6562 53.0069 46.1133 51.7959 45.4688ZM5.68264 24.082L10.0381 19.6875L13.4561 28.457L10.7608 29.9609L9.06154 29.9609Z" fill="black" fill-opacity="0.85"/>
 </g>
</svg>
