<?xml version="1.0" encoding="UTF-8"?>
<!--Generator: Apple Native CoreSVG 326-->
<!DOCTYPE svg
PUBLIC "-//W3C//DTD SVG 1.1//EN"
       "http://www.w3.org/Graphics/SVG/1.1/DTD/svg11.dtd">
<svg version="1.1" xmlns="http://www.w3.org/2000/svg" xmlns:xlink="http://www.w3.org/1999/xlink" viewBox="0 0 65.1126 58.418">
 <g>
  <rect height="58.418" opacity="0" width="65.1126" x="0" y="0"/>
  <path d="M27.4489 19.0039L31.2043 24.5142L29.4411 27.1094C29.1286 27.5391 28.8161 27.9883 28.5817 28.457C28.5123 28.5794 28.4501 28.7042 28.3957 28.8311C27.1281 27.0659 25.6155 24.9407 24.6364 23.5742C24.402 23.2422 23.9528 23.3984 23.9528 23.7695C23.9528 26.0938 24.0895 31.9141 24.4997 34.7266C24.9879 37.832 28.6012 52.8711 28.777 53.5352C29.2262 55.0781 28.2692 56.5039 26.7067 56.5039C25.5348 56.5039 24.7731 55.8594 24.3629 54.3359C23.5036 51.2891 20.9645 40.8984 20.1637 38.3789C19.6168 36.6211 19.1676 35.8984 18.152 35.8984C17.1168 35.8984 16.6872 36.6211 16.1403 38.3789C15.3395 40.8984 12.7809 51.2891 11.9411 54.3359C11.5309 55.8594 10.7497 56.5039 9.59731 56.5039C8.03481 56.5039 7.07778 55.0781 7.50747 53.5352C7.68325 52.8711 11.3161 37.832 11.7848 34.7266C12.195 31.9141 12.3317 26.1133 12.3317 23.7891C12.3317 23.3984 11.8825 23.2617 11.6481 23.5742C9.89028 26.0742 6.35512 31.0352 5.69106 31.8359C4.9684 32.6953 3.79653 32.8711 2.81997 32.3242C1.56997 31.6602 1.277 30.332 1.80434 29.3945C2.01919 29.0039 2.29262 28.6133 2.58559 28.2031L8.85512 19.0039C11.0426 15.8203 13.7379 14.707 18.152 14.707C22.5465 14.707 25.2614 15.8203 27.4489 19.0039ZM23.445 6.71875C23.445 9.66797 21.1012 12.0117 18.152 12.0117C15.2028 12.0117 12.859 9.66797 12.859 6.71875C12.859 3.76953 15.2028 1.42578 18.152 1.42578C21.1012 1.42578 23.445 3.76953 23.445 6.71875Z" fill="black" fill-opacity="0.85"/>
  <path d="M46.5895 12.0117C49.5387 12.0117 51.8825 9.66797 51.8825 6.71875C51.8825 3.76953 49.5387 1.42578 46.5895 1.42578C43.6403 1.42578 41.3161 3.76953 41.3161 6.71875C41.3161 9.66797 43.6403 12.0117 46.5895 12.0117ZM46.5895 35.8984C47.6247 35.8984 48.0543 36.6211 48.6012 38.3789C49.402 40.8984 51.9606 51.2891 52.8004 54.3359C53.2106 55.8594 53.9918 56.5039 55.1442 56.5039C56.7067 56.5039 57.6637 55.0781 57.234 53.5352C57.0582 52.8711 53.4254 37.832 52.9567 34.7266C52.5465 31.9141 52.4098 26.0938 52.4098 23.7695C52.4098 23.3984 52.8395 23.2422 53.0739 23.5742C54.8512 26.0547 58.3864 31.0352 59.0504 31.8359C59.7731 32.6953 60.945 32.8711 61.9215 32.3242C63.1715 31.6602 63.4645 30.332 62.9372 29.3945C62.7223 29.0039 62.4489 28.6133 62.1559 28.2031L55.8864 19.0039C53.6989 15.8203 51.0036 14.707 46.5895 14.707C42.1754 14.707 39.4801 15.8203 37.2926 19.0039L31.0231 28.2031C30.7301 28.6133 30.4567 29.0039 30.2418 29.3945C29.734 30.332 30.0075 31.6602 31.2575 32.3242C32.234 32.8711 33.4059 32.6953 34.1481 31.8359C34.7926 31.0352 38.3278 26.0742 40.1051 23.5742C40.32 23.2617 40.7692 23.3984 40.7692 23.7891C40.7692 26.1133 40.652 31.9141 40.2223 34.7266C39.7536 37.832 36.1403 52.8711 35.945 53.5352C35.5153 55.0781 36.4723 56.5039 38.0348 56.5039C39.1872 56.5039 39.9684 55.8594 40.3786 54.3359C41.2184 51.2891 43.777 40.8984 44.5778 38.3789C45.1247 36.6211 45.5543 35.8984 46.5895 35.8984Z" fill="black" fill-opacity="0.85"/>
 </g>
</svg>
