<?xml version="1.0" encoding="UTF-8"?>
<!--Generator: Apple Native CoreSVG 326-->
<!DOCTYPE svg
PUBLIC "-//W3C//DTD SVG 1.1//EN"
       "http://www.w3.org/Graphics/SVG/1.1/DTD/svg11.dtd">
<svg version="1.1" xmlns="http://www.w3.org/2000/svg" xmlns:xlink="http://www.w3.org/1999/xlink" viewBox="0 0 54.313 49.0039">
 <g>
  <rect height="49.0039" opacity="0" width="54.313" x="0" y="0"/>
  <path d="M35.8577 10.8203C38.8655 10.8203 41.2678 8.39844 41.2678 5.41016C41.2678 2.40234 38.8655 0 35.8577 0C32.8694 0 30.4475 2.40234 30.4475 5.41016C30.4475 8.39844 32.8694 10.8203 35.8577 10.8203ZM16.4827 43.2617C17.6546 43.9648 19.3147 43.6133 20.0569 42.4219L26.1507 32.6562L32.7717 33.0273L28.6311 39.6484C27.8499 40.8789 28.2014 42.5586 29.471 43.2617C30.7014 43.9648 32.2639 43.6328 33.0061 42.4219L39.4319 32.168C40.4866 30.4688 39.6077 28.3008 37.2639 28.0469L26.4436 26.8359C25.3694 26.7188 24.9788 25.6055 25.5061 24.8242L29.9788 18.0859C30.2717 17.6562 30.8382 17.5391 31.2483 17.8125L47.6741 27.6758C48.885 28.3984 50.5647 28.0078 51.2483 26.8164C51.9514 25.5469 51.5608 23.9648 50.3303 23.2227L17.8889 3.75C17.4592 3.49609 17.0296 3.39844 16.5608 3.39844L6.17019 3.39844C4.72487 3.39844 3.553 4.55078 3.553 5.95703C3.553 7.38281 4.72487 8.57422 6.17019 8.57422L15.8186 8.57422L20.3694 11.2891C20.8772 11.582 20.9944 12.1484 20.6819 12.6562L15.0569 21.0742C12.0296 25.5859 14.5296 31.6406 20.2132 32.3438L15.6428 39.6484C14.8616 40.8789 15.2132 42.4805 16.4827 43.2617ZM7.22487 48.9453L46.7171 48.9453C49.471 48.9453 51.678 48.3789 53.4163 46.8945C54.0803 46.3477 54.0608 45.625 53.6702 45.1172C53.2991 44.5898 52.5178 44.4141 51.8342 44.9609C50.4671 46.0352 49.0803 46.4844 46.7171 46.4844L7.22487 46.4844C4.88112 46.4844 3.47487 46.0352 2.12722 44.9609C1.48269 44.4727 0.779562 44.5703 0.369406 45C-0.118876 45.4883-0.177469 46.2891 0.525656 46.8945C2.26394 48.3789 4.4905 48.9453 7.22487 48.9453Z" fill="black" fill-opacity="0.85"/>
 </g>
</svg>
