<?xml version="1.0" encoding="UTF-8"?>
<!--Generator: Apple Native CoreSVG 326-->
<!DOCTYPE svg
PUBLIC "-//W3C//DTD SVG 1.1//EN"
       "http://www.w3.org/Graphics/SVG/1.1/DTD/svg11.dtd">
<svg version="1.1" xmlns="http://www.w3.org/2000/svg" xmlns:xlink="http://www.w3.org/1999/xlink" viewBox="0 0 65.6721 50.332">
 <g>
  <rect height="50.332" opacity="0" width="65.6721" x="0" y="0"/>
  <path d="M49.7599 13.4766C53.4708 13.4766 56.4396 10.3906 56.4396 6.79688C56.4396 3.04688 53.4708 0 49.7599 0C46.0099 0 43.0216 3.04688 43.0216 6.79688C43.0216 10.5273 46.0099 13.4766 49.7599 13.4766ZM9.75988 48.9453C11.0489 50.293 13.256 50.1758 14.838 48.5547L25.5216 37.5195C25.8732 37.1484 26.1271 37.0508 26.6739 37.2656L35.1505 40.4883C40.4825 42.5195 45.463 40.6445 47.8849 36.25L53.1193 26.7188C55.2286 22.8906 54.545 18.9844 50.9318 17.0703C47.4161 15.1367 43.7833 16.582 41.6739 20.4688L34.7208 33.1641L28.8028 31.0156C25.8536 29.9414 23.4122 30.2734 21.088 32.6953L9.99425 44.1797C8.45128 45.7617 8.588 47.7539 9.75988 48.9453Z" fill="black" fill-opacity="0.85"/>
  <path d="M11.9278 9.80469C11.9278 10.7227 12.631 11.4258 13.5294 11.4258L23.4708 11.4258L23.4708 15.4297C23.4708 16.9727 25.0724 17.6758 26.2443 16.6211L32.631 11.0547C33.4513 10.3125 33.4318 9.33594 32.631 8.61328L26.2443 3.04688C25.1114 2.03125 23.4708 2.61719 23.4708 4.23828L23.4708 8.24219L13.5294 8.24219C12.631 8.24219 11.9278 8.94531 11.9278 9.80469ZM7.27941 12.5391C6.4005 12.5391 5.69738 13.2422 5.69738 14.1406L5.69738 24.0625L1.713 24.082C0.0723778 24.1016-0.51356 25.7227 0.502065 26.8359L6.088 33.2422C6.81066 34.082 7.82628 34.043 8.52941 33.2422L14.0763 26.8359C15.1114 25.6641 14.4474 24.0625 12.8849 24.0625L8.86144 24.0625L8.86144 14.1406C8.86144 13.2422 8.15832 12.5391 7.27941 12.5391Z" fill="black" fill-opacity="0.85"/>
 </g>
</svg>
