<?xml version="1.0" encoding="UTF-8"?>
<!--Generator: Apple Native CoreSVG 326-->
<!DOCTYPE svg
PUBLIC "-//W3C//DTD SVG 1.1//EN"
       "http://www.w3.org/Graphics/SVG/1.1/DTD/svg11.dtd">
<svg version="1.1" xmlns="http://www.w3.org/2000/svg" xmlns:xlink="http://www.w3.org/1999/xlink" viewBox="0 0 60.9961 55.5273">
 <g>
  <rect height="55.5273" opacity="0" width="60.9961" x="0" y="0"/>
  <path d="M30.1562 10.8203C33.125 10.8203 35.5664 8.37891 35.5664 5.41016C35.5664 2.44141 33.125 0 30.1562 0C27.1875 0 24.7461 2.44141 24.7461 5.41016C24.7461 8.37891 27.1875 10.8203 30.1562 10.8203ZM22.207 43.1445C23.2031 44.1406 24.7656 44.1406 25.7617 43.1445L35.9766 32.9297C37.3633 31.543 36.4648 28.9648 34.3555 28.7305L22.8906 27.5C21.9336 27.4023 21.7969 26.8164 22.207 26.1914L26.2891 20.0391C26.6992 19.4531 27.4609 19.3164 28.0469 19.707L35.2539 24.4922C35.625 24.7266 36.1133 24.9219 36.6211 24.9219L48.0078 24.9219C49.3555 24.9219 50.5078 23.7891 50.5078 22.4219C50.5078 21.0156 49.3555 19.8828 48.0078 19.8828L37.3633 19.8828L15.2734 5.17578C14.8828 4.88281 14.4141 4.72656 13.8867 4.72656L2.5 4.72656C1.13281 4.72656 0 5.85938 0 7.26562C0 8.63281 1.13281 9.76562 2.5 9.76562L13.1445 9.76562L17.2266 12.4609C17.8125 12.8516 17.9688 13.6328 17.5586 14.2188L11.6797 23.0469C8.96484 27.1289 11.3477 32.5977 16.6016 32.8711L28.3008 33.4961L22.207 39.5703C21.2109 40.5664 21.2109 42.1484 22.207 43.1445ZM12.7734 34.1992L12.7734 42.7734L5.78125 50.8789C4.88281 51.9336 4.98047 53.5938 6.05469 54.4922C7.28516 55.4883 8.84766 55.1367 9.64844 54.2188L17.2266 45.3711C17.6367 44.8633 17.7539 44.3164 17.832 43.7891L19.2578 35.332L16.4844 35.1953C15.1172 35.1172 13.8477 34.7656 12.7734 34.1992ZM48.0078 15.4492C48.0078 17.1875 50.8398 18.6133 54.2969 18.6133C57.7734 18.6133 60.625 17.1875 60.625 15.4492C60.625 13.7305 57.7734 12.3047 54.2969 12.3047C50.8398 12.3047 48.0078 13.7305 48.0078 15.4492Z" fill="black" fill-opacity="0.85"/>
 </g>
</svg>
