<?xml version="1.0" encoding="UTF-8"?>
<!--Generator: Apple Native CoreSVG 326-->
<!DOCTYPE svg
PUBLIC "-//W3C//DTD SVG 1.1//EN"
       "http://www.w3.org/Graphics/SVG/1.1/DTD/svg11.dtd">
<svg version="1.1" xmlns="http://www.w3.org/2000/svg" xmlns:xlink="http://www.w3.org/1999/xlink" viewBox="0 0 51.25 50.918">
 <g>
  <rect height="50.918" opacity="0" width="51.25" x="0" y="0"/>
  <path d="M50.8789 25.4492C50.8789 39.4531 39.4531 50.8789 25.4297 50.8789C11.4258 50.8789 0 39.4531 0 25.4492C0 11.4258 11.4258 0 25.4297 0C39.4531 0 50.8789 11.4258 50.8789 25.4492ZM13.5156 41.543C13.5156 41.9531 13.8477 42.2656 14.2383 42.2656C14.668 42.2656 14.9805 41.9531 14.9805 41.543C14.9805 41.1133 14.668 40.8008 14.2383 40.8008C13.8477 40.8008 13.5156 41.1133 13.5156 41.543ZM15.9961 41.543C15.9961 41.9531 16.3086 42.2656 16.7383 42.2656C17.1484 42.2656 17.4609 41.9531 17.4609 41.543C17.4609 41.1133 17.1484 40.8008 16.7383 40.8008C16.3086 40.8008 15.9961 41.1133 15.9961 41.543ZM18.457 41.543C18.457 41.9531 18.7891 42.2656 19.1992 42.2656C19.6289 42.2656 19.9414 41.9531 19.9414 41.543C19.9414 41.1133 19.6289 40.8008 19.1992 40.8008C18.7891 40.8008 18.457 41.1133 18.457 41.543ZM20.957 41.543C20.957 41.9531 21.2695 42.2656 21.6797 42.2656C22.0898 42.2656 22.4219 41.9531 22.4219 41.543C22.4219 41.1133 22.0898 40.8008 21.6797 40.8008C21.2695 40.8008 20.957 41.1133 20.957 41.543ZM23.4375 41.543C23.4375 41.9531 23.75 42.2656 24.1797 42.2656C24.5703 42.2656 24.9023 41.9531 24.9023 41.543C24.9023 41.1133 24.5703 40.8008 24.1797 40.8008C23.75 40.8008 23.4375 41.1133 23.4375 41.543ZM25.8984 41.543C25.8984 41.9531 26.2305 42.2656 26.6406 42.2656C27.0508 42.2656 27.3828 41.9531 27.3828 41.543C27.3828 41.1133 27.0508 40.8008 26.6406 40.8008C26.2305 40.8008 25.8984 41.1133 25.8984 41.543ZM28.3789 41.543C28.3789 41.9531 28.7305 42.2656 29.1211 42.2656C29.5508 42.2656 29.8633 41.9531 29.8633 41.543C29.8633 41.1133 29.5508 40.8008 29.1211 40.8008C28.7305 40.8008 28.3789 41.1133 28.3789 41.543ZM30.8789 41.543C30.8789 41.9531 31.1719 42.2656 31.6016 42.2656C32.0312 42.2656 32.3438 41.9531 32.3438 41.543C32.3438 41.1133 32.0312 40.8008 31.6016 40.8008C31.1719 40.8008 30.8789 41.1133 30.8789 41.543ZM33.3398 41.543C33.3398 41.9531 33.6523 42.2656 34.082 42.2656C34.4922 42.2656 34.8242 41.9531 34.8242 41.543C34.8242 41.1133 34.4922 40.8008 34.082 40.8008C33.6523 40.8008 33.3398 41.1133 33.3398 41.543ZM35.8203 41.543C35.8203 41.9531 36.1523 42.2656 36.5625 42.2656C36.9727 42.2656 37.3047 41.9531 37.3047 41.543C37.3047 41.1133 36.9727 40.8008 36.5625 40.8008C36.1523 40.8008 35.8203 41.1133 35.8203 41.543ZM32.7734 35.8984C32.7734 37.5391 34.043 38.8477 35.6445 38.8477C37.2852 38.8477 38.5742 37.5391 38.5742 35.8984C38.5742 34.2773 37.2852 32.9883 35.6445 32.9883C34.043 32.9883 32.7734 34.2773 32.7734 35.8984ZM19.5312 32.8125L13.0273 35.6055C12.3242 35.918 11.9336 36.7578 12.3242 37.5195C12.7539 38.418 13.7109 38.457 14.1602 38.2422L21.25 35.1562C21.5234 35.0391 21.7969 34.8047 21.9336 34.5117L24.5703 29.1992L23.9648 29.2188C22.832 29.2969 21.9141 28.9648 21.1719 28.418ZM36.0742 14.8047L34.082 18.6914L32.4805 17.0898C31.4062 15.9961 30.2539 15.4102 28.4961 15.4102L19.6094 15.4102C19.0625 15.4102 18.5742 15.7617 18.3594 16.1914L15.4883 21.8945C15.1367 22.6172 15.3906 23.418 16.1328 23.7695C16.9727 24.1406 17.6953 23.7695 18.0273 23.1445L20.4688 18.2617L23.3984 18.2617C23.7109 18.2617 23.8867 18.5547 23.75 18.8281L21.1719 23.9258C20.2148 25.8203 21.4062 28.2031 23.8867 28.0469L30.8008 27.6172L28.2422 33.3008C27.9297 34.0039 28.2227 34.9023 28.9648 35.1367C29.7461 35.4688 30.4688 35.2148 30.8008 34.4531L34.3555 26.6406C34.7461 25.7812 34.1992 24.6289 33.1055 24.6289L26.8555 24.6289L29.6094 19.082C29.7461 18.8281 30.0195 18.75 30.2344 18.9453L33.4961 22.0898C34.1797 22.7344 35.332 22.6367 35.7617 21.7383L38.5742 16.0547C38.9453 15.332 38.7109 14.4727 37.9883 14.1406C37.2852 13.7891 36.4453 14.1016 36.0742 14.8047ZM26.6211 11.0938C26.6211 12.7148 27.9297 14.0234 29.5508 14.0234C31.1719 14.0234 32.4609 12.7148 32.4609 11.0938C32.4609 9.47266 31.1719 8.18359 29.5508 8.18359C27.9297 8.18359 26.6211 9.47266 26.6211 11.0938ZM19.082 9.72656C17.9688 8.67188 17.0117 8.32031 15.5273 8.32031C15.1367 8.32031 14.8633 8.63281 14.8633 8.96484C14.8633 9.33594 15.1367 9.60938 15.5078 9.60938C16.7188 9.60938 17.5 9.86328 18.2812 10.7227C18.5547 11.0352 18.8086 11.1523 19.082 11.1523C19.3555 11.1523 19.6094 11.0352 19.9023 10.7227C20.7031 9.86328 21.4844 9.60938 22.6758 9.60938C23.0469 9.60938 23.3398 9.33594 23.3398 8.96484C23.3398 8.63281 23.0273 8.32031 22.6758 8.32031C21.1719 8.32031 20.2148 8.67188 19.082 9.72656Z" fill="black" fill-opacity="0.85"/>
 </g>
</svg>
