<?xml version="1.0" encoding="UTF-8"?>
<!--Generator: Apple Native CoreSVG 326-->
<!DOCTYPE svg
PUBLIC "-//W3C//DTD SVG 1.1//EN"
       "http://www.w3.org/Graphics/SVG/1.1/DTD/svg11.dtd">
<svg version="1.1" xmlns="http://www.w3.org/2000/svg" xmlns:xlink="http://www.w3.org/1999/xlink" viewBox="0 0 51.25 50.918">
 <g>
  <rect height="50.918" opacity="0" width="51.25" x="0" y="0"/>
  <path d="M25.4297 50.8789C39.4727 50.8789 50.8789 39.4922 50.8789 25.4492C50.8789 11.4062 39.4727 0 25.4297 0C11.3867 0 0 11.4062 0 25.4492C0 39.4922 11.3867 50.8789 25.4297 50.8789ZM25.4297 47.2461C13.3789 47.2461 3.63281 37.5 3.63281 25.4492C3.63281 13.3984 13.3789 3.65234 25.4297 3.65234C37.4805 3.65234 47.2266 13.3984 47.2266 25.4492C47.2266 37.5 37.4805 47.2461 25.4297 47.2461Z" fill="black" fill-opacity="0.85"/>
  <path d="M31.1328 14.7266C32.8125 14.7266 34.1992 13.3203 34.1992 11.6406C34.1992 9.96094 32.8125 8.57422 31.1328 8.57422C29.4531 8.57422 28.0469 9.96094 28.0469 11.6406C28.0469 13.3203 29.4531 14.7266 31.1328 14.7266ZM25.6836 34.3359C26.5234 34.3359 27.168 33.6719 27.168 32.8711L27.168 26.1914C27.168 25.7812 27.0117 25.3906 26.7578 25.1367L23.1055 21.5039L26.3477 18.2422C26.5625 18.0469 26.8555 18.0273 27.0703 18.2422L29.3555 20.5273C29.5898 20.8203 30 20.957 30.3906 20.957L37.0703 20.957C37.8711 20.957 38.5352 20.293 38.5352 19.5117C38.5352 18.6914 37.8711 18.0273 37.0703 18.0273L30.9766 18.0273L25.9961 13.0469C25.3711 12.4023 24.4531 12.0117 23.5352 12.0117L18.3008 12.0117C16.8555 12.0117 16.4258 13.6328 17.3242 14.5312L19.6289 16.8555L17.793 18.6523C16.6016 19.8047 16.6016 21.8359 17.793 23.0078L20.2539 25.4297L20.2539 33.2031C20.2539 34.0039 20.8984 34.6875 21.6992 34.6875C22.5 34.6875 23.1641 34.0039 23.1641 33.2031L23.1641 25.7031L24.2383 26.7773L24.2383 32.8711C24.2383 33.6719 24.9023 34.3359 25.6836 34.3359ZM9.04297 18.3789L22.5781 18.3789L22.5781 16.8164L9.04297 16.8164C8.61328 16.8164 8.26172 17.168 8.26172 17.5977C8.26172 18.0273 8.59375 18.3789 9.04297 18.3789ZM37.7734 33.6133C38.2031 33.6133 38.5352 33.2812 38.5352 32.8516L38.5352 19.4922L36.9922 19.4922L36.9922 32.8516C36.9922 33.2812 37.3242 33.6133 37.7734 33.6133ZM30.957 43.1445C31.3867 43.1445 31.7383 42.7734 31.7383 42.3633C31.7383 41.9336 31.3672 41.5625 30.957 41.5625C30.0195 41.5625 29.8047 41.4453 28.9648 40.6055L14.1602 25.8008C13.8477 25.4883 13.3594 25.4883 13.0469 25.7812C12.7539 26.0938 12.7539 26.6016 13.0469 26.875L28.0273 41.8555C28.9844 42.793 29.9023 43.1445 30.957 43.1445ZM34.5508 42.3633C34.9609 42.3633 35.332 42.0117 35.332 41.582C35.332 41.1914 34.9805 40.8203 34.5508 40.8203C33.6133 40.8203 33.3594 40.7031 32.5586 39.8633L17.7539 25.0586C17.4414 24.7461 16.9531 24.7266 16.6406 25.0391C16.3477 25.332 16.3477 25.8398 16.6406 26.1328L31.6211 41.1133C32.5586 42.0312 33.4766 42.3633 34.5508 42.3633Z" fill="black" fill-opacity="0.85"/>
 </g>
</svg>
