<?xml version="1.0" encoding="UTF-8"?>
<!--Generator: Apple Native CoreSVG 326-->
<!DOCTYPE svg
PUBLIC "-//W3C//DTD SVG 1.1//EN"
       "http://www.w3.org/Graphics/SVG/1.1/DTD/svg11.dtd">
<svg version="1.1" xmlns="http://www.w3.org/2000/svg" xmlns:xlink="http://www.w3.org/1999/xlink" viewBox="0 0 39.858 62.0898">
 <g>
  <rect height="62.0898" opacity="0" width="39.858" x="0" y="0"/>
  <path d="M14.7337 10.1172C17.5462 10.1172 19.7727 7.87109 19.7727 5.05859C19.7727 2.22656 17.5462 0.0195312 14.7337 0.0195312C11.9017 0.0195312 9.65556 2.22656 9.65556 5.05859C9.65556 7.87109 11.9017 10.1172 14.7337 10.1172ZM14.7337 7.63672C13.2688 7.63672 12.1556 6.50391 12.1556 5.05859C12.1556 3.61328 13.2688 2.5 14.7337 2.5C16.1595 2.5 17.2727 3.61328 17.2727 5.05859C17.2727 6.50391 16.1595 7.63672 14.7337 7.63672ZM3.13212 18.125C5.16337 13.5547 8.28837 10.8594 15.8665 10.8594L26.1204 10.8594L26.1204 7.59766L15.8665 7.59766C6.92119 7.59766 2.54619 11.4258 0.143843 16.7969C-0.324907 17.8125 0.39775 19.082 1.64775 19.082C2.29228 19.082 2.87822 18.6914 3.13212 18.125ZM22.0188 7.57812L22.0188 10.8789C22.0188 11.875 22.761 12.6953 23.7767 12.793L37.2532 14.2188C38.5032 14.3555 39.4798 13.457 39.4798 12.1484L39.4798 6.28906C39.4798 5.01953 38.5032 4.08203 37.2532 4.21875L23.7767 5.64453C22.761 5.74219 22.0188 6.5625 22.0188 7.57812ZM13.5423 10.4688L13.5423 16.7773L17.4485 16.7773L17.4485 10.4688ZM9.88994 62.0898L21.1204 62.0898C24.5188 62.0898 26.9017 59.6875 26.9017 56.2891L26.9017 27.2266C26.9017 20.3906 22.1946 15.5664 15.4954 15.5664C8.81572 15.5664 4.08916 20.3906 4.08916 27.2266L4.08916 56.2891C4.08916 59.6875 6.4915 62.0898 9.88994 62.0898Z" fill="black" fill-opacity="0.85"/>
 </g>
</svg>
