<?xml version="1.0" encoding="UTF-8"?>
<!--Generator: Apple Native CoreSVG 326-->
<!DOCTYPE svg
PUBLIC "-//W3C//DTD SVG 1.1//EN"
       "http://www.w3.org/Graphics/SVG/1.1/DTD/svg11.dtd">
<svg version="1.1" xmlns="http://www.w3.org/2000/svg" xmlns:xlink="http://www.w3.org/1999/xlink" viewBox="0 0 51.25 50.918">
 <g>
  <rect height="50.918" opacity="0" width="51.25" x="0" y="0"/>
  <path d="M25.4297 50.8789C39.4727 50.8789 50.8789 39.4922 50.8789 25.4492C50.8789 11.4062 39.4727 0 25.4297 0C11.3867 0 0 11.4062 0 25.4492C0 39.4922 11.3867 50.8789 25.4297 50.8789ZM25.4297 47.2461C13.3789 47.2461 3.63281 37.5 3.63281 25.4492C3.63281 13.3984 13.3789 3.65234 25.4297 3.65234C37.4805 3.65234 47.2266 13.3984 47.2266 25.4492C47.2266 37.5 37.4805 47.2461 25.4297 47.2461Z" fill="black" fill-opacity="0.85"/>
  <path d="M19.3359 36.6016C23.125 36.6016 24.9609 34.5898 25.5859 30.8398L26.4453 25.8203L31.9727 25.8203C32.5195 25.8203 32.9297 25.4492 32.9297 24.9219C32.9297 24.3945 32.5195 24.0039 31.9727 24.0039L26.7383 24.0039L27.3828 20.2344C27.793 17.8125 29.0039 16.582 31.4258 16.582C32.3828 16.582 32.9883 16.7969 33.5352 16.7969C34.1992 16.7969 34.5703 16.4648 34.5703 15.8789C34.5703 15.3125 34.1211 14.9609 33.5742 14.7266C32.8516 14.4336 31.8359 14.3555 31.2109 14.3555C27.5 14.3555 25.4688 16.3477 24.8633 20.0195L24.1797 24.0039L18.9648 24.0039C18.3984 24.0039 17.9883 24.3945 17.9883 24.9219C17.9883 25.4492 18.3984 25.8203 18.9648 25.8203L23.8867 25.8203L23.0664 30.5469C22.6367 33.0273 21.6016 34.375 19.082 34.375C18.0664 34.375 17.7148 34.1797 16.875 34.1797C16.3086 34.1797 15.9375 34.5703 15.9375 35.0781C15.9375 35.6641 16.3086 36.0156 16.8945 36.25C17.6172 36.543 18.5547 36.6016 19.3359 36.6016Z" fill="black" fill-opacity="0.85"/>
 </g>
</svg>
