<?xml version="1.0" encoding="UTF-8"?>
<!--Generator: Apple Native CoreSVG 326-->
<!DOCTYPE svg
PUBLIC "-//W3C//DTD SVG 1.1//EN"
       "http://www.w3.org/Graphics/SVG/1.1/DTD/svg11.dtd">
<svg version="1.1" xmlns="http://www.w3.org/2000/svg" xmlns:xlink="http://www.w3.org/1999/xlink" viewBox="0 0 55.5273 53.1055">
 <g>
  <rect height="53.1055" opacity="0" width="55.5273" x="0" y="0"/>
  <path d="M30.5273 0.839844L52.1094 13.3008C52.8906 13.75 53.2422 14.3164 53.2422 14.9609C53.2422 15.8398 52.5781 16.6797 51.3867 16.6797L49.1211 16.6797L49.1211 46.5039L50.7227 46.5039C51.582 46.5039 52.0898 47.0117 52.0898 47.8516L52.0898 49.6094L53.418 49.6094C54.375 49.6094 55.1562 50.3906 55.1562 51.3477C55.1562 52.2852 54.375 53.0664 53.418 53.0664L1.73828 53.0664C0.78125 53.0664 0 52.2852 0 51.3477C0 50.3906 0.78125 49.6094 1.73828 49.6094L3.06641 49.6094L3.06641 47.8516C3.06641 47.0117 3.57422 46.5039 4.45312 46.5039L6.05469 46.5039L6.05469 16.6797L3.76953 16.6797C2.57812 16.6797 1.91406 15.8398 1.91406 14.9609C1.91406 14.3164 2.24609 13.75 3.04688 13.3008L24.6289 0.839844C25.5664 0.292969 26.6016 0 27.5781 0C28.5547 0 29.5703 0.292969 30.5273 0.839844ZM27.0117 23.1055L26.3086 27.1875L20.9766 27.1875C20.3906 27.1875 20 27.5781 20 28.1055C20 28.6719 20.3906 29.0625 20.9766 29.0625L26.0156 29.0625L25.1758 33.8867C24.7461 36.4258 23.6719 37.8125 21.0938 37.8125C20.0781 37.8125 19.707 37.6172 18.8281 37.6172C18.2422 37.6172 17.8906 37.9883 17.8906 38.5156C17.8906 39.1406 18.2422 39.4922 18.8672 39.7461C19.5898 40.0391 20.5664 40.0977 21.3477 40.0977C25.2734 40.0977 27.1484 38.0273 27.7734 34.1992L28.6523 29.0625L34.3164 29.0625C34.8828 29.0625 35.293 28.6719 35.293 28.1055C35.293 27.5781 34.8828 27.1875 34.3164 27.1875L28.9453 27.1875L29.6094 23.3008C30.0391 20.8594 31.2695 19.5703 33.7695 19.5703C34.7266 19.5703 35.3711 19.8047 35.9961 19.8047C36.6211 19.7656 36.9727 19.4727 36.9727 18.8672C36.9727 18.2812 36.5234 17.8906 35.9766 17.6758C35.2344 17.3633 34.1992 17.2852 33.5547 17.2852C29.7266 17.2852 27.6562 19.3164 27.0117 23.1055Z" fill="black" fill-opacity="0.85"/>
 </g>
</svg>
