<?xml version="1.0" encoding="UTF-8"?>
<!--Generator: Apple Native CoreSVG 326-->
<!DOCTYPE svg
PUBLIC "-//W3C//DTD SVG 1.1//EN"
       "http://www.w3.org/Graphics/SVG/1.1/DTD/svg11.dtd">
<svg version="1.1" xmlns="http://www.w3.org/2000/svg" xmlns:xlink="http://www.w3.org/1999/xlink" viewBox="0 0 66.6797 55.6445">
 <g>
  <rect height="55.6445" opacity="0" width="66.6797" x="0" y="0"/>
  <path d="M63.3398 44.2773C64.9609 44.2773 66.3086 42.9492 66.3086 41.4062C66.3086 39.8047 64.9805 38.5156 63.3398 38.5156C61.6797 38.5156 60.3516 39.8047 60.3516 41.4062C60.3516 42.9492 61.7188 44.2773 63.3398 44.2773ZM63.3398 33.3984C64.375 33.3984 65.1172 32.6367 65.1562 31.5625L65.6055 13.5742C65.6445 12.207 64.7266 11.3086 63.3398 11.3086C61.9336 11.3086 61.0352 12.207 61.0742 13.5742L61.5039 31.5625C61.543 32.6367 62.2852 33.3984 63.3398 33.3984Z" fill="black" fill-opacity="0.85"/>
  <path d="M3.75 53.9648L7.1875 53.9648L7.20703 6.42578C7.20703 4.49219 8.16406 3.47656 10.1367 3.47656L30.6641 3.47656C32.5781 3.47656 33.6133 4.49219 33.6133 6.42578L33.6328 53.9648L37.0898 53.9648L37.0898 6.36719C37.0898 2.26562 34.8438 0 30.7227 0L10.0781 0C5.9375 0 3.75 2.24609 3.75 6.36719ZM11.1328 22.7148L29.668 22.7148C30.625 22.7148 31.2891 22.0117 31.2891 21.0742L31.2891 7.44141C31.2891 6.48438 30.6055 5.80078 29.668 5.80078L11.1328 5.80078C10.1953 5.80078 9.53125 6.48438 9.53125 7.44141L9.53125 21.0742C9.53125 22.0117 10.1953 22.7148 11.1328 22.7148ZM0 53.8672C0 54.8438 0.761719 55.625 1.71875 55.625L39.082 55.625C40.0391 55.625 40.8203 54.8438 40.8203 53.8672C40.8203 52.9492 40.0391 52.168 39.082 52.168L1.71875 52.168C0.78125 52.168 0 52.9297 0 53.8672ZM46.5234 49.2773C50.957 49.2773 53.4766 46.3086 53.4766 41.0156C53.4766 34.7852 52.2461 27.5781 49.9023 16.2109L49.2773 13.2031C48.8086 10.957 48.1836 9.23828 46.7773 7.5L43.8281 3.80859C42.6953 2.38281 40.5469 4.04297 41.7578 5.54688L45.3516 10.0781C45.5859 10.3906 45.6055 10.7812 45.4102 11.1133L43.2227 15.1758C42.7344 16.0938 42.8516 16.7578 43.6133 17.5781L48.3984 22.6953C49.9805 29.9805 50.8203 36.0156 50.8203 41.0156C50.8203 44.6094 49.2773 46.6211 46.5234 46.6211C44.1406 46.6211 42.5586 45.0195 42.5586 42.3438C42.5586 38.7891 43.1445 33.8867 43.1445 29.4336C43.1445 25.1953 41.0156 21.9531 36.0742 20.2344L34.9805 22.6562C38.8281 23.9062 40.4883 26.3867 40.4883 29.4336C40.4883 33.4375 39.9023 38.3203 39.9023 42.3438C39.9023 46.6406 42.5195 49.2773 46.5234 49.2773Z" fill="black" fill-opacity="0.85"/>
 </g>
</svg>
