<?xml version="1.0" encoding="UTF-8"?>
<!--Generator: Apple Native CoreSVG 326-->
<!DOCTYPE svg
PUBLIC "-//W3C//DTD SVG 1.1//EN"
       "http://www.w3.org/Graphics/SVG/1.1/DTD/svg11.dtd">
<svg version="1.1" xmlns="http://www.w3.org/2000/svg" xmlns:xlink="http://www.w3.org/1999/xlink" viewBox="0 0 46.2891 45.918">
 <g>
  <rect height="45.918" opacity="0" width="46.2891" x="0" y="0"/>
  <path d="M45.918 7.53906L45.918 38.3984C45.918 43.3594 43.3594 45.918 38.3008 45.918L7.59766 45.918C2.55859 45.918 0 43.3984 0 38.3984L0 7.53906C0 2.53906 2.55859 0 7.59766 0L38.3008 0C43.3594 0 45.918 2.55859 45.918 7.53906ZM12.1289 22.7734C12.1289 30.3516 16.4258 35.2148 23.1445 35.2148C29.3359 35.2148 33.0469 31.4648 33.0469 25.9961L33.0469 24.1016C33.0469 22.8906 32.3633 22.168 31.1914 22.168L24.1016 22.168C23.2812 22.168 22.7539 22.7148 22.7539 23.4961C22.7539 24.1992 23.2812 24.8242 24.1016 24.8242L29.4922 24.8242L29.4922 26.4258C29.4922 29.9219 27.2852 32.207 23.1836 32.207C18.7305 32.207 15.7617 28.418 15.7617 22.7734C15.7617 17.1484 18.7109 13.3398 23.125 13.3398C26.3281 13.3398 28.6914 14.9609 29.6484 17.7344C29.9805 18.5547 30.4297 18.9062 31.1523 18.9062C32.1094 18.9062 32.7148 18.3008 32.7148 17.3242C32.7148 16.9141 32.6367 16.6016 32.5195 16.2109C31.4258 13.0469 28.0859 10.332 23.0469 10.332C16.4258 10.332 12.1289 15.2148 12.1289 22.7734Z" fill="black" fill-opacity="0.85"/>
 </g>
</svg>
