<?xml version="1.0" encoding="UTF-8"?>
<!--Generator: Apple Native CoreSVG 326-->
<!DOCTYPE svg
PUBLIC "-//W3C//DTD SVG 1.1//EN"
       "http://www.w3.org/Graphics/SVG/1.1/DTD/svg11.dtd">
<svg version="1.1" xmlns="http://www.w3.org/2000/svg" xmlns:xlink="http://www.w3.org/1999/xlink" viewBox="0 0 51.25 50.918">
 <g>
  <rect height="50.918" opacity="0" width="51.25" x="0" y="0"/>
  <path d="M25.4297 50.8789C39.4727 50.8789 50.8789 39.4922 50.8789 25.4492C50.8789 11.4062 39.4727 0 25.4297 0C11.3867 0 0 11.4062 0 25.4492C0 39.4922 11.3867 50.8789 25.4297 50.8789ZM25.4297 47.2461C13.3789 47.2461 3.63281 37.5 3.63281 25.4492C3.63281 13.3984 13.3789 3.65234 25.4297 3.65234C37.4805 3.65234 47.2266 13.3984 47.2266 25.4492C47.2266 37.5 37.4805 47.2461 25.4297 47.2461Z" fill="black" fill-opacity="0.85"/>
  <path d="M13.125 34.5117C14.5898 34.5117 15.6836 33.9453 16.6211 32.793L18.7695 30.2148C19.082 29.8242 19.4141 29.6484 19.8047 29.6484L31.0352 29.6484C31.4062 29.6484 31.7578 29.8242 32.0508 30.2148L34.1992 32.793C35.1367 33.9453 36.2305 34.5117 37.7148 34.5117C40.2539 34.5117 41.9727 32.8125 41.9727 30.1953C41.9727 29.082 41.6992 27.793 41.25 26.25C40.5273 23.9062 39.2969 20.6836 38.1055 18.1445C37.1094 16.1133 36.6406 15.2344 34.2773 14.6875C32.0508 14.1992 29.043 13.8672 25.4102 13.8672C21.7969 13.8672 18.7695 14.1992 16.543 14.6875C14.1797 15.2344 13.7109 16.1133 12.7344 18.1445C11.543 20.6836 10.3125 23.9062 9.58984 26.25C9.14062 27.793 8.84766 29.082 8.84766 30.1953C8.84766 32.8125 10.5664 34.5117 13.125 34.5117ZM15.8008 21.8555C15.8008 21.3086 16.1523 20.9375 16.7383 20.9375L18.9844 20.9375L18.9844 18.6914C18.9844 18.1055 19.3164 17.7344 19.8828 17.7344C20.4297 17.7344 20.7812 18.1055 20.7812 18.6914L20.7812 20.9375L22.9492 20.9375C23.5547 20.9375 23.9453 21.3086 23.9453 21.8555C23.9453 22.4219 23.5547 22.793 22.9492 22.793L20.7812 22.793L20.7812 25.0781C20.7812 25.625 20.4297 25.9766 19.8828 25.9766C19.3164 25.9766 18.9844 25.625 18.9844 25.0781L18.9844 22.793L16.7383 22.793C16.1523 22.793 15.8008 22.4219 15.8008 21.8555ZM32.7344 21.6602C31.8555 21.6602 31.0938 20.9375 31.0938 20C31.0938 19.1211 31.8555 18.3789 32.7344 18.3789C33.6719 18.3789 34.3945 19.1211 34.3945 20C34.3945 20.9375 33.6719 21.6602 32.7344 21.6602ZM29.1797 25.1953C28.2812 25.1953 27.5391 24.4727 27.5391 23.5547C27.5391 22.6562 28.2812 21.9336 29.1797 21.9336C30.0977 21.9336 30.8203 22.6562 30.8203 23.5547C30.8203 24.4727 30.0977 25.1953 29.1797 25.1953Z" fill="black" fill-opacity="0.85"/>
 </g>
</svg>
