<?xml version="1.0" encoding="UTF-8"?>
<!--Generator: Apple Native CoreSVG 326-->
<!DOCTYPE svg
PUBLIC "-//W3C//DTD SVG 1.1//EN"
       "http://www.w3.org/Graphics/SVG/1.1/DTD/svg11.dtd">
<svg version="1.1" xmlns="http://www.w3.org/2000/svg" xmlns:xlink="http://www.w3.org/1999/xlink" viewBox="0 0 61.5079 50.918">
 <g>
  <rect height="50.918" opacity="0" width="61.5079" x="0" y="0"/>
  <path d="M30.5684 0C23.0879 0 16.252 3.26172 11.584 8.53516C10.7051 9.49219 10.9981 10.7422 11.7989 11.3086C12.502 11.8359 13.4395 11.8555 14.3184 10.918C18.3418 6.40625 24.1621 3.65234 30.5684 3.65234C41.4082 3.65234 50.3731 11.5625 51.9746 21.9141L48.166 21.9141C46.584 21.9141 46.1348 23.0078 47.0332 24.2578L52.5801 32.168C53.3028 33.2227 54.377 33.2422 55.1192 32.168L60.666 24.2773C61.5645 23.0078 61.1348 21.9141 59.5332 21.9141L55.6856 21.9141C54.0254 9.55078 43.4004 0 30.5684 0ZM30.5684 50.8789C38.0489 50.8789 44.8848 47.6172 49.5528 42.3633C50.4317 41.3867 50.1387 40.1562 49.3379 39.5703C48.6348 39.0625 47.6973 39.0234 46.8184 39.9805C42.795 44.4727 36.9746 47.2461 30.5684 47.2461C19.709 47.2461 10.7637 39.3164 9.16214 28.9648L12.9707 28.9648C14.5528 28.9648 14.9825 27.8711 14.1035 26.6211L8.55667 18.7109C7.83401 17.6758 6.75979 17.6562 6.01761 18.7109L0.470731 26.6016C-0.447237 27.8711 0.00198146 28.9648 1.60354 28.9648L5.43167 28.9648C7.11136 41.3281 17.7168 50.8789 30.5684 50.8789Z" fill="black" fill-opacity="0.85"/>
  <path d="M29.3575 38.7305L31.7793 38.7305C32.4629 38.7305 32.9317 38.3398 33.0879 37.6562L33.752 34.8828C34.2012 34.7266 34.67 34.5508 35.0606 34.375L37.4825 35.8594C38.0684 36.2305 38.6739 36.1719 39.1426 35.7031L40.8223 34.0234C41.3106 33.5547 41.3887 32.8906 40.9981 32.3242L39.5137 29.9219C39.709 29.4922 39.8653 29.0625 40.0215 28.6133L42.8145 27.9883C43.4981 27.832 43.8692 27.3438 43.8692 26.6406L43.8692 24.2773C43.8692 23.6133 43.4981 23.125 42.8145 22.9688L40.041 22.3242C39.8653 21.8164 39.6895 21.3867 39.5332 21.0156L41.0371 18.5742C41.3887 18.0078 41.3496 17.3633 40.8614 16.8945L39.1426 15.2148C38.6739 14.7656 38.0879 14.668 37.502 15.0195L35.0606 16.543C34.67 16.3672 34.2207 16.1719 33.752 16.0156L33.0879 13.2227C32.9317 12.5391 32.4629 12.1484 31.7793 12.1484L29.3575 12.1484C28.6934 12.1484 28.2051 12.5391 28.0489 13.2227L27.3848 15.9961C26.9356 16.1719 26.4864 16.3281 26.0762 16.543L23.6348 15.0195C23.0684 14.668 22.4629 14.7461 21.9942 15.2148L20.2754 16.8945C19.7871 17.3633 19.7481 18.0078 20.1192 18.5742L21.6231 21.0156C21.4473 21.3867 21.2715 21.8164 21.0957 22.3242L18.3418 22.9688C17.6582 23.125 17.2871 23.6133 17.2871 24.2773L17.2871 26.6406C17.2871 27.3438 17.6582 27.832 18.3418 27.9883L21.1153 28.6133C21.2715 29.0625 21.4278 29.4922 21.6231 29.9219L20.1582 32.3242C19.7481 32.8906 19.8262 33.5547 20.3145 34.0234L21.9942 35.7031C22.4629 36.1914 23.0879 36.2305 23.6543 35.8594L26.0762 34.375C26.4864 34.5508 26.9356 34.7266 27.3848 34.8828L28.0489 37.6562C28.2051 38.3398 28.6934 38.7305 29.3575 38.7305ZM30.5684 29.9609C28.0684 29.9609 26.0371 27.9297 26.0371 25.4102C26.0371 22.9102 28.0684 20.8594 30.5684 20.8594C33.0879 20.8594 35.1192 22.9102 35.1192 25.4102C35.1192 27.9297 33.0879 29.9609 30.5684 29.9609Z" fill="black" fill-opacity="0.85"/>
 </g>
</svg>
