<?xml version="1.0" encoding="UTF-8"?>
<!--Generator: Apple Native CoreSVG 326-->
<!DOCTYPE svg
PUBLIC "-//W3C//DTD SVG 1.1//EN"
       "http://www.w3.org/Graphics/SVG/1.1/DTD/svg11.dtd">
<svg version="1.1" xmlns="http://www.w3.org/2000/svg" xmlns:xlink="http://www.w3.org/1999/xlink" viewBox="0 0 48.7695 55.9961">
 <g>
  <rect height="55.9961" opacity="0" width="48.7695" x="0" y="0"/>
  <path d="M12.3828 10.9375L14.8242 8.47656L6.89453 0.546875C6.21094-0.117188 5.11719-0.117188 4.45312 0.546875C3.76953 1.23047 3.76953 2.34375 4.45312 3.00781ZM44.3164 40.3906L41.9336 37.9492C37.8711 42.0508 32.2461 44.5117 25.9375 44.5117C13.3594 44.5117 3.45703 34.6289 3.45703 22.0508C3.45703 15.7617 5.95703 10.1172 9.98047 6.09375L7.5 3.73047C2.85156 8.39844 0 14.8633 0 22.0508C0 36.4648 11.5039 47.9688 25.9375 47.9688C33.1641 47.9688 39.6289 45.0977 44.3164 40.3906ZM39.3164 32.9688L36.7383 35.3125L45.4492 44.0234C46.1328 44.6875 47.2266 44.6875 47.8906 44.0234C48.5742 43.3398 48.5742 42.2461 47.8906 41.5625ZM24.1992 47.0898L24.1992 53.7305L27.6562 53.7305L27.6562 47.0898ZM17.2461 55.9961L34.7266 55.9961C35.6836 55.9961 36.4648 55.2148 36.4648 54.2773C36.4648 53.3203 35.6836 52.5391 34.7266 52.5391L17.2461 52.5391C16.2891 52.5391 15.5078 53.3203 15.5078 54.2773C15.5078 55.2148 16.2891 55.9961 17.2461 55.9961ZM25.9375 40.5273C36.1523 40.5273 44.4336 32.2656 44.4336 22.0508C44.4336 11.8164 36.1523 3.55469 25.9375 3.55469C15.7227 3.55469 7.44141 11.8164 7.44141 22.0508C7.44141 32.2656 15.7227 40.5273 25.9375 40.5273Z" fill="black" fill-opacity="0.85"/>
 </g>
</svg>
