<?xml version="1.0" encoding="UTF-8"?>
<!--Generator: Apple Native CoreSVG 326-->
<!DOCTYPE svg
PUBLIC "-//W3C//DTD SVG 1.1//EN"
       "http://www.w3.org/Graphics/SVG/1.1/DTD/svg11.dtd">
<svg version="1.1" xmlns="http://www.w3.org/2000/svg" xmlns:xlink="http://www.w3.org/1999/xlink" viewBox="0 0 51.25 50.918">
 <g>
  <rect height="50.918" opacity="0" width="51.25" x="0" y="0"/>
  <path d="M25.4297 50.8789C39.4727 50.8789 50.8789 39.4922 50.8789 25.4492C50.8789 11.4062 39.4727 0 25.4297 0C11.3867 0 0 11.4062 0 25.4492C0 39.4922 11.3867 50.8789 25.4297 50.8789ZM25.4297 47.2461C13.3789 47.2461 3.63281 37.5 3.63281 25.4492C3.63281 13.3984 13.3789 3.65234 25.4297 3.65234C37.4805 3.65234 47.2266 13.3984 47.2266 25.4492C47.2266 37.5 37.4805 47.2461 25.4297 47.2461Z" fill="black" fill-opacity="0.85"/>
  <path d="M40.4883 19.7266L28.5938 14.2969C27.3633 13.7305 26.4062 13.4766 25.4102 13.4961C24.4336 13.4766 23.457 13.7305 22.2266 14.2969L10.332 19.7266C9.62891 20.0391 9.29688 20.625 9.29688 21.1914C9.29688 21.7578 9.62891 22.3047 10.332 22.6172L15.5469 25L22.9102 21.5039C22.832 21.4062 22.8125 21.2891 22.8125 21.1914C22.8125 20.3711 24.1406 19.8047 25.4492 19.8047C26.7773 19.8047 28.0664 20.3711 28.0664 21.1914C28.0664 22.0117 26.7969 22.5977 25.4492 22.5977C25.0195 22.5977 24.6289 22.5586 24.2578 22.4414L17.2656 25.8008L22.2266 28.0859C23.4766 28.6719 24.4336 28.8867 25.4102 28.8672C26.4062 28.8867 27.3633 28.6523 28.5938 28.0859L40.4883 22.6172C41.1914 22.3047 41.5234 21.7578 41.5234 21.1914C41.5234 20.625 41.1914 20.0391 40.4883 19.7266ZM25.4102 36.582C32.4414 36.582 36.8164 33.457 36.8164 30.2148L36.8164 26.0547L29.2188 29.5312C27.832 30.1562 26.582 30.4883 25.4102 30.4492C24.2383 30.4883 22.9883 30.1562 21.6211 29.5312L17.207 27.5195L17.207 34.6484C19.1797 35.8203 21.9727 36.582 25.4102 36.582ZM14.0039 26.0547L14.0039 30.2148C14.0039 31.2109 14.5898 32.4023 15.625 33.4375L15.625 26.7969ZM15.625 36.9336L17.207 36.9336L17.207 34.6484C16.6016 34.2969 16.0938 33.8867 15.625 33.4375ZM14.8242 36.8164L14.8242 39.5117C14.8242 40.3906 15.3516 40.957 16.25 40.957L16.5625 40.957C17.4414 40.957 18.0078 40.3906 18.0078 39.5117L18.0078 36.8164C18.0078 35.9375 17.4414 35.3906 16.5625 35.3906L16.25 35.3906C15.3516 35.3906 14.8242 35.9375 14.8242 36.8164Z" fill="black" fill-opacity="0.85"/>
 </g>
</svg>
