<?xml version="1.0" encoding="UTF-8"?>
<!--Generator: Apple Native CoreSVG 326-->
<!DOCTYPE svg
PUBLIC "-//W3C//DTD SVG 1.1//EN"
       "http://www.w3.org/Graphics/SVG/1.1/DTD/svg11.dtd">
<svg version="1.1" xmlns="http://www.w3.org/2000/svg" xmlns:xlink="http://www.w3.org/1999/xlink" viewBox="0 0 34.4336 32.6367">
 <g>
  <rect height="32.6367" opacity="0" width="34.4336" x="0" y="0"/>
  <path d="M1.81641 32.6367C2.44141 32.6367 2.85156 32.4414 3.30078 32.2266L31.9336 19.3359C33.1445 18.7891 34.0625 17.8516 34.0625 16.5039C34.0625 15.1562 33.1445 14.2188 31.9141 13.6523L3.30078 0.390625C2.87109 0.175781 2.48047 0.0195312 1.89453 0.0195312C0.78125 0.0195312 0 0.78125 0 1.91406C0 2.89062 0.488281 3.45703 1.38672 3.86719L28.9844 16.2305L28.9844 16.4844L1.38672 28.7695C0.488281 29.1602 0 29.7461 0 30.7227C0 31.8945 0.761719 32.6367 1.81641 32.6367Z" fill="black" fill-opacity="0.85"/>
 </g>
</svg>
