<?xml version="1.0" encoding="UTF-8"?>
<!--Generator: Apple Native CoreSVG 326-->
<!DOCTYPE svg
PUBLIC "-//W3C//DTD SVG 1.1//EN"
       "http://www.w3.org/Graphics/SVG/1.1/DTD/svg11.dtd">
<svg version="1.1" xmlns="http://www.w3.org/2000/svg" xmlns:xlink="http://www.w3.org/1999/xlink" viewBox="0 0 30.8984 41.7773">
 <g>
  <rect height="41.7773" opacity="0" width="30.8984" x="0" y="0"/>
  <path d="M30.5273 39.8633C30.5273 38.8086 29.6484 37.9492 28.6133 37.9492L1.91406 37.9492C0.878906 37.9492 0 38.8086 0 39.8633C0 40.8984 0.878906 41.7773 1.91406 41.7773L28.6133 41.7773C29.6484 41.7773 30.5273 40.8984 30.5273 39.8633ZM3.10547 29.2969C3.73047 29.2969 4.14062 29.1406 4.58984 28.9258L28.3984 17.5586C29.6094 16.9922 30.5273 16.1328 30.5273 14.7852C30.5273 13.4375 29.6094 12.5586 28.3789 11.9922L4.58984 0.46875C4.17969 0.273438 3.76953 0.0976562 3.18359 0.0976562C2.07031 0.0976562 1.28906 0.859375 1.28906 1.99219C1.28906 2.98828 1.79688 3.55469 2.67578 3.94531L25.4492 14.5117L25.4492 14.7656L2.67578 25.4688C1.81641 25.8594 1.28906 26.4062 1.28906 27.3828C1.28906 28.5547 2.05078 29.2969 3.10547 29.2969Z" fill="black" fill-opacity="0.85"/>
 </g>
</svg>
