<?xml version="1.0" encoding="UTF-8"?>
<!--Generator: Apple Native CoreSVG 326-->
<!DOCTYPE svg
PUBLIC "-//W3C//DTD SVG 1.1//EN"
       "http://www.w3.org/Graphics/SVG/1.1/DTD/svg11.dtd">
<svg version="1.1" xmlns="http://www.w3.org/2000/svg" xmlns:xlink="http://www.w3.org/1999/xlink" viewBox="0 0 51.25 50.918">
 <g>
  <rect height="50.918" opacity="0" width="51.25" x="0" y="0"/>
  <path d="M50.8789 25.4492C50.8789 39.4531 39.4531 50.8789 25.4297 50.8789C11.4258 50.8789 0 39.4531 0 25.4492C0 11.4258 11.4258 0 25.4297 0C39.4531 0 50.8789 11.4258 50.8789 25.4492ZM24.2969 9.96094L24.2969 22.8906C23.8086 22.9297 23.3008 22.9883 22.8125 23.0859L22.8125 11.3672C22.8125 10.4883 22.0703 9.78516 21.1914 9.78516C20.332 9.78516 19.5898 10.4883 19.5898 11.3672L19.5898 24.1211C19.0625 24.3359 18.6523 24.6094 18.2422 24.8828L18.2422 16.1328C18.2422 15.2539 17.5195 14.5312 16.6406 14.5312C15.7422 14.5312 15.0195 15.2539 15.0195 16.1328L15.0195 30.1758C15.0195 36.9141 19.375 40.8398 25.4102 40.8398C30.0977 40.8398 33.3984 38.8281 35.4297 34.0625C36.5234 31.7383 37.3438 29.082 38.2227 26.0938C38.5547 25 39.0039 23.7109 39.0039 23.125C39.0039 22.3047 38.3984 21.7578 37.5586 21.7578C36.6602 21.7578 36.1133 22.2852 35.5078 23.5547L33.418 28.1445C33.1836 28.6914 32.9102 28.8672 32.6562 28.8672C32.2852 28.8672 32.0508 28.6328 32.0508 28.0664L32.0508 12.3438C32.0508 11.4844 31.3281 10.7617 30.4492 10.7617C29.5703 10.7617 28.8672 11.4844 28.8672 12.3438L28.8672 23.4766C28.4375 23.3203 27.9883 23.1836 27.5 23.0469L27.5 9.96094C27.5 9.10156 26.7969 8.35938 25.918 8.35938C25.0195 8.35938 24.2969 9.10156 24.2969 9.96094Z" fill="black" fill-opacity="0.85"/>
 </g>
</svg>
