<?xml version="1.0" encoding="UTF-8"?>
<!--Generator: Apple Native CoreSVG 326-->
<!DOCTYPE svg
PUBLIC "-//W3C//DTD SVG 1.1//EN"
       "http://www.w3.org/Graphics/SVG/1.1/DTD/svg11.dtd">
<svg version="1.1" xmlns="http://www.w3.org/2000/svg" xmlns:xlink="http://www.w3.org/1999/xlink" viewBox="0 0 31.9336 52.0508">
 <g>
  <rect height="52.0508" opacity="0" width="31.9336" x="0" y="0"/>
  <path d="M0 50.3906C0 51.2891 0.722656 52.0312 1.71875 52.0312C16.6211 52.0312 28.3594 41.543 28.3594 26.0156C28.3594 19.1211 22.6562 13.418 15.7812 13.418C12.9297 13.418 10.293 14.5117 8.35938 16.2891C11.875 8.28125 20.0586 3.26172 29.8438 3.26172C30.8398 3.26172 31.5625 2.51953 31.5625 1.62109C31.5625 0.703125 30.8398 0 29.8438 0C14.9609 0 3.22266 10.4688 3.22266 26.0156C3.22266 32.8906 8.90625 38.5938 15.7812 38.5938C18.6523 38.5938 21.2695 37.5 23.2031 35.7422C19.6875 43.7109 11.4844 48.7695 1.71875 48.7695C0.722656 48.7695 0 49.4727 0 50.3906ZM12.3047 26.0156C12.3047 24.082 13.8672 22.5195 15.7812 22.5195C17.7148 22.5195 19.2773 24.082 19.2773 26.0156C19.2773 27.9102 17.7148 29.4922 15.7812 29.4922C13.8672 29.4922 12.3047 27.9297 12.3047 26.0156Z" fill="black" fill-opacity="0.85"/>
 </g>
</svg>
