<?xml version="1.0" encoding="UTF-8"?>
<!--Generator: Apple Native CoreSVG 326-->
<!DOCTYPE svg
PUBLIC "-//W3C//DTD SVG 1.1//EN"
       "http://www.w3.org/Graphics/SVG/1.1/DTD/svg11.dtd">
<svg version="1.1" xmlns="http://www.w3.org/2000/svg" xmlns:xlink="http://www.w3.org/1999/xlink" viewBox="0 0 64.6289 28.9258">
 <g>
  <rect height="28.9258" opacity="0" width="64.6289" x="0" y="0"/>
  <path d="M0 14.4531C0 23.2031 5.58594 28.8867 13.6523 28.8867C18.1445 28.8867 21.7969 26.9336 25.918 22.9883L32.1484 17.0312L38.3398 22.9883C42.4805 26.9336 46.1328 28.8867 50.6055 28.8867C58.6914 28.8867 64.2578 23.2031 64.2578 14.4531C64.2578 5.68359 58.6914 0 50.6055 0C46.1328 0 42.4805 1.97266 38.3398 5.91797L32.1484 11.8555L25.918 5.91797C21.7969 1.97266 18.1445 0 13.6523 0C5.58594 0 0 5.68359 0 14.4531ZM3.84766 14.4531C3.84766 8.02734 7.91016 3.84766 13.6523 3.84766C17.0117 3.84766 19.8438 5.50781 23.1836 8.63281L29.4336 14.4531L23.1836 20.2539C19.8242 23.3789 16.9922 25.0391 13.6523 25.0391C7.91016 25.0391 3.84766 20.8789 3.84766 14.4531ZM34.8242 14.4531L41.0742 8.63281C44.4336 5.50781 47.2656 3.84766 50.6055 3.84766C56.3672 3.84766 60.4102 8.02734 60.4102 14.4531C60.4102 20.8789 56.3672 25.0391 50.6055 25.0391C47.2656 25.0391 44.4336 23.3789 41.0938 20.2539Z" fill="black" fill-opacity="0.85"/>
 </g>
</svg>
