<?xml version="1.0" encoding="UTF-8"?>
<!--Generator: Apple Native CoreSVG 326-->
<!DOCTYPE svg
PUBLIC "-//W3C//DTD SVG 1.1//EN"
       "http://www.w3.org/Graphics/SVG/1.1/DTD/svg11.dtd">
<svg version="1.1" xmlns="http://www.w3.org/2000/svg" xmlns:xlink="http://www.w3.org/1999/xlink" viewBox="0 0 46.2891 45.918">
 <g>
  <rect height="45.918" opacity="0" width="46.2891" x="0" y="0"/>
  <path d="M45.918 7.53906L45.918 38.3984C45.918 43.3594 43.3594 45.918 38.3008 45.918L7.59766 45.918C2.55859 45.918 0 43.3984 0 38.3984L0 7.53906C0 2.53906 2.55859 0 7.59766 0L38.3008 0C43.3594 0 45.918 2.55859 45.918 7.53906ZM18.75 18.1836C17.8516 18.1836 17.1289 18.8867 17.1289 19.7656C17.1289 20.6836 17.8516 21.3672 18.75 21.3672L21.8945 21.3672L21.8945 34.1211L18.3984 34.1211C17.4609 34.1211 16.7578 34.8242 16.7578 35.7031C16.7578 36.6211 17.4609 37.3047 18.3984 37.3047L28.9258 37.3047C29.8633 37.3047 30.5859 36.6211 30.5859 35.7031C30.5859 34.8242 29.8633 34.1211 28.9258 34.1211L25.4297 34.1211L25.4297 20.1758C25.4297 19.0039 24.8242 18.1836 23.6914 18.1836ZM19.7461 10.5859C19.7461 12.2852 21.0938 13.6523 22.793 13.6523C24.4922 13.6523 25.8203 12.2852 25.8203 10.5859C25.8203 8.88672 24.4922 7.51953 22.793 7.51953C21.0938 7.51953 19.7461 8.88672 19.7461 10.5859Z" fill="black" fill-opacity="0.85"/>
 </g>
</svg>
