<?xml version="1.0" encoding="UTF-8"?>
<!--Generator: Apple Native CoreSVG 326-->
<!DOCTYPE svg
PUBLIC "-//W3C//DTD SVG 1.1//EN"
       "http://www.w3.org/Graphics/SVG/1.1/DTD/svg11.dtd">
<svg version="1.1" xmlns="http://www.w3.org/2000/svg" xmlns:xlink="http://www.w3.org/1999/xlink" viewBox="0 0 48.75 53.3789">
 <g>
  <rect height="53.3789" opacity="0" width="48.75" x="0" y="0"/>
  <path d="M2.98828 6.54297L2.98828 46.7969C2.98828 49.672 4.39718 51.9676 6.6892 52.8906L6.66016 52.8906C2.57812 52.8906 0 50.3906 0 46.4453L0 6.89453C0 2.94922 2.57812 0.449219 6.66016 0.449219L6.6892 0.449219C4.39718 1.37225 2.98828 3.66788 2.98828 6.54297Z" fill="black" fill-opacity="0.85"/>
  <path d="M11.4258 6.54297L11.4258 46.7969C11.4258 49.672 12.8347 51.9676 15.118 52.8906L15.0977 52.8906C11.0156 52.8906 8.4375 50.3906 8.4375 46.4453L8.4375 6.89453C8.4375 2.94922 11.0156 0.449219 15.0977 0.449219L15.118 0.449219C12.8347 1.37225 11.4258 3.66788 11.4258 6.54297Z" fill="black" fill-opacity="0.85"/>
  <path d="M23.7305 52.8906L41.7188 52.8906C45.8008 52.8906 48.3789 50.3906 48.3789 46.4453L48.3789 6.89453C48.3789 2.94922 45.8008 0.449219 41.7188 0.449219L23.7305 0.449219C19.6484 0.449219 17.0703 2.94922 17.0703 6.89453L17.0703 46.4453C17.0703 50.3906 19.6484 52.8906 23.7305 52.8906ZM24.1406 49.4336C21.7773 49.4336 20.5273 48.2227 20.5273 45.9375L20.5273 7.40234C20.5273 5.11719 21.7773 3.90625 24.1406 3.90625L41.2891 3.90625C43.6719 3.90625 44.9219 5.11719 44.9219 7.40234L44.9219 45.9375C44.9219 48.2227 43.6719 49.4336 41.2891 49.4336ZM27.4609 47.6172L38.0078 47.6172C38.6133 47.6172 39.0625 47.1875 39.0625 46.5625C39.0625 45.9375 38.6133 45.5078 38.0078 45.5078L27.4609 45.5078C26.8555 45.5078 26.4062 45.9375 26.4062 46.5625C26.4062 47.1875 26.8555 47.6172 27.4609 47.6172ZM29.7461 8.80859L35.7031 8.80859C36.6016 8.80859 37.3047 8.10547 37.3047 7.1875C37.3047 6.30859 36.6016 5.60547 35.7031 5.60547L29.7461 5.60547C28.8281 5.60547 28.125 6.30859 28.125 7.1875C28.125 8.10547 28.8281 8.80859 29.7461 8.80859Z" fill="black" fill-opacity="0.85"/>
 </g>
</svg>
