<?xml version="1.0" encoding="UTF-8"?>
<!--Generator: Apple Native CoreSVG 326-->
<!DOCTYPE svg
PUBLIC "-//W3C//DTD SVG 1.1//EN"
       "http://www.w3.org/Graphics/SVG/1.1/DTD/svg11.dtd">
<svg version="1.1" xmlns="http://www.w3.org/2000/svg" xmlns:xlink="http://www.w3.org/1999/xlink" viewBox="0 0 44.9023 52.4805">
 <g>
  <rect height="52.4805" opacity="0" width="44.9023" x="0" y="0"/>
  <path d="M34.4531 32.1289L37.9297 35.5859L37.9297 6.44531C37.9297 2.5 35.332 0 31.25 0L13.2617 0C10.0586 0 7.87109 1.48438 7.20703 4.23828L7.07031 4.72656L10.0586 7.71484L10.0586 6.91406C10.0586 4.62891 11.3086 3.45703 13.6914 3.45703L30.8398 3.45703C33.2031 3.45703 34.4531 4.66797 34.4531 6.95312ZM19.2969 8.73047L25.2539 8.73047C26.1523 8.73047 26.8555 8.02734 26.8555 7.10938C26.8555 6.23047 26.1523 5.52734 25.2539 5.52734L19.2969 5.52734C18.3789 5.52734 17.6758 6.23047 17.6758 7.10938C17.6758 8.02734 18.3789 8.73047 19.2969 8.73047ZM13.2617 52.4414L31.25 52.4414C34.3945 52.4414 36.4844 50.9766 37.2266 48.3203C37.2656 48.1836 37.3242 48.0078 37.3633 47.8711L34.4531 44.8828C34.4531 45.1367 34.4531 45.3906 34.4531 45.6641C34.375 47.8516 33.125 48.9844 30.8398 48.9844L13.6914 48.9844C11.3086 48.9844 10.0586 47.7734 10.0586 45.4883L10.0586 20.5273L6.60156 17.0703L6.60156 45.9961C6.60156 49.9414 9.17969 52.4414 13.2617 52.4414ZM16.9922 47.168L27.5391 47.168C28.1641 47.168 28.5938 46.7383 28.5938 46.1133C28.5938 45.4883 28.1641 45.0586 27.5391 45.0586L16.9922 45.0586C16.3867 45.0586 15.9375 45.4883 15.9375 46.1133C15.9375 46.7383 16.3867 47.168 16.9922 47.168Z" fill="black" fill-opacity="0.85"/>
  <path d="M41.6406 48.0859C42.3047 48.7305 43.3594 48.7109 44.0039 48.0859C44.668 47.4414 44.6484 46.3672 44.0039 45.7227L2.85156 4.57031C2.20703 3.92578 1.15234 3.88672 0.46875 4.57031C-0.15625 5.21484-0.15625 6.28906 0.46875 6.93359Z" fill="black" fill-opacity="0.85"/>
 </g>
</svg>
