<?xml version="1.0" encoding="UTF-8"?>
<!--Generator: Apple Native CoreSVG 326-->
<!DOCTYPE svg
PUBLIC "-//W3C//DTD SVG 1.1//EN"
       "http://www.w3.org/Graphics/SVG/1.1/DTD/svg11.dtd">
<svg version="1.1" xmlns="http://www.w3.org/2000/svg" xmlns:xlink="http://www.w3.org/1999/xlink" viewBox="0 0 51.25 50.918">
 <g>
  <rect height="50.918" opacity="0" width="51.25" x="0" y="0"/>
  <path d="M50.8789 25.4688C50.8789 39.4922 39.4531 50.918 25.4297 50.918C11.4258 50.918 0 39.4922 0 25.4688C0 11.4648 11.4258 0.0390625 25.4297 0.0390625C39.4531 0.0390625 50.8789 11.4648 50.8789 25.4688ZM20.4102 10.5469C18.0469 10.5469 16.543 12.0117 16.543 14.2969L16.543 36.6602C16.543 38.9648 18.0469 40.4102 20.4102 40.4102L30.5078 40.4102C32.8711 40.4102 34.3555 38.9648 34.3555 36.6602L34.3555 14.2969C34.3555 12.0117 32.8711 10.5469 30.5078 10.5469ZM26.5625 37.7734C26.5625 38.418 26.0938 38.9258 25.4688 38.9258C24.8438 38.9258 24.3359 38.418 24.3359 37.7734C24.3359 37.1875 24.8438 36.6797 25.4688 36.6797C26.0938 36.6797 26.5625 37.1875 26.5625 37.7734ZM32.2461 35.6445L18.6719 35.6445L18.6719 15.3125L32.2461 15.3125ZM9.0625 17.7734C7.14844 19.8438 6.09375 22.5977 6.09375 25.4688C6.09375 28.3594 7.14844 31.1133 9.0625 33.1836C9.51172 33.6328 10.1367 33.6328 10.4492 33.1836C10.8008 32.793 10.7031 32.3047 10.3125 31.8555C8.71094 30.0977 7.87109 27.8906 7.87109 25.4688C7.87109 23.0664 8.71094 20.8594 10.3125 19.1016C10.7031 18.6523 10.8008 18.1641 10.4492 17.7734C10.1367 17.3242 9.51172 17.3242 9.0625 17.7734ZM40.4688 17.7734C40.1172 18.1641 40.2344 18.6523 40.625 19.1016C42.207 20.8594 43.0664 23.0664 43.0664 25.4688C43.0664 27.8906 42.207 30.0977 40.625 31.8555C40.2344 32.3047 40.1172 32.793 40.4688 33.1836C40.7812 33.6328 41.4062 33.6328 41.8555 33.1836C43.7891 31.1133 44.8438 28.3594 44.8438 25.4688C44.8438 22.5977 43.7891 19.8438 41.8555 17.7734C41.4062 17.3242 40.7812 17.3242 40.4688 17.7734ZM12.7539 21.0156C11.7188 22.2461 11.1133 23.8086 11.1133 25.4688C11.1133 27.1484 11.7188 28.7109 12.7539 29.9219C13.125 30.4102 13.7891 30.4102 14.1602 29.9805C14.4727 29.5703 14.375 29.1016 14.0234 28.6328C13.3008 27.8125 12.9297 26.7188 12.9297 25.4688C12.9297 24.2188 13.3008 23.0859 14.0234 22.3242C14.375 21.8359 14.4727 21.3672 14.1602 20.9766C13.7891 20.5273 13.125 20.5469 12.7539 21.0156ZM36.7773 20.9766C36.4453 21.3672 36.5625 21.8359 36.9141 22.3242C37.6172 23.0859 37.9883 24.2188 37.9883 25.4688C37.9883 26.7188 37.6172 27.8125 36.9141 28.6328C36.5625 29.1016 36.4453 29.5703 36.7773 29.9805C37.1289 30.4102 37.793 30.4102 38.1836 29.9219C39.1992 28.7109 39.8047 27.1484 39.8047 25.4688C39.8047 23.8086 39.1992 22.2461 38.1836 21.0156C37.793 20.5469 37.1289 20.5273 36.7773 20.9766ZM28.0273 13.0273C28.0273 13.3398 27.8125 13.5742 27.5 13.5742L23.3984 13.5742C23.1055 13.5742 22.8711 13.3398 22.8711 13.0273C22.8711 12.6953 23.1055 12.4805 23.3984 12.4805L27.5 12.4805C27.8125 12.4805 28.0273 12.6953 28.0273 13.0273Z" fill="black" fill-opacity="0.85"/>
 </g>
</svg>
