<?xml version="1.0" encoding="UTF-8"?>
<!--Generator: Apple Native CoreSVG 326-->
<!DOCTYPE svg
PUBLIC "-//W3C//DTD SVG 1.1//EN"
       "http://www.w3.org/Graphics/SVG/1.1/DTD/svg11.dtd">
<svg version="1.1" xmlns="http://www.w3.org/2000/svg" xmlns:xlink="http://www.w3.org/1999/xlink" viewBox="0 0 46.2891 45.918">
 <g>
  <rect height="45.918" opacity="0" width="46.2891" x="0" y="0"/>
  <path d="M7.59766 45.918L38.3008 45.918C43.3594 45.918 45.918 43.3594 45.918 38.3984L45.918 7.53906C45.918 2.55859 43.3594 0 38.3008 0L7.59766 0C2.55859 0 0 2.53906 0 7.53906L0 38.3984C0 43.3984 2.55859 45.918 7.59766 45.918ZM7.67578 42.4609C4.94141 42.4609 3.45703 41.0156 3.45703 38.2031L3.45703 7.71484C3.45703 4.92188 4.94141 3.45703 7.67578 3.45703L38.2422 3.45703C40.918 3.45703 42.4609 4.92188 42.4609 7.71484L42.4609 38.2031C42.4609 41.0156 40.918 42.4609 38.2422 42.4609Z" fill="black" fill-opacity="0.85"/>
  <path d="M21.8359 34.6289C26.5234 34.6289 29.082 32.0117 29.082 27.4414L29.082 13.0273C29.082 11.8359 28.4766 11.1133 27.3438 11.1133C26.25 11.1133 25.6445 11.875 25.6445 13.0273L25.6445 27.4023C25.6445 30.0391 24.2383 31.6602 22.0117 31.6602C19.9609 31.6602 18.5156 30.5469 17.9688 28.7695C17.6172 27.9297 17.1289 27.5781 16.3867 27.5781C15.4297 27.5781 14.7852 28.2227 14.7852 29.1992C14.7852 29.5508 14.8438 29.9023 14.9609 30.2539C15.7422 32.8711 18.4375 34.6289 21.8359 34.6289Z" fill="black" fill-opacity="0.85"/>
 </g>
</svg>
