<?xml version="1.0" encoding="UTF-8"?>
<!--Generator: Apple Native CoreSVG 326-->
<!DOCTYPE svg
PUBLIC "-//W3C//DTD SVG 1.1//EN"
       "http://www.w3.org/Graphics/SVG/1.1/DTD/svg11.dtd">
<svg version="1.1" xmlns="http://www.w3.org/2000/svg" xmlns:xlink="http://www.w3.org/1999/xlink" viewBox="0 0 46.2891 45.918">
 <g>
  <rect height="45.918" opacity="0" width="46.2891" x="0" y="0"/>
  <path d="M45.918 7.53906L45.918 38.3984C45.918 43.3594 43.3594 45.918 38.3008 45.918L7.59766 45.918C2.55859 45.918 0 43.3984 0 38.3984L0 7.53906C0 2.53906 2.55859 0 7.59766 0L38.3008 0C43.3594 0 45.918 2.55859 45.918 7.53906ZM25.7031 12.793L25.7031 27.5C25.7031 30.2148 24.2578 31.8555 21.9727 31.8555C19.9023 31.8555 18.4375 30.7422 17.8711 28.9062C17.5 28.0469 16.9922 27.6758 16.2305 27.6758C15.2344 27.6758 14.5703 28.3398 14.5703 29.3555C14.5703 29.7266 14.6289 30.0781 14.7656 30.4492C15.5664 33.125 18.3203 34.9219 21.8164 34.9219C26.6211 34.9219 29.2578 32.2461 29.2578 27.5391L29.2578 12.793C29.2578 11.5625 28.6328 10.8008 27.4609 10.8008C26.3281 10.8008 25.7031 11.6016 25.7031 12.793Z" fill="black" fill-opacity="0.85"/>
 </g>
</svg>
