<?xml version="1.0" encoding="UTF-8"?>
<!--Generator: Apple Native CoreSVG 326-->
<!DOCTYPE svg
PUBLIC "-//W3C//DTD SVG 1.1//EN"
       "http://www.w3.org/Graphics/SVG/1.1/DTD/svg11.dtd">
<svg version="1.1" xmlns="http://www.w3.org/2000/svg" xmlns:xlink="http://www.w3.org/1999/xlink" viewBox="0 0 55.2734 64.5944">
 <g>
  <rect height="64.5944" opacity="0" width="55.2734" x="0" y="0"/>
  <path d="M47.3633 34.7874C48.1641 35.3343 49.1406 35.139 49.7266 34.3187C52.9492 29.9632 54.9023 23.8108 54.9023 17.5413C54.9023 11.2913 52.9688 5.09991 49.7266 0.763975C49.1406-0.0563376 48.1641-0.232119 47.3633 0.314756C46.5625 0.8421 46.4258 1.85772 47.0703 2.73663C49.9414 6.72101 51.5625 12.014 51.5625 17.5413C51.5625 23.0687 49.9023 28.3421 47.0703 32.346C46.4453 33.2444 46.5625 34.2405 47.3633 34.7874Z" fill="black" fill-opacity="0.85"/>
  <path d="M38.3398 28.2054C39.0625 28.6937 40.0781 28.5374 40.6641 27.7171C42.5781 25.178 43.7891 21.4866 43.7891 17.5413C43.7891 13.6155 42.5781 9.94366 40.6641 7.38507C40.0781 6.56476 39.0625 6.38897 38.3398 6.91632C37.4805 7.52179 37.3242 8.57647 38.0078 9.45538C39.6094 11.6624 40.4492 14.4554 40.4492 17.5413C40.4492 20.6468 39.5898 23.4202 38.0078 25.6273C37.3438 26.5452 37.4805 27.5804 38.3398 28.2054Z" fill="black" fill-opacity="0.85"/>
  <path d="M15 62.5608C15.8789 63.3226 17.0898 63.4202 17.9492 62.5804L25.7227 54.8069C26.582 53.9476 26.543 52.6585 25.7031 51.8382L21.543 47.6976L27.5 41.7405C28.3203 40.9398 28.3008 39.6312 27.4609 38.7718L21.8164 33.0882C28.9258 29.8655 32.9492 24.2405 32.9492 17.5413C32.9492 8.43976 25.5859 1.11554 16.4648 1.11554C7.32422 1.11554 0 8.42022 0 17.5413C0 24.221 3.88672 30.1585 10 32.7366L10 56.6819C10 57.4241 10.2344 58.264 10.8984 58.8499ZM16.4648 59.1429L13.4766 56.1546L13.4766 30.2366C7.53906 28.8108 3.4375 23.6546 3.4375 17.5413C3.4375 10.3733 9.25781 4.5921 16.4648 4.5921C23.6719 4.5921 29.4727 10.3538 29.4727 17.5413C29.4727 23.596 25.3516 28.8108 18.6523 30.5101L18.6523 34.9046L24.043 40.2952L18.3789 45.8812L18.3789 49.4358L22.2656 53.2835ZM16.4648 16.6233C18.6914 16.6233 20.4883 14.8265 20.4883 12.6194C20.4883 10.3929 18.6914 8.61554 16.4648 8.61554C14.2383 8.61554 12.4805 10.3929 12.4805 12.6194C12.4805 14.8265 14.2578 16.6233 16.4648 16.6233Z" fill="black" fill-opacity="0.85"/>
 </g>
</svg>
