<?xml version="1.0" encoding="UTF-8"?>
<!--Generator: Apple Native CoreSVG 326-->
<!DOCTYPE svg
PUBLIC "-//W3C//DTD SVG 1.1//EN"
       "http://www.w3.org/Graphics/SVG/1.1/DTD/svg11.dtd">
<svg version="1.1" xmlns="http://www.w3.org/2000/svg" xmlns:xlink="http://www.w3.org/1999/xlink" viewBox="0 0 33.3203 62.3633">
 <g>
  <rect height="62.3633" opacity="0" width="33.3203" x="0" y="0"/>
  <path d="M15 61.4453C15.8789 62.207 17.0898 62.3047 17.9492 61.4648L25.7227 53.6914C26.582 52.832 26.543 51.543 25.7031 50.7227L21.543 46.582L27.5 40.625C28.3203 39.8242 28.3008 38.5156 27.4609 37.6562L21.8164 31.9727C28.9258 28.75 32.9492 23.125 32.9492 16.4258C32.9492 7.32422 25.5859 0 16.4648 0C7.32422 0 0 7.30469 0 16.4258C0 23.1055 3.88672 29.043 10 31.6211L10 55.5664C10 56.3086 10.2344 57.1484 10.8984 57.7344ZM16.4648 58.0273L13.4766 55.0391L13.4766 29.1211C7.53906 27.6953 3.4375 22.5391 3.4375 16.4258C3.4375 9.25781 9.25781 3.47656 16.4648 3.47656C23.6719 3.47656 29.4727 9.23828 29.4727 16.4258C29.4727 22.4805 25.3516 27.6953 18.6523 29.3945L18.6523 33.7891L24.043 39.1797L18.3789 44.7656L18.3789 48.3203L22.2656 52.168ZM16.4648 15.5078C18.6914 15.5078 20.4883 13.7109 20.4883 11.5039C20.4883 9.27734 18.6914 7.5 16.4648 7.5C14.2383 7.5 12.4805 9.27734 12.4805 11.5039C12.4805 13.7109 14.2578 15.5078 16.4648 15.5078Z" fill="black" fill-opacity="0.85"/>
 </g>
</svg>
