<?xml version="1.0" encoding="UTF-8"?>
<!--Generator: Apple Native CoreSVG 326-->
<!DOCTYPE svg
PUBLIC "-//W3C//DTD SVG 1.1//EN"
       "http://www.w3.org/Graphics/SVG/1.1/DTD/svg11.dtd">
<svg version="1.1" xmlns="http://www.w3.org/2000/svg" xmlns:xlink="http://www.w3.org/1999/xlink" viewBox="0 0 51.25 50.918">
 <g>
  <rect height="50.918" opacity="0" width="51.25" x="0" y="0"/>
  <path d="M50.8789 25.4492C50.8789 39.4531 39.4531 50.8789 25.4297 50.8789C11.4258 50.8789 0 39.4531 0 25.4492C0 11.4258 11.4258 0 25.4297 0C39.4531 0 50.8789 11.4258 50.8789 25.4492ZM9.57031 18.3789L9.57031 32.5195C9.57031 33.5156 10.1953 33.9062 10.8789 33.9062C11.7383 33.9062 12.2266 33.3789 12.2266 32.5195L12.2266 28.6328L13.418 26.5625L16.7773 33.0469C17.0117 33.5352 17.4805 33.8672 18.0859 33.8672C18.6719 33.8672 19.2578 33.3984 19.2578 32.6562C19.2578 32.3242 19.1797 31.9922 19.043 31.7188L15.293 24.6875L18.5547 19.1602C18.75 18.8281 18.8281 18.5938 18.8281 18.2227C18.8281 17.6367 18.418 17.0312 17.6562 17.0312C16.9922 17.0312 16.7188 17.3242 16.4648 17.832L12.3438 25.0586L12.207 25.0586L12.207 18.3789C12.207 17.5195 11.7383 16.9922 10.8594 16.9922C10.0391 16.9922 9.57031 17.5391 9.57031 18.3789ZM38.5352 18.418L38.5352 24.1797L34.1797 24.1797L34.1797 18.418C34.1797 17.5195 33.7109 16.9922 32.8711 16.9922C32.0117 16.9922 31.543 17.5195 31.543 18.418L31.543 32.4805C31.543 33.3594 32.0117 33.9062 32.8711 33.9062C33.7305 33.9062 34.1797 33.3594 34.1797 32.4805L34.1797 26.4258L38.5352 26.4258L38.5352 32.4805C38.5352 33.3594 38.9844 33.9062 39.8438 33.9062C40.7227 33.9062 41.1719 33.3594 41.1719 32.4805L41.1719 18.418C41.1719 17.5195 40.7227 16.9922 39.8438 16.9922C39.0039 16.9922 38.5352 17.5195 38.5352 18.418ZM22.1094 17.2266C21.3086 17.2266 20.8203 17.7734 20.8203 18.6133L20.8203 32.5C20.8203 33.3008 21.3281 33.8672 22.1289 33.8672C22.9492 33.8672 23.457 33.3008 23.457 32.5L23.457 28.0664L25.3125 28.0664C28.3398 28.0664 29.7656 25.4102 29.7656 22.6367C29.7656 19.668 28.2422 17.2266 25.4492 17.2266ZM27.168 22.6367C27.168 24.4336 26.5039 25.918 24.7656 25.918L23.457 25.918L23.457 19.375L24.7852 19.375C26.5234 19.375 27.168 20.8594 27.168 22.6367Z" fill="black" fill-opacity="0.85"/>
 </g>
</svg>
