<?xml version="1.0" encoding="UTF-8"?>
<!--Generator: Apple Native CoreSVG 326-->
<!DOCTYPE svg
PUBLIC "-//W3C//DTD SVG 1.1//EN"
       "http://www.w3.org/Graphics/SVG/1.1/DTD/svg11.dtd">
<svg version="1.1" xmlns="http://www.w3.org/2000/svg" xmlns:xlink="http://www.w3.org/1999/xlink" viewBox="0 0 46.2891 45.918">
 <g>
  <rect height="45.918" opacity="0" width="46.2891" x="0" y="0"/>
  <path d="M7.59766 45.918L38.3008 45.918C43.3594 45.918 45.918 43.3594 45.918 38.3984L45.918 7.53906C45.918 2.55859 43.3594 0 38.3008 0L7.59766 0C2.55859 0 0 2.53906 0 7.53906L0 38.3984C0 43.3984 2.55859 45.918 7.59766 45.918ZM7.67578 42.4609C4.94141 42.4609 3.45703 41.0156 3.45703 38.2031L3.45703 7.71484C3.45703 4.92188 4.94141 3.45703 7.67578 3.45703L38.2422 3.45703C40.918 3.45703 42.4609 4.92188 42.4609 7.71484L42.4609 38.2031C42.4609 41.0156 40.918 42.4609 38.2422 42.4609Z" fill="black" fill-opacity="0.85"/>
  <path d="M29.3555 32.9102C30.3906 32.9102 31.1523 32.1875 31.1523 31.1914C31.1523 30.3711 30.8008 29.8828 29.8828 29.4531L16.9922 22.9688L16.9922 22.8125L29.8828 16.2305C30.7812 15.7812 31.1523 15.2539 31.1523 14.4531C31.1523 13.4961 30.4102 12.7539 29.3945 12.7539C28.9258 12.7539 28.6523 12.832 28.3008 13.0078L13.5156 21.0352C12.6562 21.5234 12.2461 22.1289 12.2461 22.9492C12.2461 23.8477 12.6172 24.3945 13.5156 24.8633L28.3008 32.6562C28.6328 32.832 28.9258 32.9102 29.3555 32.9102Z" fill="black" fill-opacity="0.85"/>
 </g>
</svg>
