<?xml version="1.0" encoding="UTF-8"?>
<!--Generator: Apple Native CoreSVG 326-->
<!DOCTYPE svg
PUBLIC "-//W3C//DTD SVG 1.1//EN"
       "http://www.w3.org/Graphics/SVG/1.1/DTD/svg11.dtd">
<svg version="1.1" xmlns="http://www.w3.org/2000/svg" xmlns:xlink="http://www.w3.org/1999/xlink" viewBox="0 0 58.1051 55.6938">
 <g>
  <rect height="55.6938" opacity="0" width="58.1051" x="0" y="0"/>
  <path d="M2.26545 19.6926C-0.0392423 21.0402-0.644711 23.1692 0.722476 25.5129L4.33576 31.7824C5.31232 33.4426 6.67951 34.0676 8.26154 34.0676L27.2264 34.0676L15.1951 41.0207C12.8904 42.3684 12.324 44.4777 13.6522 46.802L17.2654 53.091C18.6326 55.4543 20.7225 55.9817 23.0272 54.6535L55.4686 35.9426C57.7733 34.6145 58.3787 32.4856 57.0115 30.1418L53.3983 23.8723C52.4803 22.3098 51.2108 21.6067 49.5311 21.6067L30.4686 21.6067L42.5389 14.6145C44.8436 13.2863 45.41 11.177 44.0819 8.85275L40.4686 2.56369C39.1014 0.200405 37.0115-0.34647 34.7069 1.00119ZM3.86701 22.0168L35.9178 3.55978C36.7967 3.03244 37.617 3.28634 38.1639 4.22384L41.5233 10.0246C42.0701 10.9426 41.8358 11.802 40.9373 12.3098L8.9256 30.7863C8.0467 31.3137 7.18732 31.0598 6.64045 30.1418L3.32013 24.3606C2.77326 23.4231 2.96857 22.5637 3.86701 22.0168ZM13.8475 31.2356L25.5662 24.4387L43.8475 24.4387L32.1287 31.2356ZM16.7967 43.3254L48.7889 24.8684C49.6873 24.341 50.5467 24.5949 51.0936 25.5129L54.4139 31.2942C54.9608 32.2317 54.7654 33.091 53.8475 33.6184L21.8162 52.0949C20.9373 52.6027 20.117 52.3684 19.5701 51.4309L16.1912 45.6106C15.6639 44.7121 15.8983 43.8527 16.7967 43.3254ZM38.6912 2.50509L39.9608 4.69259L44.0819 2.30978C44.6678 1.95822 44.9022 1.21603 44.5311 0.610562C44.1795 0.0246242 43.4373-0.170688 42.8319 0.161343ZM41.992 8.20822L43.2615 10.3957L47.3436 8.03244C48.0272 7.66134 48.2029 6.99728 47.7928 6.31369C47.4608 5.68869 46.7186 5.49337 46.1131 5.84494ZM33.1248 10.9817C33.6326 11.8996 34.785 12.1926 35.7029 11.7043C36.6209 11.1379 36.9334 10.0051 36.4061 9.06759C35.8787 8.16916 34.7264 7.85666 33.8279 8.36447C32.8904 8.93087 32.617 10.0637 33.1248 10.9817ZM26.9725 14.5363C27.4608 15.4543 28.5936 15.7668 29.5115 15.259C30.449 14.7121 30.8006 13.5598 30.2147 12.6809C29.7069 11.7238 28.535 11.4309 27.6365 11.9582C26.699 12.5051 26.4256 13.6184 26.9725 14.5363ZM20.7615 18.1496C21.2889 19.0285 22.4608 19.3215 23.3592 18.8332C24.2576 18.2863 24.5701 17.1145 24.0428 16.2551C23.5154 15.3176 22.3436 15.0051 21.4842 15.5324C20.5467 16.0598 20.2147 17.2121 20.7615 18.1496ZM14.5506 21.7238C15.0975 22.6027 16.2498 22.9152 17.1678 22.4074C18.1053 21.8606 18.4178 20.6887 17.8319 19.8098C17.3826 18.8723 16.2108 18.5598 15.2537 19.1067C14.3553 19.5949 14.0233 20.8059 14.5506 21.7238ZM8.37873 25.2785C8.88654 26.1965 10.0389 26.4895 10.9959 25.9621C11.8748 25.4348 12.1873 24.2824 11.6795 23.384C11.1522 22.4465 9.99982 22.1535 9.08185 22.6613C8.14435 23.1887 7.85138 24.3606 8.37873 25.2785ZM19.0428 53.1301L17.7733 50.9426L13.6522 53.3449C13.0662 53.6965 12.8319 54.4192 13.2029 55.0442C13.5545 55.6301 14.2967 55.8254 14.9022 55.4738ZM15.742 47.427L14.4725 45.2395L10.3709 47.6027C9.70685 47.9934 9.53107 48.6574 9.94123 49.3215C10.2733 49.9465 11.0154 50.1418 11.6209 49.8098ZM46.0545 32.2512C46.5819 33.1887 47.7342 33.4817 48.6522 32.9738C49.5897 32.466 49.8826 31.2746 49.3553 30.3567C48.8279 29.4387 47.6951 29.1652 46.7381 29.6731C45.8592 30.2199 45.5467 31.3527 46.0545 32.2512ZM39.9022 35.8254C40.3514 36.7629 41.5233 37.0754 42.4803 36.5481C43.3787 36.0402 43.7108 34.8488 43.1834 33.9309C42.6365 33.0324 41.4842 32.7395 40.5662 33.2277C39.6287 33.7746 39.3162 34.966 39.9022 35.8254ZM33.6912 39.3996C34.2186 40.3371 35.3904 40.6496 36.2498 40.1223C37.1873 39.5754 37.5194 38.4426 36.9725 37.5051C36.4451 36.6067 35.2733 36.3332 34.3748 36.802C33.4764 37.3684 33.1639 38.5207 33.6912 39.3996ZM27.5194 42.9543C28.0272 43.9113 29.199 44.2043 30.0975 43.677C31.035 43.1301 31.3084 42.0168 30.7615 41.0988C30.2537 40.1809 29.1404 39.8879 28.2225 40.3762C27.285 40.9231 26.9334 42.0754 27.5194 42.9543ZM21.3279 46.5871C21.8553 47.4856 23.0076 47.7785 23.9061 47.2902C24.8436 46.7043 25.117 45.591 24.5897 44.6731C24.1014 43.7551 22.949 43.4426 22.0311 43.9504C21.1131 44.4973 20.8006 45.6496 21.3279 46.5871Z" fill="black" fill-opacity="0.85"/>
 </g>
</svg>
