<?xml version="1.0" encoding="UTF-8"?>
<!--Generator: Apple Native CoreSVG 326-->
<!DOCTYPE svg
PUBLIC "-//W3C//DTD SVG 1.1//EN"
       "http://www.w3.org/Graphics/SVG/1.1/DTD/svg11.dtd">
<svg version="1.1" xmlns="http://www.w3.org/2000/svg" xmlns:xlink="http://www.w3.org/1999/xlink" viewBox="0 0 51.25 50.918">
 <g>
  <rect height="50.918" opacity="0" width="51.25" x="0" y="0"/>
  <path d="M50.8789 25.4492C50.8789 39.4531 39.4531 50.8789 25.4297 50.8789C11.4258 50.8789 0 39.4531 0 25.4492C0 11.4258 11.4258 0 25.4297 0C39.4531 0 50.8789 11.4258 50.8789 25.4492ZM21.9922 38.9844C22.1094 40.293 23.5547 41.1719 25.4297 41.1719C27.2852 41.1719 28.7305 40.293 28.8867 38.9844ZM21.4062 35.6836C20.8789 35.6836 20.4297 36.1328 20.4297 36.6602C20.4297 37.1875 20.8789 37.6172 21.4062 37.6172L29.4531 37.6172C29.9805 37.6172 30.4297 37.1875 30.4297 36.6602C30.4297 36.1328 29.9805 35.6836 29.4531 35.6836ZM16.4062 17.9297C16.4062 23.0273 19.8438 24.375 20.3711 33.5352C20.4102 34.0039 20.7227 34.3164 21.1914 34.3164L29.6484 34.3164C30.1367 34.3164 30.4492 34.0039 30.4883 33.5352C30.9766 24.375 34.4531 23.125 34.4531 18.0273C34.4531 13.418 30.4688 9.70703 25.4102 9.70703C20.3711 9.70703 16.4062 13.3203 16.4062 17.9297Z" fill="black" fill-opacity="0.85"/>
 </g>
</svg>
