<?xml version="1.0" encoding="UTF-8"?>
<!--Generator: Apple Native CoreSVG 326-->
<!DOCTYPE svg
PUBLIC "-//W3C//DTD SVG 1.1//EN"
       "http://www.w3.org/Graphics/SVG/1.1/DTD/svg11.dtd">
<svg version="1.1" xmlns="http://www.w3.org/2000/svg" xmlns:xlink="http://www.w3.org/1999/xlink" viewBox="0 0 60.4102 50.0586">
 <g>
  <rect height="50.0586" opacity="0" width="60.4102" x="0" y="0"/>
  <path d="M60.0391 30.0195C60.0391 22.6562 57.3828 15.918 52.9688 10.6836C52.4609 10.0781 51.6016 10.0977 51.0352 10.6641L45.3906 16.3086C44.9023 16.7969 44.8828 17.4805 45.3125 18.0273C47.9102 21.3477 49.4531 25.4883 49.4531 30.0195C49.4531 34.5508 47.9102 38.7109 45.1953 42.1484C44.8242 42.6172 44.8438 43.2031 45.2539 43.6133L51.0352 49.4141C51.6016 50 52.4414 49.9805 52.9688 49.375C57.3828 44.1406 60.0391 37.3633 60.0391 30.0195Z" fill="black" fill-opacity="0.85"/>
  <path d="M30.0195 10.5664C34.5508 10.5664 38.7305 12.1289 42.0508 14.7656C42.5781 15.1562 43.2227 15.1172 43.7109 14.6289L49.375 8.96484C49.9609 8.39844 49.9414 7.55859 49.3359 7.03125C44.1211 2.65625 37.3633 0 30.0195 0C22.6758 0 15.918 2.65625 10.7031 7.03125C10.0977 7.55859 10.0781 8.39844 10.6445 8.96484L16.3281 14.6289C16.7969 15.1172 17.5 15.1367 18.0469 14.707C21.3477 12.1289 25.5078 10.5664 30.0195 10.5664Z" fill="black" fill-opacity="0.85"/>
  <path d="M0 30.0195C0 37.3633 2.65625 44.1406 7.07031 49.375C7.57812 49.9805 8.4375 50 9.00391 49.4141L14.7852 43.6133C15.1758 43.2031 15.2148 42.6172 14.8438 42.1484C12.1289 38.7109 10.5664 34.5508 10.5664 30.0195C10.5664 25.4883 12.1094 21.3477 14.7266 18.0273C15.1367 17.4805 15.1367 16.7969 14.6484 16.3086L8.98438 10.6641C8.41797 10.0977 7.57812 10.0781 7.05078 10.6836C2.63672 15.918 0 22.6562 0 30.0195Z" fill="black" fill-opacity="0.85"/>
  <path d="M22.4023 41.0938L37.3633 41.0938C38.0078 41.0938 38.4766 40.625 38.4766 40C38.4766 39.375 38.0078 38.9062 37.3633 38.9062L25.4102 38.9062L25.4102 38.7695C27.207 38.1836 28.2617 36.25 28.418 34.1797C28.4375 33.9062 28.4375 33.6328 28.4375 33.3594L34.7656 33.3594C35.2539 33.3594 35.6445 32.9688 35.6445 32.5C35.6445 32.0117 35.2539 31.6406 34.7656 31.6406L28.2617 31.6406C28.0859 30.5664 27.7344 29.6289 27.4805 28.6523L34.7656 28.6523C35.2539 28.6523 35.6445 28.2617 35.6445 27.7734C35.6445 27.2852 35.2539 26.9336 34.7656 26.9336L27.207 26.9336C27.168 26.6211 27.1289 26.2695 27.1289 25.918C27.1289 22.8516 29.5508 21.2695 32.6367 21.2695C33.6523 21.2695 34.7656 21.4648 35.4492 21.6211C35.7812 21.7383 36.1719 21.8164 36.4258 21.8164C37.1289 21.8164 37.4023 21.3867 37.4023 20.8789C37.4023 20.2734 37.0312 19.9219 36.4453 19.6875C35.1758 19.1406 33.6719 19.043 32.3828 19.043C27.6953 19.043 24.4922 21.5625 24.4922 25.9961C24.4922 26.3281 24.4922 26.6211 24.5312 26.9336L22.1875 26.9336C21.6992 26.9336 21.3086 27.2852 21.3086 27.7734C21.3086 28.2617 21.6992 28.6523 22.1875 28.6523L24.8047 28.6523C25.0586 29.707 25.4102 30.6445 25.6445 31.6406L22.1875 31.6406C21.6992 31.6406 21.3086 32.0117 21.3086 32.5C21.3086 32.9688 21.6992 33.3594 22.1875 33.3594L25.8594 33.3594C25.8594 33.6523 25.8398 34.043 25.8008 34.375C25.5469 36.6211 24.0625 38.125 22.3047 38.6719C21.6602 38.8867 21.25 39.2383 21.25 39.9414C21.25 40.7031 21.7773 41.0938 22.4023 41.0938Z" fill="black" fill-opacity="0.85"/>
 </g>
</svg>
