<?xml version="1.0" encoding="UTF-8"?>
<!--Generator: Apple Native CoreSVG 326-->
<!DOCTYPE svg
PUBLIC "-//W3C//DTD SVG 1.1//EN"
       "http://www.w3.org/Graphics/SVG/1.1/DTD/svg11.dtd">
<svg version="1.1" xmlns="http://www.w3.org/2000/svg" xmlns:xlink="http://www.w3.org/1999/xlink" viewBox="0 0 46.2891 45.918">
 <g>
  <rect height="45.918" opacity="0" width="46.2891" x="0" y="0"/>
  <path d="M7.59766 45.918L38.3008 45.918C43.3594 45.918 45.918 43.3594 45.918 38.3984L45.918 7.53906C45.918 2.55859 43.3594 0 38.3008 0L7.59766 0C2.55859 0 0 2.53906 0 7.53906L0 38.3984C0 43.3984 2.55859 45.918 7.59766 45.918ZM7.67578 42.4609C4.94141 42.4609 3.45703 41.0156 3.45703 38.2031L3.45703 7.71484C3.45703 4.92188 4.94141 3.45703 7.67578 3.45703L38.2422 3.45703C40.918 3.45703 42.4609 4.92188 42.4609 7.71484L42.4609 38.2031C42.4609 41.0156 40.918 42.4609 38.2422 42.4609Z" fill="black" fill-opacity="0.85"/>
  <path d="M15.3906 33.7109L30.332 33.7109C30.9766 33.7109 31.4648 33.2227 31.4648 32.5977C31.4648 31.9922 30.9766 31.5039 30.332 31.5039L18.3789 31.5039L18.3789 31.3672C20.1758 30.7812 21.2305 28.8477 21.3867 26.7773C21.4062 26.5039 21.4258 26.2305 21.4062 25.957L27.7344 25.957C28.2227 25.957 28.6328 25.5859 28.6328 25.0977C28.6328 24.6094 28.2227 24.2383 27.7344 24.2383L21.25 24.2383C21.0547 23.1641 20.7227 22.2461 20.4688 21.25L27.7344 21.25C28.2227 21.25 28.6328 20.8789 28.6328 20.3906C28.6328 19.9023 28.2227 19.5312 27.7344 19.5312L20.1758 19.5312C20.1367 19.2188 20.1172 18.8867 20.1172 18.5352C20.1172 15.4688 22.5195 13.8867 25.625 13.8867C26.6406 13.8867 27.7539 14.0625 28.418 14.2188C28.7695 14.3359 29.1406 14.4141 29.4141 14.4141C30.1172 14.4141 30.3906 13.9844 30.3906 13.4766C30.3906 12.8711 30 12.5391 29.4336 12.2852C28.1641 11.7383 26.6406 11.6602 25.3711 11.6602C20.6641 11.6602 17.4609 14.1602 17.4609 18.6133C17.4609 18.9258 17.4805 19.2188 17.5 19.5312L15.1758 19.5312C14.6875 19.5312 14.2969 19.9023 14.2969 20.3906C14.2969 20.8789 14.6875 21.25 15.1758 21.25L17.793 21.25C18.0273 22.3047 18.3789 23.2422 18.6133 24.2383L15.1758 24.2383C14.6875 24.2383 14.2969 24.6094 14.2969 25.0977C14.2969 25.5859 14.6875 25.957 15.1758 25.957L18.8281 25.957C18.8477 26.25 18.8086 26.6406 18.7695 26.9727C18.5156 29.2188 17.0312 30.7422 15.2734 31.2695C14.6289 31.4844 14.2383 31.8555 14.2383 32.5391C14.2383 33.3008 14.7461 33.7109 15.3906 33.7109Z" fill="black" fill-opacity="0.85"/>
 </g>
</svg>
