<?xml version="1.0" encoding="UTF-8"?>
<!--Generator: Apple Native CoreSVG 326-->
<!DOCTYPE svg
PUBLIC "-//W3C//DTD SVG 1.1//EN"
       "http://www.w3.org/Graphics/SVG/1.1/DTD/svg11.dtd">
<svg version="1.1" xmlns="http://www.w3.org/2000/svg" xmlns:xlink="http://www.w3.org/1999/xlink" viewBox="0 0 53.6231 48.1445">
 <g>
  <rect height="48.1445" opacity="0" width="53.6231" x="0" y="0"/>
  <path d="M32.1827 3.24219L51.9287 37.7734C52.5733 38.8867 52.9053 40.0977 52.9053 41.2695C52.9053 44.8828 50.4444 47.7344 46.3819 47.7344L6.87015 47.7344C2.78812 47.7344 0.346716 44.8828 0.346716 41.2695C0.346716 40.0977 0.639685 38.9062 1.30375 37.7734L9.4253 23.5708L11.9098 26.0553L8.0117 32.8711L6.47953 32.8711L4.44828 36.2109L6.10243 36.2095L4.29203 39.375C3.96 40 3.82328 40.6641 3.82328 41.25C3.82328 42.8906 4.97562 44.3555 6.90922 44.3555L46.3233 44.3555C48.2569 44.3555 49.4287 42.8906 49.4287 41.25C49.4287 40.6641 49.2725 40.0195 48.9209 39.3945L47.0816 36.1734L48.8428 36.1719L46.8116 32.8711L45.1959 32.8711L29.2139 4.88281C28.628 3.84766 27.6123 3.4375 26.6162 3.4375C25.6202 3.4375 24.6045 3.84766 24.0186 4.88281L16.9008 17.3284L14.4151 14.8447L21.0498 3.24219C22.2998 1.07422 24.4483 0 26.6162 0C28.8037 0 30.9522 1.07422 32.1827 3.24219Z" fill="black" fill-opacity="0.85"/>
  <path d="M28.335 12.0117L28.335 28.7534L24.917 25.3382L24.917 12.0117C24.917 10.957 25.5616 10.2344 26.6162 10.2344C27.6905 10.2344 28.335 10.957 28.335 12.0117Z" fill="black" fill-opacity="0.85"/>
  <path d="M48.8428 36.1719L4.44828 36.2109L6.47953 32.8711L23.1546 32.8711L25.7959 35.5078L28.2178 33.0469L28.0419 32.8711L46.8116 32.8711Z" fill="black" fill-opacity="0.85"/>
  <path d="M25.7959 35.5078L28.2178 33.0469L6.10843 10.957C5.38578 10.2148 4.42875 10.2148 3.66703 10.9375C2.90531 11.6992 2.94437 12.6953 3.66703 13.418Z" fill="black" fill-opacity="0.85"/>
 </g>
</svg>
