<?xml version="1.0" encoding="UTF-8"?>
<!--Generator: Apple Native CoreSVG 326-->
<!DOCTYPE svg
PUBLIC "-//W3C//DTD SVG 1.1//EN"
       "http://www.w3.org/Graphics/SVG/1.1/DTD/svg11.dtd">
<svg version="1.1" xmlns="http://www.w3.org/2000/svg" xmlns:xlink="http://www.w3.org/1999/xlink" viewBox="0 0 59.1016 37.8711">
 <g>
  <rect height="37.8711" opacity="0" width="59.1016" x="0" y="0"/>
  <path d="M5.58594 37.8711L53.1445 37.8711C56.5039 37.8711 58.7305 35.6055 58.7305 32.207L58.7305 5.68359C58.7305 2.28516 56.5039 0.0195312 53.1445 0.0195312L5.58594 0.0195312C2.22656 0.0195312 0 2.28516 0 5.68359L0 32.207C0 35.6055 2.22656 37.8711 5.58594 37.8711ZM5.60547 34.4141C4.31641 34.4141 3.45703 33.4766 3.45703 32.0703L3.45703 5.82031C3.45703 4.41406 4.31641 3.47656 5.60547 3.47656L53.1445 3.47656C54.4336 3.47656 55.2734 4.41406 55.2734 5.82031L55.2734 32.0703C55.2734 33.4766 54.4336 34.4141 53.1445 34.4141ZM9.04297 31.25L33.457 31.25C34.9219 31.25 35.8594 30.293 35.8594 28.8281L35.8594 9.0625C35.8594 7.59766 34.9219 6.64062 33.457 6.64062L9.04297 6.64062C7.55859 6.64062 6.62109 7.59766 6.62109 9.0625L6.62109 28.8281C6.62109 30.293 7.55859 31.25 9.04297 31.25ZM9.90234 28.7695C9.43359 28.7695 9.10156 28.4375 9.10156 27.9492L9.10156 9.94141C9.10156 9.45312 9.43359 9.12109 9.90234 9.12109L32.5977 9.12109C33.0664 9.12109 33.3984 9.45312 33.3984 9.94141L33.3984 27.9492C33.3984 28.4375 33.0664 28.7695 32.5977 28.7695ZM39.2578 35.9961L41.7188 35.9961L41.7188 1.875L39.2578 1.875ZM40.5859 27.8125L57.0508 27.8125L57.0508 25.3516L40.5859 25.3516ZM44.8242 11.7969L52.1875 11.7969C52.4609 11.7969 52.6758 11.582 52.6758 11.3281L52.6758 7.10938C52.6758 6.85547 52.4609 6.64062 52.1875 6.64062L44.8242 6.64062C44.5703 6.64062 44.3555 6.85547 44.3555 7.10938L44.3555 11.3281C44.3555 11.582 44.5703 11.7969 44.8242 11.7969ZM45.4883 15.7812L51.5234 15.7812C52.207 15.7812 52.6758 15.3125 52.6758 14.6484C52.6758 13.9844 52.207 13.5156 51.5234 13.5156L45.4883 13.5156C44.8242 13.5156 44.3555 13.9844 44.3555 14.6484C44.3555 15.3125 44.8242 15.7812 45.4883 15.7812ZM45.4883 19.8047L51.5234 19.8047C52.207 19.8047 52.6758 19.3359 52.6758 18.6719C52.6758 18.0078 52.207 17.5391 51.5234 17.5391L45.4883 17.5391C44.8242 17.5391 44.3555 18.0078 44.3555 18.6719C44.3555 19.3359 44.8242 19.8047 45.4883 19.8047Z" fill="black" fill-opacity="0.85"/>
 </g>
</svg>
