<?xml version="1.0" encoding="UTF-8"?>
<!--Generator: Apple Native CoreSVG 326-->
<!DOCTYPE svg
PUBLIC "-//W3C//DTD SVG 1.1//EN"
       "http://www.w3.org/Graphics/SVG/1.1/DTD/svg11.dtd">
<svg version="1.1" xmlns="http://www.w3.org/2000/svg" xmlns:xlink="http://www.w3.org/1999/xlink" viewBox="0 0 51.25 50.918">
 <g>
  <rect height="50.918" opacity="0" width="51.25" x="0" y="0"/>
  <path d="M25.4297 50.8789C39.4727 50.8789 50.8789 39.4922 50.8789 25.4492C50.8789 11.4062 39.4727 0 25.4297 0C11.3867 0 0 11.4062 0 25.4492C0 39.4922 11.3867 50.8789 25.4297 50.8789ZM25.4297 47.2461C13.3789 47.2461 3.63281 37.5 3.63281 25.4492C3.63281 13.3984 13.3789 3.65234 25.4297 3.65234C37.4805 3.65234 47.2266 13.3984 47.2266 25.4492C47.2266 37.5 37.4805 47.2461 25.4297 47.2461Z" fill="black" fill-opacity="0.85"/>
  <path d="M19.1211 40.6836L31.7383 40.6836C32.3633 40.6836 32.9297 40.1172 32.9297 39.4727C32.9297 38.8281 32.3828 38.2617 31.7383 38.2617L26.6406 38.2617L26.6406 35.2734C31.6406 34.7461 35.0195 30.9766 35.0195 25.9375L35.0195 22.8516C35.0195 22.2266 34.4727 21.6797 33.8477 21.6797C33.2031 21.6797 32.6562 22.2266 32.6562 22.8516L32.6562 25.9375C32.6562 30.1562 29.7461 33.0469 25.4102 33.0469C21.0938 33.0469 18.1836 30.1562 18.1836 25.9375L18.1836 22.8516C18.1836 22.2266 17.6367 21.6797 16.9922 21.6797C16.3672 21.6797 15.8203 22.2266 15.8203 22.8516L15.8203 25.9375C15.8203 30.9766 19.2188 34.7656 24.2188 35.2734L24.2188 38.2617L19.1211 38.2617C18.4766 38.2617 17.9102 38.8281 17.9102 39.4727C17.9102 40.1367 18.4766 40.6836 19.1211 40.6836ZM25.4102 30.3125C27.9102 30.3125 29.6094 28.3789 29.6094 25.8203L29.6094 14.9219C29.6094 12.3438 27.9102 10.4297 25.4102 10.4297C22.9297 10.4297 21.2305 12.3438 21.2305 14.9219L21.2305 25.8203C21.2305 28.3789 22.9297 30.3125 25.4102 30.3125Z" fill="black" fill-opacity="0.85"/>
 </g>
</svg>
