<?xml version="1.0" encoding="UTF-8"?>
<!--Generator: Apple Native CoreSVG 326-->
<!DOCTYPE svg
PUBLIC "-//W3C//DTD SVG 1.1//EN"
       "http://www.w3.org/Graphics/SVG/1.1/DTD/svg11.dtd">
<svg version="1.1" xmlns="http://www.w3.org/2000/svg" xmlns:xlink="http://www.w3.org/1999/xlink" viewBox="0 0 51.25 50.918">
 <g>
  <rect height="50.918" opacity="0" width="51.25" x="0" y="0"/>
  <path d="M50.8789 25.4688C50.8789 39.4922 39.4531 50.918 25.4297 50.918C11.4258 50.918 0 39.4922 0 25.4688C0 11.4648 11.4258 0.0390625 25.4297 0.0390625C39.4531 0.0390625 50.8789 11.4648 50.8789 25.4688ZM19.4727 13.4375C14.375 15.3711 11.0156 20.9375 11.0156 26.6797C11.0156 34.668 17.168 40.5273 25.1367 40.5273C30.9961 40.5273 36.25 36.9531 37.9492 32.4414C38.3594 31.4844 37.793 30.7422 36.8555 31.0938C35.8008 31.4844 33.9844 31.8164 32.2266 31.8164C24.8047 31.8164 19.8828 26.9922 19.8828 19.5508C19.8828 17.832 20.3125 15.8398 20.7422 14.5898C21.1328 13.6914 20.4883 13.0469 19.4727 13.4375ZM32.168 11.0156C31.4258 15.5664 31.3867 15.8398 26.582 16.5625C26.3086 16.6016 26.1328 16.7773 26.1328 17.0508C26.1328 17.3633 26.3086 17.5391 26.582 17.5781C31.3867 18.4961 31.5625 18.5742 32.168 23.125C32.207 23.3984 32.4023 23.6133 32.6562 23.6133C32.9102 23.6133 33.125 23.3984 33.1445 23.125C33.7305 18.5352 33.9844 18.3008 38.6914 17.5781C39.0039 17.5391 39.1992 17.3828 39.1992 17.0508C39.1992 16.7773 39.0039 16.6016 38.7305 16.5625C34.0039 15.6445 33.9062 15.5078 33.1445 11.0156C33.125 10.7227 32.9102 10.5469 32.6562 10.5469C32.4023 10.5469 32.207 10.7227 32.168 11.0156Z" fill="black" fill-opacity="0.85"/>
 </g>
</svg>
