<?xml version="1.0" encoding="UTF-8"?>
<!--Generator: Apple Native CoreSVG 326-->
<!DOCTYPE svg
PUBLIC "-//W3C//DTD SVG 1.1//EN"
       "http://www.w3.org/Graphics/SVG/1.1/DTD/svg11.dtd">
<svg version="1.1" xmlns="http://www.w3.org/2000/svg" xmlns:xlink="http://www.w3.org/1999/xlink" viewBox="0 0 57.0898 54.8633">
 <g>
  <rect height="54.8633" opacity="0" width="57.0898" x="0" y="0"/>
  <path d="M47.6367 28.8281C48.0469 28.8281 48.3203 28.5547 48.3789 28.125C49.2773 21.3867 49.5117 21.3086 56.3477 20.1367C56.8164 20.0586 57.0898 19.8242 57.0898 19.3945C57.0898 18.9844 56.8164 18.7305 56.4258 18.6523C49.5703 17.3438 49.2773 17.4219 48.3789 10.6641C48.3203 10.2344 48.0469 9.96094 47.6367 9.96094C47.2461 9.96094 46.9531 10.2344 46.9141 10.6445C45.9766 17.4609 45.8398 17.5977 38.8477 18.6523C38.4766 18.7109 38.1836 18.9844 38.1836 19.3945C38.1836 19.8047 38.4766 20.0586 38.8477 20.1367C45.8398 21.4844 45.957 21.4258 46.9141 28.1641C46.9531 28.5547 47.2461 28.8281 47.6367 28.8281ZM35.5859 12.1289C35.8398 12.1289 35.9961 11.9727 36.0352 11.7188C36.7773 7.5 36.7969 7.34375 41.2305 6.52344C41.4844 6.48438 41.6602 6.32812 41.6602 6.07422C41.6602 5.80078 41.4844 5.66406 41.2305 5.60547C36.8164 4.70703 36.9727 4.57031 36.0352 0.410156C35.9961 0.15625 35.8398 0 35.5859 0C35.332 0 35.1953 0.15625 35.1367 0.410156C34.2188 4.57031 34.4141 4.70703 29.9609 5.60547C29.707 5.66406 29.5312 5.80078 29.5312 6.07422C29.5312 6.32812 29.707 6.48438 29.9609 6.52344C34.4141 7.42188 34.375 7.5 35.1367 11.7188C35.1953 11.9727 35.332 12.1289 35.5859 12.1289Z" fill="black" fill-opacity="0.85"/>
  <path d="M28.75 51.7578C37.1484 51.7578 45.0586 47.2461 48.4766 39.5312C48.8867 38.5742 48.7695 37.8125 48.3398 37.3633C47.9492 36.9531 47.2461 36.8555 46.4062 37.168C44.4727 37.9297 42.1875 38.3789 39.2383 38.3789C27.832 38.3789 21.0156 31.7773 21.0156 20.4492C21.0156 17.5195 21.543 14.5508 22.4219 12.7734C22.8516 11.875 22.8125 11.0742 22.4023 10.5859C21.9531 10.0977 21.1523 9.90234 20.0781 10.3711C12.5586 13.6523 7.36328 21.5234 7.36328 30.1953C7.36328 42.207 16.3867 51.7578 28.75 51.7578ZM28.75 48.4766C18.2422 48.4766 10.6445 40.332 10.6445 30.3125C10.6445 23.9062 13.9062 18.4961 18.8086 14.9023C18.1836 16.582 17.8516 18.9844 17.8516 21.3086C17.8516 33.8086 25.8203 41.5625 38.4766 41.5625C40.5469 41.5625 42.5 41.2695 43.8086 40.8789C40.7227 45.4102 35.3711 48.4766 28.75 48.4766Z" fill="black" fill-opacity="0.85"/>
 </g>
</svg>
