<?xml version="1.0" encoding="UTF-8"?>
<!--Generator: Apple Native CoreSVG 326-->
<!DOCTYPE svg
PUBLIC "-//W3C//DTD SVG 1.1//EN"
       "http://www.w3.org/Graphics/SVG/1.1/DTD/svg11.dtd">
<svg version="1.1" xmlns="http://www.w3.org/2000/svg" xmlns:xlink="http://www.w3.org/1999/xlink" viewBox="0 0 51.25 50.918">
 <g>
  <rect height="50.918" opacity="0" width="51.25" x="0" y="0"/>
  <path d="M50.8789 25.4492C50.8789 39.4531 39.4531 50.8789 25.4297 50.8789C11.4258 50.8789 0 39.4531 0 25.4492C0 11.4258 11.4258 0 25.4297 0C39.4531 0 50.8789 11.4258 50.8789 25.4492ZM16.6602 18.5547L14.2578 30.0781L14.2188 30.0781L11.7383 18.5547C11.4844 17.3828 10.8594 16.9727 9.84375 16.9727C8.49609 16.9727 7.89062 17.9102 7.89062 18.8867L7.89062 32.6367C7.89062 33.3789 8.33984 33.8867 9.10156 33.8867C9.86328 33.8867 10.293 33.3984 10.293 32.6367L10.293 20.9766L10.3711 20.9766L12.793 32.2461C12.9688 33.0469 13.4375 33.6133 14.2188 33.6133C15.0391 33.6133 15.4883 33.0469 15.6445 32.2266L18.0859 20.9766L18.1836 20.9766L18.1836 32.6367C18.1836 33.3789 18.6133 33.8867 19.3555 33.8867C20.1172 33.8867 20.5273 33.3984 20.5273 32.6367L20.5273 18.8867C20.5273 17.6953 19.7656 16.9727 18.5938 16.9727C17.5391 16.9727 16.8945 17.4609 16.6602 18.5547ZM40.5664 18.3984L40.5664 24.1602L36.25 24.1602L36.25 18.3984C36.25 17.5391 35.7617 16.9727 34.9219 16.9727C34.043 16.9727 33.5938 17.5391 33.5938 18.3984L33.5938 32.4609C33.5938 33.3008 34.043 33.8867 34.9219 33.8867C35.7617 33.8867 36.25 33.3008 36.25 32.4609L36.25 26.4062L40.5664 26.4062L40.5664 32.4609C40.5664 33.2227 40.9961 33.8867 41.8945 33.8867C42.7344 33.8867 43.2031 33.3398 43.2031 32.4609L43.2031 18.3984C43.2031 17.5 42.7148 16.9727 41.8945 16.9727C41.0156 16.9727 40.5664 17.5586 40.5664 18.3984ZM24.1406 17.207C23.3984 17.207 22.8516 17.6758 22.8516 18.5938L22.8516 32.4805C22.8516 33.457 23.4961 33.8477 24.1602 33.8477C24.9414 33.8477 25.4883 33.3789 25.4883 32.4805L25.4883 28.0469L27.3438 28.0469C30.293 28.0469 31.7969 25.4492 31.7969 22.6172C31.7969 19.7266 30.332 17.207 27.5 17.207ZM29.1992 22.6172C29.1992 24.3945 28.5547 25.8984 26.8164 25.8984L25.4883 25.8984L25.4883 19.3555L26.8359 19.3555C28.5547 19.3555 29.1992 20.8789 29.1992 22.6172Z" fill="black" fill-opacity="0.85"/>
 </g>
</svg>
