<?xml version="1.0" encoding="UTF-8"?>
<!--Generator: Apple Native CoreSVG 326-->
<!DOCTYPE svg
PUBLIC "-//W3C//DTD SVG 1.1//EN"
       "http://www.w3.org/Graphics/SVG/1.1/DTD/svg11.dtd">
<svg version="1.1" xmlns="http://www.w3.org/2000/svg" xmlns:xlink="http://www.w3.org/1999/xlink" viewBox="0 0 46.2891 45.918">
 <g>
  <rect height="45.918" opacity="0" width="46.2891" x="0" y="0"/>
  <path d="M7.59766 45.918L38.3008 45.918C43.3594 45.918 45.918 43.3594 45.918 38.3984L45.918 7.53906C45.918 2.55859 43.3594 0 38.3008 0L7.59766 0C2.55859 0 0 2.53906 0 7.53906L0 38.3984C0 43.3984 2.55859 45.918 7.59766 45.918ZM7.67578 42.4609C4.94141 42.4609 3.45703 41.0156 3.45703 38.2031L3.45703 7.71484C3.45703 4.92188 4.94141 3.45703 7.67578 3.45703L38.2422 3.45703C40.918 3.45703 42.4609 4.92188 42.4609 7.71484L42.4609 38.2031C42.4609 41.0156 40.918 42.4609 38.2422 42.4609Z" fill="black" fill-opacity="0.85"/>
  <path d="M15.3711 34.4336C16.4062 34.4336 17.0117 33.7891 17.0117 32.7148L17.0117 16.9336L17.1484 16.9336L28.5742 33.3203C29.1797 34.1797 29.6289 34.4336 30.3906 34.4336C31.4844 34.4336 32.168 33.75 32.168 32.5781L32.168 12.832C32.168 11.7383 31.5625 11.1133 30.5273 11.1133C29.5117 11.1133 28.9258 11.7773 28.9258 12.832L28.9258 28.8086L28.7695 28.8086L17.3633 12.207C16.7773 11.3672 16.2695 11.1133 15.5078 11.1133C14.4141 11.1133 13.7695 11.8164 13.7695 13.0078L13.7695 32.7148C13.7695 33.75 14.3555 34.4336 15.3711 34.4336Z" fill="black" fill-opacity="0.85"/>
 </g>
</svg>
