<?xml version="1.0" encoding="UTF-8"?>
<!--Generator: Apple Native CoreSVG 326-->
<!DOCTYPE svg
PUBLIC "-//W3C//DTD SVG 1.1//EN"
       "http://www.w3.org/Graphics/SVG/1.1/DTD/svg11.dtd">
<svg version="1.1" xmlns="http://www.w3.org/2000/svg" xmlns:xlink="http://www.w3.org/1999/xlink" viewBox="0 0 50.4688 48.8867">
 <g>
  <rect height="48.8867" opacity="0" width="50.4688" x="0" y="0"/>
  <path d="M10.8398 48.0469C13.125 48.0469 15.4492 47.1484 17.4219 45.625L15.1953 43.3984C13.8672 44.2578 12.4414 44.7461 10.8594 44.7461C6.71875 44.7461 3.57422 41.9531 3.57422 37.9102C3.57422 32.4023 8.20312 29.4727 13.5156 30.1562C16.4844 23.75 18.1445 15.6445 19.9414 8.33984C20.7031 5.19531 22.2656 3.47656 25.0586 3.47656C27.8516 3.47656 29.3945 5.19531 30.1758 8.33984C31.9531 15.6445 33.6133 23.75 36.582 30.1562C41.8945 29.4727 46.5234 32.4023 46.5234 37.9102C46.5234 41.9531 43.3789 44.7461 39.2383 44.7461C37.6562 44.7461 36.2305 44.2578 34.9023 43.3984L32.6758 45.625C34.6484 47.1484 36.9727 48.0469 39.2773 48.0469C45.8203 48.0469 50.0977 43.9258 50.0977 37.7148C50.0977 31.7578 45.8008 27.3242 39.1992 26.6602C36.9141 21.1133 34.9023 13.7305 33.4375 7.51953C32.3047 2.61719 29.5117 0 25.0586 0C20.5859 0 17.8125 2.61719 16.6602 7.51953C15.2148 13.7305 13.1836 21.1133 10.918 26.6602C4.31641 27.3242 0 31.7578 0 37.7148C0 43.9258 4.29688 48.0469 10.8398 48.0469ZM25.0586 48.8086C30.957 48.8086 34.1992 46.1914 36.7773 43.0273C37.2656 43.3789 37.8711 43.5938 38.5156 43.5938C40.332 43.5938 41.4258 42.3242 41.4258 40.9375C41.4258 39.5703 40.4297 38.3008 38.6914 38.3008C37.4023 38.3008 36.6602 39.0039 35.5664 40.1953C32.3438 43.6328 29.5312 45.1953 25.0586 45.1953C20.5664 45.1953 17.7344 43.6523 14.5508 40.1953C13.4375 39.0039 12.6953 38.3008 11.4258 38.3008C9.6875 38.3008 8.67188 39.5703 8.67188 40.9375C8.67188 42.3242 9.76562 43.5938 11.6016 43.5938C12.2266 43.5938 12.832 43.3789 13.3398 43.0273C15.8984 46.1914 19.1406 48.8086 25.0586 48.8086Z" fill="black" fill-opacity="0.85"/>
 </g>
</svg>
