<?xml version="1.0" encoding="UTF-8"?>
<!--Generator: Apple Native CoreSVG 326-->
<!DOCTYPE svg
PUBLIC "-//W3C//DTD SVG 1.1//EN"
       "http://www.w3.org/Graphics/SVG/1.1/DTD/svg11.dtd">
<svg version="1.1" xmlns="http://www.w3.org/2000/svg" xmlns:xlink="http://www.w3.org/1999/xlink" viewBox="0 0 50.4102 45.957">
 <g>
  <rect height="45.957" opacity="0" width="50.4102" x="0" y="0"/>
  <path d="M7.59766 45.957L42.4219 45.957C47.4805 45.957 50.0391 43.418 50.0391 38.4375L50.0391 7.57812C50.0391 2.59766 47.4805 0.0585938 42.4219 0.0585938L7.59766 0.0585938C2.55859 0.0585938 0 2.57812 0 7.57812L0 38.4375C0 43.4375 2.55859 45.957 7.59766 45.957ZM7.32422 42.5C4.82422 42.5 3.45703 41.1719 3.45703 38.5938L3.45703 15.293C3.45703 12.6953 4.82422 11.3867 7.32422 11.3867L42.6758 11.3867C45.1562 11.3867 46.5625 12.6953 46.5625 15.293L46.5625 38.5938C46.5625 41.1719 45.1562 42.5 42.6758 42.5Z" fill="black" fill-opacity="0.85"/>
 </g>
</svg>
