<?xml version="1.0" encoding="UTF-8"?>
<!--Generator: Apple Native CoreSVG 326-->
<!DOCTYPE svg
PUBLIC "-//W3C//DTD SVG 1.1//EN"
       "http://www.w3.org/Graphics/SVG/1.1/DTD/svg11.dtd">
<svg version="1.1" xmlns="http://www.w3.org/2000/svg" xmlns:xlink="http://www.w3.org/1999/xlink" viewBox="0 0 60.4102 50.332">
 <g>
  <rect height="50.332" opacity="0" width="60.4102" x="0" y="0"/>
  <path d="M60.0391 16.6602C60.0391 27.0508 45.3906 27.4609 45.3906 31.875C45.3906 35 49.668 35.957 49.668 40.8398C49.668 46.1914 42.6758 49.8242 32.2852 49.8242C13.0273 49.8242 0 39.9805 0 25.3516C0 10.1562 13.75 0 34.1602 0C49.6484 0 60.0391 6.62109 60.0391 16.6602ZM25.0391 33.7695C25.0391 37.4414 28.0273 40.4492 31.6797 40.4492C35.3711 40.4492 38.3594 37.4414 38.3594 33.7695C38.3594 30.0977 35.3711 27.1094 31.6797 27.1094C28.0273 27.1094 25.0391 30.0977 25.0391 33.7695ZM7.75391 24.1797C7.75391 26.3867 9.57031 28.2227 11.7578 28.2227C13.9648 28.2227 15.7617 26.3867 15.7617 24.1797C15.7617 21.9531 13.9844 20.1953 11.7578 20.1953C9.62891 20.1953 7.75391 22.0312 7.75391 24.1797ZM15.9961 14.2773C15.9961 17.2266 18.3398 19.5117 21.2695 19.5117C24.1406 19.5117 26.4844 17.2266 26.4844 14.2773C26.4844 11.4062 24.1406 9.12109 21.2695 9.12109C18.3398 9.12109 15.9961 11.4062 15.9961 14.2773ZM43.0273 14.3945C43.0273 16.2305 44.5117 17.6953 46.3672 17.6953C48.1641 17.6953 49.6094 16.25 49.6094 14.3945C49.6094 12.5977 48.1445 11.1133 46.3672 11.1133C44.5312 11.1133 43.0273 12.5977 43.0273 14.3945ZM30.5664 11.4258C30.5664 13.6914 32.4414 15.5273 34.707 15.5273C36.9922 15.5273 38.8086 13.7109 38.8086 11.4258C38.8086 9.14062 36.9922 7.30469 34.707 7.30469C32.4414 7.30469 30.5664 9.16016 30.5664 11.4258Z" fill="black" fill-opacity="0.85"/>
 </g>
</svg>
