<?xml version="1.0" encoding="UTF-8"?>
<!--Generator: Apple Native CoreSVG 326-->
<!DOCTYPE svg
PUBLIC "-//W3C//DTD SVG 1.1//EN"
       "http://www.w3.org/Graphics/SVG/1.1/DTD/svg11.dtd">
<svg version="1.1" xmlns="http://www.w3.org/2000/svg" xmlns:xlink="http://www.w3.org/1999/xlink" viewBox="0 0 60.4102 50.332">
 <g>
  <rect height="50.332" opacity="0" width="60.4102" x="0" y="0"/>
  <path d="M32.2852 49.8242C42.6758 49.8242 49.668 46.1914 49.668 40.8398C49.668 35.957 45.3906 35 45.3906 31.875C45.3906 27.4609 60.0391 27.0508 60.0391 16.6602C60.0391 6.62109 49.6484 0 34.1602 0C13.75 0 0 10.1562 0 25.3516C0 39.9805 13.0273 49.8242 32.2852 49.8242ZM32.2852 46.1523C15.0391 46.1523 3.65234 37.8125 3.65234 25.3516C3.65234 12.3242 15.7422 3.65234 34.1602 3.65234C47.5586 3.65234 56.3867 8.90625 56.3867 16.6602C56.3867 25.6641 41.6602 24.3945 41.6602 31.9336C41.6602 36.1914 45.9961 37.4414 45.9961 40.5273C45.9961 43.9648 40.6445 46.1523 32.2852 46.1523ZM30.2148 40.0586C34.1602 40.0586 37.3828 36.8359 37.3828 32.9102C37.3828 28.9844 34.1602 25.7617 30.2148 25.7617C26.2891 25.7617 23.0664 28.9844 23.0664 32.9102C23.0664 36.8359 26.2891 40.0586 30.2148 40.0586ZM30.2148 37.5C27.6758 37.5 25.625 35.4492 25.625 32.9102C25.625 30.1758 27.7539 28.3594 30.1758 28.3398C32.6367 28.3203 34.8047 30.1172 34.8047 32.9102C34.8047 35.4492 32.7734 37.5 30.2148 37.5Z" fill="black" fill-opacity="0.85"/>
  <path d="M12.4219 28.6133C14.6094 28.6133 16.4062 26.7773 16.4062 24.5703C16.4062 22.3438 14.6289 20.5859 12.4219 20.5859C10.1953 20.5859 8.39844 22.3633 8.39844 24.5703C8.39844 26.7773 10.2148 28.6133 12.4219 28.6133Z" fill="black" fill-opacity="0.85"/>
  <path d="M21.6211 20.6641C24.4922 20.6641 26.8359 18.3789 26.8359 15.4297C26.8359 12.5586 24.4727 10.2734 21.6211 10.2734C18.6914 10.2734 16.3281 12.5586 16.3281 15.4297C16.3281 18.3789 18.6914 20.6641 21.6211 20.6641Z" fill="black" fill-opacity="0.85"/>
  <path d="M34.375 16.5234C36.6797 16.5234 38.4961 14.6875 38.4961 12.4023C38.4961 10.1367 36.6797 8.30078 34.375 8.30078C32.1289 8.30078 30.2344 10.1367 30.2344 12.4023C30.2344 14.6875 32.1289 16.5234 34.375 16.5234Z" fill="black" fill-opacity="0.85"/>
  <path d="M45.918 18.1055C47.7148 18.1055 49.1602 16.6602 49.1602 14.8242C49.1602 13.0078 47.6953 11.543 45.918 11.543C44.0625 11.543 42.5781 13.0078 42.5781 14.8242C42.5781 16.6602 44.0625 18.1055 45.918 18.1055Z" fill="black" fill-opacity="0.85"/>
 </g>
</svg>
