<?xml version="1.0" encoding="UTF-8"?>
<!--Generator: Apple Native CoreSVG 326-->
<!DOCTYPE svg
PUBLIC "-//W3C//DTD SVG 1.1//EN"
       "http://www.w3.org/Graphics/SVG/1.1/DTD/svg11.dtd">
<svg version="1.1" xmlns="http://www.w3.org/2000/svg" xmlns:xlink="http://www.w3.org/1999/xlink" viewBox="0 0 51.25 50.918">
 <g>
  <rect height="50.918" opacity="0" width="51.25" x="0" y="0"/>
  <path d="M50.8789 25.4492C50.8789 39.4531 39.4531 50.8789 25.4297 50.8789C11.4258 50.8789 0 39.4531 0 25.4492C0 11.4258 11.4258 0 25.4297 0C39.4531 0 50.8789 11.4258 50.8789 25.4492ZM35.332 11.8945L9.86328 21.6406C8.73047 22.0508 7.91016 22.7344 7.91016 23.7109C7.91016 24.8828 8.78906 25.3125 10.1172 25.7227L18.5352 28.2617C19.3555 28.5156 19.8438 28.4766 20.3906 27.9688L36.2695 12.9883C36.4648 12.832 36.6602 12.8516 36.7969 12.9688C36.9727 13.0859 36.9336 13.3008 36.7773 13.4961L21.8555 29.4336C21.3477 29.9609 21.2695 30.4297 21.5039 31.2891L24.0234 39.5312C24.4531 40.918 24.8438 41.8555 26.0547 41.8555C27.0117 41.8555 27.6953 41.0742 28.1836 39.8047L37.8711 14.4336C38.0859 13.8477 38.2227 13.3594 38.2227 12.9102C38.2227 12.0703 37.6953 11.543 36.8555 11.543C36.4062 11.543 35.918 11.6797 35.332 11.8945Z" fill="black" fill-opacity="0.85"/>
 </g>
</svg>
