<?xml version="1.0" encoding="UTF-8"?>
<!--Generator: Apple Native CoreSVG 326-->
<!DOCTYPE svg
PUBLIC "-//W3C//DTD SVG 1.1//EN"
       "http://www.w3.org/Graphics/SVG/1.1/DTD/svg11.dtd">
<svg version="1.1" xmlns="http://www.w3.org/2000/svg" xmlns:xlink="http://www.w3.org/1999/xlink" viewBox="0 0 54.3652 59.2555">
 <g>
  <rect height="59.2555" opacity="0" width="54.3652" x="0" y="0"/>
  <path d="M38.0758 7.28342L35.7699 9.59106C31.5989 7.0822 26.8632 5.6141 22.1436 5.6141C11.0498 5.6141 4.31152 13.4852 4.31152 23.7782C4.31152 37.0203 15.0732 50.3016 31.9092 52.3328C32.9053 52.45 33.3936 53.1727 33.3936 53.8953C33.3936 54.6766 32.7881 55.4969 31.5576 55.3407C16.1084 54.1297 1.24512 40.8875 1.24512 23.8758C1.24512 11.7274 9.40918 2.52816 22.2217 2.52816C27.7245 2.52816 33.2635 4.27311 38.0758 7.28342ZM52.7686 31.8055C52.7686 40.6532 46.6748 46.5125 38.2178 46.5125C32.3992 46.5125 26.0867 43.7871 21.3334 39.4008L24.5923 37.895C28.6354 41.4055 33.5985 43.6024 38.1592 43.6024C44.5068 43.6024 49.7803 39.1297 49.7803 31.8055C49.7803 26.9187 48.0212 22.1928 45.113 18.145L47.3749 15.8914C50.7234 20.4748 52.7686 25.9497 52.7686 31.8055Z" fill="black" fill-opacity="0.85"/>
  <path d="M23.335 34.4227L46.0107 11.786L42.5342 8.30941L19.8779 30.9461L17.6709 35.6922C17.4756 36.1805 17.9639 36.7078 18.4521 36.493ZM47.8076 10.0086L49.7607 8.07504C50.7178 7.11801 50.7568 5.82894 49.7998 4.93051L49.2725 4.44222C48.4326 3.64144 47.1631 3.64144 46.2646 4.55941L44.3311 6.51254Z" fill="black" fill-opacity="0.85"/>
 </g>
</svg>
