<?xml version="1.0" encoding="UTF-8"?>
<!--Generator: Apple Native CoreSVG 326-->
<!DOCTYPE svg
PUBLIC "-//W3C//DTD SVG 1.1//EN"
       "http://www.w3.org/Graphics/SVG/1.1/DTD/svg11.dtd">
<svg version="1.1" xmlns="http://www.w3.org/2000/svg" xmlns:xlink="http://www.w3.org/1999/xlink" viewBox="0 0 51.25 50.918">
 <g>
  <rect height="50.918" opacity="0" width="51.25" x="0" y="0"/>
  <path d="M50.8789 25.4688C50.8789 39.4922 39.4531 50.918 25.4297 50.918C11.4258 50.918 0 39.4922 0 25.4688C0 11.4648 11.4258 0.0390625 25.4297 0.0390625C39.4531 0.0390625 50.8789 11.4648 50.8789 25.4688ZM24.8242 21.1719C20.625 21.1719 17.6172 24.1797 17.6172 28.3789C17.6172 32.5781 20.6445 35.6055 24.8242 35.6055L35.6445 35.6055C39.8242 35.6055 42.832 32.5781 42.832 28.3789C42.832 24.1797 39.8438 21.1719 35.6445 21.1719L34.3945 21.1719C34.4922 21.8555 34.6094 22.5586 34.4922 23.6523L35.4688 23.6523C38.2812 23.6523 40.2148 25.5859 40.2148 28.3789C40.2148 31.1523 38.2617 33.1055 35.4688 33.1055L24.9609 33.1055C22.168 33.1055 20.2148 31.1523 20.2148 28.3789C20.2148 25.5859 22.168 23.6523 24.9609 23.6523L29.1211 23.6523C29.3945 23.0273 29.3164 21.8359 28.6914 21.1719ZM15.1953 15.5273C10.9961 15.5273 7.98828 18.5547 7.98828 22.7539C7.98828 26.9531 10.9961 29.9609 15.1953 29.9609L16.4453 29.9609C16.3086 29.3164 16.25 28.2227 16.3477 27.4805L15.3516 27.4805C12.5391 27.4805 10.6055 25.5469 10.6055 22.7539C10.6055 19.9805 12.5586 18.0273 15.3516 18.0273L25.8594 18.0273C28.6523 18.0273 30.6055 19.9805 30.6055 22.7539C30.6055 25.5469 28.6719 27.4805 25.8594 27.4805L21.6602 27.4805C21.4453 28.1445 21.5039 29.2188 22.1484 29.9609L25.9961 29.9609C30.1953 29.9609 33.2031 26.9531 33.2031 22.7539C33.2031 18.5547 30.1953 15.5273 25.9961 15.5273Z" fill="black" fill-opacity="0.85"/>
 </g>
</svg>
