<?xml version="1.0" encoding="UTF-8"?>
<!--Generator: Apple Native CoreSVG 326-->
<!DOCTYPE svg
PUBLIC "-//W3C//DTD SVG 1.1//EN"
       "http://www.w3.org/Graphics/SVG/1.1/DTD/svg11.dtd">
<svg version="1.1" xmlns="http://www.w3.org/2000/svg" xmlns:xlink="http://www.w3.org/1999/xlink" viewBox="0 0 61.4844 59.1519">
 <g>
  <rect height="59.1519" opacity="0" width="61.4844" x="0" y="0"/>
  <path d="M53.9453 34.781C54.7461 35.3279 55.7227 35.1521 56.3086 34.3318C59.5312 29.9568 61.4844 23.8044 61.4844 17.5544C61.4844 11.2849 59.5508 5.09351 56.3086 0.777102C55.7227-0.0432102 54.7461-0.238523 53.9453 0.308352C53.1445 0.855227 53.0078 1.85132 53.6523 2.74976C56.5234 6.73413 58.1445 12.0271 58.1445 17.5544C58.1445 23.0818 56.4844 28.3552 53.6523 32.3591C53.0273 33.238 53.1445 34.2537 53.9453 34.781Z" fill="black" fill-opacity="0.85"/>
  <path d="M44.9219 28.199C45.6445 28.7068 46.6602 28.531 47.2461 27.7107C49.1602 25.1716 50.3711 21.4802 50.3711 17.5544C50.3711 13.6091 49.1602 9.93726 47.2461 7.37866C46.6602 6.55835 45.6445 6.4021 44.9219 6.90991C44.0625 7.51538 43.9062 8.57007 44.5898 9.46851C46.1914 11.656 47.0312 14.449 47.0312 17.5544C47.0312 20.6404 46.1719 23.4138 44.5898 25.6404C43.9258 26.5388 44.0625 27.574 44.9219 28.199Z" fill="black" fill-opacity="0.85"/>
  <path d="M9.80469 52.0857L42.0117 52.0857C45.6445 52.0857 47.0508 51.0505 47.0508 48.863C47.0508 42.3787 38.9258 33.4334 25.8984 33.4334C12.8906 33.4334 4.76562 42.3787 4.76562 48.863C4.76562 51.0505 6.17188 52.0857 9.80469 52.0857ZM25.9375 28.9216C31.3672 28.9216 35.9375 24.0779 35.9375 17.8279C35.9375 11.7146 31.3281 7.04663 25.9375 7.04663C20.5273 7.04663 15.8984 11.7927 15.9375 17.8669C15.9375 24.0779 20.5078 28.9216 25.9375 28.9216Z" fill="black" fill-opacity="0.85"/>
 </g>
</svg>
