<?xml version="1.0" encoding="UTF-8"?>
<!--Generator: Apple Native CoreSVG 326-->
<!DOCTYPE svg
PUBLIC "-//W3C//DTD SVG 1.1//EN"
       "http://www.w3.org/Graphics/SVG/1.1/DTD/svg11.dtd">
<svg version="1.1" xmlns="http://www.w3.org/2000/svg" xmlns:xlink="http://www.w3.org/1999/xlink" viewBox="0 0 51.25 50.918">
 <g>
  <rect height="50.918" opacity="0" width="51.25" x="0" y="0"/>
  <path d="M3.65234 25.4492C3.65234 23.0469 4.04297 20.7227 4.76562 18.5938L1.38672 17.1875C0.507812 19.7852 0 22.5586 0 25.4492C0 28.3203 0.507812 31.1133 1.40625 33.7109L4.76562 32.3047C4.0625 30.1758 3.65234 27.8516 3.65234 25.4492ZM15.6445 5.9375L14.2578 2.65625C9.21875 5.13672 5.09766 9.25781 2.61719 14.2969L5.9375 15.7031C8.02734 11.4844 11.4453 8.06641 15.6445 5.9375ZM25.4102 3.65234C27.8125 3.65234 30.1367 4.04297 32.3047 4.76562L33.6719 1.42578C31.0742 0.507812 28.3008 0 25.4102 0C22.5391 0 19.7266 0.507812 17.1289 1.42578L18.5352 4.76562C20.7031 4.02344 23.0078 3.65234 25.4102 3.65234ZM44.9219 15.6836L48.2422 14.2969C45.7422 9.23828 41.6016 5.11719 36.5625 2.61719L35.1758 5.9375C39.3945 8.04688 42.8125 11.4453 44.9219 15.6836ZM47.2266 25.4492C47.2266 27.8516 46.8359 30.1758 46.1328 32.3242L49.4531 33.7305C50.3711 31.1328 50.8789 28.3203 50.8789 25.4492C50.8789 22.5586 50.3711 19.7656 49.4531 17.168L46.1328 18.5742C46.8555 20.7227 47.2266 23.0469 47.2266 25.4492ZM25.4297 50.8789C35.2734 50.8789 44.043 45.0391 48.2422 36.6016L44.9219 35.2148C44.0234 37.0117 42.8906 38.6523 41.543 40.1367C39.1992 37.0508 33.2617 33.9258 25.4297 33.9258C17.5977 33.9258 11.6602 37.0703 9.31641 40.1172C7.98828 38.6328 6.83594 36.9922 5.95703 35.2148L2.61719 36.6016C6.81641 45.0391 15.5859 50.8789 25.4297 50.8789ZM25.4297 29.6289C30.2734 29.668 34.043 25.5273 34.043 20.1367C34.043 15.0586 30.2344 10.8398 25.4297 10.8398C20.625 10.8398 16.7969 15.0586 16.8164 20.1367C16.8359 25.5273 20.5859 29.5898 25.4297 29.6289Z" fill="black" fill-opacity="0.85"/>
 </g>
</svg>
