<?xml version="1.0" encoding="UTF-8"?>
<!--Generator: Apple Native CoreSVG 326-->
<!DOCTYPE svg
PUBLIC "-//W3C//DTD SVG 1.1//EN"
       "http://www.w3.org/Graphics/SVG/1.1/DTD/svg11.dtd">
<svg version="1.1" xmlns="http://www.w3.org/2000/svg" xmlns:xlink="http://www.w3.org/1999/xlink" viewBox="0 0 51.25 50.918">
 <g>
  <rect height="50.918" opacity="0" width="51.25" x="0" y="0"/>
  <path d="M50.8789 25.4688C50.8789 39.4922 39.4531 50.918 25.4297 50.918C11.4258 50.918 0 39.4922 0 25.4688C0 11.4648 11.4258 0.0390625 25.4297 0.0390625C39.4531 0.0390625 50.8789 11.4648 50.8789 25.4688ZM10.8984 23.1055C9.60938 24.375 8.92578 25.957 8.96484 27.5977C8.98438 28.7695 9.27734 30.1172 9.94141 30.7812C10.5078 31.3086 11.2695 31.2891 12.4414 31.0938L16.5039 30.4297C17.4609 30.2539 18.0078 29.9805 18.418 29.5703C18.75 29.2188 18.8867 28.9062 19.082 28.2031L19.7852 25.6445C19.8242 25.3906 19.8828 25.2148 20 25.1172C20.1953 24.9414 20.3906 24.8438 20.5469 24.7656C21.7188 24.3945 23.4766 24.1602 25.3711 24.1602C27.3047 24.1602 29.1797 24.3945 30.3906 24.8047C30.625 24.9414 30.8008 25.0195 31.0156 25.1953C31.1328 25.332 31.1914 25.4492 31.2891 25.7422L32.0312 28.2422C32.2656 29.082 32.4609 29.3945 32.7734 29.707C33.1445 30.0781 33.4961 30.2539 34.5703 30.4297L38.8086 31.1523C39.9414 31.3477 40.6055 31.2109 41.0352 30.8008C41.6016 30.2344 41.9727 29.375 42.0508 27.793C42.1289 26.1523 41.5039 24.4336 40.1562 23.1055C37.2656 20.2344 31.4258 18.9258 25.4688 18.9258C19.4922 18.9258 13.7695 20.2148 10.8984 23.1055Z" fill="black" fill-opacity="0.85"/>
 </g>
</svg>
