<?xml version="1.0" encoding="UTF-8"?>
<!--Generator: Apple Native CoreSVG 326-->
<!DOCTYPE svg
PUBLIC "-//W3C//DTD SVG 1.1//EN"
       "http://www.w3.org/Graphics/SVG/1.1/DTD/svg11.dtd">
<svg version="1.1" xmlns="http://www.w3.org/2000/svg" xmlns:xlink="http://www.w3.org/1999/xlink" viewBox="0 0 59.2383 23.8477">
 <g>
  <rect height="23.8477" opacity="0" width="59.2383" x="0" y="0"/>
  <path d="M29.4336 0C17.8125 0 8.76953 2.77344 3.88672 7.63672C1.48438 10.0586 0 13.1836 0 16.7578C0 19.7461 0.917969 22.9102 4.47266 23.3984C5.21484 23.7305 6.13281 23.8672 7.14844 23.6719L14.7852 22.2266C16.9531 21.8164 18.0078 20.7422 18.7109 18.5938L19.9414 14.4727C20.1953 13.6133 20.6445 13.1641 21.6211 12.9102C22.7344 12.6172 24.8828 12.3828 29.4336 12.3828C33.9844 12.3828 36.1523 12.6172 37.2461 12.9102C38.2227 13.1641 38.6719 13.6133 38.9258 14.4727L40.1562 18.5938C40.8594 20.7422 41.9141 21.8164 44.082 22.2266L51.7188 23.6719C52.7539 23.8672 53.6719 23.7305 54.3945 23.3984C57.9492 22.9102 58.8672 19.7461 58.8672 16.7578C58.8672 13.1836 57.3828 10.0586 54.9805 7.63672C50.0977 2.77344 41.0547 0 29.4336 0ZM29.4336 3.26172C39.4336 3.26172 48.3789 5.44922 52.7148 9.92188C54.4531 11.6992 55.5273 14.0625 55.5273 16.4258C55.5273 18.2031 54.9805 19.9219 53.6328 20.293C53.3203 20.5469 52.8711 20.6836 52.3633 20.5859L45.0586 19.1406C44.2188 18.9648 43.6523 18.4375 43.3594 17.4609L42.0898 13.3203C41.4258 11.1914 40.4883 10.332 38.6328 9.94141C36.875 9.58984 33.9453 9.27734 29.4336 9.27734C24.9219 9.27734 21.9922 9.58984 20.2344 9.94141C18.3789 10.332 17.4609 11.1914 16.7773 13.3203L15.5078 17.4609C15.2148 18.4375 14.6484 18.9648 13.8086 19.1406L6.52344 20.5859C5.99609 20.6836 5.56641 20.5469 5.23438 20.293C3.88672 19.9219 3.33984 18.2031 3.33984 16.4258C3.33984 14.0625 4.41406 11.6992 6.15234 9.92188C10.5078 5.44922 19.4531 3.26172 29.4336 3.26172Z" fill="black" fill-opacity="0.85"/>
 </g>
</svg>
