<?xml version="1.0" encoding="UTF-8"?>
<!--Generator: Apple Native CoreSVG 326-->
<!DOCTYPE svg
PUBLIC "-//W3C//DTD SVG 1.1//EN"
       "http://www.w3.org/Graphics/SVG/1.1/DTD/svg11.dtd">
<svg version="1.1" xmlns="http://www.w3.org/2000/svg" xmlns:xlink="http://www.w3.org/1999/xlink" viewBox="0 0 47.5391 46.582">
 <g>
  <rect height="46.582" opacity="0" width="47.5391" x="0" y="0"/>
  <path d="M13.0859 33.6133C20.4297 40.957 29.2188 46.5625 36.2695 46.5625C39.5898 46.5625 42.4805 45.2344 44.375 43.1055C46.1914 41.0547 46.8164 39.5508 46.8164 38.2031C46.8164 37.1289 46.1523 36.1719 44.5312 35.0195L38.4375 30.6641C36.9336 29.5898 36.25 29.3945 35.3516 29.3945C34.5703 29.3945 33.9258 29.5312 32.6367 30.2344L28.6523 32.4414C28.1836 32.6953 27.9688 32.7344 27.6172 32.7344C27.1484 32.7344 26.8359 32.6172 26.3672 32.4414C24.4531 31.543 21.7773 29.4727 19.4141 27.0898C17.0703 24.7266 15.2148 22.3242 14.2578 20.4102C14.1406 20.1562 13.9844 19.7656 13.9844 19.375C13.9844 19.0625 14.1602 18.7695 14.3555 18.418L16.6992 14.4141C17.3438 13.3203 17.5195 12.7344 17.5195 11.875C17.5195 10.8984 17.1875 9.86328 16.25 8.55469L12.0703 2.69531C10.8984 1.01562 9.98047 0 8.63281 0C6.95312 0 4.94141 1.28906 3.51562 2.67578C1.42578 4.6875 0.332031 7.46094 0.332031 10.6055C0.332031 17.7148 5.80078 26.3281 13.0859 33.6133Z" fill="black" fill-opacity="0.85"/>
  <path d="M28.418 21.1914C28.8672 21.1914 29.2383 21.0352 29.5508 20.7031L40.8984 9.31641L44.7852 5.19531L44.4336 12.6562L44.4336 16.9922C44.4336 17.8516 45.0781 18.5156 45.9375 18.5547C46.7969 18.5938 47.5391 17.8906 47.5391 16.9922L47.5391 2.16797C47.5391 1.03516 46.9727 0.46875 45.8398 0.46875L30.918 0.46875C30.0195 0.46875 29.3164 1.19141 29.3555 2.08984C29.3945 2.92969 30.0586 3.57422 30.918 3.57422L35.3711 3.57422L42.8516 3.22266L38.6914 7.08984L27.3242 18.4766C26.9531 18.8477 26.7969 19.2188 26.7969 19.6875C26.7969 20.5273 27.5 21.1914 28.418 21.1914Z" fill="black" fill-opacity="0.85"/>
 </g>
</svg>
