<?xml version="1.0" encoding="UTF-8"?>
<!--Generator: Apple Native CoreSVG 326-->
<!DOCTYPE svg
PUBLIC "-//W3C//DTD SVG 1.1//EN"
       "http://www.w3.org/Graphics/SVG/1.1/DTD/svg11.dtd">
<svg version="1.1" xmlns="http://www.w3.org/2000/svg" xmlns:xlink="http://www.w3.org/1999/xlink" viewBox="0 0 51.25 50.918">
 <g>
  <rect height="50.918" opacity="0" width="51.25" x="0" y="0"/>
  <path d="M25.4297 50.8789C39.4727 50.8789 50.8789 39.4922 50.8789 25.4492C50.8789 11.4062 39.4727 0 25.4297 0C11.3867 0 0 11.4062 0 25.4492C0 39.4922 11.3867 50.8789 25.4297 50.8789ZM25.4297 47.2461C13.3789 47.2461 3.63281 37.5 3.63281 25.4492C3.63281 13.3984 13.3789 3.65234 25.4297 3.65234C37.4805 3.65234 47.2266 13.3984 47.2266 25.4492C47.2266 37.5 37.4805 47.2461 25.4297 47.2461Z" fill="black" fill-opacity="0.85"/>
  <path d="M11.3477 13.5742C10.6836 13.5742 10.2539 14.0234 10.2539 14.6875L10.2539 36.2305C10.2539 36.8945 10.6836 37.3633 11.3477 37.3633L39.4922 37.3633C40.1562 37.3633 40.5859 36.8945 40.5859 36.2305L40.5859 14.6875C40.5859 14.0234 40.1562 13.5742 39.4922 13.5742ZM12.1289 35.1758L12.1289 15.7422C12.1289 15.5469 12.1875 15.4883 12.4023 15.4883L38.4375 15.4883C38.6523 15.4883 38.6914 15.5469 38.6914 15.7422L38.6914 35.1758C38.6914 35.3906 38.6523 35.4297 38.4375 35.4297L12.4023 35.4297C12.1875 35.4297 12.1289 35.3906 12.1289 35.1758ZM13.5547 33.1445C13.5547 33.6914 13.8867 34.0234 14.4336 34.0234L36.3867 34.0234C36.9531 34.0234 37.2656 33.6914 37.2656 33.1445L37.2656 17.7734C37.2656 17.2461 36.9531 16.9141 36.3867 16.9141L14.4336 16.9141C13.8867 16.9141 13.5547 17.2461 13.5547 17.7734ZM15.0977 30.1562L15.0977 18.4961C15.0977 18.3984 15.0977 18.4375 15.1172 18.4375L35.7031 18.4375C35.7617 18.4375 35.7227 18.3984 35.7227 18.4961L35.7227 30.1562L30.4102 25.1953C29.9219 24.7461 29.3359 24.5312 28.7305 24.5312C28.0859 24.5312 27.5586 24.707 27.0508 25.1562L22.6367 29.1406L20.8789 27.5586C20.4492 27.1484 19.9219 26.9141 19.375 26.9141C18.8477 26.9141 18.3984 27.1484 17.9688 27.5195ZM18.4375 22.9492C18.4375 24.3555 19.5898 25.5078 21.0156 25.5078C22.4219 25.5078 23.5938 24.3555 23.5938 22.9492C23.5938 21.5234 22.4219 20.3711 21.0156 20.3711C19.5898 20.3711 18.4375 21.5234 18.4375 22.9492Z" fill="black" fill-opacity="0.85"/>
 </g>
</svg>
