<?xml version="1.0" encoding="UTF-8"?>
<!--Generator: Apple Native CoreSVG 326-->
<!DOCTYPE svg
PUBLIC "-//W3C//DTD SVG 1.1//EN"
       "http://www.w3.org/Graphics/SVG/1.1/DTD/svg11.dtd">
<svg version="1.1" xmlns="http://www.w3.org/2000/svg" xmlns:xlink="http://www.w3.org/1999/xlink" viewBox="0 0 64.9805 51.8164">
 <g>
  <rect height="51.8164" opacity="0" width="64.9805" x="0" y="0"/>
  <path d="M51.9922 7.57812L51.9922 20.293L48.5352 20.293L48.5352 7.77344C48.5352 4.96094 46.9922 3.51562 44.3164 3.51562L7.67578 3.51562C4.94141 3.51562 3.45703 4.96094 3.45703 7.77344L3.45703 32.8711C3.45703 35.6836 5 37.1289 7.67578 37.1289L24.3945 37.1289L24.3945 40.5859L7.59766 40.5859C2.53906 40.5859 0 38.0469 0 33.0469L0 7.57812C0 2.59766 2.53906 0.0585938 7.59766 0.0585938L44.3945 0.0585938C49.4531 0.0585938 51.9922 2.59766 51.9922 7.57812Z" fill="black" fill-opacity="0.85"/>
  <path d="M10.1172 8.24219L14.4922 12.6172L17.3242 9.80469C18.2227 8.88672 19.1406 9.6875 19.2383 10.4102L20.6836 19.3359C20.7422 19.7461 20.6055 20.1367 20.3516 20.4297C20.0781 20.6641 19.6875 20.8008 19.2773 20.7422L10.3516 19.2969C9.62891 19.1992 8.82812 18.3008 9.74609 17.4023L12.5586 14.5508L8.18359 10.1758C7.65625 9.64844 7.65625 8.76953 8.18359 8.24219C8.71094 7.71484 9.58984 7.71484 10.1172 8.24219Z" fill="black" fill-opacity="0.85"/>
  <path d="M31.9922 51.8164L57.0117 51.8164C62.0508 51.8164 64.6094 49.2578 64.6094 44.2773L64.6094 27.8125C64.6094 22.8516 62.0508 20.293 57.0117 20.293L31.9922 20.293C26.9531 20.293 24.3945 22.8125 24.3945 27.8125L24.3945 44.2773C24.3945 49.2773 26.9531 51.8164 31.9922 51.8164Z" fill="black" fill-opacity="0.85"/>
 </g>
</svg>
