<?xml version="1.0" encoding="UTF-8"?>
<!--Generator: Apple Native CoreSVG 326-->
<!DOCTYPE svg
PUBLIC "-//W3C//DTD SVG 1.1//EN"
       "http://www.w3.org/Graphics/SVG/1.1/DTD/svg11.dtd">
<svg version="1.1" xmlns="http://www.w3.org/2000/svg" xmlns:xlink="http://www.w3.org/1999/xlink" viewBox="0 0 31.6992 52.4805">
 <g>
  <rect height="52.4805" opacity="0" width="31.6992" x="0" y="0"/>
  <path d="M0 45.9961C0 49.9414 2.57812 52.4414 6.66016 52.4414L24.6484 52.4414C28.7305 52.4414 31.3281 49.9414 31.3281 45.9961L31.3281 6.44531C31.3281 2.5 28.7305 0 24.6484 0L6.66016 0C2.57812 0 0 2.5 0 6.44531ZM3.45703 45.4883L3.45703 6.95312C3.45703 4.66797 4.70703 3.45703 7.08984 3.45703L24.2383 3.45703C26.6016 3.45703 27.8516 4.66797 27.8516 6.95312L27.8516 45.4883C27.8516 47.7734 26.6016 48.9844 24.2383 48.9844L7.08984 48.9844C4.70703 48.9844 3.45703 47.7734 3.45703 45.4883Z" fill="black" fill-opacity="0.85"/>
  <path d="M8.92578 45.7617L22.3828 45.7617C23.75 45.7617 24.6484 44.8633 24.6484 43.457L24.6484 40.5859C24.6484 39.1797 23.75 38.2812 22.3828 38.2812L8.92578 38.2812C7.55859 38.2812 6.67969 39.1797 6.67969 40.5859L6.67969 43.457C6.67969 44.8633 7.55859 45.7617 8.92578 45.7617Z" fill="black" fill-opacity="0.85"/>
  <path d="M9.02344 29.4531C9.02344 29.7852 9.12109 30.0977 9.33594 30.3125L14.7461 35.7031C15 35.957 15.332 36.1133 15.6641 36.1133C15.9766 36.1133 16.3086 35.957 16.5625 35.7031L21.9727 30.3125C22.207 30.0977 22.3047 29.7852 22.3047 29.4531C22.3047 28.75 21.7969 28.2812 21.1328 28.2812C20.7617 28.2617 20.5078 28.418 20.2539 28.6719L18.1641 30.7422L16.7773 32.3828L16.875 29.5508L16.875 21.6406C16.875 20.918 16.3672 20.4102 15.6641 20.4102C14.9414 20.4102 14.4531 20.918 14.4531 21.6406L14.4531 29.5508L14.5508 32.3828L13.1641 30.7422L11.0547 28.6719C10.8008 28.418 10.5469 28.2617 10.1953 28.2812C9.51172 28.2812 9.02344 28.75 9.02344 29.4531Z" fill="black" fill-opacity="0.85"/>
 </g>
</svg>
