<?xml version="1.0" encoding="UTF-8"?>
<!--Generator: Apple Native CoreSVG 326-->
<!DOCTYPE svg
PUBLIC "-//W3C//DTD SVG 1.1//EN"
       "http://www.w3.org/Graphics/SVG/1.1/DTD/svg11.dtd">
<svg version="1.1" xmlns="http://www.w3.org/2000/svg" xmlns:xlink="http://www.w3.org/1999/xlink" viewBox="0 0 67.1526 51.6992">
 <g>
  <rect height="51.6992" opacity="0" width="67.1526" x="0" y="0"/>
  <path d="M25.0412 0C29.6701 0.996094 36.2326 2.98828 39.9044 4.21875C49.1037 7.30469 52.3459 11.2305 52.3459 20.1172C52.3459 26.543 49.3576 29.9414 44.924 29.9414C43.4396 29.9414 41.838 29.5703 40.0998 28.7305L40.0998 12.6758C40.0998 10.8398 39.9044 9.19922 38.1076 8.65234C36.6232 8.16406 35.881 9.45312 35.881 11.2305L35.881 51.6406L25.0412 48.2227ZM37.9123 44.6289L37.9123 50.8203L60.0802 42.9102C63.381 41.7578 65.4513 40.6055 66.213 39.5703C67.4435 37.9883 66.8966 35.4883 62.0919 33.8477C57.1505 32.1289 51.3498 31.582 46.7209 31.9531C43.8693 32.168 40.4123 33.1055 37.9123 33.9453L37.9123 40.6055L49.5529 36.3867C51.5255 35.6836 54.2794 35.5859 55.9982 36.1523C57.5998 36.6992 57.4435 37.5977 55.3732 38.3789ZM4.00601 43.4961C8.88882 45.2344 15.1388 46.6406 22.8537 44.9805L22.8537 39.375L17.7169 41.2695C15.588 42.0508 12.1701 42.168 10.9787 41.7969C9.27944 41.2109 9.63101 40.0781 11.8966 39.2773L22.8537 35.3516L22.8537 29.1406L7.79507 34.5898C5.78335 35.332 3.7521 35.8984 1.42788 37.4805C-1.11118 39.2188-0.271337 41.9727 4.00601 43.4961Z" fill="black" fill-opacity="0.85"/>
 </g>
</svg>
