<?xml version="1.0" encoding="UTF-8"?>
<!--Generator: Apple Native CoreSVG 326-->
<!DOCTYPE svg
PUBLIC "-//W3C//DTD SVG 1.1//EN"
       "http://www.w3.org/Graphics/SVG/1.1/DTD/svg11.dtd">
<svg version="1.1" xmlns="http://www.w3.org/2000/svg" xmlns:xlink="http://www.w3.org/1999/xlink" viewBox="0 0 47.3828 47.5586">
 <g>
  <rect height="47.5586" opacity="0" width="47.3828" x="0" y="0"/>
  <path d="M0 12.6172C0 13.457 0.683594 14.1406 1.52344 14.1406L6.83594 14.1406L6.83594 19.4531C6.83594 20.3125 7.53906 20.9766 8.37891 20.9766C9.23828 20.9766 9.90234 20.293 9.90234 19.4531L9.90234 14.1406L15.2344 14.1406C16.0938 14.1406 16.7773 13.457 16.7773 12.6172C16.7773 11.7578 16.0938 11.0742 15.2344 11.0742L9.90234 11.0742L9.90234 5.74219C9.90234 4.90234 9.21875 4.21875 8.37891 4.21875C7.51953 4.21875 6.83594 4.90234 6.83594 5.74219L6.83594 11.0742L1.52344 11.0742C0.683594 11.0742 0 11.7578 0 12.6172ZM24.9609 24.668L39.4922 2.77344C39.8047 2.34375 39.9219 1.97266 39.9219 1.52344C39.9219 0.664062 39.1602 0 38.2812 0C37.5 0 37.1094 0.234375 36.4844 1.13281L22.0312 22.9883L7.55859 44.7266C7.26562 45.1562 7.12891 45.5273 7.12891 46.0156C7.12891 46.9336 7.89062 47.5586 8.84766 47.5586C9.57031 47.5586 9.98047 47.2656 10.5469 46.4453ZM30.2539 36.9727C30.2539 37.8125 30.9375 38.4961 31.7773 38.4961L45.4883 38.4961C46.3281 38.4961 47.0117 37.8125 47.0117 36.9727C47.0117 36.1133 46.3281 35.4297 45.4883 35.4297L31.7773 35.4297C30.9375 35.4297 30.2539 36.1133 30.2539 36.9727Z" fill="black" fill-opacity="0.85"/>
 </g>
</svg>
