<?xml version="1.0" encoding="UTF-8"?>
<!--Generator: Apple Native CoreSVG 326-->
<!DOCTYPE svg
PUBLIC "-//W3C//DTD SVG 1.1//EN"
       "http://www.w3.org/Graphics/SVG/1.1/DTD/svg11.dtd">
<svg version="1.1" xmlns="http://www.w3.org/2000/svg" xmlns:xlink="http://www.w3.org/1999/xlink" viewBox="0 0 51.25 50.918">
 <g>
  <rect height="50.918" opacity="0" width="51.25" x="0" y="0"/>
  <path d="M50.8789 25.4492C50.8789 39.4531 39.4531 50.8789 25.4297 50.8789C11.4258 50.8789 0 39.4531 0 25.4492C0 11.4258 11.4258 0 25.4297 0C39.4531 0 50.8789 11.4258 50.8789 25.4492ZM30.1172 15.2344L30.1172 24.1016L28.0078 25.2344C27.5586 25.5078 27.3438 25.8789 27.3438 26.25C27.3438 26.9531 28.0664 27.5781 28.9648 27.0898L30.1172 26.4648L30.1172 35.0195C30.1172 35.8789 30.6055 36.3867 31.4258 36.3867C32.207 36.3867 32.6953 35.8789 32.6953 35.0195L32.6953 25.0781L34.9805 23.8477C35.4492 23.5938 35.6445 23.2227 35.6445 22.8711C35.6445 22.168 34.9023 21.5234 34.082 21.9531L32.6953 22.7148L32.6953 15.2539C32.6953 14.375 32.207 13.8672 31.4258 13.8672C30.6055 13.8672 30.1172 14.375 30.1172 15.2344ZM16.7969 20.3516C16.2109 20.3516 15.7422 20.8008 15.7422 21.3672C15.7422 21.9727 16.2109 22.4023 16.7969 22.4023L23.1641 22.4023L23.1641 22.6758L16.1523 33.8477C15.918 34.2188 15.7422 34.5703 15.7422 34.9219C15.7422 35.625 16.2305 36.1133 16.9336 36.1133L25.2539 36.1133C25.8594 36.1133 26.3281 35.6641 26.3281 35.0586C26.3281 34.5117 25.8594 34.0625 25.2539 34.0625L19.0039 34.0625L19.0039 33.8086L25.7617 22.8516C26.0352 22.4023 26.2109 22.0703 26.2109 21.6016C26.2109 20.9766 25.8789 20.3516 24.9219 20.3516Z" fill="black" fill-opacity="0.85"/>
 </g>
</svg>
