<?xml version="1.0" encoding="UTF-8"?>
<!--Generator: Apple Native CoreSVG 326-->
<!DOCTYPE svg
PUBLIC "-//W3C//DTD SVG 1.1//EN"
       "http://www.w3.org/Graphics/SVG/1.1/DTD/svg11.dtd">
<svg version="1.1" xmlns="http://www.w3.org/2000/svg" xmlns:xlink="http://www.w3.org/1999/xlink" viewBox="0 0 56.2305 55.8789">
 <g>
  <rect height="55.8789" opacity="0" width="56.2305" x="0" y="0"/>
  <path d="M27.9297 55.8594C43.2812 55.8594 55.8594 43.3008 55.8594 27.9297C55.8594 12.5586 43.2812 0 27.9297 0C12.5781 0 0 12.5586 0 27.9297C0 43.3008 12.5781 55.8594 27.9297 55.8594ZM27.9297 46.6797C17.5586 46.6797 9.16016 38.3008 9.16016 27.9297C9.16016 17.5586 17.5586 9.16016 27.9297 9.16016C38.3008 9.16016 46.6992 17.5586 46.6992 27.9297C46.6992 38.3008 38.3008 46.6797 27.9297 46.6797Z" fill="black" fill-opacity="0.85"/>
  <path d="M19.6484 38.3398L27.7539 38.3398C28.3594 38.3398 28.8086 37.9102 28.8086 37.3242C28.8086 36.7773 28.3594 36.3477 27.7539 36.3477L21.6406 36.3477L21.6406 36.0938L28.2617 25.3711C28.5352 24.9414 28.7109 24.6094 28.7109 24.1602C28.7109 23.5547 28.3594 22.9492 27.4414 22.9492L19.5117 22.9492C18.9453 22.9492 18.4961 23.3789 18.4961 23.9258C18.4961 24.5117 18.9453 24.9414 19.5117 24.9414L25.7422 24.9414L25.7422 25.1953L18.8867 36.1328C18.6523 36.5039 18.4961 36.8164 18.4961 37.1875C18.4961 37.8711 18.9648 38.3398 19.6484 38.3398ZM33.7695 38.6133C34.5508 38.6133 35.0195 38.1055 35.0195 37.2852L35.0195 17.9492C35.0195 17.1094 34.5508 16.6016 33.7695 16.6016C32.9883 16.6016 32.5195 17.1094 32.5195 17.9297L32.5195 37.2852C32.5195 38.1055 32.9883 38.6133 33.7695 38.6133ZM31.3867 29.5117L37.2461 26.3477C37.7148 26.0938 37.8906 25.7422 37.8906 25.3906C37.8906 24.707 37.1875 24.082 36.3867 24.5117L30.4492 27.7148C30.0195 27.9688 29.8047 28.3398 29.8047 28.6914C29.8047 29.375 30.5078 29.9805 31.3867 29.5117Z" fill="black" fill-opacity="0.85"/>
 </g>
</svg>
