<?xml version="1.0" encoding="UTF-8"?>
<!--Generator: Apple Native CoreSVG 326-->
<!DOCTYPE svg
PUBLIC "-//W3C//DTD SVG 1.1//EN"
       "http://www.w3.org/Graphics/SVG/1.1/DTD/svg11.dtd">
<svg version="1.1" xmlns="http://www.w3.org/2000/svg" xmlns:xlink="http://www.w3.org/1999/xlink" viewBox="0 0 46.2891 45.918">
 <g>
  <rect height="45.918" opacity="0" width="46.2891" x="0" y="0"/>
  <path d="M45.918 7.53906L45.918 38.3984C45.918 43.3594 43.3594 45.918 38.3008 45.918L7.59766 45.918C2.55859 45.918 0 43.3984 0 38.3984L0 7.53906C0 2.53906 2.55859 0 7.59766 0L38.3008 0C43.3594 0 45.918 2.55859 45.918 7.53906ZM13.2422 10.957C11.9141 10.957 10.9375 11.9141 10.9375 13.2422L10.9375 32.6758C10.9375 34.0039 11.9141 34.9805 13.2422 34.9805L32.9102 34.9805C34.2578 34.9805 35.2148 34.0039 35.2148 32.6758L35.2148 13.2422C35.2148 11.9141 34.2578 10.957 32.9102 10.957ZM20.7227 28.5547L20.7227 29.668C20.7227 30.2344 20.332 30.625 19.7656 30.625L15.6641 30.625C15.0781 30.625 14.6875 30.2344 14.6875 29.668L14.6875 28.5547C14.6875 27.9883 15.0781 27.5977 15.6641 27.5977L19.7656 27.5977C20.332 27.5977 20.7227 27.9883 20.7227 28.5547ZM31.5039 28.5547L31.5039 29.668C31.5039 30.2344 31.0938 30.625 30.5078 30.625L26.4453 30.625C25.8594 30.625 25.4492 30.2344 25.4492 29.668L25.4492 28.5547C25.4492 27.9883 25.8594 27.5977 26.4453 27.5977L30.5078 27.5977C31.0938 27.5977 31.5039 27.9883 31.5039 28.5547ZM24.5898 15.9375L24.5898 20.2539C24.5898 20.8398 24.1797 21.2109 23.6133 21.2109L22.5195 21.2109C21.9531 21.2109 21.5625 20.8398 21.5625 20.2539L21.5625 15.9375C21.5625 15.3711 21.9531 15 22.5195 15L23.6133 15C24.1797 15 24.5898 15.3711 24.5898 15.9375Z" fill="black" fill-opacity="0.85"/>
 </g>
</svg>
