<?xml version="1.0" encoding="UTF-8"?>
<!--Generator: Apple Native CoreSVG 326-->
<!DOCTYPE svg
PUBLIC "-//W3C//DTD SVG 1.1//EN"
       "http://www.w3.org/Graphics/SVG/1.1/DTD/svg11.dtd">
<svg version="1.1" xmlns="http://www.w3.org/2000/svg" xmlns:xlink="http://www.w3.org/1999/xlink" viewBox="0 0 46.2891 45.918">
 <g>
  <rect height="45.918" opacity="0" width="46.2891" x="0" y="0"/>
  <path d="M45.918 7.53906L45.918 38.3984C45.918 43.3594 43.3594 45.918 38.3008 45.918L7.59766 45.918C2.55859 45.918 0 43.3984 0 38.3984L0 7.53906C0 2.53906 2.55859 0 7.59766 0L38.3008 0C43.3594 0 45.918 2.55859 45.918 7.53906ZM18.4961 8.22266C17.168 8.22266 16.1914 9.19922 16.1914 10.5273L16.1914 35.4102C16.1914 36.7383 17.168 37.7148 18.4961 37.7148L27.4023 37.7148C28.75 37.7148 29.707 36.7383 29.707 35.4102L29.707 10.5273C29.707 9.19922 28.75 8.22266 27.4023 8.22266ZM25.5078 31.25C25.5078 32.6758 24.375 33.8086 22.9492 33.8086C21.543 33.8086 20.4102 32.6758 20.4102 31.25C20.4102 29.8438 21.543 28.7109 22.9492 28.7109C24.375 28.7109 25.5078 29.8438 25.5078 31.25ZM25.5078 22.9492C25.5078 24.3555 24.375 25.4883 22.9492 25.4883C21.543 25.4883 20.4102 24.3555 20.4102 22.9492C20.4102 21.5234 21.543 20.3906 22.9492 20.3906C24.375 20.3906 25.5078 21.5234 25.5078 22.9492ZM25.5078 14.6289C25.5078 16.0352 24.375 17.1875 22.9492 17.1875C21.543 17.1875 20.4102 16.0352 20.4102 14.6289C20.4102 13.2227 21.543 12.0898 22.9492 12.0898C24.375 12.0898 25.5078 13.2227 25.5078 14.6289Z" fill="black" fill-opacity="0.85"/>
 </g>
</svg>
