<?xml version="1.0" encoding="UTF-8"?>
<!--Generator: Apple Native CoreSVG 326-->
<!DOCTYPE svg
PUBLIC "-//W3C//DTD SVG 1.1//EN"
       "http://www.w3.org/Graphics/SVG/1.1/DTD/svg11.dtd">
<svg version="1.1" xmlns="http://www.w3.org/2000/svg" xmlns:xlink="http://www.w3.org/1999/xlink" viewBox="0 0 56.5625 54.3555">
 <g>
  <rect height="54.3555" opacity="0" width="56.5625" x="0" y="0"/>
  <path d="M46.2891 7.32422L46.2891 9.02344L42.9102 9.02344L42.9102 7.10938C42.9102 4.82422 41.8555 3.76953 39.5703 3.76953L16.6211 3.76953C14.3359 3.76953 13.2812 4.82422 13.2812 7.10938L13.2813 9.02344L9.90234 9.02344L9.90234 7.32422C9.90234 2.67578 12.3828 0.605469 16.6602 0.605469L39.5312 0.605469C44.0039 0.605469 46.2891 2.67578 46.2891 7.32422Z" fill="black" fill-opacity="0.85"/>
  <path d="M56.1914 16.1133L56.1914 39.7461C56.1914 44.4531 53.7305 46.8359 49.0039 46.8359L46.1523 46.8359L46.1523 43.5742L49.043 43.5742C51.5039 43.5742 52.6953 42.3438 52.6953 39.9023L52.6953 15.957C52.6953 13.5156 51.5039 12.3047 49.043 12.3047L7.14844 12.3047C4.6875 12.3047 3.47656 13.5156 3.47656 15.957L3.47656 39.9023C3.47656 42.3438 4.6875 43.5742 7.14844 43.5742L10.0391 43.5742L10.0391 46.8359L7.1875 46.8359C2.46094 46.8359 0 44.4531 0 39.7461L0 16.1133C0 11.4062 2.67578 9.02344 7.1875 9.02344L49.0039 9.02344C53.7305 9.02344 56.1914 11.4062 56.1914 16.1133ZM46.2891 18.418C46.2891 20.0977 44.9023 21.4844 43.2422 21.4844C41.543 21.4844 40.1562 20.1367 40.1562 18.418C40.1562 16.7578 41.543 15.3516 43.2422 15.3516C44.9023 15.3516 46.2891 16.7578 46.2891 18.418Z" fill="black" fill-opacity="0.85"/>
  <path d="M14.9805 54.3555L41.2109 54.3555C44.5117 54.3555 46.1523 52.8516 46.1523 49.4336L46.1523 29.2383C46.1523 25.8203 44.5117 24.3164 41.2109 24.3164L14.9805 24.3164C11.7969 24.3164 10.0391 25.8203 10.0391 29.2383L10.0391 49.4336C10.0391 52.8516 11.6797 54.3555 14.9805 54.3555ZM15.9766 51.0938C14.2773 51.0938 13.5352 50.3516 13.5352 48.6328L13.5352 30C13.5352 28.3203 14.2773 27.5781 15.9766 27.5781L40.2344 27.5781C41.9336 27.5781 42.6562 28.3203 42.6562 30L42.6562 48.6328C42.6562 50.3516 41.9336 51.0938 40.2344 51.0938ZM18.9648 36.2695L37.2656 36.2695C38.0469 36.2695 38.6328 35.6641 38.6328 34.9023C38.6328 34.1602 38.0469 33.5742 37.2656 33.5742L18.9648 33.5742C18.1641 33.5742 17.5781 34.1602 17.5781 34.9023C17.5781 35.6641 18.1641 36.2695 18.9648 36.2695ZM18.9648 45.0977L37.2656 45.0977C38.0469 45.0977 38.6328 44.5117 38.6328 43.7695C38.6328 42.9883 38.0469 42.3828 37.2656 42.3828L18.9648 42.3828C18.1641 42.3828 17.5781 42.9883 17.5781 43.7695C17.5781 44.5117 18.1641 45.0977 18.9648 45.0977Z" fill="black" fill-opacity="0.85"/>
 </g>
</svg>
