<?xml version="1.0" encoding="UTF-8"?>
<!--Generator: Apple Native CoreSVG 326-->
<!DOCTYPE svg
PUBLIC "-//W3C//DTD SVG 1.1//EN"
       "http://www.w3.org/Graphics/SVG/1.1/DTD/svg11.dtd">
<svg version="1.1" xmlns="http://www.w3.org/2000/svg" xmlns:xlink="http://www.w3.org/1999/xlink" viewBox="0 0 56.8656 56.5284">
 <g>
  <rect height="56.5284" opacity="0" width="56.8656" x="0" y="0"/>
  <path d="M2.71991 33.6255L22.8957 53.8013C26.4699 57.3755 30.0637 57.3951 33.5988 53.8599L53.8527 33.5865C57.3879 30.0513 57.3879 26.4576 53.8137 22.8833L33.6379 2.70756C30.0637-0.886186 26.4894-0.905717 22.9348 2.6685L2.64178 22.9224C-0.912906 26.4771-0.873843 30.0513 2.71991 33.6255ZM5.20038 31.2427C3.24725 29.3091 3.22772 27.2388 5.21991 25.2662L25.259 5.2271C27.2316 3.23491 29.2824 3.25444 31.2355 5.20756L51.2941 25.2662C53.2277 27.1998 53.2863 29.2896 51.2941 31.2623L31.2551 51.2818C29.2629 53.274 27.1926 53.2349 25.2785 51.3208Z" fill="black" fill-opacity="0.85"/>
  <path d="M27.7785 33.4107C28.8527 33.4107 29.5168 32.7271 29.5168 31.8482C29.5168 31.7115 29.5168 31.5552 29.5168 31.4185C29.5168 29.9537 30.3176 29.0552 32.134 27.8248C34.6144 26.1646 36.1965 24.6998 36.1965 21.8482C36.1965 17.9224 32.6808 15.6763 28.5012 15.6763C24.2824 15.6763 21.5285 17.7857 20.923 20.1685C20.8058 20.5591 20.7473 20.9302 20.7473 21.3404C20.7473 22.3169 21.4894 22.8638 22.2316 22.8638C22.9933 22.8638 23.4816 22.4927 23.8332 21.9263L24.2043 21.399C24.8879 19.7779 26.3918 18.6255 28.3644 18.6255C30.8449 18.6255 32.4465 20.0123 32.4465 22.024C32.4465 23.7427 31.4308 24.6412 29.1652 26.2232C27.2902 27.5318 26.0598 28.8599 26.0598 31.2232C26.0598 31.3794 26.0598 31.5357 26.0598 31.6919C26.0598 32.8248 26.6848 33.4107 27.7785 33.4107ZM27.7394 40.7349C29.0676 40.7349 30.2004 39.6607 30.2004 38.3326C30.2004 36.9849 29.0871 35.9302 27.7394 35.9302C26.3723 35.9302 25.259 37.0044 25.259 38.3326C25.259 39.6412 26.3918 40.7349 27.7394 40.7349Z" fill="black" fill-opacity="0.85"/>
 </g>
</svg>
