<?xml version="1.0" encoding="UTF-8"?>
<!--Generator: Apple Native CoreSVG 326-->
<!DOCTYPE svg
PUBLIC "-//W3C//DTD SVG 1.1//EN"
       "http://www.w3.org/Graphics/SVG/1.1/DTD/svg11.dtd">
<svg version="1.1" xmlns="http://www.w3.org/2000/svg" xmlns:xlink="http://www.w3.org/1999/xlink" viewBox="0 0 46.1914 45.8398">
 <g>
  <rect height="45.8398" opacity="0" width="46.1914" x="0" y="0"/>
  <path d="M42.9688 2.89062C40.5273 0.46875 37.1484 0 32.6758 0L13.0078 0C8.69141 0 5.29297 0.46875 2.87109 2.89062C0.449219 5.3125 0 8.67188 0 13.0078L0 32.6758C0 37.168 0.429688 40.5273 2.85156 42.9297C5.29297 45.3516 8.67188 45.8203 13.1445 45.8203L32.6758 45.8203C37.1484 45.8203 40.5469 45.3516 42.9688 42.9297C45.3906 40.5078 45.8203 37.168 45.8203 32.6758L45.8203 13.125C45.8203 8.65234 45.3906 5.29297 42.9688 2.89062ZM42.3633 12.4414L42.3633 33.3594C42.3633 36.2109 41.9531 38.8477 40.4297 40.3906C38.8867 41.9336 36.1914 42.3633 33.3594 42.3633L12.4609 42.3633C9.62891 42.3633 6.93359 41.9141 5.39062 40.3906C3.86719 38.8477 3.45703 36.2109 3.45703 33.3594L3.45703 12.5781C3.45703 9.62891 3.86719 6.95312 5.39062 5.41016C6.91406 3.86719 9.64844 3.45703 12.5781 3.45703L33.3594 3.45703C36.1914 3.45703 38.8867 3.88672 40.4297 5.42969C41.9727 6.95312 42.3633 9.60938 42.3633 12.4414Z" fill="black" fill-opacity="0.85"/>
  <path d="M22.4414 28.0664C23.5156 28.0664 24.1797 27.3828 24.1797 26.5039C24.1797 26.3672 24.1797 26.2109 24.1797 26.0742C24.1797 24.6094 24.9609 23.7109 26.7969 22.4805C29.2773 20.8203 30.8398 19.3555 30.8398 16.5039C30.8398 12.5781 27.3438 10.332 23.1641 10.332C18.9453 10.332 16.1719 12.4414 15.5664 14.8242C15.4688 15.2148 15.4102 15.5859 15.4102 15.9961C15.4102 16.9727 16.1523 17.5195 16.8945 17.5195C17.6562 17.5195 18.1445 17.1484 18.4961 16.582L18.8477 16.0547C19.5508 14.4336 21.0547 13.2812 23.0273 13.2812C25.5078 13.2812 27.1094 14.668 27.1094 16.6797C27.1094 18.3984 26.0938 19.2969 23.8281 20.8789C21.9531 22.1875 20.7227 23.5156 20.7227 25.8789C20.7227 26.0352 20.7227 26.1914 20.7227 26.3477C20.7227 27.4805 21.3477 28.0664 22.4414 28.0664ZM22.3828 35.3906C23.7305 35.3906 24.8633 34.3164 24.8633 32.9883C24.8633 31.6406 23.75 30.5859 22.3828 30.5859C21.0352 30.5859 19.9023 31.6602 19.9023 32.9883C19.9023 34.2969 21.0547 35.3906 22.3828 35.3906Z" fill="black" fill-opacity="0.85"/>
 </g>
</svg>
