<?xml version="1.0" encoding="UTF-8"?>
<!--Generator: Apple Native CoreSVG 326-->
<!DOCTYPE svg
PUBLIC "-//W3C//DTD SVG 1.1//EN"
       "http://www.w3.org/Graphics/SVG/1.1/DTD/svg11.dtd">
<svg version="1.1" xmlns="http://www.w3.org/2000/svg" xmlns:xlink="http://www.w3.org/1999/xlink" viewBox="0 0 57.6367 43.3008">
 <g>
  <rect height="43.3008" opacity="0" width="57.6367" x="0" y="0"/>
  <path d="M20.4883 0C6.21094 0 0 6.62109 0 19.9805L0 35.918C0 40.7812 2.51953 43.2617 7.42188 43.2617L49.8633 43.2617C54.7461 43.2617 57.2656 40.7617 57.2656 35.918L57.2656 19.9805C57.2656 6.62109 51.0742 0 36.7773 0ZM20.5273 3.47656L36.7578 3.47656C48.75 3.47656 53.8086 8.76953 53.8086 19.8047L53.8086 35.7422C53.8086 38.4375 52.3633 39.8047 49.7656 39.8047L7.5 39.8047C4.86328 39.8047 3.45703 38.4375 3.45703 35.7422L3.45703 19.8047C3.45703 8.76953 8.51562 3.47656 20.5273 3.47656Z" fill="black" fill-opacity="0.85"/>
  <path d="M17.5977 32.1289C18.5742 32.1289 19.1797 31.4844 19.1797 30.4492L19.1797 23.8281L21.8945 23.8281L24.7656 30.8398C25.0781 31.6797 25.5664 32.1289 26.4258 32.1289C27.168 32.1289 27.9297 31.6797 27.9297 30.5859C27.9297 30.332 27.8125 29.9023 27.5977 29.4141L24.9414 23.1445C26.9922 22.1875 27.9883 20.0781 27.9883 17.6367C27.9883 13.6719 25.6641 11.4648 21.7969 11.4648L17.5586 11.4648C16.5234 11.4648 15.957 12.0898 15.957 13.125L15.957 30.4492C15.957 31.4648 16.543 32.1289 17.5977 32.1289ZM19.1797 21.4258L19.1797 14.043L21.5039 14.043C23.5547 14.043 24.7461 15.4883 24.7461 17.6953C24.7461 19.8438 23.75 21.4258 21.5039 21.4258ZM32.3633 31.8359L41.0742 31.8359C41.8555 31.8359 42.3438 31.3086 42.3438 30.5273C42.3438 29.707 41.8359 29.2188 41.0742 29.2188L34.8047 29.2188L34.8047 29.043L38.75 23.8672C41.1523 20.8398 41.9336 18.9844 41.9336 16.7969C41.9336 13.4375 39.7852 10.957 36.3672 10.957C33.2227 10.957 30.8984 13.6523 30.8984 16.2891C30.8984 17.0703 31.3672 17.6758 32.2266 17.6758C32.9492 17.6758 33.418 17.3242 33.6133 16.6211C34.0625 14.7656 34.7656 13.5352 36.3672 13.5352C38.0664 13.5352 38.9453 15.0977 38.9453 16.9336C38.9453 18.9258 37.7148 20.8594 36.3086 22.7148L31.6602 28.8086C31.25 29.3359 30.8594 29.8828 30.8594 30.5469C30.8594 31.3086 31.3672 31.8359 32.3633 31.8359Z" fill="black" fill-opacity="0.85"/>
 </g>
</svg>
