<?xml version="1.0" encoding="UTF-8"?>
<!--Generator: Apple Native CoreSVG 326-->
<!DOCTYPE svg
PUBLIC "-//W3C//DTD SVG 1.1//EN"
       "http://www.w3.org/Graphics/SVG/1.1/DTD/svg11.dtd">
<svg version="1.1" xmlns="http://www.w3.org/2000/svg" xmlns:xlink="http://www.w3.org/1999/xlink" viewBox="0 0 46.2891 34.707">
 <g>
  <rect height="34.707" opacity="0" width="46.2891" x="0" y="0"/>
  <path d="M0 7.63672L0 27.0898C0 32.1484 2.55859 34.707 7.51953 34.707L38.3789 34.707C43.3594 34.707 45.918 32.1484 45.918 27.0898L45.918 7.63672C45.918 2.59766 43.3789 0.0390625 38.3789 0.0390625L7.51953 0.0390625C2.51953 0.0390625 0 2.59766 0 7.63672ZM3.45703 7.71484C3.45703 4.98047 4.90234 3.49609 7.71484 3.49609L38.2031 3.49609C41.0156 3.49609 42.4609 4.98047 42.4609 7.71484L42.4609 27.0312C42.4609 29.707 41.0156 31.2305 38.2031 31.2305L7.71484 31.2305C4.90234 31.2305 3.45703 29.707 3.45703 27.0312Z" fill="black" fill-opacity="0.85"/>
 </g>
</svg>
