<?xml version="1.0" encoding="UTF-8"?>
<!--Generator: Apple Native CoreSVG 326-->
<!DOCTYPE svg
PUBLIC "-//W3C//DTD SVG 1.1//EN"
       "http://www.w3.org/Graphics/SVG/1.1/DTD/svg11.dtd">
<svg version="1.1" xmlns="http://www.w3.org/2000/svg" xmlns:xlink="http://www.w3.org/1999/xlink" viewBox="0 0 63.6328 48.1055">
 <g>
  <rect height="48.1055" opacity="0" width="63.6328" x="0" y="0"/>
  <path d="M4.14062 14.1016L14.5898 14.1016C17.207 14.1016 18.7109 12.6172 18.7109 9.88281L18.7109 4.21875C18.7109 1.48438 17.207 0 14.5898 0L4.14062 0C1.52344 0 0 1.48438 0 4.21875L0 9.88281C0 12.6172 1.52344 14.1016 4.14062 14.1016ZM4.51172 11.0938C3.47656 11.0938 3.00781 10.5859 3.00781 9.51172L3.00781 4.53125C3.00781 3.49609 3.47656 2.98828 4.51172 2.98828L14.1797 2.98828C15.2148 2.98828 15.7227 3.49609 15.7227 4.53125L15.7227 9.51172C15.7227 10.5859 15.2148 11.0938 14.1797 11.0938ZM26.3867 14.1016L36.8555 14.1016C39.4727 14.1016 40.957 12.6172 40.957 9.88281L40.957 4.21875C40.957 1.48438 39.4727 0 36.8555 0L26.3867 0C23.7695 0 22.2656 1.48438 22.2656 4.21875L22.2656 9.88281C22.2656 12.6172 23.7695 14.1016 26.3867 14.1016ZM26.7578 11.0938C25.7422 11.0938 25.2539 10.5859 25.2539 9.51172L25.2539 4.53125C25.2539 3.49609 25.7422 2.98828 26.7578 2.98828L36.4453 2.98828C37.4805 2.98828 37.9688 3.49609 37.9688 4.53125L37.9688 9.51172C37.9688 10.5859 37.4805 11.0938 36.4453 11.0938ZM48.6719 14.1016L59.1211 14.1016C61.7383 14.1016 63.2617 12.6172 63.2617 9.88281L63.2617 4.21875C63.2617 1.48438 61.7383 0 59.1211 0L48.6719 0C46.0547 0 44.5312 1.48438 44.5312 4.21875L44.5312 9.88281C44.5312 12.6172 46.0547 14.1016 48.6719 14.1016ZM49.043 11.0938C48.0273 11.0938 47.5195 10.5859 47.5195 9.51172L47.5195 4.53125C47.5195 3.49609 48.0273 2.98828 49.043 2.98828L58.7305 2.98828C59.7461 2.98828 60.2539 3.49609 60.2539 4.53125L60.2539 9.51172C60.2539 10.5859 59.7461 11.0938 58.7305 11.0938ZM4.14062 31.0742L14.5898 31.0742C17.207 31.0742 18.7109 29.6094 18.7109 26.875L18.7109 21.1914C18.7109 18.457 17.207 16.9922 14.5898 16.9922L4.14062 16.9922C1.52344 16.9922 0 18.457 0 21.1914L0 26.875C0 29.6094 1.52344 31.0742 4.14062 31.0742ZM4.51172 28.0859C3.47656 28.0859 3.00781 27.5781 3.00781 26.5234L3.00781 21.5234C3.00781 20.4883 3.47656 19.9805 4.51172 19.9805L14.1797 19.9805C15.2148 19.9805 15.7227 20.4883 15.7227 21.5234L15.7227 26.5234C15.7227 27.5781 15.2148 28.0859 14.1797 28.0859ZM26.3867 31.0742L36.8555 31.0742C39.4727 31.0742 40.957 29.6094 40.957 26.875L40.957 21.1914C40.957 18.457 39.4727 16.9922 36.8555 16.9922L26.3867 16.9922C23.7695 16.9922 22.2656 18.457 22.2656 21.1914L22.2656 26.875C22.2656 29.6094 23.7695 31.0742 26.3867 31.0742ZM26.7578 28.0859C25.7422 28.0859 25.2539 27.5781 25.2539 26.5234L25.2539 21.5234C25.2539 20.4883 25.7422 19.9805 26.7578 19.9805L36.4453 19.9805C37.4805 19.9805 37.9688 20.4883 37.9688 21.5234L37.9688 26.5234C37.9688 27.5781 37.4805 28.0859 36.4453 28.0859ZM48.6719 31.0742L59.1211 31.0742C61.7383 31.0742 63.2617 29.6094 63.2617 26.875L63.2617 21.1914C63.2617 18.457 61.7383 16.9922 59.1211 16.9922L48.6719 16.9922C46.0547 16.9922 44.5312 18.457 44.5312 21.1914L44.5312 26.875C44.5312 29.6094 46.0547 31.0742 48.6719 31.0742ZM49.043 28.0859C48.0273 28.0859 47.5195 27.5781 47.5195 26.5234L47.5195 21.5234C47.5195 20.4883 48.0273 19.9805 49.043 19.9805L58.7305 19.9805C59.7461 19.9805 60.2539 20.4883 60.2539 21.5234L60.2539 26.5234C60.2539 27.5781 59.7461 28.0859 58.7305 28.0859ZM4.14062 48.0664L14.5898 48.0664C17.207 48.0664 18.7109 46.582 18.7109 43.8477L18.7109 38.1836C18.7109 35.4492 17.207 33.9648 14.5898 33.9648L4.14062 33.9648C1.52344 33.9648 0 35.4492 0 38.1836L0 43.8477C0 46.582 1.52344 48.0664 4.14062 48.0664ZM4.51172 45.0586C3.47656 45.0586 3.00781 44.5508 3.00781 43.4961L3.00781 38.5156C3.00781 37.4609 3.47656 36.9531 4.51172 36.9531L14.1797 36.9531C15.2148 36.9531 15.7227 37.4609 15.7227 38.5156L15.7227 43.4961C15.7227 44.5508 15.2148 45.0586 14.1797 45.0586ZM26.3867 48.0664L36.8555 48.0664C39.4727 48.0664 40.957 46.582 40.957 43.8477L40.957 38.1836C40.957 35.4492 39.4727 33.9648 36.8555 33.9648L26.3867 33.9648C23.7695 33.9648 22.2656 35.4492 22.2656 38.1836L22.2656 43.8477C22.2656 46.582 23.7695 48.0664 26.3867 48.0664ZM26.7578 45.0586C25.7422 45.0586 25.2539 44.5508 25.2539 43.4961L25.2539 38.5156C25.2539 37.4609 25.7422 36.9531 26.7578 36.9531L36.4453 36.9531C37.4805 36.9531 37.9688 37.4609 37.9688 38.5156L37.9688 43.4961C37.9688 44.5508 37.4805 45.0586 36.4453 45.0586ZM48.6719 48.0664L59.1211 48.0664C61.7383 48.0664 63.2617 46.582 63.2617 43.8477L63.2617 38.1836C63.2617 35.4492 61.7383 33.9648 59.1211 33.9648L48.6719 33.9648C46.0547 33.9648 44.5312 35.4492 44.5312 38.1836L44.5312 43.8477C44.5312 46.582 46.0547 48.0664 48.6719 48.0664ZM49.043 45.0586C48.0273 45.0586 47.5195 44.5508 47.5195 43.4961L47.5195 38.5156C47.5195 37.4609 48.0273 36.9531 49.043 36.9531L58.7305 36.9531C59.7461 36.9531 60.2539 37.4609 60.2539 38.5156L60.2539 43.4961C60.2539 44.5508 59.7461 45.0586 58.7305 45.0586Z" fill="black" fill-opacity="0.85"/>
 </g>
</svg>
