<?xml version="1.0" encoding="UTF-8"?>
<!--Generator: Apple Native CoreSVG 326-->
<!DOCTYPE svg
PUBLIC "-//W3C//DTD SVG 1.1//EN"
       "http://www.w3.org/Graphics/SVG/1.1/DTD/svg11.dtd">
<svg version="1.1" xmlns="http://www.w3.org/2000/svg" xmlns:xlink="http://www.w3.org/1999/xlink" viewBox="0 0 52.7734 45.4492">
 <g>
  <rect height="45.4492" opacity="0" width="52.7734" x="0" y="0"/>
  <path d="M1.89453 23.4961C2.98828 23.4961 3.78906 22.6953 3.78906 21.6016L3.78906 19.2578C3.78906 14.6875 6.73828 11.875 11.543 11.875L25.293 11.875L25.293 17.832C25.293 18.75 25.8203 19.2578 26.7578 19.2578C27.1875 19.2578 27.5781 19.1211 27.9492 18.8281L37.3633 11.1523C38.1641 10.5078 38.1836 9.49219 37.3633 8.84766L27.9492 1.17188C27.5781 0.878906 27.1875 0.742188 26.7578 0.742188C25.8203 0.742188 25.293 1.25 25.293 2.14844L25.293 8.18359L11.8555 8.18359C4.6875 8.18359 0 12.2266 0 19.0234L0 21.6016C0 22.6953 0.800781 23.4961 1.89453 23.4961ZM50.4297 21.9922C49.3359 21.9922 48.5352 22.793 48.5352 23.8867L48.5352 26.2305C48.5352 30.8008 45.5859 33.6133 40.7812 33.6133L21.6992 33.6133L21.6992 27.6953C21.6992 26.7773 21.1719 26.2695 20.2344 26.2695C19.8047 26.2695 19.4141 26.4258 19.043 26.6992L9.62891 34.375C8.82812 35.0391 8.80859 36.0352 9.62891 36.6797L19.043 44.375C19.4141 44.6484 19.8047 44.8047 20.2344 44.8047C21.1719 44.8047 21.6992 44.2969 21.6992 43.3789L21.6992 37.3242L40.4688 37.3242C47.6367 37.3242 52.3242 33.2617 52.3242 26.4648L52.3242 23.8867C52.3242 22.793 51.5234 21.9922 50.4297 21.9922Z" fill="black" fill-opacity="0.85"/>
  <path d="M50.4492 16.3477C51.6602 16.3477 52.4023 15.5664 52.4023 14.3359L52.4023 2.48047C52.4023 0.976562 51.4258 0 50 0C48.8867 0 48.1641 0.371094 47.2656 1.07422L43.8086 3.63281C43.3203 4.00391 43.1836 4.35547 43.1836 4.80469C43.1836 5.46875 43.6914 5.99609 44.4922 5.99609C44.8242 5.99609 45.1172 5.89844 45.4297 5.64453L48.2031 3.51562L48.457 3.51562L48.457 14.3359C48.457 15.5664 49.2188 16.3477 50.4492 16.3477Z" fill="black" fill-opacity="0.85"/>
 </g>
</svg>
