<?xml version="1.0" encoding="UTF-8"?>
<!--Generator: Apple Native CoreSVG 326-->
<!DOCTYPE svg
PUBLIC "-//W3C//DTD SVG 1.1//EN"
       "http://www.w3.org/Graphics/SVG/1.1/DTD/svg11.dtd">
<svg version="1.1" xmlns="http://www.w3.org/2000/svg" xmlns:xlink="http://www.w3.org/1999/xlink" viewBox="0 0 51.25 50.918">
 <g>
  <rect height="50.918" opacity="0" width="51.25" x="0" y="0"/>
  <path d="M50.8789 25.4688C50.8789 39.4922 39.4531 50.918 25.4297 50.918C11.4258 50.918 0 39.4922 0 25.4688C0 11.4648 11.4258 0.0390625 25.4297 0.0390625C39.4531 0.0390625 50.8789 11.4648 50.8789 25.4688ZM29.1602 13.8281L13.8477 22.9883C11.9336 24.1602 11.9727 26.8359 13.8086 27.9688L29.1602 37.0703C30.957 38.125 33.418 37.3828 33.418 34.9023L33.418 15.9961C33.418 13.5156 30.957 12.7734 29.1602 13.8281ZM29.8438 18.1445L29.8438 32.7539C29.8438 33.0273 29.6094 33.1641 29.2773 32.9688L17.1875 25.7812C16.9141 25.625 16.9531 25.332 17.168 25.1953L29.2773 17.9492C29.6094 17.7344 29.8438 17.8711 29.8438 18.1445Z" fill="black" fill-opacity="0.85"/>
 </g>
</svg>
