<?xml version="1.0" encoding="UTF-8"?>
<!--Generator: Apple Native CoreSVG 326-->
<!DOCTYPE svg
PUBLIC "-//W3C//DTD SVG 1.1//EN"
       "http://www.w3.org/Graphics/SVG/1.1/DTD/svg11.dtd">
<svg version="1.1" xmlns="http://www.w3.org/2000/svg" xmlns:xlink="http://www.w3.org/1999/xlink" viewBox="0 0 57.0898 43.3008">
 <g>
  <rect height="43.3008" opacity="0" width="57.0898" x="0" y="0"/>
  <path d="M28.3398 24.0234C44.1797 24.0234 56.7188 19.2578 56.7188 12.0312C56.7188 4.72656 44.1797 0 28.3398 0C12.5195 0 0 4.72656 0 12.0312C0 19.2578 12.5195 24.0234 28.3398 24.0234ZM28.3398 20.6055C15.9375 20.6055 3.88672 17.2461 3.88672 12.0312C3.88672 7.24609 13.2422 3.22266 28.3398 3.22266C43.457 3.22266 52.793 7.24609 52.793 12.0312C52.793 17.2461 40.7422 20.6055 28.3398 20.6055ZM28.3398 35.6445C43.8086 35.6445 56.7188 30.918 56.7188 23.4375L56.7188 12.0703L52.793 15.7227L52.793 23.4375C52.793 28.6328 41.2109 32.2266 28.3398 32.2266C15.4883 32.2266 3.92578 28.6328 3.92578 23.4375L3.92578 15.7227L0 12.0703L0 23.4375C0 30.918 12.8906 35.6445 28.3398 35.6445ZM19.9414 17.6758C21.3086 17.6758 22.4609 17.1289 22.4609 16.4258C22.4609 15.7422 21.3086 15.1953 19.9414 15.1953C18.5547 15.1953 17.4219 15.7422 17.4219 16.4258C17.4219 17.1289 18.5547 17.6758 19.9414 17.6758ZM28.3398 18.6523C29.7266 18.6523 30.8789 18.0859 30.8789 17.4023C30.8789 16.7188 29.7266 16.1523 28.3398 16.1523C26.9727 16.1523 25.8398 16.7188 25.8398 17.4023C25.8398 18.0859 26.9727 18.6523 28.3398 18.6523ZM36.7578 17.6758C38.1445 17.6758 39.2969 17.1289 39.2969 16.4258C39.2969 15.7422 38.1445 15.1953 36.7578 15.1953C35.3906 15.1953 34.2383 15.7422 34.2383 16.4258C34.2383 17.1289 35.3906 17.6758 36.7578 17.6758ZM28.3398 12.3633C33.0664 12.3633 35.8789 11.1328 35.8789 9.23828C35.8789 7.40234 33.1055 6.09375 28.3398 6.09375C23.5742 6.09375 20.8398 7.40234 20.8398 9.23828C20.8398 11.1328 23.6328 12.3633 28.3398 12.3633ZM28.3398 10.5859C25.2734 10.5859 23.418 10 23.418 9.23828C23.418 8.51562 25.0781 7.87109 28.3398 7.87109C31.6016 7.87109 33.2617 8.51562 33.2617 9.23828C33.2617 10 31.3867 10.5859 28.3398 10.5859ZM15.5273 42.9297L28.8672 35.3906C29.5117 35.0391 29.7656 34.1797 29.3945 33.5352C28.9844 32.8711 28.1641 32.6562 27.5 33.0078L14.1211 40.5273C13.4766 40.8789 13.2422 41.7383 13.6133 42.3828C13.9844 43.0664 14.8242 43.3203 15.5273 42.9297ZM41.1914 42.9297C41.875 43.3203 42.7148 43.0664 43.0859 42.3828C43.457 41.7383 43.2031 40.8789 42.5586 40.5273L29.1992 33.0078C28.5156 32.6562 27.6953 32.8711 27.2852 33.5352C26.9336 34.1797 27.1875 35.0391 27.832 35.3906Z" fill="black" fill-opacity="0.85"/>
 </g>
</svg>
