<?xml version="1.0" encoding="UTF-8"?>
<!--Generator: Apple Native CoreSVG 326-->
<!DOCTYPE svg
PUBLIC "-//W3C//DTD SVG 1.1//EN"
       "http://www.w3.org/Graphics/SVG/1.1/DTD/svg11.dtd">
<svg version="1.1" xmlns="http://www.w3.org/2000/svg" xmlns:xlink="http://www.w3.org/1999/xlink" viewBox="0 0 62.5 62.2188">
 <g>
  <rect height="62.2188" opacity="0" width="62.5" x="0" y="0"/>
  <path d="M1.38672 22.2129C2.12891 22.2129 2.75391 21.5879 2.75391 20.8262L2.75391 17.0371C2.75391 11.5489 6.38672 7.5059 12.3242 7.5059L12.7734 7.5059L12.7734 10.8848C12.7734 12.4864 14.1016 12.8965 15.3711 11.959L21.6992 7.42777C22.7344 6.66605 22.7148 5.82621 21.6992 5.06449L15.3711 0.494177C14.1016-0.443323 12.7734-0.0331666 12.7734 1.60746L12.7734 4.92777L12.3047 4.92777C4.88281 4.92777 0 9.81058 0 17.0176L0 20.8262C0 21.5879 0.644531 22.2129 1.38672 22.2129Z" fill="black" fill-opacity="0.85"/>
  <path d="M43.6328 54.0684C47.6953 54.0684 49.7461 52.0957 49.7461 47.9746L49.7461 22.9161C49.7461 18.7754 47.6953 16.8223 43.6328 16.8223L18.4961 16.8223C14.4336 16.8223 12.3828 18.7754 12.3828 22.9161L12.3828 47.9746C12.3828 52.0957 14.4336 54.0684 18.4961 54.0684ZM43.5547 50.6114L18.5742 50.6114C16.6992 50.6114 15.8594 49.8106 15.8594 47.8965L15.8594 22.9942C15.8594 21.0801 16.6992 20.2793 18.5742 20.2793L43.5547 20.2793C45.4297 20.2793 46.2891 21.0801 46.2891 22.9942L46.2891 47.8965C46.2891 49.8106 45.4297 50.6114 43.5547 50.6114Z" fill="black" fill-opacity="0.85"/>
 </g>
</svg>
