<?xml version="1.0" encoding="UTF-8"?>
<!--Generator: Apple Native CoreSVG 326-->
<!DOCTYPE svg
PUBLIC "-//W3C//DTD SVG 1.1//EN"
       "http://www.w3.org/Graphics/SVG/1.1/DTD/svg11.dtd">
<svg version="1.1" xmlns="http://www.w3.org/2000/svg" xmlns:xlink="http://www.w3.org/1999/xlink" viewBox="0 0 51.25 50.918">
 <g>
  <rect height="50.918" opacity="0" width="51.25" x="0" y="0"/>
  <path d="M25.4297 50.8789C39.4727 50.8789 50.8789 39.4922 50.8789 25.4492C50.8789 11.4062 39.4727 0 25.4297 0C11.3867 0 0 11.4062 0 25.4492C0 39.4922 11.3867 50.8789 25.4297 50.8789ZM25.4297 47.2461C13.3789 47.2461 3.63281 37.5 3.63281 25.4492C3.63281 13.3984 13.3789 3.65234 25.4297 3.65234C37.4805 3.65234 47.2266 13.3984 47.2266 25.4492C47.2266 37.5 37.4805 47.2461 25.4297 47.2461Z" fill="black" fill-opacity="0.85"/>
  <path d="M20.1172 28.6133C20.0586 27.5977 20.0195 26.543 20.0195 25.4492C20.0195 19.0039 21.0547 13.8281 22.6367 11.0938C15.957 12.4219 10.8203 18.3789 10.8203 25.4102C10.8203 26.9141 14.3945 28.125 20.1172 28.6133ZM22.1484 28.7305C23.1836 28.7695 24.2969 28.8086 25.4297 28.8086C34.1211 28.8086 40.0195 27.3047 40.0586 25.4297C40.0586 17.4414 33.418 10.8203 25.4297 10.8203C23.5352 10.8594 22.0703 16.7578 22.0703 25.4492C22.0703 26.582 22.0898 27.6758 22.1484 28.7305ZM20.2539 30.6055C16.2109 30.2148 13.0273 29.3555 11.0742 28.2227C12.2266 34.0234 16.8555 38.6523 22.6367 39.7852C21.5039 37.8516 20.6445 34.6289 20.2539 30.6055ZM22.2656 30.7422C22.7148 36.4648 23.9453 40.0586 25.4297 40.0586C32.5 40.0391 38.457 34.9023 39.7852 28.2227C37.0508 29.8047 31.8555 30.8398 25.4297 30.8398C24.3164 30.8398 23.2617 30.8008 22.2656 30.7422Z" fill="black" fill-opacity="0.85"/>
 </g>
</svg>
