<?xml version="1.0" encoding="UTF-8"?>
<!--Generator: Apple Native CoreSVG 326-->
<!DOCTYPE svg
PUBLIC "-//W3C//DTD SVG 1.1//EN"
       "http://www.w3.org/Graphics/SVG/1.1/DTD/svg11.dtd">
<svg version="1.1" xmlns="http://www.w3.org/2000/svg" xmlns:xlink="http://www.w3.org/1999/xlink" viewBox="0 0 60.961 50.918">
 <g>
  <rect height="50.918" opacity="0" width="60.961" x="0" y="0"/>
  <path d="M30.295 50.8789C44.3379 50.8789 55.7246 39.4922 55.7246 25.4492C55.7246 11.4062 44.3379 0 30.295 0C16.252 0 4.86526 11.4062 4.86526 25.4492L8.49808 25.4492C8.49808 13.3984 18.2442 3.65234 30.295 3.65234C42.3457 3.65234 52.0918 13.3984 52.0918 25.4492C52.0918 37.5 42.3457 47.2461 30.295 47.2461C22.834 47.2461 16.1739 43.457 12.3653 37.7539C11.7207 36.875 10.7051 36.6016 9.80667 37.1484C8.94729 37.6562 8.69339 38.8477 9.39651 39.8047C13.9473 46.5039 21.6426 50.8789 30.295 50.8789ZM1.60354 20.7227C0.00198146 20.7227-0.447237 21.8164 0.470731 23.0859L6.01761 30.9766C6.75979 32.0508 7.83401 32.0312 8.55667 30.9766L14.1035 23.0664C14.9825 21.8164 14.5528 20.7227 12.9707 20.7227Z" fill="black" fill-opacity="0.85"/>
  <path d="M25.9785 36.8359C26.7989 36.8359 27.2871 36.3086 27.2871 35.5078L27.2871 32.793L33.4004 32.793C33.8301 32.793 34.1231 32.5 34.1231 32.0117C34.1231 31.5625 33.8301 31.2695 33.4004 31.2695L27.2871 31.2695L27.2871 27.9492L31.8965 27.9492C36.4668 27.9492 39.1035 24.9805 39.1035 21.1523C39.1035 17.1875 36.3692 14.2969 31.9551 14.2969L26.0176 14.2969C25.2364 14.2969 24.709 14.8633 24.709 15.6641L24.709 26.4062L22.0723 26.4062C21.584 26.4062 21.291 26.7188 21.291 27.1875C21.291 27.6562 21.584 27.9492 22.0723 27.9492L24.709 27.9492L24.709 31.2695L22.0723 31.2695C21.584 31.2695 21.291 31.5625 21.291 32.0117C21.291 32.5 21.584 32.793 22.0723 32.793L24.709 32.793L24.709 35.5078C24.709 36.3086 25.1973 36.8359 25.9785 36.8359ZM27.2871 25.7812L27.2871 16.543L31.2715 16.543C34.8457 16.543 36.4278 18.4961 36.4278 21.1523C36.4278 24.1016 34.4942 25.7812 31.2715 25.7812Z" fill="black" fill-opacity="0.85"/>
 </g>
</svg>
