<?xml version="1.0" encoding="UTF-8"?>
<!--Generator: Apple Native CoreSVG 326-->
<!DOCTYPE svg
PUBLIC "-//W3C//DTD SVG 1.1//EN"
       "http://www.w3.org/Graphics/SVG/1.1/DTD/svg11.dtd">
<svg version="1.1" xmlns="http://www.w3.org/2000/svg" xmlns:xlink="http://www.w3.org/1999/xlink" viewBox="0 0 51.25 50.918">
 <g>
  <rect height="50.918" opacity="0" width="51.25" x="0" y="0"/>
  <path d="M25.4297 50.8789C39.4727 50.8789 50.8789 39.4922 50.8789 25.4492C50.8789 11.4062 39.4727 0 25.4297 0C11.3867 0 0 11.4062 0 25.4492C0 39.4922 11.3867 50.8789 25.4297 50.8789ZM25.4297 47.2461C13.3789 47.2461 3.63281 37.5 3.63281 25.4492C3.63281 13.3984 13.3789 3.65234 25.4297 3.65234C37.4805 3.65234 47.2266 13.3984 47.2266 25.4492C47.2266 37.5 37.4805 47.2461 25.4297 47.2461Z" fill="black" fill-opacity="0.85"/>
  <path d="M25.1758 37.1875C30.6836 37.1875 34.2578 34.4922 34.2578 30.2734C34.2578 27.0703 32.0312 25.3125 27.5781 24.1211L24.1992 23.2031C21.6211 22.5 20.5469 21.543 20.5469 19.9219C20.5469 17.6953 22.5195 16.1523 25.332 16.1523C28.0078 16.1523 29.8047 17.3047 30.5664 19.4922C30.8789 20.2539 31.3281 20.6445 32.1875 20.6445C33.0859 20.6445 33.7305 20.1562 33.7305 19.1406C33.7305 18.8281 33.6523 18.457 33.5156 18.0273C32.6367 15.3125 29.6484 13.3594 25.4688 13.3594C20.4688 13.3594 16.9727 16.1523 16.9727 20.0781C16.9727 23.1641 18.9453 24.9219 22.793 25.9766L26.4062 26.9727C29.5703 27.8516 30.7031 28.6914 30.7031 30.5664C30.7031 32.8711 28.3594 34.3359 25.4297 34.3359C22.5977 34.3359 20.5469 33.125 19.7852 30.957C19.4141 30.1562 18.9453 29.7656 18.1445 29.7656C17.1875 29.7656 16.582 30.3516 16.582 31.3281C16.582 31.6797 16.6602 32.0508 16.8164 32.4609C17.6562 35 20.7422 37.1875 25.1758 37.1875Z" fill="black" fill-opacity="0.85"/>
 </g>
</svg>
