<?xml version="1.0" encoding="UTF-8"?>
<!--Generator: Apple Native CoreSVG 326-->
<!DOCTYPE svg
PUBLIC "-//W3C//DTD SVG 1.1//EN"
       "http://www.w3.org/Graphics/SVG/1.1/DTD/svg11.dtd">
<svg version="1.1" xmlns="http://www.w3.org/2000/svg" xmlns:xlink="http://www.w3.org/1999/xlink" viewBox="0 0 60.2734 43.1055">
 <g>
  <rect height="43.1055" opacity="0" width="60.2734" x="0" y="0"/>
  <path d="M52.8516 27.6562C53.418 28.3398 54.4727 28.3594 55.1758 27.5781C58.2227 24.1406 59.9023 19.707 59.9023 14.8438C59.9023 9.96094 58.2227 5.54688 55.1758 2.10938C54.4922 1.34766 53.4961 1.34766 52.9297 1.95312C52.2852 2.61719 52.3828 3.49609 53.0664 4.27734C55.6055 7.16797 56.9141 10.8398 56.9141 14.8438C56.9141 18.8477 55.6055 22.5195 53.0664 25.3906C52.4023 26.1719 52.2852 26.9922 52.8516 27.6562Z" fill="black" fill-opacity="0.85"/>
  <path d="M47.1484 22.3438C47.7344 23.0078 48.8281 23.0273 49.4922 22.1484C51.0547 20.1172 51.9922 17.5781 51.9922 14.8438C51.9922 12.0898 51.0547 9.57031 49.4922 7.51953C48.8477 6.66016 47.7734 6.67969 47.1875 7.30469C46.5625 7.94922 46.7383 8.76953 47.3047 9.55078C48.457 11.1914 49.0039 12.9492 49.0039 14.8438C49.0039 16.7383 48.457 18.4961 47.3047 20.1172C46.7578 20.8789 46.543 21.6992 47.1484 22.3438Z" fill="black" fill-opacity="0.85"/>
  <path d="M7.59766 43.0859L34.5508 43.0859C39.6094 43.0859 42.1484 40.5273 42.1484 35.5664L42.1484 7.51953C42.1484 2.53906 39.6094 0 34.5508 0L7.59766 0C2.55859 0 0 2.51953 0 7.51953L0 35.5664C0 40.5469 2.55859 43.0859 7.59766 43.0859ZM20.3125 22.3242C19.5312 22.3242 18.9258 21.7188 18.9258 20.9375L18.9258 8.80859C18.9258 8.00781 19.5312 7.40234 20.3125 7.40234C21.0938 7.40234 21.6992 8.00781 21.6992 8.80859L21.6992 20.9375C21.6992 21.7188 21.0938 22.3242 20.3125 22.3242ZM26.6211 22.3242C25.8398 22.3242 25.2344 21.7188 25.2344 20.9375L25.2344 8.80859C25.2344 8.00781 25.8398 7.40234 26.6211 7.40234C27.3828 7.40234 27.9883 8.00781 27.9883 8.80859L27.9883 20.9375C27.9883 21.7188 27.3828 22.3242 26.6211 22.3242ZM32.9102 22.3242C32.1289 22.3242 31.5234 21.7188 31.5234 20.9375L31.5234 8.80859C31.5234 8.00781 32.1289 7.40234 32.9102 7.40234C33.6914 7.40234 34.2969 8.00781 34.2969 8.80859L34.2969 20.9375C34.2969 21.7188 33.6914 22.3242 32.9102 22.3242Z" fill="black" fill-opacity="0.85"/>
 </g>
</svg>
