<?xml version="1.0" encoding="UTF-8"?>
<!--Generator: Apple Native CoreSVG 326-->
<!DOCTYPE svg
PUBLIC "-//W3C//DTD SVG 1.1//EN"
       "http://www.w3.org/Graphics/SVG/1.1/DTD/svg11.dtd">
<svg version="1.1" xmlns="http://www.w3.org/2000/svg" xmlns:xlink="http://www.w3.org/1999/xlink" viewBox="0 0 74.4336 43.5742">
 <g>
  <rect height="43.5742" opacity="0" width="74.4336" x="0" y="0"/>
  <path d="M74.0625 39.8438C74.0625 40.8203 73.2617 41.582 72.3047 41.582C71.3477 41.582 70.5859 40.8203 70.5859 39.8438C70.5859 19.8242 55.5078 3.49609 37.0117 3.49609C18.5156 3.49609 3.45703 19.8242 3.45703 39.8438C3.45703 40.8203 2.69531 41.582 1.73828 41.582C0.78125 41.582 0 40.8203 0 39.8438C0 17.9297 16.6211 0 37.0117 0C57.4219 0 74.0625 17.9297 74.0625 39.8438Z" fill="black" fill-opacity="0.425"/>
  <path d="M26.25 16.4453C26.25 17.4988 26.3812 18.517 26.6385 19.4781C19.5725 23.3848 15.0977 31.2129 15.0977 39.8633C15.0977 40.8203 14.2773 41.582 13.3398 41.582C12.3828 41.582 11.6016 40.8203 11.6016 39.8633C11.6016 29.4796 17.4201 20.0516 26.2821 15.783ZM62.4805 39.8633C62.4805 40.8203 61.6992 41.582 60.7422 41.582C59.8047 41.582 58.9844 40.8203 58.9844 39.8633C58.9844 31.2224 54.5194 23.402 47.4338 19.4903C47.6971 18.5143 47.832 17.4788 47.832 16.4062C47.832 16.2027 47.827 16.0005 47.8028 15.8043C56.6803 20.0814 62.4805 29.496 62.4805 39.8633Z" fill="black" fill-opacity="0.425"/>
  <path d="M37.0508 24.8633C41.1914 24.8633 44.7266 21.1914 44.7266 16.4062C44.7266 11.7383 41.1523 8.14453 37.0508 8.14453C32.9102 8.14453 29.375 11.7969 29.375 16.4453C29.375 21.1914 32.8906 24.8633 37.0508 24.8633ZM24.2969 42.2266L49.7461 42.2266C51.7578 42.2266 53.0078 41.2305 53.0078 39.6289C53.0078 34.668 46.8555 27.8906 37.0312 27.8906C27.1875 27.8906 21.0352 34.668 21.0352 39.6289C21.0352 41.2305 22.2852 42.2266 24.2969 42.2266Z" fill="black" fill-opacity="0.85"/>
 </g>
</svg>
