<?xml version="1.0" encoding="UTF-8"?>
<!--Generator: Apple Native CoreSVG 326-->
<!DOCTYPE svg
PUBLIC "-//W3C//DTD SVG 1.1//EN"
       "http://www.w3.org/Graphics/SVG/1.1/DTD/svg11.dtd">
<svg version="1.1" xmlns="http://www.w3.org/2000/svg" xmlns:xlink="http://www.w3.org/1999/xlink" viewBox="0 0 46.2891 45.918">
 <g>
  <rect height="45.918" opacity="0" width="46.2891" x="0" y="0"/>
  <path d="M7.59766 45.918L38.3008 45.918C43.3594 45.918 45.918 43.3594 45.918 38.3984L45.918 7.53906C45.918 2.55859 43.3594 0 38.3008 0L7.59766 0C2.55859 0 0 2.53906 0 7.53906L0 38.3984C0 43.3984 2.55859 45.918 7.59766 45.918ZM7.67578 42.4609C4.94141 42.4609 3.45703 41.0156 3.45703 38.2031L3.45703 7.71484C3.45703 4.92188 4.94141 3.45703 7.67578 3.45703L38.2422 3.45703C40.918 3.45703 42.4609 4.92188 42.4609 7.71484L42.4609 38.2031C42.4609 41.0156 40.918 42.4609 38.2422 42.4609Z" fill="black" fill-opacity="0.85"/>
  <path d="M13.7891 34.0625C14.4336 34.0625 14.8633 33.6328 14.8633 32.9102L14.8633 14.4922L20.6445 14.4922C23.5742 14.4922 24.9414 15.3125 24.9414 18.6133L24.9414 26.3867C24.9414 27.1094 25.3516 27.5781 26.0547 27.5781C26.7188 27.5781 27.1484 27.1094 27.1484 26.3867L27.1484 18.1445C27.1484 14.1602 25.4883 12.0703 21.3867 12.0703L14.3164 12.0703C13.2812 12.0703 12.6562 12.6953 12.6562 13.7305L12.6562 32.9102C12.6562 33.6328 13.0859 34.0625 13.7891 34.0625ZM20.3906 33.8672L27.6367 33.8672C31.8945 33.8672 33.3008 31.6016 33.3008 27.3633L33.3008 13.0469C33.3008 12.3047 32.8711 11.8359 32.1875 11.8359C31.5039 11.8359 31.0547 12.3047 31.0547 13.0469L31.0547 27.2656C31.0547 30.5469 30.293 31.4258 27.0117 31.4258L20.9961 31.4258L20.9961 19.4922C20.9961 18.7695 20.5859 18.3398 19.9023 18.3398C19.2383 18.3398 18.7891 18.7695 18.7891 19.4922L18.7891 32.2656C18.7891 33.2812 19.4531 33.8672 20.3906 33.8672Z" fill="black" fill-opacity="0.85"/>
 </g>
</svg>
