<?xml version="1.0" encoding="UTF-8"?>
<!--Generator: Apple Native CoreSVG 326-->
<!DOCTYPE svg
PUBLIC "-//W3C//DTD SVG 1.1//EN"
       "http://www.w3.org/Graphics/SVG/1.1/DTD/svg11.dtd">
<svg version="1.1" xmlns="http://www.w3.org/2000/svg" xmlns:xlink="http://www.w3.org/1999/xlink" viewBox="0 0 56.7773 44.707">
 <g>
  <rect height="44.707" opacity="0" width="56.7773" x="0" y="0"/>
  <path d="M0 35.0977C0 36.2109 0.820312 36.9531 2.03125 36.9531L7.73438 36.9531C11.7773 36.9531 14.1016 35.8203 17.0508 32.3828L31.9727 14.9023C34.1992 12.3047 36.0156 11.3477 38.7695 11.3477L43.7305 11.3477L43.7305 17.1484C43.7305 18.0469 44.2578 18.5547 45.1953 18.5547C45.625 18.5547 46.0156 18.418 46.3867 18.125L55.8008 10.4492C56.6016 9.82422 56.6016 8.80859 55.8008 8.14453L46.3867 0.46875C46.0156 0.175781 45.625 0.0390625 45.1953 0.0390625C44.2578 0.0390625 43.7305 0.546875 43.7305 1.44531L43.7305 7.63672L38.7109 7.63672C34.6484 7.63672 32.3047 8.78906 29.375 12.2266L14.4727 29.6875C12.2461 32.3047 10.4688 33.2422 7.87109 33.2422L2.03125 33.2422C0.839844 33.2422 0 34.0234 0 35.0977ZM0 9.51172C0 10.6055 0.839844 11.3672 2.03125 11.3672L7.87109 11.3672C10.4883 11.3672 12.2656 12.3242 14.4727 14.9219L29.375 32.3828C32.3047 35.8203 34.6484 36.9727 38.7109 36.9727L43.7305 36.9727L43.7305 43.3008C43.7305 44.1992 44.2578 44.707 45.1953 44.707C45.625 44.707 46.0156 44.5703 46.3867 44.2773L55.8008 36.6016C56.6016 35.9766 56.6016 34.9805 55.8008 34.2969L46.3867 26.6211C46.0156 26.3281 45.625 26.1914 45.1953 26.1914C44.2578 26.1914 43.7305 26.6992 43.7305 27.5977L43.7305 33.2617L38.7695 33.2617C36.0156 33.2617 34.1992 32.3047 31.9727 29.707L17.0508 12.2461C14.1016 8.80859 11.7773 7.65625 7.73438 7.65625L2.03125 7.65625C0.820312 7.65625 0 8.39844 0 9.51172Z" fill="black" fill-opacity="0.85"/>
 </g>
</svg>
