<?xml version="1.0" encoding="UTF-8"?>
<!--Generator: Apple Native CoreSVG 326-->
<!DOCTYPE svg
PUBLIC "-//W3C//DTD SVG 1.1//EN"
       "http://www.w3.org/Graphics/SVG/1.1/DTD/svg11.dtd">
<svg version="1.1" xmlns="http://www.w3.org/2000/svg" xmlns:xlink="http://www.w3.org/1999/xlink" viewBox="0 0 44.2578 52.168">
 <g>
  <rect height="52.168" opacity="0" width="44.2578" x="0" y="0"/>
  <path d="M20.2148 8.65234L23.6719 8.65234L23.6719 1.73828C23.6719 0.78125 22.8906 0 21.9336 0C20.9961 0 20.2148 0.78125 20.2148 1.73828ZM0 25.9766C0 29.1406 1.81641 30.9375 5.03906 30.9375L38.8477 30.9375C42.0703 30.9375 43.8867 29.1406 43.8867 25.9766L43.8867 11.1719C43.8867 8.00781 42.0703 6.23047 38.8477 6.23047L5.03906 6.23047C1.81641 6.23047 0 8.00781 0 11.1719ZM5.11719 9.6875L38.75 9.6875C39.7461 9.6875 40.3516 10.293 40.3516 11.2695L40.3516 25.8789C40.3516 26.8555 39.7461 27.4609 38.75 27.4609L5.11719 27.4609C4.14062 27.4609 3.53516 26.8555 3.53516 25.8789L3.53516 11.2695C3.53516 10.293 4.14062 9.6875 5.11719 9.6875ZM20.2148 29.668L20.2148 51.875L23.6719 51.875L23.6719 29.668ZM10.7227 50.4102C10.7227 51.3477 11.5234 52.1289 12.4609 52.1289L31.4453 52.1289C32.4023 52.1289 33.1641 51.3477 33.1641 50.4102C33.1641 49.4531 32.4023 48.6719 31.4453 48.6719L12.4609 48.6719C11.5234 48.6719 10.7227 49.4531 10.7227 50.4102Z" fill="black" fill-opacity="0.85"/>
  <path d="M16.0547 23.8477L27.8516 23.8477C29.4336 23.8477 29.9219 22.7344 29.0234 21.4453L23.2617 13.2422C22.5 12.168 21.4062 12.168 20.6641 13.2422L14.9219 21.4258C13.9844 22.7539 14.4141 23.8477 16.0547 23.8477Z" fill="black" fill-opacity="0.85"/>
 </g>
</svg>
