<?xml version="1.0" encoding="UTF-8"?>
<!--Generator: Apple Native CoreSVG 326-->
<!DOCTYPE svg
PUBLIC "-//W3C//DTD SVG 1.1//EN"
       "http://www.w3.org/Graphics/SVG/1.1/DTD/svg11.dtd">
<svg version="1.1" xmlns="http://www.w3.org/2000/svg" xmlns:xlink="http://www.w3.org/1999/xlink" viewBox="0 0 66.5625 50.0586">
 <g>
  <rect height="50.0586" opacity="0" width="66.5625" x="0" y="0"/>
  <path d="M32.3828 8.39844C33.5352 8.00781 34.5117 7.83203 35.6641 7.83203C39.2231 7.83203 42.3038 9.73483 43.9445 12.6499C43.8494 12.6377 43.751 12.6367 43.6523 12.6367C39.2383 12.6367 35.3125 14.4922 32.5977 17.5586C31.8945 17.4414 31.2305 17.3633 30.5273 17.3633C24.9609 17.3633 20.293 20.8984 18.5742 25.957C14.43 26.8796 11.0982 29.8773 9.69047 33.7319C5.4376 32.406 2.73438 28.7153 2.73438 24.2383C2.73438 19.2969 6.26953 15.1953 11.0352 14.2969C11.3281 8.14453 16.2695 3.10547 22.5391 3.10547C26.6797 3.10547 30.2148 5.11719 32.3828 8.39844Z" fill="black" fill-opacity="0.85"/>
  <path d="M21.4648 46.9336L52.9102 46.9336C59.1602 46.9336 63.457 42.5391 63.457 36.875C63.457 31.9531 59.9219 27.8516 55.1758 26.9531C54.8633 20.8008 49.9219 15.7617 43.6523 15.7617C39.5117 15.7617 35.9766 17.7734 33.8086 21.0352C32.6562 20.6641 31.6797 20.4883 30.5273 20.4883C25.7031 20.4883 21.7578 23.9844 21.0742 28.75C16.0352 28.8867 12.0703 32.9688 12.0703 37.832C12.0703 42.9688 15.8594 46.9336 21.4648 46.9336Z" fill="black" fill-opacity="0.85"/>
 </g>
</svg>
