<?xml version="1.0" encoding="UTF-8"?>
<!--Generator: Apple Native CoreSVG 326-->
<!DOCTYPE svg
PUBLIC "-//W3C//DTD SVG 1.1//EN"
       "http://www.w3.org/Graphics/SVG/1.1/DTD/svg11.dtd">
<svg version="1.1" xmlns="http://www.w3.org/2000/svg" xmlns:xlink="http://www.w3.org/1999/xlink" viewBox="0 0 71.6953 37.2461">
 <g>
  <rect height="37.2461" opacity="0" width="71.6953" x="0" y="0"/>
  <path d="M16.3066 6.23047L17.9277 6.23047C18.8847 6.23047 19.2754 5.85938 19.6074 5.03906L21.0918 1.34766C21.3847 0.625 21.0527 0.0390625 20.3105 0.0390625L18.8457 0.0390625C18.123 0.0390625 17.6543 0.371094 17.3222 1.01562L15.4082 4.78516C15.0566 5.44922 15.4082 6.23047 16.3066 6.23047ZM9.62694 19.8828L12.1855 19.8828C13.1621 19.8828 13.7285 19.5508 14.0996 18.6328L16.2285 13.3984C16.5215 12.6562 16.0527 11.9141 15.2324 11.9141L12.9472 11.9141C12.2441 11.9141 11.6387 12.2656 11.2871 12.9492L8.61131 18.2031C8.20115 19.0234 8.70897 19.8828 9.62694 19.8828ZM1.75584 37.2461L4.86131 37.2461C6.1699 37.2461 6.81444 36.6211 7.20506 35.6445L10.4668 27.5977C10.8769 26.6406 10.2519 25.7031 9.21678 25.7031L6.58006 25.7031C5.2324 25.7031 4.54881 26.2305 4.08006 27.1484L0.251935 34.8242C-0.334002 35.957 0.0761538 37.2461 1.75584 37.2461ZM53.416 6.23047L55.0176 6.23047C55.916 6.23047 56.2676 5.44922 55.916 4.78516L54.0019 1.01562C53.6699 0.371094 53.2207 0.0390625 52.4785 0.0390625L51.0137 0.0390625C50.2715 0.0390625 49.9394 0.625 50.2324 1.34766L51.7168 5.03906C52.0488 5.85938 52.4394 6.23047 53.416 6.23047ZM59.1582 19.8828L61.6972 19.8828C62.6347 19.8828 63.1426 19.0234 62.7129 18.2031L60.0566 12.9492C59.7051 12.2656 59.0996 11.9141 58.3769 11.9141L56.0918 11.9141C55.2715 11.9141 54.8027 12.6562 55.0957 13.3984L57.2246 18.6328C57.5957 19.5508 58.1621 19.8828 59.1582 19.8828ZM66.4824 37.2461L69.5879 37.2461C71.248 37.2461 71.6582 35.957 71.0918 34.8242L67.2637 27.1484C66.7949 26.2305 66.0918 25.7031 64.7441 25.7031L62.1269 25.7031C61.0722 25.7031 60.4668 26.6406 60.8574 27.5977L64.1191 35.6445C64.5097 36.6211 65.1738 37.2461 66.4824 37.2461Z" fill="black" fill-opacity="0.85"/>
  <path d="M35.6621 35.625C36.3847 35.625 36.8926 35.0977 36.8926 34.3359L36.8926 31.1719L39.3535 32.5781C40.0371 32.9688 40.7207 32.8125 41.0527 32.207C41.3847 31.6602 41.1699 30.957 40.5449 30.5859L36.873 28.5156L36.873 26.4648L36.6387 21.6602L40.8183 24.2578L42.5176 25.2539L42.498 29.4727C42.498 30.1953 42.9472 30.7422 43.6113 30.7422C44.334 30.7422 44.7832 30.2539 44.7832 29.4727L44.8027 26.543L47.5566 28.1641C48.1816 28.5352 48.8652 28.3789 49.2558 27.7734C49.6074 27.1094 49.4121 26.4258 48.7676 26.0547L46.0332 24.4727L48.4941 23.0273C49.1387 22.6172 49.3926 21.9922 49.0605 21.4062C48.6894 20.8203 47.9668 20.6836 47.3418 21.0352L43.7285 23.1445L41.9512 22.0898L37.5957 19.9023L41.9512 17.6953L43.7285 16.6406L47.3418 18.75C47.9668 19.1016 48.709 18.9844 49.0605 18.3984C49.3926 17.793 49.1387 17.168 48.4941 16.7578L46.0332 15.3125L48.7676 13.75C49.4121 13.3789 49.6074 12.6953 49.2558 12.0117C48.9043 11.4062 48.1816 11.25 47.5566 11.6211L44.8027 13.2227L44.7832 10.3125C44.7832 9.57031 44.334 9.04297 43.6308 9.04297C42.9472 9.04297 42.498 9.58984 42.498 10.3125L42.5176 14.5312L40.7988 15.5273L36.6387 18.125L36.873 13.3398L36.873 11.2695L40.5449 9.19922C41.1699 8.82812 41.3847 8.125 41.0527 7.57812C40.7207 6.97266 40.0371 6.81641 39.3535 7.20703L36.8926 8.61328L36.8926 5.44922C36.8926 4.6875 36.3847 4.16016 35.6621 4.16016C34.959 4.16016 34.4707 4.70703 34.4707 5.44922L34.4707 8.65234L31.9316 7.20703C31.2676 6.83594 30.623 6.95312 30.2715 7.57812C29.9394 8.14453 30.1738 8.82812 30.7988 9.19922L34.4707 11.2695L34.4707 13.3398L34.7051 18.125L30.6035 15.5664L28.8262 14.5312L28.8457 10.3125C28.8457 9.58984 28.3574 9.04297 27.6933 9.04297C26.9902 9.04297 26.5605 9.55078 26.5605 10.3125L26.541 13.2031L23.7871 11.6211C23.123 11.2305 22.4199 11.4258 22.0683 12.0117C21.6972 12.6758 21.9121 13.3789 22.5566 13.75L25.3105 15.3125L22.8301 16.7578C22.166 17.1484 21.9512 17.7734 22.2832 18.418C22.6152 18.9844 23.3574 19.1211 24.0019 18.75L27.5957 16.6602L29.373 17.6953L33.7285 19.9023L29.373 22.0898L27.5957 23.1445L24.0019 21.0352C23.3574 20.6641 22.6152 20.8008 22.3027 21.3672C21.9707 21.9922 22.1465 22.6367 22.8301 23.0273L25.3105 24.4727L22.5566 26.0547C21.9121 26.4258 21.7168 27.1094 22.0683 27.7734C22.4394 28.3789 23.123 28.5547 23.7871 28.1641L26.541 26.582L26.5605 29.4727C26.5605 30.2344 26.9902 30.7422 27.6933 30.7422C28.3574 30.7422 28.8457 30.1953 28.8457 29.4727L28.8262 25.2539L30.6035 24.2188L34.7051 21.6602L34.4707 26.4648L34.4707 28.5156L30.7988 30.6055C30.1738 30.9766 29.9394 31.6406 30.2715 32.207C30.623 32.832 31.2676 32.9492 31.9316 32.5781L34.4707 31.1523L34.4707 34.3359C34.4707 35.0781 34.959 35.625 35.6621 35.625Z" fill="black" fill-opacity="0.85"/>
 </g>
</svg>
