<?xml version="1.0" encoding="UTF-8"?>
<!--Generator: Apple Native CoreSVG 326-->
<!DOCTYPE svg
PUBLIC "-//W3C//DTD SVG 1.1//EN"
       "http://www.w3.org/Graphics/SVG/1.1/DTD/svg11.dtd">
<svg version="1.1" xmlns="http://www.w3.org/2000/svg" xmlns:xlink="http://www.w3.org/1999/xlink" viewBox="0 0 59.8685 59.6093">
 <g>
  <rect height="59.6093" opacity="0" width="59.8685" x="0" y="0"/>
  <path d="M3.85026 55.6347C9.16276 60.9082 15.7643 60.7715 21.2917 55.2441C23.8112 52.7246 28.7917 45.3222 37.0534 37.041C45.3151 28.7793 52.737 23.8183 55.2565 21.2988C60.7643 15.7519 60.9206 9.15036 55.6471 3.85739C50.3346-1.41604 43.7526-1.27932 38.2057 4.24802C35.6862 6.76755 30.7253 14.1894 22.444 22.4511C14.1823 30.7129 6.77994 35.6738 4.24088 38.1933C-1.26693 43.7402-1.42318 50.3418 3.85026 55.6347ZM30.6862 25.4199C29.7096 24.4629 29.6706 22.9394 30.6471 21.9824C31.5846 21.0254 33.1276 21.0254 34.1042 21.9824L37.5026 25.4004C38.4596 26.3769 38.4792 27.8808 37.5221 28.8183C36.5456 29.7949 35.0417 29.8144 34.0846 28.8183ZM21.9557 34.1504C20.9987 33.1933 20.9596 31.6504 21.9362 30.6933C22.8932 29.7363 24.3971 29.7558 25.3542 30.7324L28.7721 34.1504C29.7487 35.1074 29.7682 36.5918 28.7917 37.5683C27.8542 38.5254 26.3112 38.5254 25.3542 37.5488Z" fill="black" fill-opacity="0.85"/>
 </g>
</svg>
