<?xml version="1.0" encoding="UTF-8"?>
<!--Generator: Apple Native CoreSVG 326-->
<!DOCTYPE svg
PUBLIC "-//W3C//DTD SVG 1.1//EN"
       "http://www.w3.org/Graphics/SVG/1.1/DTD/svg11.dtd">
<svg version="1.1" xmlns="http://www.w3.org/2000/svg" xmlns:xlink="http://www.w3.org/1999/xlink" viewBox="0 0 51.25 50.918">
 <g>
  <rect height="50.918" opacity="0" width="51.25" x="0" y="0"/>
  <path d="M50.8789 25.4492C50.8789 39.4531 39.4531 50.8789 25.4297 50.8789C11.4258 50.8789 0 39.4531 0 25.4492C0 11.4258 11.4258 0 25.4297 0C39.4531 0 50.8789 11.4258 50.8789 25.4492ZM11.6406 25.4688C11.6406 33.0859 17.8125 39.2578 25.4297 39.2578C33.0664 39.2578 39.2188 33.0859 39.2188 25.4688C39.2188 17.832 33.0664 11.6797 25.4297 11.6797C17.8125 11.6797 11.6406 17.832 11.6406 25.4688ZM29.6484 33.125L28.7695 36.8359C27.7148 37.168 26.6016 37.3047 25.4492 37.3047C24.2969 37.3047 23.2031 37.1484 22.1484 36.8359L21.2695 33.0664L23.0273 30.7812L27.832 30.7812ZM37.3242 25.5078C37.3047 27.8906 36.6016 30.0977 35.4102 31.9531L31.25 31.8945L29.2578 29.2578L30.5273 25.2539L34.2383 23.75ZM20.3711 25.2539L21.6406 29.2383L19.6289 31.8555L15.4688 31.9141C14.2969 30.0391 13.5938 27.8906 13.5742 25.5078L16.6797 23.75ZM24.4336 16.7383L24.4336 20.5859L20.9375 23.2617L17.2461 21.7773L16.1133 18.0664C17.4805 16.3672 19.2969 15.0391 21.3672 14.2969ZM34.7656 18.0664L33.6719 21.7773L29.9609 23.2617L26.4844 20.5859L26.4844 16.6797L29.5117 14.2969C31.6016 15.0391 33.4375 16.3672 34.7656 18.0664Z" fill="black" fill-opacity="0.85"/>
 </g>
</svg>
