<?xml version="1.0" encoding="UTF-8"?>
<!--Generator: Apple Native CoreSVG 326-->
<!DOCTYPE svg
PUBLIC "-//W3C//DTD SVG 1.1//EN"
       "http://www.w3.org/Graphics/SVG/1.1/DTD/svg11.dtd">
<svg version="1.1" xmlns="http://www.w3.org/2000/svg" xmlns:xlink="http://www.w3.org/1999/xlink" viewBox="0 0 59.5312 43.8867">
 <g>
  <rect height="43.8867" opacity="0" width="59.5312" x="0" y="0"/>
  <path d="M57.9297 16.2109L51.8945 16.2109L51.8945 16.0547L58.0273 8.02734C58.5352 7.38281 58.7305 7.01172 58.7305 6.5625C58.7305 5.80078 58.125 5.35156 57.3438 5.35156L49.2383 5.35156C48.5156 5.35156 48.0078 5.83984 48.0078 6.5625C48.0078 7.28516 48.5156 7.77344 49.2383 7.77344L54.9414 7.77344L54.9414 7.89062L48.75 15.8984C48.2422 16.543 48.0859 16.9141 48.0859 17.4219C48.0859 18.125 48.6133 18.6133 49.4141 18.6133L57.9297 18.6133C58.6523 18.6133 59.1602 18.1445 59.1602 17.4023C59.1602 16.6992 58.6523 16.2109 57.9297 16.2109ZM43.7109 26.0352L39.2969 26.0352L39.2969 25.9375L43.8281 20.0586C44.2969 19.4531 44.4922 19.082 44.4922 18.6328C44.4922 17.9102 43.9258 17.5 43.1641 17.5L36.8359 17.5C36.1523 17.5 35.6836 17.9688 35.6836 18.6133C35.6836 19.3555 36.1523 19.8047 36.8359 19.8047L40.8789 19.8047L40.8789 19.9219L36.3867 25.7812C35.9375 26.3477 35.7422 26.7188 35.7422 27.2266C35.7422 27.8711 36.2695 28.3594 37.0117 28.3594L43.7109 28.3594C44.4141 28.3594 44.8828 27.9297 44.8828 27.207C44.8828 26.5039 44.4141 26.0352 43.7109 26.0352ZM54.8438 34.9609L51.1328 34.9609L51.1328 34.8633L54.9219 29.8633C55.3711 29.2383 55.5664 28.9258 55.5664 28.4961C55.5664 27.793 55.0195 27.4023 54.3164 27.4023L48.8086 27.4023C48.1445 27.4023 47.6953 27.832 47.6953 28.4961C47.6953 29.1992 48.1445 29.5898 48.8086 29.5898L52.1094 29.5898L52.1094 29.707L48.3789 34.6875C47.9297 35.2734 47.7344 35.6055 47.7344 36.0547C47.7344 36.7188 48.2617 37.168 48.9453 37.168L54.8438 37.168C55.4883 37.168 55.957 36.7188 55.957 36.0547C55.957 35.4102 55.4883 34.9609 54.8438 34.9609Z" fill="black" fill-opacity="0.85"/>
  <path d="M26.9336 43.8867C28.457 43.8867 29.4922 42.7734 29.4922 41.2891L29.4922 2.71484C29.4922 1.23047 28.457 0.0195312 26.8945 0.0195312C25.8203 0.0195312 25.0977 0.507812 23.9648 1.54297L13.0469 11.8945C12.8711 12.0703 12.6367 12.1484 12.3438 12.1484L4.94141 12.1484C1.81641 12.1484 0 13.9648 0 17.2852L0 26.7383C0 30.0391 1.81641 31.8555 4.94141 31.8555L12.3438 31.8555C12.6367 31.8555 12.8711 31.9531 13.0469 32.1289L23.9648 42.4609C24.9805 43.418 25.8594 43.8867 26.9336 43.8867Z" fill="black" fill-opacity="0.85"/>
 </g>
</svg>
