<?xml version="1.0" encoding="UTF-8"?>
<!--Generator: Apple Native CoreSVG 326-->
<!DOCTYPE svg
PUBLIC "-//W3C//DTD SVG 1.1//EN"
       "http://www.w3.org/Graphics/SVG/1.1/DTD/svg11.dtd">
<svg version="1.1" xmlns="http://www.w3.org/2000/svg" xmlns:xlink="http://www.w3.org/1999/xlink" viewBox="0 0 59.3555 46.8945">
 <g>
  <rect height="46.8945" opacity="0" width="59.3555" x="0" y="0"/>
  <path d="M26.6797 2.55859L14.1016 1.13281C11.9141 0.859375 10.3516 2.28516 10.3516 4.375C10.3516 6.48438 11.9141 7.91016 14.1016 7.65625L26.6797 6.23047ZM28.8281 8.76953C31.2695 8.76953 33.2031 6.81641 33.2031 4.375C33.2031 1.95312 31.2695 0 28.8281 0C26.3867 0 24.4336 1.95312 24.4336 4.375C24.4336 6.81641 26.3867 8.76953 28.8281 8.76953ZM30.957 2.55859L30.957 6.23047L43.5352 7.65625C45.7422 7.91016 47.2852 6.48438 47.2852 4.375C47.2852 2.28516 45.7422 0.859375 43.5352 1.13281ZM26.875 6.99219L26.875 12.7734L30.7812 12.7734L30.7812 6.99219ZM33.0664 17.8711L36.0352 17.8711L36.0352 14.1797C36.0352 12.207 34.6484 10.8203 32.6953 10.8203L24.8828 10.8203C22.9297 10.8203 21.543 12.207 21.543 14.1797L21.543 17.8711L24.5117 17.8711L24.5117 14.4727C24.5117 13.8281 24.9609 13.3984 25.5664 13.3984L32.0117 13.3984C32.6172 13.3984 33.0664 13.8281 33.0664 14.4727ZM28.7891 42.5195C33.2812 42.5195 35.9961 40.5078 38.8086 38.0078C39.8047 37.1094 41.0352 36.6016 42.1875 36.6016C44.3945 36.6016 46.0352 38.1836 46.0352 41.0352L46.0352 44.8047C46.0352 46.0547 46.7969 46.8359 48.0664 46.8359L56.9336 46.8359C58.1836 46.8359 58.9844 46.0547 58.9844 44.8047L58.9844 42.3633C58.9844 28.457 50.6836 23.0273 42.0508 23.0273L40.8398 23.0273C40.4883 23.0273 40.1953 22.832 40.0781 22.5L38.4961 18.2031C38.0273 16.9336 37.3242 16.4062 36.1328 16.4062L21.4258 16.4062C20.2344 16.4062 19.5508 16.9336 19.082 18.2031L17.4805 22.5C17.3633 22.832 17.0703 23.0273 16.7188 23.0273L1.38672 23.0273L1.38672 26.1914L16.8359 26.1914C19.082 26.1914 19.8438 25.2734 20.4297 23.6719L21.9531 19.5508L35.6055 19.5508L37.1289 23.6719C37.7148 25.2734 38.4766 26.1914 40.7422 26.1914L42.0312 26.1914C49.7461 26.1914 55.8398 30.7812 55.8398 42.3633L55.8398 43.6719L49.1797 43.6719L49.1797 41.0352C49.1797 35.0977 45.625 33.3984 42.3633 33.3984C40.0586 33.3984 38.2617 34.2969 36.6406 35.8203C34.8242 37.3828 32.7734 39.3555 28.7891 39.3555C24.7656 39.3555 22.5391 37.4414 20.6055 35.4688C19.1602 33.8281 18.0664 33.3594 15.6445 33.3594L1.38672 33.3594L1.38672 36.5234L15.4883 36.5234C16.8945 36.5234 17.3828 36.6797 18.3203 37.6367C20.8984 40.2539 24.2969 42.5195 28.7891 42.5195ZM1.73828 41.7188C2.67578 41.7188 3.45703 40.9375 3.45703 40L3.45703 20.1367C3.45703 19.1797 2.67578 18.3984 1.73828 18.3984C0.78125 18.3984 0 19.1797 0 20.1367L0 40C0 40.9375 0.78125 41.7188 1.73828 41.7188Z" fill="black" fill-opacity="0.85"/>
 </g>
</svg>
