<?xml version="1.0" encoding="UTF-8"?>
<!--Generator: Apple Native CoreSVG 326-->
<!DOCTYPE svg
PUBLIC "-//W3C//DTD SVG 1.1//EN"
       "http://www.w3.org/Graphics/SVG/1.1/DTD/svg11.dtd">
<svg version="1.1" xmlns="http://www.w3.org/2000/svg" xmlns:xlink="http://www.w3.org/1999/xlink" viewBox="0 0 52.3242 65.6836">
 <g>
  <rect height="65.6836" opacity="0" width="52.3242" x="0" y="0"/>
  <path d="M37.2726 7.07031L14.6805 7.07031C14.8056 5.29862 15.9546 4.25781 17.832 4.25781L34.1211 4.25781C35.9986 4.25781 37.1475 5.29862 37.2726 7.07031Z" fill="black" fill-opacity="0.85"/>
  <path d="M42.3128 13.884C41.6187 13.7785 40.8836 13.7305 40.1172 13.7305L11.8359 13.7305C11.0623 13.7305 10.3209 13.7789 9.6213 13.8851C9.88879 11.8259 11.3193 10.6641 13.6133 10.6641L38.3398 10.6641C40.6335 10.6641 42.0481 11.8255 42.3128 13.884Z" fill="black" fill-opacity="0.85"/>
  <path d="M11.8359 61.4648L40.1172 61.4648C45.1562 61.4648 47.7148 58.9062 47.7148 53.9258L47.7148 25.4883C47.7148 20.5273 45.1562 17.9688 40.1172 17.9688L11.8359 17.9688C6.77734 17.9688 4.23828 20.5078 4.23828 25.4883L4.23828 53.9258C4.23828 58.9258 6.77734 61.4648 11.8359 61.4648Z" fill="black" fill-opacity="0.85"/>
 </g>
</svg>
