<?xml version="1.0" encoding="UTF-8"?>
<!--Generator: Apple Native CoreSVG 326-->
<!DOCTYPE svg
PUBLIC "-//W3C//DTD SVG 1.1//EN"
       "http://www.w3.org/Graphics/SVG/1.1/DTD/svg11.dtd">
<svg version="1.1" xmlns="http://www.w3.org/2000/svg" xmlns:xlink="http://www.w3.org/1999/xlink" viewBox="0 0 46.2891 45.957">
 <g>
  <rect height="45.957" opacity="0" width="46.2891" x="0" y="0"/>
  <path d="M17.5977 44.1406L17.5977 1.875L14.1406 1.875L14.1406 44.1406ZM31.7773 44.1406L31.7773 1.875L28.3008 1.875L28.3008 44.1406ZM1.83594 17.6562L44.082 17.6562L44.082 14.1992L1.83594 14.1992ZM1.83594 31.8164L44.082 31.8164L44.082 28.3594L1.83594 28.3594ZM0 44.1016C0 45.1953 0.722656 45.918 1.81641 45.918L44.1016 45.918C45.1953 45.918 45.918 45.1953 45.918 44.1016L45.918 1.81641C45.918 0.722656 45.1953 0 44.1016 0L1.81641 0C0.722656 0 0 0.722656 0 1.81641ZM3.45703 41.7773L3.45703 4.14062C3.45703 3.65234 3.65234 3.45703 4.14062 3.45703L41.7773 3.45703C42.2656 3.45703 42.4609 3.65234 42.4609 4.14062L42.4609 41.7773C42.4609 42.2656 42.2656 42.4609 41.7773 42.4609L4.14062 42.4609C3.65234 42.4609 3.45703 42.2656 3.45703 41.7773Z" fill="black" fill-opacity="0.85"/>
 </g>
</svg>
