<?xml version="1.0" encoding="UTF-8"?>
<!--Generator: Apple Native CoreSVG 326-->
<!DOCTYPE svg
PUBLIC "-//W3C//DTD SVG 1.1//EN"
       "http://www.w3.org/Graphics/SVG/1.1/DTD/svg11.dtd">
<svg version="1.1" xmlns="http://www.w3.org/2000/svg" xmlns:xlink="http://www.w3.org/1999/xlink" viewBox="0 0 44.5508 66.5039">
 <g>
  <rect height="66.5039" opacity="0" width="44.5508" x="0" y="0"/>
  <path d="M44.1797 27.3242L44.1797 52.3633C44.1797 57.3242 41.6406 59.8828 36.582 59.8828L7.59766 59.8828C2.55859 59.8828 0 57.3633 0 52.3633L0 27.3242C0 22.3242 2.55859 19.7852 7.59766 19.7852L15.9766 19.7852L15.9766 23.2617L7.67578 23.2617C4.94141 23.2617 3.45703 24.707 3.45703 27.5L3.45703 52.168C3.45703 54.9805 4.94141 56.4258 7.67578 56.4258L36.5039 56.4258C39.1797 56.4258 40.7227 54.9805 40.7227 52.168L40.7227 27.5C40.7227 24.707 39.1797 23.2617 36.5039 23.2617L28.2031 23.2617L28.2031 19.7852L36.582 19.7852C41.6406 19.7852 44.1797 22.3438 44.1797 27.3242Z" fill="black" fill-opacity="0.85"/>
  <path d="M22.0898 40.3711C23.0078 40.3711 23.8086 39.6094 23.8086 38.6914L23.8086 12.5L23.6719 8.80859L25.2148 10.4102L29.4531 14.8633C29.7656 15.2148 30.2148 15.3906 30.625 15.3906C31.5234 15.3906 32.207 14.7461 32.207 13.8672C32.207 13.418 32.0117 13.0664 31.6992 12.7344L23.3398 4.60938C22.9102 4.17969 22.5195 4.04297 22.0898 4.04297C21.6602 4.04297 21.2695 4.17969 20.8398 4.60938L12.4805 12.7344C12.1484 13.0664 11.9727 13.418 11.9727 13.8672C11.9727 14.7461 12.6172 15.3906 13.5156 15.3906C13.9258 15.3906 14.3945 15.2148 14.707 14.8633L18.9648 10.4102L20.5078 8.78906L20.3711 12.5L20.3711 38.6914C20.3711 39.6094 21.1719 40.3711 22.0898 40.3711Z" fill="black" fill-opacity="0.85"/>
 </g>
</svg>
