<?xml version="1.0" encoding="UTF-8"?>
<!--Generator: Apple Native CoreSVG 326-->
<!DOCTYPE svg
PUBLIC "-//W3C//DTD SVG 1.1//EN"
       "http://www.w3.org/Graphics/SVG/1.1/DTD/svg11.dtd">
<svg version="1.1" xmlns="http://www.w3.org/2000/svg" xmlns:xlink="http://www.w3.org/1999/xlink" viewBox="0 0 74.1211 50.918">
 <g>
  <rect height="50.918" opacity="0" width="74.1211" x="0" y="0"/>
  <path d="M48.6719 50.8789C62.7148 50.8789 74.1211 39.4922 74.1211 25.4492C74.1211 11.4062 62.7148 0 48.6719 0C34.6289 0 23.2422 11.4062 23.2422 25.4492C23.2422 39.4922 34.6289 50.8789 48.6719 50.8789ZM30.1562 14.2773C33.7891 7.92969 40.7227 3.65234 48.6328 3.65234C56.5625 3.65234 63.4961 7.92969 67.1484 14.2383C68.0078 15.4883 67.5586 16.8555 66.1133 16.8555L31.1914 16.8555C29.7461 16.8555 29.2969 15.4883 30.1562 14.2773ZM48.6523 32.4805C45.6055 32.4805 43.1445 30.0391 43.1445 26.9727C43.1445 23.9258 45.6055 21.4844 48.6523 21.4844C51.6992 21.4844 54.1602 23.9258 54.1602 26.9727C54.1602 30.0391 51.6992 32.4805 48.6523 32.4805ZM27.5781 30.957C27.207 29.5898 27.9297 28.9062 29.1406 29.043C36.7773 29.707 42.7344 36.4062 42.3047 44.1406C42.2852 45.332 41.4062 46.0742 40.1758 45.5078C33.9062 42.8516 29.2578 37.4805 27.5781 30.957ZM69.7266 30.957C68.0664 37.4805 63.418 42.8516 57.1484 45.5078C55.918 46.0742 55.0391 45.332 55.0195 44.1406C54.5898 36.4453 60.5078 29.707 68.1836 29.043C69.375 28.9062 70.1172 29.5898 69.7266 30.957Z" fill="black" fill-opacity="0.85"/>
  <path d="M1.62109 24.2969C0.722656 24.8438 0.683594 26.0938 1.62109 26.6406L14.6484 34.375C15.6445 34.9609 16.8164 34.4922 16.8164 33.4766L16.8164 17.4219C16.8164 16.4258 15.5859 15.9766 14.6484 16.5039Z" fill="black" fill-opacity="0.85"/>
 </g>
</svg>
