<?xml version="1.0" encoding="UTF-8"?>
<!--Generator: Apple Native CoreSVG 326-->
<!DOCTYPE svg
PUBLIC "-//W3C//DTD SVG 1.1//EN"
       "http://www.w3.org/Graphics/SVG/1.1/DTD/svg11.dtd">
<svg version="1.1" xmlns="http://www.w3.org/2000/svg" xmlns:xlink="http://www.w3.org/1999/xlink" viewBox="0 0 40.8398 40.5273">
 <g>
  <rect height="40.5273" opacity="0" width="40.8398" x="0" y="0"/>
  <path d="M0 35.2148C0 38.5352 1.99219 40.4883 5.35156 40.4883L35.1172 40.4883C38.4961 40.4883 40.4688 38.5352 40.4688 35.2148L40.4688 5.27344C40.4688 1.95312 38.4961 0 35.1172 0L5.35156 0C1.99219 0 0 1.95312 0 5.27344ZM3.45703 34.4336L3.45703 6.05469C3.45703 4.43359 4.41406 3.47656 6.01562 3.47656L34.4727 3.47656C36.0742 3.47656 37.0117 4.43359 37.0117 6.05469L37.0117 34.4336C37.0117 36.0547 36.0742 37.0312 34.4727 37.0312L6.01562 37.0312C4.41406 37.0312 3.45703 36.0547 3.45703 34.4336Z" fill="black" fill-opacity="0.85"/>
 </g>
</svg>
