<?xml version="1.0" encoding="UTF-8"?>
<!--Generator: Apple Native CoreSVG 326-->
<!DOCTYPE svg
PUBLIC "-//W3C//DTD SVG 1.1//EN"
       "http://www.w3.org/Graphics/SVG/1.1/DTD/svg11.dtd">
<svg version="1.1" xmlns="http://www.w3.org/2000/svg" xmlns:xlink="http://www.w3.org/1999/xlink" viewBox="0 0 49.8242 46.9336">
 <g>
  <rect height="46.9336" opacity="0" width="49.8242" x="0" y="0"/>
  <path d="M0 16.3086C0 26.9141 9.10156 37.3047 23.0859 46.3086C23.5742 46.6211 24.2578 46.9336 24.7266 46.9336C25.2148 46.9336 25.8984 46.6211 26.3867 46.3086C40.3516 37.3047 49.4531 26.9141 49.4531 16.3086C49.4531 7.59766 43.457 1.38672 35.4297 1.38672C30.8398 1.38672 26.9336 3.69141 24.7266 7.22656C22.5391 3.71094 18.6328 1.38672 14.0234 1.38672C5.99609 1.38672 0 7.59766 0 16.3086ZM3.45703 16.3086C3.45703 9.47266 7.92969 4.84375 13.9844 4.84375C18.6914 4.84375 21.5234 7.77344 23.2227 10.5273C23.8086 11.4258 24.1992 11.6992 24.7266 11.6992C25.2734 11.6992 25.6055 11.4062 26.25 10.5273C28.0273 7.8125 30.7812 4.84375 35.4688 4.84375C41.5234 4.84375 45.9961 9.47266 45.9961 16.3086C45.9961 25.7422 36.1133 35.7812 25.1953 43.0469C24.9805 43.1836 24.8242 43.3008 24.7266 43.3008C24.6289 43.3008 24.4727 43.1836 24.2578 43.0469C13.3398 35.7812 3.45703 25.7422 3.45703 16.3086Z" fill="black" fill-opacity="0.85"/>
 </g>
</svg>
