<?xml version="1.0" encoding="UTF-8"?>
<!--Generator: Apple Native CoreSVG 326-->
<!DOCTYPE svg
PUBLIC "-//W3C//DTD SVG 1.1//EN"
       "http://www.w3.org/Graphics/SVG/1.1/DTD/svg11.dtd">
<svg version="1.1" xmlns="http://www.w3.org/2000/svg" xmlns:xlink="http://www.w3.org/1999/xlink" viewBox="0 0 72.0312 60.6055">
 <g>
  <rect height="60.6055" opacity="0" width="72.0312" x="0" y="0"/>
  <path d="M49.4531 29.082C49.4531 32.152 48.4136 35.0016 46.66 37.2852L41.796 37.2852C44.3383 35.4364 45.9961 32.4391 45.9961 29.082C45.9961 23.4961 41.4062 18.9062 35.8203 18.9062C30.2344 18.9062 25.6445 23.4961 25.6445 29.082C25.6445 32.4391 27.3023 35.4364 29.8446 37.2852L24.9987 37.2852C23.2466 35.0016 22.207 32.152 22.207 29.082C22.207 21.6211 28.3789 15.4492 35.8203 15.4492C43.2812 15.4492 49.4531 21.6211 49.4531 29.082ZM17.4609 28.4375C17.4805 29.4141 16.6406 30.1758 15.5469 30.1758L8.63281 30.1758C7.55859 30.1758 6.73828 29.3945 6.73828 28.4375C6.73828 27.4805 7.55859 26.6992 8.63281 26.6992L15.5469 26.6992C16.6406 26.6992 17.4414 27.5 17.4609 28.4375ZM64.9023 28.4375C64.9023 29.4141 64.1211 30.1758 63.0273 30.1758L56.0938 30.1758C55.0195 30.1758 54.2188 29.3945 54.1992 28.4375C54.1797 27.4805 55.0195 26.6992 56.0938 26.6992L63.0273 26.6992C64.1211 26.6992 64.9023 27.5 64.9023 28.4375ZM17.832 8.61328L22.7148 13.5156C23.4961 14.2773 23.4961 15.4102 22.832 16.0938C22.168 16.7773 21.0156 16.7578 20.2539 15.9766L15.3516 11.0938C14.5703 10.293 14.5703 9.19922 15.2734 8.53516C15.9375 7.87109 17.0312 7.83203 17.832 8.61328ZM56.3867 8.53516C57.0508 9.21875 57.0898 10.293 56.2891 11.0938L51.4062 15.9766C50.625 16.7578 49.4922 16.7578 48.8281 16.0938C48.1445 15.4297 48.1641 14.2773 48.9258 13.5156L53.8281 8.61328C54.6094 7.83203 55.7422 7.85156 56.3867 8.53516ZM37.5586 1.89453L37.5586 8.80859C37.5586 9.90234 36.7773 10.7031 35.8203 10.7227C34.8633 10.7422 34.082 9.90234 34.082 8.80859L34.082 1.89453C34.082 0.800781 34.8633 0 35.8203 0C36.7773 0 37.5586 0.800781 37.5586 1.89453Z" fill="black" fill-opacity="0.85"/>
  <path d="M8.14453 49.7461L59.707 49.7461C60.4883 49.7461 61.1133 49.1406 61.1133 48.3594C61.1133 47.5586 60.4883 46.9727 59.707 46.9727L8.14453 46.9727C7.36328 46.9727 6.73828 47.5586 6.73828 48.3594C6.73828 49.1406 7.36328 49.7461 8.14453 49.7461ZM11.9336 59.4141L63.5156 59.4141C64.2969 59.4141 64.9023 58.8281 64.9023 58.0469C64.9023 57.2461 64.2969 56.6602 63.5156 56.6602L11.9336 56.6602C11.1523 56.6602 10.5469 57.2461 10.5469 58.0469C10.5469 58.8281 11.1523 59.4141 11.9336 59.4141ZM11.9336 40.0586L63.5156 40.0586C64.2969 40.0586 64.9023 39.4531 64.9023 38.6719C64.9023 37.8906 64.2969 37.2852 63.5156 37.2852L11.9336 37.2852C11.1523 37.2852 10.5469 37.8906 10.5469 38.6719C10.5469 39.4531 11.1523 40.0586 11.9336 40.0586Z" fill="black" fill-opacity="0.85"/>
 </g>
</svg>
