<?xml version="1.0" encoding="UTF-8"?>
<!--Generator: Apple Native CoreSVG 326-->
<!DOCTYPE svg
PUBLIC "-//W3C//DTD SVG 1.1//EN"
       "http://www.w3.org/Graphics/SVG/1.1/DTD/svg11.dtd">
<svg version="1.1" xmlns="http://www.w3.org/2000/svg" xmlns:xlink="http://www.w3.org/1999/xlink" viewBox="0 0 51.25 50.918">
 <g>
  <rect height="50.918" opacity="0" width="51.25" x="0" y="0"/>
  <path d="M25.4297 50.8789C39.4727 50.8789 50.8789 39.4922 50.8789 25.4492C50.8789 11.4062 39.4727 0 25.4297 0C11.3867 0 0 11.4062 0 25.4492C0 39.4922 11.3867 50.8789 25.4297 50.8789ZM25.4297 47.2461C13.3789 47.2461 3.63281 37.5 3.63281 25.4492C3.63281 13.3984 13.3789 3.65234 25.4297 3.65234C37.4805 3.65234 47.2266 13.3984 47.2266 25.4492C47.2266 37.5 37.4805 47.2461 25.4297 47.2461Z" fill="black" fill-opacity="0.85"/>
  <path d="M32.9102 25.1367C32.9102 21.0156 29.5312 17.6367 25.4102 17.6367C21.3086 17.6367 17.9297 21.0156 17.9297 25.1367C17.9297 26.0352 18.125 26.9336 18.457 27.7539L32.3633 27.7539C32.6953 26.9336 32.9102 26.0352 32.9102 25.1367ZM10.957 26.0352L14.6484 26.0352C15.4297 26.0352 15.9961 25.5273 15.9961 24.8047C15.9961 24.1211 15.4102 23.5742 14.6484 23.5742L10.957 23.5742C10.2148 23.5742 9.64844 24.1406 9.64844 24.8047C9.64844 25.4883 10.2148 26.0352 10.957 26.0352ZM16.9727 18.418C17.4805 18.9258 18.2617 18.9844 18.75 18.4961C19.2773 17.9883 19.1992 17.1875 18.6914 16.6797L16.0547 14.043C15.5078 13.4766 14.7266 13.5547 14.2578 14.0039C13.7891 14.5117 13.7891 15.2344 14.3359 15.8008ZM26.6406 13.5156L26.6406 9.82422C26.6406 9.04297 26.0938 8.49609 25.4102 8.49609C24.7266 8.49609 24.1797 9.04297 24.1797 9.82422L24.1797 13.5156C24.1797 14.2578 24.7266 14.8633 25.4102 14.8633C26.1133 14.8633 26.6406 14.2383 26.6406 13.5156ZM32.0898 18.4961C32.5781 18.9648 33.3594 18.9453 33.8867 18.418L36.4844 15.8008C37.0312 15.2344 37.0508 14.5117 36.582 14.0039C36.0938 13.5156 35.3125 13.4961 34.7852 14.043L32.1289 16.6797C31.6016 17.207 31.582 17.9883 32.0898 18.4961ZM36.1719 26.0352L39.8633 26.0352C40.625 26.0352 41.1914 25.5078 41.1914 24.8047C41.1914 24.1211 40.625 23.5742 39.8633 23.5742L36.1719 23.5742C35.4102 23.5742 34.8242 24.1211 34.8242 24.8047C34.8242 25.5078 35.4492 26.0352 36.1719 26.0352ZM10.9375 31.9141L39.8828 31.9141C40.5664 31.9141 41.1914 31.3867 41.1914 30.6836C41.1914 29.9805 40.5859 29.4727 39.8828 29.4727L10.9375 29.4727C10.2539 29.4727 9.64844 30 9.64844 30.6836C9.64844 31.3867 10.2734 31.9141 10.9375 31.9141ZM17.1289 40.5469C17.5391 40.5469 17.793 40.1953 17.7734 39.8047L17.6953 38.2031L19.0234 39.1016C19.3164 39.2969 19.7656 39.1992 19.9609 38.9062C20.1953 38.5938 20.0781 38.125 19.668 37.9297L18.2617 37.2266L19.668 36.4844C20.0586 36.2891 20.1562 35.8984 19.9805 35.5469C19.8047 35.1953 19.3359 35.1562 19.0234 35.3516L17.6953 36.25L17.7734 34.668C17.793 34.2383 17.5391 33.9062 17.1289 33.9062C16.7188 33.9062 16.4648 34.2383 16.4844 34.6484L16.543 36.25L15.2148 35.3516C14.9023 35.1367 14.4531 35.1758 14.2773 35.5469C14.082 35.8594 14.1797 36.2891 14.5898 36.5039L15.9766 37.2266L14.5898 37.9297C14.1602 38.125 14.082 38.5547 14.2383 38.8867C14.4141 39.2383 14.8828 39.3164 15.2148 39.1016L16.543 38.2031L16.5039 39.8047C16.4844 40.1953 16.7188 40.5469 17.1289 40.5469ZM25.4102 40.5469C25.8008 40.5469 26.0742 40.1953 26.0547 39.8047L25.9766 38.2031L27.2852 39.1016C27.5977 39.2969 28.0469 39.1992 28.2422 38.9062C28.4766 38.5938 28.3594 38.125 27.9297 37.9297L26.543 37.2266L27.9297 36.4844C28.3398 36.2891 28.4375 35.8984 28.2617 35.5469C28.0859 35.1953 27.5977 35.1562 27.2852 35.3516L25.9766 36.25L26.0547 34.668C26.0742 34.2383 25.8008 33.9062 25.4102 33.9062C25 33.9062 24.7266 34.2383 24.7461 34.6484L24.8242 36.25L23.4766 35.3516C23.1836 35.1367 22.7344 35.1758 22.5586 35.5469C22.3438 35.8594 22.4609 36.2891 22.8711 36.5039L24.2578 37.2266L22.8711 37.9297C22.4414 38.125 22.3438 38.5547 22.5195 38.8867C22.6953 39.2383 23.1641 39.3164 23.4766 39.1016L24.8242 38.2031L24.7656 39.8047C24.7461 40.1953 25 40.5469 25.4102 40.5469ZM33.6914 40.5469C34.082 40.5469 34.3359 40.1953 34.3164 39.8047L34.2578 38.2031L35.5664 39.1016C35.8594 39.2969 36.3281 39.1992 36.5234 38.9062C36.7578 38.5938 36.6211 38.125 36.2109 37.9297L34.8047 37.2266L36.2109 36.4844C36.6016 36.2891 36.7188 35.8984 36.543 35.5469C36.3672 35.1953 35.8789 35.1367 35.5664 35.3516L34.2578 36.25L34.3164 34.668C34.3359 34.2383 34.082 33.9062 33.6914 33.9062C33.2617 33.9062 33.0078 34.2383 33.0273 34.6484L33.1055 36.25L31.7578 35.3516C31.4453 35.1367 31.0156 35.1758 30.8398 35.5469C30.625 35.8594 30.7422 36.2891 31.1328 36.5039L32.5391 37.2266L31.1328 37.9297C30.7031 38.125 30.6445 38.5547 30.8008 38.8867C30.9766 39.2383 31.4453 39.3164 31.7578 39.1016L33.1055 38.2031L33.0469 39.8047C33.0273 40.1953 33.2617 40.5469 33.6914 40.5469Z" fill="black" fill-opacity="0.85"/>
 </g>
</svg>
