<?xml version="1.0" encoding="UTF-8"?>
<!--Generator: Apple Native CoreSVG 326-->
<!DOCTYPE svg
PUBLIC "-//W3C//DTD SVG 1.1//EN"
       "http://www.w3.org/Graphics/SVG/1.1/DTD/svg11.dtd">
<svg version="1.1" xmlns="http://www.w3.org/2000/svg" xmlns:xlink="http://www.w3.org/1999/xlink" viewBox="0 0 46.5234 45.0977">
 <g>
  <rect height="45.0977" opacity="0" width="46.5234" x="0" y="0"/>
  <path d="M22.2266 45.0977C26.6992 45.0977 30.2344 41.543 30.2344 37.0703C30.2344 32.6172 26.6797 29.043 22.2266 29.043C17.7539 29.043 14.1797 32.6172 14.1797 37.0703C14.1797 41.5234 17.7539 45.0977 22.2266 45.0977ZM46.1523 39.1406L46.1523 1.52344C42.5977 2.32422 39.707 3.67188 36.1914 5.87891L24.8047 13.0469L14.2383 14.3164C4.82422 15.4688 0.175781 19.7656 0.175781 27.2656L0.175781 32.0898C0.175781 36.5234 2.69531 39.1406 7.01172 39.1406L11.6602 39.1406C11.543 38.4766 11.4648 37.793 11.4648 37.0703C11.4648 31.1133 16.25 26.3281 22.2266 26.3281C28.1836 26.3281 32.9688 31.1133 32.9688 37.0703C32.9688 37.793 32.8906 38.4766 32.7539 39.1406ZM1.58203 3.84766L11.0742 3.84766C12.1875 3.84766 12.9492 4.10156 13.5938 4.76562L24.8047 15.957L27.7539 14.3164L16.1523 2.69531C14.7656 1.30859 13.0273 0.722656 10.7422 0.722656L1.62109 0.722656C0.625 0.722656 0 1.34766 0 2.26562C0 3.20312 0.605469 3.84766 1.58203 3.84766Z" fill="black" fill-opacity="0.85"/>
 </g>
</svg>
