<?xml version="1.0" encoding="UTF-8"?>
<!--Generator: Apple Native CoreSVG 326-->
<!DOCTYPE svg
PUBLIC "-//W3C//DTD SVG 1.1//EN"
       "http://www.w3.org/Graphics/SVG/1.1/DTD/svg11.dtd">
<svg version="1.1" xmlns="http://www.w3.org/2000/svg" xmlns:xlink="http://www.w3.org/1999/xlink" viewBox="0 0 50.1562 59.9023">
 <g>
  <rect height="59.9023" opacity="0" width="50.1562" x="0" y="0"/>
  <path d="M0 7.96875L0 46.543L13.2617 46.543C13.1445 45.8789 13.0664 45.1953 13.0664 44.4727C13.0664 38.5352 17.8711 33.7305 23.8281 33.7305C29.7852 33.7305 34.5703 38.5156 34.5703 44.4727C34.5703 45.1953 34.4922 45.8789 34.3555 46.543L37.3633 46.543C42.0117 46.543 44.1797 44.1211 44.1797 38.9844L44.1797 26.7383C44.1797 23.2422 42.9492 19.375 40.7422 16.1914L39.4531 14.3359C36.3477 9.80469 32.3633 7.91016 25.9961 7.91016L4.0625 7.91016C2.59766 7.91016 1.25 7.94922 0 7.96875ZM23.8281 52.5C28.2812 52.5 31.8555 48.9258 31.8555 44.4727C31.8555 40.0195 28.2812 36.4453 23.8281 36.4453C19.375 36.4453 15.7812 40.0391 15.7812 44.4727C15.7812 48.9258 19.3555 52.5 23.8281 52.5ZM30.7812 10.1953L33.3203 12.2266L41.3477 3.96484C41.9141 3.35938 42.5391 3.125 43.3398 3.125L48.1836 3.125C49.1602 3.125 49.7852 2.48047 49.7852 1.5625C49.7852 0.625 49.1602 0 48.1836 0L43.6914 0C41.7383 0 40.1367 0.566406 38.8086 1.91406Z" fill="black" fill-opacity="0.85"/>
 </g>
</svg>
