<?xml version="1.0" encoding="UTF-8"?>
<!--Generator: Apple Native CoreSVG 326-->
<!DOCTYPE svg
PUBLIC "-//W3C//DTD SVG 1.1//EN"
       "http://www.w3.org/Graphics/SVG/1.1/DTD/svg11.dtd">
<svg version="1.1" xmlns="http://www.w3.org/2000/svg" xmlns:xlink="http://www.w3.org/1999/xlink" viewBox="0 0 93.5156 54.4727">
 <g>
  <rect height="54.4727" opacity="0" width="93.5156" x="0" y="0"/>
  <path d="M76.543 8.65234L79.082 10.6836L85.5664 3.94531C86.1328 3.33984 86.7773 3.125 87.5781 3.125L91.5234 3.125C92.5 3.125 93.1445 2.48047 93.1445 1.54297C93.1445 0.625 92.5 0 91.5234 0L87.9297 0C85.957 0 84.3555 0.546875 83.0469 1.91406ZM6.07422 41.543L13.6328 41.543L13.6328 38.0859L6.26953 38.0859C4.47266 38.0859 3.45703 36.9336 3.45703 34.9023L3.45703 31.0156C3.45703 26.3281 6.46484 23.7305 12.9297 22.9297L23.0664 21.6602L33.8477 14.9219C39.3945 11.4648 42.7148 10.6445 52.4023 10.6445L71.9141 10.6445C76.3086 10.6445 78.9453 11.8945 81.0156 14.8828L82.1484 16.5234C83.7109 18.8086 84.6094 21.4648 84.6094 23.9453L84.6094 35.0195C84.6094 37.0898 83.75 38.0859 81.8164 38.0859L75.918 38.0859L75.918 41.543L82.0117 41.543C86.1523 41.543 88.0664 39.3945 88.0664 34.8047L88.0664 23.9453C88.0664 20.8398 86.9531 17.4023 85 14.5508L83.8672 12.9102C81.1133 8.88672 77.5586 7.1875 71.9141 7.1875L52.4023 7.1875C42.1289 7.1875 38.0859 8.16406 32.0117 11.9727L21.8945 18.3398L12.5 19.4922C4.14062 20.5273 0 24.3359 0 31.0156L0 35.293C0 39.2383 2.24609 41.543 6.07422 41.543ZM25.7422 41.543L63.9844 41.543L63.9844 38.0859L25.7422 38.0859ZM19.5898 47.2266C24.2773 47.2266 27.9688 43.5547 27.9688 38.8672C27.9688 34.1602 24.2773 30.4883 19.5898 30.4883C14.9023 30.4883 11.2109 34.1602 11.2109 38.8672C11.2109 43.5547 14.9023 47.2266 19.5898 47.2266ZM19.5898 43.7695C16.8359 43.7695 14.6875 41.6211 14.6875 38.8672C14.6875 36.0938 16.8359 33.9453 19.5898 33.9453C22.3438 33.9453 24.4922 36.0938 24.4922 38.8672C24.4922 41.6211 22.3438 43.7695 19.5898 43.7695ZM70.0586 47.2266C74.7656 47.2266 78.4375 43.5547 78.4375 38.8672C78.4375 34.1602 74.7656 30.4883 70.0586 30.4883C65.3711 30.4883 61.6992 34.1602 61.6992 38.8672C61.6992 43.5547 65.3711 47.2266 70.0586 47.2266ZM70.0586 43.7695C67.3047 43.7695 65.1562 41.6211 65.1562 38.8672C65.1562 36.0938 67.3047 33.9453 70.0586 33.9453C72.832 33.9453 74.9805 36.0938 74.9805 38.8672C74.9805 41.6211 72.832 43.7695 70.0586 43.7695Z" fill="black" fill-opacity="0.85"/>
 </g>
</svg>
