<?xml version="1.0" encoding="UTF-8"?>
<!--Generator: Apple Native CoreSVG 326-->
<!DOCTYPE svg
PUBLIC "-//W3C//DTD SVG 1.1//EN"
       "http://www.w3.org/Graphics/SVG/1.1/DTD/svg11.dtd">
<svg version="1.1" xmlns="http://www.w3.org/2000/svg" xmlns:xlink="http://www.w3.org/1999/xlink" viewBox="0 0 84.1211 37.207">
 <g>
  <rect height="37.207" opacity="0" width="84.1211" x="0" y="0"/>
  <path d="M73.1055 37.207C77.9688 37.207 82.1289 34.4922 83.5352 30.5859C83.6914 30.1953 83.75 29.7852 83.75 29.4531C83.75 28.5547 83.0859 27.8906 82.168 27.8906C81.3477 27.8906 80.9375 28.2422 80.4688 29.1602C79.1992 32.3047 76.6797 34.043 73.125 34.043C67.9688 34.043 64.668 30.0391 64.668 23.5352C64.668 17.0508 68.0078 12.9883 73.1055 12.9883C76.5234 12.9883 79.1211 14.6875 80.3906 17.9102C80.8398 18.7891 81.2891 19.1211 82.0703 19.1211C83.0078 19.1211 83.6719 18.5156 83.6719 17.5977C83.6719 17.3047 83.5938 16.9336 83.5156 16.6406C82.2461 12.6758 78.0273 9.82422 73.0273 9.82422C65.7031 9.82422 60.957 15.2539 60.957 23.5742C60.957 31.8945 65.7617 37.207 73.1055 37.207Z" fill="black" fill-opacity="0.85"/>
  <path d="M35.7031 37.168C36.7188 37.168 37.4805 36.4844 37.4805 35.332L37.4805 30.8984L37.5391 30.8984C38.9258 34.7461 42.4023 37.207 46.7188 37.207C53.4375 37.207 57.9492 31.7383 57.9492 23.5156C57.9492 15.2734 53.418 9.82422 46.7578 9.82422C42.5 9.82422 39.0234 12.2852 37.6172 16.0938L37.5586 16.0938L37.5586 2.34375C37.5586 1.17188 36.8359 0.410156 35.7422 0.410156C34.6875 0.410156 33.9453 1.17188 33.9453 2.34375L33.9453 35.332C33.9453 36.5039 34.6484 37.168 35.7031 37.168ZM45.9766 34.043C41.0547 34.043 37.5977 29.8438 37.5977 23.5352C37.5977 17.2266 41.0742 13.0078 45.9766 13.0078C51.0156 13.0078 54.2188 17.1094 54.2188 23.5156C54.2188 29.9609 50.9961 34.043 45.9766 34.043Z" fill="black" fill-opacity="0.85"/>
  <path d="M1.75781 37.168C2.55859 37.168 3.33984 36.6992 3.73047 35.5859L7.34375 25.8203L22.832 25.8203L26.4453 35.5859C26.8555 36.7188 27.5977 37.168 28.3984 37.168C29.3359 37.168 30.2148 36.5039 30.2148 35.4492C30.2148 35.0977 30.1367 34.7656 29.9805 34.3164L17.6953 1.99219C17.2461 0.742188 16.4258 0.0976562 15.0977 0.0976562C13.7891 0.0976562 12.9688 0.722656 12.5195 1.97266L0.234375 34.3359C0.078125 34.7852 0 35.1172 0 35.4688C0 36.543 0.839844 37.168 1.75781 37.168ZM8.33984 22.7344L14.9414 4.78516L15.1953 4.78516L21.8164 22.7344Z" fill="black" fill-opacity="0.85"/>
 </g>
</svg>
