<?xml version="1.0" encoding="UTF-8"?>
<!--Generator: Apple Native CoreSVG 326-->
<!DOCTYPE svg
PUBLIC "-//W3C//DTD SVG 1.1//EN"
       "http://www.w3.org/Graphics/SVG/1.1/DTD/svg11.dtd">
<svg version="1.1" xmlns="http://www.w3.org/2000/svg" xmlns:xlink="http://www.w3.org/1999/xlink" viewBox="0 0 35.3516 59.3164">
 <g>
  <rect height="59.3164" opacity="0" width="35.3516" x="0" y="0"/>
  <path d="M2.40234 3.45703L32.5586 3.45703C33.4961 3.45703 34.2773 2.67578 34.2773 1.71875C34.2773 0.78125 33.4961 0 32.5586 0L2.40234 0C1.46484 0 0.664062 0.78125 0.664062 1.71875C0.664062 2.67578 1.46484 3.45703 2.40234 3.45703ZM3.63281 23.9844L6.99219 22.6758L6.21094 9.00391L28.75 9.00391L27.9688 22.6758L31.3086 23.9844L32.4805 5.91797L2.48047 5.91797ZM17.4805 33.1055C27.793 33.1055 34.9805 30.4102 34.9805 26.543C34.9805 22.8125 27.793 20.2344 17.4805 20.2344C7.1875 20.2344 0 22.8125 0 26.543C0 30.4102 7.1875 33.1055 17.4805 33.1055ZM17.4805 30.1367C9.57031 30.1367 4.21875 28.6719 4.21875 26.543C4.21875 24.5703 9.57031 23.1836 17.4805 23.1836C25.4102 23.1836 30.7617 24.5703 30.7617 26.543C30.7617 28.6719 25.4102 30.1367 17.4805 30.1367ZM16.6016 44.375L18.3984 44.375C28.2812 44.375 34.9805 37.1875 34.9805 26.543L31.7578 26.543C31.7578 35.2344 26.4062 41.0742 18.3984 41.0742L16.6016 41.0742C8.59375 41.0742 3.22266 35.2344 3.22266 26.543L0 26.543C0 37.1875 6.69922 44.375 16.6016 44.375ZM17.832 59.3164C22.3828 59.3164 27.5391 58.2031 29.7656 56.0352C30.4297 55.3906 30.4297 54.5898 30.1758 53.6523L26.2305 40.4492L23.125 42.207L27.168 55.7422L27.3438 53.5352C25.6836 55 21.8555 55.8594 17.832 55.8594C13.8086 55.8594 9.98047 55 8.33984 53.5352L8.49609 55.7422L12.5391 42.207L9.47266 40.4492L5.50781 53.6523C5.23438 54.5898 5.25391 55.3906 5.91797 56.0352C8.14453 58.2031 13.2812 59.3164 17.832 59.3164Z" fill="black" fill-opacity="0.85"/>
 </g>
</svg>
