<?xml version="1.0" encoding="UTF-8"?>
<!--Generator: Apple Native CoreSVG 326-->
<!DOCTYPE svg
PUBLIC "-//W3C//DTD SVG 1.1//EN"
       "http://www.w3.org/Graphics/SVG/1.1/DTD/svg11.dtd">
<svg version="1.1" xmlns="http://www.w3.org/2000/svg" xmlns:xlink="http://www.w3.org/1999/xlink" viewBox="0 0 51.25 50.918">
 <g>
  <rect height="50.918" opacity="0" width="51.25" x="0" y="0"/>
  <path d="M25.4297 50.8789C39.4727 50.8789 50.8789 39.4922 50.8789 25.4492C50.8789 11.4062 39.4727 0 25.4297 0C11.3867 0 0 11.4062 0 25.4492C0 39.4922 11.3867 50.8789 25.4297 50.8789ZM25.4297 47.2461C13.3789 47.2461 3.63281 37.5 3.63281 25.4492C3.63281 13.3984 13.3789 3.65234 25.4297 3.65234C37.4805 3.65234 47.2266 13.3984 47.2266 25.4492C47.2266 37.5 37.4805 47.2461 25.4297 47.2461Z" fill="black" fill-opacity="0.85"/>
  <path d="M18.9844 40.293L31.9141 40.293C33.5352 40.293 34.6289 39.3164 34.6875 37.6758L35.6055 17.3633L37.6953 17.3633C38.2422 17.3633 38.6719 16.9141 38.6914 16.3867C38.7109 15.8398 38.2422 15.4102 37.6953 15.4102L31.4844 15.4102L31.4844 13.2812C31.4844 11.3086 30.1172 10.0195 28.0078 10.0195L22.832 10.0195C20.7227 10.0195 19.3945 11.3086 19.3945 13.2812L19.3945 15.4102L13.0859 15.4102C12.5586 15.4102 12.1094 15.8398 12.1094 16.3867C12.1094 16.9141 12.5586 17.3633 13.0859 17.3633L15.293 17.3633L16.2305 37.6758C16.2891 39.3164 17.3242 40.293 18.9844 40.293ZM21.0938 36.3867C20.625 36.3867 20.2734 36.0742 20.2734 35.6055L19.6094 20.6445C19.6094 20.1367 19.9219 19.8047 20.4883 19.8047C20.9766 19.8047 21.3281 20.1172 21.3477 20.6055L21.9141 35.5664C21.9336 36.0547 21.6406 36.3867 21.0938 36.3867ZM25.3711 36.3867C24.8633 36.3867 24.5117 36.0352 24.5117 35.5664L24.5117 20.625C24.5117 20.1172 24.8242 19.8047 25.3711 19.8047C25.8984 19.8047 26.25 20.1172 26.25 20.625L26.25 35.5664C26.25 36.0352 25.8789 36.3867 25.3711 36.3867ZM29.6289 36.3867C29.1016 36.3867 28.8086 36.0547 28.8281 35.5664L29.3945 20.6055C29.4141 20.1172 29.7656 19.8047 30.2734 19.8047C30.8008 19.8047 31.1328 20.1367 31.1328 20.6445L30.4688 35.6055C30.4688 36.0742 30.1172 36.3867 29.6289 36.3867ZM21.6406 15.4102L21.6406 13.3984C21.6406 12.6953 22.168 12.2266 22.9102 12.2266L27.8516 12.2266C28.6133 12.2266 29.1406 12.6953 29.1406 13.3984L29.1406 15.4102Z" fill="black" fill-opacity="0.85"/>
 </g>
</svg>
