<?xml version="1.0" encoding="UTF-8"?>
<!--Generator: Apple Native CoreSVG 326-->
<!DOCTYPE svg
PUBLIC "-//W3C//DTD SVG 1.1//EN"
       "http://www.w3.org/Graphics/SVG/1.1/DTD/svg11.dtd">
<svg version="1.1" xmlns="http://www.w3.org/2000/svg" xmlns:xlink="http://www.w3.org/1999/xlink" viewBox="0 0 46.2891 46.5039">
 <g>
  <rect height="46.5039" opacity="0" width="46.2891" x="0" y="0"/>
  <path d="M7.59766 46.5039L38.3008 46.5039C43.3594 46.5039 45.918 43.9453 45.918 38.9844L45.918 8.10547C45.918 3.14453 43.3594 0.585938 38.3008 0.585938L7.59766 0.585938C2.55859 0.585938 0 3.125 0 8.10547L0 38.9844C0 43.9648 2.55859 46.5039 7.59766 46.5039ZM7.67578 43.0469C4.94141 43.0469 3.45703 41.6016 3.45703 38.7891L3.45703 8.30078C3.45703 5.48828 4.94141 4.04297 7.67578 4.04297L38.2422 4.04297C40.918 4.04297 42.4609 5.48828 42.4609 8.30078L42.4609 38.7891C42.4609 41.6016 40.918 43.0469 38.2422 43.0469Z" fill="black" fill-opacity="0.85"/>
  <path d="M16.543 38.3789L29.4727 38.3789C31.0938 38.3789 32.1875 37.3828 32.2461 35.7617L33.1641 15.4297L35.2539 15.4297C35.8008 15.4297 36.2305 15 36.25 14.4727C36.2695 13.9258 35.8008 13.4766 35.2539 13.4766L29.043 13.4766L29.043 11.3477C29.043 9.39453 27.6758 8.10547 25.5664 8.10547L20.3906 8.10547C18.2812 8.10547 16.9531 9.39453 16.9531 11.3477L16.9531 13.4766L10.6445 13.4766C10.1172 13.4766 9.66797 13.9258 9.66797 14.4727C9.66797 15 10.1172 15.4297 10.6445 15.4297L12.8516 15.4297L13.7891 35.7617C13.8477 37.3828 14.8828 38.3789 16.543 38.3789ZM18.6523 34.4727C18.1836 34.4727 17.832 34.1602 17.8125 33.6719L17.168 18.7305C17.1484 18.2227 17.4805 17.8711 18.0469 17.8711C18.5352 17.8711 18.8867 18.1836 18.8867 18.6914L19.4727 33.6523C19.4922 34.1406 19.1992 34.4727 18.6523 34.4727ZM22.9297 34.4531C22.4219 34.4531 22.0703 34.1211 22.0703 33.6523L22.0703 18.7109C22.0703 18.2031 22.3828 17.8711 22.9297 17.8711C23.457 17.8711 23.8086 18.2031 23.8086 18.7109L23.8086 33.6523C23.8086 34.1211 23.4375 34.4531 22.9297 34.4531ZM27.1875 34.4727C26.6602 34.4727 26.3672 34.1406 26.3867 33.6523L26.9531 18.6914C26.9727 18.1836 27.3242 17.8711 27.832 17.8711C28.3594 17.8711 28.6914 18.2227 28.6719 18.7305L28.0273 33.6719C28.0078 34.1602 27.6758 34.4727 27.1875 34.4727ZM19.1992 13.4766L19.1992 11.4844C19.1992 10.7812 19.7266 10.293 20.4688 10.293L25.4102 10.293C26.1719 10.293 26.6992 10.7812 26.6992 11.4844L26.6992 13.4766Z" fill="black" fill-opacity="0.85"/>
 </g>
</svg>
