<?xml version="1.0" encoding="UTF-8"?>
<!--Generator: Apple Native CoreSVG 326-->
<!DOCTYPE svg
PUBLIC "-//W3C//DTD SVG 1.1//EN"
       "http://www.w3.org/Graphics/SVG/1.1/DTD/svg11.dtd">
<svg version="1.1" xmlns="http://www.w3.org/2000/svg" xmlns:xlink="http://www.w3.org/1999/xlink" viewBox="0 0 51.25 50.918">
 <g>
  <rect height="50.918" opacity="0" width="51.25" x="0" y="0"/>
  <path d="M50.8789 25.4492C50.8789 39.4531 39.4531 50.8789 25.4297 50.8789C11.4258 50.8789 0 39.4531 0 25.4492C0 11.4258 11.4258 0 25.4297 0C39.4531 0 50.8789 11.4258 50.8789 25.4492ZM25.4102 12.5977C24.3945 11.5234 23.0273 11.0352 21.5625 11.0352C18.6914 11.0352 15.7422 12.9688 15.6836 15.6641C13.0273 15.9375 10.8789 18.4766 10.8789 21.2305C10.8789 22.5977 11.3086 23.8672 12.3438 24.9609C11.0352 26.3086 10.4297 27.8125 10.4297 29.2383C10.4297 32.0117 12.3047 33.8867 14.9805 33.8867C15.8203 33.8867 16.7773 33.6719 17.7734 33.1445C18.5938 33.9258 20.5273 34.8047 22.5 34.8242C22.1094 33.0078 20.8984 30.5469 20.0977 29.1211C20.5469 29.0625 20.957 28.9648 21.2891 28.7891C22.5781 31.1328 23.9062 34.0625 23.9062 36.0156C23.9062 37.9102 23.6914 39.6875 23.6914 40.3906C23.6914 40.8789 24.4141 41.2109 25.4102 41.2109C26.4258 41.2109 27.1289 40.8789 27.1289 40.3906C27.1289 39.6875 26.9336 37.9102 26.9336 36.0156C26.9336 34.1406 28.1445 31.3867 29.4922 28.7891C29.8438 28.9648 30.2539 29.0625 30.7227 29.1211C29.9414 30.5469 28.7305 33.0078 28.3398 34.8242C30.293 34.8047 32.2266 33.9258 33.0469 33.1445C34.0625 33.6719 35 33.8867 35.8398 33.8867C38.5352 33.8867 40.3906 32.0117 40.3906 29.2383C40.3906 27.8125 39.7852 26.3086 38.4766 24.9609C39.5117 23.8672 39.9414 22.5977 39.9414 21.2305C39.9414 18.4766 37.8125 15.9375 35.1562 15.6641C35.0781 12.9688 32.1484 11.0352 29.2773 11.0352C27.8125 11.0352 26.4258 11.5234 25.4102 12.5977ZM24.4922 27.3438L24.5117 31.4453C24.0625 30.293 23.418 29.0234 22.6367 27.6367C22.793 27.3438 22.9492 26.9922 23.0664 26.6602C23.5156 26.9922 23.9648 27.2266 24.4922 27.3438ZM28.1836 27.6172C27.3828 29.1016 26.7578 30.3125 26.3086 31.4258L26.2695 27.3633C26.8555 27.2461 27.3047 27.0117 27.7734 26.6602C27.8711 26.9922 28.0078 27.3242 28.1836 27.6172Z" fill="black" fill-opacity="0.85"/>
 </g>
</svg>
