<?xml version="1.0" encoding="UTF-8"?>
<!--Generator: Apple Native CoreSVG 326-->
<!DOCTYPE svg
PUBLIC "-//W3C//DTD SVG 1.1//EN"
       "http://www.w3.org/Graphics/SVG/1.1/DTD/svg11.dtd">
<svg version="1.1" xmlns="http://www.w3.org/2000/svg" xmlns:xlink="http://www.w3.org/1999/xlink" viewBox="0 0 51.25 51.1133">
 <g>
  <rect height="51.1133" opacity="0" width="51.25" x="0" y="0"/>
  <path d="M50.8789 25.6641C50.8789 39.6875 39.4531 51.1133 25.4297 51.1133C11.4258 51.1133 0 39.6875 0 25.6641C0 11.6406 11.4258 0.234375 25.4297 0.234375C39.4531 0.234375 50.8789 11.6406 50.8789 25.6641ZM22.3242 13.9453L12.6367 30.8203C11.0547 33.5547 12.2266 36.25 15.4102 36.25L35.5078 36.25C38.6914 36.25 39.8633 33.5547 38.2812 30.8203L28.5352 13.8867C27.0703 11.3086 23.9258 11.1719 22.3242 13.9453ZM26.0547 15.8398L35.3516 32.0117C35.7031 32.5586 35.5859 33.1055 34.8438 33.1055L16.0742 33.1055C15.332 33.1055 15.2148 32.5586 15.5664 32.0117L24.8242 15.8594C25.1172 15.3125 25.7617 15.332 26.0547 15.8398Z" fill="black" fill-opacity="0.85"/>
 </g>
</svg>
