<?xml version="1.0" encoding="UTF-8"?>
<!--Generator: Apple Native CoreSVG 326-->
<!DOCTYPE svg
PUBLIC "-//W3C//DTD SVG 1.1//EN"
       "http://www.w3.org/Graphics/SVG/1.1/DTD/svg11.dtd">
<svg version="1.1" xmlns="http://www.w3.org/2000/svg" xmlns:xlink="http://www.w3.org/1999/xlink" viewBox="0 0 52.7344 47.6758">
 <g>
  <rect height="47.6758" opacity="0" width="52.7344" x="0" y="0"/>
  <path d="M0 40.8008C0 44.5117 2.61719 47.5 6.69922 47.5L45.6836 47.5C49.7461 47.5 52.3633 44.5117 52.3633 40.8008C52.3633 39.707 52.0703 38.5547 51.4648 37.5L31.9336 3.37891C30.6836 1.15234 28.457 0 26.1914 0C23.9258 0 21.6797 1.15234 20.4297 3.37891L0.878906 37.5391C0.292969 38.5742 0 39.707 0 40.8008ZM11.3086 26.1328L23.3789 5.01953C23.9844 3.94531 25.0977 3.4375 26.1914 3.4375C27.2852 3.4375 28.3398 3.92578 28.9648 5.01953L40.9961 26.1328Z" fill="black" fill-opacity="0.85"/>
 </g>
</svg>
