<?xml version="1.0" encoding="UTF-8"?>
<!--Generator: Apple Native CoreSVG 326-->
<!DOCTYPE svg
PUBLIC "-//W3C//DTD SVG 1.1//EN"
       "http://www.w3.org/Graphics/SVG/1.1/DTD/svg11.dtd">
<svg version="1.1" xmlns="http://www.w3.org/2000/svg" xmlns:xlink="http://www.w3.org/1999/xlink" viewBox="0 0 65.8126 54.1211">
 <g>
  <rect height="54.1211" opacity="0" width="65.8126" x="0" y="0"/>
  <path d="M20.0352 54.1211L45.4063 54.1211C49.8985 54.1211 52.0664 51.9922 52.1446 47.5391L52.4571 22.6953L58.8633 24.1406C61.0508 24.6289 62.4375 23.75 63.0039 21.5039L65.2696 12.8125C65.8555 10.5859 64.9961 9.02344 62.8477 8.10547L45.1914 0.429688C44.2344 0 43.3946 0.0390625 42.5352 0.46875C39.3711 1.99219 36.4414 2.83203 32.7305 2.83203C29 2.83203 26.0703 1.99219 22.9258 0.46875C22.0469 0.0390625 21.2071 0 20.25 0.429688L2.59378 8.10547C0.445346 9.02344-0.394498 10.5859 0.171908 12.8125L2.43753 21.5039C3.02347 23.75 4.41019 24.6289 6.57816 24.1406L12.9844 22.6953L13.3164 47.5391C13.375 51.9922 15.543 54.1211 20.0352 54.1211ZM32.7305 10.5469C28.375 10.5469 25.0938 8.10547 23.9219 4.21875C26.6563 5.29297 29.7422 5.89844 32.7305 5.89844C35.6993 5.89844 38.7852 5.29297 41.5196 4.21875C40.3868 8.06641 37.125 10.5469 32.7305 10.5469Z" fill="black" fill-opacity="0.85"/>
 </g>
</svg>
