<?xml version="1.0" encoding="UTF-8"?>
<!--Generator: Apple Native CoreSVG 326-->
<!DOCTYPE svg
PUBLIC "-//W3C//DTD SVG 1.1//EN"
       "http://www.w3.org/Graphics/SVG/1.1/DTD/svg11.dtd">
<svg version="1.1" xmlns="http://www.w3.org/2000/svg" xmlns:xlink="http://www.w3.org/1999/xlink" viewBox="0 0 55.5273 53.1055">
 <g>
  <rect height="53.1055" opacity="0" width="55.5273" x="0" y="0"/>
  <path d="M30.5273 0.839844L52.1094 13.3008C52.8906 13.75 53.2422 14.3164 53.2422 14.9609C53.2422 15.8398 52.5781 16.6797 51.3867 16.6797L49.1211 16.6797L49.1211 46.5039L50.7227 46.5039C51.582 46.5039 52.0898 47.0117 52.0898 47.8516L52.0898 49.6094L53.418 49.6094C54.375 49.6094 55.1562 50.3906 55.1562 51.3477C55.1562 52.2852 54.375 53.0664 53.418 53.0664L1.73828 53.0664C0.78125 53.0664 0 52.2852 0 51.3477C0 50.3906 0.78125 49.6094 1.73828 49.6094L3.06641 49.6094L3.06641 47.8516C3.06641 47.0117 3.57422 46.5039 4.45312 46.5039L6.05469 46.5039L6.05469 16.6797L3.76953 16.6797C2.57812 16.6797 1.91406 15.8398 1.91406 14.9609C1.91406 14.3164 2.24609 13.75 3.04688 13.3008L24.6289 0.839844C25.5664 0.292969 26.6016 0 27.5781 0C28.5547 0 29.5703 0.292969 30.5273 0.839844ZM19.8633 17.7148C19.082 17.7148 18.5742 18.1836 18.5742 18.9062C18.5742 19.6094 19.1016 20.0781 19.8633 20.0781L26.2695 20.0781L26.2695 27.9102L21.9531 29.6484C21.5625 29.8438 21.3867 30.0977 21.3867 30.4492C21.3867 30.8594 21.6797 31.2305 22.1484 31.2305C22.2852 31.2305 22.4414 31.1914 22.5977 31.1328L26.2695 29.6289L26.2695 32.9297L21.9531 34.668C21.5625 34.8438 21.3867 35.0781 21.3867 35.4492C21.3867 35.8594 21.6797 36.2109 22.1484 36.2109C22.2852 36.2109 22.4414 36.1914 22.5977 36.1328L26.2695 34.6484L26.2695 39.3945C26.2695 40.2539 26.7969 40.7422 27.6172 40.7422C28.4375 40.7422 28.9453 40.2539 28.9453 39.3945L28.9453 33.5352L33.2422 31.7969C33.6523 31.6016 33.8281 31.3867 33.8281 30.9961C33.8281 30.4688 33.4766 30.2344 33.0859 30.2344C32.9492 30.2344 32.793 30.2539 32.6367 30.3125L28.9453 31.8164L28.9453 28.5352L33.2422 26.7773C33.6523 26.6016 33.8281 26.3867 33.8281 25.9961C33.8281 25.4688 33.4766 25.2344 33.0859 25.2344C32.9492 25.2344 32.793 25.2734 32.6367 25.3125L28.9453 26.8164L28.9453 20.0781L35.3516 20.0781C36.1328 20.0781 36.6211 19.5703 36.6211 18.9062C36.6211 18.1836 36.1133 17.7148 35.3516 17.7148Z" fill="black" fill-opacity="0.85"/>
 </g>
</svg>
