<?xml version="1.0" encoding="UTF-8"?>
<!--Generator: Apple Native CoreSVG 326-->
<!DOCTYPE svg
PUBLIC "-//W3C//DTD SVG 1.1//EN"
       "http://www.w3.org/Graphics/SVG/1.1/DTD/svg11.dtd">
<svg version="1.1" xmlns="http://www.w3.org/2000/svg" xmlns:xlink="http://www.w3.org/1999/xlink" viewBox="0 0 46.2891 45.918">
 <g>
  <rect height="45.918" opacity="0" width="46.2891" x="0" y="0"/>
  <path d="M45.918 7.53906L45.918 38.3984C45.918 43.3594 43.3594 45.918 38.3008 45.918L7.59766 45.918C2.55859 45.918 0 43.3984 0 38.3984L0 7.53906C0 2.53906 2.55859 0 7.59766 0L38.3008 0C43.3594 0 45.918 2.55859 45.918 7.53906ZM18.1445 12.6562L18.1445 17.5391L14.8633 18.9062C14.4531 19.043 14.2969 19.3164 14.2969 19.668C14.2969 20.1172 14.6094 20.4492 15.0586 20.4492C15.1758 20.4492 15.3516 20.4102 15.5078 20.3516L18.1445 19.2578L18.1445 22.5586L14.8633 23.8867C14.4531 24.043 14.2969 24.2773 14.2969 24.6484C14.2969 25.0781 14.6094 25.4102 15.0586 25.4102C15.1758 25.4102 15.3711 25.3906 15.5273 25.3125L18.1445 24.2383L18.1445 32.4023C18.1445 33.418 18.8672 34.082 19.9023 34.082L20.1953 34.082C23.3008 34.082 26.4062 32.9297 28.3984 30.9766C30.0781 29.2969 31.3281 27.0117 31.3281 24.7656C31.3281 24.043 30.9375 23.4766 30.0977 23.4766C29.3164 23.4766 28.8867 23.9648 28.8086 24.7266C28.6328 26.4453 27.8711 27.9492 26.7578 29.082C25.2344 30.7031 23.0664 31.5039 20.8398 31.5039L20.8398 23.125L26.2695 20.8984C26.6602 20.7422 26.8555 20.4688 26.8555 20.1562C26.8555 19.668 26.543 19.3555 26.0938 19.3555C25.957 19.3555 25.8203 19.4141 25.6445 19.4727L20.8398 21.4453L20.8398 18.1641L26.2695 15.918C26.6797 15.7812 26.875 15.4883 26.875 15.1172C26.875 14.8047 26.6797 14.3555 26.1133 14.3555C25.9766 14.3555 25.8398 14.4141 25.6445 14.4727L20.8398 16.4648L20.8398 12.6562C20.8398 11.8359 20.293 11.2695 19.5117 11.2695C18.7109 11.2695 18.1445 11.8359 18.1445 12.6562Z" fill="black" fill-opacity="0.85"/>
 </g>
</svg>
