<?xml version="1.0" encoding="UTF-8"?>
<!--Generator: Apple Native CoreSVG 326-->
<!DOCTYPE svg
PUBLIC "-//W3C//DTD SVG 1.1//EN"
       "http://www.w3.org/Graphics/SVG/1.1/DTD/svg11.dtd">
<svg version="1.1" xmlns="http://www.w3.org/2000/svg" xmlns:xlink="http://www.w3.org/1999/xlink" viewBox="0 0 75.9766 61.5039">
 <g>
  <rect height="61.5039" opacity="0" width="75.9766" x="0" y="0"/>
  <path d="M43.3984 53.3398C43.3984 54.0602 43.4585 54.7314 43.576 55.3516L21.2305 55.3516C20.2734 55.3516 19.4922 54.5703 19.4922 53.6133C19.4922 52.6367 20.2734 51.8555 21.2305 51.8555L43.3984 51.8555ZM64.7266 12.2266L64.7266 20.957L61.2695 20.957L61.2695 12.3047C61.2695 10.5859 60.2539 9.58984 58.5352 9.58984L8.92578 9.58984C7.20703 9.58984 6.21094 10.5859 6.21094 12.3047L6.21094 41.1914C6.21094 42.8906 7.20703 43.8867 8.92578 43.8867L43.3984 43.8867L43.3984 47.3437L8.84766 47.3438C5.03906 47.3438 2.73438 45.0586 2.73438 41.25L2.73438 12.2266C2.73438 8.41797 5.03906 6.13281 8.84766 6.13281L58.6133 6.13281C62.4219 6.13281 64.7266 8.41797 64.7266 12.2266Z" fill="black" fill-opacity="0.425"/>
  <path d="M51.5234 58.3984L67.8516 58.3984C71.1719 58.3984 72.8711 56.6992 72.8711 53.3398L72.8711 29.1406C72.8711 25.7617 71.1719 24.082 67.8516 24.082L51.5234 24.082C48.1641 24.082 46.5039 25.7617 46.5039 29.1406L46.5039 53.3398C46.5039 56.6992 48.1641 58.3984 51.5234 58.3984ZM59.6875 36.543C57.3633 36.543 55.5078 34.6875 55.5273 32.3438C55.5469 30.0195 57.3633 28.2031 59.6875 28.2031C62.0312 28.2031 63.8477 30.0195 63.8477 32.3438C63.8477 34.6875 62.0312 36.543 59.6875 36.543ZM59.668 54.043C55.5469 54.043 52.2266 50.7031 52.2266 46.543C52.2266 42.3828 55.5469 39.082 59.668 39.0625C63.7891 39.043 67.1484 42.3828 67.1484 46.543C67.1484 50.7031 63.7891 54.043 59.668 54.043ZM59.668 34.5703C60.918 34.5703 61.8945 33.5938 61.8945 32.3438C61.8945 31.0938 60.918 30.1367 59.668 30.1367C58.457 30.1367 57.4609 31.1328 57.4609 32.3438C57.4609 33.5938 58.4375 34.5703 59.668 34.5703ZM59.668 49.8242C61.4844 49.8242 62.9688 48.3594 62.9688 46.543C62.9688 44.668 61.5234 43.2422 59.668 43.2422C57.8711 43.2422 56.4062 44.668 56.4062 46.543C56.4062 48.3594 57.8711 49.8242 59.668 49.8242Z" fill="black" fill-opacity="0.85"/>
  <path d="M59.6875 36.543C57.3633 36.543 55.5078 34.6875 55.5273 32.3438C55.5469 30.0195 57.3633 28.2031 59.6875 28.2031C62.0312 28.2031 63.8477 30.0195 63.8477 32.3438C63.8477 34.6875 62.0312 36.543 59.6875 36.543ZM59.668 54.043C55.5469 54.043 52.2266 50.7031 52.2266 46.543C52.2266 42.3828 55.5469 39.082 59.668 39.0625C63.7891 39.043 67.1484 42.3828 67.1484 46.543C67.1484 50.7031 63.7891 54.043 59.668 54.043ZM59.668 34.5703C60.918 34.5703 61.8945 33.5938 61.8945 32.3438C61.8945 31.0938 60.918 30.1367 59.668 30.1367C58.457 30.1367 57.4609 31.1328 57.4609 32.3438C57.4609 33.5938 58.4375 34.5703 59.668 34.5703ZM59.668 49.8242C61.4844 49.8242 62.9688 48.3594 62.9688 46.543C62.9688 44.668 61.5234 43.2422 59.668 43.2422C57.8711 43.2422 56.4062 44.668 56.4062 46.543C56.4062 48.3594 57.8711 49.8242 59.668 49.8242Z" fill="black" fill-opacity="0.2125"/>
 </g>
</svg>
