<?xml version="1.0" encoding="UTF-8"?>
<!--Generator: Apple Native CoreSVG 326-->
<!DOCTYPE svg
PUBLIC "-//W3C//DTD SVG 1.1//EN"
       "http://www.w3.org/Graphics/SVG/1.1/DTD/svg11.dtd">
<svg version="1.1" xmlns="http://www.w3.org/2000/svg" xmlns:xlink="http://www.w3.org/1999/xlink" viewBox="0 0 51.25 50.918">
 <g>
  <rect height="50.918" opacity="0" width="51.25" x="0" y="0"/>
  <path d="M25.4297 50.8789C39.4727 50.8789 50.8789 39.4922 50.8789 25.4492C50.8789 11.4062 39.4727 0 25.4297 0C11.3867 0 0 11.4062 0 25.4492C0 39.4922 11.3867 50.8789 25.4297 50.8789ZM25.4297 47.2461C13.3789 47.2461 3.63281 37.5 3.63281 25.4492C3.63281 13.3984 13.3789 3.65234 25.4297 3.65234C37.4805 3.65234 47.2266 13.3984 47.2266 25.4492C47.2266 37.5 37.4805 47.2461 25.4297 47.2461Z" fill="black" fill-opacity="0.85"/>
  <path d="M13.9258 34.1602L36.8555 34.1602C38.8281 34.1602 40.2344 32.7734 40.2344 30.8203L40.2344 17.5977C40.2344 15.6445 38.8281 14.2383 36.8555 14.2383L13.9258 14.2383C11.9531 14.2383 10.5859 15.6445 10.5859 17.5977L10.5859 30.8203C10.5859 32.7734 11.9531 34.1602 13.9258 34.1602ZM14.1797 31.875C13.457 31.875 12.9492 31.3672 12.9492 30.6445L12.9492 17.7734C12.9492 17.0312 13.457 16.5234 14.1797 16.5234L36.6406 16.5234C37.3633 16.5234 37.8516 17.0312 37.8516 17.7734L37.8516 30.6445C37.8516 31.3672 37.3633 31.875 36.6406 31.875ZM18.6914 39.1797L32.168 39.1797C32.793 39.1797 33.3008 38.6719 33.3008 38.0469C33.3008 37.4219 32.793 36.9141 32.168 36.9141L18.6914 36.9141C18.0664 36.9141 17.5586 37.4219 17.5586 38.0469C17.5586 38.6719 18.0664 39.1797 18.6914 39.1797Z" fill="black" fill-opacity="0.85"/>
 </g>
</svg>
