<?xml version="1.0" encoding="UTF-8"?>
<!--Generator: Apple Native CoreSVG 326-->
<!DOCTYPE svg
PUBLIC "-//W3C//DTD SVG 1.1//EN"
       "http://www.w3.org/Graphics/SVG/1.1/DTD/svg11.dtd">
<svg version="1.1" xmlns="http://www.w3.org/2000/svg" xmlns:xlink="http://www.w3.org/1999/xlink" viewBox="0 0 62.3438 49.2383">
 <g>
  <rect height="49.2383" opacity="0" width="62.3438" x="0" y="0"/>
  <path d="M6.11328 41.1914L55.8789 41.1914C59.9023 41.1914 61.9727 39.1992 61.9727 35.0977L61.9727 6.09375C61.9727 1.99219 59.9023 0 55.8789 0L6.11328 0C2.08984 0 0 1.99219 0 6.09375L0 35.0977C0 39.1992 2.08984 41.1914 6.11328 41.1914ZM18.4961 49.1992L43.4961 49.1992C44.4531 49.1992 45.2344 48.418 45.2344 47.4609C45.2344 46.4844 44.4531 45.7031 43.4961 45.7031L18.4961 45.7031C17.5195 45.7031 16.7383 46.4844 16.7383 47.4609C16.7383 48.418 17.5195 49.1992 18.4961 49.1992Z" fill="black" fill-opacity="0.85"/>
 </g>
</svg>
