<?xml version="1.0" encoding="UTF-8"?>
<!--Generator: Apple Native CoreSVG 326-->
<!DOCTYPE svg
PUBLIC "-//W3C//DTD SVG 1.1//EN"
       "http://www.w3.org/Graphics/SVG/1.1/DTD/svg11.dtd">
<svg version="1.1" xmlns="http://www.w3.org/2000/svg" xmlns:xlink="http://www.w3.org/1999/xlink" viewBox="0 0 51.25 50.918">
 <g>
  <rect height="50.918" opacity="0" width="51.25" x="0" y="0"/>
  <path d="M50.8789 25.4492C50.8789 39.4531 39.4531 50.8789 25.4297 50.8789C11.4258 50.8789 0 39.4531 0 25.4492C0 11.4258 11.4258 0 25.4297 0C39.4531 0 50.8789 11.4258 50.8789 25.4492ZM31.9922 14.8633L25.5078 33.1641L25.3516 33.1641L18.8672 14.8633C18.4766 13.7695 17.9492 13.3203 16.9727 13.3203C15.918 13.3203 15.1758 14.0234 15.1758 15C15.1758 15.332 15.2148 15.6055 15.3516 15.9766L22.7734 35.3516C23.3398 36.8359 24.082 37.4219 25.4492 37.4219C26.7578 37.4219 27.5781 36.7578 28.1055 35.3125L35.5078 15.9766C35.6445 15.6055 35.6836 15.332 35.6836 15C35.6836 14.0039 34.9414 13.3203 33.8867 13.3203C32.9102 13.3203 32.3828 13.7891 31.9922 14.8633Z" fill="black" fill-opacity="0.85"/>
 </g>
</svg>
