<?xml version="1.0" encoding="UTF-8"?>
<!--Generator: Apple Native CoreSVG 326-->
<!DOCTYPE svg
PUBLIC "-//W3C//DTD SVG 1.1//EN"
       "http://www.w3.org/Graphics/SVG/1.1/DTD/svg11.dtd">
<svg version="1.1" xmlns="http://www.w3.org/2000/svg" xmlns:xlink="http://www.w3.org/1999/xlink" viewBox="0 0 51.1719 50.918">
 <g>
  <rect height="50.918" opacity="0" width="51.1719" x="0" y="0"/>
  <path d="M33.9258 13.4375C36.3477 9.19922 37.168 5.29297 35.7227 2.26562C32.5391 0.820312 29.0234 0 25.3516 0C17.8516 0 11.0547 3.37891 6.42578 8.67188C15.3906 4.84375 27.8711 8.41797 33.9258 13.4375ZM23.9062 25.3125C27.3242 22.207 30.2148 19.0234 32.3633 15.957C25.6055 10.3125 11.0742 6.71875 2.87109 13.6914C1.19141 16.7773 0.175781 20.2734 0 24.043C5.95703 19.7852 15.8594 21.8359 23.9062 25.3125ZM8.20312 24.4141C4.78516 24.4141 1.875 25.3125 0 27.5195C0.878906 38.2031 8.59375 47.1289 18.6914 49.8438C13.9062 44.6289 8.61328 35.2734 8.20312 24.4141ZM22.9492 28.0469C19.0234 26.2891 14.8438 25.0195 11.0742 24.6875C11.7188 38.2227 20.2148 48.9648 24.5312 50.8594C27.9102 50.9766 31.3672 50.3516 34.3164 49.1797C27.9102 45.625 23.3008 35.918 22.9492 28.0469ZM38.0078 47.4609C45.6055 43.0469 50.8008 34.7656 50.8008 25.4492C50.8008 22.207 50.1562 19.1406 49.0234 16.3086C47.6562 23.0273 42.793 32.9492 30.5859 41.8359C32.7148 44.9023 35.293 47.0703 38.0078 47.4609ZM29.1016 39.3945C44.0625 28.2617 47.4023 15.957 46.6992 11.7188C44.707 8.63281 42.0703 6.01562 38.9844 4.04297C40.0781 11.0547 34.0039 20.0195 25.7812 27.4805C25.8984 31.4844 27.168 35.7812 29.1016 39.3945Z" fill="black" fill-opacity="0.85"/>
 </g>
</svg>
