<?xml version="1.0" encoding="UTF-8"?>
<!--Generator: Apple Native CoreSVG 326-->
<!DOCTYPE svg
PUBLIC "-//W3C//DTD SVG 1.1//EN"
       "http://www.w3.org/Graphics/SVG/1.1/DTD/svg11.dtd">
<svg version="1.1" xmlns="http://www.w3.org/2000/svg" xmlns:xlink="http://www.w3.org/1999/xlink" viewBox="0 0 60.1953 51.3867">
 <g>
  <rect height="51.3867" opacity="0" width="60.1953" x="0" y="0"/>
  <path d="M7.32422 51.3867L48.1836 51.3867C53.0469 51.3867 55.5078 48.9062 55.5078 44.1406L55.5078 37.207L52.0117 37.207L52.0117 43.9648C52.0117 46.582 50.6055 47.8906 48.125 47.8906L7.38281 47.8906C4.86328 47.8906 3.49609 46.582 3.49609 43.9648L3.49609 18.2812C3.49609 15.6836 4.86328 14.3359 7.38281 14.3359L48.125 14.3359C50.6055 14.3359 52.0117 15.6836 52.0117 18.2812L52.0117 24.3164L55.5078 24.3164L55.5078 18.1055C55.5078 13.3398 53.0469 10.8594 48.1836 10.8594L18.2227 10.8594C17.793 10.8594 17.7344 10.4492 18.1836 10.3516L39.7656 4.45312C42.3828 3.71094 43.7891 4.78516 43.7891 7.12891L43.7891 12.3438L47.3047 12.0703L47.3047 7.40234C47.3047 1.91406 43.5547-0.0195312 38.2422 1.48438L5.23438 10.8984C1.67969 11.9531 0 14.1797 0 18.1055L0 44.1406C0 48.9258 2.5 51.3867 7.32422 51.3867ZM45.7031 33.6914C47.1484 33.6914 48.3203 32.5195 48.3203 31.0742C48.3203 29.6289 47.1484 28.457 45.7031 28.457C44.2383 28.457 43.0664 29.6289 43.0664 31.0742C43.0664 32.5195 44.2383 33.6914 45.7031 33.6914ZM45.8008 38.9844L54.8828 38.9844C57.9297 38.9844 59.8242 36.9336 59.8242 34.043L59.8242 28.1445C59.8242 25.2539 57.9297 23.2031 54.8828 23.2031L45.8008 23.2031C40.5469 23.2031 37.168 25.8594 37.168 31.0938C37.168 36.3281 40.5469 38.9844 45.8008 38.9844ZM45.9961 36.0547C42.168 36.0547 40.2539 34.1992 40.2539 31.0938C40.2539 27.9688 42.168 26.1328 45.9961 26.1328L54.2578 26.1328C55.9961 26.1328 56.8945 27.1094 56.8945 28.7695L56.8945 33.418C56.8945 35.0781 55.9961 36.0547 54.2578 36.0547Z" fill="black" fill-opacity="0.85"/>
 </g>
</svg>
