<?xml version="1.0" encoding="UTF-8"?>
<!--Generator: Apple Native CoreSVG 326-->
<!DOCTYPE svg
PUBLIC "-//W3C//DTD SVG 1.1//EN"
       "http://www.w3.org/Graphics/SVG/1.1/DTD/svg11.dtd">
<svg version="1.1" xmlns="http://www.w3.org/2000/svg" xmlns:xlink="http://www.w3.org/1999/xlink" viewBox="0 0 63.6719 60.0977">
 <g>
  <rect height="60.0977" opacity="0" width="63.6719" x="0" y="0"/>
  <path d="M13.1445 60.0781L50.1562 60.0781C54.6289 60.0781 58.0078 59.6094 60.4297 57.1875C62.8516 54.7656 63.3008 51.4062 63.3008 46.9336L63.3008 13.125C63.3008 8.65234 62.8516 5.29297 60.4297 2.89062C58.0078 0.46875 54.6289 0 50.1562 0L13.0078 0C8.69141 0 5.29297 0.46875 2.87109 2.89062C0.449219 5.3125 0 8.67188 0 13.0078L0 46.9336C0 51.4062 0.429688 54.7656 2.85156 57.1875C5.29297 59.6094 8.67188 60.0781 13.1445 60.0781ZM12.4609 56.6016C9.62891 56.6016 6.93359 56.1719 5.39062 54.6484C3.86719 53.1055 3.45703 50.4492 3.45703 47.6172L3.45703 12.5781C3.45703 9.62891 3.86719 6.95312 5.39062 5.41016C6.91406 3.86719 9.64844 3.45703 12.5781 3.45703L50.8398 3.45703C53.6719 3.45703 56.3672 3.88672 57.8906 5.42969C59.4336 6.95312 59.8242 9.60938 59.8242 12.4414L59.8242 47.6172C59.8242 50.4492 59.4141 53.1055 57.8906 54.6484C56.3672 56.1914 53.6719 56.6016 50.8398 56.6016Z" fill="black" fill-opacity="0.85"/>
  <path d="M10.8398 37.9492L52.4609 37.9492C53.2227 37.9492 53.8281 37.3438 53.8281 36.5625C53.8281 35.8203 53.2227 35.2148 52.4609 35.2148L10.8398 35.2148C10.0977 35.2148 9.47266 35.8203 9.47266 36.5625C9.47266 37.3438 10.0977 37.9492 10.8398 37.9492ZM10.8398 44.6289L52.4609 44.6289C53.2227 44.6289 53.8281 44.0234 53.8281 43.2422C53.8281 42.5 53.2227 41.8945 52.4609 41.8945L10.8398 41.8945C10.0977 41.8945 9.47266 42.5 9.47266 43.2422C9.47266 44.0234 10.0977 44.6289 10.8398 44.6289ZM10.8398 51.3086L36.4258 51.3086C37.1875 51.3086 37.793 50.7031 37.793 49.9219C37.793 49.1797 37.1875 48.5742 36.4258 48.5742L10.8398 48.5742C10.0977 48.5742 9.47266 49.1797 9.47266 49.9219C9.47266 50.7031 10.0977 51.3086 10.8398 51.3086ZM11.7969 19.0039L17.2656 19.0039C19.4531 19.0039 20.957 17.5 20.957 15.3125L20.957 11.4453C20.957 9.25781 19.4531 7.75391 17.2656 7.75391L11.7969 7.75391C9.60938 7.75391 8.08594 9.25781 8.08594 11.4453L8.08594 15.3125C8.08594 17.5 9.60938 19.0039 11.7969 19.0039Z" fill="black" fill-opacity="0.85"/>
 </g>
</svg>
