<?xml version="1.0" encoding="UTF-8"?>
<!--Generator: Apple Native CoreSVG 326-->
<!DOCTYPE svg
PUBLIC "-//W3C//DTD SVG 1.1//EN"
       "http://www.w3.org/Graphics/SVG/1.1/DTD/svg11.dtd">
<svg version="1.1" xmlns="http://www.w3.org/2000/svg" xmlns:xlink="http://www.w3.org/1999/xlink" viewBox="0 0 59.8828 59.1211">
 <g>
  <rect height="59.1211" opacity="0" width="59.8828" x="0" y="0"/>
  <path d="M6.3212 17.3963C4.44507 17.7628 3.45703 19.0916 3.45703 21.3672L3.45703 38.6133C3.45703 41.3281 4.86328 42.6953 7.5 42.6953L21.1357 42.6953L23.1601 46.1523L7.42188 46.1523C2.51953 46.1523 0 43.6914 0 38.8086L0 21.1719C0 17.4127 1.50539 15.0772 4.45961 14.2172ZM59.5117 21.1719L59.5117 38.8086C59.5117 43.6523 57.0117 46.1523 52.0898 46.1523L27.212 46.1523L25.185 42.6953L52.0312 42.6953C54.5898 42.6953 56.0547 41.3281 56.0547 38.6133L56.0547 21.3672C56.0547 18.6523 54.5898 17.2852 52.0312 17.2852L34.6094 17.2852L34.6094 13.8281L52.0898 13.8281C57.0117 13.8281 59.5117 16.3477 59.5117 21.1719ZM24.9023 13.8281L24.9023 17.2852L10.2863 17.2852L8.25933 13.8281Z" fill="black" fill-opacity="0.85"/>
  <path d="M31.5039 25.5664L31.5039 31.7969C31.5039 32.7539 30.7031 33.5352 29.7461 33.5352C28.8281 33.5352 28.0273 32.7539 28.0273 31.7969L28.0273 25.5664C28.0273 24.6094 28.8281 23.8086 29.7461 23.8086C30.7031 23.8086 31.5039 24.6094 31.5039 25.5664ZM31.5039 12.3438L31.5039 18.5742C31.5039 19.5312 30.7031 20.3125 29.7461 20.3125C28.8281 20.3125 28.0273 19.5312 28.0273 18.5742L28.0273 12.3438C28.0273 11.3867 28.8281 10.5859 29.7461 10.5859C30.7031 10.5859 31.5039 11.3867 31.5039 12.3438ZM11.8359 1.54297C12.0508 2.48047 11.4648 3.30078 10.5273 3.67188C8.57422 4.31641 6.85547 5.56641 5.48828 7.22656C4.84375 7.98828 3.90625 8.22266 3.08594 7.69531C2.22656 7.16797 1.93359 6.03516 2.73438 5.07812C4.49219 2.87109 6.81641 1.21094 9.29688 0.410156C10.5664-0.0195312 11.6211 0.488281 11.8359 1.54297ZM50.2148 0.410156C52.6953 1.21094 55.0391 2.87109 56.7969 5.07812C57.5781 6.03516 57.2852 7.16797 56.4258 7.69531C55.6055 8.22266 54.6875 7.98828 54.0234 7.22656C52.6562 5.56641 50.9375 4.31641 48.9844 3.67188C48.0469 3.30078 47.4805 2.48047 47.6758 1.54297C47.8906 0.488281 48.9453-0.0195312 50.2148 0.410156ZM20.6445 0.429688C23.0859 1.21094 25.4297 2.85156 27.207 5.05859C27.9297 6.01562 27.7344 7.12891 26.875 7.65625C26.0156 8.16406 25.0977 8.02734 24.4141 7.20703C23.0664 5.56641 21.3281 4.31641 19.3945 3.67188C18.457 3.30078 17.9297 2.5 18.0859 1.58203C18.2812 0.566406 19.2969-0.0390625 20.6445 0.429688ZM41.4258 1.58203C41.582 2.5 41.0547 3.30078 40.1172 3.67188C38.1641 4.31641 36.4453 5.56641 35.0977 7.20703C34.4141 8.02734 33.4766 8.16406 32.6562 7.65625C31.7773 7.12891 31.582 6.01562 32.3242 5.05859C34.082 2.85156 36.4258 1.21094 38.8672 0.429688C40.2344-0.0390625 41.2305 0.566406 41.4258 1.58203Z" fill="black" fill-opacity="0.85"/>
  <path d="M29.668 59.1211C32.5391 59.1211 34.9609 56.7188 34.9609 53.8281C34.9609 50.9375 32.5586 48.5352 29.668 48.5352C26.7969 48.5352 24.3945 50.9375 24.3945 53.8281C24.3945 56.7383 26.7578 59.1211 29.668 59.1211ZM29.668 56.1719C28.3594 56.1719 27.3242 55.1367 27.3242 53.8281C27.3242 52.5195 28.3594 51.4453 29.668 51.4453C30.9766 51.4453 32.0703 52.5391 32.0703 53.8281C32.0703 55.1367 30.9766 56.1719 29.668 56.1719ZM26.3281 51.5625L29.4336 49.9414L6.81641 11.3672C6.34766 10.5859 5.39062 10.2539 4.41406 10.7227C3.51562 11.2109 3.33984 12.3047 3.80859 13.1055Z" fill="black" fill-opacity="0.85"/>
 </g>
</svg>
