<?xml version="1.0" encoding="UTF-8"?>
<!--Generator: Apple Native CoreSVG 326-->
<!DOCTYPE svg
PUBLIC "-//W3C//DTD SVG 1.1//EN"
       "http://www.w3.org/Graphics/SVG/1.1/DTD/svg11.dtd">
<svg version="1.1" xmlns="http://www.w3.org/2000/svg" xmlns:xlink="http://www.w3.org/1999/xlink" viewBox="0 0 51.25 51.0352">
 <g>
  <rect height="51.0352" opacity="0" width="51.25" x="0" y="0"/>
  <path d="M25.4297 51.0352C39.4727 51.0352 50.8789 39.6484 50.8789 25.6055C50.8789 11.5625 39.4727 0.15625 25.4297 0.15625C11.3867 0.15625 0 11.5625 0 25.6055C0 39.6484 11.3867 51.0352 25.4297 51.0352ZM25.4297 47.4023C13.3789 47.4023 3.63281 37.6562 3.63281 25.6055C3.63281 13.5547 13.3789 3.80859 25.4297 3.80859C37.4805 3.80859 47.2266 13.5547 47.2266 25.6055C47.2266 37.6562 37.4805 47.4023 25.4297 47.4023Z" fill="black" fill-opacity="0.85"/>
  <path d="M18.4375 39.4531L32.3828 39.4531C34.9219 39.4531 35.9961 38.0664 36.3672 35.5664L38.2031 22.9492L12.6172 22.9492L14.4727 35.5664C14.8242 38.0859 15.8984 39.4531 18.4375 39.4531ZM21.5039 35.7227C20.957 35.7227 20.5078 35.2539 20.5078 34.7266C20.5078 34.4531 20.625 34.2188 20.8203 34.0234L23.9844 30.8203L20.8203 27.6172C20.625 27.4219 20.5078 27.1875 20.5078 26.9141C20.5078 26.3867 20.957 25.9375 21.5039 25.9375C21.7773 25.9375 22.0117 26.0352 22.1875 26.2305L25.3906 29.4336L28.6328 26.2305C28.8281 26.0352 29.043 25.918 29.3164 25.918C29.8828 25.918 30.332 26.3477 30.332 26.9141C30.332 27.168 30.2344 27.4023 30.0195 27.6172L26.8359 30.8203L30.0195 34.0234C30.1758 34.2188 30.3125 34.4531 30.3125 34.7266C30.3125 35.2539 29.8438 35.7227 29.3164 35.7227C29.0234 35.7227 28.7891 35.5859 28.6133 35.4297L25.3906 32.2266L22.207 35.4297C22.0312 35.6055 21.7773 35.7227 21.5039 35.7227ZM11.6602 21.0547L39.1602 21.0547C40.6055 21.0547 41.3477 20.1953 41.3477 18.7891L41.3477 17.3242C41.3477 15.8984 40.6055 15.0195 39.1602 15.0195L11.6602 15.0195C10.293 15.0195 9.47266 15.8984 9.47266 17.3242L9.47266 18.7891C9.47266 20.1953 10.2344 21.0547 11.6602 21.0547Z" fill="black" fill-opacity="0.85"/>
 </g>
</svg>
