<?xml version="1.0" encoding="UTF-8"?>
<!--Generator: Apple Native CoreSVG 326-->
<!DOCTYPE svg
PUBLIC "-//W3C//DTD SVG 1.1//EN"
       "http://www.w3.org/Graphics/SVG/1.1/DTD/svg11.dtd">
<svg version="1.1" xmlns="http://www.w3.org/2000/svg" xmlns:xlink="http://www.w3.org/1999/xlink" viewBox="0 0 39.8877 39.5557">
 <g>
  <rect height="39.5557" opacity="0" width="39.8877" x="0" y="0"/>
  <path d="M0.549341 39.0064C1.31106 39.729 2.522 39.729 3.26418 39.0064L19.7486 22.5025L36.2525 39.0064C36.9751 39.729 38.2251 39.7486 38.9478 39.0064C39.69 38.2447 39.69 37.0337 38.9478 36.3111L22.4634 19.8072L38.9478 3.30325C39.69 2.58059 39.7095 1.35012 38.9478 0.607935C38.2056-0.114722 36.9751-0.114722 36.2525 0.607935L19.7486 17.1118L3.26418 0.607935C2.522-0.114722 1.29153-0.134253 0.549341 0.607935C-0.173315 1.36965-0.173315 2.58059 0.549341 3.30325L17.0532 19.8072L0.549341 36.3111C-0.173315 37.0337-0.192847 38.2642 0.549341 39.0064Z" fill="black" fill-opacity="0.85"/>
 </g>
</svg>
