<?xml version="1.0" encoding="UTF-8"?>
<!--Generator: Apple Native CoreSVG 326-->
<!DOCTYPE svg
PUBLIC "-//W3C//DTD SVG 1.1//EN"
       "http://www.w3.org/Graphics/SVG/1.1/DTD/svg11.dtd">
<svg version="1.1" xmlns="http://www.w3.org/2000/svg" xmlns:xlink="http://www.w3.org/1999/xlink" viewBox="0 0 57.0361 56.7041">
 <g>
  <rect height="56.7041" opacity="0" width="57.0361" x="0" y="0"/>
  <path d="M32.6392 2.24854L36.7017 6.27198C37.1118 6.6626 37.5024 6.81885 38.0298 6.81885L43.7329 6.81885C47.9712 6.81885 49.8657 8.73292 49.8657 12.9321L49.8657 18.6353C49.8657 19.1821 50.0024 19.5728 50.3931 19.9634L54.4165 24.0259C57.4048 26.9946 57.4243 29.6704 54.4165 32.6587L50.3931 36.7017C50.0024 37.1118 49.8657 37.5024 49.8657 38.0493L49.8657 43.7329C49.8657 47.9712 47.9517 49.8657 43.7329 49.8657L38.0298 49.8657C37.5024 49.8657 37.1118 50.0024 36.7017 50.4126L32.6392 54.4165C29.6704 57.4048 26.9946 57.4243 24.0259 54.4165L19.9634 50.4126C19.5728 50.0024 19.1821 49.8657 18.6353 49.8657L12.9321 49.8657C8.71338 49.8657 6.81885 47.9517 6.81885 43.7329L6.81885 38.0493C6.81885 37.5024 6.6626 37.1118 6.27198 36.7017L2.24854 32.6587C-0.73974 29.6704-0.759271 26.9946 2.24854 24.0259L6.27198 19.9634C6.6626 19.5728 6.81885 19.1821 6.81885 18.6353L6.81885 12.9321C6.81885 8.69385 8.71338 6.81885 12.9321 6.81885L18.6353 6.81885C19.1821 6.81885 19.5728 6.6626 19.9634 6.27198L24.0064 2.24854C26.9946-0.73974 29.6704-0.759271 32.6392 2.24854ZM35.6079 18.6157L28.3618 25.8423L21.1353 18.6353C20.7642 18.3032 20.3735 18.1079 19.8657 18.1079C18.8696 18.1079 18.0884 18.8892 18.0884 19.8853C18.0884 20.354 18.2642 20.8032 18.6157 21.1548L25.8228 28.3618L18.6157 35.5689C18.2642 35.9204 18.0884 36.3501 18.0884 36.8384C18.0884 37.8345 18.8696 38.6353 19.8657 38.6353C20.3735 38.6353 20.8228 38.4595 21.1939 38.0884L28.3618 30.8814L35.5298 38.0884C35.8814 38.4595 36.3306 38.6353 36.8384 38.6353C37.854 38.6353 38.6353 37.8345 38.6353 36.8384C38.6353 36.3306 38.479 35.9009 38.1079 35.5493L30.9009 28.3618L38.1274 21.1353C38.5181 20.7446 38.6548 20.3345 38.6548 19.8462C38.6548 18.8501 37.8735 18.0689 36.8774 18.0689C36.3892 18.0689 35.9985 18.2446 35.6079 18.6157Z" fill="black" fill-opacity="0.85"/>
 </g>
</svg>
