<?xml version="1.0" encoding="UTF-8"?>
<!--Generator: Apple Native CoreSVG 326-->
<!DOCTYPE svg
PUBLIC "-//W3C//DTD SVG 1.1//EN"
       "http://www.w3.org/Graphics/SVG/1.1/DTD/svg11.dtd">
<svg version="1.1" xmlns="http://www.w3.org/2000/svg" xmlns:xlink="http://www.w3.org/1999/xlink" viewBox="0 0 59.5508 45.918">
 <g>
  <rect height="45.918" opacity="0" width="59.5508" x="0" y="0"/>
  <path d="M7.59766 45.918L51.5625 45.918C56.6211 45.918 59.1797 43.3594 59.1797 38.3984L59.1797 7.53906C59.1797 2.55859 56.6211 0 51.5625 0L7.59766 0C2.55859 0 0 2.53906 0 7.53906L0 38.3984C0 43.3984 2.55859 45.918 7.59766 45.918ZM7.67578 42.4609C4.94141 42.4609 3.45703 41.0156 3.45703 38.2031L3.45703 7.71484C3.45703 4.92188 4.94141 3.45703 7.67578 3.45703L51.5039 3.45703C54.1797 3.45703 55.7031 4.92188 55.7031 7.71484L55.7031 38.2031C55.7031 41.0156 54.1797 42.4609 51.5039 42.4609Z" fill="black" fill-opacity="0.85"/>
  <path d="M20.8789 33.4375C21.3867 33.4375 21.7969 33.2617 22.1484 32.8906L29.6094 25.4297L37.0703 32.8906C37.4219 33.2422 37.832 33.4375 38.3398 33.4375C39.2969 33.4375 40.0781 32.6562 40.0781 31.6992C40.0781 31.1914 39.9023 30.8008 39.5508 30.4492L32.0703 22.9688L39.5703 15.4688C39.9414 15.0977 40.0977 14.707 40.0977 14.2383C40.0977 13.2617 39.3164 12.5 38.3594 12.5C37.8906 12.5 37.5195 12.6758 37.1289 13.0469L29.6094 20.5469L22.1094 13.0664C21.7578 12.7148 21.3867 12.5391 20.8789 12.5391C19.9219 12.5391 19.1406 13.2812 19.1406 14.2578C19.1406 14.7266 19.3164 15.1562 19.668 15.4883L27.1484 22.9688L19.668 30.4688C19.3164 30.8008 19.1406 31.2109 19.1406 31.6992C19.1406 32.6562 19.9219 33.4375 20.8789 33.4375Z" fill="black" fill-opacity="0.85"/>
 </g>
</svg>
