<?xml version="1.0" encoding="UTF-8"?>
<!--Generator: Apple Native CoreSVG 326-->
<!DOCTYPE svg
PUBLIC "-//W3C//DTD SVG 1.1//EN"
       "http://www.w3.org/Graphics/SVG/1.1/DTD/svg11.dtd">
<svg version="1.1" xmlns="http://www.w3.org/2000/svg" xmlns:xlink="http://www.w3.org/1999/xlink" viewBox="0 0 51.25 50.918">
 <g>
  <rect height="50.918" opacity="0" width="51.25" x="0" y="0"/>
  <path d="M25.4297 50.8789C39.4727 50.8789 50.8789 39.4922 50.8789 25.4492C50.8789 11.4062 39.4727 0 25.4297 0C11.3867 0 0 11.4062 0 25.4492C0 39.4922 11.3867 50.8789 25.4297 50.8789ZM25.4297 47.2461C13.3789 47.2461 3.63281 37.5 3.63281 25.4492C3.63281 13.3984 13.3789 3.65234 25.4297 3.65234C37.4805 3.65234 47.2266 13.3984 47.2266 25.4492C47.2266 37.5 37.4805 47.2461 25.4297 47.2461Z" fill="black" fill-opacity="0.85"/>
  <path d="M25.4102 37.0508C26.1719 37.0508 26.6992 36.5039 26.6992 35.7227L26.6992 27.3633L33.9062 15.8594C34.082 15.5469 34.1602 15.3906 34.1602 15.0195C34.1602 14.3164 33.5938 13.8477 32.8711 13.8477C32.3828 13.8477 31.9922 14.1016 31.7188 14.5898L25.4688 24.9805L25.3711 24.9805L19.1406 14.5898C18.8672 14.1016 18.5352 13.8281 17.9492 13.8281C17.2266 13.8281 16.6797 14.2969 16.6797 15.0195C16.6797 15.293 16.7578 15.5859 16.9531 15.8984L24.1211 27.3633L24.1211 35.7227C24.1211 36.5039 24.6484 37.0508 25.4102 37.0508ZM18.418 26.8359C18.418 27.2656 18.7695 27.5977 19.1992 27.5977L31.7383 27.5977C32.1875 27.5977 32.5195 27.2656 32.5195 26.8359C32.5195 26.3867 32.1875 26.0547 31.7383 26.0547L19.1992 26.0547C18.7695 26.0547 18.418 26.3867 18.418 26.8359ZM18.418 31.0742C18.418 31.5234 18.7695 31.8555 19.1992 31.8555L31.7383 31.8555C32.1875 31.8555 32.5195 31.5234 32.5195 31.0742C32.5195 30.6445 32.1875 30.3125 31.7383 30.3125L19.1992 30.3125C18.7695 30.3125 18.418 30.6445 18.418 31.0742Z" fill="black" fill-opacity="0.85"/>
 </g>
</svg>
