<?xml version="1.0" encoding="UTF-8"?>
<!--Generator: Apple Native CoreSVG 326-->
<!DOCTYPE svg
PUBLIC "-//W3C//DTD SVG 1.1//EN"
       "http://www.w3.org/Graphics/SVG/1.1/DTD/svg11.dtd">
<svg version="1.1" xmlns="http://www.w3.org/2000/svg" xmlns:xlink="http://www.w3.org/1999/xlink" viewBox="0 0 51.25 50.918">
 <g>
  <rect height="50.918" opacity="0" width="51.25" x="0" y="0"/>
  <path d="M50.8789 25.4492C50.8789 39.4531 39.4531 50.8789 25.4297 50.8789C11.4258 50.8789 0 39.4531 0 25.4492C0 11.4258 11.4258 0 25.4297 0C39.4531 0 50.8789 11.4258 50.8789 25.4492ZM12.832 25.4492C12.832 30.4883 14.2578 36.3867 19.2969 36.3867C24.3555 36.3867 25.8008 30.4883 25.8008 25.4492C25.8008 20.4102 24.3555 14.5117 19.2969 14.5117C14.2578 14.5117 12.832 20.4102 12.832 25.4492ZM31.9336 15.625L28.9062 18.0273C28.5156 18.3398 28.1836 18.7695 28.1836 19.3555C28.1836 20.0781 28.6719 20.5859 29.375 20.5859C29.7461 20.5859 29.9609 20.4688 30.1953 20.2734L32.7734 18.2227L32.7734 34.4727C32.7734 35.4102 33.5156 36.1523 34.4531 36.1523C35.332 36.1523 36.0742 35.4102 36.0742 34.4727L36.0742 16.543C36.0742 15.3906 35.3516 14.6875 34.1797 14.6875C33.2422 14.6875 32.4609 15.2148 31.9336 15.625ZM22.4609 25.4492C22.4609 29.7461 21.6992 33.6719 19.2969 33.6719C16.8945 33.6719 16.1328 29.7461 16.1328 25.4492C16.1328 21.1328 16.8945 17.2266 19.2969 17.2266C21.6992 17.2266 22.4609 21.1328 22.4609 25.4492Z" fill="black" fill-opacity="0.85"/>
 </g>
</svg>
