<?xml version="1.0" encoding="UTF-8"?>
<!--Generator: Apple Native CoreSVG 326-->
<!DOCTYPE svg
PUBLIC "-//W3C//DTD SVG 1.1//EN"
       "http://www.w3.org/Graphics/SVG/1.1/DTD/svg11.dtd">
<svg version="1.1" xmlns="http://www.w3.org/2000/svg" xmlns:xlink="http://www.w3.org/1999/xlink" viewBox="0 0 46.2891 45.918">
 <g>
  <rect height="45.918" opacity="0" width="46.2891" x="0" y="0"/>
  <path d="M45.918 7.53906L45.918 38.3984C45.918 43.3594 43.3594 45.918 38.3008 45.918L7.59766 45.918C2.55859 45.918 0 43.3984 0 38.3984L0 7.53906C0 2.53906 2.55859 0 7.59766 0L38.3008 0C43.3594 0 45.918 2.55859 45.918 7.53906ZM8.57422 22.9492C8.57422 27.9883 10 33.8867 15.0391 33.8867C20.0977 33.8867 21.543 27.9883 21.543 22.9492C21.543 17.9102 20.0977 12.0117 15.0391 12.0117C10 12.0117 8.57422 17.9102 8.57422 22.9492ZM24.4531 19.375C24.4531 22.8516 26.1328 26.1719 29.5508 26.1719C31.7383 26.1719 33.3203 24.668 33.8672 22.4219L33.9648 22.4219C33.9648 22.5195 33.9648 22.6367 33.9648 22.7344C33.9648 25.7422 33.5742 31.1719 30.4883 31.1719C29.1992 31.1719 28.3594 30.2539 27.8711 28.9844C27.5391 28.1836 27.0703 27.8711 26.4062 27.8711C25.4297 27.8711 25.0391 28.5156 25.0391 29.2773C25.0391 29.5703 25.0977 29.9023 25.1953 30.2148C25.7617 32.5 27.9297 33.8477 30.4297 33.8477C35.625 33.8477 37.0703 27.8516 37.0703 22.6953C37.0703 17.832 35.5664 12.0508 30.4883 12.0508C26.6602 12.0508 24.4531 15.3711 24.4531 19.375ZM18.2031 22.9492C18.2031 27.2461 17.4414 31.1719 15.0391 31.1719C12.6367 31.1719 11.875 27.2461 11.875 22.9492C11.875 18.6328 12.6367 14.7266 15.0391 14.7266C17.4414 14.7266 18.2031 18.6328 18.2031 22.9492ZM33.5156 19.2383C33.5156 21.3867 32.5195 23.6328 30.5273 23.6328C28.4766 23.6328 27.5977 21.3086 27.5977 19.2383C27.5977 17.1289 28.5547 14.7266 30.5273 14.7266C32.6172 14.7266 33.5156 17.1484 33.5156 19.2383Z" fill="black" fill-opacity="0.85"/>
 </g>
</svg>
