<?xml version="1.0" encoding="UTF-8"?>
<!--Generator: Apple Native CoreSVG 326-->
<!DOCTYPE svg
PUBLIC "-//W3C//DTD SVG 1.1//EN"
       "http://www.w3.org/Graphics/SVG/1.1/DTD/svg11.dtd">
<svg version="1.1" xmlns="http://www.w3.org/2000/svg" xmlns:xlink="http://www.w3.org/1999/xlink" viewBox="0 0 51.25 50.918">
 <g>
  <rect height="50.918" opacity="0" width="51.25" x="0" y="0"/>
  <path d="M50.8789 25.4492C50.8789 39.4531 39.4531 50.8789 25.4297 50.8789C11.4258 50.8789 0 39.4531 0 25.4492C0 11.4258 11.4258 0 25.4297 0C39.4531 0 50.8789 11.4258 50.8789 25.4492ZM16.2891 15.6445L13.2812 18.0273C12.8711 18.3398 12.5586 18.7695 12.5586 19.3555C12.5586 20.0781 13.0469 20.5859 13.75 20.5859C14.1211 20.5859 14.3359 20.4688 14.5703 20.293L17.1289 18.2227L17.1289 34.4922C17.1289 35.4102 17.8906 36.1523 18.8086 36.1523C19.6875 36.1523 20.4492 35.4102 20.4492 34.4922L20.4492 16.543C20.4492 15.3906 19.707 14.6875 18.5547 14.6875C17.6172 14.6875 16.8359 15.2148 16.2891 15.6445ZM24.4336 19.9414C24.4336 20.7617 24.9219 21.3867 25.8008 21.3867C26.5625 21.3867 27.0117 21.0352 27.2461 20.293C27.6953 18.3984 28.418 17.168 30.0586 17.168C31.7773 17.168 32.6758 18.75 32.6758 20.6055C32.6758 22.6562 31.4062 24.668 29.9805 26.543L25.2344 32.7539C24.8047 33.3008 24.3945 33.8672 24.3945 34.5703C24.3945 35.332 24.9219 35.8984 25.9375 35.8984L34.8828 35.8984C35.6836 35.8984 36.1914 35.3516 36.1914 34.5508C36.1914 33.6914 35.6641 33.2031 34.8828 33.2031L28.457 33.2031L28.457 33.0078L32.5 27.7344C34.9609 24.6094 35.7617 22.7148 35.7617 20.4688C35.7617 17.0508 33.5547 14.5117 30.0586 14.5117C26.8164 14.5117 24.4336 17.2461 24.4336 19.9414Z" fill="black" fill-opacity="0.85"/>
 </g>
</svg>
