<?xml version="1.0" encoding="UTF-8"?>
<!--Generator: Apple Native CoreSVG 326-->
<!DOCTYPE svg
PUBLIC "-//W3C//DTD SVG 1.1//EN"
       "http://www.w3.org/Graphics/SVG/1.1/DTD/svg11.dtd">
<svg version="1.1" xmlns="http://www.w3.org/2000/svg" xmlns:xlink="http://www.w3.org/1999/xlink" viewBox="0 0 51.25 50.918">
 <g>
  <rect height="50.918" opacity="0" width="51.25" x="0" y="0"/>
  <path d="M25.4297 50.8789C39.4727 50.8789 50.8789 39.4922 50.8789 25.4492C50.8789 11.4062 39.4727 0 25.4297 0C11.3867 0 0 11.4062 0 25.4492C0 39.4922 11.3867 50.8789 25.4297 50.8789ZM25.4297 47.2461C13.3789 47.2461 3.63281 37.5 3.63281 25.4492C3.63281 13.3984 13.3789 3.65234 25.4297 3.65234C37.4805 3.65234 47.2266 13.3984 47.2266 25.4492C47.2266 37.5 37.4805 47.2461 25.4297 47.2461Z" fill="black" fill-opacity="0.85"/>
  <path d="M18.3594 35.8984C19.2188 35.8984 19.9609 35.1758 19.9609 34.2773L19.9609 16.7383C19.9609 15.625 19.2383 14.9609 18.125 14.9609C17.207 14.9609 16.4453 15.4492 15.918 15.8789L12.9688 18.2031C12.5781 18.5156 12.2852 18.9258 12.2852 19.4922C12.2852 20.1953 12.7539 20.6836 13.4375 20.6836C13.7891 20.6836 14.0039 20.5664 14.2188 20.3906L16.7383 18.3789L16.7383 34.2773C16.7383 35.1758 17.4805 35.8984 18.3594 35.8984ZM30.4492 36.1328C34.1992 36.1328 36.3281 32.8906 36.3281 28.9844C36.3281 25.5859 34.6875 22.3242 31.3281 22.3242C29.1992 22.3242 27.6562 23.8086 27.1094 26.0156L27.0117 26.0156C27.0117 25.918 27.0117 25.8008 27.0117 25.7031C27.0117 22.7539 27.4023 17.4023 30.4102 17.4023C31.6992 17.4023 32.5391 18.3398 32.9883 19.5508C33.3008 20.2344 33.6914 20.6055 34.4336 20.6055C35.3125 20.6055 35.7031 20.0195 35.7031 19.2773C35.7031 19.0039 35.6641 18.6914 35.5859 18.3594C35.0195 16.1719 32.9492 14.8047 30.4883 14.8047C25.4297 14.8047 24.0039 20.7617 24.0039 25.7422C24.0039 30.4883 25.4883 36.1328 30.4492 36.1328ZM30.4102 33.5352C28.3594 33.5352 27.4609 31.0156 27.4609 29.0039C27.4609 27.0117 28.4375 24.7656 30.3906 24.7656C32.4219 24.7656 33.3008 27.0898 33.2617 29.1211C33.2617 31.1328 32.3242 33.5352 30.4102 33.5352Z" fill="black" fill-opacity="0.85"/>
 </g>
</svg>
