<?xml version="1.0" encoding="UTF-8"?>
<!--Generator: Apple Native CoreSVG 326-->
<!DOCTYPE svg
PUBLIC "-//W3C//DTD SVG 1.1//EN"
       "http://www.w3.org/Graphics/SVG/1.1/DTD/svg11.dtd">
<svg version="1.1" xmlns="http://www.w3.org/2000/svg" xmlns:xlink="http://www.w3.org/1999/xlink" viewBox="0 0 46.2891 45.918">
 <g>
  <rect height="45.918" opacity="0" width="46.2891" x="0" y="0"/>
  <path d="M45.918 7.53906L45.918 38.3984C45.918 43.3594 43.3594 45.918 38.3008 45.918L7.59766 45.918C2.55859 45.918 0 43.3984 0 38.3984L0 7.53906C0 2.53906 2.55859 0 7.59766 0L38.3008 0C43.3594 0 45.918 2.55859 45.918 7.53906ZM24.082 22.9492C24.082 27.9883 25.5078 33.8867 30.5664 33.8867C35.625 33.8867 37.0508 27.9883 37.0508 22.9492C37.0508 17.9102 35.625 12.0117 30.5664 12.0117C25.5078 12.0117 24.082 17.9102 24.082 22.9492ZM9.55078 17.4414C9.55078 18.2617 10.0391 18.8672 10.918 18.8672C11.6797 18.8672 12.1289 18.5352 12.3633 17.793C12.8125 15.8984 13.5352 14.668 15.1758 14.668C16.8945 14.668 17.793 16.25 17.793 18.1055C17.793 20.1562 16.5234 22.168 15.0977 24.0234L10.3516 30.2539C9.92188 30.7812 9.51172 31.3477 9.51172 32.0703C9.51172 32.832 10.0391 33.3984 11.0742 33.3984L20 33.3984C20.8008 33.3984 21.3086 32.8516 21.3086 32.0508C21.3086 31.1914 20.7812 30.6836 20 30.6836L13.5938 30.6836L13.5938 30.5078L17.6172 25.2344C20.0781 22.1094 20.8789 20.2148 20.8789 17.9688C20.8789 14.5508 18.6719 12.0117 15.1758 12.0117C11.9531 12.0117 9.55078 14.7461 9.55078 17.4414ZM33.7305 22.9492C33.7305 27.2461 32.9688 31.1719 30.5664 31.1719C28.1445 31.1719 27.4023 27.2461 27.4023 22.9492C27.4023 18.6328 28.1445 14.7266 30.5664 14.7266C32.9688 14.7266 33.7305 18.6328 33.7305 22.9492Z" fill="black" fill-opacity="0.85"/>
 </g>
</svg>
