<?xml version="1.0" encoding="UTF-8"?>
<!--Generator: Apple Native CoreSVG 326-->
<!DOCTYPE svg
PUBLIC "-//W3C//DTD SVG 1.1//EN"
       "http://www.w3.org/Graphics/SVG/1.1/DTD/svg11.dtd">
<svg version="1.1" xmlns="http://www.w3.org/2000/svg" xmlns:xlink="http://www.w3.org/1999/xlink" viewBox="0 0 46.2891 45.918">
 <g>
  <rect height="45.918" opacity="0" width="46.2891" x="0" y="0"/>
  <path d="M45.918 7.53906L45.918 38.3984C45.918 43.3594 43.3594 45.918 38.3008 45.918L7.59766 45.918C2.55859 45.918 0 43.3984 0 38.3984L0 7.53906C0 2.53906 2.55859 0 7.59766 0L38.3008 0C43.3594 0 45.918 2.55859 45.918 7.53906ZM24.7266 15.8789C24.5898 16.3867 24.5508 16.8555 24.5508 17.2656C24.5508 18.0078 25.0195 18.6133 25.9375 18.6133C26.7383 18.6133 27.168 18.2812 27.3828 17.5C27.793 15.8789 28.6523 14.7461 30.2539 14.7461C32.0898 14.7461 32.9883 16.1719 32.9883 18.0078C32.9883 19.9805 31.8555 21.4648 29.8047 21.4648L29.082 21.4648C28.3008 21.4648 27.832 21.9531 27.832 22.6953C27.832 23.4375 28.3398 23.9062 29.082 23.9062L29.8438 23.9062C32.1484 23.9062 33.457 25.1758 33.457 27.5781C33.457 29.4922 32.4414 31.1328 30.3711 31.1328C28.3789 31.1328 27.4219 29.7461 27.1289 28.457C26.8945 27.6758 26.4453 27.2852 25.6836 27.2852C24.7852 27.2852 24.1797 27.832 24.1797 28.7109C24.1797 29.1602 24.2578 29.6484 24.3945 30.0586C25.1367 32.4219 27.6172 33.8086 30.3516 33.8086C33.9648 33.8086 36.6797 31.5039 36.6797 27.6562C36.6797 24.5508 34.9023 22.8516 32.5977 22.6172L32.5977 22.5391C34.9414 21.9141 36.0938 19.8242 36.0938 17.6367C36.0938 14.1602 33.5547 12.1094 30.2539 12.1094C27.6172 12.1094 25.4688 13.6133 24.7266 15.8789ZM9.64844 17.4414C9.64844 18.2617 10.1172 18.8867 11.0156 18.8867C11.7578 18.8867 12.2461 18.5352 12.4414 17.793C12.9102 15.8984 13.6133 14.668 15.2539 14.668C16.9922 14.668 17.8906 16.25 17.8906 18.1055C17.8906 20.1562 16.6211 22.168 15.1758 24.0234L10.4297 30.2539C10 30.8008 9.60938 31.3477 9.60938 32.0703C9.60938 32.832 10.1172 33.3984 11.1523 33.3984L20.0781 33.3984C20.8789 33.3984 21.3867 32.8516 21.3867 32.0508C21.3867 31.1914 20.8594 30.6836 20.0781 30.6836L13.6719 30.6836L13.6719 30.5078L17.6953 25.2344C20.1562 22.1094 20.9766 20.2148 20.9766 17.9688C20.9766 14.5508 18.75 12.0117 15.2539 12.0117C12.0312 12.0117 9.64844 14.7461 9.64844 17.4414Z" fill="black" fill-opacity="0.85"/>
 </g>
</svg>
