<?xml version="1.0" encoding="UTF-8"?>
<!--Generator: Apple Native CoreSVG 326-->
<!DOCTYPE svg
PUBLIC "-//W3C//DTD SVG 1.1//EN"
       "http://www.w3.org/Graphics/SVG/1.1/DTD/svg11.dtd">
<svg version="1.1" xmlns="http://www.w3.org/2000/svg" xmlns:xlink="http://www.w3.org/1999/xlink" viewBox="0 0 46.2891 45.918">
 <g>
  <rect height="45.918" opacity="0" width="46.2891" x="0" y="0"/>
  <path d="M45.918 7.53906L45.918 38.3984C45.918 43.3594 43.3594 45.918 38.3008 45.918L7.59766 45.918C2.55859 45.918 0 43.3984 0 38.3984L0 7.53906C0 2.53906 2.55859 0 7.59766 0L38.3008 0C43.3594 0 45.918 2.55859 45.918 7.53906ZM29.0625 14.4531L24.043 25.0391C23.6719 25.918 23.5156 26.5039 23.5156 27.2266C23.5156 28.3398 24.2969 29.1016 25.4297 29.1016L31.4453 29.1016L31.4453 32.0703C31.4453 33.2617 32.2656 33.7109 33.0078 33.7109C33.8672 33.7109 34.5703 33.1445 34.5703 32.0703L34.5703 29.1016L35.6641 29.1016C36.543 29.1016 36.9727 28.5352 36.9727 27.7539C36.9727 27.0117 36.543 26.4453 35.6641 26.4453L34.5703 26.4453L34.5703 14.6484C34.5703 13.0273 33.5156 12.1875 32.0703 12.1875C30.4492 12.1875 29.707 13.0078 29.0625 14.4531ZM9.53125 17.4414C9.53125 18.2617 10.0195 18.8867 10.8984 18.8867C11.6797 18.8867 12.1289 18.5352 12.3633 17.793C12.793 15.8984 13.5352 14.668 15.1562 14.668C16.8945 14.668 17.793 16.25 17.793 18.1055C17.793 20.1562 16.5039 22.168 15.0977 24.043L10.332 30.2539C9.90234 30.8008 9.51172 31.3672 9.51172 32.0703C9.51172 32.832 10.0195 33.3984 11.0547 33.3984L20 33.3984C20.8008 33.3984 21.3086 32.8516 21.3086 32.0508C21.3086 31.1914 20.7812 30.7031 20 30.7031L13.5742 30.7031L13.5742 30.5078L17.6172 25.2344C20.0586 22.1094 20.8789 20.2148 20.8789 17.9688C20.8789 14.5508 18.6523 12.0117 15.1758 12.0117C11.9336 12.0117 9.53125 14.7461 9.53125 17.4414ZM31.5039 26.5039L26.3672 26.5039L26.3672 26.3672L31.4062 15.1562L31.5039 15.1562Z" fill="black" fill-opacity="0.85"/>
 </g>
</svg>
