<?xml version="1.0" encoding="UTF-8"?>
<!--Generator: Apple Native CoreSVG 326-->
<!DOCTYPE svg
PUBLIC "-//W3C//DTD SVG 1.1//EN"
       "http://www.w3.org/Graphics/SVG/1.1/DTD/svg11.dtd">
<svg version="1.1" xmlns="http://www.w3.org/2000/svg" xmlns:xlink="http://www.w3.org/1999/xlink" viewBox="0 0 46.2891 45.918">
 <g>
  <rect height="45.918" opacity="0" width="46.2891" x="0" y="0"/>
  <path d="M45.918 7.53906L45.918 38.3984C45.918 43.3594 43.3594 45.918 38.3008 45.918L7.59766 45.918C2.55859 45.918 0 43.3984 0 38.3984L0 7.53906C0 2.53906 2.55859 0 7.59766 0L38.3008 0C43.3594 0 45.918 2.55859 45.918 7.53906ZM9.70703 15.8789C9.55078 16.3867 9.51172 16.8359 9.51172 17.2656C9.51172 18.0078 9.98047 18.6133 10.8984 18.6133C11.6992 18.6133 12.1289 18.2812 12.3438 17.5C12.7539 15.8789 13.6133 14.7461 15.2344 14.7461C17.0508 14.7461 17.9492 16.1719 17.9492 18.0078C17.9492 19.9805 16.8164 21.4648 14.7656 21.4648L14.043 21.4648C13.2617 21.4648 12.793 21.9531 12.793 22.6953C12.793 23.4375 13.3008 23.9062 14.043 23.9062L14.8047 23.9062C17.1289 23.9062 18.418 25.1758 18.418 27.5586C18.418 29.4727 17.4023 31.1328 15.332 31.1328C13.3398 31.1328 12.3828 29.7461 12.0898 28.457C11.8555 27.6758 11.4062 27.2852 10.6445 27.2852C9.74609 27.2852 9.16016 27.832 9.16016 28.7109C9.16016 29.1602 9.23828 29.6484 9.35547 30.0586C10.0977 32.4219 12.5781 33.8086 15.332 33.8086C18.9258 33.8086 21.6602 31.4844 21.6602 27.6562C21.6602 24.5508 19.8633 22.8516 17.5586 22.6172L17.5586 22.5391C19.9023 21.9141 21.0547 19.8242 21.0547 17.6367C21.0547 14.1602 18.5156 12.1094 15.2344 12.1094C12.5977 12.1094 10.4297 13.6133 9.70703 15.8789ZM25.0195 15.8789C24.8828 16.3867 24.8242 16.8359 24.8242 17.2656C24.8242 18.0078 25.332 18.6133 26.2305 18.6133C27.0312 18.6133 27.4609 18.2812 27.6953 17.5C28.0664 15.8789 28.9648 14.7461 30.5469 14.7461C32.3633 14.7461 33.2812 16.1719 33.2812 18.0078C33.2812 19.9805 32.1289 21.4648 30.1172 21.4648L29.375 21.4648C28.5938 21.4648 28.1055 21.9531 28.1055 22.6953C28.1055 23.4375 28.6133 23.9062 29.375 23.9062L30.1562 23.9062C32.4414 23.9062 33.75 25.1758 33.75 27.5586C33.75 29.4727 32.7539 31.1328 30.6836 31.1328C28.6719 31.1328 27.7148 29.7461 27.4023 28.457C27.207 27.6758 26.7188 27.2852 25.9766 27.2852C25.0781 27.2852 24.4922 27.832 24.4922 28.7109C24.4922 29.1602 24.5703 29.6484 24.707 30.0586C25.4297 32.4219 27.9102 33.8086 30.6641 33.8086C34.2383 33.8086 36.9922 31.4844 36.9922 27.6562C36.9922 24.5508 35.1758 22.8516 32.9102 22.6172L32.9102 22.5391C35.2539 21.9141 36.3672 19.8242 36.3672 17.6367C36.3672 14.1602 33.8672 12.1094 30.5469 12.1094C27.9102 12.1094 25.7617 13.6133 25.0195 15.8789Z" fill="black" fill-opacity="0.85"/>
 </g>
</svg>
