<?xml version="1.0" encoding="UTF-8"?>
<!--Generator: Apple Native CoreSVG 326-->
<!DOCTYPE svg
PUBLIC "-//W3C//DTD SVG 1.1//EN"
       "http://www.w3.org/Graphics/SVG/1.1/DTD/svg11.dtd">
<svg version="1.1" xmlns="http://www.w3.org/2000/svg" xmlns:xlink="http://www.w3.org/1999/xlink" viewBox="0 0 51.25 50.918">
 <g>
  <rect height="50.918" opacity="0" width="51.25" x="0" y="0"/>
  <path d="M50.8789 25.4492C50.8789 39.4531 39.4531 50.8789 25.4297 50.8789C11.4258 50.8789 0 39.4531 0 25.4492C0 11.4258 11.4258 0 25.4297 0C39.4531 0 50.8789 11.4258 50.8789 25.4492ZM29.9414 15C28.7109 15 28.1641 15.8008 28.0859 17.0117L27.6367 24.375C27.5977 24.7852 27.5977 25.1953 27.5977 25.5273C27.5977 26.4062 28.0273 27.168 29.082 27.168C29.7461 27.168 30.1172 26.875 30.5859 26.2305C31.2109 25.2734 31.9531 24.6094 33.0859 24.6094C35.1172 24.6094 35.9375 27.0508 35.9375 29.082C35.9375 31.3867 35.0781 33.7109 33.0273 33.7109C31.4453 33.7109 30.5078 32.5195 30.0781 30.9961C29.8047 30.1953 29.2969 29.8633 28.6914 29.8633C27.832 29.8633 27.3047 30.4102 27.3047 31.25C27.3047 31.7578 27.4609 32.3047 27.6367 32.7539C28.4766 34.9219 30.6641 36.3867 33.0664 36.3867C36.9922 36.3867 39.1211 32.9883 39.1211 29.0039C39.1211 25.4688 37.4219 22.168 34.1016 22.168C32.6172 22.168 31.1523 22.8711 30.4492 24.4336L30.3516 24.4336L30.8203 17.7344L37.0117 17.7344C37.8125 17.7344 38.3008 17.168 38.3008 16.3477C38.3008 15.5859 37.7734 15 37.0117 15ZM12.0898 18.3789C11.9531 18.8867 11.9141 19.3359 11.9141 19.7656C11.9141 20.5078 12.3828 21.1133 13.3008 21.1133C14.1016 21.1133 14.5312 20.7812 14.7461 20C15.1562 18.3789 16.0352 17.2461 17.6172 17.2461C19.4531 17.2461 20.3516 18.6719 20.3516 20.5078C20.3516 22.4805 19.2188 23.9648 17.1875 23.9648L16.4453 23.9648C15.6641 23.9648 15.1953 24.4531 15.1953 25.1953C15.1953 25.9375 15.7031 26.4062 16.4453 26.4062L17.2266 26.4062C19.5117 26.4062 20.8203 27.6758 20.8203 30.0586C20.8203 31.9727 19.8047 33.6328 17.7344 33.6328C15.7422 33.6328 14.7852 32.2461 14.4922 30.9375C14.2773 30.1758 13.8086 29.7852 13.0469 29.7852C12.1484 29.7852 11.543 30.332 11.543 31.2109C11.543 31.6602 11.6211 32.1484 11.7773 32.5586C12.5 34.9219 14.9805 36.3086 17.7148 36.3086C21.3281 36.3086 24.0625 33.9844 24.0625 30.1562C24.0625 27.0508 22.2656 25.3516 19.9805 25.1172L19.9805 25.0195C22.3047 24.4141 23.457 22.3242 23.457 20.1367C23.457 16.6602 20.918 14.6094 17.6172 14.6094C14.9805 14.6094 12.832 16.1133 12.0898 18.3789Z" fill="black" fill-opacity="0.85"/>
 </g>
</svg>
