<?xml version="1.0" encoding="UTF-8"?>
<!--Generator: Apple Native CoreSVG 326-->
<!DOCTYPE svg
PUBLIC "-//W3C//DTD SVG 1.1//EN"
       "http://www.w3.org/Graphics/SVG/1.1/DTD/svg11.dtd">
<svg version="1.1" xmlns="http://www.w3.org/2000/svg" xmlns:xlink="http://www.w3.org/1999/xlink" viewBox="0 0 62.3438 49.2383">
 <g>
  <rect height="49.2383" opacity="0" width="62.3438" x="0" y="0"/>
  <path d="M45.2344 47.4609C45.2344 48.418 44.4531 49.1992 43.4961 49.1992L18.4961 49.1992C17.5195 49.1992 16.7383 48.418 16.7383 47.4609C16.7383 46.4844 17.5195 45.7031 18.4961 45.7031L43.4961 45.7031C44.4531 45.7031 45.2344 46.4844 45.2344 47.4609ZM61.9727 6.09375L61.9727 35.0977C61.9727 39.1992 59.9023 41.1914 55.8789 41.1914L6.11328 41.1914C2.08984 41.1914 0 39.1992 0 35.0977L0 6.09375C0 1.99219 2.08984 0 6.11328 0L55.8789 0C59.9023 0 61.9727 1.99219 61.9727 6.09375ZM31.5039 11.6211L31.5039 29.668C31.5039 30.7031 32.1289 31.4062 33.1445 31.4062C34.2773 31.4062 34.8438 30.625 34.8438 29.668L34.8438 24.6484L36.6211 21.9141L41.5234 30.1562C41.9727 30.9375 42.4023 31.3477 43.2812 31.3477C44.1992 31.3477 44.7656 30.6836 44.7656 29.8242C44.7656 29.3164 44.668 29.0039 44.375 28.4961L39.0039 19.6094L43.7109 12.7148C43.9648 12.3438 44.1602 11.9922 44.1602 11.4453C44.1602 10.6641 43.6133 9.94141 42.6367 9.94141C41.8164 9.94141 41.4648 10.3906 41.1719 10.8594L34.9609 20.2734L34.8047 20.2734L34.8047 11.6211C34.8047 10.6445 34.2188 9.90234 33.1445 9.90234C32.1094 9.90234 31.5039 10.5859 31.5039 11.6211ZM20.3125 12.0898L15.293 22.6953C14.9023 23.5742 14.7656 24.1797 14.7656 24.8828C14.7656 25.9961 15.5273 26.7773 16.6797 26.7773L22.6758 26.7773L22.6758 29.7266C22.6758 30.8984 23.5156 31.3672 24.2578 31.3672C25.0977 31.3672 25.8008 30.8008 25.8008 29.7266L25.8008 26.7773L26.8945 26.7773C27.793 26.7773 28.2031 26.1914 28.2031 25.4297C28.2031 24.6875 27.8125 24.1016 26.8945 24.1016L25.8008 24.1016L25.8008 12.3047C25.8008 10.6836 24.7656 9.84375 23.3008 9.84375C21.6992 9.84375 20.957 10.6641 20.3125 12.0898ZM22.7344 24.1602L17.5977 24.1602L17.5977 24.0234L22.6367 12.8125L22.7344 12.8125Z" fill="black" fill-opacity="0.85"/>
 </g>
</svg>
