<?xml version="1.0" encoding="UTF-8"?>
<!--Generator: Apple Native CoreSVG 326-->
<!DOCTYPE svg
PUBLIC "-//W3C//DTD SVG 1.1//EN"
       "http://www.w3.org/Graphics/SVG/1.1/DTD/svg11.dtd">
<svg version="1.1" xmlns="http://www.w3.org/2000/svg" xmlns:xlink="http://www.w3.org/1999/xlink" viewBox="0 0 46.2891 45.918">
 <g>
  <rect height="45.918" opacity="0" width="46.2891" x="0" y="0"/>
  <path d="M45.918 7.53906L45.918 38.3984C45.918 43.3594 43.3594 45.918 38.3008 45.918L7.59766 45.918C2.55859 45.918 0 43.3984 0 38.3984L0 7.53906C0 2.53906 2.55859 0 7.59766 0L38.3008 0C43.3594 0 45.918 2.55859 45.918 7.53906ZM22.6953 11.8359C21.0547 13.9648 19.1211 16.3867 17.9688 17.9297C15.332 21.4062 14.2188 24.1602 14.2188 26.9141C14.2188 31.7578 17.793 35.1172 23.0273 35.1172C28.2227 35.1172 31.7969 31.7773 31.7969 27.0508C31.7969 22.793 28.5938 19.668 24.0625 19.668C22.2852 19.668 20.4688 20.3125 19.5508 21.2305L19.2969 21.1719C19.5898 20.6836 19.9219 20.2148 20.7227 19.1797C21.875 17.6758 23.9062 15.1758 25.2539 13.4375C25.5859 13.0078 25.7812 12.6367 25.7812 12.1875C25.7812 11.5234 25.332 10.8398 24.2578 10.8398C23.5352 10.8398 23.0664 11.3281 22.6953 11.8359ZM28.6523 27.207C28.6523 30.0977 26.2695 32.2852 23.0273 32.2852C19.8242 32.2852 17.3828 30.0586 17.3828 27.168C17.3828 24.2969 19.7656 22.207 22.9883 22.207C26.2695 22.207 28.6523 24.3164 28.6523 27.207Z" fill="black" fill-opacity="0.85"/>
 </g>
</svg>
