<?xml version="1.0" encoding="UTF-8"?>
<!--Generator: Apple Native CoreSVG 326-->
<!DOCTYPE svg
PUBLIC "-//W3C//DTD SVG 1.1//EN"
       "http://www.w3.org/Graphics/SVG/1.1/DTD/svg11.dtd">
<svg version="1.1" xmlns="http://www.w3.org/2000/svg" xmlns:xlink="http://www.w3.org/1999/xlink" viewBox="0 0 46.2891 45.918">
 <g>
  <rect height="45.918" opacity="0" width="46.2891" x="0" y="0"/>
  <path d="M7.59766 45.918L38.3008 45.918C43.3594 45.918 45.918 43.3594 45.918 38.3984L45.918 7.53906C45.918 2.55859 43.3594 0 38.3008 0L7.59766 0C2.55859 0 0 2.53906 0 7.53906L0 38.3984C0 43.3984 2.55859 45.918 7.59766 45.918ZM7.67578 42.4609C4.94141 42.4609 3.45703 41.0156 3.45703 38.2031L3.45703 7.71484C3.45703 4.92188 4.94141 3.45703 7.67578 3.45703L38.2422 3.45703C40.918 3.45703 42.4609 4.92188 42.4609 7.71484L42.4609 38.2031C42.4609 41.0156 40.918 42.4609 38.2422 42.4609Z" fill="black" fill-opacity="0.85"/>
  <path d="M14.6875 34.7461C15.4688 34.7461 16.0156 34.3945 16.3477 33.3594L18.3398 27.6953L27.5586 27.6953L29.5508 33.3594C29.9023 34.375 30.4297 34.7461 31.25 34.7461C32.1875 34.7461 32.832 34.1406 32.832 33.2617C32.832 32.9297 32.7734 32.6172 32.5977 32.1484L25.3516 12.7148C24.9219 11.6016 24.1016 11.0352 22.9297 11.0352C21.7773 11.0352 20.9766 11.6016 20.5469 12.7148L13.3008 32.1484C13.1445 32.6172 13.0664 32.9297 13.0664 33.2617C13.0664 34.1602 13.6914 34.7461 14.6875 34.7461ZM19.2383 25.0391L22.832 14.8633L23.0664 14.8633L26.6602 25.0391Z" fill="black" fill-opacity="0.85"/>
 </g>
</svg>
