<?xml version="1.0" encoding="UTF-8"?>
<!--Generator: Apple Native CoreSVG 326-->
<!DOCTYPE svg
PUBLIC "-//W3C//DTD SVG 1.1//EN"
       "http://www.w3.org/Graphics/SVG/1.1/DTD/svg11.dtd">
<svg version="1.1" xmlns="http://www.w3.org/2000/svg" xmlns:xlink="http://www.w3.org/1999/xlink" viewBox="0 0 51.25 50.918">
 <g>
  <rect height="50.918" opacity="0" width="51.25" x="0" y="0"/>
  <path d="M50.8789 25.4688C50.8789 39.4922 39.4531 50.918 25.4297 50.918C11.4258 50.918 0 39.4922 0 25.4688C0 11.4648 11.4258 0.0390625 25.4297 0.0390625C39.4531 0.0390625 50.8789 11.4648 50.8789 25.4688ZM28.6328 9.04297C28.6328 9.27734 28.6719 9.45312 28.8281 9.70703L29.7461 11.0156C30.1953 11.6992 30.293 12.2656 29.7461 12.6953L29.4336 12.9492C28.2422 12.1875 26.7578 11.7773 25.4492 11.7773C24.1211 11.7773 22.6562 12.1875 21.4648 12.9492L21.1328 12.6953C20.5859 12.2656 20.7227 11.6992 21.1523 11.0156L22.0703 9.70703C22.207 9.45312 22.2656 9.27734 22.2656 9.04297C22.2656 8.51562 21.8555 8.125 21.3086 8.125C20.8789 8.125 20.5664 8.30078 20.3125 8.76953L19.3555 10.2539C18.4375 11.8164 18.6328 13.2031 19.9805 14.1992L20.0586 14.2578C18.8867 15.5664 18.2031 17.2656 18.2031 19.0625C18.2031 21.1719 19.3555 22.6172 21.6211 23.0664C21.3477 23.3008 21.0742 23.7109 20.957 24.1602L18.0078 23.75C17.1094 23.6328 16.6211 23.3008 16.6211 22.3438L16.6211 17.9688C16.6211 17.3242 16.2305 16.9336 15.6055 16.9336C14.9414 16.9336 14.5508 17.3047 14.5508 17.9688L14.5508 22.7148C14.5508 24.4531 15.3516 25.3906 17.1484 25.6445L20.8789 26.1719C21.0742 26.9922 21.5625 27.5977 22.0703 27.8906L16.3086 29.2188C14.5117 29.668 13.8086 30.6055 14.082 32.2656L15.2148 39.5312C15.332 40.1953 15.6445 40.6055 16.2695 40.6055C16.9141 40.6055 17.3828 40.0977 17.2852 39.3555L16.25 32.5977C16.1133 31.7383 16.3867 31.3477 17.3047 31.0938C17.6758 30.9961 18.0469 30.918 18.3984 30.8203C18.1641 31.3477 18.0469 31.9922 18.0469 32.7344C18.0469 37.2852 21.5039 41.543 25.4492 41.543C29.3945 41.543 32.832 37.2852 32.832 32.7344C32.832 31.9922 32.7344 31.3477 32.4805 30.8203C32.8516 30.918 33.2227 30.9961 33.5742 31.0938C34.5117 31.3477 34.7852 31.7383 34.6484 32.5977L33.6133 39.3555C33.4766 40.0977 33.9648 40.6055 34.6094 40.6055C35.2344 40.6055 35.5664 40.1953 35.6641 39.5312L36.7969 32.2656C37.0898 30.6055 36.3867 29.6875 34.5703 29.2188L28.8281 27.8906C29.3164 27.6367 29.8047 26.9922 30.0195 26.1719L33.75 25.6445C35.5469 25.3906 36.3477 24.4531 36.3477 22.7148L36.3477 17.9688C36.3477 17.3242 35.957 16.9336 35.293 16.9336C34.668 16.9336 34.2773 17.3242 34.2773 17.9688L34.2773 22.3438C34.2773 23.3008 33.7891 23.6133 32.8711 23.75L29.9414 24.1602C29.8047 23.7305 29.5312 23.3203 29.2773 23.0664C31.5234 22.6367 32.6758 21.2109 32.6758 19.0625C32.6758 17.2656 31.9922 15.5664 30.8398 14.2578L30.8984 14.1992C32.2461 13.2031 32.4805 11.7969 31.543 10.2539L30.5859 8.76953C30.3125 8.32031 30.0195 8.125 29.5898 8.125C29.0234 8.125 28.6328 8.49609 28.6328 9.04297Z" fill="black" fill-opacity="0.85"/>
 </g>
</svg>
