<?xml version="1.0" encoding="UTF-8"?>
<!--Generator: Apple Native CoreSVG 326-->
<!DOCTYPE svg
PUBLIC "-//W3C//DTD SVG 1.1//EN"
       "http://www.w3.org/Graphics/SVG/1.1/DTD/svg11.dtd">
<svg version="1.1" xmlns="http://www.w3.org/2000/svg" xmlns:xlink="http://www.w3.org/1999/xlink" viewBox="0 0 47.5781 41.3867">
 <g>
  <rect height="41.3867" opacity="0" width="47.5781" x="0" y="0"/>
  <path d="M2.01172 0C0.878906 0 0.371094 0.742188 0.175781 1.62109C0.0390625 2.30469 0 3.57422 0 5.03906C0 16.9141 4.90234 21.9531 16.5234 21.9531L35.3906 21.9531L41.4844 21.6797L33.6719 28.9258L26.9141 35.7812C26.5625 36.1328 26.3867 36.6211 26.3867 37.1289C26.3867 38.2031 27.207 38.9844 28.2617 38.9844C28.7695 38.9844 29.2383 38.7891 29.7656 38.2812L46.5234 21.5039C46.9727 21.0742 47.207 20.5859 47.207 20.0586C47.207 19.5312 46.9727 19.0234 46.5234 18.5938L29.6484 1.71875C29.2188 1.30859 28.7695 1.11328 28.2617 1.11328C27.207 1.11328 26.3867 1.91406 26.3867 2.96875C26.3867 3.47656 26.582 3.98438 26.9141 4.31641L33.6719 11.1719L41.5039 18.457L35.3906 18.1445L16.6992 18.1445C7.36328 18.1445 3.84766 14.2969 3.84766 4.84375C3.84766 3.53516 3.92578 2.65625 3.92578 1.89453C3.92578 0.78125 3.125 0 2.01172 0Z" fill="black" fill-opacity="0.85"/>
 </g>
</svg>
