<?xml version="1.0" encoding="UTF-8"?>
<!--Generator: Apple Native CoreSVG 326-->
<!DOCTYPE svg
PUBLIC "-//W3C//DTD SVG 1.1//EN"
       "http://www.w3.org/Graphics/SVG/1.1/DTD/svg11.dtd">
<svg version="1.1" xmlns="http://www.w3.org/2000/svg" xmlns:xlink="http://www.w3.org/1999/xlink" viewBox="0 0 51.25 50.918">
 <g>
  <rect height="50.918" opacity="0" width="51.25" x="0" y="0"/>
  <path d="M50.8789 25.4492C50.8789 39.4531 39.4531 50.8789 25.4297 50.8789C11.4258 50.8789 0 39.4531 0 25.4492C0 11.4258 11.4258 0 25.4297 0C39.4531 0 50.8789 11.4258 50.8789 25.4492ZM35.1758 27.4805L35.1758 28.9453L35.3906 33.2617L29.3164 26.9141C28.6328 26.1914 27.5195 26.2109 26.8555 26.8945C26.1719 27.5781 26.1914 28.7109 26.875 29.3555L33.1641 35.4102L29.043 35.2148L27.4805 35.1953C26.5625 35.1953 25.8398 35.918 25.8398 36.8359C25.8398 37.7344 26.5625 38.457 27.4805 38.457L36.543 38.457C37.7344 38.457 38.4375 37.9102 38.4375 36.582L38.4375 27.4805C38.4375 26.5625 37.7148 25.8398 36.8164 25.8398C35.8984 25.8398 35.1758 26.5625 35.1758 27.4805ZM14.3164 12.4414C13.125 12.4414 12.4219 13.0078 12.4219 14.3359L12.4219 23.4375C12.4219 24.3359 13.1445 25.0586 14.0625 25.0586C14.9609 25.0586 15.6836 24.3359 15.6836 23.4375L15.6836 21.9727L15.4883 17.6367L21.5625 23.9844C22.2461 24.707 23.3398 24.6875 24.0234 24.0039C24.6875 23.3398 24.668 22.207 24.0039 21.543L17.6953 15.4883L21.8359 15.7031L23.3984 15.7031C24.2969 15.7031 25.0195 14.9805 25.0195 14.082C25.0195 13.1641 24.2969 12.4414 23.3984 12.4414Z" fill="black" fill-opacity="0.85"/>
 </g>
</svg>
