<?xml version="1.0" encoding="UTF-8"?>
<!--Generator: Apple Native CoreSVG 326-->
<!DOCTYPE svg
PUBLIC "-//W3C//DTD SVG 1.1//EN"
       "http://www.w3.org/Graphics/SVG/1.1/DTD/svg11.dtd">
<svg version="1.1" xmlns="http://www.w3.org/2000/svg" xmlns:xlink="http://www.w3.org/1999/xlink" viewBox="0 0 61.8359 45.7227">
 <g>
  <rect height="45.7227" opacity="0" width="61.8359" x="0" y="0"/>
  <path d="M6.64062 45.0586L21.6211 45.0586C25.6055 45.0586 27.3633 43.3594 27.3633 39.3945L27.3633 33.4961L34.9219 33.4961L34.9219 42.9297C34.9219 44.4727 36.0156 45.625 37.5781 45.625C38.6914 45.625 39.6094 45.1367 40.6641 44.1602L60.5273 25.4688C61.5625 24.5117 61.8359 23.6133 61.8359 22.8125C61.8359 21.9922 61.5625 21.1133 60.5273 20.1367L40.6641 1.60156C39.5117 0.507812 38.7305 0 37.6172 0C36.0156 0 34.9219 1.26953 34.9219 2.8125L34.9219 12.8711L18.3984 12.8711C14.4141 12.8711 12.6562 14.5898 12.6562 18.5547L12.6562 23.5742L6.64062 23.5742C2.65625 23.5742 0.898438 25.293 0.898438 29.2578L0.898438 39.3945C0.898438 43.3594 2.65625 45.0586 6.64062 45.0586ZM6.875 41.6797C5.19531 41.6797 4.375 40.7812 4.375 38.9062L4.375 29.7266C4.375 27.8711 5.19531 26.9531 6.875 26.9531L12.6953 26.9531L12.6953 28.9453C12.6953 30.5078 13.1445 31.5625 14.5703 32.5195L23.9062 38.4766L23.9062 38.9062C23.9062 40.7812 23.0664 41.6797 21.3867 41.6797ZM38.75 41.0547C38.5156 41.0547 38.3789 40.8789 38.3789 40.6445L38.3789 30.5664C38.3789 30.0195 38.1445 29.7656 37.5781 29.7656L18.6328 29.7656C16.9531 29.7656 16.1133 28.8672 16.1133 27.0117L16.1133 18.7109C16.1133 16.8555 16.9531 15.9375 18.6328 15.9375L37.5781 15.9375C38.1445 15.9375 38.3789 15.7031 38.3789 15.1367L38.3789 4.80469C38.3789 4.57031 38.5352 4.41406 38.7695 4.41406C38.9648 4.41406 39.1016 4.53125 39.2578 4.66797L57.5977 22.1094C57.8906 22.4023 58.0078 22.5977 58.0078 22.8125C58.0078 23.0273 57.9102 23.2227 57.5977 23.5156L39.2383 40.8008C39.0625 40.9766 38.9062 41.0547 38.75 41.0547Z" fill="black" fill-opacity="0.85"/>
 </g>
</svg>
