<?xml version="1.0" encoding="UTF-8"?>
<!--Generator: Apple Native CoreSVG 326-->
<!DOCTYPE svg
PUBLIC "-//W3C//DTD SVG 1.1//EN"
       "http://www.w3.org/Graphics/SVG/1.1/DTD/svg11.dtd">
<svg version="1.1" xmlns="http://www.w3.org/2000/svg" xmlns:xlink="http://www.w3.org/1999/xlink" viewBox="0 0 46.2891 45.918">
 <g>
  <rect height="45.918" opacity="0" width="46.2891" x="0" y="0"/>
  <path d="M7.59766 45.918L38.3008 45.918C43.3594 45.918 45.918 43.3594 45.918 38.3984L45.918 7.53906C45.918 2.55859 43.3594 0 38.3008 0L7.59766 0C2.55859 0 0 2.53906 0 7.53906L0 38.3984C0 43.3984 2.55859 45.918 7.59766 45.918ZM7.67578 42.4609C4.94141 42.4609 3.45703 41.0156 3.45703 38.2031L3.45703 7.71484C3.45703 4.92188 4.94141 3.45703 7.67578 3.45703L38.2422 3.45703C40.918 3.45703 42.4609 4.92188 42.4609 7.71484L42.4609 38.2031C42.4609 41.0156 40.918 42.4609 38.2422 42.4609Z" fill="black" fill-opacity="0.85"/>
  <path d="M35.7227 25.9961C35.7227 20.1562 31.5234 16.543 25.7227 16.543L17.6172 16.543L14.707 16.6211L16.5234 15.1953L19.668 12.1289C19.9609 11.8555 20.1562 11.4453 20.1562 10.9961C20.1562 10.0977 19.4922 9.39453 18.5938 9.39453C18.1445 9.39453 17.7734 9.55078 17.4805 9.88281L10.7812 16.6797C10.4102 17.0508 10.1758 17.5391 10.1758 18.0664C10.1758 18.5938 10.4102 19.043 10.7812 19.4141L17.5 26.2695C17.793 26.582 18.1641 26.7383 18.6133 26.7383C19.4922 26.7383 20.1562 26.0547 20.1562 25.1562C20.1562 24.7266 20 24.3164 19.6875 24.0039L16.1133 20.5469L14.707 19.4922L17.6172 19.5898L25.7227 19.5898C29.6289 19.5898 32.5391 21.875 32.5391 25.8398C32.5391 29.8633 29.6875 32.4023 25.7031 32.4023C25.3125 32.4023 22.168 32.4023 22.0508 32.4023C21.1328 32.4023 20.4297 32.9688 20.4297 33.9648C20.4297 34.9609 21.1328 35.5078 22.0898 35.5078C22.2266 35.5078 25.3125 35.5078 25.7031 35.5078C31.5039 35.5078 35.7227 31.8359 35.7227 25.9961Z" fill="black" fill-opacity="0.85"/>
 </g>
</svg>
