<?xml version="1.0" encoding="UTF-8"?>
<!--Generator: Apple Native CoreSVG 326-->
<!DOCTYPE svg
PUBLIC "-//W3C//DTD SVG 1.1//EN"
       "http://www.w3.org/Graphics/SVG/1.1/DTD/svg11.dtd">
<svg version="1.1" xmlns="http://www.w3.org/2000/svg" xmlns:xlink="http://www.w3.org/1999/xlink" viewBox="0 0 55.5273 53.1055">
 <g>
  <rect height="53.1055" opacity="0" width="55.5273" x="0" y="0"/>
  <path d="M30.5273 0.839844L52.1094 13.3008C52.8906 13.75 53.2422 14.3164 53.2422 14.9609C53.2422 15.8398 52.5781 16.6797 51.3867 16.6797L49.1211 16.6797L49.1211 46.5039L50.7227 46.5039C51.582 46.5039 52.0898 47.0117 52.0898 47.8516L52.0898 49.6094L53.418 49.6094C54.375 49.6094 55.1562 50.3906 55.1562 51.3477C55.1562 52.2852 54.375 53.0664 53.418 53.0664L1.73828 53.0664C0.78125 53.0664 0 52.2852 0 51.3477C0 50.3906 0.78125 49.6094 1.73828 49.6094L3.06641 49.6094L3.06641 47.8516C3.06641 47.0117 3.57422 46.5039 4.45312 46.5039L6.05469 46.5039L6.05469 16.6797L3.76953 16.6797C2.57812 16.6797 1.91406 15.8398 1.91406 14.9609C1.91406 14.3164 2.24609 13.75 3.04688 13.3008L24.6289 0.839844C25.5664 0.292969 26.6016 0 27.5781 0C28.5547 0 29.5703 0.292969 30.5273 0.839844ZM25.7422 18.1641L22.3438 28.3984L18.6328 28.3984C18.2031 28.3984 17.8516 28.75 17.8516 29.1797C17.8516 29.5898 18.2031 29.9609 18.6328 29.9609L21.8359 29.9609L20.8203 32.9688L18.6328 32.9688C18.2031 32.9688 17.8516 33.3203 17.8516 33.7695C17.8516 34.1797 18.2031 34.5508 18.6328 34.5508L20.293 34.5508L18.9453 38.6133C18.8477 38.8672 18.8086 39.082 18.8086 39.2969C18.8086 40.0195 19.3945 40.4688 20.1562 40.4688C20.8594 40.4688 21.25 40.1172 21.4453 39.4531L22.9883 34.5508L32.1875 34.5508L33.7305 39.4727C33.9062 40.0781 34.2773 40.4688 35.0391 40.4688C35.7227 40.4688 36.3672 40.0586 36.3672 39.2969C36.3672 39.043 36.3086 38.7891 36.2305 38.5352L34.8828 34.5508L36.543 34.5508C36.9727 34.5508 37.3438 34.1797 37.3438 33.7695C37.3438 33.3203 36.9727 32.9688 36.543 32.9688L34.3555 32.9688L33.3398 29.9609L36.543 29.9609C36.9727 29.9609 37.3438 29.5898 37.3438 29.1797C37.3438 28.75 36.9727 28.3984 36.543 28.3984L32.832 28.3984L29.3945 18.1641C29.1016 17.2656 28.5742 16.7969 27.5977 16.7969C26.6406 16.7969 26.0352 17.3242 25.7422 18.1641ZM31.6797 32.9688L23.4766 32.9688L24.4336 29.9609L30.7422 29.9609ZM30.2539 28.3984L24.9219 28.3984L27.5195 20.0977L27.6367 20.0977Z" fill="black" fill-opacity="0.85"/>
 </g>
</svg>
