<?xml version="1.0" encoding="UTF-8"?>
<!--Generator: Apple Native CoreSVG 326-->
<!DOCTYPE svg
PUBLIC "-//W3C//DTD SVG 1.1//EN"
       "http://www.w3.org/Graphics/SVG/1.1/DTD/svg11.dtd">
<svg version="1.1" xmlns="http://www.w3.org/2000/svg" xmlns:xlink="http://www.w3.org/1999/xlink" viewBox="0 0 46.2891 45.918">
 <g>
  <rect height="45.918" opacity="0" width="46.2891" x="0" y="0"/>
  <path d="M45.918 7.53906L45.918 38.3984C45.918 43.3594 43.3594 45.918 38.3008 45.918L7.59766 45.918C2.55859 45.918 0 43.3984 0 38.3984L0 7.53906C0 2.53906 2.55859 0 7.59766 0L38.3008 0C43.3594 0 45.918 2.55859 45.918 7.53906ZM22.1484 9.25781L22.1484 11.6016L17.832 11.6016C16.7578 11.6016 16.1328 12.3047 16.1328 13.3203L16.1328 32.5391C16.1328 33.4961 16.7773 34.1992 17.832 34.1992L22.1484 34.1992L22.1484 36.3672C22.1484 36.8555 22.4609 37.1875 22.9492 37.1875C23.4375 37.1875 23.7305 36.8555 23.7305 36.3672L23.7305 34.1992L24.1992 34.1992C28.5156 34.1992 31.9336 32.2266 31.9336 27.9492C31.9336 24.8047 29.707 22.7344 26.6406 22.3633L26.6406 22.207C29.0234 21.8555 30.7812 19.6289 30.7812 17.207C30.7812 13.4375 27.6172 11.6016 24.1602 11.6016L23.7305 11.6016L23.7305 9.25781C23.7305 8.78906 23.418 8.45703 22.9492 8.45703C22.4609 8.45703 22.1484 8.78906 22.1484 9.25781ZM22.1484 31.9531L18.8086 31.9531L18.8086 23.6719L22.1484 23.6719ZM29.1992 27.793C29.1992 30.7422 26.9336 31.9531 24.0234 31.9531L23.7305 31.9531L23.7305 23.6914L23.8867 23.6914C26.8164 23.6914 29.1992 24.8438 29.1992 27.793ZM22.1484 21.4648L18.8086 21.4648L18.8086 13.8867L22.1484 13.8867ZM28.125 17.5391C28.125 20.0586 26.2305 21.2305 23.7305 21.4062L23.7305 13.8867C26.2695 13.9844 28.125 15.0781 28.125 17.5391Z" fill="black" fill-opacity="0.85"/>
 </g>
</svg>
