<?xml version="1.0" encoding="UTF-8"?>
<!--Generator: Apple Native CoreSVG 326-->
<!DOCTYPE svg
PUBLIC "-//W3C//DTD SVG 1.1//EN"
       "http://www.w3.org/Graphics/SVG/1.1/DTD/svg11.dtd">
<svg version="1.1" xmlns="http://www.w3.org/2000/svg" xmlns:xlink="http://www.w3.org/1999/xlink" viewBox="0 0 50.6183 58.6802">
 <g>
  <rect height="58.6802" opacity="0" width="50.6183" x="0" y="0"/>
  <path d="M28.7564 11.967L32.3502 13.2756L36.1783 2.74828C36.5689 1.635 36.1392 0.599844 35.065 0.189688C34.0103-0.200937 33.0142 0.306876 32.6041 1.42016ZM29.1471 4.70141C14.44 1.43969 3.4244 11.2248 0.162678 20.2873C-0.306072 21.4983 0.299397 22.5139 1.19783 22.8655C1.94002 23.1389 2.58455 22.8069 3.17049 22.3381C5.6119 20.5413 7.87752 19.8577 10.5142 20.8147C12.4674 21.5178 13.5025 22.9436 14.0885 24.2327C14.44 24.9358 15.1431 24.9358 15.3385 24.2131C17.7603 15.6584 23.0142 8.60766 29.1471 4.70141ZM33.5416 4.11547C26.7252 8.29516 20.4947 16.635 18.0142 25.6975C17.8189 26.4983 18.4244 27.0256 19.3228 26.6741C21.3541 25.7561 23.5025 25.4241 25.5338 26.1663C27.565 26.8889 28.9908 28.5295 29.9674 30.5608C30.4361 31.3811 31.1978 31.3811 31.5689 30.6584C35.4947 22.1038 36.0806 11.6936 33.5416 4.11547ZM36.6666 7.43578C38.8541 14.3498 38.3072 23.0998 34.7135 31.2834C34.401 31.9475 34.9283 32.4163 35.651 32.0842C36.94 31.4592 38.6392 31.0491 40.5924 31.7717C43.2291 32.7092 44.5181 34.7209 45.2213 37.6506C45.3775 38.3928 45.69 39.0569 46.4127 39.3108C47.3111 39.6428 48.4439 39.2327 48.8736 38.0022C52.1744 28.9592 50.065 14.3889 36.6666 7.43578ZM12.6822 56.1272C12.3306 57.1233 12.8385 58.217 13.815 58.5881C14.7916 58.9006 15.9244 58.3928 16.276 57.4358L27.7603 25.8928L24.1666 24.6038Z" fill="black" fill-opacity="0.85"/>
 </g>
</svg>
