<?xml version="1.0" encoding="UTF-8"?>
<!--Generator: Apple Native CoreSVG 326-->
<!DOCTYPE svg
PUBLIC "-//W3C//DTD SVG 1.1//EN"
       "http://www.w3.org/Graphics/SVG/1.1/DTD/svg11.dtd">
<svg version="1.1" xmlns="http://www.w3.org/2000/svg" xmlns:xlink="http://www.w3.org/1999/xlink" viewBox="0 0 50.0586 49.4727">
 <g>
  <rect height="49.4727" opacity="0" width="50.0586" x="0" y="0"/>
  <path d="M15.1953 49.4336L34.375 49.4336C44.4336 49.4336 49.6875 44.2383 49.6875 34.2383L49.6875 15.1953C49.6875 5.21484 44.4336 0 34.375 0L15.1953 0C5.21484 0 0 5.21484 0 15.1953L0 34.2383C0 44.2383 5.21484 49.4336 15.1953 49.4336ZM14.7656 45.9766C7.34375 45.9766 3.45703 42.0898 3.45703 34.6875L3.45703 14.7656C3.45703 7.34375 7.34375 3.45703 14.7656 3.45703L35.0586 3.45703C42.4023 3.45703 46.2305 7.24609 46.2305 14.5117L46.2305 34.9219C46.2305 42.1875 42.4023 45.9766 35.0586 45.9766ZM24.8438 36.6602C31.4453 36.6602 36.7383 31.2109 36.7383 24.7266C36.7383 18.1641 31.3086 12.8516 24.8438 12.8516C23.6914 12.8516 22.6172 12.9492 21.6797 13.2422L21.6797 20C22.6172 19.3164 23.7109 18.9258 24.8438 18.9258C27.9297 18.9258 30.5664 21.6016 30.5664 24.7266C30.5664 27.832 27.9883 30.3906 24.8438 30.3906C21.6211 30.3906 19.1211 27.9102 19.1211 24.7266L19.1211 14.2578C15.3125 16.3867 12.9297 20.3125 12.9297 24.7266C12.9297 31.3477 18.2422 36.6602 24.8438 36.6602ZM24.8438 27.8711C26.5234 27.8711 27.9688 26.3867 27.9688 24.7266C27.9688 23.1055 26.4844 21.6406 24.8438 21.6406C23.2031 21.6406 21.7188 23.0469 21.7188 24.7266C21.7188 26.4648 23.1445 27.8711 24.8438 27.8711Z" fill="black" fill-opacity="0.85"/>
 </g>
</svg>
