<?xml version="1.0" encoding="UTF-8"?>
<!--Generator: Apple Native CoreSVG 326-->
<!DOCTYPE svg
PUBLIC "-//W3C//DTD SVG 1.1//EN"
       "http://www.w3.org/Graphics/SVG/1.1/DTD/svg11.dtd">
<svg version="1.1" xmlns="http://www.w3.org/2000/svg" xmlns:xlink="http://www.w3.org/1999/xlink" viewBox="0 0 59.5508 42.7148">
 <g>
  <rect height="42.7148" opacity="0" width="59.5508" x="0" y="0"/>
  <path d="M7.59766 42.7148L51.5625 42.7148C56.6211 42.7148 59.1797 40.1758 59.1797 35.1953L59.1797 13.9844C59.1797 9.00391 56.6211 6.46484 51.5625 6.46484L48.3203 6.46484L48.3203 2.92969C48.3203 1.11328 47.2852 0.0195312 45.4102 0.0195312L40.2148 0.0195312C38.3594 0.0195312 37.3047 1.11328 37.3047 2.92969L37.3047 6.46484L21.8555 6.46484L21.8555 2.92969C21.8555 1.11328 20.8203 0.0195312 18.9453 0.0195312L13.75 0.0195312C11.8945 0.0195312 10.8398 1.11328 10.8398 2.92969L10.8398 6.46484L7.59766 6.46484C2.55859 6.46484 0 8.98438 0 13.9844L0 35.1953C0 40.1953 2.55859 42.7148 7.59766 42.7148ZM3.45703 35.0195L3.45703 14.1602C3.45703 11.3672 4.94141 9.92188 7.67578 9.92188L51.5039 9.92188C54.1797 9.92188 55.7031 11.3672 55.7031 14.1602L55.7031 35.0195C55.7031 37.8125 54.1797 39.2578 51.5039 39.2578L7.67578 39.2578C4.94141 39.2578 3.45703 37.8125 3.45703 35.0195Z" fill="black" fill-opacity="0.85"/>
  <path d="M21.6211 26.2695C21.6211 26.6797 21.9727 26.9727 22.4023 26.9727L28.7695 26.9727L25.3516 36.1328C24.9219 37.2461 26.1133 37.8516 26.8164 36.9531L37.0703 24.043C37.2656 23.8281 37.3828 23.5938 37.3828 23.3594C37.3828 22.9492 37.0312 22.6367 36.6016 22.6367L30.2539 22.6367L33.6523 13.4961C34.0625 12.3828 32.8906 11.7773 32.1875 12.6758L21.9141 25.5859C21.7383 25.8203 21.6211 26.0352 21.6211 26.2695Z" fill="black" fill-opacity="0.85"/>
 </g>
</svg>
