<?xml version="1.0" encoding="UTF-8"?>
<!--Generator: Apple Native CoreSVG 326-->
<!DOCTYPE svg
PUBLIC "-//W3C//DTD SVG 1.1//EN"
       "http://www.w3.org/Graphics/SVG/1.1/DTD/svg11.dtd">
<svg version="1.1" xmlns="http://www.w3.org/2000/svg" xmlns:xlink="http://www.w3.org/1999/xlink" viewBox="0 0 57.3633 45.3711">
 <g>
  <rect height="45.3711" opacity="0" width="57.3633" x="0" y="0"/>
  <path d="M14.1797 0C8.67188 0 2.89062 2.48047 0.292969 6.83594C0.0195312 7.32422 0 7.61719 0 8.45703L0 43.6719C0 44.668 0.644531 45.3125 1.71875 45.3125C2.28516 45.3125 2.77344 45.1172 3.20312 44.7461C6.30859 41.9727 10.6445 40.5859 14.9609 40.5859C19.1211 40.5859 22.7539 42.1484 25.2539 44.2969C25.5273 44.5312 25.8398 44.6484 26.1133 44.6484C26.6406 44.6484 27.0703 44.2578 27.0703 43.6523L27.0703 6.93359C27.0703 6.28906 27.0117 6.13281 26.5625 5.52734C23.9648 2.01172 19.2578 0 14.1797 0ZM42.832 0C37.7344 0 33.0273 2.01172 30.4297 5.52734C30 6.13281 29.9414 6.28906 29.9414 6.93359L29.9414 43.6523C29.9414 44.2578 30.3516 44.6484 30.8789 44.6484C31.1523 44.6484 31.4648 44.5312 31.7383 44.2969C34.2383 42.1484 37.8711 40.5859 42.0312 40.5859C46.3672 40.5859 50.6836 41.9727 53.8086 44.7461C54.2188 45.1172 54.707 45.3125 55.2734 45.3125C56.3477 45.3125 56.9922 44.668 56.9922 43.6719L56.9922 8.45703C56.9922 7.61719 56.9727 7.30469 56.6992 6.83594C54.1016 2.48047 48.3398 0 42.832 0Z" fill="black" fill-opacity="0.85"/>
 </g>
</svg>
