<?xml version="1.0" encoding="UTF-8"?>
<!--Generator: Apple Native CoreSVG 326-->
<!DOCTYPE svg
PUBLIC "-//W3C//DTD SVG 1.1//EN"
       "http://www.w3.org/Graphics/SVG/1.1/DTD/svg11.dtd">
<svg version="1.1" xmlns="http://www.w3.org/2000/svg" xmlns:xlink="http://www.w3.org/1999/xlink" viewBox="0 0 71.9531 53.0042">
 <g>
  <rect height="53.0042" opacity="0" width="71.9531" x="0" y="0"/>
  <path d="M33.8477 9.3439C34.2969 9.94937 34.3555 10.1056 34.3555 10.7502L34.3555 37.8123C31.2825 40.7516 30.7672 44.8008 32.5797 48.131C32.5722 48.1259 32.5654 48.1197 32.5586 48.1134C30.0586 45.965 26.4258 44.4025 22.2461 44.4025C17.9297 44.4025 13.6133 45.7892 10.4883 48.5627C10.0586 48.9337 9.57031 49.1291 9.02344 49.1291C7.92969 49.1291 7.28516 48.4845 7.28516 47.4884L7.28516 12.2736C7.28516 11.4337 7.32422 11.1408 7.59766 10.6525C10.1953 6.29703 15.957 3.81656 21.4648 3.81656C26.543 3.81656 31.2695 5.82828 33.8477 9.3439ZM64.2969 47.4884C64.2969 48.4845 63.6523 49.1291 62.5586 49.1291C62.0117 49.1291 61.5234 48.9337 61.0938 48.5627C58.3667 46.1272 54.6909 44.7611 50.9125 44.4659C52.6271 41.9614 54.4568 39.3403 55.8594 37.9377C57.7148 36.0627 59.1211 35.4181 61.25 35.4181C62.3608 35.4181 63.3793 35.2919 64.2969 35.0485ZM63.9844 10.6525C64.2773 11.1212 64.2969 11.4337 64.2969 12.2736L64.2969 12.6609C62.8203 12.0651 61.269 11.7853 59.7852 11.7853C56.8555 11.7853 53.9258 12.8595 51.7383 14.9494C46.0156 20.4377 49.1016 26.0822 47.2461 27.9181C44.3387 30.8406 40.41 33.1761 37.2266 35.4889L37.2266 10.7502C37.2266 10.1056 37.2852 9.94937 37.7344 9.3439C40.3125 5.82828 45.0391 3.81656 50.1172 3.81656C55.625 3.81656 61.4062 6.29703 63.9844 10.6525Z" fill="black" fill-opacity="0.85"/>
  <path d="M36.4258 48.0939C38.8086 50.4767 42.3242 50.5744 44.707 47.8009C46.6406 45.4962 50.8398 38.5431 54.7461 34.6369C56.6992 32.6642 59.4727 32.2931 61.25 32.2931C67.207 32.2931 69.3359 27.6056 68.7695 24.422L61.3477 26.3752L60.4492 23.172C60.1367 22.0392 60.5469 21.0236 61.9141 20.672L67.3438 19.2267C67.1289 18.7775 66.6992 18.1134 66.1328 17.547C62.793 14.1291 57.2266 14.0509 53.8867 17.215C49.0625 21.8244 52.8125 26.7462 49.4531 30.1252C45.4688 34.1095 39.7266 37.1564 36.7578 39.8127C33.9844 42.2736 34.0234 45.7111 36.4258 48.0939ZM40.5078 45.7892C39.5117 45.7892 38.7109 44.9884 38.7109 44.0119C38.7109 43.0353 39.5117 42.2541 40.5078 42.2541C41.5039 42.2541 42.2656 43.0353 42.2656 44.0119C42.2656 44.9884 41.5039 45.7892 40.5078 45.7892Z" fill="black" fill-opacity="0.85"/>
 </g>
</svg>
