<?xml version="1.0" encoding="UTF-8"?>
<!--Generator: Apple Native CoreSVG 326-->
<!DOCTYPE svg
PUBLIC "-//W3C//DTD SVG 1.1//EN"
       "http://www.w3.org/Graphics/SVG/1.1/DTD/svg11.dtd">
<svg version="1.1" xmlns="http://www.w3.org/2000/svg" xmlns:xlink="http://www.w3.org/1999/xlink" viewBox="0 0 62.3633 59.9023">
 <g>
  <rect height="59.9023" opacity="0" width="62.3633" x="0" y="0"/>
  <path d="M62.3633 12.7734L62.3633 47.0508C62.3633 54.7852 57.0898 59.8242 48.9844 59.8242L41.1328 59.8242C33.9844 59.8242 29.3359 54.4922 29.3359 47.0508L29.3359 38.4491L32.793 35.4355L32.793 47.0508C32.793 52.3828 36.0938 56.3672 41.1328 56.3672C46.1523 56.3672 49.4336 52.3828 49.4336 47.0508L49.4336 12.7734C49.4336 7.44141 46.1523 3.45703 41.1328 3.45703C36.0938 3.45703 32.793 7.44141 32.793 12.7734L32.793 24.3823L29.3359 21.3856L29.3359 12.7734C29.3359 5.33203 33.9844 0 41.1328 5.64304e-08L48.9844 0C57.0898 0 62.3633 5.03906 62.3633 12.7734ZM52.9102 12.7734L52.9102 47.0508C52.9102 50.8385 51.7058 54.0798 49.5779 56.344C55.2234 56.1152 58.9062 52.4855 58.9062 47.0508L58.9062 12.7734C58.9062 7.33875 55.2234 3.70903 49.5779 3.48022C51.7058 5.74443 52.9102 8.98567 52.9102 12.7734Z" fill="black" fill-opacity="0.85"/>
  <path d="M34.375 31.9141C35.7227 30.7812 35.6836 29.0039 34.3555 27.8906L26.9141 21.4062C25.0586 19.8242 22.4609 20.9375 22.4609 23.3789L22.4609 27.3438L9.88281 27.3438C8.4375 27.3438 7.30469 28.4766 7.30469 29.9414C7.30469 31.3672 8.4375 32.5 9.88281 32.5L22.4609 32.5L22.4609 36.4453C22.4609 38.9648 25.1172 39.9609 26.9141 38.3984Z" fill="black" fill-opacity="0.85"/>
 </g>
</svg>
