<?xml version="1.0" encoding="UTF-8"?>
<!--Generator: Apple Native CoreSVG 326-->
<!DOCTYPE svg
PUBLIC "-//W3C//DTD SVG 1.1//EN"
       "http://www.w3.org/Graphics/SVG/1.1/DTD/svg11.dtd">
<svg version="1.1" xmlns="http://www.w3.org/2000/svg" xmlns:xlink="http://www.w3.org/1999/xlink" viewBox="0 0 40 56.3477">
 <g>
  <rect height="56.3477" opacity="0" width="40" x="0" y="0"/>
  <path d="M5.50781 51.6992L34.1211 51.6992C37.4219 51.6992 39.6289 49.3945 39.6289 45.9375L39.6289 5.74219C39.6289 2.28516 37.4219 0 34.1211 0L5.50781 0C2.20703 0 0 2.28516 0 5.74219L0 45.9375C0 49.3945 2.20703 51.6992 5.50781 51.6992ZM5.64453 48.2227C4.33594 48.2227 3.45703 47.3242 3.45703 45.9375L3.45703 5.76172C3.45703 4.375 4.33594 3.45703 5.64453 3.45703L33.9844 3.45703C35.293 3.45703 36.1719 4.375 36.1719 5.76172L36.1719 45.9375C36.1719 47.3242 35.293 48.2227 33.9844 48.2227ZM18.3789 49.8047L21.25 49.8047L21.25 1.79688L18.3789 1.79688ZM13.3984 29.2969C14.7852 29.2969 15.9375 28.1641 15.9375 26.7773C15.9375 25.3516 14.7852 24.2383 13.3984 24.2383C11.9922 24.2383 10.8594 25.3516 10.8594 26.7773C10.8594 28.1641 11.9922 29.2969 13.3984 29.2969ZM26.2109 29.2969C27.5977 29.2969 28.75 28.1641 28.75 26.7773C28.75 25.3516 27.5977 24.2383 26.2109 24.2383C24.8047 24.2383 23.6523 25.3516 23.6523 26.7773C23.6523 28.1641 24.8047 29.2969 26.2109 29.2969ZM7.07031 56.2695C8.16406 56.2695 8.92578 55.5273 8.92578 54.4141L8.92578 49.5898L5.21484 49.5898L5.21484 54.4141C5.21484 55.5273 5.95703 56.2695 7.07031 56.2695ZM32.5586 56.2695C33.6719 56.2695 34.4141 55.5273 34.4141 54.4141L34.4141 49.5898L30.7031 49.5898L30.7031 54.4141C30.7031 55.5273 31.4648 56.2695 32.5586 56.2695Z" fill="black" fill-opacity="0.85"/>
 </g>
</svg>
