<?xml version="1.0" encoding="UTF-8"?>
<!--Generator: Apple Native CoreSVG 326-->
<!DOCTYPE svg
PUBLIC "-//W3C//DTD SVG 1.1//EN"
       "http://www.w3.org/Graphics/SVG/1.1/DTD/svg11.dtd">
<svg version="1.1" xmlns="http://www.w3.org/2000/svg" xmlns:xlink="http://www.w3.org/1999/xlink" viewBox="0 0 40 57.1289">
 <g>
  <rect height="57.1289" opacity="0" width="40" x="0" y="0"/>
  <path d="M5.50781 52.4805L18.2617 52.4805L18.2617 0L5.50781 0C2.20703 0 0 2.28516 0 5.74219L0 46.7383C0 50.1953 2.20703 52.4805 5.50781 52.4805ZM12.2852 29.6875C10.8789 29.6875 9.74609 28.5547 9.74609 27.168C9.74609 25.7422 10.8789 24.6289 12.2852 24.6289C13.6719 24.6289 14.8242 25.7422 14.8242 27.168C14.8242 28.5547 13.6719 29.6875 12.2852 29.6875ZM34.1211 52.4805C37.4219 52.4805 39.6289 50.1953 39.6289 46.7383L39.6289 5.74219C39.6289 2.28516 37.4219 0 34.1211 0L21.3672 0L21.3672 52.4805ZM27.3242 29.6875C25.918 29.6875 24.7656 28.5547 24.7656 27.168C24.7656 25.7422 25.918 24.6289 27.3242 24.6289C28.7109 24.6289 29.8633 25.7422 29.8633 27.168C29.8633 28.5547 28.7109 29.6875 27.3242 29.6875ZM7.07031 57.0508C8.16406 57.0508 8.92578 56.3086 8.92578 55.1953L8.92578 50.3711L5.21484 50.3711L5.21484 55.1953C5.21484 56.3086 5.95703 57.0508 7.07031 57.0508ZM32.5586 57.0508C33.6719 57.0508 34.4141 56.3086 34.4141 55.1953L34.4141 50.3711L30.7031 50.3711L30.7031 55.1953C30.7031 56.3086 31.4648 57.0508 32.5586 57.0508Z" fill="black" fill-opacity="0.85"/>
 </g>
</svg>
