<?xml version="1.0" encoding="UTF-8"?>
<!--Generator: Apple Native CoreSVG 326-->
<!DOCTYPE svg
PUBLIC "-//W3C//DTD SVG 1.1//EN"
       "http://www.w3.org/Graphics/SVG/1.1/DTD/svg11.dtd">
<svg version="1.1" xmlns="http://www.w3.org/2000/svg" xmlns:xlink="http://www.w3.org/1999/xlink" viewBox="0 0 59.5508 45.918">
 <g>
  <rect height="45.918" opacity="0" width="59.5508" x="0" y="0"/>
  <path d="M7.59766 45.918L28.0664 45.918L28.0664 42.4609L7.67578 42.4609C4.94141 42.4609 3.45703 41.0156 3.45703 38.2031L3.45703 24.5117L0 24.5117L0 38.3984C0 43.3984 2.55859 45.918 7.59766 45.918ZM31.1719 45.918L51.5625 45.918C56.6211 45.918 59.1797 43.3594 59.1797 38.3984L59.1797 24.5117L55.7031 24.5117L55.7031 38.2031C55.7031 41.0156 54.1797 42.4609 51.5039 42.4609L31.1719 42.4609ZM55.7031 21.4062L59.1797 21.4062L59.1797 7.53906C59.1797 2.55859 56.6211 0 51.5625 0L31.1719 0L31.1719 3.45703L51.5039 3.45703C54.1797 3.45703 55.7031 4.92188 55.7031 7.71484ZM0 21.4062L3.45703 21.4062L3.45703 7.71484C3.45703 4.92188 4.94141 3.45703 7.67578 3.45703L28.0664 3.45703L28.0664 0L7.59766 0C2.55859 0 0 2.53906 0 7.53906Z" fill="black" fill-opacity="0.85"/>
  <path d="M29.6484 16.0938C31.582 16.0938 33.1641 14.5312 33.1641 12.5781C33.1641 10.625 31.582 9.0625 29.6484 9.0625C27.6953 9.0625 26.1328 10.625 26.1328 12.5781C26.1328 14.5312 27.6953 16.0938 29.6484 16.0938ZM19.2773 26.4648C21.2305 26.4648 22.793 24.8828 22.793 22.9492C22.793 20.9961 21.2305 19.4336 19.2773 19.4336C17.3242 19.4336 15.7617 20.9961 15.7617 22.9492C15.7617 24.8828 17.3242 26.4648 19.2773 26.4648ZM40.0195 26.4648C41.9531 26.4648 43.5156 24.8828 43.5156 22.9492C43.5156 20.9961 41.9531 19.4336 40.0195 19.4336C38.0664 19.4336 36.5039 20.9961 36.5039 22.9492C36.5039 24.8828 38.0664 26.4648 40.0195 26.4648ZM29.6484 36.8164C31.582 36.8164 33.1641 35.2539 33.1641 33.3008C33.1641 31.3672 31.582 29.8047 29.6484 29.8047C27.6953 29.8047 26.1328 31.3672 26.1328 33.3008C26.1328 35.2539 27.6953 36.8164 29.6484 36.8164Z" fill="black" fill-opacity="0.85"/>
  <path d="M29.6484 26.4648C31.582 26.4648 33.1641 24.8828 33.1641 22.9492C33.1641 20.9961 31.582 19.4336 29.6484 19.4336C27.6953 19.4336 26.1328 20.9961 26.1328 22.9492C26.1328 24.8828 27.6953 26.4648 29.6484 26.4648Z" fill="black" fill-opacity="0.85"/>
 </g>
</svg>
