<?xml version="1.0" encoding="UTF-8"?>
<!--Generator: Apple Native CoreSVG 326-->
<!DOCTYPE svg
PUBLIC "-//W3C//DTD SVG 1.1//EN"
       "http://www.w3.org/Graphics/SVG/1.1/DTD/svg11.dtd">
<svg version="1.1" xmlns="http://www.w3.org/2000/svg" xmlns:xlink="http://www.w3.org/1999/xlink" viewBox="0 0 59.5508 45.918">
 <g>
  <rect height="45.918" opacity="0" width="59.5508" x="0" y="0"/>
  <path d="M7.59766 45.918L28.0664 45.918L28.0664 42.4609L7.67578 42.4609C4.94141 42.4609 3.45703 41.0156 3.45703 38.2031L3.45703 24.5117L0 24.5117L0 38.3984C0 43.3984 2.55859 45.918 7.59766 45.918ZM31.1719 45.918L51.5625 45.918C56.6211 45.918 59.1797 43.3594 59.1797 38.3984L59.1797 24.5117L55.7031 24.5117L55.7031 38.2031C55.7031 41.0156 54.1797 42.4609 51.5039 42.4609L31.1719 42.4609ZM55.7031 21.4062L59.1797 21.4062L59.1797 7.53906C59.1797 2.55859 56.6211 0 51.5625 0L31.1719 0L31.1719 3.45703L51.5039 3.45703C54.1797 3.45703 55.7031 4.92188 55.7031 7.71484ZM0 21.4062L3.45703 21.4062L3.45703 7.71484C3.45703 4.92188 4.94141 3.45703 7.67578 3.45703L28.0664 3.45703L28.0664 0L7.59766 0C2.55859 0 0 2.53906 0 7.53906Z" fill="black" fill-opacity="0.85"/>
  <path d="M43.3203 24.5508L40.4492 24.5508C39.668 29.8438 35.0977 33.9453 29.6289 33.9453C24.1211 33.9453 19.5312 29.8633 18.7305 24.5508L15.8789 24.5508C16.6797 31.4258 22.5586 36.7773 29.6289 36.7773C36.6406 36.7773 42.5 31.4062 43.3203 24.5508ZM40.4688 21.4258L43.3203 21.4258C42.5586 14.6094 36.6602 9.19922 29.6289 9.19922C22.5586 9.19922 16.6211 14.6094 15.8789 21.4258L18.7109 21.4258C19.4727 16.1719 24.1211 12.0312 29.6289 12.0312C35.1172 12.0312 39.7266 16.1719 40.4688 21.4258Z" fill="black" fill-opacity="0.85"/>
 </g>
</svg>
