<?xml version="1.0" encoding="UTF-8"?>
<!--Generator: Apple Native CoreSVG 326-->
<!DOCTYPE svg
PUBLIC "-//W3C//DTD SVG 1.1//EN"
       "http://www.w3.org/Graphics/SVG/1.1/DTD/svg11.dtd">
<svg version="1.1" xmlns="http://www.w3.org/2000/svg" xmlns:xlink="http://www.w3.org/1999/xlink" viewBox="0 0 70.5859 56.6992">
 <g>
  <rect height="56.6992" opacity="0" width="70.5859" x="0" y="0"/>
  <path d="M52.3806 11.6651C50.7461 11.3634 49.0231 11.2109 47.2266 11.2109L35.1172 11.2109C21.25 11.2109 11.7578 20.293 11.7578 33.9453C11.7578 36.0695 11.9865 38.0829 12.4502 39.9531C6.36616 36.8214 2.73438 30.7222 2.73438 22.7148C2.73438 10.8203 10.8008 3.08594 22.9883 3.08594L35.0977 3.08594C42.8854 3.08594 49.001 6.25414 52.3806 11.6651Z" fill="black" fill-opacity="0.85"/>
  <path d="M14.8633 33.9453C14.8633 45.8789 22.9297 53.5742 35.1172 53.5742L47.2266 53.5742C59.3945 53.5742 67.4609 45.8789 67.4609 33.9453C67.4609 22.0508 59.3945 14.3164 47.2266 14.3164L35.1172 14.3164C22.9297 14.3164 14.8633 22.0508 14.8633 33.9453Z" fill="black" fill-opacity="0.85"/>
 </g>
</svg>
