<?xml version="1.0" encoding="UTF-8"?>
<!--Generator: Apple Native CoreSVG 326-->
<!DOCTYPE svg
PUBLIC "-//W3C//DTD SVG 1.1//EN"
       "http://www.w3.org/Graphics/SVG/1.1/DTD/svg11.dtd">
<svg version="1.1" xmlns="http://www.w3.org/2000/svg" xmlns:xlink="http://www.w3.org/1999/xlink" viewBox="0 0 63.7109 50.4492">
 <g>
  <rect height="50.4492" opacity="0" width="63.7109" x="0" y="0"/>
  <path d="M50 7.65625L50 12.1472C48.9136 11.8109 47.7602 11.5699 46.543 11.4333L46.543 7.85156C46.543 5.03906 45 3.59375 42.3242 3.59375L7.67578 3.59375C4.94141 3.59375 3.45703 5.03906 3.45703 7.85156L3.45703 31.3672C3.45703 34.1797 5 35.625 7.67578 35.625L11.2347 35.625C11.4686 36.8493 11.8167 38.0014 12.2631 39.082L7.59766 39.082C2.53906 39.082 0 36.5625 0 31.5625L0 7.65625C0 2.67578 2.53906 0.136719 7.59766 0.136719L42.4023 0.136719C47.4414 0.136719 50 2.67578 50 7.65625Z" fill="black" fill-opacity="0.85"/>
  <path d="M30.9961 50.4492L43.0859 50.4492C55.2734 50.4492 63.3398 42.7539 63.3398 30.8203C63.3398 18.9258 55.2734 11.1914 43.0859 11.1914L30.9961 11.1914C18.7891 11.1914 10.7422 18.9258 10.7422 30.8203C10.7422 42.7539 18.7891 50.4492 30.9961 50.4492ZM30.9961 46.9922C20.8203 46.9922 14.1992 40.6836 14.1992 30.8203C14.1992 20.9961 20.8203 14.6484 30.9961 14.6484L43.0859 14.6484C53.2422 14.6484 59.8828 20.9961 59.8828 30.8203C59.8828 40.6836 53.2422 46.9922 43.0859 46.9922Z" fill="black" fill-opacity="0.85"/>
 </g>
</svg>
