<?xml version="1.0" encoding="UTF-8"?>
<!--Generator: Apple Native CoreSVG 326-->
<!DOCTYPE svg
PUBLIC "-//W3C//DTD SVG 1.1//EN"
       "http://www.w3.org/Graphics/SVG/1.1/DTD/svg11.dtd">
<svg version="1.1" xmlns="http://www.w3.org/2000/svg" xmlns:xlink="http://www.w3.org/1999/xlink" viewBox="0 0 63.2135 64.4727">
 <g>
  <rect height="64.4727" opacity="0" width="63.2135" x="0" y="0"/>
  <path d="M6.15751 58.2812C9.98564 62.1289 14.9075 64.4531 20.22 64.4531C21.3333 64.4531 22.0755 63.7305 22.0755 62.7344C22.056 61.8164 21.3333 61.1914 20.1028 61.1133C15.8255 60.918 11.6849 59.1797 8.4622 55.9766C5.25908 52.7539 3.52079 48.6328 3.32548 44.3359C3.22783 42.9688 2.64189 42.4219 1.5872 42.4219C0.747357 42.4023-0.0729552 43.0273 0.00516975 44.1992C0.259076 49.5312 2.32939 54.4531 6.15751 58.2812ZM56.6849 58.2812C60.5325 54.4531 62.5833 49.5312 62.8372 44.1992C62.9153 43.0273 62.095 42.4023 61.2552 42.4219C60.22 42.4219 59.6145 42.9688 59.5169 44.3359C59.3216 48.6328 57.6028 52.7539 54.3802 55.9766C51.1575 59.1797 47.0364 60.918 42.7395 61.1133C41.5091 61.1914 40.7864 61.8164 40.7864 62.7344C40.7864 63.7305 41.5286 64.4531 42.6419 64.4531C47.9544 64.4531 52.8567 62.1289 56.6849 58.2812Z" fill="black" fill-opacity="0.85"/>
  <path d="M12.3489 52.0898C14.8294 54.5703 18.1888 55.8398 20.5325 55.8398C21.5481 55.8398 22.2513 55.1758 22.2317 54.2578C22.2317 53.3398 21.6263 52.6953 20.2786 52.5195C18.2474 52.3633 16.3138 51.4453 14.6536 49.8047C13.013 48.1445 12.1145 46.1914 11.8997 43.9844C11.7239 42.7734 11.2747 42.2461 10.2005 42.2461C9.24345 42.2266 8.50126 42.9688 8.63798 44.1406C8.89189 47.168 10.1614 49.9219 12.3489 52.0898ZM50.4935 52.0898C52.7005 49.9219 53.97 47.168 54.2239 44.1406C54.3606 42.9688 53.5989 42.2266 52.6614 42.2461C51.5677 42.2461 51.1185 42.7734 50.9427 43.9844C50.7278 46.1914 49.8294 48.1445 48.2083 49.8047C46.5286 51.4453 44.595 52.3633 42.5638 52.5195C41.2356 52.6953 40.6106 53.3398 40.6106 54.2578C40.6106 55.1758 41.3138 55.8398 42.3294 55.8398C44.6536 55.8398 48.013 54.5703 50.4935 52.0898Z" fill="black" fill-opacity="0.85"/>
  <path d="M31.431 49.1406C40.7669 49.1406 45.1614 46.9531 45.1614 41.5625L45.1614 8.84766C45.1614 3.26172 40.0052 0 31.431 0C22.8372 0 17.7005 3.26172 17.7005 8.84766L17.7005 41.5625C17.7005 46.9531 22.0755 49.1406 31.431 49.1406ZM31.431 45.7812C24.1849 45.7812 21.0794 44.5312 21.0794 41.4648L21.0794 8.84766C21.0794 5.37109 24.7122 3.37891 31.431 3.37891C38.1497 3.37891 41.7435 5.37109 41.7435 8.84766L41.7435 41.4648C41.7435 44.5312 38.677 45.7812 31.431 45.7812ZM31.4114 20.6641C33.3255 20.6641 36.138 20.8398 37.095 20.8398C38.6185 20.8398 39.3216 20.2148 39.4583 18.5938L39.7708 15.1758C40.0052 12.2852 38.2474 11.1133 31.4114 11.1133C24.595 11.1133 22.8372 12.2852 23.0911 15.1758L23.3841 18.5938C23.5208 20.2148 24.2239 20.8398 25.7474 20.8398C26.7044 20.8398 29.7122 20.6641 31.4114 20.6641ZM31.4114 41.2305C38.013 41.2305 40.0638 40.2539 39.6536 37.2852L39.4192 35.5664C39.0677 33.1836 37.1927 32.4023 31.4114 32.4023C25.6497 32.4023 23.7747 33.1836 23.4231 35.5664L23.1888 37.2852C22.7786 40.2539 24.8294 41.2305 31.4114 41.2305ZM19.556 19.2383L19.556 14.3945L16.6263 14.3945C15.4544 14.3945 14.5755 15.2344 14.5755 16.3281L14.5755 17.3242C14.5755 18.3984 15.4544 19.2383 16.6263 19.2383ZM43.2864 19.2383L46.2161 19.2383C47.388 19.2383 48.2669 18.3984 48.2669 17.3242L48.2669 16.3281C48.2669 15.2344 47.388 14.3945 46.2161 14.3945L43.2864 14.3945Z" fill="black" fill-opacity="0.85"/>
 </g>
</svg>
