<?xml version="1.0" encoding="UTF-8"?>
<!--Generator: Apple Native CoreSVG 326-->
<!DOCTYPE svg
PUBLIC "-//W3C//DTD SVG 1.1//EN"
       "http://www.w3.org/Graphics/SVG/1.1/DTD/svg11.dtd">
<svg version="1.1" xmlns="http://www.w3.org/2000/svg" xmlns:xlink="http://www.w3.org/1999/xlink" viewBox="0 0 93.5156 69.707">
 <g>
  <rect height="69.707" opacity="0" width="93.5156" x="0" y="0"/>
  <path d="M9.27734 57.4023C9.94141 56.6406 9.72656 55.625 8.96484 54.7461C5.48828 50.9766 3.49609 45.9961 3.49609 40.4688C3.49609 34.9609 5.48828 29.9805 8.96484 26.1914C9.72656 25.3125 9.94141 24.3164 9.27734 23.5352C8.57422 22.7344 7.38281 22.7539 6.5625 23.6523C2.38281 28.0859 0 34.0234 0 40.4688C0 46.9141 2.38281 52.8516 6.5625 57.2852C7.38281 58.2031 8.57422 58.2031 9.27734 57.4023ZM83.8867 57.4023C84.5703 58.2031 85.7812 58.2031 86.6016 57.2852C90.7617 52.8516 93.1445 46.9141 93.1445 40.4688C93.1445 34.0234 90.7617 28.0859 86.6016 23.6523C85.7812 22.7539 84.5703 22.7344 83.8867 23.5352C83.2031 24.3164 83.418 25.3125 84.1797 26.1914C87.6758 29.9805 89.6484 34.9609 89.6484 40.4688C89.6484 45.9961 87.6758 50.9766 84.1797 54.7461C83.418 55.625 83.2031 56.6406 83.8867 57.4023ZM46.4258 3.51562C51.9336 3.51562 56.9141 5.48828 60.7031 8.96484C61.5625 9.74609 62.5781 9.96094 63.3594 9.27734C64.1602 8.59375 64.1602 7.38281 63.2617 6.5625C58.8086 2.40234 52.8711 0 46.4258 0C39.9609 0 34.0234 2.40234 29.5898 6.5625C28.6914 7.38281 28.6914 8.59375 29.4922 9.27734C30.2539 9.96094 31.2695 9.74609 32.1289 8.96484C35.918 5.48828 40.8984 3.51562 46.4258 3.51562Z" fill="black" fill-opacity="0.85"/>
  <path d="M16.25 50.293C16.9336 49.5312 16.6406 48.5547 15.957 47.6367C14.2969 45.7617 13.4961 43.2031 13.4961 40.4688C13.4961 37.7344 14.2969 35.1953 15.957 33.3008C16.6406 32.3828 16.9336 31.4258 16.25 30.6445C15.5273 29.8438 14.2578 29.8438 13.4961 30.8008C11.2695 33.4375 10 36.8164 10 40.4688C10 44.1211 11.2695 47.5195 13.4961 50.1367C14.2578 51.1133 15.5273 51.0938 16.25 50.293ZM76.9141 50.293C77.6172 51.0938 78.9062 51.1133 79.668 50.1367C81.875 47.5195 83.1641 44.1211 83.1641 40.4688C83.1641 36.8164 81.875 33.4375 79.668 30.8008C78.9062 29.8438 77.6172 29.8438 76.9141 30.6445C76.2305 31.4258 76.5039 32.3828 77.1875 33.3008C78.8477 35.1953 79.668 37.7344 79.668 40.4688C79.668 43.2031 78.8477 45.7617 77.1875 47.6367C76.5039 48.5547 76.2305 49.5312 76.9141 50.293ZM46.4844 13.4961C49.2383 13.4961 51.7773 14.3164 53.6719 15.957C54.5703 16.6602 55.5469 16.9336 56.3281 16.25C57.1289 15.5469 57.1484 14.2578 56.1719 13.4961C53.5547 11.2695 50.1367 10 46.4844 10C42.8516 10 39.4336 11.2695 36.8164 13.4961C35.8398 14.2578 35.8594 15.5469 36.6602 16.25C37.4414 16.9336 38.3984 16.6406 39.3164 15.957C41.3086 14.4141 43.75 13.4961 46.4844 13.4961Z" fill="black" fill-opacity="0.85"/>
  <path d="M46.582 53.9844C53.4961 53.9844 62.5586 53.6328 66.3867 53.1836C69.1797 52.8711 70.8398 51.3477 70.8398 48.6133L70.8398 44.8828C70.8398 41.3477 70.0586 39.3555 68.2227 37.0117L66.5234 34.8438C65.7812 31.2109 64.4336 27.4023 63.7305 25.918C62.6172 23.5156 60.3906 22.1875 57.7344 21.8359C56.3477 21.6406 51.8359 21.5234 46.582 21.5234C41.3477 21.5234 36.8359 21.6602 35.4492 21.8359C32.793 22.168 30.5664 23.5156 29.4531 25.918C28.7305 27.4023 27.4023 31.2109 26.6406 34.8438L24.9609 37.0117C23.125 39.3555 22.3633 41.3477 22.3633 44.8828L22.3633 48.6133C22.3633 51.3477 24.0039 52.8711 26.7969 53.1836C30.625 53.6328 39.6875 53.9844 46.582 53.9844ZM46.582 51.0156C39.6484 51.0156 30.7812 50.7227 27.4414 50.293C25.8398 50.0977 25.332 49.4531 25.332 47.9883L25.332 44.8828C25.332 42.1289 25.7031 40.8594 27.2852 38.8281L29.3945 36.0938C29.9609 33.0273 31.3086 28.9844 32.1094 27.2461C32.7734 25.8398 33.9453 25 35.7812 24.8047C37.0703 24.6484 41.2109 24.4531 46.582 24.4531C51.9727 24.4531 56.1914 24.6484 57.3438 24.8047C59.2383 25.0195 60.4102 25.8594 61.0742 27.2461C61.8945 28.9844 63.2227 33.0273 63.7891 36.0938L65.8984 38.8281C67.4805 40.8594 67.8711 42.1289 67.8711 44.8828L67.8711 47.9883C67.8711 49.4531 67.3438 50.1367 65.7422 50.293C62.4023 50.7031 53.5352 51.0156 46.582 51.0156ZM31.6992 34.2773C31.543 34.9219 31.7969 35.2734 32.5586 35.1953C35.8984 34.9609 39.7461 34.8047 46.582 34.8047C53.4375 34.8047 57.2852 34.9609 60.625 35.1953C61.3867 35.2734 61.6406 34.9219 61.4844 34.2773C60.957 31.9336 60.0391 29.2773 59.3945 28.125C58.8477 27.1875 58.1836 26.6992 56.9922 26.543C55.4688 26.3281 52.0703 26.2109 46.582 26.2109C41.1133 26.2109 37.7148 26.3281 36.1914 26.543C35 26.6992 34.3359 27.1875 33.7891 28.125C33.1445 29.2773 32.2266 31.9336 31.6992 34.2773ZM31.7969 47.9883C33.5742 47.9883 34.8828 46.6602 34.8828 44.8828C34.8828 43.1055 33.5742 41.7969 31.7969 41.7969C30.0195 41.7969 28.6914 43.1055 28.6914 44.8828C28.6914 46.6602 30.0195 47.9883 31.7969 47.9883ZM41.1523 47.3047L52.0312 47.3047C53.3398 47.3047 54.2578 46.4062 54.2578 45.0977C54.2578 43.7695 53.3398 42.8906 52.0312 42.8906L41.1523 42.8906C39.8438 42.8906 38.9258 43.7695 38.9258 45.0977C38.9258 46.4062 39.8438 47.3047 41.1523 47.3047ZM61.3867 47.9883C63.1641 47.9883 64.4922 46.6602 64.4922 44.8828C64.4922 43.1055 63.1641 41.7969 61.3867 41.7969C59.6094 41.7969 58.3008 43.1055 58.3008 44.8828C58.3008 46.6602 59.6094 47.9883 61.3867 47.9883ZM26.3477 59.3945L28.7891 59.3945C30.293 59.3945 31.4648 58.2422 31.4648 56.7578L31.4648 52.0898L23.75 50.9961L23.75 56.7578C23.75 58.2227 24.8828 59.3945 26.3477 59.3945ZM64.3555 59.3945L66.7969 59.3945C68.2812 59.3945 69.4141 58.2227 69.4141 56.7578L69.4141 50.9961L61.6992 52.0898L61.6992 56.7578C61.6992 58.2422 62.8711 59.3945 64.3555 59.3945Z" fill="black" fill-opacity="0.85"/>
 </g>
</svg>
