<?xml version="1.0" encoding="UTF-8"?>
<!--Generator: Apple Native CoreSVG 326-->
<!DOCTYPE svg
PUBLIC "-//W3C//DTD SVG 1.1//EN"
       "http://www.w3.org/Graphics/SVG/1.1/DTD/svg11.dtd">
<svg version="1.1" xmlns="http://www.w3.org/2000/svg" xmlns:xlink="http://www.w3.org/1999/xlink" viewBox="0 0 55.8466 52.5977">
 <g>
  <rect height="52.5977" opacity="0" width="55.8466" x="0" y="0"/>
  <path d="M55.0815 42.1484C57.0346 34.9023 51.7807 31.7773 38.812 31.7773C32.269 31.7773 25.5893 32.4023 20.355 33.4961L21.1557 34.5703C22.4839 23.3789 18.9487 13.8867 11.5854 10.0391L12.2104 12.6562C14.7885 4.6875 9.8862 0 5.33542 0C1.89792 0-1.07083 2.63672 0.374482 8.47656L9.82761 46.9141C10.726 50.5664 13.187 52.5781 16.7807 52.5781L45.5698 52.5781C50.5698 52.5781 52.9721 50.1367 55.0815 42.1484Z" fill="black" fill-opacity="0.85"/>
  <path d="M45.2573 23.3398C46.2729 23.3398 46.8784 22.6953 46.8784 21.5625L46.8784 3.51562C46.8784 2.34375 46.2339 1.71875 45.1596 1.71875C44.3784 1.71875 43.8901 1.91406 43.0307 2.51953L38.4995 5.52734C38.0503 5.85938 37.894 6.17188 37.894 6.66016C37.894 7.30469 38.4214 7.87109 39.0268 7.87109C39.3393 7.87109 39.5737 7.8125 40.0815 7.44141L43.48 5.23438L43.6948 5.23438L43.6948 21.5625C43.6948 22.6758 44.3003 23.3398 45.2573 23.3398Z" fill="black" fill-opacity="0.85"/>
 </g>
</svg>
