<?xml version="1.0" encoding="UTF-8"?>
<!--Generator: Apple Native CoreSVG 326-->
<!DOCTYPE svg
PUBLIC "-//W3C//DTD SVG 1.1//EN"
       "http://www.w3.org/Graphics/SVG/1.1/DTD/svg11.dtd">
<svg version="1.1" xmlns="http://www.w3.org/2000/svg" xmlns:xlink="http://www.w3.org/1999/xlink" viewBox="0 0 55.5273 53.1055">
 <g>
  <rect height="53.1055" opacity="0" width="55.5273" x="0" y="0"/>
  <path d="M3.06641 47.6758L52.0898 47.6758L52.0898 46.1719C52.0898 45.332 51.582 44.8242 50.7227 44.8242L49.1211 44.8242L49.1211 16.6797L51.3867 16.6797C52.5781 16.6797 53.2422 15.8398 53.2422 14.9609C53.2422 14.3164 52.8906 13.75 52.1094 13.3008L30.5273 0.839844C29.5703 0.292969 28.5547 0 27.5781 0C26.6016 0 25.5664 0.292969 24.6289 0.839844L3.04688 13.3008C2.24609 13.75 1.91406 14.3164 1.91406 14.9609C1.91406 15.8398 2.57812 16.6797 3.76953 16.6797L6.05469 16.6797L6.05469 44.8242L4.45312 44.8242C3.57422 44.8242 3.06641 45.332 3.06641 46.1719ZM9.31641 44.8242L9.31641 13.7109L26.4453 4.0625C26.7773 3.86719 27.1875 3.75 27.5781 3.75C27.9492 3.75 28.3398 3.86719 28.7109 4.0625L45.8594 13.7109L45.8594 44.8242ZM1.73828 53.0664L53.418 53.0664C54.375 53.0664 55.1562 52.2852 55.1562 51.3477C55.1562 50.3906 54.375 49.6094 53.418 49.6094L1.73828 49.6094C0.78125 49.6094 0 50.3906 0 51.3477C0 52.2852 0.78125 53.0664 1.73828 53.0664Z" fill="black" fill-opacity="0.85"/>
  <path d="M27.793 37.3438C31.5039 37.3438 34.9023 35.6836 36.0742 32.3438C36.2109 31.9531 36.2891 31.6211 36.2891 31.1914C36.2891 30.4688 35.8203 30 35.0977 30C34.3945 30 34.0234 30.3906 33.8281 31.0352C33.1055 33.4961 30.6641 35.0195 27.793 35.0195C22.9883 35.0195 20.8008 30.8984 20.8008 26.2109C20.8008 21.5039 23.1055 17.4609 27.7734 17.4609C30.5859 17.4609 33.0078 19.1797 33.6719 21.5039C33.8867 22.168 34.2188 22.5391 34.9219 22.5391C35.6445 22.5391 36.1328 22.0898 36.1328 21.3281C36.1328 20.8398 35.9961 20.3906 35.8008 19.9414C34.5117 16.8555 31.3086 15.1367 27.7734 15.1367C21.6211 15.1367 18.0859 19.8242 18.0859 26.2109C18.0859 32.4805 21.4258 37.3438 27.793 37.3438ZM27.5977 40.293C28.0469 40.293 28.3594 39.9805 28.3594 39.5117L28.3594 13.0469C28.3594 12.5977 28.0469 12.2656 27.5977 12.2656C27.1484 12.2656 26.8164 12.5977 26.8164 13.0469L26.8164 39.5117C26.8164 39.9609 27.1484 40.293 27.5977 40.293Z" fill="black" fill-opacity="0.85"/>
 </g>
</svg>
