<?xml version="1.0" encoding="UTF-8"?>
<!--Generator: Apple Native CoreSVG 326-->
<!DOCTYPE svg
PUBLIC "-//W3C//DTD SVG 1.1//EN"
       "http://www.w3.org/Graphics/SVG/1.1/DTD/svg11.dtd">
<svg version="1.1" xmlns="http://www.w3.org/2000/svg" xmlns:xlink="http://www.w3.org/1999/xlink" viewBox="0 0 67.0117 42.9883">
 <g>
  <rect height="42.9883" opacity="0" width="67.0117" x="0" y="0"/>
  <path d="M58.5352 42.9688L64.1797 42.9688C65.6641 42.9688 66.6406 41.9336 66.6406 40.4297L66.6406 2.53906C66.6406 1.01562 65.6641 0 64.1797 0L58.5352 0C57.0508 0 56.0547 1.01562 56.0547 2.53906L56.0547 40.4297C56.0547 41.9336 57.0508 42.9688 58.5352 42.9688Z" fill="black" fill-opacity="0.85"/>
  <path d="M39.8438 42.9688L45.4883 42.9688C46.9531 42.9688 47.9492 41.9336 47.9492 40.4297L47.9492 12.4219C47.9492 10.8984 46.9531 9.88281 45.4883 9.88281L39.8438 9.88281C38.3594 9.88281 37.3633 10.8984 37.3633 12.4219L37.3633 40.4297C37.3633 41.9336 38.3594 42.9688 39.8438 42.9688Z" fill="black" fill-opacity="0.85"/>
  <path d="M21.1719 42.9688L26.7969 42.9688C28.2812 42.9688 29.2773 41.9336 29.2773 40.4297L29.2773 21.4648C29.2773 19.9414 28.2812 18.9258 26.7969 18.9258L21.1719 18.9258C19.6875 18.9258 18.6914 19.9414 18.6914 21.4648L18.6914 40.4297C18.6914 41.9336 19.6875 42.9688 21.1719 42.9688Z" fill="black" fill-opacity="0.85"/>
  <path d="M2.48047 42.9688L8.10547 42.9688C9.58984 42.9688 10.5859 41.9336 10.5859 40.4297L10.5859 29.2578C10.5859 27.7539 9.58984 26.7383 8.10547 26.7383L2.48047 26.7383C0.996094 26.7383 0 27.7539 0 29.2578L0 40.4297C0 41.9336 0.996094 42.9688 2.48047 42.9688Z" fill="black" fill-opacity="0.85"/>
 </g>
</svg>
