<?xml version="1.0" encoding="UTF-8"?>
<!--Generator: Apple Native CoreSVG 326-->
<!DOCTYPE svg
PUBLIC "-//W3C//DTD SVG 1.1//EN"
       "http://www.w3.org/Graphics/SVG/1.1/DTD/svg11.dtd">
<svg version="1.1" xmlns="http://www.w3.org/2000/svg" xmlns:xlink="http://www.w3.org/1999/xlink" viewBox="0 0 35.6836 53.2227">
 <g>
  <rect height="53.2227" opacity="0" width="35.6836" x="0" y="0"/>
  <path d="M6.34766 18.0664L28.9648 18.0664C31.8945 18.0664 33.3203 16.7188 33.3203 13.8477L33.3203 4.21875C33.3203 1.32812 31.8945 0 28.9648 0L6.34766 0C3.41797 0 1.99219 1.32812 1.99219 4.21875L1.99219 13.8477C1.99219 16.7188 3.41797 18.0664 6.34766 18.0664ZM7.44141 14.4727C6.21094 14.4727 5.58594 13.8867 5.58594 12.6758L5.58594 5.35156C5.58594 4.16016 6.21094 3.59375 7.44141 3.59375L27.8711 3.59375C29.1016 3.59375 29.7266 4.16016 29.7266 5.35156L29.7266 12.6758C29.7266 13.8867 29.1016 14.4727 27.8711 14.4727ZM7.10938 26.6406L11.1523 26.6406L11.1523 16.2109L7.10938 16.2109ZM24.1602 26.6406L28.2031 26.6406L28.2031 16.2109L24.1602 16.2109ZM3.96484 36.1914L31.3672 36.1914C33.9844 36.1914 35.3125 34.9219 35.3125 32.3828L35.3125 29.082C35.3125 26.543 33.9844 25.293 31.3672 25.293L3.96484 25.293C1.32812 25.293 0 26.543 0 29.082L0 32.3828C0 34.9219 1.32812 36.1914 3.96484 36.1914ZM4.86328 32.5977C4.10156 32.5977 3.59375 32.1289 3.59375 31.4453L3.59375 30.0195C3.59375 29.3359 4.10156 28.8867 4.86328 28.8867L30.4492 28.8867C31.2109 28.8867 31.7188 29.3359 31.7188 30.0195L31.7188 31.4453C31.7188 32.1289 31.2109 32.5977 30.4492 32.5977ZM4.47266 53.1836L5.15625 53.1836C6.21094 53.1836 6.97266 52.4219 6.97266 51.3477L6.97266 35.0586L2.65625 35.0586L2.65625 51.3477C2.65625 52.4219 3.41797 53.1836 4.47266 53.1836ZM5.82031 41.7383L29.4922 41.7383L29.4922 38.4766L5.82031 38.4766ZM30.1562 53.1836L30.8398 53.1836C31.8945 53.1836 32.6562 52.4219 32.6562 51.3477L32.6562 35.0586L28.3398 35.0586L28.3398 51.3477C28.3398 52.4219 29.1016 53.1836 30.1562 53.1836Z" fill="black" fill-opacity="0.85"/>
 </g>
</svg>
