<?xml version="1.0" encoding="UTF-8"?>
<!--Generator: Apple Native CoreSVG 326-->
<!DOCTYPE svg
PUBLIC "-//W3C//DTD SVG 1.1//EN"
       "http://www.w3.org/Graphics/SVG/1.1/DTD/svg11.dtd">
<svg version="1.1" xmlns="http://www.w3.org/2000/svg" xmlns:xlink="http://www.w3.org/1999/xlink" viewBox="0 0 56.1719 46.1914">
 <g>
  <rect height="46.1914" opacity="0" width="56.1719" x="0" y="0"/>
  <path d="M1.73828 46.1914L54.0625 46.1914C55 46.1914 55.8008 45.4492 55.8008 44.4727C55.8008 43.4961 55 42.7539 54.0625 42.7539L1.73828 42.7539C0.800781 42.7539 0 43.4961 0 44.4727C0 45.4492 0.800781 46.1914 1.73828 46.1914Z" fill="black" fill-opacity="0.85"/>
  <path d="M43.0664 36.7188C43.0664 38.0664 43.9453 38.8672 45.3125 38.8672L51.4062 38.8672C52.793 38.8672 53.6719 38.0664 53.6719 36.7188L53.6719 2.14844C53.6719 0.820312 52.793 0 51.4062 0L45.3125 0C43.9453 0 43.0664 0.820312 43.0664 2.14844Z" fill="black" fill-opacity="0.85"/>
  <path d="M29.4141 36.7188C29.4141 38.0664 30.293 38.8672 31.6797 38.8672L37.7539 38.8672C39.1406 38.8672 40.0195 38.0664 40.0195 36.7188L40.0195 9.47266C40.0195 8.125 39.1406 7.30469 37.7539 7.30469L31.6797 7.30469C30.293 7.30469 29.4141 8.125 29.4141 9.47266Z" fill="black" fill-opacity="0.85"/>
  <path d="M15.7617 36.7188C15.7617 38.0664 16.6211 38.8672 18.0078 38.8672L24.1016 38.8672C25.4883 38.8672 26.3672 38.0664 26.3672 36.7188L26.3672 16.7969C26.3672 15.4883 25.4883 14.6484 24.1016 14.6484L18.0078 14.6484C16.6211 14.6484 15.7617 15.4883 15.7617 16.7969Z" fill="black" fill-opacity="0.85"/>
  <path d="M2.12891 36.7188C2.12891 38.0664 2.98828 38.8672 4.39453 38.8672L10.4883 38.8672C11.8359 38.8672 12.7344 38.0664 12.7344 36.7188L12.7344 24.1211C12.7344 22.793 11.8359 21.9531 10.4883 21.9531L4.39453 21.9531C2.98828 21.9531 2.12891 22.793 2.12891 24.1211Z" fill="black" fill-opacity="0.85"/>
 </g>
</svg>
