<?xml version="1.0" encoding="UTF-8"?>
<!--Generator: Apple Native CoreSVG 326-->
<!DOCTYPE svg
PUBLIC "-//W3C//DTD SVG 1.1//EN"
       "http://www.w3.org/Graphics/SVG/1.1/DTD/svg11.dtd">
<svg version="1.1" xmlns="http://www.w3.org/2000/svg" xmlns:xlink="http://www.w3.org/1999/xlink" viewBox="0 0 51.25 50.918">
 <g>
  <rect height="50.918" opacity="0" width="51.25" x="0" y="0"/>
  <path d="M50.8789 25.4688C50.8789 39.4922 39.4531 50.918 25.4297 50.918C11.4258 50.918 0 39.4922 0 25.4688C0 11.4648 11.4258 0.0390625 25.4297 0.0390625C39.4531 0.0390625 50.8789 11.4648 50.8789 25.4688ZM11.6797 14.3359L11.6797 35.4297C11.6797 36.5625 12.4414 37.3047 13.5352 37.3047L38.3594 37.3047C39.043 37.3047 39.6289 36.7383 39.6289 36.0352C39.6289 35.3516 39.0625 34.7656 38.3594 34.7656L14.5508 34.7656C14.3359 34.7656 14.2383 34.668 14.2383 34.4336L14.2383 25.2539L31.3672 25.2539L31.3672 28.0469C31.3672 28.8672 32.2266 29.2578 32.9688 28.7891L39.375 24.8242C40.0586 24.4336 40.0586 23.4961 39.3945 23.1055L32.9492 19.1602C32.1875 18.6914 31.3672 19.043 31.3672 19.8633L31.3672 22.6953L14.2383 22.6953L14.2383 14.3359C14.2383 13.6328 13.6719 13.0469 12.9492 13.0469C12.2656 13.0469 11.6797 13.6328 11.6797 14.3359Z" fill="black" fill-opacity="0.85"/>
 </g>
</svg>
