<?xml version="1.0" encoding="UTF-8"?>
<!--Generator: Apple Native CoreSVG 326-->
<!DOCTYPE svg
PUBLIC "-//W3C//DTD SVG 1.1//EN"
       "http://www.w3.org/Graphics/SVG/1.1/DTD/svg11.dtd">
<svg version="1.1" xmlns="http://www.w3.org/2000/svg" xmlns:xlink="http://www.w3.org/1999/xlink" viewBox="0 0 51.25 50.918">
 <g>
  <rect height="50.918" opacity="0" width="51.25" x="0" y="0"/>
  <path d="M50.8789 25.4688C50.8789 39.4922 39.4531 50.918 25.4297 50.918C11.4258 50.918 0 39.4922 0 25.4688C0 11.4648 11.4258 0.0390625 25.4297 0.0390625C39.4531 0.0390625 50.8789 11.4648 50.8789 25.4688ZM11.4648 14.3359L11.4648 35.4297C11.4648 36.5625 12.207 37.3047 13.3203 37.3047L38.125 37.3047C38.8086 37.3047 39.3945 36.7383 39.3945 36.0352C39.3945 35.3516 38.8281 34.7656 38.125 34.7656L14.2578 34.7656C14.082 34.7656 14.0234 34.707 14.0234 34.4922L14.0234 28.9453L19.0625 23.9258C19.2578 23.7305 19.3945 23.7305 19.5703 23.9258L24.3164 28.7109C24.9023 29.2969 25.5273 29.5898 26.2109 29.5898C26.9141 29.5898 27.5586 29.2773 28.1055 28.7109L33.2422 23.4766L35.2148 25.4688C35.7812 26.0742 36.6602 25.7617 36.875 24.9023L38.6328 17.5586C38.8477 16.7969 38.1641 16.1328 37.3828 16.3281L30.0781 18.0859C29.2383 18.3008 28.8867 19.1797 29.4922 19.7266L31.4258 21.6797L26.4648 26.7188C26.3086 26.9141 26.1719 26.9141 25.9766 26.7383L21.2109 21.8945C20.625 21.2891 20.0195 21.0156 19.3164 21.0156C18.5938 21.0156 18.0078 21.3086 17.4414 21.8945L14.0234 25.3125L14.0234 14.3359C14.0234 13.6328 13.4375 13.0469 12.7344 13.0469C12.0508 13.0469 11.4648 13.6328 11.4648 14.3359Z" fill="black" fill-opacity="0.85"/>
 </g>
</svg>
