<?xml version="1.0" encoding="UTF-8"?>
<!--Generator: Apple Native CoreSVG 326-->
<!DOCTYPE svg
PUBLIC "-//W3C//DTD SVG 1.1//EN"
       "http://www.w3.org/Graphics/SVG/1.1/DTD/svg11.dtd">
<svg version="1.1" xmlns="http://www.w3.org/2000/svg" xmlns:xlink="http://www.w3.org/1999/xlink" viewBox="0 0 61.543 63.1836">
 <g>
  <rect height="63.1836" opacity="0" width="61.543" x="0" y="0"/>
  <path d="M46.5107 6.95313L14.6805 6.95313C14.8057 5.18354 15.9546 4.16016 17.832 4.16016L43.3398 4.16016C45.2172 4.16016 46.3835 5.18354 46.5107 6.95313Z" fill="black" fill-opacity="0.85"/>
  <path d="M51.5514 13.7887C50.8512 13.6817 50.1095 13.6328 49.3359 13.6328L11.8359 13.6328C11.0621 13.6328 10.3205 13.6813 9.62066 13.7875C9.88629 11.7108 11.3173 10.5469 13.6133 10.5469L47.5586 10.5469C49.8551 10.5469 51.2861 11.7112 51.5514 13.7887Z" fill="black" fill-opacity="0.85"/>
  <path d="M11.8359 58.9648L49.3359 58.9648C54.375 58.9648 56.9336 56.4062 56.9336 51.4258L56.9336 25.3906C56.9336 20.4102 54.375 17.8711 49.3359 17.8711L11.8359 17.8711C6.77734 17.8711 4.23828 20.3906 4.23828 25.3906L4.23828 51.4258C4.23828 56.4258 6.77734 58.9648 11.8359 58.9648ZM11.8945 55.5078C9.17969 55.5078 7.69531 54.0625 7.69531 51.25L7.69531 25.5664C7.69531 22.7734 9.17969 21.3281 11.8945 21.3281L49.2773 21.3281C51.9531 21.3281 53.4766 22.7734 53.4766 25.5664L53.4766 51.25C53.4766 54.0625 51.9531 55.5078 49.2773 55.5078Z" fill="black" fill-opacity="0.85"/>
  <path d="M27.8516 50.3711C28.5742 50.3711 29.1602 50.0391 29.5898 49.3945L41.5625 30.625C41.8164 30.2148 42.0703 29.7266 42.0703 29.2578C42.0703 28.3008 41.2109 27.6562 40.3125 27.6562C39.7656 27.6562 39.2188 28.0078 38.8281 28.6328L27.7734 46.1914L22.2656 39.2969C21.7578 38.6328 21.2695 38.4375 20.6836 38.4375C19.7461 38.4375 19.0039 39.1992 19.0039 40.1562C19.0039 40.625 19.1992 41.0938 19.5117 41.5039L26.0352 49.3945C26.582 50.0781 27.1289 50.3711 27.8516 50.3711Z" fill="black" fill-opacity="0.85"/>
 </g>
</svg>
