<?xml version="1.0" encoding="UTF-8"?>
<!--Generator: Apple Native CoreSVG 326-->
<!DOCTYPE svg
PUBLIC "-//W3C//DTD SVG 1.1//EN"
       "http://www.w3.org/Graphics/SVG/1.1/DTD/svg11.dtd">
<svg version="1.1" xmlns="http://www.w3.org/2000/svg" xmlns:xlink="http://www.w3.org/1999/xlink" viewBox="0 0 51.25 50.918">
 <g>
  <rect height="50.918" opacity="0" width="51.25" x="0" y="0"/>
  <path d="M25.4297 50.8789C39.4727 50.8789 50.8789 39.4922 50.8789 25.4492C50.8789 11.4062 39.4727 0 25.4297 0C11.3867 0 0 11.4062 0 25.4492C0 39.4922 11.3867 50.8789 25.4297 50.8789ZM25.4297 47.2461C13.3789 47.2461 3.63281 37.5 3.63281 25.4492C3.63281 13.3984 13.3789 3.65234 25.4297 3.65234C37.4805 3.65234 47.2266 13.3984 47.2266 25.4492C47.2266 37.5 37.4805 47.2461 25.4297 47.2461Z" fill="black" fill-opacity="0.85"/>
  <path d="M25.4102 38.9062C32.8516 38.9062 38.8672 32.8906 38.8672 25.4492C38.8672 17.9883 32.8516 11.9922 25.4102 11.9922C17.9688 11.9922 11.9531 17.9883 11.9531 25.4492C11.9531 32.8906 17.9688 38.9062 25.4102 38.9062ZM25.4102 35.5469C19.8438 35.5469 15.3125 31.0156 15.3125 25.4492C15.3125 19.8633 19.8438 15.332 25.4102 15.332C30.9961 15.332 35.5078 19.8633 35.5078 25.4492C35.5078 31.0156 30.9961 35.5469 25.4102 35.5469Z" fill="black" fill-opacity="0.85"/>
 </g>
</svg>
