<?xml version="1.0" encoding="UTF-8"?>
<!--Generator: Apple Native CoreSVG 326-->
<!DOCTYPE svg
PUBLIC "-//W3C//DTD SVG 1.1//EN"
       "http://www.w3.org/Graphics/SVG/1.1/DTD/svg11.dtd">
<svg version="1.1" xmlns="http://www.w3.org/2000/svg" xmlns:xlink="http://www.w3.org/1999/xlink" viewBox="0 0 59.5508 45.957">
 <g>
  <rect height="45.957" opacity="0" width="59.5508" x="0" y="0"/>
  <path d="M59.1797 7.57812L59.1797 38.4375C59.1797 43.418 56.6211 45.957 51.5625 45.957L7.59766 45.957C2.55859 45.957 0 43.4375 0 38.4375L0 7.57812C0 2.57812 2.55859 0.0585938 7.59766 0.0585938L51.5625 0.0585938C56.6211 0.0585938 59.1797 2.59766 59.1797 7.57812ZM16.7578 22.9688C16.7578 30.0781 22.5195 35.8008 29.5898 35.8008C36.6406 35.8008 42.4219 30.0781 42.4219 22.9688C42.4219 15.918 36.6406 10.1758 29.5898 10.1758C22.5195 10.1758 16.7578 15.918 16.7578 22.9688Z" fill="black" fill-opacity="0.85"/>
 </g>
</svg>
