<?xml version="1.0" encoding="UTF-8"?>
<!--Generator: Apple Native CoreSVG 326-->
<!DOCTYPE svg
PUBLIC "-//W3C//DTD SVG 1.1//EN"
       "http://www.w3.org/Graphics/SVG/1.1/DTD/svg11.dtd">
<svg version="1.1" xmlns="http://www.w3.org/2000/svg" xmlns:xlink="http://www.w3.org/1999/xlink" viewBox="0 0 59.4727 58.2705">
 <g>
  <rect height="58.2705" opacity="0" width="59.4727" x="0" y="0"/>
  <path d="M40.1562 57.5435L47.7539 44.3794C48.1641 43.6958 47.9688 42.9536 47.3242 42.563C46.6992 42.1724 45.918 42.3677 45.4883 43.0708L37.9297 56.2153C37.5391 56.8989 37.7148 57.6802 38.3789 58.0708C39.0234 58.4224 39.7656 58.2271 40.1562 57.5435Z" fill="black" fill-opacity="0.85"/>
  <path d="M34.2578 50.3755L37.7148 44.3989C38.1445 43.7153 37.9297 42.9341 37.2656 42.5435C36.6016 42.1724 35.8398 42.3872 35.4297 43.0708L31.9531 49.106C31.582 49.7505 31.7578 50.5122 32.4414 50.9028C33.0859 51.2739 33.8867 51.0591 34.2578 50.3755Z" fill="black" fill-opacity="0.85"/>
  <path d="M20.0977 57.563L27.7148 44.3989C28.1055 43.7153 27.9102 42.9731 27.2656 42.5825C26.6406 42.1919 25.8398 42.3872 25.4492 43.0903L17.8711 56.2349C17.4805 56.9185 17.6758 57.6997 18.3203 58.0903C18.9648 58.4614 19.707 58.2466 20.0977 57.563Z" fill="black" fill-opacity="0.85"/>
  <path d="M14.2188 50.395L17.6758 44.4185C18.0859 43.7349 17.8711 42.9536 17.207 42.563C16.543 42.1919 15.8008 42.4067 15.3711 43.1099L11.9141 49.1255C11.5234 49.77 11.6992 50.5513 12.3828 50.9419C13.0469 51.2935 13.8281 51.0786 14.2188 50.395Z" fill="black" fill-opacity="0.85"/>
  <path d="M13.8281 38.5005L45.2148 38.5005C53.3594 38.5005 59.4727 32.3286 59.4727 24.6724C59.4727 16.7622 52.9883 10.981 44.5508 10.981C41.3867 4.6919 35.6445 0.629398 28.2617 0.629398C18.8867 0.629398 11.1719 8.0708 10.3516 17.4263C5.74219 18.7349 2.20703 22.6216 2.20703 27.9341C2.20703 33.7544 6.46484 38.5005 13.8281 38.5005Z" fill="black" fill-opacity="0.85"/>
 </g>
</svg>
