<?xml version="1.0" encoding="UTF-8"?>
<!--Generator: Apple Native CoreSVG 326-->
<!DOCTYPE svg
PUBLIC "-//W3C//DTD SVG 1.1//EN"
       "http://www.w3.org/Graphics/SVG/1.1/DTD/svg11.dtd">
<svg version="1.1" xmlns="http://www.w3.org/2000/svg" xmlns:xlink="http://www.w3.org/1999/xlink" viewBox="0 0 46.2891 45.918">
 <g>
  <rect height="45.918" opacity="0" width="46.2891" x="0" y="0"/>
  <path d="M7.59766 45.918L38.3008 45.918C43.3594 45.918 45.918 43.3594 45.918 38.3984L45.918 7.53906C45.918 2.55859 43.3594 0 38.3008 0L7.59766 0C2.55859 0 0 2.53906 0 7.53906L0 38.3984C0 43.3984 2.55859 45.918 7.59766 45.918ZM7.67578 42.4609C4.94141 42.4609 3.45703 41.0156 3.45703 38.2031L3.45703 7.71484C3.45703 4.92188 4.94141 3.45703 7.67578 3.45703L38.2422 3.45703C40.918 3.45703 42.4609 4.92188 42.4609 7.71484L42.4609 38.2031C42.4609 41.0156 40.918 42.4609 38.2422 42.4609Z" fill="black" fill-opacity="0.85"/>
  <path d="M17.2461 20.332L17.2461 25.5664L15.0586 25.5664C12.207 25.5664 9.88281 27.8711 9.88281 30.7031C9.88281 33.5742 12.207 35.8984 15.0586 35.8984C17.9102 35.8984 20.2344 33.5547 20.2344 30.7031L20.2344 28.5156L25.4102 28.5156L25.4102 30.7031C25.4102 33.5547 27.7344 35.8984 30.5859 35.8984C33.4375 35.8984 35.7617 33.5742 35.7617 30.7031C35.7617 27.8711 33.4375 25.5664 30.5859 25.5664L28.3984 25.5664L28.3984 20.332L30.5859 20.332C33.4375 20.332 35.7617 18.0273 35.7617 15.1953C35.7617 12.3242 33.4375 10.0195 30.5859 10.0195C27.7344 10.0195 25.4102 12.3438 25.4102 15.1953L25.4102 17.4023L20.2344 17.4023L20.2344 15.1953C20.2344 12.3438 17.9102 10.0195 15.0586 10.0195C12.207 10.0195 9.88281 12.3242 9.88281 15.1953C9.88281 18.0273 12.207 20.332 15.0586 20.332ZM20.2344 25.5859L20.2344 20.3125L25.4102 20.3125L25.4102 25.5859ZM15.0586 17.4219C13.8281 17.4219 12.8516 16.4258 12.8516 15.1953C12.8516 13.9844 13.8477 12.9688 15.0586 12.9688C16.2695 12.9688 17.2461 14.0039 17.2461 15.1953L17.2461 17.4219ZM30.5859 17.4219L28.3984 17.4219L28.3984 15.1953C28.3984 14.0039 29.375 12.9688 30.5859 12.9688C31.7969 12.9688 32.793 13.9844 32.793 15.1953C32.793 16.4258 31.8164 17.4219 30.5859 17.4219ZM15.0586 28.4766L17.2461 28.4766L17.2461 30.6836C17.2461 31.9141 16.2695 32.9102 15.0586 32.9102C13.8281 32.9102 12.8516 31.9141 12.8516 30.6836C12.8516 29.4922 13.8477 28.4766 15.0586 28.4766ZM30.5859 28.4766C31.7969 28.4766 32.793 29.4922 32.793 30.6836C32.793 31.9141 31.8164 32.9102 30.5859 32.9102C29.375 32.9102 28.3984 31.9141 28.3984 30.6836L28.3984 28.4766Z" fill="black" fill-opacity="0.85"/>
 </g>
</svg>
