<?xml version="1.0" encoding="UTF-8"?>
<!--Generator: Apple Native CoreSVG 326-->
<!DOCTYPE svg
PUBLIC "-//W3C//DTD SVG 1.1//EN"
       "http://www.w3.org/Graphics/SVG/1.1/DTD/svg11.dtd">
<svg version="1.1" xmlns="http://www.w3.org/2000/svg" xmlns:xlink="http://www.w3.org/1999/xlink" viewBox="0 0 92.6758 55.4883">
 <g>
  <rect height="55.4883" opacity="0" width="92.6758" x="0" y="0"/>
  <path d="M30.6445 42.6758L62.5977 42.6758C62.4414 42.1094 62.3633 41.3867 62.3633 40.6445C62.3633 34.9414 66.8945 30.4102 72.6172 30.4102C78.3398 30.4102 82.8711 35.332 82.8711 41.0352C82.8711 41.3867 82.8711 41.5625 82.8516 41.875L85.293 41.6211C90.0391 41.0938 92.3047 38.5156 92.3047 33.6328L92.3047 29.2578C92.3047 23.5547 90.0781 20.918 84.3945 20.0195L70.6836 17.8516C68.8086 17.5586 65.2734 17.4414 61.9531 17.5977L36.1914 18.8086L47.4414 11.2305C49.3945 9.90234 47.5 7.01172 45.3711 8.4375L29.4531 19.082L11.9922 22.3828C4.00391 23.8867 0 27.5 0 34.1602L0 37.4609C0 40.957 1.58203 42.7148 5.13672 43.1055L10.6641 43.75C10.4297 42.9102 10.3125 41.582 10.3125 40.6445C10.3125 34.9414 14.8438 30.4102 20.5664 30.4102C26.2891 30.4102 30.8203 34.9414 30.8203 40.6445C30.8203 41.3672 30.7617 42.1484 30.6445 42.6758ZM20.5664 48.1836C24.7852 48.1836 28.1055 44.8828 28.1055 40.6445C28.1055 36.4453 24.7852 33.125 20.5664 33.125C16.3281 33.125 13.0273 36.4453 13.0273 40.6445C13.0273 44.8828 16.3281 48.1836 20.5664 48.1836ZM72.6172 48.1836C76.8555 48.1836 80.1562 44.8828 80.1562 40.6445C80.1562 36.4453 76.8555 33.125 72.6172 33.125C68.3984 33.125 65.0781 36.4453 65.0781 40.6445C65.0781 44.8828 68.3984 48.1836 72.6172 48.1836ZM55.2734 22.0898C54.2383 22.0898 53.4766 21.3477 53.4375 20.2734L53.0078 2.26562C52.9688 0.917969 53.8672 0 55.2734 0C56.6797 0 57.5781 0.917969 57.5391 2.26562L57.1094 20.2734C57.0703 21.3477 56.3281 22.0898 55.2734 22.0898ZM55.2734 32.9883C53.6523 32.9883 52.3047 31.6406 52.3047 30.0977C52.3047 28.5156 53.6328 27.2266 55.2734 27.2266C56.9141 27.2266 58.2422 28.5156 58.2422 30.0977C58.2422 31.6406 56.8945 32.9883 55.2734 32.9883Z" fill="black" fill-opacity="0.85"/>
 </g>
</svg>
