<?xml version="1.0" encoding="UTF-8"?>
<!--Generator: Apple Native CoreSVG 326-->
<!DOCTYPE svg
PUBLIC "-//W3C//DTD SVG 1.1//EN"
       "http://www.w3.org/Graphics/SVG/1.1/DTD/svg11.dtd">
<svg version="1.1" xmlns="http://www.w3.org/2000/svg" xmlns:xlink="http://www.w3.org/1999/xlink" viewBox="0 0 59.1797 42.5195">
 <g>
  <rect height="42.5195" opacity="0" width="59.1797" x="0" y="0"/>
  <path d="M10.9375 34.043L17.1094 34.043C18.5938 34.043 19.5898 33.0469 19.5898 31.6406L19.5898 26.9531C19.5898 25.5469 18.5938 24.5508 17.1094 24.5508L10.9375 24.5508C9.45312 24.5508 8.45703 25.5469 8.45703 26.9531L8.45703 31.6406C8.45703 33.0469 9.45312 34.043 10.9375 34.043ZM1.79688 15.2539L57.0703 15.2539L57.0703 9.58984L1.79688 9.58984ZM7.59766 42.5195L51.1914 42.5195C56.25 42.5195 58.8086 39.9609 58.8086 34.9805L58.8086 7.59766C58.8086 2.61719 56.25 0.0585938 51.1914 0.0585938L7.59766 0.0585938C2.55859 0.0585938 0 2.59766 0 7.59766L0 34.9805C0 39.9805 2.55859 42.5195 7.59766 42.5195ZM7.67578 39.043C4.94141 39.043 3.45703 37.5977 3.45703 34.8047L3.45703 7.77344C3.45703 4.96094 4.94141 3.51562 7.67578 3.51562L51.1328 3.51562C53.8086 3.51562 55.332 4.96094 55.332 7.77344L55.332 34.8047C55.332 37.5977 53.8086 39.043 51.1328 39.043Z" fill="black" fill-opacity="0.85"/>
 </g>
</svg>
