<?xml version="1.0" encoding="UTF-8"?>
<!--Generator: Apple Native CoreSVG 326-->
<!DOCTYPE svg
PUBLIC "-//W3C//DTD SVG 1.1//EN"
       "http://www.w3.org/Graphics/SVG/1.1/DTD/svg11.dtd">
<svg version="1.1" xmlns="http://www.w3.org/2000/svg" xmlns:xlink="http://www.w3.org/1999/xlink" viewBox="0 0 51.25 50.918">
 <g>
  <rect height="50.918" opacity="0" width="51.25" x="0" y="0"/>
  <path d="M50.8789 25.4492C50.8789 39.4531 39.4531 50.8789 25.4297 50.8789C11.4258 50.8789 0 39.4531 0 25.4492C0 11.4258 11.4258 0 25.4297 0C39.4531 0 50.8789 11.4258 50.8789 25.4492ZM18.5352 13.5938C17.4023 13.5938 16.7969 14.3945 16.7969 15.5859L16.7969 34.9414C16.7969 36.1523 17.4023 36.9531 18.5352 36.9531L25.1953 36.9531C32.3242 36.9531 36.4453 32.7734 36.4453 25.1953C36.4453 17.793 32.3828 13.5938 25.1953 13.5938ZM32.832 25.2539C32.832 31.1523 29.9414 34.1406 24.7852 34.1406L20.2734 34.1406L20.2734 16.3867L24.7852 16.3867C29.9023 16.3867 32.832 19.5508 32.832 25.2539Z" fill="black" fill-opacity="0.85"/>
 </g>
</svg>
