<?xml version="1.0" encoding="UTF-8"?>
<!--Generator: Apple Native CoreSVG 326-->
<!DOCTYPE svg
PUBLIC "-//W3C//DTD SVG 1.1//EN"
       "http://www.w3.org/Graphics/SVG/1.1/DTD/svg11.dtd">
<svg version="1.1" xmlns="http://www.w3.org/2000/svg" xmlns:xlink="http://www.w3.org/1999/xlink" viewBox="0 0 60.4102 49.8382">
 <g>
  <rect height="49.8382" opacity="0" width="60.4102" x="0" y="0"/>
  <path d="M60.0391 29.9093C60.0391 14.1867 47.9492 1.29605 32.5977 0.00698344C31.7969-0.0711416 31.1719 0.514796 31.1719 1.33511L31.1719 9.32339C31.1719 9.98745 31.6602 10.5148 32.3438 10.5734C41.9727 11.7453 49.4531 19.9484 49.4531 29.9093C49.4531 34.4406 47.9102 38.6007 45.1758 42.0382C44.8047 42.507 44.8242 43.0929 45.2344 43.5031L51.0352 49.3039C51.6211 49.8703 52.4609 49.8703 52.9688 49.2453C57.3828 44.0109 60.0391 37.2531 60.0391 29.9093Z" fill="black" fill-opacity="0.85"/>
  <path d="M0 29.9093C0 37.2726 2.65625 44.05 7.08984 49.2843C7.57812 49.8703 8.39844 49.8703 8.98438 49.3039L14.7852 43.5031C15.1953 43.0929 15.2148 42.507 14.8438 42.0382C12.1094 38.6007 10.5664 34.4406 10.5664 29.9093C10.5664 19.9484 18.0664 11.7453 27.6758 10.5734C28.3789 10.5148 28.8477 9.98745 28.8477 9.32339L28.8477 1.33511C28.8477 0.514796 28.2422-0.0711416 27.4414 0.00698344C12.0703 1.29605 0 14.1867 0 29.9093Z" fill="black" fill-opacity="0.85"/>
  <path d="M20.625 40.6906C21.3477 40.6906 21.8359 40.1632 21.8359 39.4015L21.8359 34.7921L23.3789 33.2687L28.2422 40.0851C28.5156 40.4562 28.8672 40.6906 29.3359 40.6906C29.9805 40.6906 30.4883 40.2218 30.4883 39.5968C30.4883 39.2843 30.3711 39.0109 30.1562 38.7375L25.1367 31.7453L29.8438 26.7257C30.1367 26.4132 30.2734 26.2375 30.2734 25.8468C30.2734 25.2804 29.8047 24.7726 29.1992 24.7726C28.8477 24.7726 28.4766 24.9875 28.2422 25.2414L21.9336 32.175L21.8359 32.175L21.8359 20.0656C21.8359 19.2843 21.3477 18.7375 20.625 18.7375C19.9023 18.7375 19.3945 19.2648 19.3945 20.046L19.3945 39.4015C19.3945 40.1632 19.9023 40.6906 20.625 40.6906ZM34.6484 40.6906C35.2148 40.6906 35.8203 40.339 35.8203 39.4015L35.8203 31.1789C35.8203 29.3039 36.543 27.1359 38.7695 27.1359C39.2578 27.1359 39.707 27.0968 40.0781 26.921C40.4102 26.7843 40.6055 26.4914 40.6055 26.0812C40.6055 25.2218 39.8828 24.7726 39.0234 24.7726C37.3633 24.7726 36.25 26.1789 35.8789 27.8585L35.7031 27.8585L35.7031 26.0226C35.7031 25.3195 35.2344 24.7726 34.5898 24.7726C33.9453 24.7726 33.457 25.3195 33.457 26.0226L33.457 39.4015C33.457 40.1828 33.8867 40.6906 34.6484 40.6906ZM41.5625 40.4367C42.5195 40.4367 43.2227 39.7726 43.2227 38.8156C43.2227 37.8585 42.5195 37.175 41.5625 37.175C40.6055 37.175 39.9023 37.8585 39.9023 38.8156C39.9023 39.7726 40.6055 40.4367 41.5625 40.4367Z" fill="black" fill-opacity="0.85"/>
 </g>
</svg>
