<?xml version="1.0" encoding="UTF-8"?>
<!--Generator: Apple Native CoreSVG 326-->
<!DOCTYPE svg
PUBLIC "-//W3C//DTD SVG 1.1//EN"
       "http://www.w3.org/Graphics/SVG/1.1/DTD/svg11.dtd">
<svg version="1.1" xmlns="http://www.w3.org/2000/svg" xmlns:xlink="http://www.w3.org/1999/xlink" viewBox="0 0 51.25 50.918">
 <g>
  <rect height="50.918" opacity="0" width="51.25" x="0" y="0"/>
  <path d="M50.8789 25.4492C50.8789 39.4531 39.4531 50.8789 25.4297 50.8789C11.4258 50.8789 0 39.4531 0 25.4492C0 11.4258 11.4258 0 25.4297 0C39.4531 0 50.8789 11.4258 50.8789 25.4492ZM14.5508 15.0195L14.5508 34.8047C14.5508 35.625 15.0586 36.1523 15.8203 36.1523C16.5625 36.1523 17.0898 35.625 17.0898 34.8047L17.0898 30.1172L18.6523 28.5547L23.6328 35.5078C23.8867 35.8984 24.2578 36.1523 24.7266 36.1523C25.4297 36.1523 25.9375 35.6836 25.9375 35.0391C25.9375 34.707 25.8008 34.4336 25.6055 34.1211L20.4492 26.9727L25.2734 21.8555C25.5859 21.543 25.7227 21.3477 25.7227 20.957C25.7227 20.3711 25.2344 19.8438 24.5898 19.8438C24.2578 19.8438 23.8477 20.0586 23.6328 20.332L17.168 27.4219L17.0898 27.4219L17.0898 15.0391C17.0898 14.2188 16.5625 13.6719 15.8203 13.6719C15.0586 13.6719 14.5508 14.1992 14.5508 15.0195ZM31.4453 23.0078L31.2891 23.0078L31.2891 21.1328C31.2891 20.4102 30.8008 19.8438 30.1562 19.8438C29.4727 19.8438 28.9844 20.4102 28.9844 21.1328L28.9844 34.8047C28.9844 35.625 29.4141 36.1523 30.2148 36.1523C30.7617 36.1523 31.3867 35.7812 31.3867 34.8047L31.3867 26.4062C31.3867 24.5117 32.1484 22.2852 34.4336 22.2852C34.9414 22.2852 35.3906 22.2656 35.7812 22.0703C36.1133 21.9141 36.3086 21.6211 36.3086 21.1914C36.3086 20.3125 35.5664 19.8438 34.668 19.8438C32.9688 19.8438 31.8555 21.3086 31.4453 23.0078ZM35.5664 34.2188C35.5664 35.1953 36.2891 35.8984 37.2852 35.8984C38.2617 35.8984 38.9648 35.1953 38.9648 34.2188C38.9648 33.2422 38.2617 32.5195 37.2852 32.5195C36.2891 32.5195 35.5664 33.2422 35.5664 34.2188Z" fill="black" fill-opacity="0.85"/>
 </g>
</svg>
