<?xml version="1.0" encoding="UTF-8"?>
<!--Generator: Apple Native CoreSVG 326-->
<!DOCTYPE svg
PUBLIC "-//W3C//DTD SVG 1.1//EN"
       "http://www.w3.org/Graphics/SVG/1.1/DTD/svg11.dtd">
<svg version="1.1" xmlns="http://www.w3.org/2000/svg" xmlns:xlink="http://www.w3.org/1999/xlink" viewBox="0 0 46.2891 45.918">
 <g>
  <rect height="45.918" opacity="0" width="46.2891" x="0" y="0"/>
  <path d="M7.59766 45.918L38.3008 45.918C43.3594 45.918 45.918 43.3594 45.918 38.3984L45.918 7.53906C45.918 2.55859 43.3594 0 38.3008 0L7.59766 0C2.55859 0 0 2.53906 0 7.53906L0 38.3984C0 43.3984 2.55859 45.918 7.59766 45.918ZM7.67578 42.4609C4.94141 42.4609 3.45703 41.0156 3.45703 38.2031L3.45703 7.71484C3.45703 4.92188 4.94141 3.45703 7.67578 3.45703L38.2422 3.45703C40.918 3.45703 42.4609 4.92188 42.4609 7.71484L42.4609 38.2031C42.4609 41.0156 40.918 42.4609 38.2422 42.4609Z" fill="black" fill-opacity="0.85"/>
  <path d="M22.9297 16.3477C24.5117 16.3477 25.6836 15.2734 25.6836 13.8672C25.6836 12.3047 24.5312 11.1914 22.9297 11.1914C21.4453 11.1914 20.2734 12.3242 20.2734 13.8867C20.2734 15.293 21.4453 16.3477 22.9297 16.3477ZM12.793 24.7656L33.1641 24.7656C34.3555 24.7656 35.1562 24.1406 35.1562 22.9883C35.1562 21.8359 34.3945 21.1914 33.1641 21.1914L12.793 21.1914C11.5625 21.1914 10.7812 21.8359 10.7812 22.9883C10.7812 24.1406 11.6016 24.7656 12.793 24.7656ZM22.9297 34.7656C24.5117 34.7656 25.6836 33.6523 25.6836 32.2461C25.6836 30.6836 24.5312 29.5898 22.9297 29.5898C21.4453 29.5898 20.2734 30.7031 20.2734 32.2656C20.2734 33.6719 21.4453 34.7656 22.9297 34.7656Z" fill="black" fill-opacity="0.85"/>
 </g>
</svg>
