<?xml version="1.0" encoding="UTF-8"?>
<!--Generator: Apple Native CoreSVG 326-->
<!DOCTYPE svg
PUBLIC "-//W3C//DTD SVG 1.1//EN"
       "http://www.w3.org/Graphics/SVG/1.1/DTD/svg11.dtd">
<svg version="1.1" xmlns="http://www.w3.org/2000/svg" xmlns:xlink="http://www.w3.org/1999/xlink" viewBox="0 0 51.25 50.918">
 <g>
  <rect height="50.918" opacity="0" width="51.25" x="0" y="0"/>
  <path d="M50.8789 25.4492C50.8789 39.4531 39.4531 50.8789 25.4297 50.8789C11.4258 50.8789 0 39.4531 0 25.4492C0 11.4258 11.4258 0 25.4297 0C39.4531 0 50.8789 11.4258 50.8789 25.4492ZM22.6562 35C22.6562 36.4453 23.8672 37.5781 25.3906 37.5781C27.0508 37.5781 28.2227 36.4258 28.2227 35C28.2227 33.3789 27.0703 32.2266 25.3906 32.2266C23.8672 32.2266 22.6562 33.3789 22.6562 35ZM15.0195 23.6328C13.75 23.6328 12.9297 24.2969 12.9297 25.4883C12.9297 26.6797 13.7891 27.3242 15.0195 27.3242L35.8594 27.3242C37.0898 27.3242 37.9102 26.6797 37.9102 25.4883C37.9102 24.2969 37.1289 23.6328 35.8594 23.6328ZM22.6562 16.1719C22.6562 17.5977 23.8672 18.7109 25.3906 18.7109C27.0508 18.7109 28.2227 17.5977 28.2227 16.1523C28.2227 14.5312 27.0703 13.3789 25.3906 13.3789C23.8672 13.3789 22.6562 14.5508 22.6562 16.1719Z" fill="black" fill-opacity="0.85"/>
 </g>
</svg>
