<?xml version="1.0" encoding="UTF-8"?>
<!--Generator: Apple Native CoreSVG 326-->
<!DOCTYPE svg
PUBLIC "-//W3C//DTD SVG 1.1//EN"
       "http://www.w3.org/Graphics/SVG/1.1/DTD/svg11.dtd">
<svg version="1.1" xmlns="http://www.w3.org/2000/svg" xmlns:xlink="http://www.w3.org/1999/xlink" viewBox="0 0 57.7734 69.1211">
 <g>
  <rect height="69.1211" opacity="0" width="57.7734" x="0" y="0"/>
  <path d="M36.0156 18.0078C36.0156 20.5273 37.4805 21.9922 40.0195 21.9922L54.2969 21.9922L54.2969 46.0547C54.2969 51.0938 51.7773 53.6523 46.7773 53.6523L45.1953 53.6523L45.1953 37.9492C45.2148 34.7461 44.2188 32.168 42.0703 29.9805L28.125 15.8398C25.7422 13.3984 23.2227 12.2852 19.5117 12.2852L15.332 12.2852L15.332 10.4883C15.332 5.68359 17.8906 3.04688 22.8711 3.04688L36.0156 3.04688ZM41.0352 5.33203L52.5 16.9922C53.2812 17.7734 53.7891 18.3984 53.9062 19.1016L40.4297 19.1016C39.3555 19.1016 38.9453 18.6523 38.9453 17.5977L38.9062 3.92578C39.6094 4.04297 40.2734 4.55078 41.0352 5.33203Z" fill="black" fill-opacity="0.85"/>
  <path d="M24.668 34.8242L41.6016 34.8242C41.3672 33.9648 40.8203 33.1445 39.8438 32.1484L25.918 18.0273C24.9414 17.0312 24.1016 16.3477 23.2422 16.1133L23.2422 33.3984C23.2422 34.3555 23.7109 34.8242 24.668 34.8242ZM10.6445 65.9961L34.5508 65.9961C39.5508 65.9961 42.0703 63.4375 42.0703 58.3984L42.0703 37.9492L24.6289 37.9492C21.582 37.9492 20.1172 36.4844 20.1172 33.4375L20.1172 15.3906L10.6445 15.3906C5.66406 15.3906 3.10547 17.9688 3.10547 22.9883L3.10547 58.3984C3.10547 63.457 5.64453 65.9961 10.6445 65.9961Z" fill="black" fill-opacity="0.85"/>
 </g>
</svg>
