<?xml version="1.0" encoding="UTF-8"?>
<!--Generator: Apple Native CoreSVG 326-->
<!DOCTYPE svg
PUBLIC "-//W3C//DTD SVG 1.1//EN"
       "http://www.w3.org/Graphics/SVG/1.1/DTD/svg11.dtd">
<svg version="1.1" xmlns="http://www.w3.org/2000/svg" xmlns:xlink="http://www.w3.org/1999/xlink" viewBox="0 0 42.3047 53.8477">
 <g>
  <rect height="53.8477" opacity="0" width="42.3047" x="0" y="0"/>
  <path d="M7.51953 53.8477L34.4141 53.8477C39.4141 53.8477 41.9336 51.2695 41.9336 46.25L41.9336 22.8711C41.9336 19.9609 41.582 18.6914 39.7656 16.8555L25.293 2.1875C23.5742 0.410156 22.168 0.0195312 19.5703 0.0195312L7.51953 0.0195312C2.55859 0.0195312 0 2.57812 0 7.61719L0 46.25C0 51.2891 2.51953 53.8477 7.51953 53.8477ZM7.69531 50.3906C4.90234 50.3906 3.45703 48.9062 3.45703 46.1719L3.45703 7.69531C3.45703 5.01953 4.90234 3.47656 7.71484 3.47656L19.2773 3.47656L19.2773 18.4375C19.2773 21.4258 20.7812 22.8711 23.7109 22.8711L38.4766 22.8711L38.4766 46.1719C38.4766 48.9062 37.0312 50.3906 34.2188 50.3906ZM24.082 19.6094C22.9883 19.6094 22.5391 19.1797 22.5391 18.0664L22.5391 4.16016L37.793 19.6094Z" fill="black" fill-opacity="0.85"/>
 </g>
</svg>
