<?xml version="1.0" encoding="UTF-8"?>
<!--Generator: Apple Native CoreSVG 326-->
<!DOCTYPE svg
PUBLIC "-//W3C//DTD SVG 1.1//EN"
       "http://www.w3.org/Graphics/SVG/1.1/DTD/svg11.dtd">
<svg version="1.1" xmlns="http://www.w3.org/2000/svg" xmlns:xlink="http://www.w3.org/1999/xlink" viewBox="0 0 51.25 50.918">
 <g>
  <rect height="50.918" opacity="0" width="51.25" x="0" y="0"/>
  <path d="M25.4297 50.8789C39.4727 50.8789 50.8789 39.4922 50.8789 25.4492C50.8789 11.4062 39.4727 0 25.4297 0C11.3867 0 0 11.4062 0 25.4492C0 39.4922 11.3867 50.8789 25.4297 50.8789ZM25.4297 47.2461C13.3789 47.2461 3.63281 37.5 3.63281 25.4492C3.63281 13.3984 13.3789 3.65234 25.4297 3.65234C37.4805 3.65234 47.2266 13.3984 47.2266 25.4492C47.2266 37.5 37.4805 47.2461 25.4297 47.2461Z" fill="black" fill-opacity="0.85"/>
  <path d="M25.4492 36.3086C29.6094 36.3086 33.3789 34.375 33.3789 30.1562C33.3789 26.4844 30.4102 25.0391 26.9727 24.2383L24.5898 23.6719C22.4219 23.1641 20.3711 22.2266 20.3711 20.0586C20.3711 17.5586 23.0469 16.4648 25.4492 16.4648C27.9883 16.4648 29.8828 17.5781 30.5273 19.7852C30.7422 20.4688 31.1719 20.8008 31.7773 20.8008C32.3633 20.8008 32.9883 20.4297 32.9883 19.668C32.9883 16.582 29.082 14.2383 25.4492 14.2383C21.5234 14.2383 17.8711 16.4258 17.8711 20.2344C17.8711 23.8672 20.9766 25.2734 24.043 26.0156L26.4453 26.582C28.7695 27.1289 30.8789 27.9688 30.8789 30.3516C30.8789 33.1641 28.1641 34.1211 25.4883 34.1211C22.7148 34.1211 20.7031 33.125 19.9023 30.625C19.6484 29.9414 19.2578 29.668 18.6523 29.668C17.9883 29.668 17.4609 30.0977 17.4609 30.8203C17.4609 31.0547 17.5 31.3086 17.5781 31.5625C18.4961 34.8828 22.1289 36.3086 25.4492 36.3086ZM25.4102 39.3164C25.8203 39.3164 26.1719 38.9844 26.1719 38.5547L26.1719 12.1094C26.1719 11.6797 25.8203 11.3477 25.4102 11.3477C25 11.3477 24.6484 11.6797 24.6484 12.1094L24.6484 38.5547C24.6484 38.9844 25 39.3164 25.4102 39.3164Z" fill="black" fill-opacity="0.85"/>
 </g>
</svg>
