<?xml version="1.0" encoding="UTF-8"?>
<!--Generator: Apple Native CoreSVG 326-->
<!DOCTYPE svg
PUBLIC "-//W3C//DTD SVG 1.1//EN"
       "http://www.w3.org/Graphics/SVG/1.1/DTD/svg11.dtd">
<svg version="1.1" xmlns="http://www.w3.org/2000/svg" xmlns:xlink="http://www.w3.org/1999/xlink" viewBox="0 0 72.8516 52.9102">
 <g>
  <rect height="52.9102" opacity="0" width="72.8516" x="0" y="0"/>
  <path d="M1.73828 52.8711C2.69531 52.8711 3.47656 52.0898 3.47656 51.1328L3.47656 4.80469C3.47656 4.00391 3.98438 3.47656 4.74609 3.47656L67.7344 3.47656C68.4961 3.47656 69.0039 4.00391 69.0039 4.80469L69.0039 51.1328C69.0039 52.0898 69.7656 52.8711 70.7422 52.8711C71.6992 52.8711 72.4805 52.0898 72.4805 51.1328L72.4805 4.57031C72.4805 1.83594 70.6055 0 67.793 0L4.6875 0C1.875 0 0 1.83594 0 4.57031L0 51.1328C0 52.0898 0.761719 52.8711 1.73828 52.8711Z" fill="black" fill-opacity="0.85"/>
  <path d="M6.93359 16.7383L65.5469 16.7383C65.957 16.7383 66.2891 16.4062 66.2891 15.9961L66.2891 6.93359C66.2891 6.52344 65.957 6.19141 65.5469 6.19141L6.93359 6.19141C6.52344 6.19141 6.19141 6.52344 6.19141 6.93359L6.19141 15.9961C6.19141 16.4062 6.52344 16.7383 6.93359 16.7383ZM30.8203 12.6172C30.1367 12.6172 29.6484 12.1484 29.6484 11.4648C29.6484 10.7812 30.1367 10.293 30.8203 10.293L41.6602 10.293C42.3633 10.293 42.832 10.7812 42.832 11.4648C42.832 12.1484 42.3633 12.6172 41.6602 12.6172Z" fill="black" fill-opacity="0.85"/>
 </g>
</svg>
