<?xml version="1.0" encoding="UTF-8"?>
<!--Generator: Apple Native CoreSVG 326-->
<!DOCTYPE svg
PUBLIC "-//W3C//DTD SVG 1.1//EN"
       "http://www.w3.org/Graphics/SVG/1.1/DTD/svg11.dtd">
<svg version="1.1" xmlns="http://www.w3.org/2000/svg" xmlns:xlink="http://www.w3.org/1999/xlink" viewBox="0 0 70.4507 56.143">
 <g>
  <rect height="56.143" opacity="0" width="70.4507" x="0" y="0"/>
  <path d="M46.8758 49.6047C46.8758 50.5422 46.0945 51.3234 45.1375 51.3234L30.0194 51.3234L33.4737 47.8664L45.1375 47.8664C46.0945 47.8664 46.8758 48.6477 46.8758 49.6047Z" fill="black" fill-opacity="0.85"/>
  <path d="M66.9343 49.6047C66.9343 50.5422 66.1531 51.3234 65.2156 51.3234L52.0125 51.3234C51.075 51.3234 50.2937 50.5422 50.2937 49.6047C50.2937 48.6477 51.075 47.8664 52.0125 47.8664L65.2156 47.8664C66.1531 47.8664 66.9343 48.6477 66.9343 49.6047Z" fill="black" fill-opacity="0.85"/>
  <path d="M10.4109 24.4484L31.0164 45.0344L50.4695 25.5617C52.5984 23.4523 52.5593 20.4445 50.3914 18.2961L37.1687 5.03437C35.0203 2.8664 31.9929 2.84687 29.8836 4.97578ZM5.86013 40.2492L15.1961 49.6047C18.7117 53.1008 22.8133 53.218 26.1726 49.8781L28.8093 47.2414L8.22341 26.6555L5.56716 29.2727C2.20779 32.6125 2.3445 36.7336 5.86013 40.2492Z" fill="black" fill-opacity="0.85"/>
 </g>
</svg>
