<?xml version="1.0" encoding="UTF-8"?>
<!--Generator: Apple Native CoreSVG 326-->
<!DOCTYPE svg
PUBLIC "-//W3C//DTD SVG 1.1//EN"
       "http://www.w3.org/Graphics/SVG/1.1/DTD/svg11.dtd">
<svg version="1.1" xmlns="http://www.w3.org/2000/svg" xmlns:xlink="http://www.w3.org/1999/xlink" viewBox="0 0 51.25 50.918">
 <g>
  <rect height="50.918" opacity="0" width="51.25" x="0" y="0"/>
  <path d="M50.8789 25.4492C50.8789 39.4531 39.4531 50.8789 25.4297 50.8789C11.4258 50.8789 0 39.4531 0 25.4492C0 11.4258 11.4258 0 25.4297 0C39.4531 0 50.8789 11.4258 50.8789 25.4492ZM17.2852 22.2656L14.1992 22.2656C13.7695 22.2656 13.418 22.6172 13.418 23.0469C13.418 23.4766 13.7695 23.8281 14.1992 23.8281L17.0312 23.8281C16.9922 24.3164 16.9531 24.8047 16.9531 25.332C16.9531 25.8398 16.9922 26.3477 17.0312 26.8164L14.1992 26.8164C13.7695 26.8164 13.418 27.168 13.418 27.5977C13.418 28.0078 13.7695 28.3789 14.1992 28.3789L17.2852 28.3789C18.457 33.7305 22.7539 36.6602 28.6523 36.6602C29.3359 36.6602 30.2148 36.6406 30.918 36.4844C31.6211 36.3086 32.168 35.9766 32.168 35.2734C32.168 34.5508 31.6602 34.1797 30.9375 34.1797C30.1758 34.1797 29.8242 34.3164 28.7695 34.3164C24.2383 34.3164 21.1523 32.168 20.1172 28.3789L28.3203 28.3789C28.7305 28.3789 29.1016 28.0078 29.1016 27.5977C29.1016 27.168 28.7305 26.8164 28.3203 26.8164L19.8242 26.8164C19.7461 26.3477 19.7461 25.8594 19.7461 25.3516C19.7461 24.8242 19.7461 24.3164 19.8242 23.8281L28.3203 23.8281C28.7305 23.8281 29.1016 23.4766 29.1016 23.0469C29.1016 22.6172 28.7305 22.2656 28.3203 22.2656L20.1172 22.2656C21.1328 18.5352 24.1211 16.3867 28.7109 16.3867C29.6484 16.3867 30.4102 16.5039 30.9375 16.5039C31.6602 16.5039 32.168 16.1133 32.168 15.3906C32.168 14.7461 31.7383 14.3555 30.918 14.1602C30.293 14.0234 29.4922 13.9844 28.6523 13.9844C23.1055 13.9844 18.4961 16.7188 17.2852 22.2656Z" fill="black" fill-opacity="0.85"/>
 </g>
</svg>
