<?xml version="1.0" encoding="UTF-8"?>
<!--Generator: Apple Native CoreSVG 326-->
<!DOCTYPE svg
PUBLIC "-//W3C//DTD SVG 1.1//EN"
       "http://www.w3.org/Graphics/SVG/1.1/DTD/svg11.dtd">
<svg version="1.1" xmlns="http://www.w3.org/2000/svg" xmlns:xlink="http://www.w3.org/1999/xlink" viewBox="0 0 46.2891 45.918">
 <g>
  <rect height="45.918" opacity="0" width="46.2891" x="0" y="0"/>
  <path d="M7.59766 45.918L38.3008 45.918C43.3594 45.918 45.918 43.3594 45.918 38.3984L45.918 7.53906C45.918 2.55859 43.3594 0 38.3008 0L7.59766 0C2.55859 0 0 2.53906 0 7.53906L0 38.3984C0 43.3984 2.55859 45.918 7.59766 45.918ZM7.67578 42.4609C4.94141 42.4609 3.45703 41.0156 3.45703 38.2031L3.45703 7.71484C3.45703 4.92188 4.94141 3.45703 7.67578 3.45703L38.2422 3.45703C40.918 3.45703 42.4609 4.92188 42.4609 7.71484L42.4609 38.2031C42.4609 41.0156 40.918 42.4609 38.2422 42.4609Z" fill="black" fill-opacity="0.85"/>
  <path d="M22.9492 27.4805C24.0039 27.4805 24.6094 26.8555 24.6289 25.7031L24.9609 12.2852C24.9805 11.1523 24.1016 10.3125 22.9297 10.3125C21.7383 10.3125 20.918 11.1328 20.9375 12.2656L21.2305 25.7031C21.25 26.8359 21.875 27.4805 22.9492 27.4805ZM22.9492 35.4297C24.2969 35.4297 25.4297 34.3555 25.4297 33.0273C25.4297 31.6797 24.3164 30.625 22.9492 30.625C21.6016 30.625 20.4688 31.6992 20.4688 33.0273C20.4688 34.3359 21.6211 35.4297 22.9492 35.4297Z" fill="black" fill-opacity="0.85"/>
 </g>
</svg>
