<?xml version="1.0" encoding="UTF-8"?>
<!--Generator: Apple Native CoreSVG 326-->
<!DOCTYPE svg
PUBLIC "-//W3C//DTD SVG 1.1//EN"
       "http://www.w3.org/Graphics/SVG/1.1/DTD/svg11.dtd">
<svg version="1.1" xmlns="http://www.w3.org/2000/svg" xmlns:xlink="http://www.w3.org/1999/xlink" viewBox="0 0 46.2891 45.918">
 <g>
  <rect height="45.918" opacity="0" width="46.2891" x="0" y="0"/>
  <path d="M45.918 7.53906L45.918 38.3984C45.918 43.3594 43.3594 45.918 38.3008 45.918L7.59766 45.918C2.55859 45.918 0 43.3984 0 38.3984L0 7.53906C0 2.53906 2.55859 0 7.59766 0L38.3008 0C43.3594 0 45.918 2.55859 45.918 7.53906ZM20.4102 33.2812C20.4102 34.6289 21.6016 35.7422 22.9688 35.7422C24.3359 35.7422 25.5273 34.6484 25.5273 33.2812C25.5273 31.8945 24.3555 30.8008 22.9688 30.8008C21.582 30.8008 20.4102 31.9141 20.4102 33.2812ZM20.8984 12.0117L21.1914 25.7617C21.2109 26.9336 21.8555 27.5977 22.9688 27.5977C24.0625 27.5977 24.6875 26.9531 24.707 25.7617L25.0391 12.0312C25.0586 10.8594 24.1602 10 22.9492 10C21.7188 10 20.8789 10.8398 20.8984 12.0117Z" fill="black" fill-opacity="0.85"/>
 </g>
</svg>
