<?xml version="1.0" encoding="UTF-8"?>
<!--Generator: Apple Native CoreSVG 326-->
<!DOCTYPE svg
PUBLIC "-//W3C//DTD SVG 1.1//EN"
       "http://www.w3.org/Graphics/SVG/1.1/DTD/svg11.dtd">
<svg version="1.1" xmlns="http://www.w3.org/2000/svg" xmlns:xlink="http://www.w3.org/1999/xlink" viewBox="0 0 68.4766 42.9492">
 <g>
  <rect height="42.9492" opacity="0" width="68.4766" x="0" y="0"/>
  <path d="M34.0625 42.9492C54.1211 42.9492 68.1055 26.582 68.1055 21.4844C68.1055 16.3867 54.043 0.0390625 34.0625 0.0390625C14.2773 0.0390625 0 16.3867 0 21.4844C0 26.582 14.2188 42.9492 34.0625 42.9492ZM34.0625 39.4922C17.1289 39.4922 3.80859 25.1367 3.80859 21.4844C3.80859 18.2812 17.1289 3.47656 34.0625 3.47656C50.9766 3.47656 64.2969 18.2812 64.2969 21.4844C64.2969 25.1367 50.9766 39.4922 34.0625 39.4922ZM34.0625 35.5859C41.875 35.5859 48.2031 29.2383 48.2031 21.4453C48.2031 13.6328 41.875 7.30469 34.0625 7.30469C26.2695 7.30469 19.9219 13.6328 19.9219 21.4453C19.9219 29.2383 26.2695 35.5859 34.0625 35.5859ZM34.0625 26.0352C31.5234 26.0352 29.4922 23.9844 29.4922 21.4648C29.4922 18.9258 31.5234 16.875 34.0625 16.875C36.6016 16.875 38.6523 18.9258 38.6523 21.4648C38.6523 23.9844 36.6016 26.0352 34.0625 26.0352Z" fill="black" fill-opacity="0.85"/>
 </g>
</svg>
