<?xml version="1.0" encoding="UTF-8"?>
<!--Generator: Apple Native CoreSVG 326-->
<!DOCTYPE svg
PUBLIC "-//W3C//DTD SVG 1.1//EN"
       "http://www.w3.org/Graphics/SVG/1.1/DTD/svg11.dtd">
<svg version="1.1" xmlns="http://www.w3.org/2000/svg" xmlns:xlink="http://www.w3.org/1999/xlink" viewBox="0 0 51.25 50.918">
 <g>
  <rect height="50.918" opacity="0" width="51.25" x="0" y="0"/>
  <path d="M3.65234 25.4492C3.65234 23.0469 4.04297 20.7227 4.76562 18.5938L1.38672 17.1875C0.507812 19.7852 0 22.5586 0 25.4492C0 28.3203 0.507812 31.1133 1.40625 33.7109L4.76562 32.3047C4.0625 30.1758 3.65234 27.8516 3.65234 25.4492ZM15.6445 5.9375L14.2578 2.65625C9.21875 5.13672 5.09766 9.25781 2.61719 14.2969L5.9375 15.7031C8.02734 11.4844 11.4453 8.06641 15.6445 5.9375ZM25.4102 3.65234C27.8125 3.65234 30.1367 4.04297 32.3047 4.76562L33.6719 1.42578C31.0742 0.507812 28.3008 0 25.4102 0C22.5391 0 19.7266 0.507812 17.1289 1.42578L18.5352 4.76562C20.7031 4.02344 23.0078 3.65234 25.4102 3.65234ZM44.9219 15.6836L48.2422 14.2969C45.7422 9.23828 41.6016 5.11719 36.5625 2.61719L35.1758 5.9375C39.3945 8.04688 42.8125 11.4453 44.9219 15.6836ZM47.2266 25.4492C47.2266 27.8516 46.8359 30.1758 46.1328 32.3242L49.4531 33.7305C50.3711 31.1328 50.8789 28.3203 50.8789 25.4492C50.8789 22.5586 50.3711 19.7656 49.4531 17.168L46.1328 18.5742C46.8555 20.7227 47.2266 23.0469 47.2266 25.4492ZM35.1758 44.9414L36.5625 48.2617C41.6211 45.7617 45.7617 41.6406 48.2227 36.6016L44.9414 35.2148C42.832 39.4336 39.4141 42.8516 35.1758 44.9414ZM25.4297 47.2461C23.0078 47.2461 20.7031 46.8555 18.5352 46.1133L17.1484 49.4727C19.7461 50.3711 22.5586 50.8789 25.4297 50.8789C28.3203 50.8789 31.0938 50.3906 33.6914 49.4922L32.2852 46.1523C30.1172 46.8555 27.832 47.2461 25.4297 47.2461ZM5.95703 35.2148L2.61719 36.6016C5.11719 41.6406 9.23828 45.7617 14.2773 48.2422L15.6445 44.9219C11.4453 42.832 8.02734 39.4141 5.95703 35.2148Z" fill="black" fill-opacity="0.85"/>
  <path d="M25.4102 37.9688C30.5664 37.9688 34.0625 34.4922 34.0625 32.8711C34.0625 32.3438 33.5352 32.1094 33.0859 32.3633C31.3477 33.4375 29.043 34.5898 25.4102 34.5898C21.7773 34.5898 19.4922 33.418 17.7539 32.3633C17.2852 32.1094 16.7578 32.3438 16.7578 32.8711C16.7578 34.4922 20.2734 37.9688 25.4102 37.9688ZM17.9102 23.1836C19.4336 23.1836 20.8008 21.7578 20.8008 19.8242C20.8008 17.8906 19.4531 16.4648 17.9102 16.4648C16.3867 16.4648 15.0781 17.8906 15.0781 19.8242C15.0781 21.7578 16.4062 23.1836 17.9102 23.1836ZM32.9102 23.1836C34.4531 23.1836 35.8008 21.7578 35.8008 19.8242C35.8008 17.8906 34.4531 16.4648 32.9102 16.4648C31.3867 16.4648 30.0781 17.8906 30.0781 19.8242C30.0781 21.7578 31.4062 23.1836 32.9102 23.1836Z" fill="black" fill-opacity="0.85"/>
 </g>
</svg>
