<?xml version="1.0" encoding="UTF-8"?>
<!--Generator: Apple Native CoreSVG 326-->
<!DOCTYPE svg
PUBLIC "-//W3C//DTD SVG 1.1//EN"
       "http://www.w3.org/Graphics/SVG/1.1/DTD/svg11.dtd">
<svg version="1.1" xmlns="http://www.w3.org/2000/svg" xmlns:xlink="http://www.w3.org/1999/xlink" viewBox="0 0 51.25 50.918">
 <g>
  <rect height="50.918" opacity="0" width="51.25" x="0" y="0"/>
  <path d="M50.8789 25.4492C50.8789 39.4531 39.4531 50.8789 25.4297 50.8789C11.4258 50.8789 0 39.4531 0 25.4492C0 11.4258 11.4258 0 25.4297 0C39.4531 0 50.8789 11.4258 50.8789 25.4492ZM19.082 40.7422C18.7695 40.7422 18.5156 40.9961 18.5156 41.3281C18.5156 41.6797 18.7695 41.9141 19.082 41.9141L24.6875 41.9141C25.0195 41.9141 25.293 41.6797 25.293 41.3281C25.293 40.9961 25.0195 40.7422 24.6875 40.7422ZM30.4883 14.8828L8.35938 18.9258C7.42188 19.082 7.05078 19.8633 7.1875 20.5664C7.34375 21.2891 7.92969 21.9141 8.92578 21.7383L15.4297 20.5664C15.9766 20.4492 16.25 20.7031 16.3281 20.9961C17.0703 23.8477 19.8633 25.8398 22.7734 26.9727L20.6641 30.5273C20.3516 31.0938 20.2344 31.582 20.3906 32.3047L21.543 37.4219L19.6875 38.0273C18.75 38.3594 18.8477 39.7266 19.8633 39.7266L24.0625 39.7266C24.707 39.7266 25.0391 39.2773 24.8438 38.5547L23.3984 32.1289L27.6367 26.9141L40.0977 24.6484L41.1328 26.6016C41.5625 27.3828 42.9688 27.1094 42.8125 26.1133L42.1094 22.2266C42.0117 21.6406 41.6211 21.4258 41.0938 21.5234L32.5391 23.0273L27.2461 22.7344C25.7227 22.4805 23.2031 21.3867 22.6562 19.9609C22.4609 19.5703 22.7344 19.1992 23.0664 19.1211L31.0547 17.7148C32.0312 17.5586 32.4023 16.7188 32.207 16.0156C32.0898 15.293 31.4648 14.707 30.4883 14.8828ZM43.4766 20.7812C43.125 20.8594 42.9297 21.1523 42.9883 21.4844L43.9648 26.9531C44.0234 27.3047 44.3555 27.5195 44.668 27.4609C45 27.4414 45.1953 27.1094 45.1562 26.7578L44.1602 21.2891C44.1211 20.9375 43.8086 20.7422 43.4766 20.7812ZM14.7461 12.4805C14.7461 14.2188 16.1133 15.5859 17.8516 15.5859C19.5898 15.5859 20.9766 14.2188 20.9766 12.4805C20.9766 10.7422 19.5898 9.35547 17.8516 9.35547C16.1133 9.35547 14.7461 10.7422 14.7461 12.4805Z" fill="black" fill-opacity="0.85"/>
 </g>
</svg>
