<?xml version="1.0" encoding="UTF-8"?>
<!--Generator: Apple Native CoreSVG 326-->
<!DOCTYPE svg
PUBLIC "-//W3C//DTD SVG 1.1//EN"
       "http://www.w3.org/Graphics/SVG/1.1/DTD/svg11.dtd">
<svg version="1.1" xmlns="http://www.w3.org/2000/svg" xmlns:xlink="http://www.w3.org/1999/xlink" viewBox="0 0 51.25 50.918">
 <g>
  <rect height="50.918" opacity="0" width="51.25" x="0" y="0"/>
  <path d="M50.8789 25.4492C50.8789 39.4531 39.4531 50.8789 25.4297 50.8789C11.4258 50.8789 0 39.4531 0 25.4492C0 11.4258 11.4258 0 25.4297 0C39.4531 0 50.8789 11.4258 50.8789 25.4492ZM21.3672 6.71875L20.6055 7.57812C20.1953 8.04688 20.2148 8.61328 20.6836 9.00391L28.2422 15.8594C28.7109 16.25 29.2188 16.1914 29.707 15.7422L30.5469 16.4648L24.1797 22.8125C23.457 23.5547 23.0273 24.4336 22.9297 25.5078L21.6602 39.2969L16.0938 39.2969C15.2539 39.2969 14.6289 39.9414 14.6289 40.7812C14.6289 41.582 15.2539 42.2461 16.0938 42.2461L23.0078 42.2461C23.9062 42.2461 24.3164 41.8164 24.4727 41.0352L25.7031 34.1602L31.5039 34.1602L30.3711 40.5078C30.2148 41.5234 30.8594 42.1875 31.6211 42.2461C32.3242 42.3047 33.1055 41.9727 33.2617 41.0352L34.707 33.1055C34.9023 31.9922 34.2578 31.3281 33.4375 31.2109L28.2812 30.6641L28.7305 25.7617C28.7695 25.5078 28.9453 25.3516 29.1602 25.3516L33.2812 25.3516C34.1016 25.3516 34.7656 24.668 34.7656 23.8672L34.7656 15.8203C34.7656 15.1953 34.3945 14.6484 33.8281 14.4531C33.2812 14.2383 32.6953 14.3359 32.2461 14.7461L31.3281 15.6836L30.5078 14.9414C30.957 14.4531 30.8789 13.8672 30.4492 13.4766L22.8516 6.62109C22.3633 6.21094 21.7578 6.25 21.3672 6.71875ZM31.8555 22.4219L28.7695 22.4219L31.8555 19.3359ZM19.8438 17.4414C19.8438 19.1797 21.2305 20.5664 22.9688 20.5664C24.668 20.5664 26.0547 19.1797 26.0547 17.4414C26.0547 15.7422 24.668 14.3555 22.9688 14.3555C21.2305 14.3555 19.8438 15.7422 19.8438 17.4414Z" fill="black" fill-opacity="0.85"/>
 </g>
</svg>
