<?xml version="1.0" encoding="UTF-8"?>
<!--Generator: Apple Native CoreSVG 326-->
<!DOCTYPE svg
PUBLIC "-//W3C//DTD SVG 1.1//EN"
       "http://www.w3.org/Graphics/SVG/1.1/DTD/svg11.dtd">
<svg version="1.1" xmlns="http://www.w3.org/2000/svg" xmlns:xlink="http://www.w3.org/1999/xlink" viewBox="0 0 48.4172 58.3008">
 <g>
  <rect height="58.3008" opacity="0" width="48.4172" x="0" y="0"/>
  <path d="M24.0426 12.3047C27.0309 12.3047 29.4528 9.88281 29.4528 6.89453C29.4528 3.90625 27.0309 1.48438 24.0426 1.48438C21.0543 1.48438 18.6324 3.90625 18.6324 6.89453C18.6324 9.88281 21.0543 12.3047 24.0426 12.3047ZM44.6676 17.0312C43.652 16.0352 42.0895 16.0547 41.0934 17.0312L35.0582 23.0469L28.984 16.9531C27.8121 15.7422 25.9371 15 24.0426 15L7.77306 15C6.65978 15 5.74181 15.6641 5.35119 16.7578L1.46447 28.457C0.859001 30.2539 1.91369 31.4844 3.16369 31.7969C4.35509 32.1094 5.72228 31.6016 6.24963 30.0391L9.609 20.0781L14.9801 20.0781C15.4879 20.0781 15.8199 20.5078 15.6637 21.0156L12.3629 30.918C11.2887 34.1406 12.2653 37.2461 15.8785 38.8086L26.4449 43.457L30.0192 55.957C30.4684 57.5195 31.9137 57.9883 33.1051 57.6758C34.3551 57.3438 35.3707 56.2109 34.902 54.5508L30.9762 40.8789C30.7613 40.1562 30.4098 39.6484 29.5699 39.2773L21.3278 35.625L25.7223 22.4219C25.8981 21.875 26.5426 21.6797 26.9723 22.1094L33.2223 28.457C34.2184 29.4531 35.859 29.4531 36.8551 28.457L44.6676 20.6445C45.7028 19.6094 45.7028 18.0664 44.6676 17.0312ZM13.2028 40L11.9528 47.1094L1.30822 53.0469C-0.215218 53.8672-0.254281 55.4492 0.409782 56.582C1.05431 57.6172 2.40197 58.2617 3.80822 57.4805L15.527 50.9766C16.2496 50.5664 16.5035 50.0977 16.7574 49.3359L18.9645 42.6953L14.941 40.9375C14.316 40.6641 13.7301 40.332 13.2028 40ZM46.7184 12.3828C47.5387 11.9727 48.0465 11.1914 48.0465 10.3711L48.0465 2.38281C48.0465 1.07422 47.0504 0 45.7223 0L39.9996 0C38.691 0 37.6754 1.07422 37.6754 2.38281L37.6754 10.3711C37.6754 11.1914 38.2028 11.9727 39.0035 12.3828L42.8707 14.3555ZM41.6403 18.8086L44.1207 18.8086L44.1207 11.6992L41.6403 11.6992Z" fill="black" fill-opacity="0.85"/>
 </g>
</svg>
