<?xml version="1.0" encoding="UTF-8"?>
<!--Generator: Apple Native CoreSVG 326-->
<!DOCTYPE svg
PUBLIC "-//W3C//DTD SVG 1.1//EN"
       "http://www.w3.org/Graphics/SVG/1.1/DTD/svg11.dtd">
<svg version="1.1" xmlns="http://www.w3.org/2000/svg" xmlns:xlink="http://www.w3.org/1999/xlink" viewBox="0 0 51.25 50.918">
 <g>
  <rect height="50.918" opacity="0" width="51.25" x="0" y="0"/>
  <path d="M25.4297 50.8789C39.4727 50.8789 50.8789 39.4922 50.8789 25.4492C50.8789 11.4062 39.4727 0 25.4297 0C11.3867 0 0 11.4062 0 25.4492C0 39.4922 11.3867 50.8789 25.4297 50.8789ZM25.4297 47.2461C13.3789 47.2461 3.63281 37.5 3.63281 25.4492C3.63281 13.3984 13.3789 3.65234 25.4297 3.65234C37.4805 3.65234 47.2266 13.3984 47.2266 25.4492C47.2266 37.5 37.4805 47.2461 25.4297 47.2461Z" fill="black" fill-opacity="0.85"/>
  <path d="M25.4102 20C27.0703 20 28.418 18.6523 28.418 16.9727C28.418 15.2734 27.0703 13.9258 25.4102 13.9258C23.6914 13.9258 22.3438 15.2734 22.3438 16.9727C22.3438 18.6523 23.6914 20 25.4102 20ZM10.8203 18.1641L20.6641 23.4766C21.0156 23.6523 21.1914 23.9844 21.1133 24.375L20.0781 28.1055C22.8125 28.5938 23.5156 30.2148 25.4102 30.2148C25.9766 30.2148 26.4258 30.0391 26.8555 29.8242L28.2422 24.7461C28.3594 24.2578 28.5156 23.9648 29.043 23.7109L39.3555 18.1641C40.1367 17.7539 40.4297 16.7969 40.0391 16.0547C39.5898 15.2734 38.6523 14.9609 37.8906 15.3906L27.6172 20.8398C25.957 21.7188 24.3945 21.8359 22.3828 20.7617L12.2852 15.3906C11.5234 14.9609 10.5469 15.2734 10.1758 16.0547C9.74609 16.7969 10.0391 17.7539 10.8203 18.1641ZM25.4102 33.7305C29.1992 33.7305 30.0586 31.3867 32.6953 31.3867C35.3125 31.3867 36.1719 33.7305 39.9609 33.7305L40.8984 33.7305C41.3281 33.7305 41.6797 33.3789 41.6797 32.9492C41.6797 32.5391 41.3281 32.168 40.8984 32.168L39.9609 32.168C37.2656 32.168 36.3281 29.8242 32.6953 29.8242C29.082 29.8242 28.125 32.168 25.4102 32.168C22.6953 32.168 21.7383 29.8242 18.1445 29.8242C14.5117 29.8242 13.5742 32.168 10.8789 32.168L9.98047 32.168C9.57031 32.168 9.21875 32.5391 9.21875 32.9492C9.21875 33.3789 9.57031 33.7305 9.98047 33.7305L10.8789 33.7305C14.6484 33.7305 15.5273 31.3867 18.1445 31.3867C20.7617 31.3867 21.6406 33.7305 25.4102 33.7305ZM10.0586 36.8359C10.5469 36.8359 10.918 36.4648 10.918 35.9766C10.918 35.4883 10.5469 35.1172 10.0586 35.1172C9.57031 35.1172 9.21875 35.4883 9.21875 35.9766C9.21875 36.4648 9.57031 36.8359 10.0586 36.8359ZM12.5195 36.8359C13.0078 36.8359 13.3789 36.4648 13.3789 35.9766C13.3789 35.4883 13.0078 35.1172 12.5195 35.1172C12.0312 35.1172 11.6602 35.4883 11.6602 35.9766C11.6602 36.4648 12.0312 36.8359 12.5195 36.8359ZM15.0195 36.0156C15.5078 36.0156 15.8594 35.6445 15.8594 35.1562C15.8594 34.6875 15.5078 34.3164 15.0195 34.3164C14.5312 34.3164 14.1602 34.6875 14.1602 35.1562C14.1602 35.6445 14.5312 36.0156 15.0195 36.0156ZM17.6562 35.3906C18.1445 35.3906 18.5156 35.0195 18.5156 34.5312C18.5156 34.043 18.1445 33.6719 17.6562 33.6719C17.168 33.6719 16.7969 34.043 16.7969 34.5312C16.7969 35.0195 17.168 35.3906 17.6562 35.3906ZM20.293 36.0156C20.7812 36.0156 21.1523 35.6445 21.1523 35.1562C21.1523 34.6875 20.7812 34.3164 20.293 34.3164C19.8242 34.3164 19.4531 34.6875 19.4531 35.1562C19.4531 35.6445 19.8242 36.0156 20.293 36.0156ZM22.793 37.1484C23.2812 37.1484 23.6328 36.7773 23.6328 36.3086C23.6328 35.8203 23.2812 35.4492 22.793 35.4492C22.3047 35.4492 21.9336 35.8203 21.9336 36.3086C21.9336 36.7773 22.3047 37.1484 22.793 37.1484ZM25.4102 37.6172C25.8984 37.6172 26.2695 37.2656 26.2695 36.7773C26.2695 36.2891 25.8984 35.918 25.4102 35.918C24.9219 35.918 24.5508 36.2891 24.5508 36.7773C24.5508 37.2656 24.9219 37.6172 25.4102 37.6172ZM28.0664 37.1484C28.5547 37.1484 28.9258 36.7773 28.9258 36.3086C28.9258 35.8203 28.5547 35.4492 28.0664 35.4492C27.5781 35.4492 27.2266 35.8203 27.2266 36.3086C27.2266 36.7773 27.5781 37.1484 28.0664 37.1484ZM30.5664 36.0156C31.0352 36.0156 31.4062 35.6445 31.4062 35.1562C31.4062 34.6875 31.0352 34.3164 30.5664 34.3164C30.0781 34.3164 29.707 34.6875 29.707 35.1562C29.707 35.6445 30.0781 36.0156 30.5664 36.0156ZM33.2227 35.3906C33.7109 35.3906 34.082 35.0195 34.082 34.5312C34.082 34.043 33.7109 33.6719 33.2227 33.6719C32.7344 33.6719 32.3633 34.043 32.3633 34.5312C32.3633 35.0195 32.7344 35.3906 33.2227 35.3906ZM35.8594 36.0156C36.3477 36.0156 36.7188 35.6445 36.7188 35.1562C36.7188 34.6875 36.3477 34.3164 35.8594 34.3164C35.3711 34.3164 35.0195 34.6875 35.0195 35.1562C35.0195 35.6445 35.3711 36.0156 35.8594 36.0156ZM38.3398 36.8359C38.8281 36.8359 39.1992 36.4648 39.1992 35.9766C39.1992 35.4883 38.8281 35.1172 38.3398 35.1172C37.8516 35.1172 37.4805 35.4883 37.4805 35.9766C37.4805 36.4648 37.8516 36.8359 38.3398 36.8359ZM40.8398 36.8359C41.3086 36.8359 41.6797 36.4648 41.6797 35.9766C41.6797 35.4883 41.3086 35.1172 40.8398 35.1172C40.3516 35.1172 39.9805 35.4883 39.9805 35.9766C39.9805 36.4648 40.3516 36.8359 40.8398 36.8359Z" fill="black" fill-opacity="0.85"/>
 </g>
</svg>
