<?xml version="1.0" encoding="UTF-8"?>
<!--Generator: Apple Native CoreSVG 326-->
<!DOCTYPE svg
PUBLIC "-//W3C//DTD SVG 1.1//EN"
       "http://www.w3.org/Graphics/SVG/1.1/DTD/svg11.dtd">
<svg version="1.1" xmlns="http://www.w3.org/2000/svg" xmlns:xlink="http://www.w3.org/1999/xlink" viewBox="0 0 63.5742 53.0273">
 <g>
  <rect height="53.0273" opacity="0" width="63.5742" x="0" y="0"/>
  <path d="M41.2109 10.7227C44.1406 10.7227 46.543 8.30078 46.543 5.33203C46.543 2.42188 44.1406 0 41.2109 0C38.2617 0 35.8398 2.42188 35.8398 5.33203C35.8398 8.30078 38.2617 10.7227 41.2109 10.7227ZM52.4219 45.918C52.3633 46.6211 52.9492 47.207 53.5547 47.2656C54.2383 47.3047 54.8633 46.7773 54.9219 46.0938L57.0703 17.0508L54.5898 16.875ZM40.1953 33.3789L33.6523 28.1641L38.6719 19.3555L46.8555 25.5859C47.9688 26.4258 49.4727 26.3281 50.4688 25.2148L56.4648 18.4961C58.4766 16.2695 55.1172 12.4805 52.7734 15.2344L48.3789 20.332L41.2109 14.4922C38.6133 12.3828 36.1523 10.7227 31.875 10.918L21.4453 11.4258C20.1172 11.4844 19.0234 12.3047 18.9453 13.8867L18.3398 23.3203C18.1641 26.3086 23.0469 27.3438 23.2617 23.2617L23.6523 16.0938L29.8633 15.8398L25.1562 24.375C23.6719 27.0898 24.3555 30.0586 27.1094 31.6602L36.3281 36.9922L36.3281 49.4141C36.3281 50.7812 37.4219 51.875 38.7891 51.875C40.1758 51.875 41.2695 50.7812 41.2695 49.4141L41.2695 35.3516C41.2695 34.6094 41.0547 34.0625 40.1953 33.3789ZM1.19141 42.5195C0.703125 43.0078 0.703125 43.8086 1.15234 44.2578C1.64062 44.7461 2.46094 44.7266 2.94922 44.2578L22.4805 25.3125L20.7422 23.5547ZM24.2773 32.4023L23.0273 37.2266L12.6367 46.9141C10.0781 49.2969 13.5156 52.9102 16.1523 50.4102L26.8164 40.4688C27.4219 39.9219 27.5977 39.5508 27.8711 38.9062L29.2969 35.6055L25.957 33.6719C25.293 33.2812 24.7266 32.8711 24.2773 32.4023ZM56.7188 52.6953C59.2188 52.6953 60.7031 52.0703 62.4609 51.25C63.1055 50.957 63.3398 50.2734 63.125 49.668C62.9102 49.043 62.207 48.6328 61.4062 49.043C60 49.7656 58.8477 50.2344 56.7188 50.2344L15 50.2344C14.3164 50.2344 13.75 50.7617 13.75 51.4258C13.75 52.0898 14.2969 52.6953 15 52.6953ZM42.0703 52.6953L42.0703 50.2344L1.23047 50.2344C0.566406 50.2344 0 50.7617 0 51.4258C0 52.0898 0.546875 52.6953 1.23047 52.6953Z" fill="black" fill-opacity="0.85"/>
 </g>
</svg>
