<?xml version="1.0" encoding="UTF-8"?>
<!--Generator: Apple Native CoreSVG 326-->
<!DOCTYPE svg
PUBLIC "-//W3C//DTD SVG 1.1//EN"
       "http://www.w3.org/Graphics/SVG/1.1/DTD/svg11.dtd">
<svg version="1.1" xmlns="http://www.w3.org/2000/svg" xmlns:xlink="http://www.w3.org/1999/xlink" viewBox="0 0 51.25 50.918">
 <g>
  <rect height="50.918" opacity="0" width="51.25" x="0" y="0"/>
  <path d="M50.8789 25.4492C50.8789 39.4531 39.4531 50.8789 25.4297 50.8789C11.4258 50.8789 0 39.4531 0 25.4492C0 11.4258 11.4258 0 25.4297 0C39.4531 0 50.8789 11.4258 50.8789 25.4492ZM10.1367 17.793C9.94141 18.5742 10.3906 19.375 11.1523 19.5898L21.2695 22.3633C21.543 22.4414 21.6992 22.6562 21.6797 22.9297C21.3672 25.5078 20.0977 27.9688 19.4336 29.082L13.7305 29.082L13.7305 23.2617C13.7305 22.4609 13.0469 21.8164 12.3047 21.8164C11.4844 21.8164 10.8203 22.4609 10.8203 23.2617L10.8203 30.5273C10.8203 31.3672 11.1914 31.9141 12.168 31.9922L19.3164 32.5977C20.6055 32.6953 20.8789 32.793 22.0898 33.1055L30.8203 35.5664L37.7148 38.1055C38.3789 38.3594 39.3359 38.1055 39.6094 37.2461C39.8438 36.4844 39.4922 35.6445 38.75 35.3711L31.8359 32.8711C31.7188 32.8516 31.4648 32.7344 31.3672 32.6953L25.293 30.4883C26.0742 28.9258 27.1875 26.4453 27.4609 23.75C27.5 23.4375 27.6953 23.2617 28.0078 23.2617L38.418 23.2617C39.2578 23.2617 39.8828 22.6172 39.8828 21.8164C39.8828 21.0156 39.2578 20.3711 38.418 20.3711L26.9727 20.3711C25.0586 20.3711 24.8828 20.3516 22.7734 19.7852L11.9336 16.7969C11.1523 16.5625 10.3711 17.0117 10.1367 17.793ZM22.3047 15.6055C22.3047 17.3438 23.6914 18.7695 25.4297 18.7695C27.1484 18.7695 28.5156 17.3438 28.5156 15.6055C28.5156 13.9258 27.1484 12.5195 25.4297 12.5195C23.6914 12.5195 22.3047 13.9258 22.3047 15.6055Z" fill="black" fill-opacity="0.85"/>
 </g>
</svg>
