<?xml version="1.0" encoding="UTF-8"?>
<!--Generator: Apple Native CoreSVG 326-->
<!DOCTYPE svg
PUBLIC "-//W3C//DTD SVG 1.1//EN"
       "http://www.w3.org/Graphics/SVG/1.1/DTD/svg11.dtd">
<svg version="1.1" xmlns="http://www.w3.org/2000/svg" xmlns:xlink="http://www.w3.org/1999/xlink" viewBox="0 0 51.25 50.918">
 <g>
  <rect height="50.918" opacity="0" width="51.25" x="0" y="0"/>
  <path d="M25.4297 50.8789C39.4727 50.8789 50.8789 39.4922 50.8789 25.4492C50.8789 11.4062 39.4727 0 25.4297 0C11.3867 0 0 11.4062 0 25.4492C0 39.4922 11.3867 50.8789 25.4297 50.8789ZM25.4297 47.2461C13.3789 47.2461 3.63281 37.5 3.63281 25.4492C3.63281 13.3984 13.3789 3.65234 25.4297 3.65234C37.4805 3.65234 47.2266 13.3984 47.2266 25.4492C47.2266 37.5 37.4805 47.2461 25.4297 47.2461Z" fill="black" fill-opacity="0.85"/>
  <path d="M25.4102 16.2695C27.1094 16.2695 28.457 14.9023 28.457 13.2227C28.457 11.5625 27.1094 10.1758 25.4102 10.1758C23.7305 10.1758 22.3828 11.5625 22.3828 13.2227C22.3828 14.9023 23.7305 16.2695 25.4102 16.2695ZM37.0117 18.9258C36.4258 18.3789 35.5664 18.3594 34.9805 18.9258L31.6016 22.3047L28.2031 18.8867C27.5391 18.2031 26.4648 17.793 25.4102 17.793L16.2891 17.793C15.6445 17.793 15.1367 18.1641 14.9414 18.7891L12.7539 25.332C12.4023 26.3477 12.9883 27.0508 13.6719 27.207C14.3555 27.4023 15.1172 27.1289 15.4102 26.2109L17.3047 20.625L20.332 20.625C20.5859 20.625 20.8008 20.8789 20.7031 21.1719L18.8672 26.7383C18.2422 28.5352 18.7891 30.2539 20.8203 31.1523L26.7578 33.7695L28.7109 40.5469C28.9648 41.4258 29.7656 41.6797 30.4492 41.5039C31.1328 41.3281 31.7188 40.6836 31.4648 39.7656L29.2969 32.3242C29.1797 31.9141 28.9844 31.6211 28.5352 31.4258L23.8867 29.375L26.3477 21.9531C26.4453 21.6602 26.8164 21.5234 27.0508 21.7773L30.5664 25.332C31.1328 25.8984 32.0508 25.8984 32.6172 25.332L37.0117 20.957C37.5781 20.3711 37.5586 19.5117 37.0117 18.9258ZM19.3359 31.7188L18.6328 35.8203L13.3008 38.7891C12.4023 39.2773 12.4219 40.1562 12.793 40.7812C13.1641 41.3477 13.8672 41.7578 14.7266 41.2891L20.6445 37.9883C21.0547 37.7539 21.1914 37.5 21.3281 37.0703L22.5781 33.2812L20.332 32.2852C19.8828 32.0898 19.5508 31.8945 19.3359 31.7188ZM38.1641 16.6016C38.5938 16.3672 38.8672 15.9375 38.8672 15.4688L38.8672 10.9766C38.8672 10.2344 38.3398 9.64844 37.5977 9.64844L34.3555 9.64844C33.6328 9.64844 33.0664 10.2344 33.0664 10.9766L33.0664 15.4688C33.0664 15.9375 33.3789 16.3672 33.8086 16.6016L35.9961 17.6953ZM35.2148 20.0195L36.7773 20.0195L36.7773 16.1133L35.2148 16.1133Z" fill="black" fill-opacity="0.85"/>
 </g>
</svg>
