<?xml version="1.0" encoding="UTF-8"?>
<!--Generator: Apple Native CoreSVG 326-->
<!DOCTYPE svg
PUBLIC "-//W3C//DTD SVG 1.1//EN"
       "http://www.w3.org/Graphics/SVG/1.1/DTD/svg11.dtd">
<svg version="1.1" xmlns="http://www.w3.org/2000/svg" xmlns:xlink="http://www.w3.org/1999/xlink" viewBox="0 0 51.25 50.918">
 <g>
  <rect height="50.918" opacity="0" width="51.25" x="0" y="0"/>
  <path d="M50.8789 25.4492C50.8789 39.4531 39.4531 50.8789 25.4297 50.8789C11.4258 50.8789 0 39.4531 0 25.4492C0 11.4258 11.4258 0 25.4297 0C39.4531 0 50.8789 11.4258 50.8789 25.4492ZM9.70703 13.2422L7.89062 18.6523C7.57812 19.5703 8.24219 20.5078 9.17969 20.5664L12.168 20.8008C12.3828 20.8008 12.5391 20.9766 12.5391 21.2109L12.5391 26.6602C12.5391 27.7539 12.8906 28.8281 13.5547 29.6875L17.0703 34.2188L15.2734 40.1758C15.0391 40.957 15.4883 41.7969 16.25 41.9922C16.9922 42.1875 17.8125 41.875 18.0664 41.0156L20.0977 34.3164C20.1367 34.1797 20.1562 34.0625 20.1562 33.9258L25.5859 40.8203C26.0938 41.4453 27.0312 41.582 27.6367 41.0742C28.3008 40.5469 28.418 39.6484 27.8906 39.0039L18.1641 26.7383L18.6133 22.3438C18.6523 22.0508 18.9258 21.8945 19.1992 22.0312L22.5977 23.7109C22.832 23.8281 23.2031 23.9258 23.5742 23.9258L28.75 23.9258C29.1211 23.9258 29.4336 23.8281 29.6875 23.5938L32.1484 21.4648C32.4219 21.2695 32.7148 21.3672 32.8125 21.6602L34.2188 25.5078L28.3789 27.0898C27.793 27.2461 27.3438 27.7539 27.2852 28.3789L26.6406 35.0977C26.5234 36.0547 27.3633 36.6797 28.0859 36.6797C28.8477 36.6797 29.4727 36.1523 29.5312 35.3516L30.0977 29.7852L34.1797 29.1602L32.2266 33.0859C32.0117 33.5156 31.8945 33.9648 32.0703 34.4336L34.7461 41.1328C35.0977 41.9531 35.9961 42.2266 36.6992 41.9531C37.4414 41.6602 37.793 40.8008 37.5 40.0586L35.1172 34.0625L38.3984 29.375C39.2383 28.1836 39.5312 26.6797 39.2969 25.293L38.7695 22.4414C38.7109 22.0898 39.0234 21.8555 39.3555 21.9531L41.0547 22.5C42.207 22.8906 43.1055 22.207 42.9688 21.0352L42.3828 14.9023C42.3047 14.0234 41.543 13.4766 40.7812 13.5547C40 13.6328 39.3359 14.3164 39.4336 15.1953L39.8438 19.0234L35.8008 17.6758C34.1406 17.1289 32.3633 17.4414 31.0156 18.5938L28.2031 21.0156L23.7109 21.0156L19.3945 18.8477C18.7305 18.4961 18.0664 18.3203 17.3438 18.2617L11.2695 17.8125L12.4805 14.1797C12.7148 13.3789 12.3438 12.5781 11.5625 12.2852C10.8008 12.0508 9.98047 12.4805 9.70703 13.2422ZM14.4922 13.9453C14.4922 15.5664 15.8008 16.8945 17.4219 16.8945C19.043 16.8945 20.3711 15.5664 20.3711 13.9453C20.3711 12.3242 19.043 11.0156 17.4219 11.0156C15.8008 11.0156 14.4922 12.3242 14.4922 13.9453ZM31.6211 13.3789C31.6211 14.9805 32.9297 16.3086 34.5508 16.3086C36.1719 16.3086 37.5 14.9805 37.5 13.3789C37.5 11.7383 36.1719 10.4297 34.5508 10.4297C32.9297 10.4297 31.6211 11.7383 31.6211 13.3789Z" fill="black" fill-opacity="0.85"/>
 </g>
</svg>
