<?xml version="1.0" encoding="UTF-8"?>
<!--Generator: Apple Native CoreSVG 326-->
<!DOCTYPE svg
PUBLIC "-//W3C//DTD SVG 1.1//EN"
       "http://www.w3.org/Graphics/SVG/1.1/DTD/svg11.dtd">
<svg version="1.1" xmlns="http://www.w3.org/2000/svg" xmlns:xlink="http://www.w3.org/1999/xlink" viewBox="0 0 51.25 50.918">
 <g>
  <rect height="50.918" opacity="0" width="51.25" x="0" y="0"/>
  <path d="M25.4297 50.8789C39.4727 50.8789 50.8789 39.4922 50.8789 25.4492C50.8789 11.4062 39.4727 0 25.4297 0C11.3867 0 0 11.4062 0 25.4492C0 39.4922 11.3867 50.8789 25.4297 50.8789ZM25.4297 47.2461C13.3789 47.2461 3.63281 37.5 3.63281 25.4492C3.63281 13.3984 13.3789 3.65234 25.4297 3.65234C37.4805 3.65234 47.2266 13.3984 47.2266 25.4492C47.2266 37.5 37.4805 47.2461 25.4297 47.2461Z" fill="black" fill-opacity="0.85"/>
  <path d="M29.4531 14.2969C31.0156 14.2969 32.2852 13.0078 32.2852 11.4258C32.2852 9.86328 31.0156 8.57422 29.4531 8.57422C27.8711 8.57422 26.582 9.86328 26.582 11.4258C26.582 13.0078 27.8711 14.2969 29.4531 14.2969ZM16.3477 23.8086C17.1484 24.1602 17.8711 23.8086 18.1836 23.2031L20.5664 18.418L23.4375 18.418C23.7305 18.418 23.9062 18.7109 23.7891 18.9844L21.2695 23.9648C20.332 25.8203 21.5039 28.1445 23.9062 27.9883L30.6641 27.5586L28.1641 33.125C27.8711 33.8086 28.1641 34.668 28.8672 34.9219C29.6289 35.2344 30.332 35 30.6641 34.2188L34.1602 26.6211C34.5117 25.7812 33.9844 24.6484 32.9297 24.6484L26.7969 24.6484L29.5117 19.2188C29.6289 18.9844 29.9023 18.9258 30.0977 19.1016L33.3203 22.168C33.9648 22.793 35.0977 22.6953 35.5273 21.8164L38.2617 16.2695C38.6328 15.5859 38.418 14.7266 37.6758 14.3945C36.9922 14.0625 36.1719 14.3555 35.8203 15.0391L33.8867 18.8477L32.3242 17.2852C31.25 16.2109 30.1367 15.6445 28.418 15.6445L19.7266 15.6445C19.1992 15.6445 18.7305 15.9766 18.4961 16.4258L15.7227 21.9727C15.3711 22.6758 15.625 23.457 16.3477 23.8086ZM12.5977 37.2266C13.0273 38.125 13.9648 38.1641 14.4141 37.9492L21.3281 34.9414C21.6016 34.8242 21.8555 34.5898 22.0117 34.2969L24.5898 29.1016L24.0039 29.1211C22.8711 29.1992 21.9727 28.8867 21.2695 28.3398L19.668 32.6367L13.3008 35.3711C12.5977 35.6836 12.2461 36.5039 12.5977 37.2266ZM35.4102 38.5156C36.9922 38.5156 38.2617 37.2656 38.2617 35.6641C38.2617 34.082 36.9922 32.793 35.4102 32.793C33.8281 32.793 32.5781 34.082 32.5781 35.6641C32.5781 37.2656 33.8281 38.5156 35.4102 38.5156ZM15.0781 9.33594C15.0781 9.6875 15.3711 9.98047 15.7227 9.98047C16.9141 9.98047 17.6758 10.1953 18.4375 11.0352C18.6914 11.3477 18.9648 11.4648 19.2188 11.4648C19.4922 11.4648 19.7461 11.3477 20.0195 11.0352C20.8008 10.1953 21.5625 9.98047 22.7344 9.98047C23.1055 9.98047 23.3789 9.6875 23.3789 9.33594C23.3789 9.00391 23.0859 8.71094 22.7148 8.71094C21.2695 8.71094 20.332 9.0625 19.2188 10.0781C18.1445 9.0625 17.1875 8.71094 15.7422 8.71094C15.3711 8.71094 15.0781 9.00391 15.0781 9.33594ZM14.4922 41.875C14.9023 41.875 15.2148 41.5625 15.2148 41.1523C15.2148 40.7617 14.9023 40.4492 14.4922 40.4492C14.1016 40.4492 13.7695 40.7617 13.7695 41.1523C13.7695 41.5625 14.1016 41.875 14.4922 41.875ZM16.9141 41.875C17.3242 41.875 17.6367 41.5625 17.6367 41.1523C17.6367 40.7617 17.3242 40.4492 16.9141 40.4492C16.5039 40.4492 16.2109 40.7617 16.2109 41.1523C16.2109 41.5625 16.5039 41.875 16.9141 41.875ZM19.3359 41.875C19.7461 41.875 20.0586 41.5625 20.0586 41.1523C20.0586 40.7617 19.7461 40.4492 19.3359 40.4492C18.9258 40.4492 18.6133 40.7617 18.6133 41.1523C18.6133 41.5625 18.9258 41.875 19.3359 41.875ZM21.7578 41.875C22.168 41.875 22.4805 41.5625 22.4805 41.1523C22.4805 40.7617 22.168 40.4492 21.7578 40.4492C21.3672 40.4492 21.0352 40.7617 21.0352 41.1523C21.0352 41.5625 21.3672 41.875 21.7578 41.875ZM24.1797 41.875C24.5898 41.875 24.9023 41.5625 24.9023 41.1523C24.9023 40.7617 24.5898 40.4492 24.1797 40.4492C23.7891 40.4492 23.4766 40.7617 23.4766 41.1523C23.4766 41.5625 23.7891 41.875 24.1797 41.875ZM26.6016 41.875C27.0117 41.875 27.3242 41.5625 27.3242 41.1523C27.3242 40.7617 27.0117 40.4492 26.6016 40.4492C26.2109 40.4492 25.8984 40.7617 25.8984 41.1523C25.8984 41.5625 26.2109 41.875 26.6016 41.875ZM29.043 41.875C29.4336 41.875 29.7461 41.5625 29.7461 41.1523C29.7461 40.7617 29.4336 40.4492 29.043 40.4492C28.6328 40.4492 28.3203 40.7617 28.3203 41.1523C28.3203 41.5625 28.6328 41.875 29.043 41.875ZM31.4648 41.875C31.8555 41.875 32.1875 41.5625 32.1875 41.1523C32.1875 40.7617 31.8555 40.4492 31.4648 40.4492C31.0547 40.4492 30.7422 40.7617 30.7422 41.1523C30.7422 41.5625 31.0547 41.875 31.4648 41.875ZM33.8672 41.875C34.2969 41.875 34.5898 41.5625 34.5898 41.1523C34.5898 40.7617 34.2969 40.4492 33.8672 40.4492C33.4766 40.4492 33.1641 40.7617 33.1641 41.1523C33.1641 41.5625 33.4766 41.875 33.8672 41.875ZM36.3086 41.875C36.6992 41.875 37.0117 41.5625 37.0117 41.1523C37.0117 40.7617 36.6992 40.4492 36.3086 40.4492C35.8984 40.4492 35.5859 40.7617 35.5859 41.1523C35.5859 41.5625 35.8984 41.875 36.3086 41.875Z" fill="black" fill-opacity="0.85"/>
 </g>
</svg>
