<?xml version="1.0" encoding="UTF-8"?>
<!--Generator: Apple Native CoreSVG 326-->
<!DOCTYPE svg
PUBLIC "-//W3C//DTD SVG 1.1//EN"
       "http://www.w3.org/Graphics/SVG/1.1/DTD/svg11.dtd">
<svg version="1.1" xmlns="http://www.w3.org/2000/svg" xmlns:xlink="http://www.w3.org/1999/xlink" viewBox="0 0 51.25 50.918">
 <g>
  <rect height="50.918" opacity="0" width="51.25" x="0" y="0"/>
  <path d="M25.4297 50.8789C39.4727 50.8789 50.8789 39.4922 50.8789 25.4492C50.8789 11.4062 39.4727 0 25.4297 0C11.3867 0 0 11.4062 0 25.4492C0 39.4922 11.3867 50.8789 25.4297 50.8789ZM25.4297 47.2461C13.3789 47.2461 3.63281 37.5 3.63281 25.4492C3.63281 13.3984 13.3789 3.65234 25.4297 3.65234C37.4805 3.65234 47.2266 13.3984 47.2266 25.4492C47.2266 37.5 37.4805 47.2461 25.4297 47.2461Z" fill="black" fill-opacity="0.85"/>
  <path d="M35.9961 17.5C37.6562 17.5 38.9258 16.1719 38.9258 14.5508C38.9258 12.9102 37.6562 11.6211 35.9961 11.6211C34.375 11.6211 33.0664 12.9102 33.0664 14.5508C33.0664 16.1719 34.375 17.5 35.9961 17.5ZM28.0859 39.0625C33.6328 39.0625 37.793 34.9414 37.793 29.375C37.793 26.875 36.7578 25.3516 34.5312 24.5703L32.4414 23.8477C32.1484 23.75 32.0703 23.5742 32.2852 23.3203L33.6133 21.3672C34.707 19.7852 34.2969 18.457 32.6758 17.3047L27.6562 13.8281C27.0703 13.4375 26.4062 13.4375 25.8398 13.7891L21.1914 16.9141C19.4141 18.125 21.0742 20.3711 22.7539 19.2773L26.6016 16.6406L29.2383 18.4961C29.668 18.7891 29.7266 19.082 29.4531 19.4922L27.2852 22.6172C26.0547 24.3945 27.0508 26.3281 28.9453 26.7773L34.8242 28.2422C35.4297 28.3789 35.7227 28.8086 35.7227 29.4531C35.7227 33.7695 32.4609 37.0312 28.0859 37.0312C23.7109 37.0312 20.4297 33.7695 20.4297 29.375C20.4297 27.9102 20.8008 26.6211 21.5039 25.5078C22.3438 24.1602 20.5859 23.1641 19.7266 24.4922C18.9062 25.8594 18.3789 27.5 18.3789 29.375C18.3789 34.9414 22.5391 39.0625 28.0859 39.0625ZM37.793 39.0625C38.6523 39.0625 39.3555 38.3984 39.3555 37.5391C39.3555 36.6797 38.6523 35.9766 37.793 35.9766C36.9141 35.9766 36.2305 36.6797 36.2305 37.5391C36.2305 38.3984 36.9141 39.0625 37.793 39.0625ZM9.21875 22.1875L15.2344 22.1875C15.7422 22.1875 16.1523 21.7773 16.1523 21.25C16.1523 20.7422 15.7422 20.3125 15.2344 20.3125L9.21875 20.3125C8.69141 20.3125 8.32031 20.7617 8.32031 21.25C8.32031 21.7578 8.69141 22.1875 9.21875 22.1875ZM8.04688 27.0898L15.2344 27.0898C15.7422 27.0898 16.1523 26.7188 16.1523 26.1719C16.1523 25.6641 15.7422 25.2539 15.2344 25.2539L8.04688 25.2539C7.55859 25.2539 7.14844 25.7031 7.14844 26.1719C7.14844 26.7188 7.55859 27.0898 8.04688 27.0898ZM11.7578 32.0312L15.2344 32.0312C15.7422 32.0312 16.1523 31.6406 16.1523 31.0938C16.1523 30.5664 15.7422 30.1758 15.2344 30.1758L11.7578 30.1758C11.25 30.1758 10.8789 30.5664 10.8789 31.0938C10.8789 31.6406 11.25 32.0312 11.7578 32.0312Z" fill="black" fill-opacity="0.85"/>
 </g>
</svg>
