<?xml version="1.0" encoding="UTF-8"?>
<!--Generator: Apple Native CoreSVG 326-->
<!DOCTYPE svg
PUBLIC "-//W3C//DTD SVG 1.1//EN"
       "http://www.w3.org/Graphics/SVG/1.1/DTD/svg11.dtd">
<svg version="1.1" xmlns="http://www.w3.org/2000/svg" xmlns:xlink="http://www.w3.org/1999/xlink" viewBox="0 0 51.25 50.918">
 <g>
  <rect height="50.918" opacity="0" width="51.25" x="0" y="0"/>
  <path d="M50.8789 25.4492C50.8789 39.4531 39.4531 50.8789 25.4297 50.8789C11.4258 50.8789 0 39.4531 0 25.4492C0 11.4258 11.4258 0 25.4297 0C39.4531 0 50.8789 11.4258 50.8789 25.4492ZM33.1055 9.70703L28.7891 18.3398C28.457 19.0039 27.9883 19.3945 27.2852 19.707L19.1406 23.125L15.8398 20.4883C15.5664 20.2539 15.2344 20.1758 14.9805 20.1953L14.9805 17.4609C16.6797 16.5625 17.8711 14.7266 17.8711 13.0664C17.8711 11.0156 16.2695 9.35547 14.2188 9.35547C12.168 9.35547 10.5664 11.0156 10.5664 13.0664C10.5664 14.7461 11.7773 16.582 13.4961 17.4609L13.4961 21.543C13.4961 22.0508 13.6523 22.4414 14.0039 22.7344L18.0273 25.918C18.5156 26.3281 19.0625 26.2695 19.668 26.0156L24.1406 24.1797C24.7656 23.9258 25.0977 24.2383 25.1562 24.668L27.3828 36.8555L21.2305 39.2969C20.5078 39.5898 20.1367 40.4297 20.4297 41.1914C20.7617 42.0117 21.6211 42.2461 22.3047 41.9727L29.5312 39.082C30.1562 38.8281 30.4688 38.2031 30.4297 37.5781L30.0391 31.9727C30.0195 31.3281 30.6836 30.957 31.1523 31.3086L35.4883 34.2188L35.4883 40.4492C35.4883 41.2305 36.1133 41.8945 36.9531 41.8945C37.7344 41.8945 38.3594 41.2305 38.3594 40.4492L38.3594 33.4375C38.3594 32.9297 38.125 32.5195 37.7344 32.207L32.1289 27.5977L31.0352 21.6016C30.918 20.9766 30.9961 20.3906 31.2891 19.8047L35.6836 11.0156C36.0547 10.293 35.7617 9.43359 35.0391 9.0625C34.3359 8.71094 33.457 9.00391 33.1055 9.70703ZM21.1523 15.8594C21.1523 17.5586 22.5586 18.9648 24.2969 18.9648C25.9961 18.9648 27.3828 17.5586 27.3828 15.8594C27.3828 14.1602 25.9961 12.7344 24.2969 12.7344C22.5586 12.7344 21.1523 14.1602 21.1523 15.8594ZM16.4062 13.0859C16.4062 14.3555 15.5273 15.7031 14.2188 16.1914C12.9102 15.7031 12.0508 14.3555 12.0508 13.0859C12.0508 11.8164 12.9883 10.8594 14.2188 10.8594C15.4688 10.8594 16.4062 11.8164 16.4062 13.0859Z" fill="black" fill-opacity="0.85"/>
 </g>
</svg>
