<?xml version="1.0" encoding="UTF-8"?>
<!--Generator: Apple Native CoreSVG 326-->
<!DOCTYPE svg
PUBLIC "-//W3C//DTD SVG 1.1//EN"
       "http://www.w3.org/Graphics/SVG/1.1/DTD/svg11.dtd">
<svg version="1.1" xmlns="http://www.w3.org/2000/svg" xmlns:xlink="http://www.w3.org/1999/xlink" viewBox="0 0 51.25 50.918">
 <g>
  <rect height="50.918" opacity="0" width="51.25" x="0" y="0"/>
  <path d="M50.8789 25.4688C50.8789 39.4922 39.4531 50.918 25.4297 50.918C11.4258 50.918 0 39.4922 0 25.4688C0 11.4648 11.4258 0.0390625 25.4297 0.0390625C39.4531 0.0390625 50.8789 11.4648 50.8789 25.4688ZM24.043 10.3711C23.3008 10.3711 22.7539 10.8008 22.5781 11.582L21.8164 14.7461C21.2891 14.9219 20.7812 15.1367 20.3125 15.3711L17.5391 13.6328C16.875 13.2227 16.2109 13.3008 15.6641 13.8477L13.7109 15.7617C13.1445 16.3086 13.1445 17.0117 13.5352 17.6758L15.2344 20.4492C15.0586 20.8789 14.8242 21.3867 14.6484 21.9336L11.5039 22.6953C10.7227 22.8711 10.3125 23.418 10.3125 24.1797L10.3125 26.875C10.3125 27.6562 10.7227 28.2031 11.5039 28.3789L14.668 29.1016C14.8242 29.6094 15.0195 30.1172 15.2539 30.5859L13.5742 33.3398C13.125 33.9648 13.2031 34.7266 13.75 35.2734L15.6641 37.168C16.2109 37.7344 16.9141 37.7539 17.5586 37.3438L20.332 35.6445C20.7812 35.8594 21.2891 36.0547 21.8164 36.25L22.5781 39.3945C22.7539 40.1758 23.3008 40.625 24.043 40.625L26.8164 40.625C27.5781 40.625 28.125 40.1758 28.3008 39.3945L29.043 36.25C29.5703 36.0547 30.0977 35.8594 30.5273 35.6445L33.3203 37.3438C33.9453 37.7539 34.668 37.7148 35.1953 37.168L37.1094 35.2734C37.6562 34.7266 37.7539 33.9648 37.2852 33.3398L35.6055 30.5859C35.8398 30.1172 36.0156 29.6094 36.1914 29.1016L39.3555 28.3789C40.1367 28.2031 40.5664 27.6562 40.5664 26.875L40.5664 24.1797C40.5664 23.418 40.1367 22.8711 39.3555 22.6953L36.2109 21.9336C36.0156 21.3867 35.8008 20.8789 35.625 20.4492L37.3242 17.6758C37.7344 17.0117 37.7148 16.3086 37.1484 15.7617L35.1953 13.8477C34.668 13.3398 34.0039 13.2227 33.3398 13.6328L30.5273 15.3711C30.0977 15.1758 29.5898 14.9414 29.043 14.7656L28.3008 11.582C28.125 10.8008 27.5781 10.3711 26.8164 10.3711ZM30.6055 25.4688C30.6055 28.3203 28.2812 30.625 25.4297 30.625C22.5781 30.625 20.2734 28.3203 20.2734 25.4688C20.2734 22.6172 22.5781 20.293 25.4297 20.293C28.2812 20.293 30.6055 22.6172 30.6055 25.4688Z" fill="black" fill-opacity="0.85"/>
 </g>
</svg>
