<?xml version="1.0" encoding="UTF-8"?>
<!--Generator: Apple Native CoreSVG 326-->
<!DOCTYPE svg
PUBLIC "-//W3C//DTD SVG 1.1//EN"
       "http://www.w3.org/Graphics/SVG/1.1/DTD/svg11.dtd">
<svg version="1.1" xmlns="http://www.w3.org/2000/svg" xmlns:xlink="http://www.w3.org/1999/xlink" viewBox="0 0 46.1914 46.3867">
 <g>
  <rect height="46.3867" opacity="0" width="46.1914" x="0" y="0"/>
  <path d="M42.9688 3.4375C40.5273 1.03516 37.1484 0.546875 32.6758 0.546875L13.0078 0.546875C8.69141 0.546875 5.29297 1.03516 2.87109 3.45703C0.449219 5.87891 0 9.23828 0 13.5742L0 33.2422C0 37.7148 0.429688 41.0742 2.85156 43.4961C5.29297 45.8984 8.67188 46.3867 13.1445 46.3867L32.6758 46.3867C37.1484 46.3867 40.5469 45.8984 42.9688 43.4961C45.3906 41.0742 45.8203 37.7148 45.8203 33.2422L45.8203 13.6914C45.8203 9.21875 45.3906 5.85938 42.9688 3.4375ZM42.3633 13.0078L42.3633 33.9258C42.3633 36.7578 41.9531 39.4141 40.4297 40.957C38.8867 42.5 36.1914 42.9102 33.3594 42.9102L12.4609 42.9102C9.62891 42.9102 6.93359 42.4805 5.39062 40.957C3.86719 39.4141 3.45703 36.7578 3.45703 33.9258L3.45703 13.125C3.45703 10.1953 3.86719 7.5 5.39062 5.97656C6.91406 4.41406 9.64844 4.02344 12.5781 4.02344L33.3594 4.02344C36.1914 4.02344 38.8867 4.45312 40.4297 5.97656C41.9727 7.51953 42.3633 10.1758 42.3633 13.0078Z" fill="black" fill-opacity="0.85"/>
  <path d="M12.2852 28.2617C12.2852 34.8633 16.543 38.6914 22.4219 38.6914C27.0117 38.6914 30.2344 36.7188 32.2266 32.0312C33.2617 29.7656 34.082 27.1875 34.9414 24.2773C35.2539 23.2031 35.6836 21.9727 35.6836 21.3867C35.6836 20.5859 35.0781 20.0586 34.2578 20.0586C33.418 20.0586 32.8711 20.5664 32.2852 21.7969L30.2344 26.2891C30.0195 26.8164 29.7461 26.9922 29.4922 26.9922C29.1406 26.9922 28.9062 26.7578 28.9062 26.2109L28.9062 10.8594C28.9062 10.0195 28.2031 9.31641 27.3438 9.31641C26.4844 9.31641 25.8008 10.0195 25.8008 10.8594L25.8008 21.7188C25.3711 21.582 24.9219 21.4258 24.4531 21.3281L24.4531 8.53516C24.4531 7.69531 23.7695 6.97266 22.9102 6.97266C22.0508 6.97266 21.3477 7.69531 21.3477 8.53516L21.3477 21.1523C20.8594 21.1914 20.3516 21.25 19.8828 21.3477L19.8828 9.92188C19.8828 9.0625 19.1602 8.37891 18.3008 8.37891C17.4609 8.37891 16.7383 9.0625 16.7383 9.92188L16.7383 22.3438C16.2305 22.5586 15.8203 22.8516 15.4102 23.1055L15.4102 14.5508C15.4102 13.6914 14.707 12.9883 13.8477 12.9883C12.9883 12.9883 12.2852 13.6914 12.2852 14.5508Z" fill="black" fill-opacity="0.85"/>
 </g>
</svg>
