<?xml version="1.0" encoding="UTF-8"?>
<!--Generator: Apple Native CoreSVG 326-->
<!DOCTYPE svg
PUBLIC "-//W3C//DTD SVG 1.1//EN"
       "http://www.w3.org/Graphics/SVG/1.1/DTD/svg11.dtd">
<svg version="1.1" xmlns="http://www.w3.org/2000/svg" xmlns:xlink="http://www.w3.org/1999/xlink" viewBox="0 0 51.25 50.918">
 <g>
  <rect height="50.918" opacity="0" width="51.25" x="0" y="0"/>
  <path d="M25.4297 50.8789C39.4727 50.8789 50.8789 39.4922 50.8789 25.4492C50.8789 11.4062 39.4727 0 25.4297 0C11.3867 0 0 11.4062 0 25.4492C0 39.4922 11.3867 50.8789 25.4297 50.8789ZM25.4297 47.2461C13.3789 47.2461 3.63281 37.5 3.63281 25.4492C3.63281 13.3984 13.3789 3.65234 25.4297 3.65234C37.4805 3.65234 47.2266 13.3984 47.2266 25.4492C47.2266 37.5 37.4805 47.2461 25.4297 47.2461Z" fill="black" fill-opacity="0.85"/>
  <path d="M39.5508 21.1133C39.5508 17.0312 37.0703 13.6328 33.6719 13.6328L31.0352 13.6328C33.6133 15.4102 34.707 18.1055 34.668 21.2695C34.6094 24.7656 33.2812 27.1289 32.1484 28.6328L34.1602 28.6328C37.2461 28.6328 39.5508 25.332 39.5508 21.1133ZM33.0078 21.2305C33.0664 16.2109 29.043 12.4219 22.6367 12.3633L20.7812 12.3438C19.0039 12.3242 17.6953 12.4609 16.9531 12.6562C15.8789 12.9297 14.8047 13.5547 14.8047 14.8633C14.8047 15.3711 14.9609 15.8008 15.1172 16.0742C15.2148 16.25 15.1953 16.3867 15.0391 16.4648C14.1992 16.7969 13.4766 17.6172 13.4766 18.6719C13.4766 19.3164 13.6523 19.8633 13.9844 20.2344C14.1406 20.4297 14.1211 20.6445 13.8672 20.7812C13.2227 21.1523 12.8125 21.8945 12.8125 22.8125C12.8125 23.4375 13.0078 24.1406 13.3789 24.4727C13.5938 24.6484 13.5547 24.7852 13.3008 24.9805C12.9102 25.3516 12.6367 25.9961 12.6367 26.7383C12.6367 28.0859 13.6523 29.1797 15 29.1797L19.8438 29.1797C21.0938 29.1797 21.8945 29.8047 21.8945 30.8203C21.8945 32.6562 19.6094 36.0352 19.6094 38.4375C19.6094 39.707 20.4492 40.4492 21.4844 40.4492C22.5 40.4492 22.9688 39.8047 23.4766 38.75C25.5273 34.7852 28.2617 31.5625 30.332 28.7695C32.0898 26.4648 32.9688 24.4727 33.0078 21.2305Z" fill="black" fill-opacity="0.85"/>
 </g>
</svg>
