<?xml version="1.0" encoding="UTF-8"?>
<!--Generator: Apple Native CoreSVG 326-->
<!DOCTYPE svg
PUBLIC "-//W3C//DTD SVG 1.1//EN"
       "http://www.w3.org/Graphics/SVG/1.1/DTD/svg11.dtd">
<svg version="1.1" xmlns="http://www.w3.org/2000/svg" xmlns:xlink="http://www.w3.org/1999/xlink" viewBox="0 0 45.4968 56.2695">
 <g>
  <rect height="56.2695" opacity="0" width="45.4968" x="0" y="0"/>
  <path d="M21.9379 54.0234C30.5707 54.0234 36.1957 49.1406 39.8871 40.2734L45.0629 27.5977C46.1957 24.8438 44.9652 22.5391 43.0511 21.5625C41.1371 20.6055 38.5394 21.0156 37.016 23.7109L34.4574 28.75C34.3988 28.8867 34.3402 28.9453 34.2426 28.9453C34.1058 28.9453 34.0082 28.8281 34.0472 28.6719L37.2308 8.75C37.7386 5.78125 36.2152 3.65234 33.5785 3.20312C30.766 2.75391 28.598 4.14062 28.0121 7.24609L27.0551 13.0469L27.309 13.0469L27.309 4.84375C27.309 1.99219 25.3754 0 22.641 0C19.7894 0 17.8754 2.05078 17.8754 4.98047L17.8754 9.57031L18.4027 9.47266L17.9926 6.34766C17.348 3.67188 15.1801 2.42188 12.7777 2.83203C10.0043 3.32031 8.55896 5.625 8.91052 8.39844L9.4574 12.8516L10.2386 12.6758C9.43787 9.90234 7.38709 8.96484 5.10193 9.375C2.25037 9.86328 0.863649 11.9336 1.29334 14.8633L4.47693 36.9141C6.0199 47.7539 11.6644 54.0234 21.9379 54.0234ZM21.8402 51.0156C13.0707 51.0156 8.75427 45.9375 7.38709 36.6016L4.00818 14.375C3.8324 13.2227 4.4574 12.3438 5.55115 12.168C6.56677 11.9922 7.42615 12.6953 7.68005 13.6914L11.2152 27.2852C11.4301 28.1445 12.0941 28.457 12.7972 28.3203C13.5199 28.2031 14.0277 27.5586 13.9496 26.8164L11.6644 7.92969C11.5277 6.73828 12.0941 5.82031 13.2465 5.625C14.3597 5.46875 15.2582 6.19141 15.3949 7.30469L17.8949 26.1133C17.9926 26.8555 18.6371 27.3242 19.4183 27.207C20.3363 27.0703 20.6683 26.4648 20.6683 25.7031L20.6683 4.84375C20.6683 3.67188 21.4886 2.85156 22.641 2.85156C23.7543 2.85156 24.5355 3.67188 24.5355 4.84375L24.5355 25.8594C24.5355 26.6211 25.1605 27.1875 25.9027 27.1875C26.6644 27.207 27.1722 26.7188 27.3285 25.9375L30.7074 7.71484C30.9418 6.40625 31.8597 5.80078 32.934 5.97656C34.0082 6.13281 34.6527 7.05078 34.4769 8.28125L31.0394 31.7773C30.7465 33.75 31.8597 34.4336 32.8558 34.4336C33.7152 34.4336 34.3207 34.0039 34.9261 32.8906L39.1254 24.9414C39.6918 23.7891 40.6879 23.4375 41.6058 23.8086C42.5824 24.1406 43.0121 25.1562 42.5238 26.3867L37.2308 39.3164C33.8715 47.3828 28.9105 51.0156 21.8402 51.0156Z" fill="black" fill-opacity="0.85"/>
 </g>
</svg>
