<?xml version="1.0" encoding="UTF-8"?>
<!--Generator: Apple Native CoreSVG 326-->
<!DOCTYPE svg
PUBLIC "-//W3C//DTD SVG 1.1//EN"
       "http://www.w3.org/Graphics/SVG/1.1/DTD/svg11.dtd">
<svg version="1.1" xmlns="http://www.w3.org/2000/svg" xmlns:xlink="http://www.w3.org/1999/xlink" viewBox="0 0 46.2891 45.918">
 <g>
  <rect height="45.918" opacity="0" width="46.2891" x="0" y="0"/>
  <path d="M45.918 7.53906L45.918 38.3984C45.918 43.3594 43.3594 45.918 38.3008 45.918L7.59766 45.918C2.55859 45.918 0 43.3984 0 38.3984L0 7.53906C0 2.53906 2.55859 0 7.59766 0L38.3008 0C43.3594 0 45.918 2.55859 45.918 7.53906ZM22.9688 15.3906C21.6992 13.1055 19.5312 11.4844 16.7578 11.4844C12.4023 11.4844 9.25781 14.7852 9.25781 19.2969C9.25781 26.2305 16.6992 32.5391 21.7773 35.7422C22.1875 36.0156 22.7148 36.3086 23.0078 36.3086C23.3203 36.3086 23.7695 36.0156 24.1602 35.7422C29.1406 32.4023 36.6797 26.2305 36.6797 19.2969C36.6797 14.7852 33.5156 11.4844 29.1797 11.4844C26.4258 11.4844 24.2383 13.1055 22.9688 15.3906Z" fill="black" fill-opacity="0.85"/>
 </g>
</svg>
