<?xml version="1.0" encoding="UTF-8"?>
<!--Generator: Apple Native CoreSVG 326-->
<!DOCTYPE svg
PUBLIC "-//W3C//DTD SVG 1.1//EN"
       "http://www.w3.org/Graphics/SVG/1.1/DTD/svg11.dtd">
<svg version="1.1" xmlns="http://www.w3.org/2000/svg" xmlns:xlink="http://www.w3.org/1999/xlink" viewBox="0 0 51.25 50.918">
 <g>
  <rect height="50.918" opacity="0" width="51.25" x="0" y="0"/>
  <path d="M50.8789 25.4492C50.8789 39.4531 39.4531 50.8789 25.4297 50.8789C11.4258 50.8789 0 39.4531 0 25.4492C0 11.4258 11.4258 0 25.4297 0C39.4531 0 50.8789 11.4258 50.8789 25.4492ZM11.7188 21.7969C11.7188 28.7305 19.1602 35.0391 24.2383 38.2422C24.6484 38.5156 25.1758 38.8086 25.4688 38.8086C25.7812 38.8086 26.2305 38.5156 26.6211 38.2422C27.9676 37.3392 29.5012 36.2292 31.0216 34.9474L13.1419 17.0677C12.2346 18.351 11.7188 19.9752 11.7188 21.7969ZM12.5586 12.5586C12.1484 12.9883 12.168 13.6719 12.5586 14.0625L36.8164 38.3203C37.207 38.7109 37.9102 38.7305 38.3203 38.3203C38.7305 37.8711 38.7305 37.2266 38.3203 36.8164L14.082 12.5586C13.6719 12.1484 13.0078 12.1484 12.5586 12.5586ZM25.4297 17.8906C24.1602 15.6055 21.9922 13.9844 19.2188 13.9844C18.8087 13.9844 18.409 14.0139 18.0256 14.0803L35.0061 31.0608C37.3871 28.3076 39.1406 25.1408 39.1406 21.7969C39.1406 17.2852 35.9766 13.9844 31.6406 13.9844C28.9062 13.9844 26.6992 15.6055 25.4297 17.8906Z" fill="black" fill-opacity="0.85"/>
 </g>
</svg>
