<?xml version="1.0" encoding="UTF-8"?>
<!--Generator: Apple Native CoreSVG 326-->
<!DOCTYPE svg
PUBLIC "-//W3C//DTD SVG 1.1//EN"
       "http://www.w3.org/Graphics/SVG/1.1/DTD/svg11.dtd">
<svg version="1.1" xmlns="http://www.w3.org/2000/svg" xmlns:xlink="http://www.w3.org/1999/xlink" viewBox="0 0 51.25 50.918">
 <g>
  <rect height="50.918" opacity="0" width="51.25" x="0" y="0"/>
  <path d="M25.4297 50.8789C39.4727 50.8789 50.8789 39.4922 50.8789 25.4492C50.8789 11.4062 39.4727 0 25.4297 0C11.3867 0 0 11.4062 0 25.4492C0 39.4922 11.3867 50.8789 25.4297 50.8789ZM25.4297 47.2461C13.3789 47.2461 3.63281 37.5 3.63281 25.4492C3.63281 13.3984 13.3789 3.65234 25.4297 3.65234C37.4805 3.65234 47.2266 13.3984 47.2266 25.4492C47.2266 37.5 37.4805 47.2461 25.4297 47.2461Z" fill="black" fill-opacity="0.85"/>
  <path d="M22.6758 27.4219C26.6016 27.4219 29.707 25.4883 30.1953 21.6016L32.207 21.6016C32.6367 21.6016 32.9883 21.2695 32.9883 20.8398C32.9883 20.4297 32.6367 20.0977 32.207 20.0977L30.2344 20.0977C30.0977 18.418 29.4141 16.8359 28.0078 15.8008L32.207 15.8008C32.6367 15.8008 32.9883 15.4492 32.9883 15.0391C32.9883 14.5898 32.6367 14.2773 32.207 14.2773L18.3789 14.2773C17.8125 14.2773 17.4609 14.668 17.4609 15.2734L17.4609 15.4297C17.4609 16.0547 17.8125 16.4258 18.3789 16.4258L22.5781 16.4258C25.1562 16.4258 27.1875 17.5195 27.5391 20.0977L18.2617 20.0977C17.832 20.0977 17.4805 20.4297 17.4805 20.8398C17.4805 21.2695 17.832 21.6016 18.2617 21.6016L27.5195 21.6016C27.1875 24.2773 25.1172 25.2148 22.4414 25.2148L18.9062 25.2148C18.0469 25.2148 17.5195 25.7422 17.5195 26.5039L17.5195 26.5625C17.5195 27.207 17.8125 27.5977 18.3008 28.0469L27.1289 36.2695C27.5195 36.6406 27.8125 36.9141 28.3789 36.9141C29.0625 36.9141 29.5312 36.3672 29.5312 35.7617C29.5312 35.332 29.3164 35.0391 29.0039 34.7266L21.1523 27.4219Z" fill="black" fill-opacity="0.85"/>
 </g>
</svg>
