<?xml version="1.0" encoding="UTF-8"?>
<!--Generator: Apple Native CoreSVG 326-->
<!DOCTYPE svg
PUBLIC "-//W3C//DTD SVG 1.1//EN"
       "http://www.w3.org/Graphics/SVG/1.1/DTD/svg11.dtd">
<svg version="1.1" xmlns="http://www.w3.org/2000/svg" xmlns:xlink="http://www.w3.org/1999/xlink" viewBox="0 0 59.5508 45.918">
 <g>
  <rect height="45.918" opacity="0" width="59.5508" x="0" y="0"/>
  <path d="M59.1797 7.53906L59.1797 38.3984C59.1797 43.3594 56.6211 45.918 51.5625 45.918L7.59766 45.918C2.55859 45.918 0 43.3984 0 38.3984L0 7.53906C0 2.53906 2.55859 0 7.59766 0L51.5625 0C56.6211 0 59.1797 2.55859 59.1797 7.53906ZM8.67188 35.1172C8.67188 36.4258 9.76562 37.5 11.0352 37.5C12.3633 37.5 13.418 36.4453 13.418 35.1172C13.418 33.8281 12.3633 32.7539 11.0352 32.7539C9.76562 32.7539 8.67188 33.8477 8.67188 35.1172ZM19.1602 33.7305C18.3594 33.7305 17.7539 34.3359 17.7539 35.1172C17.7539 35.918 18.3789 36.5625 19.1602 36.5625L36.1719 36.5625C36.9531 36.5625 37.5781 35.918 37.5781 35.1172C37.5781 34.3359 36.9727 33.7305 36.1719 33.7305ZM8.67188 26.7969C8.67188 28.125 9.74609 29.1797 11.0352 29.1797C12.3633 29.1797 13.418 28.125 13.418 26.7969C13.418 25.5078 12.3633 24.4531 11.0352 24.4531C9.74609 24.4531 8.67188 25.5273 8.67188 26.7969ZM19.1602 25.4102C18.3594 25.4102 17.7539 26.0156 17.7539 26.7969C17.7539 27.6172 18.3594 28.2422 19.1602 28.2422L49.3555 28.2422C50.1562 28.2422 50.7617 27.6172 50.7617 26.7969C50.7617 26.0156 50.1562 25.4102 49.3555 25.4102ZM8.67188 18.8086C8.67188 20.0977 9.76562 21.1719 11.0352 21.1719C12.3633 21.1719 13.418 20.1172 13.418 18.8086C13.418 17.4805 12.3633 16.4258 11.0352 16.4258C9.76562 16.4258 8.67188 17.5 8.67188 18.8086ZM19.1602 17.3828C18.3789 17.3828 17.7539 18.0273 17.7539 18.8086C17.7539 19.5898 18.3789 20.2148 19.1602 20.2148L36.1719 20.2148C36.9531 20.2148 37.5781 19.5898 37.5781 18.8086C37.5781 18.0273 36.9531 17.3828 36.1719 17.3828ZM8.67188 10.7812C8.67188 12.0508 9.76562 13.1641 11.0352 13.1641C12.3633 13.1641 13.418 12.0703 13.418 10.7812C13.418 9.45312 12.3633 8.39844 11.0352 8.39844C9.76562 8.39844 8.67188 9.47266 8.67188 10.7812ZM19.1602 9.33594C18.3789 9.33594 17.7539 9.98047 17.7539 10.7812C17.7539 11.5625 18.3594 12.168 19.1602 12.168L49.3555 12.168C50.1562 12.168 50.7617 11.5625 50.7617 10.7812C50.7617 9.98047 50.1367 9.33594 49.3555 9.33594Z" fill="black" fill-opacity="0.85"/>
 </g>
</svg>
