<?xml version="1.0" encoding="UTF-8"?>
<!--Generator: Apple Native CoreSVG 326-->
<!DOCTYPE svg
PUBLIC "-//W3C//DTD SVG 1.1//EN"
       "http://www.w3.org/Graphics/SVG/1.1/DTD/svg11.dtd">
<svg version="1.1" xmlns="http://www.w3.org/2000/svg" xmlns:xlink="http://www.w3.org/1999/xlink" viewBox="0 0 61.543 63.1836">
 <g>
  <rect height="63.1836" opacity="0" width="61.543" x="0" y="0"/>
  <path d="M46.5107 6.95313L14.6805 6.95313C14.8057 5.18354 15.9546 4.16016 17.832 4.16016L43.3398 4.16016C45.2172 4.16016 46.3835 5.18354 46.5107 6.95313Z" fill="black" fill-opacity="0.85"/>
  <path d="M51.5514 13.7887C50.8512 13.6817 50.1095 13.6328 49.3359 13.6328L11.8359 13.6328C11.0621 13.6328 10.3205 13.6813 9.62066 13.7875C9.88629 11.7108 11.3173 10.5469 13.6133 10.5469L47.5586 10.5469C49.8551 10.5469 51.2861 11.7112 51.5514 13.7887Z" fill="black" fill-opacity="0.85"/>
  <path d="M11.8359 58.9648L49.3359 58.9648C54.375 58.9648 56.9336 56.4062 56.9336 51.4258L56.9336 25.3906C56.9336 20.4102 54.375 17.8711 49.3359 17.8711L11.8359 17.8711C6.77734 17.8711 4.23828 20.3906 4.23828 25.3906L4.23828 51.4258C4.23828 56.4258 6.77734 58.9648 11.8359 58.9648ZM11.8945 55.5078C9.17969 55.5078 7.69531 54.0625 7.69531 51.25L7.69531 25.5664C7.69531 22.7734 9.17969 21.3281 11.8945 21.3281L49.2773 21.3281C51.9531 21.3281 53.4766 22.7734 53.4766 25.5664L53.4766 51.25C53.4766 54.0625 51.9531 55.5078 49.2773 55.5078ZM14.4727 31.0352L30.957 31.0352C31.7969 31.0352 32.4609 30.3516 32.4609 29.5312C32.4609 28.6914 31.7969 28.0273 30.957 28.0273L14.4727 28.0273C13.5938 28.0273 12.9688 28.6914 12.9688 29.5312C12.9688 30.3516 13.5938 31.0352 14.4727 31.0352ZM14.4727 37.4609L26.0547 37.4609C26.875 37.4609 27.5586 36.8164 27.5586 35.9961C27.5586 35.1367 26.875 34.4727 26.0547 34.4727L14.4727 34.4727C13.5938 34.4727 12.9688 35.1367 12.9688 35.9961C12.9688 36.8164 13.5938 37.4609 14.4727 37.4609ZM42.2461 38.457C45.5273 38.457 48.1836 35.8008 48.1836 32.5C48.1836 29.1797 45.5273 26.5234 42.2461 26.5234C38.9453 26.5234 36.2695 29.1797 36.2695 32.5C36.2695 35.8008 38.9453 38.457 42.2461 38.457Z" fill="black" fill-opacity="0.85"/>
 </g>
</svg>
