<?xml version="1.0" encoding="UTF-8"?>
<!--Generator: Apple Native CoreSVG 326-->
<!DOCTYPE svg
PUBLIC "-//W3C//DTD SVG 1.1//EN"
       "http://www.w3.org/Graphics/SVG/1.1/DTD/svg11.dtd">
<svg version="1.1" xmlns="http://www.w3.org/2000/svg" xmlns:xlink="http://www.w3.org/1999/xlink" viewBox="0 0 46.2891 45.918">
 <g>
  <rect height="45.918" opacity="0" width="46.2891" x="0" y="0"/>
  <path d="M7.59766 45.918L38.3008 45.918C43.3594 45.918 45.918 43.3594 45.918 38.3984L45.918 7.53906C45.918 2.55859 43.3594 0 38.3008 0L7.59766 0C2.55859 0 0 2.53906 0 7.53906L0 38.3984C0 43.3984 2.55859 45.918 7.59766 45.918ZM7.67578 42.4609C4.94141 42.4609 3.45703 41.0156 3.45703 38.2031L3.45703 7.71484C3.45703 4.92188 4.94141 3.45703 7.67578 3.45703L38.2422 3.45703C40.918 3.45703 42.4609 4.92188 42.4609 7.71484L42.4609 38.2031C42.4609 41.0156 40.918 42.4609 38.2422 42.4609Z" fill="black" fill-opacity="0.85"/>
  <path d="M8.59375 33.3984C9.375 33.3984 9.86328 32.8906 9.86328 32.1094L9.86328 24.8438L13.2031 24.8438L16.4844 32.5C16.7383 33.1055 17.1484 33.3984 17.7344 33.3984C18.5352 33.3984 19.0039 32.8906 19.0039 32.2656C19.0039 31.9531 18.9258 31.7188 18.7305 31.2891L15.6641 24.2969C17.6172 23.4961 19.0039 21.6016 19.0039 18.75C19.0039 15.0391 16.7383 12.7344 12.9492 12.7344L8.55469 12.7344C7.8125 12.7344 7.30469 13.2617 7.30469 14.043L7.30469 32.1094C7.30469 32.8906 7.79297 33.3984 8.59375 33.3984ZM9.86328 22.793L9.86328 14.8633L12.7148 14.8633C15.1172 14.8633 16.4648 16.4062 16.4648 18.7891C16.4648 21.1719 15.2148 22.793 12.7344 22.793ZM23.3008 33.4375C23.9844 33.4375 24.4531 32.9492 24.4531 32.2266L24.4531 16.6602L24.6094 16.6602L28.9258 31.8359C29.1211 32.5391 29.5312 33.125 30.3906 33.125C31.2305 33.125 31.6406 32.5977 31.8945 31.7773L36.1719 16.6602L36.3477 16.6602L36.3477 32.2266C36.3477 32.9492 36.8164 33.4375 37.5 33.4375C38.1836 33.4375 38.6328 32.9492 38.6328 32.2266L38.6328 14.2773C38.6328 13.1641 37.9492 12.4609 36.8164 12.4609C35.8594 12.4609 35.1953 13.0469 34.9219 14.0234L30.5469 29.7266L30.3125 29.7266L25.8594 14.0039C25.5859 13.0664 24.9219 12.4609 23.9844 12.4609C22.8516 12.4609 22.1289 13.1836 22.1289 14.2773L22.1289 32.2266C22.1289 32.9492 22.5977 33.4375 23.3008 33.4375Z" fill="black" fill-opacity="0.85"/>
 </g>
</svg>
