<?xml version="1.0" encoding="UTF-8"?>
<!--Generator: Apple Native CoreSVG 326-->
<!DOCTYPE svg
PUBLIC "-//W3C//DTD SVG 1.1//EN"
       "http://www.w3.org/Graphics/SVG/1.1/DTD/svg11.dtd">
<svg version="1.1" xmlns="http://www.w3.org/2000/svg" xmlns:xlink="http://www.w3.org/1999/xlink" viewBox="0 0 51.25 50.918">
 <g>
  <rect height="50.918" opacity="0" width="51.25" x="0" y="0"/>
  <path d="M25.4297 50.8789C39.4727 50.8789 50.8789 39.4922 50.8789 25.4492C50.8789 11.4062 39.4727 0 25.4297 0C11.3867 0 0 11.4062 0 25.4492C0 39.4922 11.3867 50.8789 25.4297 50.8789ZM25.4297 47.2461C13.3789 47.2461 3.63281 37.5 3.63281 25.4492C3.63281 13.3984 13.3789 3.65234 25.4297 3.65234C37.4805 3.65234 47.2266 13.3984 47.2266 25.4492C47.2266 37.5 37.4805 47.2461 25.4297 47.2461Z" fill="black" fill-opacity="0.85"/>
  <path d="M19.9219 15.7617C19.9219 18.2617 21.6211 20.3516 23.9062 20.9961L23.9062 34.8633C23.9062 38.2617 24.4531 41.0742 25.4102 41.0742C26.3672 41.0742 26.8945 38.3203 26.8945 34.8633L26.8945 20.9961C29.2188 20.3711 30.8984 18.2812 30.8984 15.7617C30.8984 12.7344 28.4375 10.2734 25.4102 10.2734C22.3828 10.2734 19.9219 12.7344 19.9219 15.7617ZM22.2266 14.3555C22.207 13.3789 23.0664 12.5586 24.0039 12.5586C24.9805 12.5586 25.7812 13.3789 25.7617 14.3555C25.7617 15.293 24.9805 16.1133 24.0039 16.1133C23.0664 16.1133 22.2461 15.293 22.2266 14.3555Z" fill="black" fill-opacity="0.85"/>
 </g>
</svg>
