<?xml version="1.0" encoding="UTF-8"?>
<!--Generator: Apple Native CoreSVG 326-->
<!DOCTYPE svg
PUBLIC "-//W3C//DTD SVG 1.1//EN"
       "http://www.w3.org/Graphics/SVG/1.1/DTD/svg11.dtd">
<svg version="1.1" xmlns="http://www.w3.org/2000/svg" xmlns:xlink="http://www.w3.org/1999/xlink" viewBox="0 0 35.5664 56.9336">
 <g>
  <rect height="56.9336" opacity="0" width="35.5664" x="0" y="0"/>
  <path d="M0 26.3867C0 36.0352 6.40625 42.8516 15.9766 43.5547L15.9766 50.0586L6.34766 50.0586C5.42969 50.0586 4.70703 50.7812 4.70703 51.6797C4.70703 52.5781 5.42969 53.3203 6.34766 53.3203L28.8672 53.3203C29.7656 53.3203 30.4883 52.5781 30.4883 51.6797C30.4883 50.7812 29.7656 50.0586 28.8672 50.0586L19.2383 50.0586L19.2383 43.5547C28.7891 42.8516 35.1953 36.0352 35.1953 26.3867L35.1953 21.3867C35.1953 20.4883 34.4727 19.7656 33.5742 19.7656C32.6562 19.7656 31.9336 20.4883 31.9336 21.3867L31.9336 26.2695C31.9336 34.7852 26.2891 40.5469 17.5977 40.5469C8.90625 40.5469 3.26172 34.7852 3.26172 26.2695L3.26172 21.3867C3.26172 20.4883 2.53906 19.7656 1.64062 19.7656C0.722656 19.7656 0 20.4883 0 21.3867ZM17.5977 34.7852C22.5586 34.7852 25.8398 31.0742 25.8398 25.8203L25.8398 8.96484C25.8398 3.73047 22.5586 0 17.5977 0C12.6562 0 9.35547 3.73047 9.35547 8.96484L9.35547 25.8203C9.35547 31.0742 12.6562 34.7852 17.5977 34.7852Z" fill="black" fill-opacity="0.85"/>
 </g>
</svg>
