<?xml version="1.0" encoding="UTF-8"?>
<!--Generator: Apple Native CoreSVG 326-->
<!DOCTYPE svg
PUBLIC "-//W3C//DTD SVG 1.1//EN"
       "http://www.w3.org/Graphics/SVG/1.1/DTD/svg11.dtd">
<svg version="1.1" xmlns="http://www.w3.org/2000/svg" xmlns:xlink="http://www.w3.org/1999/xlink" viewBox="0 0 60.4102 49.8382">
 <g>
  <rect height="49.8382" opacity="0" width="60.4102" x="0" y="0"/>
  <path d="M60.0391 29.9093C60.0391 14.1867 47.9492 1.29605 32.5977 0.00698344C31.7969-0.0711416 31.1719 0.514796 31.1719 1.33511L31.1719 9.32339C31.1719 9.98745 31.6602 10.5148 32.3438 10.5734C41.9727 11.7453 49.4531 19.9484 49.4531 29.9093C49.4531 34.4406 47.9102 38.6007 45.1758 42.0382C44.8047 42.507 44.8242 43.0929 45.2344 43.5031L51.0352 49.3039C51.6211 49.8703 52.4609 49.8703 52.9688 49.2453C57.3828 44.0109 60.0391 37.2531 60.0391 29.9093Z" fill="black" fill-opacity="0.85"/>
  <path d="M0 29.9093C0 37.2726 2.65625 44.05 7.08984 49.2843C7.57812 49.8703 8.39844 49.8703 8.98438 49.3039L14.7852 43.5031C15.1953 43.0929 15.2148 42.507 14.8438 42.0382C12.1094 38.6007 10.5664 34.4406 10.5664 29.9093C10.5664 19.9484 18.0664 11.7453 27.6758 10.5734C28.3789 10.5148 28.8477 9.98745 28.8477 9.32339L28.8477 1.33511C28.8477 0.514796 28.2422-0.0711416 27.4414 0.00698344C12.0703 1.29605 0 14.1867 0 29.9093Z" fill="black" fill-opacity="0.85"/>
  <path d="M22.0898 38.2882C22.8516 38.2882 23.2617 37.7609 23.2617 37.0773L23.2617 28.0539C23.2617 26.0421 24.2188 24.089 26.25 24.089C28.1055 24.089 28.8672 25.4953 28.8672 27.2921L28.8672 37.0773C28.8672 37.7804 29.3555 38.2882 30.0195 38.2882C30.7227 38.2882 31.2109 37.7804 31.2109 37.0773L31.2109 27.8195C31.2109 25.8859 32.1484 24.089 34.1602 24.089C36.0742 24.089 36.8164 25.5734 36.8164 27.4875L36.8164 37.0773C36.8164 37.7804 37.2852 38.2882 37.9883 38.2882C38.6914 38.2882 39.1602 37.7804 39.1602 37.0773L39.1602 26.9015C39.1602 24.1476 37.793 21.9406 34.8438 21.9406C32.6367 21.9406 31.1523 23.3078 30.7617 25.046L30.6445 25.046C30.2148 23.0734 28.9648 21.9406 26.8945 21.9406C24.9414 21.9406 23.7109 23.1906 23.2617 25.007L23.1641 25.007L23.1641 23.171C23.1641 22.4679 22.7344 21.9992 22.0312 21.9992C21.3477 21.9992 20.918 22.4679 20.918 23.171L20.918 37.0773C20.918 37.7609 21.3281 38.2882 22.0898 38.2882ZM23.0273 44.5578C23.4375 44.5578 23.6133 44.3625 23.7891 43.9718L35.2344 17.0187C35.3125 16.8625 35.3516 16.7062 35.3516 16.55C35.3516 16.1203 35.0391 15.8468 34.6094 15.8468C34.2188 15.8468 34.0039 16.1007 33.8477 16.4523L22.3828 43.4054C22.3242 43.5617 22.2852 43.6984 22.2852 43.8742C22.2852 44.2843 22.5977 44.5578 23.0273 44.5578Z" fill="black" fill-opacity="0.85"/>
 </g>
</svg>
