<?xml version="1.0" encoding="UTF-8"?>
<!--Generator: Apple Native CoreSVG 326-->
<!DOCTYPE svg
PUBLIC "-//W3C//DTD SVG 1.1//EN"
       "http://www.w3.org/Graphics/SVG/1.1/DTD/svg11.dtd">
<svg version="1.1" xmlns="http://www.w3.org/2000/svg" xmlns:xlink="http://www.w3.org/1999/xlink" viewBox="0 0 71.8945 54.9023">
 <g>
  <rect height="54.9023" opacity="0" width="71.8945" x="0" y="0"/>
  <path d="M71.5234 26.9727L71.5234 51.0547C71.5234 53.2422 70.1562 54.4922 67.832 54.4922L17.7734 54.4922C15.737 54.4922 14.538 53.4546 14.4609 51.6406L67.2266 51.6406C68.1445 51.6406 68.6719 51.1523 68.6719 50.1953L68.6719 23.9467C70.4704 24.0998 71.5234 25.2019 71.5234 26.9727Z" fill="black" fill-opacity="0.85"/>
  <path d="M65.293 18.8867L65.293 44.8438C65.293 47.0312 63.9258 48.2617 61.6016 48.2617L10.4297 48.2617C8.32031 48.2617 7.10938 47.1484 7.10938 45.2344L7.10938 45.1758L60.7422 45.1758C61.6602 45.1758 62.1875 44.6875 62.1875 43.75L62.1875 15.8465C64.1406 15.9126 65.293 17.0155 65.293 18.8867Z" fill="black" fill-opacity="0.85"/>
  <path d="M20.7227 2.59766L20.7227 5.60547L37.4609 5.60547L37.4609 2.59766C37.4609 0.957031 38.3789 0 40.0391 0L45.4883 0C47.168 0 48.0859 0.957031 48.0859 2.59766L48.0859 5.60547L50.5469 5.60547C55.5859 5.60547 58.1641 8.14453 58.1641 13.125L58.1641 33.6328C58.1641 39.2969 56.2891 41.1523 50.5664 41.1523L7.59766 41.1523C2.55859 41.1523 0 38.6133 0 33.6328L0 13.125C0 8.14453 2.55859 5.60547 7.59766 5.60547L10.0781 5.60547L10.0781 2.59766C10.0781 0.957031 11.0156 0 12.6758 0L18.125 0C19.7852 0 20.7227 0.957031 20.7227 2.59766ZM40.293 18.0859L40.293 21.8555L36.5039 21.8555C35.6641 21.8555 35.0195 22.5195 35.0195 23.3203C35.0195 24.1602 35.6836 24.8242 36.5039 24.8242L40.293 24.8242L40.293 28.5742C40.293 29.4336 40.9375 30.0781 41.7773 30.0781C42.5977 30.0781 43.2617 29.4336 43.2617 28.5742L43.2617 24.8242L47.0117 24.8242C47.8516 24.8242 48.5156 24.1602 48.5156 23.3203C48.5156 22.5195 47.8516 21.8555 47.0117 21.8555L43.2617 21.8555L43.2617 18.0859C43.2617 17.2266 42.5977 16.582 41.7773 16.582C40.9375 16.582 40.293 17.2266 40.293 18.0859ZM11.6016 21.8359C10.7617 21.8359 10.1172 22.5 10.1172 23.3203C10.1172 24.1406 10.7617 24.8047 11.6016 24.8047L21.1719 24.8047C21.9922 24.8047 22.6562 24.1406 22.6562 23.3203C22.6562 22.5 21.9922 21.8359 21.1719 21.8359Z" fill="black" fill-opacity="0.85"/>
 </g>
</svg>
