<?xml version="1.0" encoding="UTF-8"?>
<!--Generator: Apple Native CoreSVG 326-->
<!DOCTYPE svg
PUBLIC "-//W3C//DTD SVG 1.1//EN"
       "http://www.w3.org/Graphics/SVG/1.1/DTD/svg11.dtd">
<svg version="1.1" xmlns="http://www.w3.org/2000/svg" xmlns:xlink="http://www.w3.org/1999/xlink" viewBox="0 0 46.2891 45.918">
 <g>
  <rect height="45.918" opacity="0" width="46.2891" x="0" y="0"/>
  <path d="M45.918 7.53906L45.918 38.3984C45.918 43.3594 43.3594 45.918 38.3008 45.918L7.59766 45.918C2.55859 45.918 0 43.3984 0 38.3984L0 7.53906C0 2.53906 2.55859 0 7.59766 0L38.3008 0C43.3594 0 45.918 2.55859 45.918 7.53906ZM12.4219 21.1133C11.1523 21.1133 10.3125 21.8164 10.3125 23.0078C10.3125 24.1602 11.1914 24.8438 12.4219 24.8438L33.5352 24.8438C34.7656 24.8438 35.625 24.1602 35.625 23.0078C35.625 21.8164 34.8242 21.1133 33.5352 21.1133Z" fill="black" fill-opacity="0.85"/>
 </g>
</svg>
