<?xml version="1.0" encoding="UTF-8"?>
<!--Generator: Apple Native CoreSVG 326-->
<!DOCTYPE svg
PUBLIC "-//W3C//DTD SVG 1.1//EN"
       "http://www.w3.org/Graphics/SVG/1.1/DTD/svg11.dtd">
<svg version="1.1" xmlns="http://www.w3.org/2000/svg" xmlns:xlink="http://www.w3.org/1999/xlink" viewBox="0 0 49.043 60.7617">
 <g>
  <rect height="60.7617" opacity="0" width="49.043" x="0" y="0"/>
  <path d="M36.4453 10.4688L30.625 10.4688L30.625 10.332L36.543 2.57812C37.0312 1.95312 37.2266 1.58203 37.2266 1.15234C37.2266 0.429688 36.6602 0 35.8984 0L28.0859 0C27.4023 0 26.8945 0.449219 26.8945 1.13281C26.8945 1.85547 27.4023 2.30469 28.0859 2.30469L33.5938 2.30469L33.5938 2.42188L27.6172 10.1758C27.1484 10.7812 26.9727 11.1133 26.9727 11.6211C26.9727 12.2852 27.4805 12.7734 28.2422 12.7734L36.4453 12.7734C37.1289 12.7734 37.6172 12.3242 37.6172 11.6016C37.6172 10.918 37.1289 10.4688 36.4453 10.4688ZM47.9102 19.9609L43.6328 19.9609L43.6328 19.8438L48.0078 14.1406C48.457 13.5547 48.6523 13.2031 48.6523 12.7734C48.6523 12.0898 48.1055 11.6797 47.3828 11.6797L41.2891 11.6797C40.6445 11.6797 40.1562 12.1289 40.1562 12.7734C40.1562 13.457 40.6445 13.8867 41.2891 13.8867L45.1953 13.8867L45.1953 14.0039L40.8398 19.6875C40.4102 20.2539 40.2344 20.6055 40.2344 21.0742C40.2344 21.7188 40.7227 22.168 41.4453 22.168L47.9102 22.168C48.5742 22.168 49.043 21.7383 49.043 21.0547C49.043 20.4102 48.5742 19.9609 47.9102 19.9609ZM37.0312 28.3594L33.4375 28.3594L33.4375 28.2617L37.1094 23.418C37.5391 22.832 37.7344 22.5391 37.7344 22.1094C37.7344 21.4648 37.207 21.0547 36.5234 21.0547L31.2109 21.0547C30.5859 21.0547 30.1172 21.4844 30.1172 22.1094C30.1172 22.7734 30.5859 23.1641 31.2109 23.1641L34.4336 23.1641L34.4336 23.2812L30.7812 28.0859C30.3711 28.6523 30.1758 28.9648 30.1758 29.4141C30.1758 30.0391 30.6641 30.4688 31.3477 30.4688L37.0312 30.4688C37.6562 30.4688 38.0859 30.0391 38.0859 29.4141C38.0859 28.7891 37.6562 28.3594 37.0312 28.3594Z" fill="black" fill-opacity="0.85"/>
  <path d="M22.6953 56.5234C31.0938 56.5234 39.0039 52.0312 42.4219 44.3164C42.832 43.3398 42.7148 42.5781 42.2852 42.1289C41.8945 41.7188 41.1719 41.6211 40.3516 41.9531C38.418 42.6953 36.1133 43.1445 33.1836 43.1445C21.7773 43.1445 14.9414 36.543 14.9414 25.2148C14.9414 22.2852 15.4883 19.3164 16.3477 17.5391C16.7969 16.6406 16.7578 15.8398 16.3281 15.3711C15.8984 14.8633 15.0977 14.668 14.0039 15.1367C6.50391 18.418 1.30859 26.2891 1.30859 34.9609C1.30859 46.9727 10.332 56.5234 22.6953 56.5234ZM22.6953 53.2617C12.1875 53.2617 4.58984 45.0977 4.58984 35.0781C4.58984 28.6719 7.85156 23.2812 12.7344 19.668C12.1289 21.3477 11.7969 23.75 11.7969 26.0742C11.7969 38.5938 19.7656 46.3281 32.4219 46.3281C34.4922 46.3281 36.4258 46.0352 37.7539 45.6641C34.6484 50.1758 29.3164 53.2617 22.6953 53.2617Z" fill="black" fill-opacity="0.85"/>
 </g>
</svg>
