<?xml version="1.0" encoding="UTF-8"?>
<!--Generator: Apple Native CoreSVG 326-->
<!DOCTYPE svg
PUBLIC "-//W3C//DTD SVG 1.1//EN"
       "http://www.w3.org/Graphics/SVG/1.1/DTD/svg11.dtd">
<svg version="1.1" xmlns="http://www.w3.org/2000/svg" xmlns:xlink="http://www.w3.org/1999/xlink" viewBox="0 0 55.3223 55.0101">
 <g>
  <rect height="55.0101" opacity="0" width="55.3223" x="0" y="0"/>
  <path d="M8.78286 15.0362C6.40061 18.5989 5.01465 22.8843 5.01465 27.4953C5.01465 27.8592 5.02331 28.2211 5.06911 28.5733C7.68134 30.8246 10.5381 32.661 13.5517 34.0803C13.5636 29.8378 14.2315 25.6855 15.4881 21.7442L17.616 23.873C16.5982 27.5222 16.1057 31.3438 16.2045 35.2354C19.4487 36.5428 22.84 37.384 26.276 37.7751C25.7046 35.6982 25.3179 33.5622 25.1236 31.3838L28.2942 34.5558C28.4895 35.7255 28.7641 36.8737 29.1139 37.9969C29.9907 38.0393 30.869 38.048 31.747 38.0101L34.277 40.5411C32.8491 40.679 31.4158 40.7219 29.9848 40.6688C31.0208 43.5887 32.4204 46.367 34.1504 48.9494C36.2215 48.3078 38.1639 47.3745 39.9265 46.193L42.0512 48.3186C37.9299 51.2264 32.8994 52.925 27.4756 52.925C13.4326 52.925 2.0459 41.5383 2.0459 27.4953C2.0459 22.0676 3.74689 17.0339 6.6587 12.9112ZM18.3091 47.9861C21.1018 49.2577 24.2073 49.9562 27.4756 49.9562C28.8131 49.9562 30.1232 49.8396 31.389 49.5942C29.5732 46.753 28.1295 43.7052 27.0861 40.51C23.4391 40.2146 19.832 39.4266 16.3671 38.1639C16.4951 41.5552 17.1462 44.8386 18.3091 47.9861ZM14.8873 46.0962C14.1775 43.5059 13.7821 40.8542 13.7061 38.1789C13.6729 37.812 13.6446 37.4455 13.6395 37.0811C10.8144 35.8541 8.10691 34.2992 5.57478 32.4244C6.82844 38.0902 10.2349 42.9432 14.8873 46.0962ZM52.9248 27.4953C52.9248 32.943 51.2083 37.9909 48.272 42.1176L34.8602 28.7001C34.582 28.0656 34.3362 27.4113 34.1232 26.7395C33.7607 26.8027 33.3913 26.8372 33.0192 26.8583L30.4536 24.2916C30.483 24.2929 30.5125 24.2925 30.542 24.2922C31.485 24.2868 32.4213 24.2395 33.3464 24.142C32.6821 21.526 32.3156 18.7782 32.2607 15.9718C32.1916 12.4975 32.6885 9.11499 33.7538 5.91985L33.6963 5.90507C30.6405 10.6676 28.6639 16.0535 27.921 21.7579L25.5967 19.4327C26.4881 14.4178 28.2998 9.64113 30.9243 5.30604C30.3778 5.19306 29.8155 5.12773 29.2417 5.1039C26.0244 7.99698 23.3362 11.3763 21.2497 15.0838L19.3095 13.1428C20.9894 10.2439 23.0315 7.54867 25.3971 5.11982C21.5636 5.46219 18.0109 6.77697 14.9823 8.81374L12.8618 6.69241C16.9871 3.76015 22.0318 2.04606 27.4756 2.04606C41.5186 2.04606 52.9248 13.4523 52.9248 27.4953ZM45.2365 38.1636C45.6941 38.5167 46.1716 38.8449 46.669 39.1464C47.0794 38.5232 47.4371 37.8645 47.7388 37.1739C46.9194 37.5523 46.0852 37.8846 45.2365 38.1636ZM36.8109 26.335C38.1442 30.1065 40.1907 33.466 42.8843 36.1231C45.022 35.4686 47.1085 34.5966 49.117 33.5084C49.6715 31.6008 49.9561 29.5812 49.9561 27.4953C49.9561 25.3547 49.6574 23.2844 49.0804 21.3313C45.3899 23.81 41.2277 25.5134 36.8109 26.335ZM34.9365 15.9328C34.9931 18.635 35.3563 21.2721 36.0175 23.7668C40.4187 22.9772 44.555 21.2437 48.1648 18.6893C45.8922 13.3455 41.6092 9.06612 36.2634 6.79731C35.3062 9.70613 34.8522 12.7976 34.9365 15.9328Z" fill="black" fill-opacity="0.85"/>
  <path d="M49.3896 51.8117C50.0342 52.4562 51.1084 52.4367 51.7334 51.7922C52.3975 51.1281 52.3975 50.0929 51.7334 49.4289L5.56152 3.23747C4.91699 2.59294 3.8623 2.57341 3.19824 3.23747C2.55371 3.882 2.55371 4.95622 3.19824 5.60075Z" fill="black" fill-opacity="0.85"/>
 </g>
</svg>
