<?xml version="1.0" encoding="UTF-8"?>
<!--Generator: Apple Native CoreSVG 326-->
<!DOCTYPE svg
PUBLIC "-//W3C//DTD SVG 1.1//EN"
       "http://www.w3.org/Graphics/SVG/1.1/DTD/svg11.dtd">
<svg version="1.1" xmlns="http://www.w3.org/2000/svg" xmlns:xlink="http://www.w3.org/1999/xlink" viewBox="0 0 51.25 50.918">
 <g>
  <rect height="50.918" opacity="0" width="51.25" x="0" y="0"/>
  <path d="M25.4297 50.8789C39.4727 50.8789 50.8789 39.4922 50.8789 25.4492C50.8789 11.4062 39.4727 0 25.4297 0C11.3867 0 0 11.4062 0 25.4492C0 39.4922 11.3867 50.8789 25.4297 50.8789ZM25.4297 47.2461C13.3789 47.2461 3.63281 37.5 3.63281 25.4492C3.63281 13.3984 13.3789 3.65234 25.4297 3.65234C37.4805 3.65234 47.2266 13.3984 47.2266 25.4492C47.2266 37.5 37.4805 47.2461 25.4297 47.2461Z" fill="black" fill-opacity="0.85"/>
  <path d="M19.082 37.4805C19.9414 37.4805 20.4688 37.0508 20.6445 36.2109L21.8164 30.6445L26.7383 30.6445L25.6445 35.8203C25.4492 36.7188 26.0938 37.4805 26.9922 37.4805C27.8906 37.4805 28.4375 37.0508 28.6133 36.2109L29.7852 30.625L32.5391 30.625C33.3984 30.625 34.0039 29.9805 34.0039 29.1406C34.0039 28.3984 33.4961 27.8516 32.7539 27.8516L30.3711 27.8516L31.5234 22.5L34.3359 22.5C35.1953 22.5 35.8008 21.875 35.8008 21.0352C35.8008 20.2734 35.2734 19.7461 34.5312 19.7461L32.0898 19.7461L33.125 14.8047C33.3008 13.8867 32.6367 13.1445 31.7383 13.1445C30.8594 13.1445 30.332 13.5742 30.1562 14.3945L29.0234 19.7461L24.1016 19.7461L25.1367 14.8047C25.332 13.9062 24.707 13.1445 23.7695 13.1445C22.9102 13.1445 22.3633 13.5742 22.1875 14.3945L21.0742 19.7461L18.2617 19.7461C17.4023 19.7461 16.7969 20.3711 16.7969 21.2109C16.7969 21.9531 17.3047 22.5 18.0469 22.5L20.4688 22.5L19.375 27.8516L16.4648 27.8516C15.6055 27.8516 15 28.4961 15 29.3359C15 30.0781 15.5273 30.625 16.2695 30.625L18.7695 30.625L17.6953 35.8203C17.5195 36.7188 18.1836 37.4805 19.082 37.4805ZM22.2461 28.0859L23.4375 22.3047L28.6523 22.3047L27.4414 28.0859Z" fill="black" fill-opacity="0.85"/>
 </g>
</svg>
