<?xml version="1.0" encoding="UTF-8"?>
<!--Generator: Apple Native CoreSVG 326-->
<!DOCTYPE svg
PUBLIC "-//W3C//DTD SVG 1.1//EN"
       "http://www.w3.org/Graphics/SVG/1.1/DTD/svg11.dtd">
<svg version="1.1" xmlns="http://www.w3.org/2000/svg" xmlns:xlink="http://www.w3.org/1999/xlink" viewBox="0 0 59.5508 45.918">
 <g>
  <rect height="45.918" opacity="0" width="59.5508" x="0" y="0"/>
  <path d="M7.59766 45.918L51.5625 45.918C56.6211 45.918 59.1797 43.3594 59.1797 38.3984L59.1797 7.53906C59.1797 2.55859 56.6211 0 51.5625 0L7.59766 0C2.55859 0 0 2.53906 0 7.53906L0 38.3984C0 43.3984 2.55859 45.918 7.59766 45.918ZM7.67578 42.4609C4.94141 42.4609 3.45703 41.0156 3.45703 38.2031L3.45703 7.71484C3.45703 4.92188 4.94141 3.45703 7.67578 3.45703L51.5039 3.45703C54.1797 3.45703 55.7031 4.92188 55.7031 7.71484L55.7031 38.2031C55.7031 41.0156 54.1797 42.4609 51.5039 42.4609Z" fill="black" fill-opacity="0.85"/>
  <path d="M14.6484 33.3984C15.5859 33.3984 16.1523 32.793 16.1523 31.7578L16.1523 13.9844C16.1523 12.9297 15.5469 12.3242 14.5508 12.3242C13.8281 12.3242 13.3789 12.5195 12.5586 13.0859L8.26172 15.9375C7.83203 16.25 7.67578 16.5625 7.67578 16.9922C7.67578 17.5977 8.16406 18.125 8.75 18.125C9.02344 18.125 9.23828 18.0664 9.72656 17.7344L12.9883 15.6055L13.1836 15.6055L13.1836 31.7578C13.1836 32.7734 13.75 33.3984 14.6484 33.3984ZM21.7969 33.0859L33.3008 33.0859C34.0625 33.0859 34.5898 32.5391 34.5898 31.7969C34.5898 31.0352 34.043 30.5273 33.3008 30.5273L24.5898 30.5273L24.5898 30.4297L30.2539 24.2969C32.3438 22.0117 33.6328 20.293 33.6328 17.9492C33.6328 14.5508 30.9766 12.3242 26.9531 12.3242C23.8086 12.3242 20.9961 14.2188 20.3516 16.8359C20.2734 17.168 20.2539 17.4023 20.2539 17.6758C20.2539 18.4375 20.7227 18.9453 21.5234 18.9453C22.2266 18.9453 22.6172 18.5352 22.9297 17.9492C23.3789 16.3281 24.7852 14.8438 27.0703 14.8438C29.3359 14.8438 30.8594 16.1523 30.8594 18.1445C30.8594 19.7461 29.6484 21.1328 28.2422 22.6562L20.8984 30.625C20.5664 30.9766 20.3711 31.3281 20.3711 31.7969C20.3711 32.5977 20.9375 33.0859 21.7969 33.0859ZM43.75 33.418C48.2031 33.418 51.25 31.0156 51.25 27.4414C51.25 24.8242 49.2578 22.7148 46.5625 22.4414L46.5625 22.3828C48.8086 21.9922 50.5469 19.9414 50.5469 17.5977C50.5469 14.5117 47.7539 12.3047 43.8867 12.3047C40.4102 12.3047 37.6953 14.0039 37.168 16.6016C37.1094 16.9141 37.0703 17.1094 37.0703 17.4219C37.0703 18.1641 37.5977 18.6914 38.3984 18.6914C39.1016 18.6914 39.5117 18.3789 39.7266 17.6758C40.1758 15.8789 41.7383 14.7852 43.8477 14.7852C46.1719 14.7852 47.6758 16.0156 47.6758 17.9102C47.6758 19.8633 46.0352 21.3281 43.8086 21.3281L42.2656 21.3281C41.582 21.3281 41.0547 21.8164 41.0547 22.5195C41.0547 23.2422 41.543 23.75 42.2656 23.75L43.9453 23.75C46.5625 23.75 48.3789 25.2344 48.3789 27.3438C48.3789 29.4727 46.543 30.9375 43.7891 30.9375C41.5625 30.9375 39.8828 29.8438 39.3359 28.0273C39.082 27.3438 38.6719 27.0117 37.9883 27.0117C37.1484 27.0117 36.6602 27.5781 36.6602 28.3789C36.6602 28.6328 36.6797 28.7891 36.7188 29.0625C37.2656 31.6016 40.293 33.418 43.75 33.418Z" fill="black" fill-opacity="0.85"/>
 </g>
</svg>
