<?xml version="1.0" encoding="UTF-8"?>
<!--Generator: Apple Native CoreSVG 326-->
<!DOCTYPE svg
PUBLIC "-//W3C//DTD SVG 1.1//EN"
       "http://www.w3.org/Graphics/SVG/1.1/DTD/svg11.dtd">
<svg version="1.1" xmlns="http://www.w3.org/2000/svg" xmlns:xlink="http://www.w3.org/1999/xlink" viewBox="0 0 88.7002 62.168">
 <g>
  <rect height="62.168" opacity="0" width="88.7002" x="0" y="0"/>
  <path d="M82.6216 40.2734L86.4302 47.2852C87.3872 49.043 88.3247 50.8789 88.3247 52.8516C88.3247 56.3086 85.5122 59.043 82.0747 59.043C78.6177 59.043 75.8052 56.3086 75.8052 52.8516C75.8052 50.8789 76.7622 49.043 77.6997 47.2852L81.5279 40.293C81.6646 40.0391 81.8208 39.9219 82.0747 39.9219C82.2896 39.9219 82.5239 40.0391 82.6216 40.2734ZM7.50442 25.2539L18.0904 29.1016C18.7544 28.9258 19.4771 28.8477 20.2974 28.8477L25.1317 28.8477C24.1805 30.4512 23.5786 32.3653 23.5786 34.4727C23.5786 40.7031 28.5786 45.7227 34.7896 45.7227C41.0005 45.7227 46.02 40.7031 46.02 34.4727C46.02 34.4068 46.0194 34.3412 46.0127 34.2778L76.5474 26.3672C77.9927 25.9766 78.6568 26.2109 79.4185 26.875L82.9732 29.9609C84.7896 31.5625 82.4654 33.8477 80.688 32.3047L77.2896 29.4336L66.938 32.1094L50.0825 53.75C48.2857 56.0156 45.8638 56.9727 42.1138 56.9727L20.2974 56.9727C17.231 56.9727 15.2583 56.0742 13.8716 53.9258L1.29348 33.9453C-2.20261 28.4961 1.89895 23.2031 7.50442 25.2539ZM3.48098 31.6016L12.9732 46.7188L12.9732 36.1133C12.9732 33.9844 13.4614 32.3242 14.4185 31.1523L6.1177 28.1055C3.75442 27.2852 2.09426 29.3359 3.48098 31.6016Z" fill="black" fill-opacity="0.85"/>
  <path d="M34.7896 42.5977C39.2818 42.5977 42.9146 39.0039 42.9146 34.4727C42.9146 31.3281 41.1177 28.8086 38.6958 27.4805C37.7779 26.9727 37.3872 26.3086 37.3872 24.9609L37.3872 5.70312C37.3872 4.29688 36.2349 3.125 34.8091 3.125C33.3638 3.125 32.2114 4.29688 32.2114 5.70312L32.2114 24.9609C32.2114 26.2695 31.8013 26.9141 30.8443 27.4219C28.4419 28.7695 26.6841 31.3281 26.6841 34.4727C26.6841 39.0039 30.2974 42.5977 34.7896 42.5977ZM44.0279 8.14453L49.3989 8.14453C50.1802 8.14453 50.7271 7.55859 50.7271 6.85547C50.7271 6.17188 50.1802 5.58594 49.3989 5.58594L44.0279 5.58594C43.2466 5.58594 42.7193 6.17188 42.7193 6.85547C42.7193 7.55859 43.2466 8.14453 44.0279 8.14453ZM44.0279 14.4727L49.3989 14.4727C50.1802 14.4727 50.7271 13.8867 50.7271 13.2031C50.7271 12.5 50.1802 11.9141 49.3989 11.9141L44.0279 11.9141C43.2466 11.9141 42.7193 12.5 42.7193 13.2031C42.7193 13.8867 43.2466 14.4727 44.0279 14.4727ZM44.0279 20.8203L49.3989 20.8203C50.1802 20.8203 50.7271 20.2148 50.7271 19.5312C50.7271 18.8477 50.1802 18.2422 49.3989 18.2422L44.0279 18.2422C43.2466 18.2422 42.7193 18.8477 42.7193 19.5312C42.7193 20.2148 43.2466 20.8203 44.0279 20.8203Z" fill="black" fill-opacity="0.85"/>
 </g>
</svg>
