<?xml version="1.0" encoding="UTF-8"?>
<!--Generator: Apple Native CoreSVG 326-->
<!DOCTYPE svg
PUBLIC "-//W3C//DTD SVG 1.1//EN"
       "http://www.w3.org/Graphics/SVG/1.1/DTD/svg11.dtd">
<svg version="1.1" xmlns="http://www.w3.org/2000/svg" xmlns:xlink="http://www.w3.org/1999/xlink" viewBox="0 0 53.8132 46.1946">
 <g>
  <rect height="46.1946" opacity="0" width="53.8132" x="0" y="0"/>
  <path d="M50.2855 41.3688C50.2855 42.3258 49.5043 43.1071 48.5668 43.1071L11.654 43.1071L15.1274 39.65L48.5668 39.65C49.5043 39.65 50.2855 40.4313 50.2855 41.3688Z" fill="black" fill-opacity="0.85"/>
  <path d="M9.66051 40.7243L37.8246 12.5993L33.8207 8.57582L5.6566 36.7008L3.21519 42.0914C2.98082 42.6383 3.56676 43.2633 4.11363 43.0289ZM39.9144 10.568L42.2777 8.22426C43.5082 7.01332 43.5668 5.74379 42.473 4.66957L41.7699 3.96645C40.7152 2.91176 39.4261 3.00942 38.2347 4.18129L35.8519 6.52504Z" fill="black" fill-opacity="0.85"/>
 </g>
</svg>
