<?xml version="1.0" encoding="UTF-8"?>
<!--Generator: Apple Native CoreSVG 326-->
<!DOCTYPE svg
PUBLIC "-//W3C//DTD SVG 1.1//EN"
       "http://www.w3.org/Graphics/SVG/1.1/DTD/svg11.dtd">
<svg version="1.1" xmlns="http://www.w3.org/2000/svg" xmlns:xlink="http://www.w3.org/1999/xlink" viewBox="0 0 75.6836 65.9083">
 <g>
  <rect height="65.9083" opacity="0" width="75.6836" x="0" y="0"/>
  <path d="M32.8329 39.3185C31.9546 40.0385 31.1609 40.8073 30.4673 41.6137C27.9409 40.2009 24.916 39.3506 21.7188 39.3506C13.2422 39.3506 5.95703 45.3272 5.95703 51.8897C5.95703 52.5928 6.28906 52.8663 7.05078 52.8663L25.8276 52.8663C25.9123 54.0636 26.2607 55.1506 26.8987 56.0694L7.51953 56.0694C4.33594 56.0694 2.73438 54.7413 2.73438 52.0655C2.73438 43.9405 10.9766 36.167 21.7188 36.167C25.9248 36.167 29.7492 37.3631 32.8329 39.3185ZM17.5892 18.0312C16.4065 19.269 15.6641 21.027 15.6641 22.9639C15.6641 26.8702 18.418 29.9561 21.7383 29.9561C23.7461 29.9561 25.5422 28.8408 26.6503 27.089L28.9624 29.4002C27.264 31.7129 24.6647 33.1788 21.7383 33.1788C16.6016 33.1788 12.4414 28.6475 12.4414 22.9639C12.4414 20.156 13.5484 17.5901 15.3206 15.7635ZM29.595 17.598L26.112 14.115C27.5406 14.9284 28.7433 16.1323 29.595 17.598Z" fill="black" fill-opacity="0.85"/>
  <path d="M41.098 41.5314C35.443 44.1554 32.3828 48.7568 32.3828 51.8506C32.3828 52.5538 32.7344 52.8077 33.6914 52.8077L52.3784 52.8077L55.6414 56.0694L34.6484 56.0694C30.7617 56.0694 28.9258 54.8584 28.9258 52.2413C28.9258 47.9457 32.4612 42.4273 38.6924 39.1267ZM72.5781 52.2413C72.5781 54.5799 71.1122 55.7957 68.022 56.025L64.8047 52.8077L67.8125 52.8077C68.7695 52.8077 69.1211 52.5538 69.1211 51.8506C69.1211 47.4026 62.7955 39.8383 51.5165 39.5194L48.3092 36.3122C49.0993 36.2419 49.9109 36.2061 50.7422 36.2061C64.2773 36.2061 72.5781 45.6592 72.5781 52.2413ZM61.4648 21.2061C61.4648 27.6709 56.6992 32.8858 50.7812 32.8858C44.8633 32.8858 40.0781 27.6905 40.0781 21.2452C40.0781 14.9366 44.8828 9.81938 50.7812 9.81938C56.6992 9.81938 61.4648 14.8584 61.4648 21.2061ZM43.5352 21.2452C43.5352 25.9522 46.8164 29.6241 50.7812 29.6241C54.7461 29.6241 58.0078 25.9131 58.0078 21.2061C58.0078 16.6163 54.7656 13.0811 50.7812 13.0811C46.7969 13.0811 43.5352 16.6748 43.5352 21.2452Z" fill="black" fill-opacity="0.85"/>
  <path d="M66.1328 62.6905C66.7773 63.3545 67.8516 63.3545 68.4961 62.6905C69.1406 62.0264 69.1602 61.0108 68.4961 60.3467L15.6641 7.51469C15 6.87016 13.9648 6.85063 13.3008 7.51469C12.6562 8.15922 12.6562 9.25297 13.3008 9.87797Z" fill="black" fill-opacity="0.85"/>
 </g>
</svg>
