<?xml version="1.0" encoding="UTF-8"?>
<!--Generator: Apple Native CoreSVG 326-->
<!DOCTYPE svg
PUBLIC "-//W3C//DTD SVG 1.1//EN"
       "http://www.w3.org/Graphics/SVG/1.1/DTD/svg11.dtd">
<svg version="1.1" xmlns="http://www.w3.org/2000/svg" xmlns:xlink="http://www.w3.org/1999/xlink" viewBox="0 0 87.9883 40.8789">
 <g>
  <rect height="40.8789" opacity="0" width="87.9883" x="0" y="0"/>
  <path d="M18.4766 20.3711C23.7109 20.3711 27.9492 15.7617 27.9492 10.0781C27.9492 4.47266 23.7109 0 18.4766 0C13.2617 0 9.02344 4.55078 9.02344 10.0977C9.02344 15.8008 13.2617 20.3711 18.4766 20.3711ZM5.03906 40.7617L31.8555 40.7617C35.2148 40.7617 36.9141 39.5898 36.9141 37.207C36.9141 31.4453 30.2539 23.1445 18.457 23.1445C6.66016 23.1445 0 31.4453 0 37.207C0 39.5898 1.69922 40.7617 5.03906 40.7617ZM69.1797 20.4688C74.4141 20.4688 78.6523 15.8594 78.6523 10.1758C78.6523 4.57031 74.4141 0.0976562 69.1797 0.0976562C63.9648 0.0976562 59.7266 4.64844 59.7266 10.1953C59.7266 15.8984 63.9648 20.4688 69.1797 20.4688ZM55.7422 40.8594L82.5586 40.8594C85.8984 40.8594 87.6172 39.6875 87.6172 37.3047C87.6172 31.543 80.957 23.2617 69.1602 23.2617C57.3633 23.2617 50.7031 31.543 50.7031 37.3047C50.7031 39.6875 52.4023 40.8594 55.7422 40.8594Z" fill="black" fill-opacity="0.85"/>
  <path d="M35.8984 20.4688C36.9727 20.4688 37.8711 19.5703 37.8711 18.4961C37.8711 17.4023 36.9727 16.5234 35.8984 16.5234C34.8047 16.5234 33.9062 17.4023 33.9062 18.4961C33.9062 19.5703 34.8047 20.4688 35.8984 20.4688ZM43.8281 20.4688C44.9023 20.4688 45.8008 19.5703 45.8008 18.4961C45.8008 17.4023 44.9023 16.5234 43.8281 16.5234C42.7344 16.5234 41.8555 17.4023 41.8555 18.4961C41.8555 19.5703 42.7344 20.4688 43.8281 20.4688ZM51.7383 20.4688C52.832 20.4688 53.7305 19.5703 53.7305 18.4961C53.7305 17.4023 52.832 16.5234 51.7383 16.5234C50.6641 16.5234 49.7656 17.4023 49.7656 18.4961C49.7656 19.5703 50.6641 20.4688 51.7383 20.4688Z" fill="black" fill-opacity="0.85"/>
 </g>
</svg>
