<?xml version="1.0" encoding="UTF-8"?>
<!--Generator: Apple Native CoreSVG 326-->
<!DOCTYPE svg
PUBLIC "-//W3C//DTD SVG 1.1//EN"
       "http://www.w3.org/Graphics/SVG/1.1/DTD/svg11.dtd">
<svg version="1.1" xmlns="http://www.w3.org/2000/svg" xmlns:xlink="http://www.w3.org/1999/xlink" viewBox="0 0 60.961 50.918">
 <g>
  <rect height="50.918" opacity="0" width="60.961" x="0" y="0"/>
  <path d="M30.295 50.8789C44.3379 50.8789 55.7246 39.4922 55.7246 25.4492C55.7246 11.4062 44.3379 0 30.295 0C16.252 0 4.86526 11.4062 4.86526 25.4492L8.49808 25.4492C8.49808 13.3984 18.2442 3.65234 30.295 3.65234C42.3457 3.65234 52.0918 13.3984 52.0918 25.4492C52.0918 37.5 42.3457 47.2461 30.295 47.2461C22.834 47.2461 16.1739 43.457 12.3653 37.7539C11.7207 36.875 10.7051 36.6016 9.80667 37.1484C8.94729 37.6562 8.69339 38.8477 9.39651 39.8047C13.9473 46.5039 21.6426 50.8789 30.295 50.8789ZM1.60354 20.7227C0.00198146 20.7227-0.447237 21.8164 0.470731 23.0859L6.01761 30.9766C6.75979 32.0508 7.83401 32.0312 8.55667 30.9766L14.1035 23.0664C14.9825 21.8164 14.5528 20.7227 12.9707 20.7227Z" fill="black" fill-opacity="0.85"/>
  <path d="M25.2364 36.8555C26.0371 36.8555 26.545 36.3477 26.545 35.5469L26.545 28.5547L31.2129 28.5547C35.5293 28.5547 38.5371 25.7031 38.5371 21.3867C38.5371 17.0312 35.4903 14.2773 31.252 14.2773L25.2559 14.2773C24.4356 14.2773 23.9278 14.7852 23.9278 15.625L23.9278 35.5469C23.9278 36.3477 24.4356 36.8555 25.2364 36.8555ZM26.545 26.3672L26.545 16.4648L30.6075 16.4648C33.7325 16.4648 35.8614 18.0859 35.8614 21.3867C35.8614 24.6484 33.8496 26.3672 30.5879 26.3672ZM21.4864 21.25C21.4864 21.6992 21.8379 22.0312 22.2871 22.0312L39.7871 22.0312C40.2364 22.0312 40.5684 21.6797 40.5684 21.25C40.5684 20.8203 40.2364 20.4883 39.7871 20.4883L22.2871 20.4883C21.8379 20.4883 21.4864 20.8203 21.4864 21.25Z" fill="black" fill-opacity="0.85"/>
 </g>
</svg>
