<?xml version="1.0" encoding="UTF-8"?>
<!--Generator: Apple Native CoreSVG 326-->
<!DOCTYPE svg
PUBLIC "-//W3C//DTD SVG 1.1//EN"
       "http://www.w3.org/Graphics/SVG/1.1/DTD/svg11.dtd">
<svg version="1.1" xmlns="http://www.w3.org/2000/svg" xmlns:xlink="http://www.w3.org/1999/xlink" viewBox="0 0 51.25 50.918">
 <g>
  <rect height="50.918" opacity="0" width="51.25" x="0" y="0"/>
  <path d="M50.8789 25.4688C50.8789 39.4922 39.4531 50.918 25.4297 50.918C11.4258 50.918 0 39.4922 0 25.4688C0 11.4648 11.4258 0.0390625 25.4297 0.0390625C39.4531 0.0390625 50.8789 11.4648 50.8789 25.4688ZM18.1836 34.4531C17.3242 34.4531 16.6211 35.1758 16.6211 36.0156C16.6211 36.7969 17.3242 37.5781 18.1836 37.5781L32.7148 37.5781C33.5938 37.5781 34.2969 36.7969 34.2969 36.0156C34.2969 35.1758 33.5938 34.4531 32.7148 34.4531ZM23.9062 13.125L23.9062 18.8672L18.1641 18.8672C17.3242 18.8672 16.6211 19.5703 16.6211 20.4102C16.6211 21.2695 17.3242 21.9922 18.1641 21.9922L23.9062 21.9922L23.9062 27.7148C23.9062 28.5352 24.6289 29.2773 25.4688 29.2578C26.3281 29.2578 27.0508 28.5547 27.0508 27.7148L27.0508 21.9922L32.7344 21.9922C33.5938 21.9922 34.2969 21.2695 34.2969 20.4102C34.2969 19.5703 33.5938 18.8672 32.7344 18.8672L27.0508 18.8672L27.0508 13.125C27.0508 12.2656 26.3086 11.5625 25.4688 11.5625C24.6289 11.582 23.9062 12.2852 23.9062 13.125Z" fill="black" fill-opacity="0.85"/>
 </g>
</svg>
