<?xml version="1.0" encoding="UTF-8"?>
<!--Generator: Apple Native CoreSVG 326-->
<!DOCTYPE svg
PUBLIC "-//W3C//DTD SVG 1.1//EN"
       "http://www.w3.org/Graphics/SVG/1.1/DTD/svg11.dtd">
<svg version="1.1" xmlns="http://www.w3.org/2000/svg" xmlns:xlink="http://www.w3.org/1999/xlink" viewBox="0 0 58.5938 58.0273">
 <g>
  <rect height="58.0273" opacity="0" width="58.5938" x="0" y="0"/>
  <path d="M43.2617 10.6836L43.2617 11.2891L22.5781 11.2891C15.8008 11.2891 11.8555 15.1953 11.8555 21.9336L11.8555 43.6914L10.3516 43.6914C5.29297 43.6914 2.73438 41.1523 2.73438 36.1523L2.73438 10.6836C2.73438 5.70312 5.29297 3.16406 10.3516 3.16406L35.6641 3.16406C40.6836 3.16406 43.2617 5.72266 43.2617 10.6836Z" fill="black" fill-opacity="0.85"/>
  <path d="M55.4883 21.9336L55.4883 47.3828C55.4883 52.3633 52.9102 54.9219 47.8711 54.9219L22.5781 54.9219C17.5195 54.9219 14.9609 52.3828 14.9609 47.3828L14.9609 21.9336C14.9609 16.9336 17.5195 14.3945 22.5781 14.3945L47.8711 14.3945C52.9102 14.3945 55.4883 16.9531 55.4883 21.9336ZM33.3789 24.5117L33.3789 32.793L25.0977 32.793C23.9844 32.793 23.2031 33.5547 23.2031 34.668C23.2031 35.7422 24.0039 36.5039 25.0977 36.5039L33.3789 36.5039L33.3789 44.7852C33.3789 45.8789 34.1211 46.6797 35.1953 46.6797C36.3086 46.6797 37.0898 45.8984 37.0898 44.7852L37.0898 36.5039L45.3711 36.5039C46.4648 36.5039 47.2656 35.7422 47.2656 34.668C47.2656 33.5547 46.4844 32.793 45.3711 32.793L37.0898 32.793L37.0898 24.5117C37.0898 23.3984 36.3086 22.6172 35.1953 22.6172C34.1211 22.6172 33.3789 23.418 33.3789 24.5117Z" fill="black" fill-opacity="0.85"/>
 </g>
</svg>
