<?xml version="1.0" encoding="UTF-8"?>
<!--Generator: Apple Native CoreSVG 326-->
<!DOCTYPE svg
PUBLIC "-//W3C//DTD SVG 1.1//EN"
       "http://www.w3.org/Graphics/SVG/1.1/DTD/svg11.dtd">
<svg version="1.1" xmlns="http://www.w3.org/2000/svg" xmlns:xlink="http://www.w3.org/1999/xlink" viewBox="0 0 59.5508 45.918">
 <g>
  <rect height="45.918" opacity="0" width="59.5508" x="0" y="0"/>
  <path d="M7.59766 45.918L51.5625 45.918C56.6211 45.918 59.1797 43.3594 59.1797 38.3984L59.1797 7.53906C59.1797 2.55859 56.6211 0 51.5625 0L7.59766 0C2.55859 0 0 2.53906 0 7.53906L0 38.3984C0 43.3984 2.55859 45.918 7.59766 45.918ZM7.67578 42.4609C4.94141 42.4609 3.45703 41.0156 3.45703 38.2031L3.45703 7.71484C3.45703 4.92188 4.94141 3.45703 7.67578 3.45703L51.5039 3.45703C54.1797 3.45703 55.7031 4.92188 55.7031 7.71484L55.7031 38.2031C55.7031 41.0156 54.1797 42.4609 51.5039 42.4609Z" fill="black" fill-opacity="0.85"/>
  <path d="M18.0664 22.9492C18.0664 23.9844 18.8281 24.707 19.9023 24.707L27.793 24.707L27.793 32.6172C27.793 33.6914 28.5352 34.4531 29.5703 34.4531C30.6445 34.4531 31.4062 33.7109 31.4062 32.6172L31.4062 24.707L39.3164 24.707C40.3711 24.707 41.1328 23.9844 41.1328 22.9492C41.1328 21.8555 40.3906 21.1133 39.3164 21.1133L31.4062 21.1133L31.4062 13.2227C31.4062 12.1289 30.6445 11.3672 29.5703 11.3672C28.5352 11.3672 27.793 12.1289 27.793 13.2227L27.793 21.1133L19.9023 21.1133C18.8086 21.1133 18.0664 21.8555 18.0664 22.9492Z" fill="black" fill-opacity="0.85"/>
 </g>
</svg>
