<?xml version="1.0" encoding="UTF-8"?>
<!--Generator: Apple Native CoreSVG 326-->
<!DOCTYPE svg
PUBLIC "-//W3C//DTD SVG 1.1//EN"
       "http://www.w3.org/Graphics/SVG/1.1/DTD/svg11.dtd">
<svg version="1.1" xmlns="http://www.w3.org/2000/svg" xmlns:xlink="http://www.w3.org/1999/xlink" viewBox="0 0 46.2891 45.918">
 <g>
  <rect height="45.918" opacity="0" width="46.2891" x="0" y="0"/>
  <path d="M7.59766 45.918L38.3008 45.918C43.3594 45.918 45.918 43.3594 45.918 38.3984L45.918 7.53906C45.918 2.55859 43.3594 0 38.3008 0L7.59766 0C2.55859 0 0 2.53906 0 7.53906L0 38.3984C0 43.3984 2.55859 45.918 7.59766 45.918ZM7.67578 42.4609C4.94141 42.4609 3.45703 41.0156 3.45703 38.2031L3.45703 7.71484C3.45703 4.92188 4.94141 3.45703 7.67578 3.45703L38.2422 3.45703C40.918 3.45703 42.4609 4.92188 42.4609 7.71484L42.4609 38.2031C42.4609 41.0156 40.918 42.4609 38.2422 42.4609Z" fill="black" fill-opacity="0.85"/>
  <path d="M22.9492 36.0547C30.2344 36.0547 36.0742 30.2148 36.0742 22.9492C36.0742 15.6641 30.2344 9.82422 22.9492 9.82422C15.6836 9.82422 9.84375 15.6641 9.84375 22.9492C9.84375 30.2148 15.6836 36.0547 22.9492 36.0547ZM16.7578 25.7617C15.1953 25.7617 13.9258 24.4922 13.9258 22.9492C13.9258 21.3867 15.1953 20.1172 16.7578 20.1172C18.3203 20.1172 19.5898 21.3867 19.5898 22.9492C19.5898 24.4922 18.3203 25.7617 16.7578 25.7617ZM29.1602 25.7617C27.5977 25.7617 26.3281 24.4922 26.3281 22.9492C26.3281 21.3867 27.5977 20.1172 29.1602 20.1172C30.7227 20.1172 31.9922 21.3867 31.9922 22.9492C31.9922 24.4922 30.7227 25.7617 29.1602 25.7617ZM22.9492 32.6562C21.5039 32.6562 20.4297 31.6016 20.4297 30.1562L20.4297 29.0039C20.4297 28.5742 20.6445 28.3594 21.0938 28.3594L24.8242 28.3594C25.2539 28.3594 25.4688 28.5742 25.4688 29.0039L25.4688 30.1562C25.4688 31.6016 24.375 32.6562 22.9492 32.6562Z" fill="black" fill-opacity="0.85"/>
 </g>
</svg>
