<?xml version="1.0" encoding="UTF-8"?>
<!--Generator: Apple Native CoreSVG 326-->
<!DOCTYPE svg
PUBLIC "-//W3C//DTD SVG 1.1//EN"
       "http://www.w3.org/Graphics/SVG/1.1/DTD/svg11.dtd">
<svg version="1.1" xmlns="http://www.w3.org/2000/svg" xmlns:xlink="http://www.w3.org/1999/xlink" viewBox="0 0 49.668 52.2852">
 <g>
  <rect height="52.2852" opacity="0" width="49.668" x="0" y="0"/>
  <path d="M24.6484 4.80469C25.9766 4.80469 27.0508 3.73047 27.0508 2.40234C27.0508 1.05469 25.9766 0 24.6484 0C23.3203 0 22.2461 1.05469 22.2461 2.40234C22.2461 3.73047 23.3203 4.80469 24.6484 4.80469ZM24.6484 16.5234C25.9766 16.5234 27.0508 15.4492 27.0508 14.1211C27.0508 12.793 25.9766 11.7188 24.6484 11.7188C23.3203 11.7188 22.2461 12.793 22.2461 14.1211C22.2461 15.4492 23.3203 16.5234 24.6484 16.5234ZM24.6484 28.2617C25.9766 28.2617 27.0508 27.1875 27.0508 25.8594C27.0508 24.5117 25.9766 23.457 24.6484 23.457C23.3203 23.457 22.2461 24.5117 22.2461 25.8594C22.2461 27.1875 23.3203 28.2617 24.6484 28.2617ZM7.46094 14.9609C8.78906 14.9609 9.86328 13.8867 9.86328 12.5586C9.86328 11.2109 8.78906 10.1562 7.46094 10.1562C6.13281 10.1562 5.05859 11.2109 5.05859 12.5586C5.05859 13.8867 6.13281 14.9609 7.46094 14.9609ZM2.40234 26.5039C3.73047 26.5039 4.80469 25.4297 4.80469 24.1016C4.80469 22.7734 3.73047 21.6992 2.40234 21.6992C1.05469 21.6992 0 22.7734 0 24.1016C0 25.4297 1.05469 26.5039 2.40234 26.5039ZM3.92578 38.3984C5.27344 38.3984 6.32812 37.3242 6.32812 35.9961C6.32812 34.668 5.27344 33.5938 3.92578 33.5938C2.59766 33.5938 1.52344 34.668 1.52344 35.9961C1.52344 37.3242 2.59766 38.3984 3.92578 38.3984ZM12.0508 48.2422C13.3984 48.2422 14.4531 47.168 14.4531 45.8398C14.4531 44.5117 13.3984 43.4375 12.0508 43.4375C10.7227 43.4375 9.66797 44.5117 9.66797 45.8398C9.66797 47.168 10.7227 48.2422 12.0508 48.2422ZM24.6484 52.1875C25.9766 52.1875 27.0508 51.1328 27.0508 49.8047C27.0508 48.457 25.9766 47.4023 24.6484 47.4023C23.3203 47.4023 22.2461 48.457 22.2461 49.8047C22.2461 51.1328 23.3203 52.1875 24.6484 52.1875ZM37.2461 48.2422C38.5742 48.2422 39.6289 47.168 39.6289 45.8398C39.6289 44.5117 38.5742 43.4375 37.2461 43.4375C35.8984 43.4375 34.8438 44.5117 34.8438 45.8398C34.8438 47.168 35.8984 48.2422 37.2461 48.2422ZM45.3711 38.3984C46.6992 38.3984 47.7734 37.3242 47.7734 35.9961C47.7734 34.668 46.6992 33.5938 45.3711 33.5938C44.0234 33.5938 42.9688 34.668 42.9688 35.9961C42.9688 37.3242 44.0234 38.3984 45.3711 38.3984ZM46.8945 26.5039C48.2422 26.5039 49.2969 25.4297 49.2969 24.1016C49.2969 22.7734 48.2422 21.6992 46.8945 21.6992C45.5664 21.6992 44.4922 22.7734 44.4922 24.1016C44.4922 25.4297 45.5664 26.5039 46.8945 26.5039ZM41.8359 14.9609C43.1641 14.9609 44.2383 13.8867 44.2383 12.5586C44.2383 11.2109 43.1641 10.1562 41.8359 10.1562C40.5078 10.1562 39.4336 11.2109 39.4336 12.5586C39.4336 13.8867 40.5078 14.9609 41.8359 14.9609Z" fill="black" fill-opacity="0.85"/>
 </g>
</svg>
