<?xml version="1.0" encoding="UTF-8"?>
<!--Generator: Apple Native CoreSVG 326-->
<!DOCTYPE svg
PUBLIC "-//W3C//DTD SVG 1.1//EN"
       "http://www.w3.org/Graphics/SVG/1.1/DTD/svg11.dtd">
<svg version="1.1" xmlns="http://www.w3.org/2000/svg" xmlns:xlink="http://www.w3.org/1999/xlink" viewBox="0 0 27.4023 54.1992">
 <g>
  <rect height="54.1992" opacity="0" width="27.4023" x="0" y="0"/>
  <path d="M27.0312 7.30469L27.0312 46.9141C27.0312 51.6211 24.4336 54.1992 19.668 54.1992L7.36328 54.1992C2.59766 54.1992 0 51.6211 0 46.9141L0 7.30469C0 2.57812 2.59766 0.0195312 7.36328 0.0195312L19.668 0.0195312C24.4336 0.0195312 27.0312 2.57812 27.0312 7.30469ZM9.76562 41.2109C9.76562 43.2617 11.4453 44.9609 13.5352 44.9609C15.6055 44.9609 17.2852 43.2617 17.2852 41.2109C17.2852 39.1406 15.6055 37.4609 13.5352 37.4609C11.4453 37.4609 9.76562 39.1406 9.76562 41.2109ZM9.76562 27.0898C9.76562 29.1602 11.4453 30.8594 13.5352 30.8594C15.6055 30.8594 17.2852 29.1602 17.2852 27.0898C17.2852 25.0195 15.6055 23.3398 13.5352 23.3398C11.4453 23.3398 9.76562 25.0195 9.76562 27.0898ZM9.76562 12.9688C9.76562 15.0586 11.4453 16.7383 13.5352 16.7383C15.6055 16.7383 17.2852 15.0586 17.2852 12.9688C17.2852 10.918 15.6055 9.23828 13.5352 9.23828C11.4453 9.23828 9.76562 10.918 9.76562 12.9688Z" fill="black" fill-opacity="0.85"/>
 </g>
</svg>
