<?xml version="1.0" encoding="UTF-8"?>
<!--Generator: Apple Native CoreSVG 326-->
<!DOCTYPE svg
PUBLIC "-//W3C//DTD SVG 1.1//EN"
       "http://www.w3.org/Graphics/SVG/1.1/DTD/svg11.dtd">
<svg version="1.1" xmlns="http://www.w3.org/2000/svg" xmlns:xlink="http://www.w3.org/1999/xlink" viewBox="0 0 46.2891 46.5039">
 <g>
  <rect height="46.5039" opacity="0" width="46.2891" x="0" y="0"/>
  <path d="M45.918 8.10547L45.918 38.9844C45.918 43.9453 43.3594 46.5039 38.3008 46.5039L7.59766 46.5039C2.55859 46.5039 0 43.9648 0 38.9844L0 8.10547C0 3.125 2.55859 0.585938 7.59766 0.585938L38.3008 0.585938C43.3594 0.585938 45.918 3.14453 45.918 8.10547ZM7.67578 4.04297C4.94141 4.04297 3.45703 5.48828 3.45703 8.30078L3.45703 38.7891C3.45703 41.6016 4.94141 43.0469 7.67578 43.0469L38.2422 43.0469C40.918 43.0469 42.4609 41.6016 42.4609 38.7891L42.4609 8.30078C42.4609 5.48828 40.918 4.04297 38.2422 4.04297Z" fill="black" fill-opacity="0.85"/>
  <path d="M32.1289 14.8047L32.1289 15.1758L17.1094 15.1758C14.0625 15.1758 12.3047 16.9531 12.3047 19.9414L12.3047 30.0586L11.6406 30.0586C9.41406 30.0586 8.28125 28.9453 8.28125 26.7188L8.28125 14.8047C8.28125 12.6367 9.41406 11.4844 11.6406 11.4844L28.7891 11.4844C31.0156 11.4844 32.1289 12.6367 32.1289 14.8047Z" fill="black" fill-opacity="0.85"/>
  <path d="M17.1094 35.1953L34.2578 35.1953C36.4844 35.1953 37.6172 34.1016 37.6172 31.875L37.6172 19.9414C37.6172 17.7734 36.4844 16.6211 34.2578 16.6211L17.1094 16.6211C14.8828 16.6211 13.7695 17.7734 13.7695 19.9414L13.7695 31.875C13.7695 34.1016 14.8828 35.1953 17.1094 35.1953Z" fill="black" fill-opacity="0.85"/>
 </g>
</svg>
