<?xml version="1.0" encoding="UTF-8"?>
<!--Generator: Apple Native CoreSVG 326-->
<!DOCTYPE svg
PUBLIC "-//W3C//DTD SVG 1.1//EN"
       "http://www.w3.org/Graphics/SVG/1.1/DTD/svg11.dtd">
<svg version="1.1" xmlns="http://www.w3.org/2000/svg" xmlns:xlink="http://www.w3.org/1999/xlink" viewBox="0 0 55.3906 54.7852">
 <g>
  <rect height="54.7852" opacity="0" width="55.3906" x="0" y="0"/>
  <path d="M55.0195 14.2969L55.0195 34.2188C55.0195 41.1719 51.0742 45.1953 44.0039 45.1953L26.0547 45.1953L16.9336 53.418C15.9375 54.3359 15.293 54.7852 14.4336 54.7852C13.1836 54.7852 12.4609 53.8867 12.4609 52.5195L12.4609 45.1953L11.0156 45.1953C3.92578 45.1953 0 41.2109 0 34.2188L0 14.2969C0 7.30469 3.92578 3.28125 11.0156 3.28125L44.0039 3.28125C51.0742 3.28125 55.0195 7.32422 55.0195 14.2969ZM15.332 26.6016C13.6328 26.6016 12.7734 27.4414 12.7734 29.1602L12.7734 33.0078C12.7734 34.7656 13.6328 35.5859 15.332 35.5859L25.5078 35.5859C27.207 35.5859 28.0664 34.7656 28.0664 33.0078L28.0664 29.1602C28.0664 27.4414 27.207 26.6016 25.5078 26.6016ZM33.8477 14.707C32.1484 14.707 31.2695 15.5469 31.2695 17.2656L31.2695 31.4258C31.2695 33.1641 32.1484 33.9844 33.8477 33.9844L42.2852 33.9844C44.0039 33.9844 44.8633 33.1641 44.8633 31.4258L44.8633 17.2656C44.8633 15.5469 44.0039 14.707 42.2852 14.707ZM12.168 12.9102C10.4492 12.9102 9.57031 13.7109 9.57031 15.4492L9.57031 20.957C9.57031 22.6758 10.4492 23.5156 12.168 23.5156L23.9258 23.5156C25.625 23.5156 26.5234 22.6758 26.5234 20.957L26.5234 15.4492C26.5234 13.7109 25.625 12.9102 23.9258 12.9102Z" fill="black" fill-opacity="0.85"/>
 </g>
</svg>
