<?xml version="1.0" encoding="UTF-8"?>
<!--Generator: Apple Native CoreSVG 326-->
<!DOCTYPE svg
PUBLIC "-//W3C//DTD SVG 1.1//EN"
       "http://www.w3.org/Graphics/SVG/1.1/DTD/svg11.dtd">
<svg version="1.1" xmlns="http://www.w3.org/2000/svg" xmlns:xlink="http://www.w3.org/1999/xlink" viewBox="0 0 44.9609 53.8867">
 <g>
  <rect height="53.8867" opacity="0" width="44.9609" x="0" y="0"/>
  <path d="M24.0234 43.0981C25.6642 43.641 26.9712 44.9353 27.5283 46.5625L42.8516 46.5625C43.8086 46.5625 44.5898 47.3438 44.5898 48.2812C44.5898 49.2383 43.8086 50.0195 42.8516 50.0195L27.5678 50.0195C26.852 52.2544 24.7471 53.8867 22.2852 53.8867C19.839 53.8867 17.7371 52.2544 17.0219 50.0195L1.73828 50.0195C0.78125 50.0195 0 49.2383 0 48.2812C0 47.3438 0.78125 46.5625 1.73828 46.5625L17.0614 46.5625C17.6192 44.9319 18.9285 43.6356 20.5664 43.0944L20.5664 36.7969L24.0234 36.7969Z" fill="black" fill-opacity="0.85"/>
  <path d="M7.59766 36.7969L36.9727 36.7969C42.0312 36.7969 44.5898 34.2383 44.5898 29.2773L44.5898 7.55859C44.5898 2.59766 42.0312 0.0390625 36.9727 0.0390625L7.59766 0.0390625C2.53906 0.0390625 0 2.59766 0 7.55859L0 29.2773C0 34.2383 2.53906 36.7969 7.59766 36.7969ZM7.67578 33.3398C5 33.3398 3.45703 31.8945 3.45703 29.082L3.45703 7.75391C3.45703 4.94141 5 3.49609 7.67578 3.49609L36.9141 3.49609C39.5898 3.49609 41.1328 4.94141 41.1328 7.75391L41.1328 29.082C41.1328 31.8945 39.5898 33.3398 36.9141 33.3398Z" fill="black" fill-opacity="0.85"/>
 </g>
</svg>
