<?xml version="1.0" encoding="UTF-8"?>
<!--Generator: Apple Native CoreSVG 326-->
<!DOCTYPE svg
PUBLIC "-//W3C//DTD SVG 1.1//EN"
       "http://www.w3.org/Graphics/SVG/1.1/DTD/svg11.dtd">
<svg version="1.1" xmlns="http://www.w3.org/2000/svg" xmlns:xlink="http://www.w3.org/1999/xlink" viewBox="0 0 54.5703 45.957">
 <g>
  <rect height="45.957" opacity="0" width="54.5703" x="0" y="0"/>
  <path d="M5.25391 45.957L48.9453 45.957C52.4219 45.957 54.1992 44.2773 54.1992 40.7422L54.1992 30.3516C54.1992 26.8164 52.4219 25.1367 48.9453 25.1367L5.25391 25.1367C1.77734 25.1367 0 26.8164 0 30.3516L0 40.7422C0 44.2773 1.77734 45.957 5.25391 45.957ZM5.50781 42.6953C4.02344 42.6953 3.26172 41.9727 3.26172 40.4297L3.26172 30.6836C3.26172 29.1211 4.02344 28.3984 5.50781 28.3984L48.6719 28.3984C50.1758 28.3984 50.9375 29.1211 50.9375 30.6836L50.9375 40.4297C50.9375 41.9727 50.1758 42.6953 48.6719 42.6953Z" fill="black" fill-opacity="0.85"/>
  <path d="M5.25391 20.8594L48.9453 20.8594C52.4219 20.8594 54.1992 19.1992 54.1992 15.6445L54.1992 5.25391C54.1992 1.71875 52.4219 0.0585938 48.9453 0.0585938L5.25391 0.0585938C1.77734 0.0585938 0 1.71875 0 5.25391L0 15.6445C0 19.1992 1.77734 20.8594 5.25391 20.8594ZM5.50781 17.5977C4.02344 17.5977 3.26172 16.875 3.26172 15.332L3.26172 5.58594C3.26172 4.02344 4.02344 3.32031 5.50781 3.32031L48.6719 3.32031C50.1758 3.32031 50.9375 4.02344 50.9375 5.58594L50.9375 15.332C50.9375 16.875 50.1758 17.5977 48.6719 17.5977Z" fill="black" fill-opacity="0.85"/>
 </g>
</svg>
