<?xml version="1.0" encoding="UTF-8"?>
<!--Generator: Apple Native CoreSVG 326-->
<!DOCTYPE svg
PUBLIC "-//W3C//DTD SVG 1.1//EN"
       "http://www.w3.org/Graphics/SVG/1.1/DTD/svg11.dtd">
<svg version="1.1" xmlns="http://www.w3.org/2000/svg" xmlns:xlink="http://www.w3.org/1999/xlink" viewBox="0 0 51.25 50.918">
 <g>
  <rect height="50.918" opacity="0" width="51.25" x="0" y="0"/>
  <path d="M25.4297 50.8789C39.4727 50.8789 50.8789 39.4922 50.8789 25.4492C50.8789 11.4062 39.4727 0 25.4297 0C11.3867 0 0 11.4062 0 25.4492C0 39.4922 11.3867 50.8789 25.4297 50.8789ZM25.4297 47.2461C13.3789 47.2461 3.63281 37.5 3.63281 25.4492C3.63281 13.3984 13.3789 3.65234 25.4297 3.65234C37.4805 3.65234 47.2266 13.3984 47.2266 25.4492C47.2266 37.5 37.4805 47.2461 25.4297 47.2461Z" fill="black" fill-opacity="0.85"/>
  <path d="M14.082 23.0469C12.1875 24.1797 12.2266 26.7578 14.043 27.8516L29.0039 36.7578C30.7422 37.793 33.125 37.0508 33.125 34.6484L33.125 16.1914C33.125 13.7695 30.7422 13.0469 29.0039 14.082ZM17.2656 25.1562L29.1211 18.0664C29.4531 17.8711 29.668 18.0078 29.668 18.2422L29.668 32.5781C29.668 32.832 29.4531 32.9688 29.1211 32.7734L17.2852 25.7422C17.0117 25.5859 17.0508 25.3125 17.2656 25.1562Z" fill="black" fill-opacity="0.85"/>
 </g>
</svg>
