<?xml version="1.0" encoding="UTF-8"?>
<!--Generator: Apple Native CoreSVG 326-->
<!DOCTYPE svg
PUBLIC "-//W3C//DTD SVG 1.1//EN"
       "http://www.w3.org/Graphics/SVG/1.1/DTD/svg11.dtd">
<svg version="1.1" xmlns="http://www.w3.org/2000/svg" xmlns:xlink="http://www.w3.org/1999/xlink" viewBox="0 0 43.7305 42.4805">
 <g>
  <rect height="42.4805" opacity="0" width="43.7305" x="0" y="0"/>
  <path d="M34.9414 42.4805C36.6211 42.4805 37.6758 41.2109 37.6758 39.2188L37.6758 3.30078C37.6758 1.28906 36.6211 0.0195312 34.9414 0.0195312C34.043 0.0195312 33.3008 0.351562 32.3633 0.898438L2.51953 18.2227C0.664062 19.2969 0 20.0391 0 21.25C0 22.4805 0.664062 23.2227 2.51953 24.2773L32.3633 41.6211C33.3008 42.168 34.043 42.4805 34.9414 42.4805ZM33.9062 38.4375C33.7695 38.4375 33.6523 38.3789 33.4961 38.3008L4.82422 21.6602C4.64844 21.5625 4.49219 21.4453 4.49219 21.25C4.49219 21.0742 4.64844 20.957 4.82422 20.8594L33.4961 4.21875C33.6523 4.14062 33.7695 4.08203 33.9062 4.08203C34.082 4.08203 34.2188 4.19922 34.2188 4.47266L34.2188 38.0273C34.2188 38.3008 34.082 38.4375 33.9062 38.4375Z" fill="black" fill-opacity="0.85"/>
 </g>
</svg>
