<?xml version="1.0" encoding="UTF-8"?>
<!--Generator: Apple Native CoreSVG 326-->
<!DOCTYPE svg
PUBLIC "-//W3C//DTD SVG 1.1//EN"
       "http://www.w3.org/Graphics/SVG/1.1/DTD/svg11.dtd">
<svg version="1.1" xmlns="http://www.w3.org/2000/svg" xmlns:xlink="http://www.w3.org/1999/xlink" viewBox="0 0 39.9023 55.8789">
 <g>
  <rect height="55.8789" opacity="0" width="39.9023" x="0" y="0"/>
  <path d="M0 19.8242C0 25.5469 2.48047 30.7617 6.42578 34.375L6.44531 53.9453C6.44531 55.2539 7.12891 55.8594 8.06641 55.8594C8.88672 55.8594 9.49219 55.3516 10.1172 54.7461L18.5156 46.3867C19.0625 45.8594 19.4336 45.6836 19.7852 45.6836C20.1367 45.6836 20.5078 45.8594 21.0547 46.3867L29.4336 54.7461C30.0977 55.4102 30.7227 55.8594 31.4844 55.8594C32.4609 55.8594 33.1445 55.2539 33.1445 53.9453L33.1445 34.2969C37.0508 30.7031 39.5117 25.5273 39.5312 19.8242C39.5508 8.90625 30.6055 0 19.7656 0C8.90625 0 0 8.90625 0 19.8242ZM3.49609 19.8242C3.49609 10.7227 10.6641 3.41797 19.7852 3.41797C28.8867 3.41797 36.0352 10.7227 36.0547 19.8242C36.0742 28.9062 28.8867 36.25 19.7852 36.2305C10.6641 36.2109 3.49609 28.9062 3.49609 19.8242Z" fill="black" fill-opacity="0.85"/>
 </g>
</svg>
