<?xml version="1.0" encoding="UTF-8"?>
<!--Generator: Apple Native CoreSVG 326-->
<!DOCTYPE svg
PUBLIC "-//W3C//DTD SVG 1.1//EN"
       "http://www.w3.org/Graphics/SVG/1.1/DTD/svg11.dtd">
<svg version="1.1" xmlns="http://www.w3.org/2000/svg" xmlns:xlink="http://www.w3.org/1999/xlink" viewBox="0 0 51.25 50.918">
 <g>
  <rect height="50.918" opacity="0" width="51.25" x="0" y="0"/>
  <path d="M16.7578 25.4492C16.7578 40.1367 20.4297 50.7031 25.4102 50.7031L25.4102 47.2461C22.9102 47.2461 20.2148 39.5703 20.2148 25.4492C20.2148 11.3086 22.9102 3.65234 25.4102 3.65234L25.4102 0.175781C20.4297 0.175781 16.7578 10.7422 16.7578 25.4492ZM25.4492 34.0625C40.1562 34.0625 50.7227 30.4102 50.7227 25.4492L47.2461 25.4492C47.2461 27.9297 39.5898 30.6055 25.4492 30.6055C11.3281 30.6055 3.65234 27.9297 3.65234 25.4492L0.195312 25.4492C0.195312 30.4102 10.7617 34.0625 25.4492 34.0625ZM25.4297 50.8789C39.4727 50.8789 50.8789 39.4922 50.8789 25.4492C50.8789 11.4062 39.4727 0 25.4297 0C11.3867 0 0 11.4062 0 25.4492C0 39.4922 11.3867 50.8789 25.4297 50.8789ZM25.4297 47.2461C13.3789 47.2461 3.63281 37.5 3.63281 25.4492C3.63281 13.3984 13.3789 3.65234 25.4297 3.65234C37.4805 3.65234 47.2266 13.3984 47.2266 25.4492C47.2266 37.5 37.4805 47.2461 25.4297 47.2461Z" fill="black" fill-opacity="0.85"/>
 </g>
</svg>
