<?xml version="1.0" encoding="UTF-8"?>
<!--Generator: Apple Native CoreSVG 326-->
<!DOCTYPE svg
PUBLIC "-//W3C//DTD SVG 1.1//EN"
       "http://www.w3.org/Graphics/SVG/1.1/DTD/svg11.dtd">
<svg version="1.1" xmlns="http://www.w3.org/2000/svg" xmlns:xlink="http://www.w3.org/1999/xlink" viewBox="0 0 41.2305 44.7461">
 <g>
  <rect height="44.7461" opacity="0" width="41.2305" x="0" y="0"/>
  <path d="M1.93359 44.7266C3.125 44.7266 3.80859 43.7891 3.80859 42.7344L3.80859 4.53125L16.0938 4.53125C22.3828 4.53125 24.7266 6.71875 24.7266 13.1641L24.7266 29.8438C24.7266 31.0742 25.4492 31.8359 26.6602 31.8359C27.8125 31.8359 28.5156 31.0742 28.5156 29.8438L28.5156 12.4023C28.5156 4.31641 25.332 0.371094 17.3438 0.371094L2.69531 0.371094C1.07422 0.371094 0 1.40625 0 3.06641L0 42.7344C0 43.9062 0.761719 44.7266 1.93359 44.7266ZM15.0195 44.3164L29.6094 44.3164C38.0469 44.3164 40.8594 39.8633 40.8594 31.4648L40.8594 1.95312C40.8594 0.742188 40.1562 0 39.0234 0C37.8125 0 37.0898 0.742188 37.0898 1.95312L37.0898 31.4453C37.0898 38.0273 35.3516 40.1562 28.6133 40.1562L16.1523 40.1562L16.1523 14.707C16.1523 13.4766 15.4297 12.7148 14.2969 12.7148C13.0859 12.7148 12.3633 13.4766 12.3633 14.707L12.3633 41.6211C12.3633 43.2227 13.418 44.3164 15.0195 44.3164Z" fill="black" fill-opacity="0.85"/>
 </g>
</svg>
