<?xml version="1.0" encoding="UTF-8"?>
<!--Generator: Apple Native CoreSVG 326-->
<!DOCTYPE svg
PUBLIC "-//W3C//DTD SVG 1.1//EN"
       "http://www.w3.org/Graphics/SVG/1.1/DTD/svg11.dtd">
<svg version="1.1" xmlns="http://www.w3.org/2000/svg" xmlns:xlink="http://www.w3.org/1999/xlink" viewBox="0 0 73.0078 54.6631">
 <g>
  <rect height="54.6631" opacity="0" width="73.0078" x="0" y="0"/>
  <path d="M50.1758 1.44289L68.6328 11.8726C70.4883 12.9273 71.3672 14.3531 71.3672 16.6187L71.3672 37.1265C71.3672 40.3491 70.293 41.6187 68.1055 42.8491L48.0859 54.0991C46.7188 54.8609 45.4688 54.8413 44.1211 54.0991L24.082 42.8491C21.8945 41.6187 20.8203 40.3491 20.8203 37.1265L20.8203 35.4859L24.1406 35.4859L24.1406 36.9898C24.1406 38.396 24.5703 39.2163 26.0938 40.0562L44.3945 50.3296L44.3945 28.7866L24.1406 17.3609L24.1406 24.8413L20.8203 24.8413L20.8203 16.6187C20.8203 14.3531 21.7188 12.9273 23.5742 11.8726L42.0312 1.44289C44.7461-0.100074 47.4414-0.100074 50.1758 1.44289ZM47.793 28.7866L47.793 50.3296L66.0938 40.0562C67.6172 39.2163 68.0469 38.396 68.0469 36.9898L68.0469 17.3609ZM25.8984 14.4507L46.0938 25.7593L54.6094 21.0132L34.375 9.64602ZM43.5547 4.47024L37.793 7.71243L58.0664 19.0601L66.2891 14.4507L48.6328 4.47024C46.9141 3.47414 45.293 3.49368 43.5547 4.47024Z" fill="black" fill-opacity="0.85"/>
  <path d="M31.1133 30.1734C31.1133 29.2359 30.3516 28.4546 29.4531 28.4546L8.45703 28.4546L4.74609 28.5913L6.36719 27.0288L10.8203 22.7906C11.1719 22.4781 11.3477 22.0093 11.3477 21.5991C11.3477 20.7007 10.7031 20.0366 9.82422 20.0366C9.375 20.0366 9.02344 20.232 8.69141 20.5445L0.566406 28.9234C0.136719 29.3531 0 29.7241 0 30.1734C0 30.6031 0.136719 30.9741 0.566406 31.4038L8.69141 39.7632C9.02344 40.0952 9.375 40.271 9.82422 40.271C10.7031 40.271 11.3477 39.5874 11.3477 38.7085C11.3477 38.2788 11.1719 37.8296 10.8203 37.5366L6.36719 33.2788L4.76562 31.7359L8.45703 31.8726L29.4531 31.8726C30.3516 31.8726 31.1133 31.0913 31.1133 30.1734Z" fill="black" fill-opacity="0.85"/>
 </g>
</svg>
