<?xml version="1.0" encoding="UTF-8"?>
<!--Generator: Apple Native CoreSVG 326-->
<!DOCTYPE svg
PUBLIC "-//W3C//DTD SVG 1.1//EN"
       "http://www.w3.org/Graphics/SVG/1.1/DTD/svg11.dtd">
<svg version="1.1" xmlns="http://www.w3.org/2000/svg" xmlns:xlink="http://www.w3.org/1999/xlink" viewBox="0 0 51.25 50.918">
 <g>
  <rect height="50.918" opacity="0" width="51.25" x="0" y="0"/>
  <path d="M50.8789 25.4492C50.8789 39.4531 39.4531 50.8789 25.4297 50.8789C11.4258 50.8789 0 39.4531 0 25.4492C0 11.4258 11.4258 0 25.4297 0C39.4531 0 50.8789 11.4258 50.8789 25.4492ZM33.457 14.1016L33.457 17.1289L31.0742 17.1289C28.7695 17.1289 27.3828 17.793 25.7031 19.7461L22.6172 23.3594L19.5312 19.7461C17.8516 17.793 16.4648 17.1289 14.1797 17.1289L11.0742 17.1289C10.2344 17.1289 9.62891 17.6758 9.62891 18.4766C9.62891 19.2383 10.2539 19.8242 11.0742 19.8242L14.2188 19.8242C15.5859 19.8242 16.4648 20.293 17.5977 21.6602L20.8203 25.4492L17.5977 29.2383C16.4453 30.625 15.5859 31.0742 14.2188 31.0742L11.0742 31.0742C10.2539 31.0742 9.62891 31.6602 9.62891 32.4219C9.62891 33.2031 10.2344 33.7695 11.0742 33.7695L14.1797 33.7695C16.4648 33.7695 17.8516 33.1055 19.5312 31.1523L22.6172 27.5391L25.7031 31.1523C27.3828 33.1055 28.7695 33.7695 31.0742 33.7695L33.457 33.7695L33.457 36.8555C33.457 37.5586 33.8672 37.9883 34.5508 37.9883C34.8828 37.9883 35.1953 37.8906 35.4492 37.6953L40.5859 33.5156C41.1914 33.0273 41.1914 32.207 40.6055 31.7188L35.4688 27.5586C35.2539 27.3242 34.9023 27.207 34.5508 27.207C33.8867 27.207 33.457 27.6562 33.457 28.3594L33.457 31.0742L31.1523 31.0742C29.6289 31.0742 28.7891 30.6055 27.6562 29.2383L24.4141 25.4492L27.6562 21.6602C28.7891 20.293 29.6289 19.8242 31.1523 19.8242L33.457 19.8242L33.457 22.5977C33.457 23.3008 33.8867 23.75 34.5508 23.75C34.9023 23.75 35.2539 23.6328 35.4688 23.3984L40.5859 19.2773C41.1719 18.7891 41.1914 17.9492 40.6055 17.4609L35.4492 13.2617C35.1953 13.0664 34.8828 12.9688 34.5508 12.9688C33.8672 12.9688 33.457 13.3984 33.457 14.1016Z" fill="black" fill-opacity="0.85"/>
 </g>
</svg>
