<?xml version="1.0" encoding="UTF-8"?>
<!--Generator: Apple Native CoreSVG 326-->
<!DOCTYPE svg
PUBLIC "-//W3C//DTD SVG 1.1//EN"
       "http://www.w3.org/Graphics/SVG/1.1/DTD/svg11.dtd">
<svg version="1.1" xmlns="http://www.w3.org/2000/svg" xmlns:xlink="http://www.w3.org/1999/xlink" viewBox="0 0 42.3047 53.8867">
 <g>
  <rect height="53.8867" opacity="0" width="42.3047" x="0" y="0"/>
  <path d="M29.0234 1.95312L40.1758 13.0859C41.4844 14.375 41.9336 15.6055 41.9336 17.8711L41.9336 46.2891C41.9336 51.3086 39.4141 53.8867 34.4141 53.8867L7.51953 53.8867C2.51953 53.8867 0 51.3281 0 46.2891L0 7.65625C0 2.61719 2.55859 0.0585938 7.51953 0.0585938L24.2188 0.0585938C26.2891 0.0585938 27.7344 0.625 29.0234 1.95312ZM8.94531 32.6953L8.94531 42.0898C8.94531 44.3945 10.3125 45.7617 12.5977 45.7617L16.0742 45.7617L16.0742 33.0859C16.0742 32.832 15.918 32.6953 15.6836 32.6953ZM12.5977 23.4375C10.3125 23.4375 8.94531 24.8242 8.94531 27.1484L8.94531 30.2344L17.0703 30.2344C18.0078 30.2344 18.5547 30.7812 18.5547 31.6992L18.5547 45.7617L23.4766 45.7617L23.4766 23.4375ZM25.957 23.4375L25.957 45.7617L29.375 45.7617C31.6602 45.7617 33.0273 44.3945 33.0273 42.0898L33.0273 27.1484C33.0273 24.8242 31.6602 23.4375 29.375 23.4375Z" fill="black" fill-opacity="0.85"/>
 </g>
</svg>
