<?xml version="1.0" encoding="UTF-8"?>
<!--Generator: Apple Native CoreSVG 326-->
<!DOCTYPE svg
PUBLIC "-//W3C//DTD SVG 1.1//EN"
       "http://www.w3.org/Graphics/SVG/1.1/DTD/svg11.dtd">
<svg version="1.1" xmlns="http://www.w3.org/2000/svg" xmlns:xlink="http://www.w3.org/1999/xlink" viewBox="0 0 51.25 50.918">
 <g>
  <rect height="50.918" opacity="0" width="51.25" x="0" y="0"/>
  <path d="M25.4297 50.8789C39.4727 50.8789 50.8789 39.4922 50.8789 25.4492C50.8789 11.4062 39.4727 0 25.4297 0C11.3867 0 0 11.4062 0 25.4492C0 39.4922 11.3867 50.8789 25.4297 50.8789ZM25.4297 47.2461C13.3789 47.2461 3.63281 37.5 3.63281 25.4492C3.63281 13.3984 13.3789 3.65234 25.4297 3.65234C37.4805 3.65234 47.2266 13.3984 47.2266 25.4492C47.2266 37.5 37.4805 47.2461 25.4297 47.2461Z" fill="black" fill-opacity="0.85"/>
  <path d="M18.5742 35.8594C22.6172 35.8594 24.6094 33.3203 24.6094 30C24.6094 26.582 22.5586 25.2734 19.8633 24.2188L18.4375 23.6719C16.543 22.9492 15.293 22.0508 15.293 20C15.293 18.1445 16.4062 16.7773 18.418 16.7773C20.2734 16.7773 21.4453 17.8906 21.8945 19.8242C22.0508 20.4492 22.4609 20.7227 23.0664 20.7227C23.7305 20.7227 24.1406 20.2734 24.1406 19.6094C24.1406 19.4141 24.1211 19.1406 24.0625 18.9258C23.4766 16.3086 21.3281 14.6094 18.457 14.6094C14.8438 14.6094 12.7734 17.0703 12.7734 20.1758C12.7734 23.2031 14.5508 24.8438 17.4023 25.8984L18.8281 26.4258C20.7812 27.1484 22.0898 28.1641 22.0898 30.2344C22.0898 32.0898 20.918 33.6719 18.6133 33.6719C16.5625 33.6719 15.2539 32.4805 14.8438 30.4492C14.6875 29.8438 14.2969 29.5312 13.6914 29.5312C13.0273 29.5312 12.5586 30.0195 12.5586 30.7227C12.5586 31.0156 12.6172 31.3672 12.6953 31.6406C13.4766 34.3164 15.5859 35.8594 18.5742 35.8594ZM32.5977 35.1367C36.0352 35.1367 38.457 33.2031 38.457 29.9805C38.457 27.0117 36.6016 25.7227 34.1211 24.5508L32.3438 23.7109C30.6445 22.8906 29.2969 21.9141 29.2969 20.1758C29.2969 18.3008 30.6836 17.3633 32.5391 17.3633C34.668 17.3633 35.5078 18.7305 35.8203 20.5664C35.9375 21.1523 36.2891 21.5039 36.9922 21.5039C37.6953 21.5039 38.125 21.0938 38.125 20.3906C38.125 20.1172 38.1055 19.9023 38.0469 19.668C37.4219 16.543 35.1953 15.3516 32.5391 15.3516C29.4727 15.3516 26.8945 17.0508 26.8945 20.332C26.8945 23.1055 28.5547 24.4922 31.1328 25.7422L32.8906 26.582C34.6094 27.4023 36.0352 28.2617 36.0352 30.1953C36.0352 32.0312 34.7461 33.0859 32.6172 33.0859C30.293 33.0859 29.2578 31.8555 28.9844 29.7461C28.8867 29.2383 28.457 28.8086 27.8125 28.8086C27.1484 28.8086 26.6602 29.2383 26.6602 29.9414C26.6602 30.1172 26.6797 30.3516 26.7188 30.625C27.3438 33.8672 29.8047 35.1367 32.5977 35.1367ZM32.5391 37.832C32.9102 37.832 33.2031 37.5195 33.2031 37.168L33.2031 13.3789C33.2031 13.0078 32.9102 12.7148 32.5391 12.7148C32.1875 12.7148 31.875 13.0078 31.875 13.3789L31.875 37.168C31.875 37.5195 32.1875 37.832 32.5391 37.832Z" fill="black" fill-opacity="0.85"/>
 </g>
</svg>
