<?xml version="1.0" encoding="UTF-8"?>
<!--Generator: Apple Native CoreSVG 326-->
<!DOCTYPE svg
PUBLIC "-//W3C//DTD SVG 1.1//EN"
       "http://www.w3.org/Graphics/SVG/1.1/DTD/svg11.dtd">
<svg version="1.1" xmlns="http://www.w3.org/2000/svg" xmlns:xlink="http://www.w3.org/1999/xlink" viewBox="0 0 60.961 50.918">
 <g>
  <rect height="50.918" opacity="0" width="60.961" x="0" y="0"/>
  <path d="M30.295 50.8789C44.3379 50.8789 55.7246 39.4922 55.7246 25.4492C55.7246 11.4062 44.3379 0 30.295 0C16.252 0 4.86526 11.4062 4.86526 25.4492L8.49808 25.4492C8.49808 13.3984 18.2442 3.65234 30.295 3.65234C42.3457 3.65234 52.0918 13.3984 52.0918 25.4492C52.0918 37.5 42.3457 47.2461 30.295 47.2461C22.834 47.2461 16.1739 43.457 12.3653 37.7539C11.7207 36.875 10.7051 36.6016 9.80667 37.1484C8.94729 37.6562 8.69339 38.8477 9.39651 39.8047C13.9473 46.5039 21.6426 50.8789 30.295 50.8789ZM1.60354 20.7227C0.00198146 20.7227-0.447237 21.8164 0.470731 23.0859L6.01761 30.9766C6.75979 32.0508 7.83401 32.0312 8.55667 30.9766L14.1035 23.0664C14.9825 21.8164 14.5528 20.7227 12.9707 20.7227Z" fill="black" fill-opacity="0.85"/>
  <path d="M23.459 35.8594C27.502 35.8594 29.4942 33.3203 29.4942 30C29.4942 26.582 27.4434 25.2734 24.7481 24.2188L23.3223 23.6719C21.4278 22.9492 20.1778 22.0508 20.1778 20C20.1778 18.1445 21.291 16.7773 23.3028 16.7773C25.1582 16.7773 26.3301 17.8906 26.7793 19.8242C26.9356 20.4492 27.3457 20.7227 27.9512 20.7227C28.6153 20.7227 29.0254 20.2734 29.0254 19.6094C29.0254 19.4141 29.0059 19.1406 28.9473 18.9258C28.3614 16.3086 26.2129 14.6094 23.3418 14.6094C19.7285 14.6094 17.6582 17.0703 17.6582 20.1758C17.6582 23.2031 19.4356 24.8438 22.2871 25.8984L23.7129 26.4258C25.666 27.1484 26.9746 28.1641 26.9746 30.2344C26.9746 32.0898 25.8028 33.6719 23.4981 33.6719C21.4473 33.6719 20.1387 32.4805 19.7285 30.4492C19.5723 29.8438 19.1817 29.5312 18.5762 29.5312C17.9121 29.5312 17.4434 30.0195 17.4434 30.7227C17.4434 31.0156 17.502 31.3672 17.5801 31.6406C18.3614 34.3164 20.4707 35.8594 23.459 35.8594ZM37.4825 35.1367C40.92 35.1367 43.3418 33.2031 43.3418 29.9805C43.3418 27.0117 41.4864 25.7227 39.0059 24.5508L37.2285 23.7109C35.5293 22.8906 34.1817 21.9141 34.1817 20.1758C34.1817 18.3008 35.5684 17.3633 37.4239 17.3633C39.5528 17.3633 40.3926 18.7305 40.7051 20.5664C40.8223 21.1523 41.1739 21.5039 41.877 21.5039C42.5801 21.5039 43.0098 21.0938 43.0098 20.3906C43.0098 20.1172 42.9903 19.9023 42.9317 19.668C42.3262 16.543 40.0801 15.3516 37.4239 15.3516C34.3575 15.3516 31.7793 17.0508 31.7793 20.332C31.7793 23.1055 33.4395 24.4922 36.0176 25.7422L37.7754 26.582C39.4942 27.4023 40.92 28.2617 40.92 30.1953C40.92 32.0312 39.6309 33.0859 37.502 33.0859C35.1778 33.0859 34.1426 31.8555 33.8692 29.7461C33.7715 29.2383 33.3418 28.8086 32.6973 28.8086C32.0332 28.8086 31.545 29.2383 31.545 29.9414C31.545 30.1172 31.5645 30.3516 31.6035 30.625C32.2285 33.8672 34.6895 35.1367 37.4825 35.1367ZM37.4239 37.832C37.795 37.832 38.0879 37.5195 38.0879 37.168L38.0879 13.3789C38.0879 13.0078 37.795 12.7148 37.4239 12.7148C37.0723 12.7148 36.7598 13.0078 36.7598 13.3789L36.7598 37.168C36.7598 37.5195 37.0723 37.832 37.4239 37.832Z" fill="black" fill-opacity="0.85"/>
 </g>
</svg>
