<?xml version="1.0" encoding="UTF-8"?>
<!--Generator: Apple Native CoreSVG 326-->
<!DOCTYPE svg
PUBLIC "-//W3C//DTD SVG 1.1//EN"
       "http://www.w3.org/Graphics/SVG/1.1/DTD/svg11.dtd">
<svg version="1.1" xmlns="http://www.w3.org/2000/svg" xmlns:xlink="http://www.w3.org/1999/xlink" viewBox="0 0 75.1367 42.793">
 <g>
  <rect height="42.793" opacity="0" width="75.1367" x="0" y="0"/>
  <path d="M15.3711 22.3438L35.9766 22.3438L35.9766 5.3125C35.9766 2.10938 33.9258 0 30.8789 0L12.0117 0C8.98438 0 6.93359 2.10938 6.93359 5.3125L6.93359 9.74609L7.77344 9.74609C12.1875 9.74609 15.3711 12.9297 15.3711 17.3633ZM38.7891 22.3438L59.3945 22.3438L59.3945 17.3633C59.3945 12.9297 62.5781 9.74609 66.9922 9.74609L67.8125 9.74609L67.8125 5.3125C67.8125 2.10938 65.7812 0 62.7344 0L43.8672 0C40.8398 0 38.7891 2.10938 38.7891 5.3125ZM0 32.6562C0 35.5859 1.95312 37.5391 4.88281 37.5391L69.8828 37.5391C72.793 37.5391 74.7656 35.5859 74.7656 32.6562L74.7656 17.3633C74.7656 14.4336 72.793 12.4805 69.8828 12.4805L66.9922 12.4805C64.082 12.4805 62.1094 14.4336 62.1094 17.3633L62.1094 25.0781L12.6367 25.0781L12.6367 17.3633C12.6367 14.4336 10.6836 12.4805 7.77344 12.4805L4.88281 12.4805C1.95312 12.4805 0 14.4336 0 17.3633ZM8.41797 42.7539L9.88281 42.7539C11.1523 42.7539 11.9531 41.9727 11.9531 40.6836L11.9531 35.7227L6.34766 35.7227L6.34766 40.6836C6.34766 41.9727 7.12891 42.7539 8.41797 42.7539ZM64.8828 42.7539L66.3477 42.7539C67.6367 42.7539 68.3984 41.9727 68.3984 40.6836L68.3984 35.7227L62.8125 35.7227L62.8125 40.6836C62.8125 41.9727 63.6133 42.7539 64.8828 42.7539Z" fill="black" fill-opacity="0.85"/>
 </g>
</svg>
