<?xml version="1.0" encoding="UTF-8"?>
<!--Generator: Apple Native CoreSVG 326-->
<!DOCTYPE svg
PUBLIC "-//W3C//DTD SVG 1.1//EN"
       "http://www.w3.org/Graphics/SVG/1.1/DTD/svg11.dtd">
<svg version="1.1" xmlns="http://www.w3.org/2000/svg" xmlns:xlink="http://www.w3.org/1999/xlink" viewBox="0 0 67.4609 45.918">
 <g>
  <rect height="45.918" opacity="0" width="67.4609" x="0" y="0"/>
  <path d="M9.29688 45.918L57.793 45.918C63.7109 45.918 67.0898 42.5586 67.0898 36.6406L67.0898 9.29688C67.0898 3.35938 63.7109 0.0195312 57.793 0.0195312L9.29688 0.0195312C3.37891 0.0195312 0 3.35938 0 9.29688L0 36.6406C0 42.5586 3.37891 45.918 9.29688 45.918ZM9.53125 42.4609C5.52734 42.4609 3.45703 40.3906 3.45703 36.3867L3.45703 9.55078C3.45703 5.54688 5.52734 3.47656 9.53125 3.47656L57.5391 3.47656C61.543 3.47656 63.6328 5.54688 63.6328 9.55078L63.6328 36.3867C63.6328 40.3906 61.543 42.4609 57.5391 42.4609ZM2.22656 34.2188L7.87109 34.2188C12.0117 34.2188 14.2773 31.9727 14.2773 27.8125L14.2773 18.1055C14.2773 13.9453 12.0117 11.6992 7.87109 11.6992L2.22656 11.6992L2.22656 14.7656L7.89062 14.7656C10.0391 14.7656 11.2109 15.918 11.2109 18.0859L11.2109 27.832C11.2109 30 10.0391 31.1523 7.89062 31.1523L2.22656 31.1523ZM59.2188 34.2188L64.8633 34.2188L64.8633 31.1523L59.1992 31.1523C57.0312 31.1523 55.8789 30 55.8789 27.832L55.8789 18.0859C55.8789 15.918 57.0312 14.7656 59.1992 14.7656L64.8633 14.7656L64.8633 11.6992L59.2188 11.6992C55.0586 11.6992 52.8125 13.9453 52.8125 18.1055L52.8125 27.8125C52.8125 31.9727 55.0586 34.2188 59.2188 34.2188ZM32.0117 44.4531L35.0781 44.4531L35.0781 1.48438L32.0117 1.48438ZM33.5352 34.707C40.0391 34.707 45.3125 29.4336 45.3125 22.9492C45.3125 16.4453 40.0391 11.1719 33.5352 11.1719C27.0508 11.1719 21.7773 16.4453 21.7773 22.9492C21.7773 29.4336 27.0508 34.707 33.5352 34.707ZM33.5352 31.8359C28.6133 31.8359 24.6484 27.8711 24.6484 22.9492C24.6484 18.0078 28.6133 14.043 33.5352 14.043C38.4766 14.043 42.4414 18.0078 42.4414 22.9492C42.4414 27.8711 38.4766 31.8359 33.5352 31.8359ZM33.5352 26.7969C35.6641 26.7969 37.3828 25.0781 37.3828 22.9492C37.3828 20.8203 35.6641 19.1016 33.5352 19.1016C31.4062 19.1016 29.6875 20.8203 29.6875 22.9492C29.6875 25.0781 31.4062 26.7969 33.5352 26.7969Z" fill="black" fill-opacity="0.85"/>
 </g>
</svg>
