<?xml version="1.0" encoding="UTF-8"?>
<!--Generator: Apple Native CoreSVG 326-->
<!DOCTYPE svg
PUBLIC "-//W3C//DTD SVG 1.1//EN"
       "http://www.w3.org/Graphics/SVG/1.1/DTD/svg11.dtd">
<svg version="1.1" xmlns="http://www.w3.org/2000/svg" xmlns:xlink="http://www.w3.org/1999/xlink" viewBox="0 0 46.2891 45.918">
 <g>
  <rect height="45.918" opacity="0" width="46.2891" x="0" y="0"/>
  <path d="M7.59766 45.918L38.3008 45.918C43.3594 45.918 45.918 43.3594 45.918 38.3984L45.918 7.53906C45.918 2.55859 43.3594 0 38.3008 0L7.59766 0C2.55859 0 0 2.53906 0 7.53906L0 38.3984C0 43.3984 2.55859 45.918 7.59766 45.918ZM7.67578 42.4609C4.94141 42.4609 3.45703 41.0156 3.45703 38.2031L3.45703 7.71484C3.45703 4.92188 4.94141 3.45703 7.67578 3.45703L38.2422 3.45703C40.918 3.45703 42.4609 4.92188 42.4609 7.71484L42.4609 38.2031C42.4609 41.0156 40.918 42.4609 38.2422 42.4609Z" fill="black" fill-opacity="0.85"/>
  <path d="M10.1953 28.2812L35.2734 28.2812C36.0547 28.2812 36.6406 27.6758 36.6406 26.8945C36.6406 26.1523 36.0547 25.5664 35.2734 25.5664L10.1953 25.5664C9.39453 25.5664 8.80859 26.1523 8.80859 26.8945C8.80859 27.6758 9.39453 28.2812 10.1953 28.2812ZM10.1953 36.7578L28.4375 36.7578C29.2188 36.7578 29.8047 36.1719 29.8047 35.4297C29.8047 34.6484 29.2188 34.043 28.4375 34.043L10.1953 34.043C9.39453 34.043 8.80859 34.6484 8.80859 35.4297C8.80859 36.1719 9.39453 36.7578 10.1953 36.7578ZM8.92578 10.4492L8.92578 16.9727C8.92578 18.457 9.82422 19.3555 11.3086 19.3555L17.8516 19.3555C19.3359 19.3555 20.2344 18.457 20.2344 16.9727L20.2344 10.4492C20.2344 8.94531 19.3359 8.04688 17.8516 8.04688L11.3086 8.04688C9.82422 8.04688 8.92578 8.94531 8.92578 10.4492Z" fill="black" fill-opacity="0.85"/>
 </g>
</svg>
