<?xml version="1.0" encoding="UTF-8"?>
<!--Generator: Apple Native CoreSVG 326-->
<!DOCTYPE svg
PUBLIC "-//W3C//DTD SVG 1.1//EN"
       "http://www.w3.org/Graphics/SVG/1.1/DTD/svg11.dtd">
<svg version="1.1" xmlns="http://www.w3.org/2000/svg" xmlns:xlink="http://www.w3.org/1999/xlink" viewBox="0 0 41.0156 37.4023">
 <g>
  <rect height="37.4023" opacity="0" width="41.0156" x="0" y="0"/>
  <path d="M33.8672 26.6602C33.8672 33.0664 28.5547 37.4023 20.332 37.4023C13.457 37.4023 8.24219 34.2578 6.95312 29.3555C6.83594 28.9062 6.77734 28.4766 6.77734 28.0664C6.77734 26.9531 7.48047 26.2305 8.63281 26.2305C9.57031 26.2305 10.0195 26.6797 10.3906 27.6758C11.582 31.5234 15.3906 33.9453 20.3516 33.9453C25.957 33.9453 29.8438 31.0352 29.8438 27.1094C29.8438 23.8477 27.5391 22.0312 22.0312 20.7031L17.4414 19.6094C17.1304 19.5347 16.8271 19.4576 16.5398 19.375L29.6802 19.375C32.5576 21.0654 33.8672 23.3757 33.8672 26.6602ZM32.8125 7.77344C32.9102 8.16406 32.9492 8.59375 32.9492 8.90625C32.9492 10 32.2656 10.6641 31.1523 10.6641C30.293 10.6641 29.7656 10.2344 29.4531 9.39453C28.3398 5.68359 24.9414 3.4375 20.2539 3.4375C15.2344 3.4375 11.4844 6.17188 11.4844 10C11.4844 13.0469 13.8086 14.7461 19.1797 16.0352L23.3008 17.0312C23.9014 17.173 24.4743 17.3216 25.01 17.4805L11.7366 17.4805C8.83041 15.7989 7.46094 13.47 7.46094 10.2734C7.46094 4.27734 12.9297 0 20.2539 0C26.7578 0 31.6992 3.22266 32.8125 7.77344Z" fill="black" fill-opacity="0.85"/>
  <path d="M0.957031 19.375L39.6875 19.375C40.2344 19.375 40.6445 18.9453 40.6445 18.418C40.6445 17.8906 40.2344 17.4805 39.6875 17.4805L0.957031 17.4805C0.410156 17.4805 0 17.8906 0 18.418C0 18.9453 0.410156 19.375 0.957031 19.375Z" fill="black" fill-opacity="0.85"/>
 </g>
</svg>
