<?xml version="1.0" encoding="UTF-8"?>
<!--Generator: Apple Native CoreSVG 326-->
<!DOCTYPE svg
PUBLIC "-//W3C//DTD SVG 1.1//EN"
       "http://www.w3.org/Graphics/SVG/1.1/DTD/svg11.dtd">
<svg version="1.1" xmlns="http://www.w3.org/2000/svg" xmlns:xlink="http://www.w3.org/1999/xlink" viewBox="0 0 69.4141 58.9258">
 <g>
  <rect height="58.9258" opacity="0" width="69.4141" x="0" y="0"/>
  <path d="M59.5703 45.8984C60.5078 45.8984 61.3086 45.1562 61.3086 44.1797C61.3086 43.1836 60.5078 42.4414 59.5703 42.4414L14.3945 42.4414C12.168 42.4414 11.0547 41.3281 11.0547 39.0625L11.0547 13.8477C11.0547 9.39453 9.00391 7.36328 4.49219 7.36328L1.73828 7.36328C0.800781 7.36328 0 8.16406 0 9.08203C0 10.0195 0.800781 10.8203 1.73828 10.8203L4.25781 10.8203C6.48438 10.8203 7.59766 11.9336 7.59766 14.1992L7.59766 39.4141C7.59766 43.8867 9.66797 45.8984 14.1602 45.8984ZM50.625 58.8867C53.0273 58.8867 55.0391 56.875 55.0391 54.4922C55.0391 52.0703 53.0273 50.0586 50.625 50.0586C48.2422 50.0586 46.2305 52.0703 46.2305 54.4922C46.2305 56.875 48.2422 58.8867 50.625 58.8867ZM23.6133 58.8867C25.9961 58.8867 28.0078 56.875 28.0078 54.4922C28.0078 52.0703 25.9961 50.0586 23.6133 50.0586C21.2305 50.0586 19.2188 52.0703 19.2188 54.4922C19.2188 56.875 21.2305 58.8867 23.6133 58.8867Z" fill="black" fill-opacity="0.85"/>
  <path d="M55.7812 38.2422C59.2969 38.2422 61.3086 36.3281 61.3086 32.9883L61.3086 12.5391C61.3086 9.17969 59.2969 7.28516 55.7812 7.28516L21.0156 7.28516C17.5 7.28516 15.4883 9.17969 15.4883 12.5391L15.4883 32.9883C15.4883 36.3281 17.5 38.2422 21.0156 38.2422ZM55.7617 35.0977L21.0352 35.0977C19.4922 35.0977 18.6523 34.2969 18.6523 32.8711L18.6523 12.6562C18.6523 11.2109 19.4922 10.4297 21.0352 10.4297L55.7617 10.4297C57.3047 10.4297 58.1445 11.2109 58.1445 12.6562L58.1445 32.8711C58.1445 34.2969 57.3047 35.0977 55.7617 35.0977ZM53.0664 36.8945L53.0664 9.51172L49.9219 9.51172L49.9219 36.8945ZM26.875 36.8945L26.875 8.71094L23.7305 8.71094L23.7305 36.8945ZM48.7695 9.10156L48.7695 5.42969C48.7695 1.91406 46.8164 0 43.1836 0L33.6328 0C29.9023 0 28.0273 1.83594 28.0273 5.42969L28.0273 9.0625L31.0742 9.0625L31.0742 5.25391C31.0742 3.75 31.9531 2.92969 33.5547 2.92969L43.2422 2.92969C44.8633 2.92969 45.7031 3.75 45.7031 5.25391L45.7031 9.10156Z" fill="black" fill-opacity="0.85"/>
 </g>
</svg>
