<?xml version="1.0" encoding="UTF-8"?>
<!--Generator: Apple Native CoreSVG 326-->
<!DOCTYPE svg
PUBLIC "-//W3C//DTD SVG 1.1//EN"
       "http://www.w3.org/Graphics/SVG/1.1/DTD/svg11.dtd">
<svg version="1.1" xmlns="http://www.w3.org/2000/svg" xmlns:xlink="http://www.w3.org/1999/xlink" viewBox="0 0 82.2852 67.0411">
 <g>
  <rect height="67.0411" opacity="0" width="82.2852" x="0" y="0"/>
  <path d="M27.6473 26.1859L21.543 29.9952L12.0508 31.167C6.13281 31.8897 3.47656 34.1944 3.47656 38.4131L3.47656 42.0459C3.47656 43.8428 4.27734 44.7413 5.80078 44.7413L10.4947 44.7413C10.9565 40.861 14.1813 37.9444 18.2227 37.9444C22.246 37.9444 25.4861 40.861 25.9503 44.7413L46.2157 44.7413L49.6947 48.2178L25.6161 48.2178C24.6009 51.3381 21.7052 53.5108 18.2227 53.5108C14.7245 53.5108 11.8382 51.3381 10.8273 48.2178L5.64453 48.2178C2.08984 48.2178 0 46.0889 0 42.417L0 38.4131C0 32.2217 3.82812 28.6475 11.6211 27.71L20.3516 26.6358L25.1125 23.6528ZM77.9883 21.5967L79.0625 23.1202C80.8789 25.7373 81.9141 28.96 81.9141 31.8506L81.9141 41.9678C81.9141 46.2452 80.1172 48.2178 76.2695 48.2178L72.5497 48.2178C71.737 50.7194 69.7143 52.6112 67.1464 53.2549L63.6809 49.7894C64.1355 49.9501 64.6322 50.0342 65.1562 50.0342C67.6172 50.0342 69.4727 48.1788 69.4727 45.7178C69.4727 43.2764 67.6172 41.4209 65.1562 41.4209C62.6953 41.4209 60.8398 43.2764 60.8398 45.7178C60.8398 46.2419 60.924 46.7385 61.0847 47.1931L57.636 43.7445C58.482 40.3711 61.4863 37.9444 65.1562 37.9444C69.1796 37.9444 72.4196 40.861 72.8839 44.7413L76.0938 44.7413C77.7734 44.7413 78.4375 43.9795 78.4375 42.1436L78.4375 31.8506C78.4375 29.6045 77.6172 27.1827 76.1914 25.1123L75.1367 23.5694C73.2812 20.8545 70.918 19.7413 66.875 19.7413L48.7305 19.7413C42.1886 19.7413 38.8258 20.1451 35.4981 21.6065L32.866 18.9744C37.0756 16.8711 40.9958 16.2842 48.7305 16.2842L66.875 16.2842C72.1289 16.2842 75.4102 17.8663 77.9883 21.5967ZM13.9062 45.7178C13.9062 48.1788 15.7617 50.0342 18.2227 50.0342C20.6641 50.0342 22.5391 48.1788 22.5391 45.7178C22.5391 43.2764 20.6641 41.4209 18.2227 41.4209C15.7617 41.4209 13.9062 43.2764 13.9062 45.7178Z" fill="black" fill-opacity="0.85"/>
  <path d="M74.3945 6.81156L74.3945 9.37016C74.3945 11.3233 73.3594 12.5733 71.4258 12.5733L40.7031 12.5733C39.0039 12.5733 38.2812 11.792 38.2812 10.3663C38.2812 9.37016 38.7305 8.41313 40.2539 7.74906L46.0547 5.13188C51.582 2.72953 55.0391 1.65531 59.3555 1.65531L68.5547 1.65531C72.6172 1.65531 74.3945 3.41313 74.3945 6.81156Z" fill="black" fill-opacity="0.85"/>
  <path d="M69.1992 63.8428C69.8438 64.4873 70.918 64.4873 71.5625 63.8428C72.207 63.1592 72.207 62.1241 71.5625 61.4795L15.8594 5.79594C15.1953 5.15141 14.1602 5.13188 13.4961 5.79594C12.8516 6.44047 12.832 7.51469 13.4961 8.15922Z" fill="black" fill-opacity="0.85"/>
 </g>
</svg>
