<?xml version="1.0" encoding="UTF-8"?>
<!--Generator: Apple Native CoreSVG 326-->
<!DOCTYPE svg
PUBLIC "-//W3C//DTD SVG 1.1//EN"
       "http://www.w3.org/Graphics/SVG/1.1/DTD/svg11.dtd">
<svg version="1.1" xmlns="http://www.w3.org/2000/svg" xmlns:xlink="http://www.w3.org/1999/xlink" viewBox="0 0 88.4375 62.0898">
 <g>
  <rect height="62.0898" opacity="0" width="88.4375" x="0" y="0"/>
  <path d="M19.5898 50.3516C23.418 50.3516 26.4258 47.3438 26.4258 43.5156C26.4258 39.707 23.3984 36.6797 19.5898 36.6797C15.7812 36.6797 12.7539 39.707 12.7539 43.5156C12.7539 47.3242 15.7812 50.3516 19.5898 50.3516ZM69.9609 50.3516C73.7695 50.3516 76.7969 47.3242 76.7969 43.5156C76.7969 39.707 73.7695 36.6797 69.9609 36.6797C66.1914 36.6797 63.125 39.7266 63.125 43.5156C63.125 47.3242 66.1719 50.3516 69.9609 50.3516ZM85 18.3594L83.8672 16.7188C81.1133 12.6953 77.5586 10.9961 71.9141 10.9961L52.4023 10.9961C42.1289 10.9961 38.0859 11.9727 32.0117 15.7812L21.8945 22.1484L12.5 23.3008C4.14062 24.3359 0 28.1445 0 34.8242L0 39.1016C0 43.0469 2.24609 45.3516 6.07422 45.3516L10.2148 45.3516C10.0977 44.7656 10.0391 44.1602 10.0391 43.5156C10.0391 38.2227 14.2969 33.9648 19.5898 33.9648C24.8828 33.9648 29.1406 38.2227 29.1406 43.5156C29.1406 44.1602 29.082 44.7656 28.9648 45.3516L60.5859 45.3516C60.4688 44.7656 60.4102 44.1602 60.4102 43.5156C60.4102 38.2422 64.6875 33.9648 69.9609 33.9648C75.2734 33.9648 79.5312 38.2227 79.5312 43.5156C79.5312 44.1602 79.4531 44.7656 79.3359 45.3516L82.0117 45.3516C86.1523 45.3516 88.0664 43.2031 88.0664 38.6133L88.0664 27.7539C88.0664 24.6484 86.9531 21.2109 85 18.3594ZM48.6914 33.8281C47.0117 33.8281 45.6055 32.4609 45.6055 30.8594C45.6055 29.2188 46.9727 27.9102 48.6914 27.9102C50.3711 27.9102 51.7578 29.2188 51.7578 30.8594C51.7578 32.4609 50.3516 33.8281 48.6914 33.8281ZM48.6914 22.6562C47.5977 22.6562 46.8359 21.8945 46.7969 20.7617L46.3477 2.32422C46.3086 0.9375 47.2461 0 48.6914 0C50.1172 0 51.0547 0.9375 51.0156 2.32422L50.5664 20.7617C50.5273 21.8945 49.7656 22.6562 48.6914 22.6562Z" fill="black" fill-opacity="0.85"/>
 </g>
</svg>
