<?xml version="1.0" encoding="UTF-8"?>
<!--Generator: Apple Native CoreSVG 326-->
<!DOCTYPE svg
PUBLIC "-//W3C//DTD SVG 1.1//EN"
       "http://www.w3.org/Graphics/SVG/1.1/DTD/svg11.dtd">
<svg version="1.1" xmlns="http://www.w3.org/2000/svg" xmlns:xlink="http://www.w3.org/1999/xlink" viewBox="0 0 56.2305 55.8789">
 <g>
  <rect height="55.8789" opacity="0" width="56.2305" x="0" y="0"/>
  <path d="M27.9297 55.8594C43.2812 55.8594 55.8594 43.3008 55.8594 27.9297C55.8594 12.5586 43.2812 0 27.9297 0C12.5781 0 0 12.5586 0 27.9297C0 43.3008 12.5781 55.8594 27.9297 55.8594ZM27.9297 46.6797C17.5586 46.6797 9.16016 38.3008 9.16016 27.9297C9.16016 17.5586 17.5586 9.16016 27.9297 9.16016C38.3008 9.16016 46.6992 17.5586 46.6992 27.9297C46.6992 38.3008 38.3008 46.6797 27.9297 46.6797Z" fill="black" fill-opacity="0.85"/>
  <path d="M27.9688 39.5508C28.7109 39.5508 29.2578 38.9844 29.2578 38.2227L29.2578 23.3203L35.4297 23.3203C36.0156 23.3203 36.4453 22.8711 36.4453 22.2852C36.4453 21.7188 36.0156 21.2695 35.4297 21.2695L20.4492 21.2695C19.8438 21.2695 19.4141 21.7188 19.4141 22.2852C19.4141 22.8711 19.8438 23.3203 20.4492 23.3203L26.6602 23.3203L26.6602 38.2227C26.6602 38.9844 27.2266 39.5508 27.9688 39.5508ZM19.3359 17.5586C19.3359 18.0078 19.6875 18.3203 20.1172 18.3203L35.6836 18.3203C36.1133 18.3203 36.4453 17.9688 36.4453 17.5586C36.4453 17.1484 36.1133 16.7969 35.6836 16.7969L20.1172 16.7969C19.6875 16.7969 19.3359 17.1484 19.3359 17.5586Z" fill="black" fill-opacity="0.85"/>
 </g>
</svg>
