<?xml version="1.0" encoding="UTF-8"?>
<!--Generator: Apple Native CoreSVG 326-->
<!DOCTYPE svg
PUBLIC "-//W3C//DTD SVG 1.1//EN"
       "http://www.w3.org/Graphics/SVG/1.1/DTD/svg11.dtd">
<svg version="1.1" xmlns="http://www.w3.org/2000/svg" xmlns:xlink="http://www.w3.org/1999/xlink" viewBox="0 0 51.25 50.918">
 <g>
  <rect height="50.918" opacity="0" width="51.25" x="0" y="0"/>
  <path d="M25.4297 50.8789C39.4727 50.8789 50.8789 39.4922 50.8789 25.4492C50.8789 11.4062 39.4727 0 25.4297 0C11.3867 0 0 11.4062 0 25.4492C0 39.4922 11.3867 50.8789 25.4297 50.8789ZM25.4297 47.2461C13.3789 47.2461 3.63281 37.5 3.63281 25.4492C3.63281 13.3984 13.3789 3.65234 25.4297 3.65234C37.4805 3.65234 47.2266 13.3984 47.2266 25.4492C47.2266 37.5 37.4805 47.2461 25.4297 47.2461Z" fill="black" fill-opacity="0.85"/>
  <path d="M12.1289 23.2227C12.8516 23.418 13.6523 23.5156 14.4727 23.5156C19.2578 23.5156 22.8711 19.9023 22.8711 15.1172C22.8711 14.1406 22.7148 13.2031 22.4414 12.3633C17.168 13.5547 13.0469 17.8711 12.1289 23.2227ZM25.3906 38.9844C25.8203 38.9844 26.2695 38.9453 26.6992 38.9062C26.3477 37.9102 26.2109 36.875 26.2109 35.8008C26.2109 30.1367 30.7227 25.6055 36.3672 25.6055C37.2266 25.6055 38.0469 25.7031 38.8672 25.9375C38.8672 25.7812 38.8672 25.6445 38.8672 25.5078C38.8672 18.1055 32.7734 12.0312 25.3906 12.0312C24.9805 12.0312 24.6094 12.0312 24.1992 12.0898C24.5117 13.0273 24.6484 14.043 24.6484 15.1172C24.6484 20.7617 20.1172 25.293 14.4727 25.293C13.6133 25.293 12.7539 25.1953 11.9336 24.9805C11.9336 25.1562 11.9141 25.3125 11.9141 25.5078C11.9141 32.8906 18.0078 38.9844 25.3906 38.9844ZM28.457 38.6328C33.7109 37.3633 37.8125 33.0273 38.6914 27.6953C37.9688 27.5 37.207 27.3828 36.3672 27.3828C31.582 27.3828 27.9688 30.9961 27.9688 35.8008C27.9688 36.7969 28.125 37.7539 28.457 38.6328Z" fill="black" fill-opacity="0.85"/>
 </g>
</svg>
