<?xml version="1.0" encoding="UTF-8"?>
<!--Generator: Apple Native CoreSVG 326-->
<!DOCTYPE svg
PUBLIC "-//W3C//DTD SVG 1.1//EN"
       "http://www.w3.org/Graphics/SVG/1.1/DTD/svg11.dtd">
<svg version="1.1" xmlns="http://www.w3.org/2000/svg" xmlns:xlink="http://www.w3.org/1999/xlink" viewBox="0 0 75.293 53.5334">
 <g>
  <rect height="53.5334" opacity="0" width="75.293" x="0" y="0"/>
  <path d="M17.2852 31.6202C16.3086 31.6202 15.5664 32.3624 15.5664 33.339C15.5664 34.3155 16.3086 35.0772 17.2852 35.0772L64.043 35.0772C65.0195 35.0772 65.7812 34.3155 65.7812 33.339C65.7812 32.3624 65.0195 31.6202 64.043 31.6202ZM17.2852 18.4171C16.3086 18.4171 15.5664 19.1788 15.5664 20.1554C15.5664 21.1319 16.3086 21.8936 17.2852 21.8936L64.043 21.8936C65.0195 21.8936 65.7812 21.1319 65.7812 20.1554C65.7812 19.1788 65.0195 18.4171 64.043 18.4171ZM17.2852 5.23348C16.3086 5.23348 15.5664 5.9952 15.5664 6.97176C15.5664 7.94833 16.3086 8.69051 17.2852 8.69051L64.043 8.69051C65.0195 8.69051 65.7812 7.94833 65.7812 6.97176C65.7812 5.9952 65.0195 5.23348 64.043 5.23348Z" fill="black" fill-opacity="0.85"/>
  <path d="M2.07031 39.7843C1.01562 39.1397 0 39.6475 0 40.8975L0 52.128C0 53.3585 1.01562 53.9054 2.07031 53.2608L11.0547 47.753C12.0703 47.128 12.0898 45.878 11.0547 45.253ZM18.418 42.7725C16.5234 42.7725 15.5664 43.7296 15.5664 45.6046L15.5664 47.4796C15.5664 49.335 16.5234 50.2921 18.418 50.2921L62.9297 50.2921C64.8242 50.2921 65.7812 49.335 65.7812 47.4796L65.7812 45.6046C65.7812 43.7296 64.8242 42.7725 62.9297 42.7725Z" fill="black" fill-opacity="0.85"/>
 </g>
</svg>
