<?xml version="1.0" encoding="UTF-8"?>
<!--Generator: Apple Native CoreSVG 326-->
<!DOCTYPE svg
PUBLIC "-//W3C//DTD SVG 1.1//EN"
       "http://www.w3.org/Graphics/SVG/1.1/DTD/svg11.dtd">
<svg version="1.1" xmlns="http://www.w3.org/2000/svg" xmlns:xlink="http://www.w3.org/1999/xlink" viewBox="0 0 86.0352 45.957">
 <g>
  <rect height="45.957" opacity="0" width="86.0352" x="0" y="0"/>
  <path d="M23.6328 45.957L62.0508 45.957C67.1094 45.957 69.6484 43.418 69.6484 38.4375L69.6484 7.57812C69.6484 2.59766 67.1094 0.0585938 62.0508 0.0585938L23.6328 0.0585938C18.5938 0.0585938 16.0156 2.57812 16.0156 7.57812L16.0156 38.4375C16.0156 43.4375 18.5938 45.957 23.6328 45.957ZM20.8203 31.1914L20.8203 14.8242C20.8203 14.1016 21.4258 13.4961 22.1484 13.4961C22.8906 13.4961 23.4961 14.1016 23.4961 14.8242L23.4961 31.1914C23.4961 31.9141 22.8906 32.5195 22.1484 32.5195C21.4258 32.5195 20.8203 31.9141 20.8203 31.1914ZM28.2617 42.5L28.2617 3.51562L57.4023 3.51562L57.4023 42.5ZM62.207 31.1914L62.207 14.8242C62.207 14.1016 62.8125 13.4961 63.5352 13.4961C64.2773 13.4961 64.8828 14.1016 64.8828 14.8242L64.8828 31.1914C64.8828 31.9141 64.2773 32.5195 63.5352 32.5195C62.8125 32.5195 62.207 31.9141 62.207 31.1914Z" fill="black" fill-opacity="0.85"/>
  <path d="M0 28.6133C0 29.8633 1.03516 30.3711 2.08984 29.707L11.0547 24.2578C12.1094 23.6133 12.0703 22.3633 11.0547 21.7578L2.07031 16.25C1.01562 15.5859 0 16.1328 0 17.3633ZM85.6641 28.6133L85.6641 17.3633C85.6641 16.1328 84.6484 15.5859 83.5938 16.25L74.6094 21.7578C73.5938 22.3633 73.5547 23.6133 74.6094 24.2578L83.5742 29.707C84.6289 30.3711 85.6641 29.8633 85.6641 28.6133Z" fill="black" fill-opacity="0.85"/>
 </g>
</svg>
