<?xml version="1.0" encoding="UTF-8"?>
<!--Generator: Apple Native CoreSVG 326-->
<!DOCTYPE svg
PUBLIC "-//W3C//DTD SVG 1.1//EN"
       "http://www.w3.org/Graphics/SVG/1.1/DTD/svg11.dtd">
<svg version="1.1" xmlns="http://www.w3.org/2000/svg" xmlns:xlink="http://www.w3.org/1999/xlink" viewBox="0 0 62.3828 39.4727">
 <g>
  <rect height="39.4727" opacity="0" width="62.3828" x="0" y="0"/>
  <path d="M0 32.1289C0 36.9922 2.48047 39.4727 7.42188 39.4727L54.5898 39.4727C59.5312 39.4727 62.0117 36.9922 62.0117 32.1289L62.0117 7.34375C62.0117 2.48047 59.5312 0 54.5898 0L7.42188 0C2.48047 0 0 2.48047 0 7.34375ZM8.4375 19.5117L8.4375 11.0547C8.4375 9.58984 9.29688 8.75 10.7617 8.75L51.2695 8.75C52.7148 8.75 53.5742 9.58984 53.5742 11.0547L53.5742 19.5117C53.5742 20.8984 52.7148 21.7578 51.2695 21.7578L10.7617 21.7578C9.29688 21.7578 8.4375 20.8984 8.4375 19.5117Z" fill="black" fill-opacity="0.85"/>
 </g>
</svg>
