<?xml version="1.0" encoding="UTF-8"?>
<!--Generator: Apple Native CoreSVG 326-->
<!DOCTYPE svg
PUBLIC "-//W3C//DTD SVG 1.1//EN"
       "http://www.w3.org/Graphics/SVG/1.1/DTD/svg11.dtd">
<svg version="1.1" xmlns="http://www.w3.org/2000/svg" xmlns:xlink="http://www.w3.org/1999/xlink" viewBox="0 0 45.332 44.3555">
 <g>
  <rect height="44.3555" opacity="0" width="45.332" x="0" y="0"/>
  <path d="M44.9609 38.75L44.9609 0.605469C41.2891 1.36719 38.1445 2.73438 34.7461 4.86328L23.0859 12.207L12.5 13.7695C3.92578 15.0195 0 18.7305 0 25.3516L0 31.7383C0 36.1719 2.51953 38.75 6.85547 38.75L10.6445 38.75C10.4297 37.9492 10.3125 37.1484 10.3125 36.25C10.3125 30.293 15.1367 25.5078 21.0938 25.5078C27.0508 25.5078 31.8359 30.293 31.8359 36.25C31.8359 37.1484 31.7188 37.9688 31.543 38.75ZM21.0938 44.2773C25.5664 44.2773 29.1016 40.7422 29.1016 36.25C29.1016 31.7969 25.5469 28.2227 21.0938 28.2227C16.6016 28.2227 13.0469 31.7969 13.0469 36.25C13.0469 40.7227 16.6016 44.2773 21.0938 44.2773ZM2.55859 3.125L11.1523 3.125C12.1875 3.125 12.8906 3.35938 13.4961 3.98438L23.7891 14.2773L26.7578 12.6367L16.0547 1.91406C14.707 0.566406 12.9883 0 10.8008 0L2.55859 0C1.58203 0 0.957031 0.625 0.957031 1.5625C0.957031 2.48047 1.58203 3.125 2.55859 3.125Z" fill="black" fill-opacity="0.85"/>
 </g>
</svg>
