<?xml version="1.0" encoding="UTF-8"?>
<!--Generator: Apple Native CoreSVG 326-->
<!DOCTYPE svg
PUBLIC "-//W3C//DTD SVG 1.1//EN"
       "http://www.w3.org/Graphics/SVG/1.1/DTD/svg11.dtd">
<svg version="1.1" xmlns="http://www.w3.org/2000/svg" xmlns:xlink="http://www.w3.org/1999/xlink" viewBox="0 0 51.25 50.918">
 <g>
  <rect height="50.918" opacity="0" width="51.25" x="0" y="0"/>
  <path d="M25.4297 50.8789C39.4727 50.8789 50.8789 39.4922 50.8789 25.4492C50.8789 11.4062 39.4727 0 25.4297 0C11.3867 0 0 11.4062 0 25.4492C0 39.4922 11.3867 50.8789 25.4297 50.8789ZM25.4297 47.2461C13.3789 47.2461 3.63281 37.5 3.63281 25.4492C3.63281 13.3984 13.3789 3.65234 25.4297 3.65234C37.4805 3.65234 47.2266 13.3984 47.2266 25.4492C47.2266 37.5 37.4805 47.2461 25.4297 47.2461Z" fill="black" fill-opacity="0.85"/>
  <path d="M32.2461 33.6914C32.9688 33.6914 33.3789 33.2617 33.5156 32.5586L34.1406 29.6289L38.0664 29.6289L38.7109 32.5781C38.8867 33.3789 39.3359 33.6914 40 33.6914C40.6641 33.6914 41.1914 33.1445 41.1914 32.5C41.1914 32.3438 41.1133 31.875 41.0547 31.6992L38.0664 18.8281C37.8125 17.7344 37.168 17.1875 36.0742 17.1875C35.0586 17.1875 34.4336 17.6953 34.1602 18.8281L31.1719 31.6992C31.1133 31.9531 31.0547 32.2266 31.0547 32.5C31.0547 33.3008 31.582 33.6914 32.2461 33.6914ZM14.3945 33.7109C15.2148 33.7109 15.6641 33.1836 15.6641 32.3242L15.6641 18.5742L13.1055 18.5742L13.1055 32.3242C13.1055 33.1836 13.5352 33.7109 14.3945 33.7109ZM10.8594 19.8828L17.9102 19.8828C18.7695 19.8828 19.2578 19.4531 19.2578 18.6328C19.2578 17.8516 18.7695 17.4023 17.9102 17.4023L10.8594 17.4023C10.0195 17.4023 9.51172 17.832 9.51172 18.6328C9.51172 19.4531 10.0195 19.8828 10.8594 19.8828ZM24.9805 33.7891C27.8516 33.7891 29.375 31.8555 29.375 29.1602C29.375 26.582 28.0469 25.4688 26.1719 24.5312L25.293 24.082C24.043 23.4375 23.2227 22.7734 23.2227 21.3281C23.2227 20.1562 23.7891 19.1797 24.9023 19.1797C26.0742 19.1797 26.5625 20.1172 26.8164 21.2695C26.9531 21.7969 27.4023 22.1289 28.0078 22.1289C28.6719 22.1289 29.0625 21.6406 29.0625 21.0547C29.0625 20.7422 28.9648 20.4102 28.8672 20.0781C28.3594 18.3789 26.9727 17.0508 24.9023 17.0508C22.5586 17.0508 20.7617 18.7109 20.7617 21.5234C20.7617 24.0234 22.1289 25.1758 23.9062 26.1133L24.7656 26.5625C26.0938 27.2461 26.875 27.8906 26.875 29.375C26.875 30.6836 26.2305 31.6992 25 31.6992C23.8086 31.6992 23.2031 30.7617 22.9492 29.5312C22.793 28.9258 22.4023 28.6133 21.7773 28.6133C21.0938 28.6133 20.6836 29.1016 20.6836 29.7852C20.6836 30.0391 20.7422 30.293 20.7812 30.5273C21.3086 32.5 22.7148 33.7891 24.9805 33.7891ZM34.5117 27.6562L36.0156 20.2539L36.1133 20.2539L37.6758 27.6562Z" fill="black" fill-opacity="0.85"/>
 </g>
</svg>
