<?xml version="1.0" encoding="UTF-8"?>
<!--Generator: Apple Native CoreSVG 326-->
<!DOCTYPE svg
PUBLIC "-//W3C//DTD SVG 1.1//EN"
       "http://www.w3.org/Graphics/SVG/1.1/DTD/svg11.dtd">
<svg version="1.1" xmlns="http://www.w3.org/2000/svg" xmlns:xlink="http://www.w3.org/1999/xlink" viewBox="0 0 51.25 50.918">
 <g>
  <rect height="50.918" opacity="0" width="51.25" x="0" y="0"/>
  <path d="M50.8789 25.4492C50.8789 39.4531 39.4531 50.8789 25.4297 50.8789C11.4258 50.8789 0 39.4531 0 25.4492C0 11.4258 11.4258 0 25.4297 0C39.4531 0 50.8789 11.4258 50.8789 25.4492ZM18.5547 37.1484C17.9102 37.1484 17.3828 37.6758 17.3828 38.3203C17.3828 38.9844 17.9102 39.5117 18.5547 39.5117L32.3438 39.5117C32.9883 39.5117 33.5156 38.9844 33.5156 38.3203C33.5156 37.6758 32.9883 37.1484 32.3438 37.1484ZM13.6719 13.9258C11.6602 13.9258 10.2344 15.3516 10.2344 17.3828L10.2344 30.918C10.2344 32.9102 11.6602 34.3359 13.6719 34.3359L37.1484 34.3359C39.1602 34.3359 40.6055 32.9102 40.6055 30.918L40.6055 17.3828C40.6055 15.3516 39.1602 13.9258 37.1484 13.9258ZM38.1641 17.5586L38.1641 30.7227C38.1641 31.4648 37.6562 31.9922 36.9141 31.9922L13.9258 31.9922C13.2031 31.9922 12.6758 31.4648 12.6758 30.7227L12.6758 17.5586C12.6758 16.7969 13.2031 16.2695 13.9258 16.2695L36.9141 16.2695C37.6562 16.2695 38.1641 16.7969 38.1641 17.5586Z" fill="black" fill-opacity="0.85"/>
 </g>
</svg>
