<?xml version="1.0" encoding="UTF-8"?>
<!--Generator: Apple Native CoreSVG 326-->
<!DOCTYPE svg
PUBLIC "-//W3C//DTD SVG 1.1//EN"
       "http://www.w3.org/Graphics/SVG/1.1/DTD/svg11.dtd">
<svg version="1.1" xmlns="http://www.w3.org/2000/svg" xmlns:xlink="http://www.w3.org/1999/xlink" viewBox="0 0 62.3438 63.9552">
 <g>
  <rect height="63.9552" opacity="0" width="62.3438" x="0" y="0"/>
  <path d="M45.2344 54.8389C45.2344 55.7959 44.4531 56.5772 43.4961 56.5772L18.4961 56.5772C17.5195 56.5772 16.7383 55.7959 16.7383 54.8389C16.7383 53.8623 17.5195 53.0811 18.4961 53.0811L43.4961 53.0811C44.4531 53.0811 45.2344 53.8623 45.2344 54.8389ZM3.59375 8.17875L6.2294 10.8155L6.17188 10.8155C4.47266 10.8155 3.45703 11.8116 3.45703 13.5303L3.45703 42.417C3.45703 44.1162 4.47266 45.1123 6.17188 45.1123L40.5123 45.1123L43.9679 48.5694L6.11328 48.5694C2.30469 48.5694 0 46.2842 0 42.4756L0 13.4522C0 10.6978 1.20542 8.74019 3.3183 7.87346ZM61.9727 13.4522L61.9727 42.4756C61.9727 45.7634 60.2698 47.9158 57.3511 48.4392L54.027 45.1123L55.8008 45.1123C57.5 45.1123 58.5156 44.1162 58.5156 42.417L58.5156 13.5303C58.5156 11.8116 57.5 10.8155 55.8008 10.8155L19.758 10.8155L16.3038 7.35844L55.8789 7.35844C59.6875 7.35844 61.9727 9.64359 61.9727 13.4522Z" fill="black" fill-opacity="0.85"/>
  <path d="M53.8086 54.0186C54.4531 54.6631 55.5078 54.6631 56.1523 54.0186C56.7969 53.3545 56.8164 52.2998 56.1523 51.6553L8.16406 3.62797C7.53906 2.98344 6.48438 2.94437 5.80078 3.62797C5.15625 4.25297 5.15625 5.34672 5.80078 5.97172Z" fill="black" fill-opacity="0.85"/>
 </g>
</svg>
