<?xml version="1.0" encoding="UTF-8"?>
<!--Generator: Apple Native CoreSVG 326-->
<!DOCTYPE svg
PUBLIC "-//W3C//DTD SVG 1.1//EN"
       "http://www.w3.org/Graphics/SVG/1.1/DTD/svg11.dtd">
<svg version="1.1" xmlns="http://www.w3.org/2000/svg" xmlns:xlink="http://www.w3.org/1999/xlink" viewBox="0 0 51.25 50.918">
 <g>
  <rect height="50.918" opacity="0" width="51.25" x="0" y="0"/>
  <path d="M35.9375 47.7539L36.543 44.9609C30.7422 44.7656 26.7578 35.4492 25.8594 27.4805C35.6836 18.5742 42.4609 7.5 37.4023 3.22266L35.5469 5.37109C38.6133 7.94922 33.2617 16.8945 24.0039 25.3125C14.9414 21.4258 5.48828 20 0.9375 25.2148L2.98828 26.8164C6.40625 23.1641 14.3164 24.2383 23.0273 28.0469C24.043 36.3281 28.5156 47.1875 35.9375 47.7539ZM29.4727 40.0195C46.1719 29.8633 48.5742 16.9922 47.3047 12.7734L44.5703 13.5938C45.5469 16.8555 43.457 28.418 27.6758 37.8125ZM22.8125 50.2539L24.9219 47.9688C20.7617 46.6016 11.9336 38.0859 11.5234 23.5938L8.65234 23.8477C9.08203 38.2617 17.5977 47.6562 22.8125 50.2539ZM32.3242 17.1094L33.6523 14.5898C26.7773 9.58984 13.8867 5.72266 4.45312 12.2266L4.55078 15.2734C13.0859 8.59375 25.4297 12.1484 32.3242 17.1094ZM25.4297 0C11.3867 0 0 11.4062 0 25.4492C0 39.4922 11.3867 50.8789 25.4297 50.8789C39.4727 50.8789 50.8789 39.4922 50.8789 25.4492C50.8789 11.4062 39.4727 0 25.4297 0ZM25.4297 2.96875C37.8516 2.96875 47.9102 13.0273 47.9102 25.4492C47.9102 37.8516 37.8516 47.9102 25.4297 47.9102C13.0273 47.9102 2.96875 37.8516 2.96875 25.4492C2.96875 13.0273 13.0273 2.96875 25.4297 2.96875Z" fill="black" fill-opacity="0.85"/>
 </g>
</svg>
