<?xml version="1.0" encoding="UTF-8"?>
<!--Generator: Apple Native CoreSVG 326-->
<!DOCTYPE svg
PUBLIC "-//W3C//DTD SVG 1.1//EN"
       "http://www.w3.org/Graphics/SVG/1.1/DTD/svg11.dtd">
<svg version="1.1" xmlns="http://www.w3.org/2000/svg" xmlns:xlink="http://www.w3.org/1999/xlink" viewBox="0 0 51.25 50.918">
 <g>
  <rect height="50.918" opacity="0" width="51.25" x="0" y="0"/>
  <path d="M50.8789 25.4688C50.8789 39.4922 39.4531 50.918 25.4297 50.918C11.4258 50.918 0 39.4922 0 25.4688C0 11.4648 11.4258 0.0390625 25.4297 0.0390625C39.4531 0.0390625 50.8789 11.4648 50.8789 25.4688ZM13.6328 19.8633L13.6328 36.5039C13.6328 38.3789 14.8242 39.6484 16.6406 39.6484L34.0625 39.6484C35.8984 39.6484 37.0703 38.3789 37.0703 36.5039L37.0703 19.8633ZM32.6367 29.1992C32.6367 33.2031 29.375 36.4648 25.3516 36.4648C21.3281 36.4648 18.0664 33.2031 18.0664 29.1992C18.0664 25.1758 21.3281 21.9141 25.3516 21.9141C29.375 21.9141 32.6367 25.1758 32.6367 29.1992ZM19.8047 29.1992C19.8047 32.3047 22.2461 34.7266 25.3516 34.7266C28.457 34.7266 30.8984 32.3047 30.8984 29.1992C30.8984 26.0742 28.457 23.6328 25.3516 23.6328C22.2461 23.6328 19.8047 26.0742 19.8047 29.1992ZM16.6406 11.2305C14.8242 11.2305 13.6328 12.4805 13.6328 14.375L13.6328 18.0664L37.0703 18.0664L37.0703 14.375C37.0703 12.4805 35.8984 11.2305 34.0625 11.2305ZM19.6875 15.2344C19.6875 15.918 19.1406 16.4844 18.4375 16.4844C17.7539 16.4844 17.1875 15.918 17.1875 15.2344C17.1875 14.5312 17.7539 13.9648 18.4375 13.9648C19.1406 13.9648 19.6875 14.5312 19.6875 15.2344ZM23.3008 15.2344C23.3008 15.918 22.7539 16.4844 22.0703 16.4844C21.3672 16.4844 20.8398 15.918 20.8398 15.2344C20.8398 14.5312 21.3672 13.9648 22.0703 13.9648C22.7539 13.9648 23.3008 14.5312 23.3008 15.2344ZM33.7695 15.2344C33.7695 15.6445 33.457 15.957 33.0273 15.957L29.5117 15.957C29.1016 15.957 28.7891 15.6445 28.7891 15.2344C28.7891 14.8047 29.1016 14.4922 29.5117 14.4922L33.0273 14.4922C33.457 14.4922 33.7695 14.8047 33.7695 15.2344Z" fill="black" fill-opacity="0.85"/>
 </g>
</svg>
