<?xml version="1.0" encoding="UTF-8"?>
<!--Generator: Apple Native CoreSVG 326-->
<!DOCTYPE svg
PUBLIC "-//W3C//DTD SVG 1.1//EN"
       "http://www.w3.org/Graphics/SVG/1.1/DTD/svg11.dtd">
<svg version="1.1" xmlns="http://www.w3.org/2000/svg" xmlns:xlink="http://www.w3.org/1999/xlink" viewBox="0 0 27.6953 59.1602">
 <g>
  <rect height="59.1602" opacity="0" width="27.6953" x="0" y="0"/>
  <path d="M6.79688 6.36719L20.5469 6.36719C21.7773 6.36719 22.6758 5.50781 22.6758 4.23828L22.6758 2.12891C22.6758 0.878906 21.7773 0 20.5469 0L6.79688 0C5.52734 0 4.66797 0.878906 4.66797 2.12891L4.66797 4.23828C4.66797 5.50781 5.52734 6.36719 6.79688 6.36719ZM0.0195312 18.6133L27.3047 18.6133C27.2266 15.6445 26.7773 13.5742 25.1172 11.3477L24.4141 10.3906C23.7695 9.49219 22.7344 8.90625 21.6211 8.90625L5.70312 8.90625C4.58984 8.90625 3.55469 9.49219 2.89062 10.3906L2.20703 11.3477C0.546875 13.5742 0.0976562 15.6445 0.0195312 18.6133ZM0 21.6406L0 47.2852L27.3242 47.2852L27.3242 21.6406ZM13.6523 43.0469C10.0195 43.0469 7.63672 40.7227 7.63672 37.2266C7.63672 35.4297 8.45703 33.9844 8.86719 33.0469C9.82422 30.9961 11.3867 28.3398 12.7344 26.3086C12.9883 25.8984 13.3398 25.6836 13.6523 25.6836C14.0039 25.6836 14.3164 25.8984 14.5703 26.3086C15.918 28.3398 17.5195 30.9961 18.4375 33.0469C18.8867 33.9844 19.668 35.4297 19.668 37.2266C19.668 40.7227 17.2852 43.0469 13.6523 43.0469ZM0 50.3125L0 50.957C0 56.2891 2.63672 59.1211 7.51953 59.1211L19.7852 59.1211C24.6875 59.1211 27.3242 56.2891 27.3242 50.957L27.3242 50.3125Z" fill="black" fill-opacity="0.85"/>
 </g>
</svg>
