<?xml version="1.0" encoding="UTF-8"?>
<!--Generator: Apple Native CoreSVG 326-->
<!DOCTYPE svg
PUBLIC "-//W3C//DTD SVG 1.1//EN"
       "http://www.w3.org/Graphics/SVG/1.1/DTD/svg11.dtd">
<svg version="1.1" xmlns="http://www.w3.org/2000/svg" xmlns:xlink="http://www.w3.org/1999/xlink" viewBox="0 0 46.2891 45.918">
 <g>
  <rect height="45.918" opacity="0" width="46.2891" x="0" y="0"/>
  <path d="M45.918 7.53906L45.918 38.3984C45.918 43.3594 43.3594 45.918 38.3008 45.918L7.59766 45.918C2.55859 45.918 0 43.3984 0 38.3984L0 7.53906C0 2.53906 2.55859 0 7.59766 0L38.3008 0C43.3594 0 45.918 2.55859 45.918 7.53906ZM18.1641 30.0977C17.9688 30.3906 18.0273 30.7227 18.3008 30.9766L21.7773 34.3359C22.3438 34.9023 22.6172 35.0586 22.9883 35.0586C23.3398 35.0586 23.6133 34.9219 24.2188 34.3359L27.6953 30.9766C27.9492 30.7227 28.0078 30.3125 27.7539 30C26.7773 28.6719 24.8633 27.7344 22.9883 27.7344C21.0742 27.7344 19.1797 28.6914 18.1641 30.0977ZM12.2266 23.9648C11.9727 24.2773 12.0117 24.6484 12.3047 24.9609L14.4336 27.1289C14.8047 27.4805 15.2734 27.5195 15.6641 27.0703C17.4414 25.0977 20.2539 23.8086 22.9883 23.8477C25.6836 23.8086 28.5156 25.0977 30.332 27.0898C30.7031 27.5 31.1523 27.4805 31.5234 27.1289L33.6914 24.9609C33.9844 24.668 34.0039 24.2578 33.7305 23.9648C31.4062 21.1328 27.2461 19.2969 22.9883 19.2969C18.7109 19.2969 14.5508 21.1328 12.2266 23.9648ZM6.46484 18.1055C6.19141 18.457 6.25 18.8477 6.54297 19.1602L8.4375 21.0938C8.73047 21.4844 9.27734 21.4648 9.64844 21.0742C13.0859 17.4023 17.7344 15.4102 22.9883 15.4102C28.2227 15.4102 32.9297 17.3633 36.3672 21.0938C36.6992 21.4453 37.1875 21.4453 37.5195 21.0742L39.4141 19.1602C39.7266 18.8477 39.7656 18.457 39.4922 18.1055C35.9766 13.8086 29.4336 10.8984 22.9883 10.8984C16.5234 10.8984 9.98047 13.7891 6.46484 18.1055Z" fill="black" fill-opacity="0.85"/>
 </g>
</svg>
