<?xml version="1.0" encoding="UTF-8"?>
<!--Generator: Apple Native CoreSVG 326-->
<!DOCTYPE svg
PUBLIC "-//W3C//DTD SVG 1.1//EN"
       "http://www.w3.org/Graphics/SVG/1.1/DTD/svg11.dtd">
<svg version="1.1" xmlns="http://www.w3.org/2000/svg" xmlns:xlink="http://www.w3.org/1999/xlink" viewBox="0 0 46.2891 45.918">
 <g>
  <rect height="45.918" opacity="0" width="46.2891" x="0" y="0"/>
  <path d="M45.918 7.53906L45.918 38.3984C45.918 43.3594 43.3594 45.918 38.3008 45.918L7.59766 45.918C2.55859 45.918 0 43.3984 0 38.3984L0 7.53906C0 2.53906 2.55859 0 7.59766 0L38.3008 0C43.3594 0 45.918 2.55859 45.918 7.53906ZM14.0039 12.2656C14.0039 12.5391 14.1016 12.8516 14.2969 13.1641L20.8008 23.5742L16.6016 23.5742C16.1523 23.5742 15.8008 23.9062 15.8008 24.375C15.8008 24.8242 16.1523 25.1758 16.6016 25.1758L21.6406 25.1758L21.6406 27.9297L16.6016 27.9297C16.1523 27.9297 15.8008 28.2812 15.8008 28.75C15.8008 29.1797 16.1523 29.5312 16.6016 29.5312L21.6406 29.5312L21.6406 33.4766C21.6406 34.2773 22.1875 34.8438 22.9688 34.8438C23.75 34.8438 24.2969 34.2773 24.2969 33.4766L24.2969 29.5312L29.4531 29.5312C29.9219 29.5312 30.2539 29.1797 30.2539 28.75C30.2539 28.2812 29.9219 27.9297 29.4531 27.9297L24.2969 27.9297L24.2969 25.1758L29.4531 25.1758C29.9219 25.1758 30.2539 24.8242 30.2539 24.375C30.2539 23.9062 29.9219 23.5742 29.4531 23.5742L25.1367 23.5742L31.6797 13.125C31.8555 12.8125 31.9336 12.6367 31.9336 12.2656C31.9336 11.543 31.3672 11.0547 30.6055 11.0547C30.1172 11.0547 29.707 11.3086 29.4141 11.8164L23.0273 22.4609L22.9297 22.4609L16.5625 11.8164C16.2695 11.3086 15.9375 11.0352 15.332 11.0352C14.5703 11.0352 14.0039 11.5234 14.0039 12.2656Z" fill="black" fill-opacity="0.85"/>
 </g>
</svg>
