<?xml version="1.0" encoding="UTF-8"?>
<!--Generator: Apple Native CoreSVG 326-->
<!DOCTYPE svg
PUBLIC "-//W3C//DTD SVG 1.1//EN"
       "http://www.w3.org/Graphics/SVG/1.1/DTD/svg11.dtd">
<svg version="1.1" xmlns="http://www.w3.org/2000/svg" xmlns:xlink="http://www.w3.org/1999/xlink" viewBox="0 0 52.9492 48.1445">
 <g>
  <rect height="48.1445" opacity="0" width="52.9492" x="0" y="0"/>
  <path d="M6.52344 0C2.46094 0 0 2.87109 0 6.48438C0 7.63672 0.3125 8.84766 0.976562 9.98047L20.7227 44.5117C21.9531 46.6797 24.1016 47.7344 26.2891 47.7344C28.457 47.7344 30.625 46.6797 31.8555 44.5117L51.6016 9.98047C52.2461 8.86719 52.5781 7.63672 52.5781 6.48438C52.5781 2.87109 50.1172 0 46.0352 0ZM6.5625 3.39844L45.9766 3.39844C47.9102 3.39844 49.082 4.86328 49.082 6.50391C49.082 7.08984 48.9258 7.73438 48.5938 8.35938L28.8672 42.8711C28.3008 43.9062 27.2852 44.3164 26.2891 44.3164C25.293 44.3164 24.2578 43.9062 23.6719 42.8711L3.96484 8.37891C3.63281 7.75391 3.47656 7.08984 3.47656 6.50391C3.47656 4.86328 4.62891 3.39844 6.5625 3.39844Z" fill="black" fill-opacity="0.85"/>
  <path d="M9.62891 7.01172C8.57422 7.01172 7.94922 8.00781 8.51562 8.98438L25.1562 38.1445C25.6836 39.1211 26.8555 39.1211 27.4219 38.1445L44.043 8.98438C44.5898 8.02734 43.9844 7.01172 42.9297 7.01172Z" fill="black" fill-opacity="0.85"/>
 </g>
</svg>
