<?xml version="1.0" encoding="UTF-8"?>
<!--Generator: Apple Native CoreSVG 326-->
<!DOCTYPE svg
PUBLIC "-//W3C//DTD SVG 1.1//EN"
       "http://www.w3.org/Graphics/SVG/1.1/DTD/svg11.dtd">
<svg version="1.1" xmlns="http://www.w3.org/2000/svg" xmlns:xlink="http://www.w3.org/1999/xlink" viewBox="0 0 51.25 50.918">
 <g>
  <rect height="50.918" opacity="0" width="51.25" x="0" y="0"/>
  <path d="M25.4297 50.8789C39.4727 50.8789 50.8789 39.4922 50.8789 25.4492C50.8789 11.4062 39.4727 0 25.4297 0C11.3867 0 0 11.4062 0 25.4492C0 39.4922 11.3867 50.8789 25.4297 50.8789ZM25.4297 47.2461C13.3789 47.2461 3.63281 37.5 3.63281 25.4492C3.63281 13.3984 13.3789 3.65234 25.4297 3.65234C37.4805 3.65234 47.2266 13.3984 47.2266 25.4492C47.2266 37.5 37.4805 47.2461 25.4297 47.2461Z" fill="black" fill-opacity="0.85"/>
  <path d="M17.6172 36.1328C22.5391 36.1328 23.9258 30.3516 23.9258 25.4492C23.9258 20.5469 22.5391 14.7656 17.6172 14.7656C12.6953 14.7656 11.2891 20.5469 11.2891 25.4492C11.2891 30.3516 12.6953 36.1328 17.6172 36.1328ZM17.6172 33.4961C15.2539 33.4961 14.5117 29.6289 14.5117 25.4492C14.5117 21.25 15.2539 17.4023 17.6172 17.4023C19.9805 17.4023 20.7227 21.25 20.7227 25.4492C20.7227 29.6289 19.9805 33.4961 17.6172 33.4961ZM33.2227 36.1328C38.1445 36.1328 39.5312 30.3516 39.5312 25.4492C39.5312 20.5469 38.1445 14.7656 33.2227 14.7656C28.2812 14.7656 26.8945 20.5469 26.8945 25.4492C26.8945 30.3516 28.2812 36.1328 33.2227 36.1328ZM33.2227 33.4961C30.8398 33.4961 30.1172 29.6289 30.1172 25.4492C30.1172 21.25 30.8398 17.4023 33.2227 17.4023C35.5859 17.4023 36.3281 21.25 36.3281 25.4492C36.3281 29.6289 35.5859 33.4961 33.2227 33.4961Z" fill="black" fill-opacity="0.85"/>
 </g>
</svg>
