<?xml version="1.0" encoding="UTF-8"?>
<!--Generator: Apple Native CoreSVG 326-->
<!DOCTYPE svg
PUBLIC "-//W3C//DTD SVG 1.1//EN"
       "http://www.w3.org/Graphics/SVG/1.1/DTD/svg11.dtd">
<svg version="1.1" xmlns="http://www.w3.org/2000/svg" xmlns:xlink="http://www.w3.org/1999/xlink" viewBox="0 0 46.2891 37.9492">
 <g>
  <rect height="37.9492" opacity="0" width="46.2891" x="0" y="0"/>
  <path d="M0 36.2109C0 37.168 0.78125 37.9492 1.73828 37.9492C2.67578 37.9492 3.45703 37.168 3.45703 36.2109L3.45703 1.79688C3.45703 0.839844 2.67578 0.0585938 1.73828 0.0585938C0.78125 0.0585938 0 0.839844 0 1.79688ZM42.4609 36.2109C42.4609 37.168 43.2422 37.9492 44.1797 37.9492C45.1367 37.9492 45.918 37.168 45.918 36.2109L45.918 1.79688C45.918 0.839844 45.1367 0.0585938 44.1797 0.0585938C43.2422 0.0585938 42.4609 0.839844 42.4609 1.79688Z" fill="black" fill-opacity="0.85"/>
  <path d="M16.6016 29.9414C17.6172 29.9414 18.2422 29.2188 18.2422 28.2227L18.2422 10.6445C18.2422 9.49219 17.5195 8.82812 16.3672 8.82812C15.4297 8.82812 14.7852 9.23828 14.043 9.78516L10.6836 12.2656C10.2148 12.6172 9.92188 13.0078 9.92188 13.5938C9.92188 14.2773 10.4102 14.8047 11.1133 14.8047C11.4453 14.8047 11.6992 14.707 11.9727 14.5117L14.9219 12.3047L14.9609 12.3047L14.9609 28.2227C14.9609 29.2383 15.5859 29.9414 16.6016 29.9414ZM24.3555 29.8633L34.4531 29.8633C35.2734 29.8633 35.8008 29.3555 35.8008 28.5156C35.8008 27.6953 35.2734 27.1875 34.4531 27.1875L26.9727 27.1875L26.9727 27.0312L31.2891 22.168C32.2656 21.0742 33.0469 20.0977 33.6328 19.2969C34.6484 17.8711 35.2734 16.4844 35.2734 14.7266C35.2734 11.1328 32.6172 8.84766 29.0039 8.84766C25.8398 8.84766 23.3594 11.0547 22.9102 13.5156C22.8711 13.7695 22.8516 14.0039 22.8516 14.2383C22.8516 15.0781 23.3789 15.6445 24.2188 15.6445C24.9609 15.6445 25.4297 15.2539 25.6836 14.5508C26.1133 12.7539 27.1875 11.4844 29.0039 11.4844C30.9375 11.4844 32.0898 12.9688 32.0898 14.8633C32.0898 16.2109 31.6211 17.207 30.8594 18.3203C30.4102 18.9844 29.7461 19.8242 28.9062 20.8008L23.6719 26.7383C23.2031 27.2461 22.793 27.7539 22.793 28.4961C22.793 29.1797 23.1836 29.8633 24.3555 29.8633Z" fill="black" fill-opacity="0.85"/>
 </g>
</svg>
