<?xml version="1.0" encoding="UTF-8"?>
<!--Generator: Apple Native CoreSVG 326-->
<!DOCTYPE svg
PUBLIC "-//W3C//DTD SVG 1.1//EN"
       "http://www.w3.org/Graphics/SVG/1.1/DTD/svg11.dtd">
<svg version="1.1" xmlns="http://www.w3.org/2000/svg" xmlns:xlink="http://www.w3.org/1999/xlink" viewBox="0 0 51.25 50.918">
 <g>
  <rect height="50.918" opacity="0" width="51.25" x="0" y="0"/>
  <path d="M50.8789 25.4492C50.8789 39.4531 39.4531 50.8789 25.4297 50.8789C11.4258 50.8789 0 39.4531 0 25.4492C0 11.4258 11.4258 0 25.4297 0C39.4531 0 50.8789 11.4258 50.8789 25.4492ZM29.1211 16.9336L24.1211 27.5391C23.7305 28.418 23.5938 29.0039 23.5938 29.7266C23.5938 30.8398 24.3555 31.6016 25.5078 31.6016L31.5039 31.6016L31.5039 34.5703C31.5039 35.7422 32.3438 36.2109 33.0859 36.2109C33.9453 36.2109 34.6484 35.6445 34.6484 34.5703L34.6484 31.6016L35.7227 31.6016C36.6016 31.6016 37.0312 31.0352 37.0312 30.2539C37.0312 29.5117 36.6211 28.9453 35.7227 28.9453L34.6484 28.9453L34.6484 17.1484C34.6484 15.5078 33.5742 14.6875 32.1289 14.6875C30.5273 14.6875 29.7656 15.5078 29.1211 16.9336ZM15.5859 15.625L12.5781 18.0273C12.168 18.3398 11.8555 18.7695 11.8555 19.3555C11.8555 20.0781 12.3438 20.5859 13.0469 20.5859C13.418 20.5859 13.6328 20.4688 13.8867 20.2734L16.4258 18.2227L16.4258 34.4727C16.4258 35.4102 17.1875 36.1523 18.125 36.1523C19.0039 36.1523 19.7461 35.4102 19.7461 34.4727L19.7461 16.543C19.7461 15.3906 19.0234 14.6875 17.8516 14.6875C16.9141 14.6875 16.1328 15.2148 15.5859 15.625ZM31.5625 29.0039L26.4258 29.0039L26.4258 28.8672L31.4844 17.6562L31.5625 17.6562Z" fill="black" fill-opacity="0.85"/>
 </g>
</svg>
