<?xml version="1.0" encoding="UTF-8"?>
<!--Generator: Apple Native CoreSVG 326-->
<!DOCTYPE svg
PUBLIC "-//W3C//DTD SVG 1.1//EN"
       "http://www.w3.org/Graphics/SVG/1.1/DTD/svg11.dtd">
<svg version="1.1" xmlns="http://www.w3.org/2000/svg" xmlns:xlink="http://www.w3.org/1999/xlink" viewBox="0 0 51.25 50.918">
 <g>
  <rect height="50.918" opacity="0" width="51.25" x="0" y="0"/>
  <path d="M50.8789 25.4492C50.8789 39.4531 39.4531 50.8789 25.4297 50.8789C11.4258 50.8789 0 39.4531 0 25.4492C0 11.4258 11.4258 0 25.4297 0C39.4531 0 50.8789 11.4258 50.8789 25.4492ZM24.0234 25.7422C24.0234 30.6055 25.5469 36.3867 30.625 36.3867C34.4727 36.3867 36.6602 33.0664 36.6602 29.0625C36.6602 25.5859 34.9805 22.2461 31.543 22.2461C29.375 22.2461 27.793 23.7695 27.2266 26.0156L27.1289 26.0156C27.1289 25.918 27.1289 25.8008 27.1289 25.7031C27.1289 22.6953 27.5195 17.2266 30.5859 17.2266C31.9141 17.2266 32.7539 18.1836 33.2227 19.4141C33.5352 20.1172 33.9453 20.4688 34.707 20.4688C35.625 20.4688 36.0352 19.8828 36.0352 19.1211C36.0352 18.8477 35.9766 18.5156 35.8984 18.1836C35.3516 15.9375 33.2031 14.5508 30.6641 14.5508C25.4883 14.5508 24.0234 20.6445 24.0234 25.7422ZM15.7031 15.625L12.6953 18.0273C12.2852 18.3398 11.9922 18.7695 11.9922 19.3555C11.9922 20.0781 12.4805 20.5859 13.1836 20.5859C13.5352 20.5859 13.7695 20.4688 13.9844 20.2734L16.543 18.2227L16.543 34.4727C16.543 35.4102 17.3047 36.1523 18.2227 36.1523C19.1211 36.1523 19.8828 35.4102 19.8828 34.4727L19.8828 16.543C19.8828 15.3906 19.1406 14.6875 17.9883 14.6875C17.0117 14.6875 16.25 15.2148 15.7031 15.625ZM33.4961 29.2188C33.4961 31.2695 32.5586 33.7109 30.5859 33.7109C28.4961 33.7109 27.5781 31.1328 27.5781 29.082C27.5781 27.0508 28.5742 24.7656 30.5664 24.7656C32.6367 24.7656 33.5352 27.1484 33.4961 29.2188Z" fill="black" fill-opacity="0.85"/>
 </g>
</svg>
