<?xml version="1.0" encoding="UTF-8"?>
<!--Generator: Apple Native CoreSVG 326-->
<!DOCTYPE svg
PUBLIC "-//W3C//DTD SVG 1.1//EN"
       "http://www.w3.org/Graphics/SVG/1.1/DTD/svg11.dtd">
<svg version="1.1" xmlns="http://www.w3.org/2000/svg" xmlns:xlink="http://www.w3.org/1999/xlink" viewBox="0 0 51.25 50.918">
 <g>
  <rect height="50.918" opacity="0" width="51.25" x="0" y="0"/>
  <path d="M50.8789 25.4492C50.8789 39.4531 39.4531 50.8789 25.4297 50.8789C11.4258 50.8789 0 39.4531 0 25.4492C0 11.4258 11.4258 0 25.4297 0C39.4531 0 50.8789 11.4258 50.8789 25.4492ZM12.4219 19.9609C12.4219 20.7617 12.9102 21.3867 13.7891 21.3867C14.5312 21.3867 15 21.0352 15.2344 20.293C15.6836 18.3984 16.4062 17.168 18.0273 17.168C19.7656 17.168 20.6641 18.75 20.6641 20.625C20.6641 22.6562 19.3945 24.668 17.9492 26.543L13.2031 32.7539C12.793 33.3008 12.3828 33.8672 12.3828 34.5703C12.3828 35.332 12.9102 35.8984 13.9453 35.8984L22.8516 35.8984C23.6719 35.8984 24.1602 35.3516 24.1602 34.5508C24.1602 33.7109 23.6523 33.2031 22.8516 33.2031L16.4258 33.2031L16.4258 33.0078L20.4883 27.7539C22.9492 24.6094 23.75 22.7148 23.75 20.4688C23.75 17.0508 21.543 14.5117 18.0273 14.5117C14.8047 14.5117 12.4219 17.2461 12.4219 19.9609ZM26.9336 19.9609C26.9336 20.7617 27.4023 21.3867 28.3008 21.3867C29.0625 21.3867 29.5312 21.0352 29.7461 20.293C30.1953 18.3984 30.918 17.168 32.5391 17.168C34.2773 17.168 35.1758 18.75 35.1758 20.625C35.1758 22.6562 33.8867 24.668 32.4805 26.543L27.7148 32.7539C27.2852 33.3008 26.9141 33.8672 26.9141 34.5703C26.9141 35.332 27.4023 35.8984 28.4375 35.8984L37.3828 35.8984C38.1836 35.8984 38.6914 35.3516 38.6914 34.5508C38.6914 33.7109 38.1641 33.2031 37.3828 33.2031L30.957 33.2031L30.957 33.0078L35 27.7539C37.4414 24.6094 38.2617 22.7148 38.2617 20.4688C38.2617 17.0508 36.0352 14.5117 32.5586 14.5117C29.3164 14.5117 26.9336 17.2461 26.9336 19.9609Z" fill="black" fill-opacity="0.85"/>
 </g>
</svg>
