<?xml version="1.0" encoding="UTF-8"?>
<!--Generator: Apple Native CoreSVG 326-->
<!DOCTYPE svg
PUBLIC "-//W3C//DTD SVG 1.1//EN"
       "http://www.w3.org/Graphics/SVG/1.1/DTD/svg11.dtd">
<svg version="1.1" xmlns="http://www.w3.org/2000/svg" xmlns:xlink="http://www.w3.org/1999/xlink" viewBox="0 0 46.2891 45.918">
 <g>
  <rect height="45.918" opacity="0" width="46.2891" x="0" y="0"/>
  <path d="M7.59766 45.918L38.3008 45.918C43.3594 45.918 45.918 43.3594 45.918 38.3984L45.918 7.53906C45.918 2.55859 43.3594 0 38.3008 0L7.59766 0C2.55859 0 0 2.53906 0 7.53906L0 38.3984C0 43.3984 2.55859 45.918 7.59766 45.918ZM7.67578 42.4609C4.94141 42.4609 3.45703 41.0156 3.45703 38.2031L3.45703 7.71484C3.45703 4.92188 4.94141 3.45703 7.67578 3.45703L38.2422 3.45703C40.918 3.45703 42.4609 4.92188 42.4609 7.71484L42.4609 38.2031C42.4609 41.0156 40.918 42.4609 38.2422 42.4609Z" fill="black" fill-opacity="0.85"/>
  <path d="M11.0352 33.1445L19.7656 33.1445C20.5469 33.1445 21.0156 32.6172 21.0156 31.8359C21.0156 31.0156 20.5273 30.5273 19.7656 30.5273L13.4766 30.5273L13.4766 30.3516L17.4414 25.1758C19.8242 22.1289 20.625 20.2734 20.625 18.0859C20.625 14.7461 18.457 12.2656 15.0586 12.2656C11.8945 12.2656 9.57031 14.9414 9.57031 17.5781C9.57031 18.3789 10.0391 18.9648 10.8984 18.9648C11.6406 18.9648 12.0898 18.6328 12.3047 17.9102C12.7344 16.0547 13.457 14.8438 15.0391 14.8438C16.7578 14.8438 17.6367 16.4062 17.6367 18.2227C17.6367 20.2148 16.3867 22.168 14.9805 24.0039L10.332 30.0977C9.92188 30.625 9.55078 31.1719 9.55078 31.8359C9.55078 32.5977 10.0391 33.1445 11.0352 33.1445ZM30.0391 33.5547C33.8867 33.5547 36.3672 31.0547 36.3672 27.6367C36.3672 24.9414 34.6875 22.8906 32.6562 22.4219L32.6562 22.3438C34.3945 21.7969 35.8008 20.0977 35.8008 17.8125C35.8008 14.6289 33.4961 12.3633 30.0391 12.3633C26.9531 12.3633 24.3164 14.3555 24.3164 17.793C24.3164 20.2539 25.7812 21.8164 27.4805 22.3438L27.4805 22.4219C25.332 22.9102 23.7305 24.9609 23.7305 27.6367C23.7305 31.2305 26.3867 33.5547 30.0391 33.5547ZM30.0391 21.3086C28.3984 21.3086 27.3828 19.8047 27.3828 18.1055C27.3828 16.3281 28.3789 14.7656 30.0391 14.7656C31.8359 14.7656 32.7148 16.3867 32.7148 18.1055C32.7148 19.8828 31.7188 21.3086 30.0391 21.3086ZM30.0391 31.1328C28.0664 31.1328 27.0312 29.3945 27.0312 27.4023C27.0312 25.4102 28.0859 23.75 30.0391 23.75C31.9336 23.75 33.0859 25.293 33.0859 27.4023C33.0859 29.3945 32.0508 31.1328 30.0391 31.1328Z" fill="black" fill-opacity="0.85"/>
 </g>
</svg>
