<?xml version="1.0" encoding="UTF-8"?>
<!--Generator: Apple Native CoreSVG 326-->
<!DOCTYPE svg
PUBLIC "-//W3C//DTD SVG 1.1//EN"
       "http://www.w3.org/Graphics/SVG/1.1/DTD/svg11.dtd">
<svg version="1.1" xmlns="http://www.w3.org/2000/svg" xmlns:xlink="http://www.w3.org/1999/xlink" viewBox="0 0 46.2891 45.918">
 <g>
  <rect height="45.918" opacity="0" width="46.2891" x="0" y="0"/>
  <path d="M45.918 7.53906L45.918 38.3984C45.918 43.3594 43.3594 45.918 38.3008 45.918L7.59766 45.918C2.55859 45.918 0 43.3984 0 38.3984L0 7.53906C0 2.53906 2.55859 0 7.59766 0L38.3008 0C43.3594 0 45.918 2.55859 45.918 7.53906ZM24.2383 22.9102C24.2383 27.9492 25.6836 33.8477 30.7422 33.8477C35.7812 33.8477 37.207 27.9492 37.207 22.9102C37.207 17.8711 35.7812 11.9727 30.7422 11.9727C25.6836 11.9727 24.2383 17.8711 24.2383 22.9102ZM9.49219 15.8594C9.33594 16.3672 9.29688 16.8359 9.29688 17.2266C9.29688 17.9883 9.78516 18.5938 10.6836 18.5938C11.5039 18.5938 11.9141 18.2617 12.1484 17.4609C12.5391 15.8398 13.418 14.7266 15.0391 14.7266C16.8555 14.7266 17.7344 16.1523 17.7344 17.9688C17.7344 19.9414 16.6016 21.4258 14.5703 21.4258L13.8477 21.4258C13.0469 21.4258 12.5977 21.9336 12.5977 22.6562C12.5977 23.418 13.0859 23.8867 13.8477 23.8867L14.6094 23.8867C16.9336 23.8867 18.2227 25.1367 18.2227 27.5586C18.2227 29.4531 17.207 31.1133 15.1367 31.1133C13.1445 31.1133 12.1875 29.7266 11.8945 28.418C11.6602 27.6367 11.1914 27.2461 10.4297 27.2461C9.55078 27.2461 8.96484 27.793 8.96484 28.6914C8.96484 29.1211 9.04297 29.6094 9.16016 30.0391C9.90234 32.4023 12.3633 33.7891 15.1367 33.7891C18.7305 33.7891 21.4648 31.4453 21.4648 27.6367C21.4648 24.5312 19.668 22.8125 17.3633 22.5977L17.3633 22.5C19.707 21.8945 20.8398 19.7852 20.8398 17.6172C20.8398 14.1406 18.3203 12.0703 15.0391 12.0703C12.3828 12.0703 10.2148 13.5742 9.49219 15.8594ZM33.9062 22.9102C33.9062 27.2266 33.1445 31.1328 30.7422 31.1328C28.3203 31.1328 27.5781 27.2266 27.5781 22.9102C27.5781 18.5938 28.3203 14.6875 30.7422 14.6875C33.1445 14.6875 33.9062 18.5938 33.9062 22.9102Z" fill="black" fill-opacity="0.85"/>
 </g>
</svg>
