<?xml version="1.0" encoding="UTF-8"?>
<!--Generator: Apple Native CoreSVG 326-->
<!DOCTYPE svg
PUBLIC "-//W3C//DTD SVG 1.1//EN"
       "http://www.w3.org/Graphics/SVG/1.1/DTD/svg11.dtd">
<svg version="1.1" xmlns="http://www.w3.org/2000/svg" xmlns:xlink="http://www.w3.org/1999/xlink" viewBox="0 0 51.25 50.918">
 <g>
  <rect height="50.918" opacity="0" width="51.25" x="0" y="0"/>
  <path d="M50.8789 25.4492C50.8789 39.4531 39.4531 50.8789 25.4297 50.8789C11.4258 50.8789 0 39.4531 0 25.4492C0 11.4258 11.4258 0 25.4297 0C39.4531 0 50.8789 11.4258 50.8789 25.4492ZM11.6016 18.3789C11.4648 18.8867 11.4062 19.3359 11.4062 19.7656C11.4062 20.5078 11.9141 21.1133 12.8125 21.1133C13.6133 21.1133 14.043 20.7812 14.2773 20C14.6484 18.3789 15.5469 17.2461 17.1484 17.2461C18.9648 17.2461 19.8633 18.6719 19.8633 20.5078C19.8633 22.4805 18.7109 23.9648 16.6992 23.9648L15.957 23.9648C15.1758 23.9648 14.6875 24.4531 14.6875 25.1953C14.6875 25.9375 15.2148 26.4062 15.957 26.4062L16.7383 26.4062C19.0234 26.4062 20.332 27.6758 20.332 30.0586C20.332 31.9727 19.3359 33.6328 17.2656 33.6328C15.2734 33.6328 14.3164 32.2461 13.9844 30.957C13.7891 30.1758 13.3203 29.7852 12.5586 29.7852C11.6797 29.7852 11.0742 30.332 11.0742 31.2109C11.0742 31.6602 11.1523 32.1484 11.2891 32.5586C12.0117 34.9219 14.4922 36.3086 17.2461 36.3086C20.8398 36.3086 23.5742 33.9844 23.5742 30.1562C23.5742 27.0508 21.7578 25.3516 19.4922 25.1172L19.4922 25.0391C21.8359 24.4141 22.9492 22.3242 22.9492 20.1367C22.9492 16.6602 20.4492 14.6094 17.1484 14.6094C14.4922 14.6094 12.3438 16.1133 11.6016 18.3789ZM31.7969 16.9336L26.7969 27.5391C26.4062 28.418 26.2695 29.0039 26.2695 29.7266C26.2695 30.8398 27.0312 31.6016 28.1836 31.6016L34.1992 31.6016L34.1992 34.5508C34.1992 35.7422 35.0195 36.2109 35.7617 36.2109C36.6016 36.2109 37.3242 35.6445 37.3242 34.5508L37.3242 31.6016L38.3984 31.6016C39.2969 31.6016 39.707 31.0352 39.707 30.2539C39.707 29.5117 39.2969 28.9453 38.3984 28.9453L37.3242 28.9453L37.3242 17.1484C37.3242 15.5078 36.25 14.6875 34.7852 14.6875C33.2031 14.6875 32.4609 15.5078 31.7969 16.9336ZM34.2578 29.0039L29.082 29.0039L29.082 28.8672L34.1602 17.6562L34.2578 17.6562Z" fill="black" fill-opacity="0.85"/>
 </g>
</svg>
