<?xml version="1.0" encoding="UTF-8"?>
<!--Generator: Apple Native CoreSVG 326-->
<!DOCTYPE svg
PUBLIC "-//W3C//DTD SVG 1.1//EN"
       "http://www.w3.org/Graphics/SVG/1.1/DTD/svg11.dtd">
<svg version="1.1" xmlns="http://www.w3.org/2000/svg" xmlns:xlink="http://www.w3.org/1999/xlink" viewBox="0 0 51.25 50.918">
 <g>
  <rect height="50.918" opacity="0" width="51.25" x="0" y="0"/>
  <path d="M25.4297 50.8789C39.4727 50.8789 50.8789 39.4922 50.8789 25.4492C50.8789 11.4062 39.4727 0 25.4297 0C11.3867 0 0 11.4062 0 25.4492C0 39.4922 11.3867 50.8789 25.4297 50.8789ZM25.4297 47.2461C13.3789 47.2461 3.63281 37.5 3.63281 25.4492C3.63281 13.3984 13.3789 3.65234 25.4297 3.65234C37.4805 3.65234 47.2266 13.3984 47.2266 25.4492C47.2266 37.5 37.4805 47.2461 25.4297 47.2461Z" fill="black" fill-opacity="0.85"/>
  <path d="M17.6367 36.0547C21.1328 36.0547 23.8086 33.7891 23.8086 30.0391C23.8086 27.0117 22.0508 25.3516 19.8242 25.1172L19.8242 25.0391C22.1094 24.4336 23.2031 22.4023 23.2031 20.2539C23.2031 16.875 20.7617 14.8633 17.5391 14.8633C14.9609 14.8633 12.8711 16.3281 12.1484 18.5547C12.0117 19.043 11.9531 19.4922 11.9531 19.9023C11.9531 20.625 12.4414 21.2109 13.3203 21.2109C14.1016 21.2109 14.5117 20.8984 14.7266 20.1172C15.0977 18.5352 15.9766 17.4219 17.5391 17.4219C19.3164 17.4219 20.2148 18.8281 20.2148 20.625C20.2148 22.5586 19.082 24.0039 17.1094 24.0039L16.3867 24.0039C15.625 24.0039 15.1562 24.4727 15.1562 25.1953C15.1562 25.918 15.6641 26.3672 16.3867 26.3672L17.1484 26.3672C19.3945 26.3672 20.6641 27.6172 20.6641 29.9609C20.6641 31.8359 19.6875 33.457 17.6562 33.457C15.6836 33.457 14.7461 32.0898 14.4531 30.8203C14.2578 30.0781 13.7891 29.6875 13.0664 29.6875C12.207 29.6875 11.6211 30.2148 11.6211 31.0742C11.6211 31.5039 11.6992 31.9922 11.8359 32.3828C12.5391 34.6875 14.9609 36.0547 17.6367 36.0547ZM33.0078 36.1328C36.7773 36.1328 38.8867 32.8906 38.8867 28.9844C38.8867 25.5859 37.2461 22.3242 33.9062 22.3242C31.7773 22.3242 30.2344 23.8086 29.6875 26.0156L29.5898 26.0156C29.5898 25.918 29.5898 25.8008 29.5898 25.7031C29.5898 22.7539 29.9805 17.4023 32.9883 17.4023C34.2773 17.4023 35.0977 18.3398 35.5469 19.5508C35.8594 20.2344 36.2695 20.6055 37.0117 20.6055C37.8906 20.6055 38.2812 20.0195 38.2812 19.2773C38.2812 19.0039 38.2422 18.6914 38.1445 18.3594C37.5977 16.1719 35.5078 14.8047 33.0469 14.8047C27.9883 14.8047 26.582 20.7617 26.582 25.7422C26.582 30.4883 28.0469 36.1328 33.0078 36.1328ZM32.9688 33.5352C30.918 33.5352 30.0391 31.0156 30.0391 29.0039C30.0391 27.0117 31.0156 24.7656 32.9688 24.7656C34.9805 24.7656 35.8594 27.0898 35.8203 29.1211C35.8203 31.1328 34.9023 33.5352 32.9688 33.5352Z" fill="black" fill-opacity="0.85"/>
 </g>
</svg>
