<?xml version="1.0" encoding="UTF-8"?>
<!--Generator: Apple Native CoreSVG 326-->
<!DOCTYPE svg
PUBLIC "-//W3C//DTD SVG 1.1//EN"
       "http://www.w3.org/Graphics/SVG/1.1/DTD/svg11.dtd">
<svg version="1.1" xmlns="http://www.w3.org/2000/svg" xmlns:xlink="http://www.w3.org/1999/xlink" viewBox="0 0 46.2891 45.918">
 <g>
  <rect height="45.918" opacity="0" width="46.2891" x="0" y="0"/>
  <path d="M7.59766 45.918L38.3008 45.918C43.3594 45.918 45.918 43.3594 45.918 38.3984L45.918 7.53906C45.918 2.55859 43.3594 0 38.3008 0L7.59766 0C2.55859 0 0 2.53906 0 7.53906L0 38.3984C0 43.3984 2.55859 45.918 7.59766 45.918ZM7.67578 42.4609C4.94141 42.4609 3.45703 41.0156 3.45703 38.2031L3.45703 7.71484C3.45703 4.92188 4.94141 3.45703 7.67578 3.45703L38.2422 3.45703C40.918 3.45703 42.4609 4.92188 42.4609 7.71484L42.4609 38.2031C42.4609 41.0156 40.918 42.4609 38.2422 42.4609Z" fill="black" fill-opacity="0.85"/>
  <path d="M17.793 33.4375C18.6133 33.4375 19.2969 32.8906 19.2969 31.8555L19.2969 28.9453L20.3711 28.9453C21.2109 28.9453 21.6406 28.3984 21.6406 27.6367C21.6406 26.9141 21.2305 26.3672 20.3711 26.3672L19.2969 26.3672L19.2969 14.8242C19.2969 13.2617 18.2617 12.4414 16.8555 12.4414C15.3125 12.4414 14.5898 13.2422 13.9453 14.6289L9.04297 25C8.67188 25.8594 8.53516 26.4258 8.53516 27.1289C8.53516 28.2031 9.27734 28.9453 10.3906 28.9453L16.2695 28.9453L16.2695 31.8555C16.2695 33.0078 17.0703 33.4375 17.793 33.4375ZM16.3281 26.4258L11.2891 26.4258L11.2891 26.2891L16.2305 15.332L16.3281 15.332ZM25.6836 33.1445L34.4141 33.1445C35.1953 33.1445 35.6836 32.6172 35.6836 31.8359C35.6836 31.0156 35.1758 30.5273 34.4141 30.5273L28.125 30.5273L28.125 30.3516L32.0898 25.1758C34.4922 22.1289 35.2734 20.2734 35.2734 18.0859C35.2734 14.7461 33.125 12.2656 29.707 12.2656C26.5625 12.2656 24.2383 14.9414 24.2383 17.5781C24.2383 18.3789 24.707 18.9648 25.5664 18.9648C26.2891 18.9648 26.7383 18.6328 26.9531 17.9102C27.4023 16.0547 28.1055 14.8438 29.707 14.8438C31.4062 14.8438 32.2852 16.4062 32.2852 18.2227C32.2852 20.2148 31.0547 22.168 29.6484 24.0039L25 30.0977C24.5898 30.625 24.1992 31.1719 24.1992 31.8359C24.1992 32.5977 24.707 33.1445 25.6836 33.1445Z" fill="black" fill-opacity="0.85"/>
 </g>
</svg>
