<?xml version="1.0" encoding="UTF-8"?>
<!--Generator: Apple Native CoreSVG 326-->
<!DOCTYPE svg
PUBLIC "-//W3C//DTD SVG 1.1//EN"
       "http://www.w3.org/Graphics/SVG/1.1/DTD/svg11.dtd">
<svg version="1.1" xmlns="http://www.w3.org/2000/svg" xmlns:xlink="http://www.w3.org/1999/xlink" viewBox="0 0 46.2891 45.918">
 <g>
  <rect height="45.918" opacity="0" width="46.2891" x="0" y="0"/>
  <path d="M45.918 7.53906L45.918 38.3984C45.918 43.3594 43.3594 45.918 38.3008 45.918L7.59766 45.918C2.55859 45.918 0 43.3984 0 38.3984L0 7.53906C0 2.53906 2.55859 0 7.59766 0L38.3008 0C43.3594 0 45.918 2.55859 45.918 7.53906ZM13.2422 14.4336L8.24219 25.0391C7.85156 25.918 7.71484 26.5039 7.71484 27.2266C7.71484 28.3398 8.47656 29.1016 9.60938 29.1016L15.625 29.1016L15.625 32.0508C15.625 33.2422 16.4453 33.7109 17.207 33.7109C18.0664 33.7109 18.75 33.1445 18.75 32.0508L18.75 29.1016L19.8438 29.1016C20.7227 29.1016 21.1523 28.5352 21.1523 27.7539C21.1523 27.0117 20.7422 26.4453 19.8438 26.4453L18.75 26.4453L18.75 14.6484C18.75 13.0078 17.6953 12.1875 16.25 12.1875C14.6484 12.1875 13.8867 13.0078 13.2422 14.4336ZM29.2188 14.4336L24.2188 25.0391C23.8477 25.918 23.6914 26.5039 23.6914 27.2266C23.6914 28.3398 24.4727 29.1016 25.6055 29.1016L31.6211 29.1016L31.6211 32.0508C31.6211 33.2422 32.4414 33.7109 33.2031 33.7109C34.043 33.7109 34.7461 33.1445 34.7461 32.0508L34.7461 29.1016L35.8398 29.1016C36.6992 29.1016 37.1484 28.5352 37.1484 27.7539C37.1484 27.0117 36.7188 26.4453 35.8398 26.4453L34.7461 26.4453L34.7461 14.6484C34.7461 13.0078 33.6719 12.1875 32.2266 12.1875C30.625 12.1875 29.8828 13.0078 29.2188 14.4336ZM15.6836 26.5039L10.5469 26.5039L10.5469 26.3672L15.5859 15.1562L15.6836 15.1562ZM31.6797 26.5039L26.5234 26.5039L26.5234 26.3672L31.582 15.1562L31.6797 15.1562Z" fill="black" fill-opacity="0.85"/>
 </g>
</svg>
