<?xml version="1.0" encoding="UTF-8"?>
<!--Generator: Apple Native CoreSVG 326-->
<!DOCTYPE svg
PUBLIC "-//W3C//DTD SVG 1.1//EN"
       "http://www.w3.org/Graphics/SVG/1.1/DTD/svg11.dtd">
<svg version="1.1" xmlns="http://www.w3.org/2000/svg" xmlns:xlink="http://www.w3.org/1999/xlink" viewBox="0 0 46.2891 45.918">
 <g>
  <rect height="45.918" opacity="0" width="46.2891" x="0" y="0"/>
  <path d="M7.59766 45.918L38.3008 45.918C43.3594 45.918 45.918 43.3594 45.918 38.3984L45.918 7.53906C45.918 2.55859 43.3594 0 38.3008 0L7.59766 0C2.55859 0 0 2.53906 0 7.53906L0 38.3984C0 43.3984 2.55859 45.918 7.59766 45.918ZM7.67578 42.4609C4.94141 42.4609 3.45703 41.0156 3.45703 38.2031L3.45703 7.71484C3.45703 4.92188 4.94141 3.45703 7.67578 3.45703L38.2422 3.45703C40.918 3.45703 42.4609 4.92188 42.4609 7.71484L42.4609 38.2031C42.4609 41.0156 40.918 42.4609 38.2422 42.4609Z" fill="black" fill-opacity="0.85"/>
  <path d="M17.7344 33.4375C18.5547 33.4375 19.2383 32.8906 19.2383 31.8555L19.2383 28.9453L20.3125 28.9453C21.1523 28.9453 21.582 28.3984 21.582 27.6367C21.582 26.9141 21.1719 26.3672 20.3125 26.3672L19.2383 26.3672L19.2383 14.8242C19.2383 13.2617 18.2031 12.4414 16.7969 12.4414C15.2539 12.4414 14.5312 13.2422 13.8867 14.6289L8.98438 25C8.61328 25.8594 8.47656 26.4258 8.47656 27.1289C8.47656 28.2031 9.21875 28.9453 10.332 28.9453L16.2109 28.9453L16.2109 31.8555C16.2109 33.0078 17.0117 33.4375 17.7344 33.4375ZM16.2695 26.4258L11.2305 26.4258L11.2305 26.2891L16.1719 15.332L16.2695 15.332ZM29.1211 26.0938C31.25 26.0938 32.793 24.6289 33.3398 22.4219L33.4375 22.4219C33.4375 22.5195 33.4375 22.6367 33.4375 22.7344C33.4375 25.6836 33.0469 30.9766 30.0195 30.9766C28.75 30.9766 27.9297 30.0977 27.4609 28.8477C27.1289 28.0664 26.6797 27.7539 26.0352 27.7539C25.0977 27.7539 24.707 28.3789 24.707 29.1211C24.707 29.3945 24.7656 29.7266 24.8633 30.0391C25.4102 32.2656 27.5195 33.5938 29.9609 33.5938C35.0195 33.5938 36.4453 27.7344 36.4453 22.6953C36.4453 17.9492 34.9805 12.3047 30.0195 12.3047C26.2891 12.3047 24.1406 15.5469 24.1406 19.4727C24.1406 22.8516 25.7812 26.0938 29.1211 26.0938ZM30.0586 23.6328C28.0469 23.6328 27.1875 21.3477 27.1875 19.3359C27.1875 17.2656 28.125 14.9023 30.0586 14.9023C32.1094 14.9023 32.9883 17.2852 32.9883 19.3359C32.9883 21.4258 32.0117 23.6328 30.0586 23.6328Z" fill="black" fill-opacity="0.85"/>
 </g>
</svg>
