<?xml version="1.0" encoding="UTF-8"?>
<!--Generator: Apple Native CoreSVG 326-->
<!DOCTYPE svg
PUBLIC "-//W3C//DTD SVG 1.1//EN"
       "http://www.w3.org/Graphics/SVG/1.1/DTD/svg11.dtd">
<svg version="1.1" xmlns="http://www.w3.org/2000/svg" xmlns:xlink="http://www.w3.org/1999/xlink" viewBox="0 0 51.25 50.918">
 <g>
  <rect height="50.918" opacity="0" width="51.25" x="0" y="0"/>
  <path d="M50.8789 25.4492C50.8789 39.4531 39.4531 50.8789 25.4297 50.8789C11.4258 50.8789 0 39.4531 0 25.4492C0 11.4258 11.4258 0 25.4297 0C39.4531 0 50.8789 11.4258 50.8789 25.4492ZM15.0391 16.9336L10.0391 27.5391C9.66797 28.418 9.53125 29.0039 9.53125 29.7266C9.53125 30.8398 10.293 31.6016 11.4453 31.6016L17.4219 31.6016L17.4219 34.5508C17.4219 35.7422 18.2812 36.2109 19.0234 36.2109C19.8633 36.2109 20.5664 35.6445 20.5664 34.5508L20.5664 31.6016L21.6602 31.6016C22.5195 31.6016 22.9492 31.0352 22.9492 30.2539C22.9492 29.5117 22.5586 28.9453 21.6602 28.9453L20.5664 28.9453L20.5664 17.1484C20.5664 15.5078 19.5117 14.6875 18.0469 14.6875C16.4648 14.6875 15.6836 15.5078 15.0391 16.9336ZM30.0391 16.7578L25.5078 33.6719C25.4297 33.9258 25.3516 34.3945 25.3516 34.668C25.3516 35.6055 25.957 36.2109 26.9141 36.2109C27.793 36.2109 28.3594 35.7617 28.5547 34.7461L29.5312 30.7227L35.5469 30.7227L36.543 34.7656C36.7773 35.8984 37.4414 36.2109 38.2422 36.2109C39.1211 36.2109 39.7461 35.5664 39.7461 34.668C39.7461 34.2578 39.707 33.9648 39.6094 33.6328L35.0781 16.7578C34.7266 15.332 33.8281 14.707 32.5195 14.707C31.1914 14.707 30.3906 15.4102 30.0391 16.7578ZM17.5 29.0039L12.3438 29.0039L12.3438 28.8672L17.4023 17.6562L17.5 17.6562ZM34.9414 28.2031L30.1367 28.2031L32.4219 18.5547L32.5977 18.5547Z" fill="black" fill-opacity="0.85"/>
 </g>
</svg>
