<?xml version="1.0" encoding="UTF-8"?>
<!--Generator: Apple Native CoreSVG 326-->
<!DOCTYPE svg
PUBLIC "-//W3C//DTD SVG 1.1//EN"
       "http://www.w3.org/Graphics/SVG/1.1/DTD/svg11.dtd">
<svg version="1.1" xmlns="http://www.w3.org/2000/svg" xmlns:xlink="http://www.w3.org/1999/xlink" viewBox="0 0 63.2617 37.2461">
 <g>
  <rect height="37.2461" opacity="0" width="63.2617" x="0" y="0"/>
  <path d="M20.0586 37.2266C21.1133 37.2266 21.875 36.4258 21.875 35.3125L21.875 28.6133L25.6445 28.6133C26.6406 28.6133 27.3242 27.9883 27.3242 26.9922C27.3242 26.0547 26.6211 25.3711 25.6445 25.3711L21.875 25.3711L21.875 3.00781C21.875 1.25 20.5859 0.0195312 18.8086 0.0195312C16.9141 0.0195312 15.8008 1.38672 14.8047 2.96875L0.820312 23.7305C0.292969 24.5703 0 25.4297 0 26.2109C0 27.5977 0.917969 28.6133 2.61719 28.6133L18.2422 28.6133L18.2422 35.3125C18.2422 36.6211 19.1602 37.2266 20.0586 37.2266ZM18.2422 25.4102L3.65234 25.4102L3.65234 25.2344L18.0469 3.94531L18.2422 3.94531ZM34.3359 37.1875C35.4297 37.1875 35.9961 36.7578 36.4062 35.5859L40 25.8789L55.3711 25.8789L58.9648 35.5859C59.375 36.7578 59.9414 37.1875 61.0352 37.1875C62.168 37.1875 62.8906 36.5234 62.8906 35.4297C62.8906 35.0781 62.8125 34.7266 62.6562 34.2773L50.3906 1.95312C49.9023 0.664062 49.043 0 47.6953 0C46.3672 0 45.4883 0.644531 45.0391 1.93359L32.7539 34.2969C32.5977 34.7461 32.5195 35.0977 32.5195 35.4492C32.5195 36.543 33.2227 37.1875 34.3359 37.1875ZM41.0547 22.6367L47.6172 4.84375L47.7539 4.84375L54.2969 22.6367Z" fill="black" fill-opacity="0.85"/>
 </g>
</svg>
