<?xml version="1.0" encoding="UTF-8"?>
<!--Generator: Apple Native CoreSVG 326-->
<!DOCTYPE svg
PUBLIC "-//W3C//DTD SVG 1.1//EN"
       "http://www.w3.org/Graphics/SVG/1.1/DTD/svg11.dtd">
<svg version="1.1" xmlns="http://www.w3.org/2000/svg" xmlns:xlink="http://www.w3.org/1999/xlink" viewBox="0 0 57.5195 37.2852">
 <g>
  <rect height="37.2852" opacity="0" width="57.5195" x="0" y="0"/>
  <path d="M20.0586 37.2461C21.1133 37.2461 21.875 36.4453 21.875 35.332L21.875 28.6328L25.6445 28.6328C26.6406 28.6328 27.3242 28.0078 27.3242 27.0117C27.3242 26.0742 26.6211 25.3906 25.6445 25.3906L21.875 25.3906L21.875 3.02734C21.875 1.26953 20.5859 0.0390625 18.8086 0.0390625C16.9141 0.0390625 15.8008 1.40625 14.8047 2.98828L0.820312 23.75C0.292969 24.5898 0 25.4492 0 26.2305C0 27.6172 0.917969 28.6328 2.61719 28.6328L18.2422 28.6328L18.2422 35.332C18.2422 36.6406 19.1602 37.2461 20.0586 37.2461ZM18.2422 25.4297L3.65234 25.4297L3.65234 25.2539L18.0469 3.96484L18.2422 3.96484ZM36.875 36.7578L55.3711 36.7578C56.4062 36.7578 57.1484 36.0547 57.1484 35.0586C57.1484 34.1016 56.4062 33.418 55.3711 33.418L38.7891 33.418L38.7891 1.89453C38.7891 0.839844 37.9492 0 36.8945 0C35.8203 0 34.9805 0.839844 34.9805 1.89453L34.9805 34.7656C34.9805 36.1719 35.8984 36.7578 36.875 36.7578Z" fill="black" fill-opacity="0.85"/>
 </g>
</svg>
