<?xml version="1.0" encoding="UTF-8"?>
<!--Generator: Apple Native CoreSVG 326-->
<!DOCTYPE svg
PUBLIC "-//W3C//DTD SVG 1.1//EN"
       "http://www.w3.org/Graphics/SVG/1.1/DTD/svg11.dtd">
<svg version="1.1" xmlns="http://www.w3.org/2000/svg" xmlns:xlink="http://www.w3.org/1999/xlink" viewBox="0 0 46.2891 45.918">
 <g>
  <rect height="45.918" opacity="0" width="46.2891" x="0" y="0"/>
  <path d="M7.59766 45.918L38.3008 45.918C43.3594 45.918 45.918 43.3594 45.918 38.3984L45.918 7.53906C45.918 2.55859 43.3594 0 38.3008 0L7.59766 0C2.55859 0 0 2.53906 0 7.53906L0 38.3984C0 43.3984 2.55859 45.918 7.59766 45.918ZM7.67578 42.4609C4.94141 42.4609 3.45703 41.0156 3.45703 38.2031L3.45703 7.71484C3.45703 4.92188 4.94141 3.45703 7.67578 3.45703L38.2422 3.45703C40.918 3.45703 42.4609 4.92188 42.4609 7.71484L42.4609 38.2031C42.4609 41.0156 40.918 42.4609 38.2422 42.4609Z" fill="black" fill-opacity="0.85"/>
  <path d="M23.1641 34.8242C28.1055 34.8242 31.5625 31.8555 31.5625 26.8555C31.5625 22.2266 28.0664 19.4922 24.0625 19.4922C20.6641 19.4922 18.6523 21.1914 17.7539 23.1641C17.6953 23.1641 17.6367 23.1641 17.5781 23.1641C17.5781 23.0664 17.5781 22.9883 17.5781 22.8906C17.5781 17.3438 19.9805 13.8477 23.6328 13.8477C25.4883 13.8477 26.6992 14.7266 27.4609 15.8008C28.125 16.5039 28.5352 16.8945 29.2969 16.8945C30.0391 16.8945 30.625 16.3672 30.625 15.5859C30.625 15.2539 30.5469 14.9609 30.4102 14.6484C29.707 12.8516 27.0703 11.0742 23.7305 11.0742C17.9688 11.0742 14.3945 15.3125 14.3945 23.5352C14.3945 26.8945 14.9805 29.3945 15.9766 31.0547C17.5195 33.6719 20.1953 34.8242 23.1641 34.8242ZM23.0273 32.168C20.0586 32.168 17.9102 30 17.9102 26.9922C17.9102 24.1016 20.0391 22.0117 23.0664 22.0117C26.0938 22.0117 28.1641 24.0625 28.1641 27.0312C28.1641 30.1562 26.1523 32.168 23.0273 32.168Z" fill="black" fill-opacity="0.85"/>
 </g>
</svg>
