<?xml version="1.0" encoding="UTF-8"?>
<!--Generator: Apple Native CoreSVG 326-->
<!DOCTYPE svg
PUBLIC "-//W3C//DTD SVG 1.1//EN"
       "http://www.w3.org/Graphics/SVG/1.1/DTD/svg11.dtd">
<svg version="1.1" xmlns="http://www.w3.org/2000/svg" xmlns:xlink="http://www.w3.org/1999/xlink" viewBox="0 0 51.25 50.918">
 <g>
  <rect height="50.918" opacity="0" width="51.25" x="0" y="0"/>
  <path d="M25.4297 50.8789C39.4727 50.8789 50.8789 39.4922 50.8789 25.4492C50.8789 11.4062 39.4727 0 25.4297 0C11.3867 0 0 11.4062 0 25.4492C0 39.4922 11.3867 50.8789 25.4297 50.8789ZM25.4297 47.2461C13.3789 47.2461 3.63281 37.5 3.63281 25.4492C3.63281 13.3984 13.3789 3.65234 25.4297 3.65234C37.4805 3.65234 47.2266 13.3984 47.2266 25.4492C47.2266 37.5 37.4805 47.2461 25.4297 47.2461Z" fill="black" fill-opacity="0.85"/>
  <path d="M25.3711 37.3242C30.5469 37.3242 34.1211 34.5703 34.1211 30.5664C34.1211 27.793 32.0703 25.4688 29.1211 24.8828L29.1211 24.7266C31.582 24.0234 33.1641 22.0117 33.1641 19.6094C33.1641 16.0547 29.9609 13.5742 25.4102 13.5742C20.8789 13.5742 17.6562 16.0547 17.6562 19.6094C17.6562 22.0117 19.2188 23.9844 21.7188 24.7266L21.7188 24.8828C18.7305 25.4688 16.7188 27.8125 16.7188 30.5859C16.7188 34.5898 20.2148 37.3242 25.3711 37.3242ZM25.4297 34.8828C22.2852 34.8828 20 33.0273 20 30.4297C20 27.9297 22.3047 26.0742 25.4297 26.0742C28.6133 26.0742 30.8594 27.9102 30.8594 30.4297C30.8594 33.0273 28.5742 34.8828 25.4297 34.8828ZM25.4102 23.7305C22.7539 23.7305 20.8594 22.1094 20.8594 19.8633C20.8594 17.6172 22.7344 16.0352 25.4102 16.0352C28.0859 16.0352 29.9609 17.6172 29.9609 19.8633C29.9609 22.1094 28.0664 23.7305 25.4102 23.7305Z" fill="black" fill-opacity="0.85"/>
 </g>
</svg>
