<?xml version="1.0" encoding="UTF-8"?>
<!--Generator: Apple Native CoreSVG 326-->
<!DOCTYPE svg
PUBLIC "-//W3C//DTD SVG 1.1//EN"
       "http://www.w3.org/Graphics/SVG/1.1/DTD/svg11.dtd">
<svg version="1.1" xmlns="http://www.w3.org/2000/svg" xmlns:xlink="http://www.w3.org/1999/xlink" viewBox="0 0 58.9258 59.082">
 <g>
  <rect height="59.082" opacity="0" width="58.9258" x="0" y="0"/>
  <path d="M19.0234 50.4102C24.8828 50.4102 29.6289 45.6836 29.6289 39.7656C29.6289 33.9648 24.8633 29.2383 19.0234 29.2383C13.1836 29.2383 8.4375 33.9648 8.4375 39.7656C8.4375 45.6641 13.1836 50.4102 19.0234 50.4102ZM38.418 32.5977C45.1367 32.5977 50.6445 27.0703 50.6445 20.3125C50.6445 13.6133 45.1367 8.125 38.418 8.125C31.6797 8.125 26.1523 13.6133 26.1523 20.3125C26.1523 27.0703 31.6797 32.5977 38.418 32.5977ZM29.668 6.07422C30.9961 6.07422 32.0703 5 32.0703 3.67188C32.0703 2.32422 30.9961 1.26953 29.668 1.26953C28.3203 1.26953 27.2656 2.32422 27.2656 3.67188C27.2656 5 28.3203 6.07422 29.668 6.07422ZM43.8867 4.98047C45.2344 4.98047 46.2891 3.92578 46.2891 2.57812C46.2891 1.25 45.2344 0.195312 43.8867 0.195312C42.5586 0.195312 41.4844 1.25 41.4844 2.57812C41.4844 3.92578 42.5586 4.98047 43.8867 4.98047ZM55.0781 14.0234C56.4062 14.0234 57.4805 12.9492 57.4805 11.6211C57.4805 10.293 56.4062 9.21875 55.0781 9.21875C53.75 9.21875 52.6758 10.293 52.6758 11.6211C52.6758 12.9492 53.75 14.0234 55.0781 14.0234ZM56.1523 28.3008C57.4805 28.3008 58.5547 27.2266 58.5547 25.8984C58.5547 24.5703 57.4805 23.4961 56.1523 23.4961C54.8047 23.4961 53.75 24.5703 53.75 25.8984C53.75 27.2266 54.8047 28.3008 56.1523 28.3008ZM47.1289 39.2188C48.457 39.2188 49.5312 38.1641 49.5312 36.8359C49.5312 35.4883 48.457 34.4336 47.1289 34.4336C45.8008 34.4336 44.7266 35.4883 44.7266 36.8359C44.7266 38.1641 45.8008 39.2188 47.1289 39.2188ZM36.2305 46.9922C37.5781 46.9922 38.6328 45.918 38.6328 44.5898C38.6328 43.2422 37.5781 42.1875 36.2305 42.1875C34.9023 42.1875 33.8477 43.2422 33.8477 44.5898C33.8477 45.918 34.9023 46.9922 36.2305 46.9922ZM27.5391 57.3242C28.8672 57.3242 29.9414 56.25 29.9414 54.9219C29.9414 53.5938 28.8672 52.5195 27.5391 52.5195C26.1914 52.5195 25.1367 53.5938 25.1367 54.9219C25.1367 56.25 26.1914 57.3242 27.5391 57.3242ZM14.2188 59.082C15.5469 59.082 16.6211 58.0273 16.6211 56.6992C16.6211 55.3516 15.5469 54.2969 14.2188 54.2969C12.8711 54.2969 11.8164 55.3516 11.8164 56.6992C11.8164 58.0273 12.8711 59.082 14.2188 59.082ZM3.92578 50.6641C5.25391 50.6641 6.32812 49.5898 6.32812 48.2617C6.32812 46.9336 5.25391 45.8594 3.92578 45.8594C2.57812 45.8594 1.52344 46.9336 1.52344 48.2617C1.52344 49.5898 2.57812 50.6641 3.92578 50.6641ZM2.40234 37.168C3.73047 37.168 4.80469 36.1133 4.80469 34.7852C4.80469 33.4375 3.73047 32.3828 2.40234 32.3828C1.05469 32.3828 0 33.4375 0 34.7852C0 36.1133 1.05469 37.168 2.40234 37.168ZM10.9961 26.4648C12.3242 26.4648 13.3984 25.4102 13.3984 24.082C13.3984 22.7344 12.3242 21.6797 10.9961 21.6797C9.66797 21.6797 8.59375 22.7344 8.59375 24.082C8.59375 25.4102 9.66797 26.4648 10.9961 26.4648ZM21.0352 17.2266C22.3828 17.2266 23.4375 16.1719 23.4375 14.8438C23.4375 13.4961 22.3828 12.4414 21.0352 12.4414C19.707 12.4414 18.6328 13.4961 18.6328 14.8438C18.6328 16.1719 19.707 17.2266 21.0352 17.2266Z" fill="black" fill-opacity="0.85"/>
 </g>
</svg>
