<?xml version="1.0" encoding="UTF-8"?>
<!--Generator: Apple Native CoreSVG 326-->
<!DOCTYPE svg
PUBLIC "-//W3C//DTD SVG 1.1//EN"
       "http://www.w3.org/Graphics/SVG/1.1/DTD/svg11.dtd">
<svg version="1.1" xmlns="http://www.w3.org/2000/svg" xmlns:xlink="http://www.w3.org/1999/xlink" viewBox="0 0 51.25 50.918">
 <g>
  <rect height="50.918" opacity="0" width="51.25" x="0" y="0"/>
  <path d="M25.4297 50.8789C39.4727 50.8789 50.8789 39.4922 50.8789 25.4492C50.8789 11.4062 39.4727 0 25.4297 0C11.3867 0 0 11.4062 0 25.4492C0 39.4922 11.3867 50.8789 25.4297 50.8789ZM25.4297 47.2461C13.3789 47.2461 3.63281 37.5 3.63281 25.4492C3.63281 13.3984 13.3789 3.65234 25.4297 3.65234C37.4805 3.65234 47.2266 13.3984 47.2266 25.4492C47.2266 37.5 37.4805 47.2461 25.4297 47.2461Z" fill="black" fill-opacity="0.85"/>
  <path d="M15.2148 37.8125C17.6562 38.5547 20.3711 38.6133 23.0664 38.0469L12.8516 27.8125C12.2656 30.5078 12.3438 33.2227 13.0664 35.6641C13.4961 37.0117 13.8867 37.3828 15.2148 37.8125ZM32.7148 32.7344C34.9023 30.5664 36.4453 28.0273 37.3633 25.3906L25.5078 13.5156C22.8516 14.4336 20.332 15.9766 18.1445 18.1836C15.957 20.3516 14.4141 22.8711 13.4961 25.5078L25.3711 37.3828C28.0078 36.4648 30.5469 34.9219 32.7148 32.7344ZM23.6133 30.8594C23.3398 31.0938 23.0078 31.0547 22.7539 30.8398L20 28.1445C19.7852 27.9102 19.7656 27.5391 20 27.2852C20.2734 27.0508 20.6445 27.0703 20.8594 27.2852L21.8164 28.2422L22.793 27.2461L21.8359 26.3281C21.6016 26.0938 21.6016 25.6836 21.8359 25.4688C22.0703 25.2148 22.4414 25.2148 22.6758 25.4492L23.6328 26.4258L24.6094 25.4102L23.6719 24.4531C23.4375 24.2578 23.418 23.8477 23.6719 23.6523C23.8867 23.3984 24.2578 23.3984 24.4727 23.6328L25.4492 24.6094L26.4648 23.5938L25.4883 22.6367C25.2539 22.4414 25.2539 22.0312 25.4883 21.8164C25.7422 21.582 26.1133 21.582 26.3086 21.8164L27.2656 22.7539L28.2812 21.7773L27.3242 20.8203C27.1094 20.5859 27.0898 20.2148 27.3047 19.9805C27.5391 19.7656 27.9102 19.7461 28.1445 19.9805L30.8984 22.6953C31.1328 22.9492 31.1133 23.3203 30.8984 23.5742C30.6641 23.8086 30.293 23.7891 30.0391 23.5547L29.1016 22.6172L28.1055 23.5938L29.0625 24.5508C29.2969 24.7656 29.2969 25.1367 29.0625 25.3906C28.8281 25.625 28.457 25.6055 28.2227 25.3711L27.2656 24.4336L26.2695 25.4102L27.2266 26.3672C27.4609 26.6016 27.4805 26.9922 27.2266 27.207C27.0117 27.4609 26.6406 27.4414 26.4258 27.207L25.4492 26.2891L24.4336 27.2461L25.4102 28.1836C25.6641 28.418 25.6641 28.8281 25.4102 29.043C25.1953 29.2578 24.8242 29.2969 24.5703 29.0234L23.6328 28.0859L22.6367 29.0625L23.6133 30.0391C23.8086 30.2539 23.8086 30.625 23.6133 30.8594ZM37.793 15.2344C37.3633 13.8867 36.9922 13.5156 35.6641 13.0859C33.2227 12.3438 30.5273 12.3047 27.8125 12.8711L38.0273 23.0859C38.6133 20.3711 38.5352 17.6758 37.793 15.2344Z" fill="black" fill-opacity="0.85"/>
 </g>
</svg>
