<?xml version="1.0" encoding="UTF-8"?>
<!--Generator: Apple Native CoreSVG 326-->
<!DOCTYPE svg
PUBLIC "-//W3C//DTD SVG 1.1//EN"
       "http://www.w3.org/Graphics/SVG/1.1/DTD/svg11.dtd">
<svg version="1.1" xmlns="http://www.w3.org/2000/svg" xmlns:xlink="http://www.w3.org/1999/xlink" viewBox="0 0 43.4031 62.0508">
 <g>
  <rect height="62.0508" opacity="0" width="43.4031" x="0" y="0"/>
  <path d="M0.00231541 26.6797C-0.0562783 29.2578 0.998409 31.6016 3.02966 33.5938L14.1234 44.7461C9.59216 47.8906 7.932 50.4883 7.932 53.8867C7.932 58.7695 11.8578 61.8945 16.1742 61.9531C18.6742 62.0117 20.9008 61.0547 22.4047 59.5117L40.2172 41.6602C44.2406 37.6367 43.9281 32.8906 39.3968 28.3594L29.1429 18.1055L32.8148 14.4141C34.475 12.7734 35.432 10.625 35.4125 8.51562C35.5101 3.73047 31.8187 0.0195312 26.9945 0C24.2797 0 22.1898 0.976562 19.8265 3.35938L2.48278 20.6836C0.900753 22.2656 0.0413779 24.375 0.00231541 26.6797ZM9.41638 18.6523L22.2679 5.78125C23.9672 4.08203 25.1976 3.47656 26.9945 3.47656C29.9047 3.47656 31.9945 5.56641 31.9945 8.45703C31.9945 9.66797 31.4086 10.957 30.3929 11.9922L16.5258 25.8203C16.4476 21.7969 13.6351 18.9258 9.41638 18.6523ZM3.63513 27.0117C3.63513 23.9258 5.54919 21.8555 8.36169 21.8555C11.3109 21.8555 13.3422 24.0039 13.3422 27.207C13.3422 27.5586 13.3422 28.6133 12.9711 29.6875C12.3656 31.5625 14.6508 32.6367 15.9398 31.3086L26.7015 20.5469L36.975 30.8008C40.1976 34.0039 40.3929 36.6016 37.7758 39.2383L24.3383 52.6758C24.0843 50.2344 22.8734 48.6523 20.2172 45.9766L6.3695 32.0508C4.29919 29.9609 3.63513 28.6914 3.63513 27.0117ZM11.389 54.082C11.389 51.543 12.8929 49.6875 16.6625 47.2656L17.7953 48.3984C20.3734 50.9961 21.1351 52.2266 21.1351 54.082C21.1547 56.5039 18.9476 58.4961 16.1742 58.4961C13.6547 58.4961 11.389 56.6406 11.389 54.082Z" fill="black" fill-opacity="0.85"/>
 </g>
</svg>
