<?xml version="1.0" encoding="UTF-8"?>
<!--Generator: Apple Native CoreSVG 326-->
<!DOCTYPE svg
PUBLIC "-//W3C//DTD SVG 1.1//EN"
       "http://www.w3.org/Graphics/SVG/1.1/DTD/svg11.dtd">
<svg version="1.1" xmlns="http://www.w3.org/2000/svg" xmlns:xlink="http://www.w3.org/1999/xlink" viewBox="0 0 31.6992 52.4805">
 <g>
  <rect height="52.4805" opacity="0" width="31.6992" x="0" y="0"/>
  <path d="M0 45.9961C0 49.9414 2.57812 52.4414 6.66016 52.4414L24.6484 52.4414C28.7305 52.4414 31.3281 49.9414 31.3281 45.9961L31.3281 6.44531C31.3281 2.5 28.7305 0 24.6484 0L6.66016 0C2.57812 0 0 2.5 0 6.44531ZM3.45703 45.4883L3.45703 6.95312C3.45703 4.66797 4.70703 3.45703 7.08984 3.45703L24.2383 3.45703C26.6016 3.45703 27.8516 4.66797 27.8516 6.95312L27.8516 45.4883C27.8516 47.7734 26.6016 48.9844 24.2383 48.9844L7.08984 48.9844C4.70703 48.9844 3.45703 47.7734 3.45703 45.4883Z" fill="black" fill-opacity="0.85"/>
  <path d="M8.08594 45.3906L10.4102 45.3906C10.9766 45.3906 11.3867 45.0195 11.3867 44.4727L11.3867 42.0703C11.3867 41.543 10.9766 41.1719 10.4102 41.1719L8.08594 41.1719C7.53906 41.1719 7.16797 41.543 7.16797 42.0703L7.16797 44.4727C7.16797 45.0195 7.53906 45.3906 8.08594 45.3906ZM14.4531 45.3906L16.7969 45.3906C17.3633 45.3906 17.7539 45.0195 17.7539 44.4727L17.7539 42.0703C17.7539 41.543 17.3633 41.1719 16.7969 41.1719L14.4531 41.1719C13.9062 41.1719 13.5352 41.543 13.5352 42.0703L13.5352 44.4727C13.5352 45.0195 13.9062 45.3906 14.4531 45.3906ZM20.8203 45.3906L23.1641 45.3906C23.7305 45.3906 24.1406 45.0195 24.1406 44.4727L24.1406 42.0703C24.1406 41.543 23.7305 41.1719 23.1641 41.1719L20.8203 41.1719C20.293 41.1719 19.9219 41.543 19.9219 42.0703L19.9219 44.4727C19.9219 45.0195 20.293 45.3906 20.8203 45.3906ZM8.08594 25.0977L10.4102 25.0977C10.9766 25.0977 11.3867 24.7266 11.3867 24.1602L11.3867 21.7773C11.3867 21.2305 10.9766 20.8594 10.4102 20.8594L8.08594 20.8594C7.53906 20.8594 7.16797 21.2305 7.16797 21.7773L7.16797 24.1602C7.16797 24.7266 7.53906 25.0977 8.08594 25.0977ZM14.4531 25.0977L16.7969 25.0977C17.3633 25.0977 17.7539 24.7266 17.7539 24.1602L17.7539 21.7773C17.7539 21.2305 17.3633 20.8594 16.7969 20.8594L14.4531 20.8594C13.9062 20.8594 13.5352 21.2305 13.5352 21.7773L13.5352 24.1602C13.5352 24.7266 13.9062 25.0977 14.4531 25.0977ZM8.08594 18.3203L10.4102 18.3203C10.9766 18.3203 11.3867 17.9492 11.3867 17.4219L11.3867 15.0195C11.3867 14.4727 10.9766 14.1016 10.4102 14.1016L8.08594 14.1016C7.53906 14.1016 7.16797 14.4727 7.16797 15.0195L7.16797 17.4219C7.16797 17.9492 7.53906 18.3203 8.08594 18.3203ZM14.4531 18.3203L16.7969 18.3203C17.3633 18.3203 17.7539 17.9492 17.7539 17.4219L17.7539 15.0195C17.7539 14.4727 17.3633 14.1016 16.7969 14.1016L14.4531 14.1016C13.9062 14.1016 13.5352 14.4727 13.5352 15.0195L13.5352 17.4219C13.5352 17.9492 13.9062 18.3203 14.4531 18.3203ZM20.8203 18.3203L23.1641 18.3203C23.7305 18.3203 24.1406 17.9492 24.1406 17.4219L24.1406 15.0195C24.1406 14.4727 23.7305 14.1016 23.1641 14.1016L20.8203 14.1016C20.293 14.1016 19.9219 14.4727 19.9219 15.0195L19.9219 17.4219C19.9219 17.9492 20.293 18.3203 20.8203 18.3203ZM8.08594 11.5625L10.4102 11.5625C10.9766 11.5625 11.3867 11.1914 11.3867 10.6641L11.3867 8.26172C11.3867 7.73438 10.9766 7.34375 10.4102 7.34375L8.08594 7.34375C7.53906 7.34375 7.16797 7.73438 7.16797 8.26172L7.16797 10.6641C7.16797 11.1914 7.53906 11.5625 8.08594 11.5625ZM14.4531 11.5625L16.7969 11.5625C17.3633 11.5625 17.7539 11.1914 17.7539 10.6641L17.7539 8.26172C17.7539 7.73438 17.3633 7.34375 16.7969 7.34375L14.4531 7.34375C13.9062 7.34375 13.5352 7.73438 13.5352 8.26172L13.5352 10.6641C13.5352 11.1914 13.9062 11.5625 14.4531 11.5625ZM20.8203 11.5625L23.1641 11.5625C23.7305 11.5625 24.1406 11.1914 24.1406 10.6641L24.1406 8.26172C24.1406 7.73438 23.7305 7.34375 23.1641 7.34375L20.8203 7.34375C20.293 7.34375 19.9219 7.73438 19.9219 8.26172L19.9219 10.6641C19.9219 11.1914 20.293 11.5625 20.8203 11.5625Z" fill="black" fill-opacity="0.85"/>
 </g>
</svg>
