<?xml version="1.0" encoding="UTF-8"?>
<!--Generator: Apple Native CoreSVG 326-->
<!DOCTYPE svg
PUBLIC "-//W3C//DTD SVG 1.1//EN"
       "http://www.w3.org/Graphics/SVG/1.1/DTD/svg11.dtd">
<svg version="1.1" xmlns="http://www.w3.org/2000/svg" xmlns:xlink="http://www.w3.org/1999/xlink" viewBox="0 0 67.9102 52.168">
 <g>
  <rect height="52.168" opacity="0" width="67.9102" x="0" y="0"/>
  <path d="M23.9062 28.8477C26.1523 27.4609 26.2305 24.7852 23.9062 23.3789L4.74609 11.6016C2.53906 10.2539 0 11.1719 0 14.082L0 38.1445C0 41.0938 2.57812 41.9531 4.74609 40.6055ZM21.6406 26.6992L4.17969 37.5195C3.82812 37.7539 3.14453 37.793 3.14453 36.9922L3.14453 15.2344C3.14453 14.3945 3.86719 14.4922 4.17969 14.707L21.6211 25.4883C22.3047 25.918 22.0898 26.4453 21.6406 26.6992ZM33.7695 52.168C34.6289 52.168 35.3711 51.5039 35.3711 50.6445L35.3711 1.58203C35.3711 0.722656 34.6289 0.0585938 33.7695 0.0585938C32.9297 0.0585938 32.1875 0.722656 32.1875 1.58203L32.1875 50.6445C32.1875 51.5039 32.9297 52.168 33.7695 52.168ZM62.793 40.6055C64.9805 41.9531 67.5391 41.0938 67.5391 38.1445L67.5391 14.082C67.5391 11.1719 65.0195 10.2539 62.793 11.6016L43.6328 23.3789C41.3086 24.7852 41.3867 27.4609 43.6328 28.8477ZM63.3594 37.5195L45.8984 26.6992C45.4492 26.4453 45.2539 25.918 45.918 25.4883L63.3594 14.707C63.6719 14.4922 64.4141 14.3945 64.4141 15.2344L64.4141 36.9922C64.4141 37.793 63.7109 37.7539 63.3594 37.5195Z" fill="black" fill-opacity="0.85"/>
 </g>
</svg>
