<?xml version="1.0" encoding="UTF-8"?>
<!--Generator: Apple Native CoreSVG 326-->
<!DOCTYPE svg
PUBLIC "-//W3C//DTD SVG 1.1//EN"
       "http://www.w3.org/Graphics/SVG/1.1/DTD/svg11.dtd">
<svg version="1.1" xmlns="http://www.w3.org/2000/svg" xmlns:xlink="http://www.w3.org/1999/xlink" viewBox="0 0 51.25 50.918">
 <g>
  <rect height="50.918" opacity="0" width="51.25" x="0" y="0"/>
  <path d="M25.4297 50.8789C39.4727 50.8789 50.8789 39.4922 50.8789 25.4492C50.8789 11.4062 39.4727 0 25.4297 0C11.3867 0 0 11.4062 0 25.4492C0 39.4922 11.3867 50.8789 25.4297 50.8789ZM25.4297 47.2461C13.3789 47.2461 3.63281 37.5 3.63281 25.4492C3.63281 13.3984 13.3789 3.65234 25.4297 3.65234C37.4805 3.65234 47.2266 13.3984 47.2266 25.4492C47.2266 37.5 37.4805 47.2461 25.4297 47.2461Z" fill="black" fill-opacity="0.85"/>
  <path d="M9.94141 25.4492C9.94141 25.8594 10.0977 26.3672 10.6641 26.9141L21.6992 37.2852C22.2656 37.793 22.7539 38.0664 23.3789 38.0664C24.2188 38.0664 24.8242 37.4609 24.8242 36.6016L24.8242 30.8008L36.582 30.8008C38.5352 30.8008 39.6484 29.7266 39.6484 27.832L39.6484 23.1055C39.6484 21.2109 38.5352 20.1367 36.582 20.1367L24.8242 20.1367L24.8242 14.3555C24.8242 13.5156 24.2188 12.832 23.3398 12.832C22.7344 12.832 22.3242 13.0859 21.6992 13.6914L10.6641 23.9453C10.0977 24.5117 9.94141 25 9.94141 25.4492Z" fill="black" fill-opacity="0.85"/>
 </g>
</svg>
