<?xml version="1.0" encoding="UTF-8"?>
<!--Generator: Apple Native CoreSVG 326-->
<!DOCTYPE svg
PUBLIC "-//W3C//DTD SVG 1.1//EN"
       "http://www.w3.org/Graphics/SVG/1.1/DTD/svg11.dtd">
<svg version="1.1" xmlns="http://www.w3.org/2000/svg" xmlns:xlink="http://www.w3.org/1999/xlink" viewBox="0 0 61.5079 50.918">
 <g>
  <rect height="50.918" opacity="0" width="61.5079" x="0" y="0"/>
  <path d="M30.5684 0C23.0879 0 16.252 3.26172 11.584 8.53516C10.7051 9.49219 10.9981 10.7422 11.7989 11.3086C12.502 11.8359 13.4395 11.8555 14.3184 10.918C18.3418 6.40625 24.1621 3.65234 30.5684 3.65234C41.4082 3.65234 50.3731 11.5625 51.9746 21.9141L48.166 21.9141C46.584 21.9141 46.1348 23.0078 47.0332 24.2578L52.5801 32.168C53.3028 33.2227 54.377 33.2422 55.1192 32.168L60.666 24.2773C61.5645 23.0078 61.1348 21.9141 59.5332 21.9141L55.6856 21.9141C54.0254 9.55078 43.4004 0 30.5684 0ZM30.5684 50.8789C38.0489 50.8789 44.8848 47.6172 49.5528 42.3633C50.4317 41.3867 50.1387 40.1562 49.3379 39.5703C48.6348 39.0625 47.6973 39.0234 46.8184 39.9805C42.795 44.4727 36.9746 47.2461 30.5684 47.2461C19.709 47.2461 10.7637 39.3164 9.16214 28.9648L12.9707 28.9648C14.5528 28.9648 14.9825 27.8711 14.1035 26.6211L8.55667 18.7109C7.83401 17.6758 6.75979 17.6562 6.01761 18.7109L0.470731 26.6016C-0.447237 27.8711 0.00198146 28.9648 1.60354 28.9648L5.43167 28.9648C7.11136 41.3281 17.7168 50.8789 30.5684 50.8789Z" fill="black" fill-opacity="0.85"/>
 </g>
</svg>
