<?xml version="1.0" encoding="UTF-8"?>
<!--Generator: Apple Native CoreSVG 326-->
<!DOCTYPE svg
PUBLIC "-//W3C//DTD SVG 1.1//EN"
       "http://www.w3.org/Graphics/SVG/1.1/DTD/svg11.dtd">
<svg version="1.1" xmlns="http://www.w3.org/2000/svg" xmlns:xlink="http://www.w3.org/1999/xlink" viewBox="0 0 51.25 50.918">
 <g>
  <rect height="50.918" opacity="0" width="51.25" x="0" y="0"/>
  <path d="M50.8789 25.4492C50.8789 39.4531 39.4531 50.8789 25.4297 50.8789C11.4258 50.8789 0 39.4531 0 25.4492C0 11.4258 11.4258 0 25.4297 0C39.4531 0 50.8789 11.4258 50.8789 25.4492ZM28.4375 26.5625C28.4375 26.9727 28.5938 27.3242 28.8672 27.6172L31.8555 30.5078L33.2617 31.8359L31.7773 31.7578L14.1797 31.7578C13.3789 31.7578 12.7539 32.3828 12.7539 33.2227C12.7539 34.082 13.3594 34.707 14.1797 34.707L31.7578 34.707L33.2617 34.668L31.8555 35.957L28.9062 38.8477C28.6133 39.1602 28.4375 39.4922 28.4375 39.9023C28.4375 40.7227 29.0625 41.3477 29.8828 41.3477C30.2539 41.3477 30.6445 41.1719 30.957 40.8984L37.6367 34.2969C38.2617 33.6914 38.2227 32.7734 37.6367 32.168L30.957 25.5664C30.6836 25.3125 30.2734 25.1367 29.8828 25.1367C29.043 25.1367 28.4375 25.7422 28.4375 26.5625ZM19.8633 10.0977L13.1836 16.6602C12.5977 17.2266 12.5977 18.2422 13.1836 18.8281L19.8633 25.4297C20.1758 25.6836 20.5664 25.8398 20.9375 25.8398C21.7773 25.8398 22.3828 25.2539 22.3828 24.4141C22.3828 24.0234 22.2266 23.6523 21.9336 23.3594L18.9844 20.4688L17.5977 19.1406L19.0625 19.2188L36.6406 19.2188C37.4805 19.2188 38.1055 18.5742 38.1055 17.7539C38.1055 16.8945 37.4805 16.2695 36.6406 16.2695L19.082 16.2695L17.6172 16.3086L18.9844 15.0195L21.9336 12.1289C22.2266 11.8359 22.3828 11.4648 22.3828 11.0547C22.3828 10.2344 21.7773 9.62891 20.9375 9.62891C20.5664 9.62891 20.1562 9.80469 19.8633 10.0977Z" fill="black" fill-opacity="0.85"/>
 </g>
</svg>
