<?xml version="1.0" encoding="UTF-8"?>
<!--Generator: Apple Native CoreSVG 326-->
<!DOCTYPE svg
PUBLIC "-//W3C//DTD SVG 1.1//EN"
       "http://www.w3.org/Graphics/SVG/1.1/DTD/svg11.dtd">
<svg version="1.1" xmlns="http://www.w3.org/2000/svg" xmlns:xlink="http://www.w3.org/1999/xlink" viewBox="0 0 99.6875 40.4883">
 <g>
  <rect height="40.4883" opacity="0" width="99.6875" x="0" y="0"/>
  <path d="M0 20.2344C0 21.1328 0.390625 21.9531 1.21094 22.7344L18.5742 39.0625C19.6094 40.0391 20.4492 40.4492 21.5039 40.4492C23.0078 40.4492 24.082 39.3164 24.082 37.8125L24.082 29.2383L41.0938 29.2383C44.4922 29.2383 46.5625 27.1484 46.5625 23.8672L46.5625 16.6602C46.5625 13.3398 44.5117 11.3086 41.0938 11.3086L24.082 11.3086L24.082 2.71484C24.082 1.17188 22.9688 0 21.4844 0C20.4883 0 19.7852 0.351562 18.5742 1.46484L1.21094 17.6953C0.3125 18.5547 0 19.3945 0 20.2344ZM99.3164 20.2344C99.3164 19.4141 99.0234 18.5547 98.1055 17.6953L80.7227 1.46484C79.5312 0.371094 78.8672 0.0195312 77.8516 0.0195312C76.3477 0.0195312 75.2344 1.17188 75.2344 2.71484L75.2344 11.3086L58.2227 11.3086C54.8047 11.3086 52.7539 13.3398 52.7539 16.6602L52.7539 23.8672C52.7539 27.1484 54.8242 29.2383 58.2227 29.2383L75.2344 29.2383L75.2344 37.8125C75.2344 39.3164 76.3086 40.4297 77.8125 40.4297C78.8867 40.4297 79.6875 40.0195 80.7227 39.0625L98.1055 22.7344C98.9453 21.9531 99.3164 21.1133 99.3164 20.2344Z" fill="black" fill-opacity="0.85"/>
 </g>
</svg>
