<?xml version="1.0" encoding="UTF-8"?>
<!--Generator: Apple Native CoreSVG 326-->
<!DOCTYPE svg
PUBLIC "-//W3C//DTD SVG 1.1//EN"
       "http://www.w3.org/Graphics/SVG/1.1/DTD/svg11.dtd">
<svg version="1.1" xmlns="http://www.w3.org/2000/svg" xmlns:xlink="http://www.w3.org/1999/xlink" viewBox="0 0 46.2891 46.1523">
 <g>
  <rect height="46.1523" opacity="0" width="46.2891" x="0" y="0"/>
  <path d="M7.59766 45.918L38.3008 45.918C43.3594 45.918 45.918 43.3594 45.918 38.3789L45.918 7.51953C45.918 2.55859 43.3594 0 38.3008 0L7.59766 0C2.55859 0 0 2.51953 0 7.51953L0 38.3789C0 43.3789 2.55859 45.918 7.59766 45.918ZM7.67578 42.4609C4.94141 42.4609 3.45703 41.0156 3.45703 38.2031L3.45703 7.71484C3.45703 4.90234 4.94141 3.45703 7.67578 3.45703L38.2422 3.45703C40.918 3.45703 42.4609 4.90234 42.4609 7.71484L42.4609 38.2031C42.4609 41.0156 40.918 42.4609 38.2422 42.4609Z" fill="black" fill-opacity="0.85"/>
  <path d="M19.4336 35.5859C25.2734 35.5859 28.8867 31.3867 28.8867 25.5859L28.8867 17.4805L28.7891 14.5703L30.2344 16.3867L33.3008 19.5312C33.5742 19.8242 33.9844 20.0391 34.4336 20.0391C35.332 20.0391 36.0156 19.3555 36.0156 18.4766C36.0156 18.0078 35.8594 17.6562 35.5469 17.3438L28.75 10.6445C28.3789 10.2734 27.8906 10.0586 27.3633 10.0586C26.8359 10.0586 26.3867 10.2734 26.0156 10.6445L19.1602 17.3633C18.8477 17.6758 18.6914 18.0273 18.6914 18.4961C18.6914 19.3555 19.375 20.0391 20.2734 20.0391C20.7031 20.0391 21.1133 19.8633 21.4258 19.5508L24.8828 15.9766L25.9375 14.5703L25.8398 17.4805L25.8398 25.5859C25.8398 29.5117 23.5547 32.4023 19.5898 32.4023C15.5469 32.4023 13.0273 29.5703 13.0273 25.5664C13.0273 25.1758 13.0273 22.0312 13.0273 21.9336C13.0273 20.9961 12.4609 20.293 11.4648 20.293C10.4688 20.293 9.92188 20.9961 9.92188 21.9727C9.92188 22.0898 9.92188 25.1758 9.92188 25.5664C9.92188 31.3672 13.5938 35.5859 19.4336 35.5859Z" fill="black" fill-opacity="0.85"/>
 </g>
</svg>
