<?xml version="1.0" encoding="UTF-8"?>
<!--Generator: Apple Native CoreSVG 326-->
<!DOCTYPE svg
PUBLIC "-//W3C//DTD SVG 1.1//EN"
       "http://www.w3.org/Graphics/SVG/1.1/DTD/svg11.dtd">
<svg version="1.1" xmlns="http://www.w3.org/2000/svg" xmlns:xlink="http://www.w3.org/1999/xlink" viewBox="0 0 44.4922 60.4883">
 <g>
  <rect height="60.4883" opacity="0" width="44.4922" x="0" y="0"/>
  <path d="M44.1211 32.0508C44.1211 19.8633 34.2383 10 22.0508 10C20.1953 10 18.3984 10.2344 16.9727 10.5469L24.4727 3.00781C24.8047 2.65625 24.9609 2.20703 24.9609 1.75781C24.9609 0.78125 24.2383 0 23.2617 0C22.7148 0 22.3047 0.175781 22.0117 0.527344L11.4062 11.3281C10.9961 11.7188 10.8008 12.207 10.8008 12.6953C10.8008 13.1836 10.9766 13.6133 11.4062 14.0625L22.0117 24.7656C22.3438 25.0781 22.7344 25.2539 23.2617 25.2539C24.2383 25.2539 24.9609 24.5117 24.9609 23.5352C24.9609 23.0859 24.8242 22.6367 24.4531 22.3047L16.1914 14.043C17.8125 13.6328 19.8828 13.4375 22.0508 13.4375C32.3242 13.4375 40.6641 21.7578 40.6641 32.0312C40.6641 42.3047 32.3242 50.6445 22.0508 50.6445C11.7773 50.6445 3.45703 42.3047 3.45703 32.0312C3.45703 30.9961 2.8125 30.2539 1.79688 30.2539C0.722656 30.2539 0 30.9961 0 32.0508C0 44.2383 9.86328 54.1211 22.0508 54.1211C34.2383 54.1211 44.1211 44.2383 44.1211 32.0508Z" fill="black" fill-opacity="0.85"/>
 </g>
</svg>
