<?xml version="1.0" encoding="UTF-8"?>
<!--Generator: Apple Native CoreSVG 326-->
<!DOCTYPE svg
PUBLIC "-//W3C//DTD SVG 1.1//EN"
       "http://www.w3.org/Graphics/SVG/1.1/DTD/svg11.dtd">
<svg version="1.1" xmlns="http://www.w3.org/2000/svg" xmlns:xlink="http://www.w3.org/1999/xlink" viewBox="0 0 38.4961 44.1602">
 <g>
  <rect height="44.1602" opacity="0" width="38.4961" x="0" y="0"/>
  <path d="M19.0625 44.1602C20.1758 44.1602 20.9766 43.3789 20.9766 42.2656L20.9766 15.0195L20.8203 9.60938L27.9492 17.3047L34.707 24.0039C35.0781 24.375 35.5859 24.5703 36.1133 24.5703C37.1875 24.5703 37.9688 23.75 37.9688 22.6953C37.9688 22.1289 37.7344 21.6602 37.3047 21.2109L20.5078 4.41406C20.0977 3.98438 19.5898 3.75 19.0625 3.75C18.5352 3.75 18.0469 3.98438 17.6367 4.41406L0.839844 21.2109C0.410156 21.6602 0.175781 22.1289 0.175781 22.6953C0.175781 23.75 0.957031 24.5703 2.03125 24.5703C2.55859 24.5703 3.08594 24.375 3.4375 24.0039L10.1953 17.3047L17.3242 9.58984L17.168 15.0195L17.168 42.2656C17.168 43.3789 17.9492 44.1602 19.0625 44.1602ZM1.85547 3.82812L36.25 3.82812C37.3633 3.82812 38.125 3.02734 38.125 1.91406C38.125 0.800781 37.3633 0 36.25 0L1.85547 0C0.742188 0 0 0.800781 0 1.91406C0 3.02734 0.742188 3.82812 1.85547 3.82812Z" fill="black" fill-opacity="0.85"/>
 </g>
</svg>
