<?xml version="1.0" encoding="UTF-8"?>
<!--Generator: Apple Native CoreSVG 326-->
<!DOCTYPE svg
PUBLIC "-//W3C//DTD SVG 1.1//EN"
       "http://www.w3.org/Graphics/SVG/1.1/DTD/svg11.dtd">
<svg version="1.1" xmlns="http://www.w3.org/2000/svg" xmlns:xlink="http://www.w3.org/1999/xlink" viewBox="0 0 55.3711 45.6445">
 <g>
  <rect height="45.6445" opacity="0" width="55.3711" x="0" y="0"/>
  <path d="M31.0938 45.6055C32.207 45.6055 33.125 45.1367 34.1797 44.1406L54.043 25.4688C55.0781 24.4922 55.3711 23.5938 55.3711 22.8125C55.3711 21.9922 55.0781 21.1133 54.043 20.1172L34.1797 1.58203C33.0273 0.507812 32.2461 0 31.1328 0C29.5312 0 28.4375 1.26953 28.4375 2.8125L28.4375 12.6758L27.6172 12.6758C10.1367 12.6758 1.69922 23.5742 1.69922 42.5977C1.69922 44.5312 2.8125 45.6055 4.0625 45.6055C5.05859 45.6055 6.07422 45.332 6.83594 43.8477C11.0156 35.6641 17.3828 33.0273 27.6172 33.0273L28.4375 33.0273L28.4375 42.9297C28.4375 44.4727 29.5312 45.6055 31.0938 45.6055ZM32.2656 41.0352C32.0508 41.0352 31.8945 40.8789 31.8945 40.6445L31.8945 30.5664C31.8945 30 31.6602 29.7656 31.0938 29.7656L28.0859 29.7656C15.9961 29.7656 8.35938 33.7891 5.29297 40.5664C5.21484 40.7812 5.13672 40.918 5 40.918C4.84375 40.918 4.76562 40.8008 4.76562 40.6055C5.17578 27.1484 11.2891 15.9375 28.0859 15.9375L31.0938 15.9375C31.6602 15.9375 31.8945 15.6836 31.8945 15.1367L31.8945 4.78516C31.8945 4.57031 32.0508 4.41406 32.2852 4.41406C32.4805 4.41406 32.6367 4.53125 32.7734 4.64844L51.1133 22.1094C51.4258 22.3828 51.5234 22.5977 51.5234 22.8125C51.5234 23.0273 51.4258 23.2227 51.1133 23.5156L32.7734 40.8008C32.5781 40.9766 32.4219 41.0352 32.2656 41.0352Z" fill="black" fill-opacity="0.85"/>
 </g>
</svg>
