<?xml version="1.0" encoding="UTF-8"?>
<!--Generator: Apple Native CoreSVG 326-->
<!DOCTYPE svg
PUBLIC "-//W3C//DTD SVG 1.1//EN"
       "http://www.w3.org/Graphics/SVG/1.1/DTD/svg11.dtd">
<svg version="1.1" xmlns="http://www.w3.org/2000/svg" xmlns:xlink="http://www.w3.org/1999/xlink" viewBox="0 0 51.25 50.918">
 <g>
  <rect height="50.918" opacity="0" width="51.25" x="0" y="0"/>
  <path d="M25.4297 50.8789C39.4727 50.8789 50.8789 39.4922 50.8789 25.4492C50.8789 11.4062 39.4727 0 25.4297 0C11.3867 0 0 11.4062 0 25.4492C0 39.4922 11.3867 50.8789 25.4297 50.8789ZM25.4297 47.2461C13.3789 47.2461 3.63281 37.5 3.63281 25.4492C3.63281 13.3984 13.3789 3.65234 25.4297 3.65234C37.4805 3.65234 47.2266 13.3984 47.2266 25.4492C47.2266 37.5 37.4805 47.2461 25.4297 47.2461Z" fill="black" fill-opacity="0.85"/>
  <path d="M40.6641 25.4492C40.6641 24.9805 40.4688 24.5898 40.0586 24.1992L32.7148 16.8359C32.4219 16.543 32.0312 16.3672 31.582 16.3672C30.6836 16.3672 30.0195 17.0703 30.0195 17.9492C30.0195 18.418 30.1953 18.8086 30.5273 19.1016L32.7148 21.2695L35.8203 24.0039L30.8984 23.8281L19.8828 23.8281L14.9609 24.0039L18.0664 21.2695L20.2734 19.1016C20.5859 18.8086 20.7617 18.418 20.7617 17.9492C20.7617 17.0703 20.1172 16.3672 19.2188 16.3672C18.75 16.3672 18.3789 16.543 18.0859 16.8359L10.7422 24.1992C10.332 24.5898 10.1367 24.9805 10.1367 25.4492C10.1367 25.8984 10.332 26.2695 10.7422 26.6992L18.0859 34.0625C18.3789 34.3555 18.75 34.5117 19.2188 34.5117C20.1172 34.5117 20.7617 33.8281 20.7617 32.9688C20.7617 32.4805 20.5664 32.0898 20.2734 31.7969L18.0664 29.6094L14.9805 26.8945L19.8828 27.0703L30.8984 27.0703L35.8008 26.8945L32.7148 29.6094L30.5273 31.7969C30.2148 32.0898 30.0195 32.4805 30.0195 32.9688C30.0195 33.8281 30.6836 34.5117 31.582 34.5117C32.0312 34.5117 32.4219 34.3555 32.7148 34.0625L40.0586 26.6992C40.4688 26.2695 40.6641 25.8984 40.6641 25.4492Z" fill="black" fill-opacity="0.85"/>
 </g>
</svg>
