<?xml version="1.0" encoding="UTF-8"?>
<!--Generator: Apple Native CoreSVG 326-->
<!DOCTYPE svg
PUBLIC "-//W3C//DTD SVG 1.1//EN"
       "http://www.w3.org/Graphics/SVG/1.1/DTD/svg11.dtd">
<svg version="1.1" xmlns="http://www.w3.org/2000/svg" xmlns:xlink="http://www.w3.org/1999/xlink" viewBox="0 0 46.2891 45.918">
 <g>
  <rect height="45.918" opacity="0" width="46.2891" x="0" y="0"/>
  <path d="M45.918 7.53906L45.918 38.3984C45.918 43.3594 43.3594 45.918 38.3008 45.918L7.59766 45.918C2.55859 45.918 0 43.3984 0 38.3984L0 7.53906C0 2.53906 2.55859 0 7.59766 0L38.3008 0C43.3594 0 45.918 2.55859 45.918 7.53906ZM21.8164 14.7656L12.9688 23.75C12.6758 24.0234 12.4805 24.5117 12.4805 24.8828C12.4805 25.7617 13.0664 26.3672 13.9453 26.3672C14.4141 26.3672 14.7852 26.2305 15.0586 25.8984L16.9336 23.9062L21.6797 18.7109L21.4258 23.4766L21.4258 35.918C21.4258 36.7969 22.0312 37.4414 22.9492 37.4414C23.8086 37.4414 24.4531 36.7969 24.4531 35.918L24.4531 23.4766L24.2188 18.7305L28.8672 23.8672L30.8789 25.8984C31.1719 26.2305 31.582 26.3672 32.0117 26.3672C32.8711 26.3672 33.457 25.7227 33.457 24.8828C33.457 24.4531 33.3008 24.0625 32.9297 23.7109L24.082 14.7656C23.75 14.4336 23.3594 14.2383 22.9492 14.2383C22.5391 14.2383 22.1484 14.3945 21.8164 14.7656ZM13.3008 9.10156C12.4219 9.10156 11.8164 9.72656 11.8164 10.6445C11.8164 11.4844 12.4219 12.1094 13.3008 12.1094L32.6562 12.1094C33.5156 12.1094 34.1211 11.4844 34.1211 10.6445C34.1211 9.72656 33.5156 9.10156 32.6562 9.10156Z" fill="black" fill-opacity="0.85"/>
 </g>
</svg>
