<?xml version="1.0" encoding="UTF-8"?>
<!--Generator: Apple Native CoreSVG 326-->
<!DOCTYPE svg
PUBLIC "-//W3C//DTD SVG 1.1//EN"
       "http://www.w3.org/Graphics/SVG/1.1/DTD/svg11.dtd">
<svg version="1.1" xmlns="http://www.w3.org/2000/svg" xmlns:xlink="http://www.w3.org/1999/xlink" viewBox="0 0 48.7891 60.0586">
 <g>
  <rect height="60.0586" opacity="0" width="48.7891" x="0" y="0"/>
  <path d="M13.3398 11.1719L16.7578 11.1719L16.7578 5.80078C16.7578 4.23828 17.832 3.22266 19.5117 3.22266L28.8672 3.22266C30.5469 3.22266 31.6211 4.23828 31.6211 5.80078L31.6211 11.1719L35.0391 11.1719L35.0391 5.60547C35.0391 2.12891 32.793 0 29.0625 0L19.3164 0C15.6055 0 13.3398 2.12891 13.3398 5.60547ZM1.62109 12.8711L46.7969 12.8711C47.6953 12.8711 48.418 12.1289 48.418 11.25C48.418 10.3516 47.6953 9.60938 46.7969 9.60938L1.62109 9.60938C0.761719 9.60938 0 10.3711 0 11.25C0 12.1484 0.761719 12.8711 1.62109 12.8711ZM12.7539 55.7812L35.7031 55.7812C39.0625 55.7812 41.4258 53.4961 41.6016 50.1367L43.457 12.4219L39.9609 12.4219L38.2031 49.7852C38.125 51.3672 36.9336 52.5195 35.3711 52.5195L13.0273 52.5195C11.5039 52.5195 10.293 51.3477 10.2148 49.7852L8.35938 12.4414L4.98047 12.4414L6.83594 50.1562C7.01172 53.5156 9.33594 55.7812 12.7539 55.7812Z" fill="black" fill-opacity="0.85"/>
  <path d="M24.1797 21.9141C23.8086 21.9141 23.457 22.0508 23.0664 22.4219L15.9961 29.3164C15.7031 29.5898 15.5273 29.9219 15.5273 30.332C15.5273 31.1328 16.1328 31.7383 16.9336 31.7383C17.3047 31.7383 17.7344 31.5625 18.0273 31.25L21.5625 27.5391L22.7148 26.3477L22.6367 29.1211L22.6367 41.9727C22.6367 42.7734 23.3594 43.4766 24.1797 43.4766C25.0195 43.4766 25.7422 42.7734 25.7422 41.9727L25.7422 29.1211L25.6445 26.3672L26.7969 27.5391L30.332 31.25C30.625 31.5625 31.0352 31.7383 31.4062 31.7383C32.1875 31.7383 32.832 31.1328 32.832 30.332C32.832 29.9219 32.6562 29.5898 32.3633 29.3164L25.3125 22.4219C24.9219 22.0508 24.5508 21.9141 24.1797 21.9141Z" fill="black" fill-opacity="0.85"/>
 </g>
</svg>
