<?xml version="1.0" encoding="UTF-8"?>
<!--Generator: Apple Native CoreSVG 326-->
<!DOCTYPE svg
PUBLIC "-//W3C//DTD SVG 1.1//EN"
       "http://www.w3.org/Graphics/SVG/1.1/DTD/svg11.dtd">
<svg version="1.1" xmlns="http://www.w3.org/2000/svg" xmlns:xlink="http://www.w3.org/1999/xlink" viewBox="0 0 56.2305 55.8789">
 <g>
  <rect height="55.8789" opacity="0" width="56.2305" x="0" y="0"/>
  <path d="M27.9297 55.8594C43.2812 55.8594 55.8594 43.3008 55.8594 27.9297C55.8594 12.5586 43.2812 0 27.9297 0C12.5781 0 0 12.5586 0 27.9297C0 43.3008 12.5781 55.8594 27.9297 55.8594ZM27.9297 46.6797C17.5586 46.6797 9.16016 38.3008 9.16016 27.9297C9.16016 17.5586 17.5586 9.16016 27.9297 9.16016C38.3008 9.16016 46.6992 17.5586 46.6992 27.9297C46.6992 38.3008 38.3008 46.6797 27.9297 46.6797Z" fill="black" fill-opacity="0.85"/>
  <path d="M15.5859 37.7539C16.1914 37.7539 16.582 37.4219 16.7578 36.7383L17.9102 32.2656L24.0625 32.2656L25.2539 36.7383C25.4297 37.4219 25.7812 37.7539 26.4648 37.7539C27.0703 37.7539 27.6172 37.3828 27.6172 36.6406C27.6172 36.4062 27.5781 36.1719 27.5 35.8984L22.793 19.2969C22.5195 18.3398 22.0117 17.832 20.9961 17.832C20.0195 17.832 19.4727 18.3789 19.1992 19.3164L14.5312 35.8984C14.4531 36.1328 14.4141 36.3867 14.4141 36.6406C14.4141 37.3828 14.9414 37.7539 15.5859 37.7539ZM18.3984 30.332L20.8594 20.7812L21.0547 20.7812L23.5742 30.332ZM35.1758 37.1875C38.3984 37.1875 40.7227 35.4102 40.7227 32.2852C40.7227 29.4336 39.0039 28.3008 36.6016 27.1289L34.9414 26.3477C33.418 25.6055 32.0312 24.668 32.0312 22.9883C32.0312 21.2109 33.3984 20.3125 35.1172 20.3125C37.0508 20.3125 37.8711 21.5039 38.2227 23.3594C38.3789 23.9062 38.7305 24.2383 39.2969 24.2383C39.9609 24.2383 40.4102 23.8477 40.4102 23.1641C40.4102 22.9297 40.3711 22.6367 40.293 22.3242C39.7266 19.7656 37.793 18.3789 35.1172 18.3789C32.1094 18.3789 29.7461 20.0977 29.7461 23.125C29.7461 25.7031 31.25 27.0703 33.7695 28.2617L35.4492 29.0625C37.0898 29.8242 38.4375 30.6836 38.4375 32.4805C38.4375 34.3359 37.1484 35.2344 35.1758 35.2344C32.9492 35.2344 32.0312 33.8867 31.7383 32.168C31.5625 31.4453 31.1523 31.1719 30.625 31.1719C30 31.1719 29.5117 31.5625 29.5117 32.2656C29.5117 32.5 29.5312 32.7344 29.5898 33.0078C30.0195 35.4492 32.1875 37.1875 35.1758 37.1875ZM35.1367 39.7461C35.4688 39.7461 35.7617 39.4531 35.7617 39.1211L35.7617 16.5039C35.7617 16.1719 35.4688 15.8789 35.1367 15.8789C34.7852 15.8789 34.5117 16.1719 34.5117 16.5039L34.5117 39.1211C34.5117 39.4531 34.7852 39.7461 35.1367 39.7461Z" fill="black" fill-opacity="0.85"/>
 </g>
</svg>
