<?xml version="1.0" encoding="UTF-8"?>
<!--Generator: Apple Native CoreSVG 326-->
<!DOCTYPE svg
PUBLIC "-//W3C//DTD SVG 1.1//EN"
       "http://www.w3.org/Graphics/SVG/1.1/DTD/svg11.dtd">
<svg version="1.1" xmlns="http://www.w3.org/2000/svg" xmlns:xlink="http://www.w3.org/1999/xlink" viewBox="0 0 55.5273 53.1055">
 <g>
  <rect height="53.1055" opacity="0" width="55.5273" x="0" y="0"/>
  <path d="M3.06641 47.6758L52.0898 47.6758L52.0898 46.1719C52.0898 45.332 51.582 44.8242 50.7227 44.8242L49.1211 44.8242L49.1211 16.6797L51.3867 16.6797C52.5781 16.6797 53.2422 15.8398 53.2422 14.9609C53.2422 14.3164 52.8906 13.75 52.1094 13.3008L30.5273 0.839844C29.5703 0.292969 28.5547 0 27.5781 0C26.6016 0 25.5664 0.292969 24.6289 0.839844L3.04688 13.3008C2.24609 13.75 1.91406 14.3164 1.91406 14.9609C1.91406 15.8398 2.57812 16.6797 3.76953 16.6797L6.05469 16.6797L6.05469 44.8242L4.45312 44.8242C3.57422 44.8242 3.06641 45.332 3.06641 46.1719ZM9.31641 44.8242L9.31641 13.7109L26.4453 4.0625C26.7773 3.86719 27.1875 3.75 27.5781 3.75C27.9492 3.75 28.3398 3.86719 28.7109 4.0625L45.8594 13.7109L45.8594 44.8242ZM1.73828 53.0664L53.418 53.0664C54.375 53.0664 55.1562 52.2852 55.1562 51.3477C55.1562 50.3906 54.375 49.6094 53.418 49.6094L1.73828 49.6094C0.78125 49.6094 0 50.3906 0 51.3477C0 52.2852 0.78125 53.0664 1.73828 53.0664Z" fill="black" fill-opacity="0.85"/>
  <path d="M20.332 37.9297C21.0156 37.9297 21.3867 37.5977 21.582 36.9336L27.5195 18.0469L27.6367 18.0469L33.5938 36.9531C33.7695 37.5391 34.1211 37.9297 34.8438 37.9297C35.5273 37.9297 36.1523 37.5391 36.1523 36.7773C36.1523 36.543 36.0938 36.2891 36.0156 36.0547L29.3359 16.1523C29.0625 15.293 28.5352 14.8242 27.5977 14.8242C26.6602 14.8242 26.0742 15.332 25.8008 16.1523L19.1602 36.1133C19.0625 36.3672 19.0234 36.582 19.0234 36.7773C19.0234 37.5 19.5898 37.9297 20.332 37.9297ZM18.0859 26.9141C18.0859 27.3242 18.4375 27.6562 18.8477 27.6562L36.3281 27.6562C36.7383 27.6562 37.0898 27.3242 37.0898 26.9141C37.0898 26.4844 36.7383 26.1523 36.3281 26.1523L18.8477 26.1523C18.4375 26.1523 18.0859 26.4844 18.0859 26.9141ZM18.0859 31.3672C18.0859 31.7969 18.4375 32.1289 18.8477 32.1289L36.3281 32.1289C36.7383 32.1289 37.0898 31.7969 37.0898 31.3672C37.0898 30.957 36.7383 30.6055 36.3281 30.6055L18.8477 30.6055C18.4375 30.6055 18.0859 30.957 18.0859 31.3672Z" fill="black" fill-opacity="0.85"/>
 </g>
</svg>
