<?xml version="1.0" encoding="UTF-8"?>
<!--Generator: Apple Native CoreSVG 326-->
<!DOCTYPE svg
PUBLIC "-//W3C//DTD SVG 1.1//EN"
       "http://www.w3.org/Graphics/SVG/1.1/DTD/svg11.dtd">
<svg version="1.1" xmlns="http://www.w3.org/2000/svg" xmlns:xlink="http://www.w3.org/1999/xlink" viewBox="0 0 44.6973 53.3077">
 <g>
  <rect height="53.3077" opacity="0" width="44.6973" x="0" y="0"/>
  <path d="M10.4151 39.6519L10.4151 42.9918L16.1906 42.9918C16.0273 43.5466 15.9424 44.1369 15.9424 44.7496C15.9424 45.3478 16.0243 45.925 16.1829 46.4683L10.4151 46.4683L10.4151 49.8082C10.4151 51.8199 9.14552 53.1675 7.1924 53.1675L4.98536 53.1675C3.03224 53.1675 1.74318 51.8199 1.74318 49.8082L1.74318 39.6519C1.74318 37.6207 3.03224 36.2925 4.98536 36.2925L7.1924 36.2925C9.14552 36.2925 10.4151 37.6207 10.4151 39.6519ZM42.583 39.6519L42.583 49.8082C42.583 51.8199 41.3135 53.1675 39.3604 53.1675L37.1533 53.1675C35.2002 53.1675 33.9307 51.8199 33.9307 49.8082L33.9307 46.4683L28.124 46.4683C28.2824 45.925 28.3643 45.3478 28.3643 44.7496C28.3643 44.1369 28.2793 43.5466 28.1163 42.9918L33.9307 42.9918L33.9307 39.6519C33.9307 37.6207 35.2002 36.2925 37.1533 36.2925L39.3604 36.2925C41.3135 36.2925 42.583 37.6207 42.583 39.6519ZM40.1026 0.237845L42.1729 0.999564C44.0088 1.66363 44.7705 3.34331 44.0674 5.25738L40.5908 14.8082C39.9072 16.7027 38.2471 17.523 36.3916 16.8589L34.3213 16.0972C32.5049 15.4332 31.7627 13.7535 32.4463 11.8394L33.0162 10.2769L23.8916 10.2769L23.8916 38.7614C23.3488 38.6017 22.7717 38.5191 22.1729 38.5191C21.5663 38.5191 20.9827 38.602 20.4346 38.7621L20.4346 10.2769L10.0723 10.2769L8.42286 14.8082C7.73927 16.7027 6.07911 17.523 4.22365 16.8589L2.15333 16.0972C0.317396 15.4332-0.444323 13.7535 0.258802 11.8394L3.73536 2.30816C4.43849 0.374564 6.07911-0.445749 7.93458 0.237845L10.0049 0.999564C11.8408 1.66363 12.6026 3.34331 11.8994 5.25738L11.3307 6.81988L34.2772 6.81988L35.9229 2.30816C36.626 0.374564 38.2666-0.445749 40.1026 0.237845Z" fill="black" fill-opacity="0.85"/>
  <path d="M22.1729 50.9605C25.6299 50.9605 28.3643 48.2066 28.3643 44.7496C28.3643 41.273 25.6299 38.5191 22.1729 38.5191C18.6768 38.5191 15.9424 41.273 15.9424 44.7496C15.9424 48.2066 18.6768 50.9605 22.1729 50.9605ZM22.1729 48.0894C20.2783 48.0894 18.8135 46.6246 18.8135 44.7496C18.8135 42.8746 20.2783 41.4097 22.1729 41.4097C24.0283 41.4097 25.4932 42.8746 25.4932 44.7496C25.4932 46.6246 24.0283 48.0894 22.1729 48.0894Z" fill="black" fill-opacity="0.85"/>
 </g>
</svg>
