<?xml version="1.0" encoding="UTF-8"?>
<!--Generator: Apple Native CoreSVG 326-->
<!DOCTYPE svg
PUBLIC "-//W3C//DTD SVG 1.1//EN"
       "http://www.w3.org/Graphics/SVG/1.1/DTD/svg11.dtd">
<svg version="1.1" xmlns="http://www.w3.org/2000/svg" xmlns:xlink="http://www.w3.org/1999/xlink" viewBox="0 0 72.5781 37.9492">
 <g>
  <rect height="37.9492" opacity="0" width="72.5781" x="0" y="0"/>
  <path d="M66.9727 34.7266L66.9727 3.20312C66.9727 1.01562 65.6836 0 64.1992 0C63.5352 0 62.8711 0.195312 62.207 0.566406L35.7422 16.0938C34.082 17.0508 33.418 17.8125 33.418 18.9648C33.418 20.1172 34.082 20.8594 35.7422 21.8164L62.207 37.3438C62.8711 37.7148 63.5352 37.9102 64.1992 37.9102C65.6836 37.9102 66.9727 36.9141 66.9727 34.7266ZM33.5547 34.7266L33.5547 3.20312C33.5547 1.01562 32.2656 0 30.7812 0C30.1172 0 29.4531 0.195312 28.7891 0.566406L2.34375 16.0938C0.683594 17.0508 0 17.8125 0 18.9648C0 20.1172 0.683594 20.8594 2.34375 21.8164L28.7891 37.3438C29.4531 37.7148 30.1172 37.9102 30.7812 37.9102C32.2656 37.9102 33.5547 36.9141 33.5547 34.7266Z" fill="black" fill-opacity="0.85"/>
 </g>
</svg>
