<?xml version="1.0" encoding="UTF-8"?>
<!--Generator: Apple Native CoreSVG 326-->
<!DOCTYPE svg
PUBLIC "-//W3C//DTD SVG 1.1//EN"
       "http://www.w3.org/Graphics/SVG/1.1/DTD/svg11.dtd">
<svg version="1.1" xmlns="http://www.w3.org/2000/svg" xmlns:xlink="http://www.w3.org/1999/xlink" viewBox="0 0 58.0078 54.591">
 <g>
  <rect height="54.591" opacity="0" width="58.0078" x="0" y="0"/>
  <path d="M0 22.0709C0 24.2584 1.34766 25.6061 3.55469 25.6061L54.082 25.6061C56.2891 25.6061 57.6367 24.2584 57.6367 22.0709L57.6367 20.7428C57.6367 18.5553 56.2891 17.1686 54.082 17.1686L3.55469 17.1686C1.34766 17.1686 0 18.5553 0 20.7428ZM15.1758 52.8326L42.4609 52.8326C47.6562 52.8326 49.4727 49.8248 50.1758 46.3287L53.7109 28.7311L3.94531 28.7311L7.48047 46.3287C8.18359 49.8248 9.98047 52.8326 15.1758 52.8326ZM17.3438 48.6334C16.5039 48.7506 15.8789 48.3209 15.7617 47.5787L13.4961 34.4147C13.3789 33.6725 13.8672 33.067 14.668 32.9108C15.5078 32.7936 16.1523 33.2233 16.2695 33.9654L18.4961 47.1295C18.6133 47.8717 18.1836 48.4772 17.3438 48.6334ZM25.0977 48.6334C24.2773 48.6725 23.6914 48.1842 23.6328 47.4029L22.6953 34.317C22.6562 33.5553 23.2031 32.9889 24.0039 32.9303C24.8633 32.8717 25.4297 33.3795 25.4883 34.1608L26.4062 47.2467C26.4648 48.0084 25.918 48.5748 25.0977 48.6334ZM32.5781 48.6334C31.7578 48.5748 31.1914 48.0084 31.25 47.2467L32.1875 34.1608C32.2266 33.3795 32.8125 32.8717 33.6523 32.9303C34.4727 32.9889 35.0195 33.5553 34.9609 34.317L34.043 47.4029C33.9844 48.1842 33.3984 48.6725 32.5781 48.6334ZM40.3125 48.6334C39.4727 48.4772 39.0234 47.8717 39.1602 47.1295L41.3672 33.9654C41.5039 33.2233 42.1484 32.7936 42.9688 32.9108C43.7891 33.067 44.2773 33.7506 44.1406 34.4928L41.875 47.5787C41.7578 48.3209 41.1133 48.7506 40.3125 48.6334ZM8.00781 18.067L12.2461 18.067L21.1523 2.59826C21.7383 1.58263 21.2695 0.664663 20.4883 0.234976C19.707-0.175181 18.6719-0.0970556 18.1055 0.859976ZM45.3906 18.067L49.6484 18.067L39.5312 0.859976C38.9844-0.0775244 37.9492-0.155649 37.1484 0.234976C36.3672 0.664663 35.8984 1.58263 36.4844 2.59826Z" fill="black" fill-opacity="0.85"/>
 </g>
</svg>
