<?xml version="1.0" encoding="UTF-8"?>
<!--Generator: Apple Native CoreSVG 326-->
<!DOCTYPE svg
PUBLIC "-//W3C//DTD SVG 1.1//EN"
       "http://www.w3.org/Graphics/SVG/1.1/DTD/svg11.dtd">
<svg version="1.1" xmlns="http://www.w3.org/2000/svg" xmlns:xlink="http://www.w3.org/1999/xlink" viewBox="0 0 71.9727 53.0042">
 <g>
  <rect height="53.0042" opacity="0" width="71.9727" x="0" y="0"/>
  <path d="M63.1836 10.4962C63.457 10.9259 63.4961 11.2384 63.4961 11.6877L63.4961 12.3697C62.2985 11.9842 61.0508 11.7929 59.8063 11.8014C57.6485 8.89088 53.2127 6.98062 48.6133 6.98062C43.6719 6.98062 39.4531 9.05093 37.5391 12.3322L37.5391 35.2691C36.4994 36.0133 35.5297 36.7534 34.6875 37.508C34.4722 37.6978 34.2682 37.8927 34.082 38.095L34.082 12.3322C32.168 9.05093 27.9297 6.98062 23.0078 6.98062C18.2227 6.98062 13.6523 9.0314 11.582 12.1173L11.582 43.9142C14.1992 41.883 18.3398 40.5353 23.0078 40.5353C26.2247 40.5353 29.277 41.4607 31.6635 42.7725C31.4077 44.2627 31.5835 45.7887 32.1661 47.2184C29.5124 45.0991 26.2283 44.0092 22.9297 43.9923C19.0625 43.9728 15.4102 45.2423 12.6953 47.3322C11.875 47.8595 11.25 48.2502 10.5078 48.2502C9.23828 48.2502 8.10547 47.5666 8.10547 45.8478L8.10547 11.6877C8.10547 11.2384 8.16406 10.9259 8.41797 10.4962C10.6836 6.66812 16.3086 3.52359 23.0078 3.52359C28.5742 3.52359 33.2812 5.78921 35.8008 9.01187C38.3203 5.78921 43.0273 3.52359 48.6133 3.52359C55.3125 3.52359 60.918 6.66812 63.1836 10.4962ZM63.4961 45.8478C63.4961 47.5666 62.3633 48.2502 61.0938 48.2502C60.3516 48.2502 59.7266 47.8595 58.9062 47.3322C56.7746 45.6913 54.0649 44.5561 51.1334 44.1649C51.868 43.094 52.6192 42.011 53.3428 41.0252C56.03 41.5823 58.3543 42.6066 60.0391 43.9142L60.0391 35.5068C60.4248 35.4454 60.8319 35.4181 61.2695 35.4181C62.0616 35.4181 62.8067 35.3539 63.4961 35.2216Z" fill="black" fill-opacity="0.85"/>
  <path d="M36.4258 48.0939C38.8086 50.4767 42.3438 50.5744 44.7266 47.8009C46.6602 45.4962 50.8398 38.5431 54.7461 34.6369C56.7188 32.6642 59.4922 32.2931 61.2695 32.2931C67.207 32.2931 69.3359 27.6056 68.7695 24.422L61.3477 26.3752L60.4688 23.172C60.1562 22.0392 60.5664 21.0236 61.9141 20.672L67.3633 19.2267C67.1484 18.7775 66.6992 18.1134 66.1523 17.547C62.8125 14.1291 57.2266 14.0509 53.8867 17.215C49.0625 21.8244 52.8125 26.7462 49.4531 30.1252C45.4688 34.1095 39.7461 37.1564 36.7578 39.8127C33.9844 42.2736 34.0234 45.7111 36.4258 48.0939ZM40.5273 45.7892C39.5117 45.7892 38.7109 44.9884 38.7109 44.0119C38.7109 43.0353 39.5117 42.2541 40.5273 42.2541C41.5039 42.2541 42.2852 43.0353 42.2852 44.0119C42.2852 44.9884 41.5039 45.7892 40.5273 45.7892Z" fill="black" fill-opacity="0.85"/>
 </g>
</svg>
