<?xml version="1.0" encoding="UTF-8"?>
<!--Generator: Apple Native CoreSVG 326-->
<!DOCTYPE svg
PUBLIC "-//W3C//DTD SVG 1.1//EN"
       "http://www.w3.org/Graphics/SVG/1.1/DTD/svg11.dtd">
<svg version="1.1" xmlns="http://www.w3.org/2000/svg" xmlns:xlink="http://www.w3.org/1999/xlink" viewBox="0 0 51.25 50.918">
 <g>
  <rect height="50.918" opacity="0" width="51.25" x="0" y="0"/>
  <path d="M50.8789 25.4492C50.8789 39.4531 39.4531 50.8789 25.4297 50.8789C11.4258 50.8789 0 39.4531 0 25.4492C0 11.4258 11.4258 0 25.4297 0C39.4531 0 50.8789 11.4258 50.8789 25.4492ZM32.4414 13.0078L32.4414 15.0391C29.4727 15.2734 27.2852 17.1094 27.2852 20.1172C27.2852 22.8711 28.8672 24.3359 31.6406 25.6836L32.4414 26.0547L32.4414 33.125C30.6055 32.9102 29.7266 31.6992 29.4336 29.7852C29.3359 29.1211 28.8086 28.8086 28.2617 28.8086C27.5586 28.8086 27.0508 29.2188 27.0508 29.9609C27.0508 30.1367 27.0898 30.4492 27.1484 30.6836C27.7344 33.7109 29.8242 35.0586 32.4414 35.2539L32.4414 37.3828C32.4414 37.793 32.6953 38.0469 33.1055 38.0469C33.4961 38.0469 33.75 37.793 33.75 37.3828L33.75 35.2734C37.0508 35.0586 39.1602 33.0469 39.1602 30C39.1602 26.9531 37.2656 25.6445 34.707 24.4531L33.75 24.0039L33.75 17.1875C35.4883 17.4414 36.1914 18.7695 36.4258 20.3711C36.5234 20.8594 36.9336 21.3477 37.6172 21.3477C38.3203 21.3477 38.8086 20.8984 38.8086 20.1953C38.8086 20.0195 38.75 19.6875 38.7109 19.4531C38.1445 16.5234 36.1719 15.2344 33.75 15.0586L33.75 13.0078C33.75 12.5977 33.4961 12.3438 33.1055 12.3438C32.6953 12.3438 32.4414 12.5977 32.4414 13.0078ZM14.0039 14.707C13.2031 14.707 12.7148 15.2148 12.7148 16.0547L12.7148 34.5117C12.7148 35.293 13.125 35.8789 14.043 35.8789C14.8438 35.8789 15.3516 35.332 15.3516 34.5117L15.3516 27.1289L18.7695 27.1289L22.1289 34.9219C22.4023 35.5664 22.793 35.8789 23.457 35.8789C24.1992 35.8789 24.707 35.3711 24.707 34.6484C24.707 34.2969 24.5508 33.9844 24.4336 33.6719L21.3086 26.543C23.6523 25.625 24.707 23.3008 24.707 20.8594C24.707 16.9336 22.2852 14.707 18.4961 14.707ZM36.6602 30.2344C36.6602 32.0117 35.5469 33.0078 33.75 33.1641L33.75 26.6992C35.4102 27.5 36.6602 28.418 36.6602 30.2344ZM22.0898 20.8984C22.0898 23.3203 20.8594 25 18.2812 25L15.3516 25L15.3516 16.8945L18.2617 16.8945C20.7422 16.8945 22.0898 18.4961 22.0898 20.8984ZM32.4414 23.3594C30.918 22.5586 29.7461 21.6016 29.7461 19.9805C29.7461 18.3008 30.8984 17.3633 32.4414 17.168Z" fill="black" fill-opacity="0.85"/>
 </g>
</svg>
