<?xml version="1.0" encoding="UTF-8"?>
<!--Generator: Apple Native CoreSVG 326-->
<!DOCTYPE svg
PUBLIC "-//W3C//DTD SVG 1.1//EN"
       "http://www.w3.org/Graphics/SVG/1.1/DTD/svg11.dtd">
<svg version="1.1" xmlns="http://www.w3.org/2000/svg" xmlns:xlink="http://www.w3.org/1999/xlink" viewBox="0 0 56.0646 55.7325">
 <g>
  <rect height="55.7325" opacity="0" width="56.0646" x="0" y="0"/>
  <path d="M20.3565 10.669C22.0362 9.92682 23.8331 9.43854 25.7276 9.22369C26.2745 9.1651 26.6651 8.75494 26.6651 8.20807L26.6651 1.07916C26.6651 0.434632 26.1768-0.0536489 25.5323 0.0244761C22.1143 0.297914 18.8917 1.21588 15.9229 2.62213C15.337 2.89557 15.1612 3.55963 15.4737 4.10651L19.0284 10.2393C19.2823 10.7276 19.8292 10.8839 20.3565 10.669Z" fill="black" fill-opacity="0.85"/>
  <path d="M12.7588 16.7042C13.8721 15.2198 15.1807 13.8917 16.6846 12.7589C17.1534 12.4268 17.251 11.8799 16.9776 11.4112L13.4424 5.29791C13.1299 4.73151 12.4659 4.57526 11.919 4.94635C9.18463 6.86041 6.82135 9.22369 4.94635 11.9581C4.57525 12.5049 4.71197 13.1495 5.27838 13.4815L11.4307 16.9971C11.8995 17.2901 12.4268 17.1729 12.7588 16.7042Z" fill="black" fill-opacity="0.85"/>
  <path d="M9.20416 25.7471C9.419 23.8526 9.90729 22.0557 10.6299 20.3956C10.8643 19.8878 10.7081 19.3409 10.2198 19.0674L4.06744 15.5323C3.50104 15.2003 2.8565 15.3956 2.58307 15.9815C1.21588 18.9307 0.29791 22.1339 0.00494129 25.5323C-0.01459 26.1964 0.434629 26.6846 1.07916 26.6846L8.20807 26.6846C8.75494 26.6846 9.14557 26.294 9.20416 25.7471Z" fill="black" fill-opacity="0.85"/>
  <path d="M10.6299 35.3565C9.92682 33.6964 9.43854 31.8799 9.20416 29.9659C9.1651 29.419 8.73541 29.0284 8.20807 29.0284L1.07916 29.0284C0.415098 29.0284-0.0536525 29.5167 0.00494129 30.1612C0.278379 33.5987 1.19635 36.8409 2.6026 39.7901C2.87604 40.376 3.52057 40.5909 4.08697 40.2589L10.2198 36.6846C10.7081 36.4112 10.8838 35.8643 10.6299 35.3565Z" fill="black" fill-opacity="0.85"/>
  <path d="M16.7042 42.9737C15.2198 41.8604 13.8721 40.5518 12.7784 39.0284C12.4463 38.5987 11.8995 38.462 11.4112 38.7549L5.29791 42.2706C4.7315 42.6026 4.57525 43.2471 4.92682 43.794C6.82135 46.5284 9.20416 48.8721 11.9385 50.7862C12.4854 51.1768 13.1495 51.001 13.462 50.4346L16.9776 44.3018C17.251 43.8331 17.1534 43.3057 16.7042 42.9737Z" fill="black" fill-opacity="0.85"/>
  <path d="M25.7276 46.5089C23.8526 46.3135 22.0557 45.8057 20.376 45.0831C19.8682 44.8487 19.3213 45.0245 19.0479 45.4932L15.5128 51.626C15.2003 52.1729 15.376 52.8565 15.962 53.1299C18.9112 54.5167 22.1143 55.4346 25.5128 55.7276C26.1768 55.7667 26.6651 55.2979 26.6651 54.6534L26.6651 47.5245C26.6651 46.9776 26.2745 46.5674 25.7276 46.5089Z" fill="black" fill-opacity="0.85"/>
  <path d="M35.337 45.0831C33.6768 45.8057 31.8799 46.294 29.9659 46.5089C29.419 46.5674 29.0284 46.9776 29.0284 47.5245L29.0284 54.6729C29.0284 55.3174 29.5167 55.7862 30.1612 55.7276C33.5596 55.4542 36.8213 54.5167 39.7706 53.1299C40.3565 52.8565 40.5323 52.1729 40.2198 51.626L36.6651 45.4932C36.3917 45.0245 35.8448 44.8487 35.337 45.0831Z" fill="black" fill-opacity="0.85"/>
  <path d="M42.9542 39.0284C41.8409 40.5128 40.5128 41.8214 39.0088 42.9737C38.5596 43.3057 38.4229 43.8526 38.6963 44.3018L42.251 50.4151C42.5635 50.9815 43.2276 51.1768 43.7745 50.7862C46.5088 48.8721 48.8526 46.5089 50.7667 43.794C51.1378 43.2471 50.962 42.6026 50.4151 42.2706L44.2823 38.7159C43.8135 38.4424 43.2862 38.5792 42.9542 39.0284Z" fill="black" fill-opacity="0.85"/>
  <path d="M46.5088 29.9659C46.294 31.8799 45.8057 33.6964 45.044 35.3565C44.8487 35.8643 45.0049 36.3917 45.4932 36.6651L51.6065 40.2003C52.1924 40.5323 52.837 40.3565 53.1104 39.751C54.4971 36.8018 55.3956 33.5792 55.6885 30.1807C55.7276 29.5167 55.2588 29.0284 54.6143 29.0284L47.5049 29.0284C46.9581 29.0284 46.5479 29.419 46.5088 29.9659Z" fill="black" fill-opacity="0.85"/>
  <path d="M45.044 20.376C45.7667 22.0557 46.294 23.8721 46.4893 25.7471C46.5479 26.294 46.9581 26.6846 47.5049 26.6846L54.6338 26.6846C55.2784 26.6846 55.7276 26.1964 55.6885 25.5518C55.4151 22.1534 54.4971 18.8917 53.1104 15.962C52.837 15.376 52.1729 15.1807 51.6065 15.5128L45.4542 19.087C44.9854 19.3604 44.8487 19.8682 45.044 20.376Z" fill="black" fill-opacity="0.85"/>
  <path d="M39.0088 12.7784C40.5128 13.8917 41.8213 15.2003 42.9542 16.7042C43.2862 17.1534 43.8135 17.2901 44.2823 17.0167L50.3956 13.4815C50.9815 13.1495 51.1378 12.5049 50.7862 11.9581C48.8721 9.22369 46.4893 6.86041 43.7745 4.94635C43.2471 4.57526 42.5635 4.73151 42.251 5.29791L38.7159 11.4112C38.4424 11.8995 38.5596 12.4464 39.0088 12.7784Z" fill="black" fill-opacity="0.85"/>
  <path d="M29.9659 9.22369C31.8799 9.39948 33.6573 9.92682 35.337 10.669C35.8448 10.8839 36.3917 10.7081 36.6651 10.2393L40.2198 4.10651C40.5323 3.55963 40.3174 2.89557 39.7315 2.62213C36.7823 1.23541 33.5792 0.297914 30.1612 0.0244761C29.5167-0.0145864 29.0284 0.434632 29.0284 1.07916L29.0284 8.20807C29.0284 8.75494 29.419 9.1651 29.9659 9.22369Z" fill="black" fill-opacity="0.85"/>
  <path d="M16.7042 38.0323C17.5049 38.0323 17.9737 37.5049 17.9737 36.7042L17.9737 29.4581L21.3526 29.4581L24.6143 37.1143C24.8878 37.7393 25.2588 38.0323 25.9034 38.0323C26.626 38.0323 27.1143 37.544 27.1143 36.8409C27.1143 36.5089 26.9776 36.1964 26.8604 35.9034L23.794 28.9112C26.0792 28.0128 27.1338 25.7471 27.1338 23.3643C27.1338 19.5362 24.751 17.3487 21.0792 17.3487L16.6846 17.3487C15.9034 17.3487 15.4346 17.8565 15.4346 18.6573L15.4346 36.7042C15.4346 37.4659 15.8253 38.0323 16.7042 38.0323ZM17.9737 27.4073L17.9737 19.4776L20.8253 19.4776C23.2667 19.4776 24.5753 21.0401 24.5753 23.4034C24.5753 25.7667 23.3838 27.4073 20.8643 27.4073ZM35.3565 37.4659C38.9112 37.4659 41.2159 35.4737 41.2159 32.3096C41.2159 29.3214 39.3799 28.0518 36.8799 26.8799L35.1221 26.0401C33.4034 25.2198 32.0362 24.2628 32.0362 22.5049C32.0362 20.6495 33.462 19.6924 35.2979 19.6924C37.4659 19.6924 38.3057 21.1182 38.5792 22.8956C38.6573 23.3643 39.0479 23.8331 39.7315 23.8331C40.4151 23.8331 40.8643 23.4034 40.8643 22.7198C40.8643 22.544 40.8253 22.2315 40.7862 21.9971C40.2003 18.8721 37.9542 17.6807 35.2979 17.6807C32.0948 17.6807 29.6534 19.4971 29.6534 22.6417C29.6534 25.3174 31.1963 26.7628 33.8917 28.0714L35.6495 28.9112C37.3682 29.7315 38.794 30.6299 38.794 32.5245C38.794 34.4581 37.4854 35.4151 35.376 35.4151C33.0909 35.4151 32.0753 34.1846 31.7237 32.0753C31.626 31.4307 31.1182 31.1182 30.5909 31.1182C29.9073 31.1182 29.419 31.5089 29.419 32.251C29.419 32.4268 29.4581 32.7198 29.5167 32.9542C30.1221 36.1573 32.5049 37.4659 35.3565 37.4659ZM35.3174 40.1612C35.7081 40.1612 35.9424 39.9073 35.9424 39.5167L35.9424 15.6885C35.9424 15.3174 35.7081 15.0635 35.3174 15.0635C34.9268 15.0635 34.6729 15.3174 34.6729 15.6885L34.6729 39.5167C34.6729 39.9073 34.9268 40.1612 35.3174 40.1612Z" fill="black" fill-opacity="0.85"/>
 </g>
</svg>
