<?xml version="1.0" encoding="UTF-8"?>
<!--Generator: Apple Native CoreSVG 326-->
<!DOCTYPE svg
PUBLIC "-//W3C//DTD SVG 1.1//EN"
       "http://www.w3.org/Graphics/SVG/1.1/DTD/svg11.dtd">
<svg version="1.1" xmlns="http://www.w3.org/2000/svg" xmlns:xlink="http://www.w3.org/1999/xlink" viewBox="0 0 70.4688 58.0273">
 <g>
  <rect height="58.0273" opacity="0" width="70.4688" x="0" y="0"/>
  <path d="M54.7461 10.6836L54.7461 14.5249C54.575 14.3864 54.3902 14.2144 54.1797 14.0039L52.9297 12.6953C51.0156 10.6836 48.9648 9.74609 46.0742 9.74609L36.6406 9.74609C33.9648 9.74609 31.9141 10.5078 29.8438 12.6367L28.4766 14.043C27.5781 14.9219 27.168 15.0977 26.25 15.0977L22.9688 15.0977C16.1914 15.0977 12.2461 19.0039 12.2461 25.7422L12.2461 43.6914L10.3516 43.6914C5.29297 43.6914 2.73438 41.1523 2.73438 36.1523L2.73438 10.6836C2.73438 5.70312 5.29297 3.16406 10.3516 3.16406L47.1289 3.16406C52.1875 3.16406 54.7461 5.70312 54.7461 10.6836Z" fill="black" fill-opacity="0.85"/>
  <path d="M22.9688 54.9219L59.7461 54.9219C64.8047 54.9219 67.3633 52.3828 67.3633 47.3828L67.3633 25.7422C67.3633 20.7422 64.8047 18.2031 59.7461 18.2031L56.0547 18.2031C54.1211 18.2031 53.5547 17.9102 52.4023 16.6992L50.6445 14.8242C49.2969 13.418 48.1055 12.8711 46.0742 12.8711L36.6406 12.8711C34.6094 12.8711 33.457 13.4375 32.0898 14.8242L30.2148 16.6992C29.0625 17.832 28.5938 18.2031 26.6602 18.2031L22.9688 18.2031C17.9102 18.2031 15.3516 20.7422 15.3516 25.7422L15.3516 47.3828C15.3516 52.3828 17.9102 54.9219 22.9688 54.9219ZM41.3867 47.793C34.5703 47.793 29.082 42.2852 29.082 35.4688C29.082 28.6719 34.5703 23.1641 41.3867 23.1641C48.1641 23.1641 53.6523 28.6719 53.6523 35.4688C53.6523 42.2852 48.1641 47.793 41.3867 47.793ZM41.3867 44.4727C46.3086 44.4727 50.332 40.4297 50.332 35.4688C50.332 30.5273 46.3086 26.4844 41.3867 26.4844C36.4258 26.4844 32.4023 30.5273 32.4023 35.4688C32.4023 40.4297 36.4258 44.4727 41.3867 44.4727ZM58.5742 29.5117C57.0117 29.5117 55.7227 28.2422 55.7227 26.6797C55.7227 25.1172 57.0117 23.8086 58.5742 23.8086C60.1367 23.8086 61.4258 25.1172 61.4258 26.6797C61.4258 28.2422 60.1367 29.5117 58.5742 29.5117Z" fill="black" fill-opacity="0.85"/>
 </g>
</svg>
