<?xml version="1.0" encoding="UTF-8"?>
<!--Generator: Apple Native CoreSVG 326-->
<!DOCTYPE svg
PUBLIC "-//W3C//DTD SVG 1.1//EN"
       "http://www.w3.org/Graphics/SVG/1.1/DTD/svg11.dtd">
<svg version="1.1" xmlns="http://www.w3.org/2000/svg" xmlns:xlink="http://www.w3.org/1999/xlink" viewBox="0 0 44.1992 63.5352">
 <g>
  <rect height="63.5352" opacity="0" width="44.1992" x="0" y="0"/>
  <path d="M42.0312 51.3672C43.125 51.3672 43.8281 50.6641 43.8281 49.5703L43.8281 27.9883C43.8281 26.875 43.125 26.1914 42.0312 26.1914C40.9375 26.1914 40.2344 26.875 40.2344 27.9883L40.2344 49.5508C40.2344 50.6641 40.9375 51.3672 42.0312 51.3672ZM42.0312 33.9062L42.0312 31.0352L33.6719 31.0352L33.6719 33.9062ZM17.5391 63.4961C29.6484 63.4961 35.0781 60.7227 35.0781 54.2969L35.0781 11.1914C35.0781 4.10156 28.6523 0 17.5391 0C6.42578 0 0 4.10156 0 11.1914L0 54.2969C0 60.7227 5.44922 63.4961 17.5391 63.4961ZM17.5391 59.9414C7.94922 59.9414 3.57422 58.1641 3.57422 54.1406L3.57422 11.1914C3.57422 6.36719 8.69141 3.57422 17.5391 3.57422C26.4062 3.57422 31.5039 6.36719 31.5039 11.1914L31.5039 54.1406C31.5039 58.1641 27.1289 59.9414 17.5391 59.9414ZM17.5586 26.4453C19.7461 26.4453 23.6914 26.6211 24.9609 26.6211C26.8359 26.6211 27.6758 25.8984 27.832 23.9258L28.2422 19.4141C28.5547 15.8398 26.25 14.3164 17.5586 14.3164C8.84766 14.3164 6.54297 15.8398 6.85547 19.4141L7.26562 23.9258C7.42188 25.8984 8.26172 26.6211 10.1367 26.6211C11.4062 26.6211 15.0977 26.4453 17.5586 26.4453ZM17.5586 53.2422C26.0156 53.2422 28.5742 52.0117 28.0859 48.3594L27.793 46.0938C27.4219 43.1445 24.9414 42.1484 17.5586 42.1484C10.1562 42.1484 7.67578 43.1445 7.30469 46.0938L7.01172 48.3594C6.52344 52.0117 9.08203 53.2422 17.5586 53.2422Z" fill="black" fill-opacity="0.85"/>
 </g>
</svg>
