<?xml version="1.0" encoding="UTF-8"?>
<!--Generator: Apple Native CoreSVG 326-->
<!DOCTYPE svg
PUBLIC "-//W3C//DTD SVG 1.1//EN"
       "http://www.w3.org/Graphics/SVG/1.1/DTD/svg11.dtd">
<svg version="1.1" xmlns="http://www.w3.org/2000/svg" xmlns:xlink="http://www.w3.org/1999/xlink" viewBox="0 0 71.7148 59.3213">
 <g>
  <rect height="59.3213" opacity="0" width="71.7148" x="0" y="0"/>
  <path d="M17.5957 21.3892L7.20506 47.2681C6.81444 48.2446 6.1699 48.8501 4.86131 48.8501L1.75584 48.8501C0.0761538 48.8501-0.334002 47.5806 0.251935 46.4282L12.9277 21.0571C13.2793 20.4126 13.7285 20.0806 14.4512 20.0806L16.8144 20.0806C17.5566 20.0806 17.8887 20.6665 17.5957 21.3892ZM58.3965 21.0571L71.0918 46.4282C71.6777 47.5806 71.248 48.8501 69.5879 48.8501L66.4824 48.8501C65.1738 48.8501 64.5097 48.2446 64.1387 47.2681L53.748 21.3892C53.4551 20.6665 53.7871 20.0806 54.5293 20.0806L56.873 20.0806C57.6152 20.0806 58.084 20.4126 58.3965 21.0571Z" fill="black" fill-opacity="0.85"/>
  <path d="M26.1999 26.4436C26.12 27.236 25.4866 27.815 24.666 27.815L23.2793 27.815C22.4199 27.815 21.7363 27.1314 21.7363 26.272L21.7363 21.9835ZM42.0683 6.19386C43.6894 6.38917 44.959 7.18995 45.6426 9.14308L46.9121 12.7759L48.084 14.0845C49.2363 15.3931 49.5683 16.5454 49.5683 18.5767L49.5683 26.272C49.5683 27.1509 48.8847 27.815 48.0058 27.815L46.6387 27.815C45.7597 27.815 45.0762 27.1509 45.0762 26.272L45.0762 24.6509L36.843 24.6509L24.5403 12.353L25.6621 9.14308C26.3457 7.18995 27.6152 6.38917 29.2363 6.19386C30.0371 6.0962 32.6738 6.01808 35.6426 6.01808C38.6308 6.01808 41.2676 6.0962 42.0683 6.19386ZM44.2949 17.0337L44.2949 18.9282C44.2949 19.6118 44.8222 20.1196 45.4863 20.1196C46.1894 20.1196 46.6972 19.6314 46.6972 18.9282L46.6972 17.0337C46.6972 16.3501 46.1894 15.8618 45.4863 15.8618C44.8222 15.8618 44.2949 16.3696 44.2949 17.0337ZM32.9082 16.4087C32.3613 16.4087 32.0097 16.7603 32.0097 17.3267L32.0097 18.6353C32.0097 19.2212 32.3613 19.5923 32.9082 19.5923L38.3183 19.5923C38.8652 19.5923 39.2363 19.2212 39.2363 18.6353L39.2363 17.3267C39.2363 16.7603 38.8652 16.4087 38.3183 16.4087ZM29.2558 8.20558C28.4355 8.30323 27.9472 8.63526 27.6543 9.55323L26.9121 11.7407C26.7363 12.2485 26.9316 12.6587 27.4785 12.6587L43.8262 12.6587C44.373 12.6587 44.5683 12.2485 44.3926 11.7407L43.6504 9.55323C43.3379 8.63526 42.8496 8.30323 42.0293 8.20558C41.1894 8.08839 39.0215 8.01026 35.6426 8.01026C32.2832 8.01026 30.1152 8.08839 29.2558 8.20558Z" fill="black" fill-opacity="0.85"/>
  <path d="M31.3208 31.5606L36.9464 37.1818L37.8496 38.1079L37.8542 38.0889L46.3788 46.6069L43.748 47.3853L48.8652 56.9751C49.2754 57.7368 48.5137 58.3618 47.8691 57.7759L39.2168 49.9829L34.0605 58.4595C33.7676 58.9478 33.123 58.8696 33.1035 58.186L33.0254 51.4282L24.998 53.2446C24.1582 53.44 23.9043 52.522 24.5097 52.1118L30.8574 47.815L26.1699 47.4829C25.3887 47.4243 25.2715 46.6431 25.9941 46.3696L30.2129 44.8071L23.2207 40.5689C22.5371 40.1782 22.791 39.3579 23.6113 39.4751L31.0332 40.5103L29.4316 38.4204C28.9433 37.7759 29.4121 37.2876 30.0762 37.5806L32.9472 38.8696L30.7402 32.3657C30.5603 31.7959 30.91 31.4448 31.3208 31.5606Z" fill="black" fill-opacity="0.85"/>
  <path d="M59.7441 56.0962C60.3887 56.7603 61.4433 56.7603 62.0879 56.0962C62.7324 55.4321 62.7519 54.397 62.0879 53.7525L11.5801 3.24464C10.9355 2.60011 9.88084 2.58058 9.19725 3.24464C8.55272 3.86964 8.55272 4.96339 9.19725 5.60792Z" fill="black" fill-opacity="0.85"/>
 </g>
</svg>
