<?xml version="1.0" encoding="UTF-8"?>
<!--Generator: Apple Native CoreSVG 326-->
<!DOCTYPE svg
PUBLIC "-//W3C//DTD SVG 1.1//EN"
       "http://www.w3.org/Graphics/SVG/1.1/DTD/svg11.dtd">
<svg version="1.1" xmlns="http://www.w3.org/2000/svg" xmlns:xlink="http://www.w3.org/1999/xlink" viewBox="0 0 66.8151 51.1133">
 <g>
  <rect height="51.1133" opacity="0" width="66.8151" x="0" y="0"/>
  <path d="M1.63999 34.6484L4.53061 34.6484C5.78061 34.6484 6.38608 34.0625 6.77671 33.1445L19.6869 1.23047C19.9603 0.546875 19.6478 0 18.9447 0L17.5775 0C16.8939 0 16.4447 0.3125 16.1322 0.917969L0.233739 32.3633C-0.313136 33.418 0.0774892 34.6484 1.63999 34.6484ZM61.9134 34.6484L64.8041 34.6484C66.3666 34.6484 66.7572 33.418 66.2103 32.3633L50.3119 0.917969C49.9994 0.3125 49.5501 0 48.8666 0L47.4994 0C46.7962 0 46.4837 0.546875 46.7572 1.23047L59.6673 33.1445C60.058 34.0625 60.6634 34.6484 61.9134 34.6484ZM18.4955 27.0898C18.4955 28.0078 19.2181 28.7109 20.1361 28.7109L21.5814 28.7109C22.4994 28.7109 23.2025 28.0078 23.2025 27.0898L23.2025 25.3906L42.9876 25.3906L42.9876 27.0898C42.9876 28.0078 43.6908 28.7109 44.6087 28.7109L46.0541 28.7109C46.972 28.7109 47.6751 28.0078 47.6751 27.0898L47.6751 19.0039C47.6751 16.875 47.3431 15.6641 46.1322 14.2969L44.9017 12.9297L43.5736 9.12109C42.8509 7.08984 41.5228 6.23047 39.8236 6.03516C38.9837 5.91797 36.2103 5.85938 33.0853 5.85938C29.9603 5.85938 27.2064 5.91797 26.3666 6.03516C24.6673 6.23047 23.3392 7.08984 22.6166 9.12109L21.2884 12.9297L20.058 14.2969C18.847 15.6641 18.4955 16.875 18.4955 19.0039ZM24.5306 12.832C23.9642 12.832 23.7494 12.4023 23.9447 11.8555L24.7064 9.57031C25.0384 8.61328 25.5267 8.26172 26.3861 8.16406C27.265 8.04688 29.5501 7.94922 33.0853 7.94922C36.6205 7.94922 38.9056 8.04688 39.8041 8.16406C40.6439 8.26172 41.1517 8.61328 41.4642 9.57031L42.2455 11.8555C42.4408 12.4023 42.2259 12.832 41.64 12.832ZM22.8705 20.625C22.1283 20.625 21.6009 20.0977 21.6009 19.375L21.6009 17.4023C21.6009 16.6797 22.1283 16.1523 22.8705 16.1523C23.5931 16.1523 24.14 16.6797 24.14 17.4023L24.14 19.375C24.14 20.1172 23.5931 20.625 22.8705 20.625ZM30.2337 20.0781C29.6478 20.0781 29.2767 19.6875 29.2767 19.0625L29.2767 17.7148C29.2767 17.0898 29.6478 16.7383 30.2337 16.7383L35.8783 16.7383C36.4642 16.7383 36.8548 17.0898 36.8548 17.7148L36.8548 19.0625C36.8548 19.6875 36.4642 20.0781 35.8783 20.0781ZM43.4173 20.625C42.6947 20.625 42.1478 20.0977 42.1478 19.375L42.1478 17.4023C42.1478 16.6797 42.6947 16.1523 43.4173 16.1523C44.14 16.1523 44.6869 16.6797 44.6869 17.4023L44.6869 19.375C44.6869 20.1172 44.14 20.625 43.4173 20.625Z" fill="black" fill-opacity="0.85"/>
  <path d="M21.7962 51.1133C25.9564 51.1133 27.9681 48.0078 27.9681 43.9453C27.9681 39.8438 25.9369 36.7383 21.7962 36.7383C17.7923 36.7383 15.6244 39.7656 15.6244 43.9453C15.6244 47.9492 17.6166 51.1133 21.7962 51.1133ZM21.7962 48.75C19.3744 48.75 18.4955 46.2891 18.4955 43.9453C18.4955 41.4453 19.4525 39.1016 21.7962 39.1016C24.2767 39.1016 25.1166 41.6016 25.1166 43.9453C25.1166 46.5039 24.1205 48.75 21.7962 48.75ZM31.7572 50.957C32.7533 50.957 33.1634 50.3125 33.1634 49.5117L33.1634 45.332L37.4212 45.332C38.1439 45.332 38.6126 44.9219 38.6126 44.1992C38.6126 43.4961 38.1634 43.0664 37.4212 43.0664L33.1634 43.0664L33.1634 39.4141L37.8509 39.4141C38.6517 39.4141 39.1009 38.9844 39.1009 38.2422C39.1009 37.5 38.6517 37.0508 37.8509 37.0508L31.7376 37.0508C30.9173 37.0508 30.3509 37.5977 30.3509 38.5156L30.3509 49.5117C30.3509 50.293 30.7806 50.957 31.7572 50.957ZM42.597 50.957C43.5736 50.957 44.0033 50.3125 44.0033 49.5117L44.0033 45.332L48.2416 45.332C48.9642 45.332 49.4525 44.9219 49.4525 44.1992C49.4525 43.4961 48.9837 43.0664 48.2416 43.0664L44.0033 43.0664L44.0033 39.4141L48.6712 39.4141C49.472 39.4141 49.9212 38.9844 49.9212 38.2422C49.9212 37.5 49.472 37.0508 48.6712 37.0508L42.5775 37.0508C41.7376 37.0508 41.1908 37.5977 41.1908 38.5156L41.1908 49.5117C41.1908 50.293 41.6009 50.957 42.597 50.957Z" fill="black" fill-opacity="0.85"/>
 </g>
</svg>
