<?xml version="1.0" encoding="UTF-8"?>
<!--Generator: Apple Native CoreSVG 326-->
<!DOCTYPE svg
PUBLIC "-//W3C//DTD SVG 1.1//EN"
       "http://www.w3.org/Graphics/SVG/1.1/DTD/svg11.dtd">
<svg version="1.1" xmlns="http://www.w3.org/2000/svg" xmlns:xlink="http://www.w3.org/1999/xlink" viewBox="0 0 89.1406 40.0586">
 <g>
  <rect height="40.0586" opacity="0" width="89.1406" x="0" y="0"/>
  <path d="M26.8555 32.2852C26.8555 36.5039 23.5547 39.8242 19.3359 39.8242C15.0977 39.8242 11.7969 36.5039 11.7969 32.2852C11.7969 28.0664 15.0977 24.7656 19.3359 24.7656C23.5547 24.7656 26.8555 28.0664 26.8555 32.2852ZM76.9727 32.2852C76.9727 36.5039 73.6719 39.8242 69.4336 39.8242C65.2148 39.8242 61.8945 36.5039 61.8945 32.2852C61.8945 28.0664 65.2148 24.7656 69.4336 24.7656C73.6719 24.7656 76.9727 28.0664 76.9727 32.2852ZM77.9102 9.33594L81.9336 10.6836C86.6211 12.2266 88.7695 14.9805 88.7695 19.5117L88.7695 26.4844C88.7695 32.0508 86.3477 34.6094 81.0742 34.6094L79.4336 34.6094C79.6094 33.8477 79.707 33.0859 79.707 32.2852C79.707 26.5625 75.1758 22.0508 69.4336 22.0508C63.6914 22.0508 59.1797 26.5625 59.1797 32.2852C59.1797 33.0859 59.2773 33.8477 59.4336 34.6094L29.3164 34.6094C29.4922 33.8477 29.5898 33.0859 29.5898 32.2852C29.5898 26.5625 25.0781 22.0508 19.3359 22.0508C13.5742 22.0508 9.0625 26.5625 9.0625 32.2852C9.0625 33.0859 9.16016 33.8477 9.31641 34.6094L7.67578 34.6094C2.46094 34.6094 0 32.0898 0 26.6016L0 23.3203C0 17.5781 4.0625 13.457 10.7617 12.6172L22.0508 11.2305L32.2656 4.84375C38.3203 1.03516 42.7344 0 52.8125 0L56.4453 0C65.8594 0 72.5 4.84375 77.9102 9.33594ZM39.9219 9.72656C35.293 9.72656 32.1484 12.6367 32.1484 16.8945C32.1484 21.0938 35.293 23.9648 39.9023 23.9648L50.1953 23.9648L50.1953 26.6406C50.1953 27.9492 51.1133 28.3984 52.2461 27.6562L58.3398 23.5938C59.1992 23.0469 59.2383 21.9922 58.3203 21.3672L52.2852 17.3242C51.1328 16.5625 50.1953 17.0117 50.1953 18.3398L50.1953 20.9375L39.9023 20.9375C37.1484 20.9375 35.3125 19.375 35.3125 17.0898C35.3125 14.5312 37.1875 12.793 39.9219 12.793L54.8828 12.793C55.8008 12.7734 56.4648 12.168 56.4648 11.2695C56.4648 10.3906 55.8008 9.72656 54.8438 9.72656Z" fill="black" fill-opacity="0.85"/>
 </g>
</svg>
