<?xml version="1.0" encoding="UTF-8"?>
<!--Generator: Apple Native CoreSVG 326-->
<!DOCTYPE svg
PUBLIC "-//W3C//DTD SVG 1.1//EN"
       "http://www.w3.org/Graphics/SVG/1.1/DTD/svg11.dtd">
<svg version="1.1" xmlns="http://www.w3.org/2000/svg" xmlns:xlink="http://www.w3.org/1999/xlink" viewBox="0 0 64.8444 46.4648">
 <g>
  <rect height="46.4648" opacity="0" width="64.8444" x="0" y="0"/>
  <path d="M6.58237 30.0391C4.53158 27.1289 3.51596 23.8281 3.39877 20.5664C3.34018 19.3555 2.55893 18.7891 1.69955 18.8086C0.820647 18.8086-0.0191971 19.4531 0.000334133 20.5078C0.0979904 24.5508 1.50424 28.4375 3.88705 31.8945C6.30893 35.332 9.51205 38.0078 13.2621 39.4531C14.1214 39.7852 14.8831 39.3945 15.2738 38.75C15.7816 37.9297 15.6449 36.7578 14.3753 36.25C11.3285 35 8.59408 32.9297 6.58237 30.0391ZM32.2269 43.0859C28.6917 43.0859 25.43 42.0312 22.6371 40.2539C21.5824 39.5898 20.6253 40 20.1566 40.7812C19.766 41.5039 19.8636 42.4609 20.6644 43.0078C24.0042 45.2344 28.0277 46.3281 32.2269 46.3281C36.4456 46.3281 40.4496 45.2344 43.8089 43.0078C44.6097 42.4609 44.6878 41.5039 44.2972 40.7812C43.848 40 42.891 39.5898 41.8167 40.2734C39.0433 42.0312 35.7621 43.0859 32.2269 43.0859ZM57.891 30.0391C55.8792 32.9297 53.1253 35 50.098 36.25C48.8285 36.7578 48.6917 37.9297 49.1996 38.75C49.5902 39.3945 50.3519 39.7852 51.2113 39.4531C54.9417 38.0078 58.1644 35.332 60.5863 31.8945C62.9691 28.4375 64.3753 24.5508 64.473 20.5078C64.4925 19.4531 63.6527 18.8086 62.7738 18.8086C61.9144 18.7891 61.1331 19.3555 61.0746 20.5664C60.9378 23.8281 59.9417 27.1289 57.891 30.0391Z" fill="black" fill-opacity="0.85"/>
  <path d="M13.7503 25C12.7542 23.5938 12.1878 22.1484 12.0511 20.5078C11.8167 19.0234 10.723 18.5938 9.80502 18.9258C9.14096 19.1602 8.65268 19.8242 8.76987 20.6836C8.98471 22.7148 9.7269 24.9414 11.055 26.875C12.4222 28.8086 14.2581 30.2539 16.055 31.1328C16.9925 31.6211 17.9105 31.1914 18.3011 30.4883C18.7113 29.7266 18.5355 28.75 17.3636 28.1445C15.8988 27.4219 14.7269 26.4062 13.7503 25ZM32.2269 34.3359C30.5277 34.3359 29.0042 33.9453 27.5785 33.1445C26.3871 32.5391 25.5081 32.9688 25.1175 33.75C24.7464 34.4727 24.9613 35.4688 25.8597 35.9375C27.6371 36.9336 29.8831 37.5977 32.2269 37.5977C34.5902 37.5977 36.8363 36.9336 38.5941 35.9375C39.5121 35.4688 39.7074 34.4727 39.3363 33.75C38.9652 32.9688 38.0667 32.5586 36.8753 33.1445C35.4691 33.9648 33.9456 34.3359 32.2269 34.3359ZM50.7035 25C49.7464 26.4062 48.555 27.4219 47.0902 28.1445C45.9183 28.75 45.7621 29.7266 46.1527 30.4883C46.5433 31.1914 47.4808 31.6211 48.4183 31.1328C50.2152 30.2539 52.0316 28.8086 53.4183 26.875C54.7464 24.9414 55.4886 22.7148 55.7035 20.6836C55.8206 19.8242 55.3128 19.1602 54.6683 18.9258C53.7503 18.5938 52.6566 19.0234 52.4222 20.5078C52.2855 22.1484 51.7191 23.5938 50.7035 25Z" fill="black" fill-opacity="0.85"/>
  <path d="M32.2269 18.1055C25.4886 18.1055 23.3402 17.1289 23.8089 14.082L24.0628 12.3242C24.4339 9.86328 26.3285 9.08203 32.2269 9.08203C38.1449 9.08203 40.0785 9.86328 40.43 12.3242L40.6644 14.082C41.0746 17.1289 38.9847 18.1055 32.2269 18.1055ZM45.9574 0L18.4964 0L18.4964 18.1055C18.4964 23.4961 22.891 25.6836 32.2269 25.6836C41.5824 25.6836 45.9574 23.4961 45.9574 18.1055Z" fill="black" fill-opacity="0.85"/>
 </g>
</svg>
