<?xml version="1.0" encoding="UTF-8"?>
<!--Generator: Apple Native CoreSVG 326-->
<!DOCTYPE svg
PUBLIC "-//W3C//DTD SVG 1.1//EN"
       "http://www.w3.org/Graphics/SVG/1.1/DTD/svg11.dtd">
<svg version="1.1" xmlns="http://www.w3.org/2000/svg" xmlns:xlink="http://www.w3.org/1999/xlink" viewBox="0 0 44.1992 63.5352">
 <g>
  <rect height="63.5352" opacity="0" width="44.1992" x="0" y="0"/>
  <path d="M1.81641 51.3672C2.89062 51.3672 3.59375 50.6641 3.59375 49.5508L3.59375 27.9883C3.59375 26.875 2.89062 26.1914 1.81641 26.1914C0.722656 26.1914 0 26.875 0 27.9883L0 49.5703C0 50.6641 0.722656 51.3672 1.81641 51.3672ZM1.81641 33.9062L10.1562 33.9062L10.1562 31.0352L1.81641 31.0352ZM26.2891 63.4961C38.3984 63.4961 43.8281 60.7227 43.8281 54.2969L43.8281 11.1914C43.8281 4.10156 37.4023 0 26.2891 0C15.1758 0 8.75 4.10156 8.75 11.1914L8.75 54.2969C8.75 60.7227 14.1797 63.4961 26.2891 63.4961ZM26.2891 59.9414C16.6992 59.9414 12.3242 58.1641 12.3242 54.1406L12.3242 11.1914C12.3242 6.36719 17.4414 3.57422 26.2891 3.57422C35.1367 3.57422 40.2539 6.36719 40.2539 11.1914L40.2539 54.1406C40.2539 58.1641 35.8789 59.9414 26.2891 59.9414ZM26.2891 26.4453C28.4961 26.4453 32.4414 26.6211 33.7109 26.6211C35.5859 26.6211 36.4258 25.8984 36.582 23.9258L36.9922 19.4141C37.2852 15.8398 34.9805 14.3164 26.2891 14.3164C17.5977 14.3164 15.293 15.8398 15.6055 19.4141L16.0156 23.9258C16.1719 25.8984 17.0117 26.6211 18.8867 26.6211C20.1562 26.6211 23.8477 26.4453 26.2891 26.4453ZM26.2891 53.2422C34.7656 53.2422 37.3047 52.0117 36.8359 48.3594L36.543 46.0938C36.1719 43.1445 33.6914 42.1484 26.2891 42.1484C18.9062 42.1484 16.4258 43.1445 16.0547 46.0938L15.7617 48.3594C15.2734 52.0117 17.832 53.2422 26.2891 53.2422Z" fill="black" fill-opacity="0.85"/>
 </g>
</svg>
