<?xml version="1.0" encoding="UTF-8"?>
<!--Generator: Apple Native CoreSVG 326-->
<!DOCTYPE svg
PUBLIC "-//W3C//DTD SVG 1.1//EN"
       "http://www.w3.org/Graphics/SVG/1.1/DTD/svg11.dtd">
<svg version="1.1" xmlns="http://www.w3.org/2000/svg" xmlns:xlink="http://www.w3.org/1999/xlink" viewBox="0 0 48.9258 48.4961">
 <g>
  <rect height="48.4961" opacity="0" width="48.9258" x="0" y="0"/>
  <path d="M1.71875 48.4766C2.69531 48.4766 3.4375 47.6758 3.4375 46.7383L3.4375 1.71875C3.4375 0.78125 2.69531 0 1.71875 0C0.742188 0 0 0.78125 0 1.71875L0 46.7383C0 47.6758 0.742188 48.4766 1.71875 48.4766Z" fill="black" fill-opacity="0.85"/>
  <path d="M9.47266 47.9688L29.082 47.9688C30.4102 47.9688 31.25 47.0898 31.25 45.7227L31.25 40.6641C31.25 39.2383 30.4102 38.3984 29.082 38.3984L9.47266 38.3984C8.125 38.3984 7.32422 39.2383 7.32422 40.6641L7.32422 45.7227C7.32422 47.0898 8.125 47.9688 9.47266 47.9688Z" fill="black" fill-opacity="0.85"/>
  <path d="M9.47266 35.332L40.6055 35.332C41.9531 35.332 42.7539 34.4727 42.7539 33.0664L42.7539 28.0078C42.7539 26.6211 41.9531 25.7617 40.6055 25.7617L9.47266 25.7617C8.125 25.7617 7.32422 26.6211 7.32422 28.0078L7.32422 33.0664C7.32422 34.4727 8.125 35.332 9.47266 35.332Z" fill="black" fill-opacity="0.85"/>
  <path d="M9.47266 22.6953L46.4258 22.6953C47.7539 22.6953 48.5547 21.8359 48.5547 20.4297L48.5547 15.3711C48.5547 13.9844 47.7539 13.125 46.4258 13.125L9.47266 13.125C8.125 13.125 7.32422 13.9844 7.32422 15.3711L7.32422 20.4297C7.32422 21.8359 8.125 22.6953 9.47266 22.6953Z" fill="black" fill-opacity="0.85"/>
  <path d="M9.47266 10.0781L34.7656 10.0781C36.0742 10.0781 36.8945 9.19922 36.8945 7.8125L36.8945 2.73438C36.8945 1.34766 36.0742 0.488281 34.7656 0.488281L9.47266 0.488281C8.125 0.488281 7.32422 1.34766 7.32422 2.73438L7.32422 7.8125C7.32422 9.19922 8.125 10.0781 9.47266 10.0781Z" fill="black" fill-opacity="0.85"/>
 </g>
</svg>
