<?xml version="1.0" encoding="UTF-8"?>
<!--Generator: Apple Native CoreSVG 326-->
<!DOCTYPE svg
PUBLIC "-//W3C//DTD SVG 1.1//EN"
       "http://www.w3.org/Graphics/SVG/1.1/DTD/svg11.dtd">
<svg version="1.1" xmlns="http://www.w3.org/2000/svg" xmlns:xlink="http://www.w3.org/1999/xlink" viewBox="0 0 51.25 50.918">
 <g>
  <rect height="50.918" opacity="0" width="51.25" x="0" y="0"/>
  <path d="M25.4102 24.9414C32.2461 24.9414 37.9102 19.3164 37.9102 12.5C37.9102 5.66406 32.2461 0.0195312 25.4102 0.0195312C18.5547 0.0195312 12.9297 5.66406 12.9297 12.5C12.9297 19.3164 18.5938 24.9414 25.4102 24.9414ZM25.4102 21.3281C20.4102 21.3281 16.5625 17.4805 16.5625 12.5C16.5625 7.5 20.4102 3.65234 25.4102 3.65234C30.4102 3.65234 34.2969 7.5 34.2969 12.5C34.2969 17.4805 30.4102 21.3281 25.4102 21.3281ZM25.4297 50.8789C39.4727 50.8789 50.8789 39.4922 50.8789 25.4492C50.8789 11.4062 39.4727 0 25.4297 0C11.3867 0 0 11.4062 0 25.4492C0 39.4922 11.3867 50.8789 25.4297 50.8789ZM25.4297 47.2461C13.3789 47.2461 3.63281 37.5 3.63281 25.4492C3.63281 13.3984 13.3789 3.65234 25.4297 3.65234C37.4805 3.65234 47.2266 13.3984 47.2266 25.4492C47.2266 37.5 37.4805 47.2461 25.4297 47.2461Z" fill="black" fill-opacity="0.85"/>
 </g>
</svg>
