<?xml version="1.0" encoding="UTF-8"?>
<!--Generator: Apple Native CoreSVG 326-->
<!DOCTYPE svg
PUBLIC "-//W3C//DTD SVG 1.1//EN"
       "http://www.w3.org/Graphics/SVG/1.1/DTD/svg11.dtd">
<svg version="1.1" xmlns="http://www.w3.org/2000/svg" xmlns:xlink="http://www.w3.org/1999/xlink" viewBox="0 0 42.3047 53.8477">
 <g>
  <rect height="53.8477" opacity="0" width="42.3047" x="0" y="0"/>
  <path d="M0 46.25C0 51.2891 2.51953 53.8477 7.51953 53.8477L34.4141 53.8477C39.4141 53.8477 41.9336 51.2891 41.9336 46.25L41.9336 7.61719C41.9336 2.57812 39.4141 0.0195312 34.4141 0.0195312L7.51953 0.0195312C2.51953 0.0195312 0 2.57812 0 7.61719ZM3.45703 46.1719L3.45703 7.69531C3.45703 4.96094 4.90234 3.47656 7.71484 3.47656L34.2188 3.47656C37.0312 3.47656 38.4766 4.96094 38.4766 7.69531L38.4766 46.1719C38.4766 48.9062 37.0312 50.3906 34.2188 50.3906L7.71484 50.3906C4.90234 50.3906 3.45703 48.9062 3.45703 46.1719Z" fill="black" fill-opacity="0.85"/>
  <path d="M8.82812 38.0469C7.85156 38.0469 7.26562 38.6719 7.26562 39.707L7.26562 44.1797C7.26562 45.1758 7.85156 45.8398 8.82812 45.8398L20.4102 45.8398C21.3672 45.8398 21.9727 45.1758 21.9727 44.1797L21.9727 39.707C21.9727 38.6719 21.3672 38.0469 20.4102 38.0469Z" fill="black" fill-opacity="0.85"/>
  <path d="M8.82812 28.0273C7.85156 28.0273 7.26562 28.6523 7.26562 29.6484L7.26562 34.1406C7.26562 35.1758 7.85156 35.8008 8.82812 35.8008L28.8672 35.8008C29.8438 35.8008 30.4297 35.1758 30.4297 34.1406L30.4297 29.6484C30.4297 28.6523 29.8438 28.0273 28.8672 28.0273Z" fill="black" fill-opacity="0.85"/>
  <path d="M8.82812 17.9883C7.85156 17.9883 7.26562 18.6133 7.26562 19.6484L7.26562 24.1211C7.26562 25.1172 7.85156 25.7812 8.82812 25.7812L33.1445 25.7812C34.1016 25.7812 34.6875 25.1172 34.6875 24.1016L34.6875 19.6484C34.6875 18.6133 34.1016 17.9883 33.1445 17.9883Z" fill="black" fill-opacity="0.85"/>
  <path d="M8.82812 7.96875C7.85156 7.96875 7.26562 8.59375 7.26562 9.62891L7.26562 14.1016C7.26562 15.0977 7.85156 15.7422 8.82812 15.7422L24.5703 15.7422C25.5273 15.7422 26.1328 15.0977 26.1328 14.1016L26.1328 9.62891C26.1328 8.59375 25.5273 7.96875 24.5703 7.96875Z" fill="black" fill-opacity="0.85"/>
 </g>
</svg>
