<?xml version="1.0" encoding="UTF-8"?>
<!--Generator: Apple Native CoreSVG 326-->
<!DOCTYPE svg
PUBLIC "-//W3C//DTD SVG 1.1//EN"
       "http://www.w3.org/Graphics/SVG/1.1/DTD/svg11.dtd">
<svg version="1.1" xmlns="http://www.w3.org/2000/svg" xmlns:xlink="http://www.w3.org/1999/xlink" viewBox="0 0 55.3906 54.7852">
 <g>
  <rect height="54.7852" opacity="0" width="55.3906" x="0" y="0"/>
  <path d="M55.0195 14.2969L55.0195 34.2188C55.0195 41.1719 51.0742 45.1953 44.0039 45.1953L26.0547 45.1953L16.9336 53.418C15.9375 54.3359 15.293 54.7852 14.4336 54.7852C13.1836 54.7852 12.4609 53.8867 12.4609 52.5195L12.4609 45.1953L11.0156 45.1953C3.92578 45.1953 0 41.2109 0 34.2188L0 14.2969C0 7.30469 3.92578 3.28125 11.0156 3.28125L44.0039 3.28125C51.0742 3.28125 55.0195 7.32422 55.0195 14.2969ZM35.9375 14.1992L24.6484 32.1484L19.0234 25.1172C18.4961 24.4336 18.0078 24.2188 17.4023 24.2188C16.4258 24.2188 15.6641 25.0195 15.6641 25.9961C15.6641 26.4844 15.8594 26.9727 16.1914 27.4023L22.8516 35.4492C23.418 36.1719 23.9844 36.4844 24.7266 36.4844C25.4688 36.4844 26.0742 36.1328 26.5234 35.4492L38.75 16.25C39.0234 15.8398 39.2773 15.332 39.2773 14.8633C39.2773 13.8672 38.3984 13.2031 37.4805 13.2031C36.8945 13.2031 36.3281 13.5547 35.9375 14.1992Z" fill="black" fill-opacity="0.85"/>
 </g>
</svg>
