<?xml version="1.0" encoding="UTF-8"?>
<!--Generator: Apple Native CoreSVG 326-->
<!DOCTYPE svg
PUBLIC "-//W3C//DTD SVG 1.1//EN"
       "http://www.w3.org/Graphics/SVG/1.1/DTD/svg11.dtd">
<svg version="1.1" xmlns="http://www.w3.org/2000/svg" xmlns:xlink="http://www.w3.org/1999/xlink" viewBox="0 0 56.9531 51.9727">
 <g>
  <rect height="51.9727" opacity="0" width="56.9531" x="0" y="0"/>
  <path d="M10.7617 51.9531C14.0039 51.9531 20.5859 48.8477 25.625 45.3906C42.7539 46.2109 56.582 36.2891 56.582 22.7539C56.582 10.1758 44.0234 0 28.3008 0C12.5586 0 0 10.1758 0 22.7539C0 30.9766 5.27344 38.2617 13.2422 41.9922C12.1094 44.1797 10.0781 46.9141 8.96484 48.3398C7.67578 50 8.37891 51.9531 10.7617 51.9531ZM12.9102 48.3789C12.7148 48.4375 12.6367 48.3203 12.7734 48.1445C14.1211 46.5039 16.1523 43.9453 17.0508 42.168C17.6562 41.0547 17.4805 40.0586 16.1328 39.4336C8.22266 35.7617 3.55469 29.707 3.55469 22.7539C3.55469 12.1484 14.5312 3.55469 28.3008 3.55469C42.0508 3.55469 53.0273 12.1484 53.0273 22.7539C53.0273 33.3398 42.0508 41.9531 28.3008 41.9531C27.5977 41.9531 26.6992 41.9141 25.6055 41.8555C24.6875 41.8555 23.9453 42.1289 23.125 42.7539C19.7266 45.0391 15.1562 47.6562 12.9102 48.3789Z" fill="black" fill-opacity="0.85"/>
  <path d="M25.5664 34.9219C26.2695 34.9219 26.8555 34.5703 27.2852 33.9258L39.2773 15.1562C39.5117 14.7461 39.7852 14.2578 39.7852 13.7891C39.7852 12.832 38.9258 12.207 38.0273 12.207C37.4609 12.207 36.9141 12.5391 36.5234 13.1641L25.4688 30.7227L19.9609 23.8281C19.4727 23.1641 18.9844 22.9688 18.3789 22.9688C17.4414 22.9688 16.7188 23.7305 16.7188 24.6875C16.7188 25.1562 16.9141 25.625 17.207 26.0352L23.7305 33.9258C24.2773 34.6289 24.8438 34.9219 25.5664 34.9219Z" fill="black" fill-opacity="0.85"/>
 </g>
</svg>
