<?xml version="1.0" encoding="UTF-8"?>
<!--Generator: Apple Native CoreSVG 326-->
<!DOCTYPE svg
PUBLIC "-//W3C//DTD SVG 1.1//EN"
       "http://www.w3.org/Graphics/SVG/1.1/DTD/svg11.dtd">
<svg version="1.1" xmlns="http://www.w3.org/2000/svg" xmlns:xlink="http://www.w3.org/1999/xlink" viewBox="0 0 51.25 50.918">
 <g>
  <rect height="50.918" opacity="0" width="51.25" x="0" y="0"/>
  <path d="M50.8789 25.4492C50.8789 39.4531 39.4531 50.8789 25.4297 50.8789C11.4258 50.8789 0 39.4531 0 25.4492C0 11.4258 11.4258 0 25.4297 0C39.4531 0 50.8789 11.4258 50.8789 25.4492ZM33.8477 15.4102L22.5586 33.3594L16.9336 26.3281C16.4062 25.6445 15.918 25.4297 15.3125 25.4297C14.3359 25.4297 13.5742 26.2305 13.5742 27.207C13.5742 27.6953 13.7695 28.1836 14.1016 28.6133L20.7617 36.6602C21.3281 37.3828 21.8945 37.6953 22.6367 37.6953C23.3789 37.6953 23.9844 37.3438 24.4336 36.6602L36.6797 17.4609C36.9336 17.0508 37.1875 16.543 37.1875 16.0742C37.1875 15.0781 36.3281 14.4141 35.3906 14.4141C34.8047 14.4141 34.2383 14.7656 33.8477 15.4102Z" fill="black" fill-opacity="0.85"/>
 </g>
</svg>
