<?xml version="1.0" encoding="UTF-8"?>
<!--Generator: Apple Native CoreSVG 326-->
<!DOCTYPE svg
PUBLIC "-//W3C//DTD SVG 1.1//EN"
       "http://www.w3.org/Graphics/SVG/1.1/DTD/svg11.dtd">
<svg version="1.1" xmlns="http://www.w3.org/2000/svg" xmlns:xlink="http://www.w3.org/1999/xlink" viewBox="0 0 51.25 50.918">
 <g>
  <rect height="50.918" opacity="0" width="51.25" x="0" y="0"/>
  <path d="M25.4297 50.8789C39.4727 50.8789 50.8789 39.4922 50.8789 25.4492C50.8789 11.4062 39.4727 0 25.4297 0C11.3867 0 0 11.4062 0 25.4492C0 39.4922 11.3867 50.8789 25.4297 50.8789ZM25.4297 47.2461C13.3789 47.2461 3.63281 37.5 3.63281 25.4492C3.63281 13.3984 13.3789 3.65234 25.4297 3.65234C37.4805 3.65234 47.2266 13.3984 47.2266 25.4492C47.2266 37.5 37.4805 47.2461 25.4297 47.2461Z" fill="black" fill-opacity="0.85"/>
  <path d="M30.3125 37.8516C30.9766 37.207 30.957 36.1523 30.3125 35.5273L19.707 25.4297L30.3125 15.3516C30.9766 14.7461 30.957 13.6719 30.293 13.0469C29.668 12.4414 28.6719 12.4609 28.0078 13.1055L17.2461 23.3398C16.0156 24.4922 16.0352 26.4258 17.2461 27.5586L28.0078 37.793C28.6133 38.3984 29.7461 38.418 30.3125 37.8516Z" fill="black" fill-opacity="0.85"/>
 </g>
</svg>
