<?xml version="1.0" encoding="UTF-8"?>
<!--Generator: Apple Native CoreSVG 326-->
<!DOCTYPE svg
PUBLIC "-//W3C//DTD SVG 1.1//EN"
       "http://www.w3.org/Graphics/SVG/1.1/DTD/svg11.dtd">
<svg version="1.1" xmlns="http://www.w3.org/2000/svg" xmlns:xlink="http://www.w3.org/1999/xlink" viewBox="0 0 58.8086 59.707">
 <g>
  <rect height="59.707" opacity="0" width="58.8086" x="0" y="0"/>
  <path d="M29.2188 59.6484C35.2148 59.6484 40.1758 54.6875 40.1758 48.6719C40.1758 42.6758 35.2148 37.7148 29.2188 37.7148C23.1445 37.7148 18.2227 42.6758 18.2227 48.6719C18.2227 54.6875 23.1445 59.6484 29.2188 59.6484Z" fill="black" fill-opacity="0.85"/>
  <path d="M47.4805 40.8008C53.4766 40.8008 58.4375 35.8203 58.4375 29.8242C58.4375 23.8281 53.4766 18.8672 47.4805 18.8672C41.4062 18.8672 36.4844 23.8281 36.4844 29.8242C36.4844 35.8203 41.4062 40.8008 47.4805 40.8008Z" fill="black" fill-opacity="0.85"/>
  <path d="M10.9961 40.8008C16.9922 40.8008 21.9336 35.8203 21.9336 29.8242C21.9336 23.8281 16.9922 18.8672 10.9961 18.8672C4.92188 18.8672 0 23.8281 0 29.8242C0 35.8203 4.92188 40.8008 10.9961 40.8008Z" fill="black" fill-opacity="0.85"/>
  <path d="M29.2188 21.9336C35.2148 21.9336 40.1758 16.9727 40.1758 10.957C40.1758 4.98047 35.2148 0 29.2188 0C23.1445 0 18.2227 4.98047 18.2227 10.957C18.2227 16.9727 23.1445 21.9336 29.2188 21.9336Z" fill="black" fill-opacity="0.85"/>
 </g>
</svg>
