<?xml version="1.0" encoding="UTF-8"?>
<!--Generator: Apple Native CoreSVG 326-->
<!DOCTYPE svg
PUBLIC "-//W3C//DTD SVG 1.1//EN"
       "http://www.w3.org/Graphics/SVG/1.1/DTD/svg11.dtd">
<svg version="1.1" xmlns="http://www.w3.org/2000/svg" xmlns:xlink="http://www.w3.org/1999/xlink" viewBox="0 0 51.25 50.918">
 <g>
  <rect height="50.918" opacity="0" width="51.25" x="0" y="0"/>
  <path d="M50.8789 25.4688C50.8789 39.4922 39.4531 50.918 25.4297 50.918C11.4258 50.918 0 39.4922 0 25.4688C0 11.4648 11.4258 0.0390625 25.4297 0.0390625C39.4531 0.0390625 50.8789 11.4648 50.8789 25.4688ZM19.3555 34.0625C18.9648 34.0625 18.7891 34.1797 18.6523 34.4727L16.9336 38.457C16.7773 38.7891 16.9336 39.0625 17.3047 39.0625L19.375 39.0625L17.6562 43.2422C17.5195 43.6328 17.9688 43.8477 18.2422 43.5352L23.4961 37.832C23.7695 37.4805 23.6328 37.1094 23.2227 37.1094L20.7422 37.1094L22.0703 34.6289C22.2266 34.3164 22.0898 34.0625 21.7773 34.0625ZM11.4453 23.3008C9.47266 23.9648 8.00781 25.6641 8.00781 27.9102C8.00781 30.6055 10.0586 32.6367 13.1445 32.6367L26.3086 32.6367C29.8047 32.6367 32.5 29.9609 32.5 26.543C32.5 23.1836 29.7852 20.625 26.1719 20.5469C24.7461 17.8906 22.2852 16.2109 19.1992 16.2109C15.2344 16.2109 11.8945 19.3164 11.4453 23.3008ZM36.2109 25.8984C35.8398 26.3086 35.8008 26.9922 36.2109 27.4023L38.2617 29.4141C38.6719 29.8438 39.3359 29.7852 39.7461 29.3945C40.1172 28.9844 40.1562 28.2812 39.7461 27.8906L37.7344 25.8984C37.3438 25.5078 36.6406 25.5078 36.2109 25.8984ZM25.7031 17.168C26.2695 17.6953 26.7188 18.2812 27.168 18.9453C30.8789 19.4141 33.7305 22.0703 34.1211 25.625C35.8594 24.4531 36.9141 22.5977 36.9141 20.4688C36.9141 17.0508 34.1992 14.375 30.8008 14.375C28.6523 14.375 26.7383 15.4883 25.7031 17.168ZM39.5117 19.4141C38.9648 19.4141 38.4766 19.8633 38.4766 20.4688C38.4766 21.0547 38.9648 21.5039 39.5117 21.5039L42.3438 21.5039C42.9492 21.5039 43.418 21.0547 43.418 20.4688C43.418 19.8633 42.9492 19.4141 42.3438 19.4141ZM21.8945 11.543C21.5039 11.9141 21.5039 12.6172 21.8945 13.0469L23.9062 15.0781C24.3164 15.4883 25.0195 15.4492 25.4297 15.0586C25.7812 14.668 25.8203 13.9648 25.4297 13.5742L23.3984 11.543C22.9492 11.1523 22.3047 11.1719 21.8945 11.543ZM38.2617 11.543L36.2109 13.5742C35.8008 13.9648 35.8398 14.6484 36.2109 15.0586C36.6211 15.4492 37.3438 15.4883 37.7344 15.0781L39.7461 13.0469C40.1367 12.6172 40.1172 11.9336 39.7461 11.543C39.3359 11.1719 38.6914 11.1328 38.2617 11.543ZM29.7266 8.90625L29.7266 11.7578C29.7266 12.3242 30.2344 12.8125 30.8008 12.8125C31.4258 12.8125 31.8945 12.3242 31.8945 11.7578L31.8945 8.90625C31.8945 8.32031 31.4258 7.85156 30.8008 7.85156C30.2344 7.85156 29.7266 8.32031 29.7266 8.90625Z" fill="black" fill-opacity="0.85"/>
 </g>
</svg>
