<?xml version="1.0" encoding="UTF-8"?>
<!--Generator: Apple Native CoreSVG 326-->
<!DOCTYPE svg
PUBLIC "-//W3C//DTD SVG 1.1//EN"
       "http://www.w3.org/Graphics/SVG/1.1/DTD/svg11.dtd">
<svg version="1.1" xmlns="http://www.w3.org/2000/svg" xmlns:xlink="http://www.w3.org/1999/xlink" viewBox="0 0 93.1641 63.4421">
 <g>
  <rect height="63.4421" opacity="0" width="93.1641" x="0" y="0"/>
  <path d="M20.5664 52.1605C24.8047 52.1605 28.1055 48.8597 28.1055 44.6215C28.1055 40.4222 24.8047 37.1019 20.5664 37.1019C16.3477 37.1019 13.0274 40.4222 13.0274 44.6215C13.0274 48.8597 16.3477 52.1605 20.5664 52.1605ZM72.8516 52.1605C77.0703 52.1605 80.3907 48.8597 80.3907 44.6215C80.3907 40.4222 77.0703 37.1019 72.8516 37.1019C68.6133 37.1019 65.3125 40.4222 65.3125 44.6215C65.3125 48.8597 68.6133 52.1605 72.8516 52.1605ZM69.5118 21.1449C68.2813 20.891 67.1289 20.8129 65.9571 20.891L36.4453 22.7855L47.6953 15.2074C49.6485 13.8793 47.7539 10.9887 45.625 12.4144L29.6875 23.059L12.2266 26.3597C4.25784 27.8637 0.234406 31.4769 0.234406 38.1371L0.234406 41.4379C0.234406 44.934 1.83597 46.6722 5.37113 47.0824L10.6641 47.7269C10.4493 46.8871 10.3125 45.559 10.3125 44.6215C10.3125 38.9183 14.8438 34.3871 20.5664 34.3871C26.2891 34.3871 30.8203 38.9183 30.8203 44.6215C30.8203 45.3441 30.7618 46.1254 30.6446 46.6527L62.8125 46.6527C62.6758 46.0863 62.5977 45.3637 62.5977 44.6215C62.5977 38.9183 67.1289 34.3871 72.8516 34.3871C78.5743 34.3871 83.1055 39.309 83.1055 45.0121C83.1055 45.3637 83.1055 45.5394 83.0664 45.8519L85.5274 45.598C90.293 45.0707 92.5586 42.4926 92.5586 37.6097L92.5586 33.2347C92.5586 27.5316 90.3321 25.0902 84.6485 23.9965Z" fill="black" fill-opacity="0.85"/>
  <path d="M66.2305 12.2972L66.0938 8.58631C71.1524 8.23474 77.2461 8.74256 82.5196 11.0472L81.0938 14.4457C80.5274 15.9105 81.4063 16.7113 82.9297 16.3402L91.875 14.2504C93.1446 13.9379 93.5157 12.9027 92.8125 11.8676L87.7344 4.25037C86.9336 3.05896 85.7422 2.98084 85.1563 4.46521L83.8282 7.64881C77.9493 5.14881 71.2696 4.62146 65.9766 4.95349L65.8399 1.53553C65.7618-0.0660374 64.6289-0.398069 63.4766 0.461306L56.0743 5.87146C55.0196 6.63318 55.0782 7.7074 56.1719 8.41053L63.8672 13.5082C65.1758 14.3676 66.2696 13.8793 66.2305 12.2972Z" fill="black" fill-opacity="0.85"/>
 </g>
</svg>
