<?xml version="1.0" encoding="UTF-8"?>
<!--Generator: Apple Native CoreSVG 326-->
<!DOCTYPE svg
PUBLIC "-//W3C//DTD SVG 1.1//EN"
       "http://www.w3.org/Graphics/SVG/1.1/DTD/svg11.dtd">
<svg version="1.1" xmlns="http://www.w3.org/2000/svg" xmlns:xlink="http://www.w3.org/1999/xlink" viewBox="0 0 84.1674 62.8618">
 <g>
  <rect height="62.8618" opacity="0" width="84.1674" x="0" y="0"/>
  <path d="M15.6482 17.0266L19.8474 20.1516L21.5075 17.8664L17.5817 14.9563C16.488 14.1555 16.2536 13.2766 16.8591 12.2219L18.1091 10.0735C20.0036 6.79221 23.1677 6.20627 27.8357 7.82737L40.7653 12.3391C41.781 12.6711 42.4841 12.886 43.2849 12.8274L58.2458 11.7922C60.1599 11.675 60.0036 8.86252 57.9333 8.99924L42.445 10.0149L28.8708 5.26877C22.6599 3.1008 18.3825 3.99924 15.6872 8.66721L14.3396 10.9914C12.9333 13.4328 13.3239 15.3078 15.6482 17.0266ZM22.738 25.8547C26.1169 27.8274 30.3161 26.6946 32.2692 23.3156C34.2419 19.9172 33.1091 15.718 29.7107 13.7649C26.3122 11.8117 22.1325 12.925 20.1794 16.3235C18.2067 19.7219 19.3396 23.9016 22.738 25.8547ZM24.0466 23.5696C21.9567 22.3586 21.2536 19.7414 22.4646 17.6516C23.6755 15.5422 26.2927 14.8391 28.4021 16.05C30.4919 17.261 31.195 19.8781 29.9841 21.9875C28.7732 24.0774 26.156 24.7805 24.0466 23.5696ZM29.4177 24.5852L59.8864 42.1633L61.2732 39.7414L30.8239 22.1633ZM62.0153 48.55C65.4138 50.5031 69.5935 49.3899 71.5661 45.9914C73.5192 42.593 72.406 38.4133 69.0075 36.4406C65.6091 34.4875 61.4294 35.6008 59.4567 38.9992C57.5036 42.3977 58.6169 46.5774 62.0153 48.55ZM63.3435 46.2649C61.2341 45.0539 60.531 42.4367 61.7419 40.3274C62.9724 38.218 65.5896 37.5149 67.6794 38.7453C69.7888 39.9563 70.4919 42.5735 69.281 44.6633C68.0505 46.7727 65.4333 47.4758 63.3435 46.2649ZM69.3005 47.0656L72.4841 48.4524C76.0388 49.9953 78.6755 49.1164 80.6482 45.6985L82.4255 42.6125C84.7302 38.6281 84.1442 35.9719 80.6091 32.9446L71.156 24.8C70.3942 24.136 69.613 23.6281 68.7536 23.1985L42.6794 10.1516L40.3357 12.1047L67.9919 25.9524L78.7341 35.1906C81.0583 37.1633 81.3708 38.8235 79.9841 41.2063L78.2067 44.2922C77.0739 46.2649 75.5896 46.7727 73.5583 45.8938L70.7067 44.6438Z" fill="black" fill-opacity="0.85"/>
  <path d="M8.10909 10.9719L13.1091 2.30002C13.8903 0.971898 12.8357-0.219508 11.4489 0.0343983L3.6169 1.2844C2.58175 1.46018 2.113 2.26096 2.48409 3.27659L5.31612 10.6594C5.8044 11.9875 7.32784 12.3 8.10909 10.9719ZM0.237997 21.2453C-0.250284 22.1047 0.0426845 23.1594 0.843466 23.6281L68.2849 62.593C69.0661 63.0617 70.1208 62.7883 70.5896 61.9875C71.0778 61.1086 70.7849 60.0539 69.9841 59.6047L2.56222 20.6203C1.78097 20.1711 0.706747 20.4446 0.237997 21.2453Z" fill="black" fill-opacity="0.85"/>
 </g>
</svg>
