<?xml version="1.0" encoding="UTF-8"?>
<!--Generator: Apple Native CoreSVG 326-->
<!DOCTYPE svg
PUBLIC "-//W3C//DTD SVG 1.1//EN"
       "http://www.w3.org/Graphics/SVG/1.1/DTD/svg11.dtd">
<svg version="1.1" xmlns="http://www.w3.org/2000/svg" xmlns:xlink="http://www.w3.org/1999/xlink" viewBox="0 0 46.2891 45.918">
 <g>
  <rect height="45.918" opacity="0" width="46.2891" x="0" y="0"/>
  <path d="M45.918 7.53906L45.918 38.3984C45.918 43.3594 43.3594 45.918 38.3008 45.918L7.59766 45.918C2.55859 45.918 0 43.3984 0 38.3984L0 7.53906C0 2.53906 2.55859 0 7.59766 0L38.3008 0C43.3594 0 45.918 2.55859 45.918 7.53906ZM13.2422 22.9688C13.2422 29.2969 16.6016 34.3945 23.1836 34.3945C27.1094 34.3945 30.6055 32.4414 31.6797 29.043C31.8359 28.6719 31.8555 28.3594 31.8555 28.0078C31.8555 27.2852 31.3867 26.8555 30.6445 26.8555C29.9219 26.8555 29.5312 27.2461 29.3359 27.9102C28.5547 30.5469 26.1719 31.9727 23.457 32.0508L23.457 28.1445C23.457 25.6055 25.1367 23.8477 27.6367 23.8477C28.1641 23.8477 28.5156 23.9648 28.75 23.9648C29.2383 23.9648 29.5508 23.7305 29.5508 23.1836C29.5508 22.8906 29.375 22.5977 29.1016 22.4219C28.75 22.207 28.1055 22.1094 27.6172 22.1094C25.5469 22.1094 23.9844 23.4375 23.4766 25.0586L23.418 25.0586L23.418 22.9883C23.418 22.4805 23.125 22.1484 22.6562 22.1484C22.168 22.1484 21.8555 22.4805 21.8555 22.9883L21.8555 31.9141C17.8906 31.2109 16.0742 27.3242 16.0742 22.9688C16.0742 18.1445 18.3789 14.0039 23.2031 14.0039C26.0352 14.0039 28.457 15.6836 29.1992 18.2031C29.4141 18.8672 29.7656 19.2578 30.4492 19.2578C31.1719 19.2578 31.6992 18.7891 31.6992 18.0664C31.6992 17.8125 31.6406 17.4219 31.5039 17.0703C30.3711 13.7109 27.0117 11.6211 23.1836 11.6211C16.8555 11.6211 13.2422 16.4258 13.2422 22.9688Z" fill="black" fill-opacity="0.85"/>
 </g>
</svg>
