<?xml version="1.0" encoding="UTF-8"?>
<!--Generator: Apple Native CoreSVG 326-->
<!DOCTYPE svg
PUBLIC "-//W3C//DTD SVG 1.1//EN"
       "http://www.w3.org/Graphics/SVG/1.1/DTD/svg11.dtd">
<svg version="1.1" xmlns="http://www.w3.org/2000/svg" xmlns:xlink="http://www.w3.org/1999/xlink" viewBox="0 0 42.9102 52.168">
 <g>
  <rect height="52.168" opacity="0" width="42.9102" x="0" y="0"/>
  <path d="M21.2695 52.1289C34.0234 52.1289 42.5391 47.3047 42.5391 40.8789L42.5391 10.1758L39.0625 10.1758L39.0625 40.8789C39.0625 45.3516 31.9531 48.8672 21.2695 48.8672C10.5859 48.8672 3.45703 45.3516 3.45703 40.8789L3.45703 10.1758L0 10.1758L0 40.8789C0 47.3047 8.51562 52.1289 21.2695 52.1289ZM21.2695 20.3516C34.0234 20.3516 42.5391 16.1328 42.5391 10.1758C42.5391 4.21875 34.0234 0 21.2695 0C8.51562 0 0 4.21875 0 10.1758C0 16.1328 8.51562 20.3516 21.2695 20.3516ZM21.2695 17.0898C10.5859 17.0898 3.45703 14.1797 3.45703 10.1758C3.45703 6.05469 10.5859 3.06641 21.2695 3.06641C31.9531 3.06641 39.0625 6.05469 39.0625 10.1758C39.0625 14.1797 31.9531 17.0898 21.2695 17.0898Z" fill="black" fill-opacity="0.85"/>
 </g>
</svg>
