<?xml version="1.0" encoding="UTF-8"?>
<!--Generator: Apple Native CoreSVG 326-->
<!DOCTYPE svg
PUBLIC "-//W3C//DTD SVG 1.1//EN"
       "http://www.w3.org/Graphics/SVG/1.1/DTD/svg11.dtd">
<svg version="1.1" xmlns="http://www.w3.org/2000/svg" xmlns:xlink="http://www.w3.org/1999/xlink" viewBox="0 0 54.7461 45.957">
 <g>
  <rect height="45.957" opacity="0" width="54.7461" x="0" y="0"/>
  <path d="M37.4609 2.83203L52.4805 18.3398C54.0625 19.9609 54.7461 21.4062 54.7461 22.9492C54.7461 24.4922 54.082 25.957 52.4805 27.5781L37.4414 42.9102C35.4492 44.9805 33.0664 45.9375 30.1758 45.9375L8.51562 45.957C3.47656 45.957 0.898438 43.4375 0.898438 38.4375L0.898438 7.57812C0.898438 2.57812 3.47656 0.0585938 8.51562 0.0585938L30.1953 0.0585938C33.0859 0.0585938 35.4688 0.742188 37.4609 2.83203ZM30.5469 13.2812L23.3008 20.5078L16.0742 13.3008C15.7031 12.9688 15.3125 12.7734 14.8047 12.7734C13.8086 12.7734 13.0273 13.5352 13.0273 14.5508C13.0273 15.0195 13.2031 15.4688 13.5547 15.8203L20.7617 23.0273L13.5547 30.2344C13.2031 30.5859 13.0273 31.0156 13.0273 31.5039C13.0273 32.5 13.8086 33.3008 14.8047 33.3008C15.3125 33.3008 15.7617 33.125 16.1328 32.7539L23.3008 25.5469L30.4688 32.7539C30.8203 33.125 31.2695 33.3008 31.7773 33.3008C32.793 33.3008 33.5742 32.5 33.5742 31.5039C33.5742 30.9961 33.418 30.5664 33.0469 30.2148L25.8398 23.0273L33.0664 15.8008C33.457 15.4102 33.5938 15 33.5938 14.5117C33.5938 13.5156 32.8125 12.7344 31.8164 12.7344C31.3281 12.7344 30.9375 12.9102 30.5469 13.2812Z" fill="black" fill-opacity="0.85"/>
 </g>
</svg>
