<?xml version="1.0" encoding="UTF-8"?>
<!--Generator: Apple Native CoreSVG 326-->
<!DOCTYPE svg
PUBLIC "-//W3C//DTD SVG 1.1//EN"
       "http://www.w3.org/Graphics/SVG/1.1/DTD/svg11.dtd">
<svg version="1.1" xmlns="http://www.w3.org/2000/svg" xmlns:xlink="http://www.w3.org/1999/xlink" viewBox="0 0 46.2891 45.918">
 <g>
  <rect height="45.918" opacity="0" width="46.2891" x="0" y="0"/>
  <path d="M45.918 7.53906L45.918 38.3984C45.918 43.3594 43.3594 45.918 38.3008 45.918L7.59766 45.918C2.55859 45.918 0 43.3984 0 38.3984L0 7.53906C0 2.53906 2.55859 0 7.59766 0L38.3008 0C43.3594 0 45.918 2.55859 45.918 7.53906ZM7.05078 34.8047C7.05078 37.0703 8.88672 38.9258 11.1523 38.9258C13.3984 38.9258 15.2539 37.0703 15.2539 34.8047C15.2539 32.5195 13.3984 30.7031 11.1523 30.7031C8.88672 30.7031 7.05078 32.5195 7.05078 34.8047ZM30.6836 34.8047C30.6836 37.0703 32.5195 38.9258 34.7852 38.9258C37.0312 38.9258 38.8867 37.0703 38.8867 34.8047C38.8867 32.5195 37.0312 30.7031 34.7852 30.7031C32.5195 30.7031 30.6836 32.5195 30.6836 34.8047ZM18.8477 22.9492C18.8477 25.2539 20.6836 27.1094 22.9688 27.1094C25.2148 27.1094 27.0703 25.2539 27.0703 22.9492C27.0703 20.7031 25.2148 18.8672 22.9688 18.8672C20.6836 18.8672 18.8477 20.7031 18.8477 22.9492ZM7.03125 11.1133C7.03125 13.418 8.88672 15.2148 11.1523 15.2539C13.3984 15.293 15.2734 13.418 15.2734 11.1133C15.2734 8.82812 13.3984 7.01172 11.1523 7.01172C8.88672 7.01172 7.03125 8.82812 7.03125 11.1133ZM30.6445 11.1133C30.6445 13.418 32.5195 15.2148 34.7852 15.2539C37.0312 15.293 38.8867 13.418 38.8867 11.1133C38.8867 8.82812 37.0312 7.01172 34.7852 7.01172C32.5195 7.01172 30.6445 8.82812 30.6445 11.1133Z" fill="black" fill-opacity="0.85"/>
 </g>
</svg>
