<?xml version="1.0" encoding="UTF-8"?>
<!--Generator: Apple Native CoreSVG 326-->
<!DOCTYPE svg
PUBLIC "-//W3C//DTD SVG 1.1//EN"
       "http://www.w3.org/Graphics/SVG/1.1/DTD/svg11.dtd">
<svg version="1.1" xmlns="http://www.w3.org/2000/svg" xmlns:xlink="http://www.w3.org/1999/xlink" viewBox="0 0 59.8828 52.2461">
 <g>
  <rect height="52.2461" opacity="0" width="59.8828" x="0" y="0"/>
  <path d="M6.30859 44.1406L1.50391 44.1406C0.664062 44.1406 0 43.3984 0 42.5391C0 41.6992 0.664062 40.957 1.50391 40.957L6.30859 40.957ZM59.5117 42.5391C59.5117 43.3984 58.8477 44.1406 58.0078 44.1406L53.2031 44.1406L53.2031 40.957L58.0078 40.957C58.8477 40.957 59.5117 41.6992 59.5117 42.5391ZM15.0586 11.25L1.50391 11.25C0.664062 11.25 0 10.5078 0 9.66797C0 8.82812 0.664062 8.06641 1.50391 8.06641L15.0586 8.06641ZM58.7695 9.66797C58.7695 10.5078 58.1055 11.25 57.2461 11.25L44.4727 11.25L44.4727 8.06641L57.2461 8.06641C58.1055 8.06641 58.7695 8.82812 58.7695 9.66797Z" fill="black" fill-opacity="0.85"/>
  <path d="M20.293 19.3359L39.2383 19.3359C42.5977 19.3359 44.4727 17.4805 44.4727 14.1797L44.4727 5.15625C44.4727 1.85547 42.5977 0 39.2383 0L20.293 0C16.9336 0 15.0586 1.85547 15.0586 5.15625L15.0586 14.1797C15.0586 17.4805 16.9336 19.3359 20.293 19.3359ZM20.3516 16.0742C19.0625 16.0742 18.3203 15.3125 18.3203 14.0039L18.3203 5.33203C18.3203 4.02344 19.0625 3.26172 20.3516 3.26172L39.1602 3.26172C40.4492 3.26172 41.2109 4.02344 41.2109 5.33203L41.2109 14.0039C41.2109 15.3125 40.4492 16.0742 39.1602 16.0742ZM11.5625 52.2266L47.9688 52.2266C51.3281 52.2266 53.2031 50.3711 53.2031 47.0703L53.2031 38.0273C53.2031 34.7266 51.3281 32.8711 47.9688 32.8711L11.5625 32.8711C8.18359 32.8711 6.30859 34.7266 6.30859 38.0273L6.30859 47.0703C6.30859 50.3711 8.18359 52.2266 11.5625 52.2266ZM11.6211 48.9648C10.332 48.9648 9.58984 48.2031 9.58984 46.875L9.58984 38.2227C9.58984 36.8945 10.332 36.1328 11.6211 36.1328L47.8906 36.1328C49.1797 36.1328 49.9414 36.8945 49.9414 38.2227L49.9414 46.875C49.9414 48.2031 49.1797 48.9648 47.8906 48.9648Z" fill="black" fill-opacity="0.85"/>
 </g>
</svg>
