<?xml version="1.0" encoding="UTF-8"?>
<!--Generator: Apple Native CoreSVG 326-->
<!DOCTYPE svg
PUBLIC "-//W3C//DTD SVG 1.1//EN"
       "http://www.w3.org/Graphics/SVG/1.1/DTD/svg11.dtd">
<svg version="1.1" xmlns="http://www.w3.org/2000/svg" xmlns:xlink="http://www.w3.org/1999/xlink" viewBox="0 0 42.3047 53.8477">
 <g>
  <rect height="53.8477" opacity="0" width="42.3047" x="0" y="0"/>
  <path d="M7.51953 53.8477L34.4141 53.8477C39.4141 53.8477 41.9336 51.2695 41.9336 46.25L41.9336 22.8125L23.8281 22.8125C20.7812 22.8125 19.3359 21.3477 19.3359 18.3008L19.3359 0.0195312L7.51953 0.0195312C2.55859 0.0195312 0 2.57812 0 7.61719L0 46.25C0 51.2891 2.51953 53.8477 7.51953 53.8477ZM23.9453 19.6875L41.6211 19.6875C41.4648 18.7695 40.8008 17.8906 39.7656 16.8555L25.293 2.1875C24.2969 1.15234 23.3594 0.46875 22.4609 0.3125L22.4609 18.2031C22.4609 19.1992 22.9492 19.6875 23.9453 19.6875Z" fill="black" fill-opacity="0.85"/>
 </g>
</svg>
