<?xml version="1.0" encoding="UTF-8"?>
<!--Generator: Apple Native CoreSVG 326-->
<!DOCTYPE svg
PUBLIC "-//W3C//DTD SVG 1.1//EN"
       "http://www.w3.org/Graphics/SVG/1.1/DTD/svg11.dtd">
<svg version="1.1" xmlns="http://www.w3.org/2000/svg" xmlns:xlink="http://www.w3.org/1999/xlink" viewBox="0 0 60.961 50.918">
 <g>
  <rect height="50.918" opacity="0" width="60.961" x="0" y="0"/>
  <path d="M30.295 50.8789C44.3379 50.8789 55.7246 39.4922 55.7246 25.4492C55.7246 11.4062 44.3379 0 30.295 0C16.252 0 4.86526 11.4062 4.86526 25.4492L8.49808 25.4492C8.49808 13.3984 18.2442 3.65234 30.295 3.65234C42.3457 3.65234 52.0918 13.3984 52.0918 25.4492C52.0918 37.5 42.3457 47.2461 30.295 47.2461C22.834 47.2461 16.1739 43.457 12.3653 37.7539C11.7207 36.875 10.7051 36.6016 9.80667 37.1484C8.94729 37.6562 8.69339 38.8477 9.39651 39.8047C13.9473 46.5039 21.6426 50.8789 30.295 50.8789ZM1.60354 20.7227C0.00198146 20.7227-0.447237 21.8164 0.470731 23.0859L6.01761 30.9766C6.75979 32.0508 7.83401 32.0312 8.55667 30.9766L14.1035 23.0664C14.9825 21.8164 14.5528 20.7227 12.9707 20.7227Z" fill="black" fill-opacity="0.85"/>
  <path d="M28.6153 33.6914C30.8028 33.6914 32.834 32.793 33.8496 30.6836L33.9278 30.6836L33.9278 32.7148C33.9278 33.3984 34.4551 33.9258 35.1582 33.9258C35.8418 33.9258 36.3496 33.3984 36.3496 32.7148L36.3496 16.6992L38.2832 16.6992C38.6934 16.6992 39.045 16.3477 39.045 15.9375C39.045 15.5273 38.6934 15.1953 38.2832 15.1953L36.3496 15.1953L36.3496 14.0234C36.3496 13.2617 35.8614 12.7539 35.0996 12.7539C34.3379 12.7539 33.8692 13.2617 33.8692 14.0234L33.8692 15.1953L29.0059 15.1953C28.5762 15.1953 28.2442 15.5273 28.2442 15.9375C28.2442 16.3672 28.5762 16.6992 29.0059 16.6992L33.8692 16.6992L33.8692 22.0508L33.7325 22.0508C32.8535 20.0586 30.8418 19.082 28.6153 19.082C24.9434 19.082 21.9746 21.9531 21.9746 26.3672C21.9746 30.5469 24.709 33.6914 28.6153 33.6914ZM29.2403 31.5234C26.291 31.5234 24.5332 29.2578 24.5332 26.3672C24.5332 23.3594 26.4668 21.2305 29.2403 21.2305C32.1114 21.2305 33.8496 23.5938 33.8496 26.3672C33.8496 29.3164 31.9551 31.5234 29.2403 31.5234ZM23.2051 36.3672C23.2051 36.8164 23.5762 37.1484 24.0059 37.1484L36.291 37.1484C36.7207 37.1484 37.0918 36.8164 37.0918 36.3672C37.0918 35.9375 36.7207 35.5859 36.291 35.5859L24.0059 35.5859C23.5762 35.5859 23.2051 35.9375 23.2051 36.3672Z" fill="black" fill-opacity="0.85"/>
 </g>
</svg>
