<?xml version="1.0" encoding="UTF-8"?>
<!--Generator: Apple Native CoreSVG 326-->
<!DOCTYPE svg
PUBLIC "-//W3C//DTD SVG 1.1//EN"
       "http://www.w3.org/Graphics/SVG/1.1/DTD/svg11.dtd">
<svg version="1.1" xmlns="http://www.w3.org/2000/svg" xmlns:xlink="http://www.w3.org/1999/xlink" viewBox="0 0 60.6836 52.9102">
 <g>
  <rect height="52.9102" opacity="0" width="60.6836" x="0" y="0"/>
  <path d="M1.73828 52.8711C2.69531 52.8711 3.47656 52.0898 3.47656 51.1328L3.47656 4.80469C3.47656 4.00391 3.98438 3.47656 4.74609 3.47656L55.5664 3.47656C56.3086 3.47656 56.8359 4.00391 56.8359 4.80469L56.8359 51.1328C56.8359 52.0898 57.5977 52.8711 58.5742 52.8711C59.5312 52.8711 60.3125 52.0898 60.3125 51.1328L60.3125 4.57031C60.3125 1.83594 58.4375 0 55.625 0L4.6875 0C1.875 0 0 1.83594 0 4.57031L0 51.1328C0 52.0898 0.761719 52.8711 1.73828 52.8711Z" fill="black" fill-opacity="0.85"/>
  <path d="M6.93359 52.0312L53.3789 52.0312C53.7891 52.0312 54.1016 51.6992 54.1016 51.2891L54.1016 6.93359C54.1016 6.52344 53.7891 6.19141 53.3789 6.19141L6.93359 6.19141C6.52344 6.19141 6.19141 6.52344 6.19141 6.93359L6.19141 51.2891C6.19141 51.6992 6.52344 52.0312 6.93359 52.0312ZM25.1172 47.7148C24.4336 47.7148 23.9648 47.2461 23.9648 46.5625C23.9648 45.8789 24.4336 45.3906 25.1172 45.3906L35.1758 45.3906C35.8594 45.3906 36.3477 45.8789 36.3477 46.5625C36.3477 47.2461 35.8594 47.7148 35.1758 47.7148ZM10.3516 20.0391C9.88281 20.0391 9.53125 19.6875 9.53125 19.2383L9.53125 10.1367C9.53125 9.6875 9.88281 9.33594 10.3516 9.33594L20.4883 9.33594C20.9375 9.33594 21.2891 9.6875 21.2891 10.1367L21.2891 19.2383C21.2891 19.6875 20.9375 20.0391 20.4883 20.0391ZM25.1172 20.0391C24.668 20.0391 24.3164 19.6875 24.3164 19.2383L24.3164 10.1367C24.3164 9.6875 24.668 9.33594 25.1172 9.33594L35.2539 9.33594C35.7031 9.33594 36.0547 9.6875 36.0547 10.1367L36.0547 19.2383C36.0547 19.6875 35.7031 20.0391 35.2539 20.0391ZM39.8828 20.0391C39.4336 20.0391 39.082 19.6875 39.082 19.2383L39.082 10.1367C39.082 9.6875 39.4336 9.33594 39.8828 9.33594L49.9805 9.33594C50.4297 9.33594 50.7812 9.6875 50.7812 10.1367L50.7812 19.2383C50.7812 19.6875 50.4297 20.0391 50.1367 20.0391Z" fill="black" fill-opacity="0.85"/>
 </g>
</svg>
