<?xml version="1.0" encoding="UTF-8"?>
<!--Generator: Apple Native CoreSVG 326-->
<!DOCTYPE svg
PUBLIC "-//W3C//DTD SVG 1.1//EN"
       "http://www.w3.org/Graphics/SVG/1.1/DTD/svg11.dtd">
<svg version="1.1" xmlns="http://www.w3.org/2000/svg" xmlns:xlink="http://www.w3.org/1999/xlink" viewBox="0 0 60.9375 60.6055">
 <g>
  <rect height="60.6055" opacity="0" width="60.9375" x="0" y="0"/>
  <path d="M30.293 53.9648C43.3594 53.9648 53.9844 43.3398 53.9844 30.2734C53.9844 17.2266 43.3594 6.60156 30.293 6.60156C17.2461 6.60156 6.62109 17.2266 6.62109 30.2734C6.62109 43.3398 17.2461 53.9648 30.293 53.9648ZM30.293 50.4883C19.1406 50.4883 10.0977 41.4453 10.0977 30.2734C10.0977 19.1211 19.1406 10.0781 30.293 10.0781C41.4648 10.0781 50.5078 19.1211 50.5078 30.2734C50.5078 41.4453 41.4648 50.4883 30.293 50.4883ZM30.293 20.0781C31.1719 20.0781 31.8555 19.375 31.8555 18.5156L31.8555 1.60156C31.8555 0.722656 31.1719 0.0390625 30.293 0.0390625C29.4141 0.0390625 28.75 0.722656 28.75 1.60156L28.75 18.5156C28.75 19.375 29.4141 20.0781 30.293 20.0781ZM1.5625 31.875L18.4766 31.875C19.3555 31.875 20.0586 31.1914 20.0586 30.332C20.0586 29.4336 19.3555 28.7695 18.4766 28.7695L1.5625 28.7695C0.703125 28.7695 0 29.4336 0 30.332C0 31.1914 0.703125 31.875 1.5625 31.875ZM30.293 60.6055C31.1719 60.6055 31.8555 59.9023 31.8555 59.043L31.8555 42.1289C31.8555 41.25 31.1719 40.5664 30.293 40.5664C29.4141 40.5664 28.75 41.25 28.75 42.1289L28.75 59.043C28.75 59.9023 29.4141 60.6055 30.293 60.6055ZM42.0898 31.875L59.0039 31.875C59.8828 31.875 60.5664 31.1914 60.5664 30.332C60.5664 29.4336 59.8828 28.7695 59.0039 28.7695L42.0898 28.7695C41.2305 28.7695 40.5273 29.4336 40.5273 30.332C40.5273 31.1914 41.2305 31.875 42.0898 31.875Z" fill="black" fill-opacity="0.85"/>
  <path d="M30.293 34.5117C32.6172 34.5117 34.4727 32.6367 34.4727 30.3125C34.4727 28.0078 32.6172 26.1328 30.293 26.1328C27.9688 26.1328 26.1133 28.0078 26.1133 30.3125C26.1133 32.6367 27.9688 34.5117 30.293 34.5117Z" fill="black" fill-opacity="0.85"/>
 </g>
</svg>
