<?xml version="1.0" encoding="UTF-8"?>
<!--Generator: Apple Native CoreSVG 326-->
<!DOCTYPE svg
PUBLIC "-//W3C//DTD SVG 1.1//EN"
       "http://www.w3.org/Graphics/SVG/1.1/DTD/svg11.dtd">
<svg version="1.1" xmlns="http://www.w3.org/2000/svg" xmlns:xlink="http://www.w3.org/1999/xlink" viewBox="0 0 46.2891 45.918">
 <g>
  <rect height="45.918" opacity="0" width="46.2891" x="0" y="0"/>
  <path d="M45.918 7.53906L45.918 38.3984C45.918 43.3594 43.3594 45.918 38.3008 45.918L7.59766 45.918C2.55859 45.918 0 43.3984 0 38.3984L0 7.53906C0 2.53906 2.55859 0 7.59766 0L38.3008 0C43.3594 0 45.918 2.55859 45.918 7.53906ZM16.9531 11.0938C15.8008 11.0938 15.2148 11.8945 15.2148 13.0859L15.2148 32.4414C15.2148 33.6523 15.8008 34.4531 16.9531 34.4531L29.2383 34.4531C30.1367 34.4531 30.7422 33.8672 30.7422 32.9688C30.7422 32.0703 30.1367 31.5039 29.2383 31.5039L18.7695 31.5039L18.7695 23.9844L28.5938 23.9844C29.4727 23.9844 30.0781 23.457 30.0781 22.5781C30.0781 21.6602 29.4727 21.1523 28.5938 21.1523L18.7695 21.1523L18.7695 14.043L29.2383 14.043C30.1367 14.043 30.7422 13.4375 30.7422 12.5586C30.7422 11.6406 30.1367 11.0938 29.2383 11.0938Z" fill="black" fill-opacity="0.85"/>
 </g>
</svg>
