<?xml version="1.0" encoding="UTF-8"?>
<!--Generator: Apple Native CoreSVG 326-->
<!DOCTYPE svg
PUBLIC "-//W3C//DTD SVG 1.1//EN"
       "http://www.w3.org/Graphics/SVG/1.1/DTD/svg11.dtd">
<svg version="1.1" xmlns="http://www.w3.org/2000/svg" xmlns:xlink="http://www.w3.org/1999/xlink" viewBox="0 0 46.2891 45.918">
 <g>
  <rect height="45.918" opacity="0" width="46.2891" x="0" y="0"/>
  <path d="M7.59766 45.918L38.3008 45.918C43.3594 45.918 45.918 43.3594 45.918 38.3984L45.918 7.53906C45.918 2.55859 43.3594 0 38.3008 0L7.59766 0C2.55859 0 0 2.53906 0 7.53906L0 38.3984C0 43.3984 2.55859 45.918 7.59766 45.918ZM7.67578 42.4609C4.94141 42.4609 3.45703 41.0156 3.45703 38.2031L3.45703 7.71484C3.45703 4.92188 4.94141 3.45703 7.67578 3.45703L38.2422 3.45703C40.918 3.45703 42.4609 4.92188 42.4609 7.71484L42.4609 38.2031C42.4609 41.0156 40.918 42.4609 38.2422 42.4609Z" fill="black" fill-opacity="0.85"/>
  <path d="M13.2031 29.2383L32.6953 29.2383C33.7891 29.2383 34.5703 28.6719 34.5703 27.5977C34.5703 26.5039 33.8477 25.9375 32.6953 25.9375L13.2031 25.9375C12.0703 25.9375 11.3477 26.5039 11.3477 27.5977C11.3477 28.6719 12.1094 29.2383 13.2031 29.2383ZM13.2031 20.0195L32.6953 20.0195C33.7891 20.0195 34.5703 19.4727 34.5703 18.3984C34.5703 17.2852 33.8477 16.7188 32.6953 16.7188L13.2031 16.7188C12.0703 16.7188 11.3477 17.2852 11.3477 18.3984C11.3477 19.4727 12.1094 20.0195 13.2031 20.0195Z" fill="black" fill-opacity="0.85"/>
 </g>
</svg>
