<?xml version="1.0" encoding="UTF-8"?>
<!--Generator: Apple Native CoreSVG 326-->
<!DOCTYPE svg
PUBLIC "-//W3C//DTD SVG 1.1//EN"
       "http://www.w3.org/Graphics/SVG/1.1/DTD/svg11.dtd">
<svg version="1.1" xmlns="http://www.w3.org/2000/svg" xmlns:xlink="http://www.w3.org/1999/xlink" viewBox="0 0 61.3281 45.9961">
 <g>
  <rect height="45.9961" opacity="0" width="61.3281" x="0" y="0"/>
  <path d="M2.07031 45.957L22.8906 45.957C24.082 45.957 24.8438 45.1758 24.8438 44.0625C24.8438 42.9492 24.0625 42.168 22.8906 42.168L4.21875 42.168L4.21875 24.2969L21.9531 24.2969C23.1641 24.2969 23.8672 23.457 23.8672 22.4023C23.8672 21.4258 23.2227 20.5664 21.9531 20.5664L4.21875 20.5664L4.21875 3.82812L22.8906 3.82812C24.0234 3.82812 24.8438 3.02734 24.8438 1.89453C24.8438 0.78125 24.082 0 22.8906 0L2.07031 0C0.839844 0 0 0.839844 0 2.1875L0 43.7695C0 45.1758 0.878906 45.957 2.07031 45.957ZM33.5742 45.957L59.043 45.957C60.2344 45.957 60.957 45.1172 60.957 44.0625C60.957 42.9297 60.1953 42.168 59.043 42.168L36.4844 42.168L36.4844 41.9531L59.668 4.29688C60.0781 3.59375 60.3711 3.02734 60.3711 2.20703C60.3711 0.957031 59.4922 0 58.0664 0L33.6719 0C32.5195 0 31.6992 0.722656 31.6992 1.89453C31.6992 3.02734 32.4805 3.82812 33.6719 3.82812L55.3711 3.82812L55.3711 4.02344L32.0312 41.7188C31.6211 42.4023 31.3477 42.9688 31.3477 43.7695C31.3477 45.2344 32.4023 45.957 33.5742 45.957Z" fill="black" fill-opacity="0.85"/>
 </g>
</svg>
