<?xml version="1.0" encoding="UTF-8"?>
<!--Generator: Apple Native CoreSVG 326-->
<!DOCTYPE svg
PUBLIC "-//W3C//DTD SVG 1.1//EN"
       "http://www.w3.org/Graphics/SVG/1.1/DTD/svg11.dtd">
<svg version="1.1" xmlns="http://www.w3.org/2000/svg" xmlns:xlink="http://www.w3.org/1999/xlink" viewBox="0 0 65.5078 55.6445">
 <g>
  <rect height="55.6445" opacity="0" width="65.5078" x="0" y="0"/>
  <path d="M44.1602 53.9453L44.1602 6.36719C44.1602 2.26562 41.9141 0 37.8125 0L17.9492 0C13.8086 0 11.6406 2.24609 11.6406 6.36719L11.6406 53.9453ZM18.457 22.7148C16.6797 22.7148 15.5859 21.6797 15.5859 20L15.5859 6.67969C15.5859 5 16.6797 3.94531 18.457 3.94531L37.3047 3.94531C39.1016 3.94531 40.2148 5 40.2148 6.67969L40.2148 20C40.2148 21.6797 39.1016 22.7148 37.3047 22.7148ZM7.89062 53.8477C7.89062 54.8047 8.67188 55.6055 9.58984 55.6055L46.1523 55.6055C47.0898 55.6055 47.8906 54.8047 47.8906 53.8477C47.8906 52.9297 47.0898 52.1484 46.1523 52.1484L9.58984 52.1484C8.69141 52.1484 7.89062 52.9102 7.89062 53.8477ZM57.6367 25.7031L57.6367 41.3477C57.6367 44.668 56.1133 46.6211 53.5352 46.6211C51.1328 46.6211 49.6289 44.9805 49.6289 42.3438C49.6289 38.7891 50.2344 33.8867 50.2344 29.4336C50.2344 25.1953 48.0859 21.9531 43.1445 20.2344L42.0508 22.6562C45.918 23.9062 47.5586 26.3867 47.5586 29.4336C47.5586 33.4375 46.9727 38.3203 46.9727 42.3438C46.9727 46.6016 49.4922 49.2773 53.5352 49.2773C57.8125 49.2773 60.293 46.3672 60.293 41.3477L60.293 25.7031C60.293 23.4375 61.9336 22.793 63.0859 21.8555C64.6094 20.7031 65.5078 19.1992 65.5078 17.2266L65.5078 13.7891C65.5078 13.2422 65.1758 12.8711 64.707 12.8711L63.0664 12.8711L63.0664 8.37891C63.0664 7.73438 62.5586 7.20703 61.8945 7.20703C61.2891 7.20703 60.7422 7.73438 60.7422 8.37891L60.7617 12.8711L57.3633 12.8711L57.3828 8.37891C57.3828 7.73438 56.875 7.20703 56.25 7.20703C55.5859 7.20703 55.0781 7.73438 55.0781 8.37891L55.0781 12.8711L53.2031 12.8711C52.7344 12.8711 52.4023 13.2422 52.4023 13.7891L52.4023 17.2266C52.4023 19.1992 53.3203 20.7031 54.8047 21.8555C55.9961 22.793 57.6367 23.4375 57.6367 25.7031Z" fill="black" fill-opacity="0.85"/>
 </g>
</svg>
