<?xml version="1.0" encoding="UTF-8"?>
<!--Generator: Apple Native CoreSVG 326-->
<!DOCTYPE svg
PUBLIC "-//W3C//DTD SVG 1.1//EN"
       "http://www.w3.org/Graphics/SVG/1.1/DTD/svg11.dtd">
<svg version="1.1" xmlns="http://www.w3.org/2000/svg" xmlns:xlink="http://www.w3.org/1999/xlink" viewBox="0 0 68.0469 52.2998">
 <g>
  <rect height="52.2998" opacity="0" width="68.0469" x="0" y="0"/>
  <path d="M21.4961 19.4946C20.4289 21.4722 19.8242 23.7358 19.8242 26.1401C19.8242 33.8745 26.1133 40.1636 33.8477 40.1636C36.2564 40.1636 38.525 39.5536 40.5066 38.4789L47.0343 44.9976C43.0651 46.5098 38.6289 47.4487 33.8477 47.4487C14.1406 47.4487 0 31.1792 0 26.1401C0 23.1386 4.954 16.2339 13.0934 11.1036ZM67.6758 26.1401C67.6758 29.0524 63.0244 35.7158 55.2359 40.811L46.5227 32.1018C47.3924 30.2977 47.8711 28.2739 47.8711 26.1401C47.8711 18.3862 41.582 12.0972 33.8477 12.0972C31.7065 12.0972 29.6761 12.5792 27.8673 13.455L21.4362 7.02686C25.2101 5.64759 29.3878 4.81202 33.8477 4.81202C53.6914 4.81202 67.6758 21.062 67.6758 26.1401ZM35.6235 33.6026C35.0561 33.7447 34.4606 33.8159 33.8477 33.8159C29.5898 33.8159 26.1719 30.3784 26.1719 26.1401C26.1719 25.5309 26.2419 24.9384 26.3816 24.3734ZM41.5234 26.1401C41.5234 26.4475 41.5055 26.7506 41.4655 27.0469L32.9204 18.5057C33.2229 18.4636 33.533 18.4448 33.8477 18.4448C38.1055 18.4448 41.5234 21.8823 41.5234 26.1401Z" fill="black" fill-opacity="0.85"/>
  <path d="M53.8867 48.0151C54.5508 48.6597 55.5664 48.6987 56.25 48.0151C56.9531 47.2925 56.8945 46.3159 56.25 45.6519L13.7891 3.21046C13.1445 2.56593 12.0703 2.5464 11.4062 3.21046C10.7812 3.83546 10.7812 4.92921 11.4062 5.57374Z" fill="black" fill-opacity="0.85"/>
 </g>
</svg>
