<?xml version="1.0" encoding="UTF-8"?>
<!--Generator: Apple Native CoreSVG 326-->
<!DOCTYPE svg
PUBLIC "-//W3C//DTD SVG 1.1//EN"
       "http://www.w3.org/Graphics/SVG/1.1/DTD/svg11.dtd">
<svg version="1.1" xmlns="http://www.w3.org/2000/svg" xmlns:xlink="http://www.w3.org/1999/xlink" viewBox="0 0 56.7188 54.3164">
 <g>
  <rect height="54.3164" opacity="0" width="56.7188" x="0" y="0"/>
  <path d="M31.3281 10.8203C34.2969 10.8203 36.7383 8.37891 36.7383 5.42969C36.7383 2.44141 34.2969 0 31.3281 0C28.3594 0 25.918 2.44141 25.918 5.42969C25.918 8.37891 28.3594 10.8203 31.3281 10.8203ZM38.3008 53.7305C39.375 53.3203 40.1758 52.2266 39.7461 50.7227L35.9961 37.6758C35.8203 37.0508 35.4688 36.5625 34.8828 36.2109L27.0703 31.6406L30.7812 20.6055C31.0547 19.7656 31.9531 19.6875 32.5781 20.293L38.1055 25.8008C38.5938 26.25 39.1797 26.543 39.8242 26.543C40.4883 26.543 41.1133 26.3086 41.6016 25.8008L49.0625 18.3203C50.0195 17.3438 50.0781 15.8008 49.0625 14.8242C48.1055 13.8477 46.543 13.8281 45.5664 14.8242L39.8242 20.5469L35.0391 15.5859C32.8516 13.3008 30.5078 12.8516 25.918 12.8516L2.5 12.8516C1.13281 12.8516 0 13.9453 0 15.3516C0 16.6992 1.13281 17.832 2.5 17.832L19.8828 17.832C20.6055 17.832 21.2695 18.418 20.9375 19.3945L18.0273 28.0859C17.0117 31.1719 18.457 34.4531 21.4453 35.7617L31.5234 40.1758L34.9805 52.0312C35.4883 53.7695 37.0703 54.1992 38.3008 53.7305ZM6.69922 52.9297C7.36328 53.8477 8.61328 54.3164 10 53.5742L21.0938 47.4219C21.6406 47.1094 22.0508 46.6211 22.2656 45.9766L24.4141 39.6094L20.5078 37.8906C20.0391 37.6758 19.5898 37.4219 19.1406 37.1484L17.7539 43.5547L7.57812 49.2383C5.97656 50.1562 5.9375 51.8555 6.69922 52.9297ZM41.0742 31.8164L56.3477 31.8164L56.3477 29.3555L41.0742 29.3555C40.3711 29.3555 39.8242 29.9023 39.8242 30.5859C39.8242 31.2695 40.3711 31.8164 41.0742 31.8164ZM3.53516 13.9258L5.80078 13.9258L5.80078 10.4297L3.53516 10.4297ZM4.66797 0.878906C2.07031 0.878906 0 2.94922 0 5.56641C0 7.96875 2.07031 10.8008 4.66797 11.3867C7.26562 10.8008 9.33594 7.96875 9.33594 5.56641C9.33594 2.94922 7.26562 0.878906 4.66797 0.878906Z" fill="black" fill-opacity="0.85"/>
 </g>
</svg>
