<?xml version="1.0" encoding="UTF-8"?>
<!--Generator: Apple Native CoreSVG 326-->
<!DOCTYPE svg
PUBLIC "-//W3C//DTD SVG 1.1//EN"
       "http://www.w3.org/Graphics/SVG/1.1/DTD/svg11.dtd">
<svg version="1.1" xmlns="http://www.w3.org/2000/svg" xmlns:xlink="http://www.w3.org/1999/xlink" viewBox="0 0 51.25 50.918">
 <g>
  <rect height="50.918" opacity="0" width="51.25" x="0" y="0"/>
  <path d="M25.4297 50.8789C39.4727 50.8789 50.8789 39.4922 50.8789 25.4492C50.8789 11.4062 39.4727 0 25.4297 0C11.3867 0 0 11.4062 0 25.4492C0 39.4922 11.3867 50.8789 25.4297 50.8789ZM25.4297 47.2461C13.3789 47.2461 3.63281 37.5 3.63281 25.4492C3.63281 13.3984 13.3789 3.65234 25.4297 3.65234C37.4805 3.65234 47.2266 13.3984 47.2266 25.4492C47.2266 37.5 37.4805 47.2461 25.4297 47.2461Z" fill="black" fill-opacity="0.85"/>
  <path d="M20.957 15.3125C22.6367 15.3125 23.9844 13.9648 23.9844 12.2852C23.9844 10.6055 22.6367 9.25781 20.957 9.25781C19.2578 9.25781 17.9102 10.6055 17.9102 12.2852C17.9102 13.9648 19.2578 15.3125 20.957 15.3125ZM20.8203 34.1992L33.9062 19.3164C34.2383 18.9648 34.3945 18.6523 34.3945 18.2617C34.3945 17.4414 33.7695 16.8359 32.9297 16.8359L20.6836 16.8359C17.8711 16.8359 15.5859 18.457 14.9609 20.8203L13.5938 25.957C12.9883 28.2422 14.4531 29.707 16.2305 29.707C16.8164 29.707 17.4023 29.5508 17.9688 29.2383L24.5703 25.8008L24.707 25.8594L27.3047 22.9297L26.4453 22.4609C25.8984 22.168 25.2344 22.1484 24.6484 22.4023L19.0039 24.8633L20.1367 20.8984C20.3125 20.1758 20.957 19.707 21.6992 19.707L31.6797 19.707L18.8867 34.1992C19.4922 34.1406 20.293 34.1016 20.8203 34.1992ZM28.8281 26.875L33.8867 29.4141C34.9219 29.9414 35.7422 29.5117 36.0352 28.8672C36.3672 28.2422 36.1719 27.3438 35.1953 26.8555L30.7617 24.6484ZM18.8086 32.5195L13.1445 32.5195C12.7148 32.5195 12.3633 32.8906 12.3633 33.3008C12.3633 33.7109 12.7148 34.082 13.1445 34.082L17.4414 34.082ZM37.6953 32.5195L23.8477 32.5195L22.4609 34.082L37.6953 34.082C38.1055 34.082 38.4766 33.7109 38.4766 33.3008C38.4766 32.8906 38.1055 32.5195 37.6953 32.5195ZM25.4102 39.0234C28.3398 39.0234 29.1406 37.207 31.1328 37.207C33.125 37.207 33.9258 39.0234 36.8359 39.0234L37.5391 39.0234C37.9297 39.0234 38.2422 38.7109 38.2422 38.3594C38.2422 37.9688 37.9492 37.6172 37.5391 37.6172L36.8359 37.6172C34.8633 37.6172 34.0625 35.8008 31.1328 35.8008C28.3203 35.8008 27.4805 37.6172 25.4102 37.6172C23.3594 37.6172 22.5 35.8008 19.6875 35.8008C16.7773 35.8008 15.957 37.6172 14.0039 37.6172L13.2812 37.6172C12.8711 37.6172 12.5781 37.9688 12.5781 38.3594C12.5781 38.7109 12.8906 39.0234 13.2812 39.0234L14.0039 39.0234C16.9141 39.0234 17.7148 37.207 19.6875 37.207C21.6797 37.207 22.5 39.0234 25.4102 39.0234Z" fill="black" fill-opacity="0.85"/>
 </g>
</svg>
