<?xml version="1.0" encoding="UTF-8"?>
<!--Generator: Apple Native CoreSVG 326-->
<!DOCTYPE svg
PUBLIC "-//W3C//DTD SVG 1.1//EN"
       "http://www.w3.org/Graphics/SVG/1.1/DTD/svg11.dtd">
<svg version="1.1" xmlns="http://www.w3.org/2000/svg" xmlns:xlink="http://www.w3.org/1999/xlink" viewBox="0 0 43.6614 60.918">
 <g>
  <rect height="60.918" opacity="0" width="43.6614" x="0" y="0"/>
  <path d="M21.5084 10.8203C24.4772 10.8203 26.9186 8.37891 26.9186 5.41016C26.9186 2.44141 24.4772 0 21.5084 0C18.5201 0 16.0787 2.44141 16.0787 5.41016C16.0787 8.37891 18.5201 10.8203 21.5084 10.8203ZM2.01624 29.8438C3.28577 30.0586 4.67249 29.4336 5.02405 27.9297L7.11389 18.5352L10.8639 18.5352C11.3326 18.5352 11.6647 18.9258 11.5475 19.3945L9.02796 29.0234C8.01233 32.9492 10.5905 36.8164 15.4928 35.5664L24.5944 33.3203L22.8365 42.0703C22.5631 43.418 23.4615 44.7852 24.8092 45.0586C25.9615 45.3125 27.485 44.5703 27.778 43.0859L30.317 30.4297C30.6881 28.6133 29.1451 27.2266 27.6022 27.3633L19.5162 28.1445L21.9186 19.1602C21.9967 18.7695 22.4069 18.5352 22.778 18.6719L32.0162 22.1875C33.7155 22.832 35.4147 21.875 35.4147 20.1172L35.4147 8.41797C35.4147 7.03125 34.3209 5.87891 32.8756 5.87891C31.4889 5.87891 30.3365 7.03125 30.3365 8.41797L30.3365 16.1328L25.6295 14.3164C24.067 13.7305 22.4069 13.457 20.7076 13.457L5.04358 13.457C3.87171 13.457 2.85608 14.2773 2.60217 15.4492L0.0631116 26.8164C-0.249388 28.2031 0.629518 29.6094 2.01624 29.8438ZM13.4225 60.2539C14.5944 60.4883 16.1178 59.7266 16.3912 58.2617L18.9303 45.625C18.9694 45.4102 18.9694 45.1367 18.9694 44.9023L18.9694 37.1289L16.0592 37.832C14.9459 38.1055 13.9108 38.2031 12.9537 38.1055L13.8912 45L11.4498 57.2266C11.1764 58.6133 12.0358 59.9805 13.4225 60.2539ZM23.0905 55.2734L39.5358 55.2734C40.2194 55.2734 40.7662 54.7266 40.7662 54.043C40.7662 53.3398 40.2194 52.793 39.5358 52.793L23.0905 52.793C22.3873 52.793 21.8405 53.3398 21.8405 54.043C21.8405 54.7266 22.3873 55.2734 23.0905 55.2734ZM20.5514 60.8398L42.0358 60.8398C42.7389 60.8398 43.2858 60.293 43.2858 59.6094C43.2858 58.9062 42.7389 58.3594 42.0358 58.3594L20.5514 58.3594C19.8483 58.3594 19.3014 58.9062 19.3014 59.6094C19.3014 60.293 19.8483 60.8398 20.5514 60.8398Z" fill="black" fill-opacity="0.85"/>
 </g>
</svg>
