<?xml version="1.0" encoding="UTF-8"?>
<!--Generator: Apple Native CoreSVG 326-->
<!DOCTYPE svg
PUBLIC "-//W3C//DTD SVG 1.1//EN"
       "http://www.w3.org/Graphics/SVG/1.1/DTD/svg11.dtd">
<svg version="1.1" xmlns="http://www.w3.org/2000/svg" xmlns:xlink="http://www.w3.org/1999/xlink" viewBox="0 0 70.1371 49.668">
 <g>
  <rect height="49.668" opacity="0" width="70.1371" x="0" y="0"/>
  <path d="M42.7736 12.3242L42.7736 17.7734C42.7736 19.2969 43.8674 20.3906 45.3713 20.3906L49.4924 20.3906C50.9963 20.3906 52.1291 19.2969 52.1291 17.7734L52.1291 12.3242C52.1291 10.8398 50.9963 9.70703 49.4924 9.70703L45.3713 9.70703C43.8674 9.70703 42.7736 10.8398 42.7736 12.3242ZM54.6682 12.3242L54.6682 17.7734C54.6682 19.2969 55.7424 20.3906 57.2854 20.3906L61.3869 20.3906C62.9104 20.3906 64.0236 19.2969 64.0236 17.7734L64.0236 12.3242C64.0236 10.8398 62.9104 9.70703 61.3869 9.70703L57.2854 9.70703C55.7424 9.70703 54.6682 10.8398 54.6682 12.3242ZM36.6213 26.5234L36.6213 31.9727C36.6213 33.4766 37.715 34.5703 39.2189 34.5703L43.3205 34.5703C44.8439 34.5703 45.9768 33.4766 45.9768 31.9727L45.9768 26.5234C45.9768 25.0195 44.8439 23.9258 43.3205 23.9258L39.2189 23.9258C37.715 23.9258 36.6213 25.0195 36.6213 26.5234ZM48.5158 26.5234L48.5158 31.9727C48.5158 33.4766 49.6291 34.5703 51.133 34.5703L55.2346 34.5703C56.7775 34.5703 57.8713 33.4766 57.8713 31.9727L57.8713 26.5234C57.8713 25.0195 56.7775 23.9258 55.2346 23.9258L51.133 23.9258C49.6291 23.9258 48.5158 25.0195 48.5158 26.5234ZM60.4299 26.5234L60.4299 31.9727C60.4299 33.4766 61.5236 34.5703 63.0471 34.5703L67.1486 34.5703C68.6721 34.5703 69.7658 33.4766 69.7658 31.9727L69.7658 26.5234C69.7658 25.0195 68.6721 23.9258 67.1486 23.9258L63.0471 23.9258C61.5236 23.9258 60.4299 25.0195 60.4299 26.5234ZM42.7736 40.7422L42.7736 46.1719C42.7736 47.6953 43.8674 48.7695 45.3713 48.7695L49.4924 48.7695C50.9963 48.7695 52.1291 47.6953 52.1291 46.1719L52.1291 40.7422C52.1291 39.2383 50.9963 38.1055 49.4924 38.1055L45.3713 38.1055C43.8674 38.1055 42.7736 39.2383 42.7736 40.7422ZM54.6682 40.7422L54.6682 46.1719C54.6682 47.6953 55.7424 48.7695 57.2854 48.7695L61.3869 48.7695C62.9104 48.7695 64.0236 47.6953 64.0236 46.1719L64.0236 40.7422C64.0236 39.2383 62.9104 38.1055 61.3869 38.1055L57.2854 38.1055C55.7424 38.1055 54.6682 39.2383 54.6682 40.7422ZM48.2033 6.42578L58.2619 6.42578C58.9455 6.42578 59.1018 5.68359 58.5549 5.3125L53.965 2.1875C53.4768 1.875 52.9885 1.875 52.5002 2.1875L47.9104 5.3125C47.3635 5.68359 47.5197 6.42578 48.2033 6.42578Z" fill="black" fill-opacity="0.85"/>
  <path d="M14.2971 10.9766C17.3439 10.9766 19.7463 8.45703 19.7463 5.52734C19.7463 2.48047 17.3439 0 14.2971 0C11.2307 0 8.84785 2.48047 8.84785 5.52734C8.84785 8.55469 11.2307 10.9766 14.2971 10.9766ZM3.80879 31.4258L19.4729 14.0039C17.9104 13.3984 16.2111 13.1641 14.2971 13.1641C7.24629 13.1641 3.0666 16.5625 3.0666 22.2461C3.0666 23.6328 3.12519 25.4688 3.34004 27.3242ZM24.8244 31.4258L25.2541 27.3242C25.4689 25.4688 25.5471 23.6328 25.5471 22.2461C25.5471 19.4141 24.5314 17.1289 22.5197 15.5664L9.9416 29.5703C11.426 29.3164 12.8518 29.2188 14.2971 29.2188C17.7736 29.2188 21.2893 29.6875 24.8244 31.4258ZM8.28144 49.5508C9.70723 49.3359 10.6643 48.3008 10.4885 46.5234L9.49238 37.4023L19.1018 37.4023L18.1447 46.5234C17.9494 48.3008 18.8869 49.3359 20.3322 49.5508C21.8361 49.6875 22.9494 48.7695 23.1643 47.0117L24.4338 34.9219C21.2307 33.0859 17.6955 32.3828 14.2971 32.3828C10.9182 32.3828 7.36348 33.0859 4.19941 34.9219L5.44941 47.0117C5.66426 48.7695 6.75801 49.6875 8.28144 49.5508ZM22.5197 15.5469L27.2268 10.332C27.9885 9.45312 27.9299 8.49609 27.1682 7.85156C26.465 7.22656 25.5471 7.20703 24.7268 8.125L19.4729 14.0039C20.5861 14.4336 21.6213 14.9609 22.5197 15.5469ZM0.722851 33.2812C-0.116993 33.9062-0.156056 34.8828 0.254101 35.5469C0.683788 36.2305 1.54316 36.5625 2.46113 35.9961C3.0666 35.6055 3.59394 35.2539 4.19941 34.9219L3.80879 31.4258C2.67598 31.9336 1.66035 32.5391 0.722851 33.2812ZM27.8908 33.2812C26.9533 32.5391 25.9377 31.9336 24.8244 31.4258L24.4143 34.9219C25.0197 35.2539 25.5666 35.6055 26.1525 35.9961C27.0705 36.5625 27.9104 36.25 28.3596 35.5859C28.7502 34.9219 28.7502 33.9258 27.8908 33.2812Z" fill="black" fill-opacity="0.85"/>
 </g>
</svg>
