<?xml version="1.0" encoding="UTF-8"?>
<!--Generator: Apple Native CoreSVG 326-->
<!DOCTYPE svg
PUBLIC "-//W3C//DTD SVG 1.1//EN"
       "http://www.w3.org/Graphics/SVG/1.1/DTD/svg11.dtd">
<svg version="1.1" xmlns="http://www.w3.org/2000/svg" xmlns:xlink="http://www.w3.org/1999/xlink" viewBox="0 0 50.3906 57.7148">
 <g>
  <rect height="57.7148" opacity="0" width="50.3906" x="0" y="0"/>
  <path d="M0 54.7656C0 55.7812 0.839844 56.6211 1.85547 56.6211C2.87109 56.6211 3.71094 55.7812 3.71094 54.7656L3.71094 1.85547C3.71094 0.820312 2.87109 0 1.85547 0C0.839844 0 0 0.820312 0 1.85547Z" fill="black" fill-opacity="0.85"/>
  <path d="M19.3164 55.7812L27.1289 46.4648C27.8906 45.5664 27.9883 45.3516 28.3008 44.3945L28.9844 42.3438L24.8242 37.1484L23.4766 43.2812L15.7422 52.4414C13.3008 55.332 17.2852 58.1836 19.3164 55.7812ZM38.418 55.0195C40 58.2422 44.7656 56.2695 43.0273 52.7734L37.7148 41.9922C37.3242 41.1914 36.7383 40.332 36.25 39.6289L32.8516 34.8242L33.1055 34.1016C34.0039 31.4258 34.3555 29.7852 34.5312 27.1289L35.0586 19.6094C35.332 15.9961 33.2031 13.3203 29.5703 13.3203C26.8359 13.3203 25 14.7266 22.4609 17.1875L18.4766 21.1133C17.1875 22.3828 16.7578 23.418 16.6211 25.0977L16.1719 31.2695C16.0547 32.793 16.8945 33.8867 18.3203 33.9258C19.7461 34.0234 20.6055 33.1836 20.7617 31.543L21.3477 24.7852L23.2617 23.0664C23.9453 22.4219 24.9219 22.832 24.8633 23.5742L24.4336 29.2969C24.1992 32.168 24.8828 33.5352 26.875 36.0156L32.1289 42.6172C32.6758 43.3008 32.7344 43.5547 32.9492 43.9844ZM47.4414 23.5156L41.4062 23.5156L37.4023 19.0625L36.9922 25.3125L38.7305 27.0312C39.5703 27.8906 40.293 28.1445 41.8359 28.1445L47.4414 28.1445C49.0039 28.1445 50.0195 27.2461 50.0195 25.8203C50.0195 24.4141 48.9648 23.5156 47.4414 23.5156ZM32.4609 10.957C35.4883 10.957 37.9297 8.51562 37.9297 5.46875C37.9297 2.44141 35.4883 0 32.4609 0C29.4141 0 26.9727 2.44141 26.9727 5.46875C26.9727 8.51562 29.4141 10.957 32.4609 10.957Z" fill="black" fill-opacity="0.85"/>
 </g>
</svg>
