<?xml version="1.0" encoding="UTF-8"?>
<!--Generator: Apple Native CoreSVG 326-->
<!DOCTYPE svg
PUBLIC "-//W3C//DTD SVG 1.1//EN"
       "http://www.w3.org/Graphics/SVG/1.1/DTD/svg11.dtd">
<svg version="1.1" xmlns="http://www.w3.org/2000/svg" xmlns:xlink="http://www.w3.org/1999/xlink" viewBox="0 0 48.1729 59.1588">
 <g>
  <rect height="59.1588" opacity="0" width="48.1729" x="0" y="0"/>
  <path d="M20.7173 13.9446C23.7056 13.9446 26.1275 11.5423 26.1275 8.59307C26.1275 5.60479 23.7056 3.20245 20.7173 3.20245C17.7681 3.20245 15.3657 5.60479 15.3657 8.59307C15.3657 11.5423 17.7681 13.9446 20.7173 13.9446ZM39.9361 16.6595L11.8111 16.6595L12.5923 17.2454C13.8032 16.8157 14.272 15.6439 13.979 14.6087C13.6665 13.4759 12.5923 12.5384 10.7368 12.9681L3.43215 14.6478C-1.25535 15.7415-1.13816 21.7962 3.76418 21.7962L11.7329 21.7962C12.4556 21.7962 13.022 22.3821 13.022 23.0853L13.022 33.5345L5.38527 41.1517C4.33059 42.1868 3.64699 43.2415 3.2173 44.8626L0.307149 55.7415C-0.181133 57.597 0.893086 58.7493 2.20168 58.9642C3.43215 59.179 4.79934 58.5931 5.22902 57.0501L7.98293 46.8353C8.23684 45.8782 8.43215 45.4681 9.19387 44.8626L15.19 39.7259C16.3814 38.7298 18.4517 38.9251 19.2915 40.3704L22.9243 46.7181L28.7056 57.597C29.5454 59.2181 31.3618 59.3548 32.5142 58.6321C33.5298 57.9681 33.94 56.6204 33.2173 55.2337L27.397 44.179L24.1353 36.6595C23.5689 35.3899 23.2759 34.0032 23.2759 32.5774L23.2759 23.0853C23.2759 22.3821 23.8423 21.7962 24.5845 21.7962L39.9361 21.7962C41.3423 21.7962 42.4946 20.6439 42.4946 19.2571C42.4946 17.8314 41.3423 16.6595 39.9361 16.6595ZM45.2095 19.2571C45.2095 24.6673 44.1157 29.9993 41.4595 36.6595C41.1861 37.3821 41.4595 38.1243 42.104 38.3782C42.7876 38.6712 43.4907 38.3978 43.8228 37.7337C46.6548 31.6009 47.8071 25.9954 47.8071 19.2571C47.8071 12.8314 46.6548 7.22589 43.8228 0.780573C43.4907 0.0969791 42.7876-0.176458 42.104 0.11651C41.4595 0.389948 41.1861 1.1126 41.4595 1.85479C44.1157 8.53448 45.2095 13.847 45.2095 19.2571Z" fill="black" fill-opacity="0.85"/>
 </g>
</svg>
