<?xml version="1.0" encoding="UTF-8"?>
<!--Generator: Apple Native CoreSVG 326-->
<!DOCTYPE svg
PUBLIC "-//W3C//DTD SVG 1.1//EN"
       "http://www.w3.org/Graphics/SVG/1.1/DTD/svg11.dtd">
<svg version="1.1" xmlns="http://www.w3.org/2000/svg" xmlns:xlink="http://www.w3.org/1999/xlink" viewBox="0 0 51.25 50.918">
 <g>
  <rect height="50.918" opacity="0" width="51.25" x="0" y="0"/>
  <path d="M50.8789 25.4492C50.8789 39.4531 39.4531 50.8789 25.4297 50.8789C11.4258 50.8789 0 39.4531 0 25.4492C0 11.4258 11.4258 0 25.4297 0C39.4531 0 50.8789 11.4258 50.8789 25.4492ZM25.8594 13.5156L21.1133 16.6992C19.2969 17.9688 20.9961 20.2539 22.7148 19.1406L26.6406 16.4453L29.3555 18.3398C29.8047 18.6328 29.8438 18.9453 29.5703 19.3555L27.3438 22.5586C26.0938 24.375 27.1094 26.3477 29.043 26.8164L35.0586 28.3203C35.6641 28.457 35.9766 28.8867 35.9766 29.5508C35.9766 33.9648 32.6367 37.2852 28.1641 37.2852C23.7109 37.2852 20.3516 33.9648 20.3516 29.4727C20.3516 27.9688 20.7227 26.6406 21.4453 25.5078C22.3242 24.1211 20.5078 23.1055 19.6289 24.4531C18.7891 25.8594 18.2422 27.5391 18.2422 29.4727C18.2422 35.1562 22.5 39.3945 28.1641 39.3945C33.8477 39.3945 38.1055 35.1562 38.1055 29.4727C38.1055 26.9141 37.0508 25.3516 34.7656 24.5508L32.6172 23.8086C32.3242 23.7109 32.2461 23.5352 32.4609 23.2812L33.8281 21.2695C34.9414 19.6484 34.5312 18.3008 32.8711 17.0898L27.7344 13.5547C27.1289 13.1641 26.4453 13.1445 25.8594 13.5156ZM36.5039 37.8125C36.5039 38.6914 37.1875 39.3945 38.1055 39.3945C38.9844 39.3945 39.707 38.6914 39.707 37.8125C39.707 36.9336 38.9844 36.2109 38.1055 36.2109C37.1875 36.2109 36.5039 36.9336 36.5039 37.8125ZM11.4648 30.293C10.9375 30.293 10.5469 30.6836 10.5469 31.2305C10.5469 31.7969 10.9375 32.1875 11.4648 32.1875L15.0195 32.1875C15.5469 32.1875 15.957 31.7969 15.957 31.2305C15.957 30.6836 15.5469 30.293 15.0195 30.293ZM7.65625 25.2539C7.12891 25.2539 6.71875 25.7031 6.71875 26.1914C6.71875 26.7578 7.12891 27.1289 7.65625 27.1289L15.0195 27.1289C15.5469 27.1289 15.957 26.7578 15.957 26.1914C15.957 25.6641 15.5469 25.2539 15.0195 25.2539ZM8.84766 20.1953C8.32031 20.1953 7.92969 20.6445 7.92969 21.1523C7.92969 21.6797 8.32031 22.0898 8.84766 22.0898L15.0195 22.0898C15.5469 22.0898 15.957 21.6992 15.957 21.1523C15.957 20.625 15.5469 20.1953 15.0195 20.1953ZM33.2617 14.2969C33.2617 15.957 34.5898 17.3242 36.25 17.3242C37.9688 17.3242 39.2773 15.957 39.2773 14.2969C39.2773 12.6172 37.9688 11.3086 36.25 11.3086C34.5898 11.3086 33.2617 12.6172 33.2617 14.2969Z" fill="black" fill-opacity="0.85"/>
 </g>
</svg>
