<?xml version="1.0" encoding="UTF-8"?>
<!--Generator: Apple Native CoreSVG 326-->
<!DOCTYPE svg
PUBLIC "-//W3C//DTD SVG 1.1//EN"
       "http://www.w3.org/Graphics/SVG/1.1/DTD/svg11.dtd">
<svg version="1.1" xmlns="http://www.w3.org/2000/svg" xmlns:xlink="http://www.w3.org/1999/xlink" viewBox="0 0 51.25 50.918">
 <g>
  <rect height="50.918" opacity="0" width="51.25" x="0" y="0"/>
  <path d="M50.8789 25.4492C50.8789 39.4531 39.4531 50.8789 25.4297 50.8789C11.4258 50.8789 0 39.4531 0 25.4492C0 11.4258 11.4258 0 25.4297 0C39.4531 0 50.8789 11.4258 50.8789 25.4492ZM8.14453 29.7852C7.83203 30.0781 7.73438 30.6055 8.20312 31.0156C8.96484 31.7188 9.84375 32.4023 10.7422 33.0664C10.1953 33.7109 9.62891 34.1211 8.76953 34.5312C8.33984 34.7852 8.22266 35.1172 8.30078 35.4492C8.37891 35.7227 8.63281 35.9766 9.04297 35.9766C10.1953 35.9766 11.7969 35.5664 13.2031 34.7266C18.9258 38.2422 26.4062 41.0352 34.5508 42.0312C35.1172 42.1094 35.4688 41.6406 35.4688 41.2305C35.4688 40.8984 35.2344 40.6055 34.7461 40.5273C24.707 39.3945 14.9219 34.9414 9.16016 29.8242C8.82812 29.4727 8.39844 29.5508 8.14453 29.7852ZM22.9102 7.44141L17.7148 11.1719C16.8359 11.7969 16.8359 13.0469 17.7148 13.6328L22.168 16.6602C22.4414 16.875 22.5 17.1875 22.3242 17.4414L18.5742 22.8516C17.0312 25.0781 18.0078 28.1445 21.0547 28.6523L22.168 28.8281L19.5898 32.4414C19.1211 33.1055 19.2383 34.0625 19.9414 34.5508C20.5859 35 21.5625 34.8242 22.0117 34.1992L25.4492 29.3945L28.7109 29.9219L25.4883 34.7266C25.0586 35.4102 25.2148 36.3867 25.9375 36.7773C26.7773 37.3047 27.5977 37.0312 28.0078 36.3867L32.3633 29.8438C32.9297 28.9648 32.6172 27.6367 31.3672 27.3242L25.3906 25.8789C24.8242 25.7422 24.5898 25.2539 24.9414 24.7461L27.4609 20.957C27.6172 20.7031 27.9688 20.6445 28.2422 20.8203L31.8945 23.3398C32.0898 23.4961 32.2461 23.5742 32.5 23.6133L40.6836 25.0586C41.4258 25.2344 42.2852 24.7461 42.4414 23.8672C42.5977 23.0664 42.0312 22.2656 41.25 22.1484L33.3398 20.7031L21.1523 12.3828L24.6094 9.88281C25.3125 9.39453 25.4688 8.47656 25.0195 7.79297C24.5117 7.10938 23.5742 6.95312 22.9102 7.44141ZM26.6211 12.5C26.6211 14.2578 28.0664 15.7031 29.8242 15.7031C31.582 15.7031 33.0078 14.2578 33.0078 12.5C33.0078 10.7422 31.582 9.33594 29.8242 9.33594C28.0664 9.33594 26.6211 10.7422 26.6211 12.5Z" fill="black" fill-opacity="0.85"/>
 </g>
</svg>
