<?xml version="1.0" encoding="UTF-8"?>
<!--Generator: Apple Native CoreSVG 326-->
<!DOCTYPE svg
PUBLIC "-//W3C//DTD SVG 1.1//EN"
       "http://www.w3.org/Graphics/SVG/1.1/DTD/svg11.dtd">
<svg version="1.1" xmlns="http://www.w3.org/2000/svg" xmlns:xlink="http://www.w3.org/1999/xlink" viewBox="0 0 50.4102 57.7148">
 <g>
  <rect height="57.7148" opacity="0" width="50.4102" x="0" y="0"/>
  <path d="M0 54.7656C0 55.7812 0.839844 56.6211 1.85547 56.6211C2.87109 56.6211 3.71094 55.7812 3.71094 54.7656L3.71094 1.85547C3.71094 0.820312 2.87109 0 1.85547 0C0.839844 0 0 0.820312 0 1.85547Z" fill="black" fill-opacity="0.85"/>
  <path d="M45.7031 55.7812L37.8711 46.4648C37.1094 45.5664 37.0117 45.3516 36.6992 44.3945L36.0352 42.3438L40.1953 37.1484L41.5234 43.2812L49.2578 52.4414C51.7188 55.332 47.7344 58.1836 45.7031 55.7812ZM26.6016 55.0195C25 58.2422 20.2539 56.2695 21.9727 52.7734L27.2852 41.9922C27.6953 41.1914 28.2617 40.332 28.75 39.6289L32.1484 34.8242L31.9141 34.1016C30.9961 31.4258 30.6641 29.7852 30.4688 27.1289L29.9414 19.6094C29.6875 15.9961 31.8164 13.3203 35.4297 13.3203C38.1641 13.3203 40 14.7266 42.5391 17.1875L46.5234 21.1133C47.8125 22.3828 48.2617 23.418 48.3789 25.0977L48.8477 31.2695C48.9648 32.793 48.125 33.8867 46.6992 33.9258C45.2539 34.0234 44.3945 33.1836 44.2578 31.543L43.6719 24.7852L41.7578 23.0664C41.0547 22.4219 40.0781 22.832 40.1367 23.5742L40.5859 29.2969C40.8008 32.168 40.1172 33.5352 38.1445 36.0156L32.8711 42.6172C32.3438 43.3008 32.2656 43.5547 32.0508 43.9844ZM17.5586 23.5156L23.5938 23.5156L27.5977 19.0625L28.0078 25.3125L26.2891 27.0312C25.4297 27.8906 24.707 28.1445 23.1836 28.1445L17.5586 28.1445C16.0156 28.1445 14.9805 27.2461 14.9805 25.8203C14.9805 24.4141 16.0352 23.5156 17.5586 23.5156ZM32.5586 10.957C29.5117 10.957 27.0703 8.51562 27.0703 5.46875C27.0703 2.44141 29.5117 0 32.5586 0C35.5859 0 38.0273 2.44141 38.0273 5.46875C38.0273 8.51562 35.5859 10.957 32.5586 10.957Z" fill="black" fill-opacity="0.85"/>
 </g>
</svg>
