<?xml version="1.0" encoding="UTF-8"?>
<!--Generator: Apple Native CoreSVG 326-->
<!DOCTYPE svg
PUBLIC "-//W3C//DTD SVG 1.1//EN"
       "http://www.w3.org/Graphics/SVG/1.1/DTD/svg11.dtd">
<svg version="1.1" xmlns="http://www.w3.org/2000/svg" xmlns:xlink="http://www.w3.org/1999/xlink" viewBox="0 0 51.25 50.918">
 <g>
  <rect height="50.918" opacity="0" width="51.25" x="0" y="0"/>
  <path d="M50.8789 25.4492C50.8789 39.4531 39.4531 50.8789 25.4297 50.8789C11.4258 50.8789 0 39.4531 0 25.4492C0 11.4258 11.4258 0 25.4297 0C39.4531 0 50.8789 11.4258 50.8789 25.4492ZM38.2422 36.3086C37.5 36.9141 36.6992 37.168 35.3711 37.168L15.4297 37.168C14.1211 37.168 13.3203 36.8945 12.5781 36.3086C12.1094 35.9961 11.6992 36.0938 11.4258 36.3477C11.1328 36.6406 11.0742 37.1875 11.5234 37.5586C12.5781 38.457 13.8672 38.7695 15.4297 38.7695L35.3711 38.7695C36.9336 38.7695 38.2422 38.457 39.2773 37.5586C39.6875 37.1875 39.668 36.7383 39.4141 36.4062C39.1797 36.0938 38.7109 35.9766 38.2422 36.3086ZM13.418 12.4805C12.5977 12.4805 11.9336 13.1445 11.9336 13.9453C11.9336 14.7656 12.5977 15.4688 13.418 15.4688L18.9844 15.4688L21.582 17.0117C21.8945 17.168 21.9727 17.5 21.7969 17.8125L18.5547 22.6367C16.8164 25.2539 18.2422 28.7109 21.5039 29.1211L18.8672 33.3203C18.457 34.0234 18.6523 34.9609 19.375 35.4102C20.0391 35.8008 21.0156 35.6055 21.4258 34.9023L24.9219 29.3164L28.7305 29.5117L26.3477 33.3203C25.9375 34.0234 26.1133 35 26.8359 35.4102C27.5781 35.8008 28.4375 35.625 28.8672 34.9023L32.5781 29.0234C33.1836 28.0469 32.6758 26.8164 31.3086 26.6406L25.0977 25.957C24.4922 25.8789 24.2773 25.2734 24.5703 24.8047L27.1289 20.8984C27.2852 20.6836 27.6367 20.625 27.8516 20.7617L37.3047 26.4453C37.9883 26.8555 38.9648 26.6406 39.3555 25.957C39.7656 25.2148 39.5508 24.2969 38.8281 23.8867L20.1953 12.6562C19.9219 12.5195 19.6875 12.4805 19.4336 12.4805ZM27.3828 13.6328C27.3828 15.3711 28.7891 16.7383 30.5078 16.7383C32.2266 16.7383 33.6133 15.3711 33.6133 13.6328C33.6133 11.8945 32.2266 10.5273 30.5078 10.5273C28.7891 10.5273 27.3828 11.8945 27.3828 13.6328Z" fill="black" fill-opacity="0.85"/>
 </g>
</svg>
