<?xml version="1.0" encoding="UTF-8"?>
<!--Generator: Apple Native CoreSVG 326-->
<!DOCTYPE svg
PUBLIC "-//W3C//DTD SVG 1.1//EN"
       "http://www.w3.org/Graphics/SVG/1.1/DTD/svg11.dtd">
<svg version="1.1" xmlns="http://www.w3.org/2000/svg" xmlns:xlink="http://www.w3.org/1999/xlink" viewBox="0 0 51.25 50.918">
 <g>
  <rect height="50.918" opacity="0" width="51.25" x="0" y="0"/>
  <path d="M50.8789 25.4492C50.8789 39.4531 39.4531 50.8789 25.4297 50.8789C11.4258 50.8789 0 39.4531 0 25.4492C0 11.4258 11.4258 0 25.4297 0C39.4531 0 50.8789 11.4258 50.8789 25.4492ZM23.1836 34.1016L21.0352 41.1523C20.8203 41.9141 21.2891 42.7344 22.0508 42.9688C22.7148 43.1836 23.6328 42.8711 23.8867 41.9922L26.0547 34.707C26.1328 34.5117 26.1328 34.3164 26.1328 34.1016L26.1328 31.6797L23.0859 31.0352C22.9102 30.9961 22.9102 30.9961 22.8516 30.9961ZM16.6406 10.4102L14.4336 17.7344C14.1406 18.6719 14.6484 19.6094 15.8594 19.6094L20.4883 19.6094C20.7031 19.6094 20.8594 19.7852 20.8398 20.0195L20.4102 26.0352C20.2344 28.1641 21.5039 29.4727 23.3203 29.8828L29.2773 31.1328L30.5664 37.5195C30.7227 38.3789 31.6211 38.7891 32.2656 38.6719C33.0664 38.5156 33.5938 37.7148 33.418 36.9336L31.9922 29.5898C31.8945 29.0234 31.3867 28.5938 30.8398 28.4375L26.25 27.0117L26.6406 21.4453C26.6602 21.0156 27.0898 20.8594 27.4023 21.1133L29.5898 22.9297C29.8438 23.1641 30.1562 23.2812 30.5273 23.2812L37.1289 23.2812C37.9492 23.2812 38.5938 22.6367 38.5938 21.8164C38.5938 20.9961 37.9492 20.3516 37.1289 20.3516L31.0742 20.3516L27.8711 17.7148C27.0898 17.0508 26.3672 16.6602 25.1953 16.6602L17.832 16.6602L19.4531 11.25C19.707 10.4492 19.2383 9.62891 18.4766 9.41406C17.6953 9.16016 16.8555 9.62891 16.6406 10.4102ZM22.3438 12.2266C22.3438 13.9453 23.75 15.3516 25.4688 15.3516C27.168 15.3516 28.5742 13.9453 28.5742 12.2266C28.5742 10.5469 27.168 9.14062 25.4688 9.14062C23.75 9.14062 22.3438 10.5469 22.3438 12.2266Z" fill="black" fill-opacity="0.85"/>
 </g>
</svg>
