<?xml version="1.0" encoding="UTF-8"?>
<!--Generator: Apple Native CoreSVG 326-->
<!DOCTYPE svg
PUBLIC "-//W3C//DTD SVG 1.1//EN"
       "http://www.w3.org/Graphics/SVG/1.1/DTD/svg11.dtd">
<svg version="1.1" xmlns="http://www.w3.org/2000/svg" xmlns:xlink="http://www.w3.org/1999/xlink" viewBox="0 0 51.25 50.918">
 <g>
  <rect height="50.918" opacity="0" width="51.25" x="0" y="0"/>
  <path d="M25.4297 50.8789C39.4727 50.8789 50.8789 39.4922 50.8789 25.4492C50.8789 11.4062 39.4727 0 25.4297 0C11.3867 0 0 11.4062 0 25.4492C0 39.4922 11.3867 50.8789 25.4297 50.8789ZM25.4297 47.2461C13.3789 47.2461 3.63281 37.5 3.63281 25.4492C3.63281 13.3984 13.3789 3.65234 25.4297 3.65234C37.4805 3.65234 47.2266 13.3984 47.2266 25.4492C47.2266 37.5 37.4805 47.2461 25.4297 47.2461Z" fill="black" fill-opacity="0.85"/>
  <path d="M17.4023 11.2305L17.6562 16.1133C17.6758 16.9922 18.0273 17.5195 18.6719 17.9883L21.6992 20.1758C22.0508 20.4297 22.2656 20.6641 22.2656 21.3086L22.2656 39.5703C22.2656 40.3125 22.8711 40.8789 23.6133 40.8789C24.3555 40.8789 24.9609 40.3125 24.9609 39.5703L24.9609 29.7266C24.9609 29.4727 25.1758 29.2773 25.4102 29.2773C25.6445 29.2773 25.8398 29.4727 25.8398 29.7266L25.8398 39.5703C25.8398 40.3125 26.4453 40.8789 27.1875 40.8789C27.9492 40.8789 28.5547 40.3125 28.5547 39.5703L28.5547 23.3594C28.5547 23.0859 28.7305 22.9102 28.9844 22.9102C29.2188 22.9102 29.4141 23.0859 29.4141 23.3594L29.4141 28.7305C29.4141 29.3945 29.9609 29.9414 30.6445 29.9414C31.3086 29.9414 31.8359 29.3945 31.8359 28.7305L31.8359 22.7344C31.8359 19.6484 29.5898 17.5977 26.3867 17.5977L23.5742 17.5977C22.7344 17.5977 22.207 17.4609 21.5234 16.9727L20.0781 15.9375L19.8047 11.1133C19.7852 10.4297 19.2188 9.90234 18.5352 9.94141C17.8711 10 17.3633 10.5469 17.4023 11.2305ZM25.4102 15.9961C27.0703 15.9961 28.4375 14.668 28.4375 13.0078C28.4375 11.3086 27.0703 9.98047 25.4102 9.98047C23.75 9.98047 22.3828 11.3086 22.3828 13.0078C22.3828 14.668 23.75 15.9961 25.4102 15.9961Z" fill="black" fill-opacity="0.85"/>
 </g>
</svg>
