<?xml version="1.0" encoding="UTF-8"?>
<!--Generator: Apple Native CoreSVG 326-->
<!DOCTYPE svg
PUBLIC "-//W3C//DTD SVG 1.1//EN"
       "http://www.w3.org/Graphics/SVG/1.1/DTD/svg11.dtd">
<svg version="1.1" xmlns="http://www.w3.org/2000/svg" xmlns:xlink="http://www.w3.org/1999/xlink" viewBox="0 0 51.25 50.918">
 <g>
  <rect height="50.918" opacity="0" width="51.25" x="0" y="0"/>
  <path d="M25.4297 50.8789C39.4727 50.8789 50.8789 39.4922 50.8789 25.4492C50.8789 11.4062 39.4727 0 25.4297 0C11.3867 0 0 11.4062 0 25.4492C0 39.4922 11.3867 50.8789 25.4297 50.8789ZM25.4297 47.2461C13.3789 47.2461 3.63281 37.5 3.63281 25.4492C3.63281 13.3984 13.3789 3.65234 25.4297 3.65234C37.4805 3.65234 47.2266 13.3984 47.2266 25.4492C47.2266 37.5 37.4805 47.2461 25.4297 47.2461Z" fill="black" fill-opacity="0.85"/>
  <path d="M27.793 14.1406C29.4727 14.1406 30.8203 12.793 30.8203 11.0742C30.8203 9.41406 29.4727 8.06641 27.793 8.06641C26.0938 8.06641 24.7461 9.41406 24.7461 11.0742C24.7461 12.793 26.0938 14.1406 27.793 14.1406ZM14.2578 30.8789L23.4375 30.8789C24.6875 30.8789 25.2539 29.4727 24.5508 28.5938L21.6602 25.0586L29.8828 24.5117L37.5781 24.5117C38.3594 24.5117 39.0234 23.9062 39.0234 23.125C39.0234 22.3633 38.3594 21.7188 37.5781 21.7188L23.3398 21.7188L26.7188 18.3203C26.8359 18.1836 27.0312 18.0859 27.2461 18.125L37.3242 19.4141C38.1641 19.5117 38.9258 18.8867 38.9258 18.0273C38.9258 17.3438 38.3984 16.7383 37.6953 16.6406L16.5625 13.9648C16.1133 13.9062 15.7031 14.043 15.3906 14.3555L11.8555 17.8906C11.2891 18.457 11.3086 19.2969 11.8555 19.8828C12.3438 20.3906 13.3008 20.4688 13.8477 19.8828L16.875 16.8359L20.1758 17.2461C20.5078 17.2852 20.6055 17.6172 20.3906 17.832L17.2852 20.918C16.0547 22.1289 16.0156 24.0234 17.2852 25.3125L20.0195 28.0859L14.2578 28.0859C13.4766 28.0859 12.8516 28.6914 12.8516 29.4727C12.8516 30.2344 13.4766 30.8789 14.2578 30.8789ZM27.2461 42.1875C27.2461 42.6172 27.5781 42.9688 28.0273 42.9688C28.457 42.9688 28.8086 42.6172 28.8086 42.1875L28.8086 27.6953C28.8086 27.2656 28.457 26.9141 28.0273 26.9141C27.5781 26.9141 27.2461 27.2656 27.2461 27.6953Z" fill="black" fill-opacity="0.85"/>
 </g>
</svg>
