<?xml version="1.0" encoding="UTF-8"?>
<!--Generator: Apple Native CoreSVG 326-->
<!DOCTYPE svg
PUBLIC "-//W3C//DTD SVG 1.1//EN"
       "http://www.w3.org/Graphics/SVG/1.1/DTD/svg11.dtd">
<svg version="1.1" xmlns="http://www.w3.org/2000/svg" xmlns:xlink="http://www.w3.org/1999/xlink" viewBox="0 0 51.25 50.918">
 <g>
  <rect height="50.918" opacity="0" width="51.25" x="0" y="0"/>
  <path d="M25.4297 50.8789C39.4727 50.8789 50.8789 39.4922 50.8789 25.4492C50.8789 11.4062 39.4727 0 25.4297 0C11.3867 0 0 11.4062 0 25.4492C0 39.4922 11.3867 50.8789 25.4297 50.8789ZM25.4297 47.2461C13.3789 47.2461 3.63281 37.5 3.63281 25.4492C3.63281 13.3984 13.3789 3.65234 25.4297 3.65234C37.4805 3.65234 47.2266 13.3984 47.2266 25.4492C47.2266 37.5 37.4805 47.2461 25.4297 47.2461Z" fill="black" fill-opacity="0.85"/>
  <path d="M33.1836 15.4297C34.8438 15.4297 36.1914 14.082 36.1914 12.4023C36.1914 10.7422 34.8438 9.39453 33.1836 9.39453C31.4844 9.39453 30.1562 10.7422 30.1562 12.4023C30.1562 14.082 31.4844 15.4297 33.1836 15.4297ZM22.4219 27.2266L29.5117 32.6172L27.3047 39.3945C26.9922 40.3711 27.5977 41.0742 28.3398 41.25C29.0039 41.3867 29.7656 41.0938 30.0586 40.1953L32.5195 32.5977C32.6953 32.0508 32.5781 31.4258 32.2266 31.0742L27.4609 26.3086L32.9297 20.8203C33.1445 20.5859 33.5156 20.6055 33.7695 20.8203L35.6641 22.7148L33.0664 25.293C32.4805 25.8594 32.5195 26.7773 33.0664 27.3242C33.5938 27.8516 34.5117 27.9102 35.0781 27.3242L38.6914 23.75C39.2578 23.1641 39.2383 22.2852 38.6914 21.6992L35.2148 18.1836C34.375 17.3633 33.3789 16.9531 32.1875 16.9531L15.4883 16.9531C14.707 16.9531 14.043 17.5977 14.043 18.3789C14.043 19.1602 14.707 19.8242 15.4883 19.8242L25.0977 19.8242C25.5664 19.8242 25.8008 20.3516 25.4492 20.6641L22.6562 23.457C21.4062 24.707 21.582 26.582 22.4219 27.2266ZM22.0508 28.3789L21.3281 32.793L14.6484 32.793C13.8281 32.793 13.2031 33.457 13.2031 34.2383C13.2031 35.0391 13.8281 35.6836 14.6484 35.6836L22.4609 35.6836C23.2227 35.6836 23.75 35.293 23.9258 34.6484L25.1172 30.7227ZM14.043 24.6484C15.7617 24.6484 17.1875 23.2227 17.1875 21.5039C17.1875 19.8047 15.7617 18.3789 14.043 18.3789C12.3242 18.3789 10.918 19.8047 10.918 21.5039C10.918 23.2227 12.3242 24.6484 14.043 24.6484Z" fill="black" fill-opacity="0.85"/>
 </g>
</svg>
