<?xml version="1.0" encoding="UTF-8"?>
<!--Generator: Apple Native CoreSVG 326-->
<!DOCTYPE svg
PUBLIC "-//W3C//DTD SVG 1.1//EN"
       "http://www.w3.org/Graphics/SVG/1.1/DTD/svg11.dtd">
<svg version="1.1" xmlns="http://www.w3.org/2000/svg" xmlns:xlink="http://www.w3.org/1999/xlink" viewBox="0 0 51.25 50.918">
 <g>
  <rect height="50.918" opacity="0" width="51.25" x="0" y="0"/>
  <path d="M25.4297 50.8789C39.4727 50.8789 50.8789 39.4922 50.8789 25.4492C50.8789 11.4062 39.4727 0 25.4297 0C11.3867 0 0 11.4062 0 25.4492C0 39.4922 11.3867 50.8789 25.4297 50.8789ZM25.4297 47.2461C13.3789 47.2461 3.63281 37.5 3.63281 25.4492C3.63281 13.3984 13.3789 3.65234 25.4297 3.65234C37.4805 3.65234 47.2266 13.3984 47.2266 25.4492C47.2266 37.5 37.4805 47.2461 25.4297 47.2461Z" fill="black" fill-opacity="0.85"/>
  <path d="M20.0195 39.3945L24.1211 39.3945C24.7461 39.3945 25.0391 38.9453 24.8828 38.2227L23.457 31.9727L27.5977 26.8945L39.7461 24.668L40.7812 26.582C41.1719 27.3438 42.5586 27.0898 42.3828 26.1133L41.7188 22.3242C41.6211 21.7383 41.2305 21.5234 40.7422 21.6211L32.3828 23.0859L27.207 22.8125C25.7227 22.5586 23.2617 21.4844 22.7148 20.0977C22.5586 19.7266 22.793 19.375 23.1445 19.2773L30.9375 17.9102C31.8945 17.7539 32.2266 16.9336 32.0703 16.25C31.9336 15.5469 31.3281 14.9805 30.3906 15.1367L8.78906 19.082C7.87109 19.2578 7.51953 20 7.63672 20.6836C7.79297 21.4062 8.37891 22.0117 9.33594 21.8359L15.6836 20.6836C16.2305 20.5859 16.4844 20.8203 16.5625 21.1133C17.2852 23.8867 20.0195 25.8398 22.8516 26.9336L20.8008 30.4102C20.4688 30.957 20.3516 31.4453 20.5273 32.1484L21.6602 37.1289L19.8242 37.7344C18.9258 38.0469 19.0234 39.3945 20.0195 39.3945ZM18.0469 15.8398C19.7266 15.8398 21.0938 14.4922 21.0938 12.793C21.0938 11.0938 19.7266 9.76562 18.0469 9.76562C16.3281 9.76562 15.0195 11.0938 15.0195 12.793C15.0195 14.4922 16.3281 15.8398 18.0469 15.8398ZM19.2578 41.5234L24.707 41.5234C25.0391 41.5234 25.293 41.2695 25.293 40.957C25.293 40.625 25.0391 40.3516 24.707 40.3516L19.2578 40.3516C18.9453 40.3516 18.6719 40.625 18.6719 40.957C18.6719 41.2695 18.9453 41.5234 19.2578 41.5234ZM44.668 26.7383L43.7305 21.3867C43.6719 21.0742 43.3594 20.8594 43.0469 20.8984C42.7148 20.9766 42.5195 21.2695 42.5586 21.582L43.5352 26.9336C43.5742 27.2656 43.9062 27.4805 44.2188 27.4219C44.5312 27.4023 44.7266 27.0703 44.668 26.7383Z" fill="black" fill-opacity="0.85"/>
 </g>
</svg>
