<?xml version="1.0" encoding="UTF-8"?>
<!--Generator: Apple Native CoreSVG 326-->
<!DOCTYPE svg
PUBLIC "-//W3C//DTD SVG 1.1//EN"
       "http://www.w3.org/Graphics/SVG/1.1/DTD/svg11.dtd">
<svg version="1.1" xmlns="http://www.w3.org/2000/svg" xmlns:xlink="http://www.w3.org/1999/xlink" viewBox="0 0 51.25 50.918">
 <g>
  <rect height="50.918" opacity="0" width="51.25" x="0" y="0"/>
  <path d="M25.4297 50.8789C39.4727 50.8789 50.8789 39.4922 50.8789 25.4492C50.8789 11.4062 39.4727 0 25.4297 0C11.3867 0 0 11.4062 0 25.4492C0 39.4922 11.3867 50.8789 25.4297 50.8789ZM25.4297 47.2461C13.3789 47.2461 3.63281 37.5 3.63281 25.4492C3.63281 13.3984 13.3789 3.65234 25.4297 3.65234C37.4805 3.65234 47.2266 13.3984 47.2266 25.4492C47.2266 37.5 37.4805 47.2461 25.4297 47.2461Z" fill="black" fill-opacity="0.85"/>
  <path d="M30.5664 18.5938C32.2656 18.5938 33.6133 17.2461 33.6133 15.5273C33.6133 13.8672 32.2656 12.5195 30.5664 12.5195C28.8867 12.5195 27.5391 13.8672 27.5391 15.5273C27.5391 17.2461 28.8867 18.5938 30.5664 18.5938ZM20.8203 39.7656C21.4258 40 22.207 39.8242 22.6172 38.9844L26.1914 31.875C26.4453 31.3477 26.4062 30.7031 25.918 30.2148L21.6211 25.918L27.0508 23.2227C27.3242 23.0859 27.5977 23.1445 27.793 23.3398L31.0156 26.5625C31.2695 26.8164 31.6406 26.9727 32.0117 26.9727L38.2422 26.9727C39.0039 26.9727 39.6484 26.3477 39.6484 25.5664C39.6484 24.7461 39.0039 24.1211 38.2422 24.1211L32.6172 24.1211L26.6016 18.1055C25.8984 17.4023 24.9414 17.0117 23.9062 17.0117L12.0898 17.0117C11.2891 17.0117 10.6641 17.6562 10.6641 18.4375C10.6641 19.1992 11.2891 19.8438 12.0898 19.8438L21.0156 19.8438C21.1523 19.8438 21.2109 20.0977 21.0742 20.1758L18.3984 21.4844C17.0117 22.1875 16.2891 23.4961 16.2891 24.8242C16.2891 25.9766 16.8164 27.1289 17.8711 27.8906L23.0664 31.6992L20.0586 37.7344C19.5703 38.7109 20.0977 39.4727 20.8203 39.7656ZM9.02344 34.082L15.6445 34.082C16.1914 34.082 16.6992 33.7891 16.9336 33.3203L18.6133 29.8828L17.168 28.8281C16.4453 28.3008 16.0938 27.8125 15.8594 27.4219L14.6289 31.25L9.02344 31.25C8.26172 31.25 7.63672 31.875 7.63672 32.6758C7.63672 33.4375 8.26172 34.082 9.02344 34.082ZM38.8867 13.2227C37.0508 13.2227 35.6445 14.6094 35.6445 16.4648C35.6445 19.1602 38.0078 22.1875 38.3398 22.5391L39.4531 22.5391C39.7656 22.1875 42.1484 19.1602 42.1484 16.4648C42.1484 14.6094 40.7422 13.2227 38.8867 13.2227ZM38.8867 14.7656C39.9219 14.7656 40.5859 15.4883 40.5859 16.4648C40.5859 17.8125 39.5508 19.668 38.8867 20.7227C38.2227 19.668 37.1875 17.8125 37.1875 16.4648C37.1875 15.4883 37.8906 14.7656 38.8867 14.7656ZM38.1055 25.5664L39.6484 25.5664L39.6484 21.8945L38.1055 21.8945Z" fill="black" fill-opacity="0.85"/>
 </g>
</svg>
