<?xml version="1.0" encoding="UTF-8"?>
<!--Generator: Apple Native CoreSVG 326-->
<!DOCTYPE svg
PUBLIC "-//W3C//DTD SVG 1.1//EN"
       "http://www.w3.org/Graphics/SVG/1.1/DTD/svg11.dtd">
<svg version="1.1" xmlns="http://www.w3.org/2000/svg" xmlns:xlink="http://www.w3.org/1999/xlink" viewBox="0 0 36.9436 62.9883">
 <g>
  <rect height="62.9883" opacity="0" width="36.9436" x="0" y="0"/>
  <path d="M20.4347 10.8398C23.4034 10.8398 25.8253 8.41797 25.8253 5.39062C25.8253 2.42188 23.4034 0 20.4347 0C17.4269 0 15.005 2.42188 15.005 5.39062C15.005 8.41797 17.4269 10.8398 20.4347 10.8398ZM26.2159 25.4297C27.2511 26.4844 29.2042 26.4258 30.1027 25L36.1183 15.3516C37.9737 12.3828 33.6183 10 31.9191 12.7344L27.5636 19.7461L24.1261 16.3086C20.8448 13.0469 17.2511 12.3828 12.2511 12.9492L3.42297 13.9258C2.29015 14.0625 1.39172 14.9805 1.27453 16.0742L0.0245297 25.8008C-0.385627 28.9258 4.47765 29.7461 4.90734 26.3867L5.90344 18.6328L10.5128 18.1055C11.1573 18.0469 11.6066 18.4766 11.5089 19.1992L10.337 28.7109C9.77062 33.2227 12.3683 35.8203 16.8214 35.5273L25.9425 34.8633L23.2277 44.8047C22.2902 48.125 27.1339 49.3164 27.9933 46.0742L31.5675 32.832C32.0362 31.1523 30.8839 29.707 29.0089 29.707L19.6144 29.707L20.7862 21.6016C20.9034 20.7812 21.6066 20.7617 22.0753 21.2695ZM12.7784 37.3047L12.1925 46.2109L7.54406 57.8516C6.72375 59.9219 8.20812 61.3867 9.75109 61.3867C10.7081 61.3867 11.6652 60.8398 12.1534 59.6094L16.9191 47.6758C16.9777 47.4805 17.0362 47.3047 17.0753 47.1094L18.462 37.7539L16.9972 37.8516C15.4347 37.9492 14.0089 37.7539 12.7784 37.3047Z" fill="black" fill-opacity="0.85"/>
 </g>
</svg>
