<?xml version="1.0" encoding="UTF-8"?>
<!--Generator: Apple Native CoreSVG 326-->
<!DOCTYPE svg
PUBLIC "-//W3C//DTD SVG 1.1//EN"
       "http://www.w3.org/Graphics/SVG/1.1/DTD/svg11.dtd">
<svg version="1.1" xmlns="http://www.w3.org/2000/svg" xmlns:xlink="http://www.w3.org/1999/xlink" viewBox="0 0 51.25 50.918">
 <g>
  <rect height="50.918" opacity="0" width="51.25" x="0" y="0"/>
  <path d="M50.8789 25.4492C50.8789 39.4531 39.4531 50.8789 25.4297 50.8789C11.4258 50.8789 0 39.4531 0 25.4492C0 11.4258 11.4258 0 25.4297 0C39.4531 0 50.8789 11.4258 50.8789 25.4492ZM18.1836 41.9531C18.1836 42.6172 18.75 43.1641 19.4336 43.1641C20.0781 43.1641 20.6641 42.6172 20.6641 41.9531C20.6641 41.2891 20.0781 40.7227 19.4336 40.7227C18.75 40.7227 18.1836 41.2891 18.1836 41.9531ZM28.2422 41.9531C28.2422 42.6172 28.8086 43.1641 29.4531 43.1641C30.1367 43.1641 30.6836 42.6172 30.6836 41.9531C30.6836 41.2891 30.1367 40.7227 29.4531 40.7227C28.8086 40.7227 28.2422 41.2891 28.2422 41.9531ZM19.6875 14.7852C19.2383 14.7852 18.75 15.0195 18.4766 15.4492L15.5664 19.8242C15.1367 20.4883 15.293 21.4258 15.9766 21.8359C16.6406 22.3047 17.5781 22.1094 18.0078 21.4453L20.4688 17.6758L22.8906 17.6758C23.0664 17.6758 23.2031 17.8906 23.0664 18.0664L20.6055 21.7773C19.8828 22.9102 20 24.4727 20.9961 25.4688L26.3086 30.7812L26.3086 38.3203L19.4336 38.3203C18.0664 38.3203 17.3242 38.0664 16.543 37.4805C16.1133 37.168 15.6445 37.2656 15.3906 37.5586C15.1367 37.8711 15.0781 38.3594 15.5078 38.7305C16.5234 39.6094 17.832 39.9414 19.4336 39.9414L29.4531 39.9414C31.0547 39.9414 32.3633 39.6094 33.3984 38.7305C33.7891 38.3594 33.7695 37.9102 33.5352 37.5781C33.3008 37.2656 32.793 37.1289 32.3242 37.4805C31.5625 38.0664 30.8008 38.3203 29.2383 38.3203L29.2383 30.3516C29.2383 29.9414 29.1211 29.5508 28.8281 29.1602L25.2539 24.6289L28.3203 19.9609C28.5156 19.6484 28.9453 19.6484 29.1016 20L30.1172 22.0312C30.3516 22.5 30.8594 22.832 31.4258 22.832L37.2852 22.832C38.1055 22.832 38.7305 22.1875 38.7305 21.3867C38.7305 20.5664 38.1055 19.9023 37.2852 19.9023L32.3438 19.9023L30.7812 16.7969C30.1758 15.5859 28.9062 14.7852 27.5195 14.7852ZM12.0117 25.5273C11.4844 26.1523 11.5234 27.0703 12.1484 27.5977L17.9102 32.6367C18.8086 33.418 19.8047 33.0078 20.2734 32.3047L22.5781 28.7305L20.1367 26.2891L20.0391 26.1914L18.5156 29.2773L14.1016 25.3906C13.4766 24.8828 12.5586 24.9023 12.0117 25.5273ZM27.7539 11.0156C27.7539 12.7344 29.1602 14.1406 30.8594 14.1406C32.5977 14.1406 33.9844 12.7344 33.9844 11.0156C33.9844 9.29688 32.5977 7.91016 30.8594 7.91016C29.1602 7.91016 27.7539 9.29688 27.7539 11.0156Z" fill="black" fill-opacity="0.85"/>
 </g>
</svg>
