<?xml version="1.0" encoding="UTF-8"?>
<!--Generator: Apple Native CoreSVG 326-->
<!DOCTYPE svg
PUBLIC "-//W3C//DTD SVG 1.1//EN"
       "http://www.w3.org/Graphics/SVG/1.1/DTD/svg11.dtd">
<svg version="1.1" xmlns="http://www.w3.org/2000/svg" xmlns:xlink="http://www.w3.org/1999/xlink" viewBox="0 0 70.8008 50.4102">
 <g>
  <rect height="50.4102" opacity="0" width="70.8008" x="0" y="0"/>
  <path d="M27.2852 27.168C28.3789 27.168 29.2773 26.2695 29.2773 25.1953C29.2773 24.1016 28.3789 23.2031 27.2852 23.2031C26.2109 23.2031 25.3125 24.1016 25.3125 25.1953C25.3125 26.2695 26.2109 27.168 27.2852 27.168ZM35.2344 27.168C36.3086 27.168 37.207 26.2695 37.207 25.1953C37.207 24.1016 36.3086 23.2031 35.2344 23.2031C34.1406 23.2031 33.2422 24.1016 33.2422 25.1953C33.2422 26.2695 34.1406 27.168 35.2344 27.168ZM43.1445 27.168C44.2188 27.168 45.1172 26.2695 45.1172 25.1953C45.1172 24.1016 44.2188 23.2031 43.1445 23.2031C42.0508 23.2031 41.1523 24.1016 41.1523 25.1953C41.1523 26.2695 42.0508 27.168 43.1445 27.168Z" fill="black" fill-opacity="0.85"/>
  <path d="M0 30.3125C0 31.4062 0.878906 32.2852 1.97266 32.2852C3.06641 32.2852 3.94531 31.4062 3.94531 30.3125L3.94531 21.6406C3.94531 21.25 4.25781 20.9375 4.64844 20.9375C5.03906 20.9375 5.35156 21.25 5.35156 21.6406L5.35156 47.9492C5.35156 49.1406 6.32812 50.1172 7.53906 50.1172C8.73047 50.1172 9.70703 49.1406 9.70703 47.9492L9.70703 31.9141C9.70703 31.5234 10.0391 31.1914 10.4297 31.1914C10.8203 31.1914 11.1523 31.5234 11.1523 31.9141L11.1523 47.9492C11.1523 49.1406 12.1094 50.1172 13.3203 50.1172C14.5312 50.1172 15.4883 49.1406 15.4883 47.9492L15.4883 21.6406C15.4883 21.25 15.8008 20.9375 16.2109 20.9375C16.6016 20.9375 16.9141 21.25 16.9141 21.6406L16.9141 30.3125C16.9141 31.4062 17.793 32.2852 18.8867 32.2852C19.9805 32.2852 20.8594 31.4062 20.8594 30.3125L20.8594 20.6445C20.8594 15.6641 17.2266 12.4023 12.0117 12.4023L8.84766 12.4023C3.63281 12.4023 0 15.6641 0 20.6445ZM10.4297 9.76562C13.125 9.76562 15.3125 7.59766 15.3125 4.88281C15.3125 2.1875 13.125 0 10.4297 0C7.71484 0 5.54688 2.1875 5.54688 4.88281C5.54688 7.59766 7.71484 9.76562 10.4297 9.76562ZM49.5898 30.3125C49.5898 31.4062 50.4688 32.2852 51.543 32.2852C52.6562 32.2852 53.5352 31.4062 53.5352 30.3125L53.5352 21.6406C53.5352 21.25 53.8477 20.9375 54.2383 20.9375C54.6289 20.9375 54.9414 21.25 54.9414 21.6406L54.9414 47.9492C54.9414 49.1406 55.918 50.1172 57.1094 50.1172C58.3203 50.1172 59.2773 49.1406 59.2773 47.9492L59.2773 31.9141C59.2773 31.5234 59.6289 31.1914 60.0195 31.1914C60.4102 31.1914 60.7422 31.5234 60.7422 31.9141L60.7422 47.9492C60.7422 49.1406 61.6992 50.1172 62.9102 50.1172C64.1211 50.1172 65.0781 49.1406 65.0781 47.9492L65.0781 21.6406C65.0781 21.25 65.3906 20.9375 65.7812 20.9375C66.1719 20.9375 66.5039 21.25 66.5039 21.6406L66.5039 30.3125C66.5039 31.4062 67.3828 32.2852 68.4766 32.2852C69.5703 32.2852 70.4297 31.4062 70.4297 30.3125L70.4297 20.6445C70.4297 15.6641 66.8164 12.4023 61.6016 12.4023L58.4375 12.4023C53.2031 12.4023 49.5898 15.6641 49.5898 20.6445ZM60.0195 9.76562C62.7148 9.76562 64.9023 7.59766 64.9023 4.88281C64.9023 2.1875 62.7148 0 60.0195 0C57.3047 0 55.1367 2.1875 55.1367 4.88281C55.1367 7.59766 57.3047 9.76562 60.0195 9.76562Z" fill="black" fill-opacity="0.85"/>
 </g>
</svg>
