<?xml version="1.0" encoding="UTF-8"?>
<!--Generator: Apple Native CoreSVG 326-->
<!DOCTYPE svg
PUBLIC "-//W3C//DTD SVG 1.1//EN"
       "http://www.w3.org/Graphics/SVG/1.1/DTD/svg11.dtd">
<svg version="1.1" xmlns="http://www.w3.org/2000/svg" xmlns:xlink="http://www.w3.org/1999/xlink" viewBox="0 0 47.9548 51.1914">
 <g>
  <rect height="51.1914" opacity="0" width="47.9548" x="0" y="0"/>
  <path d="M40.9012 13.9062C44.6121 13.9062 47.5809 10.8203 47.5809 7.22656C47.5809 3.47656 44.6121 0.429688 40.9012 0.429688C37.1512 0.429688 34.1629 3.47656 34.1629 7.22656C34.1629 10.957 37.1512 13.9062 40.9012 13.9062ZM0.901209 49.375C2.19027 50.7227 4.3973 50.6055 5.97933 48.9844L16.6629 37.9492C17.0145 37.5781 17.2684 37.4805 17.8153 37.6953L26.2918 40.918C31.6239 42.9492 36.6043 41.0742 39.0262 36.6797L44.2801 27.1484C46.37 23.3203 45.6864 19.4141 42.0731 17.5C38.577 15.5664 34.9246 17.0117 32.8153 20.8984L25.8621 33.5938L19.9442 31.4453C16.995 30.3711 14.5536 30.7031 12.2293 33.125L1.13558 44.6094C-0.407385 46.1914-0.270666 48.1836 0.901209 49.375Z" fill="black" fill-opacity="0.85"/>
  <path d="M0.393396 16.0742C0.393396 19.7266 3.69418 23.3984 6.87777 23.3984C9.69027 23.3984 11.1746 20.9375 12.6981 16.4062L13.4403 16.2891L13.4403 21.25C13.4403 23.3008 14.495 24.3359 16.4871 24.3359C20.12 24.3359 23.7918 21.0547 23.7918 17.8711C23.7918 15.0391 21.3309 13.5938 16.7801 12.0508L16.6825 11.3086L21.6239 11.3086C23.6942 11.3086 24.7293 10.2539 24.7293 8.28125C24.7293 4.60938 21.4481 0.9375 18.245 0.9375C15.4325 0.9375 13.9676 3.41797 12.4442 7.98828L11.702 8.06641L11.702 3.10547C11.702 1.07422 10.6668 0 8.67465 0C5.00277 0 1.3309 3.30078 1.3309 6.48438C1.3309 9.29688 3.8309 10.7617 8.38168 12.2852L8.44027 13.0469L3.49886 13.0469C1.46761 13.0469 0.393396 14.1016 0.393396 16.0742ZM12.5614 14.707C11.1746 14.707 10.0223 13.5742 10.0223 12.168C10.0223 10.7812 11.1746 9.64844 12.5614 9.64844C13.9481 9.64844 15.1004 10.7812 15.1004 12.168C15.1004 13.5742 13.9481 14.707 12.5614 14.707Z" fill="black" fill-opacity="0.85"/>
 </g>
</svg>
