<?xml version="1.0" encoding="UTF-8"?>
<!--Generator: Apple Native CoreSVG 326-->
<!DOCTYPE svg
PUBLIC "-//W3C//DTD SVG 1.1//EN"
       "http://www.w3.org/Graphics/SVG/1.1/DTD/svg11.dtd">
<svg version="1.1" xmlns="http://www.w3.org/2000/svg" xmlns:xlink="http://www.w3.org/1999/xlink" viewBox="0 0 51.25 50.918">
 <g>
  <rect height="50.918" opacity="0" width="51.25" x="0" y="0"/>
  <path d="M50.8789 25.4688C50.8789 39.4922 39.4531 50.918 25.4297 50.918C11.4258 50.918 0 39.4922 0 25.4688C0 11.4648 11.4258 0.0390625 25.4297 0.0390625C39.4531 0.0390625 50.8789 11.4648 50.8789 25.4688ZM15.9766 14.2188C14.9609 14.668 14.4531 15.4102 14.4531 16.4258L14.4531 38.2031C14.4531 38.7695 14.9414 39.2773 15.5469 39.2773C16.1719 39.2773 16.6016 38.7891 16.6016 38.2031L16.6016 30.4297C17.1094 30.2148 18.1641 29.9023 19.8242 29.9023C24.4531 29.9023 27.3242 32.1875 31.8555 32.1875C33.75 32.1875 34.6094 31.9922 35.5859 31.543C36.6211 31.0352 37.1094 30.3711 37.1094 29.2969L37.1094 16.543C37.1094 15.8203 36.7188 15.3125 35.7812 15.3125C35.0391 15.3125 33.8867 15.8984 31.7188 15.8984C27.2852 15.8984 24.375 13.5547 19.6875 13.5547C17.7344 13.5547 16.875 13.8086 15.9766 14.2188ZM25.8594 16.6016L25.8594 20.5859C27.4609 21.0938 29.0039 21.4844 30.6836 21.6211L30.6836 17.6562C31.0352 17.6758 31.4062 17.6758 31.7773 17.6758C33.1055 17.6758 34.2578 17.5391 35.3125 17.2266L35.3125 21.2305C34.6484 21.3867 33.3398 21.6602 31.7773 21.6602C31.3867 21.6602 30.9766 21.6406 30.6836 21.6211L30.6836 25.9766C30.9766 25.9961 31.3477 26.0352 31.7773 26.0352C33.1055 26.0352 34.2578 25.8789 35.3125 25.5859L35.3125 29.2969C35.0977 29.7656 33.9648 30.3516 31.9336 30.3516C31.4844 30.3516 31.0547 30.332 30.6836 30.2344L30.6836 25.9766C28.9648 25.8203 27.5586 25.4883 25.8594 24.9219L25.8594 29.1211C24.3555 28.6719 22.793 28.2227 21.0156 28.0664L21.0156 23.8086C20.6055 23.7695 20.2734 23.7305 19.6484 23.7305C17.6367 23.7305 16.5039 24.2969 16.2891 24.7461L16.2891 20.3906C16.5039 19.9414 17.6562 19.375 19.6484 19.375C20.0781 19.375 20.5664 19.3945 21.0156 19.4531L21.0156 15.4492C22.7539 15.6055 24.2969 16.1133 25.8594 16.6016ZM21.0156 23.8086C22.793 23.9844 24.1406 24.4141 25.8594 24.9219L25.8594 20.5859C24.2383 20.0781 22.793 19.6289 21.0156 19.4531Z" fill="black" fill-opacity="0.85"/>
 </g>
</svg>
