<?xml version="1.0" encoding="UTF-8"?>
<!--Generator: Apple Native CoreSVG 326-->
<!DOCTYPE svg
PUBLIC "-//W3C//DTD SVG 1.1//EN"
       "http://www.w3.org/Graphics/SVG/1.1/DTD/svg11.dtd">
<svg version="1.1" xmlns="http://www.w3.org/2000/svg" xmlns:xlink="http://www.w3.org/1999/xlink" viewBox="0 0 51.25 50.918">
 <g>
  <rect height="50.918" opacity="0" width="51.25" x="0" y="0"/>
  <path d="M50.8789 25.4688C50.8789 39.4922 39.4531 50.918 25.4297 50.918C11.4258 50.918 0 39.4922 0 25.4688C0 11.4648 11.4258 0.0390625 25.4297 0.0390625C39.4531 0.0390625 50.8789 11.4648 50.8789 25.4688ZM18.4961 13.5156L18.4961 14.9414C18.4961 16.25 18.9648 17.207 19.668 18.2812L20.4883 19.5703C21.0547 20.4492 21.4258 21.5234 21.4258 23.125L21.4258 39.4922C21.4258 41.2695 22.3828 42.2461 24.082 42.2461L26.7773 42.2461C28.4961 42.2461 29.4531 41.2695 29.4531 39.4922L29.4531 23.125C29.4531 21.5234 29.7852 20.4492 30.3711 19.5703L31.1914 18.2812C31.9141 17.207 32.3633 16.25 32.3633 14.9414L32.3633 13.5156ZM27.9102 24.3945L27.9102 28.6133C27.9102 29.9609 26.8164 31.0742 25.4297 31.0742C24.0234 31.0742 22.9688 29.9609 22.9688 28.6133L22.9688 24.3945C22.9688 23.0078 24.0234 21.9336 25.4297 21.9336C26.8164 21.9336 27.9102 23.0078 27.9102 24.3945ZM23.8477 28.6133C23.8477 29.4922 24.5312 30.1953 25.4297 30.1953C26.3672 30.1953 27.0117 29.4922 27.0117 28.6133C27.0117 27.7148 26.3281 27.0117 25.4297 27.0117C24.5508 27.0117 23.8477 27.7148 23.8477 28.6133ZM21.1914 8.71094C19.3945 8.71094 18.4961 9.62891 18.4961 11.4453L18.4961 11.9922L32.3633 11.9922L32.3633 11.4453C32.3633 9.62891 31.4648 8.71094 29.6484 8.71094Z" fill="black" fill-opacity="0.85"/>
 </g>
</svg>
