<?xml version="1.0" encoding="UTF-8"?>
<!--Generator: Apple Native CoreSVG 326-->
<!DOCTYPE svg
PUBLIC "-//W3C//DTD SVG 1.1//EN"
       "http://www.w3.org/Graphics/SVG/1.1/DTD/svg11.dtd">
<svg version="1.1" xmlns="http://www.w3.org/2000/svg" xmlns:xlink="http://www.w3.org/1999/xlink" viewBox="0 0 71.8359 37.9492">
 <g>
  <rect height="37.9492" opacity="0" width="71.8359" x="0" y="0"/>
  <path d="M4.86328 34.7266C4.86328 36.9141 6.15234 37.9102 7.63672 37.9102C8.30078 37.9102 8.96484 37.7148 9.62891 37.3438L36.0938 21.8164C37.7539 20.8594 38.418 20.1172 38.418 18.9648C38.418 17.8125 37.7539 17.0508 36.0938 16.0938L9.62891 0.566406C8.96484 0.195312 8.30078 0 7.63672 0C6.15234 0 4.86328 1.01562 4.86328 3.20312ZM8.33984 33.1641L8.33984 4.74609C8.33984 4.41406 8.53516 4.19922 8.80859 4.19922C8.94531 4.19922 9.04297 4.23828 9.16016 4.29688L33.3789 18.5547C33.5938 18.6719 33.6719 18.8086 33.6719 18.9648C33.6719 19.1016 33.5938 19.2383 33.3789 19.3555L9.16016 33.6133C9.04297 33.6914 8.94531 33.7109 8.80859 33.7109C8.53516 33.7109 8.33984 33.4961 8.33984 33.1641ZM38.2812 34.7266C38.2812 36.9141 39.5703 37.9102 41.0547 37.9102C41.7188 37.9102 42.3828 37.7148 43.0469 37.3438L69.4922 21.8164C71.1719 20.8594 71.8359 20.1172 71.8359 18.9648C71.8359 17.8125 71.1719 17.0508 69.4922 16.0938L43.0469 0.566406C42.3828 0.195312 41.7188 0 41.0547 0C39.5703 0 38.2812 1.01562 38.2812 3.20312ZM41.7383 33.1641L41.7383 4.74609C41.7383 4.41406 41.9531 4.19922 42.2266 4.19922C42.3438 4.19922 42.4609 4.23828 42.5781 4.29688L66.7969 18.5547C66.9922 18.6719 67.0703 18.8086 67.0703 18.9648C67.0703 19.1016 66.9922 19.2383 66.7969 19.3555L42.5781 33.6133C42.4609 33.6914 42.3438 33.7109 42.2266 33.7109C41.9531 33.7109 41.7383 33.4961 41.7383 33.1641Z" fill="black" fill-opacity="0.85"/>
 </g>
</svg>
