<?xml version="1.0" encoding="UTF-8"?>
<!--Generator: Apple Native CoreSVG 326-->
<!DOCTYPE svg
PUBLIC "-//W3C//DTD SVG 1.1//EN"
       "http://www.w3.org/Graphics/SVG/1.1/DTD/svg11.dtd">
<svg version="1.1" xmlns="http://www.w3.org/2000/svg" xmlns:xlink="http://www.w3.org/1999/xlink" viewBox="0 0 46.2891 45.918">
 <g>
  <rect height="45.918" opacity="0" width="46.2891" x="0" y="0"/>
  <path d="M45.918 7.53906L45.918 38.3984C45.918 43.3594 43.3594 45.918 38.3008 45.918L7.59766 45.918C2.55859 45.918 0 43.3984 0 38.3984L0 7.53906C0 2.53906 2.55859 0 7.59766 0L38.3008 0C43.3594 0 45.918 2.55859 45.918 7.53906ZM18.75 11.6797C17.8711 11.6797 17.3438 12.207 17.3438 13.1055L17.3438 28.9258L14.8828 28.9258C14.4336 28.9258 14.1016 29.2773 14.1016 29.707C14.1016 30.1758 14.4336 30.4883 14.8828 30.4883L17.3438 30.4883L17.3438 33.418C17.3438 34.2383 17.9102 34.8242 18.7305 34.8242C19.5117 34.8242 20.0977 34.2383 20.0977 33.418L20.0977 30.4883L25.7617 30.4883C26.2109 30.4883 26.543 30.1758 26.543 29.707C26.543 29.2773 26.2109 28.9258 25.7617 28.9258L20.0977 28.9258L20.0977 24.1211L28.8086 24.1211C29.5117 24.1211 30.0391 23.6133 30.0391 22.9492C30.0391 22.2852 29.5117 21.7773 28.8086 21.7773L20.0977 21.7773L20.0977 14.0625L29.707 14.0625C30.4297 14.0625 30.957 13.5547 30.957 12.8906C30.957 12.1875 30.4297 11.6797 29.707 11.6797Z" fill="black" fill-opacity="0.85"/>
 </g>
</svg>
