<?xml version="1.0" encoding="UTF-8"?>
<!--Generator: Apple Native CoreSVG 326-->
<!DOCTYPE svg
PUBLIC "-//W3C//DTD SVG 1.1//EN"
       "http://www.w3.org/Graphics/SVG/1.1/DTD/svg11.dtd">
<svg version="1.1" xmlns="http://www.w3.org/2000/svg" xmlns:xlink="http://www.w3.org/1999/xlink" viewBox="0 0 81.4992 76.6211">
 <g>
  <rect height="76.6211" opacity="0" width="81.4992" x="0" y="0"/>
  <path d="M40.6617 10.2344C43.2789 10.5469 45.2906 11.8555 46.4039 14.9805L48.0244 19.5951C46.812 19.6282 45.6273 19.7741 44.4732 20.0133C44.553 19.7693 44.5402 19.4673 44.4312 19.1406L43.2203 15.6445C42.732 14.1406 41.9508 13.5938 40.6031 13.418C39.2359 13.2422 35.7789 13.1055 30.3687 13.1055C24.9586 13.1055 21.482 13.2422 20.1148 13.418C18.7867 13.5938 18.0055 14.1406 17.4977 15.6445L16.3062 19.1406C16.0133 19.9609 16.3453 20.625 17.2047 20.625L41.9053 20.625C37.7898 21.7775 34.049 23.8634 30.9266 26.6406L25.9547 26.6406C25.0953 26.6406 24.5289 27.207 24.5289 28.125L24.5289 30.2344C24.5289 31.1914 25.0953 31.7578 25.9547 31.7578L26.3197 31.7578C24.5726 34.2068 23.2177 36.9471 22.3377 39.8828L15.2125 39.8828L15.2125 42.4805C15.2125 43.8672 14.1383 44.9609 12.732 44.9609L10.525 44.9609C9.11875 44.9609 8.04453 43.8672 8.04453 42.4805L8.04453 30.1562C8.04453 26.875 8.5914 25.0195 10.4273 22.9492L12.2828 20.8203L14.3336 14.9805C15.4273 11.8555 17.4586 10.5469 20.0758 10.2344C21.3648 10.0781 25.6031 9.98047 30.3687 9.98047C35.1148 9.98047 39.3727 10.0781 40.6617 10.2344ZM12.7711 27.6758L12.7711 30.7031C12.7711 31.7969 13.5719 32.6172 14.7047 32.6172C15.7984 32.6172 16.5992 31.8164 16.5992 30.7031L16.5992 27.6758C16.5992 26.5625 15.7984 25.7812 14.7047 25.7812C13.5719 25.7812 12.7711 26.582 12.7711 27.6758Z" fill="black" fill-opacity="0.85"/>
  <path d="M75.0562 48.0664C75.0562 34.1602 63.5719 22.6367 49.6461 22.6367C35.7203 22.6367 24.2359 34.1602 24.2359 48.0664C24.2359 54.6875 26.8141 60.7422 31.0328 65.293C31.9703 66.3281 33.5914 66.582 34.8609 65.3125L38.8453 61.3672C39.5289 60.7031 39.5094 59.5898 38.8453 58.9062C38.1812 58.2422 37.0484 58.2422 36.3844 58.9062L33.1031 62.2266C29.8414 58.418 27.8883 53.4961 27.8883 48.0664C27.8883 35.9961 37.5758 26.2695 49.6461 26.2695C61.7164 26.2695 71.4039 35.9961 71.4039 48.0664C71.4039 53.4961 69.4508 58.418 66.1891 62.2266L62.9078 58.9062C62.2437 58.2422 61.1109 58.2422 60.4469 58.9062C59.7828 59.5898 59.7633 60.7031 60.4469 61.3672L64.4312 65.3125C65.7008 66.582 67.3023 66.3281 68.2594 65.293C72.4781 60.7422 75.0562 54.6875 75.0562 48.0664ZM66.6773 46.3477C65.7203 46.3477 64.9391 47.1289 64.9391 48.0664C64.9391 49.0234 65.7203 49.8047 66.6773 49.8047L73.2398 49.8047L73.2398 46.3477ZM51.3844 30.9961L51.3844 24.4531L47.9078 24.4531L47.9078 30.9961C47.9078 31.9531 48.6891 32.7344 49.6461 32.7344C50.5836 32.7344 51.3844 31.9531 51.3844 30.9961ZM38.7867 34.7852L34.1383 30.1367L31.6969 32.5977L36.3258 37.2266C36.9898 37.9102 38.1227 37.8906 38.7867 37.2266C39.4508 36.5625 39.4508 35.4492 38.7867 34.7852ZM32.5562 46.3477L25.9937 46.3477L25.9937 49.8047L32.5562 49.8047C33.5133 49.8047 34.2945 49.0234 34.2945 48.0664C34.2945 47.1289 33.5133 46.3477 32.5562 46.3477Z" fill="black" fill-opacity="0.85"/>
  <path d="M46.482 51.0938C48.025 52.6367 50.2711 52.6367 51.8141 51.0938C52.0875 50.8203 52.4977 50.2344 52.7711 49.8828L61.4625 37.5781C61.8336 37.0508 61.7555 36.5234 61.4039 36.1719C61.0523 35.8398 60.525 35.7422 59.9977 36.1133L47.693 44.8242C47.3414 45.0781 46.7555 45.5078 46.482 45.7812C44.9586 47.3047 44.9586 49.5703 46.482 51.0938Z" fill="black" fill-opacity="0.85"/>
  <path d="M73.8844 16.6797C73.0836 15.8594 72.107 16.3672 71.9117 17.3242L70.0172 26.2305C69.7828 27.2656 70.4859 27.9883 71.5406 27.7539L80.4664 25.8789C81.4234 25.6836 81.8922 24.707 81.0914 23.8867Z" fill="black" fill-opacity="0.85"/>
 </g>
</svg>
