<?xml version="1.0" encoding="UTF-8"?>
<!--Generator: Apple Native CoreSVG 326-->
<!DOCTYPE svg
PUBLIC "-//W3C//DTD SVG 1.1//EN"
       "http://www.w3.org/Graphics/SVG/1.1/DTD/svg11.dtd">
<svg version="1.1" xmlns="http://www.w3.org/2000/svg" xmlns:xlink="http://www.w3.org/1999/xlink" viewBox="0 0 48.3789 54.1992">
 <g>
  <rect height="54.1992" opacity="0" width="48.3789" x="0" y="0"/>
  <path d="M10.7031 51.9922L37.3047 51.9922C41.7578 51.9922 44.2578 49.5703 44.2578 45.1172L44.2578 28.9258L44.5898 28.9258C46.7773 28.5547 48.0078 26.8359 48.0078 24.375L48.0078 18.0469C48.0078 15.1953 46.4062 13.3594 43.5156 13.3594L37.6562 13.3594C39.1602 12.0508 40.0391 10.1758 40.0391 7.94922C40.0391 3.28125 36.3867 0 31.6797 0C28.1055 0 25.2344 1.99219 24.0039 5.42969C22.7734 1.99219 19.9023 0 16.3281 0C11.6211 0 7.96875 3.28125 7.96875 7.94922C7.96875 10.1758 8.84766 12.0508 10.3516 13.3594L4.49219 13.3594C1.71875 13.3594 0 15.1953 0 18.0469L0 24.375C0 26.8359 1.23047 28.5547 3.41797 28.9258L3.75 28.9258L3.75 45.1172C3.75 49.5703 6.25 51.9922 10.7031 51.9922ZM21.8945 48.75L10.6836 48.75C8.45703 48.75 7.20703 47.5195 7.20703 45.2734L7.20703 29.0625L21.8945 29.0625ZM26.1133 48.75L26.1133 29.0625L40.8008 29.0625L40.8008 45.2734C40.8008 47.5195 39.5508 48.75 37.3242 48.75ZM21.8945 25.8008L5.29297 25.8008C4.02344 25.8008 3.45703 25.1953 3.45703 23.9062L3.45703 18.4766C3.45703 17.207 4.02344 16.6211 5.29297 16.6211L21.8945 16.6211ZM26.1133 25.8008L26.1133 16.6211L42.7344 16.6211C44.0039 16.6211 44.5508 17.207 44.5508 18.4766L44.5508 23.9062C44.5508 25.1953 44.0039 25.8008 42.7344 25.8008ZM22.0703 13.3594L18.4375 13.3594C14.3164 13.3594 11.8359 11.0938 11.8359 8.125C11.8359 5.42969 13.7891 3.82812 16.5234 3.82812C19.668 3.82812 22.0703 6.25 22.0703 10.1367ZM25.9375 13.3594L25.9375 10.1367C25.9375 6.25 28.3398 3.82812 31.4844 3.82812C34.2188 3.82812 36.1719 5.42969 36.1719 8.125C36.1719 11.0938 33.6914 13.3594 29.5703 13.3594Z" fill="black" fill-opacity="0.85"/>
 </g>
</svg>
