<?xml version="1.0" encoding="UTF-8"?>
<!--Generator: Apple Native CoreSVG 326-->
<!DOCTYPE svg
PUBLIC "-//W3C//DTD SVG 1.1//EN"
       "http://www.w3.org/Graphics/SVG/1.1/DTD/svg11.dtd">
<svg version="1.1" xmlns="http://www.w3.org/2000/svg" xmlns:xlink="http://www.w3.org/1999/xlink" viewBox="0 0 55.5273 53.1055">
 <g>
  <rect height="53.1055" opacity="0" width="55.5273" x="0" y="0"/>
  <path d="M3.06641 47.6758L52.0898 47.6758L52.0898 46.1719C52.0898 45.332 51.582 44.8242 50.7227 44.8242L49.1211 44.8242L49.1211 16.6797L51.3867 16.6797C52.5781 16.6797 53.2422 15.8398 53.2422 14.9609C53.2422 14.3164 52.8906 13.75 52.1094 13.3008L30.5273 0.839844C29.5703 0.292969 28.5547 0 27.5781 0C26.6016 0 25.5664 0.292969 24.6289 0.839844L3.04688 13.3008C2.24609 13.75 1.91406 14.3164 1.91406 14.9609C1.91406 15.8398 2.57812 16.6797 3.76953 16.6797L6.05469 16.6797L6.05469 44.8242L4.45312 44.8242C3.57422 44.8242 3.06641 45.332 3.06641 46.1719ZM9.31641 44.8242L9.31641 13.7109L26.4453 4.0625C26.7773 3.86719 27.1875 3.75 27.5781 3.75C27.9492 3.75 28.3398 3.86719 28.7109 4.0625L45.8594 13.7109L45.8594 44.8242ZM1.73828 53.0664L53.418 53.0664C54.375 53.0664 55.1562 52.2852 55.1562 51.3477C55.1562 50.3906 54.375 49.6094 53.418 49.6094L1.73828 49.6094C0.78125 49.6094 0 50.3906 0 51.3477C0 52.2852 0.78125 53.0664 1.73828 53.0664Z" fill="black" fill-opacity="0.85"/>
  <path d="M27.7734 37.3828C33.1445 37.3828 36.4062 34.1602 36.4062 28.4961L36.4062 27.3242C36.4062 26.4844 35.8789 25.957 35.0977 25.957L28.2227 25.957L28.2227 28.0664L33.8867 28.0664L33.8867 29.0625C33.8867 32.6367 31.6797 35.1172 27.793 35.1172C23.125 35.1172 20.8203 31.1328 20.8203 26.25C20.8203 21.6797 22.9297 17.5 27.7539 17.5C30.5078 17.5 32.9297 19.1211 33.5938 21.5234C33.8477 22.207 34.1406 22.5 34.8633 22.5C35.5469 22.5 36.0156 22.0508 36.0156 21.3477C36.0156 21.0352 35.9766 20.6641 35.8008 20.2539C34.5898 16.8945 31.0742 15.2344 27.7539 15.2344C21.4648 15.2344 18.1055 20.0391 18.1055 26.2695C18.1055 32.6953 21.6211 37.3828 27.7734 37.3828ZM27.6562 40.332C28.1055 40.332 28.418 40.0195 28.418 39.5703L28.418 13.1445C28.418 12.6758 28.1055 12.3438 27.6562 12.3438C27.1875 12.3438 26.875 12.6758 26.875 13.1445L26.875 39.5703C26.875 40.0195 27.1875 40.332 27.6562 40.332Z" fill="black" fill-opacity="0.85"/>
 </g>
</svg>
