<?xml version="1.0" encoding="UTF-8"?>
<!--Generator: Apple Native CoreSVG 326-->
<!DOCTYPE svg
PUBLIC "-//W3C//DTD SVG 1.1//EN"
       "http://www.w3.org/Graphics/SVG/1.1/DTD/svg11.dtd">
<svg version="1.1" xmlns="http://www.w3.org/2000/svg" xmlns:xlink="http://www.w3.org/1999/xlink" viewBox="0 0 61.6508 58.094">
 <g>
  <rect height="58.094" opacity="0" width="61.6508" x="0" y="0"/>
  <path d="M1.49922 52.0646L5.77657 56.381C7.96407 58.5685 10.3469 58.4123 12.6906 55.8537L40.2102 25.5802L38.0422 23.4123L10.6984 53.4513C9.66329 54.6232 8.68672 54.838 7.45626 53.6076L4.25313 50.424C3.02266 49.1935 3.25704 48.2169 4.42891 47.1623L34.0578 19.4474L31.8703 17.2794L2.00704 45.1896C-0.473432 47.5138-0.668744 49.8771 1.49922 52.0646ZM18.1398 5.28725C17.1047 6.30288 17.0461 7.6896 17.632 8.64663C18.1789 9.46694 19.2727 10.0138 20.7766 9.66225C24.7805 8.78335 28.7648 8.68569 32.4563 11.2052L30.8156 15.1115C29.9953 17.1427 30.4055 18.6076 31.7336 19.9357L37.6516 25.9123C38.8234 27.0646 39.8 27.1427 41.2258 26.8888L44.0969 26.3615L46.0109 28.2755L45.9133 29.7013C45.8547 31.049 46.1086 31.9669 47.3586 33.1974L49.3313 35.131C50.4445 36.2443 51.8313 36.3029 52.925 35.2091L60.5031 27.6115C61.5969 26.4982 61.5383 25.1896 60.4445 24.0763L58.4523 22.0841C57.2023 20.8732 56.3234 20.5216 55.0148 20.6193L53.5305 20.7365L51.675 18.881L52.3 16.0099C52.6125 14.506 52.2219 13.3537 50.7766 11.9083L45.1711 6.34194C36.8508-1.93931 25.3664-1.91978 18.1398 5.28725ZM21.382 6.22475C27.632 1.30288 36.6945 2.27944 42.4172 8.0021L48.5695 14.1349C49.2531 14.799 49.3898 15.3458 49.1945 16.3029L48.4133 20.0333L52.2023 23.7833L54.6633 23.6466C55.3469 23.6076 55.6398 23.6857 56.1672 24.2326L57.8273 25.8732L51.1477 32.5333L49.507 30.8927C48.9797 30.3458 48.882 30.0724 48.9016 29.3498L49.0773 26.9083L45.3273 23.1388L41.4797 23.8224C40.5617 23.9982 40.093 23.9005 39.4094 23.2169L34.2922 18.1193C33.5695 17.3966 33.4719 16.8693 33.9211 15.8146L36.1672 10.5216C32.2023 6.90835 27.1242 5.40444 21.6555 6.86928C21.1867 6.96694 20.9914 6.57632 21.382 6.22475Z" fill="black" fill-opacity="0.85"/>
 </g>
</svg>
