<?xml version="1.0" encoding="UTF-8"?>
<!--Generator: Apple Native CoreSVG 326-->
<!DOCTYPE svg
PUBLIC "-//W3C//DTD SVG 1.1//EN"
       "http://www.w3.org/Graphics/SVG/1.1/DTD/svg11.dtd">
<svg version="1.1" xmlns="http://www.w3.org/2000/svg" xmlns:xlink="http://www.w3.org/1999/xlink" viewBox="0 0 57.9199 58.042">
 <g>
  <rect height="58.042" opacity="0" width="57.9199" x="0" y="0"/>
  <path d="M13.6768 24.5668L13.6768 36.1011C13.6768 46.3159 19.2822 51.9019 28.0518 51.9019C31.8429 51.9019 35.1455 50.9135 37.8422 48.7111L39.9255 50.7926C36.7911 53.5243 32.8426 54.9097 28.1494 54.9097C17.876 54.9097 10.7861 48.1323 10.7861 36.4136L10.7861 21.6787ZM33.1689 5.0464C33.8721 4.34327 34.8096 3.97218 35.8447 3.97218C38.4814 3.97218 40.2588 5.74952 40.2588 8.60108L40.2588 29.5972C40.2588 29.7339 40.3174 29.8316 40.4541 29.8316C40.5518 29.8316 40.6299 29.773 40.6689 29.6362L42.6416 24.7925C43.4619 22.8198 44.9854 21.8042 46.665 21.8042C49.126 21.8042 51.04 23.6011 51.04 26.1401C51.04 26.8628 50.9033 27.6245 50.6299 28.4448L46.0986 41.1597C45.797 42.0131 45.4696 42.8277 45.1082 43.5903L42.9596 41.4427C43.1296 41.0474 43.2893 40.6315 43.4424 40.2026L48.0713 27.1753C48.5596 25.8667 48.2275 24.8316 47.1729 24.4605C46.1768 24.0894 45.1807 24.5191 44.6729 25.73L41.1377 33.7769C40.6299 34.9292 39.9268 35.3198 39.0674 35.3198C38.0713 35.3198 37.3486 34.6362 37.3486 33.4644L37.3486 8.81593C37.3486 7.60499 36.6064 6.78468 35.4736 6.78468C34.3213 6.78468 33.5205 7.60499 33.5205 8.81593L33.5205 26.687C33.5205 27.4683 32.8955 28.0737 32.1143 28.0737C31.333 28.0737 30.7275 27.4683 30.7275 26.687L30.7275 5.76905C30.7275 4.55812 29.9658 3.67921 28.8525 3.67921C27.7002 3.67921 26.8994 4.55812 26.8994 5.76905L26.8994 25.3895L24.126 22.6172L24.126 8.81593C24.126 7.60499 23.3057 6.78468 22.1533 6.78468C21.001 6.78468 20.2979 7.60499 20.2979 8.81593L20.2979 18.7908L17.5049 15.999L17.5049 15.2222C17.5049 14.0112 16.6846 13.1714 15.5518 13.1714C15.2796 13.1714 15.0313 13.2183 14.8119 13.3073L12.576 11.0723C13.249 10.5999 14.0827 10.3394 15.0244 10.3394C16.0791 10.3394 17.1143 10.7105 17.7783 11.4526L17.7783 8.46437C17.7783 5.72999 19.4775 3.97218 21.958 3.97218C22.915 3.97218 23.8135 4.32374 24.4775 5.00733C24.7705 2.56593 26.4502 0.886241 28.8525 0.886241C31.3135 0.886241 32.8955 2.50733 33.1689 5.0464ZM18.3866 29.2726C18.0378 29.1412 17.7433 28.8675 17.6008 28.4874Z" fill="black" fill-opacity="0.85"/>
  <path d="M47.8174 54.8511C48.4619 55.4761 49.5557 55.4956 50.1807 54.8511C50.8252 54.187 50.8252 53.1519 50.1807 52.4878L5.57129 7.89796C4.92676 7.25343 3.85254 7.2339 3.18848 7.89796C2.56348 8.54249 2.56348 9.61671 3.18848 10.2612Z" fill="black" fill-opacity="0.85"/>
 </g>
</svg>
