<?xml version="1.0" encoding="UTF-8"?>
<!--Generator: Apple Native CoreSVG 326-->
<!DOCTYPE svg
PUBLIC "-//W3C//DTD SVG 1.1//EN"
       "http://www.w3.org/Graphics/SVG/1.1/DTD/svg11.dtd">
<svg version="1.1" xmlns="http://www.w3.org/2000/svg" xmlns:xlink="http://www.w3.org/1999/xlink" viewBox="0 0 57.9199 58.042">
 <g>
  <rect height="58.042" opacity="0" width="57.9199" x="0" y="0"/>
  <path d="M16.2158 27.1036L16.2158 28.7964C16.5419 28.57 16.8847 28.3478 17.2471 28.134L39.828 50.6951C36.8398 53.472 32.9775 54.812 28.0713 54.812C18.3252 54.812 11.0596 48.4839 11.0596 37.312L11.0596 21.9519ZM31.4697 4.1089L31.4697 25.73C32.3096 25.8862 33.0908 26.1206 33.7939 26.3941L33.7939 7.99562C33.7939 6.58937 34.9658 5.41749 36.3721 5.41749C37.7979 5.41749 38.9502 6.58937 38.9502 7.99562L38.9502 33.855C38.9502 34.8706 39.3799 35.2222 39.9658 35.2222C40.4346 35.2222 40.9033 34.9097 41.2939 34.0112L44.6924 26.5308C45.708 24.4019 46.626 23.5425 48.0518 23.5425C49.3994 23.5425 50.376 24.3823 50.376 25.7105C50.376 26.7261 49.6338 28.9331 49.0674 30.73C47.6979 35.412 46.3636 39.5855 44.7282 43.2105L26.3135 24.8038L26.3135 4.1089C26.3135 2.70265 27.4658 1.53077 28.8916 1.53077C30.2979 1.53077 31.4697 2.70265 31.4697 4.1089ZM23.7354 6.41358L23.7354 22.2268L18.5791 17.0728L18.5791 6.41358C18.5791 5.00733 19.751 3.85499 21.1572 3.85499C22.583 3.85499 23.7354 5.00733 23.7354 6.41358ZM16.2158 14.2066L16.2158 14.7105L13.1771 11.6731C13.3264 11.6431 13.4806 11.6284 13.6377 11.6284C15.0439 11.6284 16.2158 12.8003 16.2158 14.2066Z" fill="black" fill-opacity="0.85"/>
  <path d="M47.8174 54.8511C48.4619 55.4761 49.5557 55.4956 50.1807 54.8511C50.8252 54.187 50.8252 53.1519 50.1807 52.4878L5.57129 7.89796C4.92676 7.25343 3.85254 7.2339 3.18848 7.89796C2.56348 8.54249 2.56348 9.61671 3.18848 10.2612Z" fill="black" fill-opacity="0.85"/>
 </g>
</svg>
