<?xml version="1.0" encoding="UTF-8"?>
<!--Generator: Apple Native CoreSVG 326-->
<!DOCTYPE svg
PUBLIC "-//W3C//DTD SVG 1.1//EN"
       "http://www.w3.org/Graphics/SVG/1.1/DTD/svg11.dtd">
<svg version="1.1" xmlns="http://www.w3.org/2000/svg" xmlns:xlink="http://www.w3.org/1999/xlink" viewBox="0 0 57.2852 69.8633">
 <g>
  <rect height="69.8633" opacity="0" width="57.2852" x="0" y="0"/>
  <path d="M7.59766 52.3438C8.67188 57.1875 8.49609 57.3438 13.6328 58.3984C13.9648 58.457 14.1406 58.6133 14.1406 58.9453C14.1406 59.2578 13.9648 59.4141 13.6328 59.4922C8.47656 60.4492 8.45703 60.6055 7.59766 65.5273C7.53906 65.8398 7.38281 65.9961 7.07031 65.9961C6.77734 65.9961 6.60156 65.8398 6.52344 65.5273C5.64453 60.6055 5.68359 60.5273 0.507812 59.4922C0.195312 59.4141 0 59.2578 0 58.9453C0 58.6133 0.195312 58.457 0.507812 58.3984C5.68359 57.3438 5.46875 57.1875 6.52344 52.3438C6.60156 52.0312 6.77734 51.875 7.07031 51.875C7.38281 51.875 7.53906 52.0312 7.59766 52.3438ZM37.4609 1.69922C38.2617 7.75391 38.4961 7.65625 44.6875 8.86719C45.0391 8.92578 45.2734 9.16016 45.2734 9.51172C45.2734 9.88281 45.0391 10.0977 44.6094 10.1562C38.457 11.2109 38.2617 11.2891 37.4609 17.3242C37.4219 17.7148 37.168 17.9492 36.7969 17.9492C36.4844 17.9492 36.2109 17.7148 36.1719 17.3633C35.3125 11.3086 35.2148 11.3672 28.9453 10.1562C28.6133 10.0977 28.3594 9.86328 28.3594 9.51172C28.3594 9.16016 28.6133 8.90625 28.9453 8.86719C35.2148 7.89062 35.332 7.79297 36.1719 1.67969C36.2109 1.30859 36.4844 1.07422 36.7969 1.07422C37.168 1.07422 37.4219 1.30859 37.4609 1.69922ZM20.5273 0.429688C21.3672 4.23828 21.2305 4.33594 25.1953 5.11719C25.5078 5.19531 25.6641 5.35156 25.6641 5.64453C25.6641 5.91797 25.5078 6.07422 25.1953 6.15234C21.2109 6.875 21.1914 6.95312 20.5273 10.8594C20.4492 11.1328 20.2734 11.2695 20.0195 11.2695C19.7656 11.2695 19.5703 11.1133 19.5312 10.8594C18.8281 6.95312 18.8477 6.93359 14.8438 6.15234C14.5312 6.07422 14.375 5.89844 14.375 5.64453C14.375 5.37109 14.5312 5.19531 14.8438 5.11719C18.8477 4.33594 18.6719 4.23828 19.5312 0.429688C19.5703 0.175781 19.7656 0 20.0195 0C20.293 0 20.4492 0.15625 20.5273 0.429688Z" fill="black" fill-opacity="0.85"/>
  <path d="M47.3047 20.2734C47.8125 20.7812 48.2617 21.4062 48.6133 22.1875L54.4141 34.375C58.5547 43.0664 57.5586 50.7031 51.4453 56.7969C48.4056 59.8448 44.9121 61.6554 41.2671 62.0992C42.6063 61.3061 43.8879 60.2918 45.0977 59.082C45.9698 58.2098 46.7379 57.307 47.3895 56.3715C48.0303 55.9016 48.6524 55.3535 49.2578 54.7461C54.2578 49.7656 55.6055 43.5352 51.8555 35.6055L45.9375 23.1055C45.332 21.8555 44.3945 21.3477 43.3594 21.8164C42.4023 22.2656 42.0117 23.2812 42.5 24.4922L43.457 26.943L42.2852 24.4727C41.9141 23.6914 41.4648 23.0469 40.957 22.5391C40.708 22.29 40.4431 22.0773 40.1658 21.9041C40.3576 21.303 40.6873 20.7654 41.1328 20.3125C42.8906 18.5547 45.5078 18.4766 47.3047 20.2734ZM27.2656 15.5078L34.5831 22.8157C33.8613 23.6518 33.5116 24.7579 33.6546 25.9983L25.3711 17.7148C24.5117 16.8555 23.3984 16.7969 22.5977 17.5977C22.2246 17.9707 22.0253 18.4083 22.0015 18.8556L20.918 17.7734C20.5919 17.4474 20.253 17.1742 19.9052 16.9588C20.0851 16.3683 20.4186 15.8243 20.8789 15.3516C22.7539 13.4766 25.2539 13.4961 27.2656 15.5078ZM14.5312 17.6367C13.8086 18.3594 13.3984 19.2773 13.3984 20.2734C13.1635 20.0846 12.9248 19.9177 12.6833 19.775C12.8891 19.1773 13.2443 18.6111 13.75 18.1055C14.1686 17.6868 14.6179 17.3701 15.087 17.1558C14.8957 17.2952 14.7106 17.4574 14.5312 17.6367Z" fill="black" fill-opacity="0.85"/>
  <path d="M45.0977 59.082C51.2109 52.9688 52.207 45.3516 48.0664 36.6602L42.2852 24.4727C41.9141 23.6914 41.4648 23.0469 40.957 22.5391C39.1602 20.7422 36.543 20.8398 34.7852 22.5977C33.6133 23.7695 33.2422 25.5664 34.0625 27.5391L36.0938 32.3633C36.1523 32.4805 36.1328 32.5781 36.0742 32.6562C35.9766 32.7344 35.8594 32.7148 35.7812 32.6172L20.918 17.7734C18.9062 15.7617 16.4062 15.7617 14.5312 17.6367C13.8086 18.3594 13.3984 19.2773 13.3984 20.2734C11.4062 18.6719 9.14062 18.6523 7.40234 20.3906C5.70312 22.0898 5.70312 24.4531 7.22656 26.3867C6.26953 26.3672 5.39062 26.7773 4.72656 27.4414C2.94922 29.1992 3.00781 31.6406 4.94141 33.5742L7.03125 35.6836C6.03516 35.6445 5.05859 36.0938 4.29688 36.8359C2.53906 38.6133 2.61719 41.1328 4.57031 43.0859L19.7461 58.2812C28.0273 66.5625 37.8516 66.3281 45.0977 59.082ZM42.9102 57.0312C36.7188 63.2227 28.7891 63.2422 21.5625 56.0156L6.79688 41.25C5.9375 40.3906 5.85938 39.2969 6.67969 38.4766C7.5 37.6758 8.65234 37.6758 9.51172 38.5352L18.5156 47.5391C19.1406 48.1641 19.9805 48.0859 20.4883 47.5781C21.0156 47.0508 21.1133 46.1914 20.4883 45.5664L6.95312 32.0508C6.09375 31.1914 6.01562 30.0977 6.83594 29.2773C7.65625 28.4766 8.80859 28.4766 9.66797 29.3359L22.2852 41.9531C22.9102 42.5781 23.75 42.5 24.2578 41.9922C24.7852 41.4648 24.8828 40.6055 24.2578 39.9805L9.49219 25.2148C8.63281 24.3555 8.57422 23.1836 9.375 22.3633C10.1758 21.582 11.3281 21.6602 12.1875 22.5L26.9727 37.2852C27.5195 37.8516 28.3789 37.8516 28.9258 37.3047C29.4922 36.7578 29.4922 35.8789 28.9453 35.3125L16.3086 22.6953C15.4688 21.8359 15.4297 20.6836 16.25 19.8633C17.0508 19.0625 18.1641 19.1211 19.0234 19.9805L36.4453 37.4023C37.2852 38.2422 38.2617 38.2031 38.9648 37.5C39.5703 36.9141 39.8047 36.1328 39.3555 34.9609L36.1523 26.7773C35.6641 25.5469 36.0547 24.5312 37.0117 24.1016C38.0469 23.6133 38.9844 24.1211 39.5898 25.3711L45.5273 37.8711C49.2578 45.8008 47.9102 52.0312 42.9102 57.0312Z" fill="black" fill-opacity="0.85"/>
 </g>
</svg>
