<?xml version="1.0" encoding="UTF-8"?>
<!--Generator: Apple Native CoreSVG 326-->
<!DOCTYPE svg
PUBLIC "-//W3C//DTD SVG 1.1//EN"
       "http://www.w3.org/Graphics/SVG/1.1/DTD/svg11.dtd">
<svg version="1.1" xmlns="http://www.w3.org/2000/svg" xmlns:xlink="http://www.w3.org/1999/xlink" viewBox="0 0 58.9161 52.6483">
 <g>
  <rect height="52.6483" opacity="0" width="58.9161" x="0" y="0"/>
  <path d="M15.0049 8.81438L15.798 10.9874C8.55393 15.9653 5.63607 23.0902 5.49322 30.9824C5.47369 31.7636 4.92682 32.3886 4.14557 32.3886C3.32525 32.3886 2.73932 31.705 2.73932 30.9238C2.73932 21.8926 6.5193 13.5143 14.821 8.22255Z" fill="black" fill-opacity="0.85"/>
  <path d="M44.6729 48.3847C54.8096 44.6933 58.1885 36.4902 54.1651 25.4355L52.5831 21.0995C51.0792 16.9784 48.169 15.1816 45.9034 16.0019C45.376 16.1777 45.2198 16.5488 45.3956 17.037L46.1573 19.1464C46.4698 20.0058 46.1768 20.5917 45.669 20.787C45.1026 20.9824 44.5167 20.7089 44.2042 19.8495L43.6963 18.4433C42.7979 16.0019 40.6495 14.9667 38.5206 15.7284C37.5635 16.0995 37.2706 16.6464 37.5831 17.4472L38.5987 20.2792C38.9112 21.1386 38.6378 21.7245 38.1104 21.9199C37.5635 22.1152 36.9581 21.8417 36.6456 20.9824L35.7081 18.3847C34.6924 15.6308 32.6221 14.9081 30.5713 15.6503C29.6534 15.9824 29.3409 16.5878 29.6143 17.3691L31.6065 22.8378C31.919 23.6777 31.626 24.2831 31.1182 24.4589C30.5713 24.6738 29.9659 24.4003 29.6534 23.5409L23.2081 5.84563C22.5831 4.08782 21.0401 3.36517 19.5557 3.91204C17.9932 4.47845 17.3096 6.00188 17.9542 7.7597L27.2315 33.287C27.4659 33.8925 27.1924 34.3808 26.7628 34.5175C26.3917 34.6542 26.001 34.5566 25.4932 34.0292L19.087 27.1933C18.1104 26.1581 17.1338 25.9433 16.0987 26.3144C14.4776 26.9003 13.8917 28.3847 14.3799 29.7324C14.5753 30.2402 14.8487 30.6503 15.1221 31.0019L23.1885 41.1777C29.6143 49.2636 37.2706 51.08 44.6729 48.3847Z" fill="black" fill-opacity="0.85"/>
 </g>
</svg>
