<?xml version="1.0" encoding="UTF-8"?>
<!--Generator: Apple Native CoreSVG 326-->
<!DOCTYPE svg
PUBLIC "-//W3C//DTD SVG 1.1//EN"
       "http://www.w3.org/Graphics/SVG/1.1/DTD/svg11.dtd">
<svg version="1.1" xmlns="http://www.w3.org/2000/svg" xmlns:xlink="http://www.w3.org/1999/xlink" viewBox="0 0 50.1172 55.8496">
 <g>
  <rect height="55.8496" opacity="0" width="50.1172" x="0" y="0"/>
  <path d="M47.0703 43.8135C48.75 42.8369 49.7461 41.1377 49.7461 39.165L49.7461 16.6455C49.7461 14.6924 48.75 12.9736 47.0703 11.9971L27.5586 0.74707C25.8594-0.249023 23.9062-0.249023 22.1875 0.74707L2.69531 11.9971C0.996094 12.9736 0 14.6924 0 16.6455L0 39.165C0 41.1377 0.996094 42.8369 2.69531 43.8135L22.1875 55.1025C23.9062 56.0986 25.8594 56.0986 27.5586 55.1025ZM24.8828 52.2314C24.375 52.2314 23.8867 52.0947 23.457 51.8408L4.86328 41.0596C3.98438 40.5518 3.45703 39.6533 3.45703 38.6377L3.45703 17.1729C3.45703 16.1572 3.98438 15.2783 4.86328 14.751L23.4766 3.98926C23.9062 3.73535 24.3945 3.59863 24.8828 3.59863Z" fill="black" fill-opacity="0.85"/>
 </g>
</svg>
