<?xml version="1.0" encoding="UTF-8"?>
<!--Generator: Apple Native CoreSVG 326-->
<!DOCTYPE svg
PUBLIC "-//W3C//DTD SVG 1.1//EN"
       "http://www.w3.org/Graphics/SVG/1.1/DTD/svg11.dtd">
<svg version="1.1" xmlns="http://www.w3.org/2000/svg" xmlns:xlink="http://www.w3.org/1999/xlink" viewBox="0 0 51.25 50.918">
 <g>
  <rect height="50.918" opacity="0" width="51.25" x="0" y="0"/>
  <path d="M50.8789 25.4492C50.8789 39.4531 39.4531 50.8789 25.4297 50.8789C11.4258 50.8789 0 39.4531 0 25.4492C0 11.4258 11.4258 0 25.4297 0C39.4531 0 50.8789 11.4258 50.8789 25.4492ZM25.4297 29.1602C19.5508 29.1602 14.1016 27.6172 11.4844 24.9609L11.4844 28.125C11.4844 32.4219 17.5 35.918 25.4297 35.918C33.3398 35.918 39.375 32.4219 39.375 28.125L39.375 24.9609C36.7773 27.6172 31.3281 29.1602 25.4297 29.1602ZM11.4844 21.1328C11.4844 24.6484 17.6172 27.4219 25.4297 27.4219C33.2422 27.4219 39.375 24.6484 39.375 21.1328C39.375 17.6758 33.2422 14.9609 25.4297 14.9609C17.6172 14.9609 11.4844 17.6758 11.4844 21.1328Z" fill="black" fill-opacity="0.85"/>
 </g>
</svg>
