<?xml version="1.0" encoding="UTF-8"?>
<!--Generator: Apple Native CoreSVG 326-->
<!DOCTYPE svg
PUBLIC "-//W3C//DTD SVG 1.1//EN"
       "http://www.w3.org/Graphics/SVG/1.1/DTD/svg11.dtd">
<svg version="1.1" xmlns="http://www.w3.org/2000/svg" xmlns:xlink="http://www.w3.org/1999/xlink" viewBox="0 0 59.3457 65.7813">
 <g>
  <rect height="65.7813" opacity="0" width="59.3457" x="0" y="0"/>
  <path d="M11.5474 25.1535L10.5322 26.0055L10.5322 52.92C10.5322 54.6973 11.4307 55.6153 13.208 55.6153L42.0453 55.6153L45.5064 59.0723L12.4658 59.0723C9.02832 59.0723 7.0752 57.1582 7.0752 53.7598L7.0752 28.907L3.36426 32.0215C2.93457 32.3926 2.46582 32.7051 1.86035 32.7051C0.708008 32.7051 0.00488281 31.8653 0.00488281 31.0059C0.00488281 30.4786 0.219727 29.9707 0.727539 29.5606L9.00369 22.6129ZM32.29 7.80277L46.1377 19.419L46.1377 14.209C46.1377 13.2325 46.8018 12.6075 47.7588 12.6075L50.2588 12.6075C51.2158 12.6075 51.8604 13.2325 51.8604 14.209L51.8604 24.2194L58.2275 29.5606C58.7158 29.9707 58.9307 30.4786 58.9307 31.0059C58.9307 31.8653 58.2471 32.7051 57.0947 32.7051C56.4893 32.7051 56.0205 32.3926 55.5713 32.0215L51.8604 28.9046L51.8604 51.9088L48.4033 48.4545L48.4033 26.0009L30.4346 10.9082C30.1221 10.6543 29.79 10.5371 29.4775 10.5371C29.1455 10.5371 28.833 10.6543 28.5205 10.9082L18.9044 18.9789L16.3604 16.437L26.6455 7.80277C27.5439 7.04105 28.501 6.66996 29.4775 6.66996C30.4346 6.66996 31.4111 7.04105 32.29 7.80277Z" fill="black" fill-opacity="0.85"/>
  <path d="M53.0127 62.1778C53.6572 62.8223 54.7314 62.8223 55.3564 62.1778C56.001 61.5137 56.0205 60.459 55.3564 59.8145L5.98145 10.459C5.33691 9.81449 4.2627 9.79496 3.59863 10.459C2.97363 11.084 2.97363 12.1778 3.59863 12.8028Z" fill="black" fill-opacity="0.85"/>
 </g>
</svg>
