<?xml version="1.0" encoding="UTF-8"?>
<!--Generator: Apple Native CoreSVG 326-->
<!DOCTYPE svg
PUBLIC "-//W3C//DTD SVG 1.1//EN"
       "http://www.w3.org/Graphics/SVG/1.1/DTD/svg11.dtd">
<svg version="1.1" xmlns="http://www.w3.org/2000/svg" xmlns:xlink="http://www.w3.org/1999/xlink" viewBox="0 0 51.25 50.918">
 <g>
  <rect height="50.918" opacity="0" width="51.25" x="0" y="0"/>
  <path d="M25.4297 50.8789C39.4727 50.8789 50.8789 39.4922 50.8789 25.4492C50.8789 11.4062 39.4727 0 25.4297 0C11.3867 0 0 11.4062 0 25.4492C0 39.4922 11.3867 50.8789 25.4297 50.8789ZM25.4297 47.2461C13.3789 47.2461 3.63281 37.5 3.63281 25.4492C3.63281 13.3984 13.3789 3.65234 25.4297 3.65234C37.4805 3.65234 47.2266 13.3984 47.2266 25.4492C47.2266 37.5 37.4805 47.2461 25.4297 47.2461Z" fill="black" fill-opacity="0.85"/>
  <path d="M10.8594 25.3125L21.1523 20.0586C21.4062 19.9219 21.6602 19.9219 21.9141 20.0586L32.207 25.3125C33.3203 25.8594 33.8867 24.5312 32.9883 24.0625L22.6758 18.6719C21.8555 18.2422 21.2109 18.2617 20.3906 18.6719L10.0781 24.0625C9.19922 24.5117 9.74609 25.8594 10.8594 25.3125ZM10.5664 36.8359L37.3047 36.8359C37.7148 36.8359 38.0664 36.5039 38.0664 36.0742C38.0664 35.6641 37.7148 35.3125 37.3047 35.3125L30.5078 35.3125C30.6055 35.1172 30.625 34.9023 30.625 34.6289L30.625 25.8594C30.4297 25.7812 30.2539 25.6836 30.0781 25.6055L21.543 21.2305L12.9688 25.625C12.793 25.7031 12.6367 25.7812 12.4805 25.8594L12.4805 34.6289C12.4805 34.9023 12.5 35.1172 12.5781 35.3125L10.5664 35.3125C10.1758 35.3125 9.82422 35.6445 9.82422 36.0742C9.82422 36.5234 10.1758 36.8359 10.5664 36.8359ZM18.3789 35.3125L18.3789 28.457C18.3789 27.9688 18.6914 27.6953 19.1406 27.6953L23.9258 27.6953C24.375 27.6953 24.668 27.9688 24.668 28.457L24.668 35.3125ZM32.5391 36.0156L34.043 36.0156L34.043 19.3555C34.1602 19.3359 34.3359 19.3164 34.5312 19.3164C36.1914 19.3164 37.2461 20.1367 38.9258 20.1367C39.6094 20.1367 39.9414 20.0781 40.3125 19.9023C40.7031 19.7266 40.8984 19.4531 40.8984 19.0234L40.8984 14.3945C40.8984 14.082 40.7227 13.8672 40.3516 13.8672C40.0391 13.8672 39.6484 14.082 38.8672 14.082C37.2852 14.082 36.2305 13.2422 34.5117 13.2422C33.7891 13.2422 33.4766 13.3398 33.1445 13.4766C32.7344 13.6328 32.5391 13.9453 32.5391 14.3555Z" fill="black" fill-opacity="0.85"/>
 </g>
</svg>
