<?xml version="1.0" encoding="UTF-8"?>
<!--Generator: Apple Native CoreSVG 326-->
<!DOCTYPE svg
PUBLIC "-//W3C//DTD SVG 1.1//EN"
       "http://www.w3.org/Graphics/SVG/1.1/DTD/svg11.dtd">
<svg version="1.1" xmlns="http://www.w3.org/2000/svg" xmlns:xlink="http://www.w3.org/1999/xlink" viewBox="0 0 35.6445 45.293">
 <g>
  <rect height="45.293" opacity="0" width="35.6445" x="0" y="0"/>
  <path d="M17.4023 0C11.9336 0 6.89453 2.34375 4.6875 6.95312C4.23828 7.65625 3.90625 8.51562 3.90625 9.33594C3.90625 10.3125 4.53125 11.1914 5.80078 11.1914C6.75781 11.1914 7.30469 10.625 7.73438 9.74609C9.21875 5.70312 13.2227 3.73047 17.5 3.73047C22.6172 3.73047 27.5781 6.01562 27.5781 11.1328C27.5781 13.0273 26.6797 15.1562 24.6875 16.4453L1.38672 16.4453C0.585938 16.4453 0 17.0508 0 17.8711C0 18.6719 0.585938 19.2773 1.38672 19.2773L33.8867 19.2773C34.6875 19.2773 35.2734 18.6719 35.2734 17.8711C35.2734 17.0508 34.6875 16.4453 33.8867 16.4453L29.1211 16.4453C30.7031 15 31.6602 13.0078 31.6602 10.8398C31.6602 3.53516 24.5703 0 17.4023 0ZM17.6758 45.2344C23.9844 45.2344 29.375 42.7148 31.6602 37.6367C32.0703 36.9727 32.4805 36.0156 32.4805 35.0977C32.4805 33.9844 31.7383 33.2617 30.5664 33.2617C29.4727 33.2617 28.9648 33.9062 28.5938 34.6875C26.9922 39.4531 22.6953 41.5234 17.5391 41.5234C11.6211 41.5234 6.89453 38.5938 6.89453 34.043C6.89453 31.0938 8.65234 28.8477 11.1914 27.4805L33.8867 27.4805C34.6875 27.4805 35.2734 26.875 35.2734 26.0547C35.2734 25.2148 34.6875 24.6094 33.8867 24.6094L1.38672 24.6094C0.585938 24.6094 0 25.2148 0 26.0547C0 26.875 0.585938 27.4805 1.38672 27.4805L6.38672 27.4805C4.14062 29.0039 2.79297 31.5234 2.79297 34.2383C2.79297 41.4258 10.0781 45.2344 17.6758 45.2344Z" fill="black" fill-opacity="0.85"/>
 </g>
</svg>
