<?xml version="1.0" encoding="UTF-8"?>
<!--Generator: Apple Native CoreSVG 326-->
<!DOCTYPE svg
PUBLIC "-//W3C//DTD SVG 1.1//EN"
       "http://www.w3.org/Graphics/SVG/1.1/DTD/svg11.dtd">
<svg version="1.1" xmlns="http://www.w3.org/2000/svg" xmlns:xlink="http://www.w3.org/1999/xlink" viewBox="0 0 46.2891 45.918">
 <g>
  <rect height="45.918" opacity="0" width="46.2891" x="0" y="0"/>
  <path d="M45.918 7.53906L45.918 38.3984C45.918 43.3594 43.3594 45.918 38.3008 45.918L7.59766 45.918C2.55859 45.918 0 43.3984 0 38.3984L0 7.53906C0 2.53906 2.55859 0 7.59766 0L38.3008 0C43.3594 0 45.918 2.55859 45.918 7.53906ZM17.6367 15.332C17.2656 15.2539 16.7969 15.1953 16.4648 15.1953C13.7891 15.1953 11.5625 17.1289 11.2891 19.7852C8.88672 20.7422 7.07031 23.0469 7.07031 25.918C7.07031 30.0391 9.84375 32.3828 13.6914 32.3828L33.4766 32.3828C36.582 32.3828 38.9062 30 38.9062 26.9922C38.9062 24.3945 37.1484 22.2461 34.8242 21.7773C34.8438 21.4648 34.8633 21.1133 34.8633 20.8398C34.8633 15.6055 30.7617 11.3672 25.3516 11.3672C22.168 11.3672 19.3359 12.8906 17.6367 15.332Z" fill="black" fill-opacity="0.85"/>
 </g>
</svg>
