<?xml version="1.0" encoding="UTF-8"?>
<!--Generator: Apple Native CoreSVG 326-->
<!DOCTYPE svg
PUBLIC "-//W3C//DTD SVG 1.1//EN"
       "http://www.w3.org/Graphics/SVG/1.1/DTD/svg11.dtd">
<svg version="1.1" xmlns="http://www.w3.org/2000/svg" xmlns:xlink="http://www.w3.org/1999/xlink" viewBox="0 0 56.2305 55.8789">
 <g>
  <rect height="55.8789" opacity="0" width="56.2305" x="0" y="0"/>
  <path d="M27.9297 55.8594C43.2812 55.8594 55.8594 43.3008 55.8594 27.9297C55.8594 12.5586 43.2812 0 27.9297 0C12.5781 0 0 12.5586 0 27.9297C0 43.3008 12.5781 55.8594 27.9297 55.8594ZM27.9297 46.6797C17.5586 46.6797 9.16016 38.3008 9.16016 27.9297C9.16016 17.5586 17.5586 9.16016 27.9297 9.16016C38.3008 9.16016 46.6992 17.5586 46.6992 27.9297C46.6992 38.3008 38.3008 46.6797 27.9297 46.6797Z" fill="black" fill-opacity="0.85"/>
  <path d="M25.1953 29.9023C29.1211 29.9023 32.2266 27.9688 32.6953 24.082L34.7266 24.082C35.1562 24.082 35.5078 23.75 35.5078 23.3203C35.5078 22.9102 35.1562 22.5781 34.7266 22.5781L32.7539 22.5781C32.6172 20.8984 31.9141 19.3164 30.5273 18.2812L34.7266 18.2812C35.1562 18.2812 35.5078 17.9297 35.5078 17.5195C35.5078 17.0703 35.1562 16.7578 34.7266 16.7578L20.8984 16.7578C20.3125 16.7578 19.9609 17.1484 19.9609 17.7539L19.9609 17.9102C19.9609 18.5352 20.3125 18.9062 20.8984 18.9062L25.0977 18.9062C27.6758 18.9062 29.707 20 30.0586 22.5781L20.7812 22.5781C20.332 22.5781 20 22.9102 20 23.3203C20 23.75 20.332 24.082 20.7812 24.082L30.0391 24.082C29.707 26.7578 27.6172 27.6953 24.9609 27.6953L21.4258 27.6953C20.5664 27.6953 20.0195 28.2227 20.0195 28.9844L20.0195 29.043C20.0195 29.6875 20.3125 30.0781 20.8203 30.5273L29.6289 38.75C30.0391 39.1211 30.332 39.3945 30.8984 39.3945C31.5625 39.3945 32.0508 38.8477 32.0508 38.2422C32.0508 37.8125 31.8359 37.5195 31.5039 37.207L23.6719 29.9023Z" fill="black" fill-opacity="0.85"/>
 </g>
</svg>
