<?xml version="1.0" encoding="UTF-8"?>
<!--Generator: Apple Native CoreSVG 326-->
<!DOCTYPE svg
PUBLIC "-//W3C//DTD SVG 1.1//EN"
       "http://www.w3.org/Graphics/SVG/1.1/DTD/svg11.dtd">
<svg version="1.1" xmlns="http://www.w3.org/2000/svg" xmlns:xlink="http://www.w3.org/1999/xlink" viewBox="0 0 59.5508 45.957">
 <g>
  <rect height="45.957" opacity="0" width="59.5508" x="0" y="0"/>
  <path d="M8.20312 42.5L8.20312 3.51562L50.9766 3.51562L50.9766 42.5Z" fill="black" fill-opacity="0.2125"/>
  <path d="M7.59766 45.957L51.5625 45.957C56.6211 45.957 59.1797 43.418 59.1797 38.4375L59.1797 7.57812C59.1797 2.59766 56.6211 0.0585938 51.5625 0.0585938L7.59766 0.0585938C2.55859 0.0585938 0 2.57812 0 7.57812L0 38.4375C0 43.4375 2.55859 45.957 7.59766 45.957ZM4.35547 24.3359C3.63281 24.3555 3.02734 23.7109 3.00781 22.9883C2.98828 22.2852 3.61328 21.6602 4.33594 21.6602C5.07812 21.6602 5.68359 22.2852 5.68359 22.9883C5.68359 23.7109 5.05859 24.3164 4.35547 24.3359ZM8.20312 42.5L8.20312 3.51562L50.9766 3.51562L50.9766 42.5ZM54.6484 25.0781C53.4961 25.0781 52.5977 24.1406 52.5977 22.9688C52.5977 21.8359 53.5156 20.8984 54.668 20.8984C55.8203 20.8984 56.7578 21.8359 56.7578 22.9688C56.7578 24.1406 55.8203 25.0781 54.6484 25.0781Z" fill="black" fill-opacity="0.85"/>
 </g>
</svg>
