<?xml version="1.0" encoding="UTF-8"?>
<!--Generator: Apple Native CoreSVG 326-->
<!DOCTYPE svg
PUBLIC "-//W3C//DTD SVG 1.1//EN"
       "http://www.w3.org/Graphics/SVG/1.1/DTD/svg11.dtd">
<svg version="1.1" xmlns="http://www.w3.org/2000/svg" xmlns:xlink="http://www.w3.org/1999/xlink" viewBox="0 0 31.6992 52.4805">
 <g>
  <rect height="52.4805" opacity="0" width="31.6992" x="0" y="0"/>
  <path d="M7.08984 48.9844C4.70703 48.9844 3.45703 47.7734 3.45703 45.4883L3.45703 6.95312C3.45703 4.66797 4.70703 3.45703 7.08984 3.45703L24.2383 3.45703C26.6016 3.45703 27.8516 4.66797 27.8516 6.95312L27.8516 45.4883C27.8516 47.7734 26.6016 48.9844 24.2383 48.9844Z" fill="black" fill-opacity="0.2125"/>
  <path d="M6.66016 52.4414L24.6484 52.4414C28.7305 52.4414 31.3281 49.9414 31.3281 45.9961L31.3281 6.44531C31.3281 2.5 28.7305 0 24.6484 0L6.66016 0C2.57812 0 0 2.5 0 6.44531L0 45.9961C0 49.9414 2.57812 52.4414 6.66016 52.4414ZM7.08984 48.9844C4.70703 48.9844 3.45703 47.7734 3.45703 45.4883L3.45703 6.95312C3.45703 4.66797 4.70703 3.45703 7.08984 3.45703L24.2383 3.45703C26.6016 3.45703 27.8516 4.66797 27.8516 6.95312L27.8516 45.4883C27.8516 47.7734 26.6016 48.9844 24.2383 48.9844ZM10.3906 47.168L20.9375 47.168C21.5625 47.168 21.9922 46.7383 21.9922 46.1133C21.9922 45.4883 21.5625 45.0586 20.9375 45.0586L10.3906 45.0586C9.78516 45.0586 9.33594 45.4883 9.33594 46.1133C9.33594 46.7383 9.78516 47.168 10.3906 47.168ZM12.6953 8.35938L18.6523 8.35938C19.5508 8.35938 20.2539 7.65625 20.2539 6.73828C20.2539 5.85938 19.5508 5.15625 18.6523 5.15625L12.6953 5.15625C11.7773 5.15625 11.0742 5.85938 11.0742 6.73828C11.0742 7.65625 11.7773 8.35938 12.6953 8.35938Z" fill="black" fill-opacity="0.85"/>
 </g>
</svg>
