<?xml version="1.0" encoding="UTF-8"?>
<!--Generator: Apple Native CoreSVG 326-->
<!DOCTYPE svg
PUBLIC "-//W3C//DTD SVG 1.1//EN"
       "http://www.w3.org/Graphics/SVG/1.1/DTD/svg11.dtd">
<svg version="1.1" xmlns="http://www.w3.org/2000/svg" xmlns:xlink="http://www.w3.org/1999/xlink" viewBox="0 0 51.25 50.918">
 <g>
  <rect height="50.918" opacity="0" width="51.25" x="0" y="0"/>
  <path d="M25.4297 50.8789C39.4727 50.8789 50.8789 39.4922 50.8789 25.4492C50.8789 11.4062 39.4727 0 25.4297 0C11.3867 0 0 11.4062 0 25.4492C0 39.4922 11.3867 50.8789 25.4297 50.8789ZM25.4297 47.2461C13.3789 47.2461 3.63281 37.5 3.63281 25.4492C3.63281 13.3984 13.3789 3.65234 25.4297 3.65234C37.4805 3.65234 47.2266 13.3984 47.2266 25.4492C47.2266 37.5 37.4805 47.2461 25.4297 47.2461Z" fill="black" fill-opacity="0.85"/>
  <path d="M10.6445 32.9688C10.9766 32.5781 10.8594 32.1094 10.4883 31.6797C8.92578 29.9609 8.10547 27.793 8.10547 25.4492C8.10547 23.0859 8.92578 20.918 10.4883 19.1992C10.8594 18.7891 10.9766 18.3008 10.6445 17.9102C10.3125 17.5 9.70703 17.5 9.27734 17.9297C7.40234 19.9609 6.36719 22.6172 6.36719 25.4492C6.36719 28.2617 7.40234 30.9375 9.27734 32.9688C9.70703 33.3984 10.3125 33.3984 10.6445 32.9688ZM40.1367 32.9688C40.4492 33.3984 41.0547 33.3984 41.4844 32.9688C43.3594 30.9375 44.4141 28.2617 44.4141 25.4492C44.4141 22.6172 43.3594 19.9609 41.4844 17.9297C41.0547 17.5 40.4492 17.5 40.1367 17.9102C39.8047 18.3008 39.9023 18.7891 40.2734 19.1992C41.8359 20.918 42.6562 23.0859 42.6562 25.4492C42.6562 27.793 41.8359 29.9609 40.2734 31.6797C39.9023 32.1094 39.8047 32.5781 40.1367 32.9688Z" fill="black" fill-opacity="0.85"/>
  <path d="M14.2383 29.8438C14.5508 29.4531 14.4531 29.0039 14.1016 28.5352C13.418 27.7539 13.0469 26.6797 13.0469 25.4492C13.0469 24.2188 13.418 23.125 14.1016 22.3438C14.4531 21.8945 14.5508 21.4453 14.2383 21.0352C13.8867 20.625 13.2422 20.6445 12.8711 21.0938C11.8555 22.2852 11.2695 23.8086 11.2695 25.4492C11.2695 27.0703 11.8555 28.5938 12.8711 29.8047C13.2422 30.2539 13.8867 30.2539 14.2383 29.8438ZM36.5234 29.8438C36.875 30.2539 37.5195 30.2539 37.8906 29.8047C38.9062 28.5938 39.4922 27.0703 39.4922 25.4492C39.4922 23.8086 38.9062 22.2852 37.8906 21.0938C37.5195 20.6445 36.875 20.625 36.5234 21.0352C36.2109 21.4453 36.3281 21.8945 36.6602 22.3438C37.3633 23.125 37.7148 24.2188 37.7148 25.4492C37.7148 26.6797 37.3633 27.7539 36.6602 28.5352C36.3281 29.0039 36.2109 29.4531 36.5234 29.8438Z" fill="black" fill-opacity="0.85"/>
  <path d="M20.4883 40.0195L30.3125 40.0195C32.6172 40.0195 34.1016 38.5938 34.1016 36.3477L34.1016 14.5508C34.1016 12.2852 32.6172 10.8594 30.3125 10.8594L20.4883 10.8594C18.1836 10.8594 16.7188 12.2852 16.7188 14.5508L16.7188 36.3477C16.7188 38.5938 18.1836 40.0195 20.4883 40.0195ZM20.7422 37.9883C19.4336 37.9883 18.7695 37.3438 18.7695 36.0938L18.7695 14.8047C18.7695 13.5547 19.4141 12.8906 20.7422 12.8906L22.4219 12.8906C22.6172 12.8906 22.6562 12.9688 22.6562 13.125L22.6562 13.3789C22.6562 13.9844 23.0469 14.3945 23.6133 14.3945L27.1875 14.3945C27.793 14.3945 28.1641 13.9844 28.1641 13.3789L28.1641 13.125C28.1641 12.9492 28.2227 12.8906 28.3984 12.8906L30.0781 12.8906C31.4062 12.8906 32.0703 13.5547 32.0703 14.8047L32.0703 36.0938C32.0703 37.3438 31.4062 37.9883 30.0781 37.9883ZM22.5391 37.0703L28.2812 37.0703C28.6914 37.0703 28.9453 36.7969 28.9453 36.4062C28.9453 35.9961 28.6914 35.7227 28.2812 35.7227L22.5391 35.7227C22.168 35.7227 21.875 35.9766 21.875 36.4062C21.875 36.8164 22.1484 37.0703 22.5391 37.0703Z" fill="black" fill-opacity="0.85"/>
 </g>
</svg>
