<?xml version="1.0" encoding="UTF-8"?>
<!--Generator: Apple Native CoreSVG 326-->
<!DOCTYPE svg
PUBLIC "-//W3C//DTD SVG 1.1//EN"
       "http://www.w3.org/Graphics/SVG/1.1/DTD/svg11.dtd">
<svg version="1.1" xmlns="http://www.w3.org/2000/svg" xmlns:xlink="http://www.w3.org/1999/xlink" viewBox="0 0 78.3398 52.4805">
 <g>
  <rect height="52.4805" opacity="0" width="78.3398" x="0" y="0"/>
  <path d="M9.27734 43.1641C9.94141 42.3828 9.72656 41.3672 8.96484 40.5078C5.48828 36.7188 3.49609 31.7383 3.49609 26.2305C3.49609 20.7031 5.48828 15.7227 8.96484 11.9336C9.72656 11.0742 9.94141 10.0586 9.27734 9.29688C8.57422 8.49609 7.38281 8.49609 6.5625 9.39453C2.38281 13.8477 0 19.7656 0 26.2305C0 32.6758 2.38281 38.6133 6.5625 43.0469C7.38281 43.9453 8.57422 43.9648 9.27734 43.1641ZM68.7109 43.1641C69.3945 43.9648 70.5859 43.9453 71.4258 43.0469C75.5859 38.6133 77.9688 32.6758 77.9688 26.2305C77.9688 19.7656 75.5859 13.8477 71.4258 9.39453C70.5859 8.49609 69.3945 8.49609 68.7109 9.29688C68.0273 10.0586 68.2422 11.0742 69.0039 11.9336C72.5 15.7227 74.4727 20.7031 74.4727 26.2305C74.4727 31.7383 72.5 36.7188 69.0039 40.5078C68.2422 41.3672 68.0273 42.3828 68.7109 43.1641Z" fill="black" fill-opacity="0.425"/>
  <path d="M16.25 36.0547C16.9336 35.2734 16.6406 34.2969 15.957 33.3984C14.2969 31.5039 13.4961 28.9648 13.4961 26.2305C13.4961 23.4961 14.2969 20.9375 15.957 19.043C16.6406 18.1445 16.9336 17.168 16.25 16.4062C15.5273 15.6055 14.2578 15.5859 13.4961 16.543C11.2695 19.1797 10 22.5781 10 26.2305C10 29.8828 11.2695 33.2617 13.4961 35.8984C14.2578 36.8555 15.5273 36.8555 16.25 36.0547ZM61.7188 36.0547C62.4414 36.8555 63.7109 36.8555 64.4922 35.8984C66.6992 33.2617 67.9883 29.8828 67.9883 26.2305C67.9883 22.5781 66.6992 19.1797 64.4922 16.543C63.7109 15.5859 62.4414 15.6055 61.7188 16.4062C61.0547 17.168 61.3281 18.1445 62.0117 19.043C63.6719 20.9375 64.4727 23.4961 64.4727 26.2305C64.4727 28.9648 63.6719 31.5039 62.0117 33.3984C61.3281 34.2969 61.0547 35.2734 61.7188 36.0547Z" fill="black" fill-opacity="0.425"/>
  <path d="M30.4297 48.9844C28.0469 48.9844 26.7969 47.7734 26.7969 45.4883L26.7969 6.95312C26.7969 4.66797 28.0469 3.45703 30.4297 3.45703L47.5781 3.45703C49.9414 3.45703 51.1914 4.66797 51.1914 6.95312L51.1914 45.4883C51.1914 47.7734 49.9414 48.9844 47.5781 48.9844Z" fill="black" fill-opacity="0.2125"/>
  <path d="M30 52.4414L47.9883 52.4414C52.0703 52.4414 54.668 49.9414 54.668 45.9961L54.668 6.44531C54.668 2.5 52.0703 0 47.9883 0L30 0C25.918 0 23.3398 2.5 23.3398 6.44531L23.3398 45.9961C23.3398 49.9414 25.918 52.4414 30 52.4414ZM30.4297 48.9844C28.0469 48.9844 26.7969 47.7734 26.7969 45.4883L26.7969 6.95312C26.7969 4.66797 28.0469 3.45703 30.4297 3.45703L47.5781 3.45703C49.9414 3.45703 51.1914 4.66797 51.1914 6.95312L51.1914 45.4883C51.1914 47.7734 49.9414 48.9844 47.5781 48.9844ZM33.7305 47.168L44.2773 47.168C44.8828 47.168 45.332 46.7383 45.332 46.1133C45.332 45.4883 44.8828 45.0586 44.2773 45.0586L33.7305 45.0586C33.125 45.0586 32.6758 45.4883 32.6758 46.1133C32.6758 46.7383 33.125 47.168 33.7305 47.168ZM36.0352 8.35938L41.9922 8.35938C42.8906 8.35938 43.5938 7.65625 43.5938 6.73828C43.5938 5.85938 42.8906 5.15625 41.9922 5.15625L36.0352 5.15625C35.1172 5.15625 34.4141 5.85938 34.4141 6.73828C34.4141 7.65625 35.1172 8.35938 36.0352 8.35938Z" fill="black" fill-opacity="0.85"/>
 </g>
</svg>
