<?xml version="1.0" encoding="UTF-8"?>
<!--Generator: Apple Native CoreSVG 326-->
<!DOCTYPE svg
PUBLIC "-//W3C//DTD SVG 1.1//EN"
       "http://www.w3.org/Graphics/SVG/1.1/DTD/svg11.dtd">
<svg version="1.1" xmlns="http://www.w3.org/2000/svg" xmlns:xlink="http://www.w3.org/1999/xlink" viewBox="0 0 32.6562 53.8477">
 <g>
  <rect height="53.8477" opacity="0" width="32.6562" x="0" y="0"/>
  <path d="M32.2852 7.42188L32.2852 46.4453C32.2852 50.4883 29.8438 53.8477 24.1602 53.8477L8.125 53.8477C2.44141 53.8477 0 50.4883 0 46.4453L0 7.42188C0 3.37891 2.44141 0.0195312 8.125 0.0195312L24.1602 0.0195312C29.8438 0.0195312 32.2852 3.37891 32.2852 7.42188ZM8.57422 23.9648C8.57422 27.1289 10.4492 29.9023 13.418 31.0352L13.418 42.5977C13.418 42.9102 13.5156 43.125 13.7305 43.3789L15.6836 45.3516C15.918 45.5664 16.3281 45.6055 16.6406 45.3516L20.3711 41.6602C20.6445 41.3672 20.6055 40.9766 20.3711 40.6836L18.1055 38.4766L21.2109 35.3516C21.4453 35.0977 21.4453 34.707 21.1914 34.4336L18.1445 31.3477C21.7188 29.8828 23.7305 27.207 23.7305 23.9648C23.7305 19.8047 20.332 16.4258 16.1523 16.4258C11.9336 16.4258 8.57422 19.7656 8.57422 23.9648ZM18.2812 21.6797C18.2812 22.8516 17.3047 23.8086 16.1328 23.8086C14.9609 23.8086 13.9844 22.8516 13.9844 21.6797C13.9844 20.4883 14.9219 19.5312 16.1328 19.5312C17.3047 19.5312 18.2812 20.4883 18.2812 21.6797ZM7.92969 5.83984C6.91406 5.83984 6.03516 6.69922 6.03516 7.71484L6.03516 8.55469C6.03516 8.90625 6.34766 9.21875 6.69922 9.21875L25.5664 9.21875C25.9375 9.21875 26.2305 8.90625 26.2305 8.55469L26.2305 7.71484C26.2305 6.69922 25.3711 5.83984 24.3555 5.83984Z" fill="black" fill-opacity="0.85"/>
 </g>
</svg>
