<?xml version="1.0" encoding="UTF-8"?>
<!--Generator: Apple Native CoreSVG 326-->
<!DOCTYPE svg
PUBLIC "-//W3C//DTD SVG 1.1//EN"
       "http://www.w3.org/Graphics/SVG/1.1/DTD/svg11.dtd">
<svg version="1.1" xmlns="http://www.w3.org/2000/svg" xmlns:xlink="http://www.w3.org/1999/xlink" viewBox="0 0 71.7383 57.8711">
 <g>
  <rect height="57.8711" opacity="0" width="71.7383" x="0" y="0"/>
  <path d="M63.2812 14.082L63.2812 43.8477L68.8086 43.8477C70.2344 43.8477 71.3672 45 71.3672 46.4453C71.3672 47.8906 70.2344 49.043 68.8086 49.043L2.55859 49.043C1.13281 49.043 0 47.8906 0 46.4453C0 45 1.13281 43.8477 2.55859 43.8477L8.08594 43.8477L8.08594 14.082C8.08594 10.6445 10.0586 8.86719 13.3398 8.86719L29.5703 8.86719L29.5703 12.3242L14.2188 12.3242C12.4414 12.3242 11.543 13.2031 11.543 15L11.543 43.8477L59.8242 43.8477L59.8242 15C59.8242 13.2031 58.9258 12.3242 57.1484 12.3242L41.7969 12.3242L41.7969 8.86719L58.0273 8.86719C61.4648 8.86719 63.2812 10.6445 63.2812 14.082Z" fill="black" fill-opacity="0.85"/>
  <path d="M35.6836 0C34.7656 0 33.9648 0.761719 33.9648 1.67969L33.9648 24.668L34.1016 28.3789L32.5586 26.7773L28.3008 22.3047C28.0078 21.9727 27.5195 21.7969 27.1094 21.7969C26.2109 21.7969 25.5664 22.4414 25.5664 23.3203C25.5664 23.7695 25.7422 24.1211 26.0742 24.4336L34.4531 32.5781C34.8633 33.0078 35.2539 33.1445 35.6836 33.1445C36.1133 33.1445 36.5039 33.0078 36.9336 32.5781L45.293 24.4336C45.6055 24.1211 45.8008 23.7695 45.8008 23.3203C45.8008 22.4414 45.1172 21.7969 44.2188 21.7969C43.8086 21.7969 43.3398 21.9727 43.0469 22.3047L38.8086 26.7773L37.2656 28.3789L37.4023 24.668L37.4023 1.67969C37.4023 0.761719 36.6211 0 35.6836 0Z" fill="black" fill-opacity="0.85"/>
 </g>
</svg>
