<?xml version="1.0" encoding="UTF-8"?>
<!--Generator: Apple Native CoreSVG 326-->
<!DOCTYPE svg
PUBLIC "-//W3C//DTD SVG 1.1//EN"
       "http://www.w3.org/Graphics/SVG/1.1/DTD/svg11.dtd">
<svg version="1.1" xmlns="http://www.w3.org/2000/svg" xmlns:xlink="http://www.w3.org/1999/xlink" viewBox="0 0 69.668 41.6602">
 <g>
  <rect height="41.6602" opacity="0" width="69.668" x="0" y="0"/>
  <path d="M34.6289 41.6406C55.0977 41.6406 69.2969 32.2852 69.2969 20.8203C69.2969 9.35547 55.0977 0 34.6289 0C14.1797 0 0 9.35547 0 20.8203C0 32.2852 14.1797 41.6406 34.6289 41.6406ZM34.6289 34.707C21.1914 34.707 11.2109 29.0625 11.2109 21.5039C11.2109 13.9453 21.2109 8.30078 34.6289 8.30078C48.0859 8.30078 58.0859 13.9453 58.0859 21.5039C58.0859 29.043 48.0664 34.707 34.6289 34.707ZM34.6289 31.8555C46.2109 31.8555 55.2344 27.2266 55.2344 21.5039C55.2344 19.0625 53.6133 16.8555 50.8789 15.1172C48.1641 19.5898 41.7969 22.7148 34.5312 22.7148C27.3242 22.7148 20.9961 19.6484 18.2617 15.2148C15.625 16.9336 14.082 19.1016 14.082 21.5039C14.082 27.2266 23.0273 31.8555 34.6289 31.8555Z" fill="black" fill-opacity="0.85"/>
 </g>
</svg>
