<?xml version="1.0" encoding="UTF-8"?>
<!--Generator: Apple Native CoreSVG 326-->
<!DOCTYPE svg
PUBLIC "-//W3C//DTD SVG 1.1//EN"
       "http://www.w3.org/Graphics/SVG/1.1/DTD/svg11.dtd">
<svg version="1.1" xmlns="http://www.w3.org/2000/svg" xmlns:xlink="http://www.w3.org/1999/xlink" viewBox="0 0 46.2891 45.918">
 <g>
  <rect height="45.918" opacity="0" width="46.2891" x="0" y="0"/>
  <path d="M7.59766 45.918L38.3008 45.918C43.3594 45.918 45.918 43.3594 45.918 38.3984L45.918 7.53906C45.918 2.55859 43.3594 0 38.3008 0L7.59766 0C2.55859 0 0 2.53906 0 7.53906L0 38.3984C0 43.3984 2.55859 45.918 7.59766 45.918ZM7.67578 42.4609C4.94141 42.4609 3.45703 41.0156 3.45703 38.2031L3.45703 7.71484C3.45703 4.92188 4.94141 3.45703 7.67578 3.45703L38.2422 3.45703C40.918 3.45703 42.4609 4.92188 42.4609 7.71484L42.4609 38.2031C42.4609 41.0156 40.918 42.4609 38.2422 42.4609Z" fill="black" fill-opacity="0.85"/>
  <path d="M16.25 9.98047C15.2344 9.98047 14.5117 10.6836 14.5117 11.7188L14.5117 34.2188C14.5117 35.2344 15.2344 35.9766 16.25 35.9766L29.6484 35.9766C30.6641 35.9766 31.4062 35.2344 31.4062 34.2188L31.4062 11.7188C31.4062 10.6836 30.6641 9.98047 29.6484 9.98047ZM17.9297 25.2734L27.9688 25.2734C28.457 25.2734 28.7695 25.6055 28.7695 26.0938L28.7695 32.5195C28.7695 33.0078 28.457 33.3398 27.9688 33.3398L17.9297 33.3398C17.4805 33.3398 17.1484 33.0078 17.1484 32.5195L17.1484 26.0938C17.1484 25.6055 17.4805 25.2734 17.9297 25.2734Z" fill="black" fill-opacity="0.85"/>
 </g>
</svg>
