<?xml version="1.0" encoding="UTF-8"?>
<!--Generator: Apple Native CoreSVG 326-->
<!DOCTYPE svg
PUBLIC "-//W3C//DTD SVG 1.1//EN"
       "http://www.w3.org/Graphics/SVG/1.1/DTD/svg11.dtd">
<svg version="1.1" xmlns="http://www.w3.org/2000/svg" xmlns:xlink="http://www.w3.org/1999/xlink" viewBox="0 0 59.844 50.293">
 <g>
  <rect height="50.293" opacity="0" width="59.844" x="0" y="0"/>
  <path d="M20.2931 45.2148C19.5704 45.9375 18.6134 45.918 17.9103 45.2344C17.2267 44.5117 17.1876 43.5547 17.9103 42.8516L33.0758 27.7552C33.4845 27.802 33.9082 27.8125 34.336 27.8125C35.5872 27.8125 36.8036 27.7224 37.9682 27.5236ZM27.1905 26.7238L14.4923 39.4336C13.7892 40.1367 12.8126 40.1367 12.1095 39.4336C11.4064 38.7109 11.3868 37.7539 12.1095 37.0508L23.8433 25.3599C24.896 25.9097 26.0116 26.3708 27.1905 26.7238ZM19.7797 22.5634L8.71104 33.6523C7.98838 34.3555 7.03135 34.3359 6.32823 33.6523C5.64463 32.9297 5.60557 31.9727 6.32823 31.25L17.4553 20.1738C18.1569 21.0409 18.9284 21.8452 19.7797 22.5634ZM14.8268 15.9047L2.91026 27.832C2.1876 28.5547 1.23057 28.5352 0.527445 27.8516C-0.156148 27.1484-0.195211 26.1719 0.527445 25.4688L13.5634 12.4804C13.8797 13.685 14.2997 14.8315 14.8268 15.9047Z" fill="black" fill-opacity="0.85"/>
  <path d="M57.8126 7.69531C58.7306 7.69531 59.4728 6.93359 59.4728 6.01562C59.4728 5.13672 58.7306 4.33594 57.8126 4.33594L10.8399 4.31641C9.92198 4.31641 9.16026 5.11719 9.16026 6.01562C9.16026 6.93359 9.94151 7.67578 10.8399 7.67578ZM34.336 24.707C45.1954 24.707 52.8712 16.9531 52.8517 6.07422L49.5118 6.07422C49.5314 14.9805 43.2228 21.3477 34.336 21.3477C25.4493 21.3477 19.1407 14.9805 19.1798 6.07422L15.8399 6.07422C15.7814 16.9531 23.4571 24.707 34.336 24.707Z" fill="black" fill-opacity="0.85"/>
 </g>
</svg>
