<?xml version="1.0" encoding="UTF-8"?>
<!--Generator: Apple Native CoreSVG 326-->
<!DOCTYPE svg
PUBLIC "-//W3C//DTD SVG 1.1//EN"
       "http://www.w3.org/Graphics/SVG/1.1/DTD/svg11.dtd">
<svg version="1.1" xmlns="http://www.w3.org/2000/svg" xmlns:xlink="http://www.w3.org/1999/xlink" viewBox="0 0 62.7734 46.6992">
 <g>
  <rect height="46.6992" opacity="0" width="62.7734" x="0" y="0"/>
  <path d="M54.5117 19.1602C59.4727 21.1133 62.4023 25.6445 62.4023 30.8203C62.4023 37.5781 56.6016 42.9492 49.1602 42.9492L14.7461 42.9297C6.32812 42.9297 0 36.9336 0 29.6484C0 23.5742 3.57422 18.6719 9.17969 17.8906C9.25781 10.8984 15.9766 6.21094 22.0703 8.18359C24.9609 3.71094 29.7461 0 36.6016 0C46.7188 0 54.6484 8.06641 54.5117 19.1602ZM31.582 18.0664C31.3672 18.3008 31.0742 18.6133 30.7031 19.1016C31.6797 18.8867 32.8516 19.2969 33.8867 20.2734C35.7031 21.9531 35.6836 24.4922 33.8477 26.3086L29.0039 31.1523C27.2266 32.9297 24.7461 32.9297 22.9883 31.1914C21.1914 29.4141 21.2109 26.9141 22.9883 25.1367L25.2539 22.8906C25 21.8359 25.0586 20.625 25.6055 19.3164L21.2695 23.6133C18.5742 26.3086 18.5742 30.1758 21.2695 32.8711C23.9844 35.5664 27.8125 35.5664 30.5273 32.8711L35.6055 27.832C38.2812 25.1367 38.3203 21.2305 35.6055 18.5742C34.6094 17.5977 33.4766 17.1094 32.7148 16.9531ZM33.2031 11.6992L28.1445 16.7578C25.4492 19.4336 25.4297 23.3594 28.1641 25.9961C29.1602 26.9727 30.293 27.4609 31.0156 27.6367L32.1484 26.5234C32.5195 26.0742 32.6172 25.957 32.8906 25.5664C31.9922 25.6641 30.8203 25.2344 29.8438 24.2969C28.0273 22.5977 28.0859 20.0781 29.8828 18.2812L34.7266 13.4375C36.5234 11.6406 38.9844 11.6602 40.7422 13.3984C42.5195 15.1758 42.5195 17.6758 40.7422 19.4336L38.4766 21.6797C38.7305 22.7539 38.6719 23.9648 38.125 25.2734L42.4609 20.9375C45.1562 18.2422 45.1367 14.3945 42.4609 11.7188C39.7461 9.00391 35.8984 9.00391 33.2031 11.6992Z" fill="black" fill-opacity="0.85"/>
 </g>
</svg>
