<?xml version="1.0" encoding="UTF-8"?>
<!--Generator: Apple Native CoreSVG 326-->
<!DOCTYPE svg
PUBLIC "-//W3C//DTD SVG 1.1//EN"
       "http://www.w3.org/Graphics/SVG/1.1/DTD/svg11.dtd">
<svg version="1.1" xmlns="http://www.w3.org/2000/svg" xmlns:xlink="http://www.w3.org/1999/xlink" viewBox="0 0 59.5508 45.918">
 <g>
  <rect height="45.918" opacity="0" width="59.5508" x="0" y="0"/>
  <path d="M7.59766 45.918L51.5625 45.918C56.6211 45.918 59.1797 43.3594 59.1797 38.3984L59.1797 7.53906C59.1797 2.55859 56.6211 0 51.5625 0L7.59766 0C2.55859 0 0 2.53906 0 7.53906L0 38.3984C0 43.3984 2.55859 45.918 7.59766 45.918ZM7.67578 42.4609C4.94141 42.4609 3.45703 41.0156 3.45703 38.2031L3.45703 7.71484C3.45703 4.92188 4.94141 3.45703 7.67578 3.45703L51.5039 3.45703C54.1797 3.45703 55.7031 4.92188 55.7031 7.71484L55.7031 38.2031C55.7031 41.0156 54.1797 42.4609 51.5039 42.4609Z" fill="black" fill-opacity="0.85"/>
  <path d="M20.4688 32.9492C20.4688 34.8828 21.3281 35.7617 23.1055 35.7617L36.0938 35.7617C37.8711 35.7617 38.7305 34.8828 38.7305 32.9492L38.7305 22.7734C38.7305 20.957 37.9492 20.0586 36.3672 19.9805L36.3672 16.8359C36.3672 12.3242 33.6523 9.29688 29.6094 9.29688C25.5469 9.29688 22.832 12.3242 22.832 16.8359L22.832 19.9805C21.25 20.0586 20.4688 20.957 20.4688 22.7734ZM25.1562 19.9609L25.1562 16.6211C25.1562 13.5742 26.9336 11.582 29.6094 11.582C32.2656 11.582 34.043 13.5742 34.043 16.6211L34.043 19.9609Z" fill="black" fill-opacity="0.85"/>
 </g>
</svg>
