<?xml version="1.0" encoding="UTF-8"?>
<!--Generator: Apple Native CoreSVG 326-->
<!DOCTYPE svg
PUBLIC "-//W3C//DTD SVG 1.1//EN"
       "http://www.w3.org/Graphics/SVG/1.1/DTD/svg11.dtd">
<svg version="1.1" xmlns="http://www.w3.org/2000/svg" xmlns:xlink="http://www.w3.org/1999/xlink" viewBox="0 0 75.7812 47.1289">
 <g>
  <rect height="47.1289" opacity="0" width="75.7812" x="0" y="0"/>
  <path d="M2.12891 47.0312C3.41797 47.0312 4.23828 46.1523 4.23828 44.8633L4.23828 27.3828L13.3594 27.3828C13.7109 27.3828 14.082 27.3438 14.4141 27.3242L23.457 45.7031C23.9062 46.6797 24.5117 47.0508 25.5859 47.0508C26.7578 47.0508 27.6562 46.2109 27.6562 45.0977C27.6562 44.6289 27.4219 44.0625 27.207 43.6133L18.6328 26.4648C24.5312 24.5898 27.4805 19.8242 27.4805 13.8281C27.4805 5.48828 21.875 0.546875 13.457 0.546875L2.07031 0.546875C0.800781 0.546875 0 1.42578 0 2.75391L0 44.8633C0 46.2695 0.9375 47.0312 2.12891 47.0312ZM4.23828 23.6523L4.23828 4.33594L12.9688 4.33594C19.082 4.33594 23.1836 7.59766 23.1836 13.9453C23.1836 20.1953 19.3945 23.6523 13.125 23.6523ZM38.125 47.1094C39.375 47.1094 40.1172 46.2891 40.1172 45.0391L40.1172 7.77344L40.3711 7.77344L53.0469 44.2188C53.4961 45.5859 54.3945 46.4648 55.7812 46.4648C57.207 46.4648 58.0859 45.5469 58.5156 44.1797L71.1914 7.77344L71.4258 7.77344L71.4258 45.0391C71.4258 46.3867 72.2461 47.1094 73.3984 47.1094C74.668 47.1094 75.4102 46.3086 75.4102 45.0391L75.4102 2.94922C75.4102 1.15234 74.1992 0 72.4023 0C70.7422 0 69.7461 0.957031 69.2188 2.55859L56.0547 40.8203L55.6055 40.8203L42.2461 2.5C41.7383 0.898438 40.7812 0 39.1406 0C37.2656 0 36.1523 1.32812 36.1523 2.92969L36.1523 45.0391C36.1523 46.25 36.8945 47.1094 38.125 47.1094Z" fill="black" fill-opacity="0.85"/>
 </g>
</svg>
