<?xml version="1.0" encoding="UTF-8"?>
<!--Generator: Apple Native CoreSVG 326-->
<!DOCTYPE svg
PUBLIC "-//W3C//DTD SVG 1.1//EN"
       "http://www.w3.org/Graphics/SVG/1.1/DTD/svg11.dtd">
<svg version="1.1" xmlns="http://www.w3.org/2000/svg" xmlns:xlink="http://www.w3.org/1999/xlink" viewBox="0 0 51.25 50.918">
 <g>
  <rect height="50.918" opacity="0" width="51.25" x="0" y="0"/>
  <path d="M25.4297 50.8789C39.4727 50.8789 50.8789 39.4922 50.8789 25.4492C50.8789 11.4062 39.4727 0 25.4297 0C11.3867 0 0 11.4062 0 25.4492C0 39.4922 11.3867 50.8789 25.4297 50.8789ZM25.4297 47.2461C13.3789 47.2461 3.63281 37.5 3.63281 25.4492C3.63281 13.3984 13.3789 3.65234 25.4297 3.65234C37.4805 3.65234 47.2266 13.3984 47.2266 25.4492C47.2266 37.5 37.4805 47.2461 25.4297 47.2461Z" fill="black" fill-opacity="0.85"/>
  <path d="M18.2031 36.2891C19.0234 36.2891 19.5117 35.7617 19.5117 34.9414L19.5117 27.207C19.5117 22.6367 21.1523 19.0039 25.4492 19.0039C29.8242 19.0039 31.4062 22.6953 31.4062 27.207L31.4062 34.9414C31.4062 35.7617 31.8945 36.2891 32.7148 36.2891C33.5156 36.2891 34.0039 35.7617 34.0039 34.9414L34.0039 27.0508C34.0039 21.0547 31.2305 16.6406 25.4492 16.6406C19.6289 16.6406 16.9141 21.1328 16.9141 27.0508L16.9141 34.9414C16.9141 35.7617 17.4023 36.2891 18.2031 36.2891ZM25.4102 36.2891C25.9766 36.2891 26.3281 35.918 26.3281 35.332L26.3281 13.7891C26.3281 13.2227 25.9766 12.8516 25.4102 12.8516C24.8242 12.8516 24.4531 13.2227 24.4531 13.7891L24.4531 35.332C24.4531 35.918 24.8242 36.2891 25.4102 36.2891Z" fill="black" fill-opacity="0.85"/>
 </g>
</svg>
