<?xml version="1.0" encoding="UTF-8"?>
<!--Generator: Apple Native CoreSVG 326-->
<!DOCTYPE svg
PUBLIC "-//W3C//DTD SVG 1.1//EN"
       "http://www.w3.org/Graphics/SVG/1.1/DTD/svg11.dtd">
<svg version="1.1" xmlns="http://www.w3.org/2000/svg" xmlns:xlink="http://www.w3.org/1999/xlink" viewBox="0 0 54.3066 54.6582">
 <g>
  <rect height="54.6582" opacity="0" width="54.3066" x="0" y="0"/>
  <path d="M37.417 3.56934L51.0693 17.2412L51.2842 17.0459C55.0537 13.2764 54.7021 7.51465 50.9131 3.74512C47.1436-0.0439453 41.3623-0.375977 37.6318 3.37402ZM4.70215 45.6006L9.03809 49.9561L12.1631 46.8506C18.5889 40.4443 25.9521 42.3975 32.5342 35.8154L49.3115 19.0381L35.6201 5.34668L18.8428 22.1436C12.0264 28.96 14.2139 36.0303 7.80762 42.4951ZM26.8701 27.8662C25.2881 26.2646 25.3271 23.7451 26.8701 22.1631L34.3896 14.624C35.9521 13.042 38.4912 13.0029 40.0342 14.624C41.6357 16.1475 41.6357 18.6279 40.0342 20.249L32.5146 27.8271C30.9521 29.3896 28.4131 29.4092 26.8701 27.8662ZM21.3623 30.21C20.7764 29.624 20.8936 28.8037 21.3623 28.3154C21.8896 27.7881 22.6709 27.749 23.2568 28.3154L26.3818 31.3818C26.9678 31.9678 26.8896 32.7881 26.3818 33.2959C25.874 33.7842 25.0732 33.8428 24.4873 33.2568ZM28.5107 26.2256C29.1943 26.9287 30.2881 27.0459 31.0107 26.3232L38.5498 18.7646C39.3311 17.9639 39.1162 16.9092 38.4326 16.2451C37.71 15.5615 36.6357 15.4639 35.8545 16.2451L28.5107 23.6279C27.7686 24.3506 27.7881 25.4834 28.5107 26.2256ZM1.01074 53.6475C2.33887 54.9951 4.07715 54.9951 5.4248 53.6475L6.88965 52.2021L2.47559 47.7686L1.01074 49.2529C-0.336914 50.6006-0.336914 52.3389 1.01074 53.6475Z" fill="black" fill-opacity="0.85"/>
 </g>
</svg>
