<?xml version="1.0" encoding="UTF-8"?>
<!--Generator: Apple Native CoreSVG 326-->
<!DOCTYPE svg
PUBLIC "-//W3C//DTD SVG 1.1//EN"
       "http://www.w3.org/Graphics/SVG/1.1/DTD/svg11.dtd">
<svg version="1.1" xmlns="http://www.w3.org/2000/svg" xmlns:xlink="http://www.w3.org/1999/xlink" viewBox="0 0 46.2891 45.918">
 <g>
  <rect height="45.918" opacity="0" width="46.2891" x="0" y="0"/>
  <path d="M7.59766 45.918L38.3008 45.918C43.3594 45.918 45.918 43.3594 45.918 38.3984L45.918 7.53906C45.918 2.55859 43.3594 0 38.3008 0L7.59766 0C2.55859 0 0 2.53906 0 7.53906L0 38.3984C0 43.3984 2.55859 45.918 7.59766 45.918ZM7.67578 42.4609C4.94141 42.4609 3.45703 41.0156 3.45703 38.2031L3.45703 7.71484C3.45703 4.92188 4.94141 3.45703 7.67578 3.45703L38.2422 3.45703C40.918 3.45703 42.4609 4.92188 42.4609 7.71484L42.4609 38.2031C42.4609 41.0156 40.918 42.4609 38.2422 42.4609Z" fill="black" fill-opacity="0.85"/>
  <path d="M16.6797 38.1836L29.2773 38.1836C29.9219 38.1836 30.4883 37.6172 30.4883 36.9727C30.4883 36.3281 29.9414 35.7617 29.2773 35.7617L24.1797 35.7617L24.1797 32.7734C29.1992 32.2461 32.5781 28.4766 32.5781 23.4375L32.5781 20.3516C32.5781 19.7266 32.0312 19.1797 31.4062 19.1797C30.7617 19.1797 30.2148 19.7266 30.2148 20.3516L30.2148 23.4375C30.2148 27.6562 27.3047 30.5469 22.9688 30.5469C18.6523 30.5469 15.7422 27.6562 15.7422 23.4375L15.7422 20.3516C15.7422 19.7266 15.1953 19.1797 14.5508 19.1797C13.9258 19.1797 13.3789 19.7266 13.3789 20.3516L13.3789 23.4375C13.3789 28.4766 16.7773 32.2656 21.7773 32.7734L21.7773 35.7617L16.6797 35.7617C16.0352 35.7617 15.4688 36.3281 15.4688 36.9727C15.4688 37.6367 16.0352 38.1836 16.6797 38.1836ZM22.9688 27.8125C25.4688 27.8125 27.168 25.8789 27.168 23.3203L27.168 12.4219C27.168 9.84375 25.4688 7.92969 22.9688 7.92969C20.4688 7.92969 18.7695 9.84375 18.7695 12.4219L18.7695 23.3203C18.7695 25.8789 20.4688 27.8125 22.9688 27.8125Z" fill="black" fill-opacity="0.85"/>
 </g>
</svg>
