<?xml version="1.0" encoding="UTF-8"?>
<!--Generator: Apple Native CoreSVG 326-->
<!DOCTYPE svg
PUBLIC "-//W3C//DTD SVG 1.1//EN"
       "http://www.w3.org/Graphics/SVG/1.1/DTD/svg11.dtd">
<svg version="1.1" xmlns="http://www.w3.org/2000/svg" xmlns:xlink="http://www.w3.org/1999/xlink" viewBox="0 0 58.2812 37.0898">
 <g>
  <rect height="37.0898" opacity="0" width="58.2812" x="0" y="0"/>
  <path d="M4.92188 37.0898L39.2188 37.0898L39.2188 0.0195312L4.92188 0.0195312C1.97266 0.0195312 0 2.07031 0 5.17578L0 31.9336C0 35.0391 1.97266 37.0898 4.92188 37.0898ZM7.73438 31.1719C6.23047 31.1719 5.27344 30.1953 5.27344 28.6914L5.27344 8.41797C5.27344 6.91406 6.23047 5.9375 7.73438 5.9375L32.3633 5.9375C33.8867 5.9375 34.8438 6.91406 34.8438 8.41797L34.8438 28.6914C34.8438 30.1953 33.8867 31.1719 32.3633 31.1719ZM8.53516 28.6914L31.543 28.6914C32.0312 28.6914 32.3633 28.3594 32.3633 27.8906L32.3633 9.21875C32.3633 8.75 32.0312 8.41797 31.543 8.41797L8.53516 8.41797C8.06641 8.41797 7.73438 8.75 7.73438 9.21875L7.73438 27.8906C7.73438 28.3594 8.06641 28.6914 8.53516 28.6914ZM41.6797 25.7812L57.9102 25.7812L57.9102 5.17578C57.9102 2.07031 55.9375 0.0195312 52.9883 0.0195312L41.6797 0.0195312ZM45.7422 11.2109C45.4883 11.2109 45.2539 10.9961 45.2539 10.7227L45.2539 6.42578C45.2539 6.17188 45.4883 5.9375 45.7422 5.9375L53.2812 5.9375C53.5547 5.9375 53.7695 6.17188 53.7695 6.42578L53.7695 10.7227C53.7695 10.9961 53.5547 11.2109 53.2812 11.2109ZM46.4453 15.5078C45.7422 15.5078 45.2539 15.0195 45.2539 14.3359C45.2539 13.6523 45.7422 13.1641 46.4453 13.1641L52.5977 13.1641C53.2812 13.1641 53.7695 13.6523 53.7695 14.3359C53.7695 15.0195 53.2812 15.5078 52.5977 15.5078ZM46.4453 19.8438C45.7422 19.8438 45.2539 19.375 45.2539 18.6523C45.2539 17.9688 45.7422 17.5 46.4453 17.5L52.5977 17.5C53.2812 17.5 53.7695 17.9688 53.7695 18.6523C53.7695 19.375 53.2812 19.8438 52.5977 19.8438ZM41.6797 37.0898L52.9883 37.0898C55.9375 37.0898 57.9102 35.0391 57.9102 31.9336L57.9102 28.2617L41.6797 28.2617Z" fill="black" fill-opacity="0.85"/>
 </g>
</svg>
