<?xml version="1.0" encoding="UTF-8"?>
<!--Generator: Apple Native CoreSVG 326-->
<!DOCTYPE svg
PUBLIC "-//W3C//DTD SVG 1.1//EN"
       "http://www.w3.org/Graphics/SVG/1.1/DTD/svg11.dtd">
<svg version="1.1" xmlns="http://www.w3.org/2000/svg" xmlns:xlink="http://www.w3.org/1999/xlink" viewBox="0 0 46.2891 45.918">
 <g>
  <rect height="45.918" opacity="0" width="46.2891" x="0" y="0"/>
  <path d="M45.918 7.53906L45.918 38.3984C45.918 43.3594 43.3594 45.918 38.3008 45.918L7.59766 45.918C2.55859 45.918 0 43.3984 0 38.3984L0 7.53906C0 2.53906 2.55859 0 7.59766 0L38.3008 0C43.3594 0 45.918 2.55859 45.918 7.53906ZM26.9141 8.80859L23.4766 16.9922C22.9102 15.3711 21.6797 14.4336 19.8047 14.4336C17.793 14.4336 16.543 15.7227 16.0742 17.5781L15.9766 17.5781L15.9766 15.7227C15.9766 14.9805 15.5273 14.4922 14.8242 14.4922C14.1016 14.4922 13.6523 14.9805 13.6523 15.7227L13.6523 29.9609C13.6523 30.6641 14.082 31.1914 14.8633 31.1914C15.6445 31.1914 16.0938 30.6641 16.0938 29.9609L16.0938 20.7031C16.0938 18.6523 17.0508 16.6602 19.1406 16.6602C20.9961 16.6602 21.8164 18.0859 21.8164 19.9023L21.8164 20.7617L15.1758 36.4648C15.0781 36.6016 15.0391 36.7578 15.0391 36.9141C15.0391 37.3633 15.3711 37.6172 15.8203 37.6172C16.2305 37.6172 16.4062 37.4414 16.6016 37.0312L21.8164 24.668L21.8164 29.9609C21.8164 30.6836 22.3242 31.1914 23.0078 31.1914C23.7305 31.1914 24.2188 30.6836 24.2188 29.9609L24.2188 20.4688C24.2188 18.4961 25.1953 16.6602 27.2266 16.6602C29.1992 16.6602 29.9414 18.1641 29.9414 20.1367L29.9414 29.9609C29.9414 30.6836 30.4492 31.1914 31.1719 31.1914C31.875 31.1914 32.3828 30.6836 32.3828 29.9609L32.3828 19.5312C32.3828 16.6992 30.957 14.4336 27.9297 14.4336C27.2266 14.4336 26.582 14.6094 26.0547 14.8438L28.3594 9.39453C28.418 9.23828 28.457 9.08203 28.457 8.92578C28.457 8.47656 28.1641 8.20312 27.6953 8.20312C27.3242 8.20312 27.0703 8.45703 26.9141 8.80859Z" fill="black" fill-opacity="0.85"/>
 </g>
</svg>
