<?xml version="1.0" encoding="UTF-8"?>
<!--Generator: Apple Native CoreSVG 326-->
<!DOCTYPE svg
PUBLIC "-//W3C//DTD SVG 1.1//EN"
       "http://www.w3.org/Graphics/SVG/1.1/DTD/svg11.dtd">
<svg version="1.1" xmlns="http://www.w3.org/2000/svg" xmlns:xlink="http://www.w3.org/1999/xlink" viewBox="0 0 64.2188 60.5273">
 <g>
  <rect height="60.5273" opacity="0" width="64.2188" x="0" y="0"/>
  <path d="M24.8828 4.64844C25.3516 5.11719 25.3516 5.95703 24.9414 6.77734C24.1992 8.28125 23.7305 10.918 23.7305 13.4375C23.7305 23.2812 30 29.4141 39.9805 29.4141C42.5 29.4141 44.5117 29.043 46.2305 28.3789C47.0312 28.0859 47.7344 28.1641 48.125 28.5742C48.5938 29.0625 48.6719 29.8438 48.2812 30.7227C47.6643 32.0866 46.9014 33.3675 45.9896 34.5312L15.2928 34.5312C12.6865 31.1543 11.3477 26.8948 11.3477 22.5195C11.3477 14.3359 15.9375 7.34375 22.6367 4.43359C23.5938 4.02344 24.3945 4.14062 24.8828 4.64844Z" fill="black" fill-opacity="0.85"/>
  <path d="M8.53516 48.3008C9.21875 48.3008 9.76562 47.7734 9.76562 47.0898C9.76562 46.3867 9.21875 45.8594 8.53516 45.8594C7.85156 45.8594 7.32422 46.3867 7.32422 47.0898C7.32422 47.7734 7.85156 48.3008 8.53516 48.3008ZM19.1992 48.3008C19.8828 48.3008 20.4102 47.7734 20.4102 47.0898C20.4102 46.3867 19.8828 45.8594 19.1992 45.8594C18.4961 45.8594 17.9688 46.3867 17.9688 47.0898C17.9688 47.7734 18.4961 48.3008 19.1992 48.3008ZM29.8438 48.3008C30.5273 48.3008 31.0547 47.7734 31.0547 47.0898C31.0547 46.3867 30.5273 45.8594 29.8438 45.8594C29.1602 45.8594 28.6133 46.3867 28.6133 47.0898C28.6133 47.7734 29.1602 48.3008 29.8438 48.3008ZM40.4883 48.3008C41.1719 48.3008 41.6992 47.7734 41.6992 47.0898C41.6992 46.3867 41.1719 45.8594 40.4883 45.8594C39.8047 45.8594 39.2578 46.3867 39.2578 47.0898C39.2578 47.7734 39.8047 48.3008 40.4883 48.3008ZM51.1328 48.3008C51.8164 48.3008 52.3633 47.7734 52.3633 47.0898C52.3633 46.3867 51.8164 45.8594 51.1328 45.8594C50.4492 45.8594 49.9023 46.3867 49.9023 47.0898C49.9023 47.7734 50.4492 48.3008 51.1328 48.3008ZM5.33203 54.4141C6.01562 54.4141 6.54297 53.8867 6.54297 53.2031C6.54297 52.5 6.01562 51.9727 5.33203 51.9727C4.64844 51.9727 4.10156 52.5 4.10156 53.2031C4.10156 53.8867 4.64844 54.4141 5.33203 54.4141ZM15.9766 54.4141C16.6602 54.4141 17.1875 53.8867 17.1875 53.2031C17.1875 52.5 16.6602 51.9727 15.9766 51.9727C15.293 51.9727 14.7461 52.5 14.7461 53.2031C14.7461 53.8867 15.293 54.4141 15.9766 54.4141ZM26.6211 54.4141C27.3047 54.4141 27.8516 53.8867 27.8516 53.2031C27.8516 52.5 27.3047 51.9727 26.6211 51.9727C25.9375 51.9727 25.3906 52.5 25.3906 53.2031C25.3906 53.8867 25.9375 54.4141 26.6211 54.4141ZM37.2656 54.4141C37.9492 54.4141 38.4961 53.8867 38.4961 53.2031C38.4961 52.5 37.9492 51.9727 37.2656 51.9727C36.582 51.9727 36.0547 52.5 36.0547 53.2031C36.0547 53.8867 36.582 54.4141 37.2656 54.4141ZM47.9102 54.4141C48.5938 54.4141 49.1406 53.8867 49.1406 53.2031C49.1406 52.5 48.5938 51.9727 47.9102 51.9727C47.2266 51.9727 46.6992 52.5 46.6992 53.2031C46.6992 53.8867 47.2266 54.4141 47.9102 54.4141ZM58.5547 54.4141C59.2578 54.4141 59.7852 53.8867 59.7852 53.2031C59.7852 52.5 59.2578 51.9727 58.5547 51.9727C57.8711 51.9727 57.3438 52.5 57.3438 53.2031C57.3438 53.8867 57.8711 54.4141 58.5547 54.4141ZM12.7539 60.5273C13.4375 60.5273 13.9844 60 13.9844 59.2969C13.9844 58.6133 13.4375 58.0859 12.7539 58.0859C12.0703 58.0859 11.543 58.6133 11.543 59.2969C11.543 60 12.0703 60.5273 12.7539 60.5273ZM23.3984 60.5273C24.082 60.5273 24.6289 60 24.6289 59.2969C24.6289 58.6133 24.082 58.0859 23.3984 58.0859C22.7148 58.0859 22.1875 58.6133 22.1875 59.2969C22.1875 60 22.7148 60.5273 23.3984 60.5273ZM34.043 60.5273C34.7461 60.5273 35.2734 60 35.2734 59.2969C35.2734 58.6133 34.7461 58.0859 34.043 58.0859C33.3594 58.0859 32.832 58.6133 32.832 59.2969C32.832 60 33.3594 60.5273 34.043 60.5273ZM44.707 60.5273C45.3906 60.5273 45.918 60 45.918 59.2969C45.918 58.6133 45.3906 58.0859 44.707 58.0859C44.0234 58.0859 43.4766 58.6133 43.4766 59.2969C43.4766 60 44.0234 60.5273 44.707 60.5273ZM55.3516 60.5273C56.0352 60.5273 56.5625 60 56.5625 59.2969C56.5625 58.6133 56.0352 58.0859 55.3516 58.0859C54.668 58.0859 54.1211 58.6133 54.1211 59.2969C54.1211 60 54.668 60.5273 55.3516 60.5273ZM6.11328 40.0195L57.6758 40.0195C58.457 40.0195 59.0625 39.4141 59.0625 38.6328C59.0625 37.8516 58.457 37.2461 57.6758 37.2461L6.11328 37.2461C5.33203 37.2461 4.70703 37.8516 4.70703 38.6328C4.70703 39.4141 5.33203 40.0195 6.11328 40.0195Z" fill="black" fill-opacity="0.85"/>
 </g>
</svg>
