<?xml version="1.0" encoding="UTF-8"?>
<!--Generator: Apple Native CoreSVG 326-->
<!DOCTYPE svg
PUBLIC "-//W3C//DTD SVG 1.1//EN"
       "http://www.w3.org/Graphics/SVG/1.1/DTD/svg11.dtd">
<svg version="1.1" xmlns="http://www.w3.org/2000/svg" xmlns:xlink="http://www.w3.org/1999/xlink" viewBox="0 0 62.3438 49.2383">
 <g>
  <rect height="49.2383" opacity="0" width="62.3438" x="0" y="0"/>
  <path d="M6.11328 41.2109L55.8789 41.2109C59.6875 41.2109 61.9727 38.9258 61.9727 35.1172L61.9727 6.09375C61.9727 2.28516 59.6875 0 55.8789 0L6.11328 0C2.30469 0 0 2.28516 0 6.09375L0 35.1172C0 38.9258 2.30469 41.2109 6.11328 41.2109ZM6.17188 37.7539C4.47266 37.7539 3.45703 36.7578 3.45703 35.0586L3.45703 6.17188C3.45703 4.45312 4.47266 3.45703 6.17188 3.45703L55.8008 3.45703C57.5 3.45703 58.5156 4.45312 58.5156 6.17188L58.5156 35.0586C58.5156 36.7578 57.5 37.7539 55.8008 37.7539ZM18.4961 49.2188L43.4961 49.2188C44.4531 49.2188 45.2344 48.4375 45.2344 47.4805C45.2344 46.5039 44.4531 45.7227 43.4961 45.7227L18.4961 45.7227C17.5195 45.7227 16.7383 46.5039 16.7383 47.4805C16.7383 48.4375 17.5195 49.2188 18.4961 49.2188Z" fill="black" fill-opacity="0.85"/>
  <path d="M38.3008 15.9375C39.4922 15.6445 39.8242 15.4102 39.8242 13.9844L39.8242 9.21875C39.8242 8.30078 39.5117 7.87109 38.2031 8.20312L31.1133 9.96094C29.9023 10.2539 29.6484 10.4883 29.6484 11.9531L29.6484 23.3008C29.6484 24.3945 29.5508 24.5898 28.3008 24.9219L26.0156 25.5469C23.7891 26.1328 21.9336 27.4414 21.9336 29.8242C21.9336 31.9336 23.4961 33.418 25.957 33.418C29.4531 33.418 31.7578 30.9375 31.7578 27.3828L31.7578 18.5938C31.7578 17.6953 31.9727 17.4609 32.5 17.3438Z" fill="black" fill-opacity="0.85"/>
 </g>
</svg>
