<?xml version="1.0" encoding="UTF-8"?>
<!--Generator: Apple Native CoreSVG 326-->
<!DOCTYPE svg
PUBLIC "-//W3C//DTD SVG 1.1//EN"
       "http://www.w3.org/Graphics/SVG/1.1/DTD/svg11.dtd">
<svg version="1.1" xmlns="http://www.w3.org/2000/svg" xmlns:xlink="http://www.w3.org/1999/xlink" viewBox="0 0 46.1914 45.8398">
 <g>
  <rect height="45.8398" opacity="0" width="46.1914" x="0" y="0"/>
  <path d="M42.9688 2.89062C40.5273 0.46875 37.1484 0 32.6758 0L13.0078 0C8.69141 0 5.29297 0.46875 2.87109 2.89062C0.449219 5.3125 0 8.67188 0 13.0078L0 32.6758C0 37.168 0.429688 40.5273 2.85156 42.9297C5.29297 45.3516 8.67188 45.8203 13.1445 45.8203L32.6758 45.8203C37.1484 45.8203 40.5469 45.3516 42.9688 42.9297C45.3906 40.5078 45.8203 37.168 45.8203 32.6758L45.8203 13.125C45.8203 8.65234 45.3906 5.29297 42.9688 2.89062ZM42.3633 12.4414L42.3633 33.3594C42.3633 36.2109 41.9531 38.8477 40.4297 40.3906C38.8867 41.9336 36.1914 42.3633 33.3594 42.3633L12.4609 42.3633C9.62891 42.3633 6.93359 41.9141 5.39062 40.3906C3.86719 38.8477 3.45703 36.2109 3.45703 33.3594L3.45703 12.5781C3.45703 9.62891 3.86719 6.95312 5.39062 5.41016C6.91406 3.86719 9.64844 3.45703 12.5781 3.45703L33.3594 3.45703C36.1914 3.45703 38.8867 3.88672 40.4297 5.42969C41.9727 6.95312 42.3633 9.60938 42.3633 12.4414Z" fill="black" fill-opacity="0.85"/>
  <path d="M22.9297 36.3672C30.3711 36.3672 36.3867 30.3516 36.3867 22.9102C36.3867 15.4492 30.3711 9.43359 22.9297 9.43359C15.4883 9.43359 9.45312 15.4492 9.45312 22.9102C9.45312 30.3516 15.4883 36.3672 22.9297 36.3672ZM22.9492 33.2227C17.2266 33.2227 12.6172 28.6133 12.6172 22.9102C12.6172 17.1875 17.2266 12.5781 22.9492 12.5781C28.6523 12.5781 33.2617 17.1875 33.2617 22.9102C33.2617 28.6133 28.6523 33.2227 22.9492 33.2227ZM30.2344 32.5195L32.5391 30.2344L15.5664 13.2812L13.2812 15.5664Z" fill="black" fill-opacity="0.85"/>
 </g>
</svg>
