<?xml version="1.0" encoding="UTF-8"?>
<!--Generator: Apple Native CoreSVG 326-->
<!DOCTYPE svg
PUBLIC "-//W3C//DTD SVG 1.1//EN"
       "http://www.w3.org/Graphics/SVG/1.1/DTD/svg11.dtd">
<svg version="1.1" xmlns="http://www.w3.org/2000/svg" xmlns:xlink="http://www.w3.org/1999/xlink" viewBox="0 0 59.1602 42.4023">
 <g>
  <rect height="42.4023" opacity="0" width="59.1602" x="0" y="0"/>
  <path d="M10.4688 31.4648C10.4688 32.3047 11.1523 32.9883 11.9922 32.9883L46.7969 32.9883C47.6367 32.9883 48.3398 32.3047 48.3398 31.4648C48.3398 30.625 47.6367 29.9414 46.7969 29.9414L11.9922 29.9414C11.1523 29.9414 10.4688 30.625 10.4688 31.4648ZM0 31.4648C0 37.5977 4.78516 42.4023 11.4062 42.4023L47.4023 42.4023C54.0039 42.4023 58.7891 37.5977 58.7891 31.4648C58.7891 29.6484 58.2422 27.9883 57.6172 26.4453L48.7891 5.83984C47.1875 2.03125 43.9844 0.0585938 39.7461 0.0585938L19.043 0.0585938C14.8242 0.0585938 11.6211 2.03125 10.0195 5.83984L1.17188 26.4453C0.546875 27.9688 0 29.6484 0 31.4648ZM3.45703 31.4648C3.45703 27.2461 6.69922 24.0039 11.4062 24.0039L47.4023 24.0039C52.0898 24.0039 55.332 27.2461 55.332 31.4648C55.332 36.0742 52.0898 38.9258 47.4023 38.9258L11.4062 38.9258C6.69922 38.9258 3.45703 35.6836 3.45703 31.4648ZM7.24609 21.4062L13.3398 6.75781C14.3359 4.33594 16.3672 3.10547 19.1602 3.10547L39.6484 3.10547C42.4219 3.10547 44.4727 4.33594 45.4492 6.75781L51.5234 21.3867C50.293 20.8594 48.8867 20.5273 47.4023 20.5273L11.4062 20.5273C9.90234 20.5273 8.49609 20.8594 7.24609 21.4062Z" fill="black" fill-opacity="0.85"/>
 </g>
</svg>
