<?xml version="1.0" encoding="UTF-8"?>
<!--Generator: Apple Native CoreSVG 326-->
<!DOCTYPE svg
PUBLIC "-//W3C//DTD SVG 1.1//EN"
       "http://www.w3.org/Graphics/SVG/1.1/DTD/svg11.dtd">
<svg version="1.1" xmlns="http://www.w3.org/2000/svg" xmlns:xlink="http://www.w3.org/1999/xlink" viewBox="0 0 59.5508 45.918">
 <g>
  <rect height="45.918" opacity="0" width="59.5508" x="0" y="0"/>
  <path d="M59.1797 7.53906L59.1797 38.3984C59.1797 43.3594 56.6211 45.918 51.5625 45.918L7.59766 45.918C2.55859 45.918 0 43.3984 0 38.3984L0 7.53906C0 2.53906 2.55859 0 7.59766 0L51.5625 0C56.6211 0 59.1797 2.55859 59.1797 7.53906ZM12.4805 42.6758L46.7188 42.6758C45.0781 36.1914 38.0469 31.1719 29.6094 31.1719C21.1523 31.1719 14.1211 36.1914 12.4805 42.6758ZM21.0352 17.6172C21.0547 22.9688 24.8242 26.9531 29.6094 26.9922C34.375 27.0312 38.1641 22.9688 38.1641 17.6172C38.1641 12.5781 34.375 8.4375 29.6094 8.4375C24.8242 8.4375 21.0156 12.5781 21.0352 17.6172Z" fill="black" fill-opacity="0.85"/>
 </g>
</svg>
