<?xml version="1.0" encoding="UTF-8"?>
<!--Generator: Apple Native CoreSVG 326-->
<!DOCTYPE svg
PUBLIC "-//W3C//DTD SVG 1.1//EN"
       "http://www.w3.org/Graphics/SVG/1.1/DTD/svg11.dtd">
<svg version="1.1" xmlns="http://www.w3.org/2000/svg" xmlns:xlink="http://www.w3.org/1999/xlink" viewBox="0 0 95.2148 51.6211">
 <g>
  <rect height="51.6211" opacity="0" width="95.2148" x="0" y="0"/>
  <path d="M29.6474 33.075C25.5346 36.6475 23.2227 41.2044 23.2227 45.2734C23.2227 46.4611 23.528 47.5708 24.1147 48.5156L4.19922 48.5156C1.23047 48.5156 0 47.3438 0 45.0781C0 38.0664 7.07031 29.7656 18.3984 29.7656C22.8757 29.7656 26.6879 31.0623 29.6474 33.075ZM27.1289 16.25C27.1289 21.6992 23.1445 25.8984 18.418 25.8984C13.6914 25.8984 9.70703 21.6992 9.70703 16.2891C9.70703 10.9961 13.7305 6.85547 18.418 6.85547C23.1055 6.85547 27.1289 10.918 27.1289 16.25Z" fill="black" fill-opacity="0.85"/>
  <path d="M94.8438 45.0781C94.8438 47.3438 93.6133 48.5156 90.6641 48.5156L70.8222 48.5156C71.4111 47.5708 71.7188 46.4611 71.7188 45.2734C71.7188 41.1904 69.3908 36.616 65.2509 33.0369C68.2033 31.0462 71.9959 29.7656 76.4453 29.7656C87.7734 29.7656 94.8438 38.0664 94.8438 45.0781ZM85.1758 16.25C85.1758 21.6992 81.2109 25.8984 76.4844 25.8984C71.7578 25.8984 67.7539 21.6992 67.7539 16.2891C67.7539 10.9961 71.7773 6.85547 76.4844 6.85547C81.1719 6.85547 85.1758 10.918 85.1758 16.25Z" fill="black" fill-opacity="0.85"/>
  <path d="M47.4805 25.332C52.9297 25.332 57.5 20.5078 57.5 14.2383C57.5 8.125 52.8906 3.45703 47.4805 3.45703C42.0898 3.45703 37.4805 8.20312 37.4805 14.2773C37.4805 20.5078 42.0508 25.332 47.4805 25.332ZM30.4492 48.5156L64.4922 48.5156C67.0312 48.5156 68.5938 47.2852 68.5938 45.2734C68.5938 38.7891 60.4883 29.8438 47.4609 29.8438C34.4336 29.8438 26.3281 38.7891 26.3281 45.2734C26.3281 47.2852 27.8906 48.5156 30.4492 48.5156Z" fill="black" fill-opacity="0.85"/>
 </g>
</svg>
