<?xml version="1.0" encoding="UTF-8"?>
<!--Generator: Apple Native CoreSVG 326-->
<!DOCTYPE svg
PUBLIC "-//W3C//DTD SVG 1.1//EN"
       "http://www.w3.org/Graphics/SVG/1.1/DTD/svg11.dtd">
<svg version="1.1" xmlns="http://www.w3.org/2000/svg" xmlns:xlink="http://www.w3.org/1999/xlink" viewBox="0 0 42.3047 53.8477">
 <g>
  <rect height="53.8477" opacity="0" width="42.3047" x="0" y="0"/>
  <path d="M0 52.0312C0 53.125 0.722656 53.8477 1.81641 53.8477L40.1172 53.8477C41.2109 53.8477 41.9336 53.125 41.9336 52.0312L41.9336 1.83594C41.9336 0.742188 41.2109 0.0195312 40.1172 0.0195312L1.81641 0.0195312C0.722656 0.0195312 0 0.742188 0 1.83594ZM3.45703 49.707L3.45703 4.16016C3.45703 3.67188 3.65234 3.47656 4.14062 3.47656L37.793 3.47656C38.2812 3.47656 38.4766 3.67188 38.4766 4.16016L38.4766 49.707C38.4766 50.1953 38.2812 50.3906 37.793 50.3906L4.14062 50.3906C3.65234 50.3906 3.45703 50.1953 3.45703 49.707Z" fill="black" fill-opacity="0.85"/>
  <path d="M6.28906 46.2305C6.28906 47.0703 6.77734 47.5586 7.59766 47.5586L34.3359 47.5586C35.1562 47.5586 35.6445 47.0703 35.6445 46.2305L35.6445 7.63672C35.6445 6.79688 35.1562 6.30859 34.3359 6.30859L7.59766 6.30859C6.77734 6.30859 6.28906 6.79688 6.28906 7.63672ZM8.55469 44.7656L8.55469 9.10156C8.55469 8.75 8.73047 8.57422 9.08203 8.57422L32.8516 8.57422C33.2031 8.57422 33.3789 8.75 33.3789 9.10156L33.3789 44.7656C33.3789 45.1172 33.2031 45.293 32.8516 45.293L9.08203 45.293C8.73047 45.293 8.55469 45.1172 8.55469 44.7656ZM8.51562 46.3281L33.3398 46.3281C34.2773 46.3281 34.707 45.7227 34.707 44.8438C34.707 41.8945 30.3125 34.1406 20.9375 34.1406C11.543 34.1406 7.14844 41.8945 7.14844 44.8438C7.14844 45.7227 7.57812 46.3281 8.51562 46.3281ZM20.9375 31.9531C24.7266 31.9727 27.793 28.75 27.793 24.4727C27.793 20.4492 24.7266 17.1289 20.9375 17.1289C17.1289 17.1289 14.0625 20.4492 14.0625 24.4727C14.0625 28.75 17.1289 31.9336 20.9375 31.9531Z" fill="black" fill-opacity="0.85"/>
 </g>
</svg>
