<?xml version="1.0" encoding="UTF-8"?>
<!--Generator: Apple Native CoreSVG 326-->
<!DOCTYPE svg
PUBLIC "-//W3C//DTD SVG 1.1//EN"
       "http://www.w3.org/Graphics/SVG/1.1/DTD/svg11.dtd">
<svg version="1.1" xmlns="http://www.w3.org/2000/svg" xmlns:xlink="http://www.w3.org/1999/xlink" viewBox="0 0 87.7539 59.1519">
 <g>
  <rect height="59.1519" opacity="0" width="87.7539" x="0" y="0"/>
  <path d="M82.5781 0.777102C85.8398 5.09351 87.7539 11.2849 87.7539 17.5544C87.7539 23.8044 85.8203 29.9568 82.5781 34.3318C82.0117 35.1521 81.0156 35.3279 80.2148 34.781C79.4336 34.2537 79.3164 33.238 79.9219 32.3591C82.7539 28.3552 84.4141 23.0818 84.4141 17.5544C84.4141 12.0271 82.793 6.73413 79.9219 2.74976C79.2969 1.85132 79.4336 0.855227 80.2148 0.308352C81.0156-0.238523 82.0117-0.0432102 82.5781 0.777102Z" fill="black" fill-opacity="0.85"/>
  <path d="M73.5156 7.37866C75.4492 9.93726 76.6602 13.6091 76.6602 17.5544C76.6602 21.4802 75.4492 25.1716 73.5156 27.7107C72.9492 28.531 71.9336 28.7068 71.1914 28.199C70.332 27.574 70.2148 26.5388 70.8594 25.6404C72.4414 23.4138 73.3203 20.6404 73.3203 17.5544C73.3203 14.449 72.4609 11.656 70.8594 9.46851C70.1953 8.57007 70.332 7.51538 71.1914 6.90991C71.9336 6.4021 72.9492 6.55835 73.5156 7.37866Z" fill="black" fill-opacity="0.85"/>
  <path d="M34.3848 36.6215C30.2526 40.2009 27.9297 44.7748 27.9297 48.863C27.9297 50.0366 28.1767 51.1412 28.7416 52.0857L8.96484 52.0857C5.99609 52.0857 4.76562 50.9138 4.76562 48.6677C4.76562 41.656 11.8359 33.3357 23.1641 33.3357C27.6269 33.3357 31.4281 34.6226 34.3848 36.6215ZM31.9141 19.8201C31.9141 25.2693 27.9297 29.488 23.2031 29.488C18.4766 29.488 14.4727 25.2693 14.4727 19.8591C14.4727 14.5662 18.5156 10.4451 23.2031 10.4451C27.8906 10.4451 31.9141 14.488 31.9141 19.8201Z" fill="black" fill-opacity="0.85"/>
  <path d="M52.207 28.9216C57.6562 28.9216 62.2266 24.0779 62.2266 17.8279C62.2266 11.7146 57.6172 7.04663 52.207 7.04663C46.8164 7.04663 42.207 11.7927 42.207 17.8669C42.207 24.0779 46.7773 28.9216 52.207 28.9216ZM36.0742 52.0857L68.3008 52.0857C71.9141 52.0857 73.3203 51.0505 73.3203 48.863C73.3203 42.3787 65.2148 33.4334 52.1875 33.4334C39.1602 33.4334 31.0547 42.3787 31.0547 48.863C31.0547 51.0505 32.4609 52.0857 36.0742 52.0857Z" fill="black" fill-opacity="0.85"/>
 </g>
</svg>
