<?xml version="1.0" encoding="UTF-8"?>
<!--Generator: Apple Native CoreSVG 326-->
<!DOCTYPE svg
PUBLIC "-//W3C//DTD SVG 1.1//EN"
       "http://www.w3.org/Graphics/SVG/1.1/DTD/svg11.dtd">
<svg version="1.1" xmlns="http://www.w3.org/2000/svg" xmlns:xlink="http://www.w3.org/1999/xlink" viewBox="0 0 107.129 52.4414">
 <g>
  <rect height="52.4414" opacity="0" width="107.129" x="0" y="0"/>
  <path d="M103.633 45.5078C103.633 48.125 101.797 49.3359 97.9102 49.3359L77.2029 49.3359C77.8511 48.4023 78.2004 47.295 78.2764 46.0742L98.8672 46.0742C99.8242 46.0742 100.176 45.8203 100.176 45.1172C100.176 40.5664 93.5547 32.7539 81.7969 32.7539C78.5057 32.7539 75.6167 33.3681 73.1794 34.3661C72.3874 33.5265 71.5016 32.7259 70.5129 31.9898C73.6645 30.4448 77.4625 29.4727 81.7969 29.4727C95.332 29.4727 103.633 38.9258 103.633 45.5078ZM92.5195 14.4727C92.5195 20.9375 87.7539 26.1523 81.8359 26.1523C75.918 26.1523 71.1328 20.957 71.1328 14.5117C71.1328 8.20312 75.9375 3.08594 81.8359 3.08594C87.7539 3.08594 92.5195 8.125 92.5195 14.4727ZM74.5898 14.5117C74.5898 19.2188 77.8711 22.8906 81.8359 22.8906C85.8008 22.8906 89.0625 19.1797 89.0625 14.4727C89.0625 9.88281 85.8203 6.34766 81.8359 6.34766C77.8516 6.34766 74.5898 9.94141 74.5898 14.5117Z" fill="black" fill-opacity="0.85"/>
  <path d="M75.1758 45.5078C75.1758 48.125 73.3398 49.3359 69.4531 49.3359L48.7849 49.3359C49.4331 48.4023 49.7825 47.295 49.8585 46.0742L70.4102 46.0742C71.3672 46.0742 71.7188 45.8203 71.7188 45.1172C71.7188 40.5664 65.0977 32.7539 53.3594 32.7539C50.0746 32.7539 47.1905 33.3657 44.7564 34.3603C43.9617 33.5191 43.0733 32.7169 42.0817 31.9795C45.2328 30.4407 49.0281 29.4727 53.3594 29.4727C66.8945 29.4727 75.1758 38.9258 75.1758 45.5078ZM64.082 14.4727C64.082 20.9375 59.2969 26.1523 53.3789 26.1523C47.4609 26.1523 42.6953 20.957 42.6953 14.5117C42.6953 8.20312 47.5 3.08594 53.3789 3.08594C59.2969 3.08594 64.082 8.125 64.082 14.4727ZM46.1523 14.5117C46.1523 19.2188 49.4336 22.8906 53.3789 22.8906C57.3633 22.8906 60.625 19.1797 60.625 14.4727C60.625 9.88281 57.3633 6.34766 53.3789 6.34766C49.4141 6.34766 46.1523 9.94141 46.1523 14.5117Z" fill="black" fill-opacity="0.85"/>
  <path d="M24.9609 26.1523C30.8789 26.1523 35.6641 20.9375 35.6641 14.4727C35.6641 8.125 30.8789 3.08594 24.9609 3.08594C19.0625 3.08594 14.2578 8.20312 14.2578 14.5117C14.2578 20.957 19.043 26.1523 24.9609 26.1523ZM24.9609 22.8906C20.9961 22.8906 17.7148 19.2188 17.7148 14.5117C17.7148 9.94141 20.9766 6.34766 24.9609 6.34766C28.9453 6.34766 32.1875 9.88281 32.1875 14.4727C32.1875 19.1797 28.9258 22.8906 24.9609 22.8906ZM8.82812 49.3359L41.0352 49.3359C44.9219 49.3359 46.7578 48.125 46.7578 45.5078C46.7578 38.9258 38.457 29.4727 24.9414 29.4727C11.4062 29.4727 3.10547 38.9258 3.10547 45.5078C3.10547 48.125 4.94141 49.3359 8.82812 49.3359ZM7.87109 46.0742C6.91406 46.0742 6.5625 45.8203 6.5625 45.1172C6.5625 40.5664 13.1836 32.7539 24.9414 32.7539C36.6797 32.7539 43.3008 40.5664 43.3008 45.1172C43.3008 45.8203 42.9492 46.0742 41.9922 46.0742Z" fill="black" fill-opacity="0.85"/>
 </g>
</svg>
