<?xml version="1.0" encoding="UTF-8"?>
<!--Generator: Apple Native CoreSVG 326-->
<!DOCTYPE svg
PUBLIC "-//W3C//DTD SVG 1.1//EN"
       "http://www.w3.org/Graphics/SVG/1.1/DTD/svg11.dtd">
<svg version="1.1" xmlns="http://www.w3.org/2000/svg" xmlns:xlink="http://www.w3.org/1999/xlink" viewBox="0 0 87.9883 40.8789">
 <g>
  <rect height="40.8789" opacity="0" width="87.9883" x="0" y="0"/>
  <path d="M18.4766 20.3711C23.7109 20.3711 27.9492 15.7617 27.9492 10.0781C27.9492 4.47266 23.7109 0 18.4766 0C13.2617 0 9.02344 4.55078 9.02344 10.0977C9.02344 15.8008 13.2617 20.3711 18.4766 20.3711ZM18.4766 17.1094C15.1562 17.1094 12.4609 14.0625 12.4609 10.0977C12.4609 6.25 15.1562 3.26172 18.4766 3.26172C21.7969 3.26172 24.5117 6.19141 24.5117 10.0781C24.5117 14.0234 21.8164 17.1094 18.4766 17.1094ZM5.03906 40.7617L31.8555 40.7617C35.2148 40.7617 36.9141 39.5898 36.9141 37.207C36.9141 31.4453 30.2539 23.1445 18.457 23.1445C6.66016 23.1445 0 31.4453 0 37.207C0 39.5898 1.69922 40.7617 5.03906 40.7617ZM4.27734 37.5C3.69141 37.5 3.45703 37.2461 3.45703 36.7969C3.45703 33.0859 8.4375 26.4258 18.457 26.4258C28.4766 26.4258 33.457 33.0859 33.457 36.7969C33.457 37.2461 33.2227 37.5 32.6367 37.5ZM69.1797 20.4688C74.4141 20.4688 78.6523 15.8594 78.6523 10.1758C78.6523 4.57031 74.4141 0.0976562 69.1797 0.0976562C63.9648 0.0976562 59.7266 4.64844 59.7266 10.1953C59.7266 15.8984 63.9648 20.4688 69.1797 20.4688ZM69.1797 17.207C65.8594 17.207 63.1641 14.1602 63.1641 10.1953C63.1641 6.34766 65.8594 3.35938 69.1797 3.35938C72.5 3.35938 75.2148 6.28906 75.2148 10.1758C75.2148 14.1211 72.5195 17.207 69.1797 17.207ZM55.7422 40.8594L82.5586 40.8594C85.8984 40.8594 87.6172 39.6875 87.6172 37.3047C87.6172 31.543 80.957 23.2617 69.1602 23.2617C57.3633 23.2617 50.7031 31.543 50.7031 37.3047C50.7031 39.6875 52.4023 40.8594 55.7422 40.8594ZM54.9805 37.5977C54.3945 37.5977 54.1602 37.3438 54.1602 36.8945C54.1602 33.1836 59.1211 26.5234 69.1602 26.5234C79.1797 26.5234 84.1602 33.1836 84.1602 36.8945C84.1602 37.3438 83.9258 37.5977 83.3398 37.5977Z" fill="black" fill-opacity="0.85"/>
  <path d="M35.8789 20.4688C36.9531 20.4688 37.8516 19.5703 37.8516 18.4961C37.8516 17.4023 36.9531 16.5234 35.8789 16.5234C34.7852 16.5234 33.8867 17.4023 33.8867 18.4961C33.8867 19.5703 34.7852 20.4688 35.8789 20.4688ZM43.8086 20.4688C44.8828 20.4688 45.7812 19.5703 45.7812 18.4961C45.7812 17.4023 44.8828 16.5234 43.8086 16.5234C42.7148 16.5234 41.8359 17.4023 41.8359 18.4961C41.8359 19.5703 42.7148 20.4688 43.8086 20.4688ZM51.7188 20.4688C52.8125 20.4688 53.6914 19.5703 53.6914 18.4961C53.6914 17.4023 52.8125 16.5234 51.7188 16.5234C50.6445 16.5234 49.7461 17.4023 49.7461 18.4961C49.7461 19.5703 50.6445 20.4688 51.7188 20.4688Z" fill="black" fill-opacity="0.85"/>
 </g>
</svg>
