<?xml version="1.0" encoding="UTF-8"?>
<!--Generator: Apple Native CoreSVG 326-->
<!DOCTYPE svg
PUBLIC "-//W3C//DTD SVG 1.1//EN"
       "http://www.w3.org/Graphics/SVG/1.1/DTD/svg11.dtd">
<svg version="1.1" xmlns="http://www.w3.org/2000/svg" xmlns:xlink="http://www.w3.org/1999/xlink" viewBox="0 0 59.5508 45.918">
 <g>
  <rect height="45.918" opacity="0" width="59.5508" x="0" y="0"/>
  <path d="M59.1797 7.53906L59.1797 38.3984C59.1797 43.3594 56.6211 45.918 51.5625 45.918L7.59766 45.918C2.55859 45.918 0 43.3984 0 38.3984L0 7.53906C0 2.53906 2.55859 0 7.59766 0L51.5625 0C56.6211 0 59.1797 2.55859 59.1797 7.53906ZM7.71484 33.4375C7.71484 34.1406 8.06641 34.6484 8.82812 34.6484L28.9844 34.6484C29.7461 34.6484 30.1172 34.1406 30.1172 33.4375C30.1172 31.0156 26.5234 24.7266 18.9062 24.7266C11.2891 24.7266 7.71484 31.0156 7.71484 33.4375ZM35.5078 31.7969C34.707 31.7969 34.1211 32.4023 34.1211 33.1641C34.1211 33.9062 34.707 34.4922 35.5078 34.4922L49.5312 34.4922C50.3125 34.4922 50.8984 33.9062 50.8984 33.1641C50.8984 32.4023 50.3125 31.7969 49.5312 31.7969ZM35.5078 21.6406C34.707 21.6406 34.1211 22.2266 34.1211 22.9688C34.1211 23.7305 34.707 24.3359 35.5078 24.3359L49.5312 24.3359C50.3125 24.3359 50.8984 23.7305 50.8984 22.9688C50.8984 22.2266 50.3125 21.6406 49.5312 21.6406ZM13.3203 16.875C13.3203 20.3516 15.8203 22.9492 18.9062 22.9492C21.9922 22.9688 24.4727 20.3516 24.4727 16.875C24.4727 13.6133 21.9922 10.8984 18.9062 10.8984C15.8203 10.8984 13.3203 13.6133 13.3203 16.875ZM35.5078 11.4648C34.707 11.4648 34.1211 12.0508 34.1211 12.8125C34.1211 13.5742 34.707 14.1797 35.5078 14.1797L49.5312 14.1797C50.3125 14.1797 50.8984 13.5742 50.8984 12.8125C50.8984 12.0508 50.3125 11.4648 49.5312 11.4648Z" fill="black" fill-opacity="0.85"/>
 </g>
</svg>
