<?xml version="1.0" encoding="UTF-8"?>
<!--Generator: Apple Native CoreSVG 326-->
<!DOCTYPE svg
PUBLIC "-//W3C//DTD SVG 1.1//EN"
       "http://www.w3.org/Graphics/SVG/1.1/DTD/svg11.dtd">
<svg version="1.1" xmlns="http://www.w3.org/2000/svg" xmlns:xlink="http://www.w3.org/1999/xlink" viewBox="0 0 51.25 50.918">
 <g>
  <rect height="50.918" opacity="0" width="51.25" x="0" y="0"/>
  <path d="M50.8789 25.4492C50.8789 39.4531 39.4531 50.8789 25.4297 50.8789C11.4258 50.8789 0 39.4531 0 25.4492C0 11.4258 11.4258 0 25.4297 0C39.4531 0 50.8789 11.4258 50.8789 25.4492ZM30.8203 14.5898L26.7188 38.2227C26.6797 38.3789 26.6211 38.6719 26.6211 38.9844C26.6211 39.6289 27.0508 40.0977 27.7148 40.0977C28.4375 40.0977 28.7891 39.668 28.9258 38.9258L33.0273 15.293C33.0664 15.1367 33.125 14.8633 33.125 14.5508C33.125 13.8867 32.6758 13.4375 32.0117 13.4375C31.2891 13.4375 30.957 13.8477 30.8203 14.5898ZM13.5352 19.1016C13.5352 22.207 15.3516 23.8867 18.2617 24.9609L19.7266 25.5078C21.6992 26.25 23.0664 27.3047 23.0664 29.4141C23.0664 31.3086 21.875 32.9297 19.5117 32.9297C17.4219 32.9297 16.0938 31.7188 15.6641 29.6289C15.5078 28.9844 15.0977 28.6914 14.4531 28.6914C13.7695 28.6914 13.3008 29.1992 13.3008 29.9023C13.3008 30.1953 13.3594 30.5859 13.457 30.8398C14.2383 33.5742 16.4062 35.1562 19.4727 35.1562C23.6328 35.1562 25.6641 32.5586 25.6641 29.1602C25.6641 25.6445 23.5547 24.3164 20.8008 23.2617L19.3359 22.6953C17.4023 21.9336 16.1133 21.0156 16.1133 18.9258C16.1133 17.0312 17.2656 15.6445 19.3164 15.6445C21.2109 15.6445 22.4023 16.7773 22.8516 18.75C23.0273 19.4141 23.457 19.6875 24.082 19.6875C24.7656 19.6875 25.1758 19.1992 25.1758 18.5156C25.1758 18.3203 25.1367 18.0469 25.0977 17.8125C24.5117 15.1367 22.3047 13.3984 19.3555 13.3984C15.6445 13.3984 13.5352 15.918 13.5352 19.1016ZM34.8242 33.2812C34.8242 34.2383 35.5273 34.9414 36.4648 34.9414C37.4609 34.9414 38.1836 34.2383 38.1836 33.2812C38.1836 32.3633 37.4609 31.6211 36.4648 31.6211C35.5273 31.6211 34.8242 32.3633 34.8242 33.2812Z" fill="black" fill-opacity="0.85"/>
 </g>
</svg>
