<?xml version="1.0" encoding="UTF-8"?>
<!--Generator: Apple Native CoreSVG 326-->
<!DOCTYPE svg
PUBLIC "-//W3C//DTD SVG 1.1//EN"
       "http://www.w3.org/Graphics/SVG/1.1/DTD/svg11.dtd">
<svg version="1.1" xmlns="http://www.w3.org/2000/svg" xmlns:xlink="http://www.w3.org/1999/xlink" viewBox="0 0 46.2891 45.918">
 <g>
  <rect height="45.918" opacity="0" width="46.2891" x="0" y="0"/>
  <path d="M45.918 7.53906L45.918 38.3984C45.918 43.3594 43.3594 45.918 38.3008 45.918L7.59766 45.918C2.55859 45.918 0 43.3984 0 38.3984L0 7.53906C0 2.53906 2.55859 0 7.59766 0L38.3008 0C43.3594 0 45.918 2.55859 45.918 7.53906ZM28.3398 12.0898L24.2383 35.7227C24.2188 35.8789 24.1602 36.1719 24.1602 36.4844C24.1602 37.1289 24.5898 37.5977 25.2539 37.5977C25.9766 37.5977 26.3281 37.168 26.4453 36.4258L30.5664 12.793C30.6055 12.6367 30.6641 12.3633 30.6641 12.0508C30.6641 11.3867 30.2148 10.9375 29.5508 10.9375C28.8281 10.9375 28.4961 11.3477 28.3398 12.0898ZM11.0742 16.6016C11.0742 19.707 12.8906 21.3867 15.8008 22.4609L17.2656 23.0078C19.2383 23.75 20.6055 24.8047 20.6055 26.9141C20.6055 28.8086 19.4141 30.4297 17.0508 30.4297C14.9609 30.4297 13.6328 29.2188 13.2031 27.1289C13.0469 26.4844 12.6367 26.1914 11.9922 26.1914C11.3086 26.1914 10.8398 26.6992 10.8398 27.4023C10.8398 27.6953 10.8984 28.0859 10.9961 28.3398C11.7773 31.0742 13.9453 32.6562 16.9922 32.6562C21.1719 32.6562 23.1836 30.0586 23.1836 26.6602C23.1836 23.1445 21.0938 21.8164 18.3398 20.7617L16.875 20.1953C14.9414 19.4336 13.6523 18.5156 13.6523 16.4258C13.6523 14.5312 14.8047 13.1445 16.8555 13.1445C18.75 13.1445 19.9414 14.2773 20.3906 16.25C20.5664 16.9141 20.9961 17.1875 21.6211 17.1875C22.3047 17.1875 22.7148 16.6992 22.7148 16.0156C22.7148 15.8203 22.6758 15.5469 22.6367 15.3125C22.0508 12.6367 19.8438 10.8984 16.8945 10.8984C13.1836 10.8984 11.0742 13.418 11.0742 16.6016ZM32.3633 30.7812C32.3633 31.7383 33.0664 32.4414 34.0039 32.4414C34.9805 32.4414 35.7227 31.7383 35.7227 30.7812C35.7227 29.8633 34.9805 29.1211 34.0039 29.1211C33.0664 29.1211 32.3633 29.8633 32.3633 30.7812Z" fill="black" fill-opacity="0.85"/>
 </g>
</svg>
