<?xml version="1.0" encoding="UTF-8"?>
<!--Generator: Apple Native CoreSVG 326-->
<!DOCTYPE svg
PUBLIC "-//W3C//DTD SVG 1.1//EN"
       "http://www.w3.org/Graphics/SVG/1.1/DTD/svg11.dtd">
<svg version="1.1" xmlns="http://www.w3.org/2000/svg" xmlns:xlink="http://www.w3.org/1999/xlink" viewBox="0 0 55.3906 54.5508">
 <g>
  <rect height="54.5508" opacity="0" width="55.3906" x="0" y="0"/>
  <path d="M14.8438 54.5508C15.918 54.5508 16.6602 53.9844 17.9297 52.8516L26.7383 45.0977L44.0039 45.0977C51.0742 45.0977 55.0195 41.0547 55.0195 34.1016L55.0195 14.1797C55.0195 7.20703 51.0742 3.16406 44.0039 3.16406L11.0156 3.16406C3.92578 3.16406 0 7.1875 0 14.1797L0 34.1016C0 41.0938 3.92578 45.0977 11.0156 45.0977L12.4805 45.0977L12.4805 51.8164C12.4805 53.4766 13.3398 54.5508 14.8438 54.5508ZM15.7031 50.625L15.7031 43.2812C15.7031 42.0898 15.2539 41.6406 14.082 41.6406L11.0352 41.6406C5.99609 41.6406 3.45703 38.9453 3.45703 34.0625L3.45703 14.1992C3.45703 9.31641 5.99609 6.62109 11.0352 6.62109L43.9844 6.62109C48.9648 6.62109 51.5625 9.31641 51.5625 14.1992L51.5625 34.0625C51.5625 38.9453 48.9648 41.6406 43.9844 41.6406L26.6602 41.6406C25.4297 41.6406 24.7852 41.8359 23.9258 42.7148Z" fill="black" fill-opacity="0.85"/>
  <path d="M21.6406 29.9414C25.7617 34.0625 30.7031 37.207 34.668 37.207C36.543 37.207 38.1445 36.4648 39.2188 35.2734C40.2539 34.1211 40.5859 33.2812 40.5859 32.5C40.5859 31.9336 40.2148 31.3867 39.2969 30.7227L35.8789 28.2812C35.0195 27.6562 34.6484 27.5586 34.1211 27.5586C33.6914 27.5586 33.3398 27.6367 32.6172 28.0469L30.3711 29.2773C30.1172 29.4141 29.9805 29.4531 29.7852 29.4531C29.5312 29.4531 29.3555 29.3945 29.082 29.2773C27.9883 28.7695 26.5234 27.5977 25.1758 26.2695C23.8672 24.9609 22.832 23.5938 22.2852 22.5391C22.2266 22.3828 22.1289 22.1484 22.1289 21.9336C22.1289 21.7578 22.2266 21.6016 22.3438 21.4062L23.6523 19.1602C24.0234 18.5547 24.1211 18.2227 24.1211 17.7344C24.1211 17.1875 23.9453 16.6016 23.3984 15.8594L21.0547 12.5586C20.3906 11.6211 19.8828 11.0547 19.1211 11.0547C18.1836 11.0547 17.0703 11.7969 16.25 12.5586C15.0781 13.6719 14.4531 15.2539 14.4531 17.0117C14.4531 20.9961 17.5195 25.8398 21.6406 29.9414Z" fill="black" fill-opacity="0.85"/>
 </g>
</svg>
