<?xml version="1.0" encoding="UTF-8"?>
<!--Generator: Apple Native CoreSVG 326-->
<!DOCTYPE svg
PUBLIC "-//W3C//DTD SVG 1.1//EN"
       "http://www.w3.org/Graphics/SVG/1.1/DTD/svg11.dtd">
<svg version="1.1" xmlns="http://www.w3.org/2000/svg" xmlns:xlink="http://www.w3.org/1999/xlink" viewBox="0 0 52.3242 65.6836">
 <g>
  <rect height="65.6836" opacity="0" width="52.3242" x="0" y="0"/>
  <path d="M37.2726 7.07031L14.6805 7.07031C14.8056 5.29862 15.9546 4.25781 17.832 4.25781L34.1211 4.25781C35.9986 4.25781 37.1475 5.29862 37.2726 7.07031Z" fill="black" fill-opacity="0.85"/>
  <path d="M42.3128 13.884C41.6187 13.7785 40.8836 13.7305 40.1172 13.7305L11.8359 13.7305C11.0623 13.7305 10.3209 13.7789 9.6213 13.8851C9.88879 11.8259 11.3193 10.6641 13.6133 10.6641L38.3398 10.6641C40.6335 10.6641 42.0481 11.8255 42.3128 13.884Z" fill="black" fill-opacity="0.85"/>
  <path d="M47.7148 25.4883L47.7148 53.9258C47.7148 58.9062 45.1562 61.4648 40.1172 61.4648L11.8359 61.4648C6.77734 61.4648 4.23828 58.9258 4.23828 53.9258L4.23828 25.4883C4.23828 20.5078 6.77734 17.9688 11.8359 17.9688L40.1172 17.9688C45.1562 17.9688 47.7148 20.5273 47.7148 25.4883ZM18.7305 30.7812L18.7305 48.8867C18.7305 50.0391 20.0391 50.6055 21.1523 49.9219L35.8789 41.1719C36.9141 40.5664 36.8945 39.1406 35.8789 38.5352L21.1523 29.7461C20.1172 29.1406 18.7305 29.6289 18.7305 30.7812Z" fill="black" fill-opacity="0.85"/>
 </g>
</svg>
