<?xml version="1.0" encoding="UTF-8"?>
<!--Generator: Apple Native CoreSVG 326-->
<!DOCTYPE svg
PUBLIC "-//W3C//DTD SVG 1.1//EN"
       "http://www.w3.org/Graphics/SVG/1.1/DTD/svg11.dtd">
<svg version="1.1" xmlns="http://www.w3.org/2000/svg" xmlns:xlink="http://www.w3.org/1999/xlink" viewBox="0 0 55.3906 54.7852">
 <g>
  <rect height="54.7852" opacity="0" width="55.3906" x="0" y="0"/>
  <path d="M55.0195 14.2969L55.0195 34.2188C55.0195 41.1719 51.0742 45.1953 44.0039 45.1953L26.0547 45.1953L16.9336 53.418C15.9375 54.3359 15.293 54.7852 14.4336 54.7852C13.1836 54.7852 12.4609 53.8867 12.4609 52.5195L12.4609 45.1953L11.0156 45.1953C3.92578 45.1953 0 41.2109 0 34.2188L0 14.2969C0 7.30469 3.92578 3.28125 11.0156 3.28125L44.0039 3.28125C51.0742 3.28125 55.0195 7.32422 55.0195 14.2969ZM25.6641 14.082L25.6641 22.3633L17.3828 22.3633C16.2695 22.3633 15.4883 23.1445 15.4883 24.2578C15.4883 25.332 16.2891 26.0742 17.3828 26.0742L25.6641 26.0742L25.6641 34.375C25.6641 35.4492 26.4062 36.25 27.4805 36.25C28.6133 36.25 29.375 35.4688 29.375 34.375L29.375 26.0742L37.6758 26.0742C38.75 26.0742 39.5508 25.332 39.5508 24.2578C39.5508 23.1445 38.7695 22.3633 37.6758 22.3633L29.375 22.3633L29.375 14.082C29.375 12.9688 28.6133 12.1875 27.4805 12.1875C26.4062 12.1875 25.6641 12.9883 25.6641 14.082Z" fill="black" fill-opacity="0.85"/>
 </g>
</svg>
