<?xml version="1.0" encoding="UTF-8"?>
<!--Generator: Apple Native CoreSVG 326-->
<!DOCTYPE svg
PUBLIC "-//W3C//DTD SVG 1.1//EN"
       "http://www.w3.org/Graphics/SVG/1.1/DTD/svg11.dtd">
<svg version="1.1" xmlns="http://www.w3.org/2000/svg" xmlns:xlink="http://www.w3.org/1999/xlink" viewBox="0 0 53.6719 43.3789">
 <g>
  <rect height="43.3789" opacity="0" width="53.6719" x="0" y="0"/>
  <path d="M7.83203 15.6836C12.168 15.6836 15.6836 12.168 15.6836 7.8125C15.6836 3.49609 12.168 0 7.83203 0C3.51562 0 0 3.49609 0 7.8125C0 12.168 3.51562 15.6836 7.83203 15.6836ZM45.4492 15.6836C49.7852 15.6836 53.3008 12.168 53.3008 7.8125C53.3008 3.49609 49.7852 0 45.4492 0C41.1328 0 37.6172 3.49609 37.6172 7.8125C37.6172 12.168 41.1328 15.6836 45.4492 15.6836ZM26.6602 43.3594C30.9961 43.3594 34.5117 39.8633 34.5117 35.5078C34.5117 31.1914 30.9961 27.6758 26.6602 27.6758C22.3242 27.6758 18.8086 31.1914 18.8086 35.5078C18.8086 39.8633 22.3242 43.3594 26.6602 43.3594Z" fill="black" fill-opacity="0.85"/>
  <path d="M20.1758 9.90234C21.2695 9.90234 22.1484 9.00391 22.1484 7.92969C22.1484 6.83594 21.2695 5.9375 20.1758 5.9375C19.1016 5.9375 18.2031 6.83594 18.2031 7.92969C18.2031 9.00391 19.1016 9.90234 20.1758 9.90234ZM26.6602 9.90234C27.7344 9.90234 28.6328 9.00391 28.6328 7.92969C28.6328 6.83594 27.7344 5.9375 26.6602 5.9375C25.5664 5.9375 24.6875 6.83594 24.6875 7.92969C24.6875 9.00391 25.5664 9.90234 26.6602 9.90234ZM33.125 9.90234C34.2188 9.90234 35.0977 9.00391 35.0977 7.92969C35.0977 6.83594 34.2188 5.9375 33.125 5.9375C32.0508 5.9375 31.1523 6.83594 31.1523 7.92969C31.1523 9.00391 32.0508 9.90234 33.125 9.90234ZM39.0039 21.2695C40.0781 21.2695 40.9766 20.3711 40.9766 19.2773C40.9766 18.2031 40.0781 17.3047 39.0039 17.3047C37.9102 17.3047 37.0117 18.2031 37.0117 19.2773C37.0117 20.3711 37.9102 21.2695 39.0039 21.2695ZM34.2969 26.4453C35.3906 26.4453 36.2891 25.5469 36.2891 24.4727C36.2891 23.3789 35.3906 22.4805 34.2969 22.4805C33.2227 22.4805 32.3242 23.3789 32.3242 24.4727C32.3242 25.5469 33.2227 26.4453 34.2969 26.4453ZM18.9844 26.4453C20.0781 26.4453 20.9766 25.5469 20.9766 24.4727C20.9766 23.3789 20.0781 22.4805 18.9844 22.4805C17.9102 22.4805 17.0117 23.3789 17.0117 24.4727C17.0117 25.5469 17.9102 26.4453 18.9844 26.4453ZM14.2969 21.2695C15.3711 21.2695 16.2695 20.3711 16.2695 19.2773C16.2695 18.2031 15.3711 17.3047 14.2969 17.3047C13.2031 17.3047 12.3242 18.2031 12.3242 19.2773C12.3242 20.3711 13.2031 21.2695 14.2969 21.2695Z" fill="black" fill-opacity="0.85"/>
 </g>
</svg>
