<?xml version="1.0" encoding="UTF-8"?>
<!--Generator: Apple Native CoreSVG 326-->
<!DOCTYPE svg
PUBLIC "-//W3C//DTD SVG 1.1//EN"
       "http://www.w3.org/Graphics/SVG/1.1/DTD/svg11.dtd">
<svg version="1.1" xmlns="http://www.w3.org/2000/svg" xmlns:xlink="http://www.w3.org/1999/xlink" viewBox="0 0 46.2891 45.918">
 <g>
  <rect height="45.918" opacity="0" width="46.2891" x="0" y="0"/>
  <path d="M45.918 7.53906L45.918 38.3984C45.918 43.3594 43.3594 45.918 38.3008 45.918L7.59766 45.918C2.55859 45.918 0 43.3984 0 38.3984L0 7.53906C0 2.53906 2.55859 0 7.59766 0L38.3008 0C43.3594 0 45.918 2.55859 45.918 7.53906ZM27.6562 12.7344L27.6562 21.6016L25.5469 22.7344C25.0977 23.0078 24.8828 23.3789 24.8828 23.75C24.8828 24.4531 25.6055 25.0781 26.5039 24.5898L27.6562 23.9648L27.6562 32.5195C27.6562 33.3789 28.1445 33.8867 28.9648 33.8867C29.7461 33.8867 30.2344 33.3789 30.2344 32.5195L30.2344 22.5781L32.5195 21.3477C32.9883 21.0938 33.1836 20.7227 33.1836 20.3711C33.1836 19.668 32.4414 19.0234 31.6211 19.4531L30.2344 20.2148L30.2344 12.7539C30.2344 11.875 29.7461 11.3672 28.9648 11.3672C28.1445 11.3672 27.6562 11.875 27.6562 12.7344ZM14.3359 17.8516C13.75 17.8516 13.2812 18.3008 13.2812 18.8672C13.2812 19.4727 13.75 19.9023 14.3359 19.9023L20.7031 19.9023L20.7031 20.1758L13.6914 31.3477C13.457 31.7188 13.2812 32.0703 13.2812 32.4219C13.2812 33.125 13.7695 33.6133 14.4727 33.6133L22.7734 33.6133C23.3984 33.6133 23.8672 33.1641 23.8672 32.5586C23.8672 32.0117 23.3984 31.5625 22.7734 31.5625L16.5234 31.5625L16.5234 31.3086L23.3008 20.3516C23.5742 19.9023 23.75 19.5703 23.75 19.1016C23.75 18.4766 23.3984 17.8516 22.4609 17.8516Z" fill="black" fill-opacity="0.85"/>
 </g>
</svg>
