<?xml version="1.0" encoding="UTF-8"?>
<!--Generator: Apple Native CoreSVG 326-->
<!DOCTYPE svg
PUBLIC "-//W3C//DTD SVG 1.1//EN"
       "http://www.w3.org/Graphics/SVG/1.1/DTD/svg11.dtd">
<svg version="1.1" xmlns="http://www.w3.org/2000/svg" xmlns:xlink="http://www.w3.org/1999/xlink" viewBox="0 0 51.25 50.918">
 <g>
  <rect height="50.918" opacity="0" width="51.25" x="0" y="0"/>
  <path d="M25.4297 50.8789C39.4727 50.8789 50.8789 39.4922 50.8789 25.4492C50.8789 11.4062 39.4727 0 25.4297 0C11.3867 0 0 11.4062 0 25.4492C0 39.4922 11.3867 50.8789 25.4297 50.8789ZM25.4297 47.2461C13.3789 47.2461 3.63281 37.5 3.63281 25.4492C3.63281 13.3984 13.3789 3.65234 25.4297 3.65234C37.4805 3.65234 47.2266 13.3984 47.2266 25.4492C47.2266 37.5 37.4805 47.2461 25.4297 47.2461Z" fill="black" fill-opacity="0.85"/>
  <path d="M21.4062 20.3125C22.2852 19.0039 23.8477 18.2617 25.3906 18.2617C26.9531 18.2617 28.5156 19.0039 29.3945 20.3125C30.1953 19.2383 31.5234 18.6328 32.9102 18.6328C33.7891 18.6328 34.6094 18.8672 35.3125 19.3164C35.6836 18.75 35.918 18.0664 35.918 17.3242C35.918 15.2539 34.5312 13.7695 32.5977 13.75C32.1484 12.5195 31.1523 11.6992 29.8438 11.6992C28.9844 11.6992 28.2227 11.9922 27.6367 12.5586C27.2852 12.4414 26.7969 12.4219 26.3867 12.5195C25.8789 11.2891 24.7266 10.5078 23.3984 10.5078C21.7188 10.5078 20.5859 11.5039 20.3516 12.5781C19.3359 12.4219 18.418 13.3203 18.418 14.3164C16.6016 14.2773 15.0977 15.8008 15.0977 17.6367C15.0977 18.2031 15.2148 18.7305 15.4883 19.2773C16.1914 18.8477 17.0117 18.6328 17.8906 18.6328C19.2773 18.6328 20.6055 19.2383 21.4062 20.3125ZM20.5078 39.9805L22.207 39.9805L20.6641 22.8125C20.5078 21.1719 19.2578 20.3125 17.8906 20.3125C16.2305 20.3125 14.668 21.6016 15.1367 23.9844L17.6953 37.4219C17.9883 39.043 18.8086 39.9805 20.5078 39.9805ZM23.8672 39.9805L26.9336 39.9805L28.457 23.1836C28.6523 20.957 26.8164 19.9414 25.3906 19.9414C23.9844 19.9414 22.1484 20.957 22.3438 23.1836ZM30.293 39.9805C31.9922 39.9805 32.8125 39.043 33.1055 37.4219L35.6641 23.9844C36.1328 21.6016 34.5703 20.3125 32.9102 20.3125C31.543 20.3125 30.293 21.1719 30.1367 22.8125L28.5938 39.9805Z" fill="black" fill-opacity="0.85"/>
 </g>
</svg>
