<?xml version="1.0" encoding="UTF-8"?>
<!--Generator: Apple Native CoreSVG 326-->
<!DOCTYPE svg
PUBLIC "-//W3C//DTD SVG 1.1//EN"
       "http://www.w3.org/Graphics/SVG/1.1/DTD/svg11.dtd">
<svg version="1.1" xmlns="http://www.w3.org/2000/svg" xmlns:xlink="http://www.w3.org/1999/xlink" viewBox="0 0 47.9297 45.957">
 <g>
  <rect height="45.957" opacity="0" width="47.9297" x="0" y="0"/>
  <path d="M47.5586 7.57812L47.5586 38.4375C47.5586 43.418 45.0195 45.957 39.9609 45.957L7.59766 45.957C2.55859 45.957 0 43.4375 0 38.4375L0 7.57812C0 2.57812 2.55859 0.0585938 7.59766 0.0585938L39.9609 0.0585938C45.0195 0.0585938 47.5586 2.59766 47.5586 7.57812ZM11.1133 29.9609C11.1133 32.0508 12.8125 33.7305 14.8828 33.7305C16.9531 33.7305 18.6328 32.0508 18.6328 29.9609C18.6328 27.8906 16.9531 26.2109 14.8828 26.2109C12.8125 26.2109 11.1133 27.8906 11.1133 29.9609ZM28.9258 29.9609C28.9258 32.0508 30.625 33.7305 32.6953 33.7305C34.7461 33.7305 36.4453 32.0508 36.4453 29.9609C36.4453 27.8906 34.7461 26.2109 32.6953 26.2109C30.625 26.2109 28.9258 27.8906 28.9258 29.9609ZM20.0195 15.9766C20.0195 18.0664 21.6992 19.7461 23.7891 19.7461C25.8398 19.7461 27.5391 18.0664 27.5391 15.9766C27.5391 13.9062 25.8398 12.2266 23.7891 12.2266C21.6992 12.2266 20.0195 13.9062 20.0195 15.9766Z" fill="black" fill-opacity="0.85"/>
 </g>
</svg>
