<?xml version="1.0" encoding="UTF-8"?>
<!--Generator: Apple Native CoreSVG 326-->
<!DOCTYPE svg
PUBLIC "-//W3C//DTD SVG 1.1//EN"
       "http://www.w3.org/Graphics/SVG/1.1/DTD/svg11.dtd">
<svg version="1.1" xmlns="http://www.w3.org/2000/svg" xmlns:xlink="http://www.w3.org/1999/xlink" viewBox="0 0 46.1914 45.8398">
 <g>
  <rect height="45.8398" opacity="0" width="46.1914" x="0" y="0"/>
  <path d="M42.9688 2.89062C45.3906 5.29297 45.8203 8.65234 45.8203 13.125L45.8203 32.6758C45.8203 37.168 45.3906 40.5078 42.9688 42.9297C40.5469 45.3516 37.1484 45.8203 32.6758 45.8203L13.1445 45.8203C8.67188 45.8203 5.29297 45.3516 2.85156 42.9297C0.429688 40.5273 0 37.168 0 32.6758L0 13.0078C0 8.67188 0.449219 5.3125 2.87109 2.89062C5.29297 0.46875 8.69141 0 13.0078 0L32.6758 0C37.1484 0 40.5273 0.46875 42.9688 2.89062ZM19.7656 33.2422C19.7656 34.5898 20.957 35.7031 22.3242 35.7031C23.7109 35.7031 24.8828 34.6094 24.8828 33.2422C24.8828 31.8555 23.7305 30.7617 22.3242 30.7617C20.9375 30.7617 19.7656 31.875 19.7656 33.2422ZM15.332 14.6094C15.2148 15 15.1367 15.3906 15.1367 15.8203C15.1367 16.8164 15.9375 17.3828 16.6992 17.3828C17.4805 17.3828 17.9883 16.9922 18.3594 16.4258L18.7109 15.8789C19.4531 14.1992 20.9766 13.0664 22.9883 13.0664C25.5078 13.0664 27.1484 14.4727 27.1484 16.5234C27.1484 18.2812 26.1133 19.1992 23.7891 20.8203C21.875 22.168 20.6055 23.5156 20.6055 25.957C20.6055 26.1133 20.6055 26.2695 20.6055 26.4258C20.6055 27.5977 21.25 28.2031 22.3828 28.2031C23.4961 28.2031 24.1797 27.5 24.1797 26.582C24.1797 26.4453 24.1797 26.2891 24.1797 26.1523C24.1797 24.6484 24.9805 23.7305 26.8555 22.4805C29.3945 20.7812 31.0156 19.2773 31.0156 16.3477C31.0156 12.3047 27.4219 10 23.125 10C18.7891 10 15.957 12.168 15.332 14.6094Z" fill="black" fill-opacity="0.85"/>
 </g>
</svg>
