<?xml version="1.0" encoding="UTF-8"?>
<!--Generator: Apple Native CoreSVG 326-->
<!DOCTYPE svg
PUBLIC "-//W3C//DTD SVG 1.1//EN"
       "http://www.w3.org/Graphics/SVG/1.1/DTD/svg11.dtd">
<svg version="1.1" xmlns="http://www.w3.org/2000/svg" xmlns:xlink="http://www.w3.org/1999/xlink" viewBox="0 0 69.0681 59.4595">
 <g>
  <rect height="59.4595" opacity="0" width="69.0681" x="0" y="0"/>
  <path d="M52.493 8.64578L52.493 19.6427C51.4539 19.2262 50.3997 19.1155 49.4266 19.2082L49.4266 8.82156C49.4266 5.95047 47.8251 4.38797 45.0126 4.38797L12.122 4.38797C9.25086 4.38797 7.70789 5.95047 7.70789 8.82156L7.70789 33.763C7.70789 36.6341 9.30945 38.1966 12.122 38.1966L21.8391 38.1966C22.0982 38.7443 22.4349 39.2677 22.8251 39.7591L24.0224 41.263L12.0634 41.263C7.12195 41.263 4.64148 38.8411 4.64148 33.9387L4.64148 8.64578C4.64148 3.74344 7.12195 1.32156 12.0634 1.32156L45.0712 1.32156C50.0126 1.32156 52.493 3.74344 52.493 8.64578Z" fill="black" fill-opacity="0.85"/>
  <path d="M54.8173 55.1887C64.954 51.4973 68.3329 43.3137 64.3095 32.2591L62.7274 27.9036C61.2235 23.7825 58.3134 21.9856 56.0477 22.8059C55.5204 23.0012 55.3446 23.3723 55.5204 23.8411L56.2821 25.97C56.6141 26.8098 56.3016 27.3958 55.8134 27.5911C55.247 27.8059 54.6415 27.5325 54.329 26.6731L53.8212 25.2473C52.9423 22.8059 50.7938 21.7708 48.6649 22.552C47.7079 22.9036 47.4149 23.4505 47.7079 24.2708L48.743 27.0833C49.0555 27.9427 48.7626 28.5286 48.2548 28.7239C47.7079 28.9192 47.1024 28.6458 46.7899 27.8255L45.8524 25.1692C44.8173 22.4348 42.7665 21.7317 40.7157 22.4739C39.8173 22.7864 39.4852 23.4114 39.7391 24.1731L41.7509 29.6419C42.0438 30.5012 41.7704 31.0872 41.243 31.2825C40.7157 31.4778 40.1102 31.2044 39.7977 30.345L33.3524 12.6692C32.7079 10.8919 31.1845 10.1887 29.7196 10.7356C28.1571 11.2825 27.4345 12.8255 28.079 14.5833L37.3759 40.0911C37.5907 40.7161 37.3173 41.2044 36.9071 41.3216C36.536 41.4583 36.1454 41.3606 35.6376 40.8333L29.2313 33.9973C28.2548 32.9817 27.2587 32.7473 26.243 33.138C24.622 33.7239 24.036 35.1887 24.5243 36.5559C24.7001 37.0442 24.9735 37.4544 25.2665 37.8059L33.3329 47.9817C39.7587 56.0677 47.4149 57.8841 54.8173 55.1887Z" fill="black" fill-opacity="0.85"/>
 </g>
</svg>
