<?xml version="1.0" encoding="UTF-8"?>
<!--Generator: Apple Native CoreSVG 326-->
<!DOCTYPE svg
PUBLIC "-//W3C//DTD SVG 1.1//EN"
       "http://www.w3.org/Graphics/SVG/1.1/DTD/svg11.dtd">
<svg version="1.1" xmlns="http://www.w3.org/2000/svg" xmlns:xlink="http://www.w3.org/1999/xlink" viewBox="0 0 47.5781 62.5099">
 <g>
  <rect height="62.5099" opacity="0" width="47.5781" x="0" y="0"/>
  <path d="M7.59766 47.2217L39.5898 47.2217C44.6484 47.2217 47.207 44.6632 47.207 39.7022L47.207 22.8272C47.207 17.8467 44.6484 15.3077 39.5898 15.3077L7.59766 15.3077C2.53906 15.3077 0 17.8272 0 22.8272L0 39.7022C0 44.7022 2.53906 47.2217 7.59766 47.2217ZM7.67578 43.7647C4.94141 43.7647 3.45703 42.3194 3.45703 39.5264L3.45703 23.003C3.45703 20.21 4.94141 18.7647 7.67578 18.7647L39.5312 18.7647C42.207 18.7647 43.7305 20.21 43.7305 23.003L43.7305 39.5264C43.7305 42.3194 42.207 43.7647 39.5312 43.7647Z" fill="black" fill-opacity="0.85"/>
  <path d="M17.9688 11.8507L29.2188 11.8507C30.4492 11.8507 30.9961 10.835 30.3516 9.78034L24.8438 0.795968C24.2188-0.219657 22.9688-0.25872 22.3438 0.795968L16.875 9.76081C16.2305 10.8155 16.7188 11.8507 17.9688 11.8507ZM17.9688 50.6788C16.7188 50.6788 16.2305 51.7139 16.875 52.7686L22.3438 61.7335C22.9688 62.7882 24.2188 62.7491 24.8438 61.7335L30.3516 52.7491C30.9961 51.6944 30.4492 50.6788 29.2188 50.6788Z" fill="black" fill-opacity="0.85"/>
 </g>
</svg>
