<?xml version="1.0" encoding="UTF-8"?>
<!--Generator: Apple Native CoreSVG 326-->
<!DOCTYPE svg
PUBLIC "-//W3C//DTD SVG 1.1//EN"
       "http://www.w3.org/Graphics/SVG/1.1/DTD/svg11.dtd">
<svg version="1.1" xmlns="http://www.w3.org/2000/svg" xmlns:xlink="http://www.w3.org/1999/xlink" viewBox="0 0 59.5508 45.957">
 <g>
  <rect height="45.957" opacity="0" width="59.5508" x="0" y="0"/>
  <path d="M0 13.2812L3.45703 13.2812L3.45703 7.75391C3.45703 4.96094 4.94141 3.51562 7.67578 3.51562L13.1641 3.51562L13.1641 0.0585938L7.59766 0.0585938C2.55859 0.0585938 0 2.57812 0 7.57812ZM0 29.6094L3.45703 29.6094L3.45703 16.4062L0 16.4062ZM7.59766 45.957L13.1641 45.957L13.1641 42.5L7.67578 42.5C4.94141 42.5 3.45703 41.0547 3.45703 38.2617L3.45703 32.7344L0 32.7344L0 38.4375C0 43.4375 2.55859 45.957 7.59766 45.957ZM16.2695 45.957L28.0273 45.957L28.0273 42.5L16.2695 42.5ZM31.1523 45.957L42.8906 45.957L42.8906 42.5L31.1523 42.5ZM51.5625 45.957C56.6016 45.957 59.1797 43.4375 59.1797 38.4375L59.1797 32.7344L55.7031 32.7344L55.7031 38.2617C55.7031 41.0547 54.2188 42.5 51.5039 42.5L46.0156 42.5L46.0156 45.957ZM59.1797 13.2812L59.1797 7.57812C59.1797 2.57812 56.6016 0.0585938 51.5625 0.0585938L46.0156 0.0585938L46.0156 3.51562L51.5039 3.51562C54.2188 3.51562 55.7031 4.96094 55.7031 7.75391L55.7031 13.2812ZM59.1797 29.6094L59.1797 16.4062L55.7031 16.4062L55.7031 29.6094ZM16.2695 3.51562L28.0273 3.51562L28.0273 0.0585938L16.2695 0.0585938ZM31.1523 3.51562L42.8906 3.51562L42.8906 0.0585938L31.1523 0.0585938Z" fill="black" fill-opacity="0.85"/>
 </g>
</svg>
