<?xml version="1.0" encoding="UTF-8"?>
<!--Generator: Apple Native CoreSVG 326-->
<!DOCTYPE svg
PUBLIC "-//W3C//DTD SVG 1.1//EN"
       "http://www.w3.org/Graphics/SVG/1.1/DTD/svg11.dtd">
<svg version="1.1" xmlns="http://www.w3.org/2000/svg" xmlns:xlink="http://www.w3.org/1999/xlink" viewBox="0 0 63.6328 48.1055">
 <g>
  <rect height="48.1055" opacity="0" width="63.6328" x="0" y="0"/>
  <path d="M4.14062 14.1016L14.5898 14.1016C17.207 14.1016 18.7109 12.6172 18.7109 9.88281L18.7109 4.21875C18.7109 1.48438 17.207 0 14.5898 0L4.14062 0C1.52344 0 0 1.48438 0 4.21875L0 9.88281C0 12.6172 1.52344 14.1016 4.14062 14.1016ZM26.3867 14.1016L36.8555 14.1016C39.4727 14.1016 40.957 12.6172 40.957 9.88281L40.957 4.21875C40.957 1.48438 39.4727 0 36.8555 0L26.3867 0C23.7695 0 22.2656 1.48438 22.2656 4.21875L22.2656 9.88281C22.2656 12.6172 23.7695 14.1016 26.3867 14.1016ZM48.6719 14.1016L59.1211 14.1016C61.7383 14.1016 63.2617 12.6172 63.2617 9.88281L63.2617 4.21875C63.2617 1.48438 61.7383 0 59.1211 0L48.6719 0C46.0547 0 44.5312 1.48438 44.5312 4.21875L44.5312 9.88281C44.5312 12.6172 46.0547 14.1016 48.6719 14.1016ZM4.14062 31.0742L14.5898 31.0742C17.207 31.0742 18.7109 29.6094 18.7109 26.875L18.7109 21.1914C18.7109 18.457 17.207 16.9922 14.5898 16.9922L4.14062 16.9922C1.52344 16.9922 0 18.457 0 21.1914L0 26.875C0 29.6094 1.52344 31.0742 4.14062 31.0742ZM26.3867 31.0742L36.8555 31.0742C39.4727 31.0742 40.957 29.6094 40.957 26.875L40.957 21.1914C40.957 18.457 39.4727 16.9922 36.8555 16.9922L26.3867 16.9922C23.7695 16.9922 22.2656 18.457 22.2656 21.1914L22.2656 26.875C22.2656 29.6094 23.7695 31.0742 26.3867 31.0742ZM48.6719 31.0742L59.1211 31.0742C61.7383 31.0742 63.2617 29.6094 63.2617 26.875L63.2617 21.1914C63.2617 18.457 61.7383 16.9922 59.1211 16.9922L48.6719 16.9922C46.0547 16.9922 44.5312 18.457 44.5312 21.1914L44.5312 26.875C44.5312 29.6094 46.0547 31.0742 48.6719 31.0742ZM4.14062 48.0664L14.5898 48.0664C17.207 48.0664 18.7109 46.582 18.7109 43.8477L18.7109 38.1836C18.7109 35.4492 17.207 33.9648 14.5898 33.9648L4.14062 33.9648C1.52344 33.9648 0 35.4492 0 38.1836L0 43.8477C0 46.582 1.52344 48.0664 4.14062 48.0664ZM26.3867 48.0664L36.8555 48.0664C39.4727 48.0664 40.957 46.582 40.957 43.8477L40.957 38.1836C40.957 35.4492 39.4727 33.9648 36.8555 33.9648L26.3867 33.9648C23.7695 33.9648 22.2656 35.4492 22.2656 38.1836L22.2656 43.8477C22.2656 46.582 23.7695 48.0664 26.3867 48.0664ZM48.6719 48.0664L59.1211 48.0664C61.7383 48.0664 63.2617 46.582 63.2617 43.8477L63.2617 38.1836C63.2617 35.4492 61.7383 33.9648 59.1211 33.9648L48.6719 33.9648C46.0547 33.9648 44.5312 35.4492 44.5312 38.1836L44.5312 43.8477C44.5312 46.582 46.0547 48.0664 48.6719 48.0664Z" fill="black" fill-opacity="0.85"/>
 </g>
</svg>
