<?xml version="1.0" encoding="UTF-8"?>
<!--Generator: Apple Native CoreSVG 326-->
<!DOCTYPE svg
PUBLIC "-//W3C//DTD SVG 1.1//EN"
       "http://www.w3.org/Graphics/SVG/1.1/DTD/svg11.dtd">
<svg version="1.1" xmlns="http://www.w3.org/2000/svg" xmlns:xlink="http://www.w3.org/1999/xlink" viewBox="0 0 61.2891 42.6367">
 <g>
  <rect height="42.6367" opacity="0" width="61.2891" x="0" y="0"/>
  <path d="M54.9219 17.1875L58.3398 17.1875L58.3398 9.39453C58.3398 5.58594 55.4297 2.77344 51.3086 2.77344L24.707 2.77344L24.707 6.19141L50.918 6.19141C53.3594 6.19141 54.9219 7.85156 54.9219 10.0977ZM36.2109 39.2969L36.2109 35.8789L10 35.8789C7.55859 35.8789 5.99609 34.2188 5.99609 31.9727L5.99609 24.8828L2.57812 24.8828L2.57812 32.6953C2.57812 36.5039 5.48828 39.2969 9.60938 39.2969Z" fill="black" fill-opacity="0.85"/>
  <path d="M15.332 17.2461C16.4258 17.2461 17.2461 16.5234 17.2461 15.4297C17.2461 14.9219 17.0312 14.4922 16.6992 14.1211L12.5781 10L5.44922 3.14453L11.7578 3.47656L15.4883 3.47656C16.5039 3.47656 17.3047 2.79297 17.3047 1.73828C17.3047 0.703125 16.543 0 15.4883 0L3.10547 0C1.15234 0 0 1.15234 0 3.10547L0 15.4688C0 16.4844 0.722656 17.2852 1.75781 17.2852C2.77344 17.2852 3.45703 16.5234 3.45703 15.4688L3.45703 11.7383L3.16406 5.46875L9.98047 12.5391L14.1211 16.7188C14.4727 17.0703 14.8828 17.2461 15.332 17.2461ZM45.5664 24.6289C44.4922 24.6289 43.6719 25.3711 43.6719 26.4648C43.6719 26.9531 43.8672 27.3828 44.2188 27.7539L48.3398 31.8945L55.4492 38.7305L49.1602 38.418L45.4297 38.418C44.4141 38.418 43.6133 39.1016 43.6133 40.1367C43.6133 41.1719 44.375 41.875 45.4297 41.875L57.8125 41.875C59.7656 41.875 60.918 40.7227 60.918 38.7695L60.918 26.4062C60.918 25.3906 60.1953 24.5898 59.1602 24.5898C58.1445 24.5898 57.4609 25.3516 57.4609 26.4062L57.4609 30.1367L57.7539 36.4062L50.9375 29.3555L46.7969 25.1562C46.4453 24.8242 46.0352 24.6289 45.5664 24.6289Z" fill="black" fill-opacity="0.85"/>
 </g>
</svg>
