<?xml version="1.0" encoding="UTF-8"?>
<!--Generator: Apple Native CoreSVG 326-->
<!DOCTYPE svg
PUBLIC "-//W3C//DTD SVG 1.1//EN"
       "http://www.w3.org/Graphics/SVG/1.1/DTD/svg11.dtd">
<svg version="1.1" xmlns="http://www.w3.org/2000/svg" xmlns:xlink="http://www.w3.org/1999/xlink" viewBox="0 0 42.3047 53.8477">
 <g>
  <rect height="53.8477" opacity="0" width="42.3047" x="0" y="0"/>
  <path d="M9.21875 23.5938C9.80469 23.5938 10.1758 23.3008 10.3711 22.5586L11.4062 19.7266L16.3477 19.7266L17.4023 22.5586C17.5977 23.2812 17.9883 23.5938 18.5547 23.5938C19.3164 23.5938 19.7461 23.1836 19.7461 22.4805C19.7461 22.3047 19.6875 22.0312 19.5898 21.7383L15.625 11.0352C15.3125 10.1562 14.7656 9.70703 13.8672 9.70703C13.0078 9.70703 12.4805 10.1562 12.1484 11.0352L8.18359 21.7383C8.08594 22.0117 8.04688 22.3047 8.04688 22.4805C8.04688 23.1836 8.47656 23.5938 9.21875 23.5938ZM11.9531 17.832L13.8086 12.3242L13.9453 12.3242L15.8203 17.832ZM24.1992 13.9648L32.7148 13.9648C33.4961 13.9648 34.082 13.3594 34.082 12.5977C34.082 11.8555 33.4961 11.2695 32.7148 11.2695L24.1992 11.2695C23.3984 11.2695 22.8125 11.8555 22.8125 12.5977C22.8125 13.3594 23.3984 13.9648 24.1992 13.9648ZM24.1992 22.793L32.7148 22.793C33.4961 22.793 34.082 22.1875 34.082 21.4258C34.082 20.6836 33.4961 20.0977 32.7148 20.0977L24.1992 20.0977C23.3984 20.0977 22.8125 20.6836 22.8125 21.4258C22.8125 22.1875 23.3984 22.793 24.1992 22.793ZM7.73438 44.2188L9.27734 44.2188L12.8711 40.7031C13.3789 40.2344 13.9062 40.0195 14.4141 40.0195C14.9609 40.0195 15.5273 40.2344 16.0352 40.7031L18.1641 42.6367L23.5547 37.8906C24.1797 37.3633 24.8047 37.1094 25.4297 37.1094C26.0742 37.1094 26.7773 37.3438 27.2656 37.9102L32.6562 44.0234L34.1992 44.0234L34.1992 31.3672C34.1992 29.1602 33.0664 28.0273 30.8398 28.0273L11.1133 28.0273C8.94531 28.0273 7.73438 29.1602 7.73438 31.3672ZM16.2305 37.8711C14.668 37.8711 13.3984 36.582 13.3984 35.0391C13.3984 33.4766 14.668 32.1484 16.2305 32.1875C17.793 32.2266 19.082 33.4766 19.082 35.0391C19.082 36.582 17.793 37.8711 16.2305 37.8711ZM0 46.25C0 51.2891 2.51953 53.8477 7.51953 53.8477L34.4141 53.8477C39.4141 53.8477 41.9336 51.2891 41.9336 46.25L41.9336 7.61719C41.9336 2.57812 39.4141 0.0195312 34.4141 0.0195312L7.51953 0.0195312C2.51953 0.0195312 0 2.57812 0 7.61719ZM3.45703 46.1719L3.45703 7.69531C3.45703 4.96094 4.90234 3.47656 7.71484 3.47656L34.2188 3.47656C37.0312 3.47656 38.4766 4.96094 38.4766 7.69531L38.4766 46.1719C38.4766 48.9062 37.0312 50.3906 34.2188 50.3906L7.71484 50.3906C4.90234 50.3906 3.45703 48.9062 3.45703 46.1719Z" fill="black" fill-opacity="0.85"/>
 </g>
</svg>
