<?xml version="1.0" encoding="UTF-8"?>
<!--Generator: Apple Native CoreSVG 326-->
<!DOCTYPE svg
PUBLIC "-//W3C//DTD SVG 1.1//EN"
       "http://www.w3.org/Graphics/SVG/1.1/DTD/svg11.dtd">
<svg version="1.1" xmlns="http://www.w3.org/2000/svg" xmlns:xlink="http://www.w3.org/1999/xlink" viewBox="0 0 57.6367 43.3008">
 <g>
  <rect height="43.3008" opacity="0" width="57.6367" x="0" y="0"/>
  <path d="M20.4883 0C6.21094 0 0 6.62109 0 19.9805L0 35.918C0 40.7812 2.51953 43.2617 7.42188 43.2617L49.8633 43.2617C54.7461 43.2617 57.2656 40.7617 57.2656 35.918L57.2656 19.9805C57.2656 6.62109 51.0742 0 36.7773 0ZM20.5273 3.47656L36.7578 3.47656C48.75 3.47656 53.8086 8.76953 53.8086 19.8047L53.8086 35.7422C53.8086 38.4375 52.3633 39.8047 49.7656 39.8047L7.5 39.8047C4.86328 39.8047 3.45703 38.4375 3.45703 35.7422L3.45703 19.8047C3.45703 8.76953 8.51562 3.47656 20.5273 3.47656Z" fill="black" fill-opacity="0.85"/>
  <path d="M17.3242 32.1289C18.3008 32.1289 18.9062 31.4844 18.9062 30.4492L18.9062 23.8281L21.6406 23.8281L24.4922 30.8398C24.8047 31.6797 25.293 32.1289 26.1523 32.1289C26.8945 32.1289 27.6758 31.6797 27.6758 30.5859C27.6758 30.332 27.5391 29.9023 27.3438 29.4141L24.6875 23.1445C26.7188 22.1875 27.7148 20.0781 27.7148 17.6367C27.7148 13.6719 25.3906 11.4648 21.5234 11.4648L17.2852 11.4648C16.25 11.4648 15.6836 12.0898 15.6836 13.125L15.6836 30.4492C15.6836 31.4648 16.2891 32.1289 17.3242 32.1289ZM18.9062 21.4258L18.9062 14.043L21.2305 14.043C23.3008 14.043 24.4727 15.4883 24.4727 17.6953C24.4727 19.8438 23.4766 21.4258 21.2305 21.4258ZM36.2695 32.1484C37.1484 32.1484 37.8711 31.4258 37.8711 30.5469L37.8711 14.1406L41.0938 14.1406C41.8359 14.1406 42.4219 13.5547 42.4219 12.793C42.4219 12.0508 41.8359 11.4648 41.0938 11.4648L31.25 11.4648C30.4883 11.4648 29.9023 12.0508 29.9023 12.793C29.9023 13.5547 30.4883 14.1406 31.25 14.1406L34.668 14.1406L34.668 30.5469C34.668 31.4258 35.3711 32.1484 36.2695 32.1484Z" fill="black" fill-opacity="0.85"/>
 </g>
</svg>
