<?xml version="1.0" encoding="UTF-8"?>
<!--Generator: Apple Native CoreSVG 326-->
<!DOCTYPE svg
PUBLIC "-//W3C//DTD SVG 1.1//EN"
       "http://www.w3.org/Graphics/SVG/1.1/DTD/svg11.dtd">
<svg version="1.1" xmlns="http://www.w3.org/2000/svg" xmlns:xlink="http://www.w3.org/1999/xlink" viewBox="0 0 56.2305 55.8789">
 <g>
  <rect height="55.8789" opacity="0" width="56.2305" x="0" y="0"/>
  <path d="M27.9297 55.8594C43.2812 55.8594 55.8594 43.3008 55.8594 27.9297C55.8594 12.5586 43.2812 0 27.9297 0C12.5781 0 0 12.5586 0 27.9297C0 43.3008 12.5781 55.8594 27.9297 55.8594ZM27.9297 46.6797C17.5586 46.6797 9.16016 38.3008 9.16016 27.9297C9.16016 17.5586 17.5586 9.16016 27.9297 9.16016C38.3008 9.16016 46.6992 17.5586 46.6992 27.9297C46.6992 38.3008 38.3008 46.6797 27.9297 46.6797Z" fill="black" fill-opacity="0.85"/>
  <path d="M23.6133 39.3164C24.4336 39.3164 24.9219 38.7891 24.9219 37.9883L24.9219 35.2734L31.0156 35.2734C31.4648 35.2734 31.7578 34.9805 31.7578 34.4922C31.7578 34.043 31.4648 33.75 31.0156 33.75L24.9219 33.75L24.9219 30.4297L29.5312 30.4297C34.1016 30.4297 36.7383 27.4609 36.7383 23.6328C36.7383 19.668 33.9844 16.7773 29.5898 16.7773L23.6328 16.7773C22.8711 16.7773 22.3242 17.3438 22.3242 18.1445L22.3242 28.8867L19.6875 28.8867C19.2188 28.8867 18.9258 29.1992 18.9258 29.668C18.9258 30.1367 19.2188 30.4297 19.6875 30.4297L22.3242 30.4297L22.3242 33.75L19.6875 33.75C19.2188 33.75 18.9258 34.043 18.9258 34.4922C18.9258 34.9805 19.2188 35.2734 19.6875 35.2734L22.3242 35.2734L22.3242 37.9883C22.3242 38.7891 22.832 39.3164 23.6133 39.3164ZM24.9219 28.2617L24.9219 19.0234L28.9062 19.0234C32.4805 19.0234 34.0625 20.9766 34.0625 23.6328C34.0625 26.582 32.1094 28.2617 28.9062 28.2617Z" fill="black" fill-opacity="0.85"/>
 </g>
</svg>
