<?xml version="1.0" encoding="UTF-8"?>
<!--Generator: Apple Native CoreSVG 326-->
<!DOCTYPE svg
PUBLIC "-//W3C//DTD SVG 1.1//EN"
       "http://www.w3.org/Graphics/SVG/1.1/DTD/svg11.dtd">
<svg version="1.1" xmlns="http://www.w3.org/2000/svg" xmlns:xlink="http://www.w3.org/1999/xlink" viewBox="0 0 55.5273 53.1055">
 <g>
  <rect height="53.1055" opacity="0" width="55.5273" x="0" y="0"/>
  <path d="M3.06641 47.6758L52.0898 47.6758L52.0898 46.1719C52.0898 45.332 51.582 44.8242 50.7227 44.8242L49.1211 44.8242L49.1211 16.6797L51.3867 16.6797C52.5781 16.6797 53.2422 15.8398 53.2422 14.9609C53.2422 14.3164 52.8906 13.75 52.1094 13.3008L30.5273 0.839844C29.5703 0.292969 28.5547 0 27.5781 0C26.6016 0 25.5664 0.292969 24.6289 0.839844L3.04688 13.3008C2.24609 13.75 1.91406 14.3164 1.91406 14.9609C1.91406 15.8398 2.57812 16.6797 3.76953 16.6797L6.05469 16.6797L6.05469 44.8242L4.45312 44.8242C3.57422 44.8242 3.06641 45.332 3.06641 46.1719ZM9.31641 44.8242L9.31641 13.7109L26.4453 4.0625C26.7773 3.86719 27.1875 3.75 27.5781 3.75C27.9492 3.75 28.3398 3.86719 28.7109 4.0625L45.8594 13.7109L45.8594 44.8242ZM1.73828 53.0664L53.418 53.0664C54.375 53.0664 55.1562 52.2852 55.1562 51.3477C55.1562 50.3906 54.375 49.6094 53.418 49.6094L1.73828 49.6094C0.78125 49.6094 0 50.3906 0 51.3477C0 52.2852 0.78125 53.0664 1.73828 53.0664Z" fill="black" fill-opacity="0.85"/>
  <path d="M23.2812 37.8125C24.1016 37.8125 24.5898 37.2852 24.5898 36.4648L24.5898 33.75L30.6836 33.75C31.1328 33.75 31.4258 33.457 31.4258 32.9883C31.4258 32.5391 31.1328 32.2461 30.6836 32.2461L24.5898 32.2461L24.5898 28.9258L29.1992 28.9258C33.75 28.9258 36.4062 25.9375 36.4062 22.1094C36.4062 18.1641 33.6523 15.2734 29.2383 15.2734L23.3008 15.2734C22.5195 15.2734 21.9922 15.8398 21.9922 16.6406L21.9922 27.3828L19.3555 27.3828C18.8672 27.3828 18.5938 27.6953 18.5938 28.1641C18.5938 28.6328 18.8672 28.9258 19.3555 28.9258L21.9922 28.9258L21.9922 32.2461L19.3555 32.2461C18.8672 32.2461 18.5938 32.5391 18.5938 32.9883C18.5938 33.457 18.8672 33.75 19.3555 33.75L21.9922 33.75L21.9922 36.4648C21.9922 37.2852 22.4805 37.8125 23.2812 37.8125ZM24.5898 26.7383L24.5898 17.5195L28.5742 17.5195C32.1289 17.5195 33.7305 19.4727 33.7305 22.1094C33.7305 25.0781 31.7773 26.7383 28.5742 26.7383Z" fill="black" fill-opacity="0.85"/>
 </g>
</svg>
