<?xml version="1.0" encoding="UTF-8"?>
<!--Generator: Apple Native CoreSVG 326-->
<!DOCTYPE svg
PUBLIC "-//W3C//DTD SVG 1.1//EN"
       "http://www.w3.org/Graphics/SVG/1.1/DTD/svg11.dtd">
<svg version="1.1" xmlns="http://www.w3.org/2000/svg" xmlns:xlink="http://www.w3.org/1999/xlink" viewBox="0 0 58.9648 45.4102">
 <g>
  <rect height="45.4102" opacity="0" width="58.9648" x="0" y="0"/>
  <path d="M0 37.8711C0 42.8711 2.55859 45.4102 7.59766 45.4102L50.9766 45.4102C56.0156 45.4102 58.5938 42.8516 58.5938 37.8711L58.5938 29.9414C58.5938 28.3594 58.1641 26.7773 56.9727 25.4883L47.1289 15.0391C44.8828 12.6562 43.2812 11.3867 39.9219 11.3867L18.1055 11.3867C15.3125 11.3867 13.7109 12.6562 11.4453 15.0391L1.62109 25.4883C0.410156 26.7773 0 28.3594 0 29.9414ZM4.78516 27.3242L14.3555 16.7773C15.6641 15.3516 16.6406 14.5898 18.3008 14.5898L40.293 14.5898C41.9336 14.5898 42.9102 15.332 44.2383 16.7773L53.8086 27.3242C54.3945 27.9688 54.082 28.9453 53.0273 28.9453L5.58594 28.9453C4.53125 28.9453 4.19922 27.9688 4.78516 27.3242ZM3.94531 3.22266L11.6797 11.1328C13.9258 13.418 15.0586 14.1992 17.7734 14.1992L40.4492 14.1992C43.5352 14.1992 44.6875 13.418 46.9141 11.1328L54.6484 3.22266C55.7812 2.07031 55.1953 0.0390625 53.2422 0.0390625L5.35156 0.0390625C3.41797 0.0390625 2.8125 2.07031 3.94531 3.22266ZM14.082 25.1562C14.2773 25.7227 14.9023 25.9766 15.4492 25.7617L27.2461 21.4648C27.832 21.2695 28.1055 20.7031 27.9102 20.1172C27.6953 19.5703 27.1289 19.3164 26.543 19.5117L14.7461 23.8281C14.1602 24.043 13.8867 24.5898 14.082 25.1562ZM14.5117 20.7031C14.7266 21.2891 15.332 21.5039 15.8789 21.3086L24.0625 18.3398C24.6289 18.1445 24.9219 17.5586 24.7266 16.9922C24.5117 16.4258 23.9258 16.1914 23.3594 16.3867L15.1758 19.3555C14.6094 19.5703 14.3164 20.1367 14.5117 20.7031ZM40.4883 37.1484C40.4883 36.4453 41.0352 35.9375 41.7773 35.9375L48.6914 35.9375C49.3945 35.9375 49.9414 36.4453 49.9414 37.1289C49.9414 37.8516 49.3945 38.3594 48.6914 38.3594L41.7773 38.3594C41.0938 38.3594 40.4883 37.8711 40.4883 37.1484Z" fill="black" fill-opacity="0.85"/>
 </g>
</svg>
