<?xml version="1.0" encoding="UTF-8"?>
<!--Generator: Apple Native CoreSVG 326-->
<!DOCTYPE svg
PUBLIC "-//W3C//DTD SVG 1.1//EN"
       "http://www.w3.org/Graphics/SVG/1.1/DTD/svg11.dtd">
<svg version="1.1" xmlns="http://www.w3.org/2000/svg" xmlns:xlink="http://www.w3.org/1999/xlink" viewBox="0 0 74.4336 61.3918">
 <g>
  <rect height="61.3918" opacity="0" width="74.4336" x="0" y="0"/>
  <path d="M74.0625 48.7525C74.0625 49.7291 73.2617 50.4908 72.3047 50.4908C71.3477 50.4908 70.5859 49.7291 70.5859 48.7525C70.5859 28.733 55.5078 12.4049 37.0117 12.4049C32.7186 12.4049 28.6106 13.2846 24.8477 14.9182L22.2048 12.2721C26.7354 10.1036 31.748 8.90878 37.0117 8.90878C57.4219 8.90878 74.0625 26.8385 74.0625 48.7525ZM17.0824 19.5874C8.81247 26.1878 3.45703 36.8138 3.45703 48.7525C3.45703 49.7291 2.69531 50.4908 1.73828 50.4908C0.78125 50.4908 0 49.7291 0 48.7525C0 35.8826 5.73284 24.3868 14.6205 17.1245Z" fill="black" fill-opacity="0.425"/>
  <path d="M26.1635 28.6723C19.3695 32.6532 15.0977 40.3201 15.0977 48.7721C15.0977 49.7291 14.2773 50.4908 13.3398 50.4908C12.3828 50.4908 11.6016 49.7291 11.6016 48.7721C11.6016 39.452 16.2891 30.9019 23.6665 26.1743ZM62.4805 48.7721C62.4805 49.7291 61.6992 50.4908 60.7422 50.4908C60.5982 50.4908 60.4569 50.4728 60.3216 50.437L59.0268 49.1405C58.9988 49.0223 58.9844 48.8989 58.9844 48.7721C58.9844 40.1312 54.5194 32.3108 47.4338 28.3991C47.6971 27.4231 47.832 26.3876 47.832 25.315C47.832 25.1114 47.827 24.9093 47.8028 24.7131C56.6803 28.9901 62.4805 38.4047 62.4805 48.7721Z" fill="black" fill-opacity="0.425"/>
  <path d="M48.617 51.1353L24.2969 51.1353C22.2852 51.1353 21.0352 50.1393 21.0352 48.5377C21.0352 44.0254 26.125 38.0104 34.4643 36.9767ZM44.7266 25.315C44.7266 28.0364 43.5832 30.3976 41.8335 31.9255L30.6738 20.7517C32.0656 18.508 34.4376 17.0533 37.0508 17.0533C41.1523 17.0533 44.7266 20.6471 44.7266 25.315Z" fill="black" fill-opacity="0.425"/>
  <path d="M59.5117 58.1861C60.1562 58.8307 61.2305 58.8307 61.875 58.1861C62.5195 57.5221 62.5195 56.4869 61.875 55.8228L15.4102 9.33847C14.7656 8.67441 13.7109 8.67441 13.0469 9.33847C12.4023 9.96347 12.4023 11.0572 13.0469 11.6822Z" fill="black" fill-opacity="0.85"/>
 </g>
</svg>
