<?xml version="1.0" encoding="UTF-8"?>
<!--Generator: Apple Native CoreSVG 326-->
<!DOCTYPE svg
PUBLIC "-//W3C//DTD SVG 1.1//EN"
       "http://www.w3.org/Graphics/SVG/1.1/DTD/svg11.dtd">
<svg version="1.1" xmlns="http://www.w3.org/2000/svg" xmlns:xlink="http://www.w3.org/1999/xlink" viewBox="0 0 55.5273 53.1055">
 <g>
  <rect height="53.1055" opacity="0" width="55.5273" x="0" y="0"/>
  <path d="M3.06641 47.6758L52.0898 47.6758L52.0898 46.1719C52.0898 45.332 51.582 44.8242 50.7227 44.8242L49.1211 44.8242L49.1211 16.6797L51.3867 16.6797C52.5781 16.6797 53.2422 15.8398 53.2422 14.9609C53.2422 14.3164 52.8906 13.75 52.1094 13.3008L30.5273 0.839844C29.5703 0.292969 28.5547 0 27.5781 0C26.6016 0 25.5664 0.292969 24.6289 0.839844L3.04688 13.3008C2.24609 13.75 1.91406 14.3164 1.91406 14.9609C1.91406 15.8398 2.57812 16.6797 3.76953 16.6797L6.05469 16.6797L6.05469 44.8242L4.45312 44.8242C3.57422 44.8242 3.06641 45.332 3.06641 46.1719ZM9.31641 44.8242L9.31641 13.7109L26.4453 4.0625C26.7773 3.86719 27.1875 3.75 27.5781 3.75C27.9492 3.75 28.3398 3.86719 28.7109 4.0625L45.8594 13.7109L45.8594 44.8242ZM1.73828 53.0664L53.418 53.0664C54.375 53.0664 55.1562 52.2852 55.1562 51.3477C55.1562 50.3906 54.375 49.6094 53.418 49.6094L1.73828 49.6094C0.78125 49.6094 0 50.3906 0 51.3477C0 52.2852 0.78125 53.0664 1.73828 53.0664Z" fill="black" fill-opacity="0.85"/>
  <path d="M18.3984 37.5391C19.0625 37.5391 19.4727 37.0898 19.4727 36.3867L19.4727 17.9492L25.2734 17.9492C28.1836 17.9492 29.5508 18.7695 29.5508 22.0703L29.5508 29.8438C29.5508 30.5664 29.9805 31.0352 30.6641 31.0352C31.3477 31.0352 31.7773 30.5664 31.7773 29.8438L31.7773 21.6211C31.7773 17.6172 30.0977 15.5273 26.0156 15.5273L18.9453 15.5273C17.9102 15.5273 17.2656 16.1719 17.2656 17.207L17.2656 36.3867C17.2656 37.0898 17.7148 37.5391 18.3984 37.5391ZM25.0195 37.3242L32.2656 37.3242C36.5039 37.3242 37.9102 35.0781 37.9102 30.8203L37.9102 16.5039C37.9102 15.7617 37.4805 15.3125 36.8164 15.3125C36.1133 15.3125 35.6836 15.7617 35.6836 16.5039L35.6836 30.7422C35.6836 34.0039 34.9023 34.9023 31.6406 34.9023L25.625 34.9023L25.625 22.9688C25.625 22.2461 25.1953 21.7969 24.5312 21.7969C23.8477 21.7969 23.418 22.2461 23.418 22.9688L23.418 35.7227C23.418 36.7383 24.082 37.3242 25.0195 37.3242Z" fill="black" fill-opacity="0.85"/>
 </g>
</svg>
