<?xml version="1.0" encoding="UTF-8"?>
<!--Generator: Apple Native CoreSVG 326-->
<!DOCTYPE svg
PUBLIC "-//W3C//DTD SVG 1.1//EN"
       "http://www.w3.org/Graphics/SVG/1.1/DTD/svg11.dtd">
<svg version="1.1" xmlns="http://www.w3.org/2000/svg" xmlns:xlink="http://www.w3.org/1999/xlink" viewBox="0 0 41.6211 51.7383">
 <g>
  <rect height="51.7383" opacity="0" width="41.6211" x="0" y="0"/>
  <path d="M0 31.0547C0 39.9023 4.80469 43.0273 18.9453 51.2109C19.5508 51.5625 20.1953 51.7383 20.625 51.7383C21.0742 51.7383 21.7188 51.5625 22.3047 51.2109C36.5039 43.1055 41.25 39.9023 41.25 31.0547L41.25 11.8359C41.25 9.16016 40.1953 8.30078 37.9492 7.36328C34.5898 6.01562 26.0352 2.87109 22.6758 1.71875C22.0117 1.48438 21.3086 1.32812 20.625 1.32812C19.9414 1.32812 19.2578 1.52344 18.5938 1.71875C15.2344 2.77344 6.66016 6.03516 3.30078 7.36328C1.05469 8.26172 0 9.16016 0 11.8359ZM21.0352 47.793L21.0352 4.84375C21.2109 4.86328 21.4648 4.94141 21.7578 5.05859C25.293 6.44531 33.1836 9.35547 36.7773 10.625C37.6172 10.9375 37.832 11.3867 37.832 12.5L37.832 30.3125C37.832 38.0078 33.7891 40.0586 22.1289 47.2852C21.7578 47.5391 21.3672 47.7344 21.0352 47.793Z" fill="black" fill-opacity="0.85"/>
 </g>
</svg>
