<?xml version="1.0" encoding="UTF-8"?>
<!--Generator: Apple Native CoreSVG 326-->
<!DOCTYPE svg
PUBLIC "-//W3C//DTD SVG 1.1//EN"
       "http://www.w3.org/Graphics/SVG/1.1/DTD/svg11.dtd">
<svg version="1.1" xmlns="http://www.w3.org/2000/svg" xmlns:xlink="http://www.w3.org/1999/xlink" viewBox="0 0 51.1133 54.5508">
 <g>
  <rect height="54.5508" opacity="0" width="51.1133" x="0" y="0"/>
  <path d="M26.9336 54.5508C27.1094 54.5117 27.2852 54.4141 27.4609 54.3164L47.4219 43.0664C49.6289 41.8164 50.7422 40.5273 50.7422 37.2656L50.7422 17.3438C50.7422 16.6406 50.6836 16.0938 50.5469 15.6055L26.9336 28.9648ZM23.8086 54.5508L23.8086 28.9648L0.195312 15.6055C0.0585938 16.0938 0 16.6406 0 17.3438L0 37.2656C0 40.5273 1.11328 41.8164 3.32031 43.0664L23.2812 54.3164C23.457 54.4141 23.6328 54.5117 23.8086 54.5508ZM25.3711 26.2305L36.2695 20.0977L12.3242 6.58203L2.91016 11.9141C2.36328 12.207 1.95312 12.5 1.62109 12.832ZM39.4531 18.3008L49.1211 12.832C48.7891 12.5 48.3984 12.207 47.832 11.9141L29.4922 1.50391C28.0859 0.703125 26.7188 0.292969 25.3711 0.292969C24.0234 0.292969 22.6562 0.703125 21.25 1.50391L15.4688 4.78516Z" fill="black" fill-opacity="0.85"/>
 </g>
</svg>
