<?xml version="1.0" encoding="UTF-8"?>
<!--Generator: Apple Native CoreSVG 326-->
<!DOCTYPE svg
PUBLIC "-//W3C//DTD SVG 1.1//EN"
       "http://www.w3.org/Graphics/SVG/1.1/DTD/svg11.dtd">
<svg version="1.1" xmlns="http://www.w3.org/2000/svg" xmlns:xlink="http://www.w3.org/1999/xlink" viewBox="0 0 51.25 50.918">
 <g>
  <rect height="50.918" opacity="0" width="51.25" x="0" y="0"/>
  <path d="M50.8789 25.4492C50.8789 39.4531 39.4531 50.8789 25.4297 50.8789C11.4258 50.8789 0 39.4531 0 25.4492C0 11.4258 11.4258 0 25.4297 0C39.4531 0 50.8789 11.4258 50.8789 25.4492ZM41.9922 28.5547L38.1836 30.4883C36.25 31.4648 34.6484 31.8164 31.6016 31.8164L9.64844 31.8164C8.53516 31.8164 7.73438 31.6797 6.85547 31.0742C7.5 33.3984 9.33594 34.1992 11.3086 34.1992L31.4648 34.1992C35.2539 34.1992 37.4805 33.6328 40.5859 31.8945C43.0469 30.5469 44.1406 28.9062 44.1211 26.9922C44.1406 26.7578 44.1211 26.582 44.1016 26.4062C43.8477 27.2656 43.2617 27.9102 41.9922 28.5547ZM18.5742 18.9648C16.8359 21.2109 15.332 21.9727 13.75 21.9922C12.3438 21.9727 11.4258 21.6211 10.4102 21.0742C8.39844 20 6.66016 21.0156 6.66016 23.0273L6.67969 29.1406C6.67969 29.2383 6.64062 29.375 6.66016 29.4336C7.40234 30.1953 8.18359 30.3711 9.60938 30.3711L31.582 30.3516C34.5508 30.3516 35.8984 30.0195 37.5391 29.1797L41.3477 27.2852C43.2617 26.2891 43.8477 25.0977 43.125 24.1797C42.5781 23.3594 41.3477 22.3828 39.3945 22.3438C38.0664 22.3438 35 22.8516 33.8477 22.8516C32.9883 22.8516 32.6172 22.832 31.9531 22.5L29.8633 25.3711C29.6094 25.7031 29.1602 25.7617 28.8281 25.4883C28.5156 25.2148 28.4766 24.8242 28.7109 24.4727L30.6641 21.7773L29.1406 20.8984L26.9727 23.9648C26.7188 24.3164 26.2695 24.3555 25.918 24.082C25.6055 23.8477 25.5273 23.418 25.7812 23.0664L27.8711 20.1758L26.3672 19.2773L24.0625 22.5391C23.8086 22.8711 23.3203 22.8906 23.0273 22.6562C22.7148 22.4219 22.6562 21.9336 22.8711 21.6406L25.1172 18.5352L24.082 17.9688C21.9922 16.7578 20.0781 17.0312 18.5742 18.9648Z" fill="black" fill-opacity="0.85"/>
 </g>
</svg>
