<?xml version="1.0" encoding="UTF-8"?>
<!--Generator: Apple Native CoreSVG 326-->
<!DOCTYPE svg
PUBLIC "-//W3C//DTD SVG 1.1//EN"
       "http://www.w3.org/Graphics/SVG/1.1/DTD/svg11.dtd">
<svg version="1.1" xmlns="http://www.w3.org/2000/svg" xmlns:xlink="http://www.w3.org/1999/xlink" viewBox="0 0 42.3047 53.8867">
 <g>
  <rect height="53.8867" opacity="0" width="42.3047" x="0" y="0"/>
  <path d="M0 46.2891C0 51.3281 2.51953 53.8867 7.51953 53.8867L34.4141 53.8867C39.4141 53.8867 41.9336 51.3086 41.9336 46.2891L41.9336 17.8711C41.9336 15.6055 41.4844 14.375 40.1758 13.0859L29.0234 1.95312C27.7344 0.625 26.2891 0.0585938 24.2188 0.0585938L7.51953 0.0585938C2.55859 0.0585938 0 2.61719 0 7.65625ZM3.45703 46.2109L3.45703 7.73438C3.45703 5.05859 4.90234 3.51562 7.71484 3.51562L24.1211 3.51562C25.4492 3.51562 26.4062 3.88672 27.2266 4.74609L37.3633 14.9414C38.1836 15.7617 38.4766 16.6211 38.4766 18.125L38.4766 46.2109C38.4766 48.9453 37.0312 50.4297 34.2188 50.4297L7.69531 50.4297C4.90234 50.4297 3.45703 48.9453 3.45703 46.2109Z" fill="black" fill-opacity="0.85"/>
  <path d="M8.94531 42.0898C8.94531 44.3945 10.3125 45.7617 12.5977 45.7617L16.0742 45.7617L16.0742 33.0859C16.0742 32.832 15.918 32.6953 15.6836 32.6953L8.94531 32.6953ZM8.94531 30.2344L17.0703 30.2344C18.0078 30.2344 18.5547 30.7812 18.5547 31.6992L18.5547 45.7617L23.4766 45.7617L23.4766 23.4375L12.5977 23.4375C10.3125 23.4375 8.94531 24.8242 8.94531 27.1484ZM25.957 45.7617L29.375 45.7617C31.6602 45.7617 33.0273 44.3945 33.0273 42.0898L33.0273 27.1484C33.0273 24.8242 31.6602 23.4375 29.375 23.4375L25.957 23.4375Z" fill="black" fill-opacity="0.85"/>
 </g>
</svg>
