<?xml version="1.0" encoding="UTF-8"?>
<!--Generator: Apple Native CoreSVG 326-->
<!DOCTYPE svg
PUBLIC "-//W3C//DTD SVG 1.1//EN"
       "http://www.w3.org/Graphics/SVG/1.1/DTD/svg11.dtd">
<svg version="1.1" xmlns="http://www.w3.org/2000/svg" xmlns:xlink="http://www.w3.org/1999/xlink" viewBox="0 0 54.209 53.8818">
 <g>
  <rect height="53.8818" opacity="0" width="54.209" x="0" y="0"/>
  <path d="M3.64746 50.1733C8.49121 55.0562 15.874 55.0952 20.7178 50.2515L50.1904 20.7788C55.0732 15.896 55.0732 8.49366 50.1904 3.64991C45.3467-1.21338 37.9248-1.21338 33.0811 3.63037L3.64746 33.064C-1.21582 37.9272-1.21582 45.3296 3.64746 50.1733ZM37.6318 11.8335C36.9482 11.1499 36.9482 10.0366 37.6318 9.35303C38.335 8.64991 39.4678 8.64991 40.1514 9.35303C40.835 10.0366 40.835 11.1304 40.1514 11.8335C39.4678 12.5171 38.3154 12.5171 37.6318 11.8335ZM42.0068 16.189C41.3037 15.5054 41.3037 14.353 42.0068 13.6694C42.6709 12.9858 43.7842 12.9858 44.4678 13.6694C45.1709 14.353 45.1709 15.5054 44.4678 16.189C43.7842 16.8726 42.6709 16.8726 42.0068 16.189ZM33.3154 16.1694C32.6514 15.4858 32.6514 14.353 33.335 13.6499C34.0186 12.9858 35.1318 12.9858 35.8154 13.6499C36.4795 14.3335 36.4795 15.4858 35.8154 16.1694C35.1123 16.853 34.0186 16.853 33.3154 16.1694ZM37.6514 20.4858C36.9482 19.8218 36.9482 18.689 37.6514 18.0054C38.335 17.3022 39.4873 17.3022 40.1709 18.0054C40.8545 18.689 40.8545 19.8218 40.1709 20.4858C39.4873 21.189 38.335 21.189 37.6514 20.4858ZM13.8428 35.6226C13.1592 34.939 13.1592 33.8257 13.8623 33.1226C14.5459 32.4585 15.6787 32.4585 16.3623 33.1226C17.0264 33.8062 17.0264 34.939 16.3623 35.6226C15.6592 36.3257 14.5459 36.3257 13.8428 35.6226ZM18.1982 39.9585C17.5146 39.2749 17.5146 38.1616 18.1982 37.439C18.8818 36.7554 20.0146 36.7554 20.6982 37.439C21.3818 38.1616 21.3818 39.2749 20.6982 39.9585C20.0146 40.6616 18.8818 40.6616 18.1982 39.9585ZM9.52637 39.9585C8.84277 39.2749 8.84277 38.1421 9.52637 37.439C10.2295 36.7554 11.3428 36.7554 12.0264 37.439C12.71 38.1421 12.71 39.2554 12.0264 39.9585C11.3428 40.6421 10.21 40.6421 9.52637 39.9585ZM13.8818 44.2944C13.1787 43.6108 13.1787 42.478 13.8818 41.7944C14.5459 41.1108 15.6787 41.1108 16.3623 41.7944C17.0654 42.478 17.0654 43.6108 16.3623 44.2944C15.6787 44.978 14.5459 44.978 13.8818 44.2944ZM24.8193 8.12256L25.5615 8.86475C26.3623 9.66553 27.5928 9.66553 28.4131 8.86475L32.8271 4.43116C33.667 3.61084 33.667 2.39991 32.8271 1.57959L32.1045 0.837406C31.3037 0.0366248 30.0537 0.0366248 29.2334 0.856937L24.8193 5.271C23.999 6.07178 23.999 7.32178 24.8193 8.12256ZM44.9561 28.2593L45.6982 29.0015C46.5186 29.8022 47.7295 29.8022 48.5498 29.0015L52.9639 24.5483C53.8037 23.7476 53.8037 22.5366 52.9639 21.7163L52.2803 20.9741C51.46 20.1733 50.2295 20.1733 49.4287 20.9741L44.9561 25.4077C44.1357 26.228 44.1553 27.4585 44.9561 28.2593ZM1.03027 31.8921L1.77246 32.6538C2.6123 33.4546 3.80371 33.4546 4.62402 32.6538L9.05762 28.2202C9.8584 27.3999 9.8584 26.189 9.05762 25.3491L8.31543 24.646C7.49512 23.8257 6.28418 23.8257 5.46387 24.646L1.0498 29.0405C0.229492 29.8413 0.229492 31.0913 1.03027 31.8921ZM21.167 52.0679L21.9092 52.7905C22.749 53.6108 23.9404 53.6108 24.7607 52.8101L29.1943 48.3765C29.9951 47.5366 29.9951 46.3257 29.1943 45.5054L28.4521 44.7827C27.6514 43.9624 26.4209 43.9624 25.6006 44.7827L21.167 49.2163C20.3662 50.0171 20.3662 51.2671 21.167 52.0679Z" fill="black" fill-opacity="0.85"/>
 </g>
</svg>
