<?xml version="1.0" encoding="UTF-8"?>
<!--Generator: Apple Native CoreSVG 326-->
<!DOCTYPE svg
PUBLIC "-//W3C//DTD SVG 1.1//EN"
       "http://www.w3.org/Graphics/SVG/1.1/DTD/svg11.dtd">
<svg version="1.1" xmlns="http://www.w3.org/2000/svg" xmlns:xlink="http://www.w3.org/1999/xlink" viewBox="0 0 51.25 50.918">
 <g>
  <rect height="50.918" opacity="0" width="51.25" x="0" y="0"/>
  <path d="M50.8789 25.4688C50.8789 39.4922 39.4531 50.918 25.4297 50.918C11.4258 50.918 0 39.4922 0 25.4688C0 11.4648 11.4258 0.0390625 25.4297 0.0390625C39.4531 0.0390625 50.8789 11.4648 50.8789 25.4688ZM9.62891 25.4688C9.62891 34.1992 16.7188 41.2891 25.4492 41.2891C34.1797 41.2891 41.2695 34.1992 41.2695 25.4688C41.2695 16.7383 34.1797 9.66797 25.4492 9.66797C16.7188 9.66797 9.62891 16.7383 9.62891 25.4688ZM25.4688 38.0664C21.3477 38.0664 17.6953 36.0742 15.4102 32.9883L35.5273 32.9883C33.2617 36.0742 29.5898 38.0664 25.4688 38.0664ZM38.0664 25.4688C38.0664 27.0898 37.7539 28.6133 37.207 30.0195L13.7305 30.0195C13.1836 28.6133 12.8906 27.0898 12.8906 25.4688C12.8906 18.5156 18.5156 12.8906 25.4688 12.8906C32.4219 12.8906 38.0664 18.5156 38.0664 25.4688Z" fill="black" fill-opacity="0.85"/>
 </g>
</svg>
