<?xml version="1.0" encoding="UTF-8"?>
<!--Generator: Apple Native CoreSVG 326-->
<!DOCTYPE svg
PUBLIC "-//W3C//DTD SVG 1.1//EN"
       "http://www.w3.org/Graphics/SVG/1.1/DTD/svg11.dtd">
<svg version="1.1" xmlns="http://www.w3.org/2000/svg" xmlns:xlink="http://www.w3.org/1999/xlink" viewBox="0 0 48.0078 47.4805">
 <g>
  <rect height="47.4805" opacity="0" width="48.0078" x="0" y="0"/>
  <path d="M33.2422 46.9922C36.4453 46.9922 39.0625 44.375 39.0625 41.1914C39.0625 37.9883 36.4453 35.3711 33.2422 35.3711C30.0586 35.3711 27.4414 37.9883 27.4414 41.1914C27.4414 44.375 30.0586 46.9922 33.2422 46.9922ZM33.2422 44.2188C31.543 44.2188 30.2148 42.8711 30.2148 41.1719C30.2148 39.4531 31.543 38.125 33.2422 38.125C34.9609 38.125 36.2891 39.4531 36.2891 41.1719C36.2891 42.8711 34.9609 44.2188 33.2422 44.2188ZM29.2188 39.4531L1.73828 39.4531C0.761719 39.4531 0 40.2148 0 41.1914C0 42.1484 0.761719 42.9102 1.73828 42.9102L29.2188 42.9102ZM45.9961 39.4531L37.5586 39.4531L37.5586 42.9102L45.9961 42.9102C46.875 42.9102 47.6367 42.1484 47.6367 41.1914C47.6367 40.2148 46.875 39.4531 45.9961 39.4531Z" fill="black" fill-opacity="0.85"/>
  <path d="M7.16797 31.5625L40.4688 31.5625C45.1758 31.5625 47.6367 29.1992 47.6367 24.4727L47.6367 7.07031C47.6367 2.36328 45.1758 0 40.4688 0L7.16797 0C2.67578 0 0 2.36328 0 7.07031L0 24.4727C0 29.1992 2.46094 31.5625 7.16797 31.5625ZM7.12891 28.3203C4.6875 28.3203 3.45703 27.0898 3.45703 24.6484L3.45703 6.91406C3.45703 4.45312 4.6875 3.22266 7.12891 3.22266L40.5078 3.22266C42.9688 3.22266 44.1797 4.45312 44.1797 6.91406L44.1797 24.6484C44.1797 27.0898 42.9688 28.3203 40.5078 28.3203Z" fill="black" fill-opacity="0.85"/>
 </g>
</svg>
