<?xml version="1.0" encoding="UTF-8"?>
<!--Generator: Apple Native CoreSVG 326-->
<!DOCTYPE svg
PUBLIC "-//W3C//DTD SVG 1.1//EN"
       "http://www.w3.org/Graphics/SVG/1.1/DTD/svg11.dtd">
<svg version="1.1" xmlns="http://www.w3.org/2000/svg" xmlns:xlink="http://www.w3.org/1999/xlink" viewBox="0 0 51.25 50.918">
 <g>
  <rect height="50.918" opacity="0" width="51.25" x="0" y="0"/>
  <path d="M25.4297 50.8789C39.4727 50.8789 50.8789 39.4922 50.8789 25.4492C50.8789 11.4062 39.4727 0 25.4297 0C11.3867 0 0 11.4062 0 25.4492C0 39.4922 11.3867 50.8789 25.4297 50.8789ZM25.4297 47.2461C13.3789 47.2461 3.63281 37.5 3.63281 25.4492C3.63281 13.3984 13.3789 3.65234 25.4297 3.65234C37.4805 3.65234 47.2266 13.3984 47.2266 25.4492C47.2266 37.5 37.4805 47.2461 25.4297 47.2461Z" fill="black" fill-opacity="0.85"/>
  <path d="M25.4102 38.8867C32.832 38.8867 38.8477 32.8711 38.8477 25.4492C38.8477 18.0078 32.832 12.0117 25.4102 12.0117C17.9883 12.0117 11.9727 18.0078 11.9727 25.4492C11.9727 32.8711 17.9883 38.8867 25.4102 38.8867ZM25.4102 13.8672C26.8555 13.8672 28.2422 14.1211 29.5508 14.6484L26.1523 17.3438L26.1523 20.8203L29.7656 23.5742L33.0469 22.2656L34.3359 18.0859C35.9961 20.0977 37.0117 22.6562 37.0117 25.5273L33.6523 23.6523L30.1758 25.0586L28.8281 29.2188L30.6836 31.582L35.1758 31.6406C33.6523 34.0234 31.3281 35.8008 28.5742 36.582L29.5117 32.5586L27.8125 30.3711L23.0078 30.3711L21.2891 32.5391L22.2266 36.582C19.4922 35.8008 17.1484 34.0234 15.6445 31.6406L20.1367 31.582L21.9922 29.2383L20.6445 25.0586L17.168 23.6523L13.8086 25.5273C13.8086 22.6562 14.8242 20.0977 16.4844 18.0859L17.7539 22.2461L21.0547 23.5742L24.6484 20.8203L24.6484 17.3438L21.2695 14.6484C22.5586 14.1406 23.9844 13.8672 25.4102 13.8672Z" fill="black" fill-opacity="0.85"/>
 </g>
</svg>
