<?xml version="1.0" encoding="UTF-8"?>
<!--Generator: Apple Native CoreSVG 326-->
<!DOCTYPE svg
PUBLIC "-//W3C//DTD SVG 1.1//EN"
       "http://www.w3.org/Graphics/SVG/1.1/DTD/svg11.dtd">
<svg version="1.1" xmlns="http://www.w3.org/2000/svg" xmlns:xlink="http://www.w3.org/1999/xlink" viewBox="0 0 48.3203 47.9883">
 <g>
  <rect height="47.9883" opacity="0" width="48.3203" x="0" y="0"/>
  <path d="M1.71875 47.9492C2.67578 47.9492 3.45703 47.168 3.45703 46.2305L3.45703 37.4219L12.6172 37.4219C13.8672 37.4219 14.7852 36.5234 14.7852 35.293L14.7852 26.1133L23.9453 26.1133C25.1953 26.1133 26.1133 25.1953 26.1133 23.9648L26.1133 14.7852L35.2734 14.7852C36.5039 14.7852 37.4219 13.8672 37.4219 12.6367L37.4219 3.45703L46.2109 3.45703C47.168 3.45703 47.9492 2.69531 47.9492 1.73828C47.9492 0.78125 47.168 0 46.2109 0L36.1133 0C34.8828 0 33.9648 0.917969 33.9648 2.16797L33.9648 11.3281L24.7852 11.3281C23.5547 11.3281 22.6367 12.2461 22.6367 13.4961L22.6367 22.6367L13.457 22.6367C12.2266 22.6367 11.3281 23.5742 11.3281 24.8047L11.3281 33.9648L2.14844 33.9648C0.898438 33.9648 0 34.8828 0 36.1328L0 46.2305C0 47.168 0.761719 47.9492 1.71875 47.9492Z" fill="black" fill-opacity="0.85"/>
 </g>
</svg>
