<?xml version="1.0" encoding="UTF-8"?>
<!--Generator: Apple Native CoreSVG 326-->
<!DOCTYPE svg
PUBLIC "-//W3C//DTD SVG 1.1//EN"
       "http://www.w3.org/Graphics/SVG/1.1/DTD/svg11.dtd">
<svg version="1.1" xmlns="http://www.w3.org/2000/svg" xmlns:xlink="http://www.w3.org/1999/xlink" viewBox="0 0 55.5273 53.1055">
 <g>
  <rect height="53.1055" opacity="0" width="55.5273" x="0" y="0"/>
  <path d="M30.5273 0.839844L52.1094 13.3008C52.8906 13.75 53.2422 14.3164 53.2422 14.9609C53.2422 15.8398 52.5781 16.6797 51.3867 16.6797L49.1211 16.6797L49.1211 46.5039L50.7227 46.5039C51.582 46.5039 52.0898 47.0117 52.0898 47.8516L52.0898 49.6094L53.418 49.6094C54.375 49.6094 55.1562 50.3906 55.1562 51.3477C55.1562 52.2852 54.375 53.0664 53.418 53.0664L1.73828 53.0664C0.78125 53.0664 0 52.2852 0 51.3477C0 50.3906 0.78125 49.6094 1.73828 49.6094L3.06641 49.6094L3.06641 47.8516C3.06641 47.0117 3.57422 46.5039 4.45312 46.5039L6.05469 46.5039L6.05469 16.6797L3.76953 16.6797C2.57812 16.6797 1.91406 15.8398 1.91406 14.9609C1.91406 14.3164 2.24609 13.75 3.04688 13.3008L24.6289 0.839844C25.5664 0.292969 26.6016 0 27.5781 0C28.5547 0 29.5703 0.292969 30.5273 0.839844ZM21.5625 24.3945C21.5625 25.4492 21.7383 26.4648 22.1094 27.6953L19.2969 27.6953C18.7305 27.6953 18.2812 28.0859 18.2812 28.6133C18.2812 29.1602 18.7305 29.5508 19.2969 29.5508L22.6172 29.5508C22.8711 30.4688 23.0273 31.3477 23.0273 32.1875C23.0273 34.707 21.6602 36.5625 19.2969 37.3633C18.6523 37.5977 18.2227 38.0273 18.2227 38.6914C18.2227 39.375 18.7109 39.8633 19.4141 39.8633L34.707 39.8633C35.3906 39.8633 35.9375 39.3945 35.9375 38.7305C35.9375 38.0859 35.3906 37.5977 34.707 37.5977L22.5391 37.5977L22.5391 37.4805C24.6484 36.7578 25.6641 34.3359 25.6641 32.0898C25.6641 31.1133 25.5664 30.293 25.3711 29.5508L32.0898 29.5508C32.6953 29.5508 33.125 29.1602 33.125 28.6133C33.125 28.0859 32.6758 27.6953 32.0898 27.6953L24.8438 27.6953C24.4727 26.25 24.3359 25.3906 24.3359 24.3164C24.3359 21.3672 26.5039 19.5508 29.9414 19.5508C31.1133 19.5508 31.9727 19.707 32.7344 19.9414C33.1445 20.0391 33.5352 20.1172 33.8281 20.1172C34.4922 20.1172 34.8633 19.7656 34.8633 19.1211C34.8633 18.5156 34.4336 18.1641 33.8281 17.9297C32.4805 17.3828 31.3672 17.2461 29.668 17.2461C24.8242 17.2461 21.5625 19.9023 21.5625 24.3945Z" fill="black" fill-opacity="0.85"/>
 </g>
</svg>
