<?xml version="1.0" encoding="UTF-8"?>
<!--Generator: Apple Native CoreSVG 326-->
<!DOCTYPE svg
PUBLIC "-//W3C//DTD SVG 1.1//EN"
       "http://www.w3.org/Graphics/SVG/1.1/DTD/svg11.dtd">
<svg version="1.1" xmlns="http://www.w3.org/2000/svg" xmlns:xlink="http://www.w3.org/1999/xlink" viewBox="0 0 46.2891 45.918">
 <g>
  <rect height="45.918" opacity="0" width="46.2891" x="0" y="0"/>
  <path d="M7.59766 45.918L38.3008 45.918C43.3594 45.918 45.918 43.3594 45.918 38.3984L45.918 7.53906C45.918 2.55859 43.3594 0 38.3008 0L7.59766 0C2.55859 0 0 2.53906 0 7.53906L0 38.3984C0 43.3984 2.55859 45.918 7.59766 45.918ZM7.67578 42.4609C4.94141 42.4609 3.45703 41.0156 3.45703 38.2031L3.45703 7.71484C3.45703 4.92188 4.94141 3.45703 7.67578 3.45703L38.2422 3.45703C40.918 3.45703 42.4609 4.92188 42.4609 7.71484L42.4609 38.2031C42.4609 41.0156 40.918 42.4609 38.2422 42.4609Z" fill="black" fill-opacity="0.85"/>
  <path d="M14.9609 33.8867L29.9023 33.8867C30.5859 33.8867 31.1133 33.4375 31.1133 32.7734C31.1133 32.1484 30.5859 31.6602 29.9023 31.6602L18.0273 31.6602L18.0273 31.543C20.0586 30.8594 21.0547 28.4766 21.0547 26.2891C21.0547 25.3516 20.957 24.5312 20.7617 23.8281L27.3633 23.8281C27.9297 23.8281 28.3594 23.418 28.3594 22.9102C28.3594 22.3828 27.9102 21.9922 27.3633 21.9922L20.2734 21.9922C19.9023 20.6055 19.7656 19.7461 19.7656 18.7109C19.7656 15.8398 21.875 14.0625 25.2539 14.0625C26.4062 14.0625 27.2266 14.1992 27.9688 14.4141C28.3789 14.5312 28.7695 14.6094 29.0625 14.6094C29.6875 14.6094 30.0391 14.2578 30.0391 13.6523C30.0391 13.0469 29.6289 12.6953 29.0234 12.4609C27.7148 11.9531 26.6211 11.7969 25 11.7969C20.2734 11.7969 17.0898 14.3945 17.0898 18.7695C17.0898 19.8242 17.2656 20.8203 17.6172 21.9922L14.8828 21.9922C14.3164 21.9922 13.8867 22.4023 13.8867 22.9102C13.8867 23.418 14.3164 23.8281 14.8828 23.8281L18.1055 23.8281C18.3398 24.7266 18.4961 25.5664 18.4961 26.4062C18.4961 28.8477 17.168 30.6836 14.8438 31.4453C14.2383 31.6602 13.8086 32.0898 13.8086 32.7344C13.8086 33.3984 14.2969 33.8867 14.9609 33.8867Z" fill="black" fill-opacity="0.85"/>
 </g>
</svg>
