<?xml version="1.0" encoding="UTF-8"?>
<!--Generator: Apple Native CoreSVG 326-->
<!DOCTYPE svg
PUBLIC "-//W3C//DTD SVG 1.1//EN"
       "http://www.w3.org/Graphics/SVG/1.1/DTD/svg11.dtd">
<svg version="1.1" xmlns="http://www.w3.org/2000/svg" xmlns:xlink="http://www.w3.org/1999/xlink" viewBox="0 0 76.875 25.5664">
 <g>
  <rect height="25.5664" opacity="0" width="76.875" x="0" y="0"/>
  <path d="M76.5039 1.81641C76.5039 3.20312 74.5508 4.33594 74.1016 7.5L73.6328 10.8008C72.2852 20.2539 66.1719 25.5273 57.4805 25.5273C51.5039 25.5273 46.1719 22.8125 43.2227 16.3867L40.5078 10.4102C40.0586 9.39453 39.2578 8.82812 38.2617 8.82812C37.2656 8.82812 36.4648 9.39453 35.9961 10.4102L33.2812 16.3867C30.3516 22.8125 25 25.5273 19.043 25.5273C10.332 25.5273 4.21875 20.2539 2.89062 10.8008L2.42188 7.5C1.95312 4.33594 0 3.20312 0 1.81641C0 0.703125 0.820312 0 2.36328 0C10.2148 0 17.2852 0.390625 21.5039 1.03516C30.3711 2.34375 33.8867 4.62891 38.2617 4.62891C42.6172 4.62891 46.1328 2.34375 55 1.03516C59.2383 0.390625 66.3086 0 74.1406 0C75.7031 0 76.5039 0.703125 76.5039 1.81641ZM6.05469 8.32031C6.05469 16.5039 10.6836 22.2656 19.0625 22.2656C26.4844 22.2656 30.8594 17.0312 30.8594 10.5273C30.8594 6.21094 25.1758 3.94531 13.9453 3.94531C8.53516 3.94531 6.05469 5.33203 6.05469 8.32031ZM45.6445 10.5273C45.6445 17.0312 50.0195 22.2656 57.4414 22.2656C65.8398 22.2656 70.4688 16.5039 70.4688 8.32031C70.4688 5.33203 67.9688 3.94531 62.5781 3.94531C51.3477 3.94531 45.6445 6.21094 45.6445 10.5273Z" fill="black" fill-opacity="0.85"/>
 </g>
</svg>
