<?xml version="1.0" encoding="UTF-8"?>
<!--Generator: Apple Native CoreSVG 326-->
<!DOCTYPE svg
PUBLIC "-//W3C//DTD SVG 1.1//EN"
       "http://www.w3.org/Graphics/SVG/1.1/DTD/svg11.dtd">
<svg version="1.1" xmlns="http://www.w3.org/2000/svg" xmlns:xlink="http://www.w3.org/1999/xlink" viewBox="0 0 51.25 50.918">
 <g>
  <rect height="50.918" opacity="0" width="51.25" x="0" y="0"/>
  <path d="M25.4297 50.8789C39.4727 50.8789 50.8789 39.4922 50.8789 25.4492C50.8789 11.4062 39.4727 0 25.4297 0C11.3867 0 0 11.4062 0 25.4492C0 39.4922 11.3867 50.8789 25.4297 50.8789ZM25.4297 47.2461C13.3789 47.2461 3.63281 37.5 3.63281 25.4492C3.63281 13.3984 13.3789 3.65234 25.4297 3.65234C37.4805 3.65234 47.2266 13.3984 47.2266 25.4492C47.2266 37.5 37.4805 47.2461 25.4297 47.2461Z" fill="black" fill-opacity="0.85"/>
  <path d="M11.8164 30.5078L15.332 30.5078C16.0352 30.5078 16.582 30.0195 16.582 29.3555C16.582 28.7109 16.0156 28.2031 15.332 28.2031L11.8164 28.2031C11.1133 28.2031 10.5859 28.7305 10.5859 29.3555C10.5859 29.9805 11.1133 30.5078 11.8164 30.5078ZM17.4805 23.3789C17.9492 23.8477 18.7109 23.8867 19.1602 23.418C19.6484 22.9492 19.5703 22.1875 19.1016 21.7188L16.6211 19.2188C16.0938 18.7109 15.3711 18.7695 14.9219 19.1992C14.4727 19.6875 14.4727 20.3711 15 20.8789ZM25.4102 20.0195C26.0742 20.0195 26.582 19.4531 26.582 18.7695L26.582 13.9258L26.5234 12.832L26.9922 13.3008L28.6719 15.0586C28.8672 15.2539 29.2188 15.3906 29.4727 15.3906C30.0781 15.3906 30.5273 14.9414 30.5273 14.3555C30.5273 14.0625 30.4297 13.8086 30.1367 13.5156L26.1914 9.78516C25.9375 9.55078 25.6836 9.41406 25.4102 9.41406C25.1367 9.41406 24.8828 9.55078 24.6289 9.78516L20.7031 13.5156C20.4102 13.7891 20.3125 14.0625 20.3125 14.3555C20.3125 14.9414 20.7422 15.3906 21.3477 15.3906C21.6406 15.3906 21.9336 15.2344 22.168 15.0195L24.0039 13.2227L24.3164 12.8906L24.2383 13.9258L24.2383 18.7695C24.2383 19.4531 24.7461 20.0195 25.4102 20.0195ZM31.6992 23.418C32.1289 23.8672 32.8711 23.8672 33.3594 23.3789L35.8398 20.8789C36.3281 20.3711 36.3477 19.6875 35.8984 19.1992C35.4688 18.7305 34.707 18.7305 34.2188 19.2188L31.7383 21.7188C31.2305 22.207 31.1914 22.9492 31.6992 23.418ZM35.5078 30.5078L39.0039 30.5078C39.7266 30.5078 40.2344 30 40.2344 29.3555C40.2344 28.7109 39.7266 28.2031 39.0039 28.2031L35.5078 28.2031C34.8047 28.2031 34.2383 28.7109 34.2383 29.3555C34.2383 30.0195 34.8438 30.5078 35.5078 30.5078ZM32.4414 29.6484C32.4414 25.8008 29.2773 22.5977 25.4102 22.5977C21.582 22.5977 18.3789 25.8008 18.3789 29.6484C18.3789 30.5273 18.5547 31.3672 18.8867 32.1484L31.9336 32.1484C32.2656 31.3672 32.4414 30.5273 32.4414 29.6484ZM11.7969 35.9375L39.0234 35.9375C39.668 35.9375 40.2344 35.4492 40.2344 34.7852C40.2344 34.1211 39.6875 33.6328 39.0234 33.6328L11.7969 33.6328C11.1523 33.6328 10.5859 34.1406 10.5859 34.7852C10.5859 35.4492 11.1719 35.9375 11.7969 35.9375Z" fill="black" fill-opacity="0.85"/>
 </g>
</svg>
