<?xml version="1.0" encoding="UTF-8"?>
<!--Generator: Apple Native CoreSVG 326-->
<!DOCTYPE svg
PUBLIC "-//W3C//DTD SVG 1.1//EN"
       "http://www.w3.org/Graphics/SVG/1.1/DTD/svg11.dtd">
<svg version="1.1" xmlns="http://www.w3.org/2000/svg" xmlns:xlink="http://www.w3.org/1999/xlink" viewBox="0 0 68.4188 63.8477">
 <g>
  <rect height="63.8477" opacity="0" width="68.4188" x="0" y="0"/>
  <path d="M41.0063 8.49609L41.0063 13.1055L45.7328 19.3945C46.6119 20.5729 46.8283 21.3393 46.8445 23.0859L40.0688 23.0859C37.0024 23.0859 34.8149 25.5273 35.1274 28.6133L37.7641 56.0352C37.7873 56.2784 37.8161 56.5154 37.8572 56.7383L10.1664 56.7383C5.24454 56.7383 2.72501 54.2773 2.72501 49.3945L2.72501 23.3203C2.72501 21.4062 2.93986 20.625 3.83829 19.3945L8.58439 13.1055L8.58439 8.49609C8.58439 4.94141 10.5961 3.00781 14.268 3.00781L35.3227 3.00781C38.9945 3.00781 41.0063 4.94141 41.0063 8.49609ZM17.8422 9.41406C17.061 9.41406 16.4164 10.0781 16.4164 10.8398C16.4164 11.6406 17.061 12.2852 17.8422 12.2852L31.5922 12.2852C32.3735 12.2852 33.018 11.6406 33.018 10.8398C33.018 10.0781 32.3735 9.41406 31.5922 9.41406Z" fill="black" fill-opacity="0.85"/>
  <path d="M45.9672 60.7422L57.5492 60.7422C60.7133 60.7422 62.3149 59.1211 62.6469 55.7227L65.3031 28.3008C65.4203 27.0312 64.6781 26.1914 63.4281 26.1914L40.0688 26.1914C38.8383 26.1914 38.0961 27.0508 38.2328 28.3008L40.8695 55.7227C41.2016 59.1211 42.7836 60.7422 45.9672 60.7422ZM50.3422 27.3242L53.3695 27.3242L53.5258 24.9805C53.6235 23.6719 54.0336 22.9297 55.0297 22.207L63.4672 16.1523C65.1078 14.9609 63.3695 12.4219 61.5531 13.7305L53.4477 19.5898C51.5336 20.9766 50.7524 22.4219 50.557 24.8047Z" fill="black" fill-opacity="0.85"/>
 </g>
</svg>
