<?xml version="1.0" encoding="UTF-8"?>
<!--Generator: Apple Native CoreSVG 326-->
<!DOCTYPE svg
PUBLIC "-//W3C//DTD SVG 1.1//EN"
       "http://www.w3.org/Graphics/SVG/1.1/DTD/svg11.dtd">
<svg version="1.1" xmlns="http://www.w3.org/2000/svg" xmlns:xlink="http://www.w3.org/1999/xlink" viewBox="0 0 51.25 50.918">
 <g>
  <rect height="50.918" opacity="0" width="51.25" x="0" y="0"/>
  <path d="M50.8789 25.4688C50.8789 39.4922 39.4531 50.918 25.4297 50.918C11.4258 50.918 0 39.4922 0 25.4688C0 11.4648 11.4258 0.0390625 25.4297 0.0390625C39.4531 0.0390625 50.8789 11.4648 50.8789 25.4688ZM13.3984 33.0273C12.4414 33.0273 11.9336 33.5742 11.9336 34.5312L11.9336 36.9531C11.9336 37.9102 12.4414 38.457 13.3984 38.457L15.8203 38.457C16.7969 38.457 17.3047 37.9102 17.3047 36.9531L17.3047 34.5312C17.3047 33.5742 16.7969 33.0273 15.8203 33.0273ZM20.5664 33.0273C19.6289 33.0273 19.082 33.5742 19.082 34.5312L19.082 36.9531C19.082 37.9102 19.6289 38.457 20.5664 38.457L30.2344 38.457C31.1914 38.457 31.7383 37.9102 31.7383 36.9531L31.7383 34.5312C31.7383 33.5742 31.1914 33.0273 30.2344 33.0273ZM34.9805 33.0273C34.0234 33.0273 33.4766 33.5742 33.4766 34.5312L33.4766 36.9531C33.4766 37.9102 34.0234 38.457 34.9805 38.457L37.4023 38.457C38.3594 38.457 38.8867 37.9102 38.8867 36.9531L38.8867 34.5312C38.8867 33.5742 38.3594 33.0273 37.4023 33.0273ZM13.418 25.8398C12.4609 25.8398 11.9336 26.4062 11.9336 27.3242L11.9336 29.7656C11.9336 30.7227 12.4609 31.25 13.418 31.25L15.8594 31.25C16.7969 31.25 17.3047 30.7227 17.3047 29.7656L17.3047 27.3242C17.3047 26.4062 16.7969 25.8398 15.8594 25.8398ZM20.625 25.8398C19.6484 25.8398 19.082 26.4062 19.082 27.3242L19.082 29.7656C19.082 30.7227 19.6484 31.25 20.625 31.25L23.0469 31.25C23.9844 31.25 24.5312 30.7227 24.5312 29.7656L24.5312 27.3242C24.5312 26.4062 23.9844 25.8398 23.0469 25.8398ZM27.7539 25.8398C26.8164 25.8398 26.2695 26.4062 26.2695 27.3242L26.2695 29.7656C26.2695 30.7227 26.8164 31.25 27.7539 31.25L30.1953 31.25C31.1328 31.25 31.7188 30.7227 31.7188 29.7656L31.7188 27.3242C31.7188 26.4062 31.1328 25.8398 30.1953 25.8398ZM34.9219 25.8398C34.0039 25.8398 33.4375 26.4062 33.4375 27.3242L33.4375 29.7656C33.4375 30.7227 34.0039 31.25 34.9219 31.25L37.3438 31.25C38.3203 31.25 38.8867 30.7227 38.8867 29.7656L38.8867 27.3242C38.8867 26.4062 38.3203 25.8398 37.3438 25.8398ZM11.9727 16.2109C10.8789 17.2656 10.2734 18.6133 10.2734 20.3125C10.2734 21.4453 10.6055 23.0469 11.8164 23.2812C12.1875 23.4766 12.6562 23.4375 13.2227 23.3594L16.9922 22.7148C18.3008 22.5 18.9258 22.0312 19.2773 20.7617L19.8828 18.4766C20.0391 18.0469 20.1758 17.8516 20.6836 17.6953C21.7188 17.3242 23.3984 17.1094 25.4297 17.1094C27.4805 17.1094 29.1602 17.3242 30.1953 17.6953C30.7227 17.8516 30.8398 18.0469 30.9766 18.4766L31.6016 20.7617C31.9336 22.0312 32.5781 22.5 33.8672 22.7148L37.6367 23.3594C38.2227 23.4375 38.6719 23.4766 39.0625 23.2812C40.2539 23.0469 40.6055 21.4453 40.6055 20.3125C40.6055 18.6133 39.9805 17.2656 38.9062 16.2109C36.1328 13.3594 30.4492 12.4414 25.4297 12.4414C20.4297 12.4414 14.7266 13.3594 11.9727 16.2109Z" fill="black" fill-opacity="0.85"/>
 </g>
</svg>
