<?xml version="1.0" encoding="UTF-8"?>
<!--Generator: Apple Native CoreSVG 326-->
<!DOCTYPE svg
PUBLIC "-//W3C//DTD SVG 1.1//EN"
       "http://www.w3.org/Graphics/SVG/1.1/DTD/svg11.dtd">
<svg version="1.1" xmlns="http://www.w3.org/2000/svg" xmlns:xlink="http://www.w3.org/1999/xlink" viewBox="0 0 51.25 50.918">
 <g>
  <rect height="50.918" opacity="0" width="51.25" x="0" y="0"/>
  <path d="M50.8789 25.4492C50.8789 39.4531 39.4531 50.8789 25.4297 50.8789C11.4258 50.8789 0 39.4531 0 25.4492C0 11.4258 11.4258 0 25.4297 0C39.4531 0 50.8789 11.4258 50.8789 25.4492ZM24.6289 14.0039C22.3633 16.3086 21.3477 19.2578 21.3867 21.9727C21.3867 25.5664 21.0352 27.793 18.3203 30.8789C17.8125 30.625 17.1484 30.6836 16.6992 31.1523L11.3867 36.4844C10.8203 37.0508 10.8008 37.8711 11.3867 38.4766L12.3047 39.3945C12.8711 39.9805 13.75 39.9805 14.3164 39.3945L19.6094 34.082C20.0586 33.6328 20.1758 33.0469 19.9414 32.5391C23.0078 29.8242 25.1562 29.4922 28.7891 29.4531C31.582 29.375 34.4727 28.4961 36.7969 26.1914C40.7227 22.2266 41.1914 16.4062 37.793 13.0273C34.375 9.64844 28.5547 10.0781 24.6289 14.0039ZM32.3438 26.7578C31.0938 27.3242 29.7852 27.5195 28.5742 27.3242L30.7617 25.1367ZM29.5312 23.9258L26.6797 26.7969C26.1133 26.5234 25.5859 26.1719 25.1172 25.6836C24.7461 25.3125 24.4141 24.9023 24.1602 24.4531L27.1094 21.5039ZM36.582 23.2031C36.2305 23.7109 35.8008 24.2383 35.332 24.707C34.8633 25.1562 34.3945 25.5469 33.9258 25.8594L31.9922 23.9258L34.6484 21.2695ZM33.418 20.0391L30.7617 22.7148L28.3398 20.2734L30.9961 17.6367ZM25.8789 20.2734L23.5156 22.6562C23.2422 21.3281 23.418 19.8633 24.0625 18.457ZM37.4609 21.6211L35.8594 20.0391L37.9492 17.9688C38.1445 19.1211 37.9688 20.3906 37.4609 21.6211ZM29.7656 16.4062L27.1094 19.043L24.9414 16.875C25.2734 16.4062 25.6641 15.9375 26.1328 15.4883C26.6016 15.0195 27.1094 14.6094 27.6367 14.2578ZM36.3086 14.4922C36.7578 14.9609 37.1289 15.4688 37.4023 16.0156L34.6289 18.8086L32.2266 16.4062L35.0781 13.5547C35.5078 13.7891 35.918 14.1211 36.3086 14.4922ZM33.2617 12.8906L30.9961 15.1562L29.1992 13.3789C30.5664 12.793 31.9922 12.6172 33.2617 12.8906Z" fill="black" fill-opacity="0.85"/>
 </g>
</svg>
