<?xml version="1.0" encoding="UTF-8"?>
<!--Generator: Apple Native CoreSVG 326-->
<!DOCTYPE svg
PUBLIC "-//W3C//DTD SVG 1.1//EN"
       "http://www.w3.org/Graphics/SVG/1.1/DTD/svg11.dtd">
<svg version="1.1" xmlns="http://www.w3.org/2000/svg" xmlns:xlink="http://www.w3.org/1999/xlink" viewBox="0 0 57.3096 56.9683">
 <g>
  <rect height="56.9683" opacity="0" width="57.3096" x="0" y="0"/>
  <path d="M10.979 17.7087L10.979 47.7322C10.979 50.4666 12.4243 51.9509 15.2368 51.9509L41.7407 51.9509C42.893 51.9509 43.8158 51.7018 44.4997 51.2156L47.1552 53.87C45.9185 54.8943 44.1762 55.408 41.936 55.408L15.0415 55.408C10.0415 55.408 7.52198 52.8494 7.52198 47.8103L7.52198 14.2531ZM49.4556 9.17749L49.4556 42.6981L45.9985 39.2439L45.9985 9.25561C45.9985 6.52124 44.5532 5.03686 41.7407 5.03686L15.2368 5.03686C14.0916 5.03686 13.173 5.283 12.4905 5.76351L9.83303 3.10822C11.0695 2.09038 12.808 1.57983 15.0415 1.57983L41.936 1.57983C46.936 1.57983 49.4556 4.13843 49.4556 9.17749ZM26.3799 33.1033L18.7329 33.1033C17.9321 33.1033 17.3462 32.5173 17.3462 31.7751C17.3462 30.9939 17.9321 30.3884 18.7329 30.3884L23.664 30.3884ZM39.6314 22.908C39.6314 23.6697 39.0454 24.2751 38.2642 24.2751L31.0174 24.2751L28.3199 21.5798L38.2642 21.5798C39.0454 21.5798 39.6314 22.1658 39.6314 22.908ZM39.6314 14.0798C39.6314 14.8611 39.0454 15.4666 38.2642 15.4666L22.2015 15.4666L19.4845 12.7517L38.2642 12.7517C39.0454 12.7517 39.6314 13.3376 39.6314 14.0798Z" fill="black" fill-opacity="0.85"/>
  <path d="M50.9985 53.3572C51.6821 54.0017 52.7173 54.0017 53.3618 53.3572C54.0064 52.6931 54.0064 51.6189 53.3618 50.9744L5.93995 3.59155C5.31495 2.94702 4.26026 2.92749 3.57667 3.59155C2.93214 4.21655 2.93214 5.3103 3.57667 5.9353Z" fill="black" fill-opacity="0.85"/>
 </g>
</svg>
