<?xml version="1.0" encoding="UTF-8"?>
<!--Generator: Apple Native CoreSVG 326-->
<!DOCTYPE svg
PUBLIC "-//W3C//DTD SVG 1.1//EN"
       "http://www.w3.org/Graphics/SVG/1.1/DTD/svg11.dtd">
<svg version="1.1" xmlns="http://www.w3.org/2000/svg" xmlns:xlink="http://www.w3.org/1999/xlink" viewBox="0 0 52.8516 61.8945">
 <g>
  <rect height="61.8945" opacity="0" width="52.8516" x="0" y="0"/>
  <path d="M44.5312 53.1641C46.4453 54.5117 48.0273 55.6836 50.8203 55.6836L50.9375 55.6836C51.7969 55.6836 52.4805 56.3672 52.4805 57.207C52.4805 58.0664 51.7969 58.75 50.9375 58.75L50.8203 58.75C43.1641 58.75 42.5 53.6328 38.2031 53.6328C34.0039 53.6328 32.9297 58.75 26.2305 58.75C19.5508 58.75 18.4766 53.6328 14.2773 53.6328C9.98047 53.6328 9.29688 58.75 1.66016 58.75L1.52344 58.75C0.683594 58.75 0 58.0664 0 57.207C0 56.3672 0.683594 55.6836 1.52344 55.6836L1.66016 55.6836C4.45312 55.6836 6.03516 54.5117 7.92969 53.1641C9.57031 51.9727 11.543 50.5664 14.2773 50.5664C17.0703 50.5664 19.082 52.0703 20.7227 53.2812C22.4609 54.6094 23.8867 55.6836 26.2305 55.6836C28.5742 55.6836 30.0195 54.6094 31.7578 53.2812C33.3984 52.0703 35.3906 50.5664 38.2031 50.5664C40.918 50.5664 42.8906 51.9727 44.5312 53.1641ZM15.0225 39.7273C15.0254 40.8397 15.191 41.9116 15.4986 42.9206C15.123 42.8099 14.7173 42.7539 14.2773 42.7539C9.98047 42.7539 9.29688 47.8516 1.66016 47.8516L1.52344 47.8516C0.683594 47.8516 0 47.168 0 46.3281C0 45.4883 0.683594 44.7852 1.52344 44.7852L1.66016 44.7852C4.45312 44.7852 6.03516 43.6133 7.92969 42.2852C9.57031 41.0938 11.543 39.6875 14.2773 39.6875C14.5329 39.6875 14.7819 39.6999 15.0225 39.7273ZM44.5312 42.2852C46.4453 43.6133 48.0273 44.7852 50.8203 44.7852L50.9375 44.7852C51.7969 44.7852 52.4805 45.4883 52.4805 46.3281C52.4805 47.168 51.7969 47.8516 50.9375 47.8516L50.8203 47.8516C43.1641 47.8516 42.5 42.7539 38.2031 42.7539C37.7709 42.7539 37.3718 42.8079 37.0024 42.9158C37.3097 41.9075 37.4748 40.8364 37.4776 39.7249C37.7118 39.6991 37.9542 39.6875 38.2031 39.6875C40.918 39.6875 42.8906 41.0938 44.5312 42.2852Z" fill="black" fill-opacity="0.85"/>
  <path d="M26.2305 47.793C30.7422 47.793 34.375 44.1797 34.375 39.668C34.375 36.5234 32.5781 33.9844 30.1562 32.6562C29.2383 32.168 28.8477 31.5039 28.8477 30.1562L28.8477 5.70312C28.8477 4.27734 27.6953 3.10547 26.25 3.10547C24.8242 3.10547 23.6719 4.27734 23.6719 5.70312L23.6719 30.1562C23.6719 31.4648 23.2422 32.1094 22.3047 32.6172C19.9023 33.9453 18.1445 36.5234 18.1445 39.668C18.1445 44.1797 21.7578 47.793 26.2305 47.793ZM35.4883 8.14453L40.8594 8.14453C41.6406 8.14453 42.1875 7.53906 42.1875 6.85547C42.1875 6.17188 41.6406 5.56641 40.8594 5.56641L35.4883 5.56641C34.707 5.56641 34.1602 6.17188 34.1602 6.85547C34.1602 7.53906 34.707 8.14453 35.4883 8.14453ZM35.4883 15.2148L40.8594 15.2148C41.6406 15.2148 42.1875 14.6289 42.1875 13.9258C42.1875 13.2422 41.6406 12.6562 40.8594 12.6562L35.4883 12.6562C34.707 12.6562 34.1602 13.2422 34.1602 13.9258C34.1602 14.6289 34.707 15.2148 35.4883 15.2148ZM35.4883 22.2852L40.8594 22.2852C41.6406 22.2852 42.1875 21.6992 42.1875 21.0156C42.1875 20.3125 41.6406 19.7266 40.8594 19.7266L35.4883 19.7266C34.707 19.7266 34.1602 20.3125 34.1602 21.0156C34.1602 21.6992 34.707 22.2852 35.4883 22.2852ZM35.4883 29.375L40.8594 29.375C41.6406 29.375 42.1875 28.7695 42.1875 28.0859C42.1875 27.4023 41.6406 26.7969 40.8594 26.7969L35.4883 26.7969C34.707 26.7969 34.1602 27.4023 34.1602 28.0859C34.1602 28.7695 34.707 29.375 35.4883 29.375Z" fill="black" fill-opacity="0.85"/>
 </g>
</svg>
