<?xml version="1.0" encoding="UTF-8"?>
<!--Generator: Apple Native CoreSVG 326-->
<!DOCTYPE svg
PUBLIC "-//W3C//DTD SVG 1.1//EN"
       "http://www.w3.org/Graphics/SVG/1.1/DTD/svg11.dtd">
<svg version="1.1" xmlns="http://www.w3.org/2000/svg" xmlns:xlink="http://www.w3.org/1999/xlink" viewBox="0 0 60.4688 43.6768">
 <g>
  <rect height="43.6768" opacity="0" width="60.4688" x="0" y="0"/>
  <path d="M15.7031 38.3911L43.4961 43.2349C48.0664 44.0161 51.0742 41.5552 51.0742 37.0435L51.0742 6.34033C51.0742 1.82861 48.0664-0.651855 43.4961 0.148926L15.7031 4.99268C11.3867 5.73486 9.02344 8.23486 9.02344 12.0044L9.02344 31.3794C9.02344 35.1294 11.3867 37.6489 15.7031 38.3911ZM1.71875 23.3325C0.644531 23.3325 0 22.688 0 21.7114C0 20.6763 0.644531 20.0513 1.71875 20.0513L58.3789 20.0513C59.4531 20.0513 60.0977 20.6763 60.0977 21.7114C60.0977 22.688 59.4531 23.3325 58.3789 23.3325Z" fill="black" fill-opacity="0.85"/>
 </g>
</svg>
