<?xml version="1.0" encoding="UTF-8"?>
<!--Generator: Apple Native CoreSVG 326-->
<!DOCTYPE svg
PUBLIC "-//W3C//DTD SVG 1.1//EN"
       "http://www.w3.org/Graphics/SVG/1.1/DTD/svg11.dtd">
<svg version="1.1" xmlns="http://www.w3.org/2000/svg" xmlns:xlink="http://www.w3.org/1999/xlink" viewBox="0 0 46.2891 46.5039">
 <g>
  <rect height="46.5039" opacity="0" width="46.2891" x="0" y="0"/>
  <path d="M45.918 8.10547L45.918 38.9844C45.918 43.9453 43.3594 46.5039 38.3008 46.5039L7.59766 46.5039C2.55859 46.5039 0 43.9648 0 38.9844L0 8.10547C0 3.125 2.55859 0.585938 7.59766 0.585938L38.3008 0.585938C43.3594 0.585938 45.918 3.14453 45.918 8.10547ZM7.67578 4.04297C4.94141 4.04297 3.45703 5.48828 3.45703 8.30078L3.45703 38.7891C3.45703 41.6016 4.94141 43.0469 7.67578 43.0469L38.2422 43.0469C40.918 43.0469 42.4609 41.6016 42.4609 38.7891L42.4609 8.30078C42.4609 5.48828 40.918 4.04297 38.2422 4.04297Z" fill="black" fill-opacity="0.85"/>
  <path d="M17.2826 21.7486L17.8125 33.6719C17.8125 34.1602 18.1641 34.4727 18.6523 34.4727C19.1797 34.4727 19.4727 34.1406 19.4531 33.6523L19.0701 23.5346L22.0508 26.5128L22.0508 33.6523C22.0508 34.1211 22.4023 34.4531 22.9102 34.4531C23.418 34.4531 23.7891 34.1211 23.7891 33.6523L23.7891 28.2497L26.4703 30.9287L26.3672 33.6523C26.3477 34.1406 26.6406 34.4727 27.1875 34.4727C27.6562 34.4727 28.0078 34.1602 28.0078 33.6719L28.0592 32.5163L32.1009 36.5547C31.7675 37.702 30.7895 38.3789 29.4531 38.3789L16.5234 38.3789C14.8633 38.3789 13.8281 37.3828 13.7695 35.7617L12.9225 17.3921ZM29.0234 11.3477L29.0234 13.4766L35.2344 13.4766C35.8008 13.4766 36.25 13.9258 36.2305 14.4727C36.2109 15 35.8008 15.4297 35.2344 15.4297L33.1445 15.4297L32.517 29.3299L28.3846 25.1942L28.6719 18.7305C28.6719 18.2227 28.3594 17.8711 27.8125 17.8711C27.3047 17.8711 26.9531 18.1836 26.9336 18.6914L26.7494 23.5576L23.7891 20.5948L23.7891 18.7109C23.7891 18.2031 23.457 17.8711 22.9102 17.8711C22.3828 17.8711 22.0508 18.2031 22.0508 18.7109L22.0508 18.8551L16.6767 13.4766L16.9336 13.4766L16.9336 11.3477C16.9336 9.39453 18.2617 8.10547 20.3711 8.10547L25.5469 8.10547C27.6758 8.10547 29.0234 9.39453 29.0234 11.3477ZM20.4688 10.293C19.707 10.293 19.1797 10.7812 19.1797 11.4844L19.1797 13.4766L26.6797 13.4766L26.6797 11.4844C26.6797 10.7812 26.1523 10.293 25.3906 10.293Z" fill="black" fill-opacity="0.85"/>
  <path d="M34.043 36.1328C34.4336 36.5234 35.1172 36.5234 35.5078 36.1328C35.918 35.7031 35.918 35.0781 35.5078 34.6484L11.875 10.9961C11.4453 10.5859 10.8008 10.5859 10.3906 10.9961C9.98047 11.4062 9.98047 12.0703 10.3906 12.4609Z" fill="black" fill-opacity="0.85"/>
 </g>
</svg>
