<?xml version="1.0" encoding="UTF-8"?>
<!--Generator: Apple Native CoreSVG 326-->
<!DOCTYPE svg
PUBLIC "-//W3C//DTD SVG 1.1//EN"
       "http://www.w3.org/Graphics/SVG/1.1/DTD/svg11.dtd">
<svg version="1.1" xmlns="http://www.w3.org/2000/svg" xmlns:xlink="http://www.w3.org/1999/xlink" viewBox="0 0 51.25 50.918">
 <g>
  <rect height="50.918" opacity="0" width="51.25" x="0" y="0"/>
  <path d="M50.8789 25.4688C50.8789 39.4922 39.4531 50.918 25.4297 50.918C11.4258 50.918 0 39.4922 0 25.4688C0 11.4648 11.4258 0.0390625 25.4297 0.0390625C39.4531 0.0390625 50.8789 11.4648 50.8789 25.4688ZM16.0156 37.9883C16.0742 39.6875 17.1484 40.6836 18.8477 40.6836L32.0898 40.6836C33.4699 40.6836 34.4855 39.9953 34.8202 38.7851L30.6786 34.6434L30.625 35.8789C30.625 36.3477 30.2539 36.6797 29.7656 36.6797C29.2188 36.6797 28.9062 36.3281 28.9258 35.8398L29.0345 32.9993L26.2891 30.2539L26.2891 35.8398C26.2891 36.3281 25.918 36.6797 25.3906 36.6797C24.8633 36.6797 24.5117 36.3281 24.5117 35.8398L24.5117 28.4766L21.4568 25.4217L21.8555 35.8398C21.875 36.3281 21.5625 36.6797 21.0156 36.6797C20.5273 36.6797 20.1562 36.3477 20.1562 35.8789L19.6232 23.5881L15.1471 19.112ZM12.5586 12.5977C12.1484 13.0273 12.168 13.7109 12.5586 14.1016L36.8164 38.3398C37.207 38.75 37.9102 38.75 38.3203 38.3398C38.75 37.8906 38.75 37.2461 38.3203 36.8359L14.082 12.5977C13.6719 12.168 13.0078 12.168 12.5586 12.5977ZM22.793 9.66797C20.625 9.66797 19.2578 10.9961 19.2578 13.0078L19.2578 15.1758L19.1016 15.1758L24.5117 20.5859L24.5117 20.5469C24.5117 20.0195 24.8438 19.707 25.3906 19.707C25.957 19.707 26.2891 20.0195 26.2891 20.5469L26.2891 22.3633L29.3253 25.3995L29.5117 20.5273C29.5312 20.0195 29.8828 19.707 30.4102 19.707C30.9766 19.707 31.2891 20.0391 31.2891 20.5664L31.0066 27.0808L35.2421 31.3163L35.8789 17.1875L38.0078 17.1875C38.5938 17.1875 39.0234 16.7578 39.043 16.2109C39.0625 15.6445 38.5938 15.1758 38.0078 15.1758L31.6602 15.1758L31.6602 13.0078C31.6602 10.9961 30.2734 9.66797 28.0859 9.66797ZM29.2383 13.1445L29.2383 15.1758L21.582 15.1758L21.582 13.1445C21.582 12.4219 22.1094 11.9336 22.8711 11.9336L27.9297 11.9336C28.7109 11.9336 29.2383 12.4219 29.2383 13.1445Z" fill="black" fill-opacity="0.85"/>
 </g>
</svg>
