<?xml version="1.0" encoding="UTF-8"?>
<!--Generator: Apple Native CoreSVG 326-->
<!DOCTYPE svg
PUBLIC "-//W3C//DTD SVG 1.1//EN"
       "http://www.w3.org/Graphics/SVG/1.1/DTD/svg11.dtd">
<svg version="1.1" xmlns="http://www.w3.org/2000/svg" xmlns:xlink="http://www.w3.org/1999/xlink" viewBox="0 0 46.2891 45.918">
 <g>
  <rect height="45.918" opacity="0" width="46.2891" x="0" y="0"/>
  <path d="M45.918 7.53906L45.918 38.3984C45.918 43.3594 43.3594 45.918 38.3008 45.918L7.59766 45.918C2.55859 45.918 0 43.3984 0 38.3984L0 7.53906C0 2.53906 2.55859 0 7.59766 0L38.3008 0C43.3594 0 45.918 2.55859 45.918 7.53906ZM13.5352 35.4688C13.5938 37.168 14.668 38.1641 16.3672 38.1641L29.6094 38.1641C31.0112 38.1641 32.0185 37.4703 32.3448 36.2511L28.2161 32.1224L28.1641 33.3594C28.1445 33.8281 27.7734 34.1602 27.2852 34.1602C26.7383 34.1602 26.4258 33.8086 26.4453 33.3203L26.5547 30.461L23.8086 27.7148L23.8086 33.3203C23.8086 33.8086 23.4375 34.1602 22.9102 34.1602C22.3828 34.1602 22.0312 33.8086 22.0312 33.3203L22.0312 25.9375L18.9756 22.8818L19.375 33.3203C19.3945 33.8086 19.082 34.1602 18.5352 34.1602C18.0469 34.1602 17.6758 33.8281 17.6758 33.3594L17.1419 21.0481L12.6657 16.572ZM10.0781 10.0586C9.6875 10.4883 9.6875 11.1719 10.0781 11.5625L34.3359 35.8203C34.7461 36.2109 35.4297 36.2305 35.8398 35.8203C36.2695 35.3711 36.2695 34.7266 35.8398 34.3164L11.6211 10.0586C11.1914 9.64844 10.5273 9.64844 10.0781 10.0586ZM20.3125 7.14844C18.1445 7.14844 16.7773 8.47656 16.7773 10.4883L16.7773 12.6562L16.6241 12.6563L22.0312 18.059L22.0312 18.0273C22.0312 17.5 22.3633 17.1875 22.9102 17.1875C23.4766 17.1875 23.8086 17.5 23.8086 18.0273L23.8086 19.8349L26.8452 22.8691L27.0312 18.0078C27.0508 17.5 27.4023 17.1875 27.9297 17.1875C28.4961 17.1875 28.8281 17.5195 28.8086 18.0469L28.5346 24.5571L32.7683 28.7874L33.418 14.668L35.5273 14.668C36.1133 14.668 36.543 14.2383 36.5625 13.6914C36.582 13.125 36.1133 12.6562 35.5273 12.6562L29.1797 12.6562L29.1797 10.4883C29.1797 8.47656 27.793 7.14844 25.6055 7.14844ZM26.7578 10.625L26.7578 12.6562L19.1016 12.6562L19.1016 10.625C19.1016 9.90234 19.6289 9.41406 20.3906 9.41406L25.4492 9.41406C26.2305 9.41406 26.7578 9.90234 26.7578 10.625Z" fill="black" fill-opacity="0.85"/>
 </g>
</svg>
