<?xml version="1.0" encoding="UTF-8"?>
<!--Generator: Apple Native CoreSVG 326-->
<!DOCTYPE svg
PUBLIC "-//W3C//DTD SVG 1.1//EN"
       "http://www.w3.org/Graphics/SVG/1.1/DTD/svg11.dtd">
<svg version="1.1" xmlns="http://www.w3.org/2000/svg" xmlns:xlink="http://www.w3.org/1999/xlink" viewBox="0 0 51.25 50.918">
 <g>
  <rect height="50.918" opacity="0" width="51.25" x="0" y="0"/>
  <path d="M25.4297 50.8789C39.4727 50.8789 50.8789 39.4922 50.8789 25.4492C50.8789 11.4062 39.4727 0 25.4297 0C11.3867 0 0 11.4062 0 25.4492C0 39.4922 11.3867 50.8789 25.4297 50.8789ZM25.4297 47.2461C13.3789 47.2461 3.63281 37.5 3.63281 25.4492C3.63281 13.3984 13.3789 3.65234 25.4297 3.65234C37.4805 3.65234 47.2266 13.3984 47.2266 25.4492C47.2266 37.5 37.4805 47.2461 25.4297 47.2461Z" fill="black" fill-opacity="0.85"/>
  <path d="M14.4141 35.5273L36.4453 35.5273C38.9648 35.5273 40.2539 34.2383 40.2539 31.7578L40.2539 24.8438C40.2539 23.8086 40.0781 23.3398 39.5898 22.6953L34.9023 16.4062C33.5352 14.5898 32.7344 14.1602 30.6641 14.1602L20.1953 14.1602C18.125 14.1602 17.3047 14.5898 15.957 16.4062L11.2695 22.6953C10.8008 23.3398 10.625 23.8086 10.625 24.8438L10.625 31.7578C10.625 34.2383 11.9141 35.5273 14.4141 35.5273ZM13.7695 24.0625C13.418 24.0625 13.3594 23.7891 13.5352 23.5547L18.0859 17.3633C18.5938 16.6602 19.1016 16.3672 20.0391 16.3672L30.8594 16.3672C31.7773 16.3672 32.2852 16.6797 32.793 17.3633L37.3633 23.5547C37.5195 23.7695 37.4414 24.0625 37.1094 24.0625L29.4531 24.0625C28.8672 24.0625 28.5938 24.5117 28.5938 25L28.5938 25.2539C28.5938 27.0898 27.3047 28.2812 25.4297 28.2812C23.5547 28.2812 22.3047 27.0898 22.3047 25.2539L22.3047 25C22.3047 24.5117 21.9922 24.0625 21.4062 24.0625Z" fill="black" fill-opacity="0.85"/>
 </g>
</svg>
