<?xml version="1.0" encoding="UTF-8"?>
<!--Generator: Apple Native CoreSVG 326-->
<!DOCTYPE svg
PUBLIC "-//W3C//DTD SVG 1.1//EN"
       "http://www.w3.org/Graphics/SVG/1.1/DTD/svg11.dtd">
<svg version="1.1" xmlns="http://www.w3.org/2000/svg" xmlns:xlink="http://www.w3.org/1999/xlink" viewBox="0 0 59.5508 57.2852">
 <g>
  <rect height="57.2852" opacity="0" width="59.5508" x="0" y="0"/>
  <path d="M3.45703 49.8242C3.45703 52.6172 4.94141 54.0625 7.67578 54.0625L51.5039 54.0625C54.1797 54.0625 55.7031 52.6172 55.7031 49.8242L55.7031 37.6758L39.0039 37.6758C38.5156 42.4414 34.6094 45.9375 29.5898 45.9375C24.5703 45.9375 20.6445 42.4609 20.1562 37.6758L23.5796 37.6758C24.1141 40.3953 26.393 42.7344 29.5898 42.7344C32.7697 42.7344 35.0612 40.3953 35.5992 37.6758L51.5625 37.6758C55.5531 37.6758 57.9879 36.0957 58.8311 33.1114C59.1299 33.9363 59.1797 34.9225 59.1797 36.1719L59.1797 50C59.1797 54.707 56.6211 57.2461 51.5625 57.2461L7.59766 57.2461C2.55859 57.2461 0 54.7461 0 50L0 36.1719C0 34.9228 0.0497648 33.9368 0.344063 33.1121C1.18294 36.1148 3.61593 37.6758 7.59766 37.6758L3.45703 37.6758Z" fill="black" fill-opacity="0.85"/>
  <path d="M7.59766 37.6758L51.5625 37.6758C56.6211 37.6758 59.1797 35.1367 59.1797 30.4297L59.1797 16.6016C59.1797 14.5312 59.043 13.1836 57.8711 12.0703L48.7891 3.33984C46.1719 0.839844 44.2188 0 40.6055 0L18.5547 0C14.9609 0 13.0078 0.839844 10.3906 3.33984L1.28906 12.0703C0.136719 13.1836 0 14.5312 0 16.6016L0 30.4297C0 35.1758 2.55859 37.6758 7.59766 37.6758ZM29.5898 23.1641C25.918 23.1641 23.457 20.0781 23.457 16.875L23.457 16.7578C23.457 15.8008 22.8906 14.9414 21.7383 14.9414L4.375 14.9414C3.69141 14.9414 3.49609 14.3555 4.00391 13.8477L13.0469 5.17578C14.707 3.57422 15.8398 3.04688 18.2812 3.04688L40.8984 3.04688C43.3203 3.04688 44.4727 3.57422 46.1328 5.17578L55.1562 13.8477C55.6641 14.3555 55.4883 14.9414 54.8047 14.9414L37.4414 14.9414C36.2695 14.9414 35.7227 15.8008 35.7227 16.7578L35.7227 16.875C35.7227 20.0781 33.2422 23.1641 29.5898 23.1641ZM29.5898 26.3477C34.6094 26.3477 38.5156 22.8711 39.0039 18.1055L55.7031 18.1055L55.7031 30.2344C55.7031 33.0469 54.1797 34.4922 51.5039 34.4922L7.67578 34.4922C4.94141 34.4922 3.45703 33.0469 3.45703 30.2344L3.45703 18.1055L20.1562 18.1055C20.6445 22.8906 24.5703 26.3477 29.5898 26.3477Z" fill="black" fill-opacity="0.85"/>
 </g>
</svg>
