<?xml version="1.0" encoding="UTF-8"?>
<!--Generator: Apple Native CoreSVG 326-->
<!DOCTYPE svg
PUBLIC "-//W3C//DTD SVG 1.1//EN"
       "http://www.w3.org/Graphics/SVG/1.1/DTD/svg11.dtd">
<svg version="1.1" xmlns="http://www.w3.org/2000/svg" xmlns:xlink="http://www.w3.org/1999/xlink" viewBox="0 0 65.7812 63.3398">
 <g>
  <rect height="63.3398" opacity="0" width="65.7812" x="0" y="0"/>
  <path d="M8.18291 40.7192C8.20932 40.7216 8.23562 40.7227 8.26172 40.7227L24.8438 40.7227C26.0156 40.7227 26.5625 41.582 26.5625 42.5391L26.5625 42.6562C26.5625 45.8398 29.043 48.9453 32.6953 48.9453C36.3672 48.9453 38.8281 45.8398 38.8281 42.6562L38.8281 42.5391C38.8281 41.582 39.3945 40.7227 40.5469 40.7227L57.168 40.7227C57.2477 40.7227 57.3225 40.7193 57.3924 40.7128C59.1927 40.683 60.7266 40.2054 61.9535 39.3551C62.2368 40.1764 62.2852 41.1519 62.2852 42.3828L62.2852 53.0273C62.2852 57.7539 59.7461 60.2734 54.6875 60.2734L10.7227 60.2734C5.68359 60.2734 3.125 57.7734 3.125 53.0273L3.125 42.3828C3.125 41.144 3.16696 40.1639 3.45366 39.3393C4.7228 40.2223 6.31633 40.7087 8.18291 40.7192Z" fill="black" fill-opacity="0.85"/>
  <path d="M10.7227 37.5977L54.6875 37.5977C59.7461 37.5977 62.2852 35.0977 62.2852 30.3516L62.2852 19.707C62.2852 17.6367 62.1484 16.2891 60.9961 15.1758L51.9141 6.44531C49.2773 3.94531 47.3242 3.10547 43.7305 3.10547L21.6797 3.10547C18.0859 3.10547 16.1328 3.94531 13.4961 6.44531L4.41406 15.1758C3.24219 16.2891 3.125 17.6367 3.125 19.707L3.125 30.3516C3.125 35.0977 5.68359 37.5977 10.7227 37.5977ZM32.6953 26.2695C29.043 26.2695 26.5625 23.1836 26.5625 19.9805L26.5625 19.8633C26.5625 18.9062 26.0156 18.0469 24.8438 18.0469L7.48047 18.0469C6.81641 18.0469 6.62109 17.4609 7.12891 16.9531L16.1523 8.28125C17.832 6.67969 18.9648 6.15234 21.3867 6.15234L44.0039 6.15234C46.4453 6.15234 47.5781 6.67969 49.2578 8.28125L58.2812 16.9531C58.7891 17.4609 58.5938 18.0469 57.9297 18.0469L40.5469 18.0469C39.3945 18.0469 38.8281 18.9062 38.8281 19.8633L38.8281 19.9805C38.8281 23.1836 36.3672 26.2695 32.6953 26.2695Z" fill="black" fill-opacity="0.85"/>
 </g>
</svg>
