<?xml version="1.0" encoding="UTF-8"?>
<!--Generator: Apple Native CoreSVG 326-->
<!DOCTYPE svg
PUBLIC "-//W3C//DTD SVG 1.1//EN"
       "http://www.w3.org/Graphics/SVG/1.1/DTD/svg11.dtd">
<svg version="1.1" xmlns="http://www.w3.org/2000/svg" xmlns:xlink="http://www.w3.org/1999/xlink" viewBox="0 0 58.9648 37.207">
 <g>
  <rect height="37.207" opacity="0" width="58.9648" x="0" y="0"/>
  <path d="M31.9531 36.6406L41.6992 36.6406C51.9922 36.6406 58.5938 29.3945 58.5938 18.5352C58.5938 7.71484 51.9922 0.527344 41.6992 0.527344L31.9531 0.527344C30.7617 0.527344 30.0195 1.30859 30.0195 2.51953L30.0195 34.668C30.0195 35.8789 30.7617 36.6406 31.9531 36.6406ZM33.8867 33.1445L33.8867 3.98438L41.4453 3.98438C49.5312 3.98438 54.6484 9.80469 54.6484 18.5547C54.6484 27.3047 49.5312 33.1445 41.4453 33.1445Z" fill="black" fill-opacity="0.85"/>
  <path d="M1.89453 36.7188L23.2031 36.7188C24.2773 36.7188 24.9609 36.0352 24.9609 35C24.9609 33.9648 24.2773 33.2812 23.2031 33.2812L5.42969 33.2812L5.42969 33.1641L15.7422 22.9297C21.7578 16.9922 23.5742 14.0039 23.5742 10.1758C23.5742 4.41406 18.5547 0 11.8359 0C6.60156 0 2.10938 2.8125 0.585938 7.14844C0.253906 8.04688 0.078125 8.86719 0.078125 9.53125C0.078125 10.625 0.722656 11.3477 1.77734 11.3477C2.77344 11.3477 3.22266 10.8594 3.53516 9.78516C3.71094 8.98438 3.96484 8.22266 4.35547 7.55859C5.68359 5.07812 8.35938 3.39844 11.8359 3.39844C16.1914 3.39844 19.668 6.52344 19.668 10.3711C19.668 13.3594 18.3789 15.4492 13.1836 20.6445L1.19141 32.6953C0.292969 33.5938 0 34.1406 0 34.9219C0 36.0352 0.761719 36.7188 1.89453 36.7188Z" fill="black" fill-opacity="0.85"/>
 </g>
</svg>
