<?xml version="1.0" encoding="UTF-8"?>
<!--Generator: Apple Native CoreSVG 326-->
<!DOCTYPE svg
PUBLIC "-//W3C//DTD SVG 1.1//EN"
       "http://www.w3.org/Graphics/SVG/1.1/DTD/svg11.dtd">
<svg version="1.1" xmlns="http://www.w3.org/2000/svg" xmlns:xlink="http://www.w3.org/1999/xlink" viewBox="0 0 46.2891 45.918">
 <g>
  <rect height="45.918" opacity="0" width="46.2891" x="0" y="0"/>
  <path d="M45.918 7.53906L45.918 38.3984C45.918 43.3594 43.3594 45.918 38.3008 45.918L7.59766 45.918C2.55859 45.918 0 43.3984 0 38.3984L0 7.53906C0 2.53906 2.55859 0 7.59766 0L38.3008 0C43.3594 0 45.918 2.55859 45.918 7.53906ZM33.7891 12.5781L29.6484 29.8242L29.4922 29.8242L24.9219 12.3828C24.6484 11.3867 24.0234 10.8984 22.9297 10.8984C21.875 10.8984 21.2109 11.3867 20.957 12.3828L16.3867 29.8242L16.2305 29.8242L12.1094 12.5781C11.8359 11.3086 11.3477 10.8203 10.3125 10.8203C9.27734 10.8203 8.61328 11.5039 8.61328 12.5C8.61328 12.7148 8.63281 12.9297 8.69141 13.1836L13.8281 33.1055C14.1406 34.2969 14.9023 34.9219 16.1133 34.9219C17.3438 34.9219 18.1641 34.3164 18.4375 33.1641L22.8516 16.1523L23.0273 16.1523L27.4414 33.1641C27.7148 34.3164 28.5352 34.9219 29.7461 34.9219C30.9766 34.9219 31.7383 34.2969 32.0508 33.1055L37.207 13.1836C37.2656 12.9297 37.2852 12.7148 37.2852 12.5C37.2852 11.5039 36.6211 10.8203 35.5859 10.8203C34.5508 10.8203 34.0625 11.3086 33.7891 12.5781Z" fill="black" fill-opacity="0.85"/>
 </g>
</svg>
