<?xml version="1.0" encoding="UTF-8"?>
<!--Generator: Apple Native CoreSVG 326-->
<!DOCTYPE svg
PUBLIC "-//W3C//DTD SVG 1.1//EN"
       "http://www.w3.org/Graphics/SVG/1.1/DTD/svg11.dtd">
<svg version="1.1" xmlns="http://www.w3.org/2000/svg" xmlns:xlink="http://www.w3.org/1999/xlink" viewBox="0 0 59.2717 36.4648">
 <g>
  <rect height="36.4648" opacity="0" width="59.2717" x="0" y="0"/>
  <path d="M29.4503 36.4648C39.9386 36.4648 49.7433 33.2031 57.9464 27.3438C60.0948 25.8203 58.2198 22.6758 55.9737 24.3164C48.337 29.8438 39.1964 32.7734 29.4503 32.7734C19.7237 32.7734 10.5831 29.8242 2.94638 24.3164C0.739347 22.7344-1.25284 25.7422 0.973722 27.3438C9.17685 33.2031 18.9815 36.4648 29.4503 36.4648Z" fill="black" fill-opacity="0.85"/>
  <path d="M29.4503 22.8906C37.2628 22.8906 44.587 20.4297 50.5831 15.9961C52.8487 14.2969 50.6612 11.3281 48.5714 12.9297C43.1222 17.0312 36.5011 19.2188 29.4503 19.2188C22.3995 19.2188 15.7979 17.0312 10.3487 12.9297C8.25888 11.3281 6.07138 14.2969 8.337 15.9961C14.3331 20.4297 21.6573 22.8906 29.4503 22.8906Z" fill="black" fill-opacity="0.85"/>
  <path d="M29.4503 9.35547C34.587 9.35547 39.3722 7.59766 43.0636 4.41406C45.212 2.59766 42.7901 0.0390625 41.0909 1.38672C37.3604 4.41406 33.962 5.68359 29.4503 5.68359C24.9581 5.68359 21.5206 4.41406 17.8097 1.38672C16.13 0.0585938 13.7667 2.65625 15.8565 4.41406C19.5479 7.59766 24.3331 9.35547 29.4503 9.35547Z" fill="black" fill-opacity="0.85"/>
 </g>
</svg>
