<?xml version="1.0" encoding="UTF-8"?>
<!--Generator: Apple Native CoreSVG 326-->
<!DOCTYPE svg
PUBLIC "-//W3C//DTD SVG 1.1//EN"
       "http://www.w3.org/Graphics/SVG/1.1/DTD/svg11.dtd">
<svg version="1.1" xmlns="http://www.w3.org/2000/svg" xmlns:xlink="http://www.w3.org/1999/xlink" viewBox="0 0 51.25 50.918">
 <g>
  <rect height="50.918" opacity="0" width="51.25" x="0" y="0"/>
  <path d="M25.4297 50.8789C39.4727 50.8789 50.8789 39.4922 50.8789 25.4492C50.8789 11.4062 39.4727 0 25.4297 0C11.3867 0 0 11.4062 0 25.4492C0 39.4922 11.3867 50.8789 25.4297 50.8789ZM25.4297 47.2461C13.3789 47.2461 3.63281 37.5 3.63281 25.4492C3.63281 13.3984 13.3789 3.65234 25.4297 3.65234C37.4805 3.65234 47.2266 13.3984 47.2266 25.4492C47.2266 37.5 37.4805 47.2461 25.4297 47.2461Z" fill="black" fill-opacity="0.85"/>
  <path d="M25.4102 14.9219C19.5898 14.9219 13.9648 16.6211 9.45312 19.8047C8.73047 20.332 8.53516 21.2305 9.02344 21.8945C9.53125 22.5977 10.4297 22.7148 11.1523 22.207C15.0195 19.4141 20.1172 17.8516 25.4102 17.8516C30.7617 17.8516 35.8203 19.3945 39.6875 22.207C40.4102 22.7148 41.3086 22.5977 41.8164 21.8945C42.3047 21.2109 42.1289 20.3125 41.3867 19.8047C36.8164 16.6211 31.2305 14.9219 25.4102 14.9219Z" fill="black" fill-opacity="0.85"/>
  <path d="M25.4102 22.8906C21.1133 22.8906 17.0508 24.1406 13.9062 26.4453C13.2031 26.9727 13.0273 27.832 13.5352 28.5156C13.9844 29.1797 14.9023 29.3555 15.6445 28.8281C18.2422 26.9336 21.7188 25.8594 25.4102 25.8594C29.1016 25.8594 32.5977 26.9336 35.1758 28.8281C35.9375 29.3555 36.8555 29.1797 37.3047 28.5156C37.793 27.832 37.6367 26.9727 36.9336 26.4453C33.8477 24.1406 29.7656 22.8906 25.4102 22.8906Z" fill="black" fill-opacity="0.85"/>
  <path d="M25.4102 30.8594C22.7734 30.8594 20.1562 31.6602 18.3594 33.0273C17.6758 33.5156 17.5 34.4336 17.9492 35.0977C18.4961 35.8594 19.4141 35.957 20.2148 35.4102C21.543 34.4141 23.457 33.8281 25.4102 33.8281C27.4023 33.8281 29.3359 34.4141 30.625 35.4102C31.4258 35.9766 32.3633 35.8789 32.9102 35.0977C33.3398 34.4336 33.1641 33.5352 32.5 33.0273C30.625 31.6602 28.0078 30.8594 25.4102 30.8594Z" fill="black" fill-opacity="0.85"/>
 </g>
</svg>
