<?xml version="1.0" encoding="UTF-8"?>
<!--Generator: Apple Native CoreSVG 326-->
<!DOCTYPE svg
PUBLIC "-//W3C//DTD SVG 1.1//EN"
       "http://www.w3.org/Graphics/SVG/1.1/DTD/svg11.dtd">
<svg version="1.1" xmlns="http://www.w3.org/2000/svg" xmlns:xlink="http://www.w3.org/1999/xlink" viewBox="0 0 42.6172 52.9102">
 <g>
  <rect height="52.9102" opacity="0" width="42.6172" x="0" y="0"/>
  <path d="M0 48.3203C0 51.0352 1.875 52.8711 4.6875 52.8711L37.5781 52.8711C40.3906 52.8711 42.2461 51.0352 42.2461 48.3203L42.2461 4.57031C42.2461 1.83594 40.3906 0 37.5781 0L4.6875 0C1.875 0 0 1.83594 0 4.57031ZM3.47656 48.0664L3.47656 4.80469C3.47656 4.00391 3.98438 3.47656 4.74609 3.47656L37.5 3.47656C38.2617 3.47656 38.7891 4.00391 38.7891 4.80469L38.7891 48.0664C38.7891 48.8672 38.2617 49.4141 37.5 49.4141L4.74609 49.4141C3.98438 49.4141 3.47656 48.8672 3.47656 48.0664Z" fill="black" fill-opacity="0.85"/>
  <path d="M6.93359 46.6797L35.332 46.6797C35.7422 46.6797 36.0547 46.3672 36.0547 45.957L36.0547 6.93359C36.0547 6.52344 35.7422 6.19141 35.332 6.19141L6.93359 6.19141C6.52344 6.19141 6.19141 6.52344 6.19141 6.93359L6.19141 45.957C6.19141 46.3672 6.52344 46.6797 6.93359 46.6797ZM16.7969 43.5742C16.1133 43.5742 15.625 43.0859 15.625 42.4023C15.625 41.7188 16.1133 41.25 16.7969 41.25L24.7266 41.25C25.4102 41.25 25.8789 41.7188 25.8789 42.4023C25.8789 43.0859 25.4102 43.5742 24.7266 43.5742Z" fill="black" fill-opacity="0.85"/>
 </g>
</svg>
