<?xml version="1.0" encoding="UTF-8"?>
<!--Generator: Apple Native CoreSVG 326-->
<!DOCTYPE svg
PUBLIC "-//W3C//DTD SVG 1.1//EN"
       "http://www.w3.org/Graphics/SVG/1.1/DTD/svg11.dtd">
<svg version="1.1" xmlns="http://www.w3.org/2000/svg" xmlns:xlink="http://www.w3.org/1999/xlink" viewBox="0 0 57.1643 48.9258">
 <g>
  <rect height="48.9258" opacity="0" width="57.1643" x="0" y="0"/>
  <path d="M0.798935 27.2656C-1.0956 30.5469 0.525497 33.8672 4.11925 34.2969L5.34972 34.3164L2.79112 43.3398C1.83409 46.7188 3.51378 48.9258 7.0294 48.9258L40.6036 48.9258C42.9083 48.9258 44.588 47.5781 45.2325 45.332L56.5021 6.40625C57.5372 2.79297 55.8185 0.0390625 52.0294 0.0390625L19.6075 0.0390625C16.4239 0.0390625 15.545 1.21094 14.1388 3.67188ZM4.09972 28.2422L9.5294 18.6719L25.8575 18.6719L18.963 30.8984L5.56456 30.8984C3.82628 30.8984 3.24034 29.7852 4.09972 28.2422ZM11.463 15.3125L17.381 4.86328C18.006 3.78906 18.4942 3.49609 19.6661 3.49609L34.4513 3.49609L27.8107 15.3125ZM22.9083 30.8984L29.7833 18.6719L45.6817 18.6719L39.5294 29.5312C38.9435 30.6055 38.4357 30.8984 37.2442 30.8984ZM31.7169 15.3125L38.338 3.49609L51.3458 3.49609C53.0841 3.49609 53.6896 4.60938 52.8107 6.17188L47.6349 15.3125ZM6.22862 43.7109L8.86534 34.3555L37.3028 34.3555C40.506 34.3555 41.3653 33.1836 42.7716 30.7422L49.3732 18.9062L42.1661 43.5742C41.8146 44.7656 40.9942 45.4492 39.9396 45.4492L7.61534 45.4492C6.42393 45.4492 5.89659 44.8242 6.22862 43.7109ZM39.9396 47.6172L43.0255 46.0742L37.088 32.1875L33.9044 33.5352Z" fill="black" fill-opacity="0.85"/>
 </g>
</svg>
