<?xml version="1.0" encoding="UTF-8"?>
<!--Generator: Apple Native CoreSVG 326-->
<!DOCTYPE svg
PUBLIC "-//W3C//DTD SVG 1.1//EN"
       "http://www.w3.org/Graphics/SVG/1.1/DTD/svg11.dtd">
<svg version="1.1" xmlns="http://www.w3.org/2000/svg" xmlns:xlink="http://www.w3.org/1999/xlink" viewBox="0 0 70.8404 58.1055">
 <g>
  <rect height="58.1055" opacity="0" width="70.8404" x="0" y="0"/>
  <path d="M68.8089 20.2539C70.7229 21.7188 71.0159 23.8086 69.512 25.7422L53.2034 46.582C52.4222 47.5781 51.1526 47.8125 50.0198 47.207C45.7425 45.0586 40.2347 43.6328 35.2347 43.6328C34.2077 43.6328 33.1592 43.693 32.1028 43.8211L30.1484 40.4896C31.893 40.2036 33.5995 40.0586 35.2347 40.0586C39.9222 40.0586 45.1956 41.25 50.2151 43.3398C50.762 43.5547 50.9769 43.5742 51.4261 42.9883L65.9964 24.3945C66.4456 23.7891 66.3675 23.3008 65.7425 22.8906C57.2854 17.4414 45.9183 14.375 35.2347 14.375C29.0124 14.375 22.5582 15.4152 16.5964 17.3886L14.6112 14.0045C20.7974 12.0618 28.0017 10.8789 35.2347 10.8789C48.5745 10.8789 61.8167 14.9023 68.8089 20.2539ZM13.2698 18.59C10.2028 19.7648 7.32723 21.2151 4.72685 22.8906C4.12139 23.3008 4.02373 23.7891 4.47295 24.3945L19.0433 42.9883C19.4925 43.5742 19.7073 43.5547 20.2542 43.3398C22.328 42.4764 24.4452 41.7664 26.5454 41.2405L28.4153 44.4309C25.5798 45.045 22.8319 46.0147 20.469 47.207C19.3167 47.8125 18.0472 47.5781 17.2659 46.582L0.957323 25.7422C-0.546583 23.8086-0.253615 21.7188 1.66045 20.2539C4.15483 18.3448 7.4446 16.6047 11.2604 15.1615Z" fill="black" fill-opacity="0.85"/>
  <path d="M21.4261 1.73828C21.4261 2.67578 20.6448 3.45703 19.6878 3.45703L5.72295 3.45703C4.78545 3.45703 4.0042 2.67578 4.0042 1.73828C4.0042 0.78125 4.78545 0 5.72295 0L19.6878 0C20.6448 0 21.4261 0.78125 21.4261 1.73828ZM43.9456 1.73828C43.9456 2.67578 43.1644 3.45703 42.2073 3.45703L28.2425 3.45703C27.305 3.45703 26.5237 2.67578 26.5237 1.73828C26.5237 0.78125 27.305 0 28.2425 0L42.2073 0C43.1644 0 43.9456 0.78125 43.9456 1.73828ZM66.4651 1.73828C66.4651 2.67578 65.6839 3.45703 64.7269 3.45703L50.762 3.45703C49.8245 3.45703 49.0433 2.67578 49.0433 1.73828C49.0433 0.78125 49.8245 0 50.762 0L64.7269 0C65.6839 0 66.4651 0.78125 66.4651 1.73828Z" fill="black" fill-opacity="0.85"/>
  <path d="M35.2542 58.0664C38.1839 58.0664 40.6448 55.625 40.6448 52.6758C40.6448 49.707 38.2034 47.2656 35.2542 47.2656C32.305 47.2656 29.8636 49.707 29.8636 52.6758C29.8636 55.6445 32.2659 58.0664 35.2542 58.0664ZM35.2542 55.1562C33.8675 55.1562 32.7542 54.043 32.7542 52.6758C32.7542 51.2891 33.8675 50.1367 35.2542 50.1367C36.6214 50.1367 37.7737 51.3086 37.7737 52.6758C37.7737 54.043 36.6214 55.1562 35.2542 55.1562ZM31.8167 50.2344L34.9026 48.5938L12.0901 9.70703C11.6409 8.90625 10.6448 8.57422 9.66826 9.08203C8.78935 9.53125 8.59404 10.625 9.08232 11.4453Z" fill="black" fill-opacity="0.85"/>
 </g>
</svg>
