<?xml version="1.0" encoding="UTF-8"?>
<!--Generator: Apple Native CoreSVG 326-->
<!DOCTYPE svg
PUBLIC "-//W3C//DTD SVG 1.1//EN"
       "http://www.w3.org/Graphics/SVG/1.1/DTD/svg11.dtd">
<svg version="1.1" xmlns="http://www.w3.org/2000/svg" xmlns:xlink="http://www.w3.org/1999/xlink" viewBox="0 0 41.1133 50.6836">
 <g>
  <rect height="50.6836" opacity="0" width="41.1133" x="0" y="0"/>
  <path d="M22.3828 1.26953C25.7227 2.40234 34.1406 5.52734 37.4805 6.85547C39.707 7.77344 40.7422 8.63281 40.7422 11.2695L40.7422 30.2734C40.7422 39.0039 36.2305 42.4805 22.0312 50.1758C21.4258 50.4883 20.8203 50.6836 20.3711 50.6836C19.9219 50.6836 19.2969 50.5078 18.7109 50.1758C4.74609 42.0898 0 39.0039 0 30.2734L0 11.2695C0 8.63281 1.03516 7.73438 3.26172 6.85547C6.60156 5.54688 15.0195 2.40234 18.3594 1.26953C19.0234 1.07422 19.6875 0.898438 20.3711 0.898438C21.0547 0.898438 21.7188 1.05469 22.3828 1.26953ZM27.6367 15.0781L20.3906 22.2852L13.1641 15.0977C12.793 14.7461 12.4219 14.5703 11.8945 14.5703C10.8984 14.5703 10.1172 15.332 10.1172 16.3281C10.1172 16.8164 10.293 17.2461 10.6445 17.5977L17.8516 24.8047L10.6445 32.0117C10.293 32.3633 10.1172 32.793 10.1172 33.2812C10.1172 34.2773 10.8984 35.0781 11.8945 35.0781C12.4219 35.0781 12.8516 34.9023 13.2227 34.5312L20.3906 27.3438L27.5586 34.5312C27.9102 34.9023 28.3594 35.0781 28.8672 35.0781C29.8828 35.0781 30.6836 34.2773 30.6836 33.2812C30.6836 32.7734 30.5078 32.3438 30.1367 31.9922L22.9297 24.8047L30.1562 17.5781C30.5469 17.1875 30.7031 16.7969 30.7031 16.2891C30.7031 15.3125 29.9023 14.5312 28.9062 14.5312C28.418 14.5312 28.0273 14.6875 27.6367 15.0781Z" fill="black" fill-opacity="0.85"/>
 </g>
</svg>
