<?xml version="1.0" encoding="UTF-8"?>
<!--Generator: Apple Native CoreSVG 326-->
<!DOCTYPE svg
PUBLIC "-//W3C//DTD SVG 1.1//EN"
       "http://www.w3.org/Graphics/SVG/1.1/DTD/svg11.dtd">
<svg version="1.1" xmlns="http://www.w3.org/2000/svg" xmlns:xlink="http://www.w3.org/1999/xlink" viewBox="0 0 57.6367 43.3008">
 <g>
  <rect height="43.3008" opacity="0" width="57.6367" x="0" y="0"/>
  <path d="M20.4883 0C6.21094 0 0 6.62109 0 19.9805L0 35.918C0 40.7812 2.51953 43.2617 7.42188 43.2617L49.8633 43.2617C54.7461 43.2617 57.2656 40.7617 57.2656 35.918L57.2656 19.9805C57.2656 6.62109 51.0742 0 36.7773 0ZM20.5273 3.47656L36.7578 3.47656C48.75 3.47656 53.8086 8.76953 53.8086 19.8047L53.8086 35.7422C53.8086 38.4375 52.3633 39.8047 49.7656 39.8047L7.5 39.8047C4.86328 39.8047 3.45703 38.4375 3.45703 35.7422L3.45703 19.8047C3.45703 8.76953 8.51562 3.47656 20.5273 3.47656Z" fill="black" fill-opacity="0.85"/>
  <path d="M16.1328 31.9141L25.332 31.9141C26.0547 31.9141 26.6797 31.3086 26.6797 30.5664C26.6797 29.8242 26.0547 29.2188 25.332 29.2188L18.125 29.2188L18.125 29.0625L25.9961 14.4141C26.2109 13.9648 26.3867 13.6133 26.3867 13.0664C26.3867 12.1484 25.7422 11.5039 24.7656 11.5039L15.918 11.5039C15.1758 11.5039 14.5508 12.1094 14.5508 12.8516C14.5508 13.5938 15.1758 14.1992 15.918 14.1992L22.832 14.1992L22.832 14.3555L14.8828 29.043C14.6289 29.5312 14.5312 29.8828 14.5312 30.3906C14.5312 31.3672 15.1953 31.9141 16.1328 31.9141ZM31.6797 32.1289C32.6758 32.1289 33.2812 31.4844 33.2812 30.4492L33.2812 23.8281L35.9961 23.8281L38.8477 30.8398C39.1602 31.6797 39.6484 32.1289 40.5273 32.1289C41.2695 32.1289 42.0312 31.6797 42.0312 30.5859C42.0312 30.332 41.8945 29.9023 41.6992 29.4141L39.043 23.1445C41.0742 22.1875 42.0898 20.0781 42.0898 17.6367C42.0898 13.6719 39.7461 11.4648 35.8789 11.4648L31.6602 11.4648C30.625 11.4648 30.0391 12.0898 30.0391 13.125L30.0391 30.4492C30.0391 31.4648 30.6445 32.1289 31.6797 32.1289ZM33.2812 21.4258L33.2812 14.043L35.5859 14.043C37.6562 14.043 38.8281 15.4883 38.8281 17.6953C38.8281 19.8438 37.832 21.4258 35.6055 21.4258Z" fill="black" fill-opacity="0.85"/>
 </g>
</svg>
