<?xml version="1.0" encoding="UTF-8"?>
<!--Generator: Apple Native CoreSVG 326-->
<!DOCTYPE svg
PUBLIC "-//W3C//DTD SVG 1.1//EN"
       "http://www.w3.org/Graphics/SVG/1.1/DTD/svg11.dtd">
<svg version="1.1" xmlns="http://www.w3.org/2000/svg" xmlns:xlink="http://www.w3.org/1999/xlink" viewBox="0 0 51.25 50.918">
 <g>
  <rect height="50.918" opacity="0" width="51.25" x="0" y="0"/>
  <path d="M25.4297 50.8789C39.4727 50.8789 50.8789 39.4922 50.8789 25.4492C50.8789 11.4062 39.4727 0 25.4297 0C11.3867 0 0 11.4062 0 25.4492C0 39.4922 11.3867 50.8789 25.4297 50.8789ZM25.4297 47.2461C13.3789 47.2461 3.63281 37.5 3.63281 25.4492C3.63281 13.3984 13.3789 3.65234 25.4297 3.65234C37.4805 3.65234 47.2266 13.3984 47.2266 25.4492C47.2266 37.5 37.4805 47.2461 25.4297 47.2461Z" fill="black" fill-opacity="0.85"/>
  <path d="M18.7109 35.8984C19.5703 35.8984 20.3125 35.1758 20.3125 34.2773L20.3125 16.7383C20.3125 15.625 19.5898 14.9609 18.4766 14.9609C17.5586 14.9609 16.7969 15.4492 16.2695 15.8789L13.3203 18.2031C12.9297 18.5156 12.6367 18.9258 12.6367 19.4922C12.6367 20.1953 13.1055 20.6836 13.7891 20.6836C14.1406 20.6836 14.3555 20.5664 14.5703 20.3906L17.0898 18.3789L17.0898 34.2773C17.0898 35.1758 17.832 35.8984 18.7109 35.8984ZM29.1602 28.5938C31.2891 28.5938 32.832 27.1289 33.3789 24.9219L33.4766 24.9219C33.4766 25.0195 33.4766 25.1367 33.4766 25.2344C33.4766 28.1836 33.1055 33.4766 30.0586 33.4766C28.7891 33.4766 27.9688 32.5977 27.5 31.3477C27.168 30.5664 26.7383 30.2539 26.0742 30.2539C25.1562 30.2539 24.7461 30.8789 24.7461 31.6211C24.7461 31.8945 24.8047 32.2266 24.9023 32.5391C25.4688 34.7656 27.5586 36.0938 30.0195 36.0938C35.0781 36.0938 36.4844 30.2344 36.4844 25.1953C36.4844 20.4492 35.0195 14.8047 30.0586 14.8047C26.3281 14.8047 24.1797 18.0469 24.1797 21.9727C24.1797 25.3516 25.8203 28.5938 29.1602 28.5938ZM30.0977 26.1328C28.0859 26.1328 27.2266 23.8477 27.2266 21.8359C27.2266 19.7656 28.1641 17.4023 30.0977 17.4023C32.1484 17.4023 33.0273 19.7852 33.0273 21.8359C33.0273 23.9258 32.0508 26.1328 30.0977 26.1328Z" fill="black" fill-opacity="0.85"/>
 </g>
</svg>
