<?xml version="1.0" encoding="UTF-8"?>
<!--Generator: Apple Native CoreSVG 326-->
<!DOCTYPE svg
PUBLIC "-//W3C//DTD SVG 1.1//EN"
       "http://www.w3.org/Graphics/SVG/1.1/DTD/svg11.dtd">
<svg version="1.1" xmlns="http://www.w3.org/2000/svg" xmlns:xlink="http://www.w3.org/1999/xlink" viewBox="0 0 46.2891 45.918">
 <g>
  <rect height="45.918" opacity="0" width="46.2891" x="0" y="0"/>
  <path d="M45.918 7.53906L45.918 38.3984C45.918 43.3594 43.3594 45.918 38.3008 45.918L7.59766 45.918C2.55859 45.918 0 43.3984 0 38.3984L0 7.53906C0 2.53906 2.55859 0 7.59766 0L38.3008 0C43.3594 0 45.918 2.55859 45.918 7.53906ZM9.96094 17.4609C9.96094 18.2617 10.4492 18.8867 11.3281 18.8867C12.0703 18.8867 12.5391 18.5352 12.7734 17.793C13.2227 15.8984 13.9453 14.668 15.5664 14.668C17.3047 14.668 18.2031 16.25 18.2031 18.125C18.2031 20.1562 16.9336 22.168 15.4883 24.043L10.7422 30.2539C10.332 30.8008 9.92188 31.3672 9.92188 32.0703C9.92188 32.832 10.4492 33.3984 11.4648 33.3984L20.3906 33.3984C21.2109 33.3984 21.6992 32.8516 21.6992 32.0508C21.6992 31.2109 21.1914 30.7031 20.3906 30.7031L13.9648 30.7031L13.9648 30.5078L18.0273 25.2539C20.4883 22.1094 21.2891 20.2148 21.2891 17.9688C21.2891 14.5508 19.082 12.0117 15.5664 12.0117C12.3438 12.0117 9.96094 14.7461 9.96094 17.4609ZM24.4727 17.4609C24.4727 18.2617 24.9414 18.8867 25.8398 18.8867C26.6016 18.8867 27.0703 18.5352 27.2852 17.793C27.7344 15.8984 28.457 14.668 30.0781 14.668C31.8164 14.668 32.7148 16.25 32.7148 18.125C32.7148 20.1562 31.4258 22.168 30 24.043L25.2539 30.2539C24.8242 30.8008 24.4531 31.3672 24.4531 32.0703C24.4531 32.832 24.9414 33.3984 25.9766 33.3984L34.9219 33.3984C35.7227 33.3984 36.2109 32.8516 36.2109 32.0508C36.2109 31.2109 35.7031 30.7031 34.9219 30.7031L28.4961 30.7031L28.4961 30.5078L32.5391 25.2539C34.9805 22.1094 35.8008 20.2148 35.8008 17.9688C35.8008 14.5508 33.5742 12.0117 30.0781 12.0117C26.8555 12.0117 24.4727 14.7461 24.4727 17.4609Z" fill="black" fill-opacity="0.85"/>
 </g>
</svg>
