<?xml version="1.0" encoding="UTF-8"?>
<!--Generator: Apple Native CoreSVG 326-->
<!DOCTYPE svg
PUBLIC "-//W3C//DTD SVG 1.1//EN"
       "http://www.w3.org/Graphics/SVG/1.1/DTD/svg11.dtd">
<svg version="1.1" xmlns="http://www.w3.org/2000/svg" xmlns:xlink="http://www.w3.org/1999/xlink" viewBox="0 0 46.2891 45.918">
 <g>
  <rect height="45.918" opacity="0" width="46.2891" x="0" y="0"/>
  <path d="M7.59766 45.918L38.3008 45.918C43.3594 45.918 45.918 43.3594 45.918 38.3984L45.918 7.53906C45.918 2.55859 43.3594 0 38.3008 0L7.59766 0C2.55859 0 0 2.53906 0 7.53906L0 38.3984C0 43.3984 2.55859 45.918 7.59766 45.918ZM7.67578 42.4609C4.94141 42.4609 3.45703 41.0156 3.45703 38.2031L3.45703 7.71484C3.45703 4.92188 4.94141 3.45703 7.67578 3.45703L38.2422 3.45703C40.918 3.45703 42.4609 4.92188 42.4609 7.71484L42.4609 38.2031C42.4609 41.0156 40.918 42.4609 38.2422 42.4609Z" fill="black" fill-opacity="0.85"/>
  <path d="M11.3477 33.1445L20.0781 33.1445C20.8594 33.1445 21.3477 32.6172 21.3477 31.8359C21.3477 31.0156 20.8398 30.5273 20.0781 30.5273L13.7891 30.5273L13.7891 30.3516L17.7539 25.1758C20.1367 22.1289 20.9375 20.2734 20.9375 18.0859C20.9375 14.7461 18.7695 12.2656 15.3711 12.2656C12.207 12.2656 9.90234 14.9414 9.90234 17.5781C9.90234 18.3789 10.3711 18.9648 11.2305 18.9648C11.9531 18.9648 12.4023 18.6328 12.6172 17.9102C13.0664 16.0547 13.7695 14.8438 15.3516 14.8438C17.0703 14.8438 17.9492 16.4062 17.9492 18.2227C17.9492 20.2148 16.7188 22.168 15.3125 24.0039L10.6445 30.0977C10.2344 30.625 9.86328 31.1719 9.86328 31.8359C9.86328 32.5977 10.3711 33.1445 11.3477 33.1445ZM32.7734 33.4375C33.5938 33.4375 34.2773 32.8906 34.2773 31.8555L34.2773 28.9453L35.3516 28.9453C36.2109 28.9453 36.6211 28.3984 36.6211 27.6367C36.6211 26.9141 36.2109 26.3672 35.3516 26.3672L34.2773 26.3672L34.2773 14.8242C34.2773 13.2617 33.2422 12.4414 31.8555 12.4414C30.293 12.4414 29.5703 13.2422 28.9453 14.6289L24.0234 25C23.6523 25.8594 23.5156 26.4258 23.5156 27.1289C23.5156 28.2031 24.2578 28.9453 25.3711 28.9453L31.25 28.9453L31.25 31.8555C31.25 33.0078 32.0508 33.4375 32.7734 33.4375ZM31.3086 26.4258L26.2695 26.4258L26.2695 26.2891L31.2109 15.332L31.3086 15.332Z" fill="black" fill-opacity="0.85"/>
 </g>
</svg>
