<?xml version="1.0" encoding="UTF-8"?>
<!--Generator: Apple Native CoreSVG 326-->
<!DOCTYPE svg
PUBLIC "-//W3C//DTD SVG 1.1//EN"
       "http://www.w3.org/Graphics/SVG/1.1/DTD/svg11.dtd">
<svg version="1.1" xmlns="http://www.w3.org/2000/svg" xmlns:xlink="http://www.w3.org/1999/xlink" viewBox="0 0 51.25 50.918">
 <g>
  <rect height="50.918" opacity="0" width="51.25" x="0" y="0"/>
  <path d="M25.4297 50.8789C39.4727 50.8789 50.8789 39.4922 50.8789 25.4492C50.8789 11.4062 39.4727 0 25.4297 0C11.3867 0 0 11.4062 0 25.4492C0 39.4922 11.3867 50.8789 25.4297 50.8789ZM25.4297 47.2461C13.3789 47.2461 3.63281 37.5 3.63281 25.4492C3.63281 13.3984 13.3789 3.65234 25.4297 3.65234C37.4805 3.65234 47.2266 13.3984 47.2266 25.4492C47.2266 37.5 37.4805 47.2461 25.4297 47.2461Z" fill="black" fill-opacity="0.85"/>
  <path d="M19.5898 36.0547C23.1055 36.0547 25.7617 33.7891 25.7617 30.0391C25.7617 27.0117 24.0039 25.3516 21.7773 25.1172L21.7773 25.0391C24.0625 24.4336 25.1562 22.4023 25.1562 20.2539C25.1562 16.875 22.7148 14.8633 19.4922 14.8633C16.9141 14.8633 14.8242 16.3281 14.1016 18.5547C13.9648 19.043 13.9258 19.4922 13.9258 19.9023C13.9258 20.625 14.3945 21.2109 15.2734 21.2109C16.0547 21.2109 16.4648 20.8984 16.6797 20.1172C17.0508 18.5352 17.9297 17.4219 19.4922 17.4219C21.2891 17.4219 22.168 18.8281 22.168 20.625C22.168 22.5586 21.0547 24.0039 19.0625 24.0039L18.3398 24.0039C17.5781 24.0039 17.1094 24.4727 17.1094 25.1953C17.1094 25.918 17.6172 26.3672 18.3398 26.3672L19.1016 26.3672C21.3477 26.3672 22.6172 27.6172 22.6172 29.9609C22.6172 31.8359 21.6406 33.457 19.6094 33.457C17.6562 33.457 16.7188 32.0898 16.4062 30.8203C16.2109 30.0781 15.7617 29.6875 15.0195 29.6875C14.1602 29.6875 13.5742 30.2148 13.5742 31.0742C13.5742 31.5039 13.6523 31.9922 13.7891 32.3828C14.5117 34.6875 16.9141 36.0547 19.5898 36.0547ZM34.0625 35.8984C34.9219 35.8984 35.6641 35.1758 35.6641 34.2773L35.6641 16.7383C35.6641 15.625 34.9414 14.9609 33.8281 14.9609C32.8906 14.9609 32.1484 15.4492 31.6211 15.8789L28.6719 18.2031C28.2812 18.5156 27.9883 18.9258 27.9883 19.4922C27.9883 20.1953 28.457 20.6836 29.1406 20.6836C29.4922 20.6836 29.707 20.5664 29.9219 20.3906L32.4414 18.3789L32.4414 34.2773C32.4414 35.1758 33.1641 35.8984 34.0625 35.8984Z" fill="black" fill-opacity="0.85"/>
 </g>
</svg>
