<?xml version="1.0" encoding="UTF-8"?>
<!--Generator: Apple Native CoreSVG 326-->
<!DOCTYPE svg
PUBLIC "-//W3C//DTD SVG 1.1//EN"
       "http://www.w3.org/Graphics/SVG/1.1/DTD/svg11.dtd">
<svg version="1.1" xmlns="http://www.w3.org/2000/svg" xmlns:xlink="http://www.w3.org/1999/xlink" viewBox="0 0 46.2891 45.918">
 <g>
  <rect height="45.918" opacity="0" width="46.2891" x="0" y="0"/>
  <path d="M7.59766 45.918L38.3008 45.918C43.3594 45.918 45.918 43.3594 45.918 38.3984L45.918 7.53906C45.918 2.55859 43.3594 0 38.3008 0L7.59766 0C2.55859 0 0 2.53906 0 7.53906L0 38.3984C0 43.3984 2.55859 45.918 7.59766 45.918ZM7.67578 42.4609C4.94141 42.4609 3.45703 41.0156 3.45703 38.2031L3.45703 7.71484C3.45703 4.92188 4.94141 3.45703 7.67578 3.45703L38.2422 3.45703C40.918 3.45703 42.4609 4.92188 42.4609 7.71484L42.4609 38.2031C42.4609 41.0156 40.918 42.4609 38.2422 42.4609Z" fill="black" fill-opacity="0.85"/>
  <path d="M17.6367 33.4375C18.457 33.4375 19.1406 32.8906 19.1406 31.8555L19.1406 28.9453L20.2148 28.9453C21.0547 28.9453 21.4844 28.3984 21.4844 27.6367C21.4844 26.9141 21.0742 26.3672 20.2148 26.3672L19.1406 26.3672L19.1406 14.8242C19.1406 13.2617 18.1055 12.4414 16.6992 12.4414C15.1562 12.4414 14.4336 13.2422 13.7891 14.6289L8.88672 25C8.51562 25.8594 8.37891 26.4258 8.37891 27.1289C8.37891 28.2031 9.12109 28.9453 10.2344 28.9453L16.1133 28.9453L16.1133 31.8555C16.1133 33.0078 16.9141 33.4375 17.6367 33.4375ZM16.1719 26.4258L11.1133 26.4258L11.1133 26.2891L16.0742 15.332L16.1719 15.332ZM30.1562 33.5547C33.6523 33.5547 36.3281 31.2891 36.3281 27.5391C36.3281 24.5117 34.5703 22.8516 32.3438 22.6172L32.3438 22.5391C34.6289 21.9336 35.7227 19.9023 35.7227 17.7539C35.7227 14.375 33.2812 12.3633 30.0586 12.3633C27.4805 12.3633 25.3906 13.8281 24.668 16.0547C24.5312 16.543 24.4727 16.9922 24.4727 17.4023C24.4727 18.125 24.9609 18.7109 25.8398 18.7109C26.6016 18.7109 27.0312 18.3984 27.2461 17.6172C27.6172 16.0352 28.4961 14.9219 30.0586 14.9219C31.8359 14.9219 32.7344 16.3281 32.7344 18.125C32.7344 20.0586 31.6016 21.5039 29.6289 21.5039L28.9062 21.5039C28.1445 21.5039 27.6758 21.9727 27.6758 22.6953C27.6758 23.418 28.1641 23.8672 28.9062 23.8672L29.6484 23.8672C31.9141 23.8672 33.1836 25.1172 33.1836 27.4609C33.1836 29.3359 32.207 30.957 30.1758 30.957C28.2031 30.957 27.2656 29.5898 26.9727 28.3203C26.7773 27.5781 26.3086 27.1875 25.5859 27.1875C24.707 27.1875 24.1406 27.7148 24.1406 28.5742C24.1406 29.0039 24.2188 29.4922 24.3555 29.8828C25.0586 32.1875 27.4609 33.5547 30.1562 33.5547Z" fill="black" fill-opacity="0.85"/>
 </g>
</svg>
