<?xml version="1.0" encoding="UTF-8"?>
<!--Generator: Apple Native CoreSVG 326-->
<!DOCTYPE svg
PUBLIC "-//W3C//DTD SVG 1.1//EN"
       "http://www.w3.org/Graphics/SVG/1.1/DTD/svg11.dtd">
<svg version="1.1" xmlns="http://www.w3.org/2000/svg" xmlns:xlink="http://www.w3.org/1999/xlink" viewBox="0 0 51.25 50.918">
 <g>
  <rect height="50.918" opacity="0" width="51.25" x="0" y="0"/>
  <path d="M25.4297 50.8789C39.4727 50.8789 50.8789 39.4922 50.8789 25.4492C50.8789 11.4062 39.4727 0 25.4297 0C11.3867 0 0 11.4062 0 25.4492C0 39.4922 11.3867 50.8789 25.4297 50.8789ZM25.4297 47.2461C13.3789 47.2461 3.63281 37.5 3.63281 25.4492C3.63281 13.3984 13.3789 3.65234 25.4297 3.65234C37.4805 3.65234 47.2266 13.3984 47.2266 25.4492C47.2266 37.5 37.4805 47.2461 25.4297 47.2461Z" fill="black" fill-opacity="0.85"/>
  <path d="M20.2734 35.9375C21.0938 35.9375 21.7773 35.3906 21.7773 34.3555L21.7773 31.4453L22.832 31.4453C23.6914 31.4453 24.1016 30.8984 24.1016 30.1367C24.1016 29.4141 23.7109 28.8672 22.832 28.8672L21.7773 28.8672L21.7773 17.3242C21.7773 15.7617 20.7422 14.9414 19.3359 14.9414C17.793 14.9414 17.0508 15.7422 16.4258 17.1289L11.5234 27.5C11.1523 28.3594 11.0156 28.9258 11.0156 29.6289C11.0156 30.7031 11.7578 31.4453 12.8711 31.4453L18.7305 31.4453L18.7305 34.3555C18.7305 35.5078 19.5508 35.9375 20.2734 35.9375ZM18.8086 28.9258L13.75 28.9258L13.75 28.7891L18.7109 17.832L18.8086 17.832ZM32.7539 36.1328C36.582 36.1328 38.6523 32.8125 38.6523 28.9258C38.6523 25.4688 36.9922 22.2461 33.75 22.2461C32.3047 22.2461 30.8789 22.9297 30.2148 24.4727L30.1172 24.4727L30.5664 17.8906L36.6016 17.8906C37.3828 17.8906 37.8516 17.3438 37.8516 16.582C37.8516 15.8398 37.3438 15.2734 36.6016 15.2734L29.7266 15.2734C28.5352 15.2734 28.0078 16.0352 27.9102 17.207L27.4609 24.4141C27.4414 24.8047 27.4219 25.2148 27.4219 25.5273C27.4219 26.3867 27.8711 27.1289 28.8867 27.1289C29.5312 27.1289 29.8828 26.8359 30.332 26.2109C30.9375 25.2734 31.6602 24.6094 32.7734 24.6094C34.7656 24.6094 35.5859 27.0117 35.5859 29.0039C35.5859 31.25 34.7266 33.5352 32.7148 33.5352C31.1914 33.5352 30.2539 32.3633 29.8242 30.8594C29.5703 30.0977 29.082 29.7656 28.4766 29.7656C27.6562 29.7656 27.1484 30.293 27.1484 31.1133C27.1484 31.6016 27.2852 32.1289 27.4609 32.5781C28.2812 34.6875 30.4297 36.1328 32.7539 36.1328Z" fill="black" fill-opacity="0.85"/>
 </g>
</svg>
