<?xml version="1.0" encoding="UTF-8"?>
<!--Generator: Apple Native CoreSVG 326-->
<!DOCTYPE svg
PUBLIC "-//W3C//DTD SVG 1.1//EN"
       "http://www.w3.org/Graphics/SVG/1.1/DTD/svg11.dtd">
<svg version="1.1" xmlns="http://www.w3.org/2000/svg" xmlns:xlink="http://www.w3.org/1999/xlink" viewBox="0 0 46.2891 45.918">
 <g>
  <rect height="45.918" opacity="0" width="46.2891" x="0" y="0"/>
  <path d="M45.918 7.53906L45.918 38.3984C45.918 43.3594 43.3594 45.918 38.3008 45.918L7.59766 45.918C2.55859 45.918 0 43.3984 0 38.3984L0 7.53906C0 2.53906 2.55859 0 7.59766 0L38.3008 0C43.3594 0 45.918 2.55859 45.918 7.53906ZM27.4219 12.5C26.1914 12.5 25.6445 13.3008 25.5469 14.5117L25.0781 21.875C25.0391 22.2852 25.0391 22.6953 25.0391 23.0273C25.0391 23.9062 25.5078 24.668 26.5625 24.668C27.2266 24.668 27.5781 24.375 28.0469 23.7305C28.6719 22.7734 29.3945 22.1094 30.5273 22.1094C32.5586 22.1094 33.3984 24.5508 33.3984 26.582C33.3984 28.8867 32.5195 31.2109 30.4688 31.2109C28.9258 31.2109 27.9688 30.0195 27.5195 28.4766C27.2656 27.6953 26.7578 27.3633 26.1328 27.3633C25.293 27.3633 24.7656 27.9102 24.7656 28.75C24.7656 29.2578 24.9023 29.8047 25.0781 30.2539C25.9375 32.4219 28.1445 33.8867 30.5078 33.8867C34.4336 33.8867 36.582 30.4883 36.582 26.5039C36.582 22.9688 34.8828 19.668 31.543 19.668C30.0586 19.668 28.6133 20.3711 27.9297 21.9336L27.8125 21.9336L28.2812 15.2148L34.4531 15.2148C35.2539 15.2148 35.7422 14.668 35.7422 13.8477C35.7422 13.0859 35.2148 12.5 34.4531 12.5ZM13.75 14.4336L8.75 25.0391C8.35938 25.918 8.22266 26.5039 8.22266 27.2266C8.22266 28.3398 8.98438 29.1016 10.1172 29.1016L16.1133 29.1016L16.1133 32.0508C16.1133 33.2422 16.9531 33.7109 17.7148 33.7109C18.5547 33.7109 19.2383 33.1445 19.2383 32.0508L19.2383 29.1016L20.332 29.1016C21.2305 29.1016 21.6406 28.5352 21.6406 27.7539C21.6406 27.0117 21.25 26.4453 20.332 26.4453L19.2383 26.4453L19.2383 14.6484C19.2383 13.0078 18.2031 12.1875 16.7383 12.1875C15.1562 12.1875 14.3945 13.0078 13.75 14.4336ZM16.1719 26.5039L11.0352 26.5039L11.0352 26.3672L16.0742 15.1562L16.1719 15.1562Z" fill="black" fill-opacity="0.85"/>
 </g>
</svg>
