<?xml version="1.0" encoding="UTF-8"?>
<!--Generator: Apple Native CoreSVG 326-->
<!DOCTYPE svg
PUBLIC "-//W3C//DTD SVG 1.1//EN"
       "http://www.w3.org/Graphics/SVG/1.1/DTD/svg11.dtd">
<svg version="1.1" xmlns="http://www.w3.org/2000/svg" xmlns:xlink="http://www.w3.org/1999/xlink" viewBox="0 0 46.2891 37.9492">
 <g>
  <rect height="37.9492" opacity="0" width="46.2891" x="0" y="0"/>
  <path d="M0 36.2109C0 37.168 0.78125 37.9492 1.73828 37.9492C2.67578 37.9492 3.45703 37.168 3.45703 36.2109L3.45703 1.79688C3.45703 0.839844 2.67578 0.0585938 1.73828 0.0585938C0.78125 0.0585938 0 0.839844 0 1.79688ZM42.4609 36.2109C42.4609 37.168 43.2422 37.9492 44.1797 37.9492C45.1367 37.9492 45.918 37.168 45.918 36.2109L45.918 1.79688C45.918 0.839844 45.1367 0.0585938 44.1797 0.0585938C43.2422 0.0585938 42.4609 0.839844 42.4609 1.79688Z" fill="black" fill-opacity="0.85"/>
  <path d="M23.0078 30.8008C27.4023 30.8008 30.1562 27.5195 30.1562 23.1445C30.1562 19.2773 27.9102 16.0156 24.1016 16.0156C22.1875 16.0156 20.5273 16.8945 19.6875 18.418L19.5898 18.418L20.1758 11.4258L27.7539 11.4258C28.5938 11.4258 29.1602 10.8594 29.1602 10.0195C29.1602 9.16016 28.5938 8.59375 27.7539 8.59375L19.3555 8.59375C18.0078 8.59375 17.3828 9.29688 17.3047 10.6445L16.6211 19.3164C16.5234 20.4492 17.1289 21.2695 18.2031 21.2695C19.043 21.2695 19.4336 20.8984 19.9414 20.293C20.6836 19.2383 21.7773 18.5938 23.0664 18.5938C25.4883 18.5938 26.8164 20.7617 26.8164 23.2227C26.8164 25.8008 25.4492 27.9883 23.0078 27.9883C21.1133 27.9883 19.8047 26.7383 19.2578 25.1172C18.9258 24.375 18.418 23.9844 17.7539 23.9844C16.8555 23.9844 16.3086 24.5508 16.3086 25.4492C16.3086 25.7617 16.3672 26.1133 16.4453 26.4062C17.1875 29.1602 20.1953 30.8008 23.0078 30.8008Z" fill="black" fill-opacity="0.85"/>
 </g>
</svg>
