<?xml version="1.0" encoding="UTF-8"?>
<!--Generator: Apple Native CoreSVG 326-->
<!DOCTYPE svg
PUBLIC "-//W3C//DTD SVG 1.1//EN"
       "http://www.w3.org/Graphics/SVG/1.1/DTD/svg11.dtd">
<svg version="1.1" xmlns="http://www.w3.org/2000/svg" xmlns:xlink="http://www.w3.org/1999/xlink" viewBox="0 0 46.2891 45.918">
 <g>
  <rect height="45.918" opacity="0" width="46.2891" x="0" y="0"/>
  <path d="M45.918 7.53906L45.918 38.3984C45.918 43.3594 43.3594 45.918 38.3008 45.918L7.59766 45.918C2.55859 45.918 0 43.3984 0 38.3984L0 7.53906C0 2.53906 2.55859 0 7.59766 0L38.3008 0C43.3594 0 45.918 2.55859 45.918 7.53906ZM14.1797 23.5547C14.1797 26.9922 14.7656 29.5703 15.8008 31.25C17.3828 33.9453 20.1367 35.1172 23.1641 35.1172C28.2422 35.1172 31.7773 32.0703 31.7773 26.9531C31.7773 22.207 28.2031 19.3945 24.1016 19.3945C20.625 19.3945 18.5547 21.1328 17.6367 23.1641C17.5781 23.1641 17.5195 23.1641 17.4609 23.1641C17.4609 23.0469 17.4609 22.9688 17.4609 22.8711C17.4609 17.207 19.9219 13.6523 23.6523 13.6523C25.5469 13.6523 26.7969 14.5117 27.5586 15.625C28.2422 16.3477 28.6719 16.7578 29.4531 16.7578C30.2148 16.7578 30.8203 16.2109 30.8203 15.4102C30.8203 15.0586 30.7422 14.7656 30.6055 14.4336C29.8828 12.5977 27.168 10.7812 23.75 10.7812C17.832 10.7812 14.1797 15.1172 14.1797 23.5547ZM28.2812 27.1289C28.2812 30.3125 26.2109 32.3828 23.0273 32.3828C20 32.3828 17.793 30.1562 17.793 27.0898C17.793 24.1406 19.9805 21.9922 23.0664 21.9922C26.1523 21.9922 28.2812 24.1016 28.2812 27.1289Z" fill="black" fill-opacity="0.85"/>
 </g>
</svg>
