<?xml version="1.0" encoding="UTF-8"?>
<!--Generator: Apple Native CoreSVG 326-->
<!DOCTYPE svg
PUBLIC "-//W3C//DTD SVG 1.1//EN"
       "http://www.w3.org/Graphics/SVG/1.1/DTD/svg11.dtd">
<svg version="1.1" xmlns="http://www.w3.org/2000/svg" xmlns:xlink="http://www.w3.org/1999/xlink" viewBox="0 0 46.2891 45.918">
 <g>
  <rect height="45.918" opacity="0" width="46.2891" x="0" y="0"/>
  <path d="M45.918 7.53906L45.918 38.3984C45.918 43.3594 43.3594 45.918 38.3008 45.918L7.59766 45.918C2.55859 45.918 0 43.3984 0 38.3984L0 7.53906C0 2.53906 2.55859 0 7.59766 0L38.3008 0C43.3594 0 45.918 2.55859 45.918 7.53906ZM16.4258 11.2891C15.625 11.2891 15.0586 11.875 15.0586 12.7148C15.0586 13.5156 15.6445 14.1016 16.4258 14.1016L27.6953 14.1016L27.6953 14.2969L18.0469 32.2656C17.832 32.6758 17.7344 32.9883 17.7344 33.4375C17.7344 34.3945 18.5156 35.0586 19.5117 35.0586C20.2734 35.0586 20.8203 34.707 21.2695 33.8281L31.0156 15.2734C31.4648 14.4336 31.5625 13.9844 31.5625 13.4766C31.5625 12.2266 30.5664 11.2891 29.082 11.2891Z" fill="black" fill-opacity="0.85"/>
 </g>
</svg>
