<?xml version="1.0" encoding="UTF-8"?>
<!--Generator: Apple Native CoreSVG 326-->
<!DOCTYPE svg
PUBLIC "-//W3C//DTD SVG 1.1//EN"
       "http://www.w3.org/Graphics/SVG/1.1/DTD/svg11.dtd">
<svg version="1.1" xmlns="http://www.w3.org/2000/svg" xmlns:xlink="http://www.w3.org/1999/xlink" viewBox="0 0 46.2891 45.918">
 <g>
  <rect height="45.918" opacity="0" width="46.2891" x="0" y="0"/>
  <path d="M45.918 7.53906L45.918 38.3984C45.918 43.3594 43.3594 45.918 38.3008 45.918L7.59766 45.918C2.55859 45.918 0 43.3984 0 38.3984L0 7.53906C0 2.53906 2.55859 0 7.59766 0L38.3008 0C43.3594 0 45.918 2.55859 45.918 7.53906ZM14.2969 18.8281C14.2969 23.125 17.5586 26.25 22.0312 26.25C23.7891 26.25 25.625 25.6445 26.5625 24.6875L26.875 24.707C26.6211 25.1367 26.2305 25.6836 25.6445 26.4062C24.3164 28.1055 22.6367 30.1562 20.7812 32.4414C20.4297 32.8906 20.2344 33.3008 20.2344 33.7305C20.2344 34.4141 20.8008 35.0586 21.7188 35.0586C22.5977 35.0586 22.9688 34.5117 23.6133 33.6914C24.9805 31.9922 27.1094 29.2578 28.3789 27.5586C30.7812 24.3359 31.9141 21.7578 31.9141 19.0039C31.9141 14.1211 28.3203 10.7812 23.0859 10.7812C17.8906 10.7812 14.2969 14.1016 14.2969 18.8281ZM28.75 18.7305C28.75 21.6211 26.3477 23.6914 23.125 23.6914C19.8633 23.6914 17.4609 21.6016 17.4609 18.6914C17.4609 15.8008 19.8633 13.6523 23.0859 13.6523C26.2891 13.6523 28.75 15.8203 28.75 18.7305Z" fill="black" fill-opacity="0.85"/>
 </g>
</svg>
