<?xml version="1.0" encoding="UTF-8"?>
<!--Generator: Apple Native CoreSVG 326-->
<!DOCTYPE svg
PUBLIC "-//W3C//DTD SVG 1.1//EN"
       "http://www.w3.org/Graphics/SVG/1.1/DTD/svg11.dtd">
<svg version="1.1" xmlns="http://www.w3.org/2000/svg" xmlns:xlink="http://www.w3.org/1999/xlink" viewBox="0 0 57.9967 57.4805">
 <g>
  <rect height="57.4805" opacity="0" width="57.9967" x="0" y="0"/>
  <path d="M47.0703 5.24898C45.9022 5.70688 44.8222 6.28935 43.7723 6.87892C43.5627 4.68329 42.1245 3.45703 39.8577 3.45703L17.7679 3.45703C15.3069 3.45703 13.8226 4.90234 13.8226 7.46094L13.8226 45.7422C13.8226 48.3008 15.3069 49.7461 17.7679 49.7461L39.8577 49.7461C42.3187 49.7461 43.803 48.3008 43.803 45.7422L43.803 23.4254C44.962 22.7876 46.0895 22.1296 47.2601 21.6046L47.2601 45.918C47.2601 49.8966 45.4903 52.3097 42.1038 52.9916L42.1038 55.7031C42.1038 56.7188 41.4007 57.4219 40.3851 57.4219C39.3499 57.4219 38.6468 56.7188 38.6468 55.7031L38.6468 53.2031L18.9788 53.2031L18.9788 55.7031C18.9788 56.7188 18.2562 57.4219 17.2405 57.4219C16.2054 57.4219 15.5023 56.7188 15.5023 55.7031L15.5023 52.9881C12.123 52.3012 10.346 49.8896 10.346 45.918L10.346 7.28516C10.346 2.51953 12.9437 0 17.7093 0L39.9163 0C43.9473 0 46.4132 1.80259 47.0703 5.24898ZM27.221 44.5508C27.221 45.3711 26.596 45.9961 25.7562 45.9961L18.2757 45.9961C17.4554 45.9961 16.8108 45.3711 16.8108 44.5508C16.8108 43.7109 17.4554 43.0859 18.2757 43.0859L25.7562 43.0859C26.596 43.0859 27.221 43.7109 27.221 44.5508ZM40.8148 44.5508C40.8148 45.3711 40.1702 45.9961 39.3499 45.9961L31.8499 45.9961C31.0296 45.9961 30.4046 45.3711 30.4046 44.5508C30.4046 43.7109 31.0296 43.0859 31.8499 43.0859L39.3499 43.0859C40.1702 43.0859 40.8148 43.7109 40.8148 44.5508ZM27.221 38.3594C27.221 39.1797 26.596 39.8242 25.7562 39.8242L18.2757 39.8242C17.4554 39.8242 16.8108 39.1797 16.8108 38.3594C16.8108 37.5391 17.4554 36.8945 18.2757 36.8945L25.7562 36.8945C26.596 36.8945 27.221 37.5391 27.221 38.3594ZM40.8148 38.3594C40.8148 39.1797 40.1702 39.8242 39.3499 39.8242L31.8499 39.8242C31.0296 39.8242 30.4046 39.1797 30.4046 38.3594C30.4046 37.5391 31.0296 36.8945 31.8499 36.8945L39.3499 36.8945C40.1702 36.8945 40.8148 37.5391 40.8148 38.3594ZM27.221 32.168C27.221 32.9883 26.596 33.6328 25.7562 33.6328L18.2757 33.6328C17.4554 33.6328 16.8108 32.9883 16.8108 32.168C16.8108 31.3477 17.4554 30.7031 18.2757 30.7031L25.7562 30.7031C26.596 30.7031 27.221 31.3477 27.221 32.168ZM40.8148 32.168C40.8148 32.9883 40.1702 33.6328 39.3499 33.6328L31.8499 33.6328C31.0296 33.6328 30.4046 32.9883 30.4046 32.168C30.4046 31.3477 31.0296 30.7031 31.8499 30.7031L39.3499 30.7031C40.1702 30.7031 40.8148 31.3477 40.8148 32.168ZM47.2601 18.5302C46.0319 18.9981 44.9007 19.6052 43.803 20.2212L43.803 16.7618C44.9625 16.1216 46.0903 15.4608 47.2601 14.9329ZM23.9202 10.3711C23.9202 12.2656 22.3773 13.8086 20.5023 13.8086C18.6077 13.8086 17.0648 12.2656 17.0648 10.3711C17.0648 8.49609 18.6077 6.95312 20.5023 6.95312C22.3773 6.95312 23.9202 8.49609 23.9202 10.3711ZM47.2601 11.8553C46.0324 12.3247 44.9014 12.9337 43.803 13.5509L43.803 10.0767C44.962 9.43659 46.0895 8.77622 47.2601 8.24924Z" fill="black" fill-opacity="0.85"/>
  <path d="M36.1077 12.5195C42.5921 12.5195 46.1077 7.12891 51.8694 7.12891C53.2757 7.12891 54.428 7.44141 55.8538 8.24219C56.6741 8.67188 57.3773 8.35938 57.7288 7.85156C58.1585 7.20703 58.0999 6.25 57.1429 5.70312C55.5023 4.74609 53.764 4.27734 51.8694 4.27734C45.1898 4.27734 41.7132 9.6875 36.1077 9.6875C34.7015 9.6875 33.5296 9.35547 32.0843 8.55469C31.3421 8.125 30.5999 8.41797 30.2288 8.98438C29.8382 9.62891 29.8968 10.5859 30.7952 11.0938C32.4163 12.1094 34.2132 12.5195 36.1077 12.5195ZM36.1273 19.1992C42.5921 19.1992 46.1273 13.8086 51.8694 13.8086C53.2952 13.8086 54.4476 14.1016 55.8733 14.9023C56.6741 15.3516 57.3968 15.0391 57.7483 14.5117C58.1585 13.8867 58.1194 12.9297 57.1819 12.3828C55.5218 11.4258 53.764 10.957 51.8694 10.957C45.2093 10.957 41.7327 16.3672 36.1273 16.3672C34.7015 16.3672 33.5296 16.0352 32.1038 15.2344C31.3616 14.8047 30.5999 15.0781 30.2288 15.6641C29.8382 16.2891 29.8968 17.2461 30.8148 17.7734C32.4358 18.7891 34.2327 19.1992 36.1273 19.1992ZM36.1077 25.8594C42.5921 25.8594 46.1077 20.4883 51.8694 20.4883C53.2757 20.4883 54.428 20.7812 55.8538 21.582C56.6741 22.0312 57.3773 21.7188 57.7288 21.1914C58.1585 20.5664 58.0999 19.5898 57.1429 19.0625C55.5023 18.1055 53.764 17.6367 51.8694 17.6367C45.1898 17.6367 41.7132 23.0469 36.1077 23.0469C34.7015 23.0469 33.5296 22.7148 32.0843 21.9141C31.3421 21.4844 30.5999 21.7578 30.2288 22.3438C29.8382 22.9688 29.8968 23.9258 30.7952 24.4531C32.4163 25.4492 34.2132 25.8594 36.1077 25.8594Z" fill="black" fill-opacity="0.85"/>
 </g>
</svg>
