<?xml version="1.0" encoding="UTF-8"?>
<!--Generator: Apple Native CoreSVG 326-->
<!DOCTYPE svg
PUBLIC "-//W3C//DTD SVG 1.1//EN"
       "http://www.w3.org/Graphics/SVG/1.1/DTD/svg11.dtd">
<svg version="1.1" xmlns="http://www.w3.org/2000/svg" xmlns:xlink="http://www.w3.org/1999/xlink" viewBox="0 0 64.294 44.4336">
 <g>
  <rect height="44.4336" opacity="0" width="64.294" x="0" y="0"/>
  <path d="M4.39311 44.4336L58.5533 44.4336C59.4908 44.4336 60.2915 43.6523 60.2915 42.7148C60.2915 41.7578 59.4908 40.9766 58.5533 40.9766L4.39311 40.9766C3.45561 40.9766 2.65483 41.7578 2.65483 42.7148C2.65483 43.6523 3.45561 44.4336 4.39311 44.4336Z" fill="black" fill-opacity="0.85"/>
  <path d="M13.6705 28.1445L56.6001 16.7383C61.522 15.4297 64.94 11.9922 63.6705 8.49609C62.479 5.3125 57.8306 4.49219 53.4361 5.97656L38.729 10.9961C37.7525 11.3281 37.0103 11.3086 35.897 10.7812L14.5884 0.722656C13.9439 0.410156 13.2798 0.371094 12.6353 0.546875L11.0142 1.05469C10.4283 1.23047 10.2134 1.91406 10.7408 2.44141L25.0767 17.5586L25.4869 15.5273L13.065 19.7656L17.2837 19.8828L2.86967 14.8047C2.20561 14.5703 1.65873 14.668 1.0142 15.2539L0.36967 15.8594C-0.09908 16.2891-0.118611 16.8359 0.291545 17.2852L9.17826 27.2266C10.233 28.418 11.7564 28.6523 13.6705 28.1445Z" fill="black" fill-opacity="0.85"/>
 </g>
</svg>
