<?xml version="1.0" encoding="UTF-8"?>
<!--Generator: Apple Native CoreSVG 326-->
<!DOCTYPE svg
PUBLIC "-//W3C//DTD SVG 1.1//EN"
       "http://www.w3.org/Graphics/SVG/1.1/DTD/svg11.dtd">
<svg version="1.1" xmlns="http://www.w3.org/2000/svg" xmlns:xlink="http://www.w3.org/1999/xlink" viewBox="0 0 51.25 50.918">
 <g>
  <rect height="50.918" opacity="0" width="51.25" x="0" y="0"/>
  <path d="M25.4297 50.8789C39.4727 50.8789 50.8789 39.4922 50.8789 25.4492C50.8789 11.4062 39.4727 0 25.4297 0C11.3867 0 0 11.4062 0 25.4492C0 39.4922 11.3867 50.8789 25.4297 50.8789ZM25.4297 47.2461C13.3789 47.2461 3.63281 37.5 3.63281 25.4492C3.63281 13.3984 13.3789 3.65234 25.4297 3.65234C37.4805 3.65234 47.2266 13.3984 47.2266 25.4492C47.2266 37.5 37.4805 47.2461 25.4297 47.2461Z" fill="black" fill-opacity="0.85"/>
  <path d="M41.8164 25.4492C41.8164 23.8086 39.668 22.5781 36.9727 22.5781L31.5625 22.5781C30.8984 22.5781 30.6836 22.4805 30.2539 22.0117L21.3867 12.3438C21.0742 11.9922 20.6836 11.8164 20.2344 11.8164L18.7109 11.8164C18.2227 11.8164 17.9297 12.2656 18.1445 12.7539L22.5977 22.6172L16.1523 23.3203L13.8281 19.0625C13.5938 18.6914 13.2812 18.4961 12.7539 18.4961L12.168 18.4961C11.7188 18.4961 11.4062 18.7891 11.4062 19.2578L11.4062 31.6602C11.4062 32.1094 11.7188 32.4023 12.168 32.4023L12.7539 32.4023C13.2812 32.4023 13.5938 32.207 13.8281 31.8359L16.1523 27.5781L22.5977 28.2812L18.1445 38.1445C17.9297 38.6328 18.2227 39.082 18.7109 39.082L20.2344 39.082C20.6836 39.082 21.0742 38.9062 21.3867 38.5547L30.2539 28.8867C30.6836 28.418 30.8984 28.3203 31.5625 28.3203L36.9727 28.3203C39.668 28.3203 41.8164 27.0898 41.8164 25.4492Z" fill="black" fill-opacity="0.85"/>
 </g>
</svg>
