<?xml version="1.0" encoding="UTF-8"?>
<!--Generator: Apple Native CoreSVG 326-->
<!DOCTYPE svg
PUBLIC "-//W3C//DTD SVG 1.1//EN"
       "http://www.w3.org/Graphics/SVG/1.1/DTD/svg11.dtd">
<svg version="1.1" xmlns="http://www.w3.org/2000/svg" xmlns:xlink="http://www.w3.org/1999/xlink" viewBox="0 0 51.25 50.918">
 <g>
  <rect height="50.918" opacity="0" width="51.25" x="0" y="0"/>
  <path d="M50.8789 25.4688C50.8789 39.4922 39.4531 50.918 25.4297 50.918C11.4258 50.918 0 39.4922 0 25.4688C0 11.4648 11.4258 0.0390625 25.4297 0.0390625C39.4531 0.0390625 50.8789 11.4648 50.8789 25.4688ZM24.707 28.6914L17.1289 37.2461C16.6016 37.832 17.0117 38.6914 17.7734 38.6914L33.0664 38.6914C33.8477 38.6914 34.2188 37.832 33.6914 37.2461L26.1328 28.6914C25.8008 28.3008 25.0781 28.3008 24.707 28.6914ZM14.1211 14.5898C12.0898 14.5898 10.6641 16.0352 10.6641 18.0273L10.6641 30.5078C10.6641 32.5391 12.0898 33.9453 14.1211 33.9453L17.4609 33.9453L19.5508 31.6016L14.3555 31.6016C13.6523 31.6016 13.125 31.0938 13.125 30.332L13.125 18.2422C13.125 17.4609 13.6523 16.9336 14.3555 16.9336L36.4844 16.9336C37.207 16.9336 37.7148 17.4609 37.7148 18.2422L37.7148 30.332C37.7148 31.0938 37.207 31.6016 36.4844 31.6016L31.3086 31.6016L33.3594 33.9453L36.6992 33.9453C38.7305 33.9453 40.1758 32.5391 40.1758 30.5078L40.1758 18.0273C40.1758 16.0352 38.7305 14.5898 36.6992 14.5898Z" fill="black" fill-opacity="0.85"/>
 </g>
</svg>
