<?xml version="1.0" encoding="UTF-8"?>
<!--Generator: Apple Native CoreSVG 326-->
<!DOCTYPE svg
PUBLIC "-//W3C//DTD SVG 1.1//EN"
       "http://www.w3.org/Graphics/SVG/1.1/DTD/svg11.dtd">
<svg version="1.1" xmlns="http://www.w3.org/2000/svg" xmlns:xlink="http://www.w3.org/1999/xlink" viewBox="0 0 39.0625 47.3633">
 <g>
  <rect height="47.3633" opacity="0" width="39.0625" x="0" y="0"/>
  <path d="M33.6914 47.3633C35.1367 47.3633 36.3867 47.3438 37.0703 47.207C37.9297 47.0117 38.6914 46.4844 38.6914 45.3906C38.6914 44.2773 37.8906 43.5547 36.7969 43.5547C36.0547 43.5547 35.1758 43.6328 33.8867 43.6328C24.7266 43.6328 20.7617 40.2539 20.7812 31.0352L20.8008 12.4609L20.625 5.85938L25.7227 11.3672L34.6289 20.2734C34.9609 20.6055 35.4688 20.7812 35.9766 20.7812C37.0312 20.7812 37.8125 19.9805 37.8125 18.9062C37.8125 18.3984 37.6367 17.9688 37.2266 17.5391L20.332 0.644531C19.9219 0.214844 19.4336 0 18.9062 0C18.3789 0 17.8906 0.214844 17.4805 0.644531L0.585938 17.5391C0.175781 17.9688 0 18.3984 0 18.9062C0 19.9805 0.78125 20.7812 1.83594 20.7812C2.34375 20.7812 2.85156 20.6055 3.18359 20.2734L12.0898 11.3672L17.168 5.87891L17.0117 12.4609L17.0117 31.2109C17.0117 42.6562 22.2461 47.3633 33.6914 47.3633Z" fill="black" fill-opacity="0.85"/>
 </g>
</svg>
