<?xml version="1.0" encoding="UTF-8"?>
<!--Generator: Apple Native CoreSVG 326-->
<!DOCTYPE svg
PUBLIC "-//W3C//DTD SVG 1.1//EN"
       "http://www.w3.org/Graphics/SVG/1.1/DTD/svg11.dtd">
<svg version="1.1" xmlns="http://www.w3.org/2000/svg" xmlns:xlink="http://www.w3.org/1999/xlink" viewBox="0 0 40.2539 41.0352">
 <g>
  <rect height="41.0352" opacity="0" width="40.2539" x="0" y="0"/>
  <path d="M39.8828 38.2812C39.8828 37.3828 39.4922 36.6797 39.0234 35.7031L22.9688 2.53906C22.0508 0.664062 21.1719 0.0195312 19.9414 0.0195312C18.7305 0.0195312 17.8516 0.664062 16.9141 2.53906L0.878906 35.7031C0.390625 36.6992 0 37.4023 0 38.3008C0 40 1.26953 41.0352 3.28125 41.0352L36.6211 41.0156C38.6133 41.0156 39.8828 39.9805 39.8828 38.2812ZM35.8398 37.2656C35.8398 37.4609 35.7031 37.5781 35.4297 37.5781L4.45312 37.5781C4.17969 37.5781 4.0625 37.4609 4.0625 37.2656C4.0625 37.1289 4.12109 37.0117 4.19922 36.875L19.5508 4.92188C19.6289 4.76562 19.7656 4.58984 19.9414 4.58984C20.1367 4.58984 20.2734 4.76562 20.3516 4.92188L35.7031 36.875C35.7617 37.0117 35.8398 37.1289 35.8398 37.2656Z" fill="black" fill-opacity="0.85"/>
 </g>
</svg>
