<?xml version="1.0" encoding="UTF-8"?>
<!--Generator: Apple Native CoreSVG 326-->
<!DOCTYPE svg
PUBLIC "-//W3C//DTD SVG 1.1//EN"
       "http://www.w3.org/Graphics/SVG/1.1/DTD/svg11.dtd">
<svg version="1.1" xmlns="http://www.w3.org/2000/svg" xmlns:xlink="http://www.w3.org/1999/xlink" viewBox="0 0 62.7734 46.6992">
 <g>
  <rect height="46.6992" opacity="0" width="62.7734" x="0" y="0"/>
  <path d="M49.1602 42.9492C56.6016 42.9492 62.4023 37.5781 62.4023 30.8203C62.4023 25.6445 59.4727 21.1133 54.5117 19.1602C54.6484 8.06641 46.7188 0 36.6016 0C29.7461 0 24.9609 3.71094 22.0703 8.18359C15.9766 6.21094 9.25781 10.8984 9.17969 17.8906C3.57422 18.6719 0 23.5742 0 29.6484C0 36.9336 6.32812 42.9297 14.7461 42.9297ZM49.1406 39.4922L14.7266 39.4727C8.26172 39.4727 3.45703 35 3.45703 29.6484C3.45703 24.5703 6.52344 20.5859 11.875 20.5859C12.1875 20.5859 12.3242 20.4102 12.3242 20.0977C12.3242 12.5586 17.9297 9.92188 23.1641 11.7578C23.457 11.8555 23.6328 11.7969 23.7891 11.5234C26.25 7.14844 30.0391 3.45703 36.6016 3.45703C44.8438 3.45703 50.6836 10 51.1523 17.7148C51.2305 18.7891 51.1523 20.0586 51.0742 21.1914C51.0547 21.4844 51.1719 21.6797 51.4453 21.7383C56.0156 22.8125 58.9453 26.25 58.9453 30.8203C58.9453 35.6836 54.668 39.4922 49.1406 39.4922Z" fill="black" fill-opacity="0.85"/>
  <path d="M18.9062 24.4727C18.457 25.1367 18.6523 25.918 19.4727 25.918L21.6211 25.918C22.5977 31.4258 26.9922 35.1953 32.5781 35.1953C35.0977 35.1953 37.6562 34.2578 39.4336 32.6953C40.2539 32.0312 40.4492 31.1133 39.8438 30.4688C39.2383 29.8438 38.457 29.9414 37.7344 30.4688C36.1328 31.7969 34.5508 32.4414 32.5781 32.4414C28.4766 32.4414 25.1172 29.668 24.2578 25.918L26.3867 25.918C27.2266 25.918 27.4609 25.1172 26.9727 24.4727L23.9062 20.0977C23.3789 19.375 22.5 19.3359 21.9531 20.0977ZM25.2734 17.9297C25.8789 18.5547 26.6602 18.457 27.3633 17.9297C28.9648 16.582 30.5664 15.957 32.5586 15.957C36.6406 15.957 39.9805 18.7305 40.8398 22.4805L38.6328 22.4805C37.793 22.4805 37.5586 23.2812 38.0664 23.9258L41.1133 28.3008C41.6406 29.0234 42.5195 29.043 43.0664 28.3008L46.1133 23.9258C46.5625 23.2617 46.3672 22.4805 45.5469 22.4805L43.4961 22.4805C42.5391 16.9727 38.125 13.2031 32.5586 13.2031C30.0195 13.2031 27.4609 14.1406 25.6836 15.6836C24.8633 16.3867 24.668 17.2852 25.2734 17.9297Z" fill="black" fill-opacity="0.85"/>
 </g>
</svg>
