<?xml version="1.0" encoding="UTF-8"?>
<!--Generator: Apple Native CoreSVG 326-->
<!DOCTYPE svg
PUBLIC "-//W3C//DTD SVG 1.1//EN"
       "http://www.w3.org/Graphics/SVG/1.1/DTD/svg11.dtd">
<svg version="1.1" xmlns="http://www.w3.org/2000/svg" xmlns:xlink="http://www.w3.org/1999/xlink" viewBox="0 0 46.2891 45.918">
 <g>
  <rect height="45.918" opacity="0" width="46.2891" x="0" y="0"/>
  <path d="M45.918 7.53906L45.918 38.3984C45.918 43.3594 43.3594 45.918 38.3008 45.918L7.59766 45.918C2.55859 45.918 0 43.3984 0 38.3984L0 7.53906C0 2.53906 2.55859 0 7.59766 0L38.3008 0C43.3594 0 45.918 2.55859 45.918 7.53906ZM19.043 13.0859L10.7031 21.6406C10.2539 22.0898 10.1172 22.4609 10.1172 22.9297C10.1172 23.3789 10.2539 23.75 10.7031 24.1992L19.043 32.7734C19.3555 33.125 19.7266 33.3008 20.1953 33.3008C21.0938 33.3008 21.7578 32.6367 21.7578 31.7188C21.7578 31.2695 21.582 30.7812 21.2305 30.4883L16.7773 26.2305L15.0391 24.5703L18.8477 24.6875L34.2383 24.6875C35.1953 24.6875 35.9766 23.8867 35.9766 22.9297C35.9766 21.9531 35.1953 21.1523 34.2383 21.1523L18.8477 21.1523L15.0391 21.2891L16.7773 19.6289L21.2305 15.3711C21.582 15.0781 21.7578 14.6094 21.7578 14.1602C21.7578 13.2617 21.0938 12.5586 20.1953 12.5586C19.7266 12.5586 19.3555 12.7344 19.043 13.0859Z" fill="black" fill-opacity="0.85"/>
 </g>
</svg>
