<?xml version="1.0" encoding="UTF-8"?>
<!--Generator: Apple Native CoreSVG 326-->
<!DOCTYPE svg
PUBLIC "-//W3C//DTD SVG 1.1//EN"
       "http://www.w3.org/Graphics/SVG/1.1/DTD/svg11.dtd">
<svg version="1.1" xmlns="http://www.w3.org/2000/svg" xmlns:xlink="http://www.w3.org/1999/xlink" viewBox="0 0 46.2891 46.6211">
 <g>
  <rect height="46.6211" opacity="0" width="46.2891" x="0" y="0"/>
  <path d="M45.918 7.53906L45.918 38.3984C45.918 43.3594 43.3594 45.918 38.3008 45.918L7.59766 45.918C2.55859 45.918 0 43.3789 0 38.3984L0 7.53906C0 2.53906 2.55859 0 7.59766 0L38.3008 0C43.3594 0 45.918 2.55859 45.918 7.53906ZM16.4453 19.9805L16.4453 27.8516L16.543 30.4297L15.3125 28.8477L12.3438 25.8008C12.0508 25.4883 11.6211 25.293 11.1719 25.293C10.2539 25.293 9.49219 25.9961 9.49219 26.9141C9.49219 27.4023 9.64844 27.793 9.98047 28.1055L16.6211 34.6484C17.0312 35.0391 17.5391 35.2539 18.0273 35.2539C18.5352 35.2539 19.0234 35.0586 19.4531 34.6484L26.1523 28.0859C26.4648 27.793 26.6211 27.3828 26.6211 26.8945C26.6211 25.9961 25.8984 25.293 24.9609 25.293C24.4727 25.293 24.0625 25.4883 23.75 25.8008L20.4102 29.2578L19.5703 30.4102L19.668 27.8516L19.668 19.9805C19.668 16.0156 22.0508 13.3789 25.625 13.3789C29.4141 13.3789 31.9336 16.0547 31.9336 20L31.9336 23.5547C31.9336 24.5508 32.5977 25.2344 33.5547 25.2344C34.5312 25.2344 35.1562 24.5312 35.1562 23.5156L35.1562 20C35.1562 14.1016 31.3867 10.1562 25.625 10.1562C20.0977 10.1562 16.4453 14.082 16.4453 19.9805Z" fill="black" fill-opacity="0.85"/>
 </g>
</svg>
