<?xml version="1.0" encoding="UTF-8"?>
<!--Generator: Apple Native CoreSVG 326-->
<!DOCTYPE svg
PUBLIC "-//W3C//DTD SVG 1.1//EN"
       "http://www.w3.org/Graphics/SVG/1.1/DTD/svg11.dtd">
<svg version="1.1" xmlns="http://www.w3.org/2000/svg" xmlns:xlink="http://www.w3.org/1999/xlink" viewBox="0 0 49.5898 50.5273">
 <g>
  <rect height="50.5273" opacity="0" width="49.5898" x="0" y="0"/>
  <path d="M45.1172 22.6172C46.25 22.6172 47.1289 21.7969 47.1289 20.6445C47.1094 19.4922 46.2305 18.7109 45.1172 18.7109L41.6797 18.7109L33.0273 19.1602L40.5664 11.9336L48.6133 3.86719C49.0039 3.49609 49.2188 2.96875 49.2188 2.42188C49.2188 1.21094 48.3203 0.410156 47.1094 0.410156C46.6016 0.410156 46.1133 0.605469 45.7617 0.976562L37.7539 9.0625L30.4688 16.582L30.918 7.96875L30.918 4.53125C30.918 3.39844 30.1172 2.53906 28.9844 2.53906C27.832 2.53906 27.0117 3.41797 27.0117 4.53125L27.0117 19.1602C27.0117 21.3281 28.3008 22.6172 30.4688 22.6172ZM20.5273 48.6133C21.6797 48.6133 22.4805 47.7344 22.4805 46.6211L22.4805 31.4844C22.4805 29.3164 21.2109 28.0469 19.043 28.0469L3.90625 28.0469C2.75391 28.0469 1.89453 28.8672 1.89453 30C1.91406 31.1523 2.77344 31.9531 3.90625 31.9531L7.83203 31.9531L16.4844 31.4844L8.94531 38.7305L0.585938 47.0703C0.195312 47.4609 0 47.9883 0 48.5352C0 49.7461 0.898438 50.5273 2.08984 50.5273C2.61719 50.5273 3.08594 50.3516 3.45703 49.9609L11.7578 41.6016L19.0234 34.082L18.5742 42.6758L18.5742 46.6211C18.5742 47.7539 19.3945 48.6133 20.5273 48.6133Z" fill="black" fill-opacity="0.85"/>
 </g>
</svg>
