<?xml version="1.0" encoding="UTF-8"?>
<!--Generator: Apple Native CoreSVG 326-->
<!DOCTYPE svg
PUBLIC "-//W3C//DTD SVG 1.1//EN"
       "http://www.w3.org/Graphics/SVG/1.1/DTD/svg11.dtd">
<svg version="1.1" xmlns="http://www.w3.org/2000/svg" xmlns:xlink="http://www.w3.org/1999/xlink" viewBox="0 0 58.1055 46.631">
 <g>
  <rect height="46.631" opacity="0" width="58.1055" x="0" y="0"/>
  <path d="M44.3555 46.0011L57.1094 33.0128C57.5 32.6222 57.7344 32.0948 57.7344 31.587C57.7344 30.4542 56.9336 29.6925 55.8398 29.6925C55.293 29.6925 54.8633 29.8682 54.4727 30.2589L48.9258 35.9425L44.6289 40.7667L44.8242 35.0636L44.8242 1.91903C44.8242 0.82528 44.0234 0.00496795 42.9102 0.00496795C41.7969 0.00496795 41.0156 0.82528 41.0156 1.91903L41.0156 35.0636L41.2109 40.7667L36.9141 35.9425L31.3477 30.2589C30.9766 29.8682 30.5469 29.6925 30 29.6925C28.8867 29.6925 28.1055 30.4542 28.1055 31.587C28.1055 32.0948 28.3398 32.6222 28.7305 33.0128L41.4844 46.0011C42.2852 46.8214 43.5156 46.8604 44.3555 46.0011Z" fill="black" fill-opacity="0.85"/>
  <path d="M13.3789 0.629968L0.625 13.5792C0.234375 13.9698 0 14.5167 0 15.0245C0 16.1573 0.78125 16.919 1.89453 16.919C2.44141 16.919 2.87109 16.7237 3.24219 16.3526L8.80859 10.6495L13.1055 5.84481L12.9102 11.5284L12.9102 44.6925C12.9102 45.8057 13.6914 46.6261 14.8047 46.6261C15.918 46.6261 16.7188 45.8057 16.7188 44.6925L16.7188 11.5284L16.5234 5.84481L20.8203 10.6495L26.3672 16.3526C26.7578 16.7237 27.1875 16.919 27.7344 16.919C28.8281 16.919 29.6289 16.1573 29.6289 15.0245C29.6289 14.5167 29.3945 13.9698 29.0039 13.5792L16.25 0.629968C15.4492-0.190345 14.1992-0.229407 13.3789 0.629968Z" fill="black" fill-opacity="0.85"/>
 </g>
</svg>
