<?xml version="1.0" encoding="UTF-8"?>
<!--Generator: Apple Native CoreSVG 326-->
<!DOCTYPE svg
PUBLIC "-//W3C//DTD SVG 1.1//EN"
       "http://www.w3.org/Graphics/SVG/1.1/DTD/svg11.dtd">
<svg version="1.1" xmlns="http://www.w3.org/2000/svg" xmlns:xlink="http://www.w3.org/1999/xlink" viewBox="0 0 46.2891 45.918">
 <g>
  <rect height="45.918" opacity="0" width="46.2891" x="0" y="0"/>
  <path d="M45.918 7.53906L45.918 38.3984C45.918 43.3594 43.3594 45.918 38.3008 45.918L7.59766 45.918C2.55859 45.918 0 43.3984 0 38.3984L0 7.53906C0 2.53906 2.55859 0 7.59766 0L38.3008 0C43.3594 0 45.918 2.55859 45.918 7.53906ZM13.0469 14.707C13.0469 15.1562 13.2617 15.5859 13.5938 15.918L24.1016 26.4062L27.793 29.8828L24.0234 29.5703L18.3984 29.5703C17.3242 29.5703 16.6406 30.2148 16.6406 31.1914C16.6406 32.1875 17.3047 32.832 18.3594 32.832L31.0352 32.832C32.1484 32.832 32.8711 32.2852 32.8711 30.9961L32.8711 18.3984C32.8711 17.3438 32.207 16.6211 31.25 16.6211C30.2539 16.6211 29.5898 17.2852 29.5898 18.3594L29.5898 23.5547L29.8828 27.7148L26.4453 24.0625L15.9766 13.5742C15.6445 13.2422 15.2344 13.0469 14.668 13.0469C13.6914 13.0469 13.0469 13.6914 13.0469 14.707Z" fill="black" fill-opacity="0.85"/>
 </g>
</svg>
