<?xml version="1.0" encoding="UTF-8"?>
<!--Generator: Apple Native CoreSVG 326-->
<!DOCTYPE svg
PUBLIC "-//W3C//DTD SVG 1.1//EN"
       "http://www.w3.org/Graphics/SVG/1.1/DTD/svg11.dtd">
<svg version="1.1" xmlns="http://www.w3.org/2000/svg" xmlns:xlink="http://www.w3.org/1999/xlink" viewBox="0 0 54.2591 57.5586">
 <g>
  <rect height="57.5586" opacity="0" width="54.2591" x="0" y="0"/>
  <path d="M53.8874 54.1406L53.8874 34.2383C53.8874 31.3867 52.6178 30.1172 49.7663 30.1172L19.5905 30.1172C17.6764 30.1172 16.6217 31.5234 16.6217 33.1055C16.6217 34.1602 17.11 35.1562 18.1452 35.8789L48.5358 56.8164C49.2585 57.3047 50.0788 57.5195 50.86 57.5195C52.4811 57.5195 53.8874 56.4453 53.8874 54.1406ZM50.3717 52.9102C50.3717 53.2812 50.0397 53.3398 49.7858 53.1641L21.3288 34.0625C21.0944 33.9258 21.1725 33.6523 21.4264 33.6523L49.3366 33.6523C50.196 33.6523 50.3717 33.8281 50.3717 34.6875ZM53.8874 3.37891C53.8874 1.07422 52.4811 0 50.86 0C50.0788 0 49.2585 0.214844 48.5358 0.703125L18.1452 21.6406C17.11 22.3633 16.6217 23.3594 16.6217 24.4336C16.6217 25.9961 17.6764 27.4023 19.5905 27.4023L49.7663 27.4023C52.6178 27.4023 53.8874 26.1523 53.8874 23.2812ZM50.3717 4.62891L50.3717 22.832C50.3717 23.7109 50.196 23.8867 49.3366 23.8867L21.4264 23.8867C21.1725 23.8867 21.0944 23.6133 21.3288 23.457L49.7858 4.35547C50.0397 4.17969 50.3717 4.23828 50.3717 4.62891Z" fill="black" fill-opacity="0.85"/>
  <path d="M10.8796 44.0625L7.50065 44.0625L7.50065 13.457L10.8796 13.457C12.4811 13.457 12.8913 12.1289 11.9733 10.8789L7.42253 4.55078C6.66081 3.51562 5.82096 3.53516 5.07878 4.55078L0.508463 10.8789C-0.448569 12.1289-0.0384123 13.457 1.60221 13.457L4.94206 13.457L4.94206 44.0625L1.62174 44.0625C-0.018881 44.0625-0.429037 45.3906 0.508463 46.6602L5.07878 52.9883C5.84049 54.0039 6.68034 54.0234 7.42253 52.9883L11.9733 46.6602C12.8913 45.3906 12.5007 44.0625 10.8796 44.0625Z" fill="black" fill-opacity="0.85"/>
 </g>
</svg>
