<?xml version="1.0" encoding="UTF-8"?>
<!--Generator: Apple Native CoreSVG 326-->
<!DOCTYPE svg
PUBLIC "-//W3C//DTD SVG 1.1//EN"
       "http://www.w3.org/Graphics/SVG/1.1/DTD/svg11.dtd">
<svg version="1.1" xmlns="http://www.w3.org/2000/svg" xmlns:xlink="http://www.w3.org/1999/xlink" viewBox="0 0 46.6016 59.7461">
 <g>
  <rect height="59.7461" opacity="0" width="46.6016" x="0" y="0"/>
  <path d="M0 29.3555C0 30.4688 0.78125 31.2695 1.89453 31.2695L44.3945 31.2695C45.4688 31.2695 46.2305 30.4688 46.2305 29.3555C46.2305 28.2617 45.4688 27.4609 44.3945 27.4609L1.89453 27.4609C0.78125 27.4609 0 28.2617 0 29.3555Z" fill="black" fill-opacity="0.85"/>
  <path d="M23.125 0C22.0117 0 21.2305 0.761719 21.2305 1.875L21.2305 13.3203L21.3672 18.5742L14.3555 11.1914C13.9844 10.7812 13.4766 10.625 12.9492 10.625C11.875 10.625 11.0938 11.4453 11.0938 12.5C11.0938 13.0664 11.3281 13.5352 11.7578 13.9844L21.6992 23.9258C22.1094 24.3555 22.5977 24.5898 23.125 24.5898C23.6523 24.5898 24.1602 24.3555 24.5508 23.9258L34.5117 13.9844C34.9414 13.5352 35.1758 13.0664 35.1758 12.5C35.1758 11.4453 34.3945 10.625 33.3203 10.625C32.793 10.625 32.2852 10.7812 31.9141 11.1914L24.9023 18.5742L25.0391 13.3203L25.0391 1.875C25.0391 0.761719 24.2383 0 23.125 0ZM23.125 58.7305C24.2383 58.7305 25.0391 57.9688 25.0391 56.8555L25.0391 45.4102L24.9023 40.1562L31.9141 47.5391C32.2852 47.9492 32.793 48.1055 33.3203 48.1055C34.3945 48.1055 35.1758 47.2852 35.1758 46.2305C35.1758 45.6641 34.9414 45.1953 34.5117 44.7461L24.5508 34.8047C24.1602 34.375 23.6523 34.1406 23.125 34.1406C22.5977 34.1406 22.1094 34.375 21.6992 34.8047L11.7578 44.7461C11.3281 45.1953 11.0938 45.6641 11.0938 46.2305C11.0938 47.2852 11.875 48.1055 12.9492 48.1055C13.4766 48.1055 13.9844 47.9492 14.3555 47.5391L21.3672 40.1562L21.2305 45.4102L21.2305 56.8555C21.2305 57.9688 22.0117 58.7305 23.125 58.7305Z" fill="black" fill-opacity="0.85"/>
 </g>
</svg>
