<?xml version="1.0" encoding="UTF-8"?>
<!--Generator: Apple Native CoreSVG 326-->
<!DOCTYPE svg
PUBLIC "-//W3C//DTD SVG 1.1//EN"
       "http://www.w3.org/Graphics/SVG/1.1/DTD/svg11.dtd">
<svg version="1.1" xmlns="http://www.w3.org/2000/svg" xmlns:xlink="http://www.w3.org/1999/xlink" viewBox="0 0 46.2891 45.918">
 <g>
  <rect height="45.918" opacity="0" width="46.2891" x="0" y="0"/>
  <path d="M7.59766 45.918L38.3008 45.918C43.3594 45.918 45.918 43.3594 45.918 38.3984L45.918 7.53906C45.918 2.55859 43.3594 0 38.3008 0L7.59766 0C2.55859 0 0 2.53906 0 7.53906L0 38.3984C0 43.3984 2.55859 45.918 7.59766 45.918ZM7.67578 42.4609C4.94141 42.4609 3.45703 41.0156 3.45703 38.2031L3.45703 7.71484C3.45703 4.92188 4.94141 3.45703 7.67578 3.45703L38.2422 3.45703C40.918 3.45703 42.4609 4.92188 42.4609 7.71484L42.4609 38.2031C42.4609 41.0156 40.918 42.4609 38.2422 42.4609Z" fill="black" fill-opacity="0.85"/>
  <path d="M9.96094 33.2812C10.6055 33.2812 11.0156 32.9297 11.1914 32.2266L12.4023 27.5L18.8867 27.5L20.1367 32.2266C20.332 32.9297 20.7031 33.2812 21.4258 33.2812C22.0508 33.2812 22.6172 32.9102 22.6172 32.1094C22.6172 31.875 22.5977 31.6211 22.5 31.3281L17.5586 13.8672C17.2461 12.8516 16.7188 12.3242 15.6641 12.3242C14.6289 12.3242 14.043 12.8906 13.7695 13.8867L8.84766 31.3281C8.76953 31.582 8.73047 31.8555 8.73047 32.1094C8.73047 32.9102 9.29688 33.2812 9.96094 33.2812ZM12.9297 25.4688L15.5273 15.4297L15.7227 15.4297L18.3594 25.4688ZM30.5859 32.6953C33.9648 32.6953 36.4258 30.8203 36.4258 27.5391C36.4258 24.5312 34.6289 23.3398 32.0898 22.1094L30.332 21.2695C28.7305 20.5078 27.2656 19.5117 27.2656 17.7344C27.2656 15.8789 28.7109 14.9219 30.5273 14.9219C32.5586 14.9219 33.418 16.1719 33.7891 18.1445C33.9453 18.7109 34.3164 19.0625 34.9219 19.0625C35.625 19.0625 36.0938 18.6523 36.0938 17.9297C36.0938 17.6758 36.0547 17.3828 35.957 17.0312C35.3906 14.3555 33.3398 12.9102 30.5273 12.9102C27.3633 12.9102 24.8828 14.6875 24.8828 17.8906C24.8828 20.6055 26.4453 22.0508 29.1016 23.3008L30.8789 24.1406C32.5977 24.9414 34.0234 25.8594 34.0234 27.7539C34.0234 29.707 32.6562 30.6445 30.5859 30.6445C28.2422 30.6445 27.2656 29.2188 26.9531 27.4023C26.7969 26.6602 26.3477 26.3672 25.8008 26.3672C25.1367 26.3672 24.6289 26.7773 24.6289 27.5195C24.6289 27.7539 24.6484 28.0078 24.6875 28.3008C25.1562 30.8594 27.4414 32.6953 30.5859 32.6953ZM30.5273 35.3711C30.8984 35.3711 31.1914 35.0781 31.1914 34.7266L31.1914 10.9375C31.1914 10.5664 30.8984 10.2734 30.5273 10.2734C30.1758 10.2734 29.8828 10.5664 29.8828 10.9375L29.8828 34.7266C29.8828 35.0781 30.1758 35.3711 30.5273 35.3711Z" fill="black" fill-opacity="0.85"/>
 </g>
</svg>
