<?xml version="1.0" encoding="UTF-8"?>
<!--Generator: Apple Native CoreSVG 326-->
<!DOCTYPE svg
PUBLIC "-//W3C//DTD SVG 1.1//EN"
       "http://www.w3.org/Graphics/SVG/1.1/DTD/svg11.dtd">
<svg version="1.1" xmlns="http://www.w3.org/2000/svg" xmlns:xlink="http://www.w3.org/1999/xlink" viewBox="0 0 51.25 50.918">
 <g>
  <rect height="50.918" opacity="0" width="51.25" x="0" y="0"/>
  <path d="M25.4297 50.8789C39.4727 50.8789 50.8789 39.4922 50.8789 25.4492C50.8789 11.4062 39.4727 0 25.4297 0C11.3867 0 0 11.4062 0 25.4492C0 39.4922 11.3867 50.8789 25.4297 50.8789ZM25.4297 47.2461C13.3789 47.2461 3.63281 37.5 3.63281 25.4492C3.63281 13.3984 13.3789 3.65234 25.4297 3.65234C37.4805 3.65234 47.2266 13.3984 47.2266 25.4492C47.2266 37.5 37.4805 47.2461 25.4297 47.2461Z" fill="black" fill-opacity="0.85"/>
  <path d="M19.2383 36.7383L26.6016 36.7383C31.7188 36.7383 34.9805 34.2578 34.9805 30.3125C34.9805 27.2656 32.9492 25.0977 29.668 24.6875L29.668 24.5508C32.0898 23.9648 33.6133 21.9531 33.6133 19.4531C33.6133 16.0547 30.8398 13.8086 26.6211 13.8086L19.2383 13.8086C18.0469 13.8086 17.3438 14.5117 17.3438 15.7227L17.3438 34.8047C17.3438 36.0156 18.0469 36.7383 19.2383 36.7383ZM20.7031 23.6914L20.7031 16.4062L25.9375 16.4062C28.6719 16.4062 30.293 17.7539 30.293 20C30.293 22.3047 28.3398 23.6914 25 23.6914ZM20.7031 34.1211L20.7031 26.1523L26.4648 26.1523C29.6289 26.1523 31.5039 27.6562 31.5039 30.2148C31.5039 32.8516 29.4922 34.1211 25.2344 34.1211Z" fill="black" fill-opacity="0.85"/>
 </g>
</svg>
