<?xml version="1.0" encoding="UTF-8"?>
<!--Generator: Apple Native CoreSVG 326-->
<!DOCTYPE svg
PUBLIC "-//W3C//DTD SVG 1.1//EN"
       "http://www.w3.org/Graphics/SVG/1.1/DTD/svg11.dtd">
<svg version="1.1" xmlns="http://www.w3.org/2000/svg" xmlns:xlink="http://www.w3.org/1999/xlink" viewBox="0 0 60.4102 49.8382">
 <g>
  <rect height="49.8382" opacity="0" width="60.4102" x="0" y="0"/>
  <path d="M60.0391 29.9093C60.0391 14.1867 47.9492 1.29605 32.5977 0.00698344C31.7969-0.0711416 31.1719 0.514796 31.1719 1.33511L31.1719 9.32339C31.1719 9.98745 31.6602 10.5148 32.3438 10.5734C41.9727 11.7453 49.4531 19.9484 49.4531 29.9093C49.4531 34.4406 47.9102 38.6007 45.1758 42.0382C44.8047 42.507 44.8242 43.0929 45.2344 43.5031L51.0352 49.3039C51.6211 49.8703 52.4609 49.8703 52.9688 49.2453C57.3828 44.0109 60.0391 37.2531 60.0391 29.9093Z" fill="black" fill-opacity="0.85"/>
  <path d="M0 29.9093C0 37.2726 2.65625 44.05 7.08984 49.2843C7.57812 49.8703 8.39844 49.8703 8.98438 49.3039L14.7852 43.5031C15.1953 43.0929 15.2148 42.507 14.8438 42.0382C12.1094 38.6007 10.5664 34.4406 10.5664 29.9093C10.5664 19.9484 18.0664 11.7453 27.6758 10.5734C28.3789 10.5148 28.8477 9.98745 28.8477 9.32339L28.8477 1.33511C28.8477 0.514796 28.2422-0.0711416 27.4414 0.00698344C12.0703 1.29605 0 14.1867 0 29.9093Z" fill="black" fill-opacity="0.85"/>
  <path d="M25 41.2179L31.2109 41.2179C35.4297 41.2179 38.75 39.2648 38.75 35.1242C38.75 32.0187 36.5625 30.007 33.5742 29.675L33.5742 29.5187C35.8984 29.1671 37.6367 26.9796 37.6367 24.6359C37.6367 20.964 34.5508 19.1671 31.1719 19.1671L25 19.1671C23.9453 19.1671 23.3594 19.8507 23.3594 20.8273L23.3594 39.5773C23.3594 40.5148 23.9648 41.2179 25 41.2179ZM25.957 28.7765L25.957 21.3742L30.5469 21.3742C33.0859 21.3742 35.0391 22.4289 35.0391 24.9484C35.0391 27.7023 32.7734 28.7765 29.9219 28.7765ZM25.957 39.0304L25.957 30.925L30.4883 30.925C33.5352 30.925 36.1133 31.9406 36.1133 34.9679C36.1133 37.9171 33.7305 39.0304 30.7422 39.0304ZM30 44.1085C30.4688 44.1085 30.7617 43.796 30.7617 43.3273L30.7617 16.882C30.7617 16.4132 30.4492 16.1007 30 16.1007C29.5312 16.1007 29.2188 16.4132 29.2188 16.882L29.2188 43.3273C29.2188 43.796 29.5312 44.1085 30 44.1085Z" fill="black" fill-opacity="0.85"/>
 </g>
</svg>
