<?xml version="1.0" encoding="UTF-8"?>
<!--Generator: Apple Native CoreSVG 326-->
<!DOCTYPE svg
PUBLIC "-//W3C//DTD SVG 1.1//EN"
       "http://www.w3.org/Graphics/SVG/1.1/DTD/svg11.dtd">
<svg version="1.1" xmlns="http://www.w3.org/2000/svg" xmlns:xlink="http://www.w3.org/1999/xlink" viewBox="0 0 79.5898 38.4961">
 <g>
  <rect height="38.4961" opacity="0" width="79.5898" x="0" y="0"/>
  <path d="M5.60547 21.6406C5.60547 20.7422 5.68359 19.8438 5.82031 18.9648C2.32422 20.6445 0 24.1992 0 28.2227C0 33.7695 4.47266 38.4961 10.2734 38.4961C12.7344 38.4961 15.0195 37.5977 16.7969 36.1523C10.2734 34.0234 5.60547 28.5547 5.60547 21.6406ZM73.6133 21.6406C73.6133 28.5547 68.9453 34.0234 62.4219 36.1523C64.1992 37.5977 66.4844 38.4961 68.9453 38.4961C74.7461 38.4961 79.2188 33.7695 79.2188 28.2227C79.2188 24.1992 76.8945 20.6445 73.3984 18.9648C73.5352 19.8438 73.6133 20.7422 73.6133 21.6406Z" fill="black" fill-opacity="0.425"/>
  <path d="M31.7188 14.4727C34.1602 10.2344 32.7148 4.94141 28.457 2.5C24.2773 0.078125 18.9062 1.48438 16.4844 5.72266L12.2852 13.0078C9.84375 17.2266 11.2695 22.5586 15.5078 24.9805C19.7266 27.4414 25.0781 26.0352 27.5195 21.7773ZM19.4531 22.1875C17.0117 22.1875 15.0977 20.2539 15.0977 17.793C15.0977 15.3711 17.0312 13.418 19.4531 13.418C21.9141 13.418 23.8477 15.3711 23.8477 17.793C23.8477 20.2539 21.9141 22.1875 19.4531 22.1875ZM19.4531 20.4688C20.9961 20.4688 22.1484 19.2969 22.1484 17.793C22.1484 16.3281 20.9961 15.1172 19.4531 15.1172C17.9492 15.1172 16.8164 16.3281 16.8164 17.793C16.8164 19.2969 17.9492 20.4688 19.4531 20.4688ZM22.9102 34.8828C31.0938 34.8828 38.0078 29.2578 38.0078 20.6055C38.0078 16.875 36.8359 14.4531 35 11.6016C34.8047 12.9492 34.3555 14.2969 33.6328 15.5664L29.4531 22.8711C26.4258 28.2031 19.668 29.9609 14.3945 26.8945C10.4688 24.6484 8.45703 20.3711 8.96484 16.1523C8.20312 17.9492 7.83203 19.8047 7.83203 21.6602C7.83203 29.3945 14.6875 34.8828 22.9102 34.8828ZM47.5 14.4727L51.6992 21.7773C54.1406 26.0352 59.4922 27.4414 63.7109 24.9805C67.9492 22.5586 69.3555 17.2266 66.9336 13.0078L62.7344 5.72266C60.3125 1.48438 54.9414 0.078125 50.7617 2.5C46.5039 4.94141 45.0586 10.2344 47.5 14.4727ZM59.7656 22.1875C57.3047 22.1875 55.3711 20.2539 55.3711 17.793C55.3711 15.3711 57.3047 13.418 59.7656 13.418C62.1875 13.418 64.1211 15.3711 64.1211 17.793C64.1211 20.2539 62.1875 22.1875 59.7656 22.1875ZM59.7656 20.4688C61.2695 20.4688 62.4023 19.2969 62.4023 17.793C62.4023 16.3281 61.2695 15.1172 59.7656 15.1172C58.2227 15.1172 57.0703 16.3281 57.0703 17.793C57.0703 19.2969 58.2227 20.4688 59.7656 20.4688ZM56.3086 34.8828C64.5312 34.8828 71.3867 29.3945 71.3867 21.6602C71.3867 19.8047 71.0156 17.9492 70.2539 16.1523C70.7617 20.3711 68.7305 24.6484 64.8242 26.8945C59.5508 29.9609 52.793 28.2031 49.7656 22.8711L45.5859 15.5664C44.8633 14.2969 44.4141 12.9492 44.2188 11.6016C42.3633 14.4531 41.2109 16.875 41.2109 20.6055C41.2109 29.2578 48.125 34.8828 56.3086 34.8828Z" fill="black" fill-opacity="0.85"/>
  <path d="M19.4531 22.1875C17.0117 22.1875 15.0977 20.2539 15.0977 17.793C15.0977 15.3711 17.0312 13.418 19.4531 13.418C21.9141 13.418 23.8477 15.3711 23.8477 17.793C23.8477 20.2539 21.9141 22.1875 19.4531 22.1875ZM19.4531 20.4688C20.9961 20.4688 22.1484 19.2969 22.1484 17.793C22.1484 16.3281 20.9961 15.1172 19.4531 15.1172C17.9492 15.1172 16.8164 16.3281 16.8164 17.793C16.8164 19.2969 17.9492 20.4688 19.4531 20.4688ZM59.7656 22.1875C57.3047 22.1875 55.3711 20.2539 55.3711 17.793C55.3711 15.3711 57.3047 13.418 59.7656 13.418C62.1875 13.418 64.1211 15.3711 64.1211 17.793C64.1211 20.2539 62.1875 22.1875 59.7656 22.1875ZM59.7656 20.4688C61.2695 20.4688 62.4023 19.2969 62.4023 17.793C62.4023 16.3281 61.2695 15.1172 59.7656 15.1172C58.2227 15.1172 57.0703 16.3281 57.0703 17.793C57.0703 19.2969 58.2227 20.4688 59.7656 20.4688Z" fill="black" fill-opacity="0.2125"/>
 </g>
</svg>
