<?xml version="1.0" encoding="UTF-8"?>
<!--Generator: Apple Native CoreSVG 326-->
<!DOCTYPE svg
PUBLIC "-//W3C//DTD SVG 1.1//EN"
       "http://www.w3.org/Graphics/SVG/1.1/DTD/svg11.dtd">
<svg version="1.1" xmlns="http://www.w3.org/2000/svg" xmlns:xlink="http://www.w3.org/1999/xlink" viewBox="0 0 63.418 41.4648">
 <g>
  <rect height="41.4648" opacity="0" width="63.418" x="0" y="0"/>
  <path d="M0 39.3945C0 40.6445 0.761719 41.4258 2.01172 41.4258L3.41797 41.4258C4.64844 41.4258 5.41016 40.6445 5.41016 39.3945L5.41016 35.5469C5.68359 35.625 6.36719 35.6641 6.89453 35.6641L56.1523 35.6641C56.6797 35.6641 57.3633 35.625 57.6367 35.5469L57.6367 39.3945C57.6367 40.6445 58.418 41.4258 59.6484 41.4258L61.0547 41.4258C62.2852 41.4258 63.0469 40.6445 63.0469 39.3945L63.0469 24.0234C63.0469 19.6289 60.5664 17.1484 56.1719 17.1484L6.875 17.1484C2.48047 17.1484 0 19.6289 0 24.0234Z" fill="black" fill-opacity="0.85"/>
  <path d="M6.05469 13.8867L12.168 13.8867L12.168 10.4492C12.168 8.18359 13.4766 6.875 15.7617 6.875L25.3906 6.875C27.6758 6.875 28.9844 8.18359 28.9844 10.4492L28.9844 13.8867L34.6289 13.8867L34.6289 10.4492C34.6289 8.18359 35.9375 6.875 38.4766 6.875L47.0508 6.875C49.5898 6.875 50.918 8.18359 50.918 10.4492L50.918 13.8867L57.0312 13.8867L57.0312 6.79688C57.0312 2.26562 54.6289 0 50.3906 0L12.6758 0C8.45703 0 6.05469 2.26562 6.05469 6.79688Z" fill="black" fill-opacity="0.85"/>
 </g>
</svg>
