<?xml version="1.0" encoding="UTF-8"?>
<!--Generator: Apple Native CoreSVG 326-->
<!DOCTYPE svg
PUBLIC "-//W3C//DTD SVG 1.1//EN"
       "http://www.w3.org/Graphics/SVG/1.1/DTD/svg11.dtd">
<svg version="1.1" xmlns="http://www.w3.org/2000/svg" xmlns:xlink="http://www.w3.org/1999/xlink" viewBox="0 0 51.25 50.918">
 <g>
  <rect height="50.918" opacity="0" width="51.25" x="0" y="0"/>
  <path d="M25.4297 50.8789C39.4727 50.8789 50.8789 39.4922 50.8789 25.4492C50.8789 11.4062 39.4727 0 25.4297 0C11.3867 0 0 11.4062 0 25.4492C0 39.4922 11.3867 50.8789 25.4297 50.8789ZM25.4297 47.2461C13.3789 47.2461 3.63281 37.5 3.63281 25.4492C3.63281 13.3984 13.3789 3.65234 25.4297 3.65234C37.4805 3.65234 47.2266 13.3984 47.2266 25.4492C47.2266 37.5 37.4805 47.2461 25.4297 47.2461Z" fill="black" fill-opacity="0.85"/>
  <path d="M9.12109 31.1719C9.12109 34.668 12.2266 37.3047 16.1328 37.3047C20.0195 37.3047 23.1641 34.668 23.1641 31.1719L23.1641 27.6367C23.8086 27.3633 24.6094 27.1875 25.4102 27.1875C26.2891 27.1875 27.0312 27.3047 27.6562 27.5391L27.6562 31.1719C27.6562 34.668 30.8008 37.3047 34.668 37.3047C38.5742 37.3047 41.6797 34.668 41.6797 31.1719C41.6797 30.2734 41.5625 29.4336 41.0742 28.2812L35.625 15.7617C34.9219 14.1602 33.418 13.1836 31.582 13.1836C29.1797 13.1836 27.6562 14.7266 27.6562 16.9727L27.6562 18.5156C26.9922 18.3008 26.2305 18.1641 25.4102 18.1641C24.6289 18.1641 23.8477 18.3203 23.1641 18.5742L23.1641 16.9727C23.1641 14.7266 21.6211 13.1836 19.2188 13.1836C17.3828 13.1836 15.8984 14.1602 15.1953 15.7617L9.72656 28.2812C9.23828 29.4336 9.12109 30.2734 9.12109 31.1719ZM11.4648 31.1719C11.4648 28.8672 13.3398 27.3047 16.1328 27.3047C18.9648 27.3047 20.8594 28.8672 20.8594 31.1719C20.8594 33.457 18.9648 35.0195 16.1328 35.0195C13.3398 35.0195 11.4648 33.457 11.4648 31.1719ZM29.9414 31.1719C29.9414 28.8672 31.8359 27.3047 34.668 27.3047C37.4609 27.3047 39.3359 28.8672 39.3359 31.1719C39.3359 33.457 37.4609 35.0195 34.668 35.0195C31.8359 35.0195 29.9414 33.457 29.9414 31.1719ZM23.1641 24.0039L23.1641 22.2266C23.8477 21.9727 24.6289 21.8359 25.4102 21.8359C26.2305 21.8359 26.9922 21.9531 27.6562 22.1875L27.6562 23.8672C27.0312 23.6523 26.2891 23.5156 25.4102 23.5156C24.6094 23.5156 23.7891 23.6719 23.1641 24.0039Z" fill="black" fill-opacity="0.85"/>
 </g>
</svg>
