<?xml version="1.0" encoding="UTF-8"?>
<!--Generator: Apple Native CoreSVG 326-->
<!DOCTYPE svg
PUBLIC "-//W3C//DTD SVG 1.1//EN"
       "http://www.w3.org/Graphics/SVG/1.1/DTD/svg11.dtd">
<svg version="1.1" xmlns="http://www.w3.org/2000/svg" xmlns:xlink="http://www.w3.org/1999/xlink" viewBox="0 0 51.25 50.918">
 <g>
  <rect height="50.918" opacity="0" width="51.25" x="0" y="0"/>
  <path d="M25.4297 50.8789C39.4727 50.8789 50.8789 39.4922 50.8789 25.4492C50.8789 11.4062 39.4727 0 25.4297 0C11.3867 0 0 11.4062 0 25.4492C0 39.4922 11.3867 50.8789 25.4297 50.8789ZM25.4297 47.2461C13.3789 47.2461 3.63281 37.5 3.63281 25.4492C3.63281 13.3984 13.3789 3.65234 25.4297 3.65234C37.4805 3.65234 47.2266 13.3984 47.2266 25.4492C47.2266 37.5 37.4805 47.2461 25.4297 47.2461Z" fill="black" fill-opacity="0.85"/>
  <path d="M32.8711 17.1289C31.0742 17.1289 29.6875 18.0469 28.5352 20.6836C25.0977 17.0508 19.2383 13.6133 13.3594 13.2031C12.3047 13.125 12.1289 13.8477 12.0898 14.5312C11.6602 20.918 16.7188 26.3086 23.4766 26.7773C21.6992 30.9961 18.7695 34.6289 15.8008 37.4219C15.3906 37.7734 15.4688 38.3008 15.7617 38.7305C17.1875 40.9375 21.6992 42.2461 24.7461 41.1914C25.3516 40.9766 25.4883 40.6836 25.4883 40.1562L25.4883 35.293C29.0039 35.1758 34.3359 33.0469 33.4766 26.1133L33.3008 25C34.9023 24.6289 36.1523 23.9062 36.875 23.0469L40.4297 23.5547C41.1914 23.6719 41.543 22.5195 40.7617 22.1875L37.6172 20.8984C37.4023 19.0234 35.3906 17.1289 32.8711 17.1289ZM22.1289 14.1602C24.4141 15.293 26.4648 16.6992 28.1641 18.1836C29.082 16.9141 30.0977 16.1523 31.2305 15.8203C29.6289 12.832 27.5195 10.6445 24.8047 9.10156C23.9258 8.61328 23.0859 8.98438 22.832 9.88281C22.4414 11.25 22.1875 12.6953 22.1289 14.1602ZM33.2812 20.5859C33.2812 20.1367 33.6914 19.7656 34.1406 19.7656C34.6094 19.7656 35 20.1367 35 20.5859C35 21.0938 34.6094 21.4453 34.1406 21.4453C33.6914 21.4453 33.2812 21.0938 33.2812 20.5859Z" fill="black" fill-opacity="0.85"/>
 </g>
</svg>
