<?xml version="1.0" encoding="UTF-8"?>
<!--Generator: Apple Native CoreSVG 326-->
<!DOCTYPE svg
PUBLIC "-//W3C//DTD SVG 1.1//EN"
       "http://www.w3.org/Graphics/SVG/1.1/DTD/svg11.dtd">
<svg version="1.1" xmlns="http://www.w3.org/2000/svg" xmlns:xlink="http://www.w3.org/1999/xlink" viewBox="0 0 57.5781 56.3086">
 <g>
  <rect height="56.3086" opacity="0" width="57.5781" x="0" y="0"/>
  <path d="M28.6133 9.31641C30.3711 9.31641 31.7578 7.75391 31.7578 5.74219C31.7578 3.69141 31.1133 2.34375 29.8828 0.898438C29.1211-0.0390625 28.2031-0.0390625 27.4414 0.78125C26.2109 2.24609 25.4688 3.59375 25.4688 5.74219C25.4688 7.75391 26.875 9.31641 28.6133 9.31641ZM27.3242 20.8008L29.8047 20.8008L29.8047 6.93359L27.3242 6.93359ZM12.4609 29.0234L44.7656 29.0234L44.7656 26.543C44.7656 21.9531 42.3047 19.5117 37.6562 19.5117L19.5703 19.5117C14.9414 19.5117 12.4609 21.9531 12.4609 26.543ZM3.96484 54.7852L53.2617 54.7852L53.2617 39.1797C53.2617 34.5703 50.8203 32.1484 46.1523 32.1484L11.0742 32.1484C6.42578 32.1484 3.96484 34.5703 3.96484 39.1797ZM28.5742 43.9648C26.1328 43.9648 24.3945 46.875 20.8203 46.875C17.3438 46.875 15.7031 43.9648 13.3789 43.9648C11.0352 43.9648 9.375 46.875 4.82422 46.875L3.96484 46.875L3.96484 43.9844L4.82422 43.9844C8.37891 43.9844 10.0195 41.0938 13.3789 41.0938C16.7188 41.0938 18.0469 43.9844 20.8203 43.9844C23.9648 43.9844 25.2148 41.0938 28.5742 41.0938C31.9531 41.0938 33.1641 43.9844 36.3477 43.9844C39.1211 43.9844 40.4297 41.0938 43.7695 41.0938C47.1094 41.0938 48.7695 43.9844 52.3242 43.9844L53.2617 43.9844L53.2617 46.875L52.3242 46.875C47.7539 46.875 46.0938 43.9648 43.7695 43.9648C41.4258 43.9648 39.7852 46.875 36.3477 46.875C32.7539 46.875 31.0156 43.9648 28.5742 43.9648ZM1.73828 56.3086L55.4883 56.3086C56.4258 56.3086 57.207 55.5273 57.207 54.5703C57.207 53.6328 56.4258 52.8516 55.4883 52.8516L1.73828 52.8516C0.78125 52.8516 0 53.6328 0 54.5703C0 55.5273 0.78125 56.3086 1.73828 56.3086Z" fill="black" fill-opacity="0.85"/>
 </g>
</svg>
