<?xml version="1.0" encoding="UTF-8"?>
<!--Generator: Apple Native CoreSVG 326-->
<!DOCTYPE svg
PUBLIC "-//W3C//DTD SVG 1.1//EN"
       "http://www.w3.org/Graphics/SVG/1.1/DTD/svg11.dtd">
<svg version="1.1" xmlns="http://www.w3.org/2000/svg" xmlns:xlink="http://www.w3.org/1999/xlink" viewBox="0 0 60.4102 50.0586">
 <g>
  <rect height="50.0586" opacity="0" width="60.4102" x="0" y="0"/>
  <path d="M60.0391 30.0195C60.0391 22.6562 57.3828 15.918 52.9688 10.6836C52.4609 10.0781 51.6016 10.0977 51.0352 10.6641L45.3906 16.3086C44.9023 16.7969 44.8828 17.4805 45.3125 18.0273C47.9102 21.3477 49.4531 25.4883 49.4531 30.0195C49.4531 34.5508 47.9102 38.7109 45.1953 42.1484C44.8242 42.6172 44.8438 43.2031 45.2539 43.6133L51.0352 49.4141C51.6016 50 52.4414 49.9805 52.9688 49.375C57.3828 44.1406 60.0391 37.3633 60.0391 30.0195Z" fill="black" fill-opacity="0.85"/>
  <path d="M30.0195 10.5664C34.5508 10.5664 38.7305 12.1289 42.0508 14.7656C42.5781 15.1562 43.2227 15.1172 43.7109 14.6289L49.375 8.96484C49.9609 8.39844 49.9414 7.55859 49.3359 7.03125C44.1211 2.65625 37.3633 0 30.0195 0C22.6758 0 15.918 2.65625 10.7031 7.03125C10.0977 7.55859 10.0781 8.39844 10.6445 8.96484L16.3281 14.6289C16.7969 15.1172 17.5 15.1367 18.0469 14.707C21.3477 12.1289 25.5078 10.5664 30.0195 10.5664Z" fill="black" fill-opacity="0.85"/>
  <path d="M0 30.0195C0 37.3633 2.65625 44.1406 7.07031 49.375C7.57812 49.9805 8.4375 50 9.00391 49.4141L14.7852 43.6133C15.1758 43.2031 15.2148 42.6172 14.8438 42.1484C12.1289 38.7109 10.5664 34.5508 10.5664 30.0195C10.5664 25.4883 12.1094 21.3477 14.7266 18.0273C15.1367 17.4805 15.1367 16.7969 14.6484 16.3086L8.98438 10.6641C8.41797 10.0977 7.57812 10.0781 7.05078 10.6836C2.63672 15.918 0 22.6562 0 30.0195Z" fill="black" fill-opacity="0.85"/>
  <path d="M24.7656 41.2891L31.0156 41.2891C35.332 41.2891 38.5547 39.2773 38.5547 35.2539C38.5547 32.2656 36.4258 30.1953 33.3398 29.8633L33.3398 29.6875C35.8008 29.2969 37.4219 27.1484 37.4219 24.8633C37.4219 21.3867 34.5703 19.4727 30.9375 19.4727L24.7656 19.4727C23.7891 19.4727 23.1445 20.1367 23.1445 21.1133L23.1445 39.6484C23.1445 40.625 23.7891 41.2891 24.7656 41.2891ZM25.7422 28.9648L25.7422 21.6602L30.3125 21.6602C32.793 21.6602 34.8047 22.6758 34.8047 25.1758C34.8047 27.9492 32.4609 28.9648 29.668 28.9648ZM25.7422 39.082L25.7422 31.1133L30.2734 31.1133C33.3008 31.1133 35.8984 32.1289 35.8984 35.0977C35.8984 38.0273 33.4766 39.082 30.5469 39.082ZM26.3281 20.7422L27.8711 20.7422L27.8711 17.0312C27.8711 16.582 27.5586 16.25 27.1094 16.25C26.6602 16.25 26.3281 16.582 26.3281 17.0312ZM30.293 20.7422L31.8359 20.7422L31.8359 17.0312C31.8359 16.582 31.5039 16.25 31.0547 16.25C30.625 16.25 30.293 16.582 30.293 17.0312ZM26.3281 39.9805L26.3281 43.8281C26.3281 44.2773 26.6602 44.5898 27.1094 44.5898C27.5586 44.5898 27.8711 44.2773 27.8711 43.8281L27.8711 39.9805ZM30.293 39.9805L30.293 43.8281C30.293 44.2773 30.625 44.5898 31.0547 44.5898C31.5039 44.5898 31.8359 44.2773 31.8359 43.8281L31.8359 39.9805Z" fill="black" fill-opacity="0.85"/>
 </g>
</svg>
