<?xml version="1.0" encoding="UTF-8"?>
<!--Generator: Apple Native CoreSVG 326-->
<!DOCTYPE svg
PUBLIC "-//W3C//DTD SVG 1.1//EN"
       "http://www.w3.org/Graphics/SVG/1.1/DTD/svg11.dtd">
<svg version="1.1" xmlns="http://www.w3.org/2000/svg" xmlns:xlink="http://www.w3.org/1999/xlink" viewBox="0 0 49.8438 46.9336">
 <g>
  <rect height="46.9336" opacity="0" width="49.8438" x="0" y="0"/>
  <path d="M0.371094 16.3086C0.371094 26.9141 9.49219 37.3047 23.457 46.3086C23.9453 46.6211 24.6289 46.9336 25.1172 46.9336C25.5859 46.9336 26.2695 46.6211 26.7578 46.3086C40.7422 37.3047 49.8438 26.9141 49.8438 16.3086C49.8438 7.59766 43.8477 1.38672 35.8203 1.38672C31.2109 1.38672 27.3242 3.69141 25.1172 7.22656C22.9297 3.71094 19.0039 1.38672 14.4141 1.38672C6.38672 1.38672 0.371094 7.59766 0.371094 16.3086ZM3.84766 16.3086C3.84766 9.47266 8.32031 4.84375 14.375 4.84375C19.082 4.84375 21.8945 7.77344 23.5938 10.5273C24.1797 11.4258 24.5703 11.6992 25.1172 11.6992C25.6445 11.6992 25.9961 11.4062 26.6211 10.5273C28.3984 7.8125 31.1719 4.84375 35.8594 4.84375C41.9141 4.84375 46.3867 9.47266 46.3867 16.3086C46.3867 25.7422 36.5039 35.7812 25.5859 43.0469C25.3711 43.1836 25.2148 43.3008 25.1172 43.3008C25.0195 43.3008 24.8633 43.1836 24.6484 43.0469C13.7109 35.7812 3.84766 25.7422 3.84766 16.3086Z" fill="black" fill-opacity="0.85"/>
  <path d="M16.7773 26.7578C16.7773 27.1875 17.1289 27.4805 17.5391 27.4805L23.9258 27.4805L20.5078 36.6406C20.0781 37.7539 21.25 38.3398 21.9727 37.4414L32.2266 24.5508C32.4219 24.3164 32.5391 24.082 32.5391 23.8672C32.5391 23.457 32.168 23.1445 31.7383 23.1445L25.3906 23.1445L28.7891 13.9844C29.1992 12.8906 28.0469 12.2852 27.3242 13.1836L17.0703 26.0742C16.875 26.3281 16.7773 26.543 16.7773 26.7578Z" fill="black" fill-opacity="0.85"/>
 </g>
</svg>
