<?xml version="1.0" encoding="UTF-8"?>
<!--Generator: Apple Native CoreSVG 326-->
<!DOCTYPE svg
PUBLIC "-//W3C//DTD SVG 1.1//EN"
       "http://www.w3.org/Graphics/SVG/1.1/DTD/svg11.dtd">
<svg version="1.1" xmlns="http://www.w3.org/2000/svg" xmlns:xlink="http://www.w3.org/1999/xlink" viewBox="0 0 46.2891 45.918">
 <g>
  <rect height="45.918" opacity="0" width="46.2891" x="0" y="0"/>
  <path d="M7.59766 45.918L38.3008 45.918C43.3594 45.918 45.918 43.3594 45.918 38.3984L45.918 7.53906C45.918 2.55859 43.3594 0 38.3008 0L7.59766 0C2.55859 0 0 2.53906 0 7.53906L0 38.3984C0 43.3984 2.55859 45.918 7.59766 45.918ZM7.67578 42.4609C4.94141 42.4609 3.45703 41.0156 3.45703 38.2031L3.45703 7.71484C3.45703 4.92188 4.94141 3.45703 7.67578 3.45703L38.2422 3.45703C40.918 3.45703 42.4609 4.92188 42.4609 7.71484L42.4609 38.2031C42.4609 41.0156 40.918 42.4609 38.2422 42.4609Z" fill="black" fill-opacity="0.85"/>
  <path d="M11.8555 24.7656C11.8555 25.3516 12.3047 25.7617 12.9102 25.7617L21.6016 25.7617L16.9531 38.3008C16.3672 39.8047 17.9492 40.6055 18.9453 39.4141L33.0078 21.7578C33.2617 21.4453 33.3984 21.1133 33.3984 20.8203C33.3984 20.2344 32.9297 19.8438 32.3438 19.8438L23.6523 19.8438L28.3008 7.30469C28.8672 5.80078 27.2852 4.98047 26.3086 6.19141L12.2461 23.8281C11.9922 24.1602 11.8555 24.4922 11.8555 24.7656Z" fill="black" fill-opacity="0.85"/>
 </g>
</svg>
