<?xml version="1.0" encoding="UTF-8"?>
<!--Generator: Apple Native CoreSVG 326-->
<!DOCTYPE svg
PUBLIC "-//W3C//DTD SVG 1.1//EN"
       "http://www.w3.org/Graphics/SVG/1.1/DTD/svg11.dtd">
<svg version="1.1" xmlns="http://www.w3.org/2000/svg" xmlns:xlink="http://www.w3.org/1999/xlink" viewBox="0 0 42.3047 53.8477">
 <g>
  <rect height="53.8477" opacity="0" width="42.3047" x="0" y="0"/>
  <path d="M7.40234 53.8477L40.2148 53.8477C41.1719 53.8477 41.9336 53.0859 41.9336 52.1094C41.9336 51.3867 41.4258 50.7227 40.7617 50.4688C37.4414 48.9453 36.7188 44.7656 39.9023 41.4648C40.8789 40.4688 41.9336 39.1406 41.9336 36.6992L41.9336 7.63672C41.9336 2.59766 39.4141 0.0390625 34.4141 0.0390625L7.51953 0.0390625C2.51953 0.0390625 0 2.57812 0 7.63672L0 46.4648C0 51.3281 2.53906 53.8477 7.40234 53.8477ZM7.57812 50.3906C4.92188 50.3906 3.45703 48.9453 3.45703 46.4258C3.45703 44.043 5.11719 42.5391 7.75391 42.5391L33.9844 42.5391C34.4727 42.5391 34.8828 42.4805 35.2734 42.3828C33.8867 45.1953 34.1797 48.1641 35.8984 50.3906ZM6.75781 38.9648C6.07422 38.9648 5.48828 38.3984 5.48828 37.6953L5.48828 4.98047C5.48828 4.25781 6.07422 3.69141 6.75781 3.69141C7.46094 3.69141 8.04688 4.25781 8.04688 4.98047L8.04688 37.6953C8.04688 38.3984 7.46094 38.9648 6.75781 38.9648Z" fill="black" fill-opacity="0.85"/>
 </g>
</svg>
