<?xml version="1.0" encoding="UTF-8"?>
<!--Generator: Apple Native CoreSVG 326-->
<!DOCTYPE svg
PUBLIC "-//W3C//DTD SVG 1.1//EN"
       "http://www.w3.org/Graphics/SVG/1.1/DTD/svg11.dtd">
<svg version="1.1" xmlns="http://www.w3.org/2000/svg" xmlns:xlink="http://www.w3.org/1999/xlink" viewBox="0 0 51.25 50.918">
 <g>
  <rect height="50.918" opacity="0" width="51.25" x="0" y="0"/>
  <path d="M50.8789 25.4688C50.8789 39.4922 39.4531 50.918 25.4297 50.918C11.4258 50.918 0 39.4922 0 25.4688C0 11.4648 11.4258 0.0390625 25.4297 0.0390625C39.4531 0.0390625 50.8789 11.4648 50.8789 25.4688ZM11.6016 17.7148C11.4648 17.9688 11.4453 18.0859 11.4453 18.5156L11.4453 35.8203C11.4453 36.2891 11.7773 36.6016 12.2656 36.6016C12.5586 36.6016 12.793 36.5234 13.0273 36.3281C14.4922 35.0195 16.543 34.2773 18.75 34.2773C20.5859 34.2773 22.3242 34.9023 23.7695 36.1133C23.9062 36.2305 24.0234 36.2891 24.1797 36.2891C24.4531 36.2891 24.6289 36.0938 24.6289 35.8203L24.6289 17.7539C24.6289 17.4414 24.6289 17.3633 24.4141 17.0703C23.1055 15.3711 20.8984 14.375 18.4375 14.375C15.7227 14.375 12.8516 15.5859 11.6016 17.7148ZM26.4844 17.0703C26.2695 17.3633 26.25 17.4414 26.25 17.7539L26.25 35.8203C26.25 36.0938 26.4453 36.2891 26.7188 36.2891C26.875 36.2891 26.9922 36.2305 27.1289 36.1133C28.5742 34.9023 30.332 34.2773 32.1289 34.2773C34.375 34.2773 36.4258 35.0195 37.8711 36.3281C38.0859 36.5234 38.3203 36.6016 38.6133 36.6016C39.1211 36.6016 39.4531 36.2891 39.4531 35.8203L39.4531 18.5156C39.4531 18.0859 39.4336 17.9492 39.2969 17.7148C38.0273 15.5859 35.1562 14.375 32.4609 14.375C30 14.375 27.793 15.3711 26.4844 17.0703Z" fill="black" fill-opacity="0.85"/>
 </g>
</svg>
