<?xml version="1.0" encoding="UTF-8"?>
<!--Generator: Apple Native CoreSVG 326-->
<!DOCTYPE svg
PUBLIC "-//W3C//DTD SVG 1.1//EN"
       "http://www.w3.org/Graphics/SVG/1.1/DTD/svg11.dtd">
<svg version="1.1" xmlns="http://www.w3.org/2000/svg" xmlns:xlink="http://www.w3.org/1999/xlink" viewBox="0 0 51.25 50.918">
 <g>
  <rect height="50.918" opacity="0" width="51.25" x="0" y="0"/>
  <path d="M50.8789 25.4688C50.8789 39.4922 39.4531 50.918 25.4297 50.918C11.4258 50.918 0 39.4922 0 25.4688C0 11.4648 11.4258 0.0390625 25.4297 0.0390625C39.4531 0.0390625 50.8789 11.4648 50.8789 25.4688ZM18.6133 11.7188C16.0156 11.7188 14.6875 13.0469 14.6875 15.7031L14.6875 35.3906C14.6875 37.9297 16.0156 39.2383 18.5352 39.2383L35.1953 39.2383C35.7227 39.2383 36.1719 38.8086 36.1719 38.2617C36.1719 37.8516 35.8789 37.4609 35.5469 37.3242C33.8672 36.543 33.5938 34.5117 35.1172 32.9492C35.6445 32.3828 36.1719 31.6406 36.1719 30.4492L36.1719 15.7031C36.1719 13.0664 34.8438 11.7188 32.2461 11.7188ZM32.6953 37.2656L18.6328 37.2656C17.3633 37.2656 16.6602 36.582 16.6602 35.3711C16.6602 34.2578 17.4609 33.5156 18.7109 33.5156L32.0312 33.5156C32.1875 33.5156 32.3242 33.4961 32.4609 33.4766C31.9336 34.8047 32.0312 36.1523 32.6953 37.2656ZM18.9844 14.707L18.9844 30.5859C18.9844 31.0156 18.6523 31.3477 18.2031 31.3477C17.793 31.3477 17.4609 31.0352 17.4609 30.5859L17.4609 14.707C17.4609 14.2773 17.793 13.9453 18.2031 13.9453C18.6523 13.9453 18.9844 14.2969 18.9844 14.707Z" fill="black" fill-opacity="0.85"/>
 </g>
</svg>
