<?xml version="1.0" encoding="UTF-8"?>
<!--Generator: Apple Native CoreSVG 326-->
<!DOCTYPE svg
PUBLIC "-//W3C//DTD SVG 1.1//EN"
       "http://www.w3.org/Graphics/SVG/1.1/DTD/svg11.dtd">
<svg version="1.1" xmlns="http://www.w3.org/2000/svg" xmlns:xlink="http://www.w3.org/1999/xlink" viewBox="0 0 51.25 50.918">
 <g>
  <rect height="50.918" opacity="0" width="51.25" x="0" y="0"/>
  <path d="M25.4297 50.8789C39.4727 50.8789 50.8789 39.4922 50.8789 25.4492C50.8789 11.4062 39.4727 0 25.4297 0C11.3867 0 0 11.4062 0 25.4492C0 39.4922 11.3867 50.8789 25.4297 50.8789ZM25.4297 47.2461C13.3789 47.2461 3.63281 37.5 3.63281 25.4492C3.63281 13.3984 13.3789 3.65234 25.4297 3.65234C37.4805 3.65234 47.2266 13.3984 47.2266 25.4492C47.2266 37.5 37.4805 47.2461 25.4297 47.2461Z" fill="black" fill-opacity="0.85"/>
  <path d="M17.8906 38.7891C18.457 38.7891 18.8086 38.4766 19.7852 37.5195L25.293 32.0117C25.3711 31.9336 25.4688 31.9336 25.5273 32.0117L31.0547 37.5195C32.0117 38.4766 32.3633 38.7891 32.9492 38.7891C33.7109 38.7891 34.1992 38.2422 34.1992 37.3242L34.1992 15.9961C34.1992 13.5938 32.9688 12.3438 30.5859 12.3438L20.2344 12.3438C17.8516 12.3438 16.6211 13.5938 16.6211 15.9961L16.6211 37.3242C16.6211 38.2422 17.1094 38.7891 17.8906 38.7891Z" fill="black" fill-opacity="0.85"/>
 </g>
</svg>
