<?xml version="1.0" encoding="UTF-8"?>
<!--Generator: Apple Native CoreSVG 326-->
<!DOCTYPE svg
PUBLIC "-//W3C//DTD SVG 1.1//EN"
       "http://www.w3.org/Graphics/SVG/1.1/DTD/svg11.dtd">
<svg version="1.1" xmlns="http://www.w3.org/2000/svg" xmlns:xlink="http://www.w3.org/1999/xlink" viewBox="0 0 51.25 50.918">
 <g>
  <rect height="50.918" opacity="0" width="51.25" x="0" y="0"/>
  <path d="M50.8789 25.4492C50.8789 39.4531 39.4531 50.8789 25.4297 50.8789C11.4258 50.8789 0 39.4531 0 25.4492C0 11.4258 11.4258 0 25.4297 0C39.4531 0 50.8789 11.4258 50.8789 25.4492ZM12.4219 35.8789C11.8555 35.8789 11.3867 36.3672 11.3867 36.9141C11.3867 37.4805 11.8555 37.9492 12.4219 37.9492L38.4375 37.9492C39.0234 37.9492 39.4922 37.4805 39.4922 36.9141C39.4922 36.3672 39.0234 35.8789 38.4375 35.8789ZM14.2969 20.4102C13.8086 20.4102 13.5156 20.7031 13.5156 21.1914L13.5156 21.3672C13.5156 21.8945 13.8086 22.168 14.2969 22.168L14.9805 22.168L14.9805 33.3008L14.2969 33.3008C13.8086 33.3008 13.5156 33.6328 13.5156 34.1016L13.5156 34.2969C13.5156 34.7852 13.8086 35.0781 14.2969 35.0781L17.6758 35.0781C18.1641 35.0781 18.4766 34.7852 18.4766 34.2969L18.4766 34.1016C18.4766 33.6328 18.1641 33.3008 17.6758 33.3008L16.9727 33.3008L16.9727 22.168L17.6758 22.168C18.1641 22.168 18.4766 21.8945 18.4766 21.3672L18.4766 21.1914C18.4766 20.7031 18.1641 20.4102 17.6758 20.4102ZM20.6055 20.4102C20.1367 20.4102 19.7852 20.7031 19.7852 21.1914L19.7852 21.3672C19.7852 21.8945 20.1367 22.168 20.6055 22.168L21.3086 22.168L21.3086 33.3008L20.6055 33.3008C20.1367 33.3008 19.7852 33.6328 19.7852 34.1016L19.7852 34.2969C19.7852 34.7852 20.1367 35.0781 20.6055 35.0781L23.9453 35.0781C24.4531 35.0781 24.7656 34.7852 24.7656 34.2969L24.7656 34.1016C24.7656 33.6328 24.4531 33.3008 23.9453 33.3008L23.2812 33.3008L23.2812 22.168L23.9453 22.168C24.4531 22.168 24.7656 21.8945 24.7656 21.3672L24.7656 21.1914C24.7656 20.7031 24.4531 20.4102 23.9453 20.4102ZM26.9141 20.4102C26.4062 20.4102 26.1133 20.7031 26.1133 21.1914L26.1133 21.3672C26.1133 21.8945 26.4062 22.168 26.9141 22.168L27.5977 22.168L27.5977 33.3008L26.9141 33.3008C26.4062 33.3008 26.1133 33.6328 26.1133 34.1016L26.1133 34.2969C26.1133 34.7852 26.4062 35.0781 26.9141 35.0781L30.2734 35.0781C30.7422 35.0781 31.0742 34.7852 31.0742 34.2969L31.0742 34.1016C31.0742 33.6328 30.7422 33.3008 30.2734 33.3008L29.5703 33.3008L29.5703 22.168L30.2734 22.168C30.7422 22.168 31.0742 21.8945 31.0742 21.3672L31.0742 21.1914C31.0742 20.7031 30.7422 20.4102 30.2734 20.4102ZM33.2031 20.4102C32.7148 20.4102 32.3828 20.7031 32.3828 21.1914L32.3828 21.3672C32.3828 21.8945 32.7148 22.168 33.2031 22.168L33.9062 22.168L33.9062 33.3008L33.2031 33.3008C32.7148 33.3008 32.3828 33.6328 32.3828 34.1016L32.3828 34.2969C32.3828 34.7852 32.7148 35.0781 33.2031 35.0781L36.5625 35.0781C37.0703 35.0781 37.3633 34.7852 37.3633 34.2969L37.3633 34.1016C37.3633 33.6328 37.0703 33.3008 36.5625 33.3008L35.8984 33.3008L35.8984 22.168L36.5625 22.168C37.0703 22.168 37.3633 21.8945 37.3633 21.3672L37.3633 21.1914C37.3633 20.7031 37.0703 20.4102 36.5625 20.4102ZM23.8672 11.3281L12.9883 17.5977C12.5391 17.832 12.3242 18.2227 12.3242 18.5547C12.3242 19.1016 12.7344 19.6094 13.418 19.6094L37.4609 19.6094C38.1445 19.6094 38.5352 19.1016 38.5352 18.5547C38.5352 18.2227 38.3203 17.832 37.8906 17.5977L27.0117 11.3281C26.5039 10.9961 25.9375 10.8594 25.4297 10.8594C24.9023 10.8594 24.3359 10.9961 23.8672 11.3281Z" fill="black" fill-opacity="0.85"/>
 </g>
</svg>
