<?xml version="1.0" encoding="UTF-8"?>
<!--Generator: Apple Native CoreSVG 326-->
<!DOCTYPE svg
PUBLIC "-//W3C//DTD SVG 1.1//EN"
       "http://www.w3.org/Graphics/SVG/1.1/DTD/svg11.dtd">
<svg version="1.1" xmlns="http://www.w3.org/2000/svg" xmlns:xlink="http://www.w3.org/1999/xlink" viewBox="0 0 51.25 50.918">
 <g>
  <rect height="50.918" opacity="0" width="51.25" x="0" y="0"/>
  <path d="M50.8789 25.4688C50.8789 39.4922 39.4531 50.918 25.4297 50.918C11.4258 50.918 0 39.4922 0 25.4688C0 11.4648 11.4258 0.0390625 25.4297 0.0390625C39.4531 0.0390625 50.8789 11.4648 50.8789 25.4688ZM12.2266 14.1016C10.4883 14.1016 9.47266 15.1953 9.47266 17.0312L9.47266 40.332C13.4375 44.6094 19.082 47.2656 25.4297 47.2656C27.6562 47.2656 29.7852 46.9531 31.7969 46.3281L31.7969 17.0312C31.7969 15.1953 30.8203 14.1016 29.043 14.1016ZM33.6328 20.5859L33.6328 45.6836C37.7539 44.0234 41.25 41.1133 43.6133 37.4219L43.6133 23.5156C43.6133 21.6797 42.6172 20.5859 40.8594 20.5859ZM18.7891 38.75L18.7891 41.4648C18.7891 41.7969 18.5547 42.0312 18.2422 42.0312L15.4297 42.0312C15.1172 42.0312 14.9023 41.7969 14.9023 41.4648L14.9023 38.75C14.9023 38.418 15.1172 38.1836 15.4297 38.1836L18.2422 38.1836C18.5547 38.1836 18.7891 38.418 18.7891 38.75ZM26.2695 38.75L26.2695 41.4648C26.2695 41.7969 26.0547 42.0312 25.7422 42.0312L22.9297 42.0312C22.6172 42.0312 22.4023 41.7969 22.4023 41.4648L22.4023 38.75C22.4023 38.418 22.6172 38.1836 22.9297 38.1836L25.7422 38.1836C26.0547 38.1836 26.2695 38.418 26.2695 38.75ZM40.2539 37.1094L40.2539 39.4727C40.2539 39.7266 40.0781 39.9219 39.8242 39.9219L37.3828 39.9219C37.1289 39.9219 36.9141 39.7266 36.9141 39.4727L36.9141 37.1094C36.9141 36.8555 37.1289 36.6406 37.3828 36.6406L39.8242 36.6406C40.0781 36.6406 40.2539 36.8555 40.2539 37.1094ZM18.7891 32.207L18.7891 34.9414C18.7891 35.2344 18.5547 35.4883 18.2422 35.4883L15.4297 35.4883C15.1172 35.4883 14.9023 35.2344 14.9023 34.9414L14.9023 32.207C14.9023 31.8945 15.1172 31.6406 15.4297 31.6406L18.2422 31.6406C18.5547 31.6406 18.7891 31.8945 18.7891 32.207ZM26.2695 32.207L26.2695 34.9414C26.2695 35.2344 26.0547 35.4883 25.7422 35.4883L22.9297 35.4883C22.6172 35.4883 22.4023 35.2344 22.4023 34.9414L22.4023 32.207C22.4023 31.8945 22.6172 31.6406 22.9297 31.6406L25.7422 31.6406C26.0547 31.6406 26.2695 31.8945 26.2695 32.207ZM40.2539 31.1914L40.2539 33.5547C40.2539 33.8281 40.0781 34.0234 39.8242 34.0234L37.3828 34.0234C37.1289 34.0234 36.9141 33.8281 36.9141 33.5547L36.9141 31.1914C36.9141 30.9375 37.1289 30.7617 37.3828 30.7617L39.8242 30.7617C40.0781 30.7617 40.2539 30.9375 40.2539 31.1914ZM18.7891 25.6445L18.7891 28.3984C18.7891 28.6914 18.5547 28.9453 18.2422 28.9453L15.4297 28.9453C15.1172 28.9453 14.9023 28.6914 14.9023 28.3984L14.9023 25.6445C14.9023 25.3516 15.1172 25.0977 15.4297 25.0977L18.2422 25.0977C18.5547 25.0977 18.7891 25.3516 18.7891 25.6445ZM26.2695 25.6445L26.2695 28.3984C26.2695 28.6914 26.0547 28.9453 25.7422 28.9453L22.9297 28.9453C22.6172 28.9453 22.4023 28.6914 22.4023 28.3984L22.4023 25.6445C22.4023 25.3516 22.6172 25.0977 22.9297 25.0977L25.7422 25.0977C26.0547 25.0977 26.2695 25.3516 26.2695 25.6445ZM40.2539 25.293L40.2539 27.6758C40.2539 27.9297 40.0781 28.125 39.8242 28.125L37.3828 28.125C37.1289 28.125 36.9141 27.9297 36.9141 27.6758L36.9141 25.293C36.9141 25.0586 37.1289 24.8438 37.3828 24.8438L39.8242 24.8438C40.0781 24.8438 40.2539 25.0586 40.2539 25.293ZM18.7891 19.1602L18.7891 21.8945C18.7891 22.207 18.5547 22.4414 18.2422 22.4414L15.4297 22.4414C15.1172 22.4414 14.9023 22.207 14.9023 21.8945L14.9023 19.1602C14.9023 18.8281 15.1172 18.6133 15.4297 18.6133L18.2422 18.6133C18.5547 18.6133 18.7891 18.8281 18.7891 19.1602ZM26.2695 19.1602L26.2695 21.8945C26.2695 22.207 26.0547 22.4414 25.7422 22.4414L22.9297 22.4414C22.6172 22.4414 22.4023 22.207 22.4023 21.8945L22.4023 19.1602C22.4023 18.8281 22.6172 18.6133 22.9297 18.6133L25.7422 18.6133C26.0547 18.6133 26.2695 18.8281 26.2695 19.1602Z" fill="black" fill-opacity="0.85"/>
 </g>
</svg>
