<?xml version="1.0" encoding="UTF-8"?>
<!--Generator: Apple Native CoreSVG 326-->
<!DOCTYPE svg
PUBLIC "-//W3C//DTD SVG 1.1//EN"
       "http://www.w3.org/Graphics/SVG/1.1/DTD/svg11.dtd">
<svg version="1.1" xmlns="http://www.w3.org/2000/svg" xmlns:xlink="http://www.w3.org/1999/xlink" viewBox="0 0 62.3633 66.1133">
 <g>
  <rect height="66.1133" opacity="0" width="62.3633" x="0" y="0"/>
  <path d="M62.3633 15.8789L62.3633 50.1562C62.3633 57.4008 57.7363 62.8688 50.4537 62.8709C53.9643 60.0352 56.0156 55.4858 56.0156 50.1562L56.0156 15.8789C56.0156 10.5542 53.968 6.01507 50.4634 3.18426C57.721 3.19084 62.3633 8.61813 62.3633 15.8789Z" fill="black" fill-opacity="0.85"/>
  <path d="M52.9102 15.8789L52.9102 50.1562C52.9102 57.5977 48.2617 62.9297 41.1328 62.9297C33.9844 62.9297 29.3359 57.5977 29.3359 50.1562L29.3359 42.5469L35.957 36.7773C38.3398 34.6875 38.2812 31.3086 35.9375 29.2383L29.3359 23.5008L29.3359 15.8789C29.3359 8.4375 33.9844 3.10547 41.1328 3.10547C48.2617 3.10547 52.9102 8.4375 52.9102 15.8789Z" fill="black" fill-opacity="0.85"/>
  <path d="M33.9062 34.4336C34.8633 33.5938 34.8438 32.4023 33.9062 31.582L26.4258 25.0977C25.0781 23.9062 23.2227 24.668 23.2227 26.4844L23.2227 31.1914L9.88281 31.1914C8.84766 31.1914 8.04688 31.9922 8.04688 33.0469C8.04688 34.0625 8.84766 34.8633 9.88281 34.8633L23.2227 34.8633L23.2227 39.5508C23.2227 41.4258 25.1367 42.1094 26.4258 40.9375Z" fill="black" fill-opacity="0.85"/>
 </g>
</svg>
