<?xml version="1.0" encoding="UTF-8"?>
<!--Generator: Apple Native CoreSVG 326-->
<!DOCTYPE svg
PUBLIC "-//W3C//DTD SVG 1.1//EN"
       "http://www.w3.org/Graphics/SVG/1.1/DTD/svg11.dtd">
<svg version="1.1" xmlns="http://www.w3.org/2000/svg" xmlns:xlink="http://www.w3.org/1999/xlink" viewBox="0 0 51.25 50.918">
 <g>
  <rect height="50.918" opacity="0" width="51.25" x="0" y="0"/>
  <path d="M25.4297 50.8789C39.4727 50.8789 50.8789 39.4922 50.8789 25.4492C50.8789 11.4062 39.4727 0 25.4297 0C11.3867 0 0 11.4062 0 25.4492C0 39.4922 11.3867 50.8789 25.4297 50.8789ZM25.4297 47.2461C13.3789 47.2461 3.63281 37.5 3.63281 25.4492C3.63281 13.3984 13.3789 3.65234 25.4297 3.65234C37.4805 3.65234 47.2266 13.3984 47.2266 25.4492C47.2266 37.5 37.4805 47.2461 25.4297 47.2461Z" fill="black" fill-opacity="0.85"/>
  <path d="M14.0039 36.8164L36.7969 36.8164C39.3359 36.8164 40.6641 35.5273 40.6641 32.9883L40.6641 19.5703C40.6641 17.0117 39.3359 15.7227 36.7969 15.7227L33.3789 15.7227C32.3633 15.7227 32.0703 15.5664 31.4453 14.8828L30.4102 13.7109C29.7461 13.0078 29.1406 12.6758 27.8516 12.6758L22.8125 12.6758C21.543 12.6758 20.8984 12.9883 20.2539 13.7109L19.1992 14.8828C18.5742 15.5273 18.3008 15.7227 17.2852 15.7227L14.0039 15.7227C11.4453 15.7227 10.1367 17.0117 10.1367 19.5703L10.1367 32.9883C10.1367 35.5273 11.4453 36.8164 14.0039 36.8164ZM25.4297 33.6914C21.2305 33.6914 17.8711 30.3516 17.8711 26.1328C17.8711 21.9336 21.2305 18.5742 25.4297 18.5742C29.6094 18.5742 32.9688 21.9336 32.9688 26.1328C32.9688 30.4102 29.6094 33.6914 25.4297 33.6914ZM25.4102 31.7773C28.5156 31.7773 31.0352 29.2773 31.0352 26.1328C31.0352 23.0273 28.5156 20.5078 25.4102 20.5078C22.3047 20.5078 19.7852 23.0273 19.7852 26.1328C19.7852 29.2773 22.3047 31.7773 25.4102 31.7773ZM35.9766 22.0508C35.0977 22.0508 34.375 21.3281 34.375 20.4297C34.375 19.5508 35.0977 18.8281 35.9766 18.8281C36.8555 18.8281 37.5781 19.5508 37.5781 20.4297C37.5781 21.3281 36.8555 22.0508 35.9766 22.0508Z" fill="black" fill-opacity="0.85"/>
 </g>
</svg>
