<?xml version="1.0" encoding="UTF-8"?>
<!--Generator: Apple Native CoreSVG 326-->
<!DOCTYPE svg
PUBLIC "-//W3C//DTD SVG 1.1//EN"
       "http://www.w3.org/Graphics/SVG/1.1/DTD/svg11.dtd">
<svg version="1.1" xmlns="http://www.w3.org/2000/svg" xmlns:xlink="http://www.w3.org/1999/xlink" viewBox="0 0 61.6016 64.3822">
 <g>
  <rect height="64.3822" opacity="0" width="61.6016" x="0" y="0"/>
  <path d="M49.9609 26.4587C51.6406 26.4587 53.0078 25.0915 53.0078 23.3923C53.0078 21.7126 51.6406 20.3454 49.9609 20.3454C48.2812 20.3454 46.9141 21.7126 46.9141 23.3923C46.9141 25.0915 48.2812 26.4587 49.9609 26.4587ZM7.59766 55.1696L53.6328 55.1696C58.6719 55.1696 61.2305 52.6305 61.2305 47.6501L61.2305 21.2048C61.2305 16.2438 58.6719 13.6852 53.6328 13.6852L46.3086 13.6852C44.2969 13.6852 43.7305 13.3727 42.5391 12.0446L40.4688 9.72038C39.1797 8.31413 37.9688 7.65006 35.4297 7.65006L25.5078 7.65006C22.9688 7.65006 21.7578 8.31413 20.4688 9.72038L18.3984 12.0446C17.2461 13.3337 16.6211 13.6852 14.6289 13.6852L7.59766 13.6852C2.55859 13.6852 0 16.2438 0 21.2048L0 47.6501C0 52.6305 2.55859 55.1696 7.59766 55.1696ZM7.67578 51.7126C5 51.7126 3.45703 50.2673 3.45703 47.4743L3.45703 21.4001C3.45703 18.5876 5 17.1423 7.67578 17.1423L15.4297 17.1423C17.6953 17.1423 18.8672 16.7712 20.1562 15.3258L22.1875 13.0602C23.6328 11.4587 24.375 11.1071 26.5039 11.1071L34.4336 11.1071C36.582 11.1071 37.3047 11.4587 38.75 13.0602L40.7812 15.3258C42.0703 16.7712 43.2422 17.1423 45.5273 17.1423L53.5742 17.1423C56.25 17.1423 57.7734 18.5876 57.7734 21.4001L57.7734 47.4743C57.7734 50.2673 56.25 51.7126 53.5742 51.7126ZM30.625 47.8258C38.2812 47.8258 44.4336 41.693 44.4336 33.9782C44.4336 26.2829 38.3008 20.1501 30.625 20.1501C22.9688 20.1501 16.8164 26.2829 16.8164 33.9782C16.8164 41.693 22.9688 47.8258 30.625 47.8258ZM30.625 44.5251C24.8242 44.5251 20.0977 39.8376 20.0977 33.9782C20.0977 28.1383 24.8047 23.4508 30.625 23.4508C36.4258 23.4508 41.1328 28.1383 41.1328 33.9782C41.1328 39.8376 36.4258 44.5251 30.625 44.5251Z" fill="black" fill-opacity="0.85"/>
  <path d="M3.41797 3.07975L10.3906 9.23209C10.7812 9.56413 11.1914 9.81803 11.6602 9.81803C12.1094 9.81803 12.5391 9.56413 12.9102 9.23209L19.8828 3.07975C21.6797 1.53678 19.5312-1.19759 17.5586 0.57975L11.6602 6.10709L5.76172 0.57975C3.76953-1.19759 1.62109 1.53678 3.41797 3.07975Z" fill="black" fill-opacity="0.85"/>
 </g>
</svg>
