<?xml version="1.0" encoding="UTF-8"?>
<!--Generator: Apple Native CoreSVG 326-->
<!DOCTYPE svg
PUBLIC "-//W3C//DTD SVG 1.1//EN"
       "http://www.w3.org/Graphics/SVG/1.1/DTD/svg11.dtd">
<svg version="1.1" xmlns="http://www.w3.org/2000/svg" xmlns:xlink="http://www.w3.org/1999/xlink" viewBox="0 0 89.1406 68.3398">
 <g>
  <rect height="68.3398" opacity="0" width="89.1406" x="0" y="0"/>
  <path d="M77.9102 23.4766L81.9336 24.8242C86.6211 26.3672 88.7695 29.1211 88.7695 33.6523L88.7695 40.625C88.7695 46.1914 86.3477 48.75 81.0742 48.75L78.6317 48.75C77.3866 51.9525 74.3074 54.1602 70.625 54.1602C66.9277 54.1602 63.845 51.9525 62.599 48.75L26.1705 48.75C24.9246 51.9525 21.8418 54.1602 18.1445 54.1602C14.4473 54.1602 11.3759 51.9525 10.1353 48.75L7.67578 48.75C2.46094 48.75 0 46.2305 0 40.7422L0 37.4609C0 31.7188 4.0625 27.5977 10.7617 26.7578L22.0508 25.3711L32.2656 18.9844C35.3365 17.0527 37.9853 15.8345 41.1677 15.1051L41.2525 18.6664C38.7799 19.322 36.6374 20.3565 34.1211 21.9336L24.8047 27.793C23.7891 28.418 22.8906 28.75 21.3477 28.9453L11.2109 30.1758C6.30859 30.7617 3.45703 33.6133 3.45703 37.4609L3.45703 40.625C3.45703 43.8086 4.80469 45.2734 7.67578 45.2734L9.5436 45.2734C9.66527 40.5511 13.3867 36.9141 18.1445 36.9141C22.9024 36.9141 26.6426 40.5511 26.7649 45.2734L62.0046 45.2734C62.1269 40.5511 65.8671 36.9141 70.625 36.9141C75.3637 36.9141 79.1036 40.5511 79.2259 45.2734L81.0742 45.2734C83.9648 45.2734 85.3125 43.8086 85.3125 40.625L85.3125 33.6523C85.3125 30.8398 83.9648 29.3164 80.918 28.3203L78.1055 27.4219C76.7773 26.9922 76.1914 26.7578 75.0977 25.8008C68.5352 20.0586 63.2617 17.6172 56.4453 17.6172L52.8125 17.6172C52.3201 17.6172 51.8432 17.6195 51.3895 17.6258L51.4723 14.1498C51.8993 14.1428 52.3499 14.1406 52.8125 14.1406L56.4453 14.1406C65.8594 14.1406 72.5 18.8672 77.9102 23.4766ZM12.793 45.5273C12.793 48.5352 15.1562 50.8984 18.1445 50.8984C21.1523 50.8984 23.5156 48.5352 23.5156 45.5273C23.5156 42.5391 21.1523 40.1758 18.1445 40.1758C15.1562 40.1758 12.793 42.5391 12.793 45.5273ZM65.2539 45.5273C65.2539 48.5352 67.6172 50.8984 70.625 50.8984C73.6133 50.8984 75.9766 48.5352 75.9766 45.5273C75.9766 42.5391 73.6133 40.1758 70.625 40.1758C67.6172 40.1758 65.2539 42.5391 65.2539 45.5273Z" fill="black" fill-opacity="0.85"/>
  <path d="M46.3086 36.0938C47.9297 36.0938 49.2773 34.7656 49.2773 33.2031C49.2773 31.6211 47.9492 30.332 46.3086 30.332C44.668 30.332 43.3398 31.6211 43.3398 33.2031C43.3398 34.7656 44.6875 36.0938 46.3086 36.0938ZM46.3086 25.1953C47.3633 25.1953 48.1055 24.4531 48.1445 23.3789L48.5742 5.37109C48.6133 4.02344 47.7148 3.125 46.3086 3.125C44.9023 3.125 44.0039 4.02344 44.043 5.37109L44.4727 23.3789C44.5117 24.4531 45.2539 25.1953 46.3086 25.1953Z" fill="black" fill-opacity="0.85"/>
 </g>
</svg>
