<?xml version="1.0" encoding="UTF-8"?>
<!--Generator: Apple Native CoreSVG 326-->
<!DOCTYPE svg
PUBLIC "-//W3C//DTD SVG 1.1//EN"
       "http://www.w3.org/Graphics/SVG/1.1/DTD/svg11.dtd">
<svg version="1.1" xmlns="http://www.w3.org/2000/svg" xmlns:xlink="http://www.w3.org/1999/xlink" viewBox="0 0 89.1406 60.7764">
 <g>
  <rect height="60.7764" opacity="0" width="89.1406" x="0" y="0"/>
  <path d="M26.8555 42.6441C26.8555 46.8628 23.5547 50.1831 19.3359 50.1831C15.0977 50.1831 11.7969 46.8628 11.7969 42.6441C11.7969 38.4253 15.0977 35.1245 19.3359 35.1245C23.5547 35.1245 26.8555 38.4253 26.8555 42.6441ZM76.9727 42.6441C76.9727 46.8628 73.6719 50.1831 69.4336 50.1831C65.2148 50.1831 61.8945 46.8628 61.8945 42.6441C61.8945 38.4253 65.2148 35.1245 69.4336 35.1245C73.6719 35.1245 76.9727 38.4253 76.9727 42.6441ZM77.9102 19.6948L81.9336 21.0425C86.6211 22.5855 88.7695 25.3394 88.7695 29.8706L88.7695 36.8433C88.7695 42.4097 86.3477 44.9683 81.0742 44.9683L79.4336 44.9683C79.6094 44.2066 79.707 43.4448 79.707 42.6441C79.707 36.9214 75.1758 32.4097 69.4336 32.4097C63.6914 32.4097 59.1797 36.9214 59.1797 42.6441C59.1797 43.4448 59.2773 44.2066 59.4336 44.9683L29.3164 44.9683C29.4922 44.2066 29.5898 43.4448 29.5898 42.6441C29.5898 36.9214 25.0781 32.4097 19.3359 32.4097C13.5742 32.4097 9.0625 36.9214 9.0625 42.6441C9.0625 43.4448 9.16016 44.2066 9.31641 44.9683L7.67578 44.9683C2.46094 44.9683 0 42.4487 0 36.9605L0 33.6792C0 27.937 4.0625 23.8159 10.7617 22.9761L22.0508 21.5894L32.2656 15.2027C38.3203 11.3941 42.7344 10.3589 52.8125 10.3589L56.4453 10.3589C65.8594 10.3589 72.5 15.2027 77.9102 19.6948ZM43.125 27.0972L37.6562 36.0816C37.0117 37.1362 37.5195 38.1519 38.7695 38.1519L50 38.1519C51.2305 38.1519 51.7773 37.1362 51.1328 36.0816L45.625 27.0972C45 26.0816 43.75 26.062 43.125 27.0972Z" fill="black" fill-opacity="0.85"/>
  <path d="M51.1328 51.023L45.625 60.0073C45 61.023 43.75 61.0425 43.125 60.0073L37.6562 51.023C37.0117 49.9683 37.5195 48.9527 38.7695 48.9527L50 48.9527C51.2305 48.9527 51.7773 49.9683 51.1328 51.023Z" fill="black" fill-opacity="0.85"/>
 </g>
</svg>
