<?xml version="1.0" encoding="UTF-8"?>
<!--Generator: Apple Native CoreSVG 326-->
<!DOCTYPE svg
PUBLIC "-//W3C//DTD SVG 1.1//EN"
       "http://www.w3.org/Graphics/SVG/1.1/DTD/svg11.dtd">
<svg version="1.1" xmlns="http://www.w3.org/2000/svg" xmlns:xlink="http://www.w3.org/1999/xlink" viewBox="0 0 71.7081 37.2461">
 <g>
  <rect height="37.2461" opacity="0" width="71.7081" x="0" y="0"/>
  <path d="M1.7525 37.2461L4.85797 37.2461C6.16657 37.2461 6.83063 36.6211 7.20172 35.6445L21.108 1.34766C21.4009 0.625 21.0494 0.0390625 20.3267 0.0390625L18.8619 0.0390625C18.1197 0.0390625 17.6509 0.371094 17.3384 1.01562L0.248596 34.8242C-0.337341 35.957 0.0923463 37.2461 1.7525 37.2461ZM66.4791 37.2461L69.5845 37.2461C71.2642 37.2461 71.6939 35.957 71.0884 34.8242L54.0377 1.01562C53.6861 0.371094 53.2173 0.0390625 52.4947 0.0390625L51.0298 0.0390625C50.2877 0.0390625 49.9361 0.625 50.2486 1.34766L64.1353 35.6445C64.5064 36.6211 65.1705 37.2461 66.4791 37.2461Z" fill="black" fill-opacity="0.85"/>
  <path d="M19.8775 29.1016C19.8775 30.0781 20.6392 30.8398 21.6158 30.8398L23.1783 30.8398C24.1548 30.8398 24.9166 30.0781 24.9166 29.1016L24.9166 27.2656L46.147 27.2656L46.147 29.1016C46.147 30.0781 46.9088 30.8398 47.9048 30.8398L49.4478 30.8398C50.4439 30.8398 51.1861 30.0781 51.1861 29.1016L51.1861 20.4297C51.1861 18.1445 50.815 16.8359 49.5259 15.3711L48.2173 13.8867L46.772 9.80469C46.0103 7.61719 44.5845 6.69922 42.7486 6.48438C41.8502 6.38672 38.8814 6.30859 35.5416 6.30859C32.1822 6.30859 29.2134 6.38672 28.315 6.48438C26.4791 6.69922 25.0533 7.61719 24.2916 9.80469L22.8463 13.8867L21.5377 15.3711C20.2486 16.8359 19.8775 18.1445 19.8775 20.4297ZM26.3228 13.7695C25.7173 13.7695 25.5025 13.3203 25.6978 12.7344L26.5181 10.2734C26.8697 9.23828 27.4166 8.88672 28.3345 8.75C29.2916 8.63281 31.733 8.53516 35.5416 8.53516C39.3306 8.53516 41.772 8.63281 42.7291 8.75C43.647 8.88672 44.1744 9.23828 44.5259 10.2734L45.3658 12.7344C45.5611 13.3203 45.3267 13.7695 44.7213 13.7695ZM24.565 22.168C23.7642 22.168 23.1978 21.6016 23.1978 20.8203L23.1978 18.7109C23.1978 17.9297 23.7642 17.3633 24.565 17.3633C25.3267 17.3633 25.8931 17.9297 25.8931 18.7109L25.8931 20.8203C25.8931 21.6016 25.3267 22.168 24.565 22.168ZM32.4556 21.5625C31.8306 21.5625 31.44 21.1523 31.44 20.4883L31.44 19.0234C31.44 18.3789 31.8306 17.9883 32.4556 17.9883L38.5298 17.9883C39.1548 17.9883 39.565 18.3789 39.565 19.0234L39.565 20.4883C39.565 21.1523 39.1548 21.5625 38.5298 21.5625ZM46.6158 22.168C45.8541 22.168 45.2681 21.582 45.2681 20.8203L45.2681 18.7109C45.2681 17.9297 45.8541 17.3633 46.6158 17.3633C47.397 17.3633 47.9634 17.9297 47.9634 18.7109L47.9634 20.8203C47.9634 21.6016 47.397 22.168 46.6158 22.168Z" fill="black" fill-opacity="0.85"/>
 </g>
</svg>
