<?xml version="1.0" encoding="UTF-8"?>
<!--Generator: Apple Native CoreSVG 326-->
<!DOCTYPE svg
PUBLIC "-//W3C//DTD SVG 1.1//EN"
       "http://www.w3.org/Graphics/SVG/1.1/DTD/svg11.dtd">
<svg version="1.1" xmlns="http://www.w3.org/2000/svg" xmlns:xlink="http://www.w3.org/1999/xlink" viewBox="0 0 89.1406 45.0195">
 <g>
  <rect height="45.0195" opacity="0" width="89.1406" x="0" y="0"/>
  <path d="M77.9102 11.8164L81.9336 13.1641C86.6211 14.707 88.7695 17.4609 88.7695 21.9922L88.7695 28.9648C88.7695 34.5312 86.3477 37.0898 81.0742 37.0898L78.6317 37.0898C77.3866 40.2924 74.3074 42.5 70.625 42.5C66.9277 42.5 63.845 40.2924 62.599 37.0898L26.1705 37.0898C24.9246 40.2924 21.8418 42.5 18.1445 42.5C14.4473 42.5 11.3759 40.2924 10.1353 37.0898L7.67578 37.0898C2.46094 37.0898 0 34.5703 0 29.082L0 25.8008C0 20.0586 4.0625 15.9375 10.7617 15.0977L19.3461 14.0432L21.7654 17.2258C21.6326 17.2472 21.493 17.2668 21.3477 17.2852L11.2109 18.5156C6.30859 19.1016 3.45703 21.9531 3.45703 25.8008L3.45703 28.9648C3.45703 32.1484 4.80469 33.6133 7.67578 33.6133L9.5436 33.6133C9.66527 28.8909 13.3867 25.2539 18.1445 25.2539C22.9024 25.2539 26.6426 28.8909 26.7649 33.6133L62.0046 33.6133C62.1269 28.8909 65.8671 25.2539 70.625 25.2539C75.3637 25.2539 79.1036 28.8909 79.2259 33.6133L81.0742 33.6133C83.9648 33.6133 85.3125 32.1484 85.3125 28.9648L85.3125 21.9922C85.3125 19.1797 83.9648 17.6562 80.918 16.6602L78.1055 15.7617C76.7773 15.332 76.1914 15.0977 75.0977 14.1406C68.5352 8.39844 63.2617 5.95703 56.4453 5.95703L52.8125 5.95703C43.3984 5.95703 39.668 6.79688 34.1211 10.2734L29.7537 13.0202L27.622 10.2276L32.2656 7.32422C38.3203 3.51562 42.7344 2.48047 52.8125 2.48047L56.4453 2.48047C65.8594 2.48047 72.5 7.20703 77.9102 11.8164ZM12.793 33.8672C12.793 36.875 15.1562 39.2383 18.1445 39.2383C21.1523 39.2383 23.5156 36.875 23.5156 33.8672C23.5156 30.8789 21.1523 28.5156 18.1445 28.5156C15.1562 28.5156 12.793 30.8789 12.793 33.8672ZM65.2539 33.8672C65.2539 36.875 67.6172 39.2383 70.625 39.2383C73.6133 39.2383 75.9766 36.875 75.9766 33.8672C75.9766 30.8789 73.6133 28.5156 70.625 28.5156C67.6172 28.5156 65.2539 30.8789 65.2539 33.8672Z" fill="black" fill-opacity="0.85"/>
  <path d="M6.95312 6.19141L13.3203 6.19141C16.0352 6.19141 17.207 6.69922 18.5938 8.53516L25.5078 17.6562C27.5781 20.3906 29.8047 21.5234 33.1641 21.5234L38.4766 21.5234L38.4766 23.9648C38.4766 25.4883 39.8438 25.9375 40.9766 25.1953L47.2656 21.1523C48.3398 20.4688 48.3594 19.1602 47.2656 18.4375L40.9961 14.4141C39.8438 13.6719 38.4766 14.1211 38.4766 15.6641L38.4766 18.0664L33.1641 18.0664C30.8398 18.0664 29.7852 17.5 28.2617 15.5273L21.2891 6.40625C19.2578 3.76953 16.9336 2.73438 13.3203 2.73438L6.95312 2.73438C6.01562 2.73438 5.23438 3.51562 5.23438 4.45312C5.23438 5.41016 6.01562 6.19141 6.95312 6.19141Z" fill="black" fill-opacity="0.85"/>
 </g>
</svg>
