<?xml version="1.0" encoding="UTF-8"?>
<!--Generator: Apple Native CoreSVG 326-->
<!DOCTYPE svg
PUBLIC "-//W3C//DTD SVG 1.1//EN"
       "http://www.w3.org/Graphics/SVG/1.1/DTD/svg11.dtd">
<svg version="1.1" xmlns="http://www.w3.org/2000/svg" xmlns:xlink="http://www.w3.org/1999/xlink" viewBox="0 0 56.2092 60.0557">
 <g>
  <rect height="60.0557" opacity="0" width="56.2092" x="0" y="0"/>
  <path d="M0.389771 45.8775C2.49915 53.8658 4.90149 56.3072 9.90149 56.3072L39.1007 56.3072C42.6945 56.3072 45.1554 54.2954 46.0343 50.6431L55.507 12.2056C56.8156 6.91264 54.257 3.70951 49.8038 3.70951C44.3937 3.70951 39.8429 8.78764 41.8937 16.3462L42.3234 14.2564C36.3273 18.2603 33.0656 27.4986 33.9249 38.2798L34.921 37.0103C29.4523 36.0337 23.046 35.5064 16.6788 35.5064C3.69055 35.5064-1.54382 38.6314 0.389771 45.8775ZM3.71008 44.9595C2.57727 40.6822 5.7804 38.9634 16.6788 38.9634C25.1163 38.9634 31.5812 40.0572 34.8429 40.3892C36.2296 40.4673 37.1085 39.5884 37.089 38.1822C36.757 28.6119 39.4523 20.4673 44.1984 17.147C45.0577 16.4829 45.1945 16.0337 44.9796 14.5689C44.3156 9.72514 46.9327 7.16654 49.7843 7.16654C51.6984 7.16654 52.8312 8.68998 52.1866 11.3462L42.6749 49.8033C42.2062 51.7564 40.9366 52.8306 39.1007 52.8306L9.90149 52.8306C6.93274 52.8306 5.50696 51.7564 3.71008 44.9595Z" fill="black" fill-opacity="0.85"/>
  <path d="M36.1515 8.67045C35.7804 5.95561 37.0109 3.39701 39.3546 2.32279C39.9991 1.99076 40.1554 1.34623 39.9406 0.760293C39.6866 0.135293 38.9835-0.255332 38.1046 0.193887C35.0773 1.69779 33.2413 5.48686 33.8077 9.21732C33.9249 9.97904 34.6671 10.3501 35.4093 10.1158C36.0148 9.90092 36.2687 9.35404 36.1515 8.67045ZM29.0616 27.7329C28.0656 23.9829 29.296 18.8072 33.8273 16.4048C34.6085 15.9751 34.6866 15.2329 34.4132 14.6861C34.1398 14.1783 33.4757 13.8658 32.6359 14.2564C27.421 16.7369 25.4288 23.6704 26.7374 28.4361C26.9327 29.1978 27.6945 29.4712 28.2999 29.315C28.8663 29.1587 29.3156 28.6119 29.0616 27.7329Z" fill="black" fill-opacity="0.85"/>
 </g>
</svg>
