<?xml version="1.0" encoding="UTF-8"?>
<!--Generator: Apple Native CoreSVG 326-->
<!DOCTYPE svg
PUBLIC "-//W3C//DTD SVG 1.1//EN"
       "http://www.w3.org/Graphics/SVG/1.1/DTD/svg11.dtd">
<svg version="1.1" xmlns="http://www.w3.org/2000/svg" xmlns:xlink="http://www.w3.org/1999/xlink" viewBox="0 0 56.2068 52.6367">
 <g>
  <rect height="52.6367" opacity="0" width="56.2068" x="0" y="0"/>
  <path d="M55.4471 42.168C57.3807 34.9219 52.1464 31.7969 39.1776 31.7969C32.7909 31.7969 26.3846 32.3242 20.9159 33.3008L21.9315 34.5703C22.7909 23.7891 19.5096 14.5508 13.5331 10.5469L13.9432 12.6367C15.994 5.07812 11.4628 0 6.03308 0C1.59949 0-0.978636 3.20312 0.349489 8.49609L9.80261 46.9336C10.7011 50.5859 13.1425 52.5977 16.7362 52.5977L45.9354 52.5977C50.9354 52.5977 53.3378 50.1562 55.4471 42.168ZM52.1464 41.25C50.33 48.0469 48.9042 49.1211 45.9354 49.1211L16.7362 49.1211C14.9003 49.1211 13.6503 48.0469 13.162 46.0938L3.6698 7.63672C3.00574 4.98047 4.15808 3.45703 6.05261 3.45703C8.90418 3.45703 11.5409 6.01562 10.8768 10.8594C10.6425 12.3242 10.7792 12.7734 11.6386 13.4375C16.4042 16.7578 19.08 24.9023 18.7675 34.4727C18.7479 35.8789 19.6073 36.7578 20.994 36.6797C24.2753 36.3477 30.7401 35.2539 39.1776 35.2539C50.0761 35.2539 53.2792 36.9727 52.1464 41.25Z" fill="black" fill-opacity="0.85"/>
 </g>
</svg>
