<?xml version="1.0" encoding="UTF-8"?>
<!--Generator: Apple Native CoreSVG 326-->
<!DOCTYPE svg
PUBLIC "-//W3C//DTD SVG 1.1//EN"
       "http://www.w3.org/Graphics/SVG/1.1/DTD/svg11.dtd">
<svg version="1.1" xmlns="http://www.w3.org/2000/svg" xmlns:xlink="http://www.w3.org/1999/xlink" viewBox="0 0 55.8466 52.5977">
 <g>
  <rect height="52.5977" opacity="0" width="55.8466" x="0" y="0"/>
  <path d="M31.8589 28.4766C31.8589 31.7188 28.8901 33.5352 28.8901 35.8789C28.8901 37.207 29.2221 37.9297 30.062 39.043C31.1167 40.4492 29.1245 41.875 28.0698 40.5273C26.9175 39.0625 26.4096 37.7344 26.4096 36.0156C26.4096 32.7344 29.3393 30.8398 29.3393 28.4766C29.3393 26.0742 26.4096 24.2188 26.4096 20.8789C26.4096 19.2188 26.9175 17.8906 28.0893 16.3867C29.1831 15.0195 31.1557 16.4453 30.101 17.8516C29.2221 19.0234 28.8901 19.7656 28.8901 21.0352C28.8901 23.418 31.8589 25.293 31.8589 28.4766ZM39.7885 28.4766C39.7885 31.7188 36.8198 33.5352 36.8198 35.8789C36.8198 37.207 37.1714 37.9297 37.9917 39.043C39.0464 40.4492 37.0542 41.875 35.9995 40.5273C34.8471 39.0625 34.3393 37.7344 34.3393 36.0156C34.3393 32.7344 37.269 30.8398 37.269 28.4766C37.269 26.0742 34.3393 24.2188 34.3393 20.8789C34.3393 19.2188 34.8471 17.8906 36.019 16.3867C37.1128 15.0195 39.0854 16.4453 38.0307 17.8516C37.1714 19.0234 36.8198 19.7656 36.8198 21.0352C36.8198 23.418 39.7885 25.293 39.7885 28.4766ZM47.7182 28.4766C47.7182 31.7188 44.7495 33.5352 44.7495 35.8789C44.7495 37.207 45.101 37.9297 45.9214 39.043C46.976 40.4492 45.0034 41.875 43.9292 40.5273C42.7768 39.0625 42.269 37.7344 42.269 36.0156C42.269 32.7344 45.1987 30.8398 45.1987 28.4766C45.1987 26.0742 42.269 24.2188 42.269 20.8789C42.269 19.2188 42.7768 17.8906 43.9682 16.3867C45.0425 15.0195 47.0151 16.4453 45.9604 17.8516C45.101 19.0234 44.7495 19.7656 44.7495 21.0352C44.7495 23.418 47.7182 25.293 47.7182 28.4766ZM55.0815 42.1484C57.0346 34.9023 51.7807 31.7773 38.812 31.7773C32.269 31.7773 25.5893 32.4023 20.355 33.4961L21.1557 34.5703C22.4839 23.3789 18.9487 13.8867 11.5854 10.0391L12.2104 12.6562C14.7885 4.6875 9.8862 0 5.33542 0C1.89792 0-1.07083 2.63672 0.374482 8.47656L9.82761 46.9141C10.726 50.5664 13.187 52.5781 16.7807 52.5781L45.5698 52.5781C50.5698 52.5781 52.9721 50.1367 55.0815 42.1484Z" fill="black" fill-opacity="0.85"/>
 </g>
</svg>
