<?xml version="1.0" encoding="UTF-8"?>
<!--Generator: Apple Native CoreSVG 326-->
<!DOCTYPE svg
PUBLIC "-//W3C//DTD SVG 1.1//EN"
       "http://www.w3.org/Graphics/SVG/1.1/DTD/svg11.dtd">
<svg version="1.1" xmlns="http://www.w3.org/2000/svg" xmlns:xlink="http://www.w3.org/1999/xlink" viewBox="0 0 55.5273 53.1055">
 <g>
  <rect height="53.1055" opacity="0" width="55.5273" x="0" y="0"/>
  <path d="M30.5273 0.839844L52.1094 13.3008C52.8906 13.75 53.2422 14.3164 53.2422 14.9609C53.2422 15.8398 52.5781 16.6797 51.3867 16.6797L49.1211 16.6797L49.1211 46.5039L50.7227 46.5039C51.582 46.5039 52.0898 47.0117 52.0898 47.8516L52.0898 49.6094L53.418 49.6094C54.375 49.6094 55.1562 50.3906 55.1562 51.3477C55.1562 52.2852 54.375 53.0664 53.418 53.0664L1.73828 53.0664C0.78125 53.0664 0 52.2852 0 51.3477C0 50.3906 0.78125 49.6094 1.73828 49.6094L3.06641 49.6094L3.06641 47.8516C3.06641 47.0117 3.57422 46.5039 4.45312 46.5039L6.05469 46.5039L6.05469 16.6797L3.76953 16.6797C2.57812 16.6797 1.91406 15.8398 1.91406 14.9609C1.91406 14.3164 2.24609 13.75 3.04688 13.3008L24.6289 0.839844C25.5664 0.292969 26.6016 0 27.5781 0C28.5547 0 29.5703 0.292969 30.5273 0.839844ZM26.6992 17.4414L26.6992 19.668C22.0508 20.0586 19.3945 23.6719 19.3945 28.5352C19.3945 33.6914 22.207 37.0312 26.6992 37.4219L26.6992 39.6484C26.6992 40.0977 27.0508 40.4492 27.5195 40.4492C27.9492 40.4492 28.3203 40.0977 28.3203 39.6484L28.3203 37.4219C30.2344 37.2852 32.0898 36.5625 33.3594 35.332C34.1211 34.5508 34.8047 33.3398 34.8047 32.4609C34.8047 31.7188 34.2383 31.3086 33.6133 31.3086C32.9492 31.3086 32.6562 31.7188 32.4219 32.1875C31.5625 33.9648 30.2344 35 28.3203 35.1758L28.3203 21.8945C30.1953 22.0898 31.6406 23.0859 32.4023 24.9219C32.6172 25.4688 33.0469 25.8008 33.5938 25.8008C34.2969 25.8008 34.7852 25.3516 34.7852 24.6094C34.7852 23.6719 34.082 22.5391 33.3008 21.7578C32.0508 20.5273 30.293 19.8047 28.3203 19.6484L28.3203 17.4414C28.3203 16.9922 27.9492 16.6406 27.5195 16.6406C27.0508 16.6406 26.6992 16.9922 26.6992 17.4414ZM26.6992 35.1562C23.5742 34.707 22.0508 32.0312 22.0508 28.5352C22.0508 25.0195 23.6328 22.3633 26.6992 21.9336Z" fill="black" fill-opacity="0.85"/>
 </g>
</svg>
