<?xml version="1.0" encoding="UTF-8"?>
<!--Generator: Apple Native CoreSVG 326-->
<!DOCTYPE svg
PUBLIC "-//W3C//DTD SVG 1.1//EN"
       "http://www.w3.org/Graphics/SVG/1.1/DTD/svg11.dtd">
<svg version="1.1" xmlns="http://www.w3.org/2000/svg" xmlns:xlink="http://www.w3.org/1999/xlink" viewBox="0 0 56.2305 55.8789">
 <g>
  <rect height="55.8789" opacity="0" width="56.2305" x="0" y="0"/>
  <path d="M27.9297 55.8594C43.2812 55.8594 55.8594 43.3008 55.8594 27.9297C55.8594 12.5586 43.2812 0 27.9297 0C12.5781 0 0 12.5586 0 27.9297C0 43.3008 12.5781 55.8594 27.9297 55.8594ZM27.9297 46.6797C17.5586 46.6797 9.16016 38.3008 9.16016 27.9297C9.16016 17.5586 17.5586 9.16016 27.9297 9.16016C38.3008 9.16016 46.6992 17.5586 46.6992 27.9297C46.6992 38.3008 38.3008 46.6797 27.9297 46.6797Z" fill="black" fill-opacity="0.85"/>
  <path d="M27.9492 36.5039C30.0586 36.5039 32.168 35.7617 33.5352 34.4336C34.2773 33.6719 34.9609 32.4805 34.9609 31.6406C34.9609 30.8984 34.3945 30.5078 33.7891 30.5078C33.1445 30.5078 32.8711 30.918 32.6367 31.3672C31.6992 33.3008 30.2148 34.3359 27.9688 34.3359C24.2969 34.3359 22.5 31.543 22.5 27.8125C22.5 24.0625 24.3359 21.2891 27.9297 21.2891C30.1172 21.2891 31.7773 22.2656 32.6172 24.2578C32.8516 24.8047 33.2422 25.1172 33.7695 25.1172C34.4531 25.1172 34.9219 24.6875 34.9219 23.9844C34.9219 23.0469 34.2383 21.9727 33.4766 21.1914C32.1289 19.8633 30.1172 19.1211 27.9102 19.1211C22.832 19.1211 19.9219 22.7734 19.9219 27.8125C19.9219 33.1641 23.0664 36.5039 27.9492 36.5039ZM27.832 39.4141C28.2617 39.4141 28.6133 39.082 28.6133 38.6328L28.6133 16.9727C28.6133 16.543 28.2617 16.1914 27.832 16.1914C27.4023 16.1914 27.0508 16.543 27.0508 16.9727L27.0508 38.6328C27.0508 39.082 27.4023 39.4141 27.832 39.4141Z" fill="black" fill-opacity="0.85"/>
 </g>
</svg>
