<?xml version="1.0" encoding="UTF-8"?>
<!--Generator: Apple Native CoreSVG 326-->
<!DOCTYPE svg
PUBLIC "-//W3C//DTD SVG 1.1//EN"
       "http://www.w3.org/Graphics/SVG/1.1/DTD/svg11.dtd">
<svg version="1.1" xmlns="http://www.w3.org/2000/svg" xmlns:xlink="http://www.w3.org/1999/xlink" viewBox="0 0 54.2969 46.8164">
 <g>
  <rect height="46.8164" opacity="0" width="54.2969" x="0" y="0"/>
  <path d="M1.81641 46.8164L52.1875 46.8164C53.125 46.8164 53.9258 46.0742 53.9258 45.0977C53.9258 44.1211 53.125 43.3789 52.1875 43.3789L4.10156 43.3789C3.61328 43.3789 3.45703 43.2227 3.45703 42.7344L3.45703 1.97266C3.45703 1.05469 2.71484 0.234375 1.73828 0.234375C0.761719 0.234375 0 1.05469 0 1.97266L0 45C0 46.0938 0.722656 46.8164 1.81641 46.8164Z" fill="black" fill-opacity="0.85"/>
  <path d="M46.0547 14.4141C48.125 14.4141 49.8438 12.6562 49.8438 10.625C49.8438 8.61328 48.125 6.81641 46.0547 6.81641C43.9648 6.81641 42.2266 8.61328 42.2266 10.625C42.2266 12.6562 43.9648 14.4141 46.0547 14.4141Z" fill="black" fill-opacity="0.85"/>
  <path d="M36.4062 30.4883C38.4766 30.4883 40.1953 28.7305 40.1953 26.6992C40.1953 24.6875 38.4766 22.9102 36.4062 22.9102C34.3164 22.9102 32.5781 24.6875 32.5781 26.6992C32.5781 28.7305 34.3164 30.4883 36.4062 30.4883Z" fill="black" fill-opacity="0.85"/>
  <path d="M24.8633 18.2617C26.9336 18.2617 28.6719 16.5039 28.6719 14.4727C28.6719 12.4805 26.9336 10.6836 24.8633 10.6836C22.7734 10.6836 21.0352 12.4805 21.0352 14.4727C21.0352 16.5039 22.7734 18.2617 24.8633 18.2617Z" fill="black" fill-opacity="0.85"/>
  <path d="M15.2148 34.375C17.2852 34.375 19.0234 32.6172 19.0234 30.5859C19.0234 28.5742 17.2852 26.7773 15.2148 26.7773C13.125 26.7773 11.3867 28.5742 11.3867 30.5859C11.3867 32.6172 13.125 34.375 15.2148 34.375Z" fill="black" fill-opacity="0.85"/>
 </g>
</svg>
