<?xml version="1.0" encoding="UTF-8"?>
<!--Generator: Apple Native CoreSVG 326-->
<!DOCTYPE svg
PUBLIC "-//W3C//DTD SVG 1.1//EN"
       "http://www.w3.org/Graphics/SVG/1.1/DTD/svg11.dtd">
<svg version="1.1" xmlns="http://www.w3.org/2000/svg" xmlns:xlink="http://www.w3.org/1999/xlink" viewBox="0 0 51.25 50.918">
 <g>
  <rect height="50.918" opacity="0" width="51.25" x="0" y="0"/>
  <path d="M50.8789 25.4688C50.8789 39.4922 39.4531 50.918 25.4297 50.918C11.4258 50.918 0 39.4922 0 25.4688C0 11.4648 11.4258 0.0390625 25.4297 0.0390625C39.4531 0.0390625 50.8789 11.4648 50.8789 25.4688ZM11.7188 14.3359L11.7188 35.4297C11.7188 36.5625 12.4609 37.3047 13.5742 37.3047L38.3789 37.3047C39.0625 37.3047 39.6484 36.7383 39.6484 36.0352C39.6484 35.3516 39.0625 34.7656 38.3789 34.7656L14.5117 34.7656C14.3359 34.7656 14.2578 34.707 14.2578 34.4922L14.2578 21.2695L17.6953 24.707C18.2617 25.2734 18.8477 25.5664 19.5703 25.5664C20.2734 25.5664 20.8789 25.293 21.4453 24.707L26.2109 19.8828C26.3867 19.707 26.582 19.7266 26.7188 19.8828L31.6797 24.9219L29.7266 26.875C29.1406 27.4219 29.4727 28.3008 30.3125 28.5156L37.6367 30.2539C38.418 30.4492 39.082 29.8047 38.8867 29.043L37.1289 21.6992C36.9141 20.8203 36.0352 20.5273 35.4688 21.1133L33.4961 23.1055L28.3594 17.8711C27.8125 17.3047 27.168 16.9922 26.4648 16.9922C25.7617 16.9922 25.1562 17.2852 24.5508 17.8711L19.8242 22.6758C19.6484 22.8516 19.5117 22.8516 19.3164 22.6758L14.2578 17.6172L14.2578 14.3359C14.2578 13.6328 13.6719 13.0469 12.9883 13.0469C12.3047 13.0469 11.7188 13.6328 11.7188 14.3359Z" fill="black" fill-opacity="0.85"/>
 </g>
</svg>
