<?xml version="1.0" encoding="UTF-8"?>
<!--Generator: Apple Native CoreSVG 326-->
<!DOCTYPE svg
PUBLIC "-//W3C//DTD SVG 1.1//EN"
       "http://www.w3.org/Graphics/SVG/1.1/DTD/svg11.dtd">
<svg version="1.1" xmlns="http://www.w3.org/2000/svg" xmlns:xlink="http://www.w3.org/1999/xlink" viewBox="0 0 62.7734 46.6992">
 <g>
  <rect height="46.6992" opacity="0" width="62.7734" x="0" y="0"/>
  <path d="M49.1602 42.9492C56.6016 42.9492 62.4023 37.5781 62.4023 30.8203C62.4023 25.6445 59.4727 21.1133 54.5117 19.1602C54.6484 8.06641 46.7188 0 36.6016 0C29.7461 0 24.9609 3.71094 22.0703 8.18359C15.9766 6.21094 9.25781 10.8984 9.17969 17.8906C3.57422 18.6719 0 23.5742 0 29.6484C0 36.9336 6.32812 42.9297 14.7461 42.9297ZM49.1406 39.4922L14.7266 39.4727C8.26172 39.4727 3.45703 35 3.45703 29.6484C3.45703 24.5703 6.52344 20.5859 11.875 20.5859C12.1875 20.5859 12.3242 20.4102 12.3242 20.0977C12.3242 12.5586 17.9297 9.92188 23.1641 11.7578C23.457 11.8555 23.6328 11.7969 23.7891 11.5234C26.25 7.14844 30.0391 3.45703 36.6016 3.45703C44.8438 3.45703 50.6836 10 51.1523 17.7148C51.2305 18.7891 51.1523 20.0586 51.0742 21.1914C51.0547 21.4844 51.1719 21.6797 51.4453 21.7383C56.0156 22.8125 58.9453 26.25 58.9453 30.8203C58.9453 35.6836 54.668 39.4922 49.1406 39.4922Z" fill="black" fill-opacity="0.85"/>
  <path d="M29.1797 33.4961C29.9023 33.4961 30.5078 33.1836 30.918 32.5L41.25 15.6641C41.4648 15.3125 41.7188 14.8242 41.7188 14.3164C41.7188 13.3594 40.8984 12.6367 39.9023 12.6367C39.2773 12.6367 38.6914 12.9883 38.3398 13.6133L29.082 29.0039L24.4531 23.0469C24.043 22.5 23.5156 22.207 22.8516 22.207C21.8945 22.207 21.0742 22.9492 21.0742 23.9844C21.0742 24.4531 21.25 24.9023 21.582 25.3516L27.3633 32.5391C27.9102 33.2227 28.4766 33.4961 29.1797 33.4961Z" fill="black" fill-opacity="0.85"/>
 </g>
</svg>
