<?xml version="1.0" encoding="UTF-8"?>
<!--Generator: Apple Native CoreSVG 326-->
<!DOCTYPE svg
PUBLIC "-//W3C//DTD SVG 1.1//EN"
       "http://www.w3.org/Graphics/SVG/1.1/DTD/svg11.dtd">
<svg version="1.1" xmlns="http://www.w3.org/2000/svg" xmlns:xlink="http://www.w3.org/1999/xlink" viewBox="0 0 44.7461 42.9102">
 <g>
  <rect height="42.9102" opacity="0" width="44.7461" x="0" y="0"/>
  <path d="M22.2656 42.6562C22.8125 42.6562 23.2812 42.4414 23.6523 42.0703L43.7109 22.8125C44.1406 22.4023 44.375 21.9141 44.375 21.3477C44.375 20.7812 44.1211 20.2344 43.7109 19.8438L23.6523 0.585938C23.2617 0.214844 22.8125 0 22.2656 0C21.1523 0 20.3125 0.839844 20.3125 1.95312C20.3125 2.46094 20.5273 2.96875 20.8789 3.33984L40.8398 22.5195L40.8398 20.1367L20.8789 39.3359C20.5273 39.6875 20.3125 40.1758 20.3125 40.7227C20.3125 41.8164 21.1523 42.6562 22.2656 42.6562Z" fill="black" fill-opacity="0.85"/>
  <path d="M2.08984 5.72266C3.26172 5.72266 4.19922 4.78516 4.19922 3.63281C4.19922 2.46094 3.26172 1.52344 2.08984 1.52344C0.9375 1.52344 0 2.46094 0 3.63281C0 4.78516 0.9375 5.72266 2.08984 5.72266ZM6.52344 10.1758C7.67578 10.1758 8.61328 9.23828 8.61328 8.08594C8.61328 6.91406 7.67578 5.99609 6.52344 5.99609C5.35156 5.99609 4.43359 6.91406 4.43359 8.08594C4.43359 9.23828 5.35156 10.1758 6.52344 10.1758ZM10.957 14.6484C12.1094 14.6484 13.0469 13.7109 13.0469 12.5391C13.0469 11.3867 12.1094 10.4492 10.957 10.4492C9.78516 10.4492 8.84766 11.3867 8.84766 12.5391C8.84766 13.7109 9.78516 14.6484 10.957 14.6484ZM15.3711 19.1016C16.543 19.1016 17.4805 18.1641 17.4805 16.9922C17.4805 15.8398 16.543 14.9023 15.3711 14.9023C14.2188 14.9023 13.2812 15.8398 13.2812 16.9922C13.2812 18.1641 14.2188 19.1016 15.3711 19.1016ZM19.8047 23.5547C20.957 23.5547 21.8945 22.6172 21.8945 21.4648C21.8945 20.293 20.957 19.3555 19.8047 19.3555C18.6328 19.3555 17.6953 20.293 17.6953 21.4648C17.6953 22.6172 18.6328 23.5547 19.8047 23.5547ZM15.3711 28.0078C16.543 28.0078 17.4805 27.0703 17.4805 25.918C17.4805 24.7461 16.543 23.8281 15.3711 23.8281C14.2188 23.8281 13.2812 24.7461 13.2812 25.918C13.2812 27.0703 14.2188 28.0078 15.3711 28.0078ZM10.957 32.4805C12.1094 32.4805 13.0469 31.543 13.0469 30.3711C13.0469 29.2188 12.1094 28.2812 10.957 28.2812C9.78516 28.2812 8.84766 29.2188 8.84766 30.3711C8.84766 31.543 9.78516 32.4805 10.957 32.4805ZM6.52344 36.9336C7.67578 36.9336 8.61328 35.9961 8.61328 34.8242C8.61328 33.6719 7.67578 32.7344 6.52344 32.7344C5.35156 32.7344 4.43359 33.6719 4.43359 34.8242C4.43359 35.9961 5.35156 36.9336 6.52344 36.9336ZM2.08984 41.3867C3.26172 41.3867 4.19922 40.4492 4.19922 39.2969C4.19922 38.125 3.26172 37.1875 2.08984 37.1875C0.9375 37.1875 0 38.125 0 39.2969C0 40.4492 0.9375 41.3867 2.08984 41.3867Z" fill="black" fill-opacity="0.85"/>
 </g>
</svg>
