<?xml version="1.0" encoding="UTF-8"?>
<!--Generator: Apple Native CoreSVG 326-->
<!DOCTYPE svg
PUBLIC "-//W3C//DTD SVG 1.1//EN"
       "http://www.w3.org/Graphics/SVG/1.1/DTD/svg11.dtd">
<svg version="1.1" xmlns="http://www.w3.org/2000/svg" xmlns:xlink="http://www.w3.org/1999/xlink" viewBox="0 0 31.6992 52.4805">
 <g>
  <rect height="52.4805" opacity="0" width="31.6992" x="0" y="0"/>
  <path d="M31.3281 6.44531L31.3281 45.9961C31.3281 49.9414 28.7305 52.4414 24.6484 52.4414L6.66016 52.4414C2.57812 52.4414 0 49.9414 0 45.9961L0 6.44531C0 2.5 2.57812 0 6.66016 0L24.6484 0C28.7305 0 31.3281 2.5 31.3281 6.44531ZM6.07422 26.2109C6.07422 31.4844 10.3906 35.8008 15.6641 35.8008C20.9375 35.8008 25.2539 31.4844 25.2539 26.2109C25.2539 20.9375 20.9375 16.6211 15.6641 16.6211C10.3906 16.6211 6.07422 20.9375 6.07422 26.2109Z" fill="black" fill-opacity="0.85"/>
 </g>
</svg>
