<?xml version="1.0" encoding="UTF-8"?>
<!--Generator: Apple Native CoreSVG 326-->
<!DOCTYPE svg
PUBLIC "-//W3C//DTD SVG 1.1//EN"
       "http://www.w3.org/Graphics/SVG/1.1/DTD/svg11.dtd">
<svg version="1.1" xmlns="http://www.w3.org/2000/svg" xmlns:xlink="http://www.w3.org/1999/xlink" viewBox="0 0 55.4102 54.9953">
 <g>
  <rect height="54.9953" opacity="0" width="55.4102" x="0" y="0"/>
  <path d="M9.31018 15.5124C7.03861 18.9428 5.72266 23.0598 5.72266 27.4879C5.72266 39.5387 15.4688 49.2848 27.5195 49.2848C31.9443 49.2848 36.0584 47.9708 39.4871 45.7021L42.0923 48.3084C37.974 51.2179 32.945 52.9176 27.5195 52.9176C13.4766 52.9176 2.08984 41.5309 2.08984 27.4879C2.08984 22.0602 3.79084 17.0265 6.70265 12.9038ZM52.9492 27.4879C52.9492 32.9278 51.2405 37.9691 48.3159 42.0929L45.7128 39.4898C47.9939 36.0535 49.3164 31.9271 49.3164 27.4879C49.3164 15.4371 39.5703 5.69101 27.5195 5.69101C23.0803 5.69101 18.9539 7.01356 15.5176 9.29457L12.9071 6.68404C17.0321 3.7524 22.0763 2.03867 27.5195 2.03867C41.5625 2.03867 52.9492 13.4449 52.9492 27.4879Z" fill="black" fill-opacity="0.85"/>
  <path d="M49.3945 51.7652C50.0586 52.4293 51.1328 52.4098 51.7578 51.7457C52.4219 51.0816 52.4023 50.0465 51.7578 49.402L5.58594 3.21054C4.94141 2.56601 3.88672 2.54648 3.20312 3.21054C2.57812 3.83554 2.57812 4.92929 3.20312 5.57383Z" fill="black" fill-opacity="0.85"/>
 </g>
</svg>
