<?xml version="1.0" encoding="UTF-8"?>
<!--Generator: Apple Native CoreSVG 326-->
<!DOCTYPE svg
PUBLIC "-//W3C//DTD SVG 1.1//EN"
       "http://www.w3.org/Graphics/SVG/1.1/DTD/svg11.dtd">
<svg version="1.1" xmlns="http://www.w3.org/2000/svg" xmlns:xlink="http://www.w3.org/1999/xlink" viewBox="0 0 60.961 50.918">
 <g>
  <rect height="50.918" opacity="0" width="60.961" x="0" y="0"/>
  <path d="M30.295 0C17.9707 0 7.54104 9.00391 5.31448 20.7227L1.60354 20.7227C0.00198146 20.7227-0.447237 21.8164 0.470731 23.0859L6.01761 30.9766C6.75979 32.0508 7.83401 32.0312 8.55667 30.9766L14.1035 23.0664C14.9825 21.8164 14.5528 20.7227 12.9707 20.7227L9.02542 20.7227C11.1348 10.9375 19.8262 3.67188 30.295 3.67188C37.7754 3.69141 44.3184 7.42188 48.2246 13.125C48.8692 14.0039 49.8848 14.2773 50.7832 13.75C51.6426 13.2227 51.8965 12.0508 51.1739 11.0938C46.5254 4.41406 38.8887 0 30.295 0ZM30.295 50.8789C42.6192 50.8789 53.0489 41.875 55.2754 30.1562L58.9864 30.1562C60.5879 30.1562 61.0176 29.0625 60.1192 27.793L54.5723 19.9023C53.8301 18.8477 52.7559 18.8672 52.0332 19.9023L46.4864 27.8125C45.5879 29.0625 46.0371 30.1562 47.6192 30.1562L51.584 30.1562C49.4356 39.9414 40.7637 47.2461 30.295 47.2461C22.8145 47.2266 16.2715 43.4766 12.3653 37.7539C11.7207 36.875 10.6856 36.6016 9.80667 37.1484C8.94729 37.6562 8.69339 38.8281 9.41604 39.7852C14.0645 46.4648 21.6817 50.8789 30.295 50.8789Z" fill="black" fill-opacity="0.85"/>
  <path d="M30.295 10.9375C29.2598 10.9375 28.459 11.7383 28.459 12.7734L28.459 26.9727C28.459 27.5781 28.6153 28.0273 29.0254 28.5547L35.1192 36.6016C35.92 37.6367 37.0332 37.7734 37.9317 37.1094C38.752 36.5234 38.8692 35.4297 38.1465 34.4727L30.2364 23.7305L32.1309 29.5703L32.1309 12.7734C32.1309 11.7383 31.3106 10.9375 30.295 10.9375Z" fill="black" fill-opacity="0.85"/>
 </g>
</svg>
