<?xml version="1.0" encoding="UTF-8"?>
<!--Generator: Apple Native CoreSVG 326-->
<!DOCTYPE svg
PUBLIC "-//W3C//DTD SVG 1.1//EN"
       "http://www.w3.org/Graphics/SVG/1.1/DTD/svg11.dtd">
<svg version="1.1" xmlns="http://www.w3.org/2000/svg" xmlns:xlink="http://www.w3.org/1999/xlink" viewBox="0 0 51.25 50.918">
 <g>
  <rect height="50.918" opacity="0" width="51.25" x="0" y="0"/>
  <path d="M50.8789 25.4688C50.8789 39.4922 39.4531 50.918 25.4297 50.918C11.4258 50.918 0 39.4922 0 25.4688C0 11.4648 11.4258 0.0390625 25.4297 0.0390625C39.4531 0.0390625 50.8789 11.4648 50.8789 25.4688ZM14.0625 23.2617C11.4062 24.0039 9.49219 26.2109 9.49219 29.043C9.49219 32.4609 12.0312 34.9219 15.957 34.9219L33.4766 34.9219C37.9102 34.9219 41.3672 31.5625 41.3672 27.2461C41.3672 22.8711 37.793 19.6289 33.0273 19.6875C31.2891 16.1133 28.0664 13.9062 24.0039 13.9062C18.8086 13.9062 14.5117 18.0078 14.0625 23.2617Z" fill="black" fill-opacity="0.85"/>
 </g>
</svg>
