<?xml version="1.0" encoding="UTF-8"?>
<!--Generator: Apple Native CoreSVG 326-->
<!DOCTYPE svg
PUBLIC "-//W3C//DTD SVG 1.1//EN"
       "http://www.w3.org/Graphics/SVG/1.1/DTD/svg11.dtd">
<svg version="1.1" xmlns="http://www.w3.org/2000/svg" xmlns:xlink="http://www.w3.org/1999/xlink" viewBox="0 0 51.25 50.918">
 <g>
  <rect height="50.918" opacity="0" width="51.25" x="0" y="0"/>
  <path d="M25.4297 50.8789C39.4727 50.8789 50.8789 39.4922 50.8789 25.4492C50.8789 11.4062 39.4727 0 25.4297 0C11.3867 0 0 11.4062 0 25.4492C0 39.4922 11.3867 50.8789 25.4297 50.8789ZM25.4297 47.2461C13.3789 47.2461 3.63281 37.5 3.63281 25.4492C3.63281 13.3984 13.3789 3.65234 25.4297 3.65234C37.4805 3.65234 47.2266 13.3984 47.2266 25.4492C47.2266 37.5 37.4805 47.2461 25.4297 47.2461Z" fill="black" fill-opacity="0.85"/>
  <path d="M13.0078 36.1719L26.582 36.1719C30.1758 36.1719 32.9688 33.418 32.9688 29.8828C32.9688 26.4258 30.1758 23.8086 26.4453 23.7109C24.9805 20.9766 22.4414 19.2578 19.2578 19.2578C15.1562 19.2578 11.7188 22.4609 11.2695 26.543C9.21875 27.2266 7.71484 29.0039 7.71484 31.3086C7.71484 34.0625 9.82422 36.1719 13.0078 36.1719ZM24.1211 18.0664C24.5312 18.4961 25.2539 18.457 25.6641 18.0469C26.0547 17.6562 26.0742 16.9336 25.6641 16.543L23.5742 14.4336C23.125 14.0234 22.4414 14.043 22.0312 14.4336C21.6406 14.8242 21.6406 15.5273 22.0312 15.957ZM31.2305 15.7227C31.8555 15.7227 32.3242 15.2344 32.3242 14.668L32.3242 11.6992C32.3242 11.0938 31.8555 10.6055 31.2305 10.6055C30.6445 10.6055 30.1367 11.0938 30.1367 11.6992L30.1367 14.668C30.1367 15.2344 30.6445 15.7227 31.2305 15.7227ZM36.8164 18.0469C37.2266 18.457 37.9492 18.4961 38.3594 18.0664L40.4492 15.957C40.8594 15.5273 40.8398 14.8438 40.4492 14.4336C40.0195 14.043 39.3359 14.0039 38.9062 14.4336L36.8164 16.543C36.4062 16.9336 36.4258 17.6367 36.8164 18.0469ZM40.2148 24.6875L43.125 24.6875C43.75 24.6875 44.2188 24.2188 44.2188 23.6328C44.2188 23.0273 43.75 22.5586 43.125 22.5586L40.2148 22.5586C39.6094 22.5586 39.1211 23.0273 39.1211 23.6328C39.1211 24.2188 39.6094 24.6875 40.2148 24.6875ZM38.9062 32.8516C39.3359 33.3008 40.0195 33.2422 40.4492 32.832C40.8398 32.4023 40.8789 31.6992 40.4492 31.3086L38.3594 29.2383C37.9297 28.8281 37.2461 28.8281 36.8164 29.2383C36.4258 29.6484 36.4062 30.332 36.8164 30.7812ZM37.5195 23.6328C37.5195 20.1172 34.707 17.3438 31.2305 17.3438C29.0039 17.3438 27.0312 18.4961 25.957 20.2344C26.5234 20.7812 27.0312 21.3672 27.4609 22.0703C31.2891 22.5586 34.2383 25.293 34.6484 28.9453C36.4258 27.7344 37.5195 25.8203 37.5195 23.6328Z" fill="black" fill-opacity="0.85"/>
 </g>
</svg>
