<?xml version="1.0" encoding="UTF-8"?>
<!--Generator: Apple Native CoreSVG 326-->
<!DOCTYPE svg
PUBLIC "-//W3C//DTD SVG 1.1//EN"
       "http://www.w3.org/Graphics/SVG/1.1/DTD/svg11.dtd">
<svg version="1.1" xmlns="http://www.w3.org/2000/svg" xmlns:xlink="http://www.w3.org/1999/xlink" viewBox="0 0 92.6758 60.918">
 <g>
  <rect height="60.918" opacity="0" width="92.6758" x="0" y="0"/>
  <path d="M40.2204 18.7991L36.3497 21.4009L40.2768 21.164L40.332 23.4766C40.346 23.8705 40.4015 24.2509 40.4989 24.6114L29.0608 25.297L12.4805 28.457C6.48438 29.6094 3.45703 32.1875 3.45703 36.875L3.45703 39.9414C3.45703 41.4453 4.23828 42.2266 5.91797 42.4219L9.55824 42.8382C9.53691 42.6576 9.53125 42.4722 9.53125 42.2852C9.53125 37.4414 13.3008 33.6523 18.1445 33.6523C22.8694 33.6523 26.5907 37.2577 26.7602 41.9336L65.5445 41.9336C65.714 37.2577 69.4353 33.6523 74.1602 33.6523C78.628 33.6523 82.1818 36.8761 82.699 41.1804L84.8633 40.9375C87.5781 40.625 88.8477 39.1602 88.8477 36.3477L88.8477 31.9727C88.8477 28.5742 87.4805 26.9922 83.7891 26.2891L66.6016 23.0469L50.1844 24.0309C50.2115 23.85 50.2277 23.6649 50.2344 23.4766L50.304 20.5591L65.7227 19.6289C66.8945 19.5703 68.0469 19.6289 69.2578 19.8828L84.3945 22.7344C90.0586 23.8086 92.3047 26.2695 92.3047 31.9727L92.3047 36.3477C92.3047 41.2305 90.0391 43.8086 85.293 44.3359L82.4494 44.649C81.4547 48.293 78.1767 50.8984 74.1602 50.8984C70.4224 50.8984 67.3126 48.6421 66.0959 45.3906L26.2088 45.3906C24.9921 48.6421 21.8823 50.8984 18.1445 50.8984C14.827 50.8984 12.0133 49.1209 10.571 46.4499L5.13672 45.8203C1.58203 45.4297 0 43.6719 0 40.1758L0 36.875C0 30.2148 4.00391 26.6016 11.9922 25.0977L29.4531 21.7969L40.1217 14.6627ZM12.793 42.2852C12.793 45.2734 15.1562 47.6367 18.1445 47.6367C21.1523 47.6367 23.5156 45.2734 23.5156 42.2852C23.5156 39.2773 21.1523 36.9141 18.1445 36.9141C15.1562 36.9141 12.793 39.2773 12.793 42.2852ZM68.7891 42.2852C68.7891 45.2734 71.1719 47.6367 74.1602 47.6367C77.1484 47.6367 79.5117 45.2734 79.5117 42.2852C79.5117 39.2773 77.1484 36.9141 74.1602 36.9141C71.1719 36.9141 68.7891 39.2773 68.7891 42.2852Z" fill="black" fill-opacity="0.85"/>
  <path d="M45.293 36.0938C46.8945 36.0938 48.2617 34.7656 48.2617 33.2227C48.2617 31.6211 46.9141 30.332 45.293 30.332C43.6328 30.332 42.3047 31.6211 42.3047 33.2227C42.3047 34.7656 43.6719 36.0938 45.293 36.0938ZM45.293 25.1953C46.3281 25.1953 47.0703 24.4531 47.1094 23.3789L47.5391 5.37109C47.5781 4.02344 46.6797 3.125 45.293 3.125C43.8867 3.125 42.9883 4.02344 43.0273 5.37109L43.457 23.3789C43.4961 24.4531 44.2383 25.1953 45.293 25.1953Z" fill="black" fill-opacity="0.85"/>
 </g>
</svg>
