<?xml version="1.0" encoding="UTF-8"?>
<!--Generator: Apple Native CoreSVG 326-->
<!DOCTYPE svg
PUBLIC "-//W3C//DTD SVG 1.1//EN"
       "http://www.w3.org/Graphics/SVG/1.1/DTD/svg11.dtd">
<svg version="1.1" xmlns="http://www.w3.org/2000/svg" xmlns:xlink="http://www.w3.org/1999/xlink" viewBox="0 0 51.25 50.918">
 <g>
  <rect height="50.918" opacity="0" width="51.25" x="0" y="0"/>
  <path d="M50.8789 25.4492C50.8789 39.4531 39.4531 50.8789 25.4297 50.8789C11.4258 50.8789 0 39.4531 0 25.4492C0 11.4258 11.4258 0 25.4297 0C39.4531 0 50.8789 11.4258 50.8789 25.4492ZM10.7812 22.5781L10.7812 32.2656C10.7812 34.7852 12.0703 36.0156 14.5703 36.0156L36.2891 36.0156C38.7891 36.0156 40.0781 34.7656 40.0781 32.2656L40.0781 22.5781ZM20.1562 28.6914L20.1562 31.0156C20.1562 31.7383 19.668 32.207 18.9258 32.207L15.8398 32.207C15.1367 32.207 14.6289 31.7383 14.6289 31.0156L14.6289 28.6914C14.6289 27.9883 15.1367 27.5 15.8398 27.5L18.9258 27.5C19.668 27.5 20.1562 27.9883 20.1562 28.6914ZM14.5703 14.9023C12.0703 14.9023 10.7812 16.1523 10.7812 18.6523L10.7812 19.7461L40.0781 19.7461L40.0781 18.6523C40.0781 16.1523 38.7891 14.9023 36.2891 14.9023Z" fill="black" fill-opacity="0.85"/>
 </g>
</svg>
