<?xml version="1.0" encoding="UTF-8"?>
<!--Generator: Apple Native CoreSVG 326-->
<!DOCTYPE svg
PUBLIC "-//W3C//DTD SVG 1.1//EN"
       "http://www.w3.org/Graphics/SVG/1.1/DTD/svg11.dtd">
<svg version="1.1" xmlns="http://www.w3.org/2000/svg" xmlns:xlink="http://www.w3.org/1999/xlink" viewBox="0 0 59.1797 42.5195">
 <g>
  <rect height="42.5195" opacity="0" width="59.1797" x="0" y="0"/>
  <path d="M10.1562 34.8438C8.67188 34.8438 7.67578 33.8477 7.67578 32.4219L7.67578 27.7539C7.67578 26.3281 8.67188 25.332 10.1562 25.332L16.3281 25.332C17.793 25.332 18.8086 26.3281 18.8086 27.7539L18.8086 32.4219C18.8086 33.8477 17.793 34.8438 16.3281 34.8438ZM0 15.4883L0 9.82422L58.8086 9.82422L58.8086 15.4883ZM7.59766 42.5195L51.1914 42.5195C56.25 42.5195 58.8086 39.9609 58.8086 34.9805L58.8086 7.59766C58.8086 2.61719 56.25 0.0585938 51.1914 0.0585938L7.59766 0.0585938C2.55859 0.0585938 0 2.59766 0 7.59766L0 34.9805C0 39.9805 2.55859 42.5195 7.59766 42.5195Z" fill="black" fill-opacity="0.85"/>
 </g>
</svg>
