<?xml version="1.0" encoding="UTF-8"?>
<!--Generator: Apple Native CoreSVG 326-->
<!DOCTYPE svg
PUBLIC "-//W3C//DTD SVG 1.1//EN"
       "http://www.w3.org/Graphics/SVG/1.1/DTD/svg11.dtd">
<svg version="1.1" xmlns="http://www.w3.org/2000/svg" xmlns:xlink="http://www.w3.org/1999/xlink" viewBox="0 0 34.3555 59.4336">
 <g>
  <rect height="59.4336" opacity="0" width="34.3555" x="0" y="0"/>
  <path d="M29.6289 4.19922L29.6289 6.93359C29.6289 9.53125 28.0859 11.1328 25.5469 11.1328L25.0586 11.1328L25.0586 14.8047L26.1328 14.8047C30.918 14.8047 33.9844 17.9102 33.9844 22.793L33.9844 51.3867C33.9844 56.25 30.918 59.375 26.1328 59.375L7.85156 59.375C3.06641 59.375 0 56.25 0 51.3867L0 22.793C0 17.9102 3.06641 14.8047 7.85156 14.8047L8.92578 14.8047L8.92578 11.1328L8.4375 11.1328C5.89844 11.1328 4.35547 9.53125 4.35547 6.93359L4.35547 4.19922C4.35547 1.60156 5.89844 0 8.4375 0L25.5469 0C28.0859 0 29.6289 1.60156 29.6289 4.19922ZM15.1953 27.5195C14.1016 27.5195 13.418 28.2422 13.418 29.2969L13.418 33.5156L9.19922 33.5156C8.14453 33.5156 7.42188 34.1992 7.42188 35.293L7.42188 38.8672C7.42188 39.9609 8.14453 40.6445 9.19922 40.6445L13.418 40.6445L13.418 44.8438C13.418 45.918 14.1016 46.6406 15.1953 46.6406L18.7891 46.6406C19.8633 46.6406 20.5664 45.918 20.5664 44.8438L20.5664 40.6445L24.7852 40.6445C25.8203 40.6445 26.582 39.9609 26.582 38.8672L26.582 35.293C26.582 34.1992 25.8203 33.5156 24.7852 33.5156L20.5664 33.5156L20.5664 29.2969C20.5664 28.2422 19.8633 27.5195 18.7891 27.5195Z" fill="black" fill-opacity="0.85"/>
 </g>
</svg>
