<?xml version="1.0" encoding="UTF-8"?>
<!--Generator: Apple Native CoreSVG 326-->
<!DOCTYPE svg
PUBLIC "-//W3C//DTD SVG 1.1//EN"
       "http://www.w3.org/Graphics/SVG/1.1/DTD/svg11.dtd">
<svg version="1.1" xmlns="http://www.w3.org/2000/svg" xmlns:xlink="http://www.w3.org/1999/xlink" viewBox="0 0 46.2891 45.918">
 <g>
  <rect height="45.918" opacity="0" width="46.2891" x="0" y="0"/>
  <path d="M45.918 7.53906L45.918 38.3984C45.918 43.3594 43.3594 45.918 38.3008 45.918L7.59766 45.918C2.55859 45.918 0 43.3984 0 38.3984L0 7.53906C0 2.53906 2.55859 0 7.59766 0L38.3008 0C43.3594 0 45.918 2.55859 45.918 7.53906ZM12.5586 14.7461L12.5586 18.2227C12.5586 20.1758 12.0312 20.6836 10.6055 21.0742C8.71094 21.5625 8.73047 24.375 10.6055 24.8828C12.0312 25.2734 12.5586 25.7812 12.5586 27.7344L12.5586 31.2109C12.5586 35.0586 14.5312 36.9727 17.8906 36.9727C19.1797 36.9727 19.9414 36.3281 19.9414 35.4297C19.9414 34.5312 19.2578 33.9453 18.3789 33.9453C16.6016 33.9453 15.8203 33.125 15.8203 30.8594L15.8203 27.1289C15.8203 25.0907 14.7421 23.5399 12.9829 22.953C14.7421 22.3831 15.8203 20.8493 15.8203 18.8281L15.8203 15.0977C15.8203 12.8125 16.6016 12.0117 18.3789 12.0117C19.2578 12.0117 19.9414 11.4258 19.9414 10.5078C19.9414 9.60938 19.1797 8.96484 17.8906 8.96484C14.5312 8.96484 12.5586 10.8789 12.5586 14.7461ZM25.9961 10.5078C25.9961 11.4258 26.6602 12.0117 27.5391 12.0117C29.3164 12.0117 30.1172 12.8125 30.1172 15.0977L30.1172 18.8281C30.1172 20.8493 31.1807 22.3831 32.9488 22.953C31.1807 23.5399 30.1172 25.0907 30.1172 27.1289L30.1172 30.8594C30.1172 33.125 29.3164 33.9453 27.5391 33.9453C26.6602 33.9453 25.9961 34.5312 25.9961 35.4297C25.9961 36.3281 26.7383 36.9727 28.0469 36.9727C31.3867 36.9727 33.3789 35.0586 33.3789 31.2109L33.3789 27.7344C33.3789 25.7812 33.8867 25.2539 35.3125 24.8828C37.207 24.3945 37.207 21.543 35.3125 21.0742C33.9062 20.6641 33.3789 20.1758 33.3789 18.2227L33.3789 14.7461C33.3789 10.8789 31.3867 8.96484 28.0469 8.96484C26.7383 8.96484 25.9961 9.60938 25.9961 10.5078Z" fill="black" fill-opacity="0.85"/>
 </g>
</svg>
