<?xml version="1.0" encoding="UTF-8"?>
<!--Generator: Apple Native CoreSVG 326-->
<!DOCTYPE svg
PUBLIC "-//W3C//DTD SVG 1.1//EN"
       "http://www.w3.org/Graphics/SVG/1.1/DTD/svg11.dtd">
<svg version="1.1" xmlns="http://www.w3.org/2000/svg" xmlns:xlink="http://www.w3.org/1999/xlink" viewBox="0 0 46.2891 45.918">
 <g>
  <rect height="45.918" opacity="0" width="46.2891" x="0" y="0"/>
  <path d="M45.918 7.53906L45.918 38.3984C45.918 43.3594 43.3594 45.918 38.3008 45.918L7.59766 45.918C2.55859 45.918 0 43.3984 0 38.3984L0 7.53906C0 2.53906 2.55859 0 7.59766 0L38.3008 0C43.3594 0 45.918 2.55859 45.918 7.53906ZM12.0898 12.5195L12.0898 32.3047C12.0898 33.125 12.5977 33.6523 13.3594 33.6523C14.1016 33.6523 14.6289 33.125 14.6289 32.3047L14.6289 27.6172L16.1914 26.0547L21.1523 33.0078C21.4258 33.3984 21.7969 33.6523 22.2656 33.6523C22.9492 33.6523 23.4766 33.1836 23.4766 32.5391C23.4766 32.207 23.3398 31.9336 23.125 31.6211L17.9883 24.4727L22.8125 19.3555C23.125 19.043 23.2617 18.8477 23.2617 18.457C23.2617 17.8711 22.7734 17.3438 22.1289 17.3438C21.7969 17.3438 21.3867 17.5586 21.1719 17.832L14.707 24.9219L14.6289 24.9219L14.6289 12.5391C14.6289 11.7188 14.1016 11.1719 13.3594 11.1719C12.5977 11.1719 12.0898 11.6992 12.0898 12.5195ZM28.9844 20.5078L28.8281 20.5078L28.8281 18.6328C28.8281 17.9102 28.3398 17.3438 27.6953 17.3438C26.9922 17.3438 26.5234 17.9102 26.5234 18.6328L26.5234 32.3047C26.5234 33.125 26.9336 33.6523 27.7344 33.6523C28.3008 33.6523 28.9258 33.2812 28.9258 32.3047L28.9258 23.9062C28.9258 22.0117 29.668 19.7852 31.9727 19.7852C32.4609 19.7852 32.9297 19.7656 33.3008 19.5703C33.6523 19.4141 33.8281 19.1211 33.8281 18.6914C33.8281 17.8125 33.1055 17.3438 32.207 17.3438C30.5078 17.3438 29.3945 18.8086 28.9844 20.5078ZM33.1055 31.7188C33.1055 32.6953 33.8086 33.3984 34.8242 33.3984C35.8008 33.3984 36.5039 32.6953 36.5039 31.7188C36.5039 30.7422 35.8008 30.0195 34.8242 30.0195C33.8086 30.0195 33.1055 30.7422 33.1055 31.7188Z" fill="black" fill-opacity="0.85"/>
 </g>
</svg>
