<?xml version="1.0" encoding="UTF-8"?>
<!--Generator: Apple Native CoreSVG 326-->
<!DOCTYPE svg
PUBLIC "-//W3C//DTD SVG 1.1//EN"
       "http://www.w3.org/Graphics/SVG/1.1/DTD/svg11.dtd">
<svg version="1.1" xmlns="http://www.w3.org/2000/svg" xmlns:xlink="http://www.w3.org/1999/xlink" viewBox="0 0 51.25 50.918">
 <g>
  <rect height="50.918" opacity="0" width="51.25" x="0" y="0"/>
  <path d="M25.4297 50.8789C39.4727 50.8789 50.8789 39.4922 50.8789 25.4492C50.8789 11.4062 39.4727 0 25.4297 0C11.3867 0 0 11.4062 0 25.4492C0 39.4922 11.3867 50.8789 25.4297 50.8789ZM25.4297 47.2461C13.3789 47.2461 3.63281 37.5 3.63281 25.4492C3.63281 13.3984 13.3789 3.65234 25.4297 3.65234C37.4805 3.65234 47.2266 13.3984 47.2266 25.4492C47.2266 37.5 37.4805 47.2461 25.4297 47.2461Z" fill="black" fill-opacity="0.85"/>
  <path d="M19.3945 38.9062L32.5977 38.9062C35.293 38.9062 36.6406 37.5195 36.6406 34.8047L36.6406 23.6719L26.6992 23.6719C25.0586 23.6719 24.2773 22.8906 24.2773 21.25L24.2773 11.1914L19.3945 11.1914C16.7188 11.1914 15.3516 12.5781 15.3516 15.293L15.3516 34.8047C15.3516 37.5391 16.6992 38.9062 19.3945 38.9062ZM26.9531 21.7969L36.4648 21.7969C36.4062 21.3086 36.0352 20.8203 35.4688 20.2539L27.6953 12.3633C27.1484 11.7969 26.6406 11.4453 26.1719 11.3477L26.1719 20.9961C26.1719 21.5234 26.4258 21.7969 26.9531 21.7969Z" fill="black" fill-opacity="0.85"/>
 </g>
</svg>
