<?xml version="1.0" encoding="UTF-8"?>
<!--Generator: Apple Native CoreSVG 326-->
<!DOCTYPE svg
PUBLIC "-//W3C//DTD SVG 1.1//EN"
       "http://www.w3.org/Graphics/SVG/1.1/DTD/svg11.dtd">
<svg version="1.1" xmlns="http://www.w3.org/2000/svg" xmlns:xlink="http://www.w3.org/1999/xlink" viewBox="0 0 51.25 50.918">
 <g>
  <rect height="50.918" opacity="0" width="51.25" x="0" y="0"/>
  <path d="M50.8789 25.4492C50.8789 39.4531 39.4531 50.8789 25.4297 50.8789C11.4258 50.8789 0 39.4531 0 25.4492C0 11.4258 11.4258 0 25.4297 0C39.4531 0 50.8789 11.4258 50.8789 25.4492ZM24.6484 11.7578L24.6484 13.9844C20.9375 14.2773 17.6953 16.4844 17.6953 20.1172C17.6953 23.8477 20.8594 25.2734 24.0234 26.0352L24.6484 26.1914L24.6484 34.2969C22.2656 34.1211 20.5078 33.0469 19.8047 30.7812C19.5117 30.0586 19.1406 29.7656 18.5156 29.7656C17.832 29.7656 17.2852 30.2148 17.2852 30.9766C17.2852 31.2109 17.3242 31.4648 17.4023 31.7188C18.2617 34.8633 21.4844 36.3477 24.6484 36.5625L24.6484 38.8867C24.6484 39.3164 25 39.668 25.4297 39.668C25.8594 39.668 26.2109 39.3164 26.2109 38.8867L26.2109 36.5625C30.1758 36.3477 33.5938 34.3555 33.5938 30.2734C33.5938 26.5039 30.5469 25.0195 27.0312 24.1992L26.2109 24.0039L26.2109 16.2891C28.418 16.4648 30.0781 17.5977 30.6641 19.6484C30.8789 20.3516 31.3281 20.7031 31.9531 20.7031C32.5586 20.7031 33.2031 20.3125 33.2031 19.5312C33.2031 16.582 29.7266 14.2773 26.2109 13.9844L26.2109 11.7578C26.2109 11.3477 25.8594 10.9961 25.4297 10.9961C25 10.9961 24.6484 11.3477 24.6484 11.7578ZM26.5625 26.6406C28.9062 27.207 31.0156 28.0664 31.0156 30.4688C31.0156 33.125 28.7109 34.1406 26.2109 34.3164L26.2109 26.5625ZM24.6484 23.6523L24.4336 23.5938C22.2852 23.0664 20.2734 22.1094 20.2734 19.9219C20.2734 17.6562 22.4414 16.5234 24.6484 16.2891Z" fill="black" fill-opacity="0.85"/>
 </g>
</svg>
