<?xml version="1.0" encoding="UTF-8"?>
<!--Generator: Apple Native CoreSVG 326-->
<!DOCTYPE svg
PUBLIC "-//W3C//DTD SVG 1.1//EN"
       "http://www.w3.org/Graphics/SVG/1.1/DTD/svg11.dtd">
<svg version="1.1" xmlns="http://www.w3.org/2000/svg" xmlns:xlink="http://www.w3.org/1999/xlink" viewBox="0 0 55.5273 53.1055">
 <g>
  <rect height="53.1055" opacity="0" width="55.5273" x="0" y="0"/>
  <path d="M3.06641 47.6758L52.0898 47.6758L52.0898 46.1719C52.0898 45.332 51.582 44.8242 50.7227 44.8242L49.1211 44.8242L49.1211 16.6797L51.3867 16.6797C52.5781 16.6797 53.2422 15.8398 53.2422 14.9609C53.2422 14.3164 52.8906 13.75 52.1094 13.3008L30.5273 0.839844C29.5703 0.292969 28.5547 0 27.5781 0C26.6016 0 25.5664 0.292969 24.6289 0.839844L3.04688 13.3008C2.24609 13.75 1.91406 14.3164 1.91406 14.9609C1.91406 15.8398 2.57812 16.6797 3.76953 16.6797L6.05469 16.6797L6.05469 44.8242L4.45312 44.8242C3.57422 44.8242 3.06641 45.332 3.06641 46.1719ZM9.31641 44.8242L9.31641 13.7109L26.4453 4.0625C26.7773 3.86719 27.1875 3.75 27.5781 3.75C27.9492 3.75 28.3398 3.86719 28.7109 4.0625L45.8594 13.7109L45.8594 44.8242ZM1.73828 53.0664L53.418 53.0664C54.375 53.0664 55.1562 52.2852 55.1562 51.3477C55.1562 50.3906 54.375 49.6094 53.418 49.6094L1.73828 49.6094C0.78125 49.6094 0 50.3906 0 51.3477C0 52.2852 0.78125 53.0664 1.73828 53.0664Z" fill="black" fill-opacity="0.85"/>
  <path d="M25.918 34.6484C28.0859 34.6484 30.1172 33.75 31.1328 31.6602L31.2305 31.6602L31.2305 33.6719C31.2305 34.375 31.7578 34.9023 32.4414 34.9023C33.125 34.9023 33.6328 34.375 33.6328 33.6719L33.6328 17.6562L35.5664 17.6562C35.9961 17.6562 36.3281 17.3242 36.3281 16.8945C36.3281 16.4844 35.9961 16.1719 35.5664 16.1719L33.6328 16.1719L33.6328 15C33.6328 14.2188 33.1641 13.7305 32.4023 13.7305C31.6211 13.7305 31.1523 14.2188 31.1523 15L31.1523 16.1719L26.2891 16.1719C25.8789 16.1719 25.5273 16.4844 25.5273 16.8945C25.5273 17.3438 25.8789 17.6562 26.2891 17.6562L31.1523 17.6562L31.1523 23.0078L31.0352 23.0078C30.1367 21.0156 28.125 20.0391 25.918 20.0391C22.2266 20.0391 19.2578 22.9102 19.2578 27.3438C19.2578 31.5234 22.0117 34.6484 25.918 34.6484ZM26.543 32.4805C23.5938 32.4805 21.8164 30.2344 21.8164 27.3438C21.8164 24.3164 23.75 22.1875 26.543 22.1875C29.4141 22.1875 31.1523 24.5703 31.1523 27.3438C31.1523 30.2734 29.2383 32.4805 26.543 32.4805ZM20.5078 37.3438C20.5078 37.793 20.8594 38.1055 21.3086 38.1055L33.5742 38.1055C34.0039 38.1055 34.375 37.7734 34.375 37.3438C34.375 36.8945 34.0039 36.5625 33.5742 36.5625L21.3086 36.5625C20.8594 36.5625 20.5078 36.8945 20.5078 37.3438Z" fill="black" fill-opacity="0.85"/>
 </g>
</svg>
