<?xml version="1.0" encoding="UTF-8"?>
<!--Generator: Apple Native CoreSVG 326-->
<!DOCTYPE svg
PUBLIC "-//W3C//DTD SVG 1.1//EN"
       "http://www.w3.org/Graphics/SVG/1.1/DTD/svg11.dtd">
<svg version="1.1" xmlns="http://www.w3.org/2000/svg" xmlns:xlink="http://www.w3.org/1999/xlink" viewBox="0 0 60.6836 52.9102">
 <g>
  <rect height="52.9102" opacity="0" width="60.6836" x="0" y="0"/>
  <path d="M1.73828 52.8711C2.69531 52.8711 3.47656 52.0898 3.47656 51.1328L3.47656 4.80469C3.47656 4.00391 3.98438 3.47656 4.74609 3.47656L55.5664 3.47656C56.3086 3.47656 56.8359 4.00391 56.8359 4.80469L56.8359 51.1328C56.8359 52.0898 57.5977 52.8711 58.5742 52.8711C59.5312 52.8711 60.3125 52.0898 60.3125 51.1328L60.3125 4.57031C60.3125 1.83594 58.4375 0 55.625 0L4.6875 0C1.875 0 0 1.83594 0 4.57031L0 51.1328C0 52.0898 0.761719 52.8711 1.73828 52.8711Z" fill="black" fill-opacity="0.85"/>
  <path d="M31.2695 52.0312L53.3789 52.0312C53.7891 52.0312 54.1016 51.6992 54.1016 51.2891L54.1016 6.93359C54.1016 6.52344 53.7891 6.19141 53.3789 6.19141L31.2695 6.19141C30.8594 6.19141 30.5273 6.52344 30.5273 6.93359L30.5273 51.2891C30.5273 51.6992 30.8594 52.0312 31.2695 52.0312ZM36.1719 32.8906C35.4883 32.8906 35 32.4023 35 31.7188L35 27.3047C35 26.6211 35.4883 26.1328 36.1719 26.1328C36.8555 26.1328 37.3242 26.6211 37.3242 27.3047L37.3242 31.7188C37.3242 32.4023 36.8555 32.8906 36.1719 32.8906Z" fill="black" fill-opacity="0.85"/>
 </g>
</svg>
