<?xml version="1.0" encoding="UTF-8"?>
<!--Generator: Apple Native CoreSVG 326-->
<!DOCTYPE svg
PUBLIC "-//W3C//DTD SVG 1.1//EN"
       "http://www.w3.org/Graphics/SVG/1.1/DTD/svg11.dtd">
<svg version="1.1" xmlns="http://www.w3.org/2000/svg" xmlns:xlink="http://www.w3.org/1999/xlink" viewBox="0 0 46.2891 45.918">
 <g>
  <rect height="45.918" opacity="0" width="46.2891" x="0" y="0"/>
  <path d="M7.59766 45.918L38.3008 45.918C43.3594 45.918 45.918 43.3594 45.918 38.3984L45.918 7.53906C45.918 2.55859 43.3594 0 38.3008 0L7.59766 0C2.55859 0 0 2.53906 0 7.53906L0 38.3984C0 43.3984 2.55859 45.918 7.59766 45.918ZM7.67578 42.4609C4.94141 42.4609 3.45703 41.0156 3.45703 38.2031L3.45703 7.71484C3.45703 4.92188 4.94141 3.45703 7.67578 3.45703L38.2422 3.45703C40.918 3.45703 42.4609 4.92188 42.4609 7.71484L42.4609 38.2031C42.4609 41.0156 40.918 42.4609 38.2422 42.4609Z" fill="black" fill-opacity="0.85"/>
  <path d="M17.0898 34.1797L29.082 34.1797C29.9609 34.1797 30.5469 33.6133 30.5469 32.7344C30.5469 31.8555 29.9609 31.3086 29.082 31.3086L18.8477 31.3086L18.8477 23.9453L28.457 23.9453C29.3164 23.9453 29.9023 23.4375 29.9023 22.5781C29.9023 21.6992 29.3164 21.1914 28.457 21.1914L18.8477 21.1914L18.8477 14.2383L29.082 14.2383C29.9609 14.2383 30.5469 13.6523 30.5469 12.793C30.5469 11.9141 29.9609 11.3672 29.082 11.3672L17.0898 11.3672C15.9961 11.3672 15.4102 12.1484 15.4102 13.3008L15.4102 32.2266C15.4102 33.3789 15.9961 34.1797 17.0898 34.1797Z" fill="black" fill-opacity="0.85"/>
 </g>
</svg>
