<?xml version="1.0" encoding="UTF-8"?>
<!--Generator: Apple Native CoreSVG 326-->
<!DOCTYPE svg
PUBLIC "-//W3C//DTD SVG 1.1//EN"
       "http://www.w3.org/Graphics/SVG/1.1/DTD/svg11.dtd">
<svg version="1.1" xmlns="http://www.w3.org/2000/svg" xmlns:xlink="http://www.w3.org/1999/xlink" viewBox="0 0 55.5273 53.1055">
 <g>
  <rect height="53.1055" opacity="0" width="55.5273" x="0" y="0"/>
  <path d="M3.06641 47.6758L52.0898 47.6758L52.0898 46.1719C52.0898 45.332 51.582 44.8242 50.7227 44.8242L49.1211 44.8242L49.1211 16.6797L51.3867 16.6797C52.5781 16.6797 53.2422 15.8398 53.2422 14.9609C53.2422 14.3164 52.8906 13.75 52.1094 13.3008L30.5273 0.839844C29.5703 0.292969 28.5547 0 27.5781 0C26.6016 0 25.5664 0.292969 24.6289 0.839844L3.04688 13.3008C2.24609 13.75 1.91406 14.3164 1.91406 14.9609C1.91406 15.8398 2.57812 16.6797 3.76953 16.6797L6.05469 16.6797L6.05469 44.8242L4.45312 44.8242C3.57422 44.8242 3.06641 45.332 3.06641 46.1719ZM9.31641 44.8242L9.31641 13.7109L26.4453 4.0625C26.7773 3.86719 27.1875 3.75 27.5781 3.75C27.9492 3.75 28.3398 3.86719 28.7109 4.0625L45.8594 13.7109L45.8594 44.8242ZM1.73828 53.0664L53.418 53.0664C54.375 53.0664 55.1562 52.2852 55.1562 51.3477C55.1562 50.3906 54.375 49.6094 53.418 49.6094L1.73828 49.6094C0.78125 49.6094 0 50.3906 0 51.3477C0 52.2852 0.78125 53.0664 1.73828 53.0664Z" fill="black" fill-opacity="0.85"/>
  <path d="M17.2852 36.0547L24.7852 36.0547C25.4297 36.0547 25.8594 35.6641 25.8594 35.0195C25.8594 34.3555 25.4297 33.9844 24.7852 33.9844L18.4961 33.9844L18.4961 27.2461L24.4922 27.2461C25.0977 27.2461 25.4883 26.8359 25.4883 26.25C25.4883 25.6641 25.0977 25.2734 24.4922 25.2734L18.4961 25.2734L18.4961 18.9258L24.7852 18.9258C25.4297 18.9258 25.8594 18.5352 25.8594 17.8906C25.8594 17.2461 25.4297 16.875 24.7852 16.875L17.2852 16.875C16.543 16.875 16.1133 17.3438 16.1133 18.1055L16.1133 34.8047C16.1133 35.5859 16.5039 36.0547 17.2852 36.0547ZM29.8828 36.0547L39.082 36.0547C39.6875 36.0547 40.0781 35.625 40.0781 35.0195C40.0781 34.3945 39.6875 33.9844 39.082 33.9844L31.4453 33.9844L31.4453 33.8477L39.4922 19.1406C39.6875 18.8281 39.8438 18.4766 39.8438 18.0469C39.8438 17.3633 39.375 16.875 38.6133 16.875L29.8047 16.875C29.1797 16.875 28.7305 17.2656 28.7305 17.8906C28.7305 18.5156 29.1797 18.9258 29.8047 18.9258L37.1484 18.9258L37.1484 19.0625L29.0039 33.8086C28.8086 34.1406 28.6719 34.4922 28.6719 34.8828C28.6719 35.6641 29.2578 36.0547 29.8828 36.0547Z" fill="black" fill-opacity="0.85"/>
 </g>
</svg>
