<?xml version="1.0" encoding="UTF-8"?>
<!--Generator: Apple Native CoreSVG 326-->
<!DOCTYPE svg
PUBLIC "-//W3C//DTD SVG 1.1//EN"
       "http://www.w3.org/Graphics/SVG/1.1/DTD/svg11.dtd">
<svg version="1.1" xmlns="http://www.w3.org/2000/svg" xmlns:xlink="http://www.w3.org/1999/xlink" viewBox="0 0 39.7852 47.9883">
 <g>
  <rect height="47.9883" opacity="0" width="39.7852" x="0" y="0"/>
  <path d="M24.8438 34.4531C26.3086 34.4531 26.9922 33.457 26.9922 32.0898C26.9922 31.6602 26.9922 31.2305 26.9922 30.8203C27.0312 27.3633 28.2422 25.8398 32.3828 22.9688C36.8555 19.8633 39.4141 16.6016 39.4141 11.8945C39.4141 4.57031 33.4766 0.136719 25.9766 0.136719C20.2539 0.136719 15.332 3.04688 13.3398 7.94922C12.8516 9.10156 12.6562 10.1758 12.6562 11.0547C12.6562 12.2656 13.3594 13.1055 14.6484 13.1055C15.7422 13.1055 16.4648 12.4609 16.7578 11.3867C17.9297 6.38672 21.3867 4.08203 25.8398 4.08203C30.9961 4.08203 35.0391 7.16797 35.0391 11.875C35.0391 15.4688 32.8906 17.6367 29.3555 20.1758C25.2148 23.1055 22.6367 25.8984 22.6367 30.293C22.6367 30.918 22.6367 31.5234 22.6367 32.1484C22.6367 33.5156 23.3984 34.4531 24.8438 34.4531ZM24.8828 47.9883C26.6211 47.9883 28.0273 46.5625 28.0273 44.8438C28.0273 43.0859 26.6211 41.6992 24.8828 41.6992C23.1445 41.6992 21.7383 43.0859 21.7383 44.8438C21.7383 46.5625 23.1445 47.9883 24.8828 47.9883Z" fill="black" fill-opacity="0.85"/>
  <path d="M3.16406 34.2773C4.29688 34.2773 5.07812 33.5352 5.09766 32.3633L5.27344 2.28516C5.27344 2.28516 5.27344 2.28516 5.27344 2.28516C5.27344 1.05469 4.29688 0.234375 3.14453 0.234375C1.99219 0.234375 1.01562 1.05469 1.01562 2.28516C1.01562 2.28516 1.01562 2.28516 1.01562 2.28516L1.23047 32.3633C1.25 33.5352 2.03125 34.2773 3.16406 34.2773ZM3.14453 47.9883C4.88281 47.9883 6.28906 46.5625 6.28906 44.8438C6.28906 43.0859 4.88281 41.6992 3.14453 41.6992C1.42578 41.6992 0 43.0859 0 44.8438C0 46.5625 1.42578 47.9883 3.14453 47.9883Z" fill="black" fill-opacity="0.85"/>
 </g>
</svg>
