<?xml version="1.0" encoding="UTF-8"?>
<!--Generator: Apple Native CoreSVG 326-->
<!DOCTYPE svg
PUBLIC "-//W3C//DTD SVG 1.1//EN"
       "http://www.w3.org/Graphics/SVG/1.1/DTD/svg11.dtd">
<svg version="1.1" xmlns="http://www.w3.org/2000/svg" xmlns:xlink="http://www.w3.org/1999/xlink" viewBox="0 0 50.4297 57.207">
 <g>
  <rect height="57.207" opacity="0" width="50.4297" x="0" y="0"/>
  <path d="M25.0195 50.0586C38.8477 50.0586 50.0586 38.8672 50.0586 25.0195C50.0586 11.2109 38.8672 0 25.0195 0C11.1914 0 0 11.1914 0 25.0195C0 38.8477 11.1914 50.0586 25.0195 50.0586ZM25.0195 46.582C13.1055 46.582 3.45703 36.9336 3.45703 25.0195C3.45703 13.1055 13.1055 3.4375 25.0195 3.4375C36.9336 3.4375 46.6016 13.1055 46.6016 25.0195C46.6016 36.9336 36.9336 46.582 25.0195 46.582ZM23.3008 48.75L23.3008 55.1562L26.7578 55.1562L26.7578 48.75ZM12.2266 57.207L37.8516 57.207C38.6719 57.207 39.1992 56.6211 39.1992 55.7812C39.1992 54.1406 37.8906 52.9688 35.7812 52.9688L14.2969 52.9688C12.1875 52.9688 10.8789 54.1406 10.8789 55.7812C10.8789 56.6211 11.4062 57.207 12.2266 57.207Z" fill="black" fill-opacity="0.85"/>
  <path d="M18.6133 24.9023L23.7891 18.6914L23.7891 12.0898C23.7891 9.19922 22.3438 7.67578 19.5312 7.67578C14.2969 7.67578 9.0625 12.3438 9.0625 16.9336C9.0625 20.8398 12.3828 22.9102 18.6133 24.9023ZM25.1367 18.5938L31.3477 23.7695L37.9492 23.7695C40.8398 23.7695 42.3633 22.3438 42.3633 19.5117C42.3633 14.2773 37.6953 9.0625 33.1055 9.0625C29.1992 9.0625 27.1289 12.3828 25.1367 18.5938ZM31.4453 25.1172L26.2695 31.3477L26.2695 37.9297C26.2695 40.8203 27.6953 42.3633 30.5273 42.3633C35.7617 42.3633 40.9766 37.6953 40.9766 33.1055C40.9766 29.1797 37.6562 27.1289 31.4453 25.1172ZM24.9219 31.4258L18.6914 26.25L12.1094 26.25C9.21875 26.25 7.67578 27.6953 7.67578 30.5078C7.67578 35.7422 12.3438 40.9766 16.9336 40.9766C20.8594 40.9766 22.9102 37.6562 24.9219 31.4258ZM25.0195 31.9531C28.8672 31.9531 31.9727 28.8477 31.9727 25.0195C31.9727 21.1719 28.8672 18.0859 25.0195 18.0859C21.1914 18.0859 18.0859 21.1719 18.0859 25.0195C18.0859 28.8477 21.1914 31.9531 25.0195 31.9531ZM25.0195 28.7695C22.9492 28.7695 21.2695 27.0898 21.2695 25.0195C21.2695 22.9297 22.9492 21.25 25.0195 21.25C27.1094 21.25 28.7891 22.9297 28.7891 25.0195C28.7891 27.0898 27.1094 28.7695 25.0195 28.7695Z" fill="black" fill-opacity="0.85"/>
 </g>
</svg>
