<?xml version="1.0" encoding="UTF-8"?>
<!--Generator: Apple Native CoreSVG 326-->
<!DOCTYPE svg
PUBLIC "-//W3C//DTD SVG 1.1//EN"
       "http://www.w3.org/Graphics/SVG/1.1/DTD/svg11.dtd">
<svg version="1.1" xmlns="http://www.w3.org/2000/svg" xmlns:xlink="http://www.w3.org/1999/xlink" viewBox="0 0 51.25 50.918">
 <g>
  <rect height="50.918" opacity="0" width="51.25" x="0" y="0"/>
  <path d="M25.4297 50.8789C39.4727 50.8789 50.8789 39.4922 50.8789 25.4492C50.8789 11.4062 39.4727 0 25.4297 0C11.3867 0 0 11.4062 0 25.4492C0 39.4922 11.3867 50.8789 25.4297 50.8789ZM25.4297 47.2461C13.3789 47.2461 3.63281 37.5 3.63281 25.4492C3.63281 13.3984 13.3789 3.65234 25.4297 3.65234C37.4805 3.65234 47.2266 13.3984 47.2266 25.4492C47.2266 37.5 37.4805 47.2461 25.4297 47.2461Z" fill="black" fill-opacity="0.85"/>
  <path d="M30.7227 14.4141C32.4219 14.4141 33.7695 13.0469 33.7695 11.3672C33.7695 9.70703 32.4219 8.32031 30.7227 8.32031C29.0625 8.32031 27.7148 9.70703 27.7148 11.3672C27.7148 13.0469 29.0625 14.4141 30.7227 14.4141ZM21.0938 25.4688L26.2891 30.6641L26.2891 38.5156L29.1406 38.5156L29.1406 30.2344C29.1406 29.8438 29.0234 29.4531 28.75 29.082L25.2539 24.6484L28.2422 20.0977C28.4375 19.7852 28.8477 19.7852 29.0039 20.1367L30.0195 22.1094C30.2344 22.5781 30.7227 22.8906 31.2695 22.8906L36.9922 22.8906C37.793 22.8906 38.418 22.2852 38.418 21.4844C38.418 20.6836 37.793 20.0391 36.9922 20.0391L32.168 20.0391L30.6445 17.0117C30.0586 15.8203 28.8281 15.0586 27.4609 15.0586L19.8438 15.0586C19.3945 15.0586 18.9062 15.2734 18.6523 15.7031L15.8008 19.9805C15.3906 20.625 15.5273 21.5234 16.2109 21.9336C16.8359 22.3828 17.7539 22.1875 18.1836 21.543L20.6055 17.8906L22.9492 17.8906C23.1445 17.8906 23.2422 18.0664 23.1445 18.2422L20.7227 21.875C20 22.9688 20.1367 24.4922 21.0938 25.4688ZM12.4805 27.5586L18.0859 32.4609C18.9648 33.2422 19.9609 32.832 20.4102 32.1484L22.6367 28.6523L20.2734 26.2695C20.2148 26.2109 20.2148 26.2109 20.1758 26.1719L18.6719 29.1992L14.3555 25.3906C13.75 24.9023 12.8516 24.9219 12.3438 25.5273C11.8359 26.1328 11.875 27.0312 12.4805 27.5586ZM19.5703 39.5703L29.3555 39.5703C30.918 39.5703 32.1875 39.2773 33.2031 38.418C33.5938 38.0469 33.5742 37.5977 33.3398 37.2852C33.1055 36.9727 32.6172 36.8555 32.1875 37.1875C31.4258 37.7734 30.6836 38.0273 29.3555 38.0273L19.5703 38.0273C18.2617 38.0273 17.5195 37.7734 16.7578 37.1875C16.3477 36.8945 15.8789 36.9727 15.625 37.2852C15.3906 37.5781 15.332 38.0469 15.7422 38.418C16.7383 39.2773 18.0078 39.5703 19.5703 39.5703ZM19.5703 42.7539C20.2148 42.7539 20.7617 42.207 20.7617 41.5625C20.7617 40.918 20.2148 40.3711 19.5703 40.3711C18.9062 40.3711 18.3789 40.918 18.3789 41.5625C18.3789 42.207 18.9062 42.7539 19.5703 42.7539ZM29.3555 42.7539C30.0195 42.7539 30.5664 42.207 30.5664 41.5625C30.5664 40.918 30.0195 40.3711 29.3555 40.3711C28.7305 40.3711 28.1836 40.918 28.1836 41.5625C28.1836 42.207 28.7305 42.7539 29.3555 42.7539Z" fill="black" fill-opacity="0.85"/>
 </g>
</svg>
