<?xml version="1.0" encoding="UTF-8"?>
<!--Generator: Apple Native CoreSVG 326-->
<!DOCTYPE svg
PUBLIC "-//W3C//DTD SVG 1.1//EN"
       "http://www.w3.org/Graphics/SVG/1.1/DTD/svg11.dtd">
<svg version="1.1" xmlns="http://www.w3.org/2000/svg" xmlns:xlink="http://www.w3.org/1999/xlink" viewBox="0 0 51.25 50.918">
 <g>
  <rect height="50.918" opacity="0" width="51.25" x="0" y="0"/>
  <path d="M25.4297 50.8789C39.4727 50.8789 50.8789 39.4922 50.8789 25.4492C50.8789 11.4062 39.4727 0 25.4297 0C11.3867 0 0 11.4062 0 25.4492C0 39.4922 11.3867 50.8789 25.4297 50.8789ZM25.4297 47.2461C13.3789 47.2461 3.63281 37.5 3.63281 25.4492C3.63281 13.3984 13.3789 3.65234 25.4297 3.65234C37.4805 3.65234 47.2266 13.3984 47.2266 25.4492C47.2266 37.5 37.4805 47.2461 25.4297 47.2461Z" fill="black" fill-opacity="0.85"/>
  <path d="M18.3203 19.082C20 19.082 21.3672 17.7344 21.3672 16.0742C21.3672 14.375 20 13.0469 18.3203 13.0469C16.6602 13.0469 15.3125 14.375 15.3125 16.0742C15.3125 17.7344 16.6602 19.082 18.3203 19.082ZM12.9102 24.9414L13.7305 29.9414C14.0234 31.7578 16.5039 31.3867 16.2109 29.5703L15.5273 25.2539L18.3594 24.1406C18.8086 23.9844 19.1797 24.0625 19.375 24.4531L21.9531 29.6094C22.7539 31.1523 23.3984 31.6211 24.0234 32.0703L32.4414 38.2617C33.8867 39.3164 35.625 37.207 33.9844 35.9961L27.4414 31.1914C27.1289 30.957 27.1484 30.5078 27.5195 30.3125L31.9727 27.7344L37.8125 30.5273C39.4336 31.3086 40.7617 29.0039 38.8281 28.0859L32.6172 25.1172C31.875 24.7656 31.1719 24.8828 30.5469 25.2344L27.6172 26.9531C27.2266 27.168 26.9336 27.0703 26.7969 26.7578L24.4531 21.9727C24.1992 21.5039 24.2578 21.0742 24.7461 20.8398L26.8945 19.8438C27.6172 19.5312 27.8711 19.2969 28.0859 18.6133L29.4336 13.9062C29.9414 12.1289 27.5586 11.5039 27.0703 13.2617L25.7227 17.8906L13.8477 23.1055C13.0664 23.457 12.7734 24.043 12.9102 24.9414Z" fill="black" fill-opacity="0.85"/>
 </g>
</svg>
