<?xml version="1.0" encoding="UTF-8"?>
<!--Generator: Apple Native CoreSVG 326-->
<!DOCTYPE svg
PUBLIC "-//W3C//DTD SVG 1.1//EN"
       "http://www.w3.org/Graphics/SVG/1.1/DTD/svg11.dtd">
<svg version="1.1" xmlns="http://www.w3.org/2000/svg" xmlns:xlink="http://www.w3.org/1999/xlink" viewBox="0 0 74.6221 58.418">
 <g>
  <rect height="58.418" opacity="0" width="74.6221" x="0" y="0"/>
  <path d="M66.9692 19.0039L73.2388 28.2031C73.5122 28.6133 73.7856 29.0039 74.0005 29.3945C74.5278 30.332 74.2349 31.6602 73.0044 32.3242C72.0278 32.8711 70.856 32.6953 70.1138 31.8359C69.4497 31.0352 65.9341 26.0547 64.1567 23.5742C63.9028 23.2422 63.4731 23.3984 63.4731 23.7695C63.4731 26.0938 63.6099 31.9141 64.02 34.7266C64.4888 37.832 68.1216 52.8711 68.2974 53.5352C68.7271 55.0781 67.7896 56.5039 66.2271 56.5039C65.0552 56.5039 64.2935 55.8594 63.8638 54.3359C63.0239 51.2891 60.4849 40.8984 59.6841 38.3789C59.1372 36.6211 58.688 35.8984 57.6724 35.8984C56.6372 35.8984 56.2075 36.6211 55.6411 38.3789C54.8403 40.8984 52.3013 51.2891 51.4614 54.3359C51.0513 55.8594 50.27 56.5039 49.1177 56.5039C47.5552 56.5039 46.5981 55.0781 47.0278 53.5352C47.2036 52.8711 50.8364 37.832 51.3052 34.7266C51.7153 31.9141 51.8521 26.1133 51.8521 23.7891C51.8521 23.3984 51.4028 23.2617 51.1685 23.5742C50.4267 24.6176 49.3821 26.0896 48.3688 27.5083C48.1911 26.8709 47.8476 26.2703 47.3599 25.7617C46.6216 24.9361 45.6128 24.521 44.6098 24.5006L48.356 19.0039C50.563 15.8203 53.2583 14.707 57.6724 14.707C62.0669 14.707 64.7817 15.8203 66.9692 19.0039ZM62.9653 6.71875C62.9653 9.66797 60.6021 12.0117 57.6724 12.0117C54.7231 12.0117 52.3794 9.66797 52.3794 6.71875C52.3794 3.76953 54.7231 1.42578 57.6724 1.42578C60.6021 1.42578 62.9653 3.76953 62.9653 6.71875Z" fill="black" fill-opacity="0.85"/>
  <path d="M25.895 19.0039L29.6412 24.5006C28.6381 24.521 27.6294 24.9361 26.8911 25.7617C26.4105 26.2702 26.069 26.8731 25.8918 27.5136C24.8755 26.0894 23.8266 24.6127 23.0825 23.5742C22.8286 23.2422 22.3989 23.3984 22.3989 23.7695C22.3989 26.0938 22.5356 31.9141 22.9458 34.7266C23.4146 37.832 27.0474 52.8711 27.2231 53.5352C27.6528 55.0781 26.6958 56.5039 25.1528 56.5039C23.981 56.5039 23.1997 55.8594 22.7896 54.3359C21.9497 51.2891 19.4106 40.8984 18.6099 38.3789C18.0435 36.6211 17.6138 35.8984 16.5786 35.8984C15.563 35.8984 15.1138 36.6211 14.5669 38.3789C13.7661 40.8984 11.2271 51.2891 10.3872 54.3359C9.95752 55.8594 9.1958 56.5039 8.02393 56.5039C6.48096 56.5039 5.52393 55.0781 5.95362 53.5352C6.1294 52.8711 9.76221 37.832 10.231 34.7266C10.6411 31.9141 10.7778 26.1133 10.7778 23.7891C10.7778 23.3984 10.3286 23.2617 10.0942 23.5742C8.3169 26.0742 4.80127 31.0352 4.13721 31.8359C3.39502 32.6953 2.22315 32.8711 1.24659 32.3242C0.0161165 31.6602-0.276852 30.332 0.250492 29.3945C0.465335 29.0039 0.738773 28.6133 1.01221 28.2031L7.28174 19.0039C9.46924 15.8203 12.1841 14.707 16.5786 14.707C20.9927 14.707 23.7075 15.8203 25.895 19.0039ZM21.8911 6.71875C21.8911 9.66797 19.5278 12.0117 16.5786 12.0117C13.6489 12.0117 11.3052 9.66797 11.3052 6.71875C11.3052 3.76953 13.6489 1.42578 16.5786 1.42578C19.5278 1.42578 21.8911 3.76953 21.8911 6.71875Z" fill="black" fill-opacity="0.85"/>
  <path d="M37.1255 29.1602C39.2935 29.1602 41.0903 27.4023 41.0903 25.2344C41.0903 23.0664 39.2935 21.3086 37.1255 21.3086C34.9575 21.3086 33.1997 23.0664 33.1997 25.2344C33.1997 27.4023 34.9575 29.1602 37.1255 29.1602ZM31.8716 56.5039C32.8091 56.5039 33.5708 55.957 33.8833 54.7461C34.4106 52.8906 35.9146 46.5039 36.4224 44.9414C36.7739 43.9062 36.8521 43.8086 37.1255 43.8086C37.3989 43.8086 37.4771 43.9062 37.8481 44.9414C38.3364 46.5039 39.8403 52.8906 40.3677 54.7461C40.6802 55.957 41.4419 56.5039 42.3794 56.5039C43.7661 56.5039 44.5864 55.2148 44.2349 53.9453C44.1177 53.5156 41.9497 44.3359 41.5981 42.4023C41.3638 40.8398 41.3052 37.7539 41.3052 36.5234C41.3052 35.8008 41.5396 35.3125 41.9302 34.8242C43.7271 32.5977 45.9731 30.0586 46.2661 29.6094C46.8325 28.7695 46.6177 27.7734 45.9536 27.0703C45.2114 26.2305 43.9224 26.25 43.2583 26.9336L40.6411 29.7266C39.5474 30.8984 38.6294 31.4453 37.1255 31.4453C35.6216 31.4453 34.7036 30.8984 33.6099 29.7266L30.9927 26.9336C30.3286 26.25 29.0396 26.2305 28.2974 27.0703C27.6333 27.7734 27.4185 28.7695 27.9849 29.6094C28.2778 30.0586 30.5239 32.5977 32.3208 34.8242C32.7114 35.3125 32.9458 35.8008 32.9458 36.5234C32.9458 37.7539 32.8872 40.8398 32.6528 42.4023C32.3013 44.3359 30.1333 53.5156 30.0161 53.9453C29.6646 55.2148 30.4849 56.5039 31.8716 56.5039Z" fill="black" fill-opacity="0.85"/>
 </g>
</svg>
