<?xml version="1.0" encoding="UTF-8"?>
<!--Generator: Apple Native CoreSVG 326-->
<!DOCTYPE svg
PUBLIC "-//W3C//DTD SVG 1.1//EN"
       "http://www.w3.org/Graphics/SVG/1.1/DTD/svg11.dtd">
<svg version="1.1" xmlns="http://www.w3.org/2000/svg" xmlns:xlink="http://www.w3.org/1999/xlink" viewBox="0 0 39.5859 58.1445">
 <g>
  <rect height="58.1445" opacity="0" width="39.5859" x="0" y="0"/>
  <path d="M33.5332 10.8203C36.5019 10.8203 38.9238 8.39844 38.9238 5.37109C38.9238 2.42188 36.5019 0 33.5332 0C30.5058 0 28.0839 2.42188 28.0839 5.37109C28.0839 8.39844 30.5058 10.8203 33.5332 10.8203ZM20.9941 49.1602C22.4199 49.1602 23.5918 48.0078 23.5918 46.6406L23.5918 33.6328C23.5918 33.0273 23.3769 32.4609 23.0058 32.0312L17.1269 24.8242C16.7558 24.3555 16.8925 23.8672 17.3418 23.6133L24.4902 19.9023C25.0175 19.6289 25.5449 19.8242 25.6425 20.4297L26.248 24.8242C26.3847 25.7812 26.9316 26.4453 27.9668 26.9531L35.0175 30.4883C36.8925 31.4453 38.4355 30.6641 38.9043 29.4336C39.373 28.2812 39.0214 26.8164 37.4589 26.0352L31.1504 22.8125L30.1152 15.332C29.5683 11.3477 25.1738 8.90625 20.955 11.0938L11.6582 15.957C7.38082 18.1836 6.79488 23.0664 9.99801 26.25L18.4941 34.7266L18.4941 46.6406C18.4941 48.0078 19.6464 49.1602 20.9941 49.1602ZM1.16988 33.1445C2.14644 34.8828 3.92379 35.3906 5.72066 35L11.0722 33.8281C11.8144 33.6523 12.2832 33.125 12.2832 32.3438C12.2832 31.582 11.7558 31.0156 11.0136 30.8984L1.89254 29.3164C0.330038 29.043-0.451212 30.2734 0.271444 31.543ZM5.6816 33.4766L12.4004 53.418L14.8418 52.5781L8.22066 32.7344ZM20.9355 57.9688C26.3847 57.9688 30.5644 53.7305 30.5644 48.3594C30.5644 44.7266 28.6113 41.6406 25.6621 39.9805L25.6621 43.3203C27.0488 44.5703 27.8496 46.3672 27.8496 48.3594C27.8496 52.168 24.7636 55.2539 20.9355 55.2539C17.205 55.2539 14.0605 52.0898 14.0605 48.3594C14.0605 46.3477 14.9785 44.4922 16.4043 43.2227L16.4043 39.9414C13.3964 41.5039 11.3261 44.6875 11.3261 48.3594C11.3261 53.7305 15.6425 57.9688 20.9355 57.9688ZM26.9902 52.8125L29.4902 53.6523L35.8769 34.3945C36.1113 33.6914 35.7402 32.9492 35.0957 32.7539C34.373 32.5391 33.7089 32.9102 33.455 33.6133ZM7.36129 56.0742C6.40426 56.7188 6.69723 58.1055 7.79098 58.1055L34.08 58.1055C35.1543 58.1055 35.4472 56.6602 34.5293 56.0742L28.7675 52.2852L23.5332 55.8984L18.3769 55.8984L13.123 52.2852Z" fill="black" fill-opacity="0.85"/>
 </g>
</svg>
