<?xml version="1.0" encoding="UTF-8"?>
<!--Generator: Apple Native CoreSVG 326-->
<!DOCTYPE svg
PUBLIC "-//W3C//DTD SVG 1.1//EN"
       "http://www.w3.org/Graphics/SVG/1.1/DTD/svg11.dtd">
<svg version="1.1" xmlns="http://www.w3.org/2000/svg" xmlns:xlink="http://www.w3.org/1999/xlink" viewBox="0 0 51.25 50.918">
 <g>
  <rect height="50.918" opacity="0" width="51.25" x="0" y="0"/>
  <path d="M25.4297 50.8789C39.4727 50.8789 50.8789 39.4922 50.8789 25.4492C50.8789 11.4062 39.4727 0 25.4297 0C11.3867 0 0 11.4062 0 25.4492C0 39.4922 11.3867 50.8789 25.4297 50.8789ZM25.4297 47.2461C13.3789 47.2461 3.63281 37.5 3.63281 25.4492C3.63281 13.3984 13.3789 3.65234 25.4297 3.65234C37.4805 3.65234 47.2266 13.3984 47.2266 25.4492C47.2266 37.5 37.4805 47.2461 25.4297 47.2461Z" fill="black" fill-opacity="0.85"/>
  <path d="M25.4102 18.9258C27.0898 18.9258 28.4375 17.5391 28.4375 15.8594C28.4375 14.1992 27.0898 12.832 25.4102 12.832C23.7305 12.832 22.3633 14.1992 22.3633 15.8594C22.3633 17.5391 23.7305 18.9258 25.4102 18.9258ZM12.4805 31.8359L19.4727 32.4219C20.7031 32.5195 20.9766 32.6172 22.168 32.9297L30.6836 35.332L37.4219 37.8125C38.0664 38.0469 39.0039 37.8125 39.2578 36.9727C39.4922 36.2305 39.1211 35.3906 38.418 35.1367L31.6797 32.6953C31.5625 32.6562 31.3086 32.5586 31.2109 32.5195L25.293 30.3711C26.0547 28.8477 27.1289 26.4258 27.4023 23.7891C27.4414 23.4766 27.6367 23.3203 27.9297 23.3203L38.1055 23.3203C38.9062 23.3203 39.5312 22.6758 39.5312 21.8945C39.5312 21.1133 38.9062 20.4883 38.1055 20.4883L26.9336 20.4883C25.0586 20.4883 24.8828 20.4883 22.832 19.9219L12.2461 16.9922C11.5039 16.7969 10.7227 17.2266 10.5078 17.9688C10.293 18.7305 10.7422 19.5117 11.5039 19.7266L21.3672 22.4414C21.6211 22.5195 21.7773 22.7148 21.7578 22.9883C21.4453 25.5078 20.2148 27.9102 19.5703 29.0039L14.0039 29.0039L14.0039 23.3203C14.0039 22.5391 13.3398 21.8945 12.5977 21.8945C11.7969 21.8945 11.1523 22.5391 11.1523 23.3203L11.1523 30.4102C11.1523 31.2305 11.5234 31.7578 12.4805 31.8359Z" fill="black" fill-opacity="0.85"/>
 </g>
</svg>
