<?xml version="1.0" encoding="UTF-8"?>
<!--Generator: Apple Native CoreSVG 326-->
<!DOCTYPE svg
PUBLIC "-//W3C//DTD SVG 1.1//EN"
       "http://www.w3.org/Graphics/SVG/1.1/DTD/svg11.dtd">
<svg version="1.1" xmlns="http://www.w3.org/2000/svg" xmlns:xlink="http://www.w3.org/1999/xlink" viewBox="0 0 23.3594 55.6445">
 <g>
  <rect height="55.6445" opacity="0" width="23.3594" x="0" y="0"/>
  <path d="M0 33.418C0 34.6289 0.976562 35.5859 2.16797 35.5859C3.37891 35.5859 4.35547 34.6289 4.35547 33.418L4.35547 23.8477C4.35547 23.418 4.6875 23.0664 5.13672 23.0664C5.56641 23.0664 5.91797 23.418 5.91797 23.8477L5.91797 52.832C5.91797 54.1602 6.97266 55.2344 8.30078 55.2344C9.62891 55.2344 10.7031 54.1602 10.7031 52.832L10.7031 35.1758C10.7031 34.7461 11.0547 34.375 11.5039 34.375C11.9336 34.375 12.3047 34.7461 12.3047 35.1758L12.3047 52.832C12.3047 54.1602 13.3594 55.2344 14.6875 55.2344C16.0156 55.2344 17.0898 54.1602 17.0898 52.832L17.0898 23.8477C17.0898 23.418 17.4219 23.0664 17.8711 23.0664C18.3008 23.0664 18.6523 23.418 18.6523 23.8477L18.6523 33.418C18.6523 34.6289 19.6094 35.5859 20.8203 35.5859C22.0312 35.5859 22.9883 34.6289 22.9883 33.418L22.9883 22.7344C22.9883 17.2656 19.0039 13.6523 13.2422 13.6523L9.74609 13.6523C4.00391 13.6523 0 17.2656 0 22.7344ZM11.5039 10.7617C14.4727 10.7617 16.875 8.35938 16.875 5.37109C16.875 2.38281 14.4727 0 11.5039 0C8.51562 0 6.11328 2.38281 6.11328 5.37109C6.11328 8.35938 8.51562 10.7617 11.5039 10.7617Z" fill="black" fill-opacity="0.85"/>
 </g>
</svg>
