<?xml version="1.0" encoding="UTF-8"?>
<!--Generator: Apple Native CoreSVG 326-->
<!DOCTYPE svg
PUBLIC "-//W3C//DTD SVG 1.1//EN"
       "http://www.w3.org/Graphics/SVG/1.1/DTD/svg11.dtd">
<svg version="1.1" xmlns="http://www.w3.org/2000/svg" xmlns:xlink="http://www.w3.org/1999/xlink" viewBox="0 0 41.3477 60.0977">
 <g>
  <rect height="60.0977" opacity="0" width="41.3477" x="0" y="0"/>
  <path d="M19.8242 11.9531C22.793 11.9531 25.2148 9.53125 25.2148 6.52344C25.2148 3.55469 22.793 1.13281 19.8242 1.13281C16.8164 1.13281 14.3945 3.55469 14.3945 6.52344C14.3945 9.53125 16.8164 11.9531 19.8242 11.9531ZM2.53906 59.5312C3.61328 60.0977 5.21484 59.8633 5.9375 58.5352L12.1875 47.2852L15.8984 38.9648C15.957 38.8086 16.1719 38.7305 16.3281 38.8672L26.25 46.0742L26.25 57.3047C26.25 58.6914 27.3828 59.8047 28.7695 59.8047C30.1562 59.8047 31.2695 58.6914 31.2695 57.3047L31.2695 44.9609C31.2695 44.2578 31.0547 43.5156 30.5078 42.9883L20.1758 33.2227L21.1328 25.3516C21.1523 25.0781 21.543 25.0391 21.6406 25.293L23.9453 30.7617C24.3555 31.7188 25.2344 32.3047 26.25 32.3047L36.875 32.3047C38.2617 32.3047 39.375 31.1914 39.375 29.8242C39.375 28.418 38.2617 27.3047 36.875 27.3047L27.8906 27.3047L24.3164 18.8867C23.3789 16.7188 21.9922 15.5078 18.8281 14.6289L17.3828 14.2188C13.9453 13.2422 11.6016 13.125 8.82812 14.3164L5.01953 15.957L5.01953 6.67969C5.01953 5.3125 3.86719 4.19922 2.5 4.19922C1.11328 4.19922 0 5.3125 0 6.67969L0 20.0586C0 21.8555 1.85547 22.8125 3.49609 22.1094L10.5859 19.0039C10.8984 18.8867 11.1914 19.082 11.1328 19.4141L7.57812 45.2734L1.54297 56.1133C0.898438 57.3047 1.30859 58.9062 2.53906 59.5312ZM35.332 23.3984L37.793 23.3984L37.793 1.23047C37.793 0.546875 37.2461 0 36.5625 0C35.8594 0 35.332 0.546875 35.332 1.23047ZM33.1055 24.9805L40.0195 24.9805C40.8594 24.9805 41.1328 24.2969 40.8984 23.5938C40.2344 21.6992 38.5352 20.3906 36.5625 20.3906C34.5703 20.3906 32.8711 21.6992 32.2266 23.5938C31.9922 24.2969 32.2461 24.9805 33.1055 24.9805Z" fill="black" fill-opacity="0.85"/>
 </g>
</svg>
