<?xml version="1.0" encoding="UTF-8"?>
<!--Generator: Apple Native CoreSVG 326-->
<!DOCTYPE svg
PUBLIC "-//W3C//DTD SVG 1.1//EN"
       "http://www.w3.org/Graphics/SVG/1.1/DTD/svg11.dtd">
<svg version="1.1" xmlns="http://www.w3.org/2000/svg" xmlns:xlink="http://www.w3.org/1999/xlink" viewBox="0 0 43.3221 60.6836">
 <g>
  <rect height="60.6836" opacity="0" width="43.3221" x="0" y="0"/>
  <path d="M19.5126 15.7422C22.4814 15.7422 24.8837 13.3594 24.8837 10.3516C24.8837 7.38281 22.4814 4.98047 19.5126 4.98047C16.5048 4.98047 14.1025 7.38281 14.1025 10.3516C14.1025 13.3594 16.5048 15.7422 19.5126 15.7422ZM5.84074 60.1562C7.24699 60.4102 8.51652 59.5117 8.78996 58.0664L11.1337 45.4102L21.0165 40.0391C21.29 39.8828 21.5243 39.9609 21.6415 40.2148L26.622 52.2461C26.8954 52.8906 27.3642 53.3203 27.9306 53.6328L39.122 59.8633C40.5478 60.6445 42.0321 60 42.6181 58.8867C43.3212 57.6562 42.872 56.0547 41.6415 55.3711L31.1923 49.5898L24.1611 21.3477C23.7314 19.6484 22.2665 18.4375 20.4501 18.4375L5.31339 18.4375L12.4032 3.37891C13.3603 1.34766 11.915 0 10.4306 0C9.59074 0 8.75089 0.449219 8.34074 1.46484L0.176675 22.7539C-0.21395 23.75 0.0790188 24.707 0.704019 25.332L7.03214 31.6797C7.98918 32.6367 9.64933 32.6367 10.6064 31.6797L13.4189 28.8672C13.79 28.4961 14.3564 28.4961 14.4931 29.043L16.0361 35.1172L7.26652 41.6797C6.66105 42.1289 6.36808 42.8711 6.25089 43.5742L3.77043 57.168C3.53605 58.5156 4.45402 59.8828 5.84074 60.1562ZM11.4462 23.5352L8.80949 26.1719L6.17277 23.5352Z" fill="black" fill-opacity="0.85"/>
 </g>
</svg>
