<?xml version="1.0" encoding="UTF-8"?>
<!--Generator: Apple Native CoreSVG 326-->
<!DOCTYPE svg
PUBLIC "-//W3C//DTD SVG 1.1//EN"
       "http://www.w3.org/Graphics/SVG/1.1/DTD/svg11.dtd">
<svg version="1.1" xmlns="http://www.w3.org/2000/svg" xmlns:xlink="http://www.w3.org/1999/xlink" viewBox="0 0 51.25 50.918">
 <g>
  <rect height="50.918" opacity="0" width="51.25" x="0" y="0"/>
  <path d="M25.4297 50.8789C39.4727 50.8789 50.8789 39.4922 50.8789 25.4492C50.8789 11.4062 39.4727 0 25.4297 0C11.3867 0 0 11.4062 0 25.4492C0 39.4922 11.3867 50.8789 25.4297 50.8789ZM25.4297 47.2461C13.3789 47.2461 3.63281 37.5 3.63281 25.4492C3.63281 13.3984 13.3789 3.65234 25.4297 3.65234C37.4805 3.65234 47.2266 13.3984 47.2266 25.4492C47.2266 37.5 37.4805 47.2461 25.4297 47.2461Z" fill="black" fill-opacity="0.85"/>
  <path d="M29.1406 14.7461C30.8398 14.7461 32.1875 13.418 32.1875 11.7188C32.1875 10.0586 30.8398 8.71094 29.1406 8.71094C27.4805 8.71094 26.1328 10.0586 26.1328 11.7188C26.1328 13.418 27.4805 14.7461 29.1406 14.7461ZM14.082 29.2188L22.0703 29.2188L29.4922 30.293C32.2656 30.6641 34.2578 29.4531 34.2578 26.8164L34.2578 21.7969C34.2578 21.543 34.5117 21.4453 34.707 21.6406L36.0742 23.0078L36.0742 27.7734C36.0742 28.5742 36.7188 29.2188 37.5 29.2188C38.3008 29.2188 38.9453 28.5742 38.9453 27.7734L38.9453 22.4023C38.9453 22.0117 38.8281 21.6797 38.5352 21.3867L35 17.8906C33.9648 16.8359 32.6172 16.2695 31.1523 16.2695L17.4219 16.2695C16.6406 16.2695 15.9766 16.9531 15.9766 17.7148C15.9766 18.5156 16.6211 19.1602 17.4219 19.1602L27.9883 19.1602C28.3984 19.1602 28.6914 19.4922 28.6914 19.8828L28.6914 26.3281L14.082 26.3281C13.2617 26.3281 12.6367 26.9727 12.6367 27.7734C12.6367 28.5742 13.2617 29.2188 14.082 29.2188ZM33.8477 41.5234C34.4141 40.9766 34.3945 40.0781 33.8477 39.5117L29.2383 34.8438L30.957 31.5039C30.4492 31.5234 29.9023 31.5039 29.3164 31.4453L27.3633 31.1523L26.0938 34.6484C25.8984 35.1758 26.0352 35.7422 26.4453 36.1523L31.8359 41.5234C32.3828 42.1094 33.2812 42.1094 33.8477 41.5234ZM9.90234 23.0859C11.6992 24.8828 13.7305 24.6875 14.4922 23.9258C15.2344 23.1641 15.293 21.2891 13.4961 19.4727C11.6602 17.6562 9.76562 17.6953 9.02344 18.4961C8.26172 19.2383 8.06641 21.25 9.90234 23.0859Z" fill="black" fill-opacity="0.85"/>
 </g>
</svg>
