<?xml version="1.0" encoding="UTF-8"?>
<!--Generator: Apple Native CoreSVG 326-->
<!DOCTYPE svg
PUBLIC "-//W3C//DTD SVG 1.1//EN"
       "http://www.w3.org/Graphics/SVG/1.1/DTD/svg11.dtd">
<svg version="1.1" xmlns="http://www.w3.org/2000/svg" xmlns:xlink="http://www.w3.org/1999/xlink" viewBox="0 0 51.25 50.918">
 <g>
  <rect height="50.918" opacity="0" width="51.25" x="0" y="0"/>
  <path d="M50.8789 25.4492C50.8789 39.4531 39.4531 50.8789 25.4297 50.8789C11.4258 50.8789 0 39.4531 0 25.4492C0 11.4258 11.4258 0 25.4297 0C39.4531 0 50.8789 11.4258 50.8789 25.4492ZM34.5312 14.6289L16.875 23.457L16.875 18.7305C16.875 17.9688 16.25 17.3438 15.4688 17.3438C14.6875 17.3438 14.043 17.9688 14.043 18.7305L14.043 25.8008C14.043 26.9336 15.1953 27.4414 16.0938 26.9922L21.0938 24.4922C21.3086 24.3555 21.582 24.5117 21.6602 24.7461L23.0859 30.5664L20.8398 36.2695L15.4688 36.2695C14.6875 36.2695 14.043 36.8945 14.043 37.6562C14.043 38.4375 14.6875 39.043 15.4688 39.043L21.7188 39.043C22.3242 39.043 22.7344 38.8086 23.0469 38.2227L26.0938 32.6172L27.7734 37.0898L22.4023 40.7031C21.7578 41.1328 21.5625 42.0312 22.0117 42.6562C22.4414 43.2812 23.2617 43.4766 23.9258 43.0078L30.3125 38.7695C30.8008 38.457 31.0352 38.0078 30.8203 37.1484L27.0312 22.1289C26.9336 21.7773 27.0117 21.4844 27.3828 21.3281L35.8203 17.1289C36.5039 16.7969 36.7969 15.9375 36.4453 15.2344C36.0742 14.5508 35.2539 14.2773 34.5312 14.6289ZM19.1992 15.7227C19.1992 17.4805 20.5664 18.8672 22.2852 18.8672C23.9844 18.8672 25.4102 17.4805 25.4102 15.7227C25.4102 14.0234 23.9844 12.6172 22.2852 12.6172C20.5664 12.6172 19.1992 14.0234 19.1992 15.7227ZM29.6094 10.6445C29.6094 12.207 30.8398 13.418 32.3828 13.418C33.8867 13.418 35.1172 12.207 35.1172 10.6445C35.1172 9.14062 33.8867 7.91016 32.3828 7.91016C30.8398 7.91016 29.6094 9.14062 29.6094 10.6445Z" fill="black" fill-opacity="0.85"/>
 </g>
</svg>
