<?xml version="1.0" encoding="UTF-8"?>
<!--Generator: Apple Native CoreSVG 326-->
<!DOCTYPE svg
PUBLIC "-//W3C//DTD SVG 1.1//EN"
       "http://www.w3.org/Graphics/SVG/1.1/DTD/svg11.dtd">
<svg version="1.1" xmlns="http://www.w3.org/2000/svg" xmlns:xlink="http://www.w3.org/1999/xlink" viewBox="0 0 51.25 50.918">
 <g>
  <rect height="50.918" opacity="0" width="51.25" x="0" y="0"/>
  <path d="M50.8789 25.4492C50.8789 39.4531 39.4531 50.8789 25.4297 50.8789C11.4258 50.8789 0 39.4531 0 25.4492C0 11.4258 11.4258 0 25.4297 0C39.4531 0 50.8789 11.4258 50.8789 25.4492ZM24.5117 37.0898C24.5117 37.5977 24.8828 37.9688 25.3906 37.9688C25.8789 37.9688 26.2695 37.5977 26.2695 37.0898C26.2695 36.582 25.8789 36.2109 25.3906 36.2109C24.8828 36.2109 24.5117 36.582 24.5117 37.0898ZM21.8164 36.6211C21.8164 37.1094 22.207 37.5 22.6953 37.5C23.1836 37.5 23.5742 37.1094 23.5742 36.6211C23.5742 36.1133 23.1836 35.7227 22.6953 35.7227C22.207 35.7227 21.8164 36.1133 21.8164 36.6211ZM27.2266 36.6211C27.2266 37.1094 27.5977 37.5 28.1055 37.5C28.6133 37.5 28.9844 37.1094 28.9844 36.6211C28.9844 36.1133 28.6133 35.7227 28.1055 35.7227C27.5977 35.7227 27.2266 36.1133 27.2266 36.6211ZM8.78906 36.2695C8.78906 36.7773 9.16016 37.1484 9.66797 37.1484C10.1758 37.1484 10.5273 36.7773 10.5273 36.2695C10.5273 35.7617 10.1758 35.4102 9.66797 35.4102C9.16016 35.4102 8.78906 35.7617 8.78906 36.2695ZM11.3086 36.2695C11.3086 36.7773 11.6797 37.1484 12.1875 37.1484C12.6758 37.1484 13.0469 36.7773 13.0469 36.2695C13.0469 35.7617 12.6758 35.4102 12.1875 35.4102C11.6797 35.4102 11.3086 35.7617 11.3086 36.2695ZM37.7344 36.2695C37.7344 36.7773 38.125 37.1484 38.6133 37.1484C39.1211 37.1484 39.5117 36.7773 39.5117 36.2695C39.5117 35.7617 39.1211 35.4102 38.6133 35.4102C38.125 35.4102 37.7344 35.7617 37.7344 36.2695ZM40.293 36.2695C40.293 36.7773 40.6836 37.1484 41.1719 37.1484C41.6602 37.1484 42.0508 36.7773 42.0508 36.2695C42.0508 35.7617 41.6602 35.4102 41.1719 35.4102C40.6836 35.4102 40.293 35.7617 40.293 36.2695ZM13.8672 35.4297C13.8672 35.9375 14.2383 36.3086 14.7266 36.3086C15.2344 36.3086 15.6055 35.9375 15.6055 35.4297C15.6055 34.9414 15.2344 34.5703 14.7266 34.5703C14.2383 34.5703 13.8672 34.9414 13.8672 35.4297ZM19.2578 35.4297C19.2578 35.9375 19.6484 36.3086 20.1562 36.3086C20.6445 36.3086 21.0352 35.9375 21.0352 35.4297C21.0352 34.9414 20.6445 34.5703 20.1562 34.5703C19.6484 34.5703 19.2578 34.9414 19.2578 35.4297ZM29.7852 35.4297C29.7852 35.9375 30.1562 36.3086 30.6445 36.3086C31.1523 36.3086 31.5234 35.9375 31.5234 35.4297C31.5234 34.9414 31.1523 34.5703 30.6445 34.5703C30.1562 34.5703 29.7852 34.9414 29.7852 35.4297ZM35.1953 35.4297C35.1953 35.9375 35.5859 36.3086 36.0742 36.3086C36.582 36.3086 36.9727 35.9375 36.9727 35.4297C36.9727 34.9414 36.582 34.5703 36.0742 34.5703C35.5859 34.5703 35.1953 34.9414 35.1953 35.4297ZM16.5625 34.7852C16.5625 35.293 16.9531 35.6836 17.4414 35.6836C17.9297 35.6836 18.3203 35.293 18.3203 34.7852C18.3203 34.2969 17.9297 33.9062 17.4414 33.9062C16.9531 33.9062 16.5625 34.2969 16.5625 34.7852ZM32.5 34.7852C32.5 35.293 32.8711 35.6836 33.3789 35.6836C33.8867 35.6836 34.2383 35.293 34.2383 34.7852C34.2383 34.2969 33.8867 33.9062 33.3789 33.9062C32.8711 33.9062 32.5 34.2969 32.5 34.7852ZM25.3906 32.3828C22.6172 32.3828 21.6406 29.9609 17.9297 29.9609C14.2188 29.9609 13.2422 32.3828 10.4883 32.3828L9.58984 32.3828C9.16016 32.3828 8.78906 32.7539 8.78906 33.1641C8.78906 33.6133 9.16016 33.9844 9.58984 33.9844L10.4883 33.9844C14.375 33.9844 15.2539 31.582 17.9297 31.582C20.6055 31.582 21.5039 33.9844 25.3906 33.9844C29.2578 33.9844 30.1367 31.582 32.832 31.582C35.4883 31.582 36.3867 33.9844 40.2734 33.9844L41.2305 33.9844C41.6797 33.9844 42.0508 33.6133 42.0508 33.1641C42.0508 32.7539 41.6797 32.3828 41.2305 32.3828L40.2734 32.3828C37.5 32.3828 36.5625 29.9609 32.832 29.9609C29.1406 29.9609 28.1641 32.3828 25.3906 32.3828ZM12.8711 15.1562C12.0703 15.4102 11.6211 16.2891 11.8359 17.0312L14.082 24.4531C14.2773 25.1367 14.8242 25.7031 15.5664 25.7031L19.6484 25.7031C19.9414 25.7031 20.1367 25.9375 20.0391 26.25L19.4141 27.9883C22.5 28.418 23.1445 30.2539 25.3906 30.2539C25.4688 30.2539 25.5469 30.2539 25.625 30.2344L27.0117 26.3281C27.1484 25.8789 27.4219 25.7031 27.8906 25.7031L40.5664 25.7031C41.4062 25.7031 42.1094 25.0195 42.1094 24.1602C42.1094 23.3594 41.4062 22.6562 40.5664 22.6562L16.7188 22.6562L14.7461 16.2109C14.4922 15.3906 13.6523 14.9023 12.8711 15.1562ZM23.0469 18.0859C23.0469 19.7852 24.4727 21.1914 26.1719 21.1914C27.8711 21.1914 29.2969 19.7852 29.2969 18.0859C29.2969 16.3672 27.8711 14.9609 26.1719 14.9609C24.4727 14.9609 23.0469 16.3672 23.0469 18.0859ZM15.4883 13.5352C15.4883 14.7656 16.4844 15.7617 17.6953 15.7617C18.9258 15.7617 19.9219 14.7656 19.9219 13.5352C19.9219 12.3242 18.9258 11.3281 17.6953 11.3281C16.4844 11.3281 15.4883 12.3242 15.4883 13.5352Z" fill="black" fill-opacity="0.85"/>
 </g>
</svg>
