<?xml version="1.0" encoding="UTF-8"?>
<!--Generator: Apple Native CoreSVG 326-->
<!DOCTYPE svg
PUBLIC "-//W3C//DTD SVG 1.1//EN"
       "http://www.w3.org/Graphics/SVG/1.1/DTD/svg11.dtd">
<svg version="1.1" xmlns="http://www.w3.org/2000/svg" xmlns:xlink="http://www.w3.org/1999/xlink" viewBox="0 0 51.25 50.918">
 <g>
  <rect height="50.918" opacity="0" width="51.25" x="0" y="0"/>
  <path d="M50.8789 25.4492C50.8789 39.4531 39.4531 50.8789 25.4297 50.8789C11.4258 50.8789 0 39.4531 0 25.4492C0 11.4258 11.4258 0 25.4297 0C39.4531 0 50.8789 11.4258 50.8789 25.4492ZM20.8398 15.3906C19.6484 15.3906 18.6523 15.7422 17.6953 16.6797L14.9023 19.5312C13.9453 20.4688 14.4727 22.0312 15.7617 22.0312L18.418 22.0312L17.832 23.7305C17.5391 24.6484 17.4023 25.5859 17.4023 26.5039L17.4023 33.9648L13.0469 38.9453C12.4805 39.5703 12.5391 40.4883 13.1641 41.0547C13.7695 41.543 14.6875 41.5039 15.2539 40.8789L19.9023 35.5664C20.1758 35.2344 20.332 34.9023 20.3711 34.5117L21.0156 28.2031C21.0352 28.0273 21.2695 27.9492 21.3867 28.1055L25.5078 32.8711L25.5078 40.1953C25.5078 40.9961 26.1719 41.6797 26.9922 41.6797C27.7734 41.6797 28.457 40.9961 28.457 40.1953L28.457 32.3633C28.457 31.9727 28.3398 31.7188 28.1445 31.4453L23.8086 25.1172L25.918 18.8086C26.0352 18.457 26.2695 18.3398 26.582 18.3398L35.8984 18.3398C36.2109 19.2188 37.0312 19.8242 38.0078 19.8242C39.1992 19.8242 40.2148 18.8477 40.2148 17.5977C40.2148 16.4062 39.1992 15.3906 38.0078 15.3906ZM22.4023 10.7227C22.4023 12.4414 23.7695 13.8281 25.5078 13.8281C27.207 13.8281 28.5742 12.4414 28.5742 10.7227C28.5742 9.00391 27.207 7.63672 25.5078 7.63672C23.7695 7.63672 22.4023 9.00391 22.4023 10.7227Z" fill="black" fill-opacity="0.85"/>
 </g>
</svg>
