<?xml version="1.0" encoding="UTF-8"?>
<!--Generator: Apple Native CoreSVG 326-->
<!DOCTYPE svg
PUBLIC "-//W3C//DTD SVG 1.1//EN"
       "http://www.w3.org/Graphics/SVG/1.1/DTD/svg11.dtd">
<svg version="1.1" xmlns="http://www.w3.org/2000/svg" xmlns:xlink="http://www.w3.org/1999/xlink" viewBox="0 0 26.1578 55.3067">
 <g>
  <rect height="55.3067" opacity="0" width="26.1578" x="0" y="0"/>
  <path d="M0.00270931 2.29202L0.471459 11.0225C0.549584 12.5655 1.13552 13.4834 2.26833 14.3037L7.65896 18.2491C8.32302 18.7178 8.71365 19.0889 8.71365 20.2608L8.71365 52.7217C8.71365 54.0694 9.76833 55.1241 11.0965 55.1241C12.4246 55.1241 13.4988 54.0694 13.4988 52.7217L13.4988 35.2022C13.4988 34.7725 13.8699 34.4014 14.2996 34.4014C14.7293 34.4014 15.1004 34.7725 15.1004 35.2022L15.1004 52.7217C15.1004 54.0694 16.1551 55.1241 17.4832 55.1241C18.8113 55.1241 19.8855 54.0694 19.8855 52.7217L19.8855 23.8741C19.8855 23.4444 20.2371 23.0928 20.6668 23.0928C21.0965 23.0928 21.448 23.4444 21.448 23.8741L21.448 33.4444C21.448 34.6553 22.4051 35.6123 23.616 35.6123C24.8269 35.6123 25.784 34.6553 25.784 33.4444L25.784 22.7608C25.784 17.292 21.7996 13.6592 16.0574 13.6592L10.9988 13.6592C9.51443 13.6592 8.59646 13.3858 7.40505 12.5264L4.8074 10.6709L4.33865 2.07718C4.28005 0.866238 3.26443-0.0907929 2.05349 0.00686332C0.842553 0.10452-0.0558844 1.10061 0.00270931 2.29202ZM14.2996 10.8272C17.2879 10.8272 19.6707 8.42483 19.6707 5.43655C19.6707 2.44827 17.2879 0.0654571 14.2996 0.0654571C11.3113 0.0654571 8.90896 2.44827 8.90896 5.43655C8.90896 8.42483 11.3113 10.8272 14.2996 10.8272Z" fill="black" fill-opacity="0.85"/>
 </g>
</svg>
