<?xml version="1.0" encoding="UTF-8"?>
<!--Generator: Apple Native CoreSVG 326-->
<!DOCTYPE svg
PUBLIC "-//W3C//DTD SVG 1.1//EN"
       "http://www.w3.org/Graphics/SVG/1.1/DTD/svg11.dtd">
<svg version="1.1" xmlns="http://www.w3.org/2000/svg" xmlns:xlink="http://www.w3.org/1999/xlink" viewBox="0 0 48.1641 59.0039">
 <g>
  <rect height="59.0039" opacity="0" width="48.1641" x="0" y="0"/>
  <path d="M5.42969 10.8398C8.39844 10.8398 10.8203 8.41797 10.8203 5.39062C10.8203 2.42188 8.39844 0 5.42969 0C2.42188 0 0 2.42188 0 5.39062C0 8.41797 2.42188 10.8398 5.42969 10.8398ZM2.59766 31.0938L12.8516 31.0938L13.4766 31.7188C14.707 32.9492 16.3867 33.5742 18.0273 33.5742C19.3945 33.5742 20.7031 33.1641 21.8555 32.3047L34.2578 23.0273L46.5625 15.625C47.7539 14.9219 48.1445 13.3984 47.4609 12.1875C46.7188 11.0156 45.2148 10.6445 44.0039 11.3672L20.5664 25.3906L14.043 18.8672C13.8672 18.7109 13.9648 18.4961 14.1797 18.4961L20.1562 18.4961C21.543 18.4961 22.6953 17.3828 22.6953 15.9961L22.6953 5.05859C22.6953 3.63281 21.543 2.51953 20.1562 2.51953C18.7695 2.51953 17.6562 3.63281 17.6562 5.05859L17.6562 13.5352L5.05859 13.5352C2.34375 13.5352 0.078125 15.7422 0.078125 18.4961L0.078125 28.5938C0.078125 29.9414 1.19141 31.0938 2.59766 31.0938ZM4.90234 26.2109L4.90234 23.8281C4.90234 23.4766 5.29297 23.2812 5.54688 23.5352L8.18359 26.2109ZM18.3984 58.6914C19.6875 58.9258 21.1133 58.0859 21.3867 56.6992L23.9062 44.1406C23.9648 43.8477 23.9648 43.5742 23.9258 43.2422L23.457 34.0039C21.6992 35.332 19.8633 35.8984 18.0273 35.8984C17.793 35.8984 17.5391 35.8789 17.3047 35.8594L18.8477 43.6523L16.4453 55.7031C16.1719 57.0703 17.0703 58.418 18.3984 58.6914ZM21.4258 8.78906C23.4961 8.78906 25.1953 7.12891 25.1953 5.05859C25.1953 2.94922 23.4961 1.26953 21.4258 1.26953C19.3555 1.26953 17.6562 2.94922 17.6562 5.05859C17.6562 7.12891 19.3555 8.78906 21.4258 8.78906Z" fill="black" fill-opacity="0.85"/>
 </g>
</svg>
