<?xml version="1.0" encoding="UTF-8"?>
<!--Generator: Apple Native CoreSVG 326-->
<!DOCTYPE svg
PUBLIC "-//W3C//DTD SVG 1.1//EN"
       "http://www.w3.org/Graphics/SVG/1.1/DTD/svg11.dtd">
<svg version="1.1" xmlns="http://www.w3.org/2000/svg" xmlns:xlink="http://www.w3.org/1999/xlink" viewBox="0 0 51.25 50.918">
 <g>
  <rect height="50.918" opacity="0" width="51.25" x="0" y="0"/>
  <path d="M25.4297 50.8789C39.4727 50.8789 50.8789 39.4922 50.8789 25.4492C50.8789 11.4062 39.4727 0 25.4297 0C11.3867 0 0 11.4062 0 25.4492C0 39.4922 11.3867 50.8789 25.4297 50.8789ZM25.4297 47.2461C13.3789 47.2461 3.63281 37.5 3.63281 25.4492C3.63281 13.3984 13.3789 3.65234 25.4297 3.65234C37.4805 3.65234 47.2266 13.3984 47.2266 25.4492C47.2266 37.5 37.4805 47.2461 25.4297 47.2461Z" fill="black" fill-opacity="0.85"/>
  <path d="M10.6445 32.6953L10.8789 32.6953C14.6484 32.6953 15.5273 30.3711 18.1445 30.3711C20.7617 30.3711 21.6406 32.6953 25.4102 32.6953C29.1992 32.6953 30.0586 30.3711 32.6953 30.3711C35.3125 30.3711 36.1719 32.6953 39.9609 32.6953L40.1953 32.6953C40.5859 32.6953 40.9766 32.3828 40.9766 31.9141C40.9766 31.5234 40.5859 31.1328 40.1953 31.1328L39.9609 31.1328C37.2656 31.1328 36.3281 28.8281 32.6953 28.8281C29.082 28.8281 28.125 31.1328 25.4102 31.1328C22.6953 31.1328 21.7383 28.8281 18.1445 28.8281C14.5117 28.8281 13.5742 31.1328 10.8789 31.1328L10.6445 31.1328C10.2344 31.1328 9.86328 31.5234 9.86328 31.9141C9.86328 32.3828 10.2344 32.6953 10.6445 32.6953ZM10.6445 36.543L10.8789 36.543C14.6484 36.543 15.5273 34.2188 18.1445 34.2188C20.7617 34.2188 21.6406 36.543 25.4102 36.543C29.1992 36.543 30.0586 34.2188 32.6953 34.2188C35.3125 34.2188 36.1719 36.543 39.9609 36.543L40.1953 36.543C40.5859 36.543 40.9766 36.1914 40.9766 35.7617C40.9766 35.332 40.5859 34.9805 40.1953 34.9805L39.9609 34.9805C37.2656 34.9805 36.3281 32.6562 32.6953 32.6562C29.082 32.6562 28.125 34.9805 25.4102 34.9805C22.6953 34.9805 21.7383 32.6562 18.1445 32.6562C14.5117 32.6562 13.5742 34.9805 10.8789 34.9805L10.6445 34.9805C10.2344 34.9805 9.86328 35.332 9.86328 35.7617C9.86328 36.1914 10.2344 36.543 10.6445 36.543ZM22.6953 14.5703C22.6953 14.9805 23.0273 15.293 23.418 15.293C24.668 15.293 25.4492 15.5273 26.2695 16.4062C26.5625 16.7383 26.8359 16.8945 27.1484 16.8945C27.4609 16.8945 27.7344 16.7383 28.0273 16.4062C28.8477 15.5273 29.6289 15.293 30.8789 15.293C31.2695 15.293 31.6016 14.9805 31.6016 14.5703C31.6016 14.1602 31.2695 13.8672 30.8594 13.8672C29.3164 13.8672 28.3008 14.2188 27.1484 15.2734C25.9961 14.2188 24.9805 13.8672 23.4375 13.8672C23.0273 13.8672 22.6953 14.1602 22.6953 14.5703ZM20.9766 27.3047C22.5195 27.9688 23.418 29.043 25.4102 29.043C27.7148 29.043 28.4766 27.5781 30.5859 26.9922L22.8516 18.9453C22.2266 18.3203 21.2891 18.2422 20.5469 18.7695L15.0977 22.6367C14.1602 23.3008 14.2578 24.3164 14.8047 24.8828C15.2539 25.3906 16.0547 25.5859 16.8359 25.0391L21.2695 21.9141L23.7695 24.4922C24.0625 24.7852 24.1211 25.1953 23.7109 25.4883ZM32.7344 25.3711C34.4141 25.3711 35.7617 24.0234 35.7617 22.3438C35.7617 20.6445 34.4141 19.2969 32.7344 19.2969C31.0547 19.2969 29.707 20.6445 29.707 22.3438C29.707 24.0234 31.0547 25.3711 32.7344 25.3711Z" fill="black" fill-opacity="0.85"/>
 </g>
</svg>
