<?xml version="1.0" encoding="UTF-8"?>
<!--Generator: Apple Native CoreSVG 326-->
<!DOCTYPE svg
PUBLIC "-//W3C//DTD SVG 1.1//EN"
       "http://www.w3.org/Graphics/SVG/1.1/DTD/svg11.dtd">
<svg version="1.1" xmlns="http://www.w3.org/2000/svg" xmlns:xlink="http://www.w3.org/1999/xlink" viewBox="0 0 51.25 50.918">
 <g>
  <rect height="50.918" opacity="0" width="51.25" x="0" y="0"/>
  <path d="M50.8789 25.4492C50.8789 39.4531 39.4531 50.8789 25.4297 50.8789C11.4258 50.8789 0 39.4531 0 25.4492C0 11.4258 11.4258 0 25.4297 0C39.4531 0 50.8789 11.4258 50.8789 25.4492ZM34.3359 20.5078C33.0664 20.5078 31.8555 20.8984 30.8594 21.6602L26.7383 24.7461L20.6641 23.5352C19.3945 23.2617 18.3984 23.8281 18.3984 25.1758L18.3984 28.5742L9.33594 30.8594C8.37891 31.1133 8.02734 31.8359 8.125 32.5195C8.24219 33.2422 8.94531 33.9258 10 33.6719L18.3984 31.5625L18.3984 33.5352C18.3984 34.3359 19.043 34.9609 19.8438 34.9609C20.6445 34.9609 21.2891 34.3359 21.2891 33.5352L21.2891 31.0352L27.4023 30.1172C28.4961 29.9414 29.5898 29.4727 30.5273 28.7695L35.7812 24.8242C35.9766 24.6875 36.2695 24.707 36.3672 24.9414L37.9102 28.0859L37.9102 33.5352C37.9102 34.3945 38.5547 34.9609 39.3945 34.9609C40.2539 34.9609 40.8203 34.3945 40.8203 33.5352L40.8203 27.7539C40.8203 27.5 40.7812 27.2852 40.6836 27.0898L38.2031 22.1094C37.6953 21.1133 36.7188 20.5078 35.625 20.5078ZM28.1836 30.6055C26.9727 30.6055 25.9961 31.582 25.9961 32.793C25.9961 34.0039 26.9727 34.9609 28.1836 34.9609L33.9648 34.9609C35.1367 34.9609 36.1133 34.0039 36.1133 32.793C36.1133 31.582 35.1367 30.6055 33.9648 30.6055ZM34.9609 32.793C34.9609 33.3398 34.4922 33.8086 33.9453 33.8086C33.3789 33.8086 32.9102 33.3398 32.9102 32.793C32.9102 32.2266 33.3789 31.7773 33.9453 31.7773C34.4922 31.7773 34.9609 32.2266 34.9609 32.793ZM23.2812 27.3828L21.2891 27.8711L21.2891 26.7773ZM31.9336 15.8789C31.9336 17.6367 33.3203 19.0234 35.0586 19.0234C36.7773 19.0234 38.1836 17.6367 38.1836 15.8789C38.1836 14.1797 36.7773 12.8125 35.0586 12.8125C33.3203 12.8125 31.9336 14.1797 31.9336 15.8789Z" fill="black" fill-opacity="0.85"/>
 </g>
</svg>
