<?xml version="1.0" encoding="UTF-8"?>
<!--Generator: Apple Native CoreSVG 326-->
<!DOCTYPE svg
PUBLIC "-//W3C//DTD SVG 1.1//EN"
       "http://www.w3.org/Graphics/SVG/1.1/DTD/svg11.dtd">
<svg version="1.1" xmlns="http://www.w3.org/2000/svg" xmlns:xlink="http://www.w3.org/1999/xlink" viewBox="0 0 61.543 63.1836">
 <g>
  <rect height="63.1836" opacity="0" width="61.543" x="0" y="0"/>
  <path d="M46.5107 6.95313L14.6805 6.95313C14.8057 5.18354 15.9546 4.16016 17.832 4.16016L43.3398 4.16016C45.2172 4.16016 46.3835 5.18354 46.5107 6.95313Z" fill="black" fill-opacity="0.85"/>
  <path d="M51.5514 13.7887C50.8512 13.6817 50.1095 13.6328 49.3359 13.6328L11.8359 13.6328C11.0621 13.6328 10.3205 13.6813 9.62066 13.7875C9.88629 11.7108 11.3173 10.5469 13.6133 10.5469L47.5586 10.5469C49.8551 10.5469 51.2861 11.7112 51.5514 13.7887Z" fill="black" fill-opacity="0.85"/>
  <path d="M8.30078 58.9453L52.8711 58.9453C55.4492 58.9453 57.0508 57.3633 57.0508 54.8242L57.0508 21.9922C57.0508 19.4727 55.4492 17.8711 52.8711 17.8711L8.30078 17.8711C5.72266 17.8711 4.14062 19.4727 4.14062 21.9922L4.14062 54.8242C4.14062 57.3633 5.72266 58.9453 8.30078 58.9453ZM8.18359 26.1328C7.51953 26.1328 7.08984 25.6641 7.08984 25.0781L7.08984 22.2461C7.08984 21.4844 7.53906 20.9961 8.32031 20.9961L11.4844 20.9961C12.1289 20.9961 12.5391 21.4258 12.5391 22.0898L12.5391 25.0781C12.5391 25.6641 12.1289 26.1328 11.4844 26.1328ZM8.18359 33.6133C7.51953 33.6133 7.08984 33.125 7.08984 32.5781L7.08984 29.6289C7.08984 29.0039 7.48047 28.5352 8.18359 28.5352L11.4844 28.5352C12.1289 28.5352 12.5391 29.0039 12.5391 29.6289L12.5391 32.5781C12.5391 33.125 12.1289 33.6133 11.4844 33.6133ZM8.18359 40.957C7.51953 40.957 7.08984 40.4688 7.08984 39.8633L7.08984 37.0117C7.08984 36.2891 7.48047 35.8594 8.18359 35.8594L11.4844 35.8594C12.1289 35.8594 12.5391 36.2891 12.5391 37.0117L12.5391 39.8633C12.5391 40.4688 12.1289 40.957 11.4844 40.957ZM8.18359 48.2812C7.51953 48.2812 7.08984 47.8125 7.08984 47.2461L7.08984 44.3359C7.08984 43.6719 7.48047 43.2227 8.18359 43.2227L11.4844 43.2227C12.1289 43.2227 12.5391 43.6719 12.5391 44.3359L12.5391 47.2461C12.5391 47.8125 12.1289 48.2812 11.4844 48.2812ZM8.32031 55.8203C7.53906 55.8203 7.08984 55.3125 7.08984 54.5898L7.08984 51.7578C7.08984 51.1328 7.51953 50.6836 8.18359 50.6836L11.4844 50.6836C12.1289 50.6836 12.5391 51.1328 12.5391 51.7578L12.5391 54.7266C12.5391 55.3516 12.1289 55.8203 11.4844 55.8203ZM16.3672 36.8359C15.7422 36.8359 15.3516 36.4844 15.3516 35.8008L15.3516 22.0117C15.3516 21.3672 15.7422 20.9961 16.3672 20.9961L44.8047 20.9961C45.4297 20.9961 45.8203 21.3672 45.8203 22.0117L45.8203 35.8008C45.8203 36.4844 45.4297 36.8359 44.8047 36.8359ZM16.3672 55.8203C15.7422 55.8203 15.3516 55.4297 15.3516 54.7852L15.3516 41.0547C15.3516 40.3906 15.7422 40.0195 16.3672 40.0195L44.8047 40.0195C45.4297 40.0195 45.8203 40.3906 45.8203 41.0547L45.8203 54.7852C45.8203 55.4297 45.4297 55.8203 44.8047 55.8203ZM49.6875 26.1328C49.0625 26.1328 48.6328 25.6641 48.6328 25.0781L48.6328 22.0898C48.6328 21.4258 49.0625 20.9961 49.6875 20.9961L52.832 20.9961C53.6328 20.9961 54.1016 21.4844 54.1016 22.2461L54.1016 25.0781C54.1016 25.6641 53.6523 26.1328 52.9883 26.1328ZM49.6875 33.6133C49.0625 33.6133 48.6328 33.125 48.6328 32.5781L48.6328 29.6289C48.6328 29.0039 49.0625 28.5352 49.6875 28.5352L52.9883 28.5352C53.6719 28.5352 54.1016 29.0039 54.1016 29.6289L54.1016 32.5781C54.1016 33.125 53.6523 33.6133 52.9883 33.6133ZM49.6875 40.957C49.0625 40.957 48.6328 40.4688 48.6328 39.8633L48.6328 37.0117C48.6328 36.2891 49.0625 35.8594 49.6875 35.8594L52.9883 35.8594C53.6719 35.8594 54.1016 36.2891 54.1016 37.0117L54.1016 39.8633C54.1016 40.4688 53.6523 40.957 52.9883 40.957ZM49.6875 48.2812C49.0625 48.2812 48.6328 47.8125 48.6328 47.2461L48.6328 44.3359C48.6328 43.6719 49.0625 43.2227 49.6875 43.2227L52.9883 43.2227C53.6719 43.2227 54.1016 43.6719 54.1016 44.3359L54.1016 47.2461C54.1016 47.8125 53.6523 48.2812 52.9883 48.2812ZM49.6875 55.8203C49.0625 55.8203 48.6328 55.3516 48.6328 54.7266L48.6328 51.7578C48.6328 51.1328 49.0625 50.6836 49.6875 50.6836L52.9883 50.6836C53.6523 50.6836 54.1016 51.1328 54.1016 51.7578L54.1016 54.5898C54.1016 55.3125 53.6328 55.8203 52.832 55.8203Z" fill="black" fill-opacity="0.85"/>
 </g>
</svg>
