<?xml version="1.0" encoding="UTF-8"?>
<!--Generator: Apple Native CoreSVG 326-->
<!DOCTYPE svg
PUBLIC "-//W3C//DTD SVG 1.1//EN"
       "http://www.w3.org/Graphics/SVG/1.1/DTD/svg11.dtd">
<svg version="1.1" xmlns="http://www.w3.org/2000/svg" xmlns:xlink="http://www.w3.org/1999/xlink" viewBox="0 0 46.25 48.6914">
 <g>
  <rect height="48.6914" opacity="0" width="46.25" x="0" y="0"/>
  <path d="M4.04297 48.6914C4.96094 48.6914 5.68359 47.9492 5.68359 47.0312L5.68359 32.6172C6.40625 32.4023 8.75 31.4258 12.5977 31.4258C21.8359 31.4258 27.5391 35.957 36.3672 35.957C40.1758 35.957 41.7188 35.5273 43.5547 34.707C45.1758 33.9648 46.25 32.7734 46.25 30.7227L46.25 5.46875C46.25 4.19922 45.2344 3.49609 43.9258 3.49609C42.7148 3.49609 40.3906 4.58984 36.0547 4.58984C27.207 4.58984 21.5039 0.0585938 12.2852 0.0585938C8.47656 0.0585938 6.95312 0.488281 5.11719 1.30859C3.47656 2.05078 2.40234 3.24219 2.40234 5.29297L2.40234 47.0312C2.40234 47.9297 3.16406 48.6914 4.04297 48.6914ZM5.68359 21.6992L5.68359 13.1641C6.07422 12.3047 8.35938 11.1719 12.2852 11.1719C13.0859 11.1719 14.082 11.2109 14.9805 11.3086L14.9805 3.47656C18.3789 3.80859 21.3867 4.78516 24.4336 5.70312L24.4336 13.5352C27.6172 14.5312 30.625 15.332 33.8867 15.6055L33.8867 7.77344C34.5898 7.83203 35.3125 7.85156 36.0547 7.85156C38.7109 7.85156 40.957 7.55859 42.9883 6.97266L42.9883 14.8047C41.7188 15.1562 39.1797 15.6836 36.0547 15.6836C35.3125 15.6836 34.5508 15.6445 33.8867 15.6055L33.8867 24.1406C34.5117 24.1992 35.2148 24.2383 36.0547 24.2383C38.7109 24.2383 40.957 23.9258 42.9883 23.3398L42.9883 30.6836C42.5977 31.543 40.332 32.6758 36.3672 32.6758C35.5273 32.6758 34.707 32.6367 33.8867 32.5586L33.8867 24.1406C30.5078 23.7891 27.793 23.1641 24.4336 22.0898L24.4336 30.293C21.5039 29.4141 18.4766 28.5156 14.9805 28.2422L14.9805 19.8438C14.0625 19.7656 13.4766 19.707 12.2852 19.707C8.33984 19.707 6.07422 20.8398 5.68359 21.6992ZM14.9805 19.8438C18.457 20.2148 21.0938 21.0742 24.4336 22.0898L24.4336 13.5352C21.2891 12.5977 18.4766 11.6602 14.9805 11.3086Z" fill="black" fill-opacity="0.85"/>
 </g>
</svg>
