<?xml version="1.0" encoding="UTF-8"?>
<!--Generator: Apple Native CoreSVG 326-->
<!DOCTYPE svg
PUBLIC "-//W3C//DTD SVG 1.1//EN"
       "http://www.w3.org/Graphics/SVG/1.1/DTD/svg11.dtd">
<svg version="1.1" xmlns="http://www.w3.org/2000/svg" xmlns:xlink="http://www.w3.org/1999/xlink" viewBox="0 0 55.088 64.082">
 <g>
  <rect height="64.082" opacity="0" width="55.088" x="0" y="0"/>
  <path d="M40.2753 43.6363C31.7319 43.4755 26.0729 39.1211 17.0166 39.1211C13.169 39.1211 10.8252 40.0977 10.1026 40.3125L10.1026 54.7266C10.1026 55.6445 9.37992 56.3867 8.46196 56.3867C7.58305 56.3867 6.82133 55.625 6.82133 54.7266L6.82133 12.9883C6.82133 12.1005 7.02265 11.3737 7.38477 10.7753ZM40.4737 12.2852C44.8096 12.2852 47.1338 11.1914 48.3448 11.1914C49.6534 11.1914 50.669 11.8945 50.669 13.1641L50.669 38.418C50.669 39.4439 50.4002 40.2547 49.9285 40.9018L16.7676 7.75582C25.9497 7.77514 31.6468 12.2852 40.4737 12.2852Z" fill="black" fill-opacity="0.85"/>
  <path d="M49.5166 49.043C50.1807 49.6875 51.2549 49.6875 51.8799 49.043C52.5245 48.3789 52.5245 47.3438 51.8799 46.6797L8.38383 3.20312C7.7393 2.55859 6.66508 2.53906 6.00102 3.20312C5.37602 3.84766 5.37602 4.92188 6.00102 5.56641Z" fill="black" fill-opacity="0.85"/>
 </g>
</svg>
