<?xml version="1.0" encoding="UTF-8"?>
<!--Generator: Apple Native CoreSVG 326-->
<!DOCTYPE svg
PUBLIC "-//W3C//DTD SVG 1.1//EN"
       "http://www.w3.org/Graphics/SVG/1.1/DTD/svg11.dtd">
<svg version="1.1" xmlns="http://www.w3.org/2000/svg" xmlns:xlink="http://www.w3.org/1999/xlink" viewBox="0 0 51.25 50.918">
 <g>
  <rect height="50.918" opacity="0" width="51.25" x="0" y="0"/>
  <path d="M25.4297 50.8789C39.4727 50.8789 50.8789 39.4922 50.8789 25.4492C50.8789 11.4062 39.4727 0 25.4297 0C11.3867 0 0 11.4062 0 25.4492C0 39.4922 11.3867 50.8789 25.4297 50.8789ZM25.4297 47.2461C13.3789 47.2461 3.63281 37.5 3.63281 25.4492C3.63281 13.3984 13.3789 3.65234 25.4297 3.65234C37.4805 3.65234 47.2266 13.3984 47.2266 25.4492C47.2266 37.5 37.4805 47.2461 25.4297 47.2461Z" fill="black" fill-opacity="0.85"/>
  <path d="M25.5664 40.957C32.793 40.957 37.5977 36.0352 37.5977 28.6523C37.5977 16.3477 27.1484 11.1719 19.7656 11.1719C18.5742 11.1719 17.8711 11.6211 17.8711 12.4023C17.8711 12.7148 17.9883 13.0273 18.2617 13.3594C19.9023 15.332 21.582 17.7148 21.6016 20.3906C21.6016 21.0938 21.4844 21.7188 20.9961 22.4609L21.6406 22.3242C20.9961 20.3516 19.2578 18.9648 17.8906 18.9648C17.4023 18.9648 17.0703 19.3164 17.0703 19.8633C17.0703 20.1953 17.168 21.0547 17.168 21.6797C17.168 24.9609 14.7852 26.6797 14.7852 31.6211C14.7852 37.207 19.043 40.957 25.5664 40.957ZM25.8594 37.0312C23.3398 37.0312 21.6406 35.5078 21.6406 33.2227C21.6406 30.8398 23.3398 30 23.5742 28.4766C23.5742 28.3398 23.6523 28.3008 23.75 28.3789C24.3945 28.9258 24.7852 29.6289 25.1758 30.4102C25.8789 29.4336 26.2109 27.4023 25.957 25.1953C25.9375 25.0195 26.0156 24.9805 26.1328 25.0195C29.1016 26.4258 30.625 29.3555 30.625 31.9922C30.625 34.668 29.082 37.0312 25.8594 37.0312Z" fill="black" fill-opacity="0.85"/>
 </g>
</svg>
