<?xml version="1.0" encoding="UTF-8"?>
<!--Generator: Apple Native CoreSVG 326-->
<!DOCTYPE svg
PUBLIC "-//W3C//DTD SVG 1.1//EN"
       "http://www.w3.org/Graphics/SVG/1.1/DTD/svg11.dtd">
<svg version="1.1" xmlns="http://www.w3.org/2000/svg" xmlns:xlink="http://www.w3.org/1999/xlink" viewBox="0 0 46.9531 51.6602">
 <g>
  <rect height="51.6602" opacity="0" width="46.9531" x="0" y="0"/>
  <path d="M34.2969 1.79688C34.2969 2.77344 33.5547 3.61328 32.5 3.61328L32.2266 3.61328L32.2266 22.4219L44.8633 40.5664C46.0547 42.2852 46.582 43.9062 46.582 45.1367C46.582 48.75 44.1211 51.6211 40.0391 51.6211L6.52344 51.6211C2.46094 51.6211 0 48.75 0 45.1367C0 43.9062 0.449219 42.3828 1.54297 40.8203L14.3555 22.4219L14.3555 3.61328L14.082 3.61328C13.0078 3.61328 12.2656 2.77344 12.2656 1.79688C12.2656 0.800781 13.0078 0 14.082 0L32.5 0C33.5547 0 34.2969 0.800781 34.2969 1.79688ZM17.8125 21.6602L17.8125 24.2578L22.6367 24.2578C23.3594 24.2578 23.9258 23.6914 23.9258 22.9492C23.9258 22.2461 23.3398 21.6602 22.6367 21.6602ZM17.8125 14.707L17.8125 17.2852L22.6367 17.2852C23.3594 17.2852 23.9258 16.7188 23.9258 15.9766C23.9258 15.293 23.3203 14.707 22.6172 14.707ZM17.8125 7.73438L17.8125 10.332L22.6172 10.332C23.3398 10.332 23.9062 9.76562 23.9062 9.02344C23.9062 8.32031 23.3008 7.73438 22.5977 7.73438Z" fill="black" fill-opacity="0.85"/>
 </g>
</svg>
