<?xml version="1.0" encoding="UTF-8"?>
<!--Generator: Apple Native CoreSVG 326-->
<!DOCTYPE svg
PUBLIC "-//W3C//DTD SVG 1.1//EN"
       "http://www.w3.org/Graphics/SVG/1.1/DTD/svg11.dtd">
<svg version="1.1" xmlns="http://www.w3.org/2000/svg" xmlns:xlink="http://www.w3.org/1999/xlink" viewBox="0 0 40.7422 37.4805">
 <g>
  <rect height="37.4805" opacity="0" width="40.7422" x="0" y="0"/>
  <path d="M5.89844 37.3633C6.95312 37.3633 7.67578 36.6016 7.67578 35.4688L7.67578 13.5156L12.2266 13.5156C13.2031 13.5156 13.8281 12.9102 13.8281 11.9727C13.8281 11.0742 13.1836 10.4297 12.2266 10.4297L7.67578 10.4297L7.67578 7.32422C7.67578 4.45312 8.80859 3.16406 11.3281 3.16406C12.0117 3.16406 12.5781 3.14453 12.9102 3.04688C13.5742 2.8125 13.9062 2.42188 13.9062 1.75781C13.9062 0.625 12.793 0 10.6836 0C6.38672 0 4.08203 2.48047 4.08203 7.16797L4.08203 10.4297L1.60156 10.4297C0.644531 10.4297 0 11.0742 0 11.9727C0 12.9102 0.625 13.5156 1.60156 13.5156L4.08203 13.5156L4.08203 35.4688C4.08203 36.6211 4.80469 37.3633 5.89844 37.3633ZM20.2344 37.3633C21.2891 37.3633 22.0312 36.582 22.0312 35.4492L22.0312 21.2305C22.0312 16.2305 25.0977 12.9297 29.7461 12.9297C34.1602 12.9297 36.7773 15.625 36.7773 20.2344L36.7773 35.4492C36.7773 36.6016 37.5195 37.3633 38.5742 37.3633C39.6094 37.3633 40.3711 36.5625 40.3711 35.4492L40.3711 19.7461C40.3711 13.5742 36.6211 9.66797 30.6445 9.66797C26.4258 9.66797 22.9492 12.0312 21.8164 15.5859L21.8555 15.5859L21.8555 11.5234C21.8555 10.4492 21.1133 9.66797 20.1367 9.66797C19.1602 9.66797 18.418 10.4492 18.418 11.5234L18.418 35.4492C18.418 36.5625 19.1797 37.3633 20.2344 37.3633Z" fill="black" fill-opacity="0.85"/>
 </g>
</svg>
