<?xml version="1.0" encoding="UTF-8"?>
<!--Generator: Apple Native CoreSVG 326-->
<!DOCTYPE svg
PUBLIC "-//W3C//DTD SVG 1.1//EN"
       "http://www.w3.org/Graphics/SVG/1.1/DTD/svg11.dtd">
<svg version="1.1" xmlns="http://www.w3.org/2000/svg" xmlns:xlink="http://www.w3.org/1999/xlink" viewBox="0 0 57.1094 45.8789">
 <g>
  <rect height="45.8789" opacity="0" width="57.1094" x="0" y="0"/>
  <path d="M7.59766 45.6055L49.7266 45.6055C54.1992 45.6055 56.7383 43.0469 56.7383 38.0859L56.7383 12.168C56.7383 7.1875 54.1797 4.64844 49.1406 4.64844L24.8242 4.64844C22.9883 4.64844 21.9922 4.25781 20.6836 3.125L19.1992 1.875C17.5391 0.429688 16.3477 0 13.8281 0L6.66016 0C2.38281 0 0 2.36328 0 7.14844L0 38.0859C0 43.0664 2.55859 45.6055 7.59766 45.6055ZM7.67578 42.1484C4.94141 42.1484 3.45703 40.7031 3.45703 37.8906L3.45703 7.36328C3.45703 4.74609 4.80469 3.4375 7.34375 3.4375L12.9688 3.4375C14.7656 3.4375 15.7422 3.82812 17.0703 5L18.5547 6.25C20.1562 7.63672 21.4453 8.10547 23.9648 8.10547L49.082 8.10547C51.7578 8.10547 53.2812 9.55078 53.2812 12.3438L53.2812 37.9102C53.2812 40.7031 51.7578 42.1484 49.082 42.1484ZM2.08984 17.3633L54.668 17.3633L54.668 14.1016L2.08984 14.1016Z" fill="black" fill-opacity="0.85"/>
 </g>
</svg>
