<?xml version="1.0" encoding="UTF-8"?>
<!--Generator: Apple Native CoreSVG 326-->
<!DOCTYPE svg
PUBLIC "-//W3C//DTD SVG 1.1//EN"
       "http://www.w3.org/Graphics/SVG/1.1/DTD/svg11.dtd">
<svg version="1.1" xmlns="http://www.w3.org/2000/svg" xmlns:xlink="http://www.w3.org/1999/xlink" viewBox="0 0 51.25 50.918">
 <g>
  <rect height="50.918" opacity="0" width="51.25" x="0" y="0"/>
  <path d="M50.8789 25.4492C50.8789 39.4531 39.4531 50.8789 25.4297 50.8789C11.4258 50.8789 0 39.4531 0 25.4492C0 11.4258 11.4258 0 25.4297 0C39.4531 0 50.8789 11.4258 50.8789 25.4492ZM32.2656 15.5664C31.2695 15.5664 30.7617 16.0352 30.7617 17.0703L30.7617 24.7461C30.5859 24.4141 30.293 24.1016 29.8438 23.8477L17.2266 16.4258C16.7969 16.1523 16.3477 16.0156 15.918 16.0156C15.0195 16.0156 14.2578 16.6602 14.2578 17.9297L14.2578 33.0469C14.2578 34.3359 15.0195 34.9805 15.918 34.9805C16.3477 34.9805 16.7969 34.8242 17.2266 34.5703L29.8438 27.1289C30.293 26.875 30.5859 26.582 30.7617 26.2305L30.7617 33.8281C30.7617 34.8438 31.2695 35.3516 32.2656 35.3516L35.0586 35.3516C36.0352 35.3516 36.5625 34.8438 36.5625 33.8281L36.5625 17.0703C36.5625 16.0547 36.0352 15.5664 35.0586 15.5664Z" fill="black" fill-opacity="0.85"/>
 </g>
</svg>
