<?xml version="1.0" encoding="UTF-8"?>
<!--Generator: Apple Native CoreSVG 326-->
<!DOCTYPE svg
PUBLIC "-//W3C//DTD SVG 1.1//EN"
       "http://www.w3.org/Graphics/SVG/1.1/DTD/svg11.dtd">
<svg version="1.1" xmlns="http://www.w3.org/2000/svg" xmlns:xlink="http://www.w3.org/1999/xlink" viewBox="0 0 60.961 50.918">
 <g>
  <rect height="50.918" opacity="0" width="60.961" x="0" y="0"/>
  <path d="M30.295 50.8789C44.3379 50.8789 55.7246 39.4922 55.7246 25.4492C55.7246 11.4062 44.3379 0 30.295 0C16.252 0 4.86526 11.4062 4.86526 25.4492L8.49808 25.4492C8.49808 13.3984 18.2442 3.65234 30.295 3.65234C42.3457 3.65234 52.0918 13.3984 52.0918 25.4492C52.0918 37.5 42.3457 47.2461 30.295 47.2461C22.834 47.2461 16.1739 43.457 12.3653 37.7539C11.7207 36.875 10.7051 36.6016 9.80667 37.1484C8.94729 37.6562 8.69339 38.8477 9.39651 39.8047C13.9473 46.5039 21.6426 50.8789 30.295 50.8789ZM1.60354 20.7227C0.00198146 20.7227-0.447237 21.8164 0.470731 23.0859L6.01761 30.9766C6.75979 32.0508 7.83401 32.0312 8.55667 30.9766L14.1035 23.0664C14.9825 21.8164 14.5528 20.7227 12.9707 20.7227Z" fill="black" fill-opacity="0.85"/>
  <path d="M26.1348 37.0312C26.8965 37.0312 27.4629 36.4648 27.4629 35.6836L27.4629 32.8125L33.0098 32.8125C33.4395 32.8125 33.7715 32.4805 33.7715 32.0508C33.7715 31.6211 33.4395 31.2891 33.0098 31.2891L27.4629 31.2891L27.4629 26.582L35.9785 26.582C36.6621 26.582 37.17 26.0938 37.17 25.4492C37.17 24.8047 36.6621 24.3164 35.9785 24.3164L27.4629 24.3164L27.4629 16.7773L36.8575 16.7773C37.5606 16.7773 38.0684 16.2891 38.0684 15.6445C38.0684 14.9609 37.5606 14.4727 36.8575 14.4727L26.1543 14.4727C25.3145 14.4727 24.8067 14.9805 24.8067 15.8398L24.8067 31.2891L22.4043 31.2891C21.9746 31.2891 21.6426 31.6211 21.6426 32.0508C21.6426 32.4805 21.9746 32.8125 22.4043 32.8125L24.8067 32.8125L24.8067 35.6836C24.8067 36.4648 25.3535 37.0312 26.1348 37.0312Z" fill="black" fill-opacity="0.85"/>
 </g>
</svg>
