<?xml version="1.0" encoding="UTF-8"?>
<!--Generator: Apple Native CoreSVG 326-->
<!DOCTYPE svg
PUBLIC "-//W3C//DTD SVG 1.1//EN"
       "http://www.w3.org/Graphics/SVG/1.1/DTD/svg11.dtd">
<svg version="1.1" xmlns="http://www.w3.org/2000/svg" xmlns:xlink="http://www.w3.org/1999/xlink" viewBox="0 0 47.5293 46.9434">
 <g>
  <rect height="46.9434" opacity="0" width="47.5293" x="0" y="0"/>
  <path d="M41.665 41.5479C47.3096 35.9229 48.501 29.7314 45.4736 22.1729C44.0674 18.2471 41.958 14.165 39.4971 9.65332C38.6182 7.99316 37.583 5.92285 36.8604 5.18066C35.9424 4.2627 34.6338 4.34082 33.6963 5.29785C32.6807 6.31348 32.6416 7.56348 33.4229 9.79004L36.2939 17.4463C36.7041 18.501 36.5479 19.0479 36.001 19.7119C32.9346 23.2861 32.3486 27.6416 35.2979 30.8643C35.7275 31.3916 35.708 32.1338 35.2197 32.6221C34.7705 33.0908 33.9502 33.0713 33.501 32.5439C30.8643 29.6924 29.3408 24.1064 33.9111 18.3838L16.2744 0.74707C15.2783-0.249023 13.6182-0.249023 12.6416 0.74707C11.626 1.74316 11.626 3.38379 12.6416 4.39941L25.6494 17.4072C24.9268 17.7002 24.2236 18.0908 23.501 18.5596L8.22754 3.28613C7.21191 2.29004 5.59082 2.29004 4.5752 3.28613C3.5791 4.28223 3.5791 5.94238 4.5752 6.91895L19.6533 22.0166C19.1064 22.6807 18.5596 23.3643 18.0713 24.0479L4.39941 10.376C3.38379 9.37988 1.7627 9.37988 0.74707 10.376C-0.249023 11.3721-0.249023 13.0322 0.74707 14.0283L15.6104 28.8916C15.2783 29.8096 15.0439 30.6885 14.8877 31.5283L4.5752 21.2158C3.5791 20.2197 1.93848 20.2197 0.942383 21.2158C-0.0537109 22.2119-0.0537109 23.8525 0.942383 24.8486L17.2705 41.1963C25.1807 49.1064 34.7705 48.4229 41.665 41.5479Z" fill="black" fill-opacity="0.85"/>
 </g>
</svg>
