<?xml version="1.0" encoding="UTF-8"?>
<!--Generator: Apple Native CoreSVG 326-->
<!DOCTYPE svg
PUBLIC "-//W3C//DTD SVG 1.1//EN"
       "http://www.w3.org/Graphics/SVG/1.1/DTD/svg11.dtd">
<svg version="1.1" xmlns="http://www.w3.org/2000/svg" xmlns:xlink="http://www.w3.org/1999/xlink" viewBox="0 0 53.2031 41.0352">
 <g>
  <rect height="41.0352" opacity="0" width="53.2031" x="0" y="0"/>
  <path d="M53.2031 23.418C53.2031 15.1562 48.6523 8.24219 38.3789 4.80469L25.4297 0.507812C24.9805 0.332031 24.4922 0.214844 23.9062 0.214844C22.4023 0.214844 21.1523 1.34766 21.1523 3.14453C21.1523 4.31641 21.7383 5.19531 23.1055 5.78125L32.1484 9.66797C32.8516 9.96094 33.0859 10.3125 33.0859 10.7227C33.0859 11.1914 32.7148 11.6406 32.0312 11.6406L3.49609 11.6406C1.54297 11.6406 0.292969 12.8711 0.292969 14.6094C0.292969 16.2695 1.54297 17.5391 3.49609 17.5391L23.2812 17.5391C24.2383 17.5391 24.7266 18.0273 24.7266 18.6523C24.7266 19.2188 24.2383 19.707 23.2812 19.707L17.1875 19.707C16.3086 19.707 15.8398 20.2344 15.8398 21.25C15.8398 23.5352 17.2852 25.3516 20.3516 25.3516L23.2812 25.3516C24.2383 25.3516 24.7266 25.8398 24.7266 26.4453C24.7266 27.0312 24.2383 27.5195 23.2812 27.5195L20.1367 27.5195C19.2188 27.5195 18.7695 28.0078 18.7695 29.0625C18.7695 31.4453 20.5664 33.1836 23.3008 33.1836L24.8828 33.1836C25.8398 33.1836 26.2891 33.6914 26.2891 34.2969C26.2891 34.8828 25.8398 35.3711 24.8828 35.3711L22.5195 35.3711C21.9727 35.3711 21.6797 35.6836 21.6797 36.2695C21.6797 38.7695 24.5117 41.0352 29.1211 41.0352L33.9453 41.0352C46.3086 41.0352 53.2031 34.7461 53.2031 23.418Z" fill="black" fill-opacity="0.85"/>
 </g>
</svg>
