<?xml version="1.0" encoding="UTF-8"?>
<!--Generator: Apple Native CoreSVG 326-->
<!DOCTYPE svg
PUBLIC "-//W3C//DTD SVG 1.1//EN"
       "http://www.w3.org/Graphics/SVG/1.1/DTD/svg11.dtd">
<svg version="1.1" xmlns="http://www.w3.org/2000/svg" xmlns:xlink="http://www.w3.org/1999/xlink" viewBox="0 0 51.25 50.918">
 <g>
  <rect height="50.918" opacity="0" width="51.25" x="0" y="0"/>
  <path d="M25.4297 50.8789C39.4727 50.8789 50.8789 39.4922 50.8789 25.4492C50.8789 11.4062 39.4727 0 25.4297 0C11.3867 0 0 11.4062 0 25.4492C0 39.4922 11.3867 50.8789 25.4297 50.8789ZM25.4297 47.2461C13.3789 47.2461 3.63281 37.5 3.63281 25.4492C3.63281 13.3984 13.3789 3.65234 25.4297 3.65234C37.4805 3.65234 47.2266 13.3984 47.2266 25.4492C47.2266 37.5 37.4805 47.2461 25.4297 47.2461Z" fill="black" fill-opacity="0.85"/>
  <path d="M15.293 30.0195C15.293 36.6211 19.5703 40.4492 25.4297 40.4492C30.0195 40.4492 33.2422 38.4766 35.2344 33.7695C36.2695 31.5234 37.0898 28.9258 37.9492 26.0156C38.2617 24.9609 38.6914 23.7109 38.6914 23.125C38.6914 22.3438 38.0859 21.7969 37.2852 21.7969C36.4258 21.7969 35.8789 22.3242 35.293 23.5547L33.2617 28.0273C33.0273 28.5547 32.7539 28.7305 32.5 28.7305C32.1484 28.7305 31.9141 28.4961 31.9141 27.9492L31.9141 12.6172C31.9141 11.7773 31.2109 11.0547 30.3516 11.0547C29.4922 11.0547 28.8086 11.7773 28.8086 12.6172L28.8086 23.457C28.3789 23.3203 27.9492 23.1641 27.4609 23.0664L27.4609 10.2734C27.4609 9.43359 26.7773 8.71094 25.918 8.71094C25.0586 8.71094 24.3555 9.43359 24.3555 10.2734L24.3555 22.8906C23.8672 22.9492 23.3594 23.0078 22.8906 23.0859L22.8906 11.6602C22.8906 10.8008 22.168 10.1172 21.3086 10.1172C20.4883 10.1172 19.7656 10.8008 19.7656 11.6602L19.7656 24.1016C19.2383 24.3164 18.8281 24.5898 18.418 24.8633L18.418 16.3086C18.418 15.4492 17.7148 14.7461 16.8555 14.7461C15.9961 14.7461 15.293 15.4492 15.293 16.3086Z" fill="black" fill-opacity="0.85"/>
 </g>
</svg>
