<?xml version="1.0" encoding="UTF-8"?>
<!--Generator: Apple Native CoreSVG 326-->
<!DOCTYPE svg
PUBLIC "-//W3C//DTD SVG 1.1//EN"
       "http://www.w3.org/Graphics/SVG/1.1/DTD/svg11.dtd">
<svg version="1.1" xmlns="http://www.w3.org/2000/svg" xmlns:xlink="http://www.w3.org/1999/xlink" viewBox="0 0 51.25 50.918">
 <g>
  <rect height="50.918" opacity="0" width="51.25" x="0" y="0"/>
  <path d="M50.8789 25.4688C50.8789 39.4922 39.4531 50.918 25.4297 50.918C11.4258 50.918 0 39.4922 0 25.4688C0 11.4648 11.4258 0.0390625 25.4297 0.0390625C39.4531 0.0390625 50.8789 11.4648 50.8789 25.4688ZM12.1875 23.418L12.1875 24.9414C11.6602 25.3516 11.3672 26.0547 11.3672 26.7969L11.3672 32.207C11.3672 33.75 12.6758 34.3945 13.6523 34.3945C13.9258 35.0195 14.5898 35.4883 15.3906 35.4883C16.5039 35.4883 17.3633 34.668 17.3633 33.5547L17.3633 25.6055C17.3633 24.5312 16.5039 23.6914 15.3906 23.6914C15.2344 23.6914 15.0586 23.7109 14.9023 23.7305L14.9023 23.418C14.9023 17.0703 19.0625 12.9102 25.4297 12.9102C31.8164 12.9102 35.9961 17.0703 35.9961 23.418L35.9961 23.75C35.8398 23.7109 35.6641 23.6914 35.4688 23.6914C34.3555 23.6914 33.5547 24.5508 33.5547 25.6055L33.5547 33.5547C33.5547 34.6484 34.3555 35.4883 35.4688 35.4883C35.6641 35.4883 35.8203 35.4883 35.957 35.4883C35.8984 35.7812 35.7031 35.8398 35.0977 35.9375L28.5352 37.0703C28.1445 36.7773 27.6367 36.6016 27.1289 36.6797L24.5312 37.168C23.5938 37.3047 22.9688 38.2227 23.1445 39.1797C23.3008 40.0586 24.1992 40.7227 25.1367 40.5469L27.7344 40.0781C28.2617 39.9805 28.7109 39.6484 28.9648 39.1602L35.5078 38.0469C37.0508 37.7539 38.125 36.9727 38.125 34.7852L38.125 34.2969C38.9844 34.043 39.5117 33.3594 39.5117 32.4219L39.5312 26.7969C39.5312 26.0547 39.2188 25.3516 38.6914 24.9414L38.6914 23.418C38.6914 15.4688 33.3789 10.1562 25.4297 10.1562C17.5 10.1562 12.1875 15.4688 12.1875 23.418Z" fill="black" fill-opacity="0.85"/>
 </g>
</svg>
