<?xml version="1.0" encoding="UTF-8"?>
<!--Generator: Apple Native CoreSVG 326-->
<!DOCTYPE svg
PUBLIC "-//W3C//DTD SVG 1.1//EN"
       "http://www.w3.org/Graphics/SVG/1.1/DTD/svg11.dtd">
<svg version="1.1" xmlns="http://www.w3.org/2000/svg" xmlns:xlink="http://www.w3.org/1999/xlink" viewBox="0 0 51.25 50.918">
 <g>
  <rect height="50.918" opacity="0" width="51.25" x="0" y="0"/>
  <path d="M25.4297 50.8789C39.4727 50.8789 50.8789 39.4922 50.8789 25.4492C50.8789 11.4062 39.4727 0 25.4297 0C11.3867 0 0 11.4062 0 25.4492C0 39.4922 11.3867 50.8789 25.4297 50.8789ZM25.4297 47.2461C13.3789 47.2461 3.63281 37.5 3.63281 25.4492C3.63281 13.3984 13.3789 3.65234 25.4297 3.65234C37.4805 3.65234 47.2266 13.3984 47.2266 25.4492C47.2266 37.5 37.4805 47.2461 25.4297 47.2461Z" fill="black" fill-opacity="0.85"/>
  <path d="M11.8945 25.3906C11.8945 29.9609 13.0273 33.7695 14.9805 37.1484C15.3906 37.8516 16.2305 38.0859 17.0117 37.6562C17.7148 37.2852 17.9297 36.4062 17.5195 35.625C15.8008 32.5195 14.8438 29.3945 14.8438 25.3906C14.8438 18.4375 19.082 13.7891 25.4297 13.7891C31.8164 13.7891 36.0742 18.457 36.0742 25.3906C36.0742 29.375 35.0977 32.5 33.3594 35.625C32.9492 36.3867 33.1836 37.2656 33.8867 37.6562C34.6484 38.0859 35.4883 37.8516 35.918 37.1484C37.8711 33.6914 39.0234 29.9023 39.0234 25.3906C39.0234 16.6797 33.5742 10.8594 25.4297 10.8594C17.3047 10.8594 11.8945 16.6602 11.8945 25.3906ZM16.0156 36.6016C16.4648 38.1836 17.8516 38.9453 19.4141 38.4375C21.0352 37.9883 21.7773 36.6406 21.2891 35.0586L19.4141 28.75C18.9258 27.1484 17.5781 26.4062 15.9961 26.8945C14.4141 27.3242 13.6523 28.7109 14.1211 30.2734ZM34.8438 36.6016L36.7383 30.2734C37.207 28.6914 36.4648 27.3242 34.8828 26.8945C33.3008 26.4062 31.9531 27.1484 31.4844 28.75L29.5703 35.0781C29.1016 36.6602 29.8438 37.9883 31.4453 38.4375C33.0273 38.9258 34.3945 38.1836 34.8438 36.6016Z" fill="black" fill-opacity="0.85"/>
 </g>
</svg>
