<?xml version="1.0" encoding="UTF-8"?>
<!--Generator: Apple Native CoreSVG 326-->
<!DOCTYPE svg
PUBLIC "-//W3C//DTD SVG 1.1//EN"
       "http://www.w3.org/Graphics/SVG/1.1/DTD/svg11.dtd">
<svg version="1.1" xmlns="http://www.w3.org/2000/svg" xmlns:xlink="http://www.w3.org/1999/xlink" viewBox="0 0 32.8906 64.8633">
 <g>
  <rect height="64.8633" opacity="0" width="32.8906" x="0" y="0"/>
  <path d="M8.69141 14.3945C8.69141 10.8398 5.37109 8.73047 5.37109 6.03516C5.37109 4.62891 5.76172 3.80859 6.71875 2.48047C7.89062 0.917969 5.74219-0.664062 4.55078 0.878906C3.22266 2.53906 2.65625 4.04297 2.65625 5.87891C2.65625 9.60938 5.9375 11.6797 5.9375 14.3945C5.9375 17.0312 2.65625 19.1602 2.65625 22.832C2.65625 24.707 3.22266 26.2109 4.53125 27.8516C5.68359 29.3359 7.85156 27.7734 6.67969 26.2109C5.76172 24.9609 5.37109 24.1211 5.37109 22.6562C5.37109 20.0391 8.69141 17.9688 8.69141 14.3945ZM19.2773 14.3945C19.2773 10.8398 15.9766 8.73047 15.9766 6.03516C15.9766 4.62891 16.3477 3.80859 17.3047 2.48047C18.4766 0.917969 16.3281-0.664062 15.1172 0.878906C13.8086 2.53906 13.2422 4.04297 13.2422 5.87891C13.2422 9.60938 16.5039 11.6797 16.5039 14.3945C16.5039 17.0312 13.2422 19.1602 13.2422 22.832C13.2422 24.707 13.8086 26.2109 15.0977 27.8516C16.2695 29.3359 18.4375 27.7734 17.2656 26.2109C16.3477 24.9609 15.9766 24.1211 15.9766 22.6562C15.9766 20.0391 19.2773 17.9688 19.2773 14.3945ZM29.8633 14.3945C29.8633 10.8398 26.543 8.73047 26.543 6.03516C26.543 4.62891 26.9336 3.80859 27.8906 2.48047C29.0625 0.917969 26.8945-0.664062 25.6836 0.878906C24.375 2.53906 23.8281 4.04297 23.8281 5.87891C23.8281 9.60938 27.0898 11.6797 27.0898 14.3945C27.0898 17.0312 23.8281 19.1602 23.8281 22.832C23.8281 24.707 24.375 26.2109 25.6641 27.8516C26.8359 29.3359 29.0039 27.7734 27.8516 26.2109C26.9336 24.9609 26.543 24.1211 26.543 22.6562C26.543 20.0391 29.8633 17.9688 29.8633 14.3945Z" fill="black" fill-opacity="0.85"/>
  <path d="M21.4844 64.8633C26.3672 64.8633 31.2695 60.4688 31.2695 56.1914C31.2695 52.4023 27.9688 50.4883 21.8945 48.418L21.7578 47.4023L28.3594 47.4023C31.1328 47.4023 32.5195 46.0352 32.5195 43.3398C32.5195 38.4766 28.1445 33.5547 23.8477 33.5547C20.0781 33.5547 18.1445 36.875 16.0938 42.9688L15.0977 43.0859L15.0977 36.4453C15.0977 33.7305 13.7109 32.3047 11.0547 32.3047C6.13281 32.3047 1.23047 36.7188 1.23047 40.957C1.23047 44.7461 4.57031 46.6992 10.6641 48.75L10.7227 49.7266L4.14062 49.7266C1.38672 49.7266 0 51.1523 0 53.7891C0 58.7109 4.39453 63.5742 8.65234 63.5742C12.4023 63.5742 14.375 60.3125 16.4062 54.2188L17.4219 54.1016L17.4219 60.7031C17.4219 63.4375 18.8281 64.8633 21.4844 64.8633ZM16.25 51.9531C14.375 51.9531 12.8711 50.4492 12.8711 48.5938C12.8711 46.7188 14.375 45.1953 16.25 45.1953C18.1055 45.1953 19.6289 46.7188 19.6289 48.5938C19.6289 50.4492 18.1055 51.9531 16.25 51.9531Z" fill="black" fill-opacity="0.85"/>
 </g>
</svg>
