<?xml version="1.0" encoding="UTF-8"?>
<!--Generator: Apple Native CoreSVG 326-->
<!DOCTYPE svg
PUBLIC "-//W3C//DTD SVG 1.1//EN"
       "http://www.w3.org/Graphics/SVG/1.1/DTD/svg11.dtd">
<svg version="1.1" xmlns="http://www.w3.org/2000/svg" xmlns:xlink="http://www.w3.org/1999/xlink" viewBox="0 0 69.1992 64.5117">
 <g>
  <rect height="64.5117" opacity="0" width="69.1992" x="0" y="0"/>
  <path d="M41.2695 8.26172C43.673 10.7323 45.338 13.8583 46.1227 17.3438L42.2937 17.3438C41.6714 15.215 40.6013 13.2683 39.1016 11.543C36.2109 13.8477 31.3086 15.0195 24.7266 15.0195C18.125 15.0195 13.2227 13.8477 10.332 11.543C7.73438 14.5312 6.42578 18.1836 6.42578 22.2656C6.42578 27.5977 8.59375 32.5781 12.4414 36.1133C14.6218 38.1605 16.9582 38.9312 21.9141 39.1121L21.9141 42.8011C15.6744 42.5598 12.7177 41.4135 9.94141 38.8086C5.42969 34.668 2.73438 28.6523 2.73438 22.2656C2.73438 16.8359 4.66797 11.8555 8.18359 8.26172C9.0625 7.1875 10.5273 7.03125 11.6797 7.83203C14.0234 9.92188 17.4219 11.3672 24.7266 11.3672C32.0117 11.3672 35.4102 9.92188 37.7539 7.83203C38.9062 7.03125 40.3711 7.1875 41.2695 8.26172Z" fill="black" fill-opacity="0.425"/>
  <path d="M35.1562 5.91797C35.1562 7.57812 30.8984 8.80859 24.7266 8.80859C18.5156 8.80859 14.2578 7.57812 14.2578 5.91797C14.2578 4.19922 18.5156 3.00781 24.7266 3.00781C30.8984 3.00781 35.1562 4.19922 35.1562 5.91797Z" fill="black" fill-opacity="0.85"/>
  <path d="M35.8984 61.3867L55.2344 61.3867C58.9258 61.3867 61.7383 61.0156 63.75 59.0039C65.7227 56.9922 66.0938 54.2383 66.0938 50.5273L66.0938 31.3281C66.0938 27.6172 65.7227 24.8438 63.75 22.8516C61.7383 20.8594 58.9258 20.4492 55.2344 20.4492L35.8008 20.4492C32.2266 20.4492 29.4141 20.8594 27.4023 22.8711C25.4102 24.8633 25.0195 27.6367 25.0195 31.2305L25.0195 50.5273C25.0195 54.2383 25.4102 56.9922 27.4023 59.0039C29.4141 61.0156 32.207 61.3867 35.8984 61.3867ZM35.957 36.2891C35.918 34.6875 37.2266 33.1445 38.9258 33.0273C39.0625 34.5703 37.7148 36.4844 35.957 36.2891ZM41.875 43.6914C41.5625 44.8047 40.8203 46.1133 39.8828 47.0312C39.5898 47.2852 39.1797 47.5 38.6523 47.5C38.1641 47.5 37.8711 47.3242 37.4219 47.1875C37.168 47.0898 36.7773 46.8945 36.3281 46.8945C35.2539 46.8945 34.7852 47.5391 33.9258 47.5391C33.3203 47.5391 32.832 47.1875 32.1875 46.4453C30.957 45.0781 30.1367 42.9102 30.1367 41.0352C30.1367 39.8828 30.4297 38.8086 31.1719 37.9102C31.7578 37.1484 32.6953 36.6797 33.8281 36.6797C34.8633 36.6797 35.4883 37.3242 36.0352 37.3242C36.6992 37.3242 37.4414 36.6406 38.7891 36.6406C39.9219 36.6406 40.918 37.1094 41.543 38.0469C40.7031 38.5156 40.3711 39.1016 40.2148 39.6094C39.9609 40.332 39.8828 41.1914 40.2148 42.0508C40.5469 42.8125 41.0352 43.3398 41.875 43.6914ZM47.7344 34.1016L47.7344 36.6406L49.7852 36.6406L49.7852 38.3594L47.7344 38.3594L47.7344 44.3164C47.7344 45.293 48.1641 45.6836 49.043 45.6836C49.2578 45.6836 49.6484 45.6836 49.7656 45.6055L49.7656 47.4219C49.5703 47.4414 49.043 47.5 48.5742 47.5C46.3672 47.5 45.5078 46.7188 45.5078 44.5703L45.5078 38.3594L44.0039 38.3594L44.0039 36.6406L45.5078 36.6406L45.5078 34.1016ZM57.0898 47.4219L54.7656 47.4219L50.8008 36.6406L53.125 36.6406L55.918 45.293L58.5547 36.6406L60.957 36.6406Z" fill="black" fill-opacity="0.85"/>
 </g>
</svg>
