<?xml version="1.0" encoding="UTF-8"?>
<!--Generator: Apple Native CoreSVG 326-->
<!DOCTYPE svg
PUBLIC "-//W3C//DTD SVG 1.1//EN"
       "http://www.w3.org/Graphics/SVG/1.1/DTD/svg11.dtd">
<svg version="1.1" xmlns="http://www.w3.org/2000/svg" xmlns:xlink="http://www.w3.org/1999/xlink" viewBox="0 0 51.25 50.918">
 <g>
  <rect height="50.918" opacity="0" width="51.25" x="0" y="0"/>
  <path d="M50.8789 25.4492C50.8789 39.4531 39.4531 50.8789 25.4297 50.8789C11.4258 50.8789 0 39.4531 0 25.4492C0 11.4258 11.4258 0 25.4297 0C39.4531 0 50.8789 11.4258 50.8789 25.4492ZM18.3398 10.332C16.7773 10.332 15.8008 11.25 15.8008 12.8906L15.8008 13.2422C15.8008 17.1484 20.0391 21.5039 22.5195 23.9844C23.457 24.8828 23.5156 25.8789 22.5195 26.875C20.0391 29.3555 15.8008 33.7109 15.8008 37.5781L15.8008 38.0078C15.8008 39.6289 16.7773 40.5469 18.3398 40.5469L32.5195 40.5469C34.082 40.5469 35.0781 39.6289 35.0781 38.0078L35.0781 37.5781C35.0781 33.7109 30.8398 29.3555 28.3398 26.875C27.3438 25.8789 27.4219 24.8828 28.3398 23.9844C30.8398 21.5039 35.0781 17.1484 35.0781 13.2422L35.0781 12.8906C35.0781 11.25 34.082 10.332 32.5195 10.332ZM30.4883 19.2578C29.4141 20.4492 28.1445 21.6992 26.9141 22.9492C26.4453 23.418 26.3086 23.7109 26.3086 24.3555L26.3086 31.5039C26.3086 31.7578 26.3867 31.8555 26.582 32.0508L31.6797 37.3438C32.1484 37.7539 31.9922 38.4961 31.3281 38.4961L19.5312 38.4961C18.8867 38.4961 18.7305 37.7539 19.1797 37.3438L24.2969 32.0508C24.4727 31.8555 24.5508 31.7578 24.5508 31.5039L24.5508 24.3555C24.5508 23.7109 24.4141 23.418 23.9648 22.9492C22.7148 21.6992 21.4453 20.4492 20.3906 19.2578C19.9805 18.8281 20.1953 18.3789 20.6836 18.3789L30.1758 18.3789C30.6641 18.3789 30.8789 18.8281 30.4883 19.2578Z" fill="black" fill-opacity="0.85"/>
 </g>
</svg>
