<?xml version="1.0" encoding="UTF-8"?>
<!--Generator: Apple Native CoreSVG 326-->
<!DOCTYPE svg
PUBLIC "-//W3C//DTD SVG 1.1//EN"
       "http://www.w3.org/Graphics/SVG/1.1/DTD/svg11.dtd">
<svg version="1.1" xmlns="http://www.w3.org/2000/svg" xmlns:xlink="http://www.w3.org/1999/xlink" viewBox="0 0 29.5898 45.8398">
 <g>
  <rect height="45.8398" opacity="0" width="29.5898" x="0" y="0"/>
  <path d="M29.2188 3.88672L29.2188 4.41406C29.2188 10.3516 22.7734 16.9141 19.0234 20.6445C17.5195 22.1484 17.6172 23.6914 19.0234 25.0977C22.7734 28.8281 29.2188 35.4297 29.2188 41.3281L29.2188 41.9141C29.2188 44.4141 27.7344 45.8203 25.3516 45.8203L3.86719 45.8203C1.48438 45.8203 0 44.4141 0 41.9141L0 41.3281C0 35.4297 6.42578 28.8281 10.1758 25.0977C11.582 23.6914 11.6797 22.1484 10.1758 20.6445C6.42578 16.9141 0 10.3516 0 4.41406L0 3.88672C0 1.38672 1.48438 0 3.86719 0L25.3516 0C27.7344 0 29.2188 1.38672 29.2188 3.88672ZM4.04297 8.96484C5.83984 12.2461 10.9961 17.6367 13.0664 19.3945C13.623 19.8633 14.1113 20.0977 14.6021 20.0977C15.0928 20.0977 15.5859 19.8633 16.1523 19.3945C18.2031 17.6367 23.3789 12.2461 25.1758 8.96484C25.5664 8.26172 25.3516 7.67578 24.6289 7.67578L4.57031 7.67578C3.86719 7.67578 3.63281 8.26172 4.04297 8.96484Z" fill="black" fill-opacity="0.85"/>
 </g>
</svg>
