<?xml version="1.0" encoding="UTF-8"?>
<!--Generator: Apple Native CoreSVG 326-->
<!DOCTYPE svg
PUBLIC "-//W3C//DTD SVG 1.1//EN"
       "http://www.w3.org/Graphics/SVG/1.1/DTD/svg11.dtd">
<svg version="1.1" xmlns="http://www.w3.org/2000/svg" xmlns:xlink="http://www.w3.org/1999/xlink" viewBox="0 0 51.25 50.918">
 <g>
  <rect height="50.918" opacity="0" width="51.25" x="0" y="0"/>
  <path d="M50.8789 25.4688C50.8789 39.4922 39.4531 50.918 25.4297 50.918C11.4258 50.918 0 39.4922 0 25.4688C0 11.4648 11.4258 0.0390625 25.4297 0.0390625C39.4531 0.0390625 50.8789 11.4648 50.8789 25.4688ZM15.3906 26.4062C14.9805 26.6992 14.668 26.9141 14.3164 27.1094L14.3164 30.957C14.3164 32.3828 15.0977 33.1641 16.5039 33.1641L34.3555 33.1641C35.7422 33.1641 36.543 32.3828 36.543 30.957L36.543 27.1094C36.1719 26.9141 35.8594 26.6992 35.4492 26.4062L25.4297 18.5352ZM7.57812 27.5195L7.57812 30.957C7.57812 32.3828 8.37891 33.1641 9.80469 33.1641L13.457 33.1641C13.0469 32.5586 12.832 31.8164 12.832 30.957L12.832 27.5ZM38.0078 30.957C38.0078 31.8164 37.793 32.5586 37.4023 33.1641L41.0547 33.1641C42.4609 33.1641 43.2812 32.3828 43.2812 30.957L43.2812 27.5195L38.0078 27.5ZM28.1836 26.9336L28.1836 31.582L22.6758 31.582L22.6758 26.9336C22.6758 26.5625 22.9492 26.2695 23.3594 26.2695L27.5 26.2695C27.9297 26.2695 28.1836 26.5625 28.1836 26.9336ZM24.0625 15.6445L12.2852 24.9219C11.4648 25.5469 12.4414 26.8359 13.418 26.0742L24.9805 17.0508C25.1172 16.9531 25.293 16.8945 25.4297 16.8945C25.5469 16.8945 25.7227 16.9531 25.8594 17.0508L37.4219 26.0742C38.3984 26.8359 39.3945 25.5664 38.5547 24.9219L26.7773 15.6445C26.3867 15.332 25.8984 15.1367 25.4297 15.1367C24.9609 15.1367 24.4727 15.3125 24.0625 15.6445ZM13.8281 20.1953C13.3594 20.1953 12.9883 20.293 12.6367 20.5273L6.01562 25C5.50781 25.332 5.72266 26.1719 6.48438 26.1719L10.6836 26.1719C10.3906 25.3906 10.4688 24.4531 11.4062 23.7695L15.9766 20.1953ZM34.8633 20.1953L39.4531 23.7695C40.3711 24.4336 40.4492 25.3906 40.1562 26.1719L44.375 26.1719C45.1172 26.1719 45.3516 25.3711 44.8242 25L38.2031 20.5273C37.8516 20.293 37.5 20.1953 37.0117 20.1953Z" fill="black" fill-opacity="0.85"/>
 </g>
</svg>
