<?xml version="1.0" encoding="UTF-8"?>
<!--Generator: Apple Native CoreSVG 326-->
<!DOCTYPE svg
PUBLIC "-//W3C//DTD SVG 1.1//EN"
       "http://www.w3.org/Graphics/SVG/1.1/DTD/svg11.dtd">
<svg version="1.1" xmlns="http://www.w3.org/2000/svg" xmlns:xlink="http://www.w3.org/1999/xlink" viewBox="0 0 55.5273 53.1055">
 <g>
  <rect height="53.1055" opacity="0" width="55.5273" x="0" y="0"/>
  <path d="M3.06641 47.6758L52.0898 47.6758L52.0898 46.1719C52.0898 45.332 51.582 44.8242 50.7227 44.8242L49.1211 44.8242L49.1211 16.6797L51.3867 16.6797C52.5781 16.6797 53.2422 15.8398 53.2422 14.9609C53.2422 14.3164 52.8906 13.75 52.1094 13.3008L30.5273 0.839844C29.5703 0.292969 28.5547 0 27.5781 0C26.6016 0 25.5664 0.292969 24.6289 0.839844L3.04688 13.3008C2.24609 13.75 1.91406 14.3164 1.91406 14.9609C1.91406 15.8398 2.57812 16.6797 3.76953 16.6797L6.05469 16.6797L6.05469 44.8242L4.45312 44.8242C3.57422 44.8242 3.06641 45.332 3.06641 46.1719ZM9.31641 44.8242L9.31641 13.7109L26.4453 4.0625C26.7773 3.86719 27.1875 3.75 27.5781 3.75C27.9492 3.75 28.3398 3.86719 28.7109 4.0625L45.8594 13.7109L45.8594 44.8242ZM1.73828 53.0664L53.418 53.0664C54.375 53.0664 55.1562 52.2852 55.1562 51.3477C55.1562 50.3906 54.375 49.6094 53.418 49.6094L1.73828 49.6094C0.78125 49.6094 0 50.3906 0 51.3477C0 52.2852 0.78125 53.0664 1.73828 53.0664Z" fill="black" fill-opacity="0.85"/>
  <path d="M27.4609 15.0195C25.3125 15.0195 22.7344 15.7031 21.2109 18.0469C20.8984 18.5547 20.7422 19.043 20.7422 19.5898C20.7422 20.2344 21.1719 20.6641 21.875 20.6641C22.4414 20.6641 22.7539 20.4102 23.0078 19.9023C23.8477 18.0469 25.6055 17.2461 27.5195 17.2461C29.8828 17.2461 32.1094 18.3203 32.1094 20.625C32.1094 21.6602 31.543 22.9883 30.0781 23.4375L32.1875 24.0039C33.6523 23.3594 34.6484 21.9727 34.6484 20.4492C34.6484 16.7773 31.0938 15.0195 27.4609 15.0195ZM18.6719 23.9258C18.6719 24.375 19.0039 24.6875 19.4141 24.6875L35.7227 24.6875C36.1523 24.6875 36.4844 24.375 36.4844 23.9258C36.4844 23.4766 36.1523 23.1445 35.7227 23.1445L19.4141 23.1445C19.0039 23.1445 18.6719 23.4766 18.6719 23.9258ZM18.6719 27.9492C18.6719 28.3984 19.0039 28.7109 19.4141 28.7109L35.7227 28.7109C36.1523 28.7109 36.4844 28.3984 36.4844 27.9492C36.4844 27.5 36.1523 27.1875 35.7227 27.1875L19.4141 27.1875C19.0039 27.1875 18.6719 27.5 18.6719 27.9492ZM27.5977 37.4805C30.5273 37.4805 33.2031 36.3867 34.4727 34.082C34.7461 33.5938 34.9805 32.9883 34.9805 32.5391C34.9805 31.875 34.4922 31.4453 33.7891 31.4453C33.2031 31.4453 32.8516 31.7188 32.5977 32.2656C31.7773 34.3555 29.8633 35.2539 27.5586 35.2539C25.0391 35.2539 22.6758 33.9844 22.6758 31.8359C22.6758 29.9805 23.9258 28.7695 25.8008 28.2617L23.2617 27.8516C21.3867 28.4766 20.1172 30.1367 20.1172 31.9531C20.1172 35.6445 23.9453 37.4805 27.5977 37.4805Z" fill="black" fill-opacity="0.85"/>
 </g>
</svg>
