<?xml version="1.0" encoding="UTF-8"?>
<!--Generator: Apple Native CoreSVG 326-->
<!DOCTYPE svg
PUBLIC "-//W3C//DTD SVG 1.1//EN"
       "http://www.w3.org/Graphics/SVG/1.1/DTD/svg11.dtd">
<svg version="1.1" xmlns="http://www.w3.org/2000/svg" xmlns:xlink="http://www.w3.org/1999/xlink" viewBox="0 0 62.168 55.9961">
 <g>
  <rect height="55.9961" opacity="0" width="62.168" x="0" y="0"/>
  <path d="M51.6211 6.64062L51.6211 49.3555C51.6211 53.3984 48.9258 55.9961 44.7461 55.9961L17.0508 55.9961C12.8711 55.9961 10.1758 53.3984 10.1758 49.3555L10.1758 34.1016L13.6523 34.1016L13.6523 48.8086C13.6523 51.1719 15.0391 52.5195 17.4805 52.5195L44.3359 52.5195C46.7773 52.5195 48.1641 51.1719 48.1641 48.8086L48.1641 7.1875C48.1641 4.80469 46.7773 3.45703 44.3359 3.45703L17.4805 3.45703C15.0391 3.45703 13.6523 4.80469 13.6523 7.1875L13.6523 21.875L10.1758 21.875L10.1758 6.64062C10.1758 2.59766 12.8711 0 17.0508 0L44.7461 0C48.9258 0 51.6211 2.59766 51.6211 6.64062Z" fill="black" fill-opacity="0.85"/>
  <path d="M0 27.9688C0 28.9062 0.761719 29.6875 1.67969 29.6875L22.2461 29.6875L25.957 29.5508L24.3359 31.1133L19.8828 35.3516C19.5312 35.6641 19.3555 36.1328 19.3555 36.543C19.3555 37.4414 20 38.1055 20.8789 38.1055C21.3477 38.1055 21.6797 37.9102 22.0117 37.5781L30.1562 29.2188C30.5664 28.7891 30.7227 28.418 30.7227 27.9688C30.7227 27.5391 30.5664 27.168 30.1562 26.7383L22.0117 18.3789C21.6797 18.0469 21.3477 17.8711 20.8789 17.8711C20 17.8711 19.3555 18.5547 19.3555 19.4336C19.3555 19.8438 19.5312 20.293 19.8828 20.6055L24.3359 24.8633L25.9375 26.3867L22.2461 26.2695L1.67969 26.2695C0.761719 26.2695 0 27.0508 0 27.9688Z" fill="black" fill-opacity="0.85"/>
 </g>
</svg>
