<?xml version="1.0" encoding="UTF-8"?>
<!--Generator: Apple Native CoreSVG 326-->
<!DOCTYPE svg
PUBLIC "-//W3C//DTD SVG 1.1//EN"
       "http://www.w3.org/Graphics/SVG/1.1/DTD/svg11.dtd">
<svg version="1.1" xmlns="http://www.w3.org/2000/svg" xmlns:xlink="http://www.w3.org/1999/xlink" viewBox="0 0 52.8125 50.0785">
 <g>
  <rect height="50.0785" opacity="0" width="52.8125" x="0" y="0"/>
  <path d="M8.20313 13.3249L8.20312 37.217L32.1179 37.217L35.5782 40.674L6.44531 40.674C2.5 40.674 0 38.0959 0 34.0138L0 16.0256C0 12.6706 1.68872 10.3315 4.48305 9.60831ZM52.4414 16.0256L52.4414 34.0138C52.4414 37.4411 50.6791 39.8082 47.7858 40.4725L44.2578 36.9462L44.2578 12.8224L20.1226 12.8224L16.6639 9.3654L46.0156 9.3654C49.9414 9.3654 52.4414 11.9435 52.4414 16.0256ZM3.35938 21.4162L3.35938 28.6232C3.35938 29.131 3.69141 29.5021 4.23828 29.5021C4.76562 29.5021 5.11719 29.131 5.11719 28.6232L5.11719 21.4162C5.11719 20.8888 4.76562 20.5177 4.23828 20.5177C3.69141 20.5177 3.35938 20.8888 3.35938 21.4162ZM45.8789 24.9904C45.8789 26.1623 46.7969 27.0998 47.9492 27.0998C49.1016 27.0998 50.0391 26.1623 50.0391 24.9904C50.0391 23.8576 49.1016 22.9201 47.9492 22.9201C46.7969 22.9201 45.8789 23.8576 45.8789 24.9904Z" fill="black" fill-opacity="0.85"/>
  <path d="M45.625 46.8849C46.2695 47.5295 47.3438 47.5099 47.9883 46.8849C48.6328 46.2404 48.6328 45.1662 47.9883 44.5217L6.81641 3.36931C6.19141 2.72478 5.11719 2.68572 4.45312 3.36931C3.80859 4.01384 3.80859 5.08806 4.45312 5.73259Z" fill="black" fill-opacity="0.85"/>
 </g>
</svg>
