<?xml version="1.0" encoding="UTF-8"?>
<!--Generator: Apple Native CoreSVG 326-->
<!DOCTYPE svg
PUBLIC "-//W3C//DTD SVG 1.1//EN"
       "http://www.w3.org/Graphics/SVG/1.1/DTD/svg11.dtd">
<svg version="1.1" xmlns="http://www.w3.org/2000/svg" xmlns:xlink="http://www.w3.org/1999/xlink" viewBox="0 0 52.8125 31.3477">
 <g>
  <rect height="31.3477" opacity="0" width="52.8125" x="0" y="0"/>
  <path d="M44.2578 27.8516L8.20312 27.8516L8.20312 3.45703L44.2578 3.45703ZM50.0391 15.625C50.0391 16.7969 49.1016 17.7344 47.9492 17.7344C46.7969 17.7344 45.8789 16.7969 45.8789 15.625C45.8789 14.4922 46.7969 13.5547 47.9492 13.5547C49.1016 13.5547 50.0391 14.4922 50.0391 15.625ZM4.23828 20.1367C3.69141 20.1367 3.35938 19.7656 3.35938 19.2578L3.35938 12.0508C3.35938 11.5234 3.69141 11.1719 4.23828 11.1719C4.76562 11.1719 5.11719 11.5234 5.11719 12.0508L5.11719 19.2578C5.11719 19.7656 4.76562 20.1367 4.23828 20.1367Z" fill="black" fill-opacity="0.2125"/>
  <path d="M46.0156 31.3281C49.9414 31.3281 52.4414 28.7305 52.4414 24.6484L52.4414 6.66016C52.4414 2.57812 49.9414 0 46.0156 0L6.44531 0C2.5 0 0 2.57812 0 6.66016L0 24.6484C0 28.7305 2.5 31.3281 6.44531 31.3281ZM44.2578 27.8516L8.20312 27.8516L8.20312 3.45703L44.2578 3.45703ZM50.0391 15.625C50.0391 16.7969 49.1016 17.7344 47.9492 17.7344C46.7969 17.7344 45.8789 16.7969 45.8789 15.625C45.8789 14.4922 46.7969 13.5547 47.9492 13.5547C49.1016 13.5547 50.0391 14.4922 50.0391 15.625ZM4.23828 20.1367C3.69141 20.1367 3.35938 19.7656 3.35938 19.2578L3.35938 12.0508C3.35938 11.5234 3.69141 11.1719 4.23828 11.1719C4.76562 11.1719 5.11719 11.5234 5.11719 12.0508L5.11719 19.2578C5.11719 19.7656 4.76562 20.1367 4.23828 20.1367Z" fill="black" fill-opacity="0.85"/>
 </g>
</svg>
