<?xml version="1.0" encoding="UTF-8"?>
<!--Generator: Apple Native CoreSVG 326-->
<!DOCTYPE svg
PUBLIC "-//W3C//DTD SVG 1.1//EN"
       "http://www.w3.org/Graphics/SVG/1.1/DTD/svg11.dtd">
<svg version="1.1" xmlns="http://www.w3.org/2000/svg" xmlns:xlink="http://www.w3.org/1999/xlink" viewBox="0 0 46.2891 45.918">
 <g>
  <rect height="45.918" opacity="0" width="46.2891" x="0" y="0"/>
  <path d="M45.918 7.53906L45.918 38.3984C45.918 43.3594 43.3594 45.918 38.3008 45.918L7.59766 45.918C2.55859 45.918 0 43.3984 0 38.3984L0 7.53906C0 2.53906 2.55859 0 7.59766 0L38.3008 0C43.3594 0 45.918 2.55859 45.918 7.53906ZM28.7305 11.5234L18.1641 22.2461L18.0273 22.2461L18.0273 12.8125C18.0273 11.543 17.3828 10.8008 16.2305 10.8008C15.1367 10.8008 14.4727 11.543 14.4727 12.8125L14.4727 32.7344C14.4727 33.9844 15.1367 34.7266 16.2305 34.7266C17.3828 34.7266 18.0273 33.9844 18.0273 32.7344L18.0273 26.8359L21.2695 23.5156L29.1211 33.8086C29.6094 34.4336 30.0781 34.707 30.7227 34.707C31.7383 34.707 32.4609 34.0234 32.4609 33.0273C32.4609 32.5586 32.2266 32.0898 31.9336 31.6406L23.8672 21.1914L31.2695 13.6133C31.6797 13.2031 31.8359 12.832 31.8359 12.3438C31.8359 11.4844 31.1133 10.8008 30.1953 10.8008C29.6289 10.8008 29.2383 11.0156 28.7305 11.5234Z" fill="black" fill-opacity="0.85"/>
 </g>
</svg>
