<?xml version="1.0" encoding="UTF-8"?>
<!--Generator: Apple Native CoreSVG 326-->
<!DOCTYPE svg
PUBLIC "-//W3C//DTD SVG 1.1//EN"
       "http://www.w3.org/Graphics/SVG/1.1/DTD/svg11.dtd">
<svg version="1.1" xmlns="http://www.w3.org/2000/svg" xmlns:xlink="http://www.w3.org/1999/xlink" viewBox="0 0 32.1289 61.8251">
 <g>
  <rect height="61.8251" opacity="0" width="32.1289" x="0" y="0"/>
  <path d="M15.8789 0.25824C7.05078 0.25824 0 7.30902 0 16.0981C0 22.7778 4.00391 28.6567 10.2539 30.9809L10.2539 55.7856C10.2539 56.3715 10.4492 56.8403 10.8984 57.309L15.0391 61.4692C15.4492 61.8793 16.2305 61.9965 16.7188 61.4887L24.6289 53.5786C25.1172 53.0707 25.0977 52.4067 24.6289 51.9379L19.6484 46.9965L26.4844 40.1801C26.9141 39.7309 26.9141 39.0473 26.4062 38.559L19.6094 31.7036C27.4023 28.6567 31.7578 22.9536 31.7578 16.0981C31.7578 7.32855 24.668 0.25824 15.8789 0.25824ZM15.8789 14.7504C13.5938 14.7504 11.7773 12.9145 11.7773 10.6293C11.7773 8.36371 13.5742 6.5473 15.8789 6.5473C18.1445 6.5473 20 8.36371 20 10.6293C20 12.9145 18.1445 14.7504 15.8789 14.7504Z" fill="black" fill-opacity="0.85"/>
 </g>
</svg>
