<?xml version="1.0" encoding="UTF-8"?>
<!--Generator: Apple Native CoreSVG 326-->
<!DOCTYPE svg
PUBLIC "-//W3C//DTD SVG 1.1//EN"
       "http://www.w3.org/Graphics/SVG/1.1/DTD/svg11.dtd">
<svg version="1.1" xmlns="http://www.w3.org/2000/svg" xmlns:xlink="http://www.w3.org/1999/xlink" viewBox="0 0 56.5723 61.8251">
 <g>
  <rect height="61.8251" opacity="0" width="56.5723" x="0" y="0"/>
  <path d="M33.8918 44.9709L31.8604 46.9965L36.8604 51.9379C37.3291 52.4067 37.3486 53.0707 36.8604 53.5786L28.9502 61.4887C28.4424 61.9965 27.6807 61.8793 27.2705 61.4692L23.1104 57.309C22.6611 56.8403 22.4854 56.3715 22.4854 55.7856L22.4854 33.5694ZM43.9697 16.0981C43.9697 22.4683 40.2259 27.8435 33.4386 31.0138L13.1501 10.7429C15.3186 4.60857 21.1564 0.25824 28.0908 0.25824C36.8994 0.25824 43.9697 7.32855 43.9697 16.0981ZM24.0088 10.6293C24.0088 12.9145 25.8252 14.7504 28.0908 14.7504C30.376 14.7504 32.2119 12.9145 32.2119 10.6293C32.2119 8.36371 30.376 6.5473 28.0908 6.5473C25.8057 6.5473 24.0088 8.36371 24.0088 10.6293Z" fill="black" fill-opacity="0.85"/>
  <path d="M3.54004 10.2387L48.5986 55.2582C49.2432 55.9223 50.3174 55.9223 50.9424 55.2582C51.5869 54.5942 51.6064 53.559 50.9424 52.9145L5.90332 7.89496C5.27832 7.25043 4.2041 7.2309 3.54004 7.89496C2.89551 8.51996 2.89551 9.61371 3.54004 10.2387Z" fill="black" fill-opacity="0.85"/>
 </g>
</svg>
