<?xml version="1.0" encoding="UTF-8"?>
<!--Generator: Apple Native CoreSVG 326-->
<!DOCTYPE svg
PUBLIC "-//W3C//DTD SVG 1.1//EN"
       "http://www.w3.org/Graphics/SVG/1.1/DTD/svg11.dtd">
<svg version="1.1" xmlns="http://www.w3.org/2000/svg" xmlns:xlink="http://www.w3.org/1999/xlink" viewBox="0 0 63.2812 39.4336">
 <g>
  <rect height="39.4336" opacity="0" width="63.2812" x="0" y="0"/>
  <path d="M7.59766 39.375L55.3125 39.375C60.3516 39.375 62.9102 36.8164 62.9102 31.8359L62.9102 7.53906C62.9102 2.55859 60.3516 0 55.3125 0L7.59766 0C2.53906 0 0 2.53906 0 7.53906L0 31.8359C0 36.8359 2.53906 39.375 7.59766 39.375ZM7.67578 35.918C4.94141 35.918 3.45703 34.4531 3.45703 31.6602L3.45703 7.71484C3.45703 4.92188 4.94141 3.47656 7.67578 3.47656L55.2344 3.47656C57.9102 3.47656 59.4531 4.92188 59.4531 7.71484L59.4531 31.6602C59.4531 34.4531 57.9102 35.918 55.2344 35.918ZM10 13.7305L12.207 13.7305C12.8906 13.7305 13.3008 13.3203 13.3008 12.6367L13.3008 10.4297C13.3008 9.74609 12.8906 9.31641 12.207 9.31641L10 9.31641C9.31641 9.31641 8.90625 9.74609 8.90625 10.4297L8.90625 12.6367C8.90625 13.3203 9.31641 13.7305 10 13.7305ZM18.1055 13.7305L20.3125 13.7305C20.9961 13.7305 21.4258 13.3203 21.4258 12.6367L21.4258 10.4297C21.4258 9.74609 20.9961 9.31641 20.3125 9.31641L18.1055 9.31641C17.4219 9.31641 17.0117 9.74609 17.0117 10.4297L17.0117 12.6367C17.0117 13.3203 17.4219 13.7305 18.1055 13.7305ZM26.2109 13.7305L28.418 13.7305C29.1016 13.7305 29.5312 13.3203 29.5312 12.6367L29.5312 10.4297C29.5312 9.74609 29.1016 9.31641 28.418 9.31641L26.2109 9.31641C25.5273 9.31641 25.1172 9.74609 25.1172 10.4297L25.1172 12.6367C25.1172 13.3203 25.5273 13.7305 26.2109 13.7305ZM34.3164 13.7305L36.5234 13.7305C37.207 13.7305 37.6367 13.3203 37.6367 12.6367L37.6367 10.4297C37.6367 9.74609 37.207 9.31641 36.5234 9.31641L34.3164 9.31641C33.6328 9.31641 33.2227 9.74609 33.2227 10.4297L33.2227 12.6367C33.2227 13.3203 33.6328 13.7305 34.3164 13.7305ZM42.4219 13.7305L44.6289 13.7305C45.332 13.7305 45.7422 13.3203 45.7422 12.6367L45.7422 10.4297C45.7422 9.74609 45.332 9.31641 44.6289 9.31641L42.4219 9.31641C41.7383 9.31641 41.3281 9.74609 41.3281 10.4297L41.3281 12.6367C41.3281 13.3203 41.7383 13.7305 42.4219 13.7305ZM50.5273 13.7305L52.7344 13.7305C53.4375 13.7305 53.8477 13.3203 53.8477 12.6367L53.8477 10.4297C53.8477 9.74609 53.4375 9.31641 52.7344 9.31641L50.5273 9.31641C49.8438 9.31641 49.4336 9.74609 49.4336 10.4297L49.4336 12.6367C49.4336 13.3203 49.8438 13.7305 50.5273 13.7305ZM10 21.8359L12.207 21.8359C12.8906 21.8359 13.3008 21.4258 13.3008 20.7422L13.3008 18.5352C13.3008 17.8516 12.8906 17.4414 12.207 17.4414L10 17.4414C9.31641 17.4414 8.90625 17.8516 8.90625 18.5352L8.90625 20.7422C8.90625 21.4258 9.31641 21.8359 10 21.8359ZM18.1055 21.8359L20.3125 21.8359C20.9961 21.8359 21.4258 21.4258 21.4258 20.7422L21.4258 18.5352C21.4258 17.8516 20.9961 17.4414 20.3125 17.4414L18.1055 17.4414C17.4219 17.4414 17.0117 17.8516 17.0117 18.5352L17.0117 20.7422C17.0117 21.4258 17.4219 21.8359 18.1055 21.8359ZM26.2109 21.8359L28.418 21.8359C29.1016 21.8359 29.5312 21.4258 29.5312 20.7422L29.5312 18.5352C29.5312 17.8516 29.1016 17.4414 28.418 17.4414L26.2109 17.4414C25.5273 17.4414 25.1172 17.8516 25.1172 18.5352L25.1172 20.7422C25.1172 21.4258 25.5273 21.8359 26.2109 21.8359ZM34.3164 21.8359L36.5234 21.8359C37.207 21.8359 37.6367 21.4258 37.6367 20.7422L37.6367 18.5352C37.6367 17.8516 37.207 17.4414 36.5234 17.4414L34.3164 17.4414C33.6328 17.4414 33.2227 17.8516 33.2227 18.5352L33.2227 20.7422C33.2227 21.4258 33.6328 21.8359 34.3164 21.8359ZM42.4219 21.8359L44.6289 21.8359C45.332 21.8359 45.7422 21.4258 45.7422 20.7422L45.7422 18.5352C45.7422 17.8516 45.332 17.4414 44.6289 17.4414L42.4219 17.4414C41.7383 17.4414 41.3281 17.8516 41.3281 18.5352L41.3281 20.7422C41.3281 21.4258 41.7383 21.8359 42.4219 21.8359ZM50.5273 21.8359L52.7344 21.8359C53.4375 21.8359 53.8477 21.4258 53.8477 20.7422L53.8477 18.5352C53.8477 17.8516 53.4375 17.4414 52.7344 17.4414L50.5273 17.4414C49.8438 17.4414 49.4336 17.8516 49.4336 18.5352L49.4336 20.7422C49.4336 21.4258 49.8438 21.8359 50.5273 21.8359ZM10 29.9609L12.207 29.9609C12.8906 29.9609 13.3008 29.5312 13.3008 28.8477L13.3008 26.6406C13.3008 25.957 12.8906 25.5469 12.207 25.5469L10 25.5469C9.31641 25.5469 8.90625 25.957 8.90625 26.6406L8.90625 28.8477C8.90625 29.5312 9.31641 29.9609 10 29.9609ZM18.3008 29.9609L44.4336 29.9609C45.2539 29.9609 45.7422 29.4727 45.7422 28.6523L45.7422 26.8359C45.7422 26.0156 45.2539 25.5469 44.4336 25.5469L18.3008 25.5469C17.4805 25.5469 17.0117 26.0156 17.0117 26.8359L17.0117 28.6523C17.0117 29.4727 17.4805 29.9609 18.3008 29.9609ZM50.5273 29.9609L52.7344 29.9609C53.4375 29.9609 53.8477 29.5312 53.8477 28.8477L53.8477 26.6406C53.8477 25.957 53.4375 25.5469 52.7344 25.5469L50.5273 25.5469C49.8438 25.5469 49.4336 25.957 49.4336 26.6406L49.4336 28.8477C49.4336 29.5312 49.8438 29.9609 50.5273 29.9609Z" fill="black" fill-opacity="0.85"/>
 </g>
</svg>
