<?xml version="1.0" encoding="UTF-8"?>
<!--Generator: Apple Native CoreSVG 326-->
<!DOCTYPE svg
PUBLIC "-//W3C//DTD SVG 1.1//EN"
       "http://www.w3.org/Graphics/SVG/1.1/DTD/svg11.dtd">
<svg version="1.1" xmlns="http://www.w3.org/2000/svg" xmlns:xlink="http://www.w3.org/1999/xlink" viewBox="0 0 46.2891 45.918">
 <g>
  <rect height="45.918" opacity="0" width="46.2891" x="0" y="0"/>
  <path d="M45.918 7.53906L45.918 38.3984C45.918 43.3594 43.3594 45.918 38.3008 45.918L7.59766 45.918C2.55859 45.918 0 43.3984 0 38.3984L0 7.53906C0 2.53906 2.55859 0 7.59766 0L38.3008 0C43.3594 0 45.918 2.55859 45.918 7.53906ZM28.4766 11.8945L20.3516 22.0312L18.6133 22.0312L18.6133 12.5781C18.6133 11.7383 18.0859 11.2109 17.2852 11.2109C16.4258 11.2109 15.918 11.7383 15.918 12.5781L15.918 22.0312L14.082 22.0312C13.6133 22.0312 13.2812 22.3438 13.2812 22.832C13.2812 23.2812 13.6133 23.6133 14.082 23.6133L15.918 23.6133L15.918 33.2812C15.918 34.1211 16.4258 34.668 17.2852 34.668C18.0859 34.668 18.6133 34.1211 18.6133 33.2812L18.6133 23.6133L20.332 23.6133L28.4375 33.9844C28.7695 34.4141 29.1016 34.668 29.6289 34.668C30.4688 34.668 30.8594 34.0039 30.8594 33.4961C30.8594 33.1445 30.7422 32.8516 30.4883 32.5391L23.2617 23.6133L30.6641 23.6133C31.1133 23.6133 31.4648 23.2422 31.4648 22.8125C31.4648 22.3633 31.1133 22.0312 30.6641 22.0312L23.3008 22.0312L30.4883 13.2812C30.7227 13.0078 30.8398 12.6953 30.8398 12.4219C30.8398 11.7188 30.293 11.2109 29.6289 11.2109C29.1602 11.2109 28.7695 11.543 28.4766 11.8945Z" fill="black" fill-opacity="0.85"/>
 </g>
</svg>
