<?xml version="1.0" encoding="UTF-8"?>
<!--Generator: Apple Native CoreSVG 326-->
<!DOCTYPE svg
PUBLIC "-//W3C//DTD SVG 1.1//EN"
       "http://www.w3.org/Graphics/SVG/1.1/DTD/svg11.dtd">
<svg version="1.1" xmlns="http://www.w3.org/2000/svg" xmlns:xlink="http://www.w3.org/1999/xlink" viewBox="0 0 73.7402 56.5039">
 <g>
  <rect height="56.5039" opacity="0" width="73.7402" x="0" y="0"/>
  <path d="M64.9072 28.2422C64.9072 43.8086 52.2705 56.4453 36.6846 56.4453C24.2971 56.4453 13.7726 48.4629 9.99986 37.3597C11.2235 37.5891 12.4459 37.3371 13.4305 36.7077C16.8571 46.2221 25.9579 52.9883 36.6846 52.9883C50.3955 52.9883 61.4502 41.9336 61.4502 28.2422C61.4502 14.5117 50.3955 3.45703 36.6846 3.45703C25.9468 3.45703 16.8382 10.2372 13.4197 19.786C12.4366 19.1599 11.2157 18.9087 9.98913 19.14C13.7569 7.99918 24.2996 0 36.6846 0C52.251 0 64.9072 12.6367 64.9072 28.2422Z" fill="black" fill-opacity="0.85"/>
  <path d="M9.61426 22.6172L3.77441 26.9727C2.87598 27.6367 2.91504 28.8477 3.77441 29.5117L9.63379 33.8867C10.8252 34.7852 12.4268 34.2773 12.4268 32.6758L12.4268 23.8086C12.4268 22.2461 10.8447 21.6797 9.61426 22.6172Z" fill="black" fill-opacity="0.85"/>
  <path d="M36.6846 48.125C47.6611 48.125 56.5869 39.2188 56.5869 28.2422C56.5869 17.2266 47.6611 8.33984 36.6846 8.33984C25.6885 8.33984 16.8018 17.2266 16.8018 28.2422C16.8018 39.2188 25.6885 48.125 36.6846 48.125ZM32.7197 38.125C31.6846 38.125 31.0596 37.3633 31.0596 36.2695L31.0596 19.9414C31.0596 18.8477 31.665 18.0664 32.7197 18.0664C33.7744 18.0664 34.4775 18.8281 34.4775 19.9414L34.4775 35.2344L42.3486 35.2344C43.1494 35.2344 43.833 35.8398 43.833 36.6797C43.833 37.5391 43.1494 38.125 42.3486 38.125Z" fill="black" fill-opacity="0.85"/>
 </g>
</svg>
