<?xml version="1.0" encoding="UTF-8"?>
<!--Generator: Apple Native CoreSVG 326-->
<!DOCTYPE svg
PUBLIC "-//W3C//DTD SVG 1.1//EN"
       "http://www.w3.org/Graphics/SVG/1.1/DTD/svg11.dtd">
<svg version="1.1" xmlns="http://www.w3.org/2000/svg" xmlns:xlink="http://www.w3.org/1999/xlink" viewBox="0 0 51.25 50.918">
 <g>
  <rect height="50.918" opacity="0" width="51.25" x="0" y="0"/>
  <path d="M25.4297 50.8789C39.4727 50.8789 50.8789 39.4922 50.8789 25.4492C50.8789 11.4062 39.4727 0 25.4297 0C11.3867 0 0 11.4062 0 25.4492C0 39.4922 11.3867 50.8789 25.4297 50.8789ZM25.4297 47.2461C13.3789 47.2461 3.63281 37.5 3.63281 25.4492C3.63281 13.3984 13.3789 3.65234 25.4297 3.65234C37.4805 3.65234 47.2266 13.3984 47.2266 25.4492C47.2266 37.5 37.4805 47.2461 25.4297 47.2461Z" fill="black" fill-opacity="0.85"/>
  <path d="M17.6172 35.6641L24.9609 35.6641C25.7031 35.6641 26.3086 35.0391 26.3086 34.2969C26.3086 33.5742 25.7031 32.9492 24.9609 32.9492L19.2383 32.9492L19.2383 16.5625C19.2383 15.7031 18.4961 14.9609 17.6367 14.9609C16.7773 14.9609 16.0352 15.7031 16.0352 16.5625L16.0352 33.9844C16.0352 35.0195 16.6211 35.6641 17.6172 35.6641ZM32.8125 35.8984C33.6719 35.8984 34.3945 35.1758 34.3945 34.2773L34.3945 16.7383C34.3945 15.625 33.6914 14.9609 32.5586 14.9609C31.6406 14.9609 30.8789 15.4492 30.3516 15.8789L27.4023 18.2031C27.0117 18.5156 26.7188 18.9258 26.7188 19.4922C26.7188 20.1953 27.1875 20.6836 27.8711 20.6836C28.2227 20.6836 28.4375 20.5664 28.6719 20.3906L31.1914 18.3789L31.1914 34.2773C31.1914 35.1758 31.9141 35.8984 32.8125 35.8984Z" fill="black" fill-opacity="0.85"/>
 </g>
</svg>
