<?xml version="1.0" encoding="UTF-8"?>
<!--Generator: Apple Native CoreSVG 326-->
<!DOCTYPE svg
PUBLIC "-//W3C//DTD SVG 1.1//EN"
       "http://www.w3.org/Graphics/SVG/1.1/DTD/svg11.dtd">
<svg version="1.1" xmlns="http://www.w3.org/2000/svg" xmlns:xlink="http://www.w3.org/1999/xlink" viewBox="0 0 56.6016 58.9258">
 <g>
  <rect height="58.9258" opacity="0" width="56.6016" x="0" y="0"/>
  <path d="M28.1055 58.9258C41.1914 58.9258 49.9023 49.9219 49.9023 36.3672C49.9023 28.9258 46.582 21.25 41.3867 16.7383C41.3477 9.90234 36.0156 5.625 28.1055 5.625C20.1953 5.625 14.8828 9.92188 14.8438 16.7578C9.60938 21.3281 6.32812 28.8477 6.32812 36.3672C6.32812 49.9219 15.0391 58.9258 28.1055 58.9258ZM28.1055 22.3438C32.6367 22.3438 37.1484 21.4453 40.0391 20.1758C43.3398 23.5156 46.5234 29.4336 46.5234 36.3672C46.5234 47.8711 39.1602 55.5469 28.1055 55.5469C17.0703 55.5469 9.70703 47.8711 9.70703 36.3672C9.70703 29.4727 12.7734 23.6133 16.1914 20.1758C19.0625 21.4453 23.5938 22.3438 28.1055 22.3438ZM26.6016 56.4844L29.4727 56.4844L29.4727 27.1289C29.4727 26.3477 28.8281 25.7031 28.0273 25.7031C27.2461 25.7031 26.6016 26.3477 26.6016 27.1289ZM20 31.3086C21.7578 31.3086 23.1641 29.8633 23.1641 28.125C23.1641 26.3867 21.7773 24.9414 20 24.9414C18.2812 24.9414 16.8555 26.3867 16.8555 28.125C16.8555 29.8438 18.2812 31.3086 20 31.3086ZM16.9922 41.3672C19.0234 41.3672 20.6836 39.707 20.6836 37.6562C20.6836 35.625 19.0234 33.9648 16.9922 33.9648C14.9414 33.9648 13.2812 35.625 13.2812 37.6562C13.2812 39.707 14.9414 41.3672 16.9922 41.3672ZM20 49.9414C21.6016 49.9414 22.8906 48.6523 22.8906 47.0703C22.8906 45.4688 21.6016 44.1992 20 44.1992C18.418 44.1992 17.1289 45.4688 17.1289 47.0703C17.1289 48.6523 18.418 49.9414 20 49.9414ZM36.2305 31.3086C37.9492 31.3086 39.375 29.8438 39.375 28.125C39.375 26.3867 37.9492 24.9414 36.2305 24.9414C34.4531 24.9414 33.0469 26.3867 33.0469 28.125C33.0469 29.8633 34.4727 31.3086 36.2305 31.3086ZM39.2383 41.3672C41.2695 41.3672 42.9297 39.707 42.9297 37.6562C42.9297 35.625 41.2695 33.9648 39.2383 33.9648C37.207 33.9648 35.5469 35.625 35.5469 37.6562C35.5469 39.707 37.207 41.3672 39.2383 41.3672ZM36.2305 49.9414C37.8125 49.9414 39.1016 48.6523 39.1016 47.0703C39.1016 45.4688 37.8125 44.1992 36.2305 44.1992C34.6289 44.1992 33.3398 45.4688 33.3398 47.0703C33.3398 48.6523 34.6289 49.9414 36.2305 49.9414ZM16.8359 3.65234L18.8672 4.51172C19.9414 4.92188 20.3516 5.50781 20.1562 6.42578L19.8633 7.85156L23.0273 7.8125L23.2422 6.42578C23.5352 4.17969 22.4805 2.55859 20.1953 1.66016L17.9492 0.664062C15.8203-0.0976562 14.7656 3.00781 16.8359 3.65234ZM39.3945 3.65234C41.4648 3.00781 40.4102-0.0976562 38.2812 0.664062L36.0352 1.66016C33.75 2.55859 32.6953 4.17969 32.9883 6.42578L33.2031 7.8125L36.3672 7.85156L36.0742 6.42578C35.8789 5.50781 36.2891 4.92188 37.3633 4.51172ZM12.4609 21.1914L7.73438 17.2461C6.91406 16.5625 5.85938 16.5039 5.19531 17.3047C4.55078 18.1055 4.78516 19.1406 5.58594 19.8047L10.3906 23.8086ZM7.89062 33.2227L1.79688 33.2227C0.703125 33.2227 0 33.8867 0 34.9023C0 35.918 0.703125 36.582 1.79688 36.582L7.89062 36.5625ZM10.1367 47.9492L5.42969 51.8555C4.62891 52.5195 4.39453 53.5547 5.07812 54.3555C5.72266 55.1758 6.77734 55.0977 7.59766 54.4141L12.2461 50.5273ZM43.75 21.2305L45.8008 23.8477L50.6445 19.8047C51.4453 19.1406 51.6797 18.1055 51.0352 17.3047C50.3711 16.5039 49.3164 16.5625 48.4961 17.2461ZM48.3398 33.2227L48.3398 36.5625L54.4336 36.582C55.5273 36.582 56.2305 35.918 56.2305 34.9023C56.2305 33.8867 55.5273 33.2227 54.4336 33.2227ZM46.0547 47.9102L43.9844 50.5078L48.6328 54.4141C49.4531 55.0977 50.5078 55.1758 51.1523 54.3555C51.8359 53.5547 51.6016 52.5195 50.8008 51.8555Z" fill="black" fill-opacity="0.85"/>
 </g>
</svg>
