<?xml version="1.0" encoding="UTF-8"?>
<!--Generator: Apple Native CoreSVG 326-->
<!DOCTYPE svg
PUBLIC "-//W3C//DTD SVG 1.1//EN"
       "http://www.w3.org/Graphics/SVG/1.1/DTD/svg11.dtd">
<svg version="1.1" xmlns="http://www.w3.org/2000/svg" xmlns:xlink="http://www.w3.org/1999/xlink" viewBox="0 0 46.2891 45.918">
 <g>
  <rect height="45.918" opacity="0" width="46.2891" x="0" y="0"/>
  <path d="M45.918 7.53906L45.918 38.3984C45.918 43.3594 43.3594 45.918 38.3008 45.918L7.59766 45.918C2.55859 45.918 0 43.3984 0 38.3984L0 7.53906C0 2.53906 2.55859 0 7.59766 0L38.3008 0C43.3594 0 45.918 2.55859 45.918 7.53906ZM24.9805 9.39453L24.9805 11.8164C24.375 11.7188 23.75 11.6797 23.125 11.6797C22.5195 11.6797 21.9531 11.7188 21.3672 11.7969L21.3672 9.39453C21.3672 8.94531 21.0352 8.61328 20.5664 8.61328C20.0977 8.61328 19.7852 8.94531 19.7852 9.39453L19.7852 12.1289C15.332 13.3594 12.2461 17.0703 12.2461 21.9141C12.2461 26.2109 14.4727 30.2344 18.3008 32.0117L18.3008 32.1094L13.418 32.1094C12.7344 32.1094 12.2656 32.5195 12.2656 33.1836C12.2656 33.8281 12.7344 34.2969 13.418 34.2969L30.9961 34.2969C31.6602 34.2969 32.168 33.8281 32.168 33.1836C32.168 32.5195 31.6602 32.0898 30.9961 32.0898L25.1758 32.0898C19.043 32.0898 14.8828 27.5977 14.8828 22.3438C14.8828 18.457 16.8555 15.7617 19.7852 14.6484L19.7852 21.5039C19.7852 21.9727 20.0977 22.3047 20.5664 22.3047C21.0352 22.3047 21.3672 21.9727 21.3672 21.5039L21.3672 14.1797C21.9531 14.1016 22.5195 14.0234 23.125 14.0234C23.7695 14.0234 24.375 14.1016 24.9805 14.2188L24.9805 21.5039C24.9805 21.9727 25.332 22.3047 25.7617 22.3047C26.2305 22.3047 26.582 21.9727 26.582 21.5039L26.582 14.707C29.3164 15.8008 31.2109 18.2422 31.3086 21.2695C31.3281 22.0703 31.7969 22.6172 32.5586 22.6172C33.3203 22.6172 33.8086 22.0508 33.8086 21.2695C33.7695 16.8359 30.625 13.418 26.582 12.1875L26.582 9.39453C26.582 8.94531 26.2305 8.61328 25.7617 8.61328C25.332 8.61328 24.9805 8.94531 24.9805 9.39453Z" fill="black" fill-opacity="0.85"/>
 </g>
</svg>
