<?xml version="1.0" encoding="UTF-8"?>
<!--Generator: Apple Native CoreSVG 326-->
<!DOCTYPE svg
PUBLIC "-//W3C//DTD SVG 1.1//EN"
       "http://www.w3.org/Graphics/SVG/1.1/DTD/svg11.dtd">
<svg version="1.1" xmlns="http://www.w3.org/2000/svg" xmlns:xlink="http://www.w3.org/1999/xlink" viewBox="0 0 46.2891 45.918">
 <g>
  <rect height="45.918" opacity="0" width="46.2891" x="0" y="0"/>
  <path d="M45.918 7.53906L45.918 38.3984C45.918 43.3594 43.3594 45.918 38.3008 45.918L7.59766 45.918C2.55859 45.918 0 43.3984 0 38.3984L0 7.53906C0 2.53906 2.55859 0 7.59766 0L38.3008 0C43.3594 0 45.918 2.55859 45.918 7.53906ZM28.457 12.7539L13.3008 20.9766C12.4219 21.4648 11.9922 22.1094 11.9922 22.9492C11.9922 23.8867 12.3828 24.4531 13.3008 24.9219L28.457 32.9102C28.8086 33.0859 29.1016 33.2031 29.5508 33.2031C30.625 33.2031 31.4062 32.4219 31.4062 31.4062C31.4062 30.5664 31.0352 30.0391 30.1172 29.6094L16.8945 22.9688L16.8945 22.8125L30.1172 16.0742C31.0156 15.625 31.4062 15.0781 31.4062 14.2383C31.4062 13.2422 30.6445 12.4805 29.6094 12.4805C29.1016 12.4805 28.8281 12.5781 28.457 12.7539Z" fill="black" fill-opacity="0.85"/>
 </g>
</svg>
