<?xml version="1.0" encoding="UTF-8"?>
<!--Generator: Apple Native CoreSVG 326-->
<!DOCTYPE svg
PUBLIC "-//W3C//DTD SVG 1.1//EN"
       "http://www.w3.org/Graphics/SVG/1.1/DTD/svg11.dtd">
<svg version="1.1" xmlns="http://www.w3.org/2000/svg" xmlns:xlink="http://www.w3.org/1999/xlink" viewBox="0 0 51.25 50.918">
 <g>
  <rect height="50.918" opacity="0" width="51.25" x="0" y="0"/>
  <path d="M25.4297 38.9453C32.8711 38.9453 38.9258 32.8906 38.9258 25.4492C38.9258 18.0078 32.8711 11.9531 25.4297 11.9531C17.9883 11.9531 11.9336 18.0078 11.9336 25.4492C11.9336 32.8906 17.9883 38.9453 25.4297 38.9453ZM25.4297 35.3125C19.9805 35.3125 15.5664 30.8984 15.5664 25.4492C15.5664 19.9805 19.9805 15.5664 25.4297 15.5664C30.8984 15.5664 35.3125 19.9805 35.3125 25.4492C35.3125 30.8984 30.8984 35.3125 25.4297 35.3125ZM5.76172 40.4102L10.6445 45.2734L20.1562 35.7422L15.293 30.8789ZM5.56641 10.4688L15.2734 20.1758L20.1562 15.3125L10.4492 5.58594ZM45.3711 10.5273L40.4883 5.66406L30.8398 15.3125L35.7227 20.1758ZM45.1758 40.3516L35.7227 30.918L30.8594 35.7812L40.3125 45.2344ZM25.4297 50.8789C39.4727 50.8789 50.8789 39.4922 50.8789 25.4492C50.8789 11.4062 39.4727 0 25.4297 0C11.3867 0 0 11.4062 0 25.4492C0 39.4922 11.3867 50.8789 25.4297 50.8789ZM25.4297 47.2461C13.3789 47.2461 3.63281 37.5 3.63281 25.4492C3.63281 13.3984 13.3789 3.65234 25.4297 3.65234C37.4805 3.65234 47.2266 13.3984 47.2266 25.4492C47.2266 37.5 37.4805 47.2461 25.4297 47.2461Z" fill="black" fill-opacity="0.85"/>
 </g>
</svg>
