<?xml version="1.0" encoding="UTF-8"?>
<!--Generator: Apple Native CoreSVG 326-->
<!DOCTYPE svg
PUBLIC "-//W3C//DTD SVG 1.1//EN"
       "http://www.w3.org/Graphics/SVG/1.1/DTD/svg11.dtd">
<svg version="1.1" xmlns="http://www.w3.org/2000/svg" xmlns:xlink="http://www.w3.org/1999/xlink" viewBox="0 0 33.6719 59.8242">
 <g>
  <rect height="59.8242" opacity="0" width="33.6719" x="0" y="0"/>
  <path d="M8.80859 50.8984L24.4922 50.8984C25.2539 50.8984 25.8398 50.293 25.8398 49.5312C25.8398 48.7695 25.2539 48.1641 24.4922 48.1641L8.80859 48.1641C8.04688 48.1641 7.46094 48.7695 7.46094 49.5312C7.46094 50.293 8.04688 50.8984 8.80859 50.8984ZM16.6406 58.0469C20.5273 58.0469 23.6719 56.1719 23.8867 53.3398L9.41406 53.3398C9.58984 56.1719 12.7344 58.0469 16.6406 58.0469Z" fill="black" fill-opacity="0.85"/>
  <path d="M0 15.332C0 24.7266 6.26953 27.2461 7.32422 44.3164C7.36328 45.1953 7.87109 45.7227 8.82812 45.7227L24.4727 45.7227C25.4297 45.7227 25.9375 45.1953 25.9766 44.3164C27.0312 27.2461 33.3008 24.7266 33.3008 15.332C33.3008 6.83594 25.957 0 16.6406 0C7.34375 0 0 6.83594 0 15.332Z" fill="black" fill-opacity="0.85"/>
 </g>
</svg>
