<?xml version="1.0" encoding="UTF-8"?>
<!--Generator: Apple Native CoreSVG 326-->
<!DOCTYPE svg
PUBLIC "-//W3C//DTD SVG 1.1//EN"
       "http://www.w3.org/Graphics/SVG/1.1/DTD/svg11.dtd">
<svg version="1.1" xmlns="http://www.w3.org/2000/svg" xmlns:xlink="http://www.w3.org/1999/xlink" viewBox="0 0 42.3242 61.1914">
 <g>
  <rect height="61.1914" opacity="0" width="42.3242" x="0" y="0"/>
  <path d="M23.75 51.2695C23.75 54.2969 25.4883 56.0352 28.5547 56.0352L37.1289 56.0352C40.1953 56.0352 41.9531 54.2969 41.9531 51.25L41.9531 10C41.9531 6.95312 40.1953 5.21484 37.1289 5.21484L28.5547 5.21484C25.4883 5.21484 23.75 6.95312 23.75 9.98047ZM27.7148 54.4336L27.7148 59.7656C27.7148 60.5664 28.3398 61.1914 29.1406 61.1914C29.9609 61.1914 30.6055 60.5664 30.6055 59.7852L30.6055 54.4336ZM35.0977 54.4336L35.0977 59.7852C35.0977 60.5664 35.7227 61.1914 36.543 61.1914C37.3438 61.1914 37.9883 60.5664 37.9883 59.7656L37.9883 54.4336ZM32.8516 16.4453C31.6016 16.4453 30.5859 15.4297 30.5859 14.1797C30.5859 12.9102 31.6016 11.8945 32.8516 11.8945C34.1016 11.8945 35.1172 12.9102 35.1172 14.1797C35.1172 15.4297 34.1016 16.4453 32.8516 16.4453ZM32.8516 24.6875C31.6016 24.6875 30.5859 23.6523 30.5859 22.3828C30.5859 21.1328 31.6016 20.1172 32.8516 20.1172C34.1016 20.1172 35.1172 21.1328 35.1172 22.3828C35.1172 23.6523 34.1016 24.6875 32.8516 24.6875ZM32.8516 32.8906C31.6016 32.8906 30.5859 31.8945 30.5859 30.625C30.5859 29.375 31.6016 28.3594 32.8516 28.3594C34.1016 28.3594 35.1172 29.375 35.1172 30.625C35.1172 31.8945 34.1016 32.8906 32.8516 32.8906ZM32.8516 41.0938C31.6016 41.0938 30.5859 40.0977 30.5859 38.8281C30.5859 37.5586 31.6016 36.5625 32.8516 36.5625C34.1016 36.5625 35.1172 37.5586 35.1172 38.8281C35.1172 40.0977 34.1016 41.0938 32.8516 41.0938ZM32.8516 49.3164C31.6016 49.3164 30.5859 48.3203 30.5859 47.0508C30.5859 45.7812 31.6016 44.7852 32.8516 44.7852C34.1016 44.7852 35.1172 45.7812 35.1172 47.0508C35.1172 48.3203 34.1016 49.3164 32.8516 49.3164Z" fill="black" fill-opacity="0.85"/>
  <path d="M0 51.1914C0 54.2383 1.75781 55.9766 4.80469 55.9766L13.3789 55.9766C16.4453 55.9766 18.2031 54.2383 18.2031 51.1719L18.2031 9.94141C18.2031 6.89453 16.4453 5.15625 13.3789 5.15625L4.80469 5.15625C1.75781 5.15625 0 6.89453 0 9.92188ZM3.96484 6.75781L6.85547 6.75781L6.85547 1.40625C6.85547 0.625 6.21094 0 5.39062 0C4.58984 0 3.96484 0.625 3.96484 1.42578ZM11.3477 6.75781L14.2383 6.75781L14.2383 1.42578C14.2383 0.625 13.5938 0 12.793 0C11.9727 0 11.3477 0.625 11.3477 1.40625ZM9.10156 16.4062C7.85156 16.4062 6.83594 15.4102 6.83594 14.1406C6.83594 12.8711 7.85156 11.8555 9.10156 11.8555C10.3711 11.8555 11.3672 12.8711 11.3672 14.1406C11.3672 15.4102 10.3711 16.4062 9.10156 16.4062ZM9.10156 24.6289C7.85156 24.6289 6.83594 23.6328 6.83594 22.3633C6.83594 21.0938 7.85156 20.0977 9.10156 20.0977C10.3711 20.0977 11.3672 21.0938 11.3672 22.3633C11.3672 23.6328 10.3711 24.6289 9.10156 24.6289ZM9.10156 32.832C7.85156 32.832 6.83594 31.8164 6.83594 30.5664C6.83594 29.2969 7.85156 28.3008 9.10156 28.3008C10.3711 28.3008 11.3672 29.2969 11.3672 30.5664C11.3672 31.8164 10.3711 32.832 9.10156 32.832ZM9.10156 41.0742C7.85156 41.0742 6.83594 40.0586 6.83594 38.8086C6.83594 37.5195 7.85156 36.5039 9.10156 36.5039C10.3711 36.5039 11.3672 37.5195 11.3672 38.8086C11.3672 40.0586 10.3711 41.0742 9.10156 41.0742ZM9.10156 49.2969C7.85156 49.2969 6.83594 48.2812 6.83594 47.0117C6.83594 45.7617 7.85156 44.7461 9.10156 44.7461C10.3711 44.7461 11.3672 45.7617 11.3672 47.0117C11.3672 48.2812 10.3711 49.2969 9.10156 49.2969Z" fill="black" fill-opacity="0.85"/>
 </g>
</svg>
