<?xml version="1.0" encoding="UTF-8"?>
<!--Generator: Apple Native CoreSVG 326-->
<!DOCTYPE svg
PUBLIC "-//W3C//DTD SVG 1.1//EN"
       "http://www.w3.org/Graphics/SVG/1.1/DTD/svg11.dtd">
<svg version="1.1" xmlns="http://www.w3.org/2000/svg" xmlns:xlink="http://www.w3.org/1999/xlink" viewBox="0 0 48.5156 50.918">
 <g>
  <rect height="50.918" opacity="0" width="48.5156" x="0" y="0"/>
  <path d="M24.0625 25.1172C35.2734 25.1172 43.8477 27.8906 48.1445 32.6758L48.1445 13.2812C48.1445 5.29297 38.6523 0 24.0625 0C9.49219 0 0 5.29297 0 13.2812L0 32.6758C4.27734 27.8906 12.8711 25.1172 24.0625 25.1172ZM24.0625 50.8789C38.0078 50.8789 48.0664 46.4062 48.0664 39.5508C48.0664 32.7148 38.0078 28.2227 24.0625 28.2227C10.1367 28.2227 0.078125 32.7148 0.078125 39.5508C0.078125 46.4062 10.1367 50.8789 24.0625 50.8789ZM24.0625 38.6914C18.5938 38.6914 14.1602 35.8789 13.8672 32.4414C16.8359 31.8164 20.293 31.4453 24.0625 31.4453C27.8711 31.4453 31.3086 31.8164 34.2773 32.4414C33.9844 35.8789 29.5312 38.6914 24.0625 38.6914Z" fill="black" fill-opacity="0.85"/>
 </g>
</svg>
