<?xml version="1.0" encoding="UTF-8"?>
<!--Generator: Apple Native CoreSVG 326-->
<!DOCTYPE svg
PUBLIC "-//W3C//DTD SVG 1.1//EN"
       "http://www.w3.org/Graphics/SVG/1.1/DTD/svg11.dtd">
<svg version="1.1" xmlns="http://www.w3.org/2000/svg" xmlns:xlink="http://www.w3.org/1999/xlink" viewBox="0 0 63.4961 47.3633">
 <g>
  <rect height="47.3633" opacity="0" width="63.4961" x="0" y="0"/>
  <path d="M0 45.6055C0 46.543 0.78125 47.3438 1.73828 47.3438L61.4062 47.3438C62.3438 47.3438 63.125 46.543 63.125 45.6055C63.125 44.6484 62.3438 43.8672 61.4062 43.8672L1.73828 43.8672C0.78125 43.8672 0 44.6484 0 45.6055ZM0 1.71875C0 2.67578 0.78125 3.45703 1.73828 3.45703L61.4062 3.45703C62.3438 3.45703 63.125 2.67578 63.125 1.71875C63.125 0.78125 62.3438 0 61.4062 0L1.73828 0C0.78125 0 0 0.78125 0 1.71875Z" fill="black" fill-opacity="0.85"/>
  <path d="M24.9023 35.1758L31.582 30.2734L38.2617 35.1758C39.3945 35.9961 40.7031 35.2344 40.2148 33.75L37.5977 25.8984L44.4141 20.9961C45.6055 20.1562 45.0977 18.7305 43.7109 18.7305L35.293 18.7305L32.7734 10.918C32.3633 9.60938 30.8008 9.60938 30.3906 10.918L27.8516 18.7305L19.4141 18.7305C18.0469 18.7305 17.5391 20.1562 18.7305 20.9961L25.5664 25.8984L22.9492 33.75C22.4609 35.2344 23.75 35.9961 24.9023 35.1758Z" fill="black" fill-opacity="0.85"/>
 </g>
</svg>
