<?xml version="1.0" encoding="UTF-8"?>
<!--Generator: Apple Native CoreSVG 326-->
<!DOCTYPE svg
PUBLIC "-//W3C//DTD SVG 1.1//EN"
       "http://www.w3.org/Graphics/SVG/1.1/DTD/svg11.dtd">
<svg version="1.1" xmlns="http://www.w3.org/2000/svg" xmlns:xlink="http://www.w3.org/1999/xlink" viewBox="0 0 51.25 50.918">
 <g>
  <rect height="50.918" opacity="0" width="51.25" x="0" y="0"/>
  <path d="M25.4297 50.8789C31.0742 50.8789 36.3281 48.9844 40.5664 45.8008C34.1602 44.9219 29.1797 41.7969 26.2305 36.6797C24.6484 33.8867 24.0039 31.1719 23.7695 28.3398C21.9727 29.6289 20.4102 31.1328 19.1406 33.3008C16.2305 38.3008 16.6406 44.1406 20.1562 50.2344C21.8555 50.6641 23.6133 50.8789 25.4297 50.8789ZM15.5078 48.8281C12.9688 42.7539 13.125 36.7578 16.1328 31.6016C17.6367 29.0039 19.4922 27.1484 21.6797 25.5859C19.5508 24.6484 17.6758 24.2578 15.5078 24.2578C9.80469 24.2578 4.94141 27.5586 1.46484 33.8477C3.84766 40.5664 9.00391 46.0547 15.5078 48.8281ZM0.292969 29.1602C4.23828 23.7695 9.47266 20.8008 15.5078 20.8008C18.5156 20.8008 21.0156 21.4844 23.4961 22.6367C23.3008 20.0391 22.7148 18.1055 21.543 16.0938C18.7109 11.1719 13.4766 8.61328 6.40625 8.73047C2.44141 13.1836 0 19.0625 0 25.4492C0 26.6992 0.117188 27.9492 0.292969 29.1602ZM26.9531 22.1875C29.1211 20.7031 30.4883 19.2188 31.6406 17.2461C34.4922 12.3828 34.1016 6.64062 30.5273 0.585938C28.8867 0.214844 27.1875 0 25.4102 0C19.5898 0 14.1797 2.03125 9.88281 5.41016C16.4453 6.13281 21.5625 9.17969 24.5508 14.375C26.0352 16.9727 26.6992 19.4727 26.9531 22.1875ZM35.7031 27.0508C41.3281 27.0508 46.1328 23.9258 49.6094 18.0078C47.4609 10.8008 42.0703 4.88281 35.1367 1.99219C37.7148 7.96875 37.6172 13.8477 34.6484 18.9648C33.0078 21.7969 30.9375 23.6523 28.5547 25.2539C30.7031 26.2891 32.8906 27.0508 35.7031 27.0508ZM44.082 42.5C48.2812 38.0078 50.8789 31.9922 50.8789 25.4492C50.8789 24.5117 50.8203 23.6133 50.7227 22.6953C46.7383 27.7734 41.582 30.5078 35.7031 30.5078C32.4609 30.5078 29.7852 29.6875 27.2266 28.457C27.4414 30.6641 27.9688 32.7734 29.2383 34.9609C32.0312 39.8633 37.207 42.4414 44.082 42.5Z" fill="black" fill-opacity="0.85"/>
 </g>
</svg>
