<?xml version="1.0" encoding="UTF-8"?>
<!--Generator: Apple Native CoreSVG 326-->
<!DOCTYPE svg
PUBLIC "-//W3C//DTD SVG 1.1//EN"
       "http://www.w3.org/Graphics/SVG/1.1/DTD/svg11.dtd">
<svg version="1.1" xmlns="http://www.w3.org/2000/svg" xmlns:xlink="http://www.w3.org/1999/xlink" viewBox="0 0 51.25 50.918">
 <g>
  <rect height="50.918" opacity="0" width="51.25" x="0" y="0"/>
  <path d="M50.8789 25.4492C50.8789 39.4531 39.4531 50.8789 25.4297 50.8789C11.4258 50.8789 0 39.4531 0 25.4492C0 11.4258 11.4258 0 25.4297 0C39.4531 0 50.8789 11.4258 50.8789 25.4492ZM19.043 33.9258C18.0469 33.9258 17.3438 34.5508 17.3438 35.4883C17.3438 36.4453 18.0469 37.0898 19.043 37.0898L31.9141 37.0898C32.8906 37.0898 33.5938 36.4453 33.5938 35.4883C33.5938 34.5508 32.8906 33.9258 31.9141 33.9258ZM15.0586 25.332C14.0625 25.332 13.3594 25.9766 13.3594 26.9336C13.3594 27.8906 14.0625 28.5156 15.0586 28.5156L35.8789 28.5156C36.875 28.5156 37.5781 27.8906 37.5781 26.9336C37.5781 25.9766 36.875 25.332 35.8789 25.332ZM11.25 16.8164C10.2734 16.8164 9.55078 17.4414 9.55078 18.3984C9.55078 19.3555 10.2734 19.9805 11.25 19.9805L39.707 19.9805C40.6641 19.9805 41.3867 19.3555 41.3867 18.3984C41.3867 17.4414 40.6641 16.8164 39.707 16.8164Z" fill="black" fill-opacity="0.85"/>
 </g>
</svg>
