<?xml version="1.0" encoding="UTF-8"?>
<!--Generator: Apple Native CoreSVG 326-->
<!DOCTYPE svg
PUBLIC "-//W3C//DTD SVG 1.1//EN"
       "http://www.w3.org/Graphics/SVG/1.1/DTD/svg11.dtd">
<svg version="1.1" xmlns="http://www.w3.org/2000/svg" xmlns:xlink="http://www.w3.org/1999/xlink" viewBox="0 0 62.7734 46.6992">
 <g>
  <rect height="46.6992" opacity="0" width="62.7734" x="0" y="0"/>
  <path d="M49.1602 42.9492C56.6016 42.9492 62.4023 37.5781 62.4023 30.8203C62.4023 25.6445 59.4727 21.1133 54.5117 19.1602C54.6484 8.06641 46.7188 0 36.6016 0C29.7461 0 24.9609 3.71094 22.0703 8.18359C15.9766 6.21094 9.25781 10.8984 9.17969 17.8906C3.57422 18.6719 0 23.5742 0 29.6484C0 36.9336 6.32812 42.9297 14.7461 42.9297ZM49.1406 39.4922L14.7266 39.4727C8.26172 39.4727 3.45703 35 3.45703 29.6484C3.45703 24.5703 6.52344 20.5859 11.875 20.5859C12.1875 20.5859 12.3242 20.4102 12.3242 20.0977C12.3242 12.5586 17.9297 9.92188 23.1641 11.7578C23.457 11.8555 23.6328 11.7969 23.7891 11.5234C26.25 7.14844 30.0391 3.45703 36.6016 3.45703C44.8438 3.45703 50.6836 10 51.1523 17.7148C51.2305 18.7891 51.1523 20.0586 51.0742 21.1914C51.0547 21.4844 51.1719 21.6797 51.4453 21.7383C56.0156 22.8125 58.9453 26.25 58.9453 30.8203C58.9453 35.6836 54.668 39.4922 49.1406 39.4922Z" fill="black" fill-opacity="0.85"/>
  <path d="M21.2695 32.8516C23.9648 35.5664 27.8125 35.5469 30.5273 32.8516L35.5859 27.8125C38.2812 25.1367 38.2617 21.2891 35.5859 18.5547C34.6094 17.5586 33.4766 17.0898 32.6953 16.9336L31.5625 18.0469C31.3672 18.3008 31.0742 18.6133 30.6836 19.082C31.6992 18.8672 32.9102 19.2969 33.8867 20.2734C35.6445 22.0117 35.6641 24.4727 33.8477 26.2891L29.0039 31.1523C27.2266 32.9297 24.7266 32.9297 22.9688 31.1719C21.2109 29.375 21.2109 26.9141 22.9883 25.1367L25.2539 22.8711C25 21.8164 25.0586 20.6055 25.6055 19.2969L21.2695 23.6133C18.5742 26.3086 18.5742 30.1367 21.2695 32.8516ZM42.4609 11.6992C39.7656 8.98438 35.8984 8.98438 33.2031 11.6797L28.125 16.7383C25.4297 19.4336 25.4688 23.2812 28.1641 25.9961C29.1406 26.9922 30.293 27.4609 31.0156 27.6172L32.1484 26.5039C32.5195 26.0742 32.6172 25.957 32.8906 25.5469C31.9727 25.6641 30.7617 25.2148 29.8438 24.2969C28.0664 22.5195 28.0664 20.0781 29.8633 18.2812L34.7266 13.418C36.5234 11.6211 39.0039 11.6211 40.7422 13.3789C42.5 15.1758 42.5 17.6758 40.7227 19.4141L38.457 21.6602C38.7305 22.7344 38.6719 23.9453 38.125 25.2539L42.4609 20.9375C45.1562 18.2422 45.1172 14.3945 42.4609 11.6992Z" fill="black" fill-opacity="0.85"/>
 </g>
</svg>
