<?xml version="1.0" encoding="UTF-8"?>
<!--Generator: Apple Native CoreSVG 326-->
<!DOCTYPE svg
PUBLIC "-//W3C//DTD SVG 1.1//EN"
       "http://www.w3.org/Graphics/SVG/1.1/DTD/svg11.dtd">
<svg version="1.1" xmlns="http://www.w3.org/2000/svg" xmlns:xlink="http://www.w3.org/1999/xlink" viewBox="0 0 34.6484 50.4492">
 <g>
  <rect height="50.4492" opacity="0" width="34.6484" x="0" y="0"/>
  <path d="M5.46875 49.1016L28.8086 49.1016C32.3047 49.1016 34.2773 47.0703 34.2773 43.3203L34.2773 25.5469C34.2773 21.8164 32.3047 19.7852 28.8086 19.7852L5.46875 19.7852C1.95312 19.7852 0 21.8164 0 25.5469L0 43.3203C0 47.0703 1.95312 49.1016 5.46875 49.1016ZM4.47266 21.4453L7.91016 21.4453L7.91016 13.457C7.91016 6.95312 12.0312 3.26172 17.1289 3.26172C22.2266 3.26172 26.3867 6.95312 26.3867 13.457L26.3867 21.4453L29.8242 21.4453L29.8242 13.8672C29.8242 4.76562 23.8867 0 17.1289 0C10.3906 0 4.47266 4.76562 4.47266 13.8672Z" fill="black" fill-opacity="0.85"/>
 </g>
</svg>
