<?xml version="1.0" encoding="UTF-8"?>
<!--Generator: Apple Native CoreSVG 326-->
<!DOCTYPE svg
PUBLIC "-//W3C//DTD SVG 1.1//EN"
       "http://www.w3.org/Graphics/SVG/1.1/DTD/svg11.dtd">
<svg version="1.1" xmlns="http://www.w3.org/2000/svg" xmlns:xlink="http://www.w3.org/1999/xlink" viewBox="0 0 58.9258 44.5898">
 <g>
  <rect height="44.5898" opacity="0" width="58.9258" x="0" y="0"/>
  <path d="M19.1992 44.5508L39.3555 44.5508C53.6328 44.5508 58.5547 39.2188 58.5547 26.0742L58.5547 18.4766C58.5547 5.33203 53.6328 0 39.3555 0L19.1992 0C4.92188 0 0 5.33203 0 18.4766L0 26.0742C0 39.2188 4.92188 44.5508 19.1992 44.5508ZM19.1992 41.0938C7.22656 41.0938 3.45703 37.0703 3.45703 26.0742L3.45703 18.4766C3.45703 7.48047 7.22656 3.47656 19.1992 3.47656L39.3555 3.47656C51.3281 3.47656 55.0977 7.48047 55.0977 18.4766L55.0977 26.0742C55.0977 37.0703 51.3281 41.0938 39.3555 41.0938Z" fill="black" fill-opacity="0.85"/>
  <path d="M15.0977 32.832C15.9766 32.832 16.543 32.2266 16.543 31.2891L16.543 16.8555L16.6797 16.8555L20.4297 30.957C20.6445 31.8359 21.1719 32.4609 22.1094 32.4609C23.0469 32.4609 23.5156 31.8555 23.7695 30.9375L27.5 16.8555L27.6367 16.8555L27.6367 31.2891C27.6367 32.2461 28.1641 32.832 29.0625 32.832C30 32.832 30.5078 32.207 30.5078 31.2891L30.5078 14.082C30.5078 12.6172 29.6484 11.8164 28.2227 11.8164C26.9531 11.8164 26.2305 12.4414 25.918 13.7109L22.168 28.2617L22.0312 28.2617L18.2031 13.7109C17.9102 12.4414 17.1484 11.8164 15.957 11.8164C14.5312 11.8164 13.6719 12.6758 13.6719 14.082L13.6719 31.2891C13.6719 32.207 14.2383 32.832 15.0977 32.832ZM35.3906 32.4805L44.1211 32.4805C44.9023 32.4805 45.3711 31.9531 45.3711 31.1719C45.3711 30.3516 44.8828 29.8633 44.1211 29.8633L37.832 29.8633L37.832 29.6875L41.7969 24.5117C44.1797 21.4648 44.9805 19.6094 44.9805 17.4219C44.9805 14.082 42.8125 11.6016 39.4141 11.6016C36.25 11.6016 33.9258 14.2773 33.9258 16.9141C33.9258 17.7148 34.3945 18.3008 35.2539 18.3008C35.9961 18.3008 36.4453 17.9688 36.6602 17.2461C37.0898 15.3906 37.8125 14.1797 39.3945 14.1797C41.1133 14.1797 41.9922 15.7422 41.9922 17.5586C41.9922 19.5508 40.7422 21.5039 39.3555 23.3398L34.6875 29.4336C34.2773 29.9609 33.9062 30.5078 33.9062 31.1719C33.9062 31.9336 34.3945 32.4805 35.3906 32.4805Z" fill="black" fill-opacity="0.85"/>
 </g>
</svg>
