<?xml version="1.0" encoding="UTF-8"?>
<!--Generator: Apple Native CoreSVG 326-->
<!DOCTYPE svg
PUBLIC "-//W3C//DTD SVG 1.1//EN"
       "http://www.w3.org/Graphics/SVG/1.1/DTD/svg11.dtd">
<svg version="1.1" xmlns="http://www.w3.org/2000/svg" xmlns:xlink="http://www.w3.org/1999/xlink" viewBox="0 0 51.25 50.918">
 <g>
  <rect height="50.918" opacity="0" width="51.25" x="0" y="0"/>
  <path d="M50.8789 25.4492C50.8789 39.4531 39.4531 50.8789 25.4297 50.8789C11.4258 50.8789 0 39.4531 0 25.4492C0 11.4258 11.4258 0 25.4297 0C39.4531 0 50.8789 11.4258 50.8789 25.4492ZM11.9531 22.4609C11.9531 28.3008 16.7578 33.0859 22.5977 33.0859C24.7461 33.0859 26.7578 32.4023 28.4375 31.2891L35.3516 38.2031C35.8398 38.7109 36.3086 38.9258 36.9922 38.9258C38.0859 38.9258 38.8477 38.1055 38.8477 36.9727C38.8477 36.4453 38.5938 35.957 38.2031 35.5664L31.25 28.5742C32.4805 26.8555 33.2227 24.7461 33.2227 22.4609C33.2227 16.582 28.457 11.7969 22.5977 11.7969C16.7578 11.7969 11.9531 16.6016 11.9531 22.4609ZM30.1562 22.4414C30.1562 26.582 26.7578 30.0195 22.5977 30.0195C18.4375 30.0195 15.0195 26.582 15.0195 22.4414C15.0195 18.3008 18.4375 14.8633 22.5977 14.8633C26.7578 14.8633 30.1562 18.2812 30.1562 22.4414Z" fill="black" fill-opacity="0.85"/>
 </g>
</svg>
