<?xml version="1.0" encoding="UTF-8"?>
<!--Generator: Apple Native CoreSVG 326-->
<!DOCTYPE svg
PUBLIC "-//W3C//DTD SVG 1.1//EN"
       "http://www.w3.org/Graphics/SVG/1.1/DTD/svg11.dtd">
<svg version="1.1" xmlns="http://www.w3.org/2000/svg" xmlns:xlink="http://www.w3.org/1999/xlink" viewBox="0 0 51.25 50.918">
 <g>
  <rect height="50.918" opacity="0" width="51.25" x="0" y="0"/>
  <path d="M25.4297 50.8789C39.4727 50.8789 50.8789 39.4922 50.8789 25.4492C50.8789 11.4062 39.4727 0 25.4297 0C11.3867 0 0 11.4062 0 25.4492C0 39.4922 11.3867 50.8789 25.4297 50.8789ZM25.4297 47.2461C13.3789 47.2461 3.63281 37.5 3.63281 25.4492C3.63281 13.3984 13.3789 3.65234 25.4297 3.65234C37.4805 3.65234 47.2266 13.3984 47.2266 25.4492C47.2266 37.5 37.4805 47.2461 25.4297 47.2461Z" fill="black" fill-opacity="0.85"/>
  <path d="M11.0352 35.8984C11.8164 35.8984 12.3047 35.3906 12.3047 34.6094L12.3047 27.3438L15.6641 27.3438L18.9258 35C19.1797 35.6055 19.5898 35.8984 20.1758 35.8984C20.9766 35.8984 21.4453 35.3906 21.4453 34.7656C21.4453 34.4531 21.3672 34.2188 21.1719 33.7891L18.1055 26.7969C20.0781 25.9961 21.4648 24.1016 21.4648 21.25C21.4648 17.5391 19.1992 15.2344 15.4102 15.2344L10.9961 15.2344C10.2539 15.2344 9.74609 15.7617 9.74609 16.543L9.74609 34.6094C9.74609 35.3906 10.2344 35.8984 11.0352 35.8984ZM12.3047 25.293L12.3047 17.3633L15.1562 17.3633C17.5586 17.3633 18.9062 18.9062 18.9062 21.2891C18.9062 23.6719 17.6562 25.293 15.1953 25.293ZM25.7422 35.9375C26.4258 35.9375 26.8945 35.4492 26.8945 34.7266L26.8945 19.1602L27.0703 19.1602L31.3672 34.3359C31.5625 35.0391 31.9727 35.625 32.832 35.625C33.6719 35.625 34.082 35.0977 34.3359 34.2773L38.6133 19.1602L38.7891 19.1602L38.7891 34.7266C38.7891 35.4492 39.2578 35.9375 39.9414 35.9375C40.625 35.9375 41.0938 35.4492 41.0938 34.7266L41.0938 16.7773C41.0938 15.6641 40.3906 14.9609 39.2578 14.9609C38.3008 14.9609 37.6367 15.5469 37.3633 16.5234L32.9883 32.2266L32.7539 32.2266L28.3008 16.5039C28.0469 15.5664 27.3633 14.9609 26.4258 14.9609C25.293 14.9609 24.5898 15.6836 24.5898 16.7773L24.5898 34.7266C24.5898 35.4492 25.0391 35.9375 25.7422 35.9375Z" fill="black" fill-opacity="0.85"/>
 </g>
</svg>
