<?xml version="1.0" encoding="UTF-8"?>
<!--Generator: Apple Native CoreSVG 326-->
<!DOCTYPE svg
PUBLIC "-//W3C//DTD SVG 1.1//EN"
       "http://www.w3.org/Graphics/SVG/1.1/DTD/svg11.dtd">
<svg version="1.1" xmlns="http://www.w3.org/2000/svg" xmlns:xlink="http://www.w3.org/1999/xlink" viewBox="0 0 54.5997 54.8633">
 <g>
  <rect height="54.8633" opacity="0" width="54.5997" x="0" y="0"/>
  <path d="M4.6729 45.8203L9.02837 50.1953L11.8995 47.3047C18.4229 40.7617 26.0792 43.0273 32.7979 36.3086L51.1768 17.9297C55.2393 13.8477 55.2393 7.71484 51.1768 3.67188C47.1338-0.390625 41.001-0.390625 36.919 3.69141L18.5401 22.0508C11.5479 29.0625 14.087 36.4062 7.56353 42.9297ZM14.8292 36.2305C16.1963 32.3633 17.0362 28.1641 20.8448 24.3555L39.2237 5.99609C42.0167 3.20312 46.1182 3.22266 48.8721 5.97656C51.626 8.73047 51.6456 12.8516 48.8721 15.625L30.4932 34.0039C26.6651 37.832 22.6026 38.75 18.794 40.2148ZM1.04009 49.4336C-0.366159 50.8203-0.327097 52.5 1.04009 53.8477C2.36822 55.1953 4.08697 55.2148 5.45415 53.8281L6.919 52.3828L2.4854 47.9688ZM27.0167 27.8906C28.5401 29.4141 31.001 29.3945 32.5245 27.8711L39.8877 20.4688C41.4502 18.8867 41.4307 16.4648 39.8877 14.9805C38.3643 13.3984 35.9034 13.4766 34.3799 14.9805L27.0167 22.3438C25.5127 23.8672 25.4932 26.3477 27.0167 27.8906ZM28.4815 26.4258C27.7784 25.6836 27.7588 24.5703 28.4815 23.8281L35.8448 16.4453C36.4502 15.8398 37.3292 15.7617 38.0127 16.1914C39.1065 16.8164 39.2627 18.1641 38.4229 19.0234L31.0792 26.3867C30.337 27.1094 29.1846 27.1289 28.4815 26.4258ZM21.6456 30.1758L24.712 33.1836C25.2784 33.75 26.0596 33.6719 26.5284 33.2031C27.0557 32.7148 27.1143 31.9336 26.5284 31.3477L23.4815 28.3203C22.9346 27.8125 22.1534 27.832 21.6456 28.3203C21.1768 28.8086 21.0987 29.6289 21.6456 30.1758ZM35.6885 6.03516L48.8135 19.1797L50.5518 17.4414L37.3877 4.27734Z" fill="black" fill-opacity="0.85"/>
 </g>
</svg>
