<?xml version="1.0" encoding="UTF-8"?>
<!--Generator: Apple Native CoreSVG 326-->
<!DOCTYPE svg
PUBLIC "-//W3C//DTD SVG 1.1//EN"
       "http://www.w3.org/Graphics/SVG/1.1/DTD/svg11.dtd">
<svg version="1.1" xmlns="http://www.w3.org/2000/svg" xmlns:xlink="http://www.w3.org/1999/xlink" viewBox="0 0 59.5508 45.918">
 <g>
  <rect height="45.918" opacity="0" width="59.5508" x="0" y="0"/>
  <path d="M2.28516 8.125L2.28516 11.1914L56.8945 11.1914L56.8945 8.125ZM7.59766 45.918L51.5625 45.918C56.6211 45.918 59.1797 43.3594 59.1797 38.3984L59.1797 7.53906C59.1797 2.55859 56.6211 0 51.5625 0L7.59766 0C2.55859 0 0 2.53906 0 7.53906L0 38.3984C0 43.3984 2.55859 45.918 7.59766 45.918ZM7.67578 42.4609C4.94141 42.4609 3.45703 41.0156 3.45703 38.2031L3.45703 7.71484C3.45703 4.92188 4.94141 3.45703 7.67578 3.45703L51.5039 3.45703C54.1797 3.45703 55.7031 4.92188 55.7031 7.71484L55.7031 38.2031C55.7031 41.0156 54.1797 42.4609 51.5039 42.4609Z" fill="black" fill-opacity="0.85"/>
  <path d="M29.6094 36.4062C30.5273 36.4062 31.3086 35.6445 31.3086 34.7266L31.3086 25.918L31.1719 21.4062L34.043 24.375L37.207 27.5391C37.5391 27.8711 37.9492 28.0469 38.3789 28.0469C39.3164 28.0469 39.9805 27.4219 39.9805 26.5234C39.9805 25.9961 39.7461 25.6055 39.3555 25.2539L30.8594 17.207C30.4102 16.7969 30.0586 16.6211 29.6094 16.6211C29.1406 16.6211 28.8086 16.7969 28.3398 17.207L19.8438 25.2539C19.4531 25.6055 19.2188 25.9961 19.2188 26.5234C19.2188 27.4219 19.8633 28.0469 20.8008 28.0469C21.2305 28.0469 21.6797 27.8711 21.9922 27.5391L25.1562 24.375L28.0273 21.4062L27.8906 25.918L27.8906 34.7266C27.8906 35.6445 28.6719 36.4062 29.6094 36.4062Z" fill="black" fill-opacity="0.85"/>
 </g>
</svg>
