<?xml version="1.0" encoding="UTF-8"?>
<!--Generator: Apple Native CoreSVG 326-->
<!DOCTYPE svg
PUBLIC "-//W3C//DTD SVG 1.1//EN"
       "http://www.w3.org/Graphics/SVG/1.1/DTD/svg11.dtd">
<svg version="1.1" xmlns="http://www.w3.org/2000/svg" xmlns:xlink="http://www.w3.org/1999/xlink" viewBox="0 0 56.9531 51.7773">
 <g>
  <rect height="51.7773" opacity="0" width="56.9531" x="0" y="0"/>
  <path d="M10.0195 51.7578C12.9297 51.7578 19.8828 48.75 24.2578 45.8203C24.6875 45.5078 25.0391 45.4102 25.3906 45.4102C25.9375 45.4688 26.4648 45.5078 27.0117 45.5078C44.5312 45.5078 56.582 35.2539 56.582 22.7539C56.582 10.1758 44.0234 0 28.3008 0C12.5586 0 0 10.1758 0 22.7539C0 30.7812 4.94141 37.8711 12.8711 42.0508C13.2812 42.2656 13.3984 42.6367 13.1836 43.0469C11.8945 45.2148 9.62891 47.793 8.65234 49.0234C7.67578 50.2734 8.14453 51.7578 10.0195 51.7578Z" fill="black" fill-opacity="0.85"/>
 </g>
</svg>
