<?xml version="1.0" encoding="UTF-8"?>
<!--Generator: Apple Native CoreSVG 326-->
<!DOCTYPE svg
PUBLIC "-//W3C//DTD SVG 1.1//EN"
       "http://www.w3.org/Graphics/SVG/1.1/DTD/svg11.dtd">
<svg version="1.1" xmlns="http://www.w3.org/2000/svg" xmlns:xlink="http://www.w3.org/1999/xlink" viewBox="0 0 52.4805 56.9336">
 <g>
  <rect height="56.9336" opacity="0" width="52.4805" x="0" y="0"/>
  <path d="M16.9141 26.3867C16.9141 36.0352 23.3203 42.8516 32.8711 43.5547L32.8711 50.0586L23.2617 50.0586C22.3438 50.0586 21.6211 50.7812 21.6211 51.6797C21.6211 52.5781 22.3438 53.3203 23.2617 53.3203L45.7617 53.3203C46.6797 53.3203 47.4023 52.5781 47.4023 51.6797C47.4023 50.7812 46.6797 50.0586 45.7617 50.0586L36.1523 50.0586L36.1523 43.5547C45.7031 42.8516 52.1094 36.0352 52.1094 26.3867L52.1094 21.3867C52.1094 20.4883 51.3867 19.7656 50.4883 19.7656C49.5703 19.7656 48.8477 20.4883 48.8477 21.3867L48.8477 26.2695C48.8477 34.7852 43.2031 40.5469 34.5117 40.5469C25.8203 40.5469 20.1758 34.7852 20.1758 26.2695L20.1758 21.3867C20.1758 20.4883 19.4531 19.7656 18.5352 19.7656C17.6367 19.7656 16.9141 20.4883 16.9141 21.3867ZM34.5117 34.7852C39.4727 34.7852 42.7539 31.0742 42.7539 25.8203L42.7539 8.96484C42.7539 3.73047 39.4727 0 34.5117 0C29.5508 0 26.2695 3.73047 26.2695 8.96484L26.2695 25.8203C26.2695 31.0742 29.5508 34.7852 34.5117 34.7852Z" fill="black" fill-opacity="0.85"/>
  <path d="M4.00391 12.8711C6.23047 12.8711 8.00781 11.0938 8.00781 8.86719C8.00781 6.66016 6.23047 4.86328 4.00391 4.86328C1.79688 4.86328 0 6.66016 0 8.86719C0 11.0938 1.79688 12.8711 4.00391 12.8711Z" fill="black" fill-opacity="0.85"/>
  <path d="M4.00391 25.918C6.23047 25.918 8.00781 24.1211 8.00781 21.9141C8.00781 19.6875 6.23047 17.9102 4.00391 17.9102C1.79688 17.9102 0 19.6875 0 21.9141C0 24.1211 1.79688 25.918 4.00391 25.918Z" fill="black" fill-opacity="0.85"/>
  <path d="M4.00391 39.0039C6.23047 39.0039 8.00781 37.207 8.00781 35C8.00781 32.7734 6.23047 30.9766 4.00391 30.9766C1.79688 30.9766 0 32.7734 0 35C0 37.207 1.79688 39.0039 4.00391 39.0039Z" fill="black" fill-opacity="0.85"/>
  <path d="M4.00391 52.0312C6.23047 52.0312 8.00781 50.2539 8.00781 48.0273C8.00781 45.8203 6.23047 44.0234 4.00391 44.0234C1.79688 44.0234 0 45.8203 0 48.0273C0 50.2539 1.79688 52.0312 4.00391 52.0312Z" fill="black" fill-opacity="0.85"/>
 </g>
</svg>
