<?xml version="1.0" encoding="UTF-8"?>
<!--Generator: Apple Native CoreSVG 326-->
<!DOCTYPE svg
PUBLIC "-//W3C//DTD SVG 1.1//EN"
       "http://www.w3.org/Graphics/SVG/1.1/DTD/svg11.dtd">
<svg version="1.1" xmlns="http://www.w3.org/2000/svg" xmlns:xlink="http://www.w3.org/1999/xlink" viewBox="0 0 51.25 50.918">
 <g>
  <rect height="50.918" opacity="0" width="51.25" x="0" y="0"/>
  <path d="M50.8789 25.4492C50.8789 39.4531 39.4531 50.8789 25.4297 50.8789C11.4258 50.8789 0 39.4531 0 25.4492C0 11.4258 11.4258 0 25.4297 0C39.4531 0 50.8789 11.4258 50.8789 25.4492ZM32.8516 22.7734L32.8516 25.9375C32.8516 30.2539 29.8633 33.2422 25.4297 33.2422C20.9961 33.2422 18.0273 30.2539 18.0273 25.9375L18.0273 22.7734C18.0273 22.1289 17.4805 21.5625 16.8164 21.5625C16.1719 21.5625 15.6055 22.1289 15.6055 22.7734L15.6055 25.9375C15.6055 31.1133 19.082 34.9805 24.1992 35.5078L24.1992 38.5547L18.9844 38.5547C18.3203 38.5547 17.7344 39.1406 17.7344 39.8242C17.7344 40.4883 18.3203 41.0352 18.9844 41.0352L31.9141 41.0352C32.5586 41.0352 33.1445 40.4688 33.1445 39.8242C33.1445 39.1406 32.5781 38.5547 31.9141 38.5547L26.6797 38.5547L26.6797 35.5078C31.8164 34.9609 35.2734 31.1133 35.2734 25.9375L35.2734 22.7734C35.2734 22.1289 34.707 21.5625 34.0625 21.5625C33.3984 21.5625 32.8516 22.1289 32.8516 22.7734ZM21.1328 14.6484L21.1328 25.8203C21.1328 28.4375 22.8711 30.4297 25.4297 30.4297C27.9883 30.4297 29.7266 28.4375 29.7266 25.8203L29.7266 14.6484C29.7266 12.0312 27.9883 10.0781 25.4297 10.0781C22.8711 10.0781 21.1328 12.0312 21.1328 14.6484Z" fill="black" fill-opacity="0.85"/>
 </g>
</svg>
