<?xml version="1.0" encoding="UTF-8"?>
<!--Generator: Apple Native CoreSVG 326-->
<!DOCTYPE svg
PUBLIC "-//W3C//DTD SVG 1.1//EN"
       "http://www.w3.org/Graphics/SVG/1.1/DTD/svg11.dtd">
<svg version="1.1" xmlns="http://www.w3.org/2000/svg" xmlns:xlink="http://www.w3.org/1999/xlink" viewBox="0 0 60.961 50.918">
 <g>
  <rect height="50.918" opacity="0" width="60.961" x="0" y="0"/>
  <path d="M30.295 50.8789C44.3379 50.8789 55.7246 39.4922 55.7246 25.4492C55.7246 11.4062 44.3379 0 30.295 0C16.252 0 4.86526 11.4062 4.86526 25.4492L8.49808 25.4492C8.49808 13.3984 18.2442 3.65234 30.295 3.65234C42.3457 3.65234 52.0918 13.3984 52.0918 25.4492C52.0918 37.5 42.3457 47.2461 30.295 47.2461C22.834 47.2461 16.1739 43.457 12.3653 37.7539C11.7207 36.875 10.7051 36.6016 9.80667 37.1484C8.94729 37.6562 8.69339 38.8477 9.39651 39.8047C13.9473 46.5039 21.6426 50.8789 30.295 50.8789ZM1.60354 20.7227C0.00198146 20.7227-0.447237 21.8164 0.470731 23.0859L6.01761 30.9766C6.75979 32.0508 7.83401 32.0312 8.55667 30.9766L14.1035 23.0664C14.9825 21.8164 14.5528 20.7227 12.9707 20.7227Z" fill="black" fill-opacity="0.85"/>
  <path d="M22.4043 33.4961C23.166 33.4961 23.5762 32.9688 23.5762 32.2852L23.5762 23.2617C23.5762 21.25 24.5137 19.2969 26.5645 19.2969C28.4004 19.2969 29.1817 20.7031 29.1817 22.5195L29.1817 32.2852C29.1817 32.9883 29.67 33.4961 30.334 33.4961C31.0371 33.4961 31.5059 32.9883 31.5059 32.2852L31.5059 23.0273C31.5059 21.0938 32.4629 19.2969 34.4551 19.2969C36.3887 19.2969 37.1114 20.7812 37.1114 22.7148L37.1114 32.2852C37.1114 32.9883 37.5996 33.4961 38.3028 33.4961C38.9864 33.4961 39.4746 32.9883 39.4746 32.2852L39.4746 22.1094C39.4746 19.3555 38.0879 17.168 35.1387 17.168C32.9317 17.168 31.4473 18.5352 31.0567 20.2539L30.959 20.2539C30.5293 18.2812 29.2598 17.168 27.209 17.168C25.2364 17.168 24.0254 18.3984 23.5762 20.2344L23.459 20.2344L23.459 18.3984C23.459 17.6758 23.0293 17.207 22.3457 17.207C21.6621 17.207 21.2129 17.6758 21.2129 18.3984L21.2129 32.2852C21.2129 32.9688 21.6426 33.4961 22.4043 33.4961ZM23.3223 39.7656C23.7325 39.7656 23.9082 39.5898 24.084 39.1797L35.5489 12.2266C35.6075 12.0703 35.6465 11.9141 35.6465 11.7578C35.6465 11.3281 35.3535 11.0547 34.9043 11.0547C34.5332 11.0547 34.2989 11.3086 34.1426 11.6797L22.6973 38.6328C22.6192 38.7695 22.5996 38.9062 22.5996 39.082C22.5996 39.4922 22.8926 39.7656 23.3223 39.7656Z" fill="black" fill-opacity="0.85"/>
 </g>
</svg>
