<?xml version="1.0" encoding="UTF-8"?>
<!--Generator: Apple Native CoreSVG 326-->
<!DOCTYPE svg
PUBLIC "-//W3C//DTD SVG 1.1//EN"
       "http://www.w3.org/Graphics/SVG/1.1/DTD/svg11.dtd">
<svg version="1.1" xmlns="http://www.w3.org/2000/svg" xmlns:xlink="http://www.w3.org/1999/xlink" viewBox="0 0 59.5508 42.7148">
 <g>
  <rect height="42.7148" opacity="0" width="59.5508" x="0" y="0"/>
  <path d="M6.17188 41.25L53.125 41.25C55.9961 41.25 57.9883 39.1602 57.9883 36.0742L57.9883 34.9414C55.3516 34.8438 53.3008 33.8281 51.9336 32.2461C51.3867 31.6016 50.8008 31.6211 50.2539 32.2461C48.7305 33.9648 46.4453 34.9609 43.9453 34.9609C41.4258 34.9609 39.1406 33.9648 37.6172 32.2461C37.0703 31.6211 36.4844 31.6016 35.9375 32.2461C34.4922 33.9062 32.1484 34.9609 29.5898 34.9609C27.0117 34.9609 24.668 33.9062 23.2422 32.2461C22.6953 31.6016 22.1094 31.6211 21.543 32.2461C20.0391 33.9648 17.7344 34.9609 15.2344 34.9609C12.7344 34.9609 10.4297 33.9648 8.92578 32.2461C8.37891 31.6211 7.77344 31.6016 7.22656 32.2461C5.87891 33.8281 3.82812 34.8438 1.19141 34.9414L1.19141 36.0742C1.19141 39.1602 3.18359 41.25 6.17188 41.25ZM7.59766 42.7148L51.5625 42.7148C56.6211 42.7148 59.1797 40.1758 59.1797 35.1953L59.1797 13.9844C59.1797 9.00391 56.6211 6.46484 51.5625 6.46484L48.3203 6.46484L48.3203 2.92969C48.3203 1.11328 47.2852 0.0195312 45.4102 0.0195312L40.2148 0.0195312C38.3594 0.0195312 37.3047 1.11328 37.3047 2.92969L37.3047 6.46484L21.8555 6.46484L21.8555 2.92969C21.8555 1.11328 20.8203 0.0195312 18.9453 0.0195312L13.75 0.0195312C11.8945 0.0195312 10.8398 1.11328 10.8398 2.92969L10.8398 6.46484L7.59766 6.46484C2.55859 6.46484 0 8.98438 0 13.9844L0 35.1953C0 40.1953 2.55859 42.7148 7.59766 42.7148ZM3.45703 35.0195L3.45703 14.1602C3.45703 11.3672 4.94141 9.92188 7.67578 9.92188L51.5039 9.92188C54.1797 9.92188 55.7031 11.3672 55.7031 14.1602L55.7031 35.0195C55.7031 37.8125 54.1797 39.2578 51.5039 39.2578L7.67578 39.2578C4.94141 39.2578 3.45703 37.8125 3.45703 35.0195Z" fill="black" fill-opacity="0.85"/>
  <path d="M12.6562 24.5703L23.4375 24.5703C24.3164 24.5703 25.0195 23.8672 25.0195 22.9688C25.0195 22.0898 24.3164 21.3867 23.4375 21.3867L12.6562 21.3867C11.7773 21.3867 11.0742 22.0898 11.0742 22.9688C11.0742 23.8672 11.7773 24.5703 12.6562 24.5703ZM41.0938 30.332C41.9727 30.332 42.6758 29.6289 42.6758 28.75L42.6758 24.5703L46.875 24.5703C47.7539 24.5703 48.457 23.8672 48.457 22.9688C48.457 22.0898 47.7539 21.3867 46.875 21.3867L42.6758 21.3867L42.6758 17.1875C42.6758 16.2891 41.9727 15.5859 41.0938 15.5859C40.1953 15.5859 39.4922 16.2891 39.4922 17.1875L39.4922 21.3867L35.3125 21.3867C34.4141 21.3867 33.7109 22.0898 33.7109 22.9688C33.7109 23.8672 34.4141 24.5703 35.3125 24.5703L39.4922 24.5703L39.4922 28.75C39.4922 29.6484 40.1953 30.332 41.0938 30.332Z" fill="black" fill-opacity="0.85"/>
 </g>
</svg>
