<?xml version="1.0" encoding="UTF-8"?>
<!--Generator: Apple Native CoreSVG 326-->
<!DOCTYPE svg
PUBLIC "-//W3C//DTD SVG 1.1//EN"
       "http://www.w3.org/Graphics/SVG/1.1/DTD/svg11.dtd">
<svg version="1.1" xmlns="http://www.w3.org/2000/svg" xmlns:xlink="http://www.w3.org/1999/xlink" viewBox="0 0 71.8945 76.7773">
 <g>
  <rect height="76.7773" opacity="0" width="71.8945" x="0" y="0"/>
  <path d="M71.5234 37.9102L71.5234 61.9922C71.5234 64.1797 70.1562 65.4297 67.832 65.4297L17.7734 65.4297C15.737 65.4297 14.538 64.3921 14.4609 62.5781L67.2266 62.5781C68.1445 62.5781 68.6719 62.0898 68.6719 61.1328L68.6719 34.8842C70.4704 35.0373 71.5234 36.1394 71.5234 37.9102Z" fill="black" fill-opacity="0.85"/>
  <path d="M65.293 29.8242L65.293 55.7812C65.293 57.9688 63.9258 59.1992 61.6016 59.1992L10.4297 59.1992C8.32031 59.1992 7.10938 58.0859 7.10938 56.1719L7.10938 56.1133L60.7422 56.1133C61.6602 56.1133 62.1875 55.625 62.1875 54.6875L62.1875 26.784C64.1406 26.8501 65.293 27.953 65.293 29.8242Z" fill="black" fill-opacity="0.85"/>
  <path d="M19.043 13.5352L19.043 16.543L24.0264 16.543L24.095 20L7.67578 20C5 20 3.45703 21.4453 3.45703 24.2383L3.45703 44.375C3.45703 47.1875 4.94141 48.6328 7.67578 48.6328L50.5078 48.6328C53.5938 48.6328 54.6875 47.5391 54.6875 44.375L54.6875 24.2383C54.6875 21.4453 53.1641 20 50.4883 20L34.5183 20L34.5869 16.543L39.0039 16.543L39.0039 13.5352C39.0039 11.8945 39.9414 10.9375 41.6016 10.9375L46.8555 10.9375C48.5156 10.9375 49.4531 11.8945 49.4531 13.5352L49.4531 16.543L50.5469 16.543C55.5859 16.543 58.1641 19.082 58.1641 24.0625L58.1641 44.5703C58.1641 50.2344 56.2891 52.0898 50.5664 52.0898L7.59766 52.0898C2.55859 52.0898 0 49.5508 0 44.5703L0 24.0625C0 19.082 2.55859 16.543 7.59766 16.543L8.59375 16.543L8.59375 13.5352C8.59375 11.8945 9.53125 10.9375 11.1914 10.9375L16.4453 10.9375C18.1055 10.9375 19.043 11.8945 19.043 13.5352ZM45.3516 29.8242L45.3516 32.9297L48.457 32.9297C49.2188 32.9297 49.8242 33.5352 49.8242 34.2578C49.8242 35.0195 49.2188 35.625 48.457 35.625L45.3516 35.625L45.3516 38.7109C45.3516 39.4922 44.7656 40.0781 44.0039 40.0781C43.2617 40.0781 42.6758 39.4922 42.6758 38.7109L42.6758 35.625L39.5508 35.625C38.8086 35.625 38.2031 35.0195 38.2031 34.2578C38.2031 33.5352 38.7891 32.9297 39.5508 32.9297L42.6758 32.9297L42.6758 29.8242C42.6758 29.0625 43.2617 28.4766 44.0039 28.4766C44.7656 28.4766 45.3516 29.0625 45.3516 29.8242ZM19.1797 34.2578C19.1797 35 18.5742 35.6055 17.832 35.6055L9.6875 35.6055C8.94531 35.6055 8.35938 35 8.35938 34.2578C8.35938 33.5156 8.94531 32.9102 9.6875 32.9102L17.832 32.9102C18.5742 32.9102 19.1797 33.5156 19.1797 34.2578Z" fill="black" fill-opacity="0.85"/>
  <path d="M29.3164 30.4492C30.4102 30.4492 31.1914 29.6484 31.2305 28.5156L31.6797 5.48828C31.7188 4.08203 30.7812 3.10547 29.3164 3.10547C27.832 3.10547 26.8945 4.08203 26.9336 5.48828L27.3828 28.5156C27.4219 29.6484 28.2227 30.4492 29.3164 30.4492ZM29.3164 41.1523C30.9961 41.1523 32.4219 39.7461 32.4219 38.1445C32.4219 36.4844 31.0156 35.1562 29.3164 35.1562C27.5781 35.1562 26.1914 36.4844 26.1914 38.1445C26.1914 39.7461 27.6172 41.1523 29.3164 41.1523Z" fill="black" fill-opacity="0.85"/>
 </g>
</svg>
