<?xml version="1.0" encoding="UTF-8"?>
<!--Generator: Apple Native CoreSVG 326-->
<!DOCTYPE svg
PUBLIC "-//W3C//DTD SVG 1.1//EN"
       "http://www.w3.org/Graphics/SVG/1.1/DTD/svg11.dtd">
<svg version="1.1" xmlns="http://www.w3.org/2000/svg" xmlns:xlink="http://www.w3.org/1999/xlink" viewBox="0 0 51.25 50.918">
 <g>
  <rect height="50.918" opacity="0" width="51.25" x="0" y="0"/>
  <path d="M50.8789 25.4688C50.8789 39.4922 39.4531 50.918 25.4297 50.918C11.4258 50.918 0 39.4922 0 25.4688C0 11.4648 11.4258 0.0390625 25.4297 0.0390625C39.4531 0.0390625 50.8789 11.4648 50.8789 25.4688ZM12.7344 36.8945C12.2461 36.8945 11.875 37.2461 11.875 37.7344C11.875 38.2422 12.2461 38.5938 12.7344 38.5938L40.7031 38.5938C41.2109 38.5938 41.5625 38.2422 41.5625 37.7344C41.5625 37.2266 41.2109 36.8945 40.7031 36.8945ZM10.1172 33.3984C9.62891 33.3984 9.25781 33.7695 9.25781 34.2383C9.25781 34.7461 9.62891 35.1172 10.1172 35.1172L38.1055 35.1172C38.5938 35.1172 38.9648 34.7461 38.9648 34.2383C38.9648 33.7695 38.5938 33.3984 38.1055 33.3984ZM12.7344 29.9219C12.2461 29.9219 11.875 30.293 11.875 30.7812C11.875 31.2891 12.2461 31.6211 12.7344 31.6211L40.7031 31.6211C41.2109 31.6211 41.5625 31.2891 41.5625 30.7812C41.5625 30.2734 41.2109 29.9219 40.7031 29.9219ZM21.0547 10.1562C17.0703 11.9141 14.3555 16.0547 14.3555 20.9375C14.3555 23.7305 15.2539 26.2109 16.7969 28.1445L34.9023 28.1445C35.5078 27.4805 35.9766 26.6797 36.3672 25.8203C36.6016 25.3125 36.543 24.8633 36.2695 24.5508C36.0352 24.3359 35.6445 24.2773 35.1562 24.4531C34.1211 24.8633 32.9102 25.0781 31.4258 25.0781C25.4492 25.0781 21.6992 21.4062 21.6992 15.5273C21.6992 14.0039 21.9727 12.4414 22.4219 11.5234C22.6758 11.0352 22.6172 10.5859 22.4023 10.2734C22.1289 9.96094 21.6211 9.90234 21.0547 10.1562Z" fill="black" fill-opacity="0.85"/>
 </g>
</svg>
