<?xml version="1.0" encoding="UTF-8"?>
<!--Generator: Apple Native CoreSVG 326-->
<!DOCTYPE svg
PUBLIC "-//W3C//DTD SVG 1.1//EN"
       "http://www.w3.org/Graphics/SVG/1.1/DTD/svg11.dtd">
<svg version="1.1" xmlns="http://www.w3.org/2000/svg" xmlns:xlink="http://www.w3.org/1999/xlink" viewBox="0 0 67.3438 58.2227">
 <g>
  <rect height="58.2227" opacity="0" width="67.3438" x="0" y="0"/>
  <path d="M28.3789 3.49609C28.8281 3.96484 28.8477 4.80469 28.4375 5.625C27.6953 7.12891 27.2266 9.76562 27.2266 12.2852C27.2266 22.1289 33.4766 28.2617 43.4766 28.2617C45.9961 28.2617 47.9883 27.8906 49.7266 27.2266C50.5273 26.9336 51.2305 27.0117 51.6211 27.4219C52.0898 27.9102 52.168 28.6914 51.7578 29.5703C51.1451 30.9342 50.3854 32.2152 49.4762 33.3789L18.7825 33.3789C16.1788 30.0019 14.8438 25.7424 14.8438 21.3672C14.8438 13.1836 19.4336 6.19141 26.1328 3.28125C27.0898 2.87109 27.8906 2.98828 28.3789 3.49609Z" fill="black" fill-opacity="0.85"/>
  <path d="M5.80078 48.5547L57.3633 48.5547C58.1445 48.5547 58.7695 47.9492 58.7695 47.168C58.7695 46.3672 58.1445 45.7812 57.3633 45.7812L5.80078 45.7812C5.01953 45.7812 4.39453 46.3672 4.39453 47.168C4.39453 47.9492 5.01953 48.5547 5.80078 48.5547ZM9.58984 58.2227L61.1719 58.2227C61.9531 58.2227 62.5586 57.6367 62.5586 56.8555C62.5586 56.0547 61.9531 55.4688 61.1719 55.4688L9.58984 55.4688C8.80859 55.4688 8.20312 56.0547 8.20312 56.8555C8.20312 57.6367 8.80859 58.2227 9.58984 58.2227ZM9.58984 38.8672L61.1719 38.8672C61.9531 38.8672 62.5586 38.2617 62.5586 37.4805C62.5586 36.6992 61.9531 36.0938 61.1719 36.0938L9.58984 36.0938C8.80859 36.0938 8.20312 36.6992 8.20312 37.4805C8.20312 38.2617 8.80859 38.8672 9.58984 38.8672Z" fill="black" fill-opacity="0.85"/>
 </g>
</svg>
