<?xml version="1.0" encoding="UTF-8"?>
<!--Generator: Apple Native CoreSVG 326-->
<!DOCTYPE svg
PUBLIC "-//W3C//DTD SVG 1.1//EN"
       "http://www.w3.org/Graphics/SVG/1.1/DTD/svg11.dtd">
<svg version="1.1" xmlns="http://www.w3.org/2000/svg" xmlns:xlink="http://www.w3.org/1999/xlink" viewBox="0 0 60.4102 50.0586">
 <g>
  <rect height="50.0586" opacity="0" width="60.4102" x="0" y="0"/>
  <path d="M60.0391 30.0195C60.0391 22.6562 57.3828 15.918 52.9688 10.6836C52.4609 10.0781 51.6016 10.0977 51.0352 10.6641L45.3906 16.3086C44.9023 16.7969 44.8828 17.4805 45.3125 18.0273C47.9102 21.3477 49.4531 25.4883 49.4531 30.0195C49.4531 34.5508 47.9102 38.7109 45.1953 42.1484C44.8242 42.6172 44.8438 43.2031 45.2539 43.6133L51.0352 49.4141C51.6016 50 52.4414 49.9805 52.9688 49.375C57.3828 44.1406 60.0391 37.3633 60.0391 30.0195Z" fill="black" fill-opacity="0.85"/>
  <path d="M30.0195 10.5664C34.5508 10.5664 38.7305 12.1289 42.0508 14.7656C42.5781 15.1562 43.2227 15.1172 43.7109 14.6289L49.375 8.96484C49.9609 8.39844 49.9414 7.55859 49.3359 7.03125C44.1211 2.65625 37.3633 0 30.0195 0C22.6758 0 15.918 2.65625 10.7031 7.03125C10.0977 7.55859 10.0781 8.39844 10.6445 8.96484L16.3281 14.6289C16.7969 15.1172 17.5 15.1367 18.0469 14.707C21.3477 12.1289 25.5078 10.5664 30.0195 10.5664Z" fill="black" fill-opacity="0.85"/>
  <path d="M0 30.0195C0 37.3633 2.65625 44.1406 7.07031 49.375C7.57812 49.9805 8.4375 50 9.00391 49.4141L14.7852 43.6133C15.1758 43.2031 15.2148 42.6172 14.8438 42.1484C12.1289 38.7109 10.5664 34.5508 10.5664 30.0195C10.5664 25.4883 12.1094 21.3477 14.7266 18.0273C15.1367 17.4805 15.1367 16.7969 14.6484 16.3086L8.98438 10.6641C8.41797 10.0977 7.57812 10.0781 7.05078 10.6836C2.63672 15.918 0 22.6562 0 30.0195Z" fill="black" fill-opacity="0.85"/>
  <path d="M23.6133 41.7969C24.3555 41.7969 24.8828 41.2695 24.8828 40.4883L24.8828 23.5156L25.0391 23.5156L33.6523 40.5078C34.043 41.3086 34.668 41.7969 35.5469 41.7969C36.7383 41.7969 37.2852 40.9766 37.2852 40.1172L37.2852 20.2148C37.2852 19.4336 36.7773 18.9258 35.9961 18.9258C35.2344 18.9258 34.7461 19.4336 34.7461 20.2148L34.7461 37.2461L34.5703 37.2461L25.9766 20.2344C25.5859 19.3945 24.9414 18.9258 24.0625 18.9258C23.0469 18.9258 22.3438 19.6094 22.3438 20.6055L22.3438 40.4883C22.3438 41.2695 22.8711 41.7969 23.6133 41.7969ZM20.2344 30.4102C20.2344 30.8398 20.5859 31.1914 21.0156 31.1914L38.6133 31.1914C39.0625 31.1914 39.3945 30.8398 39.3945 30.4102C39.3945 29.9805 39.0625 29.6289 38.6133 29.6289L21.0156 29.6289C20.5859 29.6289 20.2344 29.9805 20.2344 30.4102Z" fill="black" fill-opacity="0.85"/>
 </g>
</svg>
