<?xml version="1.0" encoding="UTF-8"?>
<!--Generator: Apple Native CoreSVG 326-->
<!DOCTYPE svg
PUBLIC "-//W3C//DTD SVG 1.1//EN"
       "http://www.w3.org/Graphics/SVG/1.1/DTD/svg11.dtd">
<svg version="1.1" xmlns="http://www.w3.org/2000/svg" xmlns:xlink="http://www.w3.org/1999/xlink" viewBox="0 0 60.4102 49.8382">
 <g>
  <rect height="49.8382" opacity="0" width="60.4102" x="0" y="0"/>
  <path d="M60.0391 29.9093C60.0391 14.1867 47.9492 1.29605 32.5977 0.00698344C31.7969-0.0711416 31.1719 0.514796 31.1719 1.33511L31.1719 9.32339C31.1719 9.98745 31.6602 10.5148 32.3438 10.5734C41.9727 11.7453 49.4531 19.9484 49.4531 29.9093C49.4531 34.4406 47.9102 38.6007 45.1758 42.0382C44.8047 42.507 44.8242 43.0929 45.2344 43.5031L51.0352 49.3039C51.6211 49.8703 52.4609 49.8703 52.9688 49.2453C57.3828 44.0109 60.0391 37.2531 60.0391 29.9093Z" fill="black" fill-opacity="0.85"/>
  <path d="M0 29.9093C0 37.2726 2.65625 44.05 7.08984 49.2843C7.57812 49.8703 8.39844 49.8703 8.98438 49.3039L14.7852 43.5031C15.1953 43.0929 15.2148 42.507 14.8438 42.0382C12.1094 38.6007 10.5664 34.4406 10.5664 29.9093C10.5664 19.9484 18.0664 11.7453 27.6758 10.5734C28.3789 10.5148 28.8477 9.98745 28.8477 9.32339L28.8477 1.33511C28.8477 0.514796 28.2422-0.0711416 27.4414 0.00698344C12.0703 1.29605 0 14.1867 0 29.9093Z" fill="black" fill-opacity="0.85"/>
  <path d="M21.7578 40.6906C22.4805 40.6906 22.9688 40.1632 22.9688 39.4015L22.9688 34.7921L24.5117 33.2687L29.375 40.0851C29.6289 40.4562 29.9805 40.6906 30.4492 40.6906C31.1133 40.6906 31.6211 40.2218 31.6211 39.5968C31.6211 39.2843 31.4844 39.0109 31.2891 38.7375L26.2695 31.7453L30.9766 26.7257C31.2695 26.4132 31.4062 26.2375 31.4062 25.8468C31.4062 25.2804 30.9375 24.7726 30.3125 24.7726C29.9805 24.7726 29.5898 24.9875 29.375 25.2414L23.0469 32.175L22.9688 32.175L22.9688 20.0656C22.9688 19.2843 22.4805 18.7375 21.7578 18.7375C21.0352 18.7375 20.5078 19.2648 20.5078 20.046L20.5078 39.4015C20.5078 40.1632 21.0352 40.6906 21.7578 40.6906ZM35.7617 40.6906C36.3281 40.6906 36.9336 40.339 36.9336 39.4015L36.9336 31.1789C36.9336 29.3039 37.6562 27.1359 39.9023 27.1359C40.3711 27.1359 40.8398 27.0968 41.1914 26.921C41.5234 26.7843 41.7188 26.4914 41.7188 26.0812C41.7188 25.2218 40.9961 24.7726 40.1367 24.7726C38.4766 24.7726 37.3828 26.1789 36.9922 27.8585L36.8359 27.8585L36.8359 26.0226C36.8359 25.3195 36.3477 24.7726 35.7227 24.7726C35.0781 24.7726 34.5898 25.3195 34.5898 26.0226L34.5898 39.4015C34.5898 40.1828 35 40.6906 35.7617 40.6906Z" fill="black" fill-opacity="0.85"/>
 </g>
</svg>
