<?xml version="1.0" encoding="UTF-8"?>
<!--Generator: Apple Native CoreSVG 326-->
<!DOCTYPE svg
PUBLIC "-//W3C//DTD SVG 1.1//EN"
       "http://www.w3.org/Graphics/SVG/1.1/DTD/svg11.dtd">
<svg version="1.1" xmlns="http://www.w3.org/2000/svg" xmlns:xlink="http://www.w3.org/1999/xlink" viewBox="0 0 51.25 50.918">
 <g>
  <rect height="50.918" opacity="0" width="51.25" x="0" y="0"/>
  <path d="M50.8789 25.4688C50.8789 39.4922 39.4531 50.918 25.4297 50.918C11.4258 50.918 0 39.4922 0 25.4688C0 11.4648 11.4258 0.0390625 25.4297 0.0390625C39.4531 0.0390625 50.8789 11.4648 50.8789 25.4688ZM28.5742 12.1289L14.3359 26.3672C10.8789 29.8047 10.8789 34.9023 14.2578 38.2422C17.8125 41.7188 22.6758 41.6211 26.1328 38.2031L36.7383 27.5977C37.2266 27.1289 37.2656 26.2305 36.7578 25.7617C36.2305 25.2734 35.3906 25.293 34.8828 25.8008L24.375 36.3086C21.9531 38.7109 18.5352 38.7109 16.1719 36.3672C13.75 34.0039 13.8086 30.6055 16.2305 28.1445L30.3906 13.9844C31.9336 12.4219 34.1016 12.3828 35.5078 13.7695C36.9336 15.1758 36.8555 17.2852 35.2734 18.8867L21.4258 32.7148C20.8789 33.2617 20.2734 33.2617 19.7461 32.793C19.2383 32.3047 19.2383 31.6211 19.7852 31.0742L29.5898 21.2891C30.1367 20.7617 30.1758 20 29.6289 19.4727C29.082 18.9648 28.3398 18.9844 27.8125 19.5117L18.0078 29.3359C16.5039 30.8398 16.4258 33.2031 17.8711 34.668C19.3359 36.1719 21.582 36.1133 23.1641 34.5312L37.0703 20.625C39.707 17.9883 39.7852 14.4141 37.3047 11.9336C34.8047 9.47266 31.1914 9.51172 28.5742 12.1289Z" fill="black" fill-opacity="0.85"/>
 </g>
</svg>
