<?xml version="1.0" encoding="UTF-8"?>
<!--Generator: Apple Native CoreSVG 326-->
<!DOCTYPE svg
PUBLIC "-//W3C//DTD SVG 1.1//EN"
       "http://www.w3.org/Graphics/SVG/1.1/DTD/svg11.dtd">
<svg version="1.1" xmlns="http://www.w3.org/2000/svg" xmlns:xlink="http://www.w3.org/1999/xlink" viewBox="0 0 51.25 50.918">
 <g>
  <rect height="50.918" opacity="0" width="51.25" x="0" y="0"/>
  <path d="M25.4297 50.8789C39.4727 50.8789 50.8789 39.4922 50.8789 25.4492C50.8789 11.4062 39.4727 0 25.4297 0C11.3867 0 0 11.4062 0 25.4492C0 39.4922 11.3867 50.8789 25.4297 50.8789ZM25.4297 47.2461C13.3789 47.2461 3.63281 37.5 3.63281 25.4492C3.63281 13.3984 13.3789 3.65234 25.4297 3.65234C37.4805 3.65234 47.2266 13.3984 47.2266 25.4492C47.2266 37.5 37.4805 47.2461 25.4297 47.2461Z" fill="black" fill-opacity="0.85"/>
  <path d="M14.4922 37.8906C17.9492 41.2891 22.6953 41.1719 26.0547 37.8516L36.4258 27.5C36.875 27.0312 36.9336 26.1719 36.4453 25.7031C35.9375 25.2344 35.0977 25.2539 34.6094 25.7422L24.3555 36.0156C21.9922 38.3789 18.6328 38.3594 16.3477 36.0938C13.9844 33.7695 14.043 30.4492 16.4062 28.0664L30.2344 14.2383C31.7383 12.7148 33.8477 12.6562 35.2148 14.0039C36.6211 15.4102 36.5234 17.4609 35 19.0039L21.4648 32.5195C20.957 33.0469 20.332 33.0469 19.8438 32.5781C19.3164 32.1094 19.3359 31.4258 19.8828 30.918L29.4336 21.3477C29.9609 20.8203 30.0195 20.0977 29.4922 19.5898C28.9648 19.082 28.2422 19.1211 27.7344 19.6289L18.1445 29.2188C16.6797 30.7031 16.6016 32.9688 18.0078 34.3945C19.4336 35.8594 21.6211 35.8008 23.1641 34.2773L36.7383 20.7227C39.2773 18.1445 39.375 14.6484 36.9727 12.2266C34.5117 9.84375 31.0156 9.88281 28.4375 12.4219L14.5703 26.3086C11.2109 29.6875 11.1914 34.6289 14.4922 37.8906Z" fill="black" fill-opacity="0.85"/>
 </g>
</svg>
