<?xml version="1.0" encoding="UTF-8"?>
<!--Generator: Apple Native CoreSVG 326-->
<!DOCTYPE svg
PUBLIC "-//W3C//DTD SVG 1.1//EN"
       "http://www.w3.org/Graphics/SVG/1.1/DTD/svg11.dtd">
<svg version="1.1" xmlns="http://www.w3.org/2000/svg" xmlns:xlink="http://www.w3.org/1999/xlink" viewBox="0 0 47.6214 54.1305">
 <g>
  <rect height="54.1305" opacity="0" width="47.6214" x="0" y="0"/>
  <path d="M40.9982 28.5984L22.2091 47.368C17.3458 52.2313 10.8224 51.6844 6.64271 47.4852C2.46303 43.325 1.89662 36.8016 6.77943 31.9383L32.0333 6.68438C35.0802 3.61798 39.4357 3.53985 42.131 6.23517C44.8458 8.95001 44.7482 13.2664 41.6818 16.3328L17.0138 41.0399C15.6466 42.407 14.0255 42.0555 13.0294 41.0984C12.0919 40.1219 11.7599 38.5008 13.088 37.1336L30.588 19.6531C31.2521 18.9891 31.2716 18.032 30.6662 17.407C30.0412 16.8016 29.0841 16.8016 28.4005 17.4852L10.881 35.0242C8.36146 37.5438 8.49818 41.2547 10.6857 43.4617C13.0099 45.7859 16.5841 45.7859 19.1037 43.2664L43.8888 18.4813C48.5177 13.8524 48.088 7.85626 44.2404 4.0086C40.4513 0.219541 34.3771-0.307803 29.7287 4.34063L4.39662 29.6922C-1.75572 35.8445-1.13072 44.4383 4.27943 49.8484C9.70912 55.2586 18.3029 55.8836 24.4552 49.7508L43.3029 30.9031C43.9474 30.2586 43.9474 29.1258 43.3029 28.5203C42.6779 27.8758 41.6427 27.9539 40.9982 28.5984Z" fill="black" fill-opacity="0.85"/>
 </g>
</svg>
