<?xml version="1.0" encoding="UTF-8"?>
<!--Generator: Apple Native CoreSVG 326-->
<!DOCTYPE svg
PUBLIC "-//W3C//DTD SVG 1.1//EN"
       "http://www.w3.org/Graphics/SVG/1.1/DTD/svg11.dtd">
<svg version="1.1" xmlns="http://www.w3.org/2000/svg" xmlns:xlink="http://www.w3.org/1999/xlink" viewBox="0 0 75.7617 52.7804">
 <g>
  <rect height="52.7804" opacity="0" width="75.7617" x="0" y="0"/>
  <path d="M9.27734 34.4468C9.94141 33.6851 9.72656 32.6695 8.96484 31.7906C5.48828 28.0211 3.49609 23.0406 3.49609 17.5132C3.49609 11.9859 5.48828 7.00543 8.96484 3.2359C9.72656 2.35699 9.94141 1.3609 9.27734 0.579645C8.57422-0.221136 7.38281-0.201605 6.5625 0.696833C2.38281 5.13043 0 11.0679 0 17.5132C0 23.9586 2.38281 29.8961 6.5625 34.3296C7.38281 35.2476 8.57422 35.2476 9.27734 34.4468ZM66.1328 34.4468C66.8164 35.2476 68.0273 35.2476 68.8477 34.3296C73.0078 29.8961 75.3906 23.9586 75.3906 17.5132C75.3906 11.0679 73.0078 5.13043 68.8477 0.696833C68.0273-0.201605 66.8164-0.221136 66.1328 0.579645C65.4492 1.3609 65.6641 2.35699 66.4258 3.2359C69.9219 7.00543 71.8945 11.9859 71.8945 17.5132C71.8945 23.0406 69.9219 28.0211 66.4258 31.7906C65.6641 32.6695 65.4492 33.6851 66.1328 34.4468Z" fill="black" fill-opacity="0.85"/>
  <path d="M16.25 27.3375C16.9336 26.5757 16.6406 25.5992 15.957 24.6812C14.2969 22.7867 13.4961 20.2476 13.4961 17.5132C13.4961 14.7789 14.2969 12.2398 15.957 10.3453C16.6406 9.4273 16.9336 8.47027 16.25 7.68902C15.5273 6.88824 14.2578 6.88824 13.4961 7.84527C11.2695 10.482 10 13.8609 10 17.5132C10 21.1656 11.2695 24.564 13.4961 27.1812C14.2578 28.1578 15.5273 28.1382 16.25 27.3375ZM59.1602 27.3375C59.8633 28.1382 61.1523 28.1578 61.9141 27.1812C64.1211 24.564 65.4102 21.1656 65.4102 17.5132C65.4102 13.8609 64.1211 10.482 61.9141 7.84527C61.1523 6.88824 59.8633 6.88824 59.1602 7.68902C58.4766 8.47027 58.75 9.4273 59.4336 10.3453C61.0938 12.2398 61.9141 14.7789 61.9141 17.5132C61.9141 20.2476 61.0938 22.7867 59.4336 24.6812C58.75 25.5992 58.4766 26.5757 59.1602 27.3375Z" fill="black" fill-opacity="0.85"/>
  <path d="M25.332 50.3257C26.875 50.3257 27.9102 49.2515 27.9102 47.65L27.9102 32.2984L38.75 32.2984C47.8516 32.2984 54.0625 26.2828 54.0625 17.4937C54.0625 8.68511 47.8711 2.70855 38.7695 2.70855L25.332 2.70855C23.7695 2.70855 22.7539 3.76324 22.7539 5.3648L22.7539 47.65C22.7539 49.2711 23.7695 50.3257 25.332 50.3257ZM27.9102 27.5328L27.9102 7.45465L37.8516 7.45465C44.7461 7.45465 48.8086 11.1461 48.8086 17.4937C48.8086 23.8218 44.7266 27.5328 37.8516 27.5328Z" fill="black" fill-opacity="0.85"/>
 </g>
</svg>
