<?xml version="1.0" encoding="UTF-8"?>
<!--Generator: Apple Native CoreSVG 326-->
<!DOCTYPE svg
PUBLIC "-//W3C//DTD SVG 1.1//EN"
       "http://www.w3.org/Graphics/SVG/1.1/DTD/svg11.dtd">
<svg version="1.1" xmlns="http://www.w3.org/2000/svg" xmlns:xlink="http://www.w3.org/1999/xlink" viewBox="0 0 63.4211 62.4023">
 <g>
  <rect height="62.4023" opacity="0" width="63.4211" x="0" y="0"/>
  <path d="M23.3422 19.9982C23.3321 21.0082 23.276 22.0207 23.1793 23.0334C21.0097 22.1031 19.3282 22.012 18.5172 22.832C16.7203 24.6289 19.2594 30.6055 25.3531 36.6602C31.4078 42.7539 37.3648 45.3125 39.1617 43.4961C39.9983 42.6687 39.8829 40.9065 38.8772 38.6348C39.837 38.5417 40.796 38.4856 41.7526 38.4719C43.0707 42.0626 42.9193 45.2939 39.6891 46.6406L5.62655 60.8789C2.07186 62.3633-1.17032 59.0039 0.411709 55.4883L15.3726 22.3047C16.858 19.0589 19.9274 18.7917 23.3422 19.9982ZM3.14608 56.6797C2.63827 57.793 3.39999 58.5156 4.47421 58.0664L33.6148 45.9375C30.3726 44.7656 26.6226 42.207 23.2047 38.8086C19.7476 35.332 17.1305 31.4844 15.9781 28.2031ZM40.4155 35.5438C39.397 35.5945 38.3739 35.6846 37.3427 35.8217C36.3165 34.2088 34.9473 32.4601 33.2589 30.685L35.3957 28.5449C37.2088 30.5234 39.0574 33.0217 40.4155 35.5438ZM33.2519 26.4106L31.1085 28.5474C29.3311 26.8856 27.586 25.537 25.9807 24.5291C26.1224 23.4557 26.2142 22.39 26.2668 21.328C28.7412 22.674 31.2146 24.5447 33.2519 26.4106Z" fill="black" fill-opacity="0.85"/>
  <path d="M22.4039 5.03906C23.8101 5.03906 24.9234 3.90625 24.9234 2.51953C24.9234 1.11328 23.8101 0 22.4039 0C20.9976 0 19.8844 1.11328 19.8844 2.51953C19.8844 3.90625 20.9976 5.03906 22.4039 5.03906ZM25.4898 9.94141C25.3336 9.14062 24.7867 8.47656 23.9469 8.49609C23.1461 8.53516 22.3453 9.19922 22.5211 10.0781C23.6539 15.8984 23.6539 21.9531 22.5016 27.9297C22.3062 28.8086 23.1266 29.4531 23.9078 29.4727C24.7281 29.4922 25.275 28.8477 25.4508 28.0273C26.6226 21.875 26.6226 15.9766 25.4898 9.94141ZM37.8531 9.35547C40.3531 9.35547 42.3258 7.36328 42.3258 4.88281C42.3258 2.36328 40.3531 0.410156 37.8531 0.410156C35.3726 0.410156 33.3805 2.36328 33.3805 4.88281C33.3805 7.36328 35.3726 9.35547 37.8531 9.35547ZM33.107 17.207C34.2008 17.207 35.0797 16.3281 35.0797 15.2344C35.0797 14.1406 34.2008 13.2422 33.107 13.2422C32.0133 13.2422 31.1148 14.1406 31.1148 15.2344C31.1148 16.3281 32.0133 17.207 33.107 17.207ZM58.2437 6.46484C59.318 6.46484 60.1969 5.58594 60.1969 4.47266C60.1969 3.39844 59.318 2.5 58.2437 2.5C57.1305 2.5 56.2516 3.39844 56.2516 4.47266C56.2516 5.58594 57.1305 6.46484 58.2437 6.46484ZM51.193 8.45703L46.525 13.125C45.9391 13.7305 45.9391 14.6875 46.525 15.2734C47.1109 15.8594 48.0875 15.8594 48.6734 15.2734L53.3414 10.625C53.9078 10.0195 53.9078 9.04297 53.3414 8.45703C52.7359 7.89062 51.7789 7.89062 51.193 8.45703ZM41.9156 17.7734L29.1812 30.4688C28.5953 31.0742 28.5953 32.0508 29.1812 32.6367C29.7672 33.2031 30.7242 33.2031 31.3101 32.6367L44.0445 19.8828C44.5914 19.3164 44.5719 18.3789 44.0445 17.7734C43.4391 17.2266 42.482 17.2266 41.9156 17.7734ZM60.5094 28.8672C61.9156 28.8672 63.0484 27.7539 63.0484 26.3281C63.0484 24.9414 61.9156 23.8086 60.5094 23.8086C59.1031 23.8086 57.9898 24.9414 57.9898 26.3281C57.9898 27.7539 59.1031 28.8672 60.5094 28.8672ZM49.7867 29.9023C51.8766 29.9023 53.5367 28.2617 53.5367 26.1914C53.5367 24.1016 51.8766 22.4219 49.7867 22.4219C47.6969 22.4219 46.0758 24.1016 46.0758 26.1914C46.0758 28.2617 47.6969 29.9023 49.7867 29.9023ZM59.5719 41.7188C60.9586 41.7188 62.0914 40.6055 62.0914 39.1992C62.0914 37.793 60.9586 36.6797 59.5719 36.6797C58.1656 36.6797 57.0523 37.793 57.0523 39.1992C57.0523 40.6055 58.1656 41.7188 59.5719 41.7188ZM51.9547 36.3086C45.9391 35.1758 40.0406 35.1758 33.8687 36.3477C33.068 36.5234 32.4039 37.0703 32.443 37.8711C32.4625 38.6719 33.107 39.4727 33.9664 39.3164C39.9625 38.1641 46.0172 38.1445 51.8375 39.2773C52.6969 39.4531 53.3805 38.6719 53.4 37.8516C53.4391 37.0117 52.7555 36.4648 51.9547 36.3086Z" fill="black" fill-opacity="0.85"/>
 </g>
</svg>
