<?xml version="1.0" encoding="UTF-8"?>
<!--Generator: Apple Native CoreSVG 326-->
<!DOCTYPE svg
PUBLIC "-//W3C//DTD SVG 1.1//EN"
       "http://www.w3.org/Graphics/SVG/1.1/DTD/svg11.dtd">
<svg version="1.1" xmlns="http://www.w3.org/2000/svg" xmlns:xlink="http://www.w3.org/1999/xlink" viewBox="0 0 51.25 50.918">
 <g>
  <rect height="50.918" opacity="0" width="51.25" x="0" y="0"/>
  <path d="M50.8789 25.4492C50.8789 39.4531 39.4531 50.8789 25.4297 50.8789C11.4258 50.8789 0 39.4531 0 25.4492C0 11.4258 11.4258 0 25.4297 0C39.4531 0 50.8789 11.4258 50.8789 25.4492ZM21.1133 25.4297C20.8203 26.0156 20.5273 26.6406 20.1758 27.168C19.707 27.9102 19.0039 28.4766 18.3008 29.0234C17.0117 30.1172 15.625 31.2891 15.625 33.5352C15.625 36.1328 17.4023 37.9883 20 37.9883C21.2891 37.9883 22.2266 37.6367 23.1055 37.3047C23.8672 37.0117 24.5703 36.7773 25.4297 36.7773C26.2695 36.7773 26.9727 37.0117 27.7344 37.3047C28.6133 37.6367 29.5508 37.9883 30.8398 37.9883C33.4375 37.9883 35.2148 36.1328 35.2148 33.5352C35.2148 31.2891 33.8281 30.1172 32.5391 29.0234C31.8359 28.4766 31.1523 27.9297 30.6836 27.207C30.332 26.6602 30.0195 26.0352 29.7461 25.4297C28.8477 23.4375 28.0469 21.4844 25.4297 21.4844C22.793 21.4844 21.9922 23.4375 21.1133 25.4297ZM11.7969 23.3984C11.7969 25.9961 13.125 27.9297 14.9023 27.9297C16.6602 27.9297 18.0273 25.9961 18.0273 23.3984C18.0273 20.7812 16.6602 18.8281 14.9023 18.8281C13.125 18.8281 11.7969 20.7812 11.7969 23.3984ZM32.832 23.3984C32.832 25.9961 34.1797 27.9297 35.957 27.9297C37.7148 27.9297 39.0625 25.9961 39.0625 23.3984C39.0625 20.7812 37.7148 18.8281 35.957 18.8281C34.1797 18.8281 32.832 20.7812 32.832 23.3984ZM18.0859 15.8984C18.0859 18.4961 19.4336 20.4688 21.2109 20.4688C22.9883 20.4688 24.3164 18.4961 24.3164 15.8984C24.3164 13.3008 22.9883 11.3672 21.2109 11.3672C19.4336 11.3672 18.0859 13.3008 18.0859 15.8984ZM26.543 15.8984C26.543 18.4961 27.8711 20.4688 29.6484 20.4688C31.4062 20.4688 32.7734 18.4961 32.7734 15.8984C32.7734 13.3008 31.4062 11.3672 29.6484 11.3672C27.8711 11.3672 26.543 13.3008 26.543 15.8984Z" fill="black" fill-opacity="0.85"/>
 </g>
</svg>
