<?xml version="1.0" encoding="UTF-8"?>
<!--Generator: Apple Native CoreSVG 326-->
<!DOCTYPE svg
PUBLIC "-//W3C//DTD SVG 1.1//EN"
       "http://www.w3.org/Graphics/SVG/1.1/DTD/svg11.dtd">
<svg version="1.1" xmlns="http://www.w3.org/2000/svg" xmlns:xlink="http://www.w3.org/1999/xlink" viewBox="0 0 51.25 50.918">
 <g>
  <rect height="50.918" opacity="0" width="51.25" x="0" y="0"/>
  <path d="M25.4297 50.8789C39.4727 50.8789 50.8789 39.4922 50.8789 25.4492C50.8789 11.4062 39.4727 0 25.4297 0C11.3867 0 0 11.4062 0 25.4492C0 39.4922 11.3867 50.8789 25.4297 50.8789ZM25.4297 47.2461C13.3789 47.2461 3.63281 37.5 3.63281 25.4492C3.63281 13.3984 13.3789 3.65234 25.4297 3.65234C37.4805 3.65234 47.2266 13.3984 47.2266 25.4492C47.2266 37.5 37.4805 47.2461 25.4297 47.2461Z" fill="black" fill-opacity="0.85"/>
  <path d="M25.4102 19.6875C28.0664 19.707 30.1367 17.4609 30.1367 14.4727C30.1367 11.6992 28.0469 9.35547 25.4102 9.35547C22.793 9.35547 20.6641 11.6992 20.6641 14.4727C20.6641 17.4609 22.7734 19.6875 25.4102 19.6875ZM17.0508 30.0391L33.7695 30.0391C34.668 30.0391 35.1953 29.4922 35.1953 28.7109C35.1953 26.25 31.7969 21.4648 25.4102 21.4648C19.0234 21.4648 15.625 26.25 15.625 28.7109C15.625 29.4922 16.1523 30.0391 17.0508 30.0391ZM14.707 39.5117L36.1523 39.5117C36.7188 39.5117 37.1875 39.043 37.1875 38.4766C37.1875 37.8906 36.7188 37.4219 36.1523 37.4219L35.918 37.4219L35.918 33.7891C35.918 32.4805 35.2734 31.7773 33.9062 31.7773L16.9336 31.7773C15.5664 31.7773 14.9219 32.4805 14.9219 33.7891L14.9219 37.4219L14.707 37.4219C14.1211 37.4219 13.6523 37.8906 13.6523 38.4766C13.6523 39.043 14.1211 39.5117 14.707 39.5117ZM22.3828 36.4648C21.9336 36.4648 21.6211 36.1133 21.6211 35.6836C21.6211 35.2539 21.9336 34.9219 22.3828 34.9219L28.457 34.9219C28.8867 34.9219 29.2578 35.2539 29.2578 35.6836C29.2578 36.1133 28.8867 36.4648 28.457 36.4648Z" fill="black" fill-opacity="0.85"/>
 </g>
</svg>
