<?xml version="1.0" encoding="UTF-8"?>
<!--Generator: Apple Native CoreSVG 326-->
<!DOCTYPE svg
PUBLIC "-//W3C//DTD SVG 1.1//EN"
       "http://www.w3.org/Graphics/SVG/1.1/DTD/svg11.dtd">
<svg version="1.1" xmlns="http://www.w3.org/2000/svg" xmlns:xlink="http://www.w3.org/1999/xlink" viewBox="0 0 51.25 50.918">
 <g>
  <rect height="50.918" opacity="0" width="51.25" x="0" y="0"/>
  <path d="M25.4297 50.8789C39.4727 50.8789 50.8789 39.4922 50.8789 25.4492C50.8789 11.4062 39.4727 0 25.4297 0C11.3867 0 0 11.4062 0 25.4492C0 39.4922 11.3867 50.8789 25.4297 50.8789ZM25.4297 47.2461C13.3789 47.2461 3.63281 37.5 3.63281 25.4492C3.63281 13.3984 13.3789 3.65234 25.4297 3.65234C37.4805 3.65234 47.2266 13.3984 47.2266 25.4492C47.2266 37.5 37.4805 47.2461 25.4297 47.2461Z" fill="black" fill-opacity="0.85"/>
  <path d="M25.0195 25.6836L29.2578 21.4648C31.7188 19.0625 31.7383 15.8984 29.3555 13.5938C27.0117 11.2305 23.8867 11.25 21.4844 13.6719L17.2656 17.9102ZM23.6914 27.0312L15.918 19.2578L11.6602 23.5352C9.25781 25.957 9.21875 29.1016 11.5234 31.4258C13.9062 33.75 17.0117 33.7109 19.4336 31.3086ZM40.0781 30.625C39.6875 27.3242 36.7773 24.668 33.2227 24.668C29.7461 24.668 26.8359 27.3242 26.4258 30.625ZM40.0781 32.5L26.4258 32.5C26.8359 35.7812 29.7266 38.4375 33.2227 38.4375C36.7969 38.4375 39.6875 35.7812 40.0781 32.5Z" fill="black" fill-opacity="0.85"/>
 </g>
</svg>
