<?xml version="1.0" encoding="UTF-8"?>
<!--Generator: Apple Native CoreSVG 326-->
<!DOCTYPE svg
PUBLIC "-//W3C//DTD SVG 1.1//EN"
       "http://www.w3.org/Graphics/SVG/1.1/DTD/svg11.dtd">
<svg version="1.1" xmlns="http://www.w3.org/2000/svg" xmlns:xlink="http://www.w3.org/1999/xlink" viewBox="0 0 66.4062 39.1211">
 <g>
  <rect height="39.1211" opacity="0" width="66.4062" x="0" y="0"/>
  <path d="M17.1875 0C14.1602 0 12.0898 1.09375 10.2148 3.51562L1.50391 15.1562C-0.507812 17.7539-0.488281 21.1914 1.48438 23.7891L10.1953 35.5273C11.9336 37.832 14.3359 39.0625 17.1875 39.0625L48.8477 39.0625C51.6992 39.0625 54.082 37.832 55.8398 35.5273L64.5508 23.7891C66.5234 21.1914 66.5234 17.7539 64.5312 15.1562L55.8008 3.51562C53.9258 1.09375 51.875 0 48.8477 0ZM17.1875 3.45703L48.8477 3.45703C50.8008 3.45703 51.8164 3.98438 53.0859 5.60547L61.7969 17.2461C62.8711 18.6328 62.8516 20.332 61.8164 21.6992L53.0859 33.4375C51.9531 34.9023 50.625 35.6055 48.8477 35.6055L17.1875 35.6055C15.4102 35.6055 14.0625 34.9023 12.9492 33.4375L4.19922 21.6992C3.16406 20.332 3.16406 18.6328 4.23828 17.2461L12.9492 5.60547C14.1992 3.98438 15.2344 3.45703 17.1875 3.45703Z" fill="black" fill-opacity="0.85"/>
  <path d="M16.0938 15.1172C13.6719 15.1172 11.6797 17.1094 11.6797 19.5312C11.6797 21.9336 13.6719 23.9258 16.0938 23.9258C18.4961 23.9258 20.4883 21.9336 20.4883 19.5312C20.4883 17.1094 18.4961 15.1172 16.0938 15.1172ZM33.0078 21.25C30.6055 21.25 28.6133 23.2422 28.6133 25.6641C28.6133 28.0859 30.6055 30.0586 33.0078 30.0586C35.4297 30.0586 37.4219 28.0859 37.4219 25.6641C37.4219 23.2422 35.4297 21.25 33.0078 21.25ZM49.9414 15.1172C47.5195 15.1172 45.5273 17.1094 45.5273 19.5312C45.5273 21.9336 47.5195 23.9258 49.9414 23.9258C52.3633 23.9258 54.3359 21.9336 54.3359 19.5312C54.3359 17.1094 52.3633 15.1172 49.9414 15.1172Z" fill="black" fill-opacity="0.85"/>
 </g>
</svg>
