<?xml version="1.0" encoding="UTF-8"?>
<!--Generator: Apple Native CoreSVG 326-->
<!DOCTYPE svg
PUBLIC "-//W3C//DTD SVG 1.1//EN"
       "http://www.w3.org/Graphics/SVG/1.1/DTD/svg11.dtd">
<svg version="1.1" xmlns="http://www.w3.org/2000/svg" xmlns:xlink="http://www.w3.org/1999/xlink" viewBox="0 0 46.2891 45.918">
 <g>
  <rect height="45.918" opacity="0" width="46.2891" x="0" y="0"/>
  <path d="M45.918 7.53906L45.918 38.3984C45.918 43.3594 43.3594 45.918 38.3008 45.918L7.59766 45.918C2.55859 45.918 0 43.3984 0 38.3984L0 7.53906C0 2.53906 2.55859 0 7.59766 0L38.3008 0C43.3594 0 45.918 2.55859 45.918 7.53906ZM12.8711 10.9375C11.5234 10.9375 10.5664 11.8945 10.5664 13.2227L10.5664 32.6562C10.5664 33.9844 11.5234 34.9609 12.8711 34.9609L33.0469 34.9609C34.375 34.9609 35.3516 33.9844 35.3516 32.6562L35.3516 13.2227C35.3516 11.8945 34.375 10.9375 33.0469 10.9375ZM19.9609 27.2852C19.9609 28.6914 18.8281 29.8242 17.4219 29.8242C15.9961 29.8242 14.8633 28.6914 14.8633 27.2852C14.8633 25.8789 15.9961 24.7266 17.4219 24.7266C18.8281 24.7266 19.9609 25.8789 19.9609 27.2852ZM31.0938 27.2852C31.0938 28.6914 29.9414 29.8242 28.5352 29.8242C27.1289 29.8242 25.9961 28.6914 25.9961 27.2852C25.9961 25.8789 27.1289 24.7266 28.5352 24.7266C29.9414 24.7266 31.0938 25.8789 31.0938 27.2852ZM25.5273 18.5938C25.5273 20.0195 24.3945 21.1523 22.9688 21.1523C21.5625 21.1523 20.4297 20.0195 20.4297 18.5938C20.4297 17.1875 21.5625 16.0547 22.9688 16.0547C24.3945 16.0547 25.5273 17.1875 25.5273 18.5938Z" fill="black" fill-opacity="0.85"/>
 </g>
</svg>
