<?xml version="1.0" encoding="UTF-8"?>
<!--Generator: Apple Native CoreSVG 326-->
<!DOCTYPE svg
PUBLIC "-//W3C//DTD SVG 1.1//EN"
       "http://www.w3.org/Graphics/SVG/1.1/DTD/svg11.dtd">
<svg version="1.1" xmlns="http://www.w3.org/2000/svg" xmlns:xlink="http://www.w3.org/1999/xlink" viewBox="0 0 60.3516 42.207">
 <g>
  <rect height="42.207" opacity="0" width="60.3516" x="0" y="0"/>
  <path d="M42.7148 27.0703L48.2031 27.0703C49.4336 27.0703 50.2539 26.2891 50.2539 25.0977L50.2539 1.93359C50.2539 0.78125 49.4336 0 48.2031 0L42.7148 0C38.8281 0 35.5078 1.52344 32.7148 4.84375C31.5234 6.19141 31.0742 6.52344 29.4531 6.52344L23.8867 6.52344C21.7188 6.52344 20.1953 7.92969 20.1953 9.96094L20.1953 17.1094C20.1953 19.1406 21.7188 20.5664 23.8867 20.5664L29.4531 20.5664C31.0742 20.5664 31.5234 20.918 32.7148 22.2266C35.5273 25.5664 38.8672 27.0703 42.7148 27.0703ZM42.7148 23.8086C39.668 23.8086 37.5195 22.8125 35.2344 20.1758C33.5352 18.1836 32.0898 17.3047 29.4531 17.3047L24.4922 17.3047C23.8672 17.3047 23.457 16.9141 23.457 16.3281L23.457 10.625C23.457 10.0977 23.7891 9.78516 24.375 9.78516L29.4531 9.78516C32.0703 9.78516 33.5352 8.92578 35.2539 6.875C37.5195 4.25781 39.6484 3.26172 42.7148 3.26172L46.0742 3.26172C46.6602 3.26172 46.9922 3.55469 46.9922 4.0625L46.9922 22.9688C46.9922 23.4961 46.6602 23.8086 46.0742 23.8086ZM49.5117 10.4492L57.793 10.4492C59.0039 10.4492 59.9805 9.49219 59.9805 8.26172C59.9805 7.03125 59.0039 6.05469 57.793 6.05469L49.5117 6.05469ZM49.5117 21.0156L57.793 21.0156C59.0039 21.0156 59.9805 20.0391 59.9805 18.8281C59.9805 17.5977 59.0039 16.6211 57.793 16.6211L49.5117 16.6211ZM0 42.168L20.4297 42.168C26.0352 42.168 29.7266 38.7695 29.7266 33.7695C29.7266 28.7695 26.0352 25.2539 20.4297 25.2539L9.10156 25.2539C5.60547 25.2539 3.45703 23.1641 3.45703 20.1953C3.45703 17.2461 5.66406 15.2539 9.10156 15.2539L21.8359 15.2539L21.8359 11.7969L9.31641 11.7969C3.69141 11.7969 0 15.2148 0 20.1953C0 25.1953 3.69141 28.7109 9.31641 28.7109L20.625 28.7109C24.1211 28.7109 26.2695 30.8008 26.2695 33.7695C26.2695 36.7188 24.0625 38.7109 20.625 38.7109L0 38.7109Z" fill="black" fill-opacity="0.85"/>
 </g>
</svg>
