<?xml version="1.0" encoding="UTF-8"?>
<!--Generator: Apple Native CoreSVG 326-->
<!DOCTYPE svg
PUBLIC "-//W3C//DTD SVG 1.1//EN"
       "http://www.w3.org/Graphics/SVG/1.1/DTD/svg11.dtd">
<svg version="1.1" xmlns="http://www.w3.org/2000/svg" xmlns:xlink="http://www.w3.org/1999/xlink" viewBox="0 0 46.2891 45.918">
 <g>
  <rect height="45.918" opacity="0" width="46.2891" x="0" y="0"/>
  <path d="M45.918 7.53906L45.918 38.3984C45.918 43.3594 43.3594 45.918 38.3008 45.918L7.59766 45.918C2.55859 45.918 0 43.3984 0 38.3984L0 7.53906C0 2.53906 2.55859 0 7.59766 0L38.3008 0C43.3594 0 45.918 2.55859 45.918 7.53906ZM12.8711 10.9375C11.5234 10.9375 10.5664 11.8945 10.5664 13.2227L10.5664 32.6562C10.5664 33.9844 11.5234 34.9609 12.8711 34.9609L33.0469 34.9609C34.375 34.9609 35.3516 33.9844 35.3516 32.6562L35.3516 13.2227C35.3516 11.8945 34.375 10.9375 33.0469 10.9375ZM25.293 28.6133L25.293 30.1953C25.293 30.6445 25.0781 30.8984 24.6094 30.8984L21.3086 30.8984C20.8398 30.8984 20.6055 30.6445 20.6055 30.1953L20.6055 28.6133C20.6055 27.2852 21.6016 26.25 22.9492 26.25C24.2773 26.25 25.293 27.2852 25.293 28.6133ZM19.4141 17.3242L19.4141 21.8555C19.4141 22.5781 18.8281 23.1445 18.1055 23.1445C17.4023 23.1445 16.8359 22.5781 16.8359 21.8555L16.8359 17.3242C16.8359 16.6016 17.4023 16.0156 18.1055 16.0156C18.8281 16.0156 19.4141 16.6016 19.4141 17.3242ZM29.0625 17.3242L29.0625 21.8555C29.0625 22.5781 28.4766 23.1445 27.7734 23.1445C27.0508 23.1445 26.4844 22.5781 26.4844 21.8555L26.4844 17.3242C26.4844 16.6016 27.0508 16.0156 27.7734 16.0156C28.4766 16.0156 29.0625 16.6016 29.0625 17.3242Z" fill="black" fill-opacity="0.85"/>
 </g>
</svg>
