<?xml version="1.0" encoding="UTF-8"?>
<!--Generator: Apple Native CoreSVG 326-->
<!DOCTYPE svg
PUBLIC "-//W3C//DTD SVG 1.1//EN"
       "http://www.w3.org/Graphics/SVG/1.1/DTD/svg11.dtd">
<svg version="1.1" xmlns="http://www.w3.org/2000/svg" xmlns:xlink="http://www.w3.org/1999/xlink" viewBox="0 0 62.5391 54.3555">
 <g>
  <rect height="54.3555" opacity="0" width="62.5391" x="0" y="0"/>
  <path d="M49.1602 6.01562L49.1602 6.77734L13.0273 6.77734L13.0273 6.01562C13.0273 2.28516 15.8008 0.605469 19.668 0.605469L42.5195 0.605469C46.543 0.605469 49.1602 2.28516 49.1602 6.01562Z" fill="black" fill-opacity="0.85"/>
  <path d="M59.043 16.9727L59.043 38.0469C59.043 42.7539 56.582 45.1172 51.875 45.1172L49.7266 45.1172L49.7266 29.2383C49.7266 25.8203 48.1055 24.3164 44.8047 24.3164L17.3828 24.3164C14.1992 24.3164 12.4414 25.8203 12.4414 29.2383L12.4414 45.1172L10.293 45.1172C5.58594 45.1172 3.125 42.7539 3.125 38.0469L3.125 16.9727C3.125 12.2461 5.78125 9.88281 10.293 9.88281L51.875 9.88281C56.582 9.88281 59.043 12.2461 59.043 16.9727ZM43.1641 17.8906C43.1641 19.6484 44.5898 21.0352 46.3281 21.0352C48.0273 21.0352 49.4727 19.6094 49.4727 17.8906C49.4727 16.1914 48.0273 14.7461 46.3281 14.7461C44.5898 14.7461 43.1641 16.1914 43.1641 17.8906Z" fill="black" fill-opacity="0.85"/>
  <path d="M17.3828 54.3555L44.8047 54.3555C48.1055 54.3555 49.7266 52.8516 49.7266 49.4336L49.7266 29.2383C49.7266 25.8203 48.1055 24.3164 44.8047 24.3164L17.3828 24.3164C14.1992 24.3164 12.4414 25.8203 12.4414 29.2383L12.4414 49.4336C12.4414 52.8516 14.082 54.3555 17.3828 54.3555ZM18.3789 51.0938C16.6797 51.0938 15.9375 50.3516 15.9375 48.6328L15.9375 30C15.9375 28.3203 16.6797 27.5781 18.3789 27.5781L43.8281 27.5781C45.5273 27.5781 46.25 28.3203 46.25 30L46.25 48.6328C46.25 50.3516 45.5273 51.0938 43.8281 51.0938ZM22.7734 34.2969C24.0039 34.2969 25 33.3594 25 32.1289C25 30.8789 24.0039 29.9414 22.7734 29.9414C21.582 29.9414 20.5859 30.8789 20.5859 32.1289C20.5859 33.3594 21.582 34.2969 22.7734 34.2969ZM22.7734 41.5234C24.0039 41.5234 25 40.5664 25 39.3359C25 38.1055 24.0039 37.1484 22.7734 37.1484C21.582 37.1484 20.5859 38.1055 20.5859 39.3359C20.5859 40.5664 21.582 41.5234 22.7734 41.5234ZM22.7734 48.7305C24.0039 48.7305 25 47.7734 25 46.543C25 45.3125 24.0039 44.3555 22.7734 44.3555C21.582 44.3555 20.5859 45.3125 20.5859 46.543C20.5859 47.7734 21.582 48.7305 22.7734 48.7305ZM39.4141 34.2969C40.6445 34.2969 41.6406 33.3594 41.6406 32.1289C41.6406 30.8789 40.6445 29.9414 39.4141 29.9414C38.2227 29.9414 37.2266 30.8789 37.2266 32.1289C37.2266 33.3594 38.2227 34.2969 39.4141 34.2969ZM39.4141 41.5234C40.6445 41.5234 41.6406 40.5664 41.6406 39.3359C41.6406 38.1055 40.6445 37.1484 39.4141 37.1484C38.2227 37.1484 37.2266 38.1055 37.2266 39.3359C37.2266 40.5664 38.2227 41.5234 39.4141 41.5234ZM39.4141 48.7305C40.6445 48.7305 41.6406 47.7734 41.6406 46.543C41.6406 45.3125 40.6445 44.3555 39.4141 44.3555C38.2227 44.3555 37.2266 45.3125 37.2266 46.543C37.2266 47.7734 38.2227 48.7305 39.4141 48.7305Z" fill="black" fill-opacity="0.85"/>
 </g>
</svg>
