<?xml version="1.0" encoding="UTF-8"?>
<!--Generator: Apple Native CoreSVG 326-->
<!DOCTYPE svg
PUBLIC "-//W3C//DTD SVG 1.1//EN"
       "http://www.w3.org/Graphics/SVG/1.1/DTD/svg11.dtd">
<svg version="1.1" xmlns="http://www.w3.org/2000/svg" xmlns:xlink="http://www.w3.org/1999/xlink" viewBox="0 0 56.8164 73.335">
 <g>
  <rect height="73.335" opacity="0" width="56.8164" x="0" y="0"/>
  <path d="M56.4453 36.6577C56.4453 49.0402 48.437 59.5812 37.3044 63.3507C37.5371 62.1216 37.2867 60.9011 36.6609 59.9192C46.2006 56.4982 52.9883 47.392 52.9883 36.6577C52.9883 22.9273 41.9141 11.8726 28.2031 11.8726C14.4922 11.8726 3.45703 22.9468 3.45703 36.6577C3.45703 47.3719 10.2147 56.4833 19.7374 59.9124C19.108 60.8971 18.8562 62.1196 19.0858 63.3433C7.97376 59.5682 0 49.0325 0 36.6577C0 21.0913 12.6172 8.41553 28.2031 8.41553C43.7891 8.41553 56.4453 21.0718 56.4453 36.6577Z" fill="black" fill-opacity="0.85"/>
  <path d="M23.7695 60.9155C22.168 60.9155 21.6602 62.4976 22.5586 63.7085L26.9336 69.5483C27.5977 70.4273 28.8281 70.4468 29.4727 69.5483L33.8281 63.728C34.7656 62.478 34.1992 60.9155 32.6367 60.9155Z" fill="black" fill-opacity="0.85"/>
  <path d="M28.2031 16.7554C17.2266 16.7554 8.32031 25.6616 8.32031 36.6577C8.32031 47.6538 17.2266 56.5405 28.2031 56.5405C39.2188 56.5405 48.125 47.6538 48.125 36.6577C48.125 25.6616 39.2188 16.7554 28.2031 16.7554ZM22.9492 46.5405C21.8945 46.5405 21.2695 45.7983 21.2695 44.7046L21.2695 28.3765C21.2695 27.2827 21.875 26.4819 22.9297 26.4819L29.0039 26.4819C33.2617 26.4819 36.0547 29.021 36.0547 32.8687C36.0547 35.5444 34.4336 37.771 31.9727 38.6304L35.2344 43.8257C35.5078 44.2358 35.6445 44.6265 35.6445 45.0562C35.6445 45.9155 34.9609 46.5405 34.0234 46.5405C33.2812 46.5405 32.793 46.228 32.3242 45.4663L28.6133 39.1577L24.7266 39.1577L24.7266 44.7046C24.7266 45.8179 24.0625 46.5405 22.9492 46.5405ZM24.7266 36.4624L28.6328 36.4624C31.1523 36.4624 32.6758 35.2124 32.6758 32.9273C32.6758 30.6226 31.0938 29.2554 28.6914 29.2554L24.7266 29.2554Z" fill="black" fill-opacity="0.85"/>
 </g>
</svg>
