<?xml version="1.0" encoding="UTF-8"?>
<!--Generator: Apple Native CoreSVG 326-->
<!DOCTYPE svg
PUBLIC "-//W3C//DTD SVG 1.1//EN"
       "http://www.w3.org/Graphics/SVG/1.1/DTD/svg11.dtd">
<svg version="1.1" xmlns="http://www.w3.org/2000/svg" xmlns:xlink="http://www.w3.org/1999/xlink" viewBox="0 0 51.25 50.918">
 <g>
  <rect height="50.918" opacity="0" width="51.25" x="0" y="0"/>
  <path d="M25.4297 50.8789C39.4727 50.8789 50.8789 39.4922 50.8789 25.4492C50.8789 11.4062 39.4727 0 25.4297 0C11.3867 0 0 11.4062 0 25.4492C0 39.4922 11.3867 50.8789 25.4297 50.8789ZM25.4297 47.2461C13.3789 47.2461 3.63281 37.5 3.63281 25.4492C3.63281 13.3984 13.3789 3.65234 25.4297 3.65234C37.4805 3.65234 47.2266 13.3984 47.2266 25.4492C47.2266 37.5 37.4805 47.2461 25.4297 47.2461Z" fill="black" fill-opacity="0.85"/>
  <path d="M13.6523 35.9375C14.6484 35.9375 15.2539 35.2734 15.2539 34.2578L15.2539 27.6367L17.9688 27.6367L20.8203 34.6484C21.1523 35.4688 21.6211 35.9375 22.5 35.9375C23.2422 35.9375 24.0039 35.4688 24.0039 34.375C24.0039 34.1211 23.8672 33.6914 23.6719 33.2031L21.0156 26.9531C23.0664 25.9766 24.0625 23.8672 24.0625 21.4258C24.0625 17.4805 21.7188 15.2539 17.8711 15.2539L13.6328 15.2539C12.5977 15.2539 12.0117 15.8789 12.0117 16.9141L12.0117 34.2578C12.0117 35.2539 12.6172 35.9375 13.6523 35.9375ZM15.2539 25.2148L15.2539 17.832L17.5586 17.832C19.6289 17.832 20.8203 19.2773 20.8203 21.5039C20.8203 23.6328 19.8047 25.2148 17.5781 25.2148ZM29.1406 35.6641L34.375 35.6641C37.9102 35.6641 39.9414 33.3398 39.9414 29.9805C39.9414 27.5 38.4961 25.2344 36.0742 24.9805L36.0742 24.8633C37.9883 24.5117 39.2773 22.3828 39.2773 20.3516C39.2773 17.1875 37.207 15.2734 34.2383 15.2734L29.1406 15.2734C28.1055 15.2734 27.5586 15.9961 27.5586 16.9531L27.5586 34.0039C27.5586 35 28.125 35.6641 29.1406 35.6641ZM30.7031 24.0625L30.7031 17.7734L33.3398 17.7734C35.332 17.7734 36.1719 19.043 36.1719 20.8203C36.1719 22.8125 35.0391 24.0625 33.0469 24.0625ZM30.7031 33.2031L30.7031 26.2891L33.3398 26.2891C35.3711 26.2891 36.7188 27.4023 36.7188 29.7266C36.7188 31.875 35.6055 33.2031 33.4375 33.2031Z" fill="black" fill-opacity="0.85"/>
 </g>
</svg>
