<?xml version="1.0" encoding="UTF-8"?>
<!--Generator: Apple Native CoreSVG 326-->
<!DOCTYPE svg
PUBLIC "-//W3C//DTD SVG 1.1//EN"
       "http://www.w3.org/Graphics/SVG/1.1/DTD/svg11.dtd">
<svg version="1.1" xmlns="http://www.w3.org/2000/svg" xmlns:xlink="http://www.w3.org/1999/xlink" viewBox="0 0 65.4297 53.8477">
 <g>
  <rect height="53.8477" opacity="0" width="65.4297" x="0" y="0"/>
  <path d="M45.6055 7.61719L45.6055 20.8008L42.1484 20.8008L42.1484 7.69531C42.1484 4.96094 40.7031 3.47656 37.9102 3.47656L11.3867 3.47656C8.59375 3.47656 7.14844 4.96094 7.14844 7.69531L7.14844 46.1719C7.14844 48.9062 8.59375 50.3906 11.3867 50.3906L37.9102 50.3906C40.7031 50.3906 42.1484 48.9062 42.1484 46.1719L42.1484 33.0273L45.6055 33.0273L45.6055 46.25C45.6055 51.2891 43.0859 53.8477 38.0859 53.8477L11.2109 53.8477C6.21094 53.8477 3.67188 51.2891 3.67188 46.25L3.67188 7.61719C3.67188 2.57812 6.21094 0.0195312 11.2109 0.0195312L38.0859 0.0195312C43.0859 0.0195312 45.6055 2.57812 45.6055 7.61719Z" fill="black" fill-opacity="0.85"/>
  <path d="M25.0391 26.9141C25.0391 27.832 25.8008 28.6133 26.6992 28.6133L52.9297 28.6133L56.6211 28.4961L55.0195 30.0195L50.5664 34.2773C50.2148 34.5898 50.0391 35.0391 50.0391 35.4492C50.0391 36.3281 50.6836 37.0117 51.5625 37.0117C52.0117 37.0117 52.3633 36.8359 52.6953 36.5039L60.8203 28.1445C61.25 27.7148 61.3867 27.3438 61.3867 26.9141C61.3867 26.4648 61.25 26.0938 60.8203 25.6641L52.6953 17.3047C52.3633 16.9727 52.0117 16.7773 51.5625 16.7773C50.6836 16.7773 50.0391 17.4414 50.0391 18.3398C50.0391 18.75 50.2148 19.2188 50.5664 19.5312L55.0195 23.7695L56.6406 25.332L52.9297 25.1953L26.6992 25.1953C25.8008 25.1953 25.0391 25.9766 25.0391 26.9141Z" fill="black" fill-opacity="0.85"/>
 </g>
</svg>
