<?xml version="1.0" encoding="UTF-8"?>
<!--Generator: Apple Native CoreSVG 326-->
<!DOCTYPE svg
PUBLIC "-//W3C//DTD SVG 1.1//EN"
       "http://www.w3.org/Graphics/SVG/1.1/DTD/svg11.dtd">
<svg version="1.1" xmlns="http://www.w3.org/2000/svg" xmlns:xlink="http://www.w3.org/1999/xlink" viewBox="0 0 64.2822 68.3398">
 <g>
  <rect height="68.3398" opacity="0" width="64.2822" x="0" y="0"/>
  <path d="M14.9634 23.4327L14.9634 53.1055L14.3775 53.1055C9.41651 53.1055 6.85792 50.5273 6.85792 45.5078L6.85792 15.3301ZM45.8228 10.7031L45.8228 12.1094L25.6079 12.1094C22.5939 12.1094 20.142 12.9033 18.36 14.3966L8.8688 4.90199C10.1168 3.70541 11.9563 3.10547 14.3775 3.10547L38.2837 3.10547C43.2837 3.10547 45.8228 5.66406 45.8228 10.7031Z" fill="black" fill-opacity="0.85"/>
  <path d="M54.9976 63.4527C53.7441 64.6382 51.9091 65.2344 49.5142 65.2344L25.6079 65.2344C20.647 65.2344 18.0884 62.6562 18.0884 57.6172L18.0884 26.5565ZM57.0532 22.832L57.0532 53.1035L20.5796 16.617C21.8015 15.6942 23.4801 15.2344 25.6079 15.2344L49.5142 15.2344C54.5142 15.2344 57.0532 17.7734 57.0532 22.832Z" fill="black" fill-opacity="0.85"/>
  <path d="M58.3423 62.9492C58.9868 63.5938 60.061 63.5938 60.686 62.9492C61.3501 62.2656 61.3501 61.25 60.686 60.5859L5.56886 5.46875C4.94386 4.82422 3.86964 4.80469 3.20558 5.46875C2.56105 6.09375 2.56105 7.1875 3.20558 7.8125Z" fill="black" fill-opacity="0.85"/>
 </g>
</svg>
