<?xml version="1.0" encoding="UTF-8"?>
<!--Generator: Apple Native CoreSVG 326-->
<!DOCTYPE svg
PUBLIC "-//W3C//DTD SVG 1.1//EN"
       "http://www.w3.org/Graphics/SVG/1.1/DTD/svg11.dtd">
<svg version="1.1" xmlns="http://www.w3.org/2000/svg" xmlns:xlink="http://www.w3.org/1999/xlink" viewBox="0 0 64.7461 44.5953">
 <g>
  <rect height="44.5953" opacity="0" width="64.7461" x="0" y="0"/>
  <path d="M57.1094 2.17068C61.5234 2.17068 64.375 5.08083 64.375 9.51443L64.375 25.1785C64.375 31.5652 61.6992 35.3738 55.1367 37.3074L33.3398 43.6746C27.6172 45.3543 24.043 44.6902 18.9062 42.0535L4.72656 34.7683C0.800781 32.7566 0 30.4324 0 25.1785L0 9.4363C0 5.04177 2.87109 2.15115 7.32422 2.15115ZM26.9336 15.7254C26.9336 18.8504 28.7695 20.491 31.3672 21.5066L32.7344 22.0144C34.5117 22.7176 35.7617 23.5769 35.7617 25.5301C35.7617 27.2879 34.668 28.5379 32.8516 28.5379C31.0547 28.5379 29.9609 27.3074 29.668 25.7449C29.4922 24.9636 28.9258 24.6316 28.2227 24.6316C27.3633 24.6316 26.8164 25.2566 26.8164 26.116C26.8164 26.5066 26.8359 26.6629 26.9531 27.073C27.6758 29.7097 29.9414 31.1746 32.8125 31.1746C36.6211 31.1746 38.9062 28.948 38.9062 25.2371C38.9062 22.0144 37.2266 20.5496 34.375 19.4363L32.9883 18.9285C31.2695 18.2644 30.0586 17.3465 30.0586 15.5105C30.0586 13.8504 31.0742 12.6785 32.6953 12.6785C34.3945 12.6785 35.3125 13.8894 35.6055 15.3543C35.8203 16.1355 36.3477 16.409 37.0508 16.409C37.9102 16.409 38.457 15.8621 38.457 15.0418C38.457 14.8269 38.4375 14.573 38.3203 14.1043C37.5781 11.5261 35.4297 10.0418 32.6953 10.0418C29.3555 10.0418 26.9336 12.2488 26.9336 15.7254ZM13.4961 10.491C12.4609 10.491 11.8945 11.116 11.8945 12.1511L11.8945 29.3386C11.8945 30.3543 12.4805 31.0379 13.5352 31.0379C14.5117 31.0379 15.1172 30.3738 15.1172 29.3386L15.1172 22.7957L17.8125 22.7957L20.625 29.7293C20.9375 30.5496 21.4258 31.0379 22.3047 31.0379C23.0469 31.0379 23.8086 30.5886 23.8086 29.4754C23.8086 29.2215 23.6914 28.7722 23.4766 28.3035L20.8594 22.1121C22.8711 21.1551 23.8672 19.0457 23.8672 16.6238C23.8672 12.698 21.543 10.491 17.6953 10.491ZM43.7109 10.5105C42.6953 10.5105 42.1289 11.2332 42.1289 12.1902L42.1289 29.1043C42.1289 30.1004 42.7148 30.784 43.7109 30.784L48.9258 30.784C52.4219 30.784 54.4727 28.4597 54.4727 25.1004C54.4727 22.6394 53.0273 20.4129 50.625 20.1394L50.625 20.0222C52.5195 19.6902 53.7891 17.5613 53.7891 15.5496C53.7891 12.4246 51.7188 10.5105 48.8086 10.5105ZM51.2305 24.8465C51.2305 26.9949 50.1562 28.3035 47.9883 28.3035L45.293 28.3035L45.293 21.448L47.8906 21.448C49.8828 21.448 51.2305 22.5418 51.2305 24.8465ZM20.625 16.7215C20.625 18.8113 19.6289 20.3933 17.4219 20.3933L15.1172 20.3933L15.1172 13.0886L17.4219 13.0886C19.4531 13.0886 20.625 14.5144 20.625 16.7215ZM50.7031 16.0379C50.7031 18.0105 49.5898 19.2215 47.6172 19.2215L45.293 19.2215L45.293 13.0105L47.8906 13.0105C49.8633 13.0105 50.7031 14.2801 50.7031 16.0379Z" fill="black" fill-opacity="0.85"/>
 </g>
</svg>
