<?xml version="1.0" encoding="UTF-8"?>
<!--Generator: Apple Native CoreSVG 326-->
<!DOCTYPE svg
PUBLIC "-//W3C//DTD SVG 1.1//EN"
       "http://www.w3.org/Graphics/SVG/1.1/DTD/svg11.dtd">
<svg version="1.1" xmlns="http://www.w3.org/2000/svg" xmlns:xlink="http://www.w3.org/1999/xlink" viewBox="0 0 46.2891 45.918">
 <g>
  <rect height="45.918" opacity="0" width="46.2891" x="0" y="0"/>
  <path d="M7.59766 45.918L38.3008 45.918C43.3594 45.918 45.918 43.3594 45.918 38.3984L45.918 7.53906C45.918 2.55859 43.3594 0 38.3008 0L7.59766 0C2.55859 0 0 2.53906 0 7.53906L0 38.3984C0 43.3984 2.55859 45.918 7.59766 45.918ZM7.67578 42.4609C4.94141 42.4609 3.45703 41.0156 3.45703 38.2031L3.45703 7.71484C3.45703 4.92188 4.94141 3.45703 7.67578 3.45703L38.2422 3.45703C40.918 3.45703 42.4609 4.92188 42.4609 7.71484L42.4609 38.2031C42.4609 41.0156 40.918 42.4609 38.2422 42.4609Z" fill="black" fill-opacity="0.85"/>
  <path d="M13.1055 33.3789C13.9062 33.3789 14.375 32.8711 14.375 32.0508L14.375 24.8242L17.7344 24.8242L20.9961 32.4609C21.25 33.0664 21.6406 33.3789 22.2656 33.3789C22.9688 33.3789 23.5352 32.9297 23.5352 32.1875C23.5352 31.875 23.3984 31.6211 23.2422 31.2695L20.1953 24.2773C22.4805 23.3203 23.5547 21.1328 23.5547 18.7109C23.5547 15.2734 21.5234 12.7148 17.5 12.7148L13.0859 12.7148C12.3242 12.7148 11.8359 13.2031 11.8359 14.0039L11.8359 32.0508C11.8359 32.8711 12.3047 33.3789 13.1055 33.3789ZM14.375 22.7539L14.375 14.8438L17.2461 14.8438C19.6484 14.8438 20.9961 16.3672 20.9961 18.7695C20.9961 21.1719 19.7266 22.7539 17.2656 22.7539ZM31.0742 33.3984C34.0039 33.3984 36.3672 31.7188 36.3672 28.8086C36.3672 26.4258 34.9414 25.332 32.5391 24.668L30.5469 24.1211C29.3359 23.7891 28.3398 23.1445 28.3398 21.8359C28.3398 20.3516 29.5117 19.3945 30.9961 19.3945C32.5781 19.3945 33.5352 20.3125 34.043 21.5625C34.1992 21.9336 34.5312 22.168 34.9219 22.168C35.625 22.168 35.8984 21.7383 35.8984 21.2695C35.8984 21.0938 35.8594 20.8594 35.7812 20.6445C35.293 18.8672 33.4375 17.5195 31.0742 17.5195C27.9102 17.5195 25.9375 19.3555 25.9375 21.9727C25.9375 24.2969 27.4609 25.5078 29.707 26.1133L31.7188 26.6406C33.0664 27.0117 33.9453 27.7344 33.9453 29.043C33.9453 30.5469 32.832 31.5234 31.1914 31.5234C29.4531 31.5234 28.4766 30.8594 27.7148 29.3164C27.4609 28.7891 27.0703 28.5742 26.6797 28.5742C26.0938 28.5742 25.6641 28.9648 25.6641 29.5508C25.6641 29.7461 25.7227 29.9805 25.8008 30.2148C26.4648 32.3828 28.7695 33.3984 31.0742 33.3984Z" fill="black" fill-opacity="0.85"/>
 </g>
</svg>
