<?xml version="1.0" encoding="UTF-8"?>
<!--Generator: Apple Native CoreSVG 326-->
<!DOCTYPE svg
PUBLIC "-//W3C//DTD SVG 1.1//EN"
       "http://www.w3.org/Graphics/SVG/1.1/DTD/svg11.dtd">
<svg version="1.1" xmlns="http://www.w3.org/2000/svg" xmlns:xlink="http://www.w3.org/1999/xlink" viewBox="0 0 59.5508 45.918">
 <g>
  <rect height="45.918" opacity="0" width="59.5508" x="0" y="0"/>
  <path d="M46.7188 12.0898C48.3984 12.0508 49.8047 10.6445 49.8047 8.98438C49.8047 7.26562 48.3984 5.83984 46.7188 5.83984C45.0391 5.83984 43.5938 7.26562 43.5938 8.98438C43.5938 10.6445 45.0391 12.1094 46.7188 12.0898ZM46.7188 26.0547C48.3984 26.0156 49.8047 24.6094 49.8047 22.9297C49.8047 21.2305 48.3984 19.7852 46.7188 19.7852C45.0391 19.7852 43.5938 21.2305 43.5938 22.9297C43.5938 24.6094 45.0391 26.0742 46.7188 26.0547ZM46.7188 40C48.3984 39.9805 49.8047 38.5742 49.8047 36.8945C49.8047 35.1953 48.3984 33.75 46.7188 33.75C45.0391 33.75 43.5938 35.1953 43.5938 36.8945C43.5938 38.5742 45.0391 40.0391 46.7188 40ZM57.3242 17.5781L57.3242 14.3164L1.97266 14.3164L1.97266 17.5781ZM57.3242 31.6602L57.3242 28.3984L1.97266 28.3984L1.97266 31.6602ZM7.59766 45.918L51.5625 45.918C56.6211 45.918 59.1797 43.3594 59.1797 38.3984L59.1797 7.53906C59.1797 2.55859 56.6211 0 51.5625 0L7.59766 0C2.55859 0 0 2.53906 0 7.53906L0 38.3984C0 43.3984 2.55859 45.918 7.59766 45.918ZM7.67578 42.4609C4.94141 42.4609 3.45703 41.0156 3.45703 38.2031L3.45703 7.71484C3.45703 4.92188 4.94141 3.45703 7.67578 3.45703L51.5039 3.45703C54.1797 3.45703 55.7031 4.92188 55.7031 7.71484L55.7031 38.2031C55.7031 41.0156 54.1797 42.4609 51.5039 42.4609Z" fill="black" fill-opacity="0.85"/>
 </g>
</svg>
