<?xml version="1.0" encoding="UTF-8"?>
<!--Generator: Apple Native CoreSVG 326-->
<!DOCTYPE svg
PUBLIC "-//W3C//DTD SVG 1.1//EN"
       "http://www.w3.org/Graphics/SVG/1.1/DTD/svg11.dtd">
<svg version="1.1" xmlns="http://www.w3.org/2000/svg" xmlns:xlink="http://www.w3.org/1999/xlink" viewBox="0 0 51.25 50.918">
 <g>
  <rect height="50.918" opacity="0" width="51.25" x="0" y="0"/>
  <path d="M25.4297 50.8789C39.4727 50.8789 50.8789 39.4922 50.8789 25.4492C50.8789 11.4062 39.4727 0 25.4297 0C11.3867 0 0 11.4062 0 25.4492C0 39.4922 11.3867 50.8789 25.4297 50.8789ZM25.4297 47.2461C13.3789 47.2461 3.63281 37.5 3.63281 25.4492C3.63281 13.3984 13.3789 3.65234 25.4297 3.65234C37.4805 3.65234 47.2266 13.3984 47.2266 25.4492C47.2266 37.5 37.4805 47.2461 25.4297 47.2461Z" fill="black" fill-opacity="0.85"/>
  <path d="M14.4727 23.0273L20.3906 23.0273C20.4102 19.6875 22.8711 16.9141 26.0547 16.6602L26.0547 14.707C26.0547 13.4766 25.4102 12.8125 24.1602 12.8125L14.4727 12.8125C13.2227 12.8125 12.5781 13.4766 12.5781 14.707L12.5781 21.2109C12.5781 22.4023 13.2227 23.0273 14.4727 23.0273ZM35.9766 30.1367L39.9219 30.1367C41.1719 30.1367 41.8164 29.4727 41.8164 28.2422L41.8164 20.4688C41.8164 19.2578 41.1719 18.6328 39.9219 18.6328L35.9766 18.6328C34.707 18.6328 34.082 19.2578 34.082 20.4688L34.082 28.2422C34.082 29.4727 34.707 30.1367 35.9766 30.1367ZM11.0156 32.5977L13.7305 32.5977C14.9609 32.5977 15.625 31.9531 15.625 30.7031L15.625 27.9492C15.625 26.6992 14.9609 26.0742 13.7305 26.0742L11.0156 26.0742C9.78516 26.0742 9.12109 26.6992 9.12109 27.9492L9.12109 30.7031C9.12109 31.9531 9.78516 32.5977 11.0156 32.5977ZM26.5039 27.9102C28.8477 27.9102 30.8594 25.8203 30.8594 23.0859C30.8594 20.4297 28.8477 18.3594 26.5039 18.3594C24.1211 18.3594 22.1094 20.4492 22.1094 23.0859C22.1094 25.8203 24.1211 27.9102 26.5039 27.9102ZM19.043 38.0664L33.9062 38.0664C35.0391 38.0664 35.7227 37.5195 35.7227 36.6602C35.7227 33.7891 32.1484 29.8828 26.4844 29.8828C20.7812 29.8828 17.2656 33.7891 17.2656 36.6602C17.2656 37.5195 17.9492 38.0664 19.043 38.0664Z" fill="black" fill-opacity="0.85"/>
 </g>
</svg>
