<?xml version="1.0" encoding="UTF-8"?>
<!--Generator: Apple Native CoreSVG 326-->
<!DOCTYPE svg
PUBLIC "-//W3C//DTD SVG 1.1//EN"
       "http://www.w3.org/Graphics/SVG/1.1/DTD/svg11.dtd">
<svg version="1.1" xmlns="http://www.w3.org/2000/svg" xmlns:xlink="http://www.w3.org/1999/xlink" viewBox="0 0 51.25 50.918">
 <g>
  <rect height="50.918" opacity="0" width="51.25" x="0" y="0"/>
  <path d="M50.8789 25.4688C50.8789 39.4922 39.4531 50.918 25.4297 50.918C11.4258 50.918 0 39.4922 0 25.4688C0 11.4648 11.4258 0.0390625 25.4297 0.0390625C39.4531 0.0390625 50.8789 11.4648 50.8789 25.4688ZM24.1406 10.7227L24.1406 13.1445L20.9766 13.1445C19.8242 13.1445 19.1211 13.7891 19.1211 14.9609L19.1211 20.2148C19.1211 21.3672 19.8242 22.0312 20.9766 22.0312L24.1406 22.0312L24.1406 24.2773L17.3438 24.2773C16.6016 24.2773 16.0938 24.4727 15.625 24.9219L13.0859 27.3633C12.1094 28.2617 12.0898 29.1797 13.0664 30.0977L15.625 32.5C16.0938 32.9883 16.6211 33.1641 17.3438 33.1641L24.1406 33.1641L24.1406 38.0078L20.5273 38.0078C19.8438 38.0078 19.2773 38.5742 19.2773 39.2773C19.2773 39.9805 19.8438 40.5664 20.5273 40.5664L30.2539 40.5664C30.957 40.5664 31.5234 39.9805 31.5234 39.2773C31.5234 38.5742 30.957 38.0078 30.2539 38.0078L26.6797 38.0078L26.6797 33.1641L29.8242 33.1641C30.9766 33.1641 31.6797 32.5 31.6797 31.3477L31.6797 26.0938C31.6797 24.9414 30.9766 24.2773 29.8242 24.2773L26.6797 24.2773L26.6797 22.0312L33.4375 22.0312C34.1797 22.0312 34.707 21.8359 35.1562 21.3672L37.7344 18.9453C38.6914 18.0664 38.6914 17.1484 37.6953 16.2109L35.1562 13.7695C34.707 13.3398 34.1992 13.1445 33.4375 13.1445L26.6797 13.1445L26.6797 10.7227C26.6797 10.0195 26.1133 9.43359 25.4102 9.43359C24.6875 9.43359 24.1406 10.0391 24.1406 10.7227Z" fill="black" fill-opacity="0.85"/>
 </g>
</svg>
