<?xml version="1.0" encoding="UTF-8"?>
<!--Generator: Apple Native CoreSVG 326-->
<!DOCTYPE svg
PUBLIC "-//W3C//DTD SVG 1.1//EN"
       "http://www.w3.org/Graphics/SVG/1.1/DTD/svg11.dtd">
<svg version="1.1" xmlns="http://www.w3.org/2000/svg" xmlns:xlink="http://www.w3.org/1999/xlink" viewBox="0 0 51.1719 47.5586">
 <g>
  <rect height="47.5586" opacity="0" width="51.1719" x="0" y="0"/>
  <path d="M23.4375 26.3867L26.8945 26.3867L26.8945 6.64062C26.8945 4.70703 28.125 3.47656 30.0391 3.47656C31.9727 3.47656 33.2031 4.70703 33.2031 6.64062L33.2031 10.5078C33.2031 11.4453 34.0039 12.2266 34.9414 12.2266C35.8789 12.2266 36.6797 11.4453 36.6797 10.5078L36.6797 6.64062C36.6797 2.63672 34.043 0 30.0391 0C26.0547 0 23.4375 2.63672 23.4375 6.64062ZM16.543 26.3867L19.3945 26.3867L19.3945 20.3125C19.3945 19.0234 18.6133 18.2422 17.3242 18.2422L10.4297 18.2422C9.64844 18.2422 9.00391 18.8867 9.00391 19.6875C9.00391 20.4688 9.64844 21.1133 10.4297 21.1133L15.9375 21.1133C16.3281 21.1133 16.543 21.3281 16.543 21.6992ZM30.918 26.3867L33.7891 26.3867L33.7891 21.6992C33.7891 21.3281 34.0039 21.1133 34.375 21.1133L39.9023 21.1133C40.6836 21.1133 41.3281 20.4688 41.3281 19.6875C41.3281 18.8867 40.6836 18.2422 39.9023 18.2422L33.0078 18.2422C31.7188 18.2422 30.918 19.0234 30.918 20.3125ZM1.73828 28.5156L2.53906 28.5156L2.53906 36.875C2.53906 43.6914 6.64062 47.4805 14.0039 47.4805L36.7969 47.4805C44.1602 47.4805 48.2812 43.6914 48.2812 36.875L48.2812 28.5156L49.082 28.5156C50.0195 28.5156 50.8008 27.7344 50.8008 26.7969C50.8008 25.8398 50.0195 25.0586 49.082 25.0586L1.73828 25.0586C0.78125 25.0586 0 25.8398 0 26.7969C0 27.7344 0.78125 28.5156 1.73828 28.5156Z" fill="black" fill-opacity="0.85"/>
 </g>
</svg>
