<?xml version="1.0" encoding="UTF-8"?>
<!--Generator: Apple Native CoreSVG 326-->
<!DOCTYPE svg
PUBLIC "-//W3C//DTD SVG 1.1//EN"
       "http://www.w3.org/Graphics/SVG/1.1/DTD/svg11.dtd">
<svg version="1.1" xmlns="http://www.w3.org/2000/svg" xmlns:xlink="http://www.w3.org/1999/xlink" viewBox="0 0 67.1778 66.8115">
 <g>
  <rect height="66.8115" opacity="0" width="67.1778" x="0" y="0"/>
  <path d="M2.07522 51.7358C4.86819 54.5093 9.16506 54.5093 11.9385 51.7358L51.7041 11.9312C54.4971 9.13819 54.5166 4.86085 51.7237 2.10694C48.9698-0.666497 44.7119-0.686029 41.8994 2.12647L2.11428 41.9312C-0.698217 44.7632-0.698217 48.9624 2.07522 51.7358ZM25.6104 24.8218C24.9073 24.0991 24.8877 23.0054 25.6104 22.3023C26.294 21.5796 27.4073 21.5991 28.1104 22.3023L31.5479 25.7202C32.2705 26.4429 32.2705 27.5562 31.5479 28.2593C30.8643 28.9429 29.7119 28.9429 29.0088 28.2593ZM17.5049 32.9077C16.8213 32.2046 16.8018 31.0913 17.5049 30.3687C18.1885 29.6655 19.3408 29.6655 20.044 30.3687L23.4619 33.8062C24.1846 34.5093 24.1651 35.6421 23.4619 36.3452C22.7588 37.0288 21.6455 37.0483 20.9424 36.3452ZM15.0635 64.7241C17.8565 67.5171 22.1533 67.4976 24.9268 64.7241L64.7119 24.9194C67.5049 22.1265 67.5049 17.8687 64.7119 15.0757C61.9776 12.3218 57.7002 12.3218 54.8877 15.1148L15.1221 54.8999C12.2901 57.7319 12.3096 61.9507 15.0635 64.7241ZM38.5987 37.8101C37.876 37.0874 37.876 35.9546 38.5987 35.2905C39.2823 34.5874 40.4151 34.5679 41.1377 35.2905L44.5557 38.7085C45.2588 39.4116 45.2588 40.5444 44.5557 41.228C43.8526 41.9312 42.7393 41.9312 42.0362 41.228ZM30.4932 45.896C29.8096 45.2124 29.8096 44.0796 30.4932 43.3765C31.2158 42.6538 32.3096 42.6733 33.0323 43.3765L36.4698 46.7749C37.1924 47.4976 37.1924 48.6304 36.4698 49.3335C35.7666 50.0366 34.6338 50.0366 33.9307 49.3335Z" fill="black" fill-opacity="0.85"/>
 </g>
</svg>
