<?xml version="1.0" encoding="UTF-8"?>
<!--Generator: Apple Native CoreSVG 326-->
<!DOCTYPE svg
PUBLIC "-//W3C//DTD SVG 1.1//EN"
       "http://www.w3.org/Graphics/SVG/1.1/DTD/svg11.dtd">
<svg version="1.1" xmlns="http://www.w3.org/2000/svg" xmlns:xlink="http://www.w3.org/1999/xlink" viewBox="0 0 51.25 50.918">
 <g>
  <rect height="50.918" opacity="0" width="51.25" x="0" y="0"/>
  <path d="M25.4297 50.8789C39.4727 50.8789 50.8789 39.4922 50.8789 25.4492C50.8789 11.4062 39.4727 0 25.4297 0C11.3867 0 0 11.4062 0 25.4492C0 39.4922 11.3867 50.8789 25.4297 50.8789ZM25.4297 47.2461C13.3789 47.2461 3.63281 37.5 3.63281 25.4492C3.63281 13.3984 13.3789 3.65234 25.4297 3.65234C37.4805 3.65234 47.2266 13.3984 47.2266 25.4492C47.2266 37.5 37.4805 47.2461 25.4297 47.2461Z" fill="black" fill-opacity="0.85"/>
  <path d="M16.3086 36.4062C16.8945 36.4062 17.3438 36.1719 17.8125 35.7031L35.5664 17.7539C36.0156 17.3047 36.2695 16.7773 36.2695 16.2695C36.2695 15.2734 35.4492 14.4922 34.4727 14.4922C33.9648 14.4922 33.457 14.7461 32.9883 15.1953L15.2734 33.125C14.8047 33.5938 14.5508 34.1211 14.5508 34.6289C14.5508 35.5664 15.2539 36.4062 16.3086 36.4062Z" fill="black" fill-opacity="0.85"/>
 </g>
</svg>
