<?xml version="1.0" encoding="UTF-8"?>
<!--Generator: Apple Native CoreSVG 326-->
<!DOCTYPE svg
PUBLIC "-//W3C//DTD SVG 1.1//EN"
       "http://www.w3.org/Graphics/SVG/1.1/DTD/svg11.dtd">
<svg version="1.1" xmlns="http://www.w3.org/2000/svg" xmlns:xlink="http://www.w3.org/1999/xlink" viewBox="0 0 92.2746 64.2773">
 <g>
  <rect height="64.2773" opacity="0" width="92.2746" x="0" y="0"/>
  <path d="M75.5416 16.7188L75.5416 32.8803C74.9785 32.806 74.404 32.7734 73.8228 32.7734C73.2289 32.7734 72.6421 32.8076 72.065 32.8767L72.065 16.8945C72.065 14.1016 70.5416 12.6367 67.8658 12.6367L24.0377 12.6367C21.3033 12.6367 19.8189 14.1016 19.8189 16.8945L19.8189 47.3828C19.8189 50.1953 21.3033 51.6406 24.0377 51.6406L55.496 51.6406C55.8782 53.1559 57.1224 54.3853 58.9205 54.6484L59.3306 54.668C59.393 54.8139 59.4575 54.9588 59.5331 55.0977L23.9595 55.0977C18.9205 55.0977 16.3619 52.5781 16.3619 47.5781L16.3619 16.7188C16.3619 11.7188 18.9205 9.17969 23.9595 9.17969L67.9244 9.17969C72.983 9.17969 75.5416 11.7383 75.5416 16.7188ZM43.1141 33.3984L65.9713 33.3984C66.5541 33.3984 67.0542 33.7399 67.2818 34.2353C66.107 34.7771 65.0141 35.464 64.0274 36.2695L43.1201 36.2695C42.5032 38.2855 40.6079 39.7461 38.3736 39.7461C36.1712 39.7461 34.2948 38.2855 33.6837 36.2695L25.8736 36.2695C25.1509 36.2695 24.5064 35.625 24.5064 34.8438C24.5064 34.043 25.1509 33.3984 25.8736 33.3984L33.6881 33.3984C34.3031 31.3907 36.1636 29.9023 38.3736 29.9023C40.5995 29.9023 42.4889 31.3907 43.1141 33.3984ZM35.7369 34.8438C35.7369 36.3477 36.8892 37.5 38.3736 37.5C39.897 37.5 41.0494 36.3281 41.0494 34.8438C41.0494 33.3203 39.897 32.168 38.3736 32.168C36.8892 32.168 35.7369 33.3203 35.7369 34.8438ZM58.3601 20.7227L66.0103 20.7227C66.7525 20.7227 67.397 21.3672 67.397 22.1484C67.397 22.9492 66.7525 23.5938 66.0103 23.5938L58.3446 23.5938C57.7152 25.595 55.8324 27.0508 53.6275 27.0508C51.4226 27.0508 49.5656 25.595 48.9458 23.5938L25.9322 23.5938C25.1509 23.5938 24.5064 22.9492 24.5064 22.1484C24.5064 21.3672 25.1509 20.7227 25.9322 20.7227L48.934 20.7227C49.5401 18.7005 51.4201 17.207 53.6275 17.207C55.8535 17.207 57.7512 18.6908 58.3601 20.7227ZM50.9908 22.1094C50.9908 23.6133 52.1236 24.8047 53.6275 24.8047C55.1509 24.8047 56.3033 23.6133 56.3033 22.1094C56.3033 20.6445 55.1509 19.4727 53.6275 19.4727C52.1236 19.4727 50.9908 20.6055 50.9908 22.1094Z" fill="black" fill-opacity="0.85"/>
  <path d="M81.733 54.375C79.9556 56.8164 77.065 58.418 73.8228 58.418C68.4127 58.418 63.94 53.9453 63.94 48.5352L61.2056 48.5352C61.2056 55.4492 66.9088 61.1523 73.8228 61.1523C77.8853 61.1523 81.5181 59.1992 83.7838 56.1914C85.0533 54.6289 82.8658 52.9297 81.733 54.375ZM61.8502 45.5859L58.8033 49.7461C58.1197 50.6641 58.5884 51.6211 59.7603 51.6211L66.0689 51.6211C67.2408 51.6211 67.7486 50.6055 67.0455 49.7461L63.8033 45.5859C63.2174 44.8633 62.4166 44.8438 61.8502 45.5859ZM65.9322 42.6758C67.7095 40.2344 70.6002 38.6328 73.8228 38.6328C79.2525 38.6328 83.7252 43.1055 83.7252 48.5352L86.4595 48.5352C86.4595 41.6016 80.7564 35.8984 73.8228 35.8984C69.7799 35.8984 66.147 37.8711 63.8814 40.8594C62.6119 42.4414 64.7799 44.1211 65.9322 42.6758ZM85.815 51.4648L88.8424 47.3047C89.5455 46.4062 89.0767 45.4492 87.9049 45.4492L81.5963 45.4492C80.4244 45.4492 79.9166 46.4648 80.6197 47.3047L83.8619 51.4648C84.4478 52.207 85.2486 52.2266 85.815 51.4648Z" fill="black" fill-opacity="0.85"/>
 </g>
</svg>
