<?xml version="1.0" encoding="UTF-8"?>
<!--Generator: Apple Native CoreSVG 326-->
<!DOCTYPE svg
PUBLIC "-//W3C//DTD SVG 1.1//EN"
       "http://www.w3.org/Graphics/SVG/1.1/DTD/svg11.dtd">
<svg version="1.1" xmlns="http://www.w3.org/2000/svg" xmlns:xlink="http://www.w3.org/1999/xlink" viewBox="0 0 44.5407 50.5664">
 <g>
  <rect height="50.5664" opacity="0" width="44.5407" x="0" y="0"/>
  <path d="M22.0848 50.5078C23.0223 50.5078 23.5887 49.8633 23.5887 48.9062L23.5887 42.8516L28.3934 45.6055C29.1942 46.0547 30.0145 45.9766 30.4832 45.1953C30.8738 44.5117 30.6395 43.6914 29.7996 43.2227L23.5887 39.6875L23.5887 36.0352L23.1785 27.1875L30.659 31.9531L33.8426 33.7695L33.8035 40.918C33.8035 41.875 34.3895 42.5195 35.1707 42.5195C36.0692 42.5195 36.5379 41.8555 36.5379 40.918L36.5574 35.332L41.8309 38.3984C42.6707 38.8867 43.491 38.6719 43.9403 37.8906C44.3699 37.0898 44.116 36.25 43.3348 35.8008L38.0613 32.7734L42.9051 29.9219C43.6863 29.4531 44.0184 28.7109 43.5692 27.9688C43.1199 27.2656 42.3192 27.0703 41.5184 27.5391L35.3074 31.1719L32.1434 29.3555L24.1551 25.2734L32.1629 21.1914L35.327 19.3359L41.4793 22.9688C42.2996 23.4375 43.1785 23.2617 43.5887 22.5586C44.0184 21.7969 43.6668 21.0547 42.8856 20.5664L38.0809 17.7539L43.3348 14.7461C44.1746 14.2578 44.409 13.457 43.9403 12.6172C43.5106 11.8555 42.6707 11.6602 41.8504 12.1484L36.5574 15.1758L36.5379 9.58984C36.5379 8.65234 36.0692 8.00781 35.1512 8.00781C34.3699 8.00781 33.8035 8.63281 33.8035 9.58984L33.8231 16.7578L30.659 18.5742L23.1785 23.3594L23.5887 14.4922L23.5887 10.8203L29.7996 7.28516C30.6395 6.81641 30.8738 5.99609 30.4832 5.3125C30.0145 4.53125 29.1942 4.45312 28.3934 4.90234L23.5887 7.65625L23.5887 1.60156C23.5887 0.644531 23.0223 0 22.0848 0C21.1863 0 20.6004 0.644531 20.6004 1.60156L20.6004 7.67578L15.7176 4.90234C14.9168 4.45312 14.1356 4.53125 13.6668 5.3125C13.2957 5.99609 13.5496 6.81641 14.3504 7.28516L20.6004 10.8398L20.6004 14.4922L21.0106 23.3594L13.5106 18.5742L10.327 16.7578L10.366 9.58984C10.366 8.63281 9.81916 8.00781 9.01838 8.00781C8.10041 8.00781 7.65119 8.65234 7.65119 9.58984L7.61213 15.1758L2.33869 12.1484C1.51838 11.6992 0.659004 11.8555 0.229317 12.6172C-0.239433 13.457 0.0340041 14.2773 0.834785 14.7461L6.08869 17.7539L1.284 20.5664C0.483223 21.0547 0.151192 21.7383 0.60041 22.5781C0.991035 23.2617 1.85041 23.4375 2.69025 22.9688L8.86213 19.3555L12.0067 21.1914L20.0145 25.2734L12.0262 29.3555L8.8426 31.1719L2.67072 27.5391C1.85041 27.0703 1.01057 27.2656 0.639473 27.9297C0.190254 28.7695 0.483223 29.4531 1.284 29.9219L6.10822 32.7734L0.854317 35.8008C0.0340041 36.2695-0.219902 37.1289 0.229317 37.8906C0.698067 38.6914 1.53791 38.8477 2.33869 38.3984L7.61213 35.3711L7.63166 40.918C7.63166 41.8555 8.10041 42.5195 9.01838 42.5195C9.7801 42.5195 10.366 41.875 10.366 40.918L10.3465 33.7695L13.5106 31.9727L21.0106 27.1875L20.6004 36.0352L20.6004 39.668L14.3504 43.2227C13.5496 43.6914 13.2957 44.5117 13.6668 45.1953C14.1356 45.9766 14.9168 46.0547 15.7176 45.6055L20.6004 42.832L20.6004 48.9062C20.6004 49.8633 21.1863 50.5078 22.0848 50.5078Z" fill="black" fill-opacity="0.85"/>
 </g>
</svg>
