<?xml version="1.0" encoding="UTF-8"?>
<!--Generator: Apple Native CoreSVG 326-->
<!DOCTYPE svg
PUBLIC "-//W3C//DTD SVG 1.1//EN"
       "http://www.w3.org/Graphics/SVG/1.1/DTD/svg11.dtd">
<svg version="1.1" xmlns="http://www.w3.org/2000/svg" xmlns:xlink="http://www.w3.org/1999/xlink" viewBox="0 0 51.25 50.918">
 <g>
  <rect height="50.918" opacity="0" width="51.25" x="0" y="0"/>
  <path d="M25.4297 50.8789C39.4727 50.8789 50.8789 39.4922 50.8789 25.4492C50.8789 11.4062 39.4727 0 25.4297 0C11.3867 0 0 11.4062 0 25.4492C0 39.4922 11.3867 50.8789 25.4297 50.8789ZM25.4297 47.2461C13.3789 47.2461 3.63281 37.5 3.63281 25.4492C3.63281 13.3984 13.3789 3.65234 25.4297 3.65234C37.4805 3.65234 47.2266 13.3984 47.2266 25.4492C47.2266 37.5 37.4805 47.2461 25.4297 47.2461Z" fill="black" fill-opacity="0.85"/>
  <path d="M13.5938 33.8086C16.7578 33.8086 18.6523 31.9141 18.6523 29.043C18.6523 26.6797 17.6953 25.5859 15.0977 24.1797L14.1211 23.6719C12.6367 22.8711 12.168 22.3047 12.168 21.3477C12.168 20.5078 12.7539 19.9219 13.5938 19.9219C14.4922 19.9219 14.9609 20.5078 15.1562 21.6602C15.2148 21.9922 15.3711 22.1484 15.6836 22.1484L17.8906 22.1484C18.2031 22.1484 18.418 21.9531 18.418 21.6211C18.3594 18.9258 16.8164 16.9922 13.5938 16.9922C10.5078 16.9922 8.69141 18.9062 8.69141 21.6992C8.69141 24.0234 9.66797 25.3516 12.1289 26.6406L13.0859 27.1484C14.668 27.9688 15.1758 28.418 15.1758 29.3945C15.1758 30.4102 14.707 30.8789 13.6523 30.8789C12.5781 30.8789 12.0117 30.293 11.875 29.082C11.8164 28.7695 11.6406 28.6133 11.3672 28.6133L9.00391 28.6133C8.69141 28.6133 8.45703 28.8477 8.47656 29.1797C8.53516 32.0898 10.2734 33.8086 13.5938 33.8086ZM25.4297 33.8086C29.2188 33.8086 31.2305 30.9766 31.2305 25.4492C31.2305 19.9414 29.2383 16.9922 25.4297 16.9922C21.6016 16.9922 19.6289 19.9414 19.6289 25.4492C19.6289 30.9766 21.6211 33.8086 25.4297 33.8086ZM25.4297 30.7617C23.9453 30.7617 23.2031 29.1992 23.2031 25.4492C23.2031 21.6797 23.9453 20.0977 25.4297 20.0977C26.875 20.0977 27.5977 21.6797 27.5977 25.4492C27.5977 29.1992 26.875 30.7617 25.4297 30.7617ZM37.3242 33.8086C40.4883 33.8086 42.3633 31.9141 42.3633 29.043C42.3633 26.6797 41.4258 25.5859 38.8281 24.1797L37.832 23.6719C36.3477 22.8711 35.8789 22.3047 35.8789 21.3477C35.8789 20.5078 36.4844 19.9219 37.3242 19.9219C38.2031 19.9219 38.6719 20.5078 38.8672 21.6602C38.9453 21.9922 39.082 22.1484 39.375 22.1484L41.6016 22.1484C41.9141 22.1484 42.1484 21.9531 42.1484 21.6211C42.0703 18.9258 40.5273 16.9922 37.3242 16.9922C34.2188 16.9922 32.4023 18.9062 32.4023 21.6992C32.4023 24.0234 33.3984 25.332 35.8398 26.6406L36.7969 27.1484C38.3789 27.9883 38.8672 28.418 38.8672 29.3945C38.8672 30.4102 38.418 30.8789 37.3633 30.8789C36.2891 30.8789 35.7422 30.293 35.5859 29.082C35.5273 28.7695 35.3516 28.6133 35.0781 28.6133L32.7148 28.6133C32.4023 28.6133 32.168 28.8477 32.168 29.1797C32.2461 32.0898 33.9844 33.8086 37.3242 33.8086Z" fill="black" fill-opacity="0.85"/>
 </g>
</svg>
