<?xml version="1.0" encoding="UTF-8"?>
<!--Generator: Apple Native CoreSVG 326-->
<!DOCTYPE svg
PUBLIC "-//W3C//DTD SVG 1.1//EN"
       "http://www.w3.org/Graphics/SVG/1.1/DTD/svg11.dtd">
<svg version="1.1" xmlns="http://www.w3.org/2000/svg" xmlns:xlink="http://www.w3.org/1999/xlink" viewBox="0 0 53.1055 51.8164">
 <g>
  <rect height="51.8164" opacity="0" width="53.1055" x="0" y="0"/>
  <path d="M40.5273 7.57812L40.5273 11.2891L37.0508 11.2891L37.0508 7.77344C37.0508 4.96094 35.5273 3.51562 32.8516 3.51562L7.67578 3.51562C4.94141 3.51562 3.45703 4.96094 3.45703 7.77344L3.45703 32.8711C3.45703 35.6836 4.94141 37.1289 7.67578 37.1289L12.2266 37.1289L12.2266 40.5859L7.59766 40.5859C2.53906 40.5859 0 38.0469 0 33.0469L0 7.57812C0 2.59766 2.53906 0.0585938 7.59766 0.0585938L32.9102 0.0585938C37.9492 0.0585938 40.5273 2.61719 40.5273 7.57812Z" fill="black" fill-opacity="0.85"/>
  <path d="M52.7344 18.8281L52.7344 44.2773C52.7344 49.2578 50.1758 51.8164 45.1367 51.8164L19.8242 51.8164C14.7656 51.8164 12.2266 49.2773 12.2266 44.2773L12.2266 18.8281C12.2266 13.8281 14.7656 11.2891 19.8242 11.2891L45.1367 11.2891C50.1758 11.2891 52.7344 13.8477 52.7344 18.8281ZM22.8906 35.3516C22.207 39.043 22.4805 39.3555 18.2227 40.0195C17.9102 40.0586 17.7148 40.3125 17.7148 40.625C17.7148 40.957 17.9102 41.1719 18.2617 41.2305C22.4805 41.8164 22.207 42.1484 22.8906 45.8594C22.9883 46.1914 23.1836 46.4062 23.5156 46.4062C23.8281 46.4062 24.043 46.2109 24.1211 45.918C24.7656 42.1484 24.5703 41.8164 28.8086 41.2305C29.1211 41.1719 29.3359 40.918 29.3359 40.625C29.3359 40.3125 29.1211 40.0586 28.8086 40.0195C24.5898 39.3555 24.7656 39.043 24.1211 35.3516C24.043 35.0391 23.8477 34.7852 23.5156 34.7852C23.2031 34.7852 22.9883 35.0195 22.8906 35.3516ZM32.8906 19.043C31.4648 27.2461 30.8203 28.3594 22.5391 29.4531C22.0508 29.5312 21.7578 29.8633 21.7578 30.293C21.7578 30.7422 22.0508 31.0742 22.5391 31.1328C30.8594 31.7773 31.7578 33.418 32.8906 41.543C32.9688 41.9922 33.2812 42.3047 33.7695 42.3047C34.1992 42.3047 34.5117 41.9922 34.6094 41.5625C35.9961 33.418 36.6797 32.2266 45 31.1328C45.4492 31.0938 45.7617 30.7422 45.7617 30.293C45.7617 29.8633 45.4492 29.5312 45 29.4531C36.6992 28.3594 35.8008 27.1289 34.6094 19.0625C34.5312 18.6328 34.1992 18.3008 33.7695 18.3008C33.3203 18.3008 33.0078 18.6133 32.8906 19.043Z" fill="black" fill-opacity="0.85"/>
 </g>
</svg>
