<?xml version="1.0" encoding="UTF-8"?>
<!--Generator: Apple Native CoreSVG 326-->
<!DOCTYPE svg
PUBLIC "-//W3C//DTD SVG 1.1//EN"
       "http://www.w3.org/Graphics/SVG/1.1/DTD/svg11.dtd">
<svg version="1.1" xmlns="http://www.w3.org/2000/svg" xmlns:xlink="http://www.w3.org/1999/xlink" viewBox="0 0 58.75 46.8555">
 <g>
  <rect height="46.8555" opacity="0" width="58.75" x="0" y="0"/>
  <path d="M26.6797 2.53906L14.1016 1.11328C11.9141 0.859375 10.3516 2.26562 10.3516 4.35547C10.3516 6.48438 11.9141 7.89062 14.1016 7.63672L26.6797 6.21094ZM28.8281 8.75C31.2695 8.75 33.2031 6.79688 33.2031 4.35547C33.2031 1.95312 31.2695 0 28.8281 0C26.3867 0 24.4336 1.95312 24.4336 4.35547C24.4336 6.79688 26.3867 8.75 28.8281 8.75ZM30.957 2.53906L30.957 6.21094L43.5352 7.63672C45.7422 7.89062 47.2852 6.48438 47.2852 4.35547C47.2852 2.26562 45.7422 0.859375 43.5352 1.11328ZM26.875 6.99219L26.875 12.7734L30.7812 12.7734L30.7812 6.99219ZM22.0117 17.4805L35.5664 17.4805L35.5664 14.1602C35.5664 12.3633 34.4336 11.2109 32.6367 11.2109L24.9414 11.2109C23.1445 11.2109 22.0117 12.3633 22.0117 14.1602ZM28.7891 41.9336C33.125 41.9336 35.625 40.0195 38.3984 37.5781C39.4922 36.5625 40.8984 35.9961 42.1875 35.9961C44.707 35.9961 46.6211 37.832 46.6211 41.0156L46.6211 44.7852C46.6211 45.8203 47.0312 46.2305 48.0664 46.2305L56.9336 46.2305C57.9492 46.2305 58.3789 45.8008 58.3789 44.7852L58.3789 42.3438C58.3789 28.8281 50.5664 23.6133 42.0508 23.6133L40.8398 23.6133C40.1953 23.6133 39.7266 23.2617 39.5312 22.7148L37.9297 18.3984C37.5195 17.2852 37.1289 16.9727 36.1328 16.9727L21.4258 16.9727C20.4297 16.9727 20.0391 17.2852 19.6289 18.3984L18.0469 22.7148C17.8516 23.2617 17.3633 23.6133 16.7188 23.6133L1.99219 23.6133L1.99219 35.9375L15.4883 35.9375C17.0117 35.9375 17.6953 36.1133 18.7891 37.2461C21.2695 39.7656 24.4336 41.9336 28.7891 41.9336ZM1.73828 41.7188C2.67578 41.7188 3.45703 40.9375 3.45703 40L3.45703 20.1172C3.45703 19.1797 2.67578 18.3984 1.73828 18.3984C0.78125 18.3984 0 19.1797 0 20.1172L0 40C0 40.9375 0.78125 41.7188 1.73828 41.7188Z" fill="black" fill-opacity="0.85"/>
 </g>
</svg>
