<?xml version="1.0" encoding="UTF-8"?>
<!--Generator: Apple Native CoreSVG 326-->
<!DOCTYPE svg
PUBLIC "-//W3C//DTD SVG 1.1//EN"
       "http://www.w3.org/Graphics/SVG/1.1/DTD/svg11.dtd">
<svg version="1.1" xmlns="http://www.w3.org/2000/svg" xmlns:xlink="http://www.w3.org/1999/xlink" viewBox="0 0 55.6836 55.332">
 <g>
  <rect height="55.332" opacity="0" width="55.6836" x="0" y="0"/>
  <path d="M7.28516 31.1992C6.7397 31.0155 6.1548 30.918 5.54688 30.918C4.94629 30.918 4.36818 31.0131 3.82813 31.192L3.82812 10.8588C4.36818 11.0377 4.94629 11.1328 5.54688 11.1328C6.1548 11.1328 6.7397 11.0353 7.28516 10.8516Z" fill="black" fill-opacity="0.85"/>
  <path d="M17.0898 38.2031L10.816 38.2031C10.9974 37.6578 11.0938 37.0731 11.0938 36.4648C11.0938 35.8643 10.9986 35.2862 10.8197 34.7461L17.0898 34.7461Z" fill="black" fill-opacity="0.85"/>
  <path d="M38.2227 17.168L34.7461 17.168L34.7461 10.8516C35.2915 11.0353 35.8764 11.1328 36.4844 11.1328C37.0923 11.1328 37.6772 11.0353 38.2227 10.8516Z" fill="black" fill-opacity="0.85"/>
  <path d="M30.9375 5.58594C30.9375 6.18652 31.0327 6.76463 31.2115 7.30469L10.8197 7.30469C10.9986 6.76463 11.0938 6.18652 11.0938 5.58594C11.0938 4.97801 10.9963 4.39311 10.8126 3.84766L31.2187 3.84766C31.035 4.39311 30.9375 4.97801 30.9375 5.58594Z" fill="black" fill-opacity="0.85"/>
  <path d="M11.0938 36.4648C11.0938 39.5508 8.61328 42.0312 5.54688 42.0312C2.48047 42.0312 0 39.5508 0 36.4648C0 33.3984 2.48047 30.918 5.54688 30.918C8.61328 30.918 11.0938 33.3984 11.0938 36.4648Z" fill="black" fill-opacity="0.85"/>
  <path d="" fill="black" fill-opacity="0.85"/>
  <path d="M42.0312 5.58594C42.0312 8.65234 39.5508 11.1328 36.4844 11.1328C33.418 11.1328 30.9375 8.65234 30.9375 5.58594C30.9375 2.51953 33.418 0.0390625 36.4844 0.0390625C39.5508 0.0390625 42.0312 2.51953 42.0312 5.58594Z" fill="black" fill-opacity="0.85"/>
  <path d="M11.0938 5.58594C11.0938 8.65234 8.61328 11.1328 5.54688 11.1328C2.48047 11.1328 0 8.65234 0 5.58594C0 2.51953 2.48047 0.0390625 5.54688 0.0390625C8.61328 0.0390625 11.0938 2.51953 11.0938 5.58594Z" fill="black" fill-opacity="0.85"/>
  <path d="M18.8281 24.4336C19.4287 24.4336 20.0068 24.3384 20.5469 24.1595L20.5469 44.5123C20.0068 44.3334 19.4287 44.2383 18.8281 44.2383C18.2199 44.2383 17.6352 44.3346 17.0898 44.516L17.0898 24.1558C17.6352 24.3372 18.2199 24.4336 18.8281 24.4336Z" fill="black" fill-opacity="0.85"/>
  <path d="M44.1992 49.7852C44.1992 50.3857 44.2944 50.9638 44.4733 51.5039L24.101 51.5039C24.2798 50.9638 24.375 50.3857 24.375 49.7852C24.375 49.1772 24.2775 48.5923 24.0938 48.0469L44.4804 48.0469C44.2967 48.5923 44.1992 49.1772 44.1992 49.7852Z" fill="black" fill-opacity="0.85"/>
  <path d="M51.4844 44.516C50.9391 44.3346 50.3543 44.2383 49.7461 44.2383C49.1455 44.2383 48.5674 44.3334 48.0273 44.5123L48.0273 24.1595C48.5674 24.3384 49.1455 24.4336 49.7461 24.4336C50.3543 24.4336 50.9391 24.3372 51.4844 24.1558Z" fill="black" fill-opacity="0.85"/>
  <path d="M44.4733 17.168C44.2944 17.708 44.1992 18.2861 44.1992 18.8867C44.1992 19.4946 44.2967 20.0795 44.4804 20.625L24.0938 20.625C24.2775 20.0795 24.375 19.4946 24.375 18.8867C24.375 18.2861 24.2798 17.708 24.101 17.168Z" fill="black" fill-opacity="0.85"/>
  <path d="M24.375 49.7852C24.375 52.8516 21.8945 55.332 18.8281 55.332C15.7422 55.332 13.2617 52.8516 13.2617 49.7852C13.2617 46.7188 15.7422 44.2383 18.8281 44.2383C21.8945 44.2383 24.375 46.7188 24.375 49.7852Z" fill="black" fill-opacity="0.85"/>
  <path d="M55.3125 49.7852C55.3125 52.8516 52.832 55.332 49.7461 55.332C46.6797 55.332 44.1992 52.8516 44.1992 49.7852C44.1992 46.7188 46.6797 44.2383 49.7461 44.2383C52.832 44.2383 55.3125 46.7188 55.3125 49.7852Z" fill="black" fill-opacity="0.85"/>
  <path d="M55.3125 18.8867C55.3125 21.9531 52.832 24.4336 49.7461 24.4336C46.6797 24.4336 44.1992 21.9531 44.1992 18.8867C44.1992 15.8203 46.6797 13.3398 49.7461 13.3398C52.832 13.3398 55.3125 15.8203 55.3125 18.8867Z" fill="black" fill-opacity="0.85"/>
  <path d="M18.8281 24.4336C21.8945 24.4336 24.375 21.9531 24.375 18.8867C24.375 15.8203 21.8945 13.3398 18.8281 13.3398C15.7422 13.3398 13.2617 15.8203 13.2617 18.8867C13.2617 21.9531 15.7422 24.4336 18.8281 24.4336Z" fill="black" fill-opacity="0.85"/>
 </g>
</svg>
