<?xml version="1.0" encoding="UTF-8"?>
<!--Generator: Apple Native CoreSVG 326-->
<!DOCTYPE svg
PUBLIC "-//W3C//DTD SVG 1.1//EN"
       "http://www.w3.org/Graphics/SVG/1.1/DTD/svg11.dtd">
<svg version="1.1" xmlns="http://www.w3.org/2000/svg" xmlns:xlink="http://www.w3.org/1999/xlink" viewBox="0 0 60.5273 59.043">
 <g>
  <rect height="59.043" opacity="0" width="60.5273" x="0" y="0"/>
  <path d="M39.7086 12.2852L24.4922 12.2852C17.7148 12.2852 13.7695 16.1914 13.7695 22.9297L13.7695 40.229C6.19063 37.242 0.839844 29.854 0.839844 21.2109C0.839844 9.90234 10 0.742188 21.3086 0.742188C29.4121 0.742188 36.4125 5.44584 39.7086 12.2852Z" fill="black" fill-opacity="0.85"/>
  <path d="M24.4922 55.918L49.8047 55.918C54.8438 55.918 57.4023 53.3984 57.4023 48.3984L57.4023 22.9297C57.4023 17.9297 54.8438 15.4102 49.8047 15.4102L24.4922 15.4102C19.4336 15.4102 16.8945 17.9297 16.8945 22.9297L16.8945 48.3984C16.8945 53.3984 19.4336 55.918 24.4922 55.918Z" fill="black" fill-opacity="0.85"/>
 </g>
</svg>
