<?xml version="1.0" encoding="UTF-8"?>
<!--Generator: Apple Native CoreSVG 326-->
<!DOCTYPE svg
PUBLIC "-//W3C//DTD SVG 1.1//EN"
       "http://www.w3.org/Graphics/SVG/1.1/DTD/svg11.dtd">
<svg version="1.1" xmlns="http://www.w3.org/2000/svg" xmlns:xlink="http://www.w3.org/1999/xlink" viewBox="0 0 54.0625 51.8555">
 <g>
  <rect height="51.8555" opacity="0" width="54.0625" x="0" y="0"/>
  <path d="M43.1445 51.7188L49.1992 51.7188C52.168 51.7188 53.6914 50.2539 53.6914 47.1484L53.6914 41.25C53.6914 38.1445 52.168 36.6992 49.1992 36.6992L43.1445 36.6992C40.1758 36.6992 38.6523 38.1445 38.6523 41.25L38.6523 47.1484C38.6523 50.2539 40.1758 51.7188 43.1445 51.7188ZM43.1836 48.6523C42.1875 48.6523 41.7188 48.1836 41.7188 47.1484L41.7188 41.2891C41.7188 40.2344 42.1875 39.7656 43.1836 39.7656L49.1406 39.7656C50.1562 39.7656 50.625 40.2344 50.625 41.2891L50.625 47.1484C50.625 48.1836 50.1562 48.6523 49.1406 48.6523Z" fill="black" fill-opacity="0.85"/>
  <path d="M23.8477 51.7188L29.9023 51.7188C32.8711 51.7188 34.375 50.2539 34.375 47.1484L34.375 41.25C34.375 38.1445 32.8711 36.6992 29.9023 36.6992L23.8477 36.6992C20.8594 36.6992 19.3555 38.1445 19.3555 41.25L19.3555 47.1484C19.3555 50.2539 20.8594 51.7188 23.8477 51.7188ZM23.9062 48.6523C22.8711 48.6523 22.4219 48.1836 22.4219 47.1484L22.4219 41.2891C22.4219 40.2344 22.8711 39.7656 23.9062 39.7656L29.8438 39.7656C30.8594 39.7656 31.3086 40.2344 31.3086 41.2891L31.3086 47.1484C31.3086 48.1836 30.8594 48.6523 29.8438 48.6523Z" fill="black" fill-opacity="0.85"/>
  <path d="M4.53125 51.7188L10.5859 51.7188C13.5547 51.7188 15.0781 50.2539 15.0781 47.1484L15.0781 41.25C15.0781 38.1445 13.5547 36.6992 10.5859 36.6992L4.53125 36.6992C1.5625 36.6992 0.0585938 38.1445 0.0585938 41.25L0.0585938 47.1484C0.0585938 50.2539 1.5625 51.7188 4.53125 51.7188ZM4.58984 48.6523C3.57422 48.6523 3.10547 48.1836 3.10547 47.1484L3.10547 41.2891C3.10547 40.2344 3.57422 39.7656 4.58984 39.7656L10.5273 39.7656C11.5234 39.7656 12.0117 40.2344 12.0117 41.2891L12.0117 47.1484C12.0117 48.1836 11.5234 48.6523 10.5273 48.6523Z" fill="black" fill-opacity="0.85"/>
  <path d="M1.50391 31.5039L52.168 31.5039C53.0664 31.5039 53.6914 30.8203 53.6914 29.8633C53.6914 28.9258 53.0664 28.2422 52.168 28.2422L1.50391 28.2422C0.625 28.2422 0 28.9258 0 29.8633C0 30.8203 0.625 31.5039 1.50391 31.5039Z" fill="black" fill-opacity="0.85"/>
  <path d="M43.0859 23.4766L49.1602 23.4766C52.1289 23.4766 53.6328 22.0312 53.6328 18.9258L53.6328 13.0273C53.6328 9.92188 52.1289 8.45703 49.1602 8.45703L43.0859 8.45703C40.1172 8.45703 38.6133 9.92188 38.6133 13.0273L38.6133 18.9258C38.6133 22.0312 40.1172 23.4766 43.0859 23.4766ZM43.1445 20.4102C42.1289 20.4102 41.6797 19.9414 41.6797 18.8867L41.6797 13.0273C41.6797 11.9922 42.1289 11.5234 43.1445 11.5234L49.082 11.5234C50.1172 11.5234 50.5664 11.9922 50.5664 13.0273L50.5664 18.8867C50.5664 19.9414 50.1172 20.4102 49.082 20.4102Z" fill="black" fill-opacity="0.85"/>
  <path d="M23.7891 23.4766L29.8438 23.4766C32.8125 23.4766 34.3359 22.0312 34.3359 18.9258L34.3359 13.0273C34.3359 9.92188 32.8125 8.45703 29.8438 8.45703L23.7891 8.45703C20.8203 8.45703 19.2969 9.92188 19.2969 13.0273L19.2969 18.9258C19.2969 22.0312 20.8203 23.4766 23.7891 23.4766ZM23.8477 20.4102C22.832 20.4102 22.3633 19.9414 22.3633 18.8867L22.3633 13.0273C22.3633 11.9922 22.832 11.5234 23.8477 11.5234L29.8047 11.5234C30.8008 11.5234 31.2695 11.9922 31.2695 13.0273L31.2695 18.8867C31.2695 19.9414 30.8008 20.4102 29.8047 20.4102Z" fill="black" fill-opacity="0.85"/>
  <path d="M4.49219 23.4766L10.5469 23.4766C13.5156 23.4766 15.0195 22.0312 15.0195 18.9258L15.0195 13.0273C15.0195 9.92188 13.5156 8.45703 10.5469 8.45703L4.49219 8.45703C1.52344 8.45703 0 9.92188 0 13.0273L0 18.9258C0 22.0312 1.52344 23.4766 4.49219 23.4766ZM4.53125 20.4102C3.53516 20.4102 3.06641 19.9414 3.06641 18.8867L3.06641 13.0273C3.06641 11.9922 3.53516 11.5234 4.53125 11.5234L10.4688 11.5234C11.4844 11.5234 11.9531 11.9922 11.9531 13.0273L11.9531 18.8867C11.9531 19.9414 11.4844 20.4102 10.4688 20.4102Z" fill="black" fill-opacity="0.85"/>
  <path d="M1.50391 3.26172L52.168 3.26172C53.0664 3.26172 53.6914 2.57812 53.6914 1.62109C53.6914 0.683594 53.0664 0 52.168 0L1.50391 0C0.625 0 0 0.683594 0 1.62109C0 2.57812 0.625 3.26172 1.50391 3.26172Z" fill="black" fill-opacity="0.85"/>
 </g>
</svg>
