<?xml version="1.0" encoding="UTF-8"?>
<!--Generator: Apple Native CoreSVG 326-->
<!DOCTYPE svg
PUBLIC "-//W3C//DTD SVG 1.1//EN"
       "http://www.w3.org/Graphics/SVG/1.1/DTD/svg11.dtd">
<svg version="1.1" xmlns="http://www.w3.org/2000/svg" xmlns:xlink="http://www.w3.org/1999/xlink" viewBox="0 0 46.0938 45.7617">
 <g>
  <rect height="45.7617" opacity="0" width="46.0938" x="0" y="0"/>
  <path d="M9.04297 34.7461C9.04297 35.8594 9.76562 36.5625 10.8594 36.5625L34.8828 36.5625C35.9766 36.5625 36.6992 35.8594 36.6992 34.7461L36.6992 10.9766C36.6992 9.88281 35.9766 9.16016 34.8828 9.16016L10.8594 9.16016C9.76562 9.16016 9.04297 9.88281 9.04297 10.9766ZM12.5 32.4219L12.5 13.3008C12.5 12.8125 12.6953 12.6172 13.1836 12.6172L32.5586 12.6172C33.0469 12.6172 33.2422 12.8125 33.2422 13.3008L33.2422 32.4219C33.2422 32.9102 33.0469 33.1055 32.5586 33.1055L13.1836 33.1055C12.6953 33.1055 12.5 32.9102 12.5 32.4219Z" fill="black" fill-opacity="0.85"/>
  <path d="M1.85547 45.7617C2.87109 45.7617 3.71094 44.9219 3.71094 43.9062C3.71094 42.8711 2.87109 42.0508 1.85547 42.0508C0.820312 42.0508 0 42.8711 0 43.9062C0 44.9219 0.820312 45.7617 1.85547 45.7617ZM1.85547 38.7109C2.87109 38.7109 3.71094 37.8906 3.71094 36.8555C3.71094 35.8398 2.87109 35 1.85547 35C0.820312 35 0 35.8398 0 36.8555C0 37.8906 0.820312 38.7109 1.85547 38.7109ZM1.85547 31.7383C2.87109 31.7383 3.71094 30.8984 3.71094 29.8828C3.71094 28.8477 2.87109 28.0273 1.85547 28.0273C0.820312 28.0273 0 28.8477 0 29.8828C0 30.8984 0.820312 31.7383 1.85547 31.7383ZM1.85547 24.707C2.87109 24.707 3.71094 23.8867 3.71094 22.8711C3.71094 21.8359 2.87109 21.0156 1.85547 21.0156C0.820312 21.0156 0 21.8359 0 22.8711C0 23.8867 0.820312 24.707 1.85547 24.707ZM1.85547 17.6953C2.87109 17.6953 3.71094 16.875 3.71094 15.8594C3.71094 14.8242 2.87109 14.0039 1.85547 14.0039C0.820312 14.0039 0 14.8242 0 15.8594C0 16.875 0.820312 17.6953 1.85547 17.6953ZM1.85547 10.7617C2.87109 10.7617 3.71094 9.92188 3.71094 8.90625C3.71094 7.87109 2.87109 7.05078 1.85547 7.05078C0.820312 7.05078 0 7.87109 0 8.90625C0 9.92188 0.820312 10.7617 1.85547 10.7617ZM1.85547 3.75C2.87109 3.75 3.71094 2.91016 3.71094 1.89453C3.71094 0.859375 2.87109 0.0390625 1.85547 0.0390625C0.820312 0.0390625 0 0.859375 0 1.89453C0 2.91016 0.820312 3.75 1.85547 3.75ZM8.86719 3.75C9.88281 3.75 10.7227 2.91016 10.7227 1.89453C10.7227 0.859375 9.88281 0.0390625 8.86719 0.0390625C7.83203 0.0390625 7.01172 0.859375 7.01172 1.89453C7.01172 2.91016 7.83203 3.75 8.86719 3.75ZM15.8398 3.75C16.875 3.75 17.6953 2.91016 17.6953 1.89453C17.6953 0.859375 16.875 0.0390625 15.8398 0.0390625C14.8242 0.0390625 13.9844 0.859375 13.9844 1.89453C13.9844 2.91016 14.8242 3.75 15.8398 3.75ZM22.8516 3.75C23.8867 3.75 24.707 2.91016 24.707 1.89453C24.707 0.859375 23.8867 0.0390625 22.8516 0.0390625C21.8359 0.0390625 20.9961 0.859375 20.9961 1.89453C20.9961 2.91016 21.8359 3.75 22.8516 3.75ZM29.8633 3.75C30.8984 3.75 31.7188 2.91016 31.7188 1.89453C31.7188 0.859375 30.8984 0.0390625 29.8633 0.0390625C28.8477 0.0390625 28.0273 0.859375 28.0273 1.89453C28.0273 2.91016 28.8477 3.75 29.8633 3.75ZM36.8555 3.75C37.8711 3.75 38.7109 2.91016 38.7109 1.89453C38.7109 0.859375 37.8711 0.0390625 36.8555 0.0390625C35.8203 0.0390625 35 0.859375 35 1.89453C35 2.91016 35.8203 3.75 36.8555 3.75ZM43.8672 3.75C44.8828 3.75 45.7227 2.91016 45.7227 1.89453C45.7227 0.859375 44.8828 0.0390625 43.8672 0.0390625C42.832 0.0390625 42.0117 0.859375 42.0117 1.89453C42.0117 2.91016 42.832 3.75 43.8672 3.75ZM43.8672 10.7812C44.8828 10.7812 45.7227 9.94141 45.7227 8.92578C45.7227 7.89062 44.8828 7.07031 43.8672 7.07031C42.832 7.07031 42.0117 7.89062 42.0117 8.92578C42.0117 9.94141 42.832 10.7812 43.8672 10.7812ZM43.8672 17.7148C44.8828 17.7148 45.7227 16.8945 45.7227 15.8789C45.7227 14.8438 44.8828 14.0234 43.8672 14.0234C42.832 14.0234 42.0117 14.8438 42.0117 15.8789C42.0117 16.8945 42.832 17.7148 43.8672 17.7148ZM43.8672 24.7266C44.8828 24.7266 45.7227 23.9062 45.7227 22.8906C45.7227 21.8555 44.8828 21.0352 43.8672 21.0352C42.832 21.0352 42.0117 21.8555 42.0117 22.8906C42.0117 23.9062 42.832 24.7266 43.8672 24.7266ZM43.8672 31.7578C44.8828 31.7578 45.7227 30.918 45.7227 29.9023C45.7227 28.8672 44.8828 28.0469 43.8672 28.0469C42.832 28.0469 42.0117 28.8672 42.0117 29.9023C42.0117 30.918 42.832 31.7578 43.8672 31.7578ZM43.8672 38.7305C44.8828 38.7305 45.7227 37.9102 45.7227 36.875C45.7227 35.8594 44.8828 35.0195 43.8672 35.0195C42.832 35.0195 42.0117 35.8594 42.0117 36.875C42.0117 37.9102 42.832 38.7305 43.8672 38.7305ZM43.8672 45.7617C44.8828 45.7617 45.7227 44.9219 45.7227 43.9062C45.7227 42.8711 44.8828 42.0508 43.8672 42.0508C42.832 42.0508 42.0117 42.8711 42.0117 43.9062C42.0117 44.9219 42.832 45.7617 43.8672 45.7617ZM36.8555 45.7617C37.8711 45.7617 38.7109 44.9219 38.7109 43.9062C38.7109 42.8711 37.8711 42.0508 36.8555 42.0508C35.8203 42.0508 35 42.8711 35 43.9062C35 44.9219 35.8203 45.7617 36.8555 45.7617ZM29.8633 45.7617C30.8984 45.7617 31.7188 44.9219 31.7188 43.9062C31.7188 42.8711 30.8984 42.0508 29.8633 42.0508C28.8477 42.0508 28.0273 42.8711 28.0273 43.9062C28.0273 44.9219 28.8477 45.7617 29.8633 45.7617ZM22.8516 45.7617C23.8867 45.7617 24.707 44.9219 24.707 43.9062C24.707 42.8711 23.8867 42.0508 22.8516 42.0508C21.8359 42.0508 20.9961 42.8711 20.9961 43.9062C20.9961 44.9219 21.8359 45.7617 22.8516 45.7617ZM15.8398 45.7617C16.875 45.7617 17.6953 44.9219 17.6953 43.9062C17.6953 42.8711 16.875 42.0508 15.8398 42.0508C14.8242 42.0508 13.9844 42.8711 13.9844 43.9062C13.9844 44.9219 14.8242 45.7617 15.8398 45.7617ZM8.86719 45.7617C9.88281 45.7617 10.7227 44.9219 10.7227 43.9062C10.7227 42.8711 9.88281 42.0508 8.86719 42.0508C7.83203 42.0508 7.01172 42.8711 7.01172 43.9062C7.01172 44.9219 7.83203 45.7617 8.86719 45.7617Z" fill="black" fill-opacity="0.85"/>
 </g>
</svg>
