<?xml version="1.0" encoding="UTF-8"?>
<!--Generator: Apple Native CoreSVG 326-->
<!DOCTYPE svg
PUBLIC "-//W3C//DTD SVG 1.1//EN"
       "http://www.w3.org/Graphics/SVG/1.1/DTD/svg11.dtd">
<svg version="1.1" xmlns="http://www.w3.org/2000/svg" xmlns:xlink="http://www.w3.org/1999/xlink" viewBox="0 0 55.6756 56.3477">
 <g>
  <rect height="56.3477" opacity="0" width="55.6756" x="0" y="0"/>
  <path d="M10.6014 52.4219C11.5194 53.1055 12.6718 52.8906 14.0585 51.875L27.6522 41.9141L41.2264 51.875C42.6327 52.8906 43.7655 53.1055 44.703 52.4219C45.6014 51.7383 45.8163 50.6055 45.2499 48.9648L39.9179 32.9883L53.6093 23.1445C55.0155 22.1484 55.5429 21.1133 55.1913 20.0195C54.8397 18.9453 53.8046 18.418 52.0663 18.418L35.2499 18.418L30.1327 2.46094C29.5858 0.820312 28.785 0 27.6522 0C26.4999 0 25.6991 0.820312 25.1718 2.46094L20.035 18.418L3.21863 18.418C1.48035 18.418 0.464729 18.9453 0.113166 20.0195C-0.257928 21.1133 0.288947 22.1484 1.67567 23.1445L15.3671 32.9883L10.035 48.9648C9.48817 50.6055 9.70301 51.7383 10.6014 52.4219Z" fill="black" fill-opacity="0.85"/>
 </g>
</svg>
