<?xml version="1.0" encoding="UTF-8"?>
<!--Generator: Apple Native CoreSVG 326-->
<!DOCTYPE svg
PUBLIC "-//W3C//DTD SVG 1.1//EN"
       "http://www.w3.org/Graphics/SVG/1.1/DTD/svg11.dtd">
<svg version="1.1" xmlns="http://www.w3.org/2000/svg" xmlns:xlink="http://www.w3.org/1999/xlink" viewBox="0 0 41.6211 51.7383">
 <g>
  <rect height="51.7383" opacity="0" width="41.6211" x="0" y="0"/>
  <path d="M20.625 51.7383C21.0742 51.7383 21.7188 51.5625 22.3047 51.2109C36.5039 43.1055 41.25 39.9023 41.25 31.0547L41.25 11.8359C41.25 9.16016 40.1953 8.30078 37.9492 7.36328C34.5898 6.01562 26.0352 2.87109 22.6758 1.71875C22.0117 1.48438 21.3086 1.32812 20.625 1.32812C19.9414 1.32812 19.2578 1.52344 18.5938 1.71875C15.2344 2.77344 6.66016 6.03516 3.30078 7.36328C1.05469 8.26172 0 9.16016 0 11.8359L0 31.0547C0 39.9023 4.80469 43.0273 18.9453 51.2109C19.5508 51.5625 20.1953 51.7383 20.625 51.7383ZM20.625 47.8906C20.2148 47.8906 19.7656 47.6953 19.1211 47.2852C7.44141 40.0977 3.41797 38.0078 3.41797 30.3125L3.41797 12.5C3.41797 11.3867 3.63281 10.957 4.49219 10.625C8.00781 9.21875 15.9766 6.44531 19.4922 5.05859C19.9414 4.88281 20.332 4.78516 20.625 4.78516C20.918 4.78516 21.3086 4.88281 21.7578 5.05859C25.293 6.44531 33.1836 9.35547 36.7773 10.625C37.6172 10.9375 37.832 11.3867 37.832 12.5L37.832 30.3125C37.832 38.0078 33.7891 40.0586 22.1289 47.2852C21.4844 47.6953 21.0352 47.8906 20.625 47.8906Z" fill="black" fill-opacity="0.85"/>
  <path d="M9.12109 18.7695C8.37891 20.2539 8.57422 20.957 9.94141 21.6797L16.3672 25.1758L9.90234 28.9062C8.53516 29.707 8.33984 30.3906 9.16016 31.8555L9.21875 31.9531C10.0195 33.4375 10.7422 33.6328 12.1289 32.7734L18.3398 29.1992L18.3398 36.3672C18.3398 38.0078 18.8672 38.5156 20.5664 38.5156L20.7422 38.5156C22.4023 38.5156 22.9297 38.0078 22.9297 36.3672L22.9297 29.1992L29.1406 32.7734C30.6055 33.6719 31.2891 33.457 32.0508 31.9531L32.1094 31.8555C32.8516 30.3711 32.6953 29.6875 31.3672 28.9062L24.9023 25.1758L31.3281 21.6797C32.7148 20.9375 32.8906 20.2344 32.1484 18.7695L32.0508 18.6133C31.3281 17.0898 30.6055 16.8945 29.1016 17.793L22.9297 21.3672L22.9297 14.1797C22.9297 12.5977 22.4023 12.0898 20.7422 12.0898L20.5664 12.0898C18.8672 12.0898 18.3398 12.5977 18.3398 14.1797L18.3398 21.3672L12.168 17.793C10.6836 16.9141 9.96094 17.0898 9.21875 18.6133Z" fill="black" fill-opacity="0.85"/>
 </g>
</svg>
