<?xml version="1.0" encoding="UTF-8"?>
<!--Generator: Apple Native CoreSVG 326-->
<!DOCTYPE svg
PUBLIC "-//W3C//DTD SVG 1.1//EN"
       "http://www.w3.org/Graphics/SVG/1.1/DTD/svg11.dtd">
<svg version="1.1" xmlns="http://www.w3.org/2000/svg" xmlns:xlink="http://www.w3.org/1999/xlink" viewBox="0 0 29.3945 46.4258">
 <g>
  <rect height="46.4258" opacity="0" width="29.3945" x="0" y="0"/>
  <path d="M2.87109 46.4258L27.0508 46.4258C28.1641 46.4258 28.9844 45.7227 28.9844 44.6289C28.9844 43.5352 28.1641 42.8125 27.0508 42.8125L4.49219 42.8125L4.49219 42.6367L18.7891 24.8047C19.3555 24.1211 19.6484 23.457 19.6484 22.7734C19.6484 22.0703 19.3359 21.3477 18.7695 20.7031L4.53125 3.78906L4.53125 3.61328L27.0898 3.61328C28.2031 3.61328 29.0234 2.89062 29.0234 1.79688C29.0234 0.703125 28.2031 0 27.0898 0L2.92969 0C1.09375 0 0.0585938 1.28906 0.0585938 2.71484C0.0585938 3.4375 0.332031 4.19922 0.878906 4.84375L15.8984 22.6367L15.8984 22.8516L0.820312 41.582C0.273438 42.2266 0 42.9883 0 43.7305C0 45.1367 1.03516 46.4258 2.87109 46.4258Z" fill="black" fill-opacity="0.85"/>
 </g>
</svg>
