<?xml version="1.0" encoding="UTF-8"?>
<!--Generator: Apple Native CoreSVG 326-->
<!DOCTYPE svg
PUBLIC "-//W3C//DTD SVG 1.1//EN"
       "http://www.w3.org/Graphics/SVG/1.1/DTD/svg11.dtd">
<svg version="1.1" xmlns="http://www.w3.org/2000/svg" xmlns:xlink="http://www.w3.org/1999/xlink" viewBox="0 0 51.25 50.918">
 <g>
  <rect height="50.918" opacity="0" width="51.25" x="0" y="0"/>
  <path d="M25.4297 50.8789C39.4727 50.8789 50.8789 39.4922 50.8789 25.4492C50.8789 11.4062 39.4727 0 25.4297 0C11.3867 0 0 11.4062 0 25.4492C0 39.4922 11.3867 50.8789 25.4297 50.8789ZM25.4297 47.2461C13.3789 47.2461 3.63281 37.5 3.63281 25.4492C3.63281 13.3984 13.3789 3.65234 25.4297 3.65234C37.4805 3.65234 47.2266 13.3984 47.2266 25.4492C47.2266 37.5 37.4805 47.2461 25.4297 47.2461Z" fill="black" fill-opacity="0.85"/>
  <path d="M10.957 29.1602L14.6484 29.1602C15.4297 29.1602 15.9961 28.6328 15.9961 27.9102C15.9961 27.2266 15.4102 26.6797 14.6484 26.6797L10.957 26.6797C10.2148 26.6797 9.64844 27.2461 9.64844 27.9102C9.64844 28.5938 10.2148 29.1602 10.957 29.1602ZM16.9727 21.543C17.4609 22.0508 18.2617 22.0898 18.75 21.6016C19.2773 21.0938 19.1992 20.293 18.6914 19.7852L16.0547 17.1484C15.5078 16.582 14.7266 16.6797 14.2578 17.1289C13.7891 17.6367 13.7891 18.3789 14.3359 18.9062ZM32.0898 21.6016C32.5781 22.0703 33.3594 22.0703 33.8867 21.543L36.4844 18.9062C37.0312 18.3789 37.0508 17.6367 36.582 17.1289C36.0938 16.6406 35.3125 16.6016 34.7852 17.1484L32.1289 19.7852C31.6016 20.3125 31.582 21.0938 32.0898 21.6016ZM36.1719 29.1602L39.8633 29.1602C40.625 29.1602 41.1914 28.6133 41.1914 27.9102C41.1914 27.2461 40.625 26.6797 39.8633 26.6797L36.1719 26.6797C35.4102 26.6797 34.8242 27.2266 34.8242 27.9102C34.8242 28.6133 35.4492 29.1602 36.1719 29.1602ZM32.9102 28.2617C32.9102 24.1406 29.5312 20.7422 25.4102 20.7422C21.3086 20.7422 17.9297 24.1406 17.9297 28.2617C17.9297 29.1602 18.125 30.0391 18.457 30.8594L32.3633 30.8594C32.6953 30.0391 32.9102 29.1602 32.9102 28.2617ZM10.9375 35.0195L39.8828 35.0195C40.5664 35.0195 41.1914 34.4922 41.1914 33.7891C41.1914 33.0859 40.5859 32.5977 39.8828 32.5977L10.9375 32.5977C10.2539 32.5977 9.64844 33.1055 9.64844 33.7891C9.64844 34.4922 10.2734 35.0195 10.9375 35.0195ZM26.6406 16.6211L26.6406 12.9297C26.6406 12.1484 26.0938 11.6211 25.4102 11.6211C24.7266 11.6211 24.1797 12.1484 24.1797 12.9297L24.1797 16.6211C24.1797 17.3828 24.7266 17.9883 25.4102 17.9883C26.1133 17.9883 26.6406 17.3438 26.6406 16.6211Z" fill="black" fill-opacity="0.85"/>
 </g>
</svg>
