<?xml version="1.0" encoding="UTF-8"?>
<!--Generator: Apple Native CoreSVG 326-->
<!DOCTYPE svg
PUBLIC "-//W3C//DTD SVG 1.1//EN"
       "http://www.w3.org/Graphics/SVG/1.1/DTD/svg11.dtd">
<svg version="1.1" xmlns="http://www.w3.org/2000/svg" xmlns:xlink="http://www.w3.org/1999/xlink" viewBox="0 0 51.25 50.918">
 <g>
  <rect height="50.918" opacity="0" width="51.25" x="0" y="0"/>
  <path d="M50.8789 25.4688C50.8789 39.4922 39.4531 50.918 25.4297 50.918C11.4258 50.918 0 39.4922 0 25.4688C0 11.4648 11.4258 0.0390625 25.4297 0.0390625C39.4531 0.0390625 50.8789 11.4648 50.8789 25.4688ZM12.7344 36.9141C12.2461 36.9141 11.875 37.2656 11.875 37.7539C11.875 38.2617 12.2461 38.6133 12.7344 38.6133L40.7031 38.6133C41.2109 38.6133 41.5625 38.2617 41.5625 37.7539C41.5625 37.2461 41.2109 36.9141 40.7031 36.9141ZM10.1172 33.418C9.62891 33.418 9.25781 33.7891 9.25781 34.2578C9.25781 34.7656 9.62891 35.1367 10.1172 35.1367L38.1055 35.1367C38.5938 35.1367 38.9648 34.7656 38.9648 34.2578C38.9648 33.7891 38.5938 33.418 38.1055 33.418ZM12.7344 29.9414C12.2461 29.9414 11.875 30.3125 11.875 30.8008C11.875 31.3086 12.2461 31.6406 12.7344 31.6406L40.7031 31.6406C41.2109 31.6406 41.5625 31.3086 41.5625 30.8008C41.5625 30.293 41.2109 29.9414 40.7031 29.9414ZM17.7539 25.5078C17.7539 26.4453 17.9492 27.3438 18.2812 28.1641L32.5391 28.1641C32.8711 27.3438 33.0859 26.4453 33.0859 25.5078C33.0859 21.2891 29.6289 17.832 25.4102 17.832C21.2109 17.832 17.7539 21.2891 17.7539 25.5078ZM10.625 23.9062C9.84375 23.9062 9.25781 24.4922 9.25781 25.1758C9.25781 25.8789 9.84375 26.4453 10.625 26.4453L14.375 26.4453C15.1953 26.4453 15.7812 25.918 15.7812 25.1758C15.7812 24.4531 15.1758 23.9062 14.375 23.9062ZM36.4453 23.9062C35.6445 23.9062 35.0391 24.4531 35.0391 25.1758C35.0391 25.8984 35.6836 26.4453 36.4453 26.4453L40.2148 26.4453C40.9961 26.4453 41.5625 25.8984 41.5625 25.1758C41.5625 24.4727 40.9961 23.9062 40.2148 23.9062ZM13.9648 14.1016C13.4961 14.6094 13.5156 15.3711 14.082 15.957L16.7383 18.6328C17.2852 19.1602 18.0859 19.2188 18.5938 18.7109C19.1211 18.1836 19.0625 17.3633 18.5352 16.8359L15.8203 14.1406C15.2539 13.5742 14.4531 13.6328 13.9648 14.1016ZM35 14.1406L32.3047 16.8359C31.7383 17.3828 31.7188 18.1836 32.2461 18.7109C32.7539 19.1992 33.5547 19.1797 34.1016 18.6328L36.7383 15.957C37.3047 15.3711 37.3242 14.6289 36.8555 14.1016C36.3477 13.6133 35.5273 13.5938 35 14.1406ZM24.1406 9.84375L24.1406 13.5938C24.1406 14.375 24.707 15 25.4102 15C26.1328 15 26.6797 14.3555 26.6797 13.5938L26.6797 9.84375C26.6797 9.04297 26.1133 8.47656 25.4102 8.47656C24.707 8.47656 24.1406 9.04297 24.1406 9.84375Z" fill="black" fill-opacity="0.85"/>
 </g>
</svg>
