<?xml version="1.0" encoding="UTF-8"?>
<!--Generator: Apple Native CoreSVG 326-->
<!DOCTYPE svg
PUBLIC "-//W3C//DTD SVG 1.1//EN"
       "http://www.w3.org/Graphics/SVG/1.1/DTD/svg11.dtd">
<svg version="1.1" xmlns="http://www.w3.org/2000/svg" xmlns:xlink="http://www.w3.org/1999/xlink" viewBox="0 0 50.2344 60.918">
 <g>
  <rect height="60.918" opacity="0" width="50.2344" x="0" y="0"/>
  <path d="M30.9766 46.3281L37.5977 46.3281C42.1875 46.3281 44.2188 44.0625 44.2188 38.9844L44.2188 26.7578C44.2188 23.2812 42.9492 19.5117 40.8203 16.3281L39.5508 14.4531C36.5039 9.94141 32.5391 8.125 26.2305 8.125L4.29688 8.125C2.73438 8.125 1.32812 8.16406 0 8.18359L0 11.6797C1.30859 11.6406 2.71484 11.6016 4.29688 11.6016L26.2305 11.6016C31.2695 11.6016 34.2773 13.0664 36.6406 16.4453L37.9297 18.2812C39.7461 20.8594 40.7422 23.9453 40.7422 26.7578L40.7422 39.2188C40.7422 41.6211 39.668 42.8711 37.4023 42.8711L30.9766 42.8711ZM0.0195312 46.3281L17.1094 46.3281L17.1094 42.8711L0.0195312 42.8711ZM24.1797 52.7539C29.3555 52.7539 33.3789 48.7305 33.3789 43.5352C33.3789 38.3594 29.3555 34.3555 24.1797 34.3555C18.9844 34.3555 14.9609 38.3594 14.9609 43.5352C14.9609 48.7305 18.9844 52.7539 24.1797 52.7539ZM24.1797 49.2578C20.9375 49.2578 18.4375 46.7578 18.4375 43.5352C18.4375 40.332 20.9375 37.8125 24.1797 37.8125C27.3828 37.8125 29.9023 40.332 29.9023 43.5352C29.9023 46.7578 27.3828 49.2578 24.1797 49.2578ZM30.8594 10.1953L33.3984 12.2266L41.4062 3.94531C41.9727 3.35938 42.6172 3.125 43.418 3.125L48.2617 3.125C49.2383 3.125 49.8633 2.48047 49.8633 1.54297C49.8633 0.625 49.2383 0 48.2617 0L43.7695 0C41.7969 0 40.1953 0.566406 38.8867 1.91406Z" fill="black" fill-opacity="0.85"/>
 </g>
</svg>
