<?xml version="1.0" encoding="UTF-8"?>
<!--Generator: Apple Native CoreSVG 326-->
<!DOCTYPE svg
PUBLIC "-//W3C//DTD SVG 1.1//EN"
       "http://www.w3.org/Graphics/SVG/1.1/DTD/svg11.dtd">
<svg version="1.1" xmlns="http://www.w3.org/2000/svg" xmlns:xlink="http://www.w3.org/1999/xlink" viewBox="0 0 57.1487 56.2012">
 <g>
  <rect height="56.2012" opacity="0" width="57.1487" x="0" y="0"/>
  <path d="M0.468864 55.7275C1.03527 56.2939 1.97277 56.2744 2.55871 55.6885L13.4376 44.8096L11.3282 42.7197L0.468864 53.5986C-0.136604 54.1846-0.175667 55.1416 0.468864 55.7275ZM9.21886 42.29L13.9845 46.9971C16.4454 49.4385 19.8048 49.3799 22.3634 46.8213L48.7696 20.415L46.3282 17.9541L19.8829 44.3994C18.8087 45.4932 17.3634 45.4541 16.2306 44.3408L11.8751 39.9854C10.7618 38.8916 10.7618 37.4463 11.8556 36.333L38.2814 9.92676L35.8204 7.46582L9.41418 33.8916C6.81652 36.5088 6.75793 39.8486 9.21886 42.29ZM13.2618 31.0791L19.3751 37.2314C19.8243 37.6611 20.4689 37.6416 20.8986 37.2119C21.2892 36.8018 21.2696 36.1182 20.879 35.7275L14.7462 29.6143ZM18.5157 25.8838L24.629 31.9971C25.0587 32.4072 25.7032 32.4072 26.1329 31.9971C26.5236 31.5869 26.504 30.9229 26.1134 30.5127L19.9806 24.3799ZM23.7501 20.6104L29.8634 26.7627C30.2931 27.1533 30.9376 27.1729 31.3673 26.7627C31.7775 26.333 31.7775 25.6885 31.3478 25.2393L25.2345 19.1455ZM28.9845 15.3955L35.0978 21.5283C35.5275 21.9385 36.172 21.9385 36.5821 21.5283C37.0118 21.1377 36.9923 20.4346 36.5821 20.0244L30.4689 13.9111ZM31.9142 6.05957L50.1954 24.3408C50.879 25.0244 51.9728 25.0244 52.6368 24.3408C53.3204 23.6768 53.3204 22.5635 52.6368 21.8994L34.3751 3.61816C33.672 2.91504 32.5978 2.9541 31.9142 3.61816C31.2501 4.30176 31.2111 5.35645 31.9142 6.05957ZM36.3673 6.93848L49.2775 19.9072L51.1525 18.0127C51.8361 17.3486 51.8556 16.2549 51.172 15.5908L47.2462 11.6846L50.7618 8.18848L53.8282 11.2744C54.5118 11.9385 55.6251 11.9385 56.2696 11.2744C56.9532 10.6104 56.9532 9.49707 56.2696 8.81348L47.9689 0.512695C47.2853-0.170898 46.1915-0.170898 45.5079 0.512695C44.8439 1.15723 44.8439 2.27051 45.5079 2.9541L48.5939 6.04004L45.1173 9.5166L40.6642 5.08301C40.0196 4.43848 38.9064 4.41895 38.2228 5.08301Z" fill="black" fill-opacity="0.85"/>
 </g>
</svg>
