<?xml version="1.0" encoding="UTF-8"?>
<!--Generator: Apple Native CoreSVG 326-->
<!DOCTYPE svg
PUBLIC "-//W3C//DTD SVG 1.1//EN"
       "http://www.w3.org/Graphics/SVG/1.1/DTD/svg11.dtd">
<svg version="1.1" xmlns="http://www.w3.org/2000/svg" xmlns:xlink="http://www.w3.org/1999/xlink" viewBox="0 0 51.25 50.918">
 <g>
  <rect height="50.918" opacity="0" width="51.25" x="0" y="0"/>
  <path d="M25.4297 50.8789C39.4727 50.8789 50.8789 39.4922 50.8789 25.4492C50.8789 11.4062 39.4727 0 25.4297 0C11.3867 0 0 11.4062 0 25.4492C0 39.4922 11.3867 50.8789 25.4297 50.8789ZM25.4297 47.2461C13.3789 47.2461 3.63281 37.5 3.63281 25.4492C3.63281 13.3984 13.3789 3.65234 25.4297 3.65234C37.4805 3.65234 47.2266 13.3984 47.2266 25.4492C47.2266 37.5 37.4805 47.2461 25.4297 47.2461Z" fill="black" fill-opacity="0.85"/>
  <path d="M25.332 37.0117C26.4453 37.0117 27.0703 36.2695 27.0703 35.0977L27.0703 16.8164L33.5547 16.8164C34.3945 16.8164 35.0195 16.25 35.0195 15.3711C35.0195 14.4727 34.3945 13.9453 33.5547 13.9453L17.2461 13.9453C16.4062 13.9453 15.7812 14.4727 15.7812 15.3711C15.7812 16.25 16.4062 16.8164 17.2461 16.8164L23.6133 16.8164L23.6133 35.0977C23.6133 36.2305 24.2188 37.0117 25.332 37.0117Z" fill="black" fill-opacity="0.85"/>
 </g>
</svg>
