<?xml version="1.0" encoding="UTF-8"?>
<!--Generator: Apple Native CoreSVG 326-->
<!DOCTYPE svg
PUBLIC "-//W3C//DTD SVG 1.1//EN"
       "http://www.w3.org/Graphics/SVG/1.1/DTD/svg11.dtd">
<svg version="1.1" xmlns="http://www.w3.org/2000/svg" xmlns:xlink="http://www.w3.org/1999/xlink" viewBox="0 0 51.25 50.918">
 <g>
  <rect height="50.918" opacity="0" width="51.25" x="0" y="0"/>
  <path d="M25.4297 50.8789C39.4727 50.8789 50.8789 39.4922 50.8789 25.4492C50.8789 11.4062 39.4727 0 25.4297 0C11.3867 0 0 11.4062 0 25.4492C0 39.4922 11.3867 50.8789 25.4297 50.8789ZM25.4297 47.2461C13.3789 47.2461 3.63281 37.5 3.63281 25.4492C3.63281 13.3984 13.3789 3.65234 25.4297 3.65234C37.4805 3.65234 47.2266 13.3984 47.2266 25.4492C47.2266 37.5 37.4805 47.2461 25.4297 47.2461Z" fill="black" fill-opacity="0.85"/>
  <path d="M20.5273 38.5938C21.8945 39.9805 23.2812 40 24.7266 38.5742L37.1289 26.25C38.0664 25.3516 38.7109 24.707 38.7109 23.2422L38.7109 18.4375C38.7109 17.3438 38.418 16.7188 37.6758 15.9766L35.4492 13.7695C34.707 13.0469 34.082 12.5977 32.9688 12.5977L28.0469 12.5977C26.6016 12.5977 25.9375 13.2617 25.0195 14.1797L12.7148 26.582C11.3086 28.0078 11.3281 29.375 12.6953 30.7422ZM30.1172 21.1719C29.4531 20.5273 29.4531 19.4336 30.1172 18.7305C30.7617 18.0664 31.875 18.0664 32.5391 18.7305C33.2227 19.3945 33.2031 20.4688 32.5195 21.1523C31.8555 21.8555 30.7812 21.8359 30.1172 21.1719Z" fill="black" fill-opacity="0.85"/>
 </g>
</svg>
