<?xml version="1.0" encoding="UTF-8"?>
<!--Generator: Apple Native CoreSVG 326-->
<!DOCTYPE svg
PUBLIC "-//W3C//DTD SVG 1.1//EN"
       "http://www.w3.org/Graphics/SVG/1.1/DTD/svg11.dtd">
<svg version="1.1" xmlns="http://www.w3.org/2000/svg" xmlns:xlink="http://www.w3.org/1999/xlink" viewBox="0 0 51.25 50.918">
 <g>
  <rect height="50.918" opacity="0" width="51.25" x="0" y="0"/>
  <path d="M25.4297 50.8789C39.4727 50.8789 50.8789 39.4922 50.8789 25.4492C50.8789 11.4062 39.4727 0 25.4297 0C11.3867 0 0 11.4062 0 25.4492C0 39.4922 11.3867 50.8789 25.4297 50.8789ZM25.4297 47.2461C13.3789 47.2461 3.63281 37.5 3.63281 25.4492C3.63281 13.3984 13.3789 3.65234 25.4297 3.65234C37.4805 3.65234 47.2266 13.3984 47.2266 25.4492C47.2266 37.5 37.4805 47.2461 25.4297 47.2461Z" fill="black" fill-opacity="0.85"/>
  <path d="M25.4297 41.4258C34.2578 41.4258 41.4062 34.2773 41.4062 25.4492C41.4062 16.6406 34.2578 9.47266 25.4297 9.47266C16.6211 9.47266 9.45312 16.6406 9.45312 25.4492C9.45312 34.2773 16.6211 41.4258 25.4297 41.4258ZM25.4297 37.9688C18.5156 37.9688 12.9297 32.3828 12.9297 25.4492C12.9297 18.5352 18.5156 12.9492 25.4297 12.9492C32.3633 12.9492 37.9492 18.5352 37.9492 25.4492C37.9492 32.3828 32.3633 37.9688 25.4297 37.9688Z" fill="black" fill-opacity="0.85"/>
  <path d="M25.4297 32.168C29.1602 32.168 32.168 29.1602 32.168 25.4297C32.168 21.7188 29.1602 18.7109 25.4297 18.7109C21.7188 18.7109 18.7109 21.7188 18.7109 25.4297C18.7109 29.1602 21.7188 32.168 25.4297 32.168Z" fill="black" fill-opacity="0.85"/>
 </g>
</svg>
