<?xml version="1.0" encoding="UTF-8"?>
<!--Generator: Apple Native CoreSVG 326-->
<!DOCTYPE svg
PUBLIC "-//W3C//DTD SVG 1.1//EN"
       "http://www.w3.org/Graphics/SVG/1.1/DTD/svg11.dtd">
<svg version="1.1" xmlns="http://www.w3.org/2000/svg" xmlns:xlink="http://www.w3.org/1999/xlink" viewBox="0 0 34.7656 45.8789">
 <g>
  <rect height="45.8789" opacity="0" width="34.7656" x="0" y="0"/>
  <path d="M17.2656 45.8203C18.5547 45.8203 19.375 44.9805 19.375 43.6328L19.375 12.7344L32.5781 12.7344C33.6719 12.7344 34.3945 12.0312 34.3945 10.957C34.3945 9.92188 33.6719 9.23828 32.5781 9.23828L1.91406 9.23828C0.820312 9.23828 0.0976562 9.92188 0.0976562 10.957C0.0976562 12.0312 0.820312 12.7344 1.91406 12.7344L15.1367 12.7344L15.1367 43.6328C15.1367 44.9805 15.9766 45.8203 17.2656 45.8203ZM0 1.42578C0 2.26562 0.605469 2.85156 1.44531 2.85156L32.9688 2.85156C33.7891 2.85156 34.3945 2.24609 34.3945 1.42578C34.3945 0.625 33.7891 0 32.9688 0L1.44531 0C0.605469 0 0 0.625 0 1.42578Z" fill="black" fill-opacity="0.85"/>
 </g>
</svg>
