<?xml version="1.0" encoding="UTF-8"?>
<!--Generator: Apple Native CoreSVG 326-->
<!DOCTYPE svg
PUBLIC "-//W3C//DTD SVG 1.1//EN"
       "http://www.w3.org/Graphics/SVG/1.1/DTD/svg11.dtd">
<svg version="1.1" xmlns="http://www.w3.org/2000/svg" xmlns:xlink="http://www.w3.org/1999/xlink" viewBox="0 0 47.3242 37.4023">
 <g>
  <rect height="37.4023" opacity="0" width="47.3242" x="0" y="0"/>
  <path d="M23.8867 36.8359L45.1758 36.8359C46.2695 36.8359 46.9531 36.1523 46.9531 35.1172C46.9531 34.082 46.2695 33.3984 45.1758 33.3984L27.4023 33.3984L27.4023 33.2812L37.7344 22.9297C43.7109 16.9727 45.5664 14.0039 45.5664 10.1562C45.5664 4.41406 40.5469 0 33.8281 0C28.5938 0 24.1016 2.8125 22.5586 7.14844C22.2266 8.04688 22.0703 8.86719 22.0703 9.53125C22.0703 10.625 22.6953 11.3477 23.7695 11.3477C24.7656 11.3477 25.2148 10.8594 25.5273 9.78516C25.7031 8.98438 25.9375 8.22266 26.3477 7.55859C27.6758 5.07812 30.332 3.39844 33.8281 3.39844C38.1836 3.39844 41.6602 6.50391 41.6602 10.3711C41.6602 13.3594 40.332 15.4297 35.1758 20.6445L23.1836 32.8125C22.2852 33.7109 21.9922 34.2578 21.9922 35.0391C21.9922 36.1523 22.7539 36.8359 23.8867 36.8359Z" fill="black" fill-opacity="0.85"/>
  <path d="M12.4805 37.207C13.6719 37.207 14.4336 36.4648 14.4336 35.2734L14.4336 2.28516C14.4336 0.917969 13.5742 0.15625 12.2461 0.15625C11.2891 0.15625 10.7422 0.429688 9.84375 1.01562L1.11328 6.58203C0.292969 7.14844 0 7.63672 0 8.33984C0 9.23828 0.644531 9.88281 1.60156 9.88281C2.16797 9.88281 2.46094 9.72656 2.85156 9.47266L10.5078 4.70703L10.5859 4.70703L10.5859 35.2734C10.5859 36.4648 11.3086 37.207 12.4805 37.207Z" fill="black" fill-opacity="0.85"/>
 </g>
</svg>
