<?xml version="1.0" encoding="UTF-8"?>
<!--Generator: Apple Native CoreSVG 326-->
<!DOCTYPE svg
PUBLIC "-//W3C//DTD SVG 1.1//EN"
       "http://www.w3.org/Graphics/SVG/1.1/DTD/svg11.dtd">
<svg version="1.1" xmlns="http://www.w3.org/2000/svg" xmlns:xlink="http://www.w3.org/1999/xlink" viewBox="0 0 50.6055 43.0664">
 <g>
  <rect height="43.0664" opacity="0" width="50.6055" x="0" y="0"/>
  <path d="M33.6523 3.45703L48.4766 3.45703C49.4531 3.45703 50.2344 2.71484 50.2344 1.73828C50.2344 0.761719 49.4531 0 48.4766 0L33.6523 0C32.6758 0 31.9141 0.761719 31.9141 1.73828C31.9141 2.71484 32.6758 3.45703 33.6523 3.45703ZM33.6523 16.6602L48.4766 16.6602C49.4531 16.6602 50.2344 15.8984 50.2344 14.9219C50.2344 13.9453 49.4531 13.1836 48.4766 13.1836L33.6523 13.1836C32.6758 13.1836 31.9141 13.9453 31.9141 14.9219C31.9141 15.8984 32.6758 16.6602 33.6523 16.6602ZM1.73828 29.8438L48.4766 29.8438C49.4531 29.8438 50.2344 29.082 50.2344 28.1055C50.2344 27.1289 49.4531 26.3867 48.4766 26.3867L1.73828 26.3867C0.742188 26.3867 0 27.1289 0 28.1055C0 29.082 0.742188 29.8438 1.73828 29.8438ZM1.73828 43.0273L48.4766 43.0273C49.4531 43.0273 50.2344 42.2852 50.2344 41.3086C50.2344 40.3125 49.4531 39.5703 48.4766 39.5703L1.73828 39.5703C0.742188 39.5703 0 40.3125 0 41.3086C0 42.2852 0.742188 43.0273 1.73828 43.0273Z" fill="black" fill-opacity="0.85"/>
  <path d="M6.75781 18.3203C9.86328 18.3203 12.4414 16.1133 12.4414 12.832C12.4414 9.72656 10.2734 7.59766 7.26562 7.59766C5.11719 7.59766 3.57422 8.82812 3.06641 10.9961L3.45703 11.0352C3.65234 6.34766 6.79688 3.18359 10.9961 3.02734C11.8555 2.98828 12.4805 2.38281 12.4805 1.54297C12.4805 0.546875 11.6602 0 10.5664 0C4.96094 0 0.136719 4.78516 0.136719 10.9375C0.136719 15.4102 3.00781 18.3203 6.75781 18.3203ZM21.7969 18.3203C24.9219 18.3203 27.5 16.1133 27.5 12.832C27.5 9.72656 25.3516 7.59766 22.3242 7.59766C20.1758 7.59766 18.6133 8.82812 18.1445 10.9961L18.5352 11.0352C18.7305 6.34766 21.8555 3.16406 26.0352 3.02734C26.9141 2.98828 27.5391 2.38281 27.5391 1.54297C27.5391 0.546875 26.7383 0 25.625 0C20.0391 0 15.1953 4.78516 15.1953 10.9375C15.1953 15.4102 18.0664 18.3203 21.7969 18.3203Z" fill="black" fill-opacity="0.85"/>
 </g>
</svg>
