<?xml version="1.0" encoding="UTF-8"?>
<!--Generator: Apple Native CoreSVG 326-->
<!DOCTYPE svg
PUBLIC "-//W3C//DTD SVG 1.1//EN"
       "http://www.w3.org/Graphics/SVG/1.1/DTD/svg11.dtd">
<svg version="1.1" xmlns="http://www.w3.org/2000/svg" xmlns:xlink="http://www.w3.org/1999/xlink" viewBox="0 0 50.6055 43.0664">
 <g>
  <rect height="43.0664" opacity="0" width="50.6055" x="0" y="0"/>
  <path d="M1.73828 3.45703L30.1172 3.45703C31.0938 3.45703 31.875 2.71484 31.875 1.73828C31.875 0.761719 31.0938 0 30.1172 0L1.73828 0C0.742188 0 0 0.761719 0 1.73828C0 2.71484 0.742188 3.45703 1.73828 3.45703ZM37.207 3.45703L48.4766 3.45703C49.4531 3.45703 50.2344 2.71484 50.2344 1.73828C50.2344 0.761719 49.4531 0 48.4766 0L37.207 0C36.2305 0 35.4883 0.761719 35.4883 1.73828C35.4883 2.71484 36.2305 3.45703 37.207 3.45703ZM1.73828 16.6602L7.89062 16.6602C8.88672 16.6602 9.64844 15.8984 9.64844 14.9219C9.64844 13.9453 8.88672 13.1836 7.89062 13.1836L1.73828 13.1836C0.742188 13.1836 0 13.9453 0 14.9219C0 15.8984 0.742188 16.6602 1.73828 16.6602ZM15 16.6602L28.1836 16.6602C29.1602 16.6602 29.9414 15.8984 29.9414 14.9219C29.9414 13.9453 29.1602 13.1836 28.1836 13.1836L15 13.1836C14.0234 13.1836 13.2617 13.9453 13.2617 14.9219C13.2617 15.8984 14.0234 16.6602 15 16.6602ZM35.2734 16.6602L48.4766 16.6602C49.4531 16.6602 50.2344 15.8984 50.2344 14.9219C50.2344 13.9453 49.4531 13.1836 48.4766 13.1836L35.2734 13.1836C34.2969 13.1836 33.5547 13.9453 33.5547 14.9219C33.5547 15.8984 34.2969 16.6602 35.2734 16.6602ZM1.75781 29.7852L13.0078 29.7852C14.0039 29.7852 14.7461 29.0234 14.7461 28.0469C14.7461 27.0703 14.0039 26.3281 13.0078 26.3281L1.75781 26.3281C0.761719 26.3281 0 27.0703 0 28.0469C0 29.0234 0.761719 29.7852 1.75781 29.7852ZM20.1172 29.7852L48.4961 29.7852C49.4727 29.7852 50.2344 29.0234 50.2344 28.0469C50.2344 27.0703 49.4727 26.3281 48.4961 26.3281L20.1172 26.3281C19.1211 26.3281 18.3594 27.0703 18.3594 28.0469C18.3594 29.0234 19.1211 29.7852 20.1172 29.7852ZM1.73828 43.0273L27.9297 43.0273C28.9062 43.0273 29.6875 42.2852 29.6875 41.3086C29.6875 40.3125 28.9062 39.5703 27.9297 39.5703L1.73828 39.5703C0.742188 39.5703 0 40.3125 0 41.3086C0 42.2852 0.742188 43.0273 1.73828 43.0273Z" fill="black" fill-opacity="0.85"/>
 </g>
</svg>
