<?xml version="1.0" encoding="UTF-8"?>
<!--Generator: Apple Native CoreSVG 326-->
<!DOCTYPE svg
PUBLIC "-//W3C//DTD SVG 1.1//EN"
       "http://www.w3.org/Graphics/SVG/1.1/DTD/svg11.dtd">
<svg version="1.1" xmlns="http://www.w3.org/2000/svg" xmlns:xlink="http://www.w3.org/1999/xlink" viewBox="0 0 34.6875 59.4336">
 <g>
  <rect height="59.4336" opacity="0" width="34.6875" x="0" y="0"/>
  <path d="M2.08984 3.51562L32.2461 3.51562C33.1836 3.51562 33.9648 2.73438 33.9648 1.77734C33.9648 0.839844 33.1836 0.0585938 32.2461 0.0585938L2.08984 0.0585938C1.13281 0.0585938 0.351562 0.839844 0.351562 1.77734C0.351562 2.73438 1.13281 3.51562 2.08984 3.51562ZM31.2305 20.4492L32.1484 5.97656L2.16797 5.97656L3.10547 20.4688C6.60156 19.0039 11.5234 18.2227 17.168 18.2227C22.832 18.2227 27.7344 19.0039 31.2305 20.4492ZM17.168 33.1641C27.2266 33.1641 34.3164 30.5859 34.3164 26.9141C34.3164 23.2617 27.1094 20.7031 17.168 20.7031C7.24609 20.7031 0 23.2617 0 26.9141C0 30.5859 7.24609 33.1641 17.168 33.1641ZM17.168 29.5508C9.86328 29.5508 5.11719 28.4375 5.11719 26.9141C5.11719 25.4297 9.86328 24.3164 17.168 24.3164C24.4727 24.3164 29.1992 25.4297 29.1992 26.9141C29.1992 28.4375 24.4727 29.5508 17.168 29.5508ZM16.4258 44.4922L17.8906 44.4922C26.25 44.4922 32.5977 39.6875 34.043 31.6406C30.8203 34.1211 24.7656 35.5078 17.168 35.5078C9.64844 35.5078 3.53516 34.1211 0.273438 31.6211C1.67969 39.6875 8.06641 44.4922 16.4258 44.4922ZM17.168 59.4336C21.3281 59.4336 26.4648 58.3203 28.6914 56.1523C29.3555 55.5078 29.375 54.707 29.1016 53.7695L26.582 45.2344C23.9453 46.3672 20.9375 46.9727 17.9102 46.9727L16.3281 46.9727C13.3398 46.9727 10.3906 46.3867 7.75391 45.2734L5.23438 53.7695C4.96094 54.707 4.98047 55.5078 5.625 56.1523C7.87109 58.3203 13.0078 59.4336 17.168 59.4336Z" fill="black" fill-opacity="0.85"/>
 </g>
</svg>
