<?xml version="1.0" encoding="UTF-8"?>
<!--Generator: Apple Native CoreSVG 326-->
<!DOCTYPE svg
PUBLIC "-//W3C//DTD SVG 1.1//EN"
       "http://www.w3.org/Graphics/SVG/1.1/DTD/svg11.dtd">
<svg version="1.1" xmlns="http://www.w3.org/2000/svg" xmlns:xlink="http://www.w3.org/1999/xlink" viewBox="0 0 68.7891 39.4727">
 <g>
  <rect height="39.4727" opacity="0" width="68.7891" x="0" y="0"/>
  <path d="M0 32.1289C0 36.9922 2.48047 39.4727 7.42188 39.4727L56.1719 39.4727C64.1797 39.4727 68.418 34.6289 68.418 29.0039C68.418 25.6055 66.9727 21.9727 63.7891 18.8086L53.1641 8.28125C46.7188 1.91406 42.5586 0 34.9414 0L7.42188 0C2.48047 0 0 2.48047 0 7.34375ZM26.3086 20.0977L26.3086 10.4492C26.3086 9.00391 27.168 8.16406 28.6328 8.16406L35.9766 8.16406C42.7734 8.16406 46.2695 9.02344 49.9219 12.6562L56.1523 18.8477C57.6172 20.3125 56.7969 22.3438 55.1562 22.3438L28.6328 22.3438C27.168 22.3438 26.3086 21.5039 26.3086 20.0977Z" fill="black" fill-opacity="0.85"/>
 </g>
</svg>
