<?xml version="1.0" encoding="UTF-8"?>
<!--Generator: Apple Native CoreSVG 326-->
<!DOCTYPE svg
PUBLIC "-//W3C//DTD SVG 1.1//EN"
       "http://www.w3.org/Graphics/SVG/1.1/DTD/svg11.dtd">
<svg version="1.1" xmlns="http://www.w3.org/2000/svg" xmlns:xlink="http://www.w3.org/1999/xlink" viewBox="0 0 51.25 50.918">
 <g>
  <rect height="50.918" opacity="0" width="51.25" x="0" y="0"/>
  <path d="M50.8789 25.4688C50.8789 39.4922 39.4531 50.918 25.4297 50.918C11.4258 50.918 0 39.4922 0 25.4688C0 11.4648 11.4258 0.0390625 25.4297 0.0390625C39.4531 0.0390625 50.8789 11.4648 50.8789 25.4688ZM19.8633 10.4883C17.7539 10.7227 16.3281 12.207 15.8203 14.2383C15.3125 16.2891 14.8047 19.7461 14.8047 23.2812L14.8047 32.1094C14.8047 34.7266 16.2695 35.8984 18.9453 35.9375L16.2695 40.1953C15.9766 40.6836 16.2305 41.2109 16.7773 41.2109L17.4023 41.2109C17.7539 41.2109 17.9297 41.0938 18.0859 40.8203L18.8281 39.6484L32.0508 39.6484L32.8125 40.8203C32.9688 41.0938 33.1445 41.2109 33.4961 41.2109L34.1406 41.2109C34.668 41.2109 34.9023 40.6836 34.5898 40.1953L31.9531 35.9375C34.7852 35.8984 36.0547 34.4922 36.0547 32.1094L36.0547 23.2812C36.0547 19.7461 35.5469 16.2891 35.0391 14.2383C34.5312 12.207 33.1055 10.7227 30.9961 10.4883C30.0781 10.3711 27.9688 10.2148 25.4297 10.2148C22.9102 10.2148 20.8008 10.3711 19.8633 10.4883ZM30.9961 37.9102L19.9023 37.9102L21.1328 35.9375L29.7852 35.9375ZM32.9883 31.5625C32.9883 32.5195 32.2266 33.2422 31.3086 33.2422C30.3711 33.2422 29.6289 32.5195 29.6289 31.5625C29.6289 30.6055 30.3711 29.8633 31.3086 29.8633C32.2656 29.8633 32.9883 30.6055 32.9883 31.5625ZM21.2109 31.5625C21.2109 32.5391 20.4883 33.2227 19.5508 33.2227C18.5938 33.2227 17.8906 32.5391 17.8906 31.5625C17.8906 30.6055 18.5938 29.8828 19.5508 29.8828C20.5078 29.8828 21.2109 30.6055 21.2109 31.5625ZM31.7383 16.4648C32.3633 16.543 32.7539 16.9336 32.8711 17.5586C33.1055 18.6133 33.3789 20.6445 33.3789 23.1055L33.3789 26.0742C33.3789 26.8359 33.0078 27.3438 32.2461 27.4219C30.293 27.6367 27.7539 27.7344 25.4297 27.7344C22.5781 27.7148 20.0391 27.5781 18.6133 27.4219C17.8516 27.3438 17.4805 26.8359 17.4805 26.0742L17.4805 23.1055C17.4805 20.6445 17.7539 18.6133 17.9883 17.5586C18.1055 16.9336 18.4766 16.543 19.043 16.4648C20.5078 16.3086 22.2852 16.1914 25.4297 16.1914C28.5742 16.1719 30.3516 16.3086 31.7383 16.4648ZM29.4336 13.418C29.4336 13.8281 29.1211 14.1406 28.7109 14.1406L22.168 14.1406C21.7383 14.1406 21.4453 13.8281 21.4453 13.418C21.4453 12.9883 21.7383 12.7148 22.168 12.7148L28.7109 12.7148C29.1211 12.7148 29.4336 12.9883 29.4336 13.418Z" fill="black" fill-opacity="0.85"/>
 </g>
</svg>
