<?xml version="1.0" encoding="UTF-8"?>
<!--Generator: Apple Native CoreSVG 326-->
<!DOCTYPE svg
PUBLIC "-//W3C//DTD SVG 1.1//EN"
       "http://www.w3.org/Graphics/SVG/1.1/DTD/svg11.dtd">
<svg version="1.1" xmlns="http://www.w3.org/2000/svg" xmlns:xlink="http://www.w3.org/1999/xlink" viewBox="0 0 42.7344 62.2461">
 <g>
  <rect height="62.2461" opacity="0" width="42.7344" x="0" y="0"/>
  <path d="M7.40234 51.7383L34.9805 51.7383C39.8633 51.7383 42.3633 48.457 42.3633 44.1211L42.3633 26.5234C42.3633 19.4336 41.3867 12.5586 40.3516 8.47656C39.3359 4.39453 36.5234 1.42578 32.2852 0.957031C30.4297 0.742188 26.2109 0.410156 21.1914 0.410156C16.1523 0.410156 11.9336 0.742188 10.0781 0.957031C5.83984 1.42578 3.02734 4.39453 2.01172 8.47656C0.976562 12.5586 0 19.4336 0 26.5234L0 44.1211C0 48.457 2.5 51.7383 7.40234 51.7383ZM14.668 8.22266C13.7891 8.22266 13.2422 7.65625 13.2422 6.79688C13.2422 5.95703 13.7891 5.39062 14.668 5.39062L27.7148 5.39062C28.5742 5.39062 29.1211 5.95703 29.1211 6.79688C29.1211 7.65625 28.5742 8.22266 27.7148 8.22266ZM21.1914 35.3711C15.5078 35.332 10.4297 35.0977 7.59766 34.7656C6.01562 34.5898 5.33203 33.5742 5.33203 32.0898L5.33203 26.1523C5.33203 21.2695 5.85938 17.1875 6.32812 15.0781C6.58203 13.8867 7.30469 13.0469 8.45703 12.9102C11.3477 12.5781 14.9023 12.3828 21.1914 12.3633C27.4414 12.3438 30.9961 12.5781 33.7695 12.8906C35 13.0469 35.7617 13.8867 36.0352 15.0781C36.4844 17.1875 37.0117 21.2695 37.0117 26.1523L37.0117 32.0898C37.0117 33.5938 36.3281 34.6094 34.7461 34.7656C30.8789 35.1758 25.7812 35.3711 21.1914 35.3711ZM9.45312 46.3477C7.53906 46.3477 6.13281 44.9414 6.13281 43.0078C6.13281 41.0938 7.53906 39.6875 9.45312 39.6875C11.3867 39.6875 12.793 41.0938 12.793 43.0078C12.793 44.9414 11.3477 46.3477 9.45312 46.3477ZM32.9102 46.3672C30.9961 46.3672 29.5508 44.9219 29.5508 43.0078C29.5508 41.1133 30.9961 39.668 32.9102 39.668C34.8047 39.668 36.25 41.1133 36.25 43.0078C36.25 44.9219 34.7852 46.3672 32.9102 46.3672ZM3.88672 62.2461L5.19531 62.2461C5.83984 62.2461 6.19141 62.0508 6.54297 61.5039L13.3789 50.4883L9.02344 50.4883L2.91016 60.3125C2.30469 61.25 2.83203 62.2461 3.88672 62.2461ZM6.21094 59.1797L36.1914 59.1797L36.1914 55.7227L6.21094 55.7227ZM37.2461 62.2461L38.5547 62.2461C39.6094 62.2461 40.0586 61.2305 39.4922 60.3125L33.418 50.4883L29.0625 50.4883L35.8984 61.5039C36.2305 62.0508 36.582 62.2461 37.2461 62.2461Z" fill="black" fill-opacity="0.85"/>
 </g>
</svg>
