<?xml version="1.0" encoding="UTF-8"?>
<!--Generator: Apple Native CoreSVG 326-->
<!DOCTYPE svg
PUBLIC "-//W3C//DTD SVG 1.1//EN"
       "http://www.w3.org/Graphics/SVG/1.1/DTD/svg11.dtd">
<svg version="1.1" xmlns="http://www.w3.org/2000/svg" xmlns:xlink="http://www.w3.org/1999/xlink" viewBox="0 0 52.7344 47.6758">
 <g>
  <rect height="47.6758" opacity="0" width="52.7344" x="0" y="0"/>
  <path d="M0 40.8008C0 44.5117 2.59766 47.5 6.67969 47.5L45.6641 47.5C49.7461 47.5 52.3633 44.5117 52.3633 40.8008C52.3633 39.707 52.0703 38.5742 51.4648 37.5391L31.9336 3.37891C30.6836 1.15234 28.418 0 26.1719 0C23.9062 0 21.6797 1.15234 20.4297 3.37891L0.898438 37.5C0.292969 38.5547 0 39.707 0 40.8008ZM3.47656 40.8008C3.47656 40.293 3.61328 39.707 3.92578 39.1602L23.3984 5.01953C24.0234 3.92578 25.0781 3.4375 26.1719 3.4375L26.1719 44.1211L6.73828 44.1211C4.80469 44.1211 3.47656 42.5391 3.47656 40.8008Z" fill="black" fill-opacity="0.85"/>
 </g>
</svg>
