<?xml version="1.0" encoding="UTF-8"?>
<!--Generator: Apple Native CoreSVG 326-->
<!DOCTYPE svg
PUBLIC "-//W3C//DTD SVG 1.1//EN"
       "http://www.w3.org/Graphics/SVG/1.1/DTD/svg11.dtd">
<svg version="1.1" xmlns="http://www.w3.org/2000/svg" xmlns:xlink="http://www.w3.org/1999/xlink" viewBox="0 0 89.238 65.6827">
 <g>
  <rect height="65.6827" opacity="0" width="89.238" x="0" y="0"/>
  <path d="M21.3866 50.2925L23.7498 48.9253C23.3397 48.4956 22.9686 48.0269 22.6561 47.48C20.5077 43.7495 21.7772 39.0425 25.4881 36.8941C29.1991 34.7456 33.9256 36.0152 36.0741 39.7261C36.3866 40.273 36.6014 40.8394 36.7772 41.4058L60.8983 27.48C60.4881 27.0308 60.117 26.562 59.8045 26.0347C57.6756 22.3238 58.9452 17.5972 62.6366 15.4488C66.367 13.3003 71.0741 14.5698 73.2225 18.2808C73.535 18.8277 73.7498 19.3745 73.9256 19.9605L79.4725 16.7573C82.1678 15.1948 82.8123 12.6753 81.2108 9.90188L77.2264 3.02688C75.6444 0.253441 73.1444-0.449684 70.4491 1.11282L55.7225 9.60891L53.1444 6.13235C50.8592 3.04641 47.9881 2.44094 44.7069 4.33547L37.5584 8.45657C31.8358 11.7573 29.0428 14.4722 26.5819 19.1206L21.9334 27.8902L15.9178 32.6558C11.0155 36.523 9.90219 40.2534 12.285 44.3941L14.5897 48.3784C16.1913 51.1323 18.6913 51.855 21.3866 50.2925ZM32.1288 48.398C34.8045 46.855 35.703 43.5152 34.16 40.8394C32.617 38.1636 29.2577 37.2652 26.5819 38.8081C23.9256 40.3511 23.0272 43.7105 24.5702 46.3667C26.1131 49.0425 29.453 49.9409 32.1288 48.398ZM69.2772 26.9527C71.953 25.4097 72.8514 22.0503 71.3084 19.3941C69.7655 16.7183 66.4061 15.8198 63.7498 17.3628C61.0936 18.8863 60.1756 22.2652 61.7186 24.9214C63.2616 27.5972 66.6209 28.4956 69.2772 26.9527Z" fill="black" fill-opacity="0.85"/>
  <path d="M10.742 52.8511L5.74203 44.1792C4.98032 42.8316 3.43735 43.1441 2.9686 44.4722L0.136565 51.8745C-0.25406 52.8706 0.21469 53.6909 1.26938 53.8667L9.08188 55.1167C10.4686 55.3706 11.5233 54.1792 10.742 52.8511ZM15.703 64.8042C16.2108 65.6441 17.285 65.9175 18.0858 65.4683L88.0077 25.1363C88.8084 24.687 89.1209 23.6519 88.6522 22.8316C88.1444 21.9722 87.0702 21.6988 86.2694 22.148L16.3475 62.48C15.5467 62.9292 15.2538 64.0034 15.703 64.8042Z" fill="black" fill-opacity="0.85"/>
 </g>
</svg>
