<?xml version="1.0" encoding="UTF-8"?>
<!--Generator: Apple Native CoreSVG 326-->
<!DOCTYPE svg
PUBLIC "-//W3C//DTD SVG 1.1//EN"
       "http://www.w3.org/Graphics/SVG/1.1/DTD/svg11.dtd">
<svg version="1.1" xmlns="http://www.w3.org/2000/svg" xmlns:xlink="http://www.w3.org/1999/xlink" viewBox="0 0 73.1445 54.5898">
 <g>
  <rect height="54.5898" opacity="0" width="73.1445" x="0" y="0"/>
  <path d="M6.77734 47.4805L11.875 47.4805L11.875 44.0039L6.83594 44.0039C4.60938 44.0039 3.45703 42.8711 3.45703 40.625L3.45703 8.125C3.45703 5.89844 4.60938 4.74609 6.83594 4.74609L43.2617 4.74609C45.4492 4.74609 46.6406 5.89844 46.6406 8.125L46.6406 45.0586L50.0977 43.0859L50.0977 8.06641C50.0977 3.63281 47.7734 1.28906 43.3203 1.28906L6.77734 1.28906C2.32422 1.28906 0 3.61328 0 8.06641L0 40.7031C0 45.1367 2.32422 47.4805 6.77734 47.4805ZM48.1445 18.6914L56.875 18.6914C58.2422 18.6914 59.2188 18.9648 60.1953 20.0391L68.2617 29.1016C68.9844 29.8828 69.3164 30.918 69.3164 31.875L69.3164 40.625C69.3164 42.8711 68.1641 44.0039 65.9375 44.0039L62.207 44.0039L62.207 47.4805L66.0156 47.4805C70.4492 47.4805 72.7734 45.1367 72.7734 40.7031L72.7734 31.9531C72.7734 29.6875 72.3828 28.4961 71.0938 27.0508L62.5 17.3828C61.1133 15.8203 59.4727 15.2148 57.1289 15.2148L48.1445 15.2148ZM54.707 31.9922L66.3672 31.9922C66.3672 31.4062 66.1133 31.0547 65.7422 30.6445L58.2422 22.207C57.7148 21.6211 57.0508 21.25 56.2305 21.25L52.7344 21.25L52.7344 30.0195C52.7344 31.2305 53.4961 31.9922 54.707 31.9922ZM18.3984 54.5898C23.0664 54.5898 26.8555 50.8008 26.8555 46.1133C26.8555 41.4453 23.0664 37.6562 18.3984 37.6562C13.7305 37.6562 9.92188 41.4453 9.92188 46.1133C9.92188 50.8008 13.7305 54.5898 18.3984 54.5898ZM18.3984 51.6406C15.3516 51.6406 12.8711 49.1602 12.8711 46.1133C12.8711 43.0859 15.3516 40.6055 18.3984 40.6055C21.4258 40.6055 23.8867 43.0859 23.8867 46.1133C23.8867 49.1602 21.4258 51.6406 18.3984 51.6406ZM54.9219 54.5898C59.5898 54.5898 63.3789 50.8008 63.3789 46.1133C63.3789 41.4453 59.5898 37.6562 54.9219 37.6562C50.2539 37.6562 46.4453 41.4453 46.4453 46.1133C46.4453 50.8008 50.2539 54.5898 54.9219 54.5898ZM54.9219 51.6406C51.8945 51.6406 49.4141 49.1602 49.4141 46.1133C49.4141 43.0859 51.8945 40.6055 54.9219 40.6055C57.9297 40.6055 60.4102 43.0859 60.4102 46.1133C60.4102 49.1602 57.9688 51.6406 54.9219 51.6406ZM25.2344 47.4805L48.2812 47.4805L48.2812 44.0039L25.2344 44.0039Z" fill="black" fill-opacity="0.85"/>
 </g>
</svg>
