<?xml version="1.0" encoding="UTF-8"?>
<!--Generator: Apple Native CoreSVG 326-->
<!DOCTYPE svg
PUBLIC "-//W3C//DTD SVG 1.1//EN"
       "http://www.w3.org/Graphics/SVG/1.1/DTD/svg11.dtd">
<svg version="1.1" xmlns="http://www.w3.org/2000/svg" xmlns:xlink="http://www.w3.org/1999/xlink" viewBox="0 0 51.25 50.918">
 <g>
  <rect height="50.918" opacity="0" width="51.25" x="0" y="0"/>
  <path d="M50.8789 25.4688C50.8789 39.4922 39.4531 50.918 25.4297 50.918C11.4258 50.918 0 39.4922 0 25.4688C0 11.4648 11.4258 0.0390625 25.4297 0.0390625C39.4531 0.0390625 50.8789 11.4648 50.8789 25.4688ZM12.5586 12.5977C12.1484 13.0273 12.168 13.7109 12.5586 14.1016L36.8164 38.3398C37.207 38.75 37.9102 38.75 38.3203 38.3398C38.7305 37.8906 38.7305 37.2461 38.3203 36.8359L14.082 12.5977C13.6719 12.168 13.0078 12.168 12.5586 12.5977ZM10.7422 19.2188L10.7422 31.7383C10.7422 34.3164 12.2656 35.7812 14.8438 35.7812L28.4766 35.7812C29.5415 35.7812 30.4231 35.5313 31.0877 35.0526L12.0757 16.0406C11.2246 16.7241 10.7422 17.8038 10.7422 19.2188ZM38.9062 17.7734L33.9844 21.9336L33.9844 29.0234L38.9062 33.1641C39.3555 33.5547 39.8438 33.7695 40.293 33.7695C41.2305 33.7695 41.8555 33.1055 41.8555 32.0703L41.8555 18.8867C41.8555 17.8516 41.2305 17.1875 40.293 17.1875C39.8438 17.1875 39.3164 17.4219 38.9062 17.7734ZM19.0985 15.1758L32.5586 28.6467L32.5586 19.2188C32.5586 16.6406 31.1719 15.1758 28.5742 15.1758Z" fill="black" fill-opacity="0.85"/>
 </g>
</svg>
