<?xml version="1.0" encoding="UTF-8"?>
<!--Generator: Apple Native CoreSVG 326-->
<!DOCTYPE svg
PUBLIC "-//W3C//DTD SVG 1.1//EN"
       "http://www.w3.org/Graphics/SVG/1.1/DTD/svg11.dtd">
<svg version="1.1" xmlns="http://www.w3.org/2000/svg" xmlns:xlink="http://www.w3.org/1999/xlink" viewBox="0 0 70.8008 58.7842">
 <g>
  <rect height="58.7842" opacity="0" width="70.8008" x="0" y="0"/>
  <path d="M14.2216 14.6279C7.40348 16.6705 3.45703 20.8264 3.45703 29.148C3.45703 38.8159 8.49609 44.9683 16.0547 44.9683C24.7656 44.9683 28.3398 36.9409 35.2148 36.9409C35.705 36.9409 36.1783 36.9817 36.6343 37.0669L45.4616 45.9046C41.2761 43.5514 38.2263 40.398 35.2148 40.398C30.4102 40.398 25.5078 48.4253 16.0547 48.4253C6.89453 48.4253 0 40.105 0 29.148C0 19.6136 4.46115 14.5903 11.5987 12.0019ZM70.4297 29.148C70.4297 37.9547 65.9757 45.0581 59.4667 47.4969L56.7178 44.7448C62.9731 43.6066 66.9727 37.7779 66.9727 29.148C66.9727 14.2261 54.3164 12.7026 35.2148 12.7026C31.5456 12.7026 28.1141 12.7596 24.9707 12.9604L21.8218 9.80777C25.944 9.36397 30.4686 9.24562 35.2148 9.24562C54.6875 9.24562 70.4297 11.2183 70.4297 29.148Z" fill="black" fill-opacity="0.85"/>
  <path d="M58.9648 55.5737C59.6094 56.2183 60.6641 56.2183 61.3086 55.5737C61.9727 54.9097 61.9922 53.855 61.3477 53.2105L11.4453 3.26905C10.8008 2.62452 9.74609 2.60499 9.08203 3.26905C8.4375 3.91358 8.4375 4.9878 9.08203 5.63233Z" fill="black" fill-opacity="0.85"/>
 </g>
</svg>
