<?xml version="1.0" encoding="UTF-8"?>
<!--Generator: Apple Native CoreSVG 326-->
<!DOCTYPE svg
PUBLIC "-//W3C//DTD SVG 1.1//EN"
       "http://www.w3.org/Graphics/SVG/1.1/DTD/svg11.dtd">
<svg version="1.1" xmlns="http://www.w3.org/2000/svg" xmlns:xlink="http://www.w3.org/1999/xlink" viewBox="0 0 51.25 50.918">
 <g>
  <rect height="50.918" opacity="0" width="51.25" x="0" y="0"/>
  <path d="M25.4297 50.8789C39.4727 50.8789 50.8789 39.4922 50.8789 25.4492C50.8789 11.4062 39.4727 0 25.4297 0C11.3867 0 0 11.4062 0 25.4492C0 39.4922 11.3867 50.8789 25.4297 50.8789ZM25.4297 47.2461C13.3789 47.2461 3.63281 37.5 3.63281 25.4492C3.63281 13.3984 13.3789 3.65234 25.4297 3.65234C37.4805 3.65234 47.2266 13.3984 47.2266 25.4492C47.2266 37.5 37.4805 47.2461 25.4297 47.2461Z" fill="black" fill-opacity="0.85"/>
  <path d="M18.7305 37.1289C19.9219 37.1289 20.7031 36.543 20.9766 35.4102L25.293 18.7695L25.4688 18.7695L29.7852 35.4102C30.0586 36.543 30.8398 37.1289 32.0312 37.1289C33.2031 37.1289 33.9453 36.5234 34.2578 35.3711L39.2969 15.8984C39.3555 15.6445 39.375 15.4492 39.375 15.2344C39.375 14.2773 38.7305 13.6328 37.7148 13.6328C36.7188 13.6328 36.25 14.1016 35.9766 15.3125L31.9336 32.1875L31.7773 32.1875L27.3047 15.1367C27.0312 14.1602 26.4258 13.6914 25.3906 13.6914C24.3555 13.6914 23.7109 14.1602 23.457 15.1367L18.9844 32.1875L18.8281 32.1875L14.8242 15.3125C14.5508 14.1016 14.082 13.6328 13.0664 13.6328C12.0508 13.6328 11.4062 14.2773 11.4062 15.2344C11.4062 15.4492 11.4258 15.6445 11.5039 15.8984L16.5234 35.3711C16.8164 36.5234 17.5586 37.1289 18.7305 37.1289Z" fill="black" fill-opacity="0.85"/>
 </g>
</svg>
