<?xml version="1.0" encoding="UTF-8"?>
<!--Generator: Apple Native CoreSVG 326-->
<!DOCTYPE svg
PUBLIC "-//W3C//DTD SVG 1.1//EN"
       "http://www.w3.org/Graphics/SVG/1.1/DTD/svg11.dtd">
<svg version="1.1" xmlns="http://www.w3.org/2000/svg" xmlns:xlink="http://www.w3.org/1999/xlink" viewBox="0 0 51.25 50.918">
 <g>
  <rect height="50.918" opacity="0" width="51.25" x="0" y="0"/>
  <path d="M25.4297 50.8789C39.4727 50.8789 50.8789 39.4922 50.8789 25.4492C50.8789 11.4062 39.4727 0 25.4297 0C11.3867 0 0 11.4062 0 25.4492C0 39.4922 11.3867 50.8789 25.4297 50.8789ZM25.4297 47.2461C13.3789 47.2461 3.63281 37.5 3.63281 25.4492C3.63281 13.3984 13.3789 3.65234 25.4297 3.65234C37.4805 3.65234 47.2266 13.3984 47.2266 25.4492C47.2266 37.5 37.4805 47.2461 25.4297 47.2461Z" fill="black" fill-opacity="0.85"/>
  <path d="M38.1836 30.3711C38.9453 30.3711 39.5117 29.8047 39.5117 29.043L39.5117 21.7773C39.5117 21.0156 38.9453 20.4688 38.1836 20.4688C37.4219 20.4688 36.8555 21.0352 36.8555 21.7773L36.8555 29.043C36.8555 29.7852 37.4219 30.3711 38.1836 30.3711Z" fill="black" fill-opacity="0.85"/>
  <path d="M33.0664 35.8203C33.8281 35.8203 34.3945 35.2344 34.3945 34.4922L34.3945 16.3281C34.3945 15.5859 33.8281 15.0195 33.0664 15.0195C32.3242 15.0195 31.7383 15.5859 31.7383 16.3281L31.7383 34.4922C31.7383 35.2344 32.3242 35.8203 33.0664 35.8203Z" fill="black" fill-opacity="0.85"/>
  <path d="M27.9492 31.3867C28.7109 31.3867 29.2969 30.8203 29.2969 30.0781L29.2969 20.7422C29.2969 20 28.7109 19.4336 27.9492 19.4336C27.207 19.4336 26.6406 20 26.6406 20.7422L26.6406 30.0781C26.6406 30.8203 27.207 31.3867 27.9492 31.3867Z" fill="black" fill-opacity="0.85"/>
  <path d="M22.8516 39.6094C23.5938 39.6094 24.1797 39.043 24.1797 38.2812L24.1797 12.5586C24.1797 11.7969 23.5938 11.2109 22.8516 11.2109C22.0898 11.2109 21.5234 11.7969 21.5234 12.5586L21.5234 38.2812C21.5234 39.0625 22.0703 39.6094 22.8516 39.6094Z" fill="black" fill-opacity="0.85"/>
  <path d="M17.7539 33.7109C18.4961 33.7109 19.082 33.125 19.082 32.3633L19.082 18.4375C19.082 17.6953 18.4961 17.1289 17.7539 17.1289C16.9922 17.1289 16.4258 17.6953 16.4258 18.4375L16.4258 32.3633C16.4258 33.125 16.9922 33.7109 17.7539 33.7109Z" fill="black" fill-opacity="0.85"/>
  <path d="M12.6172 29.1211C13.3789 29.1211 13.9648 28.5352 13.9648 27.793L13.9648 23.0273C13.9648 22.2852 13.3789 21.7188 12.6172 21.7188C11.875 21.7188 11.3086 22.2852 11.3086 23.0273L11.3086 27.793C11.3086 28.5352 11.8945 29.1211 12.6172 29.1211Z" fill="black" fill-opacity="0.85"/>
 </g>
</svg>
