<?xml version="1.0" encoding="UTF-8"?>
<!--Generator: Apple Native CoreSVG 326-->
<!DOCTYPE svg
PUBLIC "-//W3C//DTD SVG 1.1//EN"
       "http://www.w3.org/Graphics/SVG/1.1/DTD/svg11.dtd">
<svg version="1.1" xmlns="http://www.w3.org/2000/svg" xmlns:xlink="http://www.w3.org/1999/xlink" viewBox="0 0 46.2891 45.918">
 <g>
  <rect height="45.918" opacity="0" width="46.2891" x="0" y="0"/>
  <path d="M7.59766 45.918L38.3008 45.918C43.3594 45.918 45.918 43.3594 45.918 38.3984L45.918 7.53906C45.918 2.55859 43.3594 0 38.3008 0L7.59766 0C2.55859 0 0 2.53906 0 7.53906L0 38.3984C0 43.3984 2.55859 45.918 7.59766 45.918ZM7.67578 42.4609C4.94141 42.4609 3.45703 41.0156 3.45703 38.2031L3.45703 7.71484C3.45703 4.92188 4.94141 3.45703 7.67578 3.45703L38.2422 3.45703C40.918 3.45703 42.4609 4.92188 42.4609 7.71484L42.4609 38.2031C42.4609 41.0156 40.918 42.4609 38.2422 42.4609Z" fill="black" fill-opacity="0.85"/>
  <path d="M15.5469 34.4336C16.25 34.4336 16.6211 34.1797 17.168 33.4375L22.832 25.2539L22.9297 25.2539L28.5742 33.4375C29.1016 34.1797 29.4922 34.4336 30.1953 34.4336C31.1523 34.4336 31.8555 33.7695 31.8555 32.8516C31.8555 32.4219 31.7383 32.0898 31.4648 31.7188L25.0391 22.7539L31.5234 13.75C31.8164 13.3594 31.9336 13.0078 31.9336 12.6172C31.9336 11.7578 31.2305 11.1133 30.3125 11.1133C29.6289 11.1133 29.1992 11.3477 28.7305 12.0703L23.2227 20.2539L23.1055 20.2539L17.5 12.0508C17.0117 11.3477 16.6016 11.1133 15.8594 11.1133C14.9414 11.1133 14.1797 11.8164 14.1797 12.6953C14.1797 13.1641 14.3164 13.4766 14.6484 13.9453L20.8398 22.6562L14.3359 31.8164C14.0625 32.2266 13.9453 32.5 13.9453 32.9492C13.9453 33.7695 14.6484 34.4336 15.5469 34.4336Z" fill="black" fill-opacity="0.85"/>
 </g>
</svg>
