<?xml version="1.0" encoding="UTF-8"?>
<!--Generator: Apple Native CoreSVG 326-->
<!DOCTYPE svg
PUBLIC "-//W3C//DTD SVG 1.1//EN"
       "http://www.w3.org/Graphics/SVG/1.1/DTD/svg11.dtd">
<svg version="1.1" xmlns="http://www.w3.org/2000/svg" xmlns:xlink="http://www.w3.org/1999/xlink" viewBox="0 0 51.3867 49.3164">
 <g>
  <rect height="49.3164" opacity="0" width="51.3867" x="0" y="0"/>
  <path d="M39.5117 3.00781L49.0039 13.3789C50.6055 15.1367 51.0156 16.2891 51.0156 18.7695L51.0156 30.5273C51.0156 33.0078 50.6055 34.1797 49.0039 35.918L39.5117 46.2891C37.7734 48.1641 36.3281 49.2969 32.8516 49.2969L18.1641 49.2969C14.6875 49.2969 13.2422 48.1641 11.5234 46.2891L2.01172 35.918C0.410156 34.1797 0 33.0078 0 30.5273L0 18.7695C0 16.2891 0.410156 15.1367 2.01172 13.3789L11.5234 3.00781C13.2422 1.15234 14.6875 0 18.1641 0L32.8516 0C36.3281 0 37.7734 1.15234 39.5117 3.00781ZM32.793 14.9414L25.5273 22.168L18.3008 14.9609C17.9297 14.6094 17.5586 14.4336 17.0312 14.4336C16.0547 14.4336 15.2539 15.1953 15.2539 16.1914C15.2539 16.6797 15.4297 17.1094 15.7812 17.4609L22.9883 24.668L15.7812 31.875C15.4297 32.2266 15.2539 32.6758 15.2539 33.1445C15.2539 34.1602 16.0547 34.9609 17.0312 34.9609C17.5586 34.9609 17.9883 34.7656 18.3594 34.4141L25.5273 27.207L32.7148 34.4141C33.0469 34.7656 33.5156 34.9609 34.0039 34.9609C35.0195 34.9609 35.8203 34.1602 35.8203 33.1445C35.8203 32.6562 35.6445 32.207 35.2734 31.8555L28.0664 24.668L35.293 17.4414C35.6836 17.0508 35.8398 16.6602 35.8398 16.1523C35.8398 15.1758 35.0391 14.3945 34.043 14.3945C33.5742 14.3945 33.1641 14.5508 32.793 14.9414Z" fill="black" fill-opacity="0.85"/>
 </g>
</svg>
