<?xml version="1.0" encoding="UTF-8"?>
<!--Generator: Apple Native CoreSVG 326-->
<!DOCTYPE svg
PUBLIC "-//W3C//DTD SVG 1.1//EN"
       "http://www.w3.org/Graphics/SVG/1.1/DTD/svg11.dtd">
<svg version="1.1" xmlns="http://www.w3.org/2000/svg" xmlns:xlink="http://www.w3.org/1999/xlink" viewBox="0 0 59.5508 35.1758">
 <g>
  <rect height="35.1758" opacity="0" width="59.5508" x="0" y="0"/>
  <path d="M7.59766 35.1758L51.5625 35.1758C56.6016 35.1758 59.1797 32.6367 59.1797 27.6367L59.1797 19.5508C59.1797 16.4844 58.4375 14.5312 56.6016 12.6562L47.793 3.51562C45.4297 1.07422 43.457 0.0390625 40.293 0.0390625L18.8867 0.0390625C15.7227 0.0390625 13.7305 1.07422 11.3672 3.51562L2.57812 12.6562C0.742188 14.5312 0 16.4844 0 19.5508L0 27.6367C0 32.6367 2.55859 35.1758 7.59766 35.1758ZM7.67578 31.6992C4.94141 31.6992 3.45703 30.2539 3.45703 27.4609L3.45703 21.9922C3.45703 20.5859 4.08203 19.9414 5.46875 19.9414L53.7109 19.9414C55.0781 19.9414 55.7031 20.5859 55.7031 21.9922L55.7031 27.4609C55.7031 30.2539 54.2188 31.6992 51.5039 31.6992ZM5.21484 16.7969C4.375 16.7969 4.17969 16.0547 4.64844 15.5273L14.2578 5.37109C15.8008 3.71094 16.9336 3.18359 18.9844 3.18359L40.1758 3.18359C42.2461 3.18359 43.3594 3.71094 44.9219 5.37109L54.5117 15.5273C55 16.0547 54.7852 16.7969 53.9453 16.7969ZM9.41406 28.2812C10.7812 28.2812 11.9141 27.1484 11.9141 25.7617C11.9141 24.3945 10.7812 23.2617 9.41406 23.2617C8.02734 23.2617 6.89453 24.3945 6.89453 25.7617C6.89453 27.1484 8.02734 28.2812 9.41406 28.2812ZM16.3281 29.082C17.0703 29.082 17.6758 28.5156 17.6758 27.793L17.6758 23.8672C17.6758 23.1445 17.0703 22.5781 16.3281 22.5781C15.6055 22.5781 15.0586 23.1445 15.0586 23.8672L15.0586 27.793C15.0586 28.5156 15.6055 29.082 16.3281 29.082ZM21.1328 29.082C21.8555 29.082 22.4805 28.5156 22.4805 27.793L22.4805 23.8672C22.4805 23.1445 21.8555 22.5781 21.1328 22.5781C20.4102 22.5781 19.8633 23.1445 19.8633 23.8672L19.8633 27.793C19.8633 28.5156 20.4102 29.082 21.1328 29.082ZM26.543 27.3438C27.4023 27.3438 28.125 26.6406 28.125 25.7617C28.125 24.9023 27.4023 24.1992 26.543 24.1992C25.6836 24.1992 24.9805 24.9023 24.9805 25.7617C24.9805 26.6406 25.6836 27.3438 26.543 27.3438ZM31.9727 29.082C32.6953 29.082 33.2422 28.5156 33.2422 27.793L33.2422 23.8672C33.2422 23.1445 32.6953 22.5781 31.9727 22.5781C31.25 22.5781 30.625 23.1445 30.625 23.8672L30.625 27.793C30.625 28.5156 31.25 29.082 31.9727 29.082ZM36.7773 29.082C37.5 29.082 38.0469 28.5156 38.0469 27.793L38.0469 23.8672C38.0469 23.1445 37.5 22.5781 36.7773 22.5781C36.0547 22.5781 35.4297 23.1445 35.4297 23.8672L35.4297 27.793C35.4297 28.5156 36.0547 29.082 36.7773 29.082ZM42.6367 27.1484L51.2891 27.1484C52.0117 27.1484 52.5781 26.5234 52.5781 25.8008C52.5781 25.0781 52.0117 24.5312 51.2891 24.5312L42.6367 24.5312C41.9141 24.5312 41.3477 25.0781 41.3477 25.8008C41.3477 26.5234 41.9141 27.1484 42.6367 27.1484Z" fill="black" fill-opacity="0.85"/>
 </g>
</svg>
