<?xml version="1.0" encoding="UTF-8"?>
<!--Generator: Apple Native CoreSVG 326-->
<!DOCTYPE svg
PUBLIC "-//W3C//DTD SVG 1.1//EN"
       "http://www.w3.org/Graphics/SVG/1.1/DTD/svg11.dtd">
<svg version="1.1" xmlns="http://www.w3.org/2000/svg" xmlns:xlink="http://www.w3.org/1999/xlink" viewBox="0 0 46.2891 45.918">
 <g>
  <rect height="45.918" opacity="0" width="46.2891" x="0" y="0"/>
  <path d="M7.59766 45.918L38.3008 45.918C43.3594 45.918 45.918 43.3594 45.918 38.3984L45.918 7.53906C45.918 2.55859 43.3594 0 38.3008 0L7.59766 0C2.55859 0 0 2.53906 0 7.53906L0 38.3984C0 43.3984 2.55859 45.918 7.59766 45.918ZM7.67578 42.4609C4.94141 42.4609 3.45703 41.0156 3.45703 38.2031L3.45703 7.71484C3.45703 4.92188 4.94141 3.45703 7.67578 3.45703L38.2422 3.45703C40.918 3.45703 42.4609 4.92188 42.4609 7.71484L42.4609 38.2031C42.4609 41.0156 40.918 42.4609 38.2422 42.4609Z" fill="black" fill-opacity="0.85"/>
  <path d="M22.9688 34.8242C28.1445 34.8242 31.6406 30.0391 31.6406 22.9492C31.6406 15.8398 28.1445 11.0742 22.9688 11.0742C17.793 11.0742 14.3164 15.8398 14.3164 22.9492C14.3164 30.0391 17.793 34.8242 22.9688 34.8242ZM22.9688 32.0117C19.7852 32.0117 17.6367 28.3594 17.6367 22.9492C17.6367 17.5195 19.7852 13.8867 22.9688 13.8867C26.1523 13.8867 28.3008 17.5195 28.3008 22.9492C28.3008 28.3594 26.1523 32.0117 22.9688 32.0117Z" fill="black" fill-opacity="0.85"/>
 </g>
</svg>
