<?xml version="1.0" encoding="UTF-8"?>
<!--Generator: Apple Native CoreSVG 326-->
<!DOCTYPE svg
PUBLIC "-//W3C//DTD SVG 1.1//EN"
       "http://www.w3.org/Graphics/SVG/1.1/DTD/svg11.dtd">
<svg version="1.1" xmlns="http://www.w3.org/2000/svg" xmlns:xlink="http://www.w3.org/1999/xlink" viewBox="0 0 51.25 50.918">
 <g>
  <rect height="50.918" opacity="0" width="51.25" x="0" y="0"/>
  <path d="M50.8789 25.4492C50.8789 39.4531 39.4531 50.8789 25.4297 50.8789C11.4258 50.8789 0 39.4531 0 25.4492C0 11.4258 11.4258 0 25.4297 0C39.4531 0 50.8789 11.4258 50.8789 25.4492ZM10.9375 25.4492C10.9375 30.4883 12.3828 36.3867 17.4414 36.3867C22.4805 36.3867 23.9062 30.4883 23.9062 25.4492C23.9062 20.4102 22.4805 14.5117 17.4414 14.5117C12.3828 14.5117 10.9375 20.4102 10.9375 25.4492ZM26.9531 25.4492C26.9531 30.4883 28.3984 36.3867 33.4375 36.3867C38.4961 36.3867 39.9219 30.4883 39.9219 25.4492C39.9219 20.4102 38.4961 14.5117 33.4375 14.5117C28.3984 14.5117 26.9531 20.4102 26.9531 25.4492ZM20.6055 25.4492C20.6055 29.7461 19.8438 33.6719 17.4414 33.6719C15.0195 33.6719 14.2773 29.7461 14.2773 25.4492C14.2773 21.1328 15.0195 17.2266 17.4414 17.2266C19.8438 17.2266 20.6055 21.1328 20.6055 25.4492ZM36.6016 25.4492C36.6016 29.7461 35.8398 33.6719 33.4375 33.6719C31.0156 33.6719 30.2734 29.7461 30.2734 25.4492C30.2734 21.1328 31.0156 17.2266 33.4375 17.2266C35.8398 17.2266 36.6016 21.1328 36.6016 25.4492Z" fill="black" fill-opacity="0.85"/>
 </g>
</svg>
