<?xml version="1.0" encoding="UTF-8"?>
<!--Generator: Apple Native CoreSVG 326-->
<!DOCTYPE svg
PUBLIC "-//W3C//DTD SVG 1.1//EN"
       "http://www.w3.org/Graphics/SVG/1.1/DTD/svg11.dtd">
<svg version="1.1" xmlns="http://www.w3.org/2000/svg" xmlns:xlink="http://www.w3.org/1999/xlink" viewBox="0 0 46.2891 45.918">
 <g>
  <rect height="45.918" opacity="0" width="46.2891" x="0" y="0"/>
  <path d="M45.918 7.53906L45.918 38.3984C45.918 43.3594 43.3594 45.918 38.3008 45.918L7.59766 45.918C2.55859 45.918 0 43.3984 0 38.3984L0 7.53906C0 2.53906 2.55859 0 7.59766 0L38.3008 0C43.3594 0 45.918 2.55859 45.918 7.53906ZM10.3711 22.9492C10.3711 27.9883 11.7969 33.8867 16.8359 33.8867C21.8945 33.8867 23.3398 27.9883 23.3398 22.9492C23.3398 17.9102 21.8945 12.0117 16.8359 12.0117C11.7969 12.0117 10.3711 17.9102 10.3711 22.9492ZM29.4727 13.125L26.4258 15.5273C26.0352 15.8398 25.7227 16.2695 25.7227 16.8555C25.7227 17.5781 26.2109 18.0859 26.9141 18.0859C27.2852 18.0859 27.5 17.9688 27.7344 17.7734L30.3125 15.7227L30.3125 31.9727C30.3125 32.9102 31.0547 33.6523 31.9922 33.6523C32.8711 33.6523 33.6133 32.9102 33.6133 31.9727L33.6133 14.043C33.6133 12.8906 32.8906 12.1875 31.7188 12.1875C30.7812 12.1875 30 12.7148 29.4727 13.125ZM20 22.9492C20 27.2461 19.2383 31.1719 16.8359 31.1719C14.4336 31.1719 13.6719 27.2461 13.6719 22.9492C13.6719 18.6328 14.4336 14.7266 16.8359 14.7266C19.2383 14.7266 20 18.6328 20 22.9492Z" fill="black" fill-opacity="0.85"/>
 </g>
</svg>
