<?xml version="1.0" encoding="UTF-8"?>
<!--Generator: Apple Native CoreSVG 326-->
<!DOCTYPE svg
PUBLIC "-//W3C//DTD SVG 1.1//EN"
       "http://www.w3.org/Graphics/SVG/1.1/DTD/svg11.dtd">
<svg version="1.1" xmlns="http://www.w3.org/2000/svg" xmlns:xlink="http://www.w3.org/1999/xlink" viewBox="0 0 51.25 50.918">
 <g>
  <rect height="50.918" opacity="0" width="51.25" x="0" y="0"/>
  <path d="M25.4297 50.8789C39.4727 50.8789 50.8789 39.4922 50.8789 25.4492C50.8789 11.4062 39.4727 0 25.4297 0C11.3867 0 0 11.4062 0 25.4492C0 39.4922 11.3867 50.8789 25.4297 50.8789ZM25.4297 47.2461C13.3789 47.2461 3.63281 37.5 3.63281 25.4492C3.63281 13.3984 13.3789 3.65234 25.4297 3.65234C37.4805 3.65234 47.2266 13.3984 47.2266 25.4492C47.2266 37.5 37.4805 47.2461 25.4297 47.2461Z" fill="black" fill-opacity="0.85"/>
  <path d="M17.8906 36.1328C22.8125 36.1328 24.1992 30.3516 24.1992 25.4492C24.1992 20.5469 22.8125 14.7656 17.8906 14.7656C12.9492 14.7656 11.5625 20.5469 11.5625 25.4492C11.5625 30.3516 12.9492 36.1328 17.8906 36.1328ZM17.8906 33.4961C15.5078 33.4961 14.7852 29.6289 14.7852 25.4492C14.7852 21.25 15.5078 17.4023 17.8906 17.4023C20.2539 17.4023 20.9961 21.25 20.9961 25.4492C20.9961 29.6289 20.2539 33.4961 17.8906 33.4961ZM28.4766 35.6445L37.1875 35.6445C37.9688 35.6445 38.457 35.1172 38.457 34.3359C38.457 33.5156 37.9492 33.0273 37.1875 33.0273L30.918 33.0273L30.918 32.8516L34.8828 27.6758C37.2656 24.6289 38.0664 22.7734 38.0664 20.5859C38.0664 17.2461 35.8984 14.7656 32.4805 14.7656C29.3359 14.7656 27.0117 17.4414 27.0117 20.0781C27.0117 20.8789 27.4805 21.4648 28.3398 21.4648C29.082 21.4648 29.5312 21.1328 29.7461 20.4102C30.1758 18.5547 30.8984 17.3438 32.4805 17.3438C34.1992 17.3438 35.0781 18.9062 35.0781 20.7227C35.0781 22.7148 33.8281 24.668 32.4219 26.5039L27.7734 32.5977C27.3633 33.125 26.9922 33.6719 26.9922 34.3359C26.9922 35.0977 27.4805 35.6445 28.4766 35.6445Z" fill="black" fill-opacity="0.85"/>
 </g>
</svg>
