<?xml version="1.0" encoding="UTF-8"?>
<!--Generator: Apple Native CoreSVG 326-->
<!DOCTYPE svg
PUBLIC "-//W3C//DTD SVG 1.1//EN"
       "http://www.w3.org/Graphics/SVG/1.1/DTD/svg11.dtd">
<svg version="1.1" xmlns="http://www.w3.org/2000/svg" xmlns:xlink="http://www.w3.org/1999/xlink" viewBox="0 0 51.25 50.918">
 <g>
  <rect height="50.918" opacity="0" width="51.25" x="0" y="0"/>
  <path d="M25.4297 50.8789C39.4727 50.8789 50.8789 39.4922 50.8789 25.4492C50.8789 11.4062 39.4727 0 25.4297 0C11.3867 0 0 11.4062 0 25.4492C0 39.4922 11.3867 50.8789 25.4297 50.8789ZM25.4297 47.2461C13.3789 47.2461 3.63281 37.5 3.63281 25.4492C3.63281 13.3984 13.3789 3.65234 25.4297 3.65234C37.4805 3.65234 47.2266 13.3984 47.2266 25.4492C47.2266 37.5 37.4805 47.2461 25.4297 47.2461Z" fill="black" fill-opacity="0.85"/>
  <path d="M17.4805 36.1328C22.4023 36.1328 23.7891 30.3516 23.7891 25.4492C23.7891 20.5469 22.4023 14.7656 17.4805 14.7656C12.5586 14.7656 11.1523 20.5469 11.1523 25.4492C11.1523 30.3516 12.5586 36.1328 17.4805 36.1328ZM17.4805 33.4961C15.0977 33.4961 14.375 29.6289 14.375 25.4492C14.375 21.25 15.0977 17.4023 17.4805 17.4023C19.8438 17.4023 20.5859 21.25 20.5859 25.4492C20.5859 29.6289 19.8438 33.4961 17.4805 33.4961ZM32.7148 36.0547C36.2109 36.0547 38.8867 33.7891 38.8867 30.0391C38.8867 27.0117 37.1289 25.3516 34.9023 25.1172L34.9023 25.0391C37.1875 24.4336 38.2812 22.4023 38.2812 20.2539C38.2812 16.875 35.8203 14.8633 32.6172 14.8633C30.0391 14.8633 27.9492 16.3281 27.2266 18.5547C27.0898 19.043 27.0312 19.4922 27.0312 19.9023C27.0312 20.625 27.5195 21.2109 28.3789 21.2109C29.1602 21.2109 29.5703 20.8984 29.7852 20.1172C30.1758 18.5352 31.0352 17.4219 32.6172 17.4219C34.3945 17.4219 35.293 18.8281 35.293 20.625C35.293 22.5586 34.1602 24.0039 32.1875 24.0039L31.4648 24.0039C30.6836 24.0039 30.2344 24.4727 30.2344 25.1953C30.2344 25.918 30.7227 26.3672 31.4648 26.3672L32.207 26.3672C34.4727 26.3672 35.7422 27.6172 35.7422 29.9609C35.7422 31.8359 34.7461 33.457 32.7148 33.457C30.7617 33.457 29.8242 32.0898 29.5312 30.8203C29.3359 30.0781 28.8672 29.6875 28.125 29.6875C27.2656 29.6875 26.6992 30.2148 26.6992 31.0742C26.6992 31.5039 26.7773 31.9922 26.8945 32.3828C27.6172 34.6875 30.0195 36.0547 32.7148 36.0547Z" fill="black" fill-opacity="0.85"/>
 </g>
</svg>
