<?xml version="1.0" encoding="UTF-8"?>
<!--Generator: Apple Native CoreSVG 326-->
<!DOCTYPE svg
PUBLIC "-//W3C//DTD SVG 1.1//EN"
       "http://www.w3.org/Graphics/SVG/1.1/DTD/svg11.dtd">
<svg version="1.1" xmlns="http://www.w3.org/2000/svg" xmlns:xlink="http://www.w3.org/1999/xlink" viewBox="0 0 46.2891 45.918">
 <g>
  <rect height="45.918" opacity="0" width="46.2891" x="0" y="0"/>
  <path d="M45.918 7.53906L45.918 38.3984C45.918 43.3594 43.3594 45.918 38.3008 45.918L7.59766 45.918C2.55859 45.918 0 43.3984 0 38.3984L0 7.53906C0 2.53906 2.55859 0 7.59766 0L38.3008 0C43.3594 0 45.918 2.55859 45.918 7.53906ZM8.35938 22.9492C8.35938 27.9883 9.80469 33.8867 14.8633 33.8867C19.9023 33.8867 21.3281 27.9883 21.3281 22.9492C21.3281 17.9102 19.9023 12.0117 14.8633 12.0117C9.80469 12.0117 8.35938 17.9102 8.35938 22.9492ZM29.7461 14.4336L24.7266 25.0391C24.3555 25.918 24.1992 26.5039 24.1992 27.2266C24.1992 28.3398 24.9805 29.1016 26.1133 29.1016L32.1289 29.1016L32.1289 32.0703C32.1289 33.2422 32.9492 33.7109 33.6914 33.7109C34.5508 33.7109 35.2539 33.1445 35.2539 32.0703L35.2539 29.1016L36.3477 29.1016C37.2266 29.1016 37.6562 28.5352 37.6562 27.7539C37.6562 27.0117 37.2266 26.4453 36.3477 26.4453L35.2539 26.4453L35.2539 14.6484C35.2539 13.0078 34.1992 12.1875 32.7539 12.1875C31.1328 12.1875 30.3906 13.0078 29.7461 14.4336ZM18.0273 22.9492C18.0273 27.2461 17.2656 31.1719 14.8633 31.1719C12.4609 31.1719 11.6992 27.2461 11.6992 22.9492C11.6992 18.6328 12.4609 14.7266 14.8633 14.7266C17.2656 14.7266 18.0273 18.6328 18.0273 22.9492ZM32.1875 26.5039L27.0508 26.5039L27.0508 26.3672L32.0898 15.1562L32.1875 15.1562Z" fill="black" fill-opacity="0.85"/>
 </g>
</svg>
