<?xml version="1.0" encoding="UTF-8"?>
<!--Generator: Apple Native CoreSVG 326-->
<!DOCTYPE svg
PUBLIC "-//W3C//DTD SVG 1.1//EN"
       "http://www.w3.org/Graphics/SVG/1.1/DTD/svg11.dtd">
<svg version="1.1" xmlns="http://www.w3.org/2000/svg" xmlns:xlink="http://www.w3.org/1999/xlink" viewBox="0 0 51.25 50.918">
 <g>
  <rect height="50.918" opacity="0" width="51.25" x="0" y="0"/>
  <path d="M50.8789 25.4492C50.8789 39.4531 39.4531 50.8789 25.4297 50.8789C11.4258 50.8789 0 39.4531 0 25.4492C0 11.4258 11.4258 0 25.4297 0C39.4531 0 50.8789 11.4258 50.8789 25.4492ZM10.625 25.4492C10.625 30.4883 12.0703 36.3867 17.1094 36.3867C22.1484 36.3867 23.5742 30.4883 23.5742 25.4492C23.5742 20.4102 22.1484 14.5117 17.1094 14.5117C12.0703 14.5117 10.625 20.4102 10.625 25.4492ZM26.6406 25.7422C26.6406 30.6055 28.1641 36.3867 33.2617 36.3867C37.1094 36.3867 39.2773 33.0664 39.2773 29.0625C39.2773 25.5859 37.5977 22.2461 34.1602 22.2461C31.9922 22.2461 30.4102 23.7695 29.8438 26.0156L29.7461 26.0156C29.7461 25.918 29.7461 25.8008 29.7461 25.7031C29.7461 22.6953 30.1367 17.2266 33.2227 17.2266C34.5312 17.2266 35.3906 18.1836 35.8398 19.4141C36.1719 20.1172 36.5625 20.4688 37.3242 20.4688C38.2422 20.4688 38.6719 19.8828 38.6719 19.1211C38.6719 18.8477 38.6133 18.5156 38.5156 18.1836C37.9492 15.9375 35.8203 14.5508 33.3008 14.5508C28.1055 14.5508 26.6406 20.6445 26.6406 25.7422ZM36.1133 29.2188C36.1133 31.2695 35.1758 33.7109 33.2227 33.7109C31.1133 33.7109 30.2148 31.1328 30.2148 29.1016C30.2148 27.0508 31.2109 24.7656 33.2031 24.7656C35.2734 24.7656 36.1523 27.1484 36.1133 29.2188ZM20.2734 25.4492C20.2734 29.7461 19.5117 33.6719 17.1094 33.6719C14.707 33.6719 13.9453 29.7461 13.9453 25.4492C13.9453 21.1328 14.707 17.2266 17.1094 17.2266C19.5117 17.2266 20.2734 21.1328 20.2734 25.4492Z" fill="black" fill-opacity="0.85"/>
 </g>
</svg>
