<?xml version="1.0" encoding="UTF-8"?>
<!--Generator: Apple Native CoreSVG 326-->
<!DOCTYPE svg
PUBLIC "-//W3C//DTD SVG 1.1//EN"
       "http://www.w3.org/Graphics/SVG/1.1/DTD/svg11.dtd">
<svg version="1.1" xmlns="http://www.w3.org/2000/svg" xmlns:xlink="http://www.w3.org/1999/xlink" viewBox="0 0 46.2891 45.918">
 <g>
  <rect height="45.918" opacity="0" width="46.2891" x="0" y="0"/>
  <path d="M45.918 7.53906L45.918 38.3984C45.918 43.3594 43.3594 45.918 38.3008 45.918L7.59766 45.918C2.55859 45.918 0 43.3984 0 38.3984L0 7.53906C0 2.53906 2.55859 0 7.59766 0L38.3008 0C43.3594 0 45.918 2.55859 45.918 7.53906ZM8.16406 22.9492C8.16406 27.9883 9.60938 33.8867 14.6484 33.8867C19.6875 33.8867 21.1133 27.9883 21.1133 22.9492C21.1133 17.9102 19.6875 12.0117 14.6484 12.0117C9.60938 12.0117 8.16406 17.9102 8.16406 22.9492ZM24.1797 23.2422C24.1797 28.1055 25.7031 33.8867 30.8008 33.8867C34.6484 33.8867 36.8164 30.5664 36.8164 26.5625C36.8164 23.0859 35.1367 19.7461 31.6992 19.7461C29.5312 19.7461 27.9492 21.2695 27.3828 23.5156L27.2852 23.5156C27.2852 23.418 27.2852 23.3008 27.2852 23.2031C27.2852 20.1953 27.6758 14.7266 30.7617 14.7266C32.0703 14.7266 32.9102 15.6836 33.3789 16.9141C33.7109 17.6172 34.1016 17.9688 34.8633 17.9688C35.7812 17.9688 36.1914 17.3828 36.1914 16.6211C36.1914 16.3477 36.1523 16.0156 36.0547 15.6836C35.4883 13.4375 33.3594 12.0508 30.8398 12.0508C25.6445 12.0508 24.1797 18.1445 24.1797 23.2422ZM33.6328 26.7188C33.6328 28.7695 32.6953 31.2109 30.7617 31.2109C28.6523 31.2109 27.7539 28.6328 27.7539 26.6016C27.7539 24.5508 28.75 22.2656 30.7422 22.2656C32.8125 22.2656 33.6914 24.6484 33.6328 26.7188ZM17.8125 22.9492C17.8125 27.2461 17.0508 31.1719 14.6484 31.1719C12.2461 31.1719 11.4844 27.2461 11.4844 22.9492C11.4844 18.6328 12.2461 14.7266 14.6484 14.7266C17.0508 14.7266 17.8125 18.6328 17.8125 22.9492Z" fill="black" fill-opacity="0.85"/>
 </g>
</svg>
