<?xml version="1.0" encoding="UTF-8"?>
<!--Generator: Apple Native CoreSVG 326-->
<!DOCTYPE svg
PUBLIC "-//W3C//DTD SVG 1.1//EN"
       "http://www.w3.org/Graphics/SVG/1.1/DTD/svg11.dtd">
<svg version="1.1" xmlns="http://www.w3.org/2000/svg" xmlns:xlink="http://www.w3.org/1999/xlink" viewBox="0 0 51.25 50.918">
 <g>
  <rect height="50.918" opacity="0" width="51.25" x="0" y="0"/>
  <path d="M50.8789 25.4492C50.8789 39.4531 39.4531 50.8789 25.4297 50.8789C11.4258 50.8789 0 39.4531 0 25.4492C0 11.4258 11.4258 0 25.4297 0C39.4531 0 50.8789 11.4258 50.8789 25.4492ZM10.9375 25.4492C10.9375 30.4883 12.3633 36.3867 17.4219 36.3867C22.4609 36.3867 23.9062 30.4883 23.9062 25.4492C23.9062 20.4102 22.4609 14.5117 17.4219 14.5117C12.3633 14.5117 10.9375 20.4102 10.9375 25.4492ZM27.5195 20.1562C27.5195 22.6953 29.0625 24.2969 30.7812 24.8242L30.7812 24.9023C28.5938 25.4102 26.9336 27.5 26.9336 30.2539C26.9336 33.9648 29.6875 36.3086 33.3984 36.3086C37.3633 36.3086 39.9219 33.75 39.9219 30.2539C39.9219 27.4805 38.1836 25.3906 36.0938 24.9023L36.0938 24.8242C37.8906 24.2773 39.3359 22.5391 39.3359 20.1758C39.3359 16.9141 36.9727 14.6094 33.3984 14.6094C30.2344 14.6094 27.5195 16.6406 27.5195 20.1562ZM36.5039 30C36.5039 32.0508 35.4492 33.8086 33.418 33.8086C31.4062 33.8086 30.332 32.0508 30.332 30C30.332 27.9688 31.4062 26.2891 33.418 26.2891C35.332 26.2891 36.5039 27.8516 36.5039 30ZM20.5859 25.4492C20.5859 29.7461 19.8242 33.6719 17.4219 33.6719C15.0195 33.6719 14.2578 29.7461 14.2578 25.4492C14.2578 21.1328 15.0195 17.2266 17.4219 17.2266C19.8242 17.2266 20.5859 21.1328 20.5859 25.4492ZM36.1523 20.4883C36.1523 22.3047 35.1367 23.7695 33.418 23.7695C31.7188 23.7695 30.7031 22.2266 30.7031 20.4883C30.7031 18.6719 31.6992 17.0898 33.418 17.0898C35.2344 17.0898 36.1523 18.7305 36.1523 20.4883Z" fill="black" fill-opacity="0.85"/>
 </g>
</svg>
