<?xml version="1.0" encoding="UTF-8"?>
<!--Generator: Apple Native CoreSVG 326-->
<!DOCTYPE svg
PUBLIC "-//W3C//DTD SVG 1.1//EN"
       "http://www.w3.org/Graphics/SVG/1.1/DTD/svg11.dtd">
<svg version="1.1" xmlns="http://www.w3.org/2000/svg" xmlns:xlink="http://www.w3.org/1999/xlink" viewBox="0 0 51.25 50.918">
 <g>
  <rect height="50.918" opacity="0" width="51.25" x="0" y="0"/>
  <path d="M50.8789 25.4492C50.8789 39.4531 39.4531 50.8789 25.4297 50.8789C11.4258 50.8789 0 39.4531 0 25.4492C0 11.4258 11.4258 0 25.4297 0C39.4531 0 50.8789 11.4258 50.8789 25.4492ZM11.0352 25.4492C11.0352 30.4883 12.4609 36.3867 17.5 36.3867C22.5586 36.3867 24.0039 30.4883 24.0039 25.4492C24.0039 20.4102 22.5586 14.5117 17.5 14.5117C12.4609 14.5117 11.0352 20.4102 11.0352 25.4492ZM26.9141 21.875C26.9141 25.3516 28.5938 28.6719 32.0117 28.6719C34.1992 28.6719 35.7812 27.168 36.3281 24.9219L36.4258 24.9219C36.4258 25.0195 36.4258 25.1367 36.4258 25.2344C36.4258 28.2422 36.0547 33.6719 32.9492 33.6719C31.6602 33.6719 30.8203 32.7539 30.332 31.4844C30 30.6836 29.5312 30.3711 28.8672 30.3711C27.8906 30.3711 27.5 31.0156 27.5 31.7773C27.5 32.0703 27.5586 32.4023 27.6562 32.7148C28.2422 35 30.3906 36.3477 32.9102 36.3477C38.0859 36.3477 39.5508 30.3516 39.5508 25.1953C39.5508 20.332 38.0273 14.5508 32.9492 14.5508C29.1211 14.5508 26.9141 17.8711 26.9141 21.875ZM20.6641 25.4492C20.6641 29.7461 19.9219 33.6719 17.5 33.6719C15.0977 33.6719 14.3359 29.7461 14.3359 25.4492C14.3359 21.1328 15.0977 17.2266 17.5 17.2266C19.9219 17.2266 20.6641 21.1328 20.6641 25.4492ZM35.9766 21.7383C35.9766 23.8867 34.9805 26.1328 32.9883 26.1328C30.9375 26.1328 30.0586 23.8086 30.0586 21.7383C30.0586 19.6289 31.0156 17.2266 32.9883 17.2266C35.0781 17.2266 35.9766 19.6484 35.9766 21.7383Z" fill="black" fill-opacity="0.85"/>
 </g>
</svg>
