<?xml version="1.0" encoding="UTF-8"?>
<!--Generator: Apple Native CoreSVG 326-->
<!DOCTYPE svg
PUBLIC "-//W3C//DTD SVG 1.1//EN"
       "http://www.w3.org/Graphics/SVG/1.1/DTD/svg11.dtd">
<svg version="1.1" xmlns="http://www.w3.org/2000/svg" xmlns:xlink="http://www.w3.org/1999/xlink" viewBox="0 0 46.2891 45.918">
 <g>
  <rect height="45.918" opacity="0" width="46.2891" x="0" y="0"/>
  <path d="M45.918 7.53906L45.918 38.3984C45.918 43.3594 43.3594 45.918 38.3008 45.918L7.59766 45.918C2.55859 45.918 0 43.3984 0 38.3984L0 7.53906C0 2.53906 2.55859 0 7.59766 0L38.3008 0C43.3594 0 45.918 2.55859 45.918 7.53906ZM21.7969 11.6602L16.9531 14.9023C16.4648 15.2539 16.25 15.6055 16.25 16.1914C16.25 16.8945 16.8164 17.5391 17.5391 17.5391C17.8906 17.5391 18.125 17.4805 18.6133 17.168L22.3438 14.707L22.5195 14.707L22.5195 33.125C22.5195 34.375 23.1836 35.1172 24.2773 35.1172C25.4297 35.1172 26.0938 34.375 26.0938 33.125L26.0938 12.7734C26.0938 11.5039 25.3711 10.7812 24.1797 10.7812C23.3398 10.7812 22.7539 10.9961 21.7969 11.6602Z" fill="black" fill-opacity="0.85"/>
 </g>
</svg>
