<?xml version="1.0" encoding="UTF-8"?>
<!--Generator: Apple Native CoreSVG 326-->
<!DOCTYPE svg
PUBLIC "-//W3C//DTD SVG 1.1//EN"
       "http://www.w3.org/Graphics/SVG/1.1/DTD/svg11.dtd">
<svg version="1.1" xmlns="http://www.w3.org/2000/svg" xmlns:xlink="http://www.w3.org/1999/xlink" viewBox="0 0 46.2891 45.918">
 <g>
  <rect height="45.918" opacity="0" width="46.2891" x="0" y="0"/>
  <path d="M45.918 7.53906L45.918 38.3984C45.918 43.3594 43.3594 45.918 38.3008 45.918L7.59766 45.918C2.55859 45.918 0 43.3984 0 38.3984L0 7.53906C0 2.53906 2.55859 0 7.59766 0L38.3008 0C43.3594 0 45.918 2.55859 45.918 7.53906ZM21.9141 22.9492C21.9141 27.9883 23.3398 33.8867 28.3984 33.8867C33.4375 33.8867 34.8633 27.9883 34.8633 22.9492C34.8633 17.9102 33.4375 12.0117 28.3984 12.0117C23.3398 12.0117 21.9141 17.9102 21.9141 22.9492ZM13.6523 13.125L10.625 15.5273C10.2148 15.8398 9.92188 16.2695 9.92188 16.8555C9.92188 17.5781 10.3906 18.0859 11.0938 18.0859C11.4648 18.0859 11.6797 17.9688 11.9336 17.7734L14.4922 15.7227L14.4922 31.9727C14.4922 32.9102 15.2344 33.6523 16.1719 33.6523C17.0508 33.6523 17.8125 32.9102 17.8125 31.9727L17.8125 14.043C17.8125 12.8906 17.0703 12.1875 15.918 12.1875C14.9609 12.1875 14.1992 12.7148 13.6523 13.125ZM31.543 22.9492C31.543 27.2461 30.8008 31.1719 28.3984 31.1719C25.9766 31.1719 25.2344 27.2461 25.2344 22.9492C25.2344 18.6328 25.9766 14.7266 28.3984 14.7266C30.8008 14.7266 31.543 18.6328 31.543 22.9492Z" fill="black" fill-opacity="0.85"/>
 </g>
</svg>
