<?xml version="1.0" encoding="UTF-8"?>
<!--Generator: Apple Native CoreSVG 326-->
<!DOCTYPE svg
PUBLIC "-//W3C//DTD SVG 1.1//EN"
       "http://www.w3.org/Graphics/SVG/1.1/DTD/svg11.dtd">
<svg version="1.1" xmlns="http://www.w3.org/2000/svg" xmlns:xlink="http://www.w3.org/1999/xlink" viewBox="0 0 51.25 50.918">
 <g>
  <rect height="50.918" opacity="0" width="51.25" x="0" y="0"/>
  <path d="M50.8789 25.4492C50.8789 39.4531 39.4531 50.8789 25.4297 50.8789C11.4258 50.8789 0 39.4531 0 25.4492C0 11.4258 11.4258 0 25.4297 0C39.4531 0 50.8789 11.4258 50.8789 25.4492ZM17.9297 15.625L14.9219 18.0273C14.5117 18.3398 14.2188 18.7695 14.2188 19.3555C14.2188 20.0781 14.707 20.5859 15.4102 20.5859C15.7617 20.5859 15.9961 20.4688 16.2109 20.2734L18.7891 18.2227L18.7891 34.4727C18.7891 35.4102 19.5508 36.1523 20.4492 36.1523C21.3672 36.1523 22.1094 35.4102 22.1094 34.4727L22.1094 16.543C22.1094 15.3906 21.3867 14.6875 20.2148 14.6875C19.2578 14.6875 18.4766 15.2148 17.9297 15.625ZM29.3945 15.625L26.3867 18.0273C25.9961 18.3398 25.6836 18.7695 25.6836 19.3555C25.6836 20.0781 26.1719 20.5859 26.8555 20.5859C27.207 20.5859 27.4414 20.4688 27.6758 20.2734L30.2539 18.2227L30.2539 34.4727C30.2539 35.4102 30.9961 36.1523 31.9141 36.1523C32.8125 36.1523 33.5742 35.4102 33.5742 34.4727L33.5742 16.543C33.5742 15.3906 32.832 14.6875 31.6797 14.6875C30.7031 14.6875 29.9414 15.2148 29.3945 15.625Z" fill="black" fill-opacity="0.85"/>
 </g>
</svg>
