<?xml version="1.0" encoding="UTF-8"?>
<!--Generator: Apple Native CoreSVG 326-->
<!DOCTYPE svg
PUBLIC "-//W3C//DTD SVG 1.1//EN"
       "http://www.w3.org/Graphics/SVG/1.1/DTD/svg11.dtd">
<svg version="1.1" xmlns="http://www.w3.org/2000/svg" xmlns:xlink="http://www.w3.org/1999/xlink" viewBox="0 0 51.25 50.918">
 <g>
  <rect height="50.918" opacity="0" width="51.25" x="0" y="0"/>
  <path d="M25.4297 50.8789C39.4727 50.8789 50.8789 39.4922 50.8789 25.4492C50.8789 11.4062 39.4727 0 25.4297 0C11.3867 0 0 11.4062 0 25.4492C0 39.4922 11.3867 50.8789 25.4297 50.8789ZM25.4297 47.2461C13.3789 47.2461 3.63281 37.5 3.63281 25.4492C3.63281 13.3984 13.3789 3.65234 25.4297 3.65234C37.4805 3.65234 47.2266 13.3984 47.2266 25.4492C47.2266 37.5 37.4805 47.2461 25.4297 47.2461Z" fill="black" fill-opacity="0.85"/>
  <path d="M18.9258 35.8984C19.7852 35.8984 20.5273 35.1758 20.5273 34.2773L20.5273 16.7383C20.5273 15.625 19.8047 14.9609 18.6914 14.9609C17.7734 14.9609 17.0117 15.4492 16.4844 15.8789L13.5352 18.2031C13.1445 18.5156 12.8516 18.9258 12.8516 19.4922C12.8516 20.1953 13.3203 20.6836 14.0039 20.6836C14.3555 20.6836 14.5703 20.5664 14.7852 20.3906L17.3047 18.3789L17.3047 34.2773C17.3047 35.1758 18.0469 35.8984 18.9258 35.8984ZM25.8594 35.6445L34.5898 35.6445C35.3711 35.6445 35.8594 35.1172 35.8594 34.3359C35.8594 33.5156 35.3516 33.0273 34.5898 33.0273L28.3008 33.0273L28.3008 32.8516L32.2656 27.6758C34.6484 24.6289 35.4492 22.7734 35.4492 20.5859C35.4492 17.2461 33.2812 14.7656 29.8828 14.7656C26.7188 14.7656 24.4141 17.4414 24.4141 20.0781C24.4141 20.8789 24.8828 21.4648 25.7422 21.4648C26.4648 21.4648 26.9141 21.1328 27.1289 20.4102C27.5781 18.5547 28.2812 17.3438 29.8828 17.3438C31.582 17.3438 32.4609 18.9062 32.4609 20.7227C32.4609 22.7148 31.2305 24.668 29.8242 26.5039L25.1758 32.5977C24.7656 33.125 24.375 33.6719 24.375 34.3359C24.375 35.0977 24.8828 35.6445 25.8594 35.6445Z" fill="black" fill-opacity="0.85"/>
 </g>
</svg>
