<?xml version="1.0" encoding="UTF-8"?>
<!--Generator: Apple Native CoreSVG 326-->
<!DOCTYPE svg
PUBLIC "-//W3C//DTD SVG 1.1//EN"
       "http://www.w3.org/Graphics/SVG/1.1/DTD/svg11.dtd">
<svg version="1.1" xmlns="http://www.w3.org/2000/svg" xmlns:xlink="http://www.w3.org/1999/xlink" viewBox="0 0 46.2891 45.918">
 <g>
  <rect height="45.918" opacity="0" width="46.2891" x="0" y="0"/>
  <path d="M45.918 7.53906L45.918 38.3984C45.918 43.3594 43.3594 45.918 38.3008 45.918L7.59766 45.918C2.55859 45.918 0 43.3984 0 38.3984L0 7.53906C0 2.53906 2.55859 0 7.59766 0L38.3008 0C43.3594 0 45.918 2.55859 45.918 7.53906ZM13.8281 13.1445L10.8203 15.5273C10.4102 15.8398 10.0977 16.2695 10.0977 16.8555C10.0977 17.5781 10.5859 18.0859 11.2891 18.0859C11.6602 18.0859 11.875 17.9688 12.1094 17.793L14.668 15.7227L14.668 31.9922C14.668 32.9102 15.4102 33.6523 16.3477 33.6523C17.2266 33.6523 17.9883 32.9102 17.9883 31.9922L17.9883 14.043C17.9883 12.8906 17.2461 12.1875 16.0938 12.1875C15.1367 12.1875 14.375 12.7148 13.8281 13.1445ZM21.9727 17.4414C21.9727 18.2617 22.4609 18.8867 23.3398 18.8867C24.1016 18.8867 24.5508 18.5352 24.7852 17.793C25.2344 15.8984 25.957 14.668 27.5781 14.668C29.3164 14.668 30.2148 16.25 30.2148 18.1055C30.2148 20.1562 28.9453 22.168 27.5195 24.043L22.7539 30.2539C22.3242 30.8008 21.9336 31.3672 21.9336 32.0703C21.9336 32.832 22.4609 33.3984 23.4766 33.3984L32.4219 33.3984C33.2227 33.3984 33.7305 32.8516 33.7305 32.0508C33.7305 31.1914 33.2031 30.7031 32.4219 30.7031L25.9961 30.7031L25.9961 30.5078L30.0391 25.2344C32.5 22.1094 33.3008 20.2148 33.3008 17.9688C33.3008 14.5508 31.0742 12.0117 27.5977 12.0117C24.3359 12.0117 21.9727 14.7461 21.9727 17.4414Z" fill="black" fill-opacity="0.85"/>
 </g>
</svg>
