<?xml version="1.0" encoding="UTF-8"?>
<!--Generator: Apple Native CoreSVG 326-->
<!DOCTYPE svg
PUBLIC "-//W3C//DTD SVG 1.1//EN"
       "http://www.w3.org/Graphics/SVG/1.1/DTD/svg11.dtd">
<svg version="1.1" xmlns="http://www.w3.org/2000/svg" xmlns:xlink="http://www.w3.org/1999/xlink" viewBox="0 0 46.2891 45.918">
 <g>
  <rect height="45.918" opacity="0" width="46.2891" x="0" y="0"/>
  <path d="M7.59766 45.918L38.3008 45.918C43.3594 45.918 45.918 43.3594 45.918 38.3984L45.918 7.53906C45.918 2.55859 43.3594 0 38.3008 0L7.59766 0C2.55859 0 0 2.53906 0 7.53906L0 38.3984C0 43.3984 2.55859 45.918 7.59766 45.918ZM7.67578 42.4609C4.94141 42.4609 3.45703 41.0156 3.45703 38.2031L3.45703 7.71484C3.45703 4.92188 4.94141 3.45703 7.67578 3.45703L38.2422 3.45703C40.918 3.45703 42.4609 4.92188 42.4609 7.71484L42.4609 38.2031C42.4609 41.0156 40.918 42.4609 38.2422 42.4609Z" fill="black" fill-opacity="0.85"/>
  <path d="M16.4844 33.3984C17.3438 33.3984 18.0859 32.6758 18.0859 31.7773L18.0859 14.2383C18.0859 13.125 17.3633 12.4609 16.25 12.4609C15.332 12.4609 14.5703 12.9492 14.043 13.3789L11.0938 15.7031C10.7031 16.0156 10.4102 16.4258 10.4102 16.9922C10.4102 17.6953 10.8789 18.1836 11.5625 18.1836C11.9141 18.1836 12.1289 18.0664 12.3438 17.8906L14.8633 15.8789L14.8633 31.7773C14.8633 32.6758 15.6055 33.3984 16.4844 33.3984ZM23.418 33.1445L32.1484 33.1445C32.9297 33.1445 33.418 32.6172 33.418 31.8359C33.418 31.0156 32.9102 30.5273 32.1484 30.5273L25.8594 30.5273L25.8594 30.3516L29.8242 25.1758C32.207 22.1289 33.0078 20.2734 33.0078 18.0859C33.0078 14.7461 30.8398 12.2656 27.4414 12.2656C24.2773 12.2656 21.9727 14.9414 21.9727 17.5781C21.9727 18.3789 22.4414 18.9648 23.3008 18.9648C24.0234 18.9648 24.4727 18.6328 24.6875 17.9102C25.1172 16.0547 25.8398 14.8438 27.4219 14.8438C29.1406 14.8438 30.0195 16.4062 30.0195 18.2227C30.0195 20.2148 28.7891 22.168 27.3828 24.0039L22.7148 30.0977C22.3047 30.625 21.9336 31.1719 21.9336 31.8359C21.9336 32.5977 22.4414 33.1445 23.418 33.1445Z" fill="black" fill-opacity="0.85"/>
 </g>
</svg>
