<?xml version="1.0" encoding="UTF-8"?>
<!--Generator: Apple Native CoreSVG 326-->
<!DOCTYPE svg
PUBLIC "-//W3C//DTD SVG 1.1//EN"
       "http://www.w3.org/Graphics/SVG/1.1/DTD/svg11.dtd">
<svg version="1.1" xmlns="http://www.w3.org/2000/svg" xmlns:xlink="http://www.w3.org/1999/xlink" viewBox="0 0 51.25 50.918">
 <g>
  <rect height="50.918" opacity="0" width="51.25" x="0" y="0"/>
  <path d="M25.4297 50.8789C39.4727 50.8789 50.8789 39.4922 50.8789 25.4492C50.8789 11.4062 39.4727 0 25.4297 0C11.3867 0 0 11.4062 0 25.4492C0 39.4922 11.3867 50.8789 25.4297 50.8789ZM25.4297 47.2461C13.3789 47.2461 3.63281 37.5 3.63281 25.4492C3.63281 13.3984 13.3789 3.65234 25.4297 3.65234C37.4805 3.65234 47.2266 13.3984 47.2266 25.4492C47.2266 37.5 37.4805 47.2461 25.4297 47.2461Z" fill="black" fill-opacity="0.85"/>
  <path d="M18.7109 35.8984C19.5703 35.8984 20.293 35.1758 20.293 34.2773L20.293 16.7383C20.293 15.625 19.5898 14.9609 18.457 14.9609C17.5391 14.9609 16.7969 15.4492 16.2695 15.8789L13.3008 18.2031C12.9102 18.5156 12.6172 18.9258 12.6172 19.4922C12.6172 20.1953 13.0859 20.6836 13.7695 20.6836C14.1211 20.6836 14.3359 20.5664 14.5703 20.3906L17.0898 18.3789L17.0898 34.2773C17.0898 35.1758 17.8125 35.8984 18.7109 35.8984ZM30.293 36.0547C33.8086 36.0547 36.4648 33.7891 36.4648 30.0391C36.4648 27.0117 34.707 25.3516 32.4805 25.1172L32.4805 25.0391C34.7656 24.4336 35.8789 22.4023 35.8789 20.2539C35.8789 16.875 33.418 14.8633 30.1953 14.8633C27.6172 14.8633 25.5273 16.3281 24.8047 18.5547C24.668 19.043 24.6289 19.4922 24.6289 19.9023C24.6289 20.625 25.0977 21.2109 25.9766 21.2109C26.7578 21.2109 27.168 20.8984 27.3828 20.1172C27.7539 18.5352 28.6328 17.4219 30.1953 17.4219C31.9922 17.4219 32.8711 18.8281 32.8711 20.625C32.8711 22.5586 31.7578 24.0039 29.7656 24.0039L29.043 24.0039C28.2812 24.0039 27.8125 24.4727 27.8125 25.1953C27.8125 25.918 28.3203 26.3672 29.043 26.3672L29.8047 26.3672C32.0508 26.3672 33.3203 27.6172 33.3203 29.9609C33.3203 31.8359 32.3438 33.457 30.3125 33.457C28.3594 33.457 27.4219 32.0898 27.1289 30.8203C26.9141 30.0781 26.4648 29.6875 25.7227 29.6875C24.8633 29.6875 24.2773 30.2148 24.2773 31.0742C24.2773 31.5039 24.3555 31.9922 24.4922 32.3828C25.2148 34.6875 27.6172 36.0547 30.293 36.0547Z" fill="black" fill-opacity="0.85"/>
 </g>
</svg>
