<?xml version="1.0" encoding="UTF-8"?>
<!--Generator: Apple Native CoreSVG 326-->
<!DOCTYPE svg
PUBLIC "-//W3C//DTD SVG 1.1//EN"
       "http://www.w3.org/Graphics/SVG/1.1/DTD/svg11.dtd">
<svg version="1.1" xmlns="http://www.w3.org/2000/svg" xmlns:xlink="http://www.w3.org/1999/xlink" viewBox="0 0 46.2891 45.918">
 <g>
  <rect height="45.918" opacity="0" width="46.2891" x="0" y="0"/>
  <path d="M7.59766 45.918L38.3008 45.918C43.3594 45.918 45.918 43.3594 45.918 38.3984L45.918 7.53906C45.918 2.55859 43.3594 0 38.3008 0L7.59766 0C2.55859 0 0 2.53906 0 7.53906L0 38.3984C0 43.3984 2.55859 45.918 7.59766 45.918ZM7.67578 42.4609C4.94141 42.4609 3.45703 41.0156 3.45703 38.2031L3.45703 7.71484C3.45703 4.92188 4.94141 3.45703 7.67578 3.45703L38.2422 3.45703C40.918 3.45703 42.4609 4.92188 42.4609 7.71484L42.4609 38.2031C42.4609 41.0156 40.918 42.4609 38.2422 42.4609Z" fill="black" fill-opacity="0.85"/>
  <path d="M16.2695 33.3984C17.1289 33.3984 17.8516 32.6758 17.8516 31.7773L17.8516 14.2383C17.8516 13.125 17.1484 12.4609 16.0156 12.4609C15.0977 12.4609 14.3359 12.9492 13.8086 13.3789L10.8594 15.7031C10.4688 16.0156 10.1758 16.4258 10.1758 16.9922C10.1758 17.6953 10.6445 18.1836 11.3281 18.1836C11.6797 18.1836 11.8945 18.0664 12.1289 17.8906L14.6289 15.8789L14.6289 31.7773C14.6289 32.6758 15.3711 33.3984 16.2695 33.3984ZM27.8516 33.5547C31.3672 33.5547 34.0234 31.2891 34.0234 27.5391C34.0234 24.5117 32.2656 22.8516 30.0391 22.6172L30.0391 22.5391C32.3242 21.9336 33.418 19.9023 33.418 17.7539C33.418 14.375 30.9766 12.3633 27.7539 12.3633C25.1758 12.3633 23.0859 13.8281 22.3633 16.0547C22.2266 16.543 22.168 16.9922 22.168 17.4023C22.168 18.125 22.6562 18.7109 23.5352 18.7109C24.3164 18.7109 24.7266 18.3984 24.9414 17.6172C25.3125 16.0352 26.1914 14.9219 27.7539 14.9219C29.5508 14.9219 30.4297 16.3281 30.4297 18.125C30.4297 20.0586 29.2969 21.5039 27.3242 21.5039L26.6016 21.5039C25.8398 21.5039 25.3711 21.9727 25.3711 22.6953C25.3711 23.418 25.8789 23.8672 26.6016 23.8672L27.3633 23.8672C29.6094 23.8672 30.8789 25.1172 30.8789 27.4609C30.8789 29.3359 29.9023 30.957 27.8711 30.957C25.918 30.957 24.9805 29.5898 24.668 28.3203C24.4727 27.5781 24.0234 27.1875 23.2812 27.1875C22.4219 27.1875 21.8359 27.7148 21.8359 28.5742C21.8359 29.0039 21.9141 29.4922 22.0508 29.8828C22.7734 32.1875 25.1758 33.5547 27.8516 33.5547Z" fill="black" fill-opacity="0.85"/>
 </g>
</svg>
