<?xml version="1.0" encoding="UTF-8"?>
<!--Generator: Apple Native CoreSVG 326-->
<!DOCTYPE svg
PUBLIC "-//W3C//DTD SVG 1.1//EN"
       "http://www.w3.org/Graphics/SVG/1.1/DTD/svg11.dtd">
<svg version="1.1" xmlns="http://www.w3.org/2000/svg" xmlns:xlink="http://www.w3.org/1999/xlink" viewBox="0 0 46.2891 45.918">
 <g>
  <rect height="45.918" opacity="0" width="46.2891" x="0" y="0"/>
  <path d="M45.918 7.53906L45.918 38.3984C45.918 43.3594 43.3594 45.918 38.3008 45.918L7.59766 45.918C2.55859 45.918 0 43.3984 0 38.3984L0 7.53906C0 2.53906 2.55859 0 7.59766 0L38.3008 0C43.3594 0 45.918 2.55859 45.918 7.53906ZM26.6602 14.4336L21.6602 25.0391C21.2695 25.918 21.1328 26.5039 21.1328 27.2266C21.1328 28.3398 21.8945 29.1016 23.0469 29.1016L29.043 29.1016L29.043 32.0703C29.043 33.2422 29.8633 33.7109 30.625 33.7109C31.4844 33.7109 32.168 33.1445 32.168 32.0703L32.168 29.1016L33.2617 29.1016C34.1406 29.1016 34.5703 28.5352 34.5703 27.7539C34.5703 27.0117 34.1602 26.4453 33.2617 26.4453L32.168 26.4453L32.168 14.6484C32.168 13.0078 31.1133 12.1875 29.668 12.1875C28.0664 12.1875 27.3047 13.0078 26.6602 14.4336ZM13.125 13.125L10.1172 15.5273C9.70703 15.8398 9.39453 16.2695 9.39453 16.8555C9.39453 17.5781 9.88281 18.0859 10.5859 18.0859C10.957 18.0859 11.1719 17.9688 11.4062 17.7734L13.9648 15.7227L13.9648 31.9727C13.9648 32.9102 14.7266 33.6523 15.6445 33.6523C16.5234 33.6523 17.2852 32.9102 17.2852 31.9727L17.2852 14.043C17.2852 12.8906 16.543 12.1875 15.3906 12.1875C14.4531 12.1875 13.6719 12.7148 13.125 13.125ZM29.1016 26.5039L23.9648 26.5039L23.9648 26.3672L29.0039 15.1562L29.1016 15.1562Z" fill="black" fill-opacity="0.85"/>
 </g>
</svg>
