<?xml version="1.0" encoding="UTF-8"?>
<!--Generator: Apple Native CoreSVG 326-->
<!DOCTYPE svg
PUBLIC "-//W3C//DTD SVG 1.1//EN"
       "http://www.w3.org/Graphics/SVG/1.1/DTD/svg11.dtd">
<svg version="1.1" xmlns="http://www.w3.org/2000/svg" xmlns:xlink="http://www.w3.org/1999/xlink" viewBox="0 0 51.25 60.6221">
 <g>
  <rect height="60.6221" opacity="0" width="51.25" x="0" y="0"/>
  <path d="M25.4297 55.7309C39.4727 55.7309 50.8789 44.3442 50.8789 30.3013C50.8789 17.8403 41.875 7.48876 30.1562 5.32079L30.1562 1.59032C30.1562 0.00829228 29.0625-0.440926 27.793 0.457511L19.9023 6.00439C18.8281 6.7661 18.8477 7.84032 19.9023 8.56298L27.8125 14.1099C29.0625 14.9888 30.1562 14.5591 30.1562 12.977L30.1562 9.0122C39.9023 11.1606 47.2266 19.8325 47.2266 30.3013C47.2266 42.352 37.4805 52.0981 25.4297 52.0981C13.3789 52.0981 3.63281 42.352 3.63281 30.3013C3.63281 22.8208 7.42188 16.2388 13.125 12.3716C14.0039 11.7075 14.2773 10.6919 13.7305 9.79345C13.2227 8.93407 11.9922 8.68017 11.0352 9.38329C4.375 13.9731 0 21.5708 0 30.3013C0 44.3442 11.3867 55.7309 25.4297 55.7309Z" fill="black" fill-opacity="0.85"/>
  <path d="M18.8086 40.5747C19.7656 40.5747 20.332 39.9106 20.332 38.9536L20.332 22.5278C20.332 21.4536 19.668 20.8286 18.5938 20.8286C17.7148 20.8286 17.0898 21.1997 16.4062 21.727L13.2617 24.0317C12.832 24.3638 12.5586 24.7349 12.5586 25.2817C12.5586 25.9263 13.0273 26.4145 13.6719 26.4145C13.9844 26.4145 14.2188 26.3169 14.4727 26.1411L17.2461 24.0708L17.2656 24.0708L17.2656 38.9536C17.2656 39.9106 17.8516 40.5747 18.8086 40.5747ZM30.957 40.7309C34.8438 40.7309 37.2656 37.8403 37.2656 33.9536C37.2656 30.5356 35.293 27.6645 31.9141 27.6645C30.2148 27.6645 28.75 28.4458 28.0078 29.7739L27.9297 29.7739L28.457 23.602L35.1367 23.602C35.8789 23.602 36.3867 23.0942 36.3867 22.352C36.3867 21.5903 35.8984 21.102 35.1367 21.102L27.7148 21.102C26.5234 21.102 25.9766 21.727 25.8984 22.9184L25.293 30.5747C25.2148 31.5708 25.7422 32.313 26.6992 32.313C27.4414 32.313 27.7734 31.9809 28.2422 31.4341C28.9062 30.5161 29.8633 29.9497 31.0156 29.9497C33.1445 29.9497 34.3164 31.8638 34.3164 34.0317C34.3164 36.2974 33.1055 38.2505 30.9375 38.2505C29.2773 38.2505 28.125 37.1567 27.6367 35.7114C27.3438 35.0474 26.8945 34.7153 26.3086 34.7153C25.5078 34.7153 25.0195 35.2231 25.0195 36.0044C25.0195 36.2778 25.0781 36.5903 25.1562 36.8638C25.8008 39.2856 28.457 40.7309 30.957 40.7309Z" fill="black" fill-opacity="0.85"/>
 </g>
</svg>
