<?xml version="1.0" encoding="UTF-8"?>
<!--Generator: Apple Native CoreSVG 326-->
<!DOCTYPE svg
PUBLIC "-//W3C//DTD SVG 1.1//EN"
       "http://www.w3.org/Graphics/SVG/1.1/DTD/svg11.dtd">
<svg version="1.1" xmlns="http://www.w3.org/2000/svg" xmlns:xlink="http://www.w3.org/1999/xlink" viewBox="0 0 51.25 50.918">
 <g>
  <rect height="50.918" opacity="0" width="51.25" x="0" y="0"/>
  <path d="M25.4297 50.8789C39.4727 50.8789 50.8789 39.4922 50.8789 25.4492C50.8789 11.4062 39.4727 0 25.4297 0C11.3867 0 0 11.4062 0 25.4492C0 39.4922 11.3867 50.8789 25.4297 50.8789ZM25.4297 47.2461C13.3789 47.2461 3.63281 37.5 3.63281 25.4492C3.63281 13.3984 13.3789 3.65234 25.4297 3.65234C37.4805 3.65234 47.2266 13.3984 47.2266 25.4492C47.2266 37.5 37.4805 47.2461 25.4297 47.2461Z" fill="black" fill-opacity="0.85"/>
  <path d="M18.7305 35.8984C19.5898 35.8984 20.332 35.1758 20.332 34.2773L20.332 16.7383C20.332 15.625 19.6094 14.9609 18.4961 14.9609C17.5586 14.9609 16.8164 15.4492 16.2891 15.8789L13.3398 18.2031C12.9492 18.5156 12.6562 18.9258 12.6562 19.4922C12.6562 20.1953 13.125 20.6836 13.8086 20.6836C14.1602 20.6836 14.375 20.5664 14.5898 20.3906L17.1094 18.3789L17.1094 34.2773C17.1094 35.1758 17.832 35.8984 18.7305 35.8984ZM30.2734 36.1328C34.1016 36.1328 36.1914 32.8125 36.1914 28.9258C36.1914 25.4688 34.5312 22.2461 31.2695 22.2461C29.8242 22.2461 28.3984 22.9297 27.7344 24.4727L27.6367 24.4727L28.0859 17.8906L34.1211 17.8906C34.9023 17.8906 35.3711 17.3438 35.3711 16.582C35.3711 15.8398 34.8633 15.2734 34.1211 15.2734L27.2461 15.2734C26.0547 15.2734 25.5273 16.0352 25.4297 17.207L24.9805 24.4141C24.9609 24.8047 24.9414 25.2148 24.9414 25.5273C24.9414 26.3867 25.3906 27.1289 26.4062 27.1289C27.0508 27.1289 27.4023 26.8359 27.8516 26.2109C28.457 25.2734 29.1797 24.6094 30.293 24.6094C32.2852 24.6094 33.1055 27.0117 33.1055 29.0039C33.1055 31.25 32.2461 33.5352 30.2344 33.5352C28.7109 33.5352 27.7734 32.3633 27.3438 30.8594C27.0898 30.0977 26.6016 29.7656 25.9961 29.7656C25.1758 29.7656 24.668 30.293 24.668 31.1133C24.668 31.6016 24.8047 32.1289 24.9805 32.5781C25.8008 34.6875 27.9492 36.1328 30.2734 36.1328Z" fill="black" fill-opacity="0.85"/>
 </g>
</svg>
