<?xml version="1.0" encoding="UTF-8"?>
<!--Generator: Apple Native CoreSVG 326-->
<!DOCTYPE svg
PUBLIC "-//W3C//DTD SVG 1.1//EN"
       "http://www.w3.org/Graphics/SVG/1.1/DTD/svg11.dtd">
<svg version="1.1" xmlns="http://www.w3.org/2000/svg" xmlns:xlink="http://www.w3.org/1999/xlink" viewBox="0 0 51.25 50.918">
 <g>
  <rect height="50.918" opacity="0" width="51.25" x="0" y="0"/>
  <path d="M50.8789 25.4492C50.8789 39.4531 39.4531 50.8789 25.4297 50.8789C11.4258 50.8789 0 39.4531 0 25.4492C0 11.4258 11.4258 0 25.4297 0C39.4531 0 50.8789 11.4258 50.8789 25.4492ZM24.1992 21.875C24.1992 25.3516 25.8789 28.6719 29.2969 28.6719C31.4648 28.6719 33.0664 27.168 33.6328 24.9219L33.7305 24.9219C33.7305 25.0195 33.7305 25.1367 33.7305 25.2344C33.7305 28.2422 33.3398 33.6719 30.2344 33.6719C28.9258 33.6719 28.1055 32.7539 27.6172 31.4844C27.2852 30.6836 26.8359 30.3711 26.1523 30.3711C25.1953 30.3711 24.7852 31.0156 24.7852 31.7773C24.7852 32.0703 24.8438 32.4023 24.9414 32.7148C25.5078 35 27.6562 36.3477 30.1758 36.3477C35.3711 36.3477 36.8359 30.3516 36.8359 25.1953C36.8359 20.332 35.3125 14.5508 30.2344 14.5508C26.4062 14.5508 24.1992 17.8711 24.1992 21.875ZM16.0547 15.625L13.0469 18.0273C12.6367 18.3398 12.3438 18.7695 12.3438 19.3555C12.3438 20.0781 12.832 20.5859 13.5352 20.5859C13.8867 20.5859 14.1211 20.4688 14.3359 20.2734L16.9141 18.2227L16.9141 34.4727C16.9141 35.4102 17.6758 36.1523 18.5742 36.1523C19.4727 36.1523 20.2344 35.4102 20.2344 34.4727L20.2344 16.543C20.2344 15.3906 19.4922 14.6875 18.3398 14.6875C17.3828 14.6875 16.6016 15.2148 16.0547 15.625ZM33.2422 21.7383C33.2422 23.8867 32.2852 26.1328 30.2734 26.1328C28.2227 26.1328 27.3438 23.7891 27.3438 21.7383C27.3438 19.6289 28.3008 17.2266 30.2734 17.2266C32.3633 17.2266 33.2422 19.6484 33.2422 21.7383Z" fill="black" fill-opacity="0.85"/>
 </g>
</svg>
