<?xml version="1.0" encoding="UTF-8"?>
<!--Generator: Apple Native CoreSVG 326-->
<!DOCTYPE svg
PUBLIC "-//W3C//DTD SVG 1.1//EN"
       "http://www.w3.org/Graphics/SVG/1.1/DTD/svg11.dtd">
<svg version="1.1" xmlns="http://www.w3.org/2000/svg" xmlns:xlink="http://www.w3.org/1999/xlink" viewBox="0 0 46.2891 45.918">
 <g>
  <rect height="45.918" opacity="0" width="46.2891" x="0" y="0"/>
  <path d="M7.59766 45.918L38.3008 45.918C43.3594 45.918 45.918 43.3594 45.918 38.3984L45.918 7.53906C45.918 2.55859 43.3594 0 38.3008 0L7.59766 0C2.55859 0 0 2.53906 0 7.53906L0 38.3984C0 43.3984 2.55859 45.918 7.59766 45.918ZM7.67578 42.4609C4.94141 42.4609 3.45703 41.0156 3.45703 38.2031L3.45703 7.71484C3.45703 4.92188 4.94141 3.45703 7.67578 3.45703L38.2422 3.45703C40.918 3.45703 42.4609 4.92188 42.4609 7.71484L42.4609 38.2031C42.4609 41.0156 40.918 42.4609 38.2422 42.4609Z" fill="black" fill-opacity="0.85"/>
  <path d="M16.2695 33.3984C17.1289 33.3984 17.8711 32.6758 17.8711 31.7773L17.8711 14.2383C17.8711 13.125 17.1484 12.4609 16.0352 12.4609C15.1172 12.4609 14.3555 12.9492 13.8281 13.3789L10.8789 15.7031C10.4883 16.0156 10.1953 16.4258 10.1953 16.9922C10.1953 17.6953 10.6641 18.1836 11.3477 18.1836C11.6992 18.1836 11.9141 18.0664 12.1289 17.8906L14.6484 15.8789L14.6484 31.7773C14.6484 32.6758 15.3906 33.3984 16.2695 33.3984ZM26.7188 26.0938C28.8477 26.0938 30.3906 24.6289 30.9375 22.4219L31.0352 22.4219C31.0352 22.5195 31.0352 22.6367 31.0352 22.7344C31.0352 25.6836 30.6445 30.9766 27.6172 30.9766C26.3477 30.9766 25.5273 30.0977 25.0586 28.8477C24.7266 28.0664 24.2773 27.7539 23.6328 27.7539C22.6953 27.7539 22.3047 28.3789 22.3047 29.1211C22.3047 29.3945 22.3633 29.7266 22.4609 30.0391C23.0273 32.2656 25.1172 33.5938 27.5781 33.5938C32.6367 33.5938 34.043 27.7344 34.043 22.6953C34.043 17.9492 32.5781 12.3047 27.6172 12.3047C23.8867 12.3047 21.7383 15.5469 21.7383 19.4727C21.7383 22.8516 23.3789 26.0938 26.7188 26.0938ZM27.6562 23.6328C25.6445 23.6328 24.7852 21.3477 24.7852 19.3359C24.7852 17.2656 25.7227 14.9023 27.6562 14.9023C29.707 14.9023 30.5859 17.2852 30.5859 19.3359C30.5859 21.4258 29.6094 23.6328 27.6562 23.6328Z" fill="black" fill-opacity="0.85"/>
 </g>
</svg>
