<?xml version="1.0" encoding="UTF-8"?>
<!--Generator: Apple Native CoreSVG 326-->
<!DOCTYPE svg
PUBLIC "-//W3C//DTD SVG 1.1//EN"
       "http://www.w3.org/Graphics/SVG/1.1/DTD/svg11.dtd">
<svg version="1.1" xmlns="http://www.w3.org/2000/svg" xmlns:xlink="http://www.w3.org/1999/xlink" viewBox="0 0 51.25 50.918">
 <g>
  <rect height="50.918" opacity="0" width="51.25" x="0" y="0"/>
  <path d="M50.8789 25.4492C50.8789 39.4531 39.4531 50.8789 25.4297 50.8789C11.4258 50.8789 0 39.4531 0 25.4492C0 11.4258 11.4258 0 25.4297 0C39.4531 0 50.8789 11.4258 50.8789 25.4492ZM17.9883 18.418C17.8711 18.7695 17.8516 19.0625 17.8516 19.3945C17.8516 20.2539 18.4375 20.8398 19.3359 20.8398C20.1562 20.8398 20.5859 20.3516 20.918 19.668C21.5234 17.8711 23.0664 16.1523 25.7031 16.1523C28.3203 16.1523 30.0391 17.6758 30.0391 19.9414C30.0391 21.8164 28.6133 23.418 27.0117 25.1367L18.5938 34.2383C18.2031 34.668 17.9883 35.1172 17.9883 35.5859C17.9883 36.5039 18.5938 37.0898 19.6094 37.0898L32.8516 37.0898C33.7305 37.0898 34.3555 36.5039 34.3555 35.6055C34.3555 34.6875 33.7305 34.1211 32.8516 34.1211L22.9492 34.1211L22.9492 33.9648L29.3945 26.9727C31.7773 24.4336 33.2422 22.4219 33.2422 19.707C33.2422 15.8398 30.1953 13.2812 25.5664 13.2812C21.9336 13.2812 18.7305 15.4883 17.9883 18.418Z" fill="black" fill-opacity="0.85"/>
 </g>
</svg>
