<?xml version="1.0" encoding="UTF-8"?>
<!--Generator: Apple Native CoreSVG 326-->
<!DOCTYPE svg
PUBLIC "-//W3C//DTD SVG 1.1//EN"
       "http://www.w3.org/Graphics/SVG/1.1/DTD/svg11.dtd">
<svg version="1.1" xmlns="http://www.w3.org/2000/svg" xmlns:xlink="http://www.w3.org/1999/xlink" viewBox="0 0 46.2891 37.9492">
 <g>
  <rect height="37.9492" opacity="0" width="46.2891" x="0" y="0"/>
  <path d="M0 36.2109C0 37.168 0.78125 37.9492 1.73828 37.9492C2.67578 37.9492 3.45703 37.168 3.45703 36.2109L3.45703 1.79688C3.45703 0.839844 2.67578 0.0585938 1.73828 0.0585938C0.78125 0.0585938 0 0.839844 0 1.79688ZM42.4609 36.2109C42.4609 37.168 43.2422 37.9492 44.1797 37.9492C45.1367 37.9492 45.918 37.168 45.918 36.2109L45.918 1.79688C45.918 0.839844 45.1367 0.0585938 44.1797 0.0585938C43.2422 0.0585938 42.4609 0.839844 42.4609 1.79688Z" fill="black" fill-opacity="0.85"/>
  <path d="M17.793 30.4883L28.4766 30.4883C29.3555 30.4883 29.9023 29.9414 29.9023 29.0625C29.9023 28.1836 29.3555 27.6562 28.4766 27.6562L20.5664 27.6562L20.5664 27.4805L25.1367 22.3438C26.1719 21.1914 26.9922 20.1758 27.6172 19.3164C28.6914 17.8125 29.3555 16.3477 29.3555 14.4922C29.3555 10.6836 26.5234 8.26172 22.7344 8.26172C19.4531 8.26172 16.8945 10.4883 16.3281 13.0078C16.25 13.3398 16.2109 13.6523 16.2109 13.9648C16.2109 14.8633 16.7578 15.4492 17.6758 15.4492C18.457 15.4492 18.9453 15.0195 19.2188 14.2969C19.6484 12.4023 20.8008 11.0547 22.7148 11.0547C24.7656 11.0547 25.9961 12.6172 25.9961 14.6289C25.9961 16.0352 25.4883 17.1094 24.6875 18.2617C24.1992 18.9844 23.5156 19.8633 22.6172 20.8984L17.0898 27.168C16.582 27.7148 16.1523 28.2422 16.1523 29.043C16.1523 29.7656 16.582 30.4883 17.793 30.4883Z" fill="black" fill-opacity="0.85"/>
 </g>
</svg>
