<?xml version="1.0" encoding="UTF-8"?>
<!--Generator: Apple Native CoreSVG 326-->
<!DOCTYPE svg
PUBLIC "-//W3C//DTD SVG 1.1//EN"
       "http://www.w3.org/Graphics/SVG/1.1/DTD/svg11.dtd">
<svg version="1.1" xmlns="http://www.w3.org/2000/svg" xmlns:xlink="http://www.w3.org/1999/xlink" viewBox="0 0 51.25 50.918">
 <g>
  <rect height="50.918" opacity="0" width="51.25" x="0" y="0"/>
  <path d="M25.4297 50.8789C39.4727 50.8789 50.8789 39.4922 50.8789 25.4492C50.8789 11.4062 39.4727 0 25.4297 0C11.3867 0 0 11.4062 0 25.4492C0 39.4922 11.3867 50.8789 25.4297 50.8789ZM25.4297 47.2461C13.3789 47.2461 3.63281 37.5 3.63281 25.4492C3.63281 13.3984 13.3789 3.65234 25.4297 3.65234C37.4805 3.65234 47.2266 13.3984 47.2266 25.4492C47.2266 37.5 37.4805 47.2461 25.4297 47.2461Z" fill="black" fill-opacity="0.85"/>
  <path d="M13.8086 35.6445L22.5195 35.6445C23.3008 35.6445 23.7891 35.1172 23.7891 34.3359C23.7891 33.5156 23.2812 33.0273 22.5195 33.0273L16.25 33.0273L16.25 32.8516L20.1953 27.6758C22.5977 24.6289 23.3984 22.7734 23.3984 20.5859C23.3984 17.2461 21.2305 14.7656 17.8125 14.7656C14.668 14.7656 12.3438 17.4414 12.3438 20.0781C12.3438 20.8789 12.8125 21.4648 13.6719 21.4648C14.3945 21.4648 14.8633 21.1328 15.0586 20.4102C15.5078 18.5547 16.2305 17.3438 17.8125 17.3438C19.5117 17.3438 20.3906 18.9062 20.3906 20.7227C20.3906 22.7148 19.1602 24.668 17.7539 26.5039L13.1055 32.5977C12.6953 33.125 12.3047 33.6719 12.3047 34.3359C12.3047 35.0977 12.8125 35.6445 13.8086 35.6445ZM32.832 36.1328C37.7539 36.1328 39.1406 30.3516 39.1406 25.4492C39.1406 20.5469 37.7539 14.7656 32.832 14.7656C27.8906 14.7656 26.5039 20.5469 26.5039 25.4492C26.5039 30.3516 27.8906 36.1328 32.832 36.1328ZM32.832 33.4961C30.4492 33.4961 29.7266 29.6289 29.7266 25.4492C29.7266 21.25 30.4492 17.4023 32.832 17.4023C35.1953 17.4023 35.9375 21.25 35.9375 25.4492C35.9375 29.6289 35.1953 33.4961 32.832 33.4961Z" fill="black" fill-opacity="0.85"/>
 </g>
</svg>
