<?xml version="1.0" encoding="UTF-8"?>
<!--Generator: Apple Native CoreSVG 326-->
<!DOCTYPE svg
PUBLIC "-//W3C//DTD SVG 1.1//EN"
       "http://www.w3.org/Graphics/SVG/1.1/DTD/svg11.dtd">
<svg version="1.1" xmlns="http://www.w3.org/2000/svg" xmlns:xlink="http://www.w3.org/1999/xlink" viewBox="0 0 46.2891 45.918">
 <g>
  <rect height="45.918" opacity="0" width="46.2891" x="0" y="0"/>
  <path d="M7.59766 45.918L38.3008 45.918C43.3594 45.918 45.918 43.3594 45.918 38.3984L45.918 7.53906C45.918 2.55859 43.3594 0 38.3008 0L7.59766 0C2.55859 0 0 2.53906 0 7.53906L0 38.3984C0 43.3984 2.55859 45.918 7.59766 45.918ZM7.67578 42.4609C4.94141 42.4609 3.45703 41.0156 3.45703 38.2031L3.45703 7.71484C3.45703 4.92188 4.94141 3.45703 7.67578 3.45703L38.2422 3.45703C40.918 3.45703 42.4609 4.92188 42.4609 7.71484L42.4609 38.2031C42.4609 41.0156 40.918 42.4609 38.2422 42.4609Z" fill="black" fill-opacity="0.85"/>
  <path d="M11.3672 33.1445L20.0781 33.1445C20.8594 33.1445 21.3477 32.6172 21.3477 31.8359C21.3477 31.0156 20.8398 30.5273 20.0781 30.5273L13.8086 30.5273L13.8086 30.3516L17.7539 25.1758C20.1562 22.1289 20.9375 20.2734 20.9375 18.0859C20.9375 14.7461 18.7891 12.2656 15.3711 12.2656C12.2266 12.2656 9.90234 14.9414 9.90234 17.5781C9.90234 18.3789 10.3711 18.9648 11.2305 18.9648C11.9531 18.9648 12.4219 18.6328 12.6172 17.9102C13.0664 16.0547 13.7695 14.8438 15.3711 14.8438C17.0703 14.8438 17.9492 16.4062 17.9492 18.2227C17.9492 20.2148 16.7188 22.168 15.3125 24.0039L10.6641 30.0977C10.2539 30.625 9.86328 31.1719 9.86328 31.8359C9.86328 32.5977 10.3711 33.1445 11.3672 33.1445ZM30.3711 33.6328C35.3125 33.6328 36.6992 27.8516 36.6992 22.9492C36.6992 18.0469 35.3125 12.2656 30.3711 12.2656C25.4492 12.2656 24.0625 18.0469 24.0625 22.9492C24.0625 27.8516 25.4492 33.6328 30.3711 33.6328ZM30.3711 30.9961C28.0078 30.9961 27.2852 27.1289 27.2852 22.9492C27.2852 18.75 28.0078 14.9023 30.3711 14.9023C32.7539 14.9023 33.4766 18.75 33.4766 22.9492C33.4766 27.1289 32.7539 30.9961 30.3711 30.9961Z" fill="black" fill-opacity="0.85"/>
 </g>
</svg>
