<?xml version="1.0" encoding="UTF-8"?>
<!--Generator: Apple Native CoreSVG 326-->
<!DOCTYPE svg
PUBLIC "-//W3C//DTD SVG 1.1//EN"
       "http://www.w3.org/Graphics/SVG/1.1/DTD/svg11.dtd">
<svg version="1.1" xmlns="http://www.w3.org/2000/svg" xmlns:xlink="http://www.w3.org/1999/xlink" viewBox="0 0 51.25 50.918">
 <g>
  <rect height="50.918" opacity="0" width="51.25" x="0" y="0"/>
  <path d="M50.8789 25.4492C50.8789 39.4531 39.4531 50.8789 25.4297 50.8789C11.4258 50.8789 0 39.4531 0 25.4492C0 11.4258 11.4258 0 25.4297 0C39.4531 0 50.8789 11.4258 50.8789 25.4492ZM31.5625 15.6445L28.5547 18.0273C28.1445 18.3398 27.832 18.7695 27.832 19.3555C27.832 20.0781 28.3203 20.5859 29.0234 20.5859C29.3945 20.5859 29.6094 20.4688 29.8633 20.293L32.4023 18.2227L32.4023 34.4922C32.4023 35.4102 33.1641 36.1523 34.1016 36.1523C34.9805 36.1523 35.7227 35.4102 35.7227 34.4922L35.7227 16.543C35.7227 15.3906 35 14.6875 33.8281 14.6875C32.8906 14.6875 32.1094 15.2148 31.5625 15.6445ZM13.8672 19.9414C13.8672 20.7617 14.3359 21.3867 15.2344 21.3867C15.9766 21.3867 16.4453 21.0352 16.6602 20.293C17.1094 18.3984 17.832 17.168 19.4531 17.168C21.2109 17.168 22.1094 18.75 22.1094 20.6055C22.1094 22.6562 20.8398 24.668 19.3945 26.543L14.6289 32.7539C14.1992 33.3008 13.8281 33.8672 13.8281 34.5703C13.8281 35.332 14.3164 35.8984 15.3516 35.8984L24.2969 35.8984C25.0977 35.8984 25.6055 35.3516 25.6055 34.5508C25.6055 33.6914 25.0781 33.2031 24.2969 33.2031L17.8711 33.2031L17.8711 33.0078L21.9141 27.7344C24.375 24.6094 25.1953 22.7148 25.1953 20.4688C25.1953 17.0508 22.9492 14.5117 19.4727 14.5117C16.2305 14.5117 13.8672 17.2461 13.8672 19.9414Z" fill="black" fill-opacity="0.85"/>
 </g>
</svg>
