<?xml version="1.0" encoding="UTF-8"?>
<!--Generator: Apple Native CoreSVG 326-->
<!DOCTYPE svg
PUBLIC "-//W3C//DTD SVG 1.1//EN"
       "http://www.w3.org/Graphics/SVG/1.1/DTD/svg11.dtd">
<svg version="1.1" xmlns="http://www.w3.org/2000/svg" xmlns:xlink="http://www.w3.org/1999/xlink" viewBox="0 0 46.2891 45.918">
 <g>
  <rect height="45.918" opacity="0" width="46.2891" x="0" y="0"/>
  <path d="M7.59766 45.918L38.3008 45.918C43.3594 45.918 45.918 43.3594 45.918 38.3984L45.918 7.53906C45.918 2.55859 43.3594 0 38.3008 0L7.59766 0C2.55859 0 0 2.53906 0 7.53906L0 38.3984C0 43.3984 2.55859 45.918 7.59766 45.918ZM7.67578 42.4609C4.94141 42.4609 3.45703 41.0156 3.45703 38.2031L3.45703 7.71484C3.45703 4.92188 4.94141 3.45703 7.67578 3.45703L38.2422 3.45703C40.918 3.45703 42.4609 4.92188 42.4609 7.71484L42.4609 38.2031C42.4609 41.0156 40.918 42.4609 38.2422 42.4609Z" fill="black" fill-opacity="0.85"/>
  <path d="M13.125 33.1445L21.8555 33.1445C22.6367 33.1445 23.125 32.6172 23.125 31.8359C23.125 31.0156 22.6172 30.5273 21.8555 30.5273L15.5664 30.5273L15.5664 30.3516L19.5312 25.1758C21.9141 22.1289 22.7148 20.2734 22.7148 18.0859C22.7148 14.7461 20.5469 12.2656 17.1484 12.2656C13.9844 12.2656 11.6797 14.9414 11.6797 17.5781C11.6797 18.3789 12.1484 18.9648 13.0078 18.9648C13.7305 18.9648 14.1797 18.6328 14.3945 17.9102C14.8242 16.0547 15.5469 14.8438 17.1289 14.8438C18.8477 14.8438 19.7266 16.4062 19.7266 18.2227C19.7266 20.2148 18.4961 22.168 17.0898 24.0039L12.4219 30.0977C12.0117 30.625 11.6406 31.1719 11.6406 31.8359C11.6406 32.5977 12.1484 33.1445 13.125 33.1445ZM31.3867 33.3984C32.2461 33.3984 32.9883 32.6758 32.9883 31.7773L32.9883 14.2383C32.9883 13.125 32.2656 12.4609 31.1523 12.4609C30.2344 12.4609 29.4727 12.9492 28.9453 13.3789L25.9961 15.7031C25.6055 16.0156 25.3125 16.4258 25.3125 16.9922C25.3125 17.6953 25.7812 18.1836 26.4648 18.1836C26.8164 18.1836 27.0312 18.0664 27.2461 17.8906L29.7656 15.8789L29.7656 31.7773C29.7656 32.6758 30.5078 33.3984 31.3867 33.3984Z" fill="black" fill-opacity="0.85"/>
 </g>
</svg>
