<?xml version="1.0" encoding="UTF-8"?>
<!--Generator: Apple Native CoreSVG 326-->
<!DOCTYPE svg
PUBLIC "-//W3C//DTD SVG 1.1//EN"
       "http://www.w3.org/Graphics/SVG/1.1/DTD/svg11.dtd">
<svg version="1.1" xmlns="http://www.w3.org/2000/svg" xmlns:xlink="http://www.w3.org/1999/xlink" viewBox="0 0 51.25 50.918">
 <g>
  <rect height="50.918" opacity="0" width="51.25" x="0" y="0"/>
  <path d="M25.4297 50.8789C39.4727 50.8789 50.8789 39.4922 50.8789 25.4492C50.8789 11.4062 39.4727 0 25.4297 0C11.3867 0 0 11.4062 0 25.4492C0 39.4922 11.3867 50.8789 25.4297 50.8789ZM25.4297 47.2461C13.3789 47.2461 3.63281 37.5 3.63281 25.4492C3.63281 13.3984 13.3789 3.65234 25.4297 3.65234C37.4805 3.65234 47.2266 13.3984 47.2266 25.4492C47.2266 37.5 37.4805 47.2461 25.4297 47.2461Z" fill="black" fill-opacity="0.85"/>
  <path d="M14.1992 35.6445L22.9102 35.6445C23.6914 35.6445 24.1797 35.1172 24.1797 34.3359C24.1797 33.5156 23.6719 33.0273 22.9102 33.0273L16.6406 33.0273L16.6406 32.8516L20.5859 27.6758C22.9883 24.6289 23.7695 22.7734 23.7695 20.5859C23.7695 17.2461 21.6211 14.7656 18.2031 14.7656C15.0586 14.7656 12.7344 17.4414 12.7344 20.0781C12.7344 20.8789 13.2031 21.4648 14.0625 21.4648C14.7852 21.4648 15.2539 21.1328 15.4492 20.4102C15.8984 18.5547 16.6016 17.3438 18.2031 17.3438C19.9023 17.3438 20.7812 18.9062 20.7812 20.7227C20.7812 22.7148 19.5508 24.668 18.1445 26.5039L13.4961 32.5977C13.0859 33.125 12.6953 33.6719 12.6953 34.3359C12.6953 35.0977 13.2031 35.6445 14.1992 35.6445ZM28.3398 35.6445L37.0508 35.6445C37.832 35.6445 38.3203 35.1172 38.3203 34.3359C38.3203 33.5156 37.8125 33.0273 37.0508 33.0273L30.7812 33.0273L30.7812 32.8516L34.7461 27.6758C37.1289 24.6289 37.9297 22.7734 37.9297 20.5859C37.9297 17.2461 35.7617 14.7656 32.3438 14.7656C29.1992 14.7656 26.875 17.4414 26.875 20.0781C26.875 20.8789 27.3438 21.4648 28.2031 21.4648C28.9453 21.4648 29.3945 21.1328 29.6094 20.4102C30.0391 18.5547 30.7617 17.3438 32.3438 17.3438C34.0625 17.3438 34.9414 18.9062 34.9414 20.7227C34.9414 22.7148 33.6914 24.668 32.2852 26.5039L27.6367 32.5977C27.2266 33.125 26.8555 33.6719 26.8555 34.3359C26.8555 35.0977 27.3438 35.6445 28.3398 35.6445Z" fill="black" fill-opacity="0.85"/>
 </g>
</svg>
