<?xml version="1.0" encoding="UTF-8"?>
<!--Generator: Apple Native CoreSVG 326-->
<!DOCTYPE svg
PUBLIC "-//W3C//DTD SVG 1.1//EN"
       "http://www.w3.org/Graphics/SVG/1.1/DTD/svg11.dtd">
<svg version="1.1" xmlns="http://www.w3.org/2000/svg" xmlns:xlink="http://www.w3.org/1999/xlink" viewBox="0 0 51.25 50.918">
 <g>
  <rect height="50.918" opacity="0" width="51.25" x="0" y="0"/>
  <path d="M50.8789 25.4492C50.8789 39.4531 39.4531 50.8789 25.4297 50.8789C11.4258 50.8789 0 39.4531 0 25.4492C0 11.4258 11.4258 0 25.4297 0C39.4531 0 50.8789 11.4258 50.8789 25.4492ZM27.207 18.3789C27.0508 18.8867 27.0117 19.3555 27.0117 19.7656C27.0117 20.5078 27.4805 21.1133 28.3984 21.1133C29.1992 21.1133 29.6289 20.7812 29.8438 20C30.2539 18.3789 31.1133 17.2461 32.7344 17.2461C34.5508 17.2461 35.4492 18.6719 35.4492 20.5078C35.4492 22.4805 34.3164 23.9648 32.2656 23.9648L31.543 23.9648C30.7617 23.9648 30.293 24.4531 30.293 25.1953C30.293 25.9375 30.8008 26.4062 31.543 26.4062L32.3047 26.4062C34.6094 26.4062 35.918 27.6758 35.918 30.0781C35.918 31.9922 34.9023 33.6328 32.832 33.6328C30.8398 33.6328 29.8828 32.2461 29.5898 30.957C29.3555 30.1758 28.9062 29.7852 28.1445 29.7852C27.2461 29.7852 26.6602 30.332 26.6602 31.2109C26.6602 31.6602 26.7188 32.1484 26.8555 32.5586C27.5977 34.9219 30.0781 36.3086 32.8125 36.3086C36.4258 36.3086 39.1406 34.0039 39.1406 30.1562C39.1406 27.0508 37.3633 25.3516 35.0586 25.1172L35.0586 25.0391C37.4023 24.4141 38.5547 22.3242 38.5547 20.1367C38.5547 16.6602 36.0156 14.6094 32.7344 14.6094C30.0977 14.6094 27.9297 16.1133 27.207 18.3789ZM12.1094 19.9414C12.1094 20.7617 12.5781 21.3867 13.4766 21.3867C14.2188 21.3867 14.707 21.0352 14.9023 20.293C15.3711 18.3984 16.0742 17.168 17.7148 17.168C19.4531 17.168 20.3516 18.75 20.3516 20.6055C20.3516 22.6562 19.082 24.668 17.6367 26.5234L12.8906 32.7539C12.4609 33.3008 12.0703 33.8477 12.0703 34.5703C12.0703 35.332 12.5781 35.8984 13.6133 35.8984L22.5391 35.8984C23.3398 35.8984 23.8477 35.3516 23.8477 34.5508C23.8477 33.6914 23.3203 33.1836 22.5391 33.1836L16.1328 33.1836L16.1328 33.0078L20.1562 27.7344C22.6172 24.6094 23.457 22.7148 23.457 20.4688C23.457 17.0508 21.2109 14.5117 17.7148 14.5117C14.4922 14.5117 12.1094 17.2461 12.1094 19.9414Z" fill="black" fill-opacity="0.85"/>
 </g>
</svg>
