<?xml version="1.0" encoding="UTF-8"?>
<!--Generator: Apple Native CoreSVG 326-->
<!DOCTYPE svg
PUBLIC "-//W3C//DTD SVG 1.1//EN"
       "http://www.w3.org/Graphics/SVG/1.1/DTD/svg11.dtd">
<svg version="1.1" xmlns="http://www.w3.org/2000/svg" xmlns:xlink="http://www.w3.org/1999/xlink" viewBox="0 0 51.25 50.918">
 <g>
  <rect height="50.918" opacity="0" width="51.25" x="0" y="0"/>
  <path d="M50.8789 25.4492C50.8789 39.4531 39.4531 50.8789 25.4297 50.8789C11.4258 50.8789 0 39.4531 0 25.4492C0 11.4258 11.4258 0 25.4297 0C39.4531 0 50.8789 11.4258 50.8789 25.4492ZM31.5234 16.9531L26.5039 27.5391C26.1328 28.418 25.9766 29.0039 25.9766 29.7266C25.9766 30.8398 26.7578 31.6016 27.8906 31.6016L33.9062 31.6016L33.9062 34.5703C33.9062 35.7617 34.7266 36.2109 35.4688 36.2109C36.3477 36.2109 37.0312 35.6445 37.0312 34.5703L37.0312 31.6016L38.125 31.6016C39.0039 31.6016 39.4336 31.0352 39.4336 30.2539C39.4336 29.5117 39.0234 28.9453 38.125 28.9453L37.0312 28.9453L37.0312 17.1484C37.0312 15.5273 35.9766 14.6875 34.5312 14.6875C32.9102 14.6875 32.168 15.5078 31.5234 16.9531ZM12.0117 19.9414C12.0117 20.7617 12.5 21.3867 13.3789 21.3867C14.1406 21.3867 14.5898 21.0352 14.8242 20.293C15.2734 18.3984 15.9961 17.168 17.6172 17.168C19.3555 17.168 20.2539 18.75 20.2539 20.6055C20.2539 22.6562 18.9844 24.668 17.5586 26.543L12.793 32.7539C12.3633 33.3008 11.9727 33.8672 11.9727 34.5703C11.9727 35.332 12.4805 35.8984 13.5156 35.8984L22.4609 35.8984C23.2617 35.8984 23.7695 35.3516 23.7695 34.5508C23.7695 33.6914 23.2422 33.2031 22.4609 33.2031L16.0352 33.2031L16.0352 33.0078L20.0781 27.7344C22.5195 24.6094 23.3398 22.7148 23.3398 20.4688C23.3398 17.0508 21.1133 14.5117 17.6367 14.5117C14.3945 14.5117 12.0117 17.2461 12.0117 19.9414ZM33.9648 29.0039L28.8281 29.0039L28.8281 28.8672L33.8672 17.6562L33.9648 17.6562Z" fill="black" fill-opacity="0.85"/>
 </g>
</svg>
