<?xml version="1.0" encoding="UTF-8"?>
<!--Generator: Apple Native CoreSVG 326-->
<!DOCTYPE svg
PUBLIC "-//W3C//DTD SVG 1.1//EN"
       "http://www.w3.org/Graphics/SVG/1.1/DTD/svg11.dtd">
<svg version="1.1" xmlns="http://www.w3.org/2000/svg" xmlns:xlink="http://www.w3.org/1999/xlink" viewBox="0 0 46.2891 45.918">
 <g>
  <rect height="45.918" opacity="0" width="46.2891" x="0" y="0"/>
  <path d="M7.59766 45.918L38.3008 45.918C43.3594 45.918 45.918 43.3594 45.918 38.3984L45.918 7.53906C45.918 2.55859 43.3594 0 38.3008 0L7.59766 0C2.55859 0 0 2.53906 0 7.53906L0 38.3984C0 43.3984 2.55859 45.918 7.59766 45.918ZM7.67578 42.4609C4.94141 42.4609 3.45703 41.0156 3.45703 38.2031L3.45703 7.71484C3.45703 4.92188 4.94141 3.45703 7.67578 3.45703L38.2422 3.45703C40.918 3.45703 42.4609 4.92188 42.4609 7.71484L42.4609 38.2031C42.4609 41.0156 40.918 42.4609 38.2422 42.4609Z" fill="black" fill-opacity="0.85"/>
  <path d="M11.1914 33.1445L19.9023 33.1445C20.6836 33.1445 21.1719 32.6172 21.1719 31.8359C21.1719 31.0156 20.6641 30.5273 19.9023 30.5273L13.6328 30.5273L13.6328 30.3516L17.5781 25.1758C19.9805 22.1289 20.7812 20.2734 20.7812 18.0859C20.7812 14.7461 18.6133 12.2656 15.1953 12.2656C12.0508 12.2656 9.72656 14.9414 9.72656 17.5781C9.72656 18.3789 10.1953 18.9648 11.0547 18.9648C11.7773 18.9648 12.2461 18.6328 12.4414 17.9102C12.8906 16.0547 13.6133 14.8438 15.1953 14.8438C16.8945 14.8438 17.7734 16.4062 17.7734 18.2227C17.7734 20.2148 16.543 22.168 15.1367 24.0039L10.4883 30.0977C10.0781 30.625 9.6875 31.1719 9.6875 31.8359C9.6875 32.5977 10.1953 33.1445 11.1914 33.1445ZM29.8828 33.6328C33.7109 33.6328 35.7812 30.3125 35.7812 26.4258C35.7812 22.9688 34.1211 19.7461 30.8789 19.7461C29.4141 19.7461 28.0078 20.4297 27.3242 21.9727L27.2266 21.9727L27.6758 15.3906L33.7305 15.3906C34.4922 15.3906 34.9805 14.8438 34.9805 14.082C34.9805 13.3398 34.4727 12.7734 33.7305 12.7734L26.8359 12.7734C25.6445 12.7734 25.1172 13.5352 25.0391 14.707L24.5898 21.9141C24.5508 22.3047 24.5312 22.7148 24.5312 23.0273C24.5312 23.8867 24.9805 24.6289 25.9961 24.6289C26.6406 24.6289 26.9922 24.3359 27.4609 23.7109C28.0469 22.7734 28.7891 22.1094 29.8828 22.1094C31.8945 22.1094 32.6953 24.5117 32.6953 26.5039C32.6953 28.75 31.8555 31.0352 29.8438 31.0352C28.3008 31.0352 27.3828 29.8633 26.9531 28.3594C26.6992 27.5977 26.1914 27.2656 25.6055 27.2656C24.7852 27.2656 24.2773 27.793 24.2773 28.6133C24.2773 29.1016 24.4141 29.6289 24.5898 30.0781C25.4102 32.1875 27.5391 33.6328 29.8828 33.6328Z" fill="black" fill-opacity="0.85"/>
 </g>
</svg>
