<?xml version="1.0" encoding="UTF-8"?>
<!--Generator: Apple Native CoreSVG 326-->
<!DOCTYPE svg
PUBLIC "-//W3C//DTD SVG 1.1//EN"
       "http://www.w3.org/Graphics/SVG/1.1/DTD/svg11.dtd">
<svg version="1.1" xmlns="http://www.w3.org/2000/svg" xmlns:xlink="http://www.w3.org/1999/xlink" viewBox="0 0 46.2891 45.918">
 <g>
  <rect height="45.918" opacity="0" width="46.2891" x="0" y="0"/>
  <path d="M45.918 7.53906L45.918 38.3984C45.918 43.3594 43.3594 45.918 38.3008 45.918L7.59766 45.918C2.55859 45.918 0 43.3984 0 38.3984L0 7.53906C0 2.53906 2.55859 0 7.59766 0L38.3008 0C43.3594 0 45.918 2.55859 45.918 7.53906ZM26.9531 12.5C25.7227 12.5 25.1758 13.3203 25.0977 14.5117L24.6289 21.875C24.5898 22.2852 24.5898 22.6953 24.5898 23.0273C24.5898 23.9062 25.0391 24.668 26.0938 24.668C26.7578 24.668 27.1094 24.375 27.5977 23.7305C28.2227 22.7734 28.9453 22.1094 30.0781 22.1094C32.1094 22.1094 32.9492 24.5508 32.9492 26.582C32.9492 28.8867 32.0703 31.2109 30.0195 31.2109C28.457 31.2109 27.5195 30.0195 27.0703 28.4961C26.8164 27.7148 26.2891 27.3633 25.6836 27.3633C24.8438 27.3633 24.3164 27.9102 24.3164 28.75C24.3164 29.2578 24.4531 29.8047 24.6484 30.2539C25.4883 32.4219 27.6758 33.8867 30.0586 33.8867C33.9844 33.8867 36.1133 30.4883 36.1133 26.5039C36.1133 22.9688 34.4141 19.668 31.0938 19.668C29.6094 19.668 28.1641 20.3711 27.4609 21.9531L27.3633 21.9531L27.8125 15.2344L34.0039 15.2344C34.8242 15.2344 35.293 14.668 35.293 13.8477C35.293 13.0859 34.7852 12.5 34.0039 12.5ZM9.39453 17.4414C9.39453 18.2617 9.88281 18.8672 10.7617 18.8672C11.5039 18.8672 11.9922 18.5352 12.1875 17.793C12.6562 15.8984 13.3789 14.668 15 14.668C16.7383 14.668 17.6367 16.25 17.6367 18.1055C17.6367 20.1562 16.3672 22.168 14.9219 24.0234L10.1758 30.2539C9.74609 30.7812 9.35547 31.3477 9.35547 32.0703C9.35547 32.832 9.88281 33.3984 10.8984 33.3984L19.8242 33.3984C20.625 33.3984 21.1328 32.8516 21.1328 32.0508C21.1328 31.1914 20.6055 30.6836 19.8242 30.6836L13.418 30.6836L13.418 30.5078L17.4414 25.2344C19.9219 22.1094 20.7422 20.2148 20.7422 17.9688C20.7422 14.5508 18.5156 12.0117 15 12.0117C11.7773 12.0117 9.39453 14.7461 9.39453 17.4414Z" fill="black" fill-opacity="0.85"/>
 </g>
</svg>
