<?xml version="1.0" encoding="UTF-8"?>
<!--Generator: Apple Native CoreSVG 326-->
<!DOCTYPE svg
PUBLIC "-//W3C//DTD SVG 1.1//EN"
       "http://www.w3.org/Graphics/SVG/1.1/DTD/svg11.dtd">
<svg version="1.1" xmlns="http://www.w3.org/2000/svg" xmlns:xlink="http://www.w3.org/1999/xlink" viewBox="0 0 51.25 50.918">
 <g>
  <rect height="50.918" opacity="0" width="51.25" x="0" y="0"/>
  <path d="M25.4297 50.8789C39.4727 50.8789 50.8789 39.4922 50.8789 25.4492C50.8789 11.4062 39.4727 0 25.4297 0C11.3867 0 0 11.4062 0 25.4492C0 39.4922 11.3867 50.8789 25.4297 50.8789ZM25.4297 47.2461C13.3789 47.2461 3.63281 37.5 3.63281 25.4492C3.63281 13.3984 13.3789 3.65234 25.4297 3.65234C37.4805 3.65234 47.2266 13.3984 47.2266 25.4492C47.2266 37.5 37.4805 47.2461 25.4297 47.2461Z" fill="black" fill-opacity="0.85"/>
  <path d="M13.5938 35.6445L22.3047 35.6445C23.0859 35.6445 23.5742 35.1172 23.5742 34.3359C23.5742 33.5156 23.0664 33.0273 22.3047 33.0273L16.0156 33.0273L16.0156 32.8516L19.9805 27.6758C22.3828 24.6289 23.1641 22.7734 23.1641 20.5859C23.1641 17.2461 21.0156 14.7656 17.5977 14.7656C14.4531 14.7656 12.1289 17.4414 12.1289 20.0781C12.1289 20.8789 12.5977 21.4648 13.457 21.4648C14.1797 21.4648 14.6289 21.1328 14.8438 20.4102C15.293 18.5547 15.9961 17.3438 17.5977 17.3438C19.2969 17.3438 20.1758 18.9062 20.1758 20.7227C20.1758 22.7148 18.9453 24.668 17.5391 26.5039L12.8906 32.5977C12.4805 33.125 12.0898 33.6719 12.0898 34.3359C12.0898 35.0977 12.5977 35.6445 13.5938 35.6445ZM32.7344 36.1328C36.4844 36.1328 38.6133 32.8906 38.6133 28.9844C38.6133 25.5859 36.9727 22.3242 33.6133 22.3242C31.4844 22.3242 29.9414 23.8086 29.3945 26.0156L29.2969 26.0156C29.2969 25.918 29.2969 25.8008 29.2969 25.7031C29.2969 22.7539 29.6875 17.4023 32.6953 17.4023C33.9844 17.4023 34.8242 18.3398 35.2734 19.5508C35.5859 20.2344 35.9766 20.6055 36.7188 20.6055C37.5977 20.6055 38.0078 20.0195 38.0078 19.2773C38.0078 19.0039 37.9492 18.6914 37.8711 18.3594C37.3047 16.1719 35.2344 14.8047 32.7734 14.8047C27.7148 14.8047 26.2891 20.7617 26.2891 25.7422C26.2891 30.4883 27.7734 36.1328 32.7344 36.1328ZM32.6953 33.5352C30.6445 33.5352 29.7656 31.0156 29.7656 29.0039C29.7656 27.0117 30.7227 24.7656 32.6758 24.7656C34.707 24.7656 35.5859 27.0898 35.5469 29.1211C35.5469 31.1328 34.6289 33.5352 32.6953 33.5352Z" fill="black" fill-opacity="0.85"/>
 </g>
</svg>
