<?xml version="1.0" encoding="UTF-8"?>
<!--Generator: Apple Native CoreSVG 326-->
<!DOCTYPE svg
PUBLIC "-//W3C//DTD SVG 1.1//EN"
       "http://www.w3.org/Graphics/SVG/1.1/DTD/svg11.dtd">
<svg version="1.1" xmlns="http://www.w3.org/2000/svg" xmlns:xlink="http://www.w3.org/1999/xlink" viewBox="0 0 51.25 50.918">
 <g>
  <rect height="50.918" opacity="0" width="51.25" x="0" y="0"/>
  <path d="M50.8789 25.4492C50.8789 39.4531 39.4531 50.8789 25.4297 50.8789C11.4258 50.8789 0 39.4531 0 25.4492C0 11.4258 11.4258 0 25.4297 0C39.4531 0 50.8789 11.4258 50.8789 25.4492ZM28.418 15C27.6172 15 27.0898 15.5664 27.0898 16.3672C27.0898 17.1484 27.6172 17.7148 28.418 17.7148L35.332 17.7148L35.332 17.9297L29.3945 33.4375C29.1797 33.9648 29.1016 34.2578 29.1016 34.7852C29.1016 35.4883 29.5508 36.2109 30.625 36.2109C31.4453 36.2109 31.8164 35.8789 32.1484 35.0391L38.2422 18.7109C38.4766 18.0273 38.6523 17.4609 38.6523 16.7773C38.6523 15.7227 37.8516 15 36.8164 15ZM13.0469 19.9414C13.0469 20.7617 13.5352 21.3867 14.4141 21.3867C15.1758 21.3867 15.6445 21.0352 15.8594 20.293C16.3086 18.3984 17.0312 17.168 18.6523 17.168C20.3906 17.168 21.2891 18.75 21.2891 20.6055C21.2891 22.6562 20.0195 24.668 18.5938 26.543L13.8281 32.7539C13.3984 33.3008 13.0273 33.8672 13.0273 34.5703C13.0273 35.332 13.5156 35.8984 14.5508 35.8984L23.4961 35.8984C24.2969 35.8984 24.8047 35.3516 24.8047 34.5508C24.8047 33.6914 24.2773 33.2031 23.4961 33.2031L17.0703 33.2031L17.0703 33.0078L21.1133 27.7344C23.5547 24.6094 24.375 22.7148 24.375 20.4688C24.375 17.0508 22.1484 14.5117 18.6719 14.5117C15.4297 14.5117 13.0469 17.2461 13.0469 19.9414Z" fill="black" fill-opacity="0.85"/>
 </g>
</svg>
