<?xml version="1.0" encoding="UTF-8"?>
<!--Generator: Apple Native CoreSVG 326-->
<!DOCTYPE svg
PUBLIC "-//W3C//DTD SVG 1.1//EN"
       "http://www.w3.org/Graphics/SVG/1.1/DTD/svg11.dtd">
<svg version="1.1" xmlns="http://www.w3.org/2000/svg" xmlns:xlink="http://www.w3.org/1999/xlink" viewBox="0 0 46.2891 45.918">
 <g>
  <rect height="45.918" opacity="0" width="46.2891" x="0" y="0"/>
  <path d="M45.918 7.53906L45.918 38.3984C45.918 43.3594 43.3594 45.918 38.3008 45.918L7.59766 45.918C2.55859 45.918 0 43.3984 0 38.3984L0 7.53906C0 2.53906 2.55859 0 7.59766 0L38.3008 0C43.3594 0 45.918 2.55859 45.918 7.53906ZM25.957 12.5C25.1562 12.5 24.6289 13.0664 24.6289 13.8672C24.6289 14.6484 25.1562 15.2148 25.957 15.2148L32.8711 15.2148L32.8711 15.4297L26.9336 30.9375C26.7188 31.4648 26.6406 31.7578 26.6406 32.2852C26.6406 32.9883 27.0898 33.7109 28.1641 33.7109C28.9844 33.7109 29.3555 33.3789 29.668 32.5391L35.7812 16.2109C36.0156 15.5273 36.1914 14.9609 36.1914 14.2773C36.1914 13.2227 35.3906 12.5 34.3555 12.5ZM10.5859 17.4414C10.5859 18.2617 11.0547 18.8867 11.9531 18.8867C12.7148 18.8867 13.1836 18.5352 13.3984 17.793C13.8477 15.8984 14.5703 14.668 16.1914 14.668C17.9297 14.668 18.8281 16.25 18.8281 18.1055C18.8281 20.1562 17.5391 22.168 16.1328 24.043L11.3672 30.2539C10.9375 30.8008 10.5664 31.3672 10.5664 32.0703C10.5664 32.832 11.0547 33.3984 12.0898 33.3984L21.0352 33.3984C21.8359 33.3984 22.3438 32.8516 22.3438 32.0508C22.3438 31.1914 21.8164 30.7031 21.0352 30.7031L14.6094 30.7031L14.6094 30.5078L18.6523 25.2344C21.0938 22.1094 21.9141 20.2148 21.9141 17.9688C21.9141 14.5508 19.6875 12.0117 16.2109 12.0117C12.9688 12.0117 10.5859 14.7461 10.5859 17.4414Z" fill="black" fill-opacity="0.85"/>
 </g>
</svg>
