<?xml version="1.0" encoding="UTF-8"?>
<!--Generator: Apple Native CoreSVG 326-->
<!DOCTYPE svg
PUBLIC "-//W3C//DTD SVG 1.1//EN"
       "http://www.w3.org/Graphics/SVG/1.1/DTD/svg11.dtd">
<svg version="1.1" xmlns="http://www.w3.org/2000/svg" xmlns:xlink="http://www.w3.org/1999/xlink" viewBox="0 0 51.25 50.918">
 <g>
  <rect height="50.918" opacity="0" width="51.25" x="0" y="0"/>
  <path d="M50.8789 25.4492C50.8789 39.4531 39.4531 50.8789 25.4297 50.8789C11.4258 50.8789 0 39.4531 0 25.4492C0 11.4258 11.4258 0 25.4297 0C39.4531 0 50.8789 11.4258 50.8789 25.4492ZM26.8164 20.1562C26.8164 22.6953 28.3203 24.2969 30.0586 24.8242L30.0586 24.9023C27.8516 25.4102 26.2109 27.5 26.2109 30.2539C26.2109 33.9648 28.9648 36.3086 32.6758 36.3086C36.6406 36.3086 39.1992 33.75 39.1992 30.2539C39.1992 27.4805 37.4414 25.3906 35.3711 24.9023L35.3711 24.8242C37.1484 24.2773 38.6133 22.5391 38.6133 20.1758C38.6133 16.9336 36.25 14.6094 32.6758 14.6094C29.5117 14.6094 26.8164 16.6406 26.8164 20.1562ZM11.6797 19.9414C11.6797 20.7617 12.168 21.3867 13.0469 21.3867C13.8281 21.3867 14.2773 21.0352 14.5117 20.293C14.9414 18.3984 15.6836 17.168 17.3047 17.168C19.043 17.168 19.9414 18.75 19.9414 20.6055C19.9414 22.6562 18.6523 24.668 17.2266 26.5234L12.4805 32.7539C12.0508 33.3008 11.6602 33.8477 11.6602 34.5703C11.6602 35.332 12.168 35.8984 13.2031 35.8984L22.1484 35.8984C22.9492 35.8984 23.457 35.3516 23.457 34.5508C23.457 33.6914 22.9297 33.1836 22.1484 33.1836L15.7227 33.1836L15.7227 33.0078L19.7656 27.7344C22.207 24.6094 23.0273 22.7148 23.0273 20.4688C23.0273 17.0508 20.8008 14.5117 17.3242 14.5117C14.082 14.5117 11.6797 17.2461 11.6797 19.9414ZM35.7812 30C35.7812 32.0508 34.7266 33.8086 32.6953 33.8086C30.6836 33.8086 29.6094 32.0508 29.6094 30C29.6094 27.9688 30.6836 26.2891 32.6953 26.2891C34.6094 26.2891 35.7812 27.8516 35.7812 30ZM35.4102 20.4883C35.4102 22.3047 34.4141 23.7695 32.6953 23.7695C30.9961 23.7695 29.9805 22.2266 29.9805 20.4883C29.9805 18.6719 30.9766 17.0898 32.6953 17.0898C34.5117 17.0898 35.4102 18.7305 35.4102 20.4883Z" fill="black" fill-opacity="0.85"/>
 </g>
</svg>
