<?xml version="1.0" encoding="UTF-8"?>
<!--Generator: Apple Native CoreSVG 326-->
<!DOCTYPE svg
PUBLIC "-//W3C//DTD SVG 1.1//EN"
       "http://www.w3.org/Graphics/SVG/1.1/DTD/svg11.dtd">
<svg version="1.1" xmlns="http://www.w3.org/2000/svg" xmlns:xlink="http://www.w3.org/1999/xlink" viewBox="0 0 46.2891 45.918">
 <g>
  <rect height="45.918" opacity="0" width="46.2891" x="0" y="0"/>
  <path d="M45.918 7.53906L45.918 38.3984C45.918 43.3594 43.3594 45.918 38.3008 45.918L7.59766 45.918C2.55859 45.918 0 43.3984 0 38.3984L0 7.53906C0 2.53906 2.55859 0 7.59766 0L38.3008 0C43.3594 0 45.918 2.55859 45.918 7.53906ZM24.3555 17.6562C24.3555 20.1953 25.8594 21.7969 27.5977 22.3242L27.5977 22.4023C25.3906 22.9102 23.75 25 23.75 27.7539C23.75 31.4648 26.5039 33.8086 30.2148 33.8086C34.1797 33.8086 36.7188 31.25 36.7188 27.7539C36.7188 24.9805 34.9805 22.8906 32.9102 22.4023L32.9102 22.3242C34.6875 21.7773 36.1328 20.0391 36.1328 17.6758C36.1328 14.4336 33.7891 12.1094 30.2148 12.1094C27.0508 12.1094 24.3555 14.1406 24.3555 17.6562ZM9.21875 17.4414C9.21875 18.2617 9.70703 18.8867 10.5859 18.8867C11.3672 18.8867 11.8164 18.5352 12.0508 17.793C12.4805 15.8984 13.2227 14.668 14.8438 14.668C16.582 14.668 17.4805 16.25 17.4805 18.1055C17.4805 20.1562 16.1914 22.168 14.7656 24.0234L10.0195 30.2539C9.58984 30.8008 9.19922 31.3477 9.19922 32.0703C9.19922 32.832 9.70703 33.3984 10.7422 33.3984L19.668 33.3984C20.4688 33.3984 20.9766 32.8516 20.9766 32.0508C20.9766 31.1914 20.4492 30.6836 19.668 30.6836L13.2617 30.6836L13.2617 30.5078L17.3047 25.2344C19.7461 22.1094 20.5664 20.2148 20.5664 17.9688C20.5664 14.5508 18.3398 12.0117 14.8438 12.0117C11.6211 12.0117 9.21875 14.7461 9.21875 17.4414ZM33.3203 27.5C33.3203 29.5508 32.2656 31.3086 30.2344 31.3086C28.2031 31.3086 27.1484 29.5508 27.1484 27.5C27.1484 25.4688 28.2227 23.7891 30.2344 23.7891C32.1484 23.7891 33.3203 25.3516 33.3203 27.5ZM32.9492 17.9883C32.9492 19.8047 31.9531 21.2695 30.2344 21.2695C28.5352 21.2695 27.5195 19.7266 27.5195 17.9883C27.5195 16.1719 28.5156 14.5898 30.2344 14.5898C32.0508 14.5898 32.9492 16.2305 32.9492 17.9883Z" fill="black" fill-opacity="0.85"/>
 </g>
</svg>
