<?xml version="1.0" encoding="UTF-8"?>
<!--Generator: Apple Native CoreSVG 326-->
<!DOCTYPE svg
PUBLIC "-//W3C//DTD SVG 1.1//EN"
       "http://www.w3.org/Graphics/SVG/1.1/DTD/svg11.dtd">
<svg version="1.1" xmlns="http://www.w3.org/2000/svg" xmlns:xlink="http://www.w3.org/1999/xlink" viewBox="0 0 51.25 50.918">
 <g>
  <rect height="50.918" opacity="0" width="51.25" x="0" y="0"/>
  <path d="M25.4297 50.8789C39.4727 50.8789 50.8789 39.4922 50.8789 25.4492C50.8789 11.4062 39.4727 0 25.4297 0C11.3867 0 0 11.4062 0 25.4492C0 39.4922 11.3867 50.8789 25.4297 50.8789ZM25.4297 47.2461C13.3789 47.2461 3.63281 37.5 3.63281 25.4492C3.63281 13.3984 13.3789 3.65234 25.4297 3.65234C37.4805 3.65234 47.2266 13.3984 47.2266 25.4492C47.2266 37.5 37.4805 47.2461 25.4297 47.2461Z" fill="black" fill-opacity="0.85"/>
  <path d="M25.5078 37.3242C30.6836 37.3242 33.9844 34.5117 33.9844 30.6055C33.9844 27.6953 31.7383 25.3125 28.7109 25.0195L28.7109 24.8438C31.2305 24.4531 33.1836 22.1289 33.1836 19.4922C33.1836 16.0352 30.0586 13.5742 25.6836 13.5742C21.7383 13.5742 18.6914 15.4688 18.1055 18.3594C18.0273 18.6914 17.9883 18.9453 17.9883 19.2969C17.9883 20.1758 18.6133 20.7617 19.4922 20.7617C20.2734 20.7617 20.7617 20.3711 20.9766 19.5898C21.4844 17.6172 23.1836 16.3477 25.625 16.3477C28.2812 16.3477 29.9414 17.7148 29.9414 19.8828C29.9414 22.0703 28.0859 23.7305 25.5859 23.7305L23.8672 23.7305C23.0664 23.7305 22.5 24.2773 22.5 25.0781C22.5 25.8594 23.0664 26.4258 23.8672 26.4258L25.7422 26.4258C28.6719 26.4258 30.7422 28.1055 30.7422 30.4883C30.7422 32.9102 28.6719 34.5312 25.5664 34.5312C22.8125 34.5312 21.0938 33.1445 20.5273 31.2891C20.2344 30.4883 19.7656 30.1367 19.0039 30.1367C18.125 30.1367 17.5 30.7617 17.5 31.6211C17.5 31.9727 17.5195 32.1875 17.6172 32.5195C18.3594 35.3711 21.543 37.3242 25.5078 37.3242Z" fill="black" fill-opacity="0.85"/>
 </g>
</svg>
