<?xml version="1.0" encoding="UTF-8"?>
<!--Generator: Apple Native CoreSVG 326-->
<!DOCTYPE svg
PUBLIC "-//W3C//DTD SVG 1.1//EN"
       "http://www.w3.org/Graphics/SVG/1.1/DTD/svg11.dtd">
<svg version="1.1" xmlns="http://www.w3.org/2000/svg" xmlns:xlink="http://www.w3.org/1999/xlink" viewBox="0 0 51.25 50.918">
 <g>
  <rect height="50.918" opacity="0" width="51.25" x="0" y="0"/>
  <path d="M50.8789 25.4492C50.8789 39.4531 39.4531 50.8789 25.4297 50.8789C11.4258 50.8789 0 39.4531 0 25.4492C0 11.4258 11.4258 0 25.4297 0C39.4531 0 50.8789 11.4258 50.8789 25.4492ZM26.6992 25.4102C26.6992 30.4492 28.1445 36.3477 33.2031 36.3477C38.2422 36.3477 39.668 30.4492 39.668 25.4102C39.668 20.3711 38.2422 14.4727 33.2031 14.4727C28.1445 14.4727 26.6992 20.3711 26.6992 25.4102ZM11.9531 18.3594C11.8164 18.8672 11.7578 19.3359 11.7578 19.7266C11.7578 20.4883 12.2656 21.0938 13.1445 21.0938C13.9648 21.0938 14.375 20.7617 14.6094 19.9609C15 18.3398 15.8789 17.2266 17.5 17.2266C19.3164 17.2266 20.2148 18.6523 20.2148 20.4688C20.2148 22.4414 19.0625 23.9258 17.0508 23.9258L16.3086 23.9258C15.5078 23.9258 15.0586 24.4336 15.0586 25.1562C15.0586 25.918 15.5469 26.3867 16.3086 26.3867L17.0703 26.3867C19.3945 26.3867 20.6836 27.6367 20.6836 30.0586C20.6836 31.9531 19.668 33.6133 17.5977 33.6133C15.6055 33.6133 14.6484 32.2266 14.3555 30.918C14.1211 30.1367 13.6523 29.7461 12.8906 29.7461C12.0117 29.7461 11.4258 30.293 11.4258 31.1914C11.4258 31.6211 11.5039 32.1094 11.6211 32.5391C12.3633 34.9023 14.8242 36.2891 17.5977 36.2891C21.1914 36.2891 23.9258 33.9453 23.9258 30.1367C23.9258 27.0312 22.1289 25.3125 19.8438 25.0977L19.8438 25C22.1875 24.3945 23.3008 22.2852 23.3008 20.1172C23.3008 16.6406 20.7812 14.5703 17.5 14.5703C14.8438 14.5703 12.6758 16.0742 11.9531 18.3594ZM36.3672 25.4102C36.3672 29.7266 35.6055 33.6328 33.2031 33.6328C30.8008 33.6328 30.0391 29.7266 30.0391 25.4102C30.0391 21.0938 30.8008 17.1875 33.2031 17.1875C35.6055 17.1875 36.3672 21.0938 36.3672 25.4102Z" fill="black" fill-opacity="0.85"/>
 </g>
</svg>
