<?xml version="1.0" encoding="UTF-8"?>
<!--Generator: Apple Native CoreSVG 326-->
<!DOCTYPE svg
PUBLIC "-//W3C//DTD SVG 1.1//EN"
       "http://www.w3.org/Graphics/SVG/1.1/DTD/svg11.dtd">
<svg version="1.1" xmlns="http://www.w3.org/2000/svg" xmlns:xlink="http://www.w3.org/1999/xlink" viewBox="0 0 51.25 50.918">
 <g>
  <rect height="50.918" opacity="0" width="51.25" x="0" y="0"/>
  <path d="M25.4297 50.8789C39.4727 50.8789 50.8789 39.4922 50.8789 25.4492C50.8789 11.4062 39.4727 0 25.4297 0C11.3867 0 0 11.4062 0 25.4492C0 39.4922 11.3867 50.8789 25.4297 50.8789ZM25.4297 47.2461C13.3789 47.2461 3.63281 37.5 3.63281 25.4492C3.63281 13.3984 13.3789 3.65234 25.4297 3.65234C37.4805 3.65234 47.2266 13.3984 47.2266 25.4492C47.2266 37.5 37.4805 47.2461 25.4297 47.2461Z" fill="black" fill-opacity="0.85"/>
  <path d="M17.7734 36.0352C21.2695 36.0352 23.9453 33.75 23.9453 30.0195C23.9453 26.9922 22.1875 25.3125 19.9609 25.0977L19.9609 25C22.2461 24.4141 23.3398 22.3633 23.3398 20.2344C23.3398 16.8555 20.8789 14.8242 17.6758 14.8242C15.0977 14.8242 13.0078 16.2891 12.2852 18.5352C12.1484 19.0234 12.0898 19.4727 12.0898 19.8633C12.0898 20.6055 12.5781 21.1914 13.4375 21.1914C14.2188 21.1914 14.6289 20.8594 14.8438 20.0781C15.2344 18.4961 16.0938 17.4023 17.6758 17.4023C19.4531 17.4023 20.3516 18.8086 20.3516 20.5859C20.3516 22.5195 19.2188 23.9648 17.2461 23.9648L16.5234 23.9648C15.7422 23.9648 15.293 24.4531 15.293 25.1562C15.293 25.8984 15.7812 26.3477 16.5234 26.3477L17.2656 26.3477C19.5312 26.3477 20.8008 27.5781 20.8008 29.9414C20.8008 31.8164 19.8047 33.4375 17.7734 33.4375C15.8203 33.4375 14.8828 32.0703 14.5898 30.7812C14.3945 30.0391 13.9258 29.6484 13.1836 29.6484C12.3242 29.6484 11.7578 30.1758 11.7578 31.0547C11.7578 31.4648 11.8359 31.9531 11.9531 32.3633C12.6758 34.668 15.0781 36.0352 17.7734 36.0352ZM32.9883 36.0938C37.9102 36.0938 39.2969 30.3125 39.2969 25.4102C39.2969 20.5078 37.9102 14.7266 32.9883 14.7266C28.0664 14.7266 26.6602 20.5078 26.6602 25.4102C26.6602 30.3125 28.0664 36.0938 32.9883 36.0938ZM32.9883 33.457C30.6055 33.457 29.8828 29.6094 29.8828 25.4102C29.8828 21.2109 30.6055 17.3633 32.9883 17.3633C35.3516 17.3633 36.0938 21.2109 36.0938 25.4102C36.0938 29.6094 35.3516 33.457 32.9883 33.457Z" fill="black" fill-opacity="0.85"/>
 </g>
</svg>
