<?xml version="1.0" encoding="UTF-8"?>
<!--Generator: Apple Native CoreSVG 326-->
<!DOCTYPE svg
PUBLIC "-//W3C//DTD SVG 1.1//EN"
       "http://www.w3.org/Graphics/SVG/1.1/DTD/svg11.dtd">
<svg version="1.1" xmlns="http://www.w3.org/2000/svg" xmlns:xlink="http://www.w3.org/1999/xlink" viewBox="0 0 51.25 50.918">
 <g>
  <rect height="50.918" opacity="0" width="51.25" x="0" y="0"/>
  <path d="M50.8789 25.4492C50.8789 39.4531 39.4531 50.8789 25.4297 50.8789C11.4258 50.8789 0 39.4531 0 25.4492C0 11.4258 11.4258 0 25.4297 0C39.4531 0 50.8789 11.4258 50.8789 25.4492ZM13.8477 18.3789C13.7109 18.8867 13.6523 19.3359 13.6523 19.7656C13.6523 20.5078 14.1406 21.1133 15.0586 21.1133C15.8594 21.1133 16.2891 20.7812 16.5039 20C16.8945 18.3789 17.7734 17.2461 19.375 17.2461C21.2109 17.2461 22.1094 18.6719 22.1094 20.5078C22.1094 22.4805 20.957 23.9648 18.9258 23.9648L18.2031 23.9648C17.4219 23.9648 16.9336 24.4531 16.9336 25.1953C16.9336 25.9375 17.4609 26.4062 18.2031 26.4062L18.9648 26.4062C21.2695 26.4062 22.5586 27.6758 22.5586 30.0586C22.5586 31.9727 21.5625 33.6328 19.4922 33.6328C17.5 33.6328 16.543 32.2461 16.2305 30.957C16.0156 30.1758 15.5664 29.7852 14.8047 29.7852C13.9062 29.7852 13.3008 30.332 13.3008 31.2109C13.3008 31.6602 13.3789 32.1484 13.5156 32.5586C14.2383 34.9219 16.7383 36.3086 19.4727 36.3086C23.0859 36.3086 25.8008 33.9844 25.8008 30.1562C25.8008 27.0508 24.0039 25.3516 21.7188 25.1172L21.7188 25.0391C24.0625 24.4141 25.1953 22.3242 25.1953 20.1367C25.1953 16.6602 22.6758 14.6094 19.375 14.6094C16.7383 14.6094 14.5898 16.1133 13.8477 18.3789ZM31.7969 15.625L28.7891 18.0273C28.3789 18.3398 28.0859 18.7695 28.0859 19.3555C28.0859 20.0781 28.5742 20.5859 29.2773 20.5859C29.6289 20.5859 29.8633 20.4688 30.0781 20.2734L32.6562 18.2227L32.6562 34.4727C32.6562 35.4102 33.418 36.1523 34.3164 36.1523C35.2148 36.1523 35.9766 35.4102 35.9766 34.4727L35.9766 16.543C35.9766 15.3906 35.2344 14.6875 34.082 14.6875C33.125 14.6875 32.3438 15.2148 31.7969 15.625Z" fill="black" fill-opacity="0.85"/>
 </g>
</svg>
