<?xml version="1.0" encoding="UTF-8"?>
<!--Generator: Apple Native CoreSVG 326-->
<!DOCTYPE svg
PUBLIC "-//W3C//DTD SVG 1.1//EN"
       "http://www.w3.org/Graphics/SVG/1.1/DTD/svg11.dtd">
<svg version="1.1" xmlns="http://www.w3.org/2000/svg" xmlns:xlink="http://www.w3.org/1999/xlink" viewBox="0 0 46.2891 45.918">
 <g>
  <rect height="45.918" opacity="0" width="46.2891" x="0" y="0"/>
  <path d="M45.918 7.53906L45.918 38.3984C45.918 43.3594 43.3594 45.918 38.3008 45.918L7.59766 45.918C2.55859 45.918 0 43.3984 0 38.3984L0 7.53906C0 2.53906 2.55859 0 7.59766 0L38.3008 0C43.3594 0 45.918 2.55859 45.918 7.53906ZM11.3867 15.8789C11.25 16.3867 11.1914 16.8359 11.1914 17.2656C11.1914 18.0078 11.6797 18.6133 12.5977 18.6133C13.3984 18.6133 13.8281 18.2812 14.043 17.5C14.4336 15.8789 15.3125 14.7461 16.9141 14.7461C18.75 14.7461 19.6484 16.1719 19.6484 18.0078C19.6484 19.9805 18.4961 21.4648 16.4648 21.4648L15.7422 21.4648C14.9609 21.4648 14.4727 21.9531 14.4727 22.6953C14.4727 23.4375 15 23.9062 15.7422 23.9062L16.5039 23.9062C18.8086 23.9062 20.0977 25.1758 20.0977 27.5586C20.0977 29.4727 19.1016 31.1328 17.0312 31.1328C15.0195 31.1328 14.0625 29.7461 13.7695 28.457C13.5547 27.6758 13.0859 27.2852 12.3438 27.2852C11.4453 27.2852 10.8398 27.832 10.8398 28.7109C10.8398 29.1602 10.918 29.6484 11.0547 30.0586C11.7773 32.4219 14.2773 33.8086 17.0117 33.8086C20.6055 33.8086 23.3398 31.4844 23.3398 27.6562C23.3398 24.5508 21.543 22.8516 19.2578 22.6172L19.2578 22.5391C21.6016 21.9141 22.7344 19.8242 22.7344 17.6367C22.7344 14.1602 20.2148 12.1094 16.9141 12.1094C14.2773 12.1094 12.1289 13.6133 11.3867 15.8789ZM29.3359 13.125L26.3281 15.5273C25.918 15.8398 25.625 16.2695 25.625 16.8555C25.625 17.5781 26.1133 18.0859 26.8164 18.0859C27.1484 18.0859 27.4023 17.9688 27.6172 17.7734L30.1953 15.7227L30.1953 31.9727C30.1953 32.9102 30.9375 33.6523 31.8555 33.6523C32.7539 33.6523 33.5156 32.9102 33.5156 31.9727L33.5156 14.043C33.5156 12.8906 32.7734 12.1875 31.6211 12.1875C30.6445 12.1875 29.8828 12.7148 29.3359 13.125Z" fill="black" fill-opacity="0.85"/>
 </g>
</svg>
