<?xml version="1.0" encoding="UTF-8"?>
<!--Generator: Apple Native CoreSVG 326-->
<!DOCTYPE svg
PUBLIC "-//W3C//DTD SVG 1.1//EN"
       "http://www.w3.org/Graphics/SVG/1.1/DTD/svg11.dtd">
<svg version="1.1" xmlns="http://www.w3.org/2000/svg" xmlns:xlink="http://www.w3.org/1999/xlink" viewBox="0 0 51.25 50.918">
 <g>
  <rect height="50.918" opacity="0" width="51.25" x="0" y="0"/>
  <path d="M50.8789 25.4492C50.8789 39.4531 39.4531 50.8789 25.4297 50.8789C11.4258 50.8789 0 39.4531 0 25.4492C0 11.4258 11.4258 0 25.4297 0C39.4531 0 50.8789 11.4258 50.8789 25.4492ZM12.168 18.3789C12.0312 18.8867 11.9727 19.3359 11.9727 19.7656C11.9727 20.5078 12.4609 21.1133 13.3594 21.1133C14.1602 21.1133 14.5898 20.7812 14.8047 20C15.2148 18.3789 16.0742 17.2461 17.6953 17.2461C19.5117 17.2461 20.4297 18.6719 20.4297 20.5078C20.4297 22.4805 19.2773 23.9648 17.2461 23.9648L16.5039 23.9648C15.7227 23.9648 15.2539 24.4531 15.2539 25.1953C15.2539 25.9375 15.7617 26.4062 16.5039 26.4062L17.2656 26.4062C19.5898 26.4062 20.8789 27.6758 20.8789 30.0586C20.8789 31.9727 19.8633 33.6328 17.793 33.6328C15.8008 33.6328 14.8438 32.2461 14.5508 30.957C14.3164 30.1758 13.8672 29.7852 13.1055 29.7852C12.207 29.7852 11.6211 30.332 11.6211 31.2109C11.6211 31.6602 11.6992 32.1484 11.8164 32.5586C12.5586 34.9219 15.0391 36.3086 17.793 36.3086C21.3867 36.3086 24.1211 33.9844 24.1211 30.1562C24.1211 27.0508 22.3242 25.3516 20.0391 25.1172L20.0391 25.0391C22.3828 24.4141 23.5156 22.3242 23.5156 20.1367C23.5156 16.6602 20.9766 14.6094 17.6953 14.6094C15.0586 14.6094 12.8906 16.1133 12.168 18.3789ZM27.4805 18.3789C27.3438 18.8867 27.2852 19.3359 27.2852 19.7656C27.2852 20.5078 27.793 21.1133 28.6914 21.1133C29.4922 21.1133 29.9219 20.7812 30.1562 20C30.5273 18.3789 31.4258 17.2461 33.0078 17.2461C34.8438 17.2461 35.7422 18.6719 35.7422 20.5078C35.7422 22.4805 34.5898 23.9648 32.5781 23.9648L31.8359 23.9648C31.0547 23.9648 30.5664 24.4531 30.5664 25.1953C30.5664 25.9375 31.0938 26.4062 31.8359 26.4062L32.6172 26.4062C34.9023 26.4062 36.2109 27.6758 36.2109 30.0586C36.2109 31.9727 35.2148 33.6328 33.1445 33.6328C31.1328 33.6328 30.1953 32.2461 29.8633 30.957C29.668 30.1758 29.1992 29.7852 28.4375 29.7852C27.5586 29.7852 26.9531 30.332 26.9531 31.2109C26.9531 31.6602 27.0312 32.1484 27.168 32.5586C27.8906 34.9219 30.3711 36.3086 33.125 36.3086C36.7188 36.3086 39.4531 33.9844 39.4531 30.1562C39.4531 27.0508 37.6367 25.3516 35.3711 25.1172L35.3711 25.0391C37.7148 24.4141 38.8281 22.3242 38.8281 20.1367C38.8281 16.6602 36.3281 14.6094 33.0078 14.6094C30.3711 14.6094 28.2227 16.1133 27.4805 18.3789Z" fill="black" fill-opacity="0.85"/>
 </g>
</svg>
