<?xml version="1.0" encoding="UTF-8"?>
<!--Generator: Apple Native CoreSVG 326-->
<!DOCTYPE svg
PUBLIC "-//W3C//DTD SVG 1.1//EN"
       "http://www.w3.org/Graphics/SVG/1.1/DTD/svg11.dtd">
<svg version="1.1" xmlns="http://www.w3.org/2000/svg" xmlns:xlink="http://www.w3.org/1999/xlink" viewBox="0 0 46.2891 45.918">
 <g>
  <rect height="45.918" opacity="0" width="46.2891" x="0" y="0"/>
  <path d="M45.918 7.53906L45.918 38.3984C45.918 43.3594 43.3594 45.918 38.3008 45.918L7.59766 45.918C2.55859 45.918 0 43.3984 0 38.3984L0 7.53906C0 2.53906 2.55859 0 7.59766 0L38.3008 0C43.3594 0 45.918 2.55859 45.918 7.53906ZM27.4805 12.5C26.25 12.5 25.7031 13.3008 25.625 14.5117L25.1758 21.875C25.1367 22.2852 25.1172 22.6953 25.1172 23.0273C25.1172 23.9062 25.5664 24.668 26.6211 24.668C27.2852 24.668 27.6562 24.375 28.125 23.7305C28.7305 22.7734 29.4922 22.1094 30.6055 22.1094C32.6562 22.1094 33.4766 24.5508 33.4766 26.582C33.4766 28.8867 32.6172 31.2109 30.5664 31.2109C28.9844 31.2109 28.0469 30.0195 27.6172 28.4961C27.3438 27.6953 26.8359 27.3633 26.2305 27.3633C25.3711 27.3633 24.8438 27.9102 24.8438 28.75C24.8438 29.2578 25 29.8047 25.1758 30.2539C26.0156 32.4219 28.2031 33.8867 30.6055 33.8867C34.5312 33.8867 36.6602 30.4883 36.6602 26.5039C36.6602 22.9688 34.9609 19.668 31.6406 19.668C30.1367 19.668 28.6914 20.3711 27.9883 21.9336L27.8906 21.9336L28.3594 15.2344L34.5508 15.2344C35.332 15.2344 35.8398 14.668 35.8398 13.8477C35.8398 13.0859 35.3125 12.5 34.5508 12.5ZM9.62891 15.8789C9.49219 16.3867 9.43359 16.8359 9.43359 17.2656C9.43359 18.0078 9.92188 18.6133 10.8398 18.6133C11.6406 18.6133 12.0703 18.2812 12.2852 17.5C12.6758 15.8789 13.5742 14.7461 15.1562 14.7461C16.9922 14.7461 17.8906 16.1719 17.8906 18.0078C17.8906 19.9805 16.7578 21.4648 14.7266 21.4648L13.9844 21.4648C13.2031 21.4648 12.7148 21.9531 12.7148 22.6953C12.7148 23.4375 13.2422 23.9062 13.9844 23.9062L14.7656 23.9062C17.0508 23.9062 18.3398 25.1758 18.3398 27.5586C18.3398 29.4727 17.3438 31.1328 15.2734 31.1328C13.2812 31.1328 12.3242 29.7461 12.0117 28.4375C11.8164 27.6758 11.3477 27.2852 10.5859 27.2852C9.6875 27.2852 9.08203 27.832 9.08203 28.7109C9.08203 29.1602 9.16016 29.6484 9.31641 30.0586C10.0195 32.4219 12.5195 33.8086 15.2539 33.8086C18.8672 33.8086 21.6016 31.4844 21.6016 27.6562C21.6016 24.5508 19.7852 22.8516 17.5195 22.6172L17.5195 22.5195C19.8438 21.9141 20.9961 19.8242 20.9961 17.6367C20.9961 14.1602 18.457 12.1094 15.1562 12.1094C12.5195 12.1094 10.3711 13.6133 9.62891 15.8789Z" fill="black" fill-opacity="0.85"/>
 </g>
</svg>
