<?xml version="1.0" encoding="UTF-8"?>
<!--Generator: Apple Native CoreSVG 326-->
<!DOCTYPE svg
PUBLIC "-//W3C//DTD SVG 1.1//EN"
       "http://www.w3.org/Graphics/SVG/1.1/DTD/svg11.dtd">
<svg version="1.1" xmlns="http://www.w3.org/2000/svg" xmlns:xlink="http://www.w3.org/1999/xlink" viewBox="0 0 51.25 50.918">
 <g>
  <rect height="50.918" opacity="0" width="51.25" x="0" y="0"/>
  <path d="M50.8789 25.4492C50.8789 39.4531 39.4531 50.8789 25.4297 50.8789C11.4258 50.8789 0 39.4531 0 25.4492C0 11.4258 11.4258 0 25.4297 0C39.4531 0 50.8789 11.4258 50.8789 25.4492ZM26.6406 25.7422C26.6406 30.6055 28.1445 36.3867 33.2227 36.3867C37.0898 36.3867 39.2578 33.0664 39.2578 29.0625C39.2578 25.5859 37.5781 22.2461 34.1602 22.2461C31.9727 22.2461 30.3906 23.7695 29.8438 26.0156L29.7461 26.0156C29.7461 25.918 29.7461 25.8008 29.7461 25.7031C29.7461 22.6953 30.1367 17.2266 33.2031 17.2266C34.5117 17.2266 35.3516 18.1836 35.8203 19.4141C36.1328 20.1172 36.5625 20.4688 37.3242 20.4688C38.2227 20.4688 38.6328 19.8828 38.6328 19.1211C38.6328 18.8477 38.5938 18.5156 38.4961 18.1836C37.9297 15.9375 35.7812 14.5508 33.2812 14.5508C28.0859 14.5508 26.6406 20.6445 26.6406 25.7422ZM11.8359 18.3789C11.6992 18.8867 11.6211 19.3359 11.6211 19.7656C11.6211 20.5078 12.1289 21.1133 13.0469 21.1133C13.8281 21.1133 14.2773 20.7812 14.4922 20C14.8828 18.3789 15.7617 17.2461 17.3633 17.2461C19.1797 17.2461 20.0977 18.6719 20.0977 20.5078C20.0977 22.4805 18.9453 23.9648 16.9141 23.9648L16.1914 23.9648C15.4102 23.9648 14.9219 24.4531 14.9219 25.1953C14.9219 25.9375 15.4297 26.4062 16.1914 26.4062L16.9336 26.4062C19.2578 26.4062 20.5469 27.6758 20.5469 30.0586C20.5469 31.9727 19.5508 33.6328 17.4805 33.6328C15.4688 33.6328 14.5117 32.2461 14.2188 30.957C14.0039 30.1758 13.5352 29.7852 12.7539 29.7852C11.875 29.7852 11.2891 30.332 11.2891 31.2109C11.2891 31.6602 11.3672 32.1484 11.5039 32.5586C12.2266 34.9219 14.707 36.3086 17.4609 36.3086C21.0547 36.3086 23.7891 33.9844 23.7891 30.1562C23.7891 27.0508 21.9922 25.3516 19.707 25.1172L19.707 25.0391C22.0508 24.4141 23.1836 22.3242 23.1836 20.1367C23.1836 16.6602 20.6641 14.6094 17.3633 14.6094C14.7266 14.6094 12.5781 16.1133 11.8359 18.3789ZM36.0938 29.2188C36.0938 31.2695 35.1562 33.7109 33.1836 33.7109C31.0938 33.7109 30.1953 31.1328 30.1953 29.082C30.1953 27.0508 31.1914 24.7656 33.1836 24.7656C35.2344 24.7656 36.1328 27.1484 36.0938 29.2188Z" fill="black" fill-opacity="0.85"/>
 </g>
</svg>
