<?xml version="1.0" encoding="UTF-8"?>
<!--Generator: Apple Native CoreSVG 326-->
<!DOCTYPE svg
PUBLIC "-//W3C//DTD SVG 1.1//EN"
       "http://www.w3.org/Graphics/SVG/1.1/DTD/svg11.dtd">
<svg version="1.1" xmlns="http://www.w3.org/2000/svg" xmlns:xlink="http://www.w3.org/1999/xlink" viewBox="0 0 46.2891 45.918">
 <g>
  <rect height="45.918" opacity="0" width="46.2891" x="0" y="0"/>
  <path d="M7.59766 45.918L38.3008 45.918C43.3594 45.918 45.918 43.3594 45.918 38.3984L45.918 7.53906C45.918 2.55859 43.3594 0 38.3008 0L7.59766 0C2.55859 0 0 2.53906 0 7.53906L0 38.3984C0 43.3984 2.55859 45.918 7.59766 45.918ZM7.67578 42.4609C4.94141 42.4609 3.45703 41.0156 3.45703 38.2031L3.45703 7.71484C3.45703 4.92188 4.94141 3.45703 7.67578 3.45703L38.2422 3.45703C40.918 3.45703 42.4609 4.92188 42.4609 7.71484L42.4609 38.2031C42.4609 41.0156 40.918 42.4609 38.2422 42.4609Z" fill="black" fill-opacity="0.85"/>
  <path d="M15.1953 33.5547C18.6914 33.5547 21.3672 31.2891 21.3672 27.5391C21.3672 24.5117 19.6094 22.8516 17.3828 22.6172L17.3828 22.5391C19.668 21.9336 20.7617 19.9023 20.7617 17.7539C20.7617 14.375 18.3203 12.3633 15.0977 12.3633C12.5195 12.3633 10.4297 13.8281 9.70703 16.0547C9.57031 16.543 9.51172 16.9922 9.51172 17.4023C9.51172 18.125 10 18.7109 10.8789 18.7109C11.6406 18.7109 12.0703 18.3984 12.2852 17.6172C12.6562 16.0352 13.5352 14.9219 15.0977 14.9219C16.875 14.9219 17.7734 16.3281 17.7734 18.125C17.7734 20.0586 16.6406 21.5039 14.668 21.5039L13.9453 21.5039C13.1836 21.5039 12.7148 21.9727 12.7148 22.6953C12.7148 23.418 13.2031 23.8672 13.9453 23.8672L14.6875 23.8672C16.9531 23.8672 18.2227 25.1172 18.2227 27.4609C18.2227 29.3359 17.2461 30.957 15.2148 30.957C13.2422 30.957 12.3047 29.5898 12.0117 28.3203C11.8164 27.5781 11.3477 27.1875 10.625 27.1875C9.74609 27.1875 9.17969 27.7148 9.17969 28.5742C9.17969 29.0039 9.25781 29.4922 9.39453 29.8828C10.0977 32.1875 12.5 33.5547 15.1953 33.5547ZM30.5664 33.6328C34.3164 33.6328 36.4453 30.3906 36.4453 26.4844C36.4453 23.0859 34.8047 19.8242 31.4648 19.8242C29.3359 19.8242 27.793 21.3086 27.2266 23.5156L27.1484 23.5156C27.1484 23.418 27.1484 23.3008 27.1484 23.2031C27.1484 20.2539 27.5195 14.9023 30.5469 14.9023C31.8359 14.9023 32.6562 15.8398 33.1055 17.0508C33.418 17.7344 33.8281 18.1055 34.5508 18.1055C35.4492 18.1055 35.8398 17.5195 35.8398 16.7773C35.8398 16.5039 35.7812 16.1914 35.7031 15.8594C35.1562 13.6719 33.0664 12.3047 30.6055 12.3047C25.5469 12.3047 24.1211 18.2617 24.1211 23.2422C24.1211 27.9883 25.6055 33.6328 30.5664 33.6328ZM30.5273 31.0352C28.4766 31.0352 27.5977 28.5156 27.5977 26.5039C27.5977 24.5117 28.5742 22.2656 30.5078 22.2656C32.5391 22.2656 33.418 24.5898 33.3789 26.6211C33.3789 28.6328 32.4609 31.0352 30.5273 31.0352Z" fill="black" fill-opacity="0.85"/>
 </g>
</svg>
