<?xml version="1.0" encoding="UTF-8"?>
<!--Generator: Apple Native CoreSVG 326-->
<!DOCTYPE svg
PUBLIC "-//W3C//DTD SVG 1.1//EN"
       "http://www.w3.org/Graphics/SVG/1.1/DTD/svg11.dtd">
<svg version="1.1" xmlns="http://www.w3.org/2000/svg" xmlns:xlink="http://www.w3.org/1999/xlink" viewBox="0 0 51.25 50.918">
 <g>
  <rect height="50.918" opacity="0" width="51.25" x="0" y="0"/>
  <path d="M50.8789 25.4492C50.8789 39.4531 39.4531 50.8789 25.4297 50.8789C11.4258 50.8789 0 39.4531 0 25.4492C0 11.4258 11.4258 0 25.4297 0C39.4531 0 50.8789 11.4258 50.8789 25.4492ZM12.9883 18.3789C12.8516 18.8867 12.7734 19.3359 12.7734 19.7656C12.7734 20.5078 13.2812 21.1133 14.1992 21.1133C15 21.1133 15.4297 20.7812 15.6445 20C16.0352 18.3789 16.9141 17.2461 18.5156 17.2461C20.3516 17.2461 21.25 18.6719 21.25 20.5078C21.25 22.4805 20.1172 23.9648 18.0664 23.9648L17.3438 23.9648C16.5625 23.9648 16.0742 24.4531 16.0742 25.1953C16.0742 25.9375 16.6016 26.4062 17.3438 26.4062L18.1055 26.4062C20.4102 26.4062 21.6992 27.6758 21.6992 30.0586C21.6992 31.9727 20.7031 33.6328 18.6328 33.6328C16.6406 33.6328 15.6836 32.2461 15.3711 30.957C15.1562 30.1758 14.707 29.7852 13.9258 29.7852C13.0469 29.7852 12.4414 30.332 12.4414 31.2109C12.4414 31.6602 12.5195 32.1484 12.6562 32.5586C13.3789 34.9219 15.8789 36.3086 18.6133 36.3086C22.2266 36.3086 24.9414 33.9844 24.9414 30.1562C24.9414 27.0508 23.1445 25.3516 20.8594 25.1172L20.8594 25.0391C23.2031 24.4141 24.3555 22.3242 24.3555 20.1367C24.3555 16.6602 21.8164 14.6094 18.5156 14.6094C15.8789 14.6094 13.7305 16.1133 12.9883 18.3789ZM28.5938 15C27.8125 15 27.2656 15.5664 27.2656 16.3477C27.2656 17.1484 27.8125 17.7148 28.5938 17.7148L35.5273 17.7148L35.5273 17.9297L29.5703 33.4375C29.375 33.9648 29.2969 34.2578 29.2969 34.7852C29.2969 35.4883 29.7266 36.2109 30.7812 36.2109C31.6211 36.2109 32.0117 35.8789 32.3047 35.0391L38.418 18.7109C38.6719 18.0273 38.8477 17.4609 38.8477 16.7773C38.8477 15.7031 38.0469 15 36.9922 15Z" fill="black" fill-opacity="0.85"/>
 </g>
</svg>
