<?xml version="1.0" encoding="UTF-8"?>
<!--Generator: Apple Native CoreSVG 326-->
<!DOCTYPE svg
PUBLIC "-//W3C//DTD SVG 1.1//EN"
       "http://www.w3.org/Graphics/SVG/1.1/DTD/svg11.dtd">
<svg version="1.1" xmlns="http://www.w3.org/2000/svg" xmlns:xlink="http://www.w3.org/1999/xlink" viewBox="0 0 46.2891 45.918">
 <g>
  <rect height="45.918" opacity="0" width="46.2891" x="0" y="0"/>
  <path d="M45.918 7.53906L45.918 38.3984C45.918 43.3594 43.3594 45.918 38.3008 45.918L7.59766 45.918C2.55859 45.918 0 43.3984 0 38.3984L0 7.53906C0 2.53906 2.55859 0 7.59766 0L38.3008 0C43.3594 0 45.918 2.55859 45.918 7.53906ZM10.5273 15.8789C10.3906 16.3867 10.3125 16.8359 10.3125 17.2656C10.3125 18.0078 10.8203 18.6133 11.7383 18.6133C12.5391 18.6133 12.9688 18.2812 13.1836 17.5C13.5742 15.8789 14.4531 14.7461 16.0547 14.7461C17.8906 14.7461 18.7891 16.1719 18.7891 18.0078C18.7891 19.9805 17.6367 21.4648 15.6055 21.4648L14.8828 21.4648C14.1016 21.4648 13.6133 21.9531 13.6133 22.6953C13.6133 23.4375 14.1406 23.9062 14.8828 23.9062L15.6445 23.9062C17.9492 23.9062 19.2383 25.1758 19.2383 27.5586C19.2383 29.4727 18.2422 31.1328 16.1719 31.1328C14.1602 31.1328 13.2227 29.7461 12.9102 28.457C12.6953 27.6758 12.2461 27.2852 11.4648 27.2852C10.5859 27.2852 9.98047 27.832 9.98047 28.7109C9.98047 29.1602 10.0586 29.6484 10.1953 30.0586C10.918 32.4219 13.418 33.8086 16.1523 33.8086C19.7656 33.8086 22.4805 31.4844 22.4805 27.6562C22.4805 24.5508 20.6836 22.8516 18.3984 22.6172L18.3984 22.5391C20.7422 21.9141 21.875 19.8242 21.875 17.6367C21.875 14.1602 19.3555 12.1094 16.0547 12.1094C13.418 12.1094 11.2695 13.6133 10.5273 15.8789ZM26.1328 12.5C25.3516 12.5 24.8047 13.0664 24.8047 13.8477C24.8047 14.6484 25.3516 15.2148 26.1328 15.2148L33.0664 15.2148L33.0664 15.4297L27.1094 30.9375C26.9141 31.4648 26.8359 31.7578 26.8359 32.2852C26.8359 32.9883 27.2656 33.7109 28.3203 33.7109C29.1602 33.7109 29.5508 33.3789 29.8438 32.5391L35.957 16.2109C36.2109 15.5273 36.3867 14.9609 36.3867 14.2773C36.3867 13.2031 35.5859 12.5 34.5117 12.5Z" fill="black" fill-opacity="0.85"/>
 </g>
</svg>
