<?xml version="1.0" encoding="UTF-8"?>
<!--Generator: Apple Native CoreSVG 326-->
<!DOCTYPE svg
PUBLIC "-//W3C//DTD SVG 1.1//EN"
       "http://www.w3.org/Graphics/SVG/1.1/DTD/svg11.dtd">
<svg version="1.1" xmlns="http://www.w3.org/2000/svg" xmlns:xlink="http://www.w3.org/1999/xlink" viewBox="0 0 51.25 50.918">
 <g>
  <rect height="50.918" opacity="0" width="51.25" x="0" y="0"/>
  <path d="M50.8789 25.4492C50.8789 39.4531 39.4531 50.8789 25.4297 50.8789C11.4258 50.8789 0 39.4531 0 25.4492C0 11.4258 11.4258 0 25.4297 0C39.4531 0 50.8789 11.4258 50.8789 25.4492ZM11.7773 18.3789C11.6406 18.8867 11.6016 19.3359 11.6016 19.7656C11.6016 20.5078 12.0898 21.1133 12.9883 21.1133C13.8086 21.1133 14.2188 20.7812 14.4531 20C14.8438 18.3789 15.7227 17.2461 17.3242 17.2461C19.1602 17.2461 20.0391 18.6719 20.0391 20.5078C20.0391 22.4805 18.9062 23.9648 16.875 23.9648L16.1523 23.9648C15.3516 23.9648 14.9023 24.4531 14.9023 25.1953C14.9023 25.9375 15.3906 26.4062 16.1523 26.4062L16.9141 26.4062C19.2188 26.4062 20.5273 27.6758 20.5273 30.0586C20.5273 31.9727 19.5117 33.6328 17.4414 33.6328C15.4492 33.6328 14.4922 32.2461 14.1797 30.957C13.9648 30.1758 13.4961 29.7852 12.7344 29.7852C11.8555 29.7852 11.25 30.332 11.25 31.2109C11.25 31.6602 11.3281 32.1484 11.4648 32.5586C12.207 34.9219 14.668 36.3086 17.4219 36.3086C21.0156 36.3086 23.75 33.9844 23.75 30.1562C23.75 27.0508 21.9727 25.3516 19.668 25.1172L19.668 25.0391C22.0117 24.4141 23.1445 22.3242 23.1445 20.1367C23.1445 16.6602 20.625 14.6094 17.3242 14.6094C14.6875 14.6094 12.5195 16.1133 11.7773 18.3789ZM27.168 20.1562C27.168 22.6953 28.6719 24.2969 30.4102 24.8242L30.4102 24.9023C28.2227 25.4102 26.5625 27.5 26.5625 30.2539C26.5625 33.9648 29.3164 36.3086 33.0469 36.3086C37.0117 36.3086 39.5508 33.75 39.5508 30.2539C39.5508 27.4805 37.8125 25.3906 35.7227 24.9023L35.7227 24.8242C37.5 24.2773 38.9648 22.5391 38.9648 20.1758C38.9648 16.9141 36.6016 14.6094 33.0469 14.6094C29.8828 14.6094 27.168 16.6406 27.168 20.1562ZM36.1523 30C36.1523 32.0312 35.0977 33.8086 33.0664 33.8086C31.0547 33.8086 29.9805 32.0312 29.9805 30C29.9805 27.9688 31.0547 26.2695 33.0664 26.2695C34.9805 26.2695 36.1523 27.8516 36.1523 30ZM35.7617 20.4883C35.7617 22.3047 34.7852 23.7695 33.0664 23.7695C31.3672 23.7695 30.332 22.2266 30.332 20.4883C30.332 18.6719 31.3477 17.0898 33.0664 17.0898C34.8828 17.0898 35.7617 18.7305 35.7617 20.4883Z" fill="black" fill-opacity="0.85"/>
 </g>
</svg>
