<?xml version="1.0" encoding="UTF-8"?>
<!--Generator: Apple Native CoreSVG 326-->
<!DOCTYPE svg
PUBLIC "-//W3C//DTD SVG 1.1//EN"
       "http://www.w3.org/Graphics/SVG/1.1/DTD/svg11.dtd">
<svg version="1.1" xmlns="http://www.w3.org/2000/svg" xmlns:xlink="http://www.w3.org/1999/xlink" viewBox="0 0 51.25 50.918">
 <g>
  <rect height="50.918" opacity="0" width="51.25" x="0" y="0"/>
  <path d="M50.8789 25.4492C50.8789 39.4531 39.4531 50.8789 25.4297 50.8789C11.4258 50.8789 0 39.4531 0 25.4492C0 11.4258 11.4258 0 25.4297 0C39.4531 0 50.8789 11.4258 50.8789 25.4492ZM26.5625 21.875C26.5625 25.3516 28.2422 28.6719 31.6602 28.6719C33.8477 28.6719 35.4297 27.168 35.9961 24.9219L36.0938 24.9219C36.0938 25.0195 36.0938 25.1367 36.0938 25.2344C36.0938 28.2422 35.7031 33.6719 32.5977 33.6719C31.3086 33.6719 30.4688 32.7539 30 31.4844C29.6484 30.6836 29.1992 30.3711 28.5156 30.3711C27.5586 30.3711 27.1289 31.0156 27.1289 31.7773C27.1289 32.0703 27.207 32.4023 27.3047 32.7148C27.8711 35 30.0195 36.3477 32.5391 36.3477C37.7344 36.3477 39.1992 30.3516 39.1992 25.1953C39.1992 20.332 37.6758 14.5508 32.5781 14.5508C28.75 14.5508 26.5625 17.8711 26.5625 21.875ZM11.8945 18.3789C11.7578 18.8867 11.6992 19.3359 11.6992 19.7656C11.6992 20.5078 12.1875 21.1133 13.1055 21.1133C13.8867 21.1133 14.3359 20.7812 14.5508 20C14.9414 18.3789 15.8203 17.2461 17.4219 17.2461C19.2383 17.2461 20.1562 18.6719 20.1562 20.5078C20.1562 22.4805 19.0039 23.9648 16.9727 23.9648L16.25 23.9648C15.4688 23.9648 14.9805 24.4531 14.9805 25.1953C14.9805 25.9375 15.4883 26.4062 16.25 26.4062L17.0117 26.4062C19.3164 26.4062 20.6055 27.6758 20.6055 30.0586C20.6055 31.9727 19.6094 33.6328 17.5391 33.6328C15.5273 33.6328 14.5703 32.2461 14.2773 30.957C14.0625 30.1758 13.5938 29.7852 12.8516 29.7852C11.9336 29.7852 11.3477 30.332 11.3477 31.2109C11.3477 31.6602 11.4258 32.1484 11.5625 32.5586C12.2852 34.9219 14.7656 36.3086 17.5195 36.3086C21.1133 36.3086 23.8477 33.9844 23.8477 30.1562C23.8477 27.0508 22.0508 25.3516 19.7656 25.1172L19.7656 25.0391C22.1094 24.4141 23.2422 22.3242 23.2422 20.1367C23.2422 16.6602 20.7227 14.6094 17.4219 14.6094C14.7852 14.6094 12.6367 16.1133 11.8945 18.3789ZM35.625 21.7383C35.625 23.8867 34.6289 26.1328 32.6172 26.1328C30.5859 26.1328 29.7266 23.7891 29.7266 21.7383C29.7266 19.6289 30.6836 17.2266 32.6172 17.2266C34.7461 17.2266 35.625 19.6484 35.625 21.7383Z" fill="black" fill-opacity="0.85"/>
 </g>
</svg>
