<?xml version="1.0" encoding="UTF-8"?>
<!--Generator: Apple Native CoreSVG 326-->
<!DOCTYPE svg
PUBLIC "-//W3C//DTD SVG 1.1//EN"
       "http://www.w3.org/Graphics/SVG/1.1/DTD/svg11.dtd">
<svg version="1.1" xmlns="http://www.w3.org/2000/svg" xmlns:xlink="http://www.w3.org/1999/xlink" viewBox="0 0 46.2891 45.918">
 <g>
  <rect height="45.918" opacity="0" width="46.2891" x="0" y="0"/>
  <path d="M7.59766 45.918L38.3008 45.918C43.3594 45.918 45.918 43.3594 45.918 38.3984L45.918 7.53906C45.918 2.55859 43.3594 0 38.3008 0L7.59766 0C2.55859 0 0 2.53906 0 7.53906L0 38.3984C0 43.3984 2.55859 45.918 7.59766 45.918ZM7.67578 42.4609C4.94141 42.4609 3.45703 41.0156 3.45703 38.2031L3.45703 7.71484C3.45703 4.92188 4.94141 3.45703 7.67578 3.45703L38.2422 3.45703C40.918 3.45703 42.4609 4.92188 42.4609 7.71484L42.4609 38.2031C42.4609 41.0156 40.918 42.4609 38.2422 42.4609Z" fill="black" fill-opacity="0.85"/>
  <path d="M13.75 27.6367C13.75 28.7109 14.4922 29.4141 15.6836 29.4141L25.2734 29.4141L25.2734 32.9883C25.2734 34.1406 25.8789 34.8242 26.8555 34.8242C27.8906 34.8242 28.4961 34.1602 28.4961 32.9883L28.4961 29.4141L30.4492 29.4141C31.4258 29.4141 32.0312 28.8281 32.0312 27.9102C32.0312 27.0898 31.4258 26.5234 30.4492 26.5234L28.4961 26.5234L28.4961 20.7812C28.4961 19.6094 27.8906 18.9648 26.8555 18.9648C25.8789 18.9648 25.2734 19.6289 25.2734 20.7812L25.2734 26.5234L17.8125 26.5234C20.0391 22.3438 22.5977 18.0273 24.9219 13.7305C25.0977 13.3789 25.2148 13.0469 25.2148 12.7148C25.2148 11.8555 24.6875 11.1133 23.6719 11.1133C23.0078 11.1133 22.5391 11.4648 22.1289 12.168C19.5312 16.6992 16.7578 21.543 14.1406 26.2109C13.8672 26.6992 13.75 27.168 13.75 27.6367Z" fill="black" fill-opacity="0.85"/>
 </g>
</svg>
