<?xml version="1.0" encoding="UTF-8"?>
<!--Generator: Apple Native CoreSVG 326-->
<!DOCTYPE svg
PUBLIC "-//W3C//DTD SVG 1.1//EN"
       "http://www.w3.org/Graphics/SVG/1.1/DTD/svg11.dtd">
<svg version="1.1" xmlns="http://www.w3.org/2000/svg" xmlns:xlink="http://www.w3.org/1999/xlink" viewBox="0 0 46.2891 45.918">
 <g>
  <rect height="45.918" opacity="0" width="46.2891" x="0" y="0"/>
  <path d="M45.918 7.53906L45.918 38.3984C45.918 43.3594 43.3594 45.918 38.3008 45.918L7.59766 45.918C2.55859 45.918 0 43.3984 0 38.3984L0 7.53906C0 2.53906 2.55859 0 7.59766 0L38.3008 0C43.3594 0 45.918 2.55859 45.918 7.53906ZM21.7773 12.7148C19.1797 16.6016 15.5078 22.0117 13.3984 25.4688C12.9492 26.2109 12.793 26.7773 12.793 27.4414C12.793 28.7891 13.6914 29.668 15.1562 29.668L24.6094 29.668L24.6094 32.793C24.6094 33.9453 25.2344 34.6484 26.25 34.6484C27.3242 34.6484 27.9297 33.9648 27.9297 32.793L27.9297 29.668L30.1562 29.668C31.0352 29.668 31.6406 29.0625 31.6406 28.2031C31.6406 27.3047 31.0547 26.6992 30.1562 26.6992L27.9297 26.6992L27.9297 13.1641C27.9297 11.7383 26.8359 10.7812 25.2148 10.7812C23.6719 10.7812 22.6953 11.3281 21.7773 12.7148ZM24.6094 26.6992L16.1328 26.6992L16.1328 26.5625C18.0273 23.3203 21.9336 17.5195 24.4336 13.7695L24.6094 13.7695Z" fill="black" fill-opacity="0.85"/>
 </g>
</svg>
