<?xml version="1.0" encoding="UTF-8"?>
<!--Generator: Apple Native CoreSVG 326-->
<!DOCTYPE svg
PUBLIC "-//W3C//DTD SVG 1.1//EN"
       "http://www.w3.org/Graphics/SVG/1.1/DTD/svg11.dtd">
<svg version="1.1" xmlns="http://www.w3.org/2000/svg" xmlns:xlink="http://www.w3.org/1999/xlink" viewBox="0 0 51.25 50.918">
 <g>
  <rect height="50.918" opacity="0" width="51.25" x="0" y="0"/>
  <path d="M25.4297 50.8789C39.4727 50.8789 50.8789 39.4922 50.8789 25.4492C50.8789 11.4062 39.4727 0 25.4297 0C11.3867 0 0 11.4062 0 25.4492C0 39.4922 11.3867 50.8789 25.4297 50.8789ZM25.4297 47.2461C13.3789 47.2461 3.63281 37.5 3.63281 25.4492C3.63281 13.3984 13.3789 3.65234 25.4297 3.65234C37.4805 3.65234 47.2266 13.3984 47.2266 25.4492C47.2266 37.5 37.4805 47.2461 25.4297 47.2461Z" fill="black" fill-opacity="0.85"/>
  <path d="M19.8242 35.9375C20.6445 35.9375 21.3281 35.3906 21.3281 34.3555L21.3281 31.4453L22.4023 31.4453C23.2422 31.4453 23.6719 30.8984 23.6719 30.1367C23.6719 29.4141 23.2617 28.8672 22.4023 28.8672L21.3281 28.8672L21.3281 17.3242C21.3281 15.7617 20.293 14.9414 18.8867 14.9414C17.3438 14.9414 16.6211 15.7422 15.9766 17.1289L11.0742 27.5C10.7031 28.3594 10.5664 28.9258 10.5664 29.6289C10.5664 30.7031 11.3086 31.4453 12.4219 31.4453L18.3008 31.4453L18.3008 34.3555C18.3008 35.5078 19.1016 35.9375 19.8242 35.9375ZM18.3594 28.9258L13.3008 28.9258L13.3008 28.7891L18.2617 17.832L18.3594 17.832ZM32.6367 36.1328C37.5586 36.1328 38.9648 30.3516 38.9648 25.4492C38.9648 20.5469 37.5586 14.7656 32.6367 14.7656C27.7148 14.7656 26.3281 20.5469 26.3281 25.4492C26.3281 30.3516 27.7148 36.1328 32.6367 36.1328ZM32.6367 33.4961C30.2734 33.4961 29.5312 29.6289 29.5312 25.4492C29.5312 21.25 30.2734 17.4023 32.6367 17.4023C35.0195 17.4023 35.7422 21.25 35.7422 25.4492C35.7422 29.6289 35.0195 33.4961 32.6367 33.4961Z" fill="black" fill-opacity="0.85"/>
 </g>
</svg>
