<?xml version="1.0" encoding="UTF-8"?>
<!--Generator: Apple Native CoreSVG 326-->
<!DOCTYPE svg
PUBLIC "-//W3C//DTD SVG 1.1//EN"
       "http://www.w3.org/Graphics/SVG/1.1/DTD/svg11.dtd">
<svg version="1.1" xmlns="http://www.w3.org/2000/svg" xmlns:xlink="http://www.w3.org/1999/xlink" viewBox="0 0 51.25 50.918">
 <g>
  <rect height="50.918" opacity="0" width="51.25" x="0" y="0"/>
  <path d="M50.8789 25.4492C50.8789 39.4531 39.4531 50.8789 25.4297 50.8789C11.4258 50.8789 0 39.4531 0 25.4492C0 11.4258 11.4258 0 25.4297 0C39.4531 0 50.8789 11.4258 50.8789 25.4492ZM17.6953 16.9336L12.6953 27.5391C12.3047 28.418 12.168 29.0039 12.168 29.7266C12.168 30.8398 12.9297 31.6016 14.082 31.6016L20.0586 31.6016L20.0586 34.5703C20.0586 35.7422 20.918 36.2109 21.6602 36.2109C22.5 36.2109 23.2031 35.6445 23.2031 34.5703L23.2031 31.6016L24.2773 31.6016C25.1758 31.6016 25.5859 31.0352 25.5859 30.2539C25.5859 29.5117 25.1953 28.9453 24.2773 28.9453L23.2031 28.9453L23.2031 17.1484C23.2031 15.5078 22.1484 14.6875 20.6836 14.6875C19.1016 14.6875 18.3398 15.5078 17.6953 16.9336ZM31.3477 15.625L28.3008 18.0273C27.9102 18.3398 27.5977 18.7695 27.5977 19.3555C27.5977 20.0781 28.0859 20.5859 28.7891 20.5859C29.1602 20.5859 29.375 20.4688 29.6094 20.2734L32.1875 18.2227L32.1875 34.4727C32.1875 35.4102 32.9297 36.1523 33.8672 36.1523C34.7461 36.1523 35.4883 35.4102 35.4883 34.4727L35.4883 16.543C35.4883 15.3906 34.7656 14.6875 33.5938 14.6875C32.6562 14.6875 31.8555 15.2148 31.3477 15.625ZM20.1172 29.0039L14.9805 29.0039L14.9805 28.8672L20.0195 17.6562L20.1172 17.6562Z" fill="black" fill-opacity="0.85"/>
 </g>
</svg>
