<?xml version="1.0" encoding="UTF-8"?>
<!--Generator: Apple Native CoreSVG 326-->
<!DOCTYPE svg
PUBLIC "-//W3C//DTD SVG 1.1//EN"
       "http://www.w3.org/Graphics/SVG/1.1/DTD/svg11.dtd">
<svg version="1.1" xmlns="http://www.w3.org/2000/svg" xmlns:xlink="http://www.w3.org/1999/xlink" viewBox="0 0 46.2891 45.918">
 <g>
  <rect height="45.918" opacity="0" width="46.2891" x="0" y="0"/>
  <path d="M45.918 7.53906L45.918 38.3984C45.918 43.3594 43.3594 45.918 38.3008 45.918L7.59766 45.918C2.55859 45.918 0 43.3984 0 38.3984L0 7.53906C0 2.53906 2.55859 0 7.59766 0L38.3008 0C43.3594 0 45.918 2.55859 45.918 7.53906ZM13.7109 14.4531L8.71094 25.0391C8.32031 25.918 8.18359 26.5039 8.18359 27.2266C8.18359 28.3398 8.94531 29.1016 10.0977 29.1016L16.1133 29.1016L16.1133 32.0703C16.1133 33.2617 16.9336 33.7109 17.6758 33.7109C18.5352 33.7109 19.2383 33.1445 19.2383 32.0703L19.2383 29.1016L20.332 29.1016C21.1914 29.1016 21.6406 28.5352 21.6406 27.7539C21.6406 27.0117 21.2109 26.4453 20.332 26.4453L19.2383 26.4453L19.2383 14.6484C19.2383 13.0273 18.1641 12.1875 16.7188 12.1875C15.1172 12.1875 14.375 13.0078 13.7109 14.4531ZM24.2969 17.4414C24.2969 18.2617 24.7656 18.8867 25.6641 18.8867C26.4062 18.8867 26.875 18.5352 27.0898 17.793C27.5586 15.8984 28.2617 14.668 29.9023 14.668C31.6211 14.668 32.5195 16.25 32.5195 18.1055C32.5195 20.1562 31.25 22.168 29.8242 24.043L25.0781 30.2539C24.6484 30.8008 24.2578 31.3672 24.2578 32.0703C24.2578 32.832 24.7656 33.3984 25.8008 33.3984L34.7266 33.3984C35.5273 33.3984 36.0352 32.8516 36.0352 32.0508C36.0352 31.1914 35.5078 30.7031 34.7266 30.7031L28.3203 30.7031L28.3203 30.5078L32.3438 25.2344C34.8047 22.1094 35.6055 20.2148 35.6055 17.9688C35.6055 14.5508 33.3984 12.0117 29.9023 12.0117C26.6797 12.0117 24.2969 14.7461 24.2969 17.4414ZM16.1719 26.5039L11.0156 26.5039L11.0156 26.3672L16.0742 15.1562L16.1719 15.1562Z" fill="black" fill-opacity="0.85"/>
 </g>
</svg>
