<?xml version="1.0" encoding="UTF-8"?>
<!--Generator: Apple Native CoreSVG 326-->
<!DOCTYPE svg
PUBLIC "-//W3C//DTD SVG 1.1//EN"
       "http://www.w3.org/Graphics/SVG/1.1/DTD/svg11.dtd">
<svg version="1.1" xmlns="http://www.w3.org/2000/svg" xmlns:xlink="http://www.w3.org/1999/xlink" viewBox="0 0 51.25 50.918">
 <g>
  <rect height="50.918" opacity="0" width="51.25" x="0" y="0"/>
  <path d="M25.4297 50.8789C39.4727 50.8789 50.8789 39.4922 50.8789 25.4492C50.8789 11.4062 39.4727 0 25.4297 0C11.3867 0 0 11.4062 0 25.4492C0 39.4922 11.3867 50.8789 25.4297 50.8789ZM25.4297 47.2461C13.3789 47.2461 3.63281 37.5 3.63281 25.4492C3.63281 13.3984 13.3789 3.65234 25.4297 3.65234C37.4805 3.65234 47.2266 13.3984 47.2266 25.4492C47.2266 37.5 37.4805 47.2461 25.4297 47.2461Z" fill="black" fill-opacity="0.85"/>
  <path d="M20.0781 35.9375C20.8984 35.9375 21.582 35.3906 21.582 34.3555L21.582 31.4453L22.6562 31.4453C23.4961 31.4453 23.9258 30.8984 23.9258 30.1367C23.9258 29.4141 23.5156 28.8672 22.6562 28.8672L21.582 28.8672L21.582 17.3242C21.582 15.7617 20.5469 14.9414 19.1406 14.9414C17.5977 14.9414 16.875 15.7422 16.2305 17.1289L11.3281 27.5C10.957 28.3594 10.8203 28.9258 10.8203 29.6289C10.8203 30.7031 11.5625 31.4453 12.6758 31.4453L18.5547 31.4453L18.5547 34.3555C18.5547 35.5078 19.3555 35.9375 20.0781 35.9375ZM18.6133 28.9258L13.5547 28.9258L13.5547 28.7891L18.5156 17.832L18.6133 17.832ZM32.5977 36.0547C36.0938 36.0547 38.7695 33.7891 38.7695 30.0391C38.7695 27.0117 37.0117 25.3516 34.7852 25.1172L34.7852 25.0391C37.0703 24.4336 38.1641 22.4023 38.1641 20.2539C38.1641 16.875 35.7227 14.8633 32.5 14.8633C29.9219 14.8633 27.832 16.3281 27.1094 18.5547C26.9727 19.043 26.9141 19.4922 26.9141 19.9023C26.9141 20.625 27.4023 21.2109 28.2812 21.2109C29.0625 21.2109 29.4727 20.8984 29.6875 20.1172C30.0586 18.5352 30.9375 17.4219 32.5 17.4219C34.2773 17.4219 35.1758 18.8281 35.1758 20.625C35.1758 22.5586 34.043 24.0039 32.0703 24.0039L31.3477 24.0039C30.5859 24.0039 30.1172 24.4727 30.1172 25.1953C30.1172 25.918 30.625 26.3672 31.3477 26.3672L32.1094 26.3672C34.3555 26.3672 35.625 27.6172 35.625 29.9609C35.625 31.8359 34.6484 33.457 32.6172 33.457C30.6445 33.457 29.707 32.0898 29.4141 30.8203C29.2188 30.0781 28.75 29.6875 28.0273 29.6875C27.168 29.6875 26.582 30.2148 26.582 31.0742C26.582 31.5039 26.6602 31.9922 26.7969 32.3828C27.5 34.6875 29.9219 36.0547 32.5977 36.0547Z" fill="black" fill-opacity="0.85"/>
 </g>
</svg>
