<?xml version="1.0" encoding="UTF-8"?>
<!--Generator: Apple Native CoreSVG 326-->
<!DOCTYPE svg
PUBLIC "-//W3C//DTD SVG 1.1//EN"
       "http://www.w3.org/Graphics/SVG/1.1/DTD/svg11.dtd">
<svg version="1.1" xmlns="http://www.w3.org/2000/svg" xmlns:xlink="http://www.w3.org/1999/xlink" viewBox="0 0 51.25 50.918">
 <g>
  <rect height="50.918" opacity="0" width="51.25" x="0" y="0"/>
  <path d="M25.4297 50.8789C39.4727 50.8789 50.8789 39.4922 50.8789 25.4492C50.8789 11.4062 39.4727 0 25.4297 0C11.3867 0 0 11.4062 0 25.4492C0 39.4922 11.3867 50.8789 25.4297 50.8789ZM25.4297 47.2461C13.3789 47.2461 3.63281 37.5 3.63281 25.4492C3.63281 13.3984 13.3789 3.65234 25.4297 3.65234C37.4805 3.65234 47.2266 13.3984 47.2266 25.4492C47.2266 37.5 37.4805 47.2461 25.4297 47.2461Z" fill="black" fill-opacity="0.85"/>
  <path d="M19.7852 35.9375C20.6055 35.9375 21.2891 35.3906 21.2891 34.3555L21.2891 31.4453L22.3438 31.4453C23.2031 31.4453 23.6133 30.8984 23.6133 30.1367C23.6133 29.4141 23.2227 28.8672 22.3438 28.8672L21.2891 28.8672L21.2891 17.3242C21.2891 15.7617 20.2539 14.9414 18.8477 14.9414C17.3047 14.9414 16.5625 15.7422 15.9375 17.1289L11.0352 27.5C10.6641 28.3594 10.5273 28.9258 10.5273 29.6289C10.5273 30.7031 11.2695 31.4453 12.3828 31.4453L18.2617 31.4453L18.2617 34.3555C18.2617 35.5078 19.0625 35.9375 19.7852 35.9375ZM18.3203 28.9258L13.2617 28.9258L13.2617 28.7891L18.2227 17.832L18.3203 17.832ZM35.3711 35.9375C36.1914 35.9375 36.875 35.3906 36.875 34.3555L36.875 31.4453L37.9492 31.4453C38.7891 31.4453 39.2188 30.8984 39.2188 30.1367C39.2188 29.4141 38.8086 28.8672 37.9492 28.8672L36.875 28.8672L36.875 17.3242C36.875 15.7617 35.8398 14.9414 34.4336 14.9414C32.8906 14.9414 32.168 15.7422 31.5234 17.1289L26.6211 27.5C26.25 28.3594 26.1133 28.9258 26.1133 29.6289C26.1133 30.7031 26.8555 31.4453 27.9688 31.4453L33.8477 31.4453L33.8477 34.3555C33.8477 35.5078 34.6484 35.9375 35.3711 35.9375ZM33.9062 28.9258L28.8477 28.9258L28.8477 28.7891L33.8086 17.832L33.9062 17.832Z" fill="black" fill-opacity="0.85"/>
 </g>
</svg>
