<?xml version="1.0" encoding="UTF-8"?>
<!--Generator: Apple Native CoreSVG 326-->
<!DOCTYPE svg
PUBLIC "-//W3C//DTD SVG 1.1//EN"
       "http://www.w3.org/Graphics/SVG/1.1/DTD/svg11.dtd">
<svg version="1.1" xmlns="http://www.w3.org/2000/svg" xmlns:xlink="http://www.w3.org/1999/xlink" viewBox="0 0 46.2891 45.918">
 <g>
  <rect height="45.918" opacity="0" width="46.2891" x="0" y="0"/>
  <path d="M7.59766 45.918L38.3008 45.918C43.3594 45.918 45.918 43.3594 45.918 38.3984L45.918 7.53906C45.918 2.55859 43.3594 0 38.3008 0L7.59766 0C2.55859 0 0 2.53906 0 7.53906L0 38.3984C0 43.3984 2.55859 45.918 7.59766 45.918ZM7.67578 42.4609C4.94141 42.4609 3.45703 41.0156 3.45703 38.2031L3.45703 7.71484C3.45703 4.92188 4.94141 3.45703 7.67578 3.45703L38.2422 3.45703C40.918 3.45703 42.4609 4.92188 42.4609 7.71484L42.4609 38.2031C42.4609 41.0156 40.918 42.4609 38.2422 42.4609Z" fill="black" fill-opacity="0.85"/>
  <path d="M17.3438 33.4375C18.1641 33.4375 18.8281 32.8906 18.8281 31.8555L18.8281 28.9453L19.9023 28.9453C20.7617 28.9453 21.1719 28.3984 21.1719 27.6367C21.1719 26.9141 20.7812 26.3672 19.9023 26.3672L18.8281 26.3672L18.8281 14.8242C18.8281 13.2617 17.8125 12.4414 16.4062 12.4414C14.8633 12.4414 14.1211 13.2422 13.4961 14.6289L8.59375 25C8.22266 25.8594 8.08594 26.4258 8.08594 27.1289C8.08594 28.2031 8.82812 28.9453 9.94141 28.9453L15.8008 28.9453L15.8008 31.8555C15.8008 33.0078 16.6211 33.4375 17.3438 33.4375ZM15.8594 26.4258L10.8203 26.4258L10.8203 26.2891L15.7617 15.332L15.8594 15.332ZM32.9297 33.4375C33.75 33.4375 34.4336 32.8906 34.4336 31.8555L34.4336 28.9453L35.5078 28.9453C36.3477 28.9453 36.7578 28.3984 36.7578 27.6367C36.7578 26.9141 36.3672 26.3672 35.5078 26.3672L34.4336 26.3672L34.4336 14.8242C34.4336 13.2617 33.3984 12.4414 31.9922 12.4414C30.4492 12.4414 29.7266 13.2422 29.082 14.6289L24.1797 25C23.8086 25.8594 23.6719 26.4258 23.6719 27.1289C23.6719 28.2031 24.4141 28.9453 25.5273 28.9453L31.4062 28.9453L31.4062 31.8555C31.4062 33.0078 32.207 33.4375 32.9297 33.4375ZM31.4648 26.4258L26.4062 26.4258L26.4062 26.2891L31.3672 15.332L31.4648 15.332Z" fill="black" fill-opacity="0.85"/>
 </g>
</svg>
