<?xml version="1.0" encoding="UTF-8"?>
<!--Generator: Apple Native CoreSVG 326-->
<!DOCTYPE svg
PUBLIC "-//W3C//DTD SVG 1.1//EN"
       "http://www.w3.org/Graphics/SVG/1.1/DTD/svg11.dtd">
<svg version="1.1" xmlns="http://www.w3.org/2000/svg" xmlns:xlink="http://www.w3.org/1999/xlink" viewBox="0 0 51.25 60.6221">
 <g>
  <rect height="60.6221" opacity="0" width="51.25" x="0" y="0"/>
  <path d="M25.4297 55.7309C39.4727 55.7309 50.8789 44.3442 50.8789 30.3013C50.8789 17.8403 41.875 7.48876 30.1562 5.32079L30.1562 1.59032C30.1562 0.00829228 29.0625-0.440926 27.793 0.457511L19.9023 6.00439C18.8281 6.7661 18.8477 7.84032 19.9023 8.56298L27.8125 14.1099C29.0625 14.9888 30.1562 14.5591 30.1562 12.977L30.1562 9.0122C39.9023 11.1606 47.2266 19.8325 47.2266 30.3013C47.2266 42.352 37.4805 52.0981 25.4297 52.0981C13.3789 52.0981 3.63281 42.352 3.63281 30.3013C3.63281 22.8208 7.42188 16.2388 13.125 12.3716C14.0039 11.7075 14.2773 10.6919 13.7305 9.79345C13.2227 8.93407 11.9922 8.68017 11.0352 9.38329C4.375 13.9731 0 21.5708 0 30.3013C0 44.3442 11.3867 55.7309 25.4297 55.7309Z" fill="black" fill-opacity="0.85"/>
  <path d="M19.6289 40.5942C20.4102 40.5942 21.0742 40.1255 21.0742 39.0903L21.0742 36.3755L22.3242 36.3755C23.1836 36.3755 23.5547 35.8286 23.5547 35.1645C23.5547 34.4224 23.1445 33.9145 22.3242 33.9145L21.0742 33.9145L21.0742 23.0942C21.0742 21.6489 20.1367 20.8677 18.6914 20.8677C17.2656 20.8677 16.543 21.6684 15.8594 22.938C14.2383 25.6528 11.7773 29.9888 10.4297 32.5864C10.1367 33.2895 9.88281 33.9731 9.88281 34.7349C9.88281 35.7114 10.5859 36.3755 11.6016 36.3755L18.2031 36.3755L18.2031 39.0903C18.2031 40.1255 18.8672 40.5942 19.6289 40.5942ZM18.2617 33.9927L12.5195 33.9927L12.5195 33.8364C13.9648 30.77 16.2695 26.688 18.1445 23.5239L18.2617 23.5239ZM32.6172 40.7895C36.5039 40.7895 38.9453 37.8599 38.9453 33.9927C38.9453 30.5747 36.9531 27.7036 33.5938 27.7036C31.875 27.7036 30.4297 28.4653 29.668 29.813L29.5898 29.813L30.1172 23.6411L36.8164 23.6411C37.5586 23.6411 38.0469 23.1528 38.0469 22.3911C38.0469 21.6294 37.5586 21.1411 36.8164 21.1411L29.375 21.1411C28.2031 21.1411 27.6367 21.7466 27.5586 22.9575L26.9531 30.6138C26.875 31.6099 27.4023 32.3325 28.3594 32.3325C29.1211 32.3325 29.4531 32.02 29.9023 31.4731C30.5664 30.5552 31.543 29.9888 32.6758 29.9888C34.8242 29.9888 35.9961 31.9028 35.9961 34.0513C35.9961 36.3559 34.7852 38.27 32.6367 38.27C30.957 38.27 29.8047 37.1958 29.3164 35.7309C29.0234 35.0864 28.5742 34.7544 27.9883 34.7544C27.1875 34.7544 26.6992 35.2622 26.6992 36.0434C26.6992 36.3364 26.7383 36.6294 26.8359 36.9028C27.4805 39.3247 30.1367 40.7895 32.6172 40.7895Z" fill="black" fill-opacity="0.85"/>
 </g>
</svg>
