<?xml version="1.0" encoding="UTF-8"?>
<!--Generator: Apple Native CoreSVG 326-->
<!DOCTYPE svg
PUBLIC "-//W3C//DTD SVG 1.1//EN"
       "http://www.w3.org/Graphics/SVG/1.1/DTD/svg11.dtd">
<svg version="1.1" xmlns="http://www.w3.org/2000/svg" xmlns:xlink="http://www.w3.org/1999/xlink" viewBox="0 0 46.2891 45.918">
 <g>
  <rect height="45.918" opacity="0" width="46.2891" x="0" y="0"/>
  <path d="M7.59766 45.918L38.3008 45.918C43.3594 45.918 45.918 43.3594 45.918 38.3984L45.918 7.53906C45.918 2.55859 43.3594 0 38.3008 0L7.59766 0C2.55859 0 0 2.53906 0 7.53906L0 38.3984C0 43.3984 2.55859 45.918 7.59766 45.918ZM7.67578 42.4609C4.94141 42.4609 3.45703 41.0156 3.45703 38.2031L3.45703 7.71484C3.45703 4.92188 4.94141 3.45703 7.67578 3.45703L38.2422 3.45703C40.918 3.45703 42.4609 4.92188 42.4609 7.71484L42.4609 38.2031C42.4609 41.0156 40.918 42.4609 38.2422 42.4609Z" fill="black" fill-opacity="0.85"/>
  <path d="M17.832 33.4375C18.6523 33.4375 19.3164 32.8906 19.3164 31.8555L19.3164 28.9453L20.3906 28.9453C21.25 28.9453 21.6602 28.3984 21.6602 27.6367C21.6602 26.9141 21.2695 26.3672 20.3906 26.3672L19.3164 26.3672L19.3164 14.8242C19.3164 13.2617 18.3008 12.4414 16.8945 12.4414C15.3516 12.4414 14.6094 13.2422 13.9844 14.6289L9.08203 25C8.71094 25.8594 8.57422 26.4258 8.57422 27.1289C8.57422 28.2031 9.31641 28.9453 10.4297 28.9453L16.2891 28.9453L16.2891 31.8555C16.2891 33.0078 17.0898 33.4375 17.832 33.4375ZM16.3477 26.4258L11.3086 26.4258L11.3086 26.2891L16.25 15.332L16.3477 15.332ZM30.3125 33.6328C34.1406 33.6328 36.2109 30.3125 36.2109 26.4258C36.2109 22.9688 34.5508 19.7461 31.3086 19.7461C29.8633 19.7461 28.4375 20.4297 27.7734 21.9727L27.6562 21.9727L28.125 15.3906L34.1602 15.3906C34.9414 15.3906 35.4102 14.8438 35.4102 14.082C35.4102 13.3398 34.9023 12.7734 34.1602 12.7734L27.2852 12.7734C26.0938 12.7734 25.5664 13.5352 25.4688 14.707L25.0195 21.9141C24.9805 22.3047 24.9805 22.7148 24.9805 23.0273C24.9805 23.8867 25.4297 24.6289 26.4453 24.6289C27.0898 24.6289 27.4414 24.3359 27.8906 23.7109C28.4961 22.7734 29.2188 22.1094 30.332 22.1094C32.3242 22.1094 33.1445 24.5117 33.1445 26.5039C33.1445 28.75 32.2852 31.0352 30.2734 31.0352C28.75 31.0352 27.8125 29.8633 27.3828 28.3594C27.1289 27.5977 26.6406 27.2656 26.0352 27.2656C25.2148 27.2656 24.707 27.793 24.707 28.6133C24.707 29.1016 24.8438 29.6289 25.0195 30.0781C25.8398 32.1875 27.9883 33.6328 30.3125 33.6328Z" fill="black" fill-opacity="0.85"/>
 </g>
</svg>
