<?xml version="1.0" encoding="UTF-8"?>
<!--Generator: Apple Native CoreSVG 326-->
<!DOCTYPE svg
PUBLIC "-//W3C//DTD SVG 1.1//EN"
       "http://www.w3.org/Graphics/SVG/1.1/DTD/svg11.dtd">
<svg version="1.1" xmlns="http://www.w3.org/2000/svg" xmlns:xlink="http://www.w3.org/1999/xlink" viewBox="0 0 46.2891 45.918">
 <g>
  <rect height="45.918" opacity="0" width="46.2891" x="0" y="0"/>
  <path d="M45.918 7.53906L45.918 38.3984C45.918 43.3594 43.3594 45.918 38.3008 45.918L7.59766 45.918C2.55859 45.918 0 43.3984 0 38.3984L0 7.53906C0 2.53906 2.55859 0 7.59766 0L38.3008 0C43.3594 0 45.918 2.55859 45.918 7.53906ZM23.9062 23.2422C23.9062 28.1055 25.4102 33.8867 30.5078 33.8867C34.375 33.8867 36.5234 30.5664 36.5234 26.5625C36.5234 23.0859 34.8438 19.7461 31.4258 19.7461C29.2578 19.7461 27.6758 21.2695 27.1094 23.5156L27.0117 23.5156C27.0117 23.418 27.0117 23.3008 27.0117 23.2031C27.0117 20.1953 27.4023 14.7266 30.4883 14.7266C31.7969 14.7266 32.6367 15.6836 33.0859 16.9141C33.418 17.6172 33.8281 17.9688 34.6094 17.9688C35.5078 17.9688 35.918 17.3828 35.918 16.6211C35.918 16.3477 35.8789 16.0156 35.7617 15.6836C35.2148 13.4375 33.0664 12.0508 30.5664 12.0508C25.3711 12.0508 23.9062 18.1445 23.9062 23.2422ZM13.2227 14.4336L8.22266 25.0391C7.85156 25.918 7.71484 26.5039 7.71484 27.2266C7.71484 28.3398 8.47656 29.1016 9.60938 29.1016L15.625 29.1016L15.625 32.0508C15.625 33.2422 16.4648 33.7109 17.207 33.7109C18.0469 33.7109 18.75 33.1445 18.75 32.0508L18.75 29.1016L19.8438 29.1016C20.7031 29.1016 21.1523 28.5352 21.1523 27.7539C21.1523 27.0117 20.7227 26.4453 19.8438 26.4453L18.75 26.4453L18.75 14.6484C18.75 13.0078 17.6953 12.1875 16.2305 12.1875C14.6484 12.1875 13.8867 13.0078 13.2227 14.4336ZM33.3594 26.7188C33.3594 28.7695 32.4414 31.2109 30.4688 31.2109C28.3594 31.2109 27.4805 28.6328 27.4805 26.582C27.4805 24.5508 28.4766 22.2656 30.4688 22.2656C32.5195 22.2656 33.3984 24.6484 33.3594 26.7188ZM15.6836 26.5039L10.5273 26.5039L10.5273 26.3672L15.5859 15.1562L15.6836 15.1562Z" fill="black" fill-opacity="0.85"/>
 </g>
</svg>
