<?xml version="1.0" encoding="UTF-8"?>
<!--Generator: Apple Native CoreSVG 326-->
<!DOCTYPE svg
PUBLIC "-//W3C//DTD SVG 1.1//EN"
       "http://www.w3.org/Graphics/SVG/1.1/DTD/svg11.dtd">
<svg version="1.1" xmlns="http://www.w3.org/2000/svg" xmlns:xlink="http://www.w3.org/1999/xlink" viewBox="0 0 51.25 50.918">
 <g>
  <rect height="50.918" opacity="0" width="51.25" x="0" y="0"/>
  <path d="M50.8789 25.4492C50.8789 39.4531 39.4531 50.8789 25.4297 50.8789C11.4258 50.8789 0 39.4531 0 25.4492C0 11.4258 11.4258 0 25.4297 0C39.4531 0 50.8789 11.4258 50.8789 25.4492ZM16.9336 16.9336L11.9336 27.5391C11.543 28.418 11.4062 29.0039 11.4062 29.7266C11.4062 30.8398 12.168 31.6016 13.3203 31.6016L19.3164 31.6016L19.3164 34.5508C19.3164 35.7422 20.1562 36.2109 20.8984 36.2109C21.7383 36.2109 22.4414 35.6445 22.4414 34.5508L22.4414 31.6016L23.5352 31.6016C24.4336 31.6016 24.8438 31.0352 24.8438 30.2539C24.8438 29.5117 24.4336 28.9453 23.5352 28.9453L22.4414 28.9453L22.4414 17.1484C22.4414 15.5078 21.4062 14.6875 19.9414 14.6875C18.3398 14.6875 17.5781 15.5078 16.9336 16.9336ZM28.2227 15C27.4414 15 26.8945 15.5664 26.8945 16.3477C26.8945 17.1484 27.4414 17.7148 28.2227 17.7148L35.1562 17.7148L35.1562 17.9297L29.1992 33.4375C29.0039 33.9648 28.9258 34.2578 28.9258 34.7852C28.9258 35.4883 29.375 36.2109 30.4102 36.2109C31.2695 36.2109 31.6406 35.8789 31.9531 35.0391L38.0664 18.7109C38.3008 18.0273 38.4766 17.4609 38.4766 16.7773C38.4766 15.7031 37.6758 15 36.6211 15ZM19.375 29.0039L14.2383 29.0039L14.2383 28.8672L19.2773 17.6562L19.375 17.6562Z" fill="black" fill-opacity="0.85"/>
 </g>
</svg>
