<?xml version="1.0" encoding="UTF-8"?>
<!--Generator: Apple Native CoreSVG 326-->
<!DOCTYPE svg
PUBLIC "-//W3C//DTD SVG 1.1//EN"
       "http://www.w3.org/Graphics/SVG/1.1/DTD/svg11.dtd">
<svg version="1.1" xmlns="http://www.w3.org/2000/svg" xmlns:xlink="http://www.w3.org/1999/xlink" viewBox="0 0 46.2891 45.918">
 <g>
  <rect height="45.918" opacity="0" width="46.2891" x="0" y="0"/>
  <path d="M45.918 7.53906L45.918 38.3984C45.918 43.3594 43.3594 45.918 38.3008 45.918L7.59766 45.918C2.55859 45.918 0 43.3984 0 38.3984L0 7.53906C0 2.53906 2.55859 0 7.59766 0L38.3008 0C43.3594 0 45.918 2.55859 45.918 7.53906ZM14.4531 14.4336L9.47266 25.0391C9.08203 25.918 8.94531 26.5039 8.94531 27.2266C8.94531 28.3398 9.70703 29.1016 10.8594 29.1016L16.8555 29.1016L16.8555 32.0508C16.8555 33.2422 17.6953 33.7109 18.4375 33.7109C19.2773 33.7109 19.9805 33.1445 19.9805 32.0508L19.9805 29.1016L21.0742 29.1016C21.9727 29.1016 22.3828 28.5352 22.3828 27.7539C22.3828 27.0117 21.9727 26.4453 21.0742 26.4453L19.9805 26.4453L19.9805 14.6484C19.9805 13.0078 18.9258 12.1875 17.4805 12.1875C15.8789 12.1875 15.1172 13.0078 14.4531 14.4336ZM25.7617 12.5C24.9805 12.5 24.4336 13.0664 24.4336 13.8477C24.4336 14.6484 24.9805 15.2148 25.7617 15.2148L32.6953 15.2148L32.6953 15.4297L26.7383 30.9375C26.543 31.4648 26.4648 31.7578 26.4648 32.2852C26.4648 32.9883 26.9141 33.7109 27.9492 33.7109C28.8086 33.7109 29.1797 33.3789 29.4922 32.5391L35.6055 16.2109C35.8398 15.5273 36.0156 14.9609 36.0156 14.2773C36.0156 13.2031 35.2148 12.5 34.1406 12.5ZM16.9141 26.5039L11.7773 26.5039L11.7773 26.3672L16.8164 15.1562L16.9141 15.1562Z" fill="black" fill-opacity="0.85"/>
 </g>
</svg>
