<?xml version="1.0" encoding="UTF-8"?>
<!--Generator: Apple Native CoreSVG 326-->
<!DOCTYPE svg
PUBLIC "-//W3C//DTD SVG 1.1//EN"
       "http://www.w3.org/Graphics/SVG/1.1/DTD/svg11.dtd">
<svg version="1.1" xmlns="http://www.w3.org/2000/svg" xmlns:xlink="http://www.w3.org/1999/xlink" viewBox="0 0 46.2891 45.918">
 <g>
  <rect height="45.918" opacity="0" width="46.2891" x="0" y="0"/>
  <path d="M7.59766 45.918L38.3008 45.918C43.3594 45.918 45.918 43.3594 45.918 38.3984L45.918 7.53906C45.918 2.55859 43.3594 0 38.3008 0L7.59766 0C2.55859 0 0 2.53906 0 7.53906L0 38.3984C0 43.3984 2.55859 45.918 7.59766 45.918ZM7.67578 42.4609C4.94141 42.4609 3.45703 41.0156 3.45703 38.2031L3.45703 7.71484C3.45703 4.92188 4.94141 3.45703 7.67578 3.45703L38.2422 3.45703C40.918 3.45703 42.4609 4.92188 42.4609 7.71484L42.4609 38.2031C42.4609 41.0156 40.918 42.4609 38.2422 42.4609Z" fill="black" fill-opacity="0.85"/>
  <path d="M18.5352 33.4375C19.3555 33.4375 20.0391 32.8906 20.0391 31.8555L20.0391 28.9453L21.1133 28.9453C21.9727 28.9453 22.3828 28.3984 22.3828 27.6367C22.3828 26.9141 21.9727 26.3672 21.1133 26.3672L20.0391 26.3672L20.0391 14.8242C20.0391 13.2617 19.0039 12.4414 17.6172 12.4414C16.0547 12.4414 15.332 13.2422 14.707 14.6289L9.78516 25C9.41406 25.8594 9.27734 26.4258 9.27734 27.1289C9.27734 28.2031 10.0195 28.9453 11.1328 28.9453L17.0117 28.9453L17.0117 31.8555C17.0117 33.0078 17.8125 33.4375 18.5352 33.4375ZM17.0703 26.4258L12.0312 26.4258L12.0312 26.2891L16.9727 15.332L17.0703 15.332ZM27.8125 33.457C28.6328 33.457 29.0039 33.1055 29.2969 32.3242L35.2539 16.3477C35.4883 15.6836 35.6641 15.1367 35.6641 14.4727C35.6641 13.457 34.8828 12.7734 33.8672 12.7734L25.6641 12.7734C24.9023 12.7734 24.3945 13.3203 24.3945 14.082C24.3945 14.8438 24.9023 15.3906 25.6641 15.3906L32.4609 15.3906L32.4609 15.5859L26.6406 30.7617C26.4453 31.25 26.3672 31.5625 26.3672 32.0703C26.3672 32.7539 26.7969 33.457 27.8125 33.457Z" fill="black" fill-opacity="0.85"/>
 </g>
</svg>
