<?xml version="1.0" encoding="UTF-8"?>
<!--Generator: Apple Native CoreSVG 326-->
<!DOCTYPE svg
PUBLIC "-//W3C//DTD SVG 1.1//EN"
       "http://www.w3.org/Graphics/SVG/1.1/DTD/svg11.dtd">
<svg version="1.1" xmlns="http://www.w3.org/2000/svg" xmlns:xlink="http://www.w3.org/1999/xlink" viewBox="0 0 51.25 50.918">
 <g>
  <rect height="50.918" opacity="0" width="51.25" x="0" y="0"/>
  <path d="M25.4297 50.8789C39.4727 50.8789 50.8789 39.4922 50.8789 25.4492C50.8789 11.4062 39.4727 0 25.4297 0C11.3867 0 0 11.4062 0 25.4492C0 39.4922 11.3867 50.8789 25.4297 50.8789ZM25.4297 47.2461C13.3789 47.2461 3.63281 37.5 3.63281 25.4492C3.63281 13.3984 13.3789 3.65234 25.4297 3.65234C37.4805 3.65234 47.2266 13.3984 47.2266 25.4492C47.2266 37.5 37.4805 47.2461 25.4297 47.2461Z" fill="black" fill-opacity="0.85"/>
  <path d="M20.1758 35.9375C20.9961 35.9375 21.6797 35.3906 21.6797 34.3555L21.6797 31.4453L22.7539 31.4453C23.6133 31.4453 24.0234 30.8984 24.0234 30.1367C24.0234 29.4141 23.6133 28.8672 22.7539 28.8672L21.6797 28.8672L21.6797 17.3242C21.6797 15.7617 20.6445 14.9414 19.2578 14.9414C17.6953 14.9414 16.9727 15.7422 16.3477 17.1289L11.4258 27.5C11.0547 28.3594 10.918 28.9258 10.918 29.6289C10.918 30.7031 11.6602 31.4453 12.7734 31.4453L18.6523 31.4453L18.6523 34.3555C18.6523 35.5078 19.4531 35.9375 20.1758 35.9375ZM18.7109 28.9258L13.6719 28.9258L13.6719 28.7891L18.6133 17.832L18.7109 17.832ZM31.5625 28.5938C33.6914 28.5938 35.2344 27.1289 35.7812 24.9219L35.8789 24.9219C35.8789 25.0195 35.8789 25.1367 35.8789 25.2344C35.8789 28.1836 35.4883 33.4766 32.4609 33.4766C31.1914 33.4766 30.3711 32.5977 29.9023 31.3477C29.5703 30.5664 29.1211 30.2539 28.4766 30.2539C27.5391 30.2539 27.1484 30.8789 27.1484 31.6211C27.1484 31.8945 27.207 32.2266 27.3047 32.5391C27.8711 34.7656 29.9609 36.0938 32.4219 36.0938C37.4805 36.0938 38.8867 30.2344 38.8867 25.1953C38.8867 20.4492 37.4219 14.8047 32.4609 14.8047C28.7305 14.8047 26.582 18.0469 26.582 21.9727C26.582 25.3516 28.2227 28.5938 31.5625 28.5938ZM32.5 26.1328C30.4883 26.1328 29.6289 23.8477 29.6289 21.8359C29.6289 19.7656 30.5664 17.4023 32.5 17.4023C34.5508 17.4023 35.4297 19.7852 35.4297 21.8359C35.4297 23.9258 34.4531 26.1328 32.5 26.1328Z" fill="black" fill-opacity="0.85"/>
 </g>
</svg>
