<?xml version="1.0" encoding="UTF-8"?>
<!--Generator: Apple Native CoreSVG 326-->
<!DOCTYPE svg
PUBLIC "-//W3C//DTD SVG 1.1//EN"
       "http://www.w3.org/Graphics/SVG/1.1/DTD/svg11.dtd">
<svg version="1.1" xmlns="http://www.w3.org/2000/svg" xmlns:xlink="http://www.w3.org/1999/xlink" viewBox="0 0 51.25 50.918">
 <g>
  <rect height="50.918" opacity="0" width="51.25" x="0" y="0"/>
  <path d="M50.8789 25.4492C50.8789 39.4531 39.4531 50.8789 25.4297 50.8789C11.4258 50.8789 0 39.4531 0 25.4492C0 11.4258 11.4258 0 25.4297 0C39.4531 0 50.8789 11.4258 50.8789 25.4492ZM26.6406 21.875C26.6406 25.3516 28.3203 28.6719 31.7383 28.6719C33.9258 28.6719 35.5078 27.168 36.0742 24.9219L36.1719 24.9219C36.1719 25.0195 36.1719 25.1367 36.1719 25.2344C36.1719 28.2422 35.7812 33.6719 32.6758 33.6719C31.3867 33.6719 30.5469 32.7539 30.0586 31.4844C29.7266 30.6836 29.2773 30.3711 28.5938 30.3711C27.6562 30.3711 27.2266 31.0156 27.2266 31.7773C27.2266 32.0703 27.2852 32.4023 27.3828 32.7148C27.9688 35 30.1172 36.3477 32.6367 36.3477C37.8125 36.3477 39.2773 30.3516 39.2773 25.1953C39.2773 20.332 37.7539 14.5508 32.6758 14.5508C28.8477 14.5508 26.6406 17.8711 26.6406 21.875ZM16.0938 16.9336L11.0938 27.5391C10.7227 28.418 10.5859 29.0039 10.5859 29.7266C10.5859 30.8398 11.3477 31.6016 12.5 31.6016L18.4961 31.6016L18.4961 34.5508C18.4961 35.7422 19.3359 36.2109 20.0781 36.2109C20.918 36.2109 21.6211 35.6445 21.6211 34.5508L21.6211 31.6016L22.7148 31.6016C23.5938 31.6016 24.0234 31.0352 24.0234 30.2539C24.0234 29.5117 23.5938 28.9453 22.7148 28.9453L21.6211 28.9453L21.6211 17.1484C21.6211 15.5078 20.5664 14.6875 19.1016 14.6875C17.5195 14.6875 16.7578 15.5078 16.0938 16.9336ZM18.5547 29.0039L13.3984 29.0039L13.3984 28.8672L18.457 17.6562L18.5547 17.6562ZM35.7031 21.7383C35.7031 23.8867 34.707 26.1328 32.7148 26.1328C30.6641 26.1328 29.7852 23.7891 29.7852 21.7383C29.7852 19.6289 30.7422 17.2266 32.7148 17.2266C34.8047 17.2266 35.7031 19.6484 35.7031 21.7383Z" fill="black" fill-opacity="0.85"/>
 </g>
</svg>
