<?xml version="1.0" encoding="UTF-8"?>
<!--Generator: Apple Native CoreSVG 326-->
<!DOCTYPE svg
PUBLIC "-//W3C//DTD SVG 1.1//EN"
       "http://www.w3.org/Graphics/SVG/1.1/DTD/svg11.dtd">
<svg version="1.1" xmlns="http://www.w3.org/2000/svg" xmlns:xlink="http://www.w3.org/1999/xlink" viewBox="0 0 62.3438 49.2383">
 <g>
  <rect height="49.2383" opacity="0" width="62.3438" x="0" y="0"/>
  <path d="M6.11328 41.2109L55.8789 41.2109C59.6875 41.2109 61.9727 38.9258 61.9727 35.1172L61.9727 6.09375C61.9727 2.28516 59.6875 0 55.8789 0L6.11328 0C2.30469 0 0 2.28516 0 6.09375L0 35.1172C0 38.9258 2.30469 41.2109 6.11328 41.2109ZM6.17188 37.7539C4.47266 37.7539 3.45703 36.7578 3.45703 35.0586L3.45703 6.17188C3.45703 4.45312 4.47266 3.45703 6.17188 3.45703L55.8008 3.45703C57.5 3.45703 58.5156 4.45312 58.5156 6.17188L58.5156 35.0586C58.5156 36.7578 57.5 37.7539 55.8008 37.7539ZM18.4961 49.2188L43.4961 49.2188C44.4531 49.2188 45.2344 48.4375 45.2344 47.4805C45.2344 46.5039 44.4531 45.7227 43.4961 45.7227L18.4961 45.7227C17.5195 45.7227 16.7383 46.5039 16.7383 47.4805C16.7383 48.4375 17.5195 49.2188 18.4961 49.2188Z" fill="black" fill-opacity="0.85"/>
  <path d="M24.4141 31.1328C25.2344 31.1328 25.8984 30.5859 25.8984 29.5508L25.8984 26.6211L26.9727 26.6211C27.832 26.6211 28.2422 26.0742 28.2422 25.3125C28.2422 24.6094 27.8516 24.043 26.9727 24.043L25.8984 24.043L25.8984 12.5C25.8984 10.9375 24.8828 10.1172 23.4766 10.1172C21.9141 10.1172 21.1914 10.9375 20.5664 12.3047L15.6641 22.6758C15.293 23.5352 15.1562 24.1211 15.1562 24.8047C15.1562 25.8789 15.8984 26.6211 16.9922 26.6211L22.8711 26.6211L22.8711 29.5508C22.8711 30.6836 23.6719 31.1328 24.4141 31.1328ZM22.9297 24.1016L17.8906 24.1016L17.8906 23.9648L22.832 13.0078L22.9297 13.0078ZM33.0664 31.1719C34.1602 31.1719 34.707 30.4102 34.707 29.4922L34.707 24.5703L36.4453 21.8945L41.25 29.9609C41.6797 30.7227 42.1094 31.1133 42.9492 31.1133C43.8281 31.1133 44.3945 30.4688 44.3945 29.6289C44.3945 29.1406 44.2773 28.8477 44.0039 28.3398L38.75 19.6484L43.3594 12.9102C43.6133 12.5391 43.7695 12.207 43.7695 11.6797C43.7695 10.9375 43.2617 10.2344 42.3242 10.2344C41.5234 10.2344 41.1914 10.6445 40.8984 11.1133L34.8242 20.3125L34.668 20.3125L34.668 11.8359C34.668 10.8984 34.1016 10.1758 33.0664 10.1758C32.0508 10.1758 31.4648 10.8398 31.4648 11.8359L31.4648 29.4922C31.4648 30.4883 32.0703 31.1719 33.0664 31.1719Z" fill="black" fill-opacity="0.85"/>
 </g>
</svg>
