<?xml version="1.0" encoding="UTF-8"?>
<!--Generator: Apple Native CoreSVG 326-->
<!DOCTYPE svg
PUBLIC "-//W3C//DTD SVG 1.1//EN"
       "http://www.w3.org/Graphics/SVG/1.1/DTD/svg11.dtd">
<svg version="1.1" xmlns="http://www.w3.org/2000/svg" xmlns:xlink="http://www.w3.org/1999/xlink" viewBox="0 0 51.25 60.6221">
 <g>
  <rect height="60.6221" opacity="0" width="51.25" x="0" y="0"/>
  <path d="M25.4297 55.7309C39.4727 55.7309 50.8789 44.3442 50.8789 30.3013C50.8789 17.8403 41.875 7.48876 30.1562 5.32079L30.1562 1.59032C30.1562 0.00829228 29.0625-0.440926 27.793 0.457511L19.9023 6.00439C18.8281 6.7661 18.8477 7.84032 19.9023 8.56298L27.8125 14.1099C29.0625 14.9888 30.1562 14.5591 30.1562 12.977L30.1562 9.0122C39.9023 11.1606 47.2266 19.8325 47.2266 30.3013C47.2266 42.352 37.4805 52.0981 25.4297 52.0981C13.3789 52.0981 3.63281 42.352 3.63281 30.3013C3.63281 22.8208 7.42188 16.2388 13.125 12.3716C14.0039 11.7075 14.2773 10.6919 13.7305 9.79345C13.2227 8.93407 11.9922 8.68017 11.0352 9.38329C4.375 13.9731 0 21.5708 0 30.3013C0 44.3442 11.3867 55.7309 25.4297 55.7309Z" fill="black" fill-opacity="0.85"/>
  <path d="M25.4688 40.77C29.375 40.77 31.7969 37.8794 31.7969 33.9927C31.7969 30.5747 29.8047 27.7036 26.4453 27.7036C24.7461 27.7036 23.2812 28.4849 22.5391 29.813L22.4609 29.813L22.9688 23.6411L29.668 23.6411C30.4102 23.6411 30.8984 23.1333 30.8984 22.3911C30.8984 21.6294 30.4102 21.1411 29.668 21.1411L22.2461 21.1411C21.0547 21.1411 20.4883 21.7661 20.4297 22.9575L19.8242 30.6138C19.7461 31.6099 20.2734 32.352 21.2305 32.352C21.9727 32.352 22.3047 32.02 22.7539 31.4731C23.418 30.5552 24.3945 29.9888 25.5273 29.9888C27.6758 29.9888 28.8477 31.9028 28.8477 34.0708C28.8477 36.3364 27.6367 38.2895 25.4688 38.2895C23.8086 38.2895 22.6562 37.1958 22.168 35.7505C21.875 35.0864 21.4258 34.7544 20.8203 34.7544C20.0391 34.7544 19.5508 35.2622 19.5508 36.0434C19.5508 36.3169 19.5898 36.6294 19.668 36.9028C20.332 39.3247 22.9883 40.77 25.4688 40.77Z" fill="black" fill-opacity="0.85"/>
 </g>
</svg>
