<?xml version="1.0" encoding="UTF-8"?>
<!--Generator: Apple Native CoreSVG 326-->
<!DOCTYPE svg
PUBLIC "-//W3C//DTD SVG 1.1//EN"
       "http://www.w3.org/Graphics/SVG/1.1/DTD/svg11.dtd">
<svg version="1.1" xmlns="http://www.w3.org/2000/svg" xmlns:xlink="http://www.w3.org/1999/xlink" viewBox="0 0 51.25 50.918">
 <g>
  <rect height="50.918" opacity="0" width="51.25" x="0" y="0"/>
  <path d="M25.4297 50.8789C39.4727 50.8789 50.8789 39.4922 50.8789 25.4492C50.8789 11.4062 39.4727 0 25.4297 0C11.3867 0 0 11.4062 0 25.4492C0 39.4922 11.3867 50.8789 25.4297 50.8789ZM25.4297 47.2461C13.3789 47.2461 3.63281 37.5 3.63281 25.4492C3.63281 13.3984 13.3789 3.65234 25.4297 3.65234C37.4805 3.65234 47.2266 13.3984 47.2266 25.4492C47.2266 37.5 37.4805 47.2461 25.4297 47.2461Z" fill="black" fill-opacity="0.85"/>
  <path d="M25.2734 37.3242C30.2734 37.3242 33.6719 34.1602 33.6719 29.4141C33.6719 25 30.5273 21.9336 26.0156 21.9336C23.9453 21.9336 21.8359 22.8516 20.8594 24.2188L20.6836 24.2188L21.3086 16.7969L31.4844 16.7969C32.2461 16.7969 32.793 16.2305 32.793 15.4492C32.793 14.6484 32.2656 14.082 31.4844 14.082L20.957 14.082C19.5508 14.082 18.6328 14.8828 18.5352 16.1523L17.8125 25.0195C17.7148 26.25 18.4375 27.0898 19.6484 27.0898C20.4492 27.0898 20.9375 26.8945 21.7578 26.2305C23.0859 25 24.1602 24.5508 25.625 24.5508C28.4766 24.5508 30.3906 26.543 30.3906 29.4531C30.3906 32.3828 28.2031 34.5703 25.2734 34.5703C23.0273 34.5703 21.1133 33.418 20.332 31.6406C19.9609 30.918 19.4531 30.5664 18.7891 30.5664C17.9297 30.5664 17.3242 31.1523 17.3242 31.9922C17.3242 32.3633 17.4219 32.7148 17.5586 33.0469C18.4961 35.625 21.3477 37.3242 25.2734 37.3242Z" fill="black" fill-opacity="0.85"/>
 </g>
</svg>
