<?xml version="1.0" encoding="UTF-8"?>
<!--Generator: Apple Native CoreSVG 326-->
<!DOCTYPE svg
PUBLIC "-//W3C//DTD SVG 1.1//EN"
       "http://www.w3.org/Graphics/SVG/1.1/DTD/svg11.dtd">
<svg version="1.1" xmlns="http://www.w3.org/2000/svg" xmlns:xlink="http://www.w3.org/1999/xlink" viewBox="0 0 46.2891 45.918">
 <g>
  <rect height="45.918" opacity="0" width="46.2891" x="0" y="0"/>
  <path d="M45.918 7.53906L45.918 38.3984C45.918 43.3594 43.3594 45.918 38.3008 45.918L7.59766 45.918C2.55859 45.918 0 43.3984 0 38.3984L0 7.53906C0 2.53906 2.55859 0 7.59766 0L38.3008 0C43.3594 0 45.918 2.55859 45.918 7.53906ZM12.2461 12.5391C11.0156 12.5391 10.4688 13.3594 10.3906 14.5508L9.92188 21.8945C9.90234 22.3242 9.88281 22.7344 9.88281 23.0664C9.88281 23.9453 10.332 24.707 11.3867 24.707C12.0508 24.707 12.4023 24.4141 12.8906 23.7695C13.4961 22.8125 14.2188 22.1484 15.3711 22.1484C17.4023 22.1484 18.2227 24.5898 18.2227 26.6211C18.2227 28.9062 17.3828 31.2305 15.3125 31.2305C13.75 31.2305 12.8125 30.0391 12.3633 28.5352C12.0898 27.7539 11.582 27.4023 10.957 27.4023C10.1367 27.4023 9.58984 27.9492 9.58984 28.7695C9.58984 29.2969 9.72656 29.8438 9.94141 30.293C10.7617 32.4609 12.9688 33.9062 15.3516 33.9062C19.2773 33.9062 21.4062 30.5273 21.4062 26.543C21.4062 23.0078 19.707 19.707 16.3672 19.707C14.8828 19.707 13.457 20.4102 12.7539 21.9727L12.6562 21.9727L13.1055 15.2734L19.3164 15.2734C20.0977 15.2734 20.5859 14.707 20.5859 13.8867C20.5859 13.125 20.0586 12.5391 19.3164 12.5391ZM24.3555 22.9688C24.3555 28.0078 25.7812 33.9062 30.8203 33.9062C35.8789 33.9062 37.3242 28.0078 37.3242 22.9688C37.3242 17.9297 35.8789 12.0312 30.8203 12.0312C25.7812 12.0312 24.3555 17.9297 24.3555 22.9688ZM33.9844 22.9688C33.9844 27.2852 33.2227 31.1914 30.8203 31.1914C28.418 31.1914 27.6562 27.2852 27.6562 22.9688C27.6562 18.6719 28.418 14.7461 30.8203 14.7461C33.2227 14.7461 33.9844 18.6719 33.9844 22.9688Z" fill="black" fill-opacity="0.85"/>
 </g>
</svg>
