<?xml version="1.0" encoding="UTF-8"?>
<!--Generator: Apple Native CoreSVG 326-->
<!DOCTYPE svg
PUBLIC "-//W3C//DTD SVG 1.1//EN"
       "http://www.w3.org/Graphics/SVG/1.1/DTD/svg11.dtd">
<svg version="1.1" xmlns="http://www.w3.org/2000/svg" xmlns:xlink="http://www.w3.org/1999/xlink" viewBox="0 0 51.25 60.6221">
 <g>
  <rect height="60.6221" opacity="0" width="51.25" x="0" y="0"/>
  <path d="M25.4297 55.7309C39.4727 55.7309 50.8789 44.3442 50.8789 30.3013C50.8789 17.8403 41.875 7.48876 30.1562 5.32079L30.1562 1.59032C30.1562 0.00829228 29.0625-0.440926 27.793 0.457511L19.9023 6.00439C18.8281 6.7661 18.8477 7.84032 19.9023 8.56298L27.8125 14.1099C29.0625 14.9888 30.1562 14.5591 30.1562 12.977L30.1562 9.0122C39.9023 11.1606 47.2266 19.8325 47.2266 30.3013C47.2266 42.352 37.4805 52.0981 25.4297 52.0981C13.3789 52.0981 3.63281 42.352 3.63281 30.3013C3.63281 22.8208 7.42188 16.2388 13.125 12.3716C14.0039 11.7075 14.2773 10.6919 13.7305 9.79345C13.2227 8.93407 11.9922 8.68017 11.0352 9.38329C4.375 13.9731 0 21.5708 0 30.3013C0 44.3442 11.3867 55.7309 25.4297 55.7309Z" fill="black" fill-opacity="0.85"/>
  <path d="M17.832 40.77C21.5625 40.77 24.1016 37.9184 24.1016 34.0122C24.1016 30.477 22.0117 27.7427 18.6719 27.7427C16.3477 27.7427 14.6289 29.1489 14.0234 31.2192L13.9453 31.2192C13.9453 29.3247 14.082 27.938 14.3945 26.8052C14.8828 24.8911 15.8789 23.1724 17.8516 23.1724C19.2383 23.1724 20.2148 23.9341 20.7812 25.1841C21.1328 25.77 21.5234 26.1997 22.207 26.1997C23.1055 26.1997 23.4766 25.5747 23.4766 24.9302C23.4766 24.5005 23.3984 24.0708 23.2031 23.6997C22.4023 21.8442 20.3125 20.6919 17.8906 20.6919C13.4961 20.6919 11.7188 24.6567 11.3281 28.8364C10.9766 31.063 11.1133 33.6997 11.6992 35.5942C12.5977 38.563 14.6484 40.77 17.832 40.77ZM17.793 38.2505C15.6641 38.2505 14.4141 36.1606 14.4141 34.0122C14.4141 31.8638 15.7812 30.0864 17.793 30.0864C19.9219 30.0864 21.1328 31.9419 21.1328 34.1294C21.1328 36.2974 19.8633 38.2505 17.793 38.2505ZM33.6523 40.7309C38.5742 40.7309 40.2539 35.5552 40.2539 30.6724C40.2539 25.77 38.5352 20.6528 33.6523 20.6528C28.6914 20.6528 27.0312 25.8286 27.0312 30.6724C27.0312 35.6333 28.75 40.7309 33.6523 40.7309ZM33.6523 38.2114C31.1914 38.2114 30.1172 34.7349 30.1172 30.6724C30.1172 26.6294 31.1914 23.1919 33.6523 23.1919C36.0938 23.1919 37.168 26.6489 37.168 30.6724C37.168 34.7349 36.1133 38.2114 33.6523 38.2114Z" fill="black" fill-opacity="0.85"/>
 </g>
</svg>
