<?xml version="1.0" encoding="UTF-8"?>
<!--Generator: Apple Native CoreSVG 326-->
<!DOCTYPE svg
PUBLIC "-//W3C//DTD SVG 1.1//EN"
       "http://www.w3.org/Graphics/SVG/1.1/DTD/svg11.dtd">
<svg version="1.1" xmlns="http://www.w3.org/2000/svg" xmlns:xlink="http://www.w3.org/1999/xlink" viewBox="0 0 51.25 50.918">
 <g>
  <rect height="50.918" opacity="0" width="51.25" x="0" y="0"/>
  <path d="M25.4297 50.8789C39.4727 50.8789 50.8789 39.4922 50.8789 25.4492C50.8789 11.4062 39.4727 0 25.4297 0C11.3867 0 0 11.4062 0 25.4492C0 39.4922 11.3867 50.8789 25.4297 50.8789ZM25.4297 47.2461C13.3789 47.2461 3.63281 37.5 3.63281 25.4492C3.63281 13.3984 13.3789 3.65234 25.4297 3.65234C37.4805 3.65234 47.2266 13.3984 47.2266 25.4492C47.2266 37.5 37.4805 47.2461 25.4297 47.2461Z" fill="black" fill-opacity="0.85"/>
  <path d="M22.0312 37.2461C22.7734 37.2461 23.2812 36.9336 23.7305 36.0742L33.2617 17.9297C33.6914 17.1289 33.7891 16.6797 33.7891 16.1914C33.7891 14.9805 32.832 14.082 31.3867 14.082L19.043 14.082C18.2617 14.082 17.7344 14.6484 17.7344 15.4492C17.7344 16.2305 18.2812 16.7969 19.043 16.7969L30.0586 16.7969L30.0586 16.9922L20.6055 34.5703C20.3906 34.9609 20.293 35.2734 20.293 35.7031C20.293 36.6211 21.0742 37.2461 22.0312 37.2461Z" fill="black" fill-opacity="0.85"/>
 </g>
</svg>
