<?xml version="1.0" encoding="UTF-8"?>
<!--Generator: Apple Native CoreSVG 326-->
<!DOCTYPE svg
PUBLIC "-//W3C//DTD SVG 1.1//EN"
       "http://www.w3.org/Graphics/SVG/1.1/DTD/svg11.dtd">
<svg version="1.1" xmlns="http://www.w3.org/2000/svg" xmlns:xlink="http://www.w3.org/1999/xlink" viewBox="0 0 51.25 60.6221">
 <g>
  <rect height="60.6221" opacity="0" width="51.25" x="0" y="0"/>
  <path d="M25.4297 55.7309C39.4727 55.7309 50.8789 44.3442 50.8789 30.3013C50.8789 21.5708 46.5039 13.9731 39.8242 9.38329C38.8867 8.68017 37.6562 8.93407 37.1289 9.79345C36.6016 10.6919 36.875 11.7075 37.7539 12.3716C43.457 16.2388 47.2266 22.8208 47.2266 30.3013C47.2266 42.352 37.4805 52.0981 25.4297 52.0981C13.3789 52.0981 3.63281 42.352 3.63281 30.3013C3.63281 19.8325 10.9766 11.1606 20.7227 9.0122L20.7227 12.977C20.7227 14.5591 21.8164 14.9888 23.0664 14.1099L30.9766 8.56298C32.0117 7.84032 32.0312 6.7661 30.9766 6.00439L23.0859 0.457511C21.8164-0.440926 20.7227 0.00829228 20.7227 1.59032L20.7227 5.32079C8.98438 7.48876 0 17.8403 0 30.3013C0 44.3442 11.3867 55.7309 25.4297 55.7309Z" fill="black" fill-opacity="0.85"/>
  <path d="M14.6875 40.5747C15.4102 40.5747 15.7812 40.2622 16.0742 39.5981L22.6172 24.5395C22.8711 23.9731 23.0664 23.4067 23.0664 22.7817C23.0664 21.688 22.3047 21.1411 21.3477 21.1411L12.4219 21.1411C11.6992 21.1411 11.1914 21.6489 11.1914 22.3716C11.1914 23.1138 11.6992 23.602 12.4219 23.602L20.0195 23.602L20.0195 23.7388L13.5547 38.1724C13.3789 38.5434 13.2812 38.9145 13.2812 39.3052C13.2812 40.0864 13.8672 40.5747 14.6875 40.5747ZM31.9531 40.7895C35.8398 40.7895 38.2812 37.8599 38.2812 33.9927C38.2812 30.5747 36.2891 27.7036 32.9297 27.7036C31.2109 27.7036 29.7656 28.4653 29.0039 29.813L28.9258 29.813L29.4531 23.6411L36.1523 23.6411C36.8945 23.6411 37.3828 23.1528 37.3828 22.3911C37.3828 21.6294 36.8945 21.1411 36.1523 21.1411L28.7109 21.1411C27.5391 21.1411 26.9727 21.7466 26.8945 22.9575L26.2891 30.6138C26.2109 31.6099 26.7383 32.3325 27.6953 32.3325C28.457 32.3325 28.7891 32.02 29.2383 31.4731C29.9023 30.5552 30.8789 29.9888 32.0117 29.9888C34.1602 29.9888 35.332 31.9028 35.332 34.0513C35.332 36.3559 34.1211 38.27 31.9531 38.27C30.293 38.27 29.1406 37.1958 28.6523 35.7309C28.3594 35.0864 27.9102 34.7544 27.3242 34.7544C26.5234 34.7544 26.0352 35.2622 26.0352 36.0434C26.0352 36.3364 26.0742 36.6294 26.1719 36.9028C26.8164 39.3247 29.4727 40.7895 31.9531 40.7895Z" fill="black" fill-opacity="0.85"/>
 </g>
</svg>
