<?xml version="1.0" encoding="UTF-8"?>
<!--Generator: Apple Native CoreSVG 326-->
<!DOCTYPE svg
PUBLIC "-//W3C//DTD SVG 1.1//EN"
       "http://www.w3.org/Graphics/SVG/1.1/DTD/svg11.dtd">
<svg version="1.1" xmlns="http://www.w3.org/2000/svg" xmlns:xlink="http://www.w3.org/1999/xlink" viewBox="0 0 46.2891 45.918">
 <g>
  <rect height="45.918" opacity="0" width="46.2891" x="0" y="0"/>
  <path d="M7.59766 45.918L38.3008 45.918C43.3594 45.918 45.918 43.3594 45.918 38.3984L45.918 7.53906C45.918 2.55859 43.3594 0 38.3008 0L7.59766 0C2.55859 0 0 2.53906 0 7.53906L0 38.3984C0 43.3984 2.55859 45.918 7.59766 45.918ZM7.67578 42.4609C4.94141 42.4609 3.45703 41.0156 3.45703 38.2031L3.45703 7.71484C3.45703 4.92188 4.94141 3.45703 7.67578 3.45703L38.2422 3.45703C40.918 3.45703 42.4609 4.92188 42.4609 7.71484L42.4609 38.2031C42.4609 41.0156 40.918 42.4609 38.2422 42.4609Z" fill="black" fill-opacity="0.85"/>
  <path d="M22.9297 34.8242C28.1055 34.8242 31.6797 32.0703 31.6797 28.0664C31.6797 25.293 29.6289 22.9688 26.6797 22.3828L26.6797 22.2266C29.1406 21.5234 30.7227 19.5117 30.7227 17.1094C30.7227 13.5547 27.5195 11.0742 22.9688 11.0742C18.4375 11.0742 15.2148 13.5547 15.2148 17.1094C15.2148 19.5117 16.7578 21.4844 19.2578 22.2266L19.2578 22.3828C16.2891 22.9688 14.2773 25.3125 14.2773 28.0859C14.2773 32.0898 17.7539 34.8242 22.9297 34.8242ZM22.9883 32.3828C19.8438 32.3828 17.5586 30.5273 17.5586 27.9297C17.5586 25.4297 19.8633 23.5742 22.9883 23.5742C26.1523 23.5742 28.418 25.4102 28.418 27.9297C28.418 30.5273 26.1133 32.3828 22.9883 32.3828ZM22.9688 21.2305C20.3125 21.2305 18.418 19.6094 18.418 17.3633C18.418 15.1172 20.293 13.5352 22.9688 13.5352C25.6445 13.5352 27.5195 15.1172 27.5195 17.3633C27.5195 19.6094 25.625 21.2305 22.9688 21.2305Z" fill="black" fill-opacity="0.85"/>
 </g>
</svg>
