<?xml version="1.0" encoding="UTF-8"?>
<!--Generator: Apple Native CoreSVG 326-->
<!DOCTYPE svg
PUBLIC "-//W3C//DTD SVG 1.1//EN"
       "http://www.w3.org/Graphics/SVG/1.1/DTD/svg11.dtd">
<svg version="1.1" xmlns="http://www.w3.org/2000/svg" xmlns:xlink="http://www.w3.org/1999/xlink" viewBox="0 0 51.25 50.918">
 <g>
  <rect height="50.918" opacity="0" width="51.25" x="0" y="0"/>
  <path d="M50.8789 25.4492C50.8789 39.4531 39.4531 50.8789 25.4297 50.8789C11.4258 50.8789 0 39.4531 0 25.4492C0 11.4258 11.4258 0 25.4297 0C39.4531 0 50.8789 11.4258 50.8789 25.4492ZM16.6992 21.3672C16.6992 26.0742 20.2539 28.9453 24.3164 28.9453C27.7539 28.9453 29.8828 27.2656 30.7812 25.1562L30.957 25.1562C30.9961 31.2305 28.5352 34.7266 24.7852 34.7266C22.9102 34.7266 21.543 33.8867 20.5078 32.3633C20.0977 31.7969 19.668 31.4258 18.9453 31.4258C18.0859 31.4258 17.4609 32.0312 17.4609 32.8906C17.4609 33.1641 17.5195 33.418 17.6172 33.6719C18.1836 35.4297 20.6836 37.6172 24.8047 37.6172C30.8594 37.6172 34.1992 33.2031 34.1992 24.4727C34.1992 17.1484 30.8398 13.2812 25.2734 13.2812C20.1172 13.2812 16.6992 16.4844 16.6992 21.3672ZM30.625 21.25C30.625 24.1602 28.418 26.3477 25.3711 26.3477C22.3047 26.3477 20.1367 24.1797 20.1367 21.2109C20.1367 18.0859 22.2852 15.9766 25.3906 15.9766C28.3594 15.9766 30.625 18.2227 30.625 21.25Z" fill="black" fill-opacity="0.85"/>
 </g>
</svg>
