<?xml version="1.0" encoding="UTF-8"?>
<!--Generator: Apple Native CoreSVG 326-->
<!DOCTYPE svg
PUBLIC "-//W3C//DTD SVG 1.1//EN"
       "http://www.w3.org/Graphics/SVG/1.1/DTD/svg11.dtd">
<svg version="1.1" xmlns="http://www.w3.org/2000/svg" xmlns:xlink="http://www.w3.org/1999/xlink" viewBox="0 0 46.2891 37.9492">
 <g>
  <rect height="37.9492" opacity="0" width="46.2891" x="0" y="0"/>
  <path d="M0 36.2109C0 37.168 0.78125 37.9492 1.73828 37.9492C2.67578 37.9492 3.45703 37.168 3.45703 36.2109L3.45703 1.79688C3.45703 0.839844 2.67578 0.0585938 1.73828 0.0585938C0.78125 0.0585938 0 0.839844 0 1.79688ZM42.4609 36.2109C42.4609 37.168 43.2422 37.9492 44.1797 37.9492C45.1367 37.9492 45.918 37.168 45.918 36.2109L45.918 1.79688C45.918 0.839844 45.1367 0.0585938 44.1797 0.0585938C43.2422 0.0585938 42.4609 0.839844 42.4609 1.79688Z" fill="black" fill-opacity="0.85"/>
  <path d="M22.5195 30.7617C28.457 30.7617 30.332 24.8438 30.332 19.1016C30.332 13.4375 28.125 8.06641 22.6367 8.06641C18.4375 8.06641 15.5469 11.2891 15.5469 15.7031C15.5469 19.5508 17.9297 22.8125 21.7188 22.8125C24.4141 22.8125 26.3477 21.0938 27.0117 18.8477L27.0312 18.8477C27.0312 18.9258 27.0312 19.0234 27.0312 19.1602C27.0703 22.832 26.2695 27.9297 22.6367 27.9297C20.918 27.9297 19.9023 27.0117 19.2578 25.625C18.8477 24.8828 18.418 24.5117 17.6172 24.5117C16.6992 24.5117 16.1914 25.1562 16.1914 25.957C16.1914 26.6602 16.6406 27.5 17.1875 28.1445C18.2617 29.6875 20.1562 30.7617 22.5195 30.7617ZM22.6562 20.1172C20.2539 20.1172 18.9062 17.9297 18.9062 15.5664C18.9062 13.1836 20.2734 10.8984 22.6953 10.8984C25.0391 10.8984 26.5039 13.1836 26.5039 15.6641C26.5039 18.0469 24.9609 20.1172 22.6562 20.1172Z" fill="black" fill-opacity="0.85"/>
 </g>
</svg>
