<?xml version="1.0" encoding="UTF-8"?>
<!--Generator: Apple Native CoreSVG 326-->
<!DOCTYPE svg
PUBLIC "-//W3C//DTD SVG 1.1//EN"
       "http://www.w3.org/Graphics/SVG/1.1/DTD/svg11.dtd">
<svg version="1.1" xmlns="http://www.w3.org/2000/svg" xmlns:xlink="http://www.w3.org/1999/xlink" viewBox="0 0 46.2891 45.918">
 <g>
  <rect height="45.918" opacity="0" width="46.2891" x="0" y="0"/>
  <path d="M7.59766 45.918L38.3008 45.918C43.3594 45.918 45.918 43.3594 45.918 38.3984L45.918 7.53906C45.918 2.55859 43.3594 0 38.3008 0L7.59766 0C2.55859 0 0 2.53906 0 7.53906L0 38.3984C0 43.3984 2.55859 45.918 7.59766 45.918ZM7.67578 42.4609C4.94141 42.4609 3.45703 41.0156 3.45703 38.2031L3.45703 7.71484C3.45703 4.92188 4.94141 3.45703 7.67578 3.45703L38.2422 3.45703C40.918 3.45703 42.4609 4.92188 42.4609 7.71484L42.4609 38.2031C42.4609 41.0156 40.918 42.4609 38.2422 42.4609Z" fill="black" fill-opacity="0.85"/>
  <path d="M22.3633 34.8242C28.2617 34.8242 31.5234 30.5078 31.5234 21.9922C31.5234 14.8438 28.2422 11.0742 22.793 11.0742C17.793 11.0742 14.4531 14.1992 14.4531 18.9648C14.4531 23.5547 17.9297 26.3672 21.8945 26.3672C25.2344 26.3672 27.3242 24.7266 28.2031 22.6562L28.3789 22.6562C28.418 28.5938 26.0156 32.0312 22.3438 32.0312C20.5078 32.0312 19.1602 31.1914 18.1445 29.707C17.7539 29.1602 17.3438 28.7891 16.6406 28.7891C15.8008 28.7891 15.1953 29.375 15.1953 30.2148C15.1953 30.4883 15.2539 30.7227 15.3516 30.9766C15.8984 32.6758 18.3398 34.8242 22.3633 34.8242ZM22.9102 23.8477C19.9023 23.8477 17.793 21.7188 17.793 18.8086C17.793 15.7617 19.8828 13.6914 22.9297 13.6914C25.8398 13.6914 28.0273 15.8789 28.0273 18.8672C28.0273 21.7188 25.8984 23.8477 22.9102 23.8477Z" fill="black" fill-opacity="0.85"/>
 </g>
</svg>
