<?xml version="1.0" encoding="UTF-8"?>
<!--Generator: Apple Native CoreSVG 326-->
<!DOCTYPE svg
PUBLIC "-//W3C//DTD SVG 1.1//EN"
       "http://www.w3.org/Graphics/SVG/1.1/DTD/svg11.dtd">
<svg version="1.1" xmlns="http://www.w3.org/2000/svg" xmlns:xlink="http://www.w3.org/1999/xlink" viewBox="0 0 46.2891 45.918">
 <g>
  <rect height="45.918" opacity="0" width="46.2891" x="0" y="0"/>
  <path d="M45.918 7.53906L45.918 38.3984C45.918 43.3594 43.3594 45.918 38.3008 45.918L7.59766 45.918C2.55859 45.918 0 43.3984 0 38.3984L0 7.53906C0 2.53906 2.55859 0 7.59766 0L38.3008 0C43.3594 0 45.918 2.55859 45.918 7.53906ZM14.2383 18.8672C14.2383 23.5742 17.793 26.4453 21.8555 26.4453C25.2734 26.4453 27.4219 24.7656 28.3203 22.6562L28.4961 22.6562C28.5352 28.7305 26.0742 32.2266 22.3242 32.2266C20.4492 32.2266 19.0625 31.3867 18.0469 29.8633C17.6367 29.2969 17.207 28.9258 16.4844 28.9258C15.625 28.9258 15 29.5312 15 30.3906C15 30.6641 15.0586 30.918 15.1562 31.1719C15.7227 32.9297 18.2227 35.1172 22.3438 35.1172C28.3984 35.1172 31.7383 30.7031 31.7383 21.9727C31.7383 14.6484 28.3789 10.7812 22.793 10.7812C17.6562 10.7812 14.2383 13.9844 14.2383 18.8672ZM28.1641 18.75C28.1641 21.6602 25.957 23.8477 22.9102 23.8477C19.8242 23.8477 17.6758 21.6797 17.6758 18.7109C17.6758 15.5859 19.8242 13.4766 22.9297 13.4766C25.8984 13.4766 28.1641 15.7227 28.1641 18.75Z" fill="black" fill-opacity="0.85"/>
 </g>
</svg>
