<?xml version="1.0" encoding="UTF-8"?>
<!--Generator: Apple Native CoreSVG 326-->
<!DOCTYPE svg
PUBLIC "-//W3C//DTD SVG 1.1//EN"
       "http://www.w3.org/Graphics/SVG/1.1/DTD/svg11.dtd">
<svg version="1.1" xmlns="http://www.w3.org/2000/svg" xmlns:xlink="http://www.w3.org/1999/xlink" viewBox="0 0 51.25 60.6221">
 <g>
  <rect height="60.6221" opacity="0" width="51.25" x="0" y="0"/>
  <path d="M25.4297 55.7309C39.4727 55.7309 50.8789 44.3442 50.8789 30.3013C50.8789 21.5708 46.5039 13.9731 39.8242 9.38329C38.8867 8.68017 37.6562 8.93407 37.1289 9.79345C36.6016 10.6919 36.875 11.7075 37.7539 12.3716C43.457 16.2388 47.2266 22.8208 47.2266 30.3013C47.2266 42.352 37.4805 52.0981 25.4297 52.0981C13.3789 52.0981 3.63281 42.352 3.63281 30.3013C3.63281 19.8325 10.9766 11.1606 20.7227 9.0122L20.7227 12.977C20.7227 14.5591 21.8164 14.9888 23.0664 14.1099L30.9766 8.56298C32.0117 7.84032 32.0312 6.7661 30.9766 6.00439L23.0859 0.457511C21.8164-0.440926 20.7227 0.00829228 20.7227 1.59032L20.7227 5.32079C8.98438 7.48876 0 17.8403 0 30.3013C0 44.3442 11.3867 55.7309 25.4297 55.7309Z" fill="black" fill-opacity="0.85"/>
  <path d="M17.3633 40.7309C22.6172 40.7309 24.2578 35.5161 24.2578 30.438C24.2578 25.4184 22.3047 20.6724 17.4609 20.6724C13.7695 20.6724 11.2109 23.5239 11.2109 27.4106C11.2109 30.8481 13.3203 33.6997 16.6602 33.6997C19.043 33.6997 20.7812 32.1958 21.3477 30.1841L21.3477 30.1841C21.3477 30.2622 21.3672 30.3599 21.3672 30.4575C21.3867 33.7388 20.6836 38.2309 17.4805 38.2309C15.957 38.2309 15.0586 37.4106 14.4727 36.1997C14.1211 35.5356 13.75 35.2036 13.0469 35.2036C12.2266 35.2036 11.7773 35.7895 11.7773 36.4731C11.7773 37.1177 12.168 37.8599 12.6562 38.4263C13.6133 39.7934 15.293 40.7309 17.3633 40.7309ZM17.4805 31.3169C15.3516 31.3169 14.1797 29.3833 14.1797 27.313C14.1797 25.1841 15.3906 23.1724 17.5195 23.1724C19.5898 23.1724 20.8984 25.1841 20.8984 27.3911C20.8984 29.5005 19.5117 31.3169 17.4805 31.3169ZM33.9648 40.7309C38.8867 40.7309 40.5664 35.5552 40.5664 30.6724C40.5664 25.77 38.8477 20.6528 33.9648 20.6528C29.0039 20.6528 27.3438 25.8286 27.3438 30.6724C27.3438 35.6333 29.0625 40.7309 33.9648 40.7309ZM33.9648 38.2114C31.5039 38.2114 30.4297 34.7349 30.4297 30.6724C30.4297 26.6294 31.5039 23.1919 33.9648 23.1919C36.4062 23.1919 37.4805 26.6489 37.4805 30.6724C37.4805 34.7349 36.4062 38.2114 33.9648 38.2114Z" fill="black" fill-opacity="0.85"/>
 </g>
</svg>
