<?xml version="1.0" encoding="UTF-8"?>
<!--Generator: Apple Native CoreSVG 326-->
<!DOCTYPE svg
PUBLIC "-//W3C//DTD SVG 1.1//EN"
       "http://www.w3.org/Graphics/SVG/1.1/DTD/svg11.dtd">
<svg version="1.1" xmlns="http://www.w3.org/2000/svg" xmlns:xlink="http://www.w3.org/1999/xlink" viewBox="0 0 51.25 50.918">
 <g>
  <rect height="50.918" opacity="0" width="51.25" x="0" y="0"/>
  <path d="M25.4297 50.8789C39.4727 50.8789 50.8789 39.4922 50.8789 25.4492C50.8789 11.4062 39.4727 0 25.4297 0C11.3867 0 0 11.4062 0 25.4492C0 39.4922 11.3867 50.8789 25.4297 50.8789ZM25.4297 47.2461C13.3789 47.2461 3.63281 37.5 3.63281 25.4492C3.63281 13.3984 13.3789 3.65234 25.4297 3.65234C37.4805 3.65234 47.2266 13.3984 47.2266 25.4492C47.2266 37.5 37.4805 47.2461 25.4297 47.2461Z" fill="black" fill-opacity="0.85"/>
  <path d="M17.1289 37.2461C17.9102 37.2461 18.457 36.8945 18.7891 35.8594L20.8008 30.1953L30 30.1953L31.9922 35.8594C32.3438 36.875 32.8711 37.2461 33.6914 37.2461C34.6289 37.2461 35.2734 36.6406 35.2734 35.7617C35.2734 35.4297 35.2148 35.1172 35.0391 34.6484L27.793 15.2148C27.3828 14.1016 26.543 13.5352 25.3906 13.5352C24.2188 13.5352 23.418 14.1016 23.0078 15.2148L15.7422 34.6484C15.5859 35.1172 15.5078 35.4297 15.5078 35.7617C15.5078 36.6602 16.1523 37.2461 17.1289 37.2461ZM21.6797 27.5391L25.2734 17.3633L25.5078 17.3633L29.1016 27.5391Z" fill="black" fill-opacity="0.85"/>
 </g>
</svg>
