<?xml version="1.0" encoding="UTF-8"?>
<!--Generator: Apple Native CoreSVG 326-->
<!DOCTYPE svg
PUBLIC "-//W3C//DTD SVG 1.1//EN"
       "http://www.w3.org/Graphics/SVG/1.1/DTD/svg11.dtd">
<svg version="1.1" xmlns="http://www.w3.org/2000/svg" xmlns:xlink="http://www.w3.org/1999/xlink" viewBox="0 0 70.4688 62.2364">
 <g>
  <rect height="62.2364" opacity="0" width="70.4688" x="0" y="0"/>
  <path d="M9.97388 12.2135C9.95243 12.2495 9.928 12.2846 9.90234 12.3194C5.97656 17.5733 3.65234 24.0577 3.65234 31.1084C3.65234 38.1202 5.97656 44.6436 9.90234 49.8584C10.5078 50.7178 10.4102 51.753 9.62891 52.417C8.76953 53.1006 7.65625 53.003 6.97266 52.1045C2.59766 46.2452 0 38.9795 0 31.1084C0 23.2178 2.59766 15.9522 6.97266 10.1123C7.10614 9.93174 7.25936 9.78271 7.42644 9.66697ZM63.1055 10.1123C67.5 15.9522 70.0977 23.2178 70.0977 31.1084C70.0977 38.9795 67.5 46.2452 63.1055 52.1045C62.984 52.2689 62.8468 52.4065 62.6982 52.5167L60.1346 49.9522C60.1527 49.9205 60.1735 49.8893 60.1953 49.8584C64.1211 44.6436 66.4258 38.1202 66.4258 31.1084C66.4258 24.0577 64.1211 17.5733 60.1953 12.3194C59.5898 11.4991 59.668 10.4639 60.4492 9.78031C61.3086 9.09672 62.4414 9.21391 63.1055 10.1123Z" fill="black" fill-opacity="0.85"/>
  <path d="M17.6825 19.9192C15.585 23.1394 14.375 26.9848 14.375 31.1084C14.375 42.5147 23.6328 51.7725 35.0391 51.7725C39.1654 51.7725 43.0132 50.5609 46.2348 48.4611L48.8589 51.0842C44.9391 53.8124 40.1735 55.4053 35.0391 55.4053C21.6211 55.4053 10.7422 44.5264 10.7422 31.1084C10.7422 25.9771 12.3332 21.2143 15.058 17.2957ZM59.3555 31.1084C59.3555 36.2229 57.7721 40.9685 55.0614 44.8772L52.435 42.2498C54.5204 39.0421 55.7227 35.2145 55.7227 31.1084C55.7227 19.7022 46.4453 10.4248 35.0391 10.4248C30.9358 10.4248 27.1105 11.6255 23.9042 13.7086L21.2774 11.0808C25.1849 8.37346 29.9278 6.79203 35.0391 6.79203C48.457 6.79203 59.3555 17.6905 59.3555 31.1084Z" fill="black" fill-opacity="0.85"/>
  <path d="M23.9328 26.1672L22.4805 33.3155L25.6445 33.3155L24.1899 26.4243L27.1785 29.4117L29.0234 37.3584C29.082 37.5342 29.1602 38.003 29.1602 38.1592C29.1602 38.8038 28.6328 39.3506 27.9688 39.3506C27.3047 39.3506 26.8555 39.0381 26.6797 38.2373L26.0352 35.2881L22.1094 35.2881L21.4844 38.2178C21.3477 38.9209 20.9375 39.3506 20.2148 39.3506C19.5703 39.3506 19.0234 38.96 19.0234 38.1592C19.0234 37.8858 19.082 37.6123 19.1602 37.3584L22.1289 24.4873C22.137 24.4538 22.1454 24.4209 22.1551 24.3903ZM33.8477 36.0785L33.8477 37.1436L34.9131 37.1436L36.852 39.0817C36.6731 39.1055 36.4847 39.1163 36.2891 39.1163L32.5977 39.1163C31.7578 39.1163 31.3281 38.6084 31.3281 37.7686L31.3281 33.5599ZM50.4297 25.7373C50.5273 26.0694 50.6055 26.4014 50.6055 26.7139C50.6055 27.2998 50.2344 27.7881 49.5703 27.7881C48.9648 27.7881 48.4961 27.4561 48.3789 26.9288C48.125 25.7764 47.6367 24.8389 46.4648 24.8389C45.3516 24.8389 44.7656 25.8155 44.7656 26.9873C44.7656 28.4327 45.5859 29.0967 46.8555 29.7413L47.7344 30.1905C49.6094 31.128 50.9375 32.2413 50.9375 34.8194C50.9375 36.5946 50.2766 38.0394 49.001 38.8145L47.3664 37.1793C48.075 36.8323 48.4375 36.0157 48.4375 35.0342C48.4375 33.5498 47.6562 32.9053 46.3281 32.2217L45.4688 31.7725C43.6914 30.835 42.3047 29.6827 42.3047 27.1827C42.3047 24.3702 44.1211 22.71 46.4648 22.71C48.5352 22.71 49.9023 24.0381 50.4297 25.7373ZM39.8242 27.0459C39.8242 27.7214 39.662 28.4779 39.3139 29.1239L37.397 27.2063C37.3436 25.932 36.7828 25.0538 35.4492 25.0538L35.2453 25.0538L33.2538 23.0616L36.1914 23.0616C38.5547 23.0616 39.8242 24.7217 39.8242 27.0459Z" fill="black" fill-opacity="0.85"/>
  <path d="M60.6445 59.0381C61.3086 59.6827 62.3828 59.6827 63.0078 59.0381C63.6719 58.3545 63.6523 57.3194 63.0078 56.6748L9.74609 3.3936C9.12109 2.7686 8.04688 2.72953 7.38281 3.3936C6.73828 4.03813 6.73828 5.13188 7.38281 5.75688Z" fill="black" fill-opacity="0.85"/>
 </g>
</svg>
