<?xml version="1.0" encoding="UTF-8"?>
<!--Generator: Apple Native CoreSVG 326-->
<!DOCTYPE svg
PUBLIC "-//W3C//DTD SVG 1.1//EN"
       "http://www.w3.org/Graphics/SVG/1.1/DTD/svg11.dtd">
<svg version="1.1" xmlns="http://www.w3.org/2000/svg" xmlns:xlink="http://www.w3.org/1999/xlink" viewBox="0 0 88.4375 40.0977">
 <g>
  <rect height="40.0977" opacity="0" width="88.4375" x="0" y="0"/>
  <path d="M6.07422 34.3555L13.6328 34.3555L13.6328 30.8984L6.26953 30.8984C4.47266 30.8984 3.45703 29.7461 3.45703 27.7148L3.45703 23.8281C3.45703 19.1406 6.46484 16.543 12.9297 15.7422L23.0664 14.4727L33.8477 7.73438C39.3945 4.27734 42.7148 3.45703 52.4023 3.45703L71.9141 3.45703C76.3086 3.45703 78.9453 4.70703 81.0156 7.69531L82.1484 9.33594C83.7109 11.6211 84.6094 14.2773 84.6094 16.7578L84.6094 27.832C84.6094 29.9023 83.75 30.8984 81.8164 30.8984L75.918 30.8984L75.918 34.3555L82.0117 34.3555C86.1523 34.3555 88.0664 32.207 88.0664 27.6172L88.0664 16.7578C88.0664 13.6523 86.9531 10.2148 85 7.36328L83.8672 5.72266C81.1133 1.69922 77.5586 0 71.9141 0L52.4023 0C42.1289 0 38.0859 0.976562 32.0117 4.78516L21.8945 11.1523L12.5 12.3047C4.14062 13.3398 0 17.1484 0 23.8281L0 28.1055C0 32.0508 2.24609 34.3555 6.07422 34.3555ZM25.7422 34.3555L63.9844 34.3555L63.9844 30.8984L25.7422 30.8984ZM19.5898 40.0391C24.2773 40.0391 27.9688 36.3672 27.9688 31.6797C27.9688 26.9727 24.2773 23.3008 19.5898 23.3008C14.9023 23.3008 11.2109 26.9727 11.2109 31.6797C11.2109 36.3672 14.9023 40.0391 19.5898 40.0391ZM19.5898 36.582C16.8359 36.582 14.6875 34.4336 14.6875 31.6797C14.6875 28.9062 16.8359 26.7578 19.5898 26.7578C22.3438 26.7578 24.4922 28.9062 24.4922 31.6797C24.4922 34.4336 22.3438 36.582 19.5898 36.582ZM70.0586 40.0391C74.7656 40.0391 78.4375 36.3672 78.4375 31.6797C78.4375 26.9727 74.7656 23.3008 70.0586 23.3008C65.3711 23.3008 61.6992 26.9727 61.6992 31.6797C61.6992 36.3672 65.3711 40.0391 70.0586 40.0391ZM70.0586 36.582C67.3047 36.582 65.1562 34.4336 65.1562 31.6797C65.1562 28.9062 67.3047 26.7578 70.0586 26.7578C72.832 26.7578 74.9805 28.9062 74.9805 31.6797C74.9805 34.4336 72.832 36.582 70.0586 36.582Z" fill="black" fill-opacity="0.85"/>
  <path d="M34.6094 25.0977C35.4297 25.0977 35.8203 24.668 35.9766 23.8281L36.4453 21.7969L39.8242 21.7969L40.332 23.8672C40.5078 24.6875 40.9375 25.0977 41.6602 25.0977C42.4805 25.0977 43.0078 24.5312 43.0078 23.7891C43.0078 23.4766 42.9297 23.2227 42.8711 22.8906L40.2539 12.3047C39.9805 11.1523 39.2773 10.625 38.1055 10.625C37.0117 10.625 36.2891 11.1719 36.0352 12.3047L33.457 22.8906C33.3789 23.2227 33.3203 23.4961 33.3203 23.7891C33.3203 24.6875 33.9258 25.0977 34.6094 25.0977ZM36.8164 19.7461L38.0469 13.8086L38.1445 13.8086L39.4531 19.7461ZM46.2891 25.0977C47.1484 25.0977 47.6758 24.5312 47.6758 23.6523L47.6758 12.0703C47.6758 11.1914 47.1484 10.625 46.2891 10.625C45.4297 10.625 44.8828 11.1914 44.8828 12.0703L44.8828 23.6523C44.8828 24.5312 45.4297 25.0977 46.2891 25.0977ZM51.4844 25.0781C52.3242 25.0781 52.8711 24.5312 52.8711 23.6523L52.8711 19.5703L54.1992 19.5703L55.8203 23.9648C56.0742 24.668 56.4648 25.0781 57.1875 25.0781C57.9883 25.0781 58.5352 24.5703 58.5352 23.8477C58.5352 23.5938 58.4375 23.2617 58.3203 22.9102L56.7773 18.9844C58.0859 18.2422 58.6133 16.6992 58.6133 15.2344C58.6133 12.6172 57.207 10.8203 54.2383 10.8203L51.4844 10.8203C50.6055 10.8203 50.0977 11.3672 50.0977 12.2656L50.0977 23.6523C50.0977 24.5312 50.625 25.0781 51.4844 25.0781ZM52.8711 17.6172L52.8711 12.9688L53.9844 12.9688C55.1758 12.9688 55.8008 14.0625 55.8008 15.293C55.8008 16.543 55.2148 17.5977 54.0039 17.5977Z" fill="black" fill-opacity="0.85"/>
 </g>
</svg>
