<?xml version="1.0" encoding="UTF-8"?>
<!--Generator: Apple Native CoreSVG 326-->
<!DOCTYPE svg
PUBLIC "-//W3C//DTD SVG 1.1//EN"
       "http://www.w3.org/Graphics/SVG/1.1/DTD/svg11.dtd">
<svg version="1.1" xmlns="http://www.w3.org/2000/svg" xmlns:xlink="http://www.w3.org/1999/xlink" viewBox="0 0 89.1406 40.0586">
 <g>
  <rect height="40.0586" opacity="0" width="89.1406" x="0" y="0"/>
  <path d="M26.8555 32.2852C26.8555 36.5039 23.5547 39.8242 19.3359 39.8242C15.0977 39.8242 11.7969 36.5039 11.7969 32.2852C11.7969 28.0664 15.0977 24.7656 19.3359 24.7656C23.5547 24.7656 26.8555 28.0664 26.8555 32.2852ZM76.9727 32.2852C76.9727 36.5039 73.6719 39.8242 69.4336 39.8242C65.2148 39.8242 61.8945 36.5039 61.8945 32.2852C61.8945 28.0664 65.2148 24.7656 69.4336 24.7656C73.6719 24.7656 76.9727 28.0664 76.9727 32.2852ZM77.9102 9.33594L81.9336 10.6836C86.6211 12.2266 88.7695 14.9805 88.7695 19.5117L88.7695 26.4844C88.7695 32.0508 86.3477 34.6094 81.0742 34.6094L79.4336 34.6094C79.6094 33.8477 79.707 33.0859 79.707 32.2852C79.707 26.5625 75.1758 22.0508 69.4336 22.0508C63.6914 22.0508 59.1797 26.5625 59.1797 32.2852C59.1797 33.0859 59.2773 33.8477 59.4336 34.6094L29.3164 34.6094C29.4922 33.8477 29.5898 33.0859 29.5898 32.2852C29.5898 26.5625 25.0781 22.0508 19.3359 22.0508C13.5742 22.0508 9.0625 26.5625 9.0625 32.2852C9.0625 33.0859 9.16016 33.8477 9.31641 34.6094L7.67578 34.6094C2.46094 34.6094 0 32.0898 0 26.6016L0 23.3203C0 17.5781 4.0625 13.457 10.7617 12.6172L22.0508 11.2305L32.2656 4.84375C38.3203 1.03516 42.7344 0 52.8125 0L56.4453 0C65.8594 0 72.5 4.84375 77.9102 9.33594ZM34.6484 11.9922L32.0312 22.793C31.9336 23.1445 31.875 23.418 31.875 23.7109C31.875 24.6484 32.5 25.0586 33.2031 25.0586C34.043 25.0586 34.4531 24.6289 34.6289 23.7695L35.0977 21.7188L38.5352 21.7188L39.043 23.8086C39.2383 24.6484 39.668 25.0586 40.4297 25.0586C41.2695 25.0586 41.8164 24.4922 41.8164 23.7109C41.8164 23.3984 41.7383 23.1445 41.6797 22.793L39.0039 11.9922C38.7305 10.8008 37.9883 10.2539 36.7969 10.2539C35.6641 10.2539 34.9023 10.8203 34.6484 11.9922ZM43.7305 11.7383L43.7305 23.5742C43.7305 24.4922 44.2969 25.0586 45.1758 25.0586C46.0742 25.0586 46.6211 24.4922 46.6211 23.5742L46.6211 11.7383C46.6211 10.8398 46.0742 10.2539 45.1758 10.2539C44.2969 10.2539 43.7305 10.8398 43.7305 11.7383ZM50.5273 10.4492C49.6094 10.4492 49.1016 11.0156 49.1016 11.9531L49.1016 23.5742C49.1016 24.4727 49.6289 25.0586 50.5273 25.0586C51.3867 25.0586 51.9531 24.4922 51.9531 23.5742L51.9531 19.4336L53.3203 19.4336L54.9414 23.9062C55.1953 24.6289 55.6055 25.0586 56.3477 25.0586C57.1875 25.0586 57.7539 24.5312 57.7539 23.7891C57.7539 23.5352 57.6367 23.1641 57.5195 22.8125L55.957 18.8281C57.3047 18.0664 57.832 16.4844 57.832 14.9805C57.832 12.2852 56.3867 10.4492 53.3398 10.4492ZM38.1641 19.5898L35.4688 19.5898L36.7188 13.5352L36.8359 13.5352ZM54.9219 15.0195C54.9219 16.2891 54.3359 17.3828 53.1055 17.4023L51.9531 17.4219L51.9531 12.6562L53.0859 12.6562C54.2969 12.6562 54.9219 13.7891 54.9219 15.0195Z" fill="black" fill-opacity="0.85"/>
 </g>
</svg>
