<?xml version="1.0" encoding="UTF-8"?>
<!--Generator: Apple Native CoreSVG 326-->
<!DOCTYPE svg
PUBLIC "-//W3C//DTD SVG 1.1//EN"
       "http://www.w3.org/Graphics/SVG/1.1/DTD/svg11.dtd">
<svg version="1.1" xmlns="http://www.w3.org/2000/svg" xmlns:xlink="http://www.w3.org/1999/xlink" viewBox="0 0 63.7609 58.8867">
 <g>
  <rect height="58.8867" opacity="0" width="63.7609" x="0" y="0"/>
  <path d="M11.5484 58.8867L26.6851 58.8867C30.0445 58.8867 32.1539 56.7969 32.1539 53.4961L32.1539 5.41016C32.1539 2.10938 30.0445 0.0195312 26.6851 0.0195312L11.5484 0.0195312C8.16949 0.0195312 6.06012 2.10938 6.06012 5.41016L6.06012 53.4961C6.06012 56.7969 8.16949 58.8867 11.5484 58.8867ZM25.4937 19.043C24.7906 19.043 24.2632 18.4961 24.2632 17.7734L24.2632 7.65625C24.2632 6.97266 24.7906 6.40625 25.4937 6.40625C26.1773 6.40625 26.7437 6.97266 26.7437 7.65625L26.7437 17.7734C26.7437 18.4961 26.1773 19.043 25.4937 19.043ZM20.2593 19.043C19.5562 19.043 19.0093 18.4961 19.0093 17.7734L19.0093 7.65625C19.0093 6.97266 19.5562 6.40625 20.2593 6.40625C20.9429 6.40625 21.4898 6.97266 21.4898 7.65625L21.4898 17.7734C21.4898 18.4961 20.9429 19.043 20.2593 19.043ZM25.4937 35.625C24.7906 35.625 24.2632 35.0781 24.2632 34.375L24.2632 24.2383C24.2632 23.5547 24.7906 23.0078 25.4937 23.0078C26.1773 23.0078 26.7437 23.5547 26.7437 24.2383L26.7437 34.375C26.7437 35.0781 26.1773 35.625 25.4937 35.625ZM20.2593 35.625C19.5562 35.625 19.0093 35.0781 19.0093 34.375L19.0093 24.2383C19.0093 23.5547 19.5562 23.0078 20.2593 23.0078C20.9429 23.0078 21.4898 23.5547 21.4898 24.2383L21.4898 34.375C21.4898 35.0781 20.9429 35.625 20.2593 35.625ZM25.4937 52.2461C24.7906 52.2461 24.2632 51.6797 24.2632 50.9961L24.2632 40.8789C24.2632 40.1758 24.7906 39.6094 25.4937 39.6094C26.1773 39.6094 26.7437 40.1758 26.7437 40.8789L26.7437 50.9961C26.7437 51.6797 26.1773 52.2461 25.4937 52.2461ZM20.2593 52.2461C19.5562 52.2461 19.0093 51.6797 19.0093 50.9961L19.0093 40.8789C19.0093 40.1758 19.5562 39.6094 20.2593 39.6094C20.9429 39.6094 21.4898 40.1758 21.4898 40.8789L21.4898 50.9961C21.4898 51.6797 20.9429 52.2461 20.2593 52.2461Z" fill="black" fill-opacity="0.85"/>
  <path d="M42.8375 18.7109C43.3648 18.7109 43.7359 18.2617 43.6968 17.7148L43.5797 15.5078L45.4351 16.7383C45.8453 16.9922 46.4507 16.9141 46.7242 16.4648C47.0172 16.0156 46.8218 15.4102 46.2945 15.1953L44.3218 14.1797L46.3336 13.1445C46.7828 12.9297 46.9976 12.3633 46.7437 11.875C46.5093 11.4453 45.8648 11.3281 45.4156 11.6406L43.5797 12.8711L43.7164 10.6641C43.7554 10.1367 43.3843 9.64844 42.8375 9.64844C42.2906 9.64844 41.9195 10.0977 41.9586 10.6445L42.0757 12.8906L40.2007 11.6406C39.7515 11.3477 39.1656 11.4258 38.9117 11.875C38.6382 12.3633 38.8336 12.9102 39.3218 13.1445L41.314 14.1797L39.3414 15.1758C38.8336 15.4102 38.6187 15.9766 38.8922 16.4648C39.1461 16.8945 39.7515 16.9922 40.2007 16.7188L42.0757 15.4883L41.9781 17.7148C41.9586 18.2812 42.3101 18.7109 42.8375 18.7109ZM56.6656 48.9258C57.232 48.9258 57.6031 48.4961 57.5445 47.9492L57.4273 45.6836L59.3218 46.9531C59.7711 47.2266 60.3375 47.1484 60.5718 46.6992C60.8648 46.2109 60.65 45.6641 60.1812 45.4297L58.189 44.3945L60.1617 43.3984C60.6695 43.1641 60.8843 42.6172 60.6109 42.1094C60.3765 41.6797 59.7711 41.582 59.3218 41.8555L57.4273 43.0859L57.525 40.8594C57.5445 40.3125 57.2125 39.8828 56.6656 39.8828C56.1578 39.8828 55.7867 40.332 55.8257 40.8594L55.9429 43.0859L54.0679 41.875C53.6578 41.6016 53.0718 41.6797 52.7789 42.1094C52.4664 42.5781 52.7007 43.1836 53.2281 43.3984L55.1812 44.3945L53.189 45.4297C52.7203 45.6836 52.5054 46.2109 52.7593 46.6992C52.9937 47.1484 53.6382 47.2461 54.0875 46.9531L55.9429 45.7031L55.8062 47.9102C55.7672 48.457 56.1382 48.9258 56.6656 48.9258ZM41.8609 26.3477C48.3453 26.3477 51.8609 20.957 57.6226 20.957C59.0484 20.957 60.2007 21.25 61.6265 22.0508C62.4273 22.5 63.1304 22.1875 63.5015 21.6602C63.9117 21.0352 63.8726 20.0781 62.9156 19.5312C61.275 18.5742 59.5172 18.1055 57.6226 18.1055C50.9429 18.1055 47.4664 23.5156 41.8609 23.5156C40.4547 23.5156 39.2828 23.1836 37.857 22.3828C37.0953 21.9531 36.3531 22.2266 36.0015 22.8125C35.6109 23.4375 35.65 24.4141 36.5679 24.9219C38.189 25.9375 39.9859 26.3477 41.8609 26.3477ZM41.8804 33.5547C48.3453 33.5547 51.8804 28.1836 57.6226 28.1836C59.0679 28.1836 60.2203 28.4766 61.6461 29.2773C62.4273 29.7266 63.15 29.4141 63.5211 28.8867C63.9117 28.2617 63.8922 27.2852 62.9547 26.7578C61.2945 25.8008 59.5172 25.332 57.6226 25.332C50.9625 25.332 47.4859 30.7227 41.8804 30.7227C40.4547 30.7227 39.2828 30.4102 37.8765 29.6094C37.1148 29.1797 36.3531 29.4531 36.0015 30.0391C35.6109 30.6641 35.65 31.6211 36.5875 32.1484C38.2086 33.1445 40.0054 33.5547 41.8804 33.5547ZM41.8609 40.7812C48.3453 40.7812 51.8609 35.3906 57.6226 35.3906C59.0484 35.3906 60.2007 35.7031 61.6265 36.5039C62.4273 36.9531 63.1304 36.6406 63.5015 36.1133C63.9117 35.4883 63.8726 34.5117 62.9156 33.9648C61.275 33.0078 59.5172 32.5391 57.6226 32.5391C50.9429 32.5391 47.4664 37.9492 41.8609 37.9492C40.4547 37.9492 39.2828 37.6367 37.857 36.8359C37.0953 36.4062 36.3531 36.6797 36.0015 37.2656C35.6109 37.8906 35.65 38.8477 36.5679 39.375C38.189 40.3711 39.9859 40.7812 41.8609 40.7812Z" fill="black" fill-opacity="0.85"/>
 </g>
</svg>
