<?xml version="1.0" encoding="UTF-8"?>
<!--Generator: Apple Native CoreSVG 326-->
<!DOCTYPE svg
PUBLIC "-//W3C//DTD SVG 1.1//EN"
       "http://www.w3.org/Graphics/SVG/1.1/DTD/svg11.dtd">
<svg version="1.1" xmlns="http://www.w3.org/2000/svg" xmlns:xlink="http://www.w3.org/1999/xlink" viewBox="0 0 51.25 50.918">
 <g>
  <rect height="50.918" opacity="0" width="51.25" x="0" y="0"/>
  <path d="M25.4297 50.8789C39.4727 50.8789 50.8789 39.4922 50.8789 25.4492C50.8789 11.4062 39.4727 0 25.4297 0C11.3867 0 0 11.4062 0 25.4492C0 39.4922 11.3867 50.8789 25.4297 50.8789ZM25.4297 47.2461C13.3789 47.2461 3.63281 37.5 3.63281 25.4492C3.63281 13.3984 13.3789 3.65234 25.4297 3.65234C37.4805 3.65234 47.2266 13.3984 47.2266 25.4492C47.2266 37.5 37.4805 47.2461 25.4297 47.2461Z" fill="black" fill-opacity="0.85"/>
  <path d="M32.8516 38.3594C33.6328 38.3594 33.9844 37.5195 33.4766 36.9531L26.0938 28.6133C25.7617 28.2031 25.0586 28.2031 24.707 28.6133L17.3047 36.9531C16.8164 37.5195 17.1875 38.3594 17.9297 38.3594ZM36.4258 14.8242L14.3555 14.8242C12.3828 14.8242 11.0156 16.2109 11.0156 18.1836L11.0156 30.3906C11.0156 32.3438 12.3828 33.7305 14.3555 33.7305L17.6562 33.7305L19.668 31.4453L14.5898 31.4453C13.8867 31.4453 13.3789 30.9375 13.3789 30.2148L13.3789 18.3594C13.3789 17.6172 13.8867 17.0898 14.5898 17.0898L36.2109 17.0898C36.9336 17.0898 37.4219 17.6172 37.4219 18.3594L37.4219 30.2148C37.4219 30.9375 36.9336 31.4453 36.2109 31.4453L31.1328 31.4453L33.125 33.7305L36.4258 33.7305C38.3984 33.7305 39.8047 32.3438 39.8047 30.3906L39.8047 18.1836C39.8047 16.2109 38.3984 14.8242 36.4258 14.8242Z" fill="black" fill-opacity="0.85"/>
 </g>
</svg>
