<?xml version="1.0" encoding="UTF-8"?>
<!--Generator: Apple Native CoreSVG 326-->
<!DOCTYPE svg
PUBLIC "-//W3C//DTD SVG 1.1//EN"
       "http://www.w3.org/Graphics/SVG/1.1/DTD/svg11.dtd">
<svg version="1.1" xmlns="http://www.w3.org/2000/svg" xmlns:xlink="http://www.w3.org/1999/xlink" viewBox="0 0 40.6836 52.168">
 <g>
  <rect height="52.168" opacity="0" width="40.6836" x="0" y="0"/>
  <path d="M7.59766 52.168L32.7148 52.168C37.7344 52.168 40.3125 49.6484 40.3125 44.6484L40.3125 7.61719C40.3125 2.61719 37.7344 0.0976562 32.7148 0.0976562L7.59766 0.0976562C2.55859 0.0976562 0 2.61719 0 7.61719L0 44.6484C0 49.6484 2.55859 52.168 7.59766 52.168ZM7.67578 48.7109C4.94141 48.7109 3.45703 47.2656 3.45703 44.4727L3.45703 7.79297C3.45703 5 4.94141 3.55469 7.67578 3.55469L32.6367 3.55469C35.3711 3.55469 36.8555 5 36.8555 7.79297L36.8555 44.4727C36.8555 47.2656 35.3711 48.7109 32.6367 48.7109ZM0.390625 17.8906L9.12109 17.8906C12.8516 17.8906 14.7266 16.0352 14.7266 12.3633L14.7266 0.976562L12.0508 0.976562L12.0508 12.1875C12.0508 14.1406 10.9766 15.2148 9.0625 15.2148L0.390625 15.2148Z" fill="black" fill-opacity="0.85"/>
 </g>
</svg>
