<?xml version="1.0" encoding="UTF-8"?>
<!--Generator: Apple Native CoreSVG 326-->
<!DOCTYPE svg
PUBLIC "-//W3C//DTD SVG 1.1//EN"
       "http://www.w3.org/Graphics/SVG/1.1/DTD/svg11.dtd">
<svg version="1.1" xmlns="http://www.w3.org/2000/svg" xmlns:xlink="http://www.w3.org/1999/xlink" viewBox="0 0 51.25 50.918">
 <g>
  <rect height="50.918" opacity="0" width="51.25" x="0" y="0"/>
  <path d="M50.8789 25.4688C50.8789 39.4922 39.4531 50.918 25.4297 50.918C11.4258 50.918 0 39.4922 0 25.4688C0 11.4648 11.4258 0.0390625 25.4297 0.0390625C39.4531 0.0390625 50.8789 11.4648 50.8789 25.4688ZM18.5156 11.5039C18.0273 11.5039 17.7344 11.9727 17.9492 12.4805L22.5195 22.5781L15.918 23.3008L13.5156 18.9453C13.2812 18.5352 12.9492 18.3594 12.4414 18.3594L11.8359 18.3594C11.3672 18.3594 11.0547 18.6523 11.0547 19.1211L11.0547 31.8359C11.0547 32.3047 11.3672 32.6172 11.8359 32.6172L12.4414 32.6172C12.9492 32.6172 13.2812 32.4219 13.5156 32.0312L15.918 27.6562L22.5195 28.3984L17.9492 38.4961C17.7344 39.0039 18.0273 39.4727 18.5156 39.4727L20.0977 39.4727C20.5273 39.4727 20.957 39.2773 21.2695 38.9258L30.3711 28.9844C30.8008 28.5352 31.0156 28.4375 31.6992 28.4375L37.2461 28.4375C40 28.4375 42.2266 27.168 42.2266 25.4883C42.2266 23.8086 40 22.5391 37.2461 22.5391L31.6992 22.5391C31.0156 22.5391 30.8008 22.4414 30.3711 21.9727L21.2695 12.0508C20.957 11.6992 20.5273 11.5039 20.0977 11.5039Z" fill="black" fill-opacity="0.85"/>
 </g>
</svg>
