<?xml version="1.0" encoding="UTF-8"?>
<!--Generator: Apple Native CoreSVG 326-->
<!DOCTYPE svg
PUBLIC "-//W3C//DTD SVG 1.1//EN"
       "http://www.w3.org/Graphics/SVG/1.1/DTD/svg11.dtd">
<svg version="1.1" xmlns="http://www.w3.org/2000/svg" xmlns:xlink="http://www.w3.org/1999/xlink" viewBox="0 0 61.6406 50.0195">
 <g>
  <rect height="50.0195" opacity="0" width="61.6406" x="0" y="0"/>
  <path d="M61.6406 25C61.6211 22.1289 57.6953 20.0391 53.0078 20.0391L42.9688 20.0391C41.6016 20.0391 41.0938 19.8047 40.2539 18.8867L23.7695 0.878906C23.2617 0.3125 22.6172 0 21.9141 0L19.043 0C18.3984 0 18.0469 0.566406 18.3594 1.25L26.8359 20.0391L14.1016 21.4453L9.66797 13.3008C9.31641 12.6953 8.82812 12.4414 8.02734 12.4414L6.93359 12.4414C6.28906 12.4414 5.87891 12.8125 5.87891 13.4766L5.87891 36.5234C5.87891 37.168 6.28906 37.5586 6.93359 37.5586L8.02734 37.5586C8.82812 37.5586 9.31641 37.2852 9.66797 36.6992L14.1016 28.5547L26.8359 29.9609L18.3594 48.75C18.0469 49.4141 18.3984 49.9805 19.043 49.9805L21.9141 49.9805C22.6172 49.9805 23.2617 49.668 23.7695 49.1016L40.2539 31.0938C41.0938 30.1758 41.6016 29.9609 42.9688 29.9609L53.0078 29.9609C57.6953 29.9609 61.6211 27.8516 61.6406 25Z" fill="black" fill-opacity="0.85"/>
 </g>
</svg>
