<?xml version="1.0" encoding="UTF-8"?>
<!--Generator: Apple Native CoreSVG 326-->
<!DOCTYPE svg
PUBLIC "-//W3C//DTD SVG 1.1//EN"
       "http://www.w3.org/Graphics/SVG/1.1/DTD/svg11.dtd">
<svg version="1.1" xmlns="http://www.w3.org/2000/svg" xmlns:xlink="http://www.w3.org/1999/xlink" viewBox="0 0 52.9297 43.6133">
 <g>
  <rect height="43.6133" opacity="0" width="52.9297" x="0" y="0"/>
  <path d="M14.9609 43.5938L37.5977 43.5938C47.6367 43.5938 52.5586 38.7109 52.5586 28.75L52.5586 14.8242C52.5586 4.88281 47.6367 0 37.5977 0L14.9609 0C4.92188 0 0 4.88281 0 14.8242L0 28.75C0 38.7109 4.92188 43.5938 14.9609 43.5938ZM14.9609 40.1172C7.10938 40.1172 3.45703 36.5234 3.45703 28.75L3.45703 14.8242C3.45703 7.07031 7.10938 3.45703 14.9609 3.45703L37.5977 3.45703C45.4492 3.45703 49.1016 7.07031 49.1016 14.8242L49.1016 28.75C49.1016 36.5234 45.4492 40.1172 37.5977 40.1172ZM1.75781 16.5625L50.8008 16.5625L50.8008 14.2773L1.75781 14.2773ZM16.3086 18.2617L36.25 18.2617C37.9102 18.2617 39.1016 17.0898 39.1016 15.4297C39.1016 13.75 37.9102 12.5781 36.25 12.5781L16.3086 12.5781C14.707 12.5781 13.457 13.75 13.457 15.4297C13.457 17.0898 14.707 18.2617 16.3086 18.2617ZM26.2695 26.7188C27.5586 26.6797 28.5938 25.6445 28.5938 24.4141C28.5938 23.1445 27.5586 22.0898 26.2695 22.0898C25 22.0898 23.9453 23.1445 23.9453 24.4141C23.9453 25.6641 25 26.7383 26.2695 26.7188Z" fill="black" fill-opacity="0.85"/>
 </g>
</svg>
