<?xml version="1.0" encoding="UTF-8"?>
<!--Generator: Apple Native CoreSVG 326-->
<!DOCTYPE svg
PUBLIC "-//W3C//DTD SVG 1.1//EN"
       "http://www.w3.org/Graphics/SVG/1.1/DTD/svg11.dtd">
<svg version="1.1" xmlns="http://www.w3.org/2000/svg" xmlns:xlink="http://www.w3.org/1999/xlink" viewBox="0 0 66.0352 43.3398">
 <g>
  <rect height="43.3398" opacity="0" width="66.0352" x="0" y="0"/>
  <path d="M56.3867 38.5938C57.0703 39.3945 58.2812 39.375 59.1016 38.4766C63.2617 34.043 65.6641 28.1055 65.6641 21.6602C65.6641 15.1953 63.2617 9.27734 59.1016 4.82422C58.2812 3.92578 57.0703 3.92578 56.3867 4.72656C55.7031 5.48828 55.918 6.50391 56.6992 7.36328C60.1758 11.1523 62.1484 16.1328 62.1484 21.6602C62.1484 27.168 60.1758 32.1484 56.6992 35.9375C55.918 36.7969 55.7031 37.8125 56.3867 38.5938Z" fill="black" fill-opacity="0.85"/>
  <path d="M49.4141 31.4844C50.1172 32.2852 51.4062 32.2852 52.168 31.3281C54.375 28.6914 55.6641 25.3125 55.6641 21.6602C55.6641 18.0078 54.375 14.6094 52.168 11.9727C51.4062 11.0156 50.1172 11.0352 49.4141 11.8359C48.7305 12.5977 49.0039 13.5742 49.707 14.4727C51.3477 16.3672 52.168 18.9258 52.168 21.6602C52.168 24.3945 51.3477 26.9336 49.707 28.8281C49.0039 29.7266 48.7305 30.7031 49.4141 31.4844Z" fill="black" fill-opacity="0.85"/>
  <path d="M21.6602 43.3008C33.6133 43.3008 43.3203 33.6133 43.3203 21.6602C43.3203 9.6875 33.6133 0 21.6602 0C9.6875 0 0 9.6875 0 21.6602C0 33.6133 9.6875 43.3008 21.6602 43.3008ZM21.6602 39.8438C11.6016 39.8438 3.45703 31.6992 3.45703 21.6602C3.45703 11.6016 11.6016 3.45703 21.6602 3.45703C31.6992 3.45703 39.8438 11.6016 39.8438 21.6602C39.8438 31.6992 31.6992 39.8438 21.6602 39.8438ZM21.6211 28.9844C23.1445 28.9844 23.457 29.7461 24.7461 29.7461C26.0547 29.7461 26.9336 28.5547 27.7539 27.3828C28.6914 26.0547 29.0625 24.7266 29.0625 24.6875C28.9844 24.6484 26.5039 23.6523 26.5039 20.8008C26.5039 18.3398 28.4375 17.2461 28.5547 17.1484C27.2852 15.2734 25.3125 15.2539 24.7461 15.2539C23.3203 15.2539 22.1484 16.1328 21.3867 16.1328C20.5859 16.1328 19.5508 15.2734 18.2812 15.2734C15.8789 15.2734 13.4766 17.2656 13.4766 20.9961C13.4766 23.3203 14.375 25.7617 15.4688 27.3438C16.4258 28.6914 17.2461 29.7852 18.457 29.7852C19.6289 29.7852 20.1562 28.9844 21.6211 28.9844ZM24.082 13.6523C24.668 12.9492 25.0977 11.9922 25.0977 10.9766C25.0977 10.8398 25.0977 10.7227 25.0781 10.6055C24.082 10.625 22.9492 11.25 22.2656 12.0703C21.7188 12.7148 21.1914 13.6523 21.1914 14.668C21.1914 14.8047 21.2305 14.9609 21.2305 15.0195C21.3086 15.0195 21.3867 15.0391 21.4844 15.0391C22.3633 15.0391 23.457 14.4531 24.082 13.6523Z" fill="black" fill-opacity="0.85"/>
 </g>
</svg>
