<?xml version="1.0" encoding="UTF-8"?>
<!--Generator: Apple Native CoreSVG 326-->
<!DOCTYPE svg
PUBLIC "-//W3C//DTD SVG 1.1//EN"
       "http://www.w3.org/Graphics/SVG/1.1/DTD/svg11.dtd">
<svg version="1.1" xmlns="http://www.w3.org/2000/svg" xmlns:xlink="http://www.w3.org/1999/xlink" viewBox="0 0 51.25 50.918">
 <g>
  <rect height="50.918" opacity="0" width="51.25" x="0" y="0"/>
  <path d="M25.4297 50.8789C39.4727 50.8789 50.8789 39.4922 50.8789 25.4492C50.8789 11.4062 39.4727 0 25.4297 0C11.3867 0 0 11.4062 0 25.4492C0 39.4922 11.3867 50.8789 25.4297 50.8789ZM25.4883 46.8164C13.6719 46.8164 4.12109 37.2656 4.12109 25.4492C4.12109 13.6328 13.6719 4.0625 25.4883 4.0625C37.3047 4.0625 46.875 13.6328 46.875 25.4492C46.875 37.2656 37.3047 46.8164 25.4883 46.8164ZM25.4297 44.4922C35.9375 44.4922 44.4727 35.957 44.4727 25.4492C44.4727 14.9414 35.9375 6.40625 25.4297 6.40625C14.9219 6.40625 6.38672 14.9414 6.38672 25.4492C6.38672 35.957 14.9219 44.4922 25.4297 44.4922ZM25.6641 32.5781C24.1992 32.5781 23.6914 33.3789 22.5391 33.3789C21.3281 33.3789 20.5078 32.3047 19.5508 30.957C18.4961 29.4141 17.5977 26.9922 17.5977 24.6875C17.5977 21.0156 19.9805 19.043 22.3633 19.043C23.5938 19.043 24.6289 19.8828 25.4102 19.8828C26.1719 19.8828 27.3438 19.0234 28.75 19.0234C29.3164 19.0234 31.25 19.043 32.5195 20.8594C32.4219 20.9766 30.4883 22.0508 30.4883 24.4922C30.4883 27.3047 32.9492 28.3203 33.0273 28.3398C33.0273 28.3984 32.6367 29.707 31.7383 31.0156C30.918 32.168 30.0391 33.3398 28.75 33.3398C27.4609 33.3398 27.168 32.5781 25.6641 32.5781ZM28.1055 17.4219C27.4609 18.2227 26.4062 18.7891 25.5273 18.7891C25.4102 18.7891 25.3516 18.7695 25.2734 18.7695C25.2734 18.7109 25.2344 18.5547 25.2344 18.4375C25.2344 17.4219 25.7617 16.4844 26.2891 15.8594C26.9727 15.0391 28.1055 14.4336 29.082 14.4141C29.1016 14.5117 29.1016 14.6484 29.1016 14.7852C29.1016 15.7812 28.6719 16.7188 28.1055 17.4219Z" fill="black" fill-opacity="0.85"/>
 </g>
</svg>
