<?xml version="1.0" encoding="UTF-8"?>
<!--Generator: Apple Native CoreSVG 326-->
<!DOCTYPE svg
PUBLIC "-//W3C//DTD SVG 1.1//EN"
       "http://www.w3.org/Graphics/SVG/1.1/DTD/svg11.dtd">
<svg version="1.1" xmlns="http://www.w3.org/2000/svg" xmlns:xlink="http://www.w3.org/1999/xlink" viewBox="0 0 47.6562 57.3242">
 <g>
  <rect height="57.3242" opacity="0" width="47.6562" x="0" y="0"/>
  <path d="M25.2344 55.7812C25.2344 56.6211 24.4922 57.2852 23.6328 57.2852C22.793 57.2852 22.0508 56.6211 22.0508 55.7812L22.0508 50.7617L25.2344 50.7617ZM25.2344 31.2305L22.0508 31.2305L22.0508 26.0352L25.2344 26.0352ZM25.2344 1.50391L25.2344 6.50391L22.0508 6.50391L22.0508 1.50391C22.0508 0.664062 22.793 0 23.6328 0C24.4922 0 25.2344 0.664062 25.2344 1.50391Z" fill="black" fill-opacity="0.85"/>
  <path d="M13.9648 26.0352L33.3008 26.0352C36.6797 26.0352 38.5547 24.1797 38.5547 20.8789L38.5547 11.6602C38.5547 8.35938 36.6797 6.50391 33.3008 6.50391L13.9648 6.50391C10.6055 6.50391 8.73047 8.35938 8.73047 11.6602L8.73047 20.8789C8.73047 24.1797 10.6055 26.0352 13.9648 26.0352ZM5.23438 50.7617L42.0508 50.7617C45.4102 50.7617 47.2852 48.9062 47.2852 45.6055L47.2852 36.3867C47.2852 33.0859 45.4102 31.2305 42.0508 31.2305L5.23438 31.2305C1.875 31.2305 0 33.0859 0 36.3867L0 45.6055C0 48.9062 1.875 50.7617 5.23438 50.7617Z" fill="black" fill-opacity="0.85"/>
 </g>
</svg>
