<?xml version="1.0" encoding="UTF-8"?>
<!--Generator: Apple Native CoreSVG 326-->
<!DOCTYPE svg
PUBLIC "-//W3C//DTD SVG 1.1//EN"
       "http://www.w3.org/Graphics/SVG/1.1/DTD/svg11.dtd">
<svg version="1.1" xmlns="http://www.w3.org/2000/svg" xmlns:xlink="http://www.w3.org/1999/xlink" viewBox="0 0 51.9336 46.2695">
 <g>
  <rect height="46.2695" opacity="0" width="51.9336" x="0" y="0"/>
  <path d="M2.01172 46.2695L14.2578 46.2695C16.3281 46.2695 18.0273 45.1172 18.8477 43.2617L35.8398 5.11719C36.2305 4.27734 36.9141 3.86719 37.9492 3.86719L49.5508 3.86719C50.6641 3.86719 51.5625 2.98828 51.5625 1.93359C51.5625 0.859375 50.6641 0 49.5508 0L37.0703 0C34.8438 0 33.3789 0.957031 32.5195 2.91016L15.4883 41.0938C15.0977 41.9336 14.3555 42.4023 13.4375 42.4023L2.01172 42.4023C0.878906 42.4023 0 43.2617 0 44.3359C0 45.4297 0.878906 46.2695 2.01172 46.2695ZM32.5 46.2695L49.5508 46.2695C50.6836 46.2695 51.543 45.4492 51.543 44.3555C51.543 43.2812 50.6836 42.4414 49.5508 42.4414L32.5 42.4414C31.3672 42.4414 30.5078 43.2812 30.5078 44.3555C30.5078 45.4492 31.3672 46.2695 32.5 46.2695Z" fill="black" fill-opacity="0.85"/>
 </g>
</svg>
