<?xml version="1.0" encoding="UTF-8"?>
<!--Generator: Apple Native CoreSVG 326-->
<!DOCTYPE svg
PUBLIC "-//W3C//DTD SVG 1.1//EN"
       "http://www.w3.org/Graphics/SVG/1.1/DTD/svg11.dtd">
<svg version="1.1" xmlns="http://www.w3.org/2000/svg" xmlns:xlink="http://www.w3.org/1999/xlink" viewBox="0 0 50.7706 50.4096">
 <g>
  <rect height="50.4096" opacity="0" width="50.7706" x="0" y="0"/>
  <path d="M5.35601 49.2185C10.0826 50.6247 15.356 50.7615 20.5904 49.6482L0.746635 29.8044C-0.366646 35.0583-0.249459 40.3318 1.19585 45.0388C1.9771 47.656 2.75835 48.4177 5.35601 49.2185ZM39.3599 39.3552C43.5591 35.156 46.5865 30.2146 48.3834 25.0974L25.2974 2.03098C20.1607 3.80833 15.2388 6.83567 11.0396 11.0349C6.84038 15.2341 3.83257 20.1755 2.01617 25.2732L25.1021 48.3591C30.2388 46.5818 35.1607 43.5544 39.3599 39.3552ZM21.5474 35.6052C21.1373 36.0154 20.4927 36.0154 20.0826 35.5857L14.7701 30.2927C14.3794 29.9021 14.3794 29.2575 14.7701 28.8474C15.1802 28.4372 15.8443 28.4372 16.2544 28.8279L18.1685 30.7615L20.2584 28.6716L18.3052 26.7575C17.9341 26.3669 17.9341 25.7224 18.3052 25.3122C18.7154 24.9021 19.3794 24.9021 19.7896 25.2927L21.7037 27.2263L23.7935 25.1365L21.8599 23.2224C21.4693 22.8318 21.4302 22.1872 21.8599 21.7575C22.2505 21.3669 22.9341 21.3669 23.3052 21.738L25.2388 23.6911L27.3287 21.6013L25.3951 19.6872C25.0044 19.2966 24.9849 18.6325 25.3951 18.2224C25.8052 17.8122 26.4498 17.8122 26.8404 18.2029L28.7935 20.156L30.8638 18.0661L28.9302 16.1325C28.5396 15.7419 28.5201 15.0974 28.9302 14.6872C29.3404 14.2966 29.9849 14.2966 30.3755 14.6677L35.688 19.9997C36.0982 20.3904 36.0982 21.0544 35.688 21.445C35.2974 21.8747 34.6334 21.8552 34.2232 21.4255L32.3287 19.531L30.2193 21.6013L32.1529 23.5349C32.5826 23.945 32.5826 24.5896 32.1529 24.9997C31.7427 25.4099 31.0982 25.3904 30.7076 24.9802L28.7935 23.0661L26.7037 25.1365L28.6177 27.07C29.0279 27.4607 29.0279 28.1247 28.6177 28.5349C28.2076 28.945 27.563 28.9255 27.1724 28.5154L25.2388 26.6208L23.1685 28.6716L25.0826 30.6052C25.4927 30.9958 25.4927 31.6599 25.0826 32.0896C24.6724 32.4607 24.0279 32.4607 23.6177 32.07L21.7037 30.156L19.6334 32.2263L21.5474 34.1404C21.9576 34.531 21.9576 35.195 21.5474 35.6052ZM49.2232 5.3513C48.4224 2.73411 47.6607 1.97239 45.0435 1.17161C40.3365-0.234641 35.063-0.37136 29.8091 0.741921L49.6529 20.5857C50.7857 15.3513 50.649 10.0583 49.2232 5.3513Z" fill="black" fill-opacity="0.85"/>
 </g>
</svg>
