<?xml version="1.0" encoding="UTF-8"?>
<!--Generator: Apple Native CoreSVG 326-->
<!DOCTYPE svg
PUBLIC "-//W3C//DTD SVG 1.1//EN"
       "http://www.w3.org/Graphics/SVG/1.1/DTD/svg11.dtd">
<svg version="1.1" xmlns="http://www.w3.org/2000/svg" xmlns:xlink="http://www.w3.org/1999/xlink" viewBox="0 0 50.9921 50.64">
 <g>
  <rect height="50.64" opacity="0" width="50.9921" x="0" y="0"/>
  <path d="M39.5488 39.5485C49.2558 29.8415 52.6738 16.1501 49.4316 5.44695C48.6113 2.7907 47.8301 2.00945 45.1738 1.18914C34.4902-2.05305 20.7793 1.36492 11.0527 11.072C1.36521 20.779-2.05276 34.4899 1.18943 45.1735C1.99021 47.8298 2.79099 48.6305 5.44724 49.4313C16.1504 52.6735 29.8222 49.2555 39.5488 39.5485ZM37.0293 37.029C28.3769 45.7204 16.9902 48.904 6.61911 46.0329C5.19333 45.6618 4.95896 45.4274 4.5488 43.9235C1.75583 33.611 4.91989 22.2243 13.5722 13.5915C22.2246 4.90008 33.5918 1.73601 43.9043 4.54851C45.4277 4.95867 45.6621 5.21258 46.0527 6.63836C48.9043 16.9899 45.7011 28.3962 37.0293 37.029ZM14.4902 30.6227L19.9785 36.111C20.4277 36.5407 21.0918 36.5407 21.541 36.111C21.9511 35.6618 21.9511 34.9782 21.541 34.5485L16.0722 29.0602C15.623 28.6501 14.9199 28.6501 14.4902 29.0602C14.0801 29.5095 14.0801 30.1735 14.4902 30.6227ZM18.1621 26.9313L23.6504 32.4391C24.0801 32.8688 24.7832 32.8688 25.1933 32.4391C25.6426 32.0095 25.6426 31.3063 25.1933 30.8962L19.7246 25.4079C19.2949 24.9782 18.5918 24.9782 18.1621 25.4079C17.7519 25.8376 17.7519 26.5212 18.1621 26.9313ZM21.834 23.279L27.3222 28.7868C27.7324 29.2165 28.4355 29.2165 28.8652 28.7868C29.2949 28.3571 29.2949 27.654 28.8652 27.2438L23.3574 21.7555C22.9668 21.3259 22.2441 21.3259 21.834 21.7555C21.4043 22.1852 21.4043 22.8493 21.834 23.279ZM25.4863 19.6462L30.9551 25.1345C31.3847 25.5251 32.0879 25.5251 32.5176 25.1345C32.9472 24.6852 32.9472 24.0212 32.5176 23.5915L27.0293 18.1032C26.5996 17.654 25.9355 17.654 25.4863 18.1032C25.0761 18.5134 25.0761 19.2165 25.4863 19.6462ZM29.1386 15.9938L34.6269 21.4626C35.0566 21.8727 35.7597 21.8727 36.1894 21.4626C36.5996 21.0329 36.5996 20.3493 36.1894 19.9196L30.7011 14.4118C30.2519 14.0016 29.5879 14.0016 29.1386 14.4118C28.7285 14.861 28.7285 15.5446 29.1386 15.9938ZM18.5527 33.611L33.5918 18.5524L32.0683 17.029L17.0097 32.068Z" fill="black" fill-opacity="0.85"/>
 </g>
</svg>
