<?xml version="1.0" encoding="UTF-8"?>
<!--Generator: Apple Native CoreSVG 326-->
<!DOCTYPE svg
PUBLIC "-//W3C//DTD SVG 1.1//EN"
       "http://www.w3.org/Graphics/SVG/1.1/DTD/svg11.dtd">
<svg version="1.1" xmlns="http://www.w3.org/2000/svg" xmlns:xlink="http://www.w3.org/1999/xlink" viewBox="0 0 55.5273 47.9883">
 <g>
  <rect height="47.9883" opacity="0" width="55.5273" x="0" y="0"/>
  <path d="M0 40.6836C0 45.5859 2.46094 47.9883 7.40234 47.9883L47.7539 47.9883C52.7148 47.9883 55.1562 45.5859 55.1562 40.6836L55.1562 15.9375C55.1562 11.0352 52.7148 8.63281 47.7539 8.63281L7.40234 8.63281C2.46094 8.63281 0 11.0352 0 15.9375ZM9.35547 22.9688C7.12891 22.9688 5.33203 21.1914 5.33203 18.9453C5.33203 16.7188 7.12891 14.9219 9.35547 14.9219C11.6016 14.9219 13.3789 16.7188 13.3789 18.9453C13.3789 21.1914 11.6016 22.9688 9.35547 22.9688ZM21.5039 22.9688C19.2773 22.9688 17.4805 21.1914 17.4805 18.9453C17.4805 16.7188 19.2773 14.9219 21.5039 14.9219C23.7305 14.9219 25.5078 16.7188 25.5078 18.9453C25.5078 21.1914 23.7305 22.9688 21.5039 22.9688ZM33.6523 22.9688C31.4258 22.9688 29.6289 21.1914 29.6289 18.9453C29.6289 16.7188 31.4258 14.9219 33.6523 14.9219C35.8789 14.9219 37.6758 16.7188 37.6758 18.9453C37.6758 21.1914 35.8789 22.9688 33.6523 22.9688ZM45.8008 22.9688C43.5547 22.9688 41.7773 21.1914 41.7773 18.9453C41.7773 16.7188 43.5547 14.9219 45.8008 14.9219C48.0273 14.9219 49.8242 16.7188 49.8242 18.9453C49.8242 21.1914 48.0273 22.9688 45.8008 22.9688ZM3.45703 40.5273L3.45703 27.9688L51.6992 27.9688L51.6992 40.5273C51.6992 43.2422 50.3516 44.5508 47.7148 44.5508L7.44141 44.5508C4.80469 44.5508 3.45703 43.2422 3.45703 40.5273ZM13.418 11.25L16.8359 11.25L16.8359 5.87891C16.8359 4.29688 17.9102 3.30078 19.5703 3.30078L35.5859 3.30078C37.2656 3.30078 38.3398 4.29688 38.3398 5.87891L38.3398 11.25L41.7578 11.25L41.7578 5.68359C41.7578 2.1875 39.4922 0.078125 35.7812 0.078125L19.3945 0.078125C15.6641 0.078125 13.418 2.1875 13.418 5.68359Z" fill="black" fill-opacity="0.85"/>
 </g>
</svg>
