<?xml version="1.0" encoding="UTF-8"?>
<!--Generator: Apple Native CoreSVG 326-->
<!DOCTYPE svg
PUBLIC "-//W3C//DTD SVG 1.1//EN"
       "http://www.w3.org/Graphics/SVG/1.1/DTD/svg11.dtd">
<svg version="1.1" xmlns="http://www.w3.org/2000/svg" xmlns:xlink="http://www.w3.org/1999/xlink" viewBox="0 0 46.1914 45.8398">
 <g>
  <rect height="45.8398" opacity="0" width="46.1914" x="0" y="0"/>
  <path d="M42.9688 2.89062C40.5273 0.46875 37.1484 0 32.6758 0L13.0078 0C8.69141 0 5.29297 0.46875 2.87109 2.89062C0.449219 5.3125 0 8.67188 0 13.0078L0 32.6758C0 37.168 0.429688 40.5273 2.85156 42.9297C5.29297 45.3516 8.67188 45.8203 13.1445 45.8203L32.6758 45.8203C37.1484 45.8203 40.5469 45.3516 42.9688 42.9297C45.3906 40.5078 45.8203 37.168 45.8203 32.6758L45.8203 13.125C45.8203 8.65234 45.3906 5.29297 42.9688 2.89062Z" fill="black" fill-opacity="0.85"/>
 </g>
</svg>
