<?xml version="1.0" encoding="UTF-8"?>
<!--Generator: Apple Native CoreSVG 326-->
<!DOCTYPE svg
PUBLIC "-//W3C//DTD SVG 1.1//EN"
       "http://www.w3.org/Graphics/SVG/1.1/DTD/svg11.dtd">
<svg version="1.1" xmlns="http://www.w3.org/2000/svg" xmlns:xlink="http://www.w3.org/1999/xlink" viewBox="0 0 46.1914 45.8398">
 <g>
  <rect height="45.8398" opacity="0" width="46.1914" x="0" y="0"/>
  <path d="M1.21094 22.3633L1.21094 24.8242L19.4922 24.8242C17.7148 28.4961 12.5 33.1445 9.08203 33.5742C7.89062 33.6914 7.28516 34.375 7.28516 35.4492C7.28516 36.4062 8.02734 37.3047 9.27734 37.1094C13.0469 36.4844 19.2969 32.1094 21.4062 26.4453L21.582 26.4453L21.582 44.7266L24.2383 44.7266L24.2383 26.4453L24.3945 26.4453C26.5234 32.1094 32.7734 36.4844 36.5234 37.1094C37.7734 37.3047 38.5352 36.4062 38.5352 35.4492C38.5352 34.375 37.9102 33.6914 36.7188 33.5742C33.3008 33.1445 28.1055 28.4961 26.3086 24.8242L44.6094 24.8242L44.6094 22.3633L32.3438 22.3633C35.7031 20.9375 38.2227 18.2227 38.2227 14.9609C38.2227 11.3477 35.6641 8.78906 32.1875 8.78906C28.9258 8.78906 25.8789 11.0742 24.2383 14.5508L24.2383 2.10938L21.582 2.10938L21.582 14.5508C19.9219 11.0742 16.8945 8.78906 13.6328 8.78906C10.1367 8.78906 7.57812 11.3477 7.57812 14.9609C7.57812 18.2227 10.0977 20.9375 13.457 22.3633ZM20.4102 21.9727C15.2148 21.9727 10.6445 18.4375 10.6445 15.0781C10.6445 13.0469 11.8945 11.7773 13.7891 11.7773C17.6367 11.7773 21.1523 16.2305 21.1523 21.2891L21.1523 21.9727ZM25.3906 21.9727L24.6484 21.9727L24.6484 21.2891C24.6484 16.2305 28.1641 11.7773 32.0312 11.7773C33.9258 11.7773 35.1562 13.0469 35.1562 15.0781C35.1562 18.4375 30.5859 21.9727 25.3906 21.9727ZM42.9688 2.89062C40.5273 0.46875 37.1484 0 32.6758 0L13.0078 0C8.69141 0 5.29297 0.46875 2.87109 2.89062C0.449219 5.3125 0 8.67188 0 13.0078L0 32.6758C0 37.168 0.429688 40.5273 2.85156 42.9297C5.29297 45.3516 8.67188 45.8203 13.1445 45.8203L32.6758 45.8203C37.1484 45.8203 40.5469 45.3516 42.9688 42.9297C45.3906 40.5078 45.8203 37.168 45.8203 32.6758L45.8203 13.125C45.8203 8.65234 45.3906 5.29297 42.9688 2.89062ZM42.3633 12.4414L42.3633 33.3594C42.3633 36.2109 41.9531 38.8477 40.4297 40.3906C38.8867 41.9336 36.1914 42.3633 33.3594 42.3633L12.4609 42.3633C9.62891 42.3633 6.93359 41.9141 5.39062 40.3906C3.86719 38.8477 3.45703 36.2109 3.45703 33.3594L3.45703 12.5781C3.45703 9.62891 3.86719 6.95312 5.39062 5.41016C6.91406 3.86719 9.64844 3.45703 12.5781 3.45703L33.3594 3.45703C36.1914 3.45703 38.8867 3.88672 40.4297 5.42969C41.9727 6.95312 42.3633 9.60938 42.3633 12.4414Z" fill="black" fill-opacity="0.85"/>
 </g>
</svg>
