<?xml version="1.0" encoding="UTF-8"?>
<!--Generator: Apple Native CoreSVG 326-->
<!DOCTYPE svg
PUBLIC "-//W3C//DTD SVG 1.1//EN"
       "http://www.w3.org/Graphics/SVG/1.1/DTD/svg11.dtd">
<svg version="1.1" xmlns="http://www.w3.org/2000/svg" xmlns:xlink="http://www.w3.org/1999/xlink" viewBox="0 0 26.3477 51.7383">
 <g>
  <rect height="51.7383" opacity="0" width="26.3477" x="0" y="0"/>
  <path d="M4.47266 39.5703L21.5234 39.5703C23.1836 39.5703 24.7266 40.1172 25.9766 41.0547L25.9766 6.44531C25.9766 2.44141 23.4766 0 19.3164 0L6.66016 0C2.5 0 0 2.44141 0 6.44531L0.0195312 41.0547C1.26953 40.1172 2.8125 39.5703 4.47266 39.5703ZM13.0078 11.1523C11.4062 11.1523 10.0977 9.84375 10.0977 8.24219C10.0977 6.64062 11.4062 5.35156 13.0078 5.35156C14.6094 5.35156 15.918 6.64062 15.918 8.24219C15.918 9.84375 14.6094 11.1523 13.0078 11.1523ZM4.47266 51.6211L21.5234 51.6211C23.9844 51.6211 25.9766 49.6094 25.9766 47.1484C25.9766 44.6875 23.9844 42.6758 21.5234 42.6758L4.47266 42.6758C2.01172 42.6758 0.0195312 44.6875 0.0195312 47.1484C0.0195312 49.6094 2.01172 51.6211 4.47266 51.6211Z" fill="black" fill-opacity="0.85"/>
 </g>
</svg>
