<?xml version="1.0" encoding="UTF-8"?>
<!--Generator: Apple Native CoreSVG 326-->
<!DOCTYPE svg
PUBLIC "-//W3C//DTD SVG 1.1//EN"
       "http://www.w3.org/Graphics/SVG/1.1/DTD/svg11.dtd">
<svg version="1.1" xmlns="http://www.w3.org/2000/svg" xmlns:xlink="http://www.w3.org/1999/xlink" viewBox="0 0 59.5508 45.918">
 <g>
  <rect height="45.918" opacity="0" width="59.5508" x="0" y="0"/>
  <path d="M7.59766 45.918L51.5625 45.918C56.6211 45.918 59.1797 43.3594 59.1797 38.3984L59.1797 7.53906C59.1797 2.55859 56.6211 0 51.5625 0L7.59766 0C2.55859 0 0 2.53906 0 7.53906L0 38.3984C0 43.3984 2.55859 45.918 7.59766 45.918ZM7.67578 42.4609C4.94141 42.4609 3.45703 41.0156 3.45703 38.2031L3.45703 7.71484C3.45703 4.92188 4.94141 3.45703 7.67578 3.45703L51.5039 3.45703C54.1797 3.45703 55.7031 4.92188 55.7031 7.71484L55.7031 38.2031C55.7031 41.0156 54.1797 42.4609 51.5039 42.4609Z" fill="black" fill-opacity="0.85"/>
  <path d="M10.6055 19.1797C8.86719 20.2148 10.332 22.832 12.2266 21.6406L19.5508 17.0508C20.8203 16.2695 20.7617 14.3945 19.5508 13.6328L12.2266 9.04297C10.332 7.85156 8.84766 10.4492 10.6055 11.5234L16.9336 15.3516ZM21.0352 21.8164C21.0352 22.5977 21.6406 23.2227 22.4414 23.2227L32.0312 23.2227C32.832 23.2227 33.4375 22.5977 33.4375 21.8164C33.4375 21.0156 32.832 20.3906 32.0312 20.3906L22.4414 20.3906C21.6406 20.3906 21.0352 21.0156 21.0352 21.8164Z" fill="black" fill-opacity="0.85"/>
 </g>
</svg>
