<?xml version="1.0" encoding="UTF-8"?>
<!--Generator: Apple Native CoreSVG 326-->
<!DOCTYPE svg
PUBLIC "-//W3C//DTD SVG 1.1//EN"
       "http://www.w3.org/Graphics/SVG/1.1/DTD/svg11.dtd">
<svg version="1.1" xmlns="http://www.w3.org/2000/svg" xmlns:xlink="http://www.w3.org/1999/xlink" viewBox="0 0 51.25 50.918">
 <g>
  <rect height="50.918" opacity="0" width="51.25" x="0" y="0"/>
  <path d="M25.4297 50.8789C39.4727 50.8789 50.8789 39.4922 50.8789 25.4492C50.8789 11.4062 39.4727 0 25.4297 0C11.3867 0 0 11.4062 0 25.4492C0 39.4922 11.3867 50.8789 25.4297 50.8789ZM25.4297 47.2461C13.3789 47.2461 3.63281 37.5 3.63281 25.4492C3.63281 13.3984 13.3789 3.65234 25.4297 3.65234C37.4805 3.65234 47.2266 13.3984 47.2266 25.4492C47.2266 37.5 37.4805 47.2461 25.4297 47.2461Z" fill="black" fill-opacity="0.85"/>
  <path d="M24.8438 34.2773C25.5273 34.2773 26.0742 33.6914 26.0742 33.0469L26.0742 27.2656C33.9648 26.7969 39.082 21.3867 38.9648 13.4766C38.9648 12.7539 38.4766 12.2266 37.6367 12.2266C31.543 12.0898 26.8164 15.5469 24.7266 21.3477C22.7344 17.0898 18.4375 15.2734 14.6094 15.2734C13.9648 15.2734 13.5742 15.6836 13.5938 16.3672C13.75 20.0195 15.918 26.6406 23.6133 27.2656L23.6133 33.0469C23.6133 33.7109 24.2188 34.2773 24.8438 34.2773ZM23.457 24.8242C18.9453 24.3555 16.7773 21.0352 16.1719 17.8906C19.1211 18.3008 22.6367 20.2344 23.457 24.8242ZM26.3086 24.8438C27.3828 18.7695 31.2109 14.9609 36.5039 14.6875C36.1914 20.3906 32.2656 24.2969 26.3086 24.8438ZM13.6328 38.3984C14.2969 38.3984 14.9023 37.793 14.9023 37.1289C14.9023 36.5039 14.2969 35.8984 13.6328 35.8984C12.9492 35.8984 12.3828 36.5039 12.3828 37.1289C12.3828 37.793 12.9492 38.3984 13.6328 38.3984ZM16.9922 36.1328C17.6758 36.1328 18.2812 35.5664 18.2812 34.9023C18.2812 34.2383 17.6758 33.6133 16.9922 33.6133C16.3281 33.6133 15.7617 34.2383 15.7617 34.9023C15.7617 35.5469 16.3477 36.1328 16.9922 36.1328ZM20.8594 34.8242C21.543 34.8242 22.1094 34.1992 22.1094 33.5742C22.1094 32.8906 21.5234 32.3242 20.8594 32.3242C20.1953 32.3242 19.5898 32.8906 19.5898 33.5742C19.5898 34.1992 20.1953 34.8242 20.8594 34.8242ZM28.8477 34.8242C29.5117 34.8242 30.0977 34.1992 30.0977 33.5742C30.0977 32.8906 29.5117 32.3242 28.8477 32.3242C28.1641 32.3242 27.5781 32.8906 27.5781 33.5742C27.5781 34.1992 28.1641 34.8242 28.8477 34.8242ZM32.6758 36.1328C33.3398 36.1328 33.9258 35.5469 33.9258 34.9023C33.9258 34.2383 33.3398 33.6133 32.6758 33.6133C32.0312 33.6133 31.4258 34.2383 31.4258 34.9023C31.4258 35.5664 32.0312 36.1328 32.6758 36.1328ZM36.0742 38.3984C36.7383 38.3984 37.3242 37.793 37.3242 37.1289C37.3242 36.5039 36.7383 35.8984 36.0742 35.8984C35.4102 35.8984 34.8242 36.5039 34.8242 37.1289C34.8242 37.793 35.4102 38.3984 36.0742 38.3984Z" fill="black" fill-opacity="0.85"/>
 </g>
</svg>
