<?xml version="1.0" encoding="UTF-8"?>
<!--Generator: Apple Native CoreSVG 326-->
<!DOCTYPE svg
PUBLIC "-//W3C//DTD SVG 1.1//EN"
       "http://www.w3.org/Graphics/SVG/1.1/DTD/svg11.dtd">
<svg version="1.1" xmlns="http://www.w3.org/2000/svg" xmlns:xlink="http://www.w3.org/1999/xlink" viewBox="0 0 62.3163 46.3916">
 <g>
  <rect height="46.3916" opacity="0" width="62.3163" x="0" y="0"/>
  <path d="M0.367158 32.1118C-1.13675 35.8228 2.28122 37.522 5.15231 35.4517C8.10153 33.2446 11.0703 31.0376 14.0195 28.7134L13.2383 28.2056C10.4843 32.0532 9.35153 35.2368 9.35153 37.7173C9.35153 43.2642 14.957 45.5689 20.5625 42.9126C21.9492 42.229 21.4609 39.0064 18.9804 40.1001C15.1914 41.6626 12.4179 40.8814 12.4179 37.5611C12.4179 34.69 14.4687 29.9048 19.2734 23.5376C20.5625 21.8384 18.4726 19.6509 16.6953 21.4868C12.5742 25.5103 7.24216 29.5142 2.5156 33.4204L3.16013 33.9868L14.5078 6.2134C15.1718 4.55324 12.2422 3.10793 11.3242 5.31496Z" fill="black" fill-opacity="0.85"/>
  <path d="M23.4726 37.3267C23.1211 37.9517 23.8242 38.5376 24.3711 38.2642L28.0234 36.272L25.5039 33.7525ZM26.5781 31.8384L29.9765 35.2368L31.3633 34.4751L61.1093 4.84621C62.2226 3.73293 62.2226 1.91652 61.1093 0.82277C59.9961-0.27098 58.1992-0.27098 57.1054 0.803239L27.3593 30.4712Z" fill="black" fill-opacity="0.85"/>
 </g>
</svg>
