<?xml version="1.0" encoding="UTF-8"?>
<!--Generator: Apple Native CoreSVG 326-->
<!DOCTYPE svg
PUBLIC "-//W3C//DTD SVG 1.1//EN"
       "http://www.w3.org/Graphics/SVG/1.1/DTD/svg11.dtd">
<svg version="1.1" xmlns="http://www.w3.org/2000/svg" xmlns:xlink="http://www.w3.org/1999/xlink" viewBox="0 0 24.4141 55.6055">
 <g>
  <rect height="55.6055" opacity="0" width="24.4141" x="0" y="0"/>
  <path d="M0 50.1758C0 53.457 2.10938 55.4883 5.56641 55.4883L18.4766 55.4883C21.9336 55.4883 24.043 53.457 24.043 50.1758L24.043 5.33203C24.043 2.03125 21.9336 0 18.4766 0L5.56641 0C2.10938 0 0 2.03125 0 5.33203ZM7.46094 31.6602C5.72266 31.6602 4.29688 30.2539 4.29688 28.5352C4.29688 26.7773 5.72266 25.3906 7.46094 25.3906C9.21875 25.3906 10.6055 26.7773 10.6055 28.5352C10.6055 30.2539 9.21875 31.6602 7.46094 31.6602ZM16.6211 31.6602C14.8438 31.6602 13.457 30.2539 13.457 28.5352C13.457 26.7773 14.8438 25.3906 16.6211 25.3906C18.3398 25.3906 19.7656 26.7773 19.7656 28.5352C19.7656 30.2539 18.3398 31.6602 16.6211 31.6602ZM12.0312 22.0703C7.57812 22.0703 3.90625 18.418 3.90625 13.9453C3.90625 9.45312 7.57812 5.80078 12.0312 5.80078C16.5039 5.80078 20.1562 9.45312 20.1562 13.9453C20.1562 18.418 16.5039 22.0703 12.0312 22.0703ZM12.0508 17.207C13.8672 17.207 15.332 15.7617 15.332 13.9453C15.332 12.1289 13.8672 10.6445 12.0508 10.6445C10.2344 10.6445 8.75 12.1289 8.75 13.9453C8.75 15.7617 10.2344 17.207 12.0508 17.207Z" fill="black" fill-opacity="0.85"/>
 </g>
</svg>
