<?xml version="1.0" encoding="UTF-8"?>
<!--Generator: Apple Native CoreSVG 326-->
<!DOCTYPE svg
PUBLIC "-//W3C//DTD SVG 1.1//EN"
       "http://www.w3.org/Graphics/SVG/1.1/DTD/svg11.dtd">
<svg version="1.1" xmlns="http://www.w3.org/2000/svg" xmlns:xlink="http://www.w3.org/1999/xlink" viewBox="0 0 58.5938 53.6133">
 <g>
  <rect height="53.6133" opacity="0" width="58.5938" x="0" y="0"/>
  <path d="M49.7852 14.375L49.7852 39.3555C49.7852 44.2383 46.9531 47.1289 42.168 47.1289L40.6724 47.1289C41.5936 45.2772 42.0898 43.0843 42.0898 40.625L42.0898 30.293C43.8281 29.375 44.9219 27.5195 44.9219 25.2734L44.9219 21.1719C44.9219 18.8477 43.7891 16.9727 41.9922 16.0742C42.0076 12.0917 38.8754 8.1333 33.7782 6.64063L42.168 6.64062C46.9531 6.64062 49.7852 9.51172 49.7852 14.375Z" fill="black" fill-opacity="0.2125"/>
  <path d="M53.1438 14.4141L53.8086 14.4141C55.332 14.4141 56.3086 15.4688 56.3086 17.1484L56.3086 21.4844C56.3086 23.1445 55.332 24.2188 53.8086 24.2188L53.1445 24.2188L53.1445 39.2188C53.1445 46.25 48.9648 50.4883 42.0312 50.4883L38.1214 50.4883C39.1718 49.5615 40.0269 48.4294 40.6724 47.1289L42.168 47.1289C46.9531 47.1289 49.7852 44.2383 49.7852 39.3555L49.7852 14.375C49.7852 9.51172 46.9531 6.64062 42.168 6.64062L33.7782 6.64063C32.4123 6.22321 30.8947 5.99609 29.2578 5.99609L15.2816 5.99609C17.1737 4.16962 19.8823 3.18359 23.2422 3.18359L42.0312 3.18359C48.9583 3.18359 53.1366 7.37486 53.1438 14.4141Z" fill="black" fill-opacity="0.85"/>
  <path d="M6.44531 40.7422L6.44531 18.9258C6.44531 14.8633 8.75 12.5195 12.7148 12.5195L29.375 12.5195C33.3398 12.5195 35.6445 14.8633 35.6445 18.9258L35.6445 40.7422C35.6445 44.8047 33.3398 47.1484 29.375 47.1484L12.7148 47.1484C8.75 47.1484 6.44531 44.8047 6.44531 40.7422Z" fill="black" fill-opacity="0.2125"/>
  <path d="M12.832 50.4883L29.2578 50.4883C35.293 50.4883 38.9844 46.7578 38.9844 40.625L38.9844 27.8516L39.4141 27.8516C40.8789 27.8516 41.7969 26.8359 41.7969 25.2734L41.7969 21.1719C41.7969 19.5508 40.8789 18.5547 39.4141 18.5547L38.9844 18.5547C38.8086 12.6562 35.1562 9.12109 29.2578 9.12109L12.832 9.12109C6.77734 9.12109 3.10547 12.8125 3.10547 18.9453L3.10547 40.625C3.10547 46.7578 6.77734 50.4883 12.832 50.4883ZM6.44531 40.7422L6.44531 18.9258C6.44531 14.8633 8.75 12.5195 12.7148 12.5195L29.375 12.5195C33.3398 12.5195 35.6445 14.8633 35.6445 18.9258L35.6445 40.7422C35.6445 44.8047 33.3398 47.1484 29.375 47.1484L12.7148 47.1484C8.75 47.1484 6.44531 44.8047 6.44531 40.7422Z" fill="black" fill-opacity="0.85"/>
 </g>
</svg>
