<?xml version="1.0" encoding="UTF-8"?>
<!--Generator: Apple Native CoreSVG 326-->
<!DOCTYPE svg
PUBLIC "-//W3C//DTD SVG 1.1//EN"
       "http://www.w3.org/Graphics/SVG/1.1/DTD/svg11.dtd">
<svg version="1.1" xmlns="http://www.w3.org/2000/svg" xmlns:xlink="http://www.w3.org/1999/xlink" viewBox="0 0 48.9844 49.082">
 <g>
  <rect height="49.082" opacity="0" width="48.9844" x="0" y="0"/>
  <path d="M22.5586 40.8594C23.457 40.8594 24.1992 40.1172 24.1992 39.2383L24.1992 27.4219C39.1992 26.7383 48.8086 16.8164 48.6133 1.91406C48.6133 0.859375 48.0078 0.175781 46.8555 0.175781C34.9609-0.0195312 25.9961 6.97266 22.4609 18.5938C19.1211 9.84375 10.8398 5.99609 3.16406 6.03516C2.32422 6.03516 1.93359 6.46484 1.99219 7.34375C2.61719 14.2188 6.26953 26.5625 20.9375 27.4219L20.9375 39.2383C20.9375 40.1172 21.6797 40.8594 22.5586 40.8594ZM20.8203 24.1211C11.25 23.457 6.40625 16.4844 5.39062 9.49219C11.875 10.1562 19.2383 14.4727 20.8203 24.1211ZM24.5703 24.1211C26.582 11.8164 34.5117 3.84766 45.2344 3.53516C45 15.1367 36.7383 23.3008 24.5703 24.1211Z" fill="black" fill-opacity="0.85"/>
  <path d="M1.97266 49.082C3.06641 49.082 3.96484 48.1836 3.96484 47.0898C3.96484 46.0156 3.06641 45.1172 1.97266 45.1172C0.898438 45.1172 0 46.0156 0 47.0898C0 48.1836 0.898438 49.082 1.97266 49.082ZM8.20312 44.6484C9.27734 44.6484 10.1758 43.75 10.1758 42.6758C10.1758 41.582 9.27734 40.6836 8.20312 40.6836C7.12891 40.6836 6.23047 41.582 6.23047 42.6758C6.23047 43.75 7.12891 44.6484 8.20312 44.6484ZM15.3125 42.0898C16.3867 42.0898 17.2852 41.1914 17.2852 40.1172C17.2852 39.0234 16.3867 38.125 15.3125 38.125C14.2188 38.125 13.3203 39.0234 13.3203 40.1172C13.3203 41.1914 14.2188 42.0898 15.3125 42.0898ZM29.8242 42.0898C30.918 42.0898 31.8164 41.1914 31.8164 40.1172C31.8164 39.0234 30.918 38.125 29.8242 38.125C28.75 38.125 27.8516 39.0234 27.8516 40.1172C27.8516 41.1914 28.75 42.0898 29.8242 42.0898ZM36.9336 44.6484C38.0078 44.6484 38.9062 43.75 38.9062 42.6758C38.9062 41.582 38.0078 40.6836 36.9336 40.6836C35.8398 40.6836 34.9609 41.582 34.9609 42.6758C34.9609 43.75 35.8398 44.6484 36.9336 44.6484ZM43.1641 49.082C44.2383 49.082 45.1367 48.1836 45.1367 47.0898C45.1367 46.0156 44.2383 45.1172 43.1641 45.1172C42.0703 45.1172 41.1719 46.0156 41.1719 47.0898C41.1719 48.1836 42.0703 49.082 43.1641 49.082Z" fill="black" fill-opacity="0.85"/>
 </g>
</svg>
