<?xml version="1.0" encoding="UTF-8"?>
<!--Generator: Apple Native CoreSVG 326-->
<!DOCTYPE svg
PUBLIC "-//W3C//DTD SVG 1.1//EN"
       "http://www.w3.org/Graphics/SVG/1.1/DTD/svg11.dtd">
<svg version="1.1" xmlns="http://www.w3.org/2000/svg" xmlns:xlink="http://www.w3.org/1999/xlink" viewBox="0 0 40.293 61.2695">
 <g>
  <rect height="61.2695" opacity="0" width="40.293" x="0" y="0"/>
  <path d="M37.1484 42.2656C41.1133 38.3203 40.8203 33.6914 36.3086 29.1797L27.207 20.0586L14.5117 32.793C12.7344 34.5508 10.0977 33.125 10.7812 30.7227C11.0547 29.8633 11.1133 28.8672 11.1133 27.9297C11.1133 24.1406 8.63281 22.0312 5.72266 22.0117C2.05078 22.0117 0 24.375 0 27.168C0 29.3359 1.28906 31.2891 2.73438 32.7344L18.4766 48.457C20.7812 50.7617 22.1094 52.5781 22.1094 55.4492C22.1094 56.25 21.9922 56.9531 21.6211 57.7539C22.4023 57.0703 23.0859 56.4062 23.75 55.7422ZM13.3984 61.2305C16.5234 61.2305 18.9844 58.8281 18.9844 55.7812C18.9648 53.8281 18.125 52.4805 15.957 50.2734L12.9883 47.3047C9.70703 49.6289 7.48047 51.9141 7.48047 55.5859C7.48047 58.8477 10.0195 61.2305 13.3984 61.2305ZM5.72266 18.9062C10.4492 18.9062 13.75 22.2266 13.75 26.4844C13.75 26.6406 13.75 27.0312 13.6914 27.2852C13.6328 28.1836 14.5703 28.3398 14.9609 27.9492L29.9219 12.9883C31.4062 11.4844 32.2266 9.64844 32.2266 7.69531C32.2656 3.125 28.75 0 24.8438 0C21.9727 0 19.8633 1.28906 17.5391 3.61328L0.820312 20.332C2.30469 19.4336 3.96484 18.9062 5.72266 18.9062Z" fill="black" fill-opacity="0.85"/>
 </g>
</svg>
