<?xml version="1.0" encoding="UTF-8"?>
<!--Generator: Apple Native CoreSVG 326-->
<!DOCTYPE svg
PUBLIC "-//W3C//DTD SVG 1.1//EN"
       "http://www.w3.org/Graphics/SVG/1.1/DTD/svg11.dtd">
<svg version="1.1" xmlns="http://www.w3.org/2000/svg" xmlns:xlink="http://www.w3.org/1999/xlink" viewBox="0 0 51.8359 59.3164">
 <g>
  <rect height="59.3164" opacity="0" width="51.8359" x="0" y="0"/>
  <path d="M25.7812 3.82812C26.875 3.82812 27.6758 3.02734 27.6758 1.91406C27.6758 0.859375 26.8359 0 25.7812 0C24.7461 0 23.8672 0.878906 23.8672 1.91406C23.8672 2.98828 24.707 3.82812 25.7812 3.82812ZM13.8477 10.7031C14.9414 10.7031 15.7422 9.90234 15.7422 8.78906C15.7422 7.73438 14.9023 6.89453 13.8477 6.89453C12.8125 6.89453 11.9336 7.75391 11.9336 8.78906C11.9336 9.88281 12.7734 10.7031 13.8477 10.7031ZM37.7148 10.7031C38.8086 10.7031 39.6094 9.90234 39.6094 8.78906C39.6094 7.73438 38.7891 6.89453 37.7148 6.89453C36.6797 6.89453 35.8008 7.75391 35.8008 8.78906C35.8008 9.88281 36.6406 10.7031 37.7148 10.7031ZM1.91406 17.6758C3.00781 17.6758 3.80859 16.875 3.80859 15.7812C3.80859 14.707 2.96875 13.8672 1.91406 13.8672C0.859375 13.8672 0 14.7266 0 15.7812C0 16.8555 0.839844 17.6758 1.91406 17.6758ZM49.5508 17.6758C50.6445 17.6758 51.4648 16.875 51.4648 15.7812C51.4648 14.707 50.625 13.8672 49.5508 13.8672C48.5156 13.8672 47.6562 14.7461 47.6562 15.7812C47.6562 16.8555 48.4766 17.6758 49.5508 17.6758ZM1.91406 31.543C3.00781 31.543 3.80859 30.7422 3.80859 29.6484C3.80859 28.5742 2.96875 27.7344 1.91406 27.7344C0.859375 27.7344 0 28.5938 0 29.6484C0 30.7031 0.839844 31.543 1.91406 31.543ZM49.5508 31.543C50.6445 31.543 51.4648 30.7422 51.4648 29.6484C51.4648 28.5547 50.625 27.7344 49.5508 27.7344C48.5156 27.7344 47.6562 28.6133 47.6562 29.6484C47.6562 30.7031 48.4766 31.543 49.5508 31.543ZM1.91406 45.4102C3.00781 45.4102 3.80859 44.6094 3.80859 43.4961C3.80859 42.4414 2.96875 41.6016 1.91406 41.6016C0.859375 41.6016 0 42.4609 0 43.4961C0 44.5898 0.820312 45.4102 1.91406 45.4102ZM49.5508 45.4102C50.6641 45.4102 51.4648 44.6094 51.4648 43.4961C51.4648 42.4414 50.625 41.6016 49.5508 41.6016C48.5156 41.6016 47.6562 42.4609 47.6562 43.4961C47.6562 44.5703 48.4766 45.4102 49.5508 45.4102ZM13.8477 52.4023C14.9414 52.4023 15.7422 51.582 15.7422 50.4883C15.7422 49.4141 14.9023 48.5742 13.8477 48.5742C12.8125 48.5742 11.9336 49.4336 11.9336 50.4883C11.9336 51.5625 12.7734 52.4023 13.8477 52.4023ZM37.7148 52.4023C38.8086 52.4023 39.6094 51.582 39.6094 50.4883C39.6094 49.4141 38.7891 48.5742 37.7148 48.5742C36.6797 48.5742 35.8008 49.4336 35.8008 50.4883C35.8008 51.5625 36.6406 52.4023 37.7148 52.4023ZM25.7812 59.2773C26.875 59.2773 27.6758 58.457 27.6758 57.3633C27.6758 56.2891 26.8359 55.4688 25.7812 55.4688C24.7461 55.4688 23.8672 56.3281 23.8672 57.3633C23.8672 58.4375 24.707 59.2773 25.7812 59.2773Z" fill="black" fill-opacity="0.85"/>
  <path d="M25.7812 17.6758C26.875 17.6758 27.6758 16.875 27.6758 15.7812C27.6758 14.707 26.8359 13.8672 25.7812 13.8672C24.7266 13.8672 23.8672 14.7266 23.8672 15.7812C23.8672 16.8555 24.707 17.6758 25.7812 17.6758ZM13.8477 24.6094C14.9414 24.6094 15.7422 23.7891 15.7422 22.6953C15.7422 21.6211 14.9023 20.7812 13.8477 20.7812C12.8125 20.7812 11.9336 21.6602 11.9336 22.6953C11.9336 23.7695 12.7734 24.6094 13.8477 24.6094ZM37.7148 24.6094C38.8086 24.6094 39.6094 23.7891 39.6094 22.6953C39.6094 21.6211 38.7891 20.7812 37.7148 20.7812C36.6797 20.7812 35.8008 21.6602 35.8008 22.6953C35.8008 23.7695 36.6406 24.6094 37.7148 24.6094ZM13.8477 38.4961C14.9414 38.4961 15.7422 37.6953 15.7422 36.6016C15.7422 35.5273 14.9023 34.6875 13.8477 34.6875C12.8125 34.6875 11.9336 35.5469 11.9336 36.6016C11.9336 37.6562 12.7734 38.4961 13.8477 38.4961ZM37.7148 38.4961C38.8086 38.4961 39.6094 37.6953 39.6094 36.6016C39.6094 35.5273 38.7891 34.6875 37.7148 34.6875C36.6797 34.6875 35.8008 35.5469 35.8008 36.6016C35.8008 37.6562 36.6406 38.4961 37.7148 38.4961ZM25.7812 45.4102C26.875 45.4102 27.6758 44.6094 27.6758 43.4961C27.6758 42.4414 26.8359 41.6016 25.7812 41.6016C24.7461 41.6016 23.8672 42.4609 23.8672 43.4961C23.8672 44.5898 24.6875 45.4102 25.7812 45.4102Z" fill="black" fill-opacity="0.85"/>
  <path d="M25.7812 31.543C26.875 31.543 27.6758 30.7422 27.6758 29.6484C27.6758 28.5742 26.8359 27.7344 25.7812 27.7344C24.7266 27.7344 23.8672 28.5938 23.8672 29.6484C23.8672 30.7031 24.707 31.543 25.7812 31.543Z" fill="black" fill-opacity="0.85"/>
 </g>
</svg>
