<?xml version="1.0" encoding="UTF-8"?>
<!--Generator: Apple Native CoreSVG 326-->
<!DOCTYPE svg
PUBLIC "-//W3C//DTD SVG 1.1//EN"
       "http://www.w3.org/Graphics/SVG/1.1/DTD/svg11.dtd">
<svg version="1.1" xmlns="http://www.w3.org/2000/svg" xmlns:xlink="http://www.w3.org/1999/xlink" viewBox="0 0 79.6289 65.293">
 <g>
  <rect height="65.293" opacity="0" width="79.6289" x="0" y="0"/>
  <path d="M42.7539 60.3516C42.7539 62.1289 41.3867 63.4961 39.6094 63.4961C37.8711 63.4961 36.4844 62.1094 36.4844 60.3516C36.4844 58.6328 37.8906 57.2266 39.6094 57.2266C41.3477 57.2266 42.7539 58.6328 42.7539 60.3516ZM30.8203 53.4766C30.8203 55.2539 29.4531 56.6016 27.6758 56.6016C25.9375 56.6016 24.5508 55.2148 24.5508 53.4766C24.5508 51.7578 25.9766 50.332 27.6758 50.332C29.4141 50.332 30.8203 51.7383 30.8203 53.4766ZM48.6111 52.399C48.7257 52.0736 48.8954 51.7748 49.1083 51.5121ZM18.8672 46.4844C18.8672 48.2617 17.5195 49.6289 15.7422 49.6289C14.0039 49.6289 12.6172 48.2422 12.6172 46.4844C12.6172 44.7852 14.043 43.3594 15.7422 43.3594C17.4805 43.3594 18.8672 44.7461 18.8672 46.4844ZM18.8672 32.6367C18.8672 34.3945 17.5195 35.7617 15.7422 35.7617C14.0039 35.7617 12.6172 34.375 12.6172 32.6367C12.6172 30.918 14.0234 29.4922 15.7422 29.4922C17.4805 29.4922 18.8672 30.8984 18.8672 32.6367ZM66.6211 32.6367C66.6211 33.4098 66.3468 34.1134 65.8882 34.6553C64.9271 34.0901 63.8333 33.7891 62.7344 33.7891C62.0517 33.7891 61.3728 33.9012 60.7273 34.1179C60.4984 33.6804 60.3711 33.177 60.3711 32.6367C60.3711 30.8984 61.7578 29.4922 63.4961 29.4922C65.2148 29.4922 66.6211 30.918 66.6211 32.6367ZM18.8672 18.7695C18.8672 20.5469 17.5195 21.8945 15.7422 21.8945C14.0039 21.8945 12.6172 20.5078 12.6172 18.7695C12.6172 17.0508 14.0234 15.6445 15.7422 15.6445C17.4805 15.6445 18.8672 17.0312 18.8672 18.7695ZM66.5234 18.7695C66.5234 20.5469 65.1562 21.8945 63.3984 21.8945C61.6602 21.8945 60.2734 20.5078 60.2734 18.7695C60.2734 17.0703 61.6797 15.6445 63.3984 15.6445C65.1367 15.6445 66.5234 17.0117 66.5234 18.7695ZM30.8203 11.7773C30.8203 13.5742 29.4531 14.9219 27.6758 14.9219C25.9375 14.9219 24.5508 13.5352 24.5508 11.7773C24.5508 10.0781 25.9766 8.65234 27.6758 8.65234C29.4141 8.65234 30.8203 10.0391 30.8203 11.7773ZM54.6875 11.7773C54.6875 13.5742 53.3203 14.9219 51.5625 14.9219C49.8242 14.9219 48.418 13.5352 48.418 11.7773C48.418 10.0781 49.8438 8.65234 51.5625 8.65234C53.3008 8.65234 54.6875 10.0391 54.6875 11.7773ZM42.7539 4.90234C42.7539 6.67969 41.3867 8.02734 39.6094 8.02734C37.8711 8.02734 36.4844 6.64062 36.4844 4.90234C36.4844 3.18359 37.9102 1.75781 39.6094 1.75781C41.3672 1.75781 42.7539 3.16406 42.7539 4.90234Z" fill="black" fill-opacity="0.85"/>
  <path d="M43.6523 46.4844C43.6523 48.7305 41.875 50.5273 39.6094 50.5273C37.3828 50.5273 35.5859 48.7109 35.5859 46.4844C35.5859 44.2969 37.4219 42.4609 39.6094 42.4609C41.8164 42.4609 43.6523 44.2969 43.6523 46.4844ZM31.7188 39.5898C31.7188 41.8359 29.9219 43.6133 27.6758 43.6133C25.4688 43.6133 23.6523 41.7969 23.6523 39.5898C23.6523 37.3828 25.4883 35.5469 27.6758 35.5469C29.9023 35.5469 31.7188 37.3633 31.7188 39.5898ZM55.5859 39.5898L55.5652 39.9947L54.01 42.7688C53.3321 43.2986 52.4811 43.6133 51.5625 43.6133C49.3164 43.6133 47.5195 41.8359 47.5195 39.5898C47.5195 37.3633 49.3359 35.5469 51.5625 35.5469C53.75 35.5469 55.5859 37.3828 55.5859 39.5898ZM31.7188 25.6836C31.7188 27.9297 29.9414 29.7266 27.6758 29.7266C25.4492 29.7266 23.6523 27.9102 23.6523 25.6836C23.6523 23.4961 25.5078 21.6406 27.6758 21.6406C29.9023 21.6406 31.7188 23.457 31.7188 25.6836ZM55.5859 25.6836C55.5859 27.9297 53.8086 29.7266 51.5625 29.7266C49.3164 29.7266 47.5195 27.9102 47.5195 25.6836C47.5195 23.4961 49.375 21.6406 51.5625 21.6406C53.7695 21.6406 55.5859 23.457 55.5859 25.6836ZM43.6523 18.7695C43.6523 21.0156 41.875 22.793 39.6094 22.793C37.4023 22.793 35.5859 20.9766 35.5859 18.7695C35.5859 16.582 37.4219 14.7461 39.6094 14.7461C41.8359 14.7461 43.6523 16.5625 43.6523 18.7695Z" fill="black" fill-opacity="0.85"/>
  <path d="M44.2383 32.6367C44.2383 35.1758 42.168 37.2461 39.6094 37.2461C37.0703 37.2461 35 35.1758 35 32.6367C35 30.1172 37.1094 28.0078 39.6094 28.0078C42.1484 28.0078 44.2383 30.0977 44.2383 32.6367Z" fill="black" fill-opacity="0.85"/>
  <path d="M65.5273 38.5156L76.1133 57.3828C76.4062 57.9102 76.543 58.4375 76.543 58.9648C76.543 60.7812 75.2734 62.2266 73.3008 62.2266L52.168 62.2266C50.1953 62.2266 48.9258 60.7812 48.9258 58.9648C48.9258 58.4375 49.082 57.9102 49.375 57.3828L59.9414 38.5156C60.5273 37.4414 61.6602 36.875 62.7539 36.875C63.8281 36.875 64.9023 37.4414 65.5273 38.5156ZM60.7617 56.4844C60.7617 57.5781 61.6602 58.457 62.7344 58.457C63.8281 58.457 64.7266 57.5781 64.7266 56.4844C64.7461 55.4297 63.8281 54.5117 62.7344 54.5117C61.6797 54.5117 60.7617 55.4102 60.7617 56.4844ZM61.1719 44.2773L61.3477 51.4453C61.3672 52.2266 61.9531 52.793 62.7344 52.793C63.5156 52.793 64.1016 52.2266 64.1211 51.4453L64.2969 44.2773C64.3164 43.3594 63.6719 42.7148 62.7344 42.7148C61.7969 42.7148 61.1523 43.3594 61.1719 44.2773Z" fill="black" fill-opacity="0.85"/>
 </g>
</svg>
