<?xml version="1.0" encoding="UTF-8"?>
<!--Generator: Apple Native CoreSVG 326-->
<!DOCTYPE svg
PUBLIC "-//W3C//DTD SVG 1.1//EN"
       "http://www.w3.org/Graphics/SVG/1.1/DTD/svg11.dtd">
<svg version="1.1" xmlns="http://www.w3.org/2000/svg" xmlns:xlink="http://www.w3.org/1999/xlink" viewBox="0 0 27.8906 51.2695">
 <g>
  <rect height="51.2695" opacity="0" width="27.8906" x="0" y="0"/>
  <path d="M27.5195 39.8242C27.5195 46.2891 21.5625 51.2305 13.7695 51.2305C5.95703 51.2305 0 46.2891 0 39.8242C0 34.9106 3.4621 30.8597 8.57422 29.2196L8.57422 32.9074C5.47811 34.2463 3.47656 36.7928 3.47656 39.8242C3.47656 44.3359 7.91016 47.7734 13.7695 47.7734C19.6289 47.7734 24.043 44.3359 24.043 39.8242C24.043 36.7619 22.0094 34.1945 18.8672 32.8647L18.8672 29.194C24.0186 30.8145 27.5195 34.8832 27.5195 39.8242Z" fill="black" fill-opacity="0.85"/>
  <path d="M13.6914 41.875C15.0586 41.875 16.1523 41.2305 16.1523 40.3125L16.1523 14.9219L11.2891 14.9219L11.2891 40.3125C11.2891 41.2305 12.3438 41.875 13.6914 41.875ZM13.6914 20.8008C19.4336 20.8008 24.0625 16.1328 24.0625 10.3711C24.0625 4.62891 19.3945 0 13.6914 0C7.94922 0 3.28125 4.66797 3.28125 10.3711C3.28125 16.1719 7.94922 20.8008 13.6914 20.8008Z" fill="black" fill-opacity="0.85"/>
 </g>
</svg>
