<?xml version="1.0" encoding="UTF-8"?>
<!--Generator: Apple Native CoreSVG 326-->
<!DOCTYPE svg
PUBLIC "-//W3C//DTD SVG 1.1//EN"
       "http://www.w3.org/Graphics/SVG/1.1/DTD/svg11.dtd">
<svg version="1.1" xmlns="http://www.w3.org/2000/svg" xmlns:xlink="http://www.w3.org/1999/xlink" viewBox="0 0 47.9102 51.2695">
 <g>
  <rect height="51.2695" opacity="0" width="47.9102" x="0" y="0"/>
  <path d="M27.5195 39.8242C27.5195 46.2891 21.5625 51.2305 13.7695 51.2305C5.95703 51.2305 0 46.2891 0 39.8242C0 34.9106 3.4621 30.8597 8.57422 29.2196L8.57422 32.9074C5.47811 34.2463 3.47656 36.7928 3.47656 39.8242C3.47656 44.3359 7.91016 47.7734 13.7695 47.7734C19.6289 47.7734 24.043 44.3359 24.043 39.8242C24.043 36.7619 22.0094 34.1945 18.8672 32.8647L18.8672 29.194C24.0186 30.8145 27.5195 34.8832 27.5195 39.8242Z" fill="black" fill-opacity="0.85"/>
  <path d="M13.6914 41.875C15.0586 41.875 16.1523 41.2305 16.1523 40.3125L16.1523 14.9219L11.2891 14.9219L11.2891 40.3125C11.2891 41.2305 12.3438 41.875 13.6914 41.875ZM13.6914 20.8008C19.4336 20.8008 24.0625 16.1328 24.0625 10.3711C24.0625 4.62891 19.3945 0 13.6914 0C7.94922 0 3.28125 4.66797 3.28125 10.3711C3.28125 16.1719 7.94922 20.8008 13.6914 20.8008Z" fill="black" fill-opacity="0.85"/>
  <path d="M40.4883 22.0117C41.4258 22.0117 42.168 21.2695 42.168 20.332L42.168 12.8906L45.8984 12.8906C47.5 12.8906 47.9883 11.3086 47.0703 10.0977L41.7188 3.10547C41.0742 2.26562 39.8828 2.24609 39.2188 3.10547L33.8672 10.0977C32.9102 11.3477 33.4961 12.8906 35.0391 12.8906L38.8086 12.8906L38.8086 20.332C38.8086 21.2695 39.5508 22.0117 40.4883 22.0117ZM40.4883 29.2188C39.5508 29.2188 38.8086 29.9609 38.8086 30.918L38.8086 38.3398L35.0391 38.3398C33.4961 38.3398 32.9102 39.8828 33.8672 41.1328L39.2188 48.125C39.8828 49.0039 41.0742 48.9648 41.7188 48.125L47.0703 41.1328C47.9883 39.9219 47.5 38.3398 45.8984 38.3398L42.168 38.3398L42.168 30.918C42.168 29.9609 41.4258 29.2188 40.4883 29.2188Z" fill="black" fill-opacity="0.85"/>
 </g>
</svg>
