<?xml version="1.0" encoding="UTF-8"?>
<!--Generator: Apple Native CoreSVG 326-->
<!DOCTYPE svg
PUBLIC "-//W3C//DTD SVG 1.1//EN"
       "http://www.w3.org/Graphics/SVG/1.1/DTD/svg11.dtd">
<svg version="1.1" xmlns="http://www.w3.org/2000/svg" xmlns:xlink="http://www.w3.org/1999/xlink" viewBox="0 0 48.125 47.793">
 <g>
  <rect height="47.793" opacity="0" width="48.125" x="0" y="0"/>
  <path d="M1.97266 20.0586C3.10547 20.0586 3.90625 19.2188 3.90625 18.0664L3.90625 14.6289L3.45703 6.01562L10.7227 13.5352L18.7305 21.6211C19.1016 21.9922 19.5703 22.1875 20.0977 22.1875C21.3086 22.1875 22.1875 21.3867 22.1875 20.1758C22.1875 19.6289 21.9922 19.1211 21.6016 18.7305L13.5547 10.6641L6.01562 3.4375L14.6484 3.88672L18.0859 3.88672C19.2188 3.88672 20.0977 3.10547 20.0977 1.95312C20.0977 0.800781 19.2383 0 18.0859 0L3.4375 0C1.26953 0 0 1.26953 0 3.4375L0 18.0664C0 19.1797 0.820312 20.0586 1.97266 20.0586ZM29.668 47.7734L44.2969 47.7734C46.4844 47.7734 47.7539 46.5039 47.7539 44.3359L47.7539 29.707C47.7539 28.5938 46.9336 27.7148 45.7812 27.7148C44.6484 27.7148 43.8477 28.5547 43.8477 29.707L43.8477 33.1445L44.2969 41.7578L37.0117 34.2383L29.0234 26.1523C28.6523 25.7812 28.1641 25.5859 27.6562 25.5859C26.4453 25.5859 25.5664 26.3867 25.5664 27.5977C25.5664 28.1445 25.7617 28.6523 26.1523 29.043L34.1992 37.1094L41.7383 44.3359L33.0859 43.8867L29.668 43.8867C28.5352 43.8867 27.6562 44.668 27.6562 45.8203C27.6562 46.9727 28.5156 47.7734 29.668 47.7734Z" fill="black" fill-opacity="0.85"/>
 </g>
</svg>
