<?xml version="1.0" encoding="UTF-8"?>
<!--Generator: Apple Native CoreSVG 326-->
<!DOCTYPE svg
PUBLIC "-//W3C//DTD SVG 1.1//EN"
       "http://www.w3.org/Graphics/SVG/1.1/DTD/svg11.dtd">
<svg version="1.1" xmlns="http://www.w3.org/2000/svg" xmlns:xlink="http://www.w3.org/1999/xlink" viewBox="0 0 61.6016 49.082">
 <g>
  <rect height="49.082" opacity="0" width="61.6016" x="0" y="0"/>
  <path d="M7.59766 47.5195L53.6328 47.5195C58.6719 47.5195 61.2305 44.9805 61.2305 40L61.2305 13.5547C61.2305 8.59375 58.6719 6.03516 53.6328 6.03516L46.3086 6.03516C44.2969 6.03516 43.7305 5.72266 42.5391 4.39453L40.4688 2.07031C39.1797 0.664062 37.9688 0 35.4297 0L25.5078 0C22.9688 0 21.7578 0.664062 20.4688 2.07031L18.3984 4.39453C17.2461 5.68359 16.6211 6.03516 14.6289 6.03516L7.59766 6.03516C2.55859 6.03516 0 8.59375 0 13.5547L0 40C0 44.9805 2.55859 47.5195 7.59766 47.5195ZM7.67578 44.0625C5 44.0625 3.45703 42.6172 3.45703 39.8242L3.45703 13.75C3.45703 10.9375 5 9.49219 7.67578 9.49219L15.4297 9.49219C17.6953 9.49219 18.8672 9.12109 20.1562 7.67578L22.1875 5.41016C23.6328 3.80859 24.375 3.45703 26.5039 3.45703L34.4336 3.45703C36.582 3.45703 37.3047 3.80859 38.75 5.41016L40.7812 7.67578C42.0703 9.12109 43.2422 9.49219 45.5273 9.49219L53.5742 9.49219C56.25 9.49219 57.7734 10.9375 57.7734 13.75L57.7734 39.8242C57.7734 42.6172 56.25 44.0625 53.5742 44.0625Z" fill="black" fill-opacity="0.85"/>
  <path d="M13.8477 25.7617C13.3008 26.5625 13.4961 27.4609 14.4922 27.4609L17.168 27.4609C18.3398 34.2383 23.7891 38.9062 30.6641 38.9062C33.7695 38.9062 36.8945 37.7539 39.1016 35.8594C40.0977 35.0391 40.332 33.9453 39.5898 33.1641C38.8477 32.4023 37.9297 32.5195 37.0703 33.1641C35.0781 34.8047 33.125 35.6055 30.6641 35.6055C25.5664 35.6055 21.3867 32.1289 20.3125 27.4609L23.0273 27.4609C24.0039 27.4609 24.2773 26.543 23.7109 25.7617L19.9023 20.3711C19.2773 19.4727 18.2422 19.4336 17.5781 20.3711ZM21.6797 17.5977C22.4219 18.3789 23.3594 18.2617 24.1992 17.6172C26.1719 15.957 28.1641 15.1758 30.625 15.1758C35.7031 15.1758 39.8828 18.6523 40.9375 23.3203L38.1445 23.3203C37.1484 23.3203 36.8945 24.2383 37.4609 25.0195L41.25 30.4102C41.875 31.3086 42.9297 31.3477 43.5742 30.4102L47.3242 25.0195C47.8711 24.2188 47.6562 23.3203 46.6602 23.3203L44.1016 23.3203C42.9297 16.5234 37.5 11.8555 30.625 11.8555C27.5195 11.8555 24.3555 13.0273 22.1875 14.9219C21.1719 15.7617 20.9375 16.8359 21.6797 17.5977Z" fill="black" fill-opacity="0.85"/>
 </g>
</svg>
