<?xml version="1.0" encoding="UTF-8"?>
<!--Generator: Apple Native CoreSVG 326-->
<!DOCTYPE svg
PUBLIC "-//W3C//DTD SVG 1.1//EN"
       "http://www.w3.org/Graphics/SVG/1.1/DTD/svg11.dtd">
<svg version="1.1" xmlns="http://www.w3.org/2000/svg" xmlns:xlink="http://www.w3.org/1999/xlink" viewBox="0 0 59.5508 45.918">
 <g>
  <rect height="45.918" opacity="0" width="59.5508" x="0" y="0"/>
  <path d="M59.1797 7.53906L59.1797 38.3984C59.1797 43.3594 56.6211 45.918 51.5625 45.918L7.59766 45.918C2.55859 45.918 0 43.3984 0 38.3984L0 7.53906C0 2.53906 2.55859 0 7.59766 0L51.5625 0C56.6211 0 59.1797 2.55859 59.1797 7.53906ZM7.10938 8.78906C7.10938 9.21875 7.32422 9.66797 7.63672 9.96094L16.3867 18.7109L20.0781 22.168L16.3086 21.8555L11.3086 21.8555C10.2344 21.8555 9.55078 22.5195 9.55078 23.4961C9.55078 24.4727 10.2148 25.1172 11.2695 25.1172L23.3203 25.1172C24.4336 25.1172 25.1562 24.5898 25.1562 23.2812L25.1562 11.3086C25.1562 10.2734 24.4922 9.53125 23.5352 9.53125C22.5391 9.53125 21.875 10.2148 21.875 11.2695L21.875 15.8398L22.1875 20.0195L18.7305 16.3477L10.0391 7.63672C9.70703 7.30469 9.29688 7.10938 8.73047 7.10938C7.75391 7.10938 7.10938 7.75391 7.10938 8.78906Z" fill="black" fill-opacity="0.85"/>
 </g>
</svg>
