<?xml version="1.0" encoding="UTF-8"?>
<!--Generator: Apple Native CoreSVG 326-->
<!DOCTYPE svg
PUBLIC "-//W3C//DTD SVG 1.1//EN"
       "http://www.w3.org/Graphics/SVG/1.1/DTD/svg11.dtd">
<svg version="1.1" xmlns="http://www.w3.org/2000/svg" xmlns:xlink="http://www.w3.org/1999/xlink" viewBox="0 0 56.8656 56.5284">
 <g>
  <rect height="56.5284" opacity="0" width="56.8656" x="0" y="0"/>
  <path d="M2.71991 33.6255L22.8957 53.8013C26.4699 57.3755 30.0637 57.3951 33.5988 53.8599L53.8527 33.5865C57.3879 30.0513 57.3879 26.4576 53.8137 22.8833L33.6379 2.70756C30.0637-0.886186 26.4894-0.905717 22.9348 2.6685L2.64178 22.9224C-0.912906 26.4771-0.873843 30.0513 2.71991 33.6255ZM5.20038 31.2427C3.24725 29.3091 3.22772 27.2388 5.21991 25.2662L25.259 5.2271C27.2316 3.23491 29.2824 3.25444 31.2355 5.20756L51.2941 25.2662C53.2277 27.1998 53.2863 29.2896 51.2941 31.2623L31.2551 51.2818C29.2629 53.274 27.1926 53.2349 25.2785 51.3208Z" fill="black" fill-opacity="0.85"/>
  <path d="M17.5441 36.5162C17.5441 37.7466 18.1691 38.4693 19.2629 38.4498C20.3566 38.4302 20.9816 37.7466 20.9816 36.5162L20.9816 29.0162C20.9816 26.4771 22.0949 25.3833 24.5168 25.3833L31.4504 25.3638L31.4504 29.4068C31.4504 30.8716 33.1301 31.5552 34.3605 30.5005L40.298 25.4029C41.6262 24.2701 41.6262 23.0396 40.298 21.9068L34.3605 16.8091C33.1301 15.7544 31.4504 16.438 31.4504 17.9419L31.4504 21.9263L24.4582 21.9263C19.7512 21.9263 17.5441 24.1333 17.5441 28.8599Z" fill="black" fill-opacity="0.85"/>
 </g>
</svg>
