<?xml version="1.0" encoding="UTF-8"?>
<!--Generator: Apple Native CoreSVG 326-->
<!DOCTYPE svg
PUBLIC "-//W3C//DTD SVG 1.1//EN"
       "http://www.w3.org/Graphics/SVG/1.1/DTD/svg11.dtd">
<svg version="1.1" xmlns="http://www.w3.org/2000/svg" xmlns:xlink="http://www.w3.org/1999/xlink" viewBox="0 0 74.6875 47.8711">
 <g>
  <rect height="47.8711" opacity="0" width="74.6875" x="0" y="0"/>
  <path d="M37.168 47.8711C38.2617 47.8711 39.0625 47.0898 39.0625 45.9766L39.0625 1.85547C39.0625 0.78125 38.2617 0.0195312 37.168 0.0195312C36.0547 0.0195312 35.2539 0.78125 35.2539 1.85547L35.2539 45.9766C35.2539 47.0898 36.0547 47.8711 37.168 47.8711Z" fill="black" fill-opacity="0.85"/>
  <path d="M30.6836 23.9258C30.6836 22.8125 29.9023 22.0312 28.7891 22.0312L11.2695 22.0312L6.13281 22.168L14.8047 13.7305C15.1953 13.3789 15.3711 12.8516 15.3711 12.3242C15.3711 11.25 14.5508 10.4688 13.4961 10.4688C12.9297 10.4688 12.4414 10.7031 12.0117 11.1523L0.664062 22.5C0.253906 22.9102 0 23.3984 0 23.9258C0 24.4531 0.253906 24.9609 0.664062 25.3711L12.0117 36.6992C12.4414 37.1484 12.9297 37.3828 13.4961 37.3828C14.5508 37.3828 15.3711 36.6016 15.3711 35.5273C15.3711 35 15.1953 34.4727 14.8047 34.1211L6.13281 25.7031L11.2695 25.8398L28.7891 25.8398C29.9023 25.8398 30.6836 25.0586 30.6836 23.9258ZM43.6328 23.9258C43.6328 25.0586 44.4141 25.8398 45.5273 25.8398L63.0469 25.8398L68.1836 25.7031L59.5117 34.1211C59.1211 34.4727 58.9453 35 58.9453 35.5273C58.9453 36.6016 59.7656 37.3828 60.8203 37.3828C61.3867 37.3828 61.875 37.1484 62.3047 36.6992L73.6523 25.3711C74.0625 24.9609 74.3164 24.4531 74.3164 23.9258C74.3164 23.3984 74.0625 22.9102 73.6523 22.5L62.3047 11.1523C61.875 10.7031 61.3867 10.4688 60.8203 10.4688C59.7656 10.4688 58.9453 11.25 58.9453 12.3242C58.9453 12.8516 59.1211 13.3789 59.5117 13.7305L68.1836 22.168L63.0469 22.0312L45.5273 22.0312C44.4141 22.0312 43.6328 22.8125 43.6328 23.9258Z" fill="black" fill-opacity="0.85"/>
 </g>
</svg>
