<?xml version="1.0" encoding="UTF-8"?>
<!--Generator: Apple Native CoreSVG 326-->
<!DOCTYPE svg
PUBLIC "-//W3C//DTD SVG 1.1//EN"
       "http://www.w3.org/Graphics/SVG/1.1/DTD/svg11.dtd">
<svg version="1.1" xmlns="http://www.w3.org/2000/svg" xmlns:xlink="http://www.w3.org/1999/xlink" viewBox="0 0 46.2891 45.918">
 <g>
  <rect height="45.918" opacity="0" width="46.2891" x="0" y="0"/>
  <path d="M7.59766 45.918L38.3008 45.918C43.3594 45.918 45.918 43.3594 45.918 38.3984L45.918 7.53906C45.918 2.55859 43.3594 0 38.3008 0L7.59766 0C2.55859 0 0 2.53906 0 7.53906L0 38.3984C0 43.3984 2.55859 45.918 7.59766 45.918ZM7.67578 42.4609C4.94141 42.4609 3.45703 41.0156 3.45703 38.2031L3.45703 7.71484C3.45703 4.92188 4.94141 3.45703 7.67578 3.45703L38.2422 3.45703C40.918 3.45703 42.4609 4.92188 42.4609 7.71484L42.4609 38.2031C42.4609 41.0156 40.918 42.4609 38.2422 42.4609Z" fill="black" fill-opacity="0.85"/>
  <path d="M38.2227 22.9492C38.2227 22.4805 38.0078 22.0898 37.6172 21.6992L30.2734 14.3359C29.9805 14.043 29.5898 13.8672 29.1211 13.8672C28.2422 13.8672 27.5781 14.5703 27.5781 15.4492C27.5781 15.918 27.7539 16.3086 28.0859 16.6016L30.2734 18.7695L33.3789 21.5039L28.457 21.3281L17.4414 21.3281L12.5195 21.5039L15.625 18.7695L17.832 16.6016C18.1445 16.3086 18.3203 15.918 18.3203 15.4492C18.3203 14.5703 17.6562 13.8672 16.7773 13.8672C16.3086 13.8672 15.9375 14.043 15.6445 14.3359L8.30078 21.6992C7.89062 22.0898 7.69531 22.4805 7.69531 22.9492C7.69531 23.3984 7.89062 23.7695 8.30078 24.1992L15.6445 31.5625C15.9375 31.8555 16.3086 32.0117 16.7773 32.0117C17.6562 32.0117 18.3203 31.3281 18.3203 30.4688C18.3203 29.9805 18.125 29.5898 17.832 29.2969L15.625 27.1094L12.5391 24.3945L17.4414 24.5703L28.457 24.5703L33.3594 24.3945L30.2734 27.1094L28.0859 29.2969C27.7734 29.5898 27.5781 29.9805 27.5781 30.4688C27.5781 31.3281 28.2422 32.0117 29.1211 32.0117C29.5898 32.0117 29.9805 31.8555 30.2734 31.5625L37.6172 24.1992C38.0078 23.7695 38.2227 23.3984 38.2227 22.9492Z" fill="black" fill-opacity="0.85"/>
 </g>
</svg>
