<?xml version="1.0" encoding="UTF-8"?>
<!--Generator: Apple Native CoreSVG 326-->
<!DOCTYPE svg
PUBLIC "-//W3C//DTD SVG 1.1//EN"
       "http://www.w3.org/Graphics/SVG/1.1/DTD/svg11.dtd">
<svg version="1.1" xmlns="http://www.w3.org/2000/svg" xmlns:xlink="http://www.w3.org/1999/xlink" viewBox="0 0 46.2891 45.918">
 <g>
  <rect height="45.918" opacity="0" width="46.2891" x="0" y="0"/>
  <path d="M7.59766 45.918L38.3008 45.918C43.3594 45.918 45.918 43.3594 45.918 38.3984L45.918 7.53906C45.918 2.55859 43.3594 0 38.3008 0L7.59766 0C2.55859 0 0 2.53906 0 7.53906L0 38.3984C0 43.3984 2.55859 45.918 7.59766 45.918ZM7.67578 42.4609C4.94141 42.4609 3.45703 41.0156 3.45703 38.2031L3.45703 7.71484C3.45703 4.92188 4.94141 3.45703 7.67578 3.45703L38.2422 3.45703C40.918 3.45703 42.4609 4.92188 42.4609 7.71484L42.4609 38.2031C42.4609 41.0156 40.918 42.4609 38.2422 42.4609Z" fill="black" fill-opacity="0.85"/>
  <path d="M35.6445 22.9297C35.6445 22.4805 35.5078 22.1094 35.0781 21.6797L26.9531 13.3203C26.6211 12.9883 26.2695 12.8125 25.8203 12.8125C24.9414 12.8125 24.2969 13.4961 24.2969 14.375C24.2969 14.8047 24.4727 15.2539 24.8242 15.5469L29.1797 19.707L30.8789 21.3477L27.1875 21.2109L12.1094 21.2109C11.1914 21.2109 10.4297 21.9922 10.4297 22.9297C10.4297 23.8477 11.1914 24.6289 12.1094 24.6289L27.1875 24.6289L30.8984 24.5117L29.1797 26.1523L24.8242 30.3125C24.4727 30.6055 24.2969 31.0742 24.2969 31.5039C24.2969 32.3828 24.9414 33.0469 25.8203 33.0469C26.2695 33.0469 26.6211 32.8711 26.9531 32.5391L35.0781 24.1602C35.5078 23.7305 35.6445 23.3594 35.6445 22.9297Z" fill="black" fill-opacity="0.85"/>
 </g>
</svg>
