<?xml version="1.0" encoding="UTF-8"?>
<!--Generator: Apple Native CoreSVG 326-->
<!DOCTYPE svg
PUBLIC "-//W3C//DTD SVG 1.1//EN"
       "http://www.w3.org/Graphics/SVG/1.1/DTD/svg11.dtd">
<svg version="1.1" xmlns="http://www.w3.org/2000/svg" xmlns:xlink="http://www.w3.org/1999/xlink" viewBox="0 0 49.8438 46.9336">
 <g>
  <rect height="46.9336" opacity="0" width="49.8438" x="0" y="0"/>
  <path d="M0.371094 16.3086C0.371094 26.9141 9.49219 37.3047 23.457 46.3086C23.9453 46.6211 24.6289 46.9336 25.1172 46.9336C25.5859 46.9336 26.2695 46.6211 26.7578 46.3086C40.7422 37.3047 49.8438 26.9141 49.8438 16.3086C49.8438 7.59766 43.8477 1.38672 35.8203 1.38672C31.2109 1.38672 27.3242 3.69141 25.1172 7.22656C22.9297 3.71094 19.0039 1.38672 14.4141 1.38672C6.38672 1.38672 0.371094 7.59766 0.371094 16.3086ZM3.84766 16.3086C3.84766 9.47266 8.32031 4.84375 14.375 4.84375C19.082 4.84375 21.8945 7.77344 23.5938 10.5273C24.1797 11.4258 24.5703 11.6992 25.1172 11.6992C25.6445 11.6992 25.9961 11.4062 26.6211 10.5273C28.3984 7.8125 31.1719 4.84375 35.8594 4.84375C41.9141 4.84375 46.3867 9.47266 46.3867 16.3086C46.3867 25.7422 36.5039 35.7812 25.5859 43.0469C25.3711 43.1836 25.2148 43.3008 25.1172 43.3008C25.0195 43.3008 24.8633 43.1836 24.6484 43.0469C13.7109 35.7812 3.84766 25.7422 3.84766 16.3086Z" fill="black" fill-opacity="0.85"/>
  <path d="M16.1719 26.1523C16.1719 30.9961 19.9609 34.8242 24.7461 34.8242C29.5117 34.8242 33.3008 30.9961 33.3008 26.1914C33.3008 25.4688 32.6758 24.8633 31.9727 24.8633C31.2305 24.8633 30.6055 25.4688 30.6055 26.1914C30.6055 29.4922 28.0078 32.1094 24.7461 32.1094C21.4648 32.1094 18.8672 29.4922 18.8672 26.1914C18.8672 23.5156 20.6641 21.2891 23.1055 20.5859L23.1055 23.2422C23.1055 24.1016 24.0039 24.3945 24.6289 23.8672L28.9062 20.293C29.5117 19.7461 29.5312 19.0039 28.9062 18.4766L24.6289 14.9219C24.0039 14.3945 23.1055 14.6875 23.1055 15.5469L23.1055 17.832C19.2188 18.4961 16.1719 22.0117 16.1719 26.1523Z" fill="black" fill-opacity="0.85"/>
 </g>
</svg>
