<?xml version="1.0" encoding="UTF-8"?>
<!--Generator: Apple Native CoreSVG 326-->
<!DOCTYPE svg
PUBLIC "-//W3C//DTD SVG 1.1//EN"
       "http://www.w3.org/Graphics/SVG/1.1/DTD/svg11.dtd">
<svg version="1.1" xmlns="http://www.w3.org/2000/svg" xmlns:xlink="http://www.w3.org/1999/xlink" viewBox="0 0 46.2891 46.1914">
 <g>
  <rect height="46.1914" opacity="0" width="46.2891" x="0" y="0"/>
  <path d="M45.918 7.53906L45.918 38.3984C45.918 43.3594 43.3594 45.918 38.3008 45.918L7.59766 45.918C2.55859 45.918 0 43.3984 0 38.3984L0 7.53906C0 2.53906 2.55859 0 7.59766 0L38.3008 0C43.3594 0 45.918 2.55859 45.918 7.53906ZM26.543 10.7422L19.8633 17.3242C19.5312 17.6172 19.375 18.0078 19.375 18.4961C19.375 19.4141 20.1172 20.0977 21.0352 20.0977C21.5234 20.0977 21.9336 19.9023 22.2461 19.5898L25.5859 16.1523L26.4453 14.9805L26.3281 17.5391L26.3281 25.4297C26.3281 29.3945 23.9453 32.0117 20.3711 32.0117C16.582 32.0117 14.0625 29.3555 14.0625 25.4102L14.0625 21.8555C14.0625 20.8398 13.3984 20.1562 12.4414 20.1562C11.4844 20.1562 10.8398 20.8594 10.8398 21.8945L10.8398 25.4102C10.8398 31.2891 14.6094 35.2539 20.3711 35.2539C25.8984 35.2539 29.5508 31.3086 29.5508 25.4297L29.5508 17.5391L29.4531 14.9609L30.7031 16.543L33.6523 19.5898C33.9648 19.9023 34.3945 20.0977 34.8438 20.0977C35.7422 20.0977 36.5039 19.4141 36.5039 18.4766C36.5039 17.9883 36.3477 17.6172 36.0156 17.3047L29.375 10.7422C28.9648 10.3516 28.457 10.1562 27.9688 10.1562C27.4609 10.1562 26.9727 10.332 26.543 10.7422Z" fill="black" fill-opacity="0.85"/>
 </g>
</svg>
