<?xml version="1.0" encoding="UTF-8"?>
<!--Generator: Apple Native CoreSVG 326-->
<!DOCTYPE svg
PUBLIC "-//W3C//DTD SVG 1.1//EN"
       "http://www.w3.org/Graphics/SVG/1.1/DTD/svg11.dtd">
<svg version="1.1" xmlns="http://www.w3.org/2000/svg" xmlns:xlink="http://www.w3.org/1999/xlink" viewBox="0 0 66.875 49.043">
 <g>
  <rect height="49.043" opacity="0" width="66.875" x="0" y="0"/>
  <path d="M31.4648 17.7148C31.4648 18.3789 31.9531 18.8867 32.6562 18.9844C44.6484 20.2539 46.2305 21.7188 47.7148 34.082C47.832 34.7656 48.3594 35.2148 48.9844 35.2148C49.6289 35.2148 50.1367 34.7656 50.2539 34.082C51.7383 21.7188 53.3398 20.2539 65.3125 18.9844C66.0352 18.8867 66.5039 18.3789 66.5039 17.7148C66.5039 17.0508 66.0352 16.543 65.3125 16.4648C53.3594 15.1953 51.7383 13.6914 50.2539 1.34766C50.1367 0.664062 49.6484 0.214844 48.9844 0.214844C48.3398 0.214844 47.832 0.664062 47.7148 1.34766C46.1133 13.6133 44.6484 14.9023 32.6562 16.4648C31.9531 16.543 31.4648 17.0508 31.4648 17.7148ZM29.2188 39.668C29.2188 40.1172 29.5312 40.5078 30.0195 40.6055C36.543 41.8359 36.582 41.7188 37.4219 47.9102C37.4805 48.4375 37.8516 48.7891 38.3594 48.7891C38.8477 48.7891 39.2188 48.457 39.2969 47.9297C40.1953 41.4062 40.5078 41.543 46.6602 40.6055C47.1484 40.5273 47.5 40.1367 47.5 39.668C47.5 39.2188 47.168 38.8281 46.6797 38.7305C40.4492 37.5195 40.2148 37.793 39.2969 31.3867C39.2188 30.8789 38.8281 30.5469 38.3594 30.5469C37.8516 30.5469 37.4805 30.8984 37.4219 31.4258C36.582 37.6172 36.5234 37.6367 30.0977 38.7305C29.5508 38.8281 29.2188 39.1797 29.2188 39.668Z" fill="black" fill-opacity="0.85"/>
  <path d="M0 35.6641C0 36.1328 0.214844 36.6797 0.585938 37.0508L11.7773 48.418C12.168 48.8477 12.6562 49.043 13.1836 49.043C13.7109 49.043 14.1992 48.8477 14.6094 48.418L25.7812 37.0508C26.1523 36.6797 26.3867 36.1328 26.3867 35.6641C26.3867 34.5312 25.5859 33.7891 24.5117 33.7891C23.9453 33.7891 23.4961 33.9648 23.1836 34.2969L19.2188 38.418L14.8828 43.2617L15.0781 37.5195L15.0781 11.5234L14.8828 5.78125L19.2188 10.625L23.1836 14.7461C23.4961 15.0781 23.9453 15.2539 24.5117 15.2539C25.5859 15.2539 26.3867 14.5117 26.3867 13.3789C26.3867 12.9102 26.1523 12.3633 25.7812 11.9922L14.6094 0.625C14.1992 0.195312 13.7109 0 13.1836 0C12.6562 0 12.168 0.195312 11.7773 0.625L0.585938 11.9922C0.214844 12.3633 0 12.9102 0 13.3789C0 14.5117 0.78125 15.2539 1.875 15.2539C2.42188 15.2539 2.87109 15.0586 3.18359 14.7461L7.16797 10.625L11.5039 5.78125L11.2891 11.5234L11.2891 37.5195L11.5039 43.2617L7.16797 38.418L3.18359 34.2969C2.87109 33.9844 2.42188 33.7891 1.875 33.7891C0.78125 33.7891 0 34.5312 0 35.6641Z" fill="black" fill-opacity="0.85"/>
 </g>
</svg>
