<?xml version="1.0" encoding="UTF-8"?>
<!--Generator: Apple Native CoreSVG 326-->
<!DOCTYPE svg
PUBLIC "-//W3C//DTD SVG 1.1//EN"
       "http://www.w3.org/Graphics/SVG/1.1/DTD/svg11.dtd">
<svg version="1.1" xmlns="http://www.w3.org/2000/svg" xmlns:xlink="http://www.w3.org/1999/xlink" viewBox="0 0 51.25 50.918">
 <g>
  <rect height="50.918" opacity="0" width="51.25" x="0" y="0"/>
  <path d="M25.4297 50.8789C39.4727 50.8789 50.8789 39.4922 50.8789 25.4492C50.8789 11.4062 39.4727 0 25.4297 0C11.3867 0 0 11.4062 0 25.4492C0 39.4922 11.3867 50.8789 25.4297 50.8789ZM25.4297 47.2461C13.3789 47.2461 3.63281 37.5 3.63281 25.4492C3.63281 13.3984 13.3789 3.65234 25.4297 3.65234C37.4805 3.65234 47.2266 13.3984 47.2266 25.4492C47.2266 37.5 37.4805 47.2461 25.4297 47.2461Z" fill="black" fill-opacity="0.85"/>
  <path d="M21.875 38.1055C27.7148 38.1055 31.3281 33.8867 31.3281 28.1055L31.3281 20L31.25 17.0703L32.6758 18.9062L35.7422 22.0312C36.0156 22.3242 36.4258 22.5391 36.875 22.5391C37.7734 22.5391 38.4766 21.875 38.4766 20.9766C38.4766 20.5078 38.3203 20.1562 37.9883 19.8438L31.1914 13.1641C30.8203 12.793 30.332 12.5586 29.8047 12.5586C29.2773 12.5586 28.8281 12.793 28.457 13.1641L21.6016 19.8633C21.2891 20.1758 21.1328 20.5273 21.1328 20.9961C21.1328 21.875 21.8164 22.5391 22.7148 22.5391C23.1445 22.5391 23.5547 22.3633 23.8672 22.0508L27.3242 18.4766L28.3789 17.0703L28.2812 20L28.2812 28.1055C28.2812 32.0117 25.9961 34.9219 22.0312 34.9219C18.0078 34.9219 15.4688 32.0703 15.4688 28.0859C15.4688 27.6758 15.4688 24.5312 15.4688 24.4336C15.4688 23.5156 14.9023 22.793 13.9062 22.793C12.9102 22.793 12.3633 23.5156 12.3633 24.4727C12.3633 24.6094 12.3633 27.6758 12.3633 28.0859C12.3633 33.8672 16.0352 38.1055 21.875 38.1055Z" fill="black" fill-opacity="0.85"/>
 </g>
</svg>
