<?xml version="1.0" encoding="UTF-8"?>
<!--Generator: Apple Native CoreSVG 326-->
<!DOCTYPE svg
PUBLIC "-//W3C//DTD SVG 1.1//EN"
       "http://www.w3.org/Graphics/SVG/1.1/DTD/svg11.dtd">
<svg version="1.1" xmlns="http://www.w3.org/2000/svg" xmlns:xlink="http://www.w3.org/1999/xlink" viewBox="0 0 51.25 50.918">
 <g>
  <rect height="50.918" opacity="0" width="51.25" x="0" y="0"/>
  <path d="M50.8789 25.4492C50.8789 39.4531 39.4531 50.8789 25.4297 50.8789C11.4258 50.8789 0 39.4531 0 25.4492C0 11.4258 11.4258 0 25.4297 0C39.4531 0 50.8789 11.4258 50.8789 25.4492ZM24.1602 13.1055L15.6055 21.4258C15.2539 21.7578 15.0781 22.1289 15.0781 22.5977C15.0781 23.4961 15.7422 24.1602 16.6602 24.1602C17.0898 24.1602 17.5781 23.9844 17.8906 23.6133L22.1289 19.1797L23.8086 17.4414L23.6719 21.25L23.6719 36.6406C23.6719 37.5781 24.4727 38.3789 25.4492 38.3789C26.4062 38.3789 27.2266 37.5781 27.2266 36.6406L27.2266 21.25L27.0898 17.4414L28.75 19.1797L32.9883 23.6133C33.3008 23.9844 33.7695 24.1602 34.1992 24.1602C35.1172 24.1602 35.8203 23.4961 35.8203 22.5977C35.8203 22.1289 35.625 21.7578 35.293 21.4258L26.7188 13.1055C26.2891 12.6562 25.8984 12.5195 25.4492 12.5195C24.9805 12.5195 24.6094 12.6562 24.1602 13.1055Z" fill="black" fill-opacity="0.85"/>
 </g>
</svg>
