<?xml version="1.0" encoding="UTF-8"?>
<!--Generator: Apple Native CoreSVG 326-->
<!DOCTYPE svg
PUBLIC "-//W3C//DTD SVG 1.1//EN"
       "http://www.w3.org/Graphics/SVG/1.1/DTD/svg11.dtd">
<svg version="1.1" xmlns="http://www.w3.org/2000/svg" xmlns:xlink="http://www.w3.org/1999/xlink" viewBox="0 0 46.2891 45.918">
 <g>
  <rect height="45.918" opacity="0" width="46.2891" x="0" y="0"/>
  <path d="M45.918 7.53906L45.918 38.3984C45.918 43.3594 43.3594 45.918 38.3008 45.918L7.59766 45.918C2.55859 45.918 0 43.3984 0 38.3984L0 7.53906C0 2.53906 2.55859 0 7.59766 0L38.3008 0C43.3594 0 45.918 2.55859 45.918 7.53906ZM10.1367 13.2812L10.1367 32.6367C10.1367 33.4961 10.7617 34.1211 11.6602 34.1211C12.5195 34.1211 13.1445 33.4961 13.1445 32.6367L13.1445 13.2812C13.1445 12.4023 12.5195 11.7969 11.6602 11.7969C10.7617 11.7969 10.1367 12.4023 10.1367 13.2812ZM24.7852 12.9492L15.8008 21.8359C15.4688 22.168 15.2734 22.5586 15.2734 22.9688C15.2734 23.3984 15.4297 23.7891 15.8008 24.1016L24.7461 32.9102C25.0586 33.2227 25.5273 33.457 25.918 33.457C26.7969 33.457 27.4023 32.8516 27.4023 31.9922C27.4023 31.5039 27.2656 31.1328 26.9336 30.8594L24.9023 28.9453L19.7461 24.2383L24.5117 24.5117L36.9531 24.5117C37.832 24.5117 38.4766 23.8867 38.4766 22.9688C38.4766 22.1094 37.832 21.4844 36.9531 21.4844L24.5117 21.4844L19.7656 21.6992L24.9414 17.0117L26.9336 15.0586C27.2656 14.7461 27.4023 14.3359 27.4023 13.9062C27.4023 13.0469 26.7578 12.4609 25.8984 12.4609C25.5078 12.4609 25.0977 12.5977 24.7852 12.9492Z" fill="black" fill-opacity="0.85"/>
 </g>
</svg>
