<?xml version="1.0" encoding="UTF-8"?>
<!--Generator: Apple Native CoreSVG 326-->
<!DOCTYPE svg
PUBLIC "-//W3C//DTD SVG 1.1//EN"
       "http://www.w3.org/Graphics/SVG/1.1/DTD/svg11.dtd">
<svg version="1.1" xmlns="http://www.w3.org/2000/svg" xmlns:xlink="http://www.w3.org/1999/xlink" viewBox="0 0 63.8058 53.8477">
 <g>
  <rect height="53.8477" opacity="0" width="63.8058" x="0" y="0"/>
  <path d="M21.5025 46.25C21.5025 51.2891 24.022 53.8477 29.022 53.8477L55.9166 53.8477C60.897 53.8477 63.4361 51.2891 63.4361 46.25L63.4361 7.61719C63.4361 2.57812 60.897 0.0195312 55.9166 0.0195312L29.022 0.0195312C24.022 0.0195312 21.5025 2.57812 21.5025 7.61719ZM24.9595 46.1719L24.9595 7.69531C24.9595 4.96094 26.4049 3.47656 29.2174 3.47656L55.7213 3.47656C58.5338 3.47656 59.9791 4.96094 59.9791 7.69531L59.9791 46.1719C59.9791 48.9062 58.5338 50.3906 55.7213 50.3906L29.2174 50.3906C26.4049 50.3906 24.9595 48.9062 24.9595 46.1719Z" fill="black" fill-opacity="0.85"/>
  <path d="M30.8189 39.7656L54.1002 39.7656C55.0181 39.7656 55.4283 39.1797 55.4283 38.3398C55.4283 35.5664 51.2877 28.2812 42.4595 28.2812C33.651 28.2812 29.5103 35.5664 29.5103 38.3398C29.5103 39.1797 29.9205 39.7656 30.8189 39.7656ZM42.4595 26.25C46.0533 26.2695 48.9244 23.2227 48.9244 19.1992C48.9244 15.4297 46.0533 12.3047 42.4595 12.3047C38.8853 12.3047 36.0142 15.4297 36.0142 19.1992C36.0142 23.2227 38.8853 26.2305 42.4595 26.25Z" fill="black" fill-opacity="0.85"/>
  <path d="M0.525955 22.7344C-0.567795 24.0039 0.13533 25.7227 1.79549 25.7227L6.26814 25.7227L6.26814 37.0117C6.26814 37.9883 7.01033 38.7109 7.96736 38.7109C8.92439 38.7109 9.64705 37.9883 9.64705 37.0117L9.64705 25.7227L14.0806 25.7227C15.8189 25.7227 16.4439 23.9453 15.3697 22.7344L9.27596 15.7031C8.51424 14.8438 7.40096 14.8242 6.60017 15.7031Z" fill="black" fill-opacity="0.85"/>
 </g>
</svg>
