<?xml version="1.0" encoding="UTF-8"?>
<!--Generator: Apple Native CoreSVG 326-->
<!DOCTYPE svg
PUBLIC "-//W3C//DTD SVG 1.1//EN"
       "http://www.w3.org/Graphics/SVG/1.1/DTD/svg11.dtd">
<svg version="1.1" xmlns="http://www.w3.org/2000/svg" xmlns:xlink="http://www.w3.org/1999/xlink" viewBox="0 0 51.25 50.918">
 <g>
  <rect height="50.918" opacity="0" width="51.25" x="0" y="0"/>
  <path d="M25.4297 50.8789C39.4727 50.8789 50.8789 39.4922 50.8789 25.4492C50.8789 11.4062 39.4727 0 25.4297 0C11.3867 0 0 11.4062 0 25.4492C0 39.4922 11.3867 50.8789 25.4297 50.8789ZM25.4297 47.2461C13.3789 47.2461 3.63281 37.5 3.63281 25.4492C3.63281 13.3984 13.3789 3.65234 25.4297 3.65234C37.4805 3.65234 47.2266 13.3984 47.2266 25.4492C47.2266 37.5 37.4805 47.2461 25.4297 47.2461Z" fill="black" fill-opacity="0.85"/>
  <path d="M14.6875 33.7109C14.6875 34.9414 15.3125 35.6641 16.4062 35.6445C17.5 35.625 18.125 34.9414 18.125 33.7109L18.125 26.2109C18.125 23.6719 19.2383 22.5781 21.6602 22.5781L28.6133 22.5586L28.6133 26.6016C28.6133 28.0664 30.2734 28.75 31.5039 27.6953L37.4414 22.5977C38.7695 21.4648 38.7695 20.2344 37.4414 19.1016L31.5039 14.0039C30.2734 12.9492 28.6133 13.6328 28.6133 15.1367L28.6133 19.1211L21.6016 19.1211C16.8945 19.1211 14.6875 21.3281 14.6875 26.0547Z" fill="black" fill-opacity="0.85"/>
 </g>
</svg>
