<?xml version="1.0" encoding="UTF-8"?>
<!--Generator: Apple Native CoreSVG 326-->
<!DOCTYPE svg
PUBLIC "-//W3C//DTD SVG 1.1//EN"
       "http://www.w3.org/Graphics/SVG/1.1/DTD/svg11.dtd">
<svg version="1.1" xmlns="http://www.w3.org/2000/svg" xmlns:xlink="http://www.w3.org/1999/xlink" viewBox="0 0 59.5508 45.918">
 <g>
  <rect height="45.918" opacity="0" width="59.5508" x="0" y="0"/>
  <path d="M7.59766 45.918L51.5625 45.918C56.6211 45.918 59.1797 43.3594 59.1797 38.3984L59.1797 7.53906C59.1797 2.55859 56.6211 0 51.5625 0L7.59766 0C2.55859 0 0 2.53906 0 7.53906L0 38.3984C0 43.3984 2.55859 45.918 7.59766 45.918ZM7.67578 42.4609C4.94141 42.4609 3.45703 41.0156 3.45703 38.2031L3.45703 7.71484C3.45703 4.92188 4.94141 3.45703 7.67578 3.45703L51.5039 3.45703C54.1797 3.45703 55.7031 4.92188 55.7031 7.71484L55.7031 38.2031C55.7031 41.0156 54.1797 42.4609 51.5039 42.4609Z" fill="black" fill-opacity="0.85"/>
  <path d="M26.5234 8.32031C25.6055 8.32031 24.9805 8.98438 24.9805 9.94141L24.9805 13.457L25.2344 17.0508L22.2852 13.9258L16.0938 7.73438C15.7812 7.42188 15.4102 7.24609 14.8828 7.24609C13.9844 7.24609 13.3594 7.85156 13.3594 8.80859C13.3594 9.21875 13.5742 9.64844 13.8672 9.92188L20.0586 16.1523L23.2227 19.1016L20.0391 18.8281L16.0742 18.8281C15.1172 18.8281 14.4531 19.4531 14.4531 20.3711C14.4531 21.2695 15.1172 21.8945 16.0352 21.8945L26.3477 21.8945C27.3828 21.8945 28.0469 21.3867 28.0469 20.2148L28.0469 9.98047C28.0469 9.02344 27.4219 8.32031 26.5234 8.32031ZM32.6562 37.5977C33.5547 37.5977 34.1992 36.9336 34.1992 35.9961L34.1992 32.4609L33.9453 28.8672L36.8945 31.9922L43.0859 38.2031C43.3984 38.4961 43.7695 38.6719 44.2773 38.6719C45.1758 38.6719 45.8203 38.0664 45.8203 37.1289C45.8203 36.6992 45.6055 36.2891 45.3125 35.9961L39.1016 29.7656L35.9375 26.8359L39.1406 27.0898L43.0859 27.0898C44.0625 27.0898 44.7266 26.4648 44.7266 25.5664C44.7266 24.6484 44.0625 24.0234 43.125 24.0234L32.832 24.0234C31.7969 24.0234 31.1328 24.5312 31.1328 25.7227L31.1328 35.957C31.1328 36.8945 31.7578 37.5977 32.6562 37.5977Z" fill="black" fill-opacity="0.85"/>
 </g>
</svg>
