<?xml version="1.0" encoding="UTF-8"?>
<!--Generator: Apple Native CoreSVG 326-->
<!DOCTYPE svg
PUBLIC "-//W3C//DTD SVG 1.1//EN"
       "http://www.w3.org/Graphics/SVG/1.1/DTD/svg11.dtd">
<svg version="1.1" xmlns="http://www.w3.org/2000/svg" xmlns:xlink="http://www.w3.org/1999/xlink" viewBox="0 0 65 40.8398">
 <g>
  <rect height="40.8398" opacity="0" width="65" x="0" y="0"/>
  <path d="M46.9531 8.00781L46.9531 32.793C46.9531 37.9102 43.9648 40.8203 38.8281 40.8203L11.5039 40.8203C6.36719 40.8203 3.37891 37.9102 3.37891 32.793L3.37891 8.00781C3.37891 2.91016 6.54297 0 11.5039 0L39.0234 0C44.1602 0 46.9531 2.91016 46.9531 8.00781ZM65 7.32422L65 33.4766C65 35.4883 63.7891 36.8164 61.9531 36.8164C61.0156 36.8164 60.0781 36.3477 59.1992 35.6055L50.0586 27.832L50.0586 12.9492L59.1992 5.21484C60.0781 4.47266 61.0156 4.00391 61.9531 4.00391C63.7891 4.00391 65 5.33203 65 7.32422ZM19.1016 10.2148C18.2031 10.2148 17.4805 10.957 17.4805 11.875C17.4805 12.7734 18.2227 13.3984 19.1016 13.3984L23.4766 13.3984L30.8203 13.0078L26.4648 17.0117L15.332 28.1836C14.9609 28.5547 14.7852 28.9453 14.7852 29.4336C14.7852 30.332 15.4883 30.9766 16.4453 30.9766C16.9531 30.9766 17.2852 30.8203 17.6172 30.4883L28.7695 19.2969L32.7734 15.0195L32.3828 22.3242L32.3828 26.6016C32.3828 27.4609 33.0273 28.1836 33.9062 28.1836C34.8438 28.1836 35.5664 27.5 35.5664 26.6016L35.5664 11.9727C35.5664 10.8008 35 10.2148 33.8086 10.2148Z" fill="black" fill-opacity="0.85"/>
 </g>
</svg>
