<?xml version="1.0" encoding="UTF-8"?>
<!--Generator: Apple Native CoreSVG 326-->
<!DOCTYPE svg
PUBLIC "-//W3C//DTD SVG 1.1//EN"
       "http://www.w3.org/Graphics/SVG/1.1/DTD/svg11.dtd">
<svg version="1.1" xmlns="http://www.w3.org/2000/svg" xmlns:xlink="http://www.w3.org/1999/xlink" viewBox="0 0 89.4141 58.1055">
 <g>
  <rect height="58.1055" opacity="0" width="89.4141" x="0" y="0"/>
  <path d="M27.0898 35.5859L27.0898 53.457C27.0898 56.0938 25.0977 58.0664 22.5 58.0664L4.57031 58.0664C1.95312 58.0664 0 56.0938 0 53.457L0 35.5859C0 32.9688 1.95312 30.957 4.57031 30.957L22.5 30.957C25.0977 30.957 27.0898 32.9688 27.0898 35.5859ZM58.0469 35.5859L58.0469 53.457C58.0469 56.0938 56.0547 58.0664 53.457 58.0664L35.5273 58.0664C32.9297 58.0664 30.957 56.0938 30.957 53.457L30.957 35.5859C30.957 32.9688 32.9297 30.957 35.5273 30.957L53.457 30.957C56.0547 30.957 58.0469 32.9688 58.0469 35.5859ZM89.043 35.5859L89.043 53.457C89.043 56.0938 87.0508 58.0664 84.4531 58.0664L66.5234 58.0664C63.9258 58.0664 61.9336 56.0938 61.9336 53.457L61.9336 35.5859C61.9336 32.9688 63.9258 30.957 66.5234 30.957L84.4531 30.957C87.0508 30.957 89.043 32.9688 89.043 35.5859ZM16.6797 37.4609L6.77734 43.3398C5.89844 43.8477 5.91797 45.1953 6.79688 45.7227L16.6797 51.582C17.6172 52.1484 18.7891 51.543 18.7891 50.5469L18.7891 38.4766C18.7891 37.5 17.6367 36.8945 16.6797 37.4609ZM70.2344 38.4766L70.2344 50.5469C70.2344 51.543 71.3867 52.1484 72.3438 51.582L82.2266 45.7227C83.1055 45.1953 83.125 43.8477 82.2461 43.3398L72.3438 37.4609C71.3867 36.8945 70.2344 37.5 70.2344 38.4766ZM38.4961 38.2227C37.5 38.2227 36.8945 39.375 37.4609 40.332L43.3008 50.2148C43.8086 51.0938 45.1367 51.1133 45.6641 50.2344L51.5625 40.332C52.1289 39.3945 51.5234 38.2227 50.5664 38.2227ZM58.0469 4.62891L58.0469 22.5C58.0469 25.1172 56.0547 27.1094 53.457 27.1094L35.5273 27.1094C32.9297 27.1094 30.957 25.1172 30.957 22.5L30.957 4.62891C30.957 2.01172 32.9297 0 35.5273 0L53.457 0C56.0547 0 58.0469 2.01172 58.0469 4.62891ZM43.3008 7.87109L37.4609 17.7539C36.8945 18.6914 37.5 19.8438 38.4766 19.8438L50.5664 19.8438C51.5234 19.8438 52.1289 18.6719 51.5625 17.7539L45.6641 7.85156C45.1367 6.95312 43.8086 6.97266 43.3008 7.87109Z" fill="black" fill-opacity="0.85"/>
 </g>
</svg>
