<?xml version="1.0" encoding="UTF-8"?>
<!--Generator: Apple Native CoreSVG 326-->
<!DOCTYPE svg
PUBLIC "-//W3C//DTD SVG 1.1//EN"
       "http://www.w3.org/Graphics/SVG/1.1/DTD/svg11.dtd">
<svg version="1.1" xmlns="http://www.w3.org/2000/svg" xmlns:xlink="http://www.w3.org/1999/xlink" viewBox="0 0 42.3047 53.8477">
 <g>
  <rect height="53.8477" opacity="0" width="42.3047" x="0" y="0"/>
  <path d="M19.3359 18.3008C19.3359 21.3477 20.7812 22.8125 23.8281 22.8125L41.9336 22.8125L41.9336 46.25C41.9336 51.2695 39.4141 53.8477 34.4141 53.8477L7.51953 53.8477C2.51953 53.8477 0 51.2891 0 46.25L0 7.61719C0 2.57812 2.55859 0.0195312 7.51953 0.0195312L19.3359 0.0195312ZM19.375 28.8281L19.375 38.7695L19.5117 43.0664L16.6797 40.1758L14.5117 37.9688C14.2188 37.6758 13.7891 37.5 13.3984 37.5C12.5391 37.5 11.9141 38.1055 11.9141 38.9453C11.9141 39.4727 12.1484 39.8438 12.4805 40.1367L19.7852 47.0117C20.2148 47.4023 20.5664 47.5586 20.9766 47.5586C21.3672 47.5586 21.7188 47.4023 22.1484 47.0117L29.4531 40.1367C29.7852 39.8438 30.0195 39.4727 30.0195 38.9453C30.0195 38.1055 29.375 37.5 28.5352 37.5C28.125 37.5 27.7148 37.6758 27.4219 37.9688L25.2539 40.1758L22.4219 43.0664L22.5586 38.7695L22.5586 28.8281C22.5586 27.9688 21.8359 27.2656 20.9766 27.2656C20.0977 27.2656 19.375 27.9688 19.375 28.8281ZM25.293 2.1875L39.7656 16.8555C40.8008 17.8906 41.4648 18.7695 41.6211 19.6875L23.9453 19.6875C22.9492 19.6875 22.4609 19.1992 22.4609 18.2031L22.4609 0.3125C23.3594 0.46875 24.2969 1.15234 25.293 2.1875Z" fill="black" fill-opacity="0.85"/>
 </g>
</svg>
