<?xml version="1.0" encoding="UTF-8"?>
<!--Generator: Apple Native CoreSVG 326-->
<!DOCTYPE svg
PUBLIC "-//W3C//DTD SVG 1.1//EN"
       "http://www.w3.org/Graphics/SVG/1.1/DTD/svg11.dtd">
<svg version="1.1" xmlns="http://www.w3.org/2000/svg" xmlns:xlink="http://www.w3.org/1999/xlink" viewBox="0 0 59.5508 45.918">
 <g>
  <rect height="45.918" opacity="0" width="59.5508" x="0" y="0"/>
  <path d="M59.1797 7.53906L59.1797 38.3984C59.1797 43.3594 56.6211 45.918 51.5625 45.918L7.59766 45.918C2.55859 45.918 0 43.3984 0 38.3984L0 7.53906C0 2.53906 2.55859 0 7.59766 0L51.5625 0C56.6211 0 59.1797 2.55859 59.1797 7.53906ZM32.9102 24.0234C31.8359 24.0234 31.1523 24.5508 31.1523 25.7812L31.1523 36.25C31.1523 37.2266 31.7969 37.9688 32.7344 37.9688C33.6719 37.9688 34.3164 37.2852 34.3164 36.2891L34.3164 32.7148L34.0625 29.043L37.0898 32.2656L43.3789 38.5547C43.7109 38.8672 44.082 39.0625 44.6094 39.0625C45.5664 39.0625 46.2109 38.418 46.2109 37.4414C46.2109 36.9922 45.9766 36.582 45.6836 36.2695L39.375 29.9414L36.1133 26.9336L39.3945 27.207L43.3984 27.207C44.4141 27.207 45.0977 26.543 45.0977 25.625C45.0977 24.668 44.4141 24.0234 43.4375 24.0234ZM12.9688 8.47656C12.9688 8.92578 13.2031 9.33594 13.4766 9.64844L19.7852 15.9766L23.0469 19.0039L19.7852 18.7109L15.7617 18.7109C14.7656 18.7109 14.082 19.375 14.082 20.3125C14.082 21.25 14.7656 21.8945 15.7227 21.8945L26.2695 21.8945C27.3438 21.8945 28.0273 21.3672 28.0273 20.1562L28.0273 9.66797C28.0273 8.69141 27.3828 7.96875 26.4453 7.96875C25.5078 7.96875 24.8633 8.65234 24.8633 9.62891L24.8633 13.2227L25.1172 16.8945L22.0898 13.6719L15.8008 7.38281C15.4688 7.07031 15.0977 6.875 14.5508 6.875C13.6133 6.875 12.9688 7.5 12.9688 8.47656Z" fill="black" fill-opacity="0.85"/>
 </g>
</svg>
