<?xml version="1.0" encoding="UTF-8"?>
<!--Generator: Apple Native CoreSVG 326-->
<!DOCTYPE svg
PUBLIC "-//W3C//DTD SVG 1.1//EN"
       "http://www.w3.org/Graphics/SVG/1.1/DTD/svg11.dtd">
<svg version="1.1" xmlns="http://www.w3.org/2000/svg" xmlns:xlink="http://www.w3.org/1999/xlink" viewBox="0 0 49.8438 46.9336">
 <g>
  <rect height="46.9336" opacity="0" width="49.8438" x="0" y="0"/>
  <path d="M49.8438 16.3086C49.8438 26.9141 40.7422 37.3047 26.7578 46.3086C26.2695 46.6211 25.5859 46.9336 25.1172 46.9336C24.6289 46.9336 23.9453 46.6211 23.457 46.3086C9.49219 37.3047 0.371094 26.9141 0.371094 16.3086C0.371094 7.59766 6.38672 1.38672 14.2188 1.38672C19.0039 1.38672 22.9297 4.10156 25.1172 8.22266C27.3242 4.08203 31.2109 1.38672 36.0156 1.38672C43.8477 1.38672 49.8438 7.59766 49.8438 16.3086ZM23.0273 16.0352L23.0273 26.3477L23.1641 30.8398L20.293 27.8906L18.125 25.6836C17.8125 25.3711 17.3633 25.1758 16.9336 25.1758C16.0156 25.1758 15.3516 25.8203 15.3516 26.7383C15.3516 27.2852 15.6055 27.6562 15.957 28.0078L23.4766 35.0391C23.9453 35.4492 24.2969 35.6055 24.7461 35.6055C25.1758 35.6055 25.5273 35.4492 25.9961 35.0391L33.5156 28.0078C33.8672 27.6562 34.1211 27.2852 34.1211 26.7383C34.1211 25.8203 33.418 25.1758 32.5391 25.1758C32.0898 25.1758 31.6602 25.3711 31.3477 25.6836L29.1797 27.8906L26.3086 30.8398L26.4453 26.3477L26.4453 16.0352C26.4453 15.1172 25.6641 14.375 24.7461 14.375C23.8086 14.375 23.0273 15.1172 23.0273 16.0352Z" fill="black" fill-opacity="0.85"/>
 </g>
</svg>
