<?xml version="1.0" encoding="UTF-8"?>
<!--Generator: Apple Native CoreSVG 326-->
<!DOCTYPE svg
PUBLIC "-//W3C//DTD SVG 1.1//EN"
       "http://www.w3.org/Graphics/SVG/1.1/DTD/svg11.dtd">
<svg version="1.1" xmlns="http://www.w3.org/2000/svg" xmlns:xlink="http://www.w3.org/1999/xlink" viewBox="0 0 59.5508 56.9502">
 <g>
  <rect height="56.9502" opacity="0" width="59.5508" x="0" y="0"/>
  <path d="M0 43.9341C0 48.9341 2.55859 51.4536 7.59766 51.4536L51.5625 51.4536C56.6211 51.4536 59.1797 48.9145 59.1797 43.9341L59.1797 13.0747C59.1797 8.09423 56.6211 5.55517 51.5625 5.55517L33.0469 5.55517C32.1094 5.55517 31.3281 6.33642 31.3281 7.27392C31.3281 8.23095 32.1094 9.0122 33.0469 9.0122L51.5039 9.0122C54.1797 9.0122 55.7031 10.4575 55.7031 13.2505L55.7031 43.7583C55.7031 46.5513 54.1797 47.9966 51.5039 47.9966L7.67578 47.9966C4.94141 47.9966 3.45703 46.5513 3.45703 43.7583L3.45703 13.2505C3.45703 10.4575 4.94141 9.0122 7.67578 9.0122L14.4531 9.0122L14.4531 12.977C14.4531 14.5395 15.5469 14.9888 16.7969 14.1099L24.7266 8.56298C25.7617 7.82079 25.7812 6.74657 24.7266 6.00439L16.8164 0.457511C15.5469-0.440926 14.4531 0.00829228 14.4531 1.59032L14.4531 5.55517L7.59766 5.55517C2.55859 5.55517 0 8.0747 0 13.0747Z" fill="black" fill-opacity="0.85"/>
 </g>
</svg>
