<?xml version="1.0" encoding="UTF-8"?>
<!--Generator: Apple Native CoreSVG 326-->
<!DOCTYPE svg
PUBLIC "-//W3C//DTD SVG 1.1//EN"
       "http://www.w3.org/Graphics/SVG/1.1/DTD/svg11.dtd">
<svg version="1.1" xmlns="http://www.w3.org/2000/svg" xmlns:xlink="http://www.w3.org/1999/xlink" viewBox="0 0 51.25 50.918">
 <g>
  <rect height="50.918" opacity="0" width="51.25" x="0" y="0"/>
  <path d="M50.8789 25.4492C50.8789 39.4531 39.4531 50.8789 25.4297 50.8789C11.4258 50.8789 0 39.4531 0 25.4492C0 11.4258 11.4258 0 25.4297 0C39.4531 0 50.8789 11.4258 50.8789 25.4492ZM35.0781 15.7617L35.0781 35.1172C35.0781 35.9766 35.7031 36.582 36.5625 36.582C37.4609 36.582 38.0859 35.9766 38.0859 35.1172L38.0859 15.7617C38.0859 14.8828 37.4609 14.2773 36.5625 14.2773C35.7031 14.2773 35.0781 14.8828 35.0781 15.7617ZM20.8203 16.3867C20.8203 16.8164 20.957 17.2266 21.2891 17.5195L23.2812 19.4727L28.457 24.1797L23.7109 23.9648L11.2695 23.9648C10.3906 23.9648 9.76562 24.5898 9.76562 25.4492C9.76562 26.3672 10.3906 26.9922 11.2695 26.9922L23.7109 26.9922L28.4961 26.7188L23.3203 31.4062L21.2891 33.3398C20.957 33.6133 20.8203 33.9844 20.8203 34.4531C20.8203 35.332 21.4453 35.918 22.3047 35.918C22.7148 35.918 23.1836 35.7031 23.4961 35.3906L32.4414 26.582C32.793 26.25 32.9492 25.8594 32.9492 25.4492C32.9492 25.0391 32.7539 24.6484 32.4414 24.3164L23.4375 15.4297C23.125 15.0781 22.7344 14.9414 22.3242 14.9414C21.4844 14.9414 20.8203 15.5273 20.8203 16.3867Z" fill="black" fill-opacity="0.85"/>
 </g>
</svg>
