<?xml version="1.0" encoding="UTF-8"?>
<!--Generator: Apple Native CoreSVG 326-->
<!DOCTYPE svg
PUBLIC "-//W3C//DTD SVG 1.1//EN"
       "http://www.w3.org/Graphics/SVG/1.1/DTD/svg11.dtd">
<svg version="1.1" xmlns="http://www.w3.org/2000/svg" xmlns:xlink="http://www.w3.org/1999/xlink" viewBox="0 0 74.0088 52.168">
 <g>
  <rect height="52.168" opacity="0" width="74.0088" x="0" y="0"/>
  <path d="M1.04738 28.0859L22.1997 40.4688C23.7232 41.3672 25.5786 40.4883 25.5786 38.8672L25.5786 13.4375C25.5786 11.7969 23.7036 10.8789 22.1997 11.7578L1.04738 24.2969C-0.339343 25.1172-0.358874 27.2461 1.04738 28.0859ZM36.8091 52.168C37.6685 52.168 38.4107 51.5039 38.4107 50.6445L38.4107 1.58203C38.4107 0.722656 37.6685 0.0585938 36.8091 0.0585938C35.9693 0.0585938 35.2271 0.722656 35.2271 1.58203L35.2271 50.6445C35.2271 51.5039 35.9693 52.168 36.8091 52.168ZM72.5903 28.0859C73.9966 27.2461 73.9771 25.0977 72.5903 24.2969L51.438 11.7578C49.9341 10.8789 48.0591 11.7969 48.0591 13.4375L48.0591 38.8672C48.0591 40.4883 49.9146 41.3672 51.438 40.4688Z" fill="black" fill-opacity="0.85"/>
 </g>
</svg>
