<?xml version="1.0" encoding="UTF-8"?>
<!--Generator: Apple Native CoreSVG 326-->
<!DOCTYPE svg
PUBLIC "-//W3C//DTD SVG 1.1//EN"
       "http://www.w3.org/Graphics/SVG/1.1/DTD/svg11.dtd">
<svg version="1.1" xmlns="http://www.w3.org/2000/svg" xmlns:xlink="http://www.w3.org/1999/xlink" viewBox="0 0 59.5508 45.918">
 <g>
  <rect height="45.918" opacity="0" width="59.5508" x="0" y="0"/>
  <path d="M59.1797 7.53906L59.1797 38.3984C59.1797 43.3594 56.6211 45.918 51.5625 45.918L7.59766 45.918C2.55859 45.918 0 43.3984 0 38.3984L0 7.53906C0 2.53906 2.55859 0 7.59766 0L51.5625 0C56.6211 0 59.1797 2.55859 59.1797 7.53906ZM11.2695 20.8008C10.2148 20.8008 9.55078 21.4453 9.55078 22.4219C9.55078 23.418 10.2344 24.0625 11.3086 24.0625L16.3086 24.0625L20.0781 23.75L16.3867 27.2266L7.63672 35.9375C7.32422 36.2695 7.10938 36.6992 7.10938 37.1484C7.10938 38.1641 7.75391 38.8086 8.73047 38.8086C9.29688 38.8086 9.70703 38.6133 10.0391 38.3008L18.7305 29.5703L22.1875 25.918L21.875 30.0781L21.875 34.6484C21.875 35.7227 22.5391 36.3867 23.5352 36.3867C24.4922 36.3867 25.1562 35.6641 25.1562 34.6094L25.1562 22.6367C25.1562 21.3477 24.4336 20.8008 23.3203 20.8008Z" fill="black" fill-opacity="0.85"/>
 </g>
</svg>
