<?xml version="1.0" encoding="UTF-8"?>
<!--Generator: Apple Native CoreSVG 326-->
<!DOCTYPE svg
PUBLIC "-//W3C//DTD SVG 1.1//EN"
       "http://www.w3.org/Graphics/SVG/1.1/DTD/svg11.dtd">
<svg version="1.1" xmlns="http://www.w3.org/2000/svg" xmlns:xlink="http://www.w3.org/1999/xlink" viewBox="0 0 56.9531 51.9727">
 <g>
  <rect height="51.9727" opacity="0" width="56.9531" x="0" y="0"/>
  <path d="M10.7617 51.9531C14.0039 51.9531 20.5859 48.8477 25.625 45.3906C42.7539 46.2109 56.582 36.2891 56.582 22.7539C56.582 10.1758 44.0234 0 28.3008 0C12.5586 0 0 10.1758 0 22.7539C0 30.9766 5.27344 38.2617 13.2422 41.9922C12.1094 44.1797 10.0781 46.9141 8.96484 48.3398C7.67578 50 8.37891 51.9531 10.7617 51.9531ZM12.9102 48.3789C12.7148 48.4375 12.6367 48.3203 12.7734 48.1445C14.1211 46.5039 16.1523 43.9453 17.0508 42.168C17.6562 41.0547 17.4805 40.0586 16.1328 39.4336C8.22266 35.7617 3.55469 29.707 3.55469 22.7539C3.55469 12.1484 14.5312 3.55469 28.3008 3.55469C42.0508 3.55469 53.0273 12.1484 53.0273 22.7539C53.0273 33.3398 42.0508 41.9531 28.3008 41.9531C27.5977 41.9531 26.6992 41.9141 25.6055 41.8555C24.6875 41.8555 23.9453 42.1289 23.125 42.7539C19.7266 45.0391 15.1562 47.6562 12.9102 48.3789Z" fill="black" fill-opacity="0.85"/>
  <path d="M28.3203 35.5664C28.75 35.5664 29.1211 35.4102 29.5508 35L37.9102 26.8555C38.2422 26.5234 38.418 26.1914 38.418 25.7227C38.418 24.8438 37.7344 24.1992 36.8555 24.1992C36.4258 24.1992 35.9766 24.375 35.6836 24.7266L31.5234 29.082L29.8828 30.7812L30.0195 27.0898L30.0195 12.0117C30.0195 11.0938 29.2383 10.332 28.3203 10.332C27.3828 10.332 26.6016 11.0938 26.6016 12.0117L26.6016 27.0898L26.7383 30.8008L25.0781 29.082L20.9375 24.7266C20.625 24.375 20.1562 24.1992 19.7461 24.1992C18.8477 24.1992 18.1836 24.8438 18.1836 25.7227C18.1836 26.1914 18.3789 26.5234 18.6914 26.8555L27.0703 35C27.5 35.4102 27.8711 35.5664 28.3203 35.5664Z" fill="black" fill-opacity="0.85"/>
 </g>
</svg>
