<?xml version="1.0" encoding="UTF-8"?>
<!--Generator: Apple Native CoreSVG 326-->
<!DOCTYPE svg
PUBLIC "-//W3C//DTD SVG 1.1//EN"
       "http://www.w3.org/Graphics/SVG/1.1/DTD/svg11.dtd">
<svg version="1.1" xmlns="http://www.w3.org/2000/svg" xmlns:xlink="http://www.w3.org/1999/xlink" viewBox="0 0 51.25 50.918">
 <g>
  <rect height="50.918" opacity="0" width="51.25" x="0" y="0"/>
  <path d="M50.8789 25.4492C50.8789 39.4531 39.4531 50.8789 25.4297 50.8789C11.4258 50.8789 0 39.4531 0 25.4492C0 11.4258 11.4258 0 25.4297 0C39.4531 0 50.8789 11.4258 50.8789 25.4492ZM32.4023 16.0742L21.9141 26.5625L18.4766 30.2148L18.7695 26.0547L18.7695 20.8594C18.7695 19.7852 18.125 19.1211 17.1289 19.1211C16.1523 19.1211 15.5078 19.8438 15.5078 20.8984L15.5078 33.4961C15.5078 34.7852 16.2109 35.332 17.3438 35.332L30 35.332C31.0547 35.332 31.7383 34.6875 31.7383 33.6914C31.7383 32.7148 31.0352 32.0703 29.9609 32.0703L24.3555 32.0703L20.5859 32.3828L24.2773 28.9062L34.7852 18.418C35.1172 18.0859 35.332 17.6562 35.332 17.207C35.332 16.1914 34.668 15.5469 33.6914 15.5469C33.1445 15.5469 32.7344 15.7422 32.4023 16.0742Z" fill="black" fill-opacity="0.85"/>
 </g>
</svg>
