<?xml version="1.0" encoding="UTF-8"?>
<!--Generator: Apple Native CoreSVG 326-->
<!DOCTYPE svg
PUBLIC "-//W3C//DTD SVG 1.1//EN"
       "http://www.w3.org/Graphics/SVG/1.1/DTD/svg11.dtd">
<svg version="1.1" xmlns="http://www.w3.org/2000/svg" xmlns:xlink="http://www.w3.org/1999/xlink" viewBox="0 0 46.2891 45.918">
 <g>
  <rect height="45.918" opacity="0" width="46.2891" x="0" y="0"/>
  <path d="M7.59766 45.918L38.3008 45.918C43.3594 45.918 45.918 43.3594 45.918 38.3984L45.918 7.53906C45.918 2.55859 43.3594 0 38.3008 0L7.59766 0C2.55859 0 0 2.53906 0 7.53906L0 38.3984C0 43.3984 2.55859 45.918 7.59766 45.918ZM7.67578 42.4609C4.94141 42.4609 3.45703 41.0156 3.45703 38.2031L3.45703 7.71484C3.45703 4.92188 4.94141 3.45703 7.67578 3.45703L38.2422 3.45703C40.918 3.45703 42.4609 4.92188 42.4609 7.71484L42.4609 38.2031C42.4609 41.0156 40.918 42.4609 38.2422 42.4609Z" fill="black" fill-opacity="0.85"/>
  <path d="M11.875 24.1016C11.875 30.332 16.8164 35.293 22.9688 35.293C29.1406 35.293 34.0625 30.332 34.0625 24.1602C34.0625 23.3594 33.3594 22.6758 32.5586 22.6758C31.7383 22.6758 31.0352 23.3594 31.0352 24.1602C31.0352 28.6719 27.4609 32.2852 22.9688 32.2852C18.457 32.2852 14.8828 28.6719 14.8828 24.1602C14.8828 19.668 18.457 16.0938 22.9688 16.0938C23.4961 16.0938 24.0039 16.1328 24.4141 16.2305L21.4648 19.1406C21.1523 19.4336 21.0156 19.7852 21.0156 20.1953C21.0156 20.957 21.6211 21.582 22.4219 21.582C22.7734 21.582 23.1445 21.4062 23.3789 21.1719L28.3984 16.1133C28.9453 15.5664 28.9258 14.5703 28.3984 14.0039L23.457 8.96484C23.1836 8.67188 22.8125 8.49609 22.4023 8.49609C21.6016 8.49609 20.9961 9.12109 20.9961 9.90234C20.9961 10.293 21.1328 10.6641 21.3867 10.9375L23.6914 13.2617C23.3789 13.2227 22.9688 13.1641 22.5977 13.1641C16.875 13.1641 11.875 17.9688 11.875 24.1016Z" fill="black" fill-opacity="0.85"/>
 </g>
</svg>
