<?xml version="1.0" encoding="UTF-8"?>
<!--Generator: Apple Native CoreSVG 326-->
<!DOCTYPE svg
PUBLIC "-//W3C//DTD SVG 1.1//EN"
       "http://www.w3.org/Graphics/SVG/1.1/DTD/svg11.dtd">
<svg version="1.1" xmlns="http://www.w3.org/2000/svg" xmlns:xlink="http://www.w3.org/1999/xlink" viewBox="0 0 59.5508 45.918">
 <g>
  <rect height="45.918" opacity="0" width="59.5508" x="0" y="0"/>
  <path d="M7.59766 45.918L51.5625 45.918C56.6211 45.918 59.1797 43.3594 59.1797 38.3984L59.1797 7.53906C59.1797 2.55859 56.6211 0 51.5625 0L7.59766 0C2.55859 0 0 2.53906 0 7.53906L0 38.3984C0 43.3984 2.55859 45.918 7.59766 45.918ZM7.67578 42.4609C4.94141 42.4609 3.45703 41.0156 3.45703 38.2031L3.45703 7.71484C3.45703 4.92188 4.94141 3.45703 7.67578 3.45703L51.5039 3.45703C54.1797 3.45703 55.7031 4.92188 55.7031 7.71484L55.7031 38.2031C55.7031 41.0156 54.1797 42.4609 51.5039 42.4609Z" fill="black" fill-opacity="0.85"/>
  <path d="M23.3594 36.2109C24.2969 36.2109 24.9414 35.5078 24.9414 34.4922L24.9414 22.793C24.9414 21.543 24.2383 21.0156 23.1641 21.0156L11.3867 21.0156C10.3711 21.0156 9.72656 21.6406 9.72656 22.5977C9.72656 23.5547 10.3906 24.1797 11.4258 24.1797L16.3477 24.1797L20.0195 23.8672L16.4258 27.2461L7.85156 35.8203C7.53906 36.1328 7.32422 36.543 7.32422 36.9922C7.32422 37.9688 7.94922 38.5938 8.90625 38.5938C9.45312 38.5938 9.84375 38.3984 10.1562 38.1055L18.7109 29.5312L22.0508 25.9766L21.7578 30.0391L21.7578 34.5312C21.7578 35.5664 22.4023 36.2109 23.3594 36.2109Z" fill="black" fill-opacity="0.85"/>
 </g>
</svg>
