<?xml version="1.0" encoding="UTF-8"?>
<!--Generator: Apple Native CoreSVG 326-->
<!DOCTYPE svg
PUBLIC "-//W3C//DTD SVG 1.1//EN"
       "http://www.w3.org/Graphics/SVG/1.1/DTD/svg11.dtd">
<svg version="1.1" xmlns="http://www.w3.org/2000/svg" xmlns:xlink="http://www.w3.org/1999/xlink" viewBox="0 0 59.5508 45.918">
 <g>
  <rect height="45.918" opacity="0" width="59.5508" x="0" y="0"/>
  <path d="M59.1797 7.53906L59.1797 38.3984C59.1797 43.3594 56.6211 45.918 51.5625 45.918L7.59766 45.918C2.55859 45.918 0 43.3984 0 38.3984L0 7.53906C0 2.53906 2.55859 0 7.59766 0L51.5625 0C56.6211 0 59.1797 2.55859 59.1797 7.53906ZM49.1406 7.63672L40.4297 16.3477L36.9922 20.0195L37.2852 15.8398L37.2852 11.2695C37.2852 10.2148 36.6406 9.53125 35.6445 9.53125C34.668 9.53125 34.0234 10.2734 34.0234 11.3086L34.0234 23.2812C34.0234 24.5898 34.7266 25.1172 35.8594 25.1172L47.8906 25.1172C48.9453 25.1172 49.6289 24.4727 49.6289 23.4961C49.6289 22.5195 48.9258 21.8555 47.8516 21.8555L42.8711 21.8555L39.1016 22.168L42.793 18.7109L51.5234 9.96094C51.8555 9.66797 52.0703 9.21875 52.0703 8.78906C52.0703 7.75391 51.4258 7.10938 50.4297 7.10938C49.8828 7.10938 49.4727 7.30469 49.1406 7.63672Z" fill="black" fill-opacity="0.85"/>
 </g>
</svg>
