<?xml version="1.0" encoding="UTF-8"?>
<!--Generator: Apple Native CoreSVG 326-->
<!DOCTYPE svg
PUBLIC "-//W3C//DTD SVG 1.1//EN"
       "http://www.w3.org/Graphics/SVG/1.1/DTD/svg11.dtd">
<svg version="1.1" xmlns="http://www.w3.org/2000/svg" xmlns:xlink="http://www.w3.org/1999/xlink" viewBox="0 0 46.2891 46.543">
 <g>
  <rect height="46.543" opacity="0" width="46.2891" x="0" y="0"/>
  <path d="M7.59766 45.918L38.3008 45.918C43.3594 45.918 45.918 43.3594 45.918 38.3789L45.918 7.51953C45.918 2.55859 43.3594 0 38.3008 0L7.59766 0C2.55859 0 0 2.51953 0 7.51953L0 38.3789C0 43.3789 2.55859 45.918 7.59766 45.918ZM7.67578 42.4414C4.94141 42.4414 3.45703 40.9961 3.45703 38.2031L3.45703 7.71484C3.45703 4.90234 4.94141 3.45703 7.67578 3.45703L38.2422 3.45703C40.918 3.45703 42.4609 4.90234 42.4609 7.71484L42.4609 38.2031C42.4609 40.9961 40.918 42.4414 38.2422 42.4414Z" fill="black" fill-opacity="0.85"/>
  <path d="M10.1758 25.9766C10.1758 31.8164 14.4141 35.5078 20.1953 35.5078C20.6055 35.5078 23.6914 35.5078 23.8086 35.5078C24.7656 35.5078 25.4883 34.9414 25.4883 33.9453C25.4883 32.9492 24.7656 32.4023 23.8477 32.4023C23.75 32.4023 20.6055 32.4023 20.1953 32.4023C16.2109 32.4023 13.3594 29.8633 13.3594 25.8203C13.3594 21.8555 16.2695 19.5898 20.1758 19.5898L28.3008 19.5898L31.2109 19.4727L29.8047 20.5469L26.2305 24.0039C25.918 24.2969 25.7422 24.707 25.7422 25.1367C25.7422 26.0352 26.4062 26.7188 27.2852 26.7188C27.7539 26.7188 28.1055 26.5625 28.418 26.2695L35.1172 19.3945C35.4883 19.0234 35.7227 18.5742 35.7227 18.0469C35.7227 17.5195 35.4883 17.0508 35.1172 16.6797L28.4375 9.88281C28.125 9.55078 27.7734 9.39453 27.3047 9.39453C26.4062 9.39453 25.7422 10.0781 25.7422 10.9766C25.7422 11.4453 25.957 11.8359 26.25 12.1289L29.375 15.1758L31.2109 16.6211L28.3008 16.543L20.1758 16.543C14.3945 16.543 10.1758 20.1367 10.1758 25.9766Z" fill="black" fill-opacity="0.85"/>
 </g>
</svg>
