<?xml version="1.0" encoding="UTF-8"?>
<!--Generator: Apple Native CoreSVG 326-->
<!DOCTYPE svg
PUBLIC "-//W3C//DTD SVG 1.1//EN"
       "http://www.w3.org/Graphics/SVG/1.1/DTD/svg11.dtd">
<svg version="1.1" xmlns="http://www.w3.org/2000/svg" xmlns:xlink="http://www.w3.org/1999/xlink" viewBox="0 0 48.2619 58.7305">
 <g>
  <rect height="58.7305" opacity="0" width="48.2619" x="0" y="0"/>
  <path d="M47.2657 45.3516C48.1251 44.5312 48.086 43.2812 47.2657 42.4805L34.3165 29.7266C33.9259 29.3359 33.379 29.1016 32.8712 29.1016C31.7384 29.1016 30.9766 29.8828 30.9766 30.9961C30.9766 31.543 31.172 31.9727 31.5431 32.3633L37.2462 37.9102L42.0509 42.207L36.3673 42.0117L1.91415 42.0117C0.820396 42.0117 8.32083e-05 42.793 8.32083e-05 43.9258C8.32083e-05 45.0391 0.820396 45.8203 1.91415 45.8203L36.3673 45.8203L42.0509 45.625L37.2462 49.9219L31.5431 55.4688C31.172 55.8594 30.9766 56.2891 30.9766 56.8359C30.9766 57.9492 31.7384 58.7305 32.8712 58.7305C33.379 58.7305 33.9259 58.4961 34.3165 58.1055Z" fill="black" fill-opacity="0.85"/>
  <path d="M0.644614 13.3984C-0.234292 14.2188-0.195229 15.4688 0.644614 16.25L13.5938 29.0039C13.9845 29.3945 14.5313 29.6289 15.0391 29.6289C16.1524 29.6289 16.9141 28.8477 16.9141 27.7344C16.9141 27.1875 16.7384 26.7578 16.3477 26.3867L10.6641 20.8203L5.83993 16.5234L11.5431 16.7188L45.9766 16.7188C47.0704 16.7188 47.8907 15.9375 47.8907 14.8242C47.8907 13.7109 47.0704 12.9102 45.9766 12.9102L11.5431 12.9102L5.83993 13.1055L10.6641 8.80859L16.3477 3.26172C16.7384 2.87109 16.9141 2.44141 16.9141 1.89453C16.9141 0.800781 16.1524 0 15.0391 0C14.5313 0 13.9845 0.253906 13.5938 0.644531Z" fill="black" fill-opacity="0.85"/>
 </g>
</svg>
