<?xml version="1.0" encoding="UTF-8"?>
<!--Generator: Apple Native CoreSVG 326-->
<!DOCTYPE svg
PUBLIC "-//W3C//DTD SVG 1.1//EN"
       "http://www.w3.org/Graphics/SVG/1.1/DTD/svg11.dtd">
<svg version="1.1" xmlns="http://www.w3.org/2000/svg" xmlns:xlink="http://www.w3.org/1999/xlink" viewBox="0 0 44.5117 39.1602">
 <g>
  <rect height="39.1602" opacity="0" width="44.5117" x="0" y="0"/>
  <path d="M0 19.0625C0 20.1953 0.761719 20.9766 1.89453 20.9766L29.1406 20.9766L34.5703 20.8203L26.8555 27.9492L20.1367 34.707C19.7852 35.0586 19.5898 35.5859 19.5898 36.1133C19.5898 37.1875 20.3906 37.9688 21.4648 37.9688C22.0117 37.9688 22.4805 37.7344 22.9492 37.2852L39.7461 20.5078C40.1562 20.0977 40.3906 19.6094 40.3906 19.0625C40.3906 18.5352 40.1562 18.0469 39.7461 17.6367L22.9492 0.839844C22.4805 0.390625 22.0117 0.15625 21.4648 0.15625C20.3906 0.15625 19.5898 0.957031 19.5898 2.03125C19.5898 2.53906 19.7852 3.06641 20.1367 3.4375L26.8555 10.1953L34.5508 17.3242L29.1406 17.168L1.89453 17.168C0.761719 17.168 0 17.9492 0 19.0625ZM40.332 36.2891C40.332 37.3828 41.1328 38.1445 42.2461 38.1445C43.3594 38.1445 44.1406 37.3828 44.1406 36.2891L44.1406 1.89453C44.1406 0.78125 43.3594 0 42.2461 0C41.1328 0 40.332 0.78125 40.332 1.89453Z" fill="black" fill-opacity="0.85"/>
 </g>
</svg>
