<?xml version="1.0" encoding="UTF-8"?>
<!--Generator: Apple Native CoreSVG 326-->
<!DOCTYPE svg
PUBLIC "-//W3C//DTD SVG 1.1//EN"
       "http://www.w3.org/Graphics/SVG/1.1/DTD/svg11.dtd">
<svg version="1.1" xmlns="http://www.w3.org/2000/svg" xmlns:xlink="http://www.w3.org/1999/xlink" viewBox="0 0 37.3438 37.0117">
 <g>
  <rect height="37.0117" opacity="0" width="37.3438" x="0" y="0"/>
  <path d="M36.9727 27.7539L36.9336 2.12891C36.9336 0.917969 36.1328 0.078125 34.8828 0.078125L9.23828 0.078125C8.04688 0.078125 7.22656 0.976562 7.22656 1.99219C7.22656 3.02734 8.14453 3.88672 9.16016 3.88672L19.2969 3.88672L31.1523 3.55469L26.6211 7.61719L0.585938 33.6719C0.195312 34.0625 0 34.5703 0 35.0195C0 36.0352 0.917969 37.0117 1.99219 37.0117C2.46094 37.0117 2.92969 36.8164 3.32031 36.4258L29.375 10.3711L33.4766 5.83984L33.1055 16.7383L33.1055 27.832C33.1055 28.8477 33.9648 29.7852 35.0195 29.7852C36.0742 29.7852 36.9727 28.9062 36.9727 27.7539Z" fill="black" fill-opacity="0.85"/>
 </g>
</svg>
