<?xml version="1.0" encoding="UTF-8"?>
<!--Generator: Apple Native CoreSVG 326-->
<!DOCTYPE svg
PUBLIC "-//W3C//DTD SVG 1.1//EN"
       "http://www.w3.org/Graphics/SVG/1.1/DTD/svg11.dtd">
<svg version="1.1" xmlns="http://www.w3.org/2000/svg" xmlns:xlink="http://www.w3.org/1999/xlink" viewBox="0 0 42.3047 53.8477">
 <g>
  <rect height="53.8477" opacity="0" width="42.3047" x="0" y="0"/>
  <path d="M7.51953 53.8477L34.4141 53.8477C39.4141 53.8477 41.9336 51.2695 41.9336 46.25L41.9336 22.8711C41.9336 19.9609 41.582 18.6914 39.7656 16.8555L25.293 2.1875C23.5742 0.410156 22.168 0.0195312 19.5703 0.0195312L7.51953 0.0195312C2.55859 0.0195312 0 2.57812 0 7.61719L0 46.25C0 51.2891 2.51953 53.8477 7.51953 53.8477ZM7.69531 50.3906C4.90234 50.3906 3.45703 48.9062 3.45703 46.1719L3.45703 7.69531C3.45703 5.01953 4.90234 3.47656 7.71484 3.47656L19.2773 3.47656L19.2773 18.4375C19.2773 21.4258 20.7812 22.8711 23.7109 22.8711L38.4766 22.8711L38.4766 46.1719C38.4766 48.9062 37.0312 50.3906 34.2188 50.3906ZM24.082 19.6094C22.9883 19.6094 22.5391 19.1797 22.5391 18.0664L22.5391 4.16016L37.793 19.6094Z" fill="black" fill-opacity="0.85"/>
  <path d="M22.6172 45.1953L22.6172 35.0781L22.4805 30.6836L25.332 33.5938L27.5586 35.8594C27.8516 36.1914 28.2812 36.3672 28.7109 36.3672C29.5898 36.3672 30.2539 35.7422 30.2539 34.8438C30.2539 34.3164 30 33.9453 29.6484 33.6328L22.1875 26.6016C21.7383 26.2109 21.3867 26.0547 20.9766 26.0547C20.5469 26.0547 20.1953 26.2109 19.7461 26.6016L12.2852 33.6328C11.9336 33.9453 11.6797 34.3164 11.6797 34.8438C11.6797 35.7422 12.3242 36.3672 13.2227 36.3672C13.6328 36.3672 14.082 36.1914 14.375 35.8594L16.6016 33.5938L19.4531 30.6836L19.3164 35.0781L19.3164 45.1953C19.3164 46.0742 20.0781 46.8164 20.9766 46.8164C21.8555 46.8164 22.6172 46.0742 22.6172 45.1953Z" fill="black" fill-opacity="0.85"/>
 </g>
</svg>
