<?xml version="1.0" encoding="UTF-8"?>
<!--Generator: Apple Native CoreSVG 326-->
<!DOCTYPE svg
PUBLIC "-//W3C//DTD SVG 1.1//EN"
       "http://www.w3.org/Graphics/SVG/1.1/DTD/svg11.dtd">
<svg version="1.1" xmlns="http://www.w3.org/2000/svg" xmlns:xlink="http://www.w3.org/1999/xlink" viewBox="0 0 45.9457 47.8711">
 <g>
  <rect height="47.8711" opacity="0" width="45.9457" x="0" y="0"/>
  <path d="M22.7873 47.8711C23.9787 47.8711 24.6428 47.0898 24.6428 45.6445L24.6623 30.6055C24.6623 24.707 31.1467 15.8789 37.7678 11.6016L39.7209 10.3516C40.3264 9.96094 40.6584 9.31641 40.6584 8.67188C40.6584 7.61719 39.9358 6.89453 38.842 6.89453C38.2951 6.89453 37.7287 7.07031 37.2209 7.40234L35.8147 8.33984C29.2912 12.6953 23.5686 20.5469 22.8459 24.5508L22.7483 24.5508C22.0061 20.5273 16.3029 12.6953 9.75998 8.33984L8.37326 7.40234C7.84592 7.07031 7.27951 6.89453 6.73264 6.89453C5.63889 6.89453 4.91623 7.67578 4.91623 8.65234C4.91623 9.29688 5.26779 9.96094 5.87326 10.3516L7.80686 11.6016C14.4475 15.8789 20.9319 24.707 20.9319 30.6055L20.9319 45.6445C20.9319 47.0898 21.5959 47.8711 22.7873 47.8711ZM5.58029 14.9414L12.4748 5.89844C13.4319 4.64844 12.8459 3.63281 11.3225 3.57422L1.65451 3.18359C0.384981 3.125-0.279082 3.96484 0.111543 5.21484L3.0217 14.3945C3.49045 15.8984 4.62326 16.2109 5.58029 14.9414ZM39.76 14.9219C40.6975 16.2109 41.8498 15.918 42.3381 14.4531L45.4631 5.3125C45.8733 4.10156 45.2287 3.24219 43.9592 3.26172L34.2912 3.4375C32.7678 3.4375 32.1428 4.45312 33.0803 5.72266Z" fill="black" fill-opacity="0.85"/>
 </g>
</svg>
