<?xml version="1.0" encoding="UTF-8"?>
<!--Generator: Apple Native CoreSVG 326-->
<!DOCTYPE svg
PUBLIC "-//W3C//DTD SVG 1.1//EN"
       "http://www.w3.org/Graphics/SVG/1.1/DTD/svg11.dtd">
<svg version="1.1" xmlns="http://www.w3.org/2000/svg" xmlns:xlink="http://www.w3.org/1999/xlink" viewBox="0 0 51.25 50.918">
 <g>
  <rect height="50.918" opacity="0" width="51.25" x="0" y="0"/>
  <path d="M25.4297 50.8789C39.4727 50.8789 50.8789 39.4922 50.8789 25.4492C50.8789 11.4062 39.4727 0 25.4297 0C11.3867 0 0 11.4062 0 25.4492C0 39.4922 11.3867 50.8789 25.4297 50.8789ZM25.4297 47.2461C13.3789 47.2461 3.63281 37.5 3.63281 25.4492C3.63281 13.3984 13.3789 3.65234 25.4297 3.65234C37.4805 3.65234 47.2266 13.3984 47.2266 25.4492C47.2266 37.5 37.4805 47.2461 25.4297 47.2461Z" fill="black" fill-opacity="0.85"/>
  <path d="M12.6367 28.4961C12.6367 34.3359 16.8555 38.0078 22.6562 38.0078C23.0469 38.0078 26.1328 38.0078 26.25 38.0078C27.207 38.0078 27.9297 37.4609 27.9297 36.4648C27.9297 35.4688 27.207 34.9023 26.2891 34.9023C26.1914 34.9023 23.0469 34.9023 22.6562 34.9023C18.6523 34.9023 15.8203 32.3633 15.8203 28.3398C15.8203 24.375 18.7109 22.0898 22.6367 22.0898L30.7422 22.0898L33.6523 21.9922L32.2461 23.0469L28.6719 26.5039C28.3594 26.8164 28.1836 27.2266 28.1836 27.6562C28.1836 28.5547 28.8672 29.2383 29.7266 29.2383C30.1953 29.2383 30.5469 29.082 30.8594 28.7695L37.5781 21.9141C37.9492 21.543 38.1641 21.0938 38.1641 20.5664C38.1641 20.0391 37.9492 19.5508 37.5781 19.1797L30.8789 12.3828C30.5664 12.0508 30.2148 11.8945 29.7461 11.8945C28.8672 11.8945 28.1836 12.5977 28.1836 13.4961C28.1836 13.9453 28.3984 14.3555 28.6914 14.6289L31.8359 17.6953L33.6523 19.1211L30.7422 19.043L22.6367 19.043C16.8359 19.043 12.6367 22.6562 12.6367 28.4961Z" fill="black" fill-opacity="0.85"/>
 </g>
</svg>
