<?xml version="1.0" encoding="UTF-8"?>
<!--Generator: Apple Native CoreSVG 326-->
<!DOCTYPE svg
PUBLIC "-//W3C//DTD SVG 1.1//EN"
       "http://www.w3.org/Graphics/SVG/1.1/DTD/svg11.dtd">
<svg version="1.1" xmlns="http://www.w3.org/2000/svg" xmlns:xlink="http://www.w3.org/1999/xlink" viewBox="0 0 46.2891 45.918">
 <g>
  <rect height="45.918" opacity="0" width="46.2891" x="0" y="0"/>
  <path d="M45.918 7.53906L45.918 38.3984C45.918 43.3594 43.3594 45.918 38.3008 45.918L7.59766 45.918C2.55859 45.918 0 43.3984 0 38.3984L0 7.53906C0 2.53906 2.55859 0 7.59766 0L38.3008 0C43.3594 0 45.918 2.55859 45.918 7.53906ZM26.9727 19.1016C26.6016 19.1016 26.1719 19.2969 25.8984 19.5703C25.293 20.1758 25.293 20.9961 25.8789 21.6016C26.1914 21.875 26.543 22.0312 26.9336 22.0312L31.1133 21.9727L33.0273 21.9336L31.9336 22.9297L19.4922 35.3516C18.9062 35.957 18.9062 36.8164 19.5117 37.4219C20.0977 38.0078 20.9766 38.0273 21.5625 37.4219L34.0039 25.0195L35.0195 23.9258L34.9609 25.8008L34.9023 29.9609C34.9023 30.3906 35.0391 30.7422 35.332 31.0547C35.918 31.6406 36.7773 31.6406 37.3828 31.0547C37.6367 30.8008 37.7734 30.3711 37.793 29.9414L37.8711 20.5664C37.8711 19.6875 37.1875 19.0625 36.3672 19.0625ZM24.4141 8.51562L11.9727 20.9375L10.9961 22.0117L11.0547 20.1367L11.0938 15.9961C11.1133 15.5859 10.9375 15.1953 10.6445 14.9219C10.0586 14.3164 9.19922 14.3164 8.61328 14.9219C8.33984 15.1758 8.16406 15.625 8.16406 16.0156L8.08594 25.3711C8.08594 26.2109 8.80859 26.9336 9.62891 26.9141L19.0234 26.8555C19.4336 26.8359 19.8047 26.6602 20.0781 26.3867C20.6836 25.8203 20.6836 24.9609 20.0977 24.375C19.8047 24.0625 19.4531 23.9258 19.0234 23.9258L14.8828 23.9844L12.9688 24.0234L14.0625 23.0273L26.4844 10.6055C27.0703 10 27.0703 9.12109 26.4844 8.53516C25.8984 7.94922 25.0195 7.92969 24.4141 8.51562Z" fill="black" fill-opacity="0.85"/>
 </g>
</svg>
