<?xml version="1.0" encoding="UTF-8"?>
<!--Generator: Apple Native CoreSVG 326-->
<!DOCTYPE svg
PUBLIC "-//W3C//DTD SVG 1.1//EN"
       "http://www.w3.org/Graphics/SVG/1.1/DTD/svg11.dtd">
<svg version="1.1" xmlns="http://www.w3.org/2000/svg" xmlns:xlink="http://www.w3.org/1999/xlink" viewBox="0 0 74.6875 47.8711">
 <g>
  <rect height="47.8711" opacity="0" width="74.6875" x="0" y="0"/>
  <path d="M37.168 47.8711C38.2617 47.8711 39.0625 47.0898 39.0625 45.9766L39.0625 1.85547C39.0625 0.78125 38.2617 0.0195312 37.168 0.0195312C36.0547 0.0195312 35.2539 0.78125 35.2539 1.85547L35.2539 45.9766C35.2539 47.0898 36.0547 47.8711 37.168 47.8711Z" fill="black" fill-opacity="0.85"/>
  <path d="M0 23.9258C0 25.0586 0.761719 25.8398 1.89453 25.8398L19.4141 25.8398L24.5508 25.7031L15.8594 34.1211C15.4883 34.4727 15.3125 35 15.3125 35.5273C15.3125 36.6016 16.1328 37.3828 17.1875 37.3828C17.7344 37.3828 18.2227 37.1484 18.6719 36.6992L30.0195 25.3711C30.4297 24.9609 30.6836 24.4531 30.6836 23.9258C30.6836 23.3984 30.4297 22.9102 30.0195 22.5L18.6719 11.1523C18.2227 10.7031 17.7344 10.4688 17.1875 10.4688C16.1328 10.4688 15.3125 11.25 15.3125 12.3242C15.3125 12.8516 15.4883 13.3789 15.8594 13.7305L24.5508 22.168L19.4141 22.0312L1.89453 22.0312C0.761719 22.0312 0 22.8125 0 23.9258ZM74.3164 23.9258C74.3164 22.8125 73.5547 22.0312 72.4219 22.0312L54.9023 22.0312L49.7656 22.168L58.457 13.7305C58.8281 13.3789 59.0039 12.8516 59.0039 12.3242C59.0039 11.25 58.2031 10.4688 57.1289 10.4688C56.582 10.4688 56.0938 10.7031 55.6445 11.1523L44.2969 22.5C43.8867 22.9102 43.6328 23.3984 43.6328 23.9258C43.6328 24.4531 43.8867 24.9609 44.2969 25.3711L55.6445 36.6992C56.0938 37.1484 56.582 37.3828 57.1289 37.3828C58.2031 37.3828 59.0039 36.6016 59.0039 35.5273C59.0039 35 58.8281 34.4727 58.457 34.1211L49.7656 25.7031L54.9023 25.8398L72.4219 25.8398C73.5547 25.8398 74.3164 25.0586 74.3164 23.9258Z" fill="black" fill-opacity="0.85"/>
 </g>
</svg>
