<?xml version="1.0" encoding="UTF-8"?>
<!--Generator: Apple Native CoreSVG 326-->
<!DOCTYPE svg
PUBLIC "-//W3C//DTD SVG 1.1//EN"
       "http://www.w3.org/Graphics/SVG/1.1/DTD/svg11.dtd">
<svg version="1.1" xmlns="http://www.w3.org/2000/svg" xmlns:xlink="http://www.w3.org/1999/xlink" viewBox="0 0 51.25 51.4648">
 <g>
  <rect height="51.4648" opacity="0" width="51.25" x="0" y="0"/>
  <path d="M50.8789 25.4297C50.8789 39.4531 39.4531 50.8594 25.4297 50.8594C11.4258 50.8594 0 39.4531 0 25.4297C0 11.4062 11.4258 0 25.4297 0C39.4531 0 50.8789 11.4062 50.8789 25.4297ZM18.9062 22.4609L18.9062 30.3516L19.0039 32.9102L17.7734 31.3477L14.8047 28.3008C14.5117 27.9688 14.082 27.7734 13.6328 27.7734C12.7148 27.7734 11.9531 28.4766 11.9531 29.4141C11.9531 29.9023 12.1094 30.2734 12.4609 30.5859L19.082 37.1484C19.4922 37.5391 20 37.7344 20.5078 37.7344C21.0156 37.7344 21.4844 37.5586 21.9141 37.1484L28.6133 30.5664C28.9258 30.2734 29.082 29.8828 29.082 29.3945C29.082 28.4766 28.3594 27.7734 27.4219 27.7734C26.9336 27.7734 26.5234 27.9688 26.2109 28.3008L22.8711 31.7383L22.0312 32.8906L22.1289 30.3516L22.1289 22.4609C22.1289 18.4961 24.5117 15.8789 28.0859 15.8789C31.875 15.8789 34.3945 18.5352 34.3945 22.4805L34.3945 26.0352C34.3945 27.0508 35.0586 27.7344 36.0156 27.7344C36.9922 27.7344 37.6367 27.0312 37.6367 25.9961L37.6367 22.4805C37.6367 16.6016 33.8477 12.6367 28.0859 12.6367C22.5586 12.6367 18.9062 16.582 18.9062 22.4609Z" fill="black" fill-opacity="0.85"/>
 </g>
</svg>
