<?xml version="1.0" encoding="UTF-8"?>
<!--Generator: Apple Native CoreSVG 326-->
<!DOCTYPE svg
PUBLIC "-//W3C//DTD SVG 1.1//EN"
       "http://www.w3.org/Graphics/SVG/1.1/DTD/svg11.dtd">
<svg version="1.1" xmlns="http://www.w3.org/2000/svg" xmlns:xlink="http://www.w3.org/1999/xlink" viewBox="0 0 46.2891 45.918">
 <g>
  <rect height="45.918" opacity="0" width="46.2891" x="0" y="0"/>
  <path d="M45.918 7.53906L45.918 38.3984C45.918 43.3594 43.3594 45.918 38.3008 45.918L7.59766 45.918C2.55859 45.918 0 43.3984 0 38.3984L0 7.53906C0 2.53906 2.55859 0 7.59766 0L38.3008 0C43.3594 0 45.918 2.55859 45.918 7.53906ZM32.8711 13.2812L32.8711 32.6367C32.8711 33.4961 33.4961 34.1211 34.3359 34.1211C35.2344 34.1211 35.8789 33.4961 35.8789 32.6367L35.8789 13.2812C35.8789 12.4023 35.2344 11.7969 34.3359 11.7969C33.4961 11.7969 32.8711 12.4023 32.8711 13.2812ZM18.6133 13.9062C18.6133 14.3359 18.75 14.7461 19.082 15.0586L21.0742 17.0117L26.25 21.6992L21.5039 21.4844L9.0625 21.4844C8.16406 21.4844 7.53906 22.1094 7.53906 22.9688C7.53906 23.8867 8.16406 24.5117 9.0625 24.5117L21.5039 24.5117L26.2695 24.2383L21.1133 28.9453L19.082 30.8594C18.75 31.1328 18.6133 31.5039 18.6133 31.9922C18.6133 32.8516 19.2188 33.457 20.0977 33.457C20.4883 33.457 20.957 33.2227 21.2695 32.9102L30.2148 24.1016C30.5664 23.7891 30.7422 23.3984 30.7422 22.9688C30.7422 22.5586 30.5273 22.168 30.2148 21.8359L21.2305 12.9492C20.918 12.5977 20.5078 12.4609 20.0977 12.4609C19.2578 12.4609 18.6133 13.0469 18.6133 13.9062Z" fill="black" fill-opacity="0.85"/>
 </g>
</svg>
