<?xml version="1.0" encoding="UTF-8"?>
<!--Generator: Apple Native CoreSVG 326-->
<!DOCTYPE svg
PUBLIC "-//W3C//DTD SVG 1.1//EN"
       "http://www.w3.org/Graphics/SVG/1.1/DTD/svg11.dtd">
<svg version="1.1" xmlns="http://www.w3.org/2000/svg" xmlns:xlink="http://www.w3.org/1999/xlink" viewBox="0 0 42.0569 53.7305">
 <g>
  <rect height="53.7305" opacity="0" width="42.0569" x="0" y="0"/>
  <path d="M20.8332 0C11.673 0 5.63784 6.03516 5.63784 15.2344L5.63784 20.2734C5.63784 21.25 6.39956 22.0117 7.35659 22.0117C8.33315 22.0117 9.09487 21.25 9.09487 20.2734L9.09487 15.2344C9.09487 8.20312 13.8214 3.45703 20.8332 3.45703C27.8644 3.45703 32.63 8.20312 32.63 15.2344L32.63 38.457C32.63 45.4688 27.8644 50.2148 20.8332 50.2148C13.8214 50.2148 9.09487 45.4688 9.09487 38.457L9.09487 35.3125L5.63784 35.3125L5.63784 38.457C5.63784 47.6367 11.673 53.6719 20.8332 53.6719C30.0324 53.6719 36.0871 47.6367 36.0871 38.457L36.0871 15.2344C36.0871 6.03516 30.0324 0 20.8332 0ZM1.59487 37.9102L12.9816 37.9102C14.5636 37.9102 15.0128 36.8164 14.1144 35.5664L8.56753 27.6367C7.84487 26.6016 6.77065 26.582 6.02847 27.6367L0.462059 35.5469C-0.436378 36.8164-0.006691 37.9102 1.59487 37.9102Z" fill="black" fill-opacity="0.85"/>
 </g>
</svg>
