<?xml version="1.0" encoding="UTF-8"?>
<!--Generator: Apple Native CoreSVG 326-->
<!DOCTYPE svg
PUBLIC "-//W3C//DTD SVG 1.1//EN"
       "http://www.w3.org/Graphics/SVG/1.1/DTD/svg11.dtd">
<svg version="1.1" xmlns="http://www.w3.org/2000/svg" xmlns:xlink="http://www.w3.org/1999/xlink" viewBox="0 0 60.7031 45.957">
 <g>
  <rect height="45.957" opacity="0" width="60.7031" x="0" y="0"/>
  <path d="M17.0508 45.957L43.2812 45.957C48.0664 45.957 50.2148 43.6328 50.9375 38.8672L55.0195 11.5039L51.5625 11.6992L47.5 38.8086C47.1094 41.5234 45.6836 42.6953 43.2031 42.6953L17.1289 42.6953C14.5898 42.6953 13.2227 41.5234 12.832 38.8086L8.76953 11.6992L5.3125 11.5039L9.39453 38.8672C10.1172 43.6719 12.2656 45.957 17.0508 45.957ZM4.49219 13.2812L55.8398 13.2812C58.7305 13.2812 60.332 11.4453 60.332 8.59375L60.332 4.74609C60.332 1.875 58.7305 0.0585938 55.8398 0.0585938L4.49219 0.0585938C1.71875 0.0585938 0 1.875 0 4.74609L0 8.59375C0 11.4453 1.60156 13.2812 4.49219 13.2812ZM5.29297 10.0195C4.02344 10.0195 3.45703 9.41406 3.45703 8.125L3.45703 5.19531C3.45703 3.92578 4.02344 3.32031 5.29297 3.32031L55.0586 3.32031C56.3281 3.32031 56.875 3.92578 56.875 5.19531L56.875 8.125C56.875 9.41406 56.3281 10.0195 55.0586 10.0195Z" fill="black" fill-opacity="0.85"/>
  <path d="M31.875 36.2109L31.875 26.2305L31.7383 21.8164L34.5898 24.7461L36.6992 26.8945C36.9922 27.207 37.4219 27.3828 37.8516 27.3828C38.7109 27.3828 39.375 26.7578 39.375 25.8789C39.375 25.332 39.1406 24.9609 38.7695 24.6484L31.4453 17.7539C30.9961 17.3438 30.6445 17.1875 30.2344 17.1875C29.8047 17.1875 29.4531 17.3438 29.0039 17.7539L21.6797 24.6484C21.3086 24.9609 21.0742 25.332 21.0742 25.8789C21.0742 26.7578 21.7188 27.3828 22.5977 27.3828C23.0078 27.3828 23.457 27.207 23.75 26.8945L25.8594 24.7461L28.7109 21.8164L28.5742 26.2305L28.5742 36.2109C28.5742 37.1094 29.3359 37.832 30.2344 37.832C31.1133 37.832 31.875 37.1094 31.875 36.2109Z" fill="black" fill-opacity="0.85"/>
 </g>
</svg>
