<?xml version="1.0" encoding="UTF-8"?>
<!--Generator: Apple Native CoreSVG 326-->
<!DOCTYPE svg
PUBLIC "-//W3C//DTD SVG 1.1//EN"
       "http://www.w3.org/Graphics/SVG/1.1/DTD/svg11.dtd">
<svg version="1.1" xmlns="http://www.w3.org/2000/svg" xmlns:xlink="http://www.w3.org/1999/xlink" viewBox="0 0 62.7734 46.6992">
 <g>
  <rect height="46.6992" opacity="0" width="62.7734" x="0" y="0"/>
  <path d="M49.1602 42.9492C56.6016 42.9492 62.4023 37.5781 62.4023 30.8203C62.4023 25.6445 59.4727 21.1133 54.5117 19.1602C54.6484 8.06641 46.7188 0 36.6016 0C29.7461 0 24.9609 3.71094 22.0703 8.18359C15.9766 6.21094 9.25781 10.8984 9.17969 17.8906C3.57422 18.6719 0 23.5742 0 29.6484C0 36.9336 6.32812 42.9297 14.7461 42.9297ZM49.1406 39.4922L14.7266 39.4727C8.26172 39.4727 3.45703 35 3.45703 29.6484C3.45703 24.5703 6.52344 20.5859 11.875 20.5859C12.1875 20.5859 12.3242 20.4102 12.3242 20.0977C12.3242 12.5586 17.9297 9.92188 23.1641 11.7578C23.457 11.8555 23.6328 11.7969 23.7891 11.5234C26.25 7.14844 30.0391 3.45703 36.6016 3.45703C44.8438 3.45703 50.6836 10 51.1523 17.7148C51.2305 18.7891 51.1523 20.0586 51.0742 21.1914C51.0547 21.4844 51.1719 21.6797 51.4453 21.7383C56.0156 22.8125 58.9453 26.25 58.9453 30.8203C58.9453 35.6836 54.668 39.4922 49.1406 39.4922Z" fill="black" fill-opacity="0.85"/>
  <path d="M32.6172 34.6875C38.1641 34.6875 42.5781 30.2344 42.5781 24.668C42.5781 23.9258 41.9727 23.3398 41.2305 23.3398C40.4883 23.3398 39.8828 23.9258 39.8828 24.668C39.8828 28.7109 36.6406 31.9727 32.6172 31.9727C28.5742 31.9727 25.332 28.7305 25.332 24.668C25.332 21.25 27.6758 18.4375 30.8398 17.6367L30.8398 20.8398C30.8398 21.7969 31.875 22.168 32.5977 21.543L37.3828 17.5C38.0859 16.8945 38.0664 15.9961 37.3828 15.4297L32.5977 11.4453C31.875 10.8398 30.8398 11.1719 30.8398 12.1484L30.8398 14.9023C26.3281 15.625 22.6172 19.6094 22.6172 24.6094C22.6172 30.2344 27.0508 34.6875 32.6172 34.6875Z" fill="black" fill-opacity="0.85"/>
 </g>
</svg>
