<?xml version="1.0" encoding="UTF-8"?>
<!--Generator: Apple Native CoreSVG 326-->
<!DOCTYPE svg
PUBLIC "-//W3C//DTD SVG 1.1//EN"
       "http://www.w3.org/Graphics/SVG/1.1/DTD/svg11.dtd">
<svg version="1.1" xmlns="http://www.w3.org/2000/svg" xmlns:xlink="http://www.w3.org/1999/xlink" viewBox="0 0 48.793 44.8682">
 <g>
  <rect height="44.8682" opacity="0" width="48.793" x="0" y="0"/>
  <path d="M5.39261 33.3423L9.18167 33.3423L9.18167 12.6001C9.18167 8.14699 11.8575 5.2173 15.6856 5.2173C19.5137 5.2173 22.3067 8.06886 22.3067 12.6001L22.3067 29.9048C22.3067 36.8189 26.6426 41.3306 32.7364 41.3306C38.8496 41.3306 43.0293 36.8189 43.0293 29.9048L43.0293 9.2798L39.2403 9.2798L39.2403 30.1392C39.2403 34.5923 36.584 37.522 32.7364 37.522C28.9082 37.522 26.1153 34.69 26.1153 30.1392L26.1153 12.8345C26.1153 5.92043 21.7793 1.42824 15.6856 1.42824C9.57229 1.42824 5.39261 5.92043 5.39261 12.8345ZM1.60354 31.7017C0.00198146 31.7017-0.447237 32.7954 0.470731 34.065L6.01761 41.9556C6.75979 43.0298 7.83401 43.0103 8.55667 41.9556L14.1035 34.0454C14.9825 32.7954 14.5528 31.7017 12.9707 31.7017ZM35.4512 11.0376L46.8379 11.0376C48.4004 11.0376 48.8496 9.94386 47.9707 8.69386L42.4239 0.783709C41.7012-0.251448 40.627-0.270979 39.8653 0.783709L34.3184 8.67433C33.42 9.94386 33.8692 11.0376 35.4512 11.0376Z" fill="black" fill-opacity="0.85"/>
 </g>
</svg>
