<?xml version="1.0" encoding="UTF-8"?>
<!--Generator: Apple Native CoreSVG 326-->
<!DOCTYPE svg
PUBLIC "-//W3C//DTD SVG 1.1//EN"
       "http://www.w3.org/Graphics/SVG/1.1/DTD/svg11.dtd">
<svg version="1.1" xmlns="http://www.w3.org/2000/svg" xmlns:xlink="http://www.w3.org/1999/xlink" viewBox="0 0 46.2891 45.918">
 <g>
  <rect height="45.918" opacity="0" width="46.2891" x="0" y="0"/>
  <path d="M45.918 7.53906L45.918 38.3984C45.918 43.3594 43.3594 45.918 38.3008 45.918L7.59766 45.918C2.55859 45.918 0 43.3984 0 38.3984L0 7.53906C0 2.53906 2.55859 0 7.59766 0L38.3008 0C43.3594 0 45.918 2.55859 45.918 7.53906ZM21.2109 11.7383L21.2109 27.1484L21.3477 30.957L19.6875 29.1992L15.4297 24.7656C15.1172 24.3945 14.6289 24.2188 14.1992 24.2188C13.2812 24.2188 12.6172 24.8828 12.6172 25.7812C12.6172 26.25 12.793 26.6211 13.1445 26.9531L21.7188 35.2734C22.1484 35.7227 22.5391 35.8789 22.9883 35.8789C23.4375 35.8789 23.8281 35.7227 24.2773 35.2734L32.832 26.9531C33.1641 26.6211 33.3594 26.25 33.3594 25.7812C33.3594 24.8828 32.6562 24.2188 31.7578 24.2188C31.3086 24.2188 30.8398 24.3945 30.5273 24.7656L26.2891 29.1992L24.6289 30.9375L24.7656 27.1484L24.7656 11.7383C24.7656 10.8008 23.9648 10.0195 22.9883 10.0195C22.0312 10.0195 21.2109 10.8008 21.2109 11.7383Z" fill="black" fill-opacity="0.85"/>
 </g>
</svg>
