<?xml version="1.0" encoding="UTF-8"?>
<!--Generator: Apple Native CoreSVG 326-->
<!DOCTYPE svg
PUBLIC "-//W3C//DTD SVG 1.1//EN"
       "http://www.w3.org/Graphics/SVG/1.1/DTD/svg11.dtd">
<svg version="1.1" xmlns="http://www.w3.org/2000/svg" xmlns:xlink="http://www.w3.org/1999/xlink" viewBox="0 0 51.25 61.1579">
 <g>
  <rect height="61.1579" opacity="0" width="51.25" x="0" y="0"/>
  <path d="M0 30.5692C0 43.4012 9.55078 54.0262 21.9141 55.6864L21.9141 59.534C21.9141 61.1356 23.0078 61.5653 24.2773 60.6668L32.168 55.12C33.2227 54.3778 33.2031 53.3036 32.168 52.5614L24.2578 47.0145C23.0078 46.1356 21.9141 46.5848 21.9141 48.1473L21.9141 51.9754C11.5625 50.3739 3.63281 41.409 3.63281 30.5692C3.63281 24.1629 6.40625 18.3426 10.8984 14.2997C11.8555 13.4403 11.8164 12.5028 11.3086 11.7997C10.7227 10.9989 9.49219 10.7059 8.51562 11.5653C3.26172 16.2528 0 23.0887 0 30.5692ZM50.8789 30.5692C50.8789 17.7176 41.3281 7.09263 28.9648 5.43247L28.9648 1.58482C28.9648 0.00278713 27.8711-0.446432 26.6016 0.471537L18.7109 6.01841C17.6367 6.7606 17.6562 7.83482 18.7109 8.55747L26.6211 14.1043C27.8711 14.9833 28.9648 14.5536 28.9648 12.9715L28.9648 9.16294C39.3164 10.7645 47.2266 19.7098 47.2266 30.5692C47.2266 36.9754 44.4727 42.7958 39.9609 46.8192C39.0234 47.6786 39.043 48.6356 39.5703 49.3387C40.1367 50.1395 41.3867 50.4325 42.3438 49.5536C47.6172 44.8856 50.8789 38.0497 50.8789 30.5692Z" fill="black" fill-opacity="0.85"/>
 </g>
</svg>
