<?xml version="1.0" encoding="UTF-8"?>
<!--Generator: Apple Native CoreSVG 326-->
<!DOCTYPE svg
PUBLIC "-//W3C//DTD SVG 1.1//EN"
       "http://www.w3.org/Graphics/SVG/1.1/DTD/svg11.dtd">
<svg version="1.1" xmlns="http://www.w3.org/2000/svg" xmlns:xlink="http://www.w3.org/1999/xlink" viewBox="0 0 89.4141 58.1055">
 <g>
  <rect height="58.1055" opacity="0" width="89.4141" x="0" y="0"/>
  <path d="M27.0898 35.5859L27.0898 53.457C27.0898 56.0938 25.0977 58.0664 22.5 58.0664L4.57031 58.0664C1.95312 58.0664 0 56.0938 0 53.457L0 35.5859C0 32.9688 1.95312 30.957 4.57031 30.957L22.5 30.957C25.0977 30.957 27.0898 32.9688 27.0898 35.5859ZM89.043 35.5859L89.043 53.457C89.043 56.0938 87.0508 58.0664 84.4531 58.0664L66.5234 58.0664C63.9258 58.0664 61.9336 56.0938 61.9336 53.457L61.9336 35.5859C61.9336 32.9688 63.9258 30.957 66.5234 30.957L84.4531 30.957C87.0508 30.957 89.043 32.9688 89.043 35.5859ZM4.57031 34.0234C3.71094 34.0234 3.06641 34.6875 3.06641 35.5859L3.06641 53.457C3.06641 54.3555 3.71094 55 4.57031 55L22.5 55C23.3789 55 24.0234 54.3555 24.0234 53.457L24.0234 35.5859C24.0234 34.6875 23.3789 34.0234 22.5 34.0234ZM66.5234 34.0234C65.6641 34.0234 65 34.6875 65 35.5859L65 53.457C65 54.3555 65.6641 55 66.5234 55L84.4531 55C85.332 55 85.9766 54.3555 85.9766 53.457L85.9766 35.5859C85.9766 34.6875 85.332 34.0234 84.4531 34.0234ZM58.0469 4.62891L58.0469 22.5C58.0469 25.1172 56.0547 27.1094 53.457 27.1094L35.5273 27.1094C32.9297 27.1094 30.957 25.1172 30.957 22.5L30.957 4.62891C30.957 2.01172 32.9297 0 35.5273 0L53.457 0C56.0547 0 58.0469 2.01172 58.0469 4.62891ZM35.5273 3.06641C34.668 3.06641 34.0234 3.73047 34.0234 4.62891L34.0234 22.5C34.0234 23.3789 34.668 24.043 35.5273 24.043L53.457 24.043C54.3359 24.043 55 23.3789 55 22.5L55 4.62891C55 3.73047 54.3359 3.06641 53.457 3.06641Z" fill="black" fill-opacity="0.85"/>
  <path d="M58.0469 35.5859L58.0469 53.457C58.0469 56.0938 56.0547 58.0664 53.457 58.0664L35.5273 58.0664C32.9297 58.0664 30.957 56.0938 30.957 53.457L30.957 35.5859C30.957 32.9688 32.9297 30.957 35.5273 30.957L53.457 30.957C56.0547 30.957 58.0469 32.9688 58.0469 35.5859ZM38.4961 38.2227C37.5 38.2227 36.8945 39.375 37.4609 40.332L43.3008 50.2148C43.8281 51.0938 45.1172 51.1133 45.6641 50.2344L51.5625 40.332C52.1484 39.3945 51.5234 38.2227 50.5664 38.2227Z" fill="black" fill-opacity="0.85"/>
 </g>
</svg>
