<?xml version="1.0" encoding="UTF-8"?>
<!--Generator: Apple Native CoreSVG 326-->
<!DOCTYPE svg
PUBLIC "-//W3C//DTD SVG 1.1//EN"
       "http://www.w3.org/Graphics/SVG/1.1/DTD/svg11.dtd">
<svg version="1.1" xmlns="http://www.w3.org/2000/svg" xmlns:xlink="http://www.w3.org/1999/xlink" viewBox="0 0 51.25 50.918">
 <g>
  <rect height="50.918" opacity="0" width="51.25" x="0" y="0"/>
  <path d="M50.8789 25.4492C50.8789 39.4531 39.4531 50.8789 25.4297 50.8789C11.4258 50.8789 0 39.4531 0 25.4492C0 11.4258 11.4258 0 25.4297 0C39.4531 0 50.8789 11.4258 50.8789 25.4492ZM30.1562 17.7539C30.1562 18.2422 30.332 18.6328 30.6641 18.9648L32.9102 21.1523L36.0742 23.9453L31.0352 23.75L19.8047 23.75L14.7461 23.9453L17.9297 21.1523L20.1758 18.9648C20.4883 18.6328 20.6641 18.2422 20.6641 17.7539C20.6641 16.8359 19.9805 16.1328 19.082 16.1328C18.5938 16.1328 18.2031 16.3086 17.9102 16.6016L10.3906 24.1406C9.96094 24.5703 9.76562 24.9609 9.76562 25.4297C9.76562 25.8984 9.96094 26.2695 10.3906 26.7188L17.9102 34.2773C18.2031 34.5703 18.5938 34.7266 19.082 34.7266C19.9805 34.7266 20.6641 34.043 20.6641 33.125C20.6641 32.6172 20.4688 32.2461 20.1758 31.9141L17.9297 29.707L14.7656 26.9336L19.8047 27.1289L31.0352 27.1289L36.0547 26.9336L32.9102 29.707L30.6641 31.9141C30.3516 32.2461 30.1562 32.6172 30.1562 33.125C30.1562 34.043 30.8398 34.7266 31.7578 34.7266C32.2266 34.7266 32.6367 34.5703 32.9297 34.2773L40.4492 26.7188C40.8789 26.2695 41.0742 25.8984 41.0742 25.4297C41.0742 24.9609 40.8789 24.5703 40.4492 24.1406L32.9297 16.6016C32.6367 16.3086 32.2266 16.1328 31.7578 16.1328C30.8398 16.1328 30.1562 16.8359 30.1562 17.7539Z" fill="black" fill-opacity="0.85"/>
 </g>
</svg>
