<?xml version="1.0" encoding="UTF-8"?>
<!--Generator: Apple Native CoreSVG 326-->
<!DOCTYPE svg
PUBLIC "-//W3C//DTD SVG 1.1//EN"
       "http://www.w3.org/Graphics/SVG/1.1/DTD/svg11.dtd">
<svg version="1.1" xmlns="http://www.w3.org/2000/svg" xmlns:xlink="http://www.w3.org/1999/xlink" viewBox="0 0 46.2891 45.918">
 <g>
  <rect height="45.918" opacity="0" width="46.2891" x="0" y="0"/>
  <path d="M45.918 7.53906L45.918 38.3984C45.918 43.3594 43.3594 45.918 38.3008 45.918L7.59766 45.918C2.55859 45.918 0 43.3984 0 38.3984L0 7.53906C0 2.53906 2.55859 0 7.59766 0L38.3008 0C43.3594 0 45.918 2.55859 45.918 7.53906ZM21.7188 7.91016L14.1797 15.4297C13.8672 15.7031 13.6914 16.1133 13.6914 16.6016C13.6914 17.5 14.4141 18.1836 15.3125 18.1836C15.8203 18.1836 16.2109 18.0078 16.5234 17.6953L18.7305 15.4492L21.5234 12.2656L21.3281 17.3242L21.3281 28.5352L21.5234 33.5938L18.7305 30.4102L16.5234 28.1836C16.2109 27.8516 15.8203 27.6758 15.3125 27.6758C14.4141 27.6758 13.6914 28.3594 13.6914 29.2773C13.6914 29.7461 13.8672 30.1562 14.1797 30.4492L21.7188 37.9688C22.1289 38.3984 22.5195 38.5938 23.0078 38.5938C23.4766 38.5938 23.8477 38.3984 24.2969 37.9688L31.8359 30.4492C32.1484 30.1562 32.3047 29.7461 32.3047 29.2773C32.3047 28.3594 31.6211 27.6758 30.7031 27.6758C30.1953 27.6758 29.8047 27.8711 29.4922 28.1836L27.2656 30.4102L24.4922 33.5742L24.6875 28.5352L24.6875 17.3242L24.4922 12.2852L27.2656 15.4492L29.4922 17.6953C29.8047 17.9883 30.1953 18.1836 30.7031 18.1836C31.6211 18.1836 32.3047 17.5 32.3047 16.6016C32.3047 16.1133 32.1484 15.7031 31.8359 15.4297L24.2969 7.91016C23.8477 7.48047 23.4766 7.26562 23.0078 7.26562C22.5195 7.26562 22.1289 7.48047 21.7188 7.91016Z" fill="black" fill-opacity="0.85"/>
 </g>
</svg>
