<?xml version="1.0" encoding="UTF-8"?>
<!--Generator: Apple Native CoreSVG 326-->
<!DOCTYPE svg
PUBLIC "-//W3C//DTD SVG 1.1//EN"
       "http://www.w3.org/Graphics/SVG/1.1/DTD/svg11.dtd">
<svg version="1.1" xmlns="http://www.w3.org/2000/svg" xmlns:xlink="http://www.w3.org/1999/xlink" viewBox="0 0 46.2891 45.918">
 <g>
  <rect height="45.918" opacity="0" width="46.2891" x="0" y="0"/>
  <path d="M7.59766 45.918L38.3008 45.918C43.3594 45.918 45.918 43.3594 45.918 38.3984L45.918 7.53906C45.918 2.55859 43.3594 0 38.3008 0L7.59766 0C2.55859 0 0 2.53906 0 7.53906L0 38.3984C0 43.3984 2.55859 45.918 7.59766 45.918ZM7.67578 42.4609C4.94141 42.4609 3.45703 41.0156 3.45703 38.2031L3.45703 7.71484C3.45703 4.92188 4.94141 3.45703 7.67578 3.45703L38.2422 3.45703C40.918 3.45703 42.4609 4.92188 42.4609 7.71484L42.4609 38.2031C42.4609 41.0156 40.918 42.4609 38.2422 42.4609Z" fill="black" fill-opacity="0.85"/>
  <path d="M10.9961 14.375C10.4297 14.9219 10.4492 15.918 10.9961 16.4844L17.5391 22.9297C17.8516 23.1836 18.2227 23.3398 18.5938 23.3398C19.3945 23.3398 19.9805 22.7734 19.9805 21.9531C19.9805 21.582 19.8242 21.2109 19.5508 20.9375L16.6406 18.0859L15.2734 16.7773L16.7188 16.8555L33.9258 16.8555C34.7461 16.8555 35.3516 16.2305 35.3516 15.4297C35.3516 14.6289 34.7461 14.0039 33.9258 14.0039L16.7383 14.0039L15.293 14.043L16.6406 12.7539L19.5508 9.92188C19.8242 9.66797 19.9805 9.27734 19.9805 8.90625C19.9805 8.08594 19.3945 7.5 18.5938 7.5C18.2227 7.5 17.832 7.67578 17.5391 7.96875ZM34.9023 31.582C35.5078 30.9961 35.4688 30.0977 34.9023 29.5117L28.3594 23.0664C28.1055 22.8125 27.6953 22.6367 27.3242 22.6367C26.5039 22.6367 25.918 23.2227 25.918 24.0234C25.918 24.4141 26.0742 24.7656 26.3477 25.0391L29.2773 27.8906L30.6641 29.1992L29.1992 29.1211L11.9727 29.1211C11.1914 29.1211 10.5859 29.7266 10.5859 30.5469C10.5859 31.3477 11.1719 31.9727 11.9727 31.9727L29.1797 31.9727L30.6641 31.9336L29.2773 33.2031L26.3672 36.0547C26.0938 36.3281 25.918 36.6797 25.918 37.0703C25.918 37.8711 26.5234 38.4766 27.3242 38.4766C27.6758 38.4766 28.0664 38.3008 28.3594 38.0273Z" fill="black" fill-opacity="0.85"/>
 </g>
</svg>
