<?xml version="1.0" encoding="UTF-8"?>
<!--Generator: Apple Native CoreSVG 326-->
<!DOCTYPE svg
PUBLIC "-//W3C//DTD SVG 1.1//EN"
       "http://www.w3.org/Graphics/SVG/1.1/DTD/svg11.dtd">
<svg version="1.1" xmlns="http://www.w3.org/2000/svg" xmlns:xlink="http://www.w3.org/1999/xlink" viewBox="0 0 46.2891 45.918">
 <g>
  <rect height="45.918" opacity="0" width="46.2891" x="0" y="0"/>
  <path d="M45.918 7.53906L45.918 38.3984C45.918 43.3594 43.3594 45.918 38.3008 45.918L7.59766 45.918C2.55859 45.918 0 43.3984 0 38.3984L0 7.53906C0 2.53906 2.55859 0 7.59766 0L38.3008 0C43.3594 0 45.918 2.55859 45.918 7.53906ZM32.7148 24.9805L32.7148 26.4453L32.9297 30.7617L26.8555 24.4141C26.1719 23.6914 25.0586 23.7109 24.375 24.3945C23.7109 25.0781 23.7305 26.2109 24.3945 26.8555L30.7031 32.9102L26.5625 32.7148L25.0195 32.6953C24.1016 32.6953 23.3789 33.418 23.3789 34.3359C23.3789 35.2344 24.1016 35.957 25.0195 35.957L34.082 35.957C35.2734 35.957 35.9766 35.4102 35.9766 34.082L35.9766 24.9805C35.9766 24.0625 35.2539 23.3398 34.3359 23.3398C33.4375 23.3398 32.7148 24.0625 32.7148 24.9805ZM11.8555 9.94141C10.6641 9.94141 9.96094 10.5078 9.96094 11.8359L9.96094 20.9375C9.96094 21.8359 10.6836 22.5586 11.6016 22.5586C12.5 22.5586 13.2227 21.8359 13.2227 20.9375L13.2227 19.4727L13.0273 15.1367L19.082 21.4844C19.7656 22.207 20.8789 22.1875 21.5625 21.5039C22.2266 20.8398 22.207 19.707 21.543 19.043L15.2344 12.9883L19.375 13.2031L20.918 13.2031C21.8359 13.2031 22.5586 12.4805 22.5586 11.582C22.5586 10.6641 21.8359 9.94141 20.918 9.94141Z" fill="black" fill-opacity="0.85"/>
 </g>
</svg>
