<?xml version="1.0" encoding="UTF-8"?>
<!--Generator: Apple Native CoreSVG 326-->
<!DOCTYPE svg
PUBLIC "-//W3C//DTD SVG 1.1//EN"
       "http://www.w3.org/Graphics/SVG/1.1/DTD/svg11.dtd">
<svg version="1.1" xmlns="http://www.w3.org/2000/svg" xmlns:xlink="http://www.w3.org/1999/xlink" viewBox="0 0 46.7188 47.8711">
 <g>
  <rect height="47.8711" opacity="0" width="46.7188" x="0" y="0"/>
  <path d="M15.6445 47.8711C25.0391 47.8711 31.4648 41.4648 31.4648 30.5078L31.4648 11.7773L31.1719 4.43359L30.2344 4.80469L35.5859 10.8789L43.1445 18.5938C43.4961 18.9258 43.9258 19.1016 44.4727 19.1016C45.5664 19.1016 46.3477 18.3594 46.3477 17.2266C46.3477 16.7578 46.1133 16.2109 45.7617 15.8398L30.9766 0.878906C30.5859 0.449219 30.0977 0.253906 29.5703 0.253906C29.043 0.253906 28.5547 0.449219 28.1445 0.878906L13.3789 15.8398C13.0078 16.2109 12.793 16.7578 12.793 17.2266C12.793 18.3594 13.5742 19.1016 14.668 19.1016C15.2148 19.1016 15.6445 18.9258 15.9766 18.5938L23.5352 10.8789L28.9062 4.80469L27.9492 4.43359L27.6758 11.7773L27.6758 30.8008C27.6758 39.3164 22.832 44.082 15.8398 44.082C8.86719 44.082 3.78906 39.3164 3.78906 30.8008L3.78906 24.2969C3.78906 23.125 2.94922 22.3633 1.89453 22.3633C0.859375 22.3633 0 23.1445 0 24.2969L0 30.8203C0 41.6016 6.26953 47.8711 15.6445 47.8711Z" fill="black" fill-opacity="0.85"/>
 </g>
</svg>
