<?xml version="1.0" encoding="UTF-8"?>
<!--Generator: Apple Native CoreSVG 326-->
<!DOCTYPE svg
PUBLIC "-//W3C//DTD SVG 1.1//EN"
       "http://www.w3.org/Graphics/SVG/1.1/DTD/svg11.dtd">
<svg version="1.1" xmlns="http://www.w3.org/2000/svg" xmlns:xlink="http://www.w3.org/1999/xlink" viewBox="0 0 67.5977 46.5039">
 <g>
  <rect height="46.5039" opacity="0" width="67.5977" x="0" y="0"/>
  <path d="M22.9688 46.5039C23.9453 46.5039 24.5703 46.0156 24.7852 45.1367C27.4805 36.4844 31.9141 33.3984 39.5312 33.3984L40.6836 33.418L40.6836 43.3203C40.6836 44.8633 41.7773 46.0156 43.3398 46.0156C44.4531 46.0156 45.3711 45.5273 46.4258 44.5508L66.2891 25.8594C67.3242 24.9023 67.5977 24.0039 67.5977 23.2031C67.5977 22.3828 67.3242 21.5039 66.2891 20.5273L46.4258 1.99219C45.2734 0.898438 44.4922 0.390625 43.3789 0.390625C41.7773 0.390625 40.6836 1.66016 40.6836 3.20312L40.6836 13.0664L39.8633 13.0664C31.3477 13.0664 24.6289 17.9297 23.0664 28.1641L22.832 28.1641C21.1523 17.1484 14.2773 13.0664 6.64062 13.0664C6.44531 13.0664 6.07422 13.0664 5.29297 13.0664C2.20703 13.0664 0.898438 14.2773 0.898438 17.6562L0.898438 29.707C0.898438 32.3633 2.1875 33.4961 5.11719 33.4961C5.83984 33.4961 6.48438 33.4961 7.20703 33.4961C14.6289 33.4961 19.2188 37.8516 21.1914 45.1172C21.3867 46.0156 21.9922 46.5039 22.9688 46.5039Z" fill="black" fill-opacity="0.85"/>
 </g>
</svg>
