<?xml version="1.0" encoding="UTF-8"?>
<!--Generator: Apple Native CoreSVG 326-->
<!DOCTYPE svg
PUBLIC "-//W3C//DTD SVG 1.1//EN"
       "http://www.w3.org/Graphics/SVG/1.1/DTD/svg11.dtd">
<svg version="1.1" xmlns="http://www.w3.org/2000/svg" xmlns:xlink="http://www.w3.org/1999/xlink" viewBox="0 0 51.25 50.918">
 <g>
  <rect height="50.918" opacity="0" width="51.25" x="0" y="0"/>
  <path d="M25.4297 50.8789C39.4727 50.8789 50.8789 39.4922 50.8789 25.4492C50.8789 11.4062 39.4727 0 25.4297 0C11.3867 0 0 11.4062 0 25.4492C0 39.4922 11.3867 50.8789 25.4297 50.8789ZM25.4297 47.2461C13.3789 47.2461 3.63281 37.5 3.63281 25.4492C3.63281 13.3984 13.3789 3.65234 25.4297 3.65234C37.4805 3.65234 47.2266 13.3984 47.2266 25.4492C47.2266 37.5 37.4805 47.2461 25.4297 47.2461Z" fill="black" fill-opacity="0.85"/>
  <path d="M8.84766 27.5586L17.5781 27.5586C18.6133 27.5586 18.8477 26.582 18.2812 25.7812L14.3945 20.2539C13.75 19.3359 12.6758 19.2969 12.0117 20.2539L8.16406 25.7812C7.61719 26.5625 7.85156 27.5586 8.84766 27.5586ZM25.3906 39.2969C28.7891 39.2969 31.8945 38.0469 34.1016 36.1523C35.1562 35.3516 35.1758 34.2383 34.6289 33.5547C34.1406 32.9102 33.1641 32.6758 32.0703 33.457C30.293 34.9609 28.0078 35.918 25.3906 35.918C19.6094 35.918 14.9219 31.2305 14.9219 25.4492L11.543 25.4492C11.543 33.1055 17.7344 39.2969 25.3906 39.2969ZM41.9531 23.3398L33.2227 23.3398C32.1875 23.3398 31.9531 24.2969 32.5195 25.0977L36.4062 30.625C37.0508 31.543 38.125 31.582 38.7891 30.625L42.6367 25.0977C43.1836 24.3164 42.9492 23.3398 41.9531 23.3398ZM25.3906 11.582C21.9922 11.582 18.9062 12.832 16.6797 14.7266C15.6445 15.5469 15.625 16.6602 16.1523 17.3438C16.6602 17.9688 17.6367 18.2031 18.7305 17.4219C20.5078 15.918 22.793 14.9609 25.3906 14.9609C31.1719 14.9609 35.8789 19.668 35.8789 25.4492L39.2578 25.4492C39.2578 17.793 33.0469 11.582 25.3906 11.582Z" fill="black" fill-opacity="0.85"/>
 </g>
</svg>
