<?xml version="1.0" encoding="UTF-8"?>
<!--Generator: Apple Native CoreSVG 326-->
<!DOCTYPE svg
PUBLIC "-//W3C//DTD SVG 1.1//EN"
       "http://www.w3.org/Graphics/SVG/1.1/DTD/svg11.dtd">
<svg version="1.1" xmlns="http://www.w3.org/2000/svg" xmlns:xlink="http://www.w3.org/1999/xlink" viewBox="0 0 59.5508 45.918">
 <g>
  <rect height="45.918" opacity="0" width="59.5508" x="0" y="0"/>
  <path d="M59.1797 7.53906L59.1797 38.3984C59.1797 43.3594 56.6211 45.918 51.5625 45.918L7.59766 45.918C2.55859 45.918 0 43.3984 0 38.3984L0 7.53906C0 2.53906 2.55859 0 7.59766 0L51.5625 0C56.6211 0 59.1797 2.55859 59.1797 7.53906ZM15.7227 24.0234C14.7656 24.0234 14.082 24.668 14.082 25.625C14.082 26.543 14.7656 27.207 15.7617 27.207L19.7852 27.207L23.0469 26.9336L19.7852 29.9414L13.4766 36.2695C13.2031 36.582 12.9688 36.9922 12.9688 37.4414C12.9688 38.418 13.6133 39.0625 14.5508 39.0625C15.0977 39.0625 15.4688 38.8672 15.8008 38.5547L22.0898 32.2656L25.1172 29.043L24.8633 32.7148L24.8633 36.2891C24.8633 37.2852 25.5078 37.9688 26.4453 37.9688C27.3828 37.9688 28.0273 37.2266 28.0273 36.25L28.0273 25.7812C28.0273 24.5508 27.3438 24.0234 26.2695 24.0234ZM43.3789 7.38281L37.0898 13.6719L34.0625 16.8945L34.3164 13.2227L34.3164 9.62891C34.3164 8.65234 33.6719 7.96875 32.7344 7.96875C31.7969 7.96875 31.1523 8.69141 31.1523 9.66797L31.1523 20.1562C31.1523 21.3672 31.8359 21.8945 32.9102 21.8945L43.4375 21.8945C44.4141 21.8945 45.0977 21.25 45.0977 20.3125C45.0977 19.375 44.4141 18.7109 43.3984 18.7109L39.3945 18.7109L36.1133 19.0039L39.375 15.9766L45.6836 9.64844C45.9766 9.33594 46.2109 8.92578 46.2109 8.47656C46.2109 7.5 45.5664 6.875 44.6094 6.875C44.082 6.875 43.7109 7.07031 43.3789 7.38281Z" fill="black" fill-opacity="0.85"/>
 </g>
</svg>
