<?xml version="1.0" encoding="UTF-8"?>
<!--Generator: Apple Native CoreSVG 326-->
<!DOCTYPE svg
PUBLIC "-//W3C//DTD SVG 1.1//EN"
       "http://www.w3.org/Graphics/SVG/1.1/DTD/svg11.dtd">
<svg version="1.1" xmlns="http://www.w3.org/2000/svg" xmlns:xlink="http://www.w3.org/1999/xlink" viewBox="0 0 51.25 50.918">
 <g>
  <rect height="50.918" opacity="0" width="51.25" x="0" y="0"/>
  <path d="M25.4297 50.8789C39.4727 50.8789 50.8789 39.4922 50.8789 25.4492C50.8789 11.4062 39.4727 0 25.4297 0C11.3867 0 0 11.4062 0 25.4492C0 39.4922 11.3867 50.8789 25.4297 50.8789ZM25.4297 47.2461C13.3789 47.2461 3.63281 37.5 3.63281 25.4492C3.63281 13.3984 13.3789 3.65234 25.4297 3.65234C37.4805 3.65234 47.2266 13.3984 47.2266 25.4492C47.2266 37.5 37.4805 47.2461 25.4297 47.2461Z" fill="black" fill-opacity="0.85"/>
  <path d="M40.4102 25.4492C40.4102 25 40.2539 24.5117 39.6875 23.9453L28.6523 13.6914C28.0273 13.0859 27.6172 12.832 27.0117 12.832C26.1328 12.832 25.5273 13.5156 25.5273 14.3555L25.5273 20.1367L13.7695 20.1367C11.8164 20.1367 10.7031 21.2109 10.7031 23.1055L10.7031 27.832C10.7031 29.7266 11.8164 30.8008 13.7695 30.8008L25.5273 30.8008L25.5273 36.6016C25.5273 37.4609 26.1328 38.0664 26.9727 38.0664C27.5977 38.0664 28.0859 37.793 28.6523 37.2852L39.6875 26.9141C40.2539 26.3672 40.4102 25.8594 40.4102 25.4492Z" fill="black" fill-opacity="0.85"/>
 </g>
</svg>
