<?xml version="1.0" encoding="UTF-8"?>
<!--Generator: Apple Native CoreSVG 326-->
<!DOCTYPE svg
PUBLIC "-//W3C//DTD SVG 1.1//EN"
       "http://www.w3.org/Graphics/SVG/1.1/DTD/svg11.dtd">
<svg version="1.1" xmlns="http://www.w3.org/2000/svg" xmlns:xlink="http://www.w3.org/1999/xlink" viewBox="0 0 46.2891 45.918">
 <g>
  <rect height="45.918" opacity="0" width="46.2891" x="0" y="0"/>
  <path d="M7.59766 45.918L38.3008 45.918C43.3594 45.918 45.918 43.3594 45.918 38.3984L45.918 7.53906C45.918 2.55859 43.3594 0 38.3008 0L7.59766 0C2.55859 0 0 2.53906 0 7.53906L0 38.3984C0 43.3984 2.55859 45.918 7.59766 45.918ZM7.67578 42.4609C4.94141 42.4609 3.45703 41.0156 3.45703 38.2031L3.45703 7.71484C3.45703 4.92188 4.94141 3.45703 7.67578 3.45703L38.2422 3.45703C40.918 3.45703 42.4609 4.92188 42.4609 7.71484L42.4609 38.2031C42.4609 41.0156 40.918 42.4609 38.2422 42.4609Z" fill="black" fill-opacity="0.85"/>
  <path d="M37.5195 25.332L37.4414 16.1914C37.4414 15.8008 37.2656 15.3906 37.0117 15.1172C36.4453 14.5312 35.625 14.5312 35.0391 15.1172C34.7656 15.3711 34.5898 15.7617 34.6094 16.1523L34.6484 20.2344L34.707 22.0703L33.7305 21.0156L21.582 8.86719C20.9961 8.28125 20.1172 8.30078 19.5508 8.86719C18.9844 9.45312 19.0039 10.3125 19.5508 10.8789L31.7188 23.0469L32.793 24.0234L30.8984 23.9844L26.8359 23.9258C26.4453 23.9258 26.0742 24.0625 25.8008 24.3555C25.2344 24.9219 25.2344 25.7617 25.8203 26.3086C26.0742 26.582 26.4453 26.7383 26.8555 26.7578L36.0352 26.8164C36.8164 26.8359 37.5195 26.1328 37.5195 25.332ZM8.4375 20.6055L8.51562 29.7852C8.53516 30.1953 8.69141 30.5859 8.92578 30.8594C9.51172 31.4062 10.3516 31.4062 10.8984 30.8594C11.1914 30.5664 11.3086 30.1953 11.3281 29.8047L11.2695 25.7227L11.1914 23.8672L12.207 24.9219L24.375 37.0898C24.9609 37.6758 25.8008 37.6367 26.3867 37.0898C26.9531 36.4844 26.9531 35.6445 26.3867 35.0781L14.2188 22.9102L13.1445 21.9336L15.0391 21.9727L19.1211 22.0312C19.5117 22.0312 19.8633 21.875 20.1367 21.6211C20.7227 21.0352 20.7227 20.2344 20.1172 19.6484C19.8633 19.375 19.4531 19.1992 19.1016 19.1992L9.92188 19.1602C9.10156 19.1602 8.4375 19.7656 8.4375 20.6055Z" fill="black" fill-opacity="0.85"/>
 </g>
</svg>
