<?xml version="1.0" encoding="UTF-8"?>
<!--Generator: Apple Native CoreSVG 326-->
<!DOCTYPE svg
PUBLIC "-//W3C//DTD SVG 1.1//EN"
       "http://www.w3.org/Graphics/SVG/1.1/DTD/svg11.dtd">
<svg version="1.1" xmlns="http://www.w3.org/2000/svg" xmlns:xlink="http://www.w3.org/1999/xlink" viewBox="0 0 46.2891 45.918">
 <g>
  <rect height="45.918" opacity="0" width="46.2891" x="0" y="0"/>
  <path d="M45.918 7.53906L45.918 38.3984C45.918 43.3594 43.3594 45.918 38.3008 45.918L7.59766 45.918C2.55859 45.918 0 43.3984 0 38.3984L0 7.53906C0 2.53906 2.55859 0 7.59766 0L38.3008 0C43.3594 0 45.918 2.55859 45.918 7.53906ZM25.9766 24.0625C25.9766 24.4727 26.1133 24.8242 26.4062 25.1172L29.3945 28.0078L30.7812 29.3359L29.3164 29.2578L11.7188 29.2578C10.918 29.2578 10.293 29.8828 10.293 30.7227C10.293 31.582 10.8984 32.207 11.7188 32.207L29.2969 32.207L30.7812 32.168L29.3945 33.457L26.4453 36.3477C26.1523 36.6602 25.9766 36.9922 25.9766 37.4023C25.9766 38.2227 26.6016 38.8477 27.4219 38.8477C27.793 38.8477 28.1836 38.6719 28.4961 38.3984L35.1758 31.7969C35.7812 31.1914 35.7617 30.2734 35.1758 29.668L28.4961 23.0664C28.2227 22.8125 27.8125 22.6367 27.4219 22.6367C26.5625 22.6367 25.9766 23.2422 25.9766 24.0625ZM17.4023 7.59766L10.7227 14.1602C10.1367 14.7266 10.1367 15.7422 10.7227 16.3281L17.4023 22.9297C17.7148 23.1836 18.1055 23.3398 18.4766 23.3398C19.3164 23.3398 19.9219 22.7539 19.9219 21.9141C19.9219 21.5234 19.7656 21.1523 19.4727 20.8594L16.5234 17.9688L15.1367 16.6406L16.582 16.7188L34.1797 16.7188C35 16.7188 35.6445 16.0742 35.6445 15.2539C35.6445 14.3945 35.0195 13.7695 34.1797 13.7695L16.6016 13.7695L15.1562 13.8086L16.5234 12.5195L19.4727 9.62891C19.7656 9.33594 19.9219 8.96484 19.9219 8.55469C19.9219 7.73438 19.3164 7.12891 18.4766 7.12891C18.1055 7.12891 17.6953 7.30469 17.4023 7.59766Z" fill="black" fill-opacity="0.85"/>
 </g>
</svg>
