<?xml version="1.0" encoding="UTF-8"?>
<!--Generator: Apple Native CoreSVG 326-->
<!DOCTYPE svg
PUBLIC "-//W3C//DTD SVG 1.1//EN"
       "http://www.w3.org/Graphics/SVG/1.1/DTD/svg11.dtd">
<svg version="1.1" xmlns="http://www.w3.org/2000/svg" xmlns:xlink="http://www.w3.org/1999/xlink" viewBox="0 0 59.5508 45.918">
 <g>
  <rect height="45.918" opacity="0" width="59.5508" x="0" y="0"/>
  <path d="M7.59766 45.918L51.5625 45.918C56.6211 45.918 59.1797 43.3594 59.1797 38.3984L59.1797 7.53906C59.1797 2.55859 56.6211 0 51.5625 0L7.59766 0C2.55859 0 0 2.53906 0 7.53906L0 38.3984C0 43.3984 2.55859 45.918 7.59766 45.918ZM7.67578 42.4609C4.94141 42.4609 3.45703 41.0156 3.45703 38.2031L3.45703 7.71484C3.45703 4.92188 4.94141 3.45703 7.67578 3.45703L51.5039 3.45703C54.1797 3.45703 55.7031 4.92188 55.7031 7.71484L55.7031 38.2031C55.7031 41.0156 54.1797 42.4609 51.5039 42.4609Z" fill="black" fill-opacity="0.85"/>
  <path d="M35.8203 9.70703C34.8633 9.70703 34.2383 10.4297 34.2383 11.4453L34.2383 23.125C34.2383 24.3945 34.9219 24.9023 36.0156 24.9023L47.7734 24.9023C48.7891 24.9023 49.4531 24.2773 49.4531 23.3398C49.4531 22.3828 48.7695 21.7383 47.7344 21.7383L42.832 21.7383L39.1602 22.0508L42.7539 18.6914L51.3281 10.0977C51.6406 9.80469 51.8555 9.375 51.8555 8.94531C51.8555 7.96875 51.2109 7.32422 50.2539 7.32422C49.7266 7.32422 49.3359 7.51953 49.0234 7.83203L40.4492 16.3867L37.1094 19.9609L37.4023 15.8789L37.4023 11.4062C37.4023 10.3711 36.7773 9.70703 35.8203 9.70703Z" fill="black" fill-opacity="0.85"/>
 </g>
</svg>
