<?xml version="1.0" encoding="UTF-8"?>
<!--Generator: Apple Native CoreSVG 326-->
<!DOCTYPE svg
PUBLIC "-//W3C//DTD SVG 1.1//EN"
       "http://www.w3.org/Graphics/SVG/1.1/DTD/svg11.dtd">
<svg version="1.1" xmlns="http://www.w3.org/2000/svg" xmlns:xlink="http://www.w3.org/1999/xlink" viewBox="0 0 51.25 50.918">
 <g>
  <rect height="50.918" opacity="0" width="51.25" x="0" y="0"/>
  <path d="M25.4297 50.8789C39.4727 50.8789 50.8789 39.4922 50.8789 25.4492C50.8789 11.4062 39.4727 0 25.4297 0C11.3867 0 0 11.4062 0 25.4492C0 39.4922 11.3867 50.8789 25.4297 50.8789ZM25.4297 47.2461C13.3789 47.2461 3.63281 37.5 3.63281 25.4492C3.63281 13.3984 13.3789 3.65234 25.4297 3.65234C37.4805 3.65234 47.2266 13.3984 47.2266 25.4492C47.2266 37.5 37.4805 47.2461 25.4297 47.2461Z" fill="black" fill-opacity="0.85"/>
  <path d="M25.4297 12.832C25 12.832 24.6094 12.9688 24.1992 13.3984L15.8203 21.543C15.4883 21.8555 15.3125 22.207 15.3125 22.6562C15.3125 23.5352 15.957 24.1797 16.8555 24.1797C17.2852 24.1797 17.7539 24.0039 18.0469 23.6719L22.207 19.2969L23.8477 17.5977L23.7305 21.3086L23.7305 36.3867C23.7305 37.2852 24.5117 38.0469 25.4297 38.0469C26.3672 38.0469 27.1484 37.2852 27.1484 36.3867L27.1484 21.3086L27.0117 17.5977L28.6523 19.2969L32.793 23.6719C33.1055 24.0039 33.5547 24.1797 33.9844 24.1797C34.8633 24.1797 35.5469 23.5352 35.5469 22.6562C35.5469 22.207 35.3516 21.8555 35.0391 21.543L26.6797 13.3984C26.25 12.9688 25.8789 12.832 25.4297 12.832Z" fill="black" fill-opacity="0.85"/>
 </g>
</svg>
