<?xml version="1.0" encoding="UTF-8"?>
<!--Generator: Apple Native CoreSVG 326-->
<!DOCTYPE svg
PUBLIC "-//W3C//DTD SVG 1.1//EN"
       "http://www.w3.org/Graphics/SVG/1.1/DTD/svg11.dtd">
<svg version="1.1" xmlns="http://www.w3.org/2000/svg" xmlns:xlink="http://www.w3.org/1999/xlink" viewBox="0 0 47.8711 47.5586">
 <g>
  <rect height="47.5586" opacity="0" width="47.8711" x="0" y="0"/>
  <path d="M0 13.2422C0 15.1562 2.03125 15.6055 3.24219 14.3945L14.3945 3.24219C15.6641 1.97266 15.1367 0 13.2617 0L1.95312 0C0.742188 0 0 0.800781 0 1.99219ZM6.07422 8.73047L38.7109 41.4453L41.4258 38.7695L8.78906 6.05469ZM47.5 34.2383C47.5 32.3438 45.4688 31.8945 44.2578 33.1055L33.1055 44.2578C31.8359 45.5273 32.3633 47.5 34.2383 47.5L45.5469 47.5C46.7578 47.5 47.5 46.6797 47.5 45.5078ZM47.5 13.2422L47.5 1.99219C47.5 0.800781 46.7578 0 45.5469 0L34.2383 0C32.3633 0 31.8359 1.97266 33.1055 3.24219L44.2578 14.3945C45.4688 15.6055 47.5 15.1562 47.5 13.2422ZM8.75 41.4258L41.4453 8.75L38.75 6.07422L6.05469 38.7305ZM0 34.2383L0 45.5078C0 46.6797 0.742188 47.5 1.95312 47.5L13.2617 47.5C15.1367 47.5 15.6641 45.5273 14.3945 44.2578L3.24219 33.1055C2.03125 31.8945 0 32.3438 0 34.2383Z" fill="black" fill-opacity="0.85"/>
 </g>
</svg>
