<?xml version="1.0" encoding="UTF-8"?>
<!--Generator: Apple Native CoreSVG 326-->
<!DOCTYPE svg
PUBLIC "-//W3C//DTD SVG 1.1//EN"
       "http://www.w3.org/Graphics/SVG/1.1/DTD/svg11.dtd">
<svg version="1.1" xmlns="http://www.w3.org/2000/svg" xmlns:xlink="http://www.w3.org/1999/xlink" viewBox="0 0 51.543 63.0273">
 <g>
  <rect height="63.0273" opacity="0" width="51.543" x="0" y="0"/>
  <path d="M51.1719 7.59766L51.1719 43.0078C51.1719 48.0664 48.6523 50.6055 43.6523 50.6055L38.9648 50.6055L38.9648 19.9414C38.9648 14.9219 36.4453 12.3438 31.4453 12.3438L12.207 12.3438L12.207 7.59766C12.207 2.53906 14.7461 0 19.7461 0L43.6523 0C48.6523 0 51.1719 2.55859 51.1719 7.59766ZM25.7227 5.01953C24.6875 5.01953 24.1992 5.68359 24.1992 6.40625L24.1992 6.89453C24.1992 7.61719 24.6875 8.28125 25.7227 8.28125L37.6758 8.28125C38.6914 8.28125 39.1797 7.61719 39.1797 6.89453L39.1797 6.40625C39.1797 5.68359 38.6914 5.01953 37.6758 5.01953Z" fill="black" fill-opacity="0.85"/>
  <path d="M0 55.3516C0 60.4102 2.51953 62.9492 7.51953 62.9492L31.4453 62.9492C36.4453 62.9492 38.9648 60.3906 38.9648 55.3516L38.9648 19.9414C38.9648 14.9219 36.4453 12.3438 31.4453 12.3438L7.51953 12.3438C2.51953 12.3438 0 14.9023 0 19.9414ZM3.45703 55.293L3.45703 20.0195C3.45703 17.2852 4.90234 15.8008 7.69531 15.8008L31.25 15.8008C34.0625 15.8008 35.5078 17.2852 35.5078 20.0195L35.5078 55.293C35.5078 58.0078 34.0625 59.4922 31.25 59.4922L7.69531 59.4922C4.90234 59.4922 3.45703 58.0078 3.45703 55.293Z" fill="black" fill-opacity="0.85"/>
  <path d="M6.13281 39.2969L13.1445 39.2969C13.9453 39.2969 14.1406 38.5352 13.6914 37.9297L10.5664 33.4766C10.0586 32.7344 9.21875 32.6953 8.67188 33.4766L5.60547 37.9297C5.15625 38.5352 5.35156 39.2969 6.13281 39.2969ZM19.5312 48.8086C22.3047 48.8086 24.8242 47.7734 26.6211 46.2109C27.4414 45.5859 27.4414 44.7266 27.0312 44.1992C26.6406 43.7109 25.8789 43.5156 25.0391 44.1406C23.5742 45.3906 21.6797 46.1914 19.5312 46.1914C14.7852 46.1914 10.9375 42.3438 10.9375 37.6172L8.32031 37.6172C8.32031 43.8086 13.3398 48.8086 19.5312 48.8086ZM32.9297 35.9375L25.8984 35.9375C25.0977 35.9375 24.9219 36.6992 25.3516 37.3047L28.4766 41.7578C28.9844 42.5 29.8438 42.5391 30.3711 41.7578L33.457 37.3047C33.8867 36.6992 33.6914 35.9375 32.9297 35.9375ZM19.5312 26.4258C16.7578 26.4258 14.2188 27.4609 12.4219 29.0234C11.6016 29.6484 11.6016 30.5078 12.0117 31.0352C12.4023 31.5234 13.1641 31.7188 14.0039 31.0938C15.4688 29.8438 17.3633 29.043 19.5312 29.043C24.2578 29.043 28.1055 32.8906 28.1055 37.6172L30.7227 37.6172C30.7227 31.4258 25.7031 26.4258 19.5312 26.4258Z" fill="black" fill-opacity="0.85"/>
 </g>
</svg>
