<?xml version="1.0" encoding="UTF-8"?>
<!--Generator: Apple Native CoreSVG 326-->
<!DOCTYPE svg
PUBLIC "-//W3C//DTD SVG 1.1//EN"
       "http://www.w3.org/Graphics/SVG/1.1/DTD/svg11.dtd">
<svg version="1.1" xmlns="http://www.w3.org/2000/svg" xmlns:xlink="http://www.w3.org/1999/xlink" viewBox="0 0 60.3125 45.957">
 <g>
  <rect height="45.957" opacity="0" width="60.3125" x="0" y="0"/>
  <path d="M50.5664 38.6719C49.8633 43.3984 47.8711 45.957 43.0859 45.957L16.8555 45.957C12.0508 45.957 10.0977 43.4375 9.375 38.6719L5.72266 14.5117L54.1992 14.5117ZM28.7305 19.7852L21.2109 26.8164C20.8398 27.1484 20.5859 27.5195 20.5859 28.0664C20.5859 28.9844 21.25 29.6289 22.1875 29.6289C22.6172 29.6289 23.0664 29.4336 23.3789 29.1211L25.5273 26.9336L28.418 23.9648L28.2617 28.457L28.2617 38.6523C28.2617 39.5703 29.0625 40.3125 29.9805 40.3125C30.918 40.3125 31.6992 39.5703 31.6992 38.6523L31.6992 28.457L31.543 23.9648L34.4336 26.9336L36.582 29.1211C36.8945 29.4336 37.3242 29.6289 37.7734 29.6289C38.6719 29.6289 39.375 28.9844 39.375 28.0664C39.375 27.5195 39.1211 27.1484 38.75 26.8164L31.2305 19.7852C30.7617 19.3555 30.4102 19.1992 29.9805 19.1992C29.5508 19.1992 29.1992 19.3555 28.7305 19.7852ZM59.9414 4.35547L59.9414 7.10938C59.9414 9.76562 58.5352 11.4062 55.8398 11.4062L4.08203 11.4062C1.40625 11.4062 0 9.76562 0 7.10938L0 4.35547C0 1.67969 1.52344 0.0585938 4.08203 0.0585938L55.8398 0.0585938C58.5352 0.0585938 59.9414 1.67969 59.9414 4.35547Z" fill="black" fill-opacity="0.85"/>
 </g>
</svg>
