<?xml version="1.0" encoding="UTF-8"?>
<!--Generator: Apple Native CoreSVG 326-->
<!DOCTYPE svg
PUBLIC "-//W3C//DTD SVG 1.1//EN"
       "http://www.w3.org/Graphics/SVG/1.1/DTD/svg11.dtd">
<svg version="1.1" xmlns="http://www.w3.org/2000/svg" xmlns:xlink="http://www.w3.org/1999/xlink" viewBox="0 0 46.1914 45.8398">
 <g>
  <rect height="45.8398" opacity="0" width="46.1914" x="0" y="0"/>
  <path d="M42.9688 2.89062C45.3906 5.29297 45.8203 8.65234 45.8203 13.125L45.8203 32.6758C45.8203 37.168 45.3906 40.5078 42.9688 42.9297C40.5469 45.3516 37.1484 45.8203 32.6758 45.8203L13.1445 45.8203C8.67188 45.8203 5.29297 45.3516 2.85156 42.9297C0.429688 40.5273 0 37.168 0 32.6758L0 13.0078C0 8.67188 0.449219 5.3125 2.87109 2.89062C5.29297 0.46875 8.69141 0 13.0078 0L32.6758 0C37.1484 0 40.5273 0.46875 42.9688 2.89062ZM18.2812 13.0078C17.2266 13.0078 16.5625 13.6523 16.5625 14.6289C16.5625 15.6055 17.2461 16.2695 18.3203 16.2695L23.9258 16.2695L27.7148 15.9375L24.0039 19.4141L13.4961 29.9023C13.1836 30.2344 12.9688 30.6641 12.9688 31.1133C12.9688 32.1289 13.6133 32.793 14.5898 32.793C15.1367 32.793 15.5664 32.5977 15.8789 32.2656L26.3672 21.7773L29.8047 18.1055L29.5117 22.2852L29.5117 27.4609C29.5117 28.5352 30.1562 29.1992 31.1523 29.1992C32.1289 29.1992 32.7734 28.4766 32.7734 27.4219L32.7734 14.8242C32.7734 13.5352 32.0703 13.0078 30.9375 13.0078Z" fill="black" fill-opacity="0.85"/>
 </g>
</svg>
