<?xml version="1.0" encoding="UTF-8"?>
<!--Generator: Apple Native CoreSVG 326-->
<!DOCTYPE svg
PUBLIC "-//W3C//DTD SVG 1.1//EN"
       "http://www.w3.org/Graphics/SVG/1.1/DTD/svg11.dtd">
<svg version="1.1" xmlns="http://www.w3.org/2000/svg" xmlns:xlink="http://www.w3.org/1999/xlink" viewBox="0 0 51.25 50.918">
 <g>
  <rect height="50.918" opacity="0" width="51.25" x="0" y="0"/>
  <path d="M25.4297 50.8789C39.4727 50.8789 50.8789 39.4922 50.8789 25.4492C50.8789 11.4062 39.4727 0 25.4297 0C11.3867 0 0 11.4062 0 25.4492C0 39.4922 11.3867 50.8789 25.4297 50.8789ZM25.4297 47.2461C13.3789 47.2461 3.63281 37.5 3.63281 25.4492C3.63281 13.3984 13.3789 3.65234 25.4297 3.65234C37.4805 3.65234 47.2266 13.3984 47.2266 25.4492C47.2266 37.5 37.4805 47.2461 25.4297 47.2461Z" fill="black" fill-opacity="0.85"/>
  <path d="M36.5039 26.6016C36.5039 20.4688 31.5039 15.6641 25.7812 15.6641C25.4102 15.6641 25 15.7227 24.6875 15.7617L26.9922 13.4375C27.2461 13.1641 27.3828 12.793 27.3828 12.4023C27.3828 11.6211 26.7773 10.9961 25.9766 10.9961C25.5859 10.9961 25.2148 11.1719 24.9414 11.4648L20 16.5039C19.4531 17.0703 19.4531 18.0664 20 18.6133L25 23.6719C25.2344 23.9062 25.6055 24.082 25.9766 24.082C26.7578 24.082 27.3633 23.457 27.3633 22.6953C27.3633 22.2852 27.2266 21.9336 26.9336 21.6406L23.9844 18.7305C24.375 18.6328 24.8828 18.5938 25.4102 18.5938C29.9219 18.5938 33.4961 22.168 33.4961 26.6602C33.4961 31.1719 29.9219 34.7852 25.4102 34.7852C20.918 34.7852 17.3438 31.1719 17.3438 26.6602C17.3438 25.8594 16.6602 25.1758 15.8203 25.1758C15.0195 25.1758 14.3359 25.8594 14.3359 26.6602C14.3359 32.832 19.2383 37.793 25.4102 37.793C31.5625 37.793 36.5039 32.832 36.5039 26.6016Z" fill="black" fill-opacity="0.85"/>
 </g>
</svg>
