<?xml version="1.0" encoding="UTF-8"?>
<!--Generator: Apple Native CoreSVG 326-->
<!DOCTYPE svg
PUBLIC "-//W3C//DTD SVG 1.1//EN"
       "http://www.w3.org/Graphics/SVG/1.1/DTD/svg11.dtd">
<svg version="1.1" xmlns="http://www.w3.org/2000/svg" xmlns:xlink="http://www.w3.org/1999/xlink" viewBox="0 0 51.25 50.918">
 <g>
  <rect height="50.918" opacity="0" width="51.25" x="0" y="0"/>
  <path d="M25.4297 50.8789C39.4727 50.8789 50.8789 39.4922 50.8789 25.4492C50.8789 11.4062 39.4727 0 25.4297 0C11.3867 0 0 11.4062 0 25.4492C0 39.4922 11.3867 50.8789 25.4297 50.8789ZM25.4297 47.2461C13.3789 47.2461 3.63281 37.5 3.63281 25.4492C3.63281 13.3984 13.3789 3.65234 25.4297 3.65234C37.4805 3.65234 47.2266 13.3984 47.2266 25.4492C47.2266 37.5 37.4805 47.2461 25.4297 47.2461Z" fill="black" fill-opacity="0.85"/>
  <path d="M25.4297 38.0469C25.8789 38.0469 26.25 37.9102 26.6797 37.4805L35.0391 29.3555C35.3516 29.0234 35.5469 28.6719 35.5469 28.2227C35.5469 27.3438 34.8633 26.6992 33.9844 26.6992C33.5547 26.6992 33.1055 26.875 32.793 27.2266L28.6523 31.582L27.0117 33.2812L27.1484 29.5898L27.1484 14.5117C27.1484 13.5938 26.3672 12.832 25.4297 12.832C24.5117 12.832 23.7305 13.5938 23.7305 14.5117L23.7305 29.5898L23.8477 33.3008L22.207 31.582L18.0469 27.2266C17.7539 26.875 17.2852 26.6992 16.8555 26.6992C15.957 26.6992 15.3125 27.3438 15.3125 28.2227C15.3125 28.6719 15.4883 29.0234 15.8203 29.3555L24.1992 37.4805C24.6094 37.9102 25 38.0469 25.4297 38.0469Z" fill="black" fill-opacity="0.85"/>
 </g>
</svg>
