<?xml version="1.0" encoding="UTF-8"?>
<!--Generator: Apple Native CoreSVG 326-->
<!DOCTYPE svg
PUBLIC "-//W3C//DTD SVG 1.1//EN"
       "http://www.w3.org/Graphics/SVG/1.1/DTD/svg11.dtd">
<svg version="1.1" xmlns="http://www.w3.org/2000/svg" xmlns:xlink="http://www.w3.org/1999/xlink" viewBox="0 0 51.25 50.918">
 <g>
  <rect height="50.918" opacity="0" width="51.25" x="0" y="0"/>
  <path d="M50.8789 25.4492C50.8789 39.4531 39.4531 50.8789 25.4297 50.8789C11.4258 50.8789 0 39.4531 0 25.4492C0 11.4258 11.4258 0 25.4297 0C39.4531 0 50.8789 11.4258 50.8789 25.4492ZM20 12.6367L13.4375 19.2578C13.0469 19.668 12.8516 20.1758 12.8516 20.6836C12.8516 21.1914 13.0273 21.6602 13.4375 22.0898L20.0195 28.7891C20.3125 29.082 20.7031 29.2578 21.1914 29.2578C22.1094 29.2578 22.793 28.5352 22.793 27.5977C22.793 27.1289 22.5977 26.7188 22.2852 26.3867L18.8477 23.0469L17.6758 22.207L20.2344 22.3047L28.125 22.3047C32.0898 22.3047 34.707 24.6875 34.707 28.2812C34.707 32.0508 32.0508 34.5898 28.1055 34.5898L24.5508 34.5898C23.5352 34.5898 22.8516 35.2344 22.8516 36.1914C22.8516 37.168 23.5547 37.8125 24.5898 37.8125L28.1055 37.8125C33.9844 37.8125 37.9492 34.0234 37.9492 28.2812C37.9492 22.7539 34.0039 19.082 28.125 19.082L20.2344 19.082L17.6562 19.1797L19.2383 17.9492L22.2852 14.9805C22.5977 14.6875 22.793 14.2578 22.793 13.8086C22.793 12.8711 22.1289 12.1484 21.1719 12.1484C20.6836 12.1484 20.3125 12.3047 20 12.6367Z" fill="black" fill-opacity="0.85"/>
 </g>
</svg>
