<?xml version="1.0" encoding="UTF-8"?>
<!--Generator: Apple Native CoreSVG 326-->
<!DOCTYPE svg
PUBLIC "-//W3C//DTD SVG 1.1//EN"
       "http://www.w3.org/Graphics/SVG/1.1/DTD/svg11.dtd">
<svg version="1.1" xmlns="http://www.w3.org/2000/svg" xmlns:xlink="http://www.w3.org/1999/xlink" viewBox="0 0 59.5508 45.957">
 <g>
  <rect height="45.957" opacity="0" width="59.5508" x="0" y="0"/>
  <path d="M0 17.0117L0 13.9062L39.1406 13.9062C43.1445 13.9062 45.3125 16.0547 45.3125 20L45.3125 45.957L42.207 45.957L42.207 20.332C42.207 18.2422 40.9961 17.0117 38.9258 17.0117L31.0547 17.0117L31.0547 45.957L27.9492 45.957L27.9492 17.0117ZM7.59766 45.9375L51.5625 45.9375C56.6211 45.9375 59.1797 43.3789 59.1797 38.418L59.1797 7.55859C59.1797 2.57812 56.6211 0.0195312 51.5625 0.0195312L7.59766 0.0195312C2.55859 0.0195312 0 2.55859 0 7.55859L0 38.418C0 43.418 2.55859 45.9375 7.59766 45.9375Z" fill="black" fill-opacity="0.85"/>
 </g>
</svg>
