<?xml version="1.0" encoding="UTF-8"?>
<!--Generator: Apple Native CoreSVG 326-->
<!DOCTYPE svg
PUBLIC "-//W3C//DTD SVG 1.1//EN"
       "http://www.w3.org/Graphics/SVG/1.1/DTD/svg11.dtd">
<svg version="1.1" xmlns="http://www.w3.org/2000/svg" xmlns:xlink="http://www.w3.org/1999/xlink" viewBox="0 0 51.25 50.9961">
 <g>
  <rect height="50.9961" opacity="0" width="51.25" x="0" y="0"/>
  <path d="M25.4297 50.8789C39.4727 50.8789 50.8789 39.4922 50.8789 25.4492C50.8789 11.4062 39.4727 0 25.4297 0C11.3867 0 0 11.4062 0 25.4492C0 39.4922 11.3867 50.8789 25.4297 50.8789ZM25.4297 47.2461C13.3789 47.2461 3.63281 37.5 3.63281 25.4492C3.63281 13.3984 13.3789 3.65234 25.4297 3.65234C37.4805 3.65234 47.2266 13.3984 47.2266 25.4492C47.2266 37.5 37.4805 47.2461 25.4297 47.2461Z" fill="black" fill-opacity="0.85"/>
  <path d="M25.4297 37.9102C26.5625 37.9102 27.1875 37.2266 27.168 36.0547L26.9727 28.2227L34.0234 32.7539C34.375 32.9688 34.7266 33.0859 35.1758 33.0859C36.0547 33.0859 36.875 32.4023 36.875 31.2891C36.875 30.5859 36.5625 30.0977 35.8398 29.707L28.5156 25.5273L35.8398 21.3867C36.5625 20.9766 36.875 20.4883 36.875 19.7852C36.875 18.6719 36.0742 17.9688 35.1758 17.9688C34.7461 17.9688 34.3555 18.0859 34.0234 18.3203L26.9727 22.7734L27.168 14.7852C27.1875 13.6133 26.5625 12.9297 25.4297 12.9297C24.2969 12.9297 23.5938 13.6523 23.6133 14.7852L23.8086 22.7734L16.7969 18.3789C16.4648 18.1641 16.0938 18.0273 15.6641 18.0273C14.7656 18.0273 13.9258 18.7109 13.9258 19.8438C13.9258 20.5469 14.2773 21.0352 14.9609 21.4258L22.2266 25.5273L14.9805 29.668C14.2773 30.0586 13.9453 30.5664 13.9453 31.2695C13.9453 32.3633 14.7461 33.0469 15.6445 33.0469C16.0742 33.0469 16.4453 32.9102 16.7969 32.7148L23.8086 28.2227L23.6133 36.0547C23.5938 37.1875 24.2969 37.9102 25.4297 37.9102Z" fill="black" fill-opacity="0.85"/>
 </g>
</svg>
