<?xml version="1.0" encoding="UTF-8"?>
<!--Generator: Apple Native CoreSVG 326-->
<!DOCTYPE svg
PUBLIC "-//W3C//DTD SVG 1.1//EN"
       "http://www.w3.org/Graphics/SVG/1.1/DTD/svg11.dtd">
<svg version="1.1" xmlns="http://www.w3.org/2000/svg" xmlns:xlink="http://www.w3.org/1999/xlink" viewBox="0 0 51.25 50.918">
 <g>
  <rect height="50.918" opacity="0" width="51.25" x="0" y="0"/>
  <path d="M50.8789 25.4492C50.8789 39.4531 39.4531 50.8789 25.4297 50.8789C11.4258 50.8789 0 39.4531 0 25.4492C0 11.4258 11.4258 0 25.4297 0C39.4531 0 50.8789 11.4258 50.8789 25.4492ZM18.0078 17.9688C13.9648 22.0117 11.6797 27.9297 12.2266 33.0469C12.5391 36.1719 14.6875 38.3203 17.8125 38.6328C22.9492 39.1992 28.8867 36.9336 32.9102 32.8906C36.9531 28.8477 39.2383 22.9102 38.6719 17.7734C38.3594 14.6484 36.2109 12.5 33.0664 12.207C27.9492 11.6602 22.0312 13.9453 18.0078 17.9688ZM28.2227 19.8242L31.0352 22.6172C31.2891 22.8516 31.2695 23.2422 31.0352 23.4961C30.8203 23.7109 30.4297 23.7109 30.1758 23.4766L29.2188 22.5195L28.1836 23.5352L29.1602 24.5312C29.3945 24.7266 29.4141 25.1172 29.1602 25.3516C28.9453 25.5859 28.5742 25.5664 28.3203 25.332L27.3242 24.375L26.3281 25.3711L27.3047 26.3672C27.5195 26.582 27.5586 27.0117 27.3047 27.207C27.0898 27.4609 26.6992 27.4023 26.4648 27.207L25.4883 26.2695L24.4531 27.2461L25.4492 28.2227C25.6836 28.457 25.6836 28.8477 25.4492 29.082C25.2148 29.3164 24.8438 29.3164 24.5898 29.0625L23.6328 28.1055L22.6172 29.1016L23.5938 30.0977C23.8086 30.3516 23.7891 30.7031 23.5938 30.957C23.3398 31.1914 22.9688 31.1914 22.7344 30.9375L19.9023 28.125C19.668 27.9102 19.668 27.5391 19.9023 27.2852C20.1562 27.0703 20.5273 27.0703 20.7617 27.2852L21.7383 28.2617L22.7734 27.2461L21.7773 26.2695C21.5234 26.0156 21.5234 25.6445 21.7773 25.4297C22.0117 25.1758 22.4219 25.1758 22.6367 25.4102L23.6133 26.4062L24.6289 25.3711L23.6523 24.3945C23.4375 24.1406 23.3984 23.7891 23.6523 23.5742C23.8672 23.3008 24.2578 23.3008 24.4922 23.5547L25.4688 24.5508L26.5039 23.5156L25.5078 22.5391C25.293 22.2852 25.2734 21.9141 25.5078 21.6992C25.7617 21.4453 26.1133 21.4453 26.3281 21.6992L27.3242 22.6758L28.3789 21.6602L27.3633 20.6836C27.168 20.4297 27.168 20.0391 27.3633 19.8242C27.6367 19.5898 28.0273 19.5703 28.2227 19.8242Z" fill="black" fill-opacity="0.85"/>
 </g>
</svg>
