<?xml version="1.0" encoding="UTF-8"?>
<!--Generator: Apple Native CoreSVG 326-->
<!DOCTYPE svg
PUBLIC "-//W3C//DTD SVG 1.1//EN"
       "http://www.w3.org/Graphics/SVG/1.1/DTD/svg11.dtd">
<svg version="1.1" xmlns="http://www.w3.org/2000/svg" xmlns:xlink="http://www.w3.org/1999/xlink" viewBox="0 0 51.25 50.918">
 <g>
  <rect height="50.918" opacity="0" width="51.25" x="0" y="0"/>
  <path d="M50.8789 25.4492C50.8789 39.4531 39.4531 50.8789 25.4297 50.8789C11.4258 50.8789 0 39.4531 0 25.4492C0 11.4258 11.4258 0 25.4297 0C39.4531 0 50.8789 11.4258 50.8789 25.4492ZM32.5195 13.1445L32.5195 15.1953C29.6094 15.4297 27.4023 17.2266 27.4023 20.2539C27.4023 23.0664 29.0039 24.5312 31.7188 25.8203L32.5195 26.1914L32.5195 33.2617C30.6445 33.0078 29.8047 31.6797 29.5312 30.0195C29.375 29.2578 28.9062 28.9453 28.3398 28.9453C27.6562 28.9453 27.1289 29.375 27.1289 30.1367C27.1289 30.3906 27.1484 30.6445 27.207 30.9375C27.6172 33.3594 29.6875 35.1367 32.5195 35.3906L32.5195 37.5C32.5195 37.8711 32.8125 38.1836 33.2031 38.1836C33.5547 38.1836 33.8867 37.8711 33.8867 37.5L33.8867 35.4102C37.0312 35.1953 39.2383 33.2812 39.2383 30.1367C39.2383 27.0703 37.3828 25.8398 34.7852 24.5898L33.8867 24.1602L33.8867 17.3242C35.4688 17.5586 36.1914 18.75 36.5234 20.5078C36.6797 21.1133 37.0703 21.4844 37.6758 21.4844C38.3984 21.4844 38.8867 21.0547 38.8867 20.3125C38.8867 20.0586 38.8477 19.7461 38.75 19.3945C38.2227 16.875 36.3867 15.4102 33.8867 15.1953L33.8867 13.1445C33.8867 12.7734 33.5547 12.4805 33.2031 12.4805C32.8125 12.4805 32.5195 12.7734 32.5195 13.1445ZM15.9961 16.1914L10.9766 34.043C10.8984 34.2773 10.8398 34.5508 10.8398 34.8242C10.8398 35.6445 11.4258 36.0352 12.1094 36.0352C12.7734 36.0352 13.2031 35.6641 13.3789 34.9414L14.6289 30.1172L21.25 30.1172L22.5195 34.9414C22.7344 35.6641 23.1055 36.0352 23.8477 36.0352C24.4922 36.0352 25.0781 35.6445 25.0781 34.8242C25.0781 34.5898 25.0586 34.3164 24.9609 34.043L19.9023 16.1719C19.6094 15.1172 19.043 14.5508 17.9492 14.5508C16.8945 14.5508 16.2891 15.1562 15.9961 16.1914ZM36.7578 30.3711C36.7578 32.1484 35.625 33.125 33.8867 33.3008L33.8867 26.8359C35.5078 27.6172 36.7578 28.5742 36.7578 30.3711ZM20.7031 28.0273L15.1562 28.0273L17.8125 17.7539L18.0078 17.7539ZM32.5195 23.4961C31.0352 22.7344 29.8633 21.7578 29.8633 20.1172C29.8633 18.4375 30.9961 17.5 32.5195 17.3047Z" fill="black" fill-opacity="0.85"/>
 </g>
</svg>
