<?xml version="1.0" encoding="UTF-8"?>
<!--Generator: Apple Native CoreSVG 326-->
<!DOCTYPE svg
PUBLIC "-//W3C//DTD SVG 1.1//EN"
       "http://www.w3.org/Graphics/SVG/1.1/DTD/svg11.dtd">
<svg version="1.1" xmlns="http://www.w3.org/2000/svg" xmlns:xlink="http://www.w3.org/1999/xlink" viewBox="0 0 56.2305 55.8789">
 <g>
  <rect height="55.8789" opacity="0" width="56.2305" x="0" y="0"/>
  <path d="M27.9297 55.8594C43.2812 55.8594 55.8594 43.3008 55.8594 27.9297C55.8594 12.5586 43.2812 0 27.9297 0C12.5781 0 0 12.5586 0 27.9297C0 43.3008 12.5781 55.8594 27.9297 55.8594ZM27.9297 46.6797C17.5586 46.6797 9.16016 38.3008 9.16016 27.9297C9.16016 17.5586 17.5586 9.16016 27.9297 9.16016C38.3008 9.16016 46.6992 17.5586 46.6992 27.9297C46.6992 38.3008 38.3008 46.6797 27.9297 46.6797Z" fill="black" fill-opacity="0.85"/>
  <path d="M20.6641 39.4336C21.3477 39.4336 21.7188 39.1211 21.9141 38.457L27.8711 19.5703L27.9688 19.5703L33.9258 38.4766C34.1016 39.0625 34.4531 39.4336 35.1953 39.4336C35.8594 39.4336 36.4844 39.043 36.4844 38.3008C36.4844 38.0664 36.4258 37.8125 36.3477 37.5781L29.6875 17.6758C29.3945 16.8164 28.8672 16.3477 27.9297 16.3477C27.0117 16.3477 26.4062 16.8555 26.1328 17.6758L19.4922 37.6367C19.4141 37.8711 19.3555 38.1055 19.3555 38.3008C19.3555 39.0039 19.9219 39.4336 20.6641 39.4336ZM18.4375 28.418C18.4375 28.8477 18.7695 29.1797 19.1797 29.1797L36.6602 29.1797C37.0703 29.1797 37.4219 28.8477 37.4219 28.418C37.4219 28.0078 37.0703 27.6562 36.6602 27.6562L19.1797 27.6562C18.7695 27.6562 18.4375 28.0078 18.4375 28.418ZM18.4375 32.8906C18.4375 33.3008 18.7695 33.6523 19.1797 33.6523L36.6602 33.6523C37.0703 33.6523 37.4219 33.3008 37.4219 32.8906C37.4219 32.4805 37.0703 32.1289 36.6602 32.1289L19.1797 32.1289C18.7695 32.1289 18.4375 32.4805 18.4375 32.8906Z" fill="black" fill-opacity="0.85"/>
 </g>
</svg>
