<?xml version="1.0" encoding="UTF-8"?>
<!--Generator: Apple Native CoreSVG 326-->
<!DOCTYPE svg
PUBLIC "-//W3C//DTD SVG 1.1//EN"
       "http://www.w3.org/Graphics/SVG/1.1/DTD/svg11.dtd">
<svg version="1.1" xmlns="http://www.w3.org/2000/svg" xmlns:xlink="http://www.w3.org/1999/xlink" viewBox="0 0 66.8945 56.543">
 <g>
  <rect height="56.543" opacity="0" width="66.8945" x="0" y="0"/>
  <path d="M2.07031 51.6992C3.20312 51.6992 3.82812 51.1523 4.16016 50.0391L8.10547 37.4805L25.1758 37.4805L29.1211 50.0391C29.4531 51.1523 30.0781 51.6992 31.2305 51.6992C32.3828 51.6992 33.3008 50.9766 33.3008 49.8047C33.3008 49.4922 33.1641 48.9258 33.0664 48.5742L19.5898 6.97266C19.1406 5.48828 18.2422 4.57031 16.6797 4.57031C15.0977 4.57031 14.1992 5.46875 13.7305 7.01172L0.273438 48.5742C0.136719 48.9453 0 49.4141 0 49.8047C0 50.9766 0.898438 51.6992 2.07031 51.6992ZM9.16016 33.8672L16.5234 10.2148L16.7383 10.2148L24.1211 33.8672ZM52.5781 50.4102C60.332 50.4102 66.5234 46.3086 66.5234 38.75C66.5234 31.8164 61.4453 29.0039 55.6641 26.8359L51.3672 25.2344C47.3047 23.7695 43.2227 21.4258 43.2227 16.875C43.2227 12.0898 47.5391 9.51172 52.4219 9.51172C57.4609 9.51172 60.8984 12.2461 61.7578 17.2266C61.9727 18.2227 62.5586 19.0039 63.7891 19.0039C65.0586 19.0039 65.8398 18.1641 65.8203 16.9727C65.8203 16.6016 65.7812 16.1328 65.6836 15.6836C64.3359 9.08203 58.9453 5.83984 52.4219 5.83984C45.293 5.83984 39.1016 9.96094 39.1016 17.0898C39.1016 23.4961 43.9062 26.6797 49.668 28.8281L53.9648 30.4492C58.5352 32.0898 62.4414 34.1797 62.4414 39.082C62.4414 44.2383 58.0859 46.7383 52.5977 46.7383C46.875 46.7383 43.1445 43.9648 42.3242 38.5547C42.0898 37.4609 41.3867 36.7383 40.2734 36.7383C39.082 36.7383 38.3008 37.5781 38.3008 38.7305C38.3008 39.1992 38.3594 39.707 38.4375 40.0977C39.7656 47.0508 45.625 50.4102 52.5781 50.4102ZM52.4023 56.5234C53.1641 56.5234 53.8086 55.8789 53.8086 55.1172L53.8086 1.40625C53.8086 0.644531 53.1641 0 52.4023 0C51.6211 0 50.9766 0.644531 50.9766 1.40625L50.9766 55.1172C50.9766 55.8789 51.6211 56.5234 52.4023 56.5234Z" fill="black" fill-opacity="0.85"/>
 </g>
</svg>
