<?xml version="1.0" encoding="UTF-8"?>
<!--Generator: Apple Native CoreSVG 326-->
<!DOCTYPE svg
PUBLIC "-//W3C//DTD SVG 1.1//EN"
       "http://www.w3.org/Graphics/SVG/1.1/DTD/svg11.dtd">
<svg version="1.1" xmlns="http://www.w3.org/2000/svg" xmlns:xlink="http://www.w3.org/1999/xlink" viewBox="0 0 60.961 50.918">
 <g>
  <rect height="50.918" opacity="0" width="60.961" x="0" y="0"/>
  <path d="M30.295 50.8789C44.3379 50.8789 55.7246 39.4922 55.7246 25.4492C55.7246 11.4062 44.3379 0 30.295 0C16.252 0 4.86526 11.4062 4.86526 25.4492L8.49808 25.4492C8.49808 13.3984 18.2442 3.65234 30.295 3.65234C42.3457 3.65234 52.0918 13.3984 52.0918 25.4492C52.0918 37.5 42.3457 47.2461 30.295 47.2461C22.834 47.2461 16.1739 43.457 12.3653 37.7539C11.7207 36.875 10.7051 36.6016 9.80667 37.1484C8.94729 37.6562 8.69339 38.8477 9.39651 39.8047C13.9473 46.5039 21.6426 50.8789 30.295 50.8789ZM1.60354 20.7227C0.00198146 20.7227-0.447237 21.8164 0.470731 23.0859L6.01761 30.9766C6.75979 32.0508 7.83401 32.0312 8.55667 30.9766L14.1035 23.0664C14.9825 21.8164 14.5528 20.7227 12.9707 20.7227Z" fill="black" fill-opacity="0.85"/>
  <path d="M17.6973 35.4688C18.3223 35.4688 18.7325 35.1367 18.8887 34.4336L20.0801 29.8633L26.3692 29.8633L27.5606 34.4336C27.7559 35.1367 28.1075 35.4688 28.8106 35.4688C29.4356 35.4688 29.9825 35.0977 29.9825 34.3359C29.9825 34.1016 29.9434 33.8672 29.8653 33.5742L25.0606 16.6406C24.7676 15.6641 24.2598 15.1367 23.2442 15.1367C22.2285 15.1367 21.6621 15.7031 21.3887 16.6602L16.6231 33.5742C16.5645 33.8281 16.5059 34.082 16.5059 34.3359C16.5059 35.0977 17.0528 35.4688 17.6973 35.4688ZM20.5879 27.8906L23.0879 18.1445L23.2832 18.1445L25.8418 27.8906ZM37.6973 34.8828C40.9785 34.8828 43.3614 33.0859 43.3614 29.8828C43.3614 26.9922 41.6035 25.8203 39.1426 24.6484L37.4434 23.8281C35.9004 23.0859 34.4942 22.1094 34.4942 20.3906C34.4942 18.5938 35.8809 17.6758 37.6387 17.6758C39.5918 17.6758 40.4512 18.8867 40.8028 20.7812C40.959 21.3477 41.3106 21.6797 41.8965 21.6797C42.5801 21.6797 43.0293 21.2891 43.0293 20.5859C43.0293 20.3516 42.9903 20.0586 42.9121 19.7266C42.3457 17.1289 40.3731 15.7227 37.6387 15.7227C34.5723 15.7227 32.17 17.4414 32.17 20.5469C32.17 23.1641 33.6934 24.5703 36.2715 25.7812L37.9707 26.6016C39.6504 27.3828 41.0371 28.2617 41.0371 30.0977C41.0371 31.9922 39.709 32.9102 37.6973 32.9102C35.4121 32.9102 34.4942 31.5234 34.1817 29.7656C34.0059 29.043 33.5957 28.75 33.0489 28.75C32.4239 28.75 31.916 29.1602 31.916 29.8828C31.916 30.1172 31.9356 30.3516 31.9942 30.625C32.4239 33.1055 34.6504 34.8828 37.6973 34.8828ZM37.6582 37.5C37.9903 37.5 38.2832 37.207 38.2832 36.8555L38.2832 13.8086C38.2832 13.457 37.9903 13.1641 37.6582 13.1641C37.3067 13.1641 37.0137 13.457 37.0137 13.8086L37.0137 36.8555C37.0137 37.207 37.3067 37.5 37.6582 37.5Z" fill="black" fill-opacity="0.85"/>
 </g>
</svg>
