<?xml version="1.0" encoding="UTF-8"?>
<!--Generator: Apple Native CoreSVG 326-->
<!DOCTYPE svg
PUBLIC "-//W3C//DTD SVG 1.1//EN"
       "http://www.w3.org/Graphics/SVG/1.1/DTD/svg11.dtd">
<svg version="1.1" xmlns="http://www.w3.org/2000/svg" xmlns:xlink="http://www.w3.org/1999/xlink" viewBox="0 0 51.25 50.918">
 <g>
  <rect height="50.918" opacity="0" width="51.25" x="0" y="0"/>
  <path d="M25.4297 50.8789C39.4727 50.8789 50.8789 39.4922 50.8789 25.4492C50.8789 11.4062 39.4727 0 25.4297 0C11.3867 0 0 11.4062 0 25.4492C0 39.4922 11.3867 50.8789 25.4297 50.8789ZM25.4297 47.2461C13.3789 47.2461 3.63281 37.5 3.63281 25.4492C3.63281 13.3984 13.3789 3.65234 25.4297 3.65234C37.4805 3.65234 47.2266 13.3984 47.2266 25.4492C47.2266 37.5 37.4805 47.2461 25.4297 47.2461Z" fill="black" fill-opacity="0.85"/>
  <path d="M12.4023 35.7812C13.0469 35.7812 13.457 35.4297 13.6328 34.7266L14.8438 30L21.3281 30L22.5781 34.7266C22.7734 35.4297 23.1445 35.7812 23.8672 35.7812C24.4922 35.7812 25.0586 35.4102 25.0586 34.6094C25.0586 34.375 25.0391 34.1211 24.9414 33.8281L20 16.3672C19.707 15.3516 19.1602 14.8242 18.1055 14.8242C17.0703 14.8242 16.4844 15.3906 16.2109 16.3867L11.2891 33.8281C11.2109 34.082 11.1719 34.3555 11.1719 34.6094C11.1719 35.4102 11.7383 35.7812 12.4023 35.7812ZM15.3711 27.9688L17.9688 17.9297L18.1641 17.9297L20.8008 27.9688ZM33.0273 35.1953C36.4062 35.1953 38.8672 33.3203 38.8672 30.0391C38.8672 27.0312 37.0703 25.8398 34.5312 24.6094L32.7734 23.7695C31.1719 23.0078 29.707 22.0117 29.707 20.2344C29.707 18.3789 31.1523 17.4219 32.9688 17.4219C35 17.4219 35.8594 18.6719 36.25 20.6445C36.3867 21.2109 36.7578 21.5625 37.3633 21.5625C38.0664 21.5625 38.5352 21.1523 38.5352 20.4297C38.5352 20.1758 38.4961 19.8828 38.3984 19.5312C37.832 16.8555 35.7812 15.4102 32.9688 15.4102C29.8047 15.4102 27.3242 17.1875 27.3242 20.3906C27.3242 23.1055 28.8867 24.5508 31.543 25.8008L33.3203 26.6406C35.0391 27.4414 36.4648 28.3594 36.4648 30.2539C36.4648 32.207 35.0977 33.1445 33.0273 33.1445C30.6836 33.1445 29.7266 31.7188 29.3945 29.9023C29.2383 29.1602 28.7891 28.8672 28.2422 28.8672C27.5781 28.8672 27.0703 29.2773 27.0703 30.0195C27.0703 30.2539 27.0898 30.5078 27.1484 30.8008C27.5977 33.3594 29.8828 35.1953 33.0273 35.1953ZM32.9883 37.8711C33.3398 37.8711 33.6328 37.5781 33.6328 37.2266L33.6328 13.4375C33.6328 13.0664 33.3398 12.7734 32.9883 12.7734C32.6172 12.7734 32.3242 13.0664 32.3242 13.4375L32.3242 37.2266C32.3242 37.5781 32.6172 37.8711 32.9883 37.8711Z" fill="black" fill-opacity="0.85"/>
 </g>
</svg>
