<?xml version="1.0" encoding="UTF-8"?>
<!--Generator: Apple Native CoreSVG 326-->
<!DOCTYPE svg
PUBLIC "-//W3C//DTD SVG 1.1//EN"
       "http://www.w3.org/Graphics/SVG/1.1/DTD/svg11.dtd">
<svg version="1.1" xmlns="http://www.w3.org/2000/svg" xmlns:xlink="http://www.w3.org/1999/xlink" viewBox="0 0 55.5273 53.1055">
 <g>
  <rect height="53.1055" opacity="0" width="55.5273" x="0" y="0"/>
  <path d="M3.06641 47.6758L52.0898 47.6758L52.0898 46.1719C52.0898 45.332 51.582 44.8242 50.7227 44.8242L49.1211 44.8242L49.1211 16.6797L51.3867 16.6797C52.5781 16.6797 53.2422 15.8398 53.2422 14.9609C53.2422 14.3164 52.8906 13.75 52.1094 13.3008L30.5273 0.839844C29.5703 0.292969 28.5547 0 27.5781 0C26.6016 0 25.5664 0.292969 24.6289 0.839844L3.04688 13.3008C2.24609 13.75 1.91406 14.3164 1.91406 14.9609C1.91406 15.8398 2.57812 16.6797 3.76953 16.6797L6.05469 16.6797L6.05469 44.8242L4.45312 44.8242C3.57422 44.8242 3.06641 45.332 3.06641 46.1719ZM9.31641 44.8242L9.31641 13.7109L26.4453 4.0625C26.7773 3.86719 27.1875 3.75 27.5781 3.75C27.9492 3.75 28.3398 3.86719 28.7109 4.0625L45.8594 13.7109L45.8594 44.8242ZM1.73828 53.0664L53.418 53.0664C54.375 53.0664 55.1562 52.2852 55.1562 51.3477C55.1562 50.3906 54.375 49.6094 53.418 49.6094L1.73828 49.6094C0.78125 49.6094 0 50.3906 0 51.3477C0 52.2852 0.78125 53.0664 1.73828 53.0664Z" fill="black" fill-opacity="0.85"/>
  <path d="M15.3906 36.1133C15.9961 36.1133 16.3867 35.7812 16.543 35.1172L17.6758 30.6836L23.7695 30.6836L24.9414 35.1172C25.1367 35.7812 25.4688 36.1133 26.1523 36.1133C26.7383 36.1133 27.2852 35.7617 27.2852 35.0195C27.2852 34.7852 27.2461 34.5508 27.168 34.2969L22.5195 17.8906C22.2461 16.9336 21.7383 16.4453 20.7422 16.4453C19.7656 16.4453 19.2383 16.9727 18.9648 17.9102L14.3555 34.2969C14.2773 34.5117 14.2383 34.7656 14.2383 35.0195C14.2383 35.7617 14.7656 36.1133 15.3906 36.1133ZM18.1836 28.7891L20.6055 19.3555L20.8008 19.3555L23.2812 28.7891ZM34.7461 35.5469C37.9297 35.5469 40.2344 33.8086 40.2344 30.7227C40.2344 27.9102 38.5352 26.7773 36.1523 25.625L34.5117 24.8438C33.0078 24.1211 31.6406 23.1836 31.6406 21.5234C31.6406 19.7656 33.0078 18.8867 34.6875 18.8867C36.6016 18.8867 37.4023 20.0586 37.7734 21.8945C37.9102 22.4414 38.2617 22.7734 38.8086 22.7734C39.4727 22.7734 39.9219 22.3828 39.9219 21.6992C39.9219 21.4844 39.8828 21.1914 39.8047 20.8594C39.2578 18.3594 37.3438 16.9922 34.6875 16.9922C31.7188 16.9922 29.3945 18.6719 29.3945 21.6602C29.3945 24.1992 30.8789 25.5664 33.3594 26.7383L35.0195 27.5195C36.6406 28.2812 37.9883 29.1406 37.9883 30.918C37.9883 32.7539 36.6992 33.6328 34.7461 33.6328C32.5391 33.6328 31.6406 32.3047 31.3477 30.6055C31.1914 29.9023 30.7812 29.6094 30.2539 29.6094C29.6484 29.6094 29.1602 30.0195 29.1602 30.7031C29.1602 30.9375 29.1797 31.1523 29.2188 31.4258C29.6484 33.8281 31.8164 35.5469 34.7461 35.5469ZM34.707 38.0859C35.0391 38.0859 35.332 37.793 35.332 37.4609L35.332 15.1367C35.332 14.8047 35.0391 14.5117 34.707 14.5117C34.375 14.5117 34.082 14.8047 34.082 15.1367L34.082 37.4609C34.082 37.793 34.375 38.0859 34.707 38.0859Z" fill="black" fill-opacity="0.85"/>
 </g>
</svg>
