<?xml version="1.0" encoding="UTF-8"?>
<!--Generator: Apple Native CoreSVG 326-->
<!DOCTYPE svg
PUBLIC "-//W3C//DTD SVG 1.1//EN"
       "http://www.w3.org/Graphics/SVG/1.1/DTD/svg11.dtd">
<svg version="1.1" xmlns="http://www.w3.org/2000/svg" xmlns:xlink="http://www.w3.org/1999/xlink" viewBox="0 0 51.25 50.918">
 <g>
  <rect height="50.918" opacity="0" width="51.25" x="0" y="0"/>
  <path d="M50.8789 25.4492C50.8789 39.4531 39.4531 50.8789 25.4297 50.8789C11.4258 50.8789 0 39.4531 0 25.4492C0 11.4258 11.4258 0 25.4297 0C39.4531 0 50.8789 11.4258 50.8789 25.4492ZM23.5938 14.9414L20.1953 25.1758L16.4844 25.1758C16.0352 25.1758 15.7031 25.5273 15.7031 25.957C15.7031 26.3867 16.0352 26.7383 16.4844 26.7383L19.668 26.7383L18.6719 29.7461L16.4844 29.7461C16.0352 29.7461 15.7031 30.1172 15.7031 30.5469C15.7031 30.957 16.0352 31.3281 16.4844 31.3281L18.1445 31.3281L16.7773 35.3906C16.6992 35.6641 16.6406 35.8789 16.6406 36.0742C16.6406 36.7969 17.2461 37.2656 17.9883 37.2656C18.6914 37.2656 19.082 36.9141 19.2773 36.2305L20.8398 31.3281L30.0195 31.3281L31.582 36.25C31.7578 36.8555 32.1289 37.2656 32.8711 37.2656C33.5742 37.2656 34.1992 36.8555 34.1992 36.0742C34.1992 35.8398 34.1602 35.5664 34.0625 35.332L32.7148 31.3281L34.375 31.3281C34.8242 31.3281 35.1758 30.957 35.1758 30.5469C35.1758 30.1172 34.8242 29.7461 34.375 29.7461L32.1875 29.7461L31.1914 26.7383L34.375 26.7383C34.8242 26.7383 35.1758 26.3867 35.1758 25.957C35.1758 25.5273 34.8242 25.1758 34.375 25.1758L30.6641 25.1758L27.2461 14.9414C26.9531 14.0625 26.4062 13.5742 25.4297 13.5742C24.4922 13.5742 23.8672 14.1016 23.5938 14.9414ZM29.5312 29.7461L21.3086 29.7461L22.2656 26.7383L28.5938 26.7383ZM28.0859 25.1758L22.7734 25.1758L25.3711 16.8945L25.4688 16.8945Z" fill="black" fill-opacity="0.85"/>
 </g>
</svg>
