<?xml version="1.0" encoding="UTF-8"?>
<!--Generator: Apple Native CoreSVG 326-->
<!DOCTYPE svg
PUBLIC "-//W3C//DTD SVG 1.1//EN"
       "http://www.w3.org/Graphics/SVG/1.1/DTD/svg11.dtd">
<svg version="1.1" xmlns="http://www.w3.org/2000/svg" xmlns:xlink="http://www.w3.org/1999/xlink" viewBox="0 0 51.0321 50.661">
 <g>
  <rect height="50.661" opacity="0" width="51.0321" x="0" y="0"/>
  <path d="M11.0824 11.0629C3.05509 19.0903-0.694912 29.8715 0.105869 38.4067C0.633213 45.9262 4.67618 50.0278 12.059 50.5356C20.7699 51.3364 31.5317 47.5864 39.5785 39.559C47.6059 31.5317 51.3363 20.7504 50.5356 12.059C50.0473 4.65666 45.9262 0.613695 38.4262 0.105883C29.891-0.694898 19.1098 3.0551 11.0824 11.0629ZM14.2465 30.7699C13.7973 30.3207 13.8168 29.6176 14.2465 29.1684C14.7152 28.7192 15.4379 28.7387 15.8676 29.1684L17.8793 31.1801L20.0473 29.0121L18.016 26.9809C17.5863 26.5512 17.5668 25.8285 18.016 25.4379C18.4457 24.9496 19.2074 24.9692 19.6371 25.4184L21.6488 27.4301L23.7973 25.2817L21.766 23.2504C21.3363 22.8012 21.3168 22.0981 21.766 21.6684C22.1762 21.2192 22.9379 21.2387 23.3285 21.6684L25.3793 23.6996L27.5473 21.5512L25.516 19.5199C25.0863 19.0707 25.0863 18.3481 25.4965 17.9184C25.9652 17.4692 26.6488 17.4887 27.0981 17.9379L29.1293 19.9496L31.2973 17.8012L29.266 15.7895C28.8168 15.3403 28.8363 14.5981 29.2465 14.1489C29.7152 13.7387 30.4379 13.7192 30.8676 14.1293L36.4926 19.7739C36.9223 20.2035 36.9027 20.9262 36.4731 21.3754C36.0434 21.8051 35.3012 21.8246 34.852 21.3754L32.8598 19.3637L30.6918 21.5317L32.7231 23.5434C33.1527 23.9926 33.1527 24.6567 32.7231 25.1254C32.2738 25.5356 31.5707 25.5551 31.1215 25.1254L29.1098 23.1137L26.9613 25.2817L28.9731 27.2739C29.4027 27.7035 29.4027 28.4262 28.9535 28.8559C28.5238 29.3051 27.8207 29.3051 27.391 28.8754L25.3793 26.8637L23.2309 29.0121L25.2231 31.0043C25.6527 31.434 25.6723 32.1762 25.2035 32.6254C24.7934 33.0551 24.0707 33.0551 23.641 32.6254L21.6293 30.5942L19.4613 32.7621L21.4731 34.7739C21.8832 35.2035 21.9027 35.9067 21.4731 36.3949C21.0238 36.8246 20.3207 36.8442 19.8715 36.3949Z" fill="black" fill-opacity="0.85"/>
 </g>
</svg>
