<?xml version="1.0" encoding="UTF-8"?>
<!--Generator: Apple Native CoreSVG 326-->
<!DOCTYPE svg
PUBLIC "-//W3C//DTD SVG 1.1//EN"
       "http://www.w3.org/Graphics/SVG/1.1/DTD/svg11.dtd">
<svg version="1.1" xmlns="http://www.w3.org/2000/svg" xmlns:xlink="http://www.w3.org/1999/xlink" viewBox="0 0 51.25 52.4926">
 <g>
  <rect height="52.4926" opacity="0" width="51.25" x="0" y="0"/>
  <path d="M0 26.2365C0 34.8303 4.29688 42.506 11.0547 47.1545C12.0117 47.8576 13.2227 47.5842 13.7305 46.7248C14.2773 45.8264 14.0039 44.8107 13.125 44.1662C7.44141 40.3185 3.63281 33.717 3.63281 26.2365C3.63281 14.1857 13.3789 4.43964 25.4297 4.43964C37.4805 4.43964 47.2266 14.1857 47.2266 26.2365C47.2266 33.717 43.457 40.299 37.7539 44.1662C36.875 44.8107 36.6016 45.8264 37.1289 46.7248C37.6562 47.5842 38.8281 47.8576 39.7852 47.174C46.5234 42.5842 50.8789 34.8303 50.8789 26.2365C50.8789 12.1935 39.4727 0.787299 25.4297 0.787299C11.3867 0.787299 0 12.1935 0 26.2365ZM44.707 48.6975L36.875 40.4748C35.7812 39.3029 34.668 39.8303 34.375 41.2756L32.4414 50.6115C32.168 51.9006 32.9297 52.6428 34.2383 52.467L43.7695 51.1389C45.332 50.9045 45.8008 49.8498 44.707 48.6975Z" fill="black" fill-opacity="0.85"/>
  <path d="M17.1484 36.549C17.9297 36.549 18.4766 36.1975 18.8086 35.1623L20.8203 29.4982L30.0195 29.4982L32.0117 35.1623C32.3633 36.1779 32.8906 36.549 33.7109 36.549C34.6484 36.549 35.293 35.9435 35.293 35.0646C35.293 34.7326 35.2344 34.4201 35.0586 33.9514L27.8125 14.5178C27.4023 13.4045 26.5625 12.8381 25.4102 12.8381C24.2383 12.8381 23.4375 13.4045 23.0273 14.5178L15.7617 33.9514C15.6055 34.4201 15.5273 34.7326 15.5273 35.0646C15.5273 35.9631 16.1719 36.549 17.1484 36.549ZM21.6992 26.842L25.293 16.6662L25.5273 16.6662L29.1211 26.842Z" fill="black" fill-opacity="0.85"/>
 </g>
</svg>
