<?xml version="1.0" encoding="UTF-8"?>
<!--Generator: Apple Native CoreSVG 326-->
<!DOCTYPE svg
PUBLIC "-//W3C//DTD SVG 1.1//EN"
       "http://www.w3.org/Graphics/SVG/1.1/DTD/svg11.dtd">
<svg version="1.1" xmlns="http://www.w3.org/2000/svg" xmlns:xlink="http://www.w3.org/1999/xlink" viewBox="0 0 46.2891 45.918">
 <g>
  <rect height="45.918" opacity="0" width="46.2891" x="0" y="0"/>
  <path d="M45.918 7.53906L45.918 38.3984C45.918 43.3594 43.3594 45.918 38.3008 45.918L7.59766 45.918C2.55859 45.918 0 43.3984 0 38.3984L0 7.53906C0 2.53906 2.55859 0 7.59766 0L38.3008 0C43.3594 0 45.918 2.55859 45.918 7.53906ZM16.6602 11.0156C15.4297 11.0156 14.6875 11.7578 14.6875 13.0078L14.6875 32.5195C14.6875 33.7695 15.4297 34.5117 16.6602 34.5117L24.1992 34.5117C29.4336 34.5117 32.793 31.9727 32.793 27.9297C32.793 24.8047 30.7031 22.5977 27.3438 22.168L27.3438 22.0312C29.8242 21.4258 31.3867 19.375 31.3867 16.8164C31.3867 13.3203 28.5352 11.0156 24.2188 11.0156ZM29.1992 27.832C29.1992 30.5273 27.1484 31.8164 22.7734 31.8164L18.1641 31.8164L18.1641 23.6914L24.043 23.6914C27.2852 23.6914 29.1992 25.2148 29.1992 27.832ZM27.9492 17.3828C27.9492 19.7266 25.957 21.1523 22.5391 21.1523L18.1641 21.1523L18.1641 13.7109L23.5156 13.7109C26.3086 13.7109 27.9492 15.0781 27.9492 17.3828Z" fill="black" fill-opacity="0.85"/>
 </g>
</svg>
