<?xml version="1.0" encoding="UTF-8"?>
<!--Generator: Apple Native CoreSVG 326-->
<!DOCTYPE svg
PUBLIC "-//W3C//DTD SVG 1.1//EN"
       "http://www.w3.org/Graphics/SVG/1.1/DTD/svg11.dtd">
<svg version="1.1" xmlns="http://www.w3.org/2000/svg" xmlns:xlink="http://www.w3.org/1999/xlink" viewBox="0 0 55.2539 37.9492">
 <g>
  <rect height="37.9492" opacity="0" width="55.2539" x="0" y="0"/>
  <path d="M43.4375 37.9102C44.4727 37.9102 45.2734 37.1289 45.2734 36.1133L45.2734 1.79688C45.2734 0.78125 44.4727 0 43.4375 0C42.4219 0 41.6211 0.78125 41.6211 1.79688L41.6211 36.1133C41.6211 37.1289 42.4219 37.9102 43.4375 37.9102ZM33.5547 34.7266L33.5547 3.20312C33.5547 1.01562 32.2656 0 30.7812 0C30.1172 0 29.4531 0.195312 28.7891 0.566406L2.32422 16.0938C0.664062 17.0508 0 17.8125 0 18.9648C0 20.1172 0.664062 20.8594 2.32422 21.8164L28.7891 37.3438C29.4531 37.7148 30.1172 37.9102 30.7812 37.9102C32.2656 37.9102 33.5547 36.9141 33.5547 34.7266ZM30.0781 33.1641C30.0781 33.4961 29.8828 33.7109 29.6094 33.7109C29.4727 33.7109 29.375 33.6914 29.2578 33.6133L5.03906 19.3555C4.82422 19.2383 4.74609 19.1016 4.74609 18.9648C4.74609 18.8086 4.82422 18.6719 5.03906 18.5547L29.2578 4.29688C29.375 4.23828 29.4727 4.19922 29.6094 4.19922C29.8828 4.19922 30.0781 4.41406 30.0781 4.74609Z" fill="black" fill-opacity="0.85"/>
 </g>
</svg>
