<?xml version="1.0" encoding="UTF-8"?>
<!--Generator: Apple Native CoreSVG 326-->
<!DOCTYPE svg
PUBLIC "-//W3C//DTD SVG 1.1//EN"
       "http://www.w3.org/Graphics/SVG/1.1/DTD/svg11.dtd">
<svg version="1.1" xmlns="http://www.w3.org/2000/svg" xmlns:xlink="http://www.w3.org/1999/xlink" viewBox="0 0 40.8606 64.3164">
 <g>
  <rect height="64.3164" opacity="0" width="40.8606" x="0" y="0"/>
  <path d="M12.6569 61.6992L27.8326 61.6992C36.3678 61.6992 40.5475 57.4219 40.4889 48.7695C40.3912 38.7695 40.3326 31.5039 40.0787 26.0742C39.3756 10.1562 34.9615 5.54688 20.235 5.54688C5.52795 5.54688 1.11389 10.1562 0.410764 26.0742C0.156858 31.5039 0.0982638 38.7695 0.0006075 48.7695C-0.0579862 57.4219 4.1217 61.6992 12.6569 61.6992ZM12.0709 51.875C9.96155 51.875 8.59436 50.4883 8.59436 48.3789L8.59436 35.8594C8.59436 33.75 9.96155 32.3633 12.0709 32.3633L28.4186 32.3633C30.528 32.3633 31.8951 33.75 31.8951 35.8594L31.8951 48.3789C31.8951 50.4883 30.528 51.875 28.4186 51.875ZM8.59436 41.6406L31.8951 41.6406L31.8951 39.0039L8.59436 39.0039ZM20.2545 0C15.8014 0 12.5787 3.06641 12.5787 7.20703L15.6451 7.20703C15.6451 4.80469 17.5787 3.06641 20.2545 3.06641C22.9303 3.06641 24.8444 4.80469 24.8444 7.20703L27.9108 7.20703C27.9108 3.06641 24.6881 0 20.2545 0Z" fill="black" fill-opacity="0.85"/>
 </g>
</svg>
