<?xml version="1.0" encoding="UTF-8"?>
<!--Generator: Apple Native CoreSVG 326-->
<!DOCTYPE svg
PUBLIC "-//W3C//DTD SVG 1.1//EN"
       "http://www.w3.org/Graphics/SVG/1.1/DTD/svg11.dtd">
<svg version="1.1" xmlns="http://www.w3.org/2000/svg" xmlns:xlink="http://www.w3.org/1999/xlink" viewBox="0 0 51.25 50.918">
 <g>
  <rect height="50.918" opacity="0" width="51.25" x="0" y="0"/>
  <path d="M50.8789 25.4492C50.8789 39.4531 39.4531 50.8789 25.4297 50.8789C11.4258 50.8789 0 39.4531 0 25.4492C0 11.4258 11.4258 0 25.4297 0C39.4531 0 50.8789 11.4258 50.8789 25.4492ZM15.7812 15.5664C14.8047 15.5664 14.2578 16.0547 14.2578 17.0703L14.2578 33.8281C14.2578 34.8438 14.8047 35.3516 15.7812 35.3516L18.5547 35.3516C19.5508 35.3516 20.0781 34.8438 20.0781 33.8281L20.0781 26.2305C20.2344 26.582 20.5273 26.875 20.9766 27.1289L33.6133 34.5703C34.043 34.8242 34.4727 34.9805 34.9219 34.9805C35.8203 34.9805 36.5625 34.3359 36.5625 33.0469L36.5625 17.9297C36.5625 16.6602 35.8203 16.0156 34.9219 16.0156C34.4727 16.0156 34.043 16.1523 33.6133 16.4258L20.9766 23.8477C20.5273 24.1016 20.2344 24.4141 20.0781 24.7461L20.0781 17.0703C20.0781 16.0352 19.5508 15.5664 18.5547 15.5664Z" fill="black" fill-opacity="0.85"/>
 </g>
</svg>
