<?xml version="1.0" encoding="UTF-8"?>
<!--Generator: Apple Native CoreSVG 326-->
<!DOCTYPE svg
PUBLIC "-//W3C//DTD SVG 1.1//EN"
       "http://www.w3.org/Graphics/SVG/1.1/DTD/svg11.dtd">
<svg version="1.1" xmlns="http://www.w3.org/2000/svg" xmlns:xlink="http://www.w3.org/1999/xlink" viewBox="0 0 51.25 50.918">
 <g>
  <rect height="50.918" opacity="0" width="51.25" x="0" y="0"/>
  <path d="M25.4297 50.8789C39.4727 50.8789 50.8789 39.4922 50.8789 25.4492C50.8789 11.4062 39.4727 0 25.4297 0C11.3867 0 0 11.4062 0 25.4492C0 39.4922 11.3867 50.8789 25.4297 50.8789ZM25.4297 47.2461C13.3789 47.2461 3.63281 37.5 3.63281 25.4492C3.63281 13.3984 13.3789 3.65234 25.4297 3.65234C37.4805 3.65234 47.2266 13.3984 47.2266 25.4492C47.2266 37.5 37.4805 47.2461 25.4297 47.2461Z" fill="black" fill-opacity="0.85"/>
  <path d="M21.4062 40.8203L29.4141 40.8203C33.8672 40.8203 36.0547 38.5938 36.0156 34.0625C35.957 28.8086 35.918 24.9805 35.8008 22.1289C35.4297 13.7891 33.1445 11.3867 25.4102 11.3867C17.6953 11.3867 15.3906 13.7891 15.0391 22.1289C14.9023 24.9805 14.8633 28.8086 14.8047 34.0625C14.7656 38.5938 16.9531 40.8203 21.4062 40.8203ZM21.1523 35.6641C20.0391 35.6641 19.3359 34.9414 19.3359 33.8281L19.3359 27.2852C19.3359 26.1914 20.0391 25.4492 21.1523 25.4492L29.6875 25.4492C30.8008 25.4492 31.5039 26.1914 31.5039 27.2852L31.5039 33.8281C31.5039 34.9414 30.8008 35.6641 29.6875 35.6641ZM19.3359 30.5078L31.5039 30.5078L31.5039 28.9648L19.3359 28.9648ZM25.4102 8.39844C23.0469 8.39844 21.3477 10.0781 21.3477 12.3242L23.1055 12.3242C23.1055 11.0742 24.082 10.1562 25.4102 10.1562C26.7383 10.1562 27.7148 11.0742 27.7148 12.3242L29.4727 12.3242C29.4727 10.0781 27.7734 8.39844 25.4102 8.39844Z" fill="black" fill-opacity="0.85"/>
 </g>
</svg>
