<?xml version="1.0" encoding="UTF-8"?>
<!--Generator: Apple Native CoreSVG 326-->
<!DOCTYPE svg
PUBLIC "-//W3C//DTD SVG 1.1//EN"
       "http://www.w3.org/Graphics/SVG/1.1/DTD/svg11.dtd">
<svg version="1.1" xmlns="http://www.w3.org/2000/svg" xmlns:xlink="http://www.w3.org/1999/xlink" viewBox="0 0 40.8606 64.3164">
 <g>
  <rect height="64.3164" opacity="0" width="40.8606" x="0" y="0"/>
  <path d="M12.6569 61.6992L27.8326 61.6992C36.3678 61.6992 40.5475 57.4219 40.4889 48.7695C40.3912 38.7695 40.3326 31.5039 40.0787 26.0742C39.3756 10.1562 34.9615 5.54688 20.235 5.54688C5.52795 5.54688 1.11389 10.1562 0.410764 26.0742C0.156858 31.5039 0.0982638 38.7695 0.0006075 48.7695C-0.0579862 57.4219 4.1217 61.6992 12.6569 61.6992ZM12.6569 58.4766C5.93811 58.4766 3.16467 55.6641 3.22326 48.8086C3.32092 38.8086 3.37951 31.6016 3.63342 26.2305C4.25842 12.0312 7.36389 8.78906 20.235 8.78906C33.1256 8.78906 36.2311 12.0312 36.8561 26.2305C37.11 31.6016 37.1686 38.8086 37.2662 48.8086C37.3248 55.6641 34.5514 58.4766 27.8326 58.4766ZM20.2545 0C15.8014 0 12.5787 3.06641 12.5787 7.20703L15.6451 7.20703C15.6451 4.80469 17.5787 3.06641 20.2545 3.06641C22.9303 3.06641 24.8444 4.80469 24.8444 7.20703L27.9108 7.20703C27.9108 3.06641 24.6881 0 20.2545 0ZM12.1881 51.9336L28.3014 51.9336C30.5084 51.9336 31.9537 50.4883 31.9537 48.2812L31.9537 35.9375C31.9537 33.7305 30.5084 32.2852 28.3014 32.2852L12.1881 32.2852C10.0006 32.2852 8.53576 33.75 8.53576 35.9375L8.53576 48.2812C8.53576 50.4688 10.0006 51.9336 12.1881 51.9336ZM12.6569 48.8867C12.0319 48.8867 11.6022 48.457 11.6022 47.832L11.6022 36.3672C11.6022 35.7617 12.0319 35.332 12.6569 35.332L27.8326 35.332C28.4576 35.332 28.8873 35.7617 28.8873 36.3672L28.8873 47.832C28.8873 48.457 28.4576 48.8867 27.8326 48.8867ZM10.2936 41.7383L30.1764 41.7383L30.1764 38.9648L10.2936 38.9648Z" fill="black" fill-opacity="0.85"/>
 </g>
</svg>
