<?xml version="1.0" encoding="UTF-8"?>
<!--Generator: Apple Native CoreSVG 326-->
<!DOCTYPE svg
PUBLIC "-//W3C//DTD SVG 1.1//EN"
       "http://www.w3.org/Graphics/SVG/1.1/DTD/svg11.dtd">
<svg version="1.1" xmlns="http://www.w3.org/2000/svg" xmlns:xlink="http://www.w3.org/1999/xlink" viewBox="0 0 51.25 50.918">
 <g>
  <rect height="50.918" opacity="0" width="51.25" x="0" y="0"/>
  <path d="M25.4297 50.8789C39.4727 50.8789 50.8789 39.4922 50.8789 25.4492C50.8789 11.4062 39.4727 0 25.4297 0C11.3867 0 0 11.4062 0 25.4492C0 39.4922 11.3867 50.8789 25.4297 50.8789ZM25.4297 47.2461C13.3789 47.2461 3.63281 37.5 3.63281 25.4492C3.63281 13.3984 13.3789 3.65234 25.4297 3.65234C37.4805 3.65234 47.2266 13.3984 47.2266 25.4492C47.2266 37.5 37.4805 47.2461 25.4297 47.2461Z" fill="black" fill-opacity="0.85"/>
  <path d="M34.6875 34.7656C35.5469 34.7656 36.2891 34.1211 36.2891 32.8711L36.2891 18.1055C36.2891 16.875 35.5469 16.2305 34.6875 16.2305C34.2578 16.2305 33.8281 16.3867 33.418 16.6406L21.0742 23.8867C20.3516 24.3164 20 24.8633 20 25.4883C20 26.1133 20.3516 26.6797 21.0742 27.0898L33.418 34.3555C33.8281 34.6094 34.2578 34.7656 34.6875 34.7656ZM16.0156 35.1172L18.7109 35.1172C19.6875 35.1172 20.1953 34.6289 20.1953 33.6328L20.1953 17.2656C20.1953 16.25 19.6875 15.8008 18.7109 15.8008L16.0156 15.8008C15.0586 15.8008 14.5508 16.2695 14.5508 17.2656L14.5508 33.6328C14.5508 34.6289 15.0586 35.1172 16.0156 35.1172Z" fill="black" fill-opacity="0.85"/>
 </g>
</svg>
