<?xml version="1.0" encoding="UTF-8"?>
<!--Generator: Apple Native CoreSVG 326-->
<!DOCTYPE svg
PUBLIC "-//W3C//DTD SVG 1.1//EN"
       "http://www.w3.org/Graphics/SVG/1.1/DTD/svg11.dtd">
<svg version="1.1" xmlns="http://www.w3.org/2000/svg" xmlns:xlink="http://www.w3.org/1999/xlink" viewBox="0 0 44.5508 50.0586">
 <g>
  <rect height="50.0586" opacity="0" width="44.5508" x="0" y="0"/>
  <path d="M7.59766 50.0391L37.168 50.0391C41.6406 50.0391 44.1797 47.4805 44.1797 42.5L44.1797 16.2109C44.1797 11.25 41.6211 8.69141 36.582 8.69141L7.59766 8.69141C2.55859 8.69141 0 11.2305 0 16.2109L0 42.5C0 47.5 2.55859 50.0391 7.59766 50.0391ZM12.4609 9.66797L15.918 9.6875C15.918 5.97656 18.4766 3.28125 22.0898 3.28125C25.7031 3.28125 28.2617 5.97656 28.2617 9.6875L31.7188 9.66797C31.7188 4.25781 27.5391 0 22.0898 0C16.6406 0 12.4609 4.25781 12.4609 9.66797Z" fill="black" fill-opacity="0.85"/>
 </g>
</svg>
