<?xml version="1.0" encoding="UTF-8"?>
<!--Generator: Apple Native CoreSVG 326-->
<!DOCTYPE svg
PUBLIC "-//W3C//DTD SVG 1.1//EN"
       "http://www.w3.org/Graphics/SVG/1.1/DTD/svg11.dtd">
<svg version="1.1" xmlns="http://www.w3.org/2000/svg" xmlns:xlink="http://www.w3.org/1999/xlink" viewBox="0 0 51.25 50.918">
 <g>
  <rect height="50.918" opacity="0" width="51.25" x="0" y="0"/>
  <path d="M50.8789 25.4688C50.8789 39.4922 39.4531 50.918 25.4297 50.918C11.4258 50.918 0 39.4922 0 25.4688C0 11.4648 11.4258 0.0390625 25.4297 0.0390625C39.4531 0.0390625 50.8789 11.4648 50.8789 25.4688ZM19.9805 15.8398L17.6758 15.8398C14.9414 15.8398 13.5352 17.168 13.5352 19.8633L13.5352 34.0234C13.5352 36.6797 14.9414 38.0469 17.6758 38.0469L33.5352 38.0469C35.9375 38.0469 37.3242 36.6602 37.3242 34.0234L37.3242 19.8633C37.3242 17.1875 35.918 15.8398 33.2031 15.8398L30.8789 15.8398C30.8398 13.0859 28.5156 10.7031 25.4297 10.7031C22.3438 10.7031 20.0391 13.0859 19.9805 15.8398ZM28.6523 15.8398L22.207 15.8398C22.2656 13.9844 23.4766 12.8125 25.4297 12.8125C27.3828 12.8125 28.6133 13.9844 28.6523 15.8398Z" fill="black" fill-opacity="0.85"/>
 </g>
</svg>
