<?xml version="1.0" encoding="UTF-8"?>
<!--Generator: Apple Native CoreSVG 326-->
<!DOCTYPE svg
PUBLIC "-//W3C//DTD SVG 1.1//EN"
       "http://www.w3.org/Graphics/SVG/1.1/DTD/svg11.dtd">
<svg version="1.1" xmlns="http://www.w3.org/2000/svg" xmlns:xlink="http://www.w3.org/1999/xlink" viewBox="0 0 60.4102 50.0586">
 <g>
  <rect height="50.0586" opacity="0" width="60.4102" x="0" y="0"/>
  <path d="M60.0391 30.0195C60.0391 22.6562 57.3828 15.918 52.9688 10.6836C52.4609 10.0781 51.6016 10.0977 51.0352 10.6641L45.3906 16.3086C44.9023 16.7969 44.8828 17.4805 45.3125 18.0273C47.9102 21.3477 49.4531 25.4883 49.4531 30.0195C49.4531 34.5508 47.9102 38.7109 45.1953 42.1484C44.8242 42.6172 44.8438 43.2031 45.2539 43.6133L51.0352 49.4141C51.6016 50 52.4414 49.9805 52.9688 49.375C57.3828 44.1406 60.0391 37.3633 60.0391 30.0195Z" fill="black" fill-opacity="0.85"/>
  <path d="M30.0195 10.5664C34.5508 10.5664 38.7305 12.1289 42.0508 14.7656C42.5781 15.1562 43.2227 15.1172 43.7109 14.6289L49.375 8.96484C49.9609 8.39844 49.9414 7.55859 49.3359 7.03125C44.1211 2.65625 37.3633 0 30.0195 0C22.6758 0 15.918 2.65625 10.7031 7.03125C10.0977 7.55859 10.0781 8.39844 10.6445 8.96484L16.3281 14.6289C16.7969 15.1172 17.5 15.1367 18.0469 14.707C21.3477 12.1289 25.5078 10.5664 30.0195 10.5664Z" fill="black" fill-opacity="0.85"/>
  <path d="M0 30.0195C0 37.3633 2.65625 44.1406 7.07031 49.375C7.57812 49.9805 8.4375 50 9.00391 49.4141L14.7852 43.6133C15.1758 43.2031 15.2148 42.6172 14.8438 42.1484C12.1289 38.7109 10.5664 34.5508 10.5664 30.0195C10.5664 25.4883 12.1094 21.3477 14.7266 18.0273C15.1367 17.4805 15.1367 16.7969 14.6484 16.3086L8.98438 10.6641C8.41797 10.0977 7.57812 10.0781 7.05078 10.6836C2.63672 15.918 0 22.6562 0 30.0195Z" fill="black" fill-opacity="0.85"/>
  <path d="M25 41.3281L31.2109 41.3281C35.4297 41.3281 38.75 39.375 38.75 35.2344C38.75 32.1289 36.5625 30.1172 33.5742 29.7852L33.5742 29.6289C35.8984 29.2773 37.6367 27.0898 37.6367 24.7461C37.6367 21.0742 34.5508 19.2773 31.1719 19.2773L25 19.2773C23.9453 19.2773 23.3594 19.9609 23.3594 20.9375L23.3594 39.6875C23.3594 40.625 23.9648 41.3281 25 41.3281ZM25.957 28.8867L25.957 21.4844L30.5469 21.4844C33.0859 21.4844 35.0391 22.5391 35.0391 25.0586C35.0391 27.8125 32.7734 28.8867 29.9219 28.8867ZM25.957 39.1406L25.957 31.0352L30.4883 31.0352C33.5352 31.0352 36.1133 32.0508 36.1133 35.0781C36.1133 38.0273 33.7305 39.1406 30.7422 39.1406ZM30 44.2188C30.4688 44.2188 30.7617 43.9062 30.7617 43.4375L30.7617 16.9922C30.7617 16.5234 30.4492 16.2109 30 16.2109C29.5312 16.2109 29.2188 16.5234 29.2188 16.9922L29.2188 43.4375C29.2188 43.9062 29.5312 44.2188 30 44.2188Z" fill="black" fill-opacity="0.85"/>
 </g>
</svg>
