<?xml version="1.0" encoding="UTF-8"?>
<!--Generator: Apple Native CoreSVG 326-->
<!DOCTYPE svg
PUBLIC "-//W3C//DTD SVG 1.1//EN"
       "http://www.w3.org/Graphics/SVG/1.1/DTD/svg11.dtd">
<svg version="1.1" xmlns="http://www.w3.org/2000/svg" xmlns:xlink="http://www.w3.org/1999/xlink" viewBox="0 0 55.5273 53.1055">
 <g>
  <rect height="53.1055" opacity="0" width="55.5273" x="0" y="0"/>
  <path d="M30.5273 0.839844L52.1094 13.3008C52.8906 13.75 53.2422 14.3164 53.2422 14.9609C53.2422 15.8398 52.5781 16.6797 51.3867 16.6797L49.1211 16.6797L49.1211 46.5039L50.7227 46.5039C51.582 46.5039 52.0898 47.0117 52.0898 47.8516L52.0898 49.6094L53.418 49.6094C54.375 49.6094 55.1562 50.3906 55.1562 51.3477C55.1562 52.2852 54.375 53.0664 53.418 53.0664L1.73828 53.0664C0.78125 53.0664 0 52.2852 0 51.3477C0 50.3906 0.78125 49.6094 1.73828 49.6094L3.06641 49.6094L3.06641 47.8516C3.06641 47.0117 3.57422 46.5039 4.45312 46.5039L6.05469 46.5039L6.05469 16.6797L3.76953 16.6797C2.57812 16.6797 1.91406 15.8398 1.91406 14.9609C1.91406 14.3164 2.24609 13.75 3.04688 13.3008L24.6289 0.839844C25.5664 0.292969 26.6016 0 27.5781 0C28.5547 0 29.5703 0.292969 30.5273 0.839844ZM26.7773 14.9805L26.7773 17.3242L22.4609 17.3242C21.3672 17.3242 20.7617 18.0273 20.7617 19.043L20.7617 38.2422C20.7617 39.1992 21.3867 39.9219 22.4609 39.9219L26.7773 39.9219L26.7773 42.0898C26.7773 42.5586 27.0898 42.8906 27.5781 42.8906C28.0664 42.8906 28.3594 42.5586 28.3594 42.0898L28.3594 39.9219L28.8086 39.9219C33.1445 39.9219 36.5625 37.9297 36.5625 33.6523C36.5625 30.5078 34.3164 28.4375 31.25 28.0859L31.25 27.9297C33.6328 27.5781 35.4102 25.332 35.4102 22.9297C35.4102 19.1602 32.2461 17.3242 28.7695 17.3242L28.3594 17.3242L28.3594 14.9805C28.3594 14.4922 28.0469 14.1797 27.5781 14.1797C27.0898 14.1797 26.7773 14.4922 26.7773 14.9805ZM26.7773 37.6758L23.4375 37.6758L23.4375 29.375L26.7773 29.375ZM33.8281 33.5156C33.8281 36.4453 31.543 37.6758 28.6328 37.6758L28.3594 37.6758L28.3594 29.3945L28.5156 29.3945C31.4258 29.3945 33.8281 30.5664 33.8281 33.5156ZM26.7773 27.168L23.4375 27.168L23.4375 19.6094L26.7773 19.6094ZM32.7344 23.2422C32.7344 25.7617 30.8594 26.9336 28.3594 27.1094L28.3594 19.6094C30.8984 19.707 32.7344 20.8008 32.7344 23.2422Z" fill="black" fill-opacity="0.85"/>
 </g>
</svg>
