<?xml version="1.0" encoding="UTF-8"?>
<!--Generator: Apple Native CoreSVG 326-->
<!DOCTYPE svg
PUBLIC "-//W3C//DTD SVG 1.1//EN"
       "http://www.w3.org/Graphics/SVG/1.1/DTD/svg11.dtd">
<svg version="1.1" xmlns="http://www.w3.org/2000/svg" xmlns:xlink="http://www.w3.org/1999/xlink" viewBox="0 0 51.25 50.918">
 <g>
  <rect height="50.918" opacity="0" width="51.25" x="0" y="0"/>
  <path d="M50.8789 25.4492C50.8789 39.4531 39.4531 50.8789 25.4297 50.8789C11.4258 50.8789 0 39.4531 0 25.4492C0 11.4258 11.4258 0 25.4297 0C39.4531 0 50.8789 11.4258 50.8789 25.4492ZM24.6094 11.7578L24.6094 14.1016L20.293 14.1016C19.2188 14.1016 18.5938 14.8047 18.5938 15.8203L18.5938 35.0391C18.5938 35.9961 19.2383 36.6992 20.293 36.6992L24.6094 36.6992L24.6094 38.8672C24.6094 39.3555 24.9219 39.6875 25.4102 39.6875C25.8984 39.6875 26.1914 39.3555 26.1914 38.8672L26.1914 36.6992L26.6602 36.6992C30.9766 36.6992 34.3945 34.7266 34.3945 30.4492C34.3945 27.3047 32.168 25.2344 29.1016 24.8633L29.1016 24.707C31.4844 24.3555 33.2422 22.1289 33.2422 19.707C33.2422 15.9375 30.0977 14.1016 26.6211 14.1016L26.1914 14.1016L26.1914 11.7578C26.1914 11.2891 25.8789 10.957 25.4102 10.957C24.9219 10.957 24.6094 11.2891 24.6094 11.7578ZM24.6094 34.4531L21.2695 34.4531L21.2695 26.1719L24.6094 26.1719ZM31.6797 30.293C31.6797 33.2422 29.3945 34.4531 26.4844 34.4531L26.1914 34.4531L26.1914 26.1914L26.3477 26.1914C29.2773 26.1914 31.6797 27.3438 31.6797 30.293ZM24.6094 23.9648L21.2695 23.9648L21.2695 16.3867L24.6094 16.3867ZM30.5859 20.0391C30.5859 22.5586 28.6914 23.7305 26.1914 23.9062L26.1914 16.3867C28.7305 16.4844 30.5859 17.5781 30.5859 20.0391Z" fill="black" fill-opacity="0.85"/>
 </g>
</svg>
