<?xml version="1.0" encoding="UTF-8"?>
<!--Generator: Apple Native CoreSVG 326-->
<!DOCTYPE svg
PUBLIC "-//W3C//DTD SVG 1.1//EN"
       "http://www.w3.org/Graphics/SVG/1.1/DTD/svg11.dtd">
<svg version="1.1" xmlns="http://www.w3.org/2000/svg" xmlns:xlink="http://www.w3.org/1999/xlink" viewBox="0 0 56.2305 55.8789">
 <g>
  <rect height="55.8789" opacity="0" width="56.2305" x="0" y="0"/>
  <path d="M27.9297 55.8594C43.2812 55.8594 55.8594 43.3008 55.8594 27.9297C55.8594 12.5586 43.2812 0 27.9297 0C12.5781 0 0 12.5586 0 27.9297C0 43.3008 12.5781 55.8594 27.9297 55.8594ZM27.9297 46.6797C17.5586 46.6797 9.16016 38.3008 9.16016 27.9297C9.16016 17.5586 17.5586 9.16016 27.9297 9.16016C38.3008 9.16016 46.6992 17.5586 46.6992 27.9297C46.6992 38.3008 38.3008 46.6797 27.9297 46.6797Z" fill="black" fill-opacity="0.85"/>
  <path d="M22.9297 38.9062L29.1406 38.9062C33.3594 38.9062 36.6992 36.9727 36.6992 32.8125C36.6992 29.7266 34.4922 27.7148 31.5234 27.3633L31.5234 27.207C33.8477 26.8555 35.5664 24.6875 35.5664 22.3242C35.5664 18.6719 32.4805 16.8555 29.1211 16.8555L22.9297 16.8555C21.8945 16.8555 21.2891 17.5586 21.2891 18.5156L21.2891 37.2656C21.2891 38.2227 21.9141 38.9062 22.9297 38.9062ZM23.8867 26.4844L23.8867 19.0625L28.4961 19.0625C31.0156 19.0625 32.9883 20.1172 32.9883 22.6367C32.9883 25.4102 30.7031 26.4844 27.8516 26.4844ZM23.8867 36.7188L23.8867 28.6328L28.4375 28.6328C31.4648 28.6328 34.043 29.6289 34.043 32.6562C34.043 35.625 31.6797 36.7188 28.6719 36.7188ZM27.9297 41.7969C28.3984 41.7969 28.6914 41.4844 28.6914 41.0156L28.6914 14.5898C28.6914 14.1016 28.3789 13.7891 27.9297 13.7891C27.4609 13.7891 27.1484 14.1016 27.1484 14.5898L27.1484 41.0156C27.1484 41.4844 27.4609 41.7969 27.9297 41.7969Z" fill="black" fill-opacity="0.85"/>
 </g>
</svg>
