<?xml version="1.0" encoding="UTF-8"?>
<!--Generator: Apple Native CoreSVG 326-->
<!DOCTYPE svg
PUBLIC "-//W3C//DTD SVG 1.1//EN"
       "http://www.w3.org/Graphics/SVG/1.1/DTD/svg11.dtd">
<svg version="1.1" xmlns="http://www.w3.org/2000/svg" xmlns:xlink="http://www.w3.org/1999/xlink" viewBox="0 0 53.1836 73.418">
 <g>
  <rect height="73.418" opacity="0" width="53.1836" x="0" y="0"/>
  <path d="M15.3516 19.375C15.3516 28.6296 19.2057 36.8125 25.2033 40.9475C23.4808 43.2825 21.2572 44.9606 18.7252 45.6799L19.4531 48.4375C19.668 49.2578 19.2578 50.0781 18.2031 50.0781L16.9389 50.0781C17.4628 53.5121 20.6641 54.2684 20.6641 58.7109C20.6641 63.2812 16.543 64.082 16.543 68.9258C16.543 69.6875 15.8984 70.332 15.1172 70.332C14.375 70.332 13.7695 69.6875 13.7695 68.9258C13.7695 62.2852 17.9297 62.1094 17.9297 58.7109C17.9297 55.3912 14.5399 54.9163 14.1245 50.0781L12.6953 50.0781C11.6992 50.0781 11.25 49.2578 11.4648 48.4375L12.2439 45.4283C6.65086 43.3774 2.73438 36.606 2.73438 28.5156C2.73438 20.908 7.83878 14.8589 15.83 14.8451C15.5096 16.2848 15.3516 17.8032 15.3516 19.375Z" fill="black" fill-opacity="0.85"/>
  <path d="M34.2383 40.7031C43.125 40.7031 50.0781 31.2695 50.0781 19.375C50.0781 10.0391 43.6328 3.10547 34.2383 3.10547C24.8633 3.10547 18.457 10.0391 18.457 19.375C18.457 31.2695 25.3516 40.7031 34.2383 40.7031ZM31.0156 39.2383L29.9023 43.3984C29.668 44.2969 30.1562 45.2148 31.2695 45.2148L37.2461 45.2148C38.3594 45.2148 38.8672 44.2969 38.6133 43.3984L37.4805 39.2383ZM33.7695 70C34.6289 70 35.332 69.2969 35.332 68.457C35.332 62.8516 40.3711 61.4844 40.3711 55.9961C40.3711 50.4688 35.6641 49.1406 35.7031 44.1406L32.6172 44.1602C32.5977 50.8008 37.3047 51.8555 37.3047 55.9961C37.3047 60.2344 32.2461 60.8594 32.2461 68.457C32.2461 69.2969 32.9297 70 33.7695 70Z" fill="black" fill-opacity="0.85"/>
 </g>
</svg>
