<?xml version="1.0" encoding="UTF-8"?>
<!--Generator: Apple Native CoreSVG 326-->
<!DOCTYPE svg
PUBLIC "-//W3C//DTD SVG 1.1//EN"
       "http://www.w3.org/Graphics/SVG/1.1/DTD/svg11.dtd">
<svg version="1.1" xmlns="http://www.w3.org/2000/svg" xmlns:xlink="http://www.w3.org/1999/xlink" viewBox="0 0 65.6836 40.7617">
 <g>
  <rect height="40.7617" opacity="0" width="65.6836" x="0" y="0"/>
  <path d="M6.28906 33.125C6.28906 33.9844 6.77734 34.4727 7.59766 34.4727L57.6953 34.4727C58.5352 34.4727 59.0234 33.9844 59.0234 33.125L59.0234 7.63672C59.0234 6.77734 58.5352 6.28906 57.6953 6.28906L7.59766 6.28906C6.77734 6.28906 6.28906 6.77734 6.28906 7.63672ZM8.55469 31.6797L8.55469 9.08203C8.55469 8.75 8.73047 8.57422 9.08203 8.57422L56.2305 8.57422C56.5625 8.57422 56.7383 8.75 56.7383 9.08203L56.7383 31.6797C56.7383 32.0117 56.5625 32.1875 56.2305 32.1875L9.08203 32.1875C8.73047 32.1875 8.55469 32.0117 8.55469 31.6797ZM32.5781 34.4727C37.8516 34.4727 42.3047 29.1211 42.3047 20.3516C42.3047 11.6211 37.8516 6.28906 32.5781 6.28906C27.4023 6.28906 23.0078 11.6211 23.0078 20.3516C23.0078 29.1211 27.3828 34.4727 32.5781 34.4727ZM32.5781 31.8555C28.8867 31.8555 25.5664 27.5781 25.5664 20.3516C25.5664 13.1445 28.8867 8.90625 32.5781 8.90625C36.3477 8.90625 39.7656 13.1445 39.7656 20.3516C39.7656 27.5781 36.3477 31.8555 32.5781 31.8555Z" fill="black" fill-opacity="0.85"/>
  <path d="M0 38.9258C0 40.0391 0.722656 40.7422 1.81641 40.7422L63.4766 40.7422C64.5898 40.7422 65.3125 40.0391 65.3125 38.9258L65.3125 1.81641C65.3125 0.722656 64.5898 0 63.4766 0L1.81641 0C0.722656 0 0 0.722656 0 1.81641ZM3.45703 36.6016L3.45703 4.14062C3.45703 3.65234 3.65234 3.47656 4.14062 3.47656L61.1719 3.47656C61.6406 3.47656 61.8359 3.65234 61.8359 4.14062L61.8359 36.6016C61.8359 37.0898 61.6406 37.2852 61.1719 37.2852L4.14062 37.2852C3.65234 37.2852 3.45703 37.0898 3.45703 36.6016Z" fill="black" fill-opacity="0.85"/>
 </g>
</svg>
