<?xml version="1.0" encoding="UTF-8"?>
<!--Generator: Apple Native CoreSVG 326-->
<!DOCTYPE svg
PUBLIC "-//W3C//DTD SVG 1.1//EN"
       "http://www.w3.org/Graphics/SVG/1.1/DTD/svg11.dtd">
<svg version="1.1" xmlns="http://www.w3.org/2000/svg" xmlns:xlink="http://www.w3.org/1999/xlink" viewBox="0 0 51.25 50.918">
 <g>
  <rect height="50.918" opacity="0" width="51.25" x="0" y="0"/>
  <path d="M25.4297 50.8789C39.4727 50.8789 50.8789 39.4922 50.8789 25.4492C50.8789 11.4062 39.4727 0 25.4297 0C11.3867 0 0 11.4062 0 25.4492C0 39.4922 11.3867 50.8789 25.4297 50.8789ZM25.4297 47.2461C13.3789 47.2461 3.63281 37.5 3.63281 25.4492C3.63281 13.3984 13.3789 3.65234 25.4297 3.65234C37.4805 3.65234 47.2266 13.3984 47.2266 25.4492C47.2266 37.5 37.4805 47.2461 25.4297 47.2461Z" fill="black" fill-opacity="0.85"/>
  <path d="M25.4297 30.7617C28.3789 30.7617 30.7617 28.3789 30.7617 25.4492C30.7617 22.5 28.3789 20.1172 25.4297 20.1172C22.5 20.1172 20.1172 22.5 20.1172 25.4492C20.1172 28.3789 22.5 30.7617 25.4297 30.7617ZM25.4297 27.9883C24.0234 27.9883 22.8906 26.8555 22.8906 25.4492C22.8906 24.0234 24.0234 22.8906 25.4297 22.8906C26.8555 22.8906 27.9883 24.0234 27.9883 25.4492C27.9883 26.8555 26.8555 27.9883 25.4297 27.9883ZM26.9141 21.582L29.375 24.0039L38.5547 14.8242C39.2188 14.1602 39.2188 13.0469 38.5547 12.3828C37.8906 11.7188 36.7773 11.7188 36.1133 12.3828ZM24.0625 29.3164L21.6211 26.875L18.1836 30.3125C17.5 30.9961 17.5 32.0898 18.1836 32.7539C18.8477 33.4375 19.9414 33.4375 20.625 32.7539Z" fill="black" fill-opacity="0.85"/>
 </g>
</svg>
