<?xml version="1.0" encoding="UTF-8"?>
<!--Generator: Apple Native CoreSVG 326-->
<!DOCTYPE svg
PUBLIC "-//W3C//DTD SVG 1.1//EN"
       "http://www.w3.org/Graphics/SVG/1.1/DTD/svg11.dtd">
<svg version="1.1" xmlns="http://www.w3.org/2000/svg" xmlns:xlink="http://www.w3.org/1999/xlink" viewBox="0 0 58.0078 54.591">
 <g>
  <rect height="54.591" opacity="0" width="58.0078" x="0" y="0"/>
  <path d="M0 24.1022C0 26.2897 1.34766 27.6373 3.55469 27.6373L54.082 27.6373C56.2891 27.6373 57.6367 26.2897 57.6367 24.1022L57.6367 20.7428C57.6367 18.5553 56.2891 17.1686 54.082 17.1686L3.55469 17.1686C1.34766 17.1686 0 18.5553 0 20.7428ZM4.31641 20.5865L53.3008 20.5865C53.9062 20.5865 54.2383 20.9381 54.2383 21.5436L54.2383 23.2819C54.2383 23.8678 53.9062 24.2389 53.3008 24.2389L4.31641 24.2389C3.73047 24.2389 3.39844 23.8678 3.39844 23.2819L3.39844 21.5436C3.39844 20.9381 3.73047 20.5865 4.31641 20.5865ZM15.1758 52.8326L42.4609 52.8326C47.6562 52.8326 49.4531 49.8248 50.1758 46.3287L54.2188 26.6998L50.8008 26.2701L46.9922 45.0983C46.3672 48.0865 45.3711 49.3951 41.9141 49.3951L15.7227 49.3951C12.2656 49.3951 11.2695 48.0865 10.6641 45.0983L6.83594 26.2701L3.4375 26.6998L7.48047 46.3287C8.18359 49.8248 9.98047 52.8326 15.1758 52.8326ZM18.2031 46.5045C19.0039 46.3678 19.4531 45.7819 19.3164 45.0592L17.1484 31.3678C17.0117 30.6256 16.3867 30.2154 15.6055 30.3522C14.8047 30.4889 14.3359 31.0748 14.4727 31.7779L16.6797 45.4889C16.7969 46.2115 17.4023 46.6217 18.2031 46.5045ZM25.3906 46.4069C26.1719 46.3483 26.6992 45.8014 26.6602 45.0787L25.7422 31.4459C25.6836 30.7037 25.1367 30.1959 24.3359 30.274C23.5352 30.3131 23.0078 30.86 23.0469 31.6217L23.9648 45.235C24.0234 45.9772 24.5898 46.4654 25.3906 46.4069ZM32.2852 46.4069C33.0664 46.4654 33.6523 45.9772 33.6914 45.235L34.6094 31.6217C34.668 30.86 34.1211 30.3131 33.3398 30.274C32.5391 30.1959 31.9727 30.7037 31.9336 31.4459L31.0156 45.0787C30.957 45.8014 31.5039 46.3483 32.2852 46.4069ZM39.4336 46.5045C40.2148 46.6217 40.8398 46.2115 40.9766 45.4889L43.1836 31.7779C43.3008 31.0748 42.832 30.4889 42.0508 30.3522C41.25 30.2154 40.625 30.6256 40.5078 31.3678L38.3203 45.0592C38.2031 45.7819 38.6328 46.3678 39.4336 46.5045ZM8.02734 18.0279L12.2852 18.0279L21.1523 2.59826C21.7383 1.58263 21.2695 0.664663 20.4883 0.234976C19.707-0.175181 18.6719-0.0970556 18.1055 0.859976ZM45.3516 18.0279L49.6289 18.0279L39.5312 0.859976C38.9844-0.0775244 37.9492-0.155649 37.1484 0.234976C36.3672 0.664663 35.8984 1.58263 36.4844 2.59826Z" fill="black" fill-opacity="0.85"/>
 </g>
</svg>
