<?xml version="1.0" encoding="UTF-8"?>
<!--Generator: Apple Native CoreSVG 326-->
<!DOCTYPE svg
PUBLIC "-//W3C//DTD SVG 1.1//EN"
       "http://www.w3.org/Graphics/SVG/1.1/DTD/svg11.dtd">
<svg version="1.1" xmlns="http://www.w3.org/2000/svg" xmlns:xlink="http://www.w3.org/1999/xlink" viewBox="0 0 63.5547 38.6133">
 <g>
  <rect height="38.6133" opacity="0" width="63.5547" x="0" y="0"/>
  <path d="M0 3.06641C0 4.76562 1.38672 6.15234 3.08594 6.15234L60.0977 6.15234C61.7969 6.15234 63.1836 4.76562 63.1836 3.06641C63.1836 1.36719 61.7969 0 60.0977 0L3.08594 0C1.38672 0 0 1.36719 0 3.06641ZM17.1875 32.793L45.9766 32.793C55.2344 32.793 59.9805 28.3008 59.9805 19.5312L59.9805 9.25781L3.20312 9.25781L3.20312 19.5312C3.20312 28.3008 7.94922 32.793 17.1875 32.793ZM10.3711 38.2422C11.2695 38.5742 12.2852 38.0859 12.5977 37.207L14.6875 31.4453L11.4453 30.2734L9.35547 36.0156C9.04297 36.9141 9.49219 37.9297 10.3711 38.2422ZM52.793 38.2422C53.6914 37.9297 54.1406 36.9141 53.8281 36.0156L51.7383 30.2734L48.4961 31.4453L50.5664 37.207C50.8984 38.0859 51.9141 38.5742 52.793 38.2422Z" fill="black" fill-opacity="0.85"/>
 </g>
</svg>
