<?xml version="1.0" encoding="UTF-8"?>
<!--Generator: Apple Native CoreSVG 326-->
<!DOCTYPE svg
PUBLIC "-//W3C//DTD SVG 1.1//EN"
       "http://www.w3.org/Graphics/SVG/1.1/DTD/svg11.dtd">
<svg version="1.1" xmlns="http://www.w3.org/2000/svg" xmlns:xlink="http://www.w3.org/1999/xlink" viewBox="0 0 65.4297 38.8477">
 <g>
  <rect height="38.8477" opacity="0" width="65.4297" x="0" y="0"/>
  <path d="M0 4.6875C0 7.36328 2.03125 9.35547 4.66797 9.35547L60.3906 9.35547C63.0273 9.35547 65.0586 7.36328 65.0586 4.6875C65.0586 2.01172 63.0273 0 60.3906 0L4.66797 0C2.03125 0 0 2.01172 0 4.6875ZM3.41797 4.6875C3.41797 3.92578 4.00391 3.37891 4.82422 3.37891L60.2344 3.37891C61.0547 3.37891 61.6406 3.92578 61.6406 4.6875C61.6406 5.44922 61.0547 5.99609 60.2344 5.99609L4.82422 5.99609C4.00391 5.99609 3.41797 5.44922 3.41797 4.6875ZM18.1445 33.0078L46.9141 33.0078C56.1719 33.0078 60.918 28.5156 60.918 19.7461L60.918 7.73438L57.4609 7.73438L57.4609 19.7461C57.4609 26.2305 53.8867 29.5508 46.9141 29.5508L18.1445 29.5508C11.1719 29.5508 7.59766 26.2305 7.59766 19.7461L7.59766 7.73438L4.14062 7.73438L4.14062 19.7461C4.14062 28.5156 8.88672 33.0078 18.1445 33.0078ZM11.3086 38.457C12.207 38.7891 13.2227 38.3008 13.5352 37.4219L15.625 31.6602L12.3828 30.4883L10.293 36.2305C9.98047 37.1289 10.4297 38.1445 11.3086 38.457ZM53.7305 38.457C54.6289 38.1445 55.0781 37.1289 54.7656 36.2305L52.6758 30.4883L49.4336 31.6602L51.5039 37.4219C51.8359 38.3008 52.8516 38.7891 53.7305 38.457Z" fill="black" fill-opacity="0.85"/>
 </g>
</svg>
