<?xml version="1.0" encoding="UTF-8"?>
<!--Generator: Apple Native CoreSVG 326-->
<!DOCTYPE svg
PUBLIC "-//W3C//DTD SVG 1.1//EN"
       "http://www.w3.org/Graphics/SVG/1.1/DTD/svg11.dtd">
<svg version="1.1" xmlns="http://www.w3.org/2000/svg" xmlns:xlink="http://www.w3.org/1999/xlink" viewBox="0 0 73.5547 40.6163">
 <g>
  <rect height="40.6163" opacity="0" width="73.5547" x="0" y="0"/>
  <path d="M30.0169 7.17337L12.5781 7.17337C9.64844 7.17337 6.91406 7.56399 5.39062 9.12649C3.86719 10.6499 3.45703 13.3452 3.45703 16.2945L3.45703 24.4781C3.45703 27.3101 3.86719 29.9663 5.39062 31.4898C6.93359 33.0327 9.62891 33.4624 12.4609 33.4624L24.9515 33.4624L24.4727 34.7515C24.1887 35.5213 24.1066 36.2523 24.1842 36.9195L13.1445 36.9195C8.67188 36.9195 5.29297 36.4507 2.85156 34.0288C0.429688 31.6265 0 28.2671 0 23.7945L0 16.7241C0 12.3882 0.449219 9.02884 2.87109 6.60696C5.29297 4.18509 8.69141 3.69681 13.0078 3.69681L32.7798 3.69681ZM62.7344 6.58743C65.1367 9.00931 65.5859 12.3687 65.5859 16.8413L65.5859 23.7945C65.5859 28.2671 65.1367 31.6265 62.7344 34.0288C60.3125 36.4507 56.9141 36.9195 52.4414 36.9195L33.3902 36.9195L36.1414 33.4624L53.125 33.4624C55.957 33.4624 58.6523 33.0523 60.1953 31.4898C61.7188 29.9663 62.1289 27.3101 62.1289 24.4781L62.1289 16.1577C62.1289 13.3257 61.7188 10.6695 60.1953 9.12649C58.6523 7.60306 55.957 7.17337 53.125 7.17337L41.2038 7.17337L41.6797 5.88431C41.9664 5.10695 42.0479 4.3691 41.9667 3.69681L52.4414 3.69681C56.9141 3.69681 60.293 4.18509 62.7344 6.58743ZM73.1836 20.3179C73.1836 24.0093 70.625 26.4702 68.6914 26.5874L68.6914 14.0484C70.625 14.1656 73.1836 16.6265 73.1836 20.3179Z" fill="black" fill-opacity="0.85"/>
  <path d="M20.2539 19.4585C19.5703 20.2984 19.1992 21.2749 19.1992 22.2906C19.1992 24.5952 21.0547 26.3921 23.3789 26.3921L27.5781 26.3921L25.9601 30.7476L11.4062 30.7476C9.35547 30.7476 8.10547 30.4156 7.30469 29.6343C6.50391 28.8335 6.17188 27.6226 6.17188 25.5327L6.17188 15.2202C6.17188 13.0523 6.50391 11.7827 7.30469 10.982C8.08594 10.2007 9.33594 9.88821 11.5234 9.88821L27.8595 9.88821ZM58.2812 11.0015C59.082 11.8023 59.3945 13.0132 59.3945 15.1031L59.3945 25.5327C59.3945 27.6031 59.082 28.8335 58.2812 29.6343C57.4805 30.4351 56.25 30.7476 54.1797 30.7476L38.3019 30.7476L45.918 21.1773C46.582 20.3374 46.9727 19.3609 46.9727 18.3452C46.9727 16.0406 45.0977 14.2437 42.793 14.2437L38.5938 14.2437L40.2016 9.88821L54.1797 9.88821C56.2305 9.88821 57.4805 10.2007 58.2812 11.0015Z" fill="black" fill-opacity="0.85"/>
  <path d="M22.2852 22.2906C22.2852 22.8765 22.7539 23.2866 23.3594 23.2866L32.0508 23.2866L27.3828 35.8257C26.8359 37.3101 28.418 38.1304 29.375 36.9195L43.4375 19.2827C43.6914 18.9312 43.8477 18.6382 43.8477 18.3452C43.8477 17.7593 43.3789 17.3491 42.7734 17.3491L34.082 17.3491L38.7305 4.81009C39.2773 3.32571 37.7148 2.5054 36.7383 3.71634L22.6953 21.3531C22.4219 21.7046 22.2852 21.9976 22.2852 22.2906Z" fill="black" fill-opacity="0.85"/>
 </g>
</svg>
