<?xml version="1.0" encoding="UTF-8"?>
<!--Generator: Apple Native CoreSVG 326-->
<!DOCTYPE svg
PUBLIC "-//W3C//DTD SVG 1.1//EN"
       "http://www.w3.org/Graphics/SVG/1.1/DTD/svg11.dtd">
<svg version="1.1" xmlns="http://www.w3.org/2000/svg" xmlns:xlink="http://www.w3.org/1999/xlink" viewBox="0 0 42.8906 40.4883">
 <g>
  <rect height="40.4883" opacity="0" width="42.8906" x="0" y="0"/>
  <path d="M18.0273 25.4102C21.4844 26.8945 25.4883 25.1953 26.9727 21.7969L31.9727 10.4297C33.4766 7.01172 31.8359 2.92969 28.3594 1.42578C24.8828-0.0195312 20.918 1.60156 19.3555 5.11719L14.3945 16.4453C12.8711 19.9219 14.5508 23.9062 18.0273 25.4102ZM20.5664 23.4766C18.1445 23.4766 16.25 21.5625 16.25 19.1211C16.25 16.6992 18.1641 14.7656 20.5664 14.7656C23.0273 14.7656 24.9414 16.6992 24.9414 19.1211C24.9414 21.5625 23.0273 23.4766 20.5664 23.4766ZM20.5664 21.7969C22.1094 21.7969 23.2617 20.6055 23.2617 19.1211C23.2617 17.6562 22.1094 16.4453 20.5664 16.4453C19.0625 16.4453 17.9297 17.6562 17.9297 19.1211C17.9297 20.6055 19.0625 21.7969 20.5664 21.7969ZM41.9922 18.1641C40.7031 13.8281 37.4414 11.7578 34.6875 9.47266C34.5703 10.1367 34.375 10.7422 34.1016 11.3477L29.1016 22.7148C27.0703 27.3438 21.7188 29.5117 17.0898 27.5586C12.6562 25.6055 10.4688 20.6641 12.0312 16.2109C9.92188 18.8086 9.39453 22.832 11.0742 27.5C14.1797 36.1523 22.0703 37.793 29.8047 34.7461L34.4727 32.9102C40.8203 30.3906 43.8477 24.5117 41.9922 18.1641Z" fill="black" fill-opacity="0.85"/>
  <path d="M8.88672 28.2812C7.73438 25.1172 7.48047 21.9922 8.125 18.9453C3.45703 20.1953 0 24.4531 0 29.5312C0 35.5859 4.88281 40.4883 10.8984 40.4883C13.6719 40.4883 16.1719 39.4531 18.0859 37.7539C13.9258 36.3867 10.6445 33.1445 8.88672 28.2812Z" fill="black" fill-opacity="0.425"/>
  <path d="M20.5664 23.4766C18.1445 23.4766 16.25 21.5625 16.25 19.1211C16.25 16.6992 18.1641 14.7656 20.5664 14.7656C23.0273 14.7656 24.9414 16.6992 24.9414 19.1211C24.9414 21.5625 23.0273 23.4766 20.5664 23.4766ZM20.5664 21.7969C22.1094 21.7969 23.2617 20.6055 23.2617 19.1211C23.2617 17.6562 22.1094 16.4453 20.5664 16.4453C19.0625 16.4453 17.9297 17.6562 17.9297 19.1211C17.9297 20.6055 19.0625 21.7969 20.5664 21.7969Z" fill="black" fill-opacity="0.2125"/>
 </g>
</svg>
