<?xml version="1.0" encoding="UTF-8"?>
<!--Generator: Apple Native CoreSVG 326-->
<!DOCTYPE svg
PUBLIC "-//W3C//DTD SVG 1.1//EN"
       "http://www.w3.org/Graphics/SVG/1.1/DTD/svg11.dtd">
<svg version="1.1" xmlns="http://www.w3.org/2000/svg" xmlns:xlink="http://www.w3.org/1999/xlink" viewBox="0 0 31.0742 51.7383">
 <g>
  <rect height="51.7383" opacity="0" width="31.0742" x="0" y="0"/>
  <path d="M20 0C9.02344 0 0 12.5977 0 28.0664C0 35.332 1.93359 43.3789 4.25781 43.3789C6.15234 43.3789 7.65625 40.8789 7.8125 38.418C4.23828 37.3828 1.58203 34.0625 1.58203 30.1758C1.58203 27.8711 2.48047 25.7812 4.10156 24.1211C4.88281 13.4375 11.7969 4.00391 19.7656 4.00391C24.5117 4.00391 26.6992 7.57812 26.6992 14.1602L7.73438 24.0625C4.96094 25.4883 3.69141 27.7734 3.69141 30.1758C3.69141 33.7109 6.60156 36.6211 10.1367 36.6211C11.875 36.6211 13.0469 36.1719 15.5078 34.8438L25.0781 29.6094C29.2383 27.3047 30.7031 24.5312 30.7031 18.6523L30.7031 13.457C30.7031 5.21484 27.0898 0 20 0ZM10.0195 34.2773C7.71484 34.2773 5.87891 32.4219 5.87891 30.1758C5.87891 27.8906 7.71484 26.0156 10.0195 26.0156C12.2656 26.0156 14.1211 27.8906 14.1211 30.1758C14.1211 32.4219 12.2656 34.2773 10.0195 34.2773ZM10.0195 32.7734C11.4258 32.7734 12.6172 31.582 12.6172 30.1758C12.6172 28.7305 11.4258 27.5391 10.0195 27.5391C8.55469 27.5391 7.40234 28.7305 7.40234 30.1758C7.40234 31.582 8.55469 32.7734 10.0195 32.7734ZM3.33984 51.7188L5.42969 51.7188L5.42969 42.3633L3.33984 42.3633Z" fill="black" fill-opacity="0.85"/>
  <path d="M10.0195 34.2773C7.71484 34.2773 5.87891 32.4219 5.87891 30.1758C5.87891 27.8906 7.71484 26.0156 10.0195 26.0156C12.2656 26.0156 14.1211 27.8906 14.1211 30.1758C14.1211 32.4219 12.2656 34.2773 10.0195 34.2773ZM10.0195 32.7734C11.4258 32.7734 12.6172 31.582 12.6172 30.1758C12.6172 28.7305 11.4258 27.5391 10.0195 27.5391C8.55469 27.5391 7.40234 28.7305 7.40234 30.1758C7.40234 31.582 8.55469 32.7734 10.0195 32.7734Z" fill="black" fill-opacity="0.2125"/>
 </g>
</svg>
