<?xml version="1.0" encoding="UTF-8"?>
<!--Generator: Apple Native CoreSVG 326-->
<!DOCTYPE svg
PUBLIC "-//W3C//DTD SVG 1.1//EN"
       "http://www.w3.org/Graphics/SVG/1.1/DTD/svg11.dtd">
<svg version="1.1" xmlns="http://www.w3.org/2000/svg" xmlns:xlink="http://www.w3.org/1999/xlink" viewBox="0 0 76.9141 40.8789">
 <g>
  <rect height="40.8789" opacity="0" width="76.9141" x="0" y="0"/>
  <path d="M0 20.4297C0 33.6133 9.53125 40.8398 25.7617 40.8398L50.8008 40.8398C67.0117 40.8398 76.543 33.6133 76.543 20.4297C76.543 7.22656 67.0117 0 50.8008 0L25.7617 0C9.53125 0 0 7.22656 0 20.4297ZM3.47656 20.4297C3.47656 9.39453 11.7188 3.45703 25.7617 3.45703L50.8008 3.45703C64.8242 3.45703 73.0859 9.39453 73.0859 20.4297C73.0859 31.4453 64.8242 37.3828 50.8008 37.3828L25.7617 37.3828C11.7188 37.3828 3.47656 31.4453 3.47656 20.4297ZM1.75781 20.332L74.8047 20.332L74.8047 18.0273L1.75781 18.0273ZM20.9961 21.9727L55.5469 21.9727C57.1875 21.9727 58.3594 20.8203 58.3594 19.1797C58.3594 17.5391 57.1875 16.3867 55.5469 16.3867L20.9961 16.3867C19.4141 16.3867 18.1836 17.5391 18.1836 19.1797C18.1836 20.8203 19.4141 21.9727 20.9961 21.9727ZM38.2812 29.3945C39.6484 29.375 40.7812 28.2031 40.7812 26.9141C40.7812 25.5469 39.6484 24.4141 38.2812 24.4141C36.8945 24.4141 35.7617 25.5469 35.7617 26.9141C35.7617 28.2617 36.8945 29.4336 38.2812 29.3945Z" fill="black" fill-opacity="0.85"/>
 </g>
</svg>
