<?xml version="1.0" encoding="UTF-8"?>
<!--Generator: Apple Native CoreSVG 326-->
<!DOCTYPE svg
PUBLIC "-//W3C//DTD SVG 1.1//EN"
       "http://www.w3.org/Graphics/SVG/1.1/DTD/svg11.dtd">
<svg version="1.1" xmlns="http://www.w3.org/2000/svg" xmlns:xlink="http://www.w3.org/1999/xlink" viewBox="0 0 47.4805 51.543">
 <g>
  <rect height="51.543" opacity="0" width="47.4805" x="0" y="0"/>
  <path d="M0 40.0586C0 41.6602 1.23047 42.7344 3.24219 42.7344L14.707 42.7344C14.8828 47.5 18.4961 51.5039 23.5547 51.5039C28.6133 51.5039 32.2266 47.5195 32.4023 42.7344L43.8477 42.7344C45.8789 42.7344 47.1094 41.6602 47.1094 40.0586C47.1094 37.5391 44.6094 35.293 42.4805 33.0664C40.5664 31.0156 40.2734 26.8359 39.9414 23.2617C39.6094 14.1602 37.0508 8.06641 30.5469 5.85938C29.7656 2.51953 27.1289 0 23.5547 0C19.9805 0 17.3242 2.51953 16.5625 5.85938C10.0586 8.06641 7.5 14.1602 7.16797 23.2617C6.83594 26.8359 6.54297 31.0156 4.62891 33.0664C2.48047 35.293 0 37.5391 0 40.0586ZM4.16016 39.4727L4.16016 39.1797C4.51172 38.2617 6.13281 36.6016 7.53906 35.0586C9.64844 32.7539 10.2148 28.7305 10.5859 23.5742C10.9766 13.6133 14.0039 10.0391 18.3594 8.84766C19.0625 8.67188 19.4531 8.33984 19.4922 7.67578C19.6484 5.05859 21.1523 3.18359 23.5547 3.18359C25.957 3.18359 27.4609 5.05859 27.5977 7.67578C27.6562 8.33984 28.0469 8.67188 28.75 8.84766C33.1055 10.0391 36.1328 13.6133 36.5234 23.5742C36.8945 28.7305 37.4609 32.7539 39.5703 35.0586C40.9766 36.6016 42.5977 38.2617 42.9492 39.1797L42.9492 39.4727ZM18.0664 42.7344L29.043 42.7344C28.8477 46.2305 26.6406 48.4766 23.5547 48.4766C20.4688 48.4766 18.2617 46.2305 18.0664 42.7344Z" fill="black" fill-opacity="0.85"/>
 </g>
</svg>
