<?xml version="1.0" encoding="UTF-8"?>
<!--Generator: Apple Native CoreSVG 326-->
<!DOCTYPE svg
PUBLIC "-//W3C//DTD SVG 1.1//EN"
       "http://www.w3.org/Graphics/SVG/1.1/DTD/svg11.dtd">
<svg version="1.1" xmlns="http://www.w3.org/2000/svg" xmlns:xlink="http://www.w3.org/1999/xlink" viewBox="0 0 46.2891 45.918">
 <g>
  <rect height="45.918" opacity="0" width="46.2891" x="0" y="0"/>
  <path d="M7.59766 45.918L38.3008 45.918C43.3594 45.918 45.918 43.3594 45.918 38.3984L45.918 7.53906C45.918 2.55859 43.3594 0 38.3008 0L7.59766 0C2.55859 0 0 2.53906 0 7.53906L0 38.3984C0 43.3984 2.55859 45.918 7.59766 45.918ZM7.67578 42.4609C4.94141 42.4609 3.45703 41.0156 3.45703 38.2031L3.45703 7.71484C3.45703 4.92188 4.94141 3.45703 7.67578 3.45703L38.2422 3.45703C40.918 3.45703 42.4609 4.92188 42.4609 7.71484L42.4609 38.2031C42.4609 41.0156 40.918 42.4609 38.2422 42.4609Z" fill="black" fill-opacity="0.85"/>
  <path d="M11.6602 32.0508L34.3164 32.0508C35.4102 32.0508 36.0742 31.4648 36.0742 30.5859C36.0742 29.1797 34.707 27.9688 33.4961 26.7188C32.4023 25.5469 32.3047 23.2031 32.1289 21.2109C31.9336 16.2695 30.4883 12.793 26.8945 11.5625C26.3867 9.70703 24.9609 8.30078 22.9883 8.30078C21.0156 8.30078 19.5898 9.70703 19.082 11.5625C15.4883 12.793 14.0625 16.2695 13.8672 21.2109C13.6719 23.2031 13.5352 25.5469 12.4805 26.7188C11.3086 27.9883 9.90234 29.1797 9.90234 30.5859C9.90234 31.4648 10.5664 32.0508 11.6602 32.0508ZM22.9883 37.7148C25.293 37.7148 26.9531 36.1133 27.1484 34.0625L18.8281 34.0625C19.043 36.1133 20.6836 37.7148 22.9883 37.7148Z" fill="black" fill-opacity="0.85"/>
 </g>
</svg>
