<?xml version="1.0" encoding="UTF-8"?>
<!--Generator: Apple Native CoreSVG 326-->
<!DOCTYPE svg
PUBLIC "-//W3C//DTD SVG 1.1//EN"
       "http://www.w3.org/Graphics/SVG/1.1/DTD/svg11.dtd">
<svg version="1.1" xmlns="http://www.w3.org/2000/svg" xmlns:xlink="http://www.w3.org/1999/xlink" viewBox="0 0 51.25 50.918">
 <g>
  <rect height="50.918" opacity="0" width="51.25" x="0" y="0"/>
  <path d="M50.8789 25.4688C50.8789 39.4922 39.4531 50.918 25.4297 50.918C11.4258 50.918 0 39.4922 0 25.4688C0 11.4648 11.4258 0.0390625 25.4297 0.0390625C39.4531 0.0390625 50.8789 11.4648 50.8789 25.4688ZM27.2266 12.5977C26.6602 12.5977 26.2305 13.0078 26.2305 13.5547C26.2305 14.082 26.6406 14.5312 27.2266 14.5312L30.1953 14.5312L31.8164 18.6328L21.7578 19.9219L20.1758 17.0703L21.2109 17.0703C21.7383 17.0703 22.207 16.6406 22.207 16.1328C22.207 15.5859 21.7773 15.1562 21.2109 15.1562L16.3867 15.1562C15.8594 15.1562 15.4297 15.5664 15.4297 16.1328C15.4297 16.6406 15.8594 17.0703 16.3867 17.0703L17.9883 17.0703L19.8438 20.4102L17.9883 22.5781C16.8359 21.7969 15.4492 21.3477 13.9648 21.3477C9.96094 21.3477 6.71875 24.5703 6.71875 28.5742C6.71875 32.5781 9.96094 35.8008 13.9648 35.8008C17.7148 35.8008 20.8203 32.9297 21.1719 29.2578L23.9258 29.2578C24.9609 29.2578 25.4688 29.043 26.0352 28.3984L32.6562 20.7031L33.3008 22.3047C31.1328 23.5547 29.668 25.8789 29.668 28.5742C29.668 32.5781 32.8906 35.8008 36.8945 35.8008C40.8984 35.8008 44.1406 32.5781 44.1406 28.5742C44.1406 24.5703 40.8984 21.3477 36.8945 21.3477C36.2695 21.3477 35.6445 21.4258 35.0586 21.6016L31.7578 13.418C31.5039 12.8125 31.1328 12.5977 30.4492 12.5977ZM16.7188 24.0234L14.1992 26.9336C13.1055 26.8164 12.2656 27.6172 12.2656 28.5742C12.2656 29.5312 13.0078 30.2539 13.9648 30.2539C14.8828 30.2539 15.625 29.5312 15.625 28.5742C15.625 28.4375 15.6055 28.2812 15.5859 28.2422L18.1836 25.332C18.8672 26.2109 19.2773 27.3242 19.2773 28.5352C19.2773 31.5039 16.9141 33.8477 14.0039 33.8477C11.0547 33.8477 8.69141 31.5039 8.69141 28.5352C8.69141 25.6055 11.0352 23.2617 14.0039 23.2617C14.9805 23.2617 15.918 23.5547 16.7188 24.0234ZM42.207 28.5352C42.207 31.5039 39.8438 33.8477 36.9336 33.8477C33.9844 33.8477 31.6211 31.5039 31.6211 28.5352C31.6211 26.6797 32.5781 25.0586 34.0234 24.1211L35.4883 27.7539C35.332 27.9883 35.2344 28.2617 35.2344 28.5742C35.2344 29.5312 35.9766 30.2539 36.9336 30.2539C37.8516 30.2539 38.5938 29.5312 38.5938 28.5742C38.5938 27.7344 37.9883 27.0703 37.207 26.9141L35.8008 23.3984C36.1523 23.3008 36.5234 23.2617 36.9336 23.2617C39.8438 23.2617 42.207 25.625 42.207 28.5352ZM23.7891 27.4023L21.0938 27.4023C20.8984 26.0742 20.3125 24.8633 19.4727 23.9062L20.918 22.2852ZM25.3516 26.3477L22.7539 21.7188L30.4102 20.5078Z" fill="black" fill-opacity="0.85"/>
 </g>
</svg>
