<?xml version="1.0" encoding="UTF-8"?>
<!--Generator: Apple Native CoreSVG 326-->
<!DOCTYPE svg
PUBLIC "-//W3C//DTD SVG 1.1//EN"
       "http://www.w3.org/Graphics/SVG/1.1/DTD/svg11.dtd">
<svg version="1.1" xmlns="http://www.w3.org/2000/svg" xmlns:xlink="http://www.w3.org/1999/xlink" viewBox="0 0 64.2383 49.3555">
 <g>
  <rect height="49.3555" opacity="0" width="64.2383" x="0" y="0"/>
  <path d="M0 37.3438C0 44.1992 6.17188 49.3555 13.7891 49.3555C21.4062 49.3555 27.5391 44.1992 27.5391 37.3438L27.5391 30.4688C28.8281 29.9023 30.4102 29.5898 31.9531 29.5898C33.6523 29.5898 35.1172 29.8242 36.3281 30.3125L36.3281 37.3438C36.3281 44.1992 42.4609 49.3555 50.0781 49.3555C57.7148 49.3555 63.8672 44.1992 63.8672 37.3438C63.8672 35.5664 63.5938 33.9062 62.6367 31.6602L51.9531 7.12891C50.5664 3.96484 47.6562 2.08984 44.043 2.08984C39.3359 2.08984 36.3281 5.09766 36.3281 9.53125L36.3281 12.5C35.0195 12.0898 33.5352 11.875 31.9531 11.875C30.4297 11.875 28.9258 12.1289 27.5391 12.6367L27.5391 9.53125C27.5391 5.09766 24.5312 2.08984 19.8438 2.08984C16.2109 2.08984 13.3008 3.96484 11.9141 7.12891L1.23047 31.6602C0.273438 33.9062 0 35.5664 0 37.3438ZM3.41797 37.3438C3.41797 32.1289 7.89062 28.5547 13.7891 28.5547C19.6875 28.5547 24.2578 32.1289 24.2578 37.3438C24.2578 42.5586 19.707 46.1133 13.7891 46.1133C7.89062 46.1133 3.41797 42.5391 3.41797 37.3438ZM39.6094 37.3438C39.6094 32.1289 44.1797 28.5547 50.0781 28.5547C55.9961 28.5547 60.4492 32.1289 60.4492 37.3438C60.4492 42.5391 55.9961 46.1133 50.0781 46.1133C44.1797 46.1133 39.6094 42.5586 39.6094 37.3438ZM27.5391 23.0469L27.5391 20.0586C28.9258 19.5508 30.4297 19.2969 31.9531 19.2969C33.5352 19.2969 35.0195 19.5117 36.3281 19.9219L36.3281 22.8906C35.1172 22.4023 33.6719 22.168 31.9531 22.168C30.4102 22.168 28.8281 22.4805 27.5391 23.0469Z" fill="black" fill-opacity="0.85"/>
 </g>
</svg>
