<?xml version="1.0" encoding="UTF-8"?>
<!--Generator: Apple Native CoreSVG 326-->
<!DOCTYPE svg
PUBLIC "-//W3C//DTD SVG 1.1//EN"
       "http://www.w3.org/Graphics/SVG/1.1/DTD/svg11.dtd">
<svg version="1.1" xmlns="http://www.w3.org/2000/svg" xmlns:xlink="http://www.w3.org/1999/xlink" viewBox="0 0 55.5273 53.1055">
 <g>
  <rect height="53.1055" opacity="0" width="55.5273" x="0" y="0"/>
  <path d="M30.5273 0.839844L52.1094 13.3008C52.8906 13.75 53.2422 14.3164 53.2422 14.9609C53.2422 15.8398 52.5781 16.6797 51.3867 16.6797L49.1211 16.6797L49.1211 46.5039L50.7227 46.5039C51.582 46.5039 52.0898 47.0117 52.0898 47.8516L52.0898 49.6094L53.418 49.6094C54.375 49.6094 55.1562 50.3906 55.1562 51.3477C55.1562 52.2852 54.375 53.0664 53.418 53.0664L1.73828 53.0664C0.78125 53.0664 0 52.2852 0 51.3477C0 50.3906 0.78125 49.6094 1.73828 49.6094L3.06641 49.6094L3.06641 47.8516C3.06641 47.0117 3.57422 46.5039 4.45312 46.5039L6.05469 46.5039L6.05469 16.6797L3.76953 16.6797C2.57812 16.6797 1.91406 15.8398 1.91406 14.9609C1.91406 14.3164 2.24609 13.75 3.04688 13.3008L24.6289 0.839844C25.5664 0.292969 26.6016 0 27.5781 0C28.5547 0 29.5703 0.292969 30.5273 0.839844ZM27.8711 15.0195L27.8711 17.5195L25.3906 17.5195L25.3906 15.0195C25.3906 14.5312 25.0586 14.2188 24.6094 14.2188C24.1406 14.2188 23.8086 14.5312 23.8086 15.0195L23.8086 17.5195L22.2266 17.5195C21.2109 17.5195 20.5273 18.2031 20.5273 19.2188L20.5273 38.1836C20.5273 39.1992 21.2109 39.8828 22.2266 39.8828L23.8086 39.8828L23.8086 42.4805C23.8086 42.9492 24.1406 43.2617 24.6094 43.2617C25.0586 43.2617 25.3906 42.9492 25.3906 42.4805L25.3906 39.8828L27.8711 39.8828L27.8711 42.4805C27.8711 42.9492 28.2227 43.2617 28.6523 43.2617C29.1211 43.2617 29.4727 42.9492 29.4727 42.4805L29.4727 39.8633C33.4766 39.6094 36.3477 37.5586 36.3477 33.6719C36.3477 30.625 34.1797 28.5156 31.0156 28.1641L31.0156 27.9883C33.5352 27.5977 35.1953 25.3711 35.1953 23.0469C35.1953 19.8047 32.7344 17.8711 29.4727 17.5586L29.4727 15.0195C29.4727 14.5312 29.1211 14.2188 28.6523 14.2188C28.2227 14.2188 27.8711 14.5312 27.8711 15.0195ZM33.6133 33.5352C33.6133 36.5234 31.1328 37.6172 28.1445 37.6172L23.2227 37.6172L23.2227 29.4531L27.8516 29.4531C30.957 29.4531 33.6133 30.4883 33.6133 33.5352ZM32.4805 23.3789C32.4805 26.2109 30.0977 27.2461 27.2266 27.2461L23.2227 27.2461L23.2227 19.7461L27.8906 19.7461C30.4297 19.7461 32.4805 20.8203 32.4805 23.3789Z" fill="black" fill-opacity="0.85"/>
 </g>
</svg>
