<?xml version="1.0" encoding="UTF-8"?>
<!--Generator: Apple Native CoreSVG 326-->
<!DOCTYPE svg
PUBLIC "-//W3C//DTD SVG 1.1//EN"
       "http://www.w3.org/Graphics/SVG/1.1/DTD/svg11.dtd">
<svg version="1.1" xmlns="http://www.w3.org/2000/svg" xmlns:xlink="http://www.w3.org/1999/xlink" viewBox="0 0 55.5273 53.1055">
 <g>
  <rect height="53.1055" opacity="0" width="55.5273" x="0" y="0"/>
  <path d="M3.06641 47.6758L52.0898 47.6758L52.0898 46.1719C52.0898 45.332 51.582 44.8242 50.7227 44.8242L49.1211 44.8242L49.1211 16.6797L51.3867 16.6797C52.5781 16.6797 53.2422 15.8398 53.2422 14.9609C53.2422 14.3164 52.8906 13.75 52.1094 13.3008L30.5273 0.839844C29.5703 0.292969 28.5547 0 27.5781 0C26.6016 0 25.5664 0.292969 24.6289 0.839844L3.04688 13.3008C2.24609 13.75 1.91406 14.3164 1.91406 14.9609C1.91406 15.8398 2.57812 16.6797 3.76953 16.6797L6.05469 16.6797L6.05469 44.8242L4.45312 44.8242C3.57422 44.8242 3.06641 45.332 3.06641 46.1719ZM9.31641 44.8242L9.31641 13.7109L26.4453 4.0625C26.7773 3.86719 27.1875 3.75 27.5781 3.75C27.9492 3.75 28.3398 3.86719 28.7109 4.0625L45.8594 13.7109L45.8594 44.8242ZM1.73828 53.0664L53.418 53.0664C54.375 53.0664 55.1562 52.2852 55.1562 51.3477C55.1562 50.3906 54.375 49.6094 53.418 49.6094L1.73828 49.6094C0.78125 49.6094 0 50.3906 0 51.3477C0 52.2852 0.78125 53.0664 1.73828 53.0664Z" fill="black" fill-opacity="0.85"/>
  <path d="M22.3633 37.3633L28.6133 37.3633C32.9297 37.3633 36.1523 35.3516 36.1523 31.3086C36.1523 28.3398 34.0234 26.2695 30.9375 25.918L30.9375 25.7617C33.3984 25.3711 35.0195 23.2031 35.0195 20.9375C35.0195 17.4609 32.1484 15.5469 28.5352 15.5469L22.3633 15.5469C21.3867 15.5469 20.7422 16.2109 20.7422 17.1875L20.7422 35.7227C20.7422 36.6992 21.3867 37.3633 22.3633 37.3633ZM23.3398 25.0391L23.3398 17.7148L27.9102 17.7148C30.3906 17.7148 32.4023 18.75 32.4023 21.25C32.4023 24.0039 30.0586 25.0391 27.2656 25.0391ZM23.3398 35.1562L23.3398 27.1875L27.8711 27.1875C30.8984 27.1875 33.4961 28.1836 33.4961 31.1719C33.4961 34.1016 31.0742 35.1562 28.1445 35.1562ZM23.9258 16.8164L25.4688 16.8164L25.4688 13.1055C25.4688 12.6367 25.1367 12.3242 24.707 12.3242C24.2578 12.3242 23.9258 12.6367 23.9258 13.1055ZM27.8906 16.8164L29.4336 16.8164L29.4336 13.1055C29.4336 12.6367 29.1016 12.3242 28.6523 12.3242C28.2227 12.3242 27.8906 12.6367 27.8906 13.1055ZM23.9258 36.0352L23.9258 39.9023C23.9258 40.332 24.2578 40.6641 24.707 40.6641C25.1367 40.6641 25.4688 40.332 25.4688 39.9023L25.4688 36.0352ZM27.8906 36.0352L27.8906 39.9023C27.8906 40.332 28.2227 40.6641 28.6523 40.6641C29.1016 40.6641 29.4336 40.332 29.4336 39.9023L29.4336 36.0352Z" fill="black" fill-opacity="0.85"/>
 </g>
</svg>
