<?xml version="1.0" encoding="UTF-8"?>
<!--Generator: Apple Native CoreSVG 326-->
<!DOCTYPE svg
PUBLIC "-//W3C//DTD SVG 1.1//EN"
       "http://www.w3.org/Graphics/SVG/1.1/DTD/svg11.dtd">
<svg version="1.1" xmlns="http://www.w3.org/2000/svg" xmlns:xlink="http://www.w3.org/1999/xlink" viewBox="0 0 51.25 50.918">
 <g>
  <rect height="50.918" opacity="0" width="51.25" x="0" y="0"/>
  <path d="M25.4297 50.8789C39.4727 50.8789 50.8789 39.4922 50.8789 25.4492C50.8789 11.4062 39.4727 0 25.4297 0C11.3867 0 0 11.4062 0 25.4492C0 39.4922 11.3867 50.8789 25.4297 50.8789ZM25.4297 47.2461C13.3789 47.2461 3.63281 37.5 3.63281 25.4492C3.63281 13.3984 13.3789 3.65234 25.4297 3.65234C37.4805 3.65234 47.2266 13.3984 47.2266 25.4492C47.2266 37.5 37.4805 47.2461 25.4297 47.2461Z" fill="black" fill-opacity="0.85"/>
  <path d="M20.1953 36.3867L26.4258 36.3867C30.7422 36.3867 33.9648 34.375 33.9648 30.3516C33.9648 27.3633 31.8359 25.293 28.7695 24.9609L28.7695 24.8047C31.2109 24.3945 32.8516 22.2461 32.8516 19.9609C32.8516 16.5039 29.9805 14.5703 26.3672 14.5703L20.1953 14.5703C19.2188 14.5703 18.5547 15.2344 18.5547 16.2109L18.5547 34.7461C18.5547 35.7227 19.2188 36.3867 20.1953 36.3867ZM21.1719 24.0625L21.1719 16.7578L25.7422 16.7578C28.2227 16.7578 30.2148 17.7734 30.2148 20.2734C30.2148 23.0469 27.8906 24.0625 25.0977 24.0625ZM21.1719 34.1797L21.1719 26.2109L25.6836 26.2109C28.7109 26.2109 31.3086 27.2266 31.3086 30.1953C31.3086 33.1445 28.8867 34.1797 25.957 34.1797ZM21.7578 15.8398L23.3008 15.8398L23.3008 12.1289C23.3008 11.6797 22.9688 11.3477 22.5391 11.3477C22.0703 11.3477 21.7578 11.6797 21.7578 12.1289ZM25.7227 15.8398L27.2461 15.8398L27.2461 12.1289C27.2461 11.6797 26.9336 11.3477 26.4844 11.3477C26.0352 11.3477 25.7227 11.6797 25.7227 12.1289ZM21.7578 35.0781L21.7578 38.9258C21.7578 39.375 22.0703 39.6875 22.5391 39.6875C22.9688 39.6875 23.3008 39.375 23.3008 38.9258L23.3008 35.0781ZM25.7227 35.0781L25.7227 38.9258C25.7227 39.375 26.0352 39.6875 26.4844 39.6875C26.9336 39.6875 27.2461 39.375 27.2461 38.9258L27.2461 35.0781Z" fill="black" fill-opacity="0.85"/>
 </g>
</svg>
