<?xml version="1.0" encoding="UTF-8"?>
<!--Generator: Apple Native CoreSVG 326-->
<!DOCTYPE svg
PUBLIC "-//W3C//DTD SVG 1.1//EN"
       "http://www.w3.org/Graphics/SVG/1.1/DTD/svg11.dtd">
<svg version="1.1" xmlns="http://www.w3.org/2000/svg" xmlns:xlink="http://www.w3.org/1999/xlink" viewBox="0 0 60.961 50.918">
 <g>
  <rect height="50.918" opacity="0" width="60.961" x="0" y="0"/>
  <path d="M30.295 50.8789C44.3379 50.8789 55.7246 39.4922 55.7246 25.4492C55.7246 11.4062 44.3379 0 30.295 0C16.252 0 4.86526 11.4062 4.86526 25.4492L8.49808 25.4492C8.49808 13.3984 18.2442 3.65234 30.295 3.65234C42.3457 3.65234 52.0918 13.3984 52.0918 25.4492C52.0918 37.5 42.3457 47.2461 30.295 47.2461C22.834 47.2461 16.1739 43.457 12.3653 37.7539C11.7207 36.875 10.7051 36.6016 9.80667 37.1484C8.94729 37.6562 8.69339 38.8477 9.39651 39.8047C13.9473 46.5039 21.6426 50.8789 30.295 50.8789ZM1.60354 20.7227C0.00198146 20.7227-0.447237 21.8164 0.470731 23.0859L6.01761 30.9766C6.75979 32.0508 7.83401 32.0312 8.55667 30.9766L14.1035 23.0664C14.9825 21.8164 14.5528 20.7227 12.9707 20.7227Z" fill="black" fill-opacity="0.85"/>
  <path d="M25.0801 36.3867L31.3106 36.3867C35.627 36.3867 38.8692 34.375 38.8692 30.3516C38.8692 27.3633 36.7207 25.293 33.6543 24.9609L33.6543 24.8047C36.0957 24.3945 37.7364 22.2461 37.7364 19.9609C37.7364 16.5039 34.8653 14.5703 31.252 14.5703L25.0801 14.5703C24.1035 14.5703 23.4395 15.2344 23.4395 16.2109L23.4395 34.7461C23.4395 35.7227 24.1035 36.3867 25.0801 36.3867ZM26.0567 24.0625L26.0567 16.7578L30.627 16.7578C33.1075 16.7578 35.0996 17.7734 35.0996 20.2734C35.0996 23.0469 32.7754 24.0625 29.9825 24.0625ZM26.0567 34.1797L26.0567 26.2109L30.5684 26.2109C33.5957 26.2109 36.1934 27.2266 36.1934 30.1953C36.1934 33.1445 33.7715 34.1797 30.8418 34.1797ZM26.6426 15.8398L28.1856 15.8398L28.1856 12.1289C28.1856 11.6797 27.8535 11.3477 27.4239 11.3477C26.9551 11.3477 26.6426 11.6797 26.6426 12.1289ZM30.6075 15.8398L32.1309 15.8398L32.1309 12.1289C32.1309 11.6797 31.8184 11.3477 31.3692 11.3477C30.92 11.3477 30.6075 11.6797 30.6075 12.1289ZM26.6426 35.0781L26.6426 38.9258C26.6426 39.375 26.9551 39.6875 27.4239 39.6875C27.8535 39.6875 28.1856 39.375 28.1856 38.9258L28.1856 35.0781ZM30.6075 35.0781L30.6075 38.9258C30.6075 39.375 30.92 39.6875 31.3692 39.6875C31.8184 39.6875 32.1309 39.375 32.1309 38.9258L32.1309 35.0781Z" fill="black" fill-opacity="0.85"/>
 </g>
</svg>
