<?xml version="1.0" encoding="UTF-8"?>
<!--Generator: Apple Native CoreSVG 326-->
<!DOCTYPE svg
PUBLIC "-//W3C//DTD SVG 1.1//EN"
       "http://www.w3.org/Graphics/SVG/1.1/DTD/svg11.dtd">
<svg version="1.1" xmlns="http://www.w3.org/2000/svg" xmlns:xlink="http://www.w3.org/1999/xlink" viewBox="0 0 51.25 50.918">
 <g>
  <rect height="50.918" opacity="0" width="51.25" x="0" y="0"/>
  <path d="M50.8789 25.4492C50.8789 39.4531 39.4531 50.8789 25.4297 50.8789C11.4258 50.8789 0 39.4531 0 25.4492C0 11.4258 11.4258 0 25.4297 0C39.4531 0 50.8789 11.4258 50.8789 25.4492ZM25.7227 11.7969L25.7227 14.2969L23.2422 14.2969L23.2422 11.7969C23.2422 11.3281 22.9102 10.9961 22.4609 10.9961C21.9727 10.9961 21.6602 11.3281 21.6602 11.7969L21.6602 14.2969L20.0781 14.2969C19.0625 14.2969 18.3789 14.9805 18.3789 15.9961L18.3789 34.9609C18.3789 35.9961 19.0625 36.6797 20.0781 36.6797L21.6602 36.6797L21.6602 39.2773C21.6602 39.7266 21.9727 40.0586 22.4609 40.0586C22.9102 40.0586 23.2422 39.7266 23.2422 39.2773L23.2422 36.6797L25.7227 36.6797L25.7227 39.2773C25.7227 39.7266 26.0547 40.0586 26.5039 40.0586C26.9727 40.0586 27.3047 39.7266 27.3047 39.2773L27.3047 36.6602C31.3086 36.3867 34.1992 34.3359 34.1992 30.4688C34.1992 27.4023 32.0117 25.293 28.8672 24.9414L28.8672 24.7852C31.3672 24.375 33.0469 22.168 33.0469 19.8242C33.0469 16.582 30.5664 14.6484 27.3047 14.3555L27.3047 11.7969C27.3047 11.3281 26.9727 10.9961 26.5039 10.9961C26.0547 10.9961 25.7227 11.3281 25.7227 11.7969ZM31.4453 30.332C31.4453 33.3203 28.9844 34.3945 25.9766 34.3945L21.0742 34.3945L21.0742 26.2305L25.6836 26.2305C28.7891 26.2305 31.4453 27.2656 31.4453 30.332ZM30.3125 20.1562C30.3125 22.9883 27.9492 24.0234 25.0781 24.0234L21.0742 24.0234L21.0742 16.543L25.7422 16.543C28.2812 16.543 30.3125 17.5977 30.3125 20.1562Z" fill="black" fill-opacity="0.85"/>
 </g>
</svg>
