<?xml version="1.0" encoding="UTF-8"?>
<!--Generator: Apple Native CoreSVG 326-->
<!DOCTYPE svg
PUBLIC "-//W3C//DTD SVG 1.1//EN"
       "http://www.w3.org/Graphics/SVG/1.1/DTD/svg11.dtd">
<svg version="1.1" xmlns="http://www.w3.org/2000/svg" xmlns:xlink="http://www.w3.org/1999/xlink" viewBox="0 0 52.7344 51.3164">
 <g>
  <rect height="51.3164" opacity="0" width="52.7344" x="0" y="0"/>
  <path d="M7.91016 46.293C7.91016 47.3672 8.16406 48.0703 8.76953 48.6758L11.1133 50.9609C11.7383 51.6055 12.9883 51.3711 12.9883 50.2773L12.9883 11.0391C12.9883 9.9453 12.7344 9.26171 12.1094 8.65624L9.78516 6.37109C9.16016 5.72655 7.91016 5.96093 7.91016 7.05468ZM20.5078 46.293C20.5078 47.3672 20.7617 48.0703 21.3672 48.6758L23.6914 50.9609C24.3359 51.6055 25.5664 51.3711 25.5664 50.2773L25.5664 11.0391C25.5664 9.9453 25.332 9.26171 24.707 8.65624L22.3828 6.37109C21.7578 5.72655 20.5078 5.96093 20.5078 7.05468ZM33.0859 46.293C33.0859 47.3672 33.3398 48.0703 33.9648 48.6758L36.2891 50.9609C36.9141 51.6055 38.1641 51.3711 38.1641 50.2773L38.1641 11.0391C38.1641 9.9453 37.9102 9.26171 37.3047 8.65624L34.9805 6.37109C34.3359 5.72655 33.0859 5.96093 33.0859 7.05468ZM45.6836 46.293C45.6836 47.3672 45.9375 48.0703 46.5625 48.6758L48.8867 50.9609C49.5117 51.6055 50.7617 51.3711 50.7617 50.2773L50.7617 11.0391C50.7617 9.9453 50.5078 9.26171 49.9023 8.65624L47.5586 6.37109C46.9336 5.72655 45.6836 5.96093 45.6836 7.05468Z" fill="black" fill-opacity="0.85"/>
  <path d="M0 1.74218C0 2.67968 0.78125 3.46093 1.71875 3.46093L50.7617 3.46093C51.7188 3.46093 52.5 2.67968 52.5 1.74218C52.5 0.785148 51.7188 0.00389844 50.7617 0.00389844L1.71875 0.00389844C0.78125 0.00389844 0 0.785148 0 1.74218ZM1.71875 9.3789C2.59766 9.3789 3.28125 8.65624 3.28125 7.8164C3.28125 6.95702 2.59766 6.2539 1.71875 6.2539C0.859375 6.2539 0.175781 6.95702 0.175781 7.8164C0.175781 8.65624 0.859375 9.3789 1.71875 9.3789ZM1.71875 15.2383C2.59766 15.2383 3.28125 14.5351 3.28125 13.6758C3.28125 12.8164 2.59766 12.1328 1.71875 12.1328C0.859375 12.1328 0.175781 12.8164 0.175781 13.6758C0.175781 14.5351 0.859375 15.2383 1.71875 15.2383ZM1.71875 21.1172C2.59766 21.1172 3.28125 20.4141 3.28125 19.5547C3.28125 18.6953 2.59766 18.0117 1.71875 18.0117C0.859375 18.0117 0.175781 18.6953 0.175781 19.5547C0.175781 20.4141 0.859375 21.1172 1.71875 21.1172ZM1.71875 26.9766C2.59766 26.9766 3.28125 26.2734 3.28125 25.4336C3.28125 24.5547 2.59766 23.8711 1.71875 23.8711C0.859375 23.8711 0.175781 24.5547 0.175781 25.4336C0.175781 26.2734 0.859375 26.9766 1.71875 26.9766ZM1.71875 32.8555C2.59766 32.8555 3.28125 32.1523 3.28125 31.3125C3.28125 30.4336 2.59766 29.75 1.71875 29.75C0.859375 29.75 0.175781 30.4336 0.175781 31.3125C0.175781 32.1523 0.859375 32.8555 1.71875 32.8555ZM1.71875 38.7344C2.59766 38.7344 3.28125 38.0117 3.28125 37.1719C3.28125 36.3125 2.59766 35.6094 1.71875 35.6094C0.859375 35.6094 0.175781 36.3125 0.175781 37.1719C0.175781 38.0117 0.859375 38.7344 1.71875 38.7344ZM1.71875 51.2734C2.65625 51.2734 3.45703 50.4922 3.45703 49.5547L3.45703 43.2266C3.45703 42.2695 2.67578 41.4883 1.71875 41.4883C0.78125 41.4883 0 42.2695 0 43.2266L0 49.5547C0 50.4922 0.800781 51.2734 1.71875 51.2734Z" fill="black" fill-opacity="0.85"/>
 </g>
</svg>
