<?xml version="1.0" encoding="UTF-8"?>
<!--Generator: Apple Native CoreSVG 326-->
<!DOCTYPE svg
PUBLIC "-//W3C//DTD SVG 1.1//EN"
       "http://www.w3.org/Graphics/SVG/1.1/DTD/svg11.dtd">
<svg version="1.1" xmlns="http://www.w3.org/2000/svg" xmlns:xlink="http://www.w3.org/1999/xlink" viewBox="0 0 51.25 50.918">
 <g>
  <rect height="50.918" opacity="0" width="51.25" x="0" y="0"/>
  <path d="M25.4297 50.8789C39.4727 50.8789 50.8789 39.4922 50.8789 25.4492C50.8789 11.4062 39.4727 0 25.4297 0C11.3867 0 0 11.4062 0 25.4492C0 39.4922 11.3867 50.8789 25.4297 50.8789ZM25.4297 47.2461C13.3789 47.2461 3.63281 37.5 3.63281 25.4492C3.63281 13.3984 13.3789 3.65234 25.4297 3.65234C37.4805 3.65234 47.2266 13.3984 47.2266 25.4492C47.2266 37.5 37.4805 47.2461 25.4297 47.2461Z" fill="black" fill-opacity="0.85"/>
  <path d="M14.2969 27.2656C14.2969 27.8516 14.7656 28.2617 15.3516 28.2617L24.043 28.2617L19.3945 40.8008C18.8086 42.3047 20.4102 43.1055 21.3867 41.9141L35.4492 24.2578C35.7031 23.9453 35.8398 23.6133 35.8398 23.3203C35.8398 22.7344 35.3711 22.3438 34.7852 22.3438L26.0938 22.3438L30.7422 9.80469C31.3281 8.30078 29.7266 7.48047 28.75 8.69141L14.6875 26.3281C14.4336 26.6602 14.2969 26.9922 14.2969 27.2656Z" fill="black" fill-opacity="0.85"/>
 </g>
</svg>
