<?xml version="1.0" encoding="UTF-8"?>
<!--Generator: Apple Native CoreSVG 326-->
<!DOCTYPE svg
PUBLIC "-//W3C//DTD SVG 1.1//EN"
       "http://www.w3.org/Graphics/SVG/1.1/DTD/svg11.dtd">
<svg version="1.1" xmlns="http://www.w3.org/2000/svg" xmlns:xlink="http://www.w3.org/1999/xlink" viewBox="0 0 47.4561 55.8183">
 <g>
  <rect height="55.8183" opacity="0" width="47.4561" x="0" y="0"/>
  <path d="M14.9768 25.3981L11.6187 29.8134L19.3921 29.8134L24.7139 35.1352L19.9782 45.9307L26.6833 37.1046L29.1117 39.533L17.4585 54.4814C16.0132 56.3369 13.6304 55.1455 14.5093 52.8798L22.1069 33.0361L7.77101 33.0361C6.85304 33.0361 6.22804 32.4111 6.22804 31.5908C6.22804 31.083 6.44288 30.6533 6.83351 30.165L12.489 22.9103ZM32.5757 2.52827L24.978 22.372L39.314 22.372C40.2319 22.372 40.8374 22.997 40.8374 23.7978C40.8374 24.3056 40.6421 24.7548 40.2515 25.2431L34.5507 32.5559L32.043 30.0494L35.4273 25.5947L27.586 25.5947L22.3241 20.3355L27.09 9.47117L20.3374 18.3498L17.9243 15.938L29.6265 0.926704C31.0718-0.948296 33.4546 0.24311 32.5757 2.52827Z" fill="black" fill-opacity="0.85"/>
  <path d="M41.4234 47.997C42.0679 48.6415 43.1421 48.6415 43.7866 47.997C44.4116 47.372 44.4312 46.2783 43.7866 45.6337L5.56398 7.41108C4.93898 6.78608 3.82569 6.76655 3.18116 7.41108C2.55616 8.03608 2.55616 9.12983 3.18116 9.77436Z" fill="black" fill-opacity="0.85"/>
 </g>
</svg>
