<?xml version="1.0" encoding="UTF-8"?>
<!--Generator: Apple Native CoreSVG 326-->
<!DOCTYPE svg
PUBLIC "-//W3C//DTD SVG 1.1//EN"
       "http://www.w3.org/Graphics/SVG/1.1/DTD/svg11.dtd">
<svg version="1.1" xmlns="http://www.w3.org/2000/svg" xmlns:xlink="http://www.w3.org/1999/xlink" viewBox="0 0 59.3555 46.3086">
 <g>
  <rect height="46.3086" opacity="0" width="59.3555" x="0" y="0"/>
  <path d="M29.4922 39.4922C37.8516 39.4922 49.082 39.0625 53.8477 38.5156C57.1289 38.1445 58.9844 36.3867 58.9844 33.2227L58.9844 28.7891C58.9844 24.4727 58.0664 22.168 55.8398 19.2773L53.6914 16.4844C52.7734 11.9531 51.0938 7.16797 50.2148 5.3125C48.8867 2.48047 46.2891 0.898438 43.0859 0.46875C41.3867 0.234375 35.8008 0.0976562 29.4922 0.0976562C23.1836 0.0976562 17.5977 0.253906 15.8984 0.46875C12.6953 0.859375 10.0977 2.48047 8.76953 5.3125C7.89062 7.16797 6.23047 11.9531 5.29297 16.4844L3.14453 19.2773C0.917969 22.168 0 24.4727 0 28.7891L0 33.2227C0 36.3867 1.85547 38.1445 5.13672 38.5156C9.90234 39.0625 21.1328 39.4922 29.4922 39.4922ZM29.4922 36.6211C21.0742 36.6211 10.0391 36.2305 5.85938 35.7031C3.67188 35.4492 2.87109 34.375 2.87109 32.4414L2.87109 28.7891C2.87109 25.293 3.4375 23.6328 5.42969 21.0352L7.96875 17.6953C8.69141 13.8672 10.332 8.80859 11.3672 6.62109C12.2266 4.80469 13.8672 3.67188 16.25 3.37891C17.8516 3.20312 23.0078 2.96875 29.4922 2.96875C35.9766 2.96875 41.2109 3.20312 42.6953 3.37891C45.1367 3.69141 46.7578 4.82422 47.6172 6.62109C48.6719 8.80859 50.293 13.8672 51.0156 17.6953L53.5547 21.0352C55.5469 23.6328 56.1133 25.293 56.1133 28.7891L56.1133 32.4414C56.1133 34.375 55.3125 35.4492 53.125 35.7031C48.9453 36.2109 37.9297 36.6211 29.4922 36.6211ZM4.57031 46.3086L7.5 46.3086C9.35547 46.3086 10.7812 44.8828 10.7812 43.0469L10.7812 37.3633L1.28906 36.0156L1.28906 43.0469C1.28906 44.8633 2.71484 46.3086 4.57031 46.3086ZM51.4844 46.3086L54.4141 46.3086C56.2695 46.3086 57.6953 44.8828 57.6953 43.0469L57.6953 36.0156L48.2031 37.3633L48.2031 43.0469C48.2031 44.8828 49.6289 46.3086 51.4844 46.3086Z" fill="black" fill-opacity="0.85"/>
  <path d="M21.543 21.2891C21.543 21.6992 21.8945 21.9922 22.3242 21.9922L28.6914 21.9922L25.2734 31.1719C24.8438 32.2656 26.0352 32.8711 26.7383 31.9727L36.9922 19.082C37.1875 18.8477 37.3047 18.6133 37.3047 18.3789C37.3047 17.9688 36.9531 17.6562 36.5234 17.6562L30.1562 17.6562L33.5742 8.51562C33.9844 7.40234 32.8125 6.81641 32.1094 7.71484L21.8359 20.6055C21.6602 20.8398 21.543 21.0742 21.543 21.2891Z" fill="black" fill-opacity="0.85"/>
 </g>
</svg>
