<?xml version="1.0" encoding="UTF-8"?>
<!--Generator: Apple Native CoreSVG 326-->
<!DOCTYPE svg
PUBLIC "-//W3C//DTD SVG 1.1//EN"
       "http://www.w3.org/Graphics/SVG/1.1/DTD/svg11.dtd">
<svg version="1.1" xmlns="http://www.w3.org/2000/svg" xmlns:xlink="http://www.w3.org/1999/xlink" viewBox="0 0 51.25 50.918">
 <g>
  <rect height="50.918" opacity="0" width="51.25" x="0" y="0"/>
  <path d="M25.4297 50.8789C39.4727 50.8789 50.8789 39.4922 50.8789 25.4492C50.8789 11.4062 39.4727 0 25.4297 0C11.3867 0 0 11.4062 0 25.4492C0 39.4922 11.3867 50.8789 25.4297 50.8789ZM25.4297 47.2461C13.3789 47.2461 3.63281 37.5 3.63281 25.4492C3.63281 13.3984 13.3789 3.65234 25.4297 3.65234C37.4805 3.65234 47.2266 13.3984 47.2266 25.4492C47.2266 37.5 37.4805 47.2461 25.4297 47.2461Z" fill="black" fill-opacity="0.85"/>
  <path d="M11.5039 33.9844C11.5039 34.8438 12.1875 35.5273 13.0469 35.5273L14.4531 35.5273C15.3125 35.5273 15.9961 34.8438 15.9961 33.9844L15.9961 32.0312C18.6328 32.1875 22.4219 32.3047 25.4297 32.3047C28.457 32.3047 32.2266 32.1875 34.8633 32.0312L34.8633 33.9844C34.8633 34.8438 35.5469 35.5273 36.4062 35.5273L37.793 35.5273C38.6719 35.5273 39.3555 34.8438 39.3555 33.9844L39.3555 27.2656C39.3555 25.2344 38.9062 24.1406 37.8516 22.793L36.8555 21.4648C36.3867 19.2969 35.6055 17.0508 35.2148 16.1719C34.5703 14.8438 33.3594 14.1016 31.8359 13.9062C31.0352 13.8086 28.3984 13.7305 25.4297 13.7305C22.4609 13.7305 19.8242 13.8086 19.0234 13.9062C17.5 14.082 16.2891 14.8438 15.6445 16.1719C15.2539 17.0508 14.4531 19.2969 14.0234 21.4648L13.0078 22.793C11.9531 24.1406 11.5039 25.2344 11.5039 27.2656ZM21.3477 23.8867C21.3477 23.75 21.4062 23.6133 21.5234 23.4766L26.6016 16.9336C27.0312 16.3672 27.7539 16.7188 27.4805 17.4023L25.8789 21.6992L29.043 21.6992C29.2969 21.6992 29.5117 21.8945 29.5117 22.168C29.5117 22.3047 29.4336 22.4609 29.3359 22.5781L24.2773 29.1211C23.8477 29.6875 23.125 29.2969 23.3789 28.6133L25 24.3164L21.8164 24.3164C21.5625 24.3164 21.3477 24.1211 21.3477 23.8867Z" fill="black" fill-opacity="0.85"/>
 </g>
</svg>
