<?xml version="1.0" encoding="UTF-8"?>
<!--Generator: Apple Native CoreSVG 326-->
<!DOCTYPE svg
PUBLIC "-//W3C//DTD SVG 1.1//EN"
       "http://www.w3.org/Graphics/SVG/1.1/DTD/svg11.dtd">
<svg version="1.1" xmlns="http://www.w3.org/2000/svg" xmlns:xlink="http://www.w3.org/1999/xlink" viewBox="0 0 51.25 50.918">
 <g>
  <rect height="50.918" opacity="0" width="51.25" x="0" y="0"/>
  <path d="M25.4297 50.8789C39.4727 50.8789 50.8789 39.4922 50.8789 25.4492C50.8789 11.4062 39.4727 0 25.4297 0C11.3867 0 0 11.4062 0 25.4492C0 39.4922 11.3867 50.8789 25.4297 50.8789ZM25.4297 47.2461C13.3789 47.2461 3.63281 37.5 3.63281 25.4492C3.63281 13.3984 13.3789 3.65234 25.4297 3.65234C37.4805 3.65234 47.2266 13.3984 47.2266 25.4492C47.2266 37.5 37.4805 47.2461 25.4297 47.2461Z" fill="black" fill-opacity="0.85"/>
  <path d="M18.5938 14.6094C15.9375 14.6094 13.125 15.7812 11.9141 17.8711C11.7773 18.1055 11.7578 18.2422 11.7578 18.6328L11.7578 35.5469C11.7578 35.9961 12.0703 36.3086 12.5586 36.3086C12.832 36.3086 13.0664 36.2305 13.2812 36.0352C14.7266 34.7461 16.7188 34.043 18.8867 34.043C20.6836 34.043 22.4023 34.6484 23.7891 35.8203C23.9258 35.9375 24.043 36.0156 24.1992 36.0156C24.4531 36.0156 24.6289 35.8008 24.6289 35.5469L24.6289 17.8906C24.6289 17.6172 24.6289 17.5391 24.4141 17.2266C23.1445 15.5664 20.9961 14.6094 18.5938 14.6094ZM32.2656 14.6094C29.8633 14.6094 27.7148 15.5664 26.4258 17.2266C26.2305 17.5391 26.2109 17.6172 26.2109 17.8906L26.2109 35.5469C26.2109 35.8008 26.4062 36.0156 26.6602 36.0156C26.8164 36.0156 26.9336 35.9375 27.0703 35.8203C28.4766 34.6484 30.1953 34.043 31.9531 34.043C34.1602 34.043 36.1523 34.7461 37.5586 36.0352C37.7734 36.2305 38.0078 36.3086 38.2812 36.3086C38.7695 36.3086 39.1016 35.9961 39.1016 35.5469L39.1016 18.6328C39.1016 18.2422 39.0625 18.0859 38.9258 17.8711C37.7148 15.7812 34.9023 14.6094 32.2656 14.6094Z" fill="black" fill-opacity="0.85"/>
 </g>
</svg>
