<?xml version="1.0" encoding="UTF-8"?>
<!--Generator: Apple Native CoreSVG 326-->
<!DOCTYPE svg
PUBLIC "-//W3C//DTD SVG 1.1//EN"
       "http://www.w3.org/Graphics/SVG/1.1/DTD/svg11.dtd">
<svg version="1.1" xmlns="http://www.w3.org/2000/svg" xmlns:xlink="http://www.w3.org/1999/xlink" viewBox="0 0 51.25 50.918">
 <g>
  <rect height="50.918" opacity="0" width="51.25" x="0" y="0"/>
  <path d="M50.8789 25.4492C50.8789 39.4531 39.4531 50.8789 25.4297 50.8789C11.4258 50.8789 0 39.4531 0 25.4492C0 11.4258 11.4258 0 25.4297 0C39.4531 0 50.8789 11.4258 50.8789 25.4492ZM20.1367 12.0117C17.6953 12.0117 16.4258 13.3008 16.4258 15.7617L16.4258 37.6172C16.4258 38.5547 16.9336 39.1211 17.7344 39.1211C18.3203 39.1211 18.6719 38.7891 19.6875 37.793L25.3125 32.1875C25.3906 32.1094 25.4883 32.1094 25.5469 32.1875L31.1914 37.793C32.1875 38.7891 32.5391 39.1211 33.1445 39.1211C33.9258 39.1211 34.4336 38.5547 34.4336 37.6172L34.4336 15.7617C34.4336 13.3008 33.1641 12.0117 30.7227 12.0117Z" fill="black" fill-opacity="0.85"/>
 </g>
</svg>
