<?xml version="1.0" encoding="UTF-8"?>
<!--Generator: Apple Native CoreSVG 326-->
<!DOCTYPE svg
PUBLIC "-//W3C//DTD SVG 1.1//EN"
       "http://www.w3.org/Graphics/SVG/1.1/DTD/svg11.dtd">
<svg version="1.1" xmlns="http://www.w3.org/2000/svg" xmlns:xlink="http://www.w3.org/1999/xlink" viewBox="0 0 64.5312 54.2383">
 <g>
  <rect height="54.2383" opacity="0" width="64.5312" x="0" y="0"/>
  <path d="M13.4766 39.4727C19.668 39.4727 23.2812 35.3516 23.2812 30.1953C23.2812 28.457 22.5586 26.543 21.4844 25.4883C20.5469 24.6094 19.9609 24.3164 19.9609 23.2812C19.9609 22.4023 20.625 21.7773 21.6406 21.7773C22.3633 21.7773 22.832 21.9922 23.5938 22.6367C24.4336 23.3594 25.1172 24.375 25.6055 25.5078C29.4727 24.6094 31.0352 22.207 31.0352 18.3008C31.0352 17.3633 31.8164 16.582 32.7539 16.582C33.7109 16.582 34.4922 17.3633 34.4922 18.3008C34.5117 23.7305 32.0117 27.4023 26.6016 28.7695C26.6406 29.2578 26.6797 29.7461 26.6797 30.2539C26.6797 34.7852 24.668 38.4375 21.2305 40.6836C23.7305 42.4609 27.0117 43.3984 30.4297 43.3984C31.0938 43.3984 31.8555 43.3398 33.2422 43.2812C32.9492 42.1094 32.8125 40.9766 32.8125 39.8828C32.8125 25.4297 53.1055 27.4609 53.1055 13.3984C53.1055 7.69531 47.7148 3.76953 42.2266 3.76953C41.6211 3.75 40.8203 3.86719 40.0195 4.0625C38.1445 1.50391 35 0 31.9727 0C26.6602 0 23.0664 3.51562 22.8711 8.39844C22.832 9.49219 22.1094 10.1172 21.1719 10.1172C20.1758 10.1172 19.4141 9.375 19.4531 8.24219C19.5508 6.38672 19.9609 4.6875 20.6836 3.20312C19.4531 2.83203 18.2031 2.63672 16.9727 2.63672C10.9766 2.63672 6.69922 6.50391 6.69922 11.0352C6.69922 14.1797 9.00391 16.875 12.6562 16.875C13.5938 16.875 14.3945 17.6758 14.3945 18.6133C14.3945 19.5508 13.5938 20.332 12.6562 20.332C8.30078 20.332 5.19531 18.2422 3.82812 15.1367C1.42578 17.8125 0 21.4648 0 25.1758C0 33.457 5.39062 39.4727 13.4766 39.4727ZM52.8125 54.1992C58.7109 54.1992 61.6406 46.9336 61.6406 39.1992C61.6406 38.0469 61.6016 36.9727 61.5625 35.9766C59.4531 37.0508 56.875 37.5781 53.9062 37.4219C52.9492 37.3633 52.1875 36.6602 52.1875 35.7031C52.1875 34.7461 52.9492 33.9062 53.9062 33.9844C60.0586 34.3555 64.1602 30.8594 64.1602 25.2734C64.1602 20.2148 61.3281 16.1719 56.8359 14.2969C54.2969 30.3711 36.4453 28.1055 36.0156 39.3359C35.8789 43.0469 38.6914 45.957 42.8516 45.957C44.2578 45.957 44.9219 45.918 45.5664 45.8984C46.0938 50.2734 48.6914 54.1992 52.8125 54.1992Z" fill="black" fill-opacity="0.85"/>
 </g>
</svg>
