<?xml version="1.0" encoding="UTF-8"?>
<!--Generator: Apple Native CoreSVG 326-->
<!DOCTYPE svg
PUBLIC "-//W3C//DTD SVG 1.1//EN"
       "http://www.w3.org/Graphics/SVG/1.1/DTD/svg11.dtd">
<svg version="1.1" xmlns="http://www.w3.org/2000/svg" xmlns:xlink="http://www.w3.org/1999/xlink" viewBox="0 0 49.5898 59.1211">
 <g>
  <rect height="59.1211" opacity="0" width="49.5898" x="0" y="0"/>
  <path d="M28.457 58.9648C37.4414 58.9648 43.0273 55.7617 43.0273 50.332L43.0273 37.9883C46.9336 34.6289 49.2188 29.1797 49.2188 23.1836C49.2188 9.27734 40.1758 0 26.6602 0C13.2227 0 4.21875 9.08203 4.21875 22.6562C4.21875 23.4766 4.23828 24.1406 4.31641 24.7852L1.23047 30.3711C0.390625 31.8359 0 33.2422 0 34.5703C0 37.0898 1.58203 39.1797 4.25781 39.7852L4.25781 44.6289C4.25781 48.9062 7.20703 51.0742 11.1719 50.6641L16.4648 50.0977L14.0234 47.4023L14.0234 50.332C14.0234 55.7227 19.5312 58.9648 28.457 58.9648ZM28.457 55.5078C21.582 55.5078 17.3438 53.2617 17.3438 49.7266L17.3438 46.9727C17.3438 46.6211 17.1484 46.4844 16.8359 46.5039L10.7227 47.207C8.80859 47.4023 7.71484 46.5039 7.71484 44.3555L7.71484 37.2266C7.71484 36.9922 7.55859 36.8359 7.26562 36.8359L6.32812 36.8359C4.57031 36.8359 3.51562 35.9375 3.51562 34.4922C3.51562 33.8086 3.76953 32.9297 4.23828 32.0898L7.91016 25.4883C7.75391 24.5117 7.67578 23.5547 7.67578 22.5977C7.67578 11.1328 15.2734 3.45703 26.6602 3.45703C38.1055 3.45703 45.7617 11.3281 45.7617 23.1836C45.7617 28.7891 43.4375 33.7305 39.5508 36.2891L39.5508 49.7266C39.5508 53.2617 35.3125 55.5078 28.457 55.5078Z" fill="black" fill-opacity="0.85"/>
  <path d="M11.4062 18.8086C11.4062 23.1641 14.4141 26.0742 18.9062 26.0742C23.3008 26.0938 26.2891 23.4766 26.2891 19.5898C26.2891 17.9883 25.7031 16.5625 24.6875 15.7031C24.2969 15.3711 24.0234 15.2344 23.6328 15.2344C23.0273 15.2344 22.5781 15.6641 22.5781 16.2305C22.5781 16.8164 22.9297 17.0312 23.3398 17.4219C23.8672 17.9492 24.1602 18.6914 24.1602 19.5508C24.1602 22.1875 22.0898 23.9258 18.9258 23.9258C15.6836 23.9258 13.5742 21.9141 13.5742 18.8086C13.5742 16.9531 14.5508 15.1758 16.1328 14.2383L15.1367 12.2852C12.8906 13.5742 11.4062 16.1523 11.4062 18.8086ZM14.4922 12.6562C14.4922 15.4297 16.4844 17.3242 19.3945 17.3242C19.9805 17.3242 20.4883 16.8359 20.4883 16.2695C20.4883 15.6641 19.9805 15.1758 19.3945 15.1758C17.7344 15.1758 16.6602 14.1602 16.6602 12.6562C16.6602 11.0156 17.9688 9.82422 19.8242 9.82422C20.7617 9.82422 21.7188 10.1367 22.5391 10.7617L23.7891 8.96484C22.6562 8.125 21.2891 7.65625 19.8242 7.65625C16.7969 7.65625 14.4922 9.78516 14.4922 12.6562ZM20.7812 12.2852C20.7617 12.9297 21.2109 13.4375 21.8555 13.4375C22.4805 13.4375 22.9102 12.9883 22.9297 12.3633C23.0273 10.1172 24.6484 8.53516 26.9141 8.51562C28.2227 8.51562 29.3555 9.19922 29.8047 10.332C29.9609 10.6641 30.3125 10.6836 30.8203 10.5469C31.1523 10.4297 31.5234 10.4102 31.9141 10.4102C34.1602 10.4102 35.8398 12.0898 35.8398 14.4336C35.8398 19.9023 27.7734 19.043 27.7734 24.8242C27.7734 27.3633 29.8242 29.1406 32.793 29.1406C32.9883 29.1406 33.1836 29.1406 33.457 29.1406C33.8086 31.543 35.293 33.1445 37.1875 33.1445C39.8438 33.1445 41.6797 30.0586 41.6797 25.5664C41.6797 24.0625 41.582 22.9883 41.5039 21.9531L39.3164 22.6367C39.3945 23.6328 39.5312 24.4727 39.5312 25.5469C39.5312 28.7109 38.5156 30.9961 37.1875 30.9961C36.0547 30.9961 35.293 29.6484 35.293 27.6367C35.293 27.3242 35.0586 27.1484 34.7461 27.1484C34.4141 27.1484 33.8672 27.168 33.6133 27.168C31.2305 27.168 29.9414 26.3477 29.9414 24.8047C29.9414 20.4297 38.0078 21.5625 38.0078 14.4336C38.0078 10.8594 35.4492 8.22266 32.1094 8.22266C31.7969 8.22266 31.4453 8.26172 31.0938 8.35938C30.0977 7.12891 28.5742 6.38672 26.9141 6.38672C23.457 6.38672 20.9375 8.80859 20.7812 12.2852ZM35 23.8867C35 24.4727 35.4492 24.9219 36.0547 24.9805C40.1367 25.1758 42.9492 22.7148 42.9492 18.8672C42.9492 15.4688 40.4492 12.9297 36.8164 12.6953L36.5234 14.8828C39.082 14.7656 40.7812 16.3672 40.7812 18.8672C40.7812 21.4062 38.9258 22.9883 36.0938 22.832C35.5078 22.793 35 23.3008 35 23.8867ZM28.9844 25.4297C28.3008 25.7031 27.3438 25.8594 26.5039 25.8594C24.3555 25.8594 22.3438 24.9805 21.7383 23.7109L19.9609 25.1562C21.2891 26.8945 23.6719 27.9688 26.3672 27.9688C27.4023 27.9688 28.6133 27.793 29.668 27.4805ZM24.6289 17.2266L25.3516 19.2773C28.418 18.7891 30.0586 16.8945 30.0586 13.8281C30.0586 13.2812 29.5508 12.7539 28.9453 12.7539C28.3789 12.7539 27.9102 13.2617 27.9102 13.8477C27.9102 15.957 26.9141 16.9727 24.6289 17.2266Z" fill="black" fill-opacity="0.85"/>
 </g>
</svg>
