<?xml version="1.0" encoding="UTF-8"?>
<!--Generator: Apple Native CoreSVG 326-->
<!DOCTYPE svg
PUBLIC "-//W3C//DTD SVG 1.1//EN"
       "http://www.w3.org/Graphics/SVG/1.1/DTD/svg11.dtd">
<svg version="1.1" xmlns="http://www.w3.org/2000/svg" xmlns:xlink="http://www.w3.org/1999/xlink" viewBox="0 0 56.2305 55.8789">
 <g>
  <rect height="55.8789" opacity="0" width="56.2305" x="0" y="0"/>
  <path d="M27.9297 55.8594C43.2812 55.8594 55.8594 43.3008 55.8594 27.9297C55.8594 12.5586 43.2812 0 27.9297 0C12.5781 0 0 12.5586 0 27.9297C0 43.3008 12.5781 55.8594 27.9297 55.8594ZM27.9297 46.6797C17.5586 46.6797 9.16016 38.3008 9.16016 27.9297C9.16016 17.5586 17.5586 9.16016 27.9297 9.16016C38.3008 9.16016 46.6992 17.5586 46.6992 27.9297C46.6992 38.3008 38.3008 46.6797 27.9297 46.6797Z" fill="black" fill-opacity="0.85"/>
  <path d="M16.8164 38.1055C17.5977 38.1055 18.0859 37.5781 18.0859 36.7773L18.0859 29.5312L21.4453 29.5312L24.7266 37.1875C25 37.8125 25.3711 38.1055 25.9961 38.1055C26.7383 38.1055 27.2266 37.6172 27.2266 36.9141C27.2266 36.582 27.0898 36.2695 26.9727 35.9766L23.9062 28.9844C26.1914 28.0859 27.2266 25.8203 27.2266 23.4375C27.2266 19.6094 24.8633 17.4219 21.1719 17.4219L16.7969 17.4219C16.0156 17.4219 15.5469 17.9297 15.5469 18.7305L15.5469 36.7773C15.5469 37.5391 15.9375 38.1055 16.8164 38.1055ZM18.0859 27.4805L18.0859 19.5508L20.9375 19.5508C23.3789 19.5508 24.6875 21.1133 24.6875 23.4766C24.6875 25.8398 23.4961 27.4805 20.957 27.4805ZM35.4688 37.5391C39.0039 37.5391 41.3281 35.5469 41.3281 32.3828C41.3281 29.3945 39.4727 28.125 36.9922 26.9531L35.2344 26.1133C33.4961 25.293 32.1484 24.3359 32.1484 22.5781C32.1484 20.7227 33.5547 19.7656 35.4102 19.7656C37.5781 19.7656 38.418 21.1914 38.6719 22.9688C38.7695 23.4375 39.1602 23.9062 39.8438 23.9062C40.5273 23.9062 40.9766 23.4766 40.9766 22.793C40.9766 22.6172 40.9375 22.3047 40.8789 22.0703C40.293 18.9453 38.0664 17.7539 35.4102 17.7539C32.1875 17.7539 29.7656 19.5703 29.7656 22.7148C29.7656 25.3906 31.2891 26.8359 34.0039 28.1445L35.7617 28.9844C37.4805 29.8047 38.9062 30.7031 38.9062 32.5977C38.9062 34.5312 37.5977 35.4883 35.4883 35.4883C33.1836 35.4883 32.168 34.2578 31.8359 32.1484C31.7188 31.5039 31.2109 31.1914 30.7031 31.1914C30 31.1914 29.5312 31.582 29.5312 32.3242C29.5312 32.5 29.5703 32.793 29.6094 33.0273C30.2344 36.2305 32.6172 37.5391 35.4688 37.5391ZM35.4102 40.2344C35.8008 40.2344 36.0547 39.9805 36.0547 39.5898L36.0547 15.7617C36.0547 15.3906 35.8008 15.1367 35.4102 15.1367C35.0195 15.1367 34.7656 15.3906 34.7656 15.7617L34.7656 39.5898C34.7656 39.9805 35.0195 40.2344 35.4102 40.2344Z" fill="black" fill-opacity="0.85"/>
 </g>
</svg>
