<?xml version="1.0" encoding="UTF-8"?>
<!--Generator: Apple Native CoreSVG 326-->
<!DOCTYPE svg
PUBLIC "-//W3C//DTD SVG 1.1//EN"
       "http://www.w3.org/Graphics/SVG/1.1/DTD/svg11.dtd">
<svg version="1.1" xmlns="http://www.w3.org/2000/svg" xmlns:xlink="http://www.w3.org/1999/xlink" viewBox="0 0 63.3008 56.582">
 <g>
  <rect height="56.582" opacity="0" width="63.3008" x="0" y="0"/>
  <path d="M2.14844 51.6602C3.45703 51.6602 4.27734 50.8008 4.27734 49.4531L4.27734 31.9727L13.4766 31.9727C13.8281 31.9727 14.1992 31.9531 14.4531 31.9141L23.4961 50.3125C23.9453 51.2891 24.5703 51.6602 25.6055 51.6602C26.8164 51.6602 27.6562 50.8203 27.6562 49.707C27.6562 49.2969 27.5 48.7695 27.2266 48.2227L18.6719 31.0547C24.5508 29.1992 27.5195 24.375 27.5195 18.4375C27.5195 10.1562 21.9141 5.15625 13.4766 5.15625L2.08984 5.15625C0.820312 5.15625 0 6.01562 0 7.34375L0 49.4531C0 50.8008 0.820312 51.6602 2.14844 51.6602ZM4.27734 28.2422L4.27734 8.94531L13.0078 8.94531C19.2383 8.94531 23.2031 12.3242 23.2031 18.5547C23.2031 24.5898 19.5703 28.2422 13.1445 28.2422ZM48.9844 50.4297C56.6797 50.4297 62.9297 46.3477 62.9297 38.7695C62.9297 31.9141 57.9883 29.0625 52.0508 26.8555L47.7734 25.2539C43.4961 23.6133 39.6094 21.4844 39.6094 16.8945C39.6094 12.1094 43.9648 9.53125 48.8281 9.53125C53.9844 9.53125 57.3633 12.3828 58.1641 17.2461C58.418 18.3594 59.1406 19.0234 60.2539 19.0234C61.4844 19.0234 62.2266 18.2227 62.2266 17.0898C62.2266 16.7383 62.168 16.0938 62.0117 15.3711C60.625 9.08203 55.2148 5.85938 48.8281 5.85938C41.7969 5.85938 35.5273 9.86328 35.5273 17.1094C35.5273 23.4375 40.1367 26.6797 46.0547 28.8477L50.3711 30.4688C54.9609 32.1094 58.8281 34.1797 58.8281 39.1016C58.8281 44.2969 54.4727 46.7578 49.0039 46.7578C43.2812 46.7578 39.5898 44.043 38.7305 38.5742C38.4961 37.4609 37.8125 36.7578 36.6797 36.7578C35.4883 36.7578 34.707 37.5586 34.707 38.75C34.707 39.2383 34.7656 39.6484 34.8438 40.1172C36.1523 47.0117 42.0117 50.4297 48.9844 50.4297ZM48.8281 56.543C49.6484 56.543 50.2539 55.957 50.2539 55.1367L50.2539 1.42578C50.2539 0.585938 49.6484 0 48.8281 0C47.9688 0 47.3828 0.585938 47.3828 1.42578L47.3828 55.1367C47.3828 55.957 47.9688 56.543 48.8281 56.543Z" fill="black" fill-opacity="0.85"/>
 </g>
</svg>
