<?xml version="1.0" encoding="UTF-8"?>
<!--Generator: Apple Native CoreSVG 326-->
<!DOCTYPE svg
PUBLIC "-//W3C//DTD SVG 1.1//EN"
       "http://www.w3.org/Graphics/SVG/1.1/DTD/svg11.dtd">
<svg version="1.1" xmlns="http://www.w3.org/2000/svg" xmlns:xlink="http://www.w3.org/1999/xlink" viewBox="0 0 51.25 50.918">
 <g>
  <rect height="50.918" opacity="0" width="51.25" x="0" y="0"/>
  <path d="M25.4297 50.8789C39.4727 50.8789 50.8789 39.4922 50.8789 25.4492C50.8789 11.4062 39.4727 0 25.4297 0C11.3867 0 0 11.4062 0 25.4492C0 39.4922 11.3867 50.8789 25.4297 50.8789ZM25.4297 47.2461C13.3789 47.2461 3.63281 37.5 3.63281 25.4492C3.63281 13.3984 13.3789 3.65234 25.4297 3.65234C37.4805 3.65234 47.2266 13.3984 47.2266 25.4492C47.2266 37.5 37.4805 47.2461 25.4297 47.2461Z" fill="black" fill-opacity="0.85"/>
  <path d="M14.2969 35.625C15.0977 35.625 15.5664 35.0977 15.5664 34.2969L15.5664 27.0508L18.9258 27.0508L22.207 34.707C22.4805 35.332 22.8516 35.625 23.4961 35.625C24.2188 35.625 24.707 35.1367 24.707 34.4336C24.707 34.1016 24.5703 33.7891 24.4531 33.4961L21.3867 26.5039C23.6719 25.6055 24.707 23.3398 24.707 20.957C24.707 17.1289 22.3438 14.9414 18.6523 14.9414L14.2773 14.9414C13.4961 14.9414 13.0273 15.4492 13.0273 16.25L13.0273 34.2969C13.0273 35.0586 13.418 35.625 14.2969 35.625ZM15.5664 25L15.5664 17.0703L18.418 17.0703C20.8594 17.0703 22.168 18.6328 22.168 20.9961C22.168 23.3594 20.9766 25 18.4375 25ZM32.9492 35.0586C36.4844 35.0586 38.8086 33.0664 38.8086 29.9023C38.8086 26.9141 36.9727 25.6445 34.4727 24.4727L32.7148 23.6328C30.9961 22.8125 29.6289 21.8555 29.6289 20.0977C29.6289 18.2422 31.0547 17.2852 32.8906 17.2852C35.0586 17.2852 35.8984 18.7109 36.1523 20.4883C36.25 20.957 36.6406 21.4258 37.3242 21.4258C38.0078 21.4258 38.457 20.9961 38.457 20.3125C38.457 20.1367 38.418 19.8242 38.3789 19.5898C37.793 16.4648 35.5469 15.2734 32.8906 15.2734C29.6875 15.2734 27.2461 17.0898 27.2461 20.2344C27.2461 22.9102 28.7891 24.3555 31.4844 25.6641L33.2422 26.5039C34.9609 27.3242 36.3867 28.2227 36.3867 30.1172C36.3867 32.0508 35.0781 33.0078 32.9688 33.0078C30.6836 33.0078 29.668 31.7773 29.3164 29.668C29.2188 29.0234 28.7109 28.7109 28.1836 28.7109C27.5 28.7109 27.0117 29.1016 27.0117 29.8438C27.0117 30.0195 27.0508 30.3125 27.0898 30.5469C27.7148 33.75 30.0977 35.0586 32.9492 35.0586ZM32.9102 37.7539C33.2812 37.7539 33.5352 37.5 33.5352 37.1094L33.5352 13.2812C33.5352 12.9102 33.2812 12.6562 32.9102 12.6562C32.5195 12.6562 32.2656 12.9102 32.2656 13.2812L32.2656 37.1094C32.2656 37.5 32.5195 37.7539 32.9102 37.7539Z" fill="black" fill-opacity="0.85"/>
 </g>
</svg>
