<?xml version="1.0" encoding="UTF-8"?>
<!--Generator: Apple Native CoreSVG 326-->
<!DOCTYPE svg
PUBLIC "-//W3C//DTD SVG 1.1//EN"
       "http://www.w3.org/Graphics/SVG/1.1/DTD/svg11.dtd">
<svg version="1.1" xmlns="http://www.w3.org/2000/svg" xmlns:xlink="http://www.w3.org/1999/xlink" viewBox="0 0 51.25 50.918">
 <g>
  <rect height="50.918" opacity="0" width="51.25" x="0" y="0"/>
  <path d="M50.8789 25.4688C50.8789 39.4922 39.4531 50.918 25.4297 50.918C11.4258 50.918 0 39.4922 0 25.4688C0 11.4648 11.4258 0.0390625 25.4297 0.0390625C39.4531 0.0390625 50.8789 11.4648 50.8789 25.4688ZM28.9258 25.8398L28.9258 26.9141C28.9258 27.8125 28.3984 28.3398 27.5195 28.3398L23.3789 28.3398C22.5 28.3398 21.9922 27.8125 21.9922 26.9141L21.9922 25.8398C18.3008 25.6055 14.6875 24.9414 10.8203 23.5742L10.8203 33.2812C10.8203 35.8984 12.1094 37.168 14.7266 37.168L36.1719 37.168C38.7891 37.168 40.0977 35.8984 40.0977 33.2812L40.0977 23.5742C36.2109 24.9414 32.5977 25.6055 28.9258 25.8398ZM21.0938 11.4844C19.0234 11.4844 17.7148 12.6953 17.7148 14.707L17.7148 16.2695L14.7266 16.2695C12.1094 16.2695 10.8203 17.5195 10.8203 20.1367L10.8203 21.4258C15.6641 23.3789 20.332 24.043 25.4492 24.043C30.5859 24.043 35.2344 23.3789 40.0977 21.4258L40.0977 20.1367C40.0977 17.5195 38.7891 16.2695 36.1719 16.2695L33.1836 16.2695L33.1836 14.707C33.1836 12.6953 31.875 11.4844 29.8242 11.4844ZM30.9375 14.8047L30.9375 16.2695L19.9609 16.2695L19.9609 14.8047C19.9609 14.0625 20.4102 13.6133 21.2109 13.6133L29.668 13.6133C30.4688 13.6133 30.9375 14.0625 30.9375 14.8047Z" fill="black" fill-opacity="0.85"/>
 </g>
</svg>
