<?xml version="1.0" encoding="UTF-8"?>
<!--Generator: Apple Native CoreSVG 326-->
<!DOCTYPE svg
PUBLIC "-//W3C//DTD SVG 1.1//EN"
       "http://www.w3.org/Graphics/SVG/1.1/DTD/svg11.dtd">
<svg version="1.1" xmlns="http://www.w3.org/2000/svg" xmlns:xlink="http://www.w3.org/1999/xlink" viewBox="0 0 52.832 51.2305">
 <g>
  <rect height="51.2305" opacity="0" width="52.832" x="0" y="0"/>
  <path d="M44.2578 33.7891C45.0977 40.1172 45.1562 40.1172 51.6016 41.1133C52.1094 41.2109 52.4609 41.5625 52.4609 42.0508C52.4609 42.5391 52.1094 42.8906 51.6211 42.9883C45.0977 44.2383 45.1172 44.1406 44.2578 50.3516C44.1797 50.8398 43.7891 51.1719 43.3203 51.1719C42.793 51.1719 42.4219 50.8203 42.3828 50.3125C41.543 44.1016 41.4844 44.082 35.0586 42.9883C34.5117 42.8906 34.1797 42.5586 34.1797 42.0508C34.1797 41.6016 34.4922 41.2305 34.9805 41.1133C41.4844 39.8828 41.543 40.0195 42.3828 33.8086C42.4219 33.3008 42.793 32.9297 43.3203 32.9297C43.8086 32.9297 44.1992 33.2812 44.2578 33.7891Z" fill="black" fill-opacity="0.85"/>
  <path d="M16.9922 0.664062C17.8516 5.44922 17.7344 5.27344 22.5391 6.21094C22.9492 6.30859 23.2031 6.60156 23.2031 6.99219C23.2031 7.36328 22.9492 7.67578 22.5391 7.75391C17.7344 8.69141 17.8516 8.51562 16.9922 13.3008C16.9141 13.6914 16.6016 13.9648 16.2305 13.9648C15.8398 13.9648 15.5273 13.6914 15.4688 13.3008C14.6094 8.51562 14.7266 8.69141 9.92188 7.75391C9.51172 7.67578 9.25781 7.36328 9.25781 6.99219C9.25781 6.60156 9.51172 6.30859 9.92188 6.21094C14.7266 5.27344 14.6094 5.44922 15.4688 0.664062C15.5273 0.273438 15.8398 0 16.2305 0C16.6016 0 16.9141 0.273438 16.9922 0.664062Z" fill="black" fill-opacity="0.85"/>
  <path d="M22.9492 43.3008C22.9492 47.0898 19.8633 50.1758 16.1328 50.1758C12.3438 50.1758 9.25781 47.0898 9.25781 43.3008C9.25781 39.5703 12.3438 36.4844 16.1328 36.4844C19.8438 36.4844 22.9492 39.5703 22.9492 43.3008Z" fill="black" fill-opacity="0.85"/>
  <path d="M12.7148 21.1914C12.7148 24.6875 9.82422 27.5586 6.36719 27.5586C2.87109 27.5586 0 24.707 0 21.1914C0 17.7148 2.87109 14.8438 6.36719 14.8438C9.82422 14.8438 12.7148 17.7344 12.7148 21.1914Z" fill="black" fill-opacity="0.85"/>
  <path d="M51.2695 14.8438C51.2695 20.7007 46.927 25.5455 41.2823 26.32C41.3817 25.7526 41.4258 25.1668 41.4258 24.5703C41.4258 18.0469 36.1523 12.7734 29.6484 12.7734C29.1802 12.7734 28.7185 12.8006 28.267 12.8607C29.1947 7.4004 33.9394 3.26172 39.668 3.26172C46.0742 3.26172 51.2695 8.4375 51.2695 14.8438Z" fill="black" fill-opacity="0.85"/>
  <path d="M29.6484 33.6328C34.6484 33.6328 38.7109 29.5898 38.7109 24.5703C38.7109 19.5508 34.6484 15.4883 29.6484 15.4883C24.6289 15.4883 20.5859 19.5508 20.5859 24.5703C20.5859 29.5898 24.6289 33.6328 29.6484 33.6328Z" fill="black" fill-opacity="0.85"/>
 </g>
</svg>
