<?xml version="1.0" encoding="UTF-8"?>
<!--Generator: Apple Native CoreSVG 326-->
<!DOCTYPE svg
PUBLIC "-//W3C//DTD SVG 1.1//EN"
       "http://www.w3.org/Graphics/SVG/1.1/DTD/svg11.dtd">
<svg version="1.1" xmlns="http://www.w3.org/2000/svg" xmlns:xlink="http://www.w3.org/1999/xlink" viewBox="0 0 55.5273 53.1055">
 <g>
  <rect height="53.1055" opacity="0" width="55.5273" x="0" y="0"/>
  <path d="M3.76953 16.6797L51.3867 16.6797C52.5781 16.6797 53.2422 15.8398 53.2422 14.9609C53.2422 14.3164 52.8906 13.75 52.1094 13.3008L30.5273 0.839844C29.5703 0.292969 28.5547 0 27.5781 0C26.582 0 25.5469 0.292969 24.6289 0.839844L3.04688 13.3008C2.24609 13.75 1.91406 14.3164 1.91406 14.9609C1.91406 15.8398 2.57812 16.6797 3.76953 16.6797ZM5.48828 21.4844L12.1484 21.4844C12.9492 21.4844 13.418 21.0352 13.418 20.2344L13.418 19.8633C13.418 19.082 12.9492 18.6133 12.1484 18.6133L5.48828 18.6133C4.66797 18.6133 4.19922 19.082 4.19922 19.8633L4.19922 20.2344C4.19922 21.0352 4.66797 21.4844 5.48828 21.4844ZM7.16797 45.5078L10.4297 45.5078L10.4297 20.7812L7.16797 20.7812ZM5.48828 47.6758L12.1484 47.6758C12.9492 47.6758 13.418 47.207 13.418 46.4062L13.418 46.0547C13.418 45.2734 12.9492 44.8242 12.1484 44.8242L5.48828 44.8242C4.66797 44.8242 4.19922 45.2734 4.19922 46.0547L4.19922 46.4062C4.19922 47.207 4.66797 47.6758 5.48828 47.6758ZM17.9883 21.4844L24.6484 21.4844C25.4688 21.4844 25.9375 21.0352 25.9375 20.2344L25.9375 19.8633C25.9375 19.082 25.4688 18.6133 24.6484 18.6133L17.9883 18.6133C17.1875 18.6133 16.7188 19.082 16.7188 19.8633L16.7188 20.2344C16.7188 21.0352 17.1875 21.4844 17.9883 21.4844ZM19.6875 45.5078L22.9492 45.5078L22.9492 20.7812L19.6875 20.7812ZM17.9883 47.6758L24.6484 47.6758C25.4688 47.6758 25.9375 47.207 25.9375 46.4062L25.9375 46.0547C25.9375 45.2734 25.4688 44.8242 24.6484 44.8242L17.9883 44.8242C17.1875 44.8242 16.7188 45.2734 16.7188 46.0547L16.7188 46.4062C16.7188 47.207 17.1875 47.6758 17.9883 47.6758ZM30.5078 21.4844L37.168 21.4844C37.9688 21.4844 38.4375 21.0352 38.4375 20.2344L38.4375 19.8633C38.4375 19.082 37.9688 18.6133 37.168 18.6133L30.5078 18.6133C29.707 18.6133 29.2383 19.082 29.2383 19.8633L29.2383 20.2344C29.2383 21.0352 29.707 21.4844 30.5078 21.4844ZM32.2266 45.5078L35.4883 45.5078L35.4883 20.7812L32.2266 20.7812ZM30.5078 47.6758L37.168 47.6758C37.9688 47.6758 38.4375 47.207 38.4375 46.4062L38.4375 46.0547C38.4375 45.2734 37.9688 44.8242 37.168 44.8242L30.5078 44.8242C29.707 44.8242 29.2383 45.2734 29.2383 46.0547L29.2383 46.4062C29.2383 47.207 29.707 47.6758 30.5078 47.6758ZM43.0273 21.4844L49.6875 21.4844C50.4883 21.4844 50.957 21.0352 50.957 20.2344L50.957 19.8633C50.957 19.082 50.4883 18.6133 49.6875 18.6133L43.0273 18.6133C42.2266 18.6133 41.7578 19.082 41.7578 19.8633L41.7578 20.2344C41.7578 21.0352 42.2266 21.4844 43.0273 21.4844ZM44.7461 45.5078L48.0078 45.5078L48.0078 20.7812L44.7461 20.7812ZM43.0273 47.6758L49.6875 47.6758C50.4883 47.6758 50.957 47.207 50.957 46.4062L50.957 46.0547C50.957 45.2734 50.4883 44.8242 49.6875 44.8242L43.0273 44.8242C42.2266 44.8242 41.7578 45.2734 41.7578 46.0547L41.7578 46.4062C41.7578 47.207 42.2266 47.6758 43.0273 47.6758ZM1.73828 53.0664L53.418 53.0664C54.375 53.0664 55.1562 52.2852 55.1562 51.3477C55.1562 50.3906 54.375 49.6094 53.418 49.6094L1.73828 49.6094C0.78125 49.6094 0 50.3906 0 51.3477C0 52.2852 0.78125 53.0664 1.73828 53.0664Z" fill="black" fill-opacity="0.85"/>
 </g>
</svg>
