<?xml version="1.0" encoding="UTF-8"?>
<!--Generator: Apple Native CoreSVG 326-->
<!DOCTYPE svg
PUBLIC "-//W3C//DTD SVG 1.1//EN"
       "http://www.w3.org/Graphics/SVG/1.1/DTD/svg11.dtd">
<svg version="1.1" xmlns="http://www.w3.org/2000/svg" xmlns:xlink="http://www.w3.org/1999/xlink" viewBox="0 0 51.25 50.918">
 <g>
  <rect height="50.918" opacity="0" width="51.25" x="0" y="0"/>
  <path d="M25.4297 50.8789C39.4727 50.8789 50.8789 39.4922 50.8789 25.4492C50.8789 11.4062 39.4727 0 25.4297 0C11.3867 0 0 11.4062 0 25.4492C0 39.4922 11.3867 50.8789 25.4297 50.8789ZM25.4297 47.2461C13.3789 47.2461 3.63281 37.5 3.63281 25.4492C3.63281 13.3984 13.3789 3.65234 25.4297 3.65234C37.4805 3.65234 47.2266 13.3984 47.2266 25.4492C47.2266 37.5 37.4805 47.2461 25.4297 47.2461ZM25.4297 49.0625C27.6562 49.0625 29.7852 48.75 31.7969 48.125L31.7969 16.9922C31.7969 15.1758 30.8203 14.0625 29.043 14.0625L12.2266 14.0625C10.4883 14.0625 9.47266 15.1758 9.47266 16.9922L9.47266 42.1289C13.4375 46.4062 19.082 49.0625 25.4297 49.0625ZM15.4297 42.5977C15.1172 42.5977 14.9023 42.3633 14.9023 42.0312L14.9023 39.2969C14.9023 38.9844 15.1172 38.7305 15.4297 38.7305L18.2422 38.7305C18.5547 38.7305 18.7891 38.9844 18.7891 39.2969L18.7891 42.0312C18.7891 42.3633 18.5547 42.5977 18.2422 42.5977ZM22.9297 42.5977C22.6172 42.5977 22.4023 42.3633 22.4023 42.0312L22.4023 39.2969C22.4023 38.9844 22.6172 38.7305 22.9297 38.7305L25.7422 38.7305C26.0547 38.7305 26.2695 38.9844 26.2695 39.2969L26.2695 42.0312C26.2695 42.3633 26.0547 42.5977 25.7422 42.5977ZM15.4297 35.8398C15.1172 35.8398 14.9023 35.6055 14.9023 35.293L14.9023 32.5586C14.9023 32.2461 15.1172 32.0117 15.4297 32.0117L18.2422 32.0117C18.5547 32.0117 18.7891 32.2461 18.7891 32.5586L18.7891 35.293C18.7891 35.6055 18.5547 35.8398 18.2422 35.8398ZM22.9297 35.8398C22.6172 35.8398 22.4023 35.6055 22.4023 35.293L22.4023 32.5586C22.4023 32.2461 22.6172 32.0117 22.9297 32.0117L25.7422 32.0117C26.0547 32.0117 26.2695 32.2461 26.2695 32.5586L26.2695 35.293C26.2695 35.6055 26.0547 35.8398 25.7422 35.8398ZM15.4297 29.1016C15.1172 29.1016 14.9023 28.8672 14.9023 28.5547L14.9023 25.8203C14.9023 25.5078 15.1172 25.2734 15.4297 25.2734L18.2422 25.2734C18.5547 25.2734 18.7891 25.5078 18.7891 25.8203L18.7891 28.5547C18.7891 28.8672 18.5547 29.1016 18.2422 29.1016ZM22.9297 29.1016C22.6172 29.1016 22.4023 28.8672 22.4023 28.5547L22.4023 25.8203C22.4023 25.5078 22.6172 25.2734 22.9297 25.2734L25.7422 25.2734C26.0547 25.2734 26.2695 25.5078 26.2695 25.8203L26.2695 28.5547C26.2695 28.8672 26.0547 29.1016 25.7422 29.1016ZM15.4297 22.4219C15.1172 22.4219 14.9023 22.168 14.9023 21.875L14.9023 19.1211C14.9023 18.8086 15.1172 18.5742 15.4297 18.5742L18.2422 18.5742C18.5547 18.5742 18.7891 18.8086 18.7891 19.1211L18.7891 21.875C18.7891 22.168 18.5547 22.4219 18.2422 22.4219ZM22.9297 22.4219C22.6172 22.4219 22.4023 22.168 22.4023 21.875L22.4023 19.1211C22.4023 18.8086 22.6172 18.5742 22.9297 18.5742L25.7422 18.5742C26.0547 18.5742 26.2695 18.8086 26.2695 19.1211L26.2695 21.875C26.2695 22.168 26.0547 22.4219 25.7422 22.4219ZM33.6328 47.4805C37.7539 45.8203 41.25 42.9102 43.6133 39.2188L43.6133 23.4766C43.6133 21.6406 42.6172 20.5469 40.8594 20.5469L33.6328 20.5469ZM37.3828 39.8828C37.1289 39.8828 36.9141 39.6875 36.9141 39.4531L36.9141 37.0703C36.9141 36.8359 37.1289 36.6016 37.3828 36.6016L39.8242 36.6016C40.0781 36.6016 40.2539 36.8359 40.2539 37.0703L40.2539 39.4531C40.2539 39.6875 40.0781 39.8828 39.8242 39.8828ZM37.3828 33.9844C37.1289 33.9844 36.9141 33.7891 36.9141 33.5352L36.9141 31.1719C36.9141 30.918 37.1289 30.7227 37.3828 30.7227L39.8242 30.7227C40.0781 30.7227 40.2539 30.918 40.2539 31.1719L40.2539 33.5352C40.2539 33.7891 40.0781 33.9844 39.8242 33.9844ZM37.3828 28.1055C37.1289 28.1055 36.9141 27.8906 36.9141 27.6367L36.9141 25.2539C36.9141 25.0195 37.1289 24.8242 37.3828 24.8242L39.8242 24.8242C40.0781 24.8242 40.2539 25.0195 40.2539 25.2539L40.2539 27.6367C40.2539 27.8906 40.0781 28.1055 39.8242 28.1055Z" fill="black" fill-opacity="0.85"/>
 </g>
</svg>
