<?xml version="1.0" encoding="UTF-8"?>
<!--Generator: Apple Native CoreSVG 326-->
<!DOCTYPE svg
PUBLIC "-//W3C//DTD SVG 1.1//EN"
       "http://www.w3.org/Graphics/SVG/1.1/DTD/svg11.dtd">
<svg version="1.1" xmlns="http://www.w3.org/2000/svg" xmlns:xlink="http://www.w3.org/1999/xlink" viewBox="0 0 34.0625 58.0664">
 <g>
  <rect height="58.0664" opacity="0" width="34.0625" x="0" y="0"/>
  <path d="M7.10938 15.6641L7.10938 10.4883C7.10938 9.86328 7.48047 9.43359 8.10547 9.43359L13.418 9.43359C14.043 9.43359 14.4531 9.86328 14.4531 10.4883L14.4531 15.6641C14.4531 16.2891 14.043 16.6992 13.418 16.6992L8.10547 16.6992C7.48047 16.6992 7.10938 16.2891 7.10938 15.6641ZM19.2578 15.6641L19.2578 10.4883C19.2578 9.86328 19.6484 9.43359 20.2539 9.43359L25.5859 9.43359C26.1914 9.43359 26.6016 9.86328 26.6016 10.4883L26.6016 15.6641C26.6016 16.2891 26.1914 16.6992 25.5859 16.6992L20.2539 16.6992C19.6484 16.6992 19.2578 16.2891 19.2578 15.6641ZM7.10938 26.4062L7.10938 21.2109C7.10938 20.5859 7.48047 20.1953 8.10547 20.1953L13.418 20.1953C14.043 20.1953 14.4531 20.5859 14.4531 21.2109L14.4531 26.4062C14.4531 27.0312 14.043 27.4414 13.418 27.4414L8.10547 27.4414C7.48047 27.4414 7.10938 27.0312 7.10938 26.4062ZM19.2578 26.4062L19.2578 21.2109C19.2578 20.5859 19.6484 20.1953 20.2539 20.1953L25.5859 20.1953C26.1914 20.1953 26.6016 20.5859 26.6016 21.2109L26.6016 26.4062C26.6016 27.0312 26.1914 27.4414 25.5859 27.4414L20.2539 27.4414C19.6484 27.4414 19.2578 27.0312 19.2578 26.4062ZM7.10938 37.1289L7.10938 31.9531C7.10938 31.3477 7.48047 30.918 8.10547 30.918L13.418 30.918C14.043 30.918 14.4531 31.3477 14.4531 31.9531L14.4531 37.1289C14.4531 37.7539 14.043 38.1836 13.418 38.1836L8.10547 38.1836C7.48047 38.1836 7.10938 37.7539 7.10938 37.1289ZM19.2578 37.1289L19.2578 31.9531C19.2578 31.3477 19.6484 30.918 20.2539 30.918L25.5859 30.918C26.1914 30.918 26.6016 31.3477 26.6016 31.9531L26.6016 37.1289C26.6016 37.7539 26.1914 38.1836 25.5859 38.1836L20.2539 38.1836C19.6484 38.1836 19.2578 37.7539 19.2578 37.1289ZM3.76953 58.0469L29.9219 58.0469C32.2852 58.0469 33.6914 56.5039 33.6914 53.9844L33.6914 4.0625C33.6914 1.52344 32.2852 0 29.9219 0L3.76953 0C1.40625 0 0 1.52344 0 4.0625L0 53.9844C0 56.5039 1.40625 58.0469 3.76953 58.0469ZM10.8789 54.7461L10.8789 47.4414C10.8789 46.0547 11.6602 45.293 13.0469 45.293L20.6641 45.293C22.0898 45.293 22.8125 46.0547 22.8125 47.4414L22.8125 54.7461Z" fill="black" fill-opacity="0.85"/>
 </g>
</svg>
