<?xml version="1.0" encoding="UTF-8"?>
<!--Generator: Apple Native CoreSVG 326-->
<!DOCTYPE svg
PUBLIC "-//W3C//DTD SVG 1.1//EN"
       "http://www.w3.org/Graphics/SVG/1.1/DTD/svg11.dtd">
<svg version="1.1" xmlns="http://www.w3.org/2000/svg" xmlns:xlink="http://www.w3.org/1999/xlink" viewBox="0 0 54.4336 64.3164">
 <g>
  <rect height="64.3164" opacity="0" width="54.4336" x="0" y="0"/>
  <path d="M50.9375 19.3359L50.9375 57.1094C50.9375 59.6289 49.5508 61.1719 47.1875 61.1719L38.8558 61.1719C39.5446 60.0408 39.9219 58.6546 39.9219 57.1094L39.9219 49.2188L43.9648 49.2188C44.4531 49.2188 44.7461 48.8867 44.7461 48.457L44.7461 44.4336C44.7461 43.9648 44.4531 43.6328 43.9648 43.6328L39.9219 43.6328L39.9219 39.8242L43.9648 39.8242C44.4531 39.8242 44.7461 39.5312 44.7461 39.0625L44.7461 35.0586C44.7461 34.5703 44.4531 34.2773 43.9648 34.2773L39.9219 34.2773L39.9219 30.4688L43.9648 30.4688C44.4531 30.4688 44.7461 30.1367 44.7461 29.707L44.7461 25.6445C44.7461 25.2148 44.4531 24.8828 43.9648 24.8828L39.9219 24.8828L39.9219 15.2539L47.1875 15.2539C49.5508 15.2539 50.9375 16.7773 50.9375 19.3359Z" fill="black" fill-opacity="0.85"/>
  <path d="M10.2344 18.7891L10.2344 13.6133C10.2344 12.9883 10.6055 12.5586 11.2109 12.5586L16.543 12.5586C17.1484 12.5586 17.5781 12.9883 17.5781 13.6133L17.5781 18.7891C17.5781 19.4141 17.1484 19.8242 16.543 19.8242L11.2109 19.8242C10.6055 19.8242 10.2344 19.4141 10.2344 18.7891ZM22.3633 18.7891L22.3633 13.6133C22.3633 12.9883 22.7539 12.5586 23.3789 12.5586L28.6914 12.5586C29.3164 12.5586 29.707 12.9883 29.707 13.6133L29.707 18.7891C29.707 19.4141 29.3164 19.8242 28.6914 19.8242L23.3789 19.8242C22.7539 19.8242 22.3633 19.4141 22.3633 18.7891ZM10.2344 29.5312L10.2344 24.3359C10.2344 23.7109 10.6055 23.3203 11.2109 23.3203L16.543 23.3203C17.1484 23.3203 17.5781 23.7109 17.5781 24.3359L17.5781 29.5312C17.5781 30.1562 17.1484 30.5664 16.543 30.5664L11.2109 30.5664C10.6055 30.5664 10.2344 30.1562 10.2344 29.5312ZM22.3633 29.5312L22.3633 24.3359C22.3633 23.7109 22.7539 23.3203 23.3789 23.3203L28.6914 23.3203C29.3164 23.3203 29.707 23.7109 29.707 24.3359L29.707 29.5312C29.707 30.1562 29.3164 30.5664 28.6914 30.5664L23.3789 30.5664C22.7539 30.5664 22.3633 30.1562 22.3633 29.5312ZM10.2344 40.2539L10.2344 35.0781C10.2344 34.4727 10.6055 34.043 11.2109 34.043L16.543 34.043C17.1484 34.043 17.5781 34.4727 17.5781 35.0781L17.5781 40.2539C17.5781 40.8789 17.1484 41.3086 16.543 41.3086L11.2109 41.3086C10.6055 41.3086 10.2344 40.8789 10.2344 40.2539ZM22.3633 40.2539L22.3633 35.0781C22.3633 34.4727 22.7539 34.043 23.3789 34.043L28.6914 34.043C29.3164 34.043 29.707 34.4727 29.707 35.0781L29.707 40.2539C29.707 40.8789 29.3164 41.3086 28.6914 41.3086L23.3789 41.3086C22.7539 41.3086 22.3633 40.8789 22.3633 40.2539ZM6.875 61.1719L33.0273 61.1719C35.3906 61.1719 36.7969 59.6289 36.7969 57.1094L36.7969 7.1875C36.7969 4.64844 35.3906 3.125 33.0273 3.125L6.875 3.125C4.51172 3.125 3.10547 4.64844 3.10547 7.1875L3.10547 57.1094C3.10547 59.6289 4.51172 61.1719 6.875 61.1719ZM13.9844 57.8711L13.9844 50.5664C13.9844 49.1797 14.7656 48.418 16.1523 48.418L23.7891 48.418C25.1953 48.418 25.9375 49.1797 25.9375 50.5664L25.9375 57.8711Z" fill="black" fill-opacity="0.85"/>
 </g>
</svg>
