<?xml version="1.0" encoding="UTF-8"?>
<!--Generator: Apple Native CoreSVG 326-->
<!DOCTYPE svg
PUBLIC "-//W3C//DTD SVG 1.1//EN"
       "http://www.w3.org/Graphics/SVG/1.1/DTD/svg11.dtd">
<svg version="1.1" xmlns="http://www.w3.org/2000/svg" xmlns:xlink="http://www.w3.org/1999/xlink" viewBox="0 0 52.168 62.2852">
 <g>
  <rect height="62.2852" opacity="0" width="52.168" x="0" y="0"/>
  <path d="M3.35938 57.4414C3.35938 59.2773 4.78516 60.7031 6.64062 60.7031L9.57031 60.7031C11.4258 60.7031 12.8516 59.2773 12.8516 57.4414L12.8516 53.3203C17.6367 53.6523 21.7773 53.8281 25.8789 53.8281C30.0195 53.8281 34.1406 53.6719 38.9258 53.3203L38.9258 57.4414C38.9258 59.2773 40.3516 60.7031 42.207 60.7031L45.1367 60.7031C46.9922 60.7031 48.418 59.2773 48.418 57.4414L48.418 6.23047C48.418 3.06641 46.543 1.30859 43.2812 0.9375C37.9688 0.332031 31.8945 0 25.8789 0C19.9219 0 13.8672 0.332031 8.49609 0.9375C5.21484 1.30859 3.35938 3.06641 3.35938 6.23047ZM7.83203 20.1758L7.83203 8.14453C7.83203 6.52344 8.71094 5.46875 10.2344 5.3125C15.6055 4.70703 20.7617 4.41406 25.8789 4.41406C31.0156 4.41406 36.1914 4.72656 41.5625 5.3125C43.0859 5.46875 43.9648 6.52344 43.9648 8.14453L43.9648 20.1758ZM7.83203 23.4961L43.9648 23.4961L43.9648 35.1367C43.9648 36.7578 43.0859 37.8125 41.5625 37.9688C36.5039 38.5352 31.1719 38.8281 25.8789 38.8281C20.6055 38.8281 15.293 38.5547 10.2344 37.9688C8.71094 37.8125 7.83203 36.7578 7.83203 35.1367ZM12.3633 48.3398C10.7227 48.3398 9.47266 47.0898 9.47266 45.4688C9.47266 43.8281 10.7227 42.5781 12.3633 42.5781C13.9844 42.5781 15.2148 43.8281 15.2148 45.4688C15.2148 47.0898 13.9844 48.3398 12.3633 48.3398ZM21.2695 47.4805C20.0977 47.4805 19.2383 46.6211 19.2383 45.4492C19.2383 44.2773 20.0781 43.4375 21.2695 43.4375L30.5078 43.4375C31.6992 43.4375 32.5391 44.2773 32.5391 45.4492C32.5391 46.6211 31.6797 47.4805 30.5078 47.4805ZM39.4531 48.3398C37.8125 48.3398 36.582 47.0898 36.582 45.4688C36.582 43.8281 37.8125 42.5781 39.4531 42.5781C41.0742 42.5781 42.3242 43.8281 42.3242 45.4688C42.3242 47.0898 41.0742 48.3398 39.4531 48.3398ZM4.78516 29.1797L4.78516 16.3086L2.20703 16.3086C0.878906 16.3086 0 17.1094 0 18.3398L0 27.1484C0 28.3789 0.878906 29.1797 2.20703 29.1797ZM47.0117 29.1797L49.5898 29.1797C50.918 29.1797 51.7969 28.3789 51.7969 27.1484L51.7969 18.3398C51.7969 17.1094 50.918 16.3086 49.5898 16.3086L47.0117 16.3086Z" fill="black" fill-opacity="0.85"/>
 </g>
</svg>
