<?xml version="1.0" encoding="UTF-8"?>
<!--Generator: Apple Native CoreSVG 326-->
<!DOCTYPE svg
PUBLIC "-//W3C//DTD SVG 1.1//EN"
       "http://www.w3.org/Graphics/SVG/1.1/DTD/svg11.dtd">
<svg version="1.1" xmlns="http://www.w3.org/2000/svg" xmlns:xlink="http://www.w3.org/1999/xlink" viewBox="0 0 54.4922 57.6367">
 <g>
  <rect height="57.6367" opacity="0" width="54.4922" x="0" y="0"/>
  <path d="M6.64062 57.6367L9.57031 57.6367C11.4258 57.6367 12.8516 56.2109 12.8516 54.375L12.8516 50.2344C17.6953 50.5859 22.5391 50.7812 27.0508 50.7812C31.5625 50.7812 36.4258 50.6055 41.2695 50.2539L41.2695 54.375C41.2695 56.2109 42.6953 57.6367 44.5508 57.6367L47.4805 57.6367C49.3359 57.6367 50.7617 56.1914 50.7617 54.375L50.7617 6.25C50.7617 3.08594 48.9062 1.32812 45.6445 0.957031C40.2734 0.332031 33.5352 0 27.0508 0C20.5859 0 13.8672 0.3125 8.49609 0.957031C5.21484 1.32812 3.35938 3.08594 3.35938 6.25L3.35938 54.375C3.35938 56.1914 4.78516 57.6367 6.64062 57.6367ZM10.3906 33.8867C8.78906 33.6523 7.98828 32.7344 7.98828 31.0352L7.98828 8.35938C7.98828 6.46484 8.88672 5.44922 10.6836 5.25391C21.4844 4.14062 32.7539 4.14062 43.4766 5.25391C45.2734 5.44922 46.1523 6.46484 46.1523 8.35938L46.1523 31.0352C46.1523 32.7344 45.3516 33.6523 43.75 33.8867C33.3008 35.332 20.6836 35.3125 10.3906 33.8867ZM12.0898 44.6875C10.332 44.6875 9.02344 43.3789 9.02344 41.6406C9.02344 39.8828 10.332 38.5742 12.0898 38.5742C13.8281 38.5742 15.1367 39.8828 15.1367 41.6406C15.1367 43.3789 13.8281 44.6875 12.0898 44.6875ZM21.4062 43.6914C20.1758 43.6914 19.3164 42.832 19.3164 41.6016C19.3164 40.3711 20.1758 39.5312 21.4062 39.5312L32.6367 39.5312C33.8672 39.5312 34.7266 40.3711 34.7266 41.6016C34.7266 42.832 33.8672 43.6914 32.6367 43.6914ZM42.0508 44.6875C40.293 44.6875 39.0039 43.3789 39.0039 41.6406C39.0039 39.8828 40.293 38.5742 42.0508 38.5742C43.7891 38.5742 45.0977 39.8828 45.0977 41.6406C45.0977 43.3789 43.7891 44.6875 42.0508 44.6875ZM3.35938 23.125L3.35938 9.23828L2.20703 9.23828C0.878906 9.23828 0 10.0586 0 11.2891L0 21.0742C0 22.3047 0.878906 23.125 2.20703 23.125ZM50.7617 23.125L51.9141 23.125C53.2422 23.125 54.1211 22.3047 54.1211 21.0742L54.1211 11.2891C54.1211 10.0586 53.2422 9.23828 51.9141 9.23828L50.7617 9.23828Z" fill="black" fill-opacity="0.85"/>
 </g>
</svg>
