<?xml version="1.0" encoding="UTF-8"?>
<!--Generator: Apple Native CoreSVG 326-->
<!DOCTYPE svg
PUBLIC "-//W3C//DTD SVG 1.1//EN"
       "http://www.w3.org/Graphics/SVG/1.1/DTD/svg11.dtd">
<svg version="1.1" xmlns="http://www.w3.org/2000/svg" xmlns:xlink="http://www.w3.org/1999/xlink" viewBox="0 0 46.2891 45.918">
 <g>
  <rect height="45.918" opacity="0" width="46.2891" x="0" y="0"/>
  <path d="M45.918 7.53906L45.918 38.3984C45.918 43.3594 43.3594 45.918 38.3008 45.918L7.59766 45.918C2.55859 45.918 0 43.3984 0 38.3984L0 7.53906C0 2.53906 2.55859 0 7.59766 0L38.3008 0C43.3594 0 45.918 2.55859 45.918 7.53906ZM8.47656 22.9883C8.47656 30.9766 14.9609 37.4805 22.9492 37.4805C30.957 37.4805 37.4414 30.9766 37.4414 22.9883C37.4414 14.9805 30.957 8.49609 22.9492 8.49609C14.9609 8.49609 8.47656 14.9805 8.47656 22.9883ZM34.2969 22.9883C34.2969 29.2578 29.2188 34.3359 22.9492 34.3359C16.6992 34.3359 11.6211 29.2578 11.6211 22.9883C11.6211 16.7188 16.6992 11.6406 22.9492 11.6406C29.2188 11.6406 34.2969 16.7188 34.2969 22.9883ZM14.1602 22.9883C14.1602 27.832 18.1055 31.7969 22.9492 31.7969C27.8125 31.7969 31.7578 27.832 31.7578 22.9883C31.7578 18.125 27.8125 14.1797 22.9492 14.1797C18.1055 14.1797 14.1602 18.125 14.1602 22.9883Z" fill="black" fill-opacity="0.85"/>
 </g>
</svg>
