<?xml version="1.0" encoding="UTF-8"?>
<!--Generator: Apple Native CoreSVG 326-->
<!DOCTYPE svg
PUBLIC "-//W3C//DTD SVG 1.1//EN"
       "http://www.w3.org/Graphics/SVG/1.1/DTD/svg11.dtd">
<svg version="1.1" xmlns="http://www.w3.org/2000/svg" xmlns:xlink="http://www.w3.org/1999/xlink" viewBox="0 0 60.1953 63.6914">
 <g>
  <rect height="63.6914" opacity="0" width="60.1953" x="0" y="0"/>
  <path d="M59.8242 35.4297L59.8242 43.3008C59.8242 51.4062 54.7852 56.6797 47.0508 56.6797L12.7734 56.6797C5.03906 56.6797 0 51.4062 0 43.3008L5.64304e-08 35.4297C0 28.3008 5.33203 23.6523 12.7734 23.6523L21.3726 23.6523L24.3862 27.1094L12.7734 27.1094C7.44141 27.1094 3.45703 30.4102 3.45703 35.4297C3.45703 40.4688 7.44141 43.75 12.7734 43.75L47.0508 43.75C52.3828 43.75 56.3672 40.4688 56.3672 35.4297C56.3672 30.4102 52.3828 27.1094 47.0508 27.1094L35.4176 27.1094L38.43 23.6523L47.0508 23.6523C54.4922 23.6523 59.8242 28.3008 59.8242 35.4297ZM47.0508 47.207L12.7734 47.207C8.98539 47.207 5.74394 46.0075 3.47972 43.8817C3.70364 49.5343 7.33471 53.2227 12.7734 53.2227L47.0508 53.2227C52.4895 53.2227 56.1206 49.5343 56.3445 43.8817C54.0803 46.0075 50.8388 47.207 47.0508 47.207Z" fill="black" fill-opacity="0.85"/>
  <path d="M31.9141 28.6719L38.3984 21.2109C39.9609 19.4336 38.9453 16.7773 36.4258 16.7773L32.5 16.7773L32.5 4.19922C32.5 2.73438 31.3672 1.62109 29.9219 1.62109C28.4766 1.62109 27.3438 2.73438 27.3438 4.19922L27.3438 16.7773L23.3789 16.7773C20.918 16.7773 19.8242 19.375 21.4062 21.2109L27.8906 28.6719C29.0039 29.9805 30.7812 30.0391 31.9141 28.6719Z" fill="black" fill-opacity="0.85"/>
 </g>
</svg>
