<?xml version="1.0" encoding="UTF-8"?>
<!--Generator: Apple Native CoreSVG 326-->
<!DOCTYPE svg
PUBLIC "-//W3C//DTD SVG 1.1//EN"
       "http://www.w3.org/Graphics/SVG/1.1/DTD/svg11.dtd">
<svg version="1.1" xmlns="http://www.w3.org/2000/svg" xmlns:xlink="http://www.w3.org/1999/xlink" viewBox="0 0 44.5898 53.8867">
 <g>
  <rect height="53.8867" opacity="0" width="44.5898" x="0" y="0"/>
  <path d="M29.5117 53.8867C38.457 53.8867 44.2188 48.125 44.2188 39.1797L44.2188 26.3867C44.2188 23.0273 43.1836 20.332 41.1133 18.418L25.1953 3.78906C22.1484 0.976562 18.9258 0 15.0391 0L7.28516 0C2.87109 0 0 2.87109 0 7.30469L0 46.6016C0 51.1719 2.71484 53.8867 7.34375 53.8867ZM29.4141 50.4297L7.42188 50.4297C4.66797 50.4297 3.45703 49.3555 3.45703 46.543L3.45703 7.38281C3.45703 4.98047 4.92188 3.45703 7.36328 3.45703L14.9609 3.45703C18.1055 3.45703 20.5078 4.23828 22.8125 6.32812L38.6914 20.8984C40.1367 22.2266 40.7422 23.8867 40.7422 26.4453L40.7422 39.1016C40.7422 46.2891 36.582 50.4297 29.4141 50.4297Z" fill="black" fill-opacity="0.85"/>
 </g>
</svg>
