<?xml version="1.0" encoding="UTF-8"?>
<!--Generator: Apple Native CoreSVG 326-->
<!DOCTYPE svg
PUBLIC "-//W3C//DTD SVG 1.1//EN"
       "http://www.w3.org/Graphics/SVG/1.1/DTD/svg11.dtd">
<svg version="1.1" xmlns="http://www.w3.org/2000/svg" xmlns:xlink="http://www.w3.org/1999/xlink" viewBox="0 0 58.9258 44.5898">
 <g>
  <rect height="44.5898" opacity="0" width="58.9258" x="0" y="0"/>
  <path d="M19.1992 44.5508L39.3555 44.5508C53.6328 44.5508 58.5547 39.2188 58.5547 26.0742L58.5547 18.4766C58.5547 5.33203 53.6328 0 39.3555 0L19.1992 0C4.92188 0 0 5.33203 0 18.4766L0 26.0742C0 39.2188 4.92188 44.5508 19.1992 44.5508ZM19.1992 41.0938C7.22656 41.0938 3.45703 37.0703 3.45703 26.0742L3.45703 18.4766C3.45703 7.48047 7.22656 3.47656 19.1992 3.47656L39.3555 3.47656C51.3281 3.47656 55.0977 7.48047 55.0977 18.4766L55.0977 26.0742C55.0977 37.0703 51.3281 41.0938 39.3555 41.0938Z" fill="black" fill-opacity="0.85"/>
 </g>
</svg>
