<?xml version="1.0" encoding="UTF-8"?>
<!--Generator: Apple Native CoreSVG 326-->
<!DOCTYPE svg
PUBLIC "-//W3C//DTD SVG 1.1//EN"
       "http://www.w3.org/Graphics/SVG/1.1/DTD/svg11.dtd">
<svg version="1.1" xmlns="http://www.w3.org/2000/svg" xmlns:xlink="http://www.w3.org/1999/xlink" viewBox="0 0 51.25 50.918">
 <g>
  <rect height="50.918" opacity="0" width="51.25" x="0" y="0"/>
  <path d="M25.4297 50.8789C39.4727 50.8789 50.8789 39.4922 50.8789 25.4492C50.8789 11.4062 39.4727 0 25.4297 0C11.3867 0 0 11.4062 0 25.4492C0 39.4922 11.3867 50.8789 25.4297 50.8789ZM25.4297 47.2461C13.3789 47.2461 3.63281 37.5 3.63281 25.4492C3.63281 13.3984 13.3789 3.65234 25.4297 3.65234C37.4805 3.65234 47.2266 13.3984 47.2266 25.4492C47.2266 37.5 37.4805 47.2461 25.4297 47.2461Z" fill="black" fill-opacity="0.85"/>
  <path d="M25.4883 37.1875C29.9023 37.1875 33.4766 34.9609 34.5508 31.543C34.6875 31.0938 34.7266 30.8203 34.7266 30.4883C34.7266 29.5508 34.1602 28.9844 33.2422 28.9844C32.5586 28.9844 32.1094 29.3164 31.7773 30.0977C30.8789 32.7344 28.5938 34.2969 25.5273 34.2969C21.3281 34.2969 18.4766 30.6641 18.4766 25.2734C18.4766 19.9023 21.3281 16.2305 25.5273 16.2305C28.5938 16.2305 30.8984 17.793 31.7773 20.4492C32.1094 21.2109 32.5586 21.543 33.2422 21.543C34.1602 21.543 34.7266 20.9766 34.7266 20.0391C34.7266 19.6875 34.6875 19.4336 34.5508 18.9844C33.457 15.6055 29.8828 13.3398 25.4883 13.3398C19.1211 13.3398 15 18.0469 15 25.2734C15 32.5 19.1016 37.1875 25.4883 37.1875Z" fill="black" fill-opacity="0.85"/>
 </g>
</svg>
