<?xml version="1.0" encoding="UTF-8"?>
<!--Generator: Apple Native CoreSVG 326-->
<!DOCTYPE svg
PUBLIC "-//W3C//DTD SVG 1.1//EN"
       "http://www.w3.org/Graphics/SVG/1.1/DTD/svg11.dtd">
<svg version="1.1" xmlns="http://www.w3.org/2000/svg" xmlns:xlink="http://www.w3.org/1999/xlink" viewBox="0 0 51.25 50.918">
 <g>
  <rect height="50.918" opacity="0" width="51.25" x="0" y="0"/>
  <path d="M50.8789 25.4492C50.8789 39.4531 39.4531 50.8789 25.4297 50.8789C11.4258 50.8789 0 39.4531 0 25.4492C0 11.4258 11.4258 0 25.4297 0C39.4531 0 50.8789 11.4258 50.8789 25.4492ZM14.7656 25.2734C14.7656 32.6758 18.9648 37.4805 25.5273 37.4805C30.0586 37.4805 33.7109 35.2148 34.8242 31.7188C34.9609 31.25 35 30.957 35 30.625C35 29.6484 34.4141 29.0625 33.457 29.0625C32.7539 29.0625 32.3047 29.4141 31.9531 30.2148C31.0156 32.9297 28.6914 34.4922 25.5664 34.4922C21.2695 34.4922 18.3594 30.7812 18.3594 25.2734C18.3594 19.7852 21.2695 16.0352 25.5664 16.0352C28.6914 16.0352 31.0352 17.6172 31.9531 20.3125C32.3047 21.1133 32.7539 21.4648 33.457 21.4648C34.4141 21.4648 35 20.8789 35 19.9023C35 19.5312 34.9609 19.2773 34.8242 18.8086C33.6914 15.3516 30.0195 13.0469 25.5273 13.0469C18.9844 13.0469 14.7656 17.8711 14.7656 25.2734Z" fill="black" fill-opacity="0.85"/>
 </g>
</svg>
