<?xml version="1.0" encoding="UTF-8"?>
<!--Generator: Apple Native CoreSVG 326-->
<!DOCTYPE svg
PUBLIC "-//W3C//DTD SVG 1.1//EN"
       "http://www.w3.org/Graphics/SVG/1.1/DTD/svg11.dtd">
<svg version="1.1" xmlns="http://www.w3.org/2000/svg" xmlns:xlink="http://www.w3.org/1999/xlink" viewBox="0 0 51.5234 60.4883">
 <g>
  <rect height="60.4883" opacity="0" width="51.5234" x="0" y="0"/>
  <path d="M2.63672 47.8125L5.42969 47.8125L5.42969 13.75C5.42969 11.8359 6.32812 10.8594 8.32031 10.5859C12.5195 10 18.9258 9.74609 25.5664 9.74609C32.1875 9.74609 38.5938 10 42.8125 10.5859C44.8438 10.8398 45.6836 11.7188 45.6836 13.75L45.6836 47.8125L48.5156 47.8125L48.5156 12.8906C48.5156 9.92188 46.8164 8.20312 43.5742 7.8125C38.7109 7.1875 31.9141 6.875 25.5664 6.875C19.1992 6.875 12.4023 7.1875 7.53906 7.8125C4.31641 8.20312 2.63672 9.92188 2.63672 12.8906ZM0 49.1406C0 50.0781 0.78125 50.8594 1.73828 50.8594L49.4141 50.8594C50.3711 50.8594 51.1523 50.0781 51.1523 49.1406C51.1523 48.1836 50.3711 47.4023 49.4141 47.4023L1.73828 47.4023C0.78125 47.4023 0 48.1836 0 49.1406ZM9.70703 2.55859C9.70703 3.55469 10.5469 4.51172 11.6211 4.375C15.2734 3.90625 20.4492 3.71094 25.5664 3.71094C30.6836 3.71094 35.8594 3.90625 39.5117 4.375C40.5859 4.51172 41.4258 3.55469 41.4258 2.55859C41.4258 1.58203 40.6445 0.820312 39.5312 0.683594C35.7422 0.214844 30.5078 0 25.5664 0C20.625 0 15.3906 0.214844 11.582 0.683594C10.4883 0.820312 9.70703 1.58203 9.70703 2.55859ZM12.5781 1.95312L12.5781 8.41797L15.4297 8.41797L15.4297 1.95312ZM35.7227 1.95312L35.7227 8.41797L38.5938 8.41797L38.5938 1.95312ZM25.5664 44.2969C27.8125 44.2969 29.5703 42.6172 29.5703 40.3711C29.5703 38.0664 27.793 36.2891 25.5664 36.2891C23.2617 36.2891 21.582 38.0664 21.582 40.3711C21.582 42.6172 23.2422 44.2969 25.5664 44.2969ZM8.22266 31.2109C8.22266 32.0117 8.73047 32.5195 9.58984 32.5195L16.3086 32.5195C17.168 32.5195 17.6758 32.0117 17.6758 31.2109L17.6758 18.9062C17.6758 16.2109 15.6445 14.1797 12.9688 14.1797C10.2539 14.1797 8.22266 16.2109 8.22266 18.9062ZM20.1562 31.2109C20.1562 32.0117 20.6641 32.5195 21.5234 32.5195L29.5898 32.5195C30.4492 32.5195 30.9375 32.0117 30.9375 31.2109L30.9375 18.3984C30.9375 15.1758 28.7891 13.0078 25.5664 13.0078C22.3242 13.0078 20.1562 15.1758 20.1562 18.3984ZM33.4375 31.2109C33.4375 32.0117 33.9258 32.5195 34.8047 32.5195L41.5234 32.5195C42.3828 32.5195 42.8711 32.0117 42.8711 31.2109L42.8711 18.9062C42.8711 16.2109 40.8594 14.1797 38.1641 14.1797C35.4688 14.1797 33.4375 16.2109 33.4375 18.9062ZM7.46094 60.4492L8.76953 60.4492C9.43359 60.4492 9.78516 60.2344 10.1172 59.6875L16.9531 48.6719L12.5977 48.6719L6.48438 58.5156C5.89844 59.4531 6.40625 60.4492 7.46094 60.4492ZM40.7812 60.4492L42.0898 60.4492C43.1445 60.4492 43.6719 59.4531 43.0664 58.5156L36.9531 48.6719L32.5977 48.6719L39.4336 59.6875C39.7852 60.2344 40.1367 60.4492 40.7812 60.4492Z" fill="black" fill-opacity="0.85"/>
 </g>
</svg>
