<?xml version="1.0" encoding="UTF-8"?>
<!--Generator: Apple Native CoreSVG 326-->
<!DOCTYPE svg
PUBLIC "-//W3C//DTD SVG 1.1//EN"
       "http://www.w3.org/Graphics/SVG/1.1/DTD/svg11.dtd">
<svg version="1.1" xmlns="http://www.w3.org/2000/svg" xmlns:xlink="http://www.w3.org/1999/xlink" viewBox="0 0 75.8203 45.957">
 <g>
  <rect height="45.957" opacity="0" width="75.8203" x="0" y="0"/>
  <path d="M67.793 38.4375C67.793 43.4375 65.2344 45.957 60.1953 45.957L25.3516 45.957C20.293 45.957 17.7539 43.418 17.7539 38.4375L17.7539 27.6367L21.2109 27.6367L21.2109 38.5938C21.2109 41.1719 22.6367 42.5 25.0977 42.5L60.4688 42.5C62.9688 42.5 64.3359 41.1719 64.3359 38.5938L64.3359 27.6367L67.793 27.6367ZM67.793 7.57812L67.793 18.3398L64.3359 18.3398L64.3359 7.42188C64.3359 4.84375 62.9688 3.51562 60.4688 3.51562L25.0977 3.51562C22.6367 3.51562 21.2109 4.84375 21.2109 7.42188L21.2109 18.3398L17.7539 18.3398L17.7539 7.57812C17.7539 2.59766 20.293 0.0585938 25.3516 0.0585938L60.1953 0.0585938C65.2344 0.0585938 67.793 2.57812 67.793 7.57812Z" fill="black" fill-opacity="0.85"/>
  <path d="M13.6523 42.6562C13.6523 44.2188 12.4023 45.4688 10.8398 45.4688C9.27734 45.4688 8.02734 44.2188 8.02734 42.6562C8.02734 41.0938 9.27734 39.8438 10.8398 39.8438C12.4023 39.8438 13.6523 41.0938 13.6523 42.6562Z" fill="black" fill-opacity="0.85"/>
  <path d="M13.6523 32.793C13.6523 34.3555 12.4023 35.6055 10.8398 35.6055C9.27734 35.6055 8.02734 34.3555 8.02734 32.793C8.02734 31.2305 9.27734 29.9805 10.8398 29.9805C12.4023 29.9805 13.6523 31.2305 13.6523 32.793Z" fill="black" fill-opacity="0.85"/>
  <path d="M13.6523 13.0664C13.6523 14.6289 12.4023 15.8984 10.8398 15.8984C9.27734 15.8984 8.02734 14.6289 8.02734 13.0664C8.02734 11.5234 9.27734 10.2539 10.8398 10.2539C12.4023 10.2539 13.6523 11.5234 13.6523 13.0664Z" fill="black" fill-opacity="0.85"/>
  <path d="M13.6523 3.20312C13.6523 4.76562 12.4023 6.03516 10.8398 6.03516C9.27734 6.03516 8.02734 4.76562 8.02734 3.20312C8.02734 1.66016 9.27734 0.390625 10.8398 0.390625C12.4023 0.390625 13.6523 1.66016 13.6523 3.20312Z" fill="black" fill-opacity="0.85"/>
  <path d="M10.8203 26.1523C12.0117 26.1523 13.0273 25.5078 13.5547 24.5312L67.793 24.5312C68.6523 24.5312 69.3359 23.8477 69.3359 22.9883C69.3359 22.1484 68.6523 21.4648 67.793 21.4648L13.5938 21.4648C13.0859 20.4492 12.0117 19.7852 10.8203 19.7852C9.08203 19.7852 7.63672 21.2109 7.63672 22.9688C7.63672 24.707 9.08203 26.1523 10.8203 26.1523Z" fill="black" fill-opacity="0.85"/>
 </g>
</svg>
