<?xml version="1.0" encoding="UTF-8"?>
<!--Generator: Apple Native CoreSVG 326-->
<!DOCTYPE svg
PUBLIC "-//W3C//DTD SVG 1.1//EN"
       "http://www.w3.org/Graphics/SVG/1.1/DTD/svg11.dtd">
<svg version="1.1" xmlns="http://www.w3.org/2000/svg" xmlns:xlink="http://www.w3.org/1999/xlink" viewBox="0 0 49.0039 48.6914">
 <g>
  <rect height="48.6914" opacity="0" width="49.0039" x="0" y="0"/>
  <path d="M1.73828 15.7031C2.85156 15.7031 3.45703 15.0586 3.45703 13.9453L3.45703 7.77344C3.45703 4.96094 4.94141 3.51562 7.67578 3.51562L13.9648 3.51562C15.0781 3.51562 15.7227 2.89062 15.7227 1.79688C15.7227 0.683594 15.0781 0.0585938 13.9648 0.0585938L7.59766 0.0585938C2.55859 0.0585938 0 2.57812 0 7.57812L0 13.9453C0 15.0586 0.625 15.7031 1.73828 15.7031ZM46.8945 15.7031C48.0273 15.7031 48.6328 15.0586 48.6328 13.9453L48.6328 7.57812C48.6328 2.61719 46.0938 0.0585938 41.0352 0.0585938L34.668 0.0585938C33.5547 0.0585938 32.9102 0.683594 32.9102 1.79688C32.9102 2.89062 33.5547 3.51562 34.668 3.51562L40.957 3.51562C43.6328 3.51562 45.1758 4.96094 45.1758 7.77344L45.1758 13.9453C45.1758 15.0586 45.8008 15.7031 46.8945 15.7031ZM7.59766 48.6914L13.9648 48.6914C15.0781 48.6914 15.7227 48.0664 15.7227 46.9531C15.7227 45.8594 15.0781 45.2344 13.9648 45.2344L7.67578 45.2344C4.94141 45.2344 3.45703 43.7891 3.45703 40.9766L3.45703 34.8047C3.45703 33.6914 2.83203 33.0469 1.73828 33.0469C0.605469 33.0469 0 33.6914 0 34.8047L0 41.1719C0 46.1719 2.55859 48.6914 7.59766 48.6914ZM34.668 48.6914L41.0352 48.6914C46.0938 48.6914 48.6328 46.1328 48.6328 41.1719L48.6328 34.8047C48.6328 33.6914 48.0078 33.0469 46.8945 33.0469C45.7812 33.0469 45.1758 33.6914 45.1758 34.8047L45.1758 40.9766C45.1758 43.7891 43.6328 45.2344 40.957 45.2344L34.668 45.2344C33.5547 45.2344 32.9102 45.8594 32.9102 46.9531C32.9102 48.0664 33.5547 48.6914 34.668 48.6914Z" fill="black" fill-opacity="0.85"/>
  <path d="M12.9297 35.7422L35.7227 35.7422C38.2617 35.7422 39.5898 34.4531 39.5898 31.9141L39.5898 18.4961C39.5898 15.9375 38.2617 14.6484 35.7227 14.6484L32.2852 14.6484C31.2891 14.6484 30.9961 14.4922 30.3711 13.8086L29.3164 12.6367C28.6523 11.9336 28.0664 11.6016 26.7578 11.6016L21.7188 11.6016C20.4492 11.6016 19.8242 11.9141 19.1602 12.6367L18.1055 13.8086C17.5 14.4727 17.207 14.6484 16.1914 14.6484L12.9297 14.6484C10.3711 14.6484 9.0625 15.9375 9.0625 18.4961L9.0625 31.9141C9.0625 34.4531 10.3711 35.7422 12.9297 35.7422ZM24.3555 32.6367C20.1562 32.6367 16.7773 29.2773 16.7773 25.0586C16.7773 20.8594 20.1562 17.5 24.3555 17.5C28.5352 17.5 31.8945 20.8594 31.8945 25.0586C31.8945 29.3359 28.5352 32.6367 24.3555 32.6367ZM24.3359 30.7031C27.4219 30.7031 29.9414 28.2031 29.9414 25.0586C29.9414 21.9531 27.4219 19.4336 24.3359 19.4336C21.2305 19.4336 18.7109 21.9531 18.7109 25.0586C18.7109 28.2031 21.2305 30.7031 24.3359 30.7031ZM34.9023 20.9766C34.0039 20.9766 33.2812 20.2539 33.2812 19.375C33.2812 18.4766 34.0039 17.7539 34.9023 17.7539C35.7812 17.7539 36.5039 18.4766 36.5039 19.375C36.5039 20.2539 35.7812 20.9766 34.9023 20.9766Z" fill="black" fill-opacity="0.85"/>
 </g>
</svg>
