<?xml version="1.0" encoding="UTF-8"?>
<!--Generator: Apple Native CoreSVG 326-->
<!DOCTYPE svg
PUBLIC "-//W3C//DTD SVG 1.1//EN"
       "http://www.w3.org/Graphics/SVG/1.1/DTD/svg11.dtd">
<svg version="1.1" xmlns="http://www.w3.org/2000/svg" xmlns:xlink="http://www.w3.org/1999/xlink" viewBox="0 0 64.9805 51.8164">
 <g>
  <rect height="51.8164" opacity="0" width="64.9805" x="0" y="0"/>
  <path d="M51.9922 7.57812L51.9922 13.5625C51.2622 13.3632 50.773 12.9578 50.0586 12.207L48.5352 10.5999L48.5352 7.77344C48.5352 4.96094 46.9922 3.51562 44.3164 3.51562L7.67578 3.51562C5 3.51562 3.45703 4.96094 3.45703 7.77344L3.45703 32.8711C3.45703 35.6836 4.94141 37.1289 7.67578 37.1289L12.6172 37.1289L12.6172 40.5859L7.59766 40.5859C2.53906 40.5859 0 38.0469 0 33.0469L0 7.57812C0 2.59766 2.53906 0.0585938 7.59766 0.0585938L44.3945 0.0585938C49.4531 0.0585938 51.9922 2.59766 51.9922 7.57812Z" fill="black" fill-opacity="0.85"/>
  <path d="M20.2148 51.8164L57.0117 51.8164C62.0703 51.8164 64.6094 49.2773 64.6094 44.2773L64.6094 21.25C64.6094 16.25 62.0703 13.7305 57.0117 13.7305L53.7109 13.7305C51.7773 13.7305 51.2109 13.418 50.0586 12.207L48.2812 10.332C46.9531 8.92578 45.7617 8.30078 43.7305 8.30078L33.4961 8.30078C31.4844 8.30078 30.2734 8.92578 28.9453 10.332L27.1875 12.207C26.0156 13.418 25.4492 13.7305 23.5156 13.7305L20.2148 13.7305C15.1758 13.7305 12.6172 16.25 12.6172 21.25L12.6172 44.2773C12.6172 49.2773 15.1758 51.8164 20.2148 51.8164ZM20.293 48.3594C17.5586 48.3594 16.0742 46.9141 16.0742 44.1016L16.0742 21.4258C16.0742 18.6328 17.5586 17.1875 20.293 17.1875L24.2969 17.1875C26.4844 17.1875 27.7344 16.6992 29.043 15.293L31.1133 13.0859C32.0312 12.1484 32.8125 11.7578 34.2773 11.7578L42.9492 11.7578C44.4141 11.7578 45.1953 12.1484 46.1133 13.0859L48.1836 15.293C49.5117 16.6992 50.7422 17.1875 52.9297 17.1875L56.9531 17.1875C59.668 17.1875 61.1523 18.6328 61.1523 21.4258L61.1523 44.1016C61.1523 46.9141 59.668 48.3594 56.9531 48.3594ZM38.6328 44.6875C45.4102 44.6875 50.918 39.1797 50.918 32.3633C50.918 25.5664 45.4102 20.0586 38.6328 20.0586C31.8359 20.0586 26.3477 25.5664 26.3477 32.3633C26.3477 39.1797 31.8359 44.6875 38.6328 44.6875ZM38.6328 41.3672C33.6719 41.3672 29.6484 37.3242 29.6484 32.3633C29.6484 27.4219 33.6719 23.3789 38.6328 23.3789C43.5742 23.3789 47.5977 27.4219 47.5977 32.3633C47.5977 37.3242 43.5742 41.3672 38.6328 41.3672ZM55.0781 26.1523C56.582 26.1523 57.793 24.9219 57.793 23.418C57.793 21.9336 56.582 20.6641 55.0781 20.6641C53.5742 20.6641 52.3242 21.9336 52.3242 23.418C52.3242 24.9219 53.5742 26.1523 55.0781 26.1523Z" fill="black" fill-opacity="0.85"/>
 </g>
</svg>
