<?xml version="1.0" encoding="UTF-8"?>
<!--Generator: Apple Native CoreSVG 326-->
<!DOCTYPE svg
PUBLIC "-//W3C//DTD SVG 1.1//EN"
       "http://www.w3.org/Graphics/SVG/1.1/DTD/svg11.dtd">
<svg version="1.1" xmlns="http://www.w3.org/2000/svg" xmlns:xlink="http://www.w3.org/1999/xlink" viewBox="0 0 59.5508 45.918">
 <g>
  <rect height="45.918" opacity="0" width="59.5508" x="0" y="0"/>
  <path d="M7.59766 45.918L28.0664 45.918L28.0664 42.4609L7.67578 42.4609C4.94141 42.4609 3.45703 41.0156 3.45703 38.2031L3.45703 24.5117L0 24.5117L0 38.3984C0 43.3984 2.55859 45.918 7.59766 45.918ZM31.1719 45.918L51.5625 45.918C56.6211 45.918 59.1797 43.3594 59.1797 38.3984L59.1797 24.5117L55.7031 24.5117L55.7031 38.2031C55.7031 41.0156 54.1797 42.4609 51.5039 42.4609L31.1719 42.4609ZM55.7031 21.4062L59.1797 21.4062L59.1797 7.53906C59.1797 2.55859 56.6211 0 51.5625 0L31.1719 0L31.1719 3.45703L51.5039 3.45703C54.1797 3.45703 55.7031 4.92188 55.7031 7.71484ZM0 21.4062L3.45703 21.4062L3.45703 7.71484C3.45703 4.92188 4.94141 3.45703 7.67578 3.45703L28.0664 3.45703L28.0664 0L7.59766 0C2.55859 0 0 2.53906 0 7.53906Z" fill="black" fill-opacity="0.85"/>
  <path d="M29.6289 36.7578C37.2656 36.7578 43.4375 30.5664 43.4375 22.9492C43.4375 15.3125 37.2656 9.12109 29.6289 9.12109C22.0117 9.12109 15.8203 15.3125 15.8203 22.9492C15.8203 30.5664 22.0117 36.7578 29.6289 36.7578ZM29.6289 33.9258C23.5742 33.9258 18.6523 29.0039 18.6523 22.9492C18.6523 16.8945 23.5742 11.9531 29.6289 11.9531C35.6836 11.9531 40.625 16.8945 40.625 22.9492C40.625 29.0039 35.6836 33.9258 29.6289 33.9258Z" fill="black" fill-opacity="0.85"/>
  <path d="M29.6289 30.3711C33.7305 30.3711 37.0508 27.0508 37.0508 22.9492C37.0508 18.8281 33.7305 15.5273 29.6289 15.5273C25.5273 15.5273 22.207 18.8281 22.207 22.9492C22.207 27.0508 25.5273 30.3711 29.6289 30.3711Z" fill="black" fill-opacity="0.85"/>
 </g>
</svg>
