<?xml version="1.0" encoding="UTF-8"?>
<!--Generator: Apple Native CoreSVG 326-->
<!DOCTYPE svg
PUBLIC "-//W3C//DTD SVG 1.1//EN"
       "http://www.w3.org/Graphics/SVG/1.1/DTD/svg11.dtd">
<svg version="1.1" xmlns="http://www.w3.org/2000/svg" xmlns:xlink="http://www.w3.org/1999/xlink" viewBox="0 0 51.25 50.918">
 <g>
  <rect height="50.918" opacity="0" width="51.25" x="0" y="0"/>
  <path d="M50.8789 25.4492C50.8789 39.4531 39.4531 50.8789 25.4297 50.8789C11.4258 50.8789 0 39.4531 0 25.4492C0 11.4258 11.4258 0 25.4297 0C39.4531 0 50.8789 11.4258 50.8789 25.4492ZM24.7266 12.8516L22.0703 16.2891L18.9648 13.125C18.5156 12.6172 17.7734 12.7148 17.5586 13.3008C16.8945 14.8242 16.543 16.3086 16.543 17.793C16.543 22.4414 19.6484 26.2109 24.4336 26.6602L24.4336 40.5664C24.4336 41.1133 24.8633 41.5234 25.4102 41.5234C32.2461 41.5234 38.5352 37.2656 40.625 31.1914C40.8984 30.4688 40.6055 29.9414 39.8047 29.9414C33.5156 29.9414 28.6523 33.457 26.4258 38.2617L26.4258 26.6602C31.2109 26.1914 34.2773 22.4414 34.2773 17.793C34.2773 16.3086 33.9648 14.8242 33.3008 13.3008C33.0469 12.7148 32.3242 12.6172 31.875 13.125L28.7695 16.2891L26.1133 12.8516C25.7617 12.3242 25.1172 12.3242 24.7266 12.8516ZM10.1758 31.1914C12.0117 36.582 17.1875 40.5469 23.1445 41.3086C23.0469 41.0938 22.9883 40.8203 22.9883 40.5664L22.9883 36.0156C20.4883 32.4023 16.2305 29.9414 11.0156 29.9414C10.1953 29.9414 9.92188 30.4688 10.1758 31.1914Z" fill="black" fill-opacity="0.85"/>
 </g>
</svg>
