<?xml version="1.0" encoding="UTF-8"?>
<!--Generator: Apple Native CoreSVG 326-->
<!DOCTYPE svg
PUBLIC "-//W3C//DTD SVG 1.1//EN"
       "http://www.w3.org/Graphics/SVG/1.1/DTD/svg11.dtd">
<svg version="1.1" xmlns="http://www.w3.org/2000/svg" xmlns:xlink="http://www.w3.org/1999/xlink" viewBox="0 0 60.918 64.1457">
 <g>
  <rect height="64.1457" opacity="0" width="60.918" x="0" y="0"/>
  <path d="M32.0215 41.5599L32.0215 53.9364C33.1848 51.172 34.828 48.6249 36.8855 46.4184L45.5658 55.0889C41.0477 57.6472 35.7876 59.1139 30.3027 59.1139C29.3262 59.1139 28.5645 58.4693 28.5645 57.4732L28.5645 38.1068ZM25.459 48.8014L25.459 57.4732C25.459 57.9029 25.5176 58.3521 25.6152 58.7232C14.6387 57.1412 5.32227 49.7389 1.98242 39.9537C1.5332 38.6451 2.02148 37.8248 3.4082 37.8248C12.959 37.8248 20.7715 42.2193 25.459 48.8014ZM58.5645 39.9537C57.3262 43.5548 55.2746 46.8309 52.6217 49.6075L43.9825 40.9813C47.7748 38.9758 52.2176 37.8248 57.1387 37.8248C58.5059 37.8248 59.0137 38.6451 58.5645 39.9537ZM31.5137 5.91074L36.5137 12.4146L42.3926 6.43808C43.2129 5.57871 44.4238 5.73496 44.873 6.75058C46.084 9.54355 46.6699 12.356 46.6699 15.0904C46.6699 23.0029 41.8317 29.5309 34.1376 31.1513L14.3025 11.3462C14.5884 9.81944 15.0596 8.28207 15.7129 6.75058C16.1816 5.73496 17.373 5.57871 18.2129 6.43808L24.0918 12.4146L29.0918 5.91074C29.7363 5.07089 30.8496 5.07089 31.5137 5.91074Z" fill="black" fill-opacity="0.85"/>
  <path d="M3.58398 9.27011L55.3027 60.9107C55.9668 61.5553 57.0215 61.5553 57.666 60.9107C58.3105 60.2467 58.3105 59.2115 57.666 58.5475L5.94727 6.90683C5.30273 6.2623 4.24805 6.24277 3.58398 6.90683C2.93945 7.53183 2.93945 8.62558 3.58398 9.27011Z" fill="black" fill-opacity="0.85"/>
 </g>
</svg>
