<?xml version="1.0" encoding="UTF-8"?>
<!--Generator: Apple Native CoreSVG 326-->
<!DOCTYPE svg
PUBLIC "-//W3C//DTD SVG 1.1//EN"
       "http://www.w3.org/Graphics/SVG/1.1/DTD/svg11.dtd">
<svg version="1.1" xmlns="http://www.w3.org/2000/svg" xmlns:xlink="http://www.w3.org/1999/xlink" viewBox="0 0 61.6016 49.082">
 <g>
  <rect height="49.082" opacity="0" width="61.6016" x="0" y="0"/>
  <path d="M49.9609 18.8086C51.6406 18.8086 53.0078 17.4414 53.0078 15.7422C53.0078 14.0625 51.6406 12.6953 49.9609 12.6953C48.2812 12.6953 46.9141 14.0625 46.9141 15.7422C46.9141 17.4414 48.2812 18.8086 49.9609 18.8086ZM7.59766 47.5195L53.6328 47.5195C58.6719 47.5195 61.2305 44.9805 61.2305 40L61.2305 13.5547C61.2305 8.59375 58.6719 6.03516 53.6328 6.03516L46.3086 6.03516C44.2969 6.03516 43.7305 5.72266 42.5391 4.39453L40.4688 2.07031C39.1797 0.664062 37.9688 0 35.4297 0L25.5078 0C22.9688 0 21.7578 0.664062 20.4688 2.07031L18.3984 4.39453C17.2461 5.68359 16.6211 6.03516 14.6289 6.03516L7.59766 6.03516C2.55859 6.03516 0 8.59375 0 13.5547L0 40C0 44.9805 2.55859 47.5195 7.59766 47.5195ZM7.67578 44.0625C5 44.0625 3.45703 42.6172 3.45703 39.8242L3.45703 13.75C3.45703 10.9375 5 9.49219 7.67578 9.49219L15.4297 9.49219C17.6953 9.49219 18.8672 9.12109 20.1562 7.67578L22.1875 5.41016C23.6328 3.80859 24.375 3.45703 26.5039 3.45703L34.4336 3.45703C36.582 3.45703 37.3047 3.80859 38.75 5.41016L40.7812 7.67578C42.0703 9.12109 43.2422 9.49219 45.5273 9.49219L53.5742 9.49219C56.25 9.49219 57.7734 10.9375 57.7734 13.75L57.7734 39.8242C57.7734 42.6172 56.25 44.0625 53.5742 44.0625ZM30.625 40.1758C38.2812 40.1758 44.4336 34.043 44.4336 26.3281C44.4336 18.6328 38.3008 12.5 30.625 12.5C22.9688 12.5 16.8164 18.6328 16.8164 26.3281C16.8164 34.043 22.9688 40.1758 30.625 40.1758ZM30.625 36.875C24.8242 36.875 20.0977 32.1875 20.0977 26.3281C20.0977 20.4883 24.8047 15.8008 30.625 15.8008C36.4258 15.8008 41.1328 20.4883 41.1328 26.3281C41.1328 32.1875 36.4258 36.875 30.625 36.875Z" fill="black" fill-opacity="0.85"/>
 </g>
</svg>
