<?xml version="1.0" encoding="UTF-8"?>
<!--Generator: Apple Native CoreSVG 326-->
<!DOCTYPE svg
PUBLIC "-//W3C//DTD SVG 1.1//EN"
       "http://www.w3.org/Graphics/SVG/1.1/DTD/svg11.dtd">
<svg version="1.1" xmlns="http://www.w3.org/2000/svg" xmlns:xlink="http://www.w3.org/1999/xlink" viewBox="0 0 29.707 49.4727">
 <g>
  <rect height="49.4727" opacity="0" width="29.707" x="0" y="0"/>
  <path d="M6.66016 49.4727L22.6562 49.4727C26.7383 49.4727 29.3359 46.9727 29.3359 43.0273L29.3359 6.44531C29.3359 2.5 26.7383 0 22.6562 0L6.66016 0C2.57812 0 0 2.5 0 6.44531L0 43.0273C0 46.9727 2.57812 49.4727 6.66016 49.4727ZM7.08984 46.0156C4.70703 46.0156 3.45703 44.8047 3.45703 42.5195L3.45703 6.95312C3.45703 4.66797 4.70703 3.45703 7.08984 3.45703L22.2461 3.45703C24.6094 3.45703 25.8594 4.66797 25.8594 6.95312L25.8594 42.5195C25.8594 44.8047 24.6094 46.0156 22.2461 46.0156ZM8.30078 22.6367L21.0352 22.6367C22.4219 22.6367 23.2422 21.8945 23.2422 20.625L23.2422 8.35938C23.2422 7.08984 22.4219 6.34766 21.0352 6.34766L8.30078 6.34766C6.91406 6.34766 6.09375 7.08984 6.09375 8.35938L6.09375 20.625C6.09375 21.8945 6.91406 22.6367 8.30078 22.6367ZM7.71484 29.9805L9.98047 29.9805C10.5078 29.9805 10.8984 29.6289 10.8984 29.1016L10.8984 26.7773C10.8984 26.2695 10.5078 25.918 9.98047 25.918L7.71484 25.918C7.1875 25.918 6.81641 26.2695 6.81641 26.7773L6.81641 29.1016C6.81641 29.6289 7.1875 29.9805 7.71484 29.9805ZM13.457 29.9805L15.7227 29.9805C16.2695 29.9805 16.6602 29.6289 16.6602 29.1016L16.6602 26.7773C16.6602 26.2695 16.2695 25.918 15.7227 25.918L13.457 25.918C12.9492 25.918 12.5977 26.2695 12.5977 26.7773L12.5977 29.1016C12.5977 29.6289 12.9492 29.9805 13.457 29.9805ZM19.2188 29.9805L21.4844 29.9805C22.0312 29.9805 22.4219 29.6289 22.4219 29.1016L22.4219 26.7773C22.4219 26.2695 22.0312 25.918 21.4844 25.918L19.2188 25.918C18.7109 25.918 18.3398 26.2695 18.3398 26.7773L18.3398 29.1016C18.3398 29.6289 18.7109 29.9805 19.2188 29.9805ZM7.71484 36.1133L9.98047 36.1133C10.5078 36.1133 10.8984 35.7422 10.8984 35.2344L10.8984 32.9102C10.8984 32.4023 10.5078 32.0508 9.98047 32.0508L7.71484 32.0508C7.1875 32.0508 6.81641 32.4023 6.81641 32.9102L6.81641 35.2344C6.81641 35.7422 7.1875 36.1133 7.71484 36.1133ZM13.457 36.1133L15.7227 36.1133C16.2695 36.1133 16.6602 35.7422 16.6602 35.2344L16.6602 32.9102C16.6602 32.4023 16.2695 32.0508 15.7227 32.0508L13.457 32.0508C12.9492 32.0508 12.5977 32.4023 12.5977 32.9102L12.5977 35.2344C12.5977 35.7422 12.9492 36.1133 13.457 36.1133ZM19.2188 36.1133L21.4844 36.1133C22.0312 36.1133 22.4219 35.7422 22.4219 35.2344L22.4219 32.9102C22.4219 32.4023 22.0312 32.0508 21.4844 32.0508L19.2188 32.0508C18.7109 32.0508 18.3398 32.4023 18.3398 32.9102L18.3398 35.2344C18.3398 35.7422 18.7109 36.1133 19.2188 36.1133ZM7.71484 42.2461L9.98047 42.2461C10.5078 42.2461 10.8984 41.875 10.8984 41.3672L10.8984 39.043C10.8984 38.5156 10.5078 38.1641 9.98047 38.1641L7.71484 38.1641C7.1875 38.1641 6.81641 38.5156 6.81641 39.043L6.81641 41.3672C6.81641 41.875 7.1875 42.2461 7.71484 42.2461ZM13.457 42.2461L15.7227 42.2461C16.2695 42.2461 16.6602 41.875 16.6602 41.3672L16.6602 39.043C16.6602 38.5156 16.2695 38.1641 15.7227 38.1641L13.457 38.1641C12.9492 38.1641 12.5977 38.5156 12.5977 39.043L12.5977 41.3672C12.5977 41.875 12.9492 42.2461 13.457 42.2461ZM19.2188 42.2461L21.4844 42.2461C22.0312 42.2461 22.4219 41.875 22.4219 41.3672L22.4219 39.043C22.4219 38.5156 22.0312 38.1641 21.4844 38.1641L19.2188 38.1641C18.7109 38.1641 18.3398 38.5156 18.3398 39.043L18.3398 41.3672C18.3398 41.875 18.7109 42.2461 19.2188 42.2461Z" fill="black" fill-opacity="0.85"/>
 </g>
</svg>
