<?xml version="1.0" encoding="UTF-8"?>
<!--Generator: Apple Native CoreSVG 326-->
<!DOCTYPE svg
PUBLIC "-//W3C//DTD SVG 1.1//EN"
       "http://www.w3.org/Graphics/SVG/1.1/DTD/svg11.dtd">
<svg version="1.1" xmlns="http://www.w3.org/2000/svg" xmlns:xlink="http://www.w3.org/1999/xlink" viewBox="0 0 69.1992 56.6992">
 <g>
  <rect height="56.6992" opacity="0" width="69.1992" x="0" y="0"/>
  <path d="M52.7344 10.7812L52.7344 12.0486C50.5971 11.4937 48.2866 11.2109 45.8398 11.2109L33.7305 11.2109C19.8633 11.2109 10.3711 20.293 10.3711 33.9453C10.3711 36.9407 10.8258 39.7158 11.7065 42.207L10.3516 42.207C5.29297 42.207 2.73438 39.6875 2.73438 34.6875L2.73438 10.7812C2.73438 5.80078 5.29297 3.26172 10.3516 3.26172L45.1367 3.26172C50.1953 3.26172 52.7344 5.80078 52.7344 10.7812Z" fill="black" fill-opacity="0.85"/>
  <path d="M33.7305 53.5742L45.8398 53.5742C58.0078 53.5742 66.0938 45.8789 66.0938 33.9453C66.0938 22.0508 58.0078 14.3164 45.8398 14.3164L33.7305 14.3164C21.543 14.3164 13.4766 22.0508 13.4766 33.9453C13.4766 45.8789 21.543 53.5742 33.7305 53.5742Z" fill="black" fill-opacity="0.85"/>
 </g>
</svg>
