<?xml version="1.0" encoding="UTF-8"?>
<!--Generator: Apple Native CoreSVG 326-->
<!DOCTYPE svg
PUBLIC "-//W3C//DTD SVG 1.1//EN"
       "http://www.w3.org/Graphics/SVG/1.1/DTD/svg11.dtd">
<svg version="1.1" xmlns="http://www.w3.org/2000/svg" xmlns:xlink="http://www.w3.org/1999/xlink" viewBox="0 0 55.3906 54.7852">
 <g>
  <rect height="54.7852" opacity="0" width="55.3906" x="0" y="0"/>
  <path d="M55.0195 14.2969L55.0195 34.2188C55.0195 41.1719 51.0742 45.1953 44.0039 45.1953L26.0547 45.1953L16.9336 53.418C15.9375 54.3359 15.293 54.7852 14.4336 54.7852C13.1836 54.7852 12.4609 53.8867 12.4609 52.5195L12.4609 45.1953L11.0156 45.1953C3.92578 45.1953 0 41.2109 0 34.2188L0 14.2969C0 7.30469 3.92578 3.28125 11.0156 3.28125L44.0039 3.28125C51.0742 3.28125 55.0195 7.32422 55.0195 14.2969ZM10.6836 30.957C9.94141 30.957 9.35547 31.543 9.35547 32.3047C9.35547 33.0273 9.94141 33.6133 10.6836 33.6133L15.1367 33.6133C15.8594 33.6133 16.4453 33.0273 16.4453 32.3047C16.4453 31.543 15.8594 30.957 15.1367 30.957ZM20.6445 30.957C19.9219 30.957 19.3359 31.543 19.3359 32.3047C19.3359 33.0273 19.9219 33.6133 20.6445 33.6133L33.8672 33.6133C34.5898 33.6133 35.1758 33.0273 35.1758 32.3047C35.1758 31.543 34.5898 30.957 33.8672 30.957ZM39.375 30.957C38.6523 30.957 38.0664 31.543 38.0664 32.3047C38.0664 33.0273 38.6523 33.6133 39.375 33.6133L44.375 33.6133C45.0977 33.6133 45.6836 33.0273 45.6836 32.3047C45.6836 31.543 45.0977 30.957 44.375 30.957ZM10.6836 24.4531C9.94141 24.4531 9.35547 25.0586 9.35547 25.7617C9.35547 26.5039 9.94141 27.0898 10.6836 27.0898L21.6797 27.0898C22.4023 27.0898 22.9883 26.5039 22.9883 25.7617C22.9883 25.0586 22.4023 24.4531 21.6797 24.4531ZM27.1875 24.4531C26.4648 24.4531 25.8789 25.0586 25.8789 25.7617C25.8789 26.5039 26.4648 27.0898 27.1875 27.0898L44.375 27.0898C45.0977 27.0898 45.6836 26.5039 45.6836 25.7617C45.6836 25.0586 45.0977 24.4531 44.375 24.4531Z" fill="black" fill-opacity="0.85"/>
 </g>
</svg>
