<?xml version="1.0" encoding="UTF-8"?>
<!--Generator: Apple Native CoreSVG 326-->
<!DOCTYPE svg
PUBLIC "-//W3C//DTD SVG 1.1//EN"
       "http://www.w3.org/Graphics/SVG/1.1/DTD/svg11.dtd">
<svg version="1.1" xmlns="http://www.w3.org/2000/svg" xmlns:xlink="http://www.w3.org/1999/xlink" viewBox="0 0 55.3906 54.5508">
 <g>
  <rect height="54.5508" opacity="0" width="55.3906" x="0" y="0"/>
  <path d="M14.8438 54.5508C15.918 54.5508 16.6602 53.9844 17.9297 52.8516L26.7383 45.0977L44.0039 45.0977C51.0742 45.0977 55.0195 41.0547 55.0195 34.1016L55.0195 14.1797C55.0195 7.20703 51.0742 3.16406 44.0039 3.16406L11.0156 3.16406C3.92578 3.16406 0 7.1875 0 14.1797L0 34.1016C0 41.0938 3.92578 45.0977 11.0156 45.0977L12.4805 45.0977L12.4805 51.8164C12.4805 53.4766 13.3398 54.5508 14.8438 54.5508ZM15.7031 50.625L15.7031 43.2812C15.7031 42.0898 15.2539 41.6406 14.082 41.6406L11.0352 41.6406C5.99609 41.6406 3.45703 38.9453 3.45703 34.0625L3.45703 14.1992C3.45703 9.31641 5.99609 6.62109 11.0352 6.62109L43.9844 6.62109C48.9648 6.62109 51.5625 9.31641 51.5625 14.1992L51.5625 34.0625C51.5625 38.9453 48.9648 41.6406 43.9844 41.6406L26.6602 41.6406C25.4297 41.6406 24.7852 41.8359 23.9258 42.7148Z" fill="black" fill-opacity="0.85"/>
  <path d="M11.0547 27.0312L21.8164 27.0312C22.5195 27.0312 23.0859 26.4648 23.0859 25.7422C23.0859 25.0586 22.5195 24.4727 21.8164 24.4727L11.0547 24.4727C10.332 24.4727 9.76562 25.0586 9.76562 25.7422C9.76562 26.4648 10.332 27.0312 11.0547 27.0312ZM27.207 27.0312L43.9844 27.0312C44.707 27.0312 45.2734 26.4648 45.2734 25.7422C45.2734 25.0586 44.707 24.4727 43.9844 24.4727L27.207 24.4727C26.5039 24.4727 25.9375 25.0586 25.9375 25.7422C25.9375 26.4648 26.5039 27.0312 27.207 27.0312ZM11.0547 33.3984L15.4102 33.3984C16.1133 33.3984 16.6797 32.832 16.6797 32.1289C16.6797 31.3867 16.1133 30.8203 15.4102 30.8203L11.0547 30.8203C10.332 30.8203 9.76562 31.3867 9.76562 32.1289C9.76562 32.832 10.332 33.3984 11.0547 33.3984ZM20.8008 33.3984L33.7109 33.3984C34.4141 33.3984 34.9805 32.832 34.9805 32.1289C34.9805 31.3867 34.4141 30.8203 33.7109 30.8203L20.8008 30.8203C20.0977 30.8203 19.5312 31.3867 19.5312 32.1289C19.5312 32.832 20.0977 33.3984 20.8008 33.3984ZM39.1016 33.3984L43.9844 33.3984C44.707 33.3984 45.2734 32.832 45.2734 32.1289C45.2734 31.3867 44.707 30.8203 43.9844 30.8203L39.1016 30.8203C38.3984 30.8203 37.832 31.3867 37.832 32.1289C37.832 32.832 38.3984 33.3984 39.1016 33.3984Z" fill="black" fill-opacity="0.85"/>
 </g>
</svg>
