<?xml version="1.0" encoding="UTF-8"?>
<!--Generator: Apple Native CoreSVG 326-->
<!DOCTYPE svg
PUBLIC "-//W3C//DTD SVG 1.1//EN"
       "http://www.w3.org/Graphics/SVG/1.1/DTD/svg11.dtd">
<svg version="1.1" xmlns="http://www.w3.org/2000/svg" xmlns:xlink="http://www.w3.org/1999/xlink" viewBox="0 0 57.0312 63.5352">
 <g>
  <rect height="63.5352" opacity="0" width="57.0312" x="0" y="0"/>
  <path d="M28.3398 63.4961C40.4492 63.4961 45.8789 60.7227 45.8789 54.2969L45.8789 11.1914C45.8789 4.10156 39.4531 0 28.3398 0C17.2266 0 10.8008 4.10156 10.8008 11.1914L10.8008 54.2969C10.8008 60.7227 16.2305 63.4961 28.3398 63.4961ZM28.3398 26.25C25.8398 26.25 22.0703 26.4453 20.7617 26.4453C18.8477 26.4453 17.9883 25.7031 17.793 23.6914L17.4023 19.0625C17.0703 15.3906 19.4531 13.8281 28.3398 13.8281C37.2461 13.8281 39.6289 15.3906 39.2969 19.0625L38.8867 23.6914C38.7109 25.7031 37.8516 26.4453 35.9375 26.4453C34.6289 26.4453 30.6055 26.25 28.3398 26.25ZM28.3398 53.75C19.668 53.75 17.0508 52.4609 17.5586 48.7109L17.832 46.4062C18.2422 43.3789 20.7617 42.3438 28.3398 42.3438C35.918 42.3438 38.457 43.3789 38.8477 46.4062L39.1406 48.7109C39.6484 52.4609 37.0312 53.75 28.3398 53.75ZM12.3633 36.3867L0.527344 48.1445C-0.175781 48.8281-0.175781 49.9805 0.527344 50.6836C1.21094 51.3672 2.34375 51.3867 3.06641 50.6836L12.3633 41.4258ZM44.2969 36.3867L44.2969 41.4258L53.6133 50.6836C54.3164 51.3867 55.4492 51.3672 56.1523 50.6836C56.8359 49.9805 56.8359 48.8281 56.1523 48.1445Z" fill="black" fill-opacity="0.85"/>
 </g>
</svg>
