<?xml version="1.0" encoding="UTF-8"?>
<!--Generator: Apple Native CoreSVG 326-->
<!DOCTYPE svg
PUBLIC "-//W3C//DTD SVG 1.1//EN"
       "http://www.w3.org/Graphics/SVG/1.1/DTD/svg11.dtd">
<svg version="1.1" xmlns="http://www.w3.org/2000/svg" xmlns:xlink="http://www.w3.org/1999/xlink" viewBox="0 0 57.4739 59.3164">
 <g>
  <rect height="59.3164" opacity="0" width="57.4739" x="0" y="0"/>
  <path d="M3.84438 59.0234L3.96157 59.0234C11.6178 59.0234 12.2819 53.9062 16.5788 53.9062C20.778 53.9062 21.8522 59.0234 28.5514 59.0234C35.2311 59.0234 36.3053 53.9062 40.5045 53.9062C44.8209 53.9062 45.485 59.0234 53.1217 59.0234L53.2584 59.0234C54.0983 59.0234 54.7819 58.3398 54.7819 57.5C54.7819 56.6406 54.0983 55.957 53.2584 55.957L53.1217 55.957C50.3288 55.957 48.7467 54.7852 46.8522 53.457C45.2116 52.2656 43.2389 50.8398 40.5045 50.8398C37.7116 50.8398 35.6998 52.3438 34.0592 53.5742C32.3209 54.8828 30.8952 55.957 28.5514 55.957C26.2077 55.957 24.7623 54.8828 23.0241 53.5742C21.3834 52.3438 19.3913 50.8398 16.5788 50.8398C13.8639 50.8398 11.8913 52.2656 10.2506 53.457C8.33657 54.7852 6.75453 55.957 3.96157 55.957L3.84438 55.957C2.985 55.957 2.30141 56.6406 2.30141 57.5C2.30141 58.3398 2.985 59.0234 3.84438 59.0234ZM9.99672 55.293L12.9655 54.375L3.68813 41.7773C3.16078 41.0742 3.47328 40.1758 4.48891 40.1758L52.6139 40.1758C53.6295 40.1758 53.942 41.0547 53.3756 41.7969L44.1373 54.3164L47.1256 55.2539L56.11 43.2422C58.1803 40.5273 56.8717 37.3438 53.2975 37.3438L3.78578 37.3438C0.231097 37.3438-1.0775 40.5469 0.973285 43.2422ZM14.9186 11.7773C14.7819 12.4609 15.0944 12.7344 15.778 12.7148C18.8444 12.5 22.36 12.3242 28.5319 12.3242C34.7233 12.3242 38.2194 12.5 41.2858 12.7148C41.9889 12.7344 42.3014 12.4609 42.1647 11.7773C41.6569 9.60938 40.817 7.10938 40.2116 6.07422C39.6842 5.13672 39.0202 4.72656 37.9459 4.57031C36.5983 4.375 33.5905 4.25781 28.5319 4.25781C23.4733 4.27734 20.4655 4.375 19.1373 4.57031C18.0631 4.72656 17.3795 5.13672 16.8522 6.07422C16.2663 7.10938 15.4069 9.60938 14.9186 11.7773ZM15.0748 24.4531C16.735 24.4531 17.985 23.2031 17.985 21.5625C17.985 19.9023 16.735 18.6719 15.0748 18.6719C13.4342 18.6719 12.2038 19.9023 12.2038 21.5625C12.2038 23.2031 13.4342 24.4531 15.0748 24.4531ZM23.7077 23.8281L33.3756 23.8281C34.6061 23.8281 35.4655 22.9883 35.4655 21.7578C35.4655 20.5078 34.5866 19.6484 33.3756 19.6484L23.7077 19.6484C22.4577 19.6484 21.6178 20.5078 21.6178 21.7578C21.6178 22.9688 22.4577 23.8281 23.7077 23.8281ZM41.9889 24.4531C43.6295 24.4531 44.8795 23.2031 44.8795 21.5625C44.8795 19.9023 43.6295 18.6719 41.9889 18.6719C40.3288 18.6719 39.1178 19.9023 39.1178 21.5625C39.1178 23.2031 40.3288 24.4531 41.9889 24.4531ZM28.5319 29.8242C34.7233 29.8242 43.0436 29.5117 46.6178 29.1016C49.2545 28.7891 50.6998 27.2852 50.6998 24.8438L50.6998 21.5625C50.6998 18.2422 49.9772 16.4648 48.317 14.3164L46.7545 12.3242C46.0709 8.96484 44.8405 5.42969 44.1959 4.0625C43.1998 1.97266 41.2272 0.625 38.6295 0.253906C37.3795 0.0976562 33.317 0 28.5319 0C23.8248 0 19.7233 0.0976562 18.4538 0.253906C15.8756 0.585938 13.903 1.93359 12.8678 4.0625C12.2428 5.42969 10.9928 8.96484 10.3092 12.3242L8.76625 14.3164C7.1061 16.4648 6.38344 18.2422 6.38344 21.5625L6.38344 24.8438C6.38344 27.2852 7.80922 28.7891 10.4655 29.1016C14.0202 29.5117 22.36 29.8242 28.5319 29.8242ZM28.5319 27.0117C22.3209 27.0117 14.1569 26.7383 11.0905 26.3477C9.70375 26.1719 9.17641 25.6055 9.17641 24.2773L9.17641 21.5625C9.17641 19.0625 9.5475 17.9102 10.9928 16.0352L12.9459 13.4961C13.4342 10.6445 14.6842 6.91406 15.4459 5.29297C16.0319 4.04297 17.1452 3.28125 18.7858 3.10547C19.9577 2.96875 23.7467 2.79297 28.5319 2.79297C33.3366 2.79297 37.1842 2.96875 38.2584 3.10547C39.8991 3.30078 41.0319 4.04297 41.6373 5.29297C42.4186 6.93359 43.6491 10.6836 44.1178 13.4961L46.0709 16.0352C47.4967 17.9102 47.9069 19.082 47.9069 21.5625L47.9069 24.2773C47.9069 25.625 47.36 26.1914 45.9733 26.3477C42.9069 26.7188 34.7623 27.0117 28.5319 27.0117ZM10.1139 34.5703L12.2819 34.5703C13.6686 34.5703 14.7623 33.4961 14.7623 32.1094L14.7623 27.8711L7.61391 26.8555L7.63344 32.1094C7.63344 33.4961 8.70766 34.5703 10.1139 34.5703ZM44.8014 34.5703L46.9694 34.5703C48.3756 34.5703 49.4498 33.4961 49.4498 32.1094L49.4498 26.8555L42.3014 27.8711L42.3209 32.1094C42.3209 33.4961 43.3952 34.5703 44.8014 34.5703Z" fill="black" fill-opacity="0.85"/>
 </g>
</svg>
