<?xml version="1.0" encoding="UTF-8"?>
<!--Generator: Apple Native CoreSVG 326-->
<!DOCTYPE svg
PUBLIC "-//W3C//DTD SVG 1.1//EN"
       "http://www.w3.org/Graphics/SVG/1.1/DTD/svg11.dtd">
<svg version="1.1" xmlns="http://www.w3.org/2000/svg" xmlns:xlink="http://www.w3.org/1999/xlink" viewBox="0 0 80.2148 49.5898">
 <g>
  <rect height="49.5898" opacity="0" width="80.2148" x="0" y="0"/>
  <path d="M16.3086 13.2422L17.5 13.2422C18.2031 13.2422 18.7305 12.7148 18.7305 12.0117L18.7305 1.26953C18.7305 0.566406 18.2031 0.0390625 17.5 0.0390625L16.3086 0.0390625C15.6055 0.0390625 15.0781 0.566406 15.0781 1.26953L15.0781 12.0117C15.0781 12.7148 15.6055 13.2422 16.3086 13.2422ZM16.3086 31.4062L17.5 31.4062C18.2031 31.4062 18.7305 30.8789 18.7305 30.1758L18.7305 19.4531C18.7305 18.75 18.2031 18.2227 17.5 18.2227L16.3086 18.2227C15.6055 18.2227 15.0781 18.75 15.0781 19.4531L15.0781 30.1758C15.0781 30.8789 15.6055 31.4062 16.3086 31.4062ZM16.3086 49.5898L17.5 49.5898C18.2031 49.5898 18.7305 49.0625 18.7305 48.3594L18.7305 37.6172C18.7305 36.9141 18.2031 36.3867 17.5 36.3867L16.3086 36.3867C15.6055 36.3867 15.0781 36.9141 15.0781 37.6172L15.0781 48.3594C15.0781 49.0625 15.6055 49.5898 16.3086 49.5898ZM62.3438 13.2422L63.5352 13.2422C64.2578 13.2422 64.7656 12.7148 64.7656 12.0117L64.7656 1.26953C64.7656 0.566406 64.2578 0.0390625 63.5352 0.0390625L62.3438 0.0390625C61.6406 0.0390625 61.1133 0.566406 61.1133 1.26953L61.1133 12.0117C61.1133 12.7148 61.6406 13.2422 62.3438 13.2422ZM62.3438 31.4062L63.5352 31.4062C64.2578 31.4062 64.7656 30.8789 64.7656 30.1758L64.7656 19.4531C64.7656 18.75 64.2578 18.2227 63.5352 18.2227L62.3438 18.2227C61.6406 18.2227 61.1133 18.75 61.1133 19.4531L61.1133 30.1758C61.1133 30.8789 61.6406 31.4062 62.3438 31.4062ZM62.3438 49.5898L63.5352 49.5898C64.2578 49.5898 64.7656 49.0625 64.7656 48.3594L64.7656 37.6172C64.7656 36.9141 64.2578 36.3867 63.5352 36.3867L62.3438 36.3867C61.6406 36.3867 61.1133 36.9141 61.1133 37.6172L61.1133 48.3594C61.1133 49.0625 61.6406 49.5898 62.3438 49.5898ZM0 30.4102C0 31.6602 1.03516 32.168 2.08984 31.5234L11.0547 26.0547C12.1094 25.4102 12.0703 24.1797 11.0547 23.5547L2.07031 18.0469C1.01562 17.4023 0 17.9297 0 19.1602ZM79.8438 30.4102L79.8438 19.1602C79.8438 17.9297 78.8477 17.4219 77.7734 18.0469L68.7891 23.5547C67.7734 24.1992 67.7539 25.3906 68.7891 26.0547L77.7734 31.5234C78.8477 32.1484 79.8438 31.6602 79.8438 30.4102Z" fill="black" fill-opacity="0.85"/>
  <path d="M39.9023 47.832C48.6523 47.832 52.793 45.7812 52.793 40.7227L52.793 19.7461L53.7891 19.7461C54.8633 19.7461 55.7031 18.9648 55.6836 17.9688L55.6641 17.0312C55.625 16.0156 54.8633 15.2344 53.7695 15.2344L52.793 15.2344L52.793 10.0391C52.793 4.80469 47.9688 1.73828 39.9219 1.75781C31.9141 1.75781 27.0898 4.78516 27.0898 10.0391L27.0898 15.2344L26.1133 15.2344C25 15.2344 24.2383 16.0156 24.2188 17.0117L24.1992 17.9688C24.1797 18.9648 25 19.7461 26.0938 19.7461L27.0898 19.7461L27.0898 40.7227C27.0898 45.7812 31.1914 47.832 39.9023 47.832ZM39.9219 44.7656C33.125 44.7461 30.2148 43.5547 30.2148 40.6445L30.2148 10.0586C30.2148 6.73828 33.5938 4.86328 39.9023 4.86328C46.2695 4.86328 49.668 6.73828 49.668 10.0391L49.668 40.6445C49.668 43.5547 46.7383 44.7461 39.9219 44.7656ZM39.9219 21.1133C41.5234 21.1328 44.3945 21.2891 45.293 21.3086C46.6992 21.3086 47.3828 20.7227 47.5195 19.1992L47.793 15.9961C48.0273 13.3008 46.3867 12.1875 39.9414 12.168C33.4961 12.168 31.8359 13.3008 32.0898 16.0156L32.3828 19.1797C32.5195 20.7227 33.1445 21.3086 34.5898 21.2891C35.5078 21.3086 38.1445 21.1328 39.9219 21.1133ZM39.9219 40.4883C46.1133 40.4688 48.0664 39.5508 47.6953 36.7773L47.4609 35.1562C47.168 32.9102 45.3711 32.207 39.9414 32.2266C34.4922 32.207 32.7148 32.9297 32.4023 35.1562L32.1875 36.7578C31.7969 39.5703 33.75 40.4688 39.9219 40.4883Z" fill="black" fill-opacity="0.85"/>
 </g>
</svg>
