<?xml version="1.0" encoding="UTF-8"?>
<!--Generator: Apple Native CoreSVG 326-->
<!DOCTYPE svg
PUBLIC "-//W3C//DTD SVG 1.1//EN"
       "http://www.w3.org/Graphics/SVG/1.1/DTD/svg11.dtd">
<svg version="1.1" xmlns="http://www.w3.org/2000/svg" xmlns:xlink="http://www.w3.org/1999/xlink" viewBox="0 0 59.3555 46.3086">
 <g>
  <rect height="46.3086" opacity="0" width="59.3555" x="0" y="0"/>
  <path d="M0 43.0469C0 44.8633 1.42578 46.3086 3.28125 46.3086L6.21094 46.3086C8.06641 46.3086 9.49219 44.8828 9.49219 43.0469L9.49219 39.5898L49.4922 39.5898L49.4922 43.0469C49.4922 44.8828 50.918 46.3086 52.7734 46.3086L55.7031 46.3086C57.5586 46.3086 58.9844 44.8828 58.9844 43.0469L58.9844 26.6992C58.9844 22.4023 58.2812 19.9414 55.8398 17.1875L53.3594 14.4141L50.6641 6.69922C49.2188 2.59766 46.543 0.859375 43.0859 0.46875C41.3867 0.253906 35.8008 0.0976562 29.4922 0.0976562C23.1836 0.0976562 17.5977 0.253906 15.8984 0.46875C12.4414 0.859375 9.76562 2.59766 8.32031 6.69922L5.625 14.4141L3.14453 17.1875C0.703125 19.9414 0 22.4023 0 26.6992ZM12.168 14.1797C11.0156 14.1797 10.5859 13.3203 10.957 12.2266L12.5391 7.59766C13.1836 5.66406 14.1992 4.96094 15.9375 4.72656C17.7344 4.49219 22.3438 4.31641 29.4922 4.31641C36.6406 4.31641 41.2305 4.49219 43.0469 4.72656C44.7656 4.96094 45.7812 5.66406 46.4453 7.59766L48.0273 12.2266C48.3984 13.3203 47.9492 14.1797 46.7969 14.1797ZM8.82812 29.9805C7.34375 29.9805 6.26953 28.9062 6.26953 27.4609L6.26953 23.457C6.26953 22.0117 7.34375 20.957 8.82812 20.957C10.2734 20.957 11.3477 21.9922 11.3477 23.457L11.3477 27.4609C11.3477 28.9258 10.2734 29.9805 8.82812 29.9805ZM23.6914 28.8477C22.5391 28.8477 21.7773 28.0859 21.7773 26.8164L21.7773 24.082C21.7773 22.8516 22.5391 22.1094 23.6914 22.1094L35.1562 22.1094C36.3281 22.1094 37.0898 22.8516 37.0898 24.082L37.0898 26.8164C37.0898 28.0859 36.3281 28.8477 35.1562 28.8477ZM50.3516 29.9805C48.9258 29.9805 47.832 28.9062 47.832 27.4609L47.832 23.457C47.832 22.0312 48.9258 20.957 50.3516 20.957C51.8359 20.957 52.9102 21.9922 52.9102 23.457L52.9102 27.4609C52.9102 28.9258 51.8359 29.9805 50.3516 29.9805Z" fill="black" fill-opacity="0.85"/>
 </g>
</svg>
