<?xml version="1.0" encoding="UTF-8"?>
<!--Generator: Apple Native CoreSVG 326-->
<!DOCTYPE svg
PUBLIC "-//W3C//DTD SVG 1.1//EN"
       "http://www.w3.org/Graphics/SVG/1.1/DTD/svg11.dtd">
<svg version="1.1" xmlns="http://www.w3.org/2000/svg" xmlns:xlink="http://www.w3.org/1999/xlink" viewBox="0 0 46.582 39.7852">
 <g>
  <rect height="39.7852" opacity="0" width="46.582" x="0" y="0"/>
  <path d="M46.2109 34.4727L46.2109 0.0976562C40.3906 0.566406 36.7969 1.83594 32.2656 4.70703L22.0508 11.0938L10.7617 12.4805C4.0625 13.3203 0 17.4414 0 23.1836L0 26.4648C0 31.9531 2.46094 34.4727 7.67578 34.4727L9.31641 34.4727C9.16016 33.7109 9.0625 32.9492 9.0625 32.1484C9.0625 26.4258 13.5742 21.9141 19.3359 21.9141C25.0781 21.9141 29.5898 26.4258 29.5898 32.1484C29.5898 32.9492 29.4922 33.7109 29.3164 34.4727ZM19.3359 39.6875C23.5547 39.6875 26.8555 36.3672 26.8555 32.1484C26.8555 27.9297 23.5547 24.6289 19.3359 24.6289C15.0977 24.6289 11.7969 27.9297 11.7969 32.1484C11.7969 36.3672 15.0977 39.6875 19.3359 39.6875ZM1.62109 3.125L9.74609 3.125C10.7812 3.125 11.4648 3.35938 12.0898 3.98438L20.9375 12.832L23.9062 11.1914L14.6289 1.91406C13.3008 0.566406 11.582 0 9.39453 0L1.62109 0C0.625 0 0 0.625 0 1.54297C0 2.48047 0.625 3.125 1.62109 3.125Z" fill="black" fill-opacity="0.85"/>
 </g>
</svg>
