<?xml version="1.0" encoding="UTF-8"?>
<!--Generator: Apple Native CoreSVG 326-->
<!DOCTYPE svg
PUBLIC "-//W3C//DTD SVG 1.1//EN"
       "http://www.w3.org/Graphics/SVG/1.1/DTD/svg11.dtd">
<svg version="1.1" xmlns="http://www.w3.org/2000/svg" xmlns:xlink="http://www.w3.org/1999/xlink" viewBox="0 0 48.6236 64.4727">
 <g>
  <rect height="64.4727" opacity="0" width="48.6236" x="0" y="0"/>
  <path d="M6.15751 58.2812C9.98564 62.1289 14.9075 64.4531 20.22 64.4531C21.3333 64.4531 22.0755 63.7305 22.0755 62.7344C22.056 61.8164 21.3333 61.1914 20.1028 61.1133C15.8255 60.918 11.6849 59.1797 8.4622 55.9766C5.25908 52.7539 3.52079 48.6328 3.32548 44.3359C3.22783 42.9688 2.64189 42.4219 1.5872 42.4219C0.747357 42.4023-0.0729552 43.0273 0.00516975 44.1992C0.259076 49.5312 2.32939 54.4531 6.15751 58.2812Z" fill="black" fill-opacity="0.85"/>
  <path d="M12.3489 52.0898C14.8294 54.5703 18.1888 55.8398 20.5325 55.8398C21.5481 55.8398 22.2513 55.1758 22.2317 54.2578C22.2317 53.3398 21.6263 52.6953 20.2786 52.5195C18.2474 52.3633 16.3138 51.4453 14.6536 49.8047C13.013 48.1445 12.1145 46.1914 11.8997 43.9844C11.7239 42.7734 11.2747 42.2461 10.2005 42.2461C9.24345 42.2266 8.50126 42.9688 8.63798 44.1406C8.89189 47.168 10.1614 49.9219 12.3489 52.0898Z" fill="black" fill-opacity="0.85"/>
  <path d="M31.431 49.1406C40.7669 49.1406 45.1419 46.9531 45.1419 41.5625L45.1419 8.84766C45.1419 3.26172 39.9856 0 31.431 0C22.8177 0 17.681 3.26172 17.681 8.84766L17.681 41.5625C17.681 46.9531 22.0755 49.1406 31.431 49.1406ZM31.431 45.7812C24.1653 45.7812 21.0599 44.5312 21.0599 41.4648L21.0599 8.84766C21.0599 5.37109 24.6927 3.37891 31.431 3.37891C38.1302 3.37891 41.7239 5.37109 41.7239 8.84766L41.7239 41.4648C41.7239 44.5312 38.6575 45.7812 31.431 45.7812ZM31.4114 20.6641C33.306 20.6641 36.1185 20.8398 37.0755 20.8398C38.5989 20.8398 39.302 20.2148 39.4388 18.5938L39.7513 15.1758C39.9856 12.2852 38.2278 11.1133 31.4114 11.1133C24.5755 11.1133 22.8177 12.2852 23.0716 15.1758L23.3645 18.5938C23.5013 20.2148 24.2044 20.8398 25.7278 20.8398C26.6849 20.8398 29.6927 20.6641 31.4114 20.6641ZM31.4114 41.2305C37.9935 41.2305 40.0442 40.2539 39.6341 37.2852L39.3997 35.5664C39.0481 33.1836 37.1731 32.4023 31.4114 32.4023C25.6302 32.4023 23.7552 33.1836 23.4036 35.5664L23.1692 37.2852C22.7591 40.2539 24.8099 41.2305 31.4114 41.2305ZM43.2669 19.2383L46.1966 19.2383C47.3685 19.2383 48.2474 18.3984 48.2474 17.3242L48.2474 16.3281C48.2474 15.2344 47.3685 14.3945 46.1966 14.3945L43.2669 14.3945ZM19.5364 19.2383L19.5364 14.3945L16.6067 14.3945C15.4349 14.3945 14.556 15.2344 14.556 16.3281L14.556 17.3242C14.556 18.3984 15.4349 19.2383 16.6067 19.2383Z" fill="black" fill-opacity="0.85"/>
 </g>
</svg>
