<?xml version="1.0" encoding="UTF-8"?>
<!--Generator: Apple Native CoreSVG 326-->
<!DOCTYPE svg
PUBLIC "-//W3C//DTD SVG 1.1//EN"
       "http://www.w3.org/Graphics/SVG/1.1/DTD/svg11.dtd">
<svg version="1.1" xmlns="http://www.w3.org/2000/svg" xmlns:xlink="http://www.w3.org/1999/xlink" viewBox="0 0 57.4699 50.8789">
 <g>
  <rect height="50.8789" opacity="0" width="57.4699" x="0" y="0"/>
  <path d="M53.8717 38.3203L53.8717 49.4336C53.8717 50.1367 53.3638 50.6641 52.6412 50.6641L51.4498 50.6641C50.7467 50.6641 50.2193 50.1367 50.2193 49.4336L50.2193 38.3203C50.2193 37.6172 50.7467 37.0898 51.4498 37.0898L52.6412 37.0898C53.3638 37.0898 53.8717 37.6172 53.8717 38.3203ZM6.85994 38.3203L6.85994 49.4336C6.85994 50.1367 6.3326 50.6641 5.62947 50.6641L4.43807 50.6641C3.73494 50.6641 3.2076 50.1367 3.2076 49.4336L3.2076 38.3203C3.2076 37.5977 3.73494 37.0898 4.43807 37.0898L5.62947 37.0898C6.3326 37.0898 6.85994 37.5977 6.85994 38.3203ZM53.8717 19.7852L53.8717 30.8789C53.8717 31.582 53.3638 32.1094 52.6412 32.1094L51.4498 32.1094C50.7467 32.1094 50.2193 31.582 50.2193 30.8789L50.2193 19.7852C50.2193 19.082 50.7467 18.5547 51.4498 18.5547L52.6412 18.5547C53.3638 18.5547 53.8717 19.082 53.8717 19.7852ZM53.8717 1.23047L53.8717 12.3438C53.8717 13.0469 53.3638 13.5742 52.6412 13.5742L51.4498 13.5742C50.7467 13.5742 50.2193 13.0469 50.2193 12.3438L50.2193 1.23047C50.2193 0.527344 50.7467 0 51.4498 0L52.6412 0C53.3638 0 53.8717 0.527344 53.8717 1.23047ZM6.85994 1.23047L6.85994 6.433C6.75736 6.49454 6.66033 6.55731 6.57068 6.62158C6.26178 6.82119 5.9659 7.02352 5.68277 7.22828C5.61373 7.27406 5.54932 7.32075 5.4897 7.3683C5.19701 7.58039 4.9181 7.79505 4.65354 8.0121C4.58108 8.06543 4.51464 8.1198 4.45305 8.17492C4.22961 8.36002 4.0155 8.54663 3.81273 8.73491C3.59163 8.92511 3.38864 9.11802 3.2076 9.31379L3.2076 1.23047C3.2076 0.507812 3.73494 0 4.43807 0L5.62947 0C6.3326 0 6.85994 0.507812 6.85994 1.23047Z" fill="black" fill-opacity="0.85"/>
  <path d="M31.0396 45.6445C38.5787 41.2891 41.1373 37.4414 38.5982 33.0859L23.2662 6.48438C20.649 1.97266 14.9459 1.73828 7.99275 5.74219C1.0201 9.76562-1.61662 14.8242 0.981036 19.3555L16.3326 45.9375C18.8717 50.293 23.481 50.0195 31.0396 45.6445ZM17.6217 22.4219C16.1959 23.2617 13.7545 24.8633 12.9732 25.332C11.7232 26.0352 10.8053 25.8984 9.92635 24.5898L8.03182 21.8945C6.44979 19.6094 7.32869 17.793 13.0513 14.4922C18.7349 11.2109 20.7662 11.3477 21.9576 13.8672L23.3248 16.8555C23.9693 18.2422 23.7349 19.1016 22.4263 19.8438C21.6256 20.332 19.2037 21.5234 17.6217 22.4219ZM27.524 39.5703C22.0357 42.7344 19.8092 42.9102 18.7349 40.2539L18.1295 38.7109C17.2701 36.543 18.481 35.0195 23.2857 32.2461C28.0904 29.4531 30.0435 29.1797 31.4498 30.9961L32.4654 32.3242C34.2623 34.6094 32.9732 36.4062 27.524 39.5703ZM26.606 15.7617L28.9693 14.4141C29.9068 13.8867 30.2388 12.793 29.7115 11.9141L29.2428 11.1133C28.7349 10.2539 27.6607 9.96094 26.7037 10.5078L24.3599 11.875ZM7.32869 26.9141L5.0826 22.9883L2.73885 24.3359C1.78182 24.9023 1.50838 25.957 1.99666 26.8555L2.46541 27.6758C2.95369 28.5352 4.06697 28.8086 4.98494 28.2617Z" fill="black" fill-opacity="0.85"/>
 </g>
</svg>
