<?xml version="1.0" encoding="UTF-8"?>
<!--Generator: Apple Native CoreSVG 326-->
<!DOCTYPE svg
PUBLIC "-//W3C//DTD SVG 1.1//EN"
       "http://www.w3.org/Graphics/SVG/1.1/DTD/svg11.dtd">
<svg version="1.1" xmlns="http://www.w3.org/2000/svg" xmlns:xlink="http://www.w3.org/1999/xlink" viewBox="0 0 71.6953 37.2461">
 <g>
  <rect height="37.2461" opacity="0" width="71.6953" x="0" y="0"/>
  <path d="M16.3066 6.23047L17.9277 6.23047C18.8847 6.23047 19.2754 5.85938 19.6074 5.03906L21.0918 1.34766C21.3847 0.625 21.0527 0.0390625 20.3105 0.0390625L18.8457 0.0390625C18.123 0.0390625 17.6543 0.371094 17.3222 1.01562L15.4082 4.78516C15.0566 5.44922 15.4082 6.23047 16.3066 6.23047ZM9.62694 19.8828L12.1855 19.8828C13.1621 19.8828 13.7285 19.5508 14.0996 18.6328L16.2285 13.3984C16.5215 12.6562 16.0527 11.9141 15.2324 11.9141L12.9472 11.9141C12.2441 11.9141 11.6387 12.2656 11.2871 12.9492L8.61131 18.2031C8.20115 19.0234 8.70897 19.8828 9.62694 19.8828ZM1.75584 37.2461L4.86131 37.2461C6.1699 37.2461 6.81444 36.6211 7.20506 35.6445L10.4668 27.5977C10.8769 26.6406 10.2519 25.7031 9.21678 25.7031L6.58006 25.7031C5.2324 25.7031 4.54881 26.2305 4.08006 27.1484L0.251935 34.8242C-0.334002 35.957 0.0761538 37.2461 1.75584 37.2461ZM53.416 6.23047L55.0176 6.23047C55.916 6.23047 56.2676 5.44922 55.916 4.78516L54.0019 1.01562C53.6699 0.371094 53.2207 0.0390625 52.4785 0.0390625L51.0137 0.0390625C50.2715 0.0390625 49.9394 0.625 50.2324 1.34766L51.7168 5.03906C52.0488 5.85938 52.4394 6.23047 53.416 6.23047ZM59.1582 19.8828L61.6972 19.8828C62.6347 19.8828 63.1426 19.0234 62.7129 18.2031L60.0566 12.9492C59.7051 12.2656 59.0996 11.9141 58.3769 11.9141L56.0918 11.9141C55.2715 11.9141 54.8027 12.6562 55.0957 13.3984L57.2246 18.6328C57.5957 19.5508 58.1621 19.8828 59.1582 19.8828ZM66.4824 37.2461L69.5879 37.2461C71.248 37.2461 71.6582 35.957 71.0918 34.8242L67.2637 27.1484C66.7949 26.2305 66.0918 25.7031 64.7441 25.7031L62.1269 25.7031C61.0722 25.7031 60.4668 26.6406 60.8574 27.5977L64.1191 35.6445C64.5097 36.6211 65.1738 37.2461 66.4824 37.2461Z" fill="black" fill-opacity="0.85"/>
  <path d="M19.8808 29.1016C19.8808 30.0781 20.6426 30.8398 21.6387 30.8398L23.1816 30.8398C24.1777 30.8398 24.9199 30.0781 24.9199 29.1016L24.9199 27.2656L46.1699 27.2656L46.1699 29.1016C46.1699 30.0781 46.9316 30.8398 47.9082 30.8398L49.4707 30.8398C50.4472 30.8398 51.209 30.0781 51.209 29.1016L51.209 20.4297C51.209 18.1445 50.8379 16.8359 49.5293 15.3711L48.2207 13.8867L46.7949 9.80469C46.0332 7.61719 44.6074 6.69922 42.7519 6.48438C41.8535 6.38672 38.8847 6.30859 35.5449 6.30859C32.2051 6.30859 29.2363 6.38672 28.3379 6.48438C26.5019 6.69922 25.0762 7.61719 24.2949 9.80469L22.8691 13.8867L21.5605 15.3711C20.2519 16.8359 19.8808 18.1445 19.8808 20.4297ZM26.3457 13.7695C25.7402 13.7695 25.5058 13.3203 25.7012 12.7344L26.541 10.2734C26.8926 9.23828 27.4199 8.88672 28.3379 8.75C29.2949 8.63281 31.7558 8.53516 35.5449 8.53516C39.334 8.53516 41.7754 8.63281 42.7324 8.75C43.6504 8.88672 44.1972 9.23828 44.5488 10.2734L45.3887 12.7344C45.584 13.3203 45.3496 13.7695 44.7441 13.7695ZM24.5683 22.168C23.7871 22.168 23.2207 21.6016 23.2207 20.8203L23.2207 18.7109C23.2207 17.9297 23.7871 17.3633 24.5683 17.3633C25.3496 17.3633 25.916 17.9297 25.916 18.7109L25.916 20.8203C25.916 21.6016 25.3496 22.168 24.5683 22.168ZM32.459 21.5625C31.8535 21.5625 31.4629 21.1523 31.4629 20.4883L31.4629 19.0234C31.4629 18.3789 31.8535 17.9883 32.459 17.9883L38.5527 17.9883C39.1777 17.9883 39.5879 18.3789 39.5879 19.0234L39.5879 20.4883C39.5879 21.1523 39.1777 21.5625 38.5527 21.5625ZM46.6191 22.168C45.8769 22.168 45.291 21.582 45.291 20.8203L45.291 18.7109C45.291 17.9297 45.8769 17.3633 46.6191 17.3633C47.4199 17.3633 47.9863 17.9297 47.9863 18.7109L47.9863 20.8203C47.9863 21.6016 47.4199 22.168 46.6191 22.168Z" fill="black" fill-opacity="0.85"/>
 </g>
</svg>
