<?xml version="1.0" encoding="UTF-8"?>
<!--Generator: Apple Native CoreSVG 326-->
<!DOCTYPE svg
PUBLIC "-//W3C//DTD SVG 1.1//EN"
       "http://www.w3.org/Graphics/SVG/1.1/DTD/svg11.dtd">
<svg version="1.1" xmlns="http://www.w3.org/2000/svg" xmlns:xlink="http://www.w3.org/1999/xlink" viewBox="0 0 71.6953 58.2229">
 <g>
  <rect height="58.2229" opacity="0" width="71.6953" x="0" y="0"/>
  <path d="M12.9277 20.508L0.251935 45.879C-0.334002 47.0314 0.0761538 48.3009 1.75584 48.3009L4.86131 48.3009C6.1699 48.3009 6.81444 47.6955 7.20506 46.7189L17.5957 20.84C17.8887 20.1173 17.5566 19.5314 16.8144 19.5314L14.4512 19.5314C13.7285 19.5314 13.2597 19.8634 12.9277 20.508ZM58.3965 20.508C58.0644 19.8634 57.6152 19.5314 56.873 19.5314L54.5293 19.5314C53.7871 19.5314 53.4355 20.1173 53.748 20.84L64.1191 46.7189C64.5097 47.6955 65.1738 48.3009 66.4824 48.3009L69.5879 48.3009C71.248 48.3009 71.6582 47.0314 71.0918 45.879Z" fill="black" fill-opacity="0.85"/>
  <path d="M21.7363 25.7228C21.7363 26.5822 22.4004 27.2658 23.2793 27.2658L24.666 27.2658C25.5449 27.2658 26.209 26.6017 26.209 25.7228L26.209 24.1017L45.0762 24.1017L45.0762 25.7228C45.0762 26.6017 45.7597 27.2658 46.6387 27.2658L48.0058 27.2658C48.8847 27.2658 49.5488 26.6017 49.5488 25.7228L49.5488 18.0275C49.5488 15.9962 49.2168 14.8439 48.0644 13.5353L46.9121 12.2267L45.6426 8.59389C44.959 6.64076 43.6894 5.83998 42.0488 5.64467C41.248 5.54701 38.6113 5.46889 35.6426 5.46889C32.6738 5.46889 30.0371 5.54701 29.2363 5.64467C27.5957 5.83998 26.3457 6.64076 25.6621 8.59389L24.3926 12.2267L23.2207 13.5353C22.0683 14.8439 21.7363 15.9962 21.7363 18.0275ZM27.459 12.1095C26.9316 12.1095 26.7363 11.6994 26.9121 11.1915L27.6347 9.00404C27.9472 8.08608 28.4355 7.75404 29.2558 7.65639C30.0957 7.5392 32.2832 7.46108 35.6426 7.46108C39.0215 7.46108 41.1894 7.5392 42.0293 7.65639C42.8496 7.75404 43.3379 8.08608 43.6504 9.00404L44.3926 11.1915C44.5683 11.6994 44.3535 12.1095 43.8262 12.1095ZM25.8965 19.5705C25.1933 19.5705 24.6855 19.0626 24.6855 18.379L24.6855 16.4845C24.6855 15.8009 25.1933 15.3126 25.8965 15.3126C26.5801 15.3126 27.0879 15.8009 27.0879 16.4845L27.0879 18.379C27.0879 19.0822 26.5801 19.5705 25.8965 19.5705ZM32.9082 19.0431C32.3613 19.0431 32.0097 18.672 32.0097 18.0861L32.0097 16.7775C32.0097 16.2111 32.3613 15.8595 32.9082 15.8595L38.3183 15.8595C38.8652 15.8595 39.2363 16.2111 39.2363 16.7775L39.2363 18.0861C39.2363 18.672 38.8652 19.0431 38.3183 19.0431ZM45.4863 19.5705C44.8222 19.5705 44.2949 19.0626 44.2949 18.379L44.2949 16.4845C44.2949 15.8205 44.8222 15.3126 45.4863 15.3126C46.1894 15.3126 46.6972 15.8009 46.6972 16.4845L46.6972 18.379C46.6972 19.0822 46.1894 19.5705 45.4863 19.5705Z" fill="black" fill-opacity="0.85"/>
  <path d="M39.0215 32.5978L37.8496 37.5587L31.6777 31.2501C31.1699 30.7033 30.4863 31.0744 30.7402 31.8165L32.9472 38.3205L30.0566 37.0314C29.4121 36.7384 28.9433 37.2267 29.4121 37.8712L31.0137 39.9611L23.5918 38.9259C22.791 38.8087 22.5566 39.629 23.2207 40.0197L30.2129 44.258L25.9941 45.8205C25.291 46.0939 25.4082 46.8751 26.1699 46.9337L30.8574 47.2658L24.5097 51.5626C23.9043 51.9728 24.1582 52.8908 24.998 52.6955L33.0058 50.879L33.1035 57.6369C33.1035 58.3205 33.748 58.3986 34.0605 57.9103L39.2168 49.4337L47.8691 57.2267C48.5137 57.8126 49.2558 57.1876 48.8457 56.4259L43.7285 46.8361L48.9629 45.2931C49.4121 45.1369 49.4121 44.59 48.9824 44.4142L44.3535 42.5197L47.6738 33.0861C47.8887 32.5001 47.3027 31.9923 46.7754 32.5001L41.3847 37.5978L40.0762 32.5978C39.9004 31.9142 39.1972 31.8751 39.0215 32.5978Z" fill="black" fill-opacity="0.85"/>
 </g>
</svg>
