<?xml version="1.0" encoding="UTF-8"?>
<!--Generator: Apple Native CoreSVG 326-->
<!DOCTYPE svg
PUBLIC "-//W3C//DTD SVG 1.1//EN"
       "http://www.w3.org/Graphics/SVG/1.1/DTD/svg11.dtd">
<svg version="1.1" xmlns="http://www.w3.org/2000/svg" xmlns:xlink="http://www.w3.org/1999/xlink" viewBox="0 0 56.7052 50.8789">
 <g>
  <rect height="50.8789" opacity="0" width="56.7052" x="0" y="0"/>
  <path d="M6.49713 38.3203L6.49713 49.4336C6.49713 50.1367 5.96979 50.6641 5.26666 50.6641L4.05572 50.6641C3.3526 50.6641 2.82525 50.1367 2.82525 49.4336L2.82525 38.3203C2.82525 37.6172 3.3526 37.0898 4.05572 37.0898L5.26666 37.0898C5.96979 37.0898 6.49713 37.6172 6.49713 38.3203ZM53.5088 38.3203L53.5088 49.4336C53.5088 50.1367 52.9815 50.6641 52.2784 50.6641L51.087 50.6641C50.3838 50.6641 49.8565 50.1367 49.8565 49.4336L49.8565 38.3203C49.8565 37.5977 50.3838 37.0898 51.087 37.0898L52.2784 37.0898C52.9815 37.0898 53.5088 37.5977 53.5088 38.3203ZM6.49713 19.7852L6.49713 30.8789C6.49713 31.582 5.96979 32.1094 5.26666 32.1094L4.05572 32.1094C3.3526 32.1094 2.82525 31.582 2.82525 30.8789L2.82525 19.7852C2.82525 19.082 3.3526 18.5547 4.05572 18.5547L5.26666 18.5547C5.96979 18.5547 6.49713 19.082 6.49713 19.7852ZM6.49713 1.23047L6.49713 12.3438C6.49713 13.0469 5.96979 13.5742 5.26666 13.5742L4.05572 13.5742C3.3526 13.5742 2.82525 13.0469 2.82525 12.3438L2.82525 1.23047C2.82525 0.527344 3.3526 0 4.05572 0L5.26666 0C5.96979 0 6.49713 0.527344 6.49713 1.23047ZM53.5088 1.23047L53.5088 9.33008C52.525 8.33153 51.3009 7.36432 49.8565 6.44479L49.8565 1.23047C49.8565 0.507812 50.3838 0 51.087 0L52.2784 0C52.9815 0 53.5088 0.507812 53.5088 1.23047Z" fill="black" fill-opacity="0.85"/>
  <path d="M25.6573 45.6445C33.2354 50.0195 37.8448 50.293 40.3838 45.9375L55.7159 19.3555C58.3331 14.8242 55.6768 9.76562 48.7042 5.74219C41.7706 1.73828 36.0674 1.97266 33.4503 6.48438L18.0987 33.0859C15.5792 37.4414 18.1378 41.2891 25.6573 45.6445ZM39.0948 22.4219C37.5128 21.5234 35.0909 20.332 34.2706 19.8438C32.9815 19.1016 32.7667 18.2422 33.3917 16.8555L34.7588 13.8672C35.9307 11.3281 37.9815 11.2109 43.6651 14.4922C49.3682 17.793 50.2667 19.6094 48.6846 21.8945L46.7901 24.5898C45.8721 25.8984 44.9932 26.0352 43.7432 25.332C42.962 24.8633 40.5206 23.2617 39.0948 22.4219ZM29.1924 39.5703C23.7432 36.4062 22.4542 34.6094 24.2315 32.3242L25.2667 30.9961C26.6924 29.1992 28.626 29.4531 33.4307 32.2461C38.2354 35.0195 39.4463 36.543 38.587 38.7109L37.9815 40.2539C36.9268 42.9102 34.6807 42.7344 29.1924 39.5703ZM30.1104 15.7617L32.3565 11.875L30.0128 10.5078C29.0557 9.96094 27.9815 10.2539 27.4737 11.1133L26.9854 11.9141C26.4776 12.793 26.8096 13.8867 27.7276 14.4141ZM49.3878 26.9141L51.712 28.2617C52.6495 28.8086 53.7628 28.5352 54.251 27.6758L54.7198 26.8555C55.2081 25.957 54.9151 24.9023 53.9776 24.3359L51.6338 22.9883Z" fill="black" fill-opacity="0.85"/>
 </g>
</svg>
