<?xml version="1.0" encoding="UTF-8"?>
<!--Generator: Apple Native CoreSVG 326-->
<!DOCTYPE svg
PUBLIC "-//W3C//DTD SVG 1.1//EN"
       "http://www.w3.org/Graphics/SVG/1.1/DTD/svg11.dtd">
<svg version="1.1" xmlns="http://www.w3.org/2000/svg" xmlns:xlink="http://www.w3.org/1999/xlink" viewBox="0 0 52.9492 48.1445">
 <g>
  <rect height="48.1445" opacity="0" width="52.9492" x="0" y="0"/>
  <path d="M6.52344 47.7344L46.0352 47.7344C50.1172 47.7344 52.5781 44.8828 52.5781 41.2695C52.5781 40.0977 52.2461 38.8867 51.6016 37.7734L31.8555 3.24219C30.625 1.07422 28.457 0 26.2891 0C24.1016 0 21.9531 1.07422 20.7227 3.24219L0.976562 37.7734C0.3125 38.9062 0 40.0977 0 41.2695C0 44.8828 2.46094 47.7344 6.52344 47.7344ZM6.5625 44.3555C4.62891 44.3555 3.47656 42.8906 3.47656 41.25C3.47656 40.6641 3.63281 40 3.96484 39.375L23.6719 4.88281C24.2578 3.84766 25.293 3.4375 26.2891 3.4375C27.2852 3.4375 28.3008 3.84766 28.8672 4.88281L48.5938 39.3945C48.9258 40.0195 49.082 40.6641 49.082 41.25C49.082 42.8906 47.9102 44.3555 45.9766 44.3555Z" fill="black" fill-opacity="0.85"/>
  <path d="M13.0664 39.2773C13.0664 40.0977 13.6914 40.7227 14.5508 40.7227L15.8398 40.7227C16.6602 40.7227 17.3047 40.0977 17.3047 39.2773L17.3047 37.7344L35.1172 37.7344L35.1172 39.2773C35.1172 40.0977 35.7617 40.7227 36.582 40.7227L37.8711 40.7227C38.7305 40.7227 39.3359 40.0977 39.3359 39.2773L39.3359 32.0508C39.3359 30.1172 39.043 29.0234 37.9297 27.8125L36.8555 26.5625L35.6445 23.1055C35 21.2891 33.7891 20.5078 32.2656 20.3516C31.5039 20.2344 29.0039 20.1953 26.2109 20.1953C23.3984 20.1953 20.8984 20.2344 20.1562 20.3516C18.6328 20.5078 17.4023 21.2891 16.7773 23.1055L15.5664 26.5625L14.4727 27.8125C13.3594 29.0234 13.0664 30.1172 13.0664 32.0508ZM18.457 26.4453C17.9492 26.4453 17.793 26.0742 17.9492 25.5664L18.6328 23.5156C18.9258 22.6367 19.3945 22.3242 20.1758 22.207C20.9766 22.1289 23.0078 22.0312 26.2109 22.0312C29.4141 22.0312 31.4258 22.1289 32.2266 22.207C33.0078 22.3242 33.457 22.6562 33.7695 23.5156L34.4727 25.5664C34.6289 26.0742 34.4531 26.4453 33.9453 26.4453ZM16.9922 33.4961C16.3281 33.4961 15.8398 33.0469 15.8398 32.3633L15.8398 30.5859C15.8398 29.9414 16.3281 29.4922 16.9922 29.4922C17.6172 29.4922 18.1055 29.9219 18.1055 30.5859L18.1055 32.3633C18.1055 33.0469 17.6172 33.4961 16.9922 33.4961ZM23.6133 33.0078C23.0859 33.0078 22.7734 32.6758 22.7734 32.0898L22.7734 30.8594C22.7734 30.3125 23.0859 29.9805 23.6133 29.9805L28.7305 29.9805C29.2578 29.9805 29.5898 30.3125 29.5898 30.8594L29.5898 32.0898C29.5898 32.6758 29.2578 33.0078 28.7305 33.0078ZM35.5078 33.4961C34.8828 33.4961 34.3945 33.0469 34.3945 32.3633L34.3945 30.5859C34.3945 29.9609 34.8828 29.4922 35.5078 29.4922C36.1523 29.4922 36.6406 29.9219 36.6406 30.5859L36.6406 32.3633C36.6406 33.0469 36.1523 33.4961 35.5078 33.4961Z" fill="black" fill-opacity="0.85"/>
 </g>
</svg>
