<?xml version="1.0" encoding="UTF-8"?>
<!--Generator: Apple Native CoreSVG 326-->
<!DOCTYPE svg
PUBLIC "-//W3C//DTD SVG 1.1//EN"
       "http://www.w3.org/Graphics/SVG/1.1/DTD/svg11.dtd">
<svg version="1.1" xmlns="http://www.w3.org/2000/svg" xmlns:xlink="http://www.w3.org/1999/xlink" viewBox="0 0 70.2539 63.5352">
 <g>
  <rect height="63.5352" opacity="0" width="70.2539" x="0" y="0"/>
  <path d="M34.9219 63.4961C47.0312 63.4961 52.4609 60.7227 52.4609 54.2969L52.4609 11.1914C52.4609 4.10156 46.0352 0 34.9219 0C23.8086 0 17.3828 4.10156 17.3828 11.1914L17.3828 54.2969C17.3828 60.7227 22.832 63.4961 34.9219 63.4961ZM34.9219 59.9414C25.332 59.9414 20.957 58.1641 20.957 54.1406L20.957 11.1914C20.957 6.36719 26.0742 3.57422 34.9219 3.57422C43.7891 3.57422 48.8867 6.36719 48.8867 11.1914L48.8867 54.1406C48.8867 58.1641 44.5117 59.9414 34.9219 59.9414ZM34.9414 26.4453C37.1289 26.4453 41.0742 26.6211 42.3438 26.6211C44.2188 26.6211 45.0586 25.8984 45.2148 23.9258L45.625 19.4141C45.9375 15.8398 43.6328 14.3164 34.9414 14.3164C26.2305 14.3164 23.9258 15.8398 24.2383 19.4141L24.6484 23.9258C24.8047 25.8984 25.6445 26.6211 27.5195 26.6211C28.7891 26.6211 32.4805 26.4453 34.9414 26.4453ZM34.9414 53.2422C43.3984 53.2422 45.957 52.0117 45.4688 48.3594L45.1758 46.0938C44.8047 43.1445 42.3242 42.1484 34.9414 42.1484C27.5391 42.1484 25.0586 43.1445 24.6875 46.0938L24.3945 48.3594C23.9062 52.0117 26.4648 53.2422 34.9414 53.2422ZM18.9062 24.375L18.9062 18.8867L15.4688 18.8867C14.1992 18.8867 13.2617 19.7852 13.2617 20.9961L13.2617 22.2656C13.2617 23.457 14.1992 24.375 15.4688 24.375ZM50.957 24.375L54.3945 24.375C55.6641 24.375 56.6016 23.457 56.6016 22.2656L56.6016 20.9961C56.6016 19.7852 55.6641 18.8867 54.3945 18.8867L50.957 18.8867Z" fill="black" fill-opacity="0.85"/>
  <path d="M0 49.3359C0 50.5859 1.03516 51.0742 2.08984 50.4297L11.0547 44.9805C12.1094 44.3359 12.0898 43.0859 11.0547 42.4609L2.07031 36.9531C1.01562 36.3086 0 36.8555 0 38.0859Z" fill="black" fill-opacity="0.85"/>
 </g>
</svg>
