<?xml version="1.0" encoding="UTF-8"?>
<!--Generator: Apple Native CoreSVG 326-->
<!DOCTYPE svg
PUBLIC "-//W3C//DTD SVG 1.1//EN"
       "http://www.w3.org/Graphics/SVG/1.1/DTD/svg11.dtd">
<svg version="1.1" xmlns="http://www.w3.org/2000/svg" xmlns:xlink="http://www.w3.org/1999/xlink" viewBox="0 0 44.1992 63.5352">
 <g>
  <rect height="63.5352" opacity="0" width="44.1992" x="0" y="0"/>
  <path d="M1.81641 51.3672C2.89062 51.3672 3.59375 50.6641 3.59375 49.5508L3.59375 27.9883C3.59375 26.875 2.89062 26.1914 1.81641 26.1914C0.722656 26.1914 0 26.875 0 27.9883L0 49.5703C0 50.6641 0.722656 51.3672 1.81641 51.3672ZM1.81641 33.9062L10.1562 33.9062L10.1562 31.0352L1.81641 31.0352ZM26.2891 63.4961C38.3984 63.4961 43.8281 60.7227 43.8281 54.2969L43.8281 11.1914C43.8281 4.10156 37.4023 0 26.2891 0C15.1758 0 8.75 4.10156 8.75 11.1914L8.75 54.2969C8.75 60.7227 14.1797 63.4961 26.2891 63.4961ZM26.2891 26.25C23.7891 26.25 20.0195 26.4453 18.7109 26.4453C16.7969 26.4453 15.9375 25.7031 15.7422 23.6914L15.3516 19.0625C15.0195 15.3906 17.4023 13.8281 26.2891 13.8281C35.1953 13.8281 37.5781 15.3906 37.2461 19.0625L36.8359 23.6914C36.6602 25.7031 35.8008 26.4453 33.8867 26.4453C32.5781 26.4453 28.5547 26.25 26.2891 26.25ZM26.2891 53.75C17.6172 53.75 15 52.4609 15.5078 48.7109L15.8008 46.4062C16.1914 43.3789 18.7305 42.3438 26.2891 42.3438C33.8672 42.3438 36.4062 43.3789 36.7969 46.4062L37.0898 48.7109C37.5977 52.4609 34.9805 53.75 26.2891 53.75Z" fill="black" fill-opacity="0.85"/>
 </g>
</svg>
