<?xml version="1.0" encoding="UTF-8"?>
<!--Generator: Apple Native CoreSVG 326-->
<!DOCTYPE svg
PUBLIC "-//W3C//DTD SVG 1.1//EN"
       "http://www.w3.org/Graphics/SVG/1.1/DTD/svg11.dtd">
<svg version="1.1" xmlns="http://www.w3.org/2000/svg" xmlns:xlink="http://www.w3.org/1999/xlink" viewBox="0 0 64.8444 49.5508">
 <g>
  <rect height="49.5508" opacity="0" width="64.8444" x="0" y="0"/>
  <path d="M6.58237 16.3086C8.59408 13.418 11.3285 11.3477 14.3753 10.0977C15.6449 9.57031 15.7816 8.39844 15.2738 7.57812C14.8831 6.95312 14.1214 6.5625 13.2621 6.89453C9.51205 8.33984 6.30893 11.0156 3.88705 14.4531C1.50424 17.8906 0.0979904 21.7969 0.000334133 25.8398C-0.0191971 26.8945 0.820647 27.5391 1.69955 27.5391C2.55893 27.5586 3.34018 26.9727 3.39877 25.7812C3.51596 22.5195 4.53158 19.2188 6.58237 16.3086ZM32.2269 3.26172C35.7621 3.26172 39.0433 4.31641 41.8167 6.07422C42.891 6.75781 43.848 6.32812 44.2972 5.56641C44.6878 4.84375 44.6097 3.88672 43.8089 3.32031C40.4496 1.09375 36.4456 0 32.2269 0C28.0277 0 24.0042 1.09375 20.6644 3.32031C19.8636 3.88672 19.766 4.84375 20.1566 5.56641C20.6253 6.32812 21.5824 6.75781 22.6371 6.09375C25.43 4.31641 28.6917 3.26172 32.2269 3.26172ZM57.891 16.3086C59.9417 19.2188 60.9378 22.5195 61.0746 25.7812C61.1331 26.9727 61.9144 27.5586 62.7738 27.5391C63.6527 27.5391 64.4925 26.8945 64.473 25.8398C64.3753 21.7969 62.9691 17.8906 60.5863 14.4531C58.1644 11.0156 54.9417 8.33984 51.2113 6.89453C50.3519 6.5625 49.5902 6.95312 49.1996 7.57812C48.6917 8.39844 48.8285 9.57031 50.098 10.0977C53.1253 11.3477 55.8792 13.418 57.891 16.3086Z" fill="black" fill-opacity="0.85"/>
  <path d="M13.7503 21.3477C14.7269 19.9414 15.8988 18.9258 17.3636 18.2031C18.5355 17.5781 18.7113 16.6016 18.3011 15.8594C17.9105 15.1367 16.9925 14.7266 16.055 15.2148C14.2581 16.0938 12.4222 17.5391 11.055 19.4531C9.7269 21.3867 8.98471 23.6328 8.76987 25.6641C8.65268 26.5234 9.14096 27.168 9.80502 27.4023C10.723 27.7539 11.8167 27.3242 12.0511 25.8203C12.1878 24.1992 12.7542 22.7344 13.7503 21.3477ZM32.2269 12.0117C33.9456 12.0117 35.4691 12.3828 36.8753 13.2031C38.0667 13.7891 38.9652 13.3594 39.3363 12.5977C39.7074 11.875 39.5121 10.8789 38.5941 10.3906C36.8363 9.41406 34.5902 8.75 32.2269 8.75C29.8831 8.75 27.6371 9.41406 25.8597 10.3906C24.9613 10.8789 24.7464 11.875 25.1175 12.5977C25.5081 13.3789 26.3871 13.8086 27.5785 13.2031C29.0042 12.4023 30.5277 12.0117 32.2269 12.0117ZM50.7035 21.3477C51.7191 22.7344 52.2855 24.1992 52.4222 25.8203C52.6566 27.3242 53.7503 27.7539 54.6683 27.4023C55.3128 27.168 55.8206 26.5234 55.7035 25.6641C55.4886 23.6328 54.7464 21.3867 53.4183 19.4531C52.0316 17.5391 50.2152 16.0938 48.4183 15.2148C47.4808 14.7266 46.5433 15.1367 46.1527 15.8594C45.7621 16.6016 45.9183 17.5781 47.0902 18.2031C48.555 18.9258 49.7464 19.9414 50.7035 21.3477Z" fill="black" fill-opacity="0.85"/>
  <path d="M18.4964 49.4922L21.8949 49.4922L21.8949 28.7305C21.8949 25.2344 25.5277 23.2422 32.2269 23.2422C38.9652 23.2422 42.5589 25.2344 42.5589 28.7305L42.5589 49.4922L45.9574 49.4922L45.9574 28.7305C45.9574 23.125 40.8206 19.8633 32.2269 19.8633C23.6527 19.8633 18.4964 23.125 18.4964 28.7305ZM32.2269 40.5469C34.141 40.5469 36.9535 40.7031 37.9105 40.7031C39.4339 40.7031 40.1371 40.0781 40.2738 38.4766L40.5667 35.0586C40.8206 32.168 39.0628 30.9961 32.2269 30.9961C25.4105 30.9961 23.6527 32.168 23.8871 35.0586L24.18 38.4766C24.3363 40.0781 25.0394 40.7031 26.5628 40.7031C27.5199 40.7031 30.5277 40.5469 32.2269 40.5469ZM20.3714 39.1211L20.3714 34.2578L17.4417 34.2578C16.2699 34.2578 15.391 35.0977 15.391 36.1914L15.391 37.1875C15.391 38.2812 16.2699 39.1211 17.4417 39.1211ZM44.0824 39.1211L47.0121 39.1211C48.2035 39.1211 49.0628 38.2812 49.0628 37.1875L49.0628 36.1914C49.0628 35.0977 48.2035 34.2578 47.0121 34.2578L44.0824 34.2578Z" fill="black" fill-opacity="0.85"/>
 </g>
</svg>
