<?xml version="1.0" encoding="UTF-8"?>
<!--Generator: Apple Native CoreSVG 326-->
<!DOCTYPE svg
PUBLIC "-//W3C//DTD SVG 1.1//EN"
       "http://www.w3.org/Graphics/SVG/1.1/DTD/svg11.dtd">
<svg version="1.1" xmlns="http://www.w3.org/2000/svg" xmlns:xlink="http://www.w3.org/1999/xlink" viewBox="0 0 88.5352 45.4883">
 <g>
  <rect height="45.4883" opacity="0" width="88.5352" x="0" y="0"/>
  <path d="M7.61719 45.4883L44.3555 45.4883C49.5508 45.4883 51.9727 43.0859 51.9727 37.9883L51.9727 7.22656C51.9727 2.51953 49.5117 0.0585938 44.7461 0.0585938L32.3633 0.0585938C28.5156 0.0585938 26.0156 0.9375 22.8516 3.32031L3.59375 17.9297C0.957031 19.9414 0 21.7383 0 25.1172L0 37.9883C0 43.0859 2.46094 45.4883 7.61719 45.4883ZM7.1875 22.4805C5.74219 22.4805 5.42969 20.9375 6.50391 20.1172L25.1758 5.83984C27.4219 4.0625 29.2578 3.51562 32.3633 3.51562L44.6875 3.51562C47.1094 3.51562 48.5156 4.90234 48.5156 7.40234L48.5156 18.6133C48.5156 21.0547 47.0703 22.4805 44.6875 22.4805Z" fill="black" fill-opacity="0.85"/>
  <path d="M62.9688 36.4648C63.6133 36.4648 64.0234 36.25 64.6484 35.6445L74.707 25.5273L84.707 35.625C85.332 36.2305 85.7617 36.4453 86.4062 36.4453C87.3438 36.4453 88.1445 35.6836 88.1445 34.7656C88.1445 34.1406 87.9297 33.7305 87.3828 33.1641L77.2656 22.9688L87.4219 12.7539C87.9492 12.1875 88.1641 11.7578 88.1641 11.1523C88.1641 10.2734 87.3633 9.49219 86.4453 9.49219C85.8008 9.49219 85.3711 9.70703 84.7461 10.3125L74.6875 20.4102L64.6875 10.332C64.0625 9.72656 63.6328 9.51172 62.9883 9.51172C62.0508 9.51172 61.25 10.2734 61.25 11.1914C61.25 11.8359 61.4648 12.2656 61.9922 12.8125L72.1289 22.9688L61.9922 33.1836C61.4453 33.75 61.25 34.1797 61.25 34.8047C61.25 35.7031 62.0312 36.4648 62.9688 36.4648Z" fill="black" fill-opacity="0.85"/>
 </g>
</svg>
