<?xml version="1.0" encoding="UTF-8"?>
<!--Generator: Apple Native CoreSVG 326-->
<!DOCTYPE svg
PUBLIC "-//W3C//DTD SVG 1.1//EN"
       "http://www.w3.org/Graphics/SVG/1.1/DTD/svg11.dtd">
<svg version="1.1" xmlns="http://www.w3.org/2000/svg" xmlns:xlink="http://www.w3.org/1999/xlink" viewBox="0 0 57.0312 63.5352">
 <g>
  <rect height="63.5352" opacity="0" width="57.0312" x="0" y="0"/>
  <path d="M12.3633 17.2852L0.527344 29.043C-0.175781 29.7266-0.175781 30.8789 0.527344 31.582C1.21094 32.2656 2.34375 32.2852 3.06641 31.582L12.3633 22.3242ZM44.2969 17.2852L44.2969 22.3242L53.6133 31.582C54.3164 32.2852 55.4492 32.2656 56.1523 31.582C56.8359 30.8789 56.8359 29.7266 56.1523 29.043ZM28.3398 63.4961C40.4492 63.4961 45.8789 60.7227 45.8789 54.2969L45.8789 11.1914C45.8789 4.10156 39.4531 0 28.3398 0C17.2266 0 10.8008 4.10156 10.8008 11.1914L10.8008 54.2969C10.8008 60.7227 16.2305 63.4961 28.3398 63.4961ZM28.3398 59.9414C18.75 59.9414 14.375 58.1641 14.375 54.1406L14.375 11.1914C14.375 6.36719 19.4922 3.57422 28.3398 3.57422C37.1875 3.57422 42.3047 6.36719 42.3047 11.1914L42.3047 54.1406C42.3047 58.1641 37.9297 59.9414 28.3398 59.9414ZM28.3398 26.4453C30.5469 26.4453 34.4922 26.6211 35.7422 26.6211C37.6367 26.6211 38.4766 25.8984 38.6328 23.9258L39.043 19.4141C39.3359 15.8398 37.0312 14.3164 28.3398 14.3164C19.6484 14.3164 17.3438 15.8398 17.6562 19.4141L18.0469 23.9258C18.2227 25.8984 19.0625 26.6211 20.9375 26.6211C22.207 26.6211 25.8984 26.4453 28.3398 26.4453ZM28.3398 53.2422C36.8164 53.2422 39.3555 52.0117 38.8867 48.3594L38.5938 46.0938C38.2227 43.1445 35.7422 42.1484 28.3398 42.1484C20.957 42.1484 18.4766 43.1445 18.1055 46.0938L17.8125 48.3594C17.3242 52.0117 19.8828 53.2422 28.3398 53.2422ZM12.3633 36.3867L0.527344 48.1445C-0.175781 48.8281-0.175781 49.9805 0.527344 50.6836C1.21094 51.3672 2.34375 51.3867 3.06641 50.6836L12.3633 41.4258ZM44.2969 36.3867L44.2969 41.4258L53.6133 50.6836C54.3164 51.3867 55.4492 51.3672 56.1523 50.6836C56.8359 49.9805 56.8359 48.8281 56.1523 48.1445Z" fill="black" fill-opacity="0.85"/>
 </g>
</svg>
