<?xml version="1.0" encoding="UTF-8"?>
<!--Generator: Apple Native CoreSVG 326-->
<!DOCTYPE svg
PUBLIC "-//W3C//DTD SVG 1.1//EN"
       "http://www.w3.org/Graphics/SVG/1.1/DTD/svg11.dtd">
<svg version="1.1" xmlns="http://www.w3.org/2000/svg" xmlns:xlink="http://www.w3.org/1999/xlink" viewBox="0 0 83.0078 67.8369">
 <g>
  <rect height="67.8369" opacity="0" width="83.0078" x="0" y="0"/>
  <path d="M29.4819 28.2417L23.1055 32.2485C22.1484 32.8345 21.3281 33.1275 19.8633 33.3032L10.4297 34.4556C5.87891 35.0025 3.22266 37.6587 3.22266 41.2329L3.22266 44.2017C3.22266 47.1509 4.47266 48.5181 7.14844 48.5181L8.87864 48.5181C8.99152 44.1366 12.4624 40.7251 16.8945 40.7251C21.3267 40.7251 24.7975 44.1366 24.9104 48.5181L49.7725 48.5181L52.9974 51.7407L24.3627 51.7407C23.2091 54.7263 20.3427 56.7798 16.8945 56.7798C13.4463 56.7798 10.58 54.7263 9.42632 51.7407L7.14844 51.7407C2.28516 51.7407 0 49.4165 0 44.2993L0 41.2329C0 35.9009 3.78906 32.0532 10.0195 31.2915L20.5469 29.9829L27.1055 25.8669ZM72.5391 28.2251L76.2891 29.4751C80.6445 30.9204 82.6367 33.479 82.6367 37.6978L82.6367 44.2017C82.6367 49.3775 80.3906 51.7407 75.4883 51.7407L73.2104 51.7407C72.521 53.5324 71.2118 54.9868 69.5295 55.8616L67.2061 53.5391C69.2691 52.925 70.7422 51.0343 70.7422 48.7525C70.7422 45.979 68.5352 43.772 65.7422 43.772C63.4571 43.772 61.5774 45.2493 60.9711 47.3062L58.6345 44.9705C59.9615 42.4266 62.6121 40.7251 65.7422 40.7251C70.1743 40.7251 73.6452 44.1366 73.7581 48.5181L75.4883 48.5181C78.1641 48.5181 79.4141 47.1509 79.4141 44.2017L79.4141 37.6978C79.4141 35.0806 78.1641 33.6548 75.332 32.7368L72.7148 31.897C71.4844 31.5064 70.9375 31.2915 69.9023 30.3735C63.8086 25.0415 58.8867 22.7564 52.5391 22.7564L49.1602 22.7564C43.9239 22.7564 40.5761 23.0431 37.63 23.9734L35.0773 21.4215C38.7552 19.9868 42.7092 19.5337 49.1602 19.5337L52.5391 19.5337C61.3086 19.5337 67.5 23.9282 72.5391 28.2251ZM11.9141 48.7525C11.9141 51.5454 14.1016 53.7525 16.8945 53.7525C19.6875 53.7525 21.8945 51.5454 21.8945 48.7525C21.8945 45.979 19.6875 43.772 16.8945 43.772C14.1016 43.772 11.9141 45.979 11.9141 48.7525Z" fill="black" fill-opacity="0.85"/>
  <path d="M66.2109 9.70948L66.2109 12.2681C66.2109 14.2407 65.1953 15.4907 63.2617 15.4907L37.0703 15.4907C35.3711 15.4907 34.6289 14.7095 34.6289 13.2642C34.6289 12.2876 35.0781 11.3306 36.6016 10.6665L42.4023 8.04933C47.9492 5.62745 51.4062 4.57276 55.7227 4.57276L60.3906 4.57276C64.4531 4.57276 66.2109 6.33058 66.2109 9.70948Z" fill="black" fill-opacity="0.85"/>
  <path d="M69.7461 64.6314C70.3906 65.2759 71.4648 65.2759 72.0898 64.6314C72.7539 63.9478 72.7539 62.9321 72.0898 62.2681L16.4062 6.60401C15.7422 5.93995 14.707 5.93995 14.0234 6.60401C13.3984 7.22901 13.3789 8.30323 14.0234 8.94776Z" fill="black" fill-opacity="0.85"/>
 </g>
</svg>
