<?xml version="1.0" encoding="UTF-8"?>
<!--Generator: Apple Native CoreSVG 326-->
<!DOCTYPE svg
PUBLIC "-//W3C//DTD SVG 1.1//EN"
       "http://www.w3.org/Graphics/SVG/1.1/DTD/svg11.dtd">
<svg version="1.1" xmlns="http://www.w3.org/2000/svg" xmlns:xlink="http://www.w3.org/1999/xlink" viewBox="0 0 52.9492 48.1445">
 <g>
  <rect height="48.1445" opacity="0" width="52.9492" x="0" y="0"/>
  <path d="M31.8555 3.24219L51.6016 37.7734C52.2461 38.8867 52.5781 40.0977 52.5781 41.2695C52.5781 44.8828 50.1172 47.7344 46.0352 47.7344L6.52344 47.7344C2.46094 47.7344 0 44.8828 0 41.2695C0 40.0977 0.3125 38.9062 0.976562 37.7734L20.7227 3.24219C21.9531 1.07422 24.1016 0 26.2891 0C28.457 0 30.625 1.07422 31.8555 3.24219ZM20.0195 20.0977C18.4375 20.2734 17.1875 21.0742 16.543 22.9297L15.3125 26.4648L14.1992 27.7344C13.0469 28.9844 12.7539 30.0977 12.7539 32.0898L12.7539 39.5117C12.7539 40.332 13.3984 40.9766 14.2773 40.9766L15.5859 40.9766C16.4258 40.9766 17.0898 40.332 17.0898 39.5117L17.0898 37.9297L35.332 37.9297L35.332 39.5117C35.332 40.332 35.9961 40.9766 36.8359 40.9766L38.1641 40.9766C39.0234 40.9766 39.668 40.332 39.668 39.5117L39.668 32.0898C39.668 30.0977 39.3555 28.9844 38.2227 27.7344L37.1094 26.4648L35.8789 22.9297C35.2148 21.0742 33.9648 20.2734 32.4023 20.0977C31.6406 19.9805 29.082 19.9414 26.2109 19.9414C23.3203 19.9414 20.7617 19.9805 20.0195 20.0977ZM17.9102 30.5859L17.9102 32.4023C17.9102 33.1055 17.4219 33.5742 16.7773 33.5742C16.0938 33.5742 15.5859 33.1055 15.5859 32.4023L15.5859 30.5859C15.5859 29.9219 16.0938 29.4531 16.7773 29.4531C17.4219 29.4531 17.9102 29.9023 17.9102 30.5859ZM36.8945 30.5859L36.8945 32.4023C36.8945 33.1055 36.3867 33.5742 35.7227 33.5742C35.0781 33.5742 34.6094 33.1055 34.6094 32.4023L34.6094 30.5859C34.6094 29.9414 35.0781 29.4531 35.7227 29.4531C36.3867 29.4531 36.8945 29.9023 36.8945 30.5859ZM29.668 30.8594L29.668 32.1289C29.668 32.7148 29.3359 33.0664 28.7891 33.0664L23.5547 33.0664C23.0078 33.0664 22.6953 32.7148 22.6953 32.1289L22.6953 30.8594C22.6953 30.3125 23.0078 29.9609 23.5547 29.9609L28.7891 29.9609C29.3359 29.9609 29.668 30.3125 29.668 30.8594ZM32.3828 22.0117C33.1641 22.1094 33.6328 22.4805 33.9453 23.3398L34.668 25.4492C34.8242 25.957 34.6484 26.3477 34.1211 26.3477L18.2812 26.3477C17.7539 26.3477 17.5977 25.957 17.7539 25.4492L18.457 23.3398C18.75 22.4609 19.2383 22.1094 20.0195 22.0117C20.8398 21.9336 22.9297 21.8359 26.2109 21.8359C29.4922 21.8359 31.5625 21.9336 32.3828 22.0117Z" fill="black" fill-opacity="0.85"/>
 </g>
</svg>
