<?xml version="1.0" encoding="UTF-8"?>
<!--Generator: Apple Native CoreSVG 326-->
<!DOCTYPE svg
PUBLIC "-//W3C//DTD SVG 1.1//EN"
       "http://www.w3.org/Graphics/SVG/1.1/DTD/svg11.dtd">
<svg version="1.1" xmlns="http://www.w3.org/2000/svg" xmlns:xlink="http://www.w3.org/1999/xlink" viewBox="0 0 83.0078 58.6914">
 <g>
  <rect height="58.6914" opacity="0" width="83.0078" x="0" y="0"/>
  <path d="M7.14844 47.168L8.67188 47.168C8.53516 46.4648 8.4375 45.7617 8.4375 45.0195C8.4375 39.6875 12.6367 35.4883 17.9883 35.4883C23.3398 35.4883 27.5391 39.6875 27.5391 45.0195C27.5391 45.7617 27.4609 46.4648 27.3047 47.168L55.332 47.168C55.1953 46.4648 55.0977 45.7617 55.0977 45.0195C55.0977 39.6875 59.2969 35.4883 64.6484 35.4883C70 35.4883 74.1992 39.6875 74.1992 45.0195C74.1992 45.7617 74.1016 46.4648 73.9453 47.168L75.4883 47.168C80.3906 47.168 82.6367 44.8047 82.6367 39.6289L82.6367 33.125C82.6367 28.9062 80.6445 26.3477 76.2891 24.9023L72.5391 23.6523C67.5 19.4727 61.3086 14.9609 52.5391 14.9609L49.1602 14.9609C39.7852 14.9609 35.6836 15.918 30.0391 19.4531L20.5469 25.4102L10.0195 26.7188C3.78906 27.4805 0 31.3281 0 36.6602L0 39.7266C0 44.8438 2.28516 47.168 7.14844 47.168ZM17.9883 52.0312C21.9336 52.0312 25.0195 48.9453 25.0195 45.0195C25.0195 41.0938 21.9336 38.0078 17.9883 38.0078C14.0625 38.0078 10.9766 41.0938 10.9766 45.0195C10.9766 48.9453 14.0625 52.0312 17.9883 52.0312ZM64.6484 52.0312C68.5938 52.0312 71.6602 48.9453 71.6602 45.0195C71.6602 41.0938 68.5938 38.0078 64.6484 38.0078C60.7031 38.0078 57.6367 41.0938 57.6367 45.0195C57.6367 48.9453 60.7031 52.0312 64.6484 52.0312Z" fill="black" fill-opacity="0.85"/>
  <path d="M37.0703 10.918L63.2617 10.918C65.1953 10.918 66.2109 9.66797 66.2109 7.69531L66.2109 5.13672C66.2109 1.75781 64.4531 0 60.3906 0L55.7227 0C51.4062 0 47.9492 1.05469 42.4023 3.47656L36.6016 6.09375C35.0781 6.75781 34.6289 7.71484 34.6289 8.69141C34.6289 10.1367 35.3711 10.918 37.0703 10.918Z" fill="black" fill-opacity="0.85"/>
 </g>
</svg>
