<?xml version="1.0" encoding="UTF-8"?>
<!--Generator: Apple Native CoreSVG 326-->
<!DOCTYPE svg
PUBLIC "-//W3C//DTD SVG 1.1//EN"
       "http://www.w3.org/Graphics/SVG/1.1/DTD/svg11.dtd">
<svg version="1.1" xmlns="http://www.w3.org/2000/svg" xmlns:xlink="http://www.w3.org/1999/xlink" viewBox="0 0 85.0391 52.5586">
 <g>
  <rect height="52.5586" opacity="0" width="85.0391" x="0" y="0"/>
  <path d="M28.8672 7.10938L28.8088 7.23962C23.4551 7.28148 20.1683 7.42806 18.5547 7.65625C17.0312 7.85156 16.1914 8.47656 15.4883 9.6875C14.668 11.1328 13.457 14.6094 12.8125 17.5781C12.6367 18.4375 12.9688 18.8477 13.9258 18.7695C16.954 18.5751 20.3081 18.4003 25.29 18.3162L23.6133 20.4883C20.9961 23.8867 19.8242 26.875 19.8242 31.9141L19.8242 42.3744C17.0764 42.2764 14.4643 42.1518 12.2461 42.0117L12.2461 46.1719C12.2461 48.0078 10.8008 49.4336 8.94531 49.4336L6.03516 49.4336C4.17969 49.4336 2.73438 48.0078 2.73438 46.1719L2.73438 31.9141C2.73438 27.5977 3.67188 25.293 5.89844 22.4023L8.04688 19.6094C8.96484 15.0781 10.6445 10.293 11.5039 8.4375C12.8516 5.60547 15.4492 3.98438 18.6523 3.59375C20.3202 3.38287 25.7325 3.22845 31.8808 3.22319C30.6389 4.2435 29.6106 5.54355 28.8672 7.10938ZM8.65234 31.1328C8.65234 33.1641 10.1953 34.707 12.2266 34.707C14.2773 34.707 15.8008 33.1641 15.8008 31.1328C15.8008 29.082 14.2773 27.5586 12.2266 27.5586C10.1953 27.5586 8.65234 29.082 8.65234 31.1328Z" fill="black" fill-opacity="0.85"/>
  <path d="M33.0078 17.5781C33.6523 14.6094 34.8633 11.1328 35.6836 9.6875C36.3867 8.47656 37.2266 7.85156 38.75 7.65625C40.6641 7.38281 45.0195 7.22656 52.4219 7.22656C59.8242 7.22656 64.1797 7.34375 66.1133 7.65625C67.6367 7.87109 68.4375 8.47656 69.1602 9.6875C70.0195 11.1133 71.1523 14.6094 71.8359 17.5781C72.0508 18.4375 71.6992 18.8477 70.7422 18.7695C66.4844 18.4961 61.582 18.2617 52.4219 18.2617C43.2812 18.2617 38.3789 18.4961 34.1211 18.7695C33.1445 18.8477 32.8125 18.4375 33.0078 17.5781ZM34.2578 35.7617C32.0508 35.7617 30.3906 34.1211 30.3906 31.9141C30.3906 29.7266 32.0508 28.0664 34.2578 28.0664C36.4453 28.0664 38.1055 29.7266 38.1055 31.9141C38.1055 34.1211 36.4453 35.7617 34.2578 35.7617ZM45.8789 34.9219C44.2383 34.9219 43.125 33.7891 43.125 32.168C43.125 30.5273 44.2383 29.3945 45.8789 29.3945L58.9648 29.3945C60.6055 29.3945 61.7383 30.5273 61.7383 32.168C61.7383 33.7891 60.6055 34.9219 58.9648 34.9219ZM70.6055 35.7617C68.3984 35.7617 66.7578 34.1211 66.7578 31.9141C66.7578 29.7266 68.3984 28.0664 70.6055 28.0664C72.793 28.0664 74.4531 29.7266 74.4531 31.9141C74.4531 34.1211 72.793 35.7617 70.6055 35.7617ZM52.4219 42.6172C60.7812 42.6172 72.0117 42.1875 76.7969 41.6406C80.0586 41.2695 81.9141 39.5117 81.9141 36.3477L81.9141 31.9141C81.9141 27.5977 80.9961 25.293 78.7695 22.4023L76.6211 19.6094C75.7031 15.0781 74.0234 10.293 73.1641 8.4375C71.8164 5.60547 69.2188 4.02344 66.0156 3.59375C64.3164 3.35938 58.7305 3.22266 52.4219 3.22266C46.1328 3.22266 40.5469 3.37891 38.8477 3.59375C35.6445 3.98438 33.0273 5.60547 31.6992 8.4375C30.8203 10.293 29.1602 15.0781 28.2422 19.6094L26.0742 22.4023C23.8477 25.293 22.9297 27.5977 22.9297 31.9141L22.9297 36.3477C22.9297 39.5117 24.8047 41.2695 28.0664 41.6406C32.832 42.1875 44.0625 42.6172 52.4219 42.6172ZM26.2109 49.4336L29.1406 49.4336C30.9961 49.4336 32.4219 48.0078 32.4219 46.1719L32.4219 40L22.9297 35.4492L22.9297 46.1719C22.9297 48.0078 24.3555 49.4336 26.2109 49.4336ZM75.7031 49.4336L78.6328 49.4336C80.4883 49.4336 81.9141 48.0078 81.9141 46.1719L81.9141 35.4492L72.4219 40L72.4219 46.1719C72.4219 48.0078 73.8477 49.4336 75.7031 49.4336Z" fill="black" fill-opacity="0.85"/>
 </g>
</svg>
