<?xml version="1.0" encoding="UTF-8"?>
<!--Generator: Apple Native CoreSVG 326-->
<!DOCTYPE svg
PUBLIC "-//W3C//DTD SVG 1.1//EN"
       "http://www.w3.org/Graphics/SVG/1.1/DTD/svg11.dtd">
<svg version="1.1" xmlns="http://www.w3.org/2000/svg" xmlns:xlink="http://www.w3.org/1999/xlink" viewBox="0 0 69.4727 63.5352">
 <g>
  <rect height="63.5352" opacity="0" width="69.4727" x="0" y="0"/>
  <path d="M34.5508 63.4961C46.6602 63.4961 52.0898 60.7227 52.0898 54.2969L52.0898 11.1914C52.0898 4.10156 45.6641 0 34.5508 0C23.4375 0 17.0117 4.10156 17.0117 11.1914L17.0117 54.2969C17.0117 60.7227 22.4414 63.4961 34.5508 63.4961ZM34.5508 26.25C32.0508 26.25 28.2812 26.4453 26.9727 26.4453C25.0586 26.4453 24.1797 25.7031 24.0039 23.6914L23.6133 19.0625C23.2812 15.3906 25.6641 13.8281 34.5508 13.8281C43.4375 13.8281 45.8398 15.3906 45.5078 19.0625L45.0977 23.6914C44.9219 25.7031 44.0625 26.4453 42.1289 26.4453C40.8398 26.4453 36.8164 26.25 34.5508 26.25ZM34.5508 53.75C25.8789 53.75 23.2617 52.4609 23.75 48.7109L24.043 46.4062C24.4531 43.3789 26.9727 42.3438 34.5508 42.3438C42.1289 42.3438 44.668 43.3789 45.0586 46.4062L45.3516 48.7109C45.8398 52.4609 43.2422 53.75 34.5508 53.75ZM18.5352 24.375L18.5352 18.8867L15.0977 18.8867C13.8281 18.8867 12.8711 19.7852 12.8711 20.9961L12.8711 22.2656C12.8711 23.457 13.8281 24.375 15.0977 24.375ZM50.5859 24.375L54.0039 24.375C55.2734 24.375 56.2305 23.457 56.2305 22.2656L56.2305 20.9961C56.2305 19.7852 55.2734 18.8867 54.0039 18.8867L50.5859 18.8867Z" fill="black" fill-opacity="0.85"/>
  <path d="M69.4727 49.3359L69.4727 38.0859C69.4727 36.8555 68.457 36.3086 67.4023 36.9531L58.418 42.4609C57.4023 43.0859 57.3828 44.3359 58.418 44.9805L67.4023 50.4297C68.457 51.0742 69.4727 50.5859 69.4727 49.3359Z" fill="black" fill-opacity="0.85"/>
 </g>
</svg>
