<?xml version="1.0" encoding="UTF-8"?>
<!--Generator: Apple Native CoreSVG 326-->
<!DOCTYPE svg
PUBLIC "-//W3C//DTD SVG 1.1//EN"
       "http://www.w3.org/Graphics/SVG/1.1/DTD/svg11.dtd">
<svg version="1.1" xmlns="http://www.w3.org/2000/svg" xmlns:xlink="http://www.w3.org/1999/xlink" viewBox="0 0 83.0078 58.6914">
 <g>
  <rect height="58.6914" opacity="0" width="83.0078" x="0" y="0"/>
  <path d="M7.14844 47.168L10.4883 47.168L10.4883 43.9453L7.14844 43.9453C4.47266 43.9453 3.22266 42.5781 3.22266 39.6289L3.22266 36.6602C3.22266 33.0859 5.87891 30.4297 10.4297 29.8828L19.8633 28.7305C21.3281 28.5547 22.1484 28.2617 23.1055 27.6758L31.7773 22.2266C36.9336 18.9844 40.4102 18.1836 49.1602 18.1836L52.5391 18.1836C58.8867 18.1836 63.8086 20.4688 69.9023 25.8008C70.9375 26.7188 71.4844 26.9336 72.7148 27.3242L75.332 28.1641C78.1641 29.082 79.4141 30.5078 79.4141 33.125L79.4141 39.6289C79.4141 42.5781 78.1641 43.9453 75.4883 43.9453L72.0898 43.9453L72.0898 47.168L75.4883 47.168C80.3906 47.168 82.6367 44.8047 82.6367 39.6289L82.6367 33.125C82.6367 28.9062 80.6445 26.3477 76.2891 24.9023L72.5391 23.6523C67.5 19.3555 61.3086 14.9609 52.5391 14.9609L49.1602 14.9609C39.7852 14.9609 35.6836 15.918 30.0391 19.4531L20.5469 25.4102L10.0195 26.7188C3.78906 27.4805 0 31.3281 0 36.6602L0 39.7266C0 44.8438 2.28516 47.168 7.14844 47.168ZM22.8711 47.168L60.0195 47.168L60.0195 43.9453L22.8711 43.9453ZM16.8945 52.207C21.4062 52.207 24.9219 48.6914 24.9219 44.1797C24.9219 39.6875 21.4062 36.1523 16.8945 36.1523C12.3828 36.1523 8.86719 39.6875 8.86719 44.1797C8.86719 48.6914 12.3828 52.207 16.8945 52.207ZM16.8945 49.1797C14.1016 49.1797 11.9141 46.9727 11.9141 44.1797C11.9141 41.4062 14.1016 39.1992 16.8945 39.1992C19.6875 39.1992 21.8945 41.4062 21.8945 44.1797C21.8945 46.9727 19.6875 49.1797 16.8945 49.1797ZM65.7422 52.207C70.2539 52.207 73.7695 48.6914 73.7695 44.1797C73.7695 39.6875 70.2539 36.1523 65.7422 36.1523C61.2305 36.1523 57.7148 39.6875 57.7148 44.1797C57.7148 48.6914 61.2305 52.207 65.7422 52.207ZM65.7422 49.1797C62.9492 49.1797 60.7617 46.9727 60.7617 44.1797C60.7617 41.4062 62.9492 39.1992 65.7422 39.1992C68.5352 39.1992 70.7422 41.4062 70.7422 44.1797C70.7422 46.9727 68.5352 49.1797 65.7422 49.1797Z" fill="black" fill-opacity="0.85"/>
  <path d="M37.0703 10.918L63.2617 10.918C65.1953 10.918 66.2109 9.66797 66.2109 7.69531L66.2109 5.13672C66.2109 1.75781 64.4531 0 60.3906 0L55.7227 0C51.4062 0 47.9492 1.05469 42.4023 3.47656L36.6016 6.09375C35.0781 6.75781 34.6289 7.71484 34.6289 8.69141C34.6289 10.1367 35.3711 10.918 37.0703 10.918Z" fill="black" fill-opacity="0.85"/>
 </g>
</svg>
