<?xml version="1.0" encoding="UTF-8"?>
<!--Generator: Apple Native CoreSVG 326-->
<!DOCTYPE svg
PUBLIC "-//W3C//DTD SVG 1.1//EN"
       "http://www.w3.org/Graphics/SVG/1.1/DTD/svg11.dtd">
<svg version="1.1" xmlns="http://www.w3.org/2000/svg" xmlns:xlink="http://www.w3.org/1999/xlink" viewBox="0 0 50.3516 72.4805">
 <g>
  <rect height="72.4805" opacity="0" width="50.3516" x="0" y="0"/>
  <path d="M16.875 49.1602C26.2109 49.1602 30.5859 46.9727 30.5859 41.582L30.5859 8.86719C30.5859 3.28125 25.4297 0 16.875 0C8.26172 0 3.125 3.28125 3.125 8.86719L3.125 41.582C3.125 46.9727 7.51953 49.1602 16.875 49.1602ZM16.875 45.8008C9.60938 45.8008 6.50391 44.5508 6.50391 41.4844L6.50391 8.86719C6.50391 5.39062 10.1367 3.39844 16.875 3.39844C23.5742 3.39844 27.1875 5.39062 27.1875 8.86719L27.1875 41.4844C27.1875 44.5508 24.1016 45.8008 16.875 45.8008ZM16.8555 20.6836C18.75 20.6836 21.5625 20.8594 22.5195 20.8594C24.043 20.8594 24.7461 20.2344 24.8828 18.6133L25.1953 15.1953C25.4297 12.3047 23.6719 11.1328 16.8555 11.1328C10.0195 11.1328 8.26172 12.3047 8.51562 15.1953L8.80859 18.6133C8.94531 20.2344 9.64844 20.8594 11.1719 20.8594C12.1289 20.8594 15.1367 20.6836 16.8555 20.6836ZM16.8555 41.2305C23.4375 41.2305 25.4883 40.2734 25.0781 37.3047L24.8438 35.5859C24.4922 33.2031 22.6172 32.4219 16.8555 32.4219C11.0742 32.4219 9.19922 33.2031 8.84766 35.5859L8.61328 37.3047C8.20312 40.2734 10.2539 41.2305 16.8555 41.2305ZM28.7109 19.2578L31.6406 19.2578C32.8125 19.2578 33.6914 18.418 33.6914 17.3438L33.6914 16.3477C33.6914 15.2539 32.8125 14.4141 31.6406 14.4141L28.7109 14.4141ZM4.98047 19.2578L4.98047 14.4141L2.05078 14.4141C0.878906 14.4141 0 15.2539 0 16.3477L0 17.3438C0 18.418 0.878906 19.2578 2.05078 19.2578Z" fill="black" fill-opacity="0.85"/>
  <path d="M38.6523 70.625L31.7773 63.75C30.4883 62.4414 30.4688 60.957 31.7578 59.668L38.0469 53.3594C39.3555 52.0703 40.8008 52.0312 42.0898 53.3398L49.0039 60.2539C50.2734 61.5039 50.332 63.0469 49.043 64.3555L42.7344 70.6445C41.4453 71.9336 39.9414 71.9141 38.6523 70.625ZM32.4023 57.5781L27.8516 57.1875C27.4414 57.1484 27.0898 57.0312 26.8555 56.7969C26.3867 56.3281 26.4062 55.6836 26.9336 55.1562L33.5742 48.5352C34.082 48.0273 34.7266 47.9883 35.1953 48.457C35.4297 48.6914 35.5469 49.0625 35.5859 49.4531L35.9766 54.0039Z" fill="black" fill-opacity="0.85"/>
 </g>
</svg>
