<?xml version="1.0" encoding="UTF-8"?>
<!--Generator: Apple Native CoreSVG 326-->
<!DOCTYPE svg
PUBLIC "-//W3C//DTD SVG 1.1//EN"
       "http://www.w3.org/Graphics/SVG/1.1/DTD/svg11.dtd">
<svg version="1.1" xmlns="http://www.w3.org/2000/svg" xmlns:xlink="http://www.w3.org/1999/xlink" viewBox="0 0 88.5352 45.4883">
 <g>
  <rect height="45.4883" opacity="0" width="88.5352" x="0" y="0"/>
  <path d="M44.3555 45.4883C49.5312 45.4883 51.9727 43.0859 51.9727 37.9883L51.9727 25.1172C51.9727 21.7383 51.0156 19.9414 48.3789 17.9297L29.1406 3.32031C25.9766 0.9375 23.457 0.0585938 19.6094 0.0585938L7.22656 0.0585938C2.48047 0.0585938 0 2.51953 0 7.22656L0 37.9883C0 43.0859 2.44141 45.4883 7.61719 45.4883ZM44.8047 22.4805L7.30469 22.4805C4.92188 22.4805 3.45703 21.0547 3.45703 18.6133L3.45703 7.40234C3.45703 4.90234 4.86328 3.51562 7.30469 3.51562L19.6094 3.51562C22.7344 3.51562 24.5703 4.0625 26.7969 5.83984L45.4688 20.1172C46.5625 20.9375 46.2305 22.4805 44.8047 22.4805Z" fill="black" fill-opacity="0.85"/>
  <path d="M62.9688 36.4648C63.6133 36.4648 64.0234 36.25 64.6484 35.6445L74.707 25.5273L84.707 35.625C85.332 36.2305 85.7617 36.4453 86.4062 36.4453C87.3438 36.4453 88.1445 35.6836 88.1445 34.7656C88.1445 34.1406 87.9297 33.7305 87.3828 33.1641L77.2656 22.9688L87.4219 12.7539C87.9492 12.1875 88.1641 11.7578 88.1641 11.1523C88.1641 10.2734 87.3633 9.49219 86.4453 9.49219C85.8008 9.49219 85.3711 9.70703 84.7461 10.3125L74.6875 20.4102L64.6875 10.332C64.0625 9.72656 63.6328 9.51172 62.9883 9.51172C62.0508 9.51172 61.25 10.2734 61.25 11.1914C61.25 11.8359 61.4648 12.2656 61.9922 12.8125L72.1289 22.9688L61.9922 33.1836C61.4453 33.75 61.25 34.1797 61.25 34.8047C61.25 35.7031 62.0312 36.4648 62.9688 36.4648Z" fill="black" fill-opacity="0.85"/>
 </g>
</svg>
