<?xml version="1.0" encoding="UTF-8"?>
<!--Generator: Apple Native CoreSVG 326-->
<!DOCTYPE svg
PUBLIC "-//W3C//DTD SVG 1.1//EN"
       "http://www.w3.org/Graphics/SVG/1.1/DTD/svg11.dtd">
<svg version="1.1" xmlns="http://www.w3.org/2000/svg" xmlns:xlink="http://www.w3.org/1999/xlink" viewBox="0 0 59.3555 46.3086">
 <g>
  <rect height="46.3086" opacity="0" width="59.3555" x="0" y="0"/>
  <path d="M10.0781 14.4531C10.7227 11.4844 11.9336 8.00781 12.7539 6.5625C13.457 5.35156 14.2969 4.72656 15.8008 4.53125C17.7344 4.25781 22.0898 4.10156 29.4922 4.10156C36.8945 4.10156 41.25 4.21875 43.1836 4.53125C44.6875 4.74609 45.5078 5.35156 46.2305 6.5625C47.0703 7.98828 48.2031 11.4844 48.9062 14.4531C49.1211 15.3125 48.7695 15.7227 47.8125 15.6445C43.5547 15.3711 38.6328 15.1367 29.4922 15.1367C20.3516 15.1367 15.4297 15.3711 11.1719 15.6445C10.2148 15.7227 9.88281 15.3125 10.0781 14.4531ZM11.3281 32.6367C9.12109 32.6367 7.46094 30.9961 7.46094 28.7891C7.46094 26.6016 9.12109 24.9414 11.3281 24.9414C13.5156 24.9414 15.1758 26.6016 15.1758 28.7891C15.1758 30.9961 13.5156 32.6367 11.3281 32.6367ZM22.9492 31.7969C21.3086 31.7969 20.1953 30.6641 20.1953 29.043C20.1953 27.4023 21.3086 26.2695 22.9492 26.2695L36.0352 26.2695C37.6758 26.2695 38.8086 27.4023 38.8086 29.043C38.8086 30.6641 37.6758 31.7969 36.0352 31.7969ZM47.6758 32.6367C45.4688 32.6367 43.8086 30.9961 43.8086 28.7891C43.8086 26.6016 45.4688 24.9414 47.6758 24.9414C49.8633 24.9414 51.5234 26.6016 51.5234 28.7891C51.5234 30.9961 49.8633 32.6367 47.6758 32.6367ZM29.4922 39.4922C37.8516 39.4922 49.082 39.0625 53.8477 38.5156C57.1289 38.1445 58.9844 36.3867 58.9844 33.2227L58.9844 28.7891C58.9844 24.4727 58.0664 22.168 55.8398 19.2773L53.6914 16.4844C52.7734 11.9531 51.0938 7.16797 50.2148 5.3125C48.8867 2.48047 46.2891 0.898438 43.0859 0.46875C41.3867 0.234375 35.8008 0.0976562 29.4922 0.0976562C23.1836 0.0976562 17.5977 0.253906 15.8984 0.46875C12.6953 0.859375 10.0977 2.48047 8.76953 5.3125C7.89062 7.16797 6.23047 11.9531 5.29297 16.4844L3.14453 19.2773C0.917969 22.168 0 24.4727 0 28.7891L0 33.2227C0 36.3867 1.85547 38.1445 5.13672 38.5156C9.90234 39.0625 21.1328 39.4922 29.4922 39.4922ZM3.28125 46.3086L6.21094 46.3086C8.06641 46.3086 9.49219 44.8828 9.49219 43.0469L9.49219 36.875L0 32.3242L0 43.0469C0 44.8828 1.42578 46.3086 3.28125 46.3086ZM52.7734 46.3086L55.7031 46.3086C57.5586 46.3086 58.9844 44.8828 58.9844 43.0469L58.9844 32.3242L49.4922 36.875L49.4922 43.0469C49.4922 44.8828 50.918 46.3086 52.7734 46.3086Z" fill="black" fill-opacity="0.85"/>
 </g>
</svg>
