<?xml version="1.0" encoding="UTF-8"?>
<!--Generator: Apple Native CoreSVG 326-->
<!DOCTYPE svg
PUBLIC "-//W3C//DTD SVG 1.1//EN"
       "http://www.w3.org/Graphics/SVG/1.1/DTD/svg11.dtd">
<svg version="1.1" xmlns="http://www.w3.org/2000/svg" xmlns:xlink="http://www.w3.org/1999/xlink" viewBox="0 0 60.6836 47.3242">
 <g>
  <rect height="47.3242" opacity="0" width="60.6836" x="0" y="0"/>
  <path d="M12.4609 47.2852L45.4102 47.2852C53.7891 47.2852 60.3125 40.957 60.3125 32.8516C60.3125 24.6875 53.6328 18.5156 44.6094 18.5352C41.2695 11.8359 35.2344 7.69531 27.6172 7.69531C17.9102 7.69531 9.76562 15.332 8.88672 25.332C3.86719 26.7383 0.332031 30.8984 0.332031 36.2695C0.332031 42.3633 4.76562 47.2852 12.4609 47.2852ZM12.4219 43.8281C6.99219 43.8281 3.78906 40.7617 3.78906 36.3672C3.78906 32.5586 6.28906 29.7461 10.5273 28.6133C11.7969 28.3008 12.2461 27.7344 12.3438 26.4453C12.9297 17.793 19.6094 11.1523 27.6172 11.1523C34.0234 11.1523 38.8477 14.7461 41.6797 20.5859C42.2266 21.7188 42.8711 22.0898 44.2773 22.0898C52.0898 22.0898 56.8359 27.0117 56.8359 32.9492C56.8359 39.0234 51.9336 43.8281 45.625 43.8281ZM3.51562 22.832C5.42969 22.832 6.97266 21.2891 6.97266 19.3359C6.97266 17.4023 5.42969 15.8789 3.51562 15.8789C1.54297 15.8789 0 17.4023 0 19.3359C0 21.2891 1.54297 22.832 3.51562 22.832ZM40.4102 6.5625C42.207 6.5625 43.6914 5.07812 43.6914 3.28125C43.6914 1.48438 42.207 0 40.4102 0C38.6133 0 37.1289 1.48438 37.1289 3.28125C37.1289 5.07812 38.6133 6.5625 40.4102 6.5625ZM50.918 15.1953C53.6133 15.1953 55.8008 13.0273 55.8008 10.293C55.8008 7.55859 53.6133 5.39062 50.918 5.39062C48.1641 5.39062 45.9766 7.55859 45.9766 10.293C45.9766 13.0273 48.1641 15.1953 50.918 15.1953Z" fill="black" fill-opacity="0.85"/>
  <path d="M21.8945 38.8086C25.1758 38.8086 27.0703 36.4062 27.2461 33.7891C27.2852 32.9492 26.7969 32.4219 26.0938 32.4219C25.4102 32.4219 25.0586 32.8125 24.8828 33.5742C24.5508 35.1367 23.7305 36.5625 21.8945 36.5625C19.1797 36.5625 18.3203 33.6523 18.3203 30.6055C18.3203 27.6562 19.2188 24.7266 21.875 24.7266C23.7109 24.7266 24.4922 26.1719 24.8242 27.7344C25 28.5156 25.3516 28.8867 26.0352 28.8867C26.7383 28.8867 27.2266 28.3594 27.1875 27.5195C27.0117 24.8828 25.1172 22.5 21.8359 22.5C17.7148 22.5 15.8789 26.1914 15.8789 30.6055C15.8789 34.9219 17.5586 38.8086 21.8945 38.8086ZM34.1406 38.8086C37.7734 38.8086 40.0781 35.6445 40.0781 30.6445C40.0781 25.6445 37.7734 22.5 34.1016 22.5C30.4492 22.5 28.125 25.6445 28.125 30.6445C28.125 35.6445 30.4492 38.8086 34.1406 38.8086ZM34.1406 36.5625C31.9531 36.5625 30.5859 34.3555 30.5859 30.6445C30.5859 26.9531 31.9336 24.7266 34.1016 24.7266C36.2695 24.7266 37.6172 26.9531 37.6172 30.6445C37.6172 34.3555 36.2695 36.5625 34.1406 36.5625ZM41.7773 39.7656L45.8594 39.7656C46.3281 39.7656 46.7188 39.3555 46.7188 38.8867C46.7188 38.4375 46.3086 38.0273 45.8594 38.0273L43.7305 38.0273L44.6484 37.0312C45.6055 36.0352 46.3281 35.0781 46.3281 34.082C46.3281 32.6758 45.2148 31.6602 43.6523 31.6602C41.9531 31.6602 40.918 32.9297 40.918 34.0625C40.918 34.6289 41.3477 35 41.8164 35C42.3633 35 42.6172 34.5898 42.7344 34.2383C42.9102 33.6914 43.1836 33.3984 43.6523 33.3984C44.1211 33.3984 44.4141 33.7109 44.4141 34.1211C44.4141 34.7266 43.8672 35.3516 43.2617 36.0156L41.2891 38.1055C41.0938 38.3008 40.957 38.6523 40.957 38.9258C40.957 39.3945 41.3086 39.7656 41.7773 39.7656Z" fill="black" fill-opacity="0.85"/>
 </g>
</svg>
