<?xml version="1.0" encoding="UTF-8"?>
<!--Generator: Apple Native CoreSVG 326-->
<!DOCTYPE svg
PUBLIC "-//W3C//DTD SVG 1.1//EN"
       "http://www.w3.org/Graphics/SVG/1.1/DTD/svg11.dtd">
<svg version="1.1" xmlns="http://www.w3.org/2000/svg" xmlns:xlink="http://www.w3.org/1999/xlink" viewBox="0 0 56.2092 52.6367">
 <g>
  <rect height="52.6367" opacity="0" width="56.2092" x="0" y="0"/>
  <path d="M55.507 8.49609L46.0343 46.9336C45.1554 50.5859 42.6945 52.5977 39.1007 52.5977L9.90149 52.5977C4.90149 52.5977 2.49915 50.1562 0.389771 42.168C-1.12923 36.4755 1.77544 33.3264 9.40977 32.2473C8.77223 33.3003 8.18641 34.4589 8.15211 35.8815C4.11006 36.7086 2.96028 38.4189 3.71008 41.25C5.50696 48.0469 6.93274 49.1211 9.90149 49.1211L39.1007 49.1211C40.9366 49.1211 42.2062 48.0469 42.6749 46.0938L52.1866 7.63672C52.8312 4.98047 51.6984 3.45703 49.7843 3.45703C46.9327 3.45703 44.3156 6.01562 44.9796 10.8594C45.1945 12.3242 45.0577 12.7734 44.1984 13.4375C39.4523 16.7578 36.757 24.9023 37.089 34.4727C37.1085 35.8789 36.2296 36.7578 34.8429 36.6797C33.0048 36.4926 30.1496 36.0636 26.4969 35.7248C26.5613 34.5656 27.3369 33.5271 28.076 32.3633C30.0756 32.5616 32.012 32.815 33.8431 33.1231C33.387 23.4251 36.3129 15.1517 41.5679 11.1082C40.4764 4.40011 44.7678 0 49.8038 0C54.257 0 56.8156 3.20312 55.507 8.49609ZM25.3434 32.1256C24.7325 33.1215 24.1513 34.2084 24.0312 35.5221C22.3594 35.4024 20.5543 35.3113 18.6287 35.2754C18.8663 34.1324 19.7255 33.0796 20.4408 31.8637C22.0937 31.9111 23.7344 31.9991 25.3434 32.1256ZM17.61 31.8065C16.9744 32.8242 16.3203 33.9237 16.135 35.2596C13.9844 35.2675 12.159 35.3493 10.6342 35.5132C10.796 34.2983 11.7024 33.2016 12.4646 31.9301C13.7577 31.8393 15.1656 31.7969 16.6788 31.7969C16.9892 31.7969 17.2997 31.7981 17.61 31.8065Z" fill="black" fill-opacity="0.85"/>
  <path d="M13.5734 28.4961C13.5734 25.3125 10.6046 23.4375 10.6046 21.0547C10.6046 19.7852 10.9562 19.043 11.8156 17.8711C12.8898 16.4648 10.9171 15.0391 9.82336 16.4062C8.63196 17.9102 8.14368 19.2383 8.14368 20.8984C8.14368 24.2383 11.0734 26.0938 11.0734 28.4961C11.0734 30.8594 8.14368 32.7539 8.14368 36.0352C8.14368 37.7539 8.63196 39.082 9.80383 40.5469C10.8585 41.8945 12.8507 40.4688 11.7765 39.0625C10.9562 37.9492 10.6046 37.2266 10.6046 35.8984C10.6046 33.5547 13.5734 31.7383 13.5734 28.4961ZM21.5031 28.4961C21.5031 25.3125 18.5538 23.4375 18.5538 21.0547C18.5538 19.7852 18.8859 19.043 19.7452 17.8711C20.8195 16.4648 18.8468 15.0391 17.7531 16.4062C16.5616 17.9102 16.0734 19.2383 16.0734 20.8984C16.0734 24.2383 19.0031 26.0938 19.0031 28.4961C19.0031 30.8594 16.0734 32.7539 16.0734 36.0352C16.0734 37.7539 16.5616 39.082 17.7335 40.5469C18.7882 41.8945 20.7804 40.4688 19.7257 39.0625C18.8859 37.9492 18.5538 37.2266 18.5538 35.8984C18.5538 33.5547 21.5031 31.7383 21.5031 28.4961ZM29.4523 28.4961C29.4523 25.3125 26.4835 23.4375 26.4835 21.0547C26.4835 19.7852 26.8156 19.043 27.6945 17.8711C28.7491 16.4648 26.7765 15.0391 25.6827 16.4062C24.5109 17.9102 24.0031 19.2383 24.0031 20.8984C24.0031 24.2383 26.9327 26.0938 26.9327 28.4961C26.9327 30.8594 24.0031 32.7539 24.0031 36.0352C24.0031 37.7539 24.5109 39.082 25.6632 40.5469C26.7179 41.8945 28.7101 40.4688 27.6554 39.0625C26.8156 37.9492 26.4835 37.2266 26.4835 35.8984C26.4835 33.5547 29.4523 31.7383 29.4523 28.4961Z" fill="black" fill-opacity="0.85"/>
 </g>
</svg>
