<?xml version="1.0" encoding="UTF-8"?>
<!--Generator: Apple Native CoreSVG 326-->
<!DOCTYPE svg
PUBLIC "-//W3C//DTD SVG 1.1//EN"
       "http://www.w3.org/Graphics/SVG/1.1/DTD/svg11.dtd">
<svg version="1.1" xmlns="http://www.w3.org/2000/svg" xmlns:xlink="http://www.w3.org/1999/xlink" viewBox="0 0 55.8381 71.7383">
 <g>
  <rect height="71.7383" opacity="0" width="55.8381" x="0" y="0"/>
  <path d="M0.389771 42.168C2.49915 50.1562 4.90149 52.5781 9.90149 52.5781L38.7101 52.5781C42.3038 52.5781 44.7452 50.5859 45.6437 46.9336L55.0968 8.49609C56.5421 2.65625 53.5734 0 50.1359 0C45.5851 0 40.6827 4.70703 43.2609 12.6758L43.8859 10.0586C36.5226 13.9062 33.007 23.3984 34.3156 34.5898L35.1163 33.4961C29.882 32.4219 23.2023 31.7969 16.6788 31.7969C3.69055 31.7969-1.54382 34.9219 0.389771 42.168Z" fill="black" fill-opacity="0.85"/>
  <path d="M30.7999 69.9609C30.7999 71.2109 31.8351 71.7188 32.8898 71.0742L41.8546 65.6055C42.9093 64.9609 42.8702 63.7305 41.8546 63.1055L32.8702 57.5977C31.8156 56.9531 30.7999 57.4805 30.7999 58.7109Z" fill="black" fill-opacity="0.85"/>
  <path d="M17.5577 69.9609L17.5577 58.7109C17.5577 57.4805 16.5421 56.9531 15.4874 57.5977L6.50305 63.1055C5.48743 63.7305 5.44836 64.9609 6.50305 65.6055L15.4874 71.0742C16.5421 71.7188 17.5577 71.2109 17.5577 69.9609Z" fill="black" fill-opacity="0.85"/>
 </g>
</svg>
