<?xml version="1.0" encoding="UTF-8"?>
<!--Generator: Apple Native CoreSVG 326-->
<!DOCTYPE svg
PUBLIC "-//W3C//DTD SVG 1.1//EN"
       "http://www.w3.org/Graphics/SVG/1.1/DTD/svg11.dtd">
<svg version="1.1" xmlns="http://www.w3.org/2000/svg" xmlns:xlink="http://www.w3.org/1999/xlink" viewBox="0 0 55.8381 68.6523">
 <g>
  <rect height="68.6523" opacity="0" width="55.8381" x="0" y="0"/>
  <path d="M0.389771 42.1484C2.49915 50.1367 4.90149 52.5781 9.90149 52.5781L38.7101 52.5781C42.3038 52.5781 44.7452 50.5664 45.6437 46.9141L55.0968 8.47656C56.5421 2.63672 53.5734 0 50.1359 0C45.5851 0 40.6827 4.6875 43.2609 12.6562L43.8859 10.0391C36.5226 13.8867 33.007 23.3789 34.3156 34.5703L35.1163 33.4961C29.882 32.4023 23.2023 31.7773 16.6788 31.7773C3.69055 31.7773-1.54382 34.9023 0.389771 42.1484Z" fill="black" fill-opacity="0.85"/>
  <path d="M12.9679 56.4258C11.7179 56.4258 11.2296 57.4609 11.8741 58.5156L17.3234 67.4805C17.9874 68.5352 19.1984 68.4961 19.8234 67.4805L25.3312 58.4961C25.9952 57.4414 25.4484 56.4258 24.2179 56.4258Z" fill="black" fill-opacity="0.85"/>
  <path d="M12.9679 27.9492L24.2179 27.9492C25.4484 27.9492 25.9952 26.9336 25.3312 25.8789L19.8234 16.8945C19.1984 15.8789 17.9679 15.8398 17.3234 16.8945L11.8741 25.8594C11.2101 26.9141 11.7179 27.9492 12.9679 27.9492Z" fill="black" fill-opacity="0.85"/>
 </g>
</svg>
