<?xml version="1.0" encoding="UTF-8"?>
<!--Generator: Apple Native CoreSVG 326-->
<!DOCTYPE svg
PUBLIC "-//W3C//DTD SVG 1.1//EN"
       "http://www.w3.org/Graphics/SVG/1.1/DTD/svg11.dtd">
<svg version="1.1" xmlns="http://www.w3.org/2000/svg" xmlns:xlink="http://www.w3.org/1999/xlink" viewBox="0 0 55.8381 52.5977">
 <g>
  <rect height="52.5977" opacity="0" width="55.8381" x="0" y="0"/>
  <path d="M0.389771 42.1484C2.49915 50.1367 4.90149 52.5781 9.90149 52.5781L38.7101 52.5781C42.3038 52.5781 44.7452 50.5664 45.6437 46.9141L55.0968 8.47656C56.5421 2.63672 53.5734 0 50.1359 0C45.5851 0 40.6827 4.6875 43.2609 12.6562L43.8859 10.0391C36.5226 13.8867 33.007 23.3789 34.3156 34.5703L35.1163 33.4961C29.882 32.4023 23.2023 31.7773 16.6788 31.7773C3.69055 31.7773-1.54382 34.9023 0.389771 42.1484Z" fill="black" fill-opacity="0.85"/>
  <path d="M6.79602 22.9102L18.671 22.9102C19.4913 22.9102 20.0773 22.3242 20.0773 21.543C20.0773 20.7227 19.4913 20.1562 18.671 20.1562L9.82336 20.1758L9.82336 20.0977L15.6241 13.7695C17.5382 11.7383 18.8663 9.96094 18.8663 7.51953C18.8663 4.02344 16.1906 1.71875 12.0109 1.71875C8.76868 1.71875 5.93665 3.69141 5.27258 6.34766C5.19446 6.67969 5.13586 6.93359 5.13586 7.22656C5.13586 8.04688 5.68274 8.59375 6.52258 8.59375C7.2843 8.59375 7.67493 8.125 8.02649 7.5C8.51477 5.91797 9.88196 4.43359 12.1281 4.43359C14.3741 4.43359 15.8976 5.76172 15.8976 7.71484C15.8976 9.33594 14.6476 10.7227 13.2413 12.2461L5.85852 20.2539C5.48743 20.6641 5.29211 21.0352 5.29211 21.5234C5.29211 22.3633 5.85852 22.9102 6.79602 22.9102Z" fill="black" fill-opacity="0.85"/>
 </g>
</svg>
