<?xml version="1.0" encoding="UTF-8"?>
<!--Generator: Apple Native CoreSVG 326-->
<!DOCTYPE svg
PUBLIC "-//W3C//DTD SVG 1.1//EN"
       "http://www.w3.org/Graphics/SVG/1.1/DTD/svg11.dtd">
<svg version="1.1" xmlns="http://www.w3.org/2000/svg" xmlns:xlink="http://www.w3.org/1999/xlink" viewBox="0 0 56.2068 52.6367">
 <g>
  <rect height="52.6367" opacity="0" width="56.2068" x="0" y="0"/>
  <path d="M55.4471 42.168C57.3807 34.9219 52.1464 31.7969 39.1776 31.7969C32.7909 31.7969 26.3846 32.3242 20.9159 33.3008L21.9315 34.5703C22.7909 23.7891 19.5096 14.5508 13.5331 10.5469L13.9432 12.6367C15.994 5.07812 11.4628 0 6.03308 0C1.59949 0-0.978636 3.20312 0.349489 8.49609L9.80261 46.9336C10.7011 50.5859 13.1425 52.5977 16.7362 52.5977L45.9354 52.5977C50.9354 52.5977 53.3378 50.1562 55.4471 42.168ZM52.1464 41.25C50.33 48.0469 48.9042 49.1211 45.9354 49.1211L16.7362 49.1211C14.9003 49.1211 13.6503 48.0469 13.162 46.0938L3.6698 7.63672C3.00574 4.98047 4.15808 3.45703 6.05261 3.45703C8.90418 3.45703 11.5409 6.01562 10.8768 10.8594C10.6425 12.3242 10.7792 12.7734 11.6386 13.4375C16.4042 16.7578 19.08 24.9023 18.7675 34.4727C18.7479 35.8789 19.6073 36.7578 20.994 36.6797C24.2753 36.3477 30.7401 35.2539 39.1776 35.2539C50.0761 35.2539 53.2792 36.9727 52.1464 41.25Z" fill="black" fill-opacity="0.85"/>
  <path d="M43.6893 22.6367C48.1229 22.6367 51.1307 20.2344 51.1307 16.6992C51.1307 14.1211 49.1776 12.0508 46.5214 11.7383L46.5214 11.7383C48.7089 11.3672 50.4276 9.33594 50.4276 7.01172C50.4276 3.96484 47.6737 1.73828 43.8261 1.73828C40.3886 1.73828 37.6932 3.39844 37.1073 6.03516C37.0487 6.32812 37.0292 6.52344 37.0292 6.85547C37.0292 7.63672 37.5956 8.16406 38.3964 8.16406C39.119 8.16406 39.5487 7.83203 39.7831 7.10938C40.2128 5.35156 41.7557 4.29688 43.7675 4.29688C46.0136 4.29688 47.4784 5.46875 47.4784 7.32422C47.4784 9.21875 45.8768 10.625 43.7284 10.625L42.2245 10.625C41.5214 10.625 40.9745 11.1133 40.9745 11.8555C40.9745 12.5977 41.4823 13.125 42.2245 13.125L43.8846 13.125C46.4042 13.125 48.1815 14.5312 48.1815 16.582C48.1815 18.6719 46.3846 20.0586 43.7284 20.0586C41.5409 20.0586 39.9198 19.043 39.3729 17.2656C39.0995 16.5625 38.6503 16.25 37.9862 16.25C37.205 16.25 36.619 16.7969 36.619 17.5977C36.619 17.8906 36.6386 18.0273 36.6971 18.3008C37.244 20.8398 40.2323 22.6367 43.6893 22.6367Z" fill="black" fill-opacity="0.85"/>
 </g>
</svg>
