<?xml version="1.0" encoding="UTF-8"?>
<!--Generator: Apple Native CoreSVG 326-->
<!DOCTYPE svg
PUBLIC "-//W3C//DTD SVG 1.1//EN"
       "http://www.w3.org/Graphics/SVG/1.1/DTD/svg11.dtd">
<svg version="1.1" xmlns="http://www.w3.org/2000/svg" xmlns:xlink="http://www.w3.org/1999/xlink" viewBox="0 0 56.2068 68.6914">
 <g>
  <rect height="68.6914" opacity="0" width="56.2068" x="0" y="0"/>
  <path d="M55.4471 42.168C57.3807 34.9219 52.1464 31.7969 39.1776 31.7969C32.7909 31.7969 26.3846 32.3242 20.9159 33.3008L21.9315 34.5703C22.7909 23.7891 19.5096 14.5312 13.5331 10.5469L13.9432 12.6367C15.994 5.07812 11.4628 0 6.03308 0C1.59949 0-0.978636 3.18359 0.349489 8.49609L9.80261 46.9336C10.7011 50.5859 13.1425 52.5977 16.7362 52.5977L45.9354 52.5977C50.9354 52.5977 53.3378 50.1562 55.4471 42.168ZM52.1464 41.25C50.33 48.0469 48.9042 49.1211 45.9354 49.1211L16.7362 49.1211C14.9003 49.1211 13.6503 48.0469 13.162 46.0938L3.6698 7.61719C3.00574 4.98047 4.15808 3.45703 6.05261 3.45703C8.90418 3.45703 11.5409 6.01562 10.8768 10.8594C10.6425 12.3242 10.7792 12.7734 11.6386 13.4375C16.4042 16.7578 19.08 24.9023 18.7675 34.4727C18.7479 35.8789 19.6073 36.7383 20.994 36.6797C24.2753 36.3281 30.7401 35.2539 39.1776 35.2539C50.0761 35.2539 53.2792 36.9727 52.1464 41.25Z" fill="black" fill-opacity="0.85"/>
  <path d="M42.6737 56.4453L31.4237 56.4453C30.1932 56.4453 29.6464 57.4609 30.2909 58.5156L35.7987 67.5C36.4237 68.5156 37.6542 68.5547 38.2987 67.5L43.7675 58.5352C44.3925 57.4805 43.9237 56.4453 42.6737 56.4453Z" fill="black" fill-opacity="0.85"/>
  <path d="M42.6737 27.9688C43.9237 27.9688 44.412 26.9336 43.7675 25.8789L38.2987 16.9141C37.6737 15.8594 36.4237 15.8984 35.7987 16.9141L30.2909 25.8984C29.6464 26.9531 30.1932 27.9688 31.4237 27.9688Z" fill="black" fill-opacity="0.85"/>
 </g>
</svg>
