<?xml version="1.0" encoding="UTF-8"?>
<!--Generator: Apple Native CoreSVG 326-->
<!DOCTYPE svg
PUBLIC "-//W3C//DTD SVG 1.1//EN"
       "http://www.w3.org/Graphics/SVG/1.1/DTD/svg11.dtd">
<svg version="1.1" xmlns="http://www.w3.org/2000/svg" xmlns:xlink="http://www.w3.org/1999/xlink" viewBox="0 0 55.8381 52.5977">
 <g>
  <rect height="52.5977" opacity="0" width="55.8381" x="0" y="0"/>
  <path d="M13.1827 28.4766C13.1827 31.7188 10.214 33.5352 10.214 35.8789C10.214 37.207 10.5656 37.9297 11.3859 39.043C12.4406 40.4492 10.4679 41.875 9.39368 40.5273C8.24133 39.0625 7.75305 37.7344 7.75305 36.0156C7.75305 32.7344 10.6827 30.8398 10.6827 28.4766C10.6827 26.0742 7.75305 24.2188 7.75305 20.8789C7.75305 19.2188 8.24133 17.8906 9.43274 16.3867C10.507 15.0195 12.4796 16.4453 11.4249 17.8516C10.5656 19.0234 10.214 19.7656 10.214 21.0352C10.214 23.418 13.1827 25.293 13.1827 28.4766ZM21.1124 28.4766C21.1124 31.7188 18.1437 33.5352 18.1437 35.8789C18.1437 37.207 18.4952 37.9297 19.3156 39.043C20.3898 40.4492 18.3976 41.875 17.3429 40.5273C16.171 39.0625 15.6827 37.7344 15.6827 36.0156C15.6827 32.7344 18.6124 30.8398 18.6124 28.4766C18.6124 26.0742 15.6827 24.2188 15.6827 20.8789C15.6827 19.2188 16.171 17.8906 17.3624 16.3867C18.4366 15.0195 20.4093 16.4453 19.3546 17.8516C18.4952 19.0234 18.1437 19.7656 18.1437 21.0352C18.1437 23.418 21.1124 25.293 21.1124 28.4766ZM29.0421 28.4766C29.0421 31.7188 26.0734 33.5352 26.0734 35.8789C26.0734 37.207 26.4249 37.9297 27.2452 39.043C28.3195 40.4492 26.3273 41.875 25.2726 40.5273C24.1007 39.0625 23.6124 37.7344 23.6124 36.0156C23.6124 32.7344 26.5421 30.8398 26.5421 28.4766C26.5421 26.0742 23.6124 24.2188 23.6124 20.8789C23.6124 19.2188 24.1007 17.8906 25.2921 16.3867C26.3859 15.0195 28.3585 16.4453 27.2843 17.8516C26.4249 19.0234 26.0734 19.7656 26.0734 21.0352C26.0734 23.418 29.0421 25.293 29.0421 28.4766ZM0.389771 42.1484C2.49915 50.1367 4.90149 52.5781 9.90149 52.5781L38.7101 52.5781C42.3038 52.5781 44.7452 50.5664 45.6437 46.9141L55.0968 8.47656C56.5421 2.63672 53.5734 0 50.1359 0C45.5851 0 40.6827 4.6875 43.2609 12.6562L43.8859 10.0391C36.5226 13.8867 33.007 23.3789 34.3156 34.5703L35.1163 33.4961C29.882 32.4023 23.2023 31.7773 16.6788 31.7773C3.69055 31.7773-1.54382 34.9023 0.389771 42.1484Z" fill="black" fill-opacity="0.85"/>
 </g>
</svg>
