<?xml version="1.0" encoding="UTF-8"?>
<!--Generator: Apple Native CoreSVG 326-->
<!DOCTYPE svg
PUBLIC "-//W3C//DTD SVG 1.1//EN"
       "http://www.w3.org/Graphics/SVG/1.1/DTD/svg11.dtd">
<svg version="1.1" xmlns="http://www.w3.org/2000/svg" xmlns:xlink="http://www.w3.org/1999/xlink" viewBox="0 0 55.8381 52.5977">
 <g>
  <rect height="52.5977" opacity="0" width="55.8381" x="0" y="0"/>
  <path d="M0.389771 42.1484C2.49915 50.1367 4.90149 52.5781 9.90149 52.5781L38.7101 52.5781C42.3038 52.5781 44.7452 50.5664 45.6437 46.9141L55.0968 8.47656C56.5421 2.63672 53.5734 0 50.1359 0C45.5851 0 40.6827 4.6875 43.2609 12.6562L43.8859 10.0391C36.5226 13.8867 33.007 23.3789 34.3156 34.5703L35.1163 33.4961C29.882 32.4023 23.2023 31.7773 16.6788 31.7773C3.69055 31.7773-1.54382 34.9023 0.389771 42.1484Z" fill="black" fill-opacity="0.85"/>
  <path d="M14.0421 23.3398C15.0577 23.3398 15.6632 22.6953 15.6632 21.5625L15.6632 3.51562C15.6632 2.34375 15.0187 1.71875 13.9445 1.71875C13.1632 1.71875 12.6749 1.91406 11.8156 2.51953L7.30383 5.52734C6.83508 5.85938 6.67883 6.17188 6.67883 6.66016C6.67883 7.30469 7.20618 7.87109 7.83118 7.87109C8.12415 7.87109 8.35852 7.8125 8.86633 7.44141L12.2648 5.23438L12.4796 5.23438L12.4796 21.5625C12.4796 22.6758 13.0851 23.3398 14.0421 23.3398Z" fill="black" fill-opacity="0.85"/>
 </g>
</svg>
