<?xml version="1.0" encoding="UTF-8"?>
<!--Generator: Apple Native CoreSVG 326-->
<!DOCTYPE svg
PUBLIC "-//W3C//DTD SVG 1.1//EN"
       "http://www.w3.org/Graphics/SVG/1.1/DTD/svg11.dtd">
<svg version="1.1" xmlns="http://www.w3.org/2000/svg" xmlns:xlink="http://www.w3.org/1999/xlink" viewBox="0 0 70.699 52.6367">
 <g>
  <rect height="52.6367" opacity="0" width="70.699" x="0" y="0"/>
  <path d="M69.9393 42.168C71.8729 34.9219 66.619 31.7969 53.6503 31.7969C47.2636 31.7969 40.8768 32.3242 35.4081 33.3008L36.4042 34.5703C37.2636 23.7891 34.0018 14.5508 28.0057 10.5469L28.4354 12.6367C30.4862 5.07812 25.9354 0 20.5057 0C16.0722 0 13.494 3.20312 14.8222 8.49609L24.2753 46.9336C25.1737 50.5859 27.6151 52.5977 31.2284 52.5977L60.4081 52.5977C65.4081 52.5977 67.8104 50.1562 69.9393 42.168ZM66.619 41.25C64.8222 48.0469 63.3768 49.1211 60.4081 49.1211L31.2284 49.1211C29.3729 49.1211 28.1229 48.0469 27.6347 46.0938L18.1425 7.63672C17.4979 4.98047 18.6307 3.45703 20.5448 3.45703C23.3768 3.45703 26.0136 6.01562 25.3495 10.8594C25.1151 12.3242 25.2518 12.7734 26.1112 13.4375C30.8768 16.7578 33.5526 24.9023 33.2401 34.4727C33.2206 35.8789 34.08 36.7578 35.4862 36.6797C38.7479 36.3477 45.2128 35.2539 53.6503 35.2539C64.5487 35.2539 67.7518 36.9727 66.619 41.25Z" fill="black" fill-opacity="0.85"/>
  <path d="M12.9081 24.9414L10.0761 14.043C9.76356 12.8516 8.63074 12.5977 7.77137 13.4961L0.486214 21.0938C-0.35363 21.9531-0.0801925 23.1641 1.11121 23.4961L11.1503 26.5234C12.3612 26.8945 13.2206 26.1328 12.9081 24.9414Z" fill="black" fill-opacity="0.85"/>
  <path d="M39.5487 16.1719C39.8612 17.4023 40.994 17.5977 41.8534 16.6992L49.1581 9.16016C49.9979 8.30078 49.6659 7.08984 48.5331 6.75781L38.4354 3.69141C37.244 3.32031 36.4042 4.12109 36.7167 5.29297Z" fill="black" fill-opacity="0.85"/>
 </g>
</svg>
