<?xml version="1.0" encoding="UTF-8"?>
<!--Generator: Apple Native CoreSVG 326-->
<!DOCTYPE svg
PUBLIC "-//W3C//DTD SVG 1.1//EN"
       "http://www.w3.org/Graphics/SVG/1.1/DTD/svg11.dtd">
<svg version="1.1" xmlns="http://www.w3.org/2000/svg" xmlns:xlink="http://www.w3.org/1999/xlink" viewBox="0 0 70.6819 52.5977">
 <g>
  <rect height="52.5977" opacity="0" width="70.6819" x="0" y="0"/>
  <path d="M0.389771 42.1484C2.49915 50.1367 4.90149 52.5781 9.90149 52.5781L38.7101 52.5781C42.3038 52.5781 44.7452 50.5664 45.6437 46.9141L55.0968 8.47656C56.5421 2.63672 53.5734 0 50.1359 0C45.5851 0 40.6827 4.6875 43.2609 12.6562L43.8859 10.0391C36.5226 13.8867 33.007 23.3789 34.3156 34.5703L35.1163 33.4961C29.882 32.4023 23.2023 31.7773 16.6788 31.7773C3.69055 31.7773-1.54382 34.9023 0.389771 42.1484Z" fill="black" fill-opacity="0.85"/>
  <path d="M57.4015 24.9219C57.089 26.1133 57.9484 26.875 59.1593 26.5039L69.1984 23.4766C70.3702 23.1445 70.6632 21.9336 69.8234 21.0742L62.5382 13.4766C61.6788 12.5781 60.546 12.832 60.2335 14.0234Z" fill="black" fill-opacity="0.85"/>
  <path d="M30.7609 16.1523L33.5929 5.27344C33.9054 4.10156 33.046 3.30078 31.8741 3.67188L21.7765 6.73828C20.6437 7.07031 20.2921 8.28125 21.1515 9.14062L28.4562 16.6797C29.3156 17.5781 30.4484 17.3828 30.7609 16.1523Z" fill="black" fill-opacity="0.85"/>
 </g>
</svg>
