<?xml version="1.0" encoding="UTF-8"?>
<!--Generator: Apple Native CoreSVG 326-->
<!DOCTYPE svg
PUBLIC "-//W3C//DTD SVG 1.1//EN"
       "http://www.w3.org/Graphics/SVG/1.1/DTD/svg11.dtd">
<svg version="1.1" xmlns="http://www.w3.org/2000/svg" xmlns:xlink="http://www.w3.org/1999/xlink" viewBox="0 0 55.8466 52.5977">
 <g>
  <rect height="52.5977" opacity="0" width="55.8466" x="0" y="0"/>
  <path d="M55.0815 42.1484C57.0346 34.9023 51.7807 31.7773 38.812 31.7773C32.269 31.7773 25.5893 32.4023 20.355 33.4961L21.1557 34.5703C22.4839 23.3789 18.9487 13.8867 11.5854 10.0391L12.2104 12.6562C14.7885 4.6875 9.8862 0 5.33542 0C1.89792 0-1.07083 2.63672 0.374482 8.47656L9.82761 46.9141C10.726 50.5664 13.187 52.5781 16.7807 52.5781L45.5698 52.5781C50.5698 52.5781 52.9721 50.1367 55.0815 42.1484Z" fill="black" fill-opacity="0.85"/>
  <path d="M37.5815 22.9102L49.4565 22.9102C50.2768 22.9102 50.8628 22.3242 50.8628 21.543C50.8628 20.7227 50.2768 20.1562 49.4565 20.1562L40.6089 20.1758L40.6089 20.0977L46.4096 13.7695C48.3237 11.7383 49.6518 9.96094 49.6518 7.51953C49.6518 4.02344 46.976 1.71875 42.7964 1.71875C39.5542 1.71875 36.7221 3.69141 36.0581 6.34766C35.98 6.67969 35.9409 6.93359 35.9409 7.22656C35.9409 8.04688 36.4682 8.59375 37.3081 8.59375C38.0698 8.59375 38.4604 8.125 38.812 7.5C39.3003 5.91797 40.6675 4.43359 42.9135 4.43359C45.1596 4.43359 46.6831 5.76172 46.6831 7.71484C46.6831 9.33594 45.4331 10.7227 44.0268 12.2461L36.644 20.2539C36.2729 20.6641 36.0776 21.0352 36.0776 21.5234C36.0776 22.3633 36.644 22.9102 37.5815 22.9102Z" fill="black" fill-opacity="0.85"/>
 </g>
</svg>
