<?xml version="1.0" encoding="UTF-8"?>
<!--Generator: Apple Native CoreSVG 326-->
<!DOCTYPE svg
PUBLIC "-//W3C//DTD SVG 1.1//EN"
       "http://www.w3.org/Graphics/SVG/1.1/DTD/svg11.dtd">
<svg version="1.1" xmlns="http://www.w3.org/2000/svg" xmlns:xlink="http://www.w3.org/1999/xlink" viewBox="0 0 55.8466 71.7383">
 <g>
  <rect height="71.7383" opacity="0" width="55.8466" x="0" y="0"/>
  <path d="M55.0815 42.168C57.0346 34.9219 51.7807 31.7969 38.812 31.7969C32.269 31.7969 25.5893 32.4219 20.355 33.4961L21.1557 34.5898C22.4839 23.3984 18.9487 13.9062 11.5854 10.0586L12.2104 12.6758C14.7885 4.70703 9.8862 0 5.33542 0C1.89792 0-1.07083 2.65625 0.374482 8.49609L9.82761 46.9336C10.726 50.5859 13.187 52.5781 16.7807 52.5781L45.5698 52.5781C50.5698 52.5781 52.9721 50.1562 55.0815 42.168Z" fill="black" fill-opacity="0.85"/>
  <path d="M37.894 69.9609C37.894 71.2109 38.9292 71.7188 39.9839 71.0742L48.9487 65.6055C50.0034 64.9609 49.9643 63.7305 48.9487 63.1055L39.9643 57.5977C38.9096 56.9531 37.894 57.4805 37.894 58.7109Z" fill="black" fill-opacity="0.85"/>
  <path d="M24.6518 69.9609L24.6518 58.7109C24.6518 57.4805 23.6362 56.9531 22.5815 57.5977L13.5971 63.1055C12.5815 63.7305 12.562 64.9609 13.5971 65.6055L22.5815 71.0742C23.6362 71.7188 24.6518 71.2109 24.6518 69.9609Z" fill="black" fill-opacity="0.85"/>
 </g>
</svg>
