<?xml version="1.0" encoding="UTF-8"?>
<!--Generator: Apple Native CoreSVG 326-->
<!DOCTYPE svg
PUBLIC "-//W3C//DTD SVG 1.1//EN"
       "http://www.w3.org/Graphics/SVG/1.1/DTD/svg11.dtd">
<svg version="1.1" xmlns="http://www.w3.org/2000/svg" xmlns:xlink="http://www.w3.org/1999/xlink" viewBox="0 0 67.3047 58.1445">
 <g>
  <rect height="58.1445" opacity="0" width="67.3047" x="0" y="0"/>
  <path d="M12.6562 58.1445L15.6445 58.1445C18.6328 58.1445 20.5859 56.4453 20.5859 53.7305C20.5859 51.2695 19.1406 50.0391 17.3242 49.6289L17.3242 45.625C17.3242 43.0469 17.6953 41.5234 18.3984 39.9609C21.1328 41.1523 25.2734 41.8555 28.8672 41.8555C32.2266 41.8555 35.8398 41.4648 38.8477 40.8008C39.1992 42.4219 39.6289 44.0234 39.6289 44.5312C39.6289 47.9688 39.2969 49.6484 39.2969 52.832C39.2969 56.2695 41.0938 58.1445 44.4336 58.1445L47.3438 58.1445C50.2344 58.1445 52.2852 56.3672 52.2852 53.7305C52.2852 51.2695 50.8398 50.0391 49.0234 49.6289L49.0234 47.5977C49.0234 35.2344 58.6523 38.8477 59.1016 21.3672C63.5938 20.8984 66.9336 17.7344 66.9336 15.1562C66.9336 12.1484 63.8086 8.51562 60.5273 6.5625C59.7656 3.24219 57.6172 0.996094 55.9961 0.996094C54.3945 0.996094 52.6172 3.06641 51.3672 5.99609C49.4922 7.67578 47.4805 10.3516 46.1133 12.6953L44.6484 15.1953C44.0625 16.1914 43.5742 16.6602 42.6953 16.6602C33.5547 16.6602 29.6875 15.2734 20.4297 15.2734C15.4492 15.2734 12.4609 17.1484 10.7227 19.5703C9.94141 20.6445 9.04297 20.5273 7.98828 20.0195C5.01953 18.7305 3.14453 15.8984 3.14453 12.3828C3.14453 7.14844 7.34375 3.47656 13.2422 3.47656C15.4688 3.47656 17.7344 3.94531 20.3516 5C22.6172 5.91797 23.6719 2.91016 21.6211 2.05078C18.6328 0.859375 15.8008 0.332031 13.2422 0.332031C5.39062 0.332031 0 5.25391 0 12.3828C0 17.3242 2.59766 21.25 6.64062 22.9883C7.87109 23.5547 8.28125 24.1406 8.22266 25.4492C8.08594 27.5781 8.08594 28.9062 8.08594 29.7461C8.08594 36.9336 4.51172 39.2383 5.52734 42.9492L8.69141 54.5898C9.375 57.0898 10.7227 58.1445 12.6562 58.1445ZM13.4766 55C12.5781 55 11.9336 54.4531 11.543 53.0273L8.57422 42.1289C8.04688 40.2148 11.2305 38.0273 11.2305 29.7461C11.2305 26.3281 11.3867 18.418 20.4297 18.418C28.8672 18.418 35.2148 19.8047 43.3203 19.8047C44.8438 19.8047 46.2695 18.8086 47.3633 16.875L48.9453 14.1406C50.4102 11.5625 52.0117 9.25781 53.3789 8.24219C54.7656 5.29297 55.3906 4.25781 55.9766 4.25781C56.3086 4.25781 57.2656 5.58594 57.8516 8.20312C60.9961 10.1172 63.7891 13.2031 63.7891 15.0586C63.7891 16.3281 61.25 18.4375 57.6758 18.4375L57.4023 18.4375C56.4648 18.4375 55.9766 18.9453 55.9766 19.9219L55.9766 20.2344C55.9766 36.6992 45.8789 31.6797 45.8789 47.5977L45.8789 50.957C45.8789 51.5039 46.2109 51.8359 46.7578 51.8359L47.2461 51.8359C48.5156 51.8359 49.1406 52.4414 49.1406 53.418C49.1406 54.4531 48.4766 55 47.168 55L44.7461 55C43.2422 55 42.4414 54.1797 42.4414 52.6172C42.4414 50.1758 42.7734 48.4766 42.7734 44.5312C42.7734 43.1641 41.5625 39.4336 41.5625 37.4609C41.5625 36.582 42.0508 35.3906 42.5977 34.0625C43.3789 32.207 40.4492 30.9961 39.6484 32.9688C38.9453 34.707 38.3984 36.2891 38.3984 37.6758C35.9961 38.2812 32.3047 38.7109 28.8672 38.7109C25.6055 38.7109 22.1094 38.1055 19.9414 37.2266C20.8203 35.8398 21.6602 34.3945 21.9922 33.4766C22.6367 31.6016 19.9219 30.332 18.9258 32.4219C17.9492 34.5703 16.9727 36.1328 16.0352 37.7539C14.7461 39.9609 14.1797 41.4062 14.1797 44.1602L14.1797 50.957C14.1797 51.5234 14.4922 51.8359 15.0586 51.8359L15.5078 51.8359C16.7969 51.8359 17.4414 52.4805 17.4414 53.418C17.4414 54.4727 16.7773 55 15.4688 55ZM58.0273 14.1797C58.8672 14.1797 59.5898 13.4961 59.5898 12.6172C59.5898 11.7773 58.8672 11.0547 58.0273 11.0547C57.168 11.0547 56.4453 11.7773 56.4453 12.6172C56.4453 13.4961 57.168 14.1797 58.0273 14.1797Z" fill="black" fill-opacity="0.85"/>
 </g>
</svg>
