<?xml version="1.0" encoding="UTF-8"?>
<!--Generator: Apple Native CoreSVG 326-->
<!DOCTYPE svg
PUBLIC "-//W3C//DTD SVG 1.1//EN"
       "http://www.w3.org/Graphics/SVG/1.1/DTD/svg11.dtd">
<svg version="1.1" xmlns="http://www.w3.org/2000/svg" xmlns:xlink="http://www.w3.org/1999/xlink" viewBox="0 0 56.2305 55.8789">
 <g>
  <rect height="55.8789" opacity="0" width="56.2305" x="0" y="0"/>
  <path d="M27.9297 55.8594C43.2812 55.8594 55.8594 43.3008 55.8594 27.9297C55.8594 12.5586 43.2812 0 27.9297 0C12.5781 0 0 12.5586 0 27.9297C0 43.3008 12.5781 55.8594 27.9297 55.8594ZM27.9297 46.6797C17.5586 46.6797 9.16016 38.3008 9.16016 27.9297C9.16016 17.5586 17.5586 9.16016 27.9297 9.16016C38.3008 9.16016 46.6992 17.5586 46.6992 27.9297C46.6992 38.3008 38.3008 46.6797 27.9297 46.6797Z" fill="black" fill-opacity="0.85"/>
  <path d="M28.125 38.8672C31.8359 38.8672 35.2344 37.207 36.4062 33.8672C36.543 33.4766 36.6211 33.125 36.6211 32.6953C36.6211 31.9727 36.1523 31.5234 35.4297 31.5234C34.7461 31.5234 34.3555 31.8945 34.1602 32.5586C33.457 35.0195 30.9961 36.543 28.125 36.543C23.3398 36.543 21.1523 32.4023 21.1523 27.7148C21.1523 23.0078 23.4375 18.9648 28.1055 18.9648C30.918 18.9648 33.3398 20.7031 34.0039 23.0273C34.2383 23.6914 34.5508 24.0625 35.2539 24.0625C35.9766 24.0625 36.4648 23.6133 36.4648 22.8516C36.4648 22.3438 36.3281 21.9141 36.1328 21.4648C34.8438 18.3789 31.6406 16.6406 28.1055 16.6406C21.9531 16.6406 18.418 21.3281 18.418 27.7148C18.418 34.0039 21.7578 38.8672 28.125 38.8672ZM27.9297 41.7969C28.3789 41.7969 28.6914 41.4844 28.6914 41.0352L28.6914 14.5703C28.6914 14.1211 28.3789 13.7891 27.9297 13.7891C27.4805 13.7891 27.1484 14.1211 27.1484 14.5703L27.1484 41.0352C27.1484 41.4648 27.4805 41.7969 27.9297 41.7969Z" fill="black" fill-opacity="0.85"/>
 </g>
</svg>
