<?xml version="1.0" encoding="UTF-8"?>
<!--Generator: Apple Native CoreSVG 326-->
<!DOCTYPE svg
PUBLIC "-//W3C//DTD SVG 1.1//EN"
       "http://www.w3.org/Graphics/SVG/1.1/DTD/svg11.dtd">
<svg version="1.1" xmlns="http://www.w3.org/2000/svg" xmlns:xlink="http://www.w3.org/1999/xlink" viewBox="0 0 60.961 50.918">
 <g>
  <rect height="50.918" opacity="0" width="60.961" x="0" y="0"/>
  <path d="M30.295 50.8789C44.3379 50.8789 55.7246 39.4922 55.7246 25.4492C55.7246 11.4062 44.3379 0 30.295 0C16.252 0 4.86526 11.4062 4.86526 25.4492L8.49808 25.4492C8.49808 13.3984 18.2442 3.65234 30.295 3.65234C42.3457 3.65234 52.0918 13.3984 52.0918 25.4492C52.0918 37.5 42.3457 47.2461 30.295 47.2461C22.834 47.2461 16.1739 43.457 12.3653 37.7539C11.7207 36.875 10.7051 36.6016 9.80667 37.1484C8.94729 37.6562 8.69339 38.8477 9.39651 39.8047C13.9473 46.5039 21.6426 50.8789 30.295 50.8789ZM1.60354 20.7227C0.00198146 20.7227-0.447237 21.8164 0.470731 23.0859L6.01761 30.9766C6.75979 32.0508 7.83401 32.0312 8.55667 30.9766L14.1035 23.0664C14.9825 21.8164 14.5528 20.7227 12.9707 20.7227Z" fill="black" fill-opacity="0.85"/>
  <path d="M30.5098 36.3867C34.2012 36.3867 37.6192 34.7266 38.7715 31.3867C38.9278 30.9961 39.0059 30.6445 39.0059 30.2148C39.0059 29.4922 38.5176 29.043 37.795 29.043C37.1114 29.043 36.7403 29.4141 36.5254 30.0781C35.8223 32.5391 33.3614 34.0625 30.5098 34.0625C25.7051 34.0625 23.5176 29.9219 23.5176 25.2344C23.5176 20.5273 25.8223 16.4844 30.4903 16.4844C33.3028 16.4844 35.7246 18.2227 36.3692 20.5469C36.6035 21.2109 36.916 21.582 37.6387 21.582C38.3418 21.582 38.8496 21.1328 38.8496 20.3711C38.8496 19.8633 38.6934 19.4336 38.5176 18.9844C37.209 15.8984 34.0059 14.1602 30.4903 14.1602C24.3184 14.1602 20.8028 18.8477 20.8028 25.2344C20.8028 31.5234 24.1426 36.3867 30.5098 36.3867ZM30.295 39.3164C30.7442 39.3164 31.0567 39.0039 31.0567 38.5547L31.0567 12.0898C31.0567 11.6406 30.7442 11.3086 30.295 11.3086C29.8457 11.3086 29.5137 11.6406 29.5137 12.0898L29.5137 38.5547C29.5137 38.9844 29.8457 39.3164 30.295 39.3164Z" fill="black" fill-opacity="0.85"/>
 </g>
</svg>
