<?xml version="1.0" encoding="UTF-8"?>
<!--Generator: Apple Native CoreSVG 326-->
<!DOCTYPE svg
PUBLIC "-//W3C//DTD SVG 1.1//EN"
       "http://www.w3.org/Graphics/SVG/1.1/DTD/svg11.dtd">
<svg version="1.1" xmlns="http://www.w3.org/2000/svg" xmlns:xlink="http://www.w3.org/1999/xlink" viewBox="0 0 51.25 50.918">
 <g>
  <rect height="50.918" opacity="0" width="51.25" x="0" y="0"/>
  <path d="M50.8789 25.4492C50.8789 39.4531 39.4531 50.8789 25.4297 50.8789C11.4258 50.8789 0 39.4531 0 25.4492C0 11.4258 11.4258 0 25.4297 0C39.4531 0 50.8789 11.4258 50.8789 25.4492ZM24.5312 14.2188L24.5312 16.4453C19.9023 16.8555 17.2266 20.4688 17.2266 25.332C17.2266 30.4688 20.0586 33.8086 24.5312 34.1992L24.5312 36.4453C24.5312 36.875 24.9023 37.2461 25.3516 37.2461C25.8008 37.2461 26.1523 36.875 26.1523 36.4453L26.1523 34.2188C28.0859 34.0625 29.9414 33.3398 31.1914 32.1289C31.9727 31.3281 32.6562 30.1172 32.6562 29.2578C32.6562 28.4961 32.0703 28.0859 31.4453 28.0859C30.8008 28.0859 30.5078 28.5156 30.2539 28.9648C29.4141 30.7422 28.0859 31.7773 26.1523 31.9727L26.1523 18.6914C28.0469 18.8672 29.4727 19.8633 30.2344 21.6992C30.4688 22.2461 30.8984 22.5781 31.4453 22.5781C32.1484 22.5781 32.6172 22.1289 32.6172 21.4062C32.6172 20.4492 31.9141 19.3359 31.1328 18.5352C29.9023 17.3242 28.1445 16.6016 26.1523 16.4453L26.1523 14.2188C26.1523 13.7891 25.8008 13.418 25.3516 13.418C24.9023 13.418 24.5312 13.7891 24.5312 14.2188ZM24.5312 31.9336C21.4062 31.4844 19.8828 28.8086 19.8828 25.332C19.8828 21.7969 21.4648 19.1406 24.5312 18.7109Z" fill="black" fill-opacity="0.85"/>
 </g>
</svg>
