<?xml version="1.0" encoding="UTF-8"?>
<!--Generator: Apple Native CoreSVG 326-->
<!DOCTYPE svg
PUBLIC "-//W3C//DTD SVG 1.1//EN"
       "http://www.w3.org/Graphics/SVG/1.1/DTD/svg11.dtd">
<svg version="1.1" xmlns="http://www.w3.org/2000/svg" xmlns:xlink="http://www.w3.org/1999/xlink" viewBox="0 0 60.4102 49.8382">
 <g>
  <rect height="49.8382" opacity="0" width="60.4102" x="0" y="0"/>
  <path d="M60.0391 29.9093C60.0391 14.1867 47.9492 1.29605 32.5977 0.00698344C31.7969-0.0711416 31.1719 0.514796 31.1719 1.33511L31.1719 9.32339C31.1719 9.98745 31.6602 10.5148 32.3438 10.5734C41.9727 11.7453 49.4531 19.9484 49.4531 29.9093C49.4531 34.4406 47.9102 38.6007 45.1758 42.0382C44.8047 42.507 44.8242 43.0929 45.2344 43.5031L51.0352 49.3039C51.6211 49.8703 52.4609 49.8703 52.9688 49.2453C57.3828 44.0109 60.0391 37.2531 60.0391 29.9093Z" fill="black" fill-opacity="0.85"/>
  <path d="M0 29.9093C0 37.2726 2.65625 44.05 7.08984 49.2843C7.57812 49.8703 8.39844 49.8703 8.98438 49.3039L14.7852 43.5031C15.1953 43.0929 15.2148 42.507 14.8438 42.0382C12.1094 38.6007 10.5664 34.4406 10.5664 29.9093C10.5664 19.9484 18.0664 11.7453 27.6758 10.5734C28.3789 10.5148 28.8477 9.98745 28.8477 9.32339L28.8477 1.33511C28.8477 0.514796 28.2422-0.0711416 27.4414 0.00698344C12.0703 1.29605 0 14.1867 0 29.9093Z" fill="black" fill-opacity="0.85"/>
  <path d="M30 38.796C32.1289 38.796 34.2188 38.0734 35.5859 36.7257C36.3477 35.9835 37.0117 34.7921 37.0117 33.9328C37.0117 33.2101 36.4453 32.8195 35.8594 32.8195C35.2148 32.8195 34.9414 33.2101 34.707 33.6789C33.75 35.6125 32.2852 36.6281 30.0195 36.6281C26.3672 36.6281 24.5703 33.8351 24.5703 30.1046C24.5703 26.3546 26.4062 23.6007 30 23.6007C32.168 23.6007 33.8477 24.5578 34.6875 26.5695C34.9023 27.1164 35.3125 27.4289 35.8398 27.4289C36.5234 27.4289 36.9922 26.9992 36.9922 26.2765C36.9922 25.3585 36.2891 24.2843 35.5469 23.5031C34.1992 22.1554 32.1875 21.4328 29.9805 21.4328C24.9023 21.4328 21.9922 25.0851 21.9922 30.1046C21.9922 35.4757 25.1367 38.796 30 38.796ZM29.9023 41.7257C30.332 41.7257 30.6836 41.3937 30.6836 40.9445L30.6836 19.2843C30.6836 18.8546 30.332 18.5031 29.9023 18.5031C29.4531 18.5031 29.1211 18.8546 29.1211 19.2843L29.1211 40.9445C29.1211 41.3937 29.4531 41.7257 29.9023 41.7257Z" fill="black" fill-opacity="0.85"/>
 </g>
</svg>
