<?xml version="1.0" encoding="UTF-8"?>
<!--Generator: Apple Native CoreSVG 326-->
<!DOCTYPE svg
PUBLIC "-//W3C//DTD SVG 1.1//EN"
       "http://www.w3.org/Graphics/SVG/1.1/DTD/svg11.dtd">
<svg version="1.1" xmlns="http://www.w3.org/2000/svg" xmlns:xlink="http://www.w3.org/1999/xlink" viewBox="0 0 46.2891 45.918">
 <g>
  <rect height="45.918" opacity="0" width="46.2891" x="0" y="0"/>
  <path d="M7.59766 45.918L38.3008 45.918C43.3594 45.918 45.918 43.3594 45.918 38.3984L45.918 7.53906C45.918 2.55859 43.3594 0 38.3008 0L7.59766 0C2.55859 0 0 2.53906 0 7.53906L0 38.3984C0 43.3984 2.55859 45.918 7.59766 45.918ZM7.67578 42.4609C4.94141 42.4609 3.45703 41.0156 3.45703 38.2031L3.45703 7.71484C3.45703 4.92188 4.94141 3.45703 7.67578 3.45703L38.2422 3.45703C40.918 3.45703 42.4609 4.92188 42.4609 7.71484L42.4609 38.2031C42.4609 41.0156 40.918 42.4609 38.2422 42.4609Z" fill="black" fill-opacity="0.85"/>
  <path d="M22.9883 31.5234C25.0977 31.5234 27.207 30.7812 28.5742 29.4531C29.3359 28.6914 30 27.5 30 26.6602C30 25.918 29.4336 25.5273 28.8281 25.5273C28.2031 25.5273 27.9102 25.9375 27.6758 26.3867C26.7383 28.3203 25.2734 29.3555 23.0078 29.3555C19.3359 29.3555 17.5391 26.5625 17.5391 22.832C17.5391 19.082 19.375 16.3086 22.9688 16.3086C25.1562 16.3086 26.8164 17.2852 27.6562 19.2773C27.8906 19.8242 28.2812 20.1367 28.8086 20.1367C29.4922 20.1367 29.9609 19.707 29.9609 19.0039C29.9609 18.0664 29.2773 16.9922 28.5156 16.2109C27.168 14.8828 25.1562 14.1406 22.9492 14.1406C17.8711 14.1406 14.9609 17.793 14.9609 22.832C14.9609 28.1836 18.125 31.5234 22.9883 31.5234ZM22.8711 34.4336C23.3008 34.4336 23.6523 34.1016 23.6523 33.6523L23.6523 11.9922C23.6523 11.5625 23.3008 11.2109 22.8711 11.2109C22.4414 11.2109 22.0898 11.5625 22.0898 11.9922L22.0898 33.6523C22.0898 34.1016 22.4414 34.4336 22.8711 34.4336Z" fill="black" fill-opacity="0.85"/>
 </g>
</svg>
