<?xml version="1.0" encoding="UTF-8"?>
<!--Generator: Apple Native CoreSVG 326-->
<!DOCTYPE svg
PUBLIC "-//W3C//DTD SVG 1.1//EN"
       "http://www.w3.org/Graphics/SVG/1.1/DTD/svg11.dtd">
<svg version="1.1" xmlns="http://www.w3.org/2000/svg" xmlns:xlink="http://www.w3.org/1999/xlink" viewBox="0 0 60.961 50.918">
 <g>
  <rect height="50.918" opacity="0" width="60.961" x="0" y="0"/>
  <path d="M30.295 50.8789C44.3379 50.8789 55.7246 39.4922 55.7246 25.4492C55.7246 11.4062 44.3379 0 30.295 0C16.252 0 4.86526 11.4062 4.86526 25.4492L8.49808 25.4492C8.49808 13.3984 18.2442 3.65234 30.295 3.65234C42.3457 3.65234 52.0918 13.3984 52.0918 25.4492C52.0918 37.5 42.3457 47.2461 30.295 47.2461C22.834 47.2461 16.1739 43.457 12.3653 37.7539C11.7207 36.875 10.7051 36.6016 9.80667 37.1484C8.94729 37.6562 8.69339 38.8477 9.39651 39.8047C13.9473 46.5039 21.6426 50.8789 30.295 50.8789ZM1.60354 20.7227C0.00198146 20.7227-0.447237 21.8164 0.470731 23.0859L6.01761 30.9766C6.75979 32.0508 7.83401 32.0312 8.55667 30.9766L14.1035 23.0664C14.9825 21.8164 14.5528 20.7227 12.9707 20.7227Z" fill="black" fill-opacity="0.85"/>
  <path d="M30.3145 34.0234C32.4239 34.0234 34.5332 33.2812 35.9004 31.9531C36.6621 31.1914 37.3262 30 37.3262 29.1602C37.3262 28.418 36.7598 28.0273 36.1543 28.0273C35.5293 28.0273 35.2559 28.4375 35.002 28.8867C34.0645 30.8203 32.5996 31.8555 30.334 31.8555C26.6621 31.8555 24.8653 29.0625 24.8653 25.332C24.8653 21.582 26.7012 18.8086 30.295 18.8086C32.4825 18.8086 34.1426 19.7852 34.9825 21.7773C35.2168 22.3242 35.627 22.6367 36.1543 22.6367C36.8379 22.6367 37.2871 22.207 37.2871 21.5039C37.2871 20.5664 36.6035 19.4922 35.8418 18.7109C34.4942 17.3828 32.4825 16.6406 30.2754 16.6406C25.2168 16.6406 22.2871 20.293 22.2871 25.332C22.2871 30.6836 25.4512 34.0234 30.3145 34.0234ZM30.1973 36.9336C30.6465 36.9336 30.9785 36.6016 30.9785 36.1523L30.9785 14.4922C30.9785 14.0625 30.6465 13.7109 30.1973 13.7109C29.7676 13.7109 29.416 14.0625 29.416 14.4922L29.416 36.1523C29.416 36.6016 29.7676 36.9336 30.1973 36.9336Z" fill="black" fill-opacity="0.85"/>
 </g>
</svg>
