<?xml version="1.0" encoding="UTF-8"?>
<!--Generator: Apple Native CoreSVG 326-->
<!DOCTYPE svg
PUBLIC "-//W3C//DTD SVG 1.1//EN"
       "http://www.w3.org/Graphics/SVG/1.1/DTD/svg11.dtd">
<svg version="1.1" xmlns="http://www.w3.org/2000/svg" xmlns:xlink="http://www.w3.org/1999/xlink" viewBox="0 0 55.5273 53.1055">
 <g>
  <rect height="53.1055" opacity="0" width="55.5273" x="0" y="0"/>
  <path d="M3.06641 47.6758L52.0898 47.6758L52.0898 46.1719C52.0898 45.332 51.582 44.8242 50.7227 44.8242L49.1211 44.8242L49.1211 16.6797L51.3867 16.6797C52.5781 16.6797 53.2422 15.8398 53.2422 14.9609C53.2422 14.3164 52.8906 13.75 52.1094 13.3008L30.5273 0.839844C29.5703 0.292969 28.5547 0 27.5781 0C26.6016 0 25.5664 0.292969 24.6289 0.839844L3.04688 13.3008C2.24609 13.75 1.91406 14.3164 1.91406 14.9609C1.91406 15.8398 2.57812 16.6797 3.76953 16.6797L6.05469 16.6797L6.05469 44.8242L4.45312 44.8242C3.57422 44.8242 3.06641 45.332 3.06641 46.1719ZM9.31641 44.8242L9.31641 13.7109L26.4453 4.0625C26.7773 3.86719 27.1875 3.75 27.5781 3.75C27.9492 3.75 28.3398 3.86719 28.7109 4.0625L45.8594 13.7109L45.8594 44.8242ZM1.73828 53.0664L53.418 53.0664C54.375 53.0664 55.1562 52.2852 55.1562 51.3477C55.1562 50.3906 54.375 49.6094 53.418 49.6094L1.73828 49.6094C0.78125 49.6094 0 50.3906 0 51.3477C0 52.2852 0.78125 53.0664 1.73828 53.0664Z" fill="black" fill-opacity="0.85"/>
  <path d="M27.5977 34.9805C29.7266 34.9805 31.8164 34.2383 33.1836 32.9102C33.9453 32.168 34.6094 30.957 34.6094 30.1172C34.6094 29.3945 34.043 28.9844 33.457 28.9844C32.8125 28.9844 32.5391 29.3945 32.3047 29.8633C31.3477 31.7773 29.8828 32.8125 27.6172 32.8125C23.9453 32.8125 22.168 30.0195 22.168 26.2891C22.168 22.5391 24.0039 19.7656 27.5977 19.7656C29.7656 19.7656 31.4453 20.7422 32.2852 22.7539C32.5 23.3008 32.9102 23.6133 33.4375 23.6133C34.1211 23.6133 34.5898 23.1641 34.5898 22.4609C34.5898 21.543 33.8867 20.4492 33.1445 19.6875C31.7969 18.3398 29.7852 17.5977 27.5781 17.5977C22.5 17.5977 19.5898 21.25 19.5898 26.2891C19.5898 31.6602 22.7344 34.9805 27.5977 34.9805ZM27.5 37.9102C27.9297 37.9102 28.2812 37.5586 28.2812 37.1289L28.2812 15.4492C28.2812 15.0195 27.9297 14.6875 27.5 14.6875C27.0508 14.6875 26.7188 15.0195 26.7188 15.4492L26.7188 37.1289C26.7188 37.5586 27.0508 37.9102 27.5 37.9102Z" fill="black" fill-opacity="0.85"/>
 </g>
</svg>
