<?xml version="1.0" encoding="UTF-8"?>
<!--Generator: Apple Native CoreSVG 326-->
<!DOCTYPE svg
PUBLIC "-//W3C//DTD SVG 1.1//EN"
       "http://www.w3.org/Graphics/SVG/1.1/DTD/svg11.dtd">
<svg version="1.1" xmlns="http://www.w3.org/2000/svg" xmlns:xlink="http://www.w3.org/1999/xlink" viewBox="0 0 48.6328 42.793">
 <g>
  <rect height="42.793" opacity="0" width="48.6328" x="0" y="0"/>
  <path d="M7.16797 13.9844L10.7617 13.9844L10.7617 5.95703C10.7617 4.53125 11.6602 3.59375 13.0078 3.59375L35.2734 3.59375C36.6211 3.59375 37.5 4.53125 37.5 5.95703L37.5 13.9844L41.1133 13.9844L41.1133 5.9375C41.1133 2.36328 38.8086 0 35.4297 0L12.8516 0C9.45312 0 7.16797 2.36328 7.16797 5.9375ZM0 32.2266C0 35.5273 2.20703 37.7344 5.50781 37.7344L42.7539 37.7344C46.0547 37.7344 48.2617 35.5273 48.2617 32.2266L48.2617 16.9531C48.2617 13.6523 46.0547 11.4453 42.7539 11.4453L39.668 11.4453C36.3867 11.4453 34.1602 13.6523 34.1602 16.9531L34.1602 23.8281L14.1016 23.8281L14.1016 16.9531C14.1016 13.6523 11.8945 11.4453 8.59375 11.4453L5.50781 11.4453C2.20703 11.4453 0 13.6523 0 16.9531ZM3.65234 32.1875L3.65234 16.9922C3.65234 15.8203 4.45312 15.0586 5.66406 15.0586L8.4375 15.0586C9.64844 15.0586 10.4688 15.8203 10.4688 16.9922L10.4688 27.4219L37.8125 27.4219L37.8125 16.9922C37.8125 15.8203 38.6328 15.0586 39.8242 15.0586L42.5977 15.0586C43.8086 15.0586 44.6289 15.8203 44.6289 16.9922L44.6289 32.1875C44.6289 33.3594 43.8086 34.1211 42.5977 34.1211L5.66406 34.1211C4.45312 34.1211 3.65234 33.3594 3.65234 32.1875ZM8.63281 42.7539L10.0781 42.7539C11.3477 42.7539 12.168 41.9727 12.168 40.6836L12.168 35.7227L6.54297 35.7227L6.54297 40.6836C6.54297 41.9727 7.34375 42.7539 8.63281 42.7539ZM38.1836 42.7539L39.6289 42.7539C40.918 42.7539 41.7188 41.9727 41.7188 40.6836L41.7188 35.7227L36.0938 35.7227L36.0938 40.6836C36.0938 41.9727 36.9141 42.7539 38.1836 42.7539Z" fill="black" fill-opacity="0.85"/>
 </g>
</svg>
