<?xml version="1.0" encoding="UTF-8"?>
<!--Generator: Apple Native CoreSVG 326-->
<!DOCTYPE svg
PUBLIC "-//W3C//DTD SVG 1.1//EN"
       "http://www.w3.org/Graphics/SVG/1.1/DTD/svg11.dtd">
<svg version="1.1" xmlns="http://www.w3.org/2000/svg" xmlns:xlink="http://www.w3.org/1999/xlink" viewBox="0 0 75.0977 62.6367">
 <g>
  <rect height="62.6367" opacity="0" width="75.0977" x="0" y="0"/>
  <path d="M37.3828 13.1641C43.1641 13.1641 49.0039 9.25781 49.0039 4.25781C49.0039 2.75391 48.1445 1.67969 46.2305 1.07422C43.8477 0.351562 40.625 0.0195312 37.3828 0C34.1211 0.0195312 30.8984 0.351562 28.5352 1.07422C26.6211 1.67969 25.7617 2.75391 25.7617 4.25781C25.7617 9.25781 31.6016 13.1641 37.3828 13.1641ZM37.3828 10.3125C32.8516 10.3125 29.1406 7.75391 28.6328 4.39453C28.6133 4.17969 28.8086 3.96484 29.1016 3.84766C31.4648 3.20312 34.3945 2.85156 37.3828 2.85156C40.3711 2.85156 43.3008 3.20312 45.6445 3.84766C45.957 3.98438 46.1523 4.17969 46.1328 4.39453C45.6445 7.75391 41.9141 10.3125 37.3828 10.3125ZM35.957 11.5039L35.957 27.9883L38.8281 27.9883L38.8281 11.5039ZM5.11719 39.2383C7.92969 39.2383 10.2344 36.9141 10.2344 34.1016C10.2344 31.2695 7.94922 28.9844 5.11719 28.9844C2.30469 28.9844 0 31.2695 0 34.1016C0 36.9141 2.30469 39.2383 5.11719 39.2383ZM5.11719 36.7578C3.67188 36.7578 2.48047 35.5469 2.48047 34.1016C2.48047 32.6562 3.67188 31.4453 5.11719 31.4453C6.58203 31.4453 7.77344 32.6172 7.77344 34.1016C7.77344 35.5469 6.5625 36.7578 5.11719 36.7578ZM19.2188 39.2383C22.7148 39.2383 25.5664 36.3867 25.5664 32.8906C25.5664 29.4141 22.7148 26.5625 19.2188 26.5625C15.7422 26.5625 12.9102 29.4141 12.9102 32.8906C12.9102 36.3867 15.7422 39.2383 19.2188 39.2383ZM19.2188 36.3672C17.3242 36.3672 15.7617 34.8047 15.7617 32.8906C15.7617 30.9961 17.3242 29.4141 19.2188 29.4141C21.1328 29.4141 22.6953 30.9961 22.6953 32.8906C22.6953 34.8047 21.1328 36.3672 19.2188 36.3672ZM37.3828 44.8438C42.4219 44.8438 46.4648 40.7812 46.4648 35.7617C46.4648 30.7227 42.4219 26.6406 37.3828 26.6406C32.3633 26.6406 28.3008 30.7227 28.3008 35.7617C28.3008 40.7812 32.3633 44.8438 37.3828 44.8438ZM37.3828 41.9727C33.9258 41.9727 31.1719 39.2188 31.1719 35.7617C31.1719 32.3047 33.9258 29.5117 37.3828 29.5117C40.8398 29.5117 43.6133 32.3047 43.6133 35.7617C43.6133 39.2188 40.8398 41.9727 37.3828 41.9727ZM55.5078 39.2383C58.9844 39.2383 61.8359 36.3867 61.8359 32.8906C61.8359 29.4141 58.9844 26.5625 55.5078 26.5625C52.0312 26.5625 49.1797 29.4141 49.1797 32.8906C49.1797 36.3867 52.0312 39.2383 55.5078 39.2383ZM55.5078 36.3672C53.6133 36.3672 52.0312 34.8047 52.0312 32.8906C52.0312 30.9961 53.6133 29.4141 55.5078 29.4141C57.4219 29.4141 58.9648 30.9961 58.9648 32.8906C58.9648 34.8047 57.4219 36.3672 55.5078 36.3672ZM69.6289 39.2383C72.4219 39.2383 74.7266 36.9141 74.7266 34.1016C74.7266 31.2695 72.4219 28.9844 69.6289 28.9844C66.7773 28.9844 64.4922 31.2695 64.4922 34.1016C64.4922 36.9141 66.7969 39.2383 69.6289 39.2383ZM69.6289 36.7578C68.1836 36.7578 66.9727 35.5469 66.9727 34.1016C66.9727 32.6172 68.1445 31.4453 69.6289 31.4453C71.0742 31.4453 72.2656 32.6562 72.2656 34.1016C72.2656 35.5469 71.0742 36.7578 69.6289 36.7578ZM37.3828 62.5781C40.8203 62.5781 43.6328 59.7852 43.6328 56.3477C43.6328 52.9102 40.8203 50.0977 37.3828 50.0977C33.9453 50.0977 31.1523 52.9102 31.1523 56.3477C31.1523 59.7852 33.9453 62.5781 37.3828 62.5781ZM37.3828 59.7266C35.5273 59.7266 34.0234 58.2031 34.0234 56.3477C34.0234 54.4727 35.5273 52.9688 37.3828 52.9688C39.2578 52.9688 40.7617 54.4727 40.7617 56.3477C40.7617 58.2031 39.2578 59.7266 37.3828 59.7266ZM7.12891 37.793L4.27734 37.793C4.51172 45.7422 15.4688 49.8242 21.4062 43.6523L19.8438 41.3086C15.8008 46.1914 7.38281 43.4961 7.12891 37.793ZM20.625 37.793L17.7734 37.793C17.7539 46.0547 27.9883 49.7461 34.9219 43.4961L32.168 42.0312C27.2656 45.7422 20.6445 43.418 20.625 37.793ZM54.1016 37.793C54.082 43.418 47.4805 45.7422 42.5586 42.0312L39.8047 43.4961C46.7383 49.7461 56.9727 46.0547 56.9727 37.793ZM67.5977 37.793C67.3633 43.4961 58.9258 46.1914 54.8828 41.3086L53.3398 43.6523C59.2773 49.8242 70.2344 45.7422 70.4688 37.793ZM35.957 43.3594L35.957 51.8359L38.8281 51.8359L38.8281 43.3594Z" fill="black" fill-opacity="0.85"/>
 </g>
</svg>
