<?xml version="1.0" encoding="UTF-8"?>
<!--Generator: Apple Native CoreSVG 326-->
<!DOCTYPE svg
PUBLIC "-//W3C//DTD SVG 1.1//EN"
       "http://www.w3.org/Graphics/SVG/1.1/DTD/svg11.dtd">
<svg version="1.1" xmlns="http://www.w3.org/2000/svg" xmlns:xlink="http://www.w3.org/1999/xlink" viewBox="0 0 62.3242 45.957">
 <g>
  <rect height="45.957" opacity="0" width="62.3242" x="0" y="0"/>
  <path d="M9.00391 45.957L52.9688 45.957C58.0273 45.957 60.5664 43.418 60.5664 38.4375L60.5664 30.6641C60.5664 29.5508 59.9414 28.9062 58.8477 28.9062C57.7344 28.9062 57.1094 29.5508 57.1094 30.6641L57.1094 38.2617C57.1094 41.0547 55.5664 42.5 52.8906 42.5L9.0625 42.5C6.34766 42.5 4.86328 41.0547 4.86328 38.2617L4.86328 30.6641C4.86328 29.5508 4.21875 28.9062 3.125 28.9062C2.05078 28.9062 1.40625 29.5508 1.40625 30.6641L1.40625 38.4375C1.40625 43.4375 3.96484 45.957 9.00391 45.957ZM9.00391 0.0585938C3.96484 0.0585938 1.40625 2.57812 1.40625 7.57812L1.40625 14.375C1.40625 15.4883 2.05078 16.1328 3.125 16.1328C4.21875 16.1328 4.86328 15.4883 4.86328 14.375L4.86328 7.75391C4.86328 4.96094 6.34766 3.51562 9.0625 3.51562L52.8906 3.51562C55.5664 3.51562 57.1094 4.96094 57.1094 7.75391L57.1094 14.375C57.1094 15.4883 57.7539 16.1328 58.8477 16.1328C59.9609 16.1328 60.5664 15.4883 60.5664 14.375L60.5664 7.57812C60.5664 2.59766 58.0273 0.0585938 52.9688 0.0585938ZM3.125 25.6055C4.84375 25.6055 6.25 24.1992 6.25 22.4609C6.25 20.7422 4.84375 19.3555 3.125 19.3555C1.40625 19.3555 0 20.7422 0 22.4609C0 24.1992 1.40625 25.6055 3.125 25.6055ZM58.8477 25.6055C60.5469 25.6055 61.9531 24.1992 61.9531 22.4609C61.9531 20.7422 60.5469 19.3555 58.8477 19.3555C57.1094 19.3555 55.7031 20.7227 55.7031 22.4609C55.7031 24.1992 57.1094 25.6055 58.8477 25.6055Z" fill="black" fill-opacity="0.85"/>
  <path d="M22.7148 34.7656C23.4961 34.7656 24.043 34.4141 24.375 33.3789L26.3672 27.7148L35.5859 27.7148L37.5781 33.3789C37.9297 34.3945 38.457 34.7656 39.2773 34.7656C40.2148 34.7656 40.8594 34.1602 40.8594 33.2812C40.8594 32.9492 40.8008 32.6367 40.625 32.168L33.3789 12.7344C32.9492 11.6211 32.1289 11.0547 30.957 11.0547C29.8047 11.0547 29.0039 11.6211 28.5742 12.7344L21.3281 32.168C21.1719 32.6367 21.0938 32.9492 21.0938 33.2812C21.0938 34.1797 21.7188 34.7656 22.7148 34.7656ZM27.2656 25.0586L30.8594 14.8828L31.0938 14.8828L34.6875 25.0586Z" fill="black" fill-opacity="0.85"/>
 </g>
</svg>
