<?xml version="1.0" encoding="UTF-8"?>
<!--Generator: Apple Native CoreSVG 326-->
<!DOCTYPE svg
PUBLIC "-//W3C//DTD SVG 1.1//EN"
       "http://www.w3.org/Graphics/SVG/1.1/DTD/svg11.dtd">
<svg version="1.1" xmlns="http://www.w3.org/2000/svg" xmlns:xlink="http://www.w3.org/1999/xlink" viewBox="0 0 55.3906 54.5508">
 <g>
  <rect height="54.5508" opacity="0" width="55.3906" x="0" y="0"/>
  <path d="M14.8438 54.5508C15.918 54.5508 16.6602 53.9844 17.9297 52.8516L26.7383 45.0977L44.0039 45.0977C51.0742 45.0977 55.0195 41.0547 55.0195 34.1016L55.0195 14.1797C55.0195 7.20703 51.0742 3.16406 44.0039 3.16406L11.0156 3.16406C3.92578 3.16406 0 7.1875 0 14.1797L0 34.1016C0 41.0938 3.92578 45.0977 11.0156 45.0977L12.4805 45.0977L12.4805 51.8164C12.4805 53.4766 13.3398 54.5508 14.8438 54.5508ZM15.7031 50.625L15.7031 43.2812C15.7031 42.0898 15.2539 41.6406 14.082 41.6406L11.0352 41.6406C5.99609 41.6406 3.45703 38.9453 3.45703 34.0625L3.45703 14.1992C3.45703 9.31641 5.99609 6.62109 11.0352 6.62109L43.9844 6.62109C48.9648 6.62109 51.5625 9.31641 51.5625 14.1992L51.5625 34.0625C51.5625 38.9453 48.9648 41.6406 43.9844 41.6406L26.6602 41.6406C25.4297 41.6406 24.7852 41.8359 23.9258 42.7148Z" fill="black" fill-opacity="0.85"/>
  <path d="M19.2383 35.9375C20.0195 35.9375 20.5664 35.5859 20.8984 34.5508L22.8906 28.8867L32.1094 28.8867L34.1016 34.5508C34.4531 35.5664 34.9805 35.9375 35.8008 35.9375C36.7383 35.9375 37.3828 35.332 37.3828 34.4531C37.3828 34.1211 37.3242 33.8086 37.1484 33.3398L29.9023 13.9062C29.4727 12.793 28.6523 12.2266 27.4805 12.2266C26.3281 12.2266 25.5273 12.793 25.0977 13.9062L17.8516 33.3398C17.6953 33.8086 17.6172 34.1211 17.6172 34.4531C17.6172 35.3516 18.2422 35.9375 19.2383 35.9375ZM23.7891 26.2305L27.3828 16.0547L27.6172 16.0547L31.2109 26.2305Z" fill="black" fill-opacity="0.85"/>
 </g>
</svg>
