<?xml version="1.0" encoding="UTF-8"?>
<!--Generator: Apple Native CoreSVG 326-->
<!DOCTYPE svg
PUBLIC "-//W3C//DTD SVG 1.1//EN"
       "http://www.w3.org/Graphics/SVG/1.1/DTD/svg11.dtd">
<svg version="1.1" xmlns="http://www.w3.org/2000/svg" xmlns:xlink="http://www.w3.org/1999/xlink" viewBox="0 0 54.2969 46.8164">
 <g>
  <rect height="46.8164" opacity="0" width="54.2969" x="0" y="0"/>
  <path d="M52.4609 8.26172L49.0039 22.832C48.6914 23.9258 47.6953 24.375 46.9141 23.6133L42.5195 19.1992L31.7188 30.0586C30.6641 31.1328 29.6289 31.6406 28.5156 31.6406C27.4023 31.6406 26.3281 31.1328 25.293 30.0586L15.7031 20.3711C15.3906 20.0586 15.0977 19.9023 14.8047 19.9023C14.5117 19.9023 14.2188 20.0586 13.9062 20.3711L3.45703 30.8959L3.45703 25.7267L11.6016 17.5391C12.6953 16.4453 13.6914 15.9766 14.8047 15.9766C15.918 15.9766 16.9727 16.4648 18.0078 17.5391L27.6172 27.2461C27.9297 27.5586 28.2227 27.6953 28.5156 27.6953C28.8086 27.6953 29.1016 27.5391 29.4141 27.2461L39.9219 16.6016L35.5469 12.207C34.7656 11.4453 35.2148 10.4492 36.3086 10.1562L50.8789 6.67969C51.875 6.42578 52.7148 7.22656 52.4609 8.26172Z" fill="black" fill-opacity="0.85"/>
  <path d="M0 45C0 46.0938 0.722656 46.8164 1.81641 46.8164L52.1875 46.8164C53.125 46.8164 53.9258 46.0742 53.9258 45.0977C53.9258 44.1211 53.125 43.3789 52.1875 43.3789L4.10156 43.3789C3.61328 43.3789 3.45703 43.2227 3.45703 42.7344L3.45703 1.97266C3.45703 1.05469 2.71484 0.234375 1.73828 0.234375C0.761719 0.234375 0 1.05469 0 1.97266Z" fill="black" fill-opacity="0.85"/>
 </g>
</svg>
