<?xml version="1.0" encoding="UTF-8"?>
<!--Generator: Apple Native CoreSVG 326-->
<!DOCTYPE svg
PUBLIC "-//W3C//DTD SVG 1.1//EN"
       "http://www.w3.org/Graphics/SVG/1.1/DTD/svg11.dtd">
<svg version="1.1" xmlns="http://www.w3.org/2000/svg" xmlns:xlink="http://www.w3.org/1999/xlink" viewBox="0 0 63.4766 47.3242">
 <g>
  <rect height="47.3242" opacity="0" width="63.4766" x="0" y="0"/>
  <path d="M50.5469 47.2656L57.5586 47.2656C61.2109 47.2656 63.1055 45.4883 63.1055 41.9531L63.1055 5.3125C63.1055 1.77734 61.2109 0 57.5586 0L50.5469 0C46.8945 0 45.0195 1.77734 45.0195 5.3125L45.0195 41.9531C45.0195 45.4883 46.8945 47.2656 50.5469 47.2656ZM51.0742 44.0039C49.1602 44.0039 48.4375 43.2812 48.4375 41.3867L48.4375 5.87891C48.4375 3.98438 49.1602 3.26172 51.0742 3.26172L57.0508 3.26172C58.9648 3.26172 59.6875 3.98438 59.6875 5.87891L59.6875 41.3867C59.6875 43.2812 58.9648 44.0039 57.0508 44.0039Z" fill="black" fill-opacity="0.85"/>
  <path d="M28.0273 47.2656L35.0391 47.2656C38.7109 47.2656 40.5859 45.4883 40.5859 41.9531L40.5859 12.6562C40.5859 9.12109 38.7109 7.32422 35.0391 7.32422L28.0273 7.32422C24.375 7.32422 22.5195 9.12109 22.5195 12.6562L22.5195 41.9531C22.5195 45.4883 24.375 47.2656 28.0273 47.2656ZM28.5742 44.0039C26.6602 44.0039 25.9375 43.2812 25.9375 41.3867L25.9375 13.2227C25.9375 11.3281 26.6602 10.5859 28.5742 10.5859L34.5312 10.5859C36.4453 10.5859 37.168 11.3281 37.168 13.2227L37.168 41.3867C37.168 43.2812 36.4453 44.0039 34.5312 44.0039Z" fill="black" fill-opacity="0.85"/>
  <path d="M5.52734 47.2656L12.5391 47.2656C16.1914 47.2656 18.0859 45.4883 18.0859 41.9531L18.0859 19.9219C18.0859 16.3867 16.1914 14.6094 12.5391 14.6094L5.52734 14.6094C1.85547 14.6094 0 16.3867 0 19.9219L0 41.9531C0 45.4883 1.85547 47.2656 5.52734 47.2656ZM6.05469 44.0039C4.14062 44.0039 3.41797 43.2812 3.41797 41.3867L3.41797 20.4883C3.41797 18.5938 4.14062 17.8711 6.05469 17.8711L12.0312 17.8711C13.9453 17.8711 14.668 18.5938 14.668 20.4883L14.668 41.3867C14.668 43.2812 13.9453 44.0039 12.0312 44.0039Z" fill="black" fill-opacity="0.85"/>
 </g>
</svg>
