<?xml version="1.0" encoding="UTF-8"?>
<!--Generator: Apple Native CoreSVG 326-->
<!DOCTYPE svg
PUBLIC "-//W3C//DTD SVG 1.1//EN"
       "http://www.w3.org/Graphics/SVG/1.1/DTD/svg11.dtd">
<svg version="1.1" xmlns="http://www.w3.org/2000/svg" xmlns:xlink="http://www.w3.org/1999/xlink" viewBox="0 0 62.9297 47.3242">
 <g>
  <rect height="47.3242" opacity="0" width="62.9297" x="0" y="0"/>
  <path d="M50 47.0117L57.5586 47.0117C60.8594 47.0117 62.5586 45.4102 62.5586 42.207L62.5586 4.80469C62.5586 1.60156 60.8594 0 57.5586 0L50 0C46.7188 0 45.0195 1.60156 45.0195 4.80469L45.0195 42.207C45.0195 45.4102 46.7188 47.0117 50 47.0117Z" fill="black" fill-opacity="0.85"/>
  <path d="M27.4805 47.0117L35.0391 47.0117C38.3594 47.0117 40.0391 45.4102 40.0391 42.207L40.0391 12.1289C40.0391 8.94531 38.3594 7.32422 35.0391 7.32422L27.4805 7.32422C24.1992 7.32422 22.5195 8.94531 22.5195 12.1289L22.5195 42.207C22.5195 45.4102 24.1992 47.0117 27.4805 47.0117Z" fill="black" fill-opacity="0.85"/>
  <path d="M4.96094 47.0117L12.5391 47.0117C15.8398 47.0117 17.5195 45.4102 17.5195 42.207L17.5195 19.4141C17.5195 16.2109 15.8398 14.6094 12.5391 14.6094L4.96094 14.6094C1.67969 14.6094 0 16.2109 0 19.4141L0 42.207C0 45.4102 1.67969 47.0117 4.96094 47.0117Z" fill="black" fill-opacity="0.85"/>
 </g>
</svg>
