<?xml version="1.0" encoding="UTF-8"?>
<!--Generator: Apple Native CoreSVG 326-->
<!DOCTYPE svg
PUBLIC "-//W3C//DTD SVG 1.1//EN"
       "http://www.w3.org/Graphics/SVG/1.1/DTD/svg11.dtd">
<svg version="1.1" xmlns="http://www.w3.org/2000/svg" xmlns:xlink="http://www.w3.org/1999/xlink" viewBox="0 0 78.6719 38.3789">
 <g>
  <rect height="38.3789" opacity="0" width="78.6719" x="0" y="0"/>
  <path d="M67.4023 37.793C72.4023 37.793 76.6602 35.0195 78.1055 30.9961C78.2422 30.625 78.3008 30.2148 78.3008 29.8828C78.3008 28.9844 77.6562 28.3203 76.7383 28.3203C75.918 28.3203 75.5078 28.6523 75.0391 29.6094C73.7109 32.8516 71.0938 34.6484 67.4219 34.6484C62.0898 34.6484 58.6523 30.4688 58.6523 23.75C58.6523 17.0898 62.1289 12.8516 67.4023 12.8516C70.9375 12.8516 73.6328 14.5898 74.9609 17.9297C75.4102 18.8281 75.8398 19.1602 76.6406 19.1602C77.5977 19.1602 78.2227 18.5547 78.2227 17.6367C78.2227 17.3242 78.1445 16.9531 78.0664 16.6797C76.7773 12.6367 72.4609 9.70703 67.3242 9.70703C59.8047 9.70703 54.9414 15.2734 54.9414 23.8086C54.9414 32.3633 59.8438 37.793 67.4023 37.793Z" fill="black" fill-opacity="0.85"/>
  <path d="M29.0625 37.7539C30.0781 37.7539 30.8203 37.0703 30.8203 35.918L30.8203 31.3281L30.8984 31.3281C32.4805 35.293 36.0156 37.793 40.4102 37.793C47.3242 37.793 51.9336 32.1875 51.9336 23.75C51.9336 15.293 47.3047 9.70703 40.4492 9.70703C36.0742 9.70703 32.5391 12.2266 31.0352 16.1133L30.9375 16.1133L30.9375 1.93359C30.9375 0.761719 30.1953 0 29.1211 0C28.0273 0 27.3047 0.761719 27.3047 1.93359L27.3047 35.918C27.3047 37.0898 28.0078 37.7539 29.0625 37.7539ZM39.6484 34.6484C34.5508 34.6484 30.9766 30.2734 30.9766 23.7695C30.9766 17.2656 34.5508 12.8711 39.6484 12.8711C44.8633 12.8711 48.2031 17.1289 48.2031 23.75C48.2031 30.3906 44.8438 34.6484 39.6484 34.6484Z" fill="black" fill-opacity="0.85"/>
  <path d="M9.04297 37.7539C13.1445 37.7539 16.9336 35.5078 18.418 32.1094L18.4961 32.1094L18.4961 35.9961C18.4961 37.0703 19.2383 37.7734 20.2344 37.7734C21.2891 37.7734 21.9922 37.0703 21.9922 35.8984L21.9922 18.8086C21.9922 13.2617 18.0664 9.70703 11.7578 9.70703C6.89453 9.70703 3.06641 11.8555 1.64062 15.293C1.38672 15.8789 1.21094 16.4844 1.21094 16.9727C1.21094 17.9297 1.93359 18.5547 2.85156 18.5547C3.53516 18.5547 4.0625 18.2812 4.39453 17.6367C5.64453 14.4531 8.02734 12.8125 11.6602 12.8125C15.8789 12.8125 18.3789 15.2539 18.3789 19.082L18.3789 21.3477L9.86328 21.8555C3.47656 22.2266 0 25.1562 0 29.8047C0 34.5703 3.71094 37.7539 9.04297 37.7539ZM9.86328 34.7461C6.23047 34.7461 3.71094 32.6953 3.71094 29.707C3.71094 26.8359 5.97656 24.9219 10.332 24.6289L18.3789 24.0625L18.3789 27.1484C18.3789 31.3672 14.5703 34.7461 9.86328 34.7461Z" fill="black" fill-opacity="0.85"/>
 </g>
</svg>
