<?xml version="1.0" encoding="UTF-8"?>
<!--Generator: Apple Native CoreSVG 326-->
<!DOCTYPE svg
PUBLIC "-//W3C//DTD SVG 1.1//EN"
       "http://www.w3.org/Graphics/SVG/1.1/DTD/svg11.dtd">
<svg version="1.1" xmlns="http://www.w3.org/2000/svg" xmlns:xlink="http://www.w3.org/1999/xlink" viewBox="0 0 61.6602 48.2617">
 <g>
  <rect height="48.2617" opacity="0" width="61.6602" x="0" y="0"/>
  <path d="M13.418 24.1211C13.418 24.9922 13.4659 25.8536 13.566 26.7009C8.35484 27.1181 5.52734 29.4465 5.52734 33.0273C5.52734 36.8164 8.69141 39.3164 13.2227 39.3164C15.0017 39.3164 16.6516 38.9418 18.1058 38.2393C18.6318 39.0003 19.2197 39.714 19.8649 40.3743C17.7675 41.8255 15.1596 42.6758 12.4414 42.6758C5.97656 42.6758 1.54297 38.8086 1.54297 33.0859C1.54297 27.5391 5.72266 24.2383 13.3008 23.5938L13.4458 23.5811ZM18.7891 9.07293C17.9638 10.0765 17.227 11.1534 16.5939 12.2954C16.2232 12.2624 15.8409 12.2461 15.4492 12.2461C11.0156 12.2461 7.96875 14.082 6.40625 18.2422C6.07422 18.9844 5.54688 19.3164 4.74609 19.3164C3.73047 19.3164 3.02734 18.6328 3.02734 17.5391C3.02734 16.9531 3.22266 16.1719 3.55469 15.4492C5.23438 11.4844 9.76562 8.76953 15.5273 8.76953C16.6883 8.76953 17.7774 8.87012 18.7891 9.07293Z" fill="black" fill-opacity="0.85"/>
  <path d="M37.5391 48.2422C50.7031 48.2422 61.6602 37.2852 61.6602 24.1211C61.6602 10.957 50.6836 0 37.5 0C24.3555 0 13.418 10.9375 13.418 24.1211C13.418 37.2852 24.375 48.2422 37.5391 48.2422ZM37.5391 44.7461C26.0742 44.7461 16.9531 35.6055 16.9531 24.1211C16.9531 12.6367 26.0352 3.49609 37.5 3.49609C48.9844 3.49609 58.125 12.6367 58.1641 24.1211C58.2031 35.5859 49.0234 44.7461 37.5391 44.7461ZM39.5898 46.1719L44.1406 46.1328L44.1406 17.6172C44.1406 9.94141 39.3945 4.86328 31.3867 4.00391C30.3516 3.90625 29.2773 3.86719 28.2422 3.90625L23.4766 8.71094C25.0195 8.22266 26.6992 7.98828 28.6914 7.98828C35.3906 7.98828 39.3555 11.7578 39.3555 18.0664L39.3555 21.7969L25.9766 22.6562C21.9336 22.9102 18.6914 23.8672 16.3281 25.4102L17.2656 30.4297C18.9258 28.125 22.1289 26.7383 26.582 26.4258L39.3555 25.5273L39.3555 30.5469C39.3555 36.7383 34.375 41.7578 27.7734 42.5586L31.5039 45.5664C35.0977 44.2188 37.9688 41.8164 39.2969 38.8086L39.5898 38.8086Z" fill="black" fill-opacity="0.85"/>
 </g>
</svg>
