<?xml version="1.0" encoding="UTF-8"?>
<!--Generator: Apple Native CoreSVG 326-->
<!DOCTYPE svg
PUBLIC "-//W3C//DTD SVG 1.1//EN"
       "http://www.w3.org/Graphics/SVG/1.1/DTD/svg11.dtd">
<svg version="1.1" xmlns="http://www.w3.org/2000/svg" xmlns:xlink="http://www.w3.org/1999/xlink" viewBox="0 0 42.3047 53.8477">
 <g>
  <rect height="53.8477" opacity="0" width="42.3047" x="0" y="0"/>
  <path d="M10.8594 34.9219C10.0391 34.9219 9.43359 34.2969 9.43359 33.5156C9.43359 32.7539 10.0391 32.1484 10.8594 32.1484L31.1523 32.1484C31.9531 32.1484 32.5586 32.7539 32.5586 33.5156C32.5586 34.2969 31.9531 34.9219 31.1523 34.9219ZM10.8594 42.793C10.0391 42.793 9.43359 42.1875 9.43359 41.4062C9.43359 40.6055 10.0391 39.9805 10.8594 39.9805L20.5469 39.9805C21.3672 39.9805 21.9531 40.6055 21.9531 41.4062C21.9531 42.1875 21.3672 42.793 20.5469 42.793ZM15.0977 25.6641C13.5547 25.6641 12.8516 24.9609 12.8516 23.418L12.8516 21.2891C12.8516 21.0742 12.8125 20.9375 12.6562 20.7812L11.1328 19.2578C10.0586 18.1641 10.0586 17.168 11.1328 16.0742L12.6562 14.5508C12.8125 14.4141 12.8516 14.2578 12.8516 14.0625L12.8516 11.9336C12.8516 10.3711 13.5547 9.6875 15.0977 9.6875L17.2461 9.6875C17.4609 9.6875 17.5977 9.60938 17.7539 9.45312L19.2773 7.96875C20.3516 6.85547 21.3672 6.83594 22.4609 7.96875L23.9844 9.45312C24.1406 9.57031 24.2578 9.6875 24.4922 9.6875L26.582 9.6875C28.1445 9.6875 28.8477 10.3906 28.8477 11.9336L28.8477 14.0625C28.8477 14.2578 28.8867 14.4141 29.0625 14.5508L30.5664 16.0742C31.6602 17.168 31.6602 18.1641 30.5664 19.2578L29.0625 20.7812C28.8867 20.9375 28.8477 21.0742 28.8477 21.2891L28.8477 23.418C28.8477 24.9609 28.125 25.6641 26.582 25.6641L24.4922 25.6641C24.2578 25.6641 24.1406 25.7617 23.9844 25.8789L22.4609 27.3828C21.3867 28.4766 20.3516 28.4961 19.2773 27.3828L17.7539 25.8789C17.5977 25.7422 17.4609 25.6641 17.2461 25.6641ZM19.8242 22.5586C20.1953 22.5586 20.5469 22.4219 20.7812 22.0117L25.3516 14.8633C25.4688 14.668 25.5859 14.3945 25.5859 14.1406C25.5859 13.5742 25.1172 13.2031 24.5898 13.2031C24.2383 13.2031 23.9258 13.418 23.7305 13.7695L19.7656 20L17.9688 17.793C17.6758 17.4609 17.4219 17.2852 17.1094 17.2852C16.4648 17.2852 16.0742 17.7734 16.0742 18.3398C16.0742 18.5742 16.1523 18.8477 16.3477 19.043L18.8477 22.0312C19.1602 22.3828 19.4336 22.5586 19.8242 22.5586ZM0 46.25C0 51.2891 2.51953 53.8477 7.51953 53.8477L34.4141 53.8477C39.4141 53.8477 41.9336 51.2891 41.9336 46.25L41.9336 7.61719C41.9336 2.57812 39.4141 0.0195312 34.4141 0.0195312L7.51953 0.0195312C2.51953 0.0195312 0 2.57812 0 7.61719Z" fill="black" fill-opacity="0.85"/>
 </g>
</svg>
