<?xml version="1.0" encoding="UTF-8"?>
<!--Generator: Apple Native CoreSVG 326-->
<!DOCTYPE svg
PUBLIC "-//W3C//DTD SVG 1.1//EN"
       "http://www.w3.org/Graphics/SVG/1.1/DTD/svg11.dtd">
<svg version="1.1" xmlns="http://www.w3.org/2000/svg" xmlns:xlink="http://www.w3.org/1999/xlink" viewBox="0 0 42.3047 53.8477">
 <g>
  <rect height="53.8477" opacity="0" width="42.3047" x="0" y="0"/>
  <path d="M11.0938 34.6875L30.918 34.6875C31.6992 34.6875 32.2852 34.082 32.2852 33.3203C32.2852 32.5586 31.6992 31.9727 30.918 31.9727L11.0938 31.9727C10.293 31.9727 9.70703 32.5586 9.70703 33.3203C9.70703 34.082 10.293 34.6875 11.0938 34.6875ZM11.0938 42.3438L20.5664 42.3438C21.3477 42.3438 21.9336 41.7578 21.9336 41.0156C21.9336 40.2539 21.3477 39.6484 20.5664 39.6484L11.0938 39.6484C10.293 39.6484 9.70703 40.2539 9.70703 41.0156C9.70703 41.7578 10.293 42.3438 11.0938 42.3438ZM15.3711 25.6445L17.4609 25.6445C17.6562 25.6445 17.793 25.7227 17.9492 25.8594L19.4336 27.3242C20.4883 28.418 21.4844 28.3984 22.5391 27.3242L24.0234 25.8594C24.1797 25.7422 24.2969 25.6445 24.5312 25.6445L26.582 25.6445C28.0859 25.6445 28.7891 24.9609 28.7891 23.457L28.7891 21.3672C28.7891 21.1719 28.8281 21.0352 28.9844 20.8789L30.4688 19.3945C31.5234 18.3203 31.5234 17.3633 30.4688 16.2891L28.9844 14.8047C28.8281 14.668 28.7891 14.5117 28.7891 14.3164L28.7891 12.2266C28.7891 10.7227 28.1055 10.0391 26.582 10.0391L24.5312 10.0391C24.2969 10.0391 24.1797 9.96094 24.0234 9.82422L22.5391 8.35938C21.4648 7.28516 20.4883 7.30469 19.4336 8.35938L17.9492 9.82422C17.793 9.98047 17.6562 10.0391 17.4609 10.0391L15.3711 10.0391C13.8672 10.0391 13.1641 10.7031 13.1641 12.2266L13.1641 14.3164C13.1641 14.5117 13.125 14.668 12.9883 14.8047L11.5039 16.2891C10.4297 17.3633 10.4297 18.3203 11.5039 19.3945L12.9883 20.8789C13.125 21.0352 13.1641 21.1719 13.1641 21.3672L13.1641 23.457C13.1641 24.9609 13.8672 25.6445 15.3711 25.6445ZM19.9609 22.6172C19.6094 22.6172 19.3164 22.4414 19.043 22.1094L16.5625 19.1797C16.4062 18.9844 16.3086 18.7305 16.3086 18.4961C16.3086 17.9492 16.6992 17.5 17.3047 17.5C17.6172 17.5 17.8906 17.6562 18.1445 17.9688L19.9219 20.1367L23.7891 14.0234C23.9844 13.6914 24.2969 13.4766 24.6289 13.4766C25.1367 13.4766 25.6055 13.8477 25.6055 14.3945C25.6055 14.6484 25.4883 14.9023 25.3711 15.0977L20.8984 22.0898C20.6641 22.4805 20.332 22.6172 19.9609 22.6172ZM0 46.25C0 51.2891 2.51953 53.8477 7.51953 53.8477L34.4141 53.8477C39.4141 53.8477 41.9336 51.2891 41.9336 46.25L41.9336 7.61719C41.9336 2.57812 39.4141 0.0195312 34.4141 0.0195312L7.51953 0.0195312C2.51953 0.0195312 0 2.57812 0 7.61719ZM3.45703 46.1719L3.45703 7.69531C3.45703 4.96094 4.90234 3.47656 7.71484 3.47656L34.2188 3.47656C37.0312 3.47656 38.4766 4.96094 38.4766 7.69531L38.4766 46.1719C38.4766 48.9062 37.0312 50.3906 34.2188 50.3906L7.71484 50.3906C4.90234 50.3906 3.45703 48.9062 3.45703 46.1719Z" fill="black" fill-opacity="0.85"/>
 </g>
</svg>
