<?xml version="1.0" encoding="UTF-8"?>
<!--Generator: Apple Native CoreSVG 326-->
<!DOCTYPE svg
PUBLIC "-//W3C//DTD SVG 1.1//EN"
       "http://www.w3.org/Graphics/SVG/1.1/DTD/svg11.dtd">
<svg version="1.1" xmlns="http://www.w3.org/2000/svg" xmlns:xlink="http://www.w3.org/1999/xlink" viewBox="0 0 59.5508 45.918">
 <g>
  <rect height="45.918" opacity="0" width="59.5508" x="0" y="0"/>
  <path d="M59.1797 7.53906L59.1797 38.3984C59.1797 43.3594 56.6211 45.918 51.5625 45.918L7.59766 45.918C2.55859 45.918 0 43.3984 0 38.3984L0 7.53906C0 2.53906 2.55859 0 7.59766 0L51.5625 0C56.6211 0 59.1797 2.55859 59.1797 7.53906ZM38.0078 12.9297L26.7188 30.8789L21.0938 23.8477C20.5859 23.1641 20.0977 22.9492 19.4727 22.9492C18.4961 22.9492 17.7539 23.75 17.7539 24.7266C17.7539 25.2148 17.9492 25.7031 18.2617 26.1328L24.9219 34.1797C25.4883 34.9023 26.0742 35.2148 26.8164 35.2148C27.5391 35.2148 28.1445 34.8633 28.5938 34.1797L40.8398 14.9805C41.0938 14.5703 41.3672 14.0625 41.3672 13.5938C41.3672 12.5977 40.4883 11.9336 39.5508 11.9336C38.9648 11.9336 38.418 12.2852 38.0078 12.9297Z" fill="black" fill-opacity="0.85"/>
 </g>
</svg>
