<?xml version="1.0" encoding="UTF-8"?>
<!--Generator: Apple Native CoreSVG 326-->
<!DOCTYPE svg
PUBLIC "-//W3C//DTD SVG 1.1//EN"
       "http://www.w3.org/Graphics/SVG/1.1/DTD/svg11.dtd">
<svg version="1.1" xmlns="http://www.w3.org/2000/svg" xmlns:xlink="http://www.w3.org/1999/xlink" viewBox="0 0 59.5508 45.918">
 <g>
  <rect height="45.918" opacity="0" width="59.5508" x="0" y="0"/>
  <path d="M7.59766 45.918L51.5625 45.918C56.6211 45.918 59.1797 43.3594 59.1797 38.3984L59.1797 7.53906C59.1797 2.55859 56.6211 0 51.5625 0L7.59766 0C2.55859 0 0 2.53906 0 7.53906L0 38.3984C0 43.3984 2.55859 45.918 7.59766 45.918ZM7.67578 42.4609C4.94141 42.4609 3.45703 41.0156 3.45703 38.2031L3.45703 7.71484C3.45703 4.92188 4.94141 3.45703 7.67578 3.45703L51.5039 3.45703C54.1797 3.45703 55.7031 4.92188 55.7031 7.71484L55.7031 38.2031C55.7031 41.0156 54.1797 42.4609 51.5039 42.4609Z" fill="black" fill-opacity="0.85"/>
  <path d="M26.875 34.9023C27.5781 34.9023 28.1641 34.5703 28.5938 33.9062L40.5859 15.1367C40.8203 14.7461 41.0938 14.2578 41.0938 13.7891C41.0938 12.832 40.2344 12.1875 39.3359 12.1875C38.7695 12.1875 38.2227 12.5391 37.832 13.1641L26.7773 30.7227L21.2695 23.8281C20.7812 23.1641 20.293 22.9688 19.6875 22.9688C18.75 22.9688 18.0273 23.7305 18.0273 24.6875C18.0273 25.1562 18.2227 25.625 18.5156 26.0352L25.0391 33.9062C25.5859 34.6094 26.1523 34.9023 26.875 34.9023Z" fill="black" fill-opacity="0.85"/>
 </g>
</svg>
