<?xml version="1.0" encoding="UTF-8"?>
<!--Generator: Apple Native CoreSVG 326-->
<!DOCTYPE svg
PUBLIC "-//W3C//DTD SVG 1.1//EN"
       "http://www.w3.org/Graphics/SVG/1.1/DTD/svg11.dtd">
<svg version="1.1" xmlns="http://www.w3.org/2000/svg" xmlns:xlink="http://www.w3.org/1999/xlink" viewBox="0 0 51.25 60.6221">
 <g>
  <rect height="60.6221" opacity="0" width="51.25" x="0" y="0"/>
  <path d="M25.4297 55.7309C39.4727 55.7309 50.8789 44.3442 50.8789 30.3013C50.8789 17.8403 41.875 7.48876 30.1562 5.32079L30.1562 1.59032C30.1562 0.00829228 29.0625-0.440926 27.793 0.457511L19.9023 6.00439C18.8281 6.7661 18.8477 7.84032 19.9023 8.56298L27.8125 14.1099C29.0625 14.9888 30.1562 14.5591 30.1562 12.977L30.1562 9.0122C39.9023 11.1606 47.2266 19.8325 47.2266 30.3013C47.2266 42.352 37.4805 52.0981 25.4297 52.0981C13.3789 52.0981 3.63281 42.352 3.63281 30.3013C3.63281 22.8208 7.42188 16.2388 13.125 12.3716C14.0039 11.7075 14.2773 10.6919 13.7305 9.79345C13.2227 8.93407 11.9922 8.68017 11.0352 9.38329C4.375 13.9731 0 21.5708 0 30.3013C0 44.3442 11.3867 55.7309 25.4297 55.7309Z" fill="black" fill-opacity="0.85"/>
  <path d="M22.6953 42.2544C23.418 42.2544 24.0039 41.9224 24.4336 41.2583L36.4062 22.4888C36.6602 22.0981 36.9141 21.6099 36.9141 21.1411C36.9141 20.1841 36.0547 19.5395 35.1758 19.5395C34.6094 19.5395 34.0625 19.8911 33.6719 20.5161L22.6172 38.0747L17.1094 31.1802C16.6016 30.5161 16.1133 30.3208 15.5273 30.3208C14.5898 30.3208 13.8477 31.0825 13.8477 32.0395C13.8477 32.5083 14.043 32.977 14.3555 33.3872L20.8789 41.2583C21.4258 41.9614 21.9727 42.2544 22.6953 42.2544Z" fill="black" fill-opacity="0.85"/>
 </g>
</svg>
