<?xml version="1.0" encoding="UTF-8"?>
<!--Generator: Apple Native CoreSVG 326-->
<!DOCTYPE svg
PUBLIC "-//W3C//DTD SVG 1.1//EN"
       "http://www.w3.org/Graphics/SVG/1.1/DTD/svg11.dtd">
<svg version="1.1" xmlns="http://www.w3.org/2000/svg" xmlns:xlink="http://www.w3.org/1999/xlink" viewBox="0 0 56.3477 50.8789">
 <g>
  <rect height="50.8789" opacity="0" width="56.3477" x="0" y="0"/>
  <path d="M28.8867 41.875L54.2188 41.875C55.1953 41.875 55.9766 41.1328 55.9766 40.1562C55.9766 39.1797 55.1953 38.418 54.2188 38.418L28.8867 38.418C27.9102 38.418 27.1484 39.1797 27.1484 40.1562C27.1484 41.1328 27.9102 41.875 28.8867 41.875Z" fill="black" fill-opacity="0.85"/>
  <path d="M10.7227 50.8789C16.5625 50.8789 21.4258 46.0156 21.4258 40.1562C21.4258 34.2773 16.5625 29.4336 10.7227 29.4336C4.82422 29.4336 0 34.2969 0 40.1562C0 46.0156 4.84375 50.8789 10.7227 50.8789ZM10.7227 47.7148C6.60156 47.7148 3.16406 44.2578 3.16406 40.1562C3.16406 36.0547 6.62109 32.5781 10.7227 32.5781C14.8047 32.5781 18.2617 36.0547 18.2617 40.1562C18.2617 44.2578 14.8047 47.7148 10.7227 47.7148Z" fill="black" fill-opacity="0.85"/>
  <path d="M28.8867 12.5391L54.2188 12.5391C55.1953 12.5391 55.9766 11.7969 55.9766 10.8008C55.9766 9.82422 55.1953 9.08203 54.2188 9.08203L28.8867 9.08203C27.9102 9.08203 27.1484 9.82422 27.1484 10.8008C27.1484 11.7969 27.9102 12.5391 28.8867 12.5391Z" fill="black" fill-opacity="0.85"/>
  <path d="M10.7227 21.5234C16.5625 21.5234 21.4258 16.6602 21.4258 10.7812C21.4258 4.92188 16.5625 0.078125 10.7227 0.078125C4.82422 0.078125 0 4.92188 0 10.7812C0 16.6406 4.84375 21.5234 10.7227 21.5234ZM10.7227 18.3594C6.60156 18.3594 3.16406 14.9023 3.16406 10.7812C3.16406 6.67969 6.62109 3.22266 10.7227 3.22266C14.8047 3.22266 18.2617 6.69922 18.2617 10.7812C18.2617 14.9023 14.8047 18.3594 10.7227 18.3594Z" fill="black" fill-opacity="0.85"/>
 </g>
</svg>
