<?xml version="1.0" encoding="UTF-8"?>
<!--Generator: Apple Native CoreSVG 326-->
<!DOCTYPE svg
PUBLIC "-//W3C//DTD SVG 1.1//EN"
       "http://www.w3.org/Graphics/SVG/1.1/DTD/svg11.dtd">
<svg version="1.1" xmlns="http://www.w3.org/2000/svg" xmlns:xlink="http://www.w3.org/1999/xlink" viewBox="0 0 43.0273 25.7227">
 <g>
  <rect height="25.7227" opacity="0" width="43.0273" x="0" y="0"/>
  <path d="M0.585938 20.7227C0.234375 21.0742 0 21.5625 0 22.1094C0 23.2227 0.839844 24.0625 1.95312 24.0625C2.48047 24.0625 2.98828 23.8672 3.32031 23.4961L22.5391 3.53516L20.1367 3.53516L39.3164 23.4961C39.668 23.8672 40.1953 24.0625 40.7031 24.0625C41.8164 24.0625 42.6562 23.2227 42.6562 22.1094C42.6562 21.5625 42.4414 21.0938 42.0703 20.7227L22.8125 0.664062C22.4219 0.253906 21.8945 0 21.3281 0C20.7617 0 20.2539 0.234375 19.8438 0.664062Z" fill="black" fill-opacity="0.85"/>
 </g>
</svg>
