<?xml version="1.0" encoding="UTF-8"?>
<!--Generator: Apple Native CoreSVG 326-->
<!DOCTYPE svg
PUBLIC "-//W3C//DTD SVG 1.1//EN"
       "http://www.w3.org/Graphics/SVG/1.1/DTD/svg11.dtd">
<svg version="1.1" xmlns="http://www.w3.org/2000/svg" xmlns:xlink="http://www.w3.org/1999/xlink" viewBox="0 0 30.0977 42.6367">
 <g>
  <rect height="42.6367" opacity="0" width="30.0977" x="0" y="0"/>
  <path d="M30.0977 21.3086C30.0977 20.7422 29.8828 20.2734 29.4727 19.8828L9.39453 0.566406C9.02344 0.195312 8.55469 0 8.00781 0C6.91406 0 6.05469 0.820312 6.05469 1.93359C6.05469 2.46094 6.26953 2.94922 6.62109 3.30078L25.332 21.3086L6.62109 39.2969C6.26953 39.6484 6.05469 40.1172 6.05469 40.6641C6.05469 41.7773 6.91406 42.6172 8.00781 42.6172C8.55469 42.6172 9.02344 42.4023 9.39453 42.0508L29.4727 22.7344C29.8828 22.3242 30.0977 21.8555 30.0977 21.3086Z" fill="black" fill-opacity="0.85"/>
 </g>
</svg>
