<?xml version="1.0" encoding="UTF-8"?>
<!--Generator: Apple Native CoreSVG 326-->
<!DOCTYPE svg
PUBLIC "-//W3C//DTD SVG 1.1//EN"
       "http://www.w3.org/Graphics/SVG/1.1/DTD/svg11.dtd">
<svg version="1.1" xmlns="http://www.w3.org/2000/svg" xmlns:xlink="http://www.w3.org/1999/xlink" viewBox="0 0 46.2891 45.918">
 <g>
  <rect height="45.918" opacity="0" width="46.2891" x="0" y="0"/>
  <path d="M7.59766 45.918L38.3008 45.918C43.3594 45.918 45.918 43.3594 45.918 38.3984L45.918 7.53906C45.918 2.55859 43.3594 0 38.3008 0L7.59766 0C2.55859 0 0 2.53906 0 7.53906L0 38.3984C0 43.3984 2.55859 45.918 7.59766 45.918ZM7.67578 42.4609C4.94141 42.4609 3.45703 41.0156 3.45703 38.2031L3.45703 7.71484C3.45703 4.92188 4.94141 3.45703 7.67578 3.45703L38.2422 3.45703C40.918 3.45703 42.4609 4.92188 42.4609 7.71484L42.4609 38.2031C42.4609 41.0156 40.918 42.4609 38.2422 42.4609Z" fill="black" fill-opacity="0.85"/>
  <path d="M23.3203 8.14453C22.9102 8.14453 22.5 8.35938 22.168 8.67188L12.7344 17.7734C12.4609 18.0273 12.2852 18.3984 12.2852 18.8672C12.2852 19.707 12.9492 20.3711 13.8086 20.3711C14.1211 20.3711 14.5703 20.2734 14.9023 19.9414L23.3203 11.6797L31.7578 19.9414C32.0898 20.2539 32.5 20.3711 32.8711 20.3711C33.7109 20.3711 34.375 19.707 34.375 18.8672C34.375 18.3984 34.1797 18.0273 33.9062 17.7734L24.4922 8.67188C24.1602 8.35938 23.75 8.14453 23.3203 8.14453ZM23.3203 37.7344C23.75 37.7344 24.1797 37.5195 24.4922 37.2266L33.9062 28.125C34.1797 27.8711 34.375 27.4805 34.375 27.0117C34.375 26.1914 33.7109 25.5078 32.8711 25.5078C32.5 25.5078 32.0898 25.6445 31.7578 25.957L23.3203 34.1992L14.9023 25.957C14.5703 25.625 14.1211 25.5078 13.8086 25.5078C12.9492 25.5078 12.2852 26.1914 12.2852 27.0117C12.2852 27.4805 12.4609 27.8711 12.7344 28.125L22.168 37.2266C22.4805 37.5195 22.9102 37.7344 23.3203 37.7344Z" fill="black" fill-opacity="0.85"/>
 </g>
</svg>
