<?xml version="1.0" encoding="UTF-8"?>
<!--Generator: Apple Native CoreSVG 326-->
<!DOCTYPE svg
PUBLIC "-//W3C//DTD SVG 1.1//EN"
       "http://www.w3.org/Graphics/SVG/1.1/DTD/svg11.dtd">
<svg version="1.1" xmlns="http://www.w3.org/2000/svg" xmlns:xlink="http://www.w3.org/1999/xlink" viewBox="0 0 32.8125 44.2383">
 <g>
  <rect height="44.2383" opacity="0" width="32.8125" x="0" y="0"/>
  <path d="M22.8125 44.1211C23.5547 44.1211 24.2969 43.6133 24.6094 42.7734L31.6016 25.1367C31.9922 24.1602 32.4414 22.9883 32.4414 22.0508C32.4414 21.1328 31.9922 19.9219 31.6016 18.9648L24.6094 1.32812C24.2969 0.507812 23.5547 0 22.8125 0C21.5625 0 20.625 0.917969 20.625 2.14844C20.625 2.75391 20.9766 3.59375 21.1719 4.14062L28.8672 23.5156L28.8672 20.5859L21.1719 39.9609C20.9766 40.5078 20.625 41.3281 20.625 41.9727C20.625 43.2031 21.5625 44.1211 22.8125 44.1211ZM9.64844 44.1211C10.8789 44.1211 11.8164 43.2031 11.8164 41.9727C11.8164 41.3281 11.4648 40.5078 11.2695 39.9609L3.57422 20.5859L3.57422 23.5156L11.2695 4.14062C11.4648 3.59375 11.8164 2.75391 11.8164 2.14844C11.8164 0.917969 10.8789 0 9.64844 0C8.88672 0 8.16406 0.507812 7.83203 1.32812L0.839844 18.9648C0.449219 19.9219 0 21.1328 0 22.0508C0 22.9883 0.449219 24.1602 0.839844 25.1367L7.83203 42.7734C8.16406 43.6133 8.88672 44.1211 9.64844 44.1211Z" fill="black" fill-opacity="0.85"/>
 </g>
</svg>
