<?xml version="1.0" encoding="UTF-8"?>
<!--Generator: Apple Native CoreSVG 326-->
<!DOCTYPE svg
PUBLIC "-//W3C//DTD SVG 1.1//EN"
       "http://www.w3.org/Graphics/SVG/1.1/DTD/svg11.dtd">
<svg version="1.1" xmlns="http://www.w3.org/2000/svg" xmlns:xlink="http://www.w3.org/1999/xlink" viewBox="0 0 46.2891 45.918">
 <g>
  <rect height="45.918" opacity="0" width="46.2891" x="0" y="0"/>
  <path d="M45.918 7.53906L45.918 38.3984C45.918 43.3594 43.3594 45.918 38.3008 45.918L7.59766 45.918C2.55859 45.918 0 43.3984 0 38.3984L0 7.53906C0 2.53906 2.55859 0 7.59766 0L38.3008 0C43.3594 0 45.918 2.55859 45.918 7.53906ZM20.7812 15.5078L10.332 26.5234C9.62891 27.2266 9.62891 28.2812 10.2539 28.8867C10.9375 29.5898 12.0117 29.5898 12.6562 28.9062L22.9883 18.0664L33.3203 28.9062C33.9453 29.5898 35.0391 29.5898 35.7227 28.8867C36.3477 28.2812 36.3281 27.2266 35.6445 26.5234L25.1758 15.5078C23.7695 14.043 22.1875 14.043 20.7812 15.5078Z" fill="black" fill-opacity="0.85"/>
 </g>
</svg>
