<?xml version="1.0" encoding="UTF-8"?>
<!--Generator: Apple Native CoreSVG 326-->
<!DOCTYPE svg
PUBLIC "-//W3C//DTD SVG 1.1//EN"
       "http://www.w3.org/Graphics/SVG/1.1/DTD/svg11.dtd">
<svg version="1.1" xmlns="http://www.w3.org/2000/svg" xmlns:xlink="http://www.w3.org/1999/xlink" viewBox="0 0 53.3398 52.9883">
 <g>
  <rect height="52.9883" opacity="0" width="53.3398" x="0" y="0"/>
  <path d="M16.6016 7.85156C17.2461 7.85156 18.0664 7.51953 18.6133 7.30469L27.9297 3.59375L25 3.59375L34.3555 7.30469C34.9023 7.51953 35.7031 7.85156 36.3477 7.85156C37.5781 7.85156 38.4961 6.91406 38.4961 5.68359C38.4961 4.92188 38.0078 4.19922 37.168 3.86719L29.5508 0.839844C28.5938 0.449219 27.4023 0 26.4648 0C25.5469 0 24.3945 0.429688 23.3789 0.839844L15.8008 3.86719C14.9609 4.19922 14.4727 4.92188 14.4727 5.68359C14.4727 6.91406 15.3711 7.85156 16.6016 7.85156ZM47.3047 38.4961C48.0469 38.4961 48.7891 38.0078 49.1016 37.168L52.1289 29.5508C52.5195 28.5938 52.9688 27.4023 52.9688 26.4648C52.9688 25.5469 52.5391 24.4141 52.1289 23.3789L49.1016 15.8008C48.7695 14.9609 48.0469 14.4727 47.3047 14.4727C46.0547 14.4727 45.1172 15.3906 45.1172 16.6211C45.1172 17.2461 45.4688 18.0664 45.6641 18.6133L49.3945 27.9492L49.3945 25L45.6641 34.3555C45.4688 34.9023 45.1172 35.7227 45.1172 36.3477C45.1172 37.5977 46.0547 38.4961 47.3047 38.4961ZM26.4648 52.9688C27.4023 52.9688 28.5938 52.5195 29.5508 52.1484L37.168 49.1211C38.0078 48.7891 38.4961 48.0664 38.4961 47.3047C38.4961 46.0547 37.5781 45.1367 36.3477 45.1367C35.7031 45.1367 34.9023 45.4688 34.3555 45.6836L25 49.3945L27.9297 49.3945L18.6133 45.6836C18.0664 45.4688 17.2461 45.1367 16.6016 45.1367C15.3711 45.1367 14.4727 46.0547 14.4727 47.3047C14.4727 48.0664 14.9609 48.7695 15.8008 49.1211L23.3789 52.1484C24.3945 52.5391 25.5469 52.9688 26.4648 52.9688ZM5.66406 38.4961C6.91406 38.4961 7.85156 37.5977 7.85156 36.3477C7.85156 35.7227 7.5 34.9023 7.30469 34.3555L3.57422 25L3.57422 27.9492L7.30469 18.6133C7.5 18.0664 7.85156 17.2461 7.85156 16.6211C7.85156 15.3906 6.91406 14.4727 5.66406 14.4727C4.92188 14.4727 4.19922 14.9609 3.86719 15.8008L0.839844 23.3789C0.429688 24.4141 0 25.5469 0 26.4648C0 27.4023 0.449219 28.5938 0.839844 29.5508L3.86719 37.168C4.17969 38.0078 4.92188 38.4961 5.66406 38.4961Z" fill="black" fill-opacity="0.85"/>
 </g>
</svg>
