<?xml version="1.0" encoding="UTF-8"?>
<!--Generator: Apple Native CoreSVG 326-->
<!DOCTYPE svg
PUBLIC "-//W3C//DTD SVG 1.1//EN"
       "http://www.w3.org/Graphics/SVG/1.1/DTD/svg11.dtd">
<svg version="1.1" xmlns="http://www.w3.org/2000/svg" xmlns:xlink="http://www.w3.org/1999/xlink" viewBox="0 0 44.7461 42.9102">
 <g>
  <rect height="42.9102" opacity="0" width="44.7461" x="0" y="0"/>
  <path d="M42.2852 5.72266C43.4375 5.72266 44.375 4.78516 44.375 3.63281C44.375 2.46094 43.4375 1.52344 42.2852 1.52344C41.1133 1.52344 40.1758 2.46094 40.1758 3.63281C40.1758 4.78516 41.1133 5.72266 42.2852 5.72266ZM37.8516 10.1758C39.0234 10.1758 39.9609 9.23828 39.9609 8.08594C39.9609 6.91406 39.0234 5.99609 37.8516 5.99609C36.6992 5.99609 35.7617 6.91406 35.7617 8.08594C35.7617 9.23828 36.6992 10.1758 37.8516 10.1758ZM33.4375 14.6484C34.5898 14.6484 35.5273 13.7109 35.5273 12.5391C35.5273 11.3867 34.5898 10.4492 33.4375 10.4492C32.2656 10.4492 31.3281 11.3867 31.3281 12.5391C31.3281 13.7109 32.2656 14.6484 33.4375 14.6484ZM29.0039 19.1016C30.1562 19.1016 31.0938 18.1641 31.0938 16.9922C31.0938 15.8398 30.1562 14.9023 29.0039 14.9023C27.832 14.9023 26.9141 15.8398 26.9141 16.9922C26.9141 18.1641 27.832 19.1016 29.0039 19.1016ZM24.5703 23.5547C25.7422 23.5547 26.6797 22.6172 26.6797 21.4648C26.6797 20.293 25.7422 19.3555 24.5703 19.3555C23.418 19.3555 22.4805 20.293 22.4805 21.4648C22.4805 22.6172 23.418 23.5547 24.5703 23.5547ZM29.0039 28.0078C30.1562 28.0078 31.0938 27.0703 31.0938 25.918C31.0938 24.7461 30.1562 23.8281 29.0039 23.8281C27.832 23.8281 26.9141 24.7461 26.9141 25.918C26.9141 27.0703 27.832 28.0078 29.0039 28.0078ZM33.4375 32.4805C34.5898 32.4805 35.5273 31.543 35.5273 30.3711C35.5273 29.2188 34.5898 28.2812 33.4375 28.2812C32.2656 28.2812 31.3281 29.2188 31.3281 30.3711C31.3281 31.543 32.2656 32.4805 33.4375 32.4805ZM37.8516 36.9336C39.0234 36.9336 39.9609 35.9961 39.9609 34.8242C39.9609 33.6719 39.0234 32.7344 37.8516 32.7344C36.6992 32.7344 35.7617 33.6719 35.7617 34.8242C35.7617 35.9961 36.6992 36.9336 37.8516 36.9336ZM42.2852 41.3867C43.4375 41.3867 44.375 40.4492 44.375 39.2969C44.375 38.125 43.4375 37.1875 42.2852 37.1875C41.1133 37.1875 40.1758 38.125 40.1758 39.2969C40.1758 40.4492 41.1133 41.3867 42.2852 41.3867Z" fill="black" fill-opacity="0.85"/>
  <path d="M22.1094 42.6562C23.2227 42.6562 24.0625 41.8164 24.0625 40.7227C24.0625 40.1758 23.8477 39.6875 23.4961 39.3359L3.53516 20.1367L3.53516 22.5195L23.4961 3.33984C23.8477 2.96875 24.0625 2.46094 24.0625 1.95312C24.0625 0.839844 23.2227 0 22.1094 0C21.5625 0 21.1133 0.214844 20.7422 0.585938L0.683594 19.8438C0.253906 20.2344 0 20.7812 0 21.3477C0 21.9141 0.234375 22.4023 0.664062 22.8125L20.7227 42.0703C21.0938 42.4414 21.5625 42.6562 22.1094 42.6562Z" fill="black" fill-opacity="0.85"/>
 </g>
</svg>
