<?xml version="1.0" encoding="UTF-8"?>
<!--Generator: Apple Native CoreSVG 326-->
<!DOCTYPE svg
PUBLIC "-//W3C//DTD SVG 1.1//EN"
       "http://www.w3.org/Graphics/SVG/1.1/DTD/svg11.dtd">
<svg version="1.1" xmlns="http://www.w3.org/2000/svg" xmlns:xlink="http://www.w3.org/1999/xlink" viewBox="0 0 46.9531 42.7148">
 <g>
  <rect height="42.7148" opacity="0" width="46.9531" x="0" y="0"/>
  <path d="M24.4727 42.6562C25.0195 42.6562 25.4883 42.4414 25.8594 42.0703L45.918 22.8125C46.3477 22.4023 46.582 21.9141 46.582 21.3477C46.582 20.7812 46.3281 20.2344 45.8984 19.8438L25.8398 0.585938C25.4688 0.214844 25.0195 0 24.4727 0C23.3594 0 22.5195 0.839844 22.5195 1.95312C22.5195 2.46094 22.7344 2.96875 23.0664 3.33984L43.0469 22.5195L43.0469 20.1367L23.0664 39.3359C22.7344 39.6875 22.5195 40.1758 22.5195 40.7227C22.5195 41.8164 23.3594 42.6562 24.4727 42.6562Z" fill="black" fill-opacity="0.85"/>
  <path d="M1.95312 42.6562C2.5 42.6562 2.96875 42.4414 3.33984 42.0703L23.3984 22.8125C23.8281 22.4023 24.0625 21.9141 24.0625 21.3477C24.0625 20.7812 23.8086 20.2344 23.3789 19.8438L3.32031 0.585938C2.94922 0.214844 2.5 0 1.95312 0C0.839844 0 0 0.839844 0 1.95312C0 2.46094 0.214844 2.96875 0.546875 3.33984L20.5273 22.5195L20.5273 20.1367L0.546875 39.3359C0.214844 39.6875 0 40.1758 0 40.7227C0 41.8164 0.839844 42.6562 1.95312 42.6562Z" fill="black" fill-opacity="0.85"/>
 </g>
</svg>
