<?xml version="1.0" encoding="UTF-8"?>
<!--Generator: Apple Native CoreSVG 326-->
<!DOCTYPE svg
PUBLIC "-//W3C//DTD SVG 1.1//EN"
       "http://www.w3.org/Graphics/SVG/1.1/DTD/svg11.dtd">
<svg version="1.1" xmlns="http://www.w3.org/2000/svg" xmlns:xlink="http://www.w3.org/1999/xlink" viewBox="0 0 43.0273 46.6211">
 <g>
  <rect height="46.6211" opacity="0" width="43.0273" x="0" y="0"/>
  <path d="M0.585938 43.2422C0.234375 43.6328 0 44.1016 0 44.6484C0 45.7422 0.839844 46.582 1.95312 46.582C2.48047 46.582 2.96875 46.3867 3.32031 46.0352L22.5391 26.0742L20.1367 26.0742L39.3164 46.0352C39.6875 46.3867 40.1953 46.582 40.7031 46.582C41.8164 46.582 42.6562 45.7422 42.6562 44.6484C42.6562 44.1016 42.4414 43.6328 42.0703 43.2617L22.8125 23.2031C22.4219 22.7734 21.8945 22.5195 21.3281 22.5195C20.7617 22.5195 20.2734 22.7734 19.8438 23.1836Z" fill="black" fill-opacity="0.85"/>
  <path d="M0.585938 20.7227C0.234375 21.0938 0 21.5625 0 22.1094C0 23.2227 0.839844 24.0625 1.95312 24.0625C2.48047 24.0625 2.96875 23.8477 3.32031 23.4961L22.5391 3.53516L20.1367 3.53516L39.3164 23.4961C39.6875 23.8477 40.1953 24.0625 40.7031 24.0625C41.8164 24.0625 42.6562 23.2227 42.6562 22.1094C42.6562 21.5625 42.4414 21.1133 42.0703 20.7422L22.8125 0.683594C22.4023 0.273438 21.8945 0 21.3281 0C20.7617 0 20.2734 0.234375 19.8438 0.664062Z" fill="black" fill-opacity="0.85"/>
 </g>
</svg>
