<?xml version="1.0" encoding="UTF-8"?>
<!--Generator: Apple Native CoreSVG 326-->
<!DOCTYPE svg
PUBLIC "-//W3C//DTD SVG 1.1//EN"
       "http://www.w3.org/Graphics/SVG/1.1/DTD/svg11.dtd">
<svg version="1.1" xmlns="http://www.w3.org/2000/svg" xmlns:xlink="http://www.w3.org/1999/xlink" viewBox="0 0 54.6631 54.3359">
 <g>
  <rect height="54.3359" opacity="0" width="54.6631" x="0" y="0"/>
  <path d="M28.6304 0.673828C27.732-0.205078 26.5405-0.205078 25.6226 0.673828L17.0874 9.18945C16.2476 10.0293 16.228 10.9863 17.0874 11.8262C17.9468 12.6855 18.8452 12.6855 19.7437 11.7871L27.1265 4.4043L34.5093 11.7871C35.3882 12.6465 36.3257 12.666 37.1655 11.8262C38.0054 10.9863 37.9859 10.0293 37.146 9.18945ZM42.4976 37.1777C43.3374 38.0566 44.2945 37.998 45.1538 37.1582L53.6499 28.6621C54.5093 27.7832 54.5093 26.5137 53.6695 25.6738L45.1148 17.0801C44.2163 16.1816 43.2593 16.2012 42.4585 17.0605C41.5991 17.9004 41.5796 18.8574 42.4585 19.7168L49.9195 27.1582L42.5171 34.541C41.6773 35.4004 41.6773 36.3379 42.4976 37.1777ZM25.6226 53.6621C26.521 54.5605 27.7124 54.5605 28.6304 53.6621L37.1655 45.1465C38.0054 44.3066 38.0249 43.3691 37.1655 42.5098C36.3062 41.6504 35.4077 41.6699 34.5093 42.5488L27.1265 49.9316L19.6851 42.4902C18.7866 41.6113 17.8687 41.5918 17.0093 42.4512C16.189 43.3105 16.2085 44.248 17.0484 45.0879ZM11.8335 37.2559C12.7124 36.416 12.7124 35.459 11.8335 34.5801L4.37258 27.1582L11.7945 19.7363C12.6343 18.8965 12.6343 17.959 11.814 17.1191C10.9546 16.2598 9.99758 16.2793 9.15774 17.1387L0.661642 25.6543C-0.217265 26.5137-0.217265 27.7832 0.64211 28.6426L9.1968 37.2363C10.0757 38.1152 11.0327 38.1152 11.8335 37.2559Z" fill="black" fill-opacity="0.85"/>
 </g>
</svg>
