<?xml version="1.0" encoding="UTF-8"?>
<!--Generator: Apple Native CoreSVG 326-->
<!DOCTYPE svg
PUBLIC "-//W3C//DTD SVG 1.1//EN"
       "http://www.w3.org/Graphics/SVG/1.1/DTD/svg11.dtd">
<svg version="1.1" xmlns="http://www.w3.org/2000/svg" xmlns:xlink="http://www.w3.org/1999/xlink" viewBox="0 0 51.25 50.918">
 <g>
  <rect height="50.918" opacity="0" width="51.25" x="0" y="0"/>
  <path d="M50.8789 25.4492C50.8789 39.4531 39.4531 50.8789 25.4297 50.8789C11.4258 50.8789 0 39.4531 0 25.4492C0 11.4258 11.4258 0 25.4297 0C39.4531 0 50.8789 11.4258 50.8789 25.4492ZM23.2617 18.0078L12.793 29.0234C12.0898 29.7266 12.0898 30.7812 12.7148 31.3867C13.3984 32.0898 14.4727 32.0898 15.1172 31.4062L25.4492 20.5664L35.7812 31.4062C36.4062 32.0898 37.5 32.0898 38.1836 31.3867C38.8086 30.7812 38.7891 29.7266 38.1055 29.0234L27.6367 18.0078C26.2305 16.543 24.6484 16.543 23.2617 18.0078Z" fill="black" fill-opacity="0.85"/>
 </g>
</svg>
