<?xml version="1.0" encoding="UTF-8"?>
<!--Generator: Apple Native CoreSVG 326-->
<!DOCTYPE svg
PUBLIC "-//W3C//DTD SVG 1.1//EN"
       "http://www.w3.org/Graphics/SVG/1.1/DTD/svg11.dtd">
<svg version="1.1" xmlns="http://www.w3.org/2000/svg" xmlns:xlink="http://www.w3.org/1999/xlink" viewBox="0 0 51.25 50.918">
 <g>
  <rect height="50.918" opacity="0" width="51.25" x="0" y="0"/>
  <path d="M50.8789 25.4492C50.8789 39.4531 39.4531 50.8789 25.4297 50.8789C11.4258 50.8789 0 39.4531 0 25.4492C0 11.4258 11.4258 0 25.4297 0C39.4531 0 50.8789 11.4258 50.8789 25.4492ZM19.6484 12.7539C18.9648 13.418 18.9453 14.5117 19.6289 15.1562L30.4883 25.4688L19.6289 35.8008C18.9648 36.4258 18.9453 37.5 19.6289 38.1836C20.2148 38.75 21.3867 38.7305 22.0117 38.1055L33.0273 27.6562C34.2969 26.4844 34.2969 24.4727 33.0273 23.2812L22.0117 12.832C21.3281 12.168 20.293 12.1484 19.6484 12.7539Z" fill="black" fill-opacity="0.85"/>
 </g>
</svg>
