<?xml version="1.0" encoding="UTF-8"?>
<!--Generator: Apple Native CoreSVG 326-->
<!DOCTYPE svg
PUBLIC "-//W3C//DTD SVG 1.1//EN"
       "http://www.w3.org/Graphics/SVG/1.1/DTD/svg11.dtd">
<svg version="1.1" xmlns="http://www.w3.org/2000/svg" xmlns:xlink="http://www.w3.org/1999/xlink" viewBox="0 0 51.25 50.918">
 <g>
  <rect height="50.918" opacity="0" width="51.25" x="0" y="0"/>
  <path d="M25.4297 50.8789C39.4727 50.8789 50.8789 39.4922 50.8789 25.4492C50.8789 11.4062 39.4727 0 25.4297 0C11.3867 0 0 11.4062 0 25.4492C0 39.4922 11.3867 50.8789 25.4297 50.8789ZM25.4297 47.2461C13.3789 47.2461 3.63281 37.5 3.63281 25.4492C3.63281 13.3984 13.3789 3.65234 25.4297 3.65234C37.4805 3.65234 47.2266 13.3984 47.2266 25.4492C47.2266 37.5 37.4805 47.2461 25.4297 47.2461Z" fill="black" fill-opacity="0.85"/>
  <path d="M27.5586 33.6328L37.793 22.8906C38.4375 22.1875 38.4766 21.1914 37.8516 20.5664C37.1875 19.9023 36.1328 19.8633 35.5078 20.5469L25.4297 31.1328L15.3516 20.5469C14.7266 19.8633 13.6328 19.8828 13.0078 20.5664C12.4023 21.2109 12.4219 22.1875 13.0664 22.8906L23.3008 33.6328C24.6484 35.0781 26.2109 35.0586 27.5586 33.6328Z" fill="black" fill-opacity="0.85"/>
 </g>
</svg>
