<?xml version="1.0" encoding="UTF-8"?>
<!--Generator: Apple Native CoreSVG 326-->
<!DOCTYPE svg
PUBLIC "-//W3C//DTD SVG 1.1//EN"
       "http://www.w3.org/Graphics/SVG/1.1/DTD/svg11.dtd">
<svg version="1.1" xmlns="http://www.w3.org/2000/svg" xmlns:xlink="http://www.w3.org/1999/xlink" viewBox="0 0 33.8477 48.1055">
 <g>
  <rect height="48.1055" opacity="0" width="33.8477" x="0" y="0"/>
  <path d="M16.7383 0C16.1719 0 15.6641 0.253906 15.2344 0.683594L0.566406 14.7852C0.214844 15.1367 0 15.5859 0 16.2109C0 17.3047 0.839844 18.1445 1.95312 18.1445C2.40234 18.1445 2.91016 18.0078 3.37891 17.5586L16.7383 4.47266L30.0977 17.5586C30.5664 17.9883 31.0742 18.1445 31.5234 18.1445C32.6367 18.1445 33.4766 17.3047 33.4766 16.2109C33.4766 15.5859 33.2422 15.1367 32.9102 14.7852L18.2422 0.683594C17.8125 0.253906 17.3047 0 16.7383 0ZM16.7383 48.0664C17.3047 48.0664 17.8125 47.832 18.2422 47.4023L32.9102 33.2812C33.2422 32.9297 33.4766 32.4805 33.4766 31.875C33.4766 30.7617 32.6367 29.9414 31.5234 29.9414C31.0742 29.9414 30.5664 30.0781 30.0977 30.5078L16.7383 43.5938L3.37891 30.5078C2.91016 30.0586 2.40234 29.9414 1.95312 29.9414C0.839844 29.9414 0 30.7617 0 31.875C0 32.4805 0.214844 32.9297 0.566406 33.2812L15.2344 47.4023C15.6641 47.832 16.1719 48.0664 16.7383 48.0664Z" fill="black" fill-opacity="0.85"/>
 </g>
</svg>
