<?xml version="1.0" encoding="UTF-8"?>
<!--Generator: Apple Native CoreSVG 326-->
<!DOCTYPE svg
PUBLIC "-//W3C//DTD SVG 1.1//EN"
       "http://www.w3.org/Graphics/SVG/1.1/DTD/svg11.dtd">
<svg version="1.1" xmlns="http://www.w3.org/2000/svg" xmlns:xlink="http://www.w3.org/1999/xlink" viewBox="0 0 43.0273 46.6211">
 <g>
  <rect height="46.6211" opacity="0" width="43.0273" x="0" y="0"/>
  <path d="M0.585938 25.8594L19.8438 45.918C20.2734 46.3477 20.7617 46.582 21.3281 46.582C21.8945 46.582 22.4023 46.3086 22.8125 45.918L42.0703 25.8594C42.4414 25.4688 42.6562 25.0195 42.6562 24.4727C42.6562 23.3789 41.8164 22.5195 40.7031 22.5195C40.1953 22.5195 39.6875 22.7344 39.3164 23.0859L20.1367 43.0469L22.5391 43.0469L3.32031 23.0859C2.96875 22.7344 2.48047 22.5195 1.95312 22.5195C0.839844 22.5195 0 23.3789 0 24.4727C0 25.0195 0.234375 25.4883 0.585938 25.8594Z" fill="black" fill-opacity="0.85"/>
  <path d="M0.585938 3.33984L19.8438 23.3984C20.2734 23.8281 20.7617 24.0625 21.3281 24.0625C21.8945 24.0625 22.4219 23.8086 22.8125 23.3789L42.0703 3.32031C42.4414 2.94922 42.6562 2.5 42.6562 1.95312C42.6562 0.839844 41.8164 0 40.7031 0C40.1953 0 39.6875 0.214844 39.3164 0.546875L20.1367 20.5273L22.5391 20.5273L3.32031 0.546875C2.96875 0.214844 2.48047 0 1.95312 0C0.839844 0 0 0.839844 0 1.95312C0 2.5 0.234375 2.96875 0.585938 3.33984Z" fill="black" fill-opacity="0.85"/>
 </g>
</svg>
