<?xml version="1.0" encoding="UTF-8"?>
<!--Generator: Apple Native CoreSVG 326-->
<!DOCTYPE svg
PUBLIC "-//W3C//DTD SVG 1.1//EN"
       "http://www.w3.org/Graphics/SVG/1.1/DTD/svg11.dtd">
<svg version="1.1" xmlns="http://www.w3.org/2000/svg" xmlns:xlink="http://www.w3.org/1999/xlink" viewBox="0 0 70.6836 50.918">
 <g>
  <rect height="50.918" opacity="0" width="70.6836" x="0" y="0"/>
  <path d="M27.3242 48.7109C27.3242 49.8047 26.4453 50.6836 25.3516 50.6836C24.2773 50.6836 23.3789 49.8047 23.3789 48.7109C23.3789 47.6367 24.2773 46.7383 25.3516 46.7383C26.4453 46.7383 27.3242 47.6367 27.3242 48.7109ZM34.2438 48.5232C33.9045 49.1107 33.2697 49.5117 32.5391 49.5117C31.4648 49.5117 30.5664 48.6133 30.5664 47.5391C30.5664 47.2049 30.6503 46.8908 30.7982 46.6162C31.8834 47.3482 33.0318 47.9927 34.2438 48.5232ZM20.1367 47.5391C20.1367 48.6133 19.2578 49.5117 18.1641 49.5117C17.0898 49.5117 16.1914 48.6133 16.1914 47.5391C16.1914 46.4453 17.0898 45.5664 18.1641 45.5664C19.2578 45.5664 20.1367 46.4453 20.1367 47.5391ZM41.0352 44.2578C41.0352 45.332 40.1367 46.2305 39.0625 46.2305C37.9883 46.2305 37.0898 45.332 37.0898 44.2578C37.0898 43.1641 37.9883 42.2656 39.0625 42.2656C40.1367 42.2656 41.0352 43.1641 41.0352 44.2578ZM13.6328 44.2578C13.6328 45.332 12.7344 46.2305 11.6406 46.2305C10.5664 46.2305 9.66797 45.332 9.66797 44.2578C9.66797 43.1641 10.5664 42.2656 11.6406 42.2656C12.7344 42.2656 13.6328 43.1641 13.6328 44.2578ZM46.1914 39.1016C46.1914 40.1758 45.293 41.0742 44.2188 41.0742C43.125 41.0742 42.2266 40.1758 42.2266 39.1016C42.2266 38.0078 43.125 37.1289 44.2188 37.1289C45.293 37.1289 46.1914 38.0078 46.1914 39.1016ZM8.47656 39.1016C8.47656 40.1758 7.57812 41.0742 6.50391 41.0742C5.41016 41.0742 4.51172 40.1758 4.51172 39.1016C4.51172 38.0078 5.41016 37.1289 6.50391 37.1289C7.57812 37.1289 8.47656 38.0078 8.47656 39.1016ZM49.4727 32.6562C49.4727 33.75 48.5742 34.6484 47.5 34.6484C46.4258 34.6484 45.5273 33.75 45.5273 32.6562C45.5273 31.582 46.4258 30.6836 47.5 30.6836C48.5742 30.6836 49.4727 31.582 49.4727 32.6562ZM5.19531 32.6562C5.19531 33.75 4.29688 34.6484 3.20312 34.6484C2.12891 34.6484 1.23047 33.75 1.23047 32.6562C1.23047 31.582 2.12891 30.6836 3.20312 30.6836C4.29688 30.6836 5.19531 31.582 5.19531 32.6562ZM50.7031 25.4492C50.7031 26.543 49.8047 27.4414 48.7305 27.4414C47.6367 27.4414 46.7578 26.543 46.7578 25.4492C46.7578 24.375 47.6367 23.4766 48.7305 23.4766C49.8047 23.4766 50.7031 24.375 50.7031 25.4492ZM3.96484 25.4492C3.96484 26.543 3.06641 27.4414 1.97266 27.4414C0.898438 27.4414 0 26.543 0 25.4492C0 24.375 0.898438 23.4766 1.97266 23.4766C3.06641 23.4766 3.96484 24.375 3.96484 25.4492ZM49.4727 18.2422C49.4727 19.3359 48.5742 20.2344 47.5 20.2344C46.4258 20.2344 45.5273 19.3359 45.5273 18.2422C45.5273 17.168 46.4258 16.2695 47.5 16.2695C48.5742 16.2695 49.4727 17.168 49.4727 18.2422ZM5.19531 18.2422C5.19531 19.3359 4.29688 20.2344 3.20312 20.2344C2.12891 20.2344 1.23047 19.3359 1.23047 18.2422C1.23047 17.168 2.12891 16.2695 3.20312 16.2695C4.29688 16.2695 5.19531 17.168 5.19531 18.2422ZM46.1914 11.8164C46.1914 12.8906 45.293 13.7891 44.2188 13.7891C43.125 13.7891 42.2266 12.8906 42.2266 11.8164C42.2266 10.7227 43.125 9.82422 44.2188 9.82422C45.293 9.82422 46.1914 10.7227 46.1914 11.8164ZM8.47656 11.8164C8.47656 12.8906 7.57812 13.7891 6.50391 13.7891C5.41016 13.7891 4.51172 12.8906 4.51172 11.8164C4.51172 10.7227 5.41016 9.82422 6.50391 9.82422C7.57812 9.82422 8.47656 10.7227 8.47656 11.8164ZM41.0352 6.66016C41.0352 7.75391 40.1367 8.63281 39.0625 8.63281C37.9883 8.63281 37.0898 7.75391 37.0898 6.66016C37.0898 5.58594 37.9883 4.6875 39.0625 4.6875C40.1367 4.6875 41.0352 5.58594 41.0352 6.66016ZM13.6328 6.66016C13.6328 7.75391 12.7344 8.63281 11.6406 8.63281C10.5664 8.63281 9.66797 7.75391 9.66797 6.66016C9.66797 5.58594 10.5664 4.6875 11.6406 4.6875C12.7344 4.6875 13.6328 5.58594 13.6328 6.66016ZM20.1367 3.37891C20.1367 4.45312 19.2578 5.35156 18.1641 5.35156C17.0898 5.35156 16.1914 4.45312 16.1914 3.37891C16.1914 2.28516 17.0898 1.38672 18.1641 1.38672C19.2578 1.38672 20.1367 2.28516 20.1367 3.37891ZM34.2337 2.36414C33.022 2.89572 31.874 3.54146 30.789 4.2744C30.6466 4.00494 30.5664 3.69976 30.5664 3.37891C30.5664 2.28516 31.4648 1.38672 32.5391 1.38672C33.2627 1.38672 33.8923 1.77999 34.2337 2.36414ZM27.3242 2.1875C27.3242 3.28125 26.4453 4.17969 25.3516 4.17969C24.2773 4.17969 23.3789 3.28125 23.3789 2.1875C23.3789 1.11328 24.2773 0.214844 25.3516 0.214844C26.4453 0.214844 27.3242 1.11328 27.3242 2.1875Z" fill="black" fill-opacity="0.85"/>
  <path d="M44.8828 50.8789C58.9258 50.8789 70.3125 39.4922 70.3125 25.4492C70.3125 11.4062 58.9258 0 44.8828 0C30.8398 0 19.4531 11.4062 19.4531 25.4492C19.4531 39.4922 30.8398 50.8789 44.8828 50.8789ZM44.8828 47.2461C32.832 47.2461 23.0859 37.5 23.0859 25.4492C23.0859 13.3984 32.832 3.65234 44.8828 3.65234C56.9336 3.65234 66.6797 13.3984 66.6797 25.4492C66.6797 37.5 56.9336 47.2461 44.8828 47.2461Z" fill="black" fill-opacity="0.85"/>
 </g>
</svg>
