<?xml version="1.0" encoding="UTF-8"?>
<!--Generator: Apple Native CoreSVG 326-->
<!DOCTYPE svg
PUBLIC "-//W3C//DTD SVG 1.1//EN"
       "http://www.w3.org/Graphics/SVG/1.1/DTD/svg11.dtd">
<svg version="1.1" xmlns="http://www.w3.org/2000/svg" xmlns:xlink="http://www.w3.org/1999/xlink" viewBox="0 0 51.25 50.918">
 <g>
  <rect height="50.918" opacity="0" width="51.25" x="0" y="0"/>
  <path d="M50.8789 25.4688C50.8789 39.4922 39.4531 50.918 25.4297 50.918C11.4258 50.918 0 39.4922 0 25.4688C0 11.4648 11.4258 0.0390625 25.4297 0.0390625C39.4531 0.0390625 50.8789 11.4648 50.8789 25.4688ZM15.293 35.4883C15.293 38.0078 17.3242 40.0391 19.8242 40.0391C22.3242 40.0391 24.375 38.0078 24.375 35.4883C24.375 32.9883 22.3242 30.957 19.8242 30.957C17.3242 30.957 15.293 32.9883 15.293 35.4883ZM26.4258 35.4883C26.4258 38.0078 28.457 40.0391 30.957 40.0391C33.457 40.0391 35.5078 38.0078 35.5078 35.4883C35.5078 32.9883 33.457 30.957 30.957 30.957C28.457 30.957 26.4258 32.9883 26.4258 35.4883ZM9.76562 25.4688C9.76562 27.9688 11.7969 30.0195 14.2969 30.0195C16.7969 30.0195 18.8477 27.9688 18.8477 25.4688C18.8477 22.9688 16.7969 20.9375 14.2969 20.9375C11.7969 20.9375 9.76562 22.9688 9.76562 25.4688ZM20.8984 25.4688C20.8984 27.9688 22.9297 30.0195 25.4297 30.0195C27.9297 30.0195 29.9805 27.9688 29.9805 25.4688C29.9805 22.9688 27.9297 20.9375 25.4297 20.9375C22.9297 20.9375 20.8984 22.9688 20.8984 25.4688ZM32.0312 25.4688C32.0312 27.9688 34.0625 30.0195 36.5625 30.0195C39.0625 30.0195 41.1133 27.9688 41.1133 25.4688C41.1133 22.9688 39.0625 20.9375 36.5625 20.9375C34.0625 20.9375 32.0312 22.9688 32.0312 25.4688ZM15.293 15.4492C15.293 17.9492 17.3242 20 19.8242 20C22.3242 20 24.375 17.9492 24.375 15.4492C24.375 12.9492 22.3242 10.918 19.8242 10.918C17.3242 10.918 15.293 12.9492 15.293 15.4492ZM26.4258 15.4492C26.4258 17.9492 28.457 20 30.957 20C33.457 20 35.5078 17.9492 35.5078 15.4492C35.5078 12.9492 33.457 10.918 30.957 10.918C28.457 10.918 26.4258 12.9492 26.4258 15.4492Z" fill="black" fill-opacity="0.85"/>
 </g>
</svg>
