<?xml version="1.0" encoding="UTF-8"?>
<!--Generator: Apple Native CoreSVG 326-->
<!DOCTYPE svg
PUBLIC "-//W3C//DTD SVG 1.1//EN"
       "http://www.w3.org/Graphics/SVG/1.1/DTD/svg11.dtd">
<svg version="1.1" xmlns="http://www.w3.org/2000/svg" xmlns:xlink="http://www.w3.org/1999/xlink" viewBox="0 0 51.25 50.918">
 <g>
  <rect height="50.918" opacity="0" width="51.25" x="0" y="0"/>
  <path d="M25.4297 50.8789C39.4727 50.8789 50.8789 39.4922 50.8789 25.4492C50.8789 11.4062 39.4727 0 25.4297 0C11.3867 0 0 11.4062 0 25.4492C0 39.4922 11.3867 50.8789 25.4297 50.8789ZM25.4297 47.2461C13.3789 47.2461 3.63281 37.5 3.63281 25.4492C3.63281 13.3984 13.3789 3.65234 25.4297 3.65234C37.4805 3.65234 47.2266 13.3984 47.2266 25.4492C47.2266 37.5 37.4805 47.2461 25.4297 47.2461Z" fill="black" fill-opacity="0.85"/>
  <path d="M25.4102 15.8594C26.3867 15.8594 27.0898 15.1562 27.0898 14.1797C27.0898 13.2227 26.3867 12.5 25.4102 12.5C24.4531 12.5 23.7305 13.2227 23.7305 14.1797C23.7305 15.1562 24.4531 15.8594 25.4102 15.8594ZM31.0547 17.3828C32.0312 17.3828 32.7539 16.6602 32.7539 15.7031C32.7539 14.7266 32.0312 14.0234 31.0547 14.0234C30.0977 14.0234 29.375 14.7266 29.375 15.7031C29.375 16.6602 30.0977 17.3828 31.0547 17.3828ZM35.1953 21.5039C36.1523 21.5039 36.875 20.7812 36.875 19.8242C36.875 18.8672 36.1523 18.1445 35.1953 18.1445C34.2188 18.1445 33.5156 18.8672 33.5156 19.8242C33.5156 20.7812 34.2188 21.5039 35.1953 21.5039ZM36.6992 27.1484C37.6758 27.1484 38.3789 26.4453 38.3789 25.4688C38.3789 24.5117 37.6758 23.7891 36.6992 23.7891C35.7422 23.7891 35.0195 24.5117 35.0195 25.4688C35.0195 26.4453 35.7422 27.1484 36.6992 27.1484ZM35.1953 32.8125C36.1523 32.8125 36.875 32.0898 36.875 31.1328C36.875 30.1562 36.1523 29.4336 35.1953 29.4336C34.2188 29.4336 33.5156 30.1562 33.5156 31.1328C33.5156 32.0898 34.2188 32.8125 35.1953 32.8125ZM31.0547 36.9336C32.0312 36.9336 32.7539 36.2109 32.7539 35.2539C32.7539 34.2969 32.0312 33.5742 31.0547 33.5742C30.0977 33.5742 29.375 34.2969 29.375 35.2539C29.375 36.2109 30.0977 36.9336 31.0547 36.9336ZM25.4102 38.457C26.3867 38.457 27.0898 37.7344 27.0898 36.7578C27.0898 35.8008 26.3867 35.0781 25.4102 35.0781C24.4531 35.0781 23.7305 35.8008 23.7305 36.7578C23.7305 37.7344 24.4531 38.457 25.4102 38.457ZM19.7656 36.9336C20.7227 36.9336 21.4453 36.2109 21.4453 35.2539C21.4453 34.2969 20.7227 33.5742 19.7656 33.5742C18.8086 33.5742 18.0859 34.2969 18.0859 35.2539C18.0859 36.2109 18.8086 36.9336 19.7656 36.9336ZM15.625 32.8125C16.6016 32.8125 17.3242 32.0898 17.3242 31.1328C17.3242 30.1562 16.6016 29.4336 15.625 29.4336C14.668 29.4336 13.9453 30.1562 13.9453 31.1328C13.9453 32.0898 14.668 32.8125 15.625 32.8125ZM14.1211 27.1484C15.0781 27.1484 15.8008 26.4453 15.8008 25.4688C15.8008 24.5117 15.0781 23.7891 14.1211 23.7891C13.1641 23.7891 12.4414 24.5117 12.4414 25.4688C12.4414 26.4453 13.1641 27.1484 14.1211 27.1484ZM15.625 21.5039C16.6016 21.5039 17.3242 20.7812 17.3242 19.8242C17.3242 18.8672 16.6016 18.1445 15.625 18.1445C14.668 18.1445 13.9453 18.8672 13.9453 19.8242C13.9453 20.7812 14.668 21.5039 15.625 21.5039ZM19.7656 17.3828C20.7227 17.3828 21.4453 16.6602 21.4453 15.7031C21.4453 14.7266 20.7227 14.0234 19.7656 14.0234C18.8086 14.0234 18.0859 14.7266 18.0859 15.7031C18.0859 16.6602 18.8086 17.3828 19.7656 17.3828Z" fill="black" fill-opacity="0.85"/>
 </g>
</svg>
