<?xml version="1.0" encoding="UTF-8"?>
<!--Generator: Apple Native CoreSVG 326-->
<!DOCTYPE svg
PUBLIC "-//W3C//DTD SVG 1.1//EN"
       "http://www.w3.org/Graphics/SVG/1.1/DTD/svg11.dtd">
<svg version="1.1" xmlns="http://www.w3.org/2000/svg" xmlns:xlink="http://www.w3.org/1999/xlink" viewBox="0 0 51.25 50.918">
 <g>
  <rect height="50.918" opacity="0" width="51.25" x="0" y="0"/>
  <path d="M50.8789 25.4492C50.8789 39.4531 39.4531 50.8789 25.4297 50.8789C11.4258 50.8789 0 39.4531 0 25.4492C0 11.4258 11.4258 0 25.4297 0C39.4531 0 50.8789 11.4258 50.8789 25.4492ZM11.6406 25.4492C11.6406 33.0664 17.8125 39.2383 25.4297 39.2383C33.0664 39.2383 39.2188 33.0664 39.2188 25.4492C39.2188 17.8125 33.0664 11.6602 25.4297 11.6602C17.8125 11.6602 11.6406 17.8125 11.6406 25.4492ZM35.7617 25.4492C35.7617 31.1328 31.1328 35.7617 25.4297 35.7617C19.7266 35.7617 15.1172 31.1328 15.1172 25.4492C15.1172 19.7461 19.7266 15.1172 25.4297 15.1172C31.1328 15.1172 35.7617 19.7461 35.7617 25.4492Z" fill="black" fill-opacity="0.85"/>
 </g>
</svg>
