<?xml version="1.0" encoding="UTF-8"?>
<!--Generator: Apple Native CoreSVG 326-->
<!DOCTYPE svg
PUBLIC "-//W3C//DTD SVG 1.1//EN"
       "http://www.w3.org/Graphics/SVG/1.1/DTD/svg11.dtd">
<svg version="1.1" xmlns="http://www.w3.org/2000/svg" xmlns:xlink="http://www.w3.org/1999/xlink" viewBox="0 0 53.4375 49.2773">
 <g>
  <rect height="49.2773" opacity="0" width="53.4375" x="0" y="0"/>
  <path d="M35.6641 49.2578C40.2539 49.2578 43.9453 45.5664 43.9453 40.9766C43.9453 36.4062 40.2539 32.7148 35.6641 32.7148C31.0938 32.7148 27.4023 36.4062 27.4023 40.9766C27.4023 45.5664 31.0938 49.2578 35.6641 49.2578Z" fill="black" fill-opacity="0.85"/>
  <path d="M17.4023 49.2578C21.9727 49.2578 25.6641 45.5664 25.6641 40.9766C25.6641 36.4062 21.9727 32.7148 17.4023 32.7148C12.8125 32.7148 9.12109 36.4062 9.12109 40.9766C9.12109 45.5664 12.8125 49.2578 17.4023 49.2578Z" fill="black" fill-opacity="0.85"/>
  <path d="M44.7852 32.8906C49.375 32.8906 53.0664 29.1992 53.0664 24.6289C53.0664 20.0391 49.375 16.3477 44.7852 16.3477C40.2148 16.3477 36.5234 20.0391 36.5234 24.6289C36.5234 29.1992 40.2148 32.8906 44.7852 32.8906Z" fill="black" fill-opacity="0.85"/>
  <path d="M8.28125 32.8906C12.8516 32.8906 16.543 29.1992 16.543 24.6289C16.543 20.0391 12.8516 16.3477 8.28125 16.3477C3.69141 16.3477 0 20.0391 0 24.6289C0 29.1992 3.69141 32.8906 8.28125 32.8906Z" fill="black" fill-opacity="0.85"/>
  <path d="M35.6641 16.5625C40.2539 16.5625 43.9453 12.8516 43.9453 8.28125C43.9453 3.71094 40.2539 0 35.6641 0C31.0938 0 27.4023 3.71094 27.4023 8.28125C27.4023 12.8516 31.0938 16.5625 35.6641 16.5625Z" fill="black" fill-opacity="0.85"/>
  <path d="M17.4023 16.5625C21.9727 16.5625 25.6641 12.8516 25.6641 8.28125C25.6641 3.71094 21.9727 0 17.4023 0C12.8125 0 9.12109 3.71094 9.12109 8.28125C9.12109 12.8516 12.8125 16.5625 17.4023 16.5625Z" fill="black" fill-opacity="0.85"/>
  <path d="M26.543 32.8906C31.1133 32.8906 34.8047 29.1992 34.8047 24.6289C34.8047 20.0391 31.1133 16.3477 26.543 16.3477C21.9531 16.3477 18.2617 20.0391 18.2617 24.6289C18.2617 29.1992 21.9531 32.8906 26.543 32.8906Z" fill="black" fill-opacity="0.85"/>
 </g>
</svg>
