<?xml version="1.0" encoding="UTF-8"?>
<!--Generator: Apple Native CoreSVG 326-->
<!DOCTYPE svg
PUBLIC "-//W3C//DTD SVG 1.1//EN"
       "http://www.w3.org/Graphics/SVG/1.1/DTD/svg11.dtd">
<svg version="1.1" xmlns="http://www.w3.org/2000/svg" xmlns:xlink="http://www.w3.org/1999/xlink" viewBox="0 0 55.4102 54.9953">
 <g>
  <rect height="54.9953" opacity="0" width="55.4102" x="0" y="0"/>
  <path d="M42.0825 48.2986C37.9637 51.2125 32.9369 52.9176 27.5195 52.9176C13.4961 52.9176 2.08984 41.4918 2.08984 27.4879C2.08984 22.067 3.79426 17.0343 6.70935 12.9105ZM52.9492 27.4879C52.9492 32.9156 51.2357 37.9561 48.3056 42.0825L12.9138 6.69076C17.0399 3.75583 22.0831 2.03867 27.5195 2.03867C41.543 2.03867 52.9492 13.4645 52.9492 27.4879Z" fill="black" fill-opacity="0.85"/>
  <path d="M49.3945 51.7652C50.0586 52.4293 51.1328 52.4098 51.7578 51.7457C52.4219 51.0816 52.4023 50.0465 51.7578 49.402L5.58594 3.21054C4.94141 2.56601 3.88672 2.54648 3.20312 3.21054C2.57812 3.83554 2.57812 4.92929 3.20312 5.57383Z" fill="black" fill-opacity="0.85"/>
 </g>
</svg>
