<?xml version="1.0" encoding="UTF-8"?>
<!--Generator: Apple Native CoreSVG 326-->
<!DOCTYPE svg
PUBLIC "-//W3C//DTD SVG 1.1//EN"
       "http://www.w3.org/Graphics/SVG/1.1/DTD/svg11.dtd">
<svg version="1.1" xmlns="http://www.w3.org/2000/svg" xmlns:xlink="http://www.w3.org/1999/xlink" viewBox="0 0 51.25 50.918">
 <g>
  <rect height="50.918" opacity="0" width="51.25" x="0" y="0"/>
  <path d="M2.22656 25.4492C2.22656 38.457 12.4219 48.6523 25.4102 48.6523L25.4102 2.22656C12.4219 2.22656 2.22656 12.4414 2.22656 25.4492ZM24.1211 4.94141L33.7695 4.94141L33.7695 2.07031L24.1211 2.07031ZM24.1211 10.3125L42.5 10.3125L42.5 7.85156L24.1211 7.85156ZM24.1211 15.7031L46.1523 15.7031L46.1523 13.2422L24.1211 13.2422ZM24.1211 21.0938L48.6914 21.0938L48.6914 18.6133L24.1211 18.6133ZM24.1211 26.4844L48.6914 26.4844L48.6914 24.0039L24.1211 24.0039ZM24.1211 31.875L48.6914 31.875L48.6914 29.3945L24.1211 29.3945ZM24.1211 37.2461L46.1523 37.2461L46.1523 34.7852L24.1211 34.7852ZM24.1211 43.0273L42.5 43.0273L42.5 40.1758L24.1211 40.1758ZM24.1211 48.8281L33.7695 48.8281L33.7695 45.957L24.1211 45.957ZM25.4297 50.8789C39.4727 50.8789 50.8789 39.4922 50.8789 25.4492C50.8789 11.4062 39.4727 0 25.4297 0C11.3867 0 0 11.4062 0 25.4492C0 39.4922 11.3867 50.8789 25.4297 50.8789ZM25.4297 47.2461C13.3789 47.2461 3.63281 37.5 3.63281 25.4492C3.63281 13.3984 13.3789 3.65234 25.4297 3.65234C37.4805 3.65234 47.2266 13.3984 47.2266 25.4492C47.2266 37.5 37.4805 47.2461 25.4297 47.2461Z" fill="black" fill-opacity="0.85"/>
 </g>
</svg>
