<?xml version="1.0" encoding="UTF-8"?>
<!--Generator: Apple Native CoreSVG 326-->
<!DOCTYPE svg
PUBLIC "-//W3C//DTD SVG 1.1//EN"
       "http://www.w3.org/Graphics/SVG/1.1/DTD/svg11.dtd">
<svg version="1.1" xmlns="http://www.w3.org/2000/svg" xmlns:xlink="http://www.w3.org/1999/xlink" viewBox="0 0 41.8164 55.9961">
 <g>
  <rect height="55.9961" opacity="0" width="41.8164" x="0" y="0"/>
  <path d="M41.4453 6.64062L41.4453 49.3555C41.4453 53.3984 38.75 55.9961 34.5703 55.9961L6.875 55.9961C2.69531 55.9961 0 53.3984 0 49.3555L0 6.64062C0 2.59766 2.69531 0 6.875 0L34.5703 0C38.75 0 41.4453 2.59766 41.4453 6.64062ZM7.89062 27.9688C7.89062 35.0781 13.6523 40.8008 20.7227 40.8008C27.7734 40.8008 33.5547 35.0781 33.5547 27.9688C33.5547 20.918 27.7734 15.1758 20.7227 15.1758C13.6523 15.1758 7.89062 20.918 7.89062 27.9688Z" fill="black" fill-opacity="0.85"/>
 </g>
</svg>
