<?xml version="1.0" encoding="UTF-8"?>
<!--Generator: Apple Native CoreSVG 326-->
<!DOCTYPE svg
PUBLIC "-//W3C//DTD SVG 1.1//EN"
       "http://www.w3.org/Graphics/SVG/1.1/DTD/svg11.dtd">
<svg version="1.1" xmlns="http://www.w3.org/2000/svg" xmlns:xlink="http://www.w3.org/1999/xlink" viewBox="0 0 51.25 50.918">
 <g>
  <rect height="50.918" opacity="0" width="51.25" x="0" y="0"/>
  <path d="M50.8789 25.4492C50.8789 39.4531 39.4531 50.8789 25.4297 50.8789C11.4258 50.8789 0 39.4531 0 25.4492C0 11.4258 11.4258 0 25.4297 0C39.4531 0 50.8789 11.4258 50.8789 25.4492ZM23.7109 37.0508C23.7109 38.0273 24.4531 38.7695 25.4297 38.7695C26.4258 38.7695 27.1484 38.0273 27.1484 37.0508C27.1484 36.0547 26.4258 35.3125 25.4297 35.3125C24.4531 35.3125 23.7109 36.0547 23.7109 37.0508ZM29.4922 35.4883C29.4922 36.5039 30.2344 37.2266 31.2305 37.2266C32.207 37.2266 32.9492 36.5039 32.9492 35.4883C32.9492 34.5117 32.207 33.7695 31.2305 33.7695C30.2344 33.7695 29.4922 34.5117 29.4922 35.4883ZM17.9297 35.4883C17.9297 36.5039 18.6523 37.2266 19.6484 37.2266C20.625 37.2266 21.3672 36.5039 21.3672 35.4883C21.3672 34.5117 20.625 33.7695 19.6484 33.7695C18.6523 33.7695 17.9297 34.5117 17.9297 35.4883ZM33.7305 31.2695C33.7305 32.2461 34.4727 32.9883 35.4492 32.9883C36.4453 32.9883 37.1875 32.2461 37.1875 31.2695C37.1875 30.2734 36.4453 29.5508 35.4492 29.5508C34.4727 29.5508 33.7305 30.2734 33.7305 31.2695ZM13.6719 31.2695C13.6719 32.2461 14.4141 32.9883 15.4102 32.9883C16.4062 32.9883 17.1289 32.2461 17.1289 31.2695C17.1289 30.2734 16.4062 29.5508 15.4102 29.5508C14.4141 29.5508 13.6719 30.2734 13.6719 31.2695ZM35.2734 25.4688C35.2734 26.4648 36.0156 27.1875 36.9922 27.1875C37.9883 27.1875 38.7305 26.4648 38.7305 25.4688C38.7305 24.4922 37.9883 23.75 36.9922 23.75C36.0156 23.75 35.2734 24.4922 35.2734 25.4688ZM12.1484 25.4688C12.1484 26.4648 12.8906 27.1875 13.8672 27.1875C14.8438 27.1875 15.5859 26.4648 15.5859 25.4688C15.5859 24.4922 14.8438 23.75 13.8672 23.75C12.8906 23.75 12.1484 24.4922 12.1484 25.4688ZM33.7305 19.6875C33.7305 20.6641 34.4727 21.4062 35.4492 21.4062C36.4453 21.4062 37.1875 20.6641 37.1875 19.6875C37.1875 18.7109 36.4453 17.9688 35.4492 17.9688C34.4727 17.9688 33.7305 18.7109 33.7305 19.6875ZM13.6719 19.6875C13.6719 20.6641 14.4141 21.4062 15.4102 21.4062C16.4062 21.4062 17.1289 20.6641 17.1289 19.6875C17.1289 18.7109 16.4062 17.9688 15.4102 17.9688C14.4141 17.9688 13.6719 18.7109 13.6719 19.6875ZM29.4922 15.4492C29.4922 16.4453 30.2344 17.1875 31.2305 17.1875C32.207 17.1875 32.9492 16.4453 32.9492 15.4492C32.9492 14.4531 32.207 13.7109 31.2305 13.7109C30.2344 13.7109 29.4922 14.4531 29.4922 15.4492ZM17.9297 15.4492C17.9297 16.4453 18.6523 17.1875 19.6484 17.1875C20.625 17.1875 21.3672 16.4453 21.3672 15.4492C21.3672 14.4531 20.625 13.7109 19.6484 13.7109C18.6523 13.7109 17.9297 14.4531 17.9297 15.4492ZM23.7109 13.9062C23.7109 14.8828 24.4531 15.625 25.4297 15.625C26.4258 15.625 27.1484 14.8828 27.1484 13.9062C27.1484 12.9297 26.4258 12.1875 25.4297 12.1875C24.4531 12.1875 23.7109 12.9297 23.7109 13.9062Z" fill="black" fill-opacity="0.85"/>
 </g>
</svg>
