<?xml version="1.0" encoding="UTF-8"?>
<!--Generator: Apple Native CoreSVG 326-->
<!DOCTYPE svg
PUBLIC "-//W3C//DTD SVG 1.1//EN"
       "http://www.w3.org/Graphics/SVG/1.1/DTD/svg11.dtd">
<svg version="1.1" xmlns="http://www.w3.org/2000/svg" xmlns:xlink="http://www.w3.org/1999/xlink" viewBox="0 0 51.25 50.918">
 <g>
  <rect height="50.918" opacity="0" width="51.25" x="0" y="0"/>
  <path d="M11.9141 28.0078C11.0547 28.0078 10.4102 27.3438 10.4102 26.4844C10.4102 25.6445 11.0547 24.9805 11.9141 24.9805L23.9062 24.9805L23.9062 9.0625C23.9062 8.22266 24.5898 7.55859 25.4102 7.55859C26.2695 7.55859 26.9336 8.22266 26.9336 9.0625L26.9336 26.4844C26.9336 27.3438 26.2695 28.0078 25.4102 28.0078ZM25.4297 50.8789C39.4531 50.8789 50.8789 39.4531 50.8789 25.4492C50.8789 11.4258 39.4531 0 25.4297 0C11.4258 0 0 11.4258 0 25.4492C0 39.4531 11.4258 50.8789 25.4297 50.8789Z" fill="black" fill-opacity="0.85"/>
 </g>
</svg>
