<?xml version="1.0" encoding="UTF-8"?>
<!--Generator: Apple Native CoreSVG 326-->
<!DOCTYPE svg
PUBLIC "-//W3C//DTD SVG 1.1//EN"
       "http://www.w3.org/Graphics/SVG/1.1/DTD/svg11.dtd">
<svg version="1.1" xmlns="http://www.w3.org/2000/svg" xmlns:xlink="http://www.w3.org/1999/xlink" viewBox="0 0 59.4727 58.1143">
 <g>
  <rect height="58.1143" opacity="0" width="59.4727" x="0" y="0"/>
  <path d="M42.1875 57.3872L45.625 51.4106C46.0547 50.7075 45.8398 49.9458 45.1758 49.5552C44.5117 49.1841 43.7695 49.3989 43.3398 50.0825L39.8633 56.0981C39.4922 56.7622 39.668 57.5239 40.3516 57.9146C41.0156 58.2856 41.7969 58.0708 42.1875 57.3872Z" fill="black" fill-opacity="0.85"/>
  <path d="M34.2578 50.2974L37.7148 44.3208C38.1445 43.6372 37.9297 42.856 37.2656 42.4653C36.6016 42.0942 35.8398 42.3091 35.4297 42.9927L31.9531 49.0278C31.582 49.6724 31.7578 50.4341 32.4414 50.8247C33.0859 51.1958 33.8867 50.981 34.2578 50.2974Z" fill="black" fill-opacity="0.85"/>
  <path d="M22.1289 57.4067L25.5859 51.4302C25.9961 50.7271 25.7812 49.9653 25.1172 49.5747C24.4531 49.2036 23.7109 49.4185 23.3008 50.1021L19.8242 56.1177C19.4336 56.7817 19.6094 57.5435 20.293 57.9341C20.957 58.3052 21.7383 58.0903 22.1289 57.4067Z" fill="black" fill-opacity="0.85"/>
  <path d="M14.2188 50.3169L17.6758 44.3403C18.0859 43.6567 17.8711 42.8755 17.207 42.4849C16.543 42.1138 15.8008 42.3286 15.3711 43.0317L11.9141 49.0474C11.5234 49.6919 11.6992 50.4731 12.3828 50.8638C13.0469 51.2153 13.8281 51.0005 14.2188 50.3169Z" fill="black" fill-opacity="0.85"/>
  <path d="M13.8281 38.4224L45.2148 38.4224C53.3594 38.4224 59.4727 32.2505 59.4727 24.5942C59.4727 16.6841 52.9883 10.9028 44.5508 10.9028C41.3867 4.61377 35.6445 0.551273 28.2617 0.551273C18.8867 0.551273 11.1719 7.99268 10.3516 17.3481C5.74219 18.6567 2.20703 22.5435 2.20703 27.856C2.20703 33.6763 6.46484 38.4224 13.8281 38.4224ZM13.7891 34.9849C8.41797 34.9849 5.625 31.8794 5.625 27.9536C5.625 24.6333 7.65625 21.7817 12.0117 20.6294C13.2617 20.2974 13.7109 19.731 13.7891 18.481C14.3555 10.1802 20.7812 3.98877 28.2617 3.98877C34.2773 3.98877 38.8672 7.32862 41.582 12.9341C42.1094 14.0474 42.7734 14.4185 44.1211 14.4185C51.543 14.4185 56.0547 19.0474 56.0547 24.6919C56.0547 30.3755 51.4258 34.9849 45.4102 34.9849Z" fill="black" fill-opacity="0.85"/>
 </g>
</svg>
