<?xml version="1.0" encoding="UTF-8"?>
<!--Generator: Apple Native CoreSVG 326-->
<!DOCTYPE svg
PUBLIC "-//W3C//DTD SVG 1.1//EN"
       "http://www.w3.org/Graphics/SVG/1.1/DTD/svg11.dtd">
<svg version="1.1" xmlns="http://www.w3.org/2000/svg" xmlns:xlink="http://www.w3.org/1999/xlink" viewBox="0 0 51.25 50.918">
 <g>
  <rect height="50.918" opacity="0" width="51.25" x="0" y="0"/>
  <path d="M25.4297 50.8789C39.4727 50.8789 50.8789 39.4922 50.8789 25.4492C50.8789 11.4062 39.4727 0 25.4297 0C11.3867 0 0 11.4062 0 25.4492C0 39.4922 11.3867 50.8789 25.4297 50.8789ZM25.4297 47.2461C13.3789 47.2461 3.63281 37.5 3.63281 25.4492C3.63281 13.3984 13.3789 3.65234 25.4297 3.65234C37.4805 3.65234 47.2266 13.3984 47.2266 25.4492C47.2266 37.5 37.4805 47.2461 25.4297 47.2461Z" fill="black" fill-opacity="0.85"/>
  <path d="M17.207 28.7891L32.4023 28.7891C36.3086 28.7891 39.3164 25.8008 39.3164 22.0898C39.3164 18.2617 36.1523 15.4688 32.0703 15.4688C30.5273 12.4219 27.7734 10.4297 24.1992 10.4297C19.6484 10.4297 15.918 14.043 15.5078 18.5938C13.2812 19.2188 11.5625 21.0938 11.5625 23.6719C11.5625 26.4648 13.6133 28.7891 17.207 28.7891ZM17.8516 36.1133L19.7656 32.832C20.0586 32.3242 19.9023 31.6797 19.375 31.3867C18.8867 31.1133 18.2617 31.2891 17.9688 31.7773L16.0547 35.0781C15.7617 35.5664 15.9375 36.2109 16.4648 36.5039C16.9531 36.7969 17.5781 36.6211 17.8516 36.1133ZM22.1094 39.8828L24.0234 36.6016C24.3164 36.0938 24.1406 35.4492 23.6328 35.1562C23.1445 34.8828 22.5195 35.0586 22.2266 35.5664L20.3125 38.8477C20.0195 39.3555 20.1953 40 20.7031 40.2734C21.1914 40.5664 21.8164 40.3906 22.1094 39.8828ZM28.6133 36.0938L30.5273 32.8125C30.8203 32.3047 30.6445 31.6602 30.1367 31.3672C29.6484 31.0938 29.0234 31.2695 28.7305 31.7578L26.8164 35.0586C26.5234 35.5469 26.6797 36.1914 27.207 36.4844C27.6953 36.7773 28.3203 36.6016 28.6133 36.0938ZM32.8711 39.8828L34.7852 36.6016C35.0586 36.0938 34.9023 35.4492 34.3945 35.1562C33.9062 34.8828 33.2617 35.0586 32.9883 35.5664L31.0742 38.8477C30.8008 39.3555 30.957 40 31.4648 40.2734C31.9531 40.5664 32.5977 40.3906 32.8711 39.8828Z" fill="black" fill-opacity="0.85"/>
 </g>
</svg>
