<?xml version="1.0" encoding="UTF-8"?>
<!--Generator: Apple Native CoreSVG 326-->
<!DOCTYPE svg
PUBLIC "-//W3C//DTD SVG 1.1//EN"
       "http://www.w3.org/Graphics/SVG/1.1/DTD/svg11.dtd">
<svg version="1.1" xmlns="http://www.w3.org/2000/svg" xmlns:xlink="http://www.w3.org/1999/xlink" viewBox="0 0 69.1055 62.7236">
 <g>
  <rect height="62.7236" opacity="0" width="69.1055" x="0" y="0"/>
  <path d="M44.1328 54.1646C44.7969 54.5552 45.0117 55.3169 44.5821 56.02L41.1446 61.9966C40.7539 62.6802 39.9727 62.895 39.3086 62.5239C38.625 62.1333 38.4492 61.3716 38.8399 60.7075L42.2969 54.6919C42.7266 54.0083 43.4688 53.7935 44.1328 54.1646Z" fill="black" fill-opacity="0.85"/>
  <path d="M36.2227 47.0747C36.8867 47.4653 37.1016 48.2466 36.6719 48.9302L33.2344 54.9067C32.8438 55.5903 32.0625 55.8247 31.3985 55.4536C30.7149 55.063 30.5391 54.2817 30.9102 53.6372L34.3867 47.6216C34.8164 46.9185 35.5586 46.7036 36.2227 47.0747Z" fill="black" fill-opacity="0.85"/>
  <path d="M24.0742 54.1841C24.7383 54.5747 24.9531 55.3364 24.543 56.0396L21.086 62.0161C20.6953 62.6997 19.9141 62.9146 19.25 62.5435C18.586 62.1528 18.3906 61.3911 18.7813 60.7271L22.2578 54.7114C22.668 54.0278 23.4102 53.813 24.0742 54.1841Z" fill="black" fill-opacity="0.85"/>
  <path d="M16.1641 47.0942C16.8281 47.4849 17.043 48.2661 16.6328 48.9497L13.1758 54.9263C12.7852 55.6099 12.0039 55.8442 11.3399 55.4731C10.6563 55.0825 10.4805 54.3013 10.8711 53.6567L14.3477 47.6411C14.7578 46.938 15.5 46.7231 16.1641 47.0942Z" fill="black" fill-opacity="0.85"/>
  <path d="M52.3555 2.4458C52.3555 3.79346 51.3789 5.23877 51.3789 8.30518C51.3789 14.2622 54.9141 17.856 61.3789 17.856C64.1719 17.856 65.5391 17.1333 66.9453 17.1333C68.625 17.1333 69.543 18.6372 68.8985 20.356C67.4237 24.8579 62.2665 30.266 53.8832 30.33C53.8682 29.2105 53.6947 28.1413 53.3822 27.1368C53.4919 27.1514 53.607 27.1528 53.7227 27.1528C59.8946 27.1528 64.3086 23.481 65.7149 20.3169L65.5586 20.1606C64.2891 20.5903 62.5117 20.9224 60.6953 20.9224C53.3906 20.9224 48.2735 16.1177 48.2735 8.91065C48.2735 6.8208 48.7031 5.04346 49.1719 3.85205L48.9571 3.67627C45.6367 5.18018 42.0625 8.94971 42.0625 14.77C42.0625 16.0969 42.2234 17.3521 42.5318 18.5154C41.9622 18.4319 41.3738 18.3911 40.7735 18.3833C40.2441 17.3846 39.6421 16.4529 38.9714 15.5992C38.9428 15.3552 38.9375 15.1026 38.9375 14.8481C38.9375 7.21143 43.9375 1.85987 48.8594 0.375492C50.8125-0.249508 52.3555 0.629398 52.3555 2.4458Z" fill="black" fill-opacity="0.85"/>
  <path d="M13.7813 42.9927L41.1446 42.9927C48.3125 42.9927 53.8985 37.5825 53.8985 30.6294C53.8985 23.6958 48.2539 18.481 40.7735 18.3833C37.8438 12.856 32.6875 9.3794 26.3789 9.3794C18.1367 9.3794 11.2813 15.8247 10.4805 24.0864C6.28127 25.356 3.33205 28.8911 3.33205 33.481C3.33205 38.9497 7.45315 42.9927 13.7813 42.9927ZM13.7031 39.5747C9.19143 39.5747 6.75002 36.9185 6.75002 33.5591C6.75002 30.6489 8.5469 28.2075 12.2969 27.1724C13.3906 26.8794 13.7813 26.4106 13.8789 25.2974C14.4453 18.1294 19.9141 12.8169 26.3789 12.8169C31.5938 12.8169 35.5 15.7466 37.8633 20.4536C38.3516 21.4302 38.918 21.7622 40.0703 21.7622C46.5352 21.7622 50.461 25.8052 50.461 30.7271C50.461 35.6294 46.4375 39.5747 41.2031 39.5747Z" fill="black" fill-opacity="0.85"/>
 </g>
</svg>
