<?xml version="1.0" encoding="UTF-8"?>
<!--Generator: Apple Native CoreSVG 326-->
<!DOCTYPE svg
PUBLIC "-//W3C//DTD SVG 1.1//EN"
       "http://www.w3.org/Graphics/SVG/1.1/DTD/svg11.dtd">
<svg version="1.1" xmlns="http://www.w3.org/2000/svg" xmlns:xlink="http://www.w3.org/1999/xlink" viewBox="0 0 51.25 50.918">
 <g>
  <rect height="50.918" opacity="0" width="51.25" x="0" y="0"/>
  <path d="M50.8789 25.4688C50.8789 39.4922 39.4531 50.918 25.4297 50.918C11.4258 50.918 0 39.4922 0 25.4688C0 11.4648 11.4258 0.0390625 25.4297 0.0390625C39.4531 0.0390625 50.8789 11.4648 50.8789 25.4688ZM22.9297 31.0547L18.8281 38.1445C18.5156 38.6523 18.6914 39.3164 19.2188 39.6094C19.7266 39.9219 20.3711 39.7266 20.6641 39.1992L24.7852 32.1289C25.1172 31.582 24.9023 30.9375 24.375 30.625C23.8867 30.3516 23.2617 30.5078 22.9297 31.0547ZM34.4336 31.0547L30.293 38.1445C30 38.6523 30.1758 39.3164 30.7227 39.6094C31.2305 39.9219 31.8555 39.7266 32.1484 39.1992L36.2891 32.1289C36.6016 31.582 36.4062 30.9375 35.8594 30.625C35.3516 30.3516 34.7266 30.5078 34.4336 31.0547ZM28.6719 31.0547L24.5508 38.1445C24.2578 38.6523 24.4336 39.3164 24.9609 39.6094C25.4492 39.9219 26.0938 39.7266 26.4062 39.1992L30.5078 32.1289C30.8398 31.582 30.6641 30.9375 30.1172 30.625C29.6094 30.3516 28.9844 30.5078 28.6719 31.0547ZM17.1875 31.0547L13.0664 38.1445C12.7734 38.6523 12.9297 39.3164 13.4766 39.6094C13.9844 39.9219 14.6289 39.7266 14.9219 39.1992L19.043 32.1289C19.3555 31.582 19.1602 30.9375 18.6328 30.625C18.125 30.3516 17.5 30.5078 17.1875 31.0547ZM15.4102 17.5586C13.1445 18.2031 11.3867 20.1367 11.3867 22.7539C11.3867 25.6445 13.4961 27.9883 17.168 27.9883L32.7148 27.9883C36.7383 27.9883 39.8047 24.9414 39.8047 21.1328C39.8047 17.207 36.582 14.3555 32.3828 14.3555C30.8203 11.2305 27.9883 9.19922 24.3164 9.19922C19.668 9.19922 15.8398 12.8906 15.4102 17.5586Z" fill="black" fill-opacity="0.85"/>
 </g>
</svg>
