<?xml version="1.0" encoding="UTF-8"?>
<!--Generator: Apple Native CoreSVG 326-->
<!DOCTYPE svg
PUBLIC "-//W3C//DTD SVG 1.1//EN"
       "http://www.w3.org/Graphics/SVG/1.1/DTD/svg11.dtd">
<svg version="1.1" xmlns="http://www.w3.org/2000/svg" xmlns:xlink="http://www.w3.org/1999/xlink" viewBox="0 0 51.25 50.918">
 <g>
  <rect height="50.918" opacity="0" width="51.25" x="0" y="0"/>
  <path d="M25.4297 50.8789C39.4727 50.8789 50.8789 39.4922 50.8789 25.4492C50.8789 11.4062 39.4727 0 25.4297 0C11.3867 0 0 11.4062 0 25.4492C0 39.4922 11.3867 50.8789 25.4297 50.8789ZM25.4297 47.2461C13.3789 47.2461 3.63281 37.5 3.63281 25.4492C3.63281 13.3984 13.3789 3.65234 25.4297 3.65234C37.4805 3.65234 47.2266 13.3984 47.2266 25.4492C47.2266 37.5 37.4805 47.2461 25.4297 47.2461Z" fill="black" fill-opacity="0.85"/>
  <path d="M16.1719 34.6289L33.2617 34.6289C37.6172 34.6289 40.9961 31.3477 40.9961 27.168C40.9961 22.8906 37.5 19.7266 32.8516 19.7656C31.1523 16.2695 27.9883 14.1406 24.043 14.1406C18.9648 14.1406 14.7656 18.1445 14.3359 23.2617C11.7383 23.9844 9.88281 26.1523 9.88281 28.9258C9.88281 32.2266 12.3438 34.6289 16.1719 34.6289Z" fill="black" fill-opacity="0.85"/>
 </g>
</svg>
