<?xml version="1.0" encoding="UTF-8"?>
<!--Generator: Apple Native CoreSVG 326-->
<!DOCTYPE svg
PUBLIC "-//W3C//DTD SVG 1.1//EN"
       "http://www.w3.org/Graphics/SVG/1.1/DTD/svg11.dtd">
<svg version="1.1" xmlns="http://www.w3.org/2000/svg" xmlns:xlink="http://www.w3.org/1999/xlink" viewBox="0 0 59.4727 63.7712">
 <g>
  <rect height="63.7712" opacity="0" width="59.4727" x="0" y="0"/>
  <path d="M36.1133 51.0165L30.6445 51.0165L30.6641 52.0321L33.8867 45.8797C34.1602 45.3329 33.9453 44.9032 33.3789 44.9032L28.7305 44.9032C28.0273 44.9032 27.7539 45.1571 27.5391 45.6844L24.082 53.575C23.8086 54.2 24.1016 54.5711 24.7656 54.5711L29.1797 54.5711L29.4922 53.0672L25.4102 62.9891C25.2734 63.3407 25.3516 63.6336 25.5859 63.7313C25.8203 63.829 26.1133 63.7508 26.3672 63.4579L36.543 52.2469C37.0508 51.7 36.8359 51.0165 36.1133 51.0165Z" fill="black" fill-opacity="0.85"/>
  <path d="M13.8281 41.2508L45.2148 41.2508C53.3594 41.2508 59.4727 35.079 59.4727 27.4227C59.4727 19.5125 52.9883 13.7313 44.5508 13.7313C41.3867 7.44223 35.6445 3.37973 28.2617 3.37973C18.8867 3.37973 11.1719 10.8211 10.3516 20.1766C5.74219 21.4852 2.20703 25.3719 2.20703 30.6844C2.20703 36.5047 6.46484 41.2508 13.8281 41.2508Z" fill="black" fill-opacity="0.85"/>
 </g>
</svg>
