<?xml version="1.0" encoding="UTF-8"?>
<!--Generator: Apple Native CoreSVG 326-->
<!DOCTYPE svg
PUBLIC "-//W3C//DTD SVG 1.1//EN"
       "http://www.w3.org/Graphics/SVG/1.1/DTD/svg11.dtd">
<svg version="1.1" xmlns="http://www.w3.org/2000/svg" xmlns:xlink="http://www.w3.org/1999/xlink" viewBox="0 0 51.25 50.918">
 <g>
  <rect height="50.918" opacity="0" width="51.25" x="0" y="0"/>
  <path d="M25.4297 50.8789C39.4727 50.8789 50.8789 39.4922 50.8789 25.4492C50.8789 11.4062 39.4727 0 25.4297 0C11.3867 0 0 11.4062 0 25.4492C0 39.4922 11.3867 50.8789 25.4297 50.8789ZM25.4297 47.2461C13.3789 47.2461 3.63281 37.5 3.63281 25.4492C3.63281 13.3984 13.3789 3.65234 25.4297 3.65234C37.4805 3.65234 47.2266 13.3984 47.2266 25.4492C47.2266 37.5 37.4805 47.2461 25.4297 47.2461Z" fill="black" fill-opacity="0.85"/>
  <path d="M17.207 27.9297L32.4023 27.9297C36.3086 27.9297 39.3164 24.9414 39.3164 21.2305C39.3164 17.4023 36.1523 14.6094 32.0703 14.6094C30.5273 11.5625 27.7734 9.57031 24.1992 9.57031C19.6484 9.57031 15.918 13.1836 15.5078 17.7344C13.2812 18.3594 11.5625 20.2344 11.5625 22.8125C11.5625 25.625 13.6133 27.9297 17.207 27.9297ZM21.5625 35.0977C21.3672 35.4883 21.5625 35.8008 22.0117 35.8008L24.4141 35.8008L22.3828 40.7812C22.2656 41.0352 22.3438 41.2305 22.5195 41.3281C22.6562 41.3477 22.8711 41.3281 23.0469 41.1133L29.2188 34.3555C29.5312 33.9648 29.3945 33.5156 28.8867 33.5156L26.0352 33.5156L27.5977 30.5273C27.7734 30.1562 27.6367 29.8633 27.2461 29.8633L24.4141 29.8633C23.9648 29.8633 23.75 30.0195 23.6133 30.3516ZM17.1484 35.4492L19.0625 32.168C19.3555 31.6602 19.1797 31.0156 18.6523 30.7227C18.1836 30.4492 17.5586 30.625 17.2656 31.1328L15.3516 34.4141C15.0586 34.9219 15.2148 35.5664 15.7422 35.8594C16.2305 36.1328 16.8555 35.957 17.1484 35.4492ZM33.6133 35.4492L35.5273 32.168C35.8203 31.6602 35.6445 31.0156 35.1172 30.7227C34.6289 30.4492 34.0234 30.625 33.7305 31.1328L31.8164 34.4141C31.5234 34.9219 31.6797 35.5664 32.207 35.8594C32.6953 36.1328 33.3203 35.957 33.6133 35.4492Z" fill="black" fill-opacity="0.85"/>
 </g>
</svg>
