<?xml version="1.0" encoding="UTF-8"?>
<!--Generator: Apple Native CoreSVG 326-->
<!DOCTYPE svg
PUBLIC "-//W3C//DTD SVG 1.1//EN"
       "http://www.w3.org/Graphics/SVG/1.1/DTD/svg11.dtd">
<svg version="1.1" xmlns="http://www.w3.org/2000/svg" xmlns:xlink="http://www.w3.org/1999/xlink" viewBox="0 0 59.4727 58.2622">
 <g>
  <rect height="58.2622" opacity="0" width="59.4727" x="0" y="0"/>
  <path d="M39.3359 57.5588L46.9531 44.3948C47.3438 43.7112 47.1484 42.9299 46.4844 42.5784C45.8398 42.2268 45.0781 42.383 44.6875 43.0862L37.1094 56.2307C36.7188 56.9143 36.8945 57.6955 37.5586 58.0862C38.1641 58.4573 38.9844 58.2229 39.3359 57.5588Z" fill="black" fill-opacity="0.85"/>
  <path d="M29.3555 57.5393L36.9141 44.4338C37.3438 43.7112 37.1289 42.969 36.4648 42.5784C35.8008 42.1877 35.0586 42.383 34.6289 43.1057L27.0508 56.2698C26.6797 56.9143 26.8359 57.6955 27.5195 58.0862C28.1836 58.4573 28.9648 58.2229 29.3555 57.5393Z" fill="black" fill-opacity="0.85"/>
  <path d="M19.3359 57.5393L26.8945 44.4338C27.3047 43.7112 27.0898 42.969 26.4453 42.5784C25.7812 42.1877 25.0195 42.383 24.6094 43.1057L17.0117 56.2698C16.6602 56.9143 16.8164 57.6955 17.5 58.0862C18.1641 58.4573 18.9453 58.2229 19.3359 57.5393Z" fill="black" fill-opacity="0.85"/>
  <path d="M9.27734 57.5393L16.8555 44.4338C17.2656 43.7112 17.0508 42.969 16.3867 42.5784C15.7227 42.1877 14.9805 42.383 14.5703 43.1057L6.97266 56.2698C6.60156 56.9143 6.77734 57.6955 7.44141 58.0862C8.10547 58.4573 8.88672 58.2229 9.27734 57.5393Z" fill="black" fill-opacity="0.85"/>
  <path d="M13.8281 38.4963L45.2148 38.4963C53.3594 38.4963 59.4727 32.3245 59.4727 24.6682C59.4727 16.758 52.9883 10.9768 44.5508 10.9768C41.3867 4.68773 35.6445 0.625232 28.2617 0.625232C18.8867 0.625232 11.1719 8.06664 10.3516 17.4221C5.74219 18.7307 2.20703 22.6174 2.20703 27.9299C2.20703 33.7502 6.46484 38.4963 13.8281 38.4963ZM13.7891 35.0588C8.41797 35.0588 5.625 31.9534 5.625 28.0276C5.625 24.7073 7.65625 21.8557 12.0117 20.7034C13.2617 20.3713 13.7109 19.8049 13.7891 18.5549C14.3555 10.2541 20.7812 4.06273 28.2617 4.06273C34.2773 4.06273 38.8672 7.40258 41.582 13.008C42.1094 14.1213 42.7734 14.4924 44.1211 14.4924C51.543 14.4924 56.0547 19.1213 56.0547 24.7659C56.0547 30.4495 51.4258 35.0588 45.4102 35.0588Z" fill="black" fill-opacity="0.85"/>
 </g>
</svg>
