<?xml version="1.0" encoding="UTF-8"?>
<!--Generator: Apple Native CoreSVG 326-->
<!DOCTYPE svg
PUBLIC "-//W3C//DTD SVG 1.1//EN"
       "http://www.w3.org/Graphics/SVG/1.1/DTD/svg11.dtd">
<svg version="1.1" xmlns="http://www.w3.org/2000/svg" xmlns:xlink="http://www.w3.org/1999/xlink" viewBox="0 0 51.25 50.918">
 <g>
  <rect height="50.918" opacity="0" width="51.25" x="0" y="0"/>
  <path d="M25.4297 50.8789C39.4727 50.8789 50.8789 39.4922 50.8789 25.4492C50.8789 11.4062 39.4727 0 25.4297 0C11.3867 0 0 11.4062 0 25.4492C0 39.4922 11.3867 50.8789 25.4297 50.8789ZM25.4297 47.2461C13.3789 47.2461 3.63281 37.5 3.63281 25.4492C3.63281 13.3984 13.3789 3.65234 25.4297 3.65234C37.4805 3.65234 47.2266 13.3984 47.2266 25.4492C47.2266 37.5 37.4805 47.2461 25.4297 47.2461Z" fill="black" fill-opacity="0.85"/>
  <path d="M17.3633 27.8711L32.5586 27.8711C36.4648 27.8711 39.4727 24.8828 39.4727 21.1719C39.4727 17.3438 36.3086 14.5508 32.2266 14.5508C30.7031 11.5234 27.9297 9.53125 24.3555 9.53125C19.8047 9.53125 16.0742 13.1445 15.6641 17.6953C13.4375 18.3203 11.7188 20.1953 11.7188 22.7539C11.7188 25.5664 13.7891 27.8711 17.3633 27.8711ZM20.7812 38.8281L24.8047 31.8945C25.1172 31.3867 24.9219 30.7617 24.4141 30.4688C23.9258 30.1758 23.3203 30.332 23.0078 30.8594L18.9844 37.793C18.6914 38.3008 18.8672 38.9258 19.375 39.2188C19.8633 39.5117 20.4883 39.3359 20.7812 38.8281ZM31.9727 38.8281L35.9961 31.8945C36.3086 31.3867 36.1328 30.7617 35.6055 30.4688C35.1172 30.1758 34.5117 30.332 34.1992 30.8594L30.1758 37.793C29.8828 38.3008 30.0586 38.9258 30.5664 39.2188C31.0547 39.5117 31.6797 39.3359 31.9727 38.8281ZM26.3672 38.8281L30.3906 31.8945C30.7031 31.3867 30.5273 30.7617 30 30.4688C29.5117 30.1758 28.9062 30.332 28.5938 30.8594L24.5703 37.793C24.2773 38.3008 24.4531 38.9258 24.9609 39.2188C25.4492 39.5117 26.0742 39.3359 26.3672 38.8281ZM15.1758 38.8281L19.1992 31.8945C19.5117 31.3867 19.3164 30.7617 18.8086 30.4688C18.3203 30.1758 17.7148 30.332 17.4023 30.8594L13.3789 37.793C13.0859 38.3008 13.2422 38.9258 13.7695 39.2188C14.2578 39.5117 14.8828 39.3359 15.1758 38.8281Z" fill="black" fill-opacity="0.85"/>
 </g>
</svg>
