<?xml version="1.0" encoding="UTF-8"?>
<!--Generator: Apple Native CoreSVG 326-->
<!DOCTYPE svg
PUBLIC "-//W3C//DTD SVG 1.1//EN"
       "http://www.w3.org/Graphics/SVG/1.1/DTD/svg11.dtd">
<svg version="1.1" xmlns="http://www.w3.org/2000/svg" xmlns:xlink="http://www.w3.org/1999/xlink" viewBox="0 0 77.5195 52.9492">
 <g>
  <rect height="52.9492" opacity="0" width="77.5195" x="0" y="0"/>
  <path d="M65.7812 37.5977L69.9805 41.7969C70.6836 42.5 70.6641 43.6328 69.9805 44.2969C69.2773 44.9805 68.1641 45.0195 67.4805 44.3164L63.2617 40.1172C62.5781 39.4336 62.5781 38.3008 63.2617 37.5977C63.9648 36.9531 65.0977 36.9336 65.7812 37.5977ZM63.9258 25.957C63.9258 31.485 60.2355 36.1944 55.2067 37.7401C55.1747 36.6311 54.982 35.5738 54.6605 34.5778C58.2235 33.3471 60.7422 29.9806 60.7422 25.957C60.7422 20.8594 56.6992 16.8164 51.6211 16.8164C46.543 16.8164 42.5 20.8594 42.5 25.957C42.5 25.9906 42.5002 26.0242 42.5049 26.0565C42.3767 26.0396 42.2433 26.0366 42.1094 26.0352C41.4451 24.7859 40.669 23.6416 39.7874 22.6251C41.2371 17.4347 46.012 13.6133 51.6211 13.6133C58.3789 13.6133 63.9258 19.1602 63.9258 25.957ZM77.5195 25.957C77.5195 26.9336 76.7188 27.7344 75.7422 27.7344L69.8633 27.7344C68.9062 27.7344 68.0859 26.9336 68.0859 25.957C68.0859 25 68.9062 24.1797 69.8633 24.1797L75.7422 24.1797C76.7188 24.1797 77.5195 25 77.5195 25.957ZM69.9805 7.61719C70.6641 8.30078 70.6836 9.45312 69.9805 10.1562L65.8008 14.3164C65.0977 15.0391 63.9648 15 63.2617 14.3164C62.5781 13.6328 62.5781 12.5 63.2617 11.8164L67.4805 7.61719C68.1641 6.91406 69.2773 6.93359 69.9805 7.61719ZM35.7812 7.61719L39.9805 11.8164C40.6445 12.4805 40.6445 13.6523 39.9609 14.3164C39.2578 15 38.125 15.0195 37.4414 14.3164L33.2617 10.1367C32.5781 9.45312 32.6172 8.30078 33.2812 7.61719C33.9844 6.93359 35.0977 6.93359 35.7812 7.61719ZM53.418 1.77734L53.418 7.69531C53.418 8.63281 52.5977 9.45312 51.6406 9.45312C50.6836 9.45312 49.8438 8.63281 49.8438 7.69531L49.8438 1.77734C49.8438 0.839844 50.6836 0 51.6406 0C52.5977 0 53.418 0.839844 53.418 1.77734Z" fill="black" fill-opacity="0.85"/>
  <path d="M15.0977 50.6641L42.4609 50.6641C49.6484 50.6641 55.2344 45.2344 55.2344 38.2812C55.2344 31.3477 49.5703 26.1133 42.1094 26.0352C39.1602 20.4883 34.0039 17.0117 27.6953 17.0117C19.4531 17.0117 12.5781 23.4766 11.7773 31.7383C7.57812 32.9883 4.62891 36.543 4.62891 41.1328C4.62891 46.6211 8.76953 50.6641 15.0977 50.6641ZM15.0195 47.207C10.5078 47.207 8.10547 44.5508 8.10547 41.2109C8.10547 38.3203 9.86328 35.8789 13.6133 34.8438C14.7266 34.5508 15.1172 34.0625 15.2148 32.9492C15.7812 25.8008 21.2305 20.4688 27.6953 20.4688C32.8906 20.4688 36.8164 23.418 39.1797 28.125C39.668 29.1016 40.2344 29.4336 41.3867 29.4336C47.8516 29.4336 51.7773 33.4766 51.7773 38.3789C51.7773 43.2617 47.7344 47.207 42.5195 47.207Z" fill="black" fill-opacity="0.85"/>
 </g>
</svg>
