<?xml version="1.0" encoding="UTF-8"?>
<!--Generator: Apple Native CoreSVG 326-->
<!DOCTYPE svg
PUBLIC "-//W3C//DTD SVG 1.1//EN"
       "http://www.w3.org/Graphics/SVG/1.1/DTD/svg11.dtd">
<svg version="1.1" xmlns="http://www.w3.org/2000/svg" xmlns:xlink="http://www.w3.org/1999/xlink" viewBox="0 0 51.25 50.918">
 <g>
  <rect height="50.918" opacity="0" width="51.25" x="0" y="0"/>
  <path d="M50.8789 25.4688C50.8789 39.4922 39.4531 50.918 25.4297 50.918C11.4258 50.918 0 39.4922 0 25.4688C0 11.4648 11.4258 0.0390625 25.4297 0.0390625C39.4531 0.0390625 50.8789 11.4648 50.8789 25.4688ZM20.3125 33.1445C19.9023 33.1445 19.7461 33.2617 19.6094 33.5547L17.8711 37.5391C17.7148 37.8711 17.8906 38.1641 18.2617 38.1641L20.3125 38.1641L18.6133 42.3242C18.457 42.7148 18.9258 42.9297 19.1992 42.6172L24.4336 36.9141C24.7266 36.582 24.5898 36.1914 24.1602 36.1914L21.7188 36.1914L23.0078 33.7305C23.1836 33.3984 23.0469 33.1445 22.7148 33.1445ZM12.4023 22.3828C10.4102 23.0469 8.98438 24.7461 8.98438 27.0117C8.98438 29.6875 11.0156 31.6992 14.1211 31.6992L27.2461 31.6992C30.7422 31.6992 33.457 29.043 33.457 25.625C33.457 22.2656 30.7422 19.707 27.1289 19.6289C25.7031 16.9727 23.2227 15.293 20.1562 15.293C16.1914 15.293 12.8516 18.418 12.4023 22.3828ZM33.2422 10.3125C30.5859 10.5078 27.7734 13.5742 27.4219 17.0898C27.6758 17.3828 27.8906 17.6953 28.1055 18.0078C31.9531 18.457 34.8047 21.2695 35.1172 24.9219C39.5898 24.4336 42.0117 21.0938 42.0117 19.0625C42.0117 18.6328 41.8164 18.3594 41.4844 18.3594C40.9375 18.3594 39.9023 19.0625 38.3008 19.0625C35.1562 19.0625 33.1641 17.1875 33.1641 14.2969C33.1641 12.6758 34.0039 11.4648 34.0039 10.8789C34.0039 10.5078 33.7109 10.293 33.2422 10.3125Z" fill="black" fill-opacity="0.85"/>
 </g>
</svg>
