<?xml version="1.0" encoding="UTF-8"?>
<!--Generator: Apple Native CoreSVG 326-->
<!DOCTYPE svg
PUBLIC "-//W3C//DTD SVG 1.1//EN"
       "http://www.w3.org/Graphics/SVG/1.1/DTD/svg11.dtd">
<svg version="1.1" xmlns="http://www.w3.org/2000/svg" xmlns:xlink="http://www.w3.org/1999/xlink" viewBox="0 0 69.6289 62.6455">
 <g>
  <rect height="62.6455" opacity="0" width="69.6289" x="0" y="0"/>
  <path d="M44.4922 54.0864C45.1367 54.4771 45.3516 55.2388 44.9414 55.9419L41.4844 61.9185C41.1133 62.6021 40.3125 62.8169 39.668 62.4458C38.9844 62.0552 38.8086 61.2935 39.1797 60.6294L42.6562 54.6138C43.0664 53.9302 43.8281 53.7153 44.4922 54.0864Z" fill="black" fill-opacity="0.85"/>
  <path d="M36.582 46.9966C37.2266 47.3872 37.4414 48.1685 37.0312 48.8521L33.5742 54.8286C33.2031 55.5122 32.4023 55.7466 31.7578 55.3755C31.0742 54.9849 30.8789 54.2036 31.2695 53.5591L34.7461 47.5435C35.1562 46.8403 35.918 46.6255 36.582 46.9966Z" fill="black" fill-opacity="0.85"/>
  <path d="M24.4336 54.106C25.0977 54.4966 25.3125 55.2583 24.8828 55.9614L21.4453 61.938C21.0547 62.6216 20.2734 62.8364 19.6094 62.4653C18.9258 62.0747 18.75 61.313 19.1211 60.6489L22.5977 54.6333C23.0078 53.9497 23.7695 53.7349 24.4336 54.106Z" fill="black" fill-opacity="0.85"/>
  <path d="M16.5234 47.0161C17.1875 47.4067 17.4023 48.188 16.9727 48.8716L13.5156 54.8481C13.1445 55.5317 12.3438 55.7661 11.6992 55.395C11.0156 55.0044 10.8398 54.2231 11.2109 53.5786L14.6875 47.563C15.0977 46.8599 15.8594 46.645 16.5234 47.0161Z" fill="black" fill-opacity="0.85"/>
  <path d="M53.5547 1.91846C53.5547 3.10987 51.8945 5.53174 51.8945 8.79346C51.8945 14.8091 55.5859 18.3442 61.9922 18.3442C65.3711 18.3442 67.3828 16.8599 68.4961 16.8599C69.2188 16.8599 69.6289 17.4849 69.6289 18.3442C69.6289 21.9207 65.553 28.8881 57.098 29.9027C56.7929 22.2716 50.8498 16.5258 42.9492 15.7661C42.266 14.667 41.5051 13.6568 40.6744 12.7428C41.7943 6.08263 47.2344 1.0597 52.0703 0.746586C53.0469 0.687992 53.5547 1.15674 53.5547 1.91846Z" fill="black" fill-opacity="0.85"/>
  <path d="M14.3945 42.6802L41.7773 42.6802C48.7891 42.6802 54.2578 37.3677 54.2578 30.5513C54.2578 23.7153 48.6719 18.5786 41.2305 18.5591C38.2422 12.8169 33.0664 9.55518 26.9922 9.55518C18.9062 9.55518 12.0508 15.9224 11.3086 24.2036C6.97266 25.4341 4.19922 29.0083 4.19922 33.4028C4.19922 38.8911 8.35938 42.6802 14.3945 42.6802Z" fill="black" fill-opacity="0.85"/>
 </g>
</svg>
