<?xml version="1.0" encoding="UTF-8"?>
<!--Generator: Apple Native CoreSVG 326-->
<!DOCTYPE svg
PUBLIC "-//W3C//DTD SVG 1.1//EN"
       "http://www.w3.org/Graphics/SVG/1.1/DTD/svg11.dtd">
<svg version="1.1" xmlns="http://www.w3.org/2000/svg" xmlns:xlink="http://www.w3.org/1999/xlink" viewBox="0 0 51.25 50.918">
 <g>
  <rect height="50.918" opacity="0" width="51.25" x="0" y="0"/>
  <path d="M50.8789 25.4688C50.8789 39.4922 39.4531 50.918 25.4297 50.918C11.4258 50.918 0 39.4922 0 25.4688C0 11.4648 11.4258 0.0390625 25.4297 0.0390625C39.4531 0.0390625 50.8789 11.4648 50.8789 25.4688ZM25.5273 37.9688L24.1016 40.4492C23.8477 40.8594 24.0234 41.4062 24.4531 41.6602C24.8633 41.8945 25.4102 41.7383 25.6445 41.3281L27.0898 38.8281C27.3242 38.4375 27.1875 37.8516 26.7383 37.6367C26.3281 37.4023 25.8008 37.5586 25.5273 37.9688ZM17.2266 37.9492L15.8008 40.4297C15.5273 40.8398 15.7031 41.3867 16.1523 41.6406C16.5625 41.875 17.1289 41.7383 17.3633 41.3086L18.7695 38.8086C19.0234 38.418 18.9062 37.8516 18.4375 37.6172C18.0078 37.4023 17.5 37.5391 17.2266 37.9492ZM14.1211 35.1367L12.5586 37.832C12.3047 38.2617 12.4609 38.8086 12.8711 39.0234C13.3008 39.2773 13.8477 39.1406 14.082 38.7305L15.6445 36.0156C15.918 35.5664 15.7617 35.0391 15.3125 34.7852C14.9023 34.5508 14.375 34.707 14.1211 35.1367ZM22.4023 35.0977L20.8594 37.832C20.625 38.2422 20.7422 38.8086 21.1719 39.043C21.6211 39.2578 22.1484 39.1211 22.3828 38.7109L23.9648 36.0156C24.2188 35.5859 24.0625 35.0586 23.6133 34.8047C23.2031 34.5703 22.6562 34.707 22.4023 35.0977ZM11.4453 23.6328C9.47266 24.2969 8.00781 26.0156 8.00781 28.2812C8.00781 30.9375 10.0586 32.9688 13.1445 32.9688L26.3086 32.9688C29.8047 32.9688 32.5 30.293 32.5 26.875C32.5 23.5352 29.7852 20.9766 26.1719 20.8789C24.7461 18.2422 22.2852 16.5625 19.1992 16.5625C15.2344 16.5625 11.8945 19.6875 11.4453 23.6328ZM36.2109 26.2305C35.8398 26.6406 35.8008 27.3438 36.2109 27.7539L38.2617 29.7852C38.6719 30.1758 39.3359 30.1367 39.7461 29.7656C40.1172 29.3164 40.1562 28.6328 39.7461 28.2422L37.7344 26.2305C37.3438 25.8398 36.6406 25.8594 36.2109 26.2305ZM25.7031 17.5C26.2695 18.0273 26.7188 18.6133 27.168 19.3164C30.8789 19.7461 33.7305 22.4219 34.1211 25.9766C35.8594 24.8047 36.9141 22.9297 36.9141 20.8203C36.9141 17.4023 34.1992 14.707 30.8008 14.707C28.6523 14.707 26.7383 15.8398 25.7031 17.5ZM39.5117 19.7461C38.9648 19.7461 38.4766 20.1953 38.4766 20.8203C38.4766 21.3867 38.9648 21.875 39.5117 21.875L42.3438 21.875C42.9492 21.875 43.418 21.3867 43.418 20.8203C43.418 20.1953 42.9492 19.7461 42.3438 19.7461ZM21.8945 11.8945C21.5039 12.2656 21.5039 12.9492 21.8945 13.3789L23.9062 15.4102C24.3164 15.8398 25.0195 15.8008 25.4297 15.4102C25.7812 15 25.8203 14.3164 25.4297 13.9258L23.3984 11.9141C22.9492 11.5039 22.3047 11.5039 21.8945 11.8945ZM38.2617 11.9141L36.2109 13.9258C35.8008 14.2969 35.8398 15 36.2109 15.3906C36.6211 15.8008 37.3438 15.8398 37.7344 15.4102L39.7461 13.3789C40.1367 12.9688 40.1172 12.2656 39.7461 11.9141C39.3359 11.5039 38.6914 11.4844 38.2617 11.9141ZM29.7266 9.23828L29.7266 12.1094C29.7266 12.6562 30.2344 13.1445 30.8008 13.1445C31.4258 13.1445 31.8945 12.6562 31.8945 12.1094L31.8945 9.23828C31.8945 8.67188 31.4258 8.18359 30.8008 8.18359C30.2344 8.18359 29.7266 8.67188 29.7266 9.23828Z" fill="black" fill-opacity="0.85"/>
 </g>
</svg>
