<?xml version="1.0" encoding="UTF-8"?>
<!--Generator: Apple Native CoreSVG 326-->
<!DOCTYPE svg
PUBLIC "-//W3C//DTD SVG 1.1//EN"
       "http://www.w3.org/Graphics/SVG/1.1/DTD/svg11.dtd">
<svg version="1.1" xmlns="http://www.w3.org/2000/svg" xmlns:xlink="http://www.w3.org/1999/xlink" viewBox="0 0 59.4727 66.3477">
 <g>
  <rect height="66.3477" opacity="0" width="59.4727" x="0" y="0"/>
  <path d="M38.8672 62.5781C39.3359 62.5781 39.6289 62.168 39.6094 61.7188L39.4531 59.2383L41.5234 60.6055C41.8945 60.8594 42.4219 60.7812 42.6562 60.4102C42.8906 60.0195 42.7344 59.4922 42.2656 59.2773L40.0781 58.1836L42.2852 57.0508C42.7344 56.8164 42.8711 56.3281 42.6758 55.9375C42.4609 55.5469 41.8945 55.4883 41.5234 55.7227L39.4531 57.1289L39.6289 54.6484C39.668 54.1602 39.3359 53.7695 38.8672 53.7695C38.3789 53.7695 38.0859 54.1602 38.1055 54.6484L38.2422 57.1289L36.1523 55.7227C35.8008 55.4883 35.293 55.5273 35.0586 55.9375C34.8242 56.3281 34.9609 56.8164 35.4102 57.0508L37.6172 58.1836L35.4102 59.2773C34.9414 59.5117 34.8047 60 35.0195 60.4102C35.2539 60.8008 35.8008 60.8594 36.1523 60.625L38.2422 59.2578L38.125 61.7188C38.1055 62.168 38.3789 62.5781 38.8672 62.5781Z" fill="black" fill-opacity="0.85"/>
  <path d="M24.4922 66.3477C24.9414 66.3477 25.2344 65.9375 25.2148 65.4688L25.0781 63.0078L27.1484 64.375C27.5195 64.6094 28.0273 64.5312 28.2812 64.1602C28.5156 63.7891 28.3594 63.2617 27.8906 63.0273L25.7031 61.9336L27.9102 60.8008C28.3594 60.5859 28.4961 60.0781 28.3008 59.707C28.0664 59.2969 27.5195 59.2383 27.1484 59.4922L25.0781 60.8789L25.2344 58.3984C25.2734 57.9297 24.9414 57.5391 24.4922 57.5391C24.0039 57.5391 23.7109 57.9297 23.7305 58.3984L23.8672 60.8789L21.7773 59.4922C21.4062 59.2383 20.918 59.2773 20.6836 59.707C20.4492 60.0781 20.5859 60.5859 21.0352 60.8008L23.2422 61.9336L21.0352 63.0469C20.5664 63.2812 20.4297 63.7695 20.6445 64.1602C20.8789 64.5703 21.4062 64.6289 21.7773 64.3945L23.8672 63.0273L23.75 65.4688C23.7305 65.9375 24.0039 66.3477 24.4922 66.3477Z" fill="black" fill-opacity="0.85"/>
  <path d="M12.4609 62.4805C12.9102 62.4805 13.2031 62.0703 13.1836 61.6211L13.0469 59.1406L15.1172 60.5078C15.4883 60.7617 15.9961 60.6836 16.25 60.3125C16.4844 59.9414 16.3281 59.3945 15.8594 59.1797L13.6719 58.0859L15.8789 56.9531C16.3281 56.7188 16.4648 56.2305 16.2695 55.8398C16.0352 55.4492 15.4883 55.3906 15.1172 55.625L13.0469 57.0312L13.2031 54.5508C13.2422 54.0625 12.9102 53.6719 12.4609 53.6719C11.9727 53.6719 11.6797 54.0625 11.6992 54.5508L11.8359 57.0312L9.74609 55.625C9.375 55.3906 8.88672 55.4297 8.65234 55.8398C8.41797 56.2305 8.55469 56.7188 9.00391 56.9531L11.2109 58.0859L9.00391 59.1797C8.53516 59.4141 8.39844 59.9219 8.61328 60.3125C8.84766 60.7031 9.375 60.7617 9.74609 60.5273L11.8359 59.1602L11.7188 61.6211C11.6992 62.0703 11.9727 62.4805 12.4609 62.4805Z" fill="black" fill-opacity="0.85"/>
  <path d="M43.3398 51.8164L45.2148 48.5352C45.625 47.8516 45.4297 47.0703 44.7656 46.6797C44.1016 46.3086 43.3398 46.543 42.9297 47.207L41.0352 50.5273C40.6836 51.1719 40.8398 51.9531 41.5234 52.3438C42.168 52.7148 42.9688 52.4805 43.3398 51.8164Z" fill="black" fill-opacity="0.85"/>
  <path d="M27.9297 55.5664L32.0312 48.4766C32.4219 47.7734 32.2266 47.0117 31.582 46.6211C30.918 46.2305 30.1367 46.4453 29.7461 47.1484L25.625 54.2969C25.2539 54.9414 25.4297 55.7227 26.1133 56.1133C26.7578 56.4844 27.5586 56.25 27.9297 55.5664Z" fill="black" fill-opacity="0.85"/>
  <path d="M16.9336 51.7188L18.8086 48.4375C19.2188 47.7539 19.0234 46.9727 18.3594 46.582C17.6953 46.2109 16.9141 46.4453 16.5234 47.1094L14.6289 50.4297C14.2578 51.0938 14.4336 51.8555 15.0977 52.2461C15.7617 52.6172 16.5625 52.3828 16.9336 51.7188Z" fill="black" fill-opacity="0.85"/>
  <path d="M13.8281 42.5391L45.2148 42.5391C53.3594 42.5391 59.4727 36.3672 59.4727 28.7109C59.4727 20.8008 52.9883 15.0195 44.5508 15.0195C41.3867 8.73047 35.6445 4.66797 28.2617 4.66797C18.8867 4.66797 11.1719 12.1094 10.3516 21.4648C5.74219 22.7734 2.20703 26.6602 2.20703 31.9727C2.20703 37.793 6.46484 42.5391 13.8281 42.5391Z" fill="black" fill-opacity="0.85"/>
 </g>
</svg>
