<?xml version="1.0" encoding="UTF-8"?>
<!--Generator: Apple Native CoreSVG 326-->
<!DOCTYPE svg
PUBLIC "-//W3C//DTD SVG 1.1//EN"
       "http://www.w3.org/Graphics/SVG/1.1/DTD/svg11.dtd">
<svg version="1.1" xmlns="http://www.w3.org/2000/svg" xmlns:xlink="http://www.w3.org/1999/xlink" viewBox="0 0 77.5195 70.6055">
 <g>
  <rect height="70.6055" opacity="0" width="77.5195" x="0" y="0"/>
  <path d="M45.4492 61.8164C46.1133 62.207 46.3281 62.9688 45.8984 63.6719L42.4609 69.6484C42.0703 70.3125 41.2891 70.5469 40.625 70.1758C39.9414 69.7852 39.7656 69.0234 40.1562 68.3594L43.6133 62.3438C44.043 61.6602 44.7852 61.4453 45.4492 61.8164Z" fill="black" fill-opacity="0.85"/>
  <path d="M37.5391 54.7266C38.2031 55.1172 38.418 55.8984 37.9883 56.582L34.5508 62.5586C34.1602 63.2422 33.3789 63.457 32.7148 63.0859C32.0312 62.6953 31.8555 61.9336 32.2266 61.2695L35.7031 55.2539C36.1328 54.5703 36.875 54.3555 37.5391 54.7266Z" fill="black" fill-opacity="0.85"/>
  <path d="M25.3906 61.8359C26.0547 62.2266 26.2695 62.9883 25.8594 63.6914L22.4023 69.668C22.0117 70.332 21.2305 70.5664 20.5664 70.1953C19.9023 69.8047 19.707 69.043 20.0977 68.3789L23.5742 62.3633C23.9844 61.6797 24.7266 61.4648 25.3906 61.8359Z" fill="black" fill-opacity="0.85"/>
  <path d="M17.4805 54.7461C18.1445 55.1367 18.3594 55.918 17.9492 56.6016L14.4922 62.5781C14.1016 63.2617 13.3203 63.4766 12.6562 63.1055C11.9727 62.7148 11.7969 61.9531 12.1875 61.3086L15.6641 55.2734C16.0742 54.5898 16.8164 54.375 17.4805 54.7461Z" fill="black" fill-opacity="0.85"/>
  <path d="M65.7812 37.5977L69.9805 41.7969C70.6836 42.5 70.6641 43.6133 69.9805 44.2969C69.2773 44.9805 68.1641 45.0195 67.4805 44.3164L63.2617 40.1172C62.5781 39.4336 62.5781 38.3008 63.2617 37.5977C63.9648 36.9531 65.0977 36.9336 65.7812 37.5977ZM63.9258 25.957C63.9258 31.4847 60.2359 36.1938 55.2076 37.7398C55.1769 36.6309 54.9849 35.5733 54.6636 34.5767C58.225 33.3451 60.7422 29.9794 60.7422 25.957C60.7422 20.8594 56.6992 16.8164 51.6211 16.8164C46.543 16.8164 42.5 20.8594 42.5 25.957C42.5 25.9906 42.5002 26.0242 42.5049 26.0565C42.3767 26.0396 42.2433 26.0366 42.1094 26.0352C41.4451 24.7859 40.669 23.6416 39.7874 22.6251C41.2371 17.4347 46.012 13.6133 51.6211 13.6133C58.3789 13.6133 63.9258 19.1602 63.9258 25.957ZM77.5195 25.957C77.5195 26.9336 76.7188 27.7344 75.7422 27.7344L69.8633 27.7344C68.9062 27.7344 68.0859 26.9336 68.0859 25.957C68.0859 25 68.9062 24.1797 69.8633 24.1797L75.7422 24.1797C76.7188 24.1797 77.5195 25 77.5195 25.957ZM69.9805 7.61719C70.6641 8.30078 70.6836 9.45312 69.9805 10.1562L65.8008 14.3164C65.0977 15.0391 63.9648 15 63.2617 14.3164C62.5781 13.6328 62.5781 12.5 63.2617 11.8164L67.4805 7.61719C68.1641 6.91406 69.2773 6.93359 69.9805 7.61719ZM35.7812 7.61719L39.9805 11.8164C40.6445 12.4805 40.6445 13.6523 39.9609 14.3164C39.2578 15 38.125 15.0195 37.4414 14.3164L33.2617 10.1367C32.5781 9.45312 32.6172 8.30078 33.2812 7.61719C33.9844 6.93359 35.0977 6.93359 35.7812 7.61719ZM53.418 1.77734L53.418 7.69531C53.418 8.63281 52.5977 9.43359 51.6406 9.43359C50.6836 9.43359 49.8438 8.63281 49.8438 7.69531L49.8438 1.77734C49.8438 0.820312 50.6836 0 51.6406 0C52.5977 0 53.418 0.820312 53.418 1.77734Z" fill="black" fill-opacity="0.85"/>
  <path d="M15.0977 50.6641L42.4609 50.6641C49.6484 50.6641 55.2344 45.2344 55.2344 38.2617C55.2344 31.3477 49.5703 26.1133 42.1094 26.0352C39.1602 20.4883 34.0039 17.0117 27.6953 17.0117C19.4531 17.0117 12.5781 23.4766 11.7773 31.7383C7.57812 32.9883 4.62891 36.543 4.62891 41.1328C4.62891 46.6211 8.76953 50.6641 15.0977 50.6641ZM15.0195 47.1875C10.5078 47.1875 8.10547 44.5508 8.10547 41.2109C8.10547 38.3203 9.86328 35.8594 13.6133 34.8438C14.7266 34.5508 15.1172 34.0625 15.2148 32.9492C15.7812 25.8008 21.2305 20.4688 27.6953 20.4688C32.8906 20.4688 36.8164 23.418 39.1797 28.125C39.668 29.082 40.2344 29.4141 41.3867 29.4141C47.8516 29.4141 51.7773 33.4766 51.7773 38.3789C51.7773 43.2617 47.7344 47.1875 42.5195 47.1875Z" fill="black" fill-opacity="0.85"/>
 </g>
</svg>
