<?xml version="1.0" encoding="UTF-8"?>
<!--Generator: Apple Native CoreSVG 326-->
<!DOCTYPE svg
PUBLIC "-//W3C//DTD SVG 1.1//EN"
       "http://www.w3.org/Graphics/SVG/1.1/DTD/svg11.dtd">
<svg version="1.1" xmlns="http://www.w3.org/2000/svg" xmlns:xlink="http://www.w3.org/1999/xlink" viewBox="0 0 64.6862 62.4805">
 <g>
  <rect height="62.4805" opacity="0" width="64.6862" x="0" y="0"/>
  <path d="M30.8197 62.0898L45.9173 62.0898C50.2728 62.0898 53.0072 59.1797 52.8705 54.8242L52.3236 39.9023L49.5111 40.4883L51.4056 48.8477C51.8939 51.0742 53.515 51.4648 55.7025 50.8398L61.679 49.1016C63.8861 48.457 64.7845 46.7188 64.0814 44.1992L54.5501 9.78516C54.0033 7.8125 52.7337 6.48438 50.6634 5.70312L44.2572 3.26172L46.1712 7.98828C46.933 9.84375 46.7181 11.3672 45.5462 13.2422L30.8001 37.168ZM38.0072 45.0781C36.5228 45.0781 35.39 43.9062 35.4095 42.4414C35.4095 40.957 36.5423 39.7852 38.0072 39.7852C39.4915 39.7852 40.6244 40.9766 40.6244 42.4414C40.6244 43.9062 39.472 45.0781 38.0072 45.0781ZM38.0072 56.4453C36.5228 56.4453 35.39 55.2539 35.4095 53.7695C35.4095 52.3047 36.5423 51.1523 38.0072 51.1523C39.4915 51.1523 40.6244 52.3242 40.6244 53.7695C40.6244 55.2539 39.472 56.4453 38.0072 56.4453ZM30.9564 31.6602L42.5775 12.3828C43.4955 10.8984 43.5931 9.64844 42.9486 8.06641L40.5072 1.95312C39.9603 0.566406 39.2181 0 38.1048 0C36.8353 0 35.9759 0.976562 35.722 2.55859ZM18.7689 13.2422C17.597 11.3867 17.3822 9.84375 18.1439 7.98828L20.058 3.26172L13.6517 5.72266C11.5423 6.52344 10.3119 7.8125 9.76499 9.80469L0.233736 44.2188C-0.449858 46.7188 0.370455 48.4766 2.63608 49.1211L8.69077 50.8398C10.9173 51.4648 12.4994 51.0742 12.9876 48.8477L14.8822 40.4883L12.0892 38.8867L11.5228 54.8242C11.3665 59.1797 14.1205 62.0898 18.4759 62.0898L27.7533 62.0898L27.7533 27.8125ZM29.2181 24.6484L30.722 13.6914L28.5931 2.55859C28.3197 0.839844 27.4212 0 26.2103 0C25.097 0 24.3939 0.46875 23.7884 1.95312L21.3665 8.06641C20.722 9.64844 20.8392 10.918 21.7376 12.3828Z" fill="black" fill-opacity="0.85"/>
 </g>
</svg>
