<?xml version="1.0" encoding="UTF-8"?>
<!--Generator: Apple Native CoreSVG 326-->
<!DOCTYPE svg
PUBLIC "-//W3C//DTD SVG 1.1//EN"
       "http://www.w3.org/Graphics/SVG/1.1/DTD/svg11.dtd">
<svg version="1.1" xmlns="http://www.w3.org/2000/svg" xmlns:xlink="http://www.w3.org/1999/xlink" viewBox="0 0 56.2305 55.8789">
 <g>
  <rect height="55.8789" opacity="0" width="56.2305" x="0" y="0"/>
  <path d="M27.9297 55.8594C43.2812 55.8594 55.8594 43.3008 55.8594 27.9297C55.8594 12.5586 43.2812 0 27.9297 0C12.5781 0 0 12.5586 0 27.9297C0 43.3008 12.5781 55.8594 27.9297 55.8594ZM27.9297 46.6797C17.5586 46.6797 9.16016 38.3008 9.16016 27.9297C9.16016 17.5586 17.5586 9.16016 27.9297 9.16016C38.3008 9.16016 46.6992 17.5586 46.6992 27.9297C46.6992 38.3008 38.3008 46.6797 27.9297 46.6797Z" fill="black" fill-opacity="0.85"/>
  <path d="M28.2031 38.8672C32.0117 38.8672 35.332 37.0703 36.4648 33.7695C36.6211 33.3984 36.6797 32.9883 36.6797 32.6172C36.6797 31.7578 36.1133 31.4062 35.4883 31.4062C34.7852 31.4062 34.4531 31.8164 34.2188 32.4414C33.4375 35.0781 31.0352 36.543 28.2031 36.543C23.3984 36.543 21.2109 32.3828 21.2109 27.7344C21.2109 23.0078 23.4961 18.9844 28.1836 18.9844C30.9961 18.9844 33.418 20.7227 34.0625 23.125C34.2578 23.75 34.5508 24.1797 35.3125 24.1797C36.0938 24.1797 36.5234 23.6914 36.5234 22.9883C36.5234 22.6172 36.4453 22.1875 36.2891 21.8164C35 18.4375 31.6992 16.6602 28.1836 16.6602C21.9727 16.6602 18.4961 21.3672 18.4961 27.7344C18.4961 34.0039 21.8359 38.8672 28.2031 38.8672ZM22.2266 42.2852C22.6172 42.2852 22.8711 42.1094 22.9883 41.6797L29.8438 14.8242C29.9023 14.6094 29.9219 14.4922 29.9219 14.3945C29.9219 14.0039 29.6094 13.6719 29.1406 13.6719C28.7109 13.6719 28.457 13.8672 28.3398 14.2969L21.5039 41.1133C21.4453 41.2695 21.4258 41.4062 21.4258 41.543C21.4258 41.9531 21.7578 42.2852 22.2266 42.2852ZM27.0312 42.2852C27.4219 42.2852 27.6758 42.1094 27.793 41.6797L34.6289 14.8242C34.707 14.6094 34.7266 14.4922 34.7266 14.3945C34.7266 14.0039 34.4141 13.6719 33.9453 13.6719C33.5156 13.6719 33.2617 13.8672 33.1445 14.2969L26.2891 41.1133C26.25 41.2695 26.2305 41.4062 26.2305 41.543C26.2305 41.9531 26.5625 42.2852 27.0312 42.2852Z" fill="black" fill-opacity="0.85"/>
 </g>
</svg>
