<?xml version="1.0" encoding="UTF-8"?>
<!--Generator: Apple Native CoreSVG 326-->
<!DOCTYPE svg
PUBLIC "-//W3C//DTD SVG 1.1//EN"
       "http://www.w3.org/Graphics/SVG/1.1/DTD/svg11.dtd">
<svg version="1.1" xmlns="http://www.w3.org/2000/svg" xmlns:xlink="http://www.w3.org/1999/xlink" viewBox="0 0 60.961 50.918">
 <g>
  <rect height="50.918" opacity="0" width="60.961" x="0" y="0"/>
  <path d="M30.295 50.8789C44.3379 50.8789 55.7246 39.4922 55.7246 25.4492C55.7246 11.4062 44.3379 0 30.295 0C16.252 0 4.86526 11.4062 4.86526 25.4492L8.49808 25.4492C8.49808 13.3984 18.2442 3.65234 30.295 3.65234C42.3457 3.65234 52.0918 13.3984 52.0918 25.4492C52.0918 37.5 42.3457 47.2461 30.295 47.2461C22.834 47.2461 16.1739 43.457 12.3653 37.7539C11.7207 36.875 10.7051 36.6016 9.80667 37.1484C8.94729 37.6562 8.69339 38.8477 9.39651 39.8047C13.9473 46.5039 21.6426 50.8789 30.295 50.8789ZM1.60354 20.7227C0.00198146 20.7227-0.447237 21.8164 0.470731 23.0859L6.01761 30.9766C6.75979 32.0508 7.83401 32.0312 8.55667 30.9766L14.1035 23.0664C14.9825 21.8164 14.5528 20.7227 12.9707 20.7227Z" fill="black" fill-opacity="0.85"/>
  <path d="M30.5684 36.3867C34.377 36.3867 37.6973 34.5898 38.8496 31.2891C38.9864 30.918 39.0645 30.5078 39.0645 30.1367C39.0645 29.2773 38.4785 28.9258 37.8535 28.9258C37.17 28.9258 36.8184 29.3359 36.584 29.9609C35.8028 32.5977 33.4004 34.0625 30.5684 34.0625C25.7637 34.0625 23.5957 29.9023 23.5957 25.2539C23.5957 20.5273 25.8809 16.5039 30.5489 16.5039C33.3614 16.5039 35.8028 18.2422 36.4278 20.6445C36.6231 21.2695 36.916 21.6992 37.6973 21.6992C38.459 21.6992 38.9082 21.2109 38.9082 20.5078C38.9082 20.1367 38.8106 19.707 38.6739 19.3359C37.3653 15.957 34.0645 14.1797 30.5489 14.1797C24.3379 14.1797 20.8614 18.8867 20.8614 25.2539C20.8614 31.5234 24.2012 36.3867 30.5684 36.3867ZM24.5918 39.8047C24.9825 39.8047 25.2559 39.6289 25.3731 39.1992L32.209 12.3438C32.2676 12.1289 32.2871 12.0117 32.2871 11.9141C32.2871 11.5234 31.9746 11.1914 31.5254 11.1914C31.0762 11.1914 30.8223 11.3867 30.7051 11.8164L23.8692 38.6328C23.8301 38.7891 23.8106 38.9258 23.8106 39.0625C23.8106 39.4727 24.1231 39.8047 24.5918 39.8047ZM29.3965 39.8047C29.7871 39.8047 30.041 39.6289 30.1582 39.1992L37.0137 12.3438C37.0723 12.1289 37.0918 12.0117 37.0918 11.9141C37.0918 11.5234 36.7793 11.1914 36.3301 11.1914C35.8809 11.1914 35.627 11.3867 35.5098 11.8164L28.6739 38.6328C28.6153 38.7891 28.5957 38.9258 28.5957 39.0625C28.5957 39.4727 28.9278 39.8047 29.3965 39.8047Z" fill="black" fill-opacity="0.85"/>
 </g>
</svg>
