<?xml version="1.0" encoding="UTF-8"?>
<!--Generator: Apple Native CoreSVG 326-->
<!DOCTYPE svg
PUBLIC "-//W3C//DTD SVG 1.1//EN"
       "http://www.w3.org/Graphics/SVG/1.1/DTD/svg11.dtd">
<svg version="1.1" xmlns="http://www.w3.org/2000/svg" xmlns:xlink="http://www.w3.org/1999/xlink" viewBox="0 0 60.4102 50.0586">
 <g>
  <rect height="50.0586" opacity="0" width="60.4102" x="0" y="0"/>
  <path d="M60.0391 30.0195C60.0391 22.6562 57.3828 15.918 52.9688 10.6836C52.4609 10.0781 51.6016 10.0977 51.0352 10.6641L45.3906 16.3086C44.9023 16.7969 44.8828 17.4805 45.3125 18.0273C47.9102 21.3477 49.4531 25.4883 49.4531 30.0195C49.4531 34.5508 47.9102 38.7109 45.1953 42.1484C44.8242 42.6172 44.8438 43.2031 45.2539 43.6133L51.0352 49.4141C51.6016 50 52.4414 49.9805 52.9688 49.375C57.3828 44.1406 60.0391 37.3633 60.0391 30.0195Z" fill="black" fill-opacity="0.85"/>
  <path d="M30.0195 10.5664C34.5508 10.5664 38.7305 12.1289 42.0508 14.7656C42.5781 15.1562 43.2227 15.1172 43.7109 14.6289L49.375 8.96484C49.9609 8.39844 49.9414 7.55859 49.3359 7.03125C44.1211 2.65625 37.3633 0 30.0195 0C22.6758 0 15.918 2.65625 10.7031 7.03125C10.0977 7.55859 10.0781 8.39844 10.6445 8.96484L16.3281 14.6289C16.7969 15.1172 17.5 15.1367 18.0469 14.707C21.3477 12.1289 25.5078 10.5664 30.0195 10.5664Z" fill="black" fill-opacity="0.85"/>
  <path d="M0 30.0195C0 37.3633 2.65625 44.1406 7.07031 49.375C7.57812 49.9805 8.4375 50 9.00391 49.4141L14.7852 43.6133C15.1758 43.2031 15.2148 42.6172 14.8438 42.1484C12.1289 38.7109 10.5664 34.5508 10.5664 30.0195C10.5664 25.4883 12.1094 21.3477 14.7266 18.0273C15.1367 17.4805 15.1367 16.7969 14.6484 16.3086L8.98438 10.6641C8.41797 10.0977 7.57812 10.0781 7.05078 10.6836C2.63672 15.918 0 22.6562 0 30.0195Z" fill="black" fill-opacity="0.85"/>
  <path d="M30.2734 41.2891C34.082 41.2891 37.4023 39.4727 38.5352 36.1914C38.6914 35.8008 38.75 35.4102 38.75 35.0195C38.75 34.1797 38.1836 33.8281 37.5586 33.8281C36.8555 33.8281 36.5039 34.2383 36.2891 34.8633C35.4883 37.5 33.1055 38.9648 30.2734 38.9648C25.4492 38.9648 23.2812 34.8047 23.2812 30.1562C23.2812 25.4297 25.5664 21.4062 30.2539 21.4062C33.0469 21.4062 35.4883 23.1445 36.1328 25.5469C36.3281 26.1719 36.6211 26.582 37.3828 26.582C38.1641 26.582 38.5938 26.1133 38.5938 25.3906C38.5938 25.0391 38.5156 24.5898 38.3594 24.2188C37.0508 20.8594 33.75 19.082 30.2539 19.082C24.043 19.082 20.5469 23.7891 20.5469 30.1562C20.5469 36.4062 23.8867 41.2891 30.2734 41.2891ZM24.2969 44.707C24.6875 44.707 24.9414 44.5312 25.0586 44.082L31.8945 17.2461C31.9727 17.0312 31.9922 16.8945 31.9922 16.8164C31.9922 16.4062 31.6797 16.0938 31.2109 16.0938C30.7812 16.0938 30.5273 16.2891 30.4102 16.6992L23.5547 43.5156C23.5156 43.6914 23.4961 43.8281 23.4961 43.9648C23.4961 44.375 23.8281 44.707 24.2969 44.707ZM29.082 44.707C29.4922 44.707 29.7461 44.5312 29.8633 44.082L36.6992 17.2461C36.7773 17.0312 36.7969 16.8945 36.7969 16.8164C36.7969 16.4062 36.4844 16.0938 36.0156 16.0938C35.5859 16.0938 35.3125 16.2891 35.2148 16.6992L28.3594 43.5156C28.3203 43.6914 28.3008 43.8281 28.3008 43.9648C28.3008 44.375 28.6328 44.707 29.082 44.707Z" fill="black" fill-opacity="0.85"/>
 </g>
</svg>
