<?xml version="1.0" encoding="UTF-8"?>
<!--Generator: Apple Native CoreSVG 326-->
<!DOCTYPE svg
PUBLIC "-//W3C//DTD SVG 1.1//EN"
       "http://www.w3.org/Graphics/SVG/1.1/DTD/svg11.dtd">
<svg version="1.1" xmlns="http://www.w3.org/2000/svg" xmlns:xlink="http://www.w3.org/1999/xlink" viewBox="0 0 51.25 50.918">
 <g>
  <rect height="50.918" opacity="0" width="51.25" x="0" y="0"/>
  <path d="M50.8789 25.4492C50.8789 39.4531 39.4531 50.8789 25.4297 50.8789C11.4258 50.8789 0 39.4531 0 25.4492C0 11.4258 11.4258 0 25.4297 0C39.4531 0 50.8789 11.4258 50.8789 25.4492ZM30.7812 11.4648L29.9219 14.8242C28.9844 14.375 27.9688 14.082 26.9141 13.9648L27.4023 12.0117C27.4609 11.7969 27.4805 11.6602 27.4805 11.582C27.4805 11.1523 27.168 10.8398 26.6992 10.8398C26.2305 10.8398 25.9766 11.0352 25.8594 11.4648L25.2344 13.9062C19.1406 14.1406 15.7617 18.8867 15.7617 25.2539C15.7617 29.3555 17.1484 32.8906 19.8828 34.9023L18.8477 38.9648C18.7891 39.1211 18.7695 39.2773 18.7695 39.3945C18.7695 39.8438 19.1211 40.1562 19.5898 40.1562C20 40.1562 20.2734 39.9805 20.3906 39.5312L21.3672 35.7617C22.2656 36.1719 23.2617 36.4648 24.375 36.582L23.7695 38.9648C23.7109 39.1211 23.6914 39.2773 23.6914 39.3945C23.6914 39.8438 24.043 40.1562 24.5117 40.1562C24.9219 40.1562 25.1758 39.9805 25.3125 39.5312L26.0547 36.6602L26.0938 36.6602C29.8438 36.6602 33.0664 34.707 34.2188 31.4453C34.3555 31.0547 34.4336 30.6445 34.4336 30.2539C34.4336 29.3945 33.8281 29.0039 33.1836 29.0039C32.4805 29.0039 32.1094 29.4336 31.8945 30.0781C31.1719 32.4609 29.1406 33.9258 26.6797 34.1992L30.6836 18.5547C31.1914 19.1016 31.5625 19.7656 31.7383 20.5273C31.9141 21.1719 32.2266 21.6016 33.0273 21.6016C33.8086 21.6016 34.2773 21.1133 34.2773 20.3711C34.2773 20 34.1602 19.5508 34.0234 19.1602C33.4766 17.7148 32.5391 16.5625 31.3867 15.6836L32.3242 12.0117C32.3828 11.7969 32.4023 11.6602 32.4023 11.582C32.4023 11.1523 32.0898 10.8398 31.6211 10.8398C31.1523 10.8398 30.8984 11.0352 30.7812 11.4648ZM29.2773 17.3047L24.9609 34.2383C23.8086 34.1406 22.8125 33.7695 21.9922 33.2227L26.3086 16.3086C27.4023 16.4062 28.4375 16.7773 29.2773 17.3047ZM20.625 31.9336C19.2383 30.2344 18.5938 27.832 18.5938 25.2539C18.5938 20.8203 20.5664 16.9922 24.6094 16.3867Z" fill="black" fill-opacity="0.85"/>
 </g>
</svg>
