<?xml version="1.0" encoding="UTF-8"?>
<!--Generator: Apple Native CoreSVG 326-->
<!DOCTYPE svg
PUBLIC "-//W3C//DTD SVG 1.1//EN"
       "http://www.w3.org/Graphics/SVG/1.1/DTD/svg11.dtd">
<svg version="1.1" xmlns="http://www.w3.org/2000/svg" xmlns:xlink="http://www.w3.org/1999/xlink" viewBox="0 0 60.4102 49.8382">
 <g>
  <rect height="49.8382" opacity="0" width="60.4102" x="0" y="0"/>
  <path d="M60.0391 29.9093C60.0391 14.1867 47.9492 1.29605 32.5977 0.00698344C31.7969-0.0711416 31.1719 0.514796 31.1719 1.33511L31.1719 9.32339C31.1719 9.98745 31.6602 10.5148 32.3438 10.5734C41.9727 11.7453 49.4531 19.9484 49.4531 29.9093C49.4531 34.4406 47.9102 38.6007 45.1758 42.0382C44.8047 42.507 44.8242 43.0929 45.2344 43.5031L51.0352 49.3039C51.6211 49.8703 52.4609 49.8703 52.9688 49.2453C57.3828 44.0109 60.0391 37.2531 60.0391 29.9093Z" fill="black" fill-opacity="0.85"/>
  <path d="M0 29.9093C0 37.2726 2.65625 44.05 7.08984 49.2843C7.57812 49.8703 8.39844 49.8703 8.98438 49.3039L14.7852 43.5031C15.1953 43.0929 15.2148 42.507 14.8438 42.0382C12.1094 38.6007 10.5664 34.4406 10.5664 29.9093C10.5664 19.9484 18.0664 11.7453 27.6758 10.5734C28.3789 10.5148 28.8477 9.98745 28.8477 9.32339L28.8477 1.33511C28.8477 0.514796 28.2422-0.0711416 27.4414 0.00698344C12.0703 1.29605 0 14.1867 0 29.9093Z" fill="black" fill-opacity="0.85"/>
  <path d="M30.2734 41.1789C34.082 41.1789 37.4023 39.3625 38.5352 36.0812C38.6914 35.6906 38.75 35.3 38.75 34.9093C38.75 34.0695 38.1836 33.7179 37.5586 33.7179C36.8555 33.7179 36.5039 34.1281 36.2891 34.7531C35.4883 37.3898 33.1055 38.8546 30.2734 38.8546C25.4492 38.8546 23.2812 34.6945 23.2812 30.046C23.2812 25.3195 25.5664 21.296 30.2539 21.296C33.0469 21.296 35.4883 23.0343 36.1328 25.4367C36.3281 26.0617 36.6211 26.4718 37.3828 26.4718C38.1641 26.4718 38.5938 26.0031 38.5938 25.2804C38.5938 24.9289 38.5156 24.4796 38.3594 24.1085C37.0508 20.7492 33.75 18.9718 30.2539 18.9718C24.043 18.9718 20.5469 23.6789 20.5469 30.046C20.5469 36.296 23.8867 41.1789 30.2734 41.1789ZM24.2969 44.5968C24.6875 44.5968 24.9414 44.421 25.0586 43.9718L31.8945 17.1359C31.9727 16.921 31.9922 16.7843 31.9922 16.7062C31.9922 16.296 31.6797 15.9835 31.2109 15.9835C30.7812 15.9835 30.5273 16.1789 30.4102 16.589L23.5547 43.4054C23.5156 43.5812 23.4961 43.7179 23.4961 43.8546C23.4961 44.2648 23.8281 44.5968 24.2969 44.5968ZM29.082 44.5968C29.4922 44.5968 29.7461 44.421 29.8633 43.9718L36.6992 17.1359C36.7773 16.921 36.7969 16.7843 36.7969 16.7062C36.7969 16.296 36.4844 15.9835 36.0156 15.9835C35.5859 15.9835 35.3125 16.1789 35.2148 16.589L28.3594 43.4054C28.3203 43.5812 28.3008 43.7179 28.3008 43.8546C28.3008 44.2648 28.6328 44.5968 29.082 44.5968Z" fill="black" fill-opacity="0.85"/>
 </g>
</svg>
