<?xml version="1.0" encoding="UTF-8"?>
<!--Generator: Apple Native CoreSVG 326-->
<!DOCTYPE svg
PUBLIC "-//W3C//DTD SVG 1.1//EN"
       "http://www.w3.org/Graphics/SVG/1.1/DTD/svg11.dtd">
<svg version="1.1" xmlns="http://www.w3.org/2000/svg" xmlns:xlink="http://www.w3.org/1999/xlink" viewBox="0 0 57.0073 60.1074">
 <g>
  <rect height="60.1074" opacity="0" width="57.0073" x="0" y="0"/>
  <path d="M2.57593 48.3838L13.7869 59.5947C14.4705 60.2783 15.5837 60.2783 16.2478 59.5947C16.9119 58.9111 16.9119 57.8369 16.2478 57.1533L9.02125 49.9072L46.4822 12.4268L53.7087 19.6729C54.3923 20.3564 55.4666 20.376 56.1306 19.6924C56.8142 19.0088 56.8142 17.9346 56.1306 17.251L44.9197 6.04004C41.4236 2.56348 37.0681 2.60254 33.5525 6.09863L2.65406 37.0166C-0.842034 40.5127-0.900628 44.8877 2.57593 48.3838ZM43.2009 14.9072L41.1306 17.0166L48.9431 24.8096C49.5095 25.415 50.447 25.415 51.0134 24.8291C51.5994 24.2627 51.6189 23.3252 51.033 22.7393ZM38.2595 19.8486L36.2087 21.958L43.9822 29.751C44.5681 30.3369 45.5056 30.3369 46.0525 29.7705C46.6384 29.1846 46.658 28.2666 46.072 27.6807ZM33.3377 24.79L31.2673 26.9189L39.0603 34.7119C39.6267 35.2783 40.5447 35.2783 41.1111 34.7314C41.697 34.1455 41.7166 33.208 41.1306 32.6221ZM28.4158 29.751L26.3259 31.8213L34.1189 39.6338C34.7048 40.2197 35.6228 40.2197 36.1892 39.6338C36.7556 39.0479 36.7752 38.1299 36.2087 37.5635ZM23.4548 34.6924L21.3845 36.7627L29.1775 44.5947C29.7634 45.1611 30.6814 45.1611 31.2478 44.5947C31.8337 44.0283 31.8533 43.0713 31.2673 42.4854ZM18.5134 39.6338L16.4431 41.7041L24.2361 49.5361C24.822 50.1221 25.74 50.1221 26.2869 49.5361C26.8728 48.9502 26.8923 48.0322 26.3064 47.4463ZM13.572 44.5752L11.5017 46.6455L19.2947 54.4775C19.8611 55.0635 20.7986 55.0635 21.365 54.4775C21.9509 53.9111 21.9705 52.9736 21.3845 52.3877Z" fill="black" fill-opacity="0.85"/>
 </g>
</svg>
