<?xml version="1.0" encoding="UTF-8"?>
<!--Generator: Apple Native CoreSVG 326-->
<!DOCTYPE svg
PUBLIC "-//W3C//DTD SVG 1.1//EN"
       "http://www.w3.org/Graphics/SVG/1.1/DTD/svg11.dtd">
<svg version="1.1" xmlns="http://www.w3.org/2000/svg" xmlns:xlink="http://www.w3.org/1999/xlink" viewBox="0 0 47.9102 47.5977">
 <g>
  <rect height="47.5977" opacity="0" width="47.9102" x="0" y="0"/>
  <path d="M14.2188 17.5586L14.2188 30.0195L8.78906 30.0195C3.94531 30.0195 0 33.8867 0 38.75C0 43.6328 3.94531 47.5781 8.78906 47.5781C13.6328 47.5781 17.5781 43.6328 17.5781 38.75L17.5781 33.3203L29.9609 33.3203L29.9609 38.75C29.9609 43.6328 33.9062 47.5781 38.75 47.5781C43.5938 47.5781 47.5391 43.6328 47.5391 38.75C47.5391 33.8867 43.5938 30.0195 38.75 30.0195L33.3203 30.0195L33.3203 17.5586L38.75 17.5586C43.5938 17.5586 47.5391 13.7109 47.5391 8.82812C47.5391 3.96484 43.5938 0 38.75 0C33.9062 0 29.9609 3.96484 29.9609 8.82812L29.9609 14.2578L17.5781 14.2578L17.5781 8.82812C17.5781 3.96484 13.6328 0 8.78906 0C3.94531 0 0 3.96484 0 8.82812C0 13.7109 3.94531 17.5586 8.78906 17.5586ZM8.78906 14.2969C5.82031 14.2969 3.35938 11.8359 3.35938 8.82812C3.35938 5.83984 5.82031 3.37891 8.78906 3.37891C11.7578 3.37891 14.2188 5.83984 14.2188 8.82812L14.2188 14.2969ZM38.75 14.2969L33.3203 14.2969L33.3203 8.82812C33.3203 5.83984 35.7812 3.37891 38.75 3.37891C41.7188 3.37891 44.1797 5.83984 44.1797 8.82812C44.1797 11.8359 41.7188 14.2969 38.75 14.2969ZM17.5781 30.0195L17.5781 17.5586L29.9609 17.5586L29.9609 30.0195ZM8.78906 33.2617L14.2188 33.2617L14.2188 38.7305C14.2188 41.7383 11.7578 44.1992 8.78906 44.1992C5.82031 44.1992 3.35938 41.7383 3.35938 38.7305C3.35938 35.7227 5.82031 33.2617 8.78906 33.2617ZM38.75 33.2617C41.7188 33.2617 44.1797 35.7227 44.1797 38.7305C44.1797 41.7383 41.7188 44.1992 38.75 44.1992C35.7812 44.1992 33.3203 41.7383 33.3203 38.7305L33.3203 33.2617Z" fill="black" fill-opacity="0.85"/>
 </g>
</svg>
