<?xml version="1.0" encoding="UTF-8"?>
<!--Generator: Apple Native CoreSVG 326-->
<!DOCTYPE svg
PUBLIC "-//W3C//DTD SVG 1.1//EN"
       "http://www.w3.org/Graphics/SVG/1.1/DTD/svg11.dtd">
<svg version="1.1" xmlns="http://www.w3.org/2000/svg" xmlns:xlink="http://www.w3.org/1999/xlink" viewBox="0 0 92.6758 59.5021">
 <g>
  <rect height="59.5021" opacity="0" width="92.6758" x="0" y="0"/>
  <path d="M27.8711 42.6514C27.8711 46.8897 24.5508 50.1905 20.332 50.1905C16.0938 50.1905 12.793 46.8897 12.793 42.6514C12.793 38.4522 16.0938 35.1319 20.332 35.1319C24.5508 35.1319 27.8711 38.4522 27.8711 42.6514ZM80.1367 42.6514C80.1367 46.8897 76.8359 50.1905 72.5977 50.1905C68.3789 50.1905 65.0586 46.8897 65.0586 42.6514C65.0586 38.4522 68.3789 35.1319 72.5977 35.1319C76.8359 35.1319 80.1367 38.4522 80.1367 42.6514ZM47.4414 13.2374L36.1914 20.8155L65.7227 18.921C66.8945 18.8428 68.0469 18.921 69.2578 19.1749L84.3945 22.0264C90.0781 23.1202 92.3047 25.5616 92.3047 31.2647L92.3047 35.6397C92.3047 40.5225 90.0391 43.1007 85.293 43.628L82.832 43.8819C82.8516 43.5694 82.8516 43.3936 82.8516 43.0421C82.8516 37.3389 78.3203 32.4171 72.5977 32.4171C66.875 32.4171 62.3438 36.9483 62.3438 42.6514C62.3438 43.3936 62.4219 44.1163 62.5781 44.6827L30.4102 44.6827C30.5273 44.1553 30.5859 43.3741 30.5859 42.6514C30.5859 36.9483 26.0547 32.4171 20.332 32.4171C14.6094 32.4171 10.0586 36.9483 10.0586 42.6514C10.0586 43.5889 10.1953 44.9171 10.4297 45.7569L5.13672 45.1124C1.58203 44.7022 0 42.9639 0 39.4678L0 36.1671C0 29.5069 4.00391 25.8936 11.9922 24.3897L29.4531 21.0889L45.3711 10.4444C47.5 9.01862 49.3945 11.9092 47.4414 13.2374ZM44.9219 27.378L39.6484 36.0694C39.0234 37.085 39.4922 38.0811 40.6836 38.0811L51.6016 38.0811C52.793 38.0811 53.3008 37.1046 52.6758 36.0889L47.3242 27.378C46.7578 26.4014 45.5469 26.3624 44.9219 27.378Z" fill="black" fill-opacity="0.85"/>
  <path d="M52.8906 49.7413L47.4023 58.7257C46.7773 59.7413 45.5273 59.7803 44.8828 58.7257L39.4336 49.7608C38.7695 48.7061 39.2773 47.671 40.5273 47.671L51.7773 47.671C53.0078 47.671 53.5547 48.6866 52.8906 49.7413Z" fill="black" fill-opacity="0.85"/>
 </g>
</svg>
