<?xml version="1.0" encoding="UTF-8"?>
<!--Generator: Apple Native CoreSVG 326-->
<!DOCTYPE svg
PUBLIC "-//W3C//DTD SVG 1.1//EN"
       "http://www.w3.org/Graphics/SVG/1.1/DTD/svg11.dtd">
<svg version="1.1" xmlns="http://www.w3.org/2000/svg" xmlns:xlink="http://www.w3.org/1999/xlink" viewBox="0 0 92.6758 40.8789">
 <g>
  <rect height="40.8789" opacity="0" width="92.6758" x="0" y="0"/>
  <path d="M47.4414 3.92578L36.3497 11.3813L65.7227 9.60938C66.8945 9.55078 68.0469 9.60938 69.2578 9.86328L84.3945 12.7148C90.0586 13.7891 92.3047 16.25 92.3047 21.9531L92.3047 26.3281C92.3047 31.2109 90.0391 33.7891 85.293 34.3164L82.4494 34.6295C81.4547 38.2735 78.1767 40.8789 74.1602 40.8789C70.4224 40.8789 67.3126 38.6226 66.0959 35.3711L26.2088 35.3711C24.9921 38.6226 21.8823 40.8789 18.1445 40.8789C14.827 40.8789 12.0133 39.1014 10.571 36.4304L5.13672 35.8008C1.58203 35.4102 0 33.6523 0 30.1562L0 26.8555C0 20.1953 4.00391 16.582 11.9922 15.0781L22.9403 13.0085L25.2171 16.01L12.4805 18.4375C6.48438 19.5898 3.45703 22.168 3.45703 26.8555L3.45703 29.9219C3.45703 31.4258 4.23828 32.207 5.91797 32.4023L9.55824 32.8187C9.53691 32.6381 9.53125 32.4526 9.53125 32.2656C9.53125 27.4219 13.3008 23.6328 18.1445 23.6328C22.8694 23.6328 26.5907 27.2381 26.7602 31.9141L65.5445 31.9141C65.714 27.2381 69.4353 23.6328 74.1602 23.6328C78.628 23.6328 82.1818 26.8565 82.699 31.1609L84.8633 30.918C87.5781 30.6055 88.8477 29.1406 88.8477 26.3281L88.8477 21.9531C88.8477 18.5547 87.4805 16.9727 83.7891 16.2695L66.6016 13.0273L35.5457 14.8888L31.91 10.1344L45.3711 1.13281C47.5-0.292969 49.3945 2.59766 47.4414 3.92578ZM12.793 32.2656C12.793 35.2539 15.1562 37.6172 18.1445 37.6172C21.1523 37.6172 23.5156 35.2539 23.5156 32.2656C23.5156 29.2578 21.1523 26.8945 18.1445 26.8945C15.1562 26.8945 12.793 29.2578 12.793 32.2656ZM68.7891 32.2656C68.7891 35.2539 71.1719 37.6172 74.1602 37.6172C77.1484 37.6172 79.5117 35.2539 79.5117 32.2656C79.5117 29.2578 77.1484 26.8945 74.1602 26.8945C71.1719 26.8945 68.7891 29.2578 68.7891 32.2656Z" fill="black" fill-opacity="0.85"/>
  <path d="M13.0273 8.41797L19.375 8.41797C22.1094 8.41797 23.2617 8.92578 24.6484 10.7617L32.4414 21.0352C34.5117 23.7305 36.7383 24.9023 40.0781 24.9023L45.4102 24.9023L45.4102 27.3242C45.4102 28.8477 46.7578 29.2969 47.8906 28.5547L54.1992 24.5117C55.2734 23.8477 55.293 22.5195 54.1797 21.8164L47.9102 17.793C46.7578 17.0312 45.4102 17.4805 45.4102 19.0234L45.4102 21.4453L40.0781 21.4453C37.7734 21.4453 36.7383 20.8984 35.1953 18.8867L27.3438 8.63281C25.3125 5.99609 23.0078 4.94141 19.375 4.94141L13.0273 4.94141C12.0703 4.94141 11.2891 5.74219 11.2891 6.67969C11.2891 7.63672 12.0703 8.41797 13.0273 8.41797Z" fill="black" fill-opacity="0.85"/>
 </g>
</svg>
