<?xml version="1.0" encoding="UTF-8"?>
<!--Generator: Apple Native CoreSVG 326-->
<!DOCTYPE svg
PUBLIC "-//W3C//DTD SVG 1.1//EN"
       "http://www.w3.org/Graphics/SVG/1.1/DTD/svg11.dtd">
<svg version="1.1" xmlns="http://www.w3.org/2000/svg" xmlns:xlink="http://www.w3.org/1999/xlink" viewBox="0 0 92.6758 61.8484">
 <g>
  <rect height="61.8484" opacity="0" width="92.6758" x="0" y="0"/>
  <path d="M5.13672 46.2855L11.543 47.0277L11.8945 43.5707L5.91797 42.8871C4.23828 42.6918 3.45703 41.9105 3.45703 40.4066L3.45703 37.3402C3.45703 32.6527 6.48438 30.0746 12.4805 28.9223L29.082 25.7582C30.3711 25.5043 31.25 25.309 32.0703 24.7426L47.4414 14.4105C49.3945 13.0824 47.5 10.1918 45.3711 11.6176L29.4531 22.2621L11.9922 25.5629C4.00391 27.0668 0 30.6801 0 37.3402L0 40.641C0 44.1371 1.58203 45.8949 5.13672 46.2855ZM18.1445 51.3637C22.9883 51.3637 26.7773 47.5746 26.7773 42.7504C26.7773 37.9066 22.9883 34.1176 18.1445 34.1176C13.3008 34.1176 9.53125 37.9066 9.53125 42.7504C9.53125 47.5746 13.3008 51.3637 18.1445 51.3637ZM18.1445 48.1019C15.1562 48.1019 12.793 45.7387 12.793 42.7504C12.793 39.7426 15.1562 37.3793 18.1445 37.3793C21.1523 37.3793 23.5156 39.7426 23.5156 42.7504C23.5156 45.7387 21.1523 48.1019 18.1445 48.1019ZM24.5117 45.8558L67.9297 45.8558L67.9297 42.3988L24.5117 42.3988ZM74.1602 51.3637C79.0039 51.3637 82.7734 47.5746 82.7734 42.7504C82.7734 37.9066 79.0039 34.1176 74.1602 34.1176C69.3164 34.1176 65.5273 37.9066 65.5273 42.7504C65.5273 47.5746 69.3164 51.3637 74.1602 51.3637ZM74.1602 48.1019C71.1719 48.1019 68.7891 45.7387 68.7891 42.7504C68.7891 39.7426 71.1719 37.3793 74.1602 37.3793C77.1484 37.3793 79.5117 39.7426 79.5117 42.7504C79.5117 45.7387 77.1484 48.1019 74.1602 48.1019ZM81.0352 45.2699L85.293 44.8012C90.0391 44.2738 92.3047 41.6957 92.3047 36.8129L92.3047 32.4379C92.3047 26.7348 90.0586 24.2738 84.3945 23.1996L69.2578 20.348C68.0469 20.0941 66.8945 20.0355 65.7227 20.0941L29.7852 22.2621L28.4766 25.7973L66.6016 23.5121L83.7891 26.7543C87.4805 27.4574 88.8477 29.0394 88.8477 32.4379L88.8477 36.8129C88.8477 39.6254 87.5781 41.0902 84.8633 41.4027L81.0352 41.8324Z" fill="black" fill-opacity="0.85"/>
  <path d="M70.8398 12.3207L70.6641 8.64882C76.8945 8.23866 83.2617 10.1332 88.1836 12.6527C89.1016 13.0824 90.1953 12.6918 90.6445 11.7738C91.0352 10.8363 90.625 9.7621 89.6875 9.35194C84.5703 6.73475 77.5195 4.62538 70.5469 4.99647L70.4102 1.55897C70.3711-0.0816519 69.2188-0.394152 68.0664 0.465223L60.6836 5.89491C59.6094 6.6371 59.668 7.73085 60.7617 8.43397L68.457 13.4926C69.7656 14.3324 70.8398 13.9027 70.8398 12.3207Z" fill="black" fill-opacity="0.85"/>
 </g>
</svg>
