<?xml version="1.0" encoding="UTF-8"?>
<!--Generator: Apple Native CoreSVG 326-->
<!DOCTYPE svg
PUBLIC "-//W3C//DTD SVG 1.1//EN"
       "http://www.w3.org/Graphics/SVG/1.1/DTD/svg11.dtd">
<svg version="1.1" xmlns="http://www.w3.org/2000/svg" xmlns:xlink="http://www.w3.org/1999/xlink" viewBox="0 0 84.1674 62.8618">
 <g>
  <rect height="62.8618" opacity="0" width="84.1674" x="0" y="0"/>
  <path d="M24.2614 26.7531C27.2302 28.4524 30.8825 27.4758 32.6013 24.5071C34.3005 21.5578 33.3239 17.9055 30.3552 16.1867C27.3864 14.468 23.7341 15.4446 22.0153 18.4133C20.3161 21.3625 21.2927 25.0344 24.2614 26.7531ZM60.9216 47.925C63.8903 49.6242 67.5622 48.6477 69.2614 45.6789C70.9802 42.7297 69.9841 39.0774 67.0153 37.3586C64.0661 35.6399 60.3942 36.6164 58.695 39.5852C56.9763 42.5539 57.9528 46.2063 60.9216 47.925ZM71.156 24.8C70.3942 24.136 69.6325 23.6086 68.7536 23.1985L47.2888 12.5539L58.2458 11.7922C60.1599 11.675 60.0036 8.86252 57.9333 8.99924L42.445 10.0149L28.8708 5.26877C22.6599 3.1008 18.3825 3.99924 15.6872 8.66721L14.3396 10.9914C12.9333 13.4328 13.3435 15.3078 15.6482 17.0266L19.1052 19.6242C19.281 18.9406 19.7302 17.9641 20.1208 17.3C22.4255 13.2961 27.445 11.9485 31.4489 14.2727C35.4724 16.5969 36.82 21.6164 34.4958 25.6203C34.2224 26.1086 33.8513 26.636 33.5583 26.968L56.1169 39.9953C56.2536 39.5461 56.488 38.9992 56.781 38.4719C59.1052 34.468 64.1052 33.1399 68.1286 35.4446C72.1521 37.7688 73.3239 43.0617 71.0192 47.0656C70.8825 47.3 70.8044 47.4367 70.6482 47.6321L72.4841 48.4524C76.0388 50.0149 78.6755 49.1164 80.6482 45.6985L82.4255 42.6125C84.7302 38.6281 84.1638 35.9914 80.6091 32.9446Z" fill="black" fill-opacity="0.85"/>
  <path d="M8.10909 10.9719L13.1091 2.30002C13.8903 0.971898 12.8357-0.219508 11.4489 0.0343983L3.6169 1.2844C2.58175 1.46018 2.113 2.26096 2.48409 3.27659L5.31612 10.6594C5.8044 11.9875 7.32784 12.3 8.10909 10.9719ZM0.237997 21.2453C-0.250284 22.1047 0.0426845 23.1594 0.843466 23.6281L68.2849 62.593C69.0661 63.0617 70.1208 62.7883 70.5896 61.9875C71.0778 61.1086 70.7849 60.0539 69.9841 59.6047L2.56222 20.6203C1.78097 20.1711 0.706747 20.4446 0.237997 21.2453Z" fill="black" fill-opacity="0.85"/>
 </g>
</svg>
