<?xml version="1.0" encoding="UTF-8"?>
<!--Generator: Apple Native CoreSVG 326-->
<!DOCTYPE svg
PUBLIC "-//W3C//DTD SVG 1.1//EN"
       "http://www.w3.org/Graphics/SVG/1.1/DTD/svg11.dtd">
<svg version="1.1" xmlns="http://www.w3.org/2000/svg" xmlns:xlink="http://www.w3.org/1999/xlink" viewBox="0 0 92.6758 61.8484">
 <g>
  <rect height="61.8484" opacity="0" width="92.6758" x="0" y="0"/>
  <path d="M20.332 51.3637C24.5508 51.3637 27.8711 48.0629 27.8711 43.8246C27.8711 39.6254 24.5508 36.3051 20.332 36.3051C16.0938 36.3051 12.793 39.6254 12.793 43.8246C12.793 48.0629 16.0938 51.3637 20.332 51.3637ZM72.5977 51.3637C76.8359 51.3637 80.1367 48.0629 80.1367 43.8246C80.1367 39.6254 76.8359 36.3051 72.5977 36.3051C68.3789 36.3051 65.0586 39.6254 65.0586 43.8246C65.0586 48.0629 68.3789 51.3637 72.5977 51.3637ZM69.2578 20.348C68.0469 20.0941 66.8945 20.016 65.7227 20.0941L36.1914 21.9887L47.4414 14.4105C49.3945 13.0824 47.5 10.1918 45.3711 11.6176L29.4531 22.2621L11.9922 25.5629C4.00391 27.0668 0 30.6801 0 37.3402L0 40.641C0 44.1371 1.58203 45.8754 5.13672 46.2855L10.4297 46.9301C10.1953 46.0902 10.0586 44.7621 10.0586 43.8246C10.0586 38.1215 14.6094 33.5902 20.332 33.5902C26.0547 33.5902 30.5859 38.1215 30.5859 43.8246C30.5859 44.5473 30.5273 45.3285 30.4102 45.8558L62.5781 45.8558C62.4219 45.2894 62.3438 44.5668 62.3438 43.8246C62.3438 38.1215 66.875 33.5902 72.5977 33.5902C78.3203 33.5902 82.8516 38.5121 82.8516 44.2152C82.8516 44.5668 82.8516 44.7426 82.832 45.0551L85.293 44.8012C90.0391 44.2738 92.3047 41.6957 92.3047 36.8129L92.3047 32.4379C92.3047 26.7348 90.0781 24.2933 84.3945 23.1996Z" fill="black" fill-opacity="0.85"/>
  <path d="M70.8398 12.3207L70.6641 8.64882C76.8945 8.23866 83.2617 10.1332 88.1836 12.6527C89.1016 13.0824 90.1953 12.6918 90.6445 11.7738C91.0352 10.8363 90.625 9.7621 89.6875 9.35194C84.5703 6.73475 77.5195 4.62538 70.5469 4.99647L70.4102 1.55897C70.3711-0.0816519 69.2188-0.394152 68.0664 0.465223L60.6836 5.89491C59.6094 6.6371 59.668 7.73085 60.7617 8.43397L68.457 13.4926C69.7656 14.3324 70.8398 13.9027 70.8398 12.3207Z" fill="black" fill-opacity="0.85"/>
 </g>
</svg>
