<?xml version="1.0" encoding="UTF-8"?>
<!--Generator: Apple Native CoreSVG 326-->
<!DOCTYPE svg
PUBLIC "-//W3C//DTD SVG 1.1//EN"
       "http://www.w3.org/Graphics/SVG/1.1/DTD/svg11.dtd">
<svg version="1.1" xmlns="http://www.w3.org/2000/svg" xmlns:xlink="http://www.w3.org/1999/xlink" viewBox="0 0 92.6758 40.8789">
 <g>
  <rect height="40.8789" opacity="0" width="92.6758" x="0" y="0"/>
  <path d="M13.0273 8.41797C12.0703 8.41797 11.2891 7.63672 11.2891 6.67969C11.2891 5.74219 12.0703 4.94141 13.0273 4.94141L19.375 4.94141C23.0078 4.94141 25.3125 5.99609 27.3438 8.63281L35.1953 18.8867C36.7383 20.8984 37.7734 21.4453 40.0781 21.4453L45.4102 21.4453L45.4102 19.0234C45.4102 17.4805 46.7578 17.0312 47.9102 17.793L54.1797 21.8164C55.293 22.5195 55.2734 23.8477 54.1992 24.5117L47.8906 28.5547C46.7578 29.2969 45.4102 28.8477 45.4102 27.3242L45.4102 24.9023L40.0781 24.9023C36.7383 24.9023 34.5117 23.7305 32.4414 21.0352L24.6484 10.7617C23.2617 8.92578 22.1094 8.41797 19.375 8.41797ZM20.332 40.8789C24.5508 40.8789 27.8711 37.5781 27.8711 33.3398C27.8711 29.1406 24.5508 25.8203 20.332 25.8203C16.0938 25.8203 12.793 29.1406 12.793 33.3398C12.793 37.5781 16.0938 40.8789 20.332 40.8789ZM72.5977 40.8789C76.8359 40.8789 80.1367 37.5781 80.1367 33.3398C80.1367 29.1406 76.8359 25.8203 72.5977 25.8203C68.3789 25.8203 65.0586 29.1406 65.0586 33.3398C65.0586 37.5781 68.3789 40.8789 72.5977 40.8789ZM69.2578 9.86328C68.0469 9.60938 66.8945 9.53125 65.7227 9.60938L36.1914 11.5039L47.4414 3.92578C49.3945 2.59766 47.5-0.292969 45.3711 1.13281L29.4531 11.7773L11.9922 15.0781C4.00391 16.582 0 20.1953 0 26.8555L0 30.1562C0 33.6523 1.58203 35.3906 5.13672 35.8008L10.4297 36.4453C10.1953 35.6055 10.0586 34.2773 10.0586 33.3398C10.0586 27.6367 14.6094 23.1055 20.332 23.1055C26.0547 23.1055 30.5859 27.6367 30.5859 33.3398C30.5859 34.0625 30.5273 34.8438 30.4102 35.3711L62.5781 35.3711C62.4219 34.8047 62.3438 34.082 62.3438 33.3398C62.3438 27.6367 66.875 23.1055 72.5977 23.1055C78.3203 23.1055 82.8516 28.0273 82.8516 33.7305C82.8516 34.082 82.8516 34.2578 82.832 34.5703L85.293 34.3164C90.0391 33.7891 92.3047 31.2109 92.3047 26.3281L92.3047 21.9531C92.3047 16.25 90.0781 13.8086 84.3945 12.7148Z" fill="black" fill-opacity="0.85"/>
 </g>
</svg>
