<?xml version="1.0" encoding="UTF-8"?>
<!--Generator: Apple Native CoreSVG 326-->
<!DOCTYPE svg
PUBLIC "-//W3C//DTD SVG 1.1//EN"
       "http://www.w3.org/Graphics/SVG/1.1/DTD/svg11.dtd">
<svg version="1.1" xmlns="http://www.w3.org/2000/svg" xmlns:xlink="http://www.w3.org/1999/xlink" viewBox="0 0 59.4922 47.9102">
 <g>
  <rect height="47.9102" opacity="0" width="59.4922" x="0" y="0"/>
  <path d="M6.89453 47.9102L52.2266 47.9102C56.7773 47.9102 59.1211 45.5078 59.1211 41.0547L59.1211 6.875C59.1211 2.42188 56.7773 0.0195312 52.2266 0.0195312L6.89453 0.0195312C2.36328 0.0195312 0 2.42188 0 6.875L0 41.0547C0 45.5078 2.36328 47.9102 6.89453 47.9102ZM6.91406 44.4336C4.70703 44.4336 3.45703 43.1641 3.45703 40.918L3.45703 7.01172C3.45703 4.76562 4.70703 3.49609 6.91406 3.49609L52.207 3.49609C54.4141 3.49609 55.6641 4.76562 55.6641 7.01172L55.6641 40.918C55.6641 43.1641 54.4141 44.4336 52.207 44.4336ZM15.6055 21.9336C19.6289 21.9336 22.8711 18.6719 22.8711 14.668C22.8711 10.6445 19.6289 7.38281 15.6055 7.38281C11.582 7.38281 8.32031 10.6445 8.32031 14.668C8.32031 18.6719 11.582 21.9336 15.6055 21.9336ZM15.6055 19.7852C12.7734 19.7852 10.4883 17.5 10.4883 14.668C10.4883 11.8164 12.7734 9.53125 15.6055 9.53125C18.4375 9.53125 20.7227 11.8164 20.7227 14.668C20.7227 17.5 18.4375 19.7852 15.6055 19.7852ZM15.6055 18.7109C17.9102 18.7109 19.6484 16.9727 19.6484 14.668C19.6484 12.3633 17.9102 10.6055 15.6055 10.6055C13.3008 10.6055 11.5625 12.3633 11.5625 14.668C11.5625 16.9727 13.3008 18.7109 15.6055 18.7109ZM34.7852 21.9336C38.8086 21.9336 42.0703 18.6719 42.0703 14.668C42.0703 10.6445 38.8086 7.38281 34.7852 7.38281C30.7617 7.38281 27.5 10.6445 27.5 14.668C27.5 18.6719 30.7617 21.9336 34.7852 21.9336ZM34.7852 19.7852C31.9531 19.7852 29.668 17.5 29.668 14.668C29.668 11.8164 31.9531 9.53125 34.7852 9.53125C37.6172 9.53125 39.9023 11.8164 39.9023 14.668C39.9023 17.5 37.6172 19.7852 34.7852 19.7852ZM34.7852 18.7109C37.0898 18.7109 38.8281 16.9727 38.8281 14.668C38.8281 12.3633 37.0898 10.6055 34.7852 10.6055C32.4805 10.6055 30.7422 12.3633 30.7422 14.668C30.7422 16.9727 32.4805 18.7109 34.7852 18.7109ZM15.6055 40.4883C19.6289 40.4883 22.8711 37.2461 22.8711 33.2227C22.8711 29.1992 19.6289 25.9375 15.6055 25.9375C11.582 25.9375 8.32031 29.1992 8.32031 33.2227C8.32031 37.2461 11.582 40.4883 15.6055 40.4883ZM15.6055 38.3398C12.7734 38.3398 10.4883 36.0547 10.4883 33.2227C10.4883 30.3711 12.7734 28.0859 15.6055 28.0859C18.4375 28.0859 20.7227 30.3711 20.7227 33.2227C20.7227 36.0547 18.4375 38.3398 15.6055 38.3398ZM15.6055 37.2656C17.9102 37.2656 19.6484 35.5273 19.6484 33.2227C19.6484 30.918 17.9102 29.1797 15.6055 29.1797C13.3008 29.1797 11.5625 30.918 11.5625 33.2227C11.5625 35.5273 13.3008 37.2656 15.6055 37.2656ZM34.7852 40.4883C38.8086 40.4883 42.0703 37.2461 42.0703 33.2227C42.0703 29.1992 38.8086 25.9375 34.7852 25.9375C30.7617 25.9375 27.5 29.1992 27.5 33.2227C27.5 37.2461 30.7617 40.4883 34.7852 40.4883ZM34.7852 38.3398C31.9531 38.3398 29.668 36.0547 29.668 33.2227C29.668 30.3711 31.9531 28.0859 34.7852 28.0859C37.6172 28.0859 39.9023 30.3711 39.9023 33.2227C39.9023 36.0547 37.6172 38.3398 34.7852 38.3398ZM34.7852 37.2656C37.0898 37.2656 38.8281 35.5273 38.8281 33.2227C38.8281 30.918 37.0898 29.1797 34.7852 29.1797C32.4805 29.1797 30.7422 30.918 30.7422 33.2227C30.7422 35.5273 32.4805 37.2656 34.7852 37.2656ZM49.8438 15.332C50.9766 15.332 51.8945 14.4336 51.8945 13.2812C51.8945 12.1484 50.9766 11.2305 49.8438 11.2305C48.6914 11.2305 47.7734 12.1484 47.7734 13.2812C47.7734 14.4336 48.6914 15.332 49.8438 15.332ZM49.8438 22.4609C50.9766 22.4609 51.8945 21.543 51.8945 20.3906C51.8945 19.2578 50.9766 18.3398 49.8438 18.3398C48.6914 18.3398 47.7734 19.2578 47.7734 20.3906C47.7734 21.543 48.6914 22.4609 49.8438 22.4609ZM49.8438 29.5703C50.9766 29.5703 51.8945 28.6523 51.8945 27.5C51.8945 26.3672 50.9766 25.4492 49.8438 25.4492C48.6914 25.4492 47.7734 26.3672 47.7734 27.5C47.7734 28.6523 48.6914 29.5703 49.8438 29.5703ZM49.8438 36.6797C50.9766 36.6797 51.8945 35.7617 51.8945 34.6094C51.8945 33.4766 50.9766 32.5781 49.8438 32.5781C48.6914 32.5781 47.7734 33.4766 47.7734 34.6094C47.7734 35.7617 48.6914 36.6797 49.8438 36.6797Z" fill="black" fill-opacity="0.85"/>
 </g>
</svg>
