<?xml version="1.0" encoding="UTF-8"?>
<!--Generator: Apple Native CoreSVG 326-->
<!DOCTYPE svg
PUBLIC "-//W3C//DTD SVG 1.1//EN"
       "http://www.w3.org/Graphics/SVG/1.1/DTD/svg11.dtd">
<svg version="1.1" xmlns="http://www.w3.org/2000/svg" xmlns:xlink="http://www.w3.org/1999/xlink" viewBox="0 0 59.4922 47.9102">
 <g>
  <rect height="47.9102" opacity="0" width="59.4922" x="0" y="0"/>
  <path d="M6.89453 47.9102L52.2266 47.9102C56.7773 47.9102 59.1211 45.5078 59.1211 41.0547L59.1211 6.875C59.1211 2.42188 56.7773 0.0195312 52.2266 0.0195312L6.89453 0.0195312C2.36328 0.0195312 0 2.42188 0 6.875L0 41.0547C0 45.5078 2.36328 47.9102 6.89453 47.9102ZM15.0391 21.8945C10.918 21.8945 7.55859 18.5352 7.55859 14.4141C7.55859 10.3125 10.918 6.95312 15.0391 6.95312C19.1797 6.95312 22.5 10.3125 22.5 14.4141C22.5 18.5352 19.1797 21.8945 15.0391 21.8945ZM34.707 21.8945C30.5859 21.8945 27.2266 18.5352 27.2266 14.4141C27.2266 10.3125 30.5859 6.95312 34.707 6.95312C38.8477 6.95312 42.1875 10.3125 42.1875 14.4141C42.1875 18.5352 38.8477 21.8945 34.707 21.8945ZM15.0391 40.9375C10.918 40.9375 7.55859 37.5781 7.55859 33.457C7.55859 29.3359 10.918 25.9766 15.0391 25.9766C19.1797 25.9766 22.5 29.3359 22.5 33.457C22.5 37.5781 19.1797 40.9375 15.0391 40.9375ZM34.707 40.9375C30.5859 40.9375 27.2266 37.5781 27.2266 33.457C27.2266 29.3359 30.5859 25.9766 34.707 25.9766C38.8477 25.9766 42.1875 29.3359 42.1875 33.457C42.1875 37.5781 38.8477 40.9375 34.707 40.9375ZM50.3516 15.1172C49.1602 15.1172 48.2227 14.1992 48.2227 13.0078C48.2227 11.8555 49.1602 10.8984 50.3516 10.8984C51.5039 10.8984 52.4609 11.8555 52.4609 13.0078C52.4609 14.1992 51.5039 15.1172 50.3516 15.1172ZM50.3516 22.4219C49.1602 22.4219 48.2227 21.4844 48.2227 20.293C48.2227 19.1406 49.1602 18.1836 50.3516 18.1836C51.5039 18.1836 52.4609 19.1406 52.4609 20.293C52.4609 21.4844 51.5039 22.4219 50.3516 22.4219ZM50.3516 29.7266C49.1602 29.7266 48.2227 28.7695 48.2227 27.5977C48.2227 26.4258 49.1602 25.4883 50.3516 25.4883C51.5039 25.4883 52.4609 26.4258 52.4609 27.5977C52.4609 28.7695 51.5039 29.7266 50.3516 29.7266ZM50.3516 37.0117C49.1602 37.0117 48.2227 36.0547 48.2227 34.8828C48.2227 33.7109 49.1602 32.793 50.3516 32.793C51.5039 32.793 52.4609 33.7109 52.4609 34.8828C52.4609 36.0547 51.5039 37.0117 50.3516 37.0117ZM15.0391 19.668C17.9492 19.668 20.293 17.3438 20.293 14.4141C20.293 11.5039 17.9492 9.17969 15.0391 9.17969C12.1484 9.17969 9.78516 11.5039 9.78516 14.4141C9.78516 17.3438 12.1484 19.668 15.0391 19.668ZM15.0391 18.5742C12.6953 18.5742 10.918 16.7773 10.918 14.4141C10.918 12.0508 12.6953 10.2734 15.0391 10.2734C17.3828 10.2734 19.1602 12.0508 19.1602 14.4141C19.1602 16.7773 17.3828 18.5742 15.0391 18.5742ZM34.707 19.668C37.6172 19.668 39.9609 17.3438 39.9609 14.4141C39.9609 11.5039 37.6172 9.17969 34.707 9.17969C31.8164 9.17969 29.4531 11.5039 29.4531 14.4141C29.4531 17.3438 31.8164 19.668 34.707 19.668ZM34.707 18.5742C32.3438 18.5742 30.5664 16.7773 30.5664 14.4141C30.5664 12.0508 32.3438 10.2734 34.707 10.2734C37.0703 10.2734 38.8477 12.0508 38.8477 14.4141C38.8477 16.7773 37.0703 18.5742 34.707 18.5742ZM15.0391 38.6914C17.9492 38.6914 20.293 36.3672 20.293 33.457C20.293 30.5469 17.9492 28.2031 15.0391 28.2031C12.1484 28.2031 9.78516 30.5469 9.78516 33.457C9.78516 36.3672 12.1484 38.6914 15.0391 38.6914ZM15.0391 37.5977C12.6953 37.5977 10.918 35.8203 10.918 33.457C10.918 31.0938 12.6953 29.3164 15.0391 29.3164C17.3828 29.3164 19.1602 31.0938 19.1602 33.457C19.1602 35.8203 17.3828 37.5977 15.0391 37.5977ZM34.707 38.6914C37.6172 38.6914 39.9609 36.3672 39.9609 33.457C39.9609 30.5469 37.6172 28.2031 34.707 28.2031C31.8164 28.2031 29.4531 30.5469 29.4531 33.457C29.4531 36.3672 31.8164 38.6914 34.707 38.6914ZM34.707 37.5977C32.3438 37.5977 30.5664 35.8203 30.5664 33.457C30.5664 31.0938 32.3438 29.3164 34.707 29.3164C37.0703 29.3164 38.8477 31.0938 38.8477 33.457C38.8477 35.8203 37.0703 37.5977 34.707 37.5977Z" fill="black" fill-opacity="0.85"/>
 </g>
</svg>
