<?xml version="1.0" encoding="UTF-8"?>
<!--Generator: Apple Native CoreSVG 326-->
<!DOCTYPE svg
PUBLIC "-//W3C//DTD SVG 1.1//EN"
       "http://www.w3.org/Graphics/SVG/1.1/DTD/svg11.dtd">
<svg version="1.1" xmlns="http://www.w3.org/2000/svg" xmlns:xlink="http://www.w3.org/1999/xlink" viewBox="0 0 53.9062 53.6133">
 <g>
  <rect height="53.6133" opacity="0" width="53.9062" x="0" y="0"/>
  <path d="M0 30.9766C0 35.3125 2.22656 37.5586 6.50391 37.5586L15.9961 37.5586L15.9961 47.0508C15.9961 51.3477 18.2422 53.5742 22.5977 53.5742L30.957 53.5742C35.3125 53.5742 37.5391 51.3477 37.5391 47.0508L37.5391 37.5586L47.0312 37.5586C51.3281 37.5586 53.5352 35.3125 53.5352 30.9766L53.5352 22.5977C53.5352 18.2617 51.3281 16.0156 47.0312 16.0156L37.5391 16.0156L37.5391 6.52344C37.5391 2.22656 35.3125 0 30.957 0L22.5977 0C18.2422 0 15.9961 2.22656 15.9961 6.52344L15.9961 16.0156L6.50391 16.0156C2.22656 16.0156 0 18.2617 0 22.5977ZM3.45703 30.8984L3.45703 22.6758C3.45703 20.6055 4.60938 19.4727 6.69922 19.4727L19.4727 19.4727L19.4727 6.69922C19.4727 4.60938 20.5859 3.45703 22.6562 3.45703L30.8984 3.45703C32.9688 3.45703 34.082 4.60938 34.082 6.69922L34.082 19.4727L46.8555 19.4727C48.9453 19.4727 50.0781 20.6055 50.0781 22.6758L50.0781 30.8984C50.0781 32.9688 48.9453 34.1016 46.8555 34.1016L34.082 34.1016L34.082 46.875C34.082 48.9648 32.9688 50.0977 30.8984 50.0977L22.6562 50.0977C20.5859 50.0977 19.4727 48.9648 19.4727 46.875L19.4727 34.1016L6.69922 34.1016C4.60938 34.1016 3.45703 32.9688 3.45703 30.8984Z" fill="black" fill-opacity="0.85"/>
 </g>
</svg>
