<?xml version="1.0" encoding="UTF-8"?>
<!--Generator: Apple Native CoreSVG 326-->
<!DOCTYPE svg
PUBLIC "-//W3C//DTD SVG 1.1//EN"
       "http://www.w3.org/Graphics/SVG/1.1/DTD/svg11.dtd">
<svg version="1.1" xmlns="http://www.w3.org/2000/svg" xmlns:xlink="http://www.w3.org/1999/xlink" viewBox="0 0 51.25 50.918">
 <g>
  <rect height="50.918" opacity="0" width="51.25" x="0" y="0"/>
  <path d="M25.4297 50.8789C39.4727 50.8789 50.8789 39.4922 50.8789 25.4492C50.8789 11.4062 39.4727 0 25.4297 0C11.3867 0 0 11.4062 0 25.4492C0 39.4922 11.3867 50.8789 25.4297 50.8789ZM25.4297 47.2461C13.3789 47.2461 3.63281 37.5 3.63281 25.4492C3.63281 13.3984 13.3789 3.65234 25.4297 3.65234C37.4805 3.65234 47.2266 13.3984 47.2266 25.4492C47.2266 37.5 37.4805 47.2461 25.4297 47.2461Z" fill="black" fill-opacity="0.85"/>
  <path d="M11.6992 28.0078C11.6992 29.5117 12.7344 30.5469 14.2578 30.5469L20.2539 30.5469L20.2539 36.543C20.2539 38.1055 21.2695 39.1211 22.8125 39.1211L27.9883 39.1211C29.5312 39.1211 30.5469 38.1055 30.5469 36.543L30.5469 30.5469L36.543 30.5469C38.0859 30.5469 39.1211 29.5117 39.1211 28.0078L39.1211 22.8125C39.1211 21.2891 38.0859 20.2539 36.543 20.2539L30.5469 20.2539L30.5469 14.2773C30.5469 12.7148 29.5312 11.6992 27.9883 11.6992L22.8125 11.6992C21.2695 11.6992 20.2539 12.7148 20.2539 14.2773L20.2539 20.2539L14.2578 20.2539C12.7148 20.2539 11.6992 21.2891 11.6992 22.8125Z" fill="black" fill-opacity="0.85"/>
 </g>
</svg>
