<?xml version="1.0" encoding="UTF-8"?>
<!--Generator: Apple Native CoreSVG 326-->
<!DOCTYPE svg
PUBLIC "-//W3C//DTD SVG 1.1//EN"
       "http://www.w3.org/Graphics/SVG/1.1/DTD/svg11.dtd">
<svg version="1.1" xmlns="http://www.w3.org/2000/svg" xmlns:xlink="http://www.w3.org/1999/xlink" viewBox="0 0 63.6133 50.7227">
 <g>
  <rect height="50.7227" opacity="0" width="63.6133" x="0" y="0"/>
  <path d="M6.23047 22.3828C9.64844 22.3828 12.4414 19.5898 12.4414 16.1328C12.4414 12.7344 9.64844 9.92188 6.23047 9.92188C2.79297 9.92188 0 12.7148 0 16.1328C0 19.5898 2.8125 22.3828 6.23047 22.3828ZM6.23047 19.0039C4.66797 19.0039 3.35938 17.7148 3.35938 16.1328C3.35938 14.5508 4.66797 13.2812 6.23047 13.2812C7.79297 13.2812 9.08203 14.5898 9.08203 16.1328C9.08203 17.7148 7.83203 19.0039 6.23047 19.0039ZM31.6211 12.4414C35.0586 12.4414 37.8516 9.64844 37.8516 6.21094C37.8516 2.79297 35.0586 0 31.6211 0C28.1836 0 25.3906 2.77344 25.3906 6.21094C25.3906 9.64844 28.2031 12.4414 31.6211 12.4414ZM31.6211 9.08203C30.0586 9.08203 28.75 7.77344 28.75 6.21094C28.75 4.60938 30.0586 3.35938 31.6211 3.35938C33.1836 3.35938 34.4727 4.64844 34.4727 6.21094C34.4727 7.77344 33.2227 9.08203 31.6211 9.08203ZM56.9922 22.3828C60.4297 22.3828 63.2422 19.5898 63.2422 16.1328C63.2422 12.7148 60.4492 9.92188 56.9922 9.92188C53.5742 9.92188 50.7812 12.7344 50.7812 16.1328C50.7812 19.5898 53.5742 22.3828 56.9922 22.3828ZM56.9922 19.0039C55.4102 19.0039 54.1406 17.7148 54.1406 16.1328C54.1406 14.5898 55.4492 13.2812 56.9922 13.2812C58.5742 13.2812 59.8633 14.5508 59.8633 16.1328C59.8633 17.7148 58.5742 19.0039 56.9922 19.0039ZM9.00391 20.8984L16.9727 25.8008C18.6523 26.8359 21.1719 26.7969 22.7539 24.668L32.1484 12.2461L29.0625 10.918L20.332 22.4805C19.7852 23.2031 19.1797 23.3398 18.2812 22.7734L10.7227 18.125ZM54.2188 20.8398L52.5 18.0664L45.0781 22.6367C44.0625 23.2617 43.3984 23.1055 42.793 22.2852L34.1992 10.8594L31.1133 12.1875L40.5859 24.7461C42.0703 26.7188 44.5312 26.7969 45.9375 25.918ZM12.3438 39.375L50.8984 39.375L50.8984 36.1133L12.3438 36.1133ZM6.30859 21.3477L11.4844 42.3438C12.4219 46.2109 14.4336 48.0859 18.418 48.0859L44.8242 48.0859C48.8281 48.0859 50.8398 46.2109 51.7773 42.3438L56.9531 21.3477L53.9062 19.9609L48.5352 41.9922C48.0664 43.8867 46.8945 44.8242 44.8633 44.8242L18.3984 44.8242C16.3672 44.8242 15.1953 43.8867 14.7266 41.9922L9.35547 19.9609Z" fill="black" fill-opacity="0.85"/>
 </g>
</svg>
