<?xml version="1.0" encoding="UTF-8"?>
<!--Generator: Apple Native CoreSVG 326-->
<!DOCTYPE svg
PUBLIC "-//W3C//DTD SVG 1.1//EN"
       "http://www.w3.org/Graphics/SVG/1.1/DTD/svg11.dtd">
<svg version="1.1" xmlns="http://www.w3.org/2000/svg" xmlns:xlink="http://www.w3.org/1999/xlink" viewBox="0 0 51.25 50.918">
 <g>
  <rect height="50.918" opacity="0" width="51.25" x="0" y="0"/>
  <path d="M50.8789 25.4492C50.8789 39.4531 39.4531 50.8789 25.4297 50.8789C11.4258 50.8789 0 39.4531 0 25.4492C0 11.4258 11.4258 0 25.4297 0C39.4531 0 50.8789 11.4258 50.8789 25.4492ZM15.7031 25.4688C15.7031 31.7969 19.0625 36.8945 25.6445 36.8945C29.5703 36.8945 33.0664 34.9414 34.1406 31.543C34.2969 31.1719 34.3164 30.8594 34.3164 30.5078C34.3164 29.7852 33.8477 29.3555 33.1055 29.3555C32.3828 29.3555 31.9922 29.7461 31.7969 30.4102C31.0156 33.0469 28.6328 34.4727 25.918 34.5508L25.918 30.6445C25.918 28.1055 27.5977 26.3477 30.1172 26.3477C30.625 26.3477 30.9766 26.4648 31.2109 26.4648C31.6992 26.4648 32.0117 26.2305 32.0117 25.6836C32.0117 25.3906 31.8359 25.0977 31.5625 24.9219C31.2109 24.707 30.5664 24.6094 30.0781 24.6094C28.0078 24.6094 26.4648 25.9375 25.9375 27.5586L25.8789 27.5586L25.8789 25.4883C25.8789 24.9805 25.5859 24.6484 25.1172 24.6484C24.6289 24.6484 24.3164 24.9805 24.3164 25.4883L24.3164 34.4141C20.3516 33.7109 18.5352 29.8242 18.5352 25.4688C18.5352 20.6445 20.8398 16.5039 25.6641 16.5039C28.4961 16.5039 30.918 18.1836 31.6602 20.7031C31.875 21.3672 32.2266 21.7578 32.9102 21.7578C33.6328 21.7578 34.1602 21.2891 34.1602 20.5664C34.1602 20.3125 34.1016 19.9219 33.9648 19.5703C32.832 16.2109 29.4727 14.1211 25.6445 14.1211C19.3164 14.1211 15.7031 18.9258 15.7031 25.4688Z" fill="black" fill-opacity="0.85"/>
 </g>
</svg>
