<?xml version="1.0" encoding="UTF-8"?>
<!--Generator: Apple Native CoreSVG 326-->
<!DOCTYPE svg
PUBLIC "-//W3C//DTD SVG 1.1//EN"
       "http://www.w3.org/Graphics/SVG/1.1/DTD/svg11.dtd">
<svg version="1.1" xmlns="http://www.w3.org/2000/svg" xmlns:xlink="http://www.w3.org/1999/xlink" viewBox="0 0 51.25 50.918">
 <g>
  <rect height="50.918" opacity="0" width="51.25" x="0" y="0"/>
  <path d="M25.4297 50.8789C39.4727 50.8789 50.8789 39.4922 50.8789 25.4492C50.8789 11.4062 39.4727 0 25.4297 0C11.3867 0 0 11.4062 0 25.4492C0 39.4922 11.3867 50.8789 25.4297 50.8789ZM25.4297 47.2461C13.3789 47.2461 3.63281 37.5 3.63281 25.4492C3.63281 13.3984 13.3789 3.65234 25.4297 3.65234C37.4805 3.65234 47.2266 13.3984 47.2266 25.4492C47.2266 37.5 37.4805 47.2461 25.4297 47.2461Z" fill="black" fill-opacity="0.85"/>
  <path d="M25.6055 36.6016C29.4336 36.6016 32.8516 34.707 33.8867 31.3867C34.043 31.0352 34.0625 30.7227 34.0625 30.3906C34.0625 29.6875 33.6133 29.2578 32.8906 29.2578C32.1875 29.2578 31.8164 29.6484 31.6211 30.293C30.8398 32.9688 28.3594 34.3555 25.625 34.3555C20.8398 34.3555 18.6523 30.1758 18.6523 25.4688C18.6523 20.7617 20.918 16.7188 25.625 16.7188C28.3984 16.7188 30.7617 18.3594 31.4844 20.8203C31.6992 21.4648 32.0312 21.8555 32.6953 21.8555C33.3984 21.8555 33.9062 21.3867 33.9062 20.6836C33.9062 20.4492 33.8672 20.0586 33.7305 19.7266C32.6172 16.4453 29.3555 14.3945 25.6055 14.3945C19.4336 14.3945 15.918 19.082 15.918 25.4688C15.918 31.6406 19.1797 36.6016 25.6055 36.6016ZM24.3164 35.4297L25.8789 35.4297L25.8789 30.5273C25.8789 28.0469 27.5195 26.3281 29.9609 26.3281C30.4688 26.3281 30.8203 26.4453 31.0547 26.4453C31.5234 26.4453 31.8164 26.2109 31.8164 25.6836C31.8164 25.3906 31.6602 25.1172 31.3867 24.9414C31.0547 24.7266 30.4102 24.6289 29.9414 24.6289C27.9102 24.6289 26.3867 25.9375 25.8984 27.5195L25.8398 27.5195L25.8398 25.4883C25.8398 25 25.5469 24.668 25.0977 24.668C24.6289 24.668 24.3164 25 24.3164 25.4883Z" fill="black" fill-opacity="0.85"/>
 </g>
</svg>
