<?xml version="1.0" encoding="UTF-8"?>
<!--Generator: Apple Native CoreSVG 326-->
<!DOCTYPE svg
PUBLIC "-//W3C//DTD SVG 1.1//EN"
       "http://www.w3.org/Graphics/SVG/1.1/DTD/svg11.dtd">
<svg version="1.1" xmlns="http://www.w3.org/2000/svg" xmlns:xlink="http://www.w3.org/1999/xlink" viewBox="0 0 56.2305 55.8789">
 <g>
  <rect height="55.8789" opacity="0" width="56.2305" x="0" y="0"/>
  <path d="M27.9297 55.8594C43.2812 55.8594 55.8594 43.3008 55.8594 27.9297C55.8594 12.5586 43.2812 0 27.9297 0C12.5781 0 0 12.5586 0 27.9297C0 43.3008 12.5781 55.8594 27.9297 55.8594ZM27.9297 46.6797C17.5586 46.6797 9.16016 38.3008 9.16016 27.9297C9.16016 17.5586 17.5586 9.16016 27.9297 9.16016C38.3008 9.16016 46.6992 17.5586 46.6992 27.9297C46.6992 38.3008 38.3008 46.6797 27.9297 46.6797Z" fill="black" fill-opacity="0.85"/>
  <path d="M28.125 39.082C31.9531 39.082 35.3516 37.1875 36.4062 33.8672C36.543 33.5156 36.582 33.2031 36.582 32.8711C36.582 32.168 36.1133 31.7383 35.3906 31.7383C34.707 31.7383 34.3359 32.1289 34.1211 32.7734C33.3594 35.4492 30.8789 36.8359 28.1445 36.8359C23.3594 36.8359 21.1719 32.6562 21.1719 27.9492C21.1719 23.2422 23.4375 19.1992 28.1445 19.1992C30.918 19.1992 33.2812 20.8398 33.9844 23.3008C34.2188 23.9453 34.5508 24.3359 35.2148 24.3359C35.8984 24.3359 36.4258 23.8672 36.4258 23.1641C36.4258 22.9297 36.3672 22.5391 36.25 22.207C35.1367 18.9258 31.8555 16.875 28.125 16.875C21.9531 16.875 18.4375 21.5625 18.4375 27.9492C18.4375 34.1211 21.6992 39.082 28.125 39.082ZM26.8359 37.9102L28.3984 37.9102L28.3984 33.0078C28.3984 30.5273 30.0391 28.8086 32.4805 28.8086C32.9688 28.8086 33.3398 28.9258 33.5742 28.9258C34.043 28.9258 34.3359 28.6914 34.3359 28.1641C34.3359 27.8711 34.1797 27.5977 33.8867 27.4219C33.5742 27.207 32.9102 27.1094 32.4609 27.1094C30.4297 27.1094 28.9062 28.418 28.418 30L28.3594 30L28.3594 27.9688C28.3594 27.4805 28.0664 27.1484 27.6172 27.1484C27.1484 27.1484 26.8359 27.4805 26.8359 27.9688Z" fill="black" fill-opacity="0.85"/>
 </g>
</svg>
