<?xml version="1.0" encoding="UTF-8"?>
<!--Generator: Apple Native CoreSVG 326-->
<!DOCTYPE svg
PUBLIC "-//W3C//DTD SVG 1.1//EN"
       "http://www.w3.org/Graphics/SVG/1.1/DTD/svg11.dtd">
<svg version="1.1" xmlns="http://www.w3.org/2000/svg" xmlns:xlink="http://www.w3.org/1999/xlink" viewBox="0 0 50.1172 55.8496">
 <g>
  <rect height="55.8496" opacity="0" width="50.1172" x="0" y="0"/>
  <path d="M23.1445 9.32129L26.6016 9.32129L26.6016 1.7627L23.1445 1.7627ZM23.1445 18.5596L26.6016 18.5596L26.6016 11.7432L23.1445 11.7432ZM2.67578 43.1299L8.96484 39.5752L7.14844 36.5479L1.25 39.8877ZM11.0352 38.3838L16.9922 35.0439L15.2148 31.9971L9.29688 35.3369ZM40.7812 39.5752L47.0703 43.1299L48.4961 39.8877L42.5977 36.5479ZM32.7539 35.0439L38.7109 38.3838L40.4492 35.3369L34.5312 31.9971ZM19.1211 33.8525L24.8828 30.6104L30.625 33.8525L32.4023 30.8252L26.6016 27.5635L26.6016 20.9814L23.1445 20.9814L23.1445 27.5635L17.3438 30.8252ZM2.69531 43.8135L22.1875 55.1025C23.9062 56.0986 25.8594 56.0986 27.5586 55.1025L47.0703 43.8135C48.75 42.8369 49.7461 41.1377 49.7461 39.165L49.7461 16.6455C49.7461 14.6924 48.75 12.9736 47.0703 11.9971L27.5586 0.74707C25.8594-0.249023 23.9062-0.249023 22.1875 0.74707L2.69531 11.9971C0.996094 12.9736 0 14.6924 0 16.6455L0 39.165C0 41.1377 0.996094 42.8369 2.69531 43.8135ZM23.1445 51.626C22.9688 51.5479 22.9102 51.5088 22.7148 51.3916L4.86328 41.0596C3.98438 40.5518 3.45703 39.6533 3.45703 38.6377L3.45703 18.5791L23.1445 29.6338ZM24.8828 26.5869L4.51172 15.1025C4.64844 14.9268 4.74609 14.8291 5 14.6729L23.4766 3.98926C24.3555 3.48145 25.3906 3.48145 26.2695 3.98926L44.7461 14.6729C45 14.8291 45.1172 14.9268 45.2344 15.1025ZM26.6016 51.626L26.6016 29.6338L46.2891 18.5791L46.2891 38.6377C46.2891 39.6533 45.7812 40.5518 44.8828 41.0596L27.1484 51.333C26.8945 51.4697 26.8359 51.5088 26.6016 51.626Z" fill="black" fill-opacity="0.85"/>
 </g>
</svg>
