<?xml version="1.0" encoding="UTF-8"?>
<!--Generator: Apple Native CoreSVG 326-->
<!DOCTYPE svg
PUBLIC "-//W3C//DTD SVG 1.1//EN"
       "http://www.w3.org/Graphics/SVG/1.1/DTD/svg11.dtd">
<svg version="1.1" xmlns="http://www.w3.org/2000/svg" xmlns:xlink="http://www.w3.org/1999/xlink" viewBox="0 0 52.2852 54.0411">
 <g>
  <rect height="54.0411" opacity="0" width="52.2852" x="0" y="0"/>
  <path d="M43.8672 26.6202L43.8672 26.7763C48.8493 26.9683 51.9141 29.7979 51.9141 34.2959C51.9141 38.9639 48.6328 41.8545 43.3008 41.8545L41.7785 41.8545C38.6017 48.8303 31.9042 53.0069 22.9688 53.0069L20.918 53.0069C8.18359 53.0069 0 44.1983 0 31.6397L0 26.6202C0 22.3523 4.88659 19.0382 12.7231 17.6116C12.3625 18.3834 12.1094 19.2298 12.1094 20.1944C12.1094 20.5091 12.1261 20.8118 12.167 21.1021C6.76024 22.2059 3.35938 24.2392 3.35938 26.6202C3.35938 30.253 11.1914 33.0655 21.9336 33.0655C32.6953 33.0655 40.5273 30.253 40.5273 26.6202C40.5273 23.9941 36.3904 21.791 29.9867 20.7894C29.9559 20.5647 29.9414 20.3232 29.9414 20.0577C29.9414 19.1855 30.3525 18.3837 30.8691 17.5545C38.8702 18.9566 43.8672 22.2997 43.8672 26.6202ZM43.8672 31.6397C43.8672 34.1039 43.569 36.4059 42.9937 38.5147L43.3008 38.5147C46.582 38.5147 48.5742 36.8936 48.5742 34.2959C48.5742 31.8332 46.8102 30.2697 43.8672 30.0948ZM19.7852 20.1944L19.7867 20.2353C17.9432 20.2993 16.2059 20.4509 14.6022 20.6777C14.5805 20.4854 14.5703 20.28 14.5703 20.0577C14.5703 19.0535 15.1153 18.1425 15.739 17.1754C17.3187 16.9877 19.0048 16.8789 20.7851 16.8574C20.2359 17.8306 19.7852 18.9073 19.7852 20.1944ZM28.2817 17.1905C27.8161 18.0752 27.4609 19.0519 27.4609 20.1944C27.4609 20.2861 27.4624 20.3768 27.4713 20.4629C25.8446 20.2971 24.1024 20.2054 22.268 20.1999C22.2661 20.1543 22.2656 20.1064 22.2656 20.0577C22.2656 18.948 22.9311 17.9522 23.6324 16.868C25.2679 16.9037 26.821 17.0133 28.2817 17.1905Z" fill="black" fill-opacity="0.85"/>
  <path d="M17.5391 12.6553C17.5391 9.45219 14.5703 7.57719 14.5703 5.19438C14.5703 3.92484 14.9219 3.20219 15.7812 2.03031C16.8359 0.604532 14.8633-0.821249 13.7891 0.56547C12.5977 2.04984 12.1094 3.3975 12.1094 5.05766C12.1094 8.3975 15.0391 10.2334 15.0391 12.6553C15.0391 14.9991 12.1094 16.9131 12.1094 20.1944C12.1094 21.8936 12.5977 23.2413 13.7695 24.6866C14.8242 26.0342 16.7969 24.628 15.7422 23.2022C14.9219 22.0889 14.5703 21.3663 14.5703 20.0577C14.5703 17.7139 17.5391 15.878 17.5391 12.6553ZM25.2344 12.6553C25.2344 9.45219 22.2656 7.57719 22.2656 5.19438C22.2656 3.92484 22.5977 3.20219 23.457 2.03031C24.5312 0.604532 22.5586-0.821249 21.4648 0.56547C20.293 2.04984 19.7852 3.3975 19.7852 5.05766C19.7852 8.3975 22.7148 10.2334 22.7148 12.6553C22.7148 14.9991 19.7852 16.9131 19.7852 20.1944C19.7852 21.8936 20.293 23.2413 21.4453 24.6866C22.5 26.0342 24.4922 24.628 23.4375 23.2022C22.5977 22.0889 22.2656 21.3663 22.2656 20.0577C22.2656 17.7139 25.2344 15.878 25.2344 12.6553ZM32.9102 12.6553C32.9102 9.45219 29.9414 7.57719 29.9414 5.19438C29.9414 3.92484 30.293 3.20219 31.1523 2.03031C32.207 0.604532 30.2344-0.821249 29.1602 0.56547C27.9688 2.04984 27.4609 3.3975 27.4609 5.05766C27.4609 8.3975 30.3906 10.2334 30.3906 12.6553C30.3906 14.9991 27.4609 16.9131 27.4609 20.1944C27.4609 21.8936 27.9688 23.2413 29.1211 24.6866C30.1953 26.0342 32.168 24.628 31.1133 23.2022C30.293 22.0889 29.9414 21.3663 29.9414 20.0577C29.9414 17.7139 32.9102 15.878 32.9102 12.6553Z" fill="black" fill-opacity="0.85"/>
 </g>
</svg>
