<?xml version="1.0" encoding="UTF-8"?>
<!--Generator: Apple Native CoreSVG 326-->
<!DOCTYPE svg
PUBLIC "-//W3C//DTD SVG 1.1//EN"
       "http://www.w3.org/Graphics/SVG/1.1/DTD/svg11.dtd">
<svg version="1.1" xmlns="http://www.w3.org/2000/svg" xmlns:xlink="http://www.w3.org/1999/xlink" viewBox="0 0 64.4922 47.793">
 <g>
  <rect height="47.793" opacity="0" width="64.4922" x="0" y="0"/>
  <path d="M48.9258 27.1484C56.2891 28.9258 60.7812 31.7969 60.7812 34.8438C60.7812 39.9219 48.2617 44.4336 32.0508 44.4336C15.8594 44.4336 3.33984 39.9219 3.33984 34.8438C3.33984 31.8164 7.71484 28.9844 15.0195 27.168L13.3594 24.1016C4.98047 26.3477 0 30.1953 0 34.8438C0 42.5 13.3789 47.793 32.0508 47.793C50.7617 47.793 64.1211 42.5 64.1211 34.8438C64.1211 30.0977 58.9062 26.1719 50.293 23.9453ZM51.0742 10.0781L51.0742 15.2148C51.0742 26.1914 44.2383 33.6719 33.1055 33.6719L30.9961 33.6719C19.8242 33.6719 13.0273 26.2109 13.0273 15.2148L13.0273 10.0781L9.57031 10.0781L9.57031 15.2148C9.57031 28.0859 17.9492 37.1289 30.9961 37.1289L33.1055 37.1289C46.1328 37.1289 54.5508 28.0664 54.5508 15.2148L54.5508 10.0781ZM32.0508 20.1172C45.4102 20.1172 54.5508 15.9961 54.5508 10.0781C54.5508 4.16016 45.4297 0.0390625 32.0508 0.0390625C18.6914 0.0390625 9.57031 4.16016 9.57031 10.0781C9.57031 15.9961 18.7109 20.1172 32.0508 20.1172ZM32.0508 16.6602C21.0547 16.6602 13.0273 13.7891 13.0273 10.0781C13.0273 6.36719 21.0547 3.49609 32.0508 3.49609C43.0469 3.49609 51.0742 6.36719 51.0742 10.0781C51.0742 13.7891 43.0469 16.6602 32.0508 16.6602ZM51.875 25.7031L53.9453 25.7031C59.4336 25.7031 62.7734 22.7539 62.7734 17.9297C62.7734 13.1445 59.4141 10.1953 53.9453 10.1953L52.5781 10.1953L52.5781 13.6328L53.9453 13.6328C57.2852 13.6328 59.3359 15.2734 59.3359 17.9297C59.3359 20.5859 57.2852 22.2656 53.9453 22.2656L51.875 22.2656Z" fill="black" fill-opacity="0.85"/>
 </g>
</svg>
