<?xml version="1.0" encoding="UTF-8"?>
<!--Generator: Apple Native CoreSVG 326-->
<!DOCTYPE svg
PUBLIC "-//W3C//DTD SVG 1.1//EN"
       "http://www.w3.org/Graphics/SVG/1.1/DTD/svg11.dtd">
<svg version="1.1" xmlns="http://www.w3.org/2000/svg" xmlns:xlink="http://www.w3.org/1999/xlink" viewBox="0 0 46.2891 45.918">
 <g>
  <rect height="45.918" opacity="0" width="46.2891" x="0" y="0"/>
  <path d="M7.59766 45.918L38.3008 45.918C43.3594 45.918 45.918 43.3594 45.918 38.3984L45.918 7.53906C45.918 2.55859 43.3594 0 38.3008 0L7.59766 0C2.55859 0 0 2.53906 0 7.53906L0 38.3984C0 43.3984 2.55859 45.918 7.59766 45.918ZM7.67578 42.4609C4.94141 42.4609 3.45703 41.0156 3.45703 38.2031L3.45703 7.71484C3.45703 4.92188 4.94141 3.45703 7.67578 3.45703L38.2422 3.45703C40.918 3.45703 42.4609 4.92188 42.4609 7.71484L42.4609 38.2031C42.4609 41.0156 40.918 42.4609 38.2422 42.4609Z" fill="black" fill-opacity="0.85"/>
  <path d="M18.0273 36.6406C19.2773 36.6406 20 36.0156 20 35.1367C20 34.2578 19.3555 33.6914 18.4961 33.6914C16.7578 33.6914 15.9766 32.9102 15.9766 30.6641L15.9766 27.0312C15.9766 24.7461 14.6094 23.0859 12.4219 22.7539L12.4219 23.1445C14.6094 22.832 15.9766 21.1914 15.9766 18.9258L15.9766 15.2734C15.9766 13.0273 16.7578 12.2461 18.4961 12.2461C19.3555 12.2461 20 11.6797 20 10.8203C20 9.92188 19.2773 9.29688 18.0273 9.29688C14.7656 9.29688 12.8125 11.1719 12.8125 14.9219L12.8125 18.3398C12.8125 20.2539 12.3242 20.7422 10.918 21.1328C9.08203 21.6016 9.10156 24.3359 10.918 24.8242C12.3242 25.2148 12.8125 25.7031 12.8125 27.5977L12.8125 31.0352C12.8125 34.7656 14.7656 36.6406 18.0273 36.6406ZM27.9297 36.6406C31.1914 36.6406 33.125 34.7656 33.125 31.0352L33.125 27.5977C33.125 25.7031 33.6328 25.1953 35.0391 24.8242C36.8555 24.3555 36.875 21.582 35.0391 21.1328C33.6328 20.7227 33.125 20.2539 33.125 18.3398L33.125 14.9219C33.125 11.1719 31.1914 9.29688 27.9297 9.29688C26.6797 9.29688 25.957 9.92188 25.957 10.8203C25.957 11.6797 26.6016 12.2461 27.4609 12.2461C29.1992 12.2461 29.9609 13.0273 29.9609 15.2734L29.9609 18.9258C29.9609 21.1914 31.3477 22.832 33.5352 23.1445L33.5352 22.7539C31.3477 23.0859 29.9609 24.7461 29.9609 27.0312L29.9609 30.6641C29.9609 32.9102 29.1992 33.6914 27.4609 33.6914C26.6016 33.6914 25.957 34.2578 25.957 35.1367C25.957 36.0156 26.6797 36.6406 27.9297 36.6406Z" fill="black" fill-opacity="0.85"/>
 </g>
</svg>
