<?xml version="1.0" encoding="UTF-8"?>
<!--Generator: Apple Native CoreSVG 326-->
<!DOCTYPE svg
PUBLIC "-//W3C//DTD SVG 1.1//EN"
       "http://www.w3.org/Graphics/SVG/1.1/DTD/svg11.dtd">
<svg version="1.1" xmlns="http://www.w3.org/2000/svg" xmlns:xlink="http://www.w3.org/1999/xlink" viewBox="0 0 46.3867 52.207">
 <g>
  <rect height="52.207" opacity="0" width="46.3867" x="0" y="0"/>
  <path d="M0 26.0938C0 27.3438 0.722656 28.2812 2.34375 28.5352C5.56641 28.9844 6.95312 30.6055 6.95312 34.8047L6.95312 42.3047C6.95312 49.0625 9.86328 52.207 16.5039 52.207C16.8359 52.207 17.1875 52.1484 17.4414 52.0703C18.1445 51.8164 18.5352 51.2695 18.5352 50.5273C18.5352 49.6875 18.1445 49.2188 17.3633 49.043C17.1484 49.0039 16.9336 48.9648 16.6797 48.9453C12.3438 48.7109 10.6641 46.7969 10.6641 41.9141L10.6641 33.1445C10.6641 28.8477 8.28125 26.4844 4.375 26.1914C4.29688 26.1914 4.29688 26.0742 4.375 26.0742C8.28125 25.7812 10.6641 23.3984 10.6641 19.1016L10.6641 10.3125C10.6641 5.42969 12.3438 3.55469 16.6797 3.30078C17.0117 3.28125 17.3047 3.24219 17.5195 3.16406C18.1836 2.96875 18.5352 2.5 18.5352 1.71875C18.5352 0.9375 18.125 0.410156 17.3633 0.175781C17.0508 0.078125 16.7188 0.0390625 16.3086 0.0390625C9.84375 0.0390625 6.95312 3.22266 6.95312 9.94141L6.95312 17.4609C6.95312 21.6211 5.56641 23.2422 2.34375 23.7109C0.722656 23.9453 0 24.8633 0 26.0938ZM46.0156 26.0938C46.0156 24.8633 45.293 23.9453 43.6914 23.7109C40.4492 23.2227 39.0625 21.6211 39.0625 17.4609L39.0625 9.94141C39.0625 3.22266 36.1719 0.0390625 29.707 0.0390625C29.2969 0.0390625 28.9844 0.078125 28.6719 0.175781C27.8711 0.410156 27.4805 0.9375 27.4805 1.71875C27.4805 2.5 27.8711 2.94922 28.5156 3.16406C28.7305 3.24219 29.0039 3.28125 29.3359 3.30078C33.6523 3.45703 35.3516 5.42969 35.3516 10.3125L35.3516 19.1016C35.3516 23.418 37.7539 26.0742 41.6406 26.0742C41.7383 26.0742 41.7383 26.1914 41.6406 26.1914C37.7539 26.1914 35.3516 28.8281 35.3516 33.1445L35.3516 41.9141C35.3516 46.7969 33.6719 48.7109 29.3359 48.9453C29.082 48.9648 28.8867 49.0039 28.6719 49.043C27.8906 49.1797 27.4805 49.6875 27.4805 50.5273C27.4805 51.3086 27.9102 51.875 28.5938 52.0703C28.8477 52.1484 29.1797 52.207 29.5117 52.207C36.1523 52.207 39.0625 49.0625 39.0625 42.3047L39.0625 34.8047C39.0625 30.6055 40.4492 29.0039 43.6914 28.5352C45.293 28.2812 46.0156 27.3438 46.0156 26.0938Z" fill="black" fill-opacity="0.85"/>
 </g>
</svg>
