<?xml version="1.0" encoding="UTF-8"?>
<!--Generator: Apple Native CoreSVG 326-->
<!DOCTYPE svg
PUBLIC "-//W3C//DTD SVG 1.1//EN"
       "http://www.w3.org/Graphics/SVG/1.1/DTD/svg11.dtd">
<svg version="1.1" xmlns="http://www.w3.org/2000/svg" xmlns:xlink="http://www.w3.org/1999/xlink" viewBox="0 0 51.25 50.918">
 <g>
  <rect height="50.918" opacity="0" width="51.25" x="0" y="0"/>
  <path d="M25.4297 50.8789C39.4727 50.8789 50.8789 39.4922 50.8789 25.4492C50.8789 11.4062 39.4727 0 25.4297 0C11.3867 0 0 11.4062 0 25.4492C0 39.4922 11.3867 50.8789 25.4297 50.8789ZM25.4297 47.2461C13.3789 47.2461 3.63281 37.5 3.63281 25.4492C3.63281 13.3984 13.3789 3.65234 25.4297 3.65234C37.4805 3.65234 47.2266 13.3984 47.2266 25.4492C47.2266 37.5 37.4805 47.2461 25.4297 47.2461Z" fill="black" fill-opacity="0.85"/>
  <path d="M16.0547 35.8984C16.7773 35.8984 17.2656 35.3711 17.2656 34.6094L17.2656 30L18.8086 28.4766L23.6719 35.293C23.9258 35.6641 24.2773 35.8984 24.7461 35.8984C25.4102 35.8984 25.918 35.4492 25.918 34.8047C25.918 34.5117 25.7812 34.2188 25.5859 33.9453L20.5664 26.9531L25.2734 21.9336C25.5664 21.6211 25.7031 21.4453 25.7031 21.0547C25.7031 20.4883 25.2344 20 24.6094 20C24.2773 20 23.8867 20.1953 23.6719 20.4492L17.3438 27.4023L17.2656 27.4023L17.2656 15.2734C17.2656 14.4922 16.7773 13.9453 16.0547 13.9453C15.332 13.9453 14.8047 14.4727 14.8047 15.2539L14.8047 34.6094C14.8047 35.3711 15.332 35.8984 16.0547 35.8984ZM30.0586 35.8984C30.625 35.8984 31.2305 35.5469 31.2305 34.6094L31.2305 26.3867C31.2305 24.5312 31.9531 22.3438 34.1992 22.3438C34.668 22.3438 35.1367 22.3242 35.4883 22.1484C35.8398 22.0117 36.0156 21.7188 36.0156 21.2891C36.0156 20.4297 35.293 20 34.4336 20C32.7734 20 31.6797 21.4062 31.2891 23.0664L31.1328 23.0664L31.1328 21.2305C31.1328 20.5273 30.6445 20 30.0195 20C29.375 20 28.8867 20.5273 28.8867 21.2305L28.8867 34.6094C28.8867 35.3906 29.2969 35.8984 30.0586 35.8984ZM36.9727 35.6641C37.9492 35.6641 38.6328 34.9805 38.6328 34.043C38.6328 33.0859 37.9492 32.3828 36.9727 32.3828C36.0156 32.3828 35.332 33.0859 35.332 34.043C35.332 34.9805 36.0156 35.6641 36.9727 35.6641Z" fill="black" fill-opacity="0.85"/>
 </g>
</svg>
