<?xml version="1.0" encoding="UTF-8"?>
<!--Generator: Apple Native CoreSVG 326-->
<!DOCTYPE svg
PUBLIC "-//W3C//DTD SVG 1.1//EN"
       "http://www.w3.org/Graphics/SVG/1.1/DTD/svg11.dtd">
<svg version="1.1" xmlns="http://www.w3.org/2000/svg" xmlns:xlink="http://www.w3.org/1999/xlink" viewBox="0 0 55.5273 53.1055">
 <g>
  <rect height="53.1055" opacity="0" width="55.5273" x="0" y="0"/>
  <path d="M3.06641 47.6758L52.0898 47.6758L52.0898 46.1719C52.0898 45.332 51.582 44.8242 50.7227 44.8242L49.1211 44.8242L49.1211 16.6797L51.3867 16.6797C52.5781 16.6797 53.2422 15.8398 53.2422 14.9609C53.2422 14.3164 52.8906 13.75 52.1094 13.3008L30.5273 0.839844C29.5703 0.292969 28.5547 0 27.5781 0C26.6016 0 25.5664 0.292969 24.6289 0.839844L3.04688 13.3008C2.24609 13.75 1.91406 14.3164 1.91406 14.9609C1.91406 15.8398 2.57812 16.6797 3.76953 16.6797L6.05469 16.6797L6.05469 44.8242L4.45312 44.8242C3.57422 44.8242 3.06641 45.332 3.06641 46.1719ZM9.31641 44.8242L9.31641 13.7109L26.4453 4.0625C26.7773 3.86719 27.1875 3.75 27.5781 3.75C27.9492 3.75 28.3398 3.86719 28.7109 4.0625L45.8594 13.7109L45.8594 44.8242ZM1.73828 53.0664L53.418 53.0664C54.375 53.0664 55.1562 52.2852 55.1562 51.3477C55.1562 50.3906 54.375 49.6094 53.418 49.6094L1.73828 49.6094C0.78125 49.6094 0 50.3906 0 51.3477C0 52.2852 0.78125 53.0664 1.73828 53.0664Z" fill="black" fill-opacity="0.85"/>
  <path d="M18.8477 36.2305C19.5117 36.2305 19.9805 35.7422 19.9805 35.0195L19.9805 30.7031L21.4258 29.2578L25.9961 35.6641C26.2305 36.0156 26.5625 36.2305 27.0117 36.2305C27.6172 36.2305 28.1055 35.8008 28.1055 35.2148C28.1055 34.9219 27.9883 34.6484 27.793 34.3945L23.0664 27.832L27.5 23.125C27.7734 22.8125 27.9102 22.6562 27.9102 22.2852C27.9102 21.7578 27.4609 21.2891 26.875 21.2891C26.5625 21.2891 26.2109 21.4844 25.9961 21.7383L20.0586 28.2422L19.9805 28.2422L19.9805 16.8555C19.9805 16.1328 19.5117 15.625 18.8477 15.625C18.1641 15.625 17.6758 16.1133 17.6758 16.8555L17.6758 35.0195C17.6758 35.7422 18.1641 36.2305 18.8477 36.2305ZM31.9922 36.2305C32.5195 36.2305 33.0859 35.8984 33.0859 35.0195L33.0859 27.3047C33.0859 25.5469 33.7695 23.5156 35.8789 23.5156C36.3281 23.5156 36.7578 23.4766 37.0898 23.3203C37.4023 23.1836 37.5977 22.9102 37.5977 22.5195C37.5977 21.7188 36.9141 21.2891 36.0938 21.2891C34.5312 21.2891 33.4961 22.6172 33.1445 24.1797L32.9883 24.1797L32.9883 22.4609C32.9883 21.7969 32.5391 21.2891 31.9531 21.2891C31.3477 21.2891 30.8789 21.7969 30.8789 22.4609L30.8789 35.0195C30.8789 35.7422 31.2891 36.2305 31.9922 36.2305ZM38.4961 35.9961C39.3945 35.9961 40.0391 35.3516 40.0391 34.4727C40.0391 33.5742 39.3945 32.9297 38.4961 32.9297C37.5781 32.9297 36.9336 33.5742 36.9336 34.4727C36.9336 35.3516 37.5781 35.9961 38.4961 35.9961Z" fill="black" fill-opacity="0.85"/>
 </g>
</svg>
