<?xml version="1.0" encoding="UTF-8"?>
<!--Generator: Apple Native CoreSVG 326-->
<!DOCTYPE svg
PUBLIC "-//W3C//DTD SVG 1.1//EN"
       "http://www.w3.org/Graphics/SVG/1.1/DTD/svg11.dtd">
<svg version="1.1" xmlns="http://www.w3.org/2000/svg" xmlns:xlink="http://www.w3.org/1999/xlink" viewBox="0 0 46.2891 45.918">
 <g>
  <rect height="45.918" opacity="0" width="46.2891" x="0" y="0"/>
  <path d="M7.59766 45.918L38.3008 45.918C43.3594 45.918 45.918 43.3594 45.918 38.3984L45.918 7.53906C45.918 2.55859 43.3594 0 38.3008 0L7.59766 0C2.55859 0 0 2.53906 0 7.53906L0 38.3984C0 43.3984 2.55859 45.918 7.59766 45.918ZM7.67578 42.4609C4.94141 42.4609 3.45703 41.0156 3.45703 38.2031L3.45703 7.71484C3.45703 4.92188 4.94141 3.45703 7.67578 3.45703L38.2422 3.45703C40.918 3.45703 42.4609 4.92188 42.4609 7.71484L42.4609 38.2031C42.4609 41.0156 40.918 42.4609 38.2422 42.4609Z" fill="black" fill-opacity="0.85"/>
  <path d="M13.5938 33.3984C14.3164 33.3984 14.8242 32.8711 14.8242 32.1094L14.8242 27.5L16.3672 25.9766L21.2109 32.793C21.4844 33.1641 21.8359 33.3984 22.3047 33.3984C22.9492 33.3984 23.4766 32.9492 23.4766 32.3047C23.4766 32.0117 23.3398 31.7188 23.125 31.4453L18.1055 24.4531L22.832 19.4336C23.125 19.1211 23.2617 18.9453 23.2617 18.5547C23.2617 17.9883 22.793 17.5 22.168 17.5C21.8359 17.5 21.4453 17.6953 21.2305 17.9492L14.9023 24.9023L14.8242 24.9023L14.8242 12.7734C14.8242 11.9922 14.3164 11.4453 13.5938 11.4453C12.8906 11.4453 12.3633 11.9727 12.3633 12.7539L12.3633 32.1094C12.3633 32.8711 12.8906 33.3984 13.5938 33.3984ZM27.6172 33.3984C28.1836 33.3984 28.7891 33.0469 28.7891 32.1094L28.7891 23.8867C28.7891 22.0312 29.5117 19.8438 31.7578 19.8438C32.2266 19.8438 32.6953 19.8242 33.0469 19.6484C33.3789 19.5117 33.5742 19.2188 33.5742 18.7891C33.5742 17.9297 32.8516 17.5 31.9922 17.5C30.332 17.5 29.2383 18.9062 28.8477 20.5664L28.6914 20.5664L28.6914 18.7305C28.6914 18.0273 28.2031 17.5 27.5781 17.5C26.9141 17.5 26.4453 18.0273 26.4453 18.7305L26.4453 32.1094C26.4453 32.8906 26.8555 33.3984 27.6172 33.3984ZM34.5312 33.1641C35.5078 33.1641 36.1914 32.4805 36.1914 31.543C36.1914 30.5859 35.5078 29.8828 34.5312 29.8828C33.5742 29.8828 32.8906 30.5859 32.8906 31.543C32.8906 32.4805 33.5742 33.1641 34.5312 33.1641Z" fill="black" fill-opacity="0.85"/>
 </g>
</svg>
