<?xml version="1.0" encoding="UTF-8"?>
<!--Generator: Apple Native CoreSVG 326-->
<!DOCTYPE svg
PUBLIC "-//W3C//DTD SVG 1.1//EN"
       "http://www.w3.org/Graphics/SVG/1.1/DTD/svg11.dtd">
<svg version="1.1" xmlns="http://www.w3.org/2000/svg" xmlns:xlink="http://www.w3.org/1999/xlink" viewBox="0 0 55.4883 45.957">
 <g>
  <rect height="45.957" opacity="0" width="55.4883" x="0" y="0"/>
  <path d="M53.8477 7.57812L53.8477 38.4375C53.8477 43.4375 51.2695 45.957 46.2305 45.957L24.5703 45.9375C21.6797 45.9375 19.2969 44.9805 17.3047 42.9102L2.26562 27.5781C0.664062 25.957 0 24.4922 0 22.9492C0 21.4062 0.683594 19.9609 2.26562 18.3398L17.2852 2.83203C19.2773 0.742188 21.6602 0.0585938 24.5508 0.0585938L46.2305 0.0585938C51.2695 0.0585938 53.8477 2.57812 53.8477 7.57812ZM38.75 13.2812L31.4844 20.5078L24.2578 13.3008C23.9062 12.9688 23.5156 12.7734 23.0078 12.7734C22.0117 12.7734 21.2109 13.5352 21.2109 14.5508C21.2109 15.0195 21.4062 15.4688 21.7578 15.8203L28.9453 23.0273L21.7578 30.2344C21.4062 30.5859 21.2109 31.0156 21.2109 31.5039C21.2109 32.5 22.0117 33.3008 23.0078 33.3008C23.5156 33.3008 23.9648 33.125 24.3164 32.7539L31.4844 25.5469L38.6719 32.7539C39.0039 33.125 39.4727 33.3008 39.9805 33.3008C40.9766 33.3008 41.7773 32.5 41.7773 31.5039C41.7773 30.9961 41.6211 30.5664 41.25 30.2148L34.043 23.0273L41.2695 15.8008C41.6602 15.4102 41.7969 15 41.7969 14.5117C41.7969 13.5156 40.9961 12.7344 40.0195 12.7344C39.5312 12.7344 39.1211 12.9102 38.75 13.2812Z" fill="black" fill-opacity="0.85"/>
 </g>
</svg>
