<?xml version="1.0" encoding="UTF-8"?>
<!--Generator: Apple Native CoreSVG 326-->
<!DOCTYPE svg
PUBLIC "-//W3C//DTD SVG 1.1//EN"
       "http://www.w3.org/Graphics/SVG/1.1/DTD/svg11.dtd">
<svg version="1.1" xmlns="http://www.w3.org/2000/svg" xmlns:xlink="http://www.w3.org/1999/xlink" viewBox="0 0 54.7461 45.957">
 <g>
  <rect height="45.957" opacity="0" width="54.7461" x="0" y="0"/>
  <path d="M8.51562 45.957L30.1758 45.9375C33.0664 45.9375 35.4492 44.9805 37.4414 42.9102L52.4805 27.5781C54.082 25.957 54.7461 24.4922 54.7461 22.9492C54.7461 21.4062 54.0625 19.9609 52.4805 18.3398L37.4609 2.83203C35.4688 0.742188 33.0859 0.0585938 30.1953 0.0585938L8.51562 0.0585938C3.47656 0.0585938 0.898438 2.57812 0.898438 7.57812L0.898438 38.4375C0.898438 43.4375 3.47656 45.957 8.51562 45.957ZM8.57422 42.5C5.85938 42.5 4.375 41.0547 4.375 38.2617L4.375 7.75391C4.375 4.96094 5.85938 3.51562 8.57422 3.51562L30.2539 3.51562C32.1875 3.51562 33.5352 3.80859 34.8828 5.21484L49.8047 20.625C50.6836 21.543 50.9961 22.207 50.9961 22.9492C50.9961 23.6914 50.7031 24.3555 49.8047 25.293L34.8633 40.5469C33.4961 41.9531 32.1875 42.5 30.2344 42.5Z" fill="black" fill-opacity="0.85"/>
  <path d="M14.5508 33.4961C15.0586 33.4961 15.4688 33.3008 15.8203 32.9492L23.2812 25.4688L30.7422 32.9492C31.0938 33.2812 31.5039 33.4961 32.0117 33.4961C32.9688 33.4961 33.75 32.6953 33.75 31.7383C33.75 31.25 33.5742 30.8398 33.2227 30.4883L25.7422 23.0273L33.2422 15.5078C33.6133 15.1367 33.7695 14.7656 33.7695 14.2773C33.7695 13.3203 32.9883 12.5586 32.0312 12.5586C31.5625 12.5586 31.1914 12.7148 30.8008 13.1055L23.2812 20.5859L15.7812 13.125C15.4297 12.7539 15.0586 12.5977 14.5508 12.5977C13.5938 12.5977 12.8125 13.3398 12.8125 14.2969C12.8125 14.7852 12.9883 15.1953 13.3398 15.5273L20.8203 23.0273L13.3398 30.5078C12.9883 30.8398 12.8125 31.2695 12.8125 31.7383C12.8125 32.6953 13.5938 33.4961 14.5508 33.4961Z" fill="black" fill-opacity="0.85"/>
 </g>
</svg>
