<?xml version="1.0" encoding="UTF-8"?>
<!--Generator: Apple Native CoreSVG 326-->
<!DOCTYPE svg
PUBLIC "-//W3C//DTD SVG 1.1//EN"
       "http://www.w3.org/Graphics/SVG/1.1/DTD/svg11.dtd">
<svg version="1.1" xmlns="http://www.w3.org/2000/svg" xmlns:xlink="http://www.w3.org/1999/xlink" viewBox="0 0 51.25 51.5039">
 <g>
  <rect height="51.5039" opacity="0" width="51.25" x="0" y="0"/>
  <path d="M0.234375 38.8281L0.234375 47.4414C0.234375 50.2148 1.58203 51.5039 4.375 51.5039L13.3984 51.5039C7.61719 48.8477 3.18359 44.5508 0.234375 38.8281ZM50.7227 38.8281C47.7734 44.5508 43.3398 48.8477 37.5391 51.5039L46.582 51.5039C49.375 51.5039 50.7227 50.2148 50.7227 47.4414ZM25.4297 51.1719C39.4727 51.1719 50.8789 39.7852 50.8789 25.7422C50.8789 11.6992 39.4727 0.292969 25.4297 0.292969C11.3867 0.292969 0 11.6992 0 25.7422C0 39.7852 11.3867 51.1719 25.4297 51.1719ZM25.4297 47.5391C13.3789 47.5391 3.63281 37.793 3.63281 25.7422C3.63281 13.6914 13.3789 3.94531 25.4297 3.94531C37.4805 3.94531 47.2266 13.6914 47.2266 25.7422C47.2266 37.793 37.4805 47.5391 25.4297 47.5391Z" fill="black" fill-opacity="0.85"/>
  <path d="M16.8555 19.3359L24.4141 26.8945C25.0391 27.5195 25.9766 27.5195 26.582 26.8945L38.4961 14.9805C39.1016 14.3945 39.1211 13.457 38.4961 12.8516C37.8711 12.2656 36.9727 12.2461 36.3477 12.8516L25.4883 23.7109L19.0234 17.207C18.3984 16.582 17.4805 16.6016 16.875 17.207C16.2695 17.793 16.25 18.7305 16.8555 19.3359Z" fill="black" fill-opacity="0.85"/>
 </g>
</svg>
