<?xml version="1.0" encoding="UTF-8"?>
<!--Generator: Apple Native CoreSVG 326-->
<!DOCTYPE svg
PUBLIC "-//W3C//DTD SVG 1.1//EN"
       "http://www.w3.org/Graphics/SVG/1.1/DTD/svg11.dtd">
<svg version="1.1" xmlns="http://www.w3.org/2000/svg" xmlns:xlink="http://www.w3.org/1999/xlink" viewBox="0 0 51.25 50.918">
 <g>
  <rect height="50.918" opacity="0" width="51.25" x="0" y="0"/>
  <path d="M50.8789 25.4492C50.8789 39.4531 39.4531 50.8789 25.4297 50.8789C11.4258 50.8789 0 39.4531 0 25.4492C0 11.4258 11.4258 0 25.4297 0C39.4531 0 50.8789 11.4258 50.8789 25.4492ZM23.3789 12.207L12.207 23.3789C10.8398 24.7461 10.8984 26.1719 12.2461 27.5195L23.3594 38.6523C24.7266 40.0195 26.1328 40.0586 27.5 38.6914L38.6719 27.5195C40.0586 26.1328 40 24.7266 38.6328 23.3594L27.5195 12.2461C26.1523 10.8789 24.7461 10.8398 23.3789 12.207Z" fill="black" fill-opacity="0.85"/>
 </g>
</svg>
