<?xml version="1.0" encoding="UTF-8"?>
<!--Generator: Apple Native CoreSVG 326-->
<!DOCTYPE svg
PUBLIC "-//W3C//DTD SVG 1.1//EN"
       "http://www.w3.org/Graphics/SVG/1.1/DTD/svg11.dtd">
<svg version="1.1" xmlns="http://www.w3.org/2000/svg" xmlns:xlink="http://www.w3.org/1999/xlink" viewBox="0 0 56.8555 56.5284">
 <g>
  <rect height="56.5284" opacity="0" width="56.8555" x="0" y="0"/>
  <path d="M53.7891 33.6255C57.3633 30.0513 57.4023 26.4771 53.8477 22.9224L33.5742 2.6685C30-0.905717 26.4453-0.886186 22.8516 2.70756L2.67578 22.8833C-0.898438 26.4576-0.878906 30.0513 2.65625 33.5865L22.9102 53.8599C26.4453 57.3951 30.0391 57.3755 33.6133 53.8013ZM28.2617 3.74272L28.2617 52.7662C27.2461 52.7662 26.25 52.2974 25.2539 51.2818L5.21484 31.2623C3.22266 29.2896 3.28125 27.1998 5.19531 25.2662L25.2734 5.20756C26.25 4.21147 27.2461 3.72319 28.2617 3.74272Z" fill="black" fill-opacity="0.85"/>
 </g>
</svg>
