<?xml version="1.0" encoding="UTF-8"?>
<!--Generator: Apple Native CoreSVG 326-->
<!DOCTYPE svg
PUBLIC "-//W3C//DTD SVG 1.1//EN"
       "http://www.w3.org/Graphics/SVG/1.1/DTD/svg11.dtd">
<svg version="1.1" xmlns="http://www.w3.org/2000/svg" xmlns:xlink="http://www.w3.org/1999/xlink" viewBox="0 0 56.8656 56.5284">
 <g>
  <rect height="56.5284" opacity="0" width="56.8656" x="0" y="0"/>
  <path d="M2.71991 33.6255L22.8957 53.8013C26.4699 57.3755 30.0637 57.3951 33.5988 53.8599L53.8527 33.5865C57.3879 30.0513 57.3879 26.4576 53.8137 22.8833L33.6379 2.70756C30.0637-0.886186 26.4894-0.905717 22.9348 2.6685L2.64178 22.9224C-0.912906 26.4771-0.873843 30.0513 2.71991 33.6255ZM5.20038 31.2427C3.24725 29.3091 3.22772 27.2388 5.21991 25.2662L25.259 5.2271C27.2316 3.23491 29.2824 3.25444 31.2355 5.20756L51.2941 25.2662C53.2277 27.1998 53.2863 29.2896 51.2941 31.2623L31.2551 51.2818C29.2629 53.274 27.1926 53.2349 25.2785 51.3208Z" fill="black" fill-opacity="0.85"/>
 </g>
</svg>
