<?xml version="1.0" encoding="UTF-8"?>
<!--Generator: Apple Native CoreSVG 326-->
<!DOCTYPE svg
PUBLIC "-//W3C//DTD SVG 1.1//EN"
       "http://www.w3.org/Graphics/SVG/1.1/DTD/svg11.dtd">
<svg version="1.1" xmlns="http://www.w3.org/2000/svg" xmlns:xlink="http://www.w3.org/1999/xlink" viewBox="0 0 56.8656 56.5284">
 <g>
  <rect height="56.5284" opacity="0" width="56.8656" x="0" y="0"/>
  <path d="M2.71991 33.6255L22.8957 53.8013C26.4699 57.3755 30.0637 57.3951 33.5988 53.8599L53.8527 33.5865C57.3879 30.0513 57.3879 26.4576 53.8137 22.8833L33.6379 2.70756C30.0637-0.886186 26.4894-0.905717 22.9348 2.6685L2.64178 22.9224C-0.912906 26.4771-0.873843 30.0513 2.71991 33.6255ZM52.759 28.2544C52.759 29.2505 52.2707 30.2662 51.2941 31.2623L31.2551 51.2818C29.2629 53.274 27.173 53.2349 25.2785 51.3208L5.20038 31.2427C4.20428 30.2466 3.73553 29.2505 3.73553 28.2544Z" fill="black" fill-opacity="0.85"/>
 </g>
</svg>
