<?xml version="1.0" encoding="UTF-8"?>
<!--Generator: Apple Native CoreSVG 326-->
<!DOCTYPE svg
PUBLIC "-//W3C//DTD SVG 1.1//EN"
       "http://www.w3.org/Graphics/SVG/1.1/DTD/svg11.dtd">
<svg version="1.1" xmlns="http://www.w3.org/2000/svg" xmlns:xlink="http://www.w3.org/1999/xlink" viewBox="0 0 53.1055 51.8164">
 <g>
  <rect height="51.8164" opacity="0" width="53.1055" x="0" y="0"/>
  <path d="M40.5273 7.57812L40.5273 11.2891L37.0508 11.2891L37.0508 7.77344C37.0508 4.96094 35.5273 3.51562 32.8516 3.51562L7.67578 3.51562C4.94141 3.51562 3.45703 4.96094 3.45703 7.77344L3.45703 32.8711C3.45703 35.6836 4.94141 37.1289 7.67578 37.1289L12.2266 37.1289L12.2266 40.5859L7.59766 40.5859C2.53906 40.5859 0 38.0469 0 33.0469L0 7.57812C0 2.59766 2.53906 0.0585938 7.59766 0.0585938L32.9102 0.0585938C37.9492 0.0585938 40.5273 2.61719 40.5273 7.57812Z" fill="black" fill-opacity="0.85"/>
  <path d="M19.8242 51.8164L45.1367 51.8164C50.1758 51.8164 52.7344 49.2578 52.7344 44.2773L52.7344 18.8281C52.7344 13.8477 50.1758 11.2891 45.1367 11.2891L19.8242 11.2891C14.7656 11.2891 12.2266 13.8281 12.2266 18.8281L12.2266 44.2773C12.2266 49.2773 14.7656 51.8164 19.8242 51.8164ZM19.9023 48.3594C17.168 48.3594 15.6836 46.9141 15.6836 44.1016L15.6836 19.0039C15.6836 16.1914 17.168 14.7461 19.9023 14.7461L45.0781 14.7461C47.7539 14.7461 49.2773 16.1914 49.2773 19.0039L49.2773 44.1016C49.2773 46.9141 47.7539 48.3594 45.0781 48.3594Z" fill="black" fill-opacity="0.85"/>
  <path d="M22.4414 25.0195C24.3555 25.0391 25.9375 23.457 25.9375 21.4844C25.9375 19.5703 24.3555 18.0078 22.4414 18.0078C20.5078 18.0078 18.9258 19.5703 18.9258 21.4844C18.9258 23.457 20.5078 24.9805 22.4414 25.0195ZM42.5391 25.0195C44.4531 25.0391 46.0352 23.457 46.0352 21.4844C46.0352 19.5703 44.4531 18.0078 42.5391 18.0078C40.6055 18.0078 39.0234 19.5703 39.0234 21.4844C39.0234 23.457 40.6055 24.9805 42.5391 25.0195ZM32.4805 35.0977C34.3945 35.0977 35.9766 33.5156 35.9766 31.5625C35.9766 29.6484 34.3945 28.0859 32.4805 28.0859C30.5469 28.0859 29.0039 29.6484 29.0039 31.5625C29.0039 33.5156 30.5469 35.0977 32.4805 35.0977ZM22.4414 45.1562C24.3555 45.1562 25.918 43.5742 25.918 41.6406C25.918 39.707 24.3555 38.1445 22.4414 38.1445C20.5078 38.1445 18.9453 39.707 18.9453 41.6406C18.9453 43.5742 20.5078 45.1562 22.4414 45.1562ZM42.5391 45.1562C44.4531 45.1562 46.0352 43.5742 46.0352 41.6406C46.0352 39.707 44.4531 38.1445 42.5391 38.1445C40.6055 38.1445 39.0625 39.707 39.0625 41.6406C39.0625 43.5742 40.6055 45.1562 42.5391 45.1562Z" fill="black" fill-opacity="0.85"/>
 </g>
</svg>
