<?xml version="1.0" encoding="UTF-8"?>
<!--Generator: Apple Native CoreSVG 326-->
<!DOCTYPE svg
PUBLIC "-//W3C//DTD SVG 1.1//EN"
       "http://www.w3.org/Graphics/SVG/1.1/DTD/svg11.dtd">
<svg version="1.1" xmlns="http://www.w3.org/2000/svg" xmlns:xlink="http://www.w3.org/1999/xlink" viewBox="0 0 46.2891 45.918">
 <g>
  <rect height="45.918" opacity="0" width="46.2891" x="0" y="0"/>
  <path d="M7.59766 45.918L38.3008 45.918C43.3594 45.918 45.918 43.3594 45.918 38.3984L45.918 7.53906C45.918 2.55859 43.3594 0 38.3008 0L7.59766 0C2.55859 0 0 2.53906 0 7.53906L0 38.3984C0 43.3984 2.55859 45.918 7.59766 45.918ZM7.67578 42.4609C4.94141 42.4609 3.45703 41.0156 3.45703 38.2031L3.45703 7.71484C3.45703 4.92188 4.94141 3.45703 7.67578 3.45703L38.2422 3.45703C40.918 3.45703 42.4609 4.92188 42.4609 7.71484L42.4609 38.2031C42.4609 41.0156 40.918 42.4609 38.2422 42.4609Z" fill="black" fill-opacity="0.85"/>
  <path d="M11.4258 15.4297C13.6133 15.4688 15.4492 13.6328 15.4492 11.3867C15.4492 9.17969 13.6133 7.38281 11.4258 7.38281C9.21875 7.38281 7.40234 9.17969 7.40234 11.3867C7.40234 13.6328 9.21875 15.3906 11.4258 15.4297ZM34.5117 15.4297C36.6992 15.4688 38.5156 13.6328 38.5156 11.3867C38.5156 9.17969 36.6992 7.38281 34.5117 7.38281C32.3047 7.38281 30.4688 9.17969 30.4688 11.3867C30.4688 13.6328 32.3047 15.3906 34.5117 15.4297ZM22.9688 27.0117C25.1562 27.0117 26.9727 25.1953 26.9727 22.9492C26.9727 20.7617 25.1562 18.9648 22.9688 18.9648C20.7422 18.9648 18.9648 20.7617 18.9648 22.9492C18.9648 25.1953 20.7422 27.0117 22.9688 27.0117ZM11.4258 38.5547C13.6133 38.5547 15.4297 36.7383 15.4297 34.5312C15.4297 32.3047 13.6133 30.5078 11.4258 30.5078C9.21875 30.5078 7.42188 32.3047 7.42188 34.5312C7.42188 36.7383 9.21875 38.5547 11.4258 38.5547ZM34.5117 38.5547C36.6992 38.5547 38.5156 36.7383 38.5156 34.5312C38.5156 32.3047 36.6992 30.5078 34.5117 30.5078C32.3047 30.5078 30.5078 32.3047 30.5078 34.5312C30.5078 36.7383 32.3047 38.5547 34.5117 38.5547Z" fill="black" fill-opacity="0.85"/>
 </g>
</svg>
