<?xml version="1.0" encoding="UTF-8"?>
<!--Generator: Apple Native CoreSVG 326-->
<!DOCTYPE svg
PUBLIC "-//W3C//DTD SVG 1.1//EN"
       "http://www.w3.org/Graphics/SVG/1.1/DTD/svg11.dtd">
<svg version="1.1" xmlns="http://www.w3.org/2000/svg" xmlns:xlink="http://www.w3.org/1999/xlink" viewBox="0 0 62.6758 50.0977">
 <g>
  <rect height="50.0977" opacity="0" width="62.6758" x="0" y="0"/>
  <path d="M2.73438 25.0391C2.73438 9.57031 7.07031 0 17.3438 0L27.207 3.47988e-08C32.6466 0 36.6874 5.93065 38.2515 15.5214L35.1745 18.1956C34.1875 9.15304 31.1981 3.47656 27.207 3.47656C22.2656 3.47656 18.8672 12.1094 18.8672 25.0391C18.8672 37.9492 22.2656 46.6016 27.207 46.6016C31.2014 46.6016 34.1924 40.903 35.1773 31.8539L38.2533 34.5343C36.6907 44.1231 32.6488 50.0586 27.207 50.0586L17.3438 50.0586C7.07031 50.0586 2.73438 40.5078 2.73438 25.0391ZM20.7583 3.47656L17.3438 3.47656C9.23828 3.47656 6.21094 11.7188 6.21094 25.0391C6.21094 38.3398 9.23828 46.6016 17.3438 46.6016L20.7736 46.6016C19.8217 45.4591 18.986 44.0158 18.2822 42.3047L14.2969 42.3047C13.5156 42.3047 12.8711 41.6602 12.8711 40.8789C12.8711 40.0977 13.5156 39.4531 14.2969 39.4531L17.248 39.4531C16.7995 37.9696 16.4287 36.3477 16.1501 34.5898L12.5391 34.5898C11.7383 34.5898 11.0938 33.9453 11.0938 33.1641C11.0938 32.3633 11.7383 31.7188 12.5391 31.7188L15.764 31.7187C15.5654 30 15.4534 28.1661 15.4338 26.2305L11.8945 26.2305C11.1133 26.2305 10.4492 25.5859 10.4492 24.8047C10.4492 24.0039 11.1133 23.3594 11.8945 23.3594L15.4434 23.3594C15.4772 21.4222 15.6036 19.5892 15.8149 17.8711L12.5391 17.8711C11.7383 17.8711 11.0938 17.2266 11.0938 16.4258C11.0938 15.6445 11.7383 15 12.5391 15L16.224 15C16.5293 13.2383 16.9233 11.6099 17.4023 10.1367L14.2969 10.1367C13.5156 10.1367 12.8711 9.49219 12.8711 8.71094C12.8711 7.92969 13.5156 7.28516 14.2969 7.28516L18.4816 7.28516C19.1385 5.78731 19.9003 4.50751 20.7583 3.47656Z" fill="black" fill-opacity="0.85"/>
  <path d="M33.7109 26.4453L41.1719 32.9492C42.4805 34.1211 44.3945 33.4375 44.3945 31.5625L44.3945 26.875L57.7148 26.875C58.7695 26.875 59.5508 26.0742 59.5508 25.0586C59.5508 24.0039 58.7695 23.2031 57.7148 23.2031L44.3945 23.2031L44.3945 18.4961C44.3945 16.6797 42.5391 15.918 41.1719 17.1094L33.7109 23.5938C32.7539 24.4141 32.7344 25.6055 33.7109 26.4453Z" fill="black" fill-opacity="0.85"/>
 </g>
</svg>
