<?xml version="1.0" encoding="UTF-8"?>
<!--Generator: Apple Native CoreSVG 326-->
<!DOCTYPE svg
PUBLIC "-//W3C//DTD SVG 1.1//EN"
       "http://www.w3.org/Graphics/SVG/1.1/DTD/svg11.dtd">
<svg version="1.1" xmlns="http://www.w3.org/2000/svg" xmlns:xlink="http://www.w3.org/1999/xlink" viewBox="0 0 55.918 60.7617">
 <g>
  <rect height="60.7617" opacity="0" width="55.918" x="0" y="0"/>
  <path d="M49.1797 9.80469L49.1797 33.7292C48.1144 33.0315 46.9459 32.48 45.7031 32.0919L45.7031 19.7656L9.84375 19.7656L9.84375 46.3477L21.6347 46.3477C21.6413 47.3355 21.7538 48.2954 21.9595 49.2187L9.84375 49.2187L9.84375 50.1562C9.84375 51.543 10.7031 52.4609 12.0117 52.4609L23.0742 52.4609C23.6649 53.7362 24.4461 54.8997 25.3846 55.918L11.875 55.918C8.59375 55.918 6.36719 53.6133 6.36719 50.1562L6.36719 9.80469C6.36719 6.34766 8.59375 4.0625 11.875 4.0625L43.6719 4.0625C46.9531 4.0625 49.1797 6.34766 49.1797 9.80469ZM34.7461 24.2773C34.7461 24.9609 34.2969 25.4297 33.6133 25.4297L21.9336 25.4297C21.2695 25.4297 20.8008 24.9609 20.8008 24.2773C20.8008 23.6133 21.2695 23.1445 21.9336 23.1445L33.6133 23.1445C34.2969 23.1445 34.7461 23.6133 34.7461 24.2773ZM12.0117 7.51953C10.7031 7.51953 9.84375 8.4375 9.84375 9.82422L9.84375 16.8945L45.7031 16.8945L45.7031 9.82422C45.7031 8.4375 44.8438 7.51953 43.5352 7.51953ZM17.7148 12.207C17.7148 13.4375 16.6992 14.4336 15.4883 14.4336C14.2578 14.4336 13.2617 13.4375 13.2617 12.207C13.2617 10.9961 14.2578 9.98047 15.4883 9.98047C16.6992 9.98047 17.7148 10.9961 17.7148 12.207ZM24.1211 12.207C24.1211 13.4375 23.125 14.4336 21.9141 14.4336C20.6836 14.4336 19.707 13.4375 19.707 12.207C19.707 10.9961 20.6836 9.98047 21.9141 9.98047C23.125 9.98047 24.1211 10.9961 24.1211 12.207Z" fill="black" fill-opacity="0.85"/>
  <path d="M53.1836 46.0742C53.1836 52.7344 47.8906 58.0273 41.25 58.0273C40.3965 58.0273 39.5655 57.9404 38.7662 57.7722C40.6142 57.3918 42.2983 56.5879 43.711 55.4583C47.9535 54.4318 50.918 50.7401 50.918 46.0742C50.918 41.4303 47.9605 37.7444 43.7261 36.7133C42.3099 35.5809 40.6206 34.7753 38.7662 34.3949C39.5655 34.2272 40.3965 34.1406 41.25 34.1406C47.8906 34.1406 53.1836 39.4141 53.1836 46.0742Z" fill="black" fill-opacity="0.85"/>
  <path d="M36.2891 58.0273C42.9297 58.0273 48.2227 52.7344 48.2227 46.0742C48.2227 39.4141 42.9297 34.1406 36.2891 34.1406C29.6289 34.1406 24.3359 39.4141 24.3359 46.0742C24.3359 52.7344 29.6289 58.0273 36.2891 58.0273ZM36.2891 55.7617C30.7422 55.7617 26.6211 51.6016 26.6211 46.0742C26.6211 40.5664 30.7422 36.4062 36.2891 36.4062C41.7969 36.4062 45.957 40.5664 45.957 46.0742C45.957 51.6016 41.7969 55.7617 36.2891 55.7617ZM36.2891 53.5742C40.4297 53.5742 43.7695 50.2344 43.7695 46.0742C43.7695 41.9336 40.4297 38.5938 36.2891 38.5938C32.1289 38.5938 28.7695 41.9336 28.7695 46.0742C28.7695 50.2344 32.1289 53.5742 36.2891 53.5742ZM36.2891 51.5039C33.1055 51.5039 30.8594 49.2578 30.8594 46.0742C30.8594 42.9102 33.1055 40.6641 36.2891 40.6641C39.4727 40.6641 41.6992 42.8906 41.6992 46.0742C41.6992 49.2578 39.4531 51.5039 36.2891 51.5039Z" fill="black" fill-opacity="0.85"/>
 </g>
</svg>
