<?xml version="1.0" encoding="UTF-8"?>
<!--Generator: Apple Native CoreSVG 326-->
<!DOCTYPE svg
PUBLIC "-//W3C//DTD SVG 1.1//EN"
       "http://www.w3.org/Graphics/SVG/1.1/DTD/svg11.dtd">
<svg version="1.1" xmlns="http://www.w3.org/2000/svg" xmlns:xlink="http://www.w3.org/1999/xlink" viewBox="0 0 80.3125 51.582">
 <g>
  <rect height="51.582" opacity="0" width="80.3125" x="0" y="0"/>
  <path d="M55.8008 6.89453L55.8008 13.5156L40.2734 13.5156C36.2109 13.5156 34.1797 15.4688 34.1797 19.6094L34.1797 38.9453C34.1797 39.1001 34.1825 39.2519 34.1939 39.3945L5.23438 39.3945C4.14062 39.3945 3.45703 38.7109 3.45703 37.6172L3.45703 6.89453C3.45703 5.80078 4.14062 5.11719 5.23438 5.11719L54.0234 5.11719C55.1172 5.11719 55.8008 5.80078 55.8008 6.89453Z" fill="black" fill-opacity="0.2125"/>
  <path d="M59.2578 6.81641L59.2578 13.5156L55.8008 13.5156L55.8008 6.89453C55.8008 5.80078 55.1172 5.11719 54.0234 5.11719L5.23438 5.11719C4.14062 5.11719 3.45703 5.80078 3.45703 6.89453L3.45703 37.6172C3.45703 38.7109 4.14062 39.3945 5.23438 39.3945L34.1939 39.3945C34.2936 42.1606 35.3763 43.8809 37.4414 44.6217L37.4414 48.1055L37.6953 48.1055C38.6523 48.1055 39.4336 48.8867 39.4336 49.8633C39.4336 50.8203 38.6523 51.582 37.6953 51.582L21.5625 51.582C20.6055 51.582 19.8242 50.8203 19.8242 49.8633C19.8242 48.8867 20.6055 48.1055 21.5625 48.1055L21.8164 48.1055L21.8164 42.8516L5.15625 42.8516C1.95312 42.8516 0 40.8984 0 37.6953L0 6.81641C0 3.61328 1.95312 1.66016 5.15625 1.66016L54.1016 1.66016C57.3047 1.66016 59.2578 3.61328 59.2578 6.81641Z" fill="black" fill-opacity="0.85"/>
  <path d="M37.6367 38.8867L37.6367 19.6875C37.6367 17.7734 38.4961 16.9727 40.3516 16.9727L73.7695 16.9727C75.625 16.9727 76.4844 17.7734 76.4844 19.6875L76.4844 38.8867C76.4844 40.7812 75.625 41.6016 73.7695 41.6016L40.3516 41.6016C38.4961 41.6016 37.6367 40.7812 37.6367 38.8867Z" fill="black" fill-opacity="0.2125"/>
  <path d="M34.1797 38.9453C34.1797 43.0859 36.2109 45.0586 40.2734 45.0586L73.8281 45.0586C77.8906 45.0586 79.9414 43.0859 79.9414 38.9453L79.9414 19.6094C79.9414 15.4688 77.8906 13.5156 73.8281 13.5156L40.2734 13.5156C36.2109 13.5156 34.1797 15.4688 34.1797 19.6094ZM37.6367 38.8867L37.6367 19.6875C37.6367 17.7734 38.4961 16.9727 40.3516 16.9727L73.7695 16.9727C75.625 16.9727 76.4844 17.7734 76.4844 19.6875L76.4844 38.8867C76.4844 40.7812 75.625 41.6016 73.7695 41.6016L40.3516 41.6016C38.4961 41.6016 37.6367 40.7812 37.6367 38.8867ZM50.5273 49.082L63.5742 49.082L63.5742 43.0273L50.5273 43.0273ZM50.293 51.582L63.8281 51.582C64.7852 51.582 65.5664 50.8203 65.5664 49.8633C65.5664 48.8867 64.7852 48.1055 63.8281 48.1055L50.293 48.1055C49.3164 48.1055 48.5352 48.8867 48.5352 49.8633C48.5352 50.8203 49.3164 51.582 50.293 51.582Z" fill="black" fill-opacity="0.85"/>
 </g>
</svg>
