<?xml version="1.0" encoding="UTF-8"?>
<!--Generator: Apple Native CoreSVG 326-->
<!DOCTYPE svg
PUBLIC "-//W3C//DTD SVG 1.1//EN"
       "http://www.w3.org/Graphics/SVG/1.1/DTD/svg11.dtd">
<svg version="1.1" xmlns="http://www.w3.org/2000/svg" xmlns:xlink="http://www.w3.org/1999/xlink" viewBox="0 0 59.1406 46.1523">
 <g>
  <rect height="46.1523" opacity="0" width="59.1406" x="0" y="0"/>
  <path d="M10.9766 32.1484L47.793 32.1484C51.1523 32.1484 53.0273 30.293 53.0273 26.9727L53.0273 19.1406C53.0273 15.8398 51.1523 13.9844 47.793 13.9844L10.9766 13.9844C7.61719 13.9844 5.74219 15.8398 5.74219 19.1406L5.74219 26.9727C5.74219 30.293 7.61719 32.1484 10.9766 32.1484Z" fill="black" fill-opacity="0.85"/>
  <path d="M1.50391 3.18359L57.2461 3.18359C58.1055 3.18359 58.7695 2.44141 58.7695 1.60156C58.7695 0.742188 58.1055 0 57.2461 0L1.50391 0C0.664062 0 0 0.742188 0 1.60156C0 2.44141 0.664062 3.18359 1.50391 3.18359ZM1.50391 42.9297C0.664062 42.9297 0 43.6719 0 44.5312C0 45.3711 0.664062 46.1133 1.50391 46.1133L57.2461 46.1133C58.1055 46.1133 58.7695 45.3711 58.7695 44.5312C58.7695 43.6719 58.1055 42.9297 57.2461 42.9297Z" fill="black" fill-opacity="0.85"/>
 </g>
</svg>
