<?xml version="1.0" encoding="UTF-8"?>
<!--Generator: Apple Native CoreSVG 326-->
<!DOCTYPE svg
PUBLIC "-//W3C//DTD SVG 1.1//EN"
       "http://www.w3.org/Graphics/SVG/1.1/DTD/svg11.dtd">
<svg version="1.1" xmlns="http://www.w3.org/2000/svg" xmlns:xlink="http://www.w3.org/1999/xlink" viewBox="0 0 46.4844 57.2852">
 <g>
  <rect height="57.2852" opacity="0" width="46.4844" x="0" y="0"/>
  <path d="M13.9648 10.2344L13.9648 47.0508C13.9648 50.4102 15.8203 52.2852 19.1406 52.2852L26.9727 52.2852C30.2734 52.2852 32.1289 50.4102 32.1289 47.0508L32.1289 10.2344C32.1289 6.875 30.2734 5 26.9727 5L19.1406 5C15.8203 5 13.9648 6.875 13.9648 10.2344Z" fill="black" fill-opacity="0.85"/>
  <path d="M42.9297 1.50391L42.9297 55.7812C42.9297 56.6211 43.6719 57.2852 44.5117 57.2852C45.3711 57.2852 46.1133 56.6211 46.1133 55.7812L46.1133 1.50391C46.1133 0.664062 45.3711 0 44.5117 0C43.6719 0 42.9297 0.664062 42.9297 1.50391ZM3.18359 1.50391C3.18359 0.664062 2.44141 0 1.60156 0C0.742188 0 0 0.664062 0 1.50391L0 55.7812C0 56.6211 0.742188 57.2852 1.60156 57.2852C2.44141 57.2852 3.18359 56.6211 3.18359 55.7812Z" fill="black" fill-opacity="0.85"/>
 </g>
</svg>
