<?xml version="1.0" encoding="UTF-8"?>
<!--Generator: Apple Native CoreSVG 326-->
<!DOCTYPE svg
PUBLIC "-//W3C//DTD SVG 1.1//EN"
       "http://www.w3.org/Graphics/SVG/1.1/DTD/svg11.dtd">
<svg version="1.1" xmlns="http://www.w3.org/2000/svg" xmlns:xlink="http://www.w3.org/1999/xlink" viewBox="0 0 51.25 50.918">
 <g>
  <rect height="50.918" opacity="0" width="51.25" x="0" y="0"/>
  <path d="M25.4297 50.8789C39.4727 50.8789 50.8789 39.4922 50.8789 25.4492C50.8789 11.4062 39.4727 0 25.4297 0C11.3867 0 0 11.4062 0 25.4492C0 39.4922 11.3867 50.8789 25.4297 50.8789ZM25.4297 47.2461C13.3789 47.2461 3.63281 37.5 3.63281 25.4492C3.63281 13.3984 13.3789 3.65234 25.4297 3.65234C37.4805 3.65234 47.2266 13.3984 47.2266 25.4492C47.2266 37.5 37.4805 47.2461 25.4297 47.2461Z" fill="black" fill-opacity="0.85"/>
  <path d="M25.3711 18.8477C26.9531 18.8477 28.125 17.7734 28.125 16.3672C28.125 14.8047 26.9922 13.6914 25.3711 13.6914C23.8867 13.6914 22.7148 14.8242 22.7148 16.3867C22.7148 17.793 23.8867 18.8477 25.3711 18.8477ZM15.2344 27.2656L35.6055 27.2656C36.7969 27.2656 37.5977 26.6406 37.5977 25.4883C37.5977 24.3359 36.8359 23.6914 35.6055 23.6914L15.2344 23.6914C14.0039 23.6914 13.2227 24.3359 13.2227 25.4883C13.2227 26.6406 14.043 27.2656 15.2344 27.2656ZM25.3711 37.2656C26.9531 37.2656 28.125 36.1523 28.125 34.7461C28.125 33.1836 26.9922 32.0898 25.3711 32.0898C23.8867 32.0898 22.7148 33.2031 22.7148 34.7656C22.7148 36.1719 23.8867 37.2656 25.3711 37.2656Z" fill="black" fill-opacity="0.85"/>
 </g>
</svg>
