<?xml version="1.0" encoding="UTF-8"?>
<!--Generator: Apple Native CoreSVG 326-->
<!DOCTYPE svg
PUBLIC "-//W3C//DTD SVG 1.1//EN"
       "http://www.w3.org/Graphics/SVG/1.1/DTD/svg11.dtd">
<svg version="1.1" xmlns="http://www.w3.org/2000/svg" xmlns:xlink="http://www.w3.org/1999/xlink" viewBox="0 0 59.5508 45.918">
 <g>
  <rect height="45.918" opacity="0" width="59.5508" x="0" y="0"/>
  <path d="M7.59766 45.918L51.5625 45.918C56.6211 45.918 59.1797 43.3594 59.1797 38.3984L59.1797 7.53906C59.1797 2.55859 56.6211 0 51.5625 0L7.59766 0C2.55859 0 0 2.53906 0 7.53906L0 38.3984C0 43.3984 2.55859 45.918 7.59766 45.918ZM7.67578 42.4609C4.94141 42.4609 3.45703 41.0156 3.45703 38.2031L3.45703 7.71484C3.45703 4.92188 4.94141 3.45703 7.67578 3.45703L51.5039 3.45703C54.1797 3.45703 55.7031 4.92188 55.7031 7.71484L55.7031 38.2031C55.7031 41.0156 54.1797 42.4609 51.5039 42.4609Z" fill="black" fill-opacity="0.85"/>
  <path d="M10.5469 36.1133C10.5469 37.4414 11.4453 38.3008 12.793 38.3008L46.4453 38.3008C47.793 38.3008 48.6914 37.4414 48.6914 36.1133L48.6914 32.5C48.6914 31.1914 47.793 30.3125 46.4453 30.3125L12.793 30.3125C11.4453 30.3125 10.5469 31.1914 10.5469 32.5Z" fill="black" fill-opacity="0.85"/>
  <path d="M29.6094 8.22266C28.6719 8.22266 27.8906 8.98438 27.8906 9.88281L27.8906 17.9102L28.0273 22.4219L25.1562 19.4531L21.9922 16.2891C21.6797 15.957 21.2305 15.7812 20.8008 15.7812C19.8633 15.7812 19.2188 16.4062 19.2188 17.3047C19.2188 17.832 19.4531 18.2227 19.8438 18.5938L28.3398 26.6211C28.8086 27.0508 29.1406 27.207 29.6094 27.207C30.0586 27.207 30.4102 27.0312 30.8594 26.6211L39.3555 18.5938C39.7461 18.2227 39.9805 17.832 39.9805 17.3047C39.9805 16.4062 39.3164 15.7812 38.3789 15.7812C37.9492 15.7812 37.5391 15.957 37.207 16.2891L34.043 19.4531L31.1719 22.4219L31.3086 17.9102L31.3086 9.88281C31.3086 8.98438 30.5273 8.22266 29.6094 8.22266Z" fill="black" fill-opacity="0.85"/>
 </g>
</svg>
