<?xml version="1.0" encoding="UTF-8"?>
<!--Generator: Apple Native CoreSVG 326-->
<!DOCTYPE svg
PUBLIC "-//W3C//DTD SVG 1.1//EN"
       "http://www.w3.org/Graphics/SVG/1.1/DTD/svg11.dtd">
<svg version="1.1" xmlns="http://www.w3.org/2000/svg" xmlns:xlink="http://www.w3.org/1999/xlink" viewBox="0 0 57.7734 69.1211">
 <g>
  <rect height="69.1211" opacity="0" width="57.7734" x="0" y="0"/>
  <path d="M54.2969 10.6445L54.2969 46.0547C54.2969 51.0938 51.7578 53.6523 46.7578 53.6523L45.1953 53.6523L45.1953 37.9492C45.1953 34.9023 44.707 32.6562 42.0703 29.9805L28.125 15.8398C25.1953 12.8516 23.2031 12.2852 20.1172 12.2852L15.332 12.2852L15.332 10.6445C15.332 5.58594 17.8516 3.04688 22.8516 3.04688L46.7578 3.04688C51.7578 3.04688 54.2969 5.58594 54.2969 10.6445ZM28.8281 8.06641C27.8125 8.06641 27.3242 8.73047 27.3242 9.45312L27.3242 9.94141C27.3242 10.6641 27.8125 11.3281 28.8281 11.3281L40.7812 11.3281C41.8164 11.3281 42.2852 10.6641 42.2852 9.94141L42.2852 9.45312C42.2852 8.73047 41.8164 8.06641 40.7812 8.06641Z" fill="black" fill-opacity="0.85"/>
  <path d="M3.10547 58.3984C3.10547 63.457 5.64453 65.9961 10.6445 65.9961L34.5508 65.9961C39.5508 65.9961 42.0703 63.4375 42.0703 58.3984L42.0703 37.9492L24.6289 37.9492C21.582 37.9492 20.1172 36.4844 20.1172 33.4375L20.1172 15.3906L10.6445 15.3906C5.66406 15.3906 3.10547 17.9688 3.10547 22.9883ZM24.668 34.8242L41.6016 34.8242C41.3672 33.9648 40.8203 33.1445 39.8438 32.1484L25.918 18.0273C24.9414 17.0312 24.1016 16.3477 23.2422 16.1133L23.2422 33.3984C23.2422 34.3555 23.7109 34.8242 24.668 34.8242Z" fill="black" fill-opacity="0.85"/>
 </g>
</svg>
