<?xml version="1.0" encoding="UTF-8"?>
<!--Generator: Apple Native CoreSVG 326-->
<!DOCTYPE svg
PUBLIC "-//W3C//DTD SVG 1.1//EN"
       "http://www.w3.org/Graphics/SVG/1.1/DTD/svg11.dtd">
<svg version="1.1" xmlns="http://www.w3.org/2000/svg" xmlns:xlink="http://www.w3.org/1999/xlink" viewBox="0 0 66.9336 56.2305">
 <g>
  <rect height="56.2305" opacity="0" width="66.9336" x="0" y="0"/>
  <path d="M4.31641 55.8203L9.19922 55.8203C11.9336 55.8203 13.5938 54.0625 13.5938 51.875C13.5938 49.7266 12.4219 48.7109 10.1562 48.5156C9.08203 48.418 9.08203 47.0703 10.0391 46.9727C16.1133 46.1914 19.6484 42.832 20.3711 37.2656C24.0625 39.9609 30.6836 40.4102 36.6992 39.5117C36.6211 43.0664 36.0742 48.418 36.0742 50.9961C36.0742 53.9062 37.9297 55.8203 40.7617 55.8203L44.9609 55.8203C47.6953 55.8203 49.3164 54.0625 49.3164 51.9922C49.3164 50 48.418 49.0039 45.5664 48.5156C45.0391 48.418 44.7461 48.0273 44.8828 47.4609C45.332 44.9414 46.9336 39.3359 47.7539 36.9922C49.4336 32.1289 51.7969 28.6523 51.7969 23.5742C51.7969 20.957 52.5391 19.5703 53.1055 18.8477C55.0977 20.0586 56.582 20.5859 58.418 20.5859C62.5586 20.5859 66.5625 16.2891 66.5625 11.9336C66.5625 9.60938 64.5508 9.41406 61.9922 7.85156C59.8047 6.44531 58.6719 4.72656 56.9727 3.75C56.3281 6.81641 53.9648 11.875 49.7656 11.875C47.1484 11.875 45.2539 9.88281 44.0625 7.67578C42.0508 10.4492 41.3477 12.8711 36.1133 14.7852L14.5312 16.5039C13.9258 16.543 13.4375 16.7188 13.1445 16.8555L11.1914 14.5312C8.32031 11.0938 3.71094 15.0977 6.60156 18.457L8.73047 20.9375C7.71484 23.418 7.1875 26.2305 7.1875 29.7266C7.1875 35.2344 6.77734 36.7383 4.98047 38.1836C1.34766 41.0547 0 43.0664 0 46.4648L0 51.3477C0 54.0039 1.77734 55.8203 4.31641 55.8203ZM58.2617 12.2266C57.3828 12.2266 56.7188 11.5625 56.7188 10.7031C56.7188 9.82422 57.3828 9.17969 58.2617 9.17969C59.1016 9.17969 59.7656 9.82422 59.7656 10.7031C59.7656 11.5625 59.1016 12.2266 58.2617 12.2266ZM49.7656 9.80469C53.2227 9.80469 55.0586 3.82812 55.0586 2.22656C55.0586 0.761719 54.2969 0 52.832 0L46.6992 0C45.2539 0 44.4727 0.761719 44.4727 2.22656C44.4727 3.82812 46.2891 9.80469 49.7656 9.80469Z" fill="black" fill-opacity="0.85"/>
 </g>
</svg>
