<?xml version="1.0" encoding="UTF-8"?>
<!--Generator: Apple Native CoreSVG 326-->
<!DOCTYPE svg
PUBLIC "-//W3C//DTD SVG 1.1//EN"
       "http://www.w3.org/Graphics/SVG/1.1/DTD/svg11.dtd">
<svg version="1.1" xmlns="http://www.w3.org/2000/svg" xmlns:xlink="http://www.w3.org/1999/xlink" viewBox="0 0 60.961 50.918">
 <g>
  <rect height="50.918" opacity="0" width="60.961" x="0" y="0"/>
  <path d="M30.295 50.8789C44.3379 50.8789 55.7246 39.4922 55.7246 25.4492C55.7246 11.4062 44.3379 0 30.295 0C16.252 0 4.86526 11.4062 4.86526 25.4492L8.49808 25.4492C8.49808 13.3984 18.2442 3.65234 30.295 3.65234C42.3457 3.65234 52.0918 13.3984 52.0918 25.4492C52.0918 37.5 42.3457 47.2461 30.295 47.2461C22.834 47.2461 16.1739 43.457 12.3653 37.7539C11.7207 36.875 10.7051 36.6016 9.80667 37.1484C8.94729 37.6562 8.69339 38.8477 9.39651 39.8047C13.9473 46.5039 21.6426 50.8789 30.295 50.8789ZM1.60354 20.7227C0.00198146 20.7227-0.447237 21.8164 0.470731 23.0859L6.01761 30.9766C6.75979 32.0508 7.83401 32.0312 8.55667 30.9766L14.1035 23.0664C14.9825 21.8164 14.5528 20.7227 12.9707 20.7227Z" fill="black" fill-opacity="0.85"/>
  <path d="M30.334 36.3086C34.4942 36.3086 38.2637 34.375 38.2637 30.1562C38.2637 26.4844 35.295 25.0391 31.8575 24.2383L29.4746 23.6719C27.3067 23.1641 25.2559 22.2266 25.2559 20.0586C25.2559 17.5586 27.9317 16.4648 30.334 16.4648C32.8731 16.4648 34.7676 17.5781 35.4121 19.7852C35.627 20.4688 36.0567 20.8008 36.6621 20.8008C37.2481 20.8008 37.8731 20.4297 37.8731 19.668C37.8731 16.582 33.9668 14.2383 30.334 14.2383C26.4082 14.2383 22.7559 16.4258 22.7559 20.2344C22.7559 23.8672 25.8614 25.2734 28.9278 26.0156L31.3301 26.582C33.6543 27.1289 35.7637 27.9688 35.7637 30.3516C35.7637 33.1641 33.0489 34.1211 30.3731 34.1211C27.5996 34.1211 25.5879 33.125 24.7871 30.625C24.5332 29.9414 24.1426 29.668 23.5371 29.668C22.8731 29.668 22.3457 30.0977 22.3457 30.8203C22.3457 31.0547 22.3848 31.3086 22.4629 31.5625C23.3809 34.8828 27.0137 36.3086 30.334 36.3086ZM30.295 39.3164C30.7051 39.3164 31.0567 38.9844 31.0567 38.5547L31.0567 12.1094C31.0567 11.6797 30.7051 11.3477 30.295 11.3477C29.8848 11.3477 29.5332 11.6797 29.5332 12.1094L29.5332 38.5547C29.5332 38.9844 29.8848 39.3164 30.295 39.3164Z" fill="black" fill-opacity="0.85"/>
 </g>
</svg>
