<?xml version="1.0" encoding="UTF-8"?>
<!--Generator: Apple Native CoreSVG 326-->
<!DOCTYPE svg
PUBLIC "-//W3C//DTD SVG 1.1//EN"
       "http://www.w3.org/Graphics/SVG/1.1/DTD/svg11.dtd">
<svg version="1.1" xmlns="http://www.w3.org/2000/svg" xmlns:xlink="http://www.w3.org/1999/xlink" viewBox="0 0 55.5273 53.1055">
 <g>
  <rect height="53.1055" opacity="0" width="55.5273" x="0" y="0"/>
  <path d="M30.5273 0.839844L52.1094 13.3008C52.8906 13.75 53.2422 14.3164 53.2422 14.9609C53.2422 15.8398 52.5781 16.6797 51.3867 16.6797L49.1211 16.6797L49.1211 46.5039L50.7227 46.5039C51.582 46.5039 52.0898 47.0117 52.0898 47.8516L52.0898 49.6094L53.418 49.6094C54.375 49.6094 55.1562 50.3906 55.1562 51.3477C55.1562 52.2852 54.375 53.0664 53.418 53.0664L1.73828 53.0664C0.78125 53.0664 0 52.2852 0 51.3477C0 50.3906 0.78125 49.6094 1.73828 49.6094L3.06641 49.6094L3.06641 47.8516C3.06641 47.0117 3.57422 46.5039 4.45312 46.5039L6.05469 46.5039L6.05469 16.6797L3.76953 16.6797C2.57812 16.6797 1.91406 15.8398 1.91406 14.9609C1.91406 14.3164 2.24609 13.75 3.04688 13.3008L24.6289 0.839844C25.5664 0.292969 26.6016 0 27.5781 0C28.5547 0 29.5703 0.292969 30.5273 0.839844ZM26.8164 14.9805L26.8164 17.207C23.1055 17.5 19.8633 19.6875 19.8633 23.3398C19.8633 27.0508 23.0273 28.4961 26.1914 29.2383L26.8164 29.4141L26.8164 37.5195C24.4336 37.3242 22.6562 36.25 21.9531 33.9844C21.6797 33.2812 21.2891 32.9688 20.6641 32.9688C19.9805 32.9688 19.4336 33.4375 19.4336 34.1797C19.4336 34.4141 19.4922 34.668 19.5508 34.9414C20.4297 38.0664 23.6523 39.5703 26.8164 39.7852L26.8164 42.1094C26.8164 42.5195 27.1484 42.8906 27.5977 42.8906C28.0273 42.8906 28.3789 42.5195 28.3789 42.1094L28.3789 39.7852C32.3242 39.5703 35.7422 37.5781 35.7422 33.4766C35.7422 29.707 32.6953 28.2422 29.1992 27.4023L28.3789 27.2266L28.3789 19.4922C30.5664 19.6875 32.2266 20.8203 32.8125 22.8516C33.0469 23.5547 33.4766 23.9258 34.1016 23.9258C34.707 23.9258 35.3516 23.5352 35.3516 22.7344C35.3516 19.7852 31.8945 17.5 28.3789 17.207L28.3789 14.9805C28.3789 14.5703 28.0273 14.1992 27.5977 14.1992C27.1484 14.1992 26.8164 14.5703 26.8164 14.9805ZM28.7305 29.8438C31.0547 30.4297 33.1836 31.2891 33.1836 33.6719C33.1836 36.3281 30.8594 37.3633 28.3789 37.5391L28.3789 29.7656ZM26.8164 26.8555L26.582 26.7969C24.4336 26.2891 22.4414 25.332 22.4414 23.1445C22.4414 20.8789 24.5898 19.7266 26.8164 19.4922Z" fill="black" fill-opacity="0.85"/>
 </g>
</svg>
