<?xml version="1.0" encoding="UTF-8"?>
<!--Generator: Apple Native CoreSVG 326-->
<!DOCTYPE svg
PUBLIC "-//W3C//DTD SVG 1.1//EN"
       "http://www.w3.org/Graphics/SVG/1.1/DTD/svg11.dtd">
<svg version="1.1" xmlns="http://www.w3.org/2000/svg" xmlns:xlink="http://www.w3.org/1999/xlink" viewBox="0 0 60.4102 49.8382">
 <g>
  <rect height="49.8382" opacity="0" width="60.4102" x="0" y="0"/>
  <path d="M60.0391 29.9093C60.0391 14.1867 47.9492 1.29605 32.5977 0.00698344C31.7969-0.0711416 31.1719 0.514796 31.1719 1.33511L31.1719 9.32339C31.1719 9.98745 31.6602 10.5148 32.3438 10.5734C41.9727 11.7453 49.4531 19.9484 49.4531 29.9093C49.4531 34.4406 47.9102 38.6007 45.1758 42.0382C44.8047 42.507 44.8242 43.0929 45.2344 43.5031L51.0352 49.3039C51.6211 49.8703 52.4609 49.8703 52.9688 49.2453C57.3828 44.0109 60.0391 37.2531 60.0391 29.9093Z" fill="black" fill-opacity="0.85"/>
  <path d="M0 29.9093C0 37.2726 2.65625 44.05 7.08984 49.2843C7.57812 49.8703 8.39844 49.8703 8.98438 49.3039L14.7852 43.5031C15.1953 43.0929 15.2148 42.507 14.8438 42.0382C12.1094 38.6007 10.5664 34.4406 10.5664 29.9093C10.5664 19.9484 18.0664 11.7453 27.6758 10.5734C28.3789 10.5148 28.8477 9.98745 28.8477 9.32339L28.8477 1.33511C28.8477 0.514796 28.2422-0.0711416 27.4414 0.00698344C12.0703 1.29605 0 14.1867 0 29.9093Z" fill="black" fill-opacity="0.85"/>
  <path d="M30.0195 41.1007C34.1797 41.1007 37.9492 39.1671 37.9492 34.9484C37.9492 31.2765 34.9805 29.8312 31.5625 29.0304L29.1602 28.464C26.9922 27.9562 24.9609 27.0187 24.9609 24.8507C24.9609 22.3507 27.6172 21.2375 30.0195 21.2375C32.5781 21.2375 34.4727 22.3703 35.0977 24.5578C35.3125 25.2414 35.7422 25.5929 36.3477 25.5929C36.9336 25.5929 37.5586 25.2218 37.5586 24.4406C37.5586 21.3742 33.6523 19.0304 30.0195 19.0304C26.0938 19.0304 22.4609 21.2179 22.4609 25.0265C22.4609 28.6398 25.5469 30.0656 28.6328 30.7882L31.0352 31.3546C33.3398 31.921 35.4688 32.7609 35.4688 35.1437C35.4688 37.9562 32.7539 38.9132 30.0781 38.9132C27.3047 38.9132 25.2734 37.9171 24.4727 35.4171C24.2188 34.7335 23.8281 34.4406 23.2422 34.4406C22.5781 34.4406 22.0312 34.8898 22.0312 35.6125C22.0312 35.8273 22.0898 36.0812 22.168 36.3546C23.0859 39.675 26.6992 41.1007 30.0195 41.1007ZM30 44.1085C30.4102 44.1085 30.7617 43.757 30.7617 43.3468L30.7617 16.882C30.7617 16.4718 30.4102 16.1203 30 16.1203C29.5703 16.1203 29.2383 16.4718 29.2383 16.882L29.2383 43.3468C29.2383 43.757 29.5703 44.1085 30 44.1085Z" fill="black" fill-opacity="0.85"/>
 </g>
</svg>
