<?xml version="1.0" encoding="UTF-8"?>
<!--Generator: Apple Native CoreSVG 326-->
<!DOCTYPE svg
PUBLIC "-//W3C//DTD SVG 1.1//EN"
       "http://www.w3.org/Graphics/SVG/1.1/DTD/svg11.dtd">
<svg version="1.1" xmlns="http://www.w3.org/2000/svg" xmlns:xlink="http://www.w3.org/1999/xlink" viewBox="0 0 46.2891 45.918">
 <g>
  <rect height="45.918" opacity="0" width="46.2891" x="0" y="0"/>
  <path d="M7.59766 45.918L38.3008 45.918C43.3594 45.918 45.918 43.3594 45.918 38.3984L45.918 7.53906C45.918 2.55859 43.3594 0 38.3008 0L7.59766 0C2.55859 0 0 2.53906 0 7.53906L0 38.3984C0 43.3984 2.55859 45.918 7.59766 45.918ZM7.67578 42.4609C4.94141 42.4609 3.45703 41.0156 3.45703 38.2031L3.45703 7.71484C3.45703 4.92188 4.94141 3.45703 7.67578 3.45703L38.2422 3.45703C40.918 3.45703 42.4609 4.92188 42.4609 7.71484L42.4609 38.2031C42.4609 41.0156 40.918 42.4609 38.2422 42.4609Z" fill="black" fill-opacity="0.85"/>
  <path d="M23.0078 33.8086C27.168 33.8086 30.918 31.875 30.918 27.6562C30.918 23.9844 27.9688 22.5391 24.5312 21.7383L22.1484 21.1719C19.9805 20.6641 17.9297 19.7266 17.9297 17.5586C17.9297 15.0586 20.6055 13.9648 23.0078 13.9648C25.5469 13.9648 27.4414 15.0781 28.0664 17.2852C28.3008 17.9688 28.7305 18.3008 29.3359 18.3008C29.9219 18.3008 30.5469 17.9297 30.5469 17.168C30.5469 14.082 26.6211 11.7383 23.0078 11.7383C19.082 11.7383 15.4297 13.9258 15.4297 17.7344C15.4297 21.3672 18.5156 22.7734 21.6016 23.5156L24.0039 24.082C26.3281 24.6289 28.4375 25.4688 28.4375 27.8516C28.4375 30.6641 25.7227 31.6211 23.0469 31.6211C20.2734 31.6211 18.2617 30.625 17.4609 28.125C17.1875 27.4414 16.8164 27.168 16.2109 27.168C15.5469 27.168 15.0195 27.5977 15.0195 28.3203C15.0195 28.5547 15.0586 28.8086 15.1367 29.0625C16.0547 32.3828 19.6875 33.8086 23.0078 33.8086ZM22.9688 36.8164C23.3789 36.8164 23.7305 36.4844 23.7305 36.0547L23.7305 9.60938C23.7305 9.17969 23.3789 8.84766 22.9688 8.84766C22.5586 8.84766 22.207 9.17969 22.207 9.60938L22.207 36.0547C22.207 36.4844 22.5586 36.8164 22.9688 36.8164Z" fill="black" fill-opacity="0.85"/>
 </g>
</svg>
