<?xml version="1.0" encoding="UTF-8"?>
<!--Generator: Apple Native CoreSVG 326-->
<!DOCTYPE svg
PUBLIC "-//W3C//DTD SVG 1.1//EN"
       "http://www.w3.org/Graphics/SVG/1.1/DTD/svg11.dtd">
<svg version="1.1" xmlns="http://www.w3.org/2000/svg" xmlns:xlink="http://www.w3.org/1999/xlink" viewBox="0 0 46.2891 45.918">
 <g>
  <rect height="45.918" opacity="0" width="46.2891" x="0" y="0"/>
  <path d="M45.918 7.53906L45.918 38.3984C45.918 43.3594 43.3594 45.918 38.3008 45.918L7.59766 45.918C2.55859 45.918 0 43.3984 0 38.3984L0 7.53906C0 2.53906 2.55859 0 7.59766 0L38.3008 0C43.3594 0 45.918 2.55859 45.918 7.53906ZM22.1875 9.25781L22.1875 11.4844C18.4766 11.7773 15.2344 13.9844 15.2344 17.6172C15.2344 21.3477 18.3984 22.7734 21.5625 23.5352L22.1875 23.6914L22.1875 31.7969C19.8047 31.6211 18.0469 30.5469 17.3438 28.2812C17.0508 27.5586 16.6602 27.2656 16.0547 27.2656C15.3711 27.2656 14.8242 27.7148 14.8242 28.4766C14.8242 28.7109 14.8633 28.9648 14.9414 29.2188C15.8008 32.3633 19.0234 33.8477 22.1875 34.0625L22.1875 36.3867C22.1875 36.8164 22.5391 37.168 22.9688 37.168C23.3984 37.168 23.75 36.8164 23.75 36.3867L23.75 34.0625C27.7148 33.8477 31.1328 31.8555 31.1328 27.7734C31.1328 24.0039 28.0859 22.5195 24.5703 21.6992L23.75 21.5039L23.75 13.7891C25.957 13.9648 27.6172 15.0977 28.2031 17.1484C28.418 17.8516 28.8672 18.2031 29.4922 18.2031C30.0977 18.2031 30.7422 17.8125 30.7422 17.0312C30.7422 14.082 27.2656 11.7773 23.75 11.4844L23.75 9.25781C23.75 8.84766 23.3984 8.49609 22.9688 8.49609C22.5391 8.49609 22.1875 8.84766 22.1875 9.25781ZM24.1016 24.1406C26.4453 24.707 28.5547 25.5664 28.5547 27.9688C28.5547 30.625 26.25 31.6406 23.75 31.8164L23.75 24.0625ZM22.1875 21.1523L21.9727 21.0938C19.8047 20.5664 17.8125 19.6094 17.8125 17.4219C17.8125 15.1562 19.9805 14.0234 22.1875 13.7891Z" fill="black" fill-opacity="0.85"/>
 </g>
</svg>
