<?xml version="1.0" encoding="UTF-8"?>
<!--Generator: Apple Native CoreSVG 326-->
<!DOCTYPE svg
PUBLIC "-//W3C//DTD SVG 1.1//EN"
       "http://www.w3.org/Graphics/SVG/1.1/DTD/svg11.dtd">
<svg version="1.1" xmlns="http://www.w3.org/2000/svg" xmlns:xlink="http://www.w3.org/1999/xlink" viewBox="0 0 46.2891 45.918">
 <g>
  <rect height="45.918" opacity="0" width="46.2891" x="0" y="0"/>
  <path d="M7.59766 45.918L38.3008 45.918C43.3594 45.918 45.918 43.3594 45.918 38.3984L45.918 7.53906C45.918 2.55859 43.3594 0 38.3008 0L7.59766 0C2.55859 0 0 2.53906 0 7.53906L0 38.3984C0 43.3984 2.55859 45.918 7.59766 45.918ZM7.67578 42.4609C4.94141 42.4609 3.45703 41.0156 3.45703 38.2031L3.45703 7.71484C3.45703 4.92188 4.94141 3.45703 7.67578 3.45703L38.2422 3.45703C40.918 3.45703 42.4609 4.92188 42.4609 7.71484L42.4609 38.2031C42.4609 41.0156 40.918 42.4609 38.2422 42.4609Z" fill="black" fill-opacity="0.85"/>
  <path d="M21.2891 31.1914C23.4766 31.1914 25.4883 30.293 26.5234 28.1836L26.6016 28.1836L26.6016 30.2148C26.6016 30.8984 27.1289 31.4258 27.8125 31.4258C28.5156 31.4258 29.0234 30.8984 29.0234 30.2148L29.0234 14.1992L30.957 14.1992C31.3672 14.1992 31.7188 13.8477 31.7188 13.4375C31.7188 13.0273 31.3672 12.6953 30.957 12.6953L29.0234 12.6953L29.0234 11.5234C29.0234 10.7617 28.5352 10.2539 27.7734 10.2539C27.0117 10.2539 26.5234 10.7617 26.5234 11.5234L26.5234 12.6953L21.6797 12.6953C21.25 12.6953 20.918 13.0273 20.918 13.4375C20.918 13.8672 21.25 14.1992 21.6797 14.1992L26.5234 14.1992L26.5234 19.5508L26.4062 19.5508C25.5273 17.5586 23.5156 16.582 21.2891 16.582C17.6172 16.582 14.6484 19.4531 14.6484 23.8672C14.6484 28.0469 17.3828 31.1914 21.2891 31.1914ZM21.9141 29.0234C18.9648 29.0234 17.207 26.7578 17.207 23.8672C17.207 20.8594 19.1406 18.7305 21.9141 18.7305C24.7852 18.7305 26.5234 21.0938 26.5234 23.8672C26.5234 26.8164 24.6094 29.0234 21.9141 29.0234ZM15.8789 33.8672C15.8789 34.3164 16.25 34.6484 16.6797 34.6484L28.9648 34.6484C29.3945 34.6484 29.7656 34.3164 29.7656 33.8672C29.7656 33.4375 29.3945 33.0859 28.9648 33.0859L16.6797 33.0859C16.25 33.0859 15.8789 33.4375 15.8789 33.8672Z" fill="black" fill-opacity="0.85"/>
 </g>
</svg>
