<?xml version="1.0" encoding="UTF-8"?>
<!--Generator: Apple Native CoreSVG 326-->
<!DOCTYPE svg
PUBLIC "-//W3C//DTD SVG 1.1//EN"
       "http://www.w3.org/Graphics/SVG/1.1/DTD/svg11.dtd">
<svg version="1.1" xmlns="http://www.w3.org/2000/svg" xmlns:xlink="http://www.w3.org/1999/xlink" viewBox="0 0 60.4102 50.0586">
 <g>
  <rect height="50.0586" opacity="0" width="60.4102" x="0" y="0"/>
  <path d="M60.0391 30.0195C60.0391 22.6562 57.3828 15.918 52.9688 10.6836C52.4609 10.0781 51.6016 10.0977 51.0352 10.6641L45.3906 16.3086C44.9023 16.7969 44.8828 17.4805 45.3125 18.0273C47.9102 21.3477 49.4531 25.4883 49.4531 30.0195C49.4531 34.5508 47.9102 38.7109 45.1953 42.1484C44.8242 42.6172 44.8438 43.2031 45.2539 43.6133L51.0352 49.4141C51.6016 50 52.4414 49.9805 52.9688 49.375C57.3828 44.1406 60.0391 37.3633 60.0391 30.0195Z" fill="black" fill-opacity="0.85"/>
  <path d="M30.0195 10.5664C34.5508 10.5664 38.7305 12.1289 42.0508 14.7656C42.5781 15.1562 43.2227 15.1172 43.7109 14.6289L49.375 8.96484C49.9609 8.39844 49.9414 7.55859 49.3359 7.03125C44.1211 2.65625 37.3633 0 30.0195 0C22.6758 0 15.918 2.65625 10.7031 7.03125C10.0977 7.55859 10.0781 8.39844 10.6445 8.96484L16.3281 14.6289C16.7969 15.1172 17.5 15.1367 18.0469 14.707C21.3477 12.1289 25.5078 10.5664 30.0195 10.5664Z" fill="black" fill-opacity="0.85"/>
  <path d="M0 30.0195C0 37.3633 2.65625 44.1406 7.07031 49.375C7.57812 49.9805 8.4375 50 9.00391 49.4141L14.7852 43.6133C15.1758 43.2031 15.2148 42.6172 14.8438 42.1484C12.1289 38.7109 10.5664 34.5508 10.5664 30.0195C10.5664 25.4883 12.1094 21.3477 14.7266 18.0273C15.1367 17.4805 15.1367 16.7969 14.6484 16.3086L8.98438 10.6641C8.41797 10.0977 7.57812 10.0781 7.05078 10.6836C2.63672 15.918 0 22.6562 0 30.0195Z" fill="black" fill-opacity="0.85"/>
  <path d="M28.3203 38.5742C30.4883 38.5742 32.5195 37.6758 33.5352 35.5859L33.6328 35.5859L33.6328 37.6172C33.6328 38.3008 34.1602 38.8281 34.8438 38.8281C35.5273 38.8281 36.0352 38.3008 36.0352 37.6172L36.0352 21.6016L37.9688 21.6016C38.3984 21.6016 38.7305 21.25 38.7305 20.8398C38.7305 20.4297 38.3984 20.0977 37.9688 20.0977L36.0352 20.0977L36.0352 18.9258C36.0352 18.1445 35.5664 17.6562 34.8047 17.6562C34.0234 17.6562 33.5547 18.1445 33.5547 18.9258L33.5547 20.0977L28.6914 20.0977C28.2812 20.0977 27.9297 20.4297 27.9297 20.8398C27.9297 21.2695 28.2812 21.6016 28.6914 21.6016L33.5547 21.6016L33.5547 26.9531L33.4375 26.9531C32.5391 24.9414 30.5273 23.9844 28.3203 23.9844C24.6289 23.9844 21.6602 26.8555 21.6602 31.2695C21.6602 35.4492 24.4141 38.5742 28.3203 38.5742ZM28.9453 36.4258C25.9961 36.4258 24.2188 34.1602 24.2188 31.2695C24.2188 28.2422 26.1523 26.1133 28.9453 26.1133C31.8164 26.1133 33.5547 28.4961 33.5547 31.2695C33.5547 34.2188 31.6406 36.4258 28.9453 36.4258ZM22.9102 41.2695C22.9102 41.7188 23.2617 42.0508 23.7109 42.0508L35.9766 42.0508C36.4258 42.0508 36.7773 41.6992 36.7773 41.2695C36.7773 40.8398 36.4258 40.4883 35.9766 40.4883L23.7109 40.4883C23.2617 40.4883 22.9102 40.8398 22.9102 41.2695Z" fill="black" fill-opacity="0.85"/>
 </g>
</svg>
