<?xml version="1.0" encoding="UTF-8"?>
<!--Generator: Apple Native CoreSVG 326-->
<!DOCTYPE svg
PUBLIC "-//W3C//DTD SVG 1.1//EN"
       "http://www.w3.org/Graphics/SVG/1.1/DTD/svg11.dtd">
<svg version="1.1" xmlns="http://www.w3.org/2000/svg" xmlns:xlink="http://www.w3.org/1999/xlink" viewBox="0 0 46.2891 45.918">
 <g>
  <rect height="45.918" opacity="0" width="46.2891" x="0" y="0"/>
  <path d="M45.918 7.53906L45.918 38.3984C45.918 43.3594 43.3594 45.918 38.3008 45.918L7.59766 45.918C2.55859 45.918 0 43.3984 0 38.3984L0 7.53906C0 2.53906 2.55859 0 7.59766 0L38.3008 0C43.3594 0 45.918 2.55859 45.918 7.53906ZM16.5234 33.3594C16.0742 33.3594 15.6836 33.7109 15.6836 34.1602C15.6836 34.6094 16.0742 34.9609 16.5234 34.9609L29.1211 34.9609C29.5508 34.9609 29.9414 34.6094 29.9414 34.1602C29.9414 33.7109 29.5508 33.3594 29.1211 33.3594ZM26.6016 11.25L26.6016 12.4414L21.6406 12.4414C21.1914 12.4414 20.8594 12.793 20.8594 13.2031C20.8594 13.6523 21.1914 14.0039 21.6406 14.0039L26.6016 14.0039L26.6016 19.4727L26.4844 19.4727C25.5859 17.4023 23.5156 16.4258 21.2305 16.4258C17.4805 16.4258 14.4336 19.375 14.4336 23.9062C14.4336 28.1836 17.2266 31.4062 21.2305 31.4062C23.4766 31.4062 25.5664 30.4883 26.6016 28.3398L26.6797 28.3398L26.6797 30.4102C26.6797 31.1133 27.2266 31.6602 27.9297 31.6602C28.6523 31.6602 29.1797 31.1133 29.1797 30.4102L29.1797 14.0039L31.1523 14.0039C31.582 14.0039 31.9336 13.6328 31.9336 13.2031C31.9336 12.793 31.582 12.4414 31.1523 12.4414L29.1797 12.4414L29.1797 11.25C29.1797 10.4492 28.6719 9.94141 27.8906 9.94141C27.1094 9.94141 26.6016 10.4492 26.6016 11.25ZM26.6016 23.9062C26.6016 26.9141 24.668 29.1797 21.875 29.1797C18.8672 29.1797 17.0703 26.8555 17.0703 23.9062C17.0703 20.8203 19.043 18.6523 21.875 18.6523C24.8242 18.6523 26.6016 21.0742 26.6016 23.9062Z" fill="black" fill-opacity="0.85"/>
 </g>
</svg>
