<?xml version="1.0" encoding="UTF-8"?>
<!--Generator: Apple Native CoreSVG 326-->
<!DOCTYPE svg
PUBLIC "-//W3C//DTD SVG 1.1//EN"
       "http://www.w3.org/Graphics/SVG/1.1/DTD/svg11.dtd">
<svg version="1.1" xmlns="http://www.w3.org/2000/svg" xmlns:xlink="http://www.w3.org/1999/xlink" viewBox="0 0 60.4102 49.8382">
 <g>
  <rect height="49.8382" opacity="0" width="60.4102" x="0" y="0"/>
  <path d="M60.0391 29.9093C60.0391 14.1867 47.9492 1.29605 32.5977 0.00698344C31.7969-0.0711416 31.1719 0.514796 31.1719 1.33511L31.1719 9.32339C31.1719 9.98745 31.6602 10.5148 32.3438 10.5734C41.9727 11.7453 49.4531 19.9484 49.4531 29.9093C49.4531 34.4406 47.9102 38.6007 45.1758 42.0382C44.8047 42.507 44.8242 43.0929 45.2344 43.5031L51.0352 49.3039C51.6211 49.8703 52.4609 49.8703 52.9688 49.2453C57.3828 44.0109 60.0391 37.2531 60.0391 29.9093Z" fill="black" fill-opacity="0.85"/>
  <path d="M0 29.9093C0 37.2726 2.65625 44.05 7.08984 49.2843C7.57812 49.8703 8.39844 49.8703 8.98438 49.3039L14.7852 43.5031C15.1953 43.0929 15.2148 42.507 14.8438 42.0382C12.1094 38.6007 10.5664 34.4406 10.5664 29.9093C10.5664 19.9484 18.0664 11.7453 27.6758 10.5734C28.3789 10.5148 28.8477 9.98745 28.8477 9.32339L28.8477 1.33511C28.8477 0.514796 28.2422-0.0711416 27.4414 0.00698344C12.0703 1.29605 0 14.1867 0 29.9093Z" fill="black" fill-opacity="0.85"/>
  <path d="M28.3203 38.464C30.4883 38.464 32.5195 37.5656 33.5352 35.4757L33.6328 35.4757L33.6328 37.507C33.6328 38.1906 34.1602 38.7179 34.8438 38.7179C35.5273 38.7179 36.0352 38.1906 36.0352 37.507L36.0352 21.4914L37.9688 21.4914C38.3984 21.4914 38.7305 21.1398 38.7305 20.7296C38.7305 20.3195 38.3984 19.9875 37.9688 19.9875L36.0352 19.9875L36.0352 18.8156C36.0352 18.0343 35.5664 17.546 34.8047 17.546C34.0234 17.546 33.5547 18.0343 33.5547 18.8156L33.5547 19.9875L28.6914 19.9875C28.2812 19.9875 27.9297 20.3195 27.9297 20.7296C27.9297 21.1593 28.2812 21.4914 28.6914 21.4914L33.5547 21.4914L33.5547 26.8429L33.4375 26.8429C32.5391 24.8312 30.5273 23.8742 28.3203 23.8742C24.6289 23.8742 21.6602 26.7453 21.6602 31.1593C21.6602 35.339 24.4141 38.464 28.3203 38.464ZM28.9453 36.3156C25.9961 36.3156 24.2188 34.05 24.2188 31.1593C24.2188 28.132 26.1523 26.0031 28.9453 26.0031C31.8164 26.0031 33.5547 28.3859 33.5547 31.1593C33.5547 34.1085 31.6406 36.3156 28.9453 36.3156ZM22.9102 41.1593C22.9102 41.6085 23.2617 41.9406 23.7109 41.9406L35.9766 41.9406C36.4258 41.9406 36.7773 41.589 36.7773 41.1593C36.7773 40.7296 36.4258 40.3781 35.9766 40.3781L23.7109 40.3781C23.2617 40.3781 22.9102 40.7296 22.9102 41.1593Z" fill="black" fill-opacity="0.85"/>
 </g>
</svg>
