<?xml version="1.0" encoding="UTF-8"?>
<!--Generator: Apple Native CoreSVG 326-->
<!DOCTYPE svg
PUBLIC "-//W3C//DTD SVG 1.1//EN"
       "http://www.w3.org/Graphics/SVG/1.1/DTD/svg11.dtd">
<svg version="1.1" xmlns="http://www.w3.org/2000/svg" xmlns:xlink="http://www.w3.org/1999/xlink" viewBox="0 0 56.0646 55.7325">
 <g>
  <rect height="55.7325" opacity="0" width="56.0646" x="0" y="0"/>
  <path d="M20.3565 10.669C22.0362 9.92682 23.8331 9.43854 25.7276 9.22369C26.2745 9.1651 26.6651 8.75494 26.6651 8.20807L26.6651 1.07916C26.6651 0.434632 26.1768-0.0536489 25.5323 0.0244761C22.1143 0.297914 18.8917 1.21588 15.9229 2.62213C15.337 2.89557 15.1612 3.55963 15.4737 4.10651L19.0284 10.2393C19.2823 10.7276 19.8292 10.8839 20.3565 10.669Z" fill="black" fill-opacity="0.85"/>
  <path d="M12.7588 16.7042C13.8721 15.2198 15.1807 13.8917 16.6846 12.7589C17.1534 12.4268 17.251 11.8799 16.9776 11.4112L13.4424 5.29791C13.1299 4.73151 12.4659 4.57526 11.919 4.94635C9.18463 6.86041 6.82135 9.22369 4.94635 11.9581C4.57525 12.5049 4.71197 13.1495 5.27838 13.4815L11.4307 16.9971C11.8995 17.2901 12.4268 17.1729 12.7588 16.7042Z" fill="black" fill-opacity="0.85"/>
  <path d="M9.20416 25.7471C9.419 23.8526 9.90729 22.0557 10.6299 20.3956C10.8643 19.8878 10.7081 19.3409 10.2198 19.0674L4.06744 15.5323C3.50104 15.2003 2.8565 15.3956 2.58307 15.9815C1.21588 18.9307 0.29791 22.1339 0.00494129 25.5323C-0.01459 26.1964 0.434629 26.6846 1.07916 26.6846L8.20807 26.6846C8.75494 26.6846 9.14557 26.294 9.20416 25.7471Z" fill="black" fill-opacity="0.85"/>
  <path d="M10.6299 35.3565C9.92682 33.6964 9.43854 31.8799 9.20416 29.9659C9.1651 29.419 8.73541 29.0284 8.20807 29.0284L1.07916 29.0284C0.415098 29.0284-0.0536525 29.5167 0.00494129 30.1612C0.278379 33.5987 1.19635 36.8409 2.6026 39.7901C2.87604 40.376 3.52057 40.5909 4.08697 40.2589L10.2198 36.6846C10.7081 36.4112 10.8838 35.8643 10.6299 35.3565Z" fill="black" fill-opacity="0.85"/>
  <path d="M16.7042 42.9737C15.2198 41.8604 13.8721 40.5518 12.7784 39.0284C12.4463 38.5987 11.8995 38.462 11.4112 38.7549L5.29791 42.2706C4.7315 42.6026 4.57525 43.2471 4.92682 43.794C6.82135 46.5284 9.20416 48.8721 11.9385 50.7862C12.4854 51.1768 13.1495 51.001 13.462 50.4346L16.9776 44.3018C17.251 43.8331 17.1534 43.3057 16.7042 42.9737Z" fill="black" fill-opacity="0.85"/>
  <path d="M25.7276 46.5089C23.8526 46.3135 22.0557 45.8057 20.376 45.0831C19.8682 44.8487 19.3213 45.0245 19.0479 45.4932L15.5128 51.626C15.2003 52.1729 15.376 52.8565 15.962 53.1299C18.9112 54.5167 22.1143 55.4346 25.5128 55.7276C26.1768 55.7667 26.6651 55.2979 26.6651 54.6534L26.6651 47.5245C26.6651 46.9776 26.2745 46.5674 25.7276 46.5089Z" fill="black" fill-opacity="0.85"/>
  <path d="M35.337 45.0831C33.6768 45.8057 31.8799 46.294 29.9659 46.5089C29.419 46.5674 29.0284 46.9776 29.0284 47.5245L29.0284 54.6729C29.0284 55.3174 29.5167 55.7862 30.1612 55.7276C33.5596 55.4542 36.8213 54.5167 39.7706 53.1299C40.3565 52.8565 40.5323 52.1729 40.2198 51.626L36.6651 45.4932C36.3917 45.0245 35.8448 44.8487 35.337 45.0831Z" fill="black" fill-opacity="0.85"/>
  <path d="M42.9542 39.0284C41.8409 40.5128 40.5128 41.8214 39.0088 42.9737C38.5596 43.3057 38.4229 43.8526 38.6963 44.3018L42.251 50.4151C42.5635 50.9815 43.2276 51.1768 43.7745 50.7862C46.5088 48.8721 48.8526 46.5089 50.7667 43.794C51.1378 43.2471 50.962 42.6026 50.4151 42.2706L44.2823 38.7159C43.8135 38.4424 43.2862 38.5792 42.9542 39.0284Z" fill="black" fill-opacity="0.85"/>
  <path d="M46.5088 29.9659C46.294 31.8799 45.8057 33.6964 45.044 35.3565C44.8487 35.8643 45.0049 36.3917 45.4932 36.6651L51.6065 40.2003C52.1924 40.5323 52.837 40.3565 53.1104 39.751C54.4971 36.8018 55.3956 33.5792 55.6885 30.1807C55.7276 29.5167 55.2588 29.0284 54.6143 29.0284L47.5049 29.0284C46.9581 29.0284 46.5479 29.419 46.5088 29.9659Z" fill="black" fill-opacity="0.85"/>
  <path d="M45.044 20.376C45.7667 22.0557 46.294 23.8721 46.4893 25.7471C46.5479 26.294 46.9581 26.6846 47.5049 26.6846L54.6338 26.6846C55.2784 26.6846 55.7276 26.1964 55.6885 25.5518C55.4151 22.1534 54.4971 18.8917 53.1104 15.962C52.837 15.376 52.1729 15.1807 51.6065 15.5128L45.4542 19.087C44.9854 19.3604 44.8487 19.8682 45.044 20.376Z" fill="black" fill-opacity="0.85"/>
  <path d="M39.0088 12.7784C40.5128 13.8917 41.8213 15.2003 42.9542 16.7042C43.2862 17.1534 43.8135 17.2901 44.2823 17.0167L50.3956 13.4815C50.9815 13.1495 51.1378 12.5049 50.7862 11.9581C48.8721 9.22369 46.4893 6.86041 43.7745 4.94635C43.2471 4.57526 42.5635 4.73151 42.251 5.29791L38.7159 11.4112C38.4424 11.8995 38.5596 12.4464 39.0088 12.7784Z" fill="black" fill-opacity="0.85"/>
  <path d="M29.9659 9.22369C31.8799 9.39948 33.6573 9.92682 35.337 10.669C35.8448 10.8839 36.3917 10.7081 36.6651 10.2393L40.2198 4.10651C40.5323 3.55963 40.3174 2.89557 39.7315 2.62213C36.7823 1.23541 33.5792 0.297914 30.1612 0.0244761C29.5167-0.0145864 29.0284 0.434632 29.0284 1.07916L29.0284 8.20807C29.0284 8.75494 29.419 9.1651 29.9659 9.22369Z" fill="black" fill-opacity="0.85"/>
  <path d="M26.1378 36.0987C28.3253 36.0987 30.3565 35.2003 31.3721 33.0909L31.4503 33.0909L31.4503 35.1221C31.4503 35.8057 31.9776 36.3331 32.6807 36.3331C33.3643 36.3331 33.8721 35.8057 33.8721 35.1221L33.8721 19.1065L35.8057 19.1065C36.2159 19.1065 36.5674 18.7549 36.5674 18.3448C36.5674 17.9346 36.2159 17.6026 35.8057 17.6026L33.8721 17.6026L33.8721 16.4307C33.8721 15.669 33.4034 15.1612 32.6417 15.1612C31.8604 15.1612 31.3917 15.669 31.3917 16.4307L31.3917 17.6026L26.5284 17.6026C26.1182 17.6026 25.7667 17.9346 25.7667 18.3448C25.7667 18.7745 26.1182 19.1065 26.5284 19.1065L31.3917 19.1065L31.3917 24.4581L31.2549 24.4581C30.376 22.4659 28.3643 21.4893 26.1378 21.4893C22.4659 21.4893 19.4971 24.3604 19.4971 28.7745C19.4971 32.9542 22.2315 36.0987 26.1378 36.0987ZM26.7628 33.9307C23.8135 33.9307 22.0557 31.6651 22.0557 28.7745C22.0557 25.7667 23.9893 23.6378 26.7628 23.6378C29.6338 23.6378 31.3721 26.001 31.3721 28.7745C31.3721 31.7237 29.4776 33.9307 26.7628 33.9307ZM20.7276 38.7745C20.7276 39.2237 21.0987 39.5557 21.5284 39.5557L33.8135 39.5557C34.2432 39.5557 34.6143 39.2237 34.6143 38.7745C34.6143 38.3448 34.2432 37.9932 33.8135 37.9932L21.5284 37.9932C21.0987 37.9932 20.7276 38.3448 20.7276 38.7745Z" fill="black" fill-opacity="0.85"/>
 </g>
</svg>
