<?xml version="1.0" encoding="UTF-8"?>
<!--Generator: Apple Native CoreSVG 326-->
<!DOCTYPE svg
PUBLIC "-//W3C//DTD SVG 1.1//EN"
       "http://www.w3.org/Graphics/SVG/1.1/DTD/svg11.dtd">
<svg version="1.1" xmlns="http://www.w3.org/2000/svg" xmlns:xlink="http://www.w3.org/1999/xlink" viewBox="0 0 60.6836 52.9102">
 <g>
  <rect height="52.9102" opacity="0" width="60.6836" x="0" y="0"/>
  <path d="M1.73828 52.8711C2.69531 52.8711 3.47656 52.0898 3.47656 51.1328L3.47656 4.80469C3.47656 4.00391 3.98438 3.47656 4.74609 3.47656L55.5664 3.47656C56.3086 3.47656 56.8359 4.00391 56.8359 4.80469L56.8359 51.1328C56.8359 52.0898 57.5977 52.8711 58.5742 52.8711C59.5312 52.8711 60.3125 52.0898 60.3125 51.1328L60.3125 4.57031C60.3125 1.83594 58.4375 0 55.625 0L4.6875 0C1.875 0 0 1.83594 0 4.57031L0 51.1328C0 52.0898 0.761719 52.8711 1.73828 52.8711Z" fill="black" fill-opacity="0.85"/>
  <path d="M6.93359 52.0312L28.0469 52.0312C28.457 52.0312 28.7891 51.6992 28.7891 51.2891L28.7891 6.93359C28.7891 6.52344 28.457 6.19141 28.0469 6.19141L6.93359 6.19141C6.52344 6.19141 6.19141 6.52344 6.19141 6.93359L6.19141 51.2891C6.19141 51.6992 6.52344 52.0312 6.93359 52.0312ZM11.8359 32.8906C11.1523 32.8906 10.6641 32.4023 10.6641 31.7188L10.6641 27.3047C10.6641 26.6211 11.1523 26.1328 11.8359 26.1328C12.5195 26.1328 12.9883 26.6211 12.9883 27.3047L12.9883 31.7188C12.9883 32.4023 12.5195 32.8906 11.8359 32.8906ZM32.2461 52.0312L53.3789 52.0312C53.7891 52.0312 54.1016 51.6992 54.1016 51.2891L54.1016 6.93359C54.1016 6.52344 53.7891 6.19141 53.3789 6.19141L32.2461 6.19141C31.8359 6.19141 31.5039 6.52344 31.5039 6.93359L31.5039 51.2891C31.5039 51.6992 31.8359 52.0312 32.2461 52.0312Z" fill="black" fill-opacity="0.85"/>
 </g>
</svg>
