<?xml version="1.0" encoding="UTF-8"?>
<!--Generator: Apple Native CoreSVG 326-->
<!DOCTYPE svg
PUBLIC "-//W3C//DTD SVG 1.1//EN"
       "http://www.w3.org/Graphics/SVG/1.1/DTD/svg11.dtd">
<svg version="1.1" xmlns="http://www.w3.org/2000/svg" xmlns:xlink="http://www.w3.org/1999/xlink" viewBox="0 0 72.7791 61.043">
 <g>
  <rect height="61.043" opacity="0" width="72.7791" x="0" y="0"/>
  <path d="M54.3974 27.6797L54.3527 28.5653C54.2413 28.6241 54.1324 28.6871 54.0263 28.7539C53.047 28.1141 51.9279 27.8147 50.7556 27.858C50.7643 27.8 50.7646 27.7399 50.7646 27.6797C50.7646 15.6289 41.0185 5.88284 28.9677 5.88284C16.9169 5.88284 7.17082 15.6289 7.17082 27.6797C7.17082 39.75 16.9169 49.4961 28.9677 49.4961C31.8871 49.4961 34.6712 48.9242 37.2091 47.8755L39.5419 50.804C36.3311 52.3049 32.7455 53.1289 28.9677 53.1289C14.9247 53.1289 3.53801 41.7422 3.53801 27.6797C3.53801 13.6367 14.9247 2.25003 28.9677 2.25003C43.0107 2.25003 54.3974 13.6367 54.3974 27.6797Z" fill="black" fill-opacity="0.85"/>
  <path d="M36.6435 27.6797C36.6435 31.918 33.206 35.375 28.9677 35.375C24.7294 35.375 21.2919 31.918 21.2919 27.6797C21.2919 23.461 24.7294 20.0039 28.9677 20.0039C33.206 20.0039 36.6435 23.461 36.6435 27.6797Z" fill="black" fill-opacity="0.85"/>
  <path d="M60.8818 57.0157C68.9091 54.1055 71.5263 47.6602 68.3818 38.9102L67.1513 35.4532C65.9794 32.1914 63.6552 30.7852 61.8778 31.4102C61.4482 31.586 61.331 31.8789 61.4482 32.2696L62.0732 33.9297C62.3271 34.6133 62.0732 35.0625 61.663 35.2188C61.2333 35.375 60.745 35.1602 60.5107 34.4766L60.1005 33.3438C59.4169 31.4492 57.7177 30.6094 56.038 31.2344C55.2568 31.5274 55.0419 31.9375 55.2763 32.6016L56.0966 34.8282C56.3505 35.4727 56.1161 35.961 55.7255 36.0977C55.2763 36.2735 54.788 36.0586 54.5536 35.3946L53.8114 33.3047C53.0107 31.1172 51.3505 30.5703 49.7489 31.1563C49.0458 31.4102 48.7724 31.8985 49.0068 32.5039L50.5497 36.8399C50.8036 37.5235 50.5693 37.9727 50.1786 38.1289C49.7489 38.2852 49.2607 38.0703 49.0068 37.3867L43.9482 23.4219C43.4208 22.0157 42.2099 21.4688 41.0575 21.8985C39.8075 22.3282 39.2607 23.5586 39.7685 24.9258L47.1318 45.1016C47.288 45.5703 47.0536 45.9805 46.7411 46.0782C46.4482 46.1758 46.1161 46.0977 45.7255 45.6875L40.6864 40.2774C39.8857 39.4571 39.1239 39.2813 38.3232 39.5938C37.0341 40.0625 36.5849 41.2149 36.956 42.2891C37.0732 42.6797 37.3075 43.0117 37.5419 43.3047L43.9091 51.3125C48.9872 57.6992 55.0419 59.1446 60.8818 57.0157Z" fill="black" fill-opacity="0.85"/>
 </g>
</svg>
