<?xml version="1.0" encoding="UTF-8"?>
<!--Generator: Apple Native CoreSVG 326-->
<!DOCTYPE svg
PUBLIC "-//W3C//DTD SVG 1.1//EN"
       "http://www.w3.org/Graphics/SVG/1.1/DTD/svg11.dtd">
<svg version="1.1" xmlns="http://www.w3.org/2000/svg" xmlns:xlink="http://www.w3.org/1999/xlink" viewBox="0 0 63.9258 44.7217">
 <g>
  <rect height="44.7217" opacity="0" width="63.9258" x="0" y="0"/>
  <path d="M0 22.3706C0 30.7886 3.22266 38.4448 8.73047 44.1284C9.49219 44.9488 10.5859 44.8706 11.1914 44.187C11.8164 43.523 11.6797 42.5269 10.9375 41.7652C5.95703 36.6089 3.24219 29.7925 3.24219 22.3706C3.24219 14.9488 5.95703 8.11282 10.9375 2.9761C11.6797 2.19485 11.8164 1.21829 11.1914 0.534692C10.5859-0.148902 9.49219-0.227027 8.73047 0.593285C3.22266 6.29641 0 13.9527 0 22.3706ZM63.5547 22.3706C63.5547 13.9527 60.332 6.29641 54.8242 0.593285C54.0625-0.227027 52.9883-0.148902 52.3633 0.534692C51.7578 1.21829 51.875 2.19485 52.6172 2.9761C57.5977 8.11282 60.3125 14.9488 60.3125 22.3706C60.3125 29.7925 57.5977 36.6089 52.6172 41.7652C51.875 42.5269 51.7578 43.523 52.3633 44.187C52.9883 44.8706 54.0625 44.9488 54.8242 44.1284C60.332 38.4448 63.5547 30.7886 63.5547 22.3706Z" fill="black" fill-opacity="0.85"/>
  <path d="M8.78906 22.3706C8.78906 28.3277 10.9961 33.8355 14.8633 37.937C15.625 38.7769 16.7188 38.7964 17.3633 38.0542C18.0078 37.3316 17.832 36.3941 17.1094 35.5933C13.8281 32.0386 12.0312 27.4097 12.0312 22.3706C12.0312 17.3316 13.8281 12.7027 17.1094 9.14797C17.832 8.32766 18.0078 7.39016 17.3633 6.6675C16.7188 5.94485 15.625 5.94485 14.8633 6.78469C10.9961 10.8863 8.78906 16.3941 8.78906 22.3706ZM54.7656 22.3706C54.7656 16.3941 52.5781 10.8863 48.7109 6.78469C47.9492 5.94485 46.8359 5.94485 46.1914 6.6675C45.5469 7.39016 45.7227 8.32766 46.4648 9.14797C49.7266 12.7027 51.5234 17.3316 51.5234 22.3706C51.5234 27.4097 49.7266 32.0386 46.4648 35.5933C45.7227 36.3941 45.5469 37.3316 46.1914 38.0542C46.8359 38.7964 47.9492 38.7769 48.7109 37.937C52.5781 33.8355 54.7656 28.3277 54.7656 22.3706Z" fill="black" fill-opacity="0.85"/>
  <path d="M17.5781 22.3706C17.5781 25.73 18.75 28.8745 20.8203 31.3159C21.5234 32.2144 22.7148 32.2144 23.3789 31.4722C24.0039 30.7495 23.75 29.8706 23.1055 28.9917C21.6211 27.2144 20.8203 24.9097 20.8203 22.3706C20.8203 19.8316 21.6211 17.5073 23.1055 15.73C23.75 14.8706 24.0039 13.9917 23.3789 13.2691C22.7148 12.5269 21.5234 12.5269 20.8203 13.4058C18.75 15.8472 17.5781 18.9917 17.5781 22.3706ZM45.9766 22.3706C45.9766 18.9917 44.8047 15.8472 42.7539 13.4058C42.0312 12.5269 40.8398 12.5269 40.1758 13.2691C39.5508 13.9917 39.8047 14.8706 40.4688 15.73C41.9336 17.5073 42.7344 19.8316 42.7344 22.3706C42.7344 24.9097 41.9336 27.2144 40.4688 28.9917C39.8047 29.8706 39.5508 30.7495 40.1758 31.4722C40.8398 32.2144 42.0312 32.2144 42.7539 31.3159C44.8047 28.8745 45.9766 25.73 45.9766 22.3706Z" fill="black" fill-opacity="0.85"/>
  <path d="M27.3047 22.4292C27.3047 24.7925 29.375 26.8042 31.8164 26.8042C34.2578 26.8042 36.2695 24.7925 36.2695 22.3706C36.2695 19.8902 34.2773 17.8784 31.8164 17.8784C29.3359 17.8784 27.3047 19.9683 27.3047 22.4292Z" fill="black" fill-opacity="0.85"/>
 </g>
</svg>
