<?xml version="1.0" encoding="UTF-8"?>
<!--Generator: Apple Native CoreSVG 326-->
<!DOCTYPE svg
PUBLIC "-//W3C//DTD SVG 1.1//EN"
       "http://www.w3.org/Graphics/SVG/1.1/DTD/svg11.dtd">
<svg version="1.1" xmlns="http://www.w3.org/2000/svg" xmlns:xlink="http://www.w3.org/1999/xlink" viewBox="0 0 59.6289 51.582">
 <g>
  <rect height="51.582" opacity="0" width="59.6289" x="0" y="0"/>
  <path d="M5.15625 42.8516L54.1016 42.8516C57.3047 42.8516 59.2578 40.8984 59.2578 37.6953L59.2578 6.81641C59.2578 3.61328 57.3047 1.66016 54.1016 1.66016L5.15625 1.66016C1.95312 1.66016 0 3.61328 0 6.81641L0 37.6953C0 40.8984 1.95312 42.8516 5.15625 42.8516ZM5.23438 39.3945C4.14062 39.3945 3.45703 38.7109 3.45703 37.6172L3.45703 6.89453C3.45703 5.80078 4.14062 5.11719 5.23438 5.11719L54.0234 5.11719C55.1172 5.11719 55.8008 5.80078 55.8008 6.89453L55.8008 37.6172C55.8008 38.7109 55.1172 39.3945 54.0234 39.3945ZM21.8164 49.082L37.4414 49.082L37.4414 42.5391L21.8164 42.5391ZM21.5625 51.582L37.6953 51.582C38.6523 51.582 39.4336 50.8203 39.4336 49.8633C39.4336 48.8867 38.6523 48.1055 37.6953 48.1055L21.5625 48.1055C20.6055 48.1055 19.8242 48.8867 19.8242 49.8633C19.8242 50.8203 20.6055 51.582 21.5625 51.582Z" fill="black" fill-opacity="0.85"/>
  <path d="M29.6289 32.5586C35.332 32.5586 39.9414 27.9297 39.9414 22.2656C39.9414 16.5625 35.332 11.9141 29.6289 11.9141C23.9648 11.9141 19.3164 16.5625 19.3164 22.2656C19.3164 27.9297 23.9648 32.5586 29.6289 32.5586ZM29.6289 30.4688C25.0586 30.4688 21.4844 26.875 21.4844 22.2656C21.4844 17.6367 25.0586 14.0234 29.6289 14.0234C34.1992 14.0234 37.793 17.6367 37.793 22.2656C37.793 26.875 34.2188 30.4688 29.6289 30.4688ZM29.6094 9.33594C29.082 9.33594 28.6328 9.78516 28.6328 10.3125L28.6328 16.6602C28.6328 17.2461 29.082 17.6758 29.6094 17.6758C30.1758 17.6758 30.6055 17.2266 30.6055 16.6602L30.6055 10.3125C30.6055 9.78516 30.1953 9.33594 29.6094 9.33594ZM35.1953 23.2422L41.543 23.2422C42.0898 23.2422 42.5391 22.793 42.5391 22.2656C42.5391 21.6992 42.0898 21.2695 41.543 21.2695L35.1953 21.2695C34.668 21.2695 34.2188 21.6797 34.2188 22.2656C34.2188 22.793 34.668 23.2422 35.1953 23.2422ZM29.6484 35.1562C30.2148 35.1562 30.625 34.707 30.625 34.1602L30.625 27.8125C30.625 27.2656 30.2344 26.8359 29.6484 26.8359C29.1016 26.8359 28.6719 27.2656 28.6719 27.8125L28.6719 34.1602C28.6719 34.7266 29.1016 35.1562 29.6484 35.1562ZM17.7344 23.2422L24.082 23.2422C24.6289 23.2422 25.0586 22.793 25.0586 22.2656C25.0586 21.6797 24.6289 21.2695 24.082 21.2695L17.7344 21.2695C17.168 21.2695 16.7383 21.6992 16.7383 22.2656C16.7383 22.793 17.1484 23.2422 17.7344 23.2422ZM29.6484 23.8281C30.5273 23.8281 31.2305 23.125 31.2305 22.2461C31.2305 21.3672 30.5273 20.6641 29.6484 20.6641C28.75 20.6641 28.0469 21.3672 28.0469 22.2461C28.0469 23.125 28.75 23.8281 29.6484 23.8281Z" fill="black" fill-opacity="0.85"/>
 </g>
</svg>
