<?xml version="1.0" encoding="UTF-8"?>
<!--Generator: Apple Native CoreSVG 326-->
<!DOCTYPE svg
PUBLIC "-//W3C//DTD SVG 1.1//EN"
       "http://www.w3.org/Graphics/SVG/1.1/DTD/svg11.dtd">
<svg version="1.1" xmlns="http://www.w3.org/2000/svg" xmlns:xlink="http://www.w3.org/1999/xlink" viewBox="0 0 46.2891 45.957">
 <g>
  <rect height="45.957" opacity="0" width="46.2891" x="0" y="0"/>
  <path d="M45.918 1.875L45.918 44.1406C45.918 45.2539 45.1953 45.957 44.1016 45.957L1.81641 45.957C0.722656 45.957 0 45.2539 0 44.1406L0 1.875C0 0.761719 0.722656 0.0585938 1.81641 0.0585938L44.1016 0.0585938C45.1953 0.0585938 45.918 0.761719 45.918 1.875ZM14.9023 23.0078C14.9023 27.4805 18.4961 31.0742 22.9688 31.0742C27.4414 31.0742 31.0547 27.4805 31.0547 23.0078C31.0547 18.5352 27.4414 14.9219 22.9688 14.9219C18.4961 14.9219 14.9023 18.5352 14.9023 23.0078Z" fill="black" fill-opacity="0.85"/>
 </g>
</svg>
