<?xml version="1.0" encoding="UTF-8"?>
<!--Generator: Apple Native CoreSVG 326-->
<!DOCTYPE svg
PUBLIC "-//W3C//DTD SVG 1.1//EN"
       "http://www.w3.org/Graphics/SVG/1.1/DTD/svg11.dtd">
<svg version="1.1" xmlns="http://www.w3.org/2000/svg" xmlns:xlink="http://www.w3.org/1999/xlink" viewBox="0 0 78.1055 56.8164">
 <g>
  <rect height="56.8164" opacity="0" width="78.1055" x="0" y="0"/>
  <path d="M25.4102 32.4414L52.3047 32.4414C54.3164 32.4414 54.9609 30.8789 53.9062 29.0039L45.957 15.0586C45.0586 13.4766 43.7305 12.7539 42.2461 12.7539L35.8203 12.7539C33.8672 12.7539 32.6562 13.4766 31.7578 15.0586L23.8086 29.0039C22.7539 30.8789 23.3984 32.4414 25.4102 32.4414ZM15.2539 51.7578L30.1172 45.3516L27.1875 39.2383L14.1211 44.8828C13.457 45.1758 13.1836 44.8438 13.1836 44.2969L13.1836 40.1172C13.1836 38.7891 12.4219 38.0273 11.0938 38.0273L8.33984 38.0273C7.07031 38.0273 6.30859 38.7891 6.30859 40.1172L6.30859 46.6602C6.30859 51.6602 9.55078 54.2383 15.2539 51.7578ZM7.75391 38.7891L11.6602 38.7891L11.6602 32.0117C11.6602 30.9375 10.8008 30.0195 9.6875 30.0195C8.59375 30.0195 7.75391 30.9375 7.75391 32.0117ZM1.44531 35.4883L18.0078 35.4883C18.8672 35.4883 19.4531 34.7461 19.4531 33.9648C19.4531 33.1836 18.8672 32.4219 18.0078 32.4219L1.44531 32.4219C0.585938 32.4219 0 33.1836 0 33.9648C0 34.7461 0.585938 35.4883 1.44531 35.4883ZM35.4688 56.8164L42.2656 56.8164C43.7109 56.8164 44.5898 55.7227 44.5898 54.2773L44.5898 48.6914L33.1445 48.6914L33.1445 54.2773C33.1445 55.7227 34.0234 56.8164 35.4688 56.8164ZM38.8867 54.3555C37.8711 54.3555 37.0117 53.5352 37.0117 52.4805C37.0117 51.5234 37.8711 50.7031 38.8867 50.7031C39.8828 50.7031 40.7422 51.5234 40.7422 52.4805C40.7422 53.5352 39.8828 54.3555 38.8867 54.3555ZM33.6328 49.7852L44.1016 49.7852C45.6836 49.7852 47.0703 49.3555 47.8125 47.9297L53.4375 37.2461C53.9648 36.2695 53.4961 35.5469 52.5977 35.5469L25.1367 35.5469C24.2383 35.5469 23.7891 36.2695 24.2969 37.2461L29.9219 47.9297C30.6445 49.3164 32.0508 49.7852 33.6328 49.7852ZM24.082 22.9297L27.4219 17.0703L24.7852 15.4102C24.3359 15.1172 24.1797 14.9414 24.1797 14.4727L24.1797 11.3672C24.1797 10.0195 23.418 9.29688 22.1094 9.29688L19.3555 9.29688C18.0859 9.29688 17.3047 10.0195 17.3047 11.3672L17.3047 15.5664C17.3047 18.0664 17.8711 19.1016 19.4922 20.1367ZM62.4805 51.7578C68.2227 54.2578 71.4258 51.6602 71.4258 46.6602L71.4258 40.1172C71.4258 38.7891 70.6641 38.0273 69.3945 38.0273L66.6406 38.0273C65.3125 38.0273 64.5508 38.7891 64.5508 40.1172L64.5508 44.2969C64.5508 44.8438 64.2773 45.1758 63.6133 44.8828L50.8398 39.3555L47.4805 45.293ZM18.7305 10.2734L22.6367 10.2734L22.6367 3.53516C22.6367 2.46094 21.7773 1.5625 20.6641 1.5625C19.5898 1.5625 18.7305 2.46094 18.7305 3.53516ZM12.4023 6.81641L28.9648 6.81641C29.8242 6.81641 30.4102 6.07422 30.4102 5.29297C30.4102 4.51172 29.8242 3.76953 28.9648 3.76953L12.4023 3.76953C11.543 3.76953 10.957 4.51172 10.957 5.29297C10.957 6.07422 11.543 6.81641 12.4023 6.81641ZM59.7266 35.4883L76.3086 35.4883C77.168 35.4883 77.7344 34.7461 77.7344 33.9648C77.7344 33.1836 77.168 32.4219 76.3086 32.4219L59.7266 32.4219C58.8672 32.4219 58.2812 33.1836 58.2812 33.9648C58.2812 34.7461 58.8672 35.4883 59.7266 35.4883ZM66.0742 38.418L69.9805 38.418L69.9805 32.0117C69.9805 30.9375 69.1406 30.0195 68.0469 30.0195C66.9336 30.0195 66.0742 30.9375 66.0742 32.0117ZM53.6914 23.125L58.2812 20.293C59.9609 19.2188 60.5273 18.1641 60.5273 15.6055L60.5273 11.4648C60.5273 10.0586 59.7266 9.29688 58.418 9.29688L55.5664 9.29688C54.1992 9.29688 53.418 10.0586 53.418 11.4648L53.418 14.4531C53.418 14.9414 53.2617 15.1172 52.793 15.4297L50.2148 17.0312ZM55.0781 10.2734L58.9844 10.2734L58.9844 3.53516C58.9844 2.46094 58.125 1.5625 57.0508 1.5625C55.9375 1.5625 55.0781 2.46094 55.0781 3.53516ZM48.75 6.81641L65.3125 6.81641C66.1719 6.81641 66.7578 6.07422 66.7578 5.29297C66.7578 4.51172 66.1719 3.76953 65.3125 3.76953L48.75 3.76953C47.8906 3.76953 47.3047 4.51172 47.3047 5.29297C47.3047 6.07422 47.8906 6.81641 48.75 6.81641Z" fill="black" fill-opacity="0.85"/>
 </g>
</svg>
