<?xml version="1.0" encoding="UTF-8"?>
<!--Generator: Apple Native CoreSVG 326-->
<!DOCTYPE svg
PUBLIC "-//W3C//DTD SVG 1.1//EN"
       "http://www.w3.org/Graphics/SVG/1.1/DTD/svg11.dtd">
<svg version="1.1" xmlns="http://www.w3.org/2000/svg" xmlns:xlink="http://www.w3.org/1999/xlink" viewBox="0 0 53.3211 62.4023">
 <g>
  <rect height="62.4023" opacity="0" width="53.3211" x="0" y="0"/>
  <path d="M12.3098 27.7771C12.2976 27.8011 12.2867 27.8263 12.2758 27.8516C10.6547 31.5039 9.07264 35.6445 9.07264 39.668C9.07264 47.5977 14.5219 52.8906 22.725 52.8906C27.1644 52.8906 30.7992 51.333 33.1851 48.6319L35.7389 51.1831C32.7335 54.5 28.2155 56.4062 22.725 56.4062C12.4125 56.4062 5.55701 49.707 5.55701 39.668C5.55701 34.8828 7.43201 29.8828 9.13123 26.1328C9.28504 25.7893 9.44349 25.4439 9.62135 25.0913ZM25.85 7.94922C29.5414 13.6133 33.643 20.1562 36.3187 26.1328C37.9984 29.8828 39.893 34.8828 39.893 39.668C39.893 40.7179 39.8178 41.7313 39.6545 42.6949L36.3444 39.3865C36.2833 35.4522 34.719 31.4185 33.1547 27.832C30.4008 21.4453 26.6703 15.8789 23.1351 10.4883C22.9203 10.1172 22.5492 10.1172 22.3148 10.4883C20.3742 13.4312 18.3871 16.4264 16.5362 19.5881L13.9369 16.99C15.7637 13.8765 17.7216 10.8014 19.5805 7.94922C20.4008 6.69922 21.3187 5.99609 22.725 5.99609C24.0922 5.99609 25.0492 6.69922 25.85 7.94922ZM47.4125 7.38281C47.4125 11.5039 44.1703 14.7461 40.0492 14.7461C35.9086 14.7461 32.6859 11.5039 32.6859 7.38281C32.6859 3.24219 35.9086 0 40.0492 0C44.1703 0 47.4125 3.24219 47.4125 7.38281ZM35.7523 7.38281C35.7523 9.80469 37.6273 11.6797 40.0492 11.6797C42.4515 11.6797 44.3461 9.80469 44.3461 7.38281C44.3461 4.96094 42.4515 3.06641 40.0492 3.06641C37.6273 3.06641 35.7523 4.96094 35.7523 7.38281Z" fill="black" fill-opacity="0.85"/>
  <path d="M42.9008 54.4922C43.5453 55.1367 44.6 55.1562 45.2445 54.4922C45.889 53.8281 45.9086 52.793 45.2445 52.1289L5.57655 12.4805C4.95155 11.8359 3.87733 11.8164 3.21326 12.4805C2.56873 13.125 2.5492 14.1797 3.21326 14.8438Z" fill="black" fill-opacity="0.85"/>
 </g>
</svg>
