<?xml version="1.0" encoding="UTF-8"?>
<!--Generator: Apple Native CoreSVG 326-->
<!DOCTYPE svg
PUBLIC "-//W3C//DTD SVG 1.1//EN"
       "http://www.w3.org/Graphics/SVG/1.1/DTD/svg11.dtd">
<svg version="1.1" xmlns="http://www.w3.org/2000/svg" xmlns:xlink="http://www.w3.org/1999/xlink" viewBox="0 0 55.0195 62.344">
 <g>
  <rect height="62.344" opacity="0" width="55.0195" x="0" y="0"/>
  <path d="M48.7305 10.9669L48.7305 33.7622C47.5944 33.3739 46.3339 33.4589 45.2539 34.0104L45.2539 20.9279L9.39453 20.9279L9.39453 51.3185C9.39453 52.7052 10.2539 53.6232 11.5625 53.6232L31.8185 53.6232C31.8562 53.8064 31.875 53.9882 31.875 54.17C31.875 54.6974 31.7383 55.0685 31.4062 55.6935C31.1461 56.1447 30.9764 56.6121 30.8921 57.0802L11.4258 57.0802C8.14453 57.0802 5.91797 54.795 5.91797 51.338L5.91797 10.9669C5.91797 7.50988 8.14453 5.22473 11.4258 5.22473L43.2227 5.22473C46.5039 5.22473 48.7305 7.50988 48.7305 10.9669ZM40.2734 28.9552L40.2734 33.5557C39.4178 33.5337 38.5593 33.7581 37.8125 34.2283L37.8125 29.3068C37.8125 28.4864 37.3047 27.9786 36.5039 27.9786L18.1445 27.9786C17.3438 27.9786 16.8359 28.4864 16.8359 29.3068L16.8359 45.2443C16.8359 46.0841 17.3438 46.5919 18.1445 46.5919L28.4059 46.5919C28.7127 47.5161 29.09 48.3266 29.4802 49.0529L17.793 49.0529C15.7227 49.0529 14.375 47.6857 14.375 45.6154L14.375 28.9552C14.375 26.8654 15.7227 25.4982 17.793 25.4982L36.8555 25.4982C38.9258 25.4982 40.2734 26.8654 40.2734 28.9552ZM11.5625 8.68176C10.2539 8.68176 9.39453 9.59973 9.39453 10.9864L9.39453 18.0568L45.2539 18.0568L45.2539 10.9864C45.2539 9.59973 44.3945 8.68176 43.0859 8.68176ZM17.2656 13.3693C17.2656 14.5997 16.25 15.5958 15.0391 15.5958C13.8086 15.5958 12.8125 14.5997 12.8125 13.3693C12.8125 12.1583 13.8086 11.1622 15.0391 11.1622C16.25 11.1622 17.2656 12.1583 17.2656 13.3693ZM23.6719 13.3693C23.6719 14.5997 22.6758 15.5958 21.4648 15.5958C20.2344 15.5958 19.2578 14.5997 19.2578 13.3693C19.2578 12.1583 20.2344 11.1622 21.4648 11.1622C22.6758 11.1622 23.6719 12.1583 23.6719 13.3693ZM41.7188 13.3693C41.7188 14.0333 41.2695 14.5021 40.5859 14.5021L34.3555 14.5021C33.6914 14.5021 33.2227 14.0333 33.2227 13.3693C33.2227 12.7052 33.6914 12.2364 34.3555 12.2364L40.5859 12.2364C41.2695 12.2364 41.7188 12.7052 41.7188 13.3693Z" fill="black" fill-opacity="0.85"/>
  <path d="M34.4336 59.131C35.0781 59.5411 36.1133 59.5216 36.6797 58.5646C37.4414 57.2169 37.8516 55.6935 37.8516 54.17C37.8516 48.6427 33.5742 45.8888 33.5742 41.7286C33.5742 40.6154 33.7891 39.8146 34.4336 38.7013C34.8633 37.9396 34.5508 37.1193 33.9453 36.7482C33.2812 36.338 32.2852 36.4161 31.7383 37.3341C30.9375 38.6427 30.5859 40.1857 30.5859 41.7286C30.5859 47.0607 34.8438 49.8732 34.8438 54.17C34.8438 55.2833 34.6094 56.045 33.9844 57.1583C33.5352 57.9591 33.9062 58.7599 34.4336 59.131ZM41.543 59.1114C42.2266 59.5411 43.2617 59.4825 43.7695 58.545C44.5312 57.1974 44.9609 55.6935 44.9609 54.17C44.9609 48.6232 40.6641 45.8693 40.6641 41.7091C40.6641 40.6154 40.8984 39.8146 41.5234 38.6818C41.9727 37.92 41.6406 37.1193 41.0156 36.7482C40.3711 36.3575 39.375 36.4161 38.8281 37.3146C38.0469 38.6427 37.6953 40.1661 37.6953 41.7091C37.6953 47.0607 41.9531 49.8536 41.9531 54.17C41.9531 55.2638 41.7188 56.0255 41.0938 57.1388C40.625 57.9591 40.9961 58.7404 41.543 59.1114ZM48.6328 59.0919C49.3164 59.5216 50.3516 59.463 50.8594 58.5255C51.6406 57.1779 52.0508 55.6739 52.0508 54.1505C52.0508 48.6036 47.7734 45.8497 47.7734 41.6896C47.7734 40.5958 47.9883 39.795 48.6133 38.6622C49.0625 37.9005 48.7305 37.0997 48.125 36.7286C47.4609 36.338 46.4648 36.3966 45.918 37.295C45.1367 38.6232 44.7852 40.1466 44.7852 41.6896C44.7852 47.0411 49.043 49.8341 49.043 54.1505C49.043 55.2443 48.8086 56.006 48.1836 57.1193C47.7344 57.9396 48.0859 58.7208 48.6328 59.0919Z" fill="black" fill-opacity="0.85"/>
 </g>
</svg>
