<?xml version="1.0" encoding="UTF-8"?>
<!--Generator: Apple Native CoreSVG 326-->
<!DOCTYPE svg
PUBLIC "-//W3C//DTD SVG 1.1//EN"
       "http://www.w3.org/Graphics/SVG/1.1/DTD/svg11.dtd">
<svg version="1.1" xmlns="http://www.w3.org/2000/svg" xmlns:xlink="http://www.w3.org/1999/xlink" viewBox="0 0 67.9492 48.3008">
 <g>
  <rect height="48.3008" opacity="0" width="67.9492" x="0" y="0"/>
  <path d="M17.5781 16.6406L21.0547 16.6406L21.0547 9.96094C21.0547 5.91797 24.082 3.53516 28.75 3.53516L38.8281 3.53516C43.5156 3.53516 46.543 5.91797 46.543 9.96094L46.543 16.6406L50.0195 16.6406L50.0195 9.96094C50.0195 3.82812 45.625 0.078125 38.8281 0.078125L28.75 0.078125C21.9727 0.078125 17.5781 3.82812 17.5781 9.96094ZM8.00781 48.3008L59.5703 48.3008C64.4922 48.3008 67.5781 45.2539 67.5781 40.4102L67.5781 26.5625C67.5781 19.2773 62.5781 14.3359 55.2539 14.3359L12.3242 14.3359C5 14.3359 0 19.2773 0 26.5625L0 40.4102C0 45.2539 3.08594 48.3008 8.00781 48.3008ZM8.04688 44.8438C5.21484 44.8438 3.45703 43.0664 3.45703 40.2539L3.45703 26.7188C3.45703 21.3867 7.03125 17.8125 12.3633 17.8125L55.2148 17.8125C60.5469 17.8125 64.1211 21.3867 64.1211 26.7188L64.1211 40.2539C64.1211 43.0664 62.3633 44.8438 59.5312 44.8438ZM14.4727 46.8359L17.3438 46.8359L17.3438 15.8594L14.4727 15.8594ZM21.2891 46.8359L24.1602 46.8359L24.1602 15.8594L21.2891 15.8594ZM43.4375 46.8359L46.3086 46.8359L46.3086 15.8594L43.4375 15.8594ZM50.2539 46.8359L53.125 46.8359L53.125 15.8594L50.2539 15.8594ZM22.7148 30.6836L44.8242 30.6836L44.8242 27.8125L22.7148 27.8125Z" fill="black" fill-opacity="0.85"/>
 </g>
</svg>
