<?xml version="1.0" encoding="UTF-8"?>
<!--Generator: Apple Native CoreSVG 326-->
<!DOCTYPE svg
PUBLIC "-//W3C//DTD SVG 1.1//EN"
       "http://www.w3.org/Graphics/SVG/1.1/DTD/svg11.dtd">
<svg version="1.1" xmlns="http://www.w3.org/2000/svg" xmlns:xlink="http://www.w3.org/1999/xlink" viewBox="0 0 67.9492 48.418">
 <g>
  <rect height="48.418" opacity="0" width="67.9492" x="0" y="0"/>
  <path d="M17.4609 16.8164L21.1719 16.8164L21.1719 10.0195C21.1719 6.05469 24.1211 3.71094 28.75 3.71094L38.8281 3.71094C43.4766 3.71094 46.4258 6.05469 46.4258 10.0195L46.4258 16.8164L50.1367 16.8164L50.1367 10.0195C50.1367 3.80859 45.6836 0 38.8281 0L28.75 0C21.9141 0 17.4609 3.80859 17.4609 10.0195ZM8.00781 48.3594L59.5703 48.3594C64.4922 48.3594 67.5781 45.3125 67.5781 40.4688L67.5781 26.6211C67.5781 19.3359 62.5781 14.3945 55.2539 14.3945L12.3242 14.3945C5 14.3945 0 19.3359 0 26.6211L0 40.4688C0 45.3125 3.08594 48.3594 8.00781 48.3594ZM14.5898 48.3594L14.5898 14.3945L17.4609 14.3945L17.4609 48.3594ZM21.1719 48.3594L21.1719 14.3945L24.043 14.3945L24.043 48.3594ZM24.043 30.7422L24.043 27.8711L43.5547 27.8711L43.5547 30.7422ZM43.5547 48.3594L43.5547 14.3945L46.4258 14.3945L46.4258 48.3594ZM50.1367 48.3594L50.1367 14.3945L53.0078 14.3945L53.0078 48.3594Z" fill="black" fill-opacity="0.85"/>
 </g>
</svg>
