<?xml version="1.0" encoding="UTF-8"?>
<!--Generator: Apple Native CoreSVG 326-->
<!DOCTYPE svg
PUBLIC "-//W3C//DTD SVG 1.1//EN"
       "http://www.w3.org/Graphics/SVG/1.1/DTD/svg11.dtd">
<svg version="1.1" xmlns="http://www.w3.org/2000/svg" xmlns:xlink="http://www.w3.org/1999/xlink" viewBox="0 0 59.7461 39.5117">
 <g>
  <rect height="39.5117" opacity="0" width="59.7461" x="0" y="0"/>
  <path d="M15.4492 39.5117L43.9258 39.5117C54.2969 39.5117 59.375 34.668 59.375 24.8047L59.375 14.8633C59.375 4.90234 54.4531 0.0390625 44.4336 0.0390625L14.9609 0.0390625C4.92188 0.0390625 0 4.90234 0 14.8633L0 24.8047C0 34.668 5.07812 39.5117 15.4492 39.5117ZM15.4492 36.0547C7.28516 36.0547 3.45703 32.5 3.45703 24.8047L3.45703 14.8633C3.45703 7.10938 7.10938 3.49609 14.9609 3.49609L44.4336 3.49609C52.2852 3.49609 55.918 7.10938 55.918 14.8633L55.918 24.8047C55.918 32.5 52.1094 36.0547 43.9258 36.0547ZM1.75781 16.6016L57.6367 16.6016L57.6367 14.3164L1.75781 14.3164ZM29.6875 25.6055C30.9766 25.6055 32.0117 24.5508 32.0117 23.2812C32.0117 21.9922 30.9766 20.957 29.6875 20.957C28.418 20.957 27.3633 21.9922 27.3633 23.2812C27.3633 24.5508 28.418 25.6055 29.6875 25.6055Z" fill="black" fill-opacity="0.85"/>
 </g>
</svg>
