<?xml version="1.0" encoding="UTF-8"?>
<!--Generator: Apple Native CoreSVG 326-->
<!DOCTYPE svg
PUBLIC "-//W3C//DTD SVG 1.1//EN"
       "http://www.w3.org/Graphics/SVG/1.1/DTD/svg11.dtd">
<svg version="1.1" xmlns="http://www.w3.org/2000/svg" xmlns:xlink="http://www.w3.org/1999/xlink" viewBox="0 0 42.3047 53.8477">
 <g>
  <rect height="53.8477" opacity="0" width="42.3047" x="0" y="0"/>
  <path d="M10.7422 20.0977C10.0977 20.0977 9.55078 19.5508 9.55078 18.9258C9.55078 18.2617 10.0781 17.7148 10.7422 17.7148L14.5703 17.7148L16.7188 8.73047C17.0508 7.44141 18.7305 7.46094 19.0234 8.75L21.5234 20.9766L24.0625 12.4414C24.4531 11.2305 26.0547 11.2109 26.3867 12.4023L27.7344 17.7148L31.1719 17.7148C31.8555 17.7148 32.3828 18.2422 32.3828 18.9258C32.3828 19.5508 31.8359 20.0977 31.1719 20.0977L26.9922 20.0977C26.3086 20.0977 25.8398 19.707 25.6836 19.0234L25.1562 16.8945L22.5586 26.0156C22.168 27.2852 20.4883 27.2656 20.2148 25.9766L17.832 14.3555L16.6602 19.082C16.5039 19.707 16.0352 20.0977 15.332 20.0977ZM10.8594 34.9219C10.0391 34.9219 9.43359 34.2969 9.43359 33.5156C9.43359 32.7539 10.0391 32.1484 10.8594 32.1484L31.1523 32.1484C31.9531 32.1484 32.5586 32.7539 32.5586 33.5156C32.5586 34.2969 31.9531 34.9219 31.1523 34.9219ZM10.8594 42.7734C10.0391 42.7734 9.43359 42.168 9.43359 41.3867C9.43359 40.6055 10.0391 39.9805 10.8594 39.9805L20.5469 39.9805C21.3672 39.9805 21.9531 40.6055 21.9531 41.3867C21.9531 42.168 21.3672 42.7734 20.5469 42.7734ZM0 46.25C0 51.2891 2.51953 53.8477 7.51953 53.8477L34.4141 53.8477C39.4141 53.8477 41.9336 51.2891 41.9336 46.25L41.9336 7.61719C41.9336 2.57812 39.4141 0.0195312 34.4141 0.0195312L7.51953 0.0195312C2.51953 0.0195312 0 2.57812 0 7.61719Z" fill="black" fill-opacity="0.85"/>
 </g>
</svg>
