<?xml version="1.0" encoding="UTF-8"?>
<!--Generator: Apple Native CoreSVG 326-->
<!DOCTYPE svg
PUBLIC "-//W3C//DTD SVG 1.1//EN"
       "http://www.w3.org/Graphics/SVG/1.1/DTD/svg11.dtd">
<svg version="1.1" xmlns="http://www.w3.org/2000/svg" xmlns:xlink="http://www.w3.org/1999/xlink" viewBox="0 0 49.1406 47.168">
 <g>
  <rect height="47.168" opacity="0" width="49.1406" x="0" y="0"/>
  <path d="M3.86719 29.0234L44.9414 29.0234C47.0508 29.0234 48.2227 27.9492 48.2617 26.0938C48.2812 25.1953 47.832 24.2969 47.0898 23.4766L27.5977 1.75781C26.7578 0.839844 25.6641 0.175781 24.4141 0.175781C23.125 0.175781 22.0703 0.800781 21.1914 1.75781L1.71875 23.4766C0.976562 24.3164 0.566406 25.1953 0.566406 26.0938C0.566406 27.9492 1.75781 29.0234 3.86719 29.0234ZM6.03516 25.7812C5.48828 25.7812 5.23438 25.5273 5.23438 25.1562C5.23438 24.9219 5.3125 24.7266 5.48828 24.5312L23.4961 4.58984C23.7695 4.29688 24.043 4.10156 24.4141 4.10156C24.7852 4.10156 25.0586 4.29688 25.3125 4.58984L43.3008 24.5312C43.4961 24.7461 43.5938 24.9219 43.5938 25.1562C43.5938 25.5273 43.3008 25.7812 42.7734 25.7812ZM4.98047 47.168L43.7891 47.168C46.9727 47.168 48.7695 45.4688 48.7695 42.3438L48.7695 39.3555C48.7695 36.2305 46.9727 34.5312 43.7891 34.5312L4.98047 34.5312C1.79688 34.5312 0 36.2109 0 39.3555L0 42.3438C0 45.4883 1.79688 47.168 4.98047 47.168ZM5.23438 43.9844C4.08203 43.9844 3.45703 43.2812 3.45703 42.1484L3.45703 39.5508C3.45703 38.418 4.08203 37.7148 5.23438 37.7148L43.5352 37.7148C44.707 37.7148 45.3125 38.418 45.3125 39.5508L45.3125 42.1484C45.3125 43.2812 44.707 43.9844 43.5352 43.9844Z" fill="black" fill-opacity="0.85"/>
 </g>
</svg>
