<?xml version="1.0" encoding="UTF-8"?>
<!--Generator: Apple Native CoreSVG 326-->
<!DOCTYPE svg
PUBLIC "-//W3C//DTD SVG 1.1//EN"
       "http://www.w3.org/Graphics/SVG/1.1/DTD/svg11.dtd">
<svg version="1.1" xmlns="http://www.w3.org/2000/svg" xmlns:xlink="http://www.w3.org/1999/xlink" viewBox="0 0 51.25 50.918">
 <g>
  <rect height="50.918" opacity="0" width="51.25" x="0" y="0"/>
  <path d="M50.8789 25.4492C50.8789 39.4531 39.4531 50.8789 25.4297 50.8789C11.4258 50.8789 0 39.4531 0 25.4492C0 11.4258 11.4258 0 25.4297 0C39.4531 0 50.8789 11.4258 50.8789 25.4492ZM33.8086 25.4102C33.8086 27.4023 35.4102 29.0039 37.4023 29.0039C39.375 29.0039 40.9961 27.4023 40.9961 25.4102C40.9961 23.4375 39.375 21.8359 37.4023 21.8359C35.4102 21.8359 33.8086 23.4375 33.8086 25.4102ZM21.8555 25.4102C21.8555 27.4023 23.457 29.0039 25.4297 29.0039C27.4219 29.0039 29.0234 27.4023 29.0234 25.4102C29.0234 23.4375 27.4219 21.8359 25.4297 21.8359C23.457 21.8359 21.8555 23.4375 21.8555 25.4102ZM9.88281 25.4102C9.88281 27.4023 11.5039 29.0039 13.457 29.0039C15.4492 29.0039 17.0508 27.4023 17.0508 25.4102C17.0508 23.4375 15.4297 21.8359 13.457 21.8359C11.5039 21.8359 9.88281 23.4375 9.88281 25.4102Z" fill="black" fill-opacity="0.85"/>
 </g>
</svg>
