<?xml version="1.0" encoding="UTF-8"?>
<!--Generator: Apple Native CoreSVG 326-->
<!DOCTYPE svg
PUBLIC "-//W3C//DTD SVG 1.1//EN"
       "http://www.w3.org/Graphics/SVG/1.1/DTD/svg11.dtd">
<svg version="1.1" xmlns="http://www.w3.org/2000/svg" xmlns:xlink="http://www.w3.org/1999/xlink" viewBox="0 0 55.3906 54.5508">
 <g>
  <rect height="54.5508" opacity="0" width="55.3906" x="0" y="0"/>
  <path d="M14.8438 54.5508C15.918 54.5508 16.6602 53.9844 17.9297 52.8516L26.7383 45.0977L44.0039 45.0977C51.0742 45.0977 55.0195 41.0547 55.0195 34.1016L55.0195 14.1797C55.0195 7.20703 51.0742 3.16406 44.0039 3.16406L11.0156 3.16406C3.92578 3.16406 0 7.1875 0 14.1797L0 34.1016C0 41.0938 3.92578 45.0977 11.0156 45.0977L12.4805 45.0977L12.4805 51.8164C12.4805 53.4766 13.3398 54.5508 14.8438 54.5508ZM15.7031 50.625L15.7031 43.2812C15.7031 42.0898 15.2539 41.6406 14.082 41.6406L11.0352 41.6406C5.99609 41.6406 3.45703 38.9453 3.45703 34.0625L3.45703 14.1992C3.45703 9.31641 5.99609 6.62109 11.0352 6.62109L43.9844 6.62109C48.9648 6.62109 51.5625 9.31641 51.5625 14.1992L51.5625 34.0625C51.5625 38.9453 48.9648 41.6406 43.9844 41.6406L26.6602 41.6406C25.4297 41.6406 24.7852 41.8359 23.9258 42.7148Z" fill="black" fill-opacity="0.85"/>
  <path d="M39.4727 27.5391C41.3477 27.5391 42.8906 26.0156 42.8906 24.1211C42.8906 22.2461 41.3477 20.7227 39.4727 20.7227C37.5977 20.7227 36.0742 22.2461 36.0742 24.1211C36.0742 26.0156 37.5977 27.5391 39.4727 27.5391Z" fill="black" fill-opacity="0.85"/>
  <path d="M27.5195 27.5391C29.3945 27.5391 30.918 26.0156 30.918 24.1211C30.918 22.2461 29.3945 20.7227 27.5195 20.7227C25.625 20.7227 24.1016 22.2461 24.1016 24.1211C24.1016 26.0156 25.625 27.5391 27.5195 27.5391Z" fill="black" fill-opacity="0.85"/>
  <path d="M15.5664 27.5391C17.4414 27.5391 18.9648 26.0156 18.9648 24.1211C18.9648 22.2461 17.4414 20.7227 15.5664 20.7227C13.6719 20.7227 12.1289 22.2461 12.1289 24.1211C12.1289 26.0156 13.6719 27.5391 15.5664 27.5391Z" fill="black" fill-opacity="0.85"/>
 </g>
</svg>
