<?xml version="1.0" encoding="UTF-8"?>
<!--Generator: Apple Native CoreSVG 326-->
<!DOCTYPE svg
PUBLIC "-//W3C//DTD SVG 1.1//EN"
       "http://www.w3.org/Graphics/SVG/1.1/DTD/svg11.dtd">
<svg version="1.1" xmlns="http://www.w3.org/2000/svg" xmlns:xlink="http://www.w3.org/1999/xlink" viewBox="0 0 55.3906 54.7852">
 <g>
  <rect height="54.7852" opacity="0" width="55.3906" x="0" y="0"/>
  <path d="M55.0195 14.2969L55.0195 34.2188C55.0195 41.1719 51.0742 45.1953 44.0039 45.1953L26.0547 45.1953L16.9336 53.418C15.9375 54.3359 15.293 54.7852 14.4336 54.7852C13.1836 54.7852 12.4609 53.8867 12.4609 52.5195L12.4609 45.1953L11.0156 45.1953C3.92578 45.1953 0 41.2109 0 34.2188L0 14.2969C0 7.30469 3.92578 3.28125 11.0156 3.28125L44.0039 3.28125C51.0742 3.28125 55.0195 7.32422 55.0195 14.2969ZM24.1406 34.9609C24.1406 36.8164 25.6445 38.3398 27.5391 38.3398C29.4141 38.3398 30.918 36.8164 30.918 34.9609C30.918 33.0859 29.4141 31.582 27.5391 31.582C25.6445 31.582 24.1406 33.0859 24.1406 34.9609ZM24.1406 24.2578C24.1406 26.1328 25.6445 27.6367 27.5391 27.6367C29.4141 27.6367 30.918 26.1328 30.918 24.2578C30.918 22.3633 29.4141 20.8594 27.5391 20.8594C25.6445 20.8594 24.1406 22.3633 24.1406 24.2578ZM24.1406 13.5352C24.1406 15.4102 25.6445 16.9141 27.5391 16.9141C29.4141 16.9141 30.918 15.4102 30.918 13.5352C30.918 11.6797 29.4141 10.1562 27.5391 10.1562C25.6445 10.1562 24.1406 11.6797 24.1406 13.5352Z" fill="black" fill-opacity="0.85"/>
 </g>
</svg>
