<?xml version="1.0" encoding="UTF-8"?>
<!--Generator: Apple Native CoreSVG 326-->
<!DOCTYPE svg
PUBLIC "-//W3C//DTD SVG 1.1//EN"
       "http://www.w3.org/Graphics/SVG/1.1/DTD/svg11.dtd">
<svg version="1.1" xmlns="http://www.w3.org/2000/svg" xmlns:xlink="http://www.w3.org/1999/xlink" viewBox="0 0 53.4375 34.2383">
 <g>
  <rect height="34.2383" opacity="0" width="53.4375" x="0" y="0"/>
  <path d="M0 27.3438C0 31.7969 2.5 34.2188 6.95312 34.2188L46.1328 34.2188C50.5859 34.2188 53.0664 31.7969 53.0664 27.3438L53.0664 6.85547C53.0664 2.40234 50.5859 0 46.1328 0L6.95312 0C2.5 0 0 2.40234 0 6.85547ZM3.45703 27.5L3.45703 6.69922C3.45703 4.47266 4.70703 3.22266 6.93359 3.22266L46.1328 3.22266C48.3594 3.22266 49.6094 4.47266 49.6094 6.69922L49.6094 27.5C49.6094 29.7266 48.3594 30.9766 46.1328 30.9766L6.93359 30.9766C4.70703 30.9766 3.45703 29.7266 3.45703 27.5Z" fill="black" fill-opacity="0.85"/>
  <path d="M38.2422 20.5664C40.1562 20.5664 41.7188 19.0039 41.7188 17.0703C41.7188 15.1562 40.1562 13.5938 38.2422 13.5938C36.3086 13.5938 34.7461 15.1562 34.7461 17.0703C34.7461 19.0039 36.3086 20.5664 38.2422 20.5664Z" fill="black" fill-opacity="0.85"/>
  <path d="M26.5625 20.5664C28.4961 20.5664 30.0586 19.0039 30.0586 17.0703C30.0586 15.1562 28.4961 13.5938 26.5625 13.5938C24.6484 13.5938 23.0859 15.1562 23.0859 17.0703C23.0859 19.0039 24.6484 20.5664 26.5625 20.5664Z" fill="black" fill-opacity="0.85"/>
  <path d="M14.9023 20.5664C16.8164 20.5664 18.3789 19.0039 18.3789 17.0703C18.3789 15.1562 16.7969 13.5938 14.9023 13.5938C12.9688 13.5938 11.4062 15.1562 11.4062 17.0703C11.4062 19.0039 12.9688 20.5664 14.9023 20.5664Z" fill="black" fill-opacity="0.85"/>
 </g>
</svg>
