<?xml version="1.0" encoding="UTF-8"?>
<!--Generator: Apple Native CoreSVG 326-->
<!DOCTYPE svg
PUBLIC "-//W3C//DTD SVG 1.1//EN"
       "http://www.w3.org/Graphics/SVG/1.1/DTD/svg11.dtd">
<svg version="1.1" xmlns="http://www.w3.org/2000/svg" xmlns:xlink="http://www.w3.org/1999/xlink" viewBox="0 0 53.4375 34.2383">
 <g>
  <rect height="34.2383" opacity="0" width="53.4375" x="0" y="0"/>
  <path d="M53.0664 6.85547L53.0664 27.3438C53.0664 31.7969 50.5859 34.2188 46.1328 34.2188L6.95312 34.2188C2.5 34.2188 0 31.7969 0 27.3438L0 6.85547C0 2.40234 2.5 0 6.95312 0L46.1328 0C50.5859 0 53.0664 2.40234 53.0664 6.85547ZM34.9414 17.0703C34.9414 19.0625 36.543 20.6641 38.5352 20.6641C40.4883 20.6641 42.1289 19.0625 42.1289 17.0703C42.1289 15.0977 40.4883 13.4961 38.5352 13.4961C36.543 13.4961 34.9414 15.0977 34.9414 17.0703ZM22.9688 17.0703C22.9688 19.0625 24.5898 20.6641 26.5625 20.6641C28.5547 20.6641 30.1562 19.0625 30.1562 17.0703C30.1562 15.0977 28.5547 13.4961 26.5625 13.4961C24.5898 13.4961 22.9688 15.0977 22.9688 17.0703ZM11.0156 17.0703C11.0156 19.0625 12.6367 20.6641 14.5898 20.6641C16.582 20.6641 18.1836 19.0625 18.1836 17.0703C18.1836 15.0977 16.5625 13.4961 14.5898 13.4961C12.6367 13.4961 11.0156 15.0977 11.0156 17.0703Z" fill="black" fill-opacity="0.85"/>
 </g>
</svg>
