<?xml version="1.0" encoding="UTF-8"?>
<!--Generator: Apple Native CoreSVG 326-->
<!DOCTYPE svg
PUBLIC "-//W3C//DTD SVG 1.1//EN"
       "http://www.w3.org/Graphics/SVG/1.1/DTD/svg11.dtd">
<svg version="1.1" xmlns="http://www.w3.org/2000/svg" xmlns:xlink="http://www.w3.org/1999/xlink" viewBox="0 0 70.2734 47.8711">
 <g>
  <rect height="47.8711" opacity="0" width="70.2734" x="0" y="0"/>
  <path d="M58.5156 41.1914C58.5156 45.1562 55.8594 47.8711 52.1289 47.8711C48.418 47.8711 45.7227 45.2539 45.2539 41.7773C45.1367 40.8984 45.5469 40.0781 46.543 40.0195C47.4609 39.9609 48.0469 40.625 48.1836 41.4258C48.5352 43.6523 50.0195 45.0195 52.1289 45.0195C54.2383 45.0195 55.6445 43.5938 55.6445 41.1914C55.6445 36.6406 49.3359 32.4219 38.0469 32.4219L32.7539 32.4219L32.7539 29.5508L38.0469 29.5508C50.9375 29.5508 58.5156 34.8242 58.5156 41.1914ZM4.33594 32.4219C3.55469 32.4219 2.89062 31.7773 2.89062 30.9961C2.89062 30.1953 3.55469 29.5508 4.33594 29.5508L19.7266 29.5508L19.7266 32.4219ZM69.9023 22.5977C69.9023 26.8359 66.8359 30.0977 62.1875 30.0977C55.918 30.0977 53.1445 24.9219 40.0391 24.9219L32.7539 24.9219L32.7539 22.0703L40.1562 22.0703C53.7305 22.0703 56.8945 27.1875 62.0117 27.2461C65.293 27.2656 67.0117 25.0391 67.0117 22.4805C67.0117 19.6094 65 17.832 62.5586 17.832C61.3086 17.832 60.2734 18.3398 59.5508 19.1016C58.9258 19.6094 58.2227 19.7656 57.6172 19.2773C57.0508 18.8281 57.0117 17.8711 57.6758 17.2461C58.8672 15.9375 60.6055 15.0781 62.5391 15.0781C66.6016 15.0781 69.9023 17.9688 69.9023 22.5977ZM1.42578 24.9219C0.664062 24.9219 0 24.2773 0 23.4961C0 22.7148 0.664062 22.0703 1.42578 22.0703L19.7266 22.0703L19.7266 24.9219ZM19.7266 17.4414L4.33594 17.4414C3.55469 17.4414 2.89062 16.7773 2.89062 15.9961C2.89062 15.2148 3.55469 14.5703 4.33594 14.5703L19.7266 14.5703ZM56.6992 8.80859C56.6992 13.8672 53.0664 17.4414 41.1133 17.4414L32.7539 17.4414L32.7539 14.5703L41.1523 14.5703C51.5234 14.5703 53.8281 12.168 53.8281 8.80859C53.8281 6.36719 52.168 4.94141 49.9414 4.94141C48.1641 4.94141 46.7188 6.13281 46.1523 7.59766C45.6641 8.47656 44.9219 8.71094 44.2188 8.39844C43.4375 8.04688 43.2422 7.20703 43.5938 6.46484C44.5117 4.00391 46.9922 2.10938 49.9414 2.10938C53.7305 2.10938 56.6992 4.78516 56.6992 8.80859Z" fill="black" fill-opacity="0.85"/>
  <path d="M26.2305 40.3906C27.8516 40.3906 29.2188 39.0625 29.2188 37.5195C29.2188 35.918 27.8711 34.6289 26.2305 34.6289C24.5898 34.6289 23.2617 35.918 23.2617 37.5195C23.2617 39.0625 24.6289 40.3906 26.2305 40.3906ZM26.2305 29.5117C27.2852 29.5117 28.0273 28.75 28.0664 27.6758L28.4961 9.6875C28.5352 8.32031 27.6367 7.42188 26.2305 7.42188C24.8438 7.42188 23.9453 8.32031 23.9844 9.6875L24.4141 27.6758C24.4531 28.75 25.1953 29.5117 26.2305 29.5117Z" fill="black" fill-opacity="0.85"/>
 </g>
</svg>
