<?xml version="1.0" encoding="UTF-8"?>
<!--Generator: Apple Native CoreSVG 326-->
<!DOCTYPE svg
PUBLIC "-//W3C//DTD SVG 1.1//EN"
       "http://www.w3.org/Graphics/SVG/1.1/DTD/svg11.dtd">
<svg version="1.1" xmlns="http://www.w3.org/2000/svg" xmlns:xlink="http://www.w3.org/1999/xlink" viewBox="0 0 44.668 51.8945">
 <g>
  <rect height="51.8945" opacity="0" width="44.668" x="0" y="0"/>
  <path d="M39.5508 7.51953L39.5508 32.7539L36.0938 32.7539L36.0938 7.71484C36.0938 4.90234 34.5508 3.45703 31.875 3.45703L12.4219 3.45703C9.70703 3.45703 8.22266 4.90234 8.22266 7.71484L8.22266 44.1016C8.22266 46.8945 9.70703 48.3398 12.4219 48.3398L31.875 48.3398C34.5508 48.3398 36.0938 46.8945 36.0938 44.1016L36.0938 43.0273L39.5508 43.0273L39.5508 44.2773C39.5508 49.2578 36.9922 51.7969 31.9336 51.7969L12.3633 51.7969C7.32422 51.7969 4.74609 49.2773 4.74609 44.2773L4.74609 7.51953C4.74609 2.51953 7.32422 0 12.3633 0L31.9336 0C36.9922 0 39.5508 2.55859 39.5508 7.51953Z" fill="black" fill-opacity="0.85"/>
  <path d="M17.4414 24.2578C17.4414 25.9375 16.1328 27.2266 14.4922 27.2266C12.8516 27.2266 11.5625 25.9375 11.5625 24.2578C11.5625 22.6562 12.8516 21.3086 14.4922 21.3086C16.1328 21.3086 17.4414 22.6562 17.4414 24.2578ZM25.1172 24.2578C25.1172 25.9375 23.8086 27.2266 22.1484 27.2266C20.5078 27.2266 19.1992 25.9375 19.1992 24.2578C19.1992 22.6562 20.5078 21.3086 22.1484 21.3086C23.8086 21.3086 25.1172 22.6562 25.1172 24.2578ZM32.7734 24.2578C32.7734 25.9375 31.4648 27.2266 29.8242 27.2266C28.1836 27.2266 26.8945 25.9375 26.8945 24.2578C26.8945 22.6562 28.1836 21.3086 29.8242 21.3086C31.4648 21.3086 32.7734 22.6562 32.7734 24.2578ZM17.4414 16.8945C17.4414 18.5352 16.1328 19.8242 14.4922 19.8242C12.8516 19.8242 11.5625 18.5352 11.5625 16.8945C11.5625 15.2148 12.8516 13.9258 14.4922 13.9258C16.1328 13.9258 17.4414 15.2148 17.4414 16.8945ZM25.1172 16.8945C25.1172 18.5352 23.8086 19.8242 22.1484 19.8242C20.5078 19.8242 19.1992 18.5352 19.1992 16.8945C19.1992 15.2148 20.5078 13.9258 22.1484 13.9258C23.8086 13.9258 25.1172 15.2148 25.1172 16.8945ZM32.7734 16.8945C32.7734 18.5352 31.4648 19.8242 29.8242 19.8242C28.1836 19.8242 26.8945 18.5352 26.8945 16.8945C26.8945 15.2148 28.1836 13.9258 29.8242 13.9258C31.4648 13.9258 32.7734 15.2148 32.7734 16.8945ZM17.4414 9.55078C17.4414 11.1328 16.1328 12.4609 14.4922 12.4609C12.8516 12.4609 11.5625 11.1328 11.5625 9.55078C11.5625 7.89062 12.8516 6.58203 14.4922 6.58203C16.1328 6.58203 17.4414 7.89062 17.4414 9.55078ZM25.1172 9.55078C25.1172 11.1328 23.8086 12.4609 22.1484 12.4609C20.5078 12.4609 19.1992 11.1328 19.1992 9.55078C19.1992 7.89062 20.5078 6.58203 22.1484 6.58203C23.8086 6.58203 25.1172 7.89062 25.1172 9.55078ZM32.7734 9.55078C32.7734 11.1328 31.4648 12.4609 29.8242 12.4609C28.1836 12.4609 26.8945 11.1328 26.8945 9.55078C26.8945 7.89062 28.1836 6.58203 29.8242 6.58203C31.4648 6.58203 32.7734 7.89062 32.7734 9.55078Z" fill="black" fill-opacity="0.85"/>
  <path d="M22.1484 45.1172C26.1523 45.1172 29.375 41.8945 29.375 37.8711C29.375 33.9062 26.1523 30.6836 22.1484 30.6836C18.1445 30.6836 14.9219 33.9062 14.9219 37.8711C14.9219 41.8945 18.1445 45.1172 22.1484 45.1172ZM22.9492 40.6836L39.5508 40.6836C41.0742 40.6836 42.3438 39.4336 42.3438 37.8711C42.3438 36.3281 41.0742 35.0781 39.5508 35.0781L22.9492 35.0781C21.4062 35.0781 20.1367 36.3281 20.1367 37.8711C20.1367 39.4336 21.4062 40.6836 22.9492 40.6836Z" fill="black" fill-opacity="0.85"/>
 </g>
</svg>
