<?xml version="1.0" encoding="UTF-8"?>
<!--Generator: Apple Native CoreSVG 326-->
<!DOCTYPE svg
PUBLIC "-//W3C//DTD SVG 1.1//EN"
       "http://www.w3.org/Graphics/SVG/1.1/DTD/svg11.dtd">
<svg version="1.1" xmlns="http://www.w3.org/2000/svg" xmlns:xlink="http://www.w3.org/1999/xlink" viewBox="0 0 60.6445 42.9102">
 <g>
  <rect height="42.9102" opacity="0" width="60.6445" x="0" y="0"/>
  <path d="M30.1367 24.5312C30.9766 24.5312 31.7969 24.1992 32.6367 23.4375L57.6172 1.32812C56.3281 0.429688 54.7656 0.0195312 52.6562 0.0195312L7.59766 0.0195312C5.48828 0.0195312 3.94531 0.429688 2.63672 1.32812L27.6367 23.4375C28.4766 24.1992 29.2773 24.5312 30.1367 24.5312ZM0.78125 39.2188L19.5117 20.5078L0.703125 3.86719C0.332031 4.47266 0 5.80078 0 7.53906L0 35.3711C0 37.0312 0.292969 38.2617 0.78125 39.2188ZM7.01172 42.9102L53.2617 42.9102C55.1758 42.9102 56.5625 42.4414 57.5 41.7773L38.3398 22.6172L34.5703 25.957C33.1445 27.207 31.6602 27.832 30.1367 27.832C28.5938 27.832 27.1289 27.207 25.7031 25.957L21.9336 22.6172L2.75391 41.7773C3.69141 42.4414 5.09766 42.9102 7.01172 42.9102ZM59.4922 39.2188C59.9805 38.2617 60.2734 37.0312 60.2734 35.3711L60.2734 7.53906C60.2734 5.80078 59.9219 4.47266 59.5508 3.86719L40.7422 20.5078Z" fill="black" fill-opacity="0.85"/>
 </g>
</svg>
