<?xml version="1.0" encoding="UTF-8"?>
<!--Generator: Apple Native CoreSVG 326-->
<!DOCTYPE svg
PUBLIC "-//W3C//DTD SVG 1.1//EN"
       "http://www.w3.org/Graphics/SVG/1.1/DTD/svg11.dtd">
<svg version="1.1" xmlns="http://www.w3.org/2000/svg" xmlns:xlink="http://www.w3.org/1999/xlink" viewBox="0 0 60.6445 42.9102">
 <g>
  <rect height="42.9102" opacity="0" width="60.6445" x="0" y="0"/>
  <path d="M7.59766 42.9102L53.2617 42.9102C57.6953 42.9102 60.2734 40.3516 60.2734 35.3711L60.2734 7.53906C60.2734 2.55859 57.6758 0.0195312 52.6562 0.0195312L7.01172 0.0195312C2.57812 0.0195312 0 2.55859 0 7.53906L0 35.3711C0 40.3516 2.59766 42.9102 7.59766 42.9102ZM7.51953 39.6094C4.82422 39.6094 3.30078 38.125 3.30078 35.3516L3.30078 7.53906C3.30078 4.80469 4.82422 3.32031 7.51953 3.32031L52.7539 3.32031C55.4492 3.32031 56.9531 4.80469 56.9531 7.55859L56.9531 35.3711C56.9531 38.125 55.4492 39.6094 52.7539 39.6094ZM44.375 16.1328L50.7617 16.1328C51.8945 16.1328 52.7344 15.293 52.7344 14.1797L52.7344 9.51172C52.7344 8.37891 51.8945 7.53906 50.7617 7.53906L44.375 7.53906C43.2422 7.53906 42.4023 8.37891 42.4023 9.51172L42.4023 14.1797C42.4023 15.293 43.2422 16.1328 44.375 16.1328ZM20.4688 25.918L39.8047 25.918C40.5664 25.918 41.1719 25.3125 41.1719 24.5508C41.1719 23.8086 40.5664 23.2031 39.8047 23.2031L20.4688 23.2031C19.707 23.2031 19.082 23.8086 19.082 24.5508C19.082 25.3125 19.707 25.918 20.4688 25.918ZM20.4688 32.4023L35.1562 32.4023C35.918 32.4023 36.5234 31.7969 36.5234 31.0352C36.5234 30.2734 35.918 29.668 35.1562 29.668L20.4688 29.668C19.707 29.668 19.082 30.2734 19.082 31.0352C19.082 31.7969 19.707 32.4023 20.4688 32.4023Z" fill="black" fill-opacity="0.85"/>
 </g>
</svg>
