<?xml version="1.0" encoding="UTF-8"?>
<!--Generator: Apple Native CoreSVG 326-->
<!DOCTYPE svg
PUBLIC "-//W3C//DTD SVG 1.1//EN"
       "http://www.w3.org/Graphics/SVG/1.1/DTD/svg11.dtd">
<svg version="1.1" xmlns="http://www.w3.org/2000/svg" xmlns:xlink="http://www.w3.org/1999/xlink" viewBox="0 0 60.6445 58.8086">
 <g>
  <rect height="58.8086" opacity="0" width="60.6445" x="0" y="0"/>
  <path d="M60.2734 23.4375L60.2734 51.2891C60.2734 56.25 57.6953 58.8086 53.2617 58.8086L7.59766 58.8086C2.59766 58.8086 0 56.25 0 51.2891L0 23.4375C0 18.4766 2.57812 15.918 7.01172 15.918L25.3125 15.918L25.3125 19.2188L7.51953 19.2188C6.81191 19.2188 6.18506 19.3211 5.64772 19.5245L27.6367 39.3164C28.457 40.0586 29.2578 40.4102 30.1172 40.4102C30.9766 40.4102 31.7969 40.0586 32.6172 39.3164L54.5984 19.515C54.068 19.318 53.4508 19.2188 52.7539 19.2188L34.9609 19.2188L34.9609 15.918L52.6562 15.918C57.6758 15.918 60.2734 18.4766 60.2734 23.4375ZM34.5508 41.8555C33.1445 43.125 31.6797 43.7305 30.1172 43.7305C28.5547 43.7305 27.1094 43.125 25.7031 41.8555L21.9594 38.4898L5.36307 55.0861C5.96205 55.3654 6.68456 55.5078 7.51953 55.5078L52.7539 55.5078C53.5905 55.5078 54.3123 55.3648 54.9095 55.0853L38.3033 38.4791ZM40.6787 36.3418L56.8381 52.4838C56.9158 52.1197 56.9531 51.7199 56.9531 51.2891L56.9531 23.4766C56.9531 22.8853 56.8848 22.3527 56.7471 21.8843ZM3.30078 23.457L3.30078 51.2695C3.30078 51.7072 3.33926 52.1128 3.41909 52.4817L19.5826 36.353L3.5026 21.8969C3.36784 22.3574 3.30078 22.8793 3.30078 23.457Z" fill="black" fill-opacity="0.85"/>
  <path d="M30.1367 29.4922C31.1328 29.4922 31.8359 28.75 31.8359 27.6758L31.8359 15.8008C31.8359 11.8945 34.4531 8.67188 39.707 7.69531L40.2539 10.625C40.5078 11.9531 41.543 12.2266 42.5195 11.2305L47.7344 5.80078C48.5156 5 48.3008 4.04297 47.2852 3.57422L40.4297 0.527344C39.1797-0.0390625 38.3398 0.625 38.5938 1.91406L39.1406 4.78516C34.9219 5.70312 31.0742 8.28125 30.1367 10.918C29.1992 8.28125 25.332 5.70312 21.1328 4.78516L21.6797 1.91406C21.9141 0.625 21.0938-0.0390625 19.8242 0.527344L12.9883 3.57422C11.9531 4.04297 11.7383 5 12.5391 5.80078L17.7344 11.2305C18.7305 12.2266 19.7461 11.9531 20 10.625L20.5664 7.69531C25.8008 8.67188 28.418 11.8945 28.418 15.8008L28.418 27.6758C28.418 28.75 29.1211 29.4922 30.1367 29.4922Z" fill="black" fill-opacity="0.85"/>
 </g>
</svg>
