<?xml version="1.0" encoding="UTF-8"?>
<!--Generator: Apple Native CoreSVG 326-->
<!DOCTYPE svg
PUBLIC "-//W3C//DTD SVG 1.1//EN"
       "http://www.w3.org/Graphics/SVG/1.1/DTD/svg11.dtd">
<svg version="1.1" xmlns="http://www.w3.org/2000/svg" xmlns:xlink="http://www.w3.org/1999/xlink" viewBox="0 0 46.4453 45.957">
 <g>
  <rect height="45.957" opacity="0" width="46.4453" x="0" y="0"/>
  <path d="M0 38.4375C0 43.4375 2.55859 45.957 7.59766 45.957L9.58984 45.957L9.58984 41.0352C9.58984 40.2344 10.2148 39.6094 11.0352 39.6094C11.8359 39.6094 12.4414 40.2344 12.4414 41.0352L12.4414 45.957L17.6172 45.957L17.6172 41.0352C17.6172 40.2344 18.2422 39.6094 19.043 39.6094C19.8633 39.6094 20.4688 40.2344 20.4688 41.0352L20.4688 45.957L25.6445 45.957L25.6445 41.0352C25.6445 40.2344 26.25 39.6094 27.0898 39.6094C27.8906 39.6094 28.4961 40.2344 28.4961 41.0352L28.4961 45.957L33.6719 45.957L33.6719 41.0352C33.6719 40.2344 34.2969 39.6094 35.0977 39.6094C35.918 39.6094 36.5234 40.2344 36.5234 41.0352L36.5234 45.957L38.4766 45.957C43.5352 45.957 46.0742 43.418 46.0742 38.4375L46.0742 7.57812C46.0742 2.59766 43.5352 0.0585938 38.4766 0.0585938L36.5234 0.0585938L36.5234 4.98047C36.5234 5.78125 35.918 6.40625 35.0977 6.40625C34.2969 6.40625 33.6719 5.78125 33.6719 4.98047L33.6719 0.0585938L28.4961 0.0585938L28.4961 4.98047C28.4961 5.78125 27.8906 6.40625 27.0898 6.40625C26.25 6.40625 25.6445 5.78125 25.6445 4.98047L25.6445 0.0585938L20.4688 0.0585938L20.4688 4.98047C20.4688 5.78125 19.8633 6.40625 19.043 6.40625C18.2422 6.40625 17.6172 5.78125 17.6172 4.98047L17.6172 0.0585938L12.4414 0.0585938L12.4414 4.98047C12.4414 5.78125 11.8359 6.40625 11.0352 6.40625C10.2148 6.40625 9.58984 5.78125 9.58984 4.98047L9.58984 0.0585938L7.59766 0.0585938C2.55859 0.0585938 0 2.57812 0 7.57812ZM9.6875 31.0156L9.6875 15C9.6875 13.6133 10.6445 12.6758 12.0508 12.6758L34.0234 12.6758C35.4492 12.6758 36.3867 13.6133 36.3867 15L36.3867 31.0156C36.3867 32.4023 35.4492 33.3203 34.0234 33.3203L12.0508 33.3203C10.6445 33.3203 9.6875 32.4023 9.6875 31.0156Z" fill="black" fill-opacity="0.85"/>
 </g>
</svg>
