<?xml version="1.0" encoding="UTF-8"?>
<!--Generator: Apple Native CoreSVG 326-->
<!DOCTYPE svg
PUBLIC "-//W3C//DTD SVG 1.1//EN"
       "http://www.w3.org/Graphics/SVG/1.1/DTD/svg11.dtd">
<svg version="1.1" xmlns="http://www.w3.org/2000/svg" xmlns:xlink="http://www.w3.org/1999/xlink" viewBox="0 0 60.4102 49.8382">
 <g>
  <rect height="49.8382" opacity="0" width="60.4102" x="0" y="0"/>
  <path d="M60.0391 29.9093C60.0391 14.1867 47.9492 1.29605 32.5977 0.00698344C31.7969-0.0711416 31.1719 0.514796 31.1719 1.33511L31.1719 9.32339C31.1719 9.98745 31.6602 10.5148 32.3438 10.5734C41.9727 11.7453 49.4531 19.9484 49.4531 29.9093C49.4531 34.4406 47.9102 38.6007 45.1758 42.0382C44.8047 42.507 44.8242 43.0929 45.2344 43.5031L51.0352 49.3039C51.6211 49.8703 52.4609 49.8703 52.9688 49.2453C57.3828 44.0109 60.0391 37.2531 60.0391 29.9093Z" fill="black" fill-opacity="0.85"/>
  <path d="M0 29.9093C0 37.2726 2.65625 44.05 7.08984 49.2843C7.57812 49.8703 8.39844 49.8703 8.98438 49.3039L14.7852 43.5031C15.1953 43.0929 15.2148 42.507 14.8438 42.0382C12.1094 38.6007 10.5664 34.4406 10.5664 29.9093C10.5664 19.9484 18.0664 11.7453 27.6758 10.5734C28.3789 10.5148 28.8477 9.98745 28.8477 9.32339L28.8477 1.33511C28.8477 0.514796 28.2422-0.0711416 27.4414 0.00698344C12.0703 1.29605 0 14.1867 0 29.9093Z" fill="black" fill-opacity="0.85"/>
  <path d="M19.5508 39.9875L27.1484 39.9875C27.793 39.9875 28.2227 39.5968 28.2227 38.9328C28.2227 38.2882 27.793 37.8976 27.1484 37.8976L20.7617 37.8976L20.7617 31.0812L26.8555 31.0812C27.4414 31.0812 27.8516 30.671 27.8516 30.0656C27.8516 29.4796 27.4414 29.089 26.8555 29.089L20.7617 29.089L20.7617 22.6632L27.1484 22.6632C27.793 22.6632 28.2227 22.2726 28.2227 21.6085C28.2227 20.964 27.793 20.5734 27.1484 20.5734L19.5508 20.5734C18.8086 20.5734 18.3594 21.0617 18.3594 21.8234L18.3594 38.7375C18.3594 39.5187 18.7695 39.9875 19.5508 39.9875ZM32.2852 39.9875L41.6211 39.9875C42.2266 39.9875 42.6172 39.5578 42.6172 38.9328C42.6172 38.3273 42.2266 37.8976 41.6211 37.8976L33.8867 37.8976L33.8867 37.7609L42.0312 22.8781C42.2266 22.546 42.3828 22.1945 42.3828 21.7648C42.3828 21.0812 41.9141 20.5734 41.1328 20.5734L32.2266 20.5734C31.6016 20.5734 31.1328 20.9835 31.1328 21.6085C31.1328 22.2531 31.6016 22.6632 32.2266 22.6632L39.6484 22.6632L39.6484 22.7804L31.4062 37.7218C31.2109 38.0734 31.0742 38.4054 31.0742 38.796C31.0742 39.5968 31.6602 39.9875 32.2852 39.9875Z" fill="black" fill-opacity="0.85"/>
 </g>
</svg>
