<?xml version="1.0" encoding="UTF-8"?>
<!--Generator: Apple Native CoreSVG 326-->
<!DOCTYPE svg
PUBLIC "-//W3C//DTD SVG 1.1//EN"
       "http://www.w3.org/Graphics/SVG/1.1/DTD/svg11.dtd">
<svg version="1.1" xmlns="http://www.w3.org/2000/svg" xmlns:xlink="http://www.w3.org/1999/xlink" viewBox="0 0 46.2891 45.918">
 <g>
  <rect height="45.918" opacity="0" width="46.2891" x="0" y="0"/>
  <path d="M45.918 7.53906L45.918 38.3984C45.918 43.3594 43.3594 45.918 38.3008 45.918L7.59766 45.918C2.55859 45.918 0 43.3984 0 38.3984L0 7.53906C0 2.53906 2.55859 0 7.59766 0L38.3008 0C43.3594 0 45.918 2.55859 45.918 7.53906ZM11.6992 12.5391C10.8594 12.5391 10.4102 13.0469 10.4102 13.8867L10.4102 32.0898C10.4102 32.9492 10.8203 33.457 11.6992 33.457L19.8633 33.457C20.5859 33.457 21.0547 33.0273 21.0547 32.3242C21.0547 31.6211 20.5859 31.1719 19.8633 31.1719L13.0078 31.1719L13.0078 23.8672L19.5508 23.8672C20.2148 23.8672 20.6445 23.418 20.6445 22.7734C20.6445 22.1289 20.2148 21.6797 19.5508 21.6797L13.0078 21.6797L13.0078 14.8047L19.8633 14.8047C20.5859 14.8047 21.0547 14.3555 21.0547 13.6523C21.0547 12.9492 20.5859 12.5391 19.8633 12.5391ZM25.3711 12.5391C24.6875 12.5391 24.1992 12.9688 24.1992 13.6523C24.1992 14.3359 24.6875 14.8047 25.3711 14.8047L33.3398 14.8047L33.3398 14.9219L24.4727 30.9961C24.2578 31.3672 24.1211 31.7383 24.1211 32.1484C24.1211 33.0469 24.7656 33.457 25.4492 33.457L35.4883 33.457C36.1719 33.457 36.5625 32.9883 36.5625 32.3242C36.5625 31.6602 36.1719 31.1719 35.4883 31.1719L27.1484 31.1719L27.1484 31.0547L35.9375 15.0195C36.1523 14.668 36.3281 14.2773 36.3281 13.8477C36.3281 13.0859 35.8203 12.5391 34.9805 12.5391Z" fill="black" fill-opacity="0.85"/>
 </g>
</svg>
