<?xml version="1.0" encoding="UTF-8"?>
<!--Generator: Apple Native CoreSVG 326-->
<!DOCTYPE svg
PUBLIC "-//W3C//DTD SVG 1.1//EN"
       "http://www.w3.org/Graphics/SVG/1.1/DTD/svg11.dtd">
<svg version="1.1" xmlns="http://www.w3.org/2000/svg" xmlns:xlink="http://www.w3.org/1999/xlink" viewBox="0 0 60.4102 49.8382">
 <g>
  <rect height="49.8382" opacity="0" width="60.4102" x="0" y="0"/>
  <path d="M60.0391 29.9093C60.0391 14.1867 47.9492 1.29605 32.5977 0.00698344C31.7969-0.0711416 31.1719 0.514796 31.1719 1.33511L31.1719 9.32339C31.1719 9.98745 31.6602 10.5148 32.3438 10.5734C41.9727 11.7453 49.4531 19.9484 49.4531 29.9093C49.4531 34.4406 47.9102 38.6007 45.1758 42.0382C44.8047 42.507 44.8242 43.0929 45.2344 43.5031L51.0352 49.3039C51.6211 49.8703 52.4609 49.8703 52.9688 49.2453C57.3828 44.0109 60.0391 37.2531 60.0391 29.9093Z" fill="black" fill-opacity="0.85"/>
  <path d="M0 29.9093C0 37.2726 2.65625 44.05 7.08984 49.2843C7.57812 49.8703 8.39844 49.8703 8.98438 49.3039L14.7852 43.5031C15.1953 43.0929 15.2148 42.507 14.8438 42.0382C12.1094 38.6007 10.5664 34.4406 10.5664 29.9093C10.5664 19.9484 18.0664 11.7453 27.6758 10.5734C28.3789 10.5148 28.8477 9.98745 28.8477 9.32339L28.8477 1.33511C28.8477 0.514796 28.2422-0.0711416 27.4414 0.00698344C12.0703 1.29605 0 14.1867 0 29.9093Z" fill="black" fill-opacity="0.85"/>
  <path d="M33.0664 41.1789C33.75 41.1789 34.6094 41.1398 35.2734 41.0031C35.957 40.8273 36.4844 40.4953 36.4844 39.8117C36.4844 39.1085 35.9961 38.7765 35.293 38.7765C34.5703 38.7765 34.1992 38.8742 33.1836 38.8742C27.6758 38.8742 24.3555 35.6906 24.3555 30.1437C24.3555 24.675 27.5195 21.3742 33.125 21.3742C34.043 21.3742 34.8047 21.4914 35.293 21.4914C35.9961 21.4914 36.4844 21.1203 36.4844 20.4171C36.4844 19.7921 36.0742 19.421 35.2734 19.2257C34.6875 19.089 33.8867 19.0304 33.0664 19.0304C26.7383 19.0304 21.6797 22.7023 21.6797 30.1242C21.6797 37.1945 26.3086 41.1789 33.0664 41.1789ZM18.2031 27.8976C18.2031 28.3078 18.5547 28.6593 18.9648 28.6593L32.7344 28.6593C33.1641 28.6593 33.4961 28.3078 33.4961 27.8976C33.4961 27.4875 33.1641 27.1359 32.7344 27.1359L18.9648 27.1359C18.5547 27.1359 18.2031 27.4875 18.2031 27.8976ZM18.2031 32.3312C18.2031 32.7414 18.5547 33.0929 18.9648 33.0929L32.7344 33.0929C33.1641 33.0929 33.4961 32.7414 33.4961 32.3312C33.4961 31.921 33.1641 31.5695 32.7344 31.5695L18.9648 31.5695C18.5547 31.5695 18.2031 31.921 18.2031 32.3312Z" fill="black" fill-opacity="0.85"/>
 </g>
</svg>
