<?xml version="1.0" encoding="UTF-8"?>
<!--Generator: Apple Native CoreSVG 326-->
<!DOCTYPE svg
PUBLIC "-//W3C//DTD SVG 1.1//EN"
       "http://www.w3.org/Graphics/SVG/1.1/DTD/svg11.dtd">
<svg version="1.1" xmlns="http://www.w3.org/2000/svg" xmlns:xlink="http://www.w3.org/1999/xlink" viewBox="0 0 51.25 50.918">
 <g>
  <rect height="50.918" opacity="0" width="51.25" x="0" y="0"/>
  <path d="M25.4297 50.8789C39.4727 50.8789 50.8789 39.4922 50.8789 25.4492C50.8789 11.4062 39.4727 0 25.4297 0C11.3867 0 0 11.4062 0 25.4492C0 39.4922 11.3867 50.8789 25.4297 50.8789ZM25.4297 47.2461C13.3789 47.2461 3.63281 37.5 3.63281 25.4492C3.63281 13.3984 13.3789 3.65234 25.4297 3.65234C37.4805 3.65234 47.2266 13.3984 47.2266 25.4492C47.2266 37.5 37.4805 47.2461 25.4297 47.2461Z" fill="black" fill-opacity="0.85"/>
  <path d="M28.4961 36.3867C29.1602 36.3867 30.0195 36.3672 30.7031 36.2109C31.3867 36.0352 31.9141 35.7227 31.9141 35.0391C31.9141 34.3164 31.4258 33.9844 30.7227 33.9844C29.9805 33.9844 29.6289 34.082 28.6133 34.082C23.0859 34.082 19.7852 30.8984 19.7852 25.3516C19.7852 19.8828 22.9297 16.6016 28.5547 16.6016C29.4727 16.6016 30.2148 16.6992 30.7227 16.6992C31.4258 16.6992 31.9141 16.3477 31.9141 15.625C31.9141 15 31.5039 14.6289 30.7031 14.4336C30.0977 14.2969 29.2969 14.2578 28.4961 14.2578C22.168 14.2578 17.1094 17.9102 17.1094 25.332C17.1094 32.4023 21.7188 36.3867 28.4961 36.3867ZM13.6328 23.1055C13.6328 23.5156 13.9844 23.8672 14.3945 23.8672L28.1641 23.8672C28.5742 23.8672 28.9258 23.5156 28.9258 23.1055C28.9258 22.6953 28.5742 22.3438 28.1641 22.3438L14.3945 22.3438C13.9844 22.3438 13.6328 22.6953 13.6328 23.1055ZM13.6328 27.5391C13.6328 27.9492 13.9844 28.3008 14.3945 28.3008L28.1641 28.3008C28.5742 28.3008 28.9258 27.9492 28.9258 27.5391C28.9258 27.1289 28.5742 26.7773 28.1641 26.7773L14.3945 26.7773C13.9844 26.7773 13.6328 27.1289 13.6328 27.5391Z" fill="black" fill-opacity="0.85"/>
 </g>
</svg>
