<?xml version="1.0" encoding="UTF-8"?>
<!--Generator: Apple Native CoreSVG 326-->
<!DOCTYPE svg
PUBLIC "-//W3C//DTD SVG 1.1//EN"
       "http://www.w3.org/Graphics/SVG/1.1/DTD/svg11.dtd">
<svg version="1.1" xmlns="http://www.w3.org/2000/svg" xmlns:xlink="http://www.w3.org/1999/xlink" viewBox="0 0 56.2305 55.8789">
 <g>
  <rect height="55.8789" opacity="0" width="56.2305" x="0" y="0"/>
  <path d="M27.9297 55.8594C43.2812 55.8594 55.8594 43.3008 55.8594 27.9297C55.8594 12.5586 43.2812 0 27.9297 0C12.5781 0 0 12.5586 0 27.9297C0 43.3008 12.5781 55.8594 27.9297 55.8594ZM27.9297 46.6797C17.5586 46.6797 9.16016 38.3008 9.16016 27.9297C9.16016 17.5586 17.5586 9.16016 27.9297 9.16016C38.3008 9.16016 46.6992 17.5586 46.6992 27.9297C46.6992 38.3008 38.3008 46.6797 27.9297 46.6797Z" fill="black" fill-opacity="0.85"/>
  <path d="M30.9961 38.8672C31.6797 38.8672 32.5391 38.8477 33.2227 38.6914C33.9062 38.5156 34.4336 38.2031 34.4336 37.5195C34.4336 36.7969 33.9453 36.4648 33.2227 36.4648C32.5 36.4648 32.1289 36.5625 31.1133 36.5625C25.6055 36.5625 22.3047 33.3789 22.3047 27.832C22.3047 22.3633 25.4492 19.082 31.0547 19.082C31.9727 19.082 32.7344 19.1797 33.2227 19.1797C33.9453 19.1797 34.4336 18.8281 34.4336 18.1055C34.4336 17.4805 34.0234 17.1094 33.2227 16.9141C32.6172 16.7773 31.8164 16.7383 30.9961 16.7383C24.668 16.7383 19.6094 20.3906 19.6094 27.8125C19.6094 34.8828 24.2383 38.8672 30.9961 38.8672ZM16.1523 25.5859C16.1523 25.9961 16.4844 26.3477 16.9141 26.3477L30.6836 26.3477C31.0938 26.3477 31.4258 25.9961 31.4258 25.5859C31.4258 25.1758 31.0938 24.8242 30.6836 24.8242L16.9141 24.8242C16.4844 24.8242 16.1523 25.1758 16.1523 25.5859ZM16.1523 30.0195C16.1523 30.4297 16.4844 30.7812 16.9141 30.7812L30.6836 30.7812C31.0938 30.7812 31.4258 30.4297 31.4258 30.0195C31.4258 29.6094 31.0938 29.2578 30.6836 29.2578L16.9141 29.2578C16.4844 29.2578 16.1523 29.6094 16.1523 30.0195Z" fill="black" fill-opacity="0.85"/>
 </g>
</svg>
