<?xml version="1.0" encoding="UTF-8"?>
<!--Generator: Apple Native CoreSVG 326-->
<!DOCTYPE svg
PUBLIC "-//W3C//DTD SVG 1.1//EN"
       "http://www.w3.org/Graphics/SVG/1.1/DTD/svg11.dtd">
<svg version="1.1" xmlns="http://www.w3.org/2000/svg" xmlns:xlink="http://www.w3.org/1999/xlink" viewBox="0 0 60.4102 50.0586">
 <g>
  <rect height="50.0586" opacity="0" width="60.4102" x="0" y="0"/>
  <path d="M60.0391 30.0195C60.0391 22.6562 57.3828 15.918 52.9688 10.6836C52.4609 10.0781 51.6016 10.0977 51.0352 10.6641L45.3906 16.3086C44.9023 16.7969 44.8828 17.4805 45.3125 18.0273C47.9102 21.3477 49.4531 25.4883 49.4531 30.0195C49.4531 34.5508 47.9102 38.7109 45.1953 42.1484C44.8242 42.6172 44.8438 43.2031 45.2539 43.6133L51.0352 49.4141C51.6016 50 52.4414 49.9805 52.9688 49.375C57.3828 44.1406 60.0391 37.3633 60.0391 30.0195Z" fill="black" fill-opacity="0.85"/>
  <path d="M30.0195 10.5664C34.5508 10.5664 38.7305 12.1289 42.0508 14.7656C42.5781 15.1562 43.2227 15.1172 43.7109 14.6289L49.375 8.96484C49.9609 8.39844 49.9414 7.55859 49.3359 7.03125C44.1211 2.65625 37.3633 0 30.0195 0C22.6758 0 15.918 2.65625 10.7031 7.03125C10.0977 7.55859 10.0781 8.39844 10.6445 8.96484L16.3281 14.6289C16.7969 15.1172 17.5 15.1367 18.0469 14.707C21.3477 12.1289 25.5078 10.5664 30.0195 10.5664Z" fill="black" fill-opacity="0.85"/>
  <path d="M0 30.0195C0 37.3633 2.65625 44.1406 7.07031 49.375C7.57812 49.9805 8.4375 50 9.00391 49.4141L14.7852 43.6133C15.1758 43.2031 15.2148 42.6172 14.8438 42.1484C12.1289 38.7109 10.5664 34.5508 10.5664 30.0195C10.5664 25.4883 12.1094 21.3477 14.7266 18.0273C15.1367 17.4805 15.1367 16.7969 14.6484 16.3086L8.98438 10.6641C8.41797 10.0977 7.57812 10.0781 7.05078 10.6836C2.63672 15.918 0 22.6562 0 30.0195Z" fill="black" fill-opacity="0.85"/>
  <path d="M33.0664 41.2891C33.75 41.2891 34.6094 41.25 35.2734 41.1133C35.957 40.9375 36.4844 40.6055 36.4844 39.9219C36.4844 39.2188 35.9961 38.8867 35.293 38.8867C34.5703 38.8867 34.1992 38.9844 33.1836 38.9844C27.6758 38.9844 24.3555 35.8008 24.3555 30.2539C24.3555 24.7852 27.5195 21.4844 33.125 21.4844C34.043 21.4844 34.8047 21.6016 35.293 21.6016C35.9961 21.6016 36.4844 21.2305 36.4844 20.5273C36.4844 19.9023 36.0742 19.5312 35.2734 19.3359C34.6875 19.1992 33.8867 19.1406 33.0664 19.1406C26.7383 19.1406 21.6797 22.8125 21.6797 30.2344C21.6797 37.3047 26.3086 41.2891 33.0664 41.2891ZM18.2031 28.0078C18.2031 28.418 18.5547 28.7695 18.9648 28.7695L32.7344 28.7695C33.1641 28.7695 33.4961 28.418 33.4961 28.0078C33.4961 27.5977 33.1641 27.2461 32.7344 27.2461L18.9648 27.2461C18.5547 27.2461 18.2031 27.5977 18.2031 28.0078ZM18.2031 32.4414C18.2031 32.8516 18.5547 33.2031 18.9648 33.2031L32.7344 33.2031C33.1641 33.2031 33.4961 32.8516 33.4961 32.4414C33.4961 32.0312 33.1641 31.6797 32.7344 31.6797L18.9648 31.6797C18.5547 31.6797 18.2031 32.0312 18.2031 32.4414Z" fill="black" fill-opacity="0.85"/>
 </g>
</svg>
