<?xml version="1.0" encoding="UTF-8"?>
<!--Generator: Apple Native CoreSVG 326-->
<!DOCTYPE svg
PUBLIC "-//W3C//DTD SVG 1.1//EN"
       "http://www.w3.org/Graphics/SVG/1.1/DTD/svg11.dtd">
<svg version="1.1" xmlns="http://www.w3.org/2000/svg" xmlns:xlink="http://www.w3.org/1999/xlink" viewBox="0 0 51.25 50.918">
 <g>
  <rect height="50.918" opacity="0" width="51.25" x="0" y="0"/>
  <path d="M50.8789 25.4492C50.8789 39.4531 39.4531 50.8789 25.4297 50.8789C11.4258 50.8789 0 39.4531 0 25.4492C0 11.4258 11.4258 0 25.4297 0C39.4531 0 50.8789 11.4258 50.8789 25.4492ZM14.1602 15.0391C13.3398 15.0391 12.8711 15.5469 12.8711 16.3867L12.8711 34.5898C12.8711 35.4492 13.2812 35.957 14.1602 35.957L22.3242 35.957C23.0469 35.957 23.5156 35.5273 23.5156 34.8242C23.5156 34.1211 23.0469 33.6719 22.3242 33.6719L15.4883 33.6719L15.4883 26.3672L22.0117 26.3672C22.6758 26.3672 23.1055 25.918 23.1055 25.2734C23.1055 24.6289 22.6758 24.1797 22.0117 24.1797L15.4883 24.1797L15.4883 17.3047L22.3242 17.3047C23.0469 17.3047 23.5156 16.8555 23.5156 16.1523C23.5156 15.4492 23.0469 15.0391 22.3242 15.0391ZM27.832 15.0391C27.1484 15.0391 26.6602 15.4688 26.6602 16.1523C26.6602 16.8359 27.1484 17.3047 27.832 17.3047L35.8203 17.3047L35.8203 17.4219L26.9336 33.4961C26.7188 33.8672 26.582 34.2383 26.582 34.6484C26.582 35.5469 27.2266 35.957 27.9102 35.957L37.9492 35.957C38.6328 35.957 39.0234 35.4883 39.0234 34.8242C39.0234 34.1602 38.6328 33.6719 37.9492 33.6719L29.6094 33.6719L29.6094 33.5547L38.3984 17.5195C38.6133 17.168 38.7891 16.7773 38.7891 16.3477C38.7891 15.5859 38.2812 15.0391 37.4414 15.0391Z" fill="black" fill-opacity="0.85"/>
 </g>
</svg>
