<?xml version="1.0" encoding="UTF-8"?>
<!--Generator: Apple Native CoreSVG 326-->
<!DOCTYPE svg
PUBLIC "-//W3C//DTD SVG 1.1//EN"
       "http://www.w3.org/Graphics/SVG/1.1/DTD/svg11.dtd">
<svg version="1.1" xmlns="http://www.w3.org/2000/svg" xmlns:xlink="http://www.w3.org/1999/xlink" viewBox="0 0 77.1095 55.6445">
 <g>
  <rect height="55.6445" opacity="0" width="77.1095" x="0" y="0"/>
  <path d="M22.0704 53.9648L25.5079 53.9648L25.5079 6.42578C25.5079 4.49219 26.4845 3.47656 28.4571 3.47656L48.9845 3.47656C50.8985 3.47656 51.9337 4.49219 51.9337 6.42578L51.9532 53.9648L55.4102 53.9648L55.4102 6.36719C55.4102 2.26562 53.1641 0 49.043 0L28.3985 0C24.2579 0 22.0704 2.24609 22.0704 6.36719ZM29.4532 22.7148L47.9884 22.7148C48.9259 22.7148 49.6095 22.0117 49.6095 21.0742L49.6095 7.44141C49.6095 6.48438 48.9259 5.80078 47.9884 5.80078L29.4532 5.80078C28.5157 5.80078 27.8321 6.48438 27.8321 7.44141L27.8321 21.0742C27.8321 22.0117 28.4962 22.7148 29.4532 22.7148ZM18.3204 53.8672C18.3204 54.8438 19.0821 55.625 20.0196 55.625L57.4024 55.625C58.3399 55.625 59.1212 54.8438 59.1212 53.8672C59.1212 52.9492 58.3399 52.168 57.4024 52.168L20.0196 52.168C19.1016 52.168 18.3204 52.9297 18.3204 53.8672ZM68.8673 25.7031L68.8673 41.3477C68.8673 44.668 67.3438 46.6211 64.7657 46.6211C62.3829 46.6211 60.8595 44.9805 60.8595 42.3438C60.8595 38.7891 61.4649 33.8867 61.4649 29.4336C61.4649 25.1953 59.336 21.9531 54.3946 20.2344L53.3009 22.6562C57.1485 23.9062 58.8087 26.3867 58.8087 29.4336C58.8087 33.4375 58.2032 38.3203 58.2032 42.3438C58.2032 46.6016 60.7423 49.2773 64.7657 49.2773C69.043 49.2773 71.543 46.3672 71.543 41.3477L71.543 25.7031C71.543 23.4375 73.1641 22.793 74.336 21.8555C75.8399 20.7031 76.7384 19.1992 76.7384 17.2266L76.7384 13.7891C76.7384 13.2422 76.4063 12.8711 75.9571 12.8711L74.3165 12.8711L74.3165 8.37891C74.3165 7.73438 73.7891 7.20703 73.1446 7.20703C72.5196 7.20703 71.9923 7.73438 71.9923 8.37891L71.9923 12.8711L68.5938 12.8711L68.6134 8.37891C68.6134 7.73438 68.1055 7.20703 67.4805 7.20703C66.8165 7.20703 66.3282 7.73438 66.3282 8.37891L66.3282 12.8711L64.4532 12.8711C63.9649 12.8711 63.6524 13.2422 63.6524 13.7891L63.6524 17.2266C63.6524 19.1992 64.5509 20.7031 66.0548 21.8555C67.2266 22.793 68.8673 23.4375 68.8673 25.7031Z" fill="black" fill-opacity="0.85"/>
  <path d="M0.703201 26.6406C-0.214767 27.1875-0.25383 28.4375 0.703201 28.9844L13.7305 36.7188C14.7266 37.3047 15.879 36.8359 15.879 35.8203L15.879 19.7656C15.879 18.7695 14.668 18.3008 13.7305 18.8477Z" fill="black" fill-opacity="0.85"/>
 </g>
</svg>
