<?xml version="1.0" encoding="UTF-8"?>
<!--Generator: Apple Native CoreSVG 326-->
<!DOCTYPE svg
PUBLIC "-//W3C//DTD SVG 1.1//EN"
       "http://www.w3.org/Graphics/SVG/1.1/DTD/svg11.dtd">
<svg version="1.1" xmlns="http://www.w3.org/2000/svg" xmlns:xlink="http://www.w3.org/1999/xlink" viewBox="0 0 67.1484 67.2902">
 <g>
  <rect height="67.2902" opacity="0" width="67.1484" x="0" y="0"/>
  <path d="M15.9124 25.8411L15.8992 57.9908L42.3437 57.9908L42.3437 52.244L45.8008 55.6973L45.8008 57.9908L47.8125 57.9908C47.9201 57.9908 48.0257 58.0011 48.1279 58.0219L49.5024 59.3949C49.5219 59.4908 49.5312 59.5896 49.5312 59.69C49.5312 60.6666 48.75 61.4478 47.8125 61.4478L10.4297 61.4478C9.49219 61.4478 8.71094 60.6666 8.71094 59.69C8.71094 58.7525 9.51172 57.9908 10.4297 57.9908L12.4805 57.9908L12.4805 22.4129ZM64.7266 14.2018L64.7266 18.6939L66.3477 18.6939C66.8164 18.6939 67.1484 19.065 67.1484 19.6119L67.1484 23.0494C67.1484 25.0221 66.25 26.526 64.7461 27.6783C63.5742 28.6158 61.9336 29.2603 61.9336 31.526L61.9336 47.1705C61.9336 51.2759 60.2743 53.9702 57.3281 54.8129L54.9484 52.434C55.0215 52.4422 55.0982 52.4439 55.1758 52.4439C57.7539 52.4439 59.2773 50.4908 59.2773 47.1705L59.2773 31.526C59.2773 29.2603 57.6367 28.6158 56.4453 27.6783C54.9609 26.526 54.043 25.0221 54.043 23.0494L54.043 19.6119C54.043 19.065 54.375 18.6939 54.8633 18.6939L56.7383 18.6939L56.7383 14.2018C56.7383 13.5572 57.2266 13.0299 57.8906 13.0299C58.5156 13.0299 59.0234 13.5572 59.0234 14.2018L59.0039 18.6939L62.4023 18.6939L62.3828 14.2018C62.3828 13.5572 62.9297 13.0299 63.5352 13.0299C64.1992 13.0299 64.7266 13.5572 64.7266 14.2018ZM45.8008 12.19L45.8008 26.4522C50.0235 28.2458 51.875 31.3219 51.875 35.2564C51.875 39.7096 51.2695 44.6119 51.2695 48.1666C51.2695 48.3822 51.2797 48.5911 51.3034 48.7903L48.6595 46.1474C48.7934 42.5856 49.2188 38.6123 49.2188 35.2564C49.2188 32.8375 48.1724 30.7755 45.8008 29.4055L45.8008 43.2897L42.3437 39.8339L42.3438 12.2486C42.3438 10.315 41.2891 9.29941 39.375 9.29941L18.8672 9.29941C16.875 9.29941 15.918 10.315 15.918 12.2486L15.9175 13.4172L12.686 10.1868C13.308 7.34546 15.3799 5.82285 18.7891 5.82285L39.4531 5.82285C43.5547 5.82285 45.8008 8.08847 45.8008 12.19ZM40.0195 13.2643L40.0195 26.8971C40.0195 27.8346 39.3359 28.5377 38.3789 28.5377L31.0434 28.5377L18.2422 15.7411L18.2422 13.2643C18.2422 12.3072 18.9258 11.6236 19.8633 11.6236L38.3789 11.6236C39.3164 11.6236 40.0195 12.3072 40.0195 13.2643Z" fill="black" fill-opacity="0.85"/>
  <path d="M58.0469 64.0846C58.7109 64.7486 59.7656 64.7486 60.3906 64.0846C61.0547 63.4205 61.0742 62.3658 60.3906 61.7213L6.11328 7.483C5.48828 6.83847 4.41406 6.81894 3.75 7.483C3.10547 8.108 3.10547 9.20175 3.75 9.82675Z" fill="black" fill-opacity="0.85"/>
 </g>
</svg>
