<?xml version="1.0" encoding="UTF-8"?>
<!--Generator: Apple Native CoreSVG 326-->
<!DOCTYPE svg
PUBLIC "-//W3C//DTD SVG 1.1//EN"
       "http://www.w3.org/Graphics/SVG/1.1/DTD/svg11.dtd">
<svg version="1.1" xmlns="http://www.w3.org/2000/svg" xmlns:xlink="http://www.w3.org/1999/xlink" viewBox="0 0 51.25 50.918">
 <g>
  <rect height="50.918" opacity="0" width="51.25" x="0" y="0"/>
  <path d="M50.8789 25.4492C50.8789 39.4531 39.4531 50.8789 25.4297 50.8789C11.4258 50.8789 0 39.4531 0 25.4492C0 11.4258 11.4258 0 25.4297 0C39.4531 0 50.8789 11.4258 50.8789 25.4492ZM27.7344 35L25.4102 37.3438L23.0859 35C22.6562 34.5898 21.9922 34.5703 21.5625 35C21.1328 35.4492 21.1523 36.1133 21.5625 36.543L23.9062 38.8672L21.5625 41.1719C21.1523 41.6211 21.1328 42.2852 21.5625 42.7148C21.9922 43.1445 22.6562 43.125 23.0859 42.7148L25.4102 40.3711L27.7344 42.7148C28.1641 43.125 28.8281 43.1445 29.2773 42.7148C29.707 42.2852 29.6875 41.6211 29.2773 41.1719L26.9336 38.8672L29.2773 36.543C29.6875 36.1133 29.707 35.4492 29.2773 35C28.8281 34.5703 28.1641 34.5898 27.7344 35ZM7.67578 25.4492C7.67578 29.707 11.1328 33.1445 15.3906 33.1445C19.6289 33.1445 23.0859 29.707 23.0859 25.4492C23.0859 21.1914 19.6289 17.7344 15.3906 17.7344C11.1328 17.7344 7.67578 21.1914 7.67578 25.4492ZM27.793 25.4492C27.793 29.707 31.2305 33.1445 35.4883 33.1445C39.7461 33.1445 43.2031 29.707 43.2031 25.4492C43.2031 21.1914 39.7461 17.7344 35.4883 17.7344C31.2305 17.7344 27.793 21.1914 27.793 25.4492ZM27.7344 8.14453L25.4102 10.4883L23.0859 8.14453C22.6367 7.71484 21.9922 7.71484 21.5625 8.14453C21.1523 8.57422 21.1523 9.23828 21.5625 9.6875L23.9062 11.9922L21.5625 14.3164C21.1523 14.7461 21.1523 15.4102 21.5625 15.8594C21.9922 16.2695 22.6562 16.2695 23.0859 15.8594L25.4102 13.5156L27.7344 15.8594C28.1641 16.2695 28.8281 16.2695 29.2773 15.8594C29.707 15.4102 29.707 14.7656 29.2773 14.3164L26.9336 11.9922L29.2773 9.6875C29.707 9.21875 29.707 8.57422 29.2773 8.14453C28.8281 7.71484 28.1836 7.71484 27.7344 8.14453Z" fill="black" fill-opacity="0.85"/>
 </g>
</svg>
