<?xml version="1.0" encoding="UTF-8"?>
<!--Generator: Apple Native CoreSVG 326-->
<!DOCTYPE svg
PUBLIC "-//W3C//DTD SVG 1.1//EN"
       "http://www.w3.org/Graphics/SVG/1.1/DTD/svg11.dtd">
<svg version="1.1" xmlns="http://www.w3.org/2000/svg" xmlns:xlink="http://www.w3.org/1999/xlink" viewBox="0 0 51.25 50.918">
 <g>
  <rect height="50.918" opacity="0" width="51.25" x="0" y="0"/>
  <path d="M25.4297 50.8789C39.4727 50.8789 50.8789 39.4922 50.8789 25.4492C50.8789 11.4062 39.4727 0 25.4297 0C11.3867 0 0 11.4062 0 25.4492C0 39.4922 11.3867 50.8789 25.4297 50.8789ZM25.4297 47.2461C13.3789 47.2461 3.63281 37.5 3.63281 25.4492C3.63281 13.3984 13.3789 3.65234 25.4297 3.65234C37.4805 3.65234 47.2266 13.3984 47.2266 25.4492C47.2266 37.5 37.4805 47.2461 25.4297 47.2461Z" fill="black" fill-opacity="0.85"/>
  <path d="M15.625 32.9688C19.7656 32.9688 23.1445 29.6094 23.1445 25.4492C23.1445 21.2891 19.7656 17.9297 15.625 17.9297C11.4648 17.9297 8.08594 21.2891 8.08594 25.4492C8.08594 29.6094 11.4648 32.9688 15.625 32.9688ZM35.2539 32.9688C39.4141 32.9688 42.7734 29.6094 42.7734 25.4492C42.7734 21.2891 39.4141 17.9297 35.2539 17.9297C31.0938 17.9297 27.7344 21.2891 27.7344 25.4492C27.7344 29.6094 31.0938 32.9688 35.2539 32.9688ZM21.6602 16.0742C22.0703 16.4844 22.7148 16.4844 23.1445 16.0742L25.4102 13.7891L27.6953 16.0742C28.1055 16.4844 28.75 16.4844 29.1602 16.0742C29.6094 15.6445 29.6094 15.0391 29.1602 14.5898L26.8945 12.3242L29.1602 10.0391C29.6094 9.60938 29.6094 8.98438 29.1602 8.55469C28.75 8.125 28.125 8.125 27.6953 8.55469L25.4102 10.8398L23.1445 8.55469C22.6953 8.125 22.0703 8.125 21.6602 8.55469C21.25 8.98438 21.25 9.62891 21.6602 10.0391L23.9453 12.3242L21.6602 14.5898C21.25 15.0195 21.25 15.6445 21.6602 16.0742ZM21.6602 42.3047C22.0703 42.7344 22.7148 42.7148 23.1445 42.3047L25.4102 40.0195L27.6953 42.3047C28.1055 42.7148 28.75 42.7344 29.1602 42.3047C29.6094 41.875 29.5898 41.25 29.1602 40.8203L26.8945 38.5547L29.1602 36.2695C29.5898 35.8594 29.6094 35.2148 29.1602 34.7852C28.75 34.3555 28.1055 34.375 27.6953 34.7852L25.4102 37.0703L23.1445 34.7852C22.7148 34.375 22.0703 34.3555 21.6602 34.7852C21.2305 35.2148 21.25 35.8594 21.6602 36.2695L23.9453 38.5547L21.6602 40.8203C21.25 41.25 21.2305 41.875 21.6602 42.3047Z" fill="black" fill-opacity="0.85"/>
 </g>
</svg>
