<?xml version="1.0" encoding="UTF-8"?>
<!--Generator: Apple Native CoreSVG 326-->
<!DOCTYPE svg
PUBLIC "-//W3C//DTD SVG 1.1//EN"
       "http://www.w3.org/Graphics/SVG/1.1/DTD/svg11.dtd">
<svg version="1.1" xmlns="http://www.w3.org/2000/svg" xmlns:xlink="http://www.w3.org/1999/xlink" viewBox="0 0 42.8125 62.832">
 <g>
  <rect height="62.832" opacity="0" width="42.8125" x="0" y="0"/>
  <path d="M21.25 36.4844C31.2109 36.4844 39.4922 28.2031 39.4922 18.2422C39.4922 8.28125 31.1719 0 21.2109 0C11.25 0 3.00781 8.28125 3.00781 18.2422C3.00781 28.2031 11.2891 36.4844 21.25 36.4844ZM21.25 33.3203C12.8516 33.3203 6.19141 26.6406 6.19141 18.2422C6.19141 9.82422 12.832 3.16406 21.2109 3.16406C29.6289 3.16406 36.3281 9.84375 36.3281 18.2422C36.3281 26.6406 29.6484 33.3203 21.25 33.3203ZM12.4023 62.8125L30.0391 62.8125C37.0898 62.8125 42.4414 57.4023 42.4414 50.4102C42.4414 43.4375 37.0898 38.0273 30.0391 38.0273L12.4023 38.0273C5.35156 38.0273 0 43.4375 0 50.4102C0 57.4023 5.35156 62.8125 12.4023 62.8125ZM12.4023 59.6484C7.10938 59.6484 3.125 55.6836 3.125 50.4102C3.125 45.1367 7.10938 41.1914 12.4023 41.1914L30.0391 41.1914C35.332 41.1914 39.3164 45.1367 39.3164 50.4102C39.3164 55.6836 35.332 59.6484 30.0391 59.6484Z" fill="black" fill-opacity="0.85"/>
  <path d="M14.7656 16.9141C17.0508 16.9141 18.8867 15.0781 18.8867 12.793C18.8867 10.5078 17.0508 8.67188 14.7656 8.67188C12.4609 8.67188 10.6445 10.5078 10.6445 12.793C10.6445 15.0781 12.4609 16.9141 14.7656 16.9141ZM27.6758 16.9141C29.9609 16.9141 31.7969 15.0781 31.7969 12.793C31.7969 10.5078 29.9609 8.67188 27.6758 8.67188C25.3906 8.67188 23.5547 10.5078 23.5547 12.793C23.5547 15.0781 25.3906 16.9141 27.6758 16.9141ZM12.3242 25.4883C13.9453 25.4883 15.2344 24.2188 15.2344 22.5977C15.2344 20.9961 13.9453 19.707 12.3242 19.707C10.7227 19.707 9.43359 20.9961 9.43359 22.5977C9.43359 24.2188 10.7227 25.4883 12.3242 25.4883ZM30.1172 25.4883C31.7188 25.4883 33.0078 24.2188 33.0078 22.5977C33.0078 20.9961 31.7188 19.707 30.1172 19.707C28.4961 19.707 27.207 20.9961 27.207 22.5977C27.207 24.2188 28.4961 25.4883 30.1172 25.4883ZM21.2109 31.4844C23.5156 31.4844 25.332 29.6484 25.332 27.3633C25.332 25.0586 23.5156 23.2422 21.2109 23.2422C18.9258 23.2422 17.0898 25.0586 17.0898 27.3633C17.0898 29.6484 18.9258 31.4844 21.2109 31.4844ZM12.3633 57.1484C16.0938 57.1484 19.082 54.1406 19.082 50.4102C19.082 46.6797 16.0938 43.6914 12.3633 43.6914C8.63281 43.6914 5.625 46.6797 5.625 50.4102C5.625 54.1406 8.63281 57.1484 12.3633 57.1484ZM30.0781 57.1484C33.8086 57.1484 36.8164 54.1406 36.8164 50.4102C36.8164 46.6797 33.8086 43.6914 30.0781 43.6914C26.3477 43.6914 23.3594 46.6797 23.3594 50.4102C23.3594 54.1406 26.3477 57.1484 30.0781 57.1484Z" fill="black" fill-opacity="0.85"/>
 </g>
</svg>
