<?xml version="1.0" encoding="UTF-8"?>
<!--Generator: Apple Native CoreSVG 326-->
<!DOCTYPE svg
PUBLIC "-//W3C//DTD SVG 1.1//EN"
       "http://www.w3.org/Graphics/SVG/1.1/DTD/svg11.dtd">
<svg version="1.1" xmlns="http://www.w3.org/2000/svg" xmlns:xlink="http://www.w3.org/1999/xlink" viewBox="0 0 60.5859 53.0664">
 <g>
  <rect height="53.0664" opacity="0" width="60.5859" x="0" y="0"/>
  <path d="M51.2305 2.89062C56.5234 7.92969 60.2148 15.4883 60.2148 23.8867C60.2148 39.7852 46.9531 53.0078 30.0977 53.0078C13.2422 53.0078 0 39.7852 0 23.8867C0 15.4883 3.67188 7.92969 8.96484 2.89062C11.0938 0.898438 13.3789 0 16.5625 0L43.6328 0C46.8164 0 49.1016 0.898438 51.2305 2.89062ZM15.5664 37.6367C15.5664 41.2305 18.4961 44.1211 22.0703 44.1211C25.625 44.1211 28.5352 41.2305 28.5352 37.6367C28.5352 34.043 25.625 31.1328 22.0703 31.1328C18.4961 31.1328 15.5664 34.043 15.5664 37.6367ZM31.6602 37.6367C31.6602 41.2305 34.5703 44.1211 38.125 44.1211C41.6992 44.1211 44.6289 41.2305 44.6289 37.6367C44.6289 34.043 41.6992 31.1328 38.125 31.1328C34.5703 31.1328 31.6602 34.043 31.6602 37.6367ZM7.51953 23.8477C7.51953 27.4414 10.4297 30.332 14.0039 30.332C17.5781 30.332 20.5078 27.4414 20.5078 23.8477C20.5078 20.2734 17.5781 17.3828 14.0039 17.3828C10.4297 17.3828 7.51953 20.2734 7.51953 23.8477ZM23.6328 23.8477C23.6328 27.4414 26.543 30.332 30.0977 30.332C33.6523 30.332 36.582 27.4414 36.582 23.8477C36.582 20.2734 33.6523 17.3828 30.0977 17.3828C26.543 17.3828 23.6328 20.2734 23.6328 23.8477ZM39.6875 23.8477C39.6875 27.4414 42.6172 30.332 46.1914 30.332C49.7656 30.332 52.6758 27.4414 52.6758 23.8477C52.6758 20.2734 49.7656 17.3828 46.1914 17.3828C42.6172 17.3828 39.6875 20.2734 39.6875 23.8477ZM17.4023 12.0508C17.4023 14.6094 19.4922 16.6992 22.0703 16.6992C24.6289 16.6992 26.7188 14.6094 26.7188 12.0508C26.7188 9.49219 24.6289 7.40234 22.0703 7.40234C19.4922 7.40234 17.4023 9.49219 17.4023 12.0508ZM33.4766 12.0508C33.4766 14.6094 35.5664 16.6992 38.125 16.6992C40.7031 16.6992 42.8125 14.6094 42.8125 12.0508C42.8125 9.49219 40.7031 7.40234 38.125 7.40234C35.5664 7.40234 33.4766 9.49219 33.4766 12.0508Z" fill="black" fill-opacity="0.85"/>
 </g>
</svg>
