<?xml version="1.0" encoding="UTF-8"?>
<!--Generator: Apple Native CoreSVG 326-->
<!DOCTYPE svg
PUBLIC "-//W3C//DTD SVG 1.1//EN"
       "http://www.w3.org/Graphics/SVG/1.1/DTD/svg11.dtd">
<svg version="1.1" xmlns="http://www.w3.org/2000/svg" xmlns:xlink="http://www.w3.org/1999/xlink" viewBox="0 0 51.25 50.918">
 <g>
  <rect height="50.918" opacity="0" width="51.25" x="0" y="0"/>
  <path d="M50.8789 25.4688C50.8789 39.4922 39.4531 50.918 25.4297 50.918C11.4258 50.918 0 39.4922 0 25.4688C0 11.4648 11.4258 0.0390625 25.4297 0.0390625C39.4531 0.0390625 50.8789 11.4648 50.8789 25.4688ZM16.9336 13.9453C13.3594 13.9453 11.3086 16.0156 11.3086 19.5508L11.3086 29.7852C11.3086 33.3789 13.3594 35.4492 16.9336 35.4492L17.7148 35.4492L17.7148 39.1797C17.7148 39.8828 18.0859 40.332 18.7109 40.332C19.1602 40.332 19.4727 40.1367 19.9805 39.6484L24.668 35.4492L33.9258 35.4492C37.5195 35.4492 39.5508 33.3594 39.5508 29.7852L39.5508 19.5508C39.5508 16.0156 37.5195 13.9453 33.9258 13.9453ZM26.8359 29.9805C26.8359 30.7227 26.1523 31.3086 25.4297 31.3086C24.707 31.3086 24.043 30.7227 24.043 29.9805C24.043 29.2383 24.668 28.6133 25.4297 28.6133C26.1914 28.6133 26.8359 29.2188 26.8359 29.9805ZM26.543 19.082L26.3867 26.1328C26.3867 26.7578 26.0156 27.1484 25.4297 27.1484C24.8242 27.1484 24.4922 26.7578 24.4727 26.1328L24.3164 19.082C24.2969 18.457 24.7656 17.9883 25.4102 17.9883C26.0742 17.9883 26.5625 18.457 26.543 19.082Z" fill="black" fill-opacity="0.85"/>
 </g>
</svg>
