<?xml version="1.0" encoding="UTF-8"?>
<!--Generator: Apple Native CoreSVG 326-->
<!DOCTYPE svg
PUBLIC "-//W3C//DTD SVG 1.1//EN"
       "http://www.w3.org/Graphics/SVG/1.1/DTD/svg11.dtd">
<svg version="1.1" xmlns="http://www.w3.org/2000/svg" xmlns:xlink="http://www.w3.org/1999/xlink" viewBox="0 0 51.25 50.918">
 <g>
  <rect height="50.918" opacity="0" width="51.25" x="0" y="0"/>
  <path d="M25.4297 50.8789C39.4727 50.8789 50.8789 39.4922 50.8789 25.4492C50.8789 11.4062 39.4727 0 25.4297 0C11.3867 0 0 11.4062 0 25.4492C0 39.4922 11.3867 50.8789 25.4297 50.8789ZM25.4297 47.2461C13.3789 47.2461 3.63281 37.5 3.63281 25.4492C3.63281 13.3984 13.3789 3.65234 25.4297 3.65234C37.4805 3.65234 47.2266 13.3984 47.2266 25.4492C47.2266 37.5 37.4805 47.2461 25.4297 47.2461Z" fill="black" fill-opacity="0.85"/>
  <path d="M25.3906 29.9805C26.4453 29.9805 27.0703 29.3555 27.0898 28.2031L27.4023 14.7852C27.4219 13.6523 26.543 12.8125 25.3711 12.8125C24.1797 12.8125 23.3594 13.6328 23.3789 14.7656L23.6719 28.2031C23.6914 29.3359 24.3164 29.9805 25.3906 29.9805ZM25.3906 37.9297C26.7383 37.9297 27.8711 36.8555 27.8711 35.5273C27.8711 34.1797 26.7578 33.125 25.3906 33.125C24.043 33.125 22.9297 34.1992 22.9297 35.5273C22.9297 36.8359 24.0625 37.9297 25.3906 37.9297Z" fill="black" fill-opacity="0.85"/>
 </g>
</svg>
