<?xml version="1.0" encoding="UTF-8"?>
<!--Generator: Apple Native CoreSVG 326-->
<!DOCTYPE svg
PUBLIC "-//W3C//DTD SVG 1.1//EN"
       "http://www.w3.org/Graphics/SVG/1.1/DTD/svg11.dtd">
<svg version="1.1" xmlns="http://www.w3.org/2000/svg" xmlns:xlink="http://www.w3.org/1999/xlink" viewBox="0 0 6.66016 47.9883">
 <g>
  <rect height="47.9883" opacity="0" width="6.66016" x="0" y="0"/>
  <path d="M3.16406 34.2773C4.29688 34.2773 5.07812 33.5352 5.09766 32.3633L5.27344 2.28516C5.27344 2.28516 5.27344 2.28516 5.27344 2.28516C5.27344 1.05469 4.29688 0.234375 3.14453 0.234375C1.99219 0.234375 1.01562 1.05469 1.01562 2.28516C1.01562 2.28516 1.01562 2.28516 1.01562 2.28516L1.23047 32.3633C1.25 33.5352 2.03125 34.2773 3.16406 34.2773ZM3.14453 47.9883C4.88281 47.9883 6.28906 46.5625 6.28906 44.8438C6.28906 43.0859 4.88281 41.6992 3.14453 41.6992C1.42578 41.6992 0 43.0859 0 44.8438C0 46.5625 1.42578 47.9883 3.14453 47.9883Z" fill="black" fill-opacity="0.85"/>
 </g>
</svg>
