<?xml version="1.0" encoding="UTF-8"?>
<!--Generator: Apple Native CoreSVG 326-->
<!DOCTYPE svg
PUBLIC "-//W3C//DTD SVG 1.1//EN"
       "http://www.w3.org/Graphics/SVG/1.1/DTD/svg11.dtd">
<svg version="1.1" xmlns="http://www.w3.org/2000/svg" xmlns:xlink="http://www.w3.org/1999/xlink" viewBox="0 0 51.25 50.918">
 <g>
  <rect height="50.918" opacity="0" width="51.25" x="0" y="0"/>
  <path d="M50.8789 25.4492C50.8789 39.4531 39.4531 50.8789 25.4297 50.8789C11.4258 50.8789 0 39.4531 0 25.4492C0 11.4258 11.4258 0 25.4297 0C39.4531 0 50.8789 11.4258 50.8789 25.4492ZM22.8711 35.7812C22.8711 37.1289 24.0625 38.2422 25.4297 38.2422C26.8164 38.2422 27.9883 37.1484 27.9883 35.7812C27.9883 34.3945 26.8359 33.3008 25.4297 33.3008C24.043 33.3008 22.8711 34.4141 22.8711 35.7812ZM23.3594 14.5117L23.6523 28.2617C23.6719 29.4336 24.3164 30.0977 25.4297 30.0977C26.5234 30.0977 27.1484 29.4531 27.168 28.2617L27.5 14.5312C27.5195 13.3594 26.6211 12.5 25.4102 12.5C24.1797 12.5 23.3398 13.3398 23.3594 14.5117Z" fill="black" fill-opacity="0.85"/>
 </g>
</svg>
