<?xml version="1.0" encoding="UTF-8"?>
<!--Generator: Apple Native CoreSVG 326-->
<!DOCTYPE svg
PUBLIC "-//W3C//DTD SVG 1.1//EN"
       "http://www.w3.org/Graphics/SVG/1.1/DTD/svg11.dtd">
<svg version="1.1" xmlns="http://www.w3.org/2000/svg" xmlns:xlink="http://www.w3.org/1999/xlink" viewBox="0 0 42.7734 47.9883">
 <g>
  <rect height="47.9883" opacity="0" width="42.7734" x="0" y="0"/>
  <path d="M39.2773 34.2773C40.4102 34.2773 41.1914 33.5352 41.2109 32.3633L41.3867 2.28516C41.3867 2.28516 41.3867 2.28516 41.3867 2.28516C41.3867 1.05469 40.4297 0.234375 39.2578 0.234375C38.1055 0.234375 37.1289 1.05469 37.1289 2.28516C37.1289 2.28516 37.1289 2.28516 37.1289 2.28516L37.3438 32.3633C37.3633 33.5352 38.1445 34.2773 39.2773 34.2773ZM39.2578 47.9883C41.0156 47.9883 42.4023 46.5625 42.4023 44.8438C42.4023 43.0859 41.0156 41.6992 39.2578 41.6992C37.5391 41.6992 36.1133 43.0859 36.1133 44.8438C36.1133 46.5625 37.5391 47.9883 39.2578 47.9883Z" fill="black" fill-opacity="0.85"/>
  <path d="M21.2305 34.2773C22.3633 34.2773 23.1445 33.5352 23.1641 32.3633L23.3398 2.28516C23.3398 2.28516 23.3398 2.28516 23.3398 2.28516C23.3398 1.05469 22.3633 0.234375 21.2109 0.234375C20.0391 0.234375 19.082 1.05469 19.082 2.28516C19.082 2.28516 19.082 2.28516 19.082 2.28516L19.2969 32.3633C19.3164 33.5352 20.0781 34.2773 21.2305 34.2773ZM21.2109 47.9883C22.9492 47.9883 24.3555 46.5625 24.3555 44.8438C24.3555 43.0859 22.9492 41.6992 21.2109 41.6992C19.4727 41.6992 18.0664 43.0859 18.0664 44.8438C18.0664 46.5625 19.4727 47.9883 21.2109 47.9883Z" fill="black" fill-opacity="0.85"/>
  <path d="M3.16406 34.2773C4.29688 34.2773 5.07812 33.5352 5.09766 32.3633L5.27344 2.28516C5.27344 2.28516 5.27344 2.28516 5.27344 2.28516C5.27344 1.05469 4.29688 0.234375 3.14453 0.234375C1.99219 0.234375 1.01562 1.05469 1.01562 2.28516C1.01562 2.28516 1.01562 2.28516 1.01562 2.28516L1.23047 32.3633C1.25 33.5352 2.03125 34.2773 3.16406 34.2773ZM3.14453 47.9883C4.88281 47.9883 6.28906 46.5625 6.28906 44.8438C6.28906 43.0859 4.88281 41.6992 3.14453 41.6992C1.42578 41.6992 0 43.0859 0 44.8438C0 46.5625 1.42578 47.9883 3.14453 47.9883Z" fill="black" fill-opacity="0.85"/>
 </g>
</svg>
