<?xml version="1.0" encoding="UTF-8"?>
<!--Generator: Apple Native CoreSVG 326-->
<!DOCTYPE svg
PUBLIC "-//W3C//DTD SVG 1.1//EN"
       "http://www.w3.org/Graphics/SVG/1.1/DTD/svg11.dtd">
<svg version="1.1" xmlns="http://www.w3.org/2000/svg" xmlns:xlink="http://www.w3.org/1999/xlink" viewBox="0 0 51.1133 54.1211">
 <g>
  <rect height="54.1211" opacity="0" width="51.1133" x="0" y="0"/>
  <path d="M27.0898 43.2116C28.7277 43.7528 30.0371 45.0491 30.5949 46.6797L45.9375 46.6797C46.875 46.6797 47.6562 47.4609 47.6562 48.3984C47.6562 49.3555 46.875 50.1367 45.9375 50.1367L30.6344 50.1367C29.9192 52.3716 27.8173 54.0039 25.3711 54.0039C22.9249 54.0039 20.8103 52.3716 20.0902 50.1367L4.80469 50.1367C3.86719 50.1367 3.06641 49.3555 3.06641 48.3984C3.06641 47.4609 3.86719 46.6797 4.80469 46.6797L20.1299 46.6797C20.6895 45.0549 21.9993 43.7622 23.6328 43.2181L23.6328 36.7188L27.0898 36.7188Z" fill="black" fill-opacity="0.85"/>
  <path d="M8.65234 16.6992L42.0703 16.6992C44.1016 16.6992 45.9961 17.168 47.5977 18.0078L42.0312 4.92188C40.6836 1.69922 37.9297 0 34.2969 0L16.4453 0C12.793 0 10.0391 1.69922 8.71094 4.92188L3.14453 18.0078C4.74609 17.168 6.62109 16.6992 8.65234 16.6992ZM8.65234 36.7188L42.0703 36.7188C47.1484 36.7188 50.7422 33.1445 50.7422 28.125C50.7422 23.0859 47.1484 19.4531 42.0703 19.4531L8.65234 19.4531C3.59375 19.4531 0 23.0859 0 28.125C0 33.1445 3.59375 36.7188 8.65234 36.7188ZM38.9648 28.125C38.9648 26.6211 40.2539 25.332 41.7773 25.332C43.2617 25.332 44.5703 26.6211 44.5703 28.125C44.5703 29.6484 43.2617 30.8984 41.7773 30.8984C40.2539 30.8984 38.9648 29.6875 38.9648 28.125Z" fill="black" fill-opacity="0.85"/>
 </g>
</svg>
