<?xml version="1.0" encoding="UTF-8"?>
<!--Generator: Apple Native CoreSVG 326-->
<!DOCTYPE svg
PUBLIC "-//W3C//DTD SVG 1.1//EN"
       "http://www.w3.org/Graphics/SVG/1.1/DTD/svg11.dtd">
<svg version="1.1" xmlns="http://www.w3.org/2000/svg" xmlns:xlink="http://www.w3.org/1999/xlink" viewBox="0 0 46.2891 45.918">
 <g>
  <rect height="45.918" opacity="0" width="46.2891" x="0" y="0"/>
  <path d="M45.918 7.53906L45.918 38.3984C45.918 43.3594 43.3594 45.918 38.3008 45.918L7.59766 45.918C2.55859 45.918 0 43.3984 0 38.3984L0 7.53906C0 2.53906 2.55859 0 7.59766 0L38.3008 0C43.3594 0 45.918 2.55859 45.918 7.53906ZM5.89844 22.9492C5.89844 25.4883 13.0273 33.7109 22.9688 33.7109C32.9883 33.7109 40.0391 25.4883 40.0391 22.9492C40.0391 20.4102 32.9492 12.1875 22.9688 12.1875C12.9297 12.1875 5.89844 20.4102 5.89844 22.9492ZM30.0391 22.9492C30.0391 26.7773 26.8555 30 22.9688 30C19.043 30 15.8984 26.7773 15.8789 22.9492C15.8789 19.0234 19.043 15.8984 22.9688 15.8984C26.8555 15.8984 30.0391 19.0234 30.0391 22.9492ZM19.9805 22.9492C19.9805 24.5312 21.3672 25.918 23.0078 25.918C24.5898 25.918 25.957 24.5312 25.957 22.9492C25.957 21.3477 24.5898 19.9805 23.0078 19.9805C21.3672 19.9805 19.9805 21.3477 19.9805 22.9492Z" fill="black" fill-opacity="0.85"/>
 </g>
</svg>
