<?xml version="1.0" encoding="UTF-8"?>
<!--Generator: Apple Native CoreSVG 326-->
<!DOCTYPE svg
PUBLIC "-//W3C//DTD SVG 1.1//EN"
       "http://www.w3.org/Graphics/SVG/1.1/DTD/svg11.dtd">
<svg version="1.1" xmlns="http://www.w3.org/2000/svg" xmlns:xlink="http://www.w3.org/1999/xlink" viewBox="0 0 68.0469 42.6758">
 <g>
  <rect height="42.6758" opacity="0" width="68.0469" x="0" y="0"/>
  <path d="M33.8477 42.6367C53.75 42.6367 67.6758 26.3672 67.6758 21.3281C67.6758 16.25 53.6914 0 33.8477 0C14.1797 0 0 16.25 0 21.3281C0 26.3672 14.1406 42.6367 33.8477 42.6367ZM33.8477 35.3516C26.1133 35.3516 19.8242 29.0625 19.8242 21.3281C19.8242 13.5742 26.1133 7.28516 33.8477 7.28516C41.582 7.28516 47.8711 13.5742 47.8711 21.3281C47.8711 29.0625 41.582 35.3516 33.8477 35.3516ZM33.8477 26.25C36.582 26.25 38.7891 24.0625 38.7891 21.3281C38.7891 18.5938 36.582 16.3867 33.8477 16.3867C31.1133 16.3867 28.9062 18.5938 28.9062 21.3281C28.9062 24.0625 31.1133 26.25 33.8477 26.25Z" fill="black" fill-opacity="0.85"/>
 </g>
</svg>
