<?xml version="1.0" encoding="UTF-8"?>
<!--Generator: Apple Native CoreSVG 326-->
<!DOCTYPE svg
PUBLIC "-//W3C//DTD SVG 1.1//EN"
       "http://www.w3.org/Graphics/SVG/1.1/DTD/svg11.dtd">
<svg version="1.1" xmlns="http://www.w3.org/2000/svg" xmlns:xlink="http://www.w3.org/1999/xlink" viewBox="0 0 51.5857 43.3008">
 <g>
  <rect height="43.3008" opacity="0" width="51.5857" x="0" y="0"/>
  <path d="M45.8808 30.0781C47.619 28.2227 45.0409 25.6055 43.0292 27.5977C39.6503 30.957 33.9276 33.0469 27.5995 33.0469C20.7245 33.0469 14.162 31.5039 7.87294 28.0664C5.45107 26.7383 3.65419 30.1758 6.13466 31.5039C12.8729 35.0586 20.1776 36.8359 27.5995 36.8359C35.1776 36.8359 41.8378 34.3555 45.8808 30.0781ZM10.2948 32.9492C9.68935 34.043 8.49794 35.8984 7.73622 36.6992C6.19325 38.3008 8.41982 40.2734 9.96279 38.5938C11.4081 36.9922 12.619 34.6484 13.1268 33.8281ZM19.2597 35.2539C18.7714 37.4414 18.0487 39.707 17.6386 40.6836C16.7597 42.7148 19.5331 43.8086 20.3925 41.6797C21.2323 39.6094 21.8183 36.6797 21.9745 35.6836ZM28.9667 35.7422C29.2597 37.9688 29.1425 40.3906 29.0839 41.4258C28.9667 43.6328 31.955 43.6914 32.0136 41.4258C32.0722 39.1992 31.8378 36.2109 31.662 35.2148ZM38.0878 33.6133C39.2792 35.9961 39.7089 38.5547 39.9433 39.6484C40.3729 41.8359 43.2831 40.8594 42.7948 38.8867C42.1308 36.2695 41.2909 33.4961 40.412 32.168Z" fill="black" fill-opacity="0.85"/>
  <path d="M5.0995 19.8047C9.72841 19.8047 25.6464 8.37891 33.5175 8.37891C36.2909 8.37891 38.7128 9.53125 41.33 11.9141L47.6386 17.7344C49.4354 19.375 52.0526 17.4219 50.9393 15.5469C49.8065 13.7109 47.8925 10.9766 44.494 7.20703C40.3534 2.61719 36.7987 0 31.2714 0C24.0058 0 12.912 4.14062 2.26747 9.76562C-2.06846 12.0703 0.333879 19.8047 5.0995 19.8047Z" fill="black" fill-opacity="0.85"/>
 </g>
</svg>
