<?xml version="1.0" encoding="UTF-8"?>
<!--Generator: Apple Native CoreSVG 326-->
<!DOCTYPE svg
PUBLIC "-//W3C//DTD SVG 1.1//EN"
       "http://www.w3.org/Graphics/SVG/1.1/DTD/svg11.dtd">
<svg version="1.1" xmlns="http://www.w3.org/2000/svg" xmlns:xlink="http://www.w3.org/1999/xlink" viewBox="0 0 79.3945 57.1973">
 <g>
  <rect height="57.1973" opacity="0" width="79.3945" x="0" y="0"/>
  <path d="M22.2565 16.8535C21.6144 16.7315 20.9504 16.6748 20.2734 16.6748C13.6719 16.6748 8.32031 22.0069 8.32031 28.6084C8.32031 35.21 13.6719 40.5616 20.2734 40.5616C26.8555 40.5616 32.207 35.1905 32.207 28.6084C32.207 27.9282 32.1499 27.2612 32.027 26.6161L35.7234 30.3095C34.8819 38.1046 28.2918 44.1748 20.2734 44.1748C12.1874 44.1748 5.51926 38.0017 4.76371 30.1123L1.75781 30.1123C0.605469 30.1123 0 29.5264 0 28.3741L0 27.4756C0 26.3233 0.605469 25.7373 1.75781 25.7373L4.96413 25.7373C6.20246 19.0674 11.714 13.8936 18.5436 13.1436ZM74.0405 25.7373L77.2656 25.7373C78.418 25.7373 79.0234 26.3233 79.0234 27.4756L79.0234 28.3741C79.0234 29.5264 78.418 30.1123 77.2656 30.1123L74.2404 30.1123C73.5818 37.0146 68.4092 42.603 61.7204 43.8858L58.3747 40.5416C58.5035 40.5594 58.6362 40.5616 58.7695 40.5616C65.3516 40.5616 70.7031 35.21 70.7031 28.6084C70.7031 22.0069 65.3516 16.6748 58.7695 16.6748C52.168 16.6748 46.8164 22.0264 46.8164 28.6084C46.8164 28.7433 46.8187 28.8777 46.8366 29.0081L42.2437 24.4171C42.7319 24.5196 43.2135 24.657 43.6654 24.8294C45.3403 18.0569 51.4649 13.042 58.7695 13.042C66.3639 13.042 72.7019 18.5121 74.0405 25.7373Z" fill="black" fill-opacity="0.85"/>
  <path d="M63.2617 53.9795C63.9258 54.6241 64.9805 54.6241 65.625 53.9795C66.2695 53.3155 66.2695 52.2803 65.625 51.6163L17.2461 3.27641C16.6016 2.63188 15.5273 2.61235 14.8633 3.27641C14.2383 3.90141 14.2383 4.99516 14.8633 5.62016Z" fill="black" fill-opacity="0.85"/>
 </g>
</svg>
