<?xml version="1.0" encoding="UTF-8"?>
<!--Generator: Apple Native CoreSVG 326-->
<!DOCTYPE svg
PUBLIC "-//W3C//DTD SVG 1.1//EN"
       "http://www.w3.org/Graphics/SVG/1.1/DTD/svg11.dtd">
<svg version="1.1" xmlns="http://www.w3.org/2000/svg" xmlns:xlink="http://www.w3.org/1999/xlink" viewBox="0 0 58.2422 45.4492">
 <g>
  <rect height="45.4492" opacity="0" width="58.2422" x="0" y="0"/>
  <path d="M13.4961 45.4492C21.0156 45.4492 27.0117 36.1523 27.0117 22.7148C27.0117 9.25781 21.0156 0 13.4961 0C5.97656 0 0 9.25781 0 22.7148C0 36.1523 5.97656 45.4492 13.4961 45.4492ZM13.4961 42.3828C7.83203 42.4023 3.125 34.2969 3.125 22.7148C3.125 11.2109 7.83203 3.10547 13.4961 3.06641C19.2383 3.04688 23.9453 11.1328 23.9453 22.7148C23.9453 34.2383 19.2383 42.3438 13.4961 42.3828ZM7.94922 31.4648C12.0703 31.4648 14.8242 28.5938 14.8242 24.2578C14.8242 19.9609 12.0703 17.0703 7.94922 17.0703C3.80859 17.0703 1.07422 19.9609 1.07422 24.2578C1.07422 28.5938 3.80859 31.4648 7.94922 31.4648ZM5.95703 23.457C5.09766 23.3398 4.53125 22.2852 4.72656 21.1914C4.96094 20.1172 5.80078 19.3359 6.64062 19.4922C7.53906 19.668 8.06641 20.7031 7.85156 21.7578C7.65625 22.8516 6.83594 23.6133 5.95703 23.457ZM44.3555 45.4492C51.875 45.4492 57.8711 36.1523 57.8711 22.7148C57.8711 9.25781 51.875 0 44.3555 0C36.8359 0 30.8594 9.25781 30.8594 22.7148C30.8594 36.1523 36.8359 45.4492 44.3555 45.4492ZM44.3555 42.3633C38.6523 42.3633 33.9453 34.2773 33.9453 22.7148C33.9453 11.2109 38.6328 3.10547 44.3555 3.08594C50.0586 3.08594 54.7656 11.1719 54.7656 22.7148C54.7656 34.2578 50.0586 42.3438 44.3555 42.3633ZM38.7891 31.4648C42.8906 31.4648 45.6836 28.5938 45.6836 24.2578C45.6836 19.9609 42.8906 17.0703 38.7891 17.0703C34.6484 17.0703 31.8945 19.9609 31.8945 24.2578C31.8945 28.5938 34.6484 31.4648 38.7891 31.4648ZM36.7969 23.457C35.918 23.3203 35.3516 22.2852 35.5859 21.1914C35.8008 20.1172 36.6211 19.3359 37.4805 19.4922C38.3789 19.6484 38.9062 20.7031 38.6914 21.7578C38.4766 22.8516 37.6562 23.6133 36.7969 23.457Z" fill="black" fill-opacity="0.85"/>
 </g>
</svg>
