<?xml version="1.0" encoding="UTF-8"?>
<!--Generator: Apple Native CoreSVG 326-->
<!DOCTYPE svg
PUBLIC "-//W3C//DTD SVG 1.1//EN"
       "http://www.w3.org/Graphics/SVG/1.1/DTD/svg11.dtd">
<svg version="1.1" xmlns="http://www.w3.org/2000/svg" xmlns:xlink="http://www.w3.org/1999/xlink" viewBox="0 0 51.25 50.918">
 <g>
  <rect height="50.918" opacity="0" width="51.25" x="0" y="0"/>
  <path d="M25.4297 50.8789C39.4727 50.8789 50.8789 39.4922 50.8789 25.4492C50.8789 11.4062 39.4727 0 25.4297 0C11.3867 0 0 11.4062 0 25.4492C0 39.4922 11.3867 50.8789 25.4297 50.8789ZM25.4297 47.2461C13.3789 47.2461 3.63281 37.5 3.63281 25.4492C3.63281 13.3984 13.3789 3.65234 25.4297 3.65234C37.4805 3.65234 47.2266 13.3984 47.2266 25.4492C47.2266 37.5 37.4805 47.2461 25.4297 47.2461Z" fill="black" fill-opacity="0.85"/>
  <path d="M19.8438 36.9336C20.9766 36.9336 21.6016 36.1914 21.6016 35.0195L21.6016 26.7383L30.9766 26.7383C31.8359 26.7383 32.4414 26.2305 32.4414 25.3906C32.4414 24.4922 31.8359 23.9844 30.9766 23.9844L21.6016 23.9844L21.6016 16.7383L31.9336 16.7383C32.8125 16.7383 33.3984 16.1523 33.3984 15.293C33.3984 14.4141 32.8125 13.8672 31.9336 13.8672L19.8242 13.8672C18.7305 13.8672 18.1445 14.6484 18.1445 15.8008L18.1445 35.0195C18.1445 36.1523 18.75 36.9336 19.8438 36.9336Z" fill="black" fill-opacity="0.85"/>
 </g>
</svg>
