<?xml version="1.0" encoding="UTF-8"?>
<!--Generator: Apple Native CoreSVG 326-->
<!DOCTYPE svg
PUBLIC "-//W3C//DTD SVG 1.1//EN"
       "http://www.w3.org/Graphics/SVG/1.1/DTD/svg11.dtd">
<svg version="1.1" xmlns="http://www.w3.org/2000/svg" xmlns:xlink="http://www.w3.org/1999/xlink" viewBox="0 0 51.25 50.918">
 <g>
  <rect height="50.918" opacity="0" width="51.25" x="0" y="0"/>
  <path d="M50.8789 25.4492C50.8789 39.4531 39.4531 50.8789 25.4297 50.8789C11.4258 50.8789 0 39.4531 0 25.4492C0 11.4258 11.4258 0 25.4297 0C39.4531 0 50.8789 11.4258 50.8789 25.4492ZM33.2812 32.4414C31.5039 33.5547 29.1602 34.7461 25.4297 34.7461C21.6992 34.7461 19.375 33.5352 17.5586 32.4414C17.1094 32.207 16.5625 32.4414 16.5625 32.9883C16.5625 34.6289 20.1367 38.2031 25.4297 38.2031C30.7031 38.2031 34.2969 34.6289 34.2969 32.9883C34.2969 32.4414 33.75 32.207 33.2812 32.4414ZM14.8242 19.6289C14.8242 21.6016 16.1914 23.0469 17.7539 23.0469C19.3164 23.0469 20.7031 21.6016 20.7031 19.6289C20.7031 17.6367 19.3359 16.1719 17.7539 16.1719C16.1719 16.1719 14.8242 17.6367 14.8242 19.6289ZM30.1758 19.6289C30.1758 21.6016 31.5625 23.0469 33.1055 23.0469C34.6875 23.0469 36.0547 21.6016 36.0547 19.6289C36.0547 17.6367 34.6875 16.1719 33.1055 16.1719C31.543 16.1719 30.1758 17.6367 30.1758 19.6289Z" fill="black" fill-opacity="0.85"/>
 </g>
</svg>
