<?xml version="1.0" encoding="UTF-8"?>
<!--Generator: Apple Native CoreSVG 326-->
<!DOCTYPE svg
PUBLIC "-//W3C//DTD SVG 1.1//EN"
       "http://www.w3.org/Graphics/SVG/1.1/DTD/svg11.dtd">
<svg version="1.1" xmlns="http://www.w3.org/2000/svg" xmlns:xlink="http://www.w3.org/1999/xlink" viewBox="0 0 49.0039 48.6914">
 <g>
  <rect height="48.6914" opacity="0" width="49.0039" x="0" y="0"/>
  <path d="M1.73828 15.7031C2.85156 15.7031 3.45703 15.0586 3.45703 13.9453L3.45703 7.77344C3.45703 4.96094 4.94141 3.51562 7.67578 3.51562L13.9648 3.51562C15.0781 3.51562 15.7227 2.89062 15.7227 1.79688C15.7227 0.683594 15.0781 0.0585938 13.9648 0.0585938L7.59766 0.0585938C2.55859 0.0585938 0 2.57812 0 7.57812L0 13.9453C0 15.0586 0.625 15.7031 1.73828 15.7031ZM46.8945 15.7031C48.0273 15.7031 48.6328 15.0586 48.6328 13.9453L48.6328 7.57812C48.6328 2.61719 46.0938 0.0585938 41.0352 0.0585938L34.668 0.0585938C33.5547 0.0585938 32.9102 0.683594 32.9102 1.79688C32.9102 2.89062 33.5547 3.51562 34.668 3.51562L40.957 3.51562C43.6328 3.51562 45.1758 4.96094 45.1758 7.77344L45.1758 13.9453C45.1758 15.0586 45.8008 15.7031 46.8945 15.7031ZM7.59766 48.6914L13.9648 48.6914C15.0781 48.6914 15.7227 48.0664 15.7227 46.9531C15.7227 45.8594 15.0781 45.2344 13.9648 45.2344L7.67578 45.2344C4.94141 45.2344 3.45703 43.7891 3.45703 40.9766L3.45703 34.8047C3.45703 33.6914 2.83203 33.0469 1.73828 33.0469C0.605469 33.0469 0 33.6914 0 34.8047L0 41.1719C0 46.1719 2.55859 48.6914 7.59766 48.6914ZM34.668 48.6914L41.0352 48.6914C46.0938 48.6914 48.6328 46.1328 48.6328 41.1719L48.6328 34.8047C48.6328 33.6914 48.0078 33.0469 46.8945 33.0469C45.7812 33.0469 45.1758 33.6914 45.1758 34.8047L45.1758 40.9766C45.1758 43.7891 43.6328 45.2344 40.957 45.2344L34.668 45.2344C33.5547 45.2344 32.9102 45.8594 32.9102 46.9531C32.9102 48.0664 33.5547 48.6914 34.668 48.6914Z" fill="black" fill-opacity="0.85"/>
  <path d="M14.8633 22.5C15.8203 22.5 16.5234 21.7969 16.5234 20.8203L16.5234 17.0898C16.5234 16.1328 15.8203 15.4297 14.8633 15.4297C13.9062 15.4297 13.2031 16.1328 13.2031 17.0898L13.2031 20.8203C13.2031 21.7969 13.9062 22.5 14.8633 22.5ZM22.2656 28.3984C22.3242 28.3984 22.4023 28.3984 22.5 28.3984C24.9023 28.3984 26.1914 27.1094 26.1914 24.6875L26.1914 16.8164C26.1914 15.9766 25.6055 15.3906 24.7656 15.3906C23.9258 15.3906 23.3398 15.9766 23.3398 16.8164L23.3398 24.9219C23.3398 25.293 23.0859 25.5078 22.7539 25.5078L21.8945 25.5078C21.0938 25.5078 20.4883 26.0938 20.4883 26.8945C20.4883 27.8516 21.1328 28.3984 22.2656 28.3984ZM33.6328 22.5C34.5703 22.5 35.2734 21.7969 35.2734 20.8203L35.2734 17.0898C35.2734 16.1328 34.5703 15.4297 33.6328 15.4297C32.6562 15.4297 31.9531 16.1328 31.9531 17.0898L31.9531 20.8203C31.9531 21.7969 32.6562 22.5 33.6328 22.5ZM24.1406 36.6602C27.0898 36.6602 30.0977 35.3906 32.2461 33.2422C32.5 32.9883 32.6562 32.6172 32.6562 32.1484C32.6562 31.3281 32.0312 30.7617 31.25 30.7617C30.8203 30.7617 30.5078 30.8984 30.0586 31.3672C28.6523 32.8125 26.4062 33.8281 24.1406 33.8281C21.9531 33.8281 19.707 32.8516 18.2227 31.3672C17.8516 30.9961 17.5391 30.7617 17.0117 30.7617C16.2109 30.7617 15.5859 31.3281 15.5859 32.1484C15.5859 32.5586 15.7617 32.9102 16.0352 33.2227C18.0664 35.4688 21.1523 36.6602 24.1406 36.6602Z" fill="black" fill-opacity="0.85"/>
 </g>
</svg>
