<?xml version="1.0" encoding="UTF-8"?>
<!--Generator: Apple Native CoreSVG 326-->
<!DOCTYPE svg
PUBLIC "-//W3C//DTD SVG 1.1//EN"
       "http://www.w3.org/Graphics/SVG/1.1/DTD/svg11.dtd">
<svg version="1.1" xmlns="http://www.w3.org/2000/svg" xmlns:xlink="http://www.w3.org/1999/xlink" viewBox="0 0 50.4297 57.207">
 <g>
  <rect height="57.207" opacity="0" width="50.4297" x="0" y="0"/>
  <path d="M50.0586 25.0195C50.0586 38.2812 39.7656 49.1016 26.7578 50L26.7578 52.9688L35.7812 52.9688C37.8906 52.9688 39.1992 54.1406 39.1992 55.7812C39.1992 56.6211 38.6719 57.207 37.8516 57.207L12.2266 57.207C11.4062 57.207 10.8789 56.6211 10.8789 55.7812C10.8789 54.1406 12.1875 52.9688 14.2969 52.9688L23.3008 52.9688L23.3008 50C10.2734 49.1211 0 38.2812 0 25.0195C0 11.1914 11.1914 0 25.0195 0C38.8672 0 50.0586 11.2109 50.0586 25.0195ZM8.65234 16.7383C8.65234 20.625 11.875 22.7344 17.9102 24.707C17.8906 25.2344 17.9297 25.7812 18.0078 26.2891L11.7969 26.2891C8.82812 26.2891 7.24609 27.7539 7.24609 30.6445C7.24609 36.0156 12.0508 41.3672 16.7188 41.3672C20.625 41.3672 22.7148 38.1445 24.707 32.1289C25.2539 32.1484 25.8008 32.1094 26.2891 32.0312L26.2891 38.2422C26.2891 41.1914 27.7539 42.7734 30.6445 42.7734C35.9961 42.7734 41.3672 37.9883 41.3672 33.3008C41.3672 29.4141 38.1445 27.3047 32.1289 25.332C32.1484 24.7656 32.1289 24.2188 32.0508 23.7305L38.2227 23.7305C41.1914 23.7305 42.7734 22.2852 42.7734 19.375C42.7734 14.0234 37.9883 8.67188 33.3008 8.67188C29.3945 8.67188 27.3047 11.8945 25.3125 17.9102C24.7852 17.8906 24.2383 17.9102 23.7305 18.0078L23.7305 11.7969C23.7305 8.82812 22.2656 7.26562 19.375 7.26562C14.0234 7.26562 8.65234 12.0508 8.65234 16.7383ZM28.8672 25.0195C28.8672 27.1289 27.1484 28.8477 25.0195 28.8477C22.9102 28.8477 21.1914 27.1289 21.1914 25.0195C21.1914 22.8906 22.9102 21.1719 25.0195 21.1719C27.1484 21.1719 28.8672 22.8906 28.8672 25.0195Z" fill="black" fill-opacity="0.85"/>
 </g>
</svg>
