<?xml version="1.0" encoding="UTF-8"?>
<!--Generator: Apple Native CoreSVG 326-->
<!DOCTYPE svg
PUBLIC "-//W3C//DTD SVG 1.1//EN"
       "http://www.w3.org/Graphics/SVG/1.1/DTD/svg11.dtd">
<svg version="1.1" xmlns="http://www.w3.org/2000/svg" xmlns:xlink="http://www.w3.org/1999/xlink" viewBox="0 0 40.2539 57.207">
 <g>
  <rect height="57.207" opacity="0" width="40.2539" x="0" y="0"/>
  <path d="M39.8828 19.9414C39.8828 30.3711 31.8945 38.9258 21.6797 39.8047L21.6797 52.9688L28.8086 52.9688C30.918 52.9688 32.2266 54.1406 32.2266 55.7812C32.2266 56.6211 31.6992 57.207 30.8789 57.207L9.00391 57.207C8.18359 57.207 7.65625 56.6211 7.65625 55.7812C7.65625 54.1406 8.96484 52.9688 11.0742 52.9688L18.2227 52.9688L18.2227 39.8047C8.00781 38.9258 0 30.3906 0 19.9414C0 8.92578 8.92578 0 19.9414 0C30.957 0 39.8828 8.92578 39.8828 19.9414ZM7.10938 13.418C7.10938 16.4844 9.58984 18.125 14.2578 19.6484C14.2383 20.1172 14.2578 20.5469 14.3359 20.918L9.55078 20.918C7.24609 20.918 5.99609 22.0898 5.99609 24.3359C5.99609 28.5547 9.76562 32.7734 13.4375 32.7734C16.4844 32.7734 18.125 30.293 19.6484 25.625C20.1172 25.6445 20.5469 25.625 20.9375 25.5469L20.9375 30.3516C20.9375 32.6367 22.0898 33.8867 24.3359 33.8867C28.5742 33.8867 32.7734 30.1172 32.7734 26.4453C32.7734 23.3984 30.293 21.7578 25.6445 20.2344C25.6641 19.7656 25.625 19.3359 25.5469 18.9453L30.3516 18.9453C32.6367 18.9453 33.9062 17.793 33.9062 15.5469C33.9062 11.3086 30.1367 7.10938 26.4648 7.10938C23.3984 7.10938 21.7578 9.58984 20.2344 14.2383C19.7656 14.2188 19.3359 14.2578 18.9648 14.3359L18.9648 9.53125C18.9648 7.24609 17.793 5.97656 15.5469 5.97656C11.3281 5.97656 7.10938 9.76562 7.10938 13.418ZM22.9297 19.9414C22.9297 21.582 21.6016 22.9102 19.9609 22.9102C18.3203 22.9102 16.9922 21.582 16.9922 19.9414C16.9922 18.3008 18.3203 16.9727 19.9609 16.9727C21.6016 16.9727 22.9297 18.3008 22.9297 19.9414Z" fill="black" fill-opacity="0.85"/>
 </g>
</svg>
