<?xml version="1.0" encoding="UTF-8"?>
<!--Generator: Apple Native CoreSVG 326-->
<!DOCTYPE svg
PUBLIC "-//W3C//DTD SVG 1.1//EN"
       "http://www.w3.org/Graphics/SVG/1.1/DTD/svg11.dtd">
<svg version="1.1" xmlns="http://www.w3.org/2000/svg" xmlns:xlink="http://www.w3.org/1999/xlink" viewBox="0 0 56.5625 54.3555">
 <g>
  <rect height="54.3555" opacity="0" width="56.5625" x="0" y="0"/>
  <path d="M46.2891 7.32422L46.2891 9.02344L42.9102 9.02344L42.9102 7.10938C42.9102 4.82422 41.8555 3.76953 39.5703 3.76953L16.6211 3.76953C14.3359 3.76953 13.2812 4.82422 13.2812 7.10938L13.2813 9.02344L9.90234 9.02344L9.90234 7.32422C9.90234 2.67578 12.3828 0.605469 16.6602 0.605469L39.5312 0.605469C44.0039 0.605469 46.2891 2.67578 46.2891 7.32422Z" fill="black" fill-opacity="0.85"/>
  <path d="M56.1914 16.1133L56.1914 39.7461C56.1914 44.4531 53.7305 46.8359 49.0039 46.8359L46.1523 46.8359L46.1523 43.5742L49.043 43.5742C51.5039 43.5742 52.6953 42.3438 52.6953 39.9023L52.6953 15.957C52.6953 13.5156 51.5039 12.3047 49.043 12.3047L7.14844 12.3047C4.6875 12.3047 3.47656 13.5156 3.47656 15.957L3.47656 39.9023C3.47656 42.3438 4.6875 43.5742 7.14844 43.5742L10.0391 43.5742L10.0391 46.8359L7.1875 46.8359C2.46094 46.8359 0 44.4531 0 39.7461L0 16.1133C0 11.4062 2.67578 9.02344 7.1875 9.02344L49.0039 9.02344C53.7305 9.02344 56.1914 11.4062 56.1914 16.1133Z" fill="black" fill-opacity="0.85"/>
  <path d="M18.0664 26.6992L18.0664 28.9062C18.0664 29.5898 17.6562 30 16.9531 30L14.7656 30C14.0625 30 13.6523 29.5898 13.6523 28.9062L13.6523 26.6992C13.6523 26.0156 14.0625 25.5859 14.7656 25.5859L16.9531 25.5859C17.6562 25.5859 18.0664 26.0156 18.0664 26.6992ZM26.2305 26.6992L26.2305 28.9062C26.2305 29.5898 25.8203 30 25.1172 30L22.9102 30C22.2266 30 21.8164 29.5898 21.8164 28.9062L21.8164 26.6992C21.8164 26.0156 22.2266 25.5859 22.9102 25.5859L25.1172 25.5859C25.8203 25.5859 26.2305 26.0156 26.2305 26.6992ZM34.375 26.6992L34.375 28.9062C34.375 29.5898 33.9648 30 33.2617 30L31.0742 30C30.3711 30 29.9609 29.5898 29.9609 28.9062L29.9609 26.6992C29.9609 26.0156 30.3711 25.5859 31.0742 25.5859L33.2617 25.5859C33.9648 25.5859 34.375 26.0156 34.375 26.6992ZM42.5391 26.6992L42.5391 28.9062C42.5391 29.5898 42.1289 30 41.4258 30L39.2383 30C38.5352 30 38.125 29.5898 38.125 28.9062L38.125 26.6992C38.125 26.0156 38.5352 25.5859 39.2383 25.5859L41.4258 25.5859C42.1289 25.5859 42.5391 26.0156 42.5391 26.6992ZM18.0664 18.1836L18.0664 20.3711C18.0664 21.0742 17.6562 21.4844 16.9531 21.4844L14.7656 21.4844C14.0625 21.4844 13.6523 21.0742 13.6523 20.3711L13.6523 18.1836C13.6523 17.4805 14.0625 17.0703 14.7656 17.0703L16.9531 17.0703C17.6562 17.0703 18.0664 17.4805 18.0664 18.1836ZM26.2305 18.1836L26.2305 20.3711C26.2305 21.0742 25.8203 21.4844 25.1172 21.4844L22.9102 21.4844C22.2266 21.4844 21.8164 21.0742 21.8164 20.3711L21.8164 18.1836C21.8164 17.4805 22.2266 17.0703 22.9102 17.0703L25.1172 17.0703C25.8203 17.0703 26.2305 17.4805 26.2305 18.1836ZM34.375 18.1836L34.375 20.3711C34.375 21.0742 33.9648 21.4844 33.2617 21.4844L31.0742 21.4844C30.3711 21.4844 29.9609 21.0742 29.9609 20.3711L29.9609 18.1836C29.9609 17.4805 30.3711 17.0703 31.0742 17.0703L33.2617 17.0703C33.9648 17.0703 34.375 17.4805 34.375 18.1836ZM42.5391 18.1836L42.5391 20.3711C42.5391 21.0742 42.1289 21.4844 41.4258 21.4844L39.2383 21.4844C38.5352 21.4844 38.125 21.0742 38.125 20.3711L38.125 18.1836C38.125 17.4805 38.5352 17.0703 39.2383 17.0703L41.4258 17.0703C42.1289 17.0703 42.5391 17.4805 42.5391 18.1836Z" fill="black" fill-opacity="0.85"/>
  <path d="M14.9805 54.3555L41.2109 54.3555C44.5117 54.3555 46.1523 52.8516 46.1523 49.4336L46.1523 39.6875C46.1523 36.2695 44.5117 34.7656 41.2109 34.7656L14.9805 34.7656C11.7969 34.7656 10.0391 36.2695 10.0391 39.6875L10.0391 49.4336C10.0391 52.8516 11.6797 54.3555 14.9805 54.3555ZM15.9766 51.0938C14.2773 51.0938 13.5352 50.3516 13.5352 48.6328L13.5352 40.4688C13.5352 38.7695 14.2773 38.0273 15.9766 38.0273L40.2344 38.0273C41.9336 38.0273 42.6562 38.7695 42.6562 40.4688L42.6562 48.6328C42.6562 50.3516 41.9336 51.0938 40.2344 51.0938ZM17.6758 44.5312C17.6758 45.5078 18.4375 46.25 19.4141 46.25L36.8164 46.25C37.7539 46.25 38.5156 45.5078 38.5156 44.5312C38.5156 43.5938 37.7539 42.832 36.8164 42.832L19.4141 42.832C18.4375 42.832 17.6758 43.5938 17.6758 44.5312Z" fill="black" fill-opacity="0.85"/>
 </g>
</svg>
