<?xml version="1.0" encoding="UTF-8"?>
<!--Generator: Apple Native CoreSVG 326-->
<!DOCTYPE svg
PUBLIC "-//W3C//DTD SVG 1.1//EN"
       "http://www.w3.org/Graphics/SVG/1.1/DTD/svg11.dtd">
<svg version="1.1" xmlns="http://www.w3.org/2000/svg" xmlns:xlink="http://www.w3.org/1999/xlink" viewBox="0 0 52.8516 61.4258">
 <g>
  <rect height="61.4258" opacity="0" width="52.8516" x="0" y="0"/>
  <path d="M26.2305 61.4258C32.9297 61.4258 34.0039 56.3086 38.2031 56.3086C42.5 56.3086 43.1641 61.4258 50.8203 61.4258L50.9375 61.4258C51.7969 61.4258 52.4805 60.7422 52.4805 59.9023C52.4805 59.043 51.7969 58.3594 50.9375 58.3594L50.8203 58.3594C48.0273 58.3594 46.4453 57.1875 44.5312 55.8594C42.8906 54.668 40.918 53.2617 38.2031 53.2617C35.3906 53.2617 33.3984 54.7461 31.7578 55.9766C30.0195 57.2852 28.5742 58.3594 26.2305 58.3594C23.8867 58.3594 22.4609 57.2852 20.7227 55.9766C19.082 54.7461 17.0703 53.2617 14.2773 53.2617C11.543 53.2617 9.57031 54.668 7.92969 55.8594C6.03516 57.1875 4.45312 58.3594 1.66016 58.3594L1.52344 58.3594C0.683594 58.3594 0 59.043 0 59.9023C0 60.7422 0.683594 61.4258 1.52344 61.4258L1.66016 61.4258C9.29688 61.4258 9.98047 56.3086 14.2773 56.3086C18.4766 56.3086 19.5508 61.4258 26.2305 61.4258ZM26.2305 55.6445C27.5781 55.6445 28.2812 55.1953 30.1172 53.7891C31.7578 52.5781 34.4922 50.5273 38.2031 50.5273C40.3906 50.5273 42.168 51.1328 44.1406 52.3242L51.25 39.4141C53.3203 35.7227 52.4023 33.1055 48.8086 31.4258L30.8594 23.1836C29.7266 22.6758 28.2617 21.9141 26.2305 21.9141C24.2188 21.9141 22.7539 22.6758 21.6211 23.1836L3.67188 31.4258C0.0585938 33.1055-0.839844 35.7227 1.21094 39.4141L8.32031 52.3242C10.3125 51.1328 12.0898 50.5273 14.2773 50.5273C17.9688 50.5273 20.7227 52.5781 22.3633 53.7891C24.1992 55.1953 24.9023 55.6445 26.2305 55.6445ZM26.2305 18.8086C28.4961 18.8086 30.0195 19.375 32.1484 20.3516L45.2734 26.3867L43.0859 10.4297C42.7148 7.63672 40.9766 5.78125 38.2227 5.78125L14.2969 5.78125C11.543 5.78125 9.86328 7.63672 9.43359 10.8203L7.24609 26.3672L20.332 20.3516C22.4609 19.375 23.9844 18.8086 26.2305 18.8086ZM15.2148 16.1914C14.6484 16.1914 14.2773 15.8008 14.2773 15.2344L14.2773 11.0938C14.2773 10.5273 14.6484 10.1172 15.2148 10.1172L23.125 10.1172C23.8281 10.1172 24.2773 10.5273 24.2773 11.0938L24.2773 15.2344C24.2773 15.8008 23.8281 16.1914 23.125 16.1914ZM29.1602 16.1914C28.5938 16.1914 28.2227 15.8008 28.2227 15.2344L28.2227 11.0938C28.2227 10.5273 28.5938 10.1172 29.1602 10.1172L37.0898 10.1172C37.7734 10.1172 38.2227 10.5273 38.2227 11.0938L38.2227 15.2344C38.2227 15.8008 37.7734 16.1914 37.0898 16.1914ZM15.9766 6.48438L36.5234 6.48438L36.5234 4.16016C36.5234 1.81641 35.1562 0.429688 32.793 0.429688L19.707 0.429688C17.3438 0.429688 15.9766 1.81641 15.9766 4.16016Z" fill="black" fill-opacity="0.85"/>
 </g>
</svg>
