<?xml version="1.0" encoding="UTF-8"?>
<!--Generator: Apple Native CoreSVG 326-->
<!DOCTYPE svg
PUBLIC "-//W3C//DTD SVG 1.1//EN"
       "http://www.w3.org/Graphics/SVG/1.1/DTD/svg11.dtd">
<svg version="1.1" xmlns="http://www.w3.org/2000/svg" xmlns:xlink="http://www.w3.org/1999/xlink" viewBox="0 0 74.57 43.7695">
 <g>
  <rect height="43.7695" opacity="0" width="74.57" x="0" y="0"/>
  <path d="M2.24592 25.0586L31.8944 41.0938C34.1209 42.2852 35.4686 42.9297 37.0897 42.9297C38.7303 42.9297 40.078 42.2852 42.3045 41.0938L71.9334 25.0586C74.2381 23.8281 74.9217 21.1133 73.3397 18.8281C65.1951 7.36328 51.699 0 37.0897 0C22.4998 0 9.00374 7.36328 0.859204 18.8281C-0.722827 21.1133-0.0392334 23.8281 2.24592 25.0586ZM4.39436 22.3242C3.59358 21.875 3.43733 21.1523 4.06233 20.293C11.6405 9.86328 23.6522 3.45703 37.0897 3.45703C50.5467 3.45703 62.5975 9.88281 70.1561 20.332C70.7615 21.1719 70.6053 21.875 69.8045 22.3242L40.3319 38.2422C38.9451 38.9844 38.1444 39.3164 37.0897 39.3164C36.0545 39.3164 35.2537 38.9844 33.867 38.2422Z" fill="black" fill-opacity="0.85"/>
 </g>
</svg>
