<?xml version="1.0" encoding="UTF-8"?>
<!--Generator: Apple Native CoreSVG 326-->
<!DOCTYPE svg
PUBLIC "-//W3C//DTD SVG 1.1//EN"
       "http://www.w3.org/Graphics/SVG/1.1/DTD/svg11.dtd">
<svg version="1.1" xmlns="http://www.w3.org/2000/svg" xmlns:xlink="http://www.w3.org/1999/xlink" viewBox="0 0 58.4146 43.6523">
 <g>
  <rect height="43.6523" opacity="0" width="58.4146" x="0" y="0"/>
  <path d="M1.46314 17.6758L24.6272 40.7422C27.4788 43.5742 30.5842 43.5742 33.4749 40.7422L56.5803 17.6758C58.6116 15.6445 58.4358 13.125 56.5608 11.1523C49.9788 4.27734 39.51 0 29.0217 0C18.5335 0 8.08423 4.29688 1.48267 11.1523C-0.41186 13.1055-0.56811 15.6445 1.46314 17.6758ZM4.02173 15.4102C3.35767 14.7461 3.3772 14.0625 4.0022 13.4375C9.95923 7.28516 19.4124 3.45703 28.9436 3.45703C38.4553 3.45703 47.8303 7.36328 53.8655 13.4375C54.4905 14.0625 54.51 14.7266 53.846 15.4102L31.053 38.1445C29.6272 39.5508 28.2405 39.5508 26.8147 38.1445Z" fill="black" fill-opacity="0.85"/>
 </g>
</svg>
