<?xml version="1.0" encoding="UTF-8"?>
<!--Generator: Apple Native CoreSVG 326-->
<!DOCTYPE svg
PUBLIC "-//W3C//DTD SVG 1.1//EN"
       "http://www.w3.org/Graphics/SVG/1.1/DTD/svg11.dtd">
<svg version="1.1" xmlns="http://www.w3.org/2000/svg" xmlns:xlink="http://www.w3.org/1999/xlink" viewBox="0 0 58.9516 59.8633">
 <g>
  <rect height="59.8633" opacity="0" width="58.9516" x="0" y="0"/>
  <path d="M37.1516 14.7266C40.1008 14.7266 42.5422 12.2852 42.5422 9.31641C42.5422 6.34766 40.1008 3.90625 37.1516 3.90625C34.1633 3.90625 31.7219 6.34766 31.7219 9.31641C31.7219 12.2852 34.1633 14.7266 37.1516 14.7266ZM20.3743 46.6797C21.4875 47.4609 23.1086 47.207 23.9094 46.0938L29.7493 37.9297L35.2766 38.8672L29.8469 46.9922C29.0657 48.1641 29.3391 49.8047 30.55 50.5078C31.9758 51.3672 33.3625 50.8984 34.0852 49.8047L41.4289 38.7109C42.386 37.2461 41.8977 34.9805 39.7688 34.4727L29.6125 32.0312C28.636 31.7773 28.2649 30.957 28.8508 30.0781L33.1086 23.6719C33.4211 23.2227 33.9875 23.125 34.4563 23.4375L40.6672 27.6953C40.9797 27.9102 41.2922 28.0273 41.6633 28.1055L55.5696 30.6445C56.8196 30.8594 58.3039 30.0781 58.5383 28.5938C58.7532 27.2461 57.8547 25.8984 56.5071 25.6641L43.1086 23.2227L22.4446 9.10156L28.3625 4.86328C29.5344 4.04297 29.7883 2.46094 28.9875 1.34766C28.1282 0.195312 26.5657-0.078125 25.4524 0.722656L16.5852 7.07031C15.1204 8.125 15.1008 10.2148 16.6047 11.2305L24.1438 16.4062C24.593 16.7188 24.6907 17.2656 24.3977 17.6953L18.0891 26.8555C15.4719 30.6641 17.093 35.8594 22.2688 36.6992L24.1438 37.0117L19.7883 43.125C18.9485 44.2773 19.2024 45.8789 20.3743 46.6797ZM0.452384 38.6914C-0.0944911 39.1797-0.211679 40.0391 0.471915 40.6445C12.1125 50.9766 33.0305 59.8633 54.2805 59.8633C54.9641 59.8633 55.511 59.3164 55.511 58.6133C55.511 57.9297 54.9641 57.3828 54.2805 57.3828C33.5969 57.3828 13.3821 48.8086 2.11254 38.75C1.5266 38.2617 0.86254 38.3203 0.452384 38.6914ZM1.87817 49.1016C3.98754 49.1016 6.91723 48.3594 9.41723 46.7188L5.68676 43.1641C4.3391 44.9219 3.32348 45.7422 1.40942 46.7188C0.725821 47.0898 0.471915 47.6562 0.628165 48.2422C0.745353 48.7109 1.2141 49.1016 1.87817 49.1016Z" fill="black" fill-opacity="0.85"/>
 </g>
</svg>
