<?xml version="1.0" encoding="UTF-8"?>
<!--Generator: Apple Native CoreSVG 326-->
<!DOCTYPE svg
PUBLIC "-//W3C//DTD SVG 1.1//EN"
       "http://www.w3.org/Graphics/SVG/1.1/DTD/svg11.dtd">
<svg version="1.1" xmlns="http://www.w3.org/2000/svg" xmlns:xlink="http://www.w3.org/1999/xlink" viewBox="0 0 51.25 50.918">
 <g>
  <rect height="50.918" opacity="0" width="51.25" x="0" y="0"/>
  <path d="M25.4297 50.8789C39.4727 50.8789 50.8789 39.4922 50.8789 25.4492C50.8789 11.4062 39.4727 0 25.4297 0C11.3867 0 0 11.4062 0 25.4492C0 39.4922 11.3867 50.8789 25.4297 50.8789ZM25.4297 47.2461C13.3789 47.2461 3.63281 37.5 3.63281 25.4492C3.63281 13.3984 13.3789 3.65234 25.4297 3.65234C37.4805 3.65234 47.2266 13.3984 47.2266 25.4492C47.2266 37.5 37.4805 47.2461 25.4297 47.2461Z" fill="black" fill-opacity="0.85"/>
  <path d="M25.4102 16.9531C27.0508 16.9531 28.3984 15.6055 28.3984 13.9453C28.3984 12.2852 27.0508 10.957 25.4102 10.957C23.7305 10.957 22.4023 12.2852 22.4023 13.9453C22.4023 15.6055 23.7305 16.9531 25.4102 16.9531ZM25.4102 30.5273L26.0938 35.957L26.0938 43.0273C26.0938 43.75 26.7188 44.375 27.4414 44.375C28.1445 44.375 28.7695 43.75 28.7695 43.0273L28.7695 23.8281C28.7695 23.6719 28.9844 23.6328 29.0625 23.7695C30.7617 26.9336 31.7578 29.707 32.168 30.9375C32.4219 31.6406 33.1836 32.0312 33.8672 31.7969C34.4141 31.6211 34.7656 31.0742 34.7656 30.5273C34.7656 30.3906 34.707 30.1758 34.6484 29.9414C34.6094 29.7852 32.3047 22.8516 29.3945 19.5703C28.7891 18.8867 27.8906 18.4766 26.9141 18.4766L23.9258 18.4766C22.9297 18.4766 22.0312 18.8867 21.4258 19.5703C18.5352 22.8516 16.2305 29.7852 16.1719 29.9414C16.1133 30.1758 16.0742 30.3906 16.0742 30.5273C16.0742 31.0742 16.4062 31.6211 16.9531 31.7969C17.6367 32.0312 18.3984 31.6406 18.6523 30.9375C19.082 29.707 20.0781 26.9336 21.7578 23.7695C21.8359 23.6328 22.0508 23.6719 22.0508 23.8281L22.0508 43.0273C22.0508 43.75 22.6758 44.375 23.3789 44.375C24.1211 44.375 24.7461 43.75 24.7461 43.0273L24.7461 35.957ZM25.4102 8.32031C30.4297 8.32031 33.2031 12.8516 33.2031 20.7617L33.2031 30.5273L34.7656 30.5273L34.7656 20.7617C34.7656 11.875 31.4453 6.75781 25.4102 6.75781C19.3945 6.75781 16.0742 11.875 16.0742 20.7617L16.0742 30.5273L17.6172 30.5273L17.6172 20.7617C17.6172 12.8516 20.3906 8.32031 25.4102 8.32031Z" fill="black" fill-opacity="0.85"/>
 </g>
</svg>
