<?xml version="1.0" encoding="UTF-8"?>
<!--Generator: Apple Native CoreSVG 326-->
<!DOCTYPE svg
PUBLIC "-//W3C//DTD SVG 1.1//EN"
       "http://www.w3.org/Graphics/SVG/1.1/DTD/svg11.dtd">
<svg version="1.1" xmlns="http://www.w3.org/2000/svg" xmlns:xlink="http://www.w3.org/1999/xlink" viewBox="0 0 51.25 50.918">
 <g>
  <rect height="50.918" opacity="0" width="51.25" x="0" y="0"/>
  <path d="M25.4297 50.8789C39.4727 50.8789 50.8789 39.4922 50.8789 25.4492C50.8789 11.4062 39.4727 0 25.4297 0C11.3867 0 0 11.4062 0 25.4492C0 39.4922 11.3867 50.8789 25.4297 50.8789ZM25.4297 47.2461C13.3789 47.2461 3.63281 37.5 3.63281 25.4492C3.63281 13.3984 13.3789 3.65234 25.4297 3.65234C37.4805 3.65234 47.2266 13.3984 47.2266 25.4492C47.2266 37.5 37.4805 47.2461 25.4297 47.2461Z" fill="black" fill-opacity="0.85"/>
  <path d="M18.9844 42.5195C19.7852 42.5195 20.4102 41.8945 20.4102 41.1328L20.4102 34.4922L24.2969 30.3516C24.3555 30.2539 24.4922 30.2539 24.5508 30.3516L28.2812 35.332L31.4453 41.6406C32.3242 43.3984 34.7852 42.1484 33.9453 40.4492L27.4414 27.4023C26.8555 26.25 26.5625 24.668 26.4258 23.0859C26.3672 22.5586 26.7188 22.3242 27.1875 22.5586L29.7461 23.8281L32.1289 28.5938C32.9492 30.293 35.5078 29.1406 34.5898 27.3438L32.0117 22.1875C31.8555 21.9141 31.6602 21.7188 31.3867 21.5625L27.6953 19.707C26.6016 19.1602 25.4688 18.9453 24.4141 18.6914C23.2227 18.3789 22.168 18.0078 21.4258 16.9922L19.7461 14.5312L19.7461 9.72656C19.7461 8.98438 19.1211 8.33984 18.3398 8.33984C17.5781 8.33984 16.9531 8.98438 16.9531 9.72656L16.9531 14.9805C16.9531 15.293 17.0117 15.5078 17.207 15.7812L20.1367 20.0195C20.4297 20.4102 20.5859 20.6445 20.6445 21.3086C20.7617 22.8516 21.0938 25.7031 21.7188 27.793L17.8906 33.125C17.6953 33.3789 17.6367 33.6523 17.6367 33.9258L17.6367 41.1328C17.6367 41.8945 18.2227 42.5195 18.9844 42.5195ZM25.4102 17.0508C27.0508 17.0508 28.418 15.7031 28.418 14.0234C28.418 12.3633 27.0508 11.0156 25.4102 11.0156C23.7305 11.0156 22.3633 12.3633 22.3633 14.0234C22.3633 15.7031 23.7305 17.0508 25.4102 17.0508Z" fill="black" fill-opacity="0.85"/>
 </g>
</svg>
