<?xml version="1.0" encoding="UTF-8"?>
<!--Generator: Apple Native CoreSVG 326-->
<!DOCTYPE svg
PUBLIC "-//W3C//DTD SVG 1.1//EN"
       "http://www.w3.org/Graphics/SVG/1.1/DTD/svg11.dtd">
<svg version="1.1" xmlns="http://www.w3.org/2000/svg" xmlns:xlink="http://www.w3.org/1999/xlink" viewBox="0 0 35.4287 66.8164">
 <g>
  <rect height="66.8164" opacity="0" width="35.4287" x="0" y="0"/>
  <path d="M27.6362 17.3242C30.605 17.3242 33.0268 14.9023 33.0268 11.875C33.0268 8.92578 30.605 6.48438 27.6362 6.48438C24.6284 6.48438 22.2065 8.92578 22.2065 11.875C22.2065 14.9023 24.6284 17.3242 27.6362 17.3242ZM15.0581 66.5234C16.4253 66.5234 17.5581 65.4102 17.5581 64.0234L17.5581 51.6602L23.3979 43.0469C23.6128 42.7344 24.062 42.8125 24.1206 43.2227L25.019 50.9375C25.0581 51.3672 25.1362 51.6016 25.3315 52.0508L30.2143 64.9219C30.8003 66.4648 32.2456 66.8164 33.3979 66.3672C34.5698 65.9375 35.4682 64.7266 34.8823 63.1445L30.0386 50.3906L30.0386 26.7969C30.0386 24.1602 28.9448 21.4062 26.4057 20.3516L24.8237 19.707C21.9526 18.5352 19.2573 18.8672 16.8354 20.6055L10.9761 24.8438L4.12059 21.9531L17.2261 3.75L21.6792 3.75C22.7339 3.75 23.5737 2.91016 23.5737 1.89453C23.5737 0.820312 22.7339 0 21.6792 0L17.519 0C17.0893 0 16.6987 0.214844 16.4643 0.527344L0.507304 22.6172C-0.33254 23.7891-0.17629 25.5664 1.32762 26.2109L10.2925 30.0391C10.6831 30.1953 10.9761 30.2148 11.5229 30.2148L17.4995 30.2148C18.4565 30.2148 18.769 30.8398 18.769 31.5234L18.769 38.3789L12.7925 49.707C12.5776 50.1367 12.519 50.4492 12.519 50.918L12.519 64.0234C12.519 65.4102 13.6323 66.5234 15.0581 66.5234Z" fill="black" fill-opacity="0.85"/>
 </g>
</svg>
