<?xml version="1.0" encoding="UTF-8"?>
<!--Generator: Apple Native CoreSVG 326-->
<!DOCTYPE svg
PUBLIC "-//W3C//DTD SVG 1.1//EN"
       "http://www.w3.org/Graphics/SVG/1.1/DTD/svg11.dtd">
<svg version="1.1" xmlns="http://www.w3.org/2000/svg" xmlns:xlink="http://www.w3.org/1999/xlink" viewBox="0 0 79.6463 51.4648">
 <g>
  <rect height="51.4648" opacity="0" width="79.6463" x="0" y="0"/>
  <path d="M13.5146 14.043C9.80361 14.043 6.81533 10.957 6.81533 7.36328C6.81533 3.61328 9.80361 0.566406 13.5146 0.566406C17.2646 0.566406 20.2528 3.61328 20.2528 7.36328C20.2528 11.0938 17.2646 14.043 13.5146 14.043ZM53.495 49.5117C52.2255 50.8594 50.0185 50.7422 48.4364 49.1211L37.7528 38.0859C37.4013 37.7148 37.1474 37.6172 36.6005 37.832L28.1239 41.0547C22.7919 43.0859 17.7919 41.2109 15.3896 36.8164L10.1356 27.2852C8.0458 23.457 8.72939 19.5508 12.3427 17.6367C15.8388 15.7031 19.4716 17.1484 21.6005 21.0352L28.5536 33.7305L34.4716 31.582C37.4013 30.5078 39.8427 30.8398 42.1864 33.2617L53.2802 44.7461C54.8231 46.3281 54.6669 48.3203 53.495 49.5117Z" fill="black" fill-opacity="0.85"/>
  <path d="M51.8153 8.16406L58.5731 16.8359C58.8856 17.207 59.3349 17.3047 59.7646 17.0703C61.3466 16.2305 63.6708 15.6445 65.5067 15.6445C67.3817 15.6445 69.7255 16.2305 71.2685 17.0703C71.7177 17.3047 72.206 17.207 72.4794 16.8359L79.2567 8.16406C79.8622 7.36328 79.745 6.5625 79.0224 5.99609C76.2099 3.86719 70.9364 2.24609 65.5067 2.24609C60.1552 2.24609 54.8622 3.86719 52.0692 5.99609C51.3075 6.5625 51.2294 7.38281 51.8153 8.16406ZM58.9247 22.0117C58.1825 21.0156 57.87 20.0781 57.87 19.043C57.87 16.7773 59.7646 16.0742 59.7646 14.7266C59.7646 13.3594 57.87 12.7148 57.87 10.3711C57.87 9.35547 58.1825 8.41797 58.9442 7.42188C59.7646 6.44531 61.2294 7.48047 60.4481 8.53516C59.8817 9.29688 59.706 9.74609 59.706 10.3711C59.706 12.0703 61.6005 12.5781 61.6005 14.7266C61.6005 16.8945 59.706 17.4219 59.706 19.043C59.706 19.7266 59.8817 20.1367 60.4286 20.8984C61.1903 21.9336 59.745 22.9688 58.9247 22.0117ZM64.745 22.0117C64.0224 21.0156 63.6903 20.0781 63.6903 19.043C63.6903 16.7773 65.5653 16.0742 65.5653 14.7266C65.5653 13.3594 63.6903 12.7148 63.6903 10.3711C63.6903 9.35547 64.0028 8.41797 64.745 7.42188C65.5653 6.44531 67.0497 7.48047 66.2685 8.53516C65.7021 9.29688 65.5458 9.74609 65.5458 10.3711C65.5458 12.0703 67.4208 12.5781 67.4208 14.7266C67.4208 16.8945 65.5458 17.4219 65.5458 19.043C65.5458 19.7266 65.7021 20.1367 66.2489 20.8984C67.0106 21.9336 65.5458 22.9688 64.745 22.0117ZM70.6044 22.0117C69.8427 21.0156 69.5106 20.0781 69.5106 19.043C69.5106 16.7773 71.4247 16.0742 71.4247 14.7266C71.4247 13.3594 69.5106 12.7148 69.5106 10.3711C69.5106 9.35547 69.8231 8.41797 70.6239 7.42188C71.4247 6.44531 72.8896 7.48047 72.0888 8.53516C71.5419 9.29688 71.3661 9.74609 71.3661 10.3711C71.3661 12.0703 73.2606 12.5781 73.2606 14.7266C73.2606 16.8945 71.3661 17.4219 71.3661 19.043C71.3661 19.7266 71.5419 20.1367 72.0888 20.8984C72.8505 21.9336 71.4052 22.9688 70.6044 22.0117ZM38.8661 22.2266C39.7255 22.2266 40.4286 21.5234 40.4286 20.6055L40.4286 10.2734L44.745 10.2734C46.4247 10.2734 47.0106 8.57422 45.9755 7.40234L40.0966 0.644531C39.3544-0.214844 38.3192-0.214844 37.5575 0.644531L31.6786 7.40234C30.6044 8.61328 31.3271 10.2734 32.9091 10.2734L37.245 10.2734L37.245 20.6055C37.245 21.5234 37.9481 22.2266 38.8661 22.2266Z" fill="black" fill-opacity="0.85"/>
 </g>
</svg>
