<?xml version="1.0" encoding="UTF-8"?>
<!--Generator: Apple Native CoreSVG 326-->
<!DOCTYPE svg
PUBLIC "-//W3C//DTD SVG 1.1//EN"
       "http://www.w3.org/Graphics/SVG/1.1/DTD/svg11.dtd">
<svg version="1.1" xmlns="http://www.w3.org/2000/svg" xmlns:xlink="http://www.w3.org/1999/xlink" viewBox="0 0 51.25 50.918">
 <g>
  <rect height="50.918" opacity="0" width="51.25" x="0" y="0"/>
  <path d="M50.8789 25.4492C50.8789 39.4531 39.4531 50.8789 25.4297 50.8789C11.4258 50.8789 0 39.4531 0 25.4492C0 11.4258 11.4258 0 25.4297 0C39.4531 0 50.8789 11.4258 50.8789 25.4492ZM13.7891 11.7188L13.7891 19.4141C13.7891 20.4297 14.8438 20.9766 15.7812 20.5859L19.8633 18.7891C20.0195 18.7305 20.2148 18.8281 20.1758 19.043L18.1445 33.9062L14.668 40.1562C14.2773 40.8203 14.5312 41.7578 15.2344 42.1094C15.8398 42.4414 16.7773 42.3047 17.1875 41.5625L20.7812 35.0586L22.9102 30.293C22.9688 30.1953 23.0664 30.1562 23.1641 30.2148L28.8867 34.3555L28.8867 40.8203C28.8867 41.6211 29.5312 42.2852 30.332 42.2852C31.1328 42.2852 31.7773 41.6211 31.7773 40.8203L31.7773 33.75C31.7773 33.3203 31.6406 32.8906 31.3281 32.5977L25.3906 26.9531L25.918 22.4609C25.9375 22.3047 26.1914 22.3047 26.25 22.4219L27.5586 25.5859C27.793 26.1133 28.3008 26.4648 28.8867 26.4648L34.9609 26.4648C35.7812 26.4648 36.4258 25.8203 36.4258 25.0195C36.4258 24.1992 35.7812 23.5742 34.9609 23.5742L29.8242 23.5742L27.7734 18.7305C27.2266 17.5 26.4258 16.7773 24.6094 16.2695L23.7891 16.0352C21.7969 15.4688 20.4688 15.4102 18.8477 16.0938L16.6602 17.0508L16.6602 11.7188C16.6602 10.9375 15.9961 10.2734 15.2148 10.2734C14.4141 10.2734 13.7891 10.9375 13.7891 11.7188ZM34.0039 8.78906L34.0039 19.7266C33.2227 19.9805 32.5977 20.6055 32.3047 21.4453C32.168 21.8555 32.3242 22.2266 32.832 22.2266L36.8164 22.2266C37.2852 22.2266 37.4219 21.8555 37.2852 21.4453C37.0117 20.6055 36.3867 19.9805 35.6055 19.7461L35.6055 8.78906C35.6055 8.35938 35.2344 7.98828 34.8047 7.98828C34.3945 7.98828 34.0039 8.35938 34.0039 8.78906ZM22.0703 11.6016C22.0703 13.3398 23.4375 14.7461 25.1953 14.7461C26.9141 14.7461 28.2812 13.3398 28.2812 11.6016C28.2812 9.90234 26.9141 8.49609 25.1953 8.49609C23.4375 8.49609 22.0703 9.90234 22.0703 11.6016Z" fill="black" fill-opacity="0.85"/>
 </g>
</svg>
