<?xml version="1.0" encoding="UTF-8"?>
<!--Generator: Apple Native CoreSVG 326-->
<!DOCTYPE svg
PUBLIC "-//W3C//DTD SVG 1.1//EN"
       "http://www.w3.org/Graphics/SVG/1.1/DTD/svg11.dtd">
<svg version="1.1" xmlns="http://www.w3.org/2000/svg" xmlns:xlink="http://www.w3.org/1999/xlink" viewBox="0 0 51.25 50.918">
 <g>
  <rect height="50.918" opacity="0" width="51.25" x="0" y="0"/>
  <path d="M50.8789 25.4492C50.8789 39.4531 39.4531 50.8789 25.4297 50.8789C11.4258 50.8789 0 39.4531 0 25.4492C0 11.4258 11.4258 0 25.4297 0C39.4531 0 50.8789 11.4258 50.8789 25.4492ZM25.3906 37.6367C22.6172 37.6367 21.6602 35.293 17.9492 35.293C14.2383 35.293 13.2812 37.6367 10.4688 37.6367L10.4102 37.6367C9.98047 37.6367 9.60938 38.0273 9.60938 38.457C9.60938 38.8672 9.98047 39.2578 10.4102 39.2578L10.4688 39.2578C14.375 39.2578 15.2539 36.875 17.9492 36.875C20.5859 36.875 21.5039 39.2578 25.3906 39.2578C29.2773 39.2578 30.1758 36.875 32.8516 36.875C35.5273 36.875 36.4062 39.2578 40.2734 39.2578L40.3516 39.2578C40.7812 39.2578 41.1719 38.8672 41.1719 38.457C41.1719 38.0273 40.7812 37.6367 40.3516 37.6367L40.2734 37.6367C37.5 37.6367 36.543 35.293 32.8516 35.293C29.1406 35.293 28.1641 37.6367 25.3906 37.6367ZM23.0859 7.42188L9.84375 31.4648C9.27734 32.4805 9.88281 33.4766 10.9375 33.4766L30.1758 33.4766L35.9961 27.5C36.2695 27.2266 36.7578 27.2461 37.0117 27.5L39.4336 29.9219L36.9531 32.3828C35.6641 33.6914 37.5977 35.625 38.8867 34.3555L42.3242 30.8984C42.8906 30.293 42.8906 29.4922 42.3242 28.9258L38.3203 24.9023C37.5195 24.1211 36.4844 23.6914 35.4102 23.6914L25.4883 23.6914L25.4883 7.77344C25.4883 6.62109 23.8086 6.13281 23.0859 7.42188ZM23.9062 9.76562L23.9062 31.8555L11.7383 31.8555C11.5625 31.8555 11.543 31.7578 11.6211 31.6406L23.6719 9.74609C23.75 9.57031 23.9062 9.60938 23.9062 9.76562ZM28.5938 26.8945L25.4883 29.9805L25.4883 26.4648L28.3984 26.4648C28.6719 26.4648 28.7891 26.6992 28.5938 26.8945ZM31.3281 19.0234C31.3281 20.7227 32.7344 22.1289 34.4531 22.1289C36.1719 22.1289 37.5781 20.7227 37.5781 19.0234C37.5781 17.2852 36.1719 15.8984 34.4531 15.8984C32.7344 15.8984 31.3281 17.2852 31.3281 19.0234Z" fill="black" fill-opacity="0.85"/>
 </g>
</svg>
