<?xml version="1.0" encoding="UTF-8"?>
<!--Generator: Apple Native CoreSVG 326-->
<!DOCTYPE svg
PUBLIC "-//W3C//DTD SVG 1.1//EN"
       "http://www.w3.org/Graphics/SVG/1.1/DTD/svg11.dtd">
<svg version="1.1" xmlns="http://www.w3.org/2000/svg" xmlns:xlink="http://www.w3.org/1999/xlink" viewBox="0 0 51.25 50.918">
 <g>
  <rect height="50.918" opacity="0" width="51.25" x="0" y="0"/>
  <path d="M50.8789 25.4492C50.8789 39.4531 39.4531 50.8789 25.4297 50.8789C11.4258 50.8789 0 39.4531 0 25.4492C0 11.4258 11.4258 0 25.4297 0C39.4531 0 50.8789 11.4258 50.8789 25.4492ZM23.0469 15.6055C21.6992 15.6055 20.9375 16.0938 20.2539 16.9531L16.4453 21.6016C15.5273 22.7148 16.25 24.3164 17.4609 24.3164L21.6406 24.3164L21.6406 26.3477C21.6406 27.6758 22.3828 28.9258 23.5742 29.5508L30.3711 33.2031L30.3711 40.332C30.3711 41.1523 31.0352 41.8164 31.8359 41.8164C32.6562 41.8164 33.3008 41.1523 33.3008 40.332L33.3008 32.2656C33.3008 31.9141 33.1055 31.4062 32.6562 31.1133L27.4609 27.6758L27.4609 18.8672C27.4609 18.6523 27.6172 18.4961 27.8125 18.4961L39.1211 18.4961C39.9414 18.4961 40.5664 17.832 40.5664 17.0508C40.5664 16.2695 39.9414 15.6055 39.1211 15.6055ZM21.0938 34.4336L15.5859 39.2383C15 39.7656 14.9219 40.7227 15.4688 41.3086C16.0156 41.9141 16.9141 41.9727 17.5391 41.4062L23.2422 36.4453C23.5352 36.1914 23.6328 36.0742 23.7305 35.7812L25.332 31.8555L23.0078 30.5859C22.6367 30.3906 22.3828 30.2148 22.3047 30.1367ZM21.7383 21.5234L20.1758 21.5234L21.7383 19.5703ZM22.1875 10.8984C22.1875 12.6172 23.5742 14.043 25.3125 14.043C27.0117 14.043 28.418 12.6172 28.418 10.8984C28.418 9.21875 27.0117 7.79297 25.3125 7.79297C23.5742 7.79297 22.1875 9.21875 22.1875 10.8984Z" fill="black" fill-opacity="0.85"/>
 </g>
</svg>
