<?xml version="1.0" encoding="UTF-8"?>
<!--Generator: Apple Native CoreSVG 326-->
<!DOCTYPE svg
PUBLIC "-//W3C//DTD SVG 1.1//EN"
       "http://www.w3.org/Graphics/SVG/1.1/DTD/svg11.dtd">
<svg version="1.1" xmlns="http://www.w3.org/2000/svg" xmlns:xlink="http://www.w3.org/1999/xlink" viewBox="0 0 49.5996 57.0117">
 <g>
  <rect height="57.0117" opacity="0" width="49.5996" x="0" y="0"/>
  <path d="M32.1826 10.8203C35.1709 10.8203 37.5928 8.39844 37.5928 5.41016C37.5928 2.40234 35.1709 0 32.1826 0C29.1943 0 26.7725 2.40234 26.7725 5.41016C26.7725 8.39844 29.1943 10.8203 32.1826 10.8203ZM7.37793 28.8281C8.88184 29.5312 10.249 28.8672 10.835 27.6758L15.3857 18.6328L20.7959 18.6328C21.3818 18.6328 21.7529 19.1797 21.4795 19.707L16.7139 29.1406C14.9561 32.6367 17.1045 37.0117 21.7139 36.7383L34.5264 35.9375L29.7998 46.4648C29.2139 47.7734 29.7607 49.4336 31.0889 49.9219C32.5732 50.4883 33.8818 50.0391 34.5264 48.5938L41.1279 34.1406C41.8311 32.5781 40.8154 30.4297 38.7842 30.4297L27.2021 30.4297L32.3389 20.1367C32.5342 19.707 33.0811 19.5898 33.4326 19.9414L39.5068 25.7422C40.7178 26.9141 42.8857 26.7188 43.7061 25.0586L48.9404 14.5312C49.585 13.2422 49.1943 11.6602 47.7881 11.0156C46.499 10.3906 44.917 10.918 44.2725 12.207L40.6201 19.4531L37.6514 16.4648C35.6396 14.4531 33.5107 13.3984 30.2295 13.3984L13.7842 13.3984C12.7881 13.3984 11.8896 13.9844 11.46 14.8438L6.16699 25.3711C5.52246 26.6602 6.01074 28.1836 7.37793 28.8281ZM0.268554 54.2773C1.08887 55.9766 2.88574 56.0156 3.72559 55.6445L16.8115 49.9414C17.3584 49.707 17.8271 49.2773 18.1006 48.7109L22.9053 38.9844L21.8701 39.0625C19.7998 39.2188 18.0029 38.5938 16.6553 37.5781L13.6865 45.5664L1.61621 50.7617C0.268554 51.3477-0.41504 52.8906 0.268554 54.2773ZM43.4912 56.7188C46.5186 56.7188 48.9404 54.3359 48.9404 51.3086C48.9404 48.3203 46.5186 45.8984 43.4912 45.8984C40.5029 45.8984 38.1201 48.3203 38.1201 51.3086C38.1201 54.3359 40.5029 56.7188 43.4912 56.7188Z" fill="black" fill-opacity="0.85"/>
 </g>
</svg>
