<?xml version="1.0" encoding="UTF-8"?>
<!--Generator: Apple Native CoreSVG 326-->
<!DOCTYPE svg
PUBLIC "-//W3C//DTD SVG 1.1//EN"
       "http://www.w3.org/Graphics/SVG/1.1/DTD/svg11.dtd">
<svg version="1.1" xmlns="http://www.w3.org/2000/svg" xmlns:xlink="http://www.w3.org/1999/xlink" viewBox="0 0 51.25 50.918">
 <g>
  <rect height="50.918" opacity="0" width="51.25" x="0" y="0"/>
  <path d="M25.4297 50.8789C39.4727 50.8789 50.8789 39.4922 50.8789 25.4492C50.8789 11.4062 39.4727 0 25.4297 0C11.3867 0 0 11.4062 0 25.4492C0 39.4922 11.3867 50.8789 25.4297 50.8789ZM25.4297 47.2461C13.3789 47.2461 3.63281 37.5 3.63281 25.4492C3.63281 13.3984 13.3789 3.65234 25.4297 3.65234C37.4805 3.65234 47.2266 13.3984 47.2266 25.4492C47.2266 37.5 37.4805 47.2461 25.4297 47.2461Z" fill="black" fill-opacity="0.85"/>
  <path d="M9.45312 30.7422L10.8594 30.7422C14.6289 30.7422 15.5078 28.3984 18.125 28.3984C20.7422 28.3984 21.6211 30.7422 25.3906 30.7422C29.1797 30.7422 30.0391 28.3984 32.6758 28.3984C35.2734 28.3984 36.1523 30.7422 39.9414 30.7422L41.3281 30.7422C41.7383 30.7422 42.1094 30.3906 42.1094 29.9609C42.1094 29.5312 41.7383 29.1797 41.3281 29.1797L39.9414 29.1797C37.2461 29.1797 36.3086 26.8555 32.6758 26.8555C29.0625 26.8555 28.1055 29.1797 25.3906 29.1797C22.6758 29.1797 21.7188 26.8555 18.125 26.8555C14.4922 26.8555 13.5547 29.1797 10.8594 29.1797L9.45312 29.1797C9.0625 29.1797 8.67188 29.5312 8.67188 29.9609C8.67188 30.3906 9.0625 30.7422 9.45312 30.7422ZM9.86328 34.5508C10.2734 34.5508 10.625 34.2188 10.625 33.7891C10.625 33.3789 10.2734 33.0273 9.86328 33.0273C9.43359 33.0273 9.10156 33.3789 9.10156 33.7891C9.10156 34.2188 9.43359 34.5508 9.86328 34.5508ZM12.5 34.0625C12.9297 34.0625 13.2617 33.7305 13.2617 33.3203C13.2617 32.8906 12.9297 32.5586 12.5 32.5586C12.0898 32.5586 11.7383 32.8906 11.7383 33.3203C11.7383 33.7305 12.0898 34.0625 12.5 34.0625ZM15 32.9102C15.4102 32.9102 15.7617 32.5781 15.7617 32.1484C15.7617 31.7383 15.4102 31.3867 15 31.3867C14.5703 31.3867 14.2383 31.7383 14.2383 32.1484C14.2383 32.5781 14.5703 32.9102 15 32.9102ZM17.6367 32.3047C18.0664 32.3047 18.3984 31.9531 18.3984 31.543C18.3984 31.1133 18.0664 30.7812 17.6367 30.7812C17.2266 30.7812 16.875 31.1133 16.875 31.543C16.875 31.9531 17.2266 32.3047 17.6367 32.3047ZM20.2734 32.9102C20.7031 32.9102 21.0352 32.5781 21.0352 32.1484C21.0352 31.7383 20.7031 31.3867 20.2734 31.3867C19.8633 31.3867 19.5312 31.7383 19.5312 32.1484C19.5312 32.5781 19.8633 32.9102 20.2734 32.9102ZM22.7734 34.0625C23.1836 34.0625 23.5156 33.7305 23.5156 33.3203C23.5156 32.8906 23.1836 32.5586 22.7734 32.5586C22.3438 32.5586 22.0117 32.8906 22.0117 33.3203C22.0117 33.7305 22.3438 34.0625 22.7734 34.0625ZM40.9766 34.5508C41.3867 34.5508 41.7188 34.2188 41.7188 33.7891C41.7188 33.3789 41.3867 33.0273 40.9766 33.0273C40.5469 33.0273 40.2148 33.3789 40.2148 33.7891C40.2148 34.2188 40.5469 34.5508 40.9766 34.5508ZM38.3203 34.0625C38.75 34.0625 39.082 33.7305 39.082 33.3203C39.082 32.8906 38.75 32.5586 38.3203 32.5586C37.9102 32.5586 37.5781 32.8906 37.5781 33.3203C37.5781 33.7305 37.9102 34.0625 38.3203 34.0625ZM35.8398 32.9102C36.25 32.9102 36.582 32.5781 36.582 32.1484C36.582 31.7383 36.25 31.3867 35.8398 31.3867C35.4102 31.3867 35.0781 31.7383 35.0781 32.1484C35.0781 32.5781 35.4102 32.9102 35.8398 32.9102ZM33.1836 32.3047C33.6133 32.3047 33.9453 31.9531 33.9453 31.543C33.9453 31.1133 33.6133 30.7812 33.1836 30.7812C32.7734 30.7812 32.4414 31.1133 32.4414 31.543C32.4414 31.9531 32.7734 32.3047 33.1836 32.3047ZM30.5469 32.9102C30.957 32.9102 31.3086 32.5781 31.3086 32.1484C31.3086 31.7383 30.957 31.3867 30.5469 31.3867C30.1172 31.3867 29.7852 31.7383 29.7852 32.1484C29.7852 32.5781 30.1172 32.9102 30.5469 32.9102ZM28.0664 34.0625C28.4766 34.0625 28.8086 33.7305 28.8086 33.3203C28.8086 32.8906 28.4766 32.5586 28.0664 32.5586C27.6367 32.5586 27.3047 32.8906 27.3047 33.3203C27.3047 33.7305 27.6367 34.0625 28.0664 34.0625ZM25.4102 34.5508C25.8398 34.5508 26.1719 34.2188 26.1719 33.7891C26.1719 33.3789 25.8398 33.0273 25.4102 33.0273C25 33.0273 24.6484 33.3789 24.6484 33.7891C24.6484 34.2188 25 34.5508 25.4102 34.5508ZM32.7148 23.4766C34.3945 23.4766 35.7422 22.1289 35.7422 20.4297C35.7422 18.75 34.3945 17.4023 32.7148 17.4023C31.0352 17.4023 29.6875 18.75 29.6875 20.4297C29.6875 22.1289 31.0352 23.4766 32.7148 23.4766ZM20.957 25.3906C22.5 26.0547 23.3984 27.1289 25.3906 27.1289C27.6953 27.1289 28.457 25.6836 30.5664 25.0977L22.832 17.0508C22.207 16.4062 21.2891 16.3281 20.5273 16.8555L15.0781 20.7227C14.1406 21.3867 14.2383 22.3828 14.7852 22.9883C15.2344 23.457 16.0352 23.6719 16.8164 23.125L21.25 20L23.75 22.5586C24.043 22.8516 24.1016 23.3008 23.6914 23.5938Z" fill="black" fill-opacity="0.85"/>
 </g>
</svg>
