<?xml version="1.0" encoding="UTF-8"?>
<!--Generator: Apple Native CoreSVG 326-->
<!DOCTYPE svg
PUBLIC "-//W3C//DTD SVG 1.1//EN"
       "http://www.w3.org/Graphics/SVG/1.1/DTD/svg11.dtd">
<svg version="1.1" xmlns="http://www.w3.org/2000/svg" xmlns:xlink="http://www.w3.org/1999/xlink" viewBox="0 0 51.25 50.918">
 <g>
  <rect height="50.918" opacity="0" width="51.25" x="0" y="0"/>
  <path d="M25.4297 50.8789C39.4727 50.8789 50.8789 39.4922 50.8789 25.4492C50.8789 11.4062 39.4727 0 25.4297 0C11.3867 0 0 11.4062 0 25.4492C0 39.4922 11.3867 50.8789 25.4297 50.8789ZM25.4297 47.2461C13.3789 47.2461 3.63281 37.5 3.63281 25.4492C3.63281 13.3984 13.3789 3.65234 25.4297 3.65234C37.4805 3.65234 47.2266 13.3984 47.2266 25.4492C47.2266 37.5 37.4805 47.2461 25.4297 47.2461Z" fill="black" fill-opacity="0.85"/>
  <path d="M25.1953 14.9805C26.875 14.9805 28.2227 13.6133 28.2227 11.9336C28.2227 10.2734 26.875 8.90625 25.1953 8.90625C23.5156 8.90625 22.1484 10.2734 22.1484 11.9336C22.1484 13.6133 23.5156 14.9805 25.1953 14.9805ZM15.4883 41.6992C16.0742 42.0312 16.9922 41.8945 17.4023 41.1523L20.8984 34.8242L22.9688 30.1758C23.0273 30.0781 23.125 30.0391 23.2227 30.0977L28.8086 34.1406L28.8086 40.4492C28.8086 41.2305 29.4336 41.875 30.2148 41.875C30.9961 41.875 31.6211 41.2305 31.6211 40.4492L31.6211 33.5352C31.6211 33.125 31.5039 32.6953 31.1914 32.4023L25.3906 26.9141L25.918 22.5195C25.9375 22.3633 26.1719 22.3633 26.2305 22.4805L27.5195 25.5664C27.7344 26.0938 28.2422 26.4258 28.8086 26.4258L34.7461 26.4258C35.5469 26.4258 36.1719 25.8008 36.1719 25.0195C36.1719 24.2188 35.5469 23.6133 34.7461 23.6133L29.7266 23.6133L27.7148 18.8867C27.1875 17.6758 26.4062 16.9727 24.6289 16.4844L23.8281 16.25C21.8945 15.7031 20.5859 15.6641 19.0039 16.3281L16.875 17.2461L16.875 12.0312C16.875 11.2695 16.2305 10.625 15.4688 10.625C14.6875 10.625 14.0625 11.2695 14.0625 12.0312L14.0625 19.5508C14.0625 20.5469 15.1172 21.0742 16.0156 20.6836L20 18.9453C20.1562 18.8867 20.332 18.9844 20.3125 19.1797L18.3203 33.6914L14.9219 39.8047C14.5703 40.4492 14.7852 41.3477 15.4883 41.6992ZM33.8086 21.5234L35.3711 21.5234L35.3711 9.17969C35.3711 8.75 35 8.39844 34.5898 8.39844C34.1797 8.39844 33.8086 8.76953 33.8086 9.17969ZM32.6562 22.3047L36.5234 22.3047C36.9922 22.3047 37.1484 21.9336 37.0117 21.543C36.6406 20.4688 35.7031 19.7461 34.5898 19.7461C33.457 19.7461 32.5391 20.4688 32.1484 21.543C32.0117 21.9336 32.168 22.3047 32.6562 22.3047Z" fill="black" fill-opacity="0.85"/>
 </g>
</svg>
