<?xml version="1.0" encoding="UTF-8"?>
<!--Generator: Apple Native CoreSVG 326-->
<!DOCTYPE svg
PUBLIC "-//W3C//DTD SVG 1.1//EN"
       "http://www.w3.org/Graphics/SVG/1.1/DTD/svg11.dtd">
<svg version="1.1" xmlns="http://www.w3.org/2000/svg" xmlns:xlink="http://www.w3.org/1999/xlink" viewBox="0 0 60.1367 56.0742">
 <g>
  <rect height="56.0742" opacity="0" width="60.1367" x="0" y="0"/>
  <path d="M24.3359 9.96094C27.1094 9.96094 29.3555 7.75391 29.3555 5C29.3555 2.20703 27.1094 0 24.3359 0C21.582 0 19.3555 2.20703 19.3555 5C19.3555 7.75391 21.582 9.96094 24.3359 9.96094ZM28.9258 47.4805C30.332 50.3516 34.5117 48.5938 33.0078 45.4883L28.9844 37.3438C28.6133 36.6211 28.1445 35.8594 27.6758 35.2344L24.707 31.0156L24.9219 30.3711C25.7227 28.0078 26.0352 26.5625 26.1914 24.2383L26.6211 17.5781C26.8359 14.4336 25.0195 12.0508 21.8164 12.0508C19.3945 12.0508 17.7734 13.2812 15.5273 15.4883L12.0312 18.9258C10.918 20.0391 10.5469 20.957 10.4102 22.4414L9.98047 27.8711C9.86328 29.2578 10.625 30.1758 11.875 30.2148C13.1445 30.3125 13.9062 29.5508 14.0234 28.125L14.5312 22.1484L16.25 20.6445C16.8555 20.0977 17.6953 20.4297 17.6562 21.0938L17.2852 26.1133C17.1094 28.6719 17.6758 29.8828 19.4141 32.0508L24.082 37.8906C24.5508 38.457 24.5898 38.7109 24.7852 39.082ZM37.5586 21.0156L32.2461 21.0156L28.8672 17.2852L28.4766 22.7539L29.8633 24.1602C30.625 24.9023 31.25 25.1172 32.6172 25.1172L37.5586 25.1172C38.9453 25.1172 39.8438 24.3164 39.8438 23.0664C39.8438 21.8164 38.9258 21.0156 37.5586 21.0156ZM12.5977 49.6484L19.6484 41.2891C20.332 40.4688 20.4297 40.3125 20.6836 39.4531L21.1719 37.9492L17.5 33.418L16.4453 38.4766L9.47266 46.6797C7.34375 49.2383 10.8008 51.7578 12.5977 49.6484ZM45.7617 28.0859C45.9961 28.6523 46.7578 28.9648 47.4609 28.6523L59.0234 23.2422C59.668 22.9297 59.9219 22.207 59.6484 21.5625C59.3945 20.957 58.6719 20.6836 57.9492 20.9961L46.3867 26.4062C45.7227 26.7188 45.4492 27.4609 45.7617 28.0859ZM47.0508 48.6133L49.0039 48.4961C49.3359 48.4766 49.4336 48.457 49.5898 48.4766L53.7695 24.5117L51.0742 25.7031ZM1.15234 56.0547L50.0977 56.0547C51.582 56.0547 52.6953 54.9219 52.6953 53.3984C52.6953 51.6602 51.3867 50.6836 49.5508 50.8008L1.17188 53.7109C0.507812 53.75 0 54.2383 0 54.9023C0 55.5469 0.507812 56.0547 1.15234 56.0547Z" fill="black" fill-opacity="0.85"/>
 </g>
</svg>
