<?xml version="1.0" encoding="UTF-8"?>
<!--Generator: Apple Native CoreSVG 326-->
<!DOCTYPE svg
PUBLIC "-//W3C//DTD SVG 1.1//EN"
       "http://www.w3.org/Graphics/SVG/1.1/DTD/svg11.dtd">
<svg version="1.1" xmlns="http://www.w3.org/2000/svg" xmlns:xlink="http://www.w3.org/1999/xlink" viewBox="0 0 51.25 50.918">
 <g>
  <rect height="50.918" opacity="0" width="51.25" x="0" y="0"/>
  <path d="M50.8789 25.4492C50.8789 39.4531 39.4531 50.8789 25.4297 50.8789C11.4258 50.8789 0 39.4531 0 25.4492C0 11.4258 11.4258 0 25.4297 0C39.4531 0 50.8789 11.4258 50.8789 25.4492ZM18.0273 8.63281L13.3398 20.8594C13.1055 21.4648 13.3008 22.0117 13.6523 22.3633L17.2656 26.0156C17.832 26.5625 18.7695 26.5625 19.3359 26.0156L20.957 24.3945C21.1914 24.1797 21.5039 24.1797 21.582 24.5117L22.4609 27.9883L17.4414 31.7578C17.0703 32.0312 16.8945 32.4414 16.8359 32.8711L15.4688 40.2539C15.3516 41.0352 15.8789 41.8359 16.6992 41.9922C17.4805 42.1289 18.2227 41.6211 18.3789 40.7812L19.6289 33.9258L25.332 30.8203C25.4688 30.7422 25.625 30.7812 25.7031 30.918L28.5547 37.8516C28.7109 38.2031 28.9844 38.4766 29.2969 38.6328L35.1562 41.8945C35.9961 42.3438 36.8164 41.9922 37.1484 41.3477C37.5781 40.625 37.3242 39.7266 36.6016 39.3164L31.1914 36.3281L27.1289 20.0586C26.9141 19.1016 26.0547 18.3789 25 18.3789L16.2891 18.3789L20.3516 9.72656C20.918 8.55469 20.0977 7.79297 19.2383 7.79297C18.75 7.79297 18.2812 8.04688 18.0273 8.63281ZM18.3203 22.8711L16.7969 21.3477L19.8047 21.3477ZM21.3281 13.7305C21.3281 15.4688 22.7539 16.8359 24.4531 16.8359C26.1523 16.8359 27.5586 15.4688 27.5586 13.7305C27.5586 12.0312 26.1523 10.6641 24.4531 10.6641C22.7539 10.6641 21.3281 12.0312 21.3281 13.7305Z" fill="black" fill-opacity="0.85"/>
 </g>
</svg>
