<?xml version="1.0" encoding="UTF-8"?>
<!--Generator: Apple Native CoreSVG 326-->
<!DOCTYPE svg
PUBLIC "-//W3C//DTD SVG 1.1//EN"
       "http://www.w3.org/Graphics/SVG/1.1/DTD/svg11.dtd">
<svg version="1.1" xmlns="http://www.w3.org/2000/svg" xmlns:xlink="http://www.w3.org/1999/xlink" viewBox="0 0 51.25 50.918">
 <g>
  <rect height="50.918" opacity="0" width="51.25" x="0" y="0"/>
  <path d="M50.8789 25.4492C50.8789 39.4531 39.4531 50.8789 25.4297 50.8789C11.4258 50.8789 0 39.4531 0 25.4492C0 11.4258 11.4258 0 25.4297 0C39.4531 0 50.8789 11.4258 50.8789 25.4492ZM22.8711 6.81641L22.8711 22.6367L19.3945 20.2148C19.1211 20.0391 18.9062 19.9805 18.4961 19.9805L10.8984 19.9805C10.0781 19.9805 9.41406 20.625 9.41406 21.4258C9.41406 22.207 10.0781 22.9102 10.8984 22.9102L17.9688 22.9102L22.4023 26.9141C22.5586 27.0508 22.4609 27.2852 22.2266 27.2852L17.207 27.2852C16.7773 27.2852 16.3477 27.3828 16.0547 27.6953L10.7812 32.9883C10.1953 33.5742 10.1953 34.4531 10.7812 35.0586C11.3477 35.625 12.2461 35.6445 12.832 35.0586L17.5977 30.3125L22.8711 31.1914L22.8711 33.8281C22.8711 36.1523 24.4727 37.5586 26.5625 37.5586C27.3828 37.5586 28.1055 37.3047 28.6914 36.875L28.6914 43.8672C28.6914 44.2969 29.082 44.668 29.4727 44.668C29.9219 44.668 30.293 44.2969 30.293 43.8672L30.293 35.0586C30.3906 35 30.4688 34.9609 30.5469 34.8828L34.9219 30.4883C35.1758 30.2344 35.3516 29.8438 35.3516 29.4727L35.3516 22.9492C35.3516 22.0117 35.0586 21.2305 34.4922 20.6836L25.6641 11.8945L25.6641 16.0352L29.5508 19.9219C29.8633 20.1953 29.8242 20.4883 29.5508 20.7422L25.6836 24.6094L24.4531 23.7891L24.4531 6.81641C24.4531 6.34766 24.0625 6.01562 23.6523 6.01562C23.2422 6.01562 22.8711 6.38672 22.8711 6.81641ZM28.6914 32.5781C28.6133 32.6562 28.5352 32.7344 28.457 32.8125C27.9102 33.418 27.9102 34.2969 28.457 34.8242C28.125 35.5273 27.4219 35.9766 26.5625 35.9766C25.3516 35.9766 24.4531 35.2344 24.4531 33.8281L24.4531 31.3281C25.957 31.3086 27.3828 30.7227 28.4766 29.6289L28.6914 29.4141ZM32.4023 26.6211L32.4023 28.8672L30.293 30.9961L30.293 27.832L31.7578 26.3672C32.0508 26.0938 32.4023 26.2305 32.4023 26.6211ZM33.1445 15.8203C33.1445 17.5586 34.5117 18.9258 36.2305 18.9258C37.9297 18.9258 39.3359 17.5586 39.3359 15.8203C39.3359 14.1406 37.9297 12.7344 36.2305 12.7344C34.5117 12.7344 33.1445 14.1406 33.1445 15.8203Z" fill="black" fill-opacity="0.85"/>
 </g>
</svg>
