<?xml version="1.0" encoding="UTF-8"?>
<!--Generator: Apple Native CoreSVG 326-->
<!DOCTYPE svg
PUBLIC "-//W3C//DTD SVG 1.1//EN"
       "http://www.w3.org/Graphics/SVG/1.1/DTD/svg11.dtd">
<svg version="1.1" xmlns="http://www.w3.org/2000/svg" xmlns:xlink="http://www.w3.org/1999/xlink" viewBox="0 0 70.1371 49.668">
 <g>
  <rect height="49.668" opacity="0" width="70.1371" x="0" y="0"/>
  <path d="M42.7736 12.3242L42.7736 17.7734C42.7736 19.2969 43.8674 20.3906 45.3713 20.3906L49.4924 20.3906C50.9963 20.3906 52.1291 19.2969 52.1291 17.7734L52.1291 12.3242C52.1291 10.8398 50.9963 9.70703 49.4924 9.70703L45.3713 9.70703C43.8674 9.70703 42.7736 10.8398 42.7736 12.3242ZM54.6682 12.3242L54.6682 17.7734C54.6682 19.2969 55.7424 20.3906 57.2854 20.3906L61.3869 20.3906C62.9104 20.3906 64.0236 19.2969 64.0236 17.7734L64.0236 12.3242C64.0236 10.8398 62.9104 9.70703 61.3869 9.70703L57.2854 9.70703C55.7424 9.70703 54.6682 10.8398 54.6682 12.3242ZM42.7736 26.543L42.7736 31.9922C42.7736 33.5156 43.8674 34.5898 45.3713 34.5898L49.4924 34.5898C50.9963 34.5898 52.1291 33.5156 52.1291 31.9922L52.1291 26.543C52.1291 25.0586 50.9963 23.9258 49.4924 23.9258L45.3713 23.9258C43.8674 23.9258 42.7736 25.0586 42.7736 26.543ZM54.6682 26.543L54.6682 31.9922C54.6682 33.5156 55.7424 34.5898 57.2854 34.5898L61.3869 34.5898C62.9104 34.5898 64.0236 33.5156 64.0236 31.9922L64.0236 26.543C64.0236 25.0586 62.9104 23.9258 61.3869 23.9258L57.2854 23.9258C55.7424 23.9258 54.6682 25.0586 54.6682 26.543ZM36.6213 40.7422L36.6213 46.1523C36.6213 47.6758 37.715 48.7695 39.2189 48.7695L43.3205 48.7695C44.8439 48.7695 45.9768 47.6758 45.9768 46.1523L45.9768 40.7422C45.9768 39.2188 44.8439 38.125 43.3205 38.125L39.2189 38.125C37.715 38.125 36.6213 39.2188 36.6213 40.7422ZM48.5158 40.7422L48.5158 46.1523C48.5158 47.6758 49.6291 48.7695 51.133 48.7695L55.2346 48.7695C56.7775 48.7695 57.8713 47.6758 57.8713 46.1523L57.8713 40.7422C57.8713 39.2188 56.7775 38.125 55.2346 38.125L51.133 38.125C49.6291 38.125 48.5158 39.2188 48.5158 40.7422ZM60.4299 40.7422L60.4299 46.1523C60.4299 47.6758 61.5236 48.7695 63.0471 48.7695L67.1486 48.7695C68.6721 48.7695 69.7658 47.6758 69.7658 46.1523L69.7658 40.7422C69.7658 39.2188 68.6721 38.125 67.1486 38.125L63.0471 38.125C61.5236 38.125 60.4299 39.2188 60.4299 40.7422ZM47.4807 17.5781C46.0744 17.5781 44.883 16.4258 44.883 15C44.883 13.6133 46.0744 12.4609 47.4807 12.4609C48.8479 12.4609 50.0197 13.6133 50.0197 15C50.0197 16.4258 48.8479 17.5781 47.4807 17.5781ZM59.3752 17.5781C57.9689 17.5781 56.7775 16.4453 56.7775 15C56.7775 13.6133 57.9689 12.4609 59.3752 12.4609C60.7424 12.4609 61.9143 13.6133 61.9143 15C61.9143 16.4453 60.7424 17.5781 59.3752 17.5781ZM47.4807 31.7969C46.0744 31.7969 44.883 30.6445 44.883 29.2188C44.883 27.832 46.0744 26.6797 47.4807 26.6797C48.8479 26.6797 50.0197 27.832 50.0197 29.2188C50.0197 30.6445 48.8479 31.7969 47.4807 31.7969ZM59.3752 31.7969C57.9689 31.7969 56.7775 30.6445 56.7775 29.2188C56.7775 27.832 57.9689 26.6797 59.3752 26.6797C60.7424 26.6797 61.9143 27.832 61.9143 29.2188C61.9143 30.6445 60.7424 31.7969 59.3752 31.7969ZM41.3088 45.9961C39.9221 45.9961 38.7111 44.8438 38.7111 43.418C38.7111 42.0312 39.9221 40.8984 41.3088 40.8984C42.676 40.8984 43.8674 42.0312 43.8674 43.418C43.8674 44.8438 42.676 45.9961 41.3088 45.9961ZM53.2033 45.9961C51.8166 45.9961 50.6057 44.8438 50.6057 43.418C50.6057 42.0312 51.8166 40.8984 53.2033 40.8984C54.5705 40.8984 55.7619 42.0312 55.7619 43.418C55.7619 44.8438 54.5705 45.9961 53.2033 45.9961ZM65.1174 45.9961C63.7111 45.9961 62.5197 44.8438 62.5197 43.418C62.5197 42.0312 63.7111 40.8984 65.1174 40.8984C66.4846 40.8984 67.6564 42.0312 67.6564 43.418C67.6564 44.8438 66.4846 45.9961 65.1174 45.9961ZM48.2033 6.42578L58.2619 6.42578C58.9455 6.42578 59.1018 5.68359 58.5549 5.3125L53.965 2.1875C53.4768 1.875 52.9885 1.875 52.5002 2.1875L47.9104 5.3125C47.3635 5.68359 47.5197 6.42578 48.2033 6.42578Z" fill="black" fill-opacity="0.85"/>
  <path d="M14.2971 10.9766C17.3439 10.9766 19.7463 8.45703 19.7463 5.52734C19.7463 2.48047 17.3439 0 14.2971 0C11.2307 0 8.84785 2.48047 8.84785 5.52734C8.84785 8.55469 11.2307 10.9766 14.2971 10.9766ZM3.80879 31.4258L19.4729 14.0039C17.9104 13.3984 16.2111 13.1641 14.2971 13.1641C7.24629 13.1641 3.0666 16.5625 3.0666 22.2461C3.0666 23.6328 3.12519 25.4688 3.34004 27.3242ZM24.8244 31.4258L25.2541 27.3242C25.4494 25.4688 25.5471 23.6328 25.5471 22.2461C25.5471 19.4141 24.5314 17.1289 22.5197 15.5664L9.9416 29.5703C11.426 29.3164 12.8518 29.2188 14.2971 29.2188C17.7736 29.2188 21.2893 29.6875 24.8244 31.4258ZM8.28144 49.5508C9.70723 49.3359 10.6838 48.3008 10.4885 46.5234L9.49238 37.4023L19.1018 37.4023L18.1447 46.5234C17.9689 48.3008 18.8869 49.3359 20.3322 49.5508C21.8361 49.6875 22.9689 48.7695 23.1643 47.0117L24.4338 34.9219C21.2307 33.0859 17.6955 32.3828 14.2971 32.3828C10.9182 32.3828 7.36348 33.0859 4.19941 34.9219L5.44941 47.0117C5.62519 48.7695 6.75801 49.6875 8.28144 49.5508ZM22.5197 15.5469L27.2268 10.332C28.008 9.45312 27.9299 8.49609 27.1682 7.85156C26.465 7.22656 25.5471 7.20703 24.7268 8.125L19.4729 14.0039C20.5861 14.4336 21.6213 14.9609 22.5197 15.5469ZM0.722851 33.2812C-0.116993 33.9062-0.156056 34.8828 0.254101 35.5469C0.683788 36.2305 1.54316 36.5625 2.46113 35.9961C3.0666 35.6055 3.59394 35.2539 4.19941 34.9219L3.80879 31.4258C2.67598 31.9336 1.66035 32.5391 0.722851 33.2812ZM27.8908 33.2812C26.9533 32.5391 25.9377 31.9336 24.8244 31.4258L24.4143 34.9219C25.0197 35.2539 25.5666 35.6055 26.1525 35.9961C27.0705 36.5625 27.9104 36.25 28.3596 35.5859C28.7502 34.9219 28.7502 33.9258 27.8908 33.2812Z" fill="black" fill-opacity="0.85"/>
 </g>
</svg>
