<?xml version="1.0" encoding="UTF-8"?>
<!--Generator: Apple Native CoreSVG 326-->
<!DOCTYPE svg
PUBLIC "-//W3C//DTD SVG 1.1//EN"
       "http://www.w3.org/Graphics/SVG/1.1/DTD/svg11.dtd">
<svg version="1.1" xmlns="http://www.w3.org/2000/svg" xmlns:xlink="http://www.w3.org/1999/xlink" viewBox="0 0 60.2498 57.3057">
 <g>
  <rect height="57.3057" opacity="0" width="60.2498" x="0" y="0"/>
  <path d="M42.6151 17.2954L42.6151 23.2794C45.4856 23.6359 47.0682 25.6171 47.0682 28.9751L47.0682 46.7486C47.0682 50.4986 45.1151 52.5298 41.619 52.5298L26.6815 52.5298C26.6966 52.0367 26.6385 51.5075 26.5018 50.9478L23.6893 39.3072C23.5331 38.6236 23.5917 37.5493 23.5917 36.2993L25.1542 36.9243C28.1425 38.0962 30.9159 36.5923 31.7167 34.0337C32.4784 31.6509 31.3456 29.0142 28.6307 27.9009L22.4003 25.3228C22.7594 24.6687 23.0174 23.964 23.1498 23.2134L39.1971 23.2134L39.1971 16.8853C39.1971 10.3814 35.037 6.68997 29.9393 6.68997C24.9406 6.68997 20.8924 10.2124 20.7187 16.4458C19.805 15.6542 18.6879 15.0928 17.4528 14.8437C18.406 7.33544 23.8204 3.42825 29.9393 3.42825C36.6776 3.42825 42.6151 8.19387 42.6151 17.2954Z" fill="black" fill-opacity="0.85"/>
  <path d="M15.994 26.1431C18.3182 26.1431 20.1542 24.2876 20.1542 22.0025C20.1542 19.6782 18.3182 17.8032 15.994 17.8032C13.7089 17.8032 11.8143 19.6782 11.8143 22.0025C11.8143 24.2876 13.7089 26.1431 15.994 26.1431ZM15.9745 40.8306C16.5409 40.8306 16.9901 41.1822 17.1659 41.8267L20.0175 52.7642C20.6425 55.1665 23.9237 54.3267 23.5917 52.1001C23.4159 51.1431 20.994 41.8853 20.6229 39.8345C20.3885 38.3501 20.4862 34.5611 20.4862 32.6079C20.4862 32.1392 20.8964 31.8462 21.3846 32.0415L26.3065 34.0337C27.576 34.5611 28.4745 33.9556 28.7479 33.1157C29.0214 32.2759 28.6698 31.2603 27.4589 30.772L22.2635 28.6431C21.0135 28.1353 19.8612 27.8423 18.5721 27.6861C17.7714 28.0572 16.912 28.272 15.9745 28.272C15.037 28.272 14.1581 28.0572 13.3573 27.6861C12.0878 27.8423 10.9159 28.1353 9.68542 28.6431L4.49011 30.772C3.27917 31.2603 2.92761 32.2759 3.20105 33.1157C3.45495 33.9556 4.35339 34.5611 5.64245 34.0337L10.5643 32.0415C11.0331 31.8462 11.4628 32.1392 11.4628 32.6079C11.4628 34.5611 11.5604 38.3501 11.3065 39.8345C10.955 41.8853 8.51355 51.1431 8.3573 52.1001C8.02527 54.3267 11.3065 55.1665 11.9315 52.7642L14.7831 41.8267C14.9589 41.1822 15.4081 40.8306 15.9745 40.8306Z" fill="black" fill-opacity="0.85"/>
 </g>
</svg>
