<?xml version="1.0" encoding="UTF-8"?>
<!--Generator: Apple Native CoreSVG 326-->
<!DOCTYPE svg
PUBLIC "-//W3C//DTD SVG 1.1//EN"
       "http://www.w3.org/Graphics/SVG/1.1/DTD/svg11.dtd">
<svg version="1.1" xmlns="http://www.w3.org/2000/svg" xmlns:xlink="http://www.w3.org/1999/xlink" viewBox="0 0 50.5664 57.0508">
 <g>
  <rect height="57.0508" opacity="0" width="50.5664" x="0" y="0"/>
  <path d="M39.6484 10.7617C42.6172 10.7617 45.0195 8.35938 45.0195 5.37109C45.0195 2.40234 42.6172 0 39.6484 0C36.6406 0 34.2578 2.40234 34.2578 5.37109C34.2578 8.35938 36.6406 10.7617 39.6484 10.7617ZM20.5078 31.7188L33.125 41.3477L29.1992 53.4375C28.6523 55.1758 29.7266 56.4258 31.0156 56.7188C32.1875 57.0117 33.5547 56.5039 34.082 54.8633L38.4766 41.3086C38.7891 40.332 38.6133 39.2578 37.9297 38.5938L29.4531 30.1367L39.1797 20.3906C39.6094 19.9414 40.2344 19.9609 40.6836 20.3906L44.043 23.7109L39.4336 28.3203C38.418 29.3555 38.4375 30.957 39.4336 31.9531C40.3711 32.8906 42.0508 32.9688 43.0469 31.9531L49.4531 25.5469C50.4688 24.5117 50.4492 22.9492 49.4531 21.9336L43.2617 15.6836C41.7773 14.1992 40 13.457 37.8516 13.457L8.14453 13.457C6.73828 13.457 5.56641 14.6094 5.56641 16.0156C5.56641 17.4219 6.73828 18.5938 8.14453 18.5938L25.2148 18.5938C26.0742 18.5938 26.4844 19.4922 25.8594 20.0977L20.918 25.0586C18.6914 27.2852 19.0039 30.5859 20.5078 31.7188ZM19.7852 34.1016L18.5156 41.6992L6.66016 41.6992C5.19531 41.6992 4.04297 42.8516 4.04297 44.2578C4.04297 45.6836 5.19531 46.8359 6.66016 46.8359L20.5664 46.8359C21.9336 46.8359 22.8125 46.1523 23.1641 44.9805L25.1953 38.2227ZM5.56641 27.1484C8.63281 27.1484 11.1328 24.6484 11.1328 21.582C11.1328 18.5352 8.63281 16.0156 5.56641 16.0156C2.5 16.0156 0 18.5352 0 21.582C0 24.6484 2.5 27.1484 5.56641 27.1484Z" fill="black" fill-opacity="0.85"/>
 </g>
</svg>
