<?xml version="1.0" encoding="UTF-8"?>
<!--Generator: Apple Native CoreSVG 326-->
<!DOCTYPE svg
PUBLIC "-//W3C//DTD SVG 1.1//EN"
       "http://www.w3.org/Graphics/SVG/1.1/DTD/svg11.dtd">
<svg version="1.1" xmlns="http://www.w3.org/2000/svg" xmlns:xlink="http://www.w3.org/1999/xlink" viewBox="0 0 40.9273 54.8633">
 <g>
  <rect height="54.8633" opacity="0" width="40.9273" x="0" y="0"/>
  <path d="M28.7156 10.918C31.7039 10.918 34.1062 8.51562 34.1062 5.52734C34.1062 2.53906 31.7039 0.15625 28.7156 0.15625C25.7273 0.15625 23.3445 2.53906 23.3445 5.52734C23.3445 8.51562 25.7273 10.918 28.7156 10.918ZM19.4969 54.8633C30.3758 54.8633 37.6414 47.5977 37.6414 36.7188C37.6414 30.9766 34.907 27.6758 29.8289 27.6758L26.4891 27.6758C25.8836 27.6758 25.532 27.2656 25.7469 26.5625L28.0516 19.5898C29.1062 16.3867 27.5828 13.5156 24.0672 12.6172L13.7352 10.0391C12.7586 9.78516 12.0164 9.94141 11.118 10.4492L1.0789 16.1133C-0.0734432 16.7773-0.346881 18.4766 0.473432 19.5703C1.25468 20.6836 2.66093 20.8984 3.93046 20.2344L13.1297 15.3711L18.5398 16.7969C19.5945 17.0898 20.0242 17.832 19.6531 18.8477L16.8406 26.7578C15.532 30.4492 17.7 33.6133 21.2937 33.6133L30.7664 33.6133C32.7195 33.6133 34.0867 34.7852 34.0867 36.7188C34.0867 45.4688 28.2664 51.3086 19.5164 51.3086C10.7469 51.3086 4.90703 45.4688 4.90703 36.6992C4.90703 33.8867 5.70781 31.3672 7.03593 29.2188C8.52031 26.8945 5.4539 25.0977 3.94999 27.4805C2.3289 30.0781 1.35234 33.2031 1.35234 36.6992C1.35234 47.5977 8.59843 54.8633 19.4969 54.8633ZM37.8172 54.8633C39.3211 54.8633 40.5516 53.6523 40.5516 52.1289C40.5516 50.625 39.3211 49.4141 37.8172 49.4141C36.2937 49.4141 35.0828 50.625 35.0828 52.1289C35.0828 53.6523 36.2937 54.8633 37.8172 54.8633Z" fill="black" fill-opacity="0.85"/>
 </g>
</svg>
