<?xml version="1.0" encoding="UTF-8"?>
<!--Generator: Apple Native CoreSVG 326-->
<!DOCTYPE svg
PUBLIC "-//W3C//DTD SVG 1.1//EN"
       "http://www.w3.org/Graphics/SVG/1.1/DTD/svg11.dtd">
<svg version="1.1" xmlns="http://www.w3.org/2000/svg" xmlns:xlink="http://www.w3.org/1999/xlink" viewBox="0 0 51.25 50.918">
 <g>
  <rect height="50.918" opacity="0" width="51.25" x="0" y="0"/>
  <path d="M25.4297 50.8789C39.4727 50.8789 50.8789 39.4922 50.8789 25.4492C50.8789 11.4062 39.4727 0 25.4297 0C11.3867 0 0 11.4062 0 25.4492C0 39.4922 11.3867 50.8789 25.4297 50.8789ZM25.4297 47.2461C13.3789 47.2461 3.63281 37.5 3.63281 25.4492C3.63281 13.3984 13.3789 3.65234 25.4297 3.65234C37.4805 3.65234 47.2266 13.3984 47.2266 25.4492C47.2266 37.5 37.4805 47.2461 25.4297 47.2461Z" fill="black" fill-opacity="0.85"/>
  <path d="M35.9375 19.082C37.5977 19.082 38.9648 17.7344 38.9648 16.0352C38.9648 14.3945 37.5977 13.0273 35.9375 13.0273C34.2773 13.0273 32.9102 14.3945 32.9102 16.0352C32.9102 17.7344 34.2773 19.082 35.9375 19.082ZM11.1914 22.9688L18.1055 22.9688L22.4414 26.875C22.5977 27.0117 22.4805 27.2461 22.2852 27.2461L17.3828 27.2461C16.9336 27.2461 16.5234 27.3242 16.2305 27.6367L11.0938 32.8125C10.5273 33.3789 10.5273 34.2383 11.0938 34.8242C11.6406 35.3711 12.5391 35.3906 13.0859 34.8242L17.7539 30.1953L23.3984 31.1328C25.2148 31.4062 27.0508 30.8398 28.3594 29.5312L31.5625 26.3477C31.8555 26.0742 32.207 26.2109 32.207 26.582L32.207 28.7891L28.3594 32.6367C27.793 33.2227 27.8125 34.082 28.3594 34.6484C28.6133 34.9219 28.9844 35.0586 29.375 35.0586C29.7266 35.0586 30.0977 34.9219 30.3711 34.6484L34.6484 30.3711C34.9219 30.0977 35.0781 29.7266 35.0781 29.375L35.0781 23.0078C35.0781 22.0898 34.7852 21.3281 34.2383 20.8203L25.6055 12.207L25.6055 16.25L29.4141 20.0586C29.707 20.3125 29.668 20.6055 29.4141 20.8594L25.625 24.6484L19.4922 20.332C19.2188 20.1562 19.043 20.0977 18.6328 20.0977L11.1914 20.0977C10.4102 20.0977 9.76562 20.7422 9.76562 21.5234C9.76562 22.2852 10.4102 22.9688 11.1914 22.9688ZM26.5039 37.2656C28.5742 37.2656 30.1758 35.6445 30.1172 33.5742L28.5742 33.5742C28.5938 34.8047 27.7148 35.7227 26.5039 35.7227C25.3125 35.7227 24.4531 35 24.4531 33.6328L24.4531 7.26562C24.4531 6.81641 24.043 6.48438 23.6719 6.48438C23.2422 6.48438 22.8906 6.83594 22.8906 7.26562L22.8906 33.6328C22.8906 35.8984 24.4727 37.2656 26.5039 37.2656ZM29.3555 44.2188C29.7656 44.2188 30.1172 43.8477 30.1172 43.4375L30.1172 27.168L28.5742 27.168L28.5742 43.4375C28.5742 43.8477 28.9453 44.2188 29.3555 44.2188Z" fill="black" fill-opacity="0.85"/>
 </g>
</svg>
