<?xml version="1.0" encoding="UTF-8"?>
<!--Generator: Apple Native CoreSVG 326-->
<!DOCTYPE svg
PUBLIC "-//W3C//DTD SVG 1.1//EN"
       "http://www.w3.org/Graphics/SVG/1.1/DTD/svg11.dtd">
<svg version="1.1" xmlns="http://www.w3.org/2000/svg" xmlns:xlink="http://www.w3.org/1999/xlink" viewBox="0 0 80.4138 71.2256">
 <g>
  <rect height="71.2256" opacity="0" width="80.4138" x="0" y="0"/>
  <path d="M66.1444 23.9234C69.8553 23.9234 72.8241 20.8374 72.8241 17.2437C72.8241 13.4937 69.8553 10.4468 66.1444 10.4468C62.3944 10.4468 59.4061 13.4937 59.4061 17.2437C59.4061 20.9741 62.3944 23.9234 66.1444 23.9234ZM26.1444 59.3921C27.4335 60.7398 29.6405 60.6226 31.2225 59.0015L41.9061 47.9663C42.2577 47.5952 42.5116 47.4976 43.0585 47.7124L51.535 50.9351C56.867 52.9663 61.8475 51.0913 64.2694 46.6968L69.5038 37.1656C71.6131 33.3374 70.9295 29.4312 67.3163 27.5171C63.8202 25.5835 60.1678 27.0288 58.0585 30.9156L51.1053 43.6109L45.1874 41.4624C42.2381 40.3882 39.7967 40.7202 37.4725 43.1421L26.3788 54.6265C24.8358 56.2085 24.9725 58.2007 26.1444 59.3921Z" fill="black" fill-opacity="0.85"/>
  <path d="M0.402204 18.0445L7.16002 26.7163C7.47252 27.0874 7.92174 27.1851 8.33189 26.9507C9.93345 26.1109 12.2577 25.5249 14.0936 25.5249C15.9491 25.5249 18.2928 26.1109 19.8553 26.9507C20.3045 27.1851 20.7733 27.0874 21.0467 26.7163L27.8241 18.0445C28.4295 17.2437 28.3319 16.4429 27.5897 15.8765C24.7772 13.7476 19.5038 12.1265 14.0936 12.1265C8.72252 12.1265 3.42955 13.7476 0.636579 15.8765C-0.12514 16.4429-0.203265 17.2632 0.402204 18.0445ZM7.51158 31.8921C6.74986 30.896 6.43736 29.9585 6.43736 28.9234C6.43736 26.6577 8.33189 25.9546 8.33189 24.607C8.33189 23.2398 6.43736 22.5952 6.43736 20.2515C6.43736 19.2359 6.74986 18.2984 7.53111 17.3023C8.33189 16.3257 9.79674 17.3609 9.01549 18.4156C8.44908 19.1773 8.29283 19.6265 8.29283 20.2515C8.29283 21.9507 10.1874 22.4585 10.1874 24.607C10.1874 26.7749 8.29283 27.3023 8.29283 28.9234C8.29283 29.607 8.44908 30.0171 9.01549 30.7788C9.75767 31.814 8.31236 32.8491 7.51158 31.8921ZM13.3124 31.8921C12.5897 30.896 12.2577 29.9585 12.2577 28.9234C12.2577 26.6577 14.1522 25.9546 14.1522 24.607C14.1522 23.2398 12.2577 22.5952 12.2577 20.2515C12.2577 19.2359 12.5897 18.2984 13.3319 17.3023C14.1522 16.3257 15.6366 17.3609 14.8553 18.4156C14.2889 19.1773 14.1131 19.6265 14.1131 20.2515C14.1131 21.9507 16.0077 22.4585 16.0077 24.607C16.0077 26.7749 14.1131 27.3023 14.1131 28.9234C14.1131 29.607 14.2889 30.0171 14.8358 30.7788C15.5975 31.814 14.1131 32.8491 13.3124 31.8921ZM19.1913 31.8921C18.4295 30.896 18.0975 29.9585 18.0975 28.9234C18.0975 26.6577 19.992 25.9546 19.992 24.607C19.992 23.2398 18.0975 22.5952 18.0975 20.2515C18.0975 19.2359 18.41 18.2984 19.1913 17.3023C19.992 16.3257 21.4569 17.3609 20.6756 18.4156C20.1288 19.1773 19.953 19.6265 19.953 20.2515C19.953 21.9507 21.828 22.4585 21.828 24.607C21.828 26.7749 19.953 27.3023 19.953 28.9234C19.953 29.607 20.1288 30.0171 20.6561 30.7788C21.4178 31.814 19.9725 32.8491 19.1913 31.8921ZM32.5506 17.107C33.3124 17.107 33.9374 16.482 33.9374 15.7007L33.9374 8.82571L37.6288 8.82571C39.035 8.82571 39.6014 7.43899 38.6639 6.3843L33.6835 0.563989C32.9999-0.19773 32.1014-0.178199 31.4569 0.563989L26.3788 6.36477C25.4999 7.36086 26.0272 8.82571 27.4725 8.82571L31.1444 8.82571L31.1639 15.7007C31.1639 16.5015 31.7694 17.146 32.5506 17.107ZM36.9061 19.9976C36.9256 20.8179 37.5506 21.4429 38.3124 21.4429L45.1874 21.4429L45.1874 25.0952C45.1874 26.482 46.6522 27.0874 47.6874 26.1695L53.4491 21.1304C54.2303 20.4859 54.1717 19.5874 53.4491 18.9429L47.6874 13.8843C46.6913 12.9859 45.1874 13.5327 45.1874 14.9585L45.1874 18.6109L38.3124 18.6109C37.5311 18.6109 36.9061 19.2359 36.9061 19.9976ZM32.5311 22.9273C31.7499 22.9273 31.1444 23.5327 31.1444 24.3335L31.1444 31.2085L27.4725 31.2085C25.9881 31.2085 25.4803 32.6929 26.3592 33.689L31.4764 39.4702C32.121 40.1929 32.9999 40.2515 33.6639 39.4898L38.6639 33.6499C39.5624 32.6148 39.0155 31.2085 37.6288 31.2085L33.9374 31.2085L33.9374 24.3335C33.9374 23.5718 33.2733 22.9663 32.5311 22.9273Z" fill="black" fill-opacity="0.85"/>
 </g>
</svg>
