<?xml version="1.0" encoding="UTF-8"?>
<!--Generator: Apple Native CoreSVG 326-->
<!DOCTYPE svg
PUBLIC "-//W3C//DTD SVG 1.1//EN"
       "http://www.w3.org/Graphics/SVG/1.1/DTD/svg11.dtd">
<svg version="1.1" xmlns="http://www.w3.org/2000/svg" xmlns:xlink="http://www.w3.org/1999/xlink" viewBox="0 0 66.1187 56.3477">
 <g>
  <rect height="56.3477" opacity="0" width="66.1187" x="0" y="0"/>
  <path d="M22.1121 52.832L29.3777 52.832C30.5301 52.832 31.0769 52.0508 30.784 50.7617L28.2254 39.6094L35.5886 30.5273L57.3074 26.5625L59.1043 29.9609C59.8465 31.3477 62.2879 30.8984 61.9754 29.1211L60.784 22.3633C60.6082 21.3477 59.9441 20.9766 59.0457 21.1328L44.1433 23.7695L34.9441 23.2812C32.3074 22.793 27.8933 20.8789 26.9168 18.457C26.6433 17.7539 27.0535 17.1094 27.6785 16.9922L41.5457 14.5312C43.2644 14.2383 43.8894 12.793 43.616 11.5625C43.3621 10.332 42.2683 9.25781 40.6082 9.57031L2.05349 16.6211C0.432398 16.9336-0.173071 18.2617 0.0417728 19.5117C0.295679 20.7617 1.35037 21.8555 3.04959 21.5625L14.3582 19.4922C15.3543 19.3164 15.784 19.707 15.9207 20.2539C17.2293 25.1758 22.1121 28.6914 27.1316 30.6055L23.4793 36.8164C22.9324 37.7539 22.6785 38.6719 22.9715 39.9219L25.0418 48.8086L21.7605 49.8828C20.1785 50.3711 20.3543 52.832 22.1121 52.832ZM18.5574 10.8203C21.5847 10.8203 24.0066 8.41797 24.0066 5.39062C24.0066 2.40234 21.5847 0 18.5574 0C15.5691 0 13.1863 2.40234 13.1863 5.39062C13.1863 8.41797 15.5691 10.8203 18.5574 10.8203ZM20.7254 56.3281L30.5105 56.3281C30.9988 56.3281 31.3308 55.957 31.3308 55.5078C31.3308 54.9805 30.9988 54.6289 30.5105 54.6289L20.7254 54.6289C20.2566 54.6289 19.866 54.9805 19.866 55.5078C19.866 55.957 20.2566 56.3281 20.7254 56.3281ZM65.7254 30.3516L64.0261 20.6836C63.948 20.2344 63.5183 19.9414 63.0691 20.0391C62.5808 20.1172 62.2683 20.5273 62.366 20.9961L64.0652 30.6445C64.1433 31.1133 64.5535 31.4258 65.0613 31.3281C65.5105 31.2695 65.8035 30.8203 65.7254 30.3516Z" fill="black" fill-opacity="0.85"/>
 </g>
</svg>
