<?xml version="1.0" encoding="UTF-8"?>
<!--Generator: Apple Native CoreSVG 326-->
<!DOCTYPE svg
PUBLIC "-//W3C//DTD SVG 1.1//EN"
       "http://www.w3.org/Graphics/SVG/1.1/DTD/svg11.dtd">
<svg version="1.1" xmlns="http://www.w3.org/2000/svg" xmlns:xlink="http://www.w3.org/1999/xlink" viewBox="0 0 47.9492 51.1914">
 <g>
  <rect height="51.1914" opacity="0" width="47.9492" x="0" y="0"/>
  <path d="M6.69922 13.9062C2.98828 13.9062 0 10.8203 0 7.22656C0 3.47656 2.98828 0.429688 6.69922 0.429688C10.4297 0.429688 13.418 3.47656 13.418 7.22656C13.418 10.957 10.4297 13.9062 6.69922 13.9062ZM46.6797 49.375C45.3906 50.7227 43.1836 50.6055 41.6016 48.9844L30.9375 37.9492C30.5664 37.5781 30.3125 37.4805 29.7656 37.6953L21.3086 40.918C15.957 42.9492 10.9766 41.0742 8.57422 36.6797L3.32031 27.1484C1.23047 23.3203 1.89453 19.4141 5.52734 17.5C9.02344 15.5664 12.6562 17.0117 14.7656 20.8984L21.7383 33.5938L27.6562 31.4453C30.5859 30.3711 33.0273 30.7031 35.3516 33.125L46.4453 44.6094C48.0078 46.1914 47.8516 48.1836 46.6797 49.375Z" fill="black" fill-opacity="0.85"/>
  <path d="M22.8711 16.0742C22.8711 19.7266 26.1719 23.3984 29.3555 23.3984C32.168 23.3984 33.6328 20.9375 35.1562 16.4062L35.8984 16.2891L35.8984 21.25C35.8984 23.3008 36.9531 24.3359 38.9453 24.3359C42.5977 24.3359 46.25 21.0547 46.25 17.8711C46.25 15.0391 43.7891 13.5938 39.2383 12.0508L39.1406 11.3086L44.1016 11.3086C46.1523 11.3086 47.1875 10.2539 47.1875 8.28125C47.1875 4.60938 43.9258 0.9375 40.7227 0.9375C37.8906 0.9375 36.4258 3.41797 34.9023 7.98828L34.1602 8.06641L34.1602 3.10547C34.1602 1.07422 33.125 0 31.1523 0C27.4609 0 23.8086 3.30078 23.8086 6.48438C23.8086 9.29688 26.2891 10.7617 30.8594 12.2852L30.8984 13.0469L25.9766 13.0469C23.9258 13.0469 22.8711 14.1016 22.8711 16.0742ZM35.0195 14.707C33.6328 14.707 32.5 13.5742 32.5 12.168C32.5 10.7812 33.6328 9.64844 35.0195 9.64844C36.4258 9.64844 37.5586 10.7812 37.5586 12.168C37.5586 13.5742 36.4258 14.707 35.0195 14.707Z" fill="black" fill-opacity="0.85"/>
 </g>
</svg>
