<?xml version="1.0" encoding="UTF-8"?>
<!--Generator: Apple Native CoreSVG 326-->
<!DOCTYPE svg
PUBLIC "-//W3C//DTD SVG 1.1//EN"
       "http://www.w3.org/Graphics/SVG/1.1/DTD/svg11.dtd">
<svg version="1.1" xmlns="http://www.w3.org/2000/svg" xmlns:xlink="http://www.w3.org/1999/xlink" viewBox="0 0 48.3091 47.0202">
 <g>
  <rect height="47.0202" opacity="0" width="48.3091" x="0" y="0"/>
  <path d="M9.71121 12.2503C12.6995 12.2503 15.1018 9.848 15.1018 6.85972C15.1018 3.87144 12.6995 1.46909 9.71121 1.46909C6.74246 1.46909 4.34011 3.87144 4.34011 6.85972C4.34011 9.848 6.74246 12.2503 9.71121 12.2503ZM0.0627711 22.6605L1.52761 31.5472C2.05496 34.7699 6.48855 34.1253 5.96121 30.9222L4.71121 23.2269L9.75027 21.2542C10.5511 20.9613 11.2151 21.0785 11.5667 21.8011L16.1761 30.9613C17.5628 33.7152 18.7151 34.555 19.8479 35.3753L34.8089 46.3519C37.4261 48.266 40.5315 44.4964 37.5823 42.348L25.9612 33.8128C25.3948 33.3832 25.4339 32.5824 26.0784 32.2308L34.0081 27.6605L44.3792 32.6019C47.3089 34.0082 49.6526 29.9066 46.2151 28.266L35.1409 22.9925C33.8323 22.3675 32.5628 22.5433 31.469 23.2074L26.2542 26.2347C25.5706 26.6449 25.0237 26.4691 24.7698 25.9027L20.5901 17.3675C20.18 16.5667 20.2776 15.766 21.1565 15.3753L24.9846 13.6175C26.2542 13.0316 26.7034 12.6214 27.055 11.4105L29.4573 3.01206C30.3753-0.132471 26.1565-1.28481 25.2581 1.85972L22.8753 10.1019L1.74246 19.3988C0.316677 20.0238-0.191135 21.0785 0.0627711 22.6605Z" fill="black" fill-opacity="0.85"/>
 </g>
</svg>
