<?xml version="1.0" encoding="UTF-8"?>
<!--Generator: Apple Native CoreSVG 326-->
<!DOCTYPE svg
PUBLIC "-//W3C//DTD SVG 1.1//EN"
       "http://www.w3.org/Graphics/SVG/1.1/DTD/svg11.dtd">
<svg version="1.1" xmlns="http://www.w3.org/2000/svg" xmlns:xlink="http://www.w3.org/1999/xlink" viewBox="0 0 41.0903 60.918">
 <g>
  <rect height="60.918" opacity="0" width="41.0903" x="0" y="0"/>
  <path d="M14.51 10.8398C17.4983 10.8398 19.9397 8.39844 19.9397 5.42969C19.9397 2.46094 17.4983 0.0195312 14.51 0.0195312C11.5608 0.0195312 9.11935 2.46094 9.11935 5.42969C9.11935 8.39844 11.5608 10.8398 14.51 10.8398ZM18.1819 48.5938C19.3342 48.8281 20.6233 48.3203 21.0725 46.7773L24.4123 35.5859C24.8811 34.0234 24.2365 32.7344 22.7912 32.207L14.1194 29.082L15.4084 20.1172C15.4865 19.6289 15.8772 19.4531 16.3459 19.668L20.7014 21.6602C21.2678 21.9141 21.7365 21.9922 22.4787 22.0703L33.4162 23.1641C34.8225 23.3203 36.0529 22.3438 36.1311 20.9766C36.2678 19.6484 35.2717 18.418 33.924 18.2812L22.7522 17.1875L14.2951 13.3008C10.6819 11.6602 6.95138 13.4961 6.48263 17.1094L5.09591 27.6562C4.68576 30.7617 6.59982 33.5742 9.62716 34.2773L19.0412 36.4453L16.3264 45.3516C15.7795 47.1289 16.8928 48.3398 18.1819 48.5938ZM1.22873 56.4453C2.28341 56.9727 3.7092 56.8359 4.6467 55.4297L11.3654 45.4102C11.6584 45.0195 11.7951 44.5508 11.8928 43.9258L12.9475 37.4414L9.15841 36.582C8.55295 36.4453 7.96701 36.25 7.42013 35.9766L6.95138 43.1641L0.564664 52.6758C-0.529086 54.3359 0.115445 55.8203 1.22873 56.4453ZM40.6037 15.7617C40.2717 15.0977 39.549 14.8633 38.9045 15.1758C37.5569 15.8203 36.8342 16.2109 36.092 16.6211C36.8733 17.0703 37.5178 17.7344 37.9084 18.5352C38.3967 18.2422 38.924 17.9688 39.9983 17.4023C40.6428 17.0703 40.8772 16.3477 40.6037 15.7617ZM7.16623 60.918L16.3459 60.918C17.049 60.918 17.5959 60.3711 17.5959 59.6875L17.5959 55L25.5451 55C26.2092 55 26.7756 54.4336 26.7756 53.75L26.7756 49.082L32.5373 49.082C33.2014 49.082 33.7483 48.5547 33.7678 47.8711L34.6467 25.2734C34.4319 25.293 34.2951 25.3125 34.1194 25.3516C33.4748 25.4102 32.7717 25.3711 32.1858 25.332L31.3264 46.582L25.5451 46.582C24.842 46.582 24.3147 47.1094 24.3147 47.8125L24.3147 52.5195L16.3459 52.5195C15.6623 52.5195 15.1154 53.0664 15.1154 53.75L15.1154 58.4375L7.16623 58.4375C6.4631 58.4375 5.8967 59.0039 5.8967 59.6875C5.8967 60.3516 6.48263 60.918 7.16623 60.918Z" fill="black" fill-opacity="0.85"/>
 </g>
</svg>
