<?xml version="1.0" encoding="UTF-8"?>
<!--Generator: Apple Native CoreSVG 326-->
<!DOCTYPE svg
PUBLIC "-//W3C//DTD SVG 1.1//EN"
       "http://www.w3.org/Graphics/SVG/1.1/DTD/svg11.dtd">
<svg version="1.1" xmlns="http://www.w3.org/2000/svg" xmlns:xlink="http://www.w3.org/1999/xlink" viewBox="0 0 80.4138 50.332">
 <g>
  <rect height="50.332" opacity="0" width="80.4138" x="0" y="0"/>
  <path d="M66.1444 13.4766C69.8553 13.4766 72.8241 10.3906 72.8241 6.79688C72.8241 3.04688 69.8553 0 66.1444 0C62.3944 0 59.4061 3.04688 59.4061 6.79688C59.4061 10.5273 62.3944 13.4766 66.1444 13.4766ZM26.1444 48.9453C27.4335 50.293 29.6405 50.1758 31.2225 48.5547L41.9061 37.5195C42.2577 37.1484 42.5116 37.0508 43.0585 37.2656L51.535 40.4883C56.867 42.5195 61.8475 40.6445 64.2694 36.25L69.5038 26.7188C71.6131 22.8906 70.9295 18.9844 67.3163 17.0703C63.8202 15.1367 60.1678 16.582 58.0585 20.4688L51.1053 33.1641L45.1874 31.0156C42.2381 29.9414 39.7967 30.2734 37.4725 32.6953L26.3788 44.1797C24.8358 45.7617 24.9725 47.7539 26.1444 48.9453Z" fill="black" fill-opacity="0.85"/>
  <path d="M0.402204 7.59766L7.16002 16.2695C7.47252 16.6406 7.92174 16.7383 8.33189 16.5039C9.93345 15.6641 12.2577 15.0781 14.0936 15.0781C15.9491 15.0781 18.2928 15.6641 19.8553 16.5039C20.3045 16.7383 20.7733 16.6406 21.0467 16.2695L27.8241 7.59766C28.4295 6.79688 28.3319 5.99609 27.5897 5.42969C24.7772 3.30078 19.5038 1.67969 14.0936 1.67969C8.72252 1.67969 3.42955 3.30078 0.636579 5.42969C-0.12514 5.99609-0.203265 6.81641 0.402204 7.59766ZM7.51158 21.4453C6.74986 20.4492 6.43736 19.5117 6.43736 18.4766C6.43736 16.2109 8.33189 15.5078 8.33189 14.1602C8.33189 12.793 6.43736 12.1484 6.43736 9.80469C6.43736 8.78906 6.74986 7.85156 7.53111 6.85547C8.33189 5.87891 9.79674 6.91406 9.01549 7.96875C8.44908 8.73047 8.29283 9.17969 8.29283 9.80469C8.29283 11.5039 10.1874 12.0117 10.1874 14.1602C10.1874 16.3281 8.29283 16.8555 8.29283 18.4766C8.29283 19.1602 8.44908 19.5703 9.01549 20.332C9.75767 21.3672 8.31236 22.4023 7.51158 21.4453ZM13.3124 21.4453C12.5897 20.4492 12.2577 19.5117 12.2577 18.4766C12.2577 16.2109 14.1522 15.5078 14.1522 14.1602C14.1522 12.793 12.2577 12.1484 12.2577 9.80469C12.2577 8.78906 12.5897 7.85156 13.3319 6.85547C14.1522 5.87891 15.6366 6.91406 14.8553 7.96875C14.2889 8.73047 14.1131 9.17969 14.1131 9.80469C14.1131 11.5039 16.0077 12.0117 16.0077 14.1602C16.0077 16.3281 14.1131 16.8555 14.1131 18.4766C14.1131 19.1602 14.2889 19.5703 14.8358 20.332C15.5975 21.3672 14.1131 22.4023 13.3124 21.4453ZM19.1913 21.4453C18.4295 20.4492 18.0975 19.5117 18.0975 18.4766C18.0975 16.2109 19.992 15.5078 19.992 14.1602C19.992 12.793 18.0975 12.1484 18.0975 9.80469C18.0975 8.78906 18.41 7.85156 19.1913 6.85547C19.992 5.87891 21.4569 6.91406 20.6756 7.96875C20.1288 8.73047 19.953 9.17969 19.953 9.80469C19.953 11.5039 21.828 12.0117 21.828 14.1602C21.828 16.3281 19.953 16.8555 19.953 18.4766C19.953 19.1602 20.1288 19.5703 20.6561 20.332C21.4178 21.3672 19.9725 22.4023 19.1913 21.4453ZM29.6405 10.5273C29.6405 11.4453 30.3631 12.1484 31.2616 12.1484L41.5936 12.1484L41.5936 16.4844C41.5936 18.0664 43.2538 18.7891 44.4647 17.7148L51.242 11.8359C52.0819 11.0742 52.0819 10.0391 51.242 9.29688L44.4647 3.41797C43.2928 2.38281 41.5936 2.96875 41.5936 4.64844L41.5936 8.96484L31.2616 8.96484C30.3631 8.96484 29.6405 9.66797 29.6405 10.5273Z" fill="black" fill-opacity="0.85"/>
 </g>
</svg>
