<?xml version="1.0" encoding="UTF-8"?>
<!--Generator: Apple Native CoreSVG 326-->
<!DOCTYPE svg
PUBLIC "-//W3C//DTD SVG 1.1//EN"
       "http://www.w3.org/Graphics/SVG/1.1/DTD/svg11.dtd">
<svg version="1.1" xmlns="http://www.w3.org/2000/svg" xmlns:xlink="http://www.w3.org/1999/xlink" viewBox="0 0 64.9299 50.332">
 <g>
  <rect height="50.332" opacity="0" width="64.9299" x="0" y="0"/>
  <path d="M15.17 13.4766C11.4591 13.4766 8.47082 10.3906 8.47082 6.79688C8.47082 3.04688 11.4591 0 15.17 0C18.92 0 21.9083 3.04688 21.9083 6.79688C21.9083 10.5273 18.92 13.4766 15.17 13.4766ZM55.1505 48.9453C53.881 50.293 51.6739 50.1758 50.0919 48.5547L39.4083 37.5195C39.0568 37.1484 38.8028 37.0508 38.256 37.2656L29.7794 40.4883C24.4474 42.5195 19.4474 40.6445 17.045 36.25L11.7911 26.7188C9.70128 22.8906 10.3849 18.9844 13.9982 17.0703C17.4943 15.1367 21.1271 16.582 23.256 20.4688L30.2091 33.1641L36.1271 31.0156C39.0568 29.9414 41.4982 30.2734 43.8419 32.6953L54.9357 44.1797C56.4786 45.7617 56.3224 47.7539 55.1505 48.9453Z" fill="black" fill-opacity="0.85"/>
  <path d="M53.0021 9.80469C53.0021 8.94531 52.2989 8.24219 51.381 8.24219L41.4591 8.24219L41.4591 4.23828C41.4591 2.61719 39.7989 2.03125 38.6857 3.04688L32.2989 8.61328C31.4786 9.33594 31.4786 10.3125 32.2989 11.0547L38.6857 16.6211C39.838 17.6758 41.4591 16.9727 41.4591 15.4297L41.4591 11.4258L51.381 11.4258C52.2989 11.4258 53.0021 10.7227 53.0021 9.80469ZM57.6505 12.5391C56.7716 12.5391 56.0685 13.2422 56.0685 14.1406L56.0685 24.0625L52.045 24.0625C50.4825 24.0625 49.7989 25.6641 50.8536 26.8359L56.4005 33.2422C57.1036 34.043 58.1193 34.082 58.8419 33.2422L64.4278 26.8359C65.4435 25.7227 64.8575 24.1016 63.2169 24.082L59.2325 24.0625L59.2325 14.1406C59.2325 13.2422 58.5099 12.5391 57.6505 12.5391Z" fill="black" fill-opacity="0.85"/>
 </g>
</svg>
