<?xml version="1.0" encoding="UTF-8"?>
<!--Generator: Apple Native CoreSVG 326-->
<!DOCTYPE svg
PUBLIC "-//W3C//DTD SVG 1.1//EN"
       "http://www.w3.org/Graphics/SVG/1.1/DTD/svg11.dtd">
<svg version="1.1" xmlns="http://www.w3.org/2000/svg" xmlns:xlink="http://www.w3.org/1999/xlink" viewBox="0 0 51.25 50.918">
 <g>
  <rect height="50.918" opacity="0" width="51.25" x="0" y="0"/>
  <path d="M50.8789 25.4492C50.8789 39.4531 39.4531 50.8789 25.4297 50.8789C11.4258 50.8789 0 39.4531 0 25.4492C0 11.4258 11.4258 0 25.4297 0C39.4531 0 50.8789 11.4258 50.8789 25.4492ZM41.2305 17.7344C39.2578 18.0469 35.1953 18.3398 32.2461 18.5352C29.8438 18.5742 27.168 18.6523 25.4883 18.6523C23.7695 18.6523 21.0156 18.5742 18.5352 18.5352C15.6445 18.3789 11.5625 18.1055 9.57031 17.7344C9.39453 17.6758 9.21875 17.6172 8.98438 17.6172C8.41797 17.6172 7.92969 18.125 7.92969 18.8086C7.92969 19.4336 8.30078 19.9414 8.80859 20C9.51172 20.1758 14.1406 20.7422 14.7266 20.8789C15.2539 20.9766 15.6055 21.4648 15.6055 22.1484C15.625 23.1641 15.6055 26.5625 15.3516 28.125C15.0977 29.668 13.3203 37.0703 13.2227 37.3438C13.0078 38.1641 13.5156 38.9062 14.3359 38.9062C14.9805 38.9062 15.3516 38.5742 15.5859 37.8125C15.9766 36.3086 17.207 31.1719 17.6562 29.9805C17.9297 29.0625 18.125 28.7891 18.5352 28.7891C19.0039 28.7891 19.2578 29.043 19.5312 29.9414C19.8828 31.1328 21.2109 36.2891 21.543 37.8125C21.6992 38.5547 22.1094 38.9062 22.7734 38.9062C23.5742 38.9062 24.1016 38.1836 23.8281 37.3633C23.75 37.0703 21.9922 29.668 21.7383 28.125C21.5234 26.5625 21.5234 23.1641 21.543 22.207C21.5625 21.4453 21.875 21.0547 22.6172 20.918C23.2812 20.7812 24.4336 20.7227 25.4297 20.7422C26.6797 20.7422 27.6562 20.8008 28.2227 20.918C28.9648 21.0547 29.2969 21.4453 29.2969 22.207C29.3555 23.1641 29.2969 26.5625 29.0625 28.125C28.8086 29.668 27.0703 37.0703 26.9727 37.3438C26.6992 38.1836 27.2266 38.9062 28.0273 38.9062C28.6719 38.9062 29.1016 38.5547 29.2773 37.8125C29.668 36.3086 30.918 31.1719 31.3086 29.9805C31.6406 29.043 31.8359 28.7891 32.2461 28.7891C32.6953 28.7891 32.9102 29.043 33.2031 29.9805C33.6133 31.1328 34.9023 36.2891 35.2539 37.8125C35.4297 38.5742 35.8203 38.9062 36.4648 38.9062C37.2656 38.9062 37.7734 38.1641 37.5586 37.3633C37.4609 37.0703 35.7031 29.668 35.4492 28.125C35.2148 26.5625 35.2344 23.1641 35.2344 22.1484C35.2344 21.4844 35.5273 20.9766 36.0938 20.8789C36.6797 20.7227 41.3281 20.2539 42.0117 20C42.5586 19.8438 42.8906 19.375 42.8906 18.8086C42.8906 18.1445 42.3828 17.6172 41.8359 17.6172C41.6016 17.6172 41.4258 17.6758 41.2305 17.7344ZM15.8594 14.5117C15.8594 16.0352 17.0508 17.207 18.5352 17.207C20.0391 17.207 21.25 16.0352 21.25 14.5117C21.25 13.0469 20.0586 11.8555 18.5352 11.8555C17.0508 11.8555 15.8594 13.0469 15.8594 14.5117ZM29.5898 14.5117C29.5898 16.0352 30.7617 17.207 32.2461 17.207C33.7305 17.207 34.9805 16.0156 34.9805 14.5117C34.9805 13.0469 33.75 11.8555 32.2461 11.8555C30.7617 11.8555 29.5898 13.0469 29.5898 14.5117Z" fill="black" fill-opacity="0.85"/>
 </g>
</svg>
