<?xml version="1.0" encoding="UTF-8"?>
<!--Generator: Apple Native CoreSVG 326-->
<!DOCTYPE svg
PUBLIC "-//W3C//DTD SVG 1.1//EN"
       "http://www.w3.org/Graphics/SVG/1.1/DTD/svg11.dtd">
<svg version="1.1" xmlns="http://www.w3.org/2000/svg" xmlns:xlink="http://www.w3.org/1999/xlink" viewBox="0 0 60.1367 56.0742">
 <g>
  <rect height="56.0742" opacity="0" width="60.1367" x="0" y="0"/>
  <path d="M29.7852 9.98047C32.5586 9.98047 34.8047 7.77344 34.8047 5.01953C34.8047 2.22656 32.5586 0 29.7852 0C27.0312 0 24.7852 2.22656 24.7852 5.01953C24.7852 7.77344 27.0312 9.98047 29.7852 9.98047ZM21.9727 30.0586L30.7812 35.0195L25.0977 39.9219C23.9062 40.9375 23.9062 42.2852 24.6094 43.125C25.4102 43.9844 26.7578 44.1211 27.9883 43.0664L35.918 36.3086C36.9922 35.3906 36.8164 33.457 35.5273 32.6172L26.8945 26.9141L28.6133 20.9375C28.8477 20.0586 29.8633 19.9219 30.3906 20.7031L32.8906 24.3945C33.4766 25.2734 34.5508 25.5664 35.5273 25.1367L42.832 21.875C44.1211 21.2891 44.6094 20.2148 44.0234 19.043C43.5156 17.8906 42.4023 17.5586 41.1133 18.125L35.293 20.7031L31.3086 15.1758C29.2188 12.3047 26.6602 11.1523 22.4609 11.4453L14.3555 12.0312C13.0664 12.1289 12.2266 12.9688 12.0508 14.2773L10.957 22.4609C10.7812 23.9062 11.4258 24.8828 12.7148 25.0195C13.9844 25.1367 14.7461 24.3945 14.9609 22.9883L15.9766 16.2695L19.2773 16.0352C20 15.957 20.7031 16.5039 20.4492 17.4023L18.5547 24.0039C17.4609 27.8516 19.9609 28.9258 21.9727 30.0586ZM6.52344 49.9219C7.42188 50.6641 8.71094 50.7422 9.84375 49.6289L17.3047 42.2266C17.9297 41.6211 18.0664 41.4648 18.4375 40.5078L21.543 32.5L20.8203 32.0703C19.1602 31.1133 17.9297 30.3125 17.0508 29.1602L14.3555 38.7695L6.58203 46.5039C5.39062 47.6562 5.58594 49.1016 6.52344 49.9219ZM45.7617 28.0859C45.9961 28.6523 46.7578 28.9648 47.4609 28.6523L59.0234 23.2422C59.668 22.9297 59.9219 22.207 59.6484 21.5625C59.3945 20.957 58.6719 20.6836 57.9492 20.9961L46.3867 26.4062C45.7227 26.7188 45.4492 27.4609 45.7617 28.0859ZM47.0508 48.6133L49.0039 48.4961C49.3359 48.4766 49.4336 48.457 49.5898 48.4766L53.7695 24.5117L51.0742 25.7031ZM1.15234 56.0547L50.0977 56.0547C51.582 56.0547 52.6953 54.9219 52.6953 53.3984C52.6953 51.6602 51.3867 50.6836 49.5508 50.8008L1.17188 53.7109C0.507812 53.75 0 54.2383 0 54.9023C0 55.5469 0.507812 56.0547 1.15234 56.0547Z" fill="black" fill-opacity="0.85"/>
 </g>
</svg>
