<?xml version="1.0" encoding="UTF-8"?>
<!--Generator: Apple Native CoreSVG 326-->
<!DOCTYPE svg
PUBLIC "-//W3C//DTD SVG 1.1//EN"
       "http://www.w3.org/Graphics/SVG/1.1/DTD/svg11.dtd">
<svg version="1.1" xmlns="http://www.w3.org/2000/svg" xmlns:xlink="http://www.w3.org/1999/xlink" viewBox="0 0 51.25 50.918">
 <g>
  <rect height="50.918" opacity="0" width="51.25" x="0" y="0"/>
  <path d="M25.4297 50.8789C39.4727 50.8789 50.8789 39.4922 50.8789 25.4492C50.8789 11.4062 39.4727 0 25.4297 0C11.3867 0 0 11.4062 0 25.4492C0 39.4922 11.3867 50.8789 25.4297 50.8789ZM25.4297 47.2461C13.3789 47.2461 3.63281 37.5 3.63281 25.4492C3.63281 13.3984 13.3789 3.65234 25.4297 3.65234C37.4805 3.65234 47.2266 13.3984 47.2266 25.4492C47.2266 37.5 37.4805 47.2461 25.4297 47.2461Z" fill="black" fill-opacity="0.85"/>
  <path d="M22.3633 19.0234C24.0234 19.0234 25.4102 17.6758 25.4102 15.957C25.4102 14.2969 24.0234 12.9492 22.3633 12.9492C20.6836 12.9492 19.3359 14.2969 19.3359 15.957C19.3359 17.6758 20.6836 19.0234 22.3633 19.0234ZM14.3164 25.8008C14.3164 26.8945 15.4492 27.4023 16.3086 26.9531L21.1914 24.5117C21.4062 24.375 21.6797 24.5312 21.7383 24.7656L23.1445 30.4492L20.9375 36.0156L15.7031 36.0156C14.9414 36.0156 14.3164 36.6211 14.3164 37.3633C14.3164 38.125 14.9414 38.7305 15.7031 38.7305L21.7969 38.7305C22.4023 38.7305 22.8125 38.4961 23.1055 37.9297L26.0742 32.4414L27.7148 36.8164L22.4805 40.332C21.8359 40.7617 21.6602 41.6211 22.0898 42.2461C22.5 42.8516 23.3008 43.0469 23.9648 42.5977L30.1953 38.457C30.6641 38.1445 30.8984 37.6953 30.6836 36.875L26.9922 22.207C26.8945 21.875 26.9727 21.6016 27.3242 21.4258L35.5469 17.3438C36.2305 17.0117 36.5234 16.1719 36.1719 15.5078C35.8203 14.8047 35 14.5508 34.3164 14.8828L17.0703 23.5156L17.0703 18.8867C17.0703 18.1445 16.4648 17.5391 15.7031 17.5391C14.9414 17.5391 14.3164 18.1445 14.3164 18.8867ZM32.207 13.7109C33.6914 13.7109 34.8828 12.5195 34.8828 11.0156C34.8828 9.53125 33.6914 8.32031 32.207 8.32031C30.7031 8.32031 29.5117 9.53125 29.5117 11.0156C29.5117 12.5195 30.7031 13.7109 32.207 13.7109Z" fill="black" fill-opacity="0.85"/>
 </g>
</svg>
