<?xml version="1.0" encoding="UTF-8"?>
<!--Generator: Apple Native CoreSVG 326-->
<!DOCTYPE svg
PUBLIC "-//W3C//DTD SVG 1.1//EN"
       "http://www.w3.org/Graphics/SVG/1.1/DTD/svg11.dtd">
<svg version="1.1" xmlns="http://www.w3.org/2000/svg" xmlns:xlink="http://www.w3.org/1999/xlink" viewBox="0 0 51.25 50.918">
 <g>
  <rect height="50.918" opacity="0" width="51.25" x="0" y="0"/>
  <path d="M25.4297 50.8789C39.4727 50.8789 50.8789 39.4922 50.8789 25.4492C50.8789 11.4062 39.4727 0 25.4297 0C11.3867 0 0 11.4062 0 25.4492C0 39.4922 11.3867 50.8789 25.4297 50.8789ZM25.4297 47.2461C13.3789 47.2461 3.63281 37.5 3.63281 25.4492C3.63281 13.3984 13.3789 3.65234 25.4297 3.65234C37.4805 3.65234 47.2266 13.3984 47.2266 25.4492C47.2266 37.5 37.4805 47.2461 25.4297 47.2461Z" fill="black" fill-opacity="0.85"/>
  <path d="M24.9609 33.1641C25.7227 33.1641 26.3477 32.5391 26.3477 31.7773L26.3477 24.7656C26.3477 24.4531 26.2305 24.1211 25.957 23.8477L22.3047 19.7852C22.0898 19.5312 22.2461 19.1406 22.5977 19.1406L27.0508 19.1406C27.5977 19.1406 27.7734 19.5312 27.7734 19.9219L27.7734 23.3789C27.7734 24.1211 28.418 24.7656 29.1602 24.7656L34.7852 24.7656C35.5469 24.7656 36.1523 24.1211 36.1523 23.3789C36.1523 22.6172 35.5469 21.9727 34.7852 21.9727L30.5664 21.9727L30.5664 17.0703C30.5664 15.5078 29.3164 14.2578 27.7734 14.2578L20.918 14.2578C19.5117 14.2578 18.2617 15.1172 17.7148 16.4062C17.168 17.7344 17.4609 19.2383 18.457 20.2344L23.5742 25.3711L23.5742 31.7773C23.5742 32.5391 24.1992 33.1641 24.9609 33.1641ZM15.7812 37.7539C19.5117 37.7539 22.5195 34.8242 22.5195 31.0742C22.5195 27.3438 19.5117 24.375 15.7812 24.375C12.0703 24.375 9.10156 27.3438 9.10156 31.0742C9.10156 34.8242 12.0703 37.7539 15.7812 37.7539ZM15.7812 36.2109C12.9492 36.2109 10.6641 33.9258 10.6641 31.0742C10.6641 28.2227 12.9492 25.918 15.7812 25.918C18.6328 25.918 20.957 28.2227 20.957 31.0742C20.957 33.9258 18.6328 36.2109 15.7812 36.2109ZM37.5391 27.3633C38.5742 28.2812 39.2578 29.6289 39.2578 31.1328C39.2578 34.0039 36.9727 36.2891 34.1016 36.2891C31.2695 36.2891 28.9648 34.0039 28.9648 31.1328C28.9648 30.4492 29.1016 29.7461 29.375 29.1016C29.6484 28.5352 29.375 28.1055 29.0039 27.9688C28.6328 27.8125 28.1836 27.9297 28.0078 28.418C27.6172 29.2773 27.4219 30.1953 27.4219 31.1328C27.4219 34.8828 30.3711 37.832 34.1016 37.832C37.8516 37.832 40.8203 34.8828 40.8203 31.1328C40.8203 29.1406 39.9219 27.3438 38.5156 26.1133C38.1055 25.7422 37.6367 25.8984 37.3633 26.1523C37.1094 26.4453 37.0508 26.8945 37.5391 27.3633ZM35.0195 18.0273C36.6992 18.0273 38.0469 16.6406 38.0469 14.9609C38.0469 13.2812 36.6992 11.9141 35.0195 11.9141C33.3398 11.9141 31.9922 13.2812 31.9922 14.9609C31.9922 16.6406 33.3398 18.0273 35.0195 18.0273Z" fill="black" fill-opacity="0.85"/>
 </g>
</svg>
