<?xml version="1.0" encoding="UTF-8"?>
<!--Generator: Apple Native CoreSVG 326-->
<!DOCTYPE svg
PUBLIC "-//W3C//DTD SVG 1.1//EN"
       "http://www.w3.org/Graphics/SVG/1.1/DTD/svg11.dtd">
<svg version="1.1" xmlns="http://www.w3.org/2000/svg" xmlns:xlink="http://www.w3.org/1999/xlink" viewBox="0 0 51.25 50.918">
 <g>
  <rect height="50.918" opacity="0" width="51.25" x="0" y="0"/>
  <path d="M50.8789 25.4492C50.8789 39.4531 39.4531 50.8789 25.4297 50.8789C11.4258 50.8789 0 39.4531 0 25.4492C0 11.4258 11.4258 0 25.4297 0C39.4531 0 50.8789 11.4258 50.8789 25.4492ZM16.5234 16.2109C15.918 16.2109 15.4102 16.543 15.1953 17.0312L12.4023 22.5781C12.0312 23.2812 12.3047 24.1797 13.0469 24.5508C13.8086 24.8828 14.6484 24.6289 15.0391 23.8867L17.4023 19.1797L20.3125 19.1797C20.6641 19.1797 20.8594 19.5117 20.7031 19.8047L18.5352 24.1211C17.7734 25.6641 17.5586 27.4414 17.9883 29.1016L19.0234 33.1445L13.3594 38.7695C12.793 39.3164 12.793 40.293 13.3789 40.8594C13.9453 41.4062 14.8438 41.5039 15.4492 40.8594L21.6797 34.6484C22.0703 34.2969 22.1484 33.9844 22.0898 33.418L21.7383 29.3359C21.7188 29.1211 21.9336 29.0234 22.1094 29.1602L26.6016 33.0469L28.9258 40.2539C29.1992 41.1133 30.0586 41.4258 30.7617 41.2305C31.6016 40.957 31.9727 40.1367 31.7383 39.375L29.3164 31.7578C29.2578 31.543 29.1211 31.3086 28.9648 31.1523L24.1602 26.3867L27.2461 20.1953C27.3828 19.9414 27.6758 19.9023 27.8711 20.0977L31.3477 23.5938C31.5234 23.7695 31.7383 23.9062 31.9531 23.9648L38.9062 26.0156C39.4727 26.2109 40.4297 25.957 40.7422 25.0195C40.957 24.2383 40.5078 23.418 39.7266 23.1836L33.1836 21.25L29.4141 17.4609C28.5547 16.6211 27.5781 16.2109 26.4258 16.2109ZM35.918 30.9961C35.918 32.8906 37.4414 34.3945 39.3164 34.3945C41.2109 34.3945 42.6758 32.8906 42.6758 30.9961C42.6758 29.1406 41.2109 27.6367 39.3164 27.6367C37.4414 27.6367 35.918 29.1406 35.918 30.9961ZM23.418 11.5625C23.418 13.2812 24.7852 14.6875 26.5234 14.6875C28.2227 14.6875 29.6094 13.2812 29.6094 11.5625C29.6094 9.86328 28.2227 8.47656 26.5234 8.47656C24.7852 8.47656 23.418 9.86328 23.418 11.5625Z" fill="black" fill-opacity="0.85"/>
 </g>
</svg>
