<?xml version="1.0" encoding="UTF-8"?>
<!--Generator: Apple Native CoreSVG 326-->
<!DOCTYPE svg
PUBLIC "-//W3C//DTD SVG 1.1//EN"
       "http://www.w3.org/Graphics/SVG/1.1/DTD/svg11.dtd">
<svg version="1.1" xmlns="http://www.w3.org/2000/svg" xmlns:xlink="http://www.w3.org/1999/xlink" viewBox="0 0 63.1641 48.8477">
 <g>
  <rect height="48.8477" opacity="0" width="63.1641" x="0" y="0"/>
  <path d="M41.7969 10.8398C44.8047 10.8398 47.2266 8.41797 47.2266 5.41016C47.2266 2.42188 44.8047 0 41.7969 0C38.8086 0 36.4062 2.42188 36.4062 5.41016C36.4062 8.41797 38.8086 10.8398 41.7969 10.8398ZM24.4336 48.5352C25.5469 48.9453 26.9336 48.6523 27.6367 47.207L33.9844 34.5117C34.4727 33.5547 34.3555 32.4219 33.5156 31.582L25.8594 23.9062L35.5273 19.082C35.9961 18.8477 36.5234 18.9648 36.8555 19.2969L42.6172 25.0195C43.0664 25.4883 43.7305 25.7617 44.375 25.7617L55.8203 25.7617C57.207 25.7617 58.3594 24.6484 58.3594 23.2422C58.3594 21.8359 57.207 20.7031 55.8203 20.7031L45.4297 20.7031L34.7461 9.98047C33.4961 8.71094 31.7578 8.00781 29.9414 8.00781L8.86719 8.00781C7.48047 8.00781 6.32812 9.16016 6.32812 10.5469C6.32812 11.9336 7.48047 13.0859 8.86719 13.0859L24.7656 13.0859C25.0586 13.0859 25.1367 13.5156 24.8828 13.6523L20.1562 15.9961C17.6562 17.2266 16.3867 19.5703 16.3867 21.9727C16.3867 24.0039 17.3242 26.0547 19.1992 27.4023L28.4766 34.1797L23.1055 44.9414C22.2461 46.6406 23.1641 48.0273 24.4336 48.5352ZM2.51953 38.4375L15.2148 38.4375C16.1914 38.4375 17.0703 37.8906 17.5 37.0508L20.4297 31.1914L17.832 29.2969C16.8945 28.5938 16.1133 27.793 15.5273 26.8945L13.418 33.3789L2.51953 33.3789C1.13281 33.3789 0 34.5117 0 35.918C0 37.3047 1.13281 38.4375 2.51953 38.4375ZM57.1484 1.42578C53.8672 1.42578 51.4844 3.78906 51.4844 7.05078C51.4844 11.7578 55.6445 17.1289 56.1914 17.7148L58.0859 17.7148C58.6328 17.1289 62.793 11.7578 62.793 7.05078C62.793 3.78906 60.4102 1.42578 57.1484 1.42578ZM57.1484 3.90625C58.9844 3.90625 60.332 5.25391 60.332 7.05078C60.332 9.57031 58.3203 13.0469 57.1484 14.9023C55.957 13.0469 53.9453 9.57031 53.9453 7.05078C53.9453 5.25391 55.293 3.90625 57.1484 3.90625ZM55.8984 23.2422L58.3594 23.2422L58.3594 16.8945L55.8984 16.8945Z" fill="black" fill-opacity="0.85"/>
 </g>
</svg>
