<?xml version="1.0" encoding="UTF-8"?>
<!--Generator: Apple Native CoreSVG 326-->
<!DOCTYPE svg
PUBLIC "-//W3C//DTD SVG 1.1//EN"
       "http://www.w3.org/Graphics/SVG/1.1/DTD/svg11.dtd">
<svg version="1.1" xmlns="http://www.w3.org/2000/svg" xmlns:xlink="http://www.w3.org/1999/xlink" viewBox="0 0 60.4492 55.293">
 <g>
  <rect height="55.293" opacity="0" width="60.4492" x="0" y="0"/>
  <path d="M32.9102 10.8203C35.8984 10.8203 38.3203 8.39844 38.3203 5.41016C38.3203 2.42188 35.8984 0 32.9102 0C29.9219 0 27.5 2.42188 27.5 5.41016C27.5 8.39844 29.9219 10.8203 32.9102 10.8203ZM28.4766 36.0742L28.4766 46.1328C28.4766 47.1484 29.043 47.6562 30.0781 47.6562L36.9141 47.6562C38.7109 47.6562 38.7305 45.1953 37.2461 44.707L33.4961 43.4961L33.4961 33.7695C33.4961 32.6953 32.793 31.8555 31.7969 31.3867L24.9414 28.2031L28.9258 20.293C29.1406 19.8438 29.5898 19.707 30.0195 19.9609L36.7578 24.3945L36.7578 33.7695C36.7578 35.1367 37.8711 36.2305 39.2383 36.2305C40.6055 36.2305 41.7188 35.1367 41.7188 33.7695L41.7188 22.8906C41.7188 21.9531 41.4648 21.543 40.6055 20.8789L29.8828 12.793C27.5977 11.0547 24.7656 10.6445 22.0508 11.7578L14.1602 14.9805C11.7773 15.9375 12.168 18.5938 14.1016 19.5898L17.0898 21.1328L15.4297 24.4336C13.2227 28.8086 14.9023 32.6562 19.4727 33.8086ZM15.3125 34.4141L14.1016 38.0273L5.01953 38.0273C4.00391 38.0273 3.49609 38.5938 3.49609 39.6289L3.49609 46.4648C3.49609 48.2617 5.95703 48.2812 6.44531 46.7969L7.63672 43.0469L15.9766 43.0469C17.0117 43.0469 17.8125 42.4219 18.1836 41.6602L20.7617 36.5625L18.8867 36.0742C17.4805 35.7227 16.2891 35.1562 15.3125 34.4141ZM29.082 51.1523L38.8672 51.1523C39.3359 51.1523 39.7266 50.7812 39.7266 50.332C39.7266 49.8242 39.3359 49.4727 38.8672 49.4727L29.082 49.4727C28.6133 49.4727 28.2617 49.8242 28.2617 50.332C28.2617 50.7812 28.6133 51.1523 29.082 51.1523ZM0 38.6328L0 48.418C0 48.8867 0.371094 49.2773 0.820312 49.2773C1.32812 49.2773 1.67969 48.8867 1.67969 48.418L1.67969 38.6328C1.67969 38.1641 1.32812 37.8125 0.820312 37.8125C0.371094 37.8125 0 38.1641 0 38.6328ZM51.543 46.4648L58.8672 46.4648C59.5312 46.4648 60.0781 45.918 60.0781 45.2344L60.0781 44.0039C60.0781 43.3203 59.5312 42.7539 58.8672 42.7539L50.5664 42.7539L24.9805 19.1992L22.7734 20.4492L50.2148 45.918C50.7227 46.3867 51.0156 46.4648 51.543 46.4648ZM44.2188 53.3594C44.2188 54.4141 45.9766 55.2734 48.2031 55.2734C50.4492 55.2734 52.2266 54.4141 52.2266 53.3594L52.2266 51.2109C52.2266 50.2148 50.4492 49.3945 48.2031 49.3945C45.9766 49.3945 44.2188 50.2148 44.2188 51.2109Z" fill="black" fill-opacity="0.85"/>
 </g>
</svg>
