<?xml version="1.0" encoding="UTF-8"?>
<!--Generator: Apple Native CoreSVG 326-->
<!DOCTYPE svg
PUBLIC "-//W3C//DTD SVG 1.1//EN"
       "http://www.w3.org/Graphics/SVG/1.1/DTD/svg11.dtd">
<svg version="1.1" xmlns="http://www.w3.org/2000/svg" xmlns:xlink="http://www.w3.org/1999/xlink" viewBox="0 0 58.6916 70.4605">
 <g>
  <rect height="70.4605" opacity="0" width="58.6916" x="0" y="0"/>
  <path d="M11.8751 23.5408C8.16418 23.5408 5.1759 20.4549 5.1759 16.8611C5.1759 13.1111 8.16418 10.0642 11.8751 10.0642C15.6251 10.0642 18.6134 13.1111 18.6134 16.8611C18.6134 20.5916 15.6251 23.5408 11.8751 23.5408ZM51.8556 59.0095C50.5861 60.3572 48.379 60.24 46.797 58.6189L36.1134 47.5838C35.7618 47.2127 35.5079 47.115 34.9611 47.3299L26.4845 50.5525C21.1525 52.5838 16.1525 50.7088 13.7501 46.3142L8.49621 36.783C6.40636 32.9549 7.08996 29.0486 10.7032 27.1345C14.1993 25.2009 17.8321 26.6463 19.9611 30.533L26.9142 43.2283L32.8321 41.0799C35.7618 40.0056 38.2032 40.3377 40.547 42.7595L51.6407 54.2439C53.1837 55.8259 53.0275 57.8181 51.8556 59.0095Z" fill="black" fill-opacity="0.85"/>
  <path d="M58.2423 15.4939C58.8478 14.8884 58.8478 13.8728 58.2032 13.2478L51.1915 6.2361L54.0236 3.38454C55.1564 2.2322 54.3946 0.689228 52.9103 0.591572L44.4337 0.00563424C43.34-0.0724908 42.6564 0.669697 42.715 1.74392L43.3204 10.1814C43.3986 11.7634 45.0196 12.408 46.1134 11.3142L48.9454 8.4822L55.9767 15.4939C56.6017 16.1189 57.6173 16.1189 58.2423 15.4939ZM49.7071 19.8689C49.7071 19.0095 49.004 18.3064 48.0861 18.3064L38.1642 18.3064L38.1642 14.3025C38.1642 12.6814 36.504 12.0955 35.3907 13.1111L29.004 18.6775C28.1837 19.4002 28.1837 20.3767 29.004 21.1189L35.3907 26.6853C36.5431 27.74 38.1642 27.0369 38.1642 25.4939L38.1642 21.49L48.0861 21.49C49.004 21.49 49.7071 20.7869 49.7071 19.8689Z" fill="black" fill-opacity="0.85"/>
 </g>
</svg>
