<?xml version="1.0" encoding="UTF-8"?>
<!--Generator: Apple Native CoreSVG 326-->
<!DOCTYPE svg
PUBLIC "-//W3C//DTD SVG 1.1//EN"
       "http://www.w3.org/Graphics/SVG/1.1/DTD/svg11.dtd">
<svg version="1.1" xmlns="http://www.w3.org/2000/svg" xmlns:xlink="http://www.w3.org/1999/xlink" viewBox="0 0 51.25 50.918">
 <g>
  <rect height="50.918" opacity="0" width="51.25" x="0" y="0"/>
  <path d="M50.8789 25.4492C50.8789 39.4531 39.4531 50.8789 25.4297 50.8789C11.4258 50.8789 0 39.4531 0 25.4492C0 11.4258 11.4258 0 25.4297 0C39.4531 0 50.8789 11.4258 50.8789 25.4492ZM19.4531 35.3906C18.8086 35.3906 18.3984 35.8008 18.3984 36.4258L18.3984 40.8594C18.3984 41.4648 18.8086 41.8555 19.4531 41.8555L30.2734 41.8555C30.8789 41.8555 31.3281 41.4648 31.3281 40.8594L31.3281 36.4258C31.3281 35.8008 30.8789 35.3906 30.2734 35.3906ZM22.9297 16.1133C21.9336 16.1133 20.9375 16.6406 20.332 17.5L17.1289 21.9336C15.4492 24.2773 16.9336 27.4414 20.2734 26.9336L25.4883 26.1523L23.457 32.2461C22.7734 34.2383 25.5664 35.0781 26.1914 33.1836L28.9062 24.9609C29.2578 23.9648 28.6328 22.9883 27.4609 22.9883L22.3047 22.9883L25.0195 19.375C25.293 19.0234 25.4688 18.9648 25.8203 18.9648L36.4844 18.9648C37.2461 18.9648 37.9102 18.3594 37.9102 17.5586C37.9102 16.7773 37.2656 16.1133 36.4844 16.1133ZM22.2852 11.4844C22.2852 13.2031 23.6523 14.5508 25.3711 14.5508C27.0703 14.5508 28.4766 13.2031 28.4766 11.4844C28.4766 9.76562 27.0703 8.37891 25.3711 8.37891C23.6523 8.37891 22.2852 9.76562 22.2852 11.4844Z" fill="black" fill-opacity="0.85"/>
 </g>
</svg>
