<?xml version="1.0" encoding="UTF-8"?>
<!--Generator: Apple Native CoreSVG 326-->
<!DOCTYPE svg
PUBLIC "-//W3C//DTD SVG 1.1//EN"
       "http://www.w3.org/Graphics/SVG/1.1/DTD/svg11.dtd">
<svg version="1.1" xmlns="http://www.w3.org/2000/svg" xmlns:xlink="http://www.w3.org/1999/xlink" viewBox="0 0 51.25 50.918">
 <g>
  <rect height="50.918" opacity="0" width="51.25" x="0" y="0"/>
  <path d="M25.4297 50.8789C39.4727 50.8789 50.8789 39.4922 50.8789 25.4492C50.8789 11.4062 39.4727 0 25.4297 0C11.3867 0 0 11.4062 0 25.4492C0 39.4922 11.3867 50.8789 25.4297 50.8789ZM25.4297 47.2461C13.3789 47.2461 3.63281 37.5 3.63281 25.4492C3.63281 13.3984 13.3789 3.65234 25.4297 3.65234C37.4805 3.65234 47.2266 13.3984 47.2266 25.4492C47.2266 37.5 37.4805 47.2461 25.4297 47.2461Z" fill="black" fill-opacity="0.85"/>
  <path d="M35.4297 19.5312C36.4258 20.1758 37.793 19.8828 38.4375 18.8281C39.082 17.8125 38.7695 16.4453 37.7539 15.8008C36.6992 15.1562 35.3516 15.4492 34.707 16.4844C34.0625 17.5391 34.375 18.8867 35.4297 19.5312ZM24.1016 31.6406L29.2773 35.3906L26.25 41.4062C25.8984 42.0703 26.1914 42.9492 26.8945 43.3203C27.5391 43.6133 28.3984 43.4375 28.7891 42.6758L32.2852 35.6445C32.5977 35.0195 32.5 34.375 32.0117 33.9062L29.3359 31.4258L33.8672 31.4258C34.668 31.4258 35.293 30.8008 35.293 30.0195L35.293 24.3555C35.293 22.0312 33.418 20.1367 31.0547 20.1367L25.8398 20.1367L26.7383 16.9531C26.9531 16.2109 26.543 15.4297 25.8008 15.2148C25.0391 14.9805 24.2969 15.4297 24.0625 16.1719L22.6562 21.1328C22.4023 22.0508 22.9492 22.9297 23.9453 22.9297L29.0039 22.9297C29.082 22.9297 29.1211 23.0273 29.0625 23.0469L24.6289 25.293C22.1484 26.543 21.8359 29.9805 24.1016 31.6406ZM29.4531 28.6719L32.2656 27.3242C32.3828 27.2656 32.5586 27.3438 32.5586 27.5L32.5586 28.6719ZM22.1094 31.1719L20.8594 34.9414L13.75 34.9414C12.9492 34.9414 12.3047 35.5859 12.3047 36.3867C12.3047 37.168 12.9492 37.8125 13.75 37.8125L21.8555 37.8125C22.3828 37.8125 22.8906 37.5 23.1641 36.9922L24.8633 33.6133L23.3984 32.5586C22.8125 32.1289 22.3828 31.6797 22.1094 31.1719ZM24.8633 13.4375L25.9375 13.4375C26.7383 12.4219 27.6758 10.7812 27.6758 9.6875C27.6758 8.33984 26.7578 7.40234 25.4102 7.40234C24.043 7.40234 23.125 8.33984 23.125 9.6875C23.125 10.918 24.0234 12.5391 24.8633 13.4375ZM24.6289 28.1445L26.1914 28.1445L26.1914 12.9297L24.6289 12.9297Z" fill="black" fill-opacity="0.85"/>
 </g>
</svg>
