<?xml version="1.0" encoding="UTF-8"?>
<!--Generator: Apple Native CoreSVG 326-->
<!DOCTYPE svg
PUBLIC "-//W3C//DTD SVG 1.1//EN"
       "http://www.w3.org/Graphics/SVG/1.1/DTD/svg11.dtd">
<svg version="1.1" xmlns="http://www.w3.org/2000/svg" xmlns:xlink="http://www.w3.org/1999/xlink" viewBox="0 0 51.25 50.918">
 <g>
  <rect height="50.918" opacity="0" width="51.25" x="0" y="0"/>
  <path d="M25.4297 50.8789C39.4727 50.8789 50.8789 39.4922 50.8789 25.4492C50.8789 11.4062 39.4727 0 25.4297 0C11.3867 0 0 11.4062 0 25.4492C0 39.4922 11.3867 50.8789 25.4297 50.8789ZM25.4297 47.2461C13.3789 47.2461 3.63281 37.5 3.63281 25.4492C3.63281 13.3984 13.3789 3.65234 25.4297 3.65234C37.4805 3.65234 47.2266 13.3984 47.2266 25.4492C47.2266 37.5 37.4805 47.2461 25.4297 47.2461Z" fill="black" fill-opacity="0.85"/>
  <path d="M29.043 14.4922C30.7422 14.4922 32.0898 13.125 32.0898 11.4453C32.0898 9.76562 30.7422 8.41797 29.043 8.41797C27.3633 8.41797 26.0156 9.76562 26.0156 11.4453C26.0156 13.125 27.3633 14.4922 29.043 14.4922ZM15.1172 24.6094C15.957 24.9805 16.7383 24.6094 17.0703 23.9648L19.6289 18.8672L22.6562 18.8672C22.9883 18.8672 23.1836 19.1797 23.0469 19.4727L20.3711 24.7852C19.375 26.7383 20.5859 29.1992 23.1836 29.043L30.3516 28.5938L27.7148 34.5117C27.4023 35.2344 27.6953 36.1719 28.4375 36.4258C29.2578 36.7578 30 36.5039 30.3516 35.7031L34.0625 27.5977C34.4727 26.6992 33.9062 25.5078 32.7539 25.5078L26.25 25.5078L29.1406 19.7266C29.2578 19.4727 29.5312 19.4336 29.7461 19.6094L33.1641 22.8711C33.8477 23.5156 35.0781 23.418 35.5273 22.5L38.457 16.582C38.8281 15.8398 38.5938 14.9609 37.8125 14.6094C37.0703 14.2578 36.2305 14.5508 35.8398 15.293L33.7891 19.3359L32.1289 17.6758C30.9961 16.5234 29.8047 15.9375 27.9492 15.9375L18.7109 15.9375C18.1445 15.9375 17.6758 16.2695 17.4023 16.7578L14.4531 22.6562C14.1016 23.3984 14.3555 24.2383 15.1172 24.6094ZM12.4805 38.3008C12.9297 39.2383 13.9258 39.2383 14.4141 39.0625L20.4297 36.4648C20.7227 36.3281 20.9766 36.0938 21.1328 35.7617L23.8867 30.2344L23.2422 30.2734C22.1094 30.3516 21.0156 30.0195 20.3516 29.4336L18.6719 34.0039L13.2227 36.3281C12.4805 36.6406 12.0898 37.5195 12.4805 38.3008ZM35.3906 40.2539C37.1094 40.2539 38.457 38.9453 38.457 37.2266C38.457 35.5469 37.1094 34.1797 35.3906 34.1797C33.7305 34.1797 32.3828 35.5469 32.3828 37.2266C32.3828 38.9453 33.7305 40.2539 35.3906 40.2539Z" fill="black" fill-opacity="0.85"/>
 </g>
</svg>
