<?xml version="1.0" encoding="UTF-8"?>
<!--Generator: Apple Native CoreSVG 326-->
<!DOCTYPE svg
PUBLIC "-//W3C//DTD SVG 1.1//EN"
       "http://www.w3.org/Graphics/SVG/1.1/DTD/svg11.dtd">
<svg version="1.1" xmlns="http://www.w3.org/2000/svg" xmlns:xlink="http://www.w3.org/1999/xlink" viewBox="0 0 51.25 50.918">
 <g>
  <rect height="50.918" opacity="0" width="51.25" x="0" y="0"/>
  <path d="M50.8789 25.4492C50.8789 39.4531 39.4531 50.8789 25.4297 50.8789C11.4258 50.8789 0 39.4531 0 25.4492C0 11.4258 11.4258 0 25.4297 0C39.4531 0 50.8789 11.4258 50.8789 25.4492ZM20.4102 8.61328C19.2188 9.78516 18.6328 12.1484 18.2812 13.8672L16.1328 16.0156C15.5078 16.6406 15.6055 17.5195 16.1914 18.1055L20.4492 22.3242C20.7031 22.5781 21.0547 22.7344 21.4453 22.7344L24.3164 22.7344C24.3945 22.7344 24.4336 22.8906 24.3555 22.9492L21.3867 24.3945C18.8672 25.6445 18.2812 28.9844 20.8398 30.8789L26.1133 34.7461L23.0469 40.8594C22.6953 41.5625 22.9883 42.4609 23.6719 42.8125C24.3359 43.125 25.2344 42.9297 25.6055 42.168L29.1602 35.0781C29.4531 34.5117 29.4922 33.8086 28.8477 33.1641L24.5898 28.9453L30.1367 26.1719C30.3906 26.0352 30.6836 26.0742 30.8984 26.2891L38.4961 33.8672C39.082 34.4531 39.9805 34.4141 40.4883 33.8672C41.0547 33.3008 41.0547 32.3828 40.4883 31.8164L29.3164 20.6445C28.8086 20.1367 28.2812 19.8633 27.5977 19.8633L22.0312 19.8633L18.2422 16.0156L19.3555 14.9023C21.0352 14.5703 23.4375 13.9453 24.5508 12.793C26.6602 10.7227 26.7188 9.16016 25.3516 7.8125C24.0039 6.50391 22.4609 6.54297 20.4102 8.61328ZM17.5 34.2578L11.3477 34.2578C10.5664 34.2578 9.90234 34.9414 9.90234 35.7227C9.90234 36.543 10.5664 37.168 11.3477 37.168L18.5742 37.168C19.1602 37.168 19.668 36.7383 19.9219 36.2109L21.582 32.8906L20.1172 31.8555C19.2773 31.2109 18.9258 30.7812 18.7891 30.4492ZM30.3711 18.0859C30.3711 19.8242 31.7578 21.2305 33.4961 21.2305C35.2148 21.2305 36.582 19.8242 36.582 18.0859C36.582 16.3867 35.2148 14.9805 33.4961 14.9805C31.7578 14.9805 30.3711 16.3867 30.3711 18.0859ZM24.3359 8.88672C25.0781 9.64844 24.8438 10.3711 23.5352 11.7383C22.6758 12.5391 21.0938 12.9297 19.9414 13.2812C20.2344 12.0703 20.6445 10.5273 21.4648 9.6875C22.8125 8.35938 23.5352 8.125 24.3359 8.88672Z" fill="black" fill-opacity="0.85"/>
 </g>
</svg>
