<?xml version="1.0" encoding="UTF-8"?>
<!--Generator: Apple Native CoreSVG 326-->
<!DOCTYPE svg
PUBLIC "-//W3C//DTD SVG 1.1//EN"
       "http://www.w3.org/Graphics/SVG/1.1/DTD/svg11.dtd">
<svg version="1.1" xmlns="http://www.w3.org/2000/svg" xmlns:xlink="http://www.w3.org/1999/xlink" viewBox="0 0 53.2995 57.4023">
 <g>
  <rect height="57.4023" opacity="0" width="53.2995" x="0" y="0"/>
  <path d="M24.8041 10.7617C27.7533 10.7617 30.1556 8.35938 30.1556 5.35156C30.1556 2.40234 27.7533 0 24.8041 0C21.7963 0 19.3939 2.40234 19.3939 5.35156C19.3939 8.35938 21.7963 10.7617 24.8041 10.7617ZM1.97204 56.3086C2.92907 57.2266 4.47204 57.4023 5.56579 56.3086L16.4252 45.4883C17.0892 44.8633 17.2064 44.3164 17.1283 43.3594L16.5033 36.2891C16.4838 35.8984 16.8549 35.7031 17.1283 35.957L24.9603 42.6953L29.0033 55.2344C29.472 56.7188 30.9564 57.2852 32.2259 56.9141C33.6517 56.4844 34.3353 55.0586 33.8861 53.6914L29.6869 40.4688C29.5697 40.0781 29.3549 39.6875 29.0424 39.3945L20.683 31.1133L26.0541 20.3906C26.2884 19.9219 26.8158 19.8242 27.1869 20.1953L33.2025 26.2695C33.4955 26.543 33.8861 26.7773 34.2572 26.875L46.3275 30.5078C47.3236 30.8008 48.9838 30.4102 49.5111 28.7305C49.9017 27.4023 49.14 25.957 47.7728 25.5469L36.3666 22.1875L29.8431 15.5859C28.3588 14.1016 26.6595 13.457 24.6088 13.457L7.38219 13.457C6.40563 13.457 5.52673 14.0039 5.09704 14.8828L0.27282 24.4922C-0.332649 25.7227 0.0775074 27.2852 1.42516 27.8906C2.71423 28.5156 4.1986 28.0664 4.84313 26.7578L8.94469 18.5938L14.0424 18.5938C14.6283 18.5938 14.9603 19.1602 14.6869 19.668L10.9369 27.1875C9.62829 29.8438 9.23766 32.9492 9.97985 35.8594L11.7572 42.8711L1.93298 52.6367C0.956414 53.6133 0.956414 55.3125 1.97204 56.3086ZM47.0697 45.0391C50.3119 45.0391 52.9291 42.4023 52.9291 39.1602C52.9291 35.8984 50.3119 33.2812 47.0697 33.2812C43.8275 33.2812 41.1908 35.8984 41.1908 39.1602C41.1908 42.4023 43.8275 45.0391 47.0697 45.0391Z" fill="black" fill-opacity="0.85"/>
 </g>
</svg>
