<?xml version="1.0" encoding="UTF-8"?>
<!--Generator: Apple Native CoreSVG 326-->
<!DOCTYPE svg
PUBLIC "-//W3C//DTD SVG 1.1//EN"
       "http://www.w3.org/Graphics/SVG/1.1/DTD/svg11.dtd">
<svg version="1.1" xmlns="http://www.w3.org/2000/svg" xmlns:xlink="http://www.w3.org/1999/xlink" viewBox="0 0 71.2891 54.707">
 <g>
  <rect height="54.707" opacity="0" width="71.2891" x="0" y="0"/>
  <path d="M21.5039 10.7812C24.4922 10.7812 26.875 8.37891 26.875 5.41016C26.875 2.42188 24.4922 0.0195312 21.5039 0.0195312C18.5156 0.0195312 16.1133 2.42188 16.1133 5.41016C16.1133 8.37891 18.5156 10.7812 21.5039 10.7812ZM49.3945 10.7812C52.3828 10.7812 54.7852 8.37891 54.7852 5.41016C54.7852 2.42188 52.3828 0.0195312 49.3945 0.0195312C46.4258 0.0195312 44.0234 2.42188 44.0234 5.41016C44.0234 8.37891 46.4258 10.7812 49.3945 10.7812ZM21.4844 34.1016C22.5586 34.1016 23.0273 34.7852 23.5547 36.582C24.2969 39.0625 26.9531 49.4727 27.7148 52.5391C28.0859 54.0625 28.8672 54.707 30.0391 54.707C31.6016 54.707 32.5391 53.2812 32.1289 51.7383C31.9531 51.0742 28.3008 36.0352 27.8516 32.9297C27.3828 29.7656 27.3242 22.832 27.3438 20.8203C27.4023 19.1211 28.125 18.2617 29.6875 18.0273C31.1719 17.8125 33.418 17.6953 35.4883 17.7148C37.5977 17.7148 39.7461 17.8125 41.25 18.0273C42.8125 18.2617 43.5547 19.1211 43.5938 20.8203C43.6328 22.832 43.5352 29.7656 43.0469 32.9297C42.5586 36.0352 38.9453 51.0742 38.7695 51.7383C38.3398 53.2812 39.2969 54.707 40.8398 54.707C42.0117 54.707 42.793 54.0625 43.2031 52.5391C44.043 49.4922 46.6016 39.1016 47.3828 36.582C47.9492 34.8242 48.3789 34.1016 49.3945 34.1016C50.4688 34.1016 50.9375 34.7852 51.4648 36.582C52.207 39.0625 54.8633 49.4727 55.625 52.5391C55.9961 54.0625 56.8164 54.707 57.9492 54.707C59.5117 54.707 60.4492 53.2812 60.0391 51.7383C59.8828 51.0742 56.2305 36.0352 55.7617 32.9297C55.3125 29.7656 55.2734 22.832 55.293 20.7031C55.293 19.1797 55.957 18.2422 57.207 17.9688C58.3789 17.7148 67.832 16.6602 69.1211 16.2891C70.1953 15.9766 70.918 15.0977 70.918 13.9648C70.918 12.5586 69.8633 11.6992 68.8281 11.6992C68.3984 11.6992 67.9883 11.7969 67.4609 11.9141C63.7305 12.5977 55.3516 13.2617 49.3945 13.4766C44.1797 13.6133 38.8672 13.7109 35.5664 13.7109C32.1875 13.7109 26.7773 13.6133 21.4844 13.4766C15.6055 13.3008 7.16797 12.6367 3.41797 11.9141C2.94922 11.7969 2.5 11.6992 2.08984 11.6992C0.996094 11.6992 0 12.5586 0 13.9648C0 15.0977 0.683594 16.0547 1.77734 16.2891C3.10547 16.5625 12.5195 17.7539 13.6914 17.9688C14.9414 18.2031 15.625 19.1797 15.6836 20.7031C15.7031 22.832 15.6055 29.7656 15.1172 32.9297C14.6484 36.0352 11.0156 51.0742 10.8398 51.7383C10.4102 53.2812 11.3867 54.707 12.9297 54.707C14.082 54.707 14.8828 54.0625 15.293 52.5391C16.1133 49.4922 18.6914 39.1016 19.4727 36.582C20.0391 34.8242 20.4492 34.1016 21.4844 34.1016Z" fill="black" fill-opacity="0.85"/>
 </g>
</svg>
