<?xml version="1.0" encoding="UTF-8"?>
<!--Generator: Apple Native CoreSVG 326-->
<!DOCTYPE svg
PUBLIC "-//W3C//DTD SVG 1.1//EN"
       "http://www.w3.org/Graphics/SVG/1.1/DTD/svg11.dtd">
<svg version="1.1" xmlns="http://www.w3.org/2000/svg" xmlns:xlink="http://www.w3.org/1999/xlink" viewBox="0 0 51.25 50.918">
 <g>
  <rect height="50.918" opacity="0" width="51.25" x="0" y="0"/>
  <path d="M25.4297 50.8789C39.4727 50.8789 50.8789 39.4922 50.8789 25.4492C50.8789 11.4062 39.4727 0 25.4297 0C11.3867 0 0 11.4062 0 25.4492C0 39.4922 11.3867 50.8789 25.4297 50.8789ZM25.4297 47.2461C13.3789 47.2461 3.63281 37.5 3.63281 25.4492C3.63281 13.3984 13.3789 3.65234 25.4297 3.65234C37.4805 3.65234 47.2266 13.3984 47.2266 25.4492C47.2266 37.5 37.4805 47.2461 25.4297 47.2461Z" fill="black" fill-opacity="0.85"/>
  <path d="M10.332 29.1602C11.9922 29.1602 13.3594 27.7734 13.3594 26.1133C13.3594 24.4531 11.9922 23.0664 10.332 23.0664C8.65234 23.0664 7.28516 24.4531 7.28516 26.1133C7.28516 27.7734 8.65234 29.1602 10.332 29.1602ZM13.6914 30.1953C13.1445 31.582 13.6719 33.0078 14.8438 33.8281C16.7188 35.1172 18.4766 35.5859 21.2695 35.5859L25.7031 35.5859C29.1016 35.5859 30.0391 32.9297 28.8867 30.6641L25.293 23.7695L25.293 13.75C25.293 12.9102 24.6484 12.3047 23.8086 12.3047C23.0273 12.3047 22.4023 12.9102 22.4023 13.75L22.4023 24.1211C22.4023 24.3164 22.4219 24.4727 22.4609 24.6094L24.4922 30.3906L21.8555 30.3906C20.1758 30.3906 19.2188 29.9219 17.8906 29.1016C17.5391 28.9062 17.4219 28.5742 17.5781 28.2031L20.8203 19.8828C21.1133 19.1406 20.7422 18.3008 20.0195 18.0078C19.2188 17.7148 18.3984 18.0859 18.125 18.8477ZM30.6055 33.418L35.918 31.6602L42.9688 30.4102C43.75 30.2734 44.2773 29.5312 44.1211 28.7109C43.9844 27.9102 43.2227 27.4023 42.4219 27.5586L34.8828 28.9258L29.9219 29.8242L30.0391 30.0586C30.6055 31.2109 30.8203 32.3047 30.6055 33.418Z" fill="black" fill-opacity="0.85"/>
 </g>
</svg>
