<?xml version="1.0" encoding="UTF-8"?>
<!--Generator: Apple Native CoreSVG 326-->
<!DOCTYPE svg
PUBLIC "-//W3C//DTD SVG 1.1//EN"
       "http://www.w3.org/Graphics/SVG/1.1/DTD/svg11.dtd">
<svg version="1.1" xmlns="http://www.w3.org/2000/svg" xmlns:xlink="http://www.w3.org/1999/xlink" viewBox="0 0 51.25 50.918">
 <g>
  <rect height="50.918" opacity="0" width="51.25" x="0" y="0"/>
  <path d="M25.4297 50.8789C39.4727 50.8789 50.8789 39.4922 50.8789 25.4492C50.8789 11.4062 39.4727 0 25.4297 0C11.3867 0 0 11.4062 0 25.4492C0 39.4922 11.3867 50.8789 25.4297 50.8789ZM25.4297 47.2461C13.3789 47.2461 3.63281 37.5 3.63281 25.4492C3.63281 13.3984 13.3789 3.65234 25.4297 3.65234C37.4805 3.65234 47.2266 13.3984 47.2266 25.4492C47.2266 37.5 37.4805 47.2461 25.4297 47.2461Z" fill="black" fill-opacity="0.85"/>
  <path d="M27.3242 14.707C29.0234 14.707 30.3711 13.3594 30.3711 11.6602C30.3711 9.98047 29.0234 8.63281 27.3242 8.63281C25.6641 8.63281 24.2969 9.98047 24.2969 11.6602C24.2969 13.3594 25.6641 14.707 27.3242 14.707ZM24.8438 28.9062L24.8438 34.5508C24.8438 35.1172 25.1758 35.4102 25.7617 35.4102L29.5898 35.4102C30.6055 35.4102 30.6055 34.0234 29.7852 33.75L27.6562 33.0664L27.6562 27.5977C27.6562 27.0117 27.2656 26.5234 26.7188 26.25L22.832 24.4922L25.0977 20.0195C25.2148 19.7852 25.4688 19.6875 25.7031 19.8438L29.5117 22.3242L29.5117 27.5977C29.5117 28.3789 30.1172 28.9844 30.8984 28.9844C31.6797 28.9844 32.2852 28.3789 32.2852 27.5977L32.2852 21.4844C32.2852 20.957 32.1484 20.7031 31.6602 20.3516L25.6445 15.8203C24.3359 14.8438 22.7539 14.6094 21.2305 15.2344L16.7969 17.0508C15.4688 17.5977 15.6836 19.043 16.7578 19.6289L18.4375 20.5078L17.5 22.3633C16.2695 24.8242 17.207 26.9922 19.7656 27.6367ZM25.1953 37.5391L30.6836 37.5391C31.0156 37.5391 31.2695 37.2656 31.2695 36.9531C31.2695 36.6406 31.0352 36.3672 30.6836 36.3672L25.1953 36.3672C24.8633 36.3672 24.6094 36.6406 24.6094 36.9531C24.6094 37.2656 24.8828 37.5391 25.1953 37.5391ZM17.4609 27.8906L16.7578 30L11.9727 30C11.4062 30 11.1133 30.332 11.1133 30.8984L11.1133 34.7461C11.1133 35.7422 12.5195 35.7617 12.7734 34.9219L13.4375 32.8125L17.832 32.8125C18.3984 32.8125 18.8281 32.4609 19.0625 32.0508L20.5469 29.1016L19.4727 28.8281C18.6914 28.6133 17.9883 28.2812 17.4609 27.8906ZM8.98438 30.3516L8.98438 35.8398C8.98438 36.1719 9.25781 36.4453 9.57031 36.4453C9.88281 36.4453 10.1562 36.1914 10.1562 35.8398L10.1562 30.3516C10.1562 30.0391 9.88281 29.7656 9.57031 29.7656C9.23828 29.7656 8.98438 30.0391 8.98438 30.3516ZM37.832 34.7656L41.9141 34.7656C42.2852 34.7656 42.6367 34.4336 42.6367 34.0625L42.6367 33.3594C42.6367 32.9688 42.2852 32.6367 41.9141 32.6367L37.2852 32.6367L22.9102 19.4336L21.6406 20.1367L37.0508 34.4531C37.3242 34.7266 37.5195 34.7656 37.832 34.7656ZM33.6914 38.5938C33.6914 39.2188 34.668 39.668 35.9375 39.668C37.1875 39.668 38.2031 39.2188 38.2031 38.5938L38.2031 37.4219C38.2031 36.8359 37.1875 36.3867 35.9375 36.3867C34.668 36.3867 33.6914 36.8359 33.6914 37.4219Z" fill="black" fill-opacity="0.85"/>
 </g>
</svg>
