<?xml version="1.0" encoding="UTF-8"?>
<!--Generator: Apple Native CoreSVG 326-->
<!DOCTYPE svg
PUBLIC "-//W3C//DTD SVG 1.1//EN"
       "http://www.w3.org/Graphics/SVG/1.1/DTD/svg11.dtd">
<svg version="1.1" xmlns="http://www.w3.org/2000/svg" xmlns:xlink="http://www.w3.org/1999/xlink" viewBox="0 0 44.6312 59.4727">
 <g>
  <rect height="59.4727" opacity="0" width="44.6312" x="0" y="0"/>
  <path d="M17.7355 10.8203C20.7043 10.8203 23.1262 8.39844 23.1262 5.39062C23.1262 2.42188 20.7043 0 17.7355 0C14.7082 0 12.2863 2.42188 12.2863 5.39062C12.2863 8.39844 14.7082 10.8203 17.7355 10.8203ZM29.0832 59.082C30.509 59.082 31.6223 57.9297 31.6223 56.543L31.6223 42.5C31.6223 41.875 31.3098 41.0352 30.509 40.5273L21.466 34.5117L21.466 19.2188C21.466 18.8672 21.759 18.5938 22.091 18.5938L41.7394 18.5938C43.1652 18.5938 44.259 17.4414 44.259 16.0547C44.259 14.668 43.1652 13.5156 41.7394 13.5156L13.8098 13.5156C11.4269 13.5156 10.1379 14.375 8.92694 15.8789L2.32538 23.9648C0.762878 25.918 2.03241 28.7109 4.08319 28.7109L11.3683 28.7109L11.3683 32.207C11.3683 34.5117 12.6574 36.6602 14.7277 37.7734L26.5441 44.1406L26.5441 56.543C26.5441 57.9297 27.6965 59.082 29.0832 59.082ZM8.79022 23.8281L11.5051 20.4297L11.5051 23.8281ZM0.606628 58.2227C1.56366 59.2969 3.12616 59.375 4.21991 58.4375L14.1418 49.7461C14.6301 49.2969 14.8254 49.082 15.0207 48.6328L17.6769 41.9727L13.634 39.8047C13.2238 39.5898 12.8332 39.3164 12.4621 39.043L10.4308 46.2695L0.841003 54.6484C-0.174622 55.5469-0.291809 57.1875 0.606628 58.2227Z" fill="black" fill-opacity="0.85"/>
 </g>
</svg>
