<?xml version="1.0" encoding="UTF-8"?>
<!--Generator: Apple Native CoreSVG 326-->
<!DOCTYPE svg
PUBLIC "-//W3C//DTD SVG 1.1//EN"
       "http://www.w3.org/Graphics/SVG/1.1/DTD/svg11.dtd">
<svg version="1.1" xmlns="http://www.w3.org/2000/svg" xmlns:xlink="http://www.w3.org/1999/xlink" viewBox="0 0 54.9108 47.4805">
 <g>
  <rect height="47.4805" opacity="0" width="54.9108" x="0" y="0"/>
  <path d="M31.4007 10.8398C34.3695 10.8398 36.7913 8.41797 36.7913 5.39062C36.7913 2.42188 34.3695 0 31.4007 0C28.3929 0 25.971 2.42188 25.971 5.39062C25.971 8.41797 28.3929 10.8398 31.4007 10.8398ZM35.1702 27.9492C36.6155 27.9492 37.7874 26.7969 37.7874 25.3516C37.7874 23.8867 36.6155 22.7344 35.1702 22.7344L26.0687 22.7344L26.0687 13.4375C26.0687 10.332 23.4905 8.35938 20.5999 8.94531L5.28742 12.1094C-0.239922 13.2422-1.74383 19.8242 2.26008 23.3594L11.7913 31.7383L11.7913 44.8633C11.7913 46.2695 12.9632 47.4609 14.389 47.4609C15.7952 47.4609 16.9866 46.2695 16.9866 44.8633L16.9866 30.7422C16.9866 29.8242 16.7913 29.3359 16.2054 28.7109L8.88117 21.3281C8.47102 20.918 8.68586 20.332 9.19367 20.2344L19.4866 18.3203C20.5023 18.1445 20.8734 18.4766 20.8734 19.375L20.8734 25.3516C20.8734 26.7969 22.0452 27.9492 23.4905 27.9492ZM49.1546 37.6172L52.7679 37.6172C53.9593 37.6172 54.7015 36.875 54.7015 35.7227L54.7015 13.418C54.7015 12.3828 53.9593 11.6602 52.8851 11.6602L49.057 11.6602C40.2679 11.6602 34.9554 13.9062 29.3695 20.4102L32.6312 20.4102C32.7288 20.4102 32.807 20.4102 32.8851 20.4102C37.3968 15.8789 42.0257 14.1992 49.057 14.1992L52.1234 14.1992L52.1234 35.0391L49.1546 35.0391C48.178 35.0391 47.4554 34.5508 47.0257 33.7305L44.7796 29.2188C44.428 28.5547 43.764 28.3984 43.2171 28.5938C42.5726 28.8086 42.0648 29.5117 42.4945 30.3711L44.7405 34.9023C45.5999 36.5625 47.2405 37.6172 49.1546 37.6172ZM19.3109 36.25C21.6741 34.5703 23.5491 32.4805 25.2484 30.2734L23.4905 30.2734C23.0023 30.2734 22.5335 30.1953 22.0843 30.0391C21.2249 31.0742 20.3265 32.0117 19.3109 32.8906ZM1.4007 40.2148L5.65852 40.2148C7.00617 40.2148 8.2757 40.1367 9.46711 39.9805L9.46711 37.4023C8.29523 37.5586 7.00617 37.6562 5.65852 37.6562L1.4007 37.6562C0.678047 37.6562 0.0921091 38.2031 0.0921091 38.9648C0.0921091 39.6484 0.678047 40.2148 1.4007 40.2148Z" fill="black" fill-opacity="0.85"/>
 </g>
</svg>
