<?xml version="1.0" encoding="UTF-8"?>
<!--Generator: Apple Native CoreSVG 326-->
<!DOCTYPE svg
PUBLIC "-//W3C//DTD SVG 1.1//EN"
       "http://www.w3.org/Graphics/SVG/1.1/DTD/svg11.dtd">
<svg version="1.1" xmlns="http://www.w3.org/2000/svg" xmlns:xlink="http://www.w3.org/1999/xlink" viewBox="0 0 64.9414 50.6445">
 <g>
  <rect height="50.6445" opacity="0" width="64.9414" x="0" y="0"/>
  <path d="M23.6914 13.8672C19.9805 13.8672 16.9922 10.7812 16.9922 7.1875C16.9922 3.4375 19.9805 0.390625 23.6914 0.390625C27.4414 0.390625 30.4102 3.4375 30.4102 7.1875C30.4102 10.918 27.4414 13.8672 23.6914 13.8672ZM28.1055 39.6094C26.9531 38.7305 25.918 37.2461 24.8828 35.3711L20.3125 27.1094C18.2031 23.2812 18.9062 19.3555 22.5195 17.4414C26.0156 15.5078 29.6289 16.9922 31.7773 20.8594L36.5234 29.4531ZM63.6719 49.2969C62.3828 50.6641 60.1758 50.5469 58.5938 48.9258L47.9297 37.9102C47.5586 37.5391 47.3242 37.4414 46.7773 37.6562L37.7734 41.0742C35.7422 41.8359 33.6133 41.6602 32.0117 41.3477L38.125 33.7695L44.6484 31.3867C47.5586 30.3125 50.0195 30.6641 52.3438 33.0859L63.4375 44.5508C64.9609 46.1328 64.8438 48.125 63.6719 49.2969ZM22.6562 49.5898C21.6797 48.8281 21.6211 47.6562 22.5391 46.5234L28.1055 39.6094C29.2969 40.4297 30.625 41.0352 32.0117 41.3477L25.6641 49.1211C24.7656 50.1953 23.6523 50.4102 22.6562 49.5898Z" fill="black" fill-opacity="0.85"/>
  <path d="M1.64062 50.2148L13.5352 50.2148C14.3555 50.2148 14.9219 49.6289 14.9219 48.8281C14.9219 48.0273 14.3359 47.4609 13.5352 47.4609L4.66797 47.4609L4.66797 47.4023L10.4883 41.0742C12.4023 39.0234 13.7109 37.2461 13.7109 34.8047C13.7109 31.3281 11.0352 29.0234 6.85547 29.0234C3.63281 29.0234 0.800781 30.9766 0.117188 33.6328C0.0585938 33.9648 0 34.2188 0 34.5117C0 35.3516 0.527344 35.8789 1.36719 35.8789C2.14844 35.8789 2.51953 35.4297 2.87109 34.8047C3.37891 33.2227 4.74609 31.7188 6.97266 31.7188C9.23828 31.7188 10.7422 33.0469 10.7422 35.0195C10.7422 36.6211 9.49219 38.0078 8.10547 39.5312L0.703125 47.5391C0.332031 47.9492 0.136719 48.3398 0.136719 48.8281C0.136719 49.668 0.703125 50.2148 1.64062 50.2148Z" fill="black" fill-opacity="0.85"/>
  <path d="M51.9336 25.1758C44.9219 25.1758 39.4531 19.3945 39.4531 12.6953C39.4531 5.64453 44.9219 0 51.9336 0C58.9453 0 64.5703 5.64453 64.5703 12.6953C64.5703 19.3945 58.9453 25.1758 51.9336 25.1758ZM51.9336 22.3242C57.2266 22.3242 61.6992 17.9102 61.6992 12.6953C61.6992 7.22656 57.3633 2.85156 51.9336 2.85156C46.543 2.85156 42.3047 7.1875 42.3047 12.6953C42.3047 17.9883 46.6602 22.3242 51.9336 22.3242ZM61.1719 1.38672C61.7383 0.839844 62.6367 0.839844 63.1836 1.38672C63.75 1.93359 63.75 2.85156 63.1836 3.41797L42.8125 23.8086C42.2656 24.3555 41.3477 24.3555 40.8008 23.8086C40.2148 23.2422 40.2148 22.3438 40.8008 21.7578ZM63.1836 21.7578C63.75 22.3438 63.75 23.2422 63.1836 23.8086C62.6367 24.3555 61.7383 24.3555 61.1719 23.8086L40.8008 3.41797C40.2148 2.85156 40.2148 1.93359 40.8008 1.38672C41.3477 0.839844 42.2656 0.839844 42.8125 1.38672Z" fill="black" fill-opacity="0.85"/>
 </g>
</svg>
