<?xml version="1.0" encoding="UTF-8"?>
<!--Generator: Apple Native CoreSVG 326-->
<!DOCTYPE svg
PUBLIC "-//W3C//DTD SVG 1.1//EN"
       "http://www.w3.org/Graphics/SVG/1.1/DTD/svg11.dtd">
<svg version="1.1" xmlns="http://www.w3.org/2000/svg" xmlns:xlink="http://www.w3.org/1999/xlink" viewBox="0 0 51.25 50.918">
 <g>
  <rect height="50.918" opacity="0" width="51.25" x="0" y="0"/>
  <path d="M25.4297 50.8789C39.4727 50.8789 50.8789 39.4922 50.8789 25.4492C50.8789 11.4062 39.4727 0 25.4297 0C11.3867 0 0 11.4062 0 25.4492C0 39.4922 11.3867 50.8789 25.4297 50.8789ZM25.4297 47.2461C13.3789 47.2461 3.63281 37.5 3.63281 25.4492C3.63281 13.3984 13.3789 3.65234 25.4297 3.65234C37.4805 3.65234 47.2266 13.3984 47.2266 25.4492C47.2266 37.5 37.4805 47.2461 25.4297 47.2461Z" fill="black" fill-opacity="0.85"/>
  <path d="M30.4102 16.9922C32.0703 16.9922 33.4375 15.625 33.4375 13.9453C33.4375 12.2656 32.0703 10.8984 30.4102 10.8984C28.7305 10.8984 27.3633 12.2656 27.3633 13.9453C27.3633 15.625 28.7305 16.9922 30.4102 16.9922ZM20.0977 37.0508C20.625 37.3438 21.5625 37.2266 21.9531 36.4062L25.4492 29.4727C25.7031 28.9258 25.625 28.3203 25.1758 27.8711L20.9766 23.6523L26.2695 20.9961C26.5234 20.8594 26.8359 20.9375 27.0117 21.1133L29.7461 23.8672L29.7461 29.5508C29.7461 30.3125 30.3906 30.918 31.1719 30.918C31.9141 30.918 32.5391 30.3125 32.5391 29.5508L32.5391 23.3008C32.5391 22.9102 32.4609 22.5781 32.1484 22.2852L25.8594 16.0352C25.1562 15.332 24.2188 14.9414 23.2227 14.9414L17.8711 14.9414C16.4648 14.9414 16.1133 16.4453 16.9531 17.3047L18.5938 18.9648L17.9297 19.2188C15.3711 20.2344 14.668 23.5742 17.0508 25.332L22.4219 29.2773L19.4727 35.1953C19.1406 35.8594 19.4141 36.6797 20.0977 37.0508ZM8.57422 31.6602L15.1562 31.6602C15.7031 31.6602 16.1523 31.2891 16.3867 30.8594L18.0664 27.5L16.3477 26.25C15.8984 25.9375 15.5273 25.5469 15.3516 25.2734L14.1602 28.8477L8.57422 28.8477C7.8125 28.8477 7.20703 29.4727 7.20703 30.2539C7.20703 31.0156 7.8125 31.6602 8.57422 31.6602ZM37.5781 36.5234L41.3672 36.5234C41.7578 36.5234 42.0703 36.2305 42.0703 35.8008L42.0703 35.1172C42.0703 34.7266 41.7578 34.3945 41.3672 34.3945L37.0312 34.3945L23.5547 20.918L22.2656 21.6602L36.8164 36.2109C37.0898 36.4844 37.2656 36.5234 37.5781 36.5234Z" fill="black" fill-opacity="0.85"/>
 </g>
</svg>
