<?xml version="1.0" encoding="UTF-8"?>
<!--Generator: Apple Native CoreSVG 326-->
<!DOCTYPE svg
PUBLIC "-//W3C//DTD SVG 1.1//EN"
       "http://www.w3.org/Graphics/SVG/1.1/DTD/svg11.dtd">
<svg version="1.1" xmlns="http://www.w3.org/2000/svg" xmlns:xlink="http://www.w3.org/1999/xlink" viewBox="0 0 51.25 50.918">
 <g>
  <rect height="50.918" opacity="0" width="51.25" x="0" y="0"/>
  <path d="M50.8789 25.4492C50.8789 39.4531 39.4531 50.8789 25.4297 50.8789C11.4258 50.8789 0 39.4531 0 25.4492C0 11.4258 11.4258 0 25.4297 0C39.4531 0 50.8789 11.4258 50.8789 25.4492ZM35.8984 16.2305C35.8984 18.6133 37.7344 21.2695 38.4375 22.1875L38.4375 24.082C38.3008 24.082 38.1641 24.0625 38.0273 24.0625L32.8125 24.0625L26.6406 17.9102C25.918 17.1875 24.9414 16.7969 23.8867 16.7969L11.7578 16.7969C10.957 16.7969 10.3125 17.4414 10.3125 18.2422C10.3125 19.0234 10.957 19.6875 11.7578 19.6875L20.918 19.6875C21.0547 19.6875 21.1133 19.9414 20.9766 20.0391L18.2422 21.3672C16.7969 22.0898 16.0742 23.4375 16.0742 24.7852C16.0742 25.9766 16.6211 27.1484 17.6953 27.9297L23.0273 31.8359L19.9414 38.0078C19.4336 39.0234 19.9805 39.8047 20.7227 40.0977C21.3477 40.332 22.1484 40.1562 22.5586 39.3164L26.2305 32.0312C26.4844 31.4648 26.4453 30.8203 25.9375 30.332L21.543 25.918L27.1289 23.1445C27.3828 23.0078 27.6562 23.0664 27.8711 23.2617L31.1719 26.5625C31.4258 26.8359 31.7969 26.9922 32.1875 26.9922L38.5547 26.9922C39.3359 26.9922 40 26.3477 40 25.5469L40 22.207C40.7031 21.3281 42.5586 18.6328 42.5586 16.2305C42.5586 14.3164 41.1523 12.8906 39.2383 12.8906C37.3438 12.8906 35.8984 14.3164 35.8984 16.2305ZM14.375 31.3672L8.63281 31.3672C7.85156 31.3672 7.20703 32.0312 7.20703 32.832C7.20703 33.6133 7.85156 34.2773 8.63281 34.2773L15.4297 34.2773C15.9766 34.2773 16.5039 33.9648 16.7383 33.4961L18.457 29.9805L16.9727 28.8867C16.2109 28.3594 15.8789 27.8516 15.6445 27.4609ZM40.9766 16.2305C40.9766 17.5977 39.9219 19.4922 39.2383 20.5664C38.5547 19.4922 37.5 17.5977 37.5 16.2305C37.5 15.2148 38.2031 14.4922 39.2383 14.4922C40.2734 14.4922 40.9766 15.2148 40.9766 16.2305ZM27.5977 15.2734C27.5977 17.0312 28.9844 18.418 30.7031 18.418C32.4414 18.418 33.8281 17.0312 33.8281 15.2734C33.8281 13.5742 32.4414 12.168 30.7031 12.168C28.9844 12.168 27.5977 13.5742 27.5977 15.2734Z" fill="black" fill-opacity="0.85"/>
 </g>
</svg>
