<?xml version="1.0" encoding="UTF-8"?>
<!--Generator: Apple Native CoreSVG 326-->
<!DOCTYPE svg
PUBLIC "-//W3C//DTD SVG 1.1//EN"
       "http://www.w3.org/Graphics/SVG/1.1/DTD/svg11.dtd">
<svg version="1.1" xmlns="http://www.w3.org/2000/svg" xmlns:xlink="http://www.w3.org/1999/xlink" viewBox="0 0 47.9548 50.6055">
 <g>
  <rect height="50.6055" opacity="0" width="47.9548" x="0" y="0"/>
  <path d="M40.9012 13.6133C44.6121 13.6133 47.5809 10.5273 47.5809 6.93359C47.5809 3.18359 44.6121 0.136719 40.9012 0.136719C37.1512 0.136719 34.1629 3.18359 34.1629 6.93359C34.1629 10.6641 37.1512 13.6133 40.9012 13.6133ZM0.901209 49.082C2.19027 50.4297 4.3973 50.3125 5.97933 48.6914L16.6629 37.6562C17.0145 37.2852 17.2684 37.1875 17.8153 37.4023L26.2918 40.625C31.6239 42.6562 36.6043 40.7812 39.0262 36.3867L44.2801 26.8555C46.37 23.0273 45.6864 19.1211 42.0731 17.207C38.577 15.2734 34.9246 16.7188 32.8153 20.6055L25.8621 33.3008L19.9442 31.1523C16.995 30.0781 14.5536 30.4102 12.2293 32.832L1.13558 44.3164C-0.407385 45.8984-0.270666 47.8906 0.901209 49.082Z" fill="black" fill-opacity="0.85"/>
  <path d="M8.53793 0C7.5223 0 6.72152 0.800781 6.72152 1.83594L6.72152 13.5742L1.97543 13.5742C0.178552 13.5742-0.622229 15.4297 0.588709 16.7969L7.07308 24.2578C7.8934 25.1953 9.0848 25.2344 9.94418 24.2578L16.4286 16.7969C17.5809 15.4883 16.9364 13.5742 15.0418 13.5742L10.3543 13.5742L10.3543 1.83594C10.3543 0.800781 9.55355 0 8.53793 0Z" fill="black" fill-opacity="0.85"/>
 </g>
</svg>
