<?xml version="1.0" encoding="UTF-8"?>
<!--Generator: Apple Native CoreSVG 326-->
<!DOCTYPE svg
PUBLIC "-//W3C//DTD SVG 1.1//EN"
       "http://www.w3.org/Graphics/SVG/1.1/DTD/svg11.dtd">
<svg version="1.1" xmlns="http://www.w3.org/2000/svg" xmlns:xlink="http://www.w3.org/1999/xlink" viewBox="0 0 54.9033 53.1353">
 <g>
  <rect height="53.1353" opacity="0" width="54.9033" x="0" y="0"/>
  <path d="M10.1567 14.8782C6.44577 14.8782 3.45749 11.7923 3.45749 8.1985C3.45749 4.4485 6.44577 1.40163 10.1567 1.40163C13.9067 1.40163 16.895 4.4485 16.895 8.1985C16.895 11.929 13.9067 14.8782 10.1567 14.8782ZM50.1372 50.3469C48.8676 51.6946 46.6606 51.5774 45.0786 49.9563L34.395 38.9212C34.0434 38.5501 33.7895 38.4524 33.2426 38.6673L24.7661 41.8899C19.4341 43.9212 14.4341 42.0462 12.0317 37.6516L6.7778 28.1204C4.68796 24.2923 5.37155 20.386 8.98483 18.4719C12.4809 16.5383 16.1137 17.9837 18.2426 21.8704L25.1958 34.5657L31.1137 32.4173C34.0434 31.343 36.4848 31.6751 38.8286 34.0969L49.9223 45.5813C51.4653 47.1633 51.3091 49.1555 50.1372 50.3469Z" fill="black" fill-opacity="0.85"/>
  <path d="M45.0005 10.1907C45.352 9.48757 45.0395 8.62819 44.3169 8.29616C43.5942 7.96413 42.7544 8.27663 42.4028 8.99929L36.4262 21.8508C36.0942 22.554 36.4067 23.4133 37.1098 23.7454C37.8325 24.0774 38.6919 23.7649 39.0239 23.0423L39.8247 21.3235L47.4614 21.7532L50.8989 23.3938C52.6958 24.2532 54.102 23.5501 54.6684 22.3001C55.2348 21.0891 54.7856 19.6048 53.2231 18.843L49.102 16.8313L44.2973 11.7141ZM36.9145 9.54616C37.8911 9.97585 38.6528 9.38991 38.4966 8.29616L37.4809 1.12819C37.3442 0.0930358 36.3872-0.31712 35.5864 0.268817L29.6098 4.42897C28.6919 5.0735 28.8872 6.05007 29.7661 6.44069ZM33.8286 16.2454L26.6801 13.1399C25.7231 12.7298 24.9223 13.2571 25.0786 14.3899L26.1137 21.5774C26.2505 22.5735 27.1684 23.0032 27.9887 22.4173L33.9653 18.2766C34.8833 17.6126 34.7466 16.6555 33.8286 16.2454Z" fill="black" fill-opacity="0.85"/>
 </g>
</svg>
