<?xml version="1.0" encoding="UTF-8"?>
<!--Generator: Apple Native CoreSVG 326-->
<!DOCTYPE svg
PUBLIC "-//W3C//DTD SVG 1.1//EN"
       "http://www.w3.org/Graphics/SVG/1.1/DTD/svg11.dtd">
<svg version="1.1" xmlns="http://www.w3.org/2000/svg" xmlns:xlink="http://www.w3.org/1999/xlink" viewBox="0 0 51.25 50.918">
 <g>
  <rect height="50.918" opacity="0" width="51.25" x="0" y="0"/>
  <path d="M25.4297 50.8789C39.4727 50.8789 50.8789 39.4922 50.8789 25.4492C50.8789 11.4062 39.4727 0 25.4297 0C11.3867 0 0 11.4062 0 25.4492C0 39.4922 11.3867 50.8789 25.4297 50.8789ZM25.4297 47.2461C13.3789 47.2461 3.63281 37.5 3.63281 25.4492C3.63281 13.3984 13.3789 3.65234 25.4297 3.65234C37.4805 3.65234 47.2266 13.3984 47.2266 25.4492C47.2266 37.5 37.4805 47.2461 25.4297 47.2461Z" fill="black" fill-opacity="0.85"/>
  <path d="M20.957 17.8516C22.6367 17.8516 23.9844 16.5039 23.9844 14.8047C23.9844 13.125 22.6367 11.7773 20.957 11.7773C19.2578 11.7773 17.9102 13.125 17.9102 14.8047C17.9102 16.5039 19.2578 17.8516 20.957 17.8516ZM13.5938 28.4961C12.9883 30.7812 14.4531 32.2266 16.2305 32.2266C16.8164 32.2266 17.4023 32.0898 17.9688 31.7773L25.5273 27.7539L33.8867 31.9531C34.9219 32.4609 35.7422 32.0508 36.0352 31.4062C36.3672 30.7812 36.1719 29.8828 35.1953 29.3945L26.4453 25C25.8789 24.7266 25.2344 24.6875 24.6484 24.9609L19.0039 27.4023L20.1367 23.4375C20.332 22.7148 20.957 22.2266 21.6992 22.2266L32.9492 22.2266C33.75 22.2266 34.3945 21.6016 34.3945 20.8008C34.3945 20.0195 33.75 19.375 32.9492 19.375L20.6641 19.375C17.8711 19.375 15.5859 20.9961 14.9609 23.3594ZM13.1445 36.6211L37.6953 36.6211C38.1445 36.6211 38.4766 36.2891 38.4766 35.8398C38.4766 35.3906 38.1445 35.0586 37.6953 35.0586L13.1445 35.0586C12.6953 35.0586 12.3633 35.3906 12.3633 35.8398C12.3633 36.2891 12.6953 36.6211 13.1445 36.6211Z" fill="black" fill-opacity="0.85"/>
 </g>
</svg>
