<?xml version="1.0" encoding="UTF-8"?>
<!--Generator: Apple Native CoreSVG 326-->
<!DOCTYPE svg
PUBLIC "-//W3C//DTD SVG 1.1//EN"
       "http://www.w3.org/Graphics/SVG/1.1/DTD/svg11.dtd">
<svg version="1.1" xmlns="http://www.w3.org/2000/svg" xmlns:xlink="http://www.w3.org/1999/xlink" viewBox="0 0 51.25 50.918">
 <g>
  <rect height="50.918" opacity="0" width="51.25" x="0" y="0"/>
  <path d="M50.8789 25.4492C50.8789 39.4531 39.4531 50.8789 25.4297 50.8789C11.4258 50.8789 0 39.4531 0 25.4492C0 11.4258 11.4258 0 25.4297 0C39.4531 0 50.8789 11.4258 50.8789 25.4492ZM23.5547 33.4766L21.5234 40.7617C21.2305 41.8945 22.1289 42.5977 22.9883 42.5977C23.5742 42.5977 24.1992 42.2461 24.3945 41.5234L26.4648 33.9453C26.5039 33.7891 26.5234 33.6719 26.5234 33.5547L26.5234 30.7227L23.0859 29.668ZM33.5938 9.10156L29.6875 13.6328L11.7188 20.9766C11.0742 21.25 10.7812 21.4844 10.5664 21.7578L17.5586 21.7578L20.1953 20.7227C20.6445 20.5469 20.8008 20.7031 20.8008 20.9766L20.8008 25.5273C20.8008 27.0117 21.4648 27.9297 22.8516 28.3398L30.6836 30.7617L38.2031 34.1602C40.1172 35 41.25 32.3047 39.4141 31.4844L26.5234 25.6445L26.5234 18.7305C26.5234 18.1641 26.6602 18.0859 27.0703 17.9297L30.9766 16.3477C31.4453 16.1523 31.4844 16.0352 31.7383 15.7422L35.8203 10.9961C36.3477 10.3906 36.2695 9.45312 35.6445 8.94531C35.0391 8.41797 34.1211 8.51562 33.5938 9.10156ZM8.35938 22.9688C7.92969 22.9688 7.55859 23.3398 7.55859 23.7695C7.55859 24.2188 7.92969 24.5703 8.35938 24.5703L19.6094 24.5703L19.6094 22.9688ZM27.7148 22.9688L27.7148 24.5703L40.8594 24.5703C41.2891 24.5703 41.6602 24.2188 41.6602 23.7695C41.6602 23.3398 41.2891 22.9688 40.8594 22.9688ZM18.6914 11.8359C18.6914 13.5742 20.0781 14.9609 21.7969 14.9609C23.4961 14.9609 24.9023 13.5742 24.9023 11.8359C24.9023 10.1367 23.4961 8.76953 21.7969 8.76953C20.0781 8.76953 18.6914 10.1367 18.6914 11.8359Z" fill="black" fill-opacity="0.85"/>
 </g>
</svg>
