<?xml version="1.0" encoding="UTF-8"?>
<!--Generator: Apple Native CoreSVG 326-->
<!DOCTYPE svg
PUBLIC "-//W3C//DTD SVG 1.1//EN"
       "http://www.w3.org/Graphics/SVG/1.1/DTD/svg11.dtd">
<svg version="1.1" xmlns="http://www.w3.org/2000/svg" xmlns:xlink="http://www.w3.org/1999/xlink" viewBox="0 0 51.25 50.918">
 <g>
  <rect height="50.918" opacity="0" width="51.25" x="0" y="0"/>
  <path d="M25.4297 50.8789C39.4727 50.8789 50.8789 39.4922 50.8789 25.4492C50.8789 11.4062 39.4727 0 25.4297 0C11.3867 0 0 11.4062 0 25.4492C0 39.4922 11.3867 50.8789 25.4297 50.8789ZM25.4297 47.2461C13.3789 47.2461 3.63281 37.5 3.63281 25.4492C3.63281 13.3984 13.3789 3.65234 25.4297 3.65234C37.4805 3.65234 47.2266 13.3984 47.2266 25.4492C47.2266 37.5 37.4805 47.2461 25.4297 47.2461Z" fill="black" fill-opacity="0.85"/>
  <path d="M24.4531 17.0312C26.1328 17.0312 27.4805 15.6836 27.4805 13.9844C27.4805 12.3242 26.1328 10.9961 24.4531 10.9961C22.793 10.9961 21.4258 12.3242 21.4258 13.9844C21.4258 15.6836 22.793 17.0312 24.4531 17.0312ZM16.875 41.582C17.6562 41.7188 18.3789 41.2305 18.5156 40.4102L19.7656 33.7109L25.3125 30.6836C25.4492 30.5859 25.6055 30.6445 25.6641 30.7812L28.457 37.5391C28.6328 37.8906 28.8867 38.1445 29.1797 38.3008L34.9023 41.4844C35.7227 41.9336 36.5234 41.582 36.875 40.9375C37.2656 40.2539 37.0312 39.375 36.3281 38.9648L31.0352 36.0547L27.0898 20.1758C26.8555 19.2383 26.0156 18.5352 25 18.5352L16.4844 18.5352L20.4688 10.0781C21.0156 8.96484 20.2148 8.20312 19.375 8.20312C18.8867 8.20312 18.418 8.4375 18.2031 9.02344L13.6133 20.957C13.3984 21.543 13.5742 22.0703 13.9258 22.4219L17.4609 25.9961C18.0078 26.5234 18.9258 26.5234 19.4727 25.9961L21.0547 24.4141C21.2695 24.1992 21.582 24.1992 21.6602 24.5117L22.5 27.9102L17.5977 31.6016C17.2461 31.8555 17.0898 32.2656 17.0312 32.6758L15.7031 39.9023C15.5664 40.6641 16.0938 41.4258 16.875 41.582ZM19.9219 21.4258L18.4766 22.9102L16.9922 21.4258Z" fill="black" fill-opacity="0.85"/>
 </g>
</svg>
