<?xml version="1.0" encoding="UTF-8"?>
<!--Generator: Apple Native CoreSVG 326-->
<!DOCTYPE svg
PUBLIC "-//W3C//DTD SVG 1.1//EN"
       "http://www.w3.org/Graphics/SVG/1.1/DTD/svg11.dtd">
<svg version="1.1" xmlns="http://www.w3.org/2000/svg" xmlns:xlink="http://www.w3.org/1999/xlink" viewBox="0 0 51.25 50.918">
 <g>
  <rect height="50.918" opacity="0" width="51.25" x="0" y="0"/>
  <path d="M50.8789 25.4492C50.8789 39.4531 39.4531 50.8789 25.4297 50.8789C11.4258 50.8789 0 39.4531 0 25.4492C0 11.4258 11.4258 0 25.4297 0C39.4531 0 50.8789 11.4258 50.8789 25.4492ZM21.4844 33.418L17.0312 38.7109C15.625 40.3711 17.8906 41.9922 19.082 40.6055L23.5742 35.2734C24.0039 34.7266 24.082 34.6094 24.2383 34.0625L24.5898 32.9688L22.2266 29.9609ZM20.8789 18.418L18.5938 20.6641C17.8516 21.4062 17.6172 22.0117 17.5391 22.9688L17.2852 26.5039C17.2266 27.3828 17.6953 28.0078 18.4961 28.0469C19.3359 28.1055 19.8242 27.6172 19.9023 26.6797L20.2344 22.7734L21.3477 21.7969C21.7383 21.4258 22.3047 21.6406 22.2656 22.1094L22.0117 25.3711C21.8945 27.0312 22.3047 27.832 23.418 29.2383L26.4648 33.0469C26.7578 33.418 26.7969 33.5938 26.9141 33.8281L30.0586 40.1953C30.957 42.0312 33.7305 40.8789 32.6953 38.8867L29.668 32.6758C29.4336 32.2266 29.1211 31.7383 28.8281 31.3281L26.875 28.5352L26.9922 28.1445C27.5391 26.6016 27.7344 25.6641 27.832 24.1211L28.1445 19.8047C28.2812 17.7148 27.0703 16.1719 24.9609 16.1719C23.418 16.1719 22.3633 16.9922 20.8789 18.418ZM29.2969 23.125L30.2539 24.082C30.7422 24.5703 31.1523 24.707 32.0508 24.707L35.2734 24.707C36.1523 24.707 36.7188 24.1992 36.7188 23.3789C36.7188 22.5781 36.1523 22.0703 35.2734 22.0703L31.7969 22.0703L29.5703 19.5898ZM23.4766 11.6797C23.4766 13.3984 24.8828 14.8242 26.6406 14.8242C28.3789 14.8242 29.7852 13.3984 29.7852 11.6797C29.7852 9.92188 28.3789 8.51562 26.6406 8.51562C24.8828 8.51562 23.4766 9.92188 23.4766 11.6797Z" fill="black" fill-opacity="0.85"/>
 </g>
</svg>
