<?xml version="1.0" encoding="UTF-8"?>
<!--Generator: Apple Native CoreSVG 326-->
<!DOCTYPE svg
PUBLIC "-//W3C//DTD SVG 1.1//EN"
       "http://www.w3.org/Graphics/SVG/1.1/DTD/svg11.dtd">
<svg version="1.1" xmlns="http://www.w3.org/2000/svg" xmlns:xlink="http://www.w3.org/1999/xlink" viewBox="0 0 79.6463 50.332">
 <g>
  <rect height="50.332" opacity="0" width="79.6463" x="0" y="0"/>
  <path d="M13.5146 13.4766C9.80361 13.4766 6.81533 10.3906 6.81533 6.79688C6.81533 3.04688 9.80361 0 13.5146 0C17.2646 0 20.2528 3.04688 20.2528 6.79688C20.2528 10.5273 17.2646 13.4766 13.5146 13.4766ZM53.495 48.9453C52.2255 50.293 50.0185 50.1758 48.4364 48.5547L37.7528 37.5195C37.4013 37.1484 37.1474 37.0508 36.6005 37.2656L28.1239 40.4883C22.7919 42.5195 17.7919 40.6445 15.3896 36.25L10.1356 26.7188C8.0458 22.8906 8.72939 18.9844 12.3427 17.0703C15.8388 15.1367 19.4716 16.582 21.6005 20.4688L28.5536 33.1641L34.4716 31.0156C37.4013 29.9414 39.8427 30.2734 42.1864 32.6953L53.2802 44.1797C54.8231 45.7617 54.6669 47.7539 53.495 48.9453Z" fill="black" fill-opacity="0.85"/>
  <path d="M51.8153 7.59766L58.5731 16.2695C58.8856 16.6406 59.3349 16.7383 59.7646 16.5039C61.3466 15.6641 63.6708 15.0781 65.5067 15.0781C67.3817 15.0781 69.7255 15.6641 71.2685 16.5039C71.7177 16.7383 72.206 16.6406 72.4794 16.2695L79.2567 7.59766C79.8622 6.79688 79.745 5.99609 79.0224 5.42969C76.2099 3.30078 70.9364 1.67969 65.5067 1.67969C60.1552 1.67969 54.8622 3.30078 52.0692 5.42969C51.3075 5.99609 51.2294 6.81641 51.8153 7.59766ZM58.9247 21.4453C58.1825 20.4492 57.87 19.5117 57.87 18.4766C57.87 16.2109 59.7646 15.5078 59.7646 14.1602C59.7646 12.793 57.87 12.1484 57.87 9.80469C57.87 8.78906 58.1825 7.85156 58.9442 6.85547C59.7646 5.87891 61.2294 6.91406 60.4481 7.96875C59.8817 8.73047 59.706 9.17969 59.706 9.80469C59.706 11.5039 61.6005 12.0117 61.6005 14.1602C61.6005 16.3281 59.706 16.8555 59.706 18.4766C59.706 19.1602 59.8817 19.5703 60.4286 20.332C61.1903 21.3672 59.745 22.4023 58.9247 21.4453ZM64.745 21.4453C64.0224 20.4492 63.6903 19.5117 63.6903 18.4766C63.6903 16.2109 65.5653 15.5078 65.5653 14.1602C65.5653 12.793 63.6903 12.1484 63.6903 9.80469C63.6903 8.78906 64.0028 7.85156 64.745 6.85547C65.5653 5.87891 67.0497 6.91406 66.2685 7.96875C65.7021 8.73047 65.5458 9.17969 65.5458 9.80469C65.5458 11.5039 67.4208 12.0117 67.4208 14.1602C67.4208 16.3281 65.5458 16.8555 65.5458 18.4766C65.5458 19.1602 65.7021 19.5703 66.2489 20.332C67.0106 21.3672 65.5458 22.4023 64.745 21.4453ZM70.6044 21.4453C69.8427 20.4492 69.5106 19.5117 69.5106 18.4766C69.5106 16.2109 71.4247 15.5078 71.4247 14.1602C71.4247 12.793 69.5106 12.1484 69.5106 9.80469C69.5106 8.78906 69.8231 7.85156 70.6239 6.85547C71.4247 5.87891 72.8896 6.91406 72.0888 7.96875C71.5419 8.73047 71.3661 9.17969 71.3661 9.80469C71.3661 11.5039 73.2606 12.0117 73.2606 14.1602C73.2606 16.3281 71.3661 16.8555 71.3661 18.4766C71.3661 19.1602 71.5419 19.5703 72.0888 20.332C72.8505 21.3672 71.4052 22.4023 70.6044 21.4453ZM42.7333 9.55078C42.7333 8.78906 42.1083 8.16406 41.3466 8.16406L34.4716 8.16406L34.4716 4.51172C34.4716 3.08594 32.9677 2.53906 31.9716 3.4375L26.1903 8.49609C25.4677 9.14062 25.4286 10.0391 26.1903 10.6836L31.9716 15.7227C33.0067 16.6406 34.4716 16.0352 34.4716 14.6484L34.4716 10.9961L41.3466 10.9961C42.1083 10.9961 42.7333 10.3711 42.7333 9.55078ZM47.1278 12.4805C46.3661 12.5195 45.7021 13.125 45.7021 13.8867L45.7021 20.7617L42.0302 20.7617C40.6435 20.7617 40.0771 22.168 40.9755 23.2031L45.995 29.043C46.6591 29.8047 47.5185 29.7461 48.1825 29.0234L53.2802 23.2422C54.1786 22.2461 53.6708 20.7617 52.1864 20.7617L48.5146 20.7617L48.5146 13.8867C48.5146 13.0859 47.9091 12.4805 47.1278 12.4805Z" fill="black" fill-opacity="0.85"/>
 </g>
</svg>
