<?xml version="1.0" encoding="UTF-8"?>
<!--Generator: Apple Native CoreSVG 326-->
<!DOCTYPE svg
PUBLIC "-//W3C//DTD SVG 1.1//EN"
       "http://www.w3.org/Graphics/SVG/1.1/DTD/svg11.dtd">
<svg version="1.1" xmlns="http://www.w3.org/2000/svg" xmlns:xlink="http://www.w3.org/1999/xlink" viewBox="0 0 51.25 50.918">
 <g>
  <rect height="50.918" opacity="0" width="51.25" x="0" y="0"/>
  <path d="M50.8789 25.4492C50.8789 39.4531 39.4531 50.8789 25.4297 50.8789C11.4258 50.8789 0 39.4531 0 25.4492C0 11.4258 11.4258 0 25.4297 0C39.4531 0 50.8789 11.4258 50.8789 25.4492ZM33.9648 26.1523L33.2812 26.1523L33.2812 40.6055C33.2812 40.9961 33.5742 41.3086 33.9648 41.3086C34.3555 41.3086 34.668 40.9961 34.668 40.6055L34.668 26.0352C34.375 26.0938 34.1211 26.1523 33.9648 26.1523ZM19.1992 14.4531C17.5977 14.4531 16.6016 15.4492 16.6016 17.0508L16.6016 24.3164C16.6016 25.4102 17.4023 26.2109 18.4961 26.2109L20.4883 26.2109C20.5078 27.1875 20.7617 27.8516 21.2891 28.6914L19.9805 33.8086L15.7227 38.8281C14.2969 40.5078 16.6211 42.168 17.793 40.7812L21.8945 35.8594C22.3047 35.3906 22.4609 35.1172 22.8125 34.4727L25.3711 28.8672C26.1719 27.1875 26.3086 26.1523 26.4258 24.3555L26.582 22.0312L28.8672 24.1992C29.3945 24.6875 29.7656 24.8438 30.6445 24.8438L33.9648 24.8438C34.8438 24.8438 35.4297 24.3164 35.4297 23.4961C35.4297 22.6953 34.8438 22.168 33.9648 22.168L30.4102 22.168L26.0352 17.4023C25.3906 16.6992 24.5508 16.2891 23.5352 16.2891C23.2617 16.2891 23.0078 16.3281 22.7734 16.3672C22.7734 15.293 21.8945 14.4531 20.7031 14.4531ZM24.8438 33.1836C25.2344 33.6719 25.3711 33.9258 25.5273 34.1992L28.5156 40.332C29.4531 42.1875 32.2266 40.9961 31.2305 39.0039L28.2617 33.0469C28.0469 32.5586 27.7344 32.0703 27.4219 31.6406L26.3086 30.0586ZM33.2812 18.8477L33.2812 20.8984L33.9648 20.8984C34.1406 20.8984 34.3555 20.918 34.668 20.9766L34.668 18.8477C34.668 18.457 34.3555 18.1641 33.9648 18.1641C33.5742 18.1641 33.2812 18.457 33.2812 18.8477ZM22.1875 11.7773C22.1875 13.5352 23.5938 14.9609 25.3516 14.9609C27.1094 14.9609 28.5156 13.5352 28.5156 11.7773C28.5156 10.0586 27.1094 8.65234 25.3516 8.65234C23.5938 8.65234 22.1875 10.0586 22.1875 11.7773Z" fill="black" fill-opacity="0.85"/>
 </g>
</svg>
