<?xml version="1.0" encoding="UTF-8"?>
<!--Generator: Apple Native CoreSVG 326-->
<!DOCTYPE svg
PUBLIC "-//W3C//DTD SVG 1.1//EN"
       "http://www.w3.org/Graphics/SVG/1.1/DTD/svg11.dtd">
<svg version="1.1" xmlns="http://www.w3.org/2000/svg" xmlns:xlink="http://www.w3.org/1999/xlink" viewBox="0 0 48.0975 49.6289">
 <g>
  <rect height="49.6289" opacity="0" width="48.0975" x="0" y="0"/>
  <path d="M36.6855 21.8555L36.6855 27.8906C36.6855 29.6289 37.955 30.918 39.6933 30.918L44.4589 30.918C46.1777 30.918 47.4667 29.6289 47.4667 27.8906L47.4667 21.8555C47.4667 20.1172 46.1777 18.8281 44.4589 18.8281L39.6933 18.8281C37.955 18.8281 36.6855 20.1172 36.6855 21.8555ZM37.037 15.0977L47.0956 15.0977C47.7792 15.0977 47.9355 14.3555 47.3886 13.9844L42.7988 10.8594C42.3105 10.5273 41.8222 10.5273 41.3339 10.8594L36.7441 13.9844C36.1972 14.3555 36.3534 15.0977 37.037 15.0977Z" fill="black" fill-opacity="0.85"/>
  <path d="M14.3222 10.9766C17.3105 10.9766 19.7519 8.45703 19.7519 5.52734C19.7519 2.48047 17.3105 0 14.3222 0C11.2558 0 8.85344 2.48047 8.85344 5.52734C8.85344 8.55469 11.2558 10.9766 14.3222 10.9766ZM3.79484 31.4258L19.498 14.0039C17.8964 13.3984 16.2167 13.1641 14.3222 13.1641C7.25188 13.1641 3.07219 16.5625 3.07219 22.2461C3.07219 23.6328 3.11125 25.4688 3.34563 27.3438ZM24.83 31.4258L25.2597 27.3438C25.4745 25.4688 25.5527 23.6328 25.5527 22.2461C25.5527 19.4141 24.537 17.1289 22.5448 15.5664L9.94719 29.5703C11.4316 29.3164 12.8769 29.2188 14.3222 29.2188C17.7792 29.2188 21.2753 29.6875 24.83 31.4258ZM8.2675 49.5508C9.71281 49.3359 10.6698 48.3008 10.4941 46.5234L9.49797 37.4023L19.1073 37.4023L18.1503 46.5234C17.9355 48.3008 18.8925 49.3359 20.3378 49.5508C21.8222 49.6875 22.955 48.7695 23.1308 47.0117L24.4198 34.9219C21.2363 33.1055 17.7011 32.3828 14.3222 32.3828C10.9042 32.3828 7.36906 33.1055 4.22453 34.9219L5.455 47.0117C5.65031 48.7695 6.76359 49.6875 8.2675 49.5508ZM22.5448 15.5469L27.2128 10.332C27.9941 9.45312 27.9159 8.49609 27.1738 7.85156C26.4706 7.22656 25.5527 7.20703 24.7519 8.125L19.498 14.0039C20.5917 14.4336 21.6073 14.9609 22.5448 15.5469ZM0.728438 33.2812C-0.130937 33.9062-0.150468 34.8828 0.259688 35.5469C0.669845 36.2305 1.56828 36.5625 2.46672 35.9961C3.05266 35.6055 3.59953 35.2539 4.22453 34.9219L3.79484 31.4258C2.68156 31.9336 1.66594 32.5391 0.728438 33.2812ZM27.9159 33.2812C26.9589 32.5391 25.9433 31.9336 24.83 31.4258L24.4003 34.9219C25.0253 35.2539 25.5722 35.6055 26.1581 35.9961C27.0566 36.5625 27.9355 36.25 28.3456 35.5859C28.7753 34.9219 28.7753 33.9258 27.9159 33.2812Z" fill="black" fill-opacity="0.85"/>
 </g>
</svg>
