<?xml version="1.0" encoding="UTF-8"?>
<!--Generator: Apple Native CoreSVG 326-->
<!DOCTYPE svg
PUBLIC "-//W3C//DTD SVG 1.1//EN"
       "http://www.w3.org/Graphics/SVG/1.1/DTD/svg11.dtd">
<svg version="1.1" xmlns="http://www.w3.org/2000/svg" xmlns:xlink="http://www.w3.org/1999/xlink" viewBox="0 0 51.25 50.918">
 <g>
  <rect height="50.918" opacity="0" width="51.25" x="0" y="0"/>
  <path d="M50.8789 25.4492C50.8789 39.4531 39.4531 50.8789 25.4297 50.8789C11.4258 50.8789 0 39.4531 0 25.4492C0 11.4258 11.4258 0 25.4297 0C39.4531 0 50.8789 11.4258 50.8789 25.4492ZM17.5195 16.0156C17.1094 16.0156 16.7188 16.1523 16.4453 16.4453L12.1094 20.8008C11.5234 21.3867 11.543 22.2852 12.1094 22.8711C12.6758 23.4375 13.5938 23.4375 14.1602 22.8711L18.1055 18.9062L20.6641 18.9062C20.957 18.9062 21.0547 19.1797 20.8789 19.3555L16.9336 23.2617C15.0391 25.1367 16.0352 28.3984 19.043 28.3984L25.9375 28.3984L24.7852 34.7461C24.4336 36.6602 27.3047 37.1289 27.6562 35.1758L29.1211 27.168C29.2578 26.4258 28.7695 25.625 27.9102 25.4883L23.1055 24.8047L26.1133 21.8555C26.3867 21.5625 26.7773 21.543 27.0898 21.8555L34.5117 29.2773C35.0781 29.8438 36.0156 29.8633 36.582 29.2773C37.1289 28.6914 37.1484 27.8125 36.582 27.2266L26.4258 17.0703C25.7617 16.4062 24.8633 16.0156 23.8672 16.0156ZM16.1719 33.4961L11.0547 33.4961C10.2148 33.4961 9.58984 34.1602 9.58984 34.9219C9.58984 35.7422 10.2148 36.3867 11.0547 36.3867L17.5195 36.3867C18.2227 36.3867 18.7891 35.8398 18.9258 35.0977L19.9805 29.5898L19.043 29.5898C18.0469 29.5898 17.1875 29.2969 16.5234 28.8672ZM37.0117 30.2539C36.6797 30.2539 36.4062 30.5078 36.4062 30.8594C36.4062 31.2109 36.6797 31.4844 37.0117 31.4844L38.5547 31.4844C39.0039 31.4844 39.3555 31.7773 39.3555 32.2656L39.3555 32.8906L36.2891 32.8906C35.3125 32.8906 34.5508 33.6719 34.5508 34.6484C34.5508 35.6055 35.3125 36.3867 36.2891 36.3867L40.6445 36.3867C41.6211 36.3867 42.3828 35.6055 42.3828 34.6484C42.3828 33.6719 41.6211 32.8906 40.6445 32.8906L40.5469 32.8906L40.5469 32.2656C40.5469 31.1133 39.6875 30.2539 38.5547 30.2539ZM26.7969 14.0039C26.7969 15.7031 28.1836 17.0898 29.9023 17.0898C31.6211 17.0898 32.9883 15.7031 32.9883 14.0039C32.9883 12.2852 31.6211 10.918 29.9023 10.918C28.1836 10.918 26.7969 12.2852 26.7969 14.0039Z" fill="black" fill-opacity="0.85"/>
 </g>
</svg>
