<?xml version="1.0" encoding="UTF-8"?>
<!--Generator: Apple Native CoreSVG 326-->
<!DOCTYPE svg
PUBLIC "-//W3C//DTD SVG 1.1//EN"
       "http://www.w3.org/Graphics/SVG/1.1/DTD/svg11.dtd">
<svg version="1.1" xmlns="http://www.w3.org/2000/svg" xmlns:xlink="http://www.w3.org/1999/xlink" viewBox="0 0 51.25 50.918">
 <g>
  <rect height="50.918" opacity="0" width="51.25" x="0" y="0"/>
  <path d="M50.8789 25.4492C50.8789 39.4531 39.4531 50.8789 25.4297 50.8789C11.4258 50.8789 0 39.4531 0 25.4492C0 11.4258 11.4258 0 25.4297 0C39.4531 0 50.8789 11.4258 50.8789 25.4492ZM23.7305 30.0977C23.5938 30.0977 23.4375 30.0977 23.2812 30.0781L24.1992 34.6875L22.832 41.6211C22.6758 42.4219 23.1641 43.2227 23.9453 43.3398C24.6875 43.4961 25.5078 43.0273 25.6641 42.207L27.1094 34.9805C27.1484 34.8242 27.1484 34.668 27.1289 34.4727L26.8555 28.9844C25.957 29.7266 24.8828 30.0977 23.7305 30.0977ZM23.5352 12.5L23.5352 17.3828L16.2891 17.3828C14.707 17.3828 13.418 18.6523 13.418 20.2344L13.418 26.0352C13.418 26.8164 14.043 27.4805 14.8633 27.4805L20.7617 27.4805L21.1328 27.8516C21.8555 28.5156 22.793 28.9062 23.7305 28.9062C24.5312 28.9062 25.2734 28.6914 25.957 28.1836L33.0664 22.832L40.1562 18.5742C40.8594 18.1836 41.0742 17.3047 40.6641 16.6211C40.2539 15.9375 39.3555 15.7227 38.6719 16.1328L25.2148 24.1992L21.4453 20.4492C21.3477 20.3516 21.3867 20.2344 21.5234 20.2344L24.9609 20.2344C25.7617 20.2344 26.4258 19.6289 26.4258 18.8086L26.4258 14.5312C27.2656 14.2188 27.8711 13.418 27.8711 12.5C27.8711 11.2695 26.8945 10.332 25.6836 10.332C24.4922 10.332 23.5352 11.2695 23.5352 12.5ZM16.543 23.1445L18.0664 24.6875L16.1914 24.6875L16.1914 23.3008C16.1914 23.1055 16.4062 23.0078 16.543 23.1445ZM13.3594 12.6953C13.3594 14.4336 14.7656 15.8203 16.4844 15.8203C18.1836 15.8203 19.5898 14.4336 19.5898 12.6953C19.5898 10.9961 18.1836 9.60938 16.4844 9.60938C14.7656 9.60938 13.3594 10.9961 13.3594 12.6953Z" fill="black" fill-opacity="0.85"/>
 </g>
</svg>
