<?xml version="1.0" encoding="UTF-8"?>
<!--Generator: Apple Native CoreSVG 326-->
<!DOCTYPE svg
PUBLIC "-//W3C//DTD SVG 1.1//EN"
       "http://www.w3.org/Graphics/SVG/1.1/DTD/svg11.dtd">
<svg version="1.1" xmlns="http://www.w3.org/2000/svg" xmlns:xlink="http://www.w3.org/1999/xlink" viewBox="0 0 51.25 50.918">
 <g>
  <rect height="50.918" opacity="0" width="51.25" x="0" y="0"/>
  <path d="M50.8789 25.4492C50.8789 39.4531 39.4531 50.8789 25.4297 50.8789C11.4258 50.8789 0 39.4531 0 25.4492C0 11.4258 11.4258 0 25.4297 0C39.4531 0 50.8789 11.4258 50.8789 25.4492ZM23.0469 9.31641C23.0469 10.4492 23.8086 11.9141 24.5898 12.8711L24.5898 15.1758C24.3555 15.332 24.1211 15.625 24.043 15.957L22.5781 21.0352C22.3242 21.9727 22.8711 22.8711 23.9062 22.8711L24.5898 22.8711L24.5898 25.3125C22.0508 26.6602 21.7773 30.1172 24.0625 31.7969L29.3555 35.6445L26.2695 41.7969C25.918 42.4805 26.1914 43.3789 26.9336 43.75C27.5781 44.0625 28.457 43.9062 28.8672 43.1055L32.4609 35.918C32.7539 35.2539 32.6758 34.5898 32.168 34.1406L29.4336 31.582L34.0625 31.582C34.9023 31.582 35.5273 30.9375 35.5273 30.1367L35.5273 24.3359C35.5273 21.9531 33.5938 20 31.1719 20L26.2109 20L26.2109 18.7305L26.7578 16.7578C26.9336 16.1328 26.6992 15.5078 26.2109 15.1953L26.2109 12.793C26.9531 11.7578 27.7148 10.3125 27.7148 9.31641C27.7148 7.92969 26.7773 6.93359 25.3906 6.93359C24.0039 6.93359 23.0469 7.92969 23.0469 9.31641ZM20.7422 35.1758L13.457 35.1758C12.6367 35.1758 11.9727 35.8398 11.9727 36.6602C11.9727 37.4609 12.6367 38.125 13.457 38.125L21.7578 38.125C22.3047 38.125 22.832 37.793 23.1055 37.2852L24.8438 33.8086L23.3594 32.7344C22.7344 32.3047 22.2852 31.8359 22.0117 31.3281ZM32.7148 27.5586L32.7148 28.75L29.5508 28.75L32.4414 27.3633C32.5586 27.3047 32.7148 27.4023 32.7148 27.5586ZM29.1406 22.9883L26.2109 24.4922L26.2109 22.8711L29.1016 22.8711C29.1602 22.8711 29.1992 22.9688 29.1406 22.9883ZM33.7305 17.4805C33.7305 19.1992 35.1172 20.5859 36.8555 20.5859C38.5352 20.5859 39.9609 19.1992 39.9609 17.4805C39.9609 15.7422 38.5352 14.375 36.8555 14.375C35.1172 14.375 33.7305 15.7422 33.7305 17.4805Z" fill="black" fill-opacity="0.85"/>
 </g>
</svg>
