<?xml version="1.0" encoding="UTF-8"?>
<!--Generator: Apple Native CoreSVG 326-->
<!DOCTYPE svg
PUBLIC "-//W3C//DTD SVG 1.1//EN"
       "http://www.w3.org/Graphics/SVG/1.1/DTD/svg11.dtd">
<svg version="1.1" xmlns="http://www.w3.org/2000/svg" xmlns:xlink="http://www.w3.org/1999/xlink" viewBox="0 0 51.25 50.918">
 <g>
  <rect height="50.918" opacity="0" width="51.25" x="0" y="0"/>
  <path d="M25.4297 50.8789C39.4727 50.8789 50.8789 39.4922 50.8789 25.4492C50.8789 11.4062 39.4727 0 25.4297 0C11.3867 0 0 11.4062 0 25.4492C0 39.4922 11.3867 50.8789 25.4297 50.8789ZM25.4297 47.2461C13.3789 47.2461 3.63281 37.5 3.63281 25.4492C3.63281 13.3984 13.3789 3.65234 25.4297 3.65234C37.4805 3.65234 47.2266 13.3984 47.2266 25.4492C47.2266 37.5 37.4805 47.2461 25.4297 47.2461Z" fill="black" fill-opacity="0.85"/>
  <path d="M29.2188 15.8984C30.918 15.8984 32.2461 14.5312 32.2461 12.8711C32.2461 11.2109 30.918 9.84375 29.2188 9.84375C27.5586 9.84375 26.2109 11.2109 26.2109 12.8711C26.2109 14.5312 27.5586 15.8984 29.2188 15.8984ZM24.4922 28.0078L29.8438 31.0156L26.3672 33.9844C25.6836 34.5898 25.6641 35.4102 26.1133 35.918C26.582 36.4453 27.4023 36.5234 28.125 35.8789L32.9297 31.7969C33.5938 31.25 33.4766 30.0781 32.7148 29.5703L27.4609 26.1328L28.4961 22.5C28.6523 21.9727 29.2578 21.9141 29.5703 22.3438L31.1133 24.6094C31.4648 25.1172 32.1289 25.3125 32.7148 25.0586L37.1094 23.0859C37.8906 22.7344 38.1836 22.0703 37.8516 21.3672C37.5195 20.6836 36.8555 20.4688 36.0742 20.8008L32.5586 22.3633L30.1367 19.0234C28.9062 17.2852 27.3438 16.6211 24.7852 16.7969L19.9023 17.1289C19.1406 17.1875 18.5938 17.6953 18.4961 18.4766L17.8516 23.457C17.7344 24.2969 18.1445 24.9023 18.9062 24.9805C19.6484 25.0586 20.1367 24.6094 20.2734 23.75L20.8594 19.668L22.8516 19.5312C23.3008 19.5117 23.75 19.8438 23.5742 20.3516L22.4414 24.3555C21.7578 26.6992 23.2812 27.3438 24.4922 28.0078ZM15.1758 40.0586C15.7031 40.4883 16.4648 40.5273 17.1484 39.8633L21.6797 35.3906C22.0508 35 22.1484 34.9414 22.3633 34.3359L24.375 29.2969L23.9062 29.0234C23.0078 28.5156 22.1289 28.0078 21.6211 27.2461L19.8828 33.3008L15.1758 37.9492C14.4922 38.6523 14.6094 39.5312 15.1758 40.0586Z" fill="black" fill-opacity="0.85"/>
 </g>
</svg>
