<?xml version="1.0" encoding="UTF-8"?>
<!--Generator: Apple Native CoreSVG 326-->
<!DOCTYPE svg
PUBLIC "-//W3C//DTD SVG 1.1//EN"
       "http://www.w3.org/Graphics/SVG/1.1/DTD/svg11.dtd">
<svg version="1.1" xmlns="http://www.w3.org/2000/svg" xmlns:xlink="http://www.w3.org/1999/xlink" viewBox="0 0 59.4727 42.168">
 <g>
  <rect height="42.168" opacity="0" width="59.4727" x="0" y="0"/>
  <path d="M29.4922 10.8203C32.4805 10.8203 34.9023 8.39844 34.9023 5.41016C34.9023 2.42188 32.4805 0 29.4922 0C26.5039 0 24.082 2.42188 24.082 5.41016C24.082 8.39844 26.5039 10.8203 29.4922 10.8203ZM2.89062 7.20703L21.1133 16.9922C21.6992 17.3047 22.0508 17.9297 21.8555 18.6133L20.0977 25.0391C24.5508 26.0352 26.2305 28.7891 29.5508 28.7891C30.5273 28.7891 31.3477 28.5352 32.168 28.1445L34.5703 19.2773C34.8047 18.3789 35.0586 17.8906 35.9961 17.4023L55.0586 7.20703C56.4258 6.48438 56.9531 4.76562 56.25 3.41797C55.4688 2.05078 53.7891 1.50391 52.4023 2.24609L33.4766 12.2852C30.5078 13.8672 27.6953 14.043 24.1406 12.168L5.54688 2.24609C4.16016 1.50391 2.46094 2.05078 1.75781 3.41797C1.01562 4.76562 1.52344 6.48438 2.89062 7.20703ZM1.23047 35.1367L3.69141 35.1367C10.293 35.1367 11.875 30.9766 16.6211 30.9766C21.3672 30.9766 22.9688 35.1367 29.5508 35.1367C36.1523 35.1367 37.7344 30.9766 42.4805 30.9766C47.2266 30.9766 48.8281 35.1367 55.4102 35.1367L57.8711 35.1367C58.5547 35.1367 59.1016 34.5898 59.1016 33.8867C59.1016 33.2031 58.5547 32.6562 57.8711 32.6562L55.4102 32.6562C50.4883 32.6562 48.8086 28.5156 42.4805 28.5156C36.1523 28.5156 34.4727 32.6562 29.5508 32.6562C24.6289 32.6562 22.9492 28.5156 16.6211 28.5156C10.293 28.5156 8.61328 32.6562 3.69141 32.6562L1.23047 32.6562C0.546875 32.6562 0 33.2031 0 33.8867C0 34.5898 0.546875 35.1367 1.23047 35.1367ZM1.93359 42.0508C2.71484 42.0508 3.30078 41.4648 3.30078 40.7031C3.30078 39.9414 2.71484 39.3359 1.93359 39.3359C1.17188 39.3359 0.585938 39.9414 0.585938 40.7031C0.585938 41.4648 1.17188 42.0508 1.93359 42.0508ZM6.64062 41.2305C7.40234 41.2305 8.00781 40.625 8.00781 39.8633C8.00781 39.1016 7.40234 38.4961 6.64062 38.4961C5.87891 38.4961 5.29297 39.1016 5.29297 39.8633C5.29297 40.625 5.87891 41.2305 6.64062 41.2305ZM11.0352 39.1797C11.7969 39.1797 12.4023 38.5742 12.4023 37.8125C12.4023 37.0508 11.7969 36.4648 11.0352 36.4648C10.2734 36.4648 9.6875 37.0508 9.6875 37.8125C9.6875 38.5742 10.2734 39.1797 11.0352 39.1797ZM15.7617 38.0664C16.5234 38.0664 17.1094 37.4805 17.1094 36.6992C17.1094 35.9375 16.5234 35.3516 15.7617 35.3516C15 35.3516 14.3945 35.9375 14.3945 36.6992C14.3945 37.4805 15 38.0664 15.7617 38.0664ZM20.4492 39.1797C21.2305 39.1797 21.8164 38.5742 21.8164 37.8125C21.8164 37.0508 21.2305 36.4648 20.4492 36.4648C19.6875 36.4648 19.1016 37.0508 19.1016 37.8125C19.1016 38.5742 19.6875 39.1797 20.4492 39.1797ZM24.9023 41.2305C25.6641 41.2305 26.25 40.625 26.25 39.8633C26.25 39.1016 25.6641 38.4961 24.9023 38.4961C24.1406 38.4961 23.5352 39.1016 23.5352 39.8633C23.5352 40.625 24.1406 41.2305 24.9023 41.2305ZM29.5898 42.0508C30.3516 42.0508 30.9375 41.4648 30.9375 40.7031C30.9375 39.9414 30.3516 39.3359 29.5898 39.3359C28.8281 39.3359 28.2227 39.9414 28.2227 40.7031C28.2227 41.4648 28.8281 42.0508 29.5898 42.0508ZM34.2773 41.2305C35.0391 41.2305 35.625 40.625 35.625 39.8633C35.625 39.1016 35.0391 38.4961 34.2773 38.4961C33.5156 38.4961 32.9102 39.1016 32.9102 39.8633C32.9102 40.625 33.5156 41.2305 34.2773 41.2305ZM38.7109 39.1797C39.4727 39.1797 40.0781 38.5742 40.0781 37.8125C40.0781 37.0508 39.4727 36.4648 38.7109 36.4648C37.9492 36.4648 37.3438 37.0508 37.3438 37.8125C37.3438 38.5742 37.9492 39.1797 38.7109 39.1797ZM43.418 38.0664C44.1797 38.0664 44.7656 37.4805 44.7656 36.6992C44.7656 35.9375 44.1797 35.3516 43.418 35.3516C42.6562 35.3516 42.0508 35.9375 42.0508 36.6992C42.0508 37.4805 42.6562 38.0664 43.418 38.0664ZM48.125 39.1797C48.8867 39.1797 49.4922 38.5742 49.4922 37.8125C49.4922 37.0508 48.8867 36.4648 48.125 36.4648C47.3633 36.4648 46.7773 37.0508 46.7773 37.8125C46.7773 38.5742 47.3633 39.1797 48.125 39.1797ZM52.5195 41.2305C53.2812 41.2305 53.8867 40.625 53.8867 39.8633C53.8867 39.1016 53.2812 38.4961 52.5195 38.4961C51.7578 38.4961 51.1719 39.1016 51.1719 39.8633C51.1719 40.625 51.7578 41.2305 52.5195 41.2305ZM57.207 42.0508C57.9688 42.0508 58.5742 41.4648 58.5742 40.7031C58.5742 39.9414 57.9688 39.3359 57.207 39.3359C56.4453 39.3359 55.8398 39.9414 55.8398 40.7031C55.8398 41.4648 56.4453 42.0508 57.207 42.0508Z" fill="black" fill-opacity="0.85"/>
 </g>
</svg>
