<?xml version="1.0" encoding="UTF-8"?>
<!--Generator: Apple Native CoreSVG 326-->
<!DOCTYPE svg
PUBLIC "-//W3C//DTD SVG 1.1//EN"
       "http://www.w3.org/Graphics/SVG/1.1/DTD/svg11.dtd">
<svg version="1.1" xmlns="http://www.w3.org/2000/svg" xmlns:xlink="http://www.w3.org/1999/xlink" viewBox="0 0 51.25 50.918">
 <g>
  <rect height="50.918" opacity="0" width="51.25" x="0" y="0"/>
  <path d="M50.8789 25.4492C50.8789 39.4531 39.4531 50.8789 25.4297 50.8789C11.4258 50.8789 0 39.4531 0 25.4492C0 11.4258 11.4258 0 25.4297 0C39.4531 0 50.8789 11.4258 50.8789 25.4492ZM25.4102 37.9688C23.3203 37.9688 22.4219 36.0742 19.5508 36.0742C16.5625 36.0742 15.7227 37.9688 13.7109 37.9688L12.9883 37.9688C12.5781 37.9688 12.2656 38.3008 12.2656 38.7109C12.2656 39.082 12.5977 39.3945 12.9883 39.3945L13.7109 39.3945C16.6992 39.3945 17.5391 37.5195 19.5508 37.5195C21.582 37.5195 22.4219 39.3945 25.4102 39.3945C28.418 39.3945 29.2383 37.5195 31.2695 37.5195C33.3008 37.5195 34.1211 39.3945 37.1094 39.3945L37.832 39.3945C38.2422 39.3945 38.5547 39.082 38.5547 38.7109C38.5547 38.3008 38.2422 37.9688 37.832 37.9688L37.1094 37.9688C35.0977 37.9688 34.2773 36.0742 31.2695 36.0742C28.3984 36.0742 27.5195 37.9688 25.4102 37.9688ZM20.5469 16.6602C17.6953 16.6602 15.3516 18.3008 14.707 20.7422L13.3008 25.9961C12.6953 28.3398 14.1797 29.8438 16.0156 29.8438C16.6016 29.8438 17.1875 29.668 17.793 29.3555L24.5312 25.8398L24.668 25.8984L27.3438 22.8711L26.4648 22.4219C25.918 22.1094 25.2344 22.0898 24.6289 22.3633L18.8477 24.8828L20 20.8203C20.1953 20.0781 20.8594 19.5898 21.6016 19.5898L31.8164 19.5898L18.7109 34.4531C19.3359 34.3945 20.1562 34.375 20.7031 34.4531L34.1406 19.1992C34.4531 18.8281 34.6094 18.5156 34.6094 18.1055C34.6094 17.2656 33.9844 16.6602 33.1055 16.6602ZM12.832 32.7148C12.4023 32.7148 12.0312 33.1055 12.0312 33.5156C12.0312 33.9648 12.4023 34.3359 12.832 34.3359L17.2266 34.3359L18.6133 32.7148ZM23.8281 32.7148L22.3828 34.3359L37.9883 34.3359C38.418 34.3359 38.7891 33.9648 38.7891 33.5156C38.7891 33.1055 38.418 32.7148 37.9883 32.7148ZM28.9258 26.9336L34.1016 29.5312C35.1562 30.0781 35.9961 29.6289 36.2891 28.9844C36.6406 28.3398 36.4258 27.4219 35.4297 26.9141L30.8984 24.6484ZM17.7344 11.9727C17.7344 13.7109 19.1016 15.0977 20.8594 15.0977C22.5781 15.0977 23.9453 13.7109 23.9453 11.9727C23.9453 10.2734 22.5781 8.88672 20.8594 8.88672C19.1016 8.88672 17.7344 10.2734 17.7344 11.9727Z" fill="black" fill-opacity="0.85"/>
 </g>
</svg>
