<?xml version="1.0" encoding="UTF-8"?>
<!--Generator: Apple Native CoreSVG 326-->
<!DOCTYPE svg
PUBLIC "-//W3C//DTD SVG 1.1//EN"
       "http://www.w3.org/Graphics/SVG/1.1/DTD/svg11.dtd">
<svg version="1.1" xmlns="http://www.w3.org/2000/svg" xmlns:xlink="http://www.w3.org/1999/xlink" viewBox="0 0 51.25 50.918">
 <g>
  <rect height="50.918" opacity="0" width="51.25" x="0" y="0"/>
  <path d="M25.4297 50.8789C39.4727 50.8789 50.8789 39.4922 50.8789 25.4492C50.8789 11.4062 39.4727 0 25.4297 0C11.3867 0 0 11.4062 0 25.4492C0 39.4922 11.3867 50.8789 25.4297 50.8789ZM25.4297 47.2461C13.3789 47.2461 3.63281 37.5 3.63281 25.4492C3.63281 13.3984 13.3789 3.65234 25.4297 3.65234C37.4805 3.65234 47.2266 13.3984 47.2266 25.4492C47.2266 37.5 37.4805 47.2461 25.4297 47.2461Z" fill="black" fill-opacity="0.85"/>
  <path d="M24.2969 19.1211C25.957 19.1211 27.3047 17.7734 27.3047 16.1133C27.3047 14.4336 25.957 13.0469 24.2969 13.0469C22.5977 13.0469 21.2305 14.4336 21.2305 16.1133C21.2305 17.7734 22.5977 19.1211 24.2969 19.1211ZM36.6406 41.5039C37.4219 41.5039 38.0273 40.8594 38.0273 40.0781L38.0273 33.2617C38.0273 32.7539 37.793 32.3438 37.4219 32.0508L31.9531 27.5586L30.8789 21.6992C30.7617 21.0938 30.8398 20.5078 31.1328 19.9414L35.4297 11.3672C35.7812 10.6445 35.4883 9.82422 34.7852 9.45312C34.1016 9.10156 33.2422 9.39453 32.9102 10.0781L28.6914 18.5156C28.3594 19.1602 27.8906 19.5703 27.2266 19.8438L19.2578 23.1836L16.0352 20.6055C15.7812 20.3906 15.4492 20.332 15.1953 20.332L15.1953 17.1094L13.75 17.1094L13.75 21.6406C13.75 22.1289 13.9062 22.5195 14.2578 22.8125L18.1836 25.918C18.6523 26.3086 19.1992 26.25 19.7852 26.0156L24.1406 24.2188C24.7656 23.9648 25.0781 24.2773 25.1367 24.6875L27.3047 36.582L21.3086 38.9648C20.6055 39.2578 20.2344 40.0781 20.5273 40.8203C20.8398 41.6211 21.6797 41.8359 22.3633 41.5625L29.4141 38.7695C30.0195 38.5156 30.332 37.9102 30.293 37.2852L29.9023 31.7969C29.8828 31.1914 30.5273 30.8398 30.9961 31.1523L35.2344 34.0039L35.2344 40.0781C35.2344 40.8594 35.8398 41.5039 36.6406 41.5039ZM14.4531 9.76562C12.4609 9.76562 10.8984 11.3672 10.8984 13.3789C10.8984 15.2148 12.4219 17.2852 14.4531 17.9688C16.5234 17.2852 18.0273 15.2148 18.0273 13.3789C18.0273 11.3672 16.4648 9.76562 14.4531 9.76562ZM14.4531 11.1914C15.6836 11.1914 16.6016 12.1289 16.6016 13.3984C16.6016 14.6094 15.7422 15.9375 14.4531 16.4258C13.2031 15.9375 12.3438 14.6094 12.3438 13.3984C12.3438 12.1289 13.2617 11.1914 14.4531 11.1914Z" fill="black" fill-opacity="0.85"/>
 </g>
</svg>
