<?xml version="1.0" encoding="UTF-8"?>
<!--Generator: Apple Native CoreSVG 326-->
<!DOCTYPE svg
PUBLIC "-//W3C//DTD SVG 1.1//EN"
       "http://www.w3.org/Graphics/SVG/1.1/DTD/svg11.dtd">
<svg version="1.1" xmlns="http://www.w3.org/2000/svg" xmlns:xlink="http://www.w3.org/1999/xlink" viewBox="0 0 51.543 54.9805">
 <g>
  <rect height="54.9805" opacity="0" width="51.543" x="0" y="0"/>
  <path d="M34.7852 10.8203C37.793 10.8203 40.1953 8.39844 40.1953 5.39062C40.1953 2.40234 37.793 0 34.7852 0C31.7773 0 29.3555 2.40234 29.3555 5.39062C29.3555 8.39844 31.7773 10.8203 34.7852 10.8203ZM17.9297 54.9805C19.3164 54.9805 20.4883 53.8477 20.4883 52.4023L20.4883 29.1602C26.1523 28.2617 31.0352 24.5117 33.3984 19.4141C33.6133 18.8867 34.1992 18.6328 35.1953 18.9844L47.7148 23.1836C49.4531 23.7695 50.6641 22.8125 51.0352 21.6211C51.4258 20.3711 50.957 18.8672 49.3555 18.3203L11.8164 5.80078C10.0781 5.21484 8.86719 6.17188 8.49609 7.38281C8.10547 8.63281 8.55469 10.1172 10.1758 10.6641L23.6914 15.1758C24.2969 15.3906 24.6094 16.1328 24.1992 16.7773C22.793 19.043 20.6641 20.4102 17.9297 20.4102L5.13672 20.4102L5.13672 7.53906C5.13672 6.01562 4.10156 5 2.55859 5C1.01562 5 0 6.01562 0 7.53906L0 22.7539C0 24.4336 0.839844 25.2344 2.12891 25.4492L13.4766 27.3242L15.3711 38.5352L15.3711 52.4023C15.3711 53.8477 16.5039 54.9805 17.9297 54.9805Z" fill="black" fill-opacity="0.85"/>
 </g>
</svg>
