<?xml version="1.0" encoding="UTF-8"?>
<!--Generator: Apple Native CoreSVG 326-->
<!DOCTYPE svg
PUBLIC "-//W3C//DTD SVG 1.1//EN"
       "http://www.w3.org/Graphics/SVG/1.1/DTD/svg11.dtd">
<svg version="1.1" xmlns="http://www.w3.org/2000/svg" xmlns:xlink="http://www.w3.org/1999/xlink" viewBox="0 0 51.25 50.918">
 <g>
  <rect height="50.918" opacity="0" width="51.25" x="0" y="0"/>
  <path d="M50.8789 25.4492C50.8789 39.4531 39.4531 50.8789 25.4297 50.8789C11.4258 50.8789 0 39.4531 0 25.4492C0 11.4258 11.4258 0 25.4297 0C39.4531 0 50.8789 11.4258 50.8789 25.4492ZM12.8516 35.3125C12.3828 35.3125 12.0508 35.6641 12.0508 36.1133C12.0508 36.582 12.3828 36.9336 12.8516 36.9336L38.0078 36.9336C38.4766 36.9336 38.8086 36.582 38.8086 36.1133C38.8086 35.6641 38.4766 35.3125 38.0078 35.3125ZM20.5469 19.2578C17.6953 19.2578 15.3516 20.8984 14.707 23.3398L13.3008 28.5938C12.6953 30.9375 14.1797 32.4219 16.0156 32.4219C16.6016 32.4219 17.1875 32.2852 17.793 31.9531L25.5273 27.832L34.1016 32.1289C35.1562 32.6562 35.9961 32.2461 36.2891 31.582C36.6406 30.9375 36.4258 30.0195 35.4297 29.5117L26.4648 25.0195C25.8984 24.7266 25.2344 24.6875 24.6289 24.9805L18.8477 27.4805L20 23.418C20.2148 22.6758 20.8594 22.168 21.6016 22.168L33.125 22.168C33.9453 22.168 34.6094 21.5234 34.6094 20.7031C34.6094 19.9023 33.9453 19.2578 33.125 19.2578ZM17.7344 14.5703C17.7344 16.3086 19.1016 17.6953 20.8594 17.6953C22.5781 17.6953 23.9453 16.3086 23.9453 14.5703C23.9453 12.8516 22.5781 11.4648 20.8594 11.4648C19.1016 11.4648 17.7344 12.8516 17.7344 14.5703Z" fill="black" fill-opacity="0.85"/>
 </g>
</svg>
