<?xml version="1.0" encoding="UTF-8"?>
<!--Generator: Apple Native CoreSVG 326-->
<!DOCTYPE svg
PUBLIC "-//W3C//DTD SVG 1.1//EN"
       "http://www.w3.org/Graphics/SVG/1.1/DTD/svg11.dtd">
<svg version="1.1" xmlns="http://www.w3.org/2000/svg" xmlns:xlink="http://www.w3.org/1999/xlink" viewBox="0 0 51.25 50.918">
 <g>
  <rect height="50.918" opacity="0" width="51.25" x="0" y="0"/>
  <path d="M25.4297 50.8789C39.4727 50.8789 50.8789 39.4922 50.8789 25.4492C50.8789 11.4062 39.4727 0 25.4297 0C11.3867 0 0 11.4062 0 25.4492C0 39.4922 11.3867 50.8789 25.4297 50.8789ZM25.4297 47.2461C13.3789 47.2461 3.63281 37.5 3.63281 25.4492C3.63281 13.3984 13.3789 3.65234 25.4297 3.65234C37.4805 3.65234 47.2266 13.3984 47.2266 25.4492C47.2266 37.5 37.4805 47.2461 25.4297 47.2461Z" fill="black" fill-opacity="0.85"/>
  <path d="M25.4102 28.1055L28.7695 33.3789L31.25 40.2734C31.543 41.0352 32.2852 41.2695 32.9102 41.0547C33.5742 40.8203 33.9258 40.0586 33.6719 39.4141L31.1523 32.4414L28.6328 25.5273L28.6328 19.2578C28.6328 18.9844 28.7891 18.6914 29.043 18.5547L37.5586 14.0234C38.2031 13.6719 38.4375 12.9297 38.0859 12.2852C37.7539 11.6602 36.9922 11.4258 36.3672 11.7578L28.1445 16.1133C27.2266 16.6016 26.3086 16.8164 25.4102 16.8164C24.5117 16.8164 23.6133 16.6016 22.6953 16.1133L14.4531 11.7578C13.8477 11.4258 13.0859 11.6602 12.7539 12.2852C12.4023 12.9297 12.6367 13.6719 13.2617 14.0234L21.7773 18.5547C22.0312 18.6914 22.207 18.9844 22.207 19.2578L22.207 25.5273L19.6875 32.4414L17.168 39.4141C16.9141 40.0586 17.2656 40.8203 17.9297 41.0547C18.5547 41.2695 19.2773 41.0352 19.5703 40.2734L22.0703 33.3789ZM25.4102 15.3125C27.0312 15.3125 28.3789 13.9648 28.3789 12.3047C28.3789 10.6641 27.0312 9.33594 25.4102 9.33594C23.7695 9.33594 22.4219 10.6641 22.4219 12.3047C22.4219 13.9648 23.7695 15.3125 25.4102 15.3125Z" fill="black" fill-opacity="0.85"/>
 </g>
</svg>
