<?xml version="1.0" encoding="UTF-8"?>
<!--Generator: Apple Native CoreSVG 326-->
<!DOCTYPE svg
PUBLIC "-//W3C//DTD SVG 1.1//EN"
       "http://www.w3.org/Graphics/SVG/1.1/DTD/svg11.dtd">
<svg version="1.1" xmlns="http://www.w3.org/2000/svg" xmlns:xlink="http://www.w3.org/1999/xlink" viewBox="0 0 52.3438 69.4336">
 <g>
  <rect height="69.4336" opacity="0" width="52.3438" x="0" y="0"/>
  <path d="M46.6016 23.3789C49.5703 23.3789 51.9727 20.9766 51.9727 17.9883C51.9727 15.0195 49.5703 12.6172 46.6016 12.6172C43.5938 12.6172 41.2109 15.0195 41.2109 17.9883C41.2109 20.9766 43.5938 23.3789 46.6016 23.3789ZM2.55859 30.2734L14.8828 30.2734L22.5391 37.207C22.8125 37.4805 22.6562 37.8906 22.2656 37.8906L13.5352 37.8906C12.793 37.8906 12.0508 38.0664 11.5234 38.5938L2.34375 47.8125C1.34766 48.8281 1.32812 50.3711 2.34375 51.4062C3.33984 52.4023 4.94141 52.3828 5.9375 51.4062L14.1992 43.1445L24.2773 44.8047C27.5 45.332 30.7812 44.3359 33.125 41.9727L38.8086 36.2695C39.2773 35.8008 39.9414 36.0938 39.9414 36.7383L39.9414 40.6445L33.0859 47.5C32.1094 48.4961 32.1289 50.0977 33.0859 51.0938C33.5742 51.582 34.2383 51.8359 34.9219 51.8359C35.5664 51.8359 36.2109 51.582 36.6992 51.0938L44.3164 43.4961C44.7852 43.0273 45.0586 42.3438 45.0586 41.6797L45.0586 30.3711C45.0586 28.7305 44.5312 27.4023 43.5742 26.4453L28.3008 11.2305L28.3008 18.4375L35 25.1172C35.4688 25.5859 35.4297 26.0938 35 26.5234L28.2617 33.2812L17.3242 25.6055C16.8555 25.2734 16.4844 25.1758 15.7812 25.1758L2.55859 25.1758C1.13281 25.1758 0 26.3086 0 27.7148C0 29.1016 1.13281 30.2734 2.55859 30.2734ZM29.8047 55.6055C33.3789 55.6055 36.0938 52.8711 36.1133 49.3359L33.6328 49.3359C33.6133 51.5039 31.9727 53.125 29.8047 53.125C27.6562 53.125 25.9766 51.7773 25.9766 49.2969L25.9766 1.25C25.9766 0.566406 25.4102 0 24.7461 0C24.0625 0 23.4961 0.566406 23.4961 1.25L23.4961 49.2969C23.4961 53.2031 26.2109 55.6055 29.8047 55.6055ZM34.8828 69.3945C35.5664 69.3945 36.1133 68.8477 36.1133 68.1641L36.1133 37.9297L33.6523 37.9297L33.6523 68.1641C33.6523 68.8477 34.1992 69.3945 34.8828 69.3945Z" fill="black" fill-opacity="0.85"/>
 </g>
</svg>
