<?xml version="1.0" encoding="UTF-8"?>
<!--Generator: Apple Native CoreSVG 326-->
<!DOCTYPE svg
PUBLIC "-//W3C//DTD SVG 1.1//EN"
       "http://www.w3.org/Graphics/SVG/1.1/DTD/svg11.dtd">
<svg version="1.1" xmlns="http://www.w3.org/2000/svg" xmlns:xlink="http://www.w3.org/1999/xlink" viewBox="0 0 51.25 50.918">
 <g>
  <rect height="50.918" opacity="0" width="51.25" x="0" y="0"/>
  <path d="M25.4297 50.8789C39.4727 50.8789 50.8789 39.4922 50.8789 25.4492C50.8789 11.4062 39.4727 0 25.4297 0C11.3867 0 0 11.4062 0 25.4492C0 39.4922 11.3867 50.8789 25.4297 50.8789ZM25.4297 47.2461C13.3789 47.2461 3.63281 37.5 3.63281 25.4492C3.63281 13.3984 13.3789 3.65234 25.4297 3.65234C37.4805 3.65234 47.2266 13.3984 47.2266 25.4492C47.2266 37.5 37.4805 47.2461 25.4297 47.2461Z" fill="black" fill-opacity="0.85"/>
  <path d="M12.3242 23.3984C13.9844 23.3984 15.3516 22.0508 15.3516 20.3711C15.3516 18.7109 13.9844 17.3633 12.3242 17.3633C10.6641 17.3633 9.27734 18.7109 9.27734 20.3711C9.27734 22.0508 10.6641 23.3984 12.3242 23.3984ZM21.4453 31.8164L25.4102 31.8164C28.7109 31.8164 29.6289 29.9414 29.3555 27.7734L28.457 20.4883L33.8672 20.4883C34.6484 20.4883 35.2734 19.8438 35.2734 19.043C35.2734 18.2422 34.6484 17.6172 33.8672 17.6172L26.6797 17.6172C25.8594 17.6172 25.2539 18.2031 25.2539 19.1797L25.2539 26.5234L22.8711 26.5234C21.582 26.5234 20.5078 26.0938 19.9219 25.1172C19.7852 24.8828 19.7852 24.5508 20.0391 24.2383L23.6133 20C24.4336 19.0039 23.7695 17.6172 22.5781 17.6172L17.5391 17.6172C16.7578 17.6172 16.1133 18.2422 16.1133 19.043C16.1133 19.8438 16.7383 20.4883 17.5391 20.4883L19.5898 20.4883L17.5 22.9688C16.0352 24.7266 14.6484 25.918 12.4609 26.9141L10.293 27.9102L10.9766 25.4688C11.1914 24.707 10.6641 23.9258 9.94141 23.7305C9.16016 23.5547 8.37891 24.0234 8.18359 24.7656L6.83594 30.0391C6.46484 31.4648 7.73438 32.1875 8.96484 31.6406L13.457 29.6484C13.9062 29.4531 14.1602 29.4922 14.5117 29.7461C15.957 30.9961 18.2812 31.8164 21.4453 31.8164ZM43.9648 25.7031L36.6602 25.7031C36.5625 25.7031 36.4062 25.7422 36.25 25.7422L30.332 26.2305L30.5273 27.6367C30.625 28.3984 30.5859 29.1797 30.3906 29.8828L36.7773 28.5742L43.9648 28.5742C44.7461 28.5742 45.4102 27.9492 45.4102 27.1484C45.4102 26.3477 44.7461 25.7031 43.9648 25.7031Z" fill="black" fill-opacity="0.85"/>
 </g>
</svg>
