<?xml version="1.0" encoding="UTF-8"?>
<!--Generator: Apple Native CoreSVG 326-->
<!DOCTYPE svg
PUBLIC "-//W3C//DTD SVG 1.1//EN"
       "http://www.w3.org/Graphics/SVG/1.1/DTD/svg11.dtd">
<svg version="1.1" xmlns="http://www.w3.org/2000/svg" xmlns:xlink="http://www.w3.org/1999/xlink" viewBox="0 0 51.25 50.918">
 <g>
  <rect height="50.918" opacity="0" width="51.25" x="0" y="0"/>
  <path d="M25.4297 50.8789C39.4727 50.8789 50.8789 39.4922 50.8789 25.4492C50.8789 11.4062 39.4727 0 25.4297 0C11.3867 0 0 11.4062 0 25.4492C0 39.4922 11.3867 50.8789 25.4297 50.8789ZM25.4297 47.2461C13.3789 47.2461 3.63281 37.5 3.63281 25.4492C3.63281 13.3984 13.3789 3.65234 25.4297 3.65234C37.4805 3.65234 47.2266 13.3984 47.2266 25.4492C47.2266 37.5 37.4805 47.2461 25.4297 47.2461Z" fill="black" fill-opacity="0.85"/>
  <path d="M23.0078 20.6445C24.668 20.6445 26.0156 19.2969 26.0156 17.5977C26.0156 15.9375 24.668 14.5898 23.0078 14.5898C21.3086 14.5898 19.9609 15.9375 19.9609 17.5977C19.9609 19.2969 21.3086 20.6445 23.0078 20.6445ZM16.2891 41.8164L23.0469 41.8164C23.9258 41.8164 24.3359 41.3867 24.4727 40.6445L25.6836 33.9258L31.3477 33.9258L30.2344 40.1172C30.0781 41.1133 30.7227 41.7578 31.4648 41.8164C32.1484 41.875 32.9102 41.5625 33.0664 40.6445L34.4727 32.8906C34.668 31.8164 34.043 31.1523 33.2422 31.0547L28.2031 30.5078L28.6328 25.7227C28.6719 25.4883 28.8477 25.332 29.0625 25.332L33.0859 25.332C33.8672 25.332 34.5117 24.668 34.5117 23.8867L34.5117 16.0156C34.5117 15.4102 34.1602 14.9023 33.6133 14.6875C33.0859 14.4727 32.5 14.5703 32.0703 14.9805L24.1992 22.8516C23.4961 23.5742 23.0664 24.4336 22.9688 25.4883L21.7383 38.9453L16.2891 38.9453C15.4688 38.9453 14.8633 39.5703 14.8633 40.3711C14.8633 41.1719 15.4688 41.8164 16.2891 41.8164ZM31.6602 19.4531L31.6602 22.4609L28.6719 22.4609ZM28.8477 15.2734L32.0117 18.0859L32.7148 17.3047L29.5703 14.4727ZM20.8008 9.39453L28.1641 16.0547C28.6328 16.4648 29.1602 16.4062 29.5898 15.957L30.3711 15.1562C30.8203 14.7266 30.7422 14.1211 30.3125 13.75L22.8906 7.03125C22.4414 6.66016 21.8359 6.67969 21.4453 7.12891L20.7031 7.98828C20.3125 8.4375 20.332 8.98438 20.8008 9.39453Z" fill="black" fill-opacity="0.85"/>
 </g>
</svg>
