<?xml version="1.0" encoding="UTF-8"?>
<!--Generator: Apple Native CoreSVG 326-->
<!DOCTYPE svg
PUBLIC "-//W3C//DTD SVG 1.1//EN"
       "http://www.w3.org/Graphics/SVG/1.1/DTD/svg11.dtd">
<svg version="1.1" xmlns="http://www.w3.org/2000/svg" xmlns:xlink="http://www.w3.org/1999/xlink" viewBox="0 0 49.4776 62.0117">
 <g>
  <rect height="62.0117" opacity="0" width="49.4776" x="0" y="0"/>
  <path d="M29.1236 10.8398C32.0923 10.8398 34.5337 8.41797 34.5337 5.39062C34.5337 2.42188 32.0923 0.0195312 29.1236 0.0195312C26.1353 0.0195312 23.7134 2.42188 23.7134 5.39062C23.7134 8.41797 26.1353 10.8398 29.1236 10.8398ZM5.04152 40.6445L21.3501 40.6445C23.6157 40.6445 24.6118 38.125 23.3423 36.5625L18.2251 30.293L32.8345 29.3359L46.565 29.3359C47.9517 29.3359 49.104 28.2227 49.104 26.8164C49.104 25.4492 47.9517 24.3164 46.565 24.3164L21.1743 24.3164L27.19 18.2812C27.4439 18.0273 27.7954 17.8711 28.1665 17.9102L46.1353 20.2344C47.6196 20.4297 48.9478 19.2969 48.9478 17.7539C48.9478 16.5234 48.0298 15.4492 46.7603 15.2734L9.12355 10.5273C8.32277 10.4297 7.60012 10.7031 7.05324 11.2305L0.725116 17.5195C-0.251446 18.4961-0.231915 20.0195 0.725116 21.0352C1.62355 21.9727 3.28371 22.0703 4.29933 21.0352L9.70949 15.625L15.5884 16.3672C16.1353 16.4258 16.3501 17.0117 15.9595 17.4219L10.4126 22.8906C8.24465 25.0391 8.14699 28.457 10.4126 30.7422L15.2759 35.6445L5.04152 35.6445C3.6548 35.6445 2.52199 36.7578 2.52199 38.1445C2.52199 39.4922 3.6548 40.6445 5.04152 40.6445ZM29.5337 62.0117C30.2173 62.0117 30.7642 61.4648 30.7642 60.7812L30.7642 35C30.7642 34.2969 30.2173 33.75 29.5337 33.75C28.8306 33.75 28.3032 34.2969 28.3032 35L28.3032 60.7812C28.3032 61.4648 28.8306 62.0117 29.5337 62.0117Z" fill="black" fill-opacity="0.85"/>
 </g>
</svg>
