<?xml version="1.0" encoding="UTF-8"?>
<!--Generator: Apple Native CoreSVG 326-->
<!DOCTYPE svg
PUBLIC "-//W3C//DTD SVG 1.1//EN"
       "http://www.w3.org/Graphics/SVG/1.1/DTD/svg11.dtd">
<svg version="1.1" xmlns="http://www.w3.org/2000/svg" xmlns:xlink="http://www.w3.org/1999/xlink" viewBox="0 0 51.25 50.918">
 <g>
  <rect height="50.918" opacity="0" width="51.25" x="0" y="0"/>
  <path d="M50.8789 25.4492C50.8789 39.4531 39.4531 50.8789 25.4297 50.8789C11.4258 50.8789 0 39.4531 0 25.4492C0 11.4258 11.4258 0 25.4297 0C39.4531 0 50.8789 11.4258 50.8789 25.4492ZM34.5703 9.25781C33.8281 9.25781 33.2422 9.86328 33.2422 10.625L33.2422 15.2148C33.2422 15.7031 33.5547 16.1523 34.0039 16.3867L35.4492 17.1094L35.4492 18.6133C35.332 18.6523 35.2344 18.7305 35.1562 18.8086L31.7383 22.207L28.2617 18.7305C27.5781 18.0273 26.4844 17.5977 25.4102 17.5977L16.0547 17.5977C15.3906 17.5977 14.8828 17.9883 14.668 18.6328L12.4219 25.332C12.0703 26.3672 12.6758 27.0898 13.3789 27.2656C14.082 27.4414 14.8438 27.168 15.1562 26.2305L17.0898 20.5078L20.1953 20.5078C20.4688 20.5078 20.6836 20.7617 20.5859 21.0547L18.6719 26.7578C18.0469 28.6133 18.6133 30.3711 20.7031 31.3086L26.7773 33.9648L28.7891 40.8984C29.0625 41.8164 29.8633 42.0898 30.5664 41.8945C31.2695 41.7188 31.875 41.0742 31.6016 40.0977L29.375 32.4805C29.2578 32.0703 29.0625 31.7773 28.5938 31.5625L23.8477 29.4727L26.3672 21.8555C26.4648 21.5625 26.8359 21.4258 27.0898 21.6797L30.6836 25.332C31.25 25.918 32.2266 25.918 32.793 25.332L37.2852 20.8398C37.9883 20.1367 37.7734 19.1211 37.0508 18.5938L37.0508 17.1094L38.457 16.3867C38.9062 16.1523 39.1992 15.7031 39.1992 15.2148L39.1992 10.625C39.1992 9.86328 38.6523 9.25781 37.9102 9.25781ZM18.457 36.0742L13.0078 39.1016C12.0898 39.6289 12.0898 40.5078 12.4805 41.1523C12.8711 41.7383 13.5938 42.1484 14.4531 41.6602L20.5273 38.2812C20.918 38.0469 21.0547 37.793 21.2109 37.3438L22.5 33.4766L20.1953 32.4414C19.7461 32.2461 19.3945 32.0508 19.1797 31.8945ZM22.3047 12.9297C22.3047 14.6484 23.6719 16.0547 25.4102 16.0547C27.1484 16.0547 28.5156 14.6484 28.5156 12.9297C28.5156 11.2109 27.1484 9.80469 25.4102 9.80469C23.6719 9.80469 22.3047 11.2109 22.3047 12.9297Z" fill="black" fill-opacity="0.85"/>
 </g>
</svg>
