<?xml version="1.0" encoding="UTF-8"?>
<!--Generator: Apple Native CoreSVG 326-->
<!DOCTYPE svg
PUBLIC "-//W3C//DTD SVG 1.1//EN"
       "http://www.w3.org/Graphics/SVG/1.1/DTD/svg11.dtd">
<svg version="1.1" xmlns="http://www.w3.org/2000/svg" xmlns:xlink="http://www.w3.org/1999/xlink" viewBox="0 0 51.25 50.918">
 <g>
  <rect height="50.918" opacity="0" width="51.25" x="0" y="0"/>
  <path d="M25.4297 50.8789C39.4727 50.8789 50.8789 39.4922 50.8789 25.4492C50.8789 11.4062 39.4727 0 25.4297 0C11.3867 0 0 11.4062 0 25.4492C0 39.4922 11.3867 50.8789 25.4297 50.8789ZM25.4297 47.2461C13.3789 47.2461 3.63281 37.5 3.63281 25.4492C3.63281 13.3984 13.3789 3.65234 25.4297 3.65234C37.4805 3.65234 47.2266 13.3984 47.2266 25.4492C47.2266 37.5 37.4805 47.2461 25.4297 47.2461Z" fill="black" fill-opacity="0.85"/>
  <path d="M17.3047 19.9414C18.9648 19.9414 20.3125 18.5938 20.3125 16.9141C20.3125 15.2539 18.9648 13.8867 17.3047 13.8867C15.6055 13.8867 14.2773 15.2539 14.2773 16.9141C14.2773 18.5938 15.6055 19.9414 17.3047 19.9414ZM24.9609 34.5312L29.2578 28.6133L31.9922 33.5938C32.8906 37.8711 32.9883 40.5469 32.9883 41.0352C32.9883 41.8945 33.6523 42.5391 34.4336 42.5391C35.2539 42.5391 35.8594 41.8945 35.8594 41.0742C35.8594 39.6289 35.7227 36.3086 34.7656 32.8125L34.707 32.5586C33.1836 26.8945 29.8633 16.1914 20.4492 9.92188C19.9805 9.62891 19.5508 9.47266 19.0625 9.47266L14.2383 9.47266C13.457 9.47266 12.8125 10.1172 12.8125 10.918C12.8125 11.7188 13.457 12.3633 14.2383 12.3633L18.9648 12.3633C20.4492 13.3789 21.7383 14.5117 22.9102 15.7031C23.0859 15.8594 23.1055 16.0938 23.0078 16.2891L18.1836 24.5117C17.5781 25.5273 18.3008 26.6602 19.4141 26.6602L25.9766 26.6602L22.5195 32.9883L22.3828 33.2617L18.4766 40.4297C18.1055 41.1133 18.3594 41.9922 19.043 42.3633C19.707 42.7148 20.5469 42.5781 20.9961 41.7773ZM21.9141 23.7891L22.9492 21.9727C23.125 21.6797 23.4766 21.7188 23.6133 21.9336L24.8438 23.7891Z" fill="black" fill-opacity="0.85"/>
 </g>
</svg>
