<?xml version="1.0" encoding="UTF-8"?>
<!--Generator: Apple Native CoreSVG 326-->
<!DOCTYPE svg
PUBLIC "-//W3C//DTD SVG 1.1//EN"
       "http://www.w3.org/Graphics/SVG/1.1/DTD/svg11.dtd">
<svg version="1.1" xmlns="http://www.w3.org/2000/svg" xmlns:xlink="http://www.w3.org/1999/xlink" viewBox="0 0 51.25 50.918">
 <g>
  <rect height="50.918" opacity="0" width="51.25" x="0" y="0"/>
  <path d="M25.4297 50.8789C39.4727 50.8789 50.8789 39.4922 50.8789 25.4492C50.8789 11.4062 39.4727 0 25.4297 0C11.3867 0 0 11.4062 0 25.4492C0 39.4922 11.3867 50.8789 25.4297 50.8789ZM25.4297 47.2461C13.3789 47.2461 3.63281 37.5 3.63281 25.4492C3.63281 13.3984 13.3789 3.65234 25.4297 3.65234C37.4805 3.65234 47.2266 13.3984 47.2266 25.4492C47.2266 37.5 37.4805 47.2461 25.4297 47.2461Z" fill="black" fill-opacity="0.85"/>
  <path d="M28.125 18.2031C29.7852 18.2031 31.1523 16.8555 31.1523 15.1562C31.1523 13.4961 29.7852 12.1289 28.125 12.1289C26.4453 12.1289 25.0781 13.4961 25.0781 15.1562C25.0781 16.8555 26.4453 18.2031 28.125 18.2031ZM30.2344 27.8125C31.0547 27.8125 31.6992 27.168 31.6992 26.3672C31.6992 25.5664 31.0547 24.9023 30.2344 24.9023L25.1367 24.9023L25.1367 19.668C25.1367 17.9297 23.6719 16.8164 22.0703 17.168L13.457 18.9258C10.3711 19.5703 9.51172 23.2617 11.7578 25.2344L17.1094 29.9609L17.1094 37.3242C17.1094 38.1055 17.7734 38.7695 18.5742 38.7695C19.3555 38.7695 20.0391 38.1055 20.0391 37.3242L20.0391 29.4141C20.0391 28.8672 19.9219 28.5938 19.5898 28.2422L15.4883 24.1016C15.2539 23.8672 15.3711 23.5352 15.6445 23.4961L21.4258 22.4219C21.9922 22.3242 22.2266 22.5 22.2266 23.0078L22.2266 26.3672C22.2266 27.168 22.8711 27.8125 23.6719 27.8125ZM38.1055 33.3398L40.1172 33.3398C40.8398 33.3398 41.3086 32.8711 41.3086 32.1875L41.3086 19.668C41.3086 19.0234 40.8398 18.5547 40.1953 18.5547L38.0469 18.5547C32.9883 18.5547 29.9609 19.9023 26.6992 23.7305L28.7695 23.7305C28.8477 23.7305 28.9258 23.7305 28.9648 23.7305C31.5039 21.1328 34.0625 20.1953 38.0469 20.1953L39.668 20.1953L39.668 31.6992L38.1055 31.6992C37.5586 31.6992 37.207 31.4453 37.0117 31.0156L35.7227 28.4961C35.5078 28.0664 35.0586 27.9688 34.7266 28.0664C34.3164 28.2227 33.9844 28.6719 34.2383 29.2383L35.5273 31.7773C36.0156 32.7344 36.9922 33.3398 38.1055 33.3398ZM21.1914 32.7344C22.7148 31.6797 23.8477 30.3516 24.9023 28.9648L23.6914 28.9648C23.4375 28.9648 23.1445 28.9062 22.8906 28.8281C22.3633 29.4922 21.8164 30.0391 21.1914 30.5859ZM11.2695 34.8047L13.6719 34.8047C14.4727 34.8047 15.2344 34.7656 15.957 34.6484L15.957 32.9883C15.2344 33.1055 14.4922 33.1641 13.6719 33.1641L11.2695 33.1641C10.8203 33.1641 10.4492 33.5547 10.4492 34.0039C10.4492 34.4336 10.8398 34.8047 11.2695 34.8047Z" fill="black" fill-opacity="0.85"/>
 </g>
</svg>
