<?xml version="1.0" encoding="UTF-8"?>
<!--Generator: Apple Native CoreSVG 326-->
<!DOCTYPE svg
PUBLIC "-//W3C//DTD SVG 1.1//EN"
       "http://www.w3.org/Graphics/SVG/1.1/DTD/svg11.dtd">
<svg version="1.1" xmlns="http://www.w3.org/2000/svg" xmlns:xlink="http://www.w3.org/1999/xlink" viewBox="0 0 35.4398 57.7148">
 <g>
  <rect height="57.7148" opacity="0" width="35.4398" x="0" y="0"/>
  <path d="M17.505 10.957C20.5519 10.957 22.9933 8.51562 22.9933 5.46875C22.9933 2.44141 20.5519 0 17.505 0C14.4777 0 12.0363 2.44141 12.0363 5.46875C12.0363 8.51562 14.4777 10.957 17.505 10.957ZM5.61051 30.5078L9.47769 30.5078C11.4894 30.5078 13.0324 29.0625 13.0324 27.207L13.0324 13.3984C13.0324 11.5234 11.4894 10.0977 9.47769 10.0977L6.80191 10.0977C4.02847 10.0977 2.32926 11.7969 2.32926 14.6094L2.32926 27.207C2.32926 29.1406 3.69644 30.5078 5.61051 30.5078ZM4.39957 55.8203L11.5285 47.3438C12.2316 46.4844 12.5246 46.0156 13.0519 44.9023L17.5246 35.1953C18.9113 32.207 19.1652 30.3906 19.38 27.3242L19.673 23.2422L23.5988 27.0312C24.4972 27.8711 25.1808 28.1445 26.7043 28.1445L32.466 28.1445C34.0285 28.1445 35.0636 27.2461 35.0636 25.8203C35.0636 24.4141 34.0089 23.5156 32.466 23.5156L26.2941 23.5156L18.6964 15.2148C17.5636 14.0039 16.0793 13.3008 14.341 13.3008C12.7785 13.3008 11.4894 13.7695 10.2394 14.6094L9.1066 29.4922C8.93082 31.7969 9.30191 33.125 10.4347 34.8242L8.14957 43.7109L0.786287 52.4219C-1.71371 55.3906 2.36832 58.2227 4.39957 55.8203ZM27.7003 52.7539L22.6027 42.4219C22.1925 41.582 21.6261 40.7031 21.1183 39.9805L19.1652 37.2461L16.6457 42.6758C17.2707 43.4961 17.5441 43.9453 17.7785 44.4141L23.0128 55.0391C24.6339 58.2812 29.4386 56.2695 27.7003 52.7539ZM32.505 16.5625C31.8605 16.5625 31.3332 17.0703 31.3332 17.7148L31.3332 21.1914L32.466 21.1914C32.798 21.1914 33.2082 21.25 33.6574 21.3086L33.6574 17.7148C33.6574 17.0703 33.1496 16.5625 32.505 16.5625ZM32.4855 56.6992C33.13 56.6992 33.6574 56.1719 33.6574 55.5273L33.6574 30.332C33.2082 30.4297 32.7785 30.4688 32.466 30.4688L31.3332 30.4688L31.3332 55.5273C31.3332 56.1719 31.841 56.6992 32.4855 56.6992Z" fill="black" fill-opacity="0.85"/>
 </g>
</svg>
