<?xml version="1.0" encoding="UTF-8"?>
<!--Generator: Apple Native CoreSVG 326-->
<!DOCTYPE svg
PUBLIC "-//W3C//DTD SVG 1.1//EN"
       "http://www.w3.org/Graphics/SVG/1.1/DTD/svg11.dtd">
<svg version="1.1" xmlns="http://www.w3.org/2000/svg" xmlns:xlink="http://www.w3.org/1999/xlink" viewBox="0 0 51.25 50.918">
 <g>
  <rect height="50.918" opacity="0" width="51.25" x="0" y="0"/>
  <path d="M25.4297 50.8789C39.4727 50.8789 50.8789 39.4922 50.8789 25.4492C50.8789 11.4062 39.4727 0 25.4297 0C11.3867 0 0 11.4062 0 25.4492C0 39.4922 11.3867 50.8789 25.4297 50.8789ZM25.4297 47.2461C13.3789 47.2461 3.63281 37.5 3.63281 25.4492C3.63281 13.3984 13.3789 3.65234 25.4297 3.65234C37.4805 3.65234 47.2266 13.3984 47.2266 25.4492C47.2266 37.5 37.4805 47.2461 25.4297 47.2461Z" fill="black" fill-opacity="0.85"/>
  <path d="M22.793 14.082C24.4531 14.082 25.8398 12.7344 25.8398 11.0742C25.8398 9.39453 24.4531 8.02734 22.793 8.02734C21.1133 8.02734 19.7656 9.39453 19.7656 11.0742C19.7656 12.7344 21.1133 14.082 22.793 14.082ZM30 36.2305C30.5859 35.957 30.9766 35.2539 30.625 34.3164L28.1641 28.1641C28.0859 27.9688 27.9492 27.832 27.6367 27.5977L23.1641 24.2773L23.5156 19.3359C23.5352 19.082 23.7305 18.9844 24.0039 19.082L26.8945 20.0781C27.1875 20.1562 27.5195 20.1758 27.832 20.1562L33.2227 19.5312C35.1367 19.3164 34.7852 16.5234 32.9102 16.7383L27.6562 17.3438L22.3242 15.5664C20.4102 14.9219 18.7305 16.0156 18.5742 17.9688L18.1445 22.8125C18.0273 24.2773 18.8086 25.7031 20.0586 26.4258L25.7422 29.7461L27.9883 35.332C28.3594 36.3086 29.3164 36.543 30 36.2305ZM16.9922 38.6719C17.5586 38.9844 18.3008 38.9062 18.8086 38.1641L22.4805 32.6758C22.5977 32.4805 22.6953 32.2266 22.7148 31.9336L22.8711 29.4336L19.6875 27.5586L19.8828 31.4844L16.4844 36.5625C15.8789 37.4609 16.3086 38.3594 16.9922 38.6719ZM27.793 40.6055L33.2617 38.7891C33.6328 38.6523 33.8477 38.3789 33.8477 37.9297L33.8477 20.6055C33.5938 20.6641 33.5156 20.6836 33.2617 20.7031L32.2852 20.8203L32.2852 37.4609L27.3242 39.1211C26.7578 39.2969 26.6406 39.8047 26.7773 40.1758C26.9141 40.4883 27.3047 40.7812 27.793 40.6055ZM16.5039 41.7188L22.3438 41.7188C22.7734 41.7188 23.1445 41.3477 23.1445 40.957C23.1445 40.5273 22.7734 40.1758 22.3438 40.1758L16.5039 40.1758C16.0547 40.1758 15.7422 40.5469 15.7422 40.957C15.7422 41.3477 16.0742 41.7188 16.5039 41.7188Z" fill="black" fill-opacity="0.85"/>
 </g>
</svg>
