<?xml version="1.0" encoding="UTF-8"?>
<!--Generator: Apple Native CoreSVG 326-->
<!DOCTYPE svg
PUBLIC "-//W3C//DTD SVG 1.1//EN"
       "http://www.w3.org/Graphics/SVG/1.1/DTD/svg11.dtd">
<svg version="1.1" xmlns="http://www.w3.org/2000/svg" xmlns:xlink="http://www.w3.org/1999/xlink" viewBox="0 0 51.25 50.918">
 <g>
  <rect height="50.918" opacity="0" width="51.25" x="0" y="0"/>
  <path d="M50.8789 25.4492C50.8789 39.4531 39.4531 50.8789 25.4297 50.8789C11.4258 50.8789 0 39.4531 0 25.4492C0 11.4258 11.4258 0 25.4297 0C39.4531 0 50.8789 11.4258 50.8789 25.4492ZM23.1641 6.79688C22.9492 6.79688 22.7148 6.91406 22.5781 7.07031L13.7305 19.2969C13.2812 19.9609 13.3789 20.9375 14.1992 21.2891L19.1602 23.418C19.375 23.5156 19.5312 23.5156 19.8438 23.5156L23.1445 23.5156C23.6914 23.5156 23.8477 23.8672 23.8477 24.2578L23.8477 28.0469L20.5469 34.3359C20.4297 34.5508 20.4102 34.7266 20.4102 35L20.4102 42.0508C20.4102 42.8125 21.0156 43.4375 21.8164 43.4375C22.5391 43.4375 23.1836 42.8125 23.1836 42.0508L23.1836 35.4102L26.4258 30.625C26.5234 30.4688 26.7969 30.5078 26.8164 30.7227L27.3242 35.0195C27.3633 35.2539 27.3828 35.3711 27.5 35.625L30.1172 42.5391C30.4492 43.418 31.25 43.5938 31.8945 43.3594C32.5586 43.125 33.0469 42.4609 32.7148 41.582L30.1172 34.707L30.1172 21.6211C30.1172 20.1562 29.4922 18.6523 28.0859 18.0664L27.207 17.6953C25.6445 17.0312 24.1406 17.2461 22.8125 18.1836L19.5312 20.5273L15.8398 18.9844L23.125 8.86719L25.4688 8.86719C26.0742 8.86719 26.543 8.39844 26.543 7.8125C26.543 7.22656 26.0742 6.79688 25.4688 6.79688ZM25.7617 13.3398C25.7617 15.0391 27.1094 16.3672 28.7891 16.3672C30.4102 16.3672 31.7578 15.0391 31.7578 13.3398C31.7578 11.6992 30.4102 10.3906 28.7891 10.3906C27.1094 10.3906 25.7617 11.6992 25.7617 13.3398Z" fill="black" fill-opacity="0.85"/>
 </g>
</svg>
