<?xml version="1.0" encoding="UTF-8"?>
<!--Generator: Apple Native CoreSVG 326-->
<!DOCTYPE svg
PUBLIC "-//W3C//DTD SVG 1.1//EN"
       "http://www.w3.org/Graphics/SVG/1.1/DTD/svg11.dtd">
<svg version="1.1" xmlns="http://www.w3.org/2000/svg" xmlns:xlink="http://www.w3.org/1999/xlink" viewBox="0 0 51.25 50.918">
 <g>
  <rect height="50.918" opacity="0" width="51.25" x="0" y="0"/>
  <path d="M50.8789 25.4492C50.8789 39.4531 39.4531 50.8789 25.4297 50.8789C11.4258 50.8789 0 39.4531 0 25.4492C0 11.4258 11.4258 0 25.4297 0C39.4531 0 50.8789 11.4258 50.8789 25.4492ZM13.4766 32.7734L13.75 33.2812C14.2773 34.2773 15.0391 34.8047 16.25 34.6094L16.3672 34.5703L16.7969 36.5039L13.75 38.4766C13.0859 38.9062 13.3008 39.9805 14.2188 39.9805L20.3906 39.9805C20.8594 39.9805 21.1914 39.5898 21.1914 39.1602C21.1914 38.7109 20.8594 38.3398 20.3906 38.3398C19.4531 38.3398 18.7891 37.9688 18.5352 36.8359L17.9688 34.2383L19.1602 33.9844C19.5312 33.9062 19.7656 33.5742 19.7656 33.1836C19.7656 32.832 19.4727 32.4805 19.1406 32.4219L14.3164 31.6211C13.4961 31.4844 13.2031 32.2266 13.4766 32.7734ZM32.4609 18.3203C32.4609 19.8633 33.3789 21.2305 34.7461 21.8359L31.5234 34.7461C30.9961 36.875 29.1211 38.3398 26.875 38.3398C26.4258 38.3398 26.0742 38.7305 26.0742 39.1602C26.0742 39.5703 26.4062 39.9805 26.875 39.9805L34.9219 39.9805C35.7422 39.9805 35.957 38.9062 35.3125 38.4766L32.4805 36.6211C32.7734 36.1719 32.9492 35.6836 33.0859 35.1172L36.3477 22.1875C38.4766 22.1289 40.1953 20.3906 40.1953 18.3203C40.1953 16.1914 38.418 14.4531 36.3281 14.4531C34.1992 14.4531 32.4609 16.1914 32.4609 18.3203ZM14.8828 20.0977L14.375 26.875C14.2188 28.8867 15.1953 30.3906 17.4805 30.7422L23.9844 31.6602L22.2266 38.0469C22.0117 38.8867 22.4805 39.6289 23.2812 39.8242C23.9648 40.0195 24.8242 39.668 25.0391 38.8086L27.168 30.9961C27.4414 30 27.0508 29.2969 26.0352 29.0234L19.7656 27.2461L20.2734 21.7383C20.293 21.5625 20.4883 21.4648 20.625 21.582L23.5156 23.6523C24.043 24.0234 24.6875 24.0234 25.1953 23.6523L30.2734 20.0391C30.918 19.5703 31.0742 18.6719 30.625 18.0273C30.1367 17.3633 29.2188 17.207 28.5938 17.6562L24.375 20.7031L20.8984 18.2227C20.1562 17.6758 19.2773 17.3047 18.2031 17.3047C16.3477 17.3047 15 18.457 14.8828 20.0977ZM38.5938 18.3203C38.5938 19.6484 37.6367 20.5859 36.3281 20.5859C34.9805 20.5859 34.0625 19.6484 34.0625 18.3203C34.0625 17.0117 34.9805 16.0547 36.3281 16.0547C37.6367 16.0547 38.5938 17.0117 38.5938 18.3203ZM15.2344 12.6172C15.2344 14.3555 16.6602 15.7422 18.3594 15.7422C20.0781 15.7422 21.4844 14.3555 21.4844 12.6172C21.4844 10.918 20.0781 9.51172 18.3594 9.51172C16.6602 9.51172 15.2344 10.918 15.2344 12.6172Z" fill="black" fill-opacity="0.85"/>
 </g>
</svg>
