<?xml version="1.0" encoding="UTF-8"?>
<!--Generator: Apple Native CoreSVG 326-->
<!DOCTYPE svg
PUBLIC "-//W3C//DTD SVG 1.1//EN"
       "http://www.w3.org/Graphics/SVG/1.1/DTD/svg11.dtd">
<svg version="1.1" xmlns="http://www.w3.org/2000/svg" xmlns:xlink="http://www.w3.org/1999/xlink" viewBox="0 0 51.25 50.918">
 <g>
  <rect height="50.918" opacity="0" width="51.25" x="0" y="0"/>
  <path d="M25.4297 50.8789C39.4727 50.8789 50.8789 39.4922 50.8789 25.4492C50.8789 11.4062 39.4727 0 25.4297 0C11.3867 0 0 11.4062 0 25.4492C0 39.4922 11.3867 50.8789 25.4297 50.8789ZM25.4297 47.2461C13.3789 47.2461 3.63281 37.5 3.63281 25.4492C3.63281 13.3984 13.3789 3.65234 25.4297 3.65234C37.4805 3.65234 47.2266 13.3984 47.2266 25.4492C47.2266 37.5 37.4805 47.2461 25.4297 47.2461Z" fill="black" fill-opacity="0.85"/>
  <path d="M25.4297 20.8203C26.6406 20.8203 27.5977 20.8789 28.1641 20.9961C28.8867 21.1133 29.2188 21.5234 29.2188 22.2656C29.2383 23.2031 29.2188 26.5234 28.9844 28.0273C28.7305 29.5312 27.0312 36.7773 26.9336 37.0508C26.6797 37.8516 27.1875 38.5547 27.9688 38.5547C28.5938 38.5547 29.0039 38.2227 29.1797 37.5C29.5703 36.0352 30.7812 30.9961 31.1719 29.8438C31.4844 28.9453 31.6797 28.6914 32.0898 28.6914C32.5 28.6914 32.7344 28.9453 33.0273 29.8438C33.418 30.9766 34.6875 36.0156 35.0195 37.5C35.1953 38.2422 35.5859 38.5547 36.2109 38.5547C36.9727 38.5547 37.4805 37.832 37.2656 37.0703C37.1875 36.7578 35.4688 29.5312 35.1953 28.0273C34.9805 26.5234 34.9805 23.2031 34.9805 22.207C34.9805 21.543 35.293 21.0547 35.8203 20.957C36.4258 20.7812 40.957 20.3516 41.6211 20.0977C42.1484 19.9219 42.4805 19.4922 42.4805 18.9453C42.4805 18.3008 41.9922 17.7734 41.4453 17.7734C41.2305 17.7734 41.0547 17.832 40.8398 17.8711C38.9258 18.2031 34.9609 18.4961 32.0898 18.6719C29.7461 18.7109 27.1289 18.7891 25.4883 18.7891C23.8086 18.7891 21.1133 18.7109 18.7109 18.6719C15.8789 18.5156 11.875 18.2617 9.94141 17.8711C9.76562 17.832 9.58984 17.7734 9.375 17.7734C8.80859 17.7734 8.33984 18.2812 8.33984 18.9453C8.33984 19.5312 8.69141 20.0195 9.21875 20.0977C9.88281 20.2734 14.3945 20.8203 14.9805 20.957C15.5078 21.0547 15.8398 21.543 15.8594 22.207C15.8594 23.2031 15.8594 26.5234 15.5859 28.0273C15.332 29.5312 13.6328 36.7773 13.5352 37.0508C13.3008 37.832 13.8086 38.5547 14.5898 38.5547C15.2148 38.5547 15.5859 38.2422 15.8203 37.5C16.1914 36.0352 17.4023 30.9961 17.832 29.8438C18.1055 28.9648 18.3008 28.6914 18.7109 28.6914C19.1602 28.6914 19.3945 28.9453 19.668 29.8242C20.0195 30.9766 21.3086 36.0156 21.6406 37.5C21.7969 38.2227 22.1875 38.5547 22.832 38.5547C23.6133 38.5547 24.1211 37.8516 23.8672 37.0703C23.7891 36.7578 22.0703 29.5312 21.8164 28.0273C21.6016 26.5234 21.6016 23.2031 21.6211 22.2656C21.6406 21.5234 21.9531 21.1133 22.6758 20.9961C23.3398 20.8594 24.4531 20.7812 25.4297 20.8203ZM18.7109 17.3828C20.1562 17.3828 21.3477 16.2305 21.3477 14.7461C21.3477 13.3203 20.1758 12.1484 18.7109 12.1484C17.2461 12.1484 16.0938 13.3203 16.0938 14.7461C16.0938 16.2305 17.2461 17.3828 18.7109 17.3828ZM32.0898 17.3828C33.5352 17.3828 34.7461 16.2109 34.7461 14.7461C34.7461 13.3203 33.5547 12.1484 32.0898 12.1484C30.6445 12.1484 29.4922 13.3203 29.4922 14.7461C29.4922 16.2305 30.6445 17.3828 32.0898 17.3828Z" fill="black" fill-opacity="0.85"/>
 </g>
</svg>
