<?xml version="1.0" encoding="UTF-8"?>
<!--Generator: Apple Native CoreSVG 326-->
<!DOCTYPE svg
PUBLIC "-//W3C//DTD SVG 1.1//EN"
       "http://www.w3.org/Graphics/SVG/1.1/DTD/svg11.dtd">
<svg version="1.1" xmlns="http://www.w3.org/2000/svg" xmlns:xlink="http://www.w3.org/1999/xlink" viewBox="0 0 52.9492 48.1445">
 <g>
  <rect height="48.1445" opacity="0" width="52.9492" x="0" y="0"/>
  <path d="M31.8555 3.24219L51.6016 37.7734C52.2461 38.8867 52.5781 40.0977 52.5781 41.2695C52.5781 44.8828 50.1172 47.7344 46.0352 47.7344L6.52344 47.7344C2.46094 47.7344 0 44.8828 0 41.2695C0 40.0977 0.3125 38.9062 0.976562 37.7734L20.7227 3.24219C21.9531 1.07422 24.1016 0 26.2891 0C28.457 0 30.625 1.07422 31.8555 3.24219ZM21.4648 20.0391L19.3359 22.0898C18.6523 22.7734 18.4375 23.3203 18.3594 24.2188L18.1445 27.5C18.0664 28.2812 18.5352 28.8281 19.2578 28.8672C20.0391 28.9453 20.4688 28.5156 20.5469 27.6172L20.8594 24.043L21.875 23.1445C22.2461 22.793 22.7539 23.0273 22.7344 23.418L22.5 26.4258C22.3828 27.9492 22.7539 28.6914 23.7891 30L26.5625 33.4961C26.875 33.8477 26.8945 33.9844 27.0117 34.1992L29.9023 40.0781C30.7422 41.7773 33.2617 40.7227 32.3438 38.8672L29.5117 33.1641C29.3359 32.7539 29.0234 32.2852 28.7695 31.9141L26.9727 29.3555L27.0703 28.9844C27.5977 27.5586 27.7344 26.6992 27.832 25.2734L28.1445 21.3086C28.2812 19.3945 27.1094 17.9688 25.2148 17.9688C23.7695 17.9688 22.793 18.7109 21.4648 20.0391ZM22.0117 33.8477L17.9102 38.6914C16.6016 40.2344 18.6914 41.7188 19.7852 40.4492L23.9453 35.5273C24.3164 35.0586 24.3945 34.9414 24.5312 34.4531L24.8633 33.3984L22.6758 30.6641ZM29.1992 24.3359L30.0781 25.2344C30.5078 25.6641 30.8984 25.8203 31.7188 25.8203L34.6875 25.8203C35.5078 25.8203 36.0352 25.3711 36.0352 24.5898C36.0352 23.8477 35.5078 23.3789 34.6875 23.3789L31.5039 23.3789L29.4141 21.0742ZM23.8281 13.8281C23.8281 15.3906 25.1367 16.6992 26.7578 16.6992C28.3398 16.6992 29.6484 15.3906 29.6484 13.8281C29.6484 12.207 28.3398 10.918 26.7578 10.918C25.1367 10.918 23.8281 12.207 23.8281 13.8281Z" fill="black" fill-opacity="0.85"/>
 </g>
</svg>
