<?xml version="1.0" encoding="UTF-8"?>
<!--Generator: Apple Native CoreSVG 326-->
<!DOCTYPE svg
PUBLIC "-//W3C//DTD SVG 1.1//EN"
       "http://www.w3.org/Graphics/SVG/1.1/DTD/svg11.dtd">
<svg version="1.1" xmlns="http://www.w3.org/2000/svg" xmlns:xlink="http://www.w3.org/1999/xlink" viewBox="0 0 61.2305 57.7148">
 <g>
  <rect height="57.7148" opacity="0" width="61.2305" x="0" y="0"/>
  <path d="M10.8594 9.66797L24.9805 9.66797C25.7617 9.66797 26.3477 9.02344 26.3477 8.24219C26.3477 7.44141 25.7617 6.81641 24.9805 6.81641L10.8594 6.81641C10.0781 6.81641 9.47266 7.44141 9.47266 8.24219C9.47266 9.02344 10.0781 9.66797 10.8594 9.66797ZM1.36719 22.207L18.7891 22.207C19.5703 22.207 20.1758 21.5625 20.1758 20.7812C20.1758 19.9805 19.5703 19.3555 18.7891 19.3555L1.36719 19.3555C0.585938 19.3555 0 20 0 20.7812C0 21.543 0.585938 22.207 1.36719 22.207ZM8.73047 34.7461L18.5547 34.7461C19.3359 34.7461 19.9219 34.1211 19.9219 33.3203C19.9219 32.5195 19.3164 31.8945 18.5547 31.8945L8.73047 31.8945C7.94922 31.8945 7.34375 32.5391 7.34375 33.3203C7.34375 34.1211 7.94922 34.7461 8.73047 34.7461ZM2.22656 47.168L15.5859 47.168C16.3672 47.168 16.9531 46.543 16.9531 45.7422C16.9531 44.9414 16.3477 44.3164 15.5859 44.3164L2.22656 44.3164C1.42578 44.3164 0.839844 44.9609 0.839844 45.7422C0.839844 46.543 1.42578 47.168 2.22656 47.168Z" fill="black" fill-opacity="0.85"/>
  <path d="M30.1367 55.7812L37.9492 46.4648C38.7305 45.5664 38.8281 45.3516 39.1211 44.3945L39.8047 42.3438L35.6445 37.1484L34.3164 43.2812L26.582 52.4414C24.1211 55.332 28.1055 58.1836 30.1367 55.7812ZM49.2383 55.0195C50.8203 58.2422 55.5859 56.2695 53.8477 52.7734L48.5352 41.9922C48.1445 41.1914 47.5781 40.332 47.0703 39.6289L43.6914 34.8242L43.9258 34.1016C44.8438 31.4258 45.1758 29.7852 45.3516 27.1289L45.8984 19.6094C46.1523 15.9961 44.0234 13.3203 40.3906 13.3203C37.6758 13.3203 35.8203 14.7266 33.2812 17.1875L29.2969 21.1133C28.0273 22.3828 27.5781 23.418 27.4414 25.0977L26.9922 31.2695C26.875 32.793 27.7148 33.8867 29.1406 33.9258C30.5859 34.0234 31.4453 33.1836 31.582 31.543L32.168 24.7852L34.082 23.0664C34.7852 22.4219 35.7617 22.832 35.6836 23.5742L35.2539 29.2969C35.0195 32.168 35.7031 33.5352 37.6953 36.0156L42.9688 42.6172C43.4961 43.3008 43.5547 43.5547 43.7695 43.9844ZM58.2617 23.5156L52.2461 23.5156L48.2227 19.0625L47.832 25.3125L49.5508 27.0312C50.3906 27.8906 51.1133 28.1445 52.6562 28.1445L58.2617 28.1445C59.8242 28.1445 60.8594 27.2461 60.8594 25.8203C60.8594 24.4141 59.8047 23.5156 58.2617 23.5156ZM43.2812 10.957C46.3281 10.957 48.75 8.51562 48.75 5.46875C48.75 2.44141 46.3281 0 43.2812 0C40.2539 0 37.793 2.44141 37.793 5.46875C37.793 8.51562 40.2539 10.957 43.2812 10.957Z" fill="black" fill-opacity="0.85"/>
 </g>
</svg>
