<?xml version="1.0" encoding="UTF-8"?>
<!--Generator: Apple Native CoreSVG 326-->
<!DOCTYPE svg
PUBLIC "-//W3C//DTD SVG 1.1//EN"
       "http://www.w3.org/Graphics/SVG/1.1/DTD/svg11.dtd">
<svg version="1.1" xmlns="http://www.w3.org/2000/svg" xmlns:xlink="http://www.w3.org/1999/xlink" viewBox="0 0 79.6463 71.2256">
 <g>
  <rect height="71.2256" opacity="0" width="79.6463" x="0" y="0"/>
  <path d="M13.5146 23.9234C9.80361 23.9234 6.81533 20.8374 6.81533 17.2437C6.81533 13.4937 9.80361 10.4468 13.5146 10.4468C17.2646 10.4468 20.2528 13.4937 20.2528 17.2437C20.2528 20.9741 17.2646 23.9234 13.5146 23.9234ZM53.495 59.3921C52.2255 60.7398 50.0185 60.6226 48.4364 59.0015L37.7528 47.9663C37.4013 47.5952 37.1474 47.4976 36.6005 47.7124L28.1239 50.9351C22.7919 52.9663 17.7919 51.0913 15.3896 46.6968L10.1356 37.1656C8.0458 33.3374 8.72939 29.4312 12.3427 27.5171C15.8388 25.5835 19.4716 27.0288 21.6005 30.9156L28.5536 43.6109L34.4716 41.4624C37.4013 40.3882 39.8427 40.7202 42.1864 43.1421L53.2802 54.6265C54.8231 56.2085 54.6669 58.2007 53.495 59.3921Z" fill="black" fill-opacity="0.85"/>
  <path d="M51.8153 18.0445L58.5731 26.7163C58.8856 27.0874 59.3349 27.1851 59.7646 26.9507C61.3466 26.1109 63.6708 25.5249 65.5067 25.5249C67.3817 25.5249 69.7255 26.1109 71.2685 26.9507C71.7177 27.1851 72.206 27.0874 72.4794 26.7163L79.2567 18.0445C79.8622 17.2437 79.745 16.4429 79.0224 15.8765C76.2099 13.7476 70.9364 12.1265 65.5067 12.1265C60.1552 12.1265 54.8622 13.7476 52.0692 15.8765C51.3075 16.4429 51.2294 17.2632 51.8153 18.0445ZM58.9247 31.8921C58.1825 30.896 57.87 29.9585 57.87 28.9234C57.87 26.6577 59.7646 25.9546 59.7646 24.607C59.7646 23.2398 57.87 22.5952 57.87 20.2515C57.87 19.2359 58.1825 18.2984 58.9442 17.3023C59.7646 16.3257 61.2294 17.3609 60.4481 18.4156C59.8817 19.1773 59.706 19.6265 59.706 20.2515C59.706 21.9507 61.6005 22.4585 61.6005 24.607C61.6005 26.7749 59.706 27.3023 59.706 28.9234C59.706 29.607 59.8817 30.0171 60.4286 30.7788C61.1903 31.814 59.745 32.8491 58.9247 31.8921ZM64.745 31.8921C64.0224 30.896 63.6903 29.9585 63.6903 28.9234C63.6903 26.6577 65.5653 25.9546 65.5653 24.607C65.5653 23.2398 63.6903 22.5952 63.6903 20.2515C63.6903 19.2359 64.0028 18.2984 64.745 17.3023C65.5653 16.3257 67.0497 17.3609 66.2685 18.4156C65.7021 19.1773 65.5458 19.6265 65.5458 20.2515C65.5458 21.9507 67.4208 22.4585 67.4208 24.607C67.4208 26.7749 65.5458 27.3023 65.5458 28.9234C65.5458 29.607 65.7021 30.0171 66.2489 30.7788C67.0106 31.814 65.5458 32.8491 64.745 31.8921ZM70.6044 31.8921C69.8427 30.896 69.5106 29.9585 69.5106 28.9234C69.5106 26.6577 71.4247 25.9546 71.4247 24.607C71.4247 23.2398 69.5106 22.5952 69.5106 20.2515C69.5106 19.2359 69.8231 18.2984 70.6239 17.3023C71.4247 16.3257 72.8896 17.3609 72.0888 18.4156C71.5419 19.1773 71.3661 19.6265 71.3661 20.2515C71.3661 21.9507 73.2606 22.4585 73.2606 24.607C73.2606 26.7749 71.3661 27.3023 71.3661 28.9234C71.3661 29.607 71.5419 30.0171 72.0888 30.7788C72.8505 31.814 71.4052 32.8491 70.6044 31.8921ZM47.1083 17.107C47.8896 17.146 48.495 16.5015 48.495 15.7007L48.5146 8.82571L52.1864 8.82571C53.6317 8.82571 54.1591 7.36086 53.2606 6.36477L48.2021 0.563989C47.538-0.178199 46.6591-0.19773 45.9755 0.563989L40.9755 6.3843C40.038 7.43899 40.6239 8.82571 42.0302 8.82571L45.7216 8.82571L45.7216 15.7007C45.7216 16.482 46.3271 17.107 47.1083 17.107ZM42.7333 19.9976C42.7333 19.2359 42.1083 18.6109 41.3466 18.6109L34.4716 18.6109L34.4716 14.9585C34.4716 13.5327 32.9677 12.9859 31.9716 13.8843L26.1903 18.9429C25.4677 19.5874 25.4286 20.4859 26.1903 21.1304L31.9716 26.1695C33.0067 27.0874 34.4716 26.482 34.4716 25.0952L34.4716 21.4429L41.3466 21.4429C42.1083 21.4429 42.7333 20.8179 42.7333 19.9976Z" fill="black" fill-opacity="0.85"/>
 </g>
</svg>
