<?xml version="1.0" encoding="UTF-8"?>
<!--Generator: Apple Native CoreSVG 326-->
<!DOCTYPE svg
PUBLIC "-//W3C//DTD SVG 1.1//EN"
       "http://www.w3.org/Graphics/SVG/1.1/DTD/svg11.dtd">
<svg version="1.1" xmlns="http://www.w3.org/2000/svg" xmlns:xlink="http://www.w3.org/1999/xlink" viewBox="0 0 47.9492 50.332">
 <g>
  <rect height="50.332" opacity="0" width="47.9492" x="0" y="0"/>
  <path d="M6.69922 13.4766C10.4297 13.4766 13.418 10.5273 13.418 6.79688C13.418 3.04688 10.4297 0 6.69922 0C2.98828 0 0 3.04688 0 6.79688C0 10.3906 2.98828 13.4766 6.69922 13.4766ZM46.6797 48.9453C47.8516 47.7539 48.0078 45.7617 46.4453 44.1797L35.3516 32.6953C33.0273 30.2734 30.5859 29.9414 27.6562 31.0156L21.7383 33.1641L14.7656 20.4688C12.6562 16.582 9.02344 15.1367 5.52734 17.0703C1.89453 18.9844 1.23047 22.8906 3.32031 26.7188L8.57422 36.25C10.9766 40.6445 15.957 42.5195 21.3086 40.4883L29.7656 37.2656C30.3125 37.0508 30.5664 37.1484 30.9375 37.5195L41.6016 48.5547C43.1836 50.1758 45.3906 50.293 46.6797 48.9453Z" fill="black" fill-opacity="0.85"/>
 </g>
</svg>
