<?xml version="1.0" encoding="UTF-8"?>
<!--Generator: Apple Native CoreSVG 326-->
<!DOCTYPE svg
PUBLIC "-//W3C//DTD SVG 1.1//EN"
       "http://www.w3.org/Graphics/SVG/1.1/DTD/svg11.dtd">
<svg version="1.1" xmlns="http://www.w3.org/2000/svg" xmlns:xlink="http://www.w3.org/1999/xlink" viewBox="0 0 47.9688 53.3936">
 <g>
  <rect height="53.3936" opacity="0" width="47.9688" x="0" y="0"/>
  <path d="M40.8984 15.0073C44.6094 15.0073 47.5977 11.9214 47.5977 8.32765C47.5977 4.57765 44.6094 1.53078 40.8984 1.53078C37.1484 1.53078 34.1797 4.57765 34.1797 8.32765C34.1797 12.0581 37.1484 15.0073 40.8984 15.0073ZM0.917969 50.4761C2.1875 51.8237 4.41406 51.7066 5.97656 50.0855L16.6602 39.0503C17.0117 38.6792 17.2852 38.5816 17.8125 38.7964L26.2891 42.0191C31.6406 44.0503 36.6211 42.1753 39.0234 37.7808L44.2773 28.2495C46.3672 24.4214 45.7031 20.5152 42.0703 18.6011C38.5742 16.6675 34.9414 18.1128 32.832 21.9995L25.8594 34.6948L19.9414 32.5464C17.0117 31.4722 14.5703 31.8042 12.2461 34.2261L1.13281 45.7105C-0.410156 47.2925-0.253906 49.2847 0.917969 50.4761Z" fill="black" fill-opacity="0.85"/>
  <path d="M0 8.46437C0 9.48 0.800781 10.2808 1.83594 10.2808L13.5742 10.2808L13.5742 15.0269C13.5742 16.8237 15.4297 17.6245 16.7969 16.4136L24.2578 9.90968C25.1953 9.08937 25.2344 7.9175 24.2578 7.05812L16.7969 0.573747C15.4883-0.578596 13.5742 0.0659348 13.5742 1.96047L13.5742 6.64797L1.83594 6.64797C0.800781 6.64797 0 7.44875 0 8.46437Z" fill="black" fill-opacity="0.85"/>
 </g>
</svg>
