<?xml version="1.0" encoding="UTF-8"?>
<!--Generator: Apple Native CoreSVG 326-->
<!DOCTYPE svg
PUBLIC "-//W3C//DTD SVG 1.1//EN"
       "http://www.w3.org/Graphics/SVG/1.1/DTD/svg11.dtd">
<svg version="1.1" xmlns="http://www.w3.org/2000/svg" xmlns:xlink="http://www.w3.org/1999/xlink" viewBox="0 0 52.3238 62.9883">
 <g>
  <rect height="62.9883" opacity="0" width="52.3238" x="0" y="0"/>
  <path d="M23.4178 17.168C26.3865 17.168 28.8084 14.7656 28.8084 11.7773C28.8084 8.82812 26.3865 6.40625 23.4178 6.40625C20.449 6.40625 18.0467 8.82812 18.0467 11.7773C18.0467 14.7656 20.449 17.168 23.4178 17.168ZM10.3904 54.8438L21.9724 54.8438C22.9295 54.8438 23.8865 54.3945 24.3748 53.4766L29.6482 43.7695C29.8435 43.3984 30.3318 43.418 30.4685 43.8086L33.2224 51.2109L23.242 57.8711C22.0701 58.6719 21.7576 60.2539 22.5193 61.4453C23.3006 62.6562 24.9021 62.9688 26.1131 62.168L37.4607 54.6094C38.6131 53.8477 39.1599 52.6367 38.8279 51.3086L31.8943 23.75C31.6599 22.832 31.8943 22.3438 32.5779 21.9922L50.5271 13.0273C51.8162 12.3633 52.3045 10.8008 51.699 9.53125C51.0349 8.22266 49.492 7.69531 48.2029 8.35938L10.9568 27.0117L4.90213 20.957C4.5701 20.6055 4.17948 20.3711 3.78885 20.1953L9.70682 9.80469L7.55838 8.55469L0.331819 21.1914C-0.254118 22.2461-0.0392745 23.3789 0.781038 24.1992L8.57401 31.9727C9.2576 32.6562 10.4881 33.0273 11.7967 32.3828L20.6053 27.9492C21.2303 27.6367 21.7771 27.9297 21.9139 28.457L24.5701 39.082L20.3318 49.6289L10.3904 49.6289C8.9451 49.6289 7.81229 50.7812 7.81229 52.2461C7.81229 53.6523 8.9451 54.8438 10.3904 54.8438ZM10.5662 10.5078C13.5154 10.5078 15.8201 8.18359 15.8201 5.25391C15.8201 2.30469 13.5154 0 10.5662 0C7.63651 0 5.31229 2.30469 5.31229 5.25391C5.31229 8.18359 7.63651 10.5078 10.5662 10.5078ZM10.5662 8.02734C8.98416 8.02734 7.79276 6.83594 7.79276 5.25391C7.79276 3.65234 8.98416 2.46094 10.5662 2.46094C12.1482 2.46094 13.3592 3.65234 13.3592 5.25391C13.3592 6.83594 12.1482 8.02734 10.5662 8.02734Z" fill="black" fill-opacity="0.85"/>
 </g>
</svg>
