<?xml version="1.0" encoding="UTF-8"?>
<!--Generator: Apple Native CoreSVG 326-->
<!DOCTYPE svg
PUBLIC "-//W3C//DTD SVG 1.1//EN"
       "http://www.w3.org/Graphics/SVG/1.1/DTD/svg11.dtd">
<svg version="1.1" xmlns="http://www.w3.org/2000/svg" xmlns:xlink="http://www.w3.org/1999/xlink" viewBox="0 0 59.5508 46.0352">
 <g>
  <rect height="46.0352" opacity="0" width="59.5508" x="0" y="0"/>
  <path d="M4.66797 46.0352L54.5117 46.0352C57.3828 46.0352 59.1797 44.2578 59.1797 41.4453L59.1797 4.66797C59.1797 1.875 57.3828 0.0976562 54.5117 0.0976562L4.66797 0.0976562C1.79688 0.0976562 0 1.875 0 4.66797L0 41.4453C0 44.2578 1.79688 46.0352 4.66797 46.0352ZM4.6875 42.5586C3.80859 42.5586 3.26172 42.0117 3.26172 41.1719L3.26172 37.9883C3.26172 37.2852 3.76953 36.7578 4.53125 36.7578L8.20312 36.7578C8.92578 36.7578 9.43359 37.2852 9.43359 37.9883L9.43359 41.3281C9.43359 42.0508 8.92578 42.5586 8.20312 42.5586ZM4.53125 34.1406C3.76953 34.1406 3.26172 33.5938 3.26172 32.9297L3.26172 29.6875C3.26172 28.9258 3.75 28.418 4.53125 28.418L8.20312 28.418C8.92578 28.418 9.43359 28.9258 9.43359 29.6875L9.43359 32.9297C9.43359 33.5938 8.92578 34.1406 8.20312 34.1406ZM4.53125 25.918C3.76953 25.918 3.26172 25.3711 3.26172 24.707L3.26172 21.4648C3.26172 20.7031 3.75 20.2148 4.53125 20.2148L8.20312 20.2148C8.92578 20.2148 9.43359 20.7031 9.43359 21.4648L9.43359 24.707C9.43359 25.3711 8.92578 25.918 8.20312 25.918ZM4.53125 17.7344C3.76953 17.7344 3.26172 17.168 3.26172 16.543L3.26172 13.2617C3.26172 12.5195 3.75 12.0117 4.53125 12.0117L8.20312 12.0117C8.92578 12.0117 9.43359 12.5195 9.43359 13.2617L9.43359 16.543C9.43359 17.168 8.92578 17.7344 8.20312 17.7344ZM4.53125 9.35547C3.76953 9.35547 3.26172 8.82812 3.26172 8.16406L3.26172 4.98047C3.26172 4.12109 3.80859 3.55469 4.6875 3.55469L8.20312 3.55469C8.92578 3.55469 9.43359 4.0625 9.43359 4.80469L9.43359 8.16406C9.43359 8.82812 8.92578 9.35547 8.20312 9.35547ZM13.6914 42.5586C12.9297 42.5586 12.5 42.1289 12.5 41.3672L12.5 26.0156C12.5 25.2734 12.9297 24.8242 13.6914 24.8242L45.4883 24.8242C46.2305 24.8242 46.6797 25.2734 46.6797 26.0156L46.6797 41.3672C46.6797 42.1289 46.2305 42.5586 45.4883 42.5586ZM13.6914 21.3477C12.9297 21.3477 12.5 20.918 12.5 20.1562L12.5 4.72656C12.5 3.96484 12.9297 3.55469 13.6914 3.55469L45.4883 3.55469C46.2305 3.55469 46.6797 3.96484 46.6797 4.72656L46.6797 20.1562C46.6797 20.918 46.2305 21.3477 45.4883 21.3477ZM50.9766 42.5586C50.2539 42.5586 49.7461 42.0508 49.7461 41.3281L49.7461 37.9883C49.7461 37.2852 50.2539 36.7578 50.9766 36.7578L54.6484 36.7578C55.4102 36.7578 55.918 37.2852 55.918 37.9883L55.918 41.1719C55.918 42.0117 55.3711 42.5586 54.4922 42.5586ZM50.9766 34.1406C50.2539 34.1406 49.7461 33.5938 49.7461 32.9297L49.7461 29.6875C49.7461 28.9258 50.2539 28.418 50.9766 28.418L54.6484 28.418C55.4297 28.418 55.918 28.9258 55.918 29.6875L55.918 32.9297C55.918 33.5938 55.4102 34.1406 54.6484 34.1406ZM50.9766 25.918C50.2539 25.918 49.7461 25.3711 49.7461 24.707L49.7461 21.4648C49.7461 20.7031 50.2539 20.2148 50.9766 20.2148L54.6484 20.2148C55.4297 20.2148 55.918 20.7031 55.918 21.4648L55.918 24.707C55.918 25.3711 55.4102 25.918 54.6484 25.918ZM50.9766 17.7344C50.2539 17.7344 49.7461 17.168 49.7461 16.543L49.7461 13.2617C49.7461 12.5195 50.2539 12.0117 50.9766 12.0117L54.6484 12.0117C55.4297 12.0117 55.918 12.5195 55.918 13.2617L55.918 16.543C55.918 17.168 55.4102 17.7344 54.6484 17.7344ZM50.9766 9.35547C50.2539 9.35547 49.7461 8.82812 49.7461 8.16406L49.7461 4.80469C49.7461 4.0625 50.2539 3.55469 50.9766 3.55469L54.4922 3.55469C55.3711 3.55469 55.918 4.12109 55.918 4.98047L55.918 8.16406C55.918 8.82812 55.4102 9.35547 54.6484 9.35547Z" fill="black" fill-opacity="0.85"/>
 </g>
</svg>
