<?xml version="1.0" encoding="UTF-8"?>
<!--Generator: Apple Native CoreSVG 326-->
<!DOCTYPE svg
PUBLIC "-//W3C//DTD SVG 1.1//EN"
       "http://www.w3.org/Graphics/SVG/1.1/DTD/svg11.dtd">
<svg version="1.1" xmlns="http://www.w3.org/2000/svg" xmlns:xlink="http://www.w3.org/1999/xlink" viewBox="0 0 51.25 50.918">
 <g>
  <rect height="50.918" opacity="0" width="51.25" x="0" y="0"/>
  <path d="M50.8789 25.4688C50.8789 39.4922 39.4531 50.918 25.4297 50.918C11.4258 50.918 0 39.4922 0 25.4688C0 11.4648 11.4258 0.0390625 25.4297 0.0390625C39.4531 0.0390625 50.8789 11.4648 50.8789 25.4688ZM21.7773 13.5547C21.3086 13.8086 21.2695 14.2188 21.6406 14.707C22.7344 16.1523 23.1445 17.0312 23.3594 18.2227C21.3086 18.9648 19.3945 20.1562 17.6953 21.8945C15.5664 19.375 13.1641 17.9688 10.2734 17.9688C9.78516 17.9688 9.51172 18.1836 9.49219 18.6133C9.19922 21.1523 10.4102 23.8477 12.2656 25.4492C10.4102 27.0117 9.23828 29.7266 9.49219 32.2656C9.51172 32.7539 9.78516 32.9297 10.2734 32.9297C13.1641 32.8906 15.5664 31.5625 17.6953 29.0234C19.9609 31.3086 22.5977 32.6562 25.3516 33.2617L24.9219 36.6992C24.8438 37.5 25.2734 37.9102 26.1719 37.7734C29.1406 37.2852 32.3438 35.2734 34.1016 32.832C38.5352 31.5234 42.5977 28.7695 42.5977 25.4492C42.5977 22.3242 38.9648 19.6875 34.8633 18.2812C33.2422 13.2422 26.5625 10.9375 21.7773 13.5547ZM37.6758 24.9609C37.6758 25.7227 37.0898 26.2695 36.3477 26.2695C35.6055 26.2695 35.0195 25.7227 35.0195 24.9609C35.0195 24.2188 35.6055 23.6133 36.3477 23.6133C37.0898 23.6133 37.6758 24.2188 37.6758 24.9609Z" fill="black" fill-opacity="0.85"/>
 </g>
</svg>
