<?xml version="1.0" encoding="UTF-8"?>
<!--Generator: Apple Native CoreSVG 326-->
<!DOCTYPE svg
PUBLIC "-//W3C//DTD SVG 1.1//EN"
       "http://www.w3.org/Graphics/SVG/1.1/DTD/svg11.dtd">
<svg version="1.1" xmlns="http://www.w3.org/2000/svg" xmlns:xlink="http://www.w3.org/1999/xlink" viewBox="0 0 69.6771 54.0757">
 <g>
  <rect height="54.0757" opacity="0" width="69.6771" x="0" y="0"/>
  <path d="M28.862 14.0008L31.9284 13.2781C31.5183 10.6804 30.7956 8.55153 28.9011 5.73903C28.6862 5.44607 28.7253 5.1531 28.9792 5.05544C37.0651 1.94997 47.6315 5.79763 50.1315 14.1765L53.4518 13.9812C50.6784 2.71169 35.9323-2.54222 25.6589 3.12185C24.5456 3.72732 24.3503 4.91872 25.2487 6.0906C27.7487 9.39138 28.3737 11.1492 28.862 14.0008ZM40.5808 45.4851C52.0847 45.4851 69.3112 38.0633 69.3112 28.0633C69.3112 18.0828 52.0847 10.6609 40.5808 10.6609C32.3776 10.6609 24.155 13.4929 17.4753 20.075C13.1003 15.0359 8.06122 12.282 2.12372 12.1843C0.990907 12.1648 0.170595 12.8289 0.0729387 13.9617C-0.454405 19.1375 1.92841 24.7234 5.58075 28.0633C1.92841 31.4031-0.454405 37.0086 0.0729387 42.1843C0.170595 43.3367 0.990907 44.0008 2.12372 43.9812C8.06122 43.864 13.1003 41.1101 17.4753 36.0906C24.155 42.6531 32.3776 45.4851 40.5808 45.4851ZM40.5808 42.0086C32.4558 42.0086 24.819 39.1765 18.53 32.2039C17.8268 31.4031 16.8503 31.4422 16.1472 32.3015C12.3972 36.989 8.70575 39.6453 4.13544 40.3093C3.78388 40.3679 3.49091 40.075 3.5495 39.7039C3.82294 35.6023 6.16669 31.7351 9.25263 29.3914C10.3464 28.4734 10.3659 27.6726 9.23309 26.7351C6.16669 24.3914 3.82294 20.5437 3.5495 16.4422C3.49091 16.0711 3.78388 15.7781 4.13544 15.8367C8.70575 16.4812 12.3972 19.157 16.1276 23.864C16.8308 24.7234 17.8268 24.7429 18.5104 23.9422C24.8386 16.95 32.4558 14.1179 40.5808 14.1179C51.3034 14.1179 65.8933 20.9343 65.9128 28.0633C65.8933 35.2117 51.3034 42.0086 40.5808 42.0086ZM55.9323 29.489C57.2604 29.489 58.3933 28.3562 58.3933 27.0281C58.3933 25.6804 57.2604 24.5672 55.9323 24.5672C54.5847 24.5672 53.4714 25.6804 53.4714 27.0281C53.4714 28.3562 54.5847 29.489 55.9323 29.489ZM32.9831 42.8679L31.9284 51.3054C31.7136 53.1609 32.8854 54.3523 35.0339 54.0203C41.3229 53.0242 48.2565 48.532 51.9089 43.3172L47.4167 43.8445C44.2331 46.7547 40.5417 49.2937 36.2643 50.3679C35.8542 50.4656 35.5417 50.3679 35.6003 49.782L36.2643 43.4343Z" fill="black" fill-opacity="0.85"/>
 </g>
</svg>
