<?xml version="1.0" encoding="UTF-8"?>
<!--Generator: Apple Native CoreSVG 326-->
<!DOCTYPE svg
PUBLIC "-//W3C//DTD SVG 1.1//EN"
       "http://www.w3.org/Graphics/SVG/1.1/DTD/svg11.dtd">
<svg version="1.1" xmlns="http://www.w3.org/2000/svg" xmlns:xlink="http://www.w3.org/1999/xlink" viewBox="0 0 51.25 50.918">
 <g>
  <rect height="50.918" opacity="0" width="51.25" x="0" y="0"/>
  <path d="M25.4297 50.8789C39.4727 50.8789 50.8789 39.4922 50.8789 25.4492C50.8789 11.4062 39.4727 0 25.4297 0C11.3867 0 0 11.4062 0 25.4492C0 39.4922 11.3867 50.8789 25.4297 50.8789ZM25.4297 47.2461C13.3789 47.2461 3.63281 37.5 3.63281 25.4492C3.63281 13.3984 13.3789 3.65234 25.4297 3.65234C37.4805 3.65234 47.2266 13.3984 47.2266 25.4492C47.2266 37.5 37.4805 47.2461 25.4297 47.2461Z" fill="black" fill-opacity="0.85"/>
  <path d="M15.7617 38.9258C16.3867 38.9258 16.7969 38.457 16.7969 37.8906L16.7969 30.293C17.2852 30.0977 18.3203 29.7656 19.9414 29.7656C24.4727 29.7656 27.2656 32.0117 31.6992 32.0117C33.5352 32.0117 34.375 31.8164 35.332 31.3672C36.3477 30.8984 36.7969 30.2344 36.7969 29.2188L36.7969 16.7383C36.7969 16.0352 36.4453 15.5664 35.5078 15.5664C34.8047 15.5664 33.6719 16.1133 31.5625 16.1133C27.2266 16.1133 24.3945 13.8477 19.8047 13.8477C17.9102 13.8477 17.0703 14.082 16.1914 14.4727C15.1953 14.9023 14.707 15.6445 14.707 16.6211L14.707 37.8906C14.707 38.4375 15.1953 38.9258 15.7617 38.9258ZM16.4844 24.7461L16.4844 20.5078C16.6992 20.0781 17.832 19.5117 19.7852 19.5117C20.1953 19.5117 20.6836 19.5312 21.1133 19.5898L21.1133 15.6836C22.8125 15.8398 24.3164 16.3281 25.8398 16.8164L25.8398 20.6836C27.4023 21.1914 28.9062 21.582 30.5469 21.6992L30.5469 17.8125C30.8984 17.8516 31.25 17.8516 31.6211 17.8516C32.9102 17.8516 34.043 17.7148 35.0781 17.4219L35.0781 21.3086C34.4336 21.4648 33.1445 21.7578 31.6211 21.7578C31.2305 21.7578 30.8398 21.7188 30.5469 21.6992L30.5469 25.9766C30.8398 25.9961 31.1914 26.0156 31.6211 26.0156C32.9102 26.0156 34.043 25.8789 35.0781 25.5664L35.0781 29.2188C34.8633 29.6484 33.7305 30.2148 31.7578 30.2148C31.3281 30.2148 30.918 30.1953 30.5469 30.1367L30.5469 25.9766C28.8672 25.8008 27.5 25.4883 25.8398 24.9219L25.8398 29.0234C24.375 28.5742 22.8516 28.1445 21.1133 28.0078L21.1133 23.8477C20.7031 23.7891 20.3906 23.75 19.7852 23.75C17.8125 23.75 16.6992 24.3164 16.4844 24.7461ZM21.1133 23.8477C22.8516 24.0039 24.1602 24.4336 25.8398 24.9219L25.8398 20.6836C24.2578 20.1953 22.8516 19.7656 21.1133 19.5898Z" fill="black" fill-opacity="0.85"/>
 </g>
</svg>
