<?xml version="1.0" encoding="UTF-8"?>
<!--Generator: Apple Native CoreSVG 326-->
<!DOCTYPE svg
PUBLIC "-//W3C//DTD SVG 1.1//EN"
       "http://www.w3.org/Graphics/SVG/1.1/DTD/svg11.dtd">
<svg version="1.1" xmlns="http://www.w3.org/2000/svg" xmlns:xlink="http://www.w3.org/1999/xlink" viewBox="0 0 51.25 50.918">
 <g>
  <rect height="50.918" opacity="0" width="51.25" x="0" y="0"/>
  <path d="M50.8789 25.4492C50.8789 39.4922 39.4727 50.8789 25.4297 50.8789C11.3867 50.8789 0 39.4922 0 25.4492C0 11.4062 11.3867 0 25.4297 0C39.4727 0 50.8789 11.4062 50.8789 25.4492ZM3.63281 25.4492C3.63281 37.5 13.3789 47.2461 25.4297 47.2461C37.4805 47.2461 47.2266 37.5 47.2266 25.4492C47.2266 13.3984 37.4805 3.65234 25.4297 3.65234C13.3789 3.65234 3.63281 13.3984 3.63281 25.4492Z" fill="black" fill-opacity="0.85"/>
  <path d="M27.5659 31.394C25.1358 30.7311 22.9122 29.7656 19.9414 29.7656C18.3203 29.7656 17.2852 30.0977 16.7969 30.293L16.7969 37.8906C16.7969 38.457 16.3867 38.9258 15.7617 38.9258C15.1953 38.9258 14.707 38.4375 14.707 37.8906L14.707 18.5352ZM31.5625 16.1133C33.6719 16.1133 34.8047 15.5664 35.5078 15.5664C36.4453 15.5664 36.7969 16.0352 36.7969 16.7383L36.7969 29.2188C36.7969 30.2344 36.3477 30.8984 35.332 31.3672C35.3013 31.3816 35.2707 31.3958 35.2404 31.409L17.8231 13.9773C18.3413 13.8931 18.9708 13.8477 19.8047 13.8477C24.3945 13.8477 27.2266 16.1133 31.5625 16.1133Z" fill="black" fill-opacity="0.85"/>
  <path d="M36.5625 37.9883C36.9531 38.3984 37.6172 38.3984 38.0273 37.9883C38.4375 37.5781 38.4375 36.9531 38.0273 36.5234L14.375 12.8711C13.9648 12.4609 13.3008 12.4609 12.8906 12.8711C12.4805 13.2812 12.5 13.9453 12.8906 14.3359Z" fill="black" fill-opacity="0.85"/>
 </g>
</svg>
