<?xml version="1.0" encoding="UTF-8"?>
<!--Generator: Apple Native CoreSVG 326-->
<!DOCTYPE svg
PUBLIC "-//W3C//DTD SVG 1.1//EN"
       "http://www.w3.org/Graphics/SVG/1.1/DTD/svg11.dtd">
<svg version="1.1" xmlns="http://www.w3.org/2000/svg" xmlns:xlink="http://www.w3.org/1999/xlink" viewBox="0 0 51.25 50.918">
 <g>
  <rect height="50.918" opacity="0" width="51.25" x="0" y="0"/>
  <path d="M25.4297 50.8789C39.4727 50.8789 50.8789 39.4922 50.8789 25.4492C50.8789 11.4062 39.4727 0 25.4297 0C11.3867 0 0 11.4062 0 25.4492C0 39.4922 11.3867 50.8789 25.4297 50.8789ZM25.4297 47.2461C13.3789 47.2461 3.63281 37.5 3.63281 25.4492C3.63281 13.3984 13.3789 3.65234 25.4297 3.65234C37.4805 3.65234 47.2266 13.3984 47.2266 25.4492C47.2266 37.5 37.4805 47.2461 25.4297 47.2461Z" fill="black" fill-opacity="0.85"/>
  <path d="M15.7617 38.9258C16.3867 38.9258 16.7969 38.457 16.7969 37.8906L16.7969 30.293C17.2852 30.0977 18.3203 29.7656 19.9414 29.7656C24.4727 29.7656 27.2656 32.0117 31.6992 32.0117C33.5352 32.0117 34.375 31.8164 35.332 31.3672C36.3477 30.8984 36.7969 30.2344 36.7969 29.2188L36.7969 16.7383C36.7969 16.0352 36.4453 15.5664 35.5078 15.5664C34.8047 15.5664 33.6719 16.1133 31.5625 16.1133C27.2266 16.1133 24.3945 13.8477 19.8047 13.8477C17.9102 13.8477 17.0703 14.082 16.1914 14.4727C15.1953 14.9023 14.707 15.6445 14.707 16.6211L14.707 37.8906C14.707 38.4375 15.1953 38.9258 15.7617 38.9258Z" fill="black" fill-opacity="0.85"/>
 </g>
</svg>
