<?xml version="1.0" encoding="UTF-8"?>
<!--Generator: Apple Native CoreSVG 326-->
<!DOCTYPE svg
PUBLIC "-//W3C//DTD SVG 1.1//EN"
       "http://www.w3.org/Graphics/SVG/1.1/DTD/svg11.dtd">
<svg version="1.1" xmlns="http://www.w3.org/2000/svg" xmlns:xlink="http://www.w3.org/1999/xlink" viewBox="0 0 46.2891 45.918">
 <g>
  <rect height="45.918" opacity="0" width="46.2891" x="0" y="0"/>
  <path d="M45.918 7.53906L45.918 38.3984C45.918 43.3594 43.3594 45.918 38.3008 45.918L7.59766 45.918C2.55859 45.918 0 43.3984 0 38.3984L0 7.53906C0 2.53906 2.55859 0 7.59766 0L38.3008 0C43.3594 0 45.918 2.55859 45.918 7.53906ZM13.5156 11.6797C12.5 12.1289 11.9922 12.8906 11.9922 13.8867L11.9922 35.6836C11.9922 36.25 12.4805 36.7578 13.0859 36.7578C13.7109 36.7578 14.1406 36.2695 14.1406 35.6836L14.1406 27.8906C14.6484 27.6953 15.7031 27.3633 17.3633 27.3633C21.9727 27.3633 24.8438 29.6484 29.3945 29.6484C31.2891 29.6484 32.1484 29.4531 33.125 29.0039C34.1602 28.5156 34.6484 27.832 34.6484 26.7773L34.6484 14.0039C34.6484 13.2812 34.2578 12.793 33.3008 12.793C32.5781 12.793 31.4258 13.3594 29.2578 13.3594C24.8242 13.3594 21.9141 11.0352 17.2266 11.0352C15.2734 11.0352 14.4141 11.2695 13.5156 11.6797Z" fill="black" fill-opacity="0.85"/>
 </g>
</svg>
