<?xml version="1.0" encoding="UTF-8"?>
<!--Generator: Apple Native CoreSVG 326-->
<!DOCTYPE svg
PUBLIC "-//W3C//DTD SVG 1.1//EN"
       "http://www.w3.org/Graphics/SVG/1.1/DTD/svg11.dtd">
<svg version="1.1" xmlns="http://www.w3.org/2000/svg" xmlns:xlink="http://www.w3.org/1999/xlink" viewBox="0 0 51.25 50.918">
 <g>
  <rect height="50.918" opacity="0" width="51.25" x="0" y="0"/>
  <path d="M50.8789 25.4688C50.8789 39.4922 39.4531 50.918 25.4297 50.918C11.4258 50.918 0 39.4922 0 25.4688C0 11.4648 11.4258 0.0390625 25.4297 0.0390625C39.4531 0.0390625 50.8789 11.4648 50.8789 25.4688ZM14.4531 38.2031C14.4531 38.7695 14.9414 39.2773 15.5469 39.2773C16.1719 39.2773 16.6016 38.7891 16.6016 38.2031L16.6016 30.4297C17.1094 30.2148 18.1641 29.9023 19.8242 29.9023C22.841 29.9023 25.1111 30.8729 27.5821 31.547L14.4531 18.418ZM12.5586 12.5977C12.1484 13.0273 12.168 13.7109 12.5586 14.1016L36.8164 38.3398C37.207 38.75 37.9102 38.75 38.3203 38.3398C38.7305 37.8906 38.7305 37.2461 38.3203 36.8359L14.082 12.5977C13.6719 12.168 13.0078 12.168 12.5586 12.5977ZM17.6226 13.6987L35.4937 31.5842C35.5242 31.5712 35.555 31.5572 35.5859 31.543C36.6211 31.0352 37.1094 30.3711 37.1094 29.2969L37.1094 16.543C37.1094 15.8203 36.7188 15.3125 35.7812 15.3125C35.0391 15.3125 33.8867 15.8984 31.7188 15.8984C27.2852 15.8984 24.375 13.5547 19.6875 13.5547C18.8139 13.5547 18.1591 13.6055 17.6226 13.6987Z" fill="black" fill-opacity="0.85"/>
 </g>
</svg>
