<?xml version="1.0" encoding="UTF-8"?>
<!--Generator: Apple Native CoreSVG 326-->
<!DOCTYPE svg
PUBLIC "-//W3C//DTD SVG 1.1//EN"
       "http://www.w3.org/Graphics/SVG/1.1/DTD/svg11.dtd">
<svg version="1.1" xmlns="http://www.w3.org/2000/svg" xmlns:xlink="http://www.w3.org/1999/xlink" viewBox="0 0 51.25 50.918">
 <g>
  <rect height="50.918" opacity="0" width="51.25" x="0" y="0"/>
  <path d="M25.4297 50.8789C39.4727 50.8789 50.8789 39.4922 50.8789 25.4492C50.8789 11.4062 39.4727 0 25.4297 0C11.3867 0 0 11.4062 0 25.4492C0 39.4922 11.3867 50.8789 25.4297 50.8789ZM25.4297 47.2461C13.3789 47.2461 3.63281 37.5 3.63281 25.4492C3.63281 13.3984 13.3789 3.65234 25.4297 3.65234C37.4805 3.65234 47.2266 13.3984 47.2266 25.4492C47.2266 37.5 37.4805 47.2461 25.4297 47.2461Z" fill="black" fill-opacity="0.85"/>
  <path d="M31.2891 36.1523C31.7773 35.8984 31.9336 35.293 31.6602 34.8242L20.4492 15.4297C19.9805 14.6289 19.3164 14.4336 18.5547 14.4336C17.832 14.4336 16.9531 14.8633 16.1719 15.2734C13.5352 16.8555 12.5781 19.1211 10.0586 20.5469C8.96484 21.1914 8.00781 21.4258 7.53906 21.6992C6.93359 22.0312 6.62109 22.6953 6.99219 23.3594L11.2109 30.625C11.6016 31.3281 12.1484 31.6797 12.9883 31.6797C13.8672 31.6797 14.7656 31.2305 15.5078 30.8008C18.1836 29.2383 19.1602 26.9336 21.6406 25.5273C22.3828 25.0781 23.0664 24.8438 23.5742 24.668L29.9805 35.7812C30.2539 36.2695 30.8203 36.4258 31.2891 36.1523ZM37.832 31.6797C38.6523 31.6797 39.1992 31.3281 39.6094 30.6445L43.8086 23.3789C44.1992 22.6953 43.8867 22.0508 43.2812 21.7188C42.8125 21.4258 41.8555 21.1914 40.7617 20.5469C38.2422 19.1211 37.2852 16.8555 34.6289 15.293C33.8672 14.8633 32.9883 14.4336 32.2656 14.4336C31.5039 14.4336 30.8398 14.6289 30.3711 15.4492L26.3867 22.3438L27.8711 24.9023C30.918 25.957 32.7148 29.2969 35.3125 30.8008C36.0547 31.2305 36.9531 31.6797 37.832 31.6797ZM19.5312 36.1719C19.9805 36.4648 20.5469 36.2695 20.8398 35.7812L24.4531 29.5312L23.3398 27.6172L19.1602 34.8438C18.9062 35.293 19.043 35.918 19.5312 36.1719Z" fill="black" fill-opacity="0.85"/>
 </g>
</svg>
