<?xml version="1.0" encoding="UTF-8"?>
<!--Generator: Apple Native CoreSVG 326-->
<!DOCTYPE svg
PUBLIC "-//W3C//DTD SVG 1.1//EN"
       "http://www.w3.org/Graphics/SVG/1.1/DTD/svg11.dtd">
<svg version="1.1" xmlns="http://www.w3.org/2000/svg" xmlns:xlink="http://www.w3.org/1999/xlink" viewBox="0 0 51.25 50.918">
 <g>
  <rect height="50.918" opacity="0" width="51.25" x="0" y="0"/>
  <path d="M50.8789 25.4492C50.8789 39.4922 39.4727 50.8789 25.4297 50.8789C11.3867 50.8789 0 39.4922 0 25.4492C0 11.4062 11.3867 0 25.4297 0C39.4727 0 50.8789 11.4062 50.8789 25.4492ZM3.63281 25.4492C3.63281 37.5 13.3789 47.2461 25.4297 47.2461C37.4805 47.2461 47.2266 37.5 47.2266 25.4492C47.2266 13.3984 37.4805 3.65234 25.4297 3.65234C13.3789 3.65234 3.63281 13.3984 3.63281 25.4492Z" fill="black" fill-opacity="0.85"/>
  <path d="M29.3359 33.1641L29.3359 39.1211C29.3359 40.8594 28.3984 41.8164 26.7383 41.8164L24.1211 41.8164C22.4609 41.8164 21.5234 40.8594 21.5234 39.1211L21.5234 25.3516ZM32.207 15.1758C32.207 16.4258 31.7578 17.3828 31.0547 18.4375L30.2539 19.6875C29.6875 20.5273 29.3359 21.582 29.3359 23.1445L29.3359 25.4997L18.6719 14.8268L18.6719 13.75L32.207 13.75ZM32.207 11.7578L32.207 12.2656L18.6719 12.2656L18.6719 11.7578C18.6719 9.98047 19.5312 9.0625 21.2891 9.0625L29.5508 9.0625C31.3281 9.0625 32.207 9.98047 32.207 11.7578Z" fill="black" fill-opacity="0.85"/>
  <path d="M36.5625 37.9883C36.9531 38.3984 37.6172 38.3984 38.0273 37.9883C38.4375 37.5781 38.4375 36.9531 38.0273 36.5234L14.375 12.8711C13.9648 12.4609 13.3008 12.4609 12.8906 12.8711C12.4805 13.2812 12.5 13.9453 12.8906 14.3359Z" fill="black" fill-opacity="0.85"/>
 </g>
</svg>
