<?xml version="1.0" encoding="UTF-8"?>
<!--Generator: Apple Native CoreSVG 326-->
<!DOCTYPE svg
PUBLIC "-//W3C//DTD SVG 1.1//EN"
       "http://www.w3.org/Graphics/SVG/1.1/DTD/svg11.dtd">
<svg version="1.1" xmlns="http://www.w3.org/2000/svg" xmlns:xlink="http://www.w3.org/1999/xlink" viewBox="0 0 51.25 50.918">
 <g>
  <rect height="50.918" opacity="0" width="51.25" x="0" y="0"/>
  <path d="M25.4297 50.8789C39.4727 50.8789 50.8789 39.4922 50.8789 25.4492C50.8789 11.4062 39.4727 0 25.4297 0C11.3867 0 0 11.4062 0 25.4492C0 39.4922 11.3867 50.8789 25.4297 50.8789ZM25.4297 47.2461C13.3789 47.2461 3.63281 37.5 3.63281 25.4492C3.63281 13.3984 13.3789 3.65234 25.4297 3.65234C37.4805 3.65234 47.2266 13.3984 47.2266 25.4492C47.2266 37.5 37.4805 47.2461 25.4297 47.2461Z" fill="black" fill-opacity="0.85"/>
  <path d="M18.6719 12.2656L32.207 12.2656L32.207 11.7578C32.207 9.98047 31.3281 9.0625 29.5508 9.0625L21.2891 9.0625C19.5312 9.0625 18.6719 9.98047 18.6719 11.7578ZM24.1211 41.8164L26.7383 41.8164C28.3984 41.8164 29.3359 40.8594 29.3359 39.1211L29.3359 23.1445C29.3359 21.582 29.6875 20.5273 30.2539 19.6875L31.0547 18.4375C31.7578 17.3828 32.207 16.4258 32.207 15.1758L32.207 13.75L18.6719 13.75L18.6719 15.1758C18.6719 16.4258 19.1211 17.3633 19.8047 18.4375L20.6055 19.6875C21.1523 20.5469 21.5234 21.582 21.5234 23.1445L21.5234 39.1211C21.5234 40.8594 22.4609 41.8164 24.1211 41.8164ZM23.0273 28.4961L23.0273 24.3945C23.0273 23.0664 24.0625 21.9727 25.4297 21.9727C26.7773 21.9727 27.8516 23.0664 27.8516 24.3945L27.8516 28.4961C27.8516 29.8438 26.7773 30.918 25.4297 30.918C24.0625 30.918 23.0273 29.8438 23.0273 28.4961ZM25.4297 22.8516C24.5508 22.8516 23.8867 23.5352 23.8867 24.3945C23.8867 25.2539 24.5703 25.957 25.4297 25.957C26.3086 25.957 26.9727 25.2539 26.9727 24.3945C26.9727 23.5352 26.3477 22.8516 25.4297 22.8516Z" fill="black" fill-opacity="0.85"/>
 </g>
</svg>
