<?xml version="1.0" encoding="UTF-8"?>
<!--Generator: Apple Native CoreSVG 326-->
<!DOCTYPE svg
PUBLIC "-//W3C//DTD SVG 1.1//EN"
       "http://www.w3.org/Graphics/SVG/1.1/DTD/svg11.dtd">
<svg version="1.1" xmlns="http://www.w3.org/2000/svg" xmlns:xlink="http://www.w3.org/1999/xlink" viewBox="0 0 34.375 50.4102">
 <g>
  <rect height="50.4102" opacity="0" width="34.375" x="0" y="0"/>
  <path d="M17.0117 50.4102C27.6172 50.4102 34.0039 44.4141 34.0039 33.8086L34.0039 13.6719C34.0039 9.6875 31.5039 7.24609 27.3438 7.24609L3.45703 7.24609L3.45703 1.73828C3.45703 0.78125 2.67578 0 1.73828 0C0.78125 0 0 0.78125 0 1.73828L0 33.8086C0 44.4141 6.38672 50.4102 17.0117 50.4102ZM17.0117 47.0312C8.59375 47.0312 3.45703 42.3633 3.45703 34.082L3.45703 10.7031L26.9336 10.7031C29.2773 10.7031 30.5469 11.9141 30.5469 14.1992L30.5469 34.082C30.5469 42.3633 25.4102 47.0312 17.0117 47.0312ZM8.59375 30.2148L25.4102 30.2148C26.9141 30.2148 27.793 29.3555 27.793 27.8906L27.793 15.8008C27.793 14.3164 26.9141 13.457 25.4102 13.457L8.59375 13.457C7.08984 13.457 6.21094 14.3164 6.21094 15.8008L6.21094 27.8906C6.21094 29.3555 7.08984 30.2148 8.59375 30.2148ZM13.3594 42.7539L20.5664 42.7539C21.4258 42.7539 22.1289 42.0508 22.1289 41.1914C22.1289 40.332 21.4258 39.6289 20.5664 39.6289L13.3594 39.6289C12.4805 39.6289 11.7969 40.332 11.7969 41.1914C11.7969 42.0508 12.4805 42.7539 13.3594 42.7539Z" fill="black" fill-opacity="0.85"/>
 </g>
</svg>
