<?xml version="1.0" encoding="UTF-8"?>
<!--Generator: Apple Native CoreSVG 326-->
<!DOCTYPE svg
PUBLIC "-//W3C//DTD SVG 1.1//EN"
       "http://www.w3.org/Graphics/SVG/1.1/DTD/svg11.dtd">
<svg version="1.1" xmlns="http://www.w3.org/2000/svg" xmlns:xlink="http://www.w3.org/1999/xlink" viewBox="0 0 46.2891 45.918">
 <g>
  <rect height="45.918" opacity="0" width="46.2891" x="0" y="0"/>
  <path d="M45.918 7.53906L45.918 38.3984C45.918 43.3594 43.3594 45.918 38.3008 45.918L7.59766 45.918C2.55859 45.918 0 43.3984 0 38.3984L0 7.53906C0 2.53906 2.55859 0 7.59766 0L38.3008 0C43.3594 0 45.918 2.55859 45.918 7.53906ZM22.3828 17.3828L21.6992 21.4648L16.3477 21.4648C15.7812 21.4648 15.3711 21.875 15.3711 22.4023C15.3711 22.9492 15.7812 23.3398 16.3477 23.3398L21.4062 23.3398L20.5664 28.1641C20.1172 30.7031 19.0625 32.0898 16.4844 32.0898C15.4492 32.0898 15.0977 31.8945 14.2188 31.8945C13.6328 31.8945 13.2617 32.2852 13.2617 32.8125C13.2617 33.418 13.6328 33.7695 14.2383 34.0234C14.9805 34.3164 15.9375 34.375 16.7188 34.375C20.6445 34.375 22.5195 32.3242 23.1641 28.4766L24.043 23.3398L29.6875 23.3398C30.2539 23.3398 30.6836 22.9492 30.6836 22.4023C30.6836 21.875 30.2539 21.4648 29.6875 21.4648L24.3359 21.4648L25 17.5977C25.4297 15.1367 26.6602 13.8672 29.1406 13.8672C30.1172 13.8672 30.7422 14.082 31.3867 14.082C31.9922 14.043 32.3633 13.75 32.3633 13.1445C32.3633 12.5586 31.8945 12.1875 31.3477 11.9531C30.6055 11.6602 29.5703 11.5625 28.9258 11.5625C25.1172 11.5625 23.0273 13.5938 22.3828 17.3828Z" fill="black" fill-opacity="0.85"/>
 </g>
</svg>
