<?xml version="1.0" encoding="UTF-8"?>
<!--Generator: Apple Native CoreSVG 326-->
<!DOCTYPE svg
PUBLIC "-//W3C//DTD SVG 1.1//EN"
       "http://www.w3.org/Graphics/SVG/1.1/DTD/svg11.dtd">
<svg version="1.1" xmlns="http://www.w3.org/2000/svg" xmlns:xlink="http://www.w3.org/1999/xlink" viewBox="0 0 51.25 50.918">
 <g>
  <rect height="50.918" opacity="0" width="51.25" x="0" y="0"/>
  <path d="M50.8789 25.4492C50.8789 39.4531 39.4531 50.8789 25.4297 50.8789C11.4258 50.8789 0 39.4531 0 25.4492C0 11.4258 11.4258 0 25.4297 0C39.4531 0 50.8789 11.4258 50.8789 25.4492ZM24.8633 19.8828L24.1602 23.9648L18.8086 23.9648C18.2422 23.9648 17.832 24.375 17.832 24.9023C17.832 25.4492 18.2422 25.8398 18.8086 25.8398L23.8672 25.8398L23.0273 30.6641C22.5781 33.2031 21.5234 34.5898 18.9453 34.5898C17.9102 34.5898 17.5586 34.3945 16.6797 34.3945C16.0938 34.3945 15.7227 34.7852 15.7227 35.3125C15.7227 35.918 16.0938 36.2695 16.6992 36.5234C17.4414 36.8164 18.3984 36.875 19.1797 36.875C23.1055 36.875 24.9805 34.8242 25.625 30.9766L26.5039 25.8398L32.1484 25.8398C32.7148 25.8398 33.1445 25.4492 33.1445 24.9023C33.1445 24.375 32.7148 23.9648 32.1484 23.9648L26.7969 23.9648L27.4609 20.0977C27.8906 17.6367 29.1211 16.3672 31.6016 16.3672C32.5781 16.3672 33.2031 16.582 33.8477 16.582C34.4531 16.543 34.8242 16.25 34.8242 15.6445C34.8242 15.0586 34.3555 14.6875 33.8086 14.4531C33.0859 14.1602 32.0312 14.0625 31.3867 14.0625C27.5781 14.0625 25.4883 16.0938 24.8633 19.8828Z" fill="black" fill-opacity="0.85"/>
 </g>
</svg>
