<?xml version="1.0" encoding="UTF-8"?>
<!--Generator: Apple Native CoreSVG 326-->
<!DOCTYPE svg
PUBLIC "-//W3C//DTD SVG 1.1//EN"
       "http://www.w3.org/Graphics/SVG/1.1/DTD/svg11.dtd">
<svg version="1.1" xmlns="http://www.w3.org/2000/svg" xmlns:xlink="http://www.w3.org/1999/xlink" viewBox="0 0 60.961 50.918">
 <g>
  <rect height="50.918" opacity="0" width="60.961" x="0" y="0"/>
  <path d="M30.295 50.8789C44.3379 50.8789 55.7246 39.4922 55.7246 25.4492C55.7246 11.4062 44.3379 0 30.295 0C16.252 0 4.86526 11.4062 4.86526 25.4492L8.49808 25.4492C8.49808 13.3984 18.2442 3.65234 30.295 3.65234C42.3457 3.65234 52.0918 13.3984 52.0918 25.4492C52.0918 37.5 42.3457 47.2461 30.295 47.2461C22.834 47.2461 16.1739 43.457 12.3653 37.7539C11.7207 36.875 10.7051 36.6016 9.80667 37.1484C8.94729 37.6562 8.69339 38.8477 9.39651 39.8047C13.9473 46.5039 21.6426 50.8789 30.295 50.8789ZM1.60354 20.7227C0.00198146 20.7227-0.447237 21.8164 0.470731 23.0859L6.01761 30.9766C6.75979 32.0508 7.83401 32.0312 8.55667 30.9766L14.1035 23.0664C14.9825 21.8164 14.5528 20.7227 12.9707 20.7227Z" fill="black" fill-opacity="0.85"/>
  <path d="M24.2207 36.6016C28.0098 36.6016 29.8457 34.5898 30.4707 30.8398L31.3301 25.8203L36.8575 25.8203C37.4043 25.8203 37.8145 25.4492 37.8145 24.9219C37.8145 24.3945 37.4043 24.0039 36.8575 24.0039L31.6231 24.0039L32.2676 20.2344C32.6778 17.8125 33.8887 16.582 36.3106 16.582C37.2676 16.582 37.8731 16.7969 38.42 16.7969C39.084 16.7969 39.4551 16.4648 39.4551 15.8789C39.4551 15.3125 39.0059 14.9609 38.459 14.7266C37.7364 14.4336 36.7207 14.3555 36.0957 14.3555C32.3848 14.3555 30.3535 16.3477 29.7481 20.0195L29.0645 24.0039L23.8496 24.0039C23.2832 24.0039 22.8731 24.3945 22.8731 24.9219C22.8731 25.4492 23.2832 25.8203 23.8496 25.8203L28.7715 25.8203L27.9512 30.5469C27.5215 33.0273 26.4864 34.375 23.9668 34.375C22.9512 34.375 22.5996 34.1797 21.7598 34.1797C21.1934 34.1797 20.8223 34.5703 20.8223 35.0781C20.8223 35.6641 21.1934 36.0156 21.7793 36.25C22.502 36.543 23.4395 36.6016 24.2207 36.6016Z" fill="black" fill-opacity="0.85"/>
 </g>
</svg>
