<?xml version="1.0" encoding="UTF-8"?>
<!--Generator: Apple Native CoreSVG 326-->
<!DOCTYPE svg
PUBLIC "-//W3C//DTD SVG 1.1//EN"
       "http://www.w3.org/Graphics/SVG/1.1/DTD/svg11.dtd">
<svg version="1.1" xmlns="http://www.w3.org/2000/svg" xmlns:xlink="http://www.w3.org/1999/xlink" viewBox="0 0 46.2891 45.918">
 <g>
  <rect height="45.918" opacity="0" width="46.2891" x="0" y="0"/>
  <path d="M7.59766 45.918L38.3008 45.918C43.3594 45.918 45.918 43.3594 45.918 38.3984L45.918 7.53906C45.918 2.55859 43.3594 0 38.3008 0L7.59766 0C2.55859 0 0 2.53906 0 7.53906L0 38.3984C0 43.3984 2.55859 45.918 7.59766 45.918ZM7.67578 42.4609C4.94141 42.4609 3.45703 41.0156 3.45703 38.2031L3.45703 7.71484C3.45703 4.92188 4.94141 3.45703 7.67578 3.45703L38.2422 3.45703C40.918 3.45703 42.4609 4.92188 42.4609 7.71484L42.4609 38.2031C42.4609 41.0156 40.918 42.4609 38.2422 42.4609Z" fill="black" fill-opacity="0.85"/>
  <path d="M16.875 34.1016C20.6836 34.1016 22.5195 32.0898 23.1445 28.3398L24.0039 23.3203L29.5312 23.3203C30.0781 23.3203 30.4883 22.9492 30.4883 22.4219C30.4883 21.8945 30.0781 21.5039 29.5312 21.5039L24.2969 21.5039L24.9414 17.7344C25.3516 15.3125 26.5625 14.082 28.9844 14.082C29.9414 14.082 30.5469 14.2969 31.0938 14.2969C31.7578 14.2969 32.1289 13.9648 32.1289 13.3789C32.1289 12.8125 31.6797 12.4609 31.1328 12.2266C30.4102 11.9336 29.3945 11.8555 28.7695 11.8555C25.0586 11.8555 23.0273 13.8477 22.4023 17.5195L21.7383 21.5039L16.5039 21.5039C15.957 21.5039 15.5469 21.8945 15.5469 22.4219C15.5469 22.9492 15.957 23.3203 16.5039 23.3203L21.4453 23.3203L20.625 28.0469C20.1953 30.5273 19.1602 31.875 16.6406 31.875C15.625 31.875 15.2734 31.6797 14.4336 31.6797C13.8672 31.6797 13.4961 32.0703 13.4961 32.5781C13.4961 33.1641 13.8672 33.5156 14.4531 33.75C15.1758 34.043 16.1133 34.1016 16.875 34.1016Z" fill="black" fill-opacity="0.85"/>
 </g>
</svg>
