<?xml version="1.0" encoding="UTF-8"?>
<!--Generator: Apple Native CoreSVG 326-->
<!DOCTYPE svg
PUBLIC "-//W3C//DTD SVG 1.1//EN"
       "http://www.w3.org/Graphics/SVG/1.1/DTD/svg11.dtd">
<svg version="1.1" xmlns="http://www.w3.org/2000/svg" xmlns:xlink="http://www.w3.org/1999/xlink" viewBox="0 0 60.4102 50.0586">
 <g>
  <rect height="50.0586" opacity="0" width="60.4102" x="0" y="0"/>
  <path d="M60.0391 30.0195C60.0391 22.6562 57.3828 15.918 52.9688 10.6836C52.4609 10.0781 51.6016 10.0977 51.0352 10.6641L45.3906 16.3086C44.9023 16.7969 44.8828 17.4805 45.3125 18.0273C47.9102 21.3477 49.4531 25.4883 49.4531 30.0195C49.4531 34.5508 47.9102 38.7109 45.1953 42.1484C44.8242 42.6172 44.8438 43.2031 45.2539 43.6133L51.0352 49.4141C51.6016 50 52.4414 49.9805 52.9688 49.375C57.3828 44.1406 60.0391 37.3633 60.0391 30.0195Z" fill="black" fill-opacity="0.85"/>
  <path d="M30.0195 10.5664C34.5508 10.5664 38.7305 12.1289 42.0508 14.7656C42.5781 15.1562 43.2227 15.1172 43.7109 14.6289L49.375 8.96484C49.9609 8.39844 49.9414 7.55859 49.3359 7.03125C44.1211 2.65625 37.3633 0 30.0195 0C22.6758 0 15.918 2.65625 10.7031 7.03125C10.0977 7.55859 10.0781 8.39844 10.6445 8.96484L16.3281 14.6289C16.7969 15.1172 17.5 15.1367 18.0469 14.707C21.3477 12.1289 25.5078 10.5664 30.0195 10.5664Z" fill="black" fill-opacity="0.85"/>
  <path d="M0 30.0195C0 37.3633 2.65625 44.1406 7.07031 49.375C7.57812 49.9805 8.4375 50 9.00391 49.4141L14.7852 43.6133C15.1758 43.2031 15.2148 42.6172 14.8438 42.1484C12.1289 38.7109 10.5664 34.5508 10.5664 30.0195C10.5664 25.4883 12.1094 21.3477 14.7266 18.0273C15.1367 17.4805 15.1367 16.7969 14.6484 16.3086L8.98438 10.6641C8.41797 10.0977 7.57812 10.0781 7.05078 10.6836C2.63672 15.918 0 22.6562 0 30.0195Z" fill="black" fill-opacity="0.85"/>
  <path d="M23.9062 41.5039C27.7148 41.5039 29.5508 39.4727 30.1562 35.7422L31.0156 30.7227L36.5625 30.7227C37.1094 30.7227 37.5 30.3516 37.5 29.8242C37.5 29.2969 37.1094 28.9062 36.5625 28.9062L31.3086 28.9062L31.9531 25.1172C32.3633 22.7148 33.5742 21.4844 36.0156 21.4844C36.9531 21.4844 37.5781 21.6992 38.125 21.6992C38.7891 21.6992 39.1406 21.3672 39.1406 20.7812C39.1406 20.2148 38.7109 19.8438 38.1641 19.6289C37.4414 19.3359 36.4258 19.2383 35.8008 19.2383C32.0703 19.2383 30.0586 21.2305 29.4336 24.9219L28.75 28.9062L23.5352 28.9062C22.9688 28.9062 22.5781 29.2969 22.5781 29.8242C22.5781 30.3516 22.9688 30.7227 23.5352 30.7227L28.457 30.7227L27.6367 35.4492C27.2266 37.9297 26.1719 39.2773 23.6523 39.2773C22.6562 39.2773 22.2852 39.082 21.4648 39.082C20.8789 39.082 20.5273 39.4531 20.5273 39.9609C20.5273 40.5664 20.8789 40.8984 21.4844 41.1523C22.1875 41.4453 23.1445 41.5039 23.9062 41.5039Z" fill="black" fill-opacity="0.85"/>
 </g>
</svg>
