<?xml version="1.0" encoding="UTF-8"?>
<!--Generator: Apple Native CoreSVG 326-->
<!DOCTYPE svg
PUBLIC "-//W3C//DTD SVG 1.1//EN"
       "http://www.w3.org/Graphics/SVG/1.1/DTD/svg11.dtd">
<svg version="1.1" xmlns="http://www.w3.org/2000/svg" xmlns:xlink="http://www.w3.org/1999/xlink" viewBox="0 0 56.2305 55.8789">
 <g>
  <rect height="55.8789" opacity="0" width="56.2305" x="0" y="0"/>
  <path d="M27.9297 55.8594C43.2812 55.8594 55.8594 43.3008 55.8594 27.9297C55.8594 12.5586 43.2812 0 27.9297 0C12.5781 0 0 12.5586 0 27.9297C0 43.3008 12.5781 55.8594 27.9297 55.8594ZM27.9297 46.6797C17.5586 46.6797 9.16016 38.3008 9.16016 27.9297C9.16016 17.5586 17.5586 9.16016 27.9297 9.16016C38.3008 9.16016 46.6992 17.5586 46.6992 27.9297C46.6992 38.3008 38.3008 46.6797 27.9297 46.6797Z" fill="black" fill-opacity="0.85"/>
  <path d="M21.8359 39.082C25.6445 39.082 27.4805 37.0703 28.0859 33.3203L28.9453 28.3008L34.4922 28.3008C35.0391 28.3008 35.4297 27.9297 35.4297 27.4023C35.4297 26.875 35.0391 26.4844 34.4922 26.4844L29.2383 26.4844L29.9023 22.7148C30.3125 20.293 31.5234 19.0625 33.9453 19.0625C34.9023 19.0625 35.5078 19.2773 36.0547 19.2773C36.7188 19.2773 37.0703 18.9453 37.0703 18.3594C37.0703 17.793 36.6406 17.4414 36.0938 17.207C35.3711 16.9141 34.3555 16.8359 33.7305 16.8359C30.0195 16.8359 27.9883 18.8281 27.3633 22.5L26.6797 26.4844L21.4648 26.4844C20.918 26.4844 20.5078 26.875 20.5078 27.4023C20.5078 27.9297 20.918 28.3008 21.4648 28.3008L26.4062 28.3008L25.5859 33.0273C25.1562 35.5078 24.1211 36.8555 21.6016 36.8555C20.5859 36.8555 20.2344 36.6602 19.3945 36.6602C18.8281 36.6602 18.457 37.0508 18.457 37.5586C18.457 38.1445 18.8281 38.4961 19.4141 38.7305C20.1367 39.0234 21.0742 39.082 21.8359 39.082Z" fill="black" fill-opacity="0.85"/>
 </g>
</svg>
