<?xml version="1.0" encoding="UTF-8"?>
<!--Generator: Apple Native CoreSVG 326-->
<!DOCTYPE svg
PUBLIC "-//W3C//DTD SVG 1.1//EN"
       "http://www.w3.org/Graphics/SVG/1.1/DTD/svg11.dtd">
<svg version="1.1" xmlns="http://www.w3.org/2000/svg" xmlns:xlink="http://www.w3.org/1999/xlink" viewBox="0 0 37.5586 44.7852">
 <g>
  <rect height="44.7852" opacity="0" width="37.5586" x="0" y="0"/>
  <path d="M6.58203 44.7656C14.1406 44.7656 17.6367 40.5469 18.9062 33.2617L20.7812 22.7148L32.3438 22.7148C33.3203 22.7148 34.043 22.0508 34.043 21.1133C34.043 20.1367 33.3203 19.4336 32.3438 19.4336L21.3281 19.4336L22.6953 11.6992C23.5938 6.67969 25.8789 3.96484 30.9961 3.96484C33.1641 3.96484 34.1992 4.49219 35.5078 4.49219C36.5234 4.49219 37.1875 3.88672 37.1875 2.87109C37.1875 1.75781 36.1719 1.03516 35.1562 0.683594C33.75 0.15625 31.9531 0 30.6055 0C23.2617 0 19.3945 4.0625 18.1445 11.3086L16.6992 19.4336L5.72266 19.4336C4.74609 19.4336 4.02344 20.1367 4.02344 21.1133C4.02344 22.0508 4.74609 22.7148 5.72266 22.7148L16.1523 22.7148L14.3555 32.7344C13.4375 37.8516 11.3867 40.7422 6.15234 40.7422C4.49219 40.7422 2.75391 40.2539 1.75781 40.2539C0.722656 40.2539 0 40.8594 0 41.875C0 42.9297 0.644531 43.5742 1.69922 44.0039C3.20312 44.5703 5 44.7656 6.58203 44.7656Z" fill="black" fill-opacity="0.85"/>
 </g>
</svg>
