<?xml version="1.0" encoding="UTF-8"?>
<!--Generator: Apple Native CoreSVG 326-->
<!DOCTYPE svg
PUBLIC "-//W3C//DTD SVG 1.1//EN"
       "http://www.w3.org/Graphics/SVG/1.1/DTD/svg11.dtd">
<svg version="1.1" xmlns="http://www.w3.org/2000/svg" xmlns:xlink="http://www.w3.org/1999/xlink" viewBox="0 0 54.0625 58.5498">
 <g>
  <rect height="58.5498" opacity="0" width="54.0625" x="0" y="0"/>
  <path d="M5.42969 20.9448L48.2617 20.9448C51.6406 20.9448 53.6914 18.9136 53.6914 15.5933L53.6914 6.33547C53.6914 2.99563 51.6406 0.964376 48.2617 0.964376L5.42969 0.964376C2.05078 0.964376 0 2.99563 0 6.33547L0 15.5933C0 18.9136 2.05078 20.9448 5.42969 20.9448ZM5.50781 17.6831C4.12109 17.6831 3.26172 16.8042 3.26172 15.398L3.26172 6.51125C3.26172 5.105 4.12109 4.22609 5.50781 4.22609L48.2031 4.22609C49.5703 4.22609 50.4297 5.105 50.4297 6.51125L50.4297 15.398C50.4297 16.8042 49.5703 17.6831 48.2031 17.6831ZM25.2734 26.5503L28.4375 26.5503L28.4375 19.3823L25.2734 19.3823ZM5.42969 44.6363L48.2617 44.6363C51.6406 44.6363 53.6914 42.605 53.6914 39.2652L53.6914 30.0073C53.6914 26.687 51.6406 24.6558 48.2617 24.6558L5.42969 24.6558C2.05078 24.6558 0 26.687 0 30.0073L0 39.2652C0 42.605 2.05078 44.6363 5.42969 44.6363ZM5.50781 41.3745C4.12109 41.3745 3.26172 40.4956 3.26172 39.0894L3.26172 30.2027C3.26172 28.7964 4.12109 27.9175 5.50781 27.9175L48.2031 27.9175C49.5703 27.9175 50.4297 28.7964 50.4297 30.2027L50.4297 39.0894C50.4297 40.4956 49.5703 41.3745 48.2031 41.3745ZM25.2734 49.7925L28.457 49.7925L28.457 42.4683L25.2734 42.4683ZM25.5859 57.898C26.3086 58.7769 27.4805 58.7573 28.1836 57.898L33.6914 50.9644C34.668 49.7144 34.082 48.0738 32.4805 48.0738L21.2695 48.0738C19.6484 48.0738 19.0234 49.6948 20.0391 50.9644Z" fill="black" fill-opacity="0.85"/>
 </g>
</svg>
