<?xml version="1.0" encoding="UTF-8"?>
<!--Generator: Apple Native CoreSVG 326-->
<!DOCTYPE svg
PUBLIC "-//W3C//DTD SVG 1.1//EN"
       "http://www.w3.org/Graphics/SVG/1.1/DTD/svg11.dtd">
<svg version="1.1" xmlns="http://www.w3.org/2000/svg" xmlns:xlink="http://www.w3.org/1999/xlink" viewBox="0 0 57.1094 45.8789">
 <g>
  <rect height="45.8789" opacity="0" width="57.1094" x="0" y="0"/>
  <path d="M0 38.0859C0 43.0664 2.55859 45.6055 7.59766 45.6055L49.7266 45.6055C54.1992 45.6055 56.7383 43.0469 56.7383 38.0859L56.7383 17.168L0 17.168ZM0 14.2969L56.7383 14.2969L56.7383 12.168C56.7383 7.1875 54.1797 4.64844 49.1406 4.64844L24.8242 4.64844C22.9883 4.64844 21.9922 4.25781 20.6836 3.125L19.1992 1.875C17.5391 0.429688 16.3477 0 13.8281 0L6.66016 0C2.38281 0 0 2.36328 0 7.14844Z" fill="black" fill-opacity="0.85"/>
 </g>
</svg>
