<?xml version="1.0" encoding="UTF-8"?>
<!--Generator: Apple Native CoreSVG 326-->
<!DOCTYPE svg
PUBLIC "-//W3C//DTD SVG 1.1//EN"
       "http://www.w3.org/Graphics/SVG/1.1/DTD/svg11.dtd">
<svg version="1.1" xmlns="http://www.w3.org/2000/svg" xmlns:xlink="http://www.w3.org/1999/xlink" viewBox="0 0 34.2947 61.543">
 <g>
  <rect height="61.543" opacity="0" width="34.2947" x="0" y="0"/>
  <path d="M8.43641 58.0078C10.4872 58.0078 11.8153 56.8359 11.7763 54.8242L11.288 26.6406C11.2684 25.7227 11.62 25.0977 12.4013 24.7461C15.702 23.3008 17.0302 21.7383 16.8544 17.3828L16.1708 2.05078C16.1122 0.996094 15.4872 0.371094 14.4911 0.371094C13.5145 0.371094 12.9286 1.01562 12.9286 2.08984L13.1044 17.0117C13.1044 17.9102 12.538 18.4375 11.7177 18.4375C10.8974 18.4375 10.3114 17.9297 10.3114 17.0703L10.0575 1.64062C10.038 0.605469 9.43251 0 8.43641 0C7.44032 0 6.83485 0.605469 6.81532 1.64062L6.54188 17.0703C6.54188 17.9297 5.95594 18.4375 5.13563 18.4375C4.33485 18.4375 3.76844 17.9102 3.76844 17.0117L3.92469 2.08984C3.92469 1.01562 3.35829 0.371094 2.38173 0.371094C1.38563 0.371094 0.760632 0.996094 0.702038 2.05078L0.0184445 17.3828C-0.176868 21.7383 1.17079 23.3008 4.45204 24.7461C5.23329 25.0977 5.60438 25.7227 5.58485 26.6406L5.09657 54.8242C5.05751 56.8359 6.38563 58.0078 8.43641 58.0078ZM27.7724 36.543L27.1864 54.5898C27.1083 56.8359 28.4755 58.0078 30.5067 58.0078C32.5966 58.0078 33.9247 56.9141 33.9247 54.9219L33.9247 1.81641C33.9247 0.585938 33.1239 0 32.2059 0C31.288 0 30.702 0.507812 29.9403 1.60156C25.8974 7.26562 23.2802 17.7148 23.2802 27.9297L23.2802 29.3164C23.2802 31.1328 23.9052 32.3438 25.1552 33.2031L26.5419 34.1602C27.4208 34.7852 27.8114 35.5273 27.7724 36.543Z" fill="black" fill-opacity="0.85"/>
 </g>
</svg>
