<?xml version="1.0" encoding="UTF-8"?>
<!--Generator: Apple Native CoreSVG 326-->
<!DOCTYPE svg
PUBLIC "-//W3C//DTD SVG 1.1//EN"
       "http://www.w3.org/Graphics/SVG/1.1/DTD/svg11.dtd">
<svg version="1.1" xmlns="http://www.w3.org/2000/svg" xmlns:xlink="http://www.w3.org/1999/xlink" viewBox="0 0 37.4414 37.9492">
 <g>
  <rect height="37.9492" opacity="0" width="37.4414" x="0" y="0"/>
  <path d="M0 34.7266C0 36.9141 1.28906 37.9102 2.77344 37.9102C3.4375 37.9102 4.10156 37.7148 4.74609 37.3438L31.2109 21.8164C32.8711 20.8594 33.5352 20.1172 33.5352 18.9648C33.5352 17.8125 32.8711 17.0508 31.2109 16.0938L4.74609 0.566406C4.10156 0.195312 3.4375 0 2.77344 0C1.28906 0 0 1.01562 0 3.20312ZM3.45703 33.1641L3.45703 4.74609C3.45703 4.41406 3.67188 4.19922 3.94531 4.19922C4.0625 4.19922 4.17969 4.23828 4.29688 4.29688L28.5156 18.5547C28.7109 18.6719 28.7891 18.8086 28.7891 18.9648C28.7891 19.1016 28.7109 19.2383 28.5156 19.3555L4.29688 33.6133C4.17969 33.6914 4.0625 33.7109 3.94531 33.7109C3.67188 33.7109 3.45703 33.4961 3.45703 33.1641ZM35.2539 37.9102C36.2695 37.9102 37.0703 37.1289 37.0703 36.1133L37.0703 1.79688C37.0703 0.78125 36.2695 0 35.2539 0C34.2188 0 33.418 0.78125 33.418 1.79688L33.418 36.1133C33.418 37.1289 34.2188 37.9102 35.2539 37.9102Z" fill="black" fill-opacity="0.85"/>
 </g>
</svg>
