<?xml version="1.0" encoding="UTF-8"?>
<!--Generator: Apple Native CoreSVG 326-->
<!DOCTYPE svg
PUBLIC "-//W3C//DTD SVG 1.1//EN"
       "http://www.w3.org/Graphics/SVG/1.1/DTD/svg11.dtd">
<svg version="1.1" xmlns="http://www.w3.org/2000/svg" xmlns:xlink="http://www.w3.org/1999/xlink" viewBox="0 0 51.25 50.918">
 <g>
  <rect height="50.918" opacity="0" width="51.25" x="0" y="0"/>
  <path d="M25.4297 50.8789C39.4727 50.8789 50.8789 39.4922 50.8789 25.4492C50.8789 11.4062 39.4727 0 25.4297 0C11.3867 0 0 11.4062 0 25.4492C0 39.4922 11.3867 50.8789 25.4297 50.8789ZM25.4297 47.2461C13.3789 47.2461 3.63281 37.5 3.63281 25.4492C3.63281 13.3984 13.3789 3.65234 25.4297 3.65234C37.4805 3.65234 47.2266 13.3984 47.2266 25.4492C47.2266 37.5 37.4805 47.2461 25.4297 47.2461Z" fill="black" fill-opacity="0.85"/>
  <path d="M16.1328 34.7656C16.5625 34.7656 16.9922 34.6094 17.4219 34.3555L29.7461 27.0898C30.4883 26.6797 30.8203 26.1133 30.8203 25.4883C30.8203 24.8633 30.4883 24.3164 29.7461 23.8867L17.4219 16.6406C16.9922 16.3867 16.5625 16.2305 16.1328 16.2305C15.2734 16.2305 14.5508 16.875 14.5508 18.1055L14.5508 32.8711C14.5508 34.1211 15.2734 34.7656 16.1328 34.7656ZM34.8047 35.1172C35.7812 35.1172 36.2891 34.6289 36.2891 33.6328L36.2891 17.2656C36.2891 16.2695 35.7812 15.8008 34.8047 15.8008L32.1094 15.8008C31.1328 15.8008 30.6445 16.25 30.6445 17.2656L30.6445 33.6328C30.6445 34.6289 31.1328 35.1172 32.1094 35.1172Z" fill="black" fill-opacity="0.85"/>
 </g>
</svg>
