<?xml version="1.0" encoding="UTF-8"?>
<!--Generator: Apple Native CoreSVG 326-->
<!DOCTYPE svg
PUBLIC "-//W3C//DTD SVG 1.1//EN"
       "http://www.w3.org/Graphics/SVG/1.1/DTD/svg11.dtd">
<svg version="1.1" xmlns="http://www.w3.org/2000/svg" xmlns:xlink="http://www.w3.org/1999/xlink" viewBox="0 0 63.457 49.668">
 <g>
  <rect height="49.668" opacity="0" width="63.457" x="0" y="0"/>
  <path d="M26.4062 29.8438C33.2812 29.8438 39.0234 24.3555 39.0234 16.3867C39.0234 12.6367 37.9102 9.23828 35.918 6.58203L30.6836 11.8164C31.8945 13.2227 32.6172 15.0391 32.6172 17.0703C32.6172 21.1719 29.7266 24.1406 25.957 24.1406C22.8516 24.1406 20.5664 22.1094 20.5664 19.9414C20.5664 19.1992 21.1719 18.7109 21.8164 18.7305C22.3438 18.7305 22.793 19.043 22.9883 19.7266C23.3203 20.8398 24.2578 21.6992 25.8398 21.6992C28.3398 21.6992 29.9219 19.9414 29.9219 17.2266C29.9219 13.9258 27.1875 11.4258 23.6133 11.4258C19.2383 11.4258 15.6445 15.1758 15.6445 19.9219C15.6445 25.4688 20.1953 29.8438 26.4062 29.8438ZM23.3789 8.69141C25.0781 8.67188 27.0703 9.08203 28.7305 10.1172L34.1797 4.66797C31.5039 2.05078 27.7539 0.390625 23.3789 0.0976562ZM16.6406 11.3281C17.832 10.2734 19.2383 9.49219 20.8008 9.0625L20.8008 0.0585938C16.4648 0.214844 12.5195 1.62109 9.25781 3.92578ZM0.292969 18.8477L12.9883 18.8477C13.1055 16.9336 13.8281 14.8438 14.9414 13.2422L7.24609 5.52734C3.59375 8.82812 1.07422 13.457 0.292969 18.8477ZM0 22.6953C0 28.6133 1.64062 33.8281 4.60938 38.0859L15.3906 27.2852C14.1016 25.5664 13.2617 23.5547 13.0078 21.4258L0.0390625 21.4258C0 21.875 0 22.2852 0 22.6953ZM6.19141 40.1367C10.4688 45.0977 16.8164 48.418 24.5117 49.375L24.5117 32.4414C21.6211 32.1094 19.0625 30.918 17.1289 29.1406ZM27.1094 49.6094C27.793 49.668 28.5156 49.668 29.2383 49.668C36.543 49.668 43.0664 47.5781 48.4766 43.9062L34.707 30.2148C32.6367 31.5625 30.0781 32.4609 27.1094 32.5781ZM50.5078 42.4023C56.7578 37.4414 61.1523 30.1953 63.0078 22.0898C63.418 20.332 62.1094 19.2383 60.625 19.2383L41.5039 19.2383C41.1719 22.3438 39.5703 25.9375 36.6992 28.6133Z" fill="black" fill-opacity="0.85"/>
 </g>
</svg>
