<?xml version="1.0" encoding="UTF-8"?>
<!--Generator: Apple Native CoreSVG 326-->
<!DOCTYPE svg
PUBLIC "-//W3C//DTD SVG 1.1//EN"
       "http://www.w3.org/Graphics/SVG/1.1/DTD/svg11.dtd">
<svg version="1.1" xmlns="http://www.w3.org/2000/svg" xmlns:xlink="http://www.w3.org/1999/xlink" viewBox="0 0 56.2305 55.8789">
 <g>
  <rect height="55.8789" opacity="0" width="56.2305" x="0" y="0"/>
  <path d="M27.9297 55.8594C43.2812 55.8594 55.8594 43.3008 55.8594 27.9297C55.8594 12.5586 43.2812 0 27.9297 0C12.5781 0 0 12.5586 0 27.9297C0 43.3008 12.5781 55.8594 27.9297 55.8594ZM27.9297 46.6797C17.5586 46.6797 9.16016 38.3008 9.16016 27.9297C9.16016 17.5586 17.5586 9.16016 27.9297 9.16016C38.3008 9.16016 46.6992 17.5586 46.6992 27.9297C46.6992 38.3008 38.3008 46.6797 27.9297 46.6797Z" fill="black" fill-opacity="0.85"/>
  <path d="M23.7695 39.5117C24.5312 39.5117 25.0781 38.9453 25.0781 38.1641L25.0781 35.293L30.625 35.293C31.0742 35.293 31.3867 34.9609 31.3867 34.5312C31.3867 34.1016 31.0742 33.7695 30.625 33.7695L25.0781 33.7695L25.0781 29.0625L33.6133 29.0625C34.2969 29.0625 34.7852 28.5742 34.7852 27.9297C34.7852 27.2852 34.2969 26.7969 33.6133 26.7969L25.0781 26.7969L25.0781 19.2578L34.4922 19.2578C35.1953 19.2578 35.7031 18.7695 35.7031 18.125C35.7031 17.4414 35.1953 16.9531 34.4922 16.9531L23.7695 16.9531C22.9492 16.9531 22.4414 17.4609 22.4414 18.3203L22.4414 33.7695L20.0391 33.7695C19.5898 33.7695 19.2773 34.1016 19.2773 34.5312C19.2773 34.9609 19.5898 35.293 20.0391 35.293L22.4414 35.293L22.4414 38.1641C22.4414 38.9453 22.9883 39.5117 23.7695 39.5117Z" fill="black" fill-opacity="0.85"/>
 </g>
</svg>
