<?xml version="1.0" encoding="UTF-8"?>
<!--Generator: Apple Native CoreSVG 326-->
<!DOCTYPE svg
PUBLIC "-//W3C//DTD SVG 1.1//EN"
       "http://www.w3.org/Graphics/SVG/1.1/DTD/svg11.dtd">
<svg version="1.1" xmlns="http://www.w3.org/2000/svg" xmlns:xlink="http://www.w3.org/1999/xlink" viewBox="0 0 51.25 50.918">
 <g>
  <rect height="50.918" opacity="0" width="51.25" x="0" y="0"/>
  <path d="M25.4297 50.8789C39.4727 50.8789 50.8789 39.4922 50.8789 25.4492C50.8789 11.4062 39.4727 0 25.4297 0C11.3867 0 0 11.4062 0 25.4492C0 39.4922 11.3867 50.8789 25.4297 50.8789ZM25.4297 47.2461C13.3789 47.2461 3.63281 37.5 3.63281 25.4492C3.63281 13.3984 13.3789 3.65234 25.4297 3.65234C37.4805 3.65234 47.2266 13.3984 47.2266 25.4492C47.2266 37.5 37.4805 47.2461 25.4297 47.2461Z" fill="black" fill-opacity="0.85"/>
  <path d="M21.25 37.0312C22.0117 37.0312 22.5781 36.4648 22.5781 35.6836L22.5781 32.8125L28.125 32.8125C28.5547 32.8125 28.8867 32.4805 28.8867 32.0508C28.8867 31.6211 28.5547 31.2891 28.125 31.2891L22.5781 31.2891L22.5781 26.582L31.0938 26.582C31.7773 26.582 32.2852 26.0938 32.2852 25.4492C32.2852 24.8047 31.7773 24.3164 31.0938 24.3164L22.5781 24.3164L22.5781 16.7773L31.9727 16.7773C32.6758 16.7773 33.1836 16.2891 33.1836 15.6445C33.1836 14.9609 32.6758 14.4727 31.9727 14.4727L21.2695 14.4727C20.4297 14.4727 19.9219 14.9805 19.9219 15.8398L19.9219 31.2891L17.5195 31.2891C17.0898 31.2891 16.7578 31.6211 16.7578 32.0508C16.7578 32.4805 17.0898 32.8125 17.5195 32.8125L19.9219 32.8125L19.9219 35.6836C19.9219 36.4648 20.4688 37.0312 21.25 37.0312Z" fill="black" fill-opacity="0.85"/>
 </g>
</svg>
