<?xml version="1.0" encoding="UTF-8"?>
<!--Generator: Apple Native CoreSVG 326-->
<!DOCTYPE svg
PUBLIC "-//W3C//DTD SVG 1.1//EN"
       "http://www.w3.org/Graphics/SVG/1.1/DTD/svg11.dtd">
<svg version="1.1" xmlns="http://www.w3.org/2000/svg" xmlns:xlink="http://www.w3.org/1999/xlink" viewBox="0 0 55.5273 53.1055">
 <g>
  <rect height="53.1055" opacity="0" width="55.5273" x="0" y="0"/>
  <path d="M3.06641 47.6758L52.0898 47.6758L52.0898 46.1719C52.0898 45.332 51.582 44.8242 50.7227 44.8242L49.1211 44.8242L49.1211 16.6797L51.3867 16.6797C52.5781 16.6797 53.2422 15.8398 53.2422 14.9609C53.2422 14.3164 52.8906 13.75 52.1094 13.3008L30.5273 0.839844C29.5703 0.292969 28.5547 0 27.5781 0C26.6016 0 25.5664 0.292969 24.6289 0.839844L3.04688 13.3008C2.24609 13.75 1.91406 14.3164 1.91406 14.9609C1.91406 15.8398 2.57812 16.6797 3.76953 16.6797L6.05469 16.6797L6.05469 44.8242L4.45312 44.8242C3.57422 44.8242 3.06641 45.332 3.06641 46.1719ZM9.31641 44.8242L9.31641 13.7109L26.4453 4.0625C26.7773 3.86719 27.1875 3.75 27.5781 3.75C27.9492 3.75 28.3398 3.86719 28.7109 4.0625L45.8594 13.7109L45.8594 44.8242ZM1.73828 53.0664L53.418 53.0664C54.375 53.0664 55.1562 52.2852 55.1562 51.3477C55.1562 50.3906 54.375 49.6094 53.418 49.6094L1.73828 49.6094C0.78125 49.6094 0 50.3906 0 51.3477C0 52.2852 0.78125 53.0664 1.73828 53.0664Z" fill="black" fill-opacity="0.85"/>
  <path d="M23.4375 37.9883C24.1992 37.9883 24.7461 37.4219 24.7461 36.6406L24.7461 33.7695L30.293 33.7695C30.7227 33.7695 31.0547 33.457 31.0547 33.0273C31.0547 32.5781 30.7227 32.2656 30.293 32.2656L24.7461 32.2656L24.7461 27.5586L33.2812 27.5586C33.9453 27.5586 34.4531 27.0703 34.4531 26.4062C34.4531 25.7617 33.9453 25.2734 33.2812 25.2734L24.7461 25.2734L24.7461 17.7539L34.1602 17.7539C34.8438 17.7539 35.3516 17.2656 35.3516 16.6016C35.3516 15.918 34.8438 15.4297 34.1602 15.4297L23.4375 15.4297C22.6172 15.4297 22.1094 15.957 22.1094 16.7969L22.1094 32.2656L19.6875 32.2656C19.2578 32.2656 18.9258 32.5781 18.9258 33.0273C18.9258 33.457 19.2578 33.7695 19.6875 33.7695L22.1094 33.7695L22.1094 36.6406C22.1094 37.4219 22.6562 37.9883 23.4375 37.9883Z" fill="black" fill-opacity="0.85"/>
 </g>
</svg>
