<?xml version="1.0" encoding="UTF-8"?>
<!--Generator: Apple Native CoreSVG 326-->
<!DOCTYPE svg
PUBLIC "-//W3C//DTD SVG 1.1//EN"
       "http://www.w3.org/Graphics/SVG/1.1/DTD/svg11.dtd">
<svg version="1.1" xmlns="http://www.w3.org/2000/svg" xmlns:xlink="http://www.w3.org/1999/xlink" viewBox="0 0 65.8789 55.6445">
 <g>
  <rect height="55.6445" opacity="0" width="65.8789" x="0" y="0"/>
  <path d="M62.5195 44.2773C64.1406 44.2773 65.5078 42.9492 65.5078 41.4062C65.5078 39.8047 64.1602 38.5156 62.5195 38.5156C60.8789 38.5156 59.5508 39.8047 59.5508 41.4062C59.5508 42.9492 60.8984 44.2773 62.5195 44.2773ZM62.5195 33.3984C63.5742 33.3984 64.3164 32.6367 64.3555 31.5625L64.7852 13.5742C64.8242 12.207 63.9258 11.3086 62.5195 11.3086C61.1328 11.3086 60.2148 12.207 60.2539 13.5742L60.7031 31.5625C60.7422 32.6367 61.4844 33.3984 62.5195 33.3984Z" fill="black" fill-opacity="0.85"/>
  <path d="M36.2695 53.9453L36.2695 6.36719C36.2695 2.26562 34.0234 0 29.9219 0L10.0586 0C5.91797 0 3.73047 2.24609 3.73047 6.36719L3.73047 53.9453ZM10.5664 22.7148C8.76953 22.7148 7.67578 21.6797 7.67578 20L7.67578 6.67969C7.67578 5 8.76953 3.94531 10.5664 3.94531L29.4141 3.94531C31.1914 3.94531 32.3242 5 32.3242 6.67969L32.3242 20C32.3242 21.6797 31.1914 22.7148 29.4141 22.7148ZM0 53.8477C0 54.8047 0.761719 55.6055 1.69922 55.6055L38.2617 55.6055C39.1992 55.6055 40 54.8047 40 53.8477C40 52.9297 39.1992 52.1484 38.2617 52.1484L1.69922 52.1484C0.78125 52.1484 0 52.9102 0 53.8477ZM45.7031 49.2773C50.1367 49.2773 52.6562 46.3086 52.6562 41.0156C52.6562 34.7852 51.4258 27.5781 49.082 16.2109L48.457 13.2031C47.9883 10.957 47.3633 9.23828 45.957 7.5L43.0078 3.80859C41.875 2.38281 39.7266 4.04297 40.9375 5.54688L44.5312 10.0781C44.7656 10.3906 44.7852 10.7812 44.5898 11.1133L42.4023 15.1758C41.9141 16.0938 42.0312 16.7578 42.7734 17.5781L47.5781 22.6953C49.1602 29.9805 49.9805 36.0156 49.9805 41.0156C49.9805 44.6094 48.457 46.6211 45.7031 46.6211C43.3203 46.6211 41.7188 45.0195 41.7188 42.3438C41.7188 38.7891 42.3242 33.8867 42.3242 29.4336C42.3242 25.1953 40.1953 21.9531 35.2539 20.2344L34.1602 22.6562C38.0078 23.9062 39.668 26.3867 39.668 29.4336C39.668 33.4375 39.0625 38.3203 39.0625 42.3438C39.0625 46.6406 41.6797 49.2773 45.7031 49.2773Z" fill="black" fill-opacity="0.85"/>
 </g>
</svg>
