<?xml version="1.0" encoding="UTF-8"?>
<!--Generator: Apple Native CoreSVG 326-->
<!DOCTYPE svg
PUBLIC "-//W3C//DTD SVG 1.1//EN"
       "http://www.w3.org/Graphics/SVG/1.1/DTD/svg11.dtd">
<svg version="1.1" xmlns="http://www.w3.org/2000/svg" xmlns:xlink="http://www.w3.org/1999/xlink" viewBox="0 0 55.5859 55.6445">
 <g>
  <rect height="55.6445" opacity="0" width="55.5859" x="0" y="0"/>
  <path d="M39.1992 53.9453L39.1992 6.36719C39.1992 2.26562 36.9531 0 32.8516 0L12.9883 0C8.84766 0 6.67969 2.24609 6.67969 6.36719L6.67969 53.9453ZM13.4961 22.7148C11.7188 22.7148 10.625 21.6797 10.625 20L10.625 6.67969C10.625 5 11.7188 3.94531 13.4961 3.94531L32.3438 3.94531C34.1406 3.94531 35.2539 5 35.2539 6.67969L35.2539 20C35.2539 21.6797 34.1406 22.7148 32.3438 22.7148ZM2.92969 53.8477C2.92969 54.8047 3.71094 55.6055 4.62891 55.6055L41.1914 55.6055C42.1289 55.6055 42.9297 54.8047 42.9297 53.8477C42.9297 52.9297 42.1289 52.1484 41.1914 52.1484L4.62891 52.1484C3.73047 52.1484 2.92969 52.9102 2.92969 53.8477ZM48.6328 49.2773C53.0859 49.2773 55.5859 46.3086 55.5859 41.0156C55.5859 34.7852 54.375 27.5781 52.0312 16.2109L51.4062 13.2031C50.9375 10.957 50.293 9.23828 48.9062 7.5L45.957 3.80859C44.8242 2.38281 42.6562 4.04297 43.8672 5.54688L47.4805 10.0781C47.7148 10.3906 47.7148 10.7812 47.5195 11.1133L45.332 15.1758C44.8438 16.0938 44.9609 16.7578 45.7227 17.5781L50.5078 22.6953C52.0898 29.9805 52.9297 36.0156 52.9297 41.0156C52.9297 44.6094 51.3867 46.6211 48.6328 46.6211C46.25 46.6211 44.668 45.0195 44.668 42.3438C44.668 38.7891 45.2734 33.8867 45.2734 29.4336C45.2734 25.1953 43.125 21.9531 38.1836 20.2344L37.0898 22.6562C40.957 23.9062 42.5977 26.3867 42.5977 29.4336C42.5977 33.4375 42.0117 38.3203 42.0117 42.3438C42.0117 46.6406 44.6289 49.2773 48.6328 49.2773Z" fill="black" fill-opacity="0.85"/>
 </g>
</svg>
