<?xml version="1.0" encoding="UTF-8"?>
<!--Generator: Apple Native CoreSVG 326-->
<!DOCTYPE svg
PUBLIC "-//W3C//DTD SVG 1.1//EN"
       "http://www.w3.org/Graphics/SVG/1.1/DTD/svg11.dtd">
<svg version="1.1" xmlns="http://www.w3.org/2000/svg" xmlns:xlink="http://www.w3.org/1999/xlink" viewBox="0 0 66.0596 67.2902">
 <g>
  <rect height="67.2902" opacity="0" width="66.0596" x="0" y="0"/>
  <path d="M15.9068 26.3794C16.0883 27.5053 16.8405 28.2549 17.9994 28.4698L44.436 54.8778L44.436 57.9713L46.4282 57.9713C47.3657 57.9713 48.1665 58.7525 48.1665 59.6705C48.1665 60.6275 47.3657 61.4283 46.4282 61.4283L9.86573 61.4283C8.94776 61.4283 8.16651 60.6275 8.16651 59.6705C8.16651 58.733 8.9673 57.9713 9.86573 57.9713L11.9165 57.9713L11.9165 22.3934ZM51.1939 9.63144L54.1431 13.3228C55.5298 15.0611 56.1743 16.7799 56.6431 19.026L57.2681 22.0338C59.6118 33.401 60.8228 40.608 60.8228 46.8385C60.8228 50.9213 59.3352 53.6213 56.6056 54.6349L54.388 52.4181C56.8166 52.1772 58.1665 50.1999 58.1665 46.8385C58.1665 41.8385 57.3267 35.8033 55.7446 28.5182L50.9595 23.401C50.1978 22.5807 50.0806 21.9166 50.5689 20.9986L52.7564 16.9361C52.9517 16.6041 52.9517 16.2135 52.7173 15.901L49.104 11.3697C47.8931 9.86582 50.061 8.20566 51.1939 9.63144ZM44.436 12.19L44.436 26.4522C48.6587 28.2458 50.5103 31.3219 50.5103 35.2564C50.5103 39.6193 49.9291 44.4133 49.909 47.9407L47.3259 45.3585C47.481 42.0067 47.8345 38.3664 47.8345 35.2564C47.8345 32.8382 46.801 30.7768 44.436 29.4069L44.436 42.4697L30.499 28.5377L37.5806 28.5377C39.3775 28.5377 40.4907 27.5025 40.4907 25.8228L40.4907 12.5025C40.4907 10.8228 39.3775 9.76816 37.5806 9.76816L18.7329 9.76816C16.9556 9.76816 15.8618 10.8228 15.8618 12.5025L15.8618 13.9058L12.1251 10.1704C12.7519 7.33973 14.8224 5.82285 18.2251 5.82285L38.0884 5.82285C42.19 5.82285 44.436 8.08847 44.436 12.19Z" fill="black" fill-opacity="0.85"/>
  <path d="M57.5025 64.0846C58.1665 64.7486 59.2212 64.7486 59.8462 64.0846C60.5103 63.4205 60.5298 62.3658 59.8462 61.7213L5.56886 7.483C4.94386 6.83847 3.86964 6.81894 3.20558 7.483C2.56105 8.108 2.56105 9.20175 3.20558 9.82675Z" fill="black" fill-opacity="0.85"/>
 </g>
</svg>
