<?xml version="1.0" encoding="UTF-8"?>
<!--Generator: Apple Native CoreSVG 326-->
<!DOCTYPE svg
PUBLIC "-//W3C//DTD SVG 1.1//EN"
       "http://www.w3.org/Graphics/SVG/1.1/DTD/svg11.dtd">
<svg version="1.1" xmlns="http://www.w3.org/2000/svg" xmlns:xlink="http://www.w3.org/1999/xlink" viewBox="0 0 71.3478 55.6445">
 <g>
  <rect height="55.6445" opacity="0" width="71.3478" x="0" y="0"/>
  <path d="M54.5899 53.9453L54.5899 6.36719C54.5899 2.26562 52.3438 0 48.2423 0L28.379 0C24.2384 0 22.0704 2.24609 22.0704 6.36719L22.0704 53.9453ZM28.8868 22.7148C27.1095 22.7148 26.0157 21.6797 26.0157 20L26.0157 6.67969C26.0157 5 27.1095 3.94531 28.8868 3.94531L47.7345 3.94531C49.5313 3.94531 50.6446 5 50.6446 6.67969L50.6446 20C50.6446 21.6797 49.5313 22.7148 47.7345 22.7148ZM18.3204 53.8477C18.3204 54.8047 19.0821 55.6055 20.0196 55.6055L56.5821 55.6055C57.5196 55.6055 58.3204 54.8047 58.3204 53.8477C58.3204 52.9297 57.5196 52.1484 56.5821 52.1484L20.0196 52.1484C19.1016 52.1484 18.3204 52.9102 18.3204 53.8477ZM64.0235 49.2773C68.4766 49.2773 70.9766 46.3086 70.9766 41.0156C70.9766 34.7852 69.7657 27.5781 67.422 16.2109L66.797 13.2031C66.3282 10.957 65.6837 9.23828 64.297 7.5L61.3477 3.80859C60.2149 2.38281 58.047 4.04297 59.2579 5.54688L62.8516 10.0781C63.1055 10.3906 63.1055 10.7812 62.9102 11.1133L60.7227 15.1758C60.2345 16.0938 60.3516 16.7578 61.1134 17.5781L65.8985 22.6953C67.4805 29.9805 68.3204 36.0156 68.3204 41.0156C68.3204 44.6094 66.7774 46.6211 64.0235 46.6211C61.6407 46.6211 60.0587 45.0195 60.0587 42.3438C60.0587 38.7891 60.6446 33.8867 60.6446 29.4336C60.6446 25.1953 58.5157 21.9531 53.5743 20.2344L52.4805 22.6562C56.3282 23.9062 57.9884 26.3867 57.9884 29.4336C57.9884 33.4375 57.4024 38.3203 57.4024 42.3438C57.4024 46.6406 60.0196 49.2773 64.0235 49.2773Z" fill="black" fill-opacity="0.85"/>
  <path d="M0.703201 26.6406C-0.214767 27.1875-0.25383 28.4375 0.703201 28.9844L13.7305 36.7188C14.7266 37.3047 15.879 36.8359 15.879 35.8203L15.879 19.7656C15.879 18.7695 14.668 18.3203 13.7305 18.8477Z" fill="black" fill-opacity="0.85"/>
 </g>
</svg>
