<?xml version="1.0" encoding="UTF-8"?>
<!--Generator: Apple Native CoreSVG 326-->
<!DOCTYPE svg
PUBLIC "-//W3C//DTD SVG 1.1//EN"
       "http://www.w3.org/Graphics/SVG/1.1/DTD/svg11.dtd">
<svg version="1.1" xmlns="http://www.w3.org/2000/svg" xmlns:xlink="http://www.w3.org/1999/xlink" viewBox="0 0 44.2188 67.793">
 <g>
  <rect height="67.793" opacity="0" width="44.2188" x="0" y="0"/>
  <path d="M1.66016 67.793C2.59766 67.793 3.32031 67.0508 3.32031 66.1523L3.32031 46.2891C3.32031 45.3711 2.59766 44.6289 1.66016 44.6289C0.722656 44.6289 0 45.3711 0 46.2891L0 66.1523C0 67.0508 0.722656 67.793 1.66016 67.793ZM9.375 53.5742C10.625 53.5742 11.6016 52.5977 11.6016 51.3672C11.6016 50.1172 10.625 49.1406 9.375 49.1406C8.16406 49.1406 7.16797 50.1367 7.16797 51.3672C7.16797 52.5977 8.16406 53.5742 9.375 53.5742ZM17.6562 53.5742C18.9062 53.5742 19.8828 52.5977 19.8828 51.3672C19.8828 50.1172 18.9062 49.1406 17.6562 49.1406C16.4258 49.1406 15.4102 50.1367 15.4102 51.3672C15.4102 52.5977 16.4258 53.5742 17.6562 53.5742ZM25.9375 53.5742C27.168 53.5742 28.1445 52.5977 28.1445 51.3672C28.1445 50.1172 27.168 49.1406 25.9375 49.1406C24.707 49.1406 23.6914 50.1367 23.6914 51.3672C23.6914 52.5977 24.707 53.5742 25.9375 53.5742ZM34.1797 53.5742C35.4297 53.5742 36.4062 52.5977 36.4062 51.3672C36.4062 50.1172 35.4297 49.1406 34.1797 49.1406C32.9688 49.1406 31.9531 50.1367 31.9531 51.3672C31.9531 52.5977 32.9688 53.5742 34.1797 53.5742ZM9.375 63.4766C10.625 63.4766 11.6016 62.4609 11.6016 61.2305C11.6016 59.9805 10.625 59.0039 9.375 59.0039C8.16406 59.0039 7.16797 60 7.16797 61.2305C7.16797 62.4609 8.16406 63.4766 9.375 63.4766ZM17.6562 63.4766C18.9062 63.4766 19.8828 62.4609 19.8828 61.2305C19.8828 59.9805 18.9062 59.0039 17.6562 59.0039C16.4258 59.0039 15.4102 60 15.4102 61.2305C15.4102 62.4609 16.4258 63.4766 17.6562 63.4766ZM25.9375 63.4766C27.168 63.4766 28.1445 62.4609 28.1445 61.2305C28.1445 59.9805 27.168 59.0039 25.9375 59.0039C24.707 59.0039 23.6914 60 23.6914 61.2305C23.6914 62.4609 24.707 63.4766 25.9375 63.4766ZM34.1797 63.4766C35.4297 63.4766 36.4062 62.4609 36.4062 61.2305C36.4062 59.9805 35.4297 59.0039 34.1797 59.0039C32.9688 59.0039 31.9531 60 31.9531 61.2305C31.9531 62.4609 32.9688 63.4766 34.1797 63.4766ZM41.8945 67.6367C42.832 67.6367 43.5742 66.8945 43.5742 65.9766L43.5742 46.4258C43.5742 45.5078 42.832 44.7656 41.8945 44.7656C40.9961 44.7656 40.2539 45.5078 40.2539 46.4258L40.2539 65.9766C40.2539 66.8945 40.9961 67.6367 41.8945 67.6367Z" fill="black" fill-opacity="0.85"/>
  <path d="M31.8945 39.7656L31.8945 5.54688C31.8945 2.59766 30.2734 0.976562 27.3242 0.976562L13.0273 0.976562C10.0586 0.976562 8.51562 2.59766 8.51562 5.54688L8.51562 39.7656ZM13.418 17.3047C12.1289 17.3047 11.3477 16.5625 11.3477 15.3516L11.3477 5.78125C11.3477 4.57031 12.1289 3.82812 13.418 3.82812L26.9531 3.82812C28.2617 3.82812 29.0625 4.57031 29.0625 5.78125L29.0625 15.3516C29.0625 16.5625 28.2617 17.3047 26.9531 17.3047ZM5.625 39.6875C5.625 40.5078 6.28906 41.1328 7.03125 41.1328L33.3398 41.1328C34.1016 41.1328 34.7461 40.5078 34.7461 39.6875C34.7461 38.9258 34.1211 38.3008 33.3398 38.3008L7.03125 38.3008C6.28906 38.3008 5.625 38.9062 5.625 39.6875ZM38.6719 36.6016C41.9922 36.6016 43.8477 34.3555 43.8477 30.4688C43.8477 25.9766 42.9883 20.7617 41.2695 12.5977L40.8398 10.4297C40.5078 8.80859 40.0195 7.51953 39.0039 6.25L36.875 3.61328C35.9375 2.40234 34.082 3.80859 35.1172 5.05859L37.6953 8.33984C37.832 8.47656 37.832 8.69141 37.7148 8.90625L36.1523 11.7773C35.7422 12.5586 35.8789 13.1055 36.4453 13.75L39.8633 17.3828C40.9766 22.5586 41.582 26.8945 41.582 30.4688C41.582 32.9883 40.5664 34.3164 38.6719 34.3164C37.0312 34.3164 35.9961 33.2812 35.9961 31.4062C35.9961 28.8867 36.4258 25.3711 36.4258 22.1484C36.4258 18.9453 34.8047 16.543 31.0742 15.293L30.1562 17.3828C32.9883 18.2227 34.1602 19.9414 34.1602 22.1484C34.1602 25 33.7305 28.5156 33.7305 31.4062C33.7305 34.5898 35.7031 36.6016 38.6719 36.6016Z" fill="black" fill-opacity="0.85"/>
 </g>
</svg>
