<?xml version="1.0" encoding="UTF-8"?>
<!--Generator: Apple Native CoreSVG 326-->
<!DOCTYPE svg
PUBLIC "-//W3C//DTD SVG 1.1//EN"
       "http://www.w3.org/Graphics/SVG/1.1/DTD/svg11.dtd">
<svg version="1.1" xmlns="http://www.w3.org/2000/svg" xmlns:xlink="http://www.w3.org/1999/xlink" viewBox="0 0 55.5664 37.2852">
 <g>
  <rect height="37.2852" opacity="0" width="55.5664" x="0" y="0"/>
  <path d="M28.0273 37.2852C28.7695 37.2852 29.1797 37.0508 29.7266 36.2891L40.4688 21.7969L40.5859 21.7969L51.2695 36.3086C51.7773 37.0312 52.2461 37.2852 53.0273 37.2852C54.1211 37.2852 54.9414 36.5039 54.9414 35.4297C54.9414 34.9609 54.7852 34.4531 54.4727 34.043L43.0078 18.7305L54.707 3.14453C55.0195 2.71484 55.1953 2.26562 55.1953 1.79688C55.1953 0.820312 54.3555 0.0195312 53.3594 0.0195312C52.5586 0.0195312 52.1289 0.273438 51.582 1.03516L40.8398 15.7031L40.7227 15.7031L30.0391 1.05469C29.4727 0.253906 29.0625 0.0195312 28.2227 0.0195312C27.1094 0.0195312 26.2891 0.78125 26.2891 1.81641C26.2891 2.32422 26.4453 2.75391 26.7773 3.22266L38.1641 18.6133L26.6211 34.1406C26.2891 34.5898 26.1328 35.0391 26.1328 35.4883C26.1328 36.5039 26.9727 37.2852 28.0273 37.2852Z" fill="black" fill-opacity="0.85"/>
  <path d="M1.95312 37.1289C3.14453 37.1289 3.92578 36.3477 3.92578 35.1562L3.92578 20.5078L19.375 20.5078C20.4297 20.5078 21.1719 19.8438 21.1719 18.7891C21.1719 17.7148 20.4297 17.0508 19.375 17.0508L3.92578 17.0508L3.92578 3.96484L20.8398 3.96484C21.9141 3.96484 22.6758 3.30078 22.6758 2.20703C22.6758 1.11328 21.9141 0.429688 20.8398 0.429688L1.93359 0.429688C0.742188 0.429688 0 1.21094 0 2.42188L0 35.1562C0 36.3477 0.742188 37.1289 1.95312 37.1289Z" fill="black" fill-opacity="0.85"/>
 </g>
</svg>
