<?xml version="1.0" encoding="UTF-8"?>
<!--Generator: Apple Native CoreSVG 326-->
<!DOCTYPE svg
PUBLIC "-//W3C//DTD SVG 1.1//EN"
       "http://www.w3.org/Graphics/SVG/1.1/DTD/svg11.dtd">
<svg version="1.1" xmlns="http://www.w3.org/2000/svg" xmlns:xlink="http://www.w3.org/1999/xlink" viewBox="0 0 51.25 50.918">
 <g>
  <rect height="50.918" opacity="0" width="51.25" x="0" y="0"/>
  <path d="M50.8789 25.4492C50.8789 39.4531 39.4531 50.8789 25.4297 50.8789C11.4258 50.8789 0 39.4531 0 25.4492C0 11.4258 11.4258 0 25.4297 0C39.4531 0 50.8789 11.4258 50.8789 25.4492ZM14.5898 25.2734C14.5898 32.8516 18.8867 37.7148 25.6055 37.7148C31.7969 37.7148 35.5078 33.9648 35.5078 28.4961L35.5078 26.6016C35.5078 25.3906 34.8242 24.668 33.6523 24.668L26.5625 24.668C25.7422 24.668 25.2148 25.2148 25.2148 25.9961C25.2148 26.6992 25.7422 27.3242 26.5625 27.3242L31.9531 27.3242L31.9531 28.9258C31.9531 32.4219 29.7461 34.707 25.6445 34.707C21.2109 34.707 18.2227 30.918 18.2227 25.2734C18.2227 19.6484 21.1914 15.8398 25.5859 15.8398C28.7891 15.8398 31.1523 17.4609 32.1094 20.2344C32.4609 21.0547 32.8906 21.4062 33.6133 21.4062C34.5898 21.4062 35.1758 20.8008 35.1758 19.8242C35.1758 19.4141 35.1172 19.1016 34.9805 18.7109C33.8867 15.5469 30.5664 12.832 25.5273 12.832C18.8867 12.832 14.5898 17.7148 14.5898 25.2734Z" fill="black" fill-opacity="0.85"/>
 </g>
</svg>
