<?xml version="1.0" encoding="UTF-8"?>
<!--Generator: Apple Native CoreSVG 326-->
<!DOCTYPE svg
PUBLIC "-//W3C//DTD SVG 1.1//EN"
       "http://www.w3.org/Graphics/SVG/1.1/DTD/svg11.dtd">
<svg version="1.1" xmlns="http://www.w3.org/2000/svg" xmlns:xlink="http://www.w3.org/1999/xlink" viewBox="0 0 46.2891 45.918">
 <g>
  <rect height="45.918" opacity="0" width="46.2891" x="0" y="0"/>
  <path d="M7.59766 45.918L38.3008 45.918C43.3594 45.918 45.918 43.3594 45.918 38.3984L45.918 7.53906C45.918 2.55859 43.3594 0 38.3008 0L7.59766 0C2.55859 0 0 2.53906 0 7.53906L0 38.3984C0 43.3984 2.55859 45.918 7.59766 45.918ZM7.67578 42.4609C4.94141 42.4609 3.45703 41.0156 3.45703 38.2031L3.45703 7.71484C3.45703 4.92188 4.94141 3.45703 7.67578 3.45703L38.2422 3.45703C40.918 3.45703 42.4609 4.92188 42.4609 7.71484L42.4609 38.2031C42.4609 41.0156 40.918 42.4609 38.2422 42.4609Z" fill="black" fill-opacity="0.85"/>
  <path d="M23.1055 34.6875C29.043 34.6875 32.6172 31.1133 32.6172 25.8594L32.6172 24.043C32.6172 22.8906 31.9336 22.1875 30.8203 22.1875L24.0625 22.1875C23.2617 22.1875 22.7539 22.7148 22.7539 23.4766C22.7539 24.1406 23.2617 24.7461 24.0625 24.7461L29.1992 24.7461L29.1992 26.2891C29.1992 29.6289 27.0898 31.7969 23.1445 31.7969C18.9062 31.7969 16.0547 28.1836 16.0547 22.7734C16.0547 17.3828 18.8867 13.7305 23.0859 13.7305C26.1523 13.7305 28.4375 15.2734 29.3359 17.9492C29.6875 18.7109 30.0977 19.043 30.8008 19.043C31.6992 19.043 32.2852 18.4766 32.2852 17.5391C32.2852 17.168 32.2266 16.8555 32.1094 16.4844C31.0742 13.457 27.8711 10.8398 23.0469 10.8398C16.6797 10.8398 12.5586 15.5273 12.5586 22.7734C12.5586 30.0391 16.6797 34.6875 23.1055 34.6875Z" fill="black" fill-opacity="0.85"/>
 </g>
</svg>
