<?xml version="1.0" encoding="UTF-8"?>
<!--Generator: Apple Native CoreSVG 326-->
<!DOCTYPE svg
PUBLIC "-//W3C//DTD SVG 1.1//EN"
       "http://www.w3.org/Graphics/SVG/1.1/DTD/svg11.dtd">
<svg version="1.1" xmlns="http://www.w3.org/2000/svg" xmlns:xlink="http://www.w3.org/1999/xlink" viewBox="0 0 72.5781 45.1367">
 <g>
  <rect height="45.1367" opacity="0" width="72.5781" x="0" y="0"/>
  <path d="M0 35.6836C0 41.4062 3.73047 45.1367 9.31641 45.1367C12.1484 45.1367 14.9609 43.9062 17.0312 41.3477L21.6797 35.7227C22.3438 34.9219 23.0859 34.5508 23.8867 34.5508L48.3203 34.5508C49.1211 34.5508 49.8633 34.9219 50.5273 35.7227L55.1562 41.3477C57.2461 43.9062 60.0586 45.1367 62.8906 45.1367C68.4766 45.1367 72.207 41.4062 72.207 35.6836C72.207 33.2227 71.6211 30.3711 70.6445 27.0898C69.1016 21.9336 66.4062 14.9219 63.8086 9.43359C61.6797 4.98047 60.6055 3.02734 55.4297 1.85547C50.6055 0.742188 44.0039 0.0390625 36.0938 0.0390625C28.2031 0.0390625 21.6016 0.742188 16.7773 1.85547C11.6016 3.02734 10.5273 4.98047 8.39844 9.43359C5.80078 14.9219 3.10547 21.9336 1.5625 27.0898C0.585938 30.3711 0 33.2227 0 35.6836ZM3.30078 35.8398C3.30078 34.2383 3.65234 32.2852 4.55078 29.2188C6.15234 23.6719 9.04297 16.25 11.6211 10.5859C12.8711 7.87109 13.6328 6.11328 17.0703 5.3125C21.6992 4.21875 28.2617 3.49609 36.0938 3.49609C43.9453 3.49609 50.5078 4.21875 55.1172 5.3125C58.5742 6.11328 59.3164 7.87109 60.5859 10.5859C63.2031 16.25 65.9961 23.6914 67.6562 29.2188C68.5742 32.2852 68.9062 34.2383 68.9062 35.8398C68.9062 39.4727 66.3867 41.7969 62.9297 41.7969C60.957 41.7969 59.0234 40.7617 57.4805 38.9062L52.7539 33.1836C51.582 31.7578 50.5664 31.0742 48.4375 31.0742L23.7695 31.0742C21.6406 31.0742 20.625 31.7578 19.4531 33.1836L14.7266 38.9062C13.1836 40.7617 11.25 41.7969 9.27734 41.7969C5.82031 41.7969 3.30078 39.4727 3.30078 35.8398Z" fill="black" fill-opacity="0.85"/>
  <path d="M15.8398 17.5C15.8398 18.6133 16.5039 19.2969 17.6172 19.2969L22.5977 19.2969L22.5977 24.2773C22.5977 25.3711 23.2422 26.0547 24.3164 26.0547C25.3711 26.0547 26.0156 25.3711 26.0156 24.2773L26.0156 19.2969L30.8008 19.2969C31.9922 19.2969 32.6953 18.6133 32.6953 17.5C32.6953 16.4453 31.9922 15.7617 30.8008 15.7617L26.0156 15.7617L26.0156 10.8008C26.0156 9.70703 25.3711 9.02344 24.3164 9.02344C23.2422 9.02344 22.5977 9.70703 22.5977 10.8008L22.5977 15.7617L17.6172 15.7617C16.5039 15.7617 15.8398 16.4453 15.8398 17.5ZM51.7188 17.1094C53.6719 17.1094 55.2539 15.5469 55.2539 13.5938C55.2539 11.6406 53.6719 10.0781 51.7188 10.0781C49.7656 10.0781 48.2031 11.6406 48.2031 13.5938C48.2031 15.5469 49.7656 17.1094 51.7188 17.1094ZM44.1406 24.6289C46.0938 24.6289 47.6758 23.0664 47.6758 21.1133C47.6758 19.1602 46.0938 17.5977 44.1406 17.5977C42.1875 17.5977 40.625 19.1602 40.625 21.1133C40.625 23.0664 42.1875 24.6289 44.1406 24.6289Z" fill="black" fill-opacity="0.85"/>
 </g>
</svg>
