<?xml version="1.0" encoding="UTF-8"?>
<!--Generator: Apple Native CoreSVG 326-->
<!DOCTYPE svg
PUBLIC "-//W3C//DTD SVG 1.1//EN"
       "http://www.w3.org/Graphics/SVG/1.1/DTD/svg11.dtd">
<svg version="1.1" xmlns="http://www.w3.org/2000/svg" xmlns:xlink="http://www.w3.org/1999/xlink" viewBox="0 0 61.3672 70.8286">
 <g>
  <rect height="70.8286" opacity="0" width="61.3672" x="0" y="0"/>
  <path d="M33.8281 21.7913C33.8281 22.7483 34.6094 23.5296 35.5469 23.5296C36.5039 23.5296 37.2852 22.7483 37.2852 21.7913L37.2852 15.3264C37.2852 14.2131 36.543 13.4319 35.4883 13.4319C21.6406 13.4319 10.1367 24.9358 10.1367 38.8616C10.1367 45.4631 12.7344 51.5374 16.9336 56.0686C17.8906 57.1233 19.5117 57.3772 20.7812 56.1077L24.7656 52.1428C25.4297 51.4983 25.4102 50.3655 24.7656 49.7014C24.082 49.0374 22.9688 49.0178 22.3047 49.7014L19.0039 53.0022C15.7617 49.1936 13.7891 44.2913 13.7891 38.8616C13.7891 27.3577 22.5781 18.0022 33.8281 17.1428ZM18.5352 37.1233L11.9727 37.1233L11.9727 40.5999L18.5352 40.5999C19.4727 40.5999 20.2539 39.7991 20.2539 38.8616C20.2539 37.9046 19.4727 37.1233 18.5352 37.1233ZM52.0508 24.6819L55.0586 22.6506C51.2695 18.1585 46.0156 15.0921 40.2148 13.9397C40.3516 14.3694 40.4102 14.8186 40.4102 15.3264L40.4102 17.6702C44.9414 18.7053 49.0234 21.1272 52.0508 24.6819ZM57.2852 40.5022L60.8203 41.2053C61.0742 38.471 60.8984 35.6389 60.1953 32.846C59.5117 30.0725 58.3594 27.5139 56.8359 25.1897L53.8672 27.221C55.0781 29.1155 56.0352 31.2444 56.6406 33.5686C57.2461 35.8928 57.4414 38.2366 57.2852 40.5022ZM54.2773 55.971C56.4453 53.6272 59.082 49.6428 60.2344 44.2522L56.7578 43.5686C55.8398 47.885 53.8867 51.0491 52.1289 53.0413L48.8086 49.7014C48.1445 49.0178 47.0312 49.0374 46.3477 49.7014C45.7031 50.3655 45.6836 51.4983 46.3477 52.1428L50.293 56.0491C51.582 57.3381 53.2617 57.0842 54.2773 55.971Z" fill="black" fill-opacity="0.85"/>
  <path d="M38.7109 41.8889C40.2344 40.346 40.2344 38.0999 38.7109 36.5764C38.4375 36.2835 37.8516 35.8733 37.5 35.5999L25.1953 26.9085C24.668 26.5374 24.1406 26.635 23.7891 26.9671C23.457 27.3186 23.3594 27.846 23.7305 28.3538L32.4414 40.678C32.6953 41.0296 33.125 41.6155 33.3789 41.8889C34.9219 43.4124 37.168 43.4124 38.7109 41.8889Z" fill="black" fill-opacity="0.85"/>
  <path d="M33.8281 1.28346L33.8281 9.58424C33.8281 10.7171 34.6875 11.2249 35.7422 10.5608L41.8945 6.53737C42.793 5.95143 42.793 5.05299 41.8945 4.46706L35.7617 0.32643C34.668-0.396226 33.8281 0.150649 33.8281 1.28346ZM0 38.471C0 48.6663 4.39453 57.846 11.3867 64.1936L13.7109 61.8694C7.36328 56.2249 3.45703 47.9241 3.45703 38.471C3.45703 20.346 17.0703 6.77174 34.7656 6.77174L34.7656 3.29518C15.5469 3.29518 0 18.8421 0 38.471ZM13.3789 58.5881L7.48047 64.4475C6.67969 65.2483 6.95312 66.2444 8.16406 66.4983L15.3711 68.0217C16.4258 68.2366 17.0703 67.6116 16.8555 66.5374L15.4297 59.2913C15.1758 58.0022 14.1992 57.7874 13.3789 58.5881Z" fill="black" fill-opacity="0.85"/>
 </g>
</svg>
