<?xml version="1.0" encoding="UTF-8"?>
<!--Generator: Apple Native CoreSVG 326-->
<!DOCTYPE svg
PUBLIC "-//W3C//DTD SVG 1.1//EN"
       "http://www.w3.org/Graphics/SVG/1.1/DTD/svg11.dtd">
<svg version="1.1" xmlns="http://www.w3.org/2000/svg" xmlns:xlink="http://www.w3.org/1999/xlink" viewBox="0 0 63.3247 56.7118">
 <g>
  <rect height="56.7118" opacity="0" width="63.3247" x="0" y="0"/>
  <path d="M56.887 31.8032C56.887 17.8774 45.4026 6.3735 31.4768 6.3735C17.551 6.3735 6.06665 17.8774 6.06665 31.8032C6.06665 38.4047 8.64478 44.479 12.8635 49.0102C13.801 50.0649 15.4221 50.3188 16.6917 49.0493L20.676 45.0844C21.3401 44.4399 21.3401 43.3071 20.676 42.643C20.012 41.979 18.8792 41.9594 18.2151 42.643L14.9338 45.9438C11.6721 42.1352 9.719 37.2329 9.719 31.8032C9.719 19.7133 19.387 10.0063 31.4768 10.0063C43.5471 10.0063 53.2346 19.7133 53.2346 31.8032C53.2346 37.2329 51.2815 42.1352 48.0198 45.9438L44.719 42.643C44.0745 41.9594 42.9417 41.979 42.2776 42.643C41.6135 43.3071 41.594 44.4399 42.2776 45.0844L46.2424 49.0493C47.5315 50.3188 49.1331 50.0649 50.0901 49.0102C54.3088 44.479 56.887 38.4047 56.887 31.8032ZM48.5081 30.0649C47.551 30.0649 46.7698 30.8462 46.7698 31.8032C46.7698 32.7407 47.551 33.5415 48.5081 33.5415L55.0706 33.5415L55.0706 30.0649ZM33.1956 14.7329L33.1956 8.17037L29.7385 8.17037L29.7385 14.7329C29.7385 15.6899 30.5198 16.4712 31.4768 16.4712C32.4143 16.4712 33.1956 15.6899 33.1956 14.7329ZM20.6174 18.5024L15.969 13.8735L13.5276 16.3149L18.1565 20.9633C18.8206 21.6274 19.9534 21.6274 20.6174 20.9633C21.2815 20.2993 21.2815 19.1665 20.6174 18.5024ZM14.387 30.0649L7.82447 30.0649L7.82447 33.5415L14.387 33.5415C15.344 33.5415 16.1252 32.7407 16.1252 31.8032C16.1252 30.8462 15.344 30.0649 14.387 30.0649Z" fill="black" fill-opacity="0.85"/>
  <path d="M28.3127 34.8305C29.8557 36.354 32.1018 36.354 33.6448 34.8305C33.9182 34.5571 34.3284 33.9712 34.6018 33.6196L43.2932 21.2954C43.6643 20.7876 43.5667 20.2602 43.2346 19.9087C42.8831 19.5766 42.3557 19.479 41.8284 19.8501L29.5237 28.5415C29.1721 28.8149 28.5862 29.2251 28.3127 29.518C26.7893 31.0415 26.7893 33.2876 28.3127 34.8305Z" fill="black" fill-opacity="0.85"/>
  <path d="M55.7151 0.416466C54.8948-0.403846 53.9377 0.0844351 53.7229 1.04147L51.8479 9.96725C51.6135 10.9829 52.2971 11.7055 53.3713 11.4907L62.2971 9.59615C63.2542 9.40084 63.7229 8.42428 62.9026 7.60397Z" fill="black" fill-opacity="0.85"/>
 </g>
</svg>
