<?xml version="1.0" encoding="UTF-8"?>
<!--Generator: Apple Native CoreSVG 326-->
<!DOCTYPE svg
PUBLIC "-//W3C//DTD SVG 1.1//EN"
       "http://www.w3.org/Graphics/SVG/1.1/DTD/svg11.dtd">
<svg version="1.1" xmlns="http://www.w3.org/2000/svg" xmlns:xlink="http://www.w3.org/1999/xlink" viewBox="0 0 51.25 50.918">
 <g>
  <rect height="50.918" opacity="0" width="51.25" x="0" y="0"/>
  <path d="M25.4297 50.8789C39.4727 50.8789 50.8789 39.4922 50.8789 25.4492C50.8789 11.4062 39.4727 0 25.4297 0C11.3867 0 0 11.4062 0 25.4492C0 39.4922 11.3867 50.8789 25.4297 50.8789ZM25.4297 47.2461C13.3789 47.2461 3.63281 37.5 3.63281 25.4492C3.63281 13.3984 13.3789 3.65234 25.4297 3.65234C37.4805 3.65234 47.2266 13.3984 47.2266 25.4492C47.2266 37.5 37.4805 47.2461 25.4297 47.2461Z" fill="black" fill-opacity="0.85"/>
  <path d="M11.4062 21.3281C12.4805 21.3281 13.3789 20.4297 13.3789 19.3555C13.3789 18.2617 12.4805 17.3828 11.4062 17.3828C10.3125 17.3828 9.43359 18.2617 9.43359 19.3555C9.43359 20.4297 10.3125 21.3281 11.4062 21.3281ZM17.1094 14.8438C18.1836 14.8438 19.082 13.9453 19.082 12.8711C19.082 11.7773 18.1836 10.8789 17.1094 10.8789C16.0156 10.8789 15.1172 11.7773 15.1172 12.8711C15.1172 13.9453 16.0156 14.8438 17.1094 14.8438ZM25.4102 12.3242C26.5039 12.3242 27.4023 11.4258 27.4023 10.3516C27.4023 9.25781 26.5039 8.35938 25.4102 8.35938C24.3359 8.35938 23.4375 9.25781 23.4375 10.3516C23.4375 11.4258 24.3359 12.3242 25.4102 12.3242ZM33.7305 14.8438C34.8242 14.8438 35.7031 13.9453 35.7031 12.8711C35.7031 11.7773 34.8242 10.8789 33.7305 10.8789C32.6562 10.8789 31.7578 11.7773 31.7578 12.8711C31.7578 13.9453 32.6562 14.8438 33.7305 14.8438ZM39.4336 21.3281C40.5078 21.3281 41.4062 20.4297 41.4062 19.3555C41.4062 18.2617 40.5078 17.3828 39.4336 17.3828C38.3398 17.3828 37.4414 18.2617 37.4414 19.3555C37.4414 20.4297 38.3398 21.3281 39.4336 21.3281ZM25.4492 41.1133C27.6172 41.1133 29.1992 39.5312 29.1992 37.3633C29.1992 36.9727 29.1016 36.25 29.0234 35.8203L26.4844 20.9766C26.3672 20.3516 25.9375 20.0195 25.4492 20.0195C24.9609 20.0195 24.5312 20.3516 24.4141 20.9766L21.875 35.8203C21.7969 36.25 21.6797 36.9727 21.6797 37.3633C21.6797 39.5312 23.2812 41.1133 25.4492 41.1133Z" fill="black" fill-opacity="0.85"/>
 </g>
</svg>
