<?xml version="1.0" encoding="UTF-8"?>
<!--Generator: Apple Native CoreSVG 326-->
<!DOCTYPE svg
PUBLIC "-//W3C//DTD SVG 1.1//EN"
       "http://www.w3.org/Graphics/SVG/1.1/DTD/svg11.dtd">
<svg version="1.1" xmlns="http://www.w3.org/2000/svg" xmlns:xlink="http://www.w3.org/1999/xlink" viewBox="0 0 51.25 50.918">
 <g>
  <rect height="50.918" opacity="0" width="51.25" x="0" y="0"/>
  <path d="M25.4297 50.8789C39.4727 50.8789 50.8789 39.4922 50.8789 25.4492C50.8789 11.4062 39.4727 0 25.4297 0C11.3867 0 0 11.4062 0 25.4492C0 39.4922 11.3867 50.8789 25.4297 50.8789ZM25.4297 47.2461C13.3789 47.2461 3.63281 37.5 3.63281 25.4492C3.63281 13.3984 13.3789 3.65234 25.4297 3.65234C37.4805 3.65234 47.2266 13.3984 47.2266 25.4492C47.2266 37.5 37.4805 47.2461 25.4297 47.2461Z" fill="black" fill-opacity="0.85"/>
  <path d="M10.4688 27.4219C11.543 27.4219 12.4414 26.5234 12.4414 25.4492C12.4414 24.3555 11.543 23.457 10.4688 23.457C9.39453 23.457 8.49609 24.3555 8.49609 25.4492C8.49609 26.5234 9.39453 27.4219 10.4688 27.4219ZM14.8242 16.8945C15.8984 16.8945 16.7969 16.0156 16.7969 14.9219C16.7969 13.8477 15.8984 12.9492 14.8242 12.9492C13.7305 12.9492 12.832 13.8477 12.832 14.9219C12.832 16.0156 13.7305 16.8945 14.8242 16.8945ZM25.4102 12.4609C26.5039 12.4609 27.4023 11.5625 27.4023 10.4688C27.4023 9.39453 26.5039 8.49609 25.4102 8.49609C24.3359 8.49609 23.4375 9.39453 23.4375 10.4688C23.4375 11.5625 24.3359 12.4609 25.4102 12.4609ZM36.0156 16.8945C37.0898 16.8945 37.9883 16.0156 37.9883 14.9219C37.9883 13.8477 37.0898 12.9492 36.0156 12.9492C34.9219 12.9492 34.043 13.8477 34.043 14.9219C34.043 16.0156 34.9219 16.8945 36.0156 16.8945ZM40.4102 27.4219C41.4844 27.4219 42.3828 26.5234 42.3828 25.4492C42.3828 24.3555 41.4844 23.457 40.4102 23.457C39.3164 23.457 38.418 24.3555 38.418 25.4492C38.418 26.5234 39.3164 27.4219 40.4102 27.4219ZM36.0156 37.9492C37.0898 37.9492 37.9883 37.0508 37.9883 35.957C37.9883 34.8828 37.0898 33.9844 36.0156 33.9844C34.9219 33.9844 34.043 34.8828 34.043 35.957C34.043 37.0508 34.9219 37.9492 36.0156 37.9492ZM29.1602 21.8359C27.6172 20.293 25.3711 20.293 23.8281 21.8359C23.5547 22.0898 23.1445 22.6758 22.8711 23.0273L14.1797 35.3516C13.8086 35.8594 13.8867 36.3867 14.2383 36.7578C14.5898 37.0703 15.1172 37.168 15.6445 36.7969L27.9492 28.1055C28.3008 27.8516 28.8867 27.4219 29.1602 27.1484C30.6836 25.6055 30.6836 23.3594 29.1602 21.8359Z" fill="black" fill-opacity="0.85"/>
 </g>
</svg>
