<?xml version="1.0" encoding="UTF-8"?>
<!--Generator: Apple Native CoreSVG 326-->
<!DOCTYPE svg
PUBLIC "-//W3C//DTD SVG 1.1//EN"
       "http://www.w3.org/Graphics/SVG/1.1/DTD/svg11.dtd">
<svg version="1.1" xmlns="http://www.w3.org/2000/svg" xmlns:xlink="http://www.w3.org/1999/xlink" viewBox="0 0 54.8828 53.7836">
 <g>
  <rect height="53.7836" opacity="0" width="54.8828" x="0" y="0"/>
  <path d="M27.2461 50.5734C27.8906 50.5734 28.5352 50.5539 29.1797 50.4953L30.4883 52.9563C30.8203 53.5813 31.3086 53.8156 31.9922 53.718C32.6758 53.6008 33.0273 53.1906 33.125 52.507L33.5352 49.7531C34.7852 49.4016 35.9766 48.9523 37.1484 48.425L39.1992 50.2805C39.707 50.7688 40.293 50.7883 40.8789 50.4758C41.4844 50.1438 41.6992 49.6164 41.543 48.9328L40.957 46.1984C42.0117 45.4758 42.9883 44.6359 43.9062 43.757L46.4844 44.7922C47.1484 45.0461 47.6758 44.8898 48.1445 44.382C48.5938 43.8742 48.6133 43.3078 48.2422 42.7023L46.7578 40.3391C47.4805 39.2844 48.125 38.1906 48.6719 37.0383L51.4453 37.1359C52.1484 37.1555 52.6172 36.843 52.8516 36.1789C53.1055 35.5539 52.9492 35.007 52.4023 34.5773L50.1758 32.8781C50.5078 31.6477 50.7422 30.3977 50.8594 29.0891L53.4961 28.2297C54.1797 28.0148 54.5117 27.5656 54.5117 26.882C54.5117 26.1984 54.1797 25.7297 53.4961 25.5148L50.8594 24.675C50.7422 23.3664 50.5078 22.0969 50.1758 20.8664L52.3828 19.1672C52.9492 18.7375 53.0664 18.2102 52.8711 17.5461C52.6172 16.882 52.1289 16.6086 51.4453 16.6281L48.6719 16.7063C48.125 15.5539 47.4805 14.4406 46.7578 13.3859L48.2227 11.0422C48.6133 10.4563 48.5352 9.88985 48.1445 9.36251C47.6758 8.81563 47.1094 8.71797 46.5039 8.95235L43.9062 10.007C42.9883 9.06954 41.9922 8.26876 40.957 7.52657L41.543 4.83126C41.6797 4.12813 41.4648 3.62032 40.8984 3.26876C40.2734 2.93672 39.707 3.01485 39.2188 3.46407L37.1289 5.31954C35.9766 4.77266 34.7656 4.36251 33.5156 4.01094L33.125 1.25704C33.0273 0.553912 32.6367 0.182818 31.9922 0.0265684C31.3086-0.0906191 30.8008 0.182818 30.4883 0.788287L29.1602 3.24922C28.5352 3.21016 27.8906 3.1711 27.2461 3.1711C26.6016 3.1711 25.9766 3.21016 25.332 3.24922L24.0234 0.788287C23.6914 0.163287 23.1836-0.0515566 22.5195 0.0265684C21.8359 0.143756 21.4648 0.573443 21.3672 1.23751L20.957 4.01094C19.707 4.36251 18.5156 4.81172 17.3438 5.33907L15.3125 3.46407C14.7852 2.99532 14.2188 2.95626 13.6133 3.26876C13.0273 3.62032 12.8125 4.14766 12.9492 4.81172L13.5352 7.56563C12.4805 8.28829 11.5039 9.1086 10.6055 10.007L8.02734 8.95235C7.38281 8.69844 6.81641 8.85469 6.36719 9.36251C5.91797 9.88985 5.89844 10.4563 6.26953 11.0422L7.75391 13.4055C7.01172 14.4602 6.38672 15.5734 5.82031 16.7258L3.06641 16.6086C2.34375 16.5891 1.875 16.9211 1.64062 17.5656C1.40625 18.2102 1.58203 18.7375 2.12891 19.1672L4.33594 20.8859C3.98438 22.1164 3.76953 23.3664 3.65234 24.675L0.996094 25.5148C0.332031 25.7297 0 26.1984 0 26.882C0 27.5656 0.332031 28.0148 0.996094 28.2297L3.65234 29.0891C3.76953 30.3977 3.98438 31.6477 4.33594 32.8781L2.12891 34.5969C1.58203 35.0266 1.44531 35.5539 1.64062 36.1984C1.89453 36.8625 2.34375 37.1359 3.04688 37.1164L5.82031 37.0383C6.38672 38.2102 7.01172 39.3039 7.75391 40.3586L6.26953 42.7023C5.89844 43.3078 5.95703 43.8742 6.36719 44.4016C6.83594 44.9289 7.38281 45.0461 8.00781 44.7922L10.6055 43.7375C11.5039 44.6555 12.5 45.4758 13.5352 46.218L12.9688 48.9328C12.832 49.6359 13.0469 50.1438 13.6133 50.4953C14.2383 50.8273 14.7852 50.7688 15.293 50.3L17.3828 48.425C18.5352 48.9719 19.7266 49.4016 20.9766 49.7531L21.3672 52.507C21.4648 53.1906 21.8555 53.5813 22.5195 53.718C23.2031 53.8352 23.6914 53.5813 24.0234 52.9758L25.332 50.4953C25.9766 50.5539 26.6016 50.5734 27.2461 50.5734ZM27.2461 47.0188C16.1328 47.0188 7.10938 37.9953 7.10938 26.882C7.10938 15.7492 16.1328 6.72579 27.2461 6.72579C38.3789 6.72579 47.4023 15.7492 47.4023 26.882C47.4023 37.9953 38.3789 47.0188 27.2461 47.0188ZM23.1836 23.0539L25.7812 21.4523L17.2852 6.86251L14.5898 8.36641ZM32.6367 28.3273L49.5508 28.3273L49.5508 25.3L32.6367 25.3ZM25.8789 32.3508L23.3203 30.7102L14.4141 45.3195L17.0703 46.882ZM27.2852 33.132C30.7422 33.132 33.5352 30.3391 33.5352 26.882C33.5352 23.425 30.7422 20.6125 27.2852 20.6125C23.8281 20.6125 21.0156 23.425 21.0156 26.882C21.0156 30.3391 23.8281 33.132 27.2852 33.132ZM27.2852 29.8898C25.6055 29.8898 24.2773 28.5422 24.2773 26.882C24.2773 25.2219 25.6055 23.8742 27.2852 23.8742C28.9453 23.8742 30.293 25.2219 30.293 26.882C30.293 28.5422 28.9453 29.8898 27.2852 29.8898Z" fill="black" fill-opacity="0.85"/>
 </g>
</svg>
