<?xml version="1.0" encoding="UTF-8"?>
<!--Generator: Apple Native CoreSVG 326-->
<!DOCTYPE svg
PUBLIC "-//W3C//DTD SVG 1.1//EN"
       "http://www.w3.org/Graphics/SVG/1.1/DTD/svg11.dtd">
<svg version="1.1" xmlns="http://www.w3.org/2000/svg" xmlns:xlink="http://www.w3.org/1999/xlink" viewBox="0 0 51.25 50.918">
 <g>
  <rect height="50.918" opacity="0" width="51.25" x="0" y="0"/>
  <path d="M25.4297 50.8789C39.4727 50.8789 50.8789 39.4922 50.8789 25.4492C50.8789 11.4062 39.4727 0 25.4297 0C11.3867 0 0 11.4062 0 25.4492C0 39.4922 11.3867 50.8789 25.4297 50.8789ZM25.4297 47.2461C13.3789 47.2461 3.63281 37.5 3.63281 25.4492C3.63281 13.3984 13.3789 3.65234 25.4297 3.65234C37.4805 3.65234 47.2266 13.3984 47.2266 25.4492C47.2266 37.5 37.4805 47.2461 25.4297 47.2461Z" fill="black" fill-opacity="0.85"/>
  <path d="M25.4102 39.5898C25.7617 39.5898 26.0742 39.5898 26.4062 39.5508L27.0898 40.8789C27.3438 41.3281 27.7148 41.5234 28.2227 41.4453C28.7109 41.3477 29.0625 41.0156 29.1211 40.5078L29.2969 39.0625C29.9414 38.8867 30.5859 38.6523 31.1719 38.3789L32.2852 39.375C32.6367 39.7266 33.0859 39.7656 33.5156 39.5117C33.9648 39.2578 34.1797 38.8281 34.0625 38.3398L33.7109 36.8945C34.2578 36.5234 34.7852 36.0938 35.2344 35.6445L36.6211 36.1914C37.0898 36.3867 37.5195 36.2891 37.8516 35.8984C38.1641 35.5078 38.2227 35 37.9492 34.6094L37.1289 33.3594C37.5195 32.832 37.8516 32.2656 38.1445 31.6406L39.6094 31.7188C40.1172 31.7383 40.5078 31.4844 40.6641 30.9961C40.8398 30.5469 40.7031 30.0781 40.3125 29.7656L39.1406 28.8672C39.3164 28.2422 39.4141 27.5977 39.4922 26.9336L40.8984 26.4844C41.3867 26.3086 41.6602 25.9375 41.6602 25.4492C41.6602 24.9609 41.3867 24.5508 40.8984 24.4141L39.4922 23.9648C39.4141 23.3008 39.3164 22.6562 39.1406 22.0117L40.332 21.1328C40.7227 20.8008 40.8203 20.3906 40.6836 19.9219C40.5273 19.4531 40.1367 19.1406 39.6094 19.1406L38.1445 19.2578C37.8516 18.6523 37.5195 18.0859 37.1484 17.5195L37.9688 16.3086C38.2031 15.8398 38.1836 15.4297 37.8906 15.0195C37.5391 14.6484 37.0898 14.5117 36.6016 14.6875L35.2539 15.2734C34.7852 14.8047 34.2773 14.3945 33.7305 13.9844L34.082 12.5586C34.1602 12.0703 33.9844 11.6602 33.5547 11.3867C33.125 11.1523 32.6367 11.1328 32.2461 11.5234L31.1914 12.5C30.6055 12.2461 29.9609 12.0117 29.2969 11.8359L29.1406 10.3711C29.043 9.88281 28.75 9.55078 28.2422 9.45312C27.7539 9.375 27.3438 9.53125 27.0703 10.0195L26.4062 11.3281C26.0938 11.3086 25.7617 11.2891 25.4102 11.2891C25.0781 11.2891 24.7461 11.3086 24.4141 11.3281L23.75 10.0195C23.4961 9.57031 23.1055 9.375 22.6172 9.45312C22.1289 9.55078 21.7578 9.86328 21.6992 10.3711L21.5234 11.8359C20.8789 12.0117 20.2539 12.2266 19.6484 12.5L18.5742 11.5234C18.2227 11.1719 17.7344 11.1328 17.3047 11.3672C16.875 11.6406 16.6602 12.0508 16.7773 12.5391L17.1094 13.9844C16.582 14.375 16.0547 14.8047 15.5859 15.2539L14.2188 14.707C13.75 14.4922 13.3008 14.6289 12.9883 15C12.6758 15.3711 12.5977 15.8594 12.8906 16.2891L13.6914 17.5391C13.3203 18.0664 12.9688 18.6328 12.6758 19.2383L11.2305 19.1797C10.7227 19.1602 10.3125 19.4336 10.1562 19.8828C10 20.3516 10.0977 20.8203 10.5078 21.1133L11.6797 22.0117C11.5234 22.6562 11.4062 23.3008 11.3477 23.9648L9.92188 24.4141C9.45312 24.5508 9.17969 24.9609 9.17969 25.4492C9.17969 25.9375 9.43359 26.3086 9.92188 26.4844L11.3477 26.9336C11.4062 27.5977 11.5234 28.2422 11.6797 28.8672L10.4883 29.7852C10.0781 30.0977 9.96094 30.5078 10.1367 30.957C10.332 31.4453 10.7031 31.7578 11.2305 31.7188L12.6758 31.6211C12.9688 32.2266 13.3203 32.832 13.6914 33.3594L12.8711 34.6094C12.5781 35.0586 12.6367 35.4883 12.9492 35.8594C13.3008 36.2305 13.75 36.4062 14.2383 36.1914L15.5664 35.6055C16.0547 36.0742 16.543 36.5234 17.1094 36.8945L16.7578 38.3594C16.6406 38.8672 16.8359 39.2578 17.2656 39.5117C17.7148 39.7266 18.2031 39.7266 18.5742 39.375L19.6484 38.3789C20.2539 38.6523 20.8594 38.8672 21.5039 39.0625L21.6992 40.5273C21.7578 41.0352 22.0898 41.3477 22.5586 41.4453C23.0664 41.5039 23.4961 41.3281 23.75 40.8789L24.4141 39.5508C24.7266 39.5898 25.0781 39.5898 25.4102 39.5898ZM25.4102 37.1289C18.9648 37.1289 13.7305 31.8945 13.7305 25.4492C13.7305 18.9844 18.9648 13.7695 25.4102 13.7695C31.875 13.7695 37.0898 18.9844 37.0898 25.4492C37.0898 31.8945 31.875 37.1289 25.4102 37.1289ZM22.793 23.2617L24.8242 22.1484L19.6484 13.3398L17.6562 14.4727ZM27.6562 24.2969L27.6562 26.5625L38.7891 26.5625L38.7891 24.2969ZM24.8438 28.8086L22.8516 27.6562L17.5195 36.3477L19.5117 37.5391ZM25.4102 29.3359C27.5586 29.3359 29.2969 27.5781 29.2969 25.4492C29.2969 23.3008 27.5586 21.543 25.4102 21.543C23.2617 21.543 21.5234 23.3008 21.5234 25.4492C21.5234 27.5781 23.2617 29.3359 25.4102 29.3359ZM25.4102 27.0312C24.5312 27.0312 23.8086 26.3281 23.8086 25.4492C23.8086 24.5703 24.5312 23.8477 25.4102 23.8477C26.2891 23.8477 27.0117 24.5703 27.0117 25.4492C27.0117 26.3281 26.2891 27.0312 25.4102 27.0312Z" fill="black" fill-opacity="0.85"/>
 </g>
</svg>
