<?xml version="1.0" encoding="UTF-8"?>
<!--Generator: Apple Native CoreSVG 326-->
<!DOCTYPE svg
PUBLIC "-//W3C//DTD SVG 1.1//EN"
       "http://www.w3.org/Graphics/SVG/1.1/DTD/svg11.dtd">
<svg version="1.1" xmlns="http://www.w3.org/2000/svg" xmlns:xlink="http://www.w3.org/1999/xlink" viewBox="0 0 51.25 50.918">
 <g>
  <rect height="50.918" opacity="0" width="51.25" x="0" y="0"/>
  <path d="M25.4297 50.8789C39.4727 50.8789 50.8789 39.4922 50.8789 25.4492C50.8789 11.4062 39.4727 0 25.4297 0C11.3867 0 0 11.4062 0 25.4492C0 39.4922 11.3867 50.8789 25.4297 50.8789ZM25.4297 47.2461C13.3789 47.2461 3.63281 37.5 3.63281 25.4492C3.63281 13.3984 13.3789 3.65234 25.4297 3.65234C37.4805 3.65234 47.2266 13.3984 47.2266 25.4492C47.2266 37.5 37.4805 47.2461 25.4297 47.2461Z" fill="black" fill-opacity="0.85"/>
  <path d="M24.0625 40.2148L26.7578 40.2148C27.5195 40.2148 28.0469 39.7656 28.2031 39.0039L28.9453 35.9375C29.4531 35.7422 29.9609 35.5664 30.3906 35.3516L33.0859 37.0117C33.7305 37.4219 34.4141 37.3633 34.9414 36.8359L36.7969 34.9805C37.3438 34.4531 37.4414 33.7109 36.9922 33.0859L35.3516 30.4102C35.5469 29.9414 35.7422 29.4531 35.8984 28.9648L39.0039 28.2617C39.7656 28.0859 40.1758 27.5586 40.1758 26.7773L40.1758 24.1406C40.1758 23.3984 39.7656 22.8711 39.0039 22.6953L35.918 21.9727C35.7422 21.4258 35.5273 20.9375 35.3711 20.5078L37.0312 17.8125C37.4414 17.168 37.4023 16.4648 36.8359 15.9375L34.9414 14.082C34.4141 13.5742 33.75 13.457 33.1055 13.8672L30.3906 15.5469C29.9609 15.3516 29.4727 15.1367 28.9453 14.9609L28.2031 11.875C28.0469 11.1133 27.5195 10.6641 26.7578 10.6641L24.0625 10.6641C23.3203 10.6641 22.793 11.1133 22.6172 11.875L21.875 14.9414C21.3672 15.1172 20.8789 15.3125 20.4102 15.5469L17.7148 13.8672C17.0703 13.457 16.4062 13.5352 15.8789 14.082L13.9648 15.9375C13.418 16.4648 13.3984 17.168 13.7891 17.8125L15.4492 20.5078C15.2734 20.9375 15.0781 21.4258 14.8828 21.9727L11.8164 22.6953C11.0547 22.8711 10.6445 23.3984 10.6445 24.1406L10.6445 26.7773C10.6445 27.5586 11.0547 28.0859 11.8164 28.2617L14.9023 28.9648C15.0781 29.4531 15.2539 29.9414 15.4688 30.4102L13.8281 33.0859C13.3984 33.7109 13.4766 34.4531 14.0039 34.9805L15.8789 36.8359C16.4062 37.3633 17.0898 37.4219 17.7344 37.0117L20.4297 35.3516C20.8789 35.5664 21.3672 35.7422 21.875 35.9375L22.6172 39.0039C22.793 39.7656 23.3203 40.2148 24.0625 40.2148ZM25.4102 30.4492C22.6172 30.4492 20.3711 28.2031 20.3711 25.4102C20.3711 22.6172 22.6172 20.3516 25.4102 20.3516C28.2031 20.3516 30.4688 22.6172 30.4688 25.4102C30.4688 28.2031 28.2031 30.4492 25.4102 30.4492Z" fill="black" fill-opacity="0.85"/>
 </g>
</svg>
