<?xml version="1.0" encoding="UTF-8"?>
<!--Generator: Apple Native CoreSVG 326-->
<!DOCTYPE svg
PUBLIC "-//W3C//DTD SVG 1.1//EN"
       "http://www.w3.org/Graphics/SVG/1.1/DTD/svg11.dtd">
<svg version="1.1" xmlns="http://www.w3.org/2000/svg" xmlns:xlink="http://www.w3.org/1999/xlink" viewBox="0 0 59.1797 42.5195">
 <g>
  <rect height="42.5195" opacity="0" width="59.1797" x="0" y="0"/>
  <path d="M1.23047 20.8008L1.23047 23.2422L25.9961 23.2422C24.1992 26.9336 19.0039 31.6016 15.5664 32.0117C14.3945 32.1289 13.7695 32.8125 13.7695 33.8867C13.7695 34.8242 14.5312 35.7422 15.7812 35.5469C19.5312 34.9219 25.7812 30.5469 27.9102 24.8828L28.0664 24.8828L28.0664 42.0703L30.7227 42.0703L30.7227 24.8828L30.8789 24.8828C33.0078 30.5469 39.2578 34.9219 43.0078 35.5469C44.2578 35.7422 45.0195 34.8242 45.0195 33.8867C45.0195 32.8125 44.3945 32.1289 43.2227 32.0117C39.7852 31.6016 34.5898 26.9336 32.793 23.2422L57.3828 23.2422L57.3828 20.8008L38.8281 20.8008C42.1875 19.375 44.707 16.6602 44.707 13.3789C44.707 9.78516 42.1484 7.22656 38.6719 7.22656C35.4102 7.22656 32.3633 9.51172 30.7227 12.9883L30.7227 0.390625L28.0664 0.390625L28.0664 12.9883C26.4258 9.51172 23.3789 7.22656 20.1172 7.22656C16.6406 7.22656 14.0625 9.78516 14.0625 13.3789C14.0625 16.6602 16.6016 19.375 19.9609 20.8008ZM26.8945 20.5078C21.7188 20.5078 17.1289 16.9727 17.1289 13.6133C17.1289 11.582 18.3789 10.3125 20.2734 10.3125C24.1406 10.3125 27.6562 14.7656 27.6562 19.8242L27.6562 20.5078ZM31.8945 20.5078L31.1328 20.5078L31.1328 19.8242C31.1328 14.7656 34.6484 10.3125 38.5156 10.3125C40.4102 10.3125 41.6602 11.582 41.6602 13.6133C41.6602 16.9727 37.0703 20.5078 31.8945 20.5078ZM7.59766 42.5195L51.1914 42.5195C56.25 42.5195 58.8086 39.9609 58.8086 34.9805L58.8086 7.59766C58.8086 2.61719 56.25 0.0585938 51.1914 0.0585938L7.59766 0.0585938C2.55859 0.0585938 0 2.59766 0 7.59766L0 34.9805C0 39.9805 2.55859 42.5195 7.59766 42.5195ZM7.67578 39.043C4.94141 39.043 3.45703 37.5977 3.45703 34.8047L3.45703 7.77344C3.45703 4.96094 4.94141 3.51562 7.67578 3.51562L51.1328 3.51562C53.8086 3.51562 55.332 4.96094 55.332 7.77344L55.332 34.8047C55.332 37.5977 53.8086 39.043 51.1328 39.043Z" fill="black" fill-opacity="0.85"/>
 </g>
</svg>
