<?xml version="1.0" encoding="UTF-8"?>
<!--Generator: Apple Native CoreSVG 326-->
<!DOCTYPE svg
PUBLIC "-//W3C//DTD SVG 1.1//EN"
       "http://www.w3.org/Graphics/SVG/1.1/DTD/svg11.dtd">
<svg version="1.1" xmlns="http://www.w3.org/2000/svg" xmlns:xlink="http://www.w3.org/1999/xlink" viewBox="0 0 51.25 50.918">
 <g>
  <rect height="50.918" opacity="0" width="51.25" x="0" y="0"/>
  <path d="M25.4297 50.8789C39.4727 50.8789 50.8789 39.4922 50.8789 25.4492C50.8789 11.4062 39.4727 0 25.4297 0C11.3867 0 0 11.4062 0 25.4492C0 39.4922 11.3867 50.8789 25.4297 50.8789ZM25.4297 47.2461C13.3789 47.2461 3.63281 37.5 3.63281 25.4492C3.63281 13.3984 13.3789 3.65234 25.4297 3.65234C37.4805 3.65234 47.2266 13.3984 47.2266 25.4492C47.2266 37.5 37.4805 47.2461 25.4297 47.2461Z" fill="black" fill-opacity="0.85"/>
  <path d="M15.1562 34.8242C15.1562 36.8555 16.3672 37.9688 18.3789 37.9688L24.4531 37.9688L24.4531 26.5039L15.1562 26.5039ZM26.3867 37.9688L32.4414 37.9688C34.4727 37.9688 35.6641 36.8555 35.6641 34.8242L35.6641 26.5039L26.3867 26.5039ZM13.2617 23.3594C13.2617 24.6484 14.0039 25.2344 15.293 25.2344L24.4531 25.2344L24.4531 18.4766L22.6172 18.4766C20.5078 18.4766 19.2383 17.2461 19.2383 15.7227C19.2383 14.375 20.2344 13.5352 21.6016 13.5352C23.2422 13.5352 24.4531 14.7852 24.4531 16.7773L24.4531 18.4766L26.3867 18.4766L26.3867 16.7773C26.3867 14.7852 27.5977 13.5352 29.2188 13.5352C30.6055 13.5352 31.582 14.375 31.582 15.7227C31.582 17.2461 30.3125 18.4766 28.2227 18.4766L26.3867 18.4766L26.3867 25.2344L35.5273 25.2344C36.8555 25.2344 37.5586 24.6484 37.5586 23.3594L37.5586 20.3516C37.5586 19.082 36.8555 18.4766 35.5273 18.4766L32.2266 18.4766C33.0273 17.793 33.4961 16.8164 33.4961 15.6445C33.4961 13.2812 31.6797 11.6211 29.3164 11.6211C27.5 11.6211 26.0352 12.6367 25.4102 14.4141C24.7852 12.6367 23.3203 11.6211 21.5039 11.6211C19.1406 11.6211 17.3242 13.2812 17.3242 15.6445C17.3242 16.8164 17.793 17.793 18.5938 18.4766L15.293 18.4766C14.043 18.4766 13.2617 19.082 13.2617 20.3516Z" fill="black" fill-opacity="0.85"/>
 </g>
</svg>
