<?xml version="1.0" encoding="UTF-8"?>
<!--Generator: Apple Native CoreSVG 326-->
<!DOCTYPE svg
PUBLIC "-//W3C//DTD SVG 1.1//EN"
       "http://www.w3.org/Graphics/SVG/1.1/DTD/svg11.dtd">
<svg version="1.1" xmlns="http://www.w3.org/2000/svg" xmlns:xlink="http://www.w3.org/1999/xlink" viewBox="0 0 59.1797 42.5195">
 <g>
  <rect height="42.5195" opacity="0" width="59.1797" x="0" y="0"/>
  <path d="M0 20.8789L19.4141 20.8789C15.8984 19.3945 13.3008 16.543 13.3008 13.1055C13.3008 9.31641 15.9961 6.62109 19.6875 6.62109C23.1055 6.62109 26.25 8.96484 27.9883 12.6172L27.9883 0.0585938L30.8398 0.0585938L30.8398 12.6172C32.5586 8.96484 35.7227 6.62109 39.1406 6.62109C42.832 6.62109 45.5273 9.31641 45.5273 13.1055C45.5273 16.543 42.9297 19.3945 39.4141 20.8789L58.8086 20.8789L58.8086 23.5156L33.0469 23.5156C34.9023 27.2852 40.332 32.1875 43.9258 32.5977C45.1953 32.7344 45.8594 33.4766 45.8594 34.6094C45.8594 35.625 45.0391 36.582 43.7109 36.4062C39.7461 35.7812 33.1836 31.1328 30.9961 25.2148L30.8398 25.2148L30.8398 42.5195L27.9883 42.5195L27.9883 25.2148L27.832 25.2148C25.6445 31.1328 19.082 35.7812 15.1172 36.4062C13.7891 36.582 12.9688 35.625 12.9688 34.6094C12.9688 33.4766 13.6328 32.7539 14.9023 32.5977C18.4961 32.1484 23.9258 27.2852 25.7812 23.5156L0 23.5156ZM26.7578 20.5664L27.5586 20.5664L27.5586 19.8438C27.5586 14.5508 23.8867 9.92188 19.8438 9.92188C17.8711 9.92188 16.5625 11.25 16.5625 13.3594C16.5625 16.875 21.3281 20.5664 26.7578 20.5664ZM32.0703 20.5664C37.5 20.5664 42.2656 16.875 42.2656 13.3594C42.2656 11.25 40.957 9.92188 38.9844 9.92188C34.9414 9.92188 31.2695 14.5508 31.2695 19.8438L31.2695 20.5664ZM7.59766 42.5195L51.1914 42.5195C56.25 42.5195 58.8086 39.9609 58.8086 34.9805L58.8086 7.59766C58.8086 2.61719 56.25 0.0585938 51.1914 0.0585938L7.59766 0.0585938C2.55859 0.0585938 0 2.59766 0 7.59766L0 34.9805C0 39.9805 2.55859 42.5195 7.59766 42.5195Z" fill="black" fill-opacity="0.85"/>
 </g>
</svg>
