<?xml version="1.0" encoding="UTF-8"?>
<!--Generator: Apple Native CoreSVG 326-->
<!DOCTYPE svg
PUBLIC "-//W3C//DTD SVG 1.1//EN"
       "http://www.w3.org/Graphics/SVG/1.1/DTD/svg11.dtd">
<svg version="1.1" xmlns="http://www.w3.org/2000/svg" xmlns:xlink="http://www.w3.org/1999/xlink" viewBox="0 0 51.25 50.918">
 <g>
  <rect height="50.918" opacity="0" width="51.25" x="0" y="0"/>
  <path d="M26.7578 44.4922C31.3477 44.4922 35.293 37.3438 36.3281 35.6445C37.5781 33.5938 36.9922 31.543 36.9922 30.2734C36.9922 29.2578 39.668 27.4805 39.668 25.2539C39.668 22.9492 34.4922 21.3867 34.4922 20.0195C34.4922 19.1992 35.1367 18.3984 35.8398 18.3984C36.9922 18.3984 39.6484 21.9141 41.2109 21.9141C42.207 21.9141 42.207 21.0352 42.793 21.0352C44.1016 21.0352 44.3945 28.1641 48.125 29.9219C49.0625 28.7695 49.6289 27.2852 49.6289 25.4492C49.6289 12.4805 38.9258 1.17188 25.4102 1.25C18.4375 1.26953 15.4883 3.73047 15.4883 6.44531C15.4883 9.82422 12.7539 10.6055 12.7539 12.5781C12.7539 13.7695 13.5938 14.5898 14.8828 14.5898C17.793 14.5898 17.7148 11.4453 19.3555 11.4453C20.5273 11.4648 21.543 13.0664 23.2031 13.0664C24.0234 13.0664 24.4141 12.5781 24.4727 11.9141C24.5898 11.543 24.707 11.3477 25.0391 11.3477C26.6992 11.3477 28.5938 13.2031 28.5938 14.3359C28.5938 15.4102 28.2031 16.3086 27.4805 16.3086C26.3086 16.3086 23.4961 14.8828 20.9961 14.8828C15.3711 14.8828 10.7031 18.9453 10.7031 23.6719C10.7031 27.793 13.1445 30.1758 17.3633 30.1758C20.0195 30.1758 21.9727 31.9727 21.9727 34.4141C21.9727 38.1641 21.5625 44.4922 26.7578 44.4922ZM33.0273 10.2539C32.1484 10.2539 31.7578 10.7031 30.9766 10.7031C30.1953 10.7031 29.6289 10.1758 29.6289 9.39453C29.6289 8.20312 30.8008 7.53906 32.8516 7.53906C34.5898 7.53906 35.8789 8.4375 35.8789 9.58984C35.8789 10.2539 35.4688 10.7617 34.9219 10.7617C34.0234 10.7617 33.5547 10.2539 33.0273 10.2539ZM25.4297 50.8789C39.4727 50.8789 50.8789 39.4922 50.8789 25.4492C50.8789 11.4062 39.4727 0 25.4297 0C11.3867 0 0 11.4062 0 25.4492C0 39.4922 11.3867 50.8789 25.4297 50.8789ZM25.4297 47.9102C13.0273 47.9102 2.96875 37.8516 2.96875 25.4492C2.96875 13.0273 13.0273 2.96875 25.4297 2.96875C37.8516 2.96875 47.9102 13.0273 47.9102 25.4492C47.9102 37.8516 37.8516 47.9102 25.4297 47.9102Z" fill="black" fill-opacity="0.85"/>
 </g>
</svg>
