<?xml version="1.0" encoding="UTF-8"?>
<!--Generator: Apple Native CoreSVG 326-->
<!DOCTYPE svg
PUBLIC "-//W3C//DTD SVG 1.1//EN"
       "http://www.w3.org/Graphics/SVG/1.1/DTD/svg11.dtd">
<svg version="1.1" xmlns="http://www.w3.org/2000/svg" xmlns:xlink="http://www.w3.org/1999/xlink" viewBox="0 0 51.25 50.918">
 <g>
  <rect height="50.918" opacity="0" width="51.25" x="0" y="0"/>
  <path d="M25.4297 49.7461C32.2461 49.7461 37.9883 39.6094 37.9883 25.5078C37.9883 11.3477 32.2656 1.19141 25.4297 1.19141C18.6133 1.19141 12.8711 11.3477 12.8711 25.5078C12.8711 39.6094 18.6328 49.7461 25.4297 49.7461ZM25.4297 3.82812C30.5273 3.82812 35.0586 13.7109 35.0586 25.5078C35.0586 36.9922 30.5273 47.1094 25.4297 47.1094C20.3516 47.1094 15.8008 36.9922 15.8008 25.5078C15.8008 13.7109 20.3516 3.82812 25.4297 3.82812ZM24.0039 1.5625L24.0039 49.2383L26.875 49.2383L26.875 1.5625ZM25.4297 35.293C17.7539 35.293 10.9961 37.3047 7.46094 40.4297L9.64844 42.2266C13.0469 39.6289 18.4961 38.1641 25.4297 38.1641C32.3828 38.1641 37.832 39.6289 41.2305 42.2266L43.418 40.4297C39.8828 37.3047 33.125 35.293 25.4297 35.293ZM48.8086 24.0039L2.07031 24.0039L2.07031 26.875L48.8086 26.875ZM25.4297 15.7227C33.125 15.7227 39.8828 13.7109 43.418 10.5859L41.2305 8.78906C37.832 11.3867 32.3828 12.8516 25.4297 12.8516C18.4961 12.8516 13.0469 11.3867 9.64844 8.78906L7.46094 10.5859C10.9961 13.7109 17.7539 15.7227 25.4297 15.7227ZM25.4297 50.8789C39.4727 50.8789 50.8789 39.4922 50.8789 25.4492C50.8789 11.4062 39.4727 0 25.4297 0C11.3867 0 0 11.4062 0 25.4492C0 39.4922 11.3867 50.8789 25.4297 50.8789ZM25.4297 47.9102C13.0273 47.9102 2.96875 37.8516 2.96875 25.4492C2.96875 13.0273 13.0273 2.96875 25.4297 2.96875C37.8516 2.96875 47.9102 13.0273 47.9102 25.4492C47.9102 37.8516 37.8516 47.9102 25.4297 47.9102Z" fill="black" fill-opacity="0.85"/>
 </g>
</svg>
