<?xml version="1.0" encoding="UTF-8"?>
<!--Generator: Apple Native CoreSVG 326-->
<!DOCTYPE svg
PUBLIC "-//W3C//DTD SVG 1.1//EN"
       "http://www.w3.org/Graphics/SVG/1.1/DTD/svg11.dtd">
<svg version="1.1" xmlns="http://www.w3.org/2000/svg" xmlns:xlink="http://www.w3.org/1999/xlink" viewBox="0 0 51.25 50.918">
 <g>
  <rect height="50.918" opacity="0" width="51.25" x="0" y="0"/>
  <path d="M26.7578 44.6875C31.4648 44.6875 35.4688 37.4414 36.5039 35.7422C37.793 33.6328 37.207 31.5234 37.207 30.2734C37.207 29.3555 39.8633 27.5586 39.8633 25.2539C39.8633 22.8711 34.6875 21.1914 34.6875 20.0781C34.6875 19.4141 35.2539 18.5938 35.8398 18.5938C36.8945 18.5938 39.5508 22.1094 41.2109 22.1094C42.207 22.1094 42.4023 21.25 42.9102 21.25C43.5938 21.25 44.2383 28.5547 47.5391 30.1953L48.4766 28.1445C45.3516 27.0898 46.4453 18.75 43.2031 18.75C42.0703 18.75 41.5039 19.7461 40.9766 19.7461C40.6445 19.7461 39.9219 19.1406 38.4766 17.9297C37.7539 17.3438 37.0312 16.6211 35.7031 16.6211C34.1406 16.6211 32.5781 18.418 32.5781 20.0977C32.5781 22.8711 37.5977 24.1016 37.5977 25.2539C37.5977 25.8594 37.3242 26.3477 36.3867 27.4219C35.3711 28.5742 34.9219 29.3164 34.9219 30.2734C34.9219 30.6836 34.9609 31.0742 34.9805 31.4648C35.1367 33.2227 35.0195 33.8672 34.4922 34.7461C33.3008 36.6016 30 42.4219 26.7578 42.4219C23.75 42.4219 24.043 38.2031 24.043 34.4141C24.043 30.8008 21.1719 28.1055 17.3633 28.1055C14.2773 28.1055 12.7734 26.6016 12.7734 23.6719C12.7734 19.7461 16.875 16.9727 20.9961 16.9727C23.5938 16.9727 25.7031 18.3789 27.793 18.3789C29.4336 18.3789 30.5469 16.0352 30.5469 14.1211C30.5469 11.8164 25.7422 9.31641 24.2188 9.31641C23.0469 9.31641 22.5977 10 22.3242 11.5234L22.832 11.4453L22.0312 10.8594C20.9961 10.1367 20.1367 9.6875 19.1992 9.6875C16.7773 9.6875 16.6797 12.8711 15.3125 12.8711C14.9219 12.8711 14.6875 12.6367 14.6875 12.2461C14.6875 11.0156 17.4023 8.78906 17.4414 5.48828L17.4609 3.59375L15.293 3.59375L15.293 5.66406C15.293 8.88672 12.5586 10.1562 12.5586 12.4414C12.5586 13.8672 13.5547 14.7852 15.0781 14.7852C17.9883 14.7852 17.9492 11.6406 19.3555 11.6406C20.4102 11.6797 21.4844 13.2617 23.2031 13.2617C24.3359 13.2617 24.8242 12.5586 24.9805 11.1328L24.2578 11.3281C25.6641 11.8555 28.3789 13.125 28.3789 14.3359C28.3789 15.0977 28.1055 16.0938 27.4805 16.0938C26.3477 16.0938 23.5156 14.6875 20.9961 14.6875C15.6641 14.6875 10.5078 18.5156 10.5078 23.6719C10.5078 27.8711 13.0078 30.3711 17.3633 30.3711C19.9023 30.3711 21.7578 32.0703 21.7578 34.4141C21.7578 38.1641 21.3477 44.6875 26.7578 44.6875ZM33.3984 10.1367C33.9258 10.1367 34.4141 10.6445 35.332 10.6445C35.918 10.6445 36.3281 10.1367 36.3281 9.45312C36.3281 8.26172 34.9805 7.34375 33.2031 7.34375C31.0938 7.34375 29.9023 8.02734 29.9023 9.23828C29.9023 10.0391 30.4883 10.5859 31.2891 10.5859C32.1094 10.5859 32.4805 10.1367 33.3984 10.1367ZM25.4297 50.8789C39.4727 50.8789 50.8789 39.4922 50.8789 25.4492C50.8789 11.4062 39.4727 0 25.4297 0C11.3867 0 0 11.4062 0 25.4492C0 39.4922 11.3867 50.8789 25.4297 50.8789ZM25.4297 47.9102C13.0273 47.9102 2.96875 37.8516 2.96875 25.4492C2.96875 13.0273 13.0273 2.96875 25.4297 2.96875C37.8516 2.96875 47.9102 13.0273 47.9102 25.4492C47.9102 37.8516 37.8516 47.9102 25.4297 47.9102Z" fill="black" fill-opacity="0.85"/>
 </g>
</svg>
