<?xml version="1.0" encoding="UTF-8"?>
<!--Generator: Apple Native CoreSVG 326-->
<!DOCTYPE svg
PUBLIC "-//W3C//DTD SVG 1.1//EN"
       "http://www.w3.org/Graphics/SVG/1.1/DTD/svg11.dtd">
<svg version="1.1" xmlns="http://www.w3.org/2000/svg" xmlns:xlink="http://www.w3.org/1999/xlink" viewBox="0 0 72.88 45.1367">
 <g>
  <rect height="45.1367" opacity="0" width="72.88" x="0" y="0"/>
  <path d="M65.4537 3.47656C67.0552 3.47656 68.6373 3.67188 70.1607 4.0625C72.6021 4.66797 73.5591 1.36719 70.9224 0.664062C69.4966 0.273438 67.4654 0 65.4537 0C51.5474 0 40.0826 12.7344 40.0826 28.0469C40.0826 38.2227 44.3404 45.0977 50.8443 45.0977C57.3482 45.0977 61.6255 38.2227 61.6255 28.0469C61.6255 12.7344 50.1998 0 36.2545 0C22.3091 0 10.8834 12.7344 10.8834 28.0469C10.8834 38.2227 15.1607 45.0977 21.6646 45.0977C28.149 45.0977 32.4263 38.2227 32.4263 28.0469C32.4263 12.7344 20.942 0 7.0357 0C5.04351 0 3.01226 0.273438 1.58648 0.664062C-1.06977 1.36719-0.0932048 4.66797 2.32867 4.0625C3.85211 3.67188 5.43414 3.47656 7.0357 3.47656C19.0084 3.47656 28.9693 14.6094 28.9693 28.0469C28.9693 36.2305 26.0005 41.6406 21.6646 41.6406C17.3287 41.6406 14.3404 36.2109 14.3404 28.0469C14.3404 14.6094 24.2818 3.47656 36.2545 3.47656C48.2076 3.47656 58.1685 14.6094 58.1685 28.0469C58.1685 36.2109 55.1607 41.6406 50.8443 41.6406C46.5084 41.6406 43.5396 36.2305 43.5396 28.0469C43.5396 14.6094 53.5005 3.47656 65.4537 3.47656Z" fill="black" fill-opacity="0.85"/>
 </g>
</svg>
