<?xml version="1.0" encoding="UTF-8"?>
<!--Generator: Apple Native CoreSVG 326-->
<!DOCTYPE svg
PUBLIC "-//W3C//DTD SVG 1.1//EN"
       "http://www.w3.org/Graphics/SVG/1.1/DTD/svg11.dtd">
<svg version="1.1" xmlns="http://www.w3.org/2000/svg" xmlns:xlink="http://www.w3.org/1999/xlink" viewBox="0 0 68.4766 70.6445">
 <g>
  <rect height="70.6445" opacity="0" width="68.4766" x="0" y="0"/>
  <path d="M34.0625 43.75C36.1523 43.7891 38.2422 43.2617 40.918 42.0312L65.8594 30.625C67.3438 29.9414 68.1055 28.6328 68.1055 27.2461C68.1055 25.8789 67.3438 24.5312 65.8594 23.8477L40.918 12.4414C38.2422 11.2305 36.1523 10.7031 34.0625 10.7227C31.9531 10.7031 29.8828 11.2305 27.207 12.4414L2.26562 23.8477C0.761719 24.5312 0 25.8789 0 27.2461C0 28.6328 0.761719 29.9414 2.26562 30.625L27.207 42.0312C29.8828 43.2617 31.9531 43.7891 34.0625 43.75ZM34.0625 40.3516C32.3438 40.3516 30.7031 39.9414 28.5156 38.9258L4.86328 28.125C4.39453 27.9102 4.16016 27.5977 4.16016 27.2461C4.16016 26.875 4.39453 26.5625 4.86328 26.3477L28.5156 15.5664C30.7031 14.5508 32.3438 14.1406 34.0625 14.1406C35.7812 14.1406 37.4023 14.5508 39.5898 15.5664L63.2617 26.3477C63.7109 26.5625 63.9453 26.875 63.9453 27.2461C63.9453 27.5977 63.7109 27.9102 63.2617 28.125L39.5898 38.9258C37.4023 39.9414 35.7812 40.3516 34.0625 40.3516ZM10.1367 46.1328C10.1367 53.0469 19.3555 59.5117 34.0625 59.5117C48.75 59.5117 57.9688 53.0469 57.9688 46.1328L57.9688 33.0273L54.5117 33.0273L54.5117 46.1328C54.5117 51.0742 46.6797 56.2305 34.0625 56.2305C21.4453 56.2305 13.6133 51.0742 13.6133 46.1328L13.6133 33.0273L10.1367 33.0273ZM34.1406 29.9609C36.875 29.9609 39.3555 28.75 39.3555 27.2266C39.3555 25.7617 36.875 24.5508 34.1406 24.5508C31.3867 24.5508 28.8867 25.7617 28.8867 27.2266C28.8867 28.75 31.3867 29.9609 34.1406 29.9609ZM18.4961 36.5039L33.8086 28.6328L32.6172 26.3867L15.6445 35ZM15.6445 60.7227L18.4961 60.7227L18.4961 36.5039L15.6445 35.0977ZM13.6719 60.918L13.6719 67.5977C13.6719 69.4727 14.8438 70.6445 16.7188 70.6445L17.4023 70.6445C19.2578 70.6445 20.4492 69.4727 20.4492 67.5977L20.4492 60.918C20.4492 59.0625 19.2578 57.8906 17.4023 57.8906L16.7188 57.8906C14.8438 57.8906 13.6719 59.0625 13.6719 60.918Z" fill="black" fill-opacity="0.85"/>
 </g>
</svg>
