<?xml version="1.0" encoding="UTF-8"?>
<!--Generator: Apple Native CoreSVG 326-->
<!DOCTYPE svg
PUBLIC "-//W3C//DTD SVG 1.1//EN"
       "http://www.w3.org/Graphics/SVG/1.1/DTD/svg11.dtd">
<svg version="1.1" xmlns="http://www.w3.org/2000/svg" xmlns:xlink="http://www.w3.org/1999/xlink" viewBox="0 0 46.2891 45.918">
 <g>
  <rect height="45.918" opacity="0" width="46.2891" x="0" y="0"/>
  <path d="M45.918 7.53906L45.918 38.3984C45.918 43.3594 43.3594 45.918 38.3008 45.918L7.59766 45.918C2.55859 45.918 0 43.3984 0 38.3984L0 7.53906C0 2.53906 2.55859 0 7.59766 0L38.3008 0C43.3594 0 45.918 2.55859 45.918 7.53906ZM14.5508 14.2383C14.5508 15.0781 14.9609 15.625 15.8594 16.0742L29.0625 22.8125L29.0625 22.9688L15.8594 29.6094C14.9414 30.0391 14.5508 30.5664 14.5508 31.4062C14.5508 32.4219 15.332 33.2031 16.4062 33.2031C16.8555 33.2031 17.1484 33.0859 17.5 32.9102L32.6758 24.9219C33.5742 24.4531 33.9844 23.8867 33.9844 22.9492C33.9844 22.1094 33.5352 21.4648 32.6758 20.9766L17.5 12.7539C17.1289 12.5781 16.8555 12.4805 16.3672 12.4805C15.3125 12.4805 14.5508 13.2422 14.5508 14.2383Z" fill="black" fill-opacity="0.85"/>
 </g>
</svg>
