<?xml version="1.0" encoding="UTF-8"?>
<!--Generator: Apple Native CoreSVG 326-->
<!DOCTYPE svg
PUBLIC "-//W3C//DTD SVG 1.1//EN"
       "http://www.w3.org/Graphics/SVG/1.1/DTD/svg11.dtd">
<svg version="1.1" xmlns="http://www.w3.org/2000/svg" xmlns:xlink="http://www.w3.org/1999/xlink" viewBox="0 0 51.25 50.918">
 <g>
  <rect height="50.918" opacity="0" width="51.25" x="0" y="0"/>
  <path d="M25.4297 50.8789C39.4727 50.8789 50.8789 39.4922 50.8789 25.4492C50.8789 11.4062 39.4727 0 25.4297 0C11.3867 0 0 11.4062 0 25.4492C0 39.4922 11.3867 50.8789 25.4297 50.8789ZM25.4297 47.2461C13.3789 47.2461 3.63281 37.5 3.63281 25.4492C3.63281 13.3984 13.3789 3.65234 25.4297 3.65234C37.4805 3.65234 47.2266 13.3984 47.2266 25.4492C47.2266 37.5 37.4805 47.2461 25.4297 47.2461Z" fill="black" fill-opacity="0.85"/>
  <path d="M34.6484 35.918C34.6484 35.0586 33.9453 34.3359 33.0469 34.3359L18.4375 34.3359C17.5586 34.3359 16.8555 35.0586 16.8555 35.918C16.8555 36.7188 17.5586 37.4805 18.4375 37.4805L33.0469 37.4805C33.9453 37.4805 34.6484 36.7188 34.6484 35.918ZM19.2188 30.0586C19.4727 30.0586 19.7266 29.9805 20.2148 29.7461L33.0273 23.9062C34.0625 23.4766 34.4141 22.8125 34.4141 21.875C34.4141 21.0352 34.043 20.3125 33.0273 19.8438L20.2148 14.0234C19.7266 13.8086 19.4727 13.7305 19.2188 13.7305C18.2422 13.7305 17.5977 14.4727 17.5977 15.293C17.5977 15.9375 17.9688 16.5234 18.6133 16.8359L29.7656 21.8359L29.7656 21.9336L18.6133 26.9531C17.9688 27.2266 17.5977 27.832 17.5977 28.4766C17.5977 29.2969 18.2422 30.0586 19.2188 30.0586Z" fill="black" fill-opacity="0.85"/>
 </g>
</svg>
