<?xml version="1.0" encoding="UTF-8"?>
<!--Generator: Apple Native CoreSVG 326-->
<!DOCTYPE svg
PUBLIC "-//W3C//DTD SVG 1.1//EN"
       "http://www.w3.org/Graphics/SVG/1.1/DTD/svg11.dtd">
<svg version="1.1" xmlns="http://www.w3.org/2000/svg" xmlns:xlink="http://www.w3.org/1999/xlink" viewBox="0 0 51.25 50.918">
 <g>
  <rect height="50.918" opacity="0" width="51.25" x="0" y="0"/>
  <path d="M50.8789 25.4492C50.8789 39.4531 39.4531 50.8789 25.4297 50.8789C11.4258 50.8789 0 39.4531 0 25.4492C0 11.4258 11.4258 0 25.4297 0C39.4531 0 50.8789 11.4258 50.8789 25.4492ZM17.0117 16.7383C17.0117 17.5781 17.4219 18.125 18.3203 18.5742L31.543 25.3125L31.543 25.4688L18.3203 32.1094C17.4023 32.5391 17.0117 33.0664 17.0117 33.9062C17.0117 34.9219 17.793 35.7031 18.8672 35.7031C19.3164 35.7031 19.6094 35.5859 19.9609 35.4102L35.1367 27.4219C36.0547 26.9531 36.4453 26.3867 36.4453 25.4492C36.4453 24.6094 36.0156 23.9648 35.1367 23.4766L19.9609 15.2539C19.5898 15.0781 19.3164 14.9805 18.8281 14.9805C17.7734 14.9805 17.0117 15.7422 17.0117 16.7383Z" fill="black" fill-opacity="0.85"/>
 </g>
</svg>
