<?xml version="1.0" encoding="UTF-8"?>
<!--Generator: Apple Native CoreSVG 326-->
<!DOCTYPE svg
PUBLIC "-//W3C//DTD SVG 1.1//EN"
       "http://www.w3.org/Graphics/SVG/1.1/DTD/svg11.dtd">
<svg version="1.1" xmlns="http://www.w3.org/2000/svg" xmlns:xlink="http://www.w3.org/1999/xlink" viewBox="0 0 51.25 50.918">
 <g>
  <rect height="50.918" opacity="0" width="51.25" x="0" y="0"/>
  <path d="M25.4297 50.8789C39.4727 50.8789 50.8789 39.4922 50.8789 25.4492C50.8789 11.4062 39.4727 0 25.4297 0C11.3867 0 0 11.4062 0 25.4492C0 39.4922 11.3867 50.8789 25.4297 50.8789ZM25.4297 47.2461C13.3789 47.2461 3.63281 37.5 3.63281 25.4492C3.63281 13.3984 13.3789 3.65234 25.4297 3.65234C37.4805 3.65234 47.2266 13.3984 47.2266 25.4492C47.2266 37.5 37.4805 47.2461 25.4297 47.2461Z" fill="black" fill-opacity="0.85"/>
  <path d="M19.0039 35.4102C19.4336 35.4102 19.7266 35.332 20.0586 35.1562L34.8633 27.3633C35.7422 26.8945 36.1328 26.3477 36.1328 25.4492C36.1328 24.6289 35.7031 24.0234 34.8633 23.5352L20.0586 15.5078C19.707 15.332 19.4336 15.2539 18.9648 15.2539C17.9492 15.2539 17.207 15.9961 17.207 16.9531C17.207 17.7539 17.5977 18.2812 18.4766 18.7305L31.3672 25.3125L31.3672 25.4688L18.4766 31.9531C17.5781 32.3828 17.207 32.8711 17.207 33.6914C17.207 34.6875 17.9883 35.4102 19.0039 35.4102Z" fill="black" fill-opacity="0.85"/>
 </g>
</svg>
