<?xml version="1.0" encoding="UTF-8"?>
<!--Generator: Apple Native CoreSVG 326-->
<!DOCTYPE svg
PUBLIC "-//W3C//DTD SVG 1.1//EN"
       "http://www.w3.org/Graphics/SVG/1.1/DTD/svg11.dtd">
<svg version="1.1" xmlns="http://www.w3.org/2000/svg" xmlns:xlink="http://www.w3.org/1999/xlink" viewBox="0 0 46.2891 45.918">
 <g>
  <rect height="45.918" opacity="0" width="46.2891" x="0" y="0"/>
  <path d="M45.918 7.53906L45.918 38.3984C45.918 43.3594 43.3594 45.918 38.3008 45.918L7.59766 45.918C2.55859 45.918 0 43.3984 0 38.3984L0 7.53906C0 2.53906 2.55859 0 7.59766 0L38.3008 0C43.3594 0 45.918 2.55859 45.918 7.53906ZM15.8203 32.0312C14.9023 32.0312 14.1602 32.7734 14.1602 33.6719C14.1602 34.4922 14.9023 35.2734 15.8203 35.2734L30.7812 35.2734C31.7188 35.2734 32.4414 34.4922 32.4414 33.6719C32.4414 32.7734 31.7188 32.0312 30.7812 32.0312ZM14.9414 12.5391C14.9414 13.2031 15.3125 13.8086 15.9961 14.1406L27.3828 19.2383L27.3828 19.3359L15.9961 24.4727C15.3125 24.7461 14.9414 25.3711 14.9414 26.0352C14.9414 26.875 15.625 27.6758 16.6211 27.6758C16.8945 27.6758 17.1484 27.5977 17.6562 27.3438L30.7617 21.3867C31.8359 20.9375 32.1875 20.2539 32.1875 19.2773C32.1875 18.418 31.8164 17.6758 30.7617 17.1875L17.6562 11.2109C17.1484 10.9961 16.8945 10.9375 16.6211 10.9375C15.625 10.9375 14.9414 11.6992 14.9414 12.5391Z" fill="black" fill-opacity="0.85"/>
 </g>
</svg>
