<?xml version="1.0" encoding="UTF-8"?>
<!--Generator: Apple Native CoreSVG 326-->
<!DOCTYPE svg
PUBLIC "-//W3C//DTD SVG 1.1//EN"
       "http://www.w3.org/Graphics/SVG/1.1/DTD/svg11.dtd">
<svg version="1.1" xmlns="http://www.w3.org/2000/svg" xmlns:xlink="http://www.w3.org/1999/xlink" viewBox="0 0 40.3906 55.6489">
 <g>
  <rect height="55.6489" opacity="0" width="40.3906" x="0" y="0"/>
  <path d="M4.55078 50.6272L32.168 55.4905C37.0312 56.3499 40.0195 53.6741 40.0195 48.4202L40.0195 17.7952C40.0195 13.1272 37.6172 11.2913 32.832 10.4319L5.9375 5.68579C2.32422 5.06079 0 6.93579 0 10.4319L0 45.3342C0 48.342 1.50391 50.0999 4.55078 50.6272ZM6.21094 20.217L6.21094 15.0999C6.21094 13.1858 7.46094 12.3655 9.45312 12.717L14.5312 13.5959C16.2305 13.9084 15.8203 16.7209 13.9648 16.3889L10.4883 15.7834C9.55078 15.6272 9.08203 15.9592 9.08203 16.7991L9.08203 20.3147C9.08203 22.0725 6.21094 22.0725 6.21094 20.217ZM30.7812 24.4749L30.7812 21.1936C30.7812 20.1975 30.3906 19.2795 28.7109 18.9866L26.6211 18.6155C24.5703 18.2444 25.0781 15.4514 27.0508 15.803L29.6094 16.2522C32.4609 16.76 33.6523 18.01 33.6523 20.3928L33.6523 24.4749C33.6523 26.5061 30.7812 26.3108 30.7812 24.4749ZM9.08203 36.9163L9.08203 40.217C9.08203 41.1936 9.47266 42.1116 11.1523 42.4241L13.2422 42.7756C15.293 43.1272 14.7852 45.9397 12.8125 45.5881L10.2539 45.1389C7.40234 44.6506 6.21094 43.3811 6.21094 40.9983L6.21094 36.9163C6.21094 34.9045 9.08203 35.0803 9.08203 36.9163ZM33.6523 41.1741L33.6523 46.2913C33.6523 48.2053 32.4023 49.0256 30.4102 48.6936L25.332 47.7952C23.6328 47.4827 24.043 44.6897 25.8984 45.0022L29.375 45.6272C30.3125 45.7834 30.7812 45.4319 30.7812 44.6116L30.7812 41.0764C30.7812 39.3186 33.6523 39.3381 33.6523 41.1741ZM11.1914 3.45923L33.3789 7.36548C35.3711 7.73657 37.0312 8.26391 38.3984 9.02563L38.3984 6.66235C38.3984 1.64282 35.0391-0.739993 29.3555 0.2561Z" fill="black" fill-opacity="0.85"/>
 </g>
</svg>
