<?xml version="1.0" encoding="UTF-8"?>
<!--Generator: Apple Native CoreSVG 326-->
<!DOCTYPE svg
PUBLIC "-//W3C//DTD SVG 1.1//EN"
       "http://www.w3.org/Graphics/SVG/1.1/DTD/svg11.dtd">
<svg version="1.1" xmlns="http://www.w3.org/2000/svg" xmlns:xlink="http://www.w3.org/1999/xlink" viewBox="0 0 41.6602 56.0842">
 <g>
  <rect height="56.0842" opacity="0" width="41.6602" x="0" y="0"/>
  <path d="M4.72656 50.9034L33.1836 55.923C38.2031 56.8019 41.2891 54.048 41.2891 48.6378L41.2891 17.4073C41.2891 12.5831 38.7891 10.6886 33.8477 9.82922L6.13281 4.94641C2.40234 4.26281 0 6.23547 0 9.82922L0 45.4347C0 48.5402 1.5625 50.3566 4.72656 50.9034ZM5.52734 47.4855C4.14062 47.2511 3.45703 46.4503 3.45703 44.9659L3.45703 10.4152C3.45703 8.87219 4.49219 8.11047 6.17188 8.40344L33.6719 13.2277C36.4258 13.7159 37.832 14.9073 37.832 17.3097L37.832 48.3058C37.832 51.3527 36.0156 52.8761 33.1055 52.3683ZM35.5859 12.6417L39.043 12.6417L39.043 6.66516C39.043 1.64563 35.6641-0.756718 30 0.258907L3.63281 4.90734L4.88281 7.91516L31.1914 3.50109C33.9453 3.03234 35.5859 4.16516 35.5859 6.5675ZM6.93359 20.0831C6.93359 21.9191 9.78516 21.9386 9.78516 20.1808L9.78516 16.6456C9.78516 15.8253 10.2734 15.4738 11.2109 15.63L14.6875 16.255C16.543 16.5675 16.9336 13.7745 15.2344 13.462L10.1562 12.5831C8.16406 12.2316 6.93359 13.0519 6.93359 14.9659ZM31.5039 24.3409C31.5039 26.1769 34.3555 26.3527 34.3555 24.3409L34.3555 20.2589C34.3555 17.8761 33.1641 16.6261 30.3125 16.1183L27.7734 15.6691C25.7812 15.3175 25.2734 18.1105 27.3242 18.4816L29.4141 18.8331C31.0938 19.1456 31.5039 20.0636 31.5039 21.0402ZM9.78516 36.7823C9.78516 34.9464 6.93359 34.7511 6.93359 36.7823L6.93359 40.8644C6.93359 43.2472 8.125 44.5167 10.9766 45.005L13.5156 45.4542C15.5078 45.7863 16.0156 42.9933 13.9648 42.6417L11.875 42.2902C10.1953 41.9777 9.78516 41.0597 9.78516 40.0636ZM34.3555 41.0402C34.3555 39.2042 31.5039 39.1847 31.5039 40.9425L31.5039 44.4581C31.5039 45.298 31.0156 45.63 30.0781 45.4738L26.6016 44.8683C24.7656 44.5363 24.3555 47.3488 26.0547 47.6613L31.1328 48.5402C33.125 48.8917 34.3555 48.0714 34.3555 46.1573Z" fill="black" fill-opacity="0.85"/>
 </g>
</svg>
