<?xml version="1.0" encoding="UTF-8"?>
<!--Generator: Apple Native CoreSVG 326-->
<!DOCTYPE svg
PUBLIC "-//W3C//DTD SVG 1.1//EN"
       "http://www.w3.org/Graphics/SVG/1.1/DTD/svg11.dtd">
<svg version="1.1" xmlns="http://www.w3.org/2000/svg" xmlns:xlink="http://www.w3.org/1999/xlink" viewBox="0 0 55.5273 53.1055">
 <g>
  <rect height="53.1055" opacity="0" width="55.5273" x="0" y="0"/>
  <path d="M30.5273 0.839844L52.1094 13.3008C52.8906 13.75 53.2422 14.3164 53.2422 14.9609C53.2422 15.8398 52.5781 16.6797 51.3867 16.6797L49.1211 16.6797L49.1211 46.5039L50.7227 46.5039C51.582 46.5039 52.0898 47.0117 52.0898 47.8516L52.0898 49.6094L53.418 49.6094C54.375 49.6094 55.1562 50.3906 55.1562 51.3477C55.1562 52.2852 54.375 53.0664 53.418 53.0664L1.73828 53.0664C0.78125 53.0664 0 52.2852 0 51.3477C0 50.3906 0.78125 49.6094 1.73828 49.6094L3.06641 49.6094L3.06641 47.8516C3.06641 47.0117 3.57422 46.5039 4.45312 46.5039L6.05469 46.5039L6.05469 16.6797L3.76953 16.6797C2.57812 16.6797 1.91406 15.8398 1.91406 14.9609C1.91406 14.3164 2.24609 13.75 3.04688 13.3008L24.6289 0.839844C25.5664 0.292969 26.6016 0 27.5781 0C28.5547 0 29.5703 0.292969 30.5273 0.839844ZM26.8555 15.0586L26.8555 17.2266C20.9961 17.6562 17.8711 22.4414 17.8711 28.5352C17.8711 34.7852 21.1133 39.4531 26.8555 39.8828L26.8555 42.1484C26.8555 42.5977 27.1875 42.9492 27.6758 42.9492C28.125 42.9492 28.457 42.5977 28.457 42.1484L28.457 39.9219C33.5547 39.6484 36.6602 36.3867 36.6602 30.8008L36.6602 29.6094C36.6602 28.7305 36.1133 28.1836 35.293 28.1836L28.457 28.1836L28.457 19.5703C31.0156 19.8047 33.125 21.4062 33.75 23.6523C34.0039 24.3555 34.2969 24.6484 35.0586 24.6484C35.7812 24.6484 36.2305 24.1992 36.2305 23.4766C36.2305 23.1641 36.1914 22.7734 36.0156 22.3438C34.8633 19.1406 31.6602 17.4414 28.457 17.2266L28.457 15.0586C28.457 14.5898 28.125 14.2383 27.6758 14.2383C27.1875 14.2383 26.8555 14.5898 26.8555 15.0586ZM34.043 31.3867C34.043 34.8242 32.0117 37.3047 28.457 37.5391L28.457 30.3711L34.043 30.3711ZM26.8555 37.5195C22.7344 36.9922 20.6641 33.1445 20.6641 28.5156C20.6641 24.1406 22.5586 20.0977 26.8555 19.6094Z" fill="black" fill-opacity="0.85"/>
 </g>
</svg>
