<?xml version="1.0" encoding="UTF-8"?>
<!--Generator: Apple Native CoreSVG 326-->
<!DOCTYPE svg
PUBLIC "-//W3C//DTD SVG 1.1//EN"
       "http://www.w3.org/Graphics/SVG/1.1/DTD/svg11.dtd">
<svg version="1.1" xmlns="http://www.w3.org/2000/svg" xmlns:xlink="http://www.w3.org/1999/xlink" viewBox="0 0 36.7773 56.0352">
 <g>
  <rect height="56.0352" opacity="0" width="36.7773" x="0" y="0"/>
  <path d="M19.2773 50.2148C30.5078 50.2148 36.4062 43.2227 36.4062 32.4023L36.4062 29.7656C36.4062 28.2031 35.4492 27.4414 34.1797 27.4414L19.9219 27.4414L19.9219 31.1328L32.2266 31.1328L32.2266 33.3008C32.2266 40.8984 27.4805 46.3867 19.2969 46.3867C9.33594 46.3867 4.45312 37.9688 4.45312 27.7539C4.45312 17.6562 9.39453 9.375 19.2773 9.375C25.1367 9.375 30.4102 12.8711 31.6797 18.2617C32.0898 19.4336 32.5586 20.0391 33.8281 20.0391C34.9609 20.0391 35.7617 19.2773 35.7617 18.1055C35.7617 17.4219 35.5859 16.6211 35.3711 15.957C33.0469 9.19922 26.3281 5.52734 19.2773 5.52734C6.75781 5.52734 0 15.0391 0 27.7539C0 40.5469 6.66016 50.2148 19.2773 50.2148ZM19.0039 56.0352C19.8633 56.0352 20.4492 55.4492 20.4492 54.5898L20.4492 1.44531C20.4492 0.605469 19.8633 0.0195312 19.0039 0.0195312C18.1641 0.0195312 17.5781 0.605469 17.5781 1.44531L17.5781 54.5898C17.5781 55.4492 18.1641 56.0352 19.0039 56.0352Z" fill="black" fill-opacity="0.85"/>
 </g>
</svg>
