<?xml version="1.0" encoding="UTF-8"?>
<!--Generator: Apple Native CoreSVG 326-->
<!DOCTYPE svg
PUBLIC "-//W3C//DTD SVG 1.1//EN"
       "http://www.w3.org/Graphics/SVG/1.1/DTD/svg11.dtd">
<svg version="1.1" xmlns="http://www.w3.org/2000/svg" xmlns:xlink="http://www.w3.org/1999/xlink" viewBox="0 0 46.2891 45.918">
 <g>
  <rect height="45.918" opacity="0" width="46.2891" x="0" y="0"/>
  <path d="M45.918 7.53906L45.918 38.3984C45.918 43.3594 43.3594 45.918 38.3008 45.918L7.59766 45.918C2.55859 45.918 0 43.3984 0 38.3984L0 7.53906C0 2.53906 2.55859 0 7.59766 0L38.3008 0C43.3594 0 45.918 2.55859 45.918 7.53906ZM22.2266 9.33594L22.2266 11.5234C16.3672 11.9531 13.2617 16.7188 13.2617 22.8125C13.2617 29.082 16.4844 33.7305 22.2266 34.1797L22.2266 36.4453C22.2266 36.8945 22.5586 37.2266 23.0469 37.2266C23.4961 37.2266 23.8477 36.8945 23.8477 36.4453L23.8477 34.1992C28.9453 33.9258 32.0312 30.6641 32.0312 25.0781L32.0312 23.8867C32.0312 23.0273 31.4844 22.4805 30.6836 22.4805L23.8477 22.4805L23.8477 13.8672C26.3867 14.1016 28.5156 15.6836 29.1211 17.9492C29.375 18.6328 29.6875 18.9258 30.4492 18.9258C31.1523 18.9258 31.6211 18.4766 31.6211 17.7734C31.6211 17.4414 31.5625 17.0508 31.3867 16.6211C30.2344 13.418 27.0312 11.7383 23.8477 11.5039L23.8477 9.33594C23.8477 8.86719 23.4961 8.53516 23.0469 8.53516C22.5586 8.53516 22.2266 8.86719 22.2266 9.33594ZM29.4336 25.6641C29.4336 29.1211 27.4023 31.6016 23.8477 31.8359L23.8477 24.668L29.4336 24.668ZM22.2266 31.7969C18.1055 31.2891 16.0352 27.4414 16.0352 22.793C16.0352 18.4375 17.9492 14.3945 22.2266 13.8867Z" fill="black" fill-opacity="0.85"/>
 </g>
</svg>
