<?xml version="1.0" encoding="UTF-8"?>
<!--Generator: Apple Native CoreSVG 326-->
<!DOCTYPE svg
PUBLIC "-//W3C//DTD SVG 1.1//EN"
       "http://www.w3.org/Graphics/SVG/1.1/DTD/svg11.dtd">
<svg version="1.1" xmlns="http://www.w3.org/2000/svg" xmlns:xlink="http://www.w3.org/1999/xlink" viewBox="0 0 46.2891 45.918">
 <g>
  <rect height="45.918" opacity="0" width="46.2891" x="0" y="0"/>
  <path d="M7.59766 45.918L38.3008 45.918C43.3594 45.918 45.918 43.3594 45.918 38.3984L45.918 7.53906C45.918 2.55859 43.3594 0 38.3008 0L7.59766 0C2.55859 0 0 2.53906 0 7.53906L0 38.3984C0 43.3984 2.55859 45.918 7.59766 45.918ZM7.67578 42.4609C4.94141 42.4609 3.45703 41.0156 3.45703 38.2031L3.45703 7.71484C3.45703 4.92188 4.94141 3.45703 7.67578 3.45703L38.2422 3.45703C40.918 3.45703 42.4609 4.92188 42.4609 7.71484L42.4609 38.2031C42.4609 41.0156 40.918 42.4609 38.2422 42.4609Z" fill="black" fill-opacity="0.85"/>
  <path d="M23.1445 33.9258C28.5156 33.9258 31.7969 30.7031 31.7969 25.0195L31.7969 23.8672C31.7969 23.0273 31.2695 22.5 30.4883 22.5L23.6133 22.5L23.6133 24.6094L29.2578 24.6094L29.2578 25.5859C29.2578 29.1797 27.0508 31.6602 23.1641 31.6602C18.5156 31.6602 16.1914 27.6562 16.1914 22.793C16.1914 18.2227 18.3203 14.043 23.125 14.043C25.8984 14.043 28.3203 15.6445 28.9844 18.0664C29.2188 18.7305 29.5312 19.0234 30.2539 19.0234C30.9375 19.0234 31.4062 18.5742 31.4062 17.8906C31.4062 17.5781 31.3477 17.1875 31.1719 16.7773C29.9805 13.4375 26.4648 11.7578 23.125 11.7578C16.8359 11.7578 13.4961 16.582 13.4961 22.8125C13.4961 29.2383 16.9922 33.9258 23.1445 33.9258ZM23.0273 36.875C23.4766 36.875 23.8086 36.543 23.8086 36.1133L23.8086 9.66797C23.8086 9.19922 23.4766 8.88672 23.0273 8.88672C22.5586 8.88672 22.2461 9.19922 22.2461 9.66797L22.2461 36.1133C22.2461 36.543 22.5586 36.875 23.0273 36.875Z" fill="black" fill-opacity="0.85"/>
 </g>
</svg>
