<?xml version="1.0" encoding="UTF-8"?>
<!--Generator: Apple Native CoreSVG 326-->
<!DOCTYPE svg
PUBLIC "-//W3C//DTD SVG 1.1//EN"
       "http://www.w3.org/Graphics/SVG/1.1/DTD/svg11.dtd">
<svg version="1.1" xmlns="http://www.w3.org/2000/svg" xmlns:xlink="http://www.w3.org/1999/xlink" viewBox="0 0 51.25 50.918">
 <g>
  <rect height="50.918" opacity="0" width="51.25" x="0" y="0"/>
  <path d="M25.4297 50.8789C39.4727 50.8789 50.8789 39.4922 50.8789 25.4492C50.8789 11.4062 39.4727 0 25.4297 0C11.3867 0 0 11.4062 0 25.4492C0 39.4922 11.3867 50.8789 25.4297 50.8789ZM25.4297 47.2461C13.3789 47.2461 3.63281 37.5 3.63281 25.4492C3.63281 13.3984 13.3789 3.65234 25.4297 3.65234C37.4805 3.65234 47.2266 13.3984 47.2266 25.4492C47.2266 37.5 37.4805 47.2461 25.4297 47.2461Z" fill="black" fill-opacity="0.85"/>
  <path d="M17.5391 36.9336C18.6523 36.9336 19.2773 36.2305 19.2773 35.0391L19.2773 26.25L31.5234 26.25L31.5234 35.0391C31.5234 36.2109 32.168 36.9336 33.2227 36.9336C34.3359 36.9336 34.9609 36.2305 34.9609 35.0391L34.9609 15.5078C34.9609 14.2969 34.3359 13.6133 33.2227 13.6133C32.168 13.6133 31.5234 14.3164 31.5234 15.5078L31.5234 23.5156L19.2773 23.5156L19.2773 15.5078C19.2773 14.2969 18.6523 13.6133 17.5391 13.6133C16.4844 13.6133 15.8203 14.3164 15.8203 15.5078L15.8203 35.0391C15.8203 36.2109 16.4844 36.9336 17.5391 36.9336Z" fill="black" fill-opacity="0.85"/>
 </g>
</svg>
