<?xml version="1.0" encoding="UTF-8"?>
<!--Generator: Apple Native CoreSVG 326-->
<!DOCTYPE svg
PUBLIC "-//W3C//DTD SVG 1.1//EN"
       "http://www.w3.org/Graphics/SVG/1.1/DTD/svg11.dtd">
<svg version="1.1" xmlns="http://www.w3.org/2000/svg" xmlns:xlink="http://www.w3.org/1999/xlink" viewBox="0 0 51.25 50.918">
 <g>
  <rect height="50.918" opacity="0" width="51.25" x="0" y="0"/>
  <path d="M50.8789 25.4492C50.8789 39.4531 39.4531 50.8789 25.4297 50.8789C11.4258 50.8789 0 39.4531 0 25.4492C0 11.4258 11.4258 0 25.4297 0C39.4531 0 50.8789 11.4258 50.8789 25.4492ZM31.6797 15.293L31.6797 23.457L19.1602 23.457L19.1602 15.293C19.1602 14.0234 18.4961 13.3008 17.3633 13.3008C16.25 13.3008 15.5859 14.043 15.5859 15.293L15.5859 35.2539C15.5859 36.4844 16.25 37.2266 17.3633 37.2266C18.4961 37.2266 19.1602 36.5039 19.1602 35.2539L19.1602 26.2891L31.6797 26.2891L31.6797 35.2539C31.6797 36.4844 32.3438 37.2266 33.4375 37.2266C34.5898 37.2266 35.2344 36.5039 35.2344 35.2539L35.2344 15.293C35.2344 14.0234 34.5898 13.3008 33.4375 13.3008C32.3438 13.3008 31.6797 14.043 31.6797 15.293Z" fill="black" fill-opacity="0.85"/>
 </g>
</svg>
