<?xml version="1.0" encoding="UTF-8"?>
<!--Generator: Apple Native CoreSVG 326-->
<!DOCTYPE svg
PUBLIC "-//W3C//DTD SVG 1.1//EN"
       "http://www.w3.org/Graphics/SVG/1.1/DTD/svg11.dtd">
<svg version="1.1" xmlns="http://www.w3.org/2000/svg" xmlns:xlink="http://www.w3.org/1999/xlink" viewBox="0 0 46.2891 45.918">
 <g>
  <rect height="45.918" opacity="0" width="46.2891" x="0" y="0"/>
  <path d="M7.59766 45.918L38.3008 45.918C43.3594 45.918 45.918 43.3594 45.918 38.3984L45.918 7.53906C45.918 2.55859 43.3594 0 38.3008 0L7.59766 0C2.55859 0 0 2.53906 0 7.53906L0 38.3984C0 43.3984 2.55859 45.918 7.59766 45.918ZM7.67578 42.4609C4.94141 42.4609 3.45703 41.0156 3.45703 38.2031L3.45703 7.71484C3.45703 4.92188 4.94141 3.45703 7.67578 3.45703L38.2422 3.45703C40.918 3.45703 42.4609 4.92188 42.4609 7.71484L42.4609 38.2031C42.4609 41.0156 40.918 42.4609 38.2422 42.4609Z" fill="black" fill-opacity="0.85"/>
  <path d="M15.0977 34.4336C16.1914 34.4336 16.8359 33.7305 16.8359 32.5391L16.8359 23.75L29.082 23.75L29.082 32.5391C29.082 33.7109 29.7266 34.4336 30.7812 34.4336C31.8945 34.4336 32.5195 33.7305 32.5195 32.5391L32.5195 13.0078C32.5195 11.7969 31.8945 11.1133 30.7812 11.1133C29.7266 11.1133 29.082 11.8164 29.082 13.0078L29.082 21.0156L16.8359 21.0156L16.8359 13.0078C16.8359 11.7969 16.1914 11.1133 15.0977 11.1133C14.0234 11.1133 13.3789 11.8164 13.3789 13.0078L13.3789 32.5391C13.3789 33.7109 14.0234 34.4336 15.0977 34.4336Z" fill="black" fill-opacity="0.85"/>
 </g>
</svg>
