<?xml version="1.0" encoding="UTF-8"?>
<!--Generator: Apple Native CoreSVG 326-->
<!DOCTYPE svg
PUBLIC "-//W3C//DTD SVG 1.1//EN"
       "http://www.w3.org/Graphics/SVG/1.1/DTD/svg11.dtd">
<svg version="1.1" xmlns="http://www.w3.org/2000/svg" xmlns:xlink="http://www.w3.org/1999/xlink" viewBox="0 0 51.25 50.918">
 <g>
  <rect height="50.918" opacity="0" width="51.25" x="0" y="0"/>
  <path d="M25.4297 50.8789C39.4727 50.8789 50.8789 39.4922 50.8789 25.4492C50.8789 11.4062 39.4727 0 25.4297 0C11.3867 0 0 11.4062 0 25.4492C0 39.4922 11.3867 50.8789 25.4297 50.8789ZM25.4297 47.2461C13.3789 47.2461 3.63281 37.5 3.63281 25.4492C3.63281 13.3984 13.3789 3.65234 25.4297 3.65234C37.4805 3.65234 47.2266 13.3984 47.2266 25.4492C47.2266 37.5 37.4805 47.2461 25.4297 47.2461Z" fill="black" fill-opacity="0.85"/>
  <path d="M14.1992 38.4375C15.3125 39.5508 16.5234 39.4727 17.6367 38.2031L29.6289 24.707L25.918 21.0352L12.3828 32.9102C11.0938 34.043 11.0156 35.2344 12.1289 36.3672ZM36.6992 27.6367C37.1875 28.1055 37.7148 28.1445 38.2031 27.6758L42.0508 23.8477C42.5195 23.3984 42.5 22.832 42.0312 22.3438L41.0742 21.4062C40.5273 20.8594 40.2344 20.7812 39.6289 20.8398L38.3398 20.9766L37.2852 19.9609L37.6758 18.2422C37.8906 17.3633 37.5977 16.543 36.7383 15.6836L34.082 13.0664C30.5859 9.58984 24.2383 9.21875 20.7227 12.7344C20.1367 13.3008 20.2148 13.9258 20.5664 14.3555C20.8789 14.6289 21.3086 14.8047 21.7383 14.6484C24.2188 13.9844 26.3477 13.9062 28.2031 15.0977L27.207 17.5781C26.8164 18.5938 27.0312 19.3359 27.6758 20L30.5273 22.8711C31.0352 23.3789 31.5625 23.4766 32.3438 23.3203L34.2773 22.9297L35.3125 24.0039L35.1953 25.2734C35.1562 25.8984 35.2148 26.25 35.7227 26.7188Z" fill="black" fill-opacity="0.85"/>
 </g>
</svg>
