<?xml version="1.0" encoding="UTF-8"?>
<!--Generator: Apple Native CoreSVG 326-->
<!DOCTYPE svg
PUBLIC "-//W3C//DTD SVG 1.1//EN"
       "http://www.w3.org/Graphics/SVG/1.1/DTD/svg11.dtd">
<svg version="1.1" xmlns="http://www.w3.org/2000/svg" xmlns:xlink="http://www.w3.org/1999/xlink" viewBox="0 0 62.0039 57.5558">
 <g>
  <rect height="57.5558" opacity="0" width="62.0039" x="0" y="0"/>
  <path d="M5.66013 55.9752C7.84763 58.1822 10.3086 58.0064 12.5351 55.4674L36.7734 28.0846L29.5273 20.8385L2.02732 44.9791C-0.511742 47.2057-0.64846 49.6666 1.51951 51.8541ZM50.3086 34.5494C51.2851 35.4869 52.3984 35.5455 53.3359 34.608L60.9726 27.0103C61.8906 26.0924 61.832 24.9205 60.8945 23.983L59 22.108C57.9648 21.0924 57.3594 20.9557 56.1875 21.0338L53.5703 21.3072L51.5195 19.276L52.3203 15.858C52.7109 14.1392 52.1445 12.4596 50.4062 10.7408L45.1914 5.56503C38.2383-1.34904 25.6015-2.11076 18.5703 4.92049C17.4375 6.05331 17.6133 7.34237 18.3164 8.14315C18.8828 8.72909 19.7812 9.02206 20.6601 8.76815C25.5429 7.44003 29.7812 7.26424 33.4726 9.58846L31.5 14.5494C30.6992 16.5611 31.1094 18.0064 32.4375 19.3541L38.1211 25.0377C39.0976 26.0338 40.0937 26.2877 41.6758 25.9752L45.5625 25.1939L47.5937 27.2447L47.3789 29.8424C47.3008 31.0728 47.3789 31.7174 48.4336 32.7135Z" fill="black" fill-opacity="0.85"/>
 </g>
</svg>
