<?xml version="1.0" encoding="UTF-8"?>
<!--Generator: Apple Native CoreSVG 326-->
<!DOCTYPE svg
PUBLIC "-//W3C//DTD SVG 1.1//EN"
       "http://www.w3.org/Graphics/SVG/1.1/DTD/svg11.dtd">
<svg version="1.1" xmlns="http://www.w3.org/2000/svg" xmlns:xlink="http://www.w3.org/1999/xlink" viewBox="0 0 60.3708 54.7205">
 <g>
  <rect height="54.7205" opacity="0" width="60.3708" x="0" y="0"/>
  <path d="M15.4393 11.4716L15.6701 12.1029C8.50843 17.0765 5.62049 24.1679 5.47839 32.0185C5.45886 32.7997 4.89246 33.4052 4.13074 33.4247C3.38855 33.4442 2.72449 32.7411 2.72449 31.9599C2.72449 22.8861 6.54019 14.4714 14.9277 9.18675C14.9882 9.9331 15.1586 10.6995 15.4393 11.4716Z" fill="black" fill-opacity="0.85"/>
  <path d="M45.8104 50.3583C55.4589 46.8427 59.8143 38.0536 55.8104 27.038L53.994 22.0966C52.0214 16.6474 48.4081 14.4208 44.0917 15.9442C42.9589 14.4208 41.162 13.8739 39.2089 14.5966C38.4862 14.8505 37.8417 15.2411 37.2362 15.7294C36.0057 14.1083 34.0721 13.5028 32.0409 14.245C31.4745 14.4403 30.9081 14.7724 30.3807 15.163L27.4315 7.09658C26.3964 4.24502 23.8182 3.07314 21.2206 4.03017C18.5643 4.9872 17.3339 7.5458 18.3885 10.3974L25.7714 30.7294C25.83 30.8466 25.7909 30.9638 25.6737 31.0028C25.576 31.0419 25.4979 31.0028 25.4003 30.9052L21.8651 27.0185C20.4393 25.4755 18.7401 25.0263 17.119 25.5927C14.912 26.3935 13.4862 28.5419 14.4042 31.0224C14.6385 31.6864 15.1073 32.5067 15.6346 33.1708L24.2284 43.581C30.3612 51.0028 37.6854 53.327 45.8104 50.3583ZM44.8925 47.5263C38.2518 49.9481 32.0018 48.5224 26.4159 41.7841L17.8221 31.3935C17.5682 31.081 17.3729 30.788 17.2167 30.3388C16.8846 29.4599 17.2948 28.4442 18.33 28.0731C19.1503 27.7802 19.8729 28.0927 20.576 28.8544L26.3768 34.9481C27.2557 35.8661 28.0565 35.9833 28.8573 35.6903C29.7948 35.3583 30.205 34.3817 29.8339 33.3661L21.0448 9.22548C20.6346 8.09267 21.0839 7.05752 22.1776 6.64736C23.2518 6.25673 24.2284 6.78408 24.6385 7.91689L30.8885 25.0653C31.162 25.8075 31.9628 26.1786 32.6854 25.9052C33.4276 25.6317 33.7792 24.8505 33.5057 24.1083L31.2401 17.8974C31.6307 17.5263 32.1776 17.1747 32.6659 16.9989C33.955 16.5302 35.0292 17.077 35.5175 18.4638L37.4315 23.6981C37.7245 24.5185 38.5448 24.7919 39.2479 24.538C39.912 24.3036 40.3417 23.5614 40.0487 22.7411L38.4081 18.2489C38.7987 17.8778 39.3456 17.5263 39.8339 17.3505C41.1229 16.8817 42.1971 17.4286 42.6854 18.8153L43.9745 22.3505C44.2675 23.1708 45.0878 23.4442 45.7909 23.1903C46.455 22.9364 46.9042 22.2138 46.5917 21.3935L45.576 18.5614C47.8807 17.7216 49.9706 19.4794 51.4159 23.4442L52.9784 27.7411C56.4745 37.3505 53.1151 44.538 44.8925 47.5263Z" fill="black" fill-opacity="0.85"/>
 </g>
</svg>
