<?xml version="1.0" encoding="UTF-8"?>
<!--Generator: Apple Native CoreSVG 326-->
<!DOCTYPE svg
PUBLIC "-//W3C//DTD SVG 1.1//EN"
       "http://www.w3.org/Graphics/SVG/1.1/DTD/svg11.dtd">
<svg version="1.1" xmlns="http://www.w3.org/2000/svg" xmlns:xlink="http://www.w3.org/1999/xlink" viewBox="0 0 51.8167 52.6758">
 <g>
  <rect height="52.6758" opacity="0" width="51.8167" x="0" y="0"/>
  <path d="M10.3126 18.3594L13.7697 18.3594L13.7697 14.8633C13.7697 8.35938 18.9064 3.47656 25.7228 3.47656C32.5392 3.47656 37.6759 8.35938 37.6759 14.8633L37.6759 18.3594L41.1525 18.3594L41.1525 14.8633C41.1525 6.38672 34.5509 0 25.7228 0C16.9142 0 10.3126 6.38672 10.3126 14.8633ZM8.1056 52.6562L43.34 52.6562C49.297 52.6562 52.09 49.2188 51.3283 42.8516L49.1603 24.1992C48.6525 19.8438 46.0548 17.5 41.8361 17.5L9.62904 17.5C5.41029 17.5 2.81263 19.8438 2.30482 24.1992L0.11732 42.8516C-0.624868 49.2188 2.1681 52.6562 8.1056 52.6562ZM8.1056 49.1797C4.68763 49.1797 3.08607 47.1289 3.53529 43.2617L5.72279 24.6289C5.99623 22.2266 7.34388 20.9766 9.62904 20.9766L41.8361 20.9766C44.1212 20.9766 45.4689 22.2266 45.7423 24.6289L47.9103 43.2617C48.3595 47.1289 46.7579 49.1797 43.34 49.1797ZM23.4572 37.8125L27.9884 37.8125C29.59 37.8125 30.547 36.8945 30.547 35.293L30.547 33.418C37.3244 32.3438 43.5744 28.75 46.3869 21.7773L43.2228 20.3125C40.4494 27.5586 33.4767 30.3516 25.7228 30.3516C17.9884 30.3516 10.9962 27.5586 8.24232 20.3125L5.07826 21.7773C7.87123 28.75 14.1408 32.3242 20.8986 33.418L20.8986 35.293C20.8986 36.8945 21.8556 37.8125 23.4572 37.8125Z" fill="black" fill-opacity="0.85"/>
 </g>
</svg>
