<?xml version="1.0" encoding="UTF-8"?>
<!--Generator: Apple Native CoreSVG 326-->
<!DOCTYPE svg
PUBLIC "-//W3C//DTD SVG 1.1//EN"
       "http://www.w3.org/Graphics/SVG/1.1/DTD/svg11.dtd">
<svg version="1.1" xmlns="http://www.w3.org/2000/svg" xmlns:xlink="http://www.w3.org/1999/xlink" viewBox="0 0 38.6838 57.5586">
 <g>
  <rect height="57.5586" opacity="0" width="38.6838" x="0" y="0"/>
  <path d="M14.2442 6.64062C16.0802 6.64062 17.5841 5.15625 17.5841 3.33984C17.5841 1.52344 16.0802 0 14.2442 0C12.4083 0 10.9434 1.52344 10.9434 3.33984C10.9434 5.15625 12.4083 6.64062 14.2442 6.64062ZM3.30672 16.4258C5.14266 16.4258 6.64656 14.9414 6.64656 13.1055C6.64656 11.3086 5.14266 9.78516 3.30672 9.78516C1.47078 9.78516 0.00593994 11.3086 0.00593994 13.1055C0.00593994 14.9414 1.47078 16.4258 3.30672 16.4258ZM25.3184 16.4258C27.1544 16.4258 28.6583 14.9414 28.6583 13.1055C28.6583 11.3086 27.1544 9.78516 25.3184 9.78516C23.502 9.78516 22.0372 11.3086 22.0372 13.1055C22.0372 14.9414 23.502 16.4258 25.3184 16.4258ZM35.1036 16.4258C36.9395 16.4258 38.4434 14.9414 38.4434 13.1055C38.4434 11.3086 36.9395 9.78516 35.1036 9.78516C33.2677 9.78516 31.8028 11.3086 31.8028 13.1055C31.8028 14.9414 33.2677 16.4258 35.1036 16.4258ZM35.1036 6.64062C36.9395 6.64062 38.4434 5.15625 38.4434 3.33984C38.4434 1.52344 36.9395 0 35.1036 0C33.2677 0 31.8028 1.52344 31.8028 3.33984C31.8028 5.15625 33.2677 6.64062 35.1036 6.64062Z" fill="black" fill-opacity="0.85"/>
  <path d="M20.8067 57.5C30.1622 57.5 36.627 51.3281 36.627 40.7031L36.627 35.918C36.627 30.6641 34.2442 27.5977 30.1036 27.5391C29.5372 25.8789 28.1309 24.8438 26.2559 24.8438C25.5919 24.8438 24.9473 24.9609 24.3028 25.1758C23.7169 23.4375 22.252 22.3242 20.2794 22.3242C19.7716 22.3242 19.2442 22.4219 18.6973 22.5586L18.7364 15C18.7364 12.1875 16.8223 10.3125 14.2442 10.3125C11.627 10.3125 9.75203 12.1875 9.75203 15L9.75203 34.1602C9.75203 34.2969 9.55672 34.3555 9.49813 34.1992L7.83797 30.1367C7.09578 28.3203 5.70906 27.3828 4.1075 27.3633C1.90047 27.3438-0.0331226 28.7891 0.00593994 31.2695C-0.0331226 31.9531 0.123127 32.793 0.396565 33.5156L4.4786 45C7.42781 53.2617 12.9356 57.5 20.8067 57.5ZM20.8848 54.5312C14.5763 54.5312 9.7911 51.4453 7.13485 44.0625L3.05281 32.5977C2.9161 32.2461 2.89656 31.9922 2.89656 31.5625C2.89656 30.7617 3.44344 30.1172 4.36141 30.1172C5.08406 30.1172 5.55281 30.5664 5.90438 31.4062L8.95125 38.3789C9.43953 39.4727 10.1231 39.8047 10.9434 39.8047C11.92 39.8047 12.6622 39.082 12.6622 38.0078L12.6622 14.8438C12.6622 13.8281 13.2872 13.1445 14.2442 13.1445C15.2208 13.1445 15.8263 13.8281 15.8263 14.8438L15.8263 31.3086C15.8263 32.1094 16.4317 32.7148 17.213 32.7148C18.0138 32.7148 18.6388 32.1094 18.6388 31.3086L18.6388 25.4492C19.0294 25.2539 19.4981 25.1367 19.9473 25.1367C21.0997 25.1367 21.7833 25.8789 21.7833 27.1484L21.7833 32.1875C21.7833 33.0664 22.4669 33.5938 23.2091 33.5938C23.9122 33.5938 24.5958 33.0664 24.5958 32.1875L24.5958 27.9297C25.0059 27.7734 25.4942 27.6562 25.9239 27.6562C27.0958 27.6562 27.7598 28.3984 27.7598 29.668L27.7598 33.0469C27.7598 33.9258 28.4239 34.4531 29.1661 34.4531C29.8692 34.4531 30.5723 33.9258 30.5723 33.0469L30.5723 30.4883C32.6036 30.5859 33.7364 32.5977 33.7364 36.2695L33.7364 40.3906C33.7364 49.5703 28.7364 54.5312 20.8848 54.5312Z" fill="black" fill-opacity="0.85"/>
 </g>
</svg>
