<?xml version="1.0" encoding="UTF-8"?>
<!--Generator: Apple Native CoreSVG 326-->
<!DOCTYPE svg
PUBLIC "-//W3C//DTD SVG 1.1//EN"
       "http://www.w3.org/Graphics/SVG/1.1/DTD/svg11.dtd">
<svg version="1.1" xmlns="http://www.w3.org/2000/svg" xmlns:xlink="http://www.w3.org/1999/xlink" viewBox="0 0 67.4658 54.728">
 <g>
  <rect height="54.728" opacity="0" width="67.4658" x="0" y="0"/>
  <path d="M23.2404 4.17062L6.14503 4.17062C5.32472 4.17062 4.66065 3.52609 4.66065 2.70577C4.66065 1.88546 5.32472 1.2214 6.14503 1.2214L26.9396 1.2214C25.3607 1.85049 24.0947 2.88205 23.2404 4.17062Z" fill="black" fill-opacity="0.85"/>
  <path d="M22.5122 11.4753L23.2189 13.4089L6.14503 13.4089C5.32472 13.4089 4.66065 12.7448 4.66065 11.9245C4.66065 11.1042 5.32472 10.4597 6.14503 10.4597L22.2079 10.4597C22.2835 10.7958 22.387 11.135 22.5122 11.4753Z" fill="black" fill-opacity="0.85"/>
  <path d="M20.9692 21.1628C20.9692 21.9831 20.3052 22.6472 19.4849 22.6472L6.14503 22.6472C5.32472 22.6472 4.66065 21.9831 4.66065 21.1628C4.66065 20.3425 5.32472 19.698 6.14503 19.698L19.4849 19.698C20.3052 19.698 20.9692 20.3425 20.9692 21.1628Z" fill="black" fill-opacity="0.85"/>
  <path d="M52.8833 50.362C62.5317 46.8659 66.8677 38.0573 62.8833 27.0612L61.0669 22.0808C59.0747 16.6511 55.481 14.4245 51.1646 15.948C50.0317 14.4245 48.2349 13.8776 46.3013 14.6003C45.5591 14.8542 44.9146 15.2448 44.2896 15.7331C43.0786 14.0925 41.145 13.5066 39.1138 14.2292C38.5474 14.4441 37.981 14.7761 37.4341 15.1667L34.5044 7.11984C33.4692 4.24874 30.8911 3.0964 28.2935 4.0339C25.6372 4.99093 24.4067 7.52999 25.4419 10.4011L32.8638 30.7331C32.8833 30.8503 32.8638 30.948 32.7271 31.0066C32.6489 31.0456 32.5513 31.0066 32.4732 30.9089L28.938 27.0222C27.4927 25.4792 25.813 25.03 24.1919 25.6159C21.9849 26.3972 20.5591 28.5261 21.4771 31.0261C21.7114 31.6901 22.1802 32.53 22.7075 33.1745L31.3013 43.5847C37.4341 51.0066 44.7388 53.3308 52.8833 50.362ZM51.9458 47.53C45.3052 49.9519 39.0747 48.5456 33.4888 41.7683L24.895 31.3972C24.6216 31.0847 24.4458 30.7917 24.2896 30.3425C23.9575 29.4636 24.3482 28.4675 25.4028 28.0964C26.2232 27.7839 26.9458 28.0964 27.6489 28.8581L33.4497 34.9519C34.3091 35.8698 35.1099 35.987 35.9107 35.6941C36.8482 35.3425 37.2778 34.405 36.9067 33.3698L28.1177 9.24874C27.688 8.11593 28.1567 7.06124 29.2505 6.65109C30.3247 6.27999 31.3013 6.78781 31.7114 7.94015L37.9614 25.0691C38.2349 25.8112 39.0357 26.1823 39.7583 25.8894C40.5005 25.6355 40.8521 24.8542 40.5786 24.112L38.2935 17.9011C38.7036 17.53 39.231 17.1784 39.7388 17.0026C41.0083 16.5339 42.0825 17.0808 42.5903 18.4675L44.4849 23.7019C44.7974 24.5222 45.5982 24.7956 46.3013 24.5612C46.9849 24.2878 47.4146 23.5847 47.1021 22.7644L45.481 18.2331C45.8521 17.8816 46.3989 17.53 46.8872 17.3542C48.1958 16.8855 49.27 17.4323 49.7583 18.8191L51.0474 22.3542C51.3403 23.1745 52.1607 23.448 52.8638 23.1941C53.5278 22.9597 53.9575 22.2175 53.6646 21.3972L52.6489 18.5651C54.9536 17.7253 57.0239 19.4831 58.4888 23.4675L60.0317 27.7448C63.5474 37.3347 60.188 44.5222 51.9458 47.53Z" fill="black" fill-opacity="0.85"/>
 </g>
</svg>
