<?xml version="1.0" encoding="UTF-8"?>
<!--Generator: Apple Native CoreSVG 326-->
<!DOCTYPE svg
PUBLIC "-//W3C//DTD SVG 1.1//EN"
       "http://www.w3.org/Graphics/SVG/1.1/DTD/svg11.dtd">
<svg version="1.1" xmlns="http://www.w3.org/2000/svg" xmlns:xlink="http://www.w3.org/1999/xlink" viewBox="0 0 53.9062 41.1523">
 <g>
  <rect height="41.1523" opacity="0" width="53.9062" x="0" y="0"/>
  <path d="M0 23.5352C0 34.8633 6.875 41.1523 19.2383 41.1523L24.082 41.1523C28.6914 41.1523 31.5234 38.8867 31.5234 36.3867C31.5234 35.8008 31.2109 35.4883 30.6641 35.4883L28.3203 35.4883C27.3828 35.4883 26.8945 35 26.8945 34.4141C26.8945 33.8086 27.3828 33.3008 28.3203 33.3008L29.8828 33.3008C32.6172 33.3008 34.4141 31.5625 34.4141 29.1797C34.4141 28.125 33.9844 27.6367 33.0664 27.6367L29.9023 27.6367C28.9453 27.6367 28.4766 27.1484 28.4766 26.5625C28.4766 25.957 28.9453 25.4688 29.9023 25.4688L32.832 25.4688C35.8984 25.4688 37.3438 23.6523 37.3438 21.3672C37.3438 20.3516 36.8945 19.8242 35.9961 19.8242L29.9023 19.8242C28.9453 19.8242 28.4766 19.3359 28.4766 18.7695C28.4766 18.1445 28.9453 17.6562 29.9023 17.6562L49.6875 17.6562C51.6406 17.6562 52.9102 16.3867 52.9102 14.7266C52.9102 12.9883 51.6406 11.7578 49.6875 11.7578L21.1523 11.7578C20.4883 11.7578 20.0977 11.3086 20.0977 10.8398C20.0977 10.4297 20.3516 10.0781 21.0547 9.78516L30.0977 5.89844C31.4648 5.3125 32.0312 4.43359 32.0312 3.26172C32.0312 1.46484 30.8008 0.332031 29.2773 0.332031C28.7109 0.332031 28.2227 0.449219 27.7734 0.625L14.8047 4.92188C4.53125 8.37891 0 15.2734 0 23.5352Z" fill="black" fill-opacity="0.85"/>
 </g>
</svg>
