<?xml version="1.0" encoding="UTF-8"?>
<!--Generator: Apple Native CoreSVG 326-->
<!DOCTYPE svg
PUBLIC "-//W3C//DTD SVG 1.1//EN"
       "http://www.w3.org/Graphics/SVG/1.1/DTD/svg11.dtd">
<svg version="1.1" xmlns="http://www.w3.org/2000/svg" xmlns:xlink="http://www.w3.org/1999/xlink" viewBox="0 0 56.6406 66.7383">
 <g>
  <rect height="66.7383" opacity="0" width="56.6406" x="0" y="0"/>
  <path d="M10.7031 21.6797C10.7031 20.8789 10.0586 20.2344 9.27734 20.2344L1.42578 20.2148C0.644531 20.2148 0 20.8594 0 21.6602C0 22.4414 0.644531 23.0859 1.42578 23.0859L9.27734 23.1055C10.0586 23.1055 10.7031 22.4609 10.7031 21.6797ZM13.8867 13.9258C14.4141 13.3594 14.4531 12.4609 13.8867 11.8945L8.35938 6.32812C7.79297 5.78125 6.89453 5.80078 6.32812 6.32812C5.78125 6.89453 5.76172 7.79297 6.32812 8.35938L11.8359 13.9258C12.4219 14.4922 13.3008 14.4727 13.8867 13.9258ZM21.6992 10.7031C22.4805 10.7031 23.125 10.0586 23.125 9.25781L23.1445 1.42578C23.1445 0.644531 22.5 0 21.6992 0C20.918 0 20.2734 0.644531 20.2734 1.42578L20.2539 9.25781C20.2539 10.0586 20.8984 10.7031 21.6992 10.7031ZM29.5117 13.9453C30.0781 14.4727 30.957 14.4922 31.543 13.9453L37.0703 8.37891C37.6367 7.83203 37.6172 6.93359 37.0703 6.34766C36.5039 5.82031 35.625 5.80078 35.0391 6.34766L29.5117 11.9141C28.9453 12.4609 28.9648 13.3594 29.5117 13.9453Z" fill="black" fill-opacity="0.85"/>
  <path d="M45.1172 61.9531C55.2734 58.2617 58.6328 50.0586 54.6094 39.0039L53.0273 34.668C51.5234 30.5273 48.6133 28.7305 46.3477 29.5703C45.8398 29.7461 45.6641 30.1172 45.8398 30.6055L46.6016 32.7148C46.9141 33.5547 46.6211 34.1602 46.1133 34.3359C45.5469 34.5508 44.9609 34.2773 44.6484 33.418L44.1406 32.0117C43.2422 29.5703 41.0938 28.5352 38.9648 29.2969C38.0078 29.6484 37.7344 30.1953 38.0273 31.0156L39.043 33.8477C39.3555 34.707 39.082 35.293 38.5547 35.4883C38.0078 35.6836 37.4023 35.4102 37.1094 34.5508L36.1523 31.9336C35.1562 29.1797 33.0664 28.4766 31.0156 29.2188C30.1172 29.5508 29.7852 30.1562 30.0586 30.9375L32.0508 36.3867C32.3633 37.2461 32.0898 37.832 31.5625 38.0273C31.0156 38.2227 30.4102 37.9688 30.0977 37.1094L23.6523 19.3945C23.0273 17.6562 21.4844 16.9336 20.0195 17.4805C18.457 18.0469 17.7539 19.5703 18.3984 21.3281L27.6953 46.8555C27.9102 47.4609 27.6367 47.9297 27.2266 48.0859C26.8359 48.2227 26.4453 48.125 25.957 47.5977L19.5312 40.7617C18.5547 39.7266 17.5781 39.5117 16.543 39.8828C14.9219 40.4688 14.3359 41.9336 14.8242 43.3008C15.0195 43.8086 15.293 44.2188 15.5664 44.5703L23.6328 54.7461C30.0586 62.832 37.7148 64.6484 45.1172 61.9531Z" fill="black" fill-opacity="0.85"/>
 </g>
</svg>
