<?xml version="1.0" encoding="UTF-8"?>
<!--Generator: Apple Native CoreSVG 326-->
<!DOCTYPE svg
PUBLIC "-//W3C//DTD SVG 1.1//EN"
       "http://www.w3.org/Graphics/SVG/1.1/DTD/svg11.dtd">
<svg version="1.1" xmlns="http://www.w3.org/2000/svg" xmlns:xlink="http://www.w3.org/1999/xlink" viewBox="0 0 70.4688 62.2364">
 <g>
  <rect height="62.2364" opacity="0" width="70.4688" x="0" y="0"/>
  <path d="M9.97388 12.2135C9.95243 12.2495 9.928 12.2846 9.90234 12.3194C5.97656 17.5733 3.65234 24.0577 3.65234 31.1084C3.65234 38.1202 5.97656 44.6436 9.90234 49.8584C10.5078 50.7178 10.4102 51.753 9.62891 52.417C8.76953 53.1006 7.65625 53.003 6.97266 52.1045C2.59766 46.2452 0 38.9795 0 31.1084C0 23.2178 2.59766 15.9522 6.97266 10.1123C7.10614 9.93174 7.25936 9.78271 7.42644 9.66697ZM63.1055 10.1123C67.5 15.9522 70.0977 23.2178 70.0977 31.1084C70.0977 38.9795 67.5 46.2452 63.1055 52.1045C62.984 52.2689 62.8468 52.4065 62.6982 52.5167L60.1346 49.9522C60.1527 49.9205 60.1735 49.8893 60.1953 49.8584C64.1211 44.6436 66.4258 38.1202 66.4258 31.1084C66.4258 24.0577 64.1211 17.5733 60.1953 12.3194C59.5898 11.4991 59.668 10.4639 60.4492 9.78031C61.3086 9.09672 62.4414 9.21391 63.1055 10.1123Z" fill="black" fill-opacity="0.85"/>
  <path d="M17.6825 19.9192C15.585 23.1394 14.375 26.9848 14.375 31.1084C14.375 42.5147 23.6328 51.7725 35.0391 51.7725C39.1654 51.7725 43.0132 50.5609 46.2348 48.4611L48.8589 51.0842C44.9391 53.8124 40.1735 55.4053 35.0391 55.4053C21.6211 55.4053 10.7422 44.5264 10.7422 31.1084C10.7422 25.9771 12.3332 21.2143 15.058 17.2957ZM59.3555 31.1084C59.3555 36.2229 57.7721 40.9685 55.0614 44.8772L52.435 42.2498C54.5204 39.0421 55.7227 35.2145 55.7227 31.1084C55.7227 19.7022 46.4453 10.4248 35.0391 10.4248C30.9358 10.4248 27.1105 11.6255 23.9042 13.7086L21.2774 11.0808C25.1849 8.37346 29.9278 6.79203 35.0391 6.79203C48.457 6.79203 59.3555 17.6905 59.3555 31.1084Z" fill="black" fill-opacity="0.85"/>
  <path d="M28.2031 30.436L28.2031 31.0694C28.3297 30.985 28.4563 30.9006 28.5861 30.8188L41.6612 43.8891C39.9106 45.466 37.6949 46.167 35 46.167C29.3359 46.167 25.1953 42.4756 25.1953 36.0694L25.1953 27.4293ZM47.8516 29.4092C47.8516 29.9561 47.4414 31.128 47.1289 32.1436C46.7536 33.4304 46.3865 34.6558 46.0005 35.8129L43.1403 32.9517L44.5703 29.7803C45.1367 28.6084 45.6641 28.1202 46.4844 28.1202C47.2656 28.1202 47.8516 28.628 47.8516 29.4092ZM41.2891 19.2139L41.2891 31.0998L38.2812 28.0909L38.2812 19.2139C38.2812 18.3936 38.9453 17.71 39.7656 17.71C40.6055 17.71 41.2891 18.3936 41.2891 19.2139ZM36.9727 16.9483L36.9727 26.7818L33.9648 23.7729L33.9648 16.9483C33.9648 16.128 34.6484 15.4444 35.4883 15.4444C36.3086 15.4444 36.9727 16.128 36.9727 16.9483ZM32.5586 18.2959L32.5586 22.3661L29.5312 19.3376L29.5312 18.2959C29.5312 17.4756 30.2148 16.8116 31.0352 16.8116C31.8555 16.8116 32.5586 17.4756 32.5586 18.2959Z" fill="black" fill-opacity="0.85"/>
  <path d="M60.6445 59.0381C61.3086 59.6827 62.3828 59.6827 63.0078 59.0381C63.6719 58.3545 63.6523 57.3194 63.0078 56.6748L9.74609 3.3936C9.12109 2.7686 8.04688 2.72953 7.38281 3.3936C6.73828 4.03813 6.73828 5.13188 7.38281 5.75688Z" fill="black" fill-opacity="0.85"/>
 </g>
</svg>
