<?xml version="1.0" encoding="UTF-8"?>
<!--Generator: Apple Native CoreSVG 326-->
<!DOCTYPE svg
PUBLIC "-//W3C//DTD SVG 1.1//EN"
       "http://www.w3.org/Graphics/SVG/1.1/DTD/svg11.dtd">
<svg version="1.1" xmlns="http://www.w3.org/2000/svg" xmlns:xlink="http://www.w3.org/1999/xlink" viewBox="0 0 47.5 62.3242">
 <g>
  <rect height="62.3242" opacity="0" width="47.5" x="0" y="0"/>
  <path d="M12.0703 0C5.39062 0 0 5.39062 0 12.0312C0 14.8828 0.996094 17.5391 2.67578 19.6289C3.04688 20.0781 3.49609 20.2539 3.92578 20.2539C5 20.2539 5.89844 19.0039 5 17.9102C3.65234 16.3086 2.87109 14.2578 2.87109 12.0312C2.87109 6.95312 6.97266 2.87109 12.0703 2.87109C17.1289 2.87109 21.2109 6.97266 21.2109 12.0312C21.2109 12.1875 21.2109 12.3242 21.2109 12.5391C21.2305 13.5156 21.9141 13.9453 22.5977 13.9453C23.3203 13.9453 24.0039 13.4375 24.0625 12.6758C24.082 12.5195 24.082 12.3242 24.082 12.0312C24.082 5.39062 18.6914 0 12.0703 0Z" fill="black" fill-opacity="0.85"/>
  <path d="M35.9961 53.2227C46.1328 49.5312 49.5117 41.3281 45.4883 30.2734L43.9062 25.9375C42.4023 21.8164 39.4922 20.0195 37.207 20.8398C36.6992 21.0156 36.5234 21.3867 36.6992 21.875L37.4609 23.9844C37.7734 24.8438 37.5 25.4297 36.9727 25.625C36.4258 25.8203 35.8203 25.5469 35.5273 24.6875L35 23.2812C34.1211 20.8398 31.9531 19.8047 29.8438 20.5859C28.8672 20.9375 28.5938 21.4844 28.8867 22.2852L29.9219 25.1172C30.2344 25.9766 29.9414 26.5625 29.4336 26.7578C28.8867 26.9531 28.2812 26.6797 27.9688 25.8203L27.0117 23.2227C26.0156 20.4688 23.9453 19.7461 21.8945 20.4883C20.9766 20.8203 20.6445 21.4258 20.9375 22.207L22.9297 27.6758C23.2422 28.5156 22.9492 29.1211 22.4414 29.2969C21.875 29.5117 21.2891 29.2383 20.9766 28.3789L14.5312 10.6836C13.8867 8.92578 12.3633 8.20312 10.8789 8.75C9.31641 9.31641 8.63281 10.8398 9.25781 12.5977L18.5547 38.125C18.7891 38.7305 18.4961 39.2188 18.0859 39.3555C17.7148 39.4922 17.3047 39.3945 16.8164 38.8672L10.3906 32.0312C9.43359 30.9961 8.4375 30.7812 7.42188 31.1523C5.80078 31.7383 5.21484 33.2227 5.70312 34.5703C5.87891 35.0781 6.15234 35.4883 6.42578 35.8398L14.5117 46.0156C20.9375 54.1016 28.5938 55.918 35.9961 53.2227Z" fill="black" fill-opacity="0.85"/>
 </g>
</svg>
