<?xml version="1.0" encoding="UTF-8"?>
<!--Generator: Apple Native CoreSVG 326-->
<!DOCTYPE svg
PUBLIC "-//W3C//DTD SVG 1.1//EN"
       "http://www.w3.org/Graphics/SVG/1.1/DTD/svg11.dtd">
<svg version="1.1" xmlns="http://www.w3.org/2000/svg" xmlns:xlink="http://www.w3.org/1999/xlink" viewBox="0 0 40.625 52.1289">
 <g>
  <rect height="52.1289" opacity="0" width="40.625" x="0" y="0"/>
  <path d="M17.3633 0.195312C7.08984 0.195312 0 6.95312 0 18.6719L0 23.9453C0 29.7461 2.61719 33.0664 7.20703 33.125C7.75391 34.9219 9.25781 36.0547 11.3281 36.0547C12.0898 36.0547 12.832 35.918 13.5742 35.6641C14.1797 37.6172 15.7812 38.8281 17.9492 38.8281C18.5547 38.8281 19.1992 38.7305 19.8242 38.5352L19.8242 47.1289C19.8242 50.1562 21.8555 52.1289 24.6289 52.1289C27.4414 52.1289 29.4727 50.1562 29.4727 47.1289L29.4727 25.4883C29.4727 25.3516 29.5312 25.2539 29.668 25.2539C29.7656 25.2539 29.8438 25.332 29.8828 25.4492L31.875 30.3125C32.6953 32.2461 34.1406 33.2617 35.8594 33.2617C38.2031 33.2617 40.2734 31.7383 40.2539 29.1016C40.2539 28.3984 40.0977 27.4609 39.8242 26.6602L35.3125 13.9453C32.1094 4.86328 26.0156 0.195312 17.3633 0.195312ZM17.2656 3.16406C24.3359 3.16406 29.707 6.62109 32.6367 14.8828L37.168 27.5781C37.3047 27.9688 37.3828 28.3203 37.3828 28.7695C37.3828 29.7266 36.6602 30.5273 35.5664 30.5273C34.6875 30.5273 34.1211 29.9805 33.7109 29.0234L30.3516 21.3086C29.8438 20.1562 29.1211 19.7656 28.2812 19.7656C27.2852 19.7656 26.5625 20.5273 26.5625 21.6211L26.5625 47.3047C26.5625 48.5156 25.7812 49.3359 24.6289 49.3359C23.4766 49.3359 22.7344 48.5156 22.7344 47.3047L22.7344 29.0625C22.7344 28.2812 22.1094 27.6562 21.3281 27.6562C20.5469 27.6562 19.9414 28.2812 19.9414 29.0625L19.9414 35.6836C19.4531 35.8984 18.8281 36.0352 18.3008 36.0352C16.9336 36.0352 16.1133 35.1562 16.1133 33.6719L16.1133 28.1055C16.1133 27.2266 15.4492 26.6992 14.707 26.6992C13.9844 26.6992 13.3398 27.2266 13.3398 28.1055L13.3398 32.8906C12.832 33.1055 12.207 33.2617 11.6992 33.2617C10.3125 33.2617 9.51172 32.3633 9.51172 30.8984L9.51172 27.1484C9.51172 26.2695 8.84766 25.7227 8.08594 25.7227C7.36328 25.7227 6.71875 26.2695 6.71875 27.1484L6.71875 30.1562C4.25781 30.1562 2.89062 27.7734 2.89062 23.5547L2.89062 18.9844C2.89062 8.76953 8.49609 3.16406 17.2656 3.16406Z" fill="black" fill-opacity="0.85"/>
 </g>
</svg>
