<?xml version="1.0" encoding="UTF-8"?>
<!--Generator: Apple Native CoreSVG 326-->
<!DOCTYPE svg
PUBLIC "-//W3C//DTD SVG 1.1//EN"
       "http://www.w3.org/Graphics/SVG/1.1/DTD/svg11.dtd">
<svg version="1.1" xmlns="http://www.w3.org/2000/svg" xmlns:xlink="http://www.w3.org/1999/xlink" viewBox="0 0 54.7852 42.3633">
 <g>
  <rect height="42.3633" opacity="0" width="54.7852" x="0" y="0"/>
  <path d="M54.7852 24.043C54.7852 14.9609 49.9023 8.57422 40.3711 5.19531L27.0117 0.46875C26.1719 0.15625 25.1953 0 24.4531 0C21.6602 0 20.0781 2.16797 20.0781 4.62891C20.0781 6.42578 21.1328 7.94922 23.1836 8.80859L28.2812 10.8984C28.3984 10.9375 28.457 11.0352 28.457 11.1523C28.457 11.2695 28.3594 11.3281 28.2422 11.3281L5.52734 11.3281C2.32422 11.3281 0.273438 13.457 0.273438 16.4062C0.273438 19.3359 2.32422 21.4648 5.52734 21.4648L14.5312 21.4648C14.3359 22.1289 14.2383 22.8125 14.2383 23.457C14.2383 25.7031 15.5078 27.4023 17.5586 28.0273C17.3047 28.7891 17.1484 29.5898 17.1484 30.3906C17.1484 32.5586 18.3203 34.1406 20.2344 34.7266C20.2734 39.5117 23.7695 42.2852 29.8633 42.2852L35.3906 42.2852C47.6758 42.2852 54.7852 34.8438 54.7852 24.043ZM51.6797 24.1602C51.6797 33.3594 45.8008 39.2578 35.0586 39.2578L30.2734 39.2578C25.8398 39.2578 23.3594 37.8125 23.3594 35.2344L26.5039 35.2344C27.4023 35.2344 27.9883 34.5508 27.9883 33.7891C27.9883 33.0078 27.4023 32.3047 26.5039 32.3047L22.5586 32.3047C21.0156 32.3047 20.0977 31.4453 20.0977 30C20.0977 29.4727 20.2344 28.7891 20.4688 28.2617L25.4688 28.2617C26.4062 28.2617 26.9727 27.5977 26.9727 26.8164C26.9727 26.0547 26.4062 25.3516 25.4688 25.3516L19.6484 25.3516C18.0859 25.3516 17.168 24.4922 17.168 23.0664C17.168 22.5 17.3047 21.8555 17.5391 21.3477L24.4922 21.3477C25.3125 21.3477 25.957 20.7031 25.957 19.9023C25.957 19.0625 25.3125 18.418 24.4922 18.418L5.33203 18.418C4.0625 18.418 3.18359 17.6172 3.18359 16.4062C3.18359 15.2148 4.0625 14.3945 5.33203 14.3945L32.2852 14.3945C33.4375 14.3945 34.2383 13.6328 34.2383 12.5977C34.2383 11.6992 33.8281 10.9375 32.6367 10.4102L24.5117 6.89453C23.5156 6.46484 22.9297 5.85938 22.9297 4.92188C22.9297 3.78906 23.7891 3.02734 24.7852 3.02734C25.2734 3.02734 25.625 3.08594 26.0352 3.24219L39.375 7.98828C48.0469 11.0938 51.6797 16.7383 51.6797 24.1602Z" fill="black" fill-opacity="0.85"/>
 </g>
</svg>
