<?xml version="1.0" encoding="UTF-8"?>
<!--Generator: Apple Native CoreSVG 326-->
<!DOCTYPE svg
PUBLIC "-//W3C//DTD SVG 1.1//EN"
       "http://www.w3.org/Graphics/SVG/1.1/DTD/svg11.dtd">
<svg version="1.1" xmlns="http://www.w3.org/2000/svg" xmlns:xlink="http://www.w3.org/1999/xlink" viewBox="0 0 56.6797 66.7383">
 <g>
  <rect height="66.7383" opacity="0" width="56.6797" x="0" y="0"/>
  <path d="M10.7031 21.6797C10.7031 20.8789 10.0586 20.2344 9.27734 20.2344L1.42578 20.2148C0.644531 20.2148 0 20.8594 0 21.6602C0 22.4414 0.644531 23.0859 1.42578 23.0859L9.27734 23.1055C10.0586 23.1055 10.7031 22.4609 10.7031 21.6797ZM13.8867 13.9258C14.4141 13.3594 14.4531 12.4609 13.8867 11.8945L8.35938 6.32812C7.79297 5.78125 6.89453 5.80078 6.32812 6.32812C5.78125 6.89453 5.76172 7.79297 6.32812 8.35938L11.8359 13.9258C12.4219 14.4922 13.3008 14.4727 13.8867 13.9258ZM21.6992 10.7031C22.4805 10.7031 23.125 10.0586 23.125 9.25781L23.1445 1.42578C23.1445 0.644531 22.5 0 21.6992 0C20.918 0 20.2734 0.644531 20.2734 1.42578L20.2539 9.25781C20.2539 10.0586 20.8984 10.7031 21.6992 10.7031ZM29.5117 13.9453C30.0781 14.4727 30.957 14.4922 31.543 13.9453L37.0703 8.37891C37.6367 7.83203 37.6172 6.93359 37.0703 6.34766C36.5039 5.82031 35.625 5.80078 35.0391 6.34766L29.5117 11.9141C28.9453 12.4609 28.9648 13.3594 29.5117 13.9453Z" fill="black" fill-opacity="0.85"/>
  <path d="M44.8438 62.8906C54.4922 59.3945 58.8281 50.5859 54.8438 39.5898L53.0273 34.6094C51.0352 29.1602 47.4414 26.9531 43.125 28.457C41.9922 26.9531 40.1953 26.4062 38.2617 27.1289C37.5195 27.3828 36.875 27.7734 36.25 28.2617C35.0391 26.6211 33.1055 26.0352 31.0742 26.7578C30.5078 26.9727 29.9414 27.3047 29.3945 27.6953L26.4648 19.6289C25.4297 16.7773 22.8516 15.6055 20.2539 16.543C17.5977 17.5195 16.3867 20.0586 17.4023 22.9297L24.8242 43.2617C24.8633 43.3789 24.8242 43.4766 24.707 43.5352C24.6094 43.5742 24.5117 43.5352 24.4336 43.4375L20.8984 39.5508C19.4531 37.9883 17.7734 37.5586 16.1523 38.125C13.9453 38.9258 12.5195 41.0547 13.4375 43.5547C13.6719 44.2188 14.1406 45.0391 14.668 45.7031L23.2617 56.0938C29.3945 63.5352 36.6992 65.8398 44.8438 62.8906ZM43.9062 60.0586C37.2852 62.4805 31.0352 61.0547 25.4492 54.2969L16.875 43.9258C16.582 43.6133 16.4062 43.3203 16.25 42.8711C15.918 41.9727 16.3086 40.9961 17.3633 40.625C18.1836 40.3125 18.9062 40.625 19.6094 41.3867L25.4102 47.4805C26.2695 48.3984 27.0898 48.4961 27.8711 48.2227C28.8086 47.8711 29.2383 46.9336 28.8672 45.8789L20.0781 21.7578C19.6484 20.625 20.1172 19.5898 21.2109 19.1797C22.2852 18.8086 23.2617 19.3164 23.6719 20.4688L29.9219 37.5977C30.1953 38.3398 30.9961 38.6914 31.7188 38.418C32.4609 38.1641 32.8125 37.3828 32.5391 36.6406L30.2539 30.4297C30.6641 30.0586 31.1914 29.6875 31.6992 29.5312C32.9688 29.0625 34.043 29.6094 34.5508 30.9961L36.4453 36.2305C36.7578 37.0508 37.5586 37.3242 38.2617 37.0703C38.9453 36.8164 39.375 36.0938 39.0625 35.293L37.4414 30.7617C37.8125 30.4102 38.3594 30.0586 38.8477 29.8828C40.1562 29.4141 41.2305 29.9609 41.7188 31.3477L43.0078 34.8828C43.3008 35.7031 44.1211 35.9766 44.8242 35.7227C45.4883 35.4688 45.918 34.7461 45.625 33.9258L44.6094 31.0938C46.9141 30.2539 48.9844 32.0117 50.4492 35.9961L51.9922 40.2734C55.5078 49.8633 52.1484 57.0508 43.9062 60.0586Z" fill="black" fill-opacity="0.85"/>
 </g>
</svg>
