<?xml version="1.0" encoding="UTF-8"?>
<!--Generator: Apple Native CoreSVG 326-->
<!DOCTYPE svg
PUBLIC "-//W3C//DTD SVG 1.1//EN"
       "http://www.w3.org/Graphics/SVG/1.1/DTD/svg11.dtd">
<svg version="1.1" xmlns="http://www.w3.org/2000/svg" xmlns:xlink="http://www.w3.org/1999/xlink" viewBox="0 0 51.25 50.918">
 <g>
  <rect height="50.918" opacity="0" width="51.25" x="0" y="0"/>
  <path d="M50.8789 25.4492C50.8789 39.4531 39.4531 50.8789 25.4297 50.8789C11.4258 50.8789 0 39.4531 0 25.4492C0 11.4258 11.4258 0 25.4297 0C39.4531 0 50.8789 11.4258 50.8789 25.4492ZM27.168 11.6406C25.0586 15.7031 22.2852 19.0039 20.1562 21.8555C18.3594 24.2383 17.4609 26.2695 17.4219 29.5898C17.3633 34.7266 21.4844 38.6328 28.0078 38.6719L29.9414 38.6914C31.7578 38.6914 33.0859 38.5742 33.8477 38.3789C34.9609 38.0859 36.0547 37.4609 36.0547 36.0938C36.0547 35.6055 35.8984 35.1562 35.7422 34.8828C35.6445 34.6875 35.6641 34.5312 35.8203 34.4531C36.6602 34.1406 37.4219 33.3008 37.4219 32.207C37.4219 31.5625 37.207 30.9961 36.8945 30.625C36.7383 30.3906 36.7578 30.1953 36.9922 30.0586C37.6562 29.668 38.0859 28.9258 38.0859 27.9688C38.0859 27.3438 37.8906 26.6211 37.5195 26.2695C37.2852 26.0742 37.3438 25.957 37.5781 25.7617C37.9883 25.3711 38.2812 24.707 38.2812 23.9648C38.2812 22.5781 37.207 21.4648 35.8594 21.4648L30.8984 21.4648C29.6094 21.4648 28.7891 20.8203 28.7891 19.7656C28.7891 17.8711 31.1328 14.4141 31.1328 11.9727C31.1328 10.6836 30.2734 9.90234 29.1992 9.90234C28.1836 9.90234 27.6953 10.5859 27.168 11.6406ZM16.2109 21.9922C13.0469 21.9922 10.6836 25.3906 10.6836 29.6875C10.6836 33.8867 13.2227 37.3828 16.7188 37.3828L19.3945 37.3828C16.7773 35.5469 15.6445 32.793 15.7031 29.5508C15.7422 25.957 17.1289 23.5547 18.2812 21.9922Z" fill="black" fill-opacity="0.85"/>
 </g>
</svg>
