<?xml version="1.0" encoding="UTF-8"?>
<!--Generator: Apple Native CoreSVG 326-->
<!DOCTYPE svg
PUBLIC "-//W3C//DTD SVG 1.1//EN"
       "http://www.w3.org/Graphics/SVG/1.1/DTD/svg11.dtd">
<svg version="1.1" xmlns="http://www.w3.org/2000/svg" xmlns:xlink="http://www.w3.org/1999/xlink" viewBox="0 0 48.4375 50.8008">
 <g>
  <rect height="50.8008" opacity="0" width="48.4375" x="0" y="0"/>
  <path d="M48.0664 16.3086C48.0664 9.0625 43.5742 2.98828 37.5195 2.98828L32.9492 2.98828C37.4219 6.15234 39.4531 10.9961 39.375 16.543C39.2773 22.793 36.8945 27.0703 34.8438 29.7266L38.418 29.7266C43.8867 29.7266 48.0664 23.8477 48.0664 16.3086ZM36.3281 16.5039C36.4453 7.55859 29.2188 0.78125 17.8516 0.683594L14.5117 0.664062C11.3477 0.644531 9.00391 0.878906 7.65625 1.23047C5.78125 1.71875 3.90625 2.87109 3.90625 5.19531C3.90625 6.13281 4.16016 6.81641 4.47266 7.34375C4.64844 7.65625 4.62891 7.91016 4.33594 8.02734C2.8125 8.67188 1.54297 10.0781 1.54297 12.0117C1.54297 13.125 1.875 14.1016 2.42188 14.7852C2.69531 15.1562 2.63672 15.4688 2.1875 15.7227C1.09375 16.3477 0.332031 17.7344 0.332031 19.3359C0.332031 20.4688 0.683594 21.6797 1.34766 22.2656C1.73828 22.6172 1.66016 22.8711 1.25 23.2227C0.488281 23.8672 0 24.9609 0 26.3672C0 28.7109 1.83594 30.6445 4.25781 30.6445L12.8906 30.6445C15.0781 30.6445 16.5234 31.7773 16.5234 33.5742C16.5234 36.8555 12.4414 42.8711 12.4414 47.1875C12.4414 49.4727 13.8867 50.8008 15.8203 50.8008C17.5586 50.8008 18.418 49.5898 19.3555 47.7539C23.0078 40.6836 27.8711 34.9414 31.5625 30.0195C34.707 25.8594 36.25 22.2656 36.3281 16.5039Z" fill="black" fill-opacity="0.85"/>
 </g>
</svg>
