<?xml version="1.0" encoding="UTF-8"?>
<!--Generator: Apple Native CoreSVG 326-->
<!DOCTYPE svg
PUBLIC "-//W3C//DTD SVG 1.1//EN"
       "http://www.w3.org/Graphics/SVG/1.1/DTD/svg11.dtd">
<svg version="1.1" xmlns="http://www.w3.org/2000/svg" xmlns:xlink="http://www.w3.org/1999/xlink" viewBox="0 0 58.5938 58.0273">
 <g>
  <rect height="58.0273" opacity="0" width="58.5938" x="0" y="0"/>
  <path d="M43.2617 10.6836L43.2617 11.2891L22.5781 11.2891C15.8008 11.2891 11.8555 15.1953 11.8555 21.9336L11.8555 43.6914L10.3516 43.6914C5.29297 43.6914 2.73438 41.1523 2.73438 36.1523L2.73438 10.6836C2.73438 5.70312 5.29297 3.16406 10.3516 3.16406L35.6641 3.16406C40.6836 3.16406 43.2617 5.72266 43.2617 10.6836Z" fill="black" fill-opacity="0.85"/>
  <path d="M55.4883 21.9336L55.4883 47.3828C55.4883 52.3633 52.9102 54.9219 47.8711 54.9219L22.5781 54.9219C17.5195 54.9219 14.9609 52.3828 14.9609 47.3828L14.9609 21.9336C14.9609 16.9336 17.5195 14.3945 22.5781 14.3945L47.8711 14.3945C52.9102 14.3945 55.4883 16.9531 55.4883 21.9336ZM33.9258 21.1523L33.9258 32.5781C33.4766 32.5977 33.0273 32.6562 32.5977 32.7344L32.5977 22.4219C32.5977 21.6406 31.9531 20.9961 31.1914 20.9961C30.4297 20.9961 29.7852 21.6406 29.7852 22.4219L29.7852 33.6523C29.2773 33.8281 28.9453 34.082 28.5742 34.3164L28.5742 26.6016C28.5742 25.8398 27.9297 25.1953 27.1875 25.1953C26.3672 25.1953 25.7422 25.8398 25.7422 26.6016L25.7422 38.9844C25.7422 44.9414 29.5898 48.3984 34.9023 48.3984C39.043 48.3984 41.9531 46.6406 43.7305 42.4219C44.707 40.3906 45.4102 38.0273 46.1719 35.4102C46.4844 34.4531 46.875 33.3008 46.875 32.7539C46.875 32.0312 46.3477 31.543 45.6055 31.543C44.8242 31.543 44.3555 32.0312 43.8086 33.1641L41.9531 37.1875C41.7578 37.6562 41.543 37.8125 41.2891 37.8125C40.9375 37.8125 40.7617 37.5977 40.7617 37.1289L40.7617 23.2422C40.7617 22.4805 40.0977 21.8555 39.3555 21.8555C38.5742 21.8555 37.9297 22.4805 37.9297 23.2422L37.9297 33.0859C37.5781 32.9492 37.1484 32.832 36.7383 32.7148L36.7383 21.1523C36.7383 20.3906 36.1133 19.7461 35.3516 19.7461C34.5508 19.7461 33.9258 20.3906 33.9258 21.1523Z" fill="black" fill-opacity="0.85"/>
 </g>
</svg>
