<?xml version="1.0" encoding="UTF-8"?>
<!--Generator: Apple Native CoreSVG 326-->
<!DOCTYPE svg
PUBLIC "-//W3C//DTD SVG 1.1//EN"
       "http://www.w3.org/Graphics/SVG/1.1/DTD/svg11.dtd">
<svg version="1.1" xmlns="http://www.w3.org/2000/svg" xmlns:xlink="http://www.w3.org/1999/xlink" viewBox="0 0 41.9709 46.45">
 <g>
  <rect height="46.45" opacity="0" width="41.9709" x="0" y="0"/>
  <path d="M30.4483 45.2856C40.6046 41.5941 43.964 33.391 39.9405 22.3363L38.378 18.0004C36.8741 13.8793 33.9444 12.0824 31.6788 12.9027C31.171 13.0785 30.9952 13.4496 31.171 13.9379L31.9327 16.0473C32.2452 16.9066 31.9718 17.4926 31.4444 17.6879C30.8976 17.8832 30.2921 17.6098 29.9796 16.7504L29.4718 15.3441C28.5929 12.9027 26.4249 11.8676 24.3155 12.6488C23.339 13.0004 23.0655 13.5473 23.3585 14.3481L24.3937 17.1801C24.6866 18.0395 24.4132 18.6254 23.9054 18.8207C23.339 19.016 22.753 18.7426 22.4405 17.8832L21.4835 15.2856C20.4874 12.5316 18.4171 11.809 16.3468 12.5512C15.4483 12.8832 15.1163 13.4887 15.4093 14.2699L17.4015 19.7387C17.6944 20.5785 17.421 21.184 16.9132 21.3598C16.3468 21.5746 15.7608 21.3012 15.4483 20.4418L9.00303 2.74649C8.3585 0.988681 6.83506 0.266025 5.35068 0.8129C3.78818 1.37931 3.10459 2.90274 3.72959 4.66056L13.0265 30.1879C13.2413 30.7934 12.9679 31.2816 12.5577 31.4184C12.1866 31.5551 11.7765 31.4574 11.2882 30.9301L4.8624 24.0941C3.90537 23.059 2.90928 22.8441 1.89365 23.2152C0.272558 23.8012-0.332911 25.2856 0.174902 26.6332C0.350683 27.141 0.62412 27.5512 0.897558 27.9027L8.9835 38.0785C15.4093 46.1645 23.0655 47.9809 30.4483 45.2856Z" fill="black" fill-opacity="0.85"/>
 </g>
</svg>
