<?xml version="1.0" encoding="UTF-8"?>
<!--Generator: Apple Native CoreSVG 326-->
<!DOCTYPE svg
PUBLIC "-//W3C//DTD SVG 1.1//EN"
       "http://www.w3.org/Graphics/SVG/1.1/DTD/svg11.dtd">
<svg version="1.1" xmlns="http://www.w3.org/2000/svg" xmlns:xlink="http://www.w3.org/1999/xlink" viewBox="0 0 46.1914 45.8398">
 <g>
  <rect height="45.8398" opacity="0" width="46.1914" x="0" y="0"/>
  <path d="M42.9688 2.89062C45.3906 5.29297 45.8203 8.65234 45.8203 13.125L45.8203 32.6758C45.8203 37.168 45.3906 40.5078 42.9688 42.9297C40.5469 45.3516 37.1484 45.8203 32.6758 45.8203L13.1445 45.8203C8.67188 45.8203 5.29297 45.3516 2.85156 42.9297C0.429688 40.5273 0 37.168 0 32.6758L0 13.0078C0 8.67188 0.449219 5.3125 2.87109 2.89062C5.29297 0.46875 8.69141 0 13.0078 0L32.6758 0C37.1484 0 40.5273 0.46875 42.9688 2.89062ZM21.6406 7.61719L21.6406 20.5469C21.1523 20.5859 20.6641 20.6445 20.1758 20.7422L20.1758 9.04297C20.1758 8.16406 19.4336 7.44141 18.5547 7.44141C17.6953 7.44141 16.9531 8.16406 16.9531 9.04297L16.9531 21.7773C16.4258 21.9922 15.9961 22.2656 15.5859 22.5391L15.5859 13.7891C15.5859 12.9102 14.8633 12.1875 13.9844 12.1875C13.1055 12.1875 12.3633 12.9102 12.3633 13.7891L12.3633 27.832C12.3633 34.5703 16.7383 38.5156 22.7734 38.5156C27.4414 38.5156 30.7617 36.4844 32.793 31.7188C33.8672 29.3945 34.707 26.7578 35.5859 23.7695C35.918 22.6562 36.3672 21.3867 36.3672 20.7812C36.3672 19.9609 35.7422 19.4141 34.9023 19.4141C34.0234 19.4141 33.457 19.9414 32.8516 21.2109L30.7617 25.8008C30.5469 26.3477 30.2734 26.5234 30 26.5234C29.6484 26.5234 29.4141 26.2891 29.4141 25.7227L29.4141 10C29.4141 9.14062 28.6719 8.41797 27.8125 8.41797C26.9336 8.41797 26.2109 9.14062 26.2109 10L26.2109 21.1328C25.7812 20.9961 25.332 20.8398 24.8633 20.7227L24.8633 7.61719C24.8633 6.75781 24.1406 6.01562 23.2617 6.01562C22.3633 6.01562 21.6406 6.75781 21.6406 7.61719Z" fill="black" fill-opacity="0.85"/>
 </g>
</svg>
