<?xml version="1.0" encoding="UTF-8"?>
<!--Generator: Apple Native CoreSVG 326-->
<!DOCTYPE svg
PUBLIC "-//W3C//DTD SVG 1.1//EN"
       "http://www.w3.org/Graphics/SVG/1.1/DTD/svg11.dtd">
<svg version="1.1" xmlns="http://www.w3.org/2000/svg" xmlns:xlink="http://www.w3.org/1999/xlink" viewBox="0 0 75.5078 57.793">
 <g>
  <rect height="57.793" opacity="0" width="75.5078" x="0" y="0"/>
  <path d="M39.375 51.8359C41.1133 51.8359 42.7344 51.0156 45.9766 51.0156C49.2383 51.0156 50.1562 51.8359 52.6172 51.8359C56.3477 51.8359 58.3398 50.332 58.3398 47.8516C58.3398 43.5156 53.3789 40.5664 45.9375 40.5664C42.2461 40.5664 40.5859 40.8984 38.5156 41.4258L35.8398 35.293C33.125 29.2578 28.7695 25.5273 22.7734 25.5273L19.8242 25.5273C18.8672 25.5273 18.2422 25.0977 18.2422 24.1992C18.2422 22.6953 20.3125 22.3242 22.5391 22.3242C29.8633 22.3242 35.2344 26.3477 38.5547 34.4336L40.2734 38.6523C41.9531 38.3008 43.8086 38.125 45.6836 38.125C47.168 38.125 48.3984 38.2227 49.8438 38.418C51.3672 37.3047 53.0859 36.0742 55.5469 34.6875C58.3398 36.7969 61.7773 38.0859 65.2344 38.0859C72.0703 38.0859 75.1367 36.5625 75.1367 30.2148C75.1367 22.1484 69.1211 16.1328 61.7578 16.3086L55.1172 7.30469C51.4648 2.36328 46.8555 0 42.3438 0C38.6719 0 33.3594 2.10938 33.3594 5.03906C33.3594 7.03125 37.3438 9.74609 40.5273 11.6602L55.0586 20.3906C53.6719 21.7578 52.5781 22.3828 51.3281 22.3828C49.4531 22.3828 47.5586 21.3672 44.5508 19.5703C36.8164 15.1562 30.8594 10.8594 22.832 10.8594C14.4531 10.8594 8.10547 15.625 4.72656 24.8438C2.03125 24.8828 0 26.6016 0 29.2188C0 32.1289 2.30469 33.9062 5.48828 33.9453C9.10156 39.043 15.0195 41.1523 22.2461 41.1523C22.5977 41.1523 22.9688 41.1328 23.3594 41.1328L33.4766 49.3164C35.8984 51.3867 37.4609 51.8359 39.375 51.8359ZM20.957 53.5938C25.7617 53.5938 28.75 52.7148 31.2305 51.0547L23.3984 44.707C23.0469 44.7266 22.6172 44.7656 22.0898 44.7656C20.918 44.7656 18.8477 44.3945 16.7773 44.3945C13.9844 44.3945 12.3438 45.8594 12.3438 48.0469C12.3438 51.3867 15.6445 53.5938 20.957 53.5938ZM64.5508 28.9062C63.457 28.9062 62.5781 27.9883 62.5781 26.9141C62.5781 25.8008 63.4766 24.8438 64.5703 24.8438C65.6641 24.8438 66.543 25.7227 66.543 26.7969C66.543 27.8906 65.6445 28.9062 64.5508 28.9062Z" fill="black" fill-opacity="0.85"/>
 </g>
</svg>
