<?xml version="1.0" encoding="UTF-8"?>
<!--Generator: Apple Native CoreSVG 326-->
<!DOCTYPE svg
PUBLIC "-//W3C//DTD SVG 1.1//EN"
       "http://www.w3.org/Graphics/SVG/1.1/DTD/svg11.dtd">
<svg version="1.1" xmlns="http://www.w3.org/2000/svg" xmlns:xlink="http://www.w3.org/1999/xlink" viewBox="0 0 51.25 50.918">
 <g>
  <rect height="50.918" opacity="0" width="51.25" x="0" y="0"/>
  <path d="M25.4297 50.8789C39.4727 50.8789 50.8789 39.4922 50.8789 25.4492C50.8789 11.4062 39.4727 0 25.4297 0C11.3867 0 0 11.4062 0 25.4492C0 39.4922 11.3867 50.8789 25.4297 50.8789ZM25.4297 47.2461C13.3789 47.2461 3.63281 37.5 3.63281 25.4492C3.63281 13.3984 13.3789 3.65234 25.4297 3.65234C37.4805 3.65234 47.2266 13.3984 47.2266 25.4492C47.2266 37.5 37.4805 47.2461 25.4297 47.2461Z" fill="black" fill-opacity="0.85"/>
  <path d="M26.2891 36.2109C27.1094 36.2109 27.8906 35.8203 29.4336 35.8203C30.957 35.8203 31.4062 36.2109 32.5781 36.2109C34.3359 36.2109 35.2734 35.5273 35.2734 34.3359C35.2734 32.2852 32.9297 30.8984 29.4141 30.8984C27.6562 30.8984 26.8555 31.0547 25.8789 31.3086L24.6289 28.418C23.3594 25.5078 21.2891 23.7695 18.4375 23.7695L17.0312 23.7695C16.582 23.7695 16.2891 23.5742 16.2891 23.125C16.2891 22.4414 17.2656 22.2461 18.3203 22.2461C21.7773 22.2461 24.3359 24.1797 25.8984 27.9688L26.7188 30C27.5 29.8242 28.418 29.7461 29.2969 29.7461C30 29.7461 30.5664 29.7852 31.25 29.8828C31.9727 29.3555 32.793 28.7695 33.9453 28.1055C35.293 29.1016 36.8945 29.7266 38.5547 29.7266C41.7773 29.7266 43.2617 29.0039 43.2617 25.9961C43.2617 22.168 40.3711 19.3164 36.8945 19.4336L33.7305 15.1367C32.0117 12.8125 29.8438 11.6602 27.6953 11.6602C25.957 11.6602 23.457 12.6758 23.457 14.0625C23.457 15.0195 25.332 16.2891 26.8555 17.1875L33.75 21.3281C33.0664 21.9727 32.5391 22.2656 31.9531 22.2656C31.0547 22.2656 30.1562 21.7969 28.75 20.957C25.0977 18.8672 22.2656 16.8164 18.457 16.8164C14.4922 16.8164 11.4844 19.0625 9.88281 23.4375C8.59375 23.4766 7.61719 24.2969 7.61719 25.5078C7.61719 26.8945 8.73047 27.7344 10.2344 27.7734C11.9336 30.1953 14.7656 31.1719 18.1641 31.1719C18.3594 31.1719 18.5352 31.1523 18.6914 31.1523L23.4766 35.0195C24.668 35.9961 25.3711 36.2109 26.2891 36.2109ZM17.5586 37.0508C19.8242 37.0508 21.25 36.6211 22.4219 35.8594L18.7305 32.832C18.5352 32.832 18.3398 32.8516 18.0859 32.8516C17.5391 32.8516 16.543 32.7148 15.5664 32.7148C14.2383 32.7148 13.4766 33.3984 13.4766 34.4141C13.4766 35.9961 15 37.0508 17.5586 37.0508ZM38.2031 25.3906C37.6953 25.3906 37.3047 24.9219 37.3047 24.4336C37.3047 23.9062 37.7344 23.457 38.2227 23.457C38.7695 23.457 39.1602 23.8672 39.1602 24.375C39.1602 24.8828 38.7305 25.3906 38.2031 25.3906Z" fill="black" fill-opacity="0.85"/>
 </g>
</svg>
