<?xml version="1.0" encoding="UTF-8"?>
<!--Generator: Apple Native CoreSVG 326-->
<!DOCTYPE svg
PUBLIC "-//W3C//DTD SVG 1.1//EN"
       "http://www.w3.org/Graphics/SVG/1.1/DTD/svg11.dtd">
<svg version="1.1" xmlns="http://www.w3.org/2000/svg" xmlns:xlink="http://www.w3.org/1999/xlink" viewBox="0 0 69.7852 44.8633">
 <g>
  <rect height="44.8633" opacity="0" width="69.7852" x="0" y="0"/>
  <path d="M34.707 43.9453C55.3516 43.9453 69.4141 36.9727 69.4141 27.2656C69.4141 19.8047 60.957 14.6289 50.7227 13.1641L50.6445 16.4062C58.4766 17.4414 65.9766 21.6797 65.9766 27.0703C65.9766 34.707 53.0078 40.5859 34.707 40.5859C16.4258 40.5859 3.4375 34.707 3.4375 27.0703C3.4375 21.6797 10.957 17.4414 18.7695 16.4062L18.6914 13.1641C8.45703 14.6289 0 19.8047 0 27.2656C0 36.9727 14.0625 43.9453 34.707 43.9453ZM34.707 31.0352C41.582 31.0352 47.4219 29.1602 51.0352 26.3867C51.7969 25.8008 52.1484 25.1367 52.2461 24.0625C53.6719 8.78906 47.2656 0 34.707 0C22.1484 0 15.7422 8.78906 17.168 24.0625C17.2852 25.1367 17.6367 25.8398 18.457 26.4648C22.0898 29.1992 27.8711 31.0352 34.707 31.0352ZM34.707 23.0469C28.3984 23.0469 23.4375 21.3477 20.5078 19.2773C20.332 9.0625 25.5664 3.35938 34.707 3.35938C43.8281 3.35938 49.1211 9.0625 48.9844 19.2383C45.9766 21.3477 41.0156 23.0469 34.707 23.0469Z" fill="black" fill-opacity="0.85"/>
 </g>
</svg>
