<?xml version="1.0" encoding="UTF-8"?>
<!--Generator: Apple Native CoreSVG 326-->
<!DOCTYPE svg
PUBLIC "-//W3C//DTD SVG 1.1//EN"
       "http://www.w3.org/Graphics/SVG/1.1/DTD/svg11.dtd">
<svg version="1.1" xmlns="http://www.w3.org/2000/svg" xmlns:xlink="http://www.w3.org/1999/xlink" viewBox="0 0 69.8438 45.332">
 <g>
  <rect height="45.332" opacity="0" width="69.8438" x="0" y="0"/>
  <path d="M34.7266 43.9844C55.3711 43.9844 69.4727 36.9922 69.4727 27.3047C69.4727 20.6055 62.3828 15.1562 51.3477 13.2617C49.6289 5.11719 43.9062 0 34.7266 0C25.5664 0 19.8438 5.11719 18.125 13.2617C7.08984 15.1562 0 20.6055 0 27.3047C0 36.9922 14.1016 43.9844 34.7266 43.9844ZM34.6484 30.5859C27.3828 30.5859 21.4453 28.7109 18.1641 25.8008C17.8516 23.418 17.8125 20.1953 18.0273 17.8516C21.7383 21.0742 28.2812 23.1055 34.6484 23.1055C41.0156 23.1055 47.5781 21.0742 51.2891 17.8516C51.5039 20.1953 51.4648 23.418 51.1328 25.8008C47.8711 28.7109 41.9336 30.5859 34.6484 30.5859Z" fill="black" fill-opacity="0.85"/>
 </g>
</svg>
