<?xml version="1.0" encoding="UTF-8"?>
<!--Generator: Apple Native CoreSVG 326-->
<!DOCTYPE svg
PUBLIC "-//W3C//DTD SVG 1.1//EN"
       "http://www.w3.org/Graphics/SVG/1.1/DTD/svg11.dtd">
<svg version="1.1" xmlns="http://www.w3.org/2000/svg" xmlns:xlink="http://www.w3.org/1999/xlink" viewBox="0 0 68.8173 39.3945">
 <g>
  <rect height="39.3945" opacity="0" width="68.8173" x="0" y="0"/>
  <path d="M2.7778 35.1172C15.1411 34.375 43.6762 28.418 51.2153 21.9141C44.4575 6.15234 36.4301 1.17188 20.2387 3.92578C4.63327 6.54297-2.39798 19.3164 0.727021 33.6133C0.961396 34.668 1.64499 35.1758 2.7778 35.1172ZM16.7036 5.29297L23.5786 4.04297L23.3051 2.44141C23.0903 1.19141 21.7426 0.507812 20.2387 0.820312L18.4809 1.17188C16.9575 1.46484 16.2153 2.73438 16.4497 4.02344ZM56.352 39.3945C62.1723 39.3945 66.5083 34.5508 67.9536 31.1328C68.9692 28.6328 68.3442 27.5781 66.938 27.168L54.2817 23.4375C50.2973 27.1094 42.6801 30.1367 33.9692 32.1875C40.9809 35.7617 49.2622 39.3945 56.352 39.3945Z" fill="black" fill-opacity="0.85"/>
 </g>
</svg>
