<?xml version="1.0" encoding="UTF-8"?>
<!--Generator: Apple Native CoreSVG 326-->
<!DOCTYPE svg
PUBLIC "-//W3C//DTD SVG 1.1//EN"
       "http://www.w3.org/Graphics/SVG/1.1/DTD/svg11.dtd">
<svg version="1.1" xmlns="http://www.w3.org/2000/svg" xmlns:xlink="http://www.w3.org/1999/xlink" viewBox="0 0 51.25 50.918">
 <g>
  <rect height="50.918" opacity="0" width="51.25" x="0" y="0"/>
  <path d="M25.4297 50.8789C39.4727 50.8789 50.8789 39.4922 50.8789 25.4492C50.8789 11.4062 39.4727 0 25.4297 0C11.3867 0 0 11.4062 0 25.4492C0 39.4922 11.3867 50.8789 25.4297 50.8789ZM25.4297 47.2461C13.3789 47.2461 3.63281 37.5 3.63281 25.4492C3.63281 13.3984 13.3789 3.65234 25.4297 3.65234C37.4805 3.65234 47.2266 13.3984 47.2266 25.4492C47.2266 37.5 37.4805 47.2461 25.4297 47.2461Z" fill="black" fill-opacity="0.85"/>
  <path d="M25.4297 13.1836C31.6797 13.1836 35.7617 17.2461 35.7617 23.457L35.7617 23.7695C35.6055 23.7109 35.4297 23.6914 35.2539 23.6914C34.1602 23.6914 33.3789 24.5508 33.3789 25.5664L33.3789 33.3398C33.3789 34.3945 34.1602 35.2148 35.2539 35.2148C35.4297 35.2148 35.5859 35.2148 35.7227 35.2148C35.6641 35.5078 35.4688 35.5664 34.8828 35.6445L28.4766 36.7578C28.1055 36.4648 27.5977 36.3086 27.1094 36.4062L24.5703 36.8555C23.6523 36.9922 23.0469 37.8711 23.2227 38.8086C23.3789 39.668 24.2383 40.332 25.1562 40.1562L27.6953 39.6875C28.2031 39.6094 28.6523 39.2578 28.8867 38.8086L35.2539 37.6953C36.7578 37.4414 37.8125 36.6602 37.8125 34.5312L37.8125 34.043C38.6523 33.8086 39.1602 33.1445 39.1602 32.2266L39.1797 26.7188C39.1797 26.0156 38.8867 25.332 38.3789 24.9219L38.3789 23.457C38.3789 15.7031 33.1836 10.5078 25.4297 10.5078C17.6953 10.5078 12.5 15.7031 12.5 23.457L12.5 24.9219C11.9922 25.332 11.7188 26.0156 11.7188 26.7188L11.7188 32.0312C11.7188 33.5156 12.9688 34.1602 13.9258 34.1602C14.1797 34.7656 14.8242 35.2148 15.625 35.2148C16.6992 35.2148 17.5195 34.4141 17.5195 33.3398L17.5195 25.5664C17.5195 24.5117 16.6992 23.6914 15.625 23.6914C15.4688 23.6914 15.293 23.7109 15.1367 23.75L15.1367 23.457C15.1367 17.2461 19.1992 13.1836 25.4297 13.1836Z" fill="black" fill-opacity="0.85"/>
 </g>
</svg>
