<?xml version="1.0" encoding="UTF-8"?>
<!--Generator: Apple Native CoreSVG 326-->
<!DOCTYPE svg
PUBLIC "-//W3C//DTD SVG 1.1//EN"
       "http://www.w3.org/Graphics/SVG/1.1/DTD/svg11.dtd">
<svg version="1.1" xmlns="http://www.w3.org/2000/svg" xmlns:xlink="http://www.w3.org/1999/xlink" viewBox="0 0 51.25 50.918">
 <g>
  <rect height="50.918" opacity="0" width="51.25" x="0" y="0"/>
  <path d="M50.8789 25.4688C50.8789 39.4922 39.4531 50.918 25.4297 50.918C11.4258 50.918 0 39.4922 0 25.4688C0 11.4648 11.4258 0.0390625 25.4297 0.0390625C39.4531 0.0390625 50.8789 11.4648 50.8789 25.4688ZM11.582 25.4297C11.582 30.0977 12.7148 33.9453 14.6875 37.3828C15.1172 38.125 15.8789 38.457 16.6211 38.2422C17.2852 38.9062 18.2617 39.1602 19.3164 38.8086C20.957 38.3594 21.7188 36.9531 21.2305 35.332L19.3164 28.8867C18.8281 27.2461 17.4414 26.4844 15.7812 26.9727C15.3711 27.0898 15 27.2656 14.707 27.5C14.6289 26.8359 14.6094 26.1523 14.6094 25.4297C14.6094 18.3203 18.9648 13.5742 25.4492 13.5742C31.9727 13.5742 36.3281 18.3398 36.3281 25.4297C36.3281 26.1523 36.2891 26.8555 36.2305 27.5391C35.918 27.2852 35.5469 27.0898 35.0977 26.9727C33.4766 26.4844 32.0898 27.2461 31.6211 28.8867L29.668 35.3516C29.1992 36.9727 29.9414 38.3594 31.582 38.8086C32.6562 39.1406 33.6133 38.9062 34.2773 38.2422C35.0195 38.457 35.8008 38.125 36.2305 37.3828C38.2422 33.8672 39.375 30.0391 39.375 25.4297C39.375 16.5039 33.7891 10.5273 25.4492 10.5273C17.1289 10.5273 11.582 16.4844 11.582 25.4297Z" fill="black" fill-opacity="0.85"/>
 </g>
</svg>
