<?xml version="1.0" encoding="UTF-8"?>
<!--Generator: Apple Native CoreSVG 326-->
<!DOCTYPE svg
PUBLIC "-//W3C//DTD SVG 1.1//EN"
       "http://www.w3.org/Graphics/SVG/1.1/DTD/svg11.dtd">
<svg version="1.1" xmlns="http://www.w3.org/2000/svg" xmlns:xlink="http://www.w3.org/1999/xlink" viewBox="0 0 53.9258 58.1445">
 <g>
  <rect height="58.1445" opacity="0" width="53.9258" x="0" y="0"/>
  <path d="M26.7578 3.65234C39.668 3.65234 48.3203 12.2656 48.3203 25.1562L48.3203 45.3125C48.9062 45.6641 49.5312 45.8398 50.1758 45.8398C52.168 45.8398 53.5352 44.668 53.5352 42.793L53.5547 31.7383C53.5547 30.3516 52.8906 29.1211 51.9336 28.6133L51.9336 25.1367C51.9336 10.0391 41.875 0 26.7578 0C11.6602 0 1.60156 10.0391 1.60156 25.1367L1.60156 28.6133C0.644531 29.1211 0 30.3516 0 31.7383L0.0195312 42.793C0.0195312 44.668 1.36719 45.8398 3.35938 45.8398C4.00391 45.8398 4.62891 45.6641 5.19531 45.3125L5.19531 25.1562C5.19531 12.2656 13.8477 3.65234 26.7578 3.65234ZM7.08984 47.9688C8.78906 47.9688 10.0195 46.7383 10.0195 45.0391L10.0195 29.4336C10.0195 27.7344 8.78906 26.5039 7.08984 26.5039C5.39062 26.5039 4.16016 27.7344 4.16016 29.4336L4.16016 45.0391C4.16016 46.7383 5.39062 47.9688 7.08984 47.9688ZM46.4453 47.9688C48.1445 47.9688 49.375 46.7383 49.375 45.0391L49.375 29.4336C49.375 27.7344 48.1445 26.5039 46.4453 26.5039C44.7461 26.5039 43.5156 27.7344 43.5156 29.4336L43.5156 45.0391C43.5156 46.7383 44.7461 47.9688 46.4453 47.9688ZM48.3203 44.082L48.3203 47.5195C48.3203 49.8633 47.8906 50.1758 45.8984 50.5273L32.0508 52.9492L32.4805 55.3906L46.3477 52.9297C49.082 52.4609 50.7422 51.1914 50.7422 47.4805L50.7422 44.043ZM26.0156 57.8711L31.0742 56.9727C32.4609 56.7383 33.3594 55.4492 33.1055 54.082C32.8711 52.7344 31.582 51.8164 30.2148 52.0508L25.1562 52.9688C23.7695 53.2031 22.8711 54.4727 23.125 55.8594C23.3594 57.207 24.6484 58.1055 26.0156 57.8711Z" fill="black" fill-opacity="0.85"/>
 </g>
</svg>
