<?xml version="1.0" encoding="UTF-8"?>
<!--Generator: Apple Native CoreSVG 326-->
<!DOCTYPE svg
PUBLIC "-//W3C//DTD SVG 1.1//EN"
       "http://www.w3.org/Graphics/SVG/1.1/DTD/svg11.dtd">
<svg version="1.1" xmlns="http://www.w3.org/2000/svg" xmlns:xlink="http://www.w3.org/1999/xlink" viewBox="0 0 59.5508 45.918">
 <g>
  <rect height="45.918" opacity="0" width="59.5508" x="0" y="0"/>
  <path d="M59.1797 7.53906L59.1797 38.3984C59.1797 43.3594 56.6211 45.918 51.5625 45.918L7.59766 45.918C2.55859 45.918 0 43.3984 0 38.3984L0 7.53906C0 2.53906 2.55859 0 7.59766 0L51.5625 0C56.6211 0 59.1797 2.55859 59.1797 7.53906ZM29.5898 15.4102C28.3203 13.125 26.1523 11.5039 23.3789 11.5039C19.043 11.5039 15.8789 14.8047 15.8789 19.3164C15.8789 26.25 23.3203 32.5586 28.3984 35.7617C28.8281 36.0352 29.3359 36.3281 29.6289 36.3281C29.9414 36.3281 30.4102 36.0352 30.7812 35.7617C35.7812 32.4219 43.3008 26.25 43.3008 19.3164C43.3008 14.8047 40.1562 11.5039 35.8008 11.5039C33.0664 11.5039 30.8594 13.125 29.5898 15.4102Z" fill="black" fill-opacity="0.85"/>
 </g>
</svg>
