<?xml version="1.0" encoding="UTF-8"?>
<!--Generator: Apple Native CoreSVG 326-->
<!DOCTYPE svg
PUBLIC "-//W3C//DTD SVG 1.1//EN"
       "http://www.w3.org/Graphics/SVG/1.1/DTD/svg11.dtd">
<svg version="1.1" xmlns="http://www.w3.org/2000/svg" xmlns:xlink="http://www.w3.org/1999/xlink" viewBox="0 0 56.6797 54.3945">
 <g>
  <rect height="54.3945" opacity="0" width="56.6797" x="0" y="0"/>
  <path d="M18.5156 42.0312C18.5156 48.8086 22.7734 53.1641 29.3945 53.1641C34.3945 53.1641 38.1836 50.8398 40.5078 46.5039L42.5391 42.7734C47.8906 32.6367 56.6797 31.7773 56.6797 19.4141C56.6797 7.75391 49.1602 0 37.8711 0C26.3086 0 18.5156 7.87109 18.5156 19.5508ZM25.7422 35.1953C25.7422 30.5469 31.0156 31.3477 31.0156 28.2617C31.0156 25.6836 25.7422 23.8086 25.7422 18.1445C25.7422 11.7969 30.6055 7.1875 37.793 7.1875C45.0195 7.1875 49.8438 11.9922 49.8438 19.2188C49.8438 20.1367 49.0625 20.8984 48.1445 20.8984C47.2461 20.8984 46.4453 20.1367 46.4453 19.2188C46.4453 13.9844 43.0664 10.5664 37.793 10.5664C32.5977 10.5664 29.1211 13.7891 29.1211 18.1445C29.1211 23.5742 36.9727 24.707 36.9727 32.168C36.9727 36.1719 34.3359 39.3555 30.5469 39.375C27.6758 39.375 25.7422 37.6953 25.7422 35.1953Z" fill="black" fill-opacity="0.85"/>
  <path d="M5.58594 11.6016C7.79297 11.6016 9.58984 9.82422 9.58984 7.59766C9.58984 5.39062 7.79297 3.59375 5.58594 3.59375C3.35938 3.59375 1.5625 5.39062 1.5625 7.59766C1.5625 9.82422 3.35938 11.6016 5.58594 11.6016Z" fill="black" fill-opacity="0.85"/>
  <path d="M5.58594 24.6484C7.79297 24.6484 9.58984 22.8516 9.58984 20.6445C9.58984 18.418 7.79297 16.6406 5.58594 16.6406C3.35938 16.6406 1.5625 18.418 1.5625 20.6445C1.5625 22.8516 3.35938 24.6484 5.58594 24.6484Z" fill="black" fill-opacity="0.85"/>
  <path d="M5.58594 37.7344C7.79297 37.7344 9.58984 35.9375 9.58984 33.7305C9.58984 31.5039 7.79297 29.707 5.58594 29.707C3.35938 29.707 1.5625 31.5039 1.5625 33.7305C1.5625 35.9375 3.35938 37.7344 5.58594 37.7344Z" fill="black" fill-opacity="0.85"/>
  <path d="M5.58594 50.7617C7.79297 50.7617 9.58984 48.9844 9.58984 46.7578C9.58984 44.5508 7.79297 42.7539 5.58594 42.7539C3.35938 42.7539 1.5625 44.5508 1.5625 46.7578C1.5625 48.9844 3.35938 50.7617 5.58594 50.7617Z" fill="black" fill-opacity="0.85"/>
 </g>
</svg>
