<?xml version="1.0" encoding="UTF-8"?>
<!--Generator: Apple Native CoreSVG 326-->
<!DOCTYPE svg
PUBLIC "-//W3C//DTD SVG 1.1//EN"
       "http://www.w3.org/Graphics/SVG/1.1/DTD/svg11.dtd">
<svg version="1.1" xmlns="http://www.w3.org/2000/svg" xmlns:xlink="http://www.w3.org/1999/xlink" viewBox="0 0 46.2891 45.918">
 <g>
  <rect height="45.918" opacity="0" width="46.2891" x="0" y="0"/>
  <path d="M7.59766 45.918L38.3008 45.918C43.3594 45.918 45.918 43.3594 45.918 38.3984L45.918 7.53906C45.918 2.55859 43.3594 0 38.3008 0L7.59766 0C2.55859 0 0 2.53906 0 7.53906L0 38.3984C0 43.3984 2.55859 45.918 7.59766 45.918ZM7.67578 42.4609C4.94141 42.4609 3.45703 41.0156 3.45703 38.2031L3.45703 7.71484C3.45703 4.92188 4.94141 3.45703 7.67578 3.45703L38.2422 3.45703C40.918 3.45703 42.4609 4.92188 42.4609 7.71484L42.4609 38.2031C42.4609 41.0156 40.918 42.4609 38.2422 42.4609Z" fill="black" fill-opacity="0.85"/>
  <path d="M12.4219 7.92969C10.332 7.92969 8.78906 9.55078 8.78906 11.7578C8.78906 15.1562 12.4414 18.1641 14.9219 19.8047C15.1367 19.9414 15.3516 20.0586 15.5078 20.0586C15.6641 20.0586 15.8594 19.9414 16.0742 19.8047C18.5547 18.2812 22.1875 15.1562 22.1875 11.7578C22.1875 9.55078 20.6445 7.92969 18.4961 7.92969C17.1875 7.92969 16.0938 8.75 15.4883 9.86328C14.8633 8.75 13.7891 7.92969 12.4219 7.92969ZM10.1758 28.2812L35.2539 28.2812C36.0352 28.2812 36.6211 27.6758 36.6211 26.8945C36.6211 26.1523 36.0352 25.5664 35.2539 25.5664L10.1758 25.5664C9.375 25.5664 8.78906 26.1523 8.78906 26.8945C8.78906 27.6758 9.375 28.2812 10.1758 28.2812ZM10.1758 36.7578L28.418 36.7578C29.1992 36.7578 29.7852 36.1719 29.7852 35.4297C29.7852 34.6484 29.1992 34.043 28.418 34.043L10.1758 34.043C9.375 34.043 8.78906 34.6484 8.78906 35.4297C8.78906 36.1719 9.375 36.7578 10.1758 36.7578Z" fill="black" fill-opacity="0.85"/>
 </g>
</svg>
