<?xml version="1.0" encoding="UTF-8"?>
<!--Generator: Apple Native CoreSVG 326-->
<!DOCTYPE svg
PUBLIC "-//W3C//DTD SVG 1.1//EN"
       "http://www.w3.org/Graphics/SVG/1.1/DTD/svg11.dtd">
<svg version="1.1" xmlns="http://www.w3.org/2000/svg" xmlns:xlink="http://www.w3.org/1999/xlink" viewBox="0 0 72.8377 37.9102">
 <g>
  <rect height="37.9102" opacity="0" width="72.8377" x="0" y="0"/>
  <path d="M37.3856 9.17969L42.7372 21.3477L47.0536 11.9727C47.5809 10.8203 49.1239 10.8008 49.6903 12.0312L52.275 17.7344L65.021 17.7344L62.6839 20.7227L51.4286 20.7227C50.7255 20.7227 50.3349 20.3516 50.0809 19.7461L48.3817 15.9766L43.8895 25.8008C43.4403 26.7969 42.0731 26.7969 41.5849 25.7422L36.2333 13.5352L30.8622 25.7422C30.3739 26.7969 29.0263 26.7969 28.5575 25.8008L24.0849 15.9766L22.3856 19.7461C22.1122 20.3516 21.7411 20.7227 21.0184 20.7227L9.76312 20.7227L7.42605 17.7344L20.1861 17.7344L22.7567 12.0312C23.3231 10.8008 24.8661 10.8203 25.3934 11.9727L29.7294 21.3477L35.0809 9.17969C35.5692 8.10547 36.8778 8.10547 37.3856 9.17969Z" fill="black" fill-opacity="0.85"/>
  <path d="M36.2333 33.5742C41.37 33.5742 47.1317 35.0391 51.5263 37.2852C52.6395 37.8516 53.8895 37.6367 54.6317 36.6797L71.4677 15.1367C73.0106 13.1836 72.7177 11.1133 70.8036 9.60938C63.6356 4.17969 50.0809 0 36.2333 0C22.3661 0 8.81141 4.17969 1.66298 9.60938C-0.270617 11.1133-0.544055 13.1836 0.979383 15.1367L17.8153 36.6797C18.577 37.6367 19.8075 37.8516 20.9403 37.2852C25.3349 35.0391 31.077 33.5742 36.2333 33.5742ZM36.2333 30.1172C31.4286 30.1172 26.0184 31.3477 20.8622 33.4766C20.2372 33.7305 19.9247 33.7109 19.4169 33.0664L4.41688 13.8867C3.9286 13.2422 4.02626 12.6172 4.69032 12.1484C13.2841 6.66016 24.7684 3.47656 36.2333 3.47656C47.6981 3.47656 59.1825 6.66016 67.7567 12.1484C68.4403 12.6172 68.538 13.2422 68.0302 13.8867L53.0302 33.0664C52.5224 33.7109 52.2294 33.7305 51.6044 33.4766C46.4481 31.3477 41.038 30.1172 36.2333 30.1172Z" fill="black" fill-opacity="0.85"/>
 </g>
</svg>
