<?xml version="1.0" encoding="UTF-8"?>
<!--Generator: Apple Native CoreSVG 326-->
<!DOCTYPE svg
PUBLIC "-//W3C//DTD SVG 1.1//EN"
       "http://www.w3.org/Graphics/SVG/1.1/DTD/svg11.dtd">
<svg version="1.1" xmlns="http://www.w3.org/2000/svg" xmlns:xlink="http://www.w3.org/1999/xlink" viewBox="0 0 47.0461 49.7951">
 <g>
  <rect height="49.7951" opacity="0" width="47.0461" x="0" y="0"/>
  <path d="M0.300415 8.20807C-0.383179 9.2237 0.144165 10.4932 1.43323 10.4932L4.77307 10.4932L4.77307 10.9229C4.77307 19.5948 9.46057 21.1182 9.46057 25.5909C9.46057 30.1026 3.5426 31.626 3.5426 39.9073C3.5426 42.8956 4.30432 44.9854 6.39416 47.6417C7.93713 49.5948 10.984 47.6026 9.34338 45.4346C7.76135 43.3057 7.21448 41.8995 7.21448 39.6729C7.21448 33.5987 13.1324 31.7823 13.1324 25.5909C13.1324 19.3995 8.42541 17.9346 8.42541 10.9229L8.42541 10.4932L11.7457 10.4932C13.0348 10.4932 13.6012 9.24323 12.8785 8.20807L7.89807 0.981512C7.21448-0.0731756 6.02307-0.112238 5.28088 0.981512ZM16.9606 8.12995C16.277 9.12604 16.8043 10.3956 18.1129 10.3956L21.4332 10.3956L21.4332 10.8253C21.4332 19.5167 26.1207 21.0206 26.1207 25.5128C26.1207 30.0049 20.2028 31.5284 20.2028 39.8292C20.2028 42.8174 20.9645 44.8878 23.0543 47.5635C24.5973 49.5167 27.6442 47.5245 26.0231 45.337C24.441 43.2276 23.8942 41.8214 23.8942 39.5948C23.8942 33.5206 29.7926 31.7042 29.7926 25.5128C29.7926 19.3214 25.0856 17.837 25.0856 10.8253L25.0856 10.3956L28.4059 10.3956C29.6949 10.3956 30.2614 9.14557 29.5582 8.12995L24.5582 0.883856C23.8746-0.151301 22.6832-0.190363 21.9606 0.883856ZM33.6403 8.05182C32.9567 9.04792 33.484 10.3174 34.7731 10.3174L38.1129 10.3174L38.1129 10.7471C38.1129 19.4385 42.7809 20.9424 42.7809 25.4346C42.7809 29.9268 36.8824 31.4503 36.8824 39.751C36.8824 42.7198 37.6442 44.8096 39.734 47.4854C41.277 49.419 44.3043 47.4268 42.6832 45.2589C41.1012 43.1495 40.5543 41.7237 40.5543 39.4971C40.5543 33.4424 46.4723 31.6065 46.4723 25.4346C46.4723 19.2432 41.7653 17.7589 41.7653 10.7471L41.7653 10.3174L45.066 10.3174C46.3746 10.3174 46.941 9.06745 46.2184 8.05182L41.2379 0.805731C40.5543-0.248957 39.3629-0.288019 38.6207 0.805731Z" fill="black" fill-opacity="0.85"/>
 </g>
</svg>
