<?xml version="1.0" encoding="UTF-8"?>
<!--Generator: Apple Native CoreSVG 326-->
<!DOCTYPE svg
PUBLIC "-//W3C//DTD SVG 1.1//EN"
       "http://www.w3.org/Graphics/SVG/1.1/DTD/svg11.dtd">
<svg version="1.1" xmlns="http://www.w3.org/2000/svg" xmlns:xlink="http://www.w3.org/1999/xlink" viewBox="0 0 60.9375 60.6055">
 <g>
  <rect height="60.6055" opacity="0" width="60.9375" x="0" y="0"/>
  <path d="M30.293 54.0234C43.3789 54.0234 54.0039 43.418 54.0039 30.3125C54.0039 17.2266 43.3789 6.62109 30.293 6.62109C17.1875 6.62109 6.58203 17.2266 6.58203 30.3125C6.58203 43.418 17.1875 54.0234 30.293 54.0234ZM30.293 50.5273C19.1211 50.5273 10.0781 41.4844 10.0781 30.3125C10.0781 19.1602 19.1211 10.0977 30.293 10.0977C41.4453 10.0977 50.5078 19.1602 50.5078 30.3125C50.5078 41.4844 41.4453 50.5273 30.293 50.5273ZM30.2734 60.6055C31.1719 60.6055 31.8359 59.9023 31.8359 59.043L31.8359 1.60156C31.8359 0.722656 31.1719 0.0390625 30.2734 0.0390625C29.4141 0.0390625 28.7305 0.722656 28.7305 1.60156L28.7305 59.043C28.7305 59.9023 29.4141 60.6055 30.2734 60.6055ZM51.6992 51.7578C52.3242 51.1328 52.3242 50.1562 51.6992 49.5117L11.0938 8.90625C10.4492 8.28125 9.47266 8.28125 8.84766 8.90625C8.24219 9.51172 8.24219 10.4883 8.88672 11.1133L49.4922 51.7188C50.1172 52.3633 51.0938 52.3633 51.6992 51.7578ZM1.5625 31.875L59.0039 31.875C59.8828 31.875 60.5664 31.1914 60.5664 30.332C60.5664 29.4336 59.8828 28.7695 59.0039 28.7695L1.5625 28.7695C0.703125 28.7695 0 29.4336 0 30.332C0 31.1914 0.703125 31.875 1.5625 31.875ZM11.0938 51.7188L51.6992 11.1133C52.3242 10.4883 52.3242 9.51172 51.7188 8.90625C51.0938 8.28125 50.1172 8.28125 49.4922 8.90625L8.88672 49.5117C8.24219 50.1562 8.24219 51.1328 8.88672 51.7578C9.47266 52.3633 10.4492 52.3633 11.0938 51.7188Z" fill="black" fill-opacity="0.85"/>
 </g>
</svg>
