<?xml version="1.0" encoding="UTF-8"?>
<!--Generator: Apple Native CoreSVG 326-->
<!DOCTYPE svg
PUBLIC "-//W3C//DTD SVG 1.1//EN"
       "http://www.w3.org/Graphics/SVG/1.1/DTD/svg11.dtd">
<svg version="1.1" xmlns="http://www.w3.org/2000/svg" xmlns:xlink="http://www.w3.org/1999/xlink" viewBox="0 0 65.8789 64.3945">
 <g>
  <rect height="64.3945" opacity="0" width="65.8789" x="0" y="0"/>
  <path d="M37.0592 7.3444C31.9716 8.01405 28.1197 9.70069 25.0211 12.5679C24.5632 10.165 22.4555 8.33984 19.9219 8.33984C17.0508 8.33984 14.7266 10.6836 14.7266 13.5547C14.7266 16.3867 17.0508 18.7305 19.9219 18.7305C20.2574 18.7305 20.5854 18.6985 20.9022 18.6346C20.5091 19.6723 20.1947 20.8217 19.9818 22.0929C19.9623 22.0899 19.9421 22.0898 19.9219 22.0898C14.6094 22.0898 10.3125 26.3867 10.3125 31.7188C10.3125 36.9389 14.4613 41.1785 19.6484 41.3143L19.6484 45.3711C19.6484 45.782 19.6562 46.186 19.6947 46.5625L8.30078 46.5625C4.72656 46.5625 2.75391 44.5898 2.75391 40.9961L2.75391 8.41797C2.75391 4.82422 4.72656 2.85156 8.30078 2.85156L31.582 2.85156C34.781 2.85156 36.6971 4.43179 37.0592 7.3444ZM19.6484 35.8651C17.4332 35.7289 15.7031 33.8928 15.7031 31.6602C15.7031 29.39 17.4332 27.5704 19.6484 27.4355ZM22.793 13.5547C22.793 15.1172 21.5234 16.4062 19.9219 16.4062C18.3203 16.4062 17.0508 15.1172 17.0508 13.5547C17.0508 11.9531 18.3203 10.6836 19.9219 10.6836C21.5234 10.6836 22.793 11.9531 22.793 13.5547Z" fill="black" fill-opacity="0.85"/>
  <path d="M19.9818 22.0929C19.7658 23.3387 19.6484 24.7029 19.6484 26.1914L19.6484 27.4355C17.4332 27.5704 15.7031 29.39 15.7031 31.6602C15.7031 33.8928 17.4332 35.7289 19.6484 35.8651L19.6484 41.3143C14.4613 41.1785 10.3125 36.9389 10.3125 31.7188C10.3125 26.3867 14.6094 22.0898 19.9219 22.0898C19.9421 22.0898 19.9623 22.0899 19.9818 22.0929ZM25.0211 12.5679C24.4689 13.0719 23.9427 13.6166 23.4375 14.1992C22.4462 15.3977 21.5631 16.8582 20.9022 18.6346C20.5854 18.6985 20.2574 18.7305 19.9219 18.7305C17.0508 18.7305 14.7266 16.3867 14.7266 13.5547C14.7266 10.6836 17.0508 8.33984 19.9219 8.33984C22.4555 8.33984 24.5632 10.165 25.0211 12.5679ZM17.0508 13.5547C17.0508 15.1172 18.3203 16.4062 19.9219 16.4062C21.5234 16.4062 22.793 15.1172 22.793 13.5547C22.793 11.9531 21.5234 10.6836 19.9219 10.6836C18.3203 10.6836 17.0508 11.9531 17.0508 13.5547Z" fill="black" fill-opacity="0.2125"/>
  <path d="M42.7539 61.2695C56.5039 61.2695 62.7539 56.4453 62.7539 45.3711L62.7539 26.1914C62.7539 21.3477 61.3672 18.2031 59.668 16.1523C59.082 15.4492 58.1836 15.4297 57.5 16.0352C55.2148 18.2812 49.1797 19.9219 42.7539 19.9219C36.3086 19.9219 30.293 18.2812 27.9883 16.0352C27.3047 15.4297 26.4062 15.4492 25.8203 16.1523C24.1211 18.2031 22.7539 21.3477 22.7539 26.1914L22.7539 45.3711C22.7539 56.4453 28.9844 61.2695 42.7539 61.2695Z" fill="black" fill-opacity="0.425"/>
  <path d="M42.7539 16.7969C49.2188 16.7969 54.5703 15.4102 54.5703 13.457C54.5703 11.4844 49.2188 10.0977 42.7539 10.0977C36.2891 10.0977 30.918 11.4844 30.918 13.457C30.918 15.4102 36.2891 16.7969 42.7539 16.7969Z" fill="black" fill-opacity="0.85"/>
 </g>
</svg>
