<?xml version="1.0" encoding="UTF-8"?>
<!--Generator: Apple Native CoreSVG 326-->
<!DOCTYPE svg
PUBLIC "-//W3C//DTD SVG 1.1//EN"
       "http://www.w3.org/Graphics/SVG/1.1/DTD/svg11.dtd">
<svg version="1.1" xmlns="http://www.w3.org/2000/svg" xmlns:xlink="http://www.w3.org/1999/xlink" viewBox="0 0 61.7773 63.418">
 <g>
  <rect height="63.418" opacity="0" width="61.7773" x="0" y="0"/>
  <path d="M34.2657 8.14453L28.9844 8.14453C25.9436 8.14453 23.5375 9.04689 21.9005 10.7238C21.0515 9.82588 19.8332 9.29688 18.5156 9.29688C16.0352 9.29688 13.9062 11.1719 13.9062 13.8281C13.9062 16.3867 15.918 18.4375 18.5156 18.4375C18.824 18.4375 19.1245 18.4082 19.4141 18.3504L19.4141 22.3721C19.1188 22.3401 18.8189 22.3242 18.5156 22.3242C13.7695 22.3242 9.90234 26.1719 9.90234 30.918C9.90234 35.7031 13.8086 39.5117 18.5156 39.5117C18.8188 39.5117 19.1187 39.4959 19.4141 39.4638L19.4141 44.8242L8.14453 44.8242C4.66797 44.8242 2.73438 42.9297 2.73438 39.3945L2.73438 8.47656C2.73438 4.98047 4.66797 3.08594 8.14453 3.08594L28.8672 3.08594C32.2493 3.08594 34.1509 4.85898 34.2657 8.14453ZM19.4141 27.2205L19.4141 34.6935C19.1269 34.7676 18.8255 34.8047 18.5156 34.8047C16.3867 34.8047 14.668 33.0859 14.668 30.957C14.668 28.8281 16.3867 27.1094 18.5156 27.1094C18.8255 27.1094 19.1269 27.1465 19.4141 27.2205ZM20.6738 12.3866C20.0466 13.4848 19.6491 14.7924 19.5007 16.2899C19.1981 16.4157 18.8654 16.4844 18.5156 16.4844C17.0508 16.4844 15.918 15.3125 15.918 13.8672C15.918 12.3633 17.0508 11.2695 18.5156 11.2695C19.4199 11.2695 20.2095 11.6977 20.6738 12.3866Z" fill="black" fill-opacity="0.85"/>
  <path d="M19.4141 22.3721L19.4141 27.2205C19.1269 27.1465 18.8255 27.1094 18.5156 27.1094C16.3867 27.1094 14.668 28.8281 14.668 30.957C14.668 33.0859 16.3867 34.8047 18.5156 34.8047C18.8255 34.8047 19.1269 34.7676 19.4141 34.6935L19.4141 39.4638C19.1187 39.4959 18.8188 39.5117 18.5156 39.5117C13.8086 39.5117 9.90234 35.7031 9.90234 30.918C9.90234 26.1719 13.7695 22.3242 18.5156 22.3242C18.8189 22.3242 19.1188 22.3401 19.4141 22.3721ZM21.9005 10.7238C21.4211 11.2095 21.0088 11.7628 20.6738 12.3866C20.2095 11.6977 19.4199 11.2695 18.5156 11.2695C17.0508 11.2695 15.918 12.3633 15.918 13.8672C15.918 15.3125 17.0508 16.4844 18.5156 16.4844C18.8654 16.4844 19.1981 16.4157 19.5007 16.2899C19.44 16.7671 19.4141 17.2707 19.4141 17.793L19.4141 18.3504C19.1245 18.4082 18.824 18.4375 18.5156 18.4375C15.918 18.4375 13.9062 16.3867 13.9062 13.8281C13.9062 11.1719 16.0352 9.29688 18.5156 9.29688C19.8332 9.29688 21.0515 9.82588 21.9005 10.7238Z" fill="black" fill-opacity="0.2125"/>
  <path d="M22.5391 17.793L22.5391 53.7891C22.5391 58.1055 24.7266 60.3125 29.0039 60.3125L52.2266 60.3125C56.5234 60.3125 58.6719 58.1055 58.6719 53.7891L58.6719 17.793C58.6719 13.4375 56.5234 11.2695 52.2266 11.2695L29.0039 11.2695C24.707 11.2695 22.5391 13.4375 22.5391 17.793ZM40.6055 28.9844C37.5391 28.9844 35.0977 26.5625 35.0977 23.4961C35.0977 20.4297 37.5586 18.0078 40.6055 18.0078C43.6523 18.0078 46.1133 20.4297 46.1133 23.4961C46.1133 26.543 43.6523 28.9844 40.6055 28.9844ZM40.6055 53.5742C35.0195 53.5742 30.5273 49.1016 30.5273 43.4961C30.5273 37.8711 35.0195 33.4375 40.6055 33.4375C46.1719 33.4375 50.6641 37.8711 50.6641 43.4961C50.6641 49.1016 46.1719 53.5742 40.6055 53.5742ZM40.6055 26.582C42.3242 26.582 43.6719 25.1562 43.6719 23.4961C43.6719 21.7773 42.2852 20.4297 40.6055 20.4297C38.8672 20.4297 37.5195 21.7188 37.5195 23.4961C37.5195 25.1562 38.8867 26.582 40.6055 26.582ZM40.6055 47.9688C43.125 47.9688 45.0586 45.9766 45.0586 43.4961C45.0586 40.957 43.125 39.0234 40.6055 39.0234C38.0859 39.0234 36.1328 40.957 36.1328 43.4961C36.1328 45.9766 38.1641 47.9688 40.6055 47.9688Z" fill="black" fill-opacity="0.85"/>
  <path d="M40.6055 28.9844C37.5391 28.9844 35.0977 26.5625 35.0977 23.4961C35.0977 20.4297 37.5586 18.0078 40.6055 18.0078C43.6523 18.0078 46.1133 20.4297 46.1133 23.4961C46.1133 26.543 43.6523 28.9844 40.6055 28.9844ZM40.6055 53.5742C35.0195 53.5742 30.5273 49.1016 30.5273 43.4961C30.5273 37.8711 35.0195 33.4375 40.6055 33.4375C46.1719 33.4375 50.6641 37.8711 50.6641 43.4961C50.6641 49.1016 46.1719 53.5742 40.6055 53.5742ZM40.6055 26.582C42.3242 26.582 43.6719 25.1562 43.6719 23.4961C43.6719 21.7773 42.2852 20.4297 40.6055 20.4297C38.8672 20.4297 37.5195 21.7188 37.5195 23.4961C37.5195 25.1562 38.8867 26.582 40.6055 26.582ZM40.6055 47.9688C43.125 47.9688 45.0586 45.9766 45.0586 43.4961C45.0586 40.957 43.125 39.0234 40.6055 39.0234C38.0859 39.0234 36.1328 40.957 36.1328 43.4961C36.1328 45.9766 38.1641 47.9688 40.6055 47.9688Z" fill="black" fill-opacity="0.2125"/>
 </g>
</svg>
