<?xml version="1.0" encoding="UTF-8"?>
<!--Generator: Apple Native CoreSVG 326-->
<!DOCTYPE svg
PUBLIC "-//W3C//DTD SVG 1.1//EN"
       "http://www.w3.org/Graphics/SVG/1.1/DTD/svg11.dtd">
<svg version="1.1" xmlns="http://www.w3.org/2000/svg" xmlns:xlink="http://www.w3.org/1999/xlink" viewBox="0 0 62.1875 63.6133">
 <g>
  <rect height="63.6133" opacity="0" width="62.1875" x="0" y="0"/>
  <path d="M34.6621 8.14453L31.2375 8.14453C30.8133 6.99878 29.7944 6.36719 28.2617 6.36719L9.23828 6.36719C7.14844 6.36719 6.01562 7.51953 6.01562 9.53125L6.01562 38.457C6.01562 40.4688 7.14844 41.6016 9.23828 41.6016L19.668 41.6016L19.668 44.8828L9.04297 44.8828C4.94141 44.8828 2.73438 42.6953 2.73438 38.5742L2.73438 9.43359C2.73438 5.29297 4.96094 3.08594 9.04297 3.08594L28.457 3.08594C32.091 3.08594 34.239 4.83503 34.6621 8.14453ZM19.668 21.1796L19.668 26.34C19.3765 26.267 19.0686 26.2305 18.75 26.2305C16.582 26.2305 14.9414 27.8906 14.9414 29.9805C14.9414 32.0703 16.5625 33.7109 18.75 33.7109C19.0692 33.7109 19.377 33.6754 19.668 33.6041L19.668 38.7234C19.3665 38.754 19.0603 38.7695 18.75 38.7695C13.7891 38.7695 9.86328 34.8242 9.86328 29.9609C9.86328 25.0977 13.8086 21.1328 18.75 21.1328C19.0602 21.1328 19.3664 21.1486 19.668 21.1796ZM22.223 10.7018C21.6769 11.2491 21.2147 11.8809 20.8487 12.5987C20.3804 11.9461 19.618 11.5234 18.75 11.5234C17.2852 11.5234 16.1328 12.6953 16.1328 14.1406C16.1328 15.5859 17.2852 16.7188 18.75 16.7188C19.1007 16.7188 19.4342 16.652 19.7375 16.5292C19.6889 16.9644 19.668 17.4202 19.668 17.8906L19.668 18.9335C19.3713 18.9935 19.0641 19.0234 18.75 19.0234C16.0352 19.0234 13.8672 16.8164 13.8672 14.1406C13.8672 11.4453 16.0352 9.23828 18.75 9.23828C20.1088 9.23828 21.3385 9.79921 22.223 10.7018Z" fill="black" fill-opacity="0.85"/>
  <path d="M22.7734 17.8906L22.7734 53.8867C22.7734 58.2227 24.9609 60.4883 29.2969 60.4883L52.5391 60.4883C56.875 60.4883 59.0625 58.2227 59.0625 53.8867L59.0625 17.8906C59.0625 13.5156 56.875 11.2695 52.5391 11.2695L29.2969 11.2695C24.9414 11.2695 22.7734 13.5156 22.7734 17.8906ZM26.2305 17.9102C26.2305 15.8008 27.3047 14.7266 29.4141 14.7266L52.4023 14.7266C54.5312 14.7266 55.6055 15.8008 55.6055 17.9102L55.6055 53.8672C55.6055 55.957 54.5117 57.0312 52.4023 57.0312L29.4141 57.0312C27.3047 57.0312 26.2305 55.957 26.2305 53.8672ZM40.8984 29.4922C43.9258 29.4922 46.3867 27.0508 46.3867 24.043C46.3867 21.0352 43.9453 18.6523 40.8984 18.6523C37.9102 18.6523 35.4688 20.9961 35.4688 24.043C35.4688 27.0898 37.8906 29.4922 40.8984 29.4922ZM40.8984 26.9922C39.2773 26.9922 37.9883 25.6641 37.9883 24.043C37.9883 22.3633 39.2578 21.1133 40.8984 21.1133C42.5391 21.1133 43.8672 22.4414 43.8672 24.043C43.8672 25.6641 42.5391 26.9922 40.8984 26.9922ZM40.8984 53.1445C46.4062 53.1445 50.8398 48.75 50.8398 43.2227C50.8398 37.7148 46.4062 33.3203 40.8984 33.3203C35.4297 33.3203 30.9961 37.7344 30.9961 43.2227C30.9961 48.7305 35.4297 53.1445 40.8984 53.1445ZM40.8984 47.5C38.5547 47.5 36.6406 45.625 36.6406 43.2227C36.6406 40.7812 38.5156 38.9062 40.8984 38.9062C43.3398 38.9062 45.2148 40.7812 45.2148 43.2227C45.2148 45.625 43.3398 47.5 40.8984 47.5Z" fill="black" fill-opacity="0.85"/>
 </g>
</svg>
