<?xml version="1.0" encoding="UTF-8"?>
<!--Generator: Apple Native CoreSVG 326-->
<!DOCTYPE svg
PUBLIC "-//W3C//DTD SVG 1.1//EN"
       "http://www.w3.org/Graphics/SVG/1.1/DTD/svg11.dtd">
<svg version="1.1" xmlns="http://www.w3.org/2000/svg" xmlns:xlink="http://www.w3.org/1999/xlink" viewBox="0 0 38.3008 51.543">
 <g>
  <rect height="51.543" opacity="0" width="38.3008" x="0" y="0"/>
  <path d="M0 6.83594L0 44.668C0 49.1992 2.28516 51.5234 6.77734 51.5234L31.1523 51.5234C35.6445 51.5234 37.9297 49.1992 37.9297 44.668L37.9297 6.83594C37.9297 2.30469 35.6641 0 31.1523 0L6.77734 0C2.26562 0 0 2.30469 0 6.83594ZM3.45703 6.89453C3.45703 4.62891 4.62891 3.45703 6.89453 3.45703L31.0352 3.45703C33.3008 3.45703 34.4727 4.62891 34.4727 6.89453L34.4727 44.6289C34.4727 46.8555 33.2812 48.0664 31.0352 48.0664L6.89453 48.0664C4.64844 48.0664 3.45703 46.8555 3.45703 44.6289ZM18.9648 43.8086C24.6875 43.8086 29.2969 39.2383 29.2969 33.4766C29.2969 27.7148 24.6875 23.1641 18.9648 23.1445C13.2422 23.1055 8.63281 27.7148 8.63281 33.4766C8.63281 39.2383 13.2422 43.8086 18.9648 43.8086ZM18.9648 38.0469C16.4453 38.0469 14.375 36.0156 14.375 33.4766C14.375 30.8594 16.3867 28.8672 18.9648 28.8672C21.543 28.8672 23.5547 30.8594 23.5547 33.4766C23.5547 36.0156 21.543 38.0469 18.9648 38.0469ZM18.9648 18.9648C22.0898 18.9648 24.6484 16.4844 24.6094 13.3398C24.5898 10.2148 22.0898 7.77344 18.9648 7.73438C15.8398 7.69531 13.3203 10.1953 13.3203 13.3398C13.3203 16.4844 15.8398 18.9648 18.9648 18.9648ZM18.9648 16.5234C17.207 16.5234 15.7812 15.0781 15.7812 13.3398C15.7812 11.5234 17.1875 10.1758 18.9648 10.1758C20.6836 10.1758 22.1484 11.6016 22.1484 13.3398C22.1484 15.0781 20.7227 16.5234 18.9648 16.5234Z" fill="black" fill-opacity="0.85"/>
 </g>
</svg>
