<?xml version="1.0" encoding="UTF-8"?>
<!--Generator: Apple Native CoreSVG 326-->
<!DOCTYPE svg
PUBLIC "-//W3C//DTD SVG 1.1//EN"
       "http://www.w3.org/Graphics/SVG/1.1/DTD/svg11.dtd">
<svg version="1.1" xmlns="http://www.w3.org/2000/svg" xmlns:xlink="http://www.w3.org/1999/xlink" viewBox="0 0 71.0156 61.8555">
 <g>
  <rect height="61.8555" opacity="0" width="71.0156" x="0" y="0"/>
  <path d="M37.0898 8.14453L37.0898 15.1105C35.9274 15.3317 34.8333 15.6114 33.8086 15.9488L33.8086 8.24219C33.8086 6.09375 32.5781 4.86328 30.3516 4.86328L9.49219 4.86328C7.26562 4.86328 6.01562 6.09375 6.01562 8.24219L6.01562 38.6133C6.01562 40.7617 7.26562 42.0117 9.49219 42.0117L19.7221 42.0117C19.8842 43.1325 20.1476 44.2275 20.4908 45.293L9.27734 45.293C5.01953 45.293 2.73438 43.0078 2.73438 38.7305L2.73438 8.14453C2.73438 3.88672 5.01953 1.58203 9.27734 1.58203L30.5664 1.58203C34.8047 1.58203 37.0898 3.88672 37.0898 8.14453ZM24.9581 21.8383C23.774 23.133 22.7837 24.5844 21.9805 26.1482C21.3773 25.8013 20.6746 25.6055 19.9219 25.6055C17.6172 25.6055 15.7812 27.4414 15.7812 29.7461C15.7812 31.9146 17.4169 33.6786 19.5711 33.8499C19.3804 35.0251 19.2969 36.2344 19.2969 37.4609C19.2969 38.0029 19.3135 38.5428 19.3814 39.0745C14.438 38.8066 10.5469 34.74 10.5469 29.7461C10.5469 24.5508 14.7266 20.3711 19.9219 20.3711C21.7805 20.3711 23.5092 20.9061 24.9581 21.8383ZM24.9414 13.0859C24.9414 15.8789 22.6562 18.125 19.9023 18.125C17.1484 18.125 14.8633 15.8789 14.8633 13.0859C14.8633 10.332 17.1289 8.06641 19.9023 8.06641C22.6758 8.06641 24.9414 10.332 24.9414 13.0859ZM17.1094 13.0859C17.1094 14.6289 18.3594 15.8789 19.9023 15.8789C21.4258 15.8789 22.6758 14.6289 22.6758 13.0859C22.6758 11.5625 21.4258 10.3125 19.9023 10.3125C18.3594 10.3125 17.1094 11.5625 17.1094 13.0859Z" fill="black" fill-opacity="0.85"/>
  <path d="M45.1562 58.7305C53.8086 58.7305 57.207 57.5781 60.4297 54.5703C65.0977 50.3125 67.8906 44.082 67.8906 37.4609C67.8906 31.8164 65.8789 26.6211 62.207 22.9297C61.3086 21.8555 59.8242 21.6797 58.6719 22.4805C56.3281 24.6875 52.7539 26.2109 45.1562 26.2109C37.5586 26.2109 33.9844 24.6875 31.6211 22.4805C30.4688 21.6797 29.0039 21.8359 28.1055 22.9297C24.4141 26.6211 22.4219 31.7969 22.4219 37.4609C22.4219 44.082 25.1953 50.3125 29.8633 54.5703C33.0859 57.5781 36.5039 58.7305 45.1562 58.7305ZM45.1562 55.0977C37.832 55.0977 35 54.375 32.3633 51.8945C28.3594 48.2031 26.0938 43.0078 26.0938 37.4609C26.0938 32.6953 27.7344 28.1055 31.543 24.5117L28.8281 25.2148C31.7188 28.1641 37.0703 29.8633 45.1562 29.8633C53.2422 29.8633 58.5938 28.1641 61.4844 25.1953L58.75 24.5117C62.5781 28.0859 64.2383 32.6758 64.2383 37.4609C64.2383 43.0078 61.9531 48.2031 57.9297 51.8945C55.2734 54.375 52.4805 55.0977 45.1562 55.0977Z" fill="black" fill-opacity="0.425"/>
  <path d="M45.1562 23.5352C51.582 23.5352 55.9961 22.2852 55.9961 20.5273C55.9961 18.75 51.582 17.5 45.1562 17.5C38.7109 17.5 34.2969 18.75 34.2969 20.5273C34.2969 22.2852 38.7109 23.5352 45.1562 23.5352Z" fill="black" fill-opacity="0.85"/>
 </g>
</svg>
