<?xml version="1.0" encoding="UTF-8"?>
<!--Generator: Apple Native CoreSVG 326-->
<!DOCTYPE svg
PUBLIC "-//W3C//DTD SVG 1.1//EN"
       "http://www.w3.org/Graphics/SVG/1.1/DTD/svg11.dtd">
<svg version="1.1" xmlns="http://www.w3.org/2000/svg" xmlns:xlink="http://www.w3.org/1999/xlink" viewBox="0 0 65.7422 64.4727">
 <g>
  <rect height="64.4727" opacity="0" width="65.7422" x="0" y="0"/>
  <path d="M36.9727 8.92578L36.9727 17.3047L33.7109 17.3047L33.7109 9.02344C33.7109 7.24609 32.6758 6.25 30.8789 6.25L8.82812 6.25C7.03125 6.25 5.99609 7.24609 5.99609 9.02344L5.99609 42.168C5.99609 43.9648 7.03125 44.9609 8.82812 44.9609L18.4375 44.9609L18.4375 48.2227L8.63281 48.2227C4.84375 48.2227 2.73438 46.1328 2.73438 42.2656L2.73438 8.92578C2.73438 5.07812 4.84375 2.98828 8.63281 2.98828L31.0742 2.98828C34.8828 2.98828 36.9727 5.07812 36.9727 8.92578ZM19.9383 23.0701C19.0826 24.6956 18.6861 26.5375 18.53 28.5823C16.9493 29.1188 15.8594 30.6002 15.8594 32.3633C15.8594 34.1068 16.9068 35.5561 18.4375 36.1132L18.4375 41.5617C13.9456 40.8954 10.5469 37.0702 10.5469 32.3633C10.5469 27.1875 14.6875 23.0664 19.8633 23.0664C19.8886 23.0664 19.9139 23.0665 19.9383 23.0701ZM24.9219 14.9219C24.9219 17.7148 22.6758 19.9805 19.8633 19.9805C17.0508 19.9805 14.7852 17.7344 14.7852 14.9219C14.7852 12.1094 17.0508 9.86328 19.8633 9.86328C22.6758 9.86328 24.9219 12.1094 24.9219 14.9219ZM17.1875 14.9219C17.1875 16.3867 18.3789 17.5781 19.8633 17.5781C21.3281 17.5781 22.5195 16.3867 22.5195 14.9219C22.5195 13.457 21.3086 12.2461 19.8633 12.2461C18.3594 12.2461 17.1875 13.418 17.1875 14.9219Z" fill="black" fill-opacity="0.85"/>
  <path d="M32.4219 61.3477L51.7773 61.3477C55.4688 61.3477 58.2812 60.9766 60.2734 58.9844C62.2656 56.9531 62.6172 54.1992 62.6172 50.4883L62.6172 31.2891C62.6172 27.5781 62.2656 24.8047 60.2734 22.8125C58.2617 20.8203 55.4688 20.4297 51.7773 20.4297L32.3242 20.4297C28.75 20.4297 25.9375 20.8398 23.9453 22.832C21.9336 24.8242 21.5625 27.5977 21.5625 31.1914L21.5625 50.4883C21.5625 54.1992 21.9336 56.9727 23.9453 58.9844C25.9375 60.9766 28.7305 61.3477 32.4219 61.3477ZM32.5 36.25C32.4414 34.668 33.75 33.1055 35.4688 33.0078C35.5859 34.5508 34.2383 36.4453 32.5 36.25ZM38.3984 43.6719C38.0859 44.7852 37.3633 46.0742 36.4062 46.9922C36.1328 47.2656 35.7227 47.4609 35.1758 47.4609C34.6875 47.4609 34.3945 47.2852 33.9453 47.1484C33.6914 47.0703 33.3008 46.8555 32.8516 46.8555C31.7773 46.8555 31.3086 47.5 30.4492 47.5C29.8438 47.5 29.3555 47.1484 28.7305 46.4258C27.5 45.0391 26.6602 42.8711 26.6602 41.0156C26.6602 39.8438 26.9531 38.7695 27.6953 37.8711C28.3008 37.1094 29.2188 36.6406 30.3516 36.6406C31.3867 36.6406 32.0117 37.2852 32.5586 37.2852C33.2227 37.2852 33.9648 36.6211 35.3125 36.6211C36.4648 36.6211 37.4414 37.0898 38.0664 38.0078C37.2266 38.4961 36.8945 39.082 36.7383 39.5703C36.4844 40.293 36.4062 41.1523 36.7383 42.0117C37.0703 42.793 37.5781 43.3203 38.3984 43.6719ZM44.2578 34.0625L44.2578 36.6211L46.3086 36.6211L46.3086 38.3203L44.2578 38.3203L44.2578 44.2773C44.2578 45.2539 44.6875 45.6445 45.5664 45.6445C45.7812 45.6445 46.1719 45.6445 46.2891 45.5664L46.2891 47.3828C46.0938 47.4023 45.5664 47.4609 45.0977 47.4609C42.8906 47.4609 42.0312 46.6992 42.0312 44.5312L42.0312 38.3203L40.5273 38.3203L40.5273 36.6211L42.0312 36.6211L42.0312 34.0625ZM53.6133 47.3828L51.2891 47.3828L47.3242 36.6211L49.668 36.6211L52.4414 45.2539L55.0781 36.6211L57.5 36.6211Z" fill="black" fill-opacity="0.85"/>
 </g>
</svg>
