<?xml version="1.0" encoding="UTF-8"?>
<!--Generator: Apple Native CoreSVG 326-->
<!DOCTYPE svg
PUBLIC "-//W3C//DTD SVG 1.1//EN"
       "http://www.w3.org/Graphics/SVG/1.1/DTD/svg11.dtd">
<svg version="1.1" xmlns="http://www.w3.org/2000/svg" xmlns:xlink="http://www.w3.org/1999/xlink" viewBox="0 0 51.1914 38.3008">
 <g>
  <rect height="38.3008" opacity="0" width="51.1914" x="0" y="0"/>
  <path d="M25.3906 38.2617C39.8047 38.2617 50.8203 31.8945 50.8203 24.082L50.8203 11.3867L47.3633 14.3359L47.3633 24.082C47.3633 30 38.8281 34.8047 25.3906 34.8047C11.9531 34.8047 3.4375 30 3.4375 24.082L3.4375 14.3359L0 11.3867L0 24.082C0 31.8945 10.957 38.2617 25.3906 38.2617ZM25.3906 22.7344C39.6289 22.7344 50.8203 17.6562 50.8203 11.2109C50.8203 4.96094 39.6289 0 25.3906 0C11.1523 0 0 4.96094 0 11.2109C0 17.6562 11.1523 22.7344 25.3906 22.7344ZM25.3906 19.2773C12.9492 19.2773 3.4375 15.7031 3.4375 11.2109C3.4375 6.89453 12.9492 3.45703 25.3906 3.45703C37.832 3.45703 47.3633 6.89453 47.3633 11.2109C47.3633 15.7031 37.832 19.2773 25.3906 19.2773Z" fill="black" fill-opacity="0.85"/>
 </g>
</svg>
