<?xml version="1.0" encoding="UTF-8"?>
<!--Generator: Apple Native CoreSVG 326-->
<!DOCTYPE svg
PUBLIC "-//W3C//DTD SVG 1.1//EN"
       "http://www.w3.org/Graphics/SVG/1.1/DTD/svg11.dtd">
<svg version="1.1" xmlns="http://www.w3.org/2000/svg" xmlns:xlink="http://www.w3.org/1999/xlink" viewBox="0 0 51.1914 38.3008">
 <g>
  <rect height="38.3008" opacity="0" width="51.1914" x="0" y="0"/>
  <path d="M25.3906 22.7344C39.6289 22.7344 50.8203 17.6562 50.8203 11.2109C50.8203 4.96094 39.6289 0 25.3906 0C11.1523 0 0 4.96094 0 11.2109C0 17.6562 11.1523 22.7344 25.3906 22.7344ZM25.3906 38.2617C39.8047 38.2617 50.8203 31.8945 50.8203 24.082L50.8203 18.1445C46.0938 22.9688 36.3086 25.8594 25.3906 25.8594C14.5117 25.8594 4.74609 22.9883 0 18.1445L0 24.082C0 31.8945 10.957 38.2617 25.3906 38.2617Z" fill="black" fill-opacity="0.85"/>
 </g>
</svg>
