<?xml version="1.0" encoding="UTF-8"?>
<!--Generator: Apple Native CoreSVG 326-->
<!DOCTYPE svg
PUBLIC "-//W3C//DTD SVG 1.1//EN"
       "http://www.w3.org/Graphics/SVG/1.1/DTD/svg11.dtd">
<svg version="1.1" xmlns="http://www.w3.org/2000/svg" xmlns:xlink="http://www.w3.org/1999/xlink" viewBox="0 0 64.9219 64.3945">
 <g>
  <rect height="64.3945" opacity="0" width="64.9219" x="0" y="0"/>
  <path d="M7.51953 8.30078C9.64844 10.2539 15.0586 11.7969 20.8789 11.7969C22.2066 11.7969 23.5179 11.7136 24.7739 11.5602C23.9262 12.2702 23.1619 13.0606 22.4805 13.9258C19.9609 17.0898 18.6914 21.0938 18.6914 26.1914L18.6914 45.3711C18.6914 46.7638 18.7809 48.0761 18.9783 49.2926C7.81878 48.8604 2.73438 44.4313 2.73438 34.8828L2.73438 17.5C2.73438 13.1055 3.96484 10.2344 5.52734 8.39844C6.07422 7.77344 6.89453 7.71484 7.51953 8.30078Z" fill="black" fill-opacity="0.425"/>
  <path d="M31.582 5.97656C31.582 7.73438 27.0703 9.00391 20.8594 9.00391C14.668 9.00391 10.1367 7.73438 10.1367 5.97656C10.1367 4.17969 14.668 2.92969 20.8594 2.92969C27.0703 2.92969 31.582 4.17969 31.582 5.97656Z" fill="black" fill-opacity="0.85"/>
  <path d="M41.7969 61.2695C55.5664 61.2695 61.7969 56.4453 61.7969 45.3711L61.7969 26.1914C61.7969 21.3477 60.4297 18.2031 58.7305 16.1523C58.1445 15.4492 57.2461 15.4297 56.5625 16.0352C54.2578 18.2812 48.2227 19.9219 41.7969 19.9219C35.3711 19.9219 29.3359 18.2812 27.0508 16.0352C26.3672 15.4297 25.4492 15.4492 24.8633 16.1523C23.1641 18.2031 21.7969 21.3477 21.7969 26.1914L21.7969 45.3711C21.7969 56.4453 28.0469 61.2695 41.7969 61.2695Z" fill="black" fill-opacity="0.425"/>
  <path d="M41.7969 16.7969C48.2617 16.7969 53.6328 15.4102 53.6328 13.457C53.6328 11.4844 48.2617 10.0977 41.7969 10.0977C35.332 10.0977 29.9805 11.4844 29.9805 13.457C29.9805 15.4102 35.332 16.7969 41.7969 16.7969Z" fill="black" fill-opacity="0.85"/>
 </g>
</svg>
