<?xml version="1.0" encoding="UTF-8"?>
<!--Generator: Apple Native CoreSVG 326-->
<!DOCTYPE svg
PUBLIC "-//W3C//DTD SVG 1.1//EN"
       "http://www.w3.org/Graphics/SVG/1.1/DTD/svg11.dtd">
<svg version="1.1" xmlns="http://www.w3.org/2000/svg" xmlns:xlink="http://www.w3.org/1999/xlink" viewBox="0 0 58.0859 51.1914">
 <g>
  <rect height="51.1914" opacity="0" width="58.0859" x="0" y="0"/>
  <path d="M1.66016 30.3711C0.761719 30.3711 0 29.5898 0 28.6719C0 27.7344 0.761719 26.9531 1.66016 26.9531L23.2031 26.9727L26.2891 27.0898L24.7461 25.5859L20.8008 21.8945C20.4688 21.582 20.293 21.1328 20.293 20.7227C20.293 19.8242 20.9375 19.1602 21.8164 19.1602C22.2656 19.1602 22.6172 19.3359 22.9297 19.668L30.4688 27.4219C30.8789 27.8516 31.0547 28.2227 31.0547 28.6719C31.0547 29.1016 30.8789 29.4727 30.4688 29.9023L22.9297 37.6562C22.6172 37.9883 22.2656 38.1641 21.8164 38.1641C20.9375 38.1641 20.293 37.4805 20.293 36.6016C20.293 36.1719 20.4688 35.7227 20.8008 35.4297L24.7461 31.7188L26.2695 30.2539L23.2031 30.3711ZM28.8477 51.1719C42.6172 51.1719 48.8477 46.3477 48.8477 35.2539L48.8477 16.0938C48.8477 11.2305 47.4805 8.08594 45.7812 6.05469C45.1953 5.35156 44.2969 5.33203 43.6133 5.9375C41.3086 8.18359 35.293 9.82422 28.8477 9.82422C22.4219 9.82422 16.3867 8.18359 14.1016 5.9375C13.418 5.33203 12.5195 5.35156 11.9336 6.05469C10.2344 8.08594 8.84766 11.2305 8.84766 16.0938L8.84766 35.2539C8.84766 46.3477 15.0977 51.1719 28.8477 51.1719ZM28.8477 6.69922C35.6836 6.69922 40.6836 5.29297 40.6836 3.35938C40.6836 1.38672 35.6836 0 28.8477 0C22.0117 0 17.0312 1.38672 17.0312 3.35938C17.0312 5.29297 22.0117 6.69922 28.8477 6.69922Z" fill="black" fill-opacity="0.85"/>
 </g>
</svg>
