<?xml version="1.0" encoding="UTF-8"?>
<!--Generator: Apple Native CoreSVG 326-->
<!DOCTYPE svg
PUBLIC "-//W3C//DTD SVG 1.1//EN"
       "http://www.w3.org/Graphics/SVG/1.1/DTD/svg11.dtd">
<svg version="1.1" xmlns="http://www.w3.org/2000/svg" xmlns:xlink="http://www.w3.org/1999/xlink" viewBox="0 0 49.707 45.293">
 <g>
  <rect height="45.293" opacity="0" width="49.707" x="0" y="0"/>
  <path d="M24.668 45.293C34.043 45.293 37.7344 44.0625 41.25 40.7812C46.3281 36.1328 49.3359 29.4141 49.3359 22.207C49.3359 16.1914 47.2656 10.5078 43.1641 6.42578C42.2656 5.35156 40.8008 5.21484 39.668 6.01562C37.0508 8.4375 32.6367 10.0391 24.668 10.0391C16.6992 10.0391 12.2852 8.4375 9.6875 6.01562C8.55469 5.21484 7.07031 5.35156 6.19141 6.42578C2.07031 10.5078 0 16.1914 0 22.207C0 29.4141 3.00781 36.1328 8.08594 40.7812C11.6016 44.0625 15.3125 45.293 24.668 45.293ZM24.668 41.8164C16.5234 41.8164 13.3789 40.9961 10.4492 38.2617C5.97656 34.1602 3.45703 28.3594 3.45703 22.207C3.45703 17.168 5.15625 12.3242 8.98438 8.49609L7.42188 8.88672C10.8203 12.0508 17.0898 13.4961 24.668 13.4961C32.2656 13.4961 38.5156 12.0508 41.9336 8.88672L40.3711 8.49609C44.1992 12.3242 45.8789 17.168 45.8789 22.207C45.8789 28.3594 43.3594 34.1602 38.9062 38.2617C35.957 40.9961 32.8125 41.8164 24.668 41.8164Z" fill="black" fill-opacity="0.425"/>
  <path d="M24.668 6.91406C31.8555 6.91406 36.6992 5.52734 36.6992 3.61328C36.6992 1.67969 31.8555 0.292969 24.668 0.292969C17.4805 0.292969 12.6562 1.67969 12.6562 3.61328C12.6562 5.52734 17.4805 6.91406 24.668 6.91406Z" fill="black" fill-opacity="0.85"/>
 </g>
</svg>
