<?xml version="1.0" encoding="UTF-8"?>
<!--Generator: Apple Native CoreSVG 326-->
<!DOCTYPE svg
PUBLIC "-//W3C//DTD SVG 1.1//EN"
       "http://www.w3.org/Graphics/SVG/1.1/DTD/svg11.dtd">
<svg version="1.1" xmlns="http://www.w3.org/2000/svg" xmlns:xlink="http://www.w3.org/1999/xlink" viewBox="0 0 65.1172 51.1914">
 <g>
  <rect height="51.1914" opacity="0" width="65.1172" x="0" y="0"/>
  <path d="M49.2969 6.05469C50.9961 8.08594 52.3633 11.2305 52.3633 16.0938L52.3633 35.2539C52.3633 46.3477 46.1328 51.1719 32.3633 51.1719C18.6133 51.1719 12.3633 46.3477 12.3633 35.2539L12.3633 33.8281L15.8398 33.8281L15.8398 34.8828C15.8398 43.7305 20.5664 47.7148 32.3633 47.7148C44.1797 47.7148 48.9062 43.7305 48.9062 34.8828L48.9062 16.2695C48.9062 13.8477 48.457 11.6602 47.2461 9.74609C44.3945 12.207 38.8477 13.2812 32.3633 13.2812C25.8984 13.2812 20.3516 12.207 17.5 9.74609C16.2891 11.6602 15.8398 13.8477 15.8398 16.2695L15.8398 23.4961L12.3633 23.4961L12.3633 16.0938C12.3633 11.2305 13.75 8.08594 15.4492 6.05469C16.0352 5.35156 16.9336 5.33203 17.6172 5.9375C19.9023 8.18359 25.9375 9.82422 32.3633 9.82422C38.8086 9.82422 44.8242 8.18359 47.1289 5.9375C47.8125 5.33203 48.7109 5.35156 49.2969 6.05469ZM44.1992 3.35938C44.1992 5.29297 39.1992 6.69922 32.3633 6.69922C25.5273 6.69922 20.5469 5.29297 20.5469 3.35938C20.5469 1.38672 25.5273 0 32.3633 0C39.1992 0 44.1992 1.38672 44.1992 3.35938Z" fill="black" fill-opacity="0.85"/>
  <path d="M5.17578 30.3711L26.7188 30.3711L29.7852 30.2539L28.2617 31.7188L24.3164 35.4297C23.9844 35.7227 23.8086 36.1719 23.8086 36.6016C23.8086 37.4805 24.4531 38.1641 25.332 38.1641C25.7812 38.1641 26.1328 37.9883 26.4453 37.6562L33.9844 29.9023C34.3945 29.4727 34.5703 29.1016 34.5703 28.6719C34.5703 28.2227 34.3945 27.8516 33.9844 27.4219L26.4453 19.668C26.1328 19.3359 25.7812 19.1602 25.332 19.1602C24.4531 19.1602 23.8086 19.8242 23.8086 20.7227C23.8086 21.1328 23.9844 21.582 24.3164 21.8945L28.2617 25.5859L29.8047 27.0898L26.7188 26.9727L5.17578 26.9531C4.27734 26.9531 3.51562 27.7344 3.51562 28.6719C3.51562 29.5898 4.27734 30.3711 5.17578 30.3711Z" fill="black" fill-opacity="0.85"/>
 </g>
</svg>
