<?xml version="1.0" encoding="UTF-8"?>
<!--Generator: Apple Native CoreSVG 326-->
<!DOCTYPE svg
PUBLIC "-//W3C//DTD SVG 1.1//EN"
       "http://www.w3.org/Graphics/SVG/1.1/DTD/svg11.dtd">
<svg version="1.1" xmlns="http://www.w3.org/2000/svg" xmlns:xlink="http://www.w3.org/1999/xlink" viewBox="0 0 71.0156 64.9023">
 <g>
  <rect height="64.9023" opacity="0" width="71.0156" x="0" y="0"/>
  <path d="M39.668 9.19922C41.1556 10.9947 42.3888 13.6285 42.6727 17.5071C41.4592 17.5595 40.3022 17.6623 39.2006 17.8131C39.0341 16.0316 38.5532 14.3852 37.6172 12.8906C34.7656 15.3516 29.2188 16.4258 22.7344 16.4258C16.2695 16.4258 10.7227 15.3516 7.87109 12.8906C6.66016 14.8242 6.21094 17.0117 6.21094 19.4141L6.21094 38.0273C6.21094 46.6018 10.6269 50.5622 21.3995 50.8498C21.8927 52.0647 22.4888 53.2306 23.1916 54.3268C23.0466 54.3353 22.8909 54.3359 22.7344 54.3359C10.1367 54.3359 2.73438 50.4883 2.73438 38.418L2.73438 19.2383C2.73438 14.3945 4.12109 11.25 5.82031 9.19922C6.40625 8.51562 7.30469 8.47656 7.98828 9.10156C10.2734 11.3477 16.3086 12.9688 22.7344 12.9688C29.1797 12.9688 35.1953 11.3477 37.5 9.10156C38.1836 8.47656 39.082 8.51562 39.668 9.19922Z" fill="black" fill-opacity="0.425"/>
  <path d="M34.5703 6.50391C34.5703 8.45703 29.1992 9.86328 22.7344 9.86328C16.2695 9.86328 10.918 8.45703 10.918 6.50391C10.918 4.55078 16.2695 3.16406 22.7344 3.16406C29.1992 3.16406 34.5703 4.55078 34.5703 6.50391Z" fill="black" fill-opacity="0.85"/>
  <path d="M45.1562 61.7969C53.8086 61.7969 57.207 60.625 60.4297 57.6367C65.0977 53.3789 67.8906 47.1289 67.8906 40.5078C67.8906 34.8633 65.8789 29.6875 62.207 25.9766C61.3086 24.9219 59.8242 24.7461 58.6719 25.5469C56.3281 27.7344 52.7539 29.2578 45.1562 29.2578C37.5586 29.2578 33.9844 27.7344 31.6211 25.5469C30.4688 24.7461 29.0039 24.9023 28.1055 25.9766C24.4141 29.6875 22.4219 34.8438 22.4219 40.5078C22.4219 47.1289 25.1953 53.3789 29.8633 57.6367C33.0859 60.625 36.5039 61.7969 45.1562 61.7969ZM45.1562 58.1445C37.832 58.1445 35 57.4219 32.3633 54.9414C28.3594 51.2695 26.0938 46.0547 26.0938 40.5078C26.0938 35.7617 27.7344 31.1719 31.543 27.5586L28.8281 28.2812C31.7188 31.2109 37.0703 32.9102 45.1562 32.9102C53.2422 32.9102 58.5938 31.2109 61.4844 28.2617L58.75 27.5586C62.5781 31.1523 64.2383 35.7422 64.2383 40.5078C64.2383 46.0547 61.9531 51.2695 57.9297 54.9414C55.2734 57.4219 52.4805 58.1445 45.1562 58.1445Z" fill="black" fill-opacity="0.425"/>
  <path d="M45.1562 26.6016C51.582 26.6016 55.9961 25.332 55.9961 23.5938C55.9961 21.7969 51.582 20.5664 45.1562 20.5664C38.7109 20.5664 34.2969 21.7969 34.2969 23.5938C34.2969 25.332 38.7109 26.6016 45.1562 26.6016Z" fill="black" fill-opacity="0.85"/>
 </g>
</svg>
