<?xml version="1.0" encoding="UTF-8"?>
<!--Generator: Apple Native CoreSVG 326-->
<!DOCTYPE svg
PUBLIC "-//W3C//DTD SVG 1.1//EN"
       "http://www.w3.org/Graphics/SVG/1.1/DTD/svg11.dtd">
<svg version="1.1" xmlns="http://www.w3.org/2000/svg" xmlns:xlink="http://www.w3.org/1999/xlink" viewBox="0 0 40.3711 51.1914">
 <g>
  <rect height="51.1914" opacity="0" width="40.3711" x="0" y="0"/>
  <path d="M20 51.1719C33.75 51.1719 40 46.3477 40 35.2539L40 16.0938C40 11.2305 38.6328 8.08594 36.9336 6.05469C36.3477 5.35156 35.4492 5.33203 34.7461 5.9375C32.4609 8.18359 26.4258 9.82422 20 9.82422C13.5742 9.82422 7.53906 8.18359 5.23438 5.9375C4.55078 5.33203 3.65234 5.35156 3.06641 6.05469C1.36719 8.08594 0 11.2305 0 16.0938L0 35.2539C0 46.3477 6.23047 51.1719 20 51.1719Z" fill="black" fill-opacity="0.425"/>
  <path d="M20 6.69922C26.8359 6.69922 31.8164 5.29297 31.8164 3.35938C31.8164 1.38672 26.8359 0 20 0C13.1641 0 8.18359 1.38672 8.18359 3.35938C8.18359 5.29297 13.1641 6.69922 20 6.69922Z" fill="black" fill-opacity="0.85"/>
 </g>
</svg>
