<?xml version="1.0" encoding="UTF-8"?>
<!--Generator: Apple Native CoreSVG 326-->
<!DOCTYPE svg
PUBLIC "-//W3C//DTD SVG 1.1//EN"
       "http://www.w3.org/Graphics/SVG/1.1/DTD/svg11.dtd">
<svg version="1.1" xmlns="http://www.w3.org/2000/svg" xmlns:xlink="http://www.w3.org/1999/xlink" viewBox="0 0 72.6562 45.293">
 <g>
  <rect height="45.293" opacity="0" width="72.6562" x="0" y="0"/>
  <path d="M54.6289 6.42578C58.75 10.5078 60.8203 16.1914 60.8203 22.207C60.8203 29.4141 57.793 36.1328 52.7344 40.7812C49.1992 44.0625 45.5078 45.293 36.1523 45.293C26.7773 45.293 23.0859 44.0625 19.5703 40.7812C16.7217 38.1737 14.5184 34.9146 13.1633 31.2695L16.8901 31.2695C18.0609 33.8997 19.7616 36.2792 21.9141 38.2617C24.8633 40.9961 28.0078 41.8164 36.1523 41.8164C44.2773 41.8164 47.4219 40.9961 50.3711 38.2617C54.8242 34.1602 57.3633 28.3594 57.3633 22.207C57.3633 17.5807 55.931 13.1191 52.7288 9.45919C49.2122 12.2256 43.2574 13.4961 36.1523 13.4961C29.0291 13.4961 23.0733 12.2256 19.5566 9.45939C16.6506 12.7828 15.2165 16.7679 14.9821 20.9375L11.5203 20.9375C11.7714 15.3934 13.8455 10.2183 17.6562 6.42578C18.5547 5.35156 20.0195 5.21484 21.1523 6.01562C23.7695 8.4375 28.1641 10.0391 36.1523 10.0391C44.1211 10.0391 48.5352 8.4375 51.1328 6.01562C52.2656 5.21484 53.7305 5.35156 54.6289 6.42578ZM48.1641 3.61328C48.1641 5.52734 43.3203 6.91406 36.1523 6.91406C28.9648 6.91406 24.1211 5.52734 24.1211 3.61328C24.1211 1.67969 28.9648 0.292969 36.1523 0.292969C43.3203 0.292969 48.1641 1.67969 48.1641 3.61328Z" fill="black" fill-opacity="0.85"/>
  <path d="M5.17578 27.8125L26.6992 27.8125L29.7852 27.6953L28.2422 29.1602L24.3164 32.8711C23.9648 33.1641 23.7891 33.6133 23.7891 34.043C23.7891 34.9219 24.4336 35.6055 25.3125 35.6055C25.7812 35.6055 26.1133 35.4297 26.4453 35.0977L33.9844 27.3438C34.3945 26.9336 34.5508 26.543 34.5508 26.1133C34.5508 25.6641 34.3945 25.293 33.9844 24.8633L26.4453 17.1094C26.1133 16.7773 25.7812 16.6016 25.3125 16.6016C24.4336 16.6016 23.7891 17.2656 23.7891 18.1641C23.7891 18.5938 23.9648 19.043 24.3164 19.3359L28.2422 23.0469L29.7852 24.5312L26.6992 24.4141L5.17578 24.3945C4.27734 24.3945 3.51562 25.1758 3.51562 26.1133C3.51562 27.0312 4.27734 27.8125 5.17578 27.8125Z" fill="black" fill-opacity="0.85"/>
 </g>
</svg>
