<?xml version="1.0" encoding="UTF-8"?>
<!--Generator: Apple Native CoreSVG 326-->
<!DOCTYPE svg
PUBLIC "-//W3C//DTD SVG 1.1//EN"
       "http://www.w3.org/Graphics/SVG/1.1/DTD/svg11.dtd">
<svg version="1.1" xmlns="http://www.w3.org/2000/svg" xmlns:xlink="http://www.w3.org/1999/xlink" viewBox="0 0 70.8594 60.6055">
 <g>
  <rect height="60.6055" opacity="0" width="70.8594" x="0" y="0"/>
  <path d="M11.6016 8.41797C13.9648 10.625 17.6172 12.168 25.2344 12.168C25.832 12.168 26.4042 12.1583 26.945 12.1365C25.591 13.0569 24.3572 14.1289 23.2003 15.348C17.6295 15.1278 13.1155 13.9551 10.2539 11.582C7.22656 14.9219 5.91797 18.9648 5.91797 23.1836C5.91797 28.7891 8.24219 34.082 12.2852 37.793C13.3754 38.8231 14.4946 39.555 15.8661 40.0634C16.0941 41.2684 16.4106 42.4472 16.816 43.5889C13.8717 42.9472 11.9585 41.823 10.1172 40.1172C5.50781 35.8789 2.73438 29.7461 2.73438 23.1836C2.73438 17.5195 4.76562 12.4023 8.37891 8.76953C9.19922 7.77344 10.5664 7.65625 11.6016 8.41797Z" fill="black" fill-opacity="0.425"/>
  <path d="M36.0938 6.23047C36.0938 8.00781 31.6797 9.25781 25.2344 9.25781C18.8086 9.25781 14.3945 8.00781 14.3945 6.23047C14.3945 4.47266 18.8086 3.22266 25.2344 3.22266C31.6797 3.22266 36.0938 4.47266 36.0938 6.23047Z" fill="black" fill-opacity="0.85"/>
  <path d="M43.0664 57.5C52.4414 57.5 56.1328 56.2695 59.6484 52.9883C64.7266 48.3398 67.7344 41.6211 67.7344 34.4141C67.7344 28.3984 65.6641 22.7148 61.5625 18.6328C60.6641 17.5586 59.1992 17.4219 58.0664 18.2227C55.4492 20.6445 51.0352 22.2461 43.0664 22.2461C35.0977 22.2461 30.6836 20.6445 28.0859 18.2227C26.9531 17.4219 25.4688 17.5586 24.5898 18.6328C20.4688 22.7148 18.3984 28.3984 18.3984 34.4141C18.3984 41.6211 21.4062 48.3398 26.4844 52.9883C30 56.2695 33.7109 57.5 43.0664 57.5ZM43.0664 54.0234C34.9414 54.0234 31.7773 53.2031 28.8477 50.4688C24.375 46.3672 21.8555 40.5664 21.8555 34.4141C21.8555 29.375 23.5547 24.5312 27.3828 20.7031L25.8203 21.0938C29.2188 24.2578 35.4883 25.7031 43.0664 25.7031C50.6641 25.7031 56.9141 24.2578 60.332 21.0938L58.7695 20.7031C62.5977 24.5312 64.2773 29.375 64.2773 34.4141C64.2773 40.5664 61.7578 46.3672 57.3047 50.4688C54.3555 53.2031 51.2109 54.0234 43.0664 54.0234Z" fill="black" fill-opacity="0.425"/>
  <path d="M43.0664 19.1211C50.2539 19.1211 55.0977 17.7344 55.0977 15.8203C55.0977 13.8672 50.2539 12.5 43.0664 12.5C35.8789 12.5 31.0547 13.8672 31.0547 15.8203C31.0547 17.7344 35.8789 19.1211 43.0664 19.1211Z" fill="black" fill-opacity="0.85"/>
 </g>
</svg>
