<?xml version="1.0" encoding="UTF-8"?>
<!--Generator: Apple Native CoreSVG 326-->
<!DOCTYPE svg
PUBLIC "-//W3C//DTD SVG 1.1//EN"
       "http://www.w3.org/Graphics/SVG/1.1/DTD/svg11.dtd">
<svg version="1.1" xmlns="http://www.w3.org/2000/svg" xmlns:xlink="http://www.w3.org/1999/xlink" viewBox="0 0 29.5898 45.8398">
 <g>
  <rect height="45.8398" opacity="0" width="29.5898" x="0" y="0"/>
  <path d="M29.2188 3.88672L29.2188 4.41406C29.2188 10.3516 22.7734 16.9141 19.0234 20.6445C17.6172 22.0508 17.5195 23.5938 19.0234 25.0977C22.7734 28.8281 29.2188 35.4297 29.2188 41.3281L29.2188 41.9141C29.2188 44.4141 27.7344 45.8203 25.3516 45.8203L3.86719 45.8203C1.48438 45.8203 0 44.4141 0 41.9141L0 41.3281C0 35.4297 6.42578 28.8281 10.1758 25.0977C11.6797 23.5938 11.582 22.0508 10.1758 20.6445C6.42578 16.9141 0 10.3516 0 4.41406L0 3.88672C0 1.38672 1.48438 0 3.86719 0L25.3516 0C27.7344 0 29.2188 1.38672 29.2188 3.88672ZM7.38281 12.1875C6.67969 12.1875 6.36719 12.8906 6.95312 13.5156C8.57422 15.293 10.9961 17.5 12.8711 19.1211C13.6133 19.7461 13.7891 20.2539 13.7891 21.25L13.7891 32.0898C13.7891 32.5 13.6914 32.6367 13.3789 32.9297L5.11719 40.918C4.43359 41.5625 4.70703 42.6953 5.68359 42.6953L23.5352 42.6953C24.5117 42.6953 24.7656 41.5625 24.082 40.918L15.8398 32.9297C15.5273 32.6367 15.4297 32.5 15.4297 32.0898L15.4297 21.25C15.4297 20.2539 15.6055 19.7461 16.3477 19.1211C18.2031 17.5 20.6445 15.293 22.2656 13.5156C22.8516 12.8906 22.5391 12.1875 21.8164 12.1875Z" fill="black" fill-opacity="0.85"/>
 </g>
</svg>
