<?xml version="1.0" encoding="UTF-8"?>
<!--Generator: Apple Native CoreSVG 326-->
<!DOCTYPE svg
PUBLIC "-//W3C//DTD SVG 1.1//EN"
       "http://www.w3.org/Graphics/SVG/1.1/DTD/svg11.dtd">
<svg version="1.1" xmlns="http://www.w3.org/2000/svg" xmlns:xlink="http://www.w3.org/1999/xlink" viewBox="0 0 51.25 50.918">
 <g>
  <rect height="50.918" opacity="0" width="51.25" x="0" y="0"/>
  <path d="M25.4297 50.8789C39.4727 50.8789 50.8789 39.4922 50.8789 25.4492C50.8789 11.4062 39.4727 0 25.4297 0C11.3867 0 0 11.4062 0 25.4492C0 39.4922 11.3867 50.8789 25.4297 50.8789ZM25.4297 47.2461C13.3789 47.2461 3.63281 37.5 3.63281 25.4492C3.63281 13.3984 13.3789 3.65234 25.4297 3.65234C37.4805 3.65234 47.2266 13.3984 47.2266 25.4492C47.2266 37.5 37.4805 47.2461 25.4297 47.2461Z" fill="black" fill-opacity="0.85"/>
  <path d="M13.6719 26.0156L24.9805 17.1875C25.1172 17.0703 25.2734 17.0117 25.4102 17.0117C25.5469 17.0117 25.7227 17.0703 25.8398 17.1875L37.1484 26.0156C38.0859 26.7578 39.0625 25.5078 38.2617 24.8633L26.7383 15.8203C26.3672 15.5273 25.8594 15.3125 25.4102 15.3125C24.9609 15.3125 24.4922 15.5078 24.1016 15.8203L12.5781 24.8633C11.7578 25.5078 12.7344 26.7578 13.6719 26.0156ZM16.6992 32.9102L34.1211 32.9102C35.4883 32.9102 36.2695 32.1484 36.2695 30.7617L36.2695 26.9922C35.918 26.7969 35.5859 26.582 35.1953 26.3086L25.4102 18.6328L15.6055 26.3086C15.2344 26.582 14.9219 26.7969 14.5508 26.9922L14.5508 30.7617C14.5508 32.1484 15.332 32.9102 16.6992 32.9102ZM22.7344 31.3672L22.7148 26.8359C22.7148 26.4648 23.0078 26.2109 23.3984 26.2109L27.4609 26.2109C27.8516 26.2109 28.1055 26.4648 28.1055 26.8359L28.1055 31.3672ZM11.6992 23.75L16.1523 20.2734L14.1016 20.2734C13.6328 20.2734 13.2617 20.3711 12.9297 20.6055L6.44531 24.9414C5.97656 25.293 6.17188 26.1133 6.89453 26.1133L11.0156 26.1133C10.7422 25.332 10.8203 24.4141 11.6992 23.75ZM13.125 30.7617L13.125 27.3828L7.96875 27.4023L7.96875 30.7617C7.96875 32.1484 8.76953 32.9102 10.1367 32.9102L13.7305 32.9102C13.3398 32.3242 13.125 31.6016 13.125 30.7617ZM39.1211 23.75C40 24.4141 40.0977 25.332 39.8242 26.1133L43.9453 26.1133C44.6484 26.1133 44.8633 25.332 44.3555 24.9414L37.8906 20.6055C37.5586 20.3711 37.207 20.2734 36.7188 20.2734L34.668 20.2734ZM37.6953 30.7617C37.6953 31.6016 37.4805 32.3242 37.0898 32.9102L40.6836 32.9102C42.0703 32.9102 42.8516 32.1484 42.8516 30.7617L42.8516 27.4023L37.6953 27.3828Z" fill="black" fill-opacity="0.85"/>
 </g>
</svg>
