<?xml version="1.0" encoding="UTF-8"?>
<!--Generator: Apple Native CoreSVG 326-->
<!DOCTYPE svg
PUBLIC "-//W3C//DTD SVG 1.1//EN"
       "http://www.w3.org/Graphics/SVG/1.1/DTD/svg11.dtd">
<svg version="1.1" xmlns="http://www.w3.org/2000/svg" xmlns:xlink="http://www.w3.org/1999/xlink" viewBox="0 0 51.25 50.918">
 <g>
  <rect height="50.918" opacity="0" width="51.25" x="0" y="0"/>
  <path d="M25.4297 50.8789C39.4727 50.8789 50.8789 39.4922 50.8789 25.4492C50.8789 11.4062 39.4727 0 25.4297 0C11.3867 0 0 11.4062 0 25.4492C0 39.4922 11.3867 50.8789 25.4297 50.8789ZM25.4297 47.2461C13.3789 47.2461 3.63281 37.5 3.63281 25.4492C3.63281 13.3984 13.3789 3.65234 25.4297 3.65234C37.4805 3.65234 47.2266 13.3984 47.2266 25.4492C47.2266 37.5 37.4805 47.2461 25.4297 47.2461Z" fill="black" fill-opacity="0.85"/>
  <path d="M13.9062 35.1562C13.9062 36.8945 14.9414 37.9102 16.7188 37.9102L34.1602 37.9102C35.918 37.9102 36.9531 36.8945 36.9531 35.1562L36.9531 24.1797L26.2305 15.1758C25.7031 14.7266 25.1367 14.7461 24.6094 15.1758L13.9062 24.1602ZM28.8086 35.6836L22.0508 35.6836L22.0508 27.5391C22.0508 26.9727 22.4414 26.6016 23.0078 26.6016L27.8516 26.6016C28.4375 26.6016 28.8086 26.9727 28.8086 27.5391ZM9.86328 23.2422C9.86328 23.7695 10.293 24.2773 10.9766 24.2773C11.3086 24.2773 11.582 24.082 11.8164 23.8672L24.707 13.0664C25.2148 12.6367 25.6641 12.6758 26.1523 13.0664L39.0039 23.8672C39.2969 24.082 39.5508 24.2773 39.8828 24.2773C40.4688 24.2773 40.957 23.8672 40.957 23.2812C40.957 22.8906 40.8398 22.6172 40.5664 22.3828L27.2852 11.2305C26.1719 10.2734 24.7266 10.2734 23.5938 11.2305L10.2734 22.3828C10 22.6172 9.86328 22.9297 9.86328 23.2422ZM33.9453 17.7148L36.9531 20.2539L36.9531 14.1797C36.9531 13.6719 36.6211 13.3203 36.1133 13.3203L34.8047 13.3203C34.2969 13.3203 33.9453 13.6719 33.9453 14.1797Z" fill="black" fill-opacity="0.85"/>
 </g>
</svg>
