<?xml version="1.0" encoding="UTF-8"?>
<!--Generator: Apple Native CoreSVG 326-->
<!DOCTYPE svg
PUBLIC "-//W3C//DTD SVG 1.1//EN"
       "http://www.w3.org/Graphics/SVG/1.1/DTD/svg11.dtd">
<svg version="1.1" xmlns="http://www.w3.org/2000/svg" xmlns:xlink="http://www.w3.org/1999/xlink" viewBox="0 0 107.045 49.2773">
 <g>
  <rect height="49.2773" opacity="0" width="107.045" x="0" y="0"/>
  <path d="M22.9171 32.5807C23.033 32.5871 23.1504 32.5868 23.269 32.5799C23.3106 32.581 23.3529 32.5787 23.3957 32.5727L23.3957 40.8984C23.3957 42.9924 23.9592 44.7798 24.9857 46.1523L12.9465 46.1523C9.52853 46.1523 7.5754 44.2773 7.5754 40.8984L7.5754 32.5586L22.6391 32.5586C22.7298 32.5737 22.8228 32.5801 22.9171 32.5807Z" fill="black" fill-opacity="0.85"/>
  <path d="M20.0363 24.0625C19.8953 24.1729 19.763 24.2864 19.6419 24.4032C19.6008 24.4387 19.5631 24.4751 19.531 24.5133C19.4431 24.5945 19.3642 24.6785 19.2934 24.7647C19.2527 24.8052 19.217 24.8472 19.1861 24.8904C19.1101 24.9773 19.0421 25.0663 18.9827 25.1574C18.9521 25.193 18.9267 25.23 18.9039 25.2675C18.818 25.3929 18.7419 25.5205 18.6737 25.6497C18.6631 25.6687 18.6531 25.6878 18.6461 25.7074C18.5865 25.818 18.5352 25.9301 18.4916 26.0434C18.4704 26.0887 18.4527 26.1345 18.4401 26.181C18.4035 26.269 18.3743 26.3579 18.3518 26.4476C18.3332 26.4973 18.3195 26.5477 18.31 26.5983C18.2843 26.6888 18.2647 26.7798 18.2519 26.8711C18.2392 26.9165 18.2317 26.9621 18.2266 27.0079C18.2065 27.1367 18.1936 27.2658 18.1869 27.3948C18.1827 27.4468 18.1808 27.4988 18.1845 27.5505C18.1794 27.6314 18.1802 27.712 18.185 27.7924C18.1843 27.8595 18.1883 27.9262 18.1982 27.9924C18.2006 28.0559 18.2072 28.119 18.2177 28.1816C18.2224 28.2558 18.2334 28.3293 18.2497 28.4019C18.2568 28.45 18.2659 28.4977 18.2786 28.5448C18.3376 28.8564 18.4335 29.1608 18.5615 29.4531L4.89962 29.4531C3.04415 29.4531 2.55587 27.3633 3.78634 26.5039L19.7043 15.7227C20.5637 15.1562 21.4817 14.9023 22.6535 14.9023L31.7387 14.9023Z" fill="black" fill-opacity="0.85"/>
  <path d="M99.0988 40.8984C99.0988 44.2773 97.1457 46.1523 93.7277 46.1523L81.7001 46.1523C82.7216 44.7798 83.2785 42.9924 83.2785 40.8984L83.2785 32.5801C83.3231 32.5862 83.3671 32.5886 83.4104 32.5873C83.5295 32.5943 83.6474 32.5947 83.7638 32.5885C83.8027 32.5895 83.841 32.5876 83.8785 32.5824C83.9568 32.5773 84.0343 32.5692 84.1112 32.5586L99.0988 32.5586Z" fill="black" fill-opacity="0.85"/>
  <path d="M86.9699 15.7227L102.888 26.5039C104.118 27.3633 103.63 29.4531 101.775 29.4531L88.1065 29.4531C88.2342 29.1601 88.3296 28.8549 88.3883 28.5426C88.4005 28.4971 88.4093 28.4509 88.4162 28.4044C88.4325 28.3312 88.4436 28.2571 88.4483 28.1822C88.4587 28.1202 88.4652 28.0577 88.4676 27.9948C88.4776 27.9282 88.4815 27.8609 88.4808 27.7933C88.4855 27.7142 88.4864 27.6348 88.4814 27.5552C88.4852 27.5022 88.4833 27.4489 88.479 27.3956C88.4724 27.2666 88.4595 27.1375 88.4397 27.0088C88.4346 26.9635 88.4272 26.9183 88.4146 26.8734C88.4019 26.7815 88.3823 26.69 88.3566 26.599C88.3472 26.5484 88.3336 26.4981 88.3151 26.4484C88.2927 26.3587 88.2637 26.2698 88.2273 26.1819C88.2148 26.1352 88.197 26.0891 88.1758 26.0436C88.133 25.9316 88.0825 25.8207 88.0238 25.7113C88.0164 25.6904 88.0058 25.67 87.9945 25.6497C87.9267 25.5205 87.8509 25.3928 87.7654 25.2674C87.7429 25.2301 87.7178 25.1935 87.6876 25.1582C87.6282 25.0668 87.5603 24.9774 87.4844 24.8903C87.4537 24.8471 87.4182 24.8052 87.3777 24.7648C87.3072 24.6785 87.2286 24.5945 87.141 24.5132C87.1091 24.475 87.0715 24.4386 87.0307 24.4032C86.9101 24.2863 86.7784 24.1729 86.6379 24.0625L75.5068 15.3555L74.9274 14.9023L84.0402 14.9023C85.1926 14.9023 86.1106 15.1562 86.9699 15.7227Z" fill="black" fill-opacity="0.85"/>
  <path d="M80.1535 31.219L80.1535 40.8984C80.1535 44.2773 78.2395 46.1523 74.841 46.1523L31.8527 46.1523C28.4543 46.1523 26.5207 44.2773 26.5207 40.8984L26.5207 31.2195L53.3762 10.3125ZM48.3371 29.6289C47.4387 29.6289 46.7356 30.2734 46.7356 31.2109L46.7356 42.793L59.9387 42.793L59.9387 31.2109C59.9387 30.2734 59.2942 29.6289 58.3371 29.6289Z" fill="black" fill-opacity="0.85"/>
  <path d="M24.3918 28.9453L52.1067 7.30469C52.927 6.66016 53.7668 6.66016 54.5871 7.30469L82.2824 28.9453C84.3723 30.5664 86.4426 27.8516 84.7238 26.5039L56.384 4.33594C54.3332 2.71484 52.341 2.71484 50.2902 4.33594L21.9504 26.5039C20.2317 27.8516 22.3215 30.5664 24.3918 28.9453Z" fill="black" fill-opacity="0.85"/>
 </g>
</svg>
