<?xml version="1.0" encoding="UTF-8"?>
<!--Generator: Apple Native CoreSVG 326-->
<!DOCTYPE svg
PUBLIC "-//W3C//DTD SVG 1.1//EN"
       "http://www.w3.org/Graphics/SVG/1.1/DTD/svg11.dtd">
<svg version="1.1" xmlns="http://www.w3.org/2000/svg" xmlns:xlink="http://www.w3.org/1999/xlink" viewBox="0 0 46.2891 45.918">
 <g>
  <rect height="45.918" opacity="0" width="46.2891" x="0" y="0"/>
  <path d="M7.59766 45.918L38.3008 45.918C43.3594 45.918 45.918 43.3594 45.918 38.3984L45.918 7.53906C45.918 2.55859 43.3594 0 38.3008 0L7.59766 0C2.55859 0 0 2.53906 0 7.53906L0 38.3984C0 43.3984 2.55859 45.918 7.59766 45.918ZM7.67578 42.4609C4.94141 42.4609 3.45703 41.0156 3.45703 38.2031L3.45703 7.71484C3.45703 4.92188 4.94141 3.45703 7.67578 3.45703L38.2422 3.45703C40.918 3.45703 42.4609 4.92188 42.4609 7.71484L42.4609 38.2031C42.4609 41.0156 40.918 42.4609 38.2422 42.4609Z" fill="black" fill-opacity="0.85"/>
  <path d="M22.832 11.5625C20.6836 11.5625 18.1055 12.2266 16.6016 14.5898C16.2695 15.0977 16.1328 15.5859 16.1328 16.1133C16.1328 16.7578 16.543 17.207 17.2461 17.207C17.832 17.207 18.1445 16.9336 18.3984 16.4453C19.2383 14.5703 20.9766 13.7695 22.8906 13.7695C25.2539 13.7695 27.4805 14.8633 27.4805 17.168C27.4805 18.1836 26.9141 19.5312 25.4492 19.9805L27.5586 20.5469C29.0234 19.9023 30.0195 18.4961 30.0195 16.9922C30.0195 13.3203 26.4648 11.5625 22.832 11.5625ZM14.043 20.4688C14.043 20.8984 14.375 21.2305 14.7852 21.2305L31.1133 21.2305C31.543 21.2305 31.8555 20.8984 31.8555 20.4688C31.8555 20.0195 31.543 19.6875 31.1133 19.6875L14.7852 19.6875C14.375 19.6875 14.043 20.0195 14.043 20.4688ZM14.043 24.4922C14.043 24.9219 14.375 25.2539 14.7852 25.2539L31.1133 25.2539C31.543 25.2539 31.8555 24.9219 31.8555 24.4922C31.8555 24.043 31.543 23.7109 31.1133 23.7109L14.7852 23.7109C14.375 23.7109 14.043 24.043 14.043 24.4922ZM22.9688 34.0039C25.918 34.0039 28.5938 32.9297 29.8438 30.6055C30.1172 30.1367 30.3516 29.5312 30.3516 29.0625C30.3516 28.418 29.8633 27.9688 29.1602 27.9688C28.5742 27.9688 28.2422 28.2617 27.9883 28.8086C27.1484 30.8984 25.2539 31.7969 22.9492 31.7969C20.4297 31.7969 18.0469 30.5273 18.0469 28.3789C18.0469 26.5039 19.3164 25.293 21.1914 24.7852L18.6328 24.3945C16.7578 25.0195 15.4883 26.6602 15.4883 28.4961C15.4883 32.1875 19.3164 34.0039 22.9688 34.0039Z" fill="black" fill-opacity="0.85"/>
 </g>
</svg>
