<?xml version="1.0" encoding="UTF-8"?>
<!--Generator: Apple Native CoreSVG 326-->
<!DOCTYPE svg
PUBLIC "-//W3C//DTD SVG 1.1//EN"
       "http://www.w3.org/Graphics/SVG/1.1/DTD/svg11.dtd">
<svg version="1.1" xmlns="http://www.w3.org/2000/svg" xmlns:xlink="http://www.w3.org/1999/xlink" viewBox="0 0 55.5273 53.1055">
 <g>
  <rect height="53.1055" opacity="0" width="55.5273" x="0" y="0"/>
  <path d="M30.5273 0.839844L52.1094 13.3008C52.8906 13.75 53.2422 14.3164 53.2422 14.9609C53.2422 15.8398 52.5781 16.6797 51.3867 16.6797L49.1211 16.6797L49.1211 46.5039L50.7227 46.5039C51.582 46.5039 52.0898 47.0117 52.0898 47.8516L52.0898 49.6094L53.418 49.6094C54.375 49.6094 55.1562 50.3906 55.1562 51.3477C55.1562 52.2852 54.375 53.0664 53.418 53.0664L1.73828 53.0664C0.78125 53.0664 0 52.2852 0 51.3477C0 50.3906 0.78125 49.6094 1.73828 49.6094L3.06641 49.6094L3.06641 47.8516C3.06641 47.0117 3.57422 46.5039 4.45312 46.5039L6.05469 46.5039L6.05469 16.6797L3.76953 16.6797C2.57812 16.6797 1.91406 15.8398 1.91406 14.9609C1.91406 14.3164 2.24609 13.75 3.04688 13.3008L24.6289 0.839844C25.5664 0.292969 26.6016 0 27.5781 0C28.5547 0 29.5703 0.292969 30.5273 0.839844ZM19.2188 29.4531C18.7695 29.4531 18.4375 29.7656 18.4375 30.2539C18.4375 30.7031 18.7695 31.0352 19.2188 31.0352L21.582 31.0352C20.5469 31.8555 19.9219 33.0664 19.9219 34.3555C19.9219 38.1445 23.8281 40 27.5977 40C30.6055 40 33.3398 38.9062 34.6484 36.5234C34.9219 36.0547 35.1562 35.4297 35.1562 34.9414C35.1562 34.2578 34.668 33.8086 33.9453 33.8086C33.3398 33.8086 32.9688 34.1211 32.7148 34.6875C31.875 36.8164 29.9219 37.7148 27.5586 37.7148C24.9805 37.7148 22.5586 36.4258 22.5586 34.2188C22.5586 32.7734 23.3203 31.6797 24.5508 31.0352L35.918 31.0352C36.3867 31.0352 36.7188 30.7031 36.7188 30.2539C36.7188 29.7656 36.3867 29.4531 35.918 29.4531ZM21.0547 20.0977C20.7227 20.625 20.5664 21.0938 20.5664 21.6602C20.5664 22.3242 21.0156 22.7734 21.7383 22.7734C22.3242 22.7734 22.6367 22.5195 22.9102 21.9922C23.7695 20.0977 25.5664 19.2773 27.5195 19.2773C29.9219 19.2773 32.207 20.3711 32.207 22.7344C32.207 23.6133 31.7969 24.7266 30.7812 25.332L19.2188 25.332C18.7695 25.332 18.4375 25.6445 18.4375 26.1328C18.4375 26.582 18.7695 26.8945 19.2188 26.8945L35.918 26.8945C36.3867 26.8945 36.7188 26.582 36.7188 26.1328C36.7188 25.6445 36.3867 25.332 35.918 25.332L33.6133 25.332C34.375 24.5898 34.8242 23.5742 34.8242 22.5586C34.8242 18.8086 31.1719 16.9922 27.4609 16.9922C25.2539 16.9922 22.6172 17.6758 21.0547 20.0977Z" fill="black" fill-opacity="0.85"/>
 </g>
</svg>
