<?xml version="1.0" encoding="UTF-8"?>
<!--Generator: Apple Native CoreSVG 326-->
<!DOCTYPE svg
PUBLIC "-//W3C//DTD SVG 1.1//EN"
       "http://www.w3.org/Graphics/SVG/1.1/DTD/svg11.dtd">
<svg version="1.1" xmlns="http://www.w3.org/2000/svg" xmlns:xlink="http://www.w3.org/1999/xlink" viewBox="0 0 56.2305 55.8789">
 <g>
  <rect height="55.8789" opacity="0" width="56.2305" x="0" y="0"/>
  <path d="M27.9297 55.8594C43.2812 55.8594 55.8594 43.3008 55.8594 27.9297C55.8594 12.5586 43.2812 0 27.9297 0C12.5781 0 0 12.5586 0 27.9297C0 43.3008 12.5781 55.8594 27.9297 55.8594ZM27.9297 46.6797C17.5586 46.6797 9.16016 38.3008 9.16016 27.9297C9.16016 17.5586 17.5586 9.16016 27.9297 9.16016C38.3008 9.16016 46.6992 17.5586 46.6992 27.9297C46.6992 38.3008 38.3008 46.6797 27.9297 46.6797Z" fill="black" fill-opacity="0.85"/>
  <path d="M27.793 16.543C25.6445 16.543 23.0664 17.207 21.5625 19.5703C21.2305 20.0781 21.0742 20.5664 21.0742 21.0938C21.0742 21.7383 21.5039 22.1875 22.207 22.1875C22.793 22.1875 23.1055 21.9141 23.3594 21.4258C24.1992 19.5508 25.9375 18.75 27.8516 18.75C30.2148 18.75 32.4414 19.8438 32.4414 22.1484C32.4414 23.1641 31.875 24.5117 30.4102 24.9609L32.5195 25.5273C33.9844 24.8828 34.9805 23.4766 34.9805 21.9727C34.9805 18.3008 31.4258 16.543 27.793 16.543ZM19.0039 25.4492C19.0039 25.8789 19.3359 26.2109 19.7461 26.2109L36.0547 26.2109C36.5039 26.2109 36.8164 25.8789 36.8164 25.4492C36.8164 25 36.5039 24.668 36.0547 24.668L19.7461 24.668C19.3359 24.668 19.0039 25 19.0039 25.4492ZM19.0039 29.4727C19.0039 29.9023 19.3359 30.2344 19.7461 30.2344L36.0547 30.2344C36.5039 30.2344 36.8164 29.9023 36.8164 29.4727C36.8164 29.0234 36.5039 28.6914 36.0547 28.6914L19.7461 28.6914C19.3359 28.6914 19.0039 29.0234 19.0039 29.4727ZM27.9297 38.9844C30.8594 38.9844 33.5352 37.9102 34.8047 35.5859C35.0781 35.1172 35.3125 34.5117 35.3125 34.043C35.3125 33.3984 34.8242 32.9492 34.1211 32.9492C33.5352 32.9492 33.2031 33.2422 32.9492 33.7891C32.1094 35.8789 30.1953 36.7773 27.9102 36.7773C25.3711 36.7773 23.0078 35.5078 23.0078 33.3594C23.0078 31.4844 24.2578 30.2734 26.1523 29.7656L23.5938 29.375C21.7188 30 20.4492 31.6406 20.4492 33.4766C20.4492 37.168 24.2773 38.9844 27.9297 38.9844Z" fill="black" fill-opacity="0.85"/>
 </g>
</svg>
