<?xml version="1.0" encoding="UTF-8"?>
<!--Generator: Apple Native CoreSVG 326-->
<!DOCTYPE svg
PUBLIC "-//W3C//DTD SVG 1.1//EN"
       "http://www.w3.org/Graphics/SVG/1.1/DTD/svg11.dtd">
<svg version="1.1" xmlns="http://www.w3.org/2000/svg" xmlns:xlink="http://www.w3.org/1999/xlink" viewBox="0 0 60.4102 50.0586">
 <g>
  <rect height="50.0586" opacity="0" width="60.4102" x="0" y="0"/>
  <path d="M60.0391 30.0195C60.0391 22.6562 57.3828 15.918 52.9688 10.6836C52.4609 10.0781 51.6016 10.0977 51.0352 10.6641L45.3906 16.3086C44.9023 16.7969 44.8828 17.4805 45.3125 18.0273C47.9102 21.3477 49.4531 25.4883 49.4531 30.0195C49.4531 34.5508 47.9102 38.7109 45.1953 42.1484C44.8242 42.6172 44.8438 43.2031 45.2539 43.6133L51.0352 49.4141C51.6016 50 52.4414 49.9805 52.9688 49.375C57.3828 44.1406 60.0391 37.3633 60.0391 30.0195Z" fill="black" fill-opacity="0.85"/>
  <path d="M30.0195 10.5664C34.5508 10.5664 38.7305 12.1289 42.0508 14.7656C42.5781 15.1562 43.2227 15.1172 43.7109 14.6289L49.375 8.96484C49.9609 8.39844 49.9414 7.55859 49.3359 7.03125C44.1211 2.65625 37.3633 0 30.0195 0C22.6758 0 15.918 2.65625 10.7031 7.03125C10.0977 7.55859 10.0781 8.39844 10.6445 8.96484L16.3281 14.6289C16.7969 15.1172 17.5 15.1367 18.0469 14.707C21.3477 12.1289 25.5078 10.5664 30.0195 10.5664Z" fill="black" fill-opacity="0.85"/>
  <path d="M0 30.0195C0 37.3633 2.65625 44.1406 7.07031 49.375C7.57812 49.9805 8.4375 50 9.00391 49.4141L14.7852 43.6133C15.1758 43.2031 15.2148 42.6172 14.8438 42.1484C12.1289 38.7109 10.5664 34.5508 10.5664 30.0195C10.5664 25.4883 12.1094 21.3477 14.7266 18.0273C15.1367 17.4805 15.1367 16.7969 14.6484 16.3086L8.98438 10.6641C8.41797 10.0977 7.57812 10.0781 7.05078 10.6836C2.63672 15.918 0 22.6562 0 30.0195Z" fill="black" fill-opacity="0.85"/>
  <path d="M29.8633 18.9648C27.7148 18.9648 25.1367 19.6289 23.6133 21.9922C23.3008 22.5 23.1445 22.9883 23.1445 23.5156C23.1445 24.1602 23.5742 24.6094 24.2773 24.6094C24.8438 24.6094 25.1562 24.3359 25.4102 23.8281C26.25 21.9727 28.0078 21.1719 29.9219 21.1719C32.2852 21.1719 34.5117 22.2656 34.5117 24.5508C34.5117 25.5859 33.9453 26.9336 32.4805 27.3633L34.5898 27.9297C36.0547 27.3047 37.0508 25.8984 37.0508 24.375C37.0508 20.7227 33.4961 18.9648 29.8633 18.9648ZM21.0742 27.8711C21.0742 28.3008 21.4062 28.6328 21.8164 28.6328L38.125 28.6328C38.5547 28.6328 38.8867 28.3008 38.8867 27.8711C38.8867 27.4023 38.5547 27.0898 38.125 27.0898L21.8164 27.0898C21.4062 27.0898 21.0742 27.4023 21.0742 27.8711ZM21.0742 31.8945C21.0742 32.3242 21.4062 32.6562 21.8164 32.6562L38.125 32.6562C38.5547 32.6562 38.8867 32.3242 38.8867 31.8945C38.8867 31.4453 38.5547 31.1133 38.125 31.1133L21.8164 31.1133C21.4062 31.1133 21.0742 31.4453 21.0742 31.8945ZM30 41.4062C32.9297 41.4062 35.6055 40.332 36.875 38.0078C37.1484 37.5391 37.3828 36.9141 37.3828 36.4648C37.3828 35.8008 36.8945 35.3711 36.1914 35.3711C35.6055 35.3711 35.2539 35.6641 35 36.2109C34.1797 38.3008 32.2656 39.1797 29.9609 39.1797C27.4414 39.1797 25.0781 37.9297 25.0781 35.7812C25.0781 33.9062 26.3281 32.6953 28.2031 32.1875L25.6641 31.7969C23.7891 32.4219 22.5195 34.0625 22.5195 35.8984C22.5195 39.5898 26.3477 41.4062 30 41.4062Z" fill="black" fill-opacity="0.85"/>
 </g>
</svg>
