<?xml version="1.0" encoding="UTF-8"?>
<!--Generator: Apple Native CoreSVG 326-->
<!DOCTYPE svg
PUBLIC "-//W3C//DTD SVG 1.1//EN"
       "http://www.w3.org/Graphics/SVG/1.1/DTD/svg11.dtd">
<svg version="1.1" xmlns="http://www.w3.org/2000/svg" xmlns:xlink="http://www.w3.org/1999/xlink" viewBox="0 0 60.961 50.918">
 <g>
  <rect height="50.918" opacity="0" width="60.961" x="0" y="0"/>
  <path d="M30.295 50.8789C44.3379 50.8789 55.7246 39.4922 55.7246 25.4492C55.7246 11.4062 44.3379 0 30.295 0C16.252 0 4.86526 11.4062 4.86526 25.4492L8.49808 25.4492C8.49808 13.3984 18.2442 3.65234 30.295 3.65234C42.3457 3.65234 52.0918 13.3984 52.0918 25.4492C52.0918 37.5 42.3457 47.2461 30.295 47.2461C22.834 47.2461 16.1739 43.457 12.3653 37.7539C11.7207 36.875 10.7051 36.6016 9.80667 37.1484C8.94729 37.6562 8.69339 38.8477 9.39651 39.8047C13.9473 46.5039 21.6426 50.8789 30.295 50.8789ZM1.60354 20.7227C0.00198146 20.7227-0.447237 21.8164 0.470731 23.0859L6.01761 30.9766C6.75979 32.0508 7.83401 32.0312 8.55667 30.9766L14.1035 23.0664C14.9825 21.8164 14.5528 20.7227 12.9707 20.7227Z" fill="black" fill-opacity="0.85"/>
  <path d="M30.1778 14.0625C28.0098 14.0625 25.4317 14.7266 23.9278 17.0898C23.5957 17.5977 23.459 18.0859 23.459 18.6133C23.459 19.2578 23.8692 19.707 24.5723 19.707C25.1582 19.707 25.4707 19.4336 25.7246 18.9453C26.5645 17.0703 28.3223 16.2695 30.2168 16.2695C32.5801 16.2695 34.8262 17.3633 34.8262 19.668C34.8262 20.6836 34.2403 22.0312 32.7754 22.4805L34.8848 23.0469C36.3692 22.4023 37.3457 20.9961 37.3457 19.4922C37.3457 15.8203 33.791 14.0625 30.1778 14.0625ZM21.3887 22.9688C21.3887 23.3984 21.7012 23.7305 22.1114 23.7305L38.4395 23.7305C38.8692 23.7305 39.2012 23.3984 39.2012 22.9688C39.2012 22.5195 38.8692 22.1875 38.4395 22.1875L22.1114 22.1875C21.7012 22.1875 21.3887 22.5195 21.3887 22.9688ZM21.3887 26.9922C21.3887 27.4219 21.7012 27.7539 22.1114 27.7539L38.4395 27.7539C38.8692 27.7539 39.2012 27.4219 39.2012 26.9922C39.2012 26.543 38.8692 26.2109 38.4395 26.2109L22.1114 26.2109C21.7012 26.2109 21.3887 26.543 21.3887 26.9922ZM30.295 36.5039C33.2442 36.5039 35.92 35.4297 37.17 33.1055C37.4434 32.6367 37.6778 32.0312 37.6778 31.5625C37.6778 30.918 37.1895 30.4688 36.4864 30.4688C35.92 30.4688 35.5684 30.7617 35.3145 31.3086C34.4746 33.3984 32.5801 34.2969 30.2754 34.2969C27.7559 34.2969 25.3731 33.0273 25.3731 30.8789C25.3731 29.0039 26.6426 27.793 28.5176 27.2852L25.959 26.8945C24.084 27.5195 22.8145 29.1602 22.8145 30.9961C22.8145 34.6875 26.6426 36.5039 30.295 36.5039Z" fill="black" fill-opacity="0.85"/>
 </g>
</svg>
