<?xml version="1.0" encoding="UTF-8"?>
<!--Generator: Apple Native CoreSVG 326-->
<!DOCTYPE svg
PUBLIC "-//W3C//DTD SVG 1.1//EN"
       "http://www.w3.org/Graphics/SVG/1.1/DTD/svg11.dtd">
<svg version="1.1" xmlns="http://www.w3.org/2000/svg" xmlns:xlink="http://www.w3.org/1999/xlink" viewBox="0 0 44.9805 47.6758">
 <g>
  <rect height="47.6758" opacity="0" width="44.9805" x="0" y="0"/>
  <path d="M8.16406 11.6992L36.4258 11.6992C34.5703 8.78906 32.5 5.80078 30.2734 2.79297C28.8867 0.957031 27.9492 0 25.5664 0L19.043 0C16.6602 0 15.7031 0.957031 14.3359 2.79297C12.1094 5.80078 10.0195 8.78906 8.16406 11.6992ZM22.3047 25.4102C25.2148 25.4102 27.6172 27.3047 28.3789 29.9805L44.5312 29.9805C43.9844 25.8594 41.8555 20.7617 38.6719 15.2734L5.91797 15.2734C2.75391 20.7617 0.605469 25.8594 0.078125 29.9805L16.2305 29.9805C16.9922 27.3047 19.3945 25.4102 22.3047 25.4102ZM22.3047 34.9023C24.082 34.9023 25.4492 33.5352 25.4492 31.7383C25.4492 29.9805 24.082 28.5742 22.3047 28.5742C20.5273 28.5742 19.1406 29.9805 19.1406 31.7383C19.1406 33.5352 20.5273 34.9023 22.3047 34.9023ZM16.4258 47.6367L28.1836 47.6367C38.4961 47.6367 44.0234 42.3242 44.6094 33.5547L28.3789 33.5547C27.6367 36.1719 25.2344 38.0664 22.3047 38.0664C19.3945 38.0664 16.9727 36.1719 16.2305 33.5547L0 33.5547C0.566406 42.3242 6.11328 47.6367 16.4258 47.6367Z" fill="black" fill-opacity="0.85"/>
 </g>
</svg>
