<?xml version="1.0" encoding="UTF-8"?>
<!--Generator: Apple Native CoreSVG 326-->
<!DOCTYPE svg
PUBLIC "-//W3C//DTD SVG 1.1//EN"
       "http://www.w3.org/Graphics/SVG/1.1/DTD/svg11.dtd">
<svg version="1.1" xmlns="http://www.w3.org/2000/svg" xmlns:xlink="http://www.w3.org/1999/xlink" viewBox="0 0 39.2773 56.2695">
 <g>
  <rect height="56.2695" opacity="0" width="39.2773" x="0" y="0"/>
  <path d="M6.34766 5.74219C7.28516 5.74219 8.04688 5 8.04688 4.0625C8.04688 3.14453 7.28516 2.38281 6.34766 2.38281C5.42969 2.38281 4.66797 3.14453 4.66797 4.0625C4.66797 5 5.42969 5.74219 6.34766 5.74219ZM19.5312 3.35938C20.4492 3.35938 21.2109 2.59766 21.2109 1.67969C21.2109 0.742188 20.4492 0 19.5312 0C18.6133 0 17.8516 0.742188 17.8516 1.67969C17.8516 2.59766 18.6133 3.35938 19.5312 3.35938ZM32.6953 5.74219C33.6328 5.74219 34.3945 5 34.3945 4.0625C34.3945 3.14453 33.6328 2.38281 32.6953 2.38281C31.7773 2.38281 31.0156 3.14453 31.0156 4.0625C31.0156 5 31.7773 5.74219 32.6953 5.74219Z" fill="black" fill-opacity="0.85"/>
  <path d="M10.7031 11.6406C11.6406 11.6406 12.3828 10.8789 12.3828 9.96094C12.3828 9.02344 11.6406 8.26172 10.7031 8.26172C9.78516 8.26172 9.02344 9.02344 9.02344 9.96094C9.02344 10.8789 9.78516 11.6406 10.7031 11.6406ZM19.5312 10.7227C20.4492 10.7227 21.2109 9.96094 21.2109 9.04297C21.2109 8.10547 20.4492 7.36328 19.5312 7.36328C18.6133 7.36328 17.8516 8.10547 17.8516 9.04297C17.8516 9.96094 18.6133 10.7227 19.5312 10.7227ZM28.3594 11.6406C29.2773 11.6406 30.0391 10.8789 30.0391 9.96094C30.0391 9.02344 29.2773 8.26172 28.3594 8.26172C27.4219 8.26172 26.6602 9.02344 26.6602 9.96094C26.6602 10.8789 27.4219 11.6406 28.3594 11.6406Z" fill="black" fill-opacity="0.85"/>
  <path d="M7.1875 25.2148L31.6992 25.2148C30.0781 22.7148 28.3203 20.1953 26.4258 17.6367C25.2734 16.0938 24.375 15.1367 22.2266 15.1367L16.6797 15.1367C14.5117 15.1367 13.6523 16.0938 12.4805 17.6367C10.5859 20.1953 8.82812 22.7148 7.1875 25.2148ZM0.15625 40.6055L14.2578 40.6055C14.9414 38.3984 16.9727 36.8164 19.4531 36.8164C21.9336 36.8164 23.9648 38.3984 24.668 40.6055L38.7695 40.6055C38.2422 37.2266 36.4648 33.0664 33.8672 28.6133L5.03906 28.6133C2.44141 33.0664 0.664062 37.2266 0.15625 40.6055ZM19.4531 44.8438C20.918 44.8438 22.0117 43.7695 22.0117 42.2852C22.0117 40.8398 20.918 39.7656 19.4531 39.7656C17.9883 39.7656 16.9141 40.8398 16.9141 42.2852C16.9141 43.7695 17.9883 44.8438 19.4531 44.8438ZM14.2188 56.25L24.6875 56.25C33.5938 56.25 38.3789 51.6211 38.9062 44.0234L24.6484 44.0234C23.9648 46.2109 21.9141 47.8125 19.4531 47.8125C16.9727 47.8125 14.9609 46.2109 14.2578 44.0234L0 44.0234C0.507812 51.6211 5.29297 56.25 14.2188 56.25Z" fill="black" fill-opacity="0.85"/>
 </g>
</svg>
