<?xml version="1.0" encoding="UTF-8"?>
<!--Generator: Apple Native CoreSVG 326-->
<!DOCTYPE svg
PUBLIC "-//W3C//DTD SVG 1.1//EN"
       "http://www.w3.org/Graphics/SVG/1.1/DTD/svg11.dtd">
<svg version="1.1" xmlns="http://www.w3.org/2000/svg" xmlns:xlink="http://www.w3.org/1999/xlink" viewBox="0 0 62.7734 58.6914">
 <g>
  <rect height="58.6914" opacity="0" width="62.7734" x="0" y="0"/>
  <path d="M40.7687 48.9405L14.7461 48.9258C6.32812 48.9258 0 42.9297 0 35.6445C0 29.5703 3.57422 24.668 9.17969 23.8867C9.20096 21.9831 9.71443 20.2503 10.5859 18.7857ZM54.5117 25.1562C59.4727 27.1094 62.4023 31.6406 62.4023 36.8164C62.4023 42.4424 58.382 47.1072 52.7357 48.4999L18.0209 13.8172C19.3471 13.6331 20.7239 13.7438 22.0703 14.1797C24.9609 9.70703 29.7461 5.99609 36.6016 5.99609C46.7188 5.99609 54.6484 14.0625 54.5117 25.1562Z" fill="black" fill-opacity="0.85"/>
  <path d="M51.1523 55.4883C51.8164 56.1328 52.8711 56.1328 53.5156 55.4883C54.1602 54.8438 54.1602 53.7891 53.5156 53.125L11.2305 10.8594C10.5859 10.2148 9.49219 10.2344 8.84766 10.8594C8.22266 11.4844 8.24219 12.5977 8.84766 13.2227Z" fill="black" fill-opacity="0.85"/>
 </g>
</svg>
