<?xml version="1.0" encoding="UTF-8"?>
<!--Generator: Apple Native CoreSVG 326-->
<!DOCTYPE svg
PUBLIC "-//W3C//DTD SVG 1.1//EN"
       "http://www.w3.org/Graphics/SVG/1.1/DTD/svg11.dtd">
<svg version="1.1" xmlns="http://www.w3.org/2000/svg" xmlns:xlink="http://www.w3.org/1999/xlink" viewBox="0 0 62.7734 64.9805">
 <g>
  <rect height="64.9805" opacity="0" width="62.7734" x="0" y="0"/>
  <path d="M54.5117 26.1719C59.4727 28.0273 62.4023 32.168 62.4023 37.1289C62.4023 43.0859 57.9883 47.6172 50.4883 47.6172L37.3242 47.6172L37.3242 44.1602L50.4883 44.1602C56.0547 44.1602 58.9453 41.1914 58.9453 37.1289C58.9453 32.793 56.0156 29.7852 51.4453 28.75C51.1719 28.6914 51.0547 28.4961 51.0742 28.2031C51.1523 27.0703 51.2305 25.8008 51.1523 24.7266C50.6836 17.0117 44.8438 10.4688 36.6016 10.4688C30.0391 10.4688 26.25 14.1602 23.7891 18.5352C23.6328 18.8086 23.457 18.8477 23.1641 18.7695C17.9102 17.2266 12.3242 19.5703 12.3242 27.1094C12.3242 27.4219 12.1875 27.5977 11.875 27.5977C6.52344 27.5977 3.45703 31.1914 3.45703 36.0352C3.45703 40.5664 6.69922 44.1602 12.793 44.1602L25.0977 44.1602L25.0977 47.6172L12.8125 47.6172C4.74609 47.6172 0 42.4805 0 36.0352C0 30.1953 3.57422 25.6641 9.17969 24.9023C9.25781 17.9297 16.3477 13.5547 22.0703 15.1953C24.9609 10.7227 29.7461 7.01172 36.6016 7.01172C46.7188 7.01172 54.6484 15.0781 54.5117 26.1719Z" fill="black" fill-opacity="0.85"/>
  <path d="M31.2109 60.5078C32.1289 60.5078 32.9102 59.7461 32.9102 58.8477L32.9102 33.7109L32.7734 30L34.3164 31.6016L38.5742 36.0742C38.8672 36.4062 39.3164 36.582 39.7461 36.582C40.625 36.582 41.3086 35.9375 41.3086 35.0781C41.3086 34.6094 41.1328 34.2578 40.8008 33.9453L32.4414 25.8008C32.0117 25.3711 31.6406 25.2344 31.2109 25.2344C30.7617 25.2344 30.3906 25.3711 29.9609 25.8008L21.582 33.9453C21.2695 34.2578 21.0742 34.6094 21.0742 35.0781C21.0742 35.9375 21.7383 36.582 22.6367 36.582C23.0469 36.582 23.5156 36.4062 23.8281 36.0742L28.0664 31.6016L29.6289 30L29.4922 33.7109L29.4922 58.8477C29.4922 59.7461 30.2734 60.5078 31.2109 60.5078Z" fill="black" fill-opacity="0.85"/>
 </g>
</svg>
