<?xml version="1.0" encoding="UTF-8"?>
<!--Generator: Apple Native CoreSVG 326-->
<!DOCTYPE svg
PUBLIC "-//W3C//DTD SVG 1.1//EN"
       "http://www.w3.org/Graphics/SVG/1.1/DTD/svg11.dtd">
<svg version="1.1" xmlns="http://www.w3.org/2000/svg" xmlns:xlink="http://www.w3.org/1999/xlink" viewBox="0 0 62.7734 68.6523">
 <g>
  <rect height="68.6523" opacity="0" width="62.7734" x="0" y="0"/>
  <path d="M54.5117 28.0078C59.4727 29.8633 62.4023 34.0039 62.4023 38.9648C62.4023 44.9219 57.9883 49.4531 50.4883 49.4531L37.3242 49.4531L37.3242 45.9961L50.4883 45.9961C56.0547 45.9961 58.9453 43.0273 58.9453 38.9648C58.9453 34.6289 56.0156 31.6211 51.4453 30.5859C51.1719 30.5273 51.0547 30.332 51.0742 30.0391C51.1523 28.9062 51.2305 27.6367 51.1523 26.5625C50.6836 18.8477 44.8438 12.3047 36.6016 12.3047C30.0391 12.3047 26.25 15.9961 23.7891 20.3711C23.6328 20.6445 23.457 20.6836 23.1641 20.6055C17.9102 19.0625 12.3242 21.4062 12.3242 28.9453C12.3242 29.2578 12.1875 29.4336 11.875 29.4336C6.52344 29.4336 3.45703 33.0273 3.45703 37.8711C3.45703 42.4023 6.69922 45.9961 12.793 45.9961L25.0977 45.9961L25.0977 49.4531L12.8125 49.4531C4.74609 49.4531 0 44.3164 0 37.8711C0 32.0312 3.57422 27.5 9.17969 26.7383C9.25781 19.7656 16.3477 15.3906 22.0703 17.0312C24.9609 12.5586 29.7461 8.84766 36.6016 8.84766C46.7188 8.84766 54.6484 16.9141 54.5117 28.0078Z" fill="black" fill-opacity="0.85"/>
  <path d="M31.2109 32.0703C30.2734 32.0703 29.4922 32.832 29.4922 33.75L29.4922 55.8398L29.6289 59.5508L28.0664 57.9297L23.8281 53.6719C23.4961 53.3398 23.0469 53.1445 22.6367 53.1445C21.7383 53.1445 21.0742 53.8086 21.0742 54.668C21.0742 55.1367 21.25 55.4883 21.582 55.8008L29.9609 63.75C30.4102 64.1406 30.7617 64.3164 31.2109 64.3164C31.6406 64.3164 31.9922 64.1406 32.4414 63.75L40.8008 55.8008C41.1523 55.4883 41.3086 55.1367 41.3086 54.668C41.3086 53.8086 40.625 53.1445 39.7461 53.1445C39.3164 53.1445 38.8867 53.3398 38.5742 53.6719L34.3164 57.9297L32.7734 59.5312L32.9102 55.8398L32.9102 33.75C32.9102 32.832 32.1289 32.0703 31.2109 32.0703Z" fill="black" fill-opacity="0.85"/>
 </g>
</svg>
