<?xml version="1.0" encoding="UTF-8"?>
<!--Generator: Apple Native CoreSVG 326-->
<!DOCTYPE svg
PUBLIC "-//W3C//DTD SVG 1.1//EN"
       "http://www.w3.org/Graphics/SVG/1.1/DTD/svg11.dtd">
<svg version="1.1" xmlns="http://www.w3.org/2000/svg" xmlns:xlink="http://www.w3.org/1999/xlink" viewBox="0 0 55.5273 53.1055">
 <g>
  <rect height="53.1055" opacity="0" width="55.5273" x="0" y="0"/>
  <path d="M3.06641 47.6758L52.0898 47.6758L52.0898 46.1719C52.0898 45.332 51.582 44.8242 50.7227 44.8242L49.1211 44.8242L49.1211 16.6797L51.3867 16.6797C52.5781 16.6797 53.2422 15.8398 53.2422 14.9609C53.2422 14.3164 52.8906 13.75 52.1094 13.3008L30.5273 0.839844C29.5703 0.292969 28.5547 0 27.5781 0C26.6016 0 25.5664 0.292969 24.6289 0.839844L3.04688 13.3008C2.24609 13.75 1.91406 14.3164 1.91406 14.9609C1.91406 15.8398 2.57812 16.6797 3.76953 16.6797L6.05469 16.6797L6.05469 44.8242L4.45312 44.8242C3.57422 44.8242 3.06641 45.332 3.06641 46.1719ZM9.31641 44.8242L9.31641 13.7109L26.4453 4.0625C26.7773 3.86719 27.1875 3.75 27.5781 3.75C27.9492 3.75 28.3398 3.86719 28.7109 4.0625L45.8594 13.7109L45.8594 44.8242ZM1.73828 53.0664L53.418 53.0664C54.375 53.0664 55.1562 52.2852 55.1562 51.3477C55.1562 50.3906 54.375 49.6094 53.418 49.6094L1.73828 49.6094C0.78125 49.6094 0 50.3906 0 51.3477C0 52.2852 0.78125 53.0664 1.73828 53.0664Z" fill="black" fill-opacity="0.85"/>
  <path d="M24.8633 28.3789C28.7695 28.3789 31.8945 26.4453 32.3633 22.5781L34.3945 22.5781C34.8242 22.5781 35.1758 22.2266 35.1758 21.8164C35.1758 21.4062 34.8242 21.0547 34.3945 21.0547L32.4219 21.0547C32.2852 19.3945 31.582 17.793 30.1953 16.7578L34.3945 16.7578C34.8242 16.7578 35.1758 16.4062 35.1758 15.9961C35.1758 15.5469 34.8242 15.2344 34.3945 15.2344L20.5664 15.2344C19.9805 15.2344 19.6289 15.625 19.6289 16.25L19.6289 16.4062C19.6289 17.0117 19.9805 17.4023 20.5664 17.4023L24.7461 17.4023C27.3242 17.4023 29.375 18.4766 29.7266 21.0547L20.4297 21.0547C20 21.0547 19.6484 21.4062 19.6484 21.8164C19.6484 22.2266 20 22.5781 20.4297 22.5781L29.707 22.5781C29.375 25.2344 27.2852 26.1914 24.6289 26.1914L21.0938 26.1914C20.2344 26.1914 19.6875 26.7188 19.6875 27.4609L19.6875 27.5391C19.6875 28.1641 19.9805 28.5547 20.4883 29.0039L29.2969 37.2461C29.6875 37.5977 30 37.8711 30.5664 37.8711C31.2305 37.8711 31.7188 37.3242 31.7188 36.7188C31.7188 36.2891 31.5039 35.9961 31.1719 35.7031L23.3398 28.3789Z" fill="black" fill-opacity="0.85"/>
 </g>
</svg>
