<?xml version="1.0" encoding="UTF-8"?>
<!--Generator: Apple Native CoreSVG 326-->
<!DOCTYPE svg
PUBLIC "-//W3C//DTD SVG 1.1//EN"
       "http://www.w3.org/Graphics/SVG/1.1/DTD/svg11.dtd">
<svg version="1.1" xmlns="http://www.w3.org/2000/svg" xmlns:xlink="http://www.w3.org/1999/xlink" viewBox="0 0 46.2891 45.918">
 <g>
  <rect height="45.918" opacity="0" width="46.2891" x="0" y="0"/>
  <path d="M45.918 7.53906L45.918 38.3984C45.918 43.3594 43.3594 45.918 38.3008 45.918L7.59766 45.918C2.55859 45.918 0 43.3984 0 38.3984L0 7.53906C0 2.53906 2.55859 0 7.59766 0L38.3008 0C43.3594 0 45.918 2.55859 45.918 7.53906ZM15.7617 11.4844C15.1562 11.4844 14.8047 11.875 14.8047 12.5195L14.8047 12.6758C14.8047 13.3203 15.1562 13.7109 15.7617 13.7109L20.0586 13.7109C22.6953 13.7109 24.7852 14.8242 25.1367 17.4414L15.6445 17.4414C15.1953 17.4414 14.8438 17.793 14.8438 18.2227C14.8438 18.6719 15.1953 19.0039 15.6445 19.0039L25.1172 19.0039C24.7852 21.7188 22.6758 22.6953 19.9414 22.6953L16.3086 22.6953C15.4297 22.6953 14.8633 23.2422 14.8633 24.0234L14.8633 24.082C14.8633 24.7461 15.1562 25.1562 15.6836 25.625L24.707 34.0625C25.1172 34.4141 25.4297 34.707 26.0156 34.707C26.7188 34.707 27.207 34.1406 27.207 33.5156C27.207 33.0664 26.9727 32.7734 26.6602 32.4414L18.6328 24.9805L20.1758 24.9805C24.1992 24.9805 27.3828 22.9883 27.8906 19.0039L29.9414 19.0039C30.3906 19.0039 30.7422 18.6719 30.7422 18.2227C30.7422 17.793 30.3906 17.4414 29.9414 17.4414L27.9297 17.4414C27.7734 15.7422 27.0703 14.1211 25.6445 13.0664L29.9414 13.0664C30.3906 13.0664 30.7422 12.6953 30.7422 12.2852C30.7422 11.8164 30.3906 11.4844 29.9414 11.4844Z" fill="black" fill-opacity="0.85"/>
 </g>
</svg>
