<?xml version="1.0" encoding="UTF-8"?>
<!--Generator: Apple Native CoreSVG 326-->
<!DOCTYPE svg
PUBLIC "-//W3C//DTD SVG 1.1//EN"
       "http://www.w3.org/Graphics/SVG/1.1/DTD/svg11.dtd">
<svg version="1.1" xmlns="http://www.w3.org/2000/svg" xmlns:xlink="http://www.w3.org/1999/xlink" viewBox="0 0 51.25 50.918">
 <g>
  <rect height="50.918" opacity="0" width="51.25" x="0" y="0"/>
  <path d="M25.4297 50.8789C39.4727 50.8789 50.8789 39.4922 50.8789 25.4492C50.8789 11.4062 39.4727 0 25.4297 0C11.3867 0 0 11.4062 0 25.4492C0 39.4922 11.3867 50.8789 25.4297 50.8789ZM25.4297 47.2461C13.3789 47.2461 3.63281 37.5 3.63281 25.4492C3.63281 13.3984 13.3789 3.65234 25.4297 3.65234C37.4805 3.65234 47.2266 13.3984 47.2266 25.4492C47.2266 37.5 37.4805 47.2461 25.4297 47.2461Z" fill="black" fill-opacity="0.85"/>
  <path d="M8.55469 25.4492C8.55469 30.0781 11.543 33.2227 15.9375 33.2227C18.3398 33.2227 20.3125 32.1484 22.5 30.0977L25.4492 27.3047L28.3789 30.0977C30.6641 32.2656 32.5977 33.2227 34.9414 33.2227C39.3359 33.2227 42.3633 30.0781 42.3633 25.4492C42.3633 20.8008 39.3359 17.6367 34.9414 17.6367C32.5977 17.6367 30.6641 18.6133 28.3789 20.8008L25.4492 23.5742L22.5 20.8008C20.332 18.7305 18.3594 17.6562 15.9375 17.6367C11.543 17.6367 8.55469 20.8008 8.55469 25.4492ZM11.2695 25.4492C11.2695 22.4023 13.1445 20.3516 15.9375 20.3516C17.4414 20.3711 18.75 21.0352 20.6055 22.7539L23.4961 25.4492L20.6055 28.125C18.8477 29.7461 17.5195 30.5078 15.9375 30.5078C13.1445 30.5078 11.2695 28.4766 11.2695 25.4492ZM27.3828 25.4492L30.2734 22.7539C32.1289 21.0352 33.4375 20.3711 34.9414 20.3516C37.7344 20.3516 39.6289 22.4023 39.6289 25.4492C39.6289 28.4766 37.7539 30.5078 34.9414 30.5078C33.3594 30.5078 32.0312 29.7461 30.2734 28.125Z" fill="black" fill-opacity="0.85"/>
 </g>
</svg>
