<?xml version="1.0" encoding="UTF-8"?>
<!--Generator: Apple Native CoreSVG 326-->
<!DOCTYPE svg
PUBLIC "-//W3C//DTD SVG 1.1//EN"
       "http://www.w3.org/Graphics/SVG/1.1/DTD/svg11.dtd">
<svg version="1.1" xmlns="http://www.w3.org/2000/svg" xmlns:xlink="http://www.w3.org/1999/xlink" viewBox="0 0 46.2891 45.918">
 <g>
  <rect height="45.918" opacity="0" width="46.2891" x="0" y="0"/>
  <path d="M7.59766 45.918L38.3008 45.918C43.3594 45.918 45.918 43.3594 45.918 38.3984L45.918 7.53906C45.918 2.55859 43.3594 0 38.3008 0L7.59766 0C2.55859 0 0 2.53906 0 7.53906L0 38.3984C0 43.3984 2.55859 45.918 7.59766 45.918ZM7.67578 42.4609C4.94141 42.4609 3.45703 41.0156 3.45703 38.2031L3.45703 7.71484C3.45703 4.92188 4.94141 3.45703 7.67578 3.45703L38.2422 3.45703C40.918 3.45703 42.4609 4.92188 42.4609 7.71484L42.4609 38.2031C42.4609 41.0156 40.918 42.4609 38.2422 42.4609Z" fill="black" fill-opacity="0.85"/>
  <path d="M18.5156 36.9336L28.8086 36.9336C29.707 36.9336 30.3906 36.2695 30.3906 35.3906C30.3906 34.5312 29.707 33.8477 28.8086 33.8477L25.3711 33.8477L25.3711 20.1953C25.3711 19.0625 24.7852 18.2812 23.6914 18.2812L18.8672 18.2812C17.9883 18.2812 17.2852 18.9453 17.2852 19.8047C17.2852 20.6836 17.9883 21.3477 18.8672 21.3477L21.9531 21.3477L21.9531 33.8477L18.5156 33.8477C17.6172 33.8477 16.9336 34.5312 16.9336 35.3906C16.9336 36.2695 17.6172 36.9336 18.5156 36.9336ZM22.8125 13.8281C24.4727 13.8281 25.7617 12.5 25.7617 10.8789C25.7617 9.21875 24.4727 7.89062 22.8125 7.89062C21.1719 7.89062 19.8633 9.21875 19.8633 10.8789C19.8633 12.5 21.1719 13.8281 22.8125 13.8281Z" fill="black" fill-opacity="0.85"/>
 </g>
</svg>
