<?xml version="1.0" encoding="UTF-8"?>
<!--Generator: Apple Native CoreSVG 326-->
<!DOCTYPE svg
PUBLIC "-//W3C//DTD SVG 1.1//EN"
       "http://www.w3.org/Graphics/SVG/1.1/DTD/svg11.dtd">
<svg version="1.1" xmlns="http://www.w3.org/2000/svg" xmlns:xlink="http://www.w3.org/1999/xlink" viewBox="0 0 64.4141 47.6367">
 <g>
  <rect height="47.6367" opacity="0" width="64.4141" x="0" y="0"/>
  <path d="M0 23.8086C0 38.2422 9.78516 47.6172 24.6094 47.6172L39.4336 47.6172C54.2578 47.6172 64.043 38.2422 64.043 23.8086C64.043 9.35547 54.2578 0 39.4336 0L24.6094 0C9.78516 0 0 9.35547 0 23.8086ZM3.45703 23.8086C3.45703 11.5039 11.9141 3.45703 24.6094 3.45703L39.4336 3.45703C52.1289 3.45703 60.5859 11.5039 60.5859 23.8086C60.5859 36.0938 52.1289 44.1406 39.4336 44.1406L24.6094 44.1406C11.9141 44.1406 3.45703 36.0938 3.45703 23.8086Z" fill="black" fill-opacity="0.85"/>
  <path d="M24.6094 41.0352L39.4336 41.0352C50.8984 41.0352 57.4609 34.7656 57.4609 23.8086C57.4609 12.8516 50.8984 6.5625 39.4336 6.5625L24.6094 6.5625C13.1445 6.5625 6.58203 12.8516 6.58203 23.8086C6.58203 34.7656 13.1445 41.0352 24.6094 41.0352Z" fill="black" fill-opacity="0.85"/>
 </g>
</svg>
