<?xml version="1.0" encoding="UTF-8"?>
<!--Generator: Apple Native CoreSVG 326-->
<!DOCTYPE svg
PUBLIC "-//W3C//DTD SVG 1.1//EN"
       "http://www.w3.org/Graphics/SVG/1.1/DTD/svg11.dtd">
<svg version="1.1" xmlns="http://www.w3.org/2000/svg" xmlns:xlink="http://www.w3.org/1999/xlink" viewBox="0 0 86.6797 52.168">
 <g>
  <rect height="52.168" opacity="0" width="86.6797" x="0" y="0"/>
  <path d="M72.3633 10.6641L72.3633 14.5055C71.2792 14.0319 70.1067 13.752 68.8867 13.7132L68.8867 10.8398C68.8867 8.04688 67.3633 6.58203 64.6875 6.58203L20.8594 6.58203C18.125 6.58203 16.6406 8.04688 16.6406 10.8398L16.6406 41.3281C16.6406 44.1406 18.125 45.5859 20.8594 45.5859L50.3124 45.5859C50.2589 45.9674 50.2344 46.3454 50.2344 46.7188C50.2344 47.5718 50.4137 48.3551 50.7466 49.043L20.7812 49.043C15.7422 49.043 13.1836 46.5234 13.1836 41.5234L13.1836 10.6641C13.1836 5.66406 15.7422 3.125 20.7812 3.125L64.7461 3.125C69.8047 3.125 72.3633 5.68359 72.3633 10.6641Z" fill="black" fill-opacity="0.85"/>
  <path d="M65.7812 12.207L65.7812 14.0875C61.4645 15.3303 58.1869 19.5068 58.2031 24.5508C58.2031 28.2185 59.8621 31.428 62.3967 33.4123C56.8987 34.9925 52.9481 38.6191 51.2331 42.4609L22.207 42.4609C20.6445 42.4609 19.7656 41.5625 19.7656 39.9805L19.7656 12.207C19.7656 10.6055 20.6445 9.70703 22.207 9.70703L63.3203 9.70703C64.9023 9.70703 65.7812 10.6055 65.7812 12.207Z" fill="black" fill-opacity="0.2125"/>
  <path d="M56.2891 49.043L80.6445 49.043C82.4414 49.043 83.5742 48.1641 83.5742 46.7188C83.5742 42.0703 77.793 35.6641 68.4766 35.6641C59.1406 35.6641 53.3398 42.0703 53.3398 46.7188C53.3398 48.1641 54.4727 49.043 56.2891 49.043ZM68.4766 32.4414C72.3633 32.4414 75.6445 29.0039 75.6445 24.5117C75.6445 20.1562 72.3242 16.8164 68.4766 16.8164C64.6289 16.8164 61.3086 20.1953 61.3086 24.5508C61.3086 29.0039 64.6094 32.4414 68.4766 32.4414Z" fill="black" fill-opacity="0.85"/>
 </g>
</svg>
