<?xml version="1.0" encoding="UTF-8"?>
<!--Generator: Apple Native CoreSVG 326-->
<!DOCTYPE svg
PUBLIC "-//W3C//DTD SVG 1.1//EN"
       "http://www.w3.org/Graphics/SVG/1.1/DTD/svg11.dtd">
<svg version="1.1" xmlns="http://www.w3.org/2000/svg" xmlns:xlink="http://www.w3.org/1999/xlink" viewBox="0 0 46.2891 45.918">
 <g>
  <rect height="45.918" opacity="0" width="46.2891" x="0" y="0"/>
  <path d="M7.59766 45.918L38.3008 45.918C43.3594 45.918 45.918 43.3594 45.918 38.3984L45.918 7.53906C45.918 2.55859 43.3594 0 38.3008 0L7.59766 0C2.55859 0 0 2.53906 0 7.53906L0 38.3984C0 43.3984 2.55859 45.918 7.59766 45.918ZM7.67578 42.4609C4.94141 42.4609 3.45703 41.0156 3.45703 38.2031L3.45703 7.71484C3.45703 4.92188 4.94141 3.45703 7.67578 3.45703L38.2422 3.45703C40.918 3.45703 42.4609 4.92188 42.4609 7.71484L42.4609 38.2031C42.4609 41.0156 40.918 42.4609 38.2422 42.4609Z" fill="black" fill-opacity="0.85"/>
  <path d="M31.7383 39.375L36.875 39.375C38.5938 39.375 39.3555 38.6328 39.3555 36.9141L39.3555 9.0625C39.3555 7.34375 38.5938 6.60156 36.875 6.60156L31.7383 6.60156C30 6.60156 29.2383 7.34375 29.2383 9.0625L29.2383 36.9141C29.2383 38.6328 30 39.375 31.7383 39.375Z" fill="black" fill-opacity="0.85"/>
 </g>
</svg>
