<?xml version="1.0" encoding="UTF-8"?>
<!--Generator: Apple Native CoreSVG 326-->
<!DOCTYPE svg
PUBLIC "-//W3C//DTD SVG 1.1//EN"
       "http://www.w3.org/Graphics/SVG/1.1/DTD/svg11.dtd">
<svg version="1.1" xmlns="http://www.w3.org/2000/svg" xmlns:xlink="http://www.w3.org/1999/xlink" viewBox="0 0 59.1602 42.4023">
 <g>
  <rect height="42.4023" opacity="0" width="59.1602" x="0" y="0"/>
  <path d="M22.2852 34.0234C22.2852 34.7852 22.8711 35.3516 23.6133 35.3516C24.3359 35.3516 24.9023 34.7852 24.9023 34.0234L24.9023 28.8477C24.9023 28.125 24.3359 27.5391 23.6133 27.5391C22.8711 27.5391 22.2852 28.125 22.2852 28.8477ZM28.0859 34.0234C28.0859 34.7852 28.6523 35.3516 29.3945 35.3516C30.1172 35.3516 30.7031 34.7852 30.7031 34.0234L30.7031 28.8477C30.7031 28.125 30.1172 27.5391 29.3945 27.5391C28.6523 27.5391 28.0859 28.125 28.0859 28.8477ZM33.8672 34.0234C33.8672 34.7852 34.4531 35.3516 35.1953 35.3516C35.918 35.3516 36.4844 34.7852 36.4844 34.0234L36.4844 28.8477C36.4844 28.125 35.918 27.5391 35.1953 27.5391C34.4531 27.5391 33.8672 28.125 33.8672 28.8477ZM39.668 34.0234C39.668 34.7852 40.2344 35.3516 40.9766 35.3516C41.6992 35.3516 42.2852 34.7852 42.2852 34.0234L42.2852 28.8477C42.2852 28.125 41.6992 27.5391 40.9766 27.5391C40.2344 27.5391 39.668 28.125 39.668 28.8477ZM45.4492 34.0234C45.4492 34.7852 46.0352 35.3516 46.7773 35.3516C47.5 35.3516 48.0664 34.7852 48.0664 34.0234L48.0664 28.8477C48.0664 28.125 47.5 27.5391 46.7773 27.5391C46.0352 27.5391 45.4492 28.125 45.4492 28.8477ZM0 31.4648C0 37.5977 4.78516 42.4023 11.4062 42.4023L47.4023 42.4023C54.0039 42.4023 58.7891 37.5977 58.7891 31.4648C58.7891 29.6484 58.2422 27.9883 57.6172 26.4453L48.7891 5.83984C47.1875 2.03125 43.9844 0.0585938 39.7461 0.0585938L19.043 0.0585938C14.8242 0.0585938 11.6211 2.03125 10.0195 5.83984L1.17188 26.4453C0.546875 27.9688 0 29.6484 0 31.4648ZM3.45703 31.4648C3.45703 27.2461 6.69922 24.0039 11.4062 24.0039L47.4023 24.0039C52.0898 24.0039 55.332 27.2461 55.332 31.4648C55.332 36.0742 52.0898 38.9258 47.4023 38.9258L11.4062 38.9258C6.69922 38.9258 3.45703 35.6836 3.45703 31.4648ZM7.24609 21.4062L13.3398 6.75781C14.3359 4.33594 16.3672 3.10547 19.1602 3.10547L39.6484 3.10547C42.4219 3.10547 44.4727 4.33594 45.4492 6.75781L51.5234 21.3867C50.293 20.8594 48.8867 20.5273 47.4023 20.5273L11.4062 20.5273C9.90234 20.5273 8.49609 20.8594 7.24609 21.4062Z" fill="black" fill-opacity="0.85"/>
 </g>
</svg>
