<?xml version="1.0" encoding="UTF-8"?>
<!--Generator: Apple Native CoreSVG 326-->
<!DOCTYPE svg
PUBLIC "-//W3C//DTD SVG 1.1//EN"
       "http://www.w3.org/Graphics/SVG/1.1/DTD/svg11.dtd">
<svg version="1.1" xmlns="http://www.w3.org/2000/svg" xmlns:xlink="http://www.w3.org/1999/xlink" viewBox="0 0 59.5508 57.0752">
 <g>
  <rect height="57.0752" opacity="0" width="59.5508" x="0" y="0"/>
  <path d="M2.38281 7.57081L4.76175 9.95168C3.90393 10.6537 3.45703 11.7805 3.45703 13.313L3.45703 43.8208C3.45703 46.6138 4.94141 48.0591 7.67578 48.0591L42.8383 48.0591L46.2925 51.5161L7.59766 51.5161C2.55859 51.5161 0 48.9966 0 43.9966L0 13.1372C0 10.493 0.715588 8.54247 2.14254 7.29877ZM59.1797 13.1372L59.1797 43.9966C59.1797 46.6441 58.4567 48.6018 57.012 49.8476C56.94 49.7556 56.8607 49.6678 56.7773 49.5825L54.3826 47.1849C55.2433 46.4829 55.7031 45.3552 55.7031 43.8208L55.7031 13.313C55.7031 10.52 54.1797 9.07472 51.5039 9.07472L16.3188 9.07472L12.8659 5.61769L51.5625 5.61769C56.6211 5.61769 59.1797 8.15675 59.1797 13.1372ZM40.5443 45.7632C40.3548 45.9911 40.0651 46.1255 39.7266 46.1255L19.4531 46.1255C18.8281 46.1255 18.3984 45.6958 18.3984 45.0708C18.3984 44.4458 18.8281 44.0161 19.4531 44.0161L38.7986 44.0161Z" fill="black" fill-opacity="0.85"/>
  <path d="M52.4805 53.8599C53.1445 54.5239 54.1992 54.5239 54.8438 53.8599C55.4883 53.2153 55.5078 52.1607 54.8633 51.5161L6.67969 3.27394C6.03516 2.64894 4.98047 2.60987 4.31641 3.27394C3.67188 3.91847 3.67188 5.01222 4.31641 5.63722Z" fill="black" fill-opacity="0.85"/>
 </g>
</svg>
