<?xml version="1.0" encoding="UTF-8"?>
<!--Generator: Apple Native CoreSVG 326-->
<!DOCTYPE svg
PUBLIC "-//W3C//DTD SVG 1.1//EN"
       "http://www.w3.org/Graphics/SVG/1.1/DTD/svg11.dtd">
<svg version="1.1" xmlns="http://www.w3.org/2000/svg" xmlns:xlink="http://www.w3.org/1999/xlink" viewBox="0 0 50.3223 52.4805">
 <g>
  <rect height="52.4805" opacity="0" width="50.3223" x="0" y="0"/>
  <path d="M12.7783 20.3407L12.7783 45.4883C12.7783 47.7734 14.0283 48.9844 16.4111 48.9844L33.5596 48.9844C35.9424 48.9844 37.1924 47.7734 37.1924 45.4883L37.1924 44.7316L40.4081 47.9443C39.6853 50.7471 37.3336 52.4414 33.9893 52.4414L15.9814 52.4414C11.9189 52.4414 9.32129 49.9414 9.32129 45.9961L9.32129 16.8869ZM31.333 46.1133C31.333 46.7383 30.8838 47.168 30.2783 47.168L19.7314 47.168C19.1064 47.168 18.6572 46.7383 18.6572 46.1133C18.6572 45.4883 19.1064 45.0586 19.7314 45.0586L30.2783 45.0586C30.8838 45.0586 31.333 45.4883 31.333 46.1133ZM40.6494 6.44531L40.6494 35.7851L37.1924 32.3297L37.1924 6.95312C37.1924 4.66797 35.9424 3.45703 33.5596 3.45703L30.415 3.45703C30.0439 3.45703 29.8486 3.67188 29.8486 4.04297L29.8486 4.53125C29.8486 5.50781 29.2041 6.19141 28.2275 6.19141L21.7627 6.19141C20.7861 6.19141 20.1416 5.50781 20.1416 4.53125L20.1416 4.04297C20.1416 3.67188 19.9463 3.45703 19.5752 3.45703L16.4111 3.45703C14.0283 3.45703 12.7783 4.66797 12.7783 6.95312L12.7783 7.92718L9.52276 4.67317C10.1891 1.76466 12.5683 0 15.9814 0L33.9893 0C38.0518 0 40.6494 2.5 40.6494 6.44531Z" fill="black" fill-opacity="0.85"/>
  <path d="M44.3799 48.0859C45.0244 48.7305 46.0986 48.7109 46.7432 48.0859C47.3877 47.4414 47.3877 46.3672 46.7432 45.7227L5.57129 4.57031C4.94629 3.92578 3.8916 3.88672 3.20801 4.57031C2.56348 5.21484 2.56348 6.28906 3.20801 6.93359Z" fill="black" fill-opacity="0.85"/>
 </g>
</svg>
