<?xml version="1.0" encoding="UTF-8"?>
<!--Generator: Apple Native CoreSVG 326-->
<!DOCTYPE svg
PUBLIC "-//W3C//DTD SVG 1.1//EN"
       "http://www.w3.org/Graphics/SVG/1.1/DTD/svg11.dtd">
<svg version="1.1" xmlns="http://www.w3.org/2000/svg" xmlns:xlink="http://www.w3.org/1999/xlink" viewBox="0 0 48.75 53.3789">
 <g>
  <rect height="53.3789" opacity="0" width="48.75" x="0" y="0"/>
  <path d="M2.98828 6.54297L2.98828 46.7969C2.98828 49.672 4.39718 51.9676 6.6892 52.8906L6.66016 52.8906C2.57812 52.8906 0 50.3906 0 46.4453L0 6.89453C0 2.94922 2.57812 0.449219 6.66016 0.449219L6.6892 0.449219C4.39718 1.37225 2.98828 3.66788 2.98828 6.54297Z" fill="black" fill-opacity="0.85"/>
  <path d="M11.4258 6.54297L11.4258 46.7969C11.4258 49.672 12.8347 51.9676 15.118 52.8906L15.0977 52.8906C11.0156 52.8906 8.4375 50.3906 8.4375 46.4453L8.4375 6.89453C8.4375 2.94922 11.0156 0.449219 15.0977 0.449219L15.118 0.449219C12.8347 1.37225 11.4258 3.66788 11.4258 6.54297Z" fill="black" fill-opacity="0.85"/>
  <path d="M17.0703 46.4648C17.0703 50.4102 19.6484 52.9102 23.7305 52.9102L41.7188 52.9102C45.8008 52.9102 48.3789 50.4102 48.3789 46.4648L48.3789 6.89453C48.3789 2.94922 45.8008 0.449219 41.7188 0.449219L23.7305 0.449219C19.6484 0.449219 17.0703 2.94922 17.0703 6.89453ZM20.5273 44.707L20.5273 8.65234L44.9219 8.65234L44.9219 44.707ZM32.7539 50.5078C31.582 50.5078 30.6445 49.5508 30.6445 48.3984C30.6445 47.2461 31.582 46.3281 32.7539 46.3281C33.8867 46.3281 34.8242 47.2461 34.8242 48.3984C34.8242 49.5508 33.8867 50.5078 32.7539 50.5078ZM28.2422 4.6875C28.2422 4.16016 28.6133 3.80859 29.1211 3.80859L36.3281 3.80859C36.8555 3.80859 37.2266 4.16016 37.2266 4.6875C37.2266 5.21484 36.8555 5.56641 36.3281 5.56641L29.1211 5.56641C28.6133 5.56641 28.2422 5.21484 28.2422 4.6875Z" fill="black" fill-opacity="0.85"/>
 </g>
</svg>
