<?xml version="1.0" encoding="UTF-8"?>
<!--Generator: Apple Native CoreSVG 326-->
<!DOCTYPE svg
PUBLIC "-//W3C//DTD SVG 1.1//EN"
       "http://www.w3.org/Graphics/SVG/1.1/DTD/svg11.dtd">
<svg version="1.1" xmlns="http://www.w3.org/2000/svg" xmlns:xlink="http://www.w3.org/1999/xlink" viewBox="0 0 51.25 50.918">
 <g>
  <rect height="50.918" opacity="0" width="51.25" x="0" y="0"/>
  <path d="M50.8789 25.4492C50.8789 39.4922 39.4727 50.8789 25.4297 50.8789C11.3867 50.8789 0 39.4922 0 25.4492C0 11.4062 11.3867 0 25.4297 0C39.4727 0 50.8789 11.4062 50.8789 25.4492ZM3.63281 25.4492C3.63281 37.5 13.3789 47.2461 25.4297 47.2461C37.4805 47.2461 47.2266 37.5 47.2266 25.4492C47.2266 13.3984 37.4805 3.65234 25.4297 3.65234C13.3789 3.65234 3.63281 13.3984 3.63281 25.4492Z" fill="black" fill-opacity="0.85"/>
  <path d="M18.0664 21.8945L18.0664 37.1875C18.0664 38.5742 18.8086 39.2969 20.2734 39.2969L30.5859 39.2969C32.0508 39.2969 32.793 38.5742 32.793 37.1875L32.793 36.6211L34.8346 38.6628C34.3905 40.4306 32.922 41.4844 30.8398 41.4844L20.0195 41.4844C17.4805 41.4844 15.8789 39.9414 15.8789 37.4609L15.8789 19.707ZM29.2969 37.5391C29.2969 37.9492 29.0039 38.2227 28.5938 38.2227L22.2852 38.2227C21.8555 38.2227 21.5625 37.9492 21.5625 37.5391C21.5625 37.1094 21.8555 36.7969 22.2852 36.7969L28.5938 36.7969C29.0039 36.7969 29.2969 37.1094 29.2969 37.5391ZM34.9805 13.4375L34.9805 31.1489L32.793 28.9595L32.793 13.7109C32.793 12.3047 32.0508 11.582 30.5859 11.582L20.2734 11.582C18.8086 11.582 18.0664 12.3047 18.0664 13.7109L18.0664 14.2208L16.0338 12.1866C16.489 10.4429 17.9397 9.39453 20.0195 9.39453L30.8398 9.39453C33.3594 9.39453 34.9805 10.957 34.9805 13.4375ZM28.2812 13.8867C28.2812 14.4531 27.8516 14.9023 27.2656 14.9023L23.5742 14.9023C22.9883 14.9023 22.5586 14.4531 22.5586 13.8867C22.5586 13.3203 22.9883 12.8711 23.5742 12.8711L27.2656 12.8711C27.8516 12.8711 28.2812 13.3203 28.2812 13.8867Z" fill="black" fill-opacity="0.85"/>
  <path d="M36.5625 37.9883C36.9531 38.3984 37.6172 38.3984 38.0273 37.9883C38.4375 37.5781 38.4375 36.9531 38.0273 36.5234L14.375 12.8711C13.9648 12.4609 13.3008 12.4609 12.8906 12.8711C12.4805 13.2812 12.5 13.9453 12.8906 14.3359Z" fill="black" fill-opacity="0.85"/>
 </g>
</svg>
