<?xml version="1.0" encoding="UTF-8"?>
<!--Generator: Apple Native CoreSVG 326-->
<!DOCTYPE svg
PUBLIC "-//W3C//DTD SVG 1.1//EN"
       "http://www.w3.org/Graphics/SVG/1.1/DTD/svg11.dtd">
<svg version="1.1" xmlns="http://www.w3.org/2000/svg" xmlns:xlink="http://www.w3.org/1999/xlink" viewBox="0 0 31.6992 52.4805">
 <g>
  <rect height="52.4805" opacity="0" width="31.6992" x="0" y="0"/>
  <path d="M27.8516 6.95312L27.8516 45.4883C27.8516 47.7734 26.6016 48.9844 24.2383 48.9844L19.6094 48.9844L19.6094 48.2227C19.6094 47.2461 18.9648 46.582 17.9883 46.582L13.3594 46.582C12.3828 46.582 11.7383 47.2461 11.7383 48.2227L11.7383 48.9844L7.08984 48.9844C4.70703 48.9844 3.45703 47.7734 3.45703 45.4883L3.45703 6.95312C3.45703 4.66797 4.70703 3.45703 7.08984 3.45703L24.2383 3.45703C26.6016 3.45703 27.8516 4.66797 27.8516 6.95312Z" fill="black" fill-opacity="0.2125"/>
  <path d="M6.66016 52.4414L24.6484 52.4414C28.7305 52.4414 31.3281 49.9414 31.3281 45.9961L31.3281 6.44531C31.3281 2.5 28.7305 0 24.6484 0L6.66016 0C2.57812 0 0 2.5 0 6.44531L0 45.9961C0 49.9414 2.57812 52.4414 6.66016 52.4414ZM7.08984 48.9844C4.70703 48.9844 3.45703 47.7734 3.45703 45.4883L3.45703 6.95312C3.45703 4.66797 4.70703 3.45703 7.08984 3.45703L24.2383 3.45703C26.6016 3.45703 27.8516 4.66797 27.8516 6.95312L27.8516 45.4883C27.8516 47.7734 26.6016 48.9844 24.2383 48.9844ZM11.7383 49.4922L19.6094 49.4922L19.6094 48.2227C19.6094 47.2461 18.9648 46.582 17.9883 46.582L13.3594 46.582C12.3828 46.582 11.7383 47.2461 11.7383 48.2227Z" fill="black" fill-opacity="0.85"/>
 </g>
</svg>
