<?xml version="1.0" encoding="UTF-8"?>
<!--Generator: Apple Native CoreSVG 326-->
<!DOCTYPE svg
PUBLIC "-//W3C//DTD SVG 1.1//EN"
       "http://www.w3.org/Graphics/SVG/1.1/DTD/svg11.dtd">
<svg version="1.1" xmlns="http://www.w3.org/2000/svg" xmlns:xlink="http://www.w3.org/1999/xlink" viewBox="0 0 52.0508 52.4805">
 <g>
  <rect height="52.4805" opacity="0" width="52.0508" x="0" y="0"/>
  <path d="M41.5039 6.44531L41.5039 45.9961C41.5039 49.9414 38.9062 52.4414 34.8438 52.4414L16.8359 52.4414C12.7734 52.4414 10.1758 49.9414 10.1758 45.9961L10.1758 32.3242L13.6328 32.3242L13.6328 45.4883C13.6328 47.7734 14.8828 48.9844 17.2656 48.9844L34.4141 48.9844C36.7969 48.9844 38.0469 47.7734 38.0469 45.4883L38.0469 6.95312C38.0469 4.66797 36.7969 3.45703 34.4141 3.45703L17.2656 3.45703C14.8828 3.45703 13.6328 4.66797 13.6328 6.95312L13.6328 20.0977L10.1758 20.0977L10.1758 6.44531C10.1758 2.5 12.7734 0 16.8359 0L34.8438 0C38.9062 0 41.5039 2.5 41.5039 6.44531Z" fill="black" fill-opacity="0.85"/>
  <path d="M0 26.2109C0 27.1289 0.761719 27.9102 1.66016 27.9102L22.2461 27.9102L25.957 27.793L24.3359 29.3359L19.8828 33.5938C19.5312 33.8867 19.3555 34.3555 19.3555 34.7852C19.3555 35.6641 20 36.3281 20.8789 36.3281C21.3281 36.3281 21.6797 36.1523 22.0117 35.8203L30.1367 27.4414C30.5664 27.0117 30.7031 26.6406 30.7031 26.2109C30.7031 25.7617 30.5664 25.3906 30.1367 24.9609L22.0117 16.6016C21.6797 16.2695 21.3281 16.0938 20.8789 16.0938C20 16.0938 19.3555 16.7773 19.3555 17.6562C19.3555 18.0859 19.5312 18.5352 19.8828 18.8281L24.3359 23.0859L25.9375 24.6289L22.2461 24.4922L1.66016 24.4922C0.761719 24.4922 0 25.2734 0 26.2109Z" fill="black" fill-opacity="0.85"/>
 </g>
</svg>
