<?xml version="1.0" encoding="UTF-8"?>
<!--Generator: Apple Native CoreSVG 326-->
<!DOCTYPE svg
PUBLIC "-//W3C//DTD SVG 1.1//EN"
       "http://www.w3.org/Graphics/SVG/1.1/DTD/svg11.dtd">
<svg version="1.1" xmlns="http://www.w3.org/2000/svg" xmlns:xlink="http://www.w3.org/1999/xlink" viewBox="0 0 51.25 50.918">
 <g>
  <rect height="50.918" opacity="0" width="51.25" x="0" y="0"/>
  <path d="M25.4297 50.8789C39.4727 50.8789 50.8789 39.4922 50.8789 25.4492C50.8789 11.4062 39.4727 0 25.4297 0C11.3867 0 0 11.4062 0 25.4492C0 39.4922 11.3867 50.8789 25.4297 50.8789ZM25.4297 47.2461C13.3789 47.2461 3.63281 37.5 3.63281 25.4492C3.63281 13.3984 13.3789 3.65234 25.4297 3.65234C37.4805 3.65234 47.2266 13.3984 47.2266 25.4492C47.2266 37.5 37.4805 47.2461 25.4297 47.2461Z" fill="black" fill-opacity="0.85"/>
  <path d="M10.8008 32.9688C11.1328 32.5781 11.0156 32.1094 10.6445 31.6797C9.08203 29.9609 8.26172 27.793 8.26172 25.4492C8.26172 23.0859 9.08203 20.918 10.6445 19.1992C11.0156 18.7891 11.1328 18.3008 10.8008 17.9102C10.4688 17.5 9.86328 17.5 9.43359 17.9297C7.55859 19.9609 6.52344 22.6172 6.52344 25.4492C6.52344 28.2617 7.55859 30.9375 9.43359 32.9688C9.86328 33.3984 10.4688 33.3984 10.8008 32.9688ZM40.0977 32.9688C40.4102 33.3984 41.0156 33.3984 41.4453 32.9688C43.3203 30.9375 44.375 28.2617 44.375 25.4492C44.375 22.6172 43.3203 19.9609 41.4453 17.9297C41.0156 17.5 40.4102 17.5 40.0977 17.9102C39.7656 18.3008 39.8633 18.7891 40.2344 19.1992C41.7969 20.918 42.6172 23.0859 42.6172 25.4492C42.6172 27.793 41.7969 29.9609 40.2344 31.6797C39.8633 32.1094 39.7656 32.5781 40.0977 32.9688Z" fill="black" fill-opacity="0.85"/>
  <path d="M14.3945 29.8438C14.7266 29.4531 14.6094 29.0039 14.2578 28.5352C13.5742 27.7539 13.2031 26.6797 13.2031 25.4492C13.2031 24.2188 13.5742 23.125 14.2578 22.3438C14.6094 21.8945 14.7266 21.4453 14.3945 21.0352C14.043 20.625 13.3984 20.6445 13.0273 21.0938C12.0117 22.2852 11.4258 23.8086 11.4258 25.4492C11.4258 27.0703 12.0117 28.5938 13.0273 29.8047C13.3984 30.2539 14.043 30.2539 14.3945 29.8438ZM36.4844 29.8438C36.8359 30.2539 37.4805 30.2539 37.8516 29.8047C38.8672 28.5938 39.4531 27.0703 39.4531 25.4492C39.4531 23.8086 38.8672 22.2852 37.8516 21.0938C37.4805 20.6445 36.8359 20.625 36.4844 21.0352C36.1719 21.4453 36.2891 21.8945 36.6211 22.3438C37.3242 23.125 37.6758 24.2188 37.6758 25.4492C37.6758 26.6797 37.3242 27.7539 36.6211 28.5352C36.2891 29.0039 36.1719 29.4531 36.4844 29.8438Z" fill="black" fill-opacity="0.85"/>
  <path d="M16.7383 36.3672C16.7383 38.6133 18.2031 40.0195 20.5078 40.0195L30.3711 40.0195C32.6758 40.0195 34.1211 38.6133 34.1211 36.3672L34.1211 14.5312C34.1211 12.2852 32.6758 10.8789 30.3711 10.8789L20.5078 10.8789C18.2031 10.8789 16.7383 12.2852 16.7383 14.5312ZM18.8086 35.3906L18.8086 15.5078L32.0703 15.5078L32.0703 35.3906ZM25.4492 38.5742C24.8438 38.5742 24.3359 38.0859 24.3359 37.4805C24.3359 36.875 24.8438 36.3867 25.4492 36.3867C26.0547 36.3867 26.5234 36.875 26.5234 37.4805C26.5234 38.0859 26.0547 38.5742 25.4492 38.5742ZM22.9102 13.3008C22.9102 12.9688 23.1445 12.7344 23.4375 12.7344L27.4219 12.7344C27.7344 12.7344 27.9492 12.9688 27.9492 13.3008C27.9492 13.5938 27.7344 13.8086 27.4219 13.8086L23.4375 13.8086C23.1445 13.8086 22.9102 13.5938 22.9102 13.3008Z" fill="black" fill-opacity="0.85"/>
 </g>
</svg>
