<?xml version="1.0" encoding="UTF-8"?>
<!--Generator: Apple Native CoreSVG 326-->
<!DOCTYPE svg
PUBLIC "-//W3C//DTD SVG 1.1//EN"
       "http://www.w3.org/Graphics/SVG/1.1/DTD/svg11.dtd">
<svg version="1.1" xmlns="http://www.w3.org/2000/svg" xmlns:xlink="http://www.w3.org/1999/xlink" viewBox="0 0 52.8125 50.0785">
 <g>
  <rect height="50.0785" opacity="0" width="52.8125" x="0" y="0"/>
  <path d="M7.68068 12.8029L6.97266 12.8029C4.66797 12.8029 3.47656 14.0529 3.47656 16.4357L3.47656 33.5842C3.47656 35.9474 4.66797 37.1974 6.97266 37.1974L32.0984 37.1974L35.5587 40.6545L6.44531 40.6545C2.51953 40.6545 0 38.0763 0 33.9943L0 16.006C0 12.6596 1.69327 10.3239 4.46838 9.59366ZM52.4414 16.006L52.4414 33.9943C52.4414 37.4241 50.6765 39.7922 47.7677 40.4544L44.5092 37.1974L45.4883 37.1974C47.793 37.1974 48.9844 35.9474 48.9844 33.5842L48.9844 16.4357C48.9844 14.0529 47.793 12.8029 45.4883 12.8029L20.103 12.8029L16.6444 9.34587L45.9961 9.34587C49.9414 9.34587 52.4414 11.924 52.4414 16.006ZM30.2998 35.4006L19.5508 35.4006C18.9453 35.4006 18.4961 34.9709 18.4961 34.3459C18.4961 33.7013 18.9453 33.2717 19.5508 33.2717L28.1689 33.2717ZM8.37891 22.0217L8.37891 27.9787C8.37891 28.8967 7.67578 29.5998 6.75781 29.5998C5.85938 29.5998 5.15625 28.8967 5.15625 27.9787L5.15625 22.0217C5.15625 21.1232 5.85938 20.4201 6.75781 20.4201C7.67578 20.4201 8.37891 21.1232 8.37891 22.0217Z" fill="black" fill-opacity="0.85"/>
  <path d="M45.625 46.8849C46.2695 47.5295 47.3438 47.5099 47.9883 46.8849C48.6328 46.2404 48.6328 45.1662 47.9883 44.5217L6.81641 3.36931C6.19141 2.72478 5.11719 2.68572 4.45312 3.36931C3.80859 4.01384 3.80859 5.08806 4.45312 5.73259Z" fill="black" fill-opacity="0.85"/>
 </g>
</svg>
