<?xml version="1.0" encoding="UTF-8"?>
<!--Generator: Apple Native CoreSVG 326-->
<!DOCTYPE svg
PUBLIC "-//W3C//DTD SVG 1.1//EN"
       "http://www.w3.org/Graphics/SVG/1.1/DTD/svg11.dtd">
<svg version="1.1" xmlns="http://www.w3.org/2000/svg" xmlns:xlink="http://www.w3.org/1999/xlink" viewBox="0 0 51.25 50.918">
 <g>
  <rect height="50.918" opacity="0" width="51.25" x="0" y="0"/>
  <path d="M50.8789 25.4688C50.8789 39.4922 39.4531 50.918 25.4297 50.918C11.4258 50.918 0 39.4922 0 25.4688C0 11.4648 11.4258 0.0390625 25.4297 0.0390625C39.4531 0.0390625 50.8789 11.4648 50.8789 25.4688ZM20.4102 10.5469C18.0469 10.5469 16.543 11.9922 16.543 14.3164L16.543 36.6211C16.543 38.9453 18.0469 40.3906 20.4102 40.3906L30.4688 40.3906C32.832 40.3906 34.3555 38.9453 34.3555 36.6211L34.3555 14.3164C34.3555 12.0117 32.832 10.5469 30.4688 10.5469ZM32.2656 14.5898L32.2656 36.3672C32.2656 37.6367 31.582 38.3008 30.2539 38.3008L20.6641 38.3008C19.3359 38.3008 18.6523 37.6367 18.6523 36.3672L18.6523 14.5898C18.6523 13.3008 19.3164 12.6367 20.6641 12.6367L30.2539 12.6367C31.582 12.6367 32.2656 13.3008 32.2656 14.5898ZM22.5195 35.9766C22.1289 35.9766 21.8359 36.25 21.8359 36.6797C21.8359 37.0898 22.1094 37.3633 22.5195 37.3633L28.3984 37.3633C28.8086 37.3633 29.0625 37.0703 29.0625 36.6797C29.0625 36.2695 28.8086 35.9766 28.3984 35.9766ZM8.92578 17.7734C7.01172 19.8438 5.95703 22.5977 5.95703 25.4688C5.95703 28.3594 7.01172 31.1133 8.92578 33.1836C9.375 33.6328 9.98047 33.6328 10.3125 33.1836C10.6445 32.793 10.5469 32.3047 10.1758 31.8555C8.57422 30.0977 7.73438 27.8906 7.73438 25.4688C7.73438 23.0664 8.57422 20.8594 10.1758 19.1016C10.5469 18.6523 10.6445 18.1641 10.3125 17.7734C9.98047 17.3242 9.375 17.3242 8.92578 17.7734ZM40.5273 17.7734C40.1953 18.1641 40.3125 18.6523 40.6836 19.1016C42.2656 20.8594 43.125 23.0664 43.125 25.4688C43.125 27.8906 42.2656 30.0977 40.6836 31.8555C40.3125 32.3047 40.1953 32.793 40.5273 33.1836C40.8594 33.6328 41.4648 33.6328 41.9141 33.1836C43.8477 31.1133 44.9023 28.3594 44.9023 25.4688C44.9023 22.5977 43.8477 19.8438 41.9141 17.7734C41.4648 17.3242 40.8594 17.3242 40.5273 17.7734ZM12.5977 21.0156C11.5625 22.2461 10.9766 23.8086 10.9766 25.4688C10.9766 27.1484 11.5625 28.7109 12.5977 29.9219C12.9883 30.4102 13.6523 30.4102 14.0234 29.9805C14.3359 29.5703 14.2383 29.1016 13.8672 28.6328C13.1641 27.8125 12.793 26.7188 12.793 25.4688C12.793 24.2188 13.1641 23.1055 13.8672 22.3242C14.2383 21.8359 14.3359 21.3672 14.0234 20.9766C13.6523 20.5273 12.9883 20.5469 12.5977 21.0156ZM36.8359 20.9766C36.5039 21.3672 36.6211 21.8359 36.9922 22.3242C37.6758 23.1055 38.0469 24.2188 38.0469 25.4688C38.0469 26.7188 37.6758 27.8125 36.9922 28.6328C36.6211 29.1016 36.5039 29.5703 36.8359 29.9805C37.1875 30.4102 37.8516 30.4102 38.2617 29.9219C39.2969 28.7109 39.8633 27.1484 39.8633 25.4688C39.8633 23.8086 39.2969 22.2461 38.2617 21.0156C37.8516 20.5469 37.1875 20.5273 36.8359 20.9766ZM23.7109 13.7891C23.1641 13.7891 22.7734 14.1992 22.7734 14.7266C22.7734 15.2539 23.1641 15.6836 23.7109 15.6836L27.168 15.6836C27.7148 15.6836 28.1055 15.2539 28.1055 14.7266C28.1055 14.1992 27.7148 13.7891 27.168 13.7891Z" fill="black" fill-opacity="0.85"/>
 </g>
</svg>
