<?xml version="1.0" encoding="UTF-8"?>
<!--Generator: Apple Native CoreSVG 326-->
<!DOCTYPE svg
PUBLIC "-//W3C//DTD SVG 1.1//EN"
       "http://www.w3.org/Graphics/SVG/1.1/DTD/svg11.dtd">
<svg version="1.1" xmlns="http://www.w3.org/2000/svg" xmlns:xlink="http://www.w3.org/1999/xlink" viewBox="0 0 52.832 50.0785">
 <g>
  <rect height="50.0785" opacity="0" width="52.832" x="0" y="0"/>
  <path d="M7.68068 12.8029L6.99219 12.8029C4.6875 12.8029 3.49609 14.0529 3.49609 16.4357L3.49609 19.5802C3.49609 19.9513 3.69141 20.1467 4.0625 20.1467L4.57031 20.1467C5.54688 20.1467 6.21094 20.7912 6.21094 21.7677L6.21094 28.2131C6.21094 29.2092 5.54688 29.8342 4.57031 29.8342L4.0625 29.8342C3.69141 29.8342 3.49609 30.049 3.49609 30.4201L3.49609 33.5842C3.49609 35.9474 4.6875 37.1974 6.99219 37.1974L32.0984 37.1974L35.5587 40.6545L6.46484 40.6545C2.53906 40.6545 0 38.0763 0 33.9943L0 16.006C0 12.6653 1.70057 10.3319 4.47166 9.59693ZM52.4609 16.006L52.4609 33.9943C52.4609 37.4303 50.6896 39.8008 47.7713 40.458L44.5092 37.1974L45.5078 37.1974C47.8125 37.1974 49.0039 35.9474 49.0039 33.5842L49.0039 16.4357C49.0039 14.0529 47.8125 12.8029 45.5078 12.8029L20.103 12.8029L16.6444 9.34587L46.0156 9.34587C49.9609 9.34587 52.4609 11.924 52.4609 16.006ZM30.2998 35.4006L19.5703 35.4006C18.9648 35.4006 18.5156 34.9709 18.5156 34.3459C18.5156 33.7013 18.9648 33.2717 19.5703 33.2717L28.1689 33.2717Z" fill="black" fill-opacity="0.85"/>
  <path d="M45.625 46.8849C46.2695 47.5295 47.3438 47.5099 47.9883 46.8849C48.6328 46.2404 48.6328 45.1662 47.9883 44.5217L6.81641 3.36931C6.19141 2.72478 5.11719 2.68572 4.45312 3.36931C3.80859 4.01384 3.80859 5.08806 4.45312 5.73259Z" fill="black" fill-opacity="0.85"/>
 </g>
</svg>
