<?xml version="1.0" encoding="UTF-8"?>
<!--Generator: Apple Native CoreSVG 326-->
<!DOCTYPE svg
PUBLIC "-//W3C//DTD SVG 1.1//EN"
       "http://www.w3.org/Graphics/SVG/1.1/DTD/svg11.dtd">
<svg version="1.1" xmlns="http://www.w3.org/2000/svg" xmlns:xlink="http://www.w3.org/1999/xlink" viewBox="0 0 33.8867 31.3086">
 <g>
  <rect height="31.3086" opacity="0" width="33.8867" x="0" y="0"/>
  <path d="M0 25.5273C0 29.1211 2.12891 31.3086 5.52734 31.3086L27.9688 31.3086C31.3867 31.3086 33.5156 29.1211 33.5156 25.5273L33.5156 5.78125C33.5156 2.1875 31.3281 0 27.9688 0L5.52734 0C2.12891 0 0 2.1875 0 5.78125ZM3.45703 25.1367L3.45703 6.17188C3.45703 4.45312 4.43359 3.45703 6.07422 3.45703L27.4414 3.45703C29.082 3.45703 30.0391 4.45312 30.0391 6.17188L30.0391 25.1367C30.0391 26.8555 29.082 27.8516 27.4414 27.8516L6.07422 27.8516C4.43359 27.8516 3.45703 26.8555 3.45703 25.1367ZM16.7578 25C21.9336 25 26.1133 20.8203 26.1133 15.6445C26.1133 10.4688 21.9336 6.26953 16.7578 6.26953C11.582 6.26953 7.40234 10.4688 7.40234 15.6445C7.40234 20.8203 11.582 25 16.7578 25ZM16.7578 22.1875C13.1055 22.1875 10.1953 19.2969 10.1953 15.6445C10.1953 11.9922 13.1055 9.08203 16.7578 9.08203C20.4102 9.08203 23.3203 11.9922 23.3203 15.6445C23.3203 19.2969 20.4102 22.1875 16.7578 22.1875Z" fill="black" fill-opacity="0.85"/>
 </g>
</svg>
