<?xml version="1.0" encoding="UTF-8"?>
<!--Generator: Apple Native CoreSVG 326-->
<!DOCTYPE svg
PUBLIC "-//W3C//DTD SVG 1.1//EN"
       "http://www.w3.org/Graphics/SVG/1.1/DTD/svg11.dtd">
<svg version="1.1" xmlns="http://www.w3.org/2000/svg" xmlns:xlink="http://www.w3.org/1999/xlink" viewBox="0 0 36.4648 64.6289">
 <g>
  <rect height="64.6289" opacity="0" width="36.4648" x="0" y="0"/>
  <path d="M22.5 4.47266L22.5 4.74609L29.5312 4.74609C33.7109 4.74609 36.0938 7.16797 36.0938 11.4258L36.0938 46.7188C36.0938 50.957 33.7109 53.3984 29.5312 53.3984L19.3555 53.3984L19.3555 56.8945C19.3555 59.8438 20.8789 61.1523 23.8672 61.1523L34.5117 61.1523C35.3711 61.1523 36.0938 61.8555 36.0938 62.7539C36.0938 63.6133 35.3711 64.3164 34.5117 64.3164L23.8672 64.3164C19.1406 64.3164 16.1719 61.582 16.1719 56.8945L16.1719 53.3984L6.54297 53.3984C2.36328 53.3984 0 50.957 0 46.7188L0 11.4258C0 7.16797 2.36328 4.74609 6.54297 4.74609L13.5742 4.74609L13.5742 4.47266C13.5742 1.85547 15.3906 0.0195312 18.0469 0C20.6836 0.0195312 22.5 1.85547 22.5 4.47266ZM6.71875 8.32031C4.66797 8.32031 3.57422 9.45312 3.57422 11.4648L3.57422 46.6797C3.57422 48.7109 4.66797 49.8438 6.71875 49.8438L29.375 49.8438C31.4062 49.8438 32.5195 48.7109 32.5195 46.6797L32.5195 11.4648C32.5195 9.45312 31.4062 8.32031 29.375 8.32031ZM16.3867 4.51172C16.3867 5.42969 17.1094 6.19141 18.0469 6.19141C18.9648 6.19141 19.6875 5.42969 19.6875 4.51172C19.6875 3.57422 18.9648 2.83203 18.0469 2.83203C17.1094 2.83203 16.3867 3.57422 16.3867 4.51172Z" fill="black" fill-opacity="0.85"/>
  <path d="M28.8281 17.0117L28.8281 43.6914C28.8281 45.1562 27.832 46.1133 26.3477 46.1133L9.78516 46.1133C8.28125 46.1133 7.28516 45.1562 7.28516 43.6914L7.28516 17.0117C7.28516 15.5469 8.28125 14.5703 9.78516 14.5703L26.3477 14.5703C27.832 14.5703 28.8281 15.5469 28.8281 17.0117ZM14.8633 39.0234C14.1992 39.0234 13.75 39.5117 13.75 40.1367C13.75 40.7617 14.1992 41.25 14.8633 41.25L21.2695 41.25C21.9141 41.25 22.3828 40.7617 22.3828 40.1367C22.3828 39.5117 21.9141 39.0234 21.2695 39.0234ZM13.0078 33.9258C12.3438 33.9258 11.875 34.4141 11.875 35.0391C11.875 35.6641 12.3438 36.1523 13.0078 36.1523L23.2422 36.1523C23.8867 36.1523 24.3555 35.6641 24.3555 35.0391C24.3555 34.4141 23.8867 33.9258 23.2422 33.9258ZM17.4023 19.2188L15.3125 23.1055C14.707 24.1797 14.082 25.3711 14.082 26.582C14.082 28.7695 15.8984 30.4492 18.0469 30.4492C20.2148 30.4492 21.9922 28.7695 21.9922 26.582C21.9922 25.3711 21.3672 24.1797 20.7617 23.1055L18.6914 19.2383C18.3008 18.4961 17.793 18.5156 17.4023 19.2188Z" fill="black" fill-opacity="0.85"/>
 </g>
</svg>
