<?xml version="1.0" encoding="UTF-8"?>
<!--Generator: Apple Native CoreSVG 326-->
<!DOCTYPE svg
PUBLIC "-//W3C//DTD SVG 1.1//EN"
       "http://www.w3.org/Graphics/SVG/1.1/DTD/svg11.dtd">
<svg version="1.1" xmlns="http://www.w3.org/2000/svg" xmlns:xlink="http://www.w3.org/1999/xlink" viewBox="0 0 53.1055 51.8164">
 <g>
  <rect height="51.8164" opacity="0" width="53.1055" x="0" y="0"/>
  <path d="M52.7344 18.8281L52.7344 44.2773C52.7344 49.2773 50.1953 51.8164 45.1367 51.8164L19.8242 51.8164C14.7852 51.8164 12.2266 49.2578 12.2266 44.2773L12.2266 40.5859L15.6836 40.5859L15.6836 44.1016C15.6836 46.9141 17.2266 48.3594 19.9023 48.3594L45.0781 48.3594C47.793 48.3594 49.2773 46.9141 49.2773 44.1016L49.2773 19.0039C49.2773 16.1914 47.793 14.7461 45.0781 14.7461L40.5273 14.7461L40.5273 11.2891L45.1367 11.2891C50.1953 11.2891 52.7344 13.8281 52.7344 18.8281Z" fill="black" fill-opacity="0.85"/>
  <path d="M32.9102 0.0585938L7.59766 0.0585938C2.55859 0.0585938 0 2.61719 0 7.57812L0 33.0469C0 38.0273 2.55859 40.5859 7.59766 40.5859L32.9102 40.5859C37.9688 40.5859 40.5273 38.0469 40.5273 33.0469L40.5273 7.57812C40.5273 2.59766 37.9688 0.0585938 32.9102 0.0585938ZM32.8516 3.51562C35.5664 3.51562 37.0508 4.96094 37.0508 7.77344L37.0508 32.8711C37.0508 35.6836 35.5664 37.1289 32.8516 37.1289L7.67578 37.1289C5 37.1289 3.45703 35.6836 3.45703 32.8711L3.45703 7.77344C3.45703 4.96094 5 3.51562 7.67578 3.51562Z" fill="black" fill-opacity="0.85"/>
  <path d="M19.1406 32.0117C23.8281 32.0117 26.3867 29.3945 26.3867 24.8242L26.3867 10.4102C26.3867 9.21875 25.7812 8.47656 24.6484 8.47656C23.5547 8.47656 22.9492 9.25781 22.9492 10.4102L22.9492 24.7852C22.9492 27.4219 21.543 29.043 19.2969 29.043C17.2656 29.043 15.8203 27.9297 15.2734 26.1328C14.9219 25.3125 14.4336 24.9609 13.6914 24.9609C12.7344 24.9609 12.0898 25.6055 12.0898 26.5625C12.0898 26.9336 12.1484 27.2656 12.2656 27.6367C13.0469 30.2344 15.7227 32.0117 19.1406 32.0117Z" fill="black" fill-opacity="0.85"/>
 </g>
</svg>
