<?xml version="1.0" encoding="UTF-8"?>
<!--Generator: Apple Native CoreSVG 326-->
<!DOCTYPE svg
PUBLIC "-//W3C//DTD SVG 1.1//EN"
       "http://www.w3.org/Graphics/SVG/1.1/DTD/svg11.dtd">
<svg version="1.1" xmlns="http://www.w3.org/2000/svg" xmlns:xlink="http://www.w3.org/1999/xlink" viewBox="0 0 59.3359 57.9102">
 <g>
  <rect height="57.9102" opacity="0" width="59.3359" x="0" y="0"/>
  <path d="M55.8594 21.875L55.8594 47.3242C55.8594 52.3242 53.3008 54.8633 48.2422 54.8633L22.9492 54.8633C17.9102 54.8633 15.332 52.3047 15.332 47.3242L15.332 46.7383L36.0352 46.7383C42.793 46.7383 46.7383 42.832 46.7383 36.0938L46.7383 14.3359L48.2422 14.3359C53.3008 14.3359 55.8594 16.875 55.8594 21.875Z" fill="black" fill-opacity="0.85"/>
  <path d="M43.6328 10.625L43.6328 36.0938C43.6328 41.0938 41.0742 43.6328 36.0352 43.6328L10.7227 43.6328C5.68359 43.6328 3.10547 41.0742 3.10547 36.0938L3.10547 10.625C3.10547 5.66406 5.68359 3.10547 10.7227 3.10547L36.0352 3.10547C41.0742 3.10547 43.6328 5.64453 43.6328 10.625ZM26.1133 13.2031L26.1133 27.9297C26.1133 30.625 24.668 32.2852 22.3828 32.2852C20.3125 32.2852 18.8477 31.1523 18.2812 29.3164C17.9102 28.4766 17.4023 28.1055 16.6406 28.1055C15.6445 28.1055 14.9805 28.7695 14.9805 29.7852C14.9805 30.1562 15.0391 30.5078 15.1758 30.8789C15.9766 33.5547 18.7109 35.3516 22.2266 35.3516C27.0312 35.3516 29.668 32.6758 29.668 27.9688L29.668 13.2031C29.668 11.9922 29.043 11.2305 27.8711 11.2305C26.7383 11.2305 26.1133 12.0312 26.1133 13.2031Z" fill="black" fill-opacity="0.85"/>
 </g>
</svg>
