<?xml version="1.0" encoding="UTF-8"?>
<!--Generator: Apple Native CoreSVG 326-->
<!DOCTYPE svg
PUBLIC "-//W3C//DTD SVG 1.1//EN"
       "http://www.w3.org/Graphics/SVG/1.1/DTD/svg11.dtd">
<svg version="1.1" xmlns="http://www.w3.org/2000/svg" xmlns:xlink="http://www.w3.org/1999/xlink" viewBox="0 0 51.25 50.918">
 <g>
  <rect height="50.918" opacity="0" width="51.25" x="0" y="0"/>
  <path d="M25.4297 50.8789C39.4727 50.8789 50.8789 39.4922 50.8789 25.4492C50.8789 11.4062 39.4727 0 25.4297 0C11.3867 0 0 11.4062 0 25.4492C0 39.4922 11.3867 50.8789 25.4297 50.8789ZM25.4297 47.2461C13.3789 47.2461 3.63281 37.5 3.63281 25.4492C3.63281 13.3984 13.3789 3.65234 25.4297 3.65234C37.4805 3.65234 47.2266 13.3984 47.2266 25.4492C47.2266 37.5 37.4805 47.2461 25.4297 47.2461Z" fill="black" fill-opacity="0.85"/>
  <path d="M18.8281 36.9336C19.9414 36.9336 20.5664 36.2109 20.5664 35.0195L20.5664 29.2188L23.7305 25.9766L31.4258 36.0547C31.8945 36.6602 32.3438 36.9141 32.9688 36.9141C33.9453 36.9141 34.6289 36.25 34.6289 35.293C34.6289 34.8438 34.4336 34.375 34.1406 33.9453L26.25 23.7305L33.4961 16.3086C33.8867 15.918 34.043 15.5469 34.043 15.0781C34.043 14.2578 33.3398 13.6133 32.4609 13.6133C31.8945 13.6133 31.5234 13.7891 31.0352 14.2969L20.7031 24.7852L20.5664 24.7852L20.5664 15.5273C20.5664 14.3164 19.9414 13.6133 18.8281 13.6133C17.7734 13.6133 17.1289 14.3164 17.1289 15.5273L17.1289 35.0195C17.1289 36.2109 17.7734 36.9336 18.8281 36.9336Z" fill="black" fill-opacity="0.85"/>
 </g>
</svg>
