<?xml version="1.0" encoding="UTF-8"?>
<!--Generator: Apple Native CoreSVG 326-->
<!DOCTYPE svg
PUBLIC "-//W3C//DTD SVG 1.1//EN"
       "http://www.w3.org/Graphics/SVG/1.1/DTD/svg11.dtd">
<svg version="1.1" xmlns="http://www.w3.org/2000/svg" xmlns:xlink="http://www.w3.org/1999/xlink" viewBox="0 0 51.25 50.918">
 <g>
  <rect height="50.918" opacity="0" width="51.25" x="0" y="0"/>
  <path d="M50.8789 25.4492C50.8789 39.4531 39.4531 50.8789 25.4297 50.8789C11.4258 50.8789 0 39.4531 0 25.4492C0 11.4258 11.4258 0 25.4297 0C39.4531 0 50.8789 11.4258 50.8789 25.4492ZM31.1914 14.0234L20.625 24.7461L20.4883 24.7461L20.4883 15.3125C20.4883 14.043 19.8438 13.3008 18.6914 13.3008C17.5977 13.3008 16.9336 14.043 16.9336 15.3125L16.9336 35.2344C16.9336 36.4844 17.5977 37.2266 18.6914 37.2266C19.8438 37.2266 20.4883 36.4844 20.4883 35.2344L20.4883 29.3359L23.7305 26.0156L31.582 36.3086C32.0703 36.9336 32.5391 37.207 33.1836 37.207C34.1992 37.207 34.9219 36.5234 34.9219 35.5273C34.9219 35.0586 34.6875 34.5898 34.3945 34.1406L26.3281 23.6914L33.7305 16.1133C34.1406 15.7031 34.2969 15.332 34.2969 14.8438C34.2969 13.9844 33.5742 13.3008 32.6562 13.3008C32.0898 13.3008 31.7188 13.5156 31.1914 14.0234Z" fill="black" fill-opacity="0.85"/>
 </g>
</svg>
