<?xml version="1.0" encoding="UTF-8"?>
<!--Generator: Apple Native CoreSVG 326-->
<!DOCTYPE svg
PUBLIC "-//W3C//DTD SVG 1.1//EN"
       "http://www.w3.org/Graphics/SVG/1.1/DTD/svg11.dtd">
<svg version="1.1" xmlns="http://www.w3.org/2000/svg" xmlns:xlink="http://www.w3.org/1999/xlink" viewBox="0 0 62.4289 32.9883">
 <g>
  <rect height="32.9883" opacity="0" width="62.4289" x="0" y="0"/>
  <path d="M0.618754 15C-0.142965 15.8984-0.260153 17.1094 0.599222 17.9688L8.37266 25.7422C9.2125 26.582 10.5016 26.543 11.3219 25.7227L15.482 21.5625L21.4195 27.5195C22.2398 28.3398 23.5289 28.3008 24.3883 27.4609L30.0719 21.8164C33.2945 28.9453 38.9195 32.9492 45.6188 32.9492C54.7203 32.9492 62.0641 25.5859 62.0641 16.4844C62.0641 7.32422 54.7594 0 45.6188 0C38.9391 0 33.0016 3.88672 30.443 10.0195L6.49766 10.0195C5.75547 10.0195 4.8961 10.2344 4.32969 10.8984ZM4.01719 16.4844L7.00547 13.4766L32.9234 13.4766C34.3492 7.55859 39.5055 3.45703 45.6188 3.45703C52.7867 3.45703 58.5875 9.25781 58.5875 16.4844C58.5875 23.6914 52.8063 29.4727 45.6188 29.4727C39.5641 29.4727 34.3492 25.3516 32.65 18.6523L28.275 18.6523L22.8844 24.043L17.2984 18.3984L13.7242 18.3984L9.87657 22.2656ZM46.5367 16.4844C46.5367 18.6914 48.3336 20.4883 50.5602 20.4883C52.7672 20.4883 54.5445 18.6914 54.5445 16.4844C54.5445 14.2383 52.7672 12.4805 50.5602 12.4805C48.3336 12.4805 46.5367 14.2578 46.5367 16.4844Z" fill="black" fill-opacity="0.85"/>
 </g>
</svg>
