<?xml version="1.0" encoding="UTF-8"?>
<!--Generator: Apple Native CoreSVG 326-->
<!DOCTYPE svg
PUBLIC "-//W3C//DTD SVG 1.1//EN"
       "http://www.w3.org/Graphics/SVG/1.1/DTD/svg11.dtd">
<svg version="1.1" xmlns="http://www.w3.org/2000/svg" xmlns:xlink="http://www.w3.org/1999/xlink" viewBox="0 0 49.0039 48.6914">
 <g>
  <rect height="48.6914" opacity="0" width="49.0039" x="0" y="0"/>
  <path d="M1.73828 15.7031C2.85156 15.7031 3.45703 15.0586 3.45703 13.9453L3.45703 7.77344C3.45703 4.96094 4.94141 3.51562 7.67578 3.51562L13.9648 3.51562C15.0781 3.51562 15.7227 2.89062 15.7227 1.79688C15.7227 0.683594 15.0781 0.0585938 13.9648 0.0585938L7.59766 0.0585938C2.55859 0.0585938 0 2.57812 0 7.57812L0 13.9453C0 15.0586 0.625 15.7031 1.73828 15.7031ZM46.8945 15.7031C48.0273 15.7031 48.6328 15.0586 48.6328 13.9453L48.6328 7.57812C48.6328 2.61719 46.0938 0.0585938 41.0352 0.0585938L34.668 0.0585938C33.5547 0.0585938 32.9102 0.683594 32.9102 1.79688C32.9102 2.89062 33.5547 3.51562 34.668 3.51562L40.957 3.51562C43.6328 3.51562 45.1758 4.96094 45.1758 7.77344L45.1758 13.9453C45.1758 15.0586 45.8008 15.7031 46.8945 15.7031ZM7.59766 48.6914L13.9648 48.6914C15.0781 48.6914 15.7227 48.0664 15.7227 46.9531C15.7227 45.8594 15.0781 45.2344 13.9648 45.2344L7.67578 45.2344C4.94141 45.2344 3.45703 43.7891 3.45703 40.9766L3.45703 34.8047C3.45703 33.6914 2.83203 33.0469 1.73828 33.0469C0.605469 33.0469 0 33.6914 0 34.8047L0 41.1719C0 46.1719 2.55859 48.6914 7.59766 48.6914ZM34.668 48.6914L41.0352 48.6914C46.0938 48.6914 48.6328 46.1328 48.6328 41.1719L48.6328 34.8047C48.6328 33.6914 48.0078 33.0469 46.8945 33.0469C45.7812 33.0469 45.1758 33.6914 45.1758 34.8047L45.1758 40.9766C45.1758 43.7891 43.6328 45.2344 40.957 45.2344L34.668 45.2344C33.5547 45.2344 32.9102 45.8594 32.9102 46.9531C32.9102 48.0664 33.5547 48.6914 34.668 48.6914Z" fill="black" fill-opacity="0.85"/>
  <path d="M24.3359 8.92578C19.707 8.92578 16.0352 12.6367 16.0352 17.207C16.0352 20.7422 18.125 23.7891 21.3672 25.0195L21.3672 38.0078C21.3867 38.3203 21.4844 38.5742 21.7188 38.8086L23.9062 40.9766C24.1602 41.2305 24.4922 41.25 24.7461 40.9766L28.9062 36.875C29.1797 36.6016 29.1797 36.25 28.9062 36.0156L26.2891 33.3789L29.8828 29.8438C30.1172 29.6289 30.0977 29.2578 29.8242 29.0039L26.2695 25.3906C30.3516 23.7891 32.6367 20.8203 32.6367 17.207C32.6367 12.6562 28.9258 8.92578 24.3359 8.92578ZM24.3164 12.793C25.7227 12.793 26.8555 13.9453 26.8555 15.3516C26.8555 16.7773 25.7227 17.9297 24.3164 17.9297C22.9297 17.9297 21.7578 16.7773 21.7578 15.3516C21.7578 13.9453 22.8906 12.793 24.3164 12.793Z" fill="black" fill-opacity="0.85"/>
 </g>
</svg>
