<?xml version="1.0" encoding="UTF-8"?>
<!--Generator: Apple Native CoreSVG 326-->
<!DOCTYPE svg
PUBLIC "-//W3C//DTD SVG 1.1//EN"
       "http://www.w3.org/Graphics/SVG/1.1/DTD/svg11.dtd">
<svg version="1.1" xmlns="http://www.w3.org/2000/svg" xmlns:xlink="http://www.w3.org/1999/xlink" viewBox="0 0 58.1445 53.8477">
 <g>
  <rect height="53.8477" opacity="0" width="58.1445" x="0" y="0"/>
  <path d="M50.2344 44.1406C51.0352 44.6875 52.0117 44.5117 52.5977 43.6914C55.8203 39.3164 57.7734 33.1641 57.7734 26.9141C57.7734 20.6445 55.8398 14.4531 52.5977 10.1367C52.0117 9.31641 51.0352 9.12109 50.2344 9.66797C49.4336 10.2148 49.3164 11.2109 49.9414 12.1094C52.8125 16.0938 54.4336 21.3867 54.4336 26.9141C54.4336 32.4414 52.7734 37.7148 49.9414 41.7188C49.3359 42.5977 49.4336 43.6133 50.2344 44.1406Z" fill="black" fill-opacity="0.85"/>
  <path d="M41.2109 37.5586C41.9531 38.0664 42.9492 37.8906 43.5352 37.0703C45.4688 34.5312 46.6602 30.8398 46.6602 26.9141C46.6602 22.9688 45.4688 19.2969 43.5352 16.7383C42.9492 15.918 41.9531 15.7617 41.2109 16.2695C40.3516 16.875 40.1953 17.9297 40.8789 18.8281C42.4805 21.0156 43.3203 23.8086 43.3203 26.9141C43.3203 30 42.4609 32.7734 40.8789 35C40.2148 35.8984 40.3516 36.9336 41.2109 37.5586Z" fill="black" fill-opacity="0.85"/>
  <path d="M0 46.4453C0 50.4883 2.44141 53.8477 8.125 53.8477L24.1602 53.8477C29.8438 53.8477 32.2852 50.4883 32.2852 46.4453L32.2852 7.42188C32.2852 3.37891 29.8438 0.0195312 24.1602 0.0195312L8.125 0.0195312C2.44141 0.0195312 0 3.37891 0 7.42188ZM6.69922 9.21875C6.34766 9.21875 6.03516 8.90625 6.03516 8.55469L6.03516 7.71484C6.03516 6.69922 6.91406 5.83984 7.92969 5.83984L24.3555 5.83984C25.3711 5.83984 26.2305 6.69922 26.2305 7.71484L26.2305 8.55469C26.2305 8.90625 25.9375 9.21875 25.5664 9.21875ZM16.1523 16.4258C20.332 16.4258 23.7305 19.8047 23.7305 23.9648C23.7305 27.207 21.7188 29.8828 18.1445 31.3477L21.1914 34.4336C21.4453 34.707 21.4453 35.0977 21.2109 35.3516L18.1055 38.4766L20.3711 40.6836C20.6055 40.9766 20.6445 41.3672 20.3711 41.6602L16.6406 45.3516C16.3281 45.6055 15.918 45.5664 15.6836 45.3516L13.7305 43.3789C13.5156 43.125 13.418 42.9102 13.418 42.5977L13.418 31.0352C10.4492 29.9023 8.57422 27.1289 8.57422 23.9648C8.57422 19.7656 11.9336 16.4258 16.1523 16.4258ZM16.1328 23.8086C17.3047 23.8086 18.2812 22.8516 18.2812 21.6797C18.2812 20.4883 17.3047 19.5312 16.1328 19.5312C14.9219 19.5312 13.9844 20.4883 13.9844 21.6797C13.9844 22.8516 14.9609 23.8086 16.1328 23.8086Z" fill="black" fill-opacity="0.85"/>
 </g>
</svg>
