<?xml version="1.0" encoding="UTF-8"?>
<!--Generator: Apple Native CoreSVG 326-->
<!DOCTYPE svg
PUBLIC "-//W3C//DTD SVG 1.1//EN"
       "http://www.w3.org/Graphics/SVG/1.1/DTD/svg11.dtd">
<svg version="1.1" xmlns="http://www.w3.org/2000/svg" xmlns:xlink="http://www.w3.org/1999/xlink" viewBox="0 0 63.2812 66.0352">
 <g>
  <rect height="66.0352" opacity="0" width="63.2812" x="0" y="0"/>
  <path d="M7.59766 52.6758L55.3125 52.6758C60.3516 52.6758 62.9102 50.1172 62.9102 45.1367L62.9102 20.8398C62.9102 15.8594 60.3516 13.3008 55.3125 13.3008L7.59766 13.3008C2.53906 13.3008 0 15.8398 0 20.8398L0 45.1367C0 50.1367 2.53906 52.6758 7.59766 52.6758ZM7.67578 49.2188C4.94141 49.2188 3.45703 47.7539 3.45703 44.9609L3.45703 21.0156C3.45703 18.2227 4.94141 16.7773 7.67578 16.7773L55.2344 16.7773C57.9102 16.7773 59.4531 18.2227 59.4531 21.0156L59.4531 44.9609C59.4531 47.7539 57.9102 49.2188 55.2344 49.2188ZM10 27.0312L12.207 27.0312C12.8906 27.0312 13.3008 26.6211 13.3008 25.9375L13.3008 23.7305C13.3008 23.0469 12.8906 22.6172 12.207 22.6172L10 22.6172C9.31641 22.6172 8.90625 23.0469 8.90625 23.7305L8.90625 25.9375C8.90625 26.6211 9.31641 27.0312 10 27.0312ZM18.1055 27.0312L20.3125 27.0312C20.9961 27.0312 21.4258 26.6211 21.4258 25.9375L21.4258 23.7305C21.4258 23.0469 20.9961 22.6172 20.3125 22.6172L18.1055 22.6172C17.4219 22.6172 17.0117 23.0469 17.0117 23.7305L17.0117 25.9375C17.0117 26.6211 17.4219 27.0312 18.1055 27.0312ZM26.2109 27.0312L28.418 27.0312C29.1016 27.0312 29.5312 26.6211 29.5312 25.9375L29.5312 23.7305C29.5312 23.0469 29.1016 22.6172 28.418 22.6172L26.2109 22.6172C25.5273 22.6172 25.1172 23.0469 25.1172 23.7305L25.1172 25.9375C25.1172 26.6211 25.5273 27.0312 26.2109 27.0312ZM34.3164 27.0312L36.5234 27.0312C37.207 27.0312 37.6367 26.6211 37.6367 25.9375L37.6367 23.7305C37.6367 23.0469 37.207 22.6172 36.5234 22.6172L34.3164 22.6172C33.6328 22.6172 33.2227 23.0469 33.2227 23.7305L33.2227 25.9375C33.2227 26.6211 33.6328 27.0312 34.3164 27.0312ZM42.4219 27.0312L44.6289 27.0312C45.332 27.0312 45.7422 26.6211 45.7422 25.9375L45.7422 23.7305C45.7422 23.0469 45.332 22.6172 44.6289 22.6172L42.4219 22.6172C41.7383 22.6172 41.3281 23.0469 41.3281 23.7305L41.3281 25.9375C41.3281 26.6211 41.7383 27.0312 42.4219 27.0312ZM50.5273 27.0312L52.7344 27.0312C53.4375 27.0312 53.8477 26.6211 53.8477 25.9375L53.8477 23.7305C53.8477 23.0469 53.4375 22.6172 52.7344 22.6172L50.5273 22.6172C49.8438 22.6172 49.4336 23.0469 49.4336 23.7305L49.4336 25.9375C49.4336 26.6211 49.8438 27.0312 50.5273 27.0312ZM10 35.1367L12.207 35.1367C12.8906 35.1367 13.3008 34.7266 13.3008 34.043L13.3008 31.8359C13.3008 31.1523 12.8906 30.7422 12.207 30.7422L10 30.7422C9.31641 30.7422 8.90625 31.1523 8.90625 31.8359L8.90625 34.043C8.90625 34.7266 9.31641 35.1367 10 35.1367ZM18.1055 35.1367L20.3125 35.1367C20.9961 35.1367 21.4258 34.7266 21.4258 34.043L21.4258 31.8359C21.4258 31.1523 20.9961 30.7422 20.3125 30.7422L18.1055 30.7422C17.4219 30.7422 17.0117 31.1523 17.0117 31.8359L17.0117 34.043C17.0117 34.7266 17.4219 35.1367 18.1055 35.1367ZM26.2109 35.1367L28.418 35.1367C29.1016 35.1367 29.5312 34.7266 29.5312 34.043L29.5312 31.8359C29.5312 31.1523 29.1016 30.7422 28.418 30.7422L26.2109 30.7422C25.5273 30.7422 25.1172 31.1523 25.1172 31.8359L25.1172 34.043C25.1172 34.7266 25.5273 35.1367 26.2109 35.1367ZM34.3164 35.1367L36.5234 35.1367C37.207 35.1367 37.6367 34.7266 37.6367 34.043L37.6367 31.8359C37.6367 31.1523 37.207 30.7422 36.5234 30.7422L34.3164 30.7422C33.6328 30.7422 33.2227 31.1523 33.2227 31.8359L33.2227 34.043C33.2227 34.7266 33.6328 35.1367 34.3164 35.1367ZM42.4219 35.1367L44.6289 35.1367C45.332 35.1367 45.7422 34.7266 45.7422 34.043L45.7422 31.8359C45.7422 31.1523 45.332 30.7422 44.6289 30.7422L42.4219 30.7422C41.7383 30.7422 41.3281 31.1523 41.3281 31.8359L41.3281 34.043C41.3281 34.7266 41.7383 35.1367 42.4219 35.1367ZM50.5273 35.1367L52.7344 35.1367C53.4375 35.1367 53.8477 34.7266 53.8477 34.043L53.8477 31.8359C53.8477 31.1523 53.4375 30.7422 52.7344 30.7422L50.5273 30.7422C49.8438 30.7422 49.4336 31.1523 49.4336 31.8359L49.4336 34.043C49.4336 34.7266 49.8438 35.1367 50.5273 35.1367ZM10 43.2617L12.207 43.2617C12.8906 43.2617 13.3008 42.832 13.3008 42.1484L13.3008 39.9414C13.3008 39.2578 12.8906 38.8477 12.207 38.8477L10 38.8477C9.31641 38.8477 8.90625 39.2578 8.90625 39.9414L8.90625 42.1484C8.90625 42.832 9.31641 43.2617 10 43.2617ZM18.3008 43.2617L44.4336 43.2617C45.2539 43.2617 45.7422 42.7734 45.7422 41.9531L45.7422 40.1367C45.7422 39.3164 45.2539 38.8477 44.4336 38.8477L18.3008 38.8477C17.4805 38.8477 17.0117 39.3164 17.0117 40.1367L17.0117 41.9531C17.0117 42.7734 17.4805 43.2617 18.3008 43.2617ZM50.5273 43.2617L52.7344 43.2617C53.4375 43.2617 53.8477 42.832 53.8477 42.1484L53.8477 39.9414C53.8477 39.2578 53.4375 38.8477 52.7344 38.8477L50.5273 38.8477C49.8438 38.8477 49.4336 39.2578 49.4336 39.9414L49.4336 42.1484C49.4336 42.832 49.8438 43.2617 50.5273 43.2617Z" fill="black" fill-opacity="0.85"/>
  <path d="M31.4648 66.0352C32.2852 66.0352 33.3398 65.5859 34.1992 65.293L47.7148 60.1562C48.5547 59.8633 48.8672 59.1211 48.8672 58.6328C48.8672 57.6172 48.1445 56.7578 47.0117 56.7578C46.5039 56.7578 45.7422 57.0508 45.2539 57.2266L30.1953 62.9883L32.7539 62.9883L17.6758 57.2266C17.1875 57.0508 16.4648 56.7578 15.918 56.7578C14.8633 56.7578 14.082 57.5781 14.082 58.6328C14.082 59.1211 14.375 59.8633 15.2148 60.1562L28.75 65.293C29.6289 65.6055 30.6445 66.0352 31.4648 66.0352Z" fill="black" fill-opacity="0.85"/>
 </g>
</svg>
