<?xml version="1.0" encoding="UTF-8"?>
<!--Generator: Apple Native CoreSVG 326-->
<!DOCTYPE svg
PUBLIC "-//W3C//DTD SVG 1.1//EN"
       "http://www.w3.org/Graphics/SVG/1.1/DTD/svg11.dtd">
<svg version="1.1" xmlns="http://www.w3.org/2000/svg" xmlns:xlink="http://www.w3.org/1999/xlink" viewBox="0 0 63.2812 39.4336">
 <g>
  <rect height="39.4336" opacity="0" width="63.2812" x="0" y="0"/>
  <path d="M7.59766 39.375L55.3125 39.375C60.3516 39.375 62.9102 36.8164 62.9102 31.8359L62.9102 7.53906C62.9102 2.55859 60.3516 0 55.3125 0L7.59766 0C2.53906 0 0 2.53906 0 7.53906L0 31.8359C0 36.8359 2.53906 39.375 7.59766 39.375ZM7.67578 35.918C4.94141 35.918 3.45703 34.4531 3.45703 31.6602L3.45703 7.71484C3.45703 4.92188 4.94141 3.47656 7.67578 3.47656L55.2344 3.47656C57.9102 3.47656 59.4531 4.92188 59.4531 7.71484L59.4531 31.6602C59.4531 34.4531 57.9102 35.918 55.2344 35.918Z" fill="black" fill-opacity="0.85"/>
  <path d="M23.8086 13.6133L25.5469 13.6133C25.9961 13.6133 26.2305 13.3398 26.2305 12.832L26.2305 10.2344C26.2305 9.72656 25.9961 9.45312 25.5469 9.45312L23.8086 9.45312C23.3594 9.45312 23.1055 9.72656 23.1055 10.2344L23.1055 12.832C23.1055 13.3398 23.3594 13.6133 23.8086 13.6133ZM29.3359 13.6133L31.0742 13.6133C31.5234 13.6133 31.7773 13.3398 31.7773 12.832L31.7773 10.2344C31.7773 9.72656 31.5234 9.45312 31.0742 9.45312L29.3359 9.45312C28.8867 9.45312 28.6328 9.72656 28.6328 10.2344L28.6328 12.832C28.6328 13.3398 28.8867 13.6133 29.3359 13.6133ZM34.8828 13.6133L36.6211 13.6133C37.0508 13.6133 37.3047 13.3398 37.3047 12.832L37.3047 10.2344C37.3047 9.72656 37.0508 9.45312 36.6211 9.45312L34.8828 9.45312C34.4336 9.45312 34.1602 9.72656 34.1602 10.2344L34.1602 12.832C34.1602 13.3398 34.4336 13.6133 34.8828 13.6133ZM40.3906 13.6133L42.1289 13.6133C42.5586 13.6133 42.832 13.3398 42.832 12.832L42.832 10.2344C42.832 9.72656 42.5586 9.45312 42.1289 9.45312L40.3906 9.45312C39.9414 9.45312 39.6875 9.72656 39.6875 10.2344L39.6875 12.832C39.6875 13.3398 39.9414 13.6133 40.3906 13.6133ZM45.8984 13.6133L47.6758 13.6133C48.1055 13.6133 48.3594 13.3398 48.3594 12.832L48.3594 10.2344C48.3594 9.72656 48.1055 9.45312 47.6758 9.45312L45.8984 9.45312C45.4688 9.45312 45.2148 9.72656 45.2148 10.2344L45.2148 12.832C45.2148 13.3398 45.4688 13.6133 45.8984 13.6133ZM51.4648 13.6133L53.1836 13.6133C53.6328 13.6133 53.8867 13.3398 53.8867 12.832L53.8867 10.2344C53.8867 9.72656 53.6328 9.45312 53.1836 9.45312L51.4648 9.45312C50.9961 9.45312 50.7617 9.72656 50.7617 10.2344L50.7617 12.832C50.7617 13.3398 50.9961 13.6133 51.4648 13.6133ZM23.8086 21.7188L25.5469 21.7188C25.9961 21.7188 26.2305 21.4453 26.2305 20.9375L26.2305 18.3398C26.2305 17.832 25.9961 17.5586 25.5469 17.5586L23.8086 17.5586C23.3594 17.5586 23.1055 17.832 23.1055 18.3398L23.1055 20.9375C23.1055 21.4453 23.3594 21.7188 23.8086 21.7188ZM29.3359 21.7188L31.0742 21.7188C31.5234 21.7188 31.7773 21.4453 31.7773 20.9375L31.7773 18.3398C31.7773 17.832 31.5234 17.5586 31.0742 17.5586L29.3359 17.5586C28.8867 17.5586 28.6328 17.832 28.6328 18.3398L28.6328 20.9375C28.6328 21.4453 28.8867 21.7188 29.3359 21.7188ZM34.8828 21.7188L36.6211 21.7188C37.0508 21.7188 37.3047 21.4453 37.3047 20.9375L37.3047 18.3398C37.3047 17.832 37.0508 17.5586 36.6211 17.5586L34.8828 17.5586C34.4336 17.5586 34.1602 17.832 34.1602 18.3398L34.1602 20.9375C34.1602 21.4453 34.4336 21.7188 34.8828 21.7188ZM40.3906 21.7188L42.1289 21.7188C42.5586 21.7188 42.832 21.4453 42.832 20.9375L42.832 18.3398C42.832 17.832 42.5586 17.5586 42.1289 17.5586L40.3906 17.5586C39.9414 17.5586 39.6875 17.832 39.6875 18.3398L39.6875 20.9375C39.6875 21.4453 39.9414 21.7188 40.3906 21.7188ZM45.8984 21.7188L47.6758 21.7188C48.1055 21.7188 48.3594 21.4453 48.3594 20.9375L48.3594 18.3398C48.3594 17.832 48.1055 17.5586 47.6758 17.5586L45.8984 17.5586C45.4688 17.5586 45.2148 17.832 45.2148 18.3398L45.2148 20.9375C45.2148 21.4453 45.4688 21.7188 45.8984 21.7188ZM51.4648 21.7188L53.1836 21.7188C53.6328 21.7188 53.8867 21.4453 53.8867 20.9375L53.8867 18.3398C53.8867 17.832 53.6328 17.5586 53.1836 17.5586L51.4648 17.5586C50.9961 17.5586 50.7617 17.832 50.7617 18.3398L50.7617 20.9375C50.7617 21.4453 50.9961 21.7188 51.4648 21.7188ZM23.8086 29.8242L25.5469 29.8242C25.9961 29.8242 26.2305 29.5508 26.2305 29.043L26.2305 26.4453C26.2305 25.9375 25.9961 25.6641 25.5469 25.6641L23.8086 25.6641C23.3594 25.6641 23.1055 25.9375 23.1055 26.4453L23.1055 29.043C23.1055 29.5508 23.3594 29.8242 23.8086 29.8242ZM29.3359 29.8242L47.6758 29.8242C48.1055 29.8242 48.3594 29.5508 48.3594 29.043L48.3594 26.4453C48.3594 25.9375 48.1055 25.6641 47.6758 25.6641L29.3359 25.6641C28.8867 25.6641 28.6328 25.9375 28.6328 26.4453L28.6328 29.043C28.6328 29.5508 28.8867 29.8242 29.3359 29.8242ZM51.4648 29.8242L53.1836 29.8242C53.6328 29.8242 53.8867 29.5508 53.8867 29.043L53.8867 26.4453C53.8867 25.9375 53.6328 25.6641 53.1836 25.6641L51.4648 25.6641C50.9961 25.6641 50.7617 25.9375 50.7617 26.4453L50.7617 29.043C50.7617 29.5508 50.9961 29.8242 51.4648 29.8242ZM18.7891 18.418L11.1328 11.0742C10.332 10.332 9.02344 10.6641 9.02344 11.875L9.02344 27.5C9.02344 28.7109 10.332 29.043 11.1328 28.3008L18.7891 20.957C19.6094 20.1367 19.6094 19.2383 18.7891 18.418Z" fill="black" fill-opacity="0.85"/>
 </g>
</svg>
