<?xml version="1.0" encoding="UTF-8"?>
<!--Generator: Apple Native CoreSVG 326-->
<!DOCTYPE svg
PUBLIC "-//W3C//DTD SVG 1.1//EN"
       "http://www.w3.org/Graphics/SVG/1.1/DTD/svg11.dtd">
<svg version="1.1" xmlns="http://www.w3.org/2000/svg" xmlns:xlink="http://www.w3.org/1999/xlink" viewBox="0 0 59.5508 45.957">
 <g>
  <rect height="45.957" opacity="0" width="59.5508" x="0" y="0"/>
  <path d="M10.8789 22.3242L12.9297 22.3242C13.5938 22.3242 13.9844 21.9336 13.9844 21.2695L13.9844 19.2188C13.9844 18.5547 13.5938 18.1641 12.9297 18.1641L10.8789 18.1641C10.2148 18.1641 9.82422 18.5547 9.82422 19.2188L9.82422 21.2695C9.82422 21.9336 10.2148 22.3242 10.8789 22.3242ZM17.9492 22.3242L20.0195 22.3242C20.6641 22.3242 21.0352 21.9336 21.0352 21.2695L21.0352 19.2188C21.0352 18.5547 20.6641 18.1641 20.0195 18.1641L17.9492 18.1641C17.3047 18.1641 16.9141 18.5547 16.9141 19.2188L16.9141 21.2695C16.9141 21.9336 17.3047 22.3242 17.9492 22.3242ZM25.0195 22.3242L27.0703 22.3242C27.7344 22.3242 28.125 21.9336 28.125 21.2695L28.125 19.2188C28.125 18.5547 27.7344 18.1641 27.0703 18.1641L25.0195 18.1641C24.3555 18.1641 23.9844 18.5547 23.9844 19.2188L23.9844 21.2695C23.9844 21.9336 24.3555 22.3242 25.0195 22.3242ZM32.0898 22.3242L34.1602 22.3242C34.8047 22.3242 35.1953 21.9336 35.1953 21.2695L35.1953 19.2188C35.1953 18.5547 34.8047 18.1641 34.1602 18.1641L32.0898 18.1641C31.4453 18.1641 31.0547 18.5547 31.0547 19.2188L31.0547 21.2695C31.0547 21.9336 31.4453 22.3242 32.0898 22.3242ZM39.1602 22.3242L41.2109 22.3242C41.875 22.3242 42.2656 21.9336 42.2656 21.2695L42.2656 19.2188C42.2656 18.5547 41.875 18.1641 41.2109 18.1641L39.1602 18.1641C38.4961 18.1641 38.125 18.5547 38.125 19.2188L38.125 21.2695C38.125 21.9336 38.4961 22.3242 39.1602 22.3242ZM46.25 22.3242L48.3008 22.3242C48.9648 22.3242 49.3555 21.9336 49.3555 21.2695L49.3555 19.2188C49.3555 18.5547 48.9648 18.1641 48.3008 18.1641L46.25 18.1641C45.5859 18.1641 45.1953 18.5547 45.1953 19.2188L45.1953 21.2695C45.1953 21.9336 45.5859 22.3242 46.25 22.3242ZM10.8789 29.4727L12.9297 29.4727C13.5938 29.4727 13.9844 29.082 13.9844 28.418L13.9844 26.3867C13.9844 25.7227 13.5938 25.332 12.9297 25.332L10.8789 25.332C10.2148 25.332 9.82422 25.7227 9.82422 26.3867L9.82422 28.418C9.82422 29.082 10.2148 29.4727 10.8789 29.4727ZM17.9492 29.4727L20.0195 29.4727C20.6641 29.4727 21.0352 29.082 21.0352 28.418L21.0352 26.3867C21.0352 25.7227 20.6641 25.332 20.0195 25.332L17.9492 25.332C17.3047 25.332 16.9141 25.7227 16.9141 26.3867L16.9141 28.418C16.9141 29.082 17.3047 29.4727 17.9492 29.4727ZM25.0195 29.4727L27.0703 29.4727C27.7344 29.4727 28.125 29.082 28.125 28.418L28.125 26.3867C28.125 25.7227 27.7344 25.332 27.0703 25.332L25.0195 25.332C24.3555 25.332 23.9844 25.7227 23.9844 26.3867L23.9844 28.418C23.9844 29.082 24.3555 29.4727 25.0195 29.4727ZM32.0898 29.4727L34.1602 29.4727C34.8047 29.4727 35.1953 29.082 35.1953 28.418L35.1953 26.3867C35.1953 25.7227 34.8047 25.332 34.1602 25.332L32.0898 25.332C31.4453 25.332 31.0547 25.7227 31.0547 26.3867L31.0547 28.418C31.0547 29.082 31.4453 29.4727 32.0898 29.4727ZM39.1602 29.4727L41.2109 29.4727C41.875 29.4727 42.2656 29.082 42.2656 28.418L42.2656 26.3867C42.2656 25.7227 41.875 25.332 41.2109 25.332L39.1602 25.332C38.4961 25.332 38.125 25.7227 38.125 26.3867L38.125 28.418C38.125 29.082 38.4961 29.4727 39.1602 29.4727ZM46.25 29.4727L48.3008 29.4727C48.9648 29.4727 49.3555 29.082 49.3555 28.418L49.3555 26.3867C49.3555 25.7227 48.9648 25.332 48.3008 25.332L46.25 25.332C45.5859 25.332 45.1953 25.7227 45.1953 26.3867L45.1953 28.418C45.1953 29.082 45.5859 29.4727 46.25 29.4727ZM10.8789 36.6406L12.9297 36.6406C13.5938 36.6406 13.9844 36.25 13.9844 35.5859L13.9844 33.5352C13.9844 32.8711 13.5938 32.4805 12.9297 32.4805L10.8789 32.4805C10.2148 32.4805 9.82422 32.8711 9.82422 33.5352L9.82422 35.5859C9.82422 36.25 10.2148 36.6406 10.8789 36.6406ZM18.125 36.6406L41.0352 36.6406C41.8359 36.6406 42.2656 36.1914 42.2656 35.4102L42.2656 33.7109C42.2656 32.9297 41.8359 32.4805 41.0352 32.4805L18.125 32.4805C17.3438 32.4805 16.9141 32.9297 16.9141 33.7109L16.9141 35.4102C16.9141 36.1914 17.3438 36.6406 18.125 36.6406ZM46.25 36.6406L48.3008 36.6406C48.9648 36.6406 49.3555 36.25 49.3555 35.5859L49.3555 33.5352C49.3555 32.8711 48.9648 32.4805 48.3008 32.4805L46.25 32.4805C45.5859 32.4805 45.1953 32.8711 45.1953 33.5352L45.1953 35.5859C45.1953 36.25 45.5859 36.6406 46.25 36.6406ZM0 38.4375C0 43.4375 2.55859 45.957 7.59766 45.957L51.5625 45.957C56.6211 45.957 59.1797 43.418 59.1797 38.4375L59.1797 7.57812C59.1797 2.59766 56.6211 0.0585938 51.5625 0.0585938L7.59766 0.0585938C2.55859 0.0585938 0 2.57812 0 7.57812ZM7.61719 8.28125C6.46484 8.28125 5.50781 7.28516 5.50781 6.17188C5.50781 5.05859 6.46484 4.08203 7.61719 4.08203C8.76953 4.08203 9.70703 5.05859 9.70703 6.17188C9.70703 7.28516 8.76953 8.28125 7.61719 8.28125ZM14.4727 8.28125C13.3203 8.28125 12.3633 7.28516 12.3633 6.17188C12.3633 5.05859 13.3203 4.08203 14.4727 4.08203C15.625 4.08203 16.5625 5.05859 16.5625 6.17188C16.5625 7.28516 15.625 8.28125 14.4727 8.28125ZM21.3086 8.26172C20.1562 8.26172 19.2188 7.28516 19.2188 6.17188C19.2188 5.05859 20.1562 4.08203 21.3086 4.08203C22.4609 4.08203 23.418 5.05859 23.418 6.17188C23.418 7.28516 22.4609 8.26172 21.3086 8.26172ZM3.45703 38.2617L3.45703 12.3047L55.7031 12.3047L55.7031 38.2617C55.7031 41.0547 54.1797 42.5 51.5039 42.5L7.67578 42.5C4.94141 42.5 3.45703 41.0547 3.45703 38.2617Z" fill="black" fill-opacity="0.85"/>
 </g>
</svg>
