<?xml version="1.0" encoding="UTF-8"?>
<!--Generator: Apple Native CoreSVG 326-->
<!DOCTYPE svg
PUBLIC "-//W3C//DTD SVG 1.1//EN"
       "http://www.w3.org/Graphics/SVG/1.1/DTD/svg11.dtd">
<svg version="1.1" xmlns="http://www.w3.org/2000/svg" xmlns:xlink="http://www.w3.org/1999/xlink" viewBox="0 0 63.2812 39.4336">
 <g>
  <rect height="39.4336" opacity="0" width="63.2812" x="0" y="0"/>
  <path d="M7.59766 39.375L55.3125 39.375C60.3516 39.375 62.9102 36.8164 62.9102 31.8359L62.9102 7.53906C62.9102 2.55859 60.3516 0 55.3125 0L7.59766 0C2.53906 0 0 2.53906 0 7.53906L0 31.8359C0 36.8359 2.53906 39.375 7.59766 39.375ZM7.67578 35.918C4.94141 35.918 3.45703 34.4531 3.45703 31.6602L3.45703 7.71484C3.45703 4.92188 4.94141 3.47656 7.67578 3.47656L55.2344 3.47656C57.9102 3.47656 59.4531 4.92188 59.4531 7.71484L59.4531 31.6602C59.4531 34.4531 57.9102 35.918 55.2344 35.918Z" fill="black" fill-opacity="0.85"/>
  <path d="M9.72656 13.6133L11.4648 13.6133C11.9141 13.6133 12.1484 13.3398 12.1484 12.832L12.1484 10.2344C12.1484 9.72656 11.9141 9.45312 11.4648 9.45312L9.72656 9.45312C9.27734 9.45312 9.02344 9.72656 9.02344 10.2344L9.02344 12.832C9.02344 13.3398 9.27734 13.6133 9.72656 13.6133ZM15.2539 13.6133L16.9922 13.6133C17.4414 13.6133 17.6953 13.3398 17.6953 12.832L17.6953 10.2344C17.6953 9.72656 17.4414 9.45312 16.9922 9.45312L15.2539 9.45312C14.8047 9.45312 14.5508 9.72656 14.5508 10.2344L14.5508 12.832C14.5508 13.3398 14.8047 13.6133 15.2539 13.6133ZM20.8008 13.6133L22.5391 13.6133C22.9688 13.6133 23.2227 13.3398 23.2227 12.832L23.2227 10.2344C23.2227 9.72656 22.9688 9.45312 22.5391 9.45312L20.8008 9.45312C20.3516 9.45312 20.0781 9.72656 20.0781 10.2344L20.0781 12.832C20.0781 13.3398 20.3516 13.6133 20.8008 13.6133ZM26.3086 13.6133L28.0469 13.6133C28.4766 13.6133 28.75 13.3398 28.75 12.832L28.75 10.2344C28.75 9.72656 28.4766 9.45312 28.0469 9.45312L26.3086 9.45312C25.8594 9.45312 25.6055 9.72656 25.6055 10.2344L25.6055 12.832C25.6055 13.3398 25.8594 13.6133 26.3086 13.6133ZM31.8164 13.6133L33.5938 13.6133C34.0234 13.6133 34.2773 13.3398 34.2773 12.832L34.2773 10.2344C34.2773 9.72656 34.0234 9.45312 33.5938 9.45312L31.8164 9.45312C31.3867 9.45312 31.1328 9.72656 31.1328 10.2344L31.1328 12.832C31.1328 13.3398 31.3867 13.6133 31.8164 13.6133ZM37.3828 13.6133L39.1016 13.6133C39.5508 13.6133 39.8047 13.3398 39.8047 12.832L39.8047 10.2344C39.8047 9.72656 39.5508 9.45312 39.1016 9.45312L37.3828 9.45312C36.9141 9.45312 36.6797 9.72656 36.6797 10.2344L36.6797 12.832C36.6797 13.3398 36.9141 13.6133 37.3828 13.6133ZM9.72656 21.7188L11.4648 21.7188C11.9141 21.7188 12.1484 21.4453 12.1484 20.9375L12.1484 18.3398C12.1484 17.832 11.9141 17.5586 11.4648 17.5586L9.72656 17.5586C9.27734 17.5586 9.02344 17.832 9.02344 18.3398L9.02344 20.9375C9.02344 21.4453 9.27734 21.7188 9.72656 21.7188ZM15.2539 21.7188L16.9922 21.7188C17.4414 21.7188 17.6953 21.4453 17.6953 20.9375L17.6953 18.3398C17.6953 17.832 17.4414 17.5586 16.9922 17.5586L15.2539 17.5586C14.8047 17.5586 14.5508 17.832 14.5508 18.3398L14.5508 20.9375C14.5508 21.4453 14.8047 21.7188 15.2539 21.7188ZM20.8008 21.7188L22.5391 21.7188C22.9688 21.7188 23.2227 21.4453 23.2227 20.9375L23.2227 18.3398C23.2227 17.832 22.9688 17.5586 22.5391 17.5586L20.8008 17.5586C20.3516 17.5586 20.0781 17.832 20.0781 18.3398L20.0781 20.9375C20.0781 21.4453 20.3516 21.7188 20.8008 21.7188ZM26.3086 21.7188L28.0469 21.7188C28.4766 21.7188 28.75 21.4453 28.75 20.9375L28.75 18.3398C28.75 17.832 28.4766 17.5586 28.0469 17.5586L26.3086 17.5586C25.8594 17.5586 25.6055 17.832 25.6055 18.3398L25.6055 20.9375C25.6055 21.4453 25.8594 21.7188 26.3086 21.7188ZM31.8164 21.7188L33.5938 21.7188C34.0234 21.7188 34.2773 21.4453 34.2773 20.9375L34.2773 18.3398C34.2773 17.832 34.0234 17.5586 33.5938 17.5586L31.8164 17.5586C31.3867 17.5586 31.1328 17.832 31.1328 18.3398L31.1328 20.9375C31.1328 21.4453 31.3867 21.7188 31.8164 21.7188ZM37.3828 21.7188L39.1016 21.7188C39.5508 21.7188 39.8047 21.4453 39.8047 20.9375L39.8047 18.3398C39.8047 17.832 39.5508 17.5586 39.1016 17.5586L37.3828 17.5586C36.9141 17.5586 36.6797 17.832 36.6797 18.3398L36.6797 20.9375C36.6797 21.4453 36.9141 21.7188 37.3828 21.7188ZM9.72656 29.8242L11.4648 29.8242C11.9141 29.8242 12.1484 29.5508 12.1484 29.043L12.1484 26.4453C12.1484 25.9375 11.9141 25.6641 11.4648 25.6641L9.72656 25.6641C9.27734 25.6641 9.02344 25.9375 9.02344 26.4453L9.02344 29.043C9.02344 29.5508 9.27734 29.8242 9.72656 29.8242ZM15.2539 29.8242L33.5938 29.8242C34.0234 29.8242 34.2773 29.5508 34.2773 29.043L34.2773 26.4453C34.2773 25.9375 34.0234 25.6641 33.5938 25.6641L15.2539 25.6641C14.8047 25.6641 14.5508 25.9375 14.5508 26.4453L14.5508 29.043C14.5508 29.5508 14.8047 29.8242 15.2539 29.8242ZM37.3828 29.8242L39.1016 29.8242C39.5508 29.8242 39.8047 29.5508 39.8047 29.043L39.8047 26.4453C39.8047 25.9375 39.5508 25.6641 39.1016 25.6641L37.3828 25.6641C36.9141 25.6641 36.6797 25.9375 36.6797 26.4453L36.6797 29.043C36.6797 29.5508 36.9141 29.8242 37.3828 29.8242ZM44.0234 18.418C43.1836 19.2383 43.1836 20.1367 44.0234 20.957L51.6797 28.3008C52.4805 29.043 53.7891 28.7109 53.7891 27.5L53.7891 11.875C53.7891 10.6641 52.4805 10.332 51.6797 11.0742Z" fill="black" fill-opacity="0.85"/>
 </g>
</svg>
