<?xml version="1.0" encoding="UTF-8"?>
<!--Generator: Apple Native CoreSVG 326-->
<!DOCTYPE svg
PUBLIC "-//W3C//DTD SVG 1.1//EN"
       "http://www.w3.org/Graphics/SVG/1.1/DTD/svg11.dtd">
<svg version="1.1" xmlns="http://www.w3.org/2000/svg" xmlns:xlink="http://www.w3.org/1999/xlink" viewBox="0 0 51.25 50.918">
 <g>
  <rect height="50.918" opacity="0" width="51.25" x="0" y="0"/>
  <path d="M25.4297 50.8789C39.4727 50.8789 50.8789 39.4922 50.8789 25.4492C50.8789 11.4062 39.4727 0 25.4297 0C11.3867 0 0 11.4062 0 25.4492C0 39.4922 11.3867 50.8789 25.4297 50.8789ZM25.4297 47.2461C13.3789 47.2461 3.63281 37.5 3.63281 25.4492C3.63281 13.3984 13.3789 3.65234 25.4297 3.65234C37.4805 3.65234 47.2266 13.3984 47.2266 25.4492C47.2266 37.5 37.4805 47.2461 25.4297 47.2461Z" fill="black" fill-opacity="0.85"/>
  <path d="M19.8633 36.875C20.6445 36.875 21.1523 36.3477 21.1523 35.5273L21.1523 26.0938L22.832 26.0938L30.7617 36.2109C31.0742 36.6406 31.4062 36.875 31.9141 36.875C32.7344 36.875 33.1055 36.2305 33.1055 35.7422C33.1055 35.3906 32.9883 35.1172 32.7539 34.8047L25.6836 26.0938L32.9297 26.0938C33.3594 26.0938 33.6914 25.7422 33.6914 25.3125C33.6914 24.8828 33.3594 24.5508 32.9297 24.5508L25.7227 24.5508L32.7539 16.0156C32.9688 15.7422 33.0859 15.4297 33.0859 15.1758C33.0859 14.4922 32.5586 14.0039 31.9141 14.0039C31.4648 14.0039 31.0742 14.3164 30.8008 14.668L22.8516 24.5508L21.1523 24.5508L21.1523 15.332C21.1523 14.5117 20.6445 14.0039 19.8633 14.0039C19.043 14.0039 18.5352 14.5117 18.5352 15.332L18.5352 24.5508L16.7383 24.5508C16.3086 24.5508 15.9961 24.8633 15.9961 25.332C15.9961 25.7812 16.3086 26.0938 16.7383 26.0938L18.5352 26.0938L18.5352 35.5273C18.5352 36.3477 19.043 36.875 19.8633 36.875Z" fill="black" fill-opacity="0.85"/>
 </g>
</svg>
