<?xml version="1.0" encoding="UTF-8"?>
<!--Generator: Apple Native CoreSVG 326-->
<!DOCTYPE svg
PUBLIC "-//W3C//DTD SVG 1.1//EN"
       "http://www.w3.org/Graphics/SVG/1.1/DTD/svg11.dtd">
<svg version="1.1" xmlns="http://www.w3.org/2000/svg" xmlns:xlink="http://www.w3.org/1999/xlink" viewBox="0 0 60.961 50.918">
 <g>
  <rect height="50.918" opacity="0" width="60.961" x="0" y="0"/>
  <path d="M30.295 50.8789C44.3379 50.8789 55.7246 39.4922 55.7246 25.4492C55.7246 11.4062 44.3379 0 30.295 0C16.252 0 4.86526 11.4062 4.86526 25.4492L8.49808 25.4492C8.49808 13.3984 18.2442 3.65234 30.295 3.65234C42.3457 3.65234 52.0918 13.3984 52.0918 25.4492C52.0918 37.5 42.3457 47.2461 30.295 47.2461C22.834 47.2461 16.1739 43.457 12.3653 37.7539C11.7207 36.875 10.7051 36.6016 9.80667 37.1484C8.94729 37.6562 8.69339 38.8477 9.39651 39.8047C13.9473 46.5039 21.6426 50.8789 30.295 50.8789ZM1.60354 20.7227C0.00198146 20.7227-0.447237 21.8164 0.470731 23.0859L6.01761 30.9766C6.75979 32.0508 7.83401 32.0312 8.55667 30.9766L14.1035 23.0664C14.9825 21.8164 14.5528 20.7227 12.9707 20.7227Z" fill="black" fill-opacity="0.85"/>
  <path d="M24.7481 36.875C25.5293 36.875 26.0371 36.3477 26.0371 35.5273L26.0371 26.0938L27.7168 26.0938L35.6465 36.2109C35.959 36.6406 36.291 36.875 36.7989 36.875C37.6192 36.875 37.9903 36.2305 37.9903 35.7422C37.9903 35.3906 37.8731 35.1172 37.6387 34.8047L30.5684 26.0938L37.8145 26.0938C38.2442 26.0938 38.5762 25.7422 38.5762 25.3125C38.5762 24.8828 38.2442 24.5508 37.8145 24.5508L30.6075 24.5508L37.6387 16.0156C37.8535 15.7422 37.9707 15.4297 37.9707 15.1758C37.9707 14.4922 37.4434 14.0039 36.7989 14.0039C36.3496 14.0039 35.959 14.3164 35.6856 14.668L27.7364 24.5508L26.0371 24.5508L26.0371 15.332C26.0371 14.5117 25.5293 14.0039 24.7481 14.0039C23.9278 14.0039 23.42 14.5117 23.42 15.332L23.42 24.5508L21.6231 24.5508C21.1934 24.5508 20.8809 24.8633 20.8809 25.332C20.8809 25.7812 21.1934 26.0938 21.6231 26.0938L23.42 26.0938L23.42 35.5273C23.42 36.3477 23.9278 36.875 24.7481 36.875Z" fill="black" fill-opacity="0.85"/>
 </g>
</svg>
