<?xml version="1.0" encoding="UTF-8"?>
<!--Generator: Apple Native CoreSVG 326-->
<!DOCTYPE svg
PUBLIC "-//W3C//DTD SVG 1.1//EN"
       "http://www.w3.org/Graphics/SVG/1.1/DTD/svg11.dtd">
<svg version="1.1" xmlns="http://www.w3.org/2000/svg" xmlns:xlink="http://www.w3.org/1999/xlink" viewBox="0 0 60.4102 50.0586">
 <g>
  <rect height="50.0586" opacity="0" width="60.4102" x="0" y="0"/>
  <path d="M60.0391 30.0195C60.0391 22.6562 57.3828 15.918 52.9688 10.6836C52.4609 10.0781 51.6016 10.0977 51.0352 10.6641L45.3906 16.3086C44.9023 16.7969 44.8828 17.4805 45.3125 18.0273C47.9102 21.3477 49.4531 25.4883 49.4531 30.0195C49.4531 34.5508 47.9102 38.7109 45.1953 42.1484C44.8242 42.6172 44.8438 43.2031 45.2539 43.6133L51.0352 49.4141C51.6016 50 52.4414 49.9805 52.9688 49.375C57.3828 44.1406 60.0391 37.3633 60.0391 30.0195Z" fill="black" fill-opacity="0.85"/>
  <path d="M30.0195 10.5664C34.5508 10.5664 38.7305 12.1289 42.0508 14.7656C42.5781 15.1562 43.2227 15.1172 43.7109 14.6289L49.375 8.96484C49.9609 8.39844 49.9414 7.55859 49.3359 7.03125C44.1211 2.65625 37.3633 0 30.0195 0C22.6758 0 15.918 2.65625 10.7031 7.03125C10.0977 7.55859 10.0781 8.39844 10.6445 8.96484L16.3281 14.6289C16.7969 15.1172 17.5 15.1367 18.0469 14.707C21.3477 12.1289 25.5078 10.5664 30.0195 10.5664Z" fill="black" fill-opacity="0.85"/>
  <path d="M0 30.0195C0 37.3633 2.65625 44.1406 7.07031 49.375C7.57812 49.9805 8.4375 50 9.00391 49.4141L14.7852 43.6133C15.1758 43.2031 15.2148 42.6172 14.8438 42.1484C12.1289 38.7109 10.5664 34.5508 10.5664 30.0195C10.5664 25.4883 12.1094 21.3477 14.7266 18.0273C15.1367 17.4805 15.1367 16.7969 14.6484 16.3086L8.98438 10.6641C8.41797 10.0977 7.57812 10.0781 7.05078 10.6836C2.63672 15.918 0 22.6562 0 30.0195Z" fill="black" fill-opacity="0.85"/>
  <path d="M24.4531 41.7578C25.2344 41.7578 25.7227 41.2305 25.7227 40.4297L25.7227 30.9766L27.4023 30.9766L35.3516 41.1133C35.6641 41.5234 35.9961 41.7578 36.4844 41.7578C37.3242 41.7578 37.6953 41.1328 37.6953 40.625C37.6953 40.293 37.5586 40.0195 37.3242 39.707L30.2539 30.9766L37.5 30.9766C37.9297 30.9766 38.2812 30.6445 38.2812 30.2148C38.2812 29.7656 37.9297 29.4531 37.5 29.4531L30.293 29.4531L37.3438 20.918C37.5586 20.625 37.6758 20.332 37.6758 20.0586C37.6758 19.3945 37.1484 18.9062 36.4844 18.9062C36.0352 18.9062 35.6641 19.2188 35.3906 19.5508L27.4219 29.4531L25.7227 29.4531L25.7227 20.2344C25.7227 19.4141 25.2344 18.9062 24.4531 18.9062C23.6328 18.9062 23.125 19.4141 23.125 20.2344L23.125 29.4531L21.3281 29.4531C20.8789 29.4531 20.5664 29.7656 20.5664 30.2344C20.5664 30.6836 20.8789 30.9766 21.3281 30.9766L23.125 30.9766L23.125 40.4297C23.125 41.2305 23.6328 41.7578 24.4531 41.7578Z" fill="black" fill-opacity="0.85"/>
 </g>
</svg>
