<?xml version="1.0" encoding="UTF-8"?>
<!--Generator: Apple Native CoreSVG 326-->
<!DOCTYPE svg
PUBLIC "-//W3C//DTD SVG 1.1//EN"
       "http://www.w3.org/Graphics/SVG/1.1/DTD/svg11.dtd">
<svg version="1.1" xmlns="http://www.w3.org/2000/svg" xmlns:xlink="http://www.w3.org/1999/xlink" viewBox="0 0 56.2305 55.8789">
 <g>
  <rect height="55.8789" opacity="0" width="56.2305" x="0" y="0"/>
  <path d="M27.9297 55.8594C43.2812 55.8594 55.8594 43.3008 55.8594 27.9297C55.8594 12.5586 43.2812 0 27.9297 0C12.5781 0 0 12.5586 0 27.9297C0 43.3008 12.5781 55.8594 27.9297 55.8594ZM27.9297 46.6797C17.5586 46.6797 9.16016 38.3008 9.16016 27.9297C9.16016 17.5586 17.5586 9.16016 27.9297 9.16016C38.3008 9.16016 46.6992 17.5586 46.6992 27.9297C46.6992 38.3008 38.3008 46.6797 27.9297 46.6797Z" fill="black" fill-opacity="0.85"/>
  <path d="M22.3828 39.3555C23.1641 39.3555 23.6719 38.8281 23.6719 38.0078L23.6719 28.5742L25.332 28.5742L33.2812 38.6914C33.5938 39.1211 33.9258 39.3555 34.4141 39.3555C35.2539 39.3555 35.625 38.7109 35.625 38.2227C35.625 37.8711 35.4883 37.5977 35.2734 37.2852L28.2031 28.5742L35.4297 28.5742C35.8789 28.5742 36.2109 28.2227 36.2109 27.793C36.2109 27.3633 35.8789 27.0312 35.4297 27.0312L28.2422 27.0312L35.2734 18.4961C35.4883 18.2227 35.6055 17.9102 35.6055 17.6562C35.6055 16.9727 35.0781 16.4844 34.4141 16.4844C33.9844 16.4844 33.5938 16.7969 33.3203 17.1484L25.3516 27.0312L23.6719 27.0312L23.6719 17.8125C23.6719 16.9922 23.1641 16.4844 22.3828 16.4844C21.5625 16.4844 21.0547 16.9922 21.0547 17.8125L21.0547 27.0312L19.2578 27.0312C18.8086 27.0312 18.4961 27.3438 18.4961 27.8125C18.4961 28.2617 18.8086 28.5742 19.2578 28.5742L21.0547 28.5742L21.0547 38.0078C21.0547 38.8281 21.5625 39.3555 22.3828 39.3555Z" fill="black" fill-opacity="0.85"/>
 </g>
</svg>
