<?xml version="1.0" encoding="UTF-8"?>
<!--Generator: Apple Native CoreSVG 326-->
<!DOCTYPE svg
PUBLIC "-//W3C//DTD SVG 1.1//EN"
       "http://www.w3.org/Graphics/SVG/1.1/DTD/svg11.dtd">
<svg version="1.1" xmlns="http://www.w3.org/2000/svg" xmlns:xlink="http://www.w3.org/1999/xlink" viewBox="0 0 51.25 50.918">
 <g>
  <rect height="50.918" opacity="0" width="51.25" x="0" y="0"/>
  <path d="M25.4297 50.8789C39.4727 50.8789 50.8789 39.4922 50.8789 25.4492C50.8789 11.4062 39.4727 0 25.4297 0C11.3867 0 0 11.4062 0 25.4492C0 39.4922 11.3867 50.8789 25.4297 50.8789ZM25.4297 47.2461C13.3789 47.2461 3.63281 37.5 3.63281 25.4492C3.63281 13.3984 13.3789 3.65234 25.4297 3.65234C37.4805 3.65234 47.2266 13.3984 47.2266 25.4492C47.2266 37.5 37.4805 47.2461 25.4297 47.2461Z" fill="black" fill-opacity="0.85"/>
  <path d="M11.2109 33.7109C12.0312 33.7109 12.5195 33.2031 12.5195 32.3633L12.5195 28.5547L13.6719 26.5234L16.9727 32.8711C17.207 33.3398 17.6562 33.6719 18.2422 33.6719C18.8086 33.6719 19.3945 33.2227 19.3945 32.5C19.3945 32.168 19.2969 31.8555 19.1602 31.582L15.4883 24.707L18.6914 19.3164C18.8867 18.9648 18.9648 18.75 18.9648 18.3789C18.9648 17.832 18.5547 17.2266 17.8125 17.2266C17.168 17.2266 16.9141 17.5195 16.6602 18.0078L12.6172 25.0977L12.5 25.0977L12.5 18.5352C12.5 17.6953 12.0508 17.207 11.1914 17.207C10.3906 17.207 9.94141 17.7148 9.94141 18.5352L9.94141 32.3633C9.94141 33.3203 10.5469 33.7109 11.2109 33.7109ZM22.1875 33.6719C22.9883 33.6719 23.4766 33.125 23.4766 32.3438L23.4766 27.9883L25.293 27.9883C28.2422 27.9883 29.6289 25.4102 29.6289 22.7148C29.6289 19.8047 28.1445 17.4219 25.4297 17.4219L22.168 17.4219C21.3867 17.4219 20.918 17.9492 20.918 18.7695L20.918 32.3438C20.918 33.125 21.4062 33.6719 22.1875 33.6719ZM23.4766 25.918L23.4766 19.5117L24.7852 19.5117C26.4844 19.5117 27.1094 20.957 27.1094 22.7148C27.1094 24.4531 26.4648 25.918 24.7656 25.918ZM32.6562 33.7109C33.4961 33.7109 33.9258 33.1836 33.9258 32.3242L33.9258 26.3867L38.2031 26.3867L38.2031 32.3242C38.2031 33.1836 38.6328 33.7109 39.4727 33.7109C40.332 33.7109 40.7617 33.1836 40.7617 32.3242L40.7617 18.5742C40.7617 17.6953 40.332 17.207 39.4727 17.207C38.6719 17.207 38.2031 17.6953 38.2031 18.5742L38.2031 24.2188L33.9258 24.2188L33.9258 18.5742C33.9258 17.6953 33.4766 17.207 32.6562 17.207C31.8164 17.207 31.3867 17.6953 31.3867 18.5742L31.3867 32.3242C31.3867 33.1836 31.8164 33.7109 32.6562 33.7109Z" fill="black" fill-opacity="0.85"/>
 </g>
</svg>
