<?xml version="1.0" encoding="UTF-8"?>
<!--Generator: Apple Native CoreSVG 326-->
<!DOCTYPE svg
PUBLIC "-//W3C//DTD SVG 1.1//EN"
       "http://www.w3.org/Graphics/SVG/1.1/DTD/svg11.dtd">
<svg version="1.1" xmlns="http://www.w3.org/2000/svg" xmlns:xlink="http://www.w3.org/1999/xlink" viewBox="0 0 57.6367 43.3008">
 <g>
  <rect height="43.3008" opacity="0" width="57.6367" x="0" y="0"/>
  <path d="M57.2656 7.34375L57.2656 23.2812C57.2656 36.6406 51.0742 43.2617 36.7773 43.2617L20.4883 43.2617C6.21094 43.2617 0 36.6406 0 23.2812L0 7.34375C0 2.5 2.51953 0 7.42188 0L49.8633 0C54.7461 0 57.2656 2.51953 57.2656 7.34375ZM22.6562 12.832L22.6562 30.1758C22.6562 31.3281 23.3203 32.1289 24.4336 32.1289L34.6484 32.1289C35.5078 32.1289 36.2305 31.5039 36.2305 30.6055C36.2305 29.7266 35.4883 29.0625 34.6484 29.0625L26.2891 29.0625L26.2891 12.832C26.2891 11.6602 25.5469 10.8398 24.4336 10.8398C23.3008 10.8398 22.6562 11.6797 22.6562 12.832Z" fill="black" fill-opacity="0.85"/>
 </g>
</svg>
