<?xml version="1.0" encoding="UTF-8"?>
<!--Generator: Apple Native CoreSVG 326-->
<!DOCTYPE svg
PUBLIC "-//W3C//DTD SVG 1.1//EN"
       "http://www.w3.org/Graphics/SVG/1.1/DTD/svg11.dtd">
<svg version="1.1" xmlns="http://www.w3.org/2000/svg" xmlns:xlink="http://www.w3.org/1999/xlink" viewBox="0 0 57.6367 43.3008">
 <g>
  <rect height="43.3008" opacity="0" width="57.6367" x="0" y="0"/>
  <path d="M20.4883 43.2617L36.7773 43.2617C51.0742 43.2617 57.2656 36.6406 57.2656 23.2812L57.2656 7.34375C57.2656 2.51953 54.7461 0 49.8633 0L7.42188 0C2.51953 0 0 2.5 0 7.34375L0 23.2812C0 36.6406 6.21094 43.2617 20.4883 43.2617ZM20.5273 39.8047C8.51562 39.8047 3.45703 34.5117 3.45703 23.4766L3.45703 7.51953C3.45703 4.84375 4.86328 3.47656 7.5 3.47656L49.7656 3.47656C52.3633 3.47656 53.8086 4.84375 53.8086 7.51953L53.8086 23.4766C53.8086 34.5117 48.75 39.8047 36.7578 39.8047Z" fill="black" fill-opacity="0.85"/>
  <path d="M24.5312 31.875L34.5117 31.875C35.3516 31.875 36.0547 31.2891 36.0547 30.4102C36.0547 29.5312 35.332 28.9062 34.5117 28.9062L26.3086 28.9062L26.3086 13.0273C26.3086 11.875 25.6055 11.0938 24.5312 11.0938C23.4375 11.0938 22.8125 11.8945 22.8125 13.0273L22.8125 29.9805C22.8125 31.0938 23.457 31.875 24.5312 31.875Z" fill="black" fill-opacity="0.85"/>
 </g>
</svg>
