<?xml version="1.0" encoding="UTF-8"?>
<!--Generator: Apple Native CoreSVG 326-->
<!DOCTYPE svg
PUBLIC "-//W3C//DTD SVG 1.1//EN"
       "http://www.w3.org/Graphics/SVG/1.1/DTD/svg11.dtd">
<svg version="1.1" xmlns="http://www.w3.org/2000/svg" xmlns:xlink="http://www.w3.org/1999/xlink" viewBox="0 0 73.7402 56.5039">
 <g>
  <rect height="56.5039" opacity="0" width="73.7402" x="0" y="0"/>
  <path d="M64.9072 28.2422C64.9072 43.8086 52.2705 56.4453 36.6846 56.4453C24.2971 56.4453 13.7726 48.4629 9.99986 37.3597C11.2235 37.5891 12.4459 37.3371 13.4305 36.7077C16.8571 46.2221 25.9579 52.9883 36.6846 52.9883C50.3955 52.9883 61.4502 41.9336 61.4502 28.2422C61.4502 14.5117 50.3955 3.45703 36.6846 3.45703C25.9468 3.45703 16.8382 10.2372 13.4197 19.786C12.4366 19.1599 11.2157 18.9087 9.98913 19.14C13.7569 7.99918 24.2996 0 36.6846 0C52.251 0 64.9072 12.6367 64.9072 28.2422Z" fill="black" fill-opacity="0.85"/>
  <path d="M9.61426 22.6172L3.77441 26.9727C2.87598 27.6367 2.91504 28.8477 3.77441 29.5117L9.63379 33.8867C10.8252 34.7852 12.4268 34.2773 12.4268 32.6758L12.4268 23.8086C12.4268 22.2461 10.8447 21.6797 9.61426 22.6172Z" fill="black" fill-opacity="0.85"/>
  <path d="M36.6846 48.125C47.6611 48.125 56.5869 39.2188 56.5869 28.2422C56.5869 17.2266 47.6611 8.33984 36.6846 8.33984C25.6885 8.33984 16.8018 17.2266 16.8018 28.2422C16.8018 39.2188 25.6885 48.125 36.6846 48.125ZM36.6846 44.668C27.5635 44.668 20.2588 37.3438 20.2588 28.2422C20.2588 19.1211 27.5635 11.7969 36.6846 11.7969C45.8057 11.7969 53.1299 19.1211 53.1299 28.2422C53.1299 37.3438 45.8057 44.668 36.6846 44.668ZM32.8174 37.8906L42.2314 37.8906C43.0127 37.8906 43.6768 37.3242 43.6768 36.4844C43.6768 35.6641 43.0127 35.0781 42.2314 35.0781L34.5166 35.0781L34.5166 20.1172C34.5166 19.043 33.8525 18.3008 32.8174 18.3008C31.8018 18.3008 31.2158 19.0625 31.2158 20.1172L31.2158 36.0938C31.2158 37.1484 31.8213 37.8906 32.8174 37.8906Z" fill="black" fill-opacity="0.85"/>
 </g>
</svg>
