<?xml version="1.0" encoding="UTF-8"?>
<!--Generator: Apple Native CoreSVG 326-->
<!DOCTYPE svg
PUBLIC "-//W3C//DTD SVG 1.1//EN"
       "http://www.w3.org/Graphics/SVG/1.1/DTD/svg11.dtd">
<svg version="1.1" xmlns="http://www.w3.org/2000/svg" xmlns:xlink="http://www.w3.org/1999/xlink" viewBox="0 0 72.998 56.5039">
 <g>
  <rect height="56.5039" opacity="0" width="72.998" x="0" y="0"/>
  <path d="M63.0089 19.14C61.7823 18.9087 60.5615 19.1599 59.5784 19.786C56.1599 10.2372 47.0513 3.45703 36.3135 3.45703C22.6025 3.45703 11.5479 14.5117 11.5479 28.2422C11.5479 41.9336 22.6025 52.9883 36.3135 52.9883C47.0401 52.9883 56.141 46.2221 59.5676 36.7077C60.5522 37.3371 61.7745 37.5891 62.9982 37.3597C59.2254 48.4629 48.7009 56.4453 36.3135 56.4453C20.7275 56.4453 8.09082 43.8086 8.09082 28.2422C8.09082 12.6367 20.7471 0 36.3135 0C48.6984 0 59.2412 7.99918 63.0089 19.14Z" fill="black" fill-opacity="0.85"/>
  <path d="M63.3838 22.6172C62.1533 21.6797 60.5713 22.2461 60.5713 23.8086L60.5713 32.6758C60.5713 34.2773 62.1729 34.7852 63.3643 33.8867L69.2236 29.5117C70.083 28.8477 70.1221 27.6367 69.2236 26.9727Z" fill="black" fill-opacity="0.85"/>
  <path d="M36.3135 48.125C47.3291 48.125 56.1963 39.2188 56.1963 28.2422C56.1963 17.2266 47.3291 8.33984 36.3135 8.33984C25.3369 8.33984 16.4111 17.2266 16.4111 28.2422C16.4111 39.2188 25.3369 48.125 36.3135 48.125ZM36.3135 44.668C27.1924 44.668 19.8682 37.3438 19.8682 28.2422C19.8682 19.1211 27.1924 11.7969 36.3135 11.7969C45.4346 11.7969 52.7393 19.1211 52.7393 28.2422C52.7393 37.3438 45.4346 44.668 36.3135 44.668ZM32.4463 37.8906L41.8604 37.8906C42.6416 37.8906 43.3057 37.3242 43.3057 36.4844C43.3057 35.6641 42.6416 35.0781 41.8604 35.0781L34.1455 35.0781L34.1455 20.1172C34.1455 19.043 33.4814 18.3008 32.4463 18.3008C31.4307 18.3008 30.8447 19.0625 30.8447 20.1172L30.8447 36.0938C30.8447 37.1484 31.4502 37.8906 32.4463 37.8906Z" fill="black" fill-opacity="0.85"/>
 </g>
</svg>
