<?xml version="1.0" encoding="UTF-8"?>
<!--Generator: Apple Native CoreSVG 326-->
<!DOCTYPE svg
PUBLIC "-//W3C//DTD SVG 1.1//EN"
       "http://www.w3.org/Graphics/SVG/1.1/DTD/svg11.dtd">
<svg version="1.1" xmlns="http://www.w3.org/2000/svg" xmlns:xlink="http://www.w3.org/1999/xlink" viewBox="0 0 57.7539 48.3008">
 <g>
  <rect height="48.3008" opacity="0" width="57.7539" x="0" y="0"/>
  <path d="M28.6914 40.5078C32.1817 40.5078 35.4132 40.1789 38.3398 39.556L38.3398 40.8594C38.3398 45.5469 34.7461 48.3008 28.6914 48.3008C22.6172 48.3008 19.0234 45.5469 19.0234 40.8594L19.0234 39.5515C21.955 40.1774 25.1932 40.5078 28.6914 40.5078Z" fill="black" fill-opacity="0.85"/>
  <path d="M54.2578 21.2695C54.2578 30.1953 44.668 37.3828 28.6914 37.3828C12.7148 37.3828 3.125 30.1953 3.125 21.2695C3.125 12.3633 12.7148 5.17578 28.6523 5.17578C44.668 5.17578 54.2578 12.3633 54.2578 21.2695ZM23.457 14.1992L23.457 27.5C23.457 28.5742 24.1016 29.2969 25.0977 29.2969L33.1836 29.2969C34.0625 29.2969 34.6484 28.6914 34.6484 27.832C34.6484 26.9727 34.0625 26.4062 33.1836 26.4062L26.7578 26.4062L26.7578 14.1992C26.7578 13.1055 26.0938 12.4219 25.0977 12.4219C24.1211 12.4219 23.457 13.125 23.457 14.1992Z" fill="black" fill-opacity="0.85"/>
 </g>
</svg>
