<?xml version="1.0" encoding="UTF-8"?>
<!--Generator: Apple Native CoreSVG 326-->
<!DOCTYPE svg
PUBLIC "-//W3C//DTD SVG 1.1//EN"
       "http://www.w3.org/Graphics/SVG/1.1/DTD/svg11.dtd">
<svg version="1.1" xmlns="http://www.w3.org/2000/svg" xmlns:xlink="http://www.w3.org/1999/xlink" viewBox="0 0 57.7539 63.3008">
 <g>
  <rect height="63.3008" opacity="0" width="57.7539" x="0" y="0"/>
  <path d="M28.6914 48.0078C32.1817 48.0078 35.4132 47.6789 38.3398 47.056L38.3398 48.3594C38.3398 53.0469 34.7461 55.8008 28.6914 55.8008C22.6172 55.8008 19.0234 53.0469 19.0234 48.3594L19.0234 47.0515C21.955 47.6774 25.1932 48.0078 28.6914 48.0078Z" fill="black" fill-opacity="0.85"/>
  <path d="M54.2578 28.7695C54.2578 37.6953 44.668 44.8828 28.6914 44.8828C12.7148 44.8828 3.125 37.6953 3.125 28.7695C3.125 19.8633 12.7148 12.6758 28.6523 12.6758C44.668 12.6758 54.2578 19.8633 54.2578 28.7695ZM23.457 21.6992L23.457 35C23.457 36.0742 24.1016 36.7969 25.0977 36.7969L33.1836 36.7969C34.0625 36.7969 34.6484 36.1914 34.6484 35.332C34.6484 34.4727 34.0625 33.9062 33.1836 33.9062L26.7578 33.9062L26.7578 21.6992C26.7578 20.6055 26.0938 19.9219 25.0977 19.9219C24.1211 19.9219 23.457 20.625 23.457 21.6992Z" fill="black" fill-opacity="0.85"/>
  <path d="M22.7344 2.77344L27.5977 9.27734C28.2422 10.1367 29.4531 10.1367 30.0977 9.27734L34.9609 2.77344C35.8789 1.5625 35.3906 0 33.7695 0L23.9062 0C22.3633 0 21.7969 1.52344 22.7344 2.77344Z" fill="black" fill-opacity="0.85"/>
 </g>
</svg>
