<?xml version="1.0" encoding="UTF-8"?>
<!--Generator: Apple Native CoreSVG 326-->
<!DOCTYPE svg
PUBLIC "-//W3C//DTD SVG 1.1//EN"
       "http://www.w3.org/Graphics/SVG/1.1/DTD/svg11.dtd">
<svg version="1.1" xmlns="http://www.w3.org/2000/svg" xmlns:xlink="http://www.w3.org/1999/xlink" viewBox="0 0 56.8164 73.3936">
 <g>
  <rect height="73.3936" opacity="0" width="56.8164" x="0" y="0"/>
  <path d="M56.4453 36.687C56.4453 52.2534 43.7891 64.9097 28.2031 64.9097C12.6172 64.9097 0 52.2534 0 36.687C0 24.3112 7.9751 13.7624 19.0886 9.98308C18.8545 11.2073 19.1042 12.43 19.7338 13.4144C10.213 16.8451 3.45703 25.9589 3.45703 36.687C3.45703 50.3784 14.4922 61.4526 28.2031 61.4526C41.9141 61.4526 52.9883 50.398 52.9883 36.687C52.9883 25.9377 46.2009 16.8284 36.6616 13.4065C37.2886 12.4234 37.5384 11.2018 37.3027 9.97402C48.4361 13.7437 56.4453 24.2884 56.4453 36.687Z" fill="black" fill-opacity="0.85"/>
  <path d="M23.7695 12.4292L32.6367 12.4292C34.1992 12.4292 34.7656 10.8472 33.8281 9.59717L29.4727 3.77686C28.8281 2.89796 27.5977 2.89796 26.9336 3.77686L22.5586 9.61671C21.6602 10.8276 22.168 12.4292 23.7695 12.4292Z" fill="black" fill-opacity="0.85"/>
  <path d="M28.2031 56.5894C39.2188 56.5894 48.125 47.6636 48.125 36.687C48.125 25.6714 39.2188 16.8042 28.2031 16.8042C17.2266 16.8042 8.32031 25.6714 8.32031 36.687C8.32031 47.6636 17.2266 56.5894 28.2031 56.5894ZM24.2383 46.5698C23.2031 46.5698 22.5781 45.8081 22.5781 44.7144L22.5781 28.3862C22.5781 27.2925 23.1836 26.5112 24.2383 26.5112C25.293 26.5112 25.9961 27.273 25.9961 28.3862L25.9961 43.6792L33.8672 43.6792C34.668 43.6792 35.3516 44.2847 35.3516 45.1245C35.3516 45.9839 34.668 46.5698 33.8672 46.5698Z" fill="black" fill-opacity="0.85"/>
 </g>
</svg>
