<?xml version="1.0" encoding="UTF-8"?>
<!--Generator: Apple Native CoreSVG 326-->
<!DOCTYPE svg
PUBLIC "-//W3C//DTD SVG 1.1//EN"
       "http://www.w3.org/Graphics/SVG/1.1/DTD/svg11.dtd">
<svg version="1.1" xmlns="http://www.w3.org/2000/svg" xmlns:xlink="http://www.w3.org/1999/xlink" viewBox="0 0 46.2891 45.918">
 <g>
  <rect height="45.918" opacity="0" width="46.2891" x="0" y="0"/>
  <path d="M45.918 7.53906L45.918 38.3984C45.918 43.3594 43.3594 45.918 38.3008 45.918L7.59766 45.918C2.55859 45.918 0 43.3984 0 38.3984L0 7.53906C0 2.53906 2.55859 0 7.59766 0L38.3008 0C43.3594 0 45.918 2.55859 45.918 7.53906ZM16.2695 12.793L16.2695 32.4414C16.2695 33.6328 16.8945 34.4531 18.0273 34.4531L30.0195 34.4531C30.918 34.4531 31.5234 33.8672 31.5234 32.9492C31.5234 32.0312 30.8984 31.4844 30.0195 31.4844L19.8438 31.4844L19.8438 12.793C19.8438 11.5625 19.1992 10.7812 18.0273 10.7812C16.875 10.7812 16.2695 11.6016 16.2695 12.793Z" fill="black" fill-opacity="0.85"/>
 </g>
</svg>
