<?xml version="1.0" encoding="UTF-8"?>
<!--Generator: Apple Native CoreSVG 326-->
<!DOCTYPE svg
PUBLIC "-//W3C//DTD SVG 1.1//EN"
       "http://www.w3.org/Graphics/SVG/1.1/DTD/svg11.dtd">
<svg version="1.1" xmlns="http://www.w3.org/2000/svg" xmlns:xlink="http://www.w3.org/1999/xlink" viewBox="0 0 44.5898 53.8867">
 <g>
  <rect height="53.8867" opacity="0" width="44.5898" x="0" y="0"/>
  <path d="M14.707 53.8867L36.8555 53.8867C41.4648 53.8867 44.1992 51.1719 44.1992 46.6016L44.2188 7.30469C44.2188 2.87109 41.3281 0 36.9141 0L29.1797 0C25.293 0 22.0703 0.976562 19.0234 3.78906L3.10547 18.418C1.03516 20.332 0 23.0273 0 26.3867L0 39.1797C0 48.125 5.74219 53.8867 14.707 53.8867ZM14.7852 50.4297C7.61719 50.4297 3.45703 46.2891 3.45703 39.1016L3.45703 26.4453C3.45703 23.8867 4.08203 22.2266 5.50781 20.8984L21.4062 6.32812C23.7109 4.23828 26.1133 3.45703 29.2578 3.45703L36.8359 3.45703C39.2578 3.45703 40.7422 4.98047 40.7422 7.38281L40.7227 46.543C40.7227 49.3555 39.5312 50.4297 36.7773 50.4297Z" fill="black" fill-opacity="0.85"/>
  <path d="M13.4766 41.6602L20.3906 41.6602C21.0742 41.6602 21.6406 41.0742 21.6406 40.3711C21.6406 39.6875 21.0742 39.1211 20.3906 39.1211L15 39.1211L15 23.7305C15 22.9102 14.3164 22.2266 13.5156 22.2266C12.6953 22.2266 12.0117 22.9102 12.0117 23.7305L12.0117 40.0781C12.0117 41.0547 12.5391 41.6602 13.4766 41.6602ZM25 41.6406L33.1836 41.6406C33.9062 41.6406 34.375 41.1328 34.375 40.4102C34.375 39.6289 33.8867 39.1797 33.1836 39.1797L27.2852 39.1797L27.2852 39.0234L30.9961 34.1602C33.2422 31.3086 33.9844 29.5703 33.9844 27.5C33.9844 24.375 31.9531 22.0312 28.7695 22.0312C25.8008 22.0312 23.6328 24.5508 23.6328 27.0312C23.6328 27.7734 24.0625 28.3398 24.8633 28.3398C25.5469 28.3398 25.9766 28.0078 26.1719 27.3438C26.6016 25.6055 27.2656 24.4531 28.75 24.4531C30.3516 24.4531 31.1719 25.918 31.1719 27.6367C31.1719 29.5117 30.0195 31.3281 28.7109 33.0664L24.3359 38.7891C23.9453 39.2773 23.5938 39.7852 23.5938 40.4297C23.5938 41.1328 24.0625 41.6406 25 41.6406Z" fill="black" fill-opacity="0.85"/>
 </g>
</svg>
