<?xml version="1.0" encoding="UTF-8"?>
<!--Generator: Apple Native CoreSVG 326-->
<!DOCTYPE svg
PUBLIC "-//W3C//DTD SVG 1.1//EN"
       "http://www.w3.org/Graphics/SVG/1.1/DTD/svg11.dtd">
<svg version="1.1" xmlns="http://www.w3.org/2000/svg" xmlns:xlink="http://www.w3.org/1999/xlink" viewBox="0 0 51.25 50.918">
 <g>
  <rect height="50.918" opacity="0" width="51.25" x="0" y="0"/>
  <path d="M50.8789 25.4492C50.8789 39.4531 39.4531 50.8789 25.4297 50.8789C11.4258 50.8789 0 39.4531 0 25.4492C0 11.4258 11.4258 0 25.4297 0C39.4531 0 50.8789 11.4258 50.8789 25.4492ZM13.7695 16.3672L13.7695 34.1797C13.7695 35.2539 14.375 35.918 15.4102 35.918L22.9492 35.918C23.6914 35.918 24.3359 35.2734 24.3359 34.5117C24.3359 33.7695 23.6914 33.125 22.9492 33.125L17.0898 33.125L17.0898 16.3672C17.0898 15.4688 16.3086 14.707 15.4297 14.707C14.5312 14.707 13.7695 15.4688 13.7695 16.3672ZM26.4648 19.9609C26.4648 20.7617 26.9531 21.3867 27.8516 21.3867C28.5938 21.3867 29.043 21.0352 29.2773 20.293C29.7461 18.3984 30.4492 17.168 32.0898 17.168C33.8086 17.168 34.707 18.75 34.707 20.625C34.707 22.6562 33.4375 24.668 32.0117 26.543L27.2656 32.7539C26.8359 33.3008 26.4258 33.8672 26.4258 34.5703C26.4258 35.332 26.9531 35.8984 27.9688 35.8984L36.9141 35.8984C37.7148 35.8984 38.2227 35.3516 38.2227 34.5508C38.2227 33.7109 37.6953 33.2031 36.9141 33.2031L30.4883 33.2031L30.4883 33.0078L34.5312 27.7539C36.9922 24.6094 37.793 22.7148 37.793 20.4688C37.793 17.0508 35.5859 14.5117 32.0898 14.5117C28.8672 14.5117 26.4648 17.2461 26.4648 19.9609Z" fill="black" fill-opacity="0.85"/>
 </g>
</svg>
