<?xml version="1.0" encoding="UTF-8"?>
<!--Generator: Apple Native CoreSVG 326-->
<!DOCTYPE svg
PUBLIC "-//W3C//DTD SVG 1.1//EN"
       "http://www.w3.org/Graphics/SVG/1.1/DTD/svg11.dtd">
<svg version="1.1" xmlns="http://www.w3.org/2000/svg" xmlns:xlink="http://www.w3.org/1999/xlink" viewBox="0 0 51.25 50.918">
 <g>
  <rect height="50.918" opacity="0" width="51.25" x="0" y="0"/>
  <path d="M25.4297 50.8789C39.4727 50.8789 50.8789 39.4922 50.8789 25.4492C50.8789 11.4062 39.4727 0 25.4297 0C11.3867 0 0 11.4062 0 25.4492C0 39.4922 11.3867 50.8789 25.4297 50.8789ZM25.4297 47.2461C13.3789 47.2461 3.63281 37.5 3.63281 25.4492C3.63281 13.3984 13.3789 3.65234 25.4297 3.65234C37.4805 3.65234 47.2266 13.3984 47.2266 25.4492C47.2266 37.5 37.4805 47.2461 25.4297 47.2461Z" fill="black" fill-opacity="0.85"/>
  <path d="M15.6445 35.6641L23.0078 35.6641C23.7305 35.6641 24.3555 35.0391 24.3555 34.2969C24.3555 33.5742 23.7305 32.9492 23.0078 32.9492L17.2656 32.9492L17.2656 16.5625C17.2656 15.7031 16.543 14.9609 15.6836 14.9609C14.8047 14.9609 14.082 15.7031 14.082 16.5625L14.082 33.9844C14.082 35.0195 14.6484 35.6641 15.6445 35.6641ZM27.8906 35.6445L36.6211 35.6445C37.4023 35.6445 37.8906 35.1172 37.8906 34.3359C37.8906 33.5156 37.3828 33.0273 36.6211 33.0273L30.332 33.0273L30.332 32.8516L34.2969 27.6758C36.6992 24.6289 37.4805 22.7734 37.4805 20.5859C37.4805 17.2461 35.332 14.7656 31.9141 14.7656C28.7695 14.7656 26.4453 17.4414 26.4453 20.0781C26.4453 20.8789 26.9141 21.4648 27.7734 21.4648C28.4961 21.4648 28.9453 21.1328 29.1602 20.4102C29.6094 18.5547 30.3125 17.3438 31.9141 17.3438C33.6133 17.3438 34.4922 18.9062 34.4922 20.7227C34.4922 22.7148 33.2617 24.668 31.8555 26.5039L27.207 32.5977C26.7969 33.125 26.4062 33.6719 26.4062 34.3359C26.4062 35.0977 26.9141 35.6445 27.8906 35.6445Z" fill="black" fill-opacity="0.85"/>
 </g>
</svg>
