<?xml version="1.0" encoding="UTF-8"?>
<!--Generator: Apple Native CoreSVG 326-->
<!DOCTYPE svg
PUBLIC "-//W3C//DTD SVG 1.1//EN"
       "http://www.w3.org/Graphics/SVG/1.1/DTD/svg11.dtd">
<svg version="1.1" xmlns="http://www.w3.org/2000/svg" xmlns:xlink="http://www.w3.org/1999/xlink" viewBox="0 0 64.7461 44.5953">
 <g>
  <rect height="44.5953" opacity="0" width="64.7461" x="0" y="0"/>
  <path d="M64.375 9.4363L64.375 25.1785C64.375 30.4324 63.5742 32.7566 59.668 34.7683L45.4688 42.0535C40.3516 44.6902 36.7773 45.3543 31.0352 43.6746L9.25781 37.3074C2.69531 35.3738 0 31.5652 0 25.1785L0 9.51443C0 5.08083 2.85156 2.17068 7.28516 2.17068L57.0703 2.15115C61.5039 2.15115 64.375 5.04177 64.375 9.4363ZM32.793 14.3191C32.6367 14.8269 32.5781 15.2761 32.5781 15.6863C32.5781 16.448 33.0859 17.0535 34.0039 17.0535C34.8047 17.0535 35.2344 16.7215 35.4492 15.9207C35.8203 14.2996 36.7188 13.1863 38.3203 13.1863C40.1367 13.1863 41.0547 14.6121 41.0547 16.4285C41.0547 18.4207 39.8828 19.8855 37.8711 19.8855L37.1484 19.8855C36.3477 19.8855 35.8789 20.3933 35.8789 21.1355C35.8789 21.8777 36.3672 22.3465 37.1484 22.3465L37.9102 22.3465C40.2148 22.3465 41.5039 23.616 41.5039 25.9988C41.5039 27.9129 40.5078 29.573 38.4375 29.573C36.4258 29.573 35.4688 28.1863 35.1758 26.8972C34.9609 26.116 34.4727 25.7058 33.7305 25.7058C32.832 25.7058 32.2461 26.2527 32.2461 27.1511C32.2461 27.6004 32.3242 28.0691 32.4609 28.4988C33.1836 30.8621 35.6836 32.2488 38.418 32.2488C42.0117 32.2488 44.7461 29.9051 44.7461 26.0965C44.7461 22.991 42.9492 21.2722 40.6641 21.0574L40.6641 20.9793C43.0078 20.3543 44.1211 18.2449 44.1211 16.0769C44.1211 12.6004 41.6211 10.5496 38.3203 10.5496C35.6836 10.5496 33.5156 12.034 32.793 14.3191ZM19.5117 12.2879L19.5117 30.1199C19.5117 31.1941 20.1172 31.8582 21.1328 31.8582L28.6719 31.8582C29.4141 31.8582 30.0586 31.2136 30.0586 30.4324C30.0586 29.6902 29.4141 29.0457 28.6719 29.0457L22.8125 29.0457L22.8125 12.2879C22.8125 11.3894 22.0703 10.6472 21.1523 10.6472C20.2734 10.6472 19.5117 11.3894 19.5117 12.2879Z" fill="black" fill-opacity="0.85"/>
 </g>
</svg>
