<?xml version="1.0" encoding="UTF-8"?>
<!--Generator: Apple Native CoreSVG 326-->
<!DOCTYPE svg
PUBLIC "-//W3C//DTD SVG 1.1//EN"
       "http://www.w3.org/Graphics/SVG/1.1/DTD/svg11.dtd">
<svg version="1.1" xmlns="http://www.w3.org/2000/svg" xmlns:xlink="http://www.w3.org/1999/xlink" viewBox="0 0 51.25 50.918">
 <g>
  <rect height="50.918" opacity="0" width="51.25" x="0" y="0"/>
  <path d="M50.8789 25.4492C50.8789 39.4922 39.4727 50.8789 25.4297 50.8789C11.3867 50.8789 0 39.4922 0 25.4492C0 11.4062 11.3867 0 25.4297 0C39.4727 0 50.8789 11.4062 50.8789 25.4492ZM3.63281 25.4492C3.63281 37.5 13.3789 47.2461 25.4297 47.2461C37.4805 47.2461 47.2266 37.5 47.2266 25.4492C47.2266 13.3984 37.4805 3.65234 25.4297 3.65234C13.3789 3.65234 3.63281 13.3984 3.63281 25.4492Z" fill="black" fill-opacity="0.85"/>
  <path d="M28.6216 32.4498C28.5903 32.5989 28.5742 32.753 28.5742 32.9102C28.5742 34.2188 29.6875 35.3125 30.9766 35.3125C31.1342 35.3125 31.2884 35.2966 31.4375 35.2656L33.8915 37.7196C32.2466 39.344 30.0812 40.3996 27.5586 40.6836C26.6211 40.7617 26.1914 40.4297 26.1914 39.7461L26.1914 30.0195ZM13.7637 17.5918L19.9765 23.8046C19.8271 23.7683 19.6713 23.75 19.5117 23.75C18.3789 23.75 17.4023 24.6875 17.4023 25.8398C17.4023 26.9727 18.3789 27.9492 19.5117 27.9492C20.6641 27.9492 21.6211 26.9727 21.6211 25.8398C21.6211 25.689 21.6041 25.5414 21.5709 25.399L24.6289 28.457L24.6289 39.7461C24.6289 40.4297 24.1992 40.7617 23.2812 40.6836C20.3125 40.3516 17.8711 38.9648 16.1328 36.8555L14.082 38.5352C13.5938 38.9258 12.9688 38.9648 12.5977 38.4766C12.207 38.0273 12.3438 37.4219 12.8125 37.0117L15.0195 35.1758C13.9844 33.3594 13.3984 31.1328 13.3594 28.6328L10.8398 28.6328C10.1953 28.6328 9.80469 28.2422 9.80469 27.6562C9.80469 27.0703 10.1953 26.6797 10.8398 26.6797L13.4961 26.6797C13.7109 24.7266 14.2969 22.7539 15.1562 21.2305L12.9102 19.3555C12.4414 18.9844 12.3047 18.3398 12.6758 17.8711C12.9635 17.5258 13.3678 17.4455 13.7637 17.5918ZM17.4805 32.9102C17.4805 34.2188 18.5547 35.3125 19.8633 35.3125C21.1523 35.3125 22.2656 34.2188 22.2656 32.9102C22.2656 31.6016 21.1523 30.5078 19.8633 30.5078C18.5547 30.5078 17.4805 31.6016 17.4805 32.9102ZM38.1445 17.8711C38.5156 18.3398 38.3984 18.9648 37.9297 19.3555L35.6836 21.2305C36.5234 22.7539 37.1289 24.7266 37.3438 26.6797L40 26.6797C40.6445 26.6797 41.0352 27.0703 41.0352 27.6562C41.0352 28.2422 40.625 28.6328 39.9805 28.6328L37.4609 28.6328C37.4366 30.1875 37.2009 31.6365 36.7765 32.9464L31.74 27.9057C32.6877 27.7051 33.4375 26.8324 33.4375 25.8398C33.4375 24.6875 32.4609 23.75 31.3281 23.75C30.3195 23.75 29.4606 24.4832 29.262 25.4257L24.6408 20.8007C24.8976 20.8151 25.1542 20.8203 25.4102 20.8203C28.0078 20.8203 30.625 20.293 32.8125 19.2383C33.2422 19.043 33.7695 19.082 34.4531 19.668L36.6602 17.832C37.168 17.4219 37.7539 17.3828 38.1445 17.8711ZM31.7188 10.0781L30.5664 10.5664C29.9805 10.7617 29.8242 11.0547 29.9023 11.5625L29.9609 12.1094C31.6992 13.0859 32.6953 14.6875 32.6953 16.5039C32.6953 17.2656 32.4219 17.793 31.5625 18.2031C30.0391 18.8867 27.7734 19.3359 25.4102 19.3359C24.5957 19.3359 23.7883 19.2817 23.0207 19.1792L18.4991 14.6538C18.9341 13.62 19.7439 12.736 20.8594 12.1094L20.918 11.5625C21.0156 11.0547 20.8594 10.7617 20.2734 10.5664L19.1016 10.0781C17.8906 9.72656 18.5352 7.85156 19.7656 8.30078L21.0547 8.88672C22.1875 9.33594 22.8516 10.0977 22.7734 11.1719L22.7539 11.3281C23.5547 11.0938 24.4531 10.957 25.4102 10.957C26.3672 10.957 27.2656 11.0938 28.0859 11.3281L28.0664 11.1719C27.9688 10.0781 28.6523 9.31641 29.7656 8.88672L31.0547 8.30078C32.2852 7.85156 32.9297 9.72656 31.7188 10.0781Z" fill="black" fill-opacity="0.85"/>
  <path d="M36.5625 37.9883C36.9531 38.3984 37.6172 38.3984 38.0273 37.9883C38.4375 37.5781 38.4375 36.9531 38.0273 36.5234L14.375 12.8711C13.9648 12.4609 13.3008 12.4609 12.8906 12.8711C12.4805 13.2812 12.5 13.9453 12.8906 14.3359Z" fill="black" fill-opacity="0.85"/>
 </g>
</svg>
