<?xml version="1.0" encoding="UTF-8"?>
<!--Generator: Apple Native CoreSVG 326-->
<!DOCTYPE svg
PUBLIC "-//W3C//DTD SVG 1.1//EN"
       "http://www.w3.org/Graphics/SVG/1.1/DTD/svg11.dtd">
<svg version="1.1" xmlns="http://www.w3.org/2000/svg" xmlns:xlink="http://www.w3.org/1999/xlink" viewBox="0 0 62.8711 67.5539">
 <g>
  <rect height="67.5539" opacity="0" width="62.8711" x="0" y="0"/>
  <path d="M14.2656 55.7657L10.7227 58.7281C9.90234 59.4117 8.84766 59.4898 8.20312 58.6695C7.51953 57.8687 7.77344 56.8336 8.57422 56.1695L12.4118 52.9716C12.9531 53.9725 13.5736 54.905 14.2656 55.7657ZM9.45312 40.6812L9.4605 40.8816L4.94141 40.8961C3.82812 40.8961 3.125 40.232 3.125 39.2164C3.125 38.2008 3.82812 37.5367 4.92188 37.5367L9.65824 37.5367C9.52306 38.6113 9.45312 39.6701 9.45312 40.6812ZM59.3555 39.2164C59.3555 40.232 58.6523 40.8961 57.5586 40.8961L53.02 40.8815C53.0271 40.8171 53.0273 40.7492 53.0273 40.6812C53.0273 39.6701 52.9581 38.6113 52.824 37.5367L57.5781 37.5367C58.6523 37.5367 59.3555 38.2008 59.3555 39.2164ZM9.58048 21.0279L14.2064 25.6454C13.722 26.2003 13.2667 26.847 12.8462 27.5675L8.71094 24.1383C7.92969 23.4742 7.65625 22.4195 8.32031 21.6187C8.66257 21.196 9.11379 21.0118 9.58048 21.0279ZM54.1602 21.6187C54.8242 22.4195 54.5703 23.4742 53.7695 24.1383L49.6514 27.5672C49.0902 26.6035 48.4664 25.7716 47.793 25.1148C47.7254 25.052 47.6589 24.9921 47.5943 24.9377L51.6406 21.5601C52.4414 20.8766 53.5156 20.7984 54.1602 21.6187Z" fill="black" fill-opacity="0.85"/>
  <path d="M39.1765 50.57C38.2278 51.0063 37.5781 51.9624 37.5781 53.0836C37.5781 54.5875 38.8086 55.818 40.3516 55.818C41.459 55.818 42.4116 55.1677 42.8467 54.2334L46.3813 57.7616C43.4377 60.5828 39.6097 62.3939 35.1562 62.9273C33.457 63.1031 32.6758 62.4781 32.6758 61.2476L32.6758 44.0811ZM19.3047 30.7343C18.8357 31.2915 18.5547 32.0103 18.5547 32.7906C18.5547 34.5289 19.9805 36.0133 21.7578 36.0133C22.5482 36.0133 23.269 35.7236 23.8248 35.2463L29.8047 41.2152L29.8047 61.2476C29.8047 62.4781 29.043 63.1031 27.3438 62.9273C16.582 61.6383 9.45312 52.8883 9.45312 40.6812C9.45312 35.45 11.3251 28.9416 14.2096 25.6485ZM19.3945 53.0836C19.3945 54.5875 20.625 55.818 22.1484 55.818C23.6914 55.818 24.9219 54.5875 24.9219 53.0836C24.9219 51.5406 23.6914 50.3101 22.1484 50.3101C20.625 50.3101 19.3945 51.5406 19.3945 53.0836ZM47.793 25.1148C50.957 28.2008 53.0273 35.1539 53.0273 40.6812C53.0273 44.179 52.4437 47.3929 51.3401 50.2157L46.4489 45.3298C46.9608 44.6855 47.2656 43.8649 47.2656 42.9664C47.2656 40.9351 45.5859 39.2555 43.5156 39.2555C42.6396 39.2555 41.8278 39.5619 41.1866 40.0732L27.9454 26.8466C29.0397 26.9566 30.1448 27.0094 31.25 27.0094C35.957 27.0094 40.6445 26.0523 44.5898 24.1578C45.4297 23.7867 46.3867 23.8062 47.793 25.1148ZM15.2344 42.9664C15.2344 45.0758 16.9141 46.7555 18.9844 46.7555C21.0352 46.7555 22.7344 45.0758 22.7344 42.9664C22.7344 40.9351 21.0352 39.2555 18.9844 39.2555C16.9141 39.2555 15.2344 40.9351 15.2344 42.9664ZM37.5195 32.7906C37.5195 34.5484 38.9648 36.0133 40.7422 36.0133C42.5 36.0133 43.9453 34.5289 43.9453 32.7906C43.9453 31.0328 42.5 29.5875 40.7422 29.5875C38.9648 29.5875 37.5195 31.0328 37.5195 32.7906Z" fill="black" fill-opacity="0.85"/>
  <path d="M42.5391 7.51718L40.5078 8.39609C39.4141 8.78671 39.0234 9.39218 39.2188 10.2906L39.3809 11.1361C42.5509 12.9391 44.4141 15.848 44.4141 19.1969C44.4141 20.5445 43.9062 21.5016 42.3633 22.2437C39.6289 23.5133 35.4883 24.2945 31.25 24.2945C28.9915 24.2945 26.7606 24.0727 24.7631 23.6677L18.3142 17.2259C18.8915 14.7206 20.5821 12.5801 23.106 11.1436L23.2812 10.2906C23.4766 9.39218 23.0664 8.78671 21.9922 8.39609L19.9609 7.51718C17.9102 6.89218 18.9453 3.76718 21.0742 4.5289L23.3398 5.54452C25.4494 6.3559 26.4937 7.81643 26.4085 9.78908C27.868 9.3763 29.4949 9.15781 31.25 9.15781C33.0051 9.15781 34.632 9.3763 36.0915 9.78908C36.0063 7.81643 37.0506 6.3559 39.1602 5.54452L41.4258 4.5289C43.5547 3.76718 44.5898 6.89218 42.5391 7.51718Z" fill="black" fill-opacity="0.85"/>
  <path d="M3.24219 10.7984L56.8164 64.2945C57.4805 64.9391 58.5547 64.9391 59.1797 64.2945C59.8242 63.6305 59.8242 62.5953 59.1797 61.9312L5.60547 8.43515C4.96094 7.79062 3.90625 7.77109 3.24219 8.43515C2.59766 9.07968 2.59766 10.1539 3.24219 10.7984Z" fill="black" fill-opacity="0.85"/>
 </g>
</svg>
