<?xml version="1.0" encoding="UTF-8"?>
<!--Generator: Apple Native CoreSVG 326-->
<!DOCTYPE svg
PUBLIC "-//W3C//DTD SVG 1.1//EN"
       "http://www.w3.org/Graphics/SVG/1.1/DTD/svg11.dtd">
<svg version="1.1" xmlns="http://www.w3.org/2000/svg" xmlns:xlink="http://www.w3.org/1999/xlink" viewBox="0 0 46.9531 57.3242">
 <g>
  <rect height="57.3242" opacity="0" width="46.9531" x="0" y="0"/>
  <path d="M23.3008 12.5195C28.9258 12.5195 33.7305 9.19922 34.4727 4.57031C34.7266 2.94922 33.8867 1.71875 32.2656 1.25C27.4414-0.117188 19.1406-0.117188 14.3164 1.25C12.6953 1.71875 11.875 2.94922 12.1289 4.57031C12.8711 9.19922 17.6758 12.5195 23.3008 12.5195ZM21.5625 25.957L25.0195 25.957L25.0195 11.25L21.5625 11.25ZM23.3008 35.8008C32.4414 35.8008 40.1172 37.5 44.7656 40.4883C42.5 36.0547 38.2812 31.7773 33.3594 29.375C31.9922 24.6289 27.8906 21.6016 23.3008 21.6016C18.6914 21.6016 14.5898 24.6289 13.2227 29.375C8.30078 31.7773 4.08203 36.0547 1.81641 40.4883C6.46484 37.5 14.1406 35.8008 23.3008 35.8008ZM23.3008 57.3242C37.2656 57.3242 46.582 53.3789 46.582 47.5586C46.582 41.7969 35.0391 38.7305 23.3008 38.7305C11.5625 38.7305 0 41.6992 0 47.5586C0 53.3789 9.31641 57.3242 23.3008 57.3242ZM23.3008 49.1602C18.4961 49.1602 14.4141 46.4453 14.1406 42.9297C16.875 42.4609 19.9805 42.1875 23.3008 42.1875C26.5625 42.1875 29.6875 42.4805 32.4414 42.9492C32.1484 46.4258 28.125 49.1602 23.3008 49.1602Z" fill="black" fill-opacity="0.85"/>
 </g>
</svg>
