<?xml version="1.0" encoding="UTF-8"?>
<!--Generator: Apple Native CoreSVG 326-->
<!DOCTYPE svg
PUBLIC "-//W3C//DTD SVG 1.1//EN"
       "http://www.w3.org/Graphics/SVG/1.1/DTD/svg11.dtd">
<svg version="1.1" xmlns="http://www.w3.org/2000/svg" xmlns:xlink="http://www.w3.org/1999/xlink" viewBox="0 0 46.1133 58.6914">
 <g>
  <rect height="58.6914" opacity="0" width="46.1133" x="0" y="0"/>
  <path d="M25 30.7227L45.0195 10.7031C46.4062 9.31641 45.6641 7.57812 43.7305 6.97266C38.5547 5.3125 33.418 4.94141 26.8164 5.35156L25.5469 4.00391C23.3984 1.71875 20.3906 1.64062 18.0859 3.86719C15.8789 6.17188 15.8984 9.25781 18.2227 11.3281L19.5898 12.5391C19.1602 19.082 19.5117 24.2578 21.1523 29.4922C21.7773 31.4648 23.4961 32.2461 25 30.7227ZM18.9844 7.08984L21.2891 4.76562L17.168 0.683594C16.5234 0.0390625 15.5078 0.0390625 14.8828 0.683594C14.2578 1.28906 14.2383 2.30469 14.8828 2.96875ZM36.0938 28.7305C39.8438 28.7305 42.9297 25.625 42.9297 21.9141C42.9297 20.4297 42.4219 18.9648 41.4258 17.7734L31.9531 27.2461C33.125 28.2227 34.5898 28.7305 36.0938 28.7305ZM4.27734 33.3398L22.5586 16.5234L20.1953 14.0234L1.91406 30.8398ZM3.47656 35.2734C5.42969 35.2734 6.97266 33.7695 6.97266 31.7969C6.97266 29.8633 5.42969 28.3008 3.47656 28.3008C1.52344 28.3008 0 29.8633 0 31.7969C0 33.7695 1.52344 35.2734 3.47656 35.2734ZM13.5352 44.1992L15.9766 41.7578L4.14062 29.9414L1.69922 32.3828ZM14.2578 46.582C16.1914 46.582 17.7344 45.0586 17.7344 43.0859C17.7344 41.1523 16.1914 39.6094 14.2578 39.6094C12.2852 39.6094 10.7617 41.1523 10.7617 43.0859C10.7617 45.0586 12.2852 46.582 14.2578 46.582ZM12.5195 55.6641L15.9766 55.6641L15.9766 43.2812L12.5195 43.2812ZM2.92969 58.6914L28.0664 58.6914C28.8672 58.6914 29.4336 58.1055 29.4336 57.2656C29.4336 55.625 28.0469 54.4531 25.8008 54.4531L5.19531 54.4531C2.96875 54.4531 1.58203 55.625 1.58203 57.2656C1.58203 58.1055 2.12891 58.6914 2.92969 58.6914Z" fill="black" fill-opacity="0.85"/>
 </g>
</svg>
