<?xml version="1.0" encoding="UTF-8"?>
<!--Generator: Apple Native CoreSVG 326-->
<!DOCTYPE svg
PUBLIC "-//W3C//DTD SVG 1.1//EN"
       "http://www.w3.org/Graphics/SVG/1.1/DTD/svg11.dtd">
<svg version="1.1" xmlns="http://www.w3.org/2000/svg" xmlns:xlink="http://www.w3.org/1999/xlink" viewBox="0 0 47.7549 58.1836">
 <g>
  <rect height="58.1836" opacity="0" width="47.7549" x="0" y="0"/>
  <path d="M23.7309 13.3789C29.5122 13.3789 34.5317 9.96094 35.2934 5.11719C35.5864 3.28125 34.6294 1.875 32.7739 1.32812C27.5005-0.15625 19.9614-0.15625 14.688 1.32812C12.8325 1.875 11.8755 3.28125 12.1684 5.11719C12.9497 9.96094 17.9497 13.3789 23.7309 13.3789ZM21.9927 23.7891L25.4497 23.7891L25.4497 11.7188L21.9927 11.7188ZM23.6919 58.1836C37.9692 58.1836 47.4614 53.8867 47.3833 47.5977L47.3833 47.2852C47.2075 40.8984 41.3481 33.0859 34.063 29.5312C32.7544 24.9023 28.4966 21.6602 23.6919 21.6602C18.9067 21.6602 14.6294 24.9023 13.3208 29.5312C6.0747 33.0664 0.254385 40.8398 0.000478642 47.1875L0.000478642 47.5977C-0.0776464 53.8867 9.41454 58.1836 23.6919 58.1836ZM3.04735 47.5977C3.08642 42.9883 11.2895 40.0391 23.6919 40.0391C36.1333 40.0391 44.3364 42.9883 44.3364 47.5977C44.3364 52.1875 36.1333 55.1367 23.6919 55.1367C11.2895 55.1367 3.08642 52.1875 3.04735 47.5977ZM23.6919 49.2383C28.3989 49.2383 32.7153 46.4062 32.7153 43.0469C30.1177 42.6367 27.0708 42.3633 23.6919 42.3633C20.3325 42.3633 17.2856 42.6367 14.688 43.0469C14.688 46.4062 18.9653 49.2383 23.6919 49.2383Z" fill="black" fill-opacity="0.85"/>
 </g>
</svg>
