<?xml version="1.0" encoding="UTF-8"?>
<!--Generator: Apple Native CoreSVG 326-->
<!DOCTYPE svg
PUBLIC "-//W3C//DTD SVG 1.1//EN"
       "http://www.w3.org/Graphics/SVG/1.1/DTD/svg11.dtd">
<svg version="1.1" xmlns="http://www.w3.org/2000/svg" xmlns:xlink="http://www.w3.org/1999/xlink" viewBox="0 0 38.1811 59.1992">
 <g>
  <rect height="59.1992" opacity="0" width="38.1811" x="0" y="0"/>
  <path d="M18.905 28.8477C24.3737 28.8477 29.7839 28.5352 34.1003 27.8711C37.4597 27.3633 38.6706 24.8633 37.2253 21.582L29.7448 4.6875C28.3581 1.54297 25.9948 0 22.5183 0L15.3112 0C11.8347 0 9.47139 1.54297 8.08467 4.6875L0.604205 21.582C-0.841107 24.8633 0.350299 27.3633 3.70967 27.8711C8.04561 28.5352 13.4558 28.8477 18.905 28.8477ZM18.905 25.6641C14.4128 25.6641 9.90108 25.4492 4.88155 24.8438C3.37764 24.668 3.08467 23.7305 3.72921 22.2852L10.9362 6.01562C11.7761 4.10156 13.2409 3.16406 15.3112 3.16406L22.5183 3.16406C24.5886 3.16406 26.0534 4.10156 26.8933 6.01562L34.0808 22.2852C34.7253 23.7305 34.4323 24.668 32.9284 24.8438C27.9089 25.4492 23.4167 25.6641 18.905 25.6641ZM17.1081 32.5586L20.6823 32.5586L20.6823 27.8516L17.1081 27.8516ZM14.862 59.1602L22.9284 59.1602C29.0417 59.1602 32.655 55.9766 32.655 50.5859C32.655 47.0312 31.5417 41.8359 29.6472 36.6406C28.5925 33.6914 26.1706 31.9531 22.8308 31.9531L14.9792 31.9531C11.6198 31.9531 9.21749 33.6914 8.14327 36.6406C6.24874 41.8359 5.13546 47.0312 5.13546 50.5859C5.13546 55.9766 8.74874 59.1602 14.862 59.1602ZM14.862 55.9961C10.7214 55.9961 8.29952 54.0039 8.29952 50.5859C8.29952 47.3828 9.33467 42.5781 11.073 37.7148C11.6394 36.0742 12.9675 35.1172 14.9792 35.1172L22.8308 35.1172C24.823 35.1172 26.1511 36.0742 26.7175 37.7148C28.4558 42.5781 29.5105 47.3828 29.5105 50.5859C29.5105 54.0039 27.069 55.9961 22.9284 55.9961Z" fill="black" fill-opacity="0.85"/>
 </g>
</svg>
