<?xml version="1.0" encoding="UTF-8"?>
<!--Generator: Apple Native CoreSVG 326-->
<!DOCTYPE svg
PUBLIC "-//W3C//DTD SVG 1.1//EN"
       "http://www.w3.org/Graphics/SVG/1.1/DTD/svg11.dtd">
<svg version="1.1" xmlns="http://www.w3.org/2000/svg" xmlns:xlink="http://www.w3.org/1999/xlink" viewBox="0 0 46.2891 37.9492">
 <g>
  <rect height="37.9492" opacity="0" width="46.2891" x="0" y="0"/>
  <path d="M0 36.2109C0 37.168 0.78125 37.9492 1.73828 37.9492C2.67578 37.9492 3.45703 37.168 3.45703 36.2109L3.45703 1.79688C3.45703 0.839844 2.67578 0.0585938 1.73828 0.0585938C0.78125 0.0585938 0 0.839844 0 1.79688ZM42.4609 36.2109C42.4609 37.168 43.2422 37.9492 44.1797 37.9492C45.1367 37.9492 45.918 37.168 45.918 36.2109L45.918 1.79688C45.918 0.839844 45.1367 0.0585938 44.1797 0.0585938C43.2422 0.0585938 42.4609 0.839844 42.4609 1.79688Z" fill="black" fill-opacity="0.85"/>
 </g>
</svg>
