<?xml version="1.0" encoding="UTF-8"?>
<!--Generator: Apple Native CoreSVG 326-->
<!DOCTYPE svg
PUBLIC "-//W3C//DTD SVG 1.1//EN"
       "http://www.w3.org/Graphics/SVG/1.1/DTD/svg11.dtd">
<svg version="1.1" xmlns="http://www.w3.org/2000/svg" xmlns:xlink="http://www.w3.org/1999/xlink" viewBox="0 0 39.082 53.8477">
 <g>
  <rect height="53.8477" opacity="0" width="39.082" x="0" y="0"/>
  <path d="M0 46.25C0 51.2891 2.51953 53.8477 7.51953 53.8477L31.1914 53.8477C36.1914 53.8477 38.7109 51.2891 38.7109 46.25L38.7109 7.61719C38.7109 2.57812 36.1914 0.0195312 31.1914 0.0195312L7.51953 0.0195312C2.51953 0.0195312 0 2.57812 0 7.61719ZM13.0469 8.32031C12.1875 8.32031 11.5039 7.61719 11.5039 6.77734C11.5039 5.9375 12.1875 5.23438 13.0469 5.23438L25.6641 5.23438C26.5234 5.23438 27.2266 5.9375 27.2266 6.77734C27.2266 7.61719 26.5234 8.32031 25.6641 8.32031Z" fill="black" fill-opacity="0.85"/>
 </g>
</svg>
