<?xml version="1.0" encoding="UTF-8"?>
<!--Generator: Apple Native CoreSVG 326-->
<!DOCTYPE svg
PUBLIC "-//W3C//DTD SVG 1.1//EN"
       "http://www.w3.org/Graphics/SVG/1.1/DTD/svg11.dtd">
<svg version="1.1" xmlns="http://www.w3.org/2000/svg" xmlns:xlink="http://www.w3.org/1999/xlink" viewBox="0 0 42.3633 56.9336">
 <g>
  <rect height="56.9336" opacity="0" width="42.3633" x="0" y="0"/>
  <path d="M2.16797 50.5859L36.9531 50.5859C38.0273 50.5859 38.7891 49.8438 38.7891 48.8086C38.7891 47.7539 38.0273 47.0312 36.9531 47.0312L24.4336 47.0312C13.6523 47.0312 4.23828 38.8867 4.23828 27.207C4.23828 16.9336 11.2109 10.0977 21.2305 10.0977C30.332 10.0977 37.8125 16.0156 38.1055 25.3125C38.1641 26.7578 38.8867 27.5195 40.1367 27.5195C41.4062 27.5195 42.0898 26.7188 42.0898 25.332C42.0117 14.1406 32.6562 6.28906 21.2305 6.28906C9.62891 6.28906 0 14.375 0 26.6016C0 36.5039 6.25 44.082 12.7734 46.9141L12.7734 47.0312L2.16797 47.0312C0.976562 47.0312 0.292969 47.8711 0.292969 48.8281C0.292969 49.8828 1.05469 50.5859 2.16797 50.5859ZM16.1328 26.9531C16.9727 26.9531 17.5781 26.3477 17.5781 25.4883L17.5781 1.44531C17.5781 0.605469 16.9727 0 16.1328 0C15.293 0 14.6875 0.605469 14.6875 1.44531L14.6875 25.4883C14.6875 26.3477 15.293 26.9531 16.1328 26.9531ZM26.543 26.9531C27.3633 26.9531 27.9688 26.3477 27.9688 25.4883L27.9688 1.44531C27.9688 0.605469 27.3633 0 26.543 0C25.7031 0 25.0977 0.605469 25.0977 1.44531L25.0977 25.4883C25.0977 26.3477 25.7031 26.9531 26.543 26.9531Z" fill="black" fill-opacity="0.85"/>
 </g>
</svg>
