<?xml version="1.0" encoding="UTF-8"?>
<!--Generator: Apple Native CoreSVG 326-->
<!DOCTYPE svg
PUBLIC "-//W3C//DTD SVG 1.1//EN"
       "http://www.w3.org/Graphics/SVG/1.1/DTD/svg11.dtd">
<svg version="1.1" xmlns="http://www.w3.org/2000/svg" xmlns:xlink="http://www.w3.org/1999/xlink" viewBox="0 0 51.25 50.918">
 <g>
  <rect height="50.918" opacity="0" width="51.25" x="0" y="0"/>
  <path d="M25.4297 50.8789C39.4727 50.8789 50.8789 39.4922 50.8789 25.4492C50.8789 11.4062 39.4727 0 25.4297 0C11.3867 0 0 11.4062 0 25.4492C0 39.4922 11.3867 50.8789 25.4297 50.8789ZM25.4297 47.2461C13.3789 47.2461 3.63281 37.5 3.63281 25.4492C3.63281 13.3984 13.3789 3.65234 25.4297 3.65234C37.4805 3.65234 47.2266 13.3984 47.2266 25.4492C47.2266 37.5 37.4805 47.2461 25.4297 47.2461Z" fill="black" fill-opacity="0.85"/>
  <path d="M16.0938 36.4648L33.2422 36.4648C33.8867 36.4648 34.375 36.0352 34.375 35.3906C34.375 34.7656 33.8867 34.3359 33.2422 34.3359L27.5586 34.3359C21.582 34.3359 17.5 29.9609 17.5 24.8242C17.5 19.707 21.0352 16.7188 25.5664 16.7188C29.9609 16.7188 33.418 19.707 33.5547 23.7891C33.5742 24.5508 34.0234 25.0781 34.7656 25.0781C35.5078 25.0781 35.9766 24.5312 35.9766 23.7891C35.9375 18.2812 31.0156 14.4141 25.5664 14.4141C19.5508 14.4141 14.9609 18.5742 14.9609 24.4141C14.9609 28.6133 17.1289 32.5391 20.8789 34.2578L20.8789 34.3555L16.0938 34.3555C15.4297 34.3555 14.9805 34.7656 14.9805 35.3906C14.9805 36.0352 15.4297 36.4648 16.0938 36.4648ZM23.0664 24.7852C23.5156 24.7852 23.8477 24.4531 23.8477 24.0039L23.8477 12.207C23.8477 11.7578 23.5156 11.4453 23.0664 11.4453C22.6367 11.4453 22.3047 11.7578 22.3047 12.207L22.3047 24.0039C22.3047 24.4531 22.6367 24.7852 23.0664 24.7852ZM28.1445 24.7852C28.5938 24.7852 28.9258 24.4531 28.9258 24.0039L28.9258 12.207C28.9258 11.7578 28.5938 11.4453 28.1445 11.4453C27.7148 11.4453 27.3828 11.7578 27.3828 12.207L27.3828 24.0039C27.3828 24.4531 27.7148 24.7852 28.1445 24.7852Z" fill="black" fill-opacity="0.85"/>
 </g>
</svg>
