<?xml version="1.0" encoding="UTF-8"?>
<!--Generator: Apple Native CoreSVG 326-->
<!DOCTYPE svg
PUBLIC "-//W3C//DTD SVG 1.1//EN"
       "http://www.w3.org/Graphics/SVG/1.1/DTD/svg11.dtd">
<svg version="1.1" xmlns="http://www.w3.org/2000/svg" xmlns:xlink="http://www.w3.org/1999/xlink" viewBox="0 0 56.2305 55.8789">
 <g>
  <rect height="55.8789" opacity="0" width="56.2305" x="0" y="0"/>
  <path d="M27.9297 55.8594C43.2812 55.8594 55.8594 43.3008 55.8594 27.9297C55.8594 12.5586 43.2812 0 27.9297 0C12.5781 0 0 12.5586 0 27.9297C0 43.3008 12.5781 55.8594 27.9297 55.8594ZM27.9297 46.6797C17.5586 46.6797 9.16016 38.3008 9.16016 27.9297C9.16016 17.5586 17.5586 9.16016 27.9297 9.16016C38.3008 9.16016 46.6992 17.5586 46.6992 27.9297C46.6992 38.3008 38.3008 46.6797 27.9297 46.6797Z" fill="black" fill-opacity="0.85"/>
  <path d="M18.6133 38.9453L35.7617 38.9453C36.4062 38.9453 36.875 38.5156 36.875 37.8711C36.875 37.2461 36.4062 36.8164 35.7617 36.8164L30.0781 36.8164C24.1016 36.8164 20.0195 32.4414 20.0195 27.3047C20.0195 22.1875 23.5547 19.1992 28.0859 19.1992C32.4805 19.1992 35.9375 22.1875 36.0742 26.2695C36.0938 27.0312 36.543 27.5586 37.2852 27.5586C38.0273 27.5586 38.4961 27.0117 38.4961 26.2695C38.4375 20.7617 33.5352 16.8945 28.0859 16.8945C22.0703 16.8945 17.4805 21.0547 17.4805 26.8945C17.4805 31.0938 19.6484 35.0195 23.3984 36.7383L23.3984 36.8359L18.6133 36.8359C17.9492 36.8359 17.5 37.2461 17.5 37.8711C17.5 38.5156 17.9492 38.9453 18.6133 38.9453ZM25.5859 27.2656C26.0352 27.2656 26.3672 26.9336 26.3672 26.4844L26.3672 14.6875C26.3672 14.2383 26.0352 13.9258 25.5859 13.9258C25.1367 13.9258 24.8242 14.2383 24.8242 14.6875L24.8242 26.4844C24.8242 26.9336 25.1367 27.2656 25.5859 27.2656ZM30.6641 27.2656C31.1133 27.2656 31.4258 26.9336 31.4258 26.4844L31.4258 14.6875C31.4258 14.2383 31.1133 13.9258 30.6641 13.9258C30.2148 13.9258 29.9023 14.2383 29.9023 14.6875L29.9023 26.4844C29.9023 26.9336 30.2148 27.2656 30.6641 27.2656Z" fill="black" fill-opacity="0.85"/>
 </g>
</svg>
