<?xml version="1.0" encoding="UTF-8"?>
<!--Generator: Apple Native CoreSVG 326-->
<!DOCTYPE svg
PUBLIC "-//W3C//DTD SVG 1.1//EN"
       "http://www.w3.org/Graphics/SVG/1.1/DTD/svg11.dtd">
<svg version="1.1" xmlns="http://www.w3.org/2000/svg" xmlns:xlink="http://www.w3.org/1999/xlink" viewBox="0 0 59.3945 59.043">
 <g>
  <rect height="59.043" opacity="0" width="59.3945" x="0" y="0"/>
  <path d="M1.52344 27.9688C0.683594 27.9688 0 28.6523 0 29.5117C0 30.3516 0.683594 31.0352 1.52344 31.0352L57.5 31.0352C58.3789 31.0352 59.0234 30.3516 59.0234 29.5117C59.0234 28.6523 58.3789 27.9688 57.5 27.9688ZM31.0547 1.50391C31.0547 0.644531 30.3711 0 29.5117 0C28.6719 0 27.9883 0.644531 27.9883 1.50391L27.9883 57.4805C27.9883 58.3398 28.6719 59.0234 29.5117 59.0234C30.3711 59.0234 31.0547 58.3398 31.0547 57.4805ZM40.625 6.71875C40.9375 5.91797 40.5664 5.01953 39.8047 4.70703C38.9844 4.41406 38.1055 4.76562 37.7734 5.52734L18.3984 52.3047C18.0859 53.0859 18.4766 53.9844 19.2188 54.2969C20.0391 54.6094 20.918 54.2188 21.25 53.457ZM53.9258 7.28516C54.4727 6.69922 54.4727 5.74219 53.8867 5.13672C53.2812 4.55078 52.3242 4.57031 51.7383 5.13672L5.11719 51.7188C4.55078 52.3047 4.57031 53.2617 5.13672 53.8672C5.76172 54.4531 6.71875 54.4336 7.30469 53.8672ZM53.5156 21.2305C54.2578 20.918 54.6094 20.0391 54.2773 19.2383C53.9844 18.4766 53.1055 18.1055 52.3047 18.418L5.52734 37.7539C4.78516 38.1055 4.41406 38.9648 4.74609 39.7656C5.03906 40.5469 5.91797 40.8984 6.71875 40.5859ZM52.3047 40.625C53.1055 40.9375 53.9844 40.5469 54.3164 39.7656C54.6094 38.9648 54.2578 38.125 53.457 37.793L6.71875 18.3789C5.91797 18.0859 5.05859 18.4766 4.72656 19.2578C4.41406 20.0391 4.76562 20.8789 5.56641 21.2109ZM51.7383 53.9062C52.3047 54.4727 53.2812 54.4531 53.8867 53.8672C54.4727 53.2617 54.4727 52.3633 53.8867 51.7383L7.30469 5.09766C6.71875 4.55078 5.76172 4.55078 5.13672 5.13672C4.57031 5.74219 4.57031 6.66016 5.13672 7.26562ZM37.7734 53.4961C38.1055 54.2578 39.0039 54.6094 39.7656 54.2578C40.5469 53.9844 40.8984 53.0859 40.6055 52.3242L21.25 5.52734C20.918 4.76562 20.0391 4.41406 19.2578 4.74609C18.4766 5.03906 18.125 5.87891 18.4375 6.67969Z" fill="black" fill-opacity="0.85"/>
 </g>
</svg>
