<?xml version="1.0" encoding="UTF-8"?>
<!--Generator: Apple Native CoreSVG 326-->
<!DOCTYPE svg
PUBLIC "-//W3C//DTD SVG 1.1//EN"
       "http://www.w3.org/Graphics/SVG/1.1/DTD/svg11.dtd">
<svg version="1.1" xmlns="http://www.w3.org/2000/svg" xmlns:xlink="http://www.w3.org/1999/xlink" viewBox="0 0 51.582 56.3867">
 <g>
  <rect height="56.3867" opacity="0" width="51.582" x="0" y="0"/>
  <path d="M0 28.1836C0 39.5898 9.74609 45.8008 21.875 45.8008C23.0469 45.8008 24.2188 45.7422 25.3711 45.6445L24.5898 42.4805C23.75 42.5391 22.8711 42.5781 22.0117 42.5781C11.7383 42.5781 3.26172 37.8516 3.26172 28.2031C3.26172 17.1289 15.957 9.33594 28.125 9.33594C38.8086 9.33594 47.9688 15.957 47.9688 26.0547C47.9688 35.2734 37.9883 43.2422 28.5547 43.2422C26.6797 43.2422 25.2539 42.5 25.2539 41.1719C25.2539 38.9258 28.4961 37.4219 32.0312 37.4219C36.4648 37.4219 39.8438 40.6836 39.8438 45.1367C39.8438 48.3203 38.0078 51.4258 34.9609 53.2422C34.3359 53.6719 33.8867 54.1211 33.8867 54.9023C33.8867 55.6836 34.5117 56.3867 35.5469 56.3867C35.9961 56.3867 36.3086 56.2695 36.7188 55.9961C40.625 53.5742 43.0859 49.375 43.0859 45.0391C43.0859 38.8281 38.1641 34.1406 31.7969 34.1406C26.4062 34.1406 21.9727 37.0312 21.9727 41.2695C21.9727 44.4727 24.6484 46.4844 28.5547 46.4844C39.7266 46.4844 51.2109 37.1875 51.2109 26.0352C51.2109 14.2383 40.6641 6.05469 28.1055 6.05469C14.2969 6.05469 0 15.0977 0 28.1836Z" fill="black" fill-opacity="0.85"/>
 </g>
</svg>
