<?xml version="1.0" encoding="UTF-8"?>
<!--Generator: Apple Native CoreSVG 326-->
<!DOCTYPE svg
PUBLIC "-//W3C//DTD SVG 1.1//EN"
       "http://www.w3.org/Graphics/SVG/1.1/DTD/svg11.dtd">
<svg version="1.1" xmlns="http://www.w3.org/2000/svg" xmlns:xlink="http://www.w3.org/1999/xlink" viewBox="0 0 57.9492 48.3398">
 <g>
  <rect height="48.3398" opacity="0" width="57.9492" x="0" y="0"/>
  <path d="M3.00781 24.3164L54.5898 24.3164L54.5898 21.0742L3.00781 21.0742ZM13.0469 27.793L19.4727 27.793C21.1719 27.793 22.1484 26.8359 22.1484 25.1562L22.1484 20.2539C22.1484 18.5742 21.1719 17.6172 19.4727 17.6172L13.0469 17.6172C11.3477 17.6172 10.3711 18.5742 10.3711 20.2539L10.3711 25.1562C10.3711 26.8359 11.3477 27.793 13.0469 27.793ZM38.0859 27.793L44.5117 27.793C46.2109 27.793 47.1875 26.8359 47.1875 25.1562L47.1875 20.2539C47.1875 18.5742 46.2109 17.6172 44.5117 17.6172L38.0859 17.6172C36.3867 17.6172 35.4102 18.5742 35.4102 20.2539L35.4102 25.1562C35.4102 26.8359 36.3867 27.793 38.0859 27.793ZM7.40234 48.3203L50.1758 48.3203C55.1367 48.3203 57.5781 45.918 57.5781 41.0156L57.5781 16.2695C57.5781 11.3477 55.1367 8.94531 50.1758 8.94531L7.40234 8.94531C2.46094 8.94531 0 11.3477 0 16.2695L0 41.0156C0 45.918 2.46094 48.3203 7.40234 48.3203ZM7.44141 44.8828C4.80469 44.8828 3.45703 43.5742 3.45703 40.8594L3.45703 16.4258C3.45703 13.6914 4.80469 12.3828 7.44141 12.3828L50.1367 12.3828C52.793 12.3828 54.1211 13.6914 54.1211 16.4258L54.1211 40.8594C54.1211 43.5742 52.793 44.8828 50.1367 44.8828ZM16.25 10.8594L19.5898 10.8594L19.5898 6.21094C19.5898 4.27734 20.7617 3.16406 22.793 3.16406L34.7656 3.16406C36.8164 3.16406 37.9883 4.27734 37.9883 6.21094L37.9883 10.8203L41.3281 10.8203L41.3281 6.44531C41.3281 2.10938 38.9648 0 34.707 0L22.8711 0C18.8086 0 16.25 2.10938 16.25 6.44531Z" fill="black" fill-opacity="0.85"/>
 </g>
</svg>
