<?xml version="1.0" encoding="UTF-8"?>
<!--Generator: Apple Native CoreSVG 326-->
<!DOCTYPE svg
PUBLIC "-//W3C//DTD SVG 1.1//EN"
       "http://www.w3.org/Graphics/SVG/1.1/DTD/svg11.dtd">
<svg version="1.1" xmlns="http://www.w3.org/2000/svg" xmlns:xlink="http://www.w3.org/1999/xlink" viewBox="0 0 57.6367 43.3008">
 <g>
  <rect height="43.3008" opacity="0" width="57.6367" x="0" y="0"/>
  <path d="M20.4883 43.2617L36.7773 43.2617C51.0742 43.2617 57.2656 36.6406 57.2656 23.2812L57.2656 7.34375C57.2656 2.51953 54.7461 0 49.8633 0L7.42188 0C2.51953 0 0 2.5 0 7.34375L0 23.2812C0 36.6406 6.21094 43.2617 20.4883 43.2617ZM20.5273 39.8047C8.51562 39.8047 3.45703 34.5117 3.45703 23.4766L3.45703 7.51953C3.45703 4.84375 4.86328 3.47656 7.5 3.47656L49.7656 3.47656C52.3633 3.47656 53.8086 4.84375 53.8086 7.51953L53.8086 23.4766C53.8086 34.5117 48.75 39.8047 36.7578 39.8047Z" fill="black" fill-opacity="0.85"/>
  <path d="M18.2812 31.8555L25.6445 31.8555C26.3672 31.8555 26.9922 31.25 26.9922 30.5078C26.9922 29.7656 26.3672 29.1602 25.6445 29.1602L19.9023 29.1602L19.9023 12.7539C19.9023 11.8945 19.1797 11.1719 18.3008 11.1719C17.4414 11.1719 16.6992 11.8945 16.6992 12.7539L16.6992 30.1953C16.6992 31.2305 17.2852 31.8555 18.2812 31.8555ZM31.2305 31.875L36.4648 31.875C40 31.875 42.0312 29.5312 42.0312 26.1719C42.0312 23.6914 40.5859 21.4453 38.1836 21.1914L38.1836 21.0742C40.0781 20.7227 41.3672 18.5742 41.3672 16.543C41.3672 13.3984 39.2969 11.4844 36.3281 11.4844L31.2305 11.4844C30.2148 11.4844 29.6484 12.207 29.6484 13.1641L29.6484 30.1953C29.6484 31.2109 30.2344 31.875 31.2305 31.875ZM32.793 20.2539L32.793 13.9844L35.4492 13.9844C37.4219 13.9844 38.2812 15.2539 38.2812 17.0312C38.2812 19.0234 37.1484 20.2539 35.1562 20.2539ZM32.793 29.3945L32.793 22.4805L35.4297 22.4805C37.4609 22.4805 38.8086 23.5938 38.8086 25.918C38.8086 28.0859 37.6953 29.3945 35.5469 29.3945Z" fill="black" fill-opacity="0.85"/>
 </g>
</svg>
