<?xml version="1.0" encoding="UTF-8"?>
<!--Generator: Apple Native CoreSVG 326-->
<!DOCTYPE svg
PUBLIC "-//W3C//DTD SVG 1.1//EN"
       "http://www.w3.org/Graphics/SVG/1.1/DTD/svg11.dtd">
<svg version="1.1" xmlns="http://www.w3.org/2000/svg" xmlns:xlink="http://www.w3.org/1999/xlink" viewBox="0 0 51.25 50.918">
 <g>
  <rect height="50.918" opacity="0" width="51.25" x="0" y="0"/>
  <path d="M50.8789 25.4492C50.8789 39.4531 39.4531 50.8789 25.4297 50.8789C11.4258 50.8789 0 39.4531 0 25.4492C0 11.4258 11.4258 0 25.4297 0C39.4531 0 50.8789 11.4258 50.8789 25.4492ZM27.9492 15.5664C26.9531 15.5664 26.4062 16.2695 26.4062 17.207L26.4062 33.7695C26.4062 34.7461 26.9727 35.4102 27.9492 35.4102L33.0664 35.4102C36.4844 35.4102 38.4961 33.125 38.4961 29.8633C38.4961 27.4414 37.0703 25.2539 34.7266 25L34.7266 24.8828C36.5625 24.5508 37.832 22.4609 37.832 20.4883C37.832 17.4219 35.8008 15.5664 32.9102 15.5664ZM13.7891 16.8164L13.7891 33.75C13.7891 34.7656 14.3555 35.3906 15.332 35.3906L22.4805 35.3906C23.2031 35.3906 23.8086 34.7852 23.8086 34.0625C23.8086 33.3398 23.2031 32.7344 22.4805 32.7344L16.9336 32.7344L16.9336 16.8164C16.9336 15.957 16.1914 15.2539 15.3711 15.2539C14.5117 15.2539 13.7891 15.957 13.7891 16.8164ZM35.3125 29.6094C35.3125 31.7188 34.2383 32.9883 32.1484 32.9883L29.4922 32.9883L29.4922 26.2891L32.0312 26.2891C34.0039 26.2891 35.3125 27.3633 35.3125 29.6094ZM34.8047 20.957C34.8047 22.8906 33.6914 24.082 31.7578 24.082L29.4922 24.082L29.4922 18.0078L32.0508 18.0078C33.9648 18.0078 34.8047 19.2383 34.8047 20.957Z" fill="black" fill-opacity="0.85"/>
 </g>
</svg>
