<?xml version="1.0" encoding="UTF-8"?>
<!--Generator: Apple Native CoreSVG 326-->
<!DOCTYPE svg
PUBLIC "-//W3C//DTD SVG 1.1//EN"
       "http://www.w3.org/Graphics/SVG/1.1/DTD/svg11.dtd">
<svg version="1.1" xmlns="http://www.w3.org/2000/svg" xmlns:xlink="http://www.w3.org/1999/xlink" viewBox="0 0 53.2422 47.2852">
 <g>
  <rect height="47.2852" opacity="0" width="53.2422" x="0" y="0"/>
  <path d="M0 11.1133C0 29.7656 11.1523 41.9922 28.3398 41.9922C40.293 41.9922 48.7109 34.2773 48.7109 23.3984C48.7109 12.9492 40.2148 5.39062 28.418 5.39062C24.3555 5.39062 20.1953 6.5625 15.5664 6.5625C11.5234 6.5625 8.125 5.3125 5.35156 2.12891C3.98438 0.566406 1.38672 0.449219 0.761719 3.06641C0.15625 5.46875 0 9.74609 0 11.1133ZM3.26172 11.1133C3.26172 9.16016 3.32031 7.22656 3.57422 5.76172C3.63281 5.37109 3.86719 5.33203 4.14062 5.60547C7.08984 8.41797 11.5625 9.82422 15.5664 9.82422C18.2422 9.82422 20.7227 9.47266 22.9297 9.17969C24.9219 8.88672 26.7188 8.65234 28.418 8.65234C38.3984 8.65234 45.4492 14.7852 45.4492 23.3984C45.4492 32.4414 38.457 38.7305 28.3398 38.7305C12.9883 38.7305 3.26172 27.9688 3.26172 11.1133ZM14.6094 16.9531C16.1328 21.5625 20.5664 23.5938 27.1484 25.2148C35.2539 27.168 39.1406 28.9648 42.6953 33.5742C45.293 36.8359 45.9961 40.6445 47.5781 45.6836C47.9492 46.8555 48.75 47.2852 49.6289 47.2852C51.4453 47.2852 52.8711 45.6055 52.8711 43.5156C52.8711 39.9805 48.8672 33.9844 46.25 30.6445C42.6953 26.25 36.9922 23.7305 28.2422 22.2266C22.9688 21.2305 18.9062 19.9609 16.0547 16.25C15.3711 15.332 14.2969 15.957 14.6094 16.9531Z" fill="black" fill-opacity="0.85"/>
 </g>
</svg>
