<?xml version="1.0" encoding="UTF-8"?>
<!--Generator: Apple Native CoreSVG 326-->
<!DOCTYPE svg
PUBLIC "-//W3C//DTD SVG 1.1//EN"
       "http://www.w3.org/Graphics/SVG/1.1/DTD/svg11.dtd">
<svg version="1.1" xmlns="http://www.w3.org/2000/svg" xmlns:xlink="http://www.w3.org/1999/xlink" viewBox="0 0 51.25 50.918">
 <g>
  <rect height="50.918" opacity="0" width="51.25" x="0" y="0"/>
  <path d="M50.8789 25.4492C50.8789 39.4531 39.4531 50.8789 25.4297 50.8789C11.4258 50.8789 0 39.4531 0 25.4492C0 11.4258 11.4258 0 25.4297 0C39.4531 0 50.8789 11.4258 50.8789 25.4492ZM30.9375 15.2539L15.7617 23.4766C14.8828 23.9648 14.4531 24.6094 14.4531 25.4492C14.4531 26.3867 14.8438 26.9531 15.7617 27.4219L30.9375 35.4102C31.2891 35.5859 31.582 35.7031 32.0312 35.7031C33.0859 35.7031 33.8867 34.9219 33.8867 33.9062C33.8867 33.0664 33.4961 32.5391 32.5781 32.1094L19.3555 25.4688L19.3555 25.3125L32.5781 18.5742C33.4766 18.125 33.8867 17.5781 33.8867 16.7383C33.8867 15.7422 33.1055 14.9805 32.0703 14.9805C31.582 14.9805 31.3086 15.0781 30.9375 15.2539Z" fill="black" fill-opacity="0.85"/>
 </g>
</svg>
