<?xml version="1.0" encoding="UTF-8"?>
<!--Generator: Apple Native CoreSVG 326-->
<!DOCTYPE svg
PUBLIC "-//W3C//DTD SVG 1.1//EN"
       "http://www.w3.org/Graphics/SVG/1.1/DTD/svg11.dtd">
<svg version="1.1" xmlns="http://www.w3.org/2000/svg" xmlns:xlink="http://www.w3.org/1999/xlink" viewBox="0 0 61.2891 26.5039">
 <g>
  <rect height="26.5039" opacity="0" width="61.2891" x="0" y="0"/>
  <path d="M6.64062 26.5039L10.3906 26.5039L10.3906 0L6.60156 0C2.28516 0 0 2.28516 0 6.58203L0.0195312 19.9219C0.0195312 24.2383 2.28516 26.5039 6.64062 26.5039ZM12.5586 26.5039L48.3398 26.5039L48.3398 0L44.0625 0C43.4766 7.10938 37.9688 11.7383 30.4883 11.7383C23.0078 11.7383 17.4805 7.10938 16.875 0L12.5586 0ZM50.5273 26.5039L54.2578 26.5039C58.6133 26.5039 60.8594 24.2383 60.8789 19.9219L60.918 6.58203C60.9375 2.28516 58.6328 0 54.2773 0L50.5273 0ZM30.4883 9.66797C36.6211 9.66797 41.1914 5.85938 41.6797 0L37.6367 0C37.3047 3.75 34.4141 6.23047 30.4883 6.23047C26.5234 6.23047 23.6328 3.75 23.3203 0L19.2578 0C19.7461 5.85938 24.3164 9.66797 30.4883 9.66797Z" fill="black" fill-opacity="0.85"/>
 </g>
</svg>
