<?xml version="1.0" encoding="UTF-8"?>
<!--Generator: Apple Native CoreSVG 326-->
<!DOCTYPE svg
PUBLIC "-//W3C//DTD SVG 1.1//EN"
       "http://www.w3.org/Graphics/SVG/1.1/DTD/svg11.dtd">
<svg version="1.1" xmlns="http://www.w3.org/2000/svg" xmlns:xlink="http://www.w3.org/1999/xlink" viewBox="0 0 64.043 41.1133">
 <g>
  <rect height="41.1133" opacity="0" width="64.043" x="0" y="0"/>
  <path d="M63.6719 7.53906L63.6719 33.5742C63.6719 38.5547 61.1328 41.1133 56.0742 41.1133L7.59766 41.1133C2.55859 41.1133 0 38.5742 0 33.5742L0 7.53906C0 2.53906 2.55859 0.0195312 7.59766 0.0195312L56.0742 0.0195312C61.1328 0.0195312 63.6719 2.57812 63.6719 7.53906ZM47.9688 15.9766C47.9688 16.6797 48.457 17.1875 49.1406 17.1875C49.8047 17.1875 50.2539 16.8359 50.4297 16.1328C50.7031 14.8438 51.25 13.8867 52.3047 13.8867C53.457 13.8867 54.082 14.9219 54.082 16.4258C54.082 17.8125 53.4766 19.1992 51.9922 19.1992L51.3672 19.1992C50.7227 19.1992 50.2539 19.668 50.2539 20.293C50.2539 20.9375 50.7227 21.4453 51.3672 21.4453L51.9922 21.4453C53.75 21.4453 54.4141 22.4609 54.4141 24.2969C54.4141 25.957 53.8672 27.207 52.4219 27.207C51.3477 27.207 50.5664 26.4648 50.1953 24.9023C50.0586 24.4141 49.7266 23.8672 48.9844 23.8672C48.125 23.8672 47.7344 24.5117 47.7344 25.1172C47.7344 26.8164 49.1211 29.5898 52.4219 29.5898C55.3516 29.5898 57.1094 27.2461 57.1094 24.3555C57.1094 22.4805 56.3672 20.7422 54.8242 20.1562C56.0156 19.3555 56.6602 17.793 56.6602 16.2305C56.6602 13.7695 55.2148 11.543 52.3047 11.543C49.7461 11.543 47.9688 13.6328 47.9688 15.9766ZM9.51172 13.2422L6.19141 27.4414C6.15234 27.6562 6.09375 27.9688 6.09375 28.2031C6.09375 28.9648 6.54297 29.5117 7.40234 29.5117C8.16406 29.5117 8.63281 29.0234 8.76953 28.3203L9.51172 24.9219L13.3789 24.9219L14.1211 28.3398C14.2578 29.082 14.707 29.5117 15.4883 29.5117C16.2695 29.5117 16.7578 28.9258 16.7578 28.2031C16.7578 27.9883 16.7383 27.6758 16.6992 27.4805L13.3594 13.2227C13.1445 12.2461 12.5195 11.6211 11.3867 11.6211C10.4102 11.6211 9.74609 12.1875 9.51172 13.2422ZM19.8828 11.875C19.0234 11.875 18.5742 12.4609 18.5742 13.2422L18.5742 28.1445C18.5742 29.0039 19.0625 29.5117 19.8828 29.5117C20.7031 29.5117 21.2109 29.0039 21.2109 28.1445L21.2109 23.3398L23.1641 23.3398C26.1719 23.3398 27.9297 20.8203 27.9297 17.6172C27.9297 14.668 26.4062 11.875 23.3398 11.875ZM32.2461 12.4219L30.0586 14.3555C29.668 14.6875 29.4531 15.0586 29.4531 15.4492C29.4531 16.0742 29.9219 16.5039 30.5078 16.5039C30.7812 16.5039 31.0742 16.3867 31.25 16.25L32.7539 14.9609L32.7539 28.0273C32.7539 28.8477 33.3203 29.4727 34.1016 29.4727C34.9023 29.4727 35.4688 28.8477 35.4688 28.0273L35.4688 13.1445C35.4688 12.2852 34.8438 11.6406 33.9648 11.6406C33.3594 11.6406 32.8711 11.8945 32.2461 12.4219ZM37.4609 16.2305C37.4609 16.9336 37.9297 17.4805 38.6523 17.4805C39.3555 17.4805 39.7461 17.0898 39.9219 16.2891C40.1562 15.0195 40.5273 13.8672 41.6797 13.8672C42.8516 13.8672 43.3984 14.9609 43.3984 16.4844C43.3984 18.0273 42.6172 19.7461 41.3867 21.543L37.9883 26.7773C37.5586 27.3828 37.4805 27.7148 37.4805 28.0664C37.4805 28.8281 38.0273 29.2969 38.75 29.2969L45.1562 29.2969C45.7812 29.2969 46.2891 28.75 46.2891 28.0859C46.2891 27.4219 45.7812 26.9141 45.1562 26.9141L40.7422 26.9141L43.5938 22.5977C44.9023 20.6836 46.0352 18.5547 46.0352 16.4258C46.0352 13.4961 44.4141 11.5039 41.6992 11.5039C38.9453 11.5039 37.4609 14.4141 37.4609 16.2305ZM13.0469 22.7539L9.84375 22.7539L11.4453 15.3516ZM25.2539 17.6172C25.2539 19.5508 24.5312 21.1914 22.6758 21.1914L21.2109 21.1914L21.2109 14.0234L22.6758 14.0234C24.5703 14.0234 25.2539 15.6836 25.2539 17.6172Z" fill="black" fill-opacity="0.85"/>
 </g>
</svg>
