<?xml version="1.0" encoding="UTF-8"?>
<!--Generator: Apple Native CoreSVG 326-->
<!DOCTYPE svg
PUBLIC "-//W3C//DTD SVG 1.1//EN"
       "http://www.w3.org/Graphics/SVG/1.1/DTD/svg11.dtd">
<svg version="1.1" xmlns="http://www.w3.org/2000/svg" xmlns:xlink="http://www.w3.org/1999/xlink" viewBox="0 0 46.2891 45.918">
 <g>
  <rect height="45.918" opacity="0" width="46.2891" x="0" y="0"/>
  <path d="M45.918 7.53906L45.918 38.3984C45.918 43.3594 43.3594 45.918 38.3008 45.918L7.59766 45.918C2.55859 45.918 0 43.3984 0 38.3984L0 7.53906C0 2.53906 2.55859 0 7.59766 0L38.3008 0C43.3594 0 45.918 2.55859 45.918 7.53906ZM16.0938 9.64844C15.0391 9.64844 14.2969 10.3906 14.2969 11.4453L14.2969 34.4922C14.2969 35.5469 15.0391 36.3086 16.0938 36.3086L29.8047 36.3086C30.8594 36.3086 31.6211 35.5469 31.6211 34.4922L31.6211 11.4453C31.6211 10.3906 30.8594 9.64844 29.8047 9.64844ZM28.9062 26.1719L28.9062 32.7539C28.9062 33.2617 28.5742 33.5938 28.0859 33.5938L17.8125 33.5938C17.3438 33.5938 17.0117 33.2617 17.0117 32.7539L17.0117 26.1719C17.0117 25.6641 17.3438 25.332 17.8125 25.332L28.0859 25.332C28.5742 25.332 28.9062 25.6641 28.9062 26.1719Z" fill="black" fill-opacity="0.85"/>
 </g>
</svg>
