<?xml version="1.0" encoding="UTF-8"?>
<!--Generator: Apple Native CoreSVG 326-->
<!DOCTYPE svg
PUBLIC "-//W3C//DTD SVG 1.1//EN"
       "http://www.w3.org/Graphics/SVG/1.1/DTD/svg11.dtd">
<svg version="1.1" xmlns="http://www.w3.org/2000/svg" xmlns:xlink="http://www.w3.org/1999/xlink" viewBox="0 0 82.3047 58.8086">
 <g>
  <rect height="58.8086" opacity="0" width="82.3047" x="0" y="0"/>
  <path d="M41.0156 58.8086C51.8555 58.8086 60.1562 53.7109 60.1562 46.9922C60.1562 40.2539 51.8555 35.1367 41.0156 35.1367C30.1172 35.1367 21.8164 40.2344 21.8164 46.9922C21.8164 53.7305 30.1172 58.8086 41.0156 58.8086ZM40.9766 54.2188C33.8086 54.2188 28.6328 51.2891 28.6328 47.3242C28.6328 43.3398 33.8086 40.4492 40.9766 40.4492C48.1445 40.4492 53.3594 43.3398 53.3594 47.3242C53.3594 51.2695 48.1445 54.2188 40.9766 54.2188ZM30.7031 47.3242C30.7031 50.0195 35.1953 52.168 40.957 52.168C46.7383 52.168 51.2891 50.0195 51.2891 47.3242C51.2891 46.2695 50.6055 45.3516 49.4922 44.5703C47.9297 46.7383 44.707 48.1445 40.957 48.1445C37.207 48.1445 33.9844 46.7578 32.3438 44.6289C31.3281 45.3711 30.7031 46.2891 30.7031 47.3242Z" fill="black" fill-opacity="0.85"/>
  <path d="M62.793 34.2578C73.6133 34.2578 81.9336 29.1602 81.9336 22.4219C81.9336 15.7031 73.6133 10.5664 62.793 10.5664C51.8945 10.5664 43.5938 15.6836 43.5938 22.4219C43.5938 29.1797 51.8945 34.2578 62.793 34.2578ZM62.7539 29.6484C55.6055 29.6484 50.4102 26.7578 50.4102 22.7734C50.4102 18.7891 55.6055 15.8789 62.7539 15.8789C69.9023 15.8789 75.1172 18.7891 75.1172 22.7734C75.1172 26.7383 69.9023 29.6484 62.7539 29.6484ZM52.4609 22.7734C52.4609 25.4492 56.9727 27.5977 62.7344 27.5977C68.5156 27.5977 73.0664 25.4492 73.0664 22.7734C73.0664 21.7188 72.3828 20.7812 71.25 20.0195C69.6875 22.168 66.4844 23.5938 62.7344 23.5938C58.9844 23.5938 55.7617 22.1875 54.1406 20.0586C53.0859 20.8008 52.4609 21.7383 52.4609 22.7734Z" fill="black" fill-opacity="0.85"/>
  <path d="M19.1992 34.2383C30.0391 34.2383 38.3398 29.1406 38.3398 22.4023C38.3398 15.6836 30.0391 10.5469 19.1992 10.5469C8.32031 10.5469 0 15.6641 0 22.4023C0 29.1602 8.32031 34.2383 19.1992 34.2383ZM19.1602 29.6289C12.0117 29.6289 6.83594 26.7383 6.83594 22.7539C6.83594 18.7695 12.0117 15.8594 19.1602 15.8594C26.3281 15.8594 31.543 18.7695 31.543 22.7539C31.543 26.7188 26.3281 29.6289 19.1602 29.6289ZM8.88672 22.7539C8.88672 25.4297 13.3984 27.5781 19.1406 27.5781C24.9219 27.5781 29.4922 25.4297 29.4922 22.7539C29.4922 21.6992 28.8086 20.7617 27.6758 20.0195C26.1133 22.1484 22.8711 23.5742 19.1406 23.5742C15.3906 23.5742 12.1875 22.168 10.5469 20.0391C9.51172 20.7812 8.88672 21.7188 8.88672 22.7539Z" fill="black" fill-opacity="0.85"/>
 </g>
</svg>
