<?xml version="1.0" encoding="UTF-8"?>
<!--Generator: Apple Native CoreSVG 326-->
<!DOCTYPE svg
PUBLIC "-//W3C//DTD SVG 1.1//EN"
       "http://www.w3.org/Graphics/SVG/1.1/DTD/svg11.dtd">
<svg version="1.1" xmlns="http://www.w3.org/2000/svg" xmlns:xlink="http://www.w3.org/1999/xlink" viewBox="0 0 52.8662 61.6851">
 <g>
  <rect height="61.6851" opacity="0" width="52.8662" x="0" y="0"/>
  <path d="M26.2476 58.9773C22.3413 58.9773 19.1773 57.1023 19.0015 54.2703L33.4937 54.2703C33.2593 57.1023 30.1343 58.9773 26.2476 58.9773ZM35.4468 50.4617C35.4468 51.2234 34.8413 51.8289 34.0796 51.8289L18.4155 51.8289C17.6538 51.8289 17.0484 51.2234 17.0484 50.4617C17.0484 49.7 17.6538 49.0945 18.4155 49.0945L34.0796 49.0945C34.8413 49.0945 35.4468 49.7 35.4468 50.4617Z" fill="black" fill-opacity="0.85"/>
  <path d="M35.8587 42.065C35.745 43.0616 35.653 44.1226 35.5835 45.2468C35.5249 46.1257 35.0171 46.6531 34.0601 46.6531L18.4351 46.6531C17.4585 46.6531 16.9702 46.1257 16.9116 45.2468C15.8569 28.1765 9.58741 25.657 9.58741 16.2625C9.58741 16.1123 9.58971 15.9626 9.61144 15.8177ZM42.8882 16.2625C42.8882 22.3994 40.2211 25.6026 38.0811 31.8655L13.0716 6.856C16.0897 3.24168 20.8418 0.930437 26.2476 0.930437C35.5444 0.930437 42.8882 7.76637 42.8882 16.2625Z" fill="black" fill-opacity="0.85"/>
  <path d="M44.6851 47.0632C45.3687 47.7273 46.4038 47.7078 47.0484 47.0632C47.6929 46.4187 47.6929 45.3445 47.0484 44.7L5.56398 3.19606C4.91944 2.55153 3.82569 2.57106 3.20069 3.19606C2.55616 3.84059 2.57569 4.93434 3.20069 5.55934Z" fill="black" fill-opacity="0.85"/>
 </g>
</svg>
