<?xml version="1.0" encoding="UTF-8"?>
<!--Generator: Apple Native CoreSVG 326-->
<!DOCTYPE svg
PUBLIC "-//W3C//DTD SVG 1.1//EN"
       "http://www.w3.org/Graphics/SVG/1.1/DTD/svg11.dtd">
<svg version="1.1" xmlns="http://www.w3.org/2000/svg" xmlns:xlink="http://www.w3.org/1999/xlink" viewBox="0 0 69.668 41.6602">
 <g>
  <rect height="41.6602" opacity="0" width="69.668" x="0" y="0"/>
  <path d="M34.6094 41.6406C55.0977 41.6406 69.2969 32.2852 69.2969 20.8203C69.2969 9.35547 55.0977 0 34.6094 0C14.1797 0 0 9.35547 0 20.8203C0 32.2852 14.1797 41.6406 34.6094 41.6406ZM34.6094 34.3164C21.5234 34.3164 11.6211 28.8672 11.6211 21.5039C11.6211 14.1406 21.5234 8.69141 34.6094 8.69141C47.7734 8.69141 57.6953 14.1406 57.6953 21.5039C57.6953 28.8477 47.7344 34.3164 34.6094 34.3164ZM34.5703 22.7148C41.9727 22.7148 48.457 19.4336 51.0352 14.8242C47.4414 12.4609 41.7383 11.0156 34.6094 11.0156C27.4805 11.0156 21.7188 12.5 18.125 14.9219C20.7422 19.4922 27.207 22.7148 34.5703 22.7148Z" fill="black" fill-opacity="0.85"/>
 </g>
</svg>
