<?xml version="1.0" encoding="UTF-8"?>
<!--Generator: Apple Native CoreSVG 326-->
<!DOCTYPE svg
PUBLIC "-//W3C//DTD SVG 1.1//EN"
       "http://www.w3.org/Graphics/SVG/1.1/DTD/svg11.dtd">
<svg version="1.1" xmlns="http://www.w3.org/2000/svg" xmlns:xlink="http://www.w3.org/1999/xlink" viewBox="0 0 51.25 50.8008">
 <g>
  <rect height="50.8008" opacity="0" width="51.25" x="0" y="0"/>
  <path d="M50.8789 25.3906C50.8789 21.582 49.9805 17.9883 48.3984 14.7656L48.3984 36.0352C49.9805 32.793 50.8789 29.1797 50.8789 25.3906Z" fill="black" fill-opacity="0.85"/>
  <path d="M43.0273 43.6328C43.9062 42.793 44.7461 41.8945 45.4883 40.918L45.4883 9.86328C44.7461 8.90625 43.9062 7.96875 43.0273 7.12891Z" fill="black" fill-opacity="0.85"/>
  <path d="M37.6367 47.6367C38.4961 47.168 39.3164 46.6406 40.1172 46.0742L40.1172 4.6875C39.3164 4.12109 38.4961 3.59375 37.6367 3.14453Z" fill="black" fill-opacity="0.85"/>
  <path d="M32.2656 49.8633C33.1055 49.6289 33.9453 49.3359 34.7266 49.0234L34.7266 1.75781C33.9453 1.42578 33.1055 1.15234 32.2656 0.917969Z" fill="black" fill-opacity="0.85"/>
  <path d="M26.875 50.7617C27.7148 50.7227 28.5352 50.6445 29.3555 50.5078L29.3555 0.273438C28.5352 0.136719 27.7148 0.0390625 26.875 0Z" fill="black" fill-opacity="0.85"/>
  <path d="M21.5234 50.5078C22.3438 50.6445 23.1641 50.7227 24.0039 50.7617L24.0039 0C23.1641 0.0390625 22.3438 0.136719 21.5234 0.253906Z" fill="black" fill-opacity="0.85"/>
  <path d="M16.1328 49.0234C16.9336 49.3359 17.7734 49.6289 18.6133 49.8633L18.6133 0.898438C17.7734 1.13281 16.9336 1.42578 16.1328 1.73828Z" fill="black" fill-opacity="0.85"/>
  <path d="M10.7617 46.0742C11.5625 46.6406 12.3633 47.168 13.2422 47.6367L13.2422 3.125C12.3633 3.57422 11.5625 4.10156 10.7617 4.66797Z" fill="black" fill-opacity="0.85"/>
  <path d="M5.37109 40.918C6.13281 41.8945 6.95312 42.793 7.85156 43.6328L7.85156 7.10938C6.95312 7.94922 6.13281 8.88672 5.37109 9.84375Z" fill="black" fill-opacity="0.85"/>
  <path d="M0 25.3906C0 29.1797 0.878906 32.793 2.48047 36.0352L2.48047 14.7461C0.878906 17.9688 0 21.582 0 25.3906Z" fill="black" fill-opacity="0.85"/>
 </g>
</svg>
