<?xml version="1.0" encoding="UTF-8"?>
<!--Generator: Apple Native CoreSVG 326-->
<!DOCTYPE svg
PUBLIC "-//W3C//DTD SVG 1.1//EN"
       "http://www.w3.org/Graphics/SVG/1.1/DTD/svg11.dtd">
<svg version="1.1" xmlns="http://www.w3.org/2000/svg" xmlns:xlink="http://www.w3.org/1999/xlink" viewBox="0 0 61.5234 46.2305">
 <g>
  <rect height="46.2305" opacity="0" width="61.5234" x="0" y="0"/>
  <path d="M7.59766 46.2109L53.5352 46.2109C58.5938 46.2109 61.1523 43.6523 61.1523 38.6719L61.1523 7.51953C61.1523 2.53906 58.5938 0 53.5352 0L7.59766 0C2.55859 0 0 2.51953 0 7.51953L0 38.6719C0 43.6719 2.55859 46.2109 7.59766 46.2109ZM7.67578 42.7344C4.94141 42.7344 3.45703 41.2891 3.45703 38.4961L3.45703 7.69531C3.45703 4.90234 4.94141 3.45703 7.67578 3.45703L53.4766 3.45703C56.1523 3.45703 57.6953 4.90234 57.6953 7.69531L57.6953 38.4961C57.6953 41.2891 56.1523 42.7344 53.4766 42.7344Z" fill="black" fill-opacity="0.85"/>
  <path d="M9.02344 39.6289L52.1094 39.6289C53.6914 39.6289 54.5703 38.7305 54.5703 37.1289L54.5703 9.0625C54.5703 7.48047 53.6914 6.5625 52.1094 6.5625L9.02344 6.5625C7.46094 6.5625 6.58203 7.48047 6.58203 9.0625L6.58203 37.1289C6.58203 38.7305 7.46094 39.6289 9.02344 39.6289Z" fill="black" fill-opacity="0.85"/>
 </g>
</svg>
