<?xml version="1.0" encoding="UTF-8"?>
<!--Generator: Apple Native CoreSVG 326-->
<!DOCTYPE svg
PUBLIC "-//W3C//DTD SVG 1.1//EN"
       "http://www.w3.org/Graphics/SVG/1.1/DTD/svg11.dtd">
<svg version="1.1" xmlns="http://www.w3.org/2000/svg" xmlns:xlink="http://www.w3.org/1999/xlink" viewBox="0 0 69.668 41.6602">
 <g>
  <rect height="41.6602" opacity="0" width="69.668" x="0" y="0"/>
  <path d="M34.6094 41.6406C55.0977 41.6406 69.2969 32.2852 69.2969 20.8203C69.2969 9.35547 55.0977 0 34.6094 0C14.1797 0 0 9.35547 0 20.8203C0 32.2852 14.1797 41.6406 34.6094 41.6406ZM34.6094 38.3984C16.1914 38.3984 3.24219 30.3711 3.24219 20.8203C3.24219 11.25 16.1914 3.24219 34.6094 3.24219C53.0859 3.24219 66.0547 11.25 66.0547 20.8203C66.0547 30.3711 53.0859 38.3984 34.6094 38.3984ZM34.6094 34.3164C47.7344 34.3164 57.6953 28.8477 57.6953 21.5039C57.6953 14.1406 47.7734 8.69141 34.6094 8.69141C21.5234 8.69141 11.6211 14.1406 11.6211 21.5039C11.6211 28.8672 21.5234 34.3164 34.6094 34.3164ZM34.6094 31.0547C23.6133 31.0547 14.8828 26.7383 14.8828 21.5039C14.8828 16.25 23.5742 11.9531 34.6094 11.9531C45.6836 11.9531 54.4336 16.25 54.4336 21.5039C54.4336 26.7383 45.6445 31.0547 34.6094 31.0547ZM34.5703 22.7148C42.1875 22.7148 48.8281 19.2578 51.2695 14.3945C46.6016 12.0508 40.5273 10.8008 34.6094 10.6641C28.5742 10.8008 22.5 12.0703 17.832 14.4336C20.293 19.2773 26.9141 22.7148 34.5703 22.7148Z" fill="black" fill-opacity="0.85"/>
 </g>
</svg>
