<?xml version="1.0" encoding="UTF-8"?>
<!--Generator: Apple Native CoreSVG 326-->
<!DOCTYPE svg
PUBLIC "-//W3C//DTD SVG 1.1//EN"
       "http://www.w3.org/Graphics/SVG/1.1/DTD/svg11.dtd">
<svg version="1.1" xmlns="http://www.w3.org/2000/svg" xmlns:xlink="http://www.w3.org/1999/xlink" viewBox="0 0 82.3047 58.8086">
 <g>
  <rect height="58.8086" opacity="0" width="82.3047" x="0" y="0"/>
  <path d="M40.9766 58.8086C51.8555 58.8086 60.1562 53.7305 60.1562 46.9922C60.1562 40.2344 51.8555 35.1367 40.9766 35.1367C30.1172 35.1367 21.8164 40.2539 21.8164 46.9922C21.8164 53.7109 30.1172 58.8086 40.9766 58.8086ZM40.9766 56.0547C31.543 56.0547 24.5508 52.0312 24.5508 46.9922C24.5508 41.9141 31.5625 37.8906 40.9766 37.8906C50.3516 37.8906 57.3633 41.9141 57.3633 46.9922C57.3633 52.0312 50.3711 56.0547 40.9766 56.0547ZM40.9766 54.2188C48.0273 54.2188 53.2227 51.3281 53.2227 47.3242C53.2227 43.3203 48.0273 40.4297 40.9766 40.4297C33.9258 40.4297 28.75 43.3203 28.75 47.3242C28.75 51.3086 33.9258 54.2188 40.9766 54.2188ZM40.9766 51.7969C35.2344 51.7969 31.1523 49.8047 31.1523 47.3242C31.1523 44.8242 35.2344 42.832 40.9766 42.832C46.7383 42.832 50.8008 44.8242 50.8008 47.3242C50.8008 49.8047 46.7188 51.7969 40.9766 51.7969ZM40.9766 48.3008C45.2344 48.3008 48.9258 46.4062 50.1367 43.75C47.6758 42.4219 44.4922 41.5625 40.9766 41.5625C37.5391 41.5625 34.3164 42.4219 31.875 43.75C33.0859 46.3867 36.7383 48.3008 40.9766 48.3008Z" fill="black" fill-opacity="0.85"/>
  <path d="M62.7539 34.2383C73.6133 34.2383 81.9336 29.1602 81.9336 22.4023C81.9336 15.6641 73.6133 10.5469 62.7539 10.5469C51.8945 10.5469 43.5938 15.6836 43.5938 22.4023C43.5938 29.1406 51.8945 34.2383 62.7539 34.2383ZM62.7539 31.4648C53.3203 31.4648 46.3281 27.4609 46.3281 22.4023C46.3281 17.3633 53.3398 13.3008 62.7539 13.3008C72.1289 13.3008 79.1211 17.3633 79.1211 22.4023C79.1211 27.4609 72.1484 31.4648 62.7539 31.4648ZM62.7539 29.6484C69.7852 29.6484 75 26.7578 75 22.7734C75 18.75 69.7852 15.8398 62.7539 15.8398C55.6836 15.8398 50.4883 18.75 50.4883 22.7734C50.4883 26.7578 55.6836 29.6484 62.7539 29.6484ZM62.7539 27.2461C56.9922 27.2461 52.9297 25.2344 52.9297 22.7734C52.9297 20.2539 56.9922 18.2617 62.7539 18.2617C68.5156 18.2617 72.5781 20.2539 72.5781 22.7734C72.5781 25.2344 68.4961 27.2461 62.7539 27.2461ZM62.7539 23.7305C67.0117 23.7305 70.6836 21.8555 71.8945 19.1992C69.4531 17.832 66.2305 16.9922 62.7539 16.9922C59.2969 16.9922 56.0938 17.832 53.6523 19.1992C54.8438 21.8359 58.5352 23.7305 62.7539 23.7305Z" fill="black" fill-opacity="0.85"/>
  <path d="M19.1992 34.2383C30.0391 34.2383 38.3398 29.1406 38.3398 22.4023C38.3398 15.6836 30.0391 10.5469 19.1992 10.5469C8.32031 10.5469 0 15.6641 0 22.4023C0 29.1602 8.32031 34.2383 19.1992 34.2383ZM19.1992 31.4648C9.76562 31.4648 2.8125 27.4609 2.8125 22.4023C2.8125 17.3633 9.78516 13.3008 19.1992 13.3008C28.5938 13.3008 35.6055 17.3633 35.6055 22.4023C35.6055 27.4609 28.5938 31.4648 19.1992 31.4648ZM19.1992 29.6484C26.2695 29.6484 31.4844 26.7578 31.4844 22.7734C31.4844 18.75 26.2695 15.8398 19.1992 15.8398C12.168 15.8398 6.97266 18.75 6.97266 22.7734C6.97266 26.7578 12.168 29.6484 19.1992 29.6484ZM19.1992 27.2461C13.457 27.2461 9.39453 25.2344 9.39453 22.7734C9.39453 20.2539 13.457 18.2617 19.1992 18.2617C24.9609 18.2617 29.043 20.2539 29.043 22.7734C29.043 25.2344 24.9609 27.2461 19.1992 27.2461ZM19.1992 23.7305C23.418 23.7305 27.0898 21.8359 28.2812 19.1992C25.8398 17.832 22.6562 16.9922 19.1992 16.9922C15.7227 16.9922 12.5 17.832 10.0391 19.1992C11.25 21.8555 14.9219 23.7305 19.1992 23.7305Z" fill="black" fill-opacity="0.85"/>
 </g>
</svg>
