<?xml version="1.0" encoding="UTF-8"?>
<!--Generator: Apple Native CoreSVG 326-->
<!DOCTYPE svg
PUBLIC "-//W3C//DTD SVG 1.1//EN"
       "http://www.w3.org/Graphics/SVG/1.1/DTD/svg11.dtd">
<svg version="1.1" xmlns="http://www.w3.org/2000/svg" xmlns:xlink="http://www.w3.org/1999/xlink" viewBox="0 0 51.25 50.918">
 <g>
  <rect height="50.918" opacity="0" width="51.25" x="0" y="0"/>
  <path d="M15.1953 24.2578C18.3008 24.2578 20.8789 25.0195 24.2969 27.0898C27.832 29.2188 31.2305 30.5078 35.3906 30.5078C40.7617 30.5078 45.5469 28.2422 49.3359 23.9844L48.6719 18.9844C45.2734 24.2773 40.7031 27.0508 35.3906 27.0508C31.875 27.0508 29.1406 26.0156 26.0352 24.1406C22.5195 22.0117 19.2383 20.8008 15.1953 20.8008C10.0391 20.8008 5.50781 22.9883 1.85547 27.0312L2.55859 31.5234C5.89844 26.7383 10.2344 24.2578 15.1953 24.2578ZM21.2305 16.0938C22.793 18.7891 23.3594 21.3477 23.3203 25.3906C23.2617 29.5508 23.8477 33.0859 25.918 36.6797C28.4766 41.1328 32.5586 44.0625 37.7734 45.332L41.3281 42.4414C35.6836 41.8164 31.4258 39.2969 28.9258 34.9609C27.168 31.9141 26.7188 29.0625 26.7773 25.4297C26.8164 21.2695 26.25 17.8711 24.2188 14.375C21.543 9.72656 17.168 6.79688 11.5625 5.74219L8.65234 8.76953C14.4336 9.27734 18.7305 11.7969 21.2305 16.0938ZM31.3281 17.2461C29.7852 19.9023 27.8516 21.6797 24.3164 23.6914C20.6836 25.7422 17.9102 27.9883 15.8203 31.6016C13.2031 36.1133 12.7344 41.25 14.375 46.5234L18.5547 47.8711C16.25 42.6367 16.2891 37.6562 18.8281 33.3008C20.5859 30.293 22.832 28.4961 26.0156 26.6992C29.6484 24.6484 32.2852 22.4805 34.3359 18.9648C36.9727 14.375 37.3438 9.14062 35.5273 3.78906L31.3672 2.67578C33.8672 8.04688 33.8086 12.9688 31.3281 17.2461ZM25.4297 50.8789C39.4727 50.8789 50.8789 39.4922 50.8789 25.4492C50.8789 11.4062 39.4727 0 25.4297 0C11.3867 0 0 11.4062 0 25.4492C0 39.4922 11.3867 50.8789 25.4297 50.8789ZM25.4297 47.2461C13.3789 47.2461 3.63281 37.5 3.63281 25.4492C3.63281 13.3984 13.3789 3.65234 25.4297 3.65234C37.4805 3.65234 47.2266 13.3984 47.2266 25.4492C47.2266 37.5 37.4805 47.2461 25.4297 47.2461Z" fill="black" fill-opacity="0.85"/>
 </g>
</svg>
