<?xml version="1.0" encoding="UTF-8"?>
<!--Generator: Apple Native CoreSVG 326-->
<!DOCTYPE svg
PUBLIC "-//W3C//DTD SVG 1.1//EN"
       "http://www.w3.org/Graphics/SVG/1.1/DTD/svg11.dtd">
<svg version="1.1" xmlns="http://www.w3.org/2000/svg" xmlns:xlink="http://www.w3.org/1999/xlink" viewBox="0 0 44.7266 51.0742">
 <g>
  <rect height="51.0742" opacity="0" width="44.7266" x="0" y="0"/>
  <path d="M9.94141 2.30469C9.94141 3.80859 10.7422 4.58984 12.2461 4.58984L32.1094 4.58984C33.6133 4.58984 34.4141 3.80859 34.4141 2.30469C34.4141 0.78125 33.6133 0 32.1094 0L12.2461 0C10.7422 0 9.94141 0.78125 9.94141 2.30469ZM16.2695 13.9258C16.2695 15.4102 17.0508 16.1914 18.5547 16.1914L25.8008 16.1914C27.3047 16.1914 28.0859 15.4102 28.0859 13.9258C28.0859 12.4023 27.3047 11.6211 25.8008 11.6211L18.5547 11.6211C17.0508 11.6211 16.2695 12.4023 16.2695 13.9258ZM0 25.5273C0 27.0312 0.78125 27.8125 2.30469 27.8125L42.0508 27.8125C43.5742 27.8125 44.3555 27.0312 44.3555 25.5273C44.3555 24.0039 43.5742 23.2227 42.0508 23.2227L2.30469 23.2227C0.78125 23.2227 0 24.0039 0 25.5273ZM16.2695 37.1094C16.2695 38.6328 17.0508 39.4141 18.5547 39.4141L25.8008 39.4141C27.3047 39.4141 28.0859 38.6328 28.0859 37.1094C28.0859 35.625 27.3047 34.8438 25.8008 34.8438L18.5547 34.8438C17.0508 34.8438 16.2695 35.625 16.2695 37.1094ZM9.94141 48.75C9.94141 50.2539 10.7422 51.0547 12.2461 51.0547L32.1094 51.0547C33.6133 51.0547 34.4141 50.2539 34.4141 48.75C34.4141 47.2266 33.6133 46.4453 32.1094 46.4453L12.2461 46.4453C10.7422 46.4453 9.94141 47.2266 9.94141 48.75Z" fill="black" fill-opacity="0.85"/>
 </g>
</svg>
