<?xml version="1.0" encoding="UTF-8"?>
<!--Generator: Apple Native CoreSVG 326-->
<!DOCTYPE svg
PUBLIC "-//W3C//DTD SVG 1.1//EN"
       "http://www.w3.org/Graphics/SVG/1.1/DTD/svg11.dtd">
<svg version="1.1" xmlns="http://www.w3.org/2000/svg" xmlns:xlink="http://www.w3.org/1999/xlink" viewBox="0 0 51.25 50.918">
 <g>
  <rect height="50.918" opacity="0" width="51.25" x="0" y="0"/>
  <path d="M25.4297 50.8789C39.4727 50.8789 50.8789 39.4922 50.8789 25.4492C50.8789 11.4062 39.4727 0 25.4297 0C11.3867 0 0 11.4062 0 25.4492C0 39.4922 11.3867 50.8789 25.4297 50.8789ZM25.4297 47.2461C13.3789 47.2461 3.63281 37.5 3.63281 25.4492C3.63281 13.3984 13.3789 3.65234 25.4297 3.65234C37.4805 3.65234 47.2266 13.3984 47.2266 25.4492C47.2266 37.5 37.4805 47.2461 25.4297 47.2461Z" fill="black" fill-opacity="0.85"/>
  <path d="M12.3633 18.6328L38.5547 18.6328C39.4922 18.6328 40.1758 18.0078 40.1758 17.0898C40.1758 16.1719 39.4922 15.5664 38.5547 15.5664L12.3633 15.5664C11.4062 15.5664 10.7227 16.1719 10.7227 17.0898C10.7227 18.0078 11.4062 18.6328 12.3633 18.6328ZM12.3633 26.9531L38.5547 26.9531C39.4922 26.9531 40.1758 26.3281 40.1758 25.4102C40.1758 24.4922 39.4922 23.8867 38.5547 23.8867L12.3633 23.8867C11.4062 23.8867 10.7227 24.4922 10.7227 25.4102C10.7227 26.3281 11.4062 26.9531 12.3633 26.9531ZM12.3633 35.3125L38.5547 35.3125C39.4922 35.3125 40.1758 34.707 40.1758 33.7891C40.1758 32.8711 39.4922 32.2461 38.5547 32.2461L12.3633 32.2461C11.4062 32.2461 10.7227 32.8711 10.7227 33.7891C10.7227 34.707 11.4062 35.3125 12.3633 35.3125Z" fill="black" fill-opacity="0.85"/>
 </g>
</svg>
