<?xml version="1.0" encoding="UTF-8"?>
<!--Generator: Apple Native CoreSVG 326-->
<!DOCTYPE svg
PUBLIC "-//W3C//DTD SVG 1.1//EN"
       "http://www.w3.org/Graphics/SVG/1.1/DTD/svg11.dtd">
<svg version="1.1" xmlns="http://www.w3.org/2000/svg" xmlns:xlink="http://www.w3.org/1999/xlink" viewBox="0 0 56.6602 44.4727">
 <g>
  <rect height="44.4727" opacity="0" width="56.6602" x="0" y="0"/>
  <path d="M53.9453 34.5117C55.4883 34.5117 56.2891 33.7109 56.2891 32.168L56.2891 12.3047C56.2891 10.7617 55.4883 9.96094 53.9453 9.96094C52.4023 9.96094 51.6016 10.7617 51.6016 12.3047L51.6016 32.168C51.6016 33.7109 52.4023 34.5117 53.9453 34.5117Z" fill="black" fill-opacity="0.85"/>
  <path d="M41.0352 28.2031C42.5586 28.2031 43.3789 27.4023 43.3789 25.8594L43.3789 18.6133C43.3789 17.0703 42.5586 16.2695 41.0352 16.2695C39.5117 16.2695 38.7109 17.0703 38.7109 18.6133L38.7109 25.8594C38.7109 27.4023 39.5117 28.2031 41.0352 28.2031Z" fill="black" fill-opacity="0.85"/>
  <path d="M28.1445 44.4727C29.6875 44.4727 30.4883 43.6523 30.4883 42.1094L30.4883 2.36328C30.4883 0.820312 29.6875 0 28.1445 0C26.6016 0 25.8008 0.820312 25.8008 2.36328L25.8008 42.1094C25.8008 43.6523 26.6016 44.4727 28.1445 44.4727Z" fill="black" fill-opacity="0.85"/>
  <path d="M15.2734 28.2031C16.7773 28.2031 17.5781 27.4023 17.5781 25.8594L17.5781 18.6133C17.5781 17.0703 16.7773 16.2695 15.2734 16.2695C13.7305 16.2695 12.9102 17.0703 12.9102 18.6133L12.9102 25.8594C12.9102 27.4023 13.7305 28.2031 15.2734 28.2031Z" fill="black" fill-opacity="0.85"/>
  <path d="M2.34375 34.5117C3.88672 34.5117 4.70703 33.7109 4.70703 32.168L4.70703 12.3047C4.70703 10.7617 3.88672 9.96094 2.34375 9.96094C0.820312 9.96094 0 10.7617 0 12.3047L0 32.168C0 33.7109 0.820312 34.5117 2.34375 34.5117Z" fill="black" fill-opacity="0.85"/>
 </g>
</svg>
