<?xml version="1.0" encoding="UTF-8"?>
<!--Generator: Apple Native CoreSVG 326-->
<!DOCTYPE svg
PUBLIC "-//W3C//DTD SVG 1.1//EN"
       "http://www.w3.org/Graphics/SVG/1.1/DTD/svg11.dtd">
<svg version="1.1" xmlns="http://www.w3.org/2000/svg" xmlns:xlink="http://www.w3.org/1999/xlink" viewBox="0 0 51.25 50.918">
 <g>
  <rect height="50.918" opacity="0" width="51.25" x="0" y="0"/>
  <path d="M25.4297 50.8789C39.4727 50.8789 50.8789 39.4922 50.8789 25.4492C50.8789 11.4062 39.4727 0 25.4297 0C11.3867 0 0 11.4062 0 25.4492C0 39.4922 11.3867 50.8789 25.4297 50.8789ZM25.4297 47.2461C13.3789 47.2461 3.63281 37.5 3.63281 25.4492C3.63281 13.3984 13.3789 3.65234 25.4297 3.65234C37.4805 3.65234 47.2266 13.3984 47.2266 25.4492C47.2266 37.5 37.4805 47.2461 25.4297 47.2461Z" fill="black" fill-opacity="0.85"/>
  <path d="M11.5625 23.8281L39.3359 23.8281C40.293 23.8281 40.9766 23.2031 40.9766 22.2852C40.9766 21.3672 40.293 20.7617 39.3359 20.7617L11.5625 20.7617C10.6055 20.7617 9.92188 21.3672 9.92188 22.2852C9.92188 23.2031 10.6055 23.8281 11.5625 23.8281ZM15.2734 32.1484L35.625 32.1484C36.582 32.1484 37.2656 31.543 37.2656 30.625C37.2656 29.707 36.582 29.082 35.625 29.082L15.2734 29.082C14.3164 29.082 13.6328 29.707 13.6328 30.625C13.6328 31.543 14.3164 32.1484 15.2734 32.1484Z" fill="black" fill-opacity="0.85"/>
 </g>
</svg>
