<?xml version="1.0" encoding="UTF-8"?>
<!--Generator: Apple Native CoreSVG 326-->
<!DOCTYPE svg
PUBLIC "-//W3C//DTD SVG 1.1//EN"
       "http://www.w3.org/Graphics/SVG/1.1/DTD/svg11.dtd">
<svg version="1.1" xmlns="http://www.w3.org/2000/svg" xmlns:xlink="http://www.w3.org/1999/xlink" viewBox="0 0 51.25 50.918">
 <g>
  <rect height="50.918" opacity="0" width="51.25" x="0" y="0"/>
  <path d="M50.8789 25.4688C50.8789 39.4922 39.4531 50.918 25.4297 50.918C11.4258 50.918 0 39.4922 0 25.4688C0 11.4648 11.4258 0.0390625 25.4297 0.0390625C39.4531 0.0390625 50.8789 11.4648 50.8789 25.4688ZM23.8281 22.3438C25.0586 22.4609 26.0156 22.8906 26.7773 23.6328C28.8281 25.6836 28.5547 28.418 25.957 30.957L21.8555 35.0781C19.3555 37.5781 16.6602 37.832 14.6094 35.7812C12.5391 33.75 12.7344 31.0352 15.293 28.5352L18.3594 25.4688C18.0273 24.5703 18.0078 23.2422 18.4375 22.0312L13.5547 26.875C9.96094 30.4688 9.70703 34.3945 12.8711 37.5391C16.0156 40.6641 19.9414 40.4297 23.5352 36.8359L27.7344 32.6562C31.3672 29.0234 31.6602 25.0781 28.4766 21.9336C27.5195 20.918 26.4648 20.3125 25.625 20.1953C24.9805 20.6445 24.1602 21.5039 23.8281 22.3438ZM26.4062 14.0039L22.207 18.1836C18.5742 21.8164 18.2812 25.7812 21.4648 28.9258C22.4219 29.9219 23.4766 30.5273 24.3164 30.6641C24.9805 30.1953 25.7812 29.3359 26.1133 28.4961C24.8828 28.3789 23.9258 27.9492 23.1836 27.207C21.1328 25.1562 21.3867 22.4219 23.9844 19.9023L28.0859 15.7617C30.6055 13.2617 33.2812 13.0078 35.332 15.0586C37.4219 17.0898 37.2266 19.8047 34.6484 22.3047L31.582 25.3711C31.9141 26.2695 31.9336 27.5977 31.5234 28.8086L36.4062 23.9844C39.9805 20.3906 40.2344 16.4453 37.0703 13.3008C33.9258 10.1758 30 10.4102 26.4062 14.0039Z" fill="black" fill-opacity="0.85"/>
 </g>
</svg>
