<?xml version="1.0" encoding="UTF-8"?>
<!--Generator: Apple Native CoreSVG 326-->
<!DOCTYPE svg
PUBLIC "-//W3C//DTD SVG 1.1//EN"
       "http://www.w3.org/Graphics/SVG/1.1/DTD/svg11.dtd">
<svg version="1.1" xmlns="http://www.w3.org/2000/svg" xmlns:xlink="http://www.w3.org/1999/xlink" viewBox="0 0 60.961 50.918">
 <g>
  <rect height="50.918" opacity="0" width="60.961" x="0" y="0"/>
  <path d="M30.295 50.8789C44.3379 50.8789 55.7246 39.4922 55.7246 25.4492C55.7246 11.4062 44.3379 0 30.295 0C16.252 0 4.86526 11.4062 4.86526 25.4492L8.49808 25.4492C8.49808 13.3984 18.2442 3.65234 30.295 3.65234C42.3457 3.65234 52.0918 13.3984 52.0918 25.4492C52.0918 37.5 42.3457 47.2461 30.295 47.2461C22.834 47.2461 16.1739 43.457 12.3653 37.7539C11.7207 36.875 10.7051 36.6016 9.80667 37.1484C8.94729 37.6562 8.69339 38.8477 9.39651 39.8047C13.9473 46.5039 21.6426 50.8789 30.295 50.8789ZM1.60354 20.7227C0.00198146 20.7227-0.447237 21.8164 0.470731 23.0859L6.01761 30.9766C6.75979 32.0508 7.83401 32.0312 8.55667 30.9766L14.1035 23.0664C14.9825 21.8164 14.5528 20.7227 12.9707 20.7227Z" fill="black" fill-opacity="0.85"/>
  <path d="M22.7168 36.2109L37.6582 36.2109C38.3028 36.2109 38.791 35.7227 38.791 35.0977C38.791 34.4922 38.3028 34.0039 37.6582 34.0039L25.7051 34.0039L25.7051 33.8672C27.502 33.2812 28.5567 31.3477 28.7129 29.2773C28.7325 29.0039 28.752 28.7305 28.7325 28.457L35.0801 28.457C35.5489 28.457 35.959 28.0859 35.959 27.5977C35.959 27.1094 35.5489 26.7383 35.0801 26.7383L28.5762 26.7383C28.3809 25.6641 28.0489 24.7461 27.795 23.75L35.0801 23.75C35.5489 23.75 35.959 23.3789 35.959 22.8906C35.959 22.4023 35.5489 22.0312 35.0801 22.0312L27.502 22.0312C27.4629 21.7188 27.4434 21.3867 27.4434 21.0352C27.4434 17.9688 29.8653 16.3867 32.9512 16.3867C33.9668 16.3867 35.0801 16.5625 35.7442 16.7188C36.0957 16.8359 36.4864 16.9141 36.7403 16.9141C37.4434 16.9141 37.7168 16.4844 37.7168 15.9766C37.7168 15.3711 37.3262 15.0391 36.7598 14.7852C35.4903 14.2383 33.9668 14.1602 32.6973 14.1602C27.9903 14.1602 24.7871 16.6602 24.7871 21.1133C24.7871 21.4258 24.8067 21.7188 24.8262 22.0312L22.502 22.0312C22.0137 22.0312 21.6231 22.4023 21.6231 22.8906C21.6231 23.3789 22.0137 23.75 22.502 23.75L25.1192 23.75C25.3535 24.8047 25.7051 25.7422 25.9395 26.7383L22.502 26.7383C22.0137 26.7383 21.6231 27.1094 21.6231 27.5977C21.6231 28.0859 22.0137 28.457 22.502 28.457L26.1543 28.457C26.1739 28.75 26.1348 29.1406 26.0957 29.4727C25.8418 31.7188 24.3575 33.2422 22.5996 33.7695C21.9551 33.9844 21.5645 34.3555 21.5645 35.0391C21.5645 35.8008 22.0723 36.2109 22.7168 36.2109Z" fill="black" fill-opacity="0.85"/>
 </g>
</svg>
