<?xml version="1.0" encoding="UTF-8"?>
<!--Generator: Apple Native CoreSVG 326-->
<!DOCTYPE svg
PUBLIC "-//W3C//DTD SVG 1.1//EN"
       "http://www.w3.org/Graphics/SVG/1.1/DTD/svg11.dtd">
<svg version="1.1" xmlns="http://www.w3.org/2000/svg" xmlns:xlink="http://www.w3.org/1999/xlink" viewBox="0 0 34.5312 44.4727">
 <g>
  <rect height="44.4727" opacity="0" width="34.5312" x="0" y="0"/>
  <path d="M1.91406 44.3945L32.3242 44.3945C33.4375 44.3945 34.2578 43.7109 34.2578 42.6172C34.2578 41.4648 33.418 40.7812 32.3242 40.7812L7.16797 40.7812L7.16797 40.625C11.4453 39.3945 13.7695 34.1992 13.7695 29.707C13.7695 23.0273 10.918 20.0781 10.918 13.6523C10.918 7.12891 15.8398 3.73047 22.5 3.73047C24.2773 3.73047 25.8398 3.94531 27.3242 4.39453C28.1836 4.58984 29.6289 4.98047 30.3516 4.98047C31.3672 4.98047 31.9922 4.375 31.9922 3.35938C31.9922 2.36328 31.1719 1.73828 30.332 1.38672C27.9102 0.292969 24.9805 0 22.168 0C13.0273 0 6.58203 4.88281 6.58203 13.8867C6.58203 20.1172 9.58984 24.1797 9.58984 29.8828C9.58984 34.6094 6.91406 38.9258 1.73828 40.3711C0.683594 40.7031 0 41.3086 0 42.5195C0 43.5547 0.703125 44.3945 1.91406 44.3945ZM0.371094 23.7891C0.371094 24.707 1.05469 25.3906 1.97266 25.3906L26.9531 25.3906C27.8906 25.3906 28.5742 24.707 28.5742 23.7891C28.5742 22.8906 27.8906 22.207 26.9531 22.207L1.97266 22.207C1.05469 22.207 0.371094 22.8906 0.371094 23.7891ZM0.371094 21.0156C0.371094 21.9336 1.05469 22.5977 1.97266 22.5977L26.9531 22.5977C27.8906 22.5977 28.5742 21.9141 28.5742 21.0156C28.5742 20.0977 27.8906 19.4141 26.9531 19.4141L1.97266 19.4141C1.05469 19.4141 0.371094 20.0977 0.371094 21.0156Z" fill="black" fill-opacity="0.85"/>
 </g>
</svg>
