<?xml version="1.0" encoding="UTF-8"?>
<!--Generator: Apple Native CoreSVG 326-->
<!DOCTYPE svg
PUBLIC "-//W3C//DTD SVG 1.1//EN"
       "http://www.w3.org/Graphics/SVG/1.1/DTD/svg11.dtd">
<svg version="1.1" xmlns="http://www.w3.org/2000/svg" xmlns:xlink="http://www.w3.org/1999/xlink" viewBox="0 0 50.6055 42.6758">
 <g>
  <rect height="42.6758" opacity="0" width="50.6055" x="0" y="0"/>
  <path d="M15.3711 38.2031L48.4766 38.2031C49.4531 38.2031 50.2344 37.4609 50.2344 36.4844C50.2344 35.5078 49.4531 34.7461 48.4766 34.7461L15.3711 34.7461C14.3945 34.7461 13.6328 35.5078 13.6328 36.4844C13.6328 37.4609 14.3945 38.2031 15.3711 38.2031Z" fill="black" fill-opacity="0.85"/>
  <path d="M4.25781 42.0117C7.12891 42.0117 8.84766 40.7227 8.84766 38.6719C8.84766 37.2852 7.91016 36.3281 6.17188 36.1719L6.17188 36.1133C7.5 35.8594 8.41797 35.0195 8.41797 33.5938C8.41797 31.7578 6.66016 30.7031 4.23828 30.7031C2.32422 30.7031 0.253906 31.6211 0.253906 33.2227C0.253906 33.8867 0.742188 34.3359 1.42578 34.3359C1.95312 34.3359 2.1875 34.1406 2.51953 33.75C3.06641 33.1055 3.55469 32.8906 4.21875 32.8906C5.05859 32.8906 5.64453 33.3008 5.64453 34.082C5.64453 34.8047 5.01953 35.2148 3.96484 35.2148L3.61328 35.2148C2.96875 35.2148 2.53906 35.5664 2.53906 36.2305C2.53906 36.875 2.94922 37.2461 3.61328 37.2461L4.00391 37.2461C5.17578 37.2461 5.80078 37.6562 5.80078 38.4766C5.80078 39.2188 5.13672 39.7266 4.25781 39.7266C3.35938 39.7266 2.71484 39.2578 2.24609 38.75C1.97266 38.4375 1.71875 38.2422 1.28906 38.2422C0.527344 38.2422 0 38.6914 0 39.4141C0 41.0938 2.28516 42.0117 4.25781 42.0117Z" fill="black" fill-opacity="0.85"/>
  <path d="M15.3711 23.0859L48.4766 23.0859C49.4531 23.0859 50.2344 22.3242 50.2344 21.3477C50.2344 20.3711 49.4531 19.6289 48.4766 19.6289L15.3711 19.6289C14.3945 19.6289 13.6328 20.3711 13.6328 21.3477C13.6328 22.3242 14.3945 23.0859 15.3711 23.0859Z" fill="black" fill-opacity="0.85"/>
  <path d="M1.32812 26.4062L7.67578 26.4062C8.32031 26.4062 8.78906 25.9766 8.78906 25.3125C8.78906 24.6094 8.32031 24.1797 7.67578 24.1797L3.96484 24.1797L3.96484 24.1016L6.09375 22.3242C7.8125 20.8789 8.4375 20.0781 8.4375 18.6523C8.4375 16.7188 6.79688 15.3906 4.19922 15.3906C1.85547 15.3906 0.195312 16.6406 0.195312 18.1836C0.195312 18.9648 0.683594 19.3555 1.44531 19.3555C1.99219 19.3555 2.36328 19.1797 2.65625 18.6133C2.98828 17.9883 3.49609 17.6367 4.23828 17.6367C5.01953 17.6367 5.58594 18.1445 5.58594 18.8672C5.58594 19.5117 5.25391 20.0195 3.96484 21.1133L0.703125 23.8477C0.234375 24.2383 0.0585938 24.6484 0.0585938 25.1758C0.0585938 25.918 0.546875 26.4062 1.32812 26.4062Z" fill="black" fill-opacity="0.85"/>
  <path d="M15.3711 7.94922L48.4766 7.94922C49.4531 7.94922 50.2344 7.20703 50.2344 6.23047C50.2344 5.25391 49.4531 4.49219 48.4766 4.49219L15.3711 4.49219C14.3945 4.49219 13.6328 5.25391 13.6328 6.23047C13.6328 7.20703 14.3945 7.94922 15.3711 7.94922Z" fill="black" fill-opacity="0.85"/>
  <path d="M5.25391 11.3281C6.15234 11.3281 6.75781 10.8203 6.75781 9.78516L6.75781 1.64062C6.75781 0.644531 6.07422 0 5.05859 0C4.21875 0 3.71094 0.3125 3.10547 0.703125L1.32812 1.95312C0.800781 2.30469 0.546875 2.61719 0.546875 3.10547C0.546875 3.73047 1.03516 4.16016 1.58203 4.16016C1.89453 4.16016 2.05078 4.10156 2.48047 3.80859L3.69141 2.94922L3.73047 2.94922L3.73047 9.78516C3.73047 10.8203 4.33594 11.3281 5.25391 11.3281Z" fill="black" fill-opacity="0.85"/>
 </g>
</svg>
