<?xml version="1.0" encoding="UTF-8"?>
<!--Generator: Apple Native CoreSVG 326-->
<!DOCTYPE svg
PUBLIC "-//W3C//DTD SVG 1.1//EN"
       "http://www.w3.org/Graphics/SVG/1.1/DTD/svg11.dtd">
<svg version="1.1" xmlns="http://www.w3.org/2000/svg" xmlns:xlink="http://www.w3.org/1999/xlink" viewBox="0 0 59.5508 45.918">
 <g>
  <rect height="45.918" opacity="0" width="59.5508" x="0" y="0"/>
  <path d="M7.59766 45.918L51.5625 45.918C56.6211 45.918 59.1797 43.3594 59.1797 38.3984L59.1797 7.53906C59.1797 2.55859 56.6211 0 51.5625 0L7.59766 0C2.55859 0 0 2.53906 0 7.53906L0 38.3984C0 43.3984 2.55859 45.918 7.59766 45.918ZM7.67578 42.4609C4.94141 42.4609 3.45703 41.0156 3.45703 38.2031L3.45703 7.71484C3.45703 4.92188 4.94141 3.45703 7.67578 3.45703L51.5039 3.45703C54.1797 3.45703 55.7031 4.92188 55.7031 7.71484L55.7031 38.2031C55.7031 41.0156 54.1797 42.4609 51.5039 42.4609Z" fill="black" fill-opacity="0.85"/>
  <path d="M11.4648 13.3594C12.7539 13.3594 13.7891 12.3242 13.7891 11.0352C13.7891 9.74609 12.7539 8.71094 11.4648 8.71094C10.2148 8.71094 9.16016 9.76562 9.16016 11.0352C9.16016 12.3047 10.2148 13.3594 11.4648 13.3594ZM11.4648 21.1914C12.7539 21.1914 13.7891 20.1562 13.7891 18.8867C13.7891 17.5977 12.7539 16.5625 11.4648 16.5625C10.2148 16.5625 9.16016 17.6172 9.16016 18.8867C9.16016 20.1367 10.2148 21.1914 11.4648 21.1914ZM11.4648 29.0234C12.7539 29.0234 13.7891 27.9883 13.7891 26.6992C13.7891 25.4297 12.7539 24.4141 11.4648 24.4141C10.1953 24.4141 9.16016 25.4492 9.16016 26.6992C9.16016 27.9883 10.1953 29.0234 11.4648 29.0234ZM11.4648 37.1484C12.7539 37.1484 13.7891 36.1133 13.7891 34.8242C13.7891 33.5352 12.7539 32.5 11.4648 32.5C10.2148 32.5 9.16016 33.5547 9.16016 34.8242C9.16016 36.0938 10.2148 37.1484 11.4648 37.1484ZM19.4141 12.3828L48.9062 12.3828C49.6875 12.3828 50.293 11.7969 50.293 11.0352C50.293 10.2734 49.668 9.66797 48.9062 9.66797L19.4141 9.66797C18.6523 9.66797 18.0469 10.2734 18.0469 11.0352C18.0469 11.7969 18.6328 12.3828 19.4141 12.3828ZM19.4141 20.2539L36.0547 20.2539C36.8164 20.2539 37.4219 19.6484 37.4219 18.8867C37.4219 18.125 36.8164 17.5 36.0547 17.5L19.4141 17.5C18.6523 17.5 18.0469 18.125 18.0469 18.8867C18.0469 19.6484 18.6523 20.2539 19.4141 20.2539ZM19.4141 28.0859L48.9062 28.0859C49.6875 28.0859 50.293 27.4805 50.293 26.6992C50.293 25.9375 49.6875 25.3516 48.9062 25.3516L19.4141 25.3516C18.6328 25.3516 18.0469 25.9375 18.0469 26.6992C18.0469 27.4805 18.6328 28.0859 19.4141 28.0859ZM19.4141 36.1914L36.0547 36.1914C36.8164 36.1914 37.4219 35.5859 37.4219 34.8242C37.4219 34.0625 36.8359 33.4766 36.0547 33.4766L19.4141 33.4766C18.6328 33.4766 18.0469 34.0625 18.0469 34.8242C18.0469 35.5859 18.6523 36.1914 19.4141 36.1914Z" fill="black" fill-opacity="0.85"/>
 </g>
</svg>
