<?xml version="1.0" encoding="UTF-8"?>
<!--Generator: Apple Native CoreSVG 326-->
<!DOCTYPE svg
PUBLIC "-//W3C//DTD SVG 1.1//EN"
       "http://www.w3.org/Graphics/SVG/1.1/DTD/svg11.dtd">
<svg version="1.1" xmlns="http://www.w3.org/2000/svg" xmlns:xlink="http://www.w3.org/1999/xlink" viewBox="0 0 42.3047 68.6523">
 <g>
  <rect height="68.6523" opacity="0" width="42.3047" x="0" y="0"/>
  <path d="M8.32031 9.94141L8.32031 12.5586C8.32031 15.4883 10.3711 17.5586 13.2422 17.5586L28.6914 17.5586C31.5625 17.5586 33.6133 15.4883 33.6133 12.5586L33.6133 9.94141C33.6133 9.74859 33.6043 9.55946 33.5853 9.375L34.4141 9.375C39.4141 9.375 41.9336 11.9336 41.9336 16.9922L41.9336 55.625C41.9336 60.6836 39.4141 63.2227 34.4141 63.2227L7.51953 63.2227C2.51953 63.2227 0 60.6836 0 55.625L0 16.9922C0 11.9336 2.51953 9.375 7.51953 9.375L8.34825 9.375C8.32932 9.55946 8.32031 9.74859 8.32031 9.94141ZM8.06641 47.168C8.06641 48.2812 8.98438 49.1992 10.0781 49.1992C11.1914 49.1992 12.1094 48.3008 12.1094 47.168C12.1094 46.0742 11.1914 45.1562 10.0781 45.1562C8.98438 45.1562 8.06641 46.0938 8.06641 47.168ZM16.6406 45.7812C15.8398 45.7812 15.2148 46.4062 15.2148 47.168C15.2148 47.9492 15.8594 48.6133 16.6406 48.6133L32.4609 48.6133C33.2227 48.6133 33.8867 47.9492 33.8867 47.168C33.8867 46.4062 33.2422 45.7812 32.4609 45.7812ZM8.06641 37.4023C8.06641 38.5156 8.96484 39.4336 10.0781 39.4336C11.1914 39.4336 12.1094 38.5156 12.1094 37.4023C12.1094 36.2891 11.1914 35.4102 10.0781 35.4102C8.96484 35.4102 8.06641 36.3086 8.06641 37.4023ZM16.6406 35.9961C15.8398 35.9961 15.2148 36.6211 15.2148 37.4023C15.2148 38.2031 15.8398 38.8281 16.6406 38.8281L32.4609 38.8281C33.2422 38.8281 33.8867 38.2031 33.8867 37.4023C33.8867 36.6211 33.2422 35.9961 32.4609 35.9961ZM8.06641 28.1641C8.06641 29.2578 8.98438 30.1953 10.0781 30.1953C11.1914 30.1953 12.1094 29.2773 12.1094 28.1641C12.1094 27.0508 11.1914 26.1523 10.0781 26.1523C8.98438 26.1523 8.06641 27.0703 8.06641 28.1641ZM16.6406 26.7383C15.8594 26.7383 15.2148 27.4023 15.2148 28.1641C15.2148 28.9453 15.8594 29.5898 16.6406 29.5898L32.4609 29.5898C33.2227 29.5898 33.8867 28.9453 33.8867 28.1641C33.8867 27.4023 33.2227 26.7383 32.4609 26.7383Z" fill="black" fill-opacity="0.85"/>
  <path d="M26.1719 7.67578L28.6914 7.67578C30.0586 7.67578 30.8984 8.51562 30.8984 9.94141L30.8984 12.5586C30.8984 13.9844 30.0586 14.8242 28.6914 14.8242L13.2422 14.8242C11.875 14.8242 11.0352 13.9844 11.0352 12.5586L11.0352 9.94141C11.0352 8.51562 11.875 7.67578 13.2422 7.67578L15.7617 7.67578C15.8984 4.94141 18.1836 2.71484 20.9766 2.71484C23.75 2.71484 26.0352 4.94141 26.1719 7.67578ZM18.7305 7.83203C18.7305 9.02344 19.7266 10.0586 20.9766 10.0586C22.207 10.0586 23.2031 9.02344 23.2031 7.83203C23.2031 6.58203 22.207 5.58594 20.9766 5.58594C19.7266 5.58594 18.7305 6.58203 18.7305 7.83203Z" fill="black" fill-opacity="0.85"/>
 </g>
</svg>
