<?xml version="1.0" encoding="UTF-8"?>
<!--Generator: Apple Native CoreSVG 326-->
<!DOCTYPE svg
PUBLIC "-//W3C//DTD SVG 1.1//EN"
       "http://www.w3.org/Graphics/SVG/1.1/DTD/svg11.dtd">
<svg version="1.1" xmlns="http://www.w3.org/2000/svg" xmlns:xlink="http://www.w3.org/1999/xlink" viewBox="0 0 50.6055 37.9868">
 <g>
  <rect height="37.9868" opacity="0" width="50.6055" x="0" y="0"/>
  <path d="M15.3711 35.8587L48.4766 35.8587C49.4531 35.8587 50.2344 35.1165 50.2344 34.1399C50.2344 33.1633 49.4531 32.4016 48.4766 32.4016L15.3711 32.4016C14.3945 32.4016 13.6328 33.1633 13.6328 34.1399C13.6328 35.1165 14.3945 35.8587 15.3711 35.8587Z" fill="black" fill-opacity="0.85"/>
  <path d="M1.95312 37.7141L6.17188 35.1946C6.93359 34.7454 6.91406 33.6126 6.17188 33.1829L1.95312 30.6047C0.976562 30.0188 0 30.3118 0 31.4446L0 36.8743C0 37.9876 1.01562 38.261 1.95312 37.7141Z" fill="black" fill-opacity="0.85"/>
  <path d="M15.3711 20.7415L48.4766 20.7415C49.4531 20.7415 50.2344 19.9797 50.2344 19.0032C50.2344 18.0266 49.4531 17.2844 48.4766 17.2844L15.3711 17.2844C14.3945 17.2844 13.6328 18.0266 13.6328 19.0032C13.6328 19.9797 14.3945 20.7415 15.3711 20.7415Z" fill="black" fill-opacity="0.85"/>
  <path d="M1.95312 22.5579L6.17188 20.0383C6.93359 19.5696 6.91406 18.4563 6.17188 18.0071L1.95312 15.4485C0.976562 14.8626 0 15.1555 0 16.2883L0 21.718C0 22.8313 1.01562 23.1047 1.95312 22.5579Z" fill="black" fill-opacity="0.85"/>
  <path d="M15.3711 5.60475L48.4766 5.60475C49.4531 5.60475 50.2344 4.86256 50.2344 3.886C50.2344 2.90944 49.4531 2.14772 48.4766 2.14772L15.3711 2.14772C14.3945 2.14772 13.6328 2.90944 13.6328 3.886C13.6328 4.86256 14.3945 5.60475 15.3711 5.60475Z" fill="black" fill-opacity="0.85"/>
  <path d="M1.95312 7.46022L6.17188 4.94069C6.93359 4.49147 6.91406 3.35866 6.17188 2.90944L1.95312 0.350843C0.976562-0.235094 0 0.0578746 0 1.19069L0 6.62037C0 7.73366 1.01562 8.00709 1.95312 7.46022Z" fill="black" fill-opacity="0.85"/>
 </g>
</svg>
