<?xml version="1.0" encoding="UTF-8"?>
<!--Generator: Apple Native CoreSVG 326-->
<!DOCTYPE svg
PUBLIC "-//W3C//DTD SVG 1.1//EN"
       "http://www.w3.org/Graphics/SVG/1.1/DTD/svg11.dtd">
<svg version="1.1" xmlns="http://www.w3.org/2000/svg" xmlns:xlink="http://www.w3.org/1999/xlink" viewBox="0 0 51.25 50.918">
 <g>
  <rect height="50.918" opacity="0" width="51.25" x="0" y="0"/>
  <path d="M50.8789 25.4492C50.8789 39.4531 39.4531 50.8789 25.4297 50.8789C11.4258 50.8789 0 39.4531 0 25.4492C0 11.4258 11.4258 0 25.4297 0C39.4531 0 50.8789 11.4258 50.8789 25.4492ZM10.625 34.1211C10.625 35.332 11.582 36.2891 12.7734 36.2891C13.9844 36.2891 14.9414 35.332 14.9414 34.1211C14.9414 32.9492 13.9648 31.9531 12.7734 31.9531C11.582 31.9531 10.625 32.9297 10.625 34.1211ZM18.9844 32.7539C18.2227 32.7539 17.5977 33.3789 17.5977 34.1211C17.5977 34.8828 18.1836 35.5078 18.9844 35.5078L38.7695 35.5078C39.5703 35.5078 40.1758 34.9023 40.1758 34.1211C40.1758 33.3398 39.5703 32.7539 38.7695 32.7539ZM10.625 25.4688C10.625 26.6797 11.582 27.6367 12.7734 27.6367C13.9648 27.6367 14.9414 26.6602 14.9414 25.4688C14.9414 24.2969 13.9648 23.3203 12.7734 23.3203C11.582 23.3203 10.625 24.2773 10.625 25.4688ZM18.9844 24.1016C18.2227 24.1016 17.5977 24.7266 17.5977 25.4688C17.5977 26.2305 18.2227 26.8555 18.9844 26.8555L38.7695 26.8555C39.5703 26.8555 40.1758 26.25 40.1758 25.4688C40.1758 24.6875 39.5703 24.1016 38.7695 24.1016ZM10.625 16.8359C10.625 18.0078 11.582 18.9844 12.7734 18.9844C13.9648 18.9844 14.9414 17.9883 14.9414 16.8359C14.9414 15.625 13.9844 14.668 12.7734 14.668C11.582 14.668 10.625 15.625 10.625 16.8359ZM18.9844 15.4492C18.1836 15.4492 17.5977 16.0547 17.5977 16.8359C17.5977 17.5781 18.2227 18.2031 18.9844 18.2031L38.7695 18.2031C39.5703 18.2031 40.1758 17.6172 40.1758 16.8359C40.1758 16.0547 39.5703 15.4492 38.7695 15.4492Z" fill="black" fill-opacity="0.85"/>
 </g>
</svg>
