<?xml version="1.0" encoding="UTF-8"?>
<!--Generator: Apple Native CoreSVG 326-->
<!DOCTYPE svg
PUBLIC "-//W3C//DTD SVG 1.1//EN"
       "http://www.w3.org/Graphics/SVG/1.1/DTD/svg11.dtd">
<svg version="1.1" xmlns="http://www.w3.org/2000/svg" xmlns:xlink="http://www.w3.org/1999/xlink" viewBox="0 0 42.3047 53.8477">
 <g>
  <rect height="53.8477" opacity="0" width="42.3047" x="0" y="0"/>
  <path d="M0 46.25C0 51.2891 2.51953 53.8477 7.51953 53.8477L34.4141 53.8477C39.4141 53.8477 41.9336 51.2891 41.9336 46.25L41.9336 7.61719C41.9336 2.57812 39.4141 0.0195312 34.4141 0.0195312L7.51953 0.0195312C2.51953 0.0195312 0 2.57812 0 7.61719ZM3.45703 46.1719L3.45703 7.69531C3.45703 4.96094 4.90234 3.47656 7.71484 3.47656L34.2188 3.47656C37.0312 3.47656 38.4766 4.96094 38.4766 7.69531L38.4766 46.1719C38.4766 48.9062 37.0312 50.3906 34.2188 50.3906L7.71484 50.3906C4.90234 50.3906 3.45703 48.9062 3.45703 46.1719Z" fill="black" fill-opacity="0.85"/>
  <path d="M9.76562 29.4727C11.0352 29.4727 12.0703 28.4375 12.0703 27.168C12.0703 25.8789 11.0352 24.8438 9.76562 24.8438C8.49609 24.8438 7.44141 25.8984 7.44141 27.168C7.44141 28.418 8.49609 29.4727 9.76562 29.4727ZM16.8359 28.5352L33.125 28.5352C33.8867 28.5352 34.4922 27.9297 34.4922 27.168C34.4922 26.4062 33.9062 25.8008 33.125 25.8008L16.8359 25.8008C16.0547 25.8008 15.4688 26.4062 15.4688 27.168C15.4688 27.9297 16.0742 28.5352 16.8359 28.5352Z" fill="black" fill-opacity="0.85"/>
  <path d="M9.76562 21.3672C11.0352 21.3672 12.0703 20.332 12.0703 19.043C12.0703 17.7539 11.0352 16.7383 9.76562 16.7383C8.47656 16.7383 7.44141 17.7734 7.44141 19.043C7.44141 20.332 8.47656 21.3672 9.76562 21.3672ZM16.8359 20.4102L33.125 20.4102C33.9062 20.4102 34.4922 19.8242 34.4922 19.043C34.4922 18.2812 33.9062 17.6953 33.125 17.6953L16.8359 17.6953C16.0547 17.6953 15.4688 18.2812 15.4688 19.043C15.4688 19.8242 16.0547 20.4102 16.8359 20.4102Z" fill="black" fill-opacity="0.85"/>
  <path d="M9.76562 13.5352C11.0352 13.5352 12.0703 12.5 12.0703 11.2109C12.0703 9.94141 11.0352 8.90625 9.76562 8.90625C8.49609 8.90625 7.44141 9.96094 7.44141 11.2109C7.44141 12.4805 8.49609 13.5352 9.76562 13.5352ZM16.8359 12.5977L33.125 12.5977C33.8867 12.5977 34.4922 11.9727 34.4922 11.2109C34.4922 10.4492 33.8867 9.84375 33.125 9.84375L16.8359 9.84375C16.0742 9.84375 15.4688 10.4492 15.4688 11.2109C15.4688 11.9727 16.0742 12.5977 16.8359 12.5977Z" fill="black" fill-opacity="0.85"/>
 </g>
</svg>
