<?xml version="1.0" encoding="UTF-8"?>
<!--Generator: Apple Native CoreSVG 326-->
<!DOCTYPE svg
PUBLIC "-//W3C//DTD SVG 1.1//EN"
       "http://www.w3.org/Graphics/SVG/1.1/DTD/svg11.dtd">
<svg version="1.1" xmlns="http://www.w3.org/2000/svg" xmlns:xlink="http://www.w3.org/1999/xlink" viewBox="0 0 60.293 43.0664">
 <g>
  <rect height="43.0664" opacity="0" width="60.293" x="0" y="0"/>
  <path d="M1.73828 3.45703L48.4766 3.45703C49.4531 3.45703 50.2344 2.71484 50.2344 1.73828C50.2344 0.761719 49.4531 0 48.4766 0L1.73828 0C0.742188 0 0 0.761719 0 1.73828C0 2.71484 0.742188 3.45703 1.73828 3.45703ZM1.73828 16.6602L18.0469 16.6602C19.0234 16.6602 19.8047 15.8984 19.8047 14.9219C19.8047 13.9453 19.0234 13.1836 18.0469 13.1836L1.73828 13.1836C0.742188 13.1836 0 13.9453 0 14.9219C0 15.8984 0.742188 16.6602 1.73828 16.6602ZM1.73828 29.8438L18.0469 29.8438C19.0234 29.8438 19.8047 29.082 19.8047 28.1055C19.8047 27.1289 19.0234 26.3867 18.0469 26.3867L1.73828 26.3867C0.742188 26.3867 0 27.1289 0 28.1055C0 29.082 0.742188 29.8438 1.73828 29.8438ZM1.73828 43.0273L18.0469 43.0273C19.0234 43.0273 19.8047 42.2852 19.8047 41.3086C19.8047 40.3125 19.0234 39.5703 18.0469 39.5703L1.73828 39.5703C0.742188 39.5703 0 40.3125 0 41.3086C0 42.2852 0.742188 43.0273 1.73828 43.0273Z" fill="black" fill-opacity="0.85"/>
  <path d="M27.3633 42.4414L56.7578 42.4414C58.7109 42.4414 59.9219 41.25 59.9219 39.3359L59.9219 16.8359C59.9219 14.9414 58.7109 13.75 56.7578 13.75L27.3633 13.75C25.4102 13.75 24.1992 14.9414 24.1992 16.8359L24.1992 39.3359C24.1992 41.25 25.4102 42.4414 27.3633 42.4414ZM27.5391 20.625C27.0117 20.625 26.6797 20.293 26.6797 19.7852L26.6797 17.0508C26.6797 16.543 27.0117 16.1719 27.5391 16.1719L29.8828 16.1719C30.4102 16.1719 30.7422 16.543 30.7422 17.0508L30.7422 19.7852C30.7422 20.293 30.4102 20.625 29.8828 20.625ZM27.5391 27.0898C27.0117 27.0898 26.6797 26.7188 26.6797 26.2695L26.6797 23.5352C26.6797 22.9883 27.0117 22.6562 27.5391 22.6562L29.8828 22.6562C30.4102 22.6562 30.7422 22.9883 30.7422 23.5352L30.7422 26.2695C30.7422 26.7188 30.4102 27.0898 29.8828 27.0898ZM27.5391 33.5156C27.0117 33.5156 26.6797 33.1836 26.6797 32.7148L26.6797 29.9609C26.6797 29.4336 27.0117 29.082 27.5391 29.082L29.8828 29.082C30.4102 29.082 30.7422 29.4336 30.7422 29.9609L30.7422 32.7148C30.7422 33.1836 30.4102 33.5156 29.8828 33.5156ZM27.5391 40C27.0117 40 26.6797 39.668 26.6797 39.1602L26.6797 36.4258C26.6797 35.8984 27.0117 35.5469 27.5391 35.5469L29.8828 35.5469C30.4102 35.5469 30.7422 35.8984 30.7422 36.4258L30.7422 39.1602C30.7422 39.668 30.4102 40 29.8828 40ZM54.2383 20.625C53.7109 20.625 53.3789 20.293 53.3789 19.7852L53.3789 17.0508C53.3789 16.543 53.7109 16.1719 54.2383 16.1719L56.582 16.1719C57.1094 16.1719 57.4414 16.543 57.4414 17.0508L57.4414 19.7852C57.4414 20.293 57.1094 20.625 56.582 20.625ZM54.2383 27.0898C53.7109 27.0898 53.3789 26.7188 53.3789 26.2695L53.3789 23.5352C53.3789 22.9883 53.7109 22.6562 54.2383 22.6562L56.582 22.6562C57.1094 22.6562 57.4414 22.9883 57.4414 23.5352L57.4414 26.2695C57.4414 26.7188 57.1094 27.0898 56.582 27.0898ZM54.2383 33.5156C53.7109 33.5156 53.3789 33.1836 53.3789 32.7148L53.3789 29.9609C53.3789 29.4336 53.7109 29.082 54.2383 29.082L56.582 29.082C57.1094 29.082 57.4414 29.4336 57.4414 29.9609L57.4414 32.7148C57.4414 33.1836 57.1094 33.5156 56.582 33.5156ZM54.2383 40C53.7109 40 53.3789 39.668 53.3789 39.1602L53.3789 36.4258C53.3789 35.8984 53.7109 35.5469 54.2383 35.5469L56.582 35.5469C57.1094 35.5469 57.4414 35.8984 57.4414 36.4258L57.4414 39.1602C57.4414 39.668 57.1094 40 56.582 40ZM33.9648 39.1992C33.4766 39.1992 33.1641 38.8867 33.1641 38.3984L33.1641 30.5664C33.1641 30.0391 33.4766 29.7266 33.9648 29.7266L50.1562 29.7266C50.6445 29.7266 50.957 30.0391 50.957 30.5664L50.957 38.3984C50.957 38.8867 50.6445 39.1992 50.1562 39.1992ZM33.9648 26.4844C33.4766 26.4844 33.1641 26.1719 33.1641 25.6641L33.1641 17.7734C33.1641 17.2852 33.4766 16.9727 33.9648 16.9727L50.1562 16.9727C50.6445 16.9727 50.957 17.2852 50.957 17.7734L50.957 25.6641C50.957 26.1719 50.6445 26.4844 50.1562 26.4844Z" fill="black" fill-opacity="0.85"/>
 </g>
</svg>
