<?xml version="1.0" encoding="UTF-8"?>
<!--Generator: Apple Native CoreSVG 326-->
<!DOCTYPE svg
PUBLIC "-//W3C//DTD SVG 1.1//EN"
       "http://www.w3.org/Graphics/SVG/1.1/DTD/svg11.dtd">
<svg version="1.1" xmlns="http://www.w3.org/2000/svg" xmlns:xlink="http://www.w3.org/1999/xlink" viewBox="0 0 51.0916 40.7471">
 <g>
  <rect height="40.7471" opacity="0" width="51.0916" x="0" y="0"/>
  <path d="M16.4638 37.2388L48.9638 37.2388C49.9599 37.2388 50.7216 36.4966 50.7216 35.52C50.7216 34.5435 49.9599 33.7818 48.9638 33.7818L16.4638 33.7818C15.4872 33.7818 14.7255 34.5435 14.7255 35.52C14.7255 36.4966 15.4872 37.2388 16.4638 37.2388Z" fill="black" fill-opacity="0.85"/>
  <path d="M2.71376 39.4458L4.78407 37.9029L6.83485 39.4458C7.49892 39.9536 8.22157 39.4458 7.96767 38.7036L7.14735 36.2036L9.21767 34.6607C9.8036 34.2115 9.56923 33.4107 8.84657 33.4107L6.26845 33.4107L5.40907 30.7154C5.21376 30.1099 4.35438 30.0904 4.15907 30.7154L3.31923 33.4107L0.70204 33.4107C-0.0206159 33.4107-0.254991 34.2115 0.330947 34.6607L2.42079 36.2036L1.60048 38.7036C1.3661 39.4458 2.0497 39.9341 2.71376 39.4458Z" fill="black" fill-opacity="0.85"/>
  <path d="M16.4638 22.1216L48.9638 22.1216C49.9599 22.1216 50.7216 21.3599 50.7216 20.3833C50.7216 19.4068 49.9599 18.6646 48.9638 18.6646L16.4638 18.6646C15.4872 18.6646 14.7255 19.4068 14.7255 20.3833C14.7255 21.3599 15.4872 22.1216 16.4638 22.1216Z" fill="black" fill-opacity="0.85"/>
  <path d="M2.71376 24.2896L4.78407 22.7466L6.83485 24.2896C7.49892 24.7974 8.22157 24.2896 7.96767 23.5474L7.14735 21.0279L9.21767 19.4849C9.8036 19.0552 9.56923 18.2544 8.84657 18.2544L6.26845 18.2544L5.40907 15.5591C5.21376 14.9536 4.35438 14.9341 4.15907 15.5591L3.31923 18.2544L0.70204 18.2544C-0.0206159 18.2544-0.254991 19.0552 0.330947 19.4849L2.42079 21.0279L1.60048 23.5474C1.3661 24.2896 2.0497 24.7583 2.71376 24.2896Z" fill="black" fill-opacity="0.85"/>
  <path d="M16.4638 6.98489L48.9638 6.98489C49.9599 6.98489 50.7216 6.2427 50.7216 5.26614C50.7216 4.28958 49.9599 3.52786 48.9638 3.52786L16.4638 3.52786C15.4872 3.52786 14.7255 4.28958 14.7255 5.26614C14.7255 6.2427 15.4872 6.98489 16.4638 6.98489Z" fill="black" fill-opacity="0.85"/>
  <path d="M2.71376 9.19192L4.78407 7.64895L6.83485 9.19192C7.49892 9.69974 8.22157 9.19192 7.96767 8.44974L7.14735 5.9302L9.21767 4.40677C9.8036 3.95755 9.56923 3.15677 8.84657 3.15677L6.26845 3.15677L5.40907 0.461455C5.21376-0.144014 4.35438-0.163545 4.15907 0.461455L3.31923 3.15677L0.70204 3.15677C-0.0206159 3.15677-0.254991 3.95755 0.330947 4.40677L2.42079 5.9302L1.60048 8.44974C1.34657 9.19192 2.0497 9.6802 2.71376 9.19192Z" fill="black" fill-opacity="0.85"/>
 </g>
</svg>
