<?xml version="1.0" encoding="UTF-8"?>
<!--Generator: Apple Native CoreSVG 326-->
<!DOCTYPE svg
PUBLIC "-//W3C//DTD SVG 1.1//EN"
       "http://www.w3.org/Graphics/SVG/1.1/DTD/svg11.dtd">
<svg version="1.1" xmlns="http://www.w3.org/2000/svg" xmlns:xlink="http://www.w3.org/1999/xlink" viewBox="0 0 55.9961 55.5664">
 <g>
  <rect height="55.5664" opacity="0" width="55.9961" x="0" y="0"/>
  <path d="M29.0039 54.3164C29.0039 55 28.457 55.5273 27.7734 55.5273C27.0898 55.5273 26.5625 55 26.5625 54.3164C26.5625 53.6328 27.0898 53.0859 27.7734 53.0859C28.457 53.0859 29.0039 53.6328 29.0039 54.3164ZM24.375 53.9062C24.375 54.5898 23.8477 55.1172 23.1445 55.1172C22.4609 55.1172 21.9336 54.5898 21.9336 53.9062C21.9336 53.2031 22.4609 52.6758 23.1445 52.6758C23.8477 52.6758 24.375 53.2031 24.375 53.9062ZM33.6328 53.9062C33.6328 54.5898 33.0859 55.1172 32.4023 55.1172C31.7188 55.1172 31.1914 54.5898 31.1914 53.9062C31.1914 53.2031 31.7188 52.6758 32.4023 52.6758C33.0859 52.6758 33.6328 53.2031 33.6328 53.9062ZM19.9023 52.7148C19.9023 53.3984 19.375 53.9258 18.6914 53.9258C18.0078 53.9258 17.4609 53.3984 17.4609 52.7148C17.4609 52.0117 18.0078 51.4844 18.6914 51.4844C19.375 51.4844 19.9023 52.0117 19.9023 52.7148ZM38.1055 52.7148C38.1055 53.3984 37.5586 53.9258 36.875 53.9258C36.1914 53.9258 35.6445 53.3984 35.6445 52.7148C35.6445 52.0117 36.1914 51.4844 36.875 51.4844C37.5586 51.4844 38.1055 52.0117 38.1055 52.7148ZM15.7031 50.7227C15.7031 51.4062 15.1562 51.9336 14.4727 51.9336C13.7891 51.9336 13.2617 51.4062 13.2617 50.7227C13.2617 50.0391 13.7891 49.4922 14.4727 49.4922C15.1562 49.4922 15.7031 50.0391 15.7031 50.7227ZM42.3047 50.7227C42.3047 51.4062 41.7773 51.9336 41.0742 51.9336C40.3906 51.9336 39.8633 51.4062 39.8633 50.7227C39.8633 50.0391 40.3906 49.4922 41.0742 49.4922C41.7773 49.4922 42.3047 50.0391 42.3047 50.7227ZM11.9141 48.0664C11.9141 48.75 11.3672 49.2969 10.6836 49.2969C10 49.2969 9.47266 48.75 9.47266 48.0664C9.47266 47.3828 10 46.8555 10.6836 46.8555C11.3672 46.8555 11.9141 47.3828 11.9141 48.0664ZM8.61328 44.8047C8.61328 45.4883 8.08594 46.0156 7.40234 46.0156C6.71875 46.0156 6.17188 45.4883 6.17188 44.8047C6.17188 44.1016 6.71875 43.5742 7.40234 43.5742C8.08594 43.5742 8.61328 44.1016 8.61328 44.8047ZM5.97656 40.9766C5.97656 41.6797 5.42969 42.207 4.74609 42.207C4.0625 42.207 3.51562 41.6797 3.51562 40.9766C3.51562 40.293 4.0625 39.7656 4.74609 39.7656C5.42969 39.7656 5.97656 40.293 5.97656 40.9766ZM52.0312 40.9766C52.0312 41.6797 51.5039 42.207 50.8203 42.207C50.1367 42.207 49.5898 41.6797 49.5898 40.9766C49.5898 40.293 50.1367 39.7656 50.8203 39.7656C51.5039 39.7656 52.0312 40.293 52.0312 40.9766ZM4.02344 36.7969C4.02344 37.4805 3.47656 38.0273 2.79297 38.0273C2.10938 38.0273 1.58203 37.4805 1.58203 36.7969C1.58203 36.1133 2.10938 35.5664 2.79297 35.5664C3.47656 35.5664 4.02344 36.1133 4.02344 36.7969ZM53.9844 36.7969C53.9844 37.4805 53.457 38.0273 52.7734 38.0273C52.0703 38.0273 51.543 37.4805 51.543 36.7969C51.543 36.1133 52.0703 35.5664 52.7734 35.5664C53.457 35.5664 53.9844 36.1133 53.9844 36.7969ZM55.1758 32.3438C55.1758 33.0273 54.6484 33.5547 53.9648 33.5547C53.2617 33.5547 52.7344 33.0273 52.7344 32.3438C52.7344 31.6602 53.2617 31.1133 53.9648 31.1133C54.6484 31.1133 55.1758 31.6602 55.1758 32.3438ZM2.83203 32.3438C2.83203 33.0273 2.28516 33.5547 1.60156 33.5547C0.917969 33.5547 0.390625 33.0273 0.390625 32.3438C0.390625 31.6602 0.917969 31.1133 1.60156 31.1133C2.28516 31.1133 2.83203 31.6602 2.83203 32.3438ZM55.5664 27.7734C55.5664 28.457 55.0391 28.9844 54.3555 28.9844C53.6719 28.9844 53.125 28.457 53.125 27.7734C53.125 27.0898 53.6719 26.543 54.3555 26.543C55.0391 26.543 55.5664 27.0898 55.5664 27.7734ZM2.44141 27.7734C2.44141 28.457 1.89453 28.9844 1.21094 28.9844C0.527344 28.9844 0 28.457 0 27.7734C0 27.0898 0.527344 26.543 1.21094 26.543C1.89453 26.543 2.44141 27.0898 2.44141 27.7734ZM55.1758 23.1836C55.1758 23.8867 54.6484 24.4141 53.9648 24.4141C53.2617 24.4141 52.7344 23.8867 52.7344 23.1836C52.7344 22.5 53.2617 21.9727 53.9648 21.9727C54.6484 21.9727 55.1758 22.5 55.1758 23.1836ZM2.83203 23.1836C2.83203 23.8867 2.28516 24.4141 1.60156 24.4141C0.917969 24.4141 0.390625 23.8867 0.390625 23.1836C0.390625 22.5 0.917969 21.9727 1.60156 21.9727C2.28516 21.9727 2.83203 22.5 2.83203 23.1836ZM53.9844 18.7305C53.9844 19.4141 53.457 19.9609 52.7734 19.9609C52.0703 19.9609 51.543 19.4141 51.543 18.7305C51.543 18.0469 52.0703 17.5195 52.7734 17.5195C53.457 17.5195 53.9844 18.0469 53.9844 18.7305ZM4.02344 18.7305C4.02344 19.4141 3.47656 19.9609 2.79297 19.9609C2.10938 19.9609 1.58203 19.4141 1.58203 18.7305C1.58203 18.0469 2.10938 17.5195 2.79297 17.5195C3.47656 17.5195 4.02344 18.0469 4.02344 18.7305ZM52.0312 14.5508C52.0312 15.2344 51.5039 15.7617 50.8203 15.7617C50.1367 15.7617 49.5898 15.2344 49.5898 14.5508C49.5898 13.8672 50.1367 13.3203 50.8203 13.3203C51.5039 13.3203 52.0312 13.8672 52.0312 14.5508ZM5.97656 14.5508C5.97656 15.2344 5.42969 15.7617 4.74609 15.7617C4.0625 15.7617 3.51562 15.2344 3.51562 14.5508C3.51562 13.8672 4.0625 13.3203 4.74609 13.3203C5.42969 13.3203 5.97656 13.8672 5.97656 14.5508ZM49.3945 10.7422C49.3945 11.4258 48.8477 11.9531 48.1641 11.9531C47.4805 11.9531 46.9336 11.4258 46.9336 10.7422C46.9336 10.0586 47.4805 9.51172 48.1641 9.51172C48.8477 9.51172 49.3945 10.0586 49.3945 10.7422ZM46.0938 7.46094C46.0938 8.14453 45.5664 8.69141 44.8828 8.69141C44.1797 8.69141 43.6523 8.14453 43.6523 7.46094C43.6523 6.77734 44.1797 6.25 44.8828 6.25C45.5664 6.25 46.0938 6.77734 46.0938 7.46094ZM15.7031 4.82422C15.7031 5.50781 15.1562 6.03516 14.4727 6.03516C13.7891 6.03516 13.2617 5.50781 13.2617 4.82422C13.2617 4.14062 13.7891 3.59375 14.4727 3.59375C15.1562 3.59375 15.7031 4.14062 15.7031 4.82422ZM42.3047 4.82422C42.3047 5.50781 41.7773 6.03516 41.0742 6.03516C40.3906 6.03516 39.8633 5.50781 39.8633 4.82422C39.8633 4.14062 40.3906 3.59375 41.0742 3.59375C41.7773 3.59375 42.3047 4.14062 42.3047 4.82422ZM38.1055 2.83203C38.1055 3.51562 37.5586 4.04297 36.875 4.04297C36.1914 4.04297 35.6445 3.51562 35.6445 2.83203C35.6445 2.14844 36.1914 1.60156 36.875 1.60156C37.5586 1.60156 38.1055 2.14844 38.1055 2.83203ZM19.9023 2.83203C19.9023 3.51562 19.375 4.04297 18.6914 4.04297C18.0078 4.04297 17.4609 3.51562 17.4609 2.83203C17.4609 2.14844 18.0078 1.60156 18.6914 1.60156C19.375 1.60156 19.9023 2.14844 19.9023 2.83203ZM33.6328 1.64062C33.6328 2.32422 33.0859 2.85156 32.4023 2.85156C31.7188 2.85156 31.1914 2.32422 31.1914 1.64062C31.1914 0.957031 31.7188 0.410156 32.4023 0.410156C33.0859 0.410156 33.6328 0.957031 33.6328 1.64062ZM24.375 1.64062C24.375 2.32422 23.8477 2.85156 23.1445 2.85156C22.4609 2.85156 21.9336 2.32422 21.9336 1.64062C21.9336 0.957031 22.4609 0.410156 23.1445 0.410156C23.8477 0.410156 24.375 0.957031 24.375 1.64062ZM29.0039 1.21094C29.0039 1.91406 28.457 2.44141 27.7734 2.44141C27.0898 2.44141 26.5625 1.91406 26.5625 1.21094C26.5625 0.527344 27.0898 0 27.7734 0C28.457 0 29.0039 0.527344 29.0039 1.21094Z" fill="black" fill-opacity="0.85"/>
  <path d="M12.4271 18.6092C10.8165 21.2765 9.90234 24.4129 9.90234 27.7734C9.90234 37.7344 17.8125 45.6445 27.7734 45.6445C31.1393 45.6445 34.2804 44.7275 36.9504 43.112L38.5761 44.7364C35.464 46.7405 31.754 47.8906 27.7734 47.8906C16.582 47.8906 7.65625 38.9648 7.65625 27.7734C7.65625 23.7929 8.79984 20.087 10.7955 16.979ZM47.8906 27.7734C47.8906 31.7386 46.7524 35.4272 44.7693 38.5233L43.1501 36.9047C44.7543 34.2445 45.6641 31.1193 45.6641 27.7734C45.6641 17.9102 37.6367 9.88281 27.7734 9.88281C24.4249 9.88281 21.2974 10.7941 18.6358 12.4007L17.0102 10.7757C20.1069 8.79314 23.7993 7.65625 27.7734 7.65625C38.8672 7.65625 47.8906 16.6992 47.8906 27.7734Z" fill="black" fill-opacity="0.85"/>
  <path d="M21.9285 28.1027C22.0665 31.1408 24.468 33.5516 27.5086 33.6782L31.1111 37.2776C30.0708 37.6531 28.9459 37.8516 27.7734 37.8516C22.1875 37.8516 17.7344 33.3984 17.7344 27.8125C17.7344 26.6429 17.9318 25.5208 18.3055 24.4827ZM37.832 27.8125C37.832 28.9478 37.6452 30.0375 37.2919 31.049L33.6309 27.3896C33.429 24.4827 31.1012 22.1557 28.194 21.9549L24.533 18.2954C25.5456 17.9412 26.6367 17.7539 27.7734 17.7539C33.3398 17.7539 37.832 22.2461 37.832 27.8125Z" fill="black" fill-opacity="0.85"/>
  <path d="M50 52.3242C50.6445 52.9492 51.7383 52.9688 52.3633 52.3242C53.0078 51.6602 53.0078 50.6055 52.3633 49.9609L5.60547 3.22266C4.96094 2.59766 3.90625 2.55859 3.24219 3.22266C2.59766 3.86719 2.59766 4.96094 3.24219 5.58594Z" fill="black" fill-opacity="0.85"/>
 </g>
</svg>
