<?xml version="1.0" encoding="UTF-8"?>
<!--Generator: Apple Native CoreSVG 326-->
<!DOCTYPE svg
PUBLIC "-//W3C//DTD SVG 1.1//EN"
       "http://www.w3.org/Graphics/SVG/1.1/DTD/svg11.dtd">
<svg version="1.1" xmlns="http://www.w3.org/2000/svg" xmlns:xlink="http://www.w3.org/1999/xlink" viewBox="0 0 68.5406 65.332">
 <g>
  <rect height="65.332" opacity="0" width="68.5406" x="0" y="0"/>
  <path d="M41.9949 65.332C60.2762 65.332 68.1668 48.9453 68.1668 39.8242C68.1668 37.0312 64.827 36.8945 64.5145 39.4922C63.2645 49.7656 54.5535 56.6406 45.5887 56.6406C36.1356 56.6406 28.9676 50 28.9676 41.2305C28.9676 32.5195 35.4324 23.0859 42.9129 23.0859C44.866 23.0859 45.4715 25.918 49.3191 25.918C53.8309 25.918 64.3973 18.3984 63.7332 13.1836C63.1668 9.25781 58.0106 6.85547 48.9481 6.85547C43.6746 6.85547 41.3504 9.12109 41.2332 12.0117C41.116 13.7109 40.2566 14.3164 38.6551 14.3164C24.5731 14.3164 13.284 25.1953 13.284 39.1992C13.284 54.5898 25.1199 65.332 41.9949 65.332ZM41.9949 62.0703C26.5066 62.0703 16.5457 53.0078 16.5457 39.1992C16.5457 26.7188 26.0379 17.5781 38.6551 17.5781C41.7996 17.5781 44.2801 15.625 44.4363 12.4609C44.534 11.1914 45.2371 10.0781 48.9481 10.0781C56.2137 10.0781 60.1395 11.3086 60.4715 13.1836C61.0379 16.7188 52.6785 22.6562 49.3191 22.6562C46.9363 22.6562 46.8582 20.0195 42.9715 20.0195C32.8543 20.0195 25.7059 31.1328 25.7059 41.2305C25.7059 51.7188 34.534 59.9219 45.5887 59.9219C50.7254 59.9219 55.5496 57.4219 58.5574 53.457C55.5106 57.7539 50.1395 62.0703 41.9949 62.0703ZM23.6551 12.3242C22.9129 13.8086 23.2645 15.4492 24.6902 16.2891L28.577 18.5547L35.6473 16.0742L28.3035 12.5781L29.241 8.73047L34.2215 7.85156C36.0965 7.51953 35.5691 4.43359 33.2449 5.17578C31.9559 5.58594 31.0379 4.29688 31.7215 3.14453C32.7762 1.34766 29.7293 0.0976562 29.1238 1.875C28.6941 3.14453 27.2684 3.32031 26.6434 1.99219C25.7254 0.0585938 22.9324 1.32812 24.0848 3.24219L26.3309 6.99219ZM35.7059 34.6875L41.6629 35.0195L43.7918 38.8477C44.866 40.8008 47.5418 38.9062 46.1941 37.3633C45.2762 36.2891 46.1746 34.9023 47.4637 35.1758C49.3191 35.5664 49.7879 32.2656 47.6981 32.2852C46.3309 32.2852 45.6668 30.8594 46.6824 29.9414C48.4988 28.3008 46.0965 26.3086 44.8465 27.7539L41.5848 31.6406L37.7957 30.5273L38.4402 22.793L32.7566 27.1289L32.7957 31.7773C32.7957 33.457 34.0457 34.5898 35.7059 34.6875ZM9.29961 44.1016L6.05743 49.1211L1.54571 49.0234C-0.661323 48.9648-0.387885 52.0508 1.62383 51.8555C3.03008 51.7188 3.88946 53.0664 2.99102 54.043C1.62383 55.5078 4.31915 57.6562 5.39336 55.7031C6.09649 54.4727 7.63946 54.668 7.95196 55.957C8.5379 58.5156 11.4676 57.4219 10.7645 55.4883L9.02618 50.7422L11.8777 48.0273L18.3426 52.4609L16.6629 44.9805L13.284 43.0664C11.7996 42.207 10.2176 42.6953 9.29961 44.1016ZM35.4715 41.7188C34.0848 40.8008 32.4051 40.9961 31.3895 42.3242L28.577 46.0156L30.6473 52.7734L34.6902 46.3281L38.3621 47.7148L38.6356 52.7539C38.7723 54.6875 41.9168 54.4727 41.4285 52.1094C41.1551 50.7422 42.5613 50 43.6551 50.8594C45.3152 52.1094 46.8973 49.1406 45.159 48.3789C43.9285 47.8125 44.0848 46.0156 45.4715 45.8594C47.4832 45.6836 46.4481 42.2852 44.4168 43.2227L40.4324 45.0195Z" fill="black" fill-opacity="0.85"/>
 </g>
</svg>
