<?xml version="1.0" encoding="UTF-8"?>
<!--Generator: Apple Native CoreSVG 326-->
<!DOCTYPE svg
PUBLIC "-//W3C//DTD SVG 1.1//EN"
       "http://www.w3.org/Graphics/SVG/1.1/DTD/svg11.dtd">
<svg version="1.1" xmlns="http://www.w3.org/2000/svg" xmlns:xlink="http://www.w3.org/1999/xlink" viewBox="0 0 58.9258 44.5898">
 <g>
  <rect height="44.5898" opacity="0" width="58.9258" x="0" y="0"/>
  <path d="M58.5547 18.4766L58.5547 26.0742C58.5547 39.2188 53.6328 44.5508 39.3555 44.5508L19.1992 44.5508C4.92188 44.5508 0 39.2188 0 26.0742L0 18.4766C0 5.33203 4.92188 0 19.1992 0L39.3555 0C53.6328 0 58.5547 5.33203 58.5547 18.4766ZM39.6484 13.5156L35.8203 28.3789L35.7031 28.3789L31.8164 13.5156C31.4844 12.207 30.7031 11.5625 29.4727 11.5625C28.0078 11.5625 27.1094 12.4414 27.1094 13.9062L27.1094 31.5039C27.1094 32.4609 27.6953 33.0859 28.5938 33.0859C29.4922 33.0859 30.0781 32.4609 30.0781 31.5039L30.0781 16.7578L30.2148 16.7578L34.043 31.1523C34.2578 32.0703 34.8047 32.7344 35.7617 32.7344C36.7383 32.7344 37.2461 32.0898 37.4805 31.1328L41.3086 16.7578L41.4258 16.7578L41.4258 31.5039C41.4258 32.4805 41.9922 33.0859 42.8906 33.0859C43.8672 33.0859 44.3945 32.4609 44.3945 31.5039L44.3945 13.9062C44.3945 12.3828 43.4961 11.5625 42.0508 11.5625C40.7227 11.5625 39.9805 12.207 39.6484 13.5156ZM13.8086 13.2031L13.8086 31.0156C13.8086 32.0898 14.3945 32.7539 15.4297 32.7539L22.9688 32.7539C23.7109 32.7539 24.3555 32.1094 24.3555 31.3281C24.3555 30.5859 23.7109 29.9414 22.9688 29.9414L17.1094 29.9414L17.1094 13.2031C17.1094 12.3047 16.3477 11.543 15.4688 11.543C14.5703 11.543 13.8086 12.3047 13.8086 13.2031Z" fill="black" fill-opacity="0.85"/>
 </g>
</svg>
