<?xml version="1.0" encoding="UTF-8"?>
<!--Generator: Apple Native CoreSVG 326-->
<!DOCTYPE svg
PUBLIC "-//W3C//DTD SVG 1.1//EN"
       "http://www.w3.org/Graphics/SVG/1.1/DTD/svg11.dtd">
<svg version="1.1" xmlns="http://www.w3.org/2000/svg" xmlns:xlink="http://www.w3.org/1999/xlink" viewBox="0 0 46.1914 45.8398">
 <g>
  <rect height="45.8398" opacity="0" width="46.1914" x="0" y="0"/>
  <path d="M42.9688 2.89062C45.3906 5.29297 45.8203 8.65234 45.8203 13.125L45.8203 32.6758C45.8203 37.168 45.3906 40.5078 42.9688 42.9297C40.5469 45.3516 37.1484 45.8203 32.6758 45.8203L13.1445 45.8203C8.67188 45.8203 5.29297 45.3516 2.85156 42.9297C0.429688 40.5273 0 37.168 0 32.6758L0 13.0078C0 8.67188 0.449219 5.3125 2.87109 2.89062C5.29297 0.46875 8.69141 0 13.0078 0L32.6758 0C37.1484 0 40.5273 0.46875 42.9688 2.89062ZM32.793 10.1758L7.94922 21.9336C6.42578 22.6562 6.69922 24.8047 8.67188 24.8047L20 24.8242C20.4102 24.8242 20.6836 25.0977 20.6836 25.5273L20.7031 36.7188C20.7031 38.7891 22.8906 38.9648 23.5742 37.5L35.2734 12.6367C36.1133 10.8203 34.5898 9.33594 32.793 10.1758Z" fill="black" fill-opacity="0.85"/>
 </g>
</svg>
