<?xml version="1.0" encoding="UTF-8"?>
<!--Generator: Apple Native CoreSVG 326-->
<!DOCTYPE svg
PUBLIC "-//W3C//DTD SVG 1.1//EN"
       "http://www.w3.org/Graphics/SVG/1.1/DTD/svg11.dtd">
<svg version="1.1" xmlns="http://www.w3.org/2000/svg" xmlns:xlink="http://www.w3.org/1999/xlink" viewBox="0 0 46.2891 45.918">
 <g>
  <rect height="45.918" opacity="0" width="46.2891" x="0" y="0"/>
  <path d="M45.918 7.53906L45.918 38.3984C45.918 43.3594 43.3594 45.918 38.3008 45.918L7.59766 45.918C2.55859 45.918 0 43.3984 0 38.3984L0 7.53906C0 2.53906 2.55859 0 7.59766 0L38.3008 0C43.3594 0 45.918 2.55859 45.918 7.53906ZM33.3594 10.2344L8.51562 22.0117C7.01172 22.7148 7.28516 24.8828 9.25781 24.8828L20.5859 24.8828C20.9961 24.8828 21.2695 25.1758 21.2695 25.5859L21.2891 36.7969C21.2891 38.8477 23.457 39.0234 24.1406 37.5586L35.8398 12.6953C36.6992 10.8984 35.1562 9.39453 33.3594 10.2344Z" fill="black" fill-opacity="0.85"/>
 </g>
</svg>
