<?xml version="1.0" encoding="UTF-8"?>
<!--Generator: Apple Native CoreSVG 326-->
<!DOCTYPE svg
PUBLIC "-//W3C//DTD SVG 1.1//EN"
       "http://www.w3.org/Graphics/SVG/1.1/DTD/svg11.dtd">
<svg version="1.1" xmlns="http://www.w3.org/2000/svg" xmlns:xlink="http://www.w3.org/1999/xlink" viewBox="0 0 41.8164 55.9961">
 <g>
  <rect height="55.9961" opacity="0" width="41.8164" x="0" y="0"/>
  <path d="M0 49.3555C0 53.3984 2.69531 55.9961 6.875 55.9961L34.5703 55.9961C38.75 55.9961 41.4453 53.3984 41.4453 49.3555L41.4453 6.64062C41.4453 2.59766 38.75 0 34.5703 0L6.875 0C2.69531 0 0 2.59766 0 6.64062ZM3.45703 48.8086L3.45703 7.1875C3.45703 4.80469 4.84375 3.45703 7.28516 3.45703L34.1406 3.45703C36.582 3.45703 37.9688 4.80469 37.9688 7.1875L37.9688 48.8086C37.9688 51.1719 36.582 52.5195 34.1406 52.5195L7.28516 52.5195C4.84375 52.5195 3.45703 51.1719 3.45703 48.8086Z" fill="black" fill-opacity="0.85"/>
  <path d="M16.4258 36.5039L25.0195 36.5039C26.4062 36.5039 27.1094 35.7617 27.1094 34.2773L27.1094 27.5C27.1094 26.2891 26.6211 25.5664 25.6641 25.332L25.6641 23.8086C25.6641 20.5664 23.6719 18.3203 20.7227 18.3203C17.7734 18.3203 15.7812 20.5664 15.7812 23.8086L15.7812 25.3516C14.8242 25.5664 14.3359 26.2891 14.3359 27.5L14.3359 34.2773C14.3359 35.7617 15.0391 36.5039 16.4258 36.5039ZM18.0469 25.2734L18.0469 23.6328C18.0469 21.7578 19.1016 20.5273 20.7227 20.5273C22.3438 20.5273 23.3984 21.7578 23.3984 23.6328L23.3984 25.2734Z" fill="black" fill-opacity="0.85"/>
 </g>
</svg>
