<?xml version="1.0" encoding="UTF-8"?>
<!--Generator: Apple Native CoreSVG 326-->
<!DOCTYPE svg
PUBLIC "-//W3C//DTD SVG 1.1//EN"
       "http://www.w3.org/Graphics/SVG/1.1/DTD/svg11.dtd">
<svg version="1.1" xmlns="http://www.w3.org/2000/svg" xmlns:xlink="http://www.w3.org/1999/xlink" viewBox="0 0 46.2891 45.918">
 <g>
  <rect height="45.918" opacity="0" width="46.2891" x="0" y="0"/>
  <path d="M7.59766 45.918L38.3008 45.918C43.3594 45.918 45.918 43.3594 45.918 38.3984L45.918 7.53906C45.918 2.55859 43.3594 0 38.3008 0L7.59766 0C2.55859 0 0 2.53906 0 7.53906L0 38.3984C0 43.3984 2.55859 45.918 7.59766 45.918ZM7.67578 42.4609C4.94141 42.4609 3.45703 41.0156 3.45703 38.2031L3.45703 7.71484C3.45703 4.92188 4.94141 3.45703 7.67578 3.45703L38.2422 3.45703C40.918 3.45703 42.4609 4.92188 42.4609 7.71484L42.4609 38.2031C42.4609 41.0156 40.918 42.4609 38.2422 42.4609Z" fill="black" fill-opacity="0.85"/>
  <path d="M13.8281 32.9492C13.8281 34.8828 14.6875 35.7617 16.4648 35.7617L29.4727 35.7617C31.25 35.7617 32.1094 34.8828 32.1094 32.9492L32.1094 22.7734C32.1094 20.957 31.3281 20.0586 29.7461 19.9805L29.7461 16.8359C29.7461 12.3242 27.0117 9.29688 22.9688 9.29688C18.9258 9.29688 16.1914 12.3242 16.1914 16.8359L16.1914 19.9805C14.6094 20.0586 13.8281 20.957 13.8281 22.7734ZM18.5352 19.9609L18.5352 16.6211C18.5352 13.5742 20.3125 11.582 22.9688 11.582C25.625 11.582 27.4219 13.5742 27.4219 16.6211L27.4219 19.9609Z" fill="black" fill-opacity="0.85"/>
 </g>
</svg>
