<?xml version="1.0" encoding="UTF-8"?>
<!--Generator: Apple Native CoreSVG 326-->
<!DOCTYPE svg
PUBLIC "-//W3C//DTD SVG 1.1//EN"
       "http://www.w3.org/Graphics/SVG/1.1/DTD/svg11.dtd">
<svg version="1.1" xmlns="http://www.w3.org/2000/svg" xmlns:xlink="http://www.w3.org/1999/xlink" viewBox="0 0 60.2015 50.918">
 <g>
  <rect height="50.918" opacity="0" width="60.2015" x="0" y="0"/>
  <path d="M29.9152 50.8789C38.548 50.8789 46.2628 46.5039 50.8136 39.8047C51.5167 38.8477 51.2628 37.6562 50.4035 37.1484C49.505 36.6016 48.4894 36.875 47.8449 37.7539C44.0167 43.457 37.3761 47.2461 29.9152 47.2461C17.8644 47.2461 8.11831 37.5 8.11831 25.4492C8.11831 13.3984 17.8644 3.65234 29.9152 3.65234C41.966 3.65234 51.7121 13.3984 51.7121 25.4492L55.3449 25.4492C55.3449 11.4062 43.9582 0 29.9152 0C15.8722 0 4.4855 11.4062 4.4855 25.4492C4.4855 39.4922 15.8722 50.8789 29.9152 50.8789ZM58.6066 20.7227L47.2394 20.7227C45.6574 20.7227 45.2082 21.8164 46.1066 23.0664L51.6535 30.9766C52.3761 32.0312 53.4503 32.0508 54.1925 30.9766L59.7394 23.0859C60.6378 21.8164 60.2082 20.7227 58.6066 20.7227Z" fill="black" fill-opacity="0.85"/>
  <path d="M23.4113 38.2617L36.4191 38.2617C38.1964 38.2617 39.0558 37.3828 39.0558 35.4492L39.0558 25.293C39.0558 23.3594 38.1964 22.4805 36.4191 22.4805L25.4816 22.4609L25.4816 19.1211C25.4816 16.0742 27.2589 14.082 29.9152 14.082C32.5714 14.082 34.3683 15.8789 34.3683 18.6133L34.3683 19.1797C34.3683 19.9219 34.8957 20.3516 35.5597 20.3516C36.2238 20.3516 36.6925 19.9023 36.6925 19.1797L36.6925 18.6133C36.6925 14.5117 33.9777 11.7969 29.9152 11.7969C25.8722 11.7969 23.1378 14.8242 23.1378 19.3359L23.1378 22.4805C21.5558 22.5586 20.7941 23.457 20.7941 25.2734L20.7941 35.4492C20.7941 37.3828 21.6339 38.2617 23.4113 38.2617Z" fill="black" fill-opacity="0.85"/>
 </g>
</svg>
