<?xml version="1.0" encoding="UTF-8"?>
<!--Generator: Apple Native CoreSVG 326-->
<!DOCTYPE svg
PUBLIC "-//W3C//DTD SVG 1.1//EN"
       "http://www.w3.org/Graphics/SVG/1.1/DTD/svg11.dtd">
<svg version="1.1" xmlns="http://www.w3.org/2000/svg" xmlns:xlink="http://www.w3.org/1999/xlink" viewBox="0 0 67.9688 56.4258">
 <g>
  <rect height="56.4258" opacity="0" width="67.9688" x="0" y="0"/>
  <path d="M52.7344 10.6445L52.7344 11.25L22.4609 11.25C15.7031 11.25 11.7578 15.1562 11.7578 21.875L11.7578 42.0703L10.3516 42.0703C5.29297 42.0703 2.73438 39.5508 2.73438 34.5508L2.73438 10.6445C2.73438 5.66406 5.29297 3.125 10.3516 3.125L45.1367 3.125C50.1758 3.125 52.7344 5.68359 52.7344 10.6445Z" fill="black" fill-opacity="0.85"/>
  <path d="M64.8633 21.875L64.8633 45.7812C64.8633 50.7422 62.2852 53.3008 57.2656 53.3008L22.4609 53.3008C17.4219 53.3008 14.8633 50.7812 14.8633 45.7812L14.8633 21.875C14.8633 16.8945 17.4219 14.3555 22.4609 14.3555L57.2656 14.3555C62.2852 14.3555 64.8633 16.9141 64.8633 21.875ZM32.9102 27.6367L32.9102 30.8398C31.3086 30.918 30.5273 31.8359 30.5273 33.7109L30.5273 44.1211C30.5273 46.0938 31.3867 46.9922 33.2031 46.9922L46.5234 46.9922C48.3398 46.9922 49.2188 46.0938 49.2188 44.1211L49.2188 33.7109C49.2188 31.8359 48.418 30.918 46.8164 30.8398L46.8164 27.6367C46.8164 23.0078 44.0234 19.9023 39.8633 19.9023C35.7227 19.9023 32.9102 23.0078 32.9102 27.6367ZM44.4141 27.4023L44.4141 30.8203L35.332 30.8203L35.332 27.4023C35.332 24.2969 37.1484 22.2266 39.8633 22.2266C42.5977 22.2266 44.4141 24.2969 44.4141 27.4023Z" fill="black" fill-opacity="0.85"/>
 </g>
</svg>
