<?xml version="1.0" encoding="UTF-8"?>
<!--Generator: Apple Native CoreSVG 326-->
<!DOCTYPE svg
PUBLIC "-//W3C//DTD SVG 1.1//EN"
       "http://www.w3.org/Graphics/SVG/1.1/DTD/svg11.dtd">
<svg version="1.1" xmlns="http://www.w3.org/2000/svg" xmlns:xlink="http://www.w3.org/1999/xlink" viewBox="0 0 31.6992 52.4805">
 <g>
  <rect height="52.4805" opacity="0" width="31.6992" x="0" y="0"/>
  <path d="M0 45.9961C0 49.9414 2.57812 52.4414 6.66016 52.4414L24.6484 52.4414C28.7305 52.4414 31.3281 49.9414 31.3281 45.9961L31.3281 6.44531C31.3281 2.5 28.7305 0 24.6484 0L6.66016 0C2.57812 0 0 2.5 0 6.44531ZM3.45703 45.4883L3.45703 6.95312C3.45703 4.66797 4.70703 3.45703 7.08984 3.45703L24.2383 3.45703C26.6016 3.45703 27.8516 4.66797 27.8516 6.95312L27.8516 45.4883C27.8516 47.7734 26.6016 48.9844 24.2383 48.9844L7.08984 48.9844C4.70703 48.9844 3.45703 47.7734 3.45703 45.4883Z" fill="black" fill-opacity="0.85"/>
  <path d="M6.71875 32.5977C6.71875 34.0039 7.38281 34.707 8.73047 34.707L17.2656 34.707C18.6133 34.707 19.2773 34.0039 19.2773 32.5977L19.2773 26.0352C19.2773 24.6094 18.6133 23.9062 17.2656 23.9062L8.73047 23.9062C7.38281 23.9062 6.71875 24.6094 6.71875 26.0352ZM15.4297 25.1367L17.6953 25.1367L17.6953 21.7969C17.6953 19.8438 18.75 18.5938 20.5273 18.5938C22.3047 18.5938 23.3789 19.8438 23.3789 21.7969L23.3789 23.4375C23.3789 24.0625 23.8867 24.5898 24.5117 24.5898C25.1172 24.5898 25.625 24.0625 25.625 23.4375L25.625 21.7969C25.625 18.6523 23.6133 16.3867 20.5273 16.3867C17.4609 16.3867 15.4297 18.6523 15.4297 21.9727Z" fill="black" fill-opacity="0.85"/>
 </g>
</svg>
