<?xml version="1.0" encoding="UTF-8"?>
<!--Generator: Apple Native CoreSVG 326-->
<!DOCTYPE svg
PUBLIC "-//W3C//DTD SVG 1.1//EN"
       "http://www.w3.org/Graphics/SVG/1.1/DTD/svg11.dtd">
<svg version="1.1" xmlns="http://www.w3.org/2000/svg" xmlns:xlink="http://www.w3.org/1999/xlink" viewBox="0 0 46.2891 45.918">
 <g>
  <rect height="45.918" opacity="0" width="46.2891" x="0" y="0"/>
  <path d="M45.918 7.53906L45.918 38.3984C45.918 43.3594 43.3594 45.918 38.3008 45.918L7.59766 45.918C2.55859 45.918 0 43.3984 0 38.3984L0 7.53906C0 2.53906 2.55859 0 7.59766 0L38.3008 0C43.3594 0 45.918 2.55859 45.918 7.53906ZM16.0156 16.7578L16.0156 19.9609C14.4141 20.0391 13.6133 20.9375 13.6133 22.832L13.6133 33.2422C13.6133 35.2148 14.4922 36.1133 16.3086 36.1133L29.6289 36.1133C31.4453 36.1133 32.3242 35.2148 32.3242 33.2422L32.3242 22.832C32.3242 20.9375 31.5234 20.0391 29.9219 19.9609L29.9219 16.7578C29.9219 12.1094 27.1094 9.02344 22.9688 9.02344C18.8281 9.02344 16.0156 12.1094 16.0156 16.7578ZM27.5195 16.5234L27.5195 19.9414L18.4375 19.9414L18.4375 16.5234C18.4375 13.418 20.2539 11.3477 22.9688 11.3477C25.6836 11.3477 27.5195 13.418 27.5195 16.5234Z" fill="black" fill-opacity="0.85"/>
 </g>
</svg>
