<?xml version="1.0" encoding="UTF-8"?>
<!--Generator: Apple Native CoreSVG 326-->
<!DOCTYPE svg
PUBLIC "-//W3C//DTD SVG 1.1//EN"
       "http://www.w3.org/Graphics/SVG/1.1/DTD/svg11.dtd">
<svg version="1.1" xmlns="http://www.w3.org/2000/svg" xmlns:xlink="http://www.w3.org/1999/xlink" viewBox="0 0 57.6367 43.3008">
 <g>
  <rect height="43.3008" opacity="0" width="57.6367" x="0" y="0"/>
  <path d="M57.2656 19.9805L57.2656 35.918C57.2656 40.7617 54.7461 43.2617 49.8633 43.2617L7.42188 43.2617C2.51953 43.2617 0 40.7812 0 35.918L0 19.9805C0 6.62109 6.21094 0 20.4883 0L36.7773 0C51.0742 0 57.2656 6.62109 57.2656 19.9805ZM29.3359 11.543C28.5742 11.543 27.9883 12.1289 27.9883 12.8516C27.9883 13.6328 28.5742 14.2188 29.3359 14.2188L32.7148 14.2188L32.7148 30.4688C32.7148 31.3672 33.4375 32.0703 34.3359 32.0703C35.2148 32.0703 35.918 31.3672 35.918 30.4688L35.918 14.2188L39.1211 14.2188C39.8633 14.2188 40.4492 13.6328 40.4492 12.8516C40.4492 12.1289 39.8633 11.543 39.1211 11.543ZM18.3594 12.8516L18.3594 30.1172C18.3594 31.1719 18.9453 31.7969 19.9414 31.7969L27.2461 31.7969C27.9688 31.7969 28.5938 31.1914 28.5938 30.4297C28.5938 29.707 27.9688 29.082 27.2461 29.082L21.5625 29.082L21.5625 12.8516C21.5625 11.9727 20.8203 11.25 19.9805 11.25C19.082 11.25 18.3594 11.9727 18.3594 12.8516Z" fill="black" fill-opacity="0.85"/>
 </g>
</svg>
