<?xml version="1.0" encoding="UTF-8"?>
<!--Generator: Apple Native CoreSVG 326-->
<!DOCTYPE svg
PUBLIC "-//W3C//DTD SVG 1.1//EN"
       "http://www.w3.org/Graphics/SVG/1.1/DTD/svg11.dtd">
<svg version="1.1" xmlns="http://www.w3.org/2000/svg" xmlns:xlink="http://www.w3.org/1999/xlink" viewBox="0 0 51.25 50.918">
 <g>
  <rect height="50.918" opacity="0" width="51.25" x="0" y="0"/>
  <path d="M25.4297 50.8789C39.4727 50.8789 50.8789 39.4922 50.8789 25.4492C50.8789 11.4062 39.4727 0 25.4297 0C11.3867 0 0 11.4062 0 25.4492C0 39.4922 11.3867 50.8789 25.4297 50.8789ZM25.4297 47.2461C13.3789 47.2461 3.63281 37.5 3.63281 25.4492C3.63281 13.3984 13.3789 3.65234 25.4297 3.65234C37.4805 3.65234 47.2266 13.3984 47.2266 25.4492C47.2266 37.5 37.4805 47.2461 25.4297 47.2461Z" fill="black" fill-opacity="0.85"/>
  <path d="M16.6406 35.6641L24.0039 35.6641C24.7266 35.6641 25.3516 35.0391 25.3516 34.2969C25.3516 33.5742 24.7266 32.9492 24.0039 32.9492L18.2617 32.9492L18.2617 16.5625C18.2617 15.7031 17.5391 14.9609 16.6797 14.9609C15.8008 14.9609 15.0781 15.7031 15.0781 16.5625L15.0781 33.9844C15.0781 35.0195 15.6445 35.6641 16.6406 35.6641ZM31.1133 35.9375C31.9922 35.9375 32.7148 35.2344 32.7148 34.3359L32.7148 17.9492L35.9375 17.9492C36.6797 17.9492 37.2656 17.3633 37.2656 16.6016C37.2656 15.8594 36.6797 15.2734 35.9375 15.2734L26.0938 15.2734C25.332 15.2734 24.7461 15.8594 24.7461 16.6016C24.7461 17.3633 25.332 17.9492 26.0938 17.9492L29.5117 17.9492L29.5117 34.3359C29.5117 35.2344 30.2344 35.9375 31.1133 35.9375Z" fill="black" fill-opacity="0.85"/>
 </g>
</svg>
