<?xml version="1.0" encoding="UTF-8"?>
<!--Generator: Apple Native CoreSVG 326-->
<!DOCTYPE svg
PUBLIC "-//W3C//DTD SVG 1.1//EN"
       "http://www.w3.org/Graphics/SVG/1.1/DTD/svg11.dtd">
<svg version="1.1" xmlns="http://www.w3.org/2000/svg" xmlns:xlink="http://www.w3.org/1999/xlink" viewBox="0 0 51.25 50.918">
 <g>
  <rect height="50.918" opacity="0" width="51.25" x="0" y="0"/>
  <path d="M50.8789 25.4492C50.8789 39.4531 39.4531 50.8789 25.4297 50.8789C11.4258 50.8789 0 39.4531 0 25.4492C0 11.4258 11.4258 0 25.4297 0C39.4531 0 50.8789 11.4258 50.8789 25.4492ZM26.0742 15.5273C25.332 15.5273 24.7656 16.1133 24.7656 16.8359C24.7656 17.5977 25.332 18.1641 26.0742 18.1641L29.3945 18.1641L29.3945 34.082C29.3945 34.9609 30.0977 35.6641 30.9766 35.6641C31.8359 35.6641 32.5391 34.9609 32.5391 34.082L32.5391 18.1641L35.6641 18.1641C36.3867 18.1641 36.9727 17.5977 36.9727 16.8359C36.9727 16.1133 36.3867 15.5273 35.6641 15.5273ZM15.332 16.8164L15.332 33.75C15.332 34.7656 15.8984 35.3906 16.875 35.3906L24.0234 35.3906C24.7461 35.3906 25.3516 34.7852 25.3516 34.043C25.3516 33.3398 24.7461 32.7344 24.0234 32.7344L18.457 32.7344L18.457 16.8164C18.457 15.957 17.7344 15.2539 16.8945 15.2539C16.0352 15.2539 15.332 15.957 15.332 16.8164Z" fill="black" fill-opacity="0.85"/>
 </g>
</svg>
