<?xml version="1.0" encoding="UTF-8"?>
<!--Generator: Apple Native CoreSVG 326-->
<!DOCTYPE svg
PUBLIC "-//W3C//DTD SVG 1.1//EN"
       "http://www.w3.org/Graphics/SVG/1.1/DTD/svg11.dtd">
<svg version="1.1" xmlns="http://www.w3.org/2000/svg" xmlns:xlink="http://www.w3.org/1999/xlink" viewBox="0 0 46.2891 45.918">
 <g>
  <rect height="45.918" opacity="0" width="46.2891" x="0" y="0"/>
  <path d="M7.59766 45.918L38.3008 45.918C43.3594 45.918 45.918 43.3594 45.918 38.3984L45.918 7.53906C45.918 2.55859 43.3594 0 38.3008 0L7.59766 0C2.55859 0 0 2.53906 0 7.53906L0 38.3984C0 43.3984 2.55859 45.918 7.59766 45.918ZM7.67578 42.4609C4.94141 42.4609 3.45703 41.0156 3.45703 38.2031L3.45703 7.71484C3.45703 4.92188 4.94141 3.45703 7.67578 3.45703L38.2422 3.45703C40.918 3.45703 42.4609 4.92188 42.4609 7.71484L42.4609 38.2031C42.4609 41.0156 40.918 42.4609 38.2422 42.4609Z" fill="black" fill-opacity="0.85"/>
  <path d="M13.2227 34.5508C14.2383 34.5508 14.8242 33.9062 14.8242 32.793L14.8242 17.1094L15.0195 17.1094L21.2305 32.7344C21.5625 33.5352 22.1094 33.9062 22.9297 33.9062C23.7891 33.9062 24.3555 33.5352 24.6875 32.7344L30.918 17.1094L31.1133 17.1094L31.1133 32.793C31.1133 33.8867 31.6992 34.5508 32.6562 34.5508C33.6523 34.5508 34.2578 33.9062 34.2578 32.793L34.2578 13.1445C34.2578 11.9336 33.3789 11.1133 32.168 11.1133C31.0938 11.1133 30.3711 11.582 29.9609 12.5781L23.0469 30L22.9102 30L15.957 12.5781C15.5469 11.582 14.8438 11.1133 13.7695 11.1133C12.5391 11.1133 11.6797 11.9336 11.6797 13.1445L11.6797 32.793C11.6797 33.8867 12.2656 34.5508 13.2227 34.5508Z" fill="black" fill-opacity="0.85"/>
 </g>
</svg>
