<?xml version="1.0" encoding="UTF-8"?>
<!--Generator: Apple Native CoreSVG 326-->
<!DOCTYPE svg
PUBLIC "-//W3C//DTD SVG 1.1//EN"
       "http://www.w3.org/Graphics/SVG/1.1/DTD/svg11.dtd">
<svg version="1.1" xmlns="http://www.w3.org/2000/svg" xmlns:xlink="http://www.w3.org/1999/xlink" viewBox="0 0 58.9258 44.5898">
 <g>
  <rect height="44.5898" opacity="0" width="58.9258" x="0" y="0"/>
  <path d="M58.5547 18.4766L58.5547 26.0742C58.5547 39.2188 53.6328 44.5508 39.3555 44.5508L19.1992 44.5508C4.92188 44.5508 0 39.2188 0 26.0742L0 18.4766C0 5.33203 4.92188 0 19.1992 0L39.3555 0C53.6328 0 58.5547 5.33203 58.5547 18.4766ZM27.1484 13.5156L23.3008 28.3789L23.1836 28.3789L19.2773 13.5156C18.9648 12.207 18.1836 11.5625 16.9336 11.5625C15.4883 11.5625 14.5898 12.4414 14.5898 13.9062L14.5898 31.5039C14.5898 32.4609 15.1758 33.0859 16.0742 33.0859C16.9727 33.0859 17.5586 32.4609 17.5586 31.5039L17.5586 16.7578L17.7148 16.7578L21.5039 31.1523C21.7578 32.0703 22.3047 32.7344 23.2422 32.7344C24.2188 32.7344 24.707 32.0898 24.9414 31.1328L28.7695 16.7578L28.9062 16.7578L28.9062 31.5039C28.9062 32.4805 29.4531 33.0859 30.3906 33.0859C31.3477 33.0859 31.875 32.4609 31.875 31.5039L31.875 13.9062C31.875 12.3828 30.9766 11.5625 29.5117 11.5625C28.2031 11.5625 27.4609 12.207 27.1484 13.5156ZM38.6133 12.4609L35.6055 14.8633C35.1953 15.1758 34.8828 15.6055 34.8828 16.1914C34.8828 16.9141 35.3516 17.4219 36.0547 17.4219C36.4258 17.4219 36.6406 17.3047 36.8945 17.1094L39.4531 15.0586L39.4531 31.3086C39.4531 32.2461 40.1953 32.9883 41.1328 32.9883C42.0117 32.9883 42.7539 32.2461 42.7539 31.3086L42.7539 13.3789C42.7539 12.2266 42.0312 11.5234 40.8594 11.5234C39.9219 11.5234 39.1602 12.0508 38.6133 12.4609Z" fill="black" fill-opacity="0.85"/>
 </g>
</svg>
