<?xml version="1.0" encoding="UTF-8"?>
<!--Generator: Apple Native CoreSVG 326-->
<!DOCTYPE svg
PUBLIC "-//W3C//DTD SVG 1.1//EN"
       "http://www.w3.org/Graphics/SVG/1.1/DTD/svg11.dtd">
<svg version="1.1" xmlns="http://www.w3.org/2000/svg" xmlns:xlink="http://www.w3.org/1999/xlink" viewBox="0 0 58.9258 44.5898">
 <g>
  <rect height="44.5898" opacity="0" width="58.9258" x="0" y="0"/>
  <path d="M58.5547 18.4766L58.5547 26.0742C58.5547 39.2188 53.6328 44.5508 39.3555 44.5508L19.1992 44.5508C4.92188 44.5508 0 39.2188 0 26.0742L0 18.4766C0 5.33203 4.92188 0 19.1992 0L39.3555 0C53.6328 0 58.5547 5.33203 58.5547 18.4766ZM34.2383 15.2148C34.1016 15.7227 34.043 16.1719 34.043 16.6016C34.043 17.3438 34.5312 17.9492 35.4297 17.9492C36.2305 17.9492 36.6602 17.6172 36.8945 16.8359C37.2852 15.2148 38.1641 14.082 39.7656 14.082C41.582 14.082 42.5 15.5078 42.5 17.3438C42.5 19.3164 41.3477 20.8008 39.3164 20.8008L38.5938 20.8008C37.793 20.8008 37.3242 21.2891 37.3242 22.0312C37.3242 22.7734 37.832 23.2422 38.5938 23.2422L39.3359 23.2422C41.6602 23.2422 42.9492 24.5117 42.9492 26.8945C42.9492 28.8086 41.9531 30.4688 39.8633 30.4688C37.8711 30.4688 36.9141 29.082 36.6211 27.793C36.4062 27.0117 35.9375 26.6211 35.1758 26.6211C34.2773 26.6211 33.6914 27.168 33.6914 28.0469C33.6914 28.4961 33.7695 28.9844 33.8867 29.3945C34.6289 31.7578 37.1094 33.1445 39.8633 33.1445C43.457 33.1445 46.1914 30.8203 46.1914 26.9922C46.1914 23.8867 44.3945 22.1875 42.1094 21.9531L42.1094 21.875C44.4531 21.25 45.5859 19.1602 45.5859 16.9727C45.5859 13.4961 43.0664 11.4453 39.7656 11.4453C37.1289 11.4453 34.9805 12.9492 34.2383 15.2148ZM25.4297 13.5156L21.6016 28.3789L21.4648 28.3789L17.5586 13.5156C17.2461 12.207 16.4648 11.5625 15.2148 11.5625C13.7695 11.5625 12.8711 12.4414 12.8711 13.9062L12.8711 31.5039C12.8711 32.4609 13.457 33.0859 14.3555 33.0859C15.2539 33.0859 15.8398 32.4609 15.8398 31.5039L15.8398 16.7578L15.9961 16.7578L19.7852 31.1523C20.0391 32.0703 20.5664 32.7344 21.543 32.7344C22.5 32.7344 22.9883 32.0898 23.2422 31.1328L27.0508 16.7578L27.1875 16.7578L27.1875 31.5039C27.1875 32.4805 27.7344 33.0859 28.6719 33.0859C29.6289 33.0859 30.1562 32.4609 30.1562 31.5039L30.1562 13.9062C30.1562 12.3828 29.2773 11.5625 27.793 11.5625C26.4844 11.5625 25.7422 12.207 25.4297 13.5156Z" fill="black" fill-opacity="0.85"/>
 </g>
</svg>
