<?xml version="1.0" encoding="UTF-8"?>
<!--Generator: Apple Native CoreSVG 326-->
<!DOCTYPE svg
PUBLIC "-//W3C//DTD SVG 1.1//EN"
       "http://www.w3.org/Graphics/SVG/1.1/DTD/svg11.dtd">
<svg version="1.1" xmlns="http://www.w3.org/2000/svg" xmlns:xlink="http://www.w3.org/1999/xlink" viewBox="0 0 87.3438 47.7539">
 <g>
  <rect height="47.7539" opacity="0" width="87.3438" x="0" y="0"/>
  <path d="M67.6172 9.94141L67.6172 17.2593C66.0327 17.1763 64.427 17.1484 62.832 17.1484C50.8789 17.1484 38.3203 18.7305 38.3203 32.6367C38.3203 34.8344 38.7028 36.9171 39.4124 38.7891L19.3555 38.7891L19.3555 9.94141C19.3555 8.14453 20.2344 7.26562 22.0312 7.26562L64.9414 7.26562C66.7383 7.26562 67.6172 8.14453 67.6172 9.94141Z" fill="black" fill-opacity="0.2125"/>
  <path d="M71.0938 9.02344L71.0937 17.5398C69.9561 17.4074 68.7926 17.3178 67.6172 17.2593L67.6172 9.94141C67.6172 8.14453 66.7383 7.26562 64.9414 7.26562L22.0312 7.26562C20.2344 7.26562 19.3555 8.14453 19.3555 9.94141L19.3555 38.7891L39.4124 38.7891C40.153 40.799 41.2652 42.5695 42.6731 43.9844L10.3711 43.9844C8.94531 43.9844 7.79297 42.832 7.79297 41.3867C7.79297 39.9414 8.94531 38.7891 10.3711 38.7891L15.8789 38.7891L15.8789 9.02344C15.8789 5.58594 17.8516 3.80859 21.1328 3.80859L65.8398 3.80859C69.2578 3.80859 71.0938 5.58594 71.0938 9.02344Z" fill="black" fill-opacity="0.85"/>
  <path d="M62.832 36.6406C58.3789 36.6406 56.2695 41.3672 51.5234 41.3672C47.3438 41.3672 44.6875 38.1445 44.6875 32.6367C44.6875 24.375 51.582 23.5352 62.832 23.5352C74.1016 23.5352 80.9766 24.3555 80.9766 32.6367C80.9766 38.1445 78.3398 41.3672 74.1406 41.3672C69.3945 41.3672 67.2656 36.6406 62.832 36.6406Z" fill="black" fill-opacity="0.2125"/>
  <path d="M62.832 39.8828C65.3125 39.8828 68.2227 44.6289 74.1406 44.6289C79.9023 44.6289 84.2383 39.4141 84.2383 32.6367C84.2383 21.543 74.4141 20.2734 62.832 20.2734C51.25 20.2734 41.4258 21.5625 41.4258 32.6367C41.4258 39.4141 45.7422 44.6289 51.5234 44.6289C57.4414 44.6289 60.332 39.8828 62.832 39.8828ZM62.832 36.6406C58.3789 36.6406 56.2695 41.3672 51.5234 41.3672C47.3438 41.3672 44.6875 38.1445 44.6875 32.6367C44.6875 24.375 51.582 23.5352 62.832 23.5352C74.1016 23.5352 80.9766 24.3555 80.9766 32.6367C80.9766 38.1445 78.3398 41.3672 74.1406 41.3672C69.3945 41.3672 67.2656 36.6406 62.832 36.6406Z" fill="black" fill-opacity="0.85"/>
 </g>
</svg>
