<?xml version="1.0" encoding="UTF-8"?>
<!--Generator: Apple Native CoreSVG 326-->
<!DOCTYPE svg
PUBLIC "-//W3C//DTD SVG 1.1//EN"
       "http://www.w3.org/Graphics/SVG/1.1/DTD/svg11.dtd">
<svg version="1.1" xmlns="http://www.w3.org/2000/svg" xmlns:xlink="http://www.w3.org/1999/xlink" viewBox="0 0 81.1719 48.9258">
 <g>
  <rect height="48.9258" opacity="0" width="81.1719" x="0" y="0"/>
  <path d="M63.6898 8.35938L58.3594 8.35938C53.6719 8.35938 50.6836 11.3086 50.6836 15.8984L50.6836 39.375L16.2695 39.375L16.2695 10.5273C16.2695 8.73047 17.1484 7.85156 18.9453 7.85156L61.8555 7.85156C62.6415 7.85156 63.2518 8.01974 63.6898 8.35938Z" fill="black" fill-opacity="0.2125"/>
  <path d="M67.9147 8.35938L63.6898 8.35938C63.2518 8.01974 62.6415 7.85156 61.8555 7.85156L18.9453 7.85156C17.1484 7.85156 16.2695 8.73047 16.2695 10.5273L16.2695 39.375L50.6836 39.375L50.6836 41.3867C50.6836 42.5639 50.8802 43.6332 51.2544 44.5703L7.28516 44.5703C5.85938 44.5703 4.70703 43.418 4.70703 41.9727C4.70703 40.5273 5.85938 39.375 7.28516 39.375L12.793 39.375L12.793 9.60938C12.793 6.17188 14.7656 4.39453 18.0469 4.39453L62.7539 4.39453C65.7294 4.39453 67.5059 5.74148 67.9147 8.35938Z" fill="black" fill-opacity="0.85"/>
  <path d="M58.418 43.125C57.0898 43.125 56.4648 42.4805 56.4648 41.1328L56.4648 16.4844C56.4648 15.1172 57.0898 14.4531 58.418 14.4531L69.668 14.4531C70.9766 14.4531 71.6211 15.1172 71.6211 16.4844L71.6211 41.1328C71.6211 42.4805 70.9766 43.125 69.668 43.125Z" fill="black" fill-opacity="0.2125"/>
  <path d="M58.3594 45.9961L69.707 45.9961C72.7734 45.9961 74.4922 44.3555 74.4922 41.3867L74.4922 16.2305C74.4922 13.2617 72.7539 11.582 69.707 11.582L58.3594 11.582C55.332 11.582 53.5938 13.2617 53.5938 16.2305L53.5938 41.3867C53.5938 44.3555 55.3125 45.9961 58.3594 45.9961ZM58.418 43.125C57.0898 43.125 56.4648 42.4805 56.4648 41.1328L56.4648 16.4844C56.4648 15.1172 57.0898 14.4531 58.418 14.4531L69.668 14.4531C70.9766 14.4531 71.6211 15.1172 71.6211 16.4844L71.6211 41.1328C71.6211 42.4805 70.9766 43.125 69.668 43.125ZM60.5664 41.8359L67.4805 41.8359C67.9492 41.8359 68.3203 41.5039 68.3203 41.0156C68.3203 40.5664 67.9492 40.1953 67.4805 40.1953L60.5664 40.1953C60.0977 40.1953 59.7656 40.5664 59.7656 41.0156C59.7656 41.5234 60.0586 41.8359 60.5664 41.8359ZM62.0508 17.9102L65.9766 17.9102C66.6016 17.9102 67.0703 17.4219 67.0703 16.7969C67.0703 16.2109 66.6016 15.7422 65.9766 15.7422L62.0508 15.7422C61.4258 15.7422 60.957 16.2109 60.957 16.7969C60.957 17.4219 61.4258 17.9102 62.0508 17.9102Z" fill="black" fill-opacity="0.85"/>
 </g>
</svg>
