<?xml version="1.0" encoding="UTF-8"?>
<!--Generator: Apple Native CoreSVG 326-->
<!DOCTYPE svg
PUBLIC "-//W3C//DTD SVG 1.1//EN"
       "http://www.w3.org/Graphics/SVG/1.1/DTD/svg11.dtd">
<svg version="1.1" xmlns="http://www.w3.org/2000/svg" xmlns:xlink="http://www.w3.org/1999/xlink" viewBox="0 0 64.5312 38.1836">
 <g>
  <rect height="38.1836" opacity="0" width="64.5312" x="0" y="0"/>
  <path d="M10.2734 30.2344C11.2695 30.2344 12.0703 29.4336 12.0703 28.418L12.0703 9.58984C12.0703 8.59375 11.2695 7.8125 10.2734 7.8125C9.27734 7.8125 8.47656 8.61328 8.47656 9.58984L8.47656 28.418C8.47656 29.4336 9.25781 30.2344 10.2734 30.2344ZM18.2031 28.9258C19.2969 28.9258 20.1562 28.0273 20.1562 26.9531C20.1562 25.8789 19.2969 25 18.2031 25C17.1289 25 16.25 25.8789 16.25 26.9531C16.25 28.0273 17.1289 28.9258 18.2031 28.9258ZM25.1367 28.9258C26.2109 28.9258 27.0703 28.0273 27.0703 26.9531C27.0703 25.8789 26.2109 25 25.1367 25C24.0625 25 23.1641 25.8789 23.1641 26.9531C23.1641 28.0273 24.0625 28.9258 25.1367 28.9258ZM32.0703 28.9258C33.1445 28.9258 34.0234 28.0273 34.0234 26.9531C34.0234 25.8789 33.1445 25 32.0703 25C30.9961 25 30.1172 25.8789 30.1172 26.9531C30.1172 28.0273 30.9961 28.9258 32.0703 28.9258ZM38.9844 28.9258C40.0391 28.9258 40.918 28.0273 40.918 26.9531C40.918 25.8789 40.0391 25 38.9844 25C37.8906 25 37.0312 25.8789 37.0312 26.9531C37.0312 28.0273 37.8906 28.9258 38.9844 28.9258ZM45.8789 28.9258C46.9336 28.9258 47.832 28.0273 47.832 26.9531C47.832 25.8789 46.9336 25 45.8789 25C44.8047 25 43.9453 25.8789 43.9453 26.9531C43.9453 28.0273 44.8047 28.9258 45.8789 28.9258ZM21.6602 20.9766C22.7539 20.9766 23.6133 20.0977 23.6133 19.0234C23.6133 17.9492 22.7539 17.0508 21.6602 17.0508C20.5859 17.0508 19.707 17.9492 19.707 19.0234C19.707 20.0977 20.5859 20.9766 21.6602 20.9766ZM28.5938 20.9766C29.6875 20.9766 30.5469 20.0977 30.5469 19.0234C30.5469 17.9492 29.6875 17.0508 28.5938 17.0508C27.5195 17.0508 26.6406 17.9492 26.6406 19.0234C26.6406 20.0977 27.5195 20.9766 28.5938 20.9766ZM35.5273 20.9766C36.582 20.9766 37.4609 20.0977 37.4609 19.0234C37.4609 17.9492 36.582 17.0508 35.5273 17.0508C34.4531 17.0508 33.5547 17.9492 33.5547 19.0234C33.5547 20.0977 34.4531 20.9766 35.5273 20.9766ZM42.4219 20.9766C43.4766 20.9766 44.3555 20.0977 44.3555 19.0234C44.3555 17.9492 43.4766 17.0508 42.4219 17.0508C41.3281 17.0508 40.4883 17.9492 40.4883 19.0234C40.4883 20.0977 41.3281 20.9766 42.4219 20.9766ZM18.2031 13.0469C19.2969 13.0469 20.1562 12.168 20.1562 11.0938C20.1562 10 19.2969 9.12109 18.2031 9.12109C17.1289 9.12109 16.25 10 16.25 11.0938C16.25 12.168 17.1289 13.0469 18.2031 13.0469ZM25.1367 13.0469C26.2109 13.0469 27.0703 12.168 27.0703 11.0938C27.0703 10 26.2109 9.12109 25.1367 9.12109C24.0625 9.12109 23.1641 10 23.1641 11.0938C23.1641 12.168 24.0625 13.0469 25.1367 13.0469ZM32.0703 13.0469C33.1445 13.0469 34.0234 12.168 34.0234 11.0938C34.0234 10 33.1445 9.12109 32.0703 9.12109C30.9961 9.12109 30.1172 10 30.1172 11.0938C30.1172 12.168 30.9961 13.0469 32.0703 13.0469ZM38.9844 13.0469C40.0391 13.0469 40.918 12.168 40.918 11.0938C40.918 10 40.0391 9.12109 38.9844 9.12109C37.8906 9.12109 37.0312 10 37.0312 11.0938C37.0312 12.168 37.8906 13.0469 38.9844 13.0469ZM45.8789 13.0469C46.9336 13.0469 47.832 12.168 47.832 11.0938C47.832 10 46.9336 9.12109 45.8789 9.12109C44.8047 9.12109 43.9453 10 43.9453 11.0938C43.9453 12.168 44.8047 13.0469 45.8789 13.0469ZM53.8086 30.2344C54.8047 30.2344 55.6055 29.4336 55.6055 28.418L55.6055 9.58984C55.6055 8.61328 54.8047 7.8125 53.8086 7.8125C52.8125 7.8125 51.9922 8.59375 51.9922 9.58984L51.9922 28.418C51.9922 29.4336 52.8125 30.2344 53.8086 30.2344ZM7.59766 38.125L56.543 38.125C61.582 38.125 64.1602 35.5664 64.1602 30.6055L64.1602 7.51953C64.1602 2.53906 61.582 0 56.543 0L7.59766 0C2.53906 0 0 2.53906 0 7.51953L0 30.6055C0 35.5859 2.53906 38.125 7.59766 38.125ZM7.67578 34.668C4.94141 34.668 3.45703 33.2227 3.45703 30.4102L3.45703 7.71484C3.45703 4.90234 4.94141 3.45703 7.67578 3.45703L56.4844 3.45703C59.1992 3.45703 60.6836 4.90234 60.6836 7.71484L60.6836 30.4102C60.6836 33.2227 59.1602 34.668 56.4844 34.668Z" fill="black" fill-opacity="0.85"/>
 </g>
</svg>
