<?xml version="1.0" encoding="UTF-8"?>
<!--Generator: Apple Native CoreSVG 326-->
<!DOCTYPE svg
PUBLIC "-//W3C//DTD SVG 1.1//EN"
       "http://www.w3.org/Graphics/SVG/1.1/DTD/svg11.dtd">
<svg version="1.1" xmlns="http://www.w3.org/2000/svg" xmlns:xlink="http://www.w3.org/1999/xlink" viewBox="0 0 30.6498 56.1133">
 <g>
  <rect height="56.1133" opacity="0" width="30.6498" x="0" y="0"/>
  <path d="M15.1491 56.0742C23.7624 56.0742 28.86 51.9141 29.6022 43.5938C30.5397 33.1641 30.5202 23.2031 29.5632 12.0898C28.8796 4.16016 23.7624 0 15.1491 0C6.51629 0 1.41863 4.16016 0.715505 12.0898C-0.221995 23.2031-0.241526 33.1641 0.676443 43.5938C1.43816 51.9141 6.51629 56.0742 15.1491 56.0742ZM15.1491 52.6172C8.54754 52.6172 4.68035 49.7461 4.13347 43.5938C3.23504 33.1445 3.25457 23.1836 4.17254 12.0898C4.66082 6.32812 8.54754 3.45703 15.1491 3.45703C21.7507 3.45703 25.6374 6.32812 26.1061 12.0898C27.0436 23.1836 27.0632 33.1445 26.1452 43.5938C25.6178 49.7461 21.7507 52.6172 15.1491 52.6172ZM15.1686 46.1523C15.9303 46.1523 16.0671 46.5234 16.7116 46.5234C17.3561 46.5234 17.7858 45.9375 18.196 45.3516C18.6647 44.707 18.8405 44.0625 18.8405 44.0234C18.8014 43.9844 17.571 43.5156 17.571 42.1094C17.571 40.8398 18.5475 40.3125 18.5866 40.2539C17.9811 39.375 16.985 39.375 16.7116 39.375C15.9889 39.375 15.4225 39.7656 15.071 39.7656C14.6413 39.7656 14.1139 39.375 13.5085 39.375C12.3366 39.375 11.1257 40.3516 11.1257 42.168C11.1257 43.3789 11.5553 44.5508 12.1022 45.332C12.5905 46.0156 13.0202 46.5234 13.6061 46.5234C14.1921 46.5234 14.446 46.1523 15.1686 46.1523ZM16.8483 37.0312C15.9108 37.0312 14.9733 37.9688 14.9733 39.2383C16.0671 39.3164 17.0436 38.0664 16.8483 37.0312Z" fill="black" fill-opacity="0.85"/>
 </g>
</svg>
