<?xml version="1.0" encoding="UTF-8"?>
<!--Generator: Apple Native CoreSVG 326-->
<!DOCTYPE svg
PUBLIC "-//W3C//DTD SVG 1.1//EN"
       "http://www.w3.org/Graphics/SVG/1.1/DTD/svg11.dtd">
<svg version="1.1" xmlns="http://www.w3.org/2000/svg" xmlns:xlink="http://www.w3.org/1999/xlink" viewBox="0 0 51.25 50.918">
 <g>
  <rect height="50.918" opacity="0" width="51.25" x="0" y="0"/>
  <path d="M25.4297 50.8789C39.4727 50.8789 50.8789 39.4922 50.8789 25.4492C50.8789 11.4062 39.4727 0 25.4297 0C11.3867 0 0 11.4062 0 25.4492C0 39.4922 11.3867 50.8789 25.4297 50.8789ZM25.4297 47.2461C13.3789 47.2461 3.63281 37.5 3.63281 25.4492C3.63281 13.3984 13.3789 3.65234 25.4297 3.65234C37.4805 3.65234 47.2266 13.3984 47.2266 25.4492C47.2266 37.5 37.4805 47.2461 25.4297 47.2461Z" fill="black" fill-opacity="0.85"/>
  <path d="M22.6367 32.8906C28.3594 32.8906 33.0078 28.2422 33.0078 22.5195C33.0078 16.7969 28.3594 12.1289 22.6367 12.1289C16.9336 12.1289 12.2461 16.8164 12.2461 22.5195C12.2461 28.2227 16.9336 32.8906 22.6367 32.8906ZM22.6367 29.9219C18.5742 29.9219 15.2148 26.5625 15.2148 22.5C15.2148 18.457 18.5742 15.0977 22.6367 15.0977C26.7188 15.0977 30.0391 18.4375 30.0391 22.5C30.0391 26.5625 26.7188 29.9219 22.6367 29.9219ZM36.6992 38.5938C37.7734 38.5938 38.5156 37.8125 38.5156 36.7188C38.5156 36.1914 38.2617 35.7227 37.8906 35.3516L29.8242 27.2461L27.0117 29.8047L35.1172 37.8906C35.5664 38.3789 36.0547 38.5938 36.6992 38.5938Z" fill="black" fill-opacity="0.85"/>
 </g>
</svg>
