<?xml version="1.0" encoding="UTF-8"?>
<!--Generator: Apple Native CoreSVG 326-->
<!DOCTYPE svg
PUBLIC "-//W3C//DTD SVG 1.1//EN"
       "http://www.w3.org/Graphics/SVG/1.1/DTD/svg11.dtd">
<svg version="1.1" xmlns="http://www.w3.org/2000/svg" xmlns:xlink="http://www.w3.org/1999/xlink" viewBox="0 0 59.5508 45.918">
 <g>
  <rect height="45.918" opacity="0" width="59.5508" x="0" y="0"/>
  <path d="M11.4453 14.5703L28.1445 14.5703C28.9844 14.5703 29.6484 13.8867 29.6484 13.0469C29.6484 12.207 28.9844 11.543 28.1445 11.543L11.4453 11.543C10.5859 11.543 9.94141 12.207 9.94141 13.0469C9.94141 13.8867 10.5859 14.5703 11.4453 14.5703ZM11.4453 21.0938L23.6719 21.0938C24.5117 21.0938 25.1953 20.4297 25.1953 19.5898C25.1953 18.7305 24.5117 18.0469 23.6719 18.0469L11.4453 18.0469C10.5859 18.0469 9.94141 18.7305 9.94141 19.5898C9.94141 20.4297 10.5859 21.0938 11.4453 21.0938ZM43.2031 22.0898C46.5234 22.0898 49.2188 19.3945 49.2188 16.0547C49.2188 12.6953 46.5234 10 43.2031 10C39.8633 10 37.168 12.6953 37.168 16.0547C37.168 19.3945 39.8633 22.0898 43.2031 22.0898ZM7.59766 45.918L51.5625 45.918C56.6211 45.918 59.1797 43.3594 59.1797 38.3984L59.1797 7.53906C59.1797 2.55859 56.6211 0 51.5625 0L7.59766 0C2.55859 0 0 2.53906 0 7.53906L0 38.3984C0 43.3984 2.55859 45.918 7.59766 45.918ZM7.67578 42.4609C4.94141 42.4609 3.45703 41.0156 3.45703 38.2031L3.45703 7.71484C3.45703 4.92188 4.94141 3.45703 7.67578 3.45703L51.5039 3.45703C54.1797 3.45703 55.7031 4.92188 55.7031 7.71484L55.7031 38.2031C55.7031 41.0156 54.1797 42.4609 51.5039 42.4609Z" fill="black" fill-opacity="0.85"/>
 </g>
</svg>
