<?xml version="1.0" encoding="UTF-8"?>
<!--Generator: Apple Native CoreSVG 326-->
<!DOCTYPE svg
PUBLIC "-//W3C//DTD SVG 1.1//EN"
       "http://www.w3.org/Graphics/SVG/1.1/DTD/svg11.dtd">
<svg version="1.1" xmlns="http://www.w3.org/2000/svg" xmlns:xlink="http://www.w3.org/1999/xlink" viewBox="0 0 61.543 63.1836">
 <g>
  <rect height="63.1836" opacity="0" width="61.543" x="0" y="0"/>
  <path d="M46.5107 6.95313L14.6805 6.95313C14.8057 5.18354 15.9546 4.16016 17.832 4.16016L43.3398 4.16016C45.2172 4.16016 46.3835 5.18354 46.5107 6.95313Z" fill="black" fill-opacity="0.85"/>
  <path d="M51.5514 13.7887C50.8512 13.6817 50.1095 13.6328 49.3359 13.6328L11.8359 13.6328C11.0621 13.6328 10.3205 13.6813 9.62066 13.7875C9.88629 11.7108 11.3173 10.5469 13.6133 10.5469L47.5586 10.5469C49.8551 10.5469 51.2861 11.7112 51.5514 13.7887Z" fill="black" fill-opacity="0.85"/>
  <path d="M11.8359 58.9648L49.3359 58.9648C54.375 58.9648 56.9336 56.4062 56.9336 51.4258L56.9336 25.3906C56.9336 20.4102 54.375 17.8711 49.3359 17.8711L11.8359 17.8711C6.77734 17.8711 4.23828 20.3906 4.23828 25.3906L4.23828 51.4258C4.23828 56.4258 6.77734 58.9648 11.8359 58.9648ZM14.4922 31.0156C13.5742 31.0156 12.9297 30.293 12.9297 29.4531C12.9297 28.5938 13.5742 27.8906 14.4922 27.8906L31.3672 27.8906C32.207 27.8906 32.8906 28.5938 32.8906 29.4531C32.8906 30.293 32.207 31.0156 31.3672 31.0156ZM14.4922 37.5977C13.5742 37.5977 12.9297 36.9336 12.9297 36.0938C12.9297 35.1953 13.5742 34.5117 14.4922 34.5117L26.3477 34.5117C27.207 34.5117 27.8906 35.1953 27.8906 36.0938C27.8906 36.9336 27.207 37.5977 26.3477 37.5977ZM42.9297 38.5938C39.5508 38.5938 36.7969 35.8789 36.7969 32.5C36.7969 29.1016 39.5508 26.3867 42.9297 26.3867C46.2891 26.3867 49.0234 29.1016 49.0234 32.5C49.0234 35.8789 46.2891 38.5938 42.9297 38.5938Z" fill="black" fill-opacity="0.85"/>
 </g>
</svg>
