<?xml version="1.0" encoding="UTF-8"?>
<!--Generator: Apple Native CoreSVG 326-->
<!DOCTYPE svg
PUBLIC "-//W3C//DTD SVG 1.1//EN"
       "http://www.w3.org/Graphics/SVG/1.1/DTD/svg11.dtd">
<svg version="1.1" xmlns="http://www.w3.org/2000/svg" xmlns:xlink="http://www.w3.org/1999/xlink" viewBox="0 0 55.5273 53.1055">
 <g>
  <rect height="53.1055" opacity="0" width="55.5273" x="0" y="0"/>
  <path d="M30.5273 0.839844L52.1094 13.3008C52.8906 13.75 53.2422 14.3164 53.2422 14.9609C53.2422 15.8398 52.5781 16.6797 51.3867 16.6797L49.1211 16.6797L49.1211 46.5039L50.7227 46.5039C51.582 46.5039 52.0898 47.0117 52.0898 47.8516L52.0898 49.6094L53.418 49.6094C54.375 49.6094 55.1562 50.3906 55.1562 51.3477C55.1562 52.2852 54.375 53.0664 53.418 53.0664L1.73828 53.0664C0.78125 53.0664 0 52.2852 0 51.3477C0 50.3906 0.78125 49.6094 1.73828 49.6094L3.06641 49.6094L3.06641 47.8516C3.06641 47.0117 3.57422 46.5039 4.45312 46.5039L6.05469 46.5039L6.05469 16.6797L3.76953 16.6797C2.57812 16.6797 1.91406 15.8398 1.91406 14.9609C1.91406 14.3164 2.24609 13.75 3.04688 13.3008L24.6289 0.839844C25.5664 0.292969 26.6016 0 27.5781 0C28.5547 0 29.5703 0.292969 30.5273 0.839844ZM39.2188 20L34.9609 35.2539L34.7461 35.2539L30.4102 19.9805C30.1758 19.0625 29.5117 18.4766 28.5938 18.4766C27.4805 18.4766 26.7773 19.1602 26.7773 20.2539L26.7773 37.6953C26.7773 38.3789 27.2266 38.8672 27.9102 38.8672C28.5742 38.8672 29.043 38.3789 29.043 37.6953L29.043 22.5781L29.1992 22.5781L33.3789 37.3047C33.5742 37.9883 33.9844 38.5547 34.8242 38.5547C35.625 38.5547 36.0547 38.0469 36.2695 37.2461L40.4492 22.5781L40.6055 22.5781L40.6055 37.6953C40.6055 38.3789 41.0547 38.8672 41.7383 38.8672C42.4023 38.8672 42.8711 38.3789 42.8711 37.6953L42.8711 20.2539C42.8711 19.1406 42.168 18.4766 41.0742 18.4766C40.1367 18.4766 39.4727 19.043 39.2188 20ZM13.5742 18.7305C12.8516 18.7305 12.3438 19.2383 12.3438 20.0195L12.3438 37.5586C12.3438 38.3203 12.832 38.8477 13.5938 38.8477C14.3555 38.8477 14.8438 38.3203 14.8438 37.5586L14.8438 30.5273L18.1055 30.5273L21.2695 37.9492C21.5234 38.5352 21.9141 38.8477 22.5 38.8477C23.2812 38.8477 23.75 38.3398 23.75 37.7148C23.75 37.4219 23.6523 37.1875 23.4766 36.7578L20.5078 29.9805C22.4023 29.1992 23.75 27.3633 23.75 24.5898C23.75 20.957 21.5625 18.7305 17.8711 18.7305ZM21.25 24.6289C21.25 26.9531 20.0391 28.5156 17.6367 28.5156L14.8438 28.5156L14.8438 20.8203L17.6172 20.8203C19.9609 20.8203 21.25 22.3242 21.25 24.6289Z" fill="black" fill-opacity="0.85"/>
 </g>
</svg>
