<?xml version="1.0" encoding="UTF-8"?>
<!--Generator: Apple Native CoreSVG 326-->
<!DOCTYPE svg
PUBLIC "-//W3C//DTD SVG 1.1//EN"
       "http://www.w3.org/Graphics/SVG/1.1/DTD/svg11.dtd">
<svg version="1.1" xmlns="http://www.w3.org/2000/svg" xmlns:xlink="http://www.w3.org/1999/xlink" viewBox="0 0 60.961 50.918">
 <g>
  <rect height="50.918" opacity="0" width="60.961" x="0" y="0"/>
  <path d="M30.295 50.8789C44.3379 50.8789 55.7246 39.4922 55.7246 25.4492C55.7246 11.4062 44.3379 0 30.295 0C16.252 0 4.86526 11.4062 4.86526 25.4492L8.49808 25.4492C8.49808 13.3984 18.2442 3.65234 30.295 3.65234C42.3457 3.65234 52.0918 13.3984 52.0918 25.4492C52.0918 37.5 42.3457 47.2461 30.295 47.2461C22.834 47.2461 16.1739 43.457 12.3653 37.7539C11.7207 36.875 10.7051 36.6016 9.80667 37.1484C8.94729 37.6562 8.69339 38.8477 9.39651 39.8047C13.9473 46.5039 21.6426 50.8789 30.295 50.8789ZM1.60354 20.7227C0.00198146 20.7227-0.447237 21.8164 0.470731 23.0859L6.01761 30.9766C6.75979 32.0508 7.83401 32.0312 8.55667 30.9766L14.1035 23.0664C14.9825 21.8164 14.5528 20.7227 12.9707 20.7227Z" fill="black" fill-opacity="0.85"/>
  <path d="M18.2442 34.2383C18.9082 34.2383 19.3184 33.7891 19.3184 33.125L19.3184 27.0508L22.1309 27.0508L24.8653 33.457C25.0801 33.9648 25.4121 34.2383 25.92 34.2383C26.584 34.2383 26.9942 33.8086 26.9942 33.2617C26.9942 33.0078 26.916 32.8125 26.7598 32.4609L24.1817 26.6016C25.8223 25.918 26.9942 24.3359 26.9942 21.9336C26.9942 18.8281 25.0801 16.8945 21.916 16.8945L18.2246 16.8945C17.5996 16.8945 17.17 17.3242 17.17 17.9883L17.17 33.125C17.17 33.7891 17.5801 34.2383 18.2442 34.2383ZM19.3184 25.332L19.3184 18.6719L21.7012 18.6719C23.7325 18.6719 24.8653 19.9805 24.8653 21.9727C24.8653 23.9844 23.8106 25.332 21.7403 25.332ZM30.5879 34.2383C31.1543 34.2383 31.545 33.8281 31.545 33.2422L31.545 20.1758L31.6817 20.1758L35.295 32.9102C35.4707 33.4961 35.8223 33.9844 36.5254 33.9844C37.2285 33.9844 37.5801 33.5547 37.7754 32.8711L41.3887 20.1758L41.5254 20.1758L41.5254 33.2422C41.5254 33.8281 41.916 34.2383 42.4825 34.2383C43.0684 34.2383 43.459 33.8281 43.459 33.2422L43.459 18.1836C43.459 17.2461 42.8535 16.6797 41.916 16.6797C41.1153 16.6797 40.5684 17.1484 40.334 17.9688L36.6621 31.1523L36.4668 31.1523L32.7168 17.9688C32.502 17.168 31.9551 16.6797 31.1543 16.6797C30.2168 16.6797 29.6114 17.2656 29.6114 18.1836L29.6114 33.2422C29.6114 33.8281 30.002 34.2383 30.5879 34.2383Z" fill="black" fill-opacity="0.85"/>
 </g>
</svg>
