<?xml version="1.0" encoding="UTF-8"?>
<!--Generator: Apple Native CoreSVG 326-->
<!DOCTYPE svg
PUBLIC "-//W3C//DTD SVG 1.1//EN"
       "http://www.w3.org/Graphics/SVG/1.1/DTD/svg11.dtd">
<svg version="1.1" xmlns="http://www.w3.org/2000/svg" xmlns:xlink="http://www.w3.org/1999/xlink" viewBox="0 0 46.2891 45.918">
 <g>
  <rect height="45.918" opacity="0" width="46.2891" x="0" y="0"/>
  <path d="M45.918 7.53906L45.918 38.3984C45.918 43.3594 43.3594 45.918 38.3008 45.918L7.59766 45.918C2.55859 45.918 0 43.3984 0 38.3984L0 7.53906C0 2.53906 2.55859 0 7.59766 0L38.3008 0C43.3594 0 45.918 2.55859 45.918 7.53906ZM35.1953 13.8281L30.7227 29.8828L30.4883 29.8828L25.9375 13.8086C25.6641 12.832 24.9805 12.207 24.0039 12.207C22.8516 12.207 22.0898 12.9492 22.0898 14.082L22.0898 32.4414C22.0898 33.1836 22.5781 33.6914 23.3008 33.6914C24.0039 33.6914 24.4922 33.1836 24.4922 32.4414L24.4922 16.543L24.6484 16.543L29.0625 32.0312C29.2578 32.7539 29.6875 33.3594 30.5664 33.3594C31.4258 33.3594 31.8555 32.8125 32.1094 31.9727L36.4844 16.543L36.6602 16.543L36.6602 32.4414C36.6602 33.1836 37.1484 33.6914 37.8516 33.6914C38.5547 33.6914 39.043 33.1836 39.043 32.4414L39.043 14.082C39.043 12.9297 38.3203 12.207 37.168 12.207C36.1719 12.207 35.4688 12.8125 35.1953 13.8281ZM8.20312 12.5C7.44141 12.5 6.91406 13.0078 6.91406 13.8477L6.91406 32.3242C6.91406 33.125 7.42188 33.6719 8.24219 33.6719C9.04297 33.6719 9.55078 33.125 9.55078 32.3242L9.55078 24.9023L12.9688 24.9023L16.3086 32.7148C16.582 33.3398 16.9922 33.6719 17.5977 33.6719C18.4375 33.6719 18.9062 33.1445 18.9062 32.4805C18.9062 32.1484 18.8281 31.9141 18.6328 31.4648L15.5078 24.3359C17.5 23.5156 18.9062 21.5625 18.9062 18.6523C18.9062 14.8242 16.6016 12.5 12.7148 12.5ZM16.2891 18.6914C16.2891 21.1328 15.0195 22.793 12.4805 22.793L9.55078 22.793L9.55078 14.6875L12.4609 14.6875C14.9219 14.6875 16.2891 16.2695 16.2891 18.6914Z" fill="black" fill-opacity="0.85"/>
 </g>
</svg>
