<?xml version="1.0" encoding="UTF-8"?>
<!--Generator: Apple Native CoreSVG 326-->
<!DOCTYPE svg
PUBLIC "-//W3C//DTD SVG 1.1//EN"
       "http://www.w3.org/Graphics/SVG/1.1/DTD/svg11.dtd">
<svg version="1.1" xmlns="http://www.w3.org/2000/svg" xmlns:xlink="http://www.w3.org/1999/xlink" viewBox="0 0 56.2305 55.8789">
 <g>
  <rect height="55.8789" opacity="0" width="56.2305" x="0" y="0"/>
  <path d="M27.9297 55.8594C43.2812 55.8594 55.8594 43.3008 55.8594 27.9297C55.8594 12.5586 43.2812 0 27.9297 0C12.5781 0 0 12.5586 0 27.9297C0 43.3008 12.5781 55.8594 27.9297 55.8594ZM27.9297 46.6797C17.5586 46.6797 9.16016 38.3008 9.16016 27.9297C9.16016 17.5586 17.5586 9.16016 27.9297 9.16016C38.3008 9.16016 46.6992 17.5586 46.6992 27.9297C46.6992 38.3008 38.3008 46.6797 27.9297 46.6797Z" fill="black" fill-opacity="0.85"/>
  <path d="M15.7227 36.8359C16.3867 36.8359 16.7969 36.3867 16.7969 35.7227L16.7969 29.5508L19.6484 29.5508L22.4219 36.0547C22.6367 36.5625 22.9883 36.8359 23.4961 36.8359C24.1602 36.8359 24.5703 36.3867 24.5703 35.8594C24.5703 35.5859 24.4922 35.3906 24.3359 35.0391L21.7383 29.082C23.3984 28.3984 24.5703 26.7969 24.5703 24.3555C24.5703 21.2109 22.6562 19.2578 19.4336 19.2578L15.6836 19.2578C15.0586 19.2578 14.6289 19.707 14.6289 20.3711L14.6289 35.7227C14.6289 36.3867 15.0391 36.8359 15.7227 36.8359ZM16.7969 27.8125L16.7969 21.0742L19.2188 21.0742C21.2695 21.0742 22.4219 22.3828 22.4219 24.4141C22.4219 26.4258 21.3477 27.8125 19.2383 27.8125ZM28.2227 36.8359C28.8086 36.8359 29.1992 36.4258 29.1992 35.8203L29.1992 22.5781L29.3359 22.5781L32.9883 35.4883C33.1641 36.0938 33.5156 36.582 34.2578 36.582C34.9609 36.582 35.3125 36.1328 35.5273 35.4492L39.1602 22.5781L39.2969 22.5781L39.2969 35.8203C39.2969 36.4258 39.707 36.8359 40.293 36.8359C40.8594 36.8359 41.2695 36.4258 41.2695 35.8203L41.2695 20.5664C41.2695 19.6289 40.6641 19.0234 39.707 19.0234C38.8867 19.0234 38.3398 19.5312 38.1055 20.3516L34.375 33.7109L34.1797 33.7109L30.3906 20.332C30.1758 19.5508 29.6094 19.0234 28.8086 19.0234C27.832 19.0234 27.2266 19.6289 27.2266 20.5664L27.2266 35.8203C27.2266 36.4258 27.6367 36.8359 28.2227 36.8359Z" fill="black" fill-opacity="0.85"/>
 </g>
</svg>
