<?xml version="1.0" encoding="UTF-8"?>
<!--Generator: Apple Native CoreSVG 326-->
<!DOCTYPE svg
PUBLIC "-//W3C//DTD SVG 1.1//EN"
       "http://www.w3.org/Graphics/SVG/1.1/DTD/svg11.dtd">
<svg version="1.1" xmlns="http://www.w3.org/2000/svg" xmlns:xlink="http://www.w3.org/1999/xlink" viewBox="0 0 51.25 50.918">
 <g>
  <rect height="50.918" opacity="0" width="51.25" x="0" y="0"/>
  <path d="M50.8789 25.4492C50.8789 39.4531 39.4531 50.8789 25.4297 50.8789C11.4258 50.8789 0 39.4531 0 25.4492C0 11.4258 11.4258 0 25.4297 0C39.4531 0 50.8789 11.4258 50.8789 25.4492ZM24.4336 13.4961L24.4336 16.4844C19.1797 16.9531 16.6992 21.3672 16.6992 27.0898L16.6992 35.1758C16.6992 36.0156 17.207 36.5625 18.0273 36.5625C18.8867 36.5625 19.3945 36.0156 19.3945 35.1758L19.3945 27.2656C19.3945 22.9688 20.8203 19.4727 24.4336 18.9258L24.4336 35.5859C24.4336 36.1914 24.8242 36.5625 25.4297 36.5625C26.0156 36.5625 26.3672 36.1914 26.3672 35.5859L26.3672 18.9062C30.1758 19.3945 31.5625 22.9688 31.5625 27.2656L31.5625 35.1758C31.5625 36.0156 32.0703 36.5625 32.9102 36.5625C33.75 36.5625 34.2383 36.0156 34.2383 35.1758L34.2383 27.0898C34.2383 21.2695 31.6992 16.9141 26.3672 16.4648L26.3672 13.4961C26.3672 12.8906 26.0156 12.5391 25.4297 12.5391C24.8242 12.5391 24.4336 12.8906 24.4336 13.4961Z" fill="black" fill-opacity="0.85"/>
 </g>
</svg>
