<?xml version="1.0" encoding="UTF-8"?>
<!--Generator: Apple Native CoreSVG 326-->
<!DOCTYPE svg
PUBLIC "-//W3C//DTD SVG 1.1//EN"
       "http://www.w3.org/Graphics/SVG/1.1/DTD/svg11.dtd">
<svg version="1.1" xmlns="http://www.w3.org/2000/svg" xmlns:xlink="http://www.w3.org/1999/xlink" viewBox="0 0 60.4102 49.8382">
 <g>
  <rect height="49.8382" opacity="0" width="60.4102" x="0" y="0"/>
  <path d="M60.0391 29.9093C60.0391 14.1867 47.9492 1.29605 32.5977 0.00698344C31.7969-0.0711416 31.1719 0.514796 31.1719 1.33511L31.1719 9.32339C31.1719 9.98745 31.6602 10.5148 32.3438 10.5734C41.9727 11.7453 49.4531 19.9484 49.4531 29.9093C49.4531 34.4406 47.9102 38.6007 45.1758 42.0382C44.8047 42.507 44.8242 43.0929 45.2344 43.5031L51.0352 49.3039C51.6211 49.8703 52.4609 49.8703 52.9688 49.2453C57.3828 44.0109 60.0391 37.2531 60.0391 29.9093Z" fill="black" fill-opacity="0.85"/>
  <path d="M0 29.9093C0 37.2726 2.65625 44.05 7.08984 49.2843C7.57812 49.8703 8.39844 49.8703 8.98438 49.3039L14.7852 43.5031C15.1953 43.0929 15.2148 42.507 14.8438 42.0382C12.1094 38.6007 10.5664 34.4406 10.5664 29.9093C10.5664 19.9484 18.0664 11.7453 27.6758 10.5734C28.3789 10.5148 28.8477 9.98745 28.8477 9.32339L28.8477 1.33511C28.8477 0.514796 28.2422-0.0711416 27.4414 0.00698344C12.0703 1.29605 0 14.1867 0 29.9093Z" fill="black" fill-opacity="0.85"/>
  <path d="M22.7734 41.0617C23.5938 41.0617 24.1016 40.5539 24.1016 39.7335L24.1016 31.9796C24.1016 27.4289 25.7422 23.796 30.0195 23.796C34.4141 23.796 35.9766 27.4875 35.9766 31.9796L35.9766 39.7335C35.9766 40.5539 36.4648 41.0617 37.2852 41.0617C38.0859 41.0617 38.5938 40.5539 38.5938 39.7335L38.5938 31.8234C38.5938 25.8468 35.8203 21.4328 30.0195 21.4328C24.1992 21.4328 21.4844 25.925 21.4844 31.8234L21.4844 39.7335C21.4844 40.5539 21.9727 41.0617 22.7734 41.0617ZM30 41.0617C30.5469 41.0617 30.918 40.7101 30.918 40.1242L30.918 18.5812C30.918 17.9953 30.5469 17.6437 30 17.6437C29.3945 17.6437 29.043 17.9953 29.043 18.5812L29.043 40.1242C29.043 40.7101 29.3945 41.0617 30 41.0617Z" fill="black" fill-opacity="0.85"/>
 </g>
</svg>
