<?xml version="1.0" encoding="UTF-8"?>
<!--Generator: Apple Native CoreSVG 326-->
<!DOCTYPE svg
PUBLIC "-//W3C//DTD SVG 1.1//EN"
       "http://www.w3.org/Graphics/SVG/1.1/DTD/svg11.dtd">
<svg version="1.1" xmlns="http://www.w3.org/2000/svg" xmlns:xlink="http://www.w3.org/1999/xlink" viewBox="0 0 51.25 50.918">
 <g>
  <rect height="50.918" opacity="0" width="51.25" x="0" y="0"/>
  <path d="M25.4297 50.8789C39.4727 50.8789 50.8789 39.4922 50.8789 25.4492C50.8789 11.4062 39.4727 0 25.4297 0C11.3867 0 0 11.4062 0 25.4492C0 39.4922 11.3867 50.8789 25.4297 50.8789ZM25.4297 47.2461C13.3789 47.2461 3.63281 37.5 3.63281 25.4492C3.63281 13.3984 13.3789 3.65234 25.4297 3.65234C37.4805 3.65234 47.2266 13.3984 47.2266 25.4492C47.2266 37.5 37.4805 47.2461 25.4297 47.2461Z" fill="black" fill-opacity="0.85"/>
  <path d="M11.8359 36.4453C11.8359 37.3242 12.3438 37.8516 13.2031 37.8516C13.5156 37.8516 13.8281 37.7344 14.1992 37.5391L20 34.3555L20 12.6758C19.7656 12.7734 19.5117 12.9102 19.2383 13.0469L12.8906 16.7383C12.1484 17.168 11.8359 17.6758 11.8359 18.5352ZM21.6406 34.1797L28.3203 38.0273C28.5156 38.1445 28.75 38.2227 28.9453 38.2812L28.9453 16.7969L22.4219 12.832C22.168 12.6758 21.9141 12.5781 21.6406 12.5195ZM30.5469 38.2227C30.7031 38.1836 30.8594 38.125 31.0156 38.0469L37.8711 34.1016C38.6328 33.6719 38.9258 33.1836 38.9258 32.3242L38.9258 14.3945C38.9258 13.4766 38.418 13.0078 37.5586 13.0078C37.2461 13.0078 36.9336 13.1055 36.5625 13.3203L30.5469 16.6211Z" fill="black" fill-opacity="0.85"/>
 </g>
</svg>
