<?xml version="1.0" encoding="UTF-8"?>
<!--Generator: Apple Native CoreSVG 326-->
<!DOCTYPE svg
PUBLIC "-//W3C//DTD SVG 1.1//EN"
       "http://www.w3.org/Graphics/SVG/1.1/DTD/svg11.dtd">
<svg version="1.1" xmlns="http://www.w3.org/2000/svg" xmlns:xlink="http://www.w3.org/1999/xlink" viewBox="0 0 51.25 50.918">
 <g>
  <rect height="50.918" opacity="0" width="51.25" x="0" y="0"/>
  <path d="M50.8789 25.4492C50.8789 39.4531 39.4531 50.8789 25.4297 50.8789C11.4258 50.8789 0 39.4531 0 25.4492C0 11.4258 11.4258 0 25.4297 0C39.4531 0 50.8789 11.4258 50.8789 25.4492ZM21.543 34.4141L28.3789 38.3594C28.5938 38.4766 28.8281 38.5547 29.0234 38.6133L29.0234 16.6016L22.3438 12.5195C22.0898 12.3828 21.8359 12.2656 21.543 12.2266ZM36.8359 13.0273L30.6836 16.4062L30.6836 38.5547C30.8398 38.5156 30.9961 38.457 31.1523 38.3594L38.1836 34.3359C38.9258 33.9062 39.2578 33.3203 39.2578 32.5L39.2578 14.1406C39.2578 13.2031 38.7305 12.7148 37.8711 12.7148C37.5586 12.7148 37.207 12.8125 36.8359 13.0273ZM19.082 12.7734L12.5781 16.543C11.8359 16.9727 11.5039 17.5391 11.5039 18.3789L11.5039 36.7188C11.5039 37.6367 12.0312 38.1641 12.9102 38.1641C13.2227 38.1641 13.5547 38.0273 13.9258 37.832L19.8633 34.6094L19.8633 12.3828C19.6289 12.5 19.3555 12.6367 19.082 12.7734Z" fill="black" fill-opacity="0.85"/>
 </g>
</svg>
