<?xml version="1.0" encoding="UTF-8"?>
<!--Generator: Apple Native CoreSVG 326-->
<!DOCTYPE svg
PUBLIC "-//W3C//DTD SVG 1.1//EN"
       "http://www.w3.org/Graphics/SVG/1.1/DTD/svg11.dtd">
<svg version="1.1" xmlns="http://www.w3.org/2000/svg" xmlns:xlink="http://www.w3.org/1999/xlink" viewBox="0 0 51.7188 49.1992">
 <g>
  <rect height="49.1992" opacity="0" width="51.7188" x="0" y="0"/>
  <path d="M2.55859 48.1836C3.14453 48.1836 3.73047 47.9688 4.47266 47.5586L17.3633 40.5273L31.1914 48.4375C32.0703 48.9453 32.9883 49.1992 33.8672 49.1992C34.707 49.1992 35.5273 48.9648 36.2891 48.5156L49.375 41.0156C50.7422 40.2539 51.3477 39.1992 51.3477 37.6367L51.3477 3.71094C51.3477 2.01172 50.4102 1.03516 48.7891 1.03516C48.2031 1.03516 47.6172 1.25 46.875 1.64062L33.5547 9.02344L20 0.722656C19.1992 0.253906 18.3398 0.0195312 17.4609 0.0195312C16.582 0.0195312 15.6836 0.253906 14.8828 0.722656L1.97266 8.20312C0.605469 8.98438 0 10.0195 0 11.6016L0 45.4883C0 47.207 0.9375 48.1836 2.55859 48.1836ZM15.9766 37.1484L4.19922 43.6523C4.08203 43.7109 3.94531 43.7695 3.82812 43.7695C3.61328 43.7695 3.45703 43.5938 3.45703 43.3203L3.45703 12.4219C3.45703 11.8164 3.67188 11.3867 4.27734 11.0352L15.0977 4.64844C15.3906 4.47266 15.6641 4.33594 15.9766 4.17969ZM19.4336 37.4805L19.4336 4.60938C19.6875 4.72656 19.9805 4.88281 20.2148 5.01953L31.9141 12.168L31.9141 44.6094C31.582 44.4531 31.2305 44.2773 30.8984 44.082ZM35.3906 44.9805L35.3906 11.9727L47.1484 5.56641C47.2852 5.48828 47.4023 5.44922 47.5195 5.44922C47.7539 5.44922 47.8906 5.60547 47.8906 5.87891L47.8906 36.7969C47.8906 37.4023 47.6758 37.8516 47.0898 38.2031L36.4453 44.4141C36.0938 44.6289 35.7422 44.8047 35.3906 44.9805Z" fill="black" fill-opacity="0.85"/>
 </g>
</svg>
