<?xml version="1.0" encoding="UTF-8"?>
<!--Generator: Apple Native CoreSVG 326-->
<!DOCTYPE svg
PUBLIC "-//W3C//DTD SVG 1.1//EN"
       "http://www.w3.org/Graphics/SVG/1.1/DTD/svg11.dtd">
<svg version="1.1" xmlns="http://www.w3.org/2000/svg" xmlns:xlink="http://www.w3.org/1999/xlink" viewBox="0 0 51.25 50.918">
 <g>
  <rect height="50.918" opacity="0" width="51.25" x="0" y="0"/>
  <path d="M25.4297 50.8789C39.4727 50.8789 50.8789 39.4922 50.8789 25.4492C50.8789 11.4062 39.4727 0 25.4297 0C11.3867 0 0 11.4062 0 25.4492C0 39.4922 11.3867 50.8789 25.4297 50.8789ZM25.4297 47.2461C13.3789 47.2461 3.63281 37.5 3.63281 25.4492C3.63281 13.3984 13.3789 3.65234 25.4297 3.65234C37.4805 3.65234 47.2266 13.3984 47.2266 25.4492C47.2266 37.5 37.4805 47.2461 25.4297 47.2461Z" fill="black" fill-opacity="0.85"/>
  <path d="M20.4102 14.7656C20.4102 17.0898 22.0117 19.0625 24.1602 19.6484L24.1602 29.4336C24.1602 32.9102 24.7461 34.8438 25.4102 34.8438C26.0938 34.8438 26.6602 32.9492 26.6602 29.4336L26.6602 19.6484C28.8281 19.0625 30.4102 17.0898 30.4102 14.7656C30.4102 11.9922 28.2031 9.74609 25.4102 9.74609C22.6172 9.74609 20.4102 11.9922 20.4102 14.7656ZM23.9844 14.9219C23.1836 14.9219 22.4219 14.2188 22.4219 13.3398C22.4219 12.4609 23.1641 11.7773 23.9844 11.7773C24.8828 11.7773 25.5859 12.4609 25.5859 13.3398C25.5859 14.2188 24.8828 14.9219 23.9844 14.9219ZM25.4102 39.6289C33.4766 39.6289 38.4766 36.9141 38.4766 33.7305C38.4766 30.0977 32.5 27.9492 28.5547 27.9688L28.5547 30.0781C31.4648 30.0586 35.7812 31.4844 35.7812 33.4766C35.7812 35.7812 31.4258 37.4219 25.4102 37.4219C19.375 37.4219 15.0391 35.8008 15.0391 33.4766C15.0391 31.4844 19.375 30.0586 22.2656 30.0781L22.2656 27.9688C18.3398 27.9492 12.3633 30.0977 12.3633 33.7305C12.3633 36.9141 17.3633 39.6289 25.4102 39.6289Z" fill="black" fill-opacity="0.85"/>
 </g>
</svg>
