<?xml version="1.0" encoding="UTF-8"?>
<!--Generator: Apple Native CoreSVG 326-->
<!DOCTYPE svg
PUBLIC "-//W3C//DTD SVG 1.1//EN"
       "http://www.w3.org/Graphics/SVG/1.1/DTD/svg11.dtd">
<svg version="1.1" xmlns="http://www.w3.org/2000/svg" xmlns:xlink="http://www.w3.org/1999/xlink" viewBox="0 0 47.4023 62.2461">
 <g>
  <rect height="62.2461" opacity="0" width="47.4023" x="0" y="0"/>
  <path d="M47.0312 47.5781C47.0312 53.8477 37.2461 58.2227 23.5352 58.2227C9.80469 58.2227 0 53.8477 0 47.5781C0 42.3345 6.9013 38.4107 17.2461 37.2944L17.2461 40.4297C17.2461 40.5319 17.2466 40.6333 17.2523 40.7273C9.63191 41.6574 4.31641 44.284 4.31641 47.5781C4.31641 51.7383 12.7148 54.8242 23.5156 54.8242C34.2773 54.8242 42.7148 51.6992 42.7148 47.5781C42.7148 44.3116 37.3633 41.6645 29.74 40.728C29.7456 40.6338 29.7461 40.5321 29.7461 40.4297L29.7461 37.2871C40.1132 38.3933 47.0312 42.3229 47.0312 47.5781Z" fill="black" fill-opacity="0.85"/>
  <path d="M32.3438 13.1445C32.3438 17.3633 29.4141 20.8984 25.4688 21.7578L25.4688 39.6484C25.4688 46.0156 24.375 49.4141 23.5156 49.4141C22.6562 49.4141 21.543 45.9766 21.543 39.6484L21.543 21.7578C17.5781 20.8789 14.668 17.3633 14.668 13.1445C14.668 8.26172 18.5938 4.27734 23.5156 4.27734C28.418 4.27734 32.3438 8.26172 32.3438 13.1445ZM17.8906 10.5273C17.8906 12.168 19.3164 13.5742 20.918 13.5742C22.5781 13.5742 23.9453 12.168 23.9453 10.5273C23.9453 8.88672 22.5781 7.5 20.918 7.5C19.3164 7.5 17.8906 8.88672 17.8906 10.5273Z" fill="black" fill-opacity="0.85"/>
 </g>
</svg>
