<?xml version="1.0" encoding="UTF-8"?>
<!--Generator: Apple Native CoreSVG 326-->
<!DOCTYPE svg
PUBLIC "-//W3C//DTD SVG 1.1//EN"
       "http://www.w3.org/Graphics/SVG/1.1/DTD/svg11.dtd">
<svg version="1.1" xmlns="http://www.w3.org/2000/svg" xmlns:xlink="http://www.w3.org/1999/xlink" viewBox="0 0 18.0469 53.6914">
 <g>
  <rect height="53.6914" opacity="0" width="18.0469" x="0" y="0"/>
  <path d="M17.6758 8.86719C17.6758 13.0859 14.7461 16.6211 10.7812 17.4805L10.7812 42.5195C10.7812 48.8867 9.70703 52.2852 8.82812 52.2852C7.96875 52.2852 6.85547 48.8477 6.85547 42.5195L6.85547 17.4805C2.91016 16.6016 0 13.0859 0 8.86719C0 3.98438 3.92578 0 8.82812 0C13.75 0 17.6758 3.98438 17.6758 8.86719ZM3.22266 6.25C3.22266 7.89062 4.64844 9.29688 6.25 9.29688C7.91016 9.29688 9.27734 7.89062 9.27734 6.25C9.27734 4.60938 7.91016 3.22266 6.25 3.22266C4.64844 3.22266 3.22266 4.60938 3.22266 6.25Z" fill="black" fill-opacity="0.85"/>
 </g>
</svg>
