<?xml version="1.0" encoding="UTF-8"?>
<!--Generator: Apple Native CoreSVG 326-->
<!DOCTYPE svg
PUBLIC "-//W3C//DTD SVG 1.1//EN"
       "http://www.w3.org/Graphics/SVG/1.1/DTD/svg11.dtd">
<svg version="1.1" xmlns="http://www.w3.org/2000/svg" xmlns:xlink="http://www.w3.org/1999/xlink" viewBox="0 0 53.9062 43.1055">
 <g>
  <rect height="43.1055" opacity="0" width="53.9062" x="0" y="0"/>
  <path d="M7.59766 38.4766L45.918 38.4766C50.9766 38.4766 53.5352 35.918 53.5352 30.957L53.5352 12.207C53.5352 7.24609 50.9766 4.6875 45.918 4.6875L7.59766 4.6875C2.55859 4.6875 0 7.20703 0 12.207L0 30.957C0 35.957 2.55859 38.4766 7.59766 38.4766ZM8.78906 6.13281L12.2461 6.13281L12.2461 1.79688C12.2461 0.761719 11.543 0.0585938 10.5273 0.0585938C9.49219 0.0585938 8.78906 0.761719 8.78906 1.79688ZM16.9141 6.13281L20.3711 6.13281L20.3711 1.79688C20.3711 0.761719 19.668 0.0585938 18.6523 0.0585938C17.6172 0.0585938 16.9141 0.761719 16.9141 1.79688ZM25.0391 6.13281L28.4961 6.13281L28.4961 1.79688C28.4961 0.761719 27.793 0.0585938 26.7578 0.0585938C25.7422 0.0585938 25.0391 0.761719 25.0391 1.79688ZM33.1641 6.13281L36.6211 6.13281L36.6211 1.79688C36.6211 0.761719 35.918 0.0585938 34.8828 0.0585938C33.8672 0.0585938 33.1641 0.761719 33.1641 1.79688ZM41.2695 6.13281L44.7461 6.13281L44.7461 1.79688C44.7461 0.761719 44.0234 0.0585938 43.0078 0.0585938C41.9727 0.0585938 41.2695 0.761719 41.2695 1.79688ZM8.78906 37.1484L8.78906 41.3672C8.78906 42.3828 9.49219 43.1055 10.5273 43.1055C11.543 43.1055 12.2461 42.3828 12.2461 41.3672L12.2461 37.1484ZM16.9141 37.1484L16.9141 41.3672C16.9141 42.3828 17.6172 43.1055 18.6523 43.1055C19.668 43.1055 20.3711 42.3828 20.3711 41.3672L20.3711 37.1484ZM25.0391 37.1484L25.0391 41.3672C25.0391 42.3828 25.7422 43.1055 26.7578 43.1055C27.793 43.1055 28.4961 42.3828 28.4961 41.3672L28.4961 37.1484ZM33.1641 37.1484L33.1641 41.3672C33.1641 42.3828 33.8672 43.1055 34.8828 43.1055C35.918 43.1055 36.6211 42.3828 36.6211 41.3672L36.6211 37.1484ZM41.2695 37.1484L41.2695 41.3672C41.2695 42.3828 41.9727 43.1055 43.0078 43.1055C44.0234 43.1055 44.7461 42.3828 44.7461 41.3672L44.7461 37.1484Z" fill="black" fill-opacity="0.85"/>
 </g>
</svg>
