<?xml version="1.0" encoding="UTF-8"?>
<!--Generator: Apple Native CoreSVG 326-->
<!DOCTYPE svg
PUBLIC "-//W3C//DTD SVG 1.1//EN"
       "http://www.w3.org/Graphics/SVG/1.1/DTD/svg11.dtd">
<svg version="1.1" xmlns="http://www.w3.org/2000/svg" xmlns:xlink="http://www.w3.org/1999/xlink" viewBox="0 0 47.7442 57.3242">
 <g>
  <rect height="57.3242" opacity="0" width="47.7442" x="0" y="0"/>
  <path d="M9.35063 21.582L9.35063 26.4648C9.35063 34.9805 14.9952 40.7422 23.6866 40.7422C26.5249 40.7422 29.0382 40.1277 31.1282 38.9939L33.4283 41.2916C31.1262 42.6714 28.3882 43.5247 25.3272 43.75L25.3272 50.2539L34.9561 50.2539C35.8545 50.2539 36.5772 50.9766 36.5772 51.875C36.5772 52.7734 35.8545 53.5156 34.9561 53.5156L12.4366 53.5156C11.5186 53.5156 10.7959 52.7734 10.7959 51.875C10.7959 50.9766 11.5186 50.2539 12.4366 50.2539L22.0655 50.2539L22.0655 43.75C12.4952 43.0469 6.08891 36.2305 6.08891 26.582L6.08891 21.582C6.08891 20.6836 6.81157 19.9609 7.71 19.9609C8.62797 19.9609 9.35063 20.6836 9.35063 21.582ZM18.1142 25.9931C18.2479 29.5805 20.4194 31.9727 23.6866 31.9727C23.821 31.9727 23.9536 31.9686 24.081 31.9538L26.7833 34.6534C25.8429 34.9973 24.8028 35.1758 23.6866 35.1758C18.4131 35.1758 14.8389 31.1914 14.8389 25.625L14.8389 22.7211ZM41.2842 21.582L41.2842 26.582C41.2842 29.6684 40.6287 32.465 39.4179 34.8596L36.9555 32.3997C37.654 30.6369 38.0225 28.6408 38.0225 26.4648L38.0225 21.582C38.0225 20.6836 38.7452 19.9609 39.6631 19.9609C40.5616 19.9609 41.2842 20.6836 41.2842 21.582ZM32.5342 9.55078L32.5342 25.625C32.5342 26.3774 32.4689 27.101 32.3377 27.7865L29.2725 24.7245L29.2725 9.55078C29.2725 5.76172 27.0655 3.20312 23.6866 3.20312C20.3077 3.20312 18.1006 5.76172 18.1006 9.55078L18.1006 13.564L14.8389 10.3056L14.8389 9.55078C14.8389 3.98438 18.4131 0 23.6866 0C28.96 0 32.5342 3.98438 32.5342 9.55078Z" fill="black" fill-opacity="0.85"/>
  <path d="M42.1827 46.1719C42.8272 46.8164 43.9014 46.8164 44.5264 46.1719C45.1709 45.5078 45.1905 44.4727 44.5264 43.8086L6.08891 5.41016C5.44438 4.76562 4.37016 4.74609 3.7061 5.41016C3.0811 6.03516 3.0811 7.12891 3.7061 7.75391Z" fill="black" fill-opacity="0.85"/>
 </g>
</svg>
