<?xml version="1.0" encoding="UTF-8"?>
<!--Generator: Apple Native CoreSVG 326-->
<!DOCTYPE svg
PUBLIC "-//W3C//DTD SVG 1.1//EN"
       "http://www.w3.org/Graphics/SVG/1.1/DTD/svg11.dtd">
<svg version="1.1" xmlns="http://www.w3.org/2000/svg" xmlns:xlink="http://www.w3.org/1999/xlink" viewBox="0 0 51.25 50.918">
 <g>
  <rect height="50.918" opacity="0" width="51.25" x="0" y="0"/>
  <path d="M50.8789 25.4492C50.8789 39.4531 39.4531 50.8789 25.4297 50.8789C11.4258 50.8789 0 39.4531 0 25.4492C0 11.4258 11.4258 0 25.4297 0C39.4531 0 50.8789 11.4258 50.8789 25.4492ZM23.75 38.7109C23.75 39.6875 24.4922 40.4297 25.4688 40.4297C26.4648 40.4297 27.1875 39.6875 27.1875 38.7109C27.1875 37.6953 26.4648 36.9727 25.4688 36.9727C24.4922 36.9727 23.75 37.6953 23.75 38.7109ZM30.3711 36.9336C30.3711 37.9102 31.1133 38.6523 32.1289 38.6523C33.1055 38.6523 33.8477 37.9102 33.8477 36.9336C33.8477 35.9375 33.1055 35.1953 32.1289 35.1953C31.1133 35.1953 30.3711 35.9375 30.3711 36.9336ZM17.1094 36.9336C17.1094 37.9102 17.832 38.6523 18.8281 38.6523C19.8242 38.6523 20.5664 37.9102 20.5664 36.9336C20.5664 35.9375 19.8242 35.1953 18.8281 35.1953C17.832 35.1953 17.1094 35.9375 17.1094 36.9336ZM16.4062 25.4492C16.4062 30.4492 20.4688 34.5117 25.4492 34.5117C30.4492 34.5117 34.5117 30.4492 34.5117 25.4492C34.5117 20.4688 30.4492 16.4062 25.4492 16.4062C20.4688 16.4062 16.4062 20.4688 16.4062 25.4492ZM35.2344 32.0703C35.2344 33.0469 35.9766 33.7891 36.9727 33.7891C37.9688 33.7891 38.6914 33.0469 38.6914 32.0703C38.6914 31.0547 37.9688 30.332 36.9727 30.332C35.9766 30.332 35.2344 31.0547 35.2344 32.0703ZM12.2461 32.0703C12.2461 33.0469 12.9883 33.7891 13.9648 33.7891C14.9805 33.7891 15.7031 33.0469 15.7031 32.0703C15.7031 31.0547 14.9805 30.332 13.9648 30.332C12.9883 30.332 12.2461 31.0547 12.2461 32.0703ZM37.0117 25.4492C37.0117 26.4258 37.7539 27.168 38.75 27.168C39.7266 27.168 40.4688 26.4258 40.4688 25.4492C40.4688 24.4531 39.7266 23.7305 38.75 23.7305C37.7539 23.7305 37.0117 24.4531 37.0117 25.4492ZM10.4688 25.4492C10.4688 26.4258 11.2109 27.168 12.1875 27.168C13.2031 27.168 13.9453 26.4258 13.9453 25.4492C13.9453 24.4531 13.2031 23.7305 12.1875 23.7305C11.2109 23.7305 10.4688 24.4531 10.4688 25.4492ZM35.2344 18.8281C35.2344 19.8242 35.9766 20.5664 36.9727 20.5664C37.9688 20.5664 38.6914 19.8242 38.6914 18.8281C38.6914 17.832 37.9688 17.0898 36.9727 17.0898C35.9766 17.0898 35.2344 17.832 35.2344 18.8281ZM12.2461 18.8281C12.2461 19.8242 12.9883 20.5664 13.9648 20.5664C14.9805 20.5664 15.7031 19.8242 15.7031 18.8281C15.7031 17.832 14.9805 17.0898 13.9648 17.0898C12.9883 17.0898 12.2461 17.832 12.2461 18.8281ZM30.3711 13.9453C30.3711 14.9609 31.1133 15.6836 32.1289 15.6836C33.1055 15.6836 33.8477 14.9609 33.8477 13.9453C33.8477 12.9688 33.1055 12.2266 32.1289 12.2266C31.1133 12.2266 30.3711 12.9688 30.3711 13.9453ZM17.1094 13.9453C17.1094 14.9609 17.832 15.6836 18.8281 15.6836C19.8242 15.6836 20.5664 14.9609 20.5664 13.9453C20.5664 12.9688 19.8242 12.2266 18.8281 12.2266C17.832 12.2266 17.1094 12.9688 17.1094 13.9453ZM23.75 12.168C23.75 13.1836 24.4922 13.9258 25.4688 13.9258C26.4648 13.9258 27.1875 13.1836 27.1875 12.168C27.1875 11.1914 26.4648 10.4492 25.4688 10.4492C24.4922 10.4492 23.75 11.1914 23.75 12.168Z" fill="black" fill-opacity="0.85"/>
 </g>
</svg>
