<?xml version="1.0" encoding="UTF-8"?>
<!--Generator: Apple Native CoreSVG 326-->
<!DOCTYPE svg
PUBLIC "-//W3C//DTD SVG 1.1//EN"
       "http://www.w3.org/Graphics/SVG/1.1/DTD/svg11.dtd">
<svg version="1.1" xmlns="http://www.w3.org/2000/svg" xmlns:xlink="http://www.w3.org/1999/xlink" viewBox="0 0 47.7442 56.9336">
 <g>
  <rect height="56.9336" opacity="0" width="47.7442" x="0" y="0"/>
  <path d="M9.35063 21.3867L9.35063 26.2695C9.35063 34.7852 14.9952 40.5469 23.6866 40.5469C26.5249 40.5469 29.0382 39.9324 31.1282 38.7986L33.4283 41.0963C31.1262 42.476 28.3882 43.3293 25.3272 43.5547L25.3272 50.0586L34.9561 50.0586C35.8545 50.0586 36.5772 50.7812 36.5772 51.6797C36.5772 52.5781 35.8545 53.3203 34.9561 53.3203L12.4366 53.3203C11.5186 53.3203 10.7959 52.5781 10.7959 51.6797C10.7959 50.7812 11.5186 50.0586 12.4366 50.0586L22.0655 50.0586L22.0655 43.5547C12.4952 42.8516 6.08891 36.0352 6.08891 26.3867L6.08891 21.3867C6.08891 20.4883 6.81157 19.7656 7.71 19.7656C8.62797 19.7656 9.35063 20.4883 9.35063 21.3867ZM26.6142 34.2891C25.7292 34.6159 24.7462 34.7852 23.6866 34.7852C18.7256 34.7852 15.4444 31.0742 15.4444 25.8203L15.4444 23.1307ZM41.2842 21.3867L41.2842 26.3867C41.2842 29.4731 40.6287 32.2697 39.4179 34.6643L36.9555 32.2044C37.654 30.4416 38.0225 28.4455 38.0225 26.2695L38.0225 21.3867C38.0225 20.4883 38.7452 19.7656 39.6631 19.7656C40.5616 19.7656 41.2842 20.4883 41.2842 21.3867ZM31.9288 8.96484L31.9288 25.8203C31.9288 26.2617 31.9056 26.6922 31.8519 27.106L15.4444 10.7151L15.4444 8.96484C15.4444 3.73047 18.7256 0 23.6866 0C28.6475 0 31.9288 3.73047 31.9288 8.96484Z" fill="black" fill-opacity="0.85"/>
  <path d="M42.1827 45.9766C42.8272 46.6211 43.9014 46.6211 44.5264 45.9766C45.1709 45.3125 45.1905 44.2773 44.5264 43.6133L6.08891 5.21484C5.44438 4.57031 4.37016 4.55078 3.7061 5.21484C3.0811 5.83984 3.0811 6.93359 3.7061 7.55859Z" fill="black" fill-opacity="0.85"/>
 </g>
</svg>
