<?xml version="1.0" encoding="UTF-8"?>
<!--Generator: Apple Native CoreSVG 326-->
<!DOCTYPE svg
PUBLIC "-//W3C//DTD SVG 1.1//EN"
       "http://www.w3.org/Graphics/SVG/1.1/DTD/svg11.dtd">
<svg version="1.1" xmlns="http://www.w3.org/2000/svg" xmlns:xlink="http://www.w3.org/1999/xlink" viewBox="0 0 55.5273 53.1055">
 <g>
  <rect height="53.1055" opacity="0" width="55.5273" x="0" y="0"/>
  <path d="M3.06641 47.6758L52.0898 47.6758L52.0898 46.1719C52.0898 45.332 51.582 44.8242 50.7227 44.8242L49.1211 44.8242L49.1211 16.6797L51.3867 16.6797C52.5781 16.6797 53.2422 15.8398 53.2422 14.9609C53.2422 14.3164 52.8906 13.75 52.1094 13.3008L30.5273 0.839844C29.5703 0.292969 28.5547 0 27.5781 0C26.6016 0 25.5664 0.292969 24.6289 0.839844L3.04688 13.3008C2.24609 13.75 1.91406 14.3164 1.91406 14.9609C1.91406 15.8398 2.57812 16.6797 3.76953 16.6797L6.05469 16.6797L6.05469 44.8242L4.45312 44.8242C3.57422 44.8242 3.06641 45.332 3.06641 46.1719ZM9.31641 44.8242L9.31641 13.7109L26.4453 4.0625C26.7773 3.86719 27.1875 3.75 27.5781 3.75C27.9492 3.75 28.3398 3.86719 28.7109 4.0625L45.8594 13.7109L45.8594 44.8242ZM1.73828 53.0664L53.418 53.0664C54.375 53.0664 55.1562 52.2852 55.1562 51.3477C55.1562 50.3906 54.375 49.6094 53.418 49.6094L1.73828 49.6094C0.78125 49.6094 0 50.3906 0 51.3477C0 52.2852 0.78125 53.0664 1.73828 53.0664Z" fill="black" fill-opacity="0.85"/>
  <path d="M19.6875 34.4531C20.4492 34.4531 20.8594 33.9453 20.8594 33.2617L20.8594 24.2383C20.8594 22.2266 21.8164 20.2539 23.8477 20.2539C25.6836 20.2539 26.4648 21.6797 26.4648 23.4766L26.4648 33.2617C26.4648 33.9648 26.9531 34.4531 27.6172 34.4531C28.3203 34.4531 28.8086 33.9648 28.8086 33.2617L28.8086 23.9844C28.8086 22.0703 29.7461 20.2539 31.7578 20.2539C33.6719 20.2539 34.4141 21.7383 34.4141 23.6719L34.4141 33.2617C34.4141 33.9648 34.8828 34.4531 35.5859 34.4531C36.2891 34.4531 36.7578 33.9648 36.7578 33.2617L36.7578 23.0859C36.7578 20.3125 35.3906 18.125 32.4414 18.125C30.2344 18.125 28.75 19.4922 28.3594 21.2109L28.2422 21.2109C27.8125 19.2383 26.5625 18.125 24.4922 18.125C22.5391 18.125 21.3086 19.375 20.8594 21.1914L20.7617 21.1914L20.7617 19.3555C20.7617 18.6328 20.332 18.1641 19.6289 18.1641C18.9453 18.1641 18.5156 18.6328 18.5156 19.3555L18.5156 33.2617C18.5156 33.9453 18.9258 34.4531 19.6875 34.4531ZM20.625 40.7422C21.0352 40.7422 21.2109 40.5469 21.3867 40.1367L32.832 13.1836C32.9102 13.0273 32.9492 12.8711 32.9492 12.7344C32.9492 12.3047 32.6367 12.0117 32.207 12.0117C31.8164 12.0117 31.6016 12.2852 31.4453 12.6367L19.9805 39.5898C19.9219 39.7266 19.8828 39.8828 19.8828 40.0391C19.8828 40.4688 20.1953 40.7422 20.625 40.7422Z" fill="black" fill-opacity="0.85"/>
 </g>
</svg>
