<?xml version="1.0" encoding="UTF-8"?>
<!--Generator: Apple Native CoreSVG 326-->
<!DOCTYPE svg
PUBLIC "-//W3C//DTD SVG 1.1//EN"
       "http://www.w3.org/Graphics/SVG/1.1/DTD/svg11.dtd">
<svg version="1.1" xmlns="http://www.w3.org/2000/svg" xmlns:xlink="http://www.w3.org/1999/xlink" viewBox="0 0 71.8945 71.5039">
 <g>
  <rect height="71.5039" opacity="0" width="71.8945" x="0" y="0"/>
  <path d="M71.5234 35.2734L71.5234 59.3555C71.5234 61.543 70.1562 62.793 67.832 62.793L17.7734 62.793C15.737 62.793 14.538 61.7554 14.4609 59.9414L67.2266 59.9414C68.1445 59.9414 68.6719 59.4531 68.6719 58.4961L68.6719 32.2475C70.4704 32.4006 71.5234 33.5027 71.5234 35.2734Z" fill="black" fill-opacity="0.85"/>
  <path d="M65.293 27.1875L65.293 53.1445C65.293 55.332 63.9258 56.5625 61.6016 56.5625L10.4297 56.5625C8.32031 56.5625 7.10938 55.4492 7.10938 53.5352L7.10938 53.4766L60.7422 53.4766C61.6602 53.4766 62.1875 52.9883 62.1875 52.0508L62.1875 24.1473C64.1406 24.2133 65.293 25.3163 65.293 27.1875Z" fill="black" fill-opacity="0.85"/>
  <path d="M7.59766 49.4531L50.5664 49.4531C56.2891 49.4531 58.1641 47.5977 58.1641 41.9336L58.1641 21.4258C58.1641 16.4453 55.5859 13.9062 50.5469 13.9062L49.4531 13.9062L49.4531 10.8984C49.4531 9.25781 48.5156 8.30078 46.8555 8.30078L41.6016 8.30078C39.9414 8.30078 39.0039 9.25781 39.0039 10.8984L39.0039 13.9062L19.043 13.9062L19.043 10.8984C19.043 9.25781 18.1055 8.30078 16.4453 8.30078L11.1914 8.30078C9.53125 8.30078 8.59375 9.25781 8.59375 10.8984L8.59375 13.9062L7.59766 13.9062C2.55859 13.9062 0 16.4453 0 21.4258L0 41.9336C0 46.9141 2.55859 49.4531 7.59766 49.4531ZM8.41797 33.0078C7.65625 33.0078 7.05078 32.3828 7.05078 31.6211C7.05078 30.8594 7.65625 30.2344 8.41797 30.2344L16.7773 30.2344C17.5195 30.2344 18.1445 30.8594 18.1445 31.6211C18.1445 32.3828 17.5195 33.0078 16.7773 33.0078ZM45.3516 37.5977C44.5898 37.5977 43.9844 36.9922 43.9844 36.1719L43.9844 33.0273L40.8008 33.0273C40.0195 33.0273 39.3945 32.4023 39.3945 31.6211C39.3945 30.8789 40.0195 30.2539 40.8008 30.2539L43.9844 30.2539L43.9844 27.0898C43.9844 26.2695 44.5898 25.6641 45.3516 25.6641C46.1523 25.6641 46.7578 26.2695 46.7578 27.0898L46.7578 30.2539L49.9219 30.2539C50.6836 30.2539 51.3086 30.8789 51.3086 31.6211C51.3086 32.4023 50.6836 33.0273 49.9219 33.0273L46.7578 33.0273L46.7578 36.1719C46.7578 36.9922 46.1523 37.5977 45.3516 37.5977ZM29.3164 27.5977C28.1836 27.5977 27.3633 26.7773 27.3047 25.6055L26.8555 2.46094C26.8164 0.976562 27.7734 0 29.3164 0C30.8203 0 31.8164 0.976562 31.7578 2.46094L31.2891 25.6055C31.25 26.7773 30.4492 27.5977 29.3164 27.5977ZM29.3164 38.5742C27.5586 38.5742 26.0938 37.1289 26.0938 35.4883C26.0938 33.7695 27.5195 32.4023 29.3164 32.4023C31.0742 32.4023 32.5195 33.7695 32.5195 35.4883C32.5195 37.1289 31.0547 38.5742 29.3164 38.5742Z" fill="black" fill-opacity="0.85"/>
 </g>
</svg>
