<?xml version="1.0" encoding="UTF-8"?>
<!--Generator: Apple Native CoreSVG 326-->
<!DOCTYPE svg
PUBLIC "-//W3C//DTD SVG 1.1//EN"
       "http://www.w3.org/Graphics/SVG/1.1/DTD/svg11.dtd">
<svg version="1.1" xmlns="http://www.w3.org/2000/svg" xmlns:xlink="http://www.w3.org/1999/xlink" viewBox="0 0 59.5508 42.7148">
 <g>
  <rect height="42.7148" opacity="0" width="59.5508" x="0" y="0"/>
  <path d="M7.59766 42.7148L51.5625 42.7148C56.6211 42.7148 59.1797 40.1758 59.1797 35.1953L59.1797 13.9844C59.1797 9.00391 56.6211 6.46484 51.5625 6.46484L48.3203 6.46484L48.3203 2.92969C48.3203 1.11328 47.2852 0.0195312 45.4102 0.0195312L40.2148 0.0195312C38.3594 0.0195312 37.3047 1.11328 37.3047 2.92969L37.3047 6.46484L21.8555 6.46484L21.8555 2.92969C21.8555 1.11328 20.8203 0.0195312 18.9453 0.0195312L13.75 0.0195312C11.8945 0.0195312 10.8398 1.11328 10.8398 2.92969L10.8398 6.46484L7.59766 6.46484C2.55859 6.46484 0 8.98438 0 13.9844L0 35.1953C0 40.1953 2.55859 42.7148 7.59766 42.7148ZM3.45703 35.0195L3.45703 14.1602C3.45703 11.3672 4.94141 9.92188 7.67578 9.92188L51.5039 9.92188C54.1797 9.92188 55.7031 11.3672 55.7031 14.1602L55.7031 35.0195C55.7031 37.8125 54.1797 39.2578 51.5039 39.2578L7.67578 39.2578C4.94141 39.2578 3.45703 37.8125 3.45703 35.0195Z" fill="black" fill-opacity="0.85"/>
  <path d="M12.6562 26.1523L23.4375 26.1523C24.3164 26.1523 25.0195 25.4492 25.0195 24.5508C25.0195 23.6719 24.3164 22.9688 23.4375 22.9688L12.6562 22.9688C11.7773 22.9688 11.0742 23.6719 11.0742 24.5508C11.0742 25.4492 11.7773 26.1523 12.6562 26.1523ZM41.0938 31.9336C41.9727 31.9336 42.6758 31.2305 42.6758 30.332L42.6758 26.1523L46.875 26.1523C47.7539 26.1523 48.457 25.4492 48.457 24.5508C48.457 23.6719 47.7539 22.9688 46.875 22.9688L42.6758 22.9688L42.6758 18.7695C42.6758 17.8906 41.9727 17.1875 41.0938 17.1875C40.1953 17.1875 39.4922 17.8906 39.4922 18.7695L39.4922 22.9688L35.3125 22.9688C34.4141 22.9688 33.7109 23.6719 33.7109 24.5508C33.7109 25.4492 34.4141 26.1523 35.3125 26.1523L39.4922 26.1523L39.4922 30.332C39.4922 31.2305 40.1953 31.9336 41.0938 31.9336Z" fill="black" fill-opacity="0.85"/>
 </g>
</svg>
