<?xml version="1.0" encoding="UTF-8"?>
<!--Generator: Apple Native CoreSVG 326-->
<!DOCTYPE svg
PUBLIC "-//W3C//DTD SVG 1.1//EN"
       "http://www.w3.org/Graphics/SVG/1.1/DTD/svg11.dtd">
<svg version="1.1" xmlns="http://www.w3.org/2000/svg" xmlns:xlink="http://www.w3.org/1999/xlink" viewBox="0 0 59.5508 56.1329">
 <g>
  <rect height="56.1329" opacity="0" width="59.5508" x="0" y="0"/>
  <path d="M11.3552 16.6309L7.67578 16.6309C4.94141 16.6309 3.45703 18.0762 3.45703 20.8692L3.45703 41.7286C3.45703 44.5215 4.94141 45.9668 7.67578 45.9668L40.7153 45.9668L44.1752 49.4239L7.59766 49.4239C2.55859 49.4239 0 46.9043 0 41.9043L0 20.6934C0 15.6934 2.55859 13.1739 7.59766 13.1739L7.89527 13.1739ZM21.8555 9.63871L21.8555 13.1739L37.3047 13.1739L37.3047 9.63871C37.3047 7.82231 38.3594 6.72856 40.2148 6.72856L45.4102 6.72856C47.2852 6.72856 48.3203 7.82231 48.3203 9.63871L48.3203 13.1739L51.5625 13.1739C56.6211 13.1739 59.1797 15.7129 59.1797 20.6934L59.1797 41.9043C59.1797 45.2398 58.0321 47.4803 55.7486 48.5904L52.9533 45.7952C54.7234 45.3414 55.7031 43.9683 55.7031 41.7286L55.7031 20.8692C55.7031 18.0762 54.1797 16.6309 51.5039 16.6309L23.7891 16.6309L13.8867 6.72856L18.9453 6.72856C20.8203 6.72856 21.8555 7.82231 21.8555 9.63871ZM42.6758 25.4786L42.6758 29.6778L46.875 29.6778C47.7539 29.6778 48.457 30.3809 48.457 31.2598C48.457 32.1582 47.7539 32.8614 46.875 32.8614L42.6758 32.8614L42.6758 35.5176L36.8359 29.6778L39.4922 29.6778L39.4922 25.4786C39.4922 24.5997 40.1953 23.8965 41.0938 23.8965C41.9727 23.8965 42.6758 24.5997 42.6758 25.4786ZM25.0195 31.2598C25.0195 32.1582 24.3164 32.8614 23.4375 32.8614L12.6562 32.8614C11.7773 32.8614 11.0742 32.1582 11.0742 31.2598C11.0742 30.3809 11.7773 29.6778 12.6562 29.6778L23.4375 29.6778C24.3164 29.6778 25.0195 30.3809 25.0195 31.2598Z" fill="black" fill-opacity="0.85"/>
  <path d="M51.5234 52.92C52.168 53.5645 53.2422 53.584 53.8867 52.92C54.5312 52.2559 54.5312 51.2207 53.8867 50.5567L6.5625 3.27153C5.9375 2.62699 4.86328 2.60746 4.19922 3.27153C3.55469 3.89653 3.55469 4.99028 4.19922 5.63481Z" fill="black" fill-opacity="0.85"/>
 </g>
</svg>
