<?xml version="1.0" encoding="UTF-8"?>
<!--Generator: Apple Native CoreSVG 326-->
<!DOCTYPE svg
PUBLIC "-//W3C//DTD SVG 1.1//EN"
       "http://www.w3.org/Graphics/SVG/1.1/DTD/svg11.dtd">
<svg version="1.1" xmlns="http://www.w3.org/2000/svg" xmlns:xlink="http://www.w3.org/1999/xlink" viewBox="0 0 59.5508 56.1329">
 <g>
  <rect height="56.1329" opacity="0" width="59.5508" x="0" y="0"/>
  <path d="M44.1752 49.4239L7.59766 49.4239C2.55859 49.4239 0 46.9043 0 41.9043L0 20.6934C0 15.6934 2.55859 13.1739 7.59766 13.1739L7.89527 13.1739ZM21.8555 9.63871L21.8555 13.1739L37.3047 13.1739L37.3047 9.63871C37.3047 7.82231 38.3594 6.72856 40.2148 6.72856L45.4102 6.72856C47.2852 6.72856 48.3203 7.82231 48.3203 9.63871L48.3203 13.1739L51.5625 13.1739C56.6211 13.1739 59.1797 15.7129 59.1797 20.6934L59.1797 41.9043C59.1797 45.2398 58.0321 47.4803 55.7486 48.5904L43.0273 35.8692L43.0273 32.92L47.2852 32.92C48.2031 32.92 48.9258 32.1973 48.9258 31.2598C48.9258 30.3418 48.2031 29.6192 47.2852 29.6192L43.0273 29.6192L43.0273 25.3418C43.0273 24.4043 42.3047 23.6817 41.3672 23.6817C40.4688 23.6817 39.7266 24.4043 39.7266 25.3418L39.7266 29.6192L36.7773 29.6192L13.8867 6.72856L18.9453 6.72856C20.8203 6.72856 21.8555 7.82231 21.8555 9.63871ZM12.2461 29.6192C11.3281 29.6192 10.5859 30.3418 10.5859 31.2598C10.5859 32.1973 11.3281 32.92 12.2461 32.92L23.2617 32.92C24.1797 32.92 24.9023 32.1973 24.9023 31.2598C24.9023 30.3418 24.1797 29.6192 23.2617 29.6192Z" fill="black" fill-opacity="0.85"/>
  <path d="M51.5234 52.92C52.168 53.5645 53.2422 53.584 53.8867 52.92C54.5312 52.2559 54.5312 51.2207 53.8867 50.5567L6.5625 3.27153C5.9375 2.62699 4.86328 2.60746 4.19922 3.27153C3.55469 3.89653 3.55469 4.99028 4.19922 5.63481Z" fill="black" fill-opacity="0.85"/>
 </g>
</svg>
