<?xml version="1.0" encoding="UTF-8"?>
<!--Generator: Apple Native CoreSVG 326-->
<!DOCTYPE svg
PUBLIC "-//W3C//DTD SVG 1.1//EN"
       "http://www.w3.org/Graphics/SVG/1.1/DTD/svg11.dtd">
<svg version="1.1" xmlns="http://www.w3.org/2000/svg" xmlns:xlink="http://www.w3.org/1999/xlink" viewBox="0 0 42.3047 53.8477">
 <g>
  <rect height="53.8477" opacity="0" width="42.3047" x="0" y="0"/>
  <path d="M41.9336 7.61719L41.9336 46.25C41.9336 51.2891 39.4141 53.8477 34.4141 53.8477L7.51953 53.8477C2.51953 53.8477 0 51.2891 0 46.25L0 7.61719C0 2.57812 2.51953 0.0195312 7.51953 0.0195312L34.4141 0.0195312C39.4141 0.0195312 41.9336 2.57812 41.9336 7.61719ZM10.4297 25.0977C9.16016 25.0977 8.33984 25.8008 8.33984 26.9922C8.33984 28.1445 9.19922 28.8281 10.4297 28.8281L31.543 28.8281C32.7734 28.8281 33.6328 28.1445 33.6328 26.9922C33.6328 25.8008 32.832 25.0977 31.543 25.0977Z" fill="black" fill-opacity="0.85"/>
 </g>
</svg>
