<?xml version="1.0" encoding="UTF-8"?>
<!--Generator: Apple Native CoreSVG 326-->
<!DOCTYPE svg
PUBLIC "-//W3C//DTD SVG 1.1//EN"
       "http://www.w3.org/Graphics/SVG/1.1/DTD/svg11.dtd">
<svg version="1.1" xmlns="http://www.w3.org/2000/svg" xmlns:xlink="http://www.w3.org/1999/xlink" viewBox="0 0 70.3516 38.5352">
 <g>
  <rect height="38.5352" opacity="0" width="70.3516" x="0" y="0"/>
  <path d="M58.2422 9.45312L57.4414 17.1094C57.2266 19.1602 58.3008 20.1367 60.5273 20.1367L67.3438 20.1367C68.8867 20.1367 69.9805 21.25 69.9805 22.793L69.9805 35.1367C69.9805 37.5195 68.1836 38.4766 65.8398 37.8711C62.4609 37.0508 59.1211 36.6406 55.1758 36.6406L16.7773 36.6406C6.11328 36.6406 0 31.0938 0 20.6641C0 9.49219 6.36719 2.73438 18.0859 1.26953C26.2109 0.292969 40.7422 0.0195312 48.9844 0C55.4688 0 58.8477 3.57422 58.2422 9.45312ZM18.3594 4.74609C8.63281 5.91797 3.45703 11.4648 3.45703 20.6641C3.45703 28.8281 8.33984 33.1836 16.7188 33.1836L45.5078 33.1836C50.332 33.1836 52.2852 31.543 52.793 27.1094L54.8242 9.04297C55.2344 5.37109 53.3398 3.45703 48.9844 3.45703C40.7422 3.45703 26.4062 3.80859 18.3594 4.74609Z" fill="black" fill-opacity="0.85"/>
 </g>
</svg>
