<?xml version="1.0" encoding="UTF-8"?>
<!--Generator: Apple Native CoreSVG 326-->
<!DOCTYPE svg
PUBLIC "-//W3C//DTD SVG 1.1//EN"
       "http://www.w3.org/Graphics/SVG/1.1/DTD/svg11.dtd">
<svg version="1.1" xmlns="http://www.w3.org/2000/svg" xmlns:xlink="http://www.w3.org/1999/xlink" viewBox="0 0 84.8633 38.5352">
 <g>
  <rect height="38.5352" opacity="0" width="84.8633" x="0" y="0"/>
  <path d="M57.1875 1.26953C66.7135 2.46227 72.7044 7.16422 74.5995 14.9023L70.9666 14.9023C69.1685 9.13976 64.3787 5.6478 56.8945 4.74609C48.8477 3.80859 34.5117 3.45703 26.2695 3.45703C21.9336 3.45703 20.0195 5.37109 20.4297 9.04297L22.4805 27.1094C22.9688 31.543 24.9219 33.1836 29.7461 33.1836L58.5352 33.1836C65.2217 33.1836 69.7873 30.2271 71.2715 24.8242L74.8505 24.8242C73.3492 32.4697 67.4627 36.6406 58.4766 36.6406L20.0781 36.6406C16.1523 36.6406 12.793 37.0508 9.41406 37.8711C7.07031 38.4766 5.27344 37.5195 5.27344 35.1367L5.27344 22.793C5.27344 21.25 6.36719 20.1367 7.91016 20.1367L14.7266 20.1367C16.9531 20.1367 18.0273 19.1602 17.8125 17.1094L17.0117 9.45312C16.4258 3.57422 19.7852 0 26.2695 0C34.5117 0.0195312 49.043 0.292969 57.1875 1.26953Z" fill="black" fill-opacity="0.85"/>
  <path d="M82.9883 14.2578L82.9883 10.8789C82.9883 9.84375 82.1289 8.98438 81.0938 8.98438C80.0586 8.98438 79.1992 9.84375 79.1992 10.8789L79.1992 14.2578C79.1992 16.6211 77.6953 18.0078 75.1367 18.0078L62.2461 18.0078L62.2461 15.2148C62.2461 13.6914 61.1523 13.1445 59.8633 14.0234L53.1641 18.5938C52.1094 19.2969 52.1094 20.5469 53.1641 21.2695L59.9023 25.8203C61.1523 26.6602 62.2461 26.1328 62.2461 24.6289L62.2461 21.7188L75.1367 21.7188C80.0781 21.7188 82.9883 18.9453 82.9883 14.2578Z" fill="black" fill-opacity="0.85"/>
 </g>
</svg>
