<?xml version="1.0" encoding="UTF-8"?>
<!--Generator: Apple Native CoreSVG 326-->
<!DOCTYPE svg
PUBLIC "-//W3C//DTD SVG 1.1//EN"
       "http://www.w3.org/Graphics/SVG/1.1/DTD/svg11.dtd">
<svg version="1.1" xmlns="http://www.w3.org/2000/svg" xmlns:xlink="http://www.w3.org/1999/xlink" viewBox="0 0 51.25 50.918">
 <g>
  <rect height="50.918" opacity="0" width="51.25" x="0" y="0"/>
  <path d="M25.4297 50.8789C39.4531 50.8789 50.8789 39.4531 50.8789 25.4492C50.8789 11.4258 39.4531 0 25.4297 0C11.4258 0 0 11.4258 0 25.4492C0 39.4531 11.4258 50.8789 25.4297 50.8789Z" fill="black" fill-opacity="0.2125"/>
  <path d="M16.0547 25.4688C16.0547 15.8594 20.7617 7.85156 28.418 3.88672C39.0625 5.3125 47.207 14.3945 47.2266 25.4492C47.2461 36.5625 38.9844 45.6836 28.2617 47.0312C20.7031 43.1055 16.0547 35.1367 16.0547 25.4688ZM25.4297 50.8789C39.4531 50.8789 50.8789 39.4531 50.8789 25.4492C50.8789 11.4258 39.4531 0 25.4297 0C11.4258 0 0 11.4258 0 25.4492C0 39.4531 11.4258 50.8789 25.4297 50.8789Z" fill="black" fill-opacity="0.85"/>
 </g>
</svg>
