<?xml version="1.0" encoding="UTF-8"?>
<!--Generator: Apple Native CoreSVG 326-->
<!DOCTYPE svg
PUBLIC "-//W3C//DTD SVG 1.1//EN"
       "http://www.w3.org/Graphics/SVG/1.1/DTD/svg11.dtd">
<svg version="1.1" xmlns="http://www.w3.org/2000/svg" xmlns:xlink="http://www.w3.org/1999/xlink" viewBox="0 0 71.1914 59.3555">
 <g>
  <rect height="59.3555" opacity="0" width="71.1914" x="0" y="0"/>
  <path d="M28.2812 18.7891C27.5 20.4688 26.9727 23.3789 26.9727 26.1133C26.9727 37.1289 33.3203 43.4961 44.3359 43.4961C47.0703 43.4961 49.9609 42.9297 51.6602 42.1875C53.418 41.4062 54.8438 42.7734 54.1016 44.5703C53.3466 46.3133 52.3369 47.9218 51.1099 49.3555L18.1473 49.3555C15.3008 45.8214 13.6523 41.2287 13.6523 36.0352C13.6523 27.1484 18.5742 19.5312 25.8984 16.3477C27.7539 15.5859 29.2383 16.7773 28.2812 18.7891Z" fill="black" fill-opacity="0.85"/>
  <path d="M4.98047 55.5078L65.8398 55.5078C66.8555 55.5078 67.7148 54.7461 67.7148 53.8086C67.7148 52.8516 66.8555 52.0898 65.8398 52.0898L4.98047 52.0898C3.96484 52.0898 3.125 52.8516 3.125 53.8086C3.125 54.7461 3.96484 55.5078 4.98047 55.5078Z" fill="black" fill-opacity="0.85"/>
  <path d="M48.3398 3.78906C47.3828 3.78906 46.582 4.62891 46.582 5.68359L46.582 18.75L46.8359 22.7344L44.9609 20.6055L41.3477 16.9727C41.0352 16.6406 40.6055 16.4648 40.1953 16.4648C39.3359 16.4648 38.6914 17.0703 38.6914 17.9297C38.6914 18.3984 38.8672 18.75 39.2578 19.1211L47.1484 26.6016C47.5977 26.9922 47.9297 27.1484 48.3398 27.1484C48.7305 27.1484 49.0625 26.9922 49.5117 26.6016L57.4023 19.1211C57.793 18.75 57.9688 18.3984 57.9688 17.9297C57.9688 17.0703 57.3242 16.4648 56.4648 16.4648C56.0547 16.4648 55.625 16.6406 55.3125 16.9727L51.8945 20.4102L49.8242 22.7344L50.0781 18.75L50.0781 5.68359C50.0781 4.62891 49.2773 3.78906 48.3398 3.78906Z" fill="black" fill-opacity="0.85"/>
 </g>
</svg>
