<?xml version="1.0" encoding="UTF-8"?>
<!--Generator: Apple Native CoreSVG 326-->
<!DOCTYPE svg
PUBLIC "-//W3C//DTD SVG 1.1//EN"
       "http://www.w3.org/Graphics/SVG/1.1/DTD/svg11.dtd">
<svg version="1.1" xmlns="http://www.w3.org/2000/svg" xmlns:xlink="http://www.w3.org/1999/xlink" viewBox="0 0 64.5912 60.6055">
 <g>
  <rect height="60.6055" opacity="0" width="64.5912" x="0" y="0"/>
  <path d="M1.58272 60.6055L4.37569 60.6055C5.5671 60.6055 6.15303 60.0391 6.5046 59.1602C10.6452 48.8867 14.8444 38.5742 19.0046 28.3008C19.2585 27.6562 18.9655 27.1094 18.3015 27.1094L16.9733 27.1094C16.3093 27.1094 15.8796 27.4219 15.6062 27.9883C10.4694 38.1445 5.37178 48.2812 0.235066 58.418C-0.311809 59.4531 0.078816 60.6055 1.58272 60.6055ZM59.8444 60.6055L62.6374 60.6055C64.1413 60.6055 64.5319 59.4531 63.9851 58.418C58.8679 48.2812 53.7507 38.1445 48.6335 27.9883C48.3405 27.4219 47.9108 27.1094 47.2468 27.1094L45.9187 27.1094C45.2546 27.1094 44.9616 27.6562 45.2155 28.3008C49.3757 38.5742 53.5554 48.8867 57.7155 59.1602C58.0671 60.0391 58.653 60.6055 59.8444 60.6055ZM31.6608 32.9688L32.5202 32.9688C33.321 32.9688 33.9265 32.3828 33.9265 31.5625C33.9265 30.5469 33.9265 29.5312 33.9265 28.5352C33.9265 27.7148 33.321 27.1094 32.5202 27.1094L31.6608 27.1094C30.8601 27.1094 30.2546 27.7148 30.2546 28.5352C30.2546 29.5312 30.2546 30.5469 30.2546 31.5625C30.2546 32.3828 30.8601 32.9688 31.6608 32.9688ZM31.6608 45.8594L32.5202 45.8594C33.321 45.8594 33.9265 45.2539 33.9265 44.4336C33.9265 42.793 33.9265 41.1328 33.9265 39.4922C33.9265 38.6914 33.321 38.0859 32.5202 38.0859L31.6608 38.0859C30.8601 38.0859 30.2546 38.6914 30.2546 39.4922C30.2546 41.1328 30.2546 42.793 30.2546 44.4336C30.2546 45.2539 30.8601 45.8594 31.6608 45.8594ZM31.6608 60.6055L32.5202 60.6055C33.321 60.6055 33.9265 60 33.9265 59.1797C33.9265 57.0117 33.9265 54.8633 33.9265 52.6953C33.9265 51.875 33.321 51.2695 32.5202 51.2695L31.6608 51.2695C30.8601 51.2695 30.2546 51.875 30.2546 52.6953C30.2546 54.8633 30.2546 57.0117 30.2546 59.1797C30.2546 60 30.8601 60.6055 31.6608 60.6055Z" fill="black" fill-opacity="0.85"/>
  <path d="M41.3483 20.1172C45.6648 20.1172 49.4733 17.5 50.7819 14.2383C50.9382 13.8477 50.8796 13.3008 50.4304 13.2617C50.2351 13.1641 50.0398 13.125 49.6687 13.2422C48.9851 13.457 47.7741 13.6914 46.5632 13.6914C41.153 13.6914 37.5007 10.1953 37.5007 4.6875C37.5007 3.45703 37.8327 1.93359 38.1843 1.03516C38.3601 0.605469 38.2233 0.078125 37.6179 0.078125C37.4616 0.078125 37.1882 0.15625 36.9148 0.292969C33.321 1.81641 30.9382 5.82031 30.9382 9.90234C30.9382 15.8594 35.5085 20.1172 41.3483 20.1172Z" fill="black" fill-opacity="0.85"/>
 </g>
</svg>
