<?xml version="1.0" encoding="UTF-8"?>
<!--Generator: Apple Native CoreSVG 326-->
<!DOCTYPE svg
PUBLIC "-//W3C//DTD SVG 1.1//EN"
       "http://www.w3.org/Graphics/SVG/1.1/DTD/svg11.dtd">
<svg version="1.1" xmlns="http://www.w3.org/2000/svg" xmlns:xlink="http://www.w3.org/1999/xlink" viewBox="0 0 68.9062 60.5273">
 <g>
  <rect height="60.5273" opacity="0" width="68.9062" x="0" y="0"/>
  <path d="M27.207 4.64844C27.6758 5.11719 27.6953 5.95703 27.2656 6.77734C26.5234 8.28125 26.0742 10.918 26.0742 13.4375C26.0742 23.2812 32.3242 29.4141 42.3047 29.4141C44.8242 29.4141 46.8359 29.043 48.5742 28.3789C49.375 28.0859 50.0781 28.1641 50.4688 28.5742C50.9375 29.0625 50.9961 29.8438 50.6055 30.7227C49.4749 33.2394 47.8439 35.4736 45.7436 37.2461L39.2946 37.2461C42.4776 35.9978 44.8908 33.9186 46.3281 32.0312C45.0781 32.3438 43.3594 32.5781 41.6797 32.5781C30.3906 32.5781 22.9297 25.2734 22.9297 14.1797C22.9297 12.1289 23.1836 10.1172 23.6719 8.63281C19.6289 11.7969 16.9531 16.6992 16.9531 22.2852C16.9531 29.1261 20.5925 34.898 26.7862 37.2461L20.2293 37.2461C15.92 33.6321 13.6914 28.1724 13.6914 22.5195C13.6914 14.3359 18.2617 7.34375 24.9805 4.43359C25.9375 4.02344 26.7188 4.14062 27.207 4.64844Z" fill="black" fill-opacity="0.85"/>
  <path d="M10.8789 48.3008C11.5625 48.3008 12.0898 47.7734 12.0898 47.0898C12.0898 46.3867 11.5625 45.8594 10.8789 45.8594C10.1953 45.8594 9.64844 46.3867 9.64844 47.0898C9.64844 47.7734 10.1953 48.3008 10.8789 48.3008ZM21.5234 48.3008C22.207 48.3008 22.7539 47.7734 22.7539 47.0898C22.7539 46.3867 22.207 45.8594 21.5234 45.8594C20.8398 45.8594 20.293 46.3867 20.293 47.0898C20.293 47.7734 20.8398 48.3008 21.5234 48.3008ZM32.168 48.3008C32.8516 48.3008 33.3984 47.7734 33.3984 47.0898C33.3984 46.3867 32.8516 45.8594 32.168 45.8594C31.4844 45.8594 30.957 46.3867 30.957 47.0898C30.957 47.7734 31.4844 48.3008 32.168 48.3008ZM42.8125 48.3008C43.4961 48.3008 44.043 47.7734 44.043 47.0898C44.043 46.3867 43.4961 45.8594 42.8125 45.8594C42.1289 45.8594 41.6016 46.3867 41.6016 47.0898C41.6016 47.7734 42.1289 48.3008 42.8125 48.3008ZM53.457 48.3008C54.1602 48.3008 54.6875 47.7734 54.6875 47.0898C54.6875 46.3867 54.1602 45.8594 53.457 45.8594C52.7734 45.8594 52.2461 46.3867 52.2461 47.0898C52.2461 47.7734 52.7734 48.3008 53.457 48.3008ZM7.65625 54.4141C8.33984 54.4141 8.88672 53.8867 8.88672 53.2031C8.88672 52.5 8.33984 51.9727 7.65625 51.9727C6.97266 51.9727 6.44531 52.5 6.44531 53.2031C6.44531 53.8867 6.97266 54.4141 7.65625 54.4141ZM18.3008 54.4141C18.9844 54.4141 19.5312 53.8867 19.5312 53.2031C19.5312 52.5 18.9844 51.9727 18.3008 51.9727C17.6172 51.9727 17.0898 52.5 17.0898 53.2031C17.0898 53.8867 17.6172 54.4141 18.3008 54.4141ZM28.9453 54.4141C29.6484 54.4141 30.1758 53.8867 30.1758 53.2031C30.1758 52.5 29.6484 51.9727 28.9453 51.9727C28.2617 51.9727 27.7344 52.5 27.7344 53.2031C27.7344 53.8867 28.2617 54.4141 28.9453 54.4141ZM39.6094 54.4141C40.293 54.4141 40.8203 53.8867 40.8203 53.2031C40.8203 52.5 40.293 51.9727 39.6094 51.9727C38.9258 51.9727 38.3789 52.5 38.3789 53.2031C38.3789 53.8867 38.9258 54.4141 39.6094 54.4141ZM50.2539 54.4141C50.9375 54.4141 51.4648 53.8867 51.4648 53.2031C51.4648 52.5 50.9375 51.9727 50.2539 51.9727C49.5703 51.9727 49.0234 52.5 49.0234 53.2031C49.0234 53.8867 49.5703 54.4141 50.2539 54.4141ZM60.8984 54.4141C61.582 54.4141 62.1094 53.8867 62.1094 53.2031C62.1094 52.5 61.582 51.9727 60.8984 51.9727C60.2148 51.9727 59.668 52.5 59.668 53.2031C59.668 53.8867 60.2148 54.4141 60.8984 54.4141ZM15.0977 60.5273C15.7812 60.5273 16.3086 60 16.3086 59.2969C16.3086 58.6133 15.7812 58.0859 15.0977 58.0859C14.4141 58.0859 13.8672 58.6133 13.8672 59.2969C13.8672 60 14.4141 60.5273 15.0977 60.5273ZM25.7422 60.5273C26.4258 60.5273 26.9531 60 26.9531 59.2969C26.9531 58.6133 26.4258 58.0859 25.7422 58.0859C25.0586 58.0859 24.5117 58.6133 24.5117 59.2969C24.5117 60 25.0586 60.5273 25.7422 60.5273ZM36.3867 60.5273C37.0703 60.5273 37.5977 60 37.5977 59.2969C37.5977 58.6133 37.0703 58.0859 36.3867 58.0859C35.7031 58.0859 35.1562 58.6133 35.1562 59.2969C35.1562 60 35.7031 60.5273 36.3867 60.5273ZM47.0312 60.5273C47.7148 60.5273 48.2617 60 48.2617 59.2969C48.2617 58.6133 47.7148 58.0859 47.0312 58.0859C46.3477 58.0859 45.8203 58.6133 45.8203 59.2969C45.8203 60 46.3477 60.5273 47.0312 60.5273ZM57.6758 60.5273C58.3594 60.5273 58.9062 60 58.9062 59.2969C58.9062 58.6133 58.3594 58.0859 57.6758 58.0859C56.9922 58.0859 56.4648 58.6133 56.4648 59.2969C56.4648 60 56.9922 60.5273 57.6758 60.5273ZM8.4375 40.0195L60 40.0195C60.7812 40.0195 61.4062 39.4141 61.4062 38.6328C61.4062 37.8516 60.7812 37.2461 60 37.2461L8.4375 37.2461C7.65625 37.2461 7.03125 37.8516 7.03125 38.6328C7.03125 39.4141 7.65625 40.0195 8.4375 40.0195Z" fill="black" fill-opacity="0.85"/>
 </g>
</svg>
