<?xml version="1.0" encoding="UTF-8"?>
<!--Generator: Apple Native CoreSVG 326-->
<!DOCTYPE svg
PUBLIC "-//W3C//DTD SVG 1.1//EN"
       "http://www.w3.org/Graphics/SVG/1.1/DTD/svg11.dtd">
<svg version="1.1" xmlns="http://www.w3.org/2000/svg" xmlns:xlink="http://www.w3.org/1999/xlink" viewBox="0 0 51.25 50.918">
 <g>
  <rect height="50.918" opacity="0" width="51.25" x="0" y="0"/>
  <path d="M50.8789 25.4688C50.8789 39.4922 39.4531 50.918 25.4297 50.918C11.4258 50.918 0 39.4922 0 25.4688C0 11.4648 11.4258 0.0390625 25.4297 0.0390625C39.4531 0.0390625 50.8789 11.4648 50.8789 25.4688ZM20.1367 12.4219C14.7656 14.6484 11.0352 19.9023 11.0352 25.9375C11.0352 34.0039 17.5781 40.5469 25.625 40.5469C31.7969 40.5469 36.8359 36.6797 38.8867 32.0117C39.0039 31.7383 39.0234 31.4648 39.0234 31.3477C39.0234 30.8594 38.6133 30.5078 38.2031 30.5078C38.0078 30.5078 37.7148 30.6055 37.3633 30.7031C36.2109 31.0156 34.6289 31.3672 32.8906 31.3672C25.2734 31.3672 20.3906 26.4062 20.3906 18.9453C20.3906 17.1875 20.8398 15.3516 21.4844 13.6523C21.5625 13.457 21.6211 13.2617 21.6211 13.0859C21.6211 12.5977 21.2695 12.2852 20.8008 12.2852C20.5859 12.2852 20.332 12.3438 20.1367 12.4219Z" fill="black" fill-opacity="0.85"/>
 </g>
</svg>
