<?xml version="1.0" encoding="UTF-8"?>
<!--Generator: Apple Native CoreSVG 326-->
<!DOCTYPE svg
PUBLIC "-//W3C//DTD SVG 1.1//EN"
       "http://www.w3.org/Graphics/SVG/1.1/DTD/svg11.dtd">
<svg version="1.1" xmlns="http://www.w3.org/2000/svg" xmlns:xlink="http://www.w3.org/1999/xlink" viewBox="0 0 51.25 50.918">
 <g>
  <rect height="50.918" opacity="0" width="51.25" x="0" y="0"/>
  <path d="M25.4297 50.8789C39.4531 50.8789 50.8789 39.4531 50.8789 25.4492C50.8789 11.4258 39.4531 0 25.4297 0C11.4258 0 0 11.4258 0 25.4492C0 39.4531 11.4258 50.8789 25.4297 50.8789Z" fill="black" fill-opacity="0.2125"/>
  <path d="M3.63281 25.4492C3.65234 13.3203 13.3203 3.65234 25.4492 3.65234C26.3867 3.65234 27.3047 3.71094 28.1836 3.84766C20.6055 7.91016 16.1523 15.7422 16.1523 25.4688C16.1523 35.1172 20.5664 42.9492 28.0859 47.0508C27.207 47.1875 26.3281 47.2461 25.4297 47.2461C13.3008 47.2461 3.61328 37.5781 3.63281 25.4492ZM25.4297 50.8789C39.4531 50.8789 50.8789 39.4531 50.8789 25.4492C50.8789 11.4258 39.4531 0 25.4297 0C11.4258 0 0 11.4258 0 25.4492C0 39.4531 11.4258 50.8789 25.4297 50.8789Z" fill="black" fill-opacity="0.85"/>
 </g>
</svg>
