<?xml version="1.0" encoding="UTF-8"?>
<!--Generator: Apple Native CoreSVG 326-->
<!DOCTYPE svg
PUBLIC "-//W3C//DTD SVG 1.1//EN"
       "http://www.w3.org/Graphics/SVG/1.1/DTD/svg11.dtd">
<svg version="1.1" xmlns="http://www.w3.org/2000/svg" xmlns:xlink="http://www.w3.org/1999/xlink" viewBox="0 0 51.25 50.918">
 <g>
  <rect height="50.918" opacity="0" width="51.25" x="0" y="0"/>
  <path d="M25.4297 50.8789C39.4727 50.8789 50.8789 39.4922 50.8789 25.4492C50.8789 11.4062 39.4727 0 25.4297 0C11.3867 0 0 11.4062 0 25.4492C0 39.4922 11.3867 50.8789 25.4297 50.8789ZM25.4297 47.2461C13.3789 47.2461 3.63281 37.5 3.63281 25.4492C3.63281 13.3984 13.3789 3.65234 25.4297 3.65234C37.4805 3.65234 47.2266 13.3984 47.2266 25.4492C47.2266 37.5 37.4805 47.2461 25.4297 47.2461Z" fill="black" fill-opacity="0.85"/>
  <path d="M31.4844 10.3906C30.8203 10.3906 30.3125 10.957 30.3125 11.6211L30.3125 17.4414L30.3711 18.4766L30.0586 18.1445L28.2422 16.3281C28.0078 16.1328 27.7148 15.9766 27.4219 15.9766C26.8164 15.9766 26.3672 16.4258 26.3672 17.0117C26.3672 17.3047 26.4648 17.5781 26.7773 17.8516L30.7031 21.582C30.957 21.8164 31.2109 21.9336 31.4844 21.9336C31.7578 21.9336 32.0117 21.8164 32.2656 21.582L36.2109 17.8516C36.5039 17.5586 36.6016 17.3047 36.6016 17.0117C36.6016 16.4258 36.1523 15.9766 35.5469 15.9766C35.293 15.9766 34.9414 16.0938 34.7461 16.3086L33.0469 18.0664L32.5977 18.5352L32.6562 17.4414L32.6562 11.6211C32.6562 10.957 32.1484 10.3906 31.4844 10.3906ZM11.7969 36.8945L39.0234 36.8945C39.668 36.8945 40.2344 36.4062 40.2344 35.7617C40.2344 35.0977 39.6875 34.5898 39.0234 34.5898L11.7969 34.5898C11.1523 34.5898 10.5859 35.0977 10.5859 35.7617C10.5859 36.4062 11.1719 36.8945 11.7969 36.8945ZM16.9922 32.8711L34.6484 32.8711C35.2539 32.207 35.7031 31.4258 36.0938 30.5859C36.3281 30.0781 36.2695 29.6484 35.9961 29.3359C35.7617 29.1406 35.3906 29.082 34.9023 29.2578C33.9062 29.6484 32.7148 29.8633 31.2695 29.8633C25.4102 29.8633 21.7578 26.2695 21.7578 20.5078C21.7578 19.0234 22.0117 17.5 22.4609 16.6016C22.7148 16.1328 22.6562 15.7031 22.4414 15.3906C22.1875 15.0781 21.6797 15.0195 21.1328 15.293C17.2461 16.9922 14.5898 21.0352 14.5898 25.8008C14.5898 28.5352 15.4688 30.9766 16.9922 32.8711Z" fill="black" fill-opacity="0.85"/>
 </g>
</svg>
