<?xml version="1.0" encoding="UTF-8"?>
<!--Generator: Apple Native CoreSVG 326-->
<!DOCTYPE svg
PUBLIC "-//W3C//DTD SVG 1.1//EN"
       "http://www.w3.org/Graphics/SVG/1.1/DTD/svg11.dtd">
<svg version="1.1" xmlns="http://www.w3.org/2000/svg" xmlns:xlink="http://www.w3.org/1999/xlink" viewBox="0 0 70.7714 50.4102">
 <g>
  <rect height="50.4102" opacity="0" width="70.7714" x="0" y="0"/>
  <path d="M16.2451 50.4102C23.2373 50.4102 28.9013 44.8438 29.0771 37.9102L25.6006 37.8906C25.4248 42.9102 21.2842 46.9141 16.2256 46.9141C11.1279 46.9141 7.00682 42.9297 6.83104 37.8906L3.33494 37.9102C3.53026 44.8633 9.21385 50.4102 16.2451 50.4102ZM2.35838 39.9023L45.8545 39.9023L45.8545 36.4258L31.3428 36.4258L31.3428 22.5391C31.3428 20.7812 30.581 20 28.8818 20L15.4053 20C4.3701 20-1.23537 28.8477 0.229475 38.3594C0.385725 39.375 0.913069 39.9023 2.35838 39.9023ZM14.9365 18.0273L29.7412 18.0273C30.6592 18.0273 31.4013 17.2852 31.4013 16.3477C31.4013 15.4492 30.6396 14.6875 29.7412 14.6875L14.9365 14.6875C14.0185 14.6875 13.2568 15.4492 13.2568 16.3477C13.2568 17.2852 13.999 18.0273 14.9365 18.0273ZM43.2373 38.2617L46.6943 38.2617L47.9053 31.7383L51.1279 28.2031L54.8779 26.0352L53.0615 17.207L52.9248 13.75L45.7178 13.75C44.0381 13.75 43.2373 14.6289 43.2373 16.3477ZM60.1318 17.1875C61.0107 17.2656 61.4013 16.5625 61.2451 15.7422L59.917 9.29688C59.7217 8.45703 59.0967 8.04688 58.3154 8.47656C57.6709 8.82812 57.1045 9.35547 56.6943 9.98047C55.249 12.0898 55.874 15.0781 58.0029 16.4453C58.5888 16.8359 59.3506 17.1289 60.1318 17.1875ZM57.5537 50.4102C64.6631 50.4102 70.4053 44.6484 70.4053 37.5391C70.4053 30.4102 64.6631 24.6289 57.5537 24.6289C50.4053 24.6289 44.6435 30.4102 44.6435 37.5391C44.6435 44.668 50.4053 50.4102 57.5537 50.4102ZM57.5342 46.9141C52.2998 46.9141 48.1201 42.7344 48.1201 37.5195C48.1201 32.3242 52.2998 28.1445 57.5342 28.1445C62.7099 28.1445 66.9287 32.3242 66.9287 37.5195C66.9287 42.7148 62.7099 46.9141 57.5342 46.9141ZM57.4951 40.5273C59.1553 40.5273 60.4638 39.1797 60.4638 37.5195C60.4638 35.8594 59.1748 34.5312 57.4951 34.5312C55.8154 34.5312 54.5849 35.8398 54.5654 37.5195C54.5459 39.1797 55.7959 40.5273 57.4951 40.5273ZM56.1084 37.4219L59.1162 36.3477L51.6943 1.52344C51.4795 0.429688 50.5615 0 49.2529 0L43.8232 0C42.8857 0 42.1435 0.742188 42.1435 1.67969C42.1435 2.59766 42.8857 3.33984 43.8232 3.33984L48.6474 3.33984C48.8818 3.33984 48.9795 3.39844 48.999 3.53516Z" fill="black" fill-opacity="0.85"/>
 </g>
</svg>
