<?xml version="1.0" encoding="UTF-8"?>
<!--Generator: Apple Native CoreSVG 326-->
<!DOCTYPE svg
PUBLIC "-//W3C//DTD SVG 1.1//EN"
       "http://www.w3.org/Graphics/SVG/1.1/DTD/svg11.dtd">
<svg version="1.1" xmlns="http://www.w3.org/2000/svg" xmlns:xlink="http://www.w3.org/1999/xlink" viewBox="0 0 93.3807 50.6445">
 <g>
  <rect height="50.6445" opacity="0" width="93.3807" x="0" y="0"/>
  <path d="M31.933 31.1081L26.036 38.8672C23.9185 41.6311 23.8678 45.0754 25.4623 47.5195L6.99308 47.5195C2.71573 47.5195 1.58292 43.3984 4.04386 40.3516L13.1064 29.1016C15.2157 29.3555 16.29 31.6211 19.6689 31.6211C23.3603 31.6211 24.786 28.6523 27.0517 28.6523C28.7199 28.6523 29.9328 30.2619 31.933 31.1081ZM30.9775 16.6602L37.121 24.2817L33.5188 29.0214C31.7633 28.3934 30.0692 26.2305 27.0517 26.2305C23.5165 26.2305 21.7782 29.1992 19.6689 29.1992C18.2626 29.1992 16.9345 27.5781 14.8251 26.9727L23.1259 16.6602C24.2978 15.1953 25.6845 14.4922 27.0517 14.4922C28.4189 14.4922 29.8056 15.1953 30.9775 16.6602Z" fill="black" fill-opacity="0.85"/>
  <path d="M50.4696 23.1641C52.8915 23.1641 54.8446 19.7656 58.8681 19.7656C62.872 19.7656 64.8446 23.1641 67.2665 23.1641C69.161 23.1641 70.8407 20.957 73.5556 20.1562L62.8525 6.09375C60.6064 3.14453 57.1298 3.10547 54.8642 6.09375L44.161 20.1562C46.8954 20.9766 48.5946 23.1641 50.4696 23.1641ZM31.6415 47.5195L86.0946 47.5195C90.2157 47.5195 91.329 43.5156 89.2392 40.7422L75.4501 22.7148C72.54 23.2031 71.0946 25.918 67.2665 25.918C63.0868 25.918 61.4462 22.5195 58.8681 22.5195C56.29 22.5195 54.6493 25.918 50.4696 25.918C46.6415 25.918 45.1767 23.2031 42.286 22.7148L28.497 40.7422C26.4071 43.5156 27.5204 47.5195 31.6415 47.5195Z" fill="black" fill-opacity="0.85"/>
 </g>
</svg>
