<?xml version="1.0" encoding="UTF-8"?>
<!--Generator: Apple Native CoreSVG 326-->
<!DOCTYPE svg
PUBLIC "-//W3C//DTD SVG 1.1//EN"
       "http://www.w3.org/Graphics/SVG/1.1/DTD/svg11.dtd">
<svg version="1.1" xmlns="http://www.w3.org/2000/svg" xmlns:xlink="http://www.w3.org/1999/xlink" viewBox="0 0 58.9223 62.9432">
 <g>
  <rect height="62.9432" opacity="0" width="58.9223" x="0" y="0"/>
  <path d="M54.8225 5.48525L55.4865 8.06338C56.1115 10.5243 54.9982 12.5946 52.4201 13.2587L24.3928 20.7587L54.2561 20.7587C56.9123 20.7782 58.5529 22.3993 58.5529 24.997L58.5529 48.8642C58.5529 53.6103 56.1115 56.0712 51.2678 56.0712L9.50997 56.0712C4.68575 56.0712 2.20528 53.6298 2.20528 48.8642L2.20528 26.8524L0.36934 20.0751C-0.841597 15.4853 0.935746 12.4774 5.54512 11.2274L45.8772 0.387598C50.5451-0.842871 53.6506 0.856348 54.8225 5.48525ZM18.3186 24.1181L11.9709 24.6845L8.12325 31.6962L16.424 31.6962L20.5647 24.1181ZM28.2404 24.1181L24.1193 31.6962L33.0061 31.6962L37.1662 24.1181ZM44.842 24.1181L40.7209 31.6962L49.0022 31.6962L53.1428 24.1181ZM9.11934 13.747L7.04903 22.1259L15.0764 19.9774L17.0881 11.5985ZM24.549 9.60635L22.4982 17.9853L31.1115 15.7001L33.1428 7.30166ZM46.5607 3.68838L40.5647 5.329L38.5139 13.7079L46.5412 11.5595L48.5334 3.27822C47.8889 3.37588 47.2443 3.49307 46.5607 3.68838Z" fill="black" fill-opacity="0.85"/>
 </g>
</svg>
