<?xml version="1.0" encoding="UTF-8"?>
<!--Generator: Apple Native CoreSVG 326-->
<!DOCTYPE svg
PUBLIC "-//W3C//DTD SVG 1.1//EN"
       "http://www.w3.org/Graphics/SVG/1.1/DTD/svg11.dtd">
<svg version="1.1" xmlns="http://www.w3.org/2000/svg" xmlns:xlink="http://www.w3.org/1999/xlink" viewBox="0 0 46.2891 45.918">
 <g>
  <rect height="45.918" opacity="0" width="46.2891" x="0" y="0"/>
  <path d="M7.59766 45.918L38.3008 45.918C43.3594 45.918 45.918 43.3594 45.918 38.3984L45.918 7.53906C45.918 2.55859 43.3594 0 38.3008 0L7.59766 0C2.55859 0 0 2.53906 0 7.53906L0 38.3984C0 43.3984 2.55859 45.918 7.59766 45.918ZM7.67578 42.4609C4.94141 42.4609 3.45703 41.0156 3.45703 38.2031L3.45703 7.71484C3.45703 4.92188 4.94141 3.45703 7.67578 3.45703L38.2422 3.45703C40.918 3.45703 42.4609 4.92188 42.4609 7.71484L42.4609 38.2031C42.4609 41.0156 40.918 42.4609 38.2422 42.4609Z" fill="black" fill-opacity="0.85"/>
  <path d="M14.2578 33.4375C14.7461 33.4375 15.1758 33.2617 15.5273 32.8906L22.9688 25.4297L30.4492 32.8906C30.7812 33.2422 31.2109 33.4375 31.6992 33.4375C32.6758 33.4375 33.457 32.6562 33.457 31.6992C33.457 31.1914 33.2617 30.8008 32.9102 30.4492L25.4492 22.9688L32.9297 15.4688C33.3008 15.0977 33.4766 14.707 33.4766 14.2383C33.4766 13.2617 32.6953 12.5 31.7188 12.5C31.2695 12.5 30.8789 12.6758 30.5078 13.0469L22.9688 20.5469L15.4883 13.0664C15.1367 12.7148 14.7461 12.5391 14.2578 12.5391C13.2812 12.5391 12.5 13.2812 12.5 14.2578C12.5 14.7266 12.6953 15.1562 13.0469 15.4883L20.5273 22.9688L13.0469 30.4688C12.6953 30.8008 12.5 31.2109 12.5 31.6992C12.5 32.6562 13.2812 33.4375 14.2578 33.4375Z" fill="black" fill-opacity="0.85"/>
 </g>
</svg>
