<?xml version="1.0" encoding="UTF-8"?>
<!--Generator: Apple Native CoreSVG 326-->
<!DOCTYPE svg
PUBLIC "-//W3C//DTD SVG 1.1//EN"
       "http://www.w3.org/Graphics/SVG/1.1/DTD/svg11.dtd">
<svg version="1.1" xmlns="http://www.w3.org/2000/svg" xmlns:xlink="http://www.w3.org/1999/xlink" viewBox="0 0 51.25 50.918">
 <g>
  <rect height="50.918" opacity="0" width="51.25" x="0" y="0"/>
  <path d="M25.4297 50.8789C39.4727 50.8789 50.8789 39.4922 50.8789 25.4492C50.8789 11.4062 39.4727 0 25.4297 0C11.3867 0 0 11.4062 0 25.4492C0 39.4922 11.3867 50.8789 25.4297 50.8789ZM25.4297 47.2461C13.3789 47.2461 3.63281 37.5 3.63281 25.4492C3.63281 13.3984 13.3789 3.65234 25.4297 3.65234C37.4805 3.65234 47.2266 13.3984 47.2266 25.4492C47.2266 37.5 37.4805 47.2461 25.4297 47.2461Z" fill="black" fill-opacity="0.85"/>
  <path d="M25.8789 19.2578L13.5742 32.5195C12.9883 33.1445 12.9883 33.9062 13.5547 34.5703L11.8945 36.6406C11.6602 36.9336 11.6797 37.3438 11.9727 37.5977L12.3633 37.9883C12.6367 38.2422 13.0078 38.2812 13.3203 38.0469L15.4102 36.3867C16.0352 36.9336 16.8164 36.9531 17.4219 36.3672L24.0625 30.2344L24.0625 37.5195C24.0625 38.2617 24.6484 38.8672 25.4297 38.8672C26.1719 38.8672 26.7773 38.2617 26.7773 37.5195L26.7773 27.6758L30.625 24.1406C32.2656 24.3555 33.9258 23.6328 35.4102 22.1484L27.793 14.5312C26.3086 16.0352 25.6445 17.6172 25.8789 19.2578ZM15.1953 33.6719L26.7188 21.4258C26.9141 21.7969 27.168 22.1094 27.4805 22.4609C27.7734 22.793 28.1055 23.0664 28.4375 23.2812L16.2891 34.7656ZM36.8164 13.1055C34.4922 10.7812 31.4453 10.8984 28.9844 13.3594L36.6016 20.957C39.0625 18.4961 39.1602 15.4297 36.8164 13.1055Z" fill="black" fill-opacity="0.85"/>
 </g>
</svg>
