<?xml version="1.0" encoding="UTF-8"?>
<!--Generator: Apple Native CoreSVG 326-->
<!DOCTYPE svg
PUBLIC "-//W3C//DTD SVG 1.1//EN"
       "http://www.w3.org/Graphics/SVG/1.1/DTD/svg11.dtd">
<svg version="1.1" xmlns="http://www.w3.org/2000/svg" xmlns:xlink="http://www.w3.org/1999/xlink" viewBox="0 0 57.8516 49.9805">
 <g>
  <rect height="49.9805" opacity="0" width="57.8516" x="0" y="0"/>
  <path d="M41.3281 43.5352C41.3281 47.3047 44.2578 49.9414 48.3594 49.9414C52.0312 49.9414 57.4805 47.2656 57.4805 40L57.4805 14.3945C57.4805 13.5547 56.7773 12.8711 55.957 12.8711C55.0977 12.8711 54.3945 13.5547 54.3945 14.3945L54.3945 32.9492C54.3945 34.2773 53.8477 35.1562 52.6758 35.3906L48.6523 36.2109C43.6719 37.2656 41.3281 39.7461 41.3281 43.5352Z" fill="black" fill-opacity="0.85"/>
  <path d="M22.6562 30.6641C22.6562 34.4531 25.5859 37.0898 29.6875 37.0898C33.3594 37.0898 38.8086 34.3945 38.8086 27.1289L38.8086 1.52344C38.8086 0.683594 38.1055 0 37.2852 0C36.4258 0 35.7227 0.683594 35.7227 1.52344L35.7227 20.0781C35.7227 21.4062 35.1758 22.2852 34.0039 22.5195L30 23.3594C25 24.3945 22.6562 26.875 22.6562 30.6641Z" fill="black" fill-opacity="0.85"/>
  <path d="M0 43.5156C0 47.3047 2.91016 49.9414 7.03125 49.9414C10.7031 49.9414 16.1523 47.2656 16.1523 39.9805L16.1523 14.375C16.1523 13.5547 15.4492 12.8516 14.6094 12.8516C13.7695 12.8516 13.0664 13.5547 13.0664 14.375L13.0664 32.9297C13.0664 34.2578 12.5 35.1367 11.3477 35.3711L7.32422 36.2109C2.34375 37.2461 0 39.7266 0 43.5156Z" fill="black" fill-opacity="0.85"/>
 </g>
</svg>
