<?xml version="1.0" encoding="UTF-8"?>
<!--Generator: Apple Native CoreSVG 326-->
<!DOCTYPE svg
PUBLIC "-//W3C//DTD SVG 1.1//EN"
       "http://www.w3.org/Graphics/SVG/1.1/DTD/svg11.dtd">
<svg version="1.1" xmlns="http://www.w3.org/2000/svg" xmlns:xlink="http://www.w3.org/1999/xlink" viewBox="0 0 51.0938 51.1523">
 <g>
  <rect height="51.1523" opacity="0" width="51.0938" x="0" y="0"/>
  <path d="M1.48438 31.1328L24.3359 31.1328C25.1758 31.1328 25.8203 30.4883 25.8203 29.6484C25.8203 28.8477 25.1562 28.1836 24.3359 28.1836L1.48438 28.1836C0.664062 28.1836 0 28.8477 0 29.6484C0 30.4883 0.644531 31.1328 1.48438 31.1328Z" fill="black" fill-opacity="0.85"/>
  <path d="M1.48438 22.2852L24.3359 22.2852C25.1758 22.2852 25.8203 21.6211 25.8203 20.8008C25.8203 20 25.1562 19.3555 24.3359 19.3555L1.48438 19.3555C0.664062 19.3555 0 20 0 20.8008C0 21.6211 0.644531 22.2852 1.48438 22.2852Z" fill="black" fill-opacity="0.85"/>
  <path d="M1.48438 13.457L24.3359 13.457C25.1562 13.457 25.8203 12.793 25.8203 11.9727C25.8203 11.1719 25.1562 10.5078 24.3359 10.5078L1.48438 10.5078C0.664062 10.5078 0 11.1719 0 11.9727C0 12.793 0.664062 13.457 1.48438 13.457Z" fill="black" fill-opacity="0.85"/>
  <path d="M50.7227 12.4414L50.7227 3.125C50.7227 1.875 49.707 1.05469 48.4961 1.30859L35.8789 4.0625C34.3945 4.375 33.5938 5.19531 33.5938 6.50391L33.6523 34.2773C33.75 35.5859 33.125 36.4648 31.9531 36.6992L27.9688 37.5391C23.0273 38.5547 20.7031 41.0352 20.7031 44.7852C20.7031 48.5352 23.5742 51.1523 27.6562 51.1523C31.3086 51.1523 36.7188 48.4961 36.7188 41.2891L36.7188 18.4766C36.7188 17.0703 37.0117 16.7383 38.2812 16.4453L49.4531 14.0039C50.2344 13.8281 50.7227 13.2422 50.7227 12.4414Z" fill="black" fill-opacity="0.85"/>
 </g>
</svg>
