<?xml version="1.0" encoding="UTF-8"?>
<!--Generator: Apple Native CoreSVG 326-->
<!DOCTYPE svg
PUBLIC "-//W3C//DTD SVG 1.1//EN"
       "http://www.w3.org/Graphics/SVG/1.1/DTD/svg11.dtd">
<svg version="1.1" xmlns="http://www.w3.org/2000/svg" xmlns:xlink="http://www.w3.org/1999/xlink" viewBox="0 0 71.3867 26.7383">
 <g>
  <rect height="26.7383" opacity="0" width="71.3867" x="0" y="0"/>
  <path d="M0 12.4609C0 20.7031 8.53516 26.7383 18.6914 26.7383C26.0742 26.7383 32.0312 24.1406 35.5078 19.4336C38.9844 24.1406 44.9609 26.7383 52.3242 26.7383C62.4805 26.7383 71.0156 20.7031 71.0156 12.4609C71.0156 9.80469 70.293 7.98828 68.6328 7.98828C68.0859 7.98828 67.5 8.33984 67.1094 8.90625C65.7227 10.8203 63.4961 11.875 60.7812 11.875C53.2031 11.875 51.1133 2.61719 41.9922 2.61719C37.832 2.61719 34.8828 4.84375 34.0039 8.59375L37.0117 8.59375C36.1328 4.84375 33.1836 2.61719 29.0234 2.61719C19.9023 2.61719 17.8125 11.875 10.2344 11.875C7.67578 11.875 5.44922 10.8398 3.88672 8.88672C3.45703 8.33984 2.92969 7.98828 2.38281 7.98828C0.742188 7.98828 0 9.80469 0 12.4609Z" fill="black" fill-opacity="0.85"/>
 </g>
</svg>
