<?xml version="1.0" encoding="UTF-8"?>
<!--Generator: Apple Native CoreSVG 326-->
<!DOCTYPE svg
PUBLIC "-//W3C//DTD SVG 1.1//EN"
       "http://www.w3.org/Graphics/SVG/1.1/DTD/svg11.dtd">
<svg version="1.1" xmlns="http://www.w3.org/2000/svg" xmlns:xlink="http://www.w3.org/1999/xlink" viewBox="0 0 71.2109 28.2617">
 <g>
  <rect height="28.2617" opacity="0" width="71.2109" x="0" y="0"/>
  <path d="M19.1992 28.2617C26.0547 28.2617 31.8945 25.9961 35.4297 21.9141C38.9453 25.9961 44.7852 28.2617 51.6406 28.2617C62.4414 28.2617 70.8398 21.7188 70.8398 13.3789C70.8398 10.1172 69.4531 8.14453 66.9922 8.14453C66.0156 8.14453 65.1172 8.57422 64.3164 9.39453C63.3594 10.3711 61.543 11.3477 59.6094 11.3477C53.0273 11.3477 51.582 2.59766 41.4648 2.59766C39.1211 2.59766 37.0703 3.26172 35.4297 4.53125C33.7695 3.26172 31.7188 2.59766 29.375 2.59766C19.2578 2.59766 17.8125 11.3477 11.2305 11.3477C9.29688 11.3477 7.48047 10.3711 6.52344 9.39453C5.72266 8.57422 4.82422 8.14453 3.84766 8.14453C1.38672 8.14453 0 10.1172 0 13.3789C0 21.7188 8.39844 28.2617 19.1992 28.2617ZM19.1992 24.8047C10.3906 24.8047 3.45703 19.7461 3.45703 13.3203C3.45703 12.3438 4.27734 12.1875 4.88281 12.5977C6.36719 13.9062 8.78906 14.8047 11.2305 14.8047C15.5078 14.8047 18.3789 12.4023 20.8594 10.2734C23.418 8.08594 25.6836 6.07422 29.375 6.07422C31.7773 6.07422 33.6523 7.07031 34.707 8.78906C35.0195 9.39453 35.8008 9.41406 36.1328 8.78906C37.168 7.07031 39.0625 6.07422 41.4648 6.07422C45.1562 6.07422 47.4219 8.08594 49.9805 10.2734C52.4609 12.4023 55.332 14.8047 59.6094 14.8047C62.0508 14.8047 64.4922 13.8867 66.0156 12.5195C66.6406 12.0898 67.3828 12.2266 67.3828 13.3203C67.3828 19.7461 60.4492 24.8047 51.6406 24.8047C44.1797 24.8047 38.5742 21.8555 36.2891 17.0703C35.9375 16.25 34.9023 16.2305 34.5508 17.0703C32.2852 21.8555 26.6797 24.8047 19.1992 24.8047Z" fill="black" fill-opacity="0.85"/>
 </g>
</svg>
