<?xml version="1.0" encoding="UTF-8"?>
<!--Generator: Apple Native CoreSVG 326-->
<!DOCTYPE svg
PUBLIC "-//W3C//DTD SVG 1.1//EN"
       "http://www.w3.org/Graphics/SVG/1.1/DTD/svg11.dtd">
<svg version="1.1" xmlns="http://www.w3.org/2000/svg" xmlns:xlink="http://www.w3.org/1999/xlink" viewBox="0 0 46.2891 45.918">
 <g>
  <rect height="45.918" opacity="0" width="46.2891" x="0" y="0"/>
  <path d="M45.918 7.53906L45.918 38.3984C45.918 43.3594 43.3594 45.918 38.3008 45.918L7.59766 45.918C2.55859 45.918 0 43.3984 0 38.3984L0 7.53906C0 2.53906 2.55859 0 7.59766 0L38.3008 0C43.3594 0 45.918 2.55859 45.918 7.53906ZM29.0625 12.5977L29.0625 28.9062L28.8867 28.9062L17.2266 11.9531C16.6406 11.0938 16.1133 10.8008 15.332 10.8008C14.1797 10.8008 13.5156 11.543 13.5156 12.7734L13.5156 32.9492C13.5156 34.043 14.1406 34.7266 15.1953 34.7266C16.2305 34.7266 16.875 34.082 16.875 32.9492L16.875 16.8164L17.0312 16.8164L28.7109 33.5938C29.3164 34.4531 29.7852 34.7266 30.5664 34.7266C31.6992 34.7266 32.4023 34.0234 32.4023 32.8125L32.4023 12.5977C32.4023 11.4648 31.7773 10.8008 30.7031 10.8008C29.668 10.8008 29.0625 11.5039 29.0625 12.5977Z" fill="black" fill-opacity="0.85"/>
 </g>
</svg>
