<?xml version="1.0" encoding="UTF-8"?>
<!--Generator: Apple Native CoreSVG 326-->
<!DOCTYPE svg
PUBLIC "-//W3C//DTD SVG 1.1//EN"
       "http://www.w3.org/Graphics/SVG/1.1/DTD/svg11.dtd">
<svg version="1.1" xmlns="http://www.w3.org/2000/svg" xmlns:xlink="http://www.w3.org/1999/xlink" viewBox="0 0 46.2891 45.918">
 <g>
  <rect height="45.918" opacity="0" width="46.2891" x="0" y="0"/>
  <path d="M45.918 7.53906L45.918 38.3984C45.918 43.3594 43.3594 45.918 38.3008 45.918L7.59766 45.918C2.55859 45.918 0 43.3984 0 38.3984L0 7.53906C0 2.53906 2.55859 0 7.59766 0L38.3008 0C43.3594 0 45.918 2.55859 45.918 7.53906ZM27.8516 12.5586L27.8516 22.207L23.7305 22.207L18.8672 12.5781C18.4766 11.7383 17.8516 11.2305 16.8945 11.2305C15.8203 11.2305 15.1172 11.9336 15.1172 12.9688L15.1172 22.207L13.7695 22.207C13.3203 22.207 12.9492 22.5586 12.9492 23.0078C12.9492 23.457 13.3203 23.8086 13.7695 23.8086L15.1172 23.8086L15.1172 33.3594C15.1172 34.1602 15.6641 34.707 16.4258 34.707C17.1875 34.707 17.7344 34.1602 17.7344 33.3594L17.7344 23.8086L21.875 23.8086L26.6992 33.3594C27.1094 34.1797 27.7148 34.707 28.6523 34.707C29.9219 34.707 30.4492 33.8281 30.4492 32.9492L30.4492 23.8086L31.8164 23.8086C32.2656 23.8086 32.6367 23.457 32.6367 23.0078C32.6367 22.5586 32.2656 22.207 31.8164 22.207L30.4492 22.207L30.4492 12.5586C30.4492 11.7578 29.9219 11.2305 29.1406 11.2305C28.3594 11.2305 27.8516 11.7578 27.8516 12.5586ZM27.8516 30L27.6758 30L24.5312 23.8086L27.8516 23.8086ZM21.0742 22.207L17.7344 22.207L17.7344 15.9961L17.8906 15.9961Z" fill="black" fill-opacity="0.85"/>
 </g>
</svg>
