<?xml version="1.0" encoding="UTF-8"?>
<!--Generator: Apple Native CoreSVG 326-->
<!DOCTYPE svg
PUBLIC "-//W3C//DTD SVG 1.1//EN"
       "http://www.w3.org/Graphics/SVG/1.1/DTD/svg11.dtd">
<svg version="1.1" xmlns="http://www.w3.org/2000/svg" xmlns:xlink="http://www.w3.org/1999/xlink" viewBox="0 0 55.5273 53.1055">
 <g>
  <rect height="53.1055" opacity="0" width="55.5273" x="0" y="0"/>
  <path d="M30.5273 0.839844L52.1094 13.3008C52.8906 13.75 53.2422 14.3164 53.2422 14.9609C53.2422 15.8398 52.5781 16.6797 51.3867 16.6797L49.1211 16.6797L49.1211 46.5039L50.7227 46.5039C51.582 46.5039 52.0898 47.0117 52.0898 47.8516L52.0898 49.6094L53.418 49.6094C54.375 49.6094 55.1562 50.3906 55.1562 51.3477C55.1562 52.2852 54.375 53.0664 53.418 53.0664L1.73828 53.0664C0.78125 53.0664 0 52.2852 0 51.3477C0 50.3906 0.78125 49.6094 1.73828 49.6094L3.06641 49.6094L3.06641 47.8516C3.06641 47.0117 3.57422 46.5039 4.45312 46.5039L6.05469 46.5039L6.05469 16.6797L3.76953 16.6797C2.57812 16.6797 1.91406 15.8398 1.91406 14.9609C1.91406 14.3164 2.24609 13.75 3.04688 13.3008L24.6289 0.839844C25.5664 0.292969 26.6016 0 27.5781 0C28.5547 0 29.5703 0.292969 30.5273 0.839844ZM32.4609 18.2812L32.4609 27.9297L28.3398 27.9297L23.4961 18.3008C23.0859 17.4609 22.4609 16.9531 21.5234 16.9531C20.4297 16.9531 19.7461 17.6367 19.7461 18.6914L19.7461 27.9297L18.3984 27.9297C17.9297 27.9297 17.5781 28.2617 17.5781 28.7305C17.5781 29.1797 17.9297 29.5312 18.3984 29.5312L19.7461 29.5312L19.7461 39.082C19.7461 39.8633 20.293 40.4102 21.0547 40.4102C21.8164 40.4102 22.3633 39.8633 22.3633 39.082L22.3633 29.5312L26.5039 29.5312L31.3281 39.082C31.7383 39.9023 32.3438 40.4102 33.2812 40.4102C34.5312 40.4102 35.0781 39.5508 35.0781 38.6719L35.0781 29.5312L36.4258 29.5312C36.8945 29.5312 37.2461 29.1797 37.2461 28.7305C37.2461 28.2617 36.8945 27.9297 36.4258 27.9297L35.0781 27.9297L35.0781 18.2812C35.0781 17.4609 34.5508 16.9531 33.75 16.9531C32.9688 16.9531 32.4609 17.4609 32.4609 18.2812ZM32.4609 35.7227L32.3047 35.7227L29.1406 29.5312L32.4609 29.5312ZM25.7031 27.9297L22.3633 27.9297L22.3633 21.6992L22.5195 21.6992Z" fill="black" fill-opacity="0.85"/>
 </g>
</svg>
