<?xml version="1.0" encoding="UTF-8"?>
<!--Generator: Apple Native CoreSVG 326-->
<!DOCTYPE svg
PUBLIC "-//W3C//DTD SVG 1.1//EN"
       "http://www.w3.org/Graphics/SVG/1.1/DTD/svg11.dtd">
<svg version="1.1" xmlns="http://www.w3.org/2000/svg" xmlns:xlink="http://www.w3.org/1999/xlink" viewBox="0 0 60.4102 49.8382">
 <g>
  <rect height="49.8382" opacity="0" width="60.4102" x="0" y="0"/>
  <path d="M60.0391 29.9093C60.0391 14.1867 47.9492 1.29605 32.5977 0.00698344C31.7969-0.0711416 31.1719 0.514796 31.1719 1.33511L31.1719 9.32339C31.1719 9.98745 31.6602 10.5148 32.3438 10.5734C41.9727 11.7453 49.4531 19.9484 49.4531 29.9093C49.4531 34.4406 47.9102 38.6007 45.1758 42.0382C44.8047 42.507 44.8242 43.0929 45.2344 43.5031L51.0352 49.3039C51.6211 49.8703 52.4609 49.8703 52.9688 49.2453C57.3828 44.0109 60.0391 37.2531 60.0391 29.9093Z" fill="black" fill-opacity="0.85"/>
  <path d="M0 29.9093C0 37.2726 2.65625 44.05 7.08984 49.2843C7.57812 49.8703 8.39844 49.8703 8.98438 49.3039L14.7852 43.5031C15.1953 43.0929 15.2148 42.507 14.8438 42.0382C12.1094 38.6007 10.5664 34.4406 10.5664 29.9093C10.5664 19.9484 18.0664 11.7453 27.6758 10.5734C28.3789 10.5148 28.8477 9.98745 28.8477 9.32339L28.8477 1.33511C28.8477 0.514796 28.2422-0.0711416 27.4414 0.00698344C12.0703 1.29605 0 14.1867 0 29.9093Z" fill="black" fill-opacity="0.85"/>
  <path d="M23.6133 41.6867C24.3555 41.6867 24.8828 41.1593 24.8828 40.3781L24.8828 23.4054L25.0391 23.4054L33.6523 40.3976C34.043 41.1984 34.668 41.6867 35.5469 41.6867C36.7383 41.6867 37.2852 40.8664 37.2852 40.007L37.2852 20.1046C37.2852 19.3234 36.7773 18.8156 35.9961 18.8156C35.2344 18.8156 34.7461 19.3234 34.7461 20.1046L34.7461 37.1359L34.5703 37.1359L25.9766 20.1242C25.5859 19.2843 24.9414 18.8156 24.0625 18.8156C23.0469 18.8156 22.3438 19.4992 22.3438 20.4953L22.3438 40.3781C22.3438 41.1593 22.8711 41.6867 23.6133 41.6867ZM20.2344 30.3C20.2344 30.7296 20.5859 31.0812 21.0156 31.0812L38.6133 31.0812C39.0625 31.0812 39.3945 30.7296 39.3945 30.3C39.3945 29.8703 39.0625 29.5187 38.6133 29.5187L21.0156 29.5187C20.5859 29.5187 20.2344 29.8703 20.2344 30.3Z" fill="black" fill-opacity="0.85"/>
 </g>
</svg>
