<?xml version="1.0" encoding="UTF-8"?>
<!--Generator: Apple Native CoreSVG 326-->
<!DOCTYPE svg
PUBLIC "-//W3C//DTD SVG 1.1//EN"
       "http://www.w3.org/Graphics/SVG/1.1/DTD/svg11.dtd">
<svg version="1.1" xmlns="http://www.w3.org/2000/svg" xmlns:xlink="http://www.w3.org/1999/xlink" viewBox="0 0 60.961 50.918">
 <g>
  <rect height="50.918" opacity="0" width="60.961" x="0" y="0"/>
  <path d="M30.295 50.8789C44.3379 50.8789 55.7246 39.4922 55.7246 25.4492C55.7246 11.4062 44.3379 0 30.295 0C16.252 0 4.86526 11.4062 4.86526 25.4492L8.49808 25.4492C8.49808 13.3984 18.2442 3.65234 30.295 3.65234C42.3457 3.65234 52.0918 13.3984 52.0918 25.4492C52.0918 37.5 42.3457 47.2461 30.295 47.2461C22.834 47.2461 16.1739 43.457 12.3653 37.7539C11.7207 36.875 10.7051 36.6016 9.80667 37.1484C8.94729 37.6562 8.69339 38.8477 9.39651 39.8047C13.9473 46.5039 21.6426 50.8789 30.295 50.8789ZM1.60354 20.7227C0.00198146 20.7227-0.447237 21.8164 0.470731 23.0859L6.01761 30.9766C6.75979 32.0508 7.83401 32.0312 8.55667 30.9766L14.1035 23.0664C14.9825 21.8164 14.5528 20.7227 12.9707 20.7227Z" fill="black" fill-opacity="0.85"/>
  <path d="M23.9082 36.8945C24.6504 36.8945 25.1778 36.3672 25.1778 35.6055L25.1778 18.6328L25.334 18.6328L33.9473 35.6055C34.3575 36.4258 34.9825 36.8945 35.8614 36.8945C37.0528 36.8945 37.5801 36.0742 37.5801 35.2148L37.5801 15.332C37.5801 14.5312 37.0723 14.0234 36.3106 14.0234C35.5489 14.0234 35.0606 14.5312 35.0606 15.332L35.0606 32.3438L34.8848 32.3438L26.2715 15.332C25.8809 14.5117 25.2364 14.0234 24.377 14.0234C23.3418 14.0234 22.6387 14.707 22.6387 15.7031L22.6387 35.6055C22.6387 36.3672 23.166 36.8945 23.9082 36.8945ZM20.5293 25.5078C20.5293 25.9375 20.8809 26.2891 21.3106 26.2891L38.9278 26.2891C39.3575 26.2891 39.709 25.9375 39.709 25.5078C39.709 25.0781 39.3575 24.7266 38.9278 24.7266L21.3106 24.7266C20.8809 24.7266 20.5293 25.0781 20.5293 25.5078Z" fill="black" fill-opacity="0.85"/>
 </g>
</svg>
