<?xml version="1.0" encoding="UTF-8"?>
<!--Generator: Apple Native CoreSVG 326-->
<!DOCTYPE svg
PUBLIC "-//W3C//DTD SVG 1.1//EN"
       "http://www.w3.org/Graphics/SVG/1.1/DTD/svg11.dtd">
<svg version="1.1" xmlns="http://www.w3.org/2000/svg" xmlns:xlink="http://www.w3.org/1999/xlink" viewBox="0 0 51.25 50.918">
 <g>
  <rect height="50.918" opacity="0" width="51.25" x="0" y="0"/>
  <path d="M3.71094 14.9023C10.1758 21.2891 19.043 24.9609 28.4961 24.9219C35.7227 24.8828 42.5781 22.5977 48.2422 18.4766L47.0508 15.9961C41.7773 19.9805 35.3125 22.207 28.4961 22.2461C19.3945 22.3242 10.8984 18.5938 4.90234 12.1875ZM1.23047 28.9648C14.3359 40.0781 32.9297 42.1484 47.9883 34.4531L47.9883 31.3867C33.2227 39.6484 14.5508 37.5586 1.81641 25.918ZM13.5156 46.25L16.6992 47.0703C15.2539 43.5547 14.4531 39.8633 14.3164 36.0352C13.0664 22.9492 18.457 10.3516 28.3008 2.07031L25.4492 1.03516C15.6836 9.82422 10.4492 22.7344 11.6602 36.1328C11.7578 39.5703 12.3828 42.9688 13.5156 46.25ZM30.1562 48.8477L32.6758 47.793C28.0664 41.1719 25.5078 33.2812 25.5078 25.0195C25.5078 17.0703 27.832 9.53125 32.0898 3.14453L29.5117 2.1875C25.1953 8.94531 22.832 16.8164 22.832 25.0195C22.832 33.6523 25.4297 41.875 30.1562 48.8477ZM45.0977 39.4141L46.8164 37.3438C38.4375 32.5781 33.1055 23.7891 32.8906 13.8867C32.793 10.2539 33.418 6.67969 34.707 3.37891L32.1484 2.63672C30.7812 6.19141 30.1367 10 30.2148 13.9258C30.4297 24.5508 36.1523 34.1211 45.0977 39.4141ZM14.375 24.668C16.4453 24.668 18.125 22.9688 18.125 20.8789C18.125 18.8281 16.4453 17.1289 14.375 17.1289C12.2852 17.1289 10.5859 18.8281 10.5859 20.8789C10.5859 22.9688 12.2852 24.668 14.375 24.668ZM33.6719 26.8555C35.6641 26.8555 37.3047 25.2148 37.3047 23.1836C37.3047 21.1719 35.6641 19.5312 33.6719 19.5312C31.6406 19.5312 29.9805 21.1719 29.9805 23.1836C29.9805 25.2148 31.6406 26.8555 33.6719 26.8555ZM26.3086 41.3867C28.3789 41.3867 30.0586 39.7266 30.0586 37.6367C30.0586 35.5469 28.3789 33.8867 26.3086 33.8867C24.2188 33.8867 22.5586 35.5469 22.5586 37.6367C22.5586 39.7266 24.2188 41.3867 26.3086 41.3867ZM25.4297 50.8789C39.4727 50.8789 50.8789 39.4922 50.8789 25.4492C50.8789 11.4062 39.4727 0 25.4297 0C11.3867 0 0 11.4062 0 25.4492C0 39.4922 11.3867 50.8789 25.4297 50.8789ZM25.4297 47.9102C13.0273 47.9102 2.96875 37.8516 2.96875 25.4492C2.96875 13.0273 13.0273 2.96875 25.4297 2.96875C37.8516 2.96875 47.9102 13.0273 47.9102 25.4492C47.9102 37.8516 37.8516 47.9102 25.4297 47.9102Z" fill="black" fill-opacity="0.85"/>
 </g>
</svg>
