<?xml version="1.0" encoding="UTF-8"?>
<!--Generator: Apple Native CoreSVG 326-->
<!DOCTYPE svg
PUBLIC "-//W3C//DTD SVG 1.1//EN"
       "http://www.w3.org/Graphics/SVG/1.1/DTD/svg11.dtd">
<svg version="1.1" xmlns="http://www.w3.org/2000/svg" xmlns:xlink="http://www.w3.org/1999/xlink" viewBox="0 0 51.25 50.918">
 <g>
  <rect height="50.918" opacity="0" width="51.25" x="0" y="0"/>
  <path d="M25.4297 50.8789C39.4727 50.8789 50.8789 39.4922 50.8789 25.4492C50.8789 11.4062 39.4727 0 25.4297 0C11.3867 0 0 11.4062 0 25.4492C0 39.4922 11.3867 50.8789 25.4297 50.8789ZM25.4297 47.2461C13.3789 47.2461 3.63281 37.5 3.63281 25.4492C3.63281 13.3984 13.3789 3.65234 25.4297 3.65234C37.4805 3.65234 47.2266 13.3984 47.2266 25.4492C47.2266 37.5 37.4805 47.2461 25.4297 47.2461Z" fill="black" fill-opacity="0.85"/>
  <path d="M12.207 24.3555L12.207 35.1562C12.207 36.0938 12.8906 36.6016 13.7109 36.6016C14.5312 36.6016 15.2148 36.0742 15.2148 35.1562L15.2148 22.2461L14.4336 22.2461C13.0664 22.2461 12.207 23.0469 12.207 24.3555ZM16.0352 38.2422L35 38.2422C37.3828 38.2422 38.5938 37.0703 38.5938 34.6875L38.5938 16.25C38.5938 13.8672 37.3828 12.6953 35 12.6953L20.8984 12.6953C18.4766 12.6953 17.2852 13.8672 17.2852 16.25L17.2852 35.8984C17.2852 37.1094 16.9531 37.7734 16.0352 38.2422ZM22.0898 19.7266C21.6406 19.7266 21.3086 19.4141 21.3086 18.9648C21.3086 18.5547 21.6211 18.2422 22.0898 18.2422L33.8086 18.2422C34.2578 18.2422 34.5703 18.5547 34.5703 18.9648C34.5703 19.4141 34.2383 19.7266 33.8086 19.7266ZM22.0898 24.0039C21.6406 24.0039 21.3086 23.6719 21.3086 23.2617C21.3086 22.8125 21.6211 22.5 22.0898 22.5L33.8086 22.5C34.2578 22.5 34.5703 22.8125 34.5703 23.2617C34.5703 23.6719 34.2383 24.0039 33.8086 24.0039ZM29.5312 28.3789C29.082 28.3789 28.7695 28.0664 28.7695 27.6367C28.7695 27.2266 29.082 26.875 29.5312 26.875L33.8086 26.875C34.2383 26.875 34.5508 27.2266 34.5508 27.6367C34.5508 28.0664 34.2383 28.3789 33.8086 28.3789ZM29.5312 32.5977C29.082 32.5977 28.7695 32.3047 28.7695 31.8555C28.7695 31.4258 29.082 31.0938 29.5312 31.0938L33.8086 31.0938C34.2383 31.0938 34.5508 31.4258 34.5508 31.8555C34.5508 32.3047 34.2578 32.5977 33.8086 32.5977ZM22.6367 32.5977C21.7969 32.5977 21.2695 32.0898 21.2695 31.2305L21.2695 28.2617C21.2695 27.4023 21.7969 26.875 22.6367 26.875L25.6836 26.875C26.543 26.875 27.0703 27.4023 27.0703 28.2617L27.0703 31.2305C27.0703 32.0898 26.543 32.5977 25.6836 32.5977Z" fill="black" fill-opacity="0.85"/>
 </g>
</svg>
