<?xml version="1.0" encoding="UTF-8"?>
<!--Generator: Apple Native CoreSVG 326-->
<!DOCTYPE svg
PUBLIC "-//W3C//DTD SVG 1.1//EN"
       "http://www.w3.org/Graphics/SVG/1.1/DTD/svg11.dtd">
<svg version="1.1" xmlns="http://www.w3.org/2000/svg" xmlns:xlink="http://www.w3.org/1999/xlink" viewBox="0 0 51.25 50.918">
 <g>
  <rect height="50.918" opacity="0" width="51.25" x="0" y="0"/>
  <path d="M50.8789 25.4688C50.8789 39.4922 39.4531 50.918 25.4297 50.918C11.4258 50.918 0 39.4922 0 25.4688C0 11.4648 11.4258 0.0390625 25.4297 0.0390625C39.4531 0.0390625 50.8789 11.4648 50.8789 25.4688ZM20.8203 12.5781C18.3984 12.5781 17.1875 13.7695 17.1875 16.1914L17.1875 36.0352C17.1875 37.2852 16.8555 37.9492 15.8984 38.418L35.1172 38.418C37.5391 38.418 38.75 37.2266 38.75 34.8242L38.75 16.1914C38.75 13.7695 37.5391 12.5781 35.1172 12.5781ZM14.2773 22.2461C12.9102 22.2461 12.0508 23.0273 12.0508 24.3555L12.0508 35.3125C12.0508 36.2305 12.7148 36.7773 13.5742 36.7773C14.3945 36.7578 15.0781 36.2305 15.0781 35.3125L15.0781 22.2461ZM34.668 31.9727C34.668 32.4023 34.3555 32.7148 33.9062 32.7148L29.5898 32.7148C29.1211 32.7148 28.8086 32.4023 28.8086 31.9727C28.8086 31.5234 29.1211 31.1914 29.5898 31.1914L33.9062 31.1914C34.3555 31.1914 34.668 31.5234 34.668 31.9727ZM27.0898 28.3398L27.0898 31.3281C27.0898 32.207 26.5625 32.7148 25.6641 32.7148L22.5977 32.7148C21.7383 32.7148 21.2305 32.207 21.2305 31.3281L21.2305 28.3398C21.2305 27.4609 21.7383 26.9336 22.5977 26.9336L25.6641 26.9336C26.5625 26.9336 27.0898 27.4609 27.0898 28.3398ZM34.668 27.6953C34.668 28.1055 34.3555 28.457 33.9062 28.457L29.5898 28.457C29.1211 28.457 28.8086 28.1055 28.8086 27.6953C28.8086 27.2852 29.1211 26.9336 29.5898 26.9336L33.9062 26.9336C34.3555 26.9336 34.668 27.2852 34.668 27.6953ZM34.6875 23.2617C34.6875 23.6914 34.3555 24.0234 33.9062 24.0234L22.0312 24.0234C21.582 24.0234 21.25 23.6914 21.25 23.2617C21.25 22.8125 21.582 22.4805 22.0312 22.4805L33.9062 22.4805C34.3555 22.4805 34.6875 22.8125 34.6875 23.2617ZM34.6875 18.9258C34.6875 19.3555 34.3555 19.707 33.9062 19.707L22.0312 19.707C21.582 19.707 21.25 19.3555 21.25 18.9258C21.25 18.4961 21.582 18.1836 22.0312 18.1836L33.9062 18.1836C34.3555 18.1836 34.6875 18.4961 34.6875 18.9258Z" fill="black" fill-opacity="0.85"/>
 </g>
</svg>
