<?xml version="1.0" encoding="UTF-8"?>
<!--Generator: Apple Native CoreSVG 326-->
<!DOCTYPE svg
PUBLIC "-//W3C//DTD SVG 1.1//EN"
       "http://www.w3.org/Graphics/SVG/1.1/DTD/svg11.dtd">
<svg version="1.1" xmlns="http://www.w3.org/2000/svg" xmlns:xlink="http://www.w3.org/1999/xlink" viewBox="0 0 55.5273 53.1055">
 <g>
  <rect height="53.1055" opacity="0" width="55.5273" x="0" y="0"/>
  <path d="M30.5273 0.839844L52.1094 13.3008C52.8906 13.75 53.2422 14.3164 53.2422 14.9609C53.2422 15.8398 52.5781 16.6797 51.3867 16.6797L49.1211 16.6797L49.1211 46.5039L50.7227 46.5039C51.582 46.5039 52.0898 47.0117 52.0898 47.8516L52.0898 49.6094L53.418 49.6094C54.375 49.6094 55.1562 50.3906 55.1562 51.3477C55.1562 52.2852 54.375 53.0664 53.418 53.0664L1.73828 53.0664C0.78125 53.0664 0 52.2852 0 51.3477C0 50.3906 0.78125 49.6094 1.73828 49.6094L3.06641 49.6094L3.06641 47.8516C3.06641 47.0117 3.57422 46.5039 4.45312 46.5039L6.05469 46.5039L6.05469 16.6797L3.76953 16.6797C2.57812 16.6797 1.91406 15.8398 1.91406 14.9609C1.91406 14.3164 2.24609 13.75 3.04688 13.3008L24.6289 0.839844C25.5664 0.292969 26.6016 0 27.5781 0C28.5547 0 29.5703 0.292969 30.5273 0.839844ZM17.832 18.2422L17.832 38.0469C17.832 38.8477 18.3594 39.375 19.1016 39.375C19.8438 39.375 20.3711 38.8477 20.3711 38.0469L20.3711 33.3594L21.9531 31.7969L26.9141 38.75C27.1875 39.1406 27.5391 39.375 28.0273 39.375C28.7109 39.375 29.2383 38.9258 29.2383 38.2617C29.2383 37.9492 29.1016 37.6562 28.8867 37.3633L23.75 30.2148L28.5742 25.0977C28.8672 24.7656 29.0234 24.5703 29.0234 24.1797C29.0234 23.5938 28.5352 23.0859 27.8906 23.0859C27.5391 23.0859 27.1484 23.3008 26.9141 23.5742L20.4492 30.6445L20.3711 30.6445L20.3711 18.2617C20.3711 17.4609 19.8438 16.9141 19.1016 16.9141C18.3594 16.9141 17.832 17.4414 17.832 18.2422ZM34.7461 26.25L34.5898 26.25L34.5898 24.3555C34.5898 23.6523 34.082 23.0859 33.4375 23.0859C32.7734 23.0859 32.2656 23.6523 32.2656 24.3555L32.2656 38.0469C32.2656 38.8672 32.7148 39.375 33.4961 39.375C34.0625 39.375 34.6875 39.0234 34.6875 38.0469L34.6875 29.6484C34.6875 27.7344 35.4492 25.5273 37.7148 25.5273C38.2031 25.5273 38.6914 25.4883 39.0625 25.293C39.4141 25.1562 39.6094 24.8438 39.6094 24.4336C39.6094 23.5547 38.8477 23.0859 37.9688 23.0859C36.2695 23.0859 35.1367 24.5312 34.7461 26.25Z" fill="black" fill-opacity="0.85"/>
 </g>
</svg>
