<?xml version="1.0" encoding="UTF-8"?>
<!--Generator: Apple Native CoreSVG 326-->
<!DOCTYPE svg
PUBLIC "-//W3C//DTD SVG 1.1//EN"
       "http://www.w3.org/Graphics/SVG/1.1/DTD/svg11.dtd">
<svg version="1.1" xmlns="http://www.w3.org/2000/svg" xmlns:xlink="http://www.w3.org/1999/xlink" viewBox="0 0 60.961 50.918">
 <g>
  <rect height="50.918" opacity="0" width="60.961" x="0" y="0"/>
  <path d="M30.295 50.8789C44.3379 50.8789 55.7246 39.4922 55.7246 25.4492C55.7246 11.4062 44.3379 0 30.295 0C16.252 0 4.86526 11.4062 4.86526 25.4492L8.49808 25.4492C8.49808 13.3984 18.2442 3.65234 30.295 3.65234C42.3457 3.65234 52.0918 13.3984 52.0918 25.4492C52.0918 37.5 42.3457 47.2461 30.295 47.2461C22.834 47.2461 16.1739 43.457 12.3653 37.7539C11.7207 36.875 10.7051 36.6016 9.80667 37.1484C8.94729 37.6562 8.69339 38.8477 9.39651 39.8047C13.9473 46.5039 21.6426 50.8789 30.295 50.8789ZM1.60354 20.7227C0.00198146 20.7227-0.447237 21.8164 0.470731 23.0859L6.01761 30.9766C6.75979 32.0508 7.83401 32.0312 8.55667 30.9766L14.1035 23.0664C14.9825 21.8164 14.5528 20.7227 12.9707 20.7227Z" fill="black" fill-opacity="0.85"/>
  <path d="M22.0528 35.8984C22.7754 35.8984 23.2637 35.3711 23.2637 34.6094L23.2637 30L24.8067 28.4766L29.67 35.293C29.9434 35.6641 30.295 35.8984 30.7637 35.8984C31.4082 35.8984 31.916 35.4492 31.916 34.8047C31.916 34.5117 31.7989 34.2188 31.584 33.9453L26.5645 26.9531L31.2715 21.9336C31.5645 21.6211 31.7207 21.4453 31.7207 21.0547C31.7207 20.4883 31.2325 20 30.627 20C30.2754 20 29.9043 20.1953 29.67 20.4492L23.3614 27.4023L23.2637 27.4023L23.2637 15.2734C23.2637 14.4922 22.7754 13.9453 22.0528 13.9453C21.3301 13.9453 20.8223 14.4727 20.8223 15.2539L20.8223 34.6094C20.8223 35.3711 21.3301 35.8984 22.0528 35.8984ZM36.0762 35.8984C36.6426 35.8984 37.2481 35.5469 37.2481 34.6094L37.2481 26.3867C37.2481 24.5312 37.9707 22.3438 40.1973 22.3438C40.6856 22.3438 41.1348 22.3242 41.5059 22.1484C41.8379 22.0117 42.0332 21.7188 42.0332 21.2891C42.0332 20.4297 41.3106 20 40.4512 20C38.791 20 37.6778 21.4062 37.3067 23.0664L37.1309 23.0664L37.1309 21.2305C37.1309 20.5273 36.6621 20 36.0176 20C35.3731 20 34.8848 20.5273 34.8848 21.2305L34.8848 34.6094C34.8848 35.3906 35.3145 35.8984 36.0762 35.8984Z" fill="black" fill-opacity="0.85"/>
 </g>
</svg>
