<?xml version="1.0" encoding="UTF-8"?>
<!--Generator: Apple Native CoreSVG 326-->
<!DOCTYPE svg
PUBLIC "-//W3C//DTD SVG 1.1//EN"
       "http://www.w3.org/Graphics/SVG/1.1/DTD/svg11.dtd">
<svg version="1.1" xmlns="http://www.w3.org/2000/svg" xmlns:xlink="http://www.w3.org/1999/xlink" viewBox="0 0 60.4102 50.0586">
 <g>
  <rect height="50.0586" opacity="0" width="60.4102" x="0" y="0"/>
  <path d="M60.0391 30.0195C60.0391 22.6562 57.3828 15.918 52.9688 10.6836C52.4609 10.0781 51.6016 10.0977 51.0352 10.6641L45.3906 16.3086C44.9023 16.7969 44.8828 17.4805 45.3125 18.0273C47.9102 21.3477 49.4531 25.4883 49.4531 30.0195C49.4531 34.5508 47.9102 38.7109 45.1953 42.1484C44.8242 42.6172 44.8438 43.2031 45.2539 43.6133L51.0352 49.4141C51.6016 50 52.4414 49.9805 52.9688 49.375C57.3828 44.1406 60.0391 37.3633 60.0391 30.0195Z" fill="black" fill-opacity="0.85"/>
  <path d="M30.0195 10.5664C34.5508 10.5664 38.7305 12.1289 42.0508 14.7656C42.5781 15.1562 43.2227 15.1172 43.7109 14.6289L49.375 8.96484C49.9609 8.39844 49.9414 7.55859 49.3359 7.03125C44.1211 2.65625 37.3633 0 30.0195 0C22.6758 0 15.918 2.65625 10.7031 7.03125C10.0977 7.55859 10.0781 8.39844 10.6445 8.96484L16.3281 14.6289C16.7969 15.1172 17.5 15.1367 18.0469 14.707C21.3477 12.1289 25.5078 10.5664 30.0195 10.5664Z" fill="black" fill-opacity="0.85"/>
  <path d="M0 30.0195C0 37.3633 2.65625 44.1406 7.07031 49.375C7.57812 49.9805 8.4375 50 9.00391 49.4141L14.7852 43.6133C15.1758 43.2031 15.2148 42.6172 14.8438 42.1484C12.1289 38.7109 10.5664 34.5508 10.5664 30.0195C10.5664 25.4883 12.1094 21.3477 14.7266 18.0273C15.1367 17.4805 15.1367 16.7969 14.6484 16.3086L8.98438 10.6641C8.41797 10.0977 7.57812 10.0781 7.05078 10.6836C2.63672 15.918 0 22.6562 0 30.0195Z" fill="black" fill-opacity="0.85"/>
  <path d="M21.7578 40.8008C22.4805 40.8008 22.9688 40.2734 22.9688 39.5117L22.9688 34.9023L24.5117 33.3789L29.375 40.1953C29.6289 40.5664 29.9805 40.8008 30.4492 40.8008C31.1133 40.8008 31.6211 40.332 31.6211 39.707C31.6211 39.3945 31.4844 39.1211 31.2891 38.8477L26.2695 31.8555L30.9766 26.8359C31.2695 26.5234 31.4062 26.3477 31.4062 25.957C31.4062 25.3906 30.9375 24.8828 30.3125 24.8828C29.9805 24.8828 29.5898 25.0977 29.375 25.3516L23.0469 32.2852L22.9688 32.2852L22.9688 20.1758C22.9688 19.3945 22.4805 18.8477 21.7578 18.8477C21.0352 18.8477 20.5078 19.375 20.5078 20.1562L20.5078 39.5117C20.5078 40.2734 21.0352 40.8008 21.7578 40.8008ZM35.7617 40.8008C36.3281 40.8008 36.9336 40.4492 36.9336 39.5117L36.9336 31.2891C36.9336 29.4141 37.6562 27.2461 39.9023 27.2461C40.3711 27.2461 40.8398 27.207 41.1914 27.0312C41.5234 26.8945 41.7188 26.6016 41.7188 26.1914C41.7188 25.332 40.9961 24.8828 40.1367 24.8828C38.4766 24.8828 37.3828 26.2891 36.9922 27.9688L36.8359 27.9688L36.8359 26.1328C36.8359 25.4297 36.3477 24.8828 35.7227 24.8828C35.0781 24.8828 34.5898 25.4297 34.5898 26.1328L34.5898 39.5117C34.5898 40.293 35 40.8008 35.7617 40.8008Z" fill="black" fill-opacity="0.85"/>
 </g>
</svg>
