<?xml version="1.0" encoding="UTF-8"?>
<!--Generator: Apple Native CoreSVG 326-->
<!DOCTYPE svg
PUBLIC "-//W3C//DTD SVG 1.1//EN"
       "http://www.w3.org/Graphics/SVG/1.1/DTD/svg11.dtd">
<svg version="1.1" xmlns="http://www.w3.org/2000/svg" xmlns:xlink="http://www.w3.org/1999/xlink" viewBox="0 0 46.2891 45.918">
 <g>
  <rect height="45.918" opacity="0" width="46.2891" x="0" y="0"/>
  <path d="M45.918 7.53906L45.918 38.3984C45.918 43.3594 43.3594 45.918 38.3008 45.918L7.59766 45.918C2.55859 45.918 0 43.3984 0 38.3984L0 7.53906C0 2.53906 2.55859 0 7.59766 0L38.3008 0C43.3594 0 45.918 2.55859 45.918 7.53906ZM28.8086 12.0898L25.5078 16.543L12.9883 16.543C11.8164 16.543 11.0547 17.1289 11.0547 18.2812C11.0547 19.3945 11.8555 19.9609 12.9883 19.9609L23.0078 19.9609L18.5938 25.9961L12.9883 25.9961C11.8164 25.9961 11.0547 26.582 11.0547 27.7148C11.0547 28.8281 11.8555 29.4141 12.9883 29.4141L16.0547 29.4141L14.375 31.7578C13.6523 32.6953 13.7109 33.6719 14.6094 34.3164C15.5078 34.9805 16.4648 34.6875 17.1094 33.7695L20.3125 29.4141L32.9102 29.4141C34.0625 29.4141 34.8633 28.8281 34.8633 27.7148C34.8633 26.582 34.1016 25.9961 32.9102 25.9961L22.8125 25.9961L27.2461 19.9609L32.9102 19.9609C34.0625 19.9609 34.8633 19.3945 34.8633 18.2812C34.8633 17.1289 34.1016 16.543 32.9102 16.543L29.7461 16.543L31.543 14.1016C32.2266 13.1836 32.2461 12.207 31.3281 11.5625C30.4102 10.8984 29.4922 11.1133 28.8086 12.0898Z" fill="black" fill-opacity="0.85"/>
 </g>
</svg>
