<?xml version="1.0" encoding="UTF-8"?>
<!--Generator: Apple Native CoreSVG 326-->
<!DOCTYPE svg
PUBLIC "-//W3C//DTD SVG 1.1//EN"
       "http://www.w3.org/Graphics/SVG/1.1/DTD/svg11.dtd">
<svg version="1.1" xmlns="http://www.w3.org/2000/svg" xmlns:xlink="http://www.w3.org/1999/xlink" viewBox="0 0 51.25 50.918">
 <g>
  <rect height="50.918" opacity="0" width="51.25" x="0" y="0"/>
  <path d="M25.4297 50.8789C39.4727 50.8789 50.8789 39.4922 50.8789 25.4492C50.8789 11.4062 39.4727 0 25.4297 0C11.3867 0 0 11.4062 0 25.4492C0 39.4922 11.3867 50.8789 25.4297 50.8789ZM25.4297 47.2461C13.3789 47.2461 3.63281 37.5 3.63281 25.4492C3.63281 13.3984 13.3789 3.65234 25.4297 3.65234C37.4805 3.65234 47.2266 13.3984 47.2266 25.4492C47.2266 37.5 37.4805 47.2461 25.4297 47.2461Z" fill="black" fill-opacity="0.85"/>
  <path d="M15.6445 31.7383L35.1367 31.7383C36.25 31.7383 37.0117 31.1719 37.0117 30.0977C37.0117 29.0039 36.2891 28.4375 35.1367 28.4375L15.6445 28.4375C14.5117 28.4375 13.7891 29.0039 13.7891 30.0977C13.7891 31.1719 14.5508 31.7383 15.6445 31.7383ZM15.6445 22.5195L35.1367 22.5195C36.25 22.5195 37.0117 21.9727 37.0117 20.8984C37.0117 19.7852 36.2891 19.2188 35.1367 19.2188L15.6445 19.2188C14.5117 19.2188 13.7891 19.7852 13.7891 20.8984C13.7891 21.9727 14.5508 22.5195 15.6445 22.5195ZM17.2656 36.5234C18.1445 37.168 19.0625 36.875 19.6875 35.9961L33.7695 16.8164C34.4141 15.918 34.4336 14.9805 33.5547 14.3555C32.6758 13.7109 31.7773 13.9258 31.1133 14.8633L17.0312 34.043C16.3477 34.9609 16.4062 35.8984 17.2656 36.5234Z" fill="black" fill-opacity="0.85"/>
 </g>
</svg>
