<?xml version="1.0" encoding="UTF-8"?>
<!--Generator: Apple Native CoreSVG 326-->
<!DOCTYPE svg
PUBLIC "-//W3C//DTD SVG 1.1//EN"
       "http://www.w3.org/Graphics/SVG/1.1/DTD/svg11.dtd">
<svg version="1.1" xmlns="http://www.w3.org/2000/svg" xmlns:xlink="http://www.w3.org/1999/xlink" viewBox="0 0 51.25 50.918">
 <g>
  <rect height="50.918" opacity="0" width="51.25" x="0" y="0"/>
  <path d="M50.8789 25.4492C50.8789 39.4531 39.4531 50.8789 25.4297 50.8789C11.4258 50.8789 0 39.4531 0 25.4492C0 11.4258 11.4258 0 25.4297 0C39.4531 0 50.8789 11.4258 50.8789 25.4492ZM30.293 14.1211L29.1211 19.5898L24.1016 19.5898L25.1562 14.5508C25.3516 13.6133 24.707 12.8125 23.75 12.8125C22.8516 12.8125 22.2852 13.2617 22.1094 14.1211L20.9766 19.5898L18.1055 19.5898C17.207 19.5898 16.5625 20.2344 16.5625 21.1133C16.5625 21.875 17.1094 22.4414 17.8711 22.4414L20.3516 22.4414L19.2383 27.9102L16.2695 27.9102C15.3711 27.9102 14.7461 28.5742 14.7461 29.4336C14.7461 30.2148 15.293 30.7617 16.0547 30.7617L18.6133 30.7617L17.5 36.0742C17.3242 37.0117 18.0078 37.793 18.9453 37.793C19.8242 37.793 20.3711 37.3438 20.5469 36.4844L21.7578 30.7812L26.7773 30.7812L25.6641 36.0742C25.4688 37.0117 26.1328 37.793 27.0508 37.793C27.9883 37.793 28.5742 37.3438 28.75 36.4844L29.9219 30.7617L32.7344 30.7617C33.6328 30.7617 34.2773 30.0977 34.2773 29.2383C34.2773 28.4766 33.7305 27.9102 32.9688 27.9102L30.5273 27.9102L31.6992 22.4414L34.5703 22.4414C35.4688 22.4414 36.0938 21.7969 36.0938 20.918C36.0938 20.1367 35.5469 19.5898 34.7852 19.5898L32.2852 19.5898L33.3594 14.5508C33.5352 13.5938 32.8516 12.8125 31.9141 12.8125C31.0352 12.8125 30.4688 13.2617 30.293 14.1211ZM27.5 28.1445L22.1875 28.1445L23.418 22.2266L28.75 22.2266Z" fill="black" fill-opacity="0.85"/>
 </g>
</svg>
