<?xml version="1.0" encoding="UTF-8"?>
<!--Generator: Apple Native CoreSVG 326-->
<!DOCTYPE svg
PUBLIC "-//W3C//DTD SVG 1.1//EN"
       "http://www.w3.org/Graphics/SVG/1.1/DTD/svg11.dtd">
<svg version="1.1" xmlns="http://www.w3.org/2000/svg" xmlns:xlink="http://www.w3.org/1999/xlink" viewBox="0 0 46.2891 45.918">
 <g>
  <rect height="45.918" opacity="0" width="46.2891" x="0" y="0"/>
  <path d="M45.918 7.53906L45.918 38.3984C45.918 43.3594 43.3594 45.918 38.3008 45.918L7.59766 45.918C2.55859 45.918 0 43.3984 0 38.3984L0 7.53906C0 2.53906 2.55859 0 7.59766 0L38.3008 0C43.3594 0 45.918 2.55859 45.918 7.53906ZM27.832 11.6211L26.6602 17.0898L21.6406 17.0898L22.6953 12.0508C22.8906 11.1133 22.2461 10.3125 21.2891 10.3125C20.3906 10.3125 19.8242 10.7617 19.6484 11.6211L18.5156 17.0898L15.625 17.0898C14.7461 17.0898 14.1016 17.7344 14.1016 18.6133C14.1016 19.375 14.6484 19.9414 15.4102 19.9414L17.8906 19.9414L16.7773 25.4102L13.8086 25.4102C12.9102 25.4102 12.2852 26.0742 12.2852 26.9336C12.2852 27.7148 12.8125 28.2617 13.5742 28.2617L16.1523 28.2617L15.0391 33.5742C14.8633 34.5117 15.5273 35.293 16.4844 35.293C17.3633 35.293 17.9102 34.8438 18.0859 33.9844L19.2969 28.2812L24.3164 28.2812L23.2031 33.5742C23.0078 34.5117 23.6719 35.293 24.5898 35.293C25.5273 35.293 26.0938 34.8438 26.2695 33.9844L27.4609 28.2617L30.2734 28.2617C31.1719 28.2617 31.7969 27.5977 31.7969 26.7383C31.7969 25.9766 31.2695 25.4102 30.5078 25.4102L28.0664 25.4102L29.2383 19.9414L32.1094 19.9414C33.0078 19.9414 33.6328 19.2969 33.6328 18.418C33.6328 17.6367 33.0859 17.0898 32.3242 17.0898L29.8242 17.0898L30.8984 12.0508C31.0742 11.0938 30.3906 10.3125 29.4336 10.3125C28.5547 10.3125 28.0078 10.7617 27.832 11.6211ZM25.0391 25.6445L19.7266 25.6445L20.957 19.7266L26.2891 19.7266Z" fill="black" fill-opacity="0.85"/>
 </g>
</svg>
