<?xml version="1.0" encoding="UTF-8"?>
<!--Generator: Apple Native CoreSVG 326-->
<!DOCTYPE svg
PUBLIC "-//W3C//DTD SVG 1.1//EN"
       "http://www.w3.org/Graphics/SVG/1.1/DTD/svg11.dtd">
<svg version="1.1" xmlns="http://www.w3.org/2000/svg" xmlns:xlink="http://www.w3.org/1999/xlink" viewBox="0 0 45.4102 49.4336">
 <g>
  <rect height="49.4336" opacity="0" width="45.4102" x="0" y="0"/>
  <path d="M9.14062 49.4336C10.1758 49.4336 10.918 48.8867 11.1328 47.8125L20.293 2.61719C20.3125 2.46094 20.3711 2.1875 20.3711 1.89453C20.3711 0.839844 19.6094 0.234375 18.5742 0.234375C17.3828 0.234375 16.8164 0.878906 16.6211 1.91406L7.46094 47.0703C7.42188 47.3047 7.38281 47.5781 7.38281 47.793C7.38281 48.8672 8.10547 49.4336 9.14062 49.4336ZM25.4297 49.4336C26.4648 49.4336 27.207 48.8867 27.4219 47.8125L36.582 2.61719C36.6211 2.46094 36.6797 2.1875 36.6797 1.89453C36.6797 0.839844 35.918 0.234375 34.8828 0.234375C33.6914 0.234375 33.1445 0.878906 32.9492 1.91406L23.7695 47.0703C23.7109 47.3047 23.6914 47.5781 23.6914 47.793C23.6914 48.8672 24.4141 49.4336 25.4297 49.4336ZM5.01953 17.2266L43.0664 17.2266C44.2383 17.2266 45.0391 16.3867 45.0391 15.2148C45.0391 14.2578 44.3945 13.5156 43.418 13.5156L5.37109 13.5156C4.19922 13.5156 3.39844 14.375 3.39844 15.5664C3.39844 16.543 4.04297 17.2266 5.01953 17.2266ZM1.62109 34.9219L39.6875 34.9219C40.8594 34.9219 41.6602 34.082 41.6602 32.9102C41.6602 31.9531 41.0156 31.2109 40.0391 31.2109L1.97266 31.2109C0.820312 31.2109 0 32.0703 0 33.2617C0 34.2383 0.644531 34.9219 1.62109 34.9219Z" fill="black" fill-opacity="0.85"/>
 </g>
</svg>
