<?xml version="1.0" encoding="UTF-8"?>
<!--Generator: Apple Native CoreSVG 326-->
<!DOCTYPE svg
PUBLIC "-//W3C//DTD SVG 1.1//EN"
       "http://www.w3.org/Graphics/SVG/1.1/DTD/svg11.dtd">
<svg version="1.1" xmlns="http://www.w3.org/2000/svg" xmlns:xlink="http://www.w3.org/1999/xlink" viewBox="0 0 51.25 50.918">
 <g>
  <rect height="50.918" opacity="0" width="51.25" x="0" y="0"/>
  <path d="M50.8789 25.4492C50.8789 39.4531 39.4531 50.8789 25.4297 50.8789C11.4258 50.8789 0 39.4531 0 25.4492C0 11.4258 11.4258 0 25.4297 0C39.4531 0 50.8789 11.4258 50.8789 25.4492ZM32.793 12.0508C32.4609 12.3633 32.4414 12.8516 32.793 13.1641L33.4766 13.8672L25.4102 21.9336L17.3242 13.8672L18.0078 13.1641C18.3594 12.8516 18.3398 12.3633 18.0078 12.0508C17.6953 11.7188 17.207 11.6992 16.8945 12.0508L14.3359 14.5703C14.0039 14.8828 14.0234 15.3711 14.3359 15.6836C14.6875 16.0156 15.1758 16.0352 15.4883 15.6836L16.1719 15L24.2578 23.0859L21.5234 25.8008L19.5508 26.1523C18.6719 26.2891 17.8906 26.7188 17.0117 27.5977L11.5625 33.0078C10.7812 33.7695 11.0156 35.1367 12.207 36.2891C13.3594 37.4609 14.707 37.6953 15.4492 36.9141L20.8789 31.4844C21.7773 30.5859 22.1875 29.8047 22.3242 28.9258L22.6367 26.9922L25.4102 24.2188L28.1641 26.9922L28.4766 28.9258C28.6133 29.8047 29.0234 30.5859 29.9023 31.4844L35.3516 36.9141C36.0938 37.6953 37.4414 37.4609 38.5938 36.2891C39.7852 35.1367 40.0195 33.7695 39.2188 33.0078L33.7891 27.5977C32.9102 26.7188 32.1094 26.2891 31.25 26.1523L29.2773 25.8008L26.543 23.0859L34.6289 15L35.3125 15.6836C35.625 16.0352 36.1133 16.0156 36.4648 15.6836C36.7773 15.3711 36.7969 14.8828 36.4648 14.5703L33.9258 12.0508C33.5938 11.6992 33.1055 11.7188 32.793 12.0508Z" fill="black" fill-opacity="0.85"/>
 </g>
</svg>
