<?xml version="1.0" encoding="UTF-8"?>
<!--Generator: Apple Native CoreSVG 326-->
<!DOCTYPE svg
PUBLIC "-//W3C//DTD SVG 1.1//EN"
       "http://www.w3.org/Graphics/SVG/1.1/DTD/svg11.dtd">
<svg version="1.1" xmlns="http://www.w3.org/2000/svg" xmlns:xlink="http://www.w3.org/1999/xlink" viewBox="0 0 50.6055 48.5352">
 <g>
  <rect height="48.5352" opacity="0" width="50.6055" x="0" y="0"/>
  <path d="M32.4609 48.5156C35.9375 48.5156 37.3828 47.3633 39.1016 45.5078L48.2227 35.5273C49.8242 33.7695 50.2344 32.6172 50.2344 30.1367L50.2344 18.3789C50.2344 15.8984 49.8242 14.7656 48.2227 12.9883L39.1016 3.02734C37.3828 1.15234 35.9375 0 32.4609 0L17.7734 0C14.2969 0 12.8516 1.15234 11.1133 3.02734L2.01172 12.9883C0.410156 14.7656 0 15.8984 0 18.3789L0 30.1367C0 32.6172 0.410156 33.7695 2.01172 35.5273L11.1133 45.5078C12.8516 47.3633 14.2969 48.5156 17.7734 48.5156ZM25.1172 3.4375L25.1172 45.0781L18.8281 45.0781C16.0547 45.0781 15.3125 44.4336 13.7305 42.7539L5.17578 33.418C4.16016 32.3047 3.92578 31.6211 3.92578 29.7656L3.92578 18.75C3.92578 16.8945 4.16016 16.2305 5.17578 15.1172L13.7305 5.76172C15.3125 4.08203 16.0547 3.4375 18.8281 3.4375Z" fill="black" fill-opacity="0.85"/>
 </g>
</svg>
