<?xml version="1.0" encoding="UTF-8"?>
<!--Generator: Apple Native CoreSVG 326-->
<!DOCTYPE svg
PUBLIC "-//W3C//DTD SVG 1.1//EN"
       "http://www.w3.org/Graphics/SVG/1.1/DTD/svg11.dtd">
<svg version="1.1" xmlns="http://www.w3.org/2000/svg" xmlns:xlink="http://www.w3.org/1999/xlink" viewBox="0 0 88.7002 38.8867">
 <g>
  <rect height="38.8867" opacity="0" width="88.7002" x="0" y="0"/>
  <path d="M1.29348 13.75L13.8716 33.7305C15.2583 35.8789 17.231 36.7773 20.2974 36.7773L42.1138 36.7773C45.8638 36.7773 48.2857 35.8398 50.0825 33.5547L66.938 11.9141L77.2896 9.25781L80.688 12.1094C82.4654 13.6523 84.7896 11.3867 82.9732 9.76562L79.4185 6.67969C78.6568 6.03516 77.9927 5.78125 76.5474 6.17188L45.8638 14.1211L41.645 10.0391C40.5318 8.98438 39.3599 8.67188 37.8169 8.67188L20.2974 8.67188C19.4771 8.67188 18.7544 8.75 18.0904 8.90625L7.50442 5.05859C1.89895 3.00781-2.20261 8.30078 1.29348 13.75ZM16.1177 29.3359L16.1177 16.1133C16.1177 13.3203 17.6021 11.8359 20.356 11.8359L37.1333 11.8359C38.2661 11.8359 39.0279 11.9727 39.9263 12.8125L43.8716 16.6406C44.5943 17.3633 45.3169 17.5586 46.4302 17.2656L61.8794 13.2812L48.3052 30.6445C46.6646 32.7734 44.77 33.6133 42.1333 33.6133L20.356 33.6133C17.6021 33.6133 16.1177 32.1484 16.1177 29.3359ZM3.48098 11.4062C2.09426 9.16016 3.75442 7.08984 6.1177 7.92969L14.4185 10.957C13.4614 12.1484 12.9732 13.8086 12.9732 15.9375L12.9732 26.5234ZM20.2193 1.58203C20.2193 2.46094 20.9614 3.16406 21.8208 3.16406L36.5864 3.16406C37.4458 3.16406 38.188 2.46094 38.188 1.58203C38.188 0.722656 37.4458 0 36.5864 0L21.8208 0C20.9614 0 20.2193 0.722656 20.2193 1.58203ZM27.6216 10.7227L30.7857 10.7227L30.7857 1.30859L27.6216 1.30859ZM82.0747 38.8672C85.5122 38.8672 88.3247 36.1133 88.3247 32.6562C88.3247 30.6836 87.3872 28.8672 86.4302 27.1094L82.6216 20.0781C82.5239 19.8633 82.2896 19.7266 82.0747 19.7266C81.8208 19.7266 81.6646 19.8633 81.5279 20.1172L77.6997 27.1094C76.7622 28.8672 75.8052 30.6836 75.8052 32.6562C75.8052 36.1133 78.6177 38.8672 82.0747 38.8672Z" fill="black" fill-opacity="0.85"/>
 </g>
</svg>
