<?xml version="1.0" encoding="UTF-8"?>
<!--Generator: Apple Native CoreSVG 326-->
<!DOCTYPE svg
PUBLIC "-//W3C//DTD SVG 1.1//EN"
       "http://www.w3.org/Graphics/SVG/1.1/DTD/svg11.dtd">
<svg version="1.1" xmlns="http://www.w3.org/2000/svg" xmlns:xlink="http://www.w3.org/1999/xlink" viewBox="0 0 51.25 50.918">
 <g>
  <rect height="50.918" opacity="0" width="51.25" x="0" y="0"/>
  <path d="M15.8398 29.3555L15.3125 27.4609L1.62109 31.4844L2.20703 33.3984ZM17.2656 32.5L16.0742 30.8984L4.74609 38.8672L5.91797 40.4883ZM23.5156 35.957L21.6797 35.1953L17.6367 48.8281L19.5508 49.4336ZM27.4023 15.1953L29.2969 15.7617L33.2422 2.36328L31.3477 1.75781ZM33.5547 18.7695L34.7461 20.332L46.1328 12.3242L44.9609 10.7227ZM35.0781 21.8359L35.6836 23.6914L49.2773 19.707L48.6914 17.8125ZM25.4297 37.0898C31.875 37.0898 37.0703 31.875 37.0703 25.4492C37.0703 19.0039 31.875 13.8086 25.4297 13.8086C19.0039 13.8086 13.7891 19.0039 13.7891 25.4492C13.7891 31.875 19.0039 37.0898 25.4297 37.0898ZM25.4297 34.7656C20.293 34.7656 16.1133 30.5859 16.1133 25.4492C16.1133 20.293 20.293 16.1133 25.4297 16.1133C30.5859 16.1133 34.7656 20.293 34.7656 25.4492C34.7656 30.5859 30.5859 34.7656 25.4297 34.7656ZM25.4297 31.5039C28.7891 31.5039 31.5039 28.7891 31.5039 25.4492C31.5039 22.0898 28.7891 19.375 25.4297 19.375C22.0898 19.375 19.375 22.0898 19.375 25.4492C19.375 28.7891 22.0898 31.5039 25.4297 31.5039ZM25.4297 29.0039C23.457 29.0039 21.875 27.4219 21.875 25.4492C21.875 23.4766 23.457 21.875 25.4297 21.875C27.4023 21.875 29.0039 23.4766 29.0039 25.4492C29.0039 27.4219 27.4023 29.0039 25.4297 29.0039ZM25.4297 50.8789C39.4727 50.8789 50.8789 39.4922 50.8789 25.4492C50.8789 11.4062 39.4727 0 25.4297 0C11.3867 0 0 11.4062 0 25.4492C0 39.4922 11.3867 50.8789 25.4297 50.8789ZM25.4297 47.2461C13.3789 47.2461 3.63281 37.5 3.63281 25.4492C3.63281 13.3984 13.3789 3.65234 25.4297 3.65234C37.4805 3.65234 47.2266 13.3984 47.2266 25.4492C47.2266 37.5 37.4805 47.2461 25.4297 47.2461Z" fill="black" fill-opacity="0.85"/>
 </g>
</svg>
