<?xml version="1.0" encoding="UTF-8"?>
<!--Generator: Apple Native CoreSVG 326-->
<!DOCTYPE svg
PUBLIC "-//W3C//DTD SVG 1.1//EN"
       "http://www.w3.org/Graphics/SVG/1.1/DTD/svg11.dtd">
<svg version="1.1" xmlns="http://www.w3.org/2000/svg" xmlns:xlink="http://www.w3.org/1999/xlink" viewBox="0 0 58.9258 44.5898">
 <g>
  <rect height="44.5898" opacity="0" width="58.9258" x="0" y="0"/>
  <path d="M58.5547 18.4766L58.5547 26.0742C58.5547 39.2188 53.6328 44.5508 39.3555 44.5508L19.1992 44.5508C4.92188 44.5508 0 39.2188 0 26.0742L0 18.4766C0 5.33203 4.92188 0 19.1992 0L39.3555 0C53.6328 0 58.5547 5.33203 58.5547 18.4766ZM35.7227 12.4609L32.7148 14.8633C32.3047 15.1758 32.0117 15.6055 32.0117 16.1914C32.0117 16.9141 32.5 17.4219 33.2031 17.4219C33.5547 17.4219 33.7891 17.3047 34.0039 17.1094L36.5625 15.0586L36.5625 31.3086C36.5625 32.2461 37.3438 32.9883 38.2422 32.9883C39.1406 32.9883 39.9023 32.2461 39.9023 31.3086L39.9023 13.3789C39.9023 12.2266 39.1602 11.5234 38.0078 11.5234C37.0508 11.5234 36.2695 12.0508 35.7227 12.4609ZM19.1211 11.7969C18.1836 11.7969 17.4805 12.4219 17.4805 13.5547L17.4805 31.25C17.4805 32.3242 18.0664 32.9688 19.1406 32.9688C20.2539 32.9688 20.8008 32.3047 20.8008 31.25L20.8008 25.5664L23.7109 25.5664C27.5586 25.5664 29.7852 22.5977 29.7852 18.6914C29.7852 14.8242 27.5781 11.7969 23.8867 11.7969ZM26.4844 18.6914C26.4844 21.1133 25.4492 22.9102 23.0469 22.9102L20.8008 22.9102L20.8008 14.5312L23.0664 14.5312C25.3711 14.5312 26.4844 16.1719 26.4844 18.6914Z" fill="black" fill-opacity="0.85"/>
 </g>
</svg>
