<?xml version="1.0" encoding="UTF-8"?>
<!--Generator: Apple Native CoreSVG 326-->
<!DOCTYPE svg
PUBLIC "-//W3C//DTD SVG 1.1//EN"
       "http://www.w3.org/Graphics/SVG/1.1/DTD/svg11.dtd">
<svg version="1.1" xmlns="http://www.w3.org/2000/svg" xmlns:xlink="http://www.w3.org/1999/xlink" viewBox="0 0 58.9258 44.5898">
 <g>
  <rect height="44.5898" opacity="0" width="58.9258" x="0" y="0"/>
  <path d="M19.1992 44.5508L39.3555 44.5508C53.6328 44.5508 58.5547 39.2188 58.5547 26.0742L58.5547 18.4766C58.5547 5.33203 53.6328 0 39.3555 0L19.1992 0C4.92188 0 0 5.33203 0 18.4766L0 26.0742C0 39.2188 4.92188 44.5508 19.1992 44.5508ZM19.1992 41.0938C7.22656 41.0938 3.45703 37.0703 3.45703 26.0742L3.45703 18.4766C3.45703 7.48047 7.22656 3.47656 19.1992 3.47656L39.3555 3.47656C51.3281 3.47656 55.0977 7.48047 55.0977 18.4766L55.0977 26.0742C55.0977 37.0703 51.3281 41.0938 39.3555 41.0938Z" fill="black" fill-opacity="0.85"/>
  <path d="M18.0273 32.7148C19.1016 32.7148 19.6289 32.0508 19.6289 31.0547L19.6289 25.4688L22.4805 25.4688C26.2305 25.4688 28.418 22.5781 28.418 18.7695C28.418 15 26.2695 12.0703 22.6562 12.0703L18.0078 12.0703C17.1094 12.0703 16.4258 12.6562 16.4258 13.75L16.4258 31.0547C16.4258 32.0898 16.9922 32.7148 18.0273 32.7148ZM19.6289 22.8906L19.6289 14.6875L21.8555 14.6875C24.1211 14.6875 25.2148 16.3086 25.2148 18.7695C25.2148 21.1328 24.1992 22.8906 21.8359 22.8906ZM32.4805 32.4805L41.2109 32.4805C41.9922 32.4805 42.4805 31.9531 42.4805 31.1719C42.4805 30.3516 41.9727 29.8633 41.2109 29.8633L34.9219 29.8633L34.9219 29.6875L38.8867 24.5117C41.2695 21.4648 42.0703 19.6094 42.0703 17.4219C42.0703 14.082 39.9023 11.6016 36.5039 11.6016C33.3398 11.6016 31.0352 14.2773 31.0352 16.9141C31.0352 17.7148 31.5039 18.3008 32.3633 18.3008C33.0859 18.3008 33.5352 17.9688 33.75 17.2461C34.1992 15.3906 34.9023 14.1797 36.4844 14.1797C38.2031 14.1797 39.082 15.7422 39.082 17.5586C39.082 19.5508 37.8516 21.5039 36.4453 23.3398L31.7969 29.4336C31.3867 29.9609 30.9961 30.5078 30.9961 31.1719C30.9961 31.9336 31.5039 32.4805 32.4805 32.4805Z" fill="black" fill-opacity="0.85"/>
 </g>
</svg>
