<?xml version="1.0" encoding="UTF-8"?>
<!--Generator: Apple Native CoreSVG 326-->
<!DOCTYPE svg
PUBLIC "-//W3C//DTD SVG 1.1//EN"
       "http://www.w3.org/Graphics/SVG/1.1/DTD/svg11.dtd">
<svg version="1.1" xmlns="http://www.w3.org/2000/svg" xmlns:xlink="http://www.w3.org/1999/xlink" viewBox="0 0 58.9258 44.5898">
 <g>
  <rect height="44.5898" opacity="0" width="58.9258" x="0" y="0"/>
  <path d="M58.5547 18.4766L58.5547 26.0742C58.5547 39.2188 53.6328 44.5508 39.3555 44.5508L19.1992 44.5508C4.92188 44.5508 0 39.2188 0 26.0742L0 18.4766C0 5.33203 4.92188 0 19.1992 0L39.3555 0C53.6328 0 58.5547 5.33203 58.5547 18.4766ZM35.8984 13.7695L30.8984 24.375C30.5273 25.2539 30.3906 25.8398 30.3906 26.5625C30.3906 27.6758 31.1523 28.4375 32.3047 28.4375L38.3008 28.4375L38.3008 31.3867C38.3008 32.5781 39.1406 33.0469 39.8828 33.0469C40.7227 33.0469 41.4258 32.4805 41.4258 31.3867L41.4258 28.4375L42.5195 28.4375C43.3984 28.4375 43.8281 27.8711 43.8281 27.0898C43.8281 26.3477 43.3984 25.7812 42.5195 25.7812L41.4258 25.7812L41.4258 13.9844C41.4258 12.3438 40.3711 11.5234 38.9258 11.5234C37.3242 11.5234 36.5625 12.3438 35.8984 13.7695ZM17.6367 11.7969C16.6992 11.7969 15.9961 12.4219 15.9961 13.5547L15.9961 31.25C15.9961 32.3242 16.582 32.9688 17.6562 32.9688C18.75 32.9688 19.2969 32.3047 19.2969 31.25L19.2969 25.5664L22.207 25.5664C26.0547 25.5664 28.3008 22.5977 28.3008 18.6914C28.3008 14.8242 26.0742 11.7969 22.4023 11.7969ZM38.3594 25.8398L33.2227 25.8398L33.2227 25.7031L38.2617 14.4922L38.3594 14.4922ZM25 18.6914C25 21.1133 23.9648 22.8906 21.543 22.8906L19.2969 22.8906L19.2969 14.5117L21.5625 14.5117C23.8867 14.5117 25 16.1719 25 18.6914Z" fill="black" fill-opacity="0.85"/>
 </g>
</svg>
