<?xml version="1.0" encoding="UTF-8"?>
<!--Generator: Apple Native CoreSVG 326-->
<!DOCTYPE svg
PUBLIC "-//W3C//DTD SVG 1.1//EN"
       "http://www.w3.org/Graphics/SVG/1.1/DTD/svg11.dtd">
<svg version="1.1" xmlns="http://www.w3.org/2000/svg" xmlns:xlink="http://www.w3.org/1999/xlink" viewBox="0 0 37.3438 65.9328">
 <g>
  <rect height="65.9328" opacity="0" width="37.3438" x="0" y="0"/>
  <path d="M36.9727 38.3082C36.9727 27.9762 32.9492 13.6207 22.6758 2.83947C20.4102 0.51525 17.3242-0.851937 13.6719 0.593375L11.2305 1.53088C6.97266 3.23009 5.70312 6.19884 7.48047 10.2809C11.4258 19.2457 12.4219 25.7496 12.4219 31.3551C12.4219 33.6403 11.3086 34.9488 9.02344 34.9488L2.83203 34.9488C1.17188 34.9488 0 36.1793 0 37.9176L0 44.2457C0 45.8473 1.03516 46.9996 2.51953 46.9996L7.16797 46.9996C8.63281 46.9996 9.51172 47.7809 9.51172 49.0309C9.51172 50.1637 8.82812 51.6871 8.82812 53.5621C8.82812 57.4488 10.8594 60.1832 15.3125 62.3317L20.2148 64.734C24.4141 66.7653 28.3789 65.652 30.7617 61.8043C35.1367 54.6168 36.9727 47.4684 36.9727 38.3082Z" fill="black" fill-opacity="0.85"/>
 </g>
</svg>
