<?xml version="1.0" encoding="UTF-8"?>
<!--Generator: Apple Native CoreSVG 326-->
<!DOCTYPE svg
PUBLIC "-//W3C//DTD SVG 1.1//EN"
       "http://www.w3.org/Graphics/SVG/1.1/DTD/svg11.dtd">
<svg version="1.1" xmlns="http://www.w3.org/2000/svg" xmlns:xlink="http://www.w3.org/1999/xlink" viewBox="0 0 37.3438 65.9328">
 <g>
  <rect height="65.9328" opacity="0" width="37.3438" x="0" y="0"/>
  <path d="M0 38.3082C0 47.4684 1.83594 54.6168 6.21094 61.8043C8.59375 65.652 12.5586 66.7653 16.7578 64.734L21.6602 62.3317C26.1133 60.1832 28.1445 57.4488 28.1445 53.5621C28.1445 51.6871 27.4609 50.1637 27.4609 49.0309C27.4609 47.7809 28.3398 46.9996 29.8047 46.9996L34.4531 46.9996C35.9375 46.9996 36.9727 45.8473 36.9727 44.2457L36.9727 37.9176C36.9727 36.1793 35.8008 34.9488 34.1406 34.9488L27.9492 34.9488C25.6641 34.9488 24.5508 33.6403 24.5508 31.3551C24.5508 25.7496 25.5469 19.2457 29.4922 10.2809C31.2695 6.19884 30 3.23009 25.7422 1.53088L23.3008 0.593375C19.6484-0.851937 16.5625 0.51525 14.2969 2.83947C4.02344 13.6207 0 27.9762 0 38.3082ZM3.45703 38.3082C3.45703 28.7184 6.99219 15.4567 16.8945 5.08556C18.457 3.50353 19.707 2.93713 22.2656 3.89416L24.7461 4.83166C26.6602 5.55431 27.1875 6.99963 26.3086 8.91369C21.9336 18.6988 21.0547 25.8473 21.0547 29.9488C21.0547 41.1793 24.8633 49.6168 24.8633 53.0153C24.8633 55.984 23.7305 57.527 20.0195 59.3824L15.5469 61.6481C12.9883 62.9371 10.6055 62.3121 9.16016 60.0074C5.05859 53.2496 3.45703 47.0582 3.45703 38.3082Z" fill="black" fill-opacity="0.85"/>
 </g>
</svg>
