<?xml version="1.0" encoding="UTF-8"?>
<!--Generator: Apple Native CoreSVG 326-->
<!DOCTYPE svg
PUBLIC "-//W3C//DTD SVG 1.1//EN"
       "http://www.w3.org/Graphics/SVG/1.1/DTD/svg11.dtd">
<svg version="1.1" xmlns="http://www.w3.org/2000/svg" xmlns:xlink="http://www.w3.org/1999/xlink" viewBox="0 0 53.1449 59.2631">
 <g>
  <rect height="59.2631" opacity="0" width="53.1449" x="0" y="0"/>
  <path d="M3.06657 56.2038C7.12907 60.2468 11.8752 60.2859 15.8791 56.3015C19.1017 53.0788 22.2463 45.6374 24.7267 42.7468L30.3908 48.4304C32.1681 50.2273 34.3752 50.2273 36.133 48.4695L39.2775 45.3054C41.0158 43.5281 41.0158 41.3991 39.2189 39.6023L19.6681 20.0515C17.8517 18.2351 15.7228 18.2156 13.9455 19.9929L10.8009 23.1374C9.04313 24.8952 9.0236 27.0632 10.8205 28.8796L16.4845 34.5241C13.633 37.0046 6.19157 40.1687 2.96891 43.3718C-1.01547 47.3757-0.995934 52.1218 3.06657 56.2038ZM13.7306 25.0906L15.9377 22.9421C16.5822 22.2976 17.3048 22.2781 17.9494 22.9226L36.3283 41.3015C36.9728 41.946 36.9533 42.6687 36.3088 43.3327L34.1798 45.5007C33.5158 46.1843 32.7541 46.1843 32.1095 45.5202L25.9767 39.3484C25.1173 38.489 24.0236 38.5476 23.047 39.4851C20.9181 41.5945 17.4025 50.0906 13.5353 53.9577C11.0158 56.5163 7.96891 56.4773 5.35172 53.8991C2.7736 51.3015 2.75407 48.2156 5.29313 45.7156C9.16032 41.8484 17.6759 38.3327 19.7658 36.2038C20.7033 35.2273 20.7814 34.1335 19.922 33.2937L13.7306 27.1413C13.0861 26.4773 13.0861 25.7351 13.7306 25.0906ZM9.2775 53.0398C10.9572 53.0398 12.3048 51.6921 12.3048 49.9929C12.3048 48.3327 10.9572 46.9656 9.2775 46.9656C7.59782 46.9656 6.23063 48.3327 6.23063 49.9929C6.23063 51.6921 7.59782 53.0398 9.2775 53.0398ZM38.9845 41.6726L50.7814 29.8757C53.4767 27.1999 53.4377 23.9382 50.6838 21.1843L31.0353 1.51633C28.4963-1.02273 24.2384-0.0461684 23.3595 3.87961C21.133 13.6452 20.8009 15.3835 17.1291 20.5007L19.6291 22.9812C23.7502 17.4148 24.2189 14.6413 26.5627 5.61789C26.9338 4.09446 28.2033 3.76243 29.1213 4.66086L48.0861 23.6062C49.3556 24.8952 49.3556 26.4773 48.1252 27.7077L36.5822 39.2702ZM35.3322 27.3366C36.6603 28.6452 44.0236 24.5632 46.5627 21.3796L41.0158 15.8523C40.547 20.3249 38.2228 23.5281 35.3908 26.3601C35.0783 26.6921 35.1173 27.1023 35.3322 27.3366Z" fill="black" fill-opacity="0.85"/>
 </g>
</svg>
