<?xml version="1.0" encoding="UTF-8"?>
<!--Generator: Apple Native CoreSVG 326-->
<!DOCTYPE svg
PUBLIC "-//W3C//DTD SVG 1.1//EN"
       "http://www.w3.org/Graphics/SVG/1.1/DTD/svg11.dtd">
<svg version="1.1" xmlns="http://www.w3.org/2000/svg" xmlns:xlink="http://www.w3.org/1999/xlink" viewBox="0 0 54.981 51.0989">
 <g>
  <rect height="51.0989" opacity="0" width="54.981" x="0" y="0"/>
  <path d="M0.82058 45.5006C5.48855 51.5944 15.2737 52.942 21.0159 48.4108C25.8401 44.6413 26.8753 38.7624 22.9495 33.86C19.4339 29.3483 14.1995 28.3131 10.2737 31.4186C6.62136 34.3092 7.89089 38.235 5.78152 39.9147C4.06277 41.2428 2.18777 40.4811 0.859642 41.5749C-0.11692 42.3756-0.42942 43.8795 0.82058 45.5006ZM5.07839 45.0124C4.62917 44.5045 4.66824 44.0163 4.9612 43.7428C5.41042 43.3131 6.93386 43.4108 8.10574 42.2389C10.4885 39.8756 9.6487 36.4577 12.344 34.2702C14.7073 32.278 18.1448 32.942 20.43 35.735C23.1643 39.0358 22.3245 43.0592 19.0237 45.7545C15.176 48.9772 8.7112 48.9186 5.07839 45.0124ZM24.6878 39.3092C27.3831 39.0553 29.5706 37.7858 32.1096 35.2467C40.0198 27.317 52.637 9.07486 53.7307 7.51236C56.68 3.33267 51.6214-1.68686 47.4417 1.22329C45.8987 2.31704 27.6175 14.8756 19.7073 22.8444C17.2073 25.3639 15.9378 27.5319 15.6448 30.1881L19.0628 31.0866C19.0823 29.192 20.0784 27.3366 22.1487 25.2858C30.0784 17.4538 47.8909 5.12954 49.1018 4.23111C50.2542 3.39126 51.5432 4.66079 50.7034 5.87173C49.9417 6.98501 37.3831 25.0709 29.6487 32.8053C27.5003 34.9538 25.8987 35.735 24.1018 35.8717ZM29.512 33.4303L32.305 32.7467C31.9143 27.942 27.0901 23.0788 22.3831 22.6491L21.4846 25.442C24.9026 25.4811 29.4143 29.9928 29.512 33.4303Z" fill="black" fill-opacity="0.85"/>
 </g>
</svg>
