<?xml version="1.0" encoding="UTF-8"?>
<!--Generator: Apple Native CoreSVG 326-->
<!DOCTYPE svg
PUBLIC "-//W3C//DTD SVG 1.1//EN"
       "http://www.w3.org/Graphics/SVG/1.1/DTD/svg11.dtd">
<svg version="1.1" xmlns="http://www.w3.org/2000/svg" xmlns:xlink="http://www.w3.org/1999/xlink" viewBox="0 0 51.25 50.918">
 <g>
  <rect height="50.918" opacity="0" width="51.25" x="0" y="0"/>
  <path d="M25.4297 50.8789C39.4727 50.8789 50.8789 39.4922 50.8789 25.4492C50.8789 11.4062 39.4727 0 25.4297 0C11.3867 0 0 11.4062 0 25.4492C0 39.4922 11.3867 50.8789 25.4297 50.8789ZM25.4297 47.2461C13.3789 47.2461 3.63281 37.5 3.63281 25.4492C3.63281 13.3984 13.3789 3.65234 25.4297 3.65234C37.4805 3.65234 47.2266 13.3984 47.2266 25.4492C47.2266 37.5 37.4805 47.2461 25.4297 47.2461Z" fill="black" fill-opacity="0.85"/>
  <path d="M25.9766 41.4844C26.8945 41.4844 27.5586 40.7422 28.0273 39.4922L37.5 14.707C37.7148 14.1406 37.8516 13.6523 37.8516 13.2227C37.8516 12.4023 37.3438 11.8945 36.5234 11.8945C36.0938 11.8945 35.6055 12.0312 35.0391 12.2461L10.1562 21.7578C9.04297 22.168 8.26172 22.832 8.26172 23.7695C8.26172 24.9219 9.10156 25.332 10.3906 25.7422L18.6328 28.2227C19.4336 28.4766 19.9414 28.4375 20.4492 27.9297L35.957 13.3008C36.1328 13.1445 36.3086 13.1836 36.4648 13.2812C36.6406 13.3984 36.6016 13.6133 36.4453 13.7891L21.8555 29.3555C21.3672 29.8633 21.3086 30.332 21.5234 31.1523L23.9844 39.2383C24.4141 40.5664 24.7852 41.4844 25.9766 41.4844Z" fill="black" fill-opacity="0.85"/>
 </g>
</svg>
