<?xml version="1.0" encoding="UTF-8"?>
<!--Generator: Apple Native CoreSVG 326-->
<!DOCTYPE svg
PUBLIC "-//W3C//DTD SVG 1.1//EN"
       "http://www.w3.org/Graphics/SVG/1.1/DTD/svg11.dtd">
<svg version="1.1" xmlns="http://www.w3.org/2000/svg" xmlns:xlink="http://www.w3.org/1999/xlink" viewBox="0 0 55.1562 55.1367">
 <g>
  <rect height="55.1367" opacity="0" width="55.1562" x="0" y="0"/>
  <path d="M31.25 55.1367C32.9102 55.1367 34.082 53.7695 34.9219 51.543L51.6016 7.96875C51.9922 6.95312 52.207 6.05469 52.207 5.3125C52.207 3.82812 51.3086 2.91016 49.8242 2.91016C49.0625 2.91016 48.1836 3.14453 47.168 3.53516L3.39844 20.2734C1.42578 21.0352 0 22.207 0 23.8867C0 25.9375 1.52344 26.6797 3.82812 27.3828L22.3242 32.793L27.7148 51.1328C28.418 53.5156 29.1602 55.1367 31.25 55.1367ZM23.3008 29.5117L5.42969 24.1406C4.80469 23.9453 4.66797 23.8086 4.66797 23.5938C4.66797 23.3594 4.80469 23.1641 5.3125 22.9883L41.543 9.23828C43.2617 8.57422 44.9219 7.73438 46.4648 7.03125C45.0586 8.16406 43.1836 9.62891 42.0508 10.7617ZM31.5625 50.5078C31.3281 50.5078 31.1914 50.3125 30.9961 49.707L25.6055 31.8359L44.375 13.0664C45.4883 11.9531 46.9922 10.0586 48.125 8.63281C47.4219 10.1758 46.5625 11.8555 45.8984 13.5742L32.1484 49.8047C31.9531 50.332 31.7969 50.5078 31.5625 50.5078Z" fill="black" fill-opacity="0.85"/>
 </g>
</svg>
