<?xml version="1.0" encoding="UTF-8"?>
<!--Generator: Apple Native CoreSVG 326-->
<!DOCTYPE svg
PUBLIC "-//W3C//DTD SVG 1.1//EN"
       "http://www.w3.org/Graphics/SVG/1.1/DTD/svg11.dtd">
<svg version="1.1" xmlns="http://www.w3.org/2000/svg" xmlns:xlink="http://www.w3.org/1999/xlink" viewBox="0 0 39.9805 47.3633">
 <g>
  <rect height="47.3633" opacity="0" width="39.9805" x="0" y="0"/>
  <path d="M0 12.9883C0 20.5078 5.33203 25.4688 13.4961 25.4688L17.6758 25.4688L17.6758 45.3906C17.6758 46.6016 18.4375 47.3633 19.6289 47.3633C20.8203 47.3633 21.6211 46.6016 21.6211 45.3906L21.6211 4.41406L27.4414 4.41406L27.4414 45.3906C27.4414 46.6016 28.1836 47.3633 29.375 47.3633C30.5664 47.3633 31.3672 46.6016 31.3672 45.3906L31.3672 4.41406L35.7227 4.41406C36.9141 4.41406 37.6953 3.61328 37.6953 2.42188C37.6953 1.23047 36.9141 0.46875 35.7227 0.46875L13.3984 0.46875C5.29297 0.46875 0 5.41016 0 12.9883Z" fill="black" fill-opacity="0.85"/>
 </g>
</svg>
