<?xml version="1.0" encoding="UTF-8"?>
<!--Generator: Apple Native CoreSVG 326-->
<!DOCTYPE svg
PUBLIC "-//W3C//DTD SVG 1.1//EN"
       "http://www.w3.org/Graphics/SVG/1.1/DTD/svg11.dtd">
<svg version="1.1" xmlns="http://www.w3.org/2000/svg" xmlns:xlink="http://www.w3.org/1999/xlink" viewBox="0 0 37.0117 55.6445">
 <g>
  <rect height="55.6445" opacity="0" width="37.0117" x="0" y="0"/>
  <path d="M10.2539 55.625C11.0352 55.625 11.6602 55.0586 11.6602 54.3555C11.6602 53.9062 11.4844 53.4766 11.1328 52.9102C6.62109 45.6445 4.16016 36.4062 4.16016 27.8125C4.16016 19.1992 6.62109 9.96094 11.1328 2.71484C11.4844 2.14844 11.6602 1.71875 11.6602 1.25C11.6602 0.546875 11.0352 0 10.2539 0C9.43359 0 8.90625 0.46875 8.20312 1.50391C2.77344 9.16016 0 18.6523 0 27.8125C0 36.9727 2.77344 46.4453 8.20312 54.1016C8.90625 55.1367 9.43359 55.625 10.2539 55.625ZM26.3867 55.625C27.1875 55.625 27.7344 55.1367 28.4375 54.1016C33.8477 46.4453 36.6406 36.9727 36.6406 27.8125C36.6406 18.6523 33.8477 9.16016 28.4375 1.50391C27.7344 0.46875 27.1875 0 26.3867 0C25.6055 0 24.9805 0.546875 24.9805 1.25C24.9805 1.71875 25.1562 2.14844 25.5078 2.71484C30.0195 9.96094 32.4805 19.1992 32.4805 27.8125C32.4805 36.4062 30.0195 45.6445 25.5078 52.9102C25.1562 53.4766 24.9805 53.9062 24.9805 54.3555C24.9805 55.0586 25.6055 55.625 26.3867 55.625Z" fill="black" fill-opacity="0.85"/>
 </g>
</svg>
