<?xml version="1.0" encoding="UTF-8"?>
<!--Generator: Apple Native CoreSVG 326-->
<!DOCTYPE svg
PUBLIC "-//W3C//DTD SVG 1.1//EN"
       "http://www.w3.org/Graphics/SVG/1.1/DTD/svg11.dtd">
<svg version="1.1" xmlns="http://www.w3.org/2000/svg" xmlns:xlink="http://www.w3.org/1999/xlink" viewBox="0 0 31.6797 47.8711">
 <g>
  <rect height="47.8711" opacity="0" width="31.6797" x="0" y="0"/>
  <path d="M2.57812 47.8711C4.14062 47.8711 5.15625 46.7969 5.15625 45.1953L5.15625 29.8438L15.9961 29.8438C25.1172 29.8438 31.3086 23.8281 31.3086 15.0391C31.3086 6.23047 25.1367 0.253906 16.0156 0.253906L2.57812 0.253906C1.03516 0.253906 0 1.30859 0 2.91016L0 45.1953C0 46.8164 1.03516 47.8711 2.57812 47.8711ZM5.15625 25.0781L5.15625 5L15.0977 5C21.9922 5 26.0547 8.69141 26.0547 15.0391C26.0547 21.3672 21.9727 25.0781 15.0977 25.0781Z" fill="black" fill-opacity="0.85"/>
 </g>
</svg>
