<?xml version="1.0" encoding="UTF-8"?>
<!--Generator: Apple Native CoreSVG 326-->
<!DOCTYPE svg
PUBLIC "-//W3C//DTD SVG 1.1//EN"
       "http://www.w3.org/Graphics/SVG/1.1/DTD/svg11.dtd">
<svg version="1.1" xmlns="http://www.w3.org/2000/svg" xmlns:xlink="http://www.w3.org/1999/xlink" viewBox="0 0 34.668 52.4023">
 <g>
  <rect height="52.4023" opacity="0" width="34.668" x="0" y="0"/>
  <path d="M18.0469 32.0898C22.0508 31.9727 25.9766 30.293 28.9844 27.2852C31.9531 24.2969 33.6328 20.4102 33.7305 16.3867C33.7891 15.4883 33.1641 14.8633 32.4023 14.9219C31.582 14.9609 31.1719 15.6055 31.1328 16.4453C30.9766 19.7852 29.6289 22.8906 27.1094 25.4297C24.5898 27.9492 21.4648 29.2773 18.125 29.4336C17.2852 29.4727 16.5625 29.9219 16.5625 30.7617C16.5625 31.582 17.1484 32.1289 18.0469 32.0898Z" fill="black" fill-opacity="0.85"/>
  <path d="M18.1836 25.5859C20.4492 25.4102 22.6562 24.375 24.375 22.7148C26.0742 20.9766 27.0703 18.75 27.2852 16.5039C27.3828 15.5859 26.6602 14.9219 25.8984 14.9609C25.1367 15 24.707 15.6641 24.6094 16.5039C24.4727 18.0859 23.7305 19.5898 22.4609 20.8203C21.25 22.0703 19.7461 22.8125 18.1641 22.9492C17.3438 23.0664 16.6211 23.4375 16.6211 24.3164C16.6016 25.1562 17.207 25.6836 18.1836 25.5859Z" fill="black" fill-opacity="0.85"/>
  <path d="M2.65625 31.543C3.76953 31.543 4.49219 30.8008 4.49219 29.6484L4.49219 19.7852L11.3867 19.7852C17.4609 19.7852 21.582 15.8203 21.582 9.96094C21.582 4.14062 17.4805 0.136719 11.4062 0.136719L2.65625 0.136719C1.54297 0.136719 0.78125 0.878906 0.78125 2.03125L0.78125 29.6484C0.78125 30.8008 1.54297 31.543 2.65625 31.543ZM4.49219 16.3281L4.49219 3.57422L10.8008 3.57422C15.2344 3.57422 17.7734 5.87891 17.7734 9.96094C17.7734 14.0234 15.2344 16.3281 10.8008 16.3281Z" fill="black" fill-opacity="0.85"/>
  <path d="M6.17188 52.4023C10.332 52.4023 12.3438 49.2969 12.3438 45.2344C12.3438 41.1328 10.293 38.0078 6.17188 38.0078C2.16797 38.0078 0 41.0547 0 45.2344C0 49.2383 1.99219 52.4023 6.17188 52.4023ZM6.17188 50.0391C3.75 50.0391 2.87109 47.5781 2.87109 45.2344C2.87109 42.7344 3.82812 40.3906 6.17188 40.3906C8.65234 40.3906 9.49219 42.8906 9.49219 45.2344C9.49219 47.793 8.49609 50.0391 6.17188 50.0391ZM16.1328 52.2461C17.1289 52.2461 17.5391 51.6016 17.5391 50.8008L17.5391 46.6211L21.7969 46.6211C22.5195 46.6211 22.9883 46.2109 22.9883 45.4883C22.9883 44.7852 22.5391 44.3555 21.7969 44.3555L17.5391 44.3555L17.5391 40.7031L22.2266 40.7031C23.0273 40.7031 23.4766 40.2734 23.4766 39.5312C23.4766 38.7891 23.0273 38.3398 22.2266 38.3398L16.1133 38.3398C15.293 38.3398 14.7266 38.8867 14.7266 39.8047L14.7266 50.8008C14.7266 51.582 15.1562 52.2461 16.1328 52.2461ZM26.9727 52.2461C27.9492 52.2461 28.3789 51.6016 28.3789 50.8008L28.3789 46.6211L32.6172 46.6211C33.3398 46.6211 33.8281 46.2109 33.8281 45.4883C33.8281 44.7852 33.3594 44.3555 32.6172 44.3555L28.3789 44.3555L28.3789 40.7031L33.0469 40.7031C33.8477 40.7031 34.2969 40.2734 34.2969 39.5312C34.2969 38.7891 33.8477 38.3398 33.0469 38.3398L26.9531 38.3398C26.1133 38.3398 25.5664 38.8867 25.5664 39.8047L25.5664 50.8008C25.5664 51.582 25.9766 52.2461 26.9727 52.2461Z" fill="black" fill-opacity="0.85"/>
 </g>
</svg>
