<?xml version="1.0" encoding="UTF-8"?>
<!--Generator: Apple Native CoreSVG 326-->
<!DOCTYPE svg
PUBLIC "-//W3C//DTD SVG 1.1//EN"
       "http://www.w3.org/Graphics/SVG/1.1/DTD/svg11.dtd">
<svg version="1.1" xmlns="http://www.w3.org/2000/svg" xmlns:xlink="http://www.w3.org/1999/xlink" viewBox="0 0 75.7617 61.8605">
 <g>
  <rect height="61.8605" opacity="0" width="75.7617" x="0" y="0"/>
  <path d="M7.59766 7.50254L8.46571 8.37059C5.29179 12.0509 3.49609 16.8056 3.49609 22.0533C3.49609 27.5807 5.48828 32.5611 8.96484 36.3307C9.72656 37.2096 9.94141 38.2252 9.27734 38.9869C8.57422 39.7877 7.38281 39.7877 6.5625 38.8697C2.38281 34.4361 0 28.4986 0 22.0533C0 15.6744 2.33396 9.79293 6.44032 5.37963C6.61304 6.1591 7.00037 6.89839 7.59766 7.50254ZM68.8477 5.23691C73.0078 9.6705 75.3906 15.608 75.3906 22.0533C75.3906 28.4986 73.0078 34.4361 68.8477 38.8697C68.0273 39.7877 66.8164 39.7877 66.1328 38.9869C65.4492 38.2252 65.6641 37.2096 66.4258 36.3307C69.9219 32.5611 71.8945 27.5807 71.8945 22.0533C71.8945 16.526 69.9219 11.5455 66.4258 7.77597C65.6641 6.89707 65.4492 5.90097 66.1328 5.11972C66.8164 4.31894 68.0273 4.33847 68.8477 5.23691Z" fill="black" fill-opacity="0.85"/>
  <path d="M15.5269 15.4318C14.1558 17.2504 13.4961 19.5714 13.4961 22.0533C13.4961 24.7877 14.2969 27.3268 15.957 29.2213C16.6406 30.1393 16.9336 31.1158 16.25 31.8775C15.5273 32.6783 14.2578 32.6978 13.4961 31.7213C11.2695 29.1041 10 25.7057 10 22.0533C10 18.6568 11.0979 15.4968 13.0536 12.9585ZM61.9141 12.3853C64.1211 15.0221 65.4102 18.401 65.4102 22.0533C65.4102 25.7057 64.1211 29.1041 61.9141 31.7213C61.1523 32.6978 59.8633 32.6783 59.1602 31.8775C58.4766 31.1158 58.75 30.1393 59.4336 29.2213C61.0938 27.3268 61.9141 24.7877 61.9141 22.0533C61.9141 19.3189 61.0938 16.7799 59.4336 14.8853C58.75 13.9674 58.4766 13.0103 59.1602 12.2291C59.8633 11.4283 61.1523 11.4283 61.9141 12.3853Z" fill="black" fill-opacity="0.85"/>
  <path d="M27.9102 27.815L27.9102 32.0728L32.168 32.0728L36.9336 36.8385L27.9102 36.8385L27.9102 52.19C27.9102 53.7916 26.875 54.8658 25.332 54.8658C23.7695 54.8658 22.7539 53.8111 22.7539 52.19L22.7539 22.6588ZM54.0625 22.0338C54.0625 27.6965 51.4843 32.2079 47.2057 34.6887L43.5036 30.9866C46.9042 29.4574 48.8086 26.3561 48.8086 22.0338C48.8086 15.6861 44.7461 11.9947 37.8516 11.9947L27.9102 11.9947L27.9102 15.3932L22.7539 10.2369L22.7539 9.90488C22.7539 8.30332 23.7695 7.24863 25.332 7.24863L38.7695 7.24863C47.8711 7.24863 54.0625 13.2252 54.0625 22.0338Z" fill="black" fill-opacity="0.85"/>
  <path d="M60.1953 56.2525C60.8398 56.8971 61.9141 56.8971 62.5391 56.2525C63.2031 55.5689 63.2031 54.5338 62.5391 53.8893L11.8945 3.20566C11.25 2.58066 10.1953 2.5416 9.51172 3.20566C8.88672 3.85019 8.88672 4.94394 9.51172 5.56894Z" fill="black" fill-opacity="0.85"/>
 </g>
</svg>
