<?xml version="1.0" encoding="UTF-8"?>
<!--Generator: Apple Native CoreSVG 326-->
<!DOCTYPE svg
PUBLIC "-//W3C//DTD SVG 1.1//EN"
       "http://www.w3.org/Graphics/SVG/1.1/DTD/svg11.dtd">
<svg version="1.1" xmlns="http://www.w3.org/2000/svg" xmlns:xlink="http://www.w3.org/1999/xlink" viewBox="0 0 59.5508 45.918">
 <g>
  <rect height="45.918" opacity="0" width="59.5508" x="0" y="0"/>
  <path d="M59.1797 7.53906L59.1797 38.3984C59.1797 43.3594 56.6211 45.918 51.5625 45.918L7.59766 45.918C2.55859 45.918 0 43.3984 0 38.3984L0 7.53906C0 2.53906 2.55859 0 7.59766 0L51.5625 0C56.6211 0 59.1797 2.55859 59.1797 7.53906ZM22.3828 12.9688C21.1719 12.9688 20.6055 13.6328 20.6055 14.5898L20.6055 31.3086C20.6055 32.2656 21.1719 32.9297 22.3828 32.9297L24.9414 32.9297C26.1719 32.9297 26.7188 32.2656 26.7188 31.3086L26.7188 14.5898C26.7188 13.6328 26.1719 12.9688 24.9414 12.9688ZM34.2773 12.9688C33.0664 12.9688 32.5 13.6328 32.5 14.5898L32.5 31.3086C32.5 32.2656 33.0664 32.9297 34.2773 32.9297L36.8359 32.9297C38.0469 32.9297 38.5938 32.2656 38.5938 31.3086L38.5938 14.5898C38.5938 13.6328 38.0469 12.9688 36.8359 12.9688Z" fill="black" fill-opacity="0.85"/>
 </g>
</svg>
