<?xml version="1.0" encoding="UTF-8"?>
<!--Generator: Apple Native CoreSVG 326-->
<!DOCTYPE svg
PUBLIC "-//W3C//DTD SVG 1.1//EN"
       "http://www.w3.org/Graphics/SVG/1.1/DTD/svg11.dtd">
<svg version="1.1" xmlns="http://www.w3.org/2000/svg" xmlns:xlink="http://www.w3.org/1999/xlink" viewBox="0 0 51.25 50.918">
 <g>
  <rect height="50.918" opacity="0" width="51.25" x="0" y="0"/>
  <path d="M50.8789 25.4492C50.8789 39.4531 39.4531 50.8789 25.4297 50.8789C11.4258 50.8789 0 39.4531 0 25.4492C0 11.4258 11.4258 0 25.4297 0C39.4531 0 50.8789 11.4258 50.8789 25.4492ZM18.2227 15.4492C16.9922 15.4492 16.4453 16.1133 16.4453 17.0703L16.4453 33.7891C16.4453 34.7461 16.9922 35.4102 18.2227 35.4102L20.7812 35.4102C22.0117 35.4102 22.5586 34.7461 22.5586 33.7891L22.5586 17.0703C22.5586 16.1133 22.0117 15.4492 20.7812 15.4492ZM30.1172 15.4492C28.8867 15.4492 28.3203 16.1133 28.3203 17.0703L28.3203 33.7891C28.3203 34.7461 28.8867 35.4102 30.1172 35.4102L32.6758 35.4102C33.8672 35.4102 34.4336 34.7461 34.4336 33.7891L34.4336 17.0703C34.4336 16.1133 33.8672 15.4492 32.6758 15.4492Z" fill="black" fill-opacity="0.85"/>
 </g>
</svg>
