<?xml version="1.0" encoding="UTF-8"?>
<!--Generator: Apple Native CoreSVG 326-->
<!DOCTYPE svg
PUBLIC "-//W3C//DTD SVG 1.1//EN"
       "http://www.w3.org/Graphics/SVG/1.1/DTD/svg11.dtd">
<svg version="1.1" xmlns="http://www.w3.org/2000/svg" xmlns:xlink="http://www.w3.org/1999/xlink" viewBox="0 0 20.625 41.1133">
 <g>
  <rect height="41.1133" opacity="0" width="20.625" x="0" y="0"/>
  <path d="M1.83594 41.0742C2.83203 41.0742 3.65234 40.293 3.65234 39.2969L3.65234 1.79688C3.65234 0.78125 2.83203 0 1.83594 0C0.820312 0 0 0.78125 0 1.79688L0 39.2969C0 40.293 0.820312 41.0742 1.83594 41.0742ZM18.4375 41.0742C19.4336 41.0742 20.2539 40.293 20.2539 39.2969L20.2539 1.79688C20.2539 0.78125 19.4336 0 18.4375 0C17.4219 0 16.6016 0.78125 16.6016 1.79688L16.6016 39.2969C16.6016 40.293 17.4219 41.0742 18.4375 41.0742Z" fill="black" fill-opacity="0.85"/>
 </g>
</svg>
