<?xml version="1.0" encoding="UTF-8"?>
<!--Generator: Apple Native CoreSVG 326-->
<!DOCTYPE svg
PUBLIC "-//W3C//DTD SVG 1.1//EN"
       "http://www.w3.org/Graphics/SVG/1.1/DTD/svg11.dtd">
<svg version="1.1" xmlns="http://www.w3.org/2000/svg" xmlns:xlink="http://www.w3.org/1999/xlink" viewBox="0 0 51.25 50.918">
 <g>
  <rect height="50.918" opacity="0" width="51.25" x="0" y="0"/>
  <path d="M25.4297 50.8789C39.4727 50.8789 50.8789 39.4922 50.8789 25.4492C50.8789 11.4062 39.4727 0 25.4297 0C11.3867 0 0 11.4062 0 25.4492C0 39.4922 11.3867 50.8789 25.4297 50.8789ZM25.4297 47.2461C13.3789 47.2461 3.63281 37.5 3.63281 25.4492C3.63281 13.3984 13.3789 3.65234 25.4297 3.65234C37.4805 3.65234 47.2266 13.3984 47.2266 25.4492C47.2266 37.5 37.4805 47.2461 25.4297 47.2461Z" fill="black" fill-opacity="0.85"/>
  <path d="M12.1289 23.418C12.1289 25.957 13.418 27.8516 15.1562 27.8516C16.8945 27.8516 18.2031 25.957 18.2031 23.418C18.2031 20.8789 16.8945 18.9648 15.1562 18.9648C13.418 18.9648 12.1289 20.8789 12.1289 23.418ZM18.2617 16.1133C18.2617 18.6523 19.5898 20.5664 21.3086 20.5664C23.0469 20.5664 24.3359 18.6523 24.3359 16.1133C24.3359 13.5742 23.0469 11.6797 21.3086 11.6797C19.5898 11.6797 18.2617 13.5742 18.2617 16.1133ZM26.5234 16.1133C26.5234 18.6523 27.8125 20.5664 29.5312 20.5664C31.2695 20.5664 32.5781 18.6523 32.5781 16.1133C32.5781 13.5742 31.2695 11.6797 29.5312 11.6797C27.8125 11.6797 26.5234 13.5742 26.5234 16.1133ZM32.6562 23.418C32.6562 25.957 33.9648 27.8516 35.7031 27.8516C37.4219 27.8516 38.7305 25.957 38.7305 23.418C38.7305 20.8789 37.4219 18.9648 35.7031 18.9648C33.9648 18.9648 32.6562 20.8789 32.6562 23.418ZM15.8594 33.3203C15.8594 35.8594 17.5977 37.6562 20.1367 37.6562C21.3867 37.6562 22.3047 37.3242 23.1836 36.9922C23.9062 36.7188 24.5898 36.4844 25.4297 36.4844C26.25 36.4844 26.9336 36.7188 27.6562 36.9922C28.5352 37.3242 29.4531 37.6562 30.7031 37.6562C33.2422 37.6562 34.9805 35.8594 34.9805 33.3203C34.9805 31.1328 33.6328 29.9805 32.3633 28.9258C31.6797 28.3789 31.0156 27.8516 30.5664 27.1484C30.2148 26.6211 29.9023 25.9961 29.6484 25.4102C28.7695 23.4766 27.9883 21.5625 25.4297 21.5625C22.8516 21.5625 22.0703 23.4766 21.2109 25.4102C20.9375 25.9766 20.6445 26.6016 20.293 27.1094C19.8438 27.832 19.1602 28.3789 18.4766 28.9258C17.207 29.9805 15.8594 31.1328 15.8594 33.3203Z" fill="black" fill-opacity="0.85"/>
 </g>
</svg>
