<?xml version="1.0" encoding="UTF-8"?>
<!--Generator: Apple Native CoreSVG 326-->
<!DOCTYPE svg
PUBLIC "-//W3C//DTD SVG 1.1//EN"
       "http://www.w3.org/Graphics/SVG/1.1/DTD/svg11.dtd">
<svg version="1.1" xmlns="http://www.w3.org/2000/svg" xmlns:xlink="http://www.w3.org/1999/xlink" viewBox="0 0 54.5508 53.3789">
 <g>
  <rect height="53.3789" opacity="0" width="54.5508" x="0" y="0"/>
  <path d="M17.0898 53.2812C19.6094 53.2812 21.3867 52.6367 22.9102 51.9922C24.4141 51.3672 25.6055 50.7227 27.0508 50.7227C28.5156 50.7227 29.707 51.3672 31.2109 51.9922C32.7344 52.6367 34.5117 53.2812 37.0312 53.2812C42.3633 53.2812 46.4258 49.4336 46.4258 44.3555C46.4258 39.2969 43.457 36.8555 40.8984 34.7852C39.5508 33.7305 38.3594 32.7734 37.6562 31.6016C37.0312 30.5469 36.5039 29.3555 35.9766 28.125C34.3164 24.3164 32.5195 20.2344 27.0508 20.2344C21.582 20.2344 19.7852 24.3359 18.1445 28.125C17.6172 29.3359 17.1289 30.5078 16.5234 31.5234C15.8008 32.7148 14.5703 33.7109 13.2227 34.7852C10.6445 36.8555 7.69531 39.3164 7.69531 44.3555C7.69531 49.4336 11.7578 53.2812 17.0898 53.2812ZM17.0898 50.1367C13.457 50.1367 10.8398 47.7148 10.8398 44.3555C10.8398 38.2812 16.0742 38.3594 19.082 33.2617C21.3672 29.3945 22.2266 23.3789 27.0508 23.3789C31.9141 23.3789 32.7539 29.3945 35.0977 33.3398C38.0469 38.3594 43.2812 38.2812 43.2812 44.3555C43.2812 47.7148 40.6641 50.1367 37.0312 50.1367C33.3398 50.1367 30.9961 47.5977 27.0508 47.5977C23.125 47.5977 20.7812 50.1367 17.0898 50.1367ZM0 23.9844C0 29.6289 2.61719 33.418 6.60156 33.418C10.5859 33.418 13.2422 29.6289 13.2422 23.9844C13.2422 18.3203 10.5859 14.5508 6.60156 14.5508C2.61719 14.5508 0 18.3203 0 23.9844ZM3.02734 23.9844C3.02734 20.1172 4.43359 17.5586 6.60156 17.5586C8.76953 17.5586 10.2148 20.1172 10.2148 23.9844C10.2148 27.832 8.76953 30.3906 6.60156 30.3906C4.43359 30.3906 3.02734 27.8516 3.02734 23.9844ZM12.2656 9.39453C12.2656 15.0977 14.8828 18.8477 18.8477 18.8477C22.832 18.8477 25.4883 15.0586 25.4883 9.39453C25.4883 3.75 22.8516 0 18.8477 0C14.8828 0 12.2656 3.73047 12.2656 9.39453ZM15.2734 9.39453C15.2734 5.56641 16.6992 3.02734 18.8477 3.02734C21.0156 3.02734 22.4609 5.58594 22.4609 9.39453C22.4609 13.2617 21.0156 15.8203 18.8477 15.8203C16.6992 15.8203 15.2734 13.2617 15.2734 9.39453ZM28.6914 9.39453C28.6914 15.0586 31.3477 18.8477 35.332 18.8477C39.3164 18.8477 41.9336 15.0977 41.9336 9.39453C41.9336 3.73047 39.3164 0 35.332 0C31.3281 0 28.6914 3.75 28.6914 9.39453ZM31.7188 9.39453C31.7188 5.58594 33.1641 3.02734 35.332 3.02734C37.5 3.02734 38.9062 5.56641 38.9062 9.39453C38.9062 13.2617 37.5 15.8203 35.332 15.8203C33.1641 15.8203 31.7188 13.2617 31.7188 9.39453ZM40.957 23.9844C40.957 29.6289 43.5938 33.418 47.5781 33.418C51.5625 33.418 54.1797 29.6289 54.1797 23.9844C54.1797 18.3203 51.5625 14.5508 47.5781 14.5508C43.5938 14.5508 40.957 18.3203 40.957 23.9844ZM43.9844 23.9844C43.9844 20.1172 45.4102 17.5586 47.5781 17.5586C49.7461 17.5586 51.1523 20.1172 51.1523 23.9844C51.1523 27.8516 49.7461 30.3906 47.5781 30.3906C45.4102 30.3906 43.9844 27.832 43.9844 23.9844Z" fill="black" fill-opacity="0.85"/>
 </g>
</svg>
