<?xml version="1.0" encoding="UTF-8"?>
<!--Generator: Apple Native CoreSVG 326-->
<!DOCTYPE svg
PUBLIC "-//W3C//DTD SVG 1.1//EN"
       "http://www.w3.org/Graphics/SVG/1.1/DTD/svg11.dtd">
<svg version="1.1" xmlns="http://www.w3.org/2000/svg" xmlns:xlink="http://www.w3.org/1999/xlink" viewBox="0 0 42.5528 53.8867">
 <g>
  <rect height="53.8867" opacity="0" width="42.5528" x="0" y="0"/>
  <path d="M34.7432 2.5C39.6455 3.73047 42.1846 6.64062 42.1846 11.1328L42.1651 46.6016C42.1651 51.1719 39.4307 53.8867 34.8213 53.8867L11.3447 53.8867C5.54396 53.8867 1.63771 50.5078 0.895522 44.9219C-0.354478 35.6641-0.295884 21.0938 1.0713 10.8398C2.12599 3.18359 7.41896-0.117188 16.0713 0.0585938C22.7705 0.175781 28.8643 1.03516 34.7432 2.5ZM10.5244 35.8398C9.70412 35.8398 9.02052 36.5234 9.02052 37.3242C9.02052 38.1445 9.70412 38.8086 10.5244 38.8086L32.2627 38.8086C33.083 38.8086 33.7471 38.1445 33.7471 37.3242C33.7471 36.5234 33.083 35.8398 32.2627 35.8398ZM10.5244 27.2852C9.70412 27.2852 9.02052 27.9492 9.02052 28.7695C9.02052 29.5703 9.70412 30.2344 10.5244 30.2344L32.2627 30.2344C33.083 30.2344 33.7471 29.5703 33.7471 28.7695C33.7471 27.9492 33.083 27.2852 32.2627 27.2852ZM10.5244 18.7109C9.70412 18.7109 9.02052 19.375 9.02052 20.1953C9.02052 21.0156 9.70412 21.6797 10.5244 21.6797L32.2627 21.6797C33.083 21.6797 33.7471 21.0156 33.7471 20.1953C33.7471 19.375 33.083 18.7109 32.2627 18.7109Z" fill="black" fill-opacity="0.85"/>
 </g>
</svg>
