<?xml version="1.0" encoding="UTF-8"?>
<!--Generator: Apple Native CoreSVG 326-->
<!DOCTYPE svg
PUBLIC "-//W3C//DTD SVG 1.1//EN"
       "http://www.w3.org/Graphics/SVG/1.1/DTD/svg11.dtd">
<svg version="1.1" xmlns="http://www.w3.org/2000/svg" xmlns:xlink="http://www.w3.org/1999/xlink" viewBox="0 0 43.7256 42.5406">
 <g>
  <rect height="42.5406" opacity="0" width="43.7256" x="0" y="0"/>
  <path d="M22.0189 25.0494L8.15187 38.8972L2.60499 41.2019C2.05812 41.4363 1.47218 40.8113 1.70655 40.2644L4.14796 34.8738L18.0052 21.0358ZM36.3159 10.7722L28.2298 18.8472L24.2149 14.8347L32.312 6.7488ZM40.2612 2.13942L40.9644 2.84255C42.0581 3.91677 41.9995 5.1863 40.7691 6.39724L38.4058 8.74099L34.3433 4.69802L36.7261 2.35427C37.9175 1.18239 39.2066 1.08474 40.2612 2.13942Z" fill="black" fill-opacity="0.85"/>
  <path d="M38.1519 37.3347C38.8159 37.9793 39.8901 37.9793 40.5151 37.3347C41.1597 36.6707 41.1597 35.6355 40.5151 34.9715L8.7378 3.19411C8.09327 2.56911 6.99952 2.53005 6.35499 3.19411C5.72999 3.83864 5.72999 4.93239 6.35499 5.55739Z" fill="black" fill-opacity="0.85"/>
 </g>
</svg>
