<?xml version="1.0" encoding="UTF-8"?>
<!--Generator: Apple Native CoreSVG 326-->
<!DOCTYPE svg
PUBLIC "-//W3C//DTD SVG 1.1//EN"
       "http://www.w3.org/Graphics/SVG/1.1/DTD/svg11.dtd">
<svg version="1.1" xmlns="http://www.w3.org/2000/svg" xmlns:xlink="http://www.w3.org/1999/xlink" viewBox="0 0 51.25 50.918">
 <g>
  <rect height="50.918" opacity="0" width="51.25" x="0" y="0"/>
  <path d="M50.8789 25.4492C50.8789 39.4531 39.4531 50.8789 25.4297 50.8789C11.4258 50.8789 0 39.4531 0 25.4492C0 11.4258 11.4258 0 25.4297 0C39.4531 0 50.8789 11.4258 50.8789 25.4492ZM23.9844 13.9844L19.7656 26.7578L19.4727 26.7578C18.418 26.8164 17.5391 27.6367 17.3047 28.7109L14.2773 42.7734C13.8281 44.8438 16.6602 45.2734 17.0312 43.457L20.0195 29.5898L30.8789 29.5898L33.8867 43.457C34.2578 45.2734 37.0703 44.8438 36.6406 42.7734L33.5938 28.7305C33.3789 27.6367 32.4805 26.8164 31.4258 26.7578L31.1133 26.7578L26.9141 13.9844C26.4258 12.5391 24.4727 12.5195 23.9844 13.9844Z" fill="black" fill-opacity="0.85"/>
 </g>
</svg>
