<?xml version="1.0" encoding="UTF-8"?>
<!--Generator: Apple Native CoreSVG 326-->
<!DOCTYPE svg
PUBLIC "-//W3C//DTD SVG 1.1//EN"
       "http://www.w3.org/Graphics/SVG/1.1/DTD/svg11.dtd">
<svg version="1.1" xmlns="http://www.w3.org/2000/svg" xmlns:xlink="http://www.w3.org/1999/xlink" viewBox="0 0 54.4186 53.2227">
 <g>
  <rect height="53.2227" opacity="0" width="54.4186" x="0" y="0"/>
  <path d="M53.5765 24.9023C54.6898 21.3672 53.8499 18.7109 50.9202 16.5625L31.5257 2.28516C28.4398 0.0390625 25.5882 0.0390625 22.5218 2.28516L3.10773 16.5625C0.178039 18.7109-0.661805 21.4258 0.51007 25.0391L7.93195 48.0859C9.04523 51.5625 11.3109 53.2227 15.0023 53.2227L39.0452 53.2227C42.7171 53.2227 44.9827 51.5625 46.096 48.0859ZM27.0335 4.0625L27.0335 49.7656L15.0023 49.7656C12.8734 49.7656 11.8382 49.043 11.1937 47.0312L3.77179 23.9844C3.0882 21.8555 3.47882 20.625 5.19757 19.3359L24.5921 5.05859C25.4905 4.375 26.2718 4.0625 27.0335 4.0625Z" fill="black" fill-opacity="0.85"/>
 </g>
</svg>
