<?xml version="1.0" encoding="UTF-8"?>
<!--Generator: Apple Native CoreSVG 326-->
<!DOCTYPE svg
PUBLIC "-//W3C//DTD SVG 1.1//EN"
       "http://www.w3.org/Graphics/SVG/1.1/DTD/svg11.dtd">
<svg version="1.1" xmlns="http://www.w3.org/2000/svg" xmlns:xlink="http://www.w3.org/1999/xlink" viewBox="0 0 45.4102 48.0255">
 <g>
  <rect height="48.0255" opacity="0" width="45.4102" x="0" y="0"/>
  <path d="M8.4375 23.1241C13.6914 23.1241 16.8555 18.7295 16.8555 11.7374C16.8555 4.72564 13.6719 0.389698 8.4375 0.389698C3.20312 0.389698 0 4.74517 0 11.7374C0 18.7491 3.18359 23.1241 8.4375 23.1241ZM8.4375 20.1163C5.3125 20.1163 3.45703 16.9913 3.45703 11.7374C3.45703 6.52251 5.33203 3.37798 8.4375 3.37798C11.543 3.37798 13.418 6.48345 13.418 11.7374C13.418 16.9913 11.5625 20.1163 8.4375 20.1163ZM36.6211 47.6358C41.875 47.6358 45.0391 43.2413 45.0391 36.2491C45.0391 29.2374 41.8555 24.9014 36.6211 24.9014C31.3867 24.9014 28.1836 29.2569 28.1836 36.2491C28.1836 43.2608 31.3672 47.6358 36.6211 47.6358ZM36.6211 44.6475C33.4961 44.6475 31.6406 41.5225 31.6406 36.2491C31.6406 31.0342 33.5156 27.9092 36.6211 27.9092C39.707 27.9092 41.582 31.0147 41.582 36.2491C41.582 41.5225 39.7266 44.6475 36.6211 44.6475ZM6.73828 47.7334C7.51953 48.1827 8.69141 48.1045 9.35547 47.1475L38.7109 2.87017C39.4531 1.81548 39.0234 0.702198 38.2227 0.233448C37.4805-0.196239 36.4062-0.0790517 35.6836 0.975636L6.30859 45.1358C5.56641 46.21 5.91797 47.2647 6.73828 47.7334Z" fill="black" fill-opacity="0.85"/>
 </g>
</svg>
