<?xml version="1.0" encoding="UTF-8"?>
<!--Generator: Apple Native CoreSVG 326-->
<!DOCTYPE svg
PUBLIC "-//W3C//DTD SVG 1.1//EN"
       "http://www.w3.org/Graphics/SVG/1.1/DTD/svg11.dtd">
<svg version="1.1" xmlns="http://www.w3.org/2000/svg" xmlns:xlink="http://www.w3.org/1999/xlink" viewBox="0 0 60.1758 54.7852">
 <g>
  <rect height="54.7852" opacity="0" width="60.1758" x="0" y="0"/>
  <path d="M59.1602 49.0234C59.1602 49.8047 58.5156 50.4492 57.7344 50.4492C56.9727 50.4492 56.3281 49.8047 56.3281 49.0234C56.3281 48.2617 56.9727 47.6172 57.7344 47.6172C58.5156 47.6172 59.1602 48.2617 59.1602 49.0234ZM3.47656 49.0234C3.47656 49.8047 2.83203 50.4492 2.05078 50.4492C1.28906 50.4492 0.644531 49.8047 0.644531 49.0234C0.644531 48.2617 1.28906 47.6172 2.05078 47.6172C2.83203 47.6172 3.47656 48.2617 3.47656 49.0234ZM11.754 39.2588C10.9415 40.2608 10.2651 41.3117 9.74568 42.384C8.74729 42.2561 7.94922 41.3772 7.94922 40.332C7.94922 39.2188 8.88672 38.2812 10 38.2812C10.7352 38.2812 11.3881 38.6761 11.754 39.2588ZM51.8555 40.332C51.8555 41.3581 51.0864 42.2239 50.1134 42.3754C49.5872 41.2922 48.9013 40.2308 48.0744 39.2205C48.4452 38.659 49.0856 38.2812 49.8047 38.2812C50.918 38.2812 51.8555 39.2188 51.8555 40.332ZM59.1602 40.332C59.1602 41.1133 58.5156 41.7578 57.7344 41.7578C56.9727 41.7578 56.3281 41.1133 56.3281 40.332C56.3281 39.5703 56.9727 38.9258 57.7344 38.9258C58.5156 38.9258 59.1602 39.5703 59.1602 40.332ZM3.47656 40.332C3.47656 41.1133 2.83203 41.7578 2.05078 41.7578C1.28906 41.7578 0.644531 41.1133 0.644531 40.332C0.644531 39.5703 1.28906 38.9258 2.05078 38.9258C2.83203 38.9258 3.47656 39.5703 3.47656 40.332ZM12.7148 31.6602C12.7148 33.125 11.4844 34.3555 10 34.3555C8.51562 34.3555 7.30469 33.125 7.30469 31.6602C7.30469 30.1758 8.51562 28.9453 10 28.9453C11.4844 28.9453 12.7148 30.1758 12.7148 31.6602ZM52.5 31.6602C52.5 33.125 51.2695 34.3555 49.8047 34.3555C48.3203 34.3555 47.0898 33.125 47.0898 31.6602C47.0898 30.1758 48.3203 28.9453 49.8047 28.9453C51.2695 28.9453 52.5 30.1758 52.5 31.6602ZM19.274 29.3018C19.6536 29.9813 20.0989 30.6128 20.6005 31.1886C20.6303 31.3415 20.6445 31.4993 20.6445 31.6602C20.6445 32.1701 20.4978 32.6516 20.2413 33.0611C19.3078 33.4233 18.4352 33.8529 17.6194 34.3327C16.2892 34.1687 15.2539 33.0146 15.2539 31.6602C15.2539 30.1758 16.4648 28.9453 17.9492 28.9453C18.4306 28.9453 18.8832 29.0747 19.274 29.3018ZM44.5508 31.6602C44.5508 33.0004 43.5371 34.1444 42.2268 34.3263C41.3875 33.8337 40.4884 33.3939 39.5264 33.0239C39.2809 32.6227 39.1406 32.1548 39.1406 31.6602C39.1406 31.5292 39.1502 31.4003 39.1719 31.2749C39.7135 30.6643 40.1922 29.9899 40.5975 29.2617C40.9744 29.0596 41.4031 28.9453 41.8555 28.9453C43.3398 28.9453 44.5508 30.1758 44.5508 31.6602ZM4.12109 31.6602C4.12109 32.7734 3.18359 33.7109 2.05078 33.7109C0.9375 33.7109 0 32.7734 0 31.6602C0 30.5273 0.9375 29.5898 2.05078 29.5898C3.18359 29.5898 4.12109 30.5273 4.12109 31.6602ZM59.8047 31.6602C59.8047 32.7734 58.8672 33.7109 57.7344 33.7109C56.6211 33.7109 55.6836 32.7734 55.6836 31.6602C55.6836 30.5273 56.6211 29.5898 57.7344 29.5898C58.8672 29.5898 59.8047 30.5273 59.8047 31.6602ZM52.5 22.9688C52.5 24.4531 51.2695 25.6641 49.8047 25.6641C48.3203 25.6641 47.0898 24.4531 47.0898 22.9688C47.0898 21.4844 48.3203 20.2734 49.8047 20.2734C51.2695 20.2734 52.5 21.4844 52.5 22.9688ZM12.7148 22.9688C12.7148 24.4531 11.4844 25.6641 10 25.6641C8.51562 25.6641 7.30469 24.4531 7.30469 22.9688C7.30469 21.4844 8.51562 20.2734 10 20.2734C11.4844 20.2734 12.7148 21.4844 12.7148 22.9688ZM17.3828 22.3242C17.3828 23.4774 17.5231 24.596 17.8003 25.6565C16.3842 25.5817 15.2539 24.4029 15.2539 22.9688C15.2539 21.6225 16.25 20.5012 17.5437 20.3074C17.4325 20.958 17.3828 21.6334 17.3828 22.3242ZM44.5508 22.9688C44.5508 24.3863 43.4465 25.5544 42.0536 25.654C42.3368 24.5772 42.4805 23.4398 42.4805 22.2656C42.4805 21.5979 42.4344 20.9457 42.3305 20.3181C43.5902 20.5415 44.5508 21.6467 44.5508 22.9688ZM59.8047 22.9688C59.8047 24.1016 58.8672 25.0195 57.7344 25.0195C56.6211 25.0195 55.6836 24.1016 55.6836 22.9688C55.6836 21.8359 56.6211 20.918 57.7344 20.918C58.8672 20.918 59.8047 21.8359 59.8047 22.9688ZM4.12109 22.9688C4.12109 24.1016 3.18359 25.0195 2.05078 25.0195C0.9375 25.0195 0 24.1016 0 22.9688C0 21.8359 0.9375 20.918 2.05078 20.918C3.18359 20.918 4.12109 21.8359 4.12109 22.9688ZM51.8555 14.2773C51.8555 15.4102 50.918 16.3477 49.8047 16.3477C48.6719 16.3477 47.7344 15.4102 47.7344 14.2773C47.7344 13.1641 48.6719 12.2266 49.8047 12.2266C50.918 12.2266 51.8555 13.1641 51.8555 14.2773ZM43.9062 14.2773C43.9062 15.4102 42.9688 16.3477 41.8555 16.3477C41.5733 16.3477 41.3033 16.2895 41.0569 16.1845C40.7048 15.4538 40.2802 14.7735 39.7917 14.1519C39.8566 13.0942 40.7657 12.2266 41.8555 12.2266C42.9688 12.2266 43.9062 13.1641 43.9062 14.2773ZM20 14.2773L19.9991 14.2947C19.5634 14.8605 19.1824 15.4753 18.8583 16.1292C18.5852 16.2696 18.2762 16.3477 17.9492 16.3477C16.8164 16.3477 15.8984 15.4102 15.8984 14.2773C15.8984 13.1641 16.8164 12.2266 17.9492 12.2266C19.082 12.2266 20 13.1641 20 14.2773ZM12.0703 14.2773C12.0703 15.4102 11.1328 16.3477 10 16.3477C8.88672 16.3477 7.94922 15.4102 7.94922 14.2773C7.94922 13.1641 8.88672 12.2266 10 12.2266C11.1328 12.2266 12.0703 13.1641 12.0703 14.2773ZM59.1602 14.2773C59.1602 15.0586 58.5156 15.7031 57.7344 15.7031C56.9727 15.7031 56.3281 15.0586 56.3281 14.2773C56.3281 13.5156 56.9727 12.8711 57.7344 12.8711C58.5156 12.8711 59.1602 13.5156 59.1602 14.2773ZM3.47656 14.2773C3.47656 15.0586 2.83203 15.7031 2.05078 15.7031C1.28906 15.7031 0.644531 15.0586 0.644531 14.2773C0.644531 13.5156 1.28906 12.8711 2.05078 12.8711C2.83203 12.8711 3.47656 13.5156 3.47656 14.2773ZM35.9375 5.60547C35.9375 6.71875 35 7.65625 33.8672 7.65625C32.7539 7.65625 31.8164 6.71875 31.8164 5.60547C31.8164 4.47266 32.7539 3.53516 33.8672 3.53516C35 3.53516 35.9375 4.47266 35.9375 5.60547ZM27.9883 5.60547C27.9883 6.71875 27.0508 7.65625 25.918 7.65625C24.8047 7.65625 23.8672 6.71875 23.8672 5.60547C23.8672 4.47266 24.8047 3.53516 25.918 3.53516C27.0508 3.53516 27.9883 4.47266 27.9883 5.60547ZM59.1602 5.60547C59.1602 6.36719 58.5156 7.01172 57.7344 7.01172C56.9727 7.01172 56.3281 6.36719 56.3281 5.60547C56.3281 4.82422 56.9727 4.17969 57.7344 4.17969C58.5156 4.17969 59.1602 4.82422 59.1602 5.60547ZM51.2109 5.60547C51.2109 6.36719 50.5664 7.01172 49.8047 7.01172C49.0234 7.01172 48.3789 6.36719 48.3789 5.60547C48.3789 4.82422 49.0234 4.17969 49.8047 4.17969C50.5664 4.17969 51.2109 4.82422 51.2109 5.60547ZM43.2617 5.60547C43.2617 6.36719 42.6172 7.01172 41.8555 7.01172C41.0742 7.01172 40.4297 6.36719 40.4297 5.60547C40.4297 4.82422 41.0742 4.17969 41.8555 4.17969C42.6172 4.17969 43.2617 4.82422 43.2617 5.60547ZM19.3555 5.60547C19.3555 6.36719 18.7305 7.01172 17.9492 7.01172C17.168 7.01172 16.543 6.36719 16.543 5.60547C16.543 4.82422 17.168 4.17969 17.9492 4.17969C18.7305 4.17969 19.3555 4.82422 19.3555 5.60547ZM11.4258 5.60547C11.4258 6.36719 10.7812 7.01172 10 7.01172C9.23828 7.01172 8.59375 6.36719 8.59375 5.60547C8.59375 4.82422 9.23828 4.17969 10 4.17969C10.7812 4.17969 11.4258 4.82422 11.4258 5.60547ZM3.47656 5.60547C3.47656 6.36719 2.83203 7.01172 2.05078 7.01172C1.28906 7.01172 0.644531 6.36719 0.644531 5.60547C0.644531 4.82422 1.28906 4.17969 2.05078 4.17969C2.83203 4.17969 3.47656 4.82422 3.47656 5.60547Z" fill="black" fill-opacity="0.425"/>
  <path d="M29.9219 31.8555C34.5312 31.8555 38.6133 27.6367 38.6133 22.2656C38.6133 16.8945 34.5312 12.9883 29.9219 12.9883C25.332 12.9883 21.25 16.9922 21.25 22.3242C21.25 27.6367 25.332 31.8555 29.9219 31.8555ZM17.0312 50.918L42.832 50.918C46.5625 50.918 47.6758 49.8633 47.6758 47.9883C47.6758 42.5586 40.8984 35.0391 29.9219 35.0391C18.9648 35.0391 12.168 42.5586 12.168 47.9883C12.168 49.8633 13.3008 50.918 17.0312 50.918Z" fill="black" fill-opacity="0.85"/>
 </g>
</svg>
