<?xml version="1.0" encoding="UTF-8"?>
<!--Generator: Apple Native CoreSVG 326-->
<!DOCTYPE svg
PUBLIC "-//W3C//DTD SVG 1.1//EN"
       "http://www.w3.org/Graphics/SVG/1.1/DTD/svg11.dtd">
<svg version="1.1" xmlns="http://www.w3.org/2000/svg" xmlns:xlink="http://www.w3.org/1999/xlink" viewBox="0 0 51.25 50.918">
 <g>
  <rect height="50.918" opacity="0" width="51.25" x="0" y="0"/>
  <path d="M50.8789 25.4688C50.8789 39.4922 39.4531 50.918 25.4297 50.918C11.4258 50.918 0 39.4922 0 25.4688C0 11.4648 11.4258 0.0390625 25.4297 0.0390625C39.4531 0.0390625 50.8789 11.4648 50.8789 25.4688ZM8.4375 34.2188C8.4375 35.3711 9.0625 35.957 10.5469 35.957L20.3131 35.957C20.0252 35.4305 19.9219 34.8501 19.9219 34.3164C19.9219 32.2474 21.0916 29.9342 23.1787 28.1169C21.6049 27.1229 19.6754 26.543 17.6953 26.543C12.9492 26.543 8.4375 29.9023 8.4375 34.2188ZM21.6406 34.3164C21.6406 35.4297 22.3633 35.957 24.1797 35.957L40.3711 35.957C42.2266 35.957 42.8906 35.4297 42.8906 34.3164C42.8906 31.0742 38.8477 26.582 32.3242 26.582C25.7422 26.582 21.6406 31.0742 21.6406 34.3164ZM13.3203 19.7461C13.3203 22.4805 15.332 24.5898 17.6953 24.5898C20.0977 24.5898 22.0898 22.4805 22.0898 19.7266C22.0898 17.0703 20.0586 15 17.6953 15C15.3711 15 13.3203 17.1094 13.3203 19.7461ZM27.2852 18.75C27.2852 21.875 29.5508 24.3164 32.3242 24.3164C35.0391 24.3164 37.3242 21.875 37.3242 18.7305C37.3242 15.6641 35.0195 13.3008 32.3242 13.3008C29.5703 13.3008 27.2852 15.7227 27.2852 18.75Z" fill="black" fill-opacity="0.85"/>
 </g>
</svg>
