<?xml version="1.0" encoding="UTF-8"?>
<!--Generator: Apple Native CoreSVG 326-->
<!DOCTYPE svg
PUBLIC "-//W3C//DTD SVG 1.1//EN"
       "http://www.w3.org/Graphics/SVG/1.1/DTD/svg11.dtd">
<svg version="1.1" xmlns="http://www.w3.org/2000/svg" xmlns:xlink="http://www.w3.org/1999/xlink" viewBox="0 0 51.25 50.918">
 <g>
  <rect height="50.918" opacity="0" width="51.25" x="0" y="0"/>
  <path d="M50.8789 25.4492C50.8789 39.4531 39.4531 50.8789 25.4297 50.8789C11.4258 50.8789 0 39.4531 0 25.4492C0 11.4258 11.4258 0 25.4297 0C39.4531 0 50.8789 11.4258 50.8789 25.4492ZM16.7578 31.9531C15.332 31.9531 14.6875 32.6953 14.6875 34.0234L14.6875 37.7344L14.4531 37.7344C13.8477 37.7344 13.3789 38.2227 13.3789 38.8086C13.3789 39.3945 13.8477 39.8633 14.4531 39.8633L36.4062 39.8633C36.9922 39.8633 37.4609 39.3945 37.4609 38.8086C37.4609 38.2227 36.9922 37.7344 36.4062 37.7344L36.1719 37.7344L36.1719 34.0234C36.1719 32.6953 35.5273 31.9531 34.082 31.9531ZM29.3359 35.957C29.3359 36.3867 28.9648 36.7578 28.5156 36.7578L22.3242 36.7578C21.8555 36.7578 21.543 36.3867 21.543 35.957C21.543 35.5078 21.8555 35.1758 22.3242 35.1758L28.5156 35.1758C28.9648 35.1758 29.3359 35.5078 29.3359 35.957ZM15.3906 28.8086C15.3906 29.6094 15.9375 30.1562 16.8359 30.1562L33.9648 30.1562C34.8828 30.1562 35.4297 29.6094 35.4297 28.8086C35.4297 26.2891 31.9531 21.3867 25.4102 21.3867C18.8672 21.3867 15.3906 26.2891 15.3906 28.8086ZM20.5469 14.2383C20.5469 17.2656 22.7148 19.5703 25.4102 19.5703C28.125 19.5898 30.2539 17.2656 30.2539 14.2383C30.2539 11.3867 28.1055 9.00391 25.4102 9.00391C22.7344 9.00391 20.5469 11.3867 20.5469 14.2383Z" fill="black" fill-opacity="0.85"/>
 </g>
</svg>
