<?xml version="1.0" encoding="UTF-8"?>
<!--Generator: Apple Native CoreSVG 326-->
<!DOCTYPE svg
PUBLIC "-//W3C//DTD SVG 1.1//EN"
       "http://www.w3.org/Graphics/SVG/1.1/DTD/svg11.dtd">
<svg version="1.1" xmlns="http://www.w3.org/2000/svg" xmlns:xlink="http://www.w3.org/1999/xlink" viewBox="0 0 43.8477 52.9883">
 <g>
  <rect height="52.9883" opacity="0" width="43.8477" x="0" y="0"/>
  <path d="M21.7383 18.0664C26.4258 18.0664 30.1172 14.043 30.1172 8.92578C30.1172 3.98438 26.3867 0 21.7383 0C17.0312 0 13.3203 4.00391 13.3398 8.96484C13.3789 14.0625 17.0117 18.0664 21.7383 18.0664ZM21.7383 15C18.7695 15 16.5625 12.4609 16.5625 8.96484C16.5625 5.60547 18.7891 3.06641 21.7383 3.06641C24.6484 3.06641 26.8945 5.60547 26.8945 8.92578C26.8945 12.4414 24.6875 15 21.7383 15ZM7.94922 36.2109L35.4492 36.2109C37.5781 36.2109 38.75 35.0977 38.75 33.1836C38.75 28.0469 32.2656 20.6445 21.6992 20.6445C11.1523 20.6445 4.6875 28.0469 4.6875 33.1836C4.6875 35.0977 5.83984 36.2109 7.94922 36.2109ZM8.90625 33.1445C8.16406 33.1445 7.91016 32.9492 7.94922 32.4414C8.32031 29.1406 13.1836 23.7109 21.6992 23.7109C30.2344 23.7109 35.0977 29.1406 35.4883 32.4414C35.5273 32.9492 35.2539 33.1445 34.5117 33.1445ZM1.73828 52.9883L41.7383 52.9883C42.6758 52.9883 43.4766 52.207 43.4766 51.25C43.4766 50.3125 42.6758 49.5312 41.7383 49.5312L40.1953 49.5312L40.1953 42.9883C40.1953 40.6445 39.043 39.3359 36.543 39.3359L6.93359 39.3359C4.43359 39.3359 3.28125 40.6445 3.28125 42.9883L3.28125 49.5312L1.73828 49.5312C0.78125 49.5312 0 50.3125 0 51.25C0 52.207 0.78125 52.9883 1.73828 52.9883ZM16.543 47.6172C15.7617 47.6172 15.1758 47.0117 15.1758 46.2305C15.1758 45.4492 15.7617 44.8828 16.543 44.8828L26.9531 44.8828C27.7539 44.8828 28.3203 45.4492 28.3203 46.2305C28.3203 47.0117 27.7539 47.6172 26.9531 47.6172Z" fill="black" fill-opacity="0.85"/>
 </g>
</svg>
