<?xml version="1.0" encoding="UTF-8"?>
<!--Generator: Apple Native CoreSVG 326-->
<!DOCTYPE svg
PUBLIC "-//W3C//DTD SVG 1.1//EN"
       "http://www.w3.org/Graphics/SVG/1.1/DTD/svg11.dtd">
<svg version="1.1" xmlns="http://www.w3.org/2000/svg" xmlns:xlink="http://www.w3.org/1999/xlink" viewBox="0 0 60.4688 59.1602">
 <g>
  <rect height="59.1602" opacity="0" width="60.4688" x="0" y="0"/>
  <path d="M31.6797 48.9265L31.6797 57.1484C31.6797 58.2031 31.0547 58.8672 30.0586 58.8672C29.0234 58.8672 28.418 58.2031 28.418 57.1484L28.418 48.3587ZM31.6797 27.793L47.8125 27.793L47.8125 31.0742L31.6797 31.0742L31.6797 45.6819L28.418 45.1189L28.418 31.0742L12.2852 31.0742L12.2852 27.793L28.418 27.793L28.418 13.7483L31.6797 13.1853ZM9.02344 31.0742L1.71875 31.0742C0.644531 31.0742 0 30.4297 0 29.4531C0 28.418 0.644531 27.793 1.71875 27.793L9.02344 27.793ZM60.0977 29.4531C60.0977 30.4297 59.4531 31.0742 58.3789 31.0742L51.0742 31.0742L51.0742 27.793L58.3789 27.793C59.4531 27.793 60.0977 28.418 60.0977 29.4531ZM31.6797 1.71875L31.6797 9.94073L28.418 10.5085L28.418 1.71875C28.418 0.664062 29.0234 0 30.0586 0C31.0547 0 31.6797 0.664062 31.6797 1.71875Z" fill="black" fill-opacity="0.85"/>
  <path d="M16.1914 46.2305L43.9062 51.0547C48.3789 51.8359 51.0742 48.9062 51.0742 43.9453L51.0742 14.9219C51.0742 9.76562 48.5352 7.01172 43.9062 7.8125L16.1914 12.6367C11.5625 13.457 9.02344 15.7031 9.02344 19.7461L9.02344 39.1211C9.02344 43.1445 11.5625 45.4102 16.1914 46.2305ZM16.0742 42.9883C13.5938 42.5781 12.2852 41.4062 12.2852 39.1602L12.2852 19.707C12.2852 17.4609 13.5938 16.2891 16.0742 15.8789L44.0234 11.0547C46.5039 10.6445 47.8125 12.1289 47.8125 14.8828L47.8125 43.9844C47.8125 46.6602 46.4453 48.2227 44.0234 47.8125Z" fill="black" fill-opacity="0.85"/>
 </g>
</svg>
