<?xml version="1.0" encoding="UTF-8"?>
<!--Generator: Apple Native CoreSVG 326-->
<!DOCTYPE svg
PUBLIC "-//W3C//DTD SVG 1.1//EN"
       "http://www.w3.org/Graphics/SVG/1.1/DTD/svg11.dtd">
<svg version="1.1" xmlns="http://www.w3.org/2000/svg" xmlns:xlink="http://www.w3.org/1999/xlink" viewBox="0 0 64.5508 45.0586">
 <g>
  <rect height="45.0586" opacity="0" width="64.5508" x="0" y="0"/>
  <path d="M15.0781 45.0391L49.1211 45.0391C51.6797 45.0391 53.2422 43.8086 53.2422 41.8164C53.2422 35.332 45.1172 26.3867 32.0898 26.3867C19.082 26.3867 10.957 35.332 10.957 41.8164C10.957 43.8086 12.5195 45.0391 15.0781 45.0391ZM32.1289 21.875C37.5586 21.875 42.1289 17.0312 42.1289 10.7812C42.1289 4.66797 37.5195 0 32.1289 0C26.7188 0 22.1289 4.74609 22.1289 10.8203C22.1289 17.0312 26.6992 21.875 32.1289 21.875Z" fill="black" fill-opacity="0.85"/>
  <path d="M0.644531 12.0898L7.14844 16.9531C8.39844 17.8906 9.92188 17.3242 9.92188 15.7812L9.92188 12.5L16.4844 12.5C17.4414 12.5 18.1836 11.7578 18.1836 10.8203C18.1836 9.88281 17.4414 9.14062 16.4844 9.14062L9.92188 9.14062L9.92188 5.91797C9.92188 4.29688 8.35938 3.80859 7.14844 4.72656L0.644531 9.58984C-0.214844 10.2344-0.214844 11.4453 0.644531 12.0898ZM45.9961 10.8203C45.9961 11.7578 46.7383 12.5 47.6953 12.5L54.2578 12.5L54.2578 15.7812C54.2578 17.3242 55.7812 17.8906 57.0312 16.9531L63.5352 12.0898C64.3945 11.4453 64.3945 10.2344 63.5352 9.58984L57.0312 4.72656C55.8203 3.80859 54.2578 4.29688 54.2578 5.91797L54.2578 9.14062L47.6953 9.14062C46.7383 9.14062 45.9961 9.88281 45.9961 10.8203Z" fill="black" fill-opacity="0.85"/>
 </g>
</svg>
