<?xml version="1.0" encoding="UTF-8"?>
<!--Generator: Apple Native CoreSVG 326-->
<!DOCTYPE svg
PUBLIC "-//W3C//DTD SVG 1.1//EN"
       "http://www.w3.org/Graphics/SVG/1.1/DTD/svg11.dtd">
<svg version="1.1" xmlns="http://www.w3.org/2000/svg" xmlns:xlink="http://www.w3.org/1999/xlink" viewBox="0 0 64.5508 46.2695">
 <g>
  <rect height="46.2695" opacity="0" width="64.5508" x="0" y="0"/>
  <path d="M15.9961 46.25L48.2031 46.25C52.0898 46.25 53.9258 45.0391 53.9258 42.4219C53.9258 35.8398 45.625 26.3867 32.0898 26.3867C18.5742 26.3867 10.2734 35.8398 10.2734 42.4219C10.2734 45.0391 12.1094 46.25 15.9961 46.25ZM15.0391 42.9883C14.082 42.9883 13.7305 42.7344 13.7305 42.0312C13.7305 37.4805 20.3516 29.668 32.0898 29.668C43.8477 29.668 50.4688 37.4805 50.4688 42.0312C50.4688 42.7344 50.1172 42.9883 49.1602 42.9883ZM32.1289 23.0664C38.0469 23.0664 42.8125 17.8516 42.8125 11.3867C42.8125 5.03906 38.0469 0 32.1289 0C26.2305 0 21.4258 5.11719 21.4258 11.4258C21.4258 17.8711 26.2109 23.0664 32.1289 23.0664ZM32.1289 19.8047C28.1641 19.8047 24.8828 16.1328 24.8828 11.4258C24.8828 6.85547 28.1445 3.26172 32.1289 3.26172C36.1133 3.26172 39.3555 6.79688 39.3555 11.3867C39.3555 16.0938 36.0938 19.8047 32.1289 19.8047Z" fill="black" fill-opacity="0.85"/>
  <path d="M0.644531 12.6562L7.14844 17.5195C8.39844 18.457 9.92188 17.8906 9.92188 16.3477L9.92188 13.0664L16.4844 13.0664C17.4414 13.0664 18.1836 12.3242 18.1836 11.3867C18.1836 10.4492 17.4414 9.70703 16.4844 9.70703L9.92188 9.70703L9.92188 6.48438C9.92188 4.86328 8.35938 4.375 7.14844 5.29297L0.644531 10.1562C-0.214844 10.8008-0.214844 12.0117 0.644531 12.6562ZM45.9961 11.3867C45.9961 12.3242 46.7383 13.0664 47.6953 13.0664L54.2578 13.0664L54.2578 16.3477C54.2578 17.8906 55.7812 18.457 57.0312 17.5195L63.5352 12.6562C64.3945 12.0117 64.3945 10.8008 63.5352 10.1562L57.0312 5.29297C55.8203 4.375 54.2578 4.86328 54.2578 6.48438L54.2578 9.70703L47.6953 9.70703C46.7383 9.70703 45.9961 10.4492 45.9961 11.3867Z" fill="black" fill-opacity="0.85"/>
 </g>
</svg>
