<?xml version="1.0" encoding="UTF-8"?>
<!--Generator: Apple Native CoreSVG 326-->
<!DOCTYPE svg
PUBLIC "-//W3C//DTD SVG 1.1//EN"
       "http://www.w3.org/Graphics/SVG/1.1/DTD/svg11.dtd">
<svg version="1.1" xmlns="http://www.w3.org/2000/svg" xmlns:xlink="http://www.w3.org/1999/xlink" viewBox="0 0 51.25 50.918">
 <g>
  <rect height="50.918" opacity="0" width="51.25" x="0" y="0"/>
  <path d="M50.8789 25.4492C50.8789 39.4922 39.4727 50.8789 25.4297 50.8789C11.3867 50.8789 0 39.4922 0 25.4492C0 11.4062 11.3867 0 25.4297 0C39.4727 0 50.8789 11.4062 50.8789 25.4492ZM3.63281 25.4492C3.63281 37.5 13.3789 47.2461 25.4297 47.2461C37.4805 47.2461 47.2266 37.5 47.2266 25.4492C47.2266 13.3984 37.4805 3.65234 25.4297 3.65234C13.3789 3.65234 3.63281 13.3984 3.63281 25.4492Z" fill="black" fill-opacity="0.85"/>
  <path d="M23.244 28.0234C21.2035 29.8034 20.0586 32.0676 20.0586 34.082C20.0586 34.6087 20.1646 35.1834 20.4568 35.7031L10.8984 35.7031C9.45312 35.7031 8.86719 35.0977 8.86719 34.0039C8.86719 29.7656 13.2422 26.4844 17.8906 26.4844C19.8221 26.4844 21.7064 27.0509 23.244 28.0234ZM22.168 19.8242C22.168 22.5195 20.2344 24.5898 17.8906 24.5898C15.5859 24.5898 13.6328 22.5195 13.6328 19.8438C13.6328 17.2656 15.6055 15.2344 17.8906 15.2344C20.2148 15.2344 22.168 17.2266 22.168 19.8242Z" fill="black" fill-opacity="0.85"/>
  <path d="M24.2188 35.7031L40.0391 35.7031C41.8164 35.7031 42.5 35.1758 42.5 34.082C42.5 30.918 38.5156 26.5234 32.1484 26.5234C25.7422 26.5234 21.7383 30.918 21.7383 34.082C21.7383 35.1758 22.4414 35.7031 24.2188 35.7031ZM32.1484 24.3359C34.8242 24.3359 37.0312 21.9336 37.0312 18.8477C37.0312 15.8594 34.8047 13.5742 32.1484 13.5742C29.4727 13.5742 27.2461 15.918 27.2461 18.8672C27.2461 21.9336 29.4727 24.3359 32.1484 24.3359Z" fill="black" fill-opacity="0.85"/>
 </g>
</svg>
