<?xml version="1.0" encoding="UTF-8"?>
<!--Generator: Apple Native CoreSVG 326-->
<!DOCTYPE svg
PUBLIC "-//W3C//DTD SVG 1.1//EN"
       "http://www.w3.org/Graphics/SVG/1.1/DTD/svg11.dtd">
<svg version="1.1" xmlns="http://www.w3.org/2000/svg" xmlns:xlink="http://www.w3.org/1999/xlink" viewBox="0 0 61.543 63.1836">
 <g>
  <rect height="63.1836" opacity="0" width="61.543" x="0" y="0"/>
  <path d="M46.5107 6.95313L14.6805 6.95313C14.8057 5.18354 15.9546 4.16016 17.832 4.16016L43.3398 4.16016C45.2172 4.16016 46.3835 5.18354 46.5107 6.95313Z" fill="black" fill-opacity="0.85"/>
  <path d="M51.5514 13.7887C50.8512 13.6817 50.1095 13.6328 49.3359 13.6328L11.8359 13.6328C11.0621 13.6328 10.3205 13.6813 9.62066 13.7875C9.88629 11.7108 11.3173 10.5469 13.6133 10.5469L47.5586 10.5469C49.8551 10.5469 51.2861 11.7112 51.5514 13.7887Z" fill="black" fill-opacity="0.85"/>
  <path d="M56.9336 25.3906L56.9336 51.4258C56.9336 56.4062 54.375 58.9648 49.3359 58.9648L11.8359 58.9648C6.77734 58.9648 4.23828 56.4258 4.23828 51.4258L4.23828 25.3906C4.23828 20.3906 6.77734 17.8711 11.8359 17.8711L49.3359 17.8711C54.375 17.8711 56.9336 20.4102 56.9336 25.3906ZM15.3125 55.0977L45.0586 55.0977C43.2617 49.7656 37.3047 45.7227 30.1953 45.7227C23.0859 45.7227 17.1289 49.7656 15.3125 55.0977ZM22.6562 33.8086C22.6562 38.4961 25.957 42.0508 30.1953 42.0508C34.3945 42.0508 37.7344 38.4961 37.7344 33.8086C37.7344 29.3555 34.3945 25.6836 30.1953 25.6836C25.957 25.6836 22.6562 29.3555 22.6562 33.8086Z" fill="black" fill-opacity="0.85"/>
 </g>
</svg>
