<?xml version="1.0" encoding="UTF-8"?>
<!--Generator: Apple Native CoreSVG 326-->
<!DOCTYPE svg
PUBLIC "-//W3C//DTD SVG 1.1//EN"
       "http://www.w3.org/Graphics/SVG/1.1/DTD/svg11.dtd">
<svg version="1.1" xmlns="http://www.w3.org/2000/svg" xmlns:xlink="http://www.w3.org/1999/xlink" viewBox="0 0 59.5508 45.918">
 <g>
  <rect height="45.918" opacity="0" width="59.5508" x="0" y="0"/>
  <path d="M59.1797 7.53906L59.1797 38.3984C59.1797 43.3594 56.6211 45.918 51.5625 45.918L7.59766 45.918C2.55859 45.918 0 43.3984 0 38.3984L0 7.53906C0 2.53906 2.55859 0 7.59766 0L51.5625 0C56.6211 0 59.1797 2.55859 59.1797 7.53906ZM10.1758 12.0312C7.75391 12.0312 6.54297 13.2422 6.54297 15.6055L6.54297 30.3711C6.54297 32.7344 7.75391 33.9453 10.1758 33.9453L24.8242 33.9453C27.2461 33.9453 28.457 32.7148 28.457 30.3711L28.457 15.6055C28.457 13.2617 27.2461 12.0312 24.8242 12.0312ZM32.4414 22.9883C32.4414 29.3945 36.7383 33.7305 43.1055 33.7305C44.8633 33.7305 46.4453 33.5352 47.3828 33.1641C48.0078 32.8906 48.3789 32.5195 48.3789 31.9336C48.3789 31.3281 47.9688 30.8789 47.3438 30.8789C47.0703 30.8789 46.8164 30.9375 46.3867 31.0156C45.6445 31.1523 44.9023 31.4062 43.3398 31.4062C38.1445 31.4062 34.8633 28.1641 34.8633 23.0078C34.8633 18.0078 38.2227 14.5117 43.0469 14.5117C47.8516 14.5117 51.1133 17.5586 51.1133 22.0703C51.1133 24.9023 50.2734 26.543 48.8867 26.543C47.9688 26.543 47.5586 26.0938 47.5586 25.1367L47.5586 18.5742C47.5586 17.8711 47.0703 17.3438 46.4062 17.3438C45.8789 17.3438 45.3906 17.7344 45.2734 18.2031L45.2734 18.5742C44.6289 17.8125 43.6914 17.3438 42.4414 17.3438C39.668 17.3438 37.7344 19.7266 37.7344 23.0469C37.7344 26.4648 39.668 28.7695 42.5 28.7695C43.8281 28.7695 44.9414 28.1836 45.6836 27.1289C46.2305 28.1836 47.3438 28.7891 48.6914 28.7891C51.5625 28.7891 53.3984 26.1133 53.3984 21.9531C53.3984 16.2305 49.1406 12.2266 43.0469 12.2266C36.7969 12.2266 32.4414 16.6406 32.4414 22.9883ZM25.4688 31.7383L9.55078 31.7383C10.1758 29.4531 12.9492 26.8945 17.5195 26.8945C22.0703 26.8945 24.8633 29.4531 25.4688 31.7383ZM45.332 22.9297C45.332 25.0977 44.3555 26.4453 42.8125 26.4453C41.25 26.4453 40.2734 25.1367 40.2734 23.0078C40.2734 20.918 41.2891 19.6094 42.832 19.6094C44.375 19.6094 45.332 20.8594 45.332 22.9297ZM21.6016 20.5273C21.6016 23.0664 19.7852 25.0195 17.5 25.0195C15.2148 25.0195 13.3984 23.0664 13.3984 20.5273C13.3984 18.1055 15.2148 16.1328 17.5 16.1328C19.7852 16.1328 21.6016 18.1055 21.6016 20.5273Z" fill="black" fill-opacity="0.85"/>
 </g>
</svg>
