<?xml version="1.0" encoding="UTF-8"?>
<!--Generator: Apple Native CoreSVG 326-->
<!DOCTYPE svg
PUBLIC "-//W3C//DTD SVG 1.1//EN"
       "http://www.w3.org/Graphics/SVG/1.1/DTD/svg11.dtd">
<svg version="1.1" xmlns="http://www.w3.org/2000/svg" xmlns:xlink="http://www.w3.org/1999/xlink" viewBox="0 0 51.25 50.918">
 <g>
  <rect height="50.918" opacity="0" width="51.25" x="0" y="0"/>
  <path d="M25.4297 50.8789C39.4727 50.8789 50.8789 39.4922 50.8789 25.4492C50.8789 11.4062 39.4727 0 25.4297 0C11.3867 0 0 11.4062 0 25.4492C0 39.4922 11.3867 50.8789 25.4297 50.8789ZM25.4297 47.2461C13.3789 47.2461 3.63281 37.5 3.63281 25.4492C3.63281 13.3984 13.3789 3.65234 25.4297 3.65234C37.4805 3.65234 47.2266 13.3984 47.2266 25.4492C47.2266 37.5 37.4805 47.2461 25.4297 47.2461Z" fill="black" fill-opacity="0.85"/>
  <path d="M8.41797 22.793C8.41797 26.8945 11.3281 29.8242 15.4297 29.8242L16.6797 29.8242C16.543 29.1992 16.4844 28.125 16.582 27.4023L15.6055 27.4023C12.8516 27.4023 10.957 25.5078 10.957 22.793C10.957 20.0781 12.8516 18.1445 15.6055 18.1445L25.8398 18.1445C28.5938 18.1445 30.4883 20.0781 30.4883 22.793C30.4883 25.5078 28.5938 27.4023 25.8398 27.4023L21.7578 27.4023C21.5234 28.0469 21.582 29.082 22.2266 29.8242L25.9961 29.8242C30.0977 29.8242 33.0078 26.8945 33.0078 22.793C33.0078 18.6914 30.0781 15.7422 25.9961 15.7422L15.4297 15.7422C11.3477 15.7422 8.41797 18.6914 8.41797 22.793ZM17.832 28.2812C17.832 32.3828 20.7617 35.332 24.8438 35.332L35.4102 35.332C39.4922 35.332 42.4219 32.3828 42.4219 28.2812C42.4219 24.1797 39.5117 21.25 35.4102 21.25L34.1602 21.25C34.2773 21.9141 34.375 22.6172 34.2578 23.6719L35.2344 23.6719C37.9883 23.6719 39.8828 25.5469 39.8828 28.2812C39.8828 30.9961 37.9688 32.9297 35.2344 32.9297L25 32.9297C22.2461 32.9297 20.3516 30.9961 20.3516 28.2812C20.3516 25.5469 22.2461 23.6719 25 23.6719L29.0625 23.6719C29.3164 23.0469 29.2578 21.8945 28.6328 21.25L24.8438 21.25C20.7422 21.25 17.832 24.1797 17.832 28.2812Z" fill="black" fill-opacity="0.85"/>
 </g>
</svg>
