<?xml version="1.0" encoding="UTF-8"?>
<!--Generator: Apple Native CoreSVG 326-->
<!DOCTYPE svg
PUBLIC "-//W3C//DTD SVG 1.1//EN"
       "http://www.w3.org/Graphics/SVG/1.1/DTD/svg11.dtd">
<svg version="1.1" xmlns="http://www.w3.org/2000/svg" xmlns:xlink="http://www.w3.org/1999/xlink" viewBox="0 0 51.25 50.918">
 <g>
  <rect height="50.918" opacity="0" width="51.25" x="0" y="0"/>
  <path d="M25.4297 50.8789C39.4727 50.8789 50.8789 39.4922 50.8789 25.4492C50.8789 11.4062 39.4727 0 25.4297 0C11.3867 0 0 11.4062 0 25.4492C0 39.4922 11.3867 50.8789 25.4297 50.8789ZM25.4297 47.2461C13.3789 47.2461 3.63281 37.5 3.63281 25.4492C3.63281 13.3984 13.3789 3.65234 25.4297 3.65234C37.4805 3.65234 47.2266 13.3984 47.2266 25.4492C47.2266 37.5 37.4805 47.2461 25.4297 47.2461Z" fill="black" fill-opacity="0.85"/>
  <path d="M13.7695 38.2812L37.0508 38.2812C37.9492 38.2812 38.3789 37.6953 38.3789 36.8359C38.3789 34.082 34.2383 26.7969 25.4102 26.7969C16.6016 26.7969 12.4609 34.082 12.4609 36.8359C12.4609 37.6953 12.8711 38.2812 13.7695 38.2812ZM25.4102 24.7461C28.9844 24.7656 31.8555 21.7383 31.8555 17.7148C31.8555 13.9258 28.9844 10.8008 25.4102 10.8008C21.8359 10.8008 18.9648 13.9258 18.9648 17.7148C18.9648 21.7383 21.8359 24.7266 25.4102 24.7461Z" fill="black" fill-opacity="0.85"/>
 </g>
</svg>
