<?xml version="1.0" encoding="UTF-8"?>
<!--Generator: Apple Native CoreSVG 326-->
<!DOCTYPE svg
PUBLIC "-//W3C//DTD SVG 1.1//EN"
       "http://www.w3.org/Graphics/SVG/1.1/DTD/svg11.dtd">
<svg version="1.1" xmlns="http://www.w3.org/2000/svg" xmlns:xlink="http://www.w3.org/1999/xlink" viewBox="0 0 54.3555 48.6523">
 <g>
  <rect height="48.6523" opacity="0" width="54.3555" x="0" y="0"/>
  <path d="M4.12109 46.8359L38.1445 46.8359C40.7031 46.8359 42.2656 45.6055 42.2656 43.6133C42.2656 37.1289 34.1602 28.1836 21.1328 28.1836C8.10547 28.1836 0 37.1289 0 43.6133C0 45.6055 1.5625 46.8359 4.12109 46.8359ZM21.1523 23.6719C26.6016 23.6719 31.1719 18.8281 31.1719 12.5781C31.1719 6.46484 26.5625 1.79688 21.1523 1.79688C15.7617 1.79688 11.1523 6.54297 11.1523 12.6172C11.1523 18.8281 15.7227 23.6719 21.1523 23.6719Z" fill="black" fill-opacity="0.85"/>
  <path d="M45.5859 17.7344C46.6602 17.7344 47.3047 17.0508 47.3047 16.1914C47.3047 16.0352 47.3047 15.8789 47.3047 15.7422C47.3047 14.2773 48.1055 13.3789 49.9219 12.1484C52.4219 10.5078 53.9844 9.02344 53.9844 6.17188C53.9844 2.24609 50.4883 0 46.3086 0C42.0703 0 39.3164 2.10938 38.7109 4.51172C38.5938 4.88281 38.5352 5.25391 38.5352 5.66406C38.5352 6.66016 39.2969 7.1875 40.0391 7.1875C40.8008 7.1875 41.2891 6.81641 41.6406 6.25L41.9922 5.72266C42.6758 4.10156 44.1797 2.94922 46.1523 2.94922C48.6523 2.94922 50.2539 4.33594 50.2539 6.34766C50.2539 8.06641 49.2383 8.96484 46.9727 10.5469C45.0781 11.8555 43.8672 13.1836 43.8672 15.5469C43.8672 15.7031 43.8672 15.8594 43.8672 16.0156C43.8672 17.1484 44.4922 17.7344 45.5859 17.7344ZM45.5273 25.0586C46.8555 25.0586 48.0078 23.9844 48.0078 22.6562C48.0078 21.3086 46.875 20.2539 45.5273 20.2539C44.1797 20.2539 43.0469 21.3281 43.0469 22.6562C43.0469 23.9648 44.1992 25.0586 45.5273 25.0586Z" fill="black" fill-opacity="0.85"/>
 </g>
</svg>
