<?xml version="1.0" encoding="UTF-8"?>
<!--Generator: Apple Native CoreSVG 326-->
<!DOCTYPE svg
PUBLIC "-//W3C//DTD SVG 1.1//EN"
       "http://www.w3.org/Graphics/SVG/1.1/DTD/svg11.dtd">
<svg version="1.1" xmlns="http://www.w3.org/2000/svg" xmlns:xlink="http://www.w3.org/1999/xlink" viewBox="0 0 59.5508 45.918">
 <g>
  <rect height="45.918" opacity="0" width="59.5508" x="0" y="0"/>
  <path d="M7.59766 45.918L51.5625 45.918C56.6211 45.918 59.1797 43.3594 59.1797 38.3984L59.1797 7.53906C59.1797 2.55859 56.6211 0 51.5625 0L7.59766 0C2.55859 0 0 2.53906 0 7.53906L0 38.3984C0 43.3984 2.55859 45.918 7.59766 45.918ZM7.67578 42.4609C4.94141 42.4609 3.45703 41.0156 3.45703 38.2031L3.45703 7.71484C3.45703 4.92188 4.94141 3.45703 7.67578 3.45703L51.5039 3.45703C54.1797 3.45703 55.7031 4.92188 55.7031 7.71484L55.7031 38.2031C55.7031 41.0156 54.1797 42.4609 51.5039 42.4609Z" fill="black" fill-opacity="0.85"/>
  <path d="M10.7031 33.6914L25 33.6914C27.3828 33.6914 28.5547 32.5 28.5547 30.1953L28.5547 15.7617C28.5547 13.4766 27.3828 12.2852 25 12.2852L10.7031 12.2852C8.33984 12.2852 7.14844 13.457 7.14844 15.7617L7.14844 30.1953C7.14844 32.5195 8.33984 33.6914 10.7031 33.6914ZM10.0781 31.543C10.6836 29.3164 13.3984 26.7969 17.8711 26.7969C22.3242 26.7969 25.0586 29.3164 25.6445 31.543ZM17.8516 24.9609C15.625 24.9609 13.8477 23.0664 13.8477 20.5859C13.8477 18.2031 15.625 16.3086 17.8516 16.3086C20.0781 16.3086 21.8555 18.2031 21.8555 20.5859C21.8555 23.0664 20.0781 24.9609 17.8516 24.9609ZM42.0898 33.457C43.8086 33.457 45.3516 33.3008 46.2695 32.9297C46.875 32.6758 47.2266 32.2852 47.2266 31.7188C47.2266 31.1523 46.8359 30.7227 46.2305 30.7227C45.957 30.7227 45.7031 30.7812 45.293 30.8594C44.5703 30.9766 43.8281 31.2305 42.3047 31.2305C37.2266 31.2305 34.0234 28.0469 34.0234 23.0078C34.0234 18.1055 37.3047 14.6875 42.0508 14.6875C46.7383 14.6875 49.9219 17.6758 49.9219 22.0898C49.9219 24.8633 49.1016 26.4844 47.7344 26.4844C46.8359 26.4844 46.4258 26.0352 46.4258 25.0586L46.4258 18.6719C46.4258 17.9883 45.957 17.4805 45.3125 17.4805C44.8047 17.4805 44.3359 17.8516 44.2188 18.3203L44.2188 18.6914C43.5938 17.9297 42.6758 17.4805 41.4453 17.4805C38.75 17.4805 36.8555 19.8047 36.8555 23.0469C36.8555 26.3867 38.75 28.6328 41.5039 28.6328C42.793 28.6328 43.8867 28.0664 44.6094 27.0117C45.1562 28.0469 46.2305 28.6523 47.5586 28.6523C50.3516 28.6523 52.1484 26.0352 52.1484 21.9727C52.1484 16.3867 47.9883 12.4805 42.0508 12.4805C35.918 12.4805 31.6602 16.7969 31.6602 22.9883C31.6602 29.2383 35.8594 33.457 42.0898 33.457ZM41.7969 26.3867C40.2734 26.3867 39.3164 25.0977 39.3164 23.0078C39.3164 20.957 40.3125 19.668 41.8164 19.668C43.3398 19.668 44.2773 20.8984 44.2773 22.9297C44.2773 25.0586 43.3398 26.3867 41.7969 26.3867Z" fill="black" fill-opacity="0.85"/>
 </g>
</svg>
