<?xml version="1.0" encoding="UTF-8"?>
<!--Generator: Apple Native CoreSVG 326-->
<!DOCTYPE svg
PUBLIC "-//W3C//DTD SVG 1.1//EN"
       "http://www.w3.org/Graphics/SVG/1.1/DTD/svg11.dtd">
<svg version="1.1" xmlns="http://www.w3.org/2000/svg" xmlns:xlink="http://www.w3.org/1999/xlink" viewBox="0 0 71.9727 57.0899">
 <g>
  <rect height="57.0899" opacity="0" width="71.9727" x="0" y="0"/>
  <path d="M27.5413 26.2834C25.2874 28.2079 23.9453 31.1127 23.9453 34.5704C23.9453 40.8985 28.5156 45.4297 34.8633 45.4297L46.6956 45.4297L50.1541 48.8868L34.5703 48.8868C26.25 48.8868 20.293 43.0274 20.293 34.5704C20.293 30.0105 22.0248 26.2058 24.9362 23.6794ZM71.6016 34.5704C71.6016 41.3811 67.7381 46.507 61.8844 48.2385C61.7812 48.104 61.6665 47.9752 61.543 47.8516L58.9635 45.2721C64.2883 44.4584 67.9492 40.234 67.9492 34.5704C67.9492 28.2032 63.3984 23.711 57.0312 23.711L54.8828 23.711C55.0195 22.6172 54.9219 21.3868 54.7852 20.2539L57.3242 20.2539C65.6445 20.2539 71.6016 26.1133 71.6016 34.5704ZM13.2231 11.9713C7.58452 12.5577 3.65234 16.8647 3.65234 22.7344C3.65234 29.1016 8.22266 33.5938 14.5703 33.5938L16.7383 33.5938C16.582 34.7071 16.6797 35.9375 16.8164 37.0508L14.2773 37.0508C5.97656 37.0508 0 31.1914 0 22.7344C0 15.7549 4.08948 10.5396 10.2073 8.95675ZM38.2588 36.9964C37.8589 37.0361 37.4481 37.0508 37.0312 37.0508L28.1641 37.0508C27.5391 36.0743 27.4414 34.4336 27.7344 33.5938L34.8547 33.5938ZM51.3086 22.7344C51.3086 27.1123 49.7122 30.7941 47.0084 33.3171L44.4046 30.7132C46.4502 28.7932 47.6562 26.0122 47.6562 22.7344C47.6562 16.4063 43.0859 11.8946 36.7383 11.8946L25.5859 11.8946L22.1289 8.43754L37.0312 8.43754C45.3516 8.43754 51.3086 14.2969 51.3086 22.7344ZM43.8867 23.711L37.4023 23.711L33.9718 20.2805C34.1653 20.2574 34.3671 20.2539 34.5703 20.2539L43.4375 20.2539C44.082 21.25 44.1797 22.8711 43.8867 23.711Z" fill="black" fill-opacity="0.85"/>
  <path d="M57.2656 52.1485C57.9102 52.793 58.9844 52.793 59.6094 52.1485C60.2539 51.4649 60.2734 50.4297 59.6094 49.7852L13.0469 3.2227C12.4023 2.57817 11.3477 2.55864 10.6836 3.2227C10.0391 3.8477 10.0391 4.94145 10.6836 5.56645Z" fill="black" fill-opacity="0.85"/>
 </g>
</svg>
