<?xml version="1.0" encoding="UTF-8"?>
<!--Generator: Apple Native CoreSVG 326-->
<!DOCTYPE svg
PUBLIC "-//W3C//DTD SVG 1.1//EN"
       "http://www.w3.org/Graphics/SVG/1.1/DTD/svg11.dtd">
<svg version="1.1" xmlns="http://www.w3.org/2000/svg" xmlns:xlink="http://www.w3.org/1999/xlink" viewBox="0 0 51.25 50.918">
 <g>
  <rect height="50.918" opacity="0" width="51.25" x="0" y="0"/>
  <path d="M50.8789 25.4492C50.8789 39.4531 39.4531 50.8789 25.4297 50.8789C11.4258 50.8789 0 39.4531 0 25.4492C0 11.4258 11.4258 0 25.4297 0C39.4531 0 50.8789 11.4258 50.8789 25.4492ZM9.64844 40.957C13.4766 45.0391 19.3359 47.6172 25.4297 47.6172C31.5039 47.6172 37.3828 45.0391 41.2109 40.957C38.4375 36.5625 32.3047 33.9453 25.4297 33.9453C18.4961 33.9453 12.3828 36.6016 9.64844 40.957ZM16.8164 20.1562C16.8164 25.5664 20.5859 29.6289 25.4297 29.668C30.2734 29.707 34.043 25.5664 34.043 20.1562C34.043 15.0781 30.2344 10.8594 25.4297 10.8594C20.625 10.8594 16.7773 15.0781 16.8164 20.1562Z" fill="black" fill-opacity="0.85"/>
 </g>
</svg>
