<?xml version="1.0" encoding="UTF-8"?>
<!--Generator: Apple Native CoreSVG 326-->
<!DOCTYPE svg
PUBLIC "-//W3C//DTD SVG 1.1//EN"
       "http://www.w3.org/Graphics/SVG/1.1/DTD/svg11.dtd">
<svg version="1.1" xmlns="http://www.w3.org/2000/svg" xmlns:xlink="http://www.w3.org/1999/xlink" viewBox="0 0 61.1914 61.7383">
 <g>
  <rect height="61.7383" opacity="0" width="61.1914" x="0" y="0"/>
  <path d="M43.7305 9.375L44.5585 14.0625L23.4961 14.0625C17.2461 14.0625 13.5156 17.7148 13.5156 23.9844L13.5156 49.657C10.3375 49.5502 8.41446 47.6577 7.75391 43.9844L2.92969 16.5625C2.12891 12.1094 4.02344 9.47266 8.49609 8.67188L35.8008 3.86719C40.293 3.08594 42.9492 4.94141 43.7305 9.375Z" fill="black" fill-opacity="0.85"/>
  <path d="M23.4961 58.6328L51.2305 58.6328C55.7812 58.6328 58.0859 56.3281 58.0859 51.8164L58.0859 23.9844C58.0859 19.4922 55.7812 17.1875 51.2305 17.1875L23.4961 17.1875C18.9648 17.1875 16.6406 19.4727 16.6406 23.9844L16.6406 51.8164C16.6406 56.3477 18.9648 58.6328 23.4961 58.6328ZM21.9141 55.3711C23.3984 49.8438 29.7461 45.332 37.3828 45.332C45 45.332 51.3477 49.8438 52.832 55.3711ZM37.3633 41.5625C33.0469 41.5625 29.6289 37.9297 29.6289 33.0859C29.6289 28.5352 33.0469 24.8047 37.3633 24.8047C41.6797 24.8047 45.0977 28.5352 45.0977 33.0859C45.0977 37.9297 41.6797 41.5625 37.3633 41.5625Z" fill="black" fill-opacity="0.85"/>
 </g>
</svg>
