<?xml version="1.0" encoding="UTF-8"?>
<!--Generator: Apple Native CoreSVG 326-->
<!DOCTYPE svg
PUBLIC "-//W3C//DTD SVG 1.1//EN"
       "http://www.w3.org/Graphics/SVG/1.1/DTD/svg11.dtd">
<svg version="1.1" xmlns="http://www.w3.org/2000/svg" xmlns:xlink="http://www.w3.org/1999/xlink" viewBox="0 0 51.25 50.918">
 <g>
  <rect height="50.918" opacity="0" width="51.25" x="0" y="0"/>
  <path d="M25.4297 50.8789C39.4727 50.8789 50.8789 39.4922 50.8789 25.4492C50.8789 11.4062 39.4727 0 25.4297 0C11.3867 0 0 11.4062 0 25.4492C0 39.4922 11.3867 50.8789 25.4297 50.8789ZM25.4297 47.2461C13.3789 47.2461 3.63281 37.5 3.63281 25.4492C3.63281 13.3984 13.3789 3.65234 25.4297 3.65234C37.4805 3.65234 47.2266 13.3984 47.2266 25.4492C47.2266 37.5 37.4805 47.2461 25.4297 47.2461Z" fill="black" fill-opacity="0.85"/>
  <path d="M19.6289 34.9609C23.6719 34.9609 25.6641 32.4219 25.6641 29.1016C25.6641 25.6836 23.6133 24.375 20.918 23.3398L19.4922 22.793C17.5977 22.0508 16.3477 21.1523 16.3477 19.1211C16.3477 17.2461 17.4609 15.8789 19.4727 15.8789C21.3281 15.8789 22.5 16.9922 22.9492 18.9258C23.1055 19.5703 23.5156 19.8438 24.1211 19.8438C24.7852 19.8438 25.1953 19.375 25.1953 18.7305C25.1953 18.5156 25.1562 18.2422 25.1172 18.0273C24.5312 15.4102 22.3828 13.7109 19.5117 13.7109C15.8984 13.7109 13.8281 16.1914 13.8281 19.2773C13.8281 22.3047 15.6055 23.9453 18.457 25L19.8828 25.5273C21.8359 26.25 23.1445 27.2852 23.1445 29.3555C23.1445 31.2109 21.9727 32.793 19.668 32.793C17.6172 32.793 16.3086 31.6016 15.8984 29.5703C15.7422 28.9453 15.3516 28.6523 14.7266 28.6523C14.082 28.6523 13.6133 29.1406 13.6133 29.8242C13.6133 30.1172 13.6719 30.4883 13.75 30.7422C14.5312 33.418 16.6406 34.9609 19.6289 34.9609ZM27.6758 39.7656C28.3789 39.7656 28.7109 39.375 28.8281 38.6523L32.8516 15.5469C32.8906 15.3906 32.9492 15.1367 32.9492 14.8242C32.9492 14.1992 32.5195 13.75 31.875 13.75C31.1719 13.75 30.8398 14.1406 30.7227 14.8633L26.6992 37.9688C26.6602 38.125 26.6016 38.3789 26.6016 38.6914C26.6016 39.3359 27.0312 39.7656 27.6758 39.7656ZM36.2109 34.7461C37.1484 34.7461 37.8711 34.0625 37.8711 33.1445C37.8711 32.2461 37.1484 31.5234 36.2109 31.5234C35.293 31.5234 34.6094 32.2461 34.6094 33.1445C34.6094 34.0625 35.293 34.7461 36.2109 34.7461Z" fill="black" fill-opacity="0.85"/>
 </g>
</svg>
