<?xml version="1.0" encoding="UTF-8"?>
<!--Generator: Apple Native CoreSVG 326-->
<!DOCTYPE svg
PUBLIC "-//W3C//DTD SVG 1.1//EN"
       "http://www.w3.org/Graphics/SVG/1.1/DTD/svg11.dtd">
<svg version="1.1" xmlns="http://www.w3.org/2000/svg" xmlns:xlink="http://www.w3.org/1999/xlink" viewBox="0 0 60.4102 49.8382">
 <g>
  <rect height="49.8382" opacity="0" width="60.4102" x="0" y="0"/>
  <path d="M60.0391 29.9093C60.0391 14.1867 47.9492 1.29605 32.5977 0.00698344C31.7969-0.0711416 31.1719 0.514796 31.1719 1.33511L31.1719 9.32339C31.1719 9.98745 31.6602 10.5148 32.3438 10.5734C41.9727 11.7453 49.4531 19.9484 49.4531 29.9093C49.4531 34.4406 47.9102 38.6007 45.1758 42.0382C44.8047 42.507 44.8242 43.0929 45.2344 43.5031L51.0352 49.3039C51.6211 49.8703 52.4609 49.8703 52.9688 49.2453C57.3828 44.0109 60.0391 37.2531 60.0391 29.9093Z" fill="black" fill-opacity="0.85"/>
  <path d="M0 29.9093C0 37.2726 2.65625 44.05 7.08984 49.2843C7.57812 49.8703 8.39844 49.8703 8.98438 49.3039L14.7852 43.5031C15.1953 43.0929 15.2148 42.507 14.8438 42.0382C12.1094 38.6007 10.5664 34.4406 10.5664 29.9093C10.5664 19.9484 18.0664 11.7453 27.6758 10.5734C28.3789 10.5148 28.8477 9.98745 28.8477 9.32339L28.8477 1.33511C28.8477 0.514796 28.2422-0.0711416 27.4414 0.00698344C12.0703 1.29605 0 14.1867 0 29.9093Z" fill="black" fill-opacity="0.85"/>
  <path d="M24.1992 39.7531C28.2422 39.7531 30.2344 37.214 30.2344 33.8937C30.2344 30.4757 28.1836 29.1671 25.4883 28.1125L24.082 27.5656C22.1875 26.8429 20.918 25.9445 20.918 23.8937C20.918 22.0382 22.0508 20.671 24.0625 20.671C25.918 20.671 27.0898 21.7843 27.5195 23.7179C27.6758 24.3625 28.0859 24.6359 28.7109 24.6359C29.375 24.6359 29.7852 24.1671 29.7852 23.5031C29.7852 23.3078 29.7461 23.0343 29.6875 22.8195C29.1016 20.2023 26.9727 18.5031 24.082 18.5031C20.4688 18.5031 18.418 20.964 18.418 24.0695C18.418 27.0968 20.1758 28.7375 23.0273 29.7921L24.4727 30.3195C26.4062 31.0421 27.7344 32.0578 27.7344 34.1281C27.7344 35.9835 26.5625 37.5851 24.2578 37.5851C22.207 37.5851 20.8789 36.3742 20.4883 34.3429C20.332 33.7375 19.9414 33.425 19.3164 33.425C18.6523 33.425 18.1836 33.9328 18.1836 34.6164C18.1836 34.9093 18.2422 35.2609 18.3203 35.5343C19.1016 38.2101 21.2109 39.7531 24.1992 39.7531ZM32.2656 44.5578C32.9492 44.5578 33.3008 44.1671 33.418 43.4445L37.4414 20.339C37.4805 20.1828 37.5195 19.9289 37.5195 19.6164C37.5195 18.9718 37.1094 18.5421 36.4453 18.5421C35.7617 18.5421 35.4102 18.9328 35.293 19.6554L31.2695 42.7609C31.2305 42.9171 31.1914 43.171 31.1914 43.4835C31.1914 44.1085 31.6016 44.5578 32.2656 44.5578ZM40.8008 39.5382C41.7383 39.5382 42.4414 38.8546 42.4414 37.9367C42.4414 37.0187 41.7383 36.3156 40.8008 36.3156C39.8828 36.3156 39.1797 37.0187 39.1797 37.9367C39.1797 38.8546 39.8828 39.5382 40.8008 39.5382Z" fill="black" fill-opacity="0.85"/>
 </g>
</svg>
