<?xml version="1.0" encoding="UTF-8"?>
<!--Generator: Apple Native CoreSVG 326-->
<!DOCTYPE svg
PUBLIC "-//W3C//DTD SVG 1.1//EN"
       "http://www.w3.org/Graphics/SVG/1.1/DTD/svg11.dtd">
<svg version="1.1" xmlns="http://www.w3.org/2000/svg" xmlns:xlink="http://www.w3.org/1999/xlink" viewBox="0 0 60.961 50.918">
 <g>
  <rect height="50.918" opacity="0" width="60.961" x="0" y="0"/>
  <path d="M30.295 50.8789C44.3379 50.8789 55.7246 39.4922 55.7246 25.4492C55.7246 11.4062 44.3379 0 30.295 0C16.252 0 4.86526 11.4062 4.86526 25.4492L8.49808 25.4492C8.49808 13.3984 18.2442 3.65234 30.295 3.65234C42.3457 3.65234 52.0918 13.3984 52.0918 25.4492C52.0918 37.5 42.3457 47.2461 30.295 47.2461C22.834 47.2461 16.1739 43.457 12.3653 37.7539C11.7207 36.875 10.7051 36.6016 9.80667 37.1484C8.94729 37.6562 8.69339 38.8477 9.39651 39.8047C13.9473 46.5039 21.6426 50.8789 30.295 50.8789ZM1.60354 20.7227C0.00198146 20.7227-0.447237 21.8164 0.470731 23.0859L6.01761 30.9766C6.75979 32.0508 7.83401 32.0312 8.55667 30.9766L14.1035 23.0664C14.9825 21.8164 14.5528 20.7227 12.9707 20.7227Z" fill="black" fill-opacity="0.85"/>
  <path d="M24.5137 34.9609C28.5567 34.9609 30.5489 32.4219 30.5489 29.1016C30.5489 25.6836 28.4981 24.375 25.8028 23.3398L24.377 22.793C22.4825 22.0508 21.2325 21.1523 21.2325 19.1211C21.2325 17.2461 22.3457 15.8789 24.3575 15.8789C26.2129 15.8789 27.3848 16.9922 27.834 18.9258C27.9903 19.5703 28.4004 19.8438 29.0059 19.8438C29.67 19.8438 30.0801 19.375 30.0801 18.7305C30.0801 18.5156 30.041 18.2422 30.002 18.0273C29.416 15.4102 27.2676 13.7109 24.3965 13.7109C20.7832 13.7109 18.7129 16.1914 18.7129 19.2773C18.7129 22.3047 20.4903 23.9453 23.3418 25L24.7676 25.5273C26.7207 26.25 28.0293 27.2852 28.0293 29.3555C28.0293 31.2109 26.8575 32.793 24.5528 32.793C22.502 32.793 21.1934 31.6016 20.7832 29.5703C20.627 28.9453 20.2364 28.6523 19.6309 28.6523C18.9668 28.6523 18.4981 29.1406 18.4981 29.8242C18.4981 30.1172 18.5567 30.4883 18.6348 30.7422C19.416 33.418 21.5254 34.9609 24.5137 34.9609ZM32.5606 39.7656C33.2637 39.7656 33.5957 39.375 33.7129 38.6523L37.7364 15.5469C37.7754 15.3906 37.834 15.1367 37.834 14.8242C37.834 14.1992 37.4043 13.75 36.7598 13.75C36.0567 13.75 35.7246 14.1406 35.6075 14.8633L31.584 37.9688C31.545 38.125 31.4864 38.3789 31.4864 38.6914C31.4864 39.3359 31.916 39.7656 32.5606 39.7656ZM41.0957 34.7461C42.0332 34.7461 42.7559 34.0625 42.7559 33.1445C42.7559 32.2461 42.0332 31.5234 41.0957 31.5234C40.1778 31.5234 39.4942 32.2461 39.4942 33.1445C39.4942 34.0625 40.1778 34.7461 41.0957 34.7461Z" fill="black" fill-opacity="0.85"/>
 </g>
</svg>
