<?xml version="1.0" encoding="UTF-8"?>
<!--Generator: Apple Native CoreSVG 326-->
<!DOCTYPE svg
PUBLIC "-//W3C//DTD SVG 1.1//EN"
       "http://www.w3.org/Graphics/SVG/1.1/DTD/svg11.dtd">
<svg version="1.1" xmlns="http://www.w3.org/2000/svg" xmlns:xlink="http://www.w3.org/1999/xlink" viewBox="0 0 55.5273 53.1055">
 <g>
  <rect height="53.1055" opacity="0" width="55.5273" x="0" y="0"/>
  <path d="M3.06641 47.6758L52.0898 47.6758L52.0898 46.1719C52.0898 45.332 51.582 44.8242 50.7227 44.8242L49.1211 44.8242L49.1211 16.6797L51.3867 16.6797C52.5781 16.6797 53.2422 15.8398 53.2422 14.9609C53.2422 14.3164 52.8906 13.75 52.1094 13.3008L30.5273 0.839844C29.5703 0.292969 28.5547 0 27.5781 0C26.6016 0 25.5664 0.292969 24.6289 0.839844L3.04688 13.3008C2.24609 13.75 1.91406 14.3164 1.91406 14.9609C1.91406 15.8398 2.57812 16.6797 3.76953 16.6797L6.05469 16.6797L6.05469 44.8242L4.45312 44.8242C3.57422 44.8242 3.06641 45.332 3.06641 46.1719ZM9.31641 44.8242L9.31641 13.7109L26.4453 4.0625C26.7773 3.86719 27.1875 3.75 27.5781 3.75C27.9492 3.75 28.3398 3.86719 28.7109 4.0625L45.8594 13.7109L45.8594 44.8242ZM1.73828 53.0664L53.418 53.0664C54.375 53.0664 55.1562 52.2852 55.1562 51.3477C55.1562 50.3906 54.375 49.6094 53.418 49.6094L1.73828 49.6094C0.78125 49.6094 0 50.3906 0 51.3477C0 52.2852 0.78125 53.0664 1.73828 53.0664Z" fill="black" fill-opacity="0.85"/>
  <path d="M22.5195 37.8125C23.3203 37.8125 23.8281 37.3047 23.8281 36.5039L23.8281 29.5117L28.4961 29.5117C32.8125 29.5117 35.8203 26.6602 35.8203 22.3633C35.8203 17.9883 32.7734 15.2344 28.5352 15.2344L22.5391 15.2344C21.7383 15.2344 21.2109 15.7617 21.2109 16.582L21.2109 36.5039C21.2109 37.3047 21.7188 37.8125 22.5195 37.8125ZM23.8281 27.3242L23.8281 17.4219L27.8906 17.4219C31.0156 17.4219 33.1445 19.0625 33.1445 22.3633C33.1445 25.6055 31.1328 27.3242 27.8711 27.3242ZM18.7891 22.2266C18.7891 22.6562 19.1211 22.9883 19.5703 22.9883L37.0703 22.9883C37.5195 22.9883 37.8711 22.6367 37.8711 22.2266C37.8711 21.7969 37.5195 21.4648 37.0703 21.4648L19.5703 21.4648C19.1211 21.4648 18.7891 21.7969 18.7891 22.2266Z" fill="black" fill-opacity="0.85"/>
 </g>
</svg>
