<?xml version="1.0" encoding="UTF-8"?>
<!--Generator: Apple Native CoreSVG 326-->
<!DOCTYPE svg
PUBLIC "-//W3C//DTD SVG 1.1//EN"
       "http://www.w3.org/Graphics/SVG/1.1/DTD/svg11.dtd">
<svg version="1.1" xmlns="http://www.w3.org/2000/svg" xmlns:xlink="http://www.w3.org/1999/xlink" viewBox="0 0 55.5273 53.1055">
 <g>
  <rect height="53.1055" opacity="0" width="55.5273" x="0" y="0"/>
  <path d="M30.5273 0.839844L52.1094 13.3008C52.8906 13.75 53.2422 14.3164 53.2422 14.9609C53.2422 15.8398 52.5781 16.6797 51.3867 16.6797L49.1211 16.6797L49.1211 46.5039L50.7227 46.5039C51.582 46.5039 52.0898 47.0117 52.0898 47.8516L52.0898 49.6094L53.418 49.6094C54.375 49.6094 55.1562 50.3906 55.1562 51.3477C55.1562 52.2852 54.375 53.0664 53.418 53.0664L1.73828 53.0664C0.78125 53.0664 0 52.2852 0 51.3477C0 50.3906 0.78125 49.6094 1.73828 49.6094L3.06641 49.6094L3.06641 47.8516C3.06641 47.0117 3.57422 46.5039 4.45312 46.5039L6.05469 46.5039L6.05469 16.6797L3.76953 16.6797C2.57812 16.6797 1.91406 15.8398 1.91406 14.9609C1.91406 14.3164 2.24609 13.75 3.04688 13.3008L24.6289 0.839844C25.5664 0.292969 26.6016 0 27.5781 0C28.5547 0 29.5703 0.292969 30.5273 0.839844ZM22.4023 17.1875C21.543 17.1875 21.0352 17.7344 21.0352 18.5938L21.0352 23.5742L19.3555 23.5742C18.8867 23.5742 18.5352 23.9258 18.5352 24.375C18.5352 24.8242 18.8867 25.1562 19.3555 25.1562L21.0352 25.1562L21.0352 39.0039C21.0352 39.8438 21.543 40.3711 22.3828 40.3711C23.2031 40.3711 23.7305 39.8438 23.7305 39.0039L23.7305 31.8555L28.5156 31.8555C32.7344 31.8555 35.7227 29.2188 36.0156 25.1562L37.2852 25.1562C37.7539 25.1562 38.125 24.8047 38.125 24.375C38.125 23.9258 37.7539 23.5742 37.2852 23.5742L35.9766 23.5742C35.5859 19.6289 32.5977 17.1875 28.5547 17.1875ZM27.8516 29.5898L23.7305 29.5898L23.7305 25.1562L33.2227 25.1562C32.9688 28.0664 30.9766 29.5898 27.8516 29.5898ZM33.2031 23.5742L23.7305 23.5742L23.7305 19.4531L27.8906 19.4531C30.7812 19.4531 32.832 20.8398 33.2031 23.5742Z" fill="black" fill-opacity="0.85"/>
 </g>
</svg>
