<?xml version="1.0" encoding="UTF-8"?>
<!--Generator: Apple Native CoreSVG 326-->
<!DOCTYPE svg
PUBLIC "-//W3C//DTD SVG 1.1//EN"
       "http://www.w3.org/Graphics/SVG/1.1/DTD/svg11.dtd">
<svg version="1.1" xmlns="http://www.w3.org/2000/svg" xmlns:xlink="http://www.w3.org/1999/xlink" viewBox="0 0 46.2891 45.918">
 <g>
  <rect height="45.918" opacity="0" width="46.2891" x="0" y="0"/>
  <path d="M45.918 7.53906L45.918 38.3984C45.918 43.3594 43.3594 45.918 38.3008 45.918L7.59766 45.918C2.55859 45.918 0 43.3984 0 38.3984L0 7.53906C0 2.53906 2.55859 0 7.59766 0L38.3008 0C43.3594 0 45.918 2.55859 45.918 7.53906ZM17.793 11.4844C16.9336 11.4844 16.4258 12.0117 16.4258 12.8711L16.4258 17.8516L14.7461 17.8516C14.2773 17.8516 13.9062 18.2031 13.9062 18.6523C13.9062 19.1016 14.2773 19.4531 14.7461 19.4531L16.4258 19.4531L16.4258 33.2812C16.4258 34.1211 16.9141 34.6484 17.7734 34.6484C18.5938 34.6484 19.1211 34.1211 19.1211 33.2812L19.1211 26.1328L23.9062 26.1328C28.1055 26.1328 31.0938 23.4961 31.3867 19.4531L32.6758 19.4531C33.1445 19.4531 33.4961 19.082 33.4961 18.6523C33.4961 18.2031 33.1445 17.8516 32.6758 17.8516L31.3477 17.8516C30.957 13.9258 27.9883 11.4844 23.9453 11.4844ZM23.2422 23.8867L19.1211 23.8867L19.1211 19.4531L28.6133 19.4531C28.3594 22.3438 26.3477 23.8867 23.2422 23.8867ZM28.5742 17.8516L19.1211 17.8516L19.1211 13.7305L23.2812 13.7305C26.1719 13.7305 28.2227 15.1172 28.5742 17.8516Z" fill="black" fill-opacity="0.85"/>
 </g>
</svg>
