<?xml version="1.0" encoding="UTF-8"?>
<!--Generator: Apple Native CoreSVG 326-->
<!DOCTYPE svg
PUBLIC "-//W3C//DTD SVG 1.1//EN"
       "http://www.w3.org/Graphics/SVG/1.1/DTD/svg11.dtd">
<svg version="1.1" xmlns="http://www.w3.org/2000/svg" xmlns:xlink="http://www.w3.org/1999/xlink" viewBox="0 0 37.8125 45.5273">
 <g>
  <rect height="45.5273" opacity="0" width="37.8125" x="0" y="0"/>
  <path d="M6.89453 45.4492C8.125 45.4492 9.00391 44.5312 9.00391 43.3008L9.00391 29.082L18.7695 29.082C27.4414 29.082 33.418 23.125 33.418 14.5117C33.418 6.03516 27.6367 0 18.8086 0L6.875 0C5.625 0 4.74609 0.917969 4.74609 2.20703L4.74609 43.3008C4.74609 44.5312 5.66406 45.4492 6.89453 45.4492ZM9.00391 25.3711L9.00391 3.69141L17.8711 3.69141C24.8828 3.69141 29.1211 7.73438 29.1211 14.5117C29.1211 21.3477 24.8242 25.3711 17.8711 25.3711ZM0 10.5859C0 11.4258 0.605469 12.0117 1.44531 12.0117L35.9961 12.0117C36.8359 12.0117 37.4414 11.4062 37.4414 10.5859C37.4414 9.78516 36.8359 9.16016 35.9961 9.16016L1.44531 9.16016C0.605469 9.16016 0 9.78516 0 10.5859ZM0 18.5352C0 19.375 0.605469 19.9609 1.44531 19.9609L35.9961 19.9609C36.8359 19.9609 37.4414 19.3555 37.4414 18.5352C37.4414 17.7344 36.8359 17.1289 35.9961 17.1289L1.44531 17.1289C0.605469 17.1289 0 17.7344 0 18.5352Z" fill="black" fill-opacity="0.85"/>
 </g>
</svg>
