<?xml version="1.0" encoding="UTF-8"?>
<!--Generator: Apple Native CoreSVG 326-->
<!DOCTYPE svg
PUBLIC "-//W3C//DTD SVG 1.1//EN"
       "http://www.w3.org/Graphics/SVG/1.1/DTD/svg11.dtd">
<svg version="1.1" xmlns="http://www.w3.org/2000/svg" xmlns:xlink="http://www.w3.org/1999/xlink" viewBox="0 0 55.5273 53.1055">
 <g>
  <rect height="53.1055" opacity="0" width="55.5273" x="0" y="0"/>
  <path d="M3.06641 47.6758L52.0898 47.6758L52.0898 46.1719C52.0898 45.332 51.582 44.8242 50.7227 44.8242L49.1211 44.8242L49.1211 16.6797L51.3867 16.6797C52.5781 16.6797 53.2422 15.8398 53.2422 14.9609C53.2422 14.3164 52.8906 13.75 52.1094 13.3008L30.5273 0.839844C29.5703 0.292969 28.5547 0 27.5781 0C26.6016 0 25.5664 0.292969 24.6289 0.839844L3.04688 13.3008C2.24609 13.75 1.91406 14.3164 1.91406 14.9609C1.91406 15.8398 2.57812 16.6797 3.76953 16.6797L6.05469 16.6797L6.05469 44.8242L4.45312 44.8242C3.57422 44.8242 3.06641 45.332 3.06641 46.1719ZM9.31641 44.8242L9.31641 13.7109L26.4453 4.0625C26.7773 3.86719 27.1875 3.75 27.5781 3.75C27.9492 3.75 28.3398 3.86719 28.7109 4.0625L45.8594 13.7109L45.8594 44.8242ZM1.73828 53.0664L53.418 53.0664C54.375 53.0664 55.1562 52.2852 55.1562 51.3477C55.1562 50.3906 54.375 49.6094 53.418 49.6094L1.73828 49.6094C0.78125 49.6094 0 50.3906 0 51.3477C0 52.2852 0.78125 53.0664 1.73828 53.0664Z" fill="black" fill-opacity="0.85"/>
  <path d="M22.6367 37.8125C23.4375 37.8125 23.9648 37.2852 23.9648 36.4844L23.9648 30.0586L28.6133 30.0586C33.1055 30.0586 35.957 26.8555 35.957 22.6172C35.957 18.4766 33.2227 15.2148 28.6719 15.2148L22.6562 15.2148C21.8359 15.2148 21.3477 15.7422 21.3477 16.5625L21.3477 36.4844C21.3477 37.2852 21.8555 37.8125 22.6367 37.8125ZM23.9648 27.8711L23.9648 17.4023L28.0469 17.4023C31.25 17.4023 33.3008 19.2773 33.3008 22.6172C33.3008 25.8984 31.2891 27.8711 28.0469 27.8711ZM18.8672 20.6641C18.8672 21.1133 19.2188 21.4258 19.6484 21.4258L37.207 21.4258C37.6367 21.4258 37.9883 21.0938 37.9883 20.6641C37.9883 20.2539 37.6367 19.9023 37.207 19.9023L19.6484 19.9023C19.2188 19.9023 18.8672 20.2539 18.8672 20.6641ZM18.8672 24.6289C18.8672 25.0781 19.2188 25.3906 19.6484 25.3906L37.207 25.3906C37.6367 25.3906 37.9883 25.0391 37.9883 24.6289C37.9883 24.1992 37.6367 23.8672 37.207 23.8672L19.6484 23.8672C19.2188 23.8672 18.8672 24.1992 18.8672 24.6289Z" fill="black" fill-opacity="0.85"/>
 </g>
</svg>
