<?xml version="1.0" encoding="UTF-8"?>
<!--Generator: Apple Native CoreSVG 326-->
<!DOCTYPE svg
PUBLIC "-//W3C//DTD SVG 1.1//EN"
       "http://www.w3.org/Graphics/SVG/1.1/DTD/svg11.dtd">
<svg version="1.1" xmlns="http://www.w3.org/2000/svg" xmlns:xlink="http://www.w3.org/1999/xlink" viewBox="0 0 60.4102 49.8382">
 <g>
  <rect height="49.8382" opacity="0" width="60.4102" x="0" y="0"/>
  <path d="M60.0391 29.9093C60.0391 14.1867 47.9492 1.29605 32.5977 0.00698344C31.7969-0.0711416 31.1719 0.514796 31.1719 1.33511L31.1719 9.32339C31.1719 9.98745 31.6602 10.5148 32.3438 10.5734C41.9727 11.7453 49.4531 19.9484 49.4531 29.9093C49.4531 34.4406 47.9102 38.6007 45.1758 42.0382C44.8047 42.507 44.8242 43.0929 45.2344 43.5031L51.0352 49.3039C51.6211 49.8703 52.4609 49.8703 52.9688 49.2453C57.3828 44.0109 60.0391 37.2531 60.0391 29.9093Z" fill="black" fill-opacity="0.85"/>
  <path d="M0 29.9093C0 37.2726 2.65625 44.05 7.08984 49.2843C7.57812 49.8703 8.39844 49.8703 8.98438 49.3039L14.7852 43.5031C15.1953 43.0929 15.2148 42.507 14.8438 42.0382C12.1094 38.6007 10.5664 34.4406 10.5664 29.9093C10.5664 19.9484 18.0664 11.7453 27.6758 10.5734C28.3789 10.5148 28.8477 9.98745 28.8477 9.32339L28.8477 1.33511C28.8477 0.514796 28.2422-0.0711416 27.4414 0.00698344C12.0703 1.29605 0 14.1867 0 29.9093Z" fill="black" fill-opacity="0.85"/>
  <path d="M25.0391 41.6281C25.8398 41.6281 26.3672 41.1203 26.3672 40.3195L26.3672 33.8742L31.0156 33.8742C35.5078 33.8742 38.3594 30.671 38.3594 26.4328C38.3594 22.3117 35.625 19.05 31.0742 19.05L25.0586 19.05C24.2383 19.05 23.75 19.5578 23.75 20.3781L23.75 40.3195C23.75 41.1203 24.2578 41.6281 25.0391 41.6281ZM26.3672 31.6867L26.3672 21.2179L30.4492 21.2179C33.6523 21.2179 35.7031 23.0929 35.7031 26.4328C35.7031 29.714 33.6914 31.6867 30.4492 31.6867ZM21.2695 24.4992C21.2695 24.9484 21.6211 25.2414 22.0508 25.2414L39.6094 25.2414C40.0391 25.2414 40.3906 24.9093 40.3906 24.4992C40.3906 24.0695 40.0391 23.7375 39.6094 23.7375L22.0508 23.7375C21.6211 23.7375 21.2695 24.0695 21.2695 24.4992ZM21.2695 28.4445C21.2695 28.8937 21.6211 29.2062 22.0508 29.2062L39.6094 29.2062C40.0391 29.2062 40.3906 28.8546 40.3906 28.4445C40.3906 28.0343 40.0391 27.6828 39.6094 27.6828L22.0508 27.6828C21.6211 27.6828 21.2695 28.0343 21.2695 28.4445Z" fill="black" fill-opacity="0.85"/>
 </g>
</svg>
