<?xml version="1.0" encoding="UTF-8"?>
<!--Generator: Apple Native CoreSVG 326-->
<!DOCTYPE svg
PUBLIC "-//W3C//DTD SVG 1.1//EN"
       "http://www.w3.org/Graphics/SVG/1.1/DTD/svg11.dtd">
<svg version="1.1" xmlns="http://www.w3.org/2000/svg" xmlns:xlink="http://www.w3.org/1999/xlink" viewBox="0 0 51.25 50.918">
 <g>
  <rect height="50.918" opacity="0" width="51.25" x="0" y="0"/>
  <path d="M25.4297 50.8789C39.4727 50.8789 50.8789 39.4922 50.8789 25.4492C50.8789 11.4062 39.4727 0 25.4297 0C11.3867 0 0 11.4062 0 25.4492C0 39.4922 11.3867 50.8789 25.4297 50.8789ZM25.4297 47.2461C13.3789 47.2461 3.63281 37.5 3.63281 25.4492C3.63281 13.3984 13.3789 3.65234 25.4297 3.65234C37.4805 3.65234 47.2266 13.3984 47.2266 25.4492C47.2266 37.5 37.4805 47.2461 25.4297 47.2461Z" fill="black" fill-opacity="0.85"/>
  <path d="M20.4688 36.8555C21.2695 36.8555 21.7969 36.3281 21.7969 35.5273L21.7969 29.1016L26.4258 29.1016C30.9375 29.1016 33.7891 25.8984 33.7891 21.6406C33.7891 17.5195 31.0547 14.2578 26.4844 14.2578L20.4688 14.2578C19.668 14.2578 19.1602 14.7656 19.1602 15.6055L19.1602 35.5273C19.1602 36.3281 19.6875 36.8555 20.4688 36.8555ZM21.7969 26.8945L21.7969 16.4258L25.8594 16.4258C29.082 16.4258 31.1328 18.3008 31.1328 21.6406C31.1328 24.9414 29.1211 26.8945 25.8594 26.8945ZM16.6992 19.707C16.6992 20.1562 17.0508 20.4688 17.4805 20.4688L35.0195 20.4688C35.4688 20.4688 35.8008 20.1172 35.8008 19.707C35.8008 19.2969 35.4688 18.9453 35.0195 18.9453L17.4805 18.9453C17.0508 18.9453 16.6992 19.2969 16.6992 19.707ZM16.6992 23.6523C16.6992 24.1016 17.0508 24.4141 17.4805 24.4141L35.0195 24.4141C35.4688 24.4141 35.8008 24.082 35.8008 23.6523C35.8008 23.2422 35.4688 22.8906 35.0195 22.8906L17.4805 22.8906C17.0508 22.8906 16.6992 23.2422 16.6992 23.6523Z" fill="black" fill-opacity="0.85"/>
 </g>
</svg>
