<?xml version="1.0" encoding="UTF-8"?>
<!--Generator: Apple Native CoreSVG 326-->
<!DOCTYPE svg
PUBLIC "-//W3C//DTD SVG 1.1//EN"
       "http://www.w3.org/Graphics/SVG/1.1/DTD/svg11.dtd">
<svg version="1.1" xmlns="http://www.w3.org/2000/svg" xmlns:xlink="http://www.w3.org/1999/xlink" viewBox="0 0 46.2891 45.918">
 <g>
  <rect height="45.918" opacity="0" width="46.2891" x="0" y="0"/>
  <path d="M45.918 7.53906L45.918 38.3984C45.918 43.3594 43.3594 45.918 38.3008 45.918L7.59766 45.918C2.55859 45.918 0 43.3984 0 38.3984L0 7.53906C0 2.53906 2.55859 0 7.59766 0L38.3008 0C43.3594 0 45.918 2.55859 45.918 7.53906ZM17.8906 11.4648C17.0312 11.4648 16.543 11.9922 16.543 12.8516L16.543 16.2891L14.8242 16.2891C14.3555 16.2891 14.0039 16.6406 14.0039 17.0703C14.0039 17.5195 14.3555 17.8516 14.8242 17.8516L16.543 17.8516L16.543 20.332L14.8242 20.332C14.3555 20.332 14.0039 20.6836 14.0039 21.1133C14.0039 21.582 14.3555 21.8945 14.8242 21.8945L16.543 21.8945L16.543 33.2617C16.543 34.1016 17.0703 34.6484 17.8906 34.6484C18.7109 34.6484 19.2578 34.1016 19.2578 33.2617L19.2578 26.6992L24.0039 26.6992C27.5391 26.6992 30.0781 24.7656 31.0742 21.8945L32.793 21.8945C33.2617 21.8945 33.6133 21.543 33.6133 21.1133C33.6133 20.6836 33.2617 20.332 32.793 20.332L31.4453 20.332C31.5039 19.9219 31.543 19.5117 31.543 19.043C31.543 18.6523 31.5039 18.2422 31.4453 17.8516L32.793 17.8516C33.2617 17.8516 33.6133 17.4805 33.6133 17.0703C33.6133 16.6406 33.2617 16.2891 32.793 16.2891L31.0938 16.2891C30.1367 13.4375 27.6562 11.4648 24.0625 11.4648ZM23.418 24.4336L19.2578 24.4336L19.2578 21.8945L28.1641 21.8945C27.3242 23.5352 25.6641 24.4336 23.418 24.4336ZM28.8086 19.043C28.8086 19.5117 28.7695 19.9219 28.6914 20.332L19.2578 20.332L19.2578 17.8516L28.6914 17.8516C28.7695 18.2227 28.8086 18.6328 28.8086 19.043ZM28.2031 16.2891L19.2578 16.2891L19.2578 13.7109L23.418 13.7109C25.6641 13.7109 27.3633 14.6289 28.2031 16.2891Z" fill="black" fill-opacity="0.85"/>
 </g>
</svg>
