<?xml version="1.0" encoding="UTF-8"?>
<!--Generator: Apple Native CoreSVG 326-->
<!DOCTYPE svg
PUBLIC "-//W3C//DTD SVG 1.1//EN"
       "http://www.w3.org/Graphics/SVG/1.1/DTD/svg11.dtd">
<svg version="1.1" xmlns="http://www.w3.org/2000/svg" xmlns:xlink="http://www.w3.org/1999/xlink" viewBox="0 0 47.5391 46.582">
 <g>
  <rect height="46.582" opacity="0" width="47.5391" x="0" y="0"/>
  <path d="M13.0859 33.6133C20.4297 40.957 29.2188 46.5625 36.2695 46.5625C39.5898 46.5625 42.4805 45.2344 44.375 43.1055C46.1914 41.0547 46.8164 39.5508 46.8164 38.2031C46.8164 37.1289 46.1523 36.1719 44.5312 35.0195L38.4375 30.6641C36.9336 29.5898 36.25 29.3945 35.3516 29.3945C34.5703 29.3945 33.9258 29.5312 32.6367 30.2344L28.6523 32.4414C28.1836 32.6953 27.9688 32.7344 27.6172 32.7344C27.1484 32.7344 26.8359 32.6172 26.3672 32.4414C24.4531 31.543 21.7773 29.4727 19.4141 27.0898C17.0703 24.7266 15.2148 22.3242 14.2578 20.4102C14.1406 20.1562 13.9844 19.7656 13.9844 19.375C13.9844 19.0625 14.1602 18.7695 14.3555 18.418L16.6992 14.4141C17.3438 13.3203 17.5195 12.7344 17.5195 11.875C17.5195 10.8984 17.1875 9.86328 16.25 8.55469L12.0703 2.69531C10.8984 1.01562 9.98047 0 8.63281 0C6.95312 0 4.94141 1.28906 3.51562 2.67578C1.42578 4.6875 0.332031 7.46094 0.332031 10.6055C0.332031 17.7148 5.80078 26.3281 13.0859 33.6133Z" fill="black" fill-opacity="0.85"/>
  <path d="M45.918 0.46875C45.4883 0.46875 45.1172 0.625 44.7852 0.9375L33.4375 12.3242L29.5703 16.4648L29.9023 8.98438L29.9023 4.64844C29.9023 3.80859 29.2578 3.14453 28.418 3.10547C27.5391 3.06641 26.7969 3.76953 26.7969 4.64844L26.7969 19.4922C26.7969 20.6055 27.3633 21.1914 28.4961 21.1914L43.4375 21.1914C44.3164 21.1914 45.0391 20.4492 45 19.5703C44.9609 18.7109 44.2773 18.0859 43.4375 18.0859L38.9648 18.0859L31.4844 18.418L35.6641 14.5508L47.0117 3.18359C47.3828 2.8125 47.5391 2.42188 47.5391 1.95312C47.5391 1.11328 46.8359 0.46875 45.918 0.46875Z" fill="black" fill-opacity="0.85"/>
 </g>
</svg>
