<?xml version="1.0" encoding="UTF-8"?>
<!--Generator: Apple Native CoreSVG 326-->
<!DOCTYPE svg
PUBLIC "-//W3C//DTD SVG 1.1//EN"
       "http://www.w3.org/Graphics/SVG/1.1/DTD/svg11.dtd">
<svg version="1.1" xmlns="http://www.w3.org/2000/svg" xmlns:xlink="http://www.w3.org/1999/xlink" viewBox="0 0 46.8555 46.582">
 <g>
  <rect height="46.582" opacity="0" width="46.8555" x="0" y="0"/>
  <path d="M12.7539 33.6133C20.0977 40.957 28.8867 46.5625 35.9375 46.5625C39.2578 46.5625 42.1484 45.2344 44.043 43.1055C45.8594 41.0547 46.4844 39.5508 46.4844 38.2031C46.4844 37.1289 45.8203 36.1719 44.1992 35.0195L38.1055 30.6641C36.6016 29.5898 35.918 29.3945 35.0195 29.3945C34.2383 29.3945 33.5938 29.5312 32.3047 30.2344L28.3203 32.4414C27.8516 32.6953 27.6367 32.7344 27.2852 32.7344C26.8164 32.7344 26.5039 32.6172 26.0352 32.4414C24.1211 31.543 21.4453 29.4727 19.082 27.0898C16.7383 24.7266 14.8828 22.3242 13.9258 20.4102C13.8086 20.1562 13.6523 19.7656 13.6523 19.375C13.6523 19.0625 13.8281 18.7695 14.0234 18.418L16.3672 14.4141C17.0117 13.3203 17.1875 12.7344 17.1875 11.875C17.1875 10.8984 16.8555 9.86328 15.918 8.55469L11.7383 2.69531C10.5664 1.01562 9.64844 0 8.30078 0C6.62109 0 4.60938 1.28906 3.18359 2.67578C1.09375 4.6875 0 7.46094 0 10.6055C0 17.7148 5.46875 26.3281 12.7539 33.6133Z" fill="black" fill-opacity="0.85"/>
 </g>
</svg>
