<?xml version="1.0" encoding="UTF-8"?>
<!--Generator: Apple Native CoreSVG 326-->
<!DOCTYPE svg
PUBLIC "-//W3C//DTD SVG 1.1//EN"
       "http://www.w3.org/Graphics/SVG/1.1/DTD/svg11.dtd">
<svg version="1.1" xmlns="http://www.w3.org/2000/svg" xmlns:xlink="http://www.w3.org/1999/xlink" viewBox="0 0 98.6328 35.0645">
 <g>
  <rect height="35.0645" opacity="0" width="98.6328" x="0" y="0"/>
  <path d="M0 17.5225C0 23.9678 2.38281 29.9053 6.5625 34.3389C7.38281 35.2373 8.57422 35.2569 9.27734 34.4561C9.94141 33.6748 9.72656 32.6592 8.96484 31.7998C5.48828 28.0108 3.49609 23.0303 3.49609 17.5225C3.49609 11.9952 5.48828 7.01469 8.96484 3.22562C9.72656 2.36625 9.94141 1.35062 9.27734 0.588905C8.57422-0.211876 7.38281-0.211876 6.5625 0.686562C2.38281 5.13969 0 11.0577 0 17.5225ZM98.2617 17.5225C98.2617 11.0577 95.8789 5.13969 91.6992 0.686562C90.8789-0.211876 89.6875-0.211876 88.9844 0.588905C88.3008 1.35062 88.5156 2.36625 89.2969 3.22562C92.7734 7.01469 94.7656 11.9952 94.7656 17.5225C94.7656 23.0303 92.7734 28.0108 89.2969 31.7998C88.5156 32.6592 88.3008 33.6748 88.9844 34.4561C89.6875 35.2569 90.8789 35.2373 91.6992 34.3389C95.8789 29.9053 98.2617 23.9678 98.2617 17.5225Z" fill="black" fill-opacity="0.85"/>
  <path d="M10 17.5225C10 21.1748 11.2695 24.5537 13.4961 27.1905C14.2578 28.1475 15.5273 28.1475 16.25 27.3467C16.9336 26.5655 16.6406 25.5889 15.957 24.6905C14.2969 22.7959 13.4961 20.2569 13.4961 17.5225C13.4961 14.7686 14.3164 12.21 15.957 10.335C16.6406 9.43656 16.9336 8.46 16.25 7.69828C15.5273 6.8975 14.2578 6.87797 13.4961 7.835C11.2695 10.4717 10 13.8702 10 17.5225ZM88.2617 17.5225C88.2617 13.8702 86.9922 10.4717 84.7656 7.835C84.0039 6.87797 82.7344 6.8975 82.0117 7.69828C81.3281 8.46 81.6211 9.43656 82.3047 10.335C83.9453 12.2295 84.7656 14.7881 84.7656 17.5225C84.7656 20.2569 83.9453 22.7959 82.3047 24.6905C81.6211 25.5889 81.3281 26.5655 82.0117 27.3467C82.7344 28.1475 84.0039 28.1475 84.7656 27.1905C86.9922 24.5537 88.2617 21.1748 88.2617 17.5225Z" fill="black" fill-opacity="0.85"/>
  <path d="M49.1211 3.7725C39.4141 3.7725 28.3594 5.54984 22.9883 11.0967C20.9375 13.167 19.6875 15.7842 19.6875 19.0459C19.6875 21.2725 20.3711 24.3975 22.7344 24.8467C23.4961 25.2178 24.3359 25.1397 25.4492 24.9444L32.7539 23.7334C35.293 23.3037 36.5234 22.3467 37.1875 19.9053L38.3984 15.5108C38.6328 14.6319 38.9062 14.3194 39.9219 13.9483C41.9531 13.2256 45.1562 12.835 49.1211 12.835C53.1055 12.8155 56.3086 13.2256 58.3398 13.9483C59.3555 14.3194 59.6289 14.6319 59.8633 15.5108L61.0742 19.9053C61.7383 22.3467 62.9688 23.3037 65.4883 23.7334L72.8125 24.9444C73.9258 25.1397 74.7461 25.2178 75.5273 24.8467C77.8906 24.3975 78.5742 21.2725 78.5742 19.0459C78.5742 15.7842 77.3242 13.167 75.2734 11.0967C69.9023 5.54984 58.8477 3.7725 49.1211 3.7725Z" fill="black" fill-opacity="0.85"/>
 </g>
</svg>
