<?xml version="1.0" encoding="UTF-8"?>
<!--Generator: Apple Native CoreSVG 326-->
<!DOCTYPE svg
PUBLIC "-//W3C//DTD SVG 1.1//EN"
       "http://www.w3.org/Graphics/SVG/1.1/DTD/svg11.dtd">
<svg version="1.1" xmlns="http://www.w3.org/2000/svg" xmlns:xlink="http://www.w3.org/1999/xlink" viewBox="0 0 59.2383 21.4258">
 <g>
  <rect height="21.4258" opacity="0" width="59.2383" x="0" y="0"/>
  <path d="M29.4336 0C19.7266 0 8.67188 1.79688 3.28125 7.32422C1.23047 9.41406 0 12.0117 0 15.293C0 17.5 0.683594 20.6445 3.02734 21.0938C3.80859 21.4453 4.64844 21.3672 5.76172 21.1914L13.0664 19.9609C15.5859 19.5508 16.8359 18.5938 17.5 16.1523L18.7109 11.7578C18.9453 10.8789 19.1992 10.5469 20.2148 10.1758C22.2461 9.45312 25.4688 9.08203 29.4336 9.0625C33.3984 9.0625 36.6211 9.45312 38.6523 10.1758C39.668 10.5469 39.9219 10.8789 40.1562 11.7578L41.3672 16.1523C42.0508 18.5938 43.2812 19.5508 45.8008 19.9609L53.1055 21.1914C54.2383 21.3672 55.0586 21.4453 55.8398 21.0938C58.1836 20.6445 58.8672 17.5 58.8672 15.293C58.8672 12.0117 57.6367 9.41406 55.5859 7.32422C50.1953 1.79688 39.1602 0 29.4336 0Z" fill="black" fill-opacity="0.85"/>
 </g>
</svg>
