<?xml version="1.0" encoding="UTF-8"?>
<!--Generator: Apple Native CoreSVG 326-->
<!DOCTYPE svg
PUBLIC "-//W3C//DTD SVG 1.1//EN"
       "http://www.w3.org/Graphics/SVG/1.1/DTD/svg11.dtd">
<svg version="1.1" xmlns="http://www.w3.org/2000/svg" xmlns:xlink="http://www.w3.org/1999/xlink" viewBox="0 0 46.543 56.9727">
 <g>
  <rect height="56.9727" opacity="0" width="46.543" x="0" y="0"/>
  <path d="M0 28.4766C0 37.2266 1.77734 48.2812 7.30469 53.6523C9.39453 55.7031 12.0117 56.9336 15.2734 56.9336C17.4805 56.9336 20.625 56.25 21.0742 53.9062C21.4258 53.125 21.3477 52.3047 21.1719 51.1719L19.9609 43.8672C19.5312 41.3477 18.5742 40.1172 16.1328 39.4336L11.7383 38.2227C10.8594 38.0078 10.5273 37.7344 10.1562 36.7188C9.45312 34.6875 9.04297 31.4648 9.04297 28.4766C9.04297 25.4688 9.45312 22.2461 10.1562 20.2148C10.5273 19.1992 10.8594 18.9453 11.7383 18.7109L16.1328 17.5C18.5742 16.8359 19.5312 15.5859 19.9609 13.0664L21.1719 5.76172C21.3477 4.64844 21.4258 3.80859 21.0742 3.02734C20.625 0.683594 17.4805 0 15.2734 0C12.0117 0 9.39453 1.23047 7.30469 3.28125C1.77734 8.67188 0 19.7266 0 28.4766Z" fill="black" fill-opacity="0.85"/>
  <path d="M21.5234 30.0195L35.8789 30.0195L40.8398 29.8242L35.332 34.8633L32.2656 37.9297C31.9531 38.2422 31.7969 38.6328 31.7969 39.1016C31.7969 39.9805 32.4414 40.5859 33.2812 40.5859C33.7305 40.5859 34.1211 40.4297 34.4336 40.1172L44.9414 29.6289C45.3125 29.2578 45.5078 28.8477 45.5078 28.4766C45.5078 28.1055 45.3125 27.6953 44.9414 27.3242L34.4336 16.8164C34.1211 16.5234 33.7305 16.3477 33.2812 16.3477C32.4414 16.3477 31.7969 16.9727 31.7969 17.8516C31.7969 18.3008 31.9531 18.7109 32.2656 19.0039L35.332 22.0898L40.8398 27.1094L35.8789 26.9141L21.5234 26.9141C20.5469 26.9141 19.9414 27.6562 19.9414 28.4766C19.9414 29.2773 20.5469 30.0195 21.5234 30.0195Z" fill="black" fill-opacity="0.85"/>
 </g>
</svg>
