<?xml version="1.0" encoding="UTF-8"?>
<!--Generator: Apple Native CoreSVG 326-->
<!DOCTYPE svg
PUBLIC "-//W3C//DTD SVG 1.1//EN"
       "http://www.w3.org/Graphics/SVG/1.1/DTD/svg11.dtd">
<svg version="1.1" xmlns="http://www.w3.org/2000/svg" xmlns:xlink="http://www.w3.org/1999/xlink" viewBox="0 0 51.25 50.918">
 <g>
  <rect height="50.918" opacity="0" width="51.25" x="0" y="0"/>
  <path d="M50.8789 25.4688C50.8789 39.4922 39.4531 50.918 25.4297 50.918C11.4258 50.918 0 39.4922 0 25.4688C0 11.4648 11.4258 0.0390625 25.4297 0.0390625C39.4531 0.0390625 50.8789 11.4648 50.8789 25.4688ZM26.4844 32.6953C26.9141 36.0547 29.8633 38.7695 33.4375 38.7695C37.0898 38.7695 40.0586 36.0547 40.4687 32.6953ZM11.3477 23.4961C8.88672 25.9961 8.82812 29.1992 11.2109 31.6016C13.6328 33.9844 16.8359 33.9453 19.2969 31.4648L23.6719 27.1094L15.7031 19.1211ZM26.4844 30.7617L40.4688 30.7617C40.0586 27.3633 37.0703 24.668 33.4375 24.668C29.8828 24.668 26.9141 27.3633 26.4844 30.7617ZM21.3867 13.418L17.0898 17.7539L25.0391 25.7031L29.375 21.3867C31.8945 18.9258 31.9141 15.6836 29.4727 13.3398C27.0508 10.8984 23.8672 10.9375 21.3867 13.418Z" fill="black" fill-opacity="0.85"/>
 </g>
</svg>
