<?xml version="1.0" encoding="UTF-8"?>
<!--Generator: Apple Native CoreSVG 326-->
<!DOCTYPE svg
PUBLIC "-//W3C//DTD SVG 1.1//EN"
       "http://www.w3.org/Graphics/SVG/1.1/DTD/svg11.dtd">
<svg version="1.1" xmlns="http://www.w3.org/2000/svg" xmlns:xlink="http://www.w3.org/1999/xlink" viewBox="0 0 59.0594 51.3086">
 <g>
  <rect height="51.3086" opacity="0" width="59.0594" x="0" y="0"/>
  <path d="M58.6899 36.6797C57.9477 30.2539 52.4399 25.2539 45.7797 25.2539C39.1391 25.2539 33.6313 30.2539 32.8891 36.6797ZM58.6899 39.8438L32.8891 39.8438C33.6508 46.2891 39.1195 51.3086 45.7797 51.3086C52.4789 51.3086 57.9477 46.3086 58.6899 39.8438Z" fill="black" fill-opacity="0.85"/>
  <path d="M26.3461 29.6484L11.6391 14.9414L3.49455 23.0859C-1.0953 27.6758-1.15389 33.6133 3.26017 38.0078C7.73283 42.4414 13.6313 42.3633 18.2016 37.793Z" fill="black" fill-opacity="0.85"/>
  <path d="M28.6313 27.3438L36.7758 19.2188C41.3656 14.6289 41.4242 8.69141 36.9906 4.29688C32.5375-0.136719 26.6391-0.0585938 22.0688 4.51172L13.9438 12.6562Z" fill="black" fill-opacity="0.85"/>
 </g>
</svg>
