<?xml version="1.0" encoding="UTF-8"?>
<!--Generator: Apple Native CoreSVG 326-->
<!DOCTYPE svg
PUBLIC "-//W3C//DTD SVG 1.1//EN"
       "http://www.w3.org/Graphics/SVG/1.1/DTD/svg11.dtd">
<svg version="1.1" xmlns="http://www.w3.org/2000/svg" xmlns:xlink="http://www.w3.org/1999/xlink" viewBox="0 0 68.1055 58.0273">
 <g>
  <rect height="58.0273" opacity="0" width="68.1055" x="0" y="0"/>
  <path d="M51.9922 10.6836L51.9922 20.2734L31.9922 20.2734C25.2344 20.2734 21.2695 24.1992 21.2695 30.918L21.2695 43.6914L7.59766 43.6914C2.53906 43.6914 0 41.1523 0 36.1523L0 10.6836C0 5.70312 2.53906 3.16406 7.59766 3.16406L44.3945 3.16406C49.4531 3.16406 51.9922 5.70312 51.9922 10.6836Z" fill="black" fill-opacity="0.85"/>
  <path d="M31.9922 54.9219L57.0117 54.9219C62.0508 54.9219 64.6094 52.3633 64.6094 47.3828L64.6094 30.918C64.6094 25.957 62.0508 23.3984 57.0117 23.3984L31.9922 23.3984C26.9531 23.3984 24.3945 25.918 24.3945 30.918L24.3945 47.3828C24.3945 52.3828 26.9531 54.9219 31.9922 54.9219Z" fill="black" fill-opacity="0.85"/>
 </g>
</svg>
