<?xml version="1.0" encoding="UTF-8"?>
<!--Generator: Apple Native CoreSVG 326-->
<!DOCTYPE svg
PUBLIC "-//W3C//DTD SVG 1.1//EN"
       "http://www.w3.org/Graphics/SVG/1.1/DTD/svg11.dtd">
<svg version="1.1" xmlns="http://www.w3.org/2000/svg" xmlns:xlink="http://www.w3.org/1999/xlink" viewBox="0 0 64.9805 51.8164">
 <g>
  <rect height="51.8164" opacity="0" width="64.9805" x="0" y="0"/>
  <path d="M51.9922 7.57812L51.9922 20.293L48.5352 20.293L48.5352 7.77344C48.5352 4.96094 46.9922 3.51562 44.3164 3.51562L7.67578 3.51562C4.94141 3.51562 3.45703 4.96094 3.45703 7.77344L3.45703 32.8711C3.45703 35.6836 5 37.1289 7.67578 37.1289L24.3945 37.1289L24.3945 40.5859L7.59766 40.5859C2.53906 40.5859 0 38.0469 0 33.0469L0 7.57812C0 2.59766 2.53906 0.0585938 7.59766 0.0585938L44.3945 0.0585938C49.4531 0.0585938 51.9922 2.59766 51.9922 7.57812Z" fill="black" fill-opacity="0.85"/>
  <path d="M64.6094 27.8125L64.6094 44.2773C64.6094 49.2578 62.0508 51.8164 57.0117 51.8164L31.9922 51.8164C26.9531 51.8164 24.3945 49.2773 24.3945 44.2773L24.3945 27.8125C24.3945 22.8125 26.9531 20.293 31.9922 20.293L57.0117 20.293C62.0508 20.293 64.6094 22.8516 64.6094 27.8125ZM50.1562 27.9883L44.4727 33.6133L38.8477 28.0078C38.4766 27.6562 38.125 27.4805 37.6172 27.4805C36.6602 27.4805 35.8789 28.2227 35.8789 29.1797C35.8789 29.668 36.0742 30.0586 36.4062 30.4102L42.0312 36.0547L36.4062 41.6797C36.0742 42.0312 35.8789 42.4414 35.8789 42.9102C35.8789 43.8867 36.6602 44.668 37.6172 44.668C38.125 44.668 38.5352 44.4727 38.8867 44.1211L44.4727 38.4961L50.0977 44.1211C50.4297 44.4531 50.8594 44.668 51.3477 44.668C52.3242 44.668 53.1055 43.8867 53.1055 42.9102C53.1055 42.4219 52.9297 42.0117 52.5781 41.6602L46.9531 36.0547L52.5977 30.3906C52.9688 30.0195 53.125 29.6484 53.125 29.1602C53.125 28.2031 52.3438 27.4414 51.3672 27.4414C50.918 27.4414 50.5273 27.6172 50.1562 27.9883Z" fill="black" fill-opacity="0.85"/>
 </g>
</svg>
