<?xml version="1.0" encoding="UTF-8"?>
<!--Generator: Apple Native CoreSVG 326-->
<!DOCTYPE svg
PUBLIC "-//W3C//DTD SVG 1.1//EN"
       "http://www.w3.org/Graphics/SVG/1.1/DTD/svg11.dtd">
<svg version="1.1" xmlns="http://www.w3.org/2000/svg" xmlns:xlink="http://www.w3.org/1999/xlink" viewBox="0 0 59.5508 53.5742">
 <g>
  <rect height="53.5742" opacity="0" width="59.5508" x="0" y="0"/>
  <path d="M12.7344 7.71484L12.7344 8.82813L46.4648 8.82813L46.4648 7.71484C46.4648 4.64844 48.0273 3.125 51.1914 3.125L54.4531 3.125C57.6172 3.125 59.1797 4.64844 59.1797 7.71484L59.1797 24.3164C59.1797 27.3633 57.6172 28.8867 54.4531 28.8867L51.1914 28.8867C48.0273 28.8867 46.4648 27.3633 46.4648 24.3164L46.4648 22.9297L37.4013 22.9297L35.6936 19.7656L46.4648 19.7656L46.4648 11.9922L12.7344 11.9922L12.7344 19.7656L23.5367 19.7656L21.8496 22.9297L12.7344 22.9297L12.7344 24.3164C12.7344 27.3633 11.1719 28.8867 8.00781 28.8867L4.72656 28.8867C1.5625 28.8867 0 27.3633 0 24.3164L0 7.71484C0 4.64844 1.5625 3.125 4.72656 3.125L8.00781 3.125C11.1719 3.125 12.7344 4.64844 12.7344 7.71484ZM4.72656 6.38672C3.75 6.38672 3.26172 6.875 3.26172 7.85156L3.26172 24.1602C3.26172 25.1367 3.75 25.625 4.72656 25.625L8.00781 25.625C8.96484 25.625 9.47266 25.1367 9.47266 24.1602L9.47266 7.85156C9.47266 6.875 8.96484 6.38672 8.00781 6.38672ZM51.1914 6.38672C50.2148 6.38672 49.7266 6.875 49.7266 7.85156L49.7266 24.1602C49.7266 25.1367 50.2148 25.625 51.1914 25.625L54.4531 25.625C55.4297 25.625 55.918 25.1367 55.918 24.1602L55.918 7.85156C55.918 6.875 55.4297 6.38672 54.4531 6.38672Z" fill="black" fill-opacity="0.85"/>
  <path d="M29.6289 50.4492C35.8789 50.4492 40.8594 45.5859 40.8594 39.4922C40.8594 36.1133 39.1602 32.793 37.7344 30.0781L31.8945 19.2578C31.3086 18.1641 30.6445 17.6758 29.6289 17.6758C28.6133 17.6758 27.9492 18.1641 27.3633 19.2383L21.5625 30.0781C20.1172 32.793 18.418 36.1133 18.418 39.4922C18.418 45.5859 23.3984 50.4492 29.6289 50.4492ZM29.6289 47.3633C25.1172 47.3633 21.5039 43.8867 21.5039 39.4922C21.5039 36.8164 22.8516 34.2188 24.2773 31.543L29.3555 22.1094C29.5117 21.8164 29.8047 21.8164 29.9414 22.1094L34.9805 31.543C36.4258 34.2188 37.7734 36.8164 37.7734 39.4922C37.7734 43.8867 34.1602 47.3633 29.6289 47.3633Z" fill="black" fill-opacity="0.85"/>
 </g>
</svg>
