<?xml version="1.0" encoding="UTF-8"?>
<!--Generator: Apple Native CoreSVG 326-->
<!DOCTYPE svg
PUBLIC "-//W3C//DTD SVG 1.1//EN"
       "http://www.w3.org/Graphics/SVG/1.1/DTD/svg11.dtd">
<svg version="1.1" xmlns="http://www.w3.org/2000/svg" xmlns:xlink="http://www.w3.org/1999/xlink" viewBox="0 0 52.8125 31.3867">
 <g>
  <rect height="31.3867" opacity="0" width="52.8125" x="0" y="0"/>
  <path d="M6.44531 31.3281L45.9961 31.3281C49.9219 31.3281 52.4414 28.75 52.4414 24.668L52.4414 6.66016C52.4414 2.57812 49.9414 0 45.9961 0L6.44531 0C2.51953 0 0.0195312 2.57812 0.0195312 6.66016L0 24.668C0 28.75 2.5 31.3281 6.44531 31.3281ZM6.95312 27.8711C4.66797 27.8711 3.47656 26.6211 3.47656 24.2578L3.47656 7.08984C3.47656 4.70703 4.66797 3.45703 6.95312 3.45703L45.4883 3.45703C47.793 3.45703 48.9844 4.70703 48.9844 7.08984L48.9648 24.2578C48.9648 26.6211 47.7734 27.8711 45.4883 27.8711Z" fill="black" fill-opacity="0.85"/>
  <path d="M10.6836 20.4297L21.8945 20.4297C23.2617 20.4297 24.1406 19.5508 24.1406 18.1445L24.1406 13.1641C24.1406 11.7578 23.2617 10.8789 21.8945 10.8789L10.6836 10.8789C9.31641 10.8789 8.41797 11.7578 8.41797 13.1641L8.41797 18.1445C8.41797 19.5508 9.31641 20.4297 10.6836 20.4297ZM30.5469 20.4297L41.7578 20.4297C43.125 20.4297 44.0234 19.5508 44.0234 18.1445L44.0234 13.1641C44.0234 11.7578 43.125 10.8789 41.7578 10.8789L30.5469 10.8789C29.1797 10.8789 28.3008 11.7578 28.3008 13.1641L28.3008 18.1445C28.3008 19.5508 29.1797 20.4297 30.5469 20.4297Z" fill="black" fill-opacity="0.85"/>
 </g>
</svg>
