<?xml version="1.0" encoding="UTF-8"?>
<!--Generator: Apple Native CoreSVG 326-->
<!DOCTYPE svg
PUBLIC "-//W3C//DTD SVG 1.1//EN"
       "http://www.w3.org/Graphics/SVG/1.1/DTD/svg11.dtd">
<svg version="1.1" xmlns="http://www.w3.org/2000/svg" xmlns:xlink="http://www.w3.org/1999/xlink" viewBox="0 0 46.9727 47.3633">
 <g>
  <rect height="47.3633" opacity="0" width="46.9727" x="0" y="0"/>
  <path d="M13.9062 47.3633L32.6953 47.3633C39.6289 47.3633 43.8086 43.125 43.8086 36.0938L43.8086 11.3086C43.8086 4.25781 39.6289 0.0585938 32.6953 0.0585938L13.9062 0.0585938C6.97266 0.0585938 2.79297 4.25781 2.79297 11.3086L2.79297 36.0938C2.79297 43.125 6.97266 47.3633 13.9062 47.3633ZM13.7695 44.0039C9.00391 44.0039 6.17188 41.1133 6.17188 36.2305L6.17188 11.25C6.17188 6.38672 9.00391 3.51562 13.7695 3.51562L32.832 3.51562C37.6172 3.51562 40.4492 6.38672 40.4492 11.25L40.4492 36.2305C40.4492 41.1133 37.6172 44.0039 32.832 44.0039ZM43.2812 21.0938L44.4531 21.0938C45.9961 21.0938 46.9727 20.0195 46.9727 18.3594L46.9727 14.0234C46.9727 12.3438 45.9961 11.2891 44.4531 11.2891L43.2812 11.2891Z" fill="black" fill-opacity="0.85"/>
  <path d="M9.70703 36.582C9.70703 38.9453 11.1328 40.4297 13.418 40.4297L33.2031 40.4297C35.4688 40.4297 36.9141 38.9453 36.9141 36.582L36.9141 32.6758C36.9141 30.3516 35.4297 28.8086 33.2031 28.8086L13.418 28.8086C11.1719 28.8086 9.70703 30.3516 9.70703 32.6758Z" fill="black" fill-opacity="0.85"/>
 </g>
</svg>
