<?xml version="1.0" encoding="UTF-8"?>
<!--Generator: Apple Native CoreSVG 326-->
<!DOCTYPE svg
PUBLIC "-//W3C//DTD SVG 1.1//EN"
       "http://www.w3.org/Graphics/SVG/1.1/DTD/svg11.dtd">
<svg version="1.1" xmlns="http://www.w3.org/2000/svg" xmlns:xlink="http://www.w3.org/1999/xlink" viewBox="0 0 49.7168 48.1983">
 <g>
  <rect height="48.1983" opacity="0" width="49.7168" x="0" y="0"/>
  <path d="M12.3291 18.5367L12.3291 40.1831C12.3291 40.73 12.7783 40.9644 13.2471 40.6909L26.6337 32.8337L29.1593 35.358L13.8721 44.3433C13.1885 44.7339 12.4658 44.9487 11.7822 44.9487C10.2002 44.9487 8.85254 43.8745 8.85254 41.5698L8.85254 15.0619ZM13.8721 3.81593L43.2471 21.0816C45.0635 22.1362 45.7275 22.8784 45.7275 24.0894C45.7275 25.2808 45.0635 26.023 43.2471 27.0776L36.9808 30.7607L34.4585 28.2411L40.7666 24.5386C40.9814 24.4214 41.0791 24.2456 41.0791 24.0894C41.0791 23.9136 40.9814 23.7378 40.7666 23.6206L14.3029 8.10678L9.99694 3.80534C10.4946 3.41606 11.1177 3.22999 11.7822 3.22999C12.4658 3.22999 13.1885 3.4253 13.8721 3.81593Z" fill="black" fill-opacity="0.85"/>
  <path d="M40.2393 42.5659C40.8838 43.23 41.958 43.23 42.583 42.5659C43.2275 41.9019 43.2471 40.8667 42.583 40.2222L5.57129 3.21046C4.92676 2.56593 3.85254 2.5464 3.18848 3.21046C2.56348 3.85499 2.56348 4.92921 3.18848 5.57374Z" fill="black" fill-opacity="0.85"/>
 </g>
</svg>
