<?xml version="1.0" encoding="UTF-8"?>
<!--Generator: Apple Native CoreSVG 326-->
<!DOCTYPE svg
PUBLIC "-//W3C//DTD SVG 1.1//EN"
       "http://www.w3.org/Graphics/SVG/1.1/DTD/svg11.dtd">
<svg version="1.1" xmlns="http://www.w3.org/2000/svg" xmlns:xlink="http://www.w3.org/1999/xlink" viewBox="0 0 59.2969 52.4414">
 <g>
  <rect height="52.4414" opacity="0" width="59.2969" x="0" y="0"/>
  <path d="M1.85547 26.0352C2.44141 26.0352 2.92969 25.7227 3.35938 25.3516L28.5156 4.23828C28.8086 3.98438 29.1406 3.86719 29.4531 3.86719C29.7852 3.86719 30.1172 3.98438 30.4102 4.23828L55.5664 25.3516C55.9961 25.7227 56.4648 26.0352 57.0703 26.0352C58.2227 26.0352 58.9258 25.1953 58.9258 24.3359C58.9258 23.8086 58.7109 23.3008 58.2227 22.8906L32.2852 1.13281C31.3867 0.371094 30.4297 0 29.4531 0C28.4961 0 27.5391 0.371094 26.6406 1.13281L0.703125 22.8906C0.214844 23.3008 0 23.8086 0 24.3359C0 25.1953 0.683594 26.0352 1.85547 26.0352ZM46.1133 13.8086L51.8555 18.6523L51.8555 7.53906C51.8555 6.5625 51.2109 5.9375 50.2344 5.9375L47.7539 5.9375C46.7773 5.9375 46.1133 6.5625 46.1133 7.53906ZM12.4609 52.4023L46.4648 52.4023C49.9023 52.4023 51.8555 50.4688 51.8555 47.0898L51.8555 19.2383L48.3984 16.8359L48.3984 46.25C48.3984 48.0273 47.5 48.9453 45.7227 48.9453L13.1836 48.9453C11.4258 48.9453 10.5273 48.0273 10.5273 46.25L10.5273 16.875L7.07031 19.2383L7.07031 47.0898C7.07031 50.4883 9.02344 52.4023 12.4609 52.4023Z" fill="black" fill-opacity="0.85"/>
  <path d="M22.2852 41.0156C22.2852 42.1484 23.4961 42.5977 24.4336 42.0508L40.5273 32.5977C41.4453 32.0312 41.4258 30.8008 40.5078 30.2734L24.4336 20.8203C23.4961 20.2539 22.2852 20.6836 22.2852 21.8555Z" fill="black" fill-opacity="0.85"/>
 </g>
</svg>
