<?xml version="1.0" encoding="UTF-8"?>
<!--Generator: Apple Native CoreSVG 326-->
<!DOCTYPE svg
PUBLIC "-//W3C//DTD SVG 1.1//EN"
       "http://www.w3.org/Graphics/SVG/1.1/DTD/svg11.dtd">
<svg version="1.1" xmlns="http://www.w3.org/2000/svg" xmlns:xlink="http://www.w3.org/1999/xlink" viewBox="0 0 51.25 50.918">
 <g>
  <rect height="50.918" opacity="0" width="51.25" x="0" y="0"/>
  <path d="M50.8789 25.4492C50.8789 39.4531 39.4531 50.8789 25.4297 50.8789C11.4258 50.8789 0 39.4531 0 25.4492C0 11.4258 11.4258 0 25.4297 0C39.4531 0 50.8789 11.4258 50.8789 25.4492ZM8.80859 16.6992L8.80859 34.2383C8.80859 35.3711 10.0977 35.9375 11.1719 35.2539L24.4531 26.7578C25.4297 26.1133 25.4297 24.8438 24.4531 24.1992L11.1719 15.6836C10.1562 15.0391 8.80859 15.5664 8.80859 16.6992ZM28.9258 15.7812C27.7344 15.7812 27.207 16.4062 27.207 17.3633L27.207 33.5547C27.207 34.4922 27.7344 35.1367 28.9258 35.1367L31.4062 35.1367C32.5781 35.1367 33.125 34.4922 33.125 33.5547L33.125 17.3633C33.125 16.4062 32.5781 15.7812 31.4062 15.7812ZM37.9297 15.7812C36.7578 15.7812 36.1914 16.4062 36.1914 17.3633L36.1914 33.5547C36.1914 34.4922 36.7578 35.1367 37.9297 35.1367L40.4102 35.1367C41.5625 35.1367 42.1094 34.4922 42.1094 33.5547L42.1094 17.3633C42.1094 16.4062 41.5625 15.7812 40.4102 15.7812Z" fill="black" fill-opacity="0.85"/>
 </g>
</svg>
