<?xml version="1.0" encoding="UTF-8"?>
<!--Generator: Apple Native CoreSVG 326-->
<!DOCTYPE svg
PUBLIC "-//W3C//DTD SVG 1.1//EN"
       "http://www.w3.org/Graphics/SVG/1.1/DTD/svg11.dtd">
<svg version="1.1" xmlns="http://www.w3.org/2000/svg" xmlns:xlink="http://www.w3.org/1999/xlink" viewBox="0 0 59.2969 52.4414">
 <g>
  <rect height="52.4414" opacity="0" width="59.2969" x="0" y="0"/>
  <path d="M30.9961 8.94531L51.4648 26.1133L51.4648 47.1289C51.4648 50.4492 49.4727 52.4023 46.1133 52.4023L12.8125 52.4023C9.45312 52.4023 7.46094 50.4492 7.46094 47.1289L7.46094 26.0742L27.9102 8.94531C28.8672 8.125 30 8.08594 30.9961 8.94531ZM22.6758 24.375L22.6758 42.8711C22.6758 43.9648 23.8477 44.4141 24.7656 43.8672L40.2734 34.7461C41.1523 34.2188 41.1328 33.0273 40.2539 32.5195L24.7656 23.3984C23.8477 22.8516 22.6758 23.2617 22.6758 24.375ZM32.2852 1.13281L46.1133 12.7326L46.1133 7.53906C46.1133 6.5625 46.7773 5.9375 47.7539 5.9375L50.2344 5.9375C51.2109 5.9375 51.8555 6.5625 51.8555 7.53906L51.8555 17.5495L58.2227 22.8906C58.7109 23.3008 58.9258 23.8086 58.9258 24.3359C58.9258 25.1953 58.2227 26.0352 57.0703 26.0352C56.4648 26.0352 55.9961 25.7227 55.5664 25.3516L30.4102 4.23828C30.1172 3.98438 29.7852 3.86719 29.4531 3.86719C29.1406 3.86719 28.8086 3.98438 28.5156 4.23828L3.35938 25.3516C2.92969 25.7227 2.44141 26.0352 1.85547 26.0352C0.683594 26.0352 0 25.1953 0 24.3359C0 23.8086 0.214844 23.3008 0.703125 22.8906L26.6406 1.13281C27.5391 0.371094 28.4961 0 29.4531 0C30.4297 0 31.3867 0.371094 32.2852 1.13281Z" fill="black" fill-opacity="0.85"/>
 </g>
</svg>
