<?xml version="1.0" encoding="UTF-8"?>
<!--Generator: Apple Native CoreSVG 326-->
<!DOCTYPE svg
PUBLIC "-//W3C//DTD SVG 1.1//EN"
       "http://www.w3.org/Graphics/SVG/1.1/DTD/svg11.dtd">
<svg version="1.1" xmlns="http://www.w3.org/2000/svg" xmlns:xlink="http://www.w3.org/1999/xlink" viewBox="0 0 71.7969 37.9492">
 <g>
  <rect height="37.9492" opacity="0" width="71.7969" x="0" y="0"/>
  <path d="M0 34.7266C0 36.9141 1.28906 37.9102 2.77344 37.9102C3.4375 37.9102 4.10156 37.7148 4.74609 37.3438L31.2109 21.8164C32.8711 20.8594 33.5352 20.1172 33.5352 18.9648C33.5352 17.8125 32.8711 17.0508 31.2109 16.0938L4.74609 0.566406C4.10156 0.195312 3.4375 0 2.77344 0C1.28906 0 0 1.01562 0 3.20312ZM44.8828 37.793L50.5078 37.793C52.5977 37.793 53.6328 36.7578 53.6328 34.668L53.6328 3.22266C53.6328 1.05469 52.5977 0.0976562 50.5078 0.0976562L44.8828 0.0976562C42.793 0.0976562 41.7578 1.15234 41.7578 3.22266L41.7578 34.668C41.7578 36.7578 42.793 37.793 44.8828 37.793ZM62.6758 37.793L68.3008 37.793C70.3906 37.793 71.4258 36.7578 71.4258 34.668L71.4258 3.22266C71.4258 1.05469 70.3906 0.0976562 68.3008 0.0976562L62.6758 0.0976562C60.5859 0.0976562 59.5508 1.15234 59.5508 3.22266L59.5508 34.668C59.5508 36.7578 60.5859 37.793 62.6758 37.793Z" fill="black" fill-opacity="0.85"/>
 </g>
</svg>
