<?xml version="1.0" encoding="UTF-8"?>
<!--Generator: Apple Native CoreSVG 326-->
<!DOCTYPE svg
PUBLIC "-//W3C//DTD SVG 1.1//EN"
       "http://www.w3.org/Graphics/SVG/1.1/DTD/svg11.dtd">
<svg version="1.1" xmlns="http://www.w3.org/2000/svg" xmlns:xlink="http://www.w3.org/1999/xlink" viewBox="0 0 51.25 60.6221">
 <g>
  <rect height="60.6221" opacity="0" width="51.25" x="0" y="0"/>
  <path d="M25.4297 55.7309C39.4727 55.7309 50.8789 44.3442 50.8789 30.3013C50.8789 21.5708 46.5039 13.9731 39.8242 9.38329C38.8867 8.68017 37.6562 8.93407 37.1289 9.79345C36.6016 10.6919 36.875 11.7075 37.7539 12.3716C43.457 16.2388 47.2266 22.8208 47.2266 30.3013C47.2266 42.352 37.4805 52.0981 25.4297 52.0981C13.3789 52.0981 3.63281 42.352 3.63281 30.3013C3.63281 19.8325 10.9766 11.1606 20.7227 9.0122L20.7227 12.977C20.7227 14.5591 21.8164 14.9888 23.0664 14.1099L30.9766 8.56298C32.0117 7.84032 32.0312 6.7661 30.9766 6.00439L23.0859 0.457511C21.8164-0.440926 20.7227 0.00829228 20.7227 1.59032L20.7227 5.32079C8.98438 7.48876 0 17.8403 0 30.3013C0 44.3442 11.3867 55.7309 25.4297 55.7309Z" fill="black" fill-opacity="0.85"/>
  <path d="M13.9062 30.3013C13.9062 31.3364 14.6484 32.0591 15.7422 32.0591L23.6328 32.0591L23.6328 39.9692C23.6328 41.0434 24.375 41.8052 25.4102 41.8052C26.4844 41.8052 27.2266 41.063 27.2266 39.9692L27.2266 32.0591L35.1562 32.0591C36.2109 32.0591 36.9727 31.3364 36.9727 30.3013C36.9727 29.2075 36.2305 28.4653 35.1562 28.4653L27.2266 28.4653L27.2266 20.5747C27.2266 19.4809 26.4844 18.7192 25.4102 18.7192C24.375 18.7192 23.6328 19.4809 23.6328 20.5747L23.6328 28.4653L15.7422 28.4653C14.6484 28.4653 13.9062 29.2075 13.9062 30.3013Z" fill="black" fill-opacity="0.85"/>
 </g>
</svg>
