<?xml version="1.0" encoding="UTF-8"?>
<!--Generator: Apple Native CoreSVG 326-->
<!DOCTYPE svg
PUBLIC "-//W3C//DTD SVG 1.1//EN"
       "http://www.w3.org/Graphics/SVG/1.1/DTD/svg11.dtd">
<svg version="1.1" xmlns="http://www.w3.org/2000/svg" xmlns:xlink="http://www.w3.org/1999/xlink" viewBox="0 0 30.8984 41.7773">
 <g>
  <rect height="41.7773" opacity="0" width="30.8984" x="0" y="0"/>
  <path d="M0 14.7461C0 15.7812 0.859375 16.6406 1.91406 16.6406L13.3398 16.6406L13.3398 27.6953C13.3398 28.7305 14.1992 29.5703 15.2539 29.5703C16.2891 29.5703 17.1484 28.7305 17.1484 27.6953L17.1484 16.6406L28.6133 16.6406C29.668 16.6406 30.5273 15.7812 30.5273 14.7461C30.5273 13.6914 29.668 12.832 28.6133 12.832L17.1484 12.832L17.1484 1.875C17.1484 0.839844 16.2891 0 15.2539 0C14.1992 0 13.3398 0.839844 13.3398 1.875L13.3398 12.832L1.91406 12.832C0.859375 12.832 0 13.6914 0 14.7461ZM0 39.8633C0 40.8984 0.878906 41.7773 1.91406 41.7773L28.6133 41.7773C29.6484 41.7773 30.5273 40.8984 30.5273 39.8633C30.5273 38.8086 29.6484 37.9492 28.6133 37.9492L1.91406 37.9492C0.878906 37.9492 0 38.8086 0 39.8633Z" fill="black" fill-opacity="0.85"/>
 </g>
</svg>
