<?xml version="1.0" encoding="UTF-8"?>
<!--Generator: Apple Native CoreSVG 326-->
<!DOCTYPE svg
PUBLIC "-//W3C//DTD SVG 1.1//EN"
       "http://www.w3.org/Graphics/SVG/1.1/DTD/svg11.dtd">
<svg version="1.1" xmlns="http://www.w3.org/2000/svg" xmlns:xlink="http://www.w3.org/1999/xlink" viewBox="0 0 46.1914 45.8398">
 <g>
  <rect height="45.8398" opacity="0" width="46.1914" x="0" y="0"/>
  <path d="M42.9688 2.89062C40.5273 0.46875 37.1484 0 32.6758 0L13.0078 0C8.69141 0 5.29297 0.46875 2.87109 2.89062C0.449219 5.3125 0 8.67188 0 13.0078L0 32.6758C0 37.168 0.429688 40.5273 2.85156 42.9297C5.29297 45.3516 8.67188 45.8203 13.1445 45.8203L32.6758 45.8203C37.1484 45.8203 40.5469 45.3516 42.9688 42.9297C45.3906 40.5078 45.8203 37.168 45.8203 32.6758L45.8203 13.125C45.8203 8.65234 45.3906 5.29297 42.9688 2.89062ZM42.3633 12.4414L42.3633 33.3594C42.3633 36.2109 41.9531 38.8477 40.4297 40.3906C38.8867 41.9336 36.1914 42.3633 33.3594 42.3633L12.4609 42.3633C9.62891 42.3633 6.93359 41.9141 5.39062 40.3906C3.86719 38.8477 3.45703 36.2109 3.45703 33.3594L3.45703 12.5781C3.45703 9.62891 3.86719 6.95312 5.39062 5.41016C6.91406 3.86719 9.64844 3.45703 12.5781 3.45703L33.3594 3.45703C36.1914 3.45703 38.8867 3.88672 40.4297 5.42969C41.9727 6.95312 42.3633 9.60938 42.3633 12.4414Z" fill="black" fill-opacity="0.85"/>
  <path d="M11.3867 22.9102C11.3867 23.9453 12.1484 24.668 13.2227 24.668L21.1328 24.668L21.1328 32.5781C21.1328 33.6523 21.8555 34.4141 22.8906 34.4141C23.9648 34.4141 24.7266 33.6719 24.7266 32.5781L24.7266 24.668L32.6367 24.668C33.7109 24.668 34.4531 23.9453 34.4531 22.9102C34.4531 21.8164 33.7109 21.0742 32.6367 21.0742L24.7266 21.0742L24.7266 13.1836C24.7266 12.0898 23.9648 11.3281 22.8906 11.3281C21.8555 11.3281 21.1328 12.0898 21.1328 13.1836L21.1328 21.0742L13.2227 21.0742C12.1289 21.0742 11.3867 21.8164 11.3867 22.9102Z" fill="black" fill-opacity="0.85"/>
 </g>
</svg>
