<?xml version="1.0" encoding="UTF-8"?>
<!--Generator: Apple Native CoreSVG 326-->
<!DOCTYPE svg
PUBLIC "-//W3C//DTD SVG 1.1//EN"
       "http://www.w3.org/Graphics/SVG/1.1/DTD/svg11.dtd">
<svg version="1.1" xmlns="http://www.w3.org/2000/svg" xmlns:xlink="http://www.w3.org/1999/xlink" viewBox="0 0 56.9531 51.9727">
 <g>
  <rect height="51.9727" opacity="0" width="56.9531" x="0" y="0"/>
  <path d="M10.7617 51.9531C14.0039 51.9531 20.5859 48.8477 25.625 45.3906C42.7539 46.2109 56.582 36.2891 56.582 22.7539C56.582 10.1758 44.0234 0 28.3008 0C12.5586 0 0 10.1758 0 22.7539C0 30.9766 5.27344 38.2617 13.2422 41.9922C12.1094 44.1797 10.0781 46.9141 8.96484 48.3398C7.67578 50 8.37891 51.9531 10.7617 51.9531ZM12.9102 48.3789C12.7148 48.4375 12.6367 48.3203 12.7734 48.1445C14.1211 46.5039 16.1523 43.9453 17.0508 42.168C17.6562 41.0547 17.4805 40.0586 16.1328 39.4336C8.22266 35.7617 3.55469 29.707 3.55469 22.7539C3.55469 12.1484 14.5312 3.55469 28.3008 3.55469C42.0508 3.55469 53.0273 12.1484 53.0273 22.7539C53.0273 33.3398 42.0508 41.9531 28.3008 41.9531C27.5977 41.9531 26.6992 41.9141 25.6055 41.8555C24.6875 41.8555 23.9453 42.1289 23.125 42.7539C19.7266 45.0391 15.1562 47.6562 12.9102 48.3789Z" fill="black" fill-opacity="0.85"/>
  <path d="M16.7578 22.9492C16.7578 23.9844 17.5195 24.7266 18.5938 24.7266L26.4844 24.7266L26.4844 32.6367C26.4844 33.6914 27.2266 34.4531 28.2617 34.4531C29.3359 34.4531 30.0977 33.7109 30.0977 32.6367L30.0977 24.7266L38.0078 24.7266C39.0625 24.7266 39.8242 23.9844 39.8242 22.9492C39.8242 21.875 39.082 21.1133 38.0078 21.1133L30.0977 21.1133L30.0977 13.2227C30.0977 12.1289 29.3359 11.3867 28.2617 11.3867C27.2266 11.3867 26.4844 12.1289 26.4844 13.2227L26.4844 21.1133L18.5938 21.1133C17.5 21.1133 16.7578 21.875 16.7578 22.9492Z" fill="black" fill-opacity="0.85"/>
 </g>
</svg>
