<?xml version="1.0" encoding="UTF-8"?>
<!--Generator: Apple Native CoreSVG 326-->
<!DOCTYPE svg
PUBLIC "-//W3C//DTD SVG 1.1//EN"
       "http://www.w3.org/Graphics/SVG/1.1/DTD/svg11.dtd">
<svg version="1.1" xmlns="http://www.w3.org/2000/svg" xmlns:xlink="http://www.w3.org/1999/xlink" viewBox="0 0 46.2891 45.918">
 <g>
  <rect height="45.918" opacity="0" width="46.2891" x="0" y="0"/>
  <path d="M45.918 7.53906L45.918 38.3984C45.918 43.3594 43.3594 45.918 38.3008 45.918L7.59766 45.918C2.55859 45.918 0 43.3984 0 38.3984L0 7.53906C0 2.53906 2.55859 0 7.59766 0L38.3008 0C43.3594 0 45.918 2.55859 45.918 7.53906ZM21.1133 12.793L21.1133 21.0742L12.8516 21.0742C11.7188 21.0742 10.9375 21.8359 10.9375 22.9688C10.9375 24.043 11.7383 24.7852 12.8516 24.7852L21.1133 24.7852L21.1133 33.0859C21.1133 34.1602 21.875 34.9609 22.9297 34.9609C24.0625 34.9609 24.8242 34.1797 24.8242 33.0859L24.8242 24.7852L33.125 24.7852C34.1992 24.7852 35 24.043 35 22.9688C35 21.8359 34.2188 21.0742 33.125 21.0742L24.8242 21.0742L24.8242 12.793C24.8242 11.6797 24.0625 10.8984 22.9297 10.8984C21.875 10.8984 21.1133 11.6992 21.1133 12.793Z" fill="black" fill-opacity="0.85"/>
 </g>
</svg>
