<?xml version="1.0" encoding="UTF-8"?>
<!--Generator: Apple Native CoreSVG 326-->
<!DOCTYPE svg
PUBLIC "-//W3C//DTD SVG 1.1//EN"
       "http://www.w3.org/Graphics/SVG/1.1/DTD/svg11.dtd">
<svg version="1.1" xmlns="http://www.w3.org/2000/svg" xmlns:xlink="http://www.w3.org/1999/xlink" viewBox="0 0 46.2891 45.918">
 <g>
  <rect height="45.918" opacity="0" width="46.2891" x="0" y="0"/>
  <path d="M7.59766 45.918L38.3008 45.918C43.3594 45.918 45.918 43.3594 45.918 38.3984L45.918 7.53906C45.918 2.55859 43.3594 0 38.3008 0L7.59766 0C2.55859 0 0 2.53906 0 7.53906L0 38.3984C0 43.3984 2.55859 45.918 7.59766 45.918ZM7.67578 42.4609C4.94141 42.4609 3.45703 41.0156 3.45703 38.2031L3.45703 7.71484C3.45703 4.92188 4.94141 3.45703 7.67578 3.45703L38.2422 3.45703C40.918 3.45703 42.4609 4.92188 42.4609 7.71484L42.4609 38.2031C42.4609 41.0156 40.918 42.4609 38.2422 42.4609Z" fill="black" fill-opacity="0.85"/>
  <path d="M11.4258 22.9492C11.4258 23.9844 12.1875 24.707 13.2812 24.707L21.1719 24.707L21.1719 32.6172C21.1719 33.6914 21.9141 34.4531 22.9297 34.4531C24.0234 34.4531 24.7656 33.7109 24.7656 32.6172L24.7656 24.707L32.6758 24.707C33.75 24.707 34.5117 23.9844 34.5117 22.9492C34.5117 21.8555 33.7695 21.1133 32.6758 21.1133L24.7656 21.1133L24.7656 13.2227C24.7656 12.1289 24.0234 11.3672 22.9297 11.3672C21.9141 11.3672 21.1719 12.1289 21.1719 13.2227L21.1719 21.1133L13.2812 21.1133C12.1875 21.1133 11.4258 21.8555 11.4258 22.9492Z" fill="black" fill-opacity="0.85"/>
 </g>
</svg>
