<?xml version="1.0" encoding="UTF-8"?>
<!--Generator: Apple Native CoreSVG 326-->
<!DOCTYPE svg
PUBLIC "-//W3C//DTD SVG 1.1//EN"
       "http://www.w3.org/Graphics/SVG/1.1/DTD/svg11.dtd">
<svg version="1.1" xmlns="http://www.w3.org/2000/svg" xmlns:xlink="http://www.w3.org/1999/xlink" viewBox="0 0 62.4805 45.9961">
 <g>
  <rect height="45.9961" opacity="0" width="62.4805" x="0" y="0"/>
  <path d="M62.1094 23.75C62.1094 34.2578 55.0977 41.2109 44.6289 41.2109L17.4805 41.2109C6.97266 41.2109 0 34.2578 0 23.75C0 13.2617 6.97266 6.17188 17.4805 6.25L21.6016 6.26953C21.5039 6.77734 21.4648 7.32422 21.4648 7.85156C21.4648 8.49609 21.5234 9.10156 21.6602 9.70703L17.4805 9.70703C9.14062 9.70703 3.45703 15.4492 3.45703 23.75C3.45703 32.0703 9.14062 37.7539 17.4805 37.7539L44.6289 37.7539C52.9297 37.7539 58.6523 32.0703 58.6523 23.75C58.6523 15.4492 52.9297 9.70703 44.6289 9.70703L40.0405 9.70703C40.1957 9.10877 40.2734 8.47968 40.2734 7.83203C40.2734 7.29024 40.218 6.76107 40.1123 6.25L44.6289 6.25C55.0977 6.25 62.1094 13.2617 62.1094 23.75Z" fill="black" fill-opacity="0.85"/>
  <path d="M32.4219 15.7031C36.7578 15.7031 40.2734 12.1875 40.2734 7.83203C40.2734 3.51562 36.7578 0 32.4219 0C28.1055 0 24.5898 3.51562 24.5898 7.83203C24.5898 12.1875 28.1055 15.7031 32.4219 15.7031ZM32.4219 12.3242C29.9414 12.3242 27.9688 10.3516 27.9688 7.83203C27.9688 5.33203 29.9609 3.39844 32.4219 3.39844C34.9414 3.39844 36.8945 5.33203 36.8945 7.83203C36.8945 10.3516 34.9609 12.3242 32.4219 12.3242Z" fill="black" fill-opacity="0.85"/>
 </g>
</svg>
