<?xml version="1.0" encoding="UTF-8"?>
<!--Generator: Apple Native CoreSVG 326-->
<!DOCTYPE svg
PUBLIC "-//W3C//DTD SVG 1.1//EN"
       "http://www.w3.org/Graphics/SVG/1.1/DTD/svg11.dtd">
<svg version="1.1" xmlns="http://www.w3.org/2000/svg" xmlns:xlink="http://www.w3.org/1999/xlink" viewBox="0 0 44.4336 63.5467">
 <g>
  <rect height="63.5467" opacity="0" width="44.4336" x="0" y="0"/>
  <path d="M20.5859 11.7245L22.9883 13.6972L13.3789 13.6972C7.51953 13.6972 3.84766 16.4706 3.84766 20.8847C3.84766 25.3182 7.79297 28.3651 15.2734 29.1464L30.0586 30.6893C39.4336 31.6464 44.4336 36.0409 44.4336 42.662C44.4336 49.1854 39.4336 53.3065 31.4453 53.3065L15.4984 53.3065C15.6346 52.7432 15.7031 52.1539 15.7031 51.5487C15.7031 50.9648 15.6388 50.3955 15.5117 49.8495L31.4453 49.8495C37.3047 49.8495 40.9766 47.0761 40.9766 42.662C40.9766 38.2284 37.0312 35.1815 29.5508 34.4003L14.6875 32.8573C5.39062 31.9198 0.390625 27.5057 0.390625 20.8847C0.390625 14.3612 5.39062 10.2401 13.3789 10.2401L19.3359 10.2401C19.6289 10.787 20.0586 11.2753 20.5859 11.7245Z" fill="black" fill-opacity="0.85"/>
  <path d="M7.85156 59.4003C12.1875 59.4003 15.7031 55.8847 15.7031 51.5487C15.7031 47.2323 12.1875 43.7167 7.85156 43.7167C3.51562 43.7167 0 47.2323 0 51.5487C0 55.8847 3.51562 59.4003 7.85156 59.4003Z" fill="black" fill-opacity="0.85"/>
  <path d="M30.5859 8.75575L35.4492 8.75575C38.8672 8.75575 41.3672 10.7089 41.3672 14.1659C41.3672 17.7011 38.9258 19.8886 35.4297 19.8886L32.168 19.8886C31.3086 19.8886 30.6055 20.4354 30.6055 21.3925C30.6055 22.33 31.3086 22.8768 32.2266 22.8768L35.4297 22.8768C40.6445 22.8768 44.4336 19.5761 44.4336 14.2831C44.4336 9.04872 40.6641 5.787 35.4492 5.787L30.5859 5.787L30.5859 1.52919C30.5859 0.259655 29.4141-0.482533 28.3984 0.357311L21.543 5.98231C20.5859 6.78309 20.5664 7.77919 21.543 8.5995L28.3984 14.1854C29.4141 15.0253 30.5859 14.3417 30.5859 13.0331Z" fill="black" fill-opacity="0.85"/>
 </g>
</svg>
