<?xml version="1.0" encoding="UTF-8"?>
<!--Generator: Apple Native CoreSVG 326-->
<!DOCTYPE svg
PUBLIC "-//W3C//DTD SVG 1.1//EN"
       "http://www.w3.org/Graphics/SVG/1.1/DTD/svg11.dtd">
<svg version="1.1" xmlns="http://www.w3.org/2000/svg" xmlns:xlink="http://www.w3.org/1999/xlink" viewBox="0 0 55.5273 53.1055">
 <g>
  <rect height="53.1055" opacity="0" width="55.5273" x="0" y="0"/>
  <path d="M3.06641 47.6758L52.0898 47.6758L52.0898 46.1719C52.0898 45.332 51.582 44.8242 50.7227 44.8242L49.1211 44.8242L49.1211 16.6797L51.3867 16.6797C52.5781 16.6797 53.2422 15.8398 53.2422 14.9609C53.2422 14.3164 52.8906 13.75 52.1094 13.3008L30.5273 0.839844C29.5703 0.292969 28.5547 0 27.5781 0C26.6016 0 25.5664 0.292969 24.6289 0.839844L3.04688 13.3008C2.24609 13.75 1.91406 14.3164 1.91406 14.9609C1.91406 15.8398 2.57812 16.6797 3.76953 16.6797L6.05469 16.6797L6.05469 44.8242L4.45312 44.8242C3.57422 44.8242 3.06641 45.332 3.06641 46.1719ZM9.31641 44.8242L9.31641 13.7109L26.4453 4.0625C26.7773 3.86719 27.1875 3.75 27.5781 3.75C27.9492 3.75 28.3398 3.86719 28.7109 4.0625L45.8594 13.7109L45.8594 44.8242ZM1.73828 53.0664L53.418 53.0664C54.375 53.0664 55.1562 52.2852 55.1562 51.3477C55.1562 50.3906 54.375 49.6094 53.418 49.6094L1.73828 49.6094C0.78125 49.6094 0 50.3906 0 51.3477C0 52.2852 0.78125 53.0664 1.73828 53.0664Z" fill="black" fill-opacity="0.85"/>
  <path d="M19.2969 36.8164L27.4219 36.8164C28.0273 36.8164 28.4766 36.3867 28.4766 35.8203C28.4766 35.2539 28.0273 34.8242 27.4219 34.8242L21.3086 34.8242L21.3086 34.5703L27.9102 23.8672C28.1836 23.418 28.3789 23.1055 28.3789 22.6367C28.3789 22.0312 28.0273 21.4258 27.0898 21.4258L19.1797 21.4258C18.5938 21.4258 18.1445 21.8555 18.1445 22.4219C18.1445 22.9883 18.5938 23.418 19.1797 23.418L25.4102 23.418L25.4102 23.6719L18.5547 34.6094C18.3203 34.9805 18.1445 35.3125 18.1445 35.6641C18.1445 36.3672 18.6133 36.8164 19.2969 36.8164ZM33.4375 37.0898C34.1992 37.0898 34.6875 36.582 34.6875 35.7812L34.6875 16.4453C34.6875 15.6055 34.1992 15.0977 33.4375 15.0977C32.6562 15.0977 32.1875 15.6055 32.1875 16.4258L32.1875 35.7812C32.1875 36.582 32.6562 37.0898 33.4375 37.0898ZM31.0352 28.0078L36.9141 24.8242C37.3633 24.5898 37.5391 24.2383 37.5391 23.8672C37.5391 23.2031 36.8555 22.5586 36.0352 22.9883L30.1172 26.2109C29.668 26.4453 29.4531 26.8359 29.4531 27.168C29.4531 27.8711 30.1758 28.4766 31.0352 28.0078Z" fill="black" fill-opacity="0.85"/>
 </g>
</svg>
