<?xml version="1.0" encoding="UTF-8"?>
<!--Generator: Apple Native CoreSVG 326-->
<!DOCTYPE svg
PUBLIC "-//W3C//DTD SVG 1.1//EN"
       "http://www.w3.org/Graphics/SVG/1.1/DTD/svg11.dtd">
<svg version="1.1" xmlns="http://www.w3.org/2000/svg" xmlns:xlink="http://www.w3.org/1999/xlink" viewBox="0 0 51.25 50.918">
 <g>
  <rect height="50.918" opacity="0" width="51.25" x="0" y="0"/>
  <path d="M25.4297 50.8789C39.4727 50.8789 50.8789 39.4922 50.8789 25.4492C50.8789 11.4062 39.4727 0 25.4297 0C11.3867 0 0 11.4062 0 25.4492C0 39.4922 11.3867 50.8789 25.4297 50.8789ZM25.4297 47.2461C13.3789 47.2461 3.63281 37.5 3.63281 25.4492C3.63281 13.3984 13.3789 3.65234 25.4297 3.65234C37.4805 3.65234 47.2266 13.3984 47.2266 25.4492C47.2266 37.5 37.4805 47.2461 25.4297 47.2461Z" fill="black" fill-opacity="0.85"/>
  <path d="M17.1289 35.8594L25.2539 35.8594C25.8398 35.8594 26.2891 35.4297 26.2891 34.8438C26.2891 34.2969 25.8398 33.8672 25.2539 33.8672L19.1406 33.8672L19.1406 33.6133L25.7422 22.8906C26.0156 22.4609 26.1914 22.1289 26.1914 21.6797C26.1914 21.0742 25.8594 20.4688 24.9219 20.4688L16.9922 20.4688C16.4258 20.4688 15.9766 20.8984 15.9766 21.4453C15.9766 22.0312 16.4258 22.4609 16.9922 22.4609L23.2227 22.4609L23.2227 22.7148L16.3672 33.6523C16.1523 34.0234 15.9766 34.3359 15.9766 34.707C15.9766 35.3906 16.4453 35.8594 17.1289 35.8594ZM31.2695 36.1328C32.0312 36.1328 32.5 35.625 32.5 34.8047L32.5 15.4688C32.5 14.6289 32.0312 14.1211 31.2695 14.1211C30.4688 14.1211 30 14.6289 30 15.4492L30 34.8047C30 35.625 30.4688 36.1328 31.2695 36.1328ZM28.8672 27.0312L34.7266 23.8672C35.1953 23.6133 35.3711 23.2617 35.3711 22.9102C35.3711 22.2266 34.668 21.6016 33.8672 22.0312L27.9297 25.2344C27.5 25.4883 27.2852 25.8594 27.2852 26.2109C27.2852 26.8945 27.9883 27.5 28.8672 27.0312Z" fill="black" fill-opacity="0.85"/>
 </g>
</svg>
