<?xml version="1.0" encoding="UTF-8"?>
<!--Generator: Apple Native CoreSVG 326-->
<!DOCTYPE svg
PUBLIC "-//W3C//DTD SVG 1.1//EN"
       "http://www.w3.org/Graphics/SVG/1.1/DTD/svg11.dtd">
<svg version="1.1" xmlns="http://www.w3.org/2000/svg" xmlns:xlink="http://www.w3.org/1999/xlink" viewBox="0 0 41.4844 49.1211">
 <g>
  <rect height="49.1211" opacity="0" width="41.4844" x="0" y="0"/>
  <path d="M2.10938 48.5352L22.0508 48.5352C23.1055 48.5352 23.7891 47.8516 23.7891 46.8164C23.7891 45.8008 23.1055 45.1367 22.0508 45.1367L5.03906 45.1367L5.03906 44.6875L22.8516 18.5938C23.3984 17.8125 23.6914 17.2852 23.6914 16.3672C23.6914 14.8438 22.6367 14.2188 21.4258 14.2188L1.75781 14.2188C0.722656 14.2188 0 14.9414 0 15.918C0 16.9141 0.722656 17.6367 1.75781 17.6367L18.7891 17.6367L18.7891 18.0664L0.625 44.6094C0.214844 45.2148 0.0195312 45.7422 0.0195312 46.4648C0.0195312 47.6758 0.839844 48.5352 2.10938 48.5352ZM34.1797 49.1016C35.3711 49.1016 36.2305 48.1836 36.2305 46.9336L36.2305 2.14844C36.2305 0.898438 35.3711 0 34.1797 0C32.9688 0 32.1289 0.898438 32.1289 2.14844L32.1289 46.9336C32.1289 48.1836 32.9688 49.1016 34.1797 49.1016Z" fill="black" fill-opacity="0.85"/>
 </g>
</svg>
