<?xml version="1.0" encoding="UTF-8"?>
<!--Generator: Apple Native CoreSVG 326-->
<!DOCTYPE svg
PUBLIC "-//W3C//DTD SVG 1.1//EN"
       "http://www.w3.org/Graphics/SVG/1.1/DTD/svg11.dtd">
<svg version="1.1" xmlns="http://www.w3.org/2000/svg" xmlns:xlink="http://www.w3.org/1999/xlink" viewBox="0 0 46.4648 62.9102">
 <g>
  <rect height="62.9102" opacity="0" width="46.4648" x="0" y="0"/>
  <path d="M24.8242 4.00391C25.6445 3.82812 26.582 3.86719 27.3047 4.10156C28.457 2.98828 30 2.36328 31.6992 2.36328C34.375 2.36328 36.3477 4.02344 37.2656 6.44531C41.1523 6.52344 43.9453 9.53125 43.9453 13.6914C43.9453 15.5844 43.2309 17.3225 42.0564 18.6229C43.8209 20.2034 44.7243 22.6181 44.1602 25.5664L40.832 43.1512C40.0655 42.3317 39.0608 41.7317 37.909 41.4102L40.9961 25.3906C41.6797 21.9141 39.2578 19.7656 36.2305 19.7656C33.8477 19.7656 31.8945 21.3477 31.6406 24.2773L29.7848 44.8823C29.5264 45.4841 29.3728 46.147 29.3359 46.8555C28.1551 47.1057 27.09 47.6785 26.2412 48.4736L28.4375 24.1797C28.75 20.7422 26.6016 18.4766 23.0469 18.4766C19.4727 18.4766 17.3242 20.7422 17.6367 24.1797L20.5273 55.9375L24.8031 55.9375C25.5369 57.4572 26.8655 58.6197 28.4997 59.1602L13.125 59.1602C9.72656 59.1602 7.94922 57.3438 7.30469 53.9453L1.93359 25.5664C1.39529 22.753 2.19326 20.4255 3.80216 18.8464C2.7544 17.6589 2.12891 16.0726 2.12891 14.3164C2.12891 10.625 5.17578 7.53906 8.82812 7.63672C8.82812 5.66406 10.625 3.90625 12.6562 4.17969C13.1055 2.03125 15.4297 0 18.7891 0C21.4453 0 23.7695 1.5625 24.8242 4.00391ZM5.07812 25.3906L10.5469 53.7695C10.8203 55.2344 11.7383 55.9375 13.2422 55.9375L17.3047 55.9375L14.4531 24.2773C14.1992 21.3477 12.2461 19.7656 9.86328 19.7656C6.81641 19.7656 4.41406 21.9141 5.07812 25.3906ZM15.332 7.5C12.6758 6.28906 10.1367 8.32031 10.6055 10.8789C7.69531 10.2148 5.23438 11.9531 5.23438 14.3164C5.23438 15.4843 5.7453 16.4926 6.55598 17.1199C7.56007 16.7406 8.68016 16.543 9.86328 16.543C12.207 16.543 14.2188 17.5 15.6055 19.2969C16.875 16.8555 19.6289 15.2539 23.0469 15.2539C26.4648 15.2539 29.2188 16.8555 30.4883 19.2969C31.875 17.5 33.8867 16.543 36.2305 16.543C37.2775 16.543 38.2752 16.6978 39.185 16.9994C40.1741 16.2779 40.8398 15.1423 40.8398 13.8867C40.8398 10.8984 38.4375 9.27734 35.2734 9.84375C35.4102 7.34375 34.1016 5.50781 31.8359 5.50781C30.2539 5.50781 28.9062 6.36719 28.2422 7.89062C26.9531 6.81641 24.2578 6.60156 22.6758 7.71484C22.9883 4.78516 20.8984 3.14453 18.7891 3.14453C16.6016 3.14453 14.7656 4.78516 15.332 7.5Z" fill="black" fill-opacity="0.85"/>
  <path d="M35.8789 62.8711C38.3203 62.8711 40.5469 61.4258 41.4844 59.2969C44.4922 58.7109 46.4648 56.1523 46.4648 53.1836C46.4648 50.4883 44.7852 48.2227 42.4609 47.2461C42.4023 43.6328 39.5312 41.1328 35.8789 41.1328C32.3438 41.1328 29.5117 43.4766 29.3359 46.8555C26.3867 47.4805 24.1602 50.1172 24.1602 53.1445C24.1602 56.6016 26.8359 59.3164 30.2539 59.4922C31.1719 61.4648 33.3984 62.8711 35.8789 62.8711ZM35.8789 60.0391C33.8281 60.0391 32.0703 58.7305 32.2656 56.5039C29.5703 57.2656 26.9727 55.8789 26.9727 53.1445C26.9727 50.4883 29.1211 48.8672 32.207 49.2773C31.4453 46.7969 32.8516 43.9648 35.8789 43.9648C38.9062 43.9648 40.4297 46.7773 39.6484 49.5312C41.9922 49.375 43.5742 50.8984 43.5742 53.2812C43.5742 55.5078 42.0703 56.8359 39.4336 56.6211C39.4727 58.5938 37.7344 60.0391 35.8789 60.0391Z" fill="black" fill-opacity="0.85"/>
 </g>
</svg>
