<?xml version="1.0" encoding="UTF-8"?>
<!--Generator: Apple Native CoreSVG 326-->
<!DOCTYPE svg
PUBLIC "-//W3C//DTD SVG 1.1//EN"
       "http://www.w3.org/Graphics/SVG/1.1/DTD/svg11.dtd">
<svg version="1.1" xmlns="http://www.w3.org/2000/svg" xmlns:xlink="http://www.w3.org/1999/xlink" viewBox="0 0 51.25 50.918">
 <g>
  <rect height="50.918" opacity="0" width="51.25" x="0" y="0"/>
  <path d="M50.8789 25.4492C50.8789 39.4531 39.4531 50.8789 25.4297 50.8789C11.4258 50.8789 0 39.4531 0 25.4492C0 11.4258 11.4258 0 25.4297 0C39.4531 0 50.8789 11.4258 50.8789 25.4492ZM16.543 15.5273C13.7109 18.0078 12.0508 21.6992 12.0508 25.4492C12.0508 32.7344 18.125 38.8281 25.4492 38.8281C32.7734 38.8281 38.8477 32.7344 38.8477 25.4492C38.8477 21.7188 37.1875 18.0469 34.3555 15.5273C32.8125 14.1016 30.7227 16.3086 32.3047 17.793C34.4727 19.7461 35.7227 22.4805 35.7422 25.4492C35.7422 31.1719 31.1523 35.7422 25.4492 35.7422C19.7461 35.7422 15.1758 31.1719 15.1758 25.4492C15.1758 22.4805 16.4062 19.7461 18.5938 17.7734C20.1758 16.2891 18.0859 14.082 16.543 15.5273ZM23.9648 12.8516L23.9648 24.375C23.9648 25.2734 24.5703 25.918 25.4492 25.918C26.3281 25.918 26.9531 25.2734 26.9531 24.375L26.9531 12.8516C26.9531 11.9531 26.3281 11.3281 25.4492 11.3281C24.5703 11.3281 23.9648 11.9531 23.9648 12.8516Z" fill="black" fill-opacity="0.85"/>
 </g>
</svg>
