<?xml version="1.0" encoding="UTF-8"?>
<!--Generator: Apple Native CoreSVG 326-->
<!DOCTYPE svg
PUBLIC "-//W3C//DTD SVG 1.1//EN"
       "http://www.w3.org/Graphics/SVG/1.1/DTD/svg11.dtd">
<svg version="1.1" xmlns="http://www.w3.org/2000/svg" xmlns:xlink="http://www.w3.org/1999/xlink" viewBox="0 0 47.9297 45.957">
 <g>
  <rect height="45.957" opacity="0" width="47.9297" x="0" y="0"/>
  <path d="M7.59766 45.957L39.9609 45.957C45.0195 45.957 47.5586 43.418 47.5586 38.4375L47.5586 7.57812C47.5586 2.59766 45.0195 0.0585938 39.9609 0.0585938L7.59766 0.0585938C2.55859 0.0585938 0 2.57812 0 7.57812L0 38.4375C0 43.4375 2.55859 45.957 7.59766 45.957ZM7.67578 42.5C4.94141 42.5 3.45703 41.0547 3.45703 38.2617L3.45703 7.75391C3.45703 4.96094 4.94141 3.51562 7.67578 3.51562L39.9023 3.51562C42.5781 3.51562 44.1016 4.96094 44.1016 7.75391L44.1016 38.2617C44.1016 41.0547 42.5781 42.5 39.9023 42.5Z" fill="black" fill-opacity="0.85"/>
  <path d="M22.8125 35.4102L24.7266 35.4102C25.5469 35.4102 26.1133 34.8828 26.1133 34.043L26.1133 26.4062C26.1133 25.5664 25.5469 25 24.7266 25L22.8125 25C22.0117 25 21.4648 25.5664 21.4648 26.4062L21.4648 34.043C21.4648 34.8633 21.9922 35.4102 22.8125 35.4102ZM10.918 20.4883L12.2656 21.8359C12.8516 22.4219 13.6328 22.4219 14.2383 21.8359L20.1562 15.918C20.7422 15.332 20.7422 14.5508 20.1367 13.9453L18.7891 12.6172C18.2227 12.0312 17.4805 12.0312 16.875 12.6367L10.9375 18.5352C10.3711 19.1211 10.3516 19.9219 10.918 20.4883ZM35.293 21.8164L36.6602 20.4883C37.207 19.9219 37.207 19.1406 36.6211 18.5352L30.7031 12.6172C30.1367 12.0312 29.3555 12.0312 28.7695 12.5977L27.4219 13.9453C26.8359 14.5508 26.8359 15.3125 27.4219 15.8984L33.3398 21.8164C33.9258 22.4219 34.6875 22.4219 35.293 21.8164Z" fill="black" fill-opacity="0.85"/>
 </g>
</svg>
