<?xml version="1.0" encoding="UTF-8"?>
<!--Generator: Apple Native CoreSVG 326-->
<!DOCTYPE svg
PUBLIC "-//W3C//DTD SVG 1.1//EN"
       "http://www.w3.org/Graphics/SVG/1.1/DTD/svg11.dtd">
<svg version="1.1" xmlns="http://www.w3.org/2000/svg" xmlns:xlink="http://www.w3.org/1999/xlink" viewBox="0 0 46.2891 45.918">
 <g>
  <rect height="45.918" opacity="0" width="46.2891" x="0" y="0"/>
  <path d="M45.918 7.53906L45.918 38.3984C45.918 43.3594 43.3594 45.918 38.3008 45.918L7.59766 45.918C2.55859 45.918 0 43.3984 0 38.3984L0 7.53906C0 2.53906 2.55859 0 7.59766 0L38.3008 0C43.3594 0 45.918 2.55859 45.918 7.53906ZM9.51172 22.9492C9.51172 30.3906 15.5078 36.3867 22.9492 36.3867C30.4102 36.3867 36.4062 30.3906 36.4062 22.9492C36.4062 15.4883 30.4102 9.49219 22.9492 9.49219C15.5078 9.49219 9.51172 15.4883 9.51172 22.9492ZM19.5117 22.9492C19.5117 24.5312 18.1836 25.8398 16.6016 25.8398C15 25.8398 13.6914 24.5312 13.6914 22.9492C13.6914 21.3477 15 20.0391 16.6016 20.0391C18.1836 20.0391 19.5117 21.3477 19.5117 22.9492ZM32.2266 22.9492C32.2266 24.5312 30.918 25.8398 29.3164 25.8398C27.7148 25.8398 26.4062 24.5312 26.4062 22.9492C26.4062 21.3477 27.7148 20.0391 29.3164 20.0391C30.918 20.0391 32.2266 21.3477 32.2266 22.9492Z" fill="black" fill-opacity="0.85"/>
 </g>
</svg>
