<?xml version="1.0" encoding="UTF-8"?>
<!--Generator: Apple Native CoreSVG 326-->
<!DOCTYPE svg
PUBLIC "-//W3C//DTD SVG 1.1//EN"
       "http://www.w3.org/Graphics/SVG/1.1/DTD/svg11.dtd">
<svg version="1.1" xmlns="http://www.w3.org/2000/svg" xmlns:xlink="http://www.w3.org/1999/xlink" viewBox="0 0 47.9297 45.957">
 <g>
  <rect height="45.957" opacity="0" width="47.9297" x="0" y="0"/>
  <path d="M7.59766 45.957L39.9609 45.957C45.0195 45.957 47.5586 43.418 47.5586 38.4375L47.5586 7.57812C47.5586 2.59766 45.0195 0.0585938 39.9609 0.0585938L7.59766 0.0585938C2.55859 0.0585938 0 2.57812 0 7.57812L0 38.4375C0 43.4375 2.55859 45.957 7.59766 45.957ZM7.67578 42.5C4.94141 42.5 3.45703 41.0547 3.45703 38.2617L3.45703 7.75391C3.45703 4.96094 4.94141 3.51562 7.67578 3.51562L39.9023 3.51562C42.5781 3.51562 44.1016 4.96094 44.1016 7.75391L44.1016 38.2617C44.1016 41.0547 42.5781 42.5 39.9023 42.5Z" fill="black" fill-opacity="0.85"/>
  <path d="M15.0977 33.457C17.1094 33.457 18.75 31.8164 18.75 29.7852C18.75 27.793 17.1094 26.1328 15.0977 26.1328C13.0859 26.1328 11.4258 27.793 11.4258 29.7852C11.4258 31.8164 13.0859 33.457 15.0977 33.457ZM32.4805 33.457C34.4922 33.457 36.1328 31.8164 36.1328 29.7852C36.1328 27.793 34.4922 26.1328 32.4805 26.1328C30.4492 26.1328 28.8086 27.793 28.8086 29.7852C28.8086 31.8164 30.4492 33.457 32.4805 33.457ZM23.7891 19.7852C25.7812 19.7852 27.4414 18.1445 27.4414 16.1133C27.4414 14.1211 25.7812 12.4609 23.7891 12.4609C21.7578 12.4609 20.1172 14.1211 20.1172 16.1133C20.1172 18.1445 21.7578 19.7852 23.7891 19.7852Z" fill="black" fill-opacity="0.85"/>
 </g>
</svg>
