<?xml version="1.0" encoding="UTF-8"?>
<!--Generator: Apple Native CoreSVG 326-->
<!DOCTYPE svg
PUBLIC "-//W3C//DTD SVG 1.1//EN"
       "http://www.w3.org/Graphics/SVG/1.1/DTD/svg11.dtd">
<svg version="1.1" xmlns="http://www.w3.org/2000/svg" xmlns:xlink="http://www.w3.org/1999/xlink" viewBox="0 0 61.9336 37.4023">
 <g>
  <rect height="37.4023" opacity="0" width="61.9336" x="0" y="0"/>
  <path d="M0 15.0391L0 22.1289C0 24.8828 1.50391 26.3672 4.27734 26.3672L14.6289 26.3672C17.7539 26.3672 19.4727 27.832 21.4648 30.5078C24.668 34.8633 29.6875 37.168 34.9609 37.168L43.0469 37.168C45.7812 37.168 47.2656 35.7227 47.2656 32.9883L47.2656 30.1172L58.3398 30.1172C60.1172 30.1172 61.5625 28.7109 61.5625 26.9336C61.5625 25.1172 60.1172 23.6914 58.3398 23.6914L47.2656 23.6914L47.2656 13.4766L58.3398 13.4766C60.1172 13.4766 61.5625 12.0312 61.5625 10.2734C61.5625 8.47656 60.1172 7.03125 58.3398 7.03125L47.2656 7.03125L47.2656 4.10156C47.2656 1.38672 45.7812 0 43.0469 0L34.9609 0C29.6875 0 24.668 2.26562 21.4648 6.67969C19.4727 9.375 17.7539 10.8203 14.6289 10.8203L4.27734 10.8203C1.50391 10.8203 0 12.2461 0 15.0391Z" fill="black" fill-opacity="0.85"/>
 </g>
</svg>
