<?xml version="1.0" encoding="UTF-8"?>
<!--Generator: Apple Native CoreSVG 326-->
<!DOCTYPE svg
PUBLIC "-//W3C//DTD SVG 1.1//EN"
       "http://www.w3.org/Graphics/SVG/1.1/DTD/svg11.dtd">
<svg version="1.1" xmlns="http://www.w3.org/2000/svg" xmlns:xlink="http://www.w3.org/1999/xlink" viewBox="0 0 97.4219 32.1289">
 <g>
  <rect height="32.1289" opacity="0" width="97.4219" x="0" y="0"/>
  <path d="M7.16797 28.6914L69.7266 28.6914C73.9648 28.6914 76.8945 25.7422 76.8945 21.5234L76.8945 7.1875C76.8945 2.96875 73.9648 0 69.7266 0L7.16797 0C2.92969 0 0 2.92969 0 7.1875L0 21.5234C0 25.7812 2.92969 28.6914 7.16797 28.6914ZM7.1875 25.4297C4.78516 25.4297 3.26172 23.9062 3.26172 21.5039L3.26172 7.20703C3.26172 4.80469 4.78516 3.26172 7.1875 3.26172L69.6875 3.26172C72.0508 3.26172 73.6328 4.80469 73.6328 7.20703L73.6328 21.5039C73.6328 23.9062 72.0508 25.4297 69.6875 25.4297ZM75.4297 23.1055L79.2383 23.1055C81.0547 23.1055 82.3047 21.8555 82.3047 20.0391L82.3047 8.65234C82.3047 6.83594 81.0547 5.58594 79.2383 5.58594L75.4297 5.58594L75.4297 8.45703L78.1641 8.45703C78.9453 8.45703 79.4336 8.96484 79.4336 9.74609L79.4336 18.9453C79.4336 19.7266 78.9453 20.2344 78.1641 20.2344L75.4297 20.2344ZM81.2695 16.2305L97.0508 16.2305L97.0508 12.7734L81.2695 12.7734Z" fill="black" fill-opacity="0.85"/>
  <path d="M9.58984 20.0391L11.3867 20.0391C12.0703 20.0391 12.5391 19.5508 12.5391 18.8672L12.5391 9.80469C12.5391 9.08203 12.0703 8.63281 11.3867 8.63281L9.58984 8.63281C8.86719 8.63281 8.41797 9.08203 8.41797 9.80469L8.41797 18.8672C8.41797 19.5508 8.86719 20.0391 9.58984 20.0391ZM24.6875 22.0508C28.9453 22.0508 32.3828 18.6328 32.3828 14.3555C32.3828 10.1172 28.9453 6.64062 24.6875 6.64062C20.4102 6.64062 16.9727 10.1172 16.9727 14.3555C16.9727 18.6328 20.4102 22.0508 24.6875 22.0508ZM21.8945 18.418C21.3086 18.418 20.8203 17.9492 20.8203 17.3828L20.8203 11.3477C20.8203 10.7617 21.3086 10.2734 21.8945 10.2734C22.4805 10.2734 22.9492 10.7422 22.9492 11.3477L22.9492 17.3828C22.9492 17.9688 22.4805 18.418 21.8945 18.418ZM27.4609 18.418C26.875 18.418 26.3867 17.9688 26.3867 17.3828L26.3867 11.3477C26.3867 10.7422 26.8555 10.2734 27.4609 10.2734C28.0469 10.2734 28.5156 10.7422 28.5156 11.3477L28.5156 17.3828C28.5156 17.9688 28.0469 18.418 27.4609 18.418ZM43.2617 22.0508C47.5195 22.0508 50.9766 18.6328 50.9766 14.3555C50.9766 10.1172 47.5195 6.64062 43.2617 6.64062C39.0039 6.64062 35.5664 10.1172 35.5664 14.3555C35.5664 18.6328 39.0039 22.0508 43.2617 22.0508ZM40.4688 18.418C39.8828 18.418 39.3945 17.9688 39.3945 17.3828L39.3945 11.3477C39.3945 10.7617 39.8828 10.2734 40.4688 10.2734C41.0742 10.2734 41.5234 10.7422 41.5234 11.3477L41.5234 17.3828C41.5234 17.9688 41.0742 18.418 40.4688 18.418ZM46.0352 18.418C45.4492 18.418 44.9609 17.9688 44.9609 17.3828L44.9609 11.3477C44.9609 10.7422 45.4492 10.2734 46.0352 10.2734C46.6406 10.2734 47.0898 10.7422 47.0898 11.3477L47.0898 17.3828C47.0898 17.9688 46.6211 18.418 46.0352 18.418ZM61.8164 22.0508C66.0742 22.0508 69.5312 18.6328 69.5312 14.3555C69.5312 10.1172 66.0742 6.64062 61.8164 6.64062C57.5586 6.64062 54.1211 10.1172 54.1211 14.3555C54.1211 18.6328 57.5586 22.0508 61.8164 22.0508ZM59.043 18.418C58.457 18.418 57.9688 17.9688 57.9688 17.3828L57.9688 11.3477C57.9688 10.7617 58.457 10.2734 59.043 10.2734C59.6484 10.2734 60.0977 10.7422 60.0977 11.3477L60.0977 17.3828C60.0977 17.9688 59.6289 18.418 59.043 18.418ZM64.6094 18.418C64.0234 18.418 63.5156 17.9688 63.5156 17.3828L63.5156 11.3477C63.5156 10.7422 64.0039 10.2734 64.6094 10.2734C65.1953 10.2734 65.6445 10.7422 65.6445 11.3477L65.6445 17.3828C65.6445 17.9688 65.1953 18.418 64.6094 18.418Z" fill="black" fill-opacity="0.85"/>
 </g>
</svg>
