<?xml version="1.0" encoding="UTF-8"?>
<!--Generator: Apple Native CoreSVG 326-->
<!DOCTYPE svg
PUBLIC "-//W3C//DTD SVG 1.1//EN"
       "http://www.w3.org/Graphics/SVG/1.1/DTD/svg11.dtd">
<svg version="1.1" xmlns="http://www.w3.org/2000/svg" xmlns:xlink="http://www.w3.org/1999/xlink" viewBox="0 0 46.2891 45.918">
 <g>
  <rect height="45.918" opacity="0" width="46.2891" x="0" y="0"/>
  <path d="M45.918 7.53906L45.918 38.3984C45.918 43.3594 43.3594 45.918 38.3008 45.918L7.59766 45.918C2.55859 45.918 0 43.3984 0 38.3984L0 7.53906C0 2.53906 2.55859 0 7.59766 0L38.3008 0C43.3594 0 45.918 2.55859 45.918 7.53906ZM9.51172 22.9492C9.51172 30.3906 15.5078 36.3867 22.9492 36.3867C30.4102 36.3867 36.4062 30.3906 36.4062 22.9492C36.4062 15.4883 30.4102 9.49219 22.9492 9.49219C15.5078 9.49219 9.51172 15.4883 9.51172 22.9492ZM19.1797 22.9883C19.1797 24.5703 17.8711 25.8984 16.2891 25.8984C14.6875 25.8984 13.3789 24.5703 13.3789 22.9883C13.3789 21.3867 14.6875 20.0781 16.2891 20.0781C17.8711 20.0781 19.1797 21.3867 19.1797 22.9883ZM32.5391 22.9492C32.5391 24.5312 31.2305 25.8398 29.6289 25.8398C28.0273 25.8398 26.7188 24.5312 26.7188 22.9492C26.7188 21.3477 28.0273 20.0391 29.6289 20.0391C31.2305 20.0391 32.5391 21.3477 32.5391 22.9492ZM24.8633 16.1523C24.8633 17.207 24.0234 18.0664 22.9492 18.0664C21.8945 18.0664 21.0547 17.207 21.0547 16.1523C21.0547 15.0977 21.8945 14.2578 22.9492 14.2578C24.0234 14.2578 24.8633 15.0977 24.8633 16.1523Z" fill="black" fill-opacity="0.85"/>
 </g>
</svg>
