<?xml version="1.0" encoding="UTF-8"?>
<!--Generator: Apple Native CoreSVG 326-->
<!DOCTYPE svg
PUBLIC "-//W3C//DTD SVG 1.1//EN"
       "http://www.w3.org/Graphics/SVG/1.1/DTD/svg11.dtd">
<svg version="1.1" xmlns="http://www.w3.org/2000/svg" xmlns:xlink="http://www.w3.org/1999/xlink" viewBox="0 0 46.2891 45.918">
 <g>
  <rect height="45.918" opacity="0" width="46.2891" x="0" y="0"/>
  <path d="M45.918 7.53906L45.918 38.3984C45.918 43.3594 43.3594 45.918 38.3008 45.918L7.59766 45.918C2.55859 45.918 0 43.3984 0 38.3984L0 7.53906C0 2.53906 2.55859 0 7.59766 0L38.3008 0C43.3594 0 45.918 2.55859 45.918 7.53906ZM11.1133 17.7539L11.1133 19.1016L10 19.1016C9.0625 19.1016 8.41797 19.7266 8.41797 20.6641L8.41797 25.2734C8.41797 26.2109 9.0625 26.8359 10 26.8359L11.1133 26.8359L11.1133 28.1641C11.1133 32.5977 16.7969 36.6406 22.9492 36.6406C29.1016 36.6406 34.8047 32.5977 34.8047 28.1641L34.8047 26.8359L35.918 26.8359C36.8555 26.8359 37.5 26.2109 37.5 25.2734L37.5 20.6641C37.5 19.7266 36.8555 19.1016 35.918 19.1016L34.8047 19.1016L34.8047 17.7539C34.8047 13.3398 29.1016 9.29688 22.9492 9.29688C16.7969 9.29688 11.1133 13.3398 11.1133 17.7539ZM19.5117 22.9688C19.5117 24.5703 18.1836 25.8789 16.6016 25.8789C15 25.8789 13.6914 24.5703 13.6914 22.9688C13.6914 21.3672 15 20.0586 16.6016 20.0586C18.1836 20.0586 19.5117 21.3672 19.5117 22.9688ZM32.2266 22.9688C32.2266 24.5703 30.918 25.8789 29.3164 25.8789C27.7148 25.8789 26.4062 24.5703 26.4062 22.9688C26.4062 21.3672 27.7148 20.0586 29.3164 20.0586C30.918 20.0586 32.2266 21.3672 32.2266 22.9688Z" fill="black" fill-opacity="0.85"/>
 </g>
</svg>
