<?xml version="1.0" encoding="UTF-8"?>
<!--Generator: Apple Native CoreSVG 326-->
<!DOCTYPE svg
PUBLIC "-//W3C//DTD SVG 1.1//EN"
       "http://www.w3.org/Graphics/SVG/1.1/DTD/svg11.dtd">
<svg version="1.1" xmlns="http://www.w3.org/2000/svg" xmlns:xlink="http://www.w3.org/1999/xlink" viewBox="0 0 51.25 50.918">
 <g>
  <rect height="50.918" opacity="0" width="51.25" x="0" y="0"/>
  <path d="M50.8789 25.4492C50.8789 39.4531 39.4531 50.8789 25.4297 50.8789C11.4258 50.8789 0 39.4531 0 25.4492C0 11.4258 11.4258 0 25.4297 0C39.4531 0 50.8789 11.4258 50.8789 25.4492ZM9.23828 25.5859C9.23828 28.2422 11.4062 30.4102 14.0625 30.4102C16.7383 30.4102 18.8867 28.2422 18.8867 25.5859C18.8867 22.9297 16.7383 20.7617 14.0625 20.7617C11.4062 20.7617 9.23828 22.9297 9.23828 25.5859ZM31.9922 25.5859C31.9922 28.2422 34.1406 30.4102 36.8164 30.4102C39.4727 30.4102 41.6211 28.2422 41.6211 25.5859C41.6211 22.9297 39.4727 20.7617 36.8164 20.7617C34.1406 20.7617 31.9922 22.9297 31.9922 25.5859ZM22.1484 13.457C22.1484 15.2539 23.6328 16.7383 25.4297 16.7383C27.2461 16.7383 28.7305 15.2539 28.7305 13.457C28.7305 11.6406 27.2461 10.1562 25.4297 10.1562C23.6328 10.1562 22.1484 11.6406 22.1484 13.457Z" fill="black" fill-opacity="0.85"/>
 </g>
</svg>
