<?xml version="1.0" encoding="UTF-8"?>
<!--Generator: Apple Native CoreSVG 326-->
<!DOCTYPE svg
PUBLIC "-//W3C//DTD SVG 1.1//EN"
       "http://www.w3.org/Graphics/SVG/1.1/DTD/svg11.dtd">
<svg version="1.1" xmlns="http://www.w3.org/2000/svg" xmlns:xlink="http://www.w3.org/1999/xlink" viewBox="0 0 47.9297 45.957">
 <g>
  <rect height="45.957" opacity="0" width="47.9297" x="0" y="0"/>
  <path d="M7.59766 45.957L39.9609 45.957C45.0195 45.957 47.5586 43.418 47.5586 38.4375L47.5586 7.57812C47.5586 2.59766 45.0195 0.0585938 39.9609 0.0585938L7.59766 0.0585938C2.55859 0.0585938 0 2.57812 0 7.57812L0 38.4375C0 43.4375 2.55859 45.957 7.59766 45.957ZM7.67578 42.5C4.94141 42.5 3.45703 41.0547 3.45703 38.2617L3.45703 7.75391C3.45703 4.96094 4.94141 3.51562 7.67578 3.51562L39.9023 3.51562C42.5781 3.51562 44.1016 4.96094 44.1016 7.75391L44.1016 38.2617C44.1016 41.0547 42.5781 42.5 39.9023 42.5Z" fill="black" fill-opacity="0.85"/>
  <path d="M22.8125 20.0977L24.7266 20.0977C25.5469 20.0977 26.1133 19.5508 26.1133 18.7109L26.1133 11.0742C26.1133 10.2539 25.5469 9.6875 24.7266 9.6875L22.8125 9.6875C22.0117 9.6875 21.4648 10.2539 21.4648 11.0742L21.4648 18.7109C21.4648 19.5508 22.0117 20.0977 22.8125 20.0977ZM11.2891 34.9414L18.2617 34.9414C19.082 34.9414 19.6289 34.3945 19.6289 33.5547L19.6289 31.6602C19.6289 30.8398 19.082 30.293 18.2617 30.293L11.2891 30.293C10.4688 30.293 9.90234 30.8594 9.90234 31.6602L9.90234 33.5547C9.90234 34.3945 10.4492 34.9414 11.2891 34.9414ZM29.3164 34.9414L36.2695 34.9414C37.1094 34.9414 37.6758 34.3945 37.6758 33.5547L37.6758 31.6602C37.6758 30.8594 37.1094 30.293 36.2695 30.293L29.3164 30.293C28.4766 30.293 27.9297 30.8398 27.9297 31.6602L27.9297 33.5547C27.9297 34.3945 28.4766 34.9414 29.3164 34.9414Z" fill="black" fill-opacity="0.85"/>
 </g>
</svg>
