<?xml version="1.0" encoding="UTF-8"?>
<!--Generator: Apple Native CoreSVG 326-->
<!DOCTYPE svg
PUBLIC "-//W3C//DTD SVG 1.1//EN"
       "http://www.w3.org/Graphics/SVG/1.1/DTD/svg11.dtd">
<svg version="1.1" xmlns="http://www.w3.org/2000/svg" xmlns:xlink="http://www.w3.org/1999/xlink" viewBox="0 0 51.25 53.9258">
 <g>
  <rect height="53.9258" opacity="0" width="51.25" x="0" y="0"/>
  <path d="M25.4297 52.3828C39.4727 52.3828 50.8789 40.9961 50.8789 26.9531C50.8789 18.8477 47.207 12.3438 42.4023 8.06641C40.5078 6.32812 38.0859 8.96484 39.9805 10.7227C44.4727 14.7266 47.2266 20.4883 47.2266 26.9531C47.2266 39.0039 37.4805 48.75 25.4297 48.75C13.3789 48.75 3.63281 39.0039 3.63281 26.9531C3.63281 20.4492 6.42578 14.707 10.8984 10.7031C12.8125 8.92578 10.4102 6.38672 8.47656 8.08594C3.65234 12.2656 0 19.0234 0 26.9531C0 40.9961 11.3867 52.3828 25.4297 52.3828ZM25.4297 26.6211C26.4648 26.6211 27.168 25.8789 27.168 24.8242L27.168 1.83594C27.168 0.761719 26.4648 0 25.4297 0C24.4141 0 23.7109 0.761719 23.7109 1.83594L23.7109 24.8242C23.7109 25.8789 24.4141 26.6211 25.4297 26.6211Z" fill="black" fill-opacity="0.85"/>
 </g>
</svg>
