<?xml version="1.0" encoding="UTF-8"?>
<!--Generator: Apple Native CoreSVG 326-->
<!DOCTYPE svg
PUBLIC "-//W3C//DTD SVG 1.1//EN"
       "http://www.w3.org/Graphics/SVG/1.1/DTD/svg11.dtd">
<svg version="1.1" xmlns="http://www.w3.org/2000/svg" xmlns:xlink="http://www.w3.org/1999/xlink" viewBox="0 0 46.2891 45.918">
 <g>
  <rect height="45.918" opacity="0" width="46.2891" x="0" y="0"/>
  <path d="M7.59766 45.918L38.3008 45.918C43.3594 45.918 45.918 43.3594 45.918 38.3984L45.918 7.53906C45.918 2.55859 43.3594 0 38.3008 0L7.59766 0C2.55859 0 0 2.53906 0 7.53906L0 38.3984C0 43.3984 2.55859 45.918 7.59766 45.918ZM7.67578 42.4609C4.94141 42.4609 3.45703 41.0156 3.45703 38.2031L3.45703 7.71484C3.45703 4.92188 4.94141 3.45703 7.67578 3.45703L38.2422 3.45703C40.918 3.45703 42.4609 4.92188 42.4609 7.71484L42.4609 38.2031C42.4609 41.0156 40.918 42.4609 38.2422 42.4609Z" fill="black" fill-opacity="0.85"/>
  <path d="M13.4766 34.6875L32.6758 34.6875C33.9844 34.6875 34.9219 33.7305 34.9219 32.4414L34.9219 13.4961C34.9219 12.1875 33.9844 11.25 32.6758 11.25L13.4766 11.25C12.1875 11.25 11.2305 12.1875 11.2305 13.4961L11.2305 32.4414C11.2305 33.7305 12.1875 34.6875 13.4766 34.6875ZM22.5586 21.25C21.9922 21.25 21.6016 20.8984 21.6016 20.332L21.6016 16.1328C21.6016 15.5664 21.9922 15.1953 22.5586 15.1953L23.5938 15.1953C24.1406 15.1953 24.5508 15.5664 24.5508 16.1328L24.5508 20.332C24.5508 20.8984 24.1406 21.25 23.5938 21.25ZM15.8398 30.4297C15.2734 30.4297 14.9023 30.0391 14.9023 29.4922L14.9023 28.418C14.9023 27.8711 15.2734 27.4805 15.8398 27.4805L19.8438 27.4805C20.4102 27.4805 20.7812 27.8711 20.7812 28.418L20.7812 29.4922C20.7812 30.0391 20.4102 30.4297 19.8438 30.4297ZM26.3477 30.4297C25.7812 30.4297 25.3906 30.0391 25.3906 29.4922L25.3906 28.418C25.3906 27.8711 25.7812 27.4805 26.3477 27.4805L30.332 27.4805C30.8984 27.4805 31.2695 27.8711 31.2695 28.418L31.2695 29.4922C31.2695 30.0391 30.8984 30.4297 30.332 30.4297Z" fill="black" fill-opacity="0.85"/>
 </g>
</svg>
