<?xml version="1.0" encoding="UTF-8"?>
<!--Generator: Apple Native CoreSVG 326-->
<!DOCTYPE svg
PUBLIC "-//W3C//DTD SVG 1.1//EN"
       "http://www.w3.org/Graphics/SVG/1.1/DTD/svg11.dtd">
<svg version="1.1" xmlns="http://www.w3.org/2000/svg" xmlns:xlink="http://www.w3.org/1999/xlink" viewBox="0 0 46.2891 45.918">
 <g>
  <rect height="45.918" opacity="0" width="46.2891" x="0" y="0"/>
  <path d="M45.918 7.53906L45.918 38.3984C45.918 43.3594 43.3594 45.918 38.3008 45.918L7.59766 45.918C2.55859 45.918 0 43.3984 0 38.3984L0 7.53906C0 2.53906 2.55859 0 7.59766 0L38.3008 0C43.3594 0 45.918 2.55859 45.918 7.53906ZM14.1406 13.7305C12.7148 13.7305 12.0312 14.2578 11.3672 15.1367L6.66016 21.3867C5.95703 22.3242 5.9375 23.5156 6.64062 24.4336L11.3672 30.7617C12.0312 31.6406 12.9102 32.168 14.1406 32.168L31.7773 32.168C33.0078 32.168 33.8867 31.6406 34.5508 30.7617L39.2578 24.4336C39.9805 23.5156 39.9609 22.3242 39.2578 21.3867L34.5508 15.1367C33.8867 14.2578 33.2031 13.7305 31.7773 13.7305ZM25.3711 26.0547C25.3711 27.3633 24.2773 28.4766 22.9492 28.4766C21.6406 28.4766 20.5273 27.3633 20.5273 26.0547C20.5273 24.7266 21.6406 23.6328 22.9492 23.6328C24.2773 23.6328 25.3711 24.7266 25.3711 26.0547ZM16.1523 22.9492C16.1523 24.2578 15.0586 25.3711 13.7305 25.3711C12.4219 25.3711 11.3086 24.2578 11.3086 22.9492C11.3086 21.6211 12.4219 20.5273 13.7305 20.5273C15.0586 20.5273 16.1523 21.6211 16.1523 22.9492ZM34.5898 22.9492C34.5898 24.2578 33.4961 25.3711 32.168 25.3711C30.8594 25.3711 29.7461 24.2578 29.7461 22.9492C29.7461 21.6211 30.8594 20.5273 32.168 20.5273C33.4961 20.5273 34.5898 21.6211 34.5898 22.9492Z" fill="black" fill-opacity="0.85"/>
 </g>
</svg>
