<?xml version="1.0" encoding="UTF-8"?>
<!--Generator: Apple Native CoreSVG 326-->
<!DOCTYPE svg
PUBLIC "-//W3C//DTD SVG 1.1//EN"
       "http://www.w3.org/Graphics/SVG/1.1/DTD/svg11.dtd">
<svg version="1.1" xmlns="http://www.w3.org/2000/svg" xmlns:xlink="http://www.w3.org/1999/xlink" viewBox="0 0 46.2891 45.918">
 <g>
  <rect height="45.918" opacity="0" width="46.2891" x="0" y="0"/>
  <path d="M45.918 7.53906L45.918 38.3984C45.918 43.3594 43.3594 45.918 38.3008 45.918L7.59766 45.918C2.55859 45.918 0 43.3984 0 38.3984L0 7.53906C0 2.53906 2.55859 0 7.59766 0L38.3008 0C43.3594 0 45.918 2.55859 45.918 7.53906ZM12.8711 10.9375C11.5234 10.9375 10.5664 11.8945 10.5664 13.2227L10.5664 32.6562C10.5664 33.9844 11.5234 34.9609 12.8711 34.9609L33.0469 34.9609C34.375 34.9609 35.3516 33.9844 35.3516 32.6562L35.3516 13.2227C35.3516 11.8945 34.375 10.9375 33.0469 10.9375ZM19.9609 28.3789C19.9609 29.7852 18.8281 30.918 17.4219 30.918C15.9961 30.918 14.8633 29.7852 14.8633 28.3789C14.8633 26.9531 15.9961 25.8203 17.4219 25.8203C18.8281 25.8203 19.9609 26.9531 19.9609 28.3789ZM31.0938 28.3789C31.0938 29.7852 29.9414 30.918 28.5352 30.918C27.1289 30.918 25.9961 29.7852 25.9961 28.3789C25.9961 26.9531 27.1289 25.8203 28.5352 25.8203C29.9414 25.8203 31.0938 26.9531 31.0938 28.3789ZM26.0742 18.0273C26.0742 19.7266 24.6875 21.1133 22.9688 21.1133C21.2695 21.1133 19.8828 19.7266 19.8828 18.0273C19.8828 16.3086 21.2695 14.9414 22.9688 14.9414C24.6875 14.9414 26.0742 16.3086 26.0742 18.0273Z" fill="black" fill-opacity="0.85"/>
 </g>
</svg>
