<?xml version="1.0" encoding="UTF-8"?>
<!--Generator: Apple Native CoreSVG 326-->
<!DOCTYPE svg
PUBLIC "-//W3C//DTD SVG 1.1//EN"
       "http://www.w3.org/Graphics/SVG/1.1/DTD/svg11.dtd">
<svg version="1.1" xmlns="http://www.w3.org/2000/svg" xmlns:xlink="http://www.w3.org/1999/xlink" viewBox="0 0 47.9297 45.957">
 <g>
  <rect height="45.957" opacity="0" width="47.9297" x="0" y="0"/>
  <path d="M47.5586 7.57812L47.5586 38.4375C47.5586 43.418 45.0195 45.957 39.9609 45.957L7.59766 45.957C2.55859 45.957 0 43.4375 0 38.4375L0 7.57812C0 2.57812 2.55859 0.0585938 7.59766 0.0585938L39.9609 0.0585938C45.0195 0.0585938 47.5586 2.59766 47.5586 7.57812ZM19.5703 33.2617L19.5703 36.2891C19.5703 36.9922 19.9219 37.3633 20.6445 37.3633L26.9336 37.3633C27.6562 37.3633 28.0273 36.9922 28.0273 36.2891L28.0273 33.2617C28.0273 30.8984 26.1523 28.9844 23.7891 28.9844C21.4062 28.9844 19.5703 30.8984 19.5703 33.2617ZM12.8516 12.4023L12.8516 20.625C12.8516 21.7969 13.7109 22.6562 14.8438 22.6562C15.9766 22.6562 16.8945 21.7773 16.8945 20.625L16.8945 12.4023C16.8945 11.2695 15.9766 10.332 14.8438 10.332C13.7109 10.332 12.8516 11.2695 12.8516 12.4023ZM30.6641 12.4023L30.6641 20.625C30.6641 21.7969 31.5234 22.6562 32.6562 22.6562C33.8086 22.6562 34.707 21.7773 34.707 20.625L34.707 12.4023C34.707 11.2695 33.8086 10.332 32.6562 10.332C31.5234 10.332 30.6641 11.2695 30.6641 12.4023Z" fill="black" fill-opacity="0.85"/>
 </g>
</svg>
