<?xml version="1.0" encoding="UTF-8"?>
<!--Generator: Apple Native CoreSVG 326-->
<!DOCTYPE svg
PUBLIC "-//W3C//DTD SVG 1.1//EN"
       "http://www.w3.org/Graphics/SVG/1.1/DTD/svg11.dtd">
<svg version="1.1" xmlns="http://www.w3.org/2000/svg" xmlns:xlink="http://www.w3.org/1999/xlink" viewBox="0 0 51.25 50.918">
 <g>
  <rect height="50.918" opacity="0" width="51.25" x="0" y="0"/>
  <path d="M25.4297 50.8789C39.4727 50.8789 50.8789 39.4922 50.8789 25.4492C50.8789 11.4062 39.4727 0 25.4297 0C11.3867 0 0 11.4062 0 25.4492C0 39.4922 11.3867 50.8789 25.4297 50.8789ZM25.4297 47.2461C13.3789 47.2461 3.63281 37.5 3.63281 25.4492C3.63281 13.3984 13.3789 3.65234 25.4297 3.65234C37.4805 3.65234 47.2266 13.3984 47.2266 25.4492C47.2266 37.5 37.4805 47.2461 25.4297 47.2461Z" fill="black" fill-opacity="0.85"/>
  <path d="M25.4297 16.8359C27.207 16.8359 28.6523 15.3906 28.6523 13.6328C28.6523 11.8555 27.207 10.4102 25.4297 10.4102C23.6719 10.4102 22.2266 11.8555 22.2266 13.6328C22.2266 15.3906 23.6719 16.8359 25.4297 16.8359ZM14.3359 30.1367C16.9336 30.1367 19.043 28.0469 19.043 25.4492C19.043 22.8516 16.9336 20.7422 14.3359 20.7422C11.7383 20.7422 9.62891 22.8516 9.62891 25.4492C9.62891 28.0469 11.7383 30.1367 14.3359 30.1367ZM36.543 30.1367C39.1211 30.1367 41.2305 28.0469 41.2305 25.4492C41.2305 22.8516 39.1211 20.7422 36.543 20.7422C33.9453 20.7422 31.8359 22.8516 31.8359 25.4492C31.8359 28.0469 33.9453 30.1367 36.543 30.1367Z" fill="black" fill-opacity="0.85"/>
 </g>
</svg>
