<?xml version="1.0" encoding="UTF-8"?>
<!--Generator: Apple Native CoreSVG 326-->
<!DOCTYPE svg
PUBLIC "-//W3C//DTD SVG 1.1//EN"
       "http://www.w3.org/Graphics/SVG/1.1/DTD/svg11.dtd">
<svg version="1.1" xmlns="http://www.w3.org/2000/svg" xmlns:xlink="http://www.w3.org/1999/xlink" viewBox="0 0 47.9297 45.957">
 <g>
  <rect height="45.957" opacity="0" width="47.9297" x="0" y="0"/>
  <path d="M47.5586 7.57812L47.5586 38.4375C47.5586 43.418 45.0195 45.957 39.9609 45.957L7.59766 45.957C2.55859 45.957 0 43.4375 0 38.4375L0 7.57812C0 2.57812 2.55859 0.0585938 7.59766 0.0585938L39.9609 0.0585938C45.0195 0.0585938 47.5586 2.59766 47.5586 7.57812ZM11.1133 31.8359C11.1133 33.9062 12.8125 35.625 14.8828 35.625C16.9531 35.625 18.6328 33.9062 18.6328 31.8359C18.6328 29.7852 16.9531 28.0859 14.8828 28.0859C12.8125 28.0859 11.1133 29.7852 11.1133 31.8359ZM28.9258 31.8359C28.9258 33.9062 30.625 35.625 32.6953 35.625C34.7461 35.625 36.4453 33.9062 36.4453 31.8359C36.4453 29.7852 34.7461 28.0859 32.6953 28.0859C30.625 28.0859 28.9258 29.7852 28.9258 31.8359ZM19.082 15.0391C19.082 17.6562 21.1914 19.7266 23.7891 19.7266C26.3672 19.7266 28.4766 17.6562 28.4766 15.0391C28.4766 12.4414 26.3672 10.332 23.7891 10.332C21.1914 10.332 19.082 12.4414 19.082 15.0391Z" fill="black" fill-opacity="0.85"/>
 </g>
</svg>
