<?xml version="1.0" encoding="UTF-8"?>
<!--Generator: Apple Native CoreSVG 326-->
<!DOCTYPE svg
PUBLIC "-//W3C//DTD SVG 1.1//EN"
       "http://www.w3.org/Graphics/SVG/1.1/DTD/svg11.dtd">
<svg version="1.1" xmlns="http://www.w3.org/2000/svg" xmlns:xlink="http://www.w3.org/1999/xlink" viewBox="0 0 46.2891 45.918">
 <g>
  <rect height="45.918" opacity="0" width="46.2891" x="0" y="0"/>
  <path d="M45.918 7.53906L45.918 38.3984C45.918 43.3594 43.3594 45.918 38.3008 45.918L7.59766 45.918C2.55859 45.918 0 43.3984 0 38.3984L0 7.53906C0 2.53906 2.55859 0 7.59766 0L38.3008 0C43.3594 0 45.918 2.55859 45.918 7.53906ZM14.8633 11.3086C14.1016 11.3086 13.3984 11.5234 12.8906 11.9922C10.0391 14.6484 8.08594 18.7109 8.08594 22.9688C8.08594 27.207 10.0195 31.2305 12.8516 33.9062C13.3984 34.4141 14.1016 34.6484 14.8633 34.6484L31.0547 34.6484C31.7969 34.6484 32.5195 34.4141 33.0664 33.9062C35.8984 31.2305 37.8125 27.207 37.8125 22.9688C37.8125 18.75 35.8984 14.707 33.0664 12.0508C32.5195 11.5234 31.7969 11.3086 31.0547 11.3086ZM18.0859 18.5547L18.0859 27.3828C18.0859 28.1641 17.4805 28.75 16.7188 28.75C15.957 28.75 15.3711 28.1641 15.3711 27.3828L15.3711 18.5547C15.3711 17.793 15.957 17.1875 16.7188 17.1875C17.4805 17.1875 18.0859 17.793 18.0859 18.5547ZM30.5664 18.5547L30.5664 27.3828C30.5664 28.1641 29.9414 28.75 29.1992 28.75C28.4375 28.75 27.832 28.1641 27.832 27.3828L27.832 18.5547C27.832 17.793 28.4375 17.1875 29.1992 17.1875C29.9414 17.1875 30.5664 17.793 30.5664 18.5547Z" fill="black" fill-opacity="0.85"/>
 </g>
</svg>
