<?xml version="1.0" encoding="UTF-8"?>
<!--Generator: Apple Native CoreSVG 326-->
<!DOCTYPE svg
PUBLIC "-//W3C//DTD SVG 1.1//EN"
       "http://www.w3.org/Graphics/SVG/1.1/DTD/svg11.dtd">
<svg version="1.1" xmlns="http://www.w3.org/2000/svg" xmlns:xlink="http://www.w3.org/1999/xlink" viewBox="0 0 51.25 50.918">
 <g>
  <rect height="50.918" opacity="0" width="51.25" x="0" y="0"/>
  <path d="M25.4297 50.8789C39.4727 50.8789 50.8789 39.4922 50.8789 25.4492C50.8789 11.4062 39.4727 0 25.4297 0C11.3867 0 0 11.4062 0 25.4492C0 39.4922 11.3867 50.8789 25.4297 50.8789ZM25.4297 47.2461C13.3789 47.2461 3.63281 37.5 3.63281 25.4492C3.63281 13.3984 13.3789 3.65234 25.4297 3.65234C37.4805 3.65234 47.2266 13.3984 47.2266 25.4492C47.2266 37.5 37.4805 47.2461 25.4297 47.2461Z" fill="black" fill-opacity="0.85"/>
  <path d="M14.4336 29.1992C17.0312 29.1992 19.1406 27.0898 19.1406 24.4922C19.1406 21.8945 17.0312 19.7852 14.4336 19.7852C11.8359 19.7852 9.72656 21.8945 9.72656 24.4922C9.72656 27.0898 11.8359 29.1992 14.4336 29.1992ZM36.4258 29.1992C39.0234 29.1992 41.1328 27.0898 41.1328 24.4922C41.1328 21.8945 39.0234 19.7852 36.4258 19.7852C33.8477 19.7852 31.7383 21.8945 31.7383 24.4922C31.7383 27.0898 33.8477 29.1992 36.4258 29.1992ZM25.4297 40.8398C28.0273 40.8398 30.1367 38.75 30.1367 36.1523C30.1367 33.5547 28.0273 31.4453 25.4297 31.4453C22.832 31.4453 20.7422 33.5547 20.7422 36.1523C20.7422 38.75 22.832 40.8398 25.4297 40.8398Z" fill="black" fill-opacity="0.85"/>
 </g>
</svg>
