<?xml version="1.0" encoding="UTF-8"?>
<!--Generator: Apple Native CoreSVG 326-->
<!DOCTYPE svg
PUBLIC "-//W3C//DTD SVG 1.1//EN"
       "http://www.w3.org/Graphics/SVG/1.1/DTD/svg11.dtd">
<svg version="1.1" xmlns="http://www.w3.org/2000/svg" xmlns:xlink="http://www.w3.org/1999/xlink" viewBox="0 0 46.2891 45.918">
 <g>
  <rect height="45.918" opacity="0" width="46.2891" x="0" y="0"/>
  <path d="M45.918 7.53906L45.918 38.3984C45.918 43.3594 43.3594 45.918 38.3008 45.918L7.59766 45.918C2.55859 45.918 0 43.3984 0 38.3984L0 7.53906C0 2.53906 2.55859 0 7.59766 0L38.3008 0C43.3594 0 45.918 2.55859 45.918 7.53906ZM12.8711 10.9375C11.5234 10.9375 10.5664 11.8945 10.5664 13.2227L10.5664 32.6562C10.5664 33.9844 11.5234 34.9609 12.8711 34.9609L33.0469 34.9609C34.375 34.9609 35.3516 33.9844 35.3516 32.6562L35.3516 13.2227C35.3516 11.8945 34.375 10.9375 33.0469 10.9375ZM19.9609 28.125C19.9609 29.5312 18.8281 30.6641 17.4219 30.6641C15.9961 30.6641 14.8633 29.5312 14.8633 28.125C14.8633 26.7188 15.9961 25.5664 17.4219 25.5664C18.8281 25.5664 19.9609 26.7188 19.9609 28.125ZM31.0938 28.125C31.0938 29.5312 29.9414 30.6641 28.5352 30.6641C27.1289 30.6641 25.9961 29.5312 25.9961 28.125C25.9961 26.7188 27.1289 25.5664 28.5352 25.5664C29.9414 25.5664 31.0938 26.7188 31.0938 28.125ZM25.5273 17.7539C25.5273 19.1797 24.3945 20.3125 22.9688 20.3125C21.5625 20.3125 20.4297 19.1797 20.4297 17.7539C20.4297 16.3477 21.5625 15.2148 22.9688 15.2148C24.3945 15.2148 25.5273 16.3477 25.5273 17.7539Z" fill="black" fill-opacity="0.85"/>
 </g>
</svg>
