<?xml version="1.0" encoding="UTF-8"?>
<!--Generator: Apple Native CoreSVG 326-->
<!DOCTYPE svg
PUBLIC "-//W3C//DTD SVG 1.1//EN"
       "http://www.w3.org/Graphics/SVG/1.1/DTD/svg11.dtd">
<svg version="1.1" xmlns="http://www.w3.org/2000/svg" xmlns:xlink="http://www.w3.org/1999/xlink" viewBox="0 0 54.043 42.9883">
 <g>
  <rect height="42.9883" opacity="0" width="54.043" x="0" y="0"/>
  <path d="M45.1953 1.81641C50.5273 6.89453 53.6719 14.2578 53.6719 21.4844C53.6719 28.7109 50.5273 36.0547 45.1953 41.1328C43.9648 42.3242 42.3242 42.9297 40.5469 42.9297L13.1055 42.9297C11.3477 42.9297 9.70703 42.3242 8.45703 41.1328C3.125 36.0547 0 28.7109 0 21.4844C0 14.3359 3.08594 7.03125 8.26172 1.97266C9.55078 0.703125 11.2891 0 13.1055 0L40.5469 0C42.3242 0 43.9648 0.644531 45.1953 1.81641ZM14.0234 13.5156L14.0234 29.6875C14.0234 30.8203 14.8633 31.6602 15.9961 31.6602C17.1289 31.6602 18.0469 30.8203 18.0469 29.6875L18.0469 13.5156C18.0469 12.3828 17.1289 11.4648 15.9961 11.4648C14.8633 11.4648 14.0234 12.3828 14.0234 13.5156ZM35.625 13.5352L35.625 29.6289C35.625 30.7617 36.5039 31.6602 37.6367 31.6602C38.7891 31.6602 39.6484 30.7812 39.6484 29.6289L39.6484 13.5352C39.6484 12.3828 38.7891 11.4648 37.6367 11.4648C36.5039 11.4648 35.625 12.3828 35.625 13.5352Z" fill="black" fill-opacity="0.85"/>
 </g>
</svg>
