<?xml version="1.0" encoding="UTF-8"?>
<!--Generator: Apple Native CoreSVG 326-->
<!DOCTYPE svg
PUBLIC "-//W3C//DTD SVG 1.1//EN"
       "http://www.w3.org/Graphics/SVG/1.1/DTD/svg11.dtd">
<svg version="1.1" xmlns="http://www.w3.org/2000/svg" xmlns:xlink="http://www.w3.org/1999/xlink" viewBox="0 0 46.2891 45.918">
 <g>
  <rect height="45.918" opacity="0" width="46.2891" x="0" y="0"/>
  <path d="M7.59766 45.918L38.3008 45.918C43.3594 45.918 45.918 43.3594 45.918 38.3984L45.918 7.53906C45.918 2.55859 43.3594 0 38.3008 0L7.59766 0C2.55859 0 0 2.53906 0 7.53906L0 38.3984C0 43.3984 2.55859 45.918 7.59766 45.918ZM7.67578 42.4609C4.94141 42.4609 3.45703 41.0156 3.45703 38.2031L3.45703 7.71484C3.45703 4.92188 4.94141 3.45703 7.67578 3.45703L38.2422 3.45703C40.918 3.45703 42.4609 4.92188 42.4609 7.71484L42.4609 38.2031C42.4609 41.0156 40.918 42.4609 38.2422 42.4609Z" fill="black" fill-opacity="0.85"/>
  <path d="M13.1055 34.668L32.8125 34.668C34.1016 34.668 35.0391 33.7109 35.0391 32.4219L35.0391 13.4766C35.0391 12.168 34.1016 11.2305 32.8125 11.2305L13.1055 11.2305C11.8164 11.2305 10.8594 12.168 10.8594 13.4766L10.8594 32.4219C10.8594 33.7109 11.8164 34.668 13.1055 34.668ZM22.9688 21.1914C21.6016 21.1914 20.4883 20.0781 20.4883 18.7109C20.4883 17.3242 21.6016 16.2305 22.9688 16.2305C24.3555 16.2305 25.4688 17.3242 25.4688 18.7109C25.4688 20.0781 24.3555 21.1914 22.9688 21.1914ZM17.5586 29.6484C16.1719 29.6484 15.0586 28.5547 15.0586 27.1875C15.0586 25.8008 16.1719 24.6875 17.5586 24.6875C18.9258 24.6875 20.0391 25.8008 20.0391 27.1875C20.0391 28.5547 18.9258 29.6484 17.5586 29.6484ZM28.3984 29.6484C27.0312 29.6484 25.918 28.5547 25.918 27.1875C25.918 25.8008 27.0312 24.6875 28.3984 24.6875C29.7656 24.6875 30.8984 25.8008 30.8984 27.1875C30.8984 28.5547 29.7656 29.6484 28.3984 29.6484Z" fill="black" fill-opacity="0.85"/>
 </g>
</svg>
