<?xml version="1.0" encoding="UTF-8"?>
<!--Generator: Apple Native CoreSVG 326-->
<!DOCTYPE svg
PUBLIC "-//W3C//DTD SVG 1.1//EN"
       "http://www.w3.org/Graphics/SVG/1.1/DTD/svg11.dtd">
<svg version="1.1" xmlns="http://www.w3.org/2000/svg" xmlns:xlink="http://www.w3.org/1999/xlink" viewBox="0 0 62.5391 60.6055">
 <g>
  <rect height="60.6055" opacity="0" width="62.5391" x="0" y="0"/>
  <path d="M49.3771 9.90234L13.0461 9.90234C13.2318 5.63601 15.6815 3.73047 19.7852 3.73047L42.6367 3.73047C46.9277 3.73047 49.2053 5.63601 49.3771 9.90234Z" fill="black" fill-opacity="0.85"/>
  <path d="M59.043 20.0977L59.043 41.1719C59.043 45.8789 56.582 48.2422 51.875 48.2422L50.7031 48.2422L50.7031 33.6523C50.7031 30.3906 48.2422 27.9492 44.9805 27.9492L17.207 27.9492C13.9258 27.9492 11.4844 30.3906 11.4844 33.6523L11.4844 48.2422L10.293 48.2422C5.58594 48.2422 3.125 45.8789 3.125 41.1719L3.125 20.0977C3.125 15.3711 5.78125 13.0078 10.293 13.0078L51.875 13.0078C56.582 13.0078 59.043 15.3711 59.043 20.0977ZM43.1641 21.0156C43.1641 22.7734 44.5898 24.1602 46.3281 24.1602C48.0273 24.1602 49.4727 22.7344 49.4727 21.0156C49.4727 19.3164 48.0273 17.8711 46.3281 17.8711C44.5898 17.8711 43.1641 19.3164 43.1641 21.0156Z" fill="black" fill-opacity="0.85"/>
  <path d="M14.6094 54.082C14.6094 56.1328 15.957 57.4805 18.0078 57.4805L44.1797 57.4805C46.2109 57.4805 47.5781 56.1328 47.5781 54.082L47.5781 33.6523C47.5781 32.0898 46.543 31.0547 44.9805 31.0547L17.207 31.0547C15.6445 31.0547 14.6094 32.0898 14.6094 33.6523ZM22.7539 41.1719C21.9336 41.1719 21.3281 40.5469 21.3281 39.7461C21.3281 38.9648 21.9336 38.3594 22.7539 38.3594L39.4727 38.3594C40.2734 38.3594 40.8789 38.9648 40.8789 39.7461C40.8789 40.5469 40.2734 41.1719 39.4727 41.1719ZM22.7539 50.1758C21.9336 50.1758 21.3281 49.5703 21.3281 48.8086C21.3281 47.9883 21.9336 47.3633 22.7539 47.3633L39.4727 47.3633C40.2734 47.3633 40.8789 47.9883 40.8789 48.8086C40.8789 49.5703 40.2734 50.1758 39.4727 50.1758Z" fill="black" fill-opacity="0.85"/>
 </g>
</svg>
