<?xml version="1.0" encoding="UTF-8"?>
<!--Generator: Apple Native CoreSVG 326-->
<!DOCTYPE svg
PUBLIC "-//W3C//DTD SVG 1.1//EN"
       "http://www.w3.org/Graphics/SVG/1.1/DTD/svg11.dtd">
<svg version="1.1" xmlns="http://www.w3.org/2000/svg" xmlns:xlink="http://www.w3.org/1999/xlink" viewBox="0 0 62.5391 60.6055">
 <g>
  <rect height="60.6055" opacity="0" width="62.5391" x="0" y="0"/>
  <path d="M49.1602 9.14062L49.1602 9.90234L13.0273 9.90234L13.0273 9.14062C13.0273 5.41016 15.8008 3.73047 19.668 3.73047L42.5195 3.73047C46.543 3.73047 49.1602 5.41016 49.1602 9.14062Z" fill="black" fill-opacity="0.85"/>
  <path d="M59.043 20.0977L59.043 41.1719C59.043 45.8789 56.582 48.2422 51.875 48.2422L50.7031 48.2422L50.7031 33.6523C50.7031 30.3906 48.2422 27.9492 44.9805 27.9492L17.207 27.9492C13.9258 27.9492 11.4844 30.3906 11.4844 33.6523L11.4844 48.2422L10.293 48.2422C5.58594 48.2422 3.125 45.8789 3.125 41.1719L3.125 20.0977C3.125 15.3711 5.78125 13.0078 10.293 13.0078L51.875 13.0078C56.582 13.0078 59.043 15.3711 59.043 20.0977ZM43.1641 21.0156C43.1641 22.7734 44.5898 24.1602 46.3281 24.1602C48.0273 24.1602 49.4727 22.7344 49.4727 21.0156C49.4727 19.3164 48.0273 17.8711 46.3281 17.8711C44.5898 17.8711 43.1641 19.3164 43.1641 21.0156Z" fill="black" fill-opacity="0.85"/>
  <path d="M14.6094 54.082C14.6094 56.1328 15.957 57.4805 18.0078 57.4805L44.1797 57.4805C46.2109 57.4805 47.5781 56.1328 47.5781 54.082L47.5781 33.6523C47.5781 32.0898 46.543 31.0547 44.9805 31.0547L17.207 31.0547C15.6445 31.0547 14.6094 32.0898 14.6094 33.6523ZM23.1445 53.6719C21.9531 53.6719 20.957 52.7148 20.957 51.4844C20.957 50.2539 21.9531 49.2969 23.1445 49.2969C24.375 49.2969 25.3711 50.2539 25.3711 51.4844C25.3711 52.7148 24.375 53.6719 23.1445 53.6719ZM23.1445 46.4648C21.9531 46.4648 20.957 45.5078 20.957 44.2773C20.957 43.0469 21.9531 42.0898 23.1445 42.0898C24.375 42.0898 25.3711 43.0469 25.3711 44.2773C25.3711 45.5078 24.375 46.4648 23.1445 46.4648ZM23.1445 39.2383C21.9531 39.2383 20.957 38.2812 20.957 37.0508C20.957 35.8203 21.9531 34.8633 23.1445 34.8633C24.375 34.8633 25.3711 35.8203 25.3711 37.0508C25.3711 38.2812 24.375 39.2383 23.1445 39.2383ZM39.043 53.6719C37.8516 53.6719 36.8555 52.7148 36.8555 51.4844C36.8555 50.2539 37.8516 49.2969 39.043 49.2969C40.2734 49.2969 41.2695 50.2539 41.2695 51.4844C41.2695 52.7148 40.2734 53.6719 39.043 53.6719ZM39.043 46.4648C37.8516 46.4648 36.8555 45.5078 36.8555 44.2773C36.8555 43.0469 37.8516 42.0898 39.043 42.0898C40.2734 42.0898 41.2695 43.0469 41.2695 44.2773C41.2695 45.5078 40.2734 46.4648 39.043 46.4648ZM39.043 39.2383C37.8516 39.2383 36.8555 38.2812 36.8555 37.0508C36.8555 35.8203 37.8516 34.8633 39.043 34.8633C40.2734 34.8633 41.2695 35.8203 41.2695 37.0508C41.2695 38.2812 40.2734 39.2383 39.043 39.2383Z" fill="black" fill-opacity="0.85"/>
 </g>
</svg>
