<?xml version="1.0" encoding="UTF-8"?>
<!--Generator: Apple Native CoreSVG 326-->
<!DOCTYPE svg
PUBLIC "-//W3C//DTD SVG 1.1//EN"
       "http://www.w3.org/Graphics/SVG/1.1/DTD/svg11.dtd">
<svg version="1.1" xmlns="http://www.w3.org/2000/svg" xmlns:xlink="http://www.w3.org/1999/xlink" viewBox="0 0 54.4922 54.3555">
 <g>
  <rect height="54.3555" opacity="0" width="54.4922" x="0" y="0"/>
  <path d="M19.0039 19.0039C19.7266 18.2617 19.7266 17.0312 19.0039 16.3086L10.5859 7.92969C9.88281 7.20703 8.65234 7.20703 7.92969 7.92969C7.20703 8.65234 7.20703 9.86328 7.92969 10.5859L16.3086 19.0039C17.0312 19.707 18.2422 19.7461 19.0039 19.0039Z" fill="black" fill-opacity="0.85"/>
  <path d="M15.6445 27.0703C15.6445 26.0352 14.7852 25.1758 13.75 25.1758L1.89453 25.1758C0.859375 25.1758 0 26.0352 0 27.0703C0 28.0859 0.859375 28.9453 1.89453 28.9453L13.75 28.9453C14.7656 28.9453 15.6445 28.125 15.6445 27.0703Z" fill="black" fill-opacity="0.85"/>
  <path d="M19.0039 35.1367C18.2617 34.3945 17.0312 34.4141 16.3086 35.1367L7.92969 43.5352C7.20703 44.2578 7.20703 45.4688 7.92969 46.1914C8.65234 46.9141 9.86328 46.9336 10.5859 46.1914L19.0039 37.8125C19.707 37.1094 19.7461 35.8984 19.0039 35.1367Z" fill="black" fill-opacity="0.85"/>
  <path d="M27.0703 38.4961C26.0547 38.4961 25.1758 39.3555 25.1758 40.3906L25.1758 52.2461C25.1758 53.2617 26.0352 54.1211 27.0703 54.1211C28.0859 54.1211 28.9453 53.2812 28.9453 52.2461L28.9453 40.3906C28.9453 39.3555 28.0859 38.4961 27.0703 38.4961Z" fill="black" fill-opacity="0.85"/>
  <path d="M35.1367 35.1367C34.3945 35.8984 34.4141 37.1094 35.1367 37.8125L43.5352 46.1914C44.2578 46.9336 45.4883 46.9141 46.1914 46.1914C46.9336 45.4688 46.9141 44.2578 46.1914 43.5352L37.8125 35.1367C37.0898 34.4141 35.8789 34.3945 35.1367 35.1367Z" fill="black" fill-opacity="0.85"/>
  <path d="M38.4766 27.0703C38.4766 28.125 39.3555 28.9453 40.3906 28.9453L52.2461 28.9453C53.2812 28.9453 54.1211 28.0859 54.1211 27.0703C54.1211 26.0352 53.2617 25.1758 52.2461 25.1758L40.3906 25.1758C39.3555 25.1758 38.4766 26.0352 38.4766 27.0703Z" fill="black" fill-opacity="0.85"/>
  <path d="M35.1367 19.0039C35.8984 19.7461 37.1094 19.707 37.8125 19.0039L46.1914 10.5859C46.9336 9.86328 46.9141 8.65234 46.1914 7.92969C45.4688 7.20703 44.2578 7.20703 43.5352 7.92969L35.1367 16.3086C34.4141 17.0312 34.3945 18.2617 35.1367 19.0039Z" fill="black" fill-opacity="0.85"/>
  <path d="M27.0703 15.625C28.0859 15.625 28.9453 14.7656 28.9453 13.75L28.9453 1.89453C28.9453 0.859375 28.0859 0 27.0703 0C26.0352 0 25.1758 0.859375 25.1758 1.89453L25.1758 13.75C25.1758 14.7852 26.0547 15.625 27.0703 15.625Z" fill="black" fill-opacity="0.85"/>
 </g>
</svg>
