<?xml version="1.0" encoding="UTF-8"?>
<!--Generator: Apple Native CoreSVG 326-->
<!DOCTYPE svg
PUBLIC "-//W3C//DTD SVG 1.1//EN"
       "http://www.w3.org/Graphics/SVG/1.1/DTD/svg11.dtd">
<svg version="1.1" xmlns="http://www.w3.org/2000/svg" xmlns:xlink="http://www.w3.org/1999/xlink" viewBox="0 0 43.0273 46.4258">
 <g>
  <rect height="46.4258" opacity="0" width="43.0273" x="0" y="0"/>
  <path d="M1.95312 27.8125C2.48047 27.8125 2.94922 27.6367 3.32031 27.2656L22.6953 7.10938L19.9805 7.10938L39.3164 27.2656C39.6875 27.6172 40.1758 27.8125 40.7031 27.8125C41.8359 27.8125 42.6562 26.9727 42.6562 25.8594C42.6562 25.3125 42.4414 24.8828 42.0703 24.4922L22.8125 4.41406C22.4023 4.00391 21.9141 3.75 21.3281 3.75C20.7617 3.75 20.2734 4.00391 19.8438 4.41406L0.585938 24.4727C0.214844 24.8828 0 25.3125 0 25.8594C0 26.9727 0.839844 27.8125 1.95312 27.8125ZM2.59766 3.82812L40 3.82812C41.1133 3.82812 41.8945 3.00781 41.8945 1.91406C41.8945 0.800781 41.1133 0 40 0L2.59766 0C1.52344 0 0.761719 0.800781 0.761719 1.91406C0.761719 3.00781 1.52344 3.82812 2.59766 3.82812Z" fill="black" fill-opacity="0.85"/>
 </g>
</svg>
