<?xml version="1.0" encoding="UTF-8"?>
<!--Generator: Apple Native CoreSVG 326-->
<!DOCTYPE svg
PUBLIC "-//W3C//DTD SVG 1.1//EN"
       "http://www.w3.org/Graphics/SVG/1.1/DTD/svg11.dtd">
<svg version="1.1" xmlns="http://www.w3.org/2000/svg" xmlns:xlink="http://www.w3.org/1999/xlink" viewBox="0 0 51.25 50.918">
 <g>
  <rect height="50.918" opacity="0" width="51.25" x="0" y="0"/>
  <path d="M25.4297 50.8789C39.4727 50.8789 50.8789 39.4922 50.8789 25.4492C50.8789 11.4062 39.4727 0 25.4297 0C11.3867 0 0 11.4062 0 25.4492C0 39.4922 11.3867 50.8789 25.4297 50.8789ZM25.4297 47.2461C13.3789 47.2461 3.63281 37.5 3.63281 25.4492C3.63281 13.3984 13.3789 3.65234 25.4297 3.65234C37.4805 3.65234 47.2266 13.3984 47.2266 25.4492C47.2266 37.5 37.4805 47.2461 25.4297 47.2461Z" fill="black" fill-opacity="0.85"/>
  <path d="M14.5508 32.4023C14.5508 32.7344 14.7266 33.125 15 33.3984L19.9219 38.3008C20.4102 38.75 20.918 38.9844 21.4062 38.9844C21.9336 38.9844 22.4219 38.7695 22.8906 38.3008L27.832 33.3789C28.125 33.0664 28.2617 32.7344 28.2617 32.4023C28.2617 31.6797 27.7148 31.0938 26.9922 31.0938C26.5625 31.0938 26.25 31.25 25.957 31.543L24.6484 32.8711L22.6758 35.0586L22.793 30.8008L22.793 20.625C22.793 16.6602 24.7461 14.3945 28.2227 14.3945C31.4844 14.3945 33.6523 16.6602 33.6328 20C33.6133 23.2422 31.5234 25.4492 28.457 25.4492C27.6562 25.4492 27.3047 25.2539 26.8359 25.2539C26.1523 25.2539 25.625 25.7422 25.625 26.4062C25.625 26.7969 25.7617 27.1484 26.0352 27.4023C26.5234 27.8516 27.4219 28.1055 28.3789 28.1055C33.1445 28.1055 36.3086 24.8633 36.3086 20C36.3086 15.0195 33.0273 11.6797 28.2227 11.6797C23.2227 11.6797 20.0195 15.0781 20.0195 20.4297L20.0195 30.8203L20.1367 35.0586L18.1836 32.8906L16.875 31.5625C16.5625 31.25 16.2109 31.0938 15.8203 31.0938C15.1172 31.0938 14.5508 31.6797 14.5508 32.4023Z" fill="black" fill-opacity="0.85"/>
 </g>
</svg>
