<?xml version="1.0" encoding="UTF-8"?>
<!--Generator: Apple Native CoreSVG 326-->
<!DOCTYPE svg
PUBLIC "-//W3C//DTD SVG 1.1//EN"
       "http://www.w3.org/Graphics/SVG/1.1/DTD/svg11.dtd">
<svg version="1.1" xmlns="http://www.w3.org/2000/svg" xmlns:xlink="http://www.w3.org/1999/xlink" viewBox="0 0 36.4062 47.6367">
 <g>
  <rect height="47.6367" opacity="0" width="36.4062" x="0" y="0"/>
  <path d="M0 36.9336C0 37.4609 0.214844 37.9102 0.585938 38.2617L8.94531 46.6211C9.62891 47.3047 10.3906 47.6367 11.1523 47.6367C11.9141 47.6367 12.6562 47.2852 13.3398 46.6211L21.7188 38.2422C22.0898 37.8711 22.3047 37.4023 22.3047 36.9141C22.3047 35.9375 21.543 35.1953 20.6641 35.1953C20.0195 35.1953 19.5898 35.4297 19.2578 35.7812L16.9922 38.0469L12.7734 42.7148L12.9883 34.1797L12.9883 14.8828C12.9883 8.20312 16.7188 3.78906 22.7539 3.78906C28.4766 3.78906 32.4219 7.79297 32.4219 13.8086C32.4219 19.5312 28.5938 23.5547 23.2031 23.5547C21.3281 23.5547 20.8984 23.1055 20.0781 23.1055C19.1406 23.1055 18.3984 23.7305 18.3984 24.6875C18.3984 25.332 18.7305 25.8203 19.1992 26.2109C20.0781 26.9141 21.6797 27.207 23.0859 27.207C30.918 27.207 36.0352 21.6992 36.0352 13.8086C36.0352 5.60547 30.6445 0.136719 22.7539 0.136719C14.7266 0.136719 9.29688 5.56641 9.29688 15.0195L9.29688 34.1992L9.49219 42.7148L5.3125 38.0664L3.04688 35.8008C2.69531 35.4492 2.28516 35.2148 1.64062 35.2148C0.761719 35.2148 0 35.957 0 36.9336Z" fill="black" fill-opacity="0.85"/>
 </g>
</svg>
