<?xml version="1.0" encoding="UTF-8"?>
<!--Generator: Apple Native CoreSVG 326-->
<!DOCTYPE svg
PUBLIC "-//W3C//DTD SVG 1.1//EN"
       "http://www.w3.org/Graphics/SVG/1.1/DTD/svg11.dtd">
<svg version="1.1" xmlns="http://www.w3.org/2000/svg" xmlns:xlink="http://www.w3.org/1999/xlink" viewBox="0 0 61.4648 48.2227">
 <g>
  <rect height="48.2227" opacity="0" width="61.4648" x="0" y="0"/>
  <path d="M1.54297 41.0547C1.54297 45.625 4.02344 48.125 8.59375 48.125L40.2734 48.125C44.8828 48.125 47.4023 45.6641 47.4023 41.1328L47.4023 30.3516C47.4023 29.8047 47.832 29.5312 48.3789 29.9609C49.7656 30.9961 51.4062 32.0117 53.8281 32.0117C58.1836 32.0117 61.4648 28.6719 61.4648 24.2383C61.4648 19.7852 58.1836 16.4648 53.8281 16.4648C51.4062 16.4648 49.7656 17.4609 48.3789 18.5156C47.832 18.9258 47.4023 18.6523 47.4023 18.1055L47.4023 6.99219C47.4023 2.46094 44.8828 0 40.2734 0L8.59375 0C4.02344 0 1.54297 2.5 1.54297 7.07031L1.54297 18.0859C1.54297 19.668 2.71484 20.7227 4.16016 20.7227C4.92188 20.7227 5.74219 20.3906 6.50391 19.6875C7.75391 18.5352 9.21875 17.2266 11.9922 17.2266C15.8203 17.2266 18.7305 20.1953 18.7305 24.1016C18.7305 28.0078 15.8203 30.957 11.9922 30.957C9.21875 30.957 7.75391 29.6484 6.50391 28.4961C5.74219 27.793 4.92188 27.4609 4.16016 27.4609C2.71484 27.4609 1.54297 28.5156 1.54297 30.0977Z" fill="black" fill-opacity="0.85"/>
 </g>
</svg>
