<?xml version="1.0" encoding="UTF-8"?>
<!--Generator: Apple Native CoreSVG 326-->
<!DOCTYPE svg
PUBLIC "-//W3C//DTD SVG 1.1//EN"
       "http://www.w3.org/Graphics/SVG/1.1/DTD/svg11.dtd">
<svg version="1.1" xmlns="http://www.w3.org/2000/svg" xmlns:xlink="http://www.w3.org/1999/xlink" viewBox="0 0 74.0234 48.2227">
 <g>
  <rect height="48.2227" opacity="0" width="74.0234" x="0" y="0"/>
  <path d="M22.5781 48.125L31.0156 48.125C32.9492 48.125 34.1992 46.875 34.1992 45.2539C34.1992 44.375 33.8281 43.4961 33.0078 42.5781C31.875 41.2891 31.1133 39.8828 31.1133 38.2227C31.1133 35.0586 33.3203 32.6758 36.8164 32.6758C40.332 32.6758 42.5195 35.0586 42.5195 38.2227C42.5195 39.8828 41.7773 41.2891 40.625 42.5781C39.8047 43.4961 39.4531 44.375 39.4531 45.2539C39.4531 46.875 40.7031 48.125 42.6172 48.125L51.0547 48.125C55.7422 48.125 58.3008 45.6055 58.3008 40.9961L58.3008 31.6602C58.3008 31.1914 58.6523 30.9375 59.1602 31.2891C60.7227 32.4023 62.5195 33.3789 64.9023 33.3789C69.6289 33.3789 73.6523 29.6875 73.6523 24.2383C73.6523 18.7891 69.6289 15.0977 64.9023 15.0977C62.5195 15.0977 60.7227 16.0742 59.1602 17.168C58.6523 17.5391 58.3008 17.2852 58.3008 16.8164L58.3008 7.12891C58.3008 2.51953 55.7422 0 51.0547 0L42.6172 0C40.7031 0 39.4531 1.25 39.4531 2.87109C39.4531 3.75 39.8047 4.62891 40.625 5.54688C41.7773 6.83594 42.5195 8.24219 42.5195 9.90234C42.5195 12.9883 40.2539 15.4492 36.8164 15.4492C33.3984 15.4492 31.1133 12.9883 31.1133 9.90234C31.1133 8.24219 31.875 6.83594 33.0078 5.54688C33.8281 4.62891 34.1992 3.75 34.1992 2.87109C34.1992 1.25 32.9492 0 31.0156 0L22.5781 0C17.8906 0 15.3516 2.51953 15.3516 7.12891L15.3516 16.8164C15.3516 17.2852 15 17.5391 14.4922 17.168C12.9297 16.0742 11.1328 15.0977 8.75 15.0977C4.02344 15.0977 0 18.7891 0 24.2383C0 29.6875 4.02344 33.3789 8.75 33.3789C11.1328 33.3789 12.9297 32.4023 14.4922 31.2891C15 30.9375 15.3516 31.1914 15.3516 31.6602L15.3516 40.9961C15.3516 45.6055 17.8906 48.125 22.5781 48.125ZM22.6562 44.6484C20.2539 44.6484 18.8086 43.2617 18.8086 40.8398L18.8086 30.0391C18.8086 28.1055 17.5586 26.8555 15.9375 26.8555C15.0586 26.8555 14.1797 27.2266 13.2617 28.0469C11.9727 29.1992 10.5664 29.9414 8.90625 29.9414C5.82031 29.9414 3.35938 27.6758 3.35938 24.2383C3.35938 20.8008 5.82031 18.5352 8.90625 18.5352C10.5664 18.5352 11.9727 19.2773 13.2617 20.4297C14.1797 21.25 15.0586 21.6211 15.9375 21.6211C17.5586 21.6211 18.8086 20.3711 18.8086 18.4375L18.8086 7.28516C18.8086 4.86328 20.2539 3.47656 22.6562 3.47656L29.0625 3.47656C30.1367 3.47656 29.9414 4.0625 29.5898 4.58984C28.5938 6.11328 27.6758 7.77344 27.6758 10.0586C27.6758 14.7852 31.3672 18.8086 36.8164 18.8086C42.2656 18.8086 45.957 14.7852 45.957 10.0586C45.957 7.77344 45.0586 6.11328 44.0625 4.58984C43.7109 4.0625 43.4961 3.47656 44.5898 3.47656L50.9961 3.47656C53.3789 3.47656 54.8438 4.86328 54.8438 7.28516L54.8438 18.4375C54.8438 20.3711 56.0938 21.6211 57.7148 21.6211C58.5742 21.6211 59.4727 21.25 60.3906 20.4297C61.6797 19.2773 63.0859 18.5352 64.7461 18.5352C67.832 18.5352 70.293 20.8008 70.293 24.2383C70.293 27.6758 67.832 29.9414 64.7461 29.9414C63.0859 29.9414 61.6797 29.1992 60.3906 28.0469C59.4727 27.2266 58.5742 26.8555 57.7148 26.8555C56.0938 26.8555 54.8438 28.1055 54.8438 30.0391L54.8438 40.8398C54.8438 43.2617 53.3789 44.6484 50.9961 44.6484L44.5898 44.6484C43.4961 44.6484 43.7109 44.0625 44.0625 43.5352C45.0586 42.0312 45.957 40.3516 45.957 38.0664C45.957 33.2422 42.3633 29.3164 36.8164 29.3164C31.2891 29.3164 27.6758 33.2422 27.6758 38.0664C27.6758 40.3516 28.5938 42.0312 29.5898 43.5352C29.9414 44.0625 30.1367 44.6484 29.0625 44.6484Z" fill="black" fill-opacity="0.85"/>
 </g>
</svg>
