<?xml version="1.0" encoding="UTF-8"?>
<!--Generator: Apple Native CoreSVG 326-->
<!DOCTYPE svg
PUBLIC "-//W3C//DTD SVG 1.1//EN"
       "http://www.w3.org/Graphics/SVG/1.1/DTD/svg11.dtd">
<svg version="1.1" xmlns="http://www.w3.org/2000/svg" xmlns:xlink="http://www.w3.org/1999/xlink" viewBox="0 0 51.2681 57.969">
 <g>
  <rect height="57.969" opacity="0" width="51.2681" x="0" y="0"/>
  <path d="M0.624276 43.0177C-0.547599 45.088-0.0788491 47.3146 2.10865 48.2716L23.3977 57.4903C24.843 58.1349 25.9954 58.1349 27.5579 57.4513L48.8079 48.2716C50.9758 47.3146 51.4641 45.088 50.2727 43.0177L27.7141 3.70128C27.0696 2.588 26.2688 2.31456 25.4485 2.31456C24.6477 2.31456 23.8274 2.588 23.2024 3.70128ZM4.08131 43.7403L24.9212 7.588C25.0579 7.37315 25.2337 7.25597 25.4485 7.25597C25.6829 7.25597 25.8587 7.37315 25.9758 7.588L46.8157 43.7403C47.304 44.5997 47.011 45.381 46.1907 45.7521L26.8547 54.463C25.7415 54.9513 25.1751 54.9513 24.1594 54.5021L4.70631 45.7521C3.88599 45.381 3.59303 44.5997 4.08131 43.7403ZM23.8274 56.3966L27.0891 56.3966L27.0891 5.49815L23.8274 5.49815Z" fill="black" fill-opacity="0.85"/>
 </g>
</svg>
