<?xml version="1.0" encoding="UTF-8"?>
<!--Generator: Apple Native CoreSVG 326-->
<!DOCTYPE svg
PUBLIC "-//W3C//DTD SVG 1.1//EN"
       "http://www.w3.org/Graphics/SVG/1.1/DTD/svg11.dtd">
<svg version="1.1" xmlns="http://www.w3.org/2000/svg" xmlns:xlink="http://www.w3.org/1999/xlink" viewBox="0 0 51.25 50.918">
 <g>
  <rect height="50.918" opacity="0" width="51.25" x="0" y="0"/>
  <path d="M50.8789 25.4492C50.8789 39.4531 39.4531 50.8789 25.4297 50.8789C11.4258 50.8789 0 39.4531 0 25.4492C0 11.4258 11.4258 0 25.4297 0C39.4531 0 50.8789 11.4258 50.8789 25.4492ZM14.4336 25.2344C14.4336 32.4609 18.9062 37.4805 25.4297 37.4805C26.9531 37.4805 28.3789 37.207 29.6289 36.6992L31.5234 39.2773C31.9727 39.8633 32.3828 40.0977 32.9297 40.0977C33.7305 40.0977 34.2773 39.5312 34.2773 38.75C34.2773 38.3594 34.1602 38.0664 33.7305 37.5195L32.0703 35.2539C34.7852 33.1445 36.4258 29.6094 36.4258 25.2344C36.4258 18.0273 31.9531 13.0273 25.4297 13.0273C18.9062 13.0273 14.4336 18.0273 14.4336 25.2344ZM32.8516 25.2344C32.8516 28.4766 31.8945 31.0742 30.1562 32.6758L28.4375 30.3516C28.0859 29.8828 27.7344 29.707 27.207 29.707C26.4648 29.707 25.8594 30.2539 25.8594 30.9961C25.8594 31.3672 25.9766 31.7188 26.3086 32.1289L27.8125 34.2383C27.1094 34.4922 26.3281 34.6289 25.4297 34.6289C20.957 34.6289 18.0078 30.918 18.0078 25.2344C18.0078 19.6094 20.957 15.8984 25.4297 15.8984C29.9023 15.8984 32.8516 19.6094 32.8516 25.2344Z" fill="black" fill-opacity="0.85"/>
 </g>
</svg>
