<?xml version="1.0" encoding="UTF-8"?>
<!--Generator: Apple Native CoreSVG 326-->
<!DOCTYPE svg
PUBLIC "-//W3C//DTD SVG 1.1//EN"
       "http://www.w3.org/Graphics/SVG/1.1/DTD/svg11.dtd">
<svg version="1.1" xmlns="http://www.w3.org/2000/svg" xmlns:xlink="http://www.w3.org/1999/xlink" viewBox="0 0 51.25 50.918">
 <g>
  <rect height="50.918" opacity="0" width="51.25" x="0" y="0"/>
  <path d="M25.4297 50.8789C39.4727 50.8789 50.8789 39.4922 50.8789 25.4492C50.8789 11.4062 39.4727 0 25.4297 0C11.3867 0 0 11.4062 0 25.4492C0 39.4922 11.3867 50.8789 25.4297 50.8789ZM25.4297 47.2461C13.3789 47.2461 3.63281 37.5 3.63281 25.4492C3.63281 13.3984 13.3789 3.65234 25.4297 3.65234C37.4805 3.65234 47.2266 13.3984 47.2266 25.4492C47.2266 37.5 37.4805 47.2461 25.4297 47.2461Z" fill="black" fill-opacity="0.85"/>
  <path d="M25.4102 37.1875C26.8945 37.1875 28.2812 36.9336 29.5117 36.4258L31.3672 38.9648C31.7969 39.5312 32.207 39.7266 32.7344 39.7266C33.4961 39.7266 34.043 39.1992 34.043 38.4375C34.043 38.0469 33.9258 37.7734 33.4961 37.2266L31.875 35.0195C34.5312 32.9688 36.1328 29.5117 36.1328 25.2539C36.1328 18.2422 31.7773 13.3398 25.4102 13.3398C19.043 13.3398 14.6875 18.2422 14.6875 25.2539C14.6875 32.3047 19.043 37.1875 25.4102 37.1875ZM25.4102 34.4141C21.0352 34.4141 18.1445 30.8008 18.1445 25.2539C18.1445 19.7461 21.0352 16.1133 25.4102 16.1133C29.7852 16.1133 32.6758 19.7461 32.6758 25.2539C32.6758 28.418 31.7383 30.9766 30.0195 32.5391L28.3398 30.2539C27.9883 29.7852 27.6562 29.6094 27.1484 29.6094C26.4258 29.6094 25.8398 30.1562 25.8398 30.8789C25.8398 31.2305 25.957 31.5625 26.2695 31.9727L27.7539 34.043C27.0703 34.2969 26.2891 34.4141 25.4102 34.4141Z" fill="black" fill-opacity="0.85"/>
 </g>
</svg>
