<?xml version="1.0" encoding="UTF-8"?>
<!--Generator: Apple Native CoreSVG 326-->
<!DOCTYPE svg
PUBLIC "-//W3C//DTD SVG 1.1//EN"
       "http://www.w3.org/Graphics/SVG/1.1/DTD/svg11.dtd">
<svg version="1.1" xmlns="http://www.w3.org/2000/svg" xmlns:xlink="http://www.w3.org/1999/xlink" viewBox="0 0 46.2891 45.918">
 <g>
  <rect height="45.918" opacity="0" width="46.2891" x="0" y="0"/>
  <path d="M45.918 7.53906L45.918 38.3984C45.918 43.3594 43.3594 45.918 38.3008 45.918L7.59766 45.918C2.55859 45.918 0 43.3984 0 38.3984L0 7.53906C0 2.53906 2.55859 0 7.59766 0L38.3008 0C43.3594 0 45.918 2.55859 45.918 7.53906ZM19.8633 33.2812C19.8633 34.6289 21.0352 35.7422 22.4219 35.7422C23.7891 35.7422 24.9805 34.6484 24.9805 33.2812C24.9805 31.8945 23.8086 30.8008 22.4219 30.8008C21.0156 30.8008 19.8633 31.9141 19.8633 33.2812ZM15.4102 14.6484C15.3125 15.0391 15.2344 15.4297 15.2344 15.8594C15.2344 16.8555 16.0156 17.4219 16.7773 17.4219C17.5586 17.4219 18.0664 17.0312 18.4375 16.4648L18.8086 15.918C19.5312 14.2383 21.0547 13.1055 23.0664 13.1055C25.5859 13.1055 27.2266 14.5117 27.2266 16.5625C27.2266 18.3203 26.1914 19.2383 23.8672 20.8594C21.9531 22.207 20.6836 23.5547 20.6836 25.9961C20.6836 26.1523 20.6836 26.3086 20.6836 26.4648C20.6836 27.6367 21.3281 28.2422 22.4609 28.2422C23.5938 28.2422 24.2578 27.5391 24.2578 26.6211C24.2578 26.4844 24.2578 26.3281 24.2578 26.1914C24.2578 24.6875 25.0781 23.7695 26.9336 22.5195C29.4922 20.8203 31.1133 19.3164 31.1133 16.3867C31.1133 12.3438 27.5 10.0391 23.2031 10.0391C18.8672 10.0391 16.0352 12.207 15.4102 14.6484Z" fill="black" fill-opacity="0.85"/>
 </g>
</svg>
