<?xml version="1.0" encoding="UTF-8"?>
<!--Generator: Apple Native CoreSVG 326-->
<!DOCTYPE svg
PUBLIC "-//W3C//DTD SVG 1.1//EN"
       "http://www.w3.org/Graphics/SVG/1.1/DTD/svg11.dtd">
<svg version="1.1" xmlns="http://www.w3.org/2000/svg" xmlns:xlink="http://www.w3.org/1999/xlink" viewBox="0 0 65 40.8398">
 <g>
  <rect height="40.8398" opacity="0" width="65" x="0" y="0"/>
  <path d="M46.9531 8.00781L46.9531 32.793C46.9531 37.9102 43.9648 40.8203 38.8281 40.8203L11.5039 40.8203C6.36719 40.8203 3.37891 37.9102 3.37891 32.793L3.37891 8.00781C3.37891 2.91016 6.54297 0 11.5039 0L39.0234 0C44.1602 0 46.9531 2.91016 46.9531 8.00781ZM65 7.32422L65 33.4766C65 35.4883 63.7891 36.8164 61.9531 36.8164C61.0156 36.8164 60.0781 36.3477 59.1992 35.6055L50.0586 27.832L50.0586 12.9492L59.1992 5.21484C60.0781 4.47266 61.0156 4.00391 61.9531 4.00391C63.7891 4.00391 65 5.33203 65 7.32422ZM22.1875 29.8438C22.1875 31.0547 23.2422 32.0703 24.4922 32.0703C25.7422 32.0703 26.7969 31.0742 26.7969 29.8438C26.7969 28.5938 25.7617 27.5977 24.4922 27.5977C23.2227 27.5977 22.1875 28.5938 22.1875 29.8438ZM18.1445 12.9492C18.0469 13.3008 17.9688 13.6719 17.9688 14.043C17.9688 14.9609 18.7109 15.4688 19.3945 15.4688C20.5273 15.4688 20.7422 14.8438 21.3477 14.043C21.9922 12.5586 23.2617 11.543 25.0781 11.543C27.3828 11.543 28.8672 12.8125 28.8672 14.6875C28.8672 16.2695 27.9102 17.1289 25.8203 18.5742C24.082 19.8047 22.9297 21.0352 22.9297 23.2227C22.9297 23.3789 22.9297 23.5156 22.9297 23.6719C22.9297 24.7266 23.4961 25.2734 24.5508 25.2734C25.5664 25.2734 26.1719 24.6484 26.1719 23.8281C26.1719 23.6914 26.1719 23.5547 26.1719 23.418C26.1719 22.0508 26.9141 21.2109 28.6133 20.0977C30.918 18.5547 32.3828 17.1875 32.3828 14.5312C32.3828 10.8789 29.1211 8.76953 25.2148 8.76953C21.2695 8.76953 18.75 10.7227 18.1445 12.9492Z" fill="black" fill-opacity="0.85"/>
 </g>
</svg>
