<?xml version="1.0" encoding="UTF-8"?>
<!--Generator: Apple Native CoreSVG 326-->
<!DOCTYPE svg
PUBLIC "-//W3C//DTD SVG 1.1//EN"
       "http://www.w3.org/Graphics/SVG/1.1/DTD/svg11.dtd">
<svg version="1.1" xmlns="http://www.w3.org/2000/svg" xmlns:xlink="http://www.w3.org/1999/xlink" viewBox="0 0 51.25 50.918">
 <g>
  <rect height="50.918" opacity="0" width="51.25" x="0" y="0"/>
  <path d="M25.4297 50.8789C39.4727 50.8789 50.8789 39.4922 50.8789 25.4492C50.8789 11.4062 39.4727 0 25.4297 0C11.3867 0 0 11.4062 0 25.4492C0 39.4922 11.3867 50.8789 25.4297 50.8789ZM25.4297 47.2461C13.3789 47.2461 3.63281 37.5 3.63281 25.4492C3.63281 13.3984 13.3789 3.65234 25.4297 3.65234C37.4805 3.65234 47.2266 13.3984 47.2266 25.4492C47.2266 37.5 37.4805 47.2461 25.4297 47.2461Z" fill="black" fill-opacity="0.85"/>
  <path d="M24.9219 30.6055C26.0156 30.6055 26.6602 29.9219 26.6602 29.043C26.6602 28.9062 26.6602 28.75 26.6602 28.6133C26.6602 27.1484 27.4609 26.25 29.2773 25.0195C31.7773 23.3594 33.3398 21.8945 33.3398 19.043C33.3398 15.1172 29.8242 12.8711 25.6445 12.8711C21.4258 12.8711 18.6719 14.9805 18.0664 17.3633C17.9492 17.7539 17.8906 18.125 17.8906 18.5352C17.8906 19.5117 18.6328 20.0586 19.375 20.0586C20.1367 20.0586 20.625 19.6875 20.9961 19.1211L21.3477 18.5938C22.0312 16.9727 23.5352 15.8203 25.5078 15.8203C28.0078 15.8203 29.5898 17.207 29.5898 19.2188C29.5898 20.9375 28.5938 21.8359 26.3086 23.418C24.4336 24.7266 23.2031 26.0547 23.2031 28.418C23.2031 28.5742 23.2031 28.7305 23.2031 28.8867C23.2031 30.0195 23.8281 30.6055 24.9219 30.6055ZM24.8828 37.9297C26.2109 37.9297 27.3633 36.8555 27.3633 35.5273C27.3633 34.1797 26.2305 33.125 24.8828 33.125C23.5156 33.125 22.4023 34.1992 22.4023 35.5273C22.4023 36.8359 23.5352 37.9297 24.8828 37.9297Z" fill="black" fill-opacity="0.85"/>
 </g>
</svg>
