<?xml version="1.0" encoding="UTF-8"?>
<!--Generator: Apple Native CoreSVG 326-->
<!DOCTYPE svg
PUBLIC "-//W3C//DTD SVG 1.1//EN"
       "http://www.w3.org/Graphics/SVG/1.1/DTD/svg11.dtd">
<svg version="1.1" xmlns="http://www.w3.org/2000/svg" xmlns:xlink="http://www.w3.org/1999/xlink" viewBox="0 0 57.1094 45.8789">
 <g>
  <rect height="45.8789" opacity="0" width="57.1094" x="0" y="0"/>
  <path d="M19.1992 1.875L20.6836 3.125C21.9922 4.25781 22.9883 4.64844 24.8242 4.64844L49.1406 4.64844C54.1797 4.64844 56.7383 7.1875 56.7383 12.168L56.7383 38.0859C56.7383 43.0469 54.1992 45.6055 49.7266 45.6055L7.59766 45.6055C2.55859 45.6055 0 43.0664 0 38.0859L0 7.14844C0 2.36328 2.38281 0 6.66016 0L13.8281 0C16.3477 0 17.5391 0.429688 19.1992 1.875ZM25.4883 34.7461C25.4883 36.0352 26.6016 37.0703 27.8906 37.0703C29.1992 37.0703 30.3125 36.0547 30.3125 34.7461C30.3125 33.457 29.2188 32.4219 27.8906 32.4219C26.582 32.4219 25.4883 33.4766 25.4883 34.7461ZM21.2891 17.168C21.1914 17.5391 21.1133 17.8906 21.1133 18.3008C21.1133 19.2578 21.8555 19.7852 22.5781 19.7852C23.3203 19.7852 23.7891 19.4141 24.1406 18.8867L24.4727 18.3594C25.1758 16.7773 26.6016 15.7031 28.4961 15.7031C30.8984 15.7031 32.4414 17.0312 32.4414 18.9648C32.4414 20.625 31.4648 21.5039 29.2578 23.0273C27.4609 24.2969 26.25 25.5859 26.25 27.8711C26.25 28.0273 26.25 28.1836 26.25 28.3203C26.25 29.4336 26.875 30 27.9492 30C29.0039 30 29.6289 29.3359 29.6289 28.4766C29.6289 28.3398 29.6289 28.2031 29.6289 28.0664C29.6289 26.6406 30.3906 25.7617 32.1484 24.6094C34.5703 23.0078 36.0938 21.5625 36.0938 18.8086C36.0938 14.9805 32.6953 12.832 28.6328 12.832C24.5312 12.832 21.875 14.8438 21.2891 17.168Z" fill="black" fill-opacity="0.85"/>
 </g>
</svg>
