<?xml version="1.0" encoding="UTF-8"?>
<!--Generator: Apple Native CoreSVG 326-->
<!DOCTYPE svg
PUBLIC "-//W3C//DTD SVG 1.1//EN"
       "http://www.w3.org/Graphics/SVG/1.1/DTD/svg11.dtd">
<svg version="1.1" xmlns="http://www.w3.org/2000/svg" xmlns:xlink="http://www.w3.org/1999/xlink" viewBox="0 0 55.3906 54.5508">
 <g>
  <rect height="54.5508" opacity="0" width="55.3906" x="0" y="0"/>
  <path d="M14.8438 54.5508C15.918 54.5508 16.6602 53.9844 17.9297 52.8516L26.7383 45.0977L44.0039 45.0977C51.0742 45.0977 55.0195 41.0547 55.0195 34.1016L55.0195 14.1797C55.0195 7.20703 51.0742 3.16406 44.0039 3.16406L11.0156 3.16406C3.92578 3.16406 0 7.1875 0 14.1797L0 34.1016C0 41.0938 3.92578 45.0977 11.0156 45.0977L12.4805 45.0977L12.4805 51.8164C12.4805 53.4766 13.3398 54.5508 14.8438 54.5508ZM15.7031 50.625L15.7031 43.2812C15.7031 42.0898 15.2539 41.6406 14.082 41.6406L11.0352 41.6406C5.99609 41.6406 3.45703 38.9453 3.45703 34.0625L3.45703 14.1992C3.45703 9.31641 5.99609 6.62109 11.0352 6.62109L43.9844 6.62109C48.9648 6.62109 51.5625 9.31641 51.5625 14.1992L51.5625 34.0625C51.5625 38.9453 48.9648 41.6406 43.9844 41.6406L26.6602 41.6406C25.4297 41.6406 24.7852 41.8359 23.9258 42.7148Z" fill="black" fill-opacity="0.85"/>
  <path d="M15.3125 21.5039C15.3125 24.3555 17.1289 26.543 19.9609 26.543C21.0547 26.543 22.1094 26.2891 22.793 25.4492L23.0078 25.4492C22.0898 27.6562 19.9805 29.043 18.4375 29.4531C17.5586 29.6875 17.2852 30.0781 17.2852 30.6445C17.2852 31.25 17.7734 31.7383 18.457 31.7383C20.8594 31.7383 26.0547 28.8086 26.0547 22.4414C26.0547 18.9648 23.75 16.4258 20.5859 16.4258C17.5781 16.4258 15.3125 18.5547 15.3125 21.5039ZM29.0039 21.5039C29.0039 24.3555 30.8203 26.543 33.6523 26.543C34.7461 26.543 35.8008 26.2891 36.4844 25.4492L36.6797 25.4492C35.7812 27.6562 33.6719 29.043 32.1289 29.4531C31.25 29.6875 30.9766 30.0781 30.9766 30.6445C30.9766 31.25 31.4648 31.7383 32.1484 31.7383C34.5508 31.7383 39.7266 28.8086 39.7266 22.4414C39.7266 18.9648 37.4219 16.4258 34.2578 16.4258C31.2695 16.4258 29.0039 18.5547 29.0039 21.5039Z" fill="black" fill-opacity="0.85"/>
 </g>
</svg>
