<?xml version="1.0" encoding="UTF-8"?>
<!--Generator: Apple Native CoreSVG 326-->
<!DOCTYPE svg
PUBLIC "-//W3C//DTD SVG 1.1//EN"
       "http://www.w3.org/Graphics/SVG/1.1/DTD/svg11.dtd">
<svg version="1.1" xmlns="http://www.w3.org/2000/svg" xmlns:xlink="http://www.w3.org/1999/xlink" viewBox="0 0 55.3906 54.7852">
 <g>
  <rect height="54.7852" opacity="0" width="55.3906" x="0" y="0"/>
  <path d="M55.0195 14.2969L55.0195 34.2188C55.0195 41.1719 51.0742 45.1953 44.0039 45.1953L26.0547 45.1953L16.9336 53.418C15.9375 54.3359 15.293 54.7852 14.4336 54.7852C13.1836 54.7852 12.4609 53.8867 12.4609 52.5195L12.4609 45.1953L11.0156 45.1953C3.92578 45.1953 0 41.2109 0 34.2188L0 14.2969C0 7.30469 3.92578 3.28125 11.0156 3.28125L44.0039 3.28125C51.0742 3.28125 55.0195 7.32422 55.0195 14.2969ZM15.0195 21.582C15.0195 24.4922 16.875 26.7383 19.7852 26.7383C20.8984 26.7383 21.9727 26.4844 22.6758 25.625L22.8906 25.625C21.9531 27.8711 19.8047 29.2969 18.2227 29.7266C17.2852 29.9609 17.0312 30.3516 17.0312 30.9375C17.0312 31.582 17.5391 32.0703 18.2422 32.0703C20.7031 32.0703 26.0156 29.0625 26.0156 22.5391C26.0156 18.9844 23.6719 16.3672 20.4102 16.3672C17.3438 16.3672 15.0195 18.5547 15.0195 21.582ZM29.043 21.582C29.043 24.4922 30.8984 26.7383 33.7891 26.7383C34.9219 26.7383 35.9961 26.4844 36.6992 25.625L36.9141 25.625C35.9766 27.8711 33.8281 29.2969 32.2266 29.7266C31.3281 29.9609 31.0547 30.3516 31.0547 30.9375C31.0547 31.582 31.5625 32.0703 32.2656 32.0703C34.7266 32.0703 40.0195 29.0625 40.0195 22.5391C40.0195 18.9844 37.6562 16.3672 34.4141 16.3672C31.3477 16.3672 29.043 18.5547 29.043 21.582Z" fill="black" fill-opacity="0.85"/>
 </g>
</svg>
