<?xml version="1.0" encoding="UTF-8"?>
<!--Generator: Apple Native CoreSVG 326-->
<!DOCTYPE svg
PUBLIC "-//W3C//DTD SVG 1.1//EN"
       "http://www.w3.org/Graphics/SVG/1.1/DTD/svg11.dtd">
<svg version="1.1" xmlns="http://www.w3.org/2000/svg" xmlns:xlink="http://www.w3.org/1999/xlink" viewBox="0 0 72.998 56.5039">
 <g>
  <rect height="56.5039" opacity="0" width="72.998" x="0" y="0"/>
  <path d="M63.0089 19.14C61.7823 18.9087 60.5615 19.1599 59.5784 19.786C56.1599 10.2372 47.0513 3.45703 36.3135 3.45703C22.6025 3.45703 11.5479 14.5117 11.5479 28.2422C11.5479 41.9336 22.6025 52.9883 36.3135 52.9883C47.0401 52.9883 56.141 46.2221 59.5676 36.7077C60.5522 37.3371 61.7745 37.5891 62.9982 37.3597C59.2254 48.4629 48.7009 56.4453 36.3135 56.4453C20.7275 56.4453 8.09082 43.8086 8.09082 28.2422C8.09082 12.6367 20.7471 0 36.3135 0C48.6984 0 59.2412 7.99918 63.0089 19.14Z" fill="black" fill-opacity="0.85"/>
  <path d="M63.3838 22.6172C62.1533 21.6797 60.5713 22.2461 60.5713 23.8086L60.5713 32.6758C60.5713 34.2773 62.1729 34.7852 63.3643 33.8867L69.2236 29.5117C70.083 28.8477 70.1221 27.6367 69.2236 26.9727Z" fill="black" fill-opacity="0.85"/>
  <path d="M36.3135 48.125C47.3291 48.125 56.1963 39.2188 56.1963 28.2422C56.1963 17.2266 47.3291 8.33984 36.3135 8.33984C25.3369 8.33984 16.4111 17.2266 16.4111 28.2422C16.4111 39.2188 25.3369 48.125 36.3135 48.125ZM31.0596 38.125C30.0049 38.125 29.3799 37.3828 29.3799 36.2891L29.3799 19.9609C29.3799 18.8672 29.9854 18.0664 31.04 18.0664L37.1143 18.0664C41.3721 18.0664 44.165 20.6055 44.165 24.4531C44.165 27.1289 42.5439 29.3555 40.083 30.2148L43.3447 35.4102C43.6182 35.8203 43.7549 36.2109 43.7549 36.6406C43.7549 37.5 43.0713 38.125 42.1338 38.125C41.3916 38.125 40.9033 37.8125 40.4346 37.0508L36.7236 30.7422L32.8369 30.7422L32.8369 36.2891C32.8369 37.4023 32.1729 38.125 31.0596 38.125ZM32.8369 28.0469L36.7432 28.0469C39.2627 28.0469 40.7861 26.7969 40.7861 24.5117C40.7861 22.207 39.2041 20.8398 36.8018 20.8398L32.8369 20.8398Z" fill="black" fill-opacity="0.85"/>
 </g>
</svg>
