<?xml version="1.0" encoding="UTF-8"?>
<!--Generator: Apple Native CoreSVG 326-->
<!DOCTYPE svg
PUBLIC "-//W3C//DTD SVG 1.1//EN"
       "http://www.w3.org/Graphics/SVG/1.1/DTD/svg11.dtd">
<svg version="1.1" xmlns="http://www.w3.org/2000/svg" xmlns:xlink="http://www.w3.org/1999/xlink" viewBox="0 0 57.7539 63.3008">
 <g>
  <rect height="63.3008" opacity="0" width="57.7539" x="0" y="0"/>
  <path d="M28.6914 48.0078C32.1817 48.0078 35.4132 47.6789 38.3398 47.056L38.3398 48.3594C38.3398 53.0469 34.7461 55.8008 28.6914 55.8008C22.6172 55.8008 19.0234 53.0469 19.0234 48.3594L19.0234 47.0515C21.955 47.6774 25.1932 48.0078 28.6914 48.0078Z" fill="black" fill-opacity="0.85"/>
  <path d="M54.2578 28.7695C54.2578 37.6953 44.668 44.8828 28.6914 44.8828C12.7148 44.8828 3.125 37.6953 3.125 28.7695C3.125 19.8633 12.7148 12.6758 28.6523 12.6758C44.668 12.6758 54.2578 19.8633 54.2578 28.7695ZM24.5312 20.7227C23.6914 20.7227 23.1641 21.3086 23.1641 22.2656L23.1641 34.9805C23.1641 35.8984 23.7109 36.4844 24.5312 36.4844C25.3906 36.4844 25.9375 35.8984 25.9375 34.9805L25.9375 30.7031L28.8672 30.7031L31.875 35.6445C32.2461 36.2695 32.5977 36.5234 33.1836 36.5234C33.8867 36.5234 34.4727 36.0156 34.4727 35.3125C34.4727 34.9219 34.3555 34.6289 34.1602 34.3164L31.6406 30.2539C33.5547 29.5508 34.7656 27.832 34.7656 25.7422C34.7656 22.7148 32.5781 20.7227 29.2578 20.7227ZM32.0117 25.7812C32.0117 27.4805 30.8789 28.4961 28.9648 28.4961L25.9375 28.4961L25.9375 23.0078L29.0039 23.0078C30.8594 23.0078 32.0117 24.082 32.0117 25.7812Z" fill="black" fill-opacity="0.85"/>
  <path d="M22.7344 2.77344L27.5977 9.27734C28.2422 10.1367 29.4531 10.1367 30.0977 9.27734L34.9609 2.77344C35.8789 1.5625 35.3906 0 33.7695 0L23.9062 0C22.3633 0 21.7969 1.52344 22.7344 2.77344Z" fill="black" fill-opacity="0.85"/>
 </g>
</svg>
