<?xml version="1.0" encoding="UTF-8"?>
<!--Generator: Apple Native CoreSVG 326-->
<!DOCTYPE svg
PUBLIC "-//W3C//DTD SVG 1.1//EN"
       "http://www.w3.org/Graphics/SVG/1.1/DTD/svg11.dtd">
<svg version="1.1" xmlns="http://www.w3.org/2000/svg" xmlns:xlink="http://www.w3.org/1999/xlink" viewBox="0 0 56.8164 73.335">
 <g>
  <rect height="73.335" opacity="0" width="56.8164" x="0" y="0"/>
  <path d="M56.4453 36.6577C56.4453 49.0402 48.437 59.5812 37.3044 63.3507C37.5371 62.1216 37.2867 60.9011 36.6609 59.9192C46.2006 56.4982 52.9883 47.392 52.9883 36.6577C52.9883 22.9273 41.9141 11.8726 28.2031 11.8726C14.4922 11.8726 3.45703 22.9468 3.45703 36.6577C3.45703 47.3719 10.2147 56.4833 19.7374 59.9124C19.108 60.8971 18.8562 62.1196 19.0858 63.3433C7.97376 59.5682 0 49.0325 0 36.6577C0 21.0913 12.6172 8.41553 28.2031 8.41553C43.7891 8.41553 56.4453 21.0718 56.4453 36.6577Z" fill="black" fill-opacity="0.85"/>
  <path d="M23.7695 60.9155C22.168 60.9155 21.6602 62.4976 22.5586 63.7085L26.9336 69.5483C27.5977 70.4273 28.8281 70.4468 29.4727 69.5483L33.8281 63.728C34.7656 62.478 34.1992 60.9155 32.6367 60.9155Z" fill="black" fill-opacity="0.85"/>
  <path d="M28.2031 16.7554C17.2266 16.7554 8.32031 25.6616 8.32031 36.6577C8.32031 47.6538 17.2266 56.5405 28.2031 56.5405C39.2188 56.5405 48.125 47.6538 48.125 36.6577C48.125 25.6616 39.2188 16.7554 28.2031 16.7554ZM28.2031 20.2124C37.3242 20.2124 44.6484 27.5366 44.6484 36.6577C44.6484 45.7593 37.3242 53.0835 28.2031 53.0835C19.1016 53.0835 11.7773 45.7593 11.7773 36.6577C11.7773 27.5366 19.1016 20.2124 28.2031 20.2124ZM23.0859 46.3062C24.1602 46.3062 24.8047 45.5835 24.8047 44.5288L24.8047 39.0796L28.6133 39.0796L32.2656 45.2515C32.7148 45.9937 33.1836 46.3062 33.9062 46.3062C34.8047 46.3062 35.4688 45.7007 35.4688 44.8608C35.4688 44.4507 35.332 44.0796 35.0586 43.6694L31.875 38.5718C34.2773 37.7319 35.8594 35.564 35.8594 32.9468C35.8594 29.1968 33.1445 26.7163 29.0039 26.7163L23.0664 26.7163C22.0508 26.7163 21.4648 27.4976 21.4648 28.5523L21.4648 44.5288C21.4648 45.564 22.0703 46.3062 23.0859 46.3062ZM24.8047 36.4624L24.8047 29.4116L28.6914 29.4116C31.0547 29.4116 32.5977 30.7398 32.5977 33.0054C32.5977 35.2319 31.0938 36.4624 28.6328 36.4624Z" fill="black" fill-opacity="0.85"/>
 </g>
</svg>
