<?xml version="1.0" encoding="UTF-8"?>
<!--Generator: Apple Native CoreSVG 326-->
<!DOCTYPE svg
PUBLIC "-//W3C//DTD SVG 1.1//EN"
       "http://www.w3.org/Graphics/SVG/1.1/DTD/svg11.dtd">
<svg version="1.1" xmlns="http://www.w3.org/2000/svg" xmlns:xlink="http://www.w3.org/1999/xlink" viewBox="0 0 56.8164 73.3936">
 <g>
  <rect height="73.3936" opacity="0" width="56.8164" x="0" y="0"/>
  <path d="M56.4453 36.687C56.4453 52.2534 43.7891 64.9097 28.2031 64.9097C12.6172 64.9097 0 52.2534 0 36.687C0 24.3112 7.9751 13.7624 19.0886 9.98308C18.8545 11.2073 19.1042 12.43 19.7338 13.4144C10.213 16.8451 3.45703 25.9589 3.45703 36.687C3.45703 50.3784 14.4922 61.4526 28.2031 61.4526C41.9141 61.4526 52.9883 50.398 52.9883 36.687C52.9883 25.9377 46.2009 16.8284 36.6616 13.4065C37.2886 12.4234 37.5384 11.2018 37.3027 9.97402C48.4361 13.7437 56.4453 24.2884 56.4453 36.687Z" fill="black" fill-opacity="0.85"/>
  <path d="M23.7695 12.4292L32.6367 12.4292C34.1992 12.4292 34.7656 10.8472 33.8281 9.59717L29.4727 3.77686C28.8281 2.89796 27.5977 2.89796 26.9336 3.77686L22.5586 9.61671C21.6602 10.8276 22.168 12.4292 23.7695 12.4292Z" fill="black" fill-opacity="0.85"/>
  <path d="M28.2031 56.5894C39.2188 56.5894 48.125 47.6636 48.125 36.687C48.125 25.6714 39.2188 16.8042 28.2031 16.8042C17.2266 16.8042 8.32031 25.6714 8.32031 36.687C8.32031 47.6636 17.2266 56.5894 28.2031 56.5894ZM28.2031 53.1323C19.1016 53.1323 11.7773 45.7886 11.7773 36.687C11.7773 27.5659 19.1016 20.2612 28.2031 20.2612C37.3242 20.2612 44.6484 27.5659 44.6484 36.687C44.6484 45.7886 37.3242 53.1323 28.2031 53.1323ZM23.0859 46.3355C24.1602 46.3355 24.8047 45.6128 24.8047 44.5581L24.8047 39.1089L28.6133 39.1089L32.2656 45.2808C32.7148 46.023 33.1836 46.3355 33.9062 46.3355C34.8047 46.3355 35.4688 45.73 35.4688 44.8901C35.4688 44.48 35.332 44.1089 35.0586 43.6987L31.875 38.6011C34.2773 37.7612 35.8594 35.5933 35.8594 32.9761C35.8594 29.2261 33.1445 26.7456 29.0039 26.7456L23.0664 26.7456C22.0508 26.7456 21.4648 27.5269 21.4648 28.5815L21.4648 44.5581C21.4648 45.5933 22.0703 46.3355 23.0859 46.3355ZM24.8047 36.4917L24.8047 29.4409L28.6914 29.4409C31.0547 29.4409 32.5977 30.769 32.5977 33.0347C32.5977 35.2612 31.0938 36.4917 28.6328 36.4917Z" fill="black" fill-opacity="0.85"/>
 </g>
</svg>
