<?xml version="1.0" encoding="UTF-8"?>
<!--Generator: Apple Native CoreSVG 326-->
<!DOCTYPE svg
PUBLIC "-//W3C//DTD SVG 1.1//EN"
       "http://www.w3.org/Graphics/SVG/1.1/DTD/svg11.dtd">
<svg version="1.1" xmlns="http://www.w3.org/2000/svg" xmlns:xlink="http://www.w3.org/1999/xlink" viewBox="0 0 46.2891 45.918">
 <g>
  <rect height="45.918" opacity="0" width="46.2891" x="0" y="0"/>
  <path d="M7.59766 45.918L38.3008 45.918C43.3594 45.918 45.918 43.3594 45.918 38.3984L45.918 7.53906C45.918 2.55859 43.3594 0 38.3008 0L7.59766 0C2.55859 0 0 2.53906 0 7.53906L0 38.3984C0 43.3984 2.55859 45.918 7.59766 45.918ZM7.67578 42.4609C4.94141 42.4609 3.45703 41.0156 3.45703 38.2031L3.45703 7.71484C3.45703 4.92188 4.94141 3.45703 7.67578 3.45703L38.2422 3.45703C40.918 3.45703 42.4609 4.92188 42.4609 7.71484L42.4609 38.2031C42.4609 41.0156 40.918 42.4609 38.2422 42.4609Z" fill="black" fill-opacity="0.85"/>
  <path d="M16.5625 34.4336C17.6758 34.4336 18.3008 33.7109 18.3008 32.5391L18.3008 25.7031L23.3398 25.7031L27.8906 33.2812C28.3984 34.1211 28.8477 34.4336 29.6094 34.4336C30.5469 34.4336 31.1719 33.8281 31.1719 32.9688C31.1719 32.4805 31.0547 32.1289 30.7617 31.6797L26.7383 25.2344C29.7461 24.3359 31.6992 21.7383 31.6992 18.5742C31.6992 14.1992 28.5547 11.3672 23.6914 11.3672L16.5234 11.3672C15.4297 11.3672 14.8438 12.1484 14.8438 13.3008L14.8438 32.5391C14.8438 33.6719 15.4492 34.4336 16.5625 34.4336ZM18.3008 23.125L18.3008 14.0625L23.3203 14.0625C26.2695 14.0625 28.2617 15.7617 28.2617 18.6523C28.2617 21.4648 26.3086 23.125 23.2422 23.125Z" fill="black" fill-opacity="0.85"/>
 </g>
</svg>
