<?xml version="1.0" encoding="UTF-8"?>
<!--Generator: Apple Native CoreSVG 326-->
<!DOCTYPE svg
PUBLIC "-//W3C//DTD SVG 1.1//EN"
       "http://www.w3.org/Graphics/SVG/1.1/DTD/svg11.dtd">
<svg version="1.1" xmlns="http://www.w3.org/2000/svg" xmlns:xlink="http://www.w3.org/1999/xlink" viewBox="0 0 44.5898 53.8867">
 <g>
  <rect height="53.8867" opacity="0" width="44.5898" x="0" y="0"/>
  <path d="M25.1953 3.78906L41.1133 18.418C43.1836 20.332 44.2188 23.0273 44.2188 26.3867L44.2188 39.1797C44.2188 48.125 38.457 53.8867 29.5117 53.8867L7.34375 53.8867C2.71484 53.8867 0 51.1719 0 46.6016L0 7.30469C0 2.87109 2.87109 0 7.28516 0L15.0391 0C18.9258 0 22.1484 0.976562 25.1953 3.78906ZM9.92188 21.6406C8.86719 21.6406 8.28125 22.2852 8.28125 23.3398L8.28125 41.0742C8.28125 42.1094 8.90625 42.8125 9.96094 42.8125C10.9766 42.8125 11.6016 42.1289 11.6016 41.0742L11.6016 34.3164L14.375 34.3164L17.2852 41.4844C17.6172 42.3242 18.125 42.8125 19.0234 42.8125C19.7852 42.8125 20.5859 42.3438 20.5859 41.2109C20.5859 40.9375 20.4297 40.5078 20.2344 40L17.5195 33.6133C19.6094 32.6172 20.6445 30.4492 20.6445 27.9688C20.6445 23.8867 18.2422 21.6406 14.2773 21.6406ZM23.5938 26.5625C23.5938 27.3828 24.1016 28.0078 24.9609 28.0078C25.7227 28.0078 26.1914 27.6562 26.4258 26.9141C26.8555 25.0195 27.5977 23.7695 29.1992 23.7695C30.957 23.7695 31.8555 25.3711 31.8555 27.2266C31.8555 29.2773 30.5859 31.2695 29.1406 33.1641L24.375 39.375C23.9648 39.9219 23.5742 40.4688 23.5742 41.1719C23.5742 41.9531 24.082 42.5195 25.0977 42.5195L34.043 42.5195C34.8633 42.5195 35.3516 41.9727 35.3516 41.1719C35.3516 40.3125 34.8438 39.8242 34.043 39.8242L27.6172 39.8242L27.6172 39.6289L31.6797 34.3555C34.1211 31.2305 34.9414 29.3359 34.9414 27.0898C34.9414 23.6719 32.7148 21.1133 29.2188 21.1133C25.9766 21.1133 23.5938 23.8672 23.5938 26.5625ZM17.2656 28.0469C17.2656 30.2148 16.25 31.8359 13.9844 31.8359L11.6016 31.8359L11.6016 24.2969L13.9648 24.2969C16.0742 24.2969 17.2656 25.7617 17.2656 28.0469Z" fill="black" fill-opacity="0.85"/>
 </g>
</svg>
