<?xml version="1.0" encoding="UTF-8"?>
<!--Generator: Apple Native CoreSVG 326-->
<!DOCTYPE svg
PUBLIC "-//W3C//DTD SVG 1.1//EN"
       "http://www.w3.org/Graphics/SVG/1.1/DTD/svg11.dtd">
<svg version="1.1" xmlns="http://www.w3.org/2000/svg" xmlns:xlink="http://www.w3.org/1999/xlink" viewBox="0 0 58.9258 44.5898">
 <g>
  <rect height="44.5898" opacity="0" width="58.9258" x="0" y="0"/>
  <path d="M58.5547 18.4766L58.5547 26.0742C58.5547 39.2188 53.6328 44.5508 39.3555 44.5508L19.1992 44.5508C4.92188 44.5508 0 39.2188 0 26.0742L0 18.4766C0 5.33203 4.92188 0 19.1992 0L39.3555 0C53.6328 0 58.5547 5.33203 58.5547 18.4766ZM35.9375 13.7695L30.9375 24.375C30.5469 25.2539 30.4102 25.8398 30.4102 26.5625C30.4102 27.6758 31.1719 28.4375 32.3242 28.4375L38.3398 28.4375L38.3398 31.3867C38.3398 32.5781 39.1602 33.0469 39.9023 33.0469C40.7422 33.0469 41.4648 32.4805 41.4648 31.3867L41.4648 28.4375L42.5391 28.4375C43.418 28.4375 43.8477 27.8711 43.8477 27.0898C43.8477 26.3477 43.4375 25.7812 42.5391 25.7812L41.4648 25.7812L41.4648 13.9844C41.4648 12.3438 40.3906 11.5234 38.9258 11.5234C37.3438 11.5234 36.6016 12.3438 35.9375 13.7695ZM17.0117 11.8359C15.957 11.8359 15.3711 12.4805 15.3711 13.5547L15.3711 31.2891C15.3711 32.3242 15.9766 33.0273 17.0508 33.0273C18.0664 33.0273 18.6914 32.3438 18.6914 31.2891L18.6914 24.5312L21.4453 24.5312L24.375 31.6992C24.707 32.5391 25.2148 33.0273 26.0938 33.0273C26.8555 33.0273 27.6758 32.5391 27.6758 31.4258C27.6758 31.1719 27.5195 30.7031 27.3242 30.1953L24.6094 23.8281C26.6992 22.832 27.7344 20.6641 27.7344 18.1641C27.7344 14.1016 25.332 11.8359 21.3672 11.8359ZM38.3984 25.8398L33.2227 25.8398L33.2227 25.7031L38.3008 14.4922L38.3984 14.4922ZM24.3555 18.2422C24.3555 20.4297 23.3398 22.0312 21.0547 22.0312L18.6914 22.0312L18.6914 14.5117L21.0547 14.5117C23.1641 14.5117 24.3555 15.9766 24.3555 18.2422Z" fill="black" fill-opacity="0.85"/>
 </g>
</svg>
