<?xml version="1.0" encoding="UTF-8"?>
<!--Generator: Apple Native CoreSVG 326-->
<!DOCTYPE svg
PUBLIC "-//W3C//DTD SVG 1.1//EN"
       "http://www.w3.org/Graphics/SVG/1.1/DTD/svg11.dtd">
<svg version="1.1" xmlns="http://www.w3.org/2000/svg" xmlns:xlink="http://www.w3.org/1999/xlink" viewBox="0 0 73.7305 38.1445">
 <g>
  <rect height="38.1445" opacity="0" width="73.7305" x="0" y="0"/>
  <path d="M36.6602 0C16.3281 0 0 16.3672 0 36.6992C0 37.5 0.644531 38.125 1.40625 38.125C2.22656 38.125 2.87109 37.5 2.87109 36.6992C2.87109 18.0273 17.9883 2.87109 36.6602 2.87109C55.3516 2.87109 70.4883 18.0273 70.4883 36.6992C70.4883 37.5 71.1133 38.125 71.9141 38.125C72.7148 38.125 73.3594 37.5 73.3594 36.6992C73.3594 16.3672 56.9922 0 36.6602 0Z" fill="black" fill-opacity="0.85"/>
  <path d="M36.6602 5.50781C19.375 5.50781 5.50781 19.4141 5.50781 36.6992C5.50781 37.5 6.13281 38.125 6.93359 38.125C7.73438 38.125 8.37891 37.5 8.37891 36.6992C8.37891 21.0742 21.0547 8.37891 36.6602 8.37891C52.2852 8.37891 64.9609 21.0742 64.9609 36.6992C64.9609 37.5 65.5859 38.125 66.4062 38.125C67.1875 38.125 67.832 37.5 67.832 36.6992C67.832 19.4141 53.9453 5.50781 36.6602 5.50781Z" fill="black" fill-opacity="0.85"/>
  <path d="M36.6602 11.0352C22.4414 11.0352 11.0547 22.4609 11.0547 36.6992C11.0547 37.5 11.6797 38.125 12.4609 38.125C13.2812 38.125 13.9258 37.5 13.9258 36.6992C13.9258 24.1406 24.082 13.9062 36.6602 13.9062C49.2383 13.9062 59.4336 24.1406 59.4336 36.6992C59.4336 37.5 60.0586 38.125 60.8594 38.125C61.6602 38.125 62.3047 37.5 62.3047 36.6992C62.3047 22.4609 50.8984 11.0352 36.6602 11.0352Z" fill="black" fill-opacity="0.85"/>
  <path d="M36.6602 16.5625C25.4688 16.5625 16.5625 25.4883 16.5625 36.6992C16.5625 37.5 17.1875 38.125 17.9688 38.125C18.7891 38.125 19.4336 37.5 19.4336 36.6992C19.4336 27.168 27.168 19.4336 36.6602 19.4336C46.1719 19.4336 53.9258 27.168 53.9258 36.6992C53.9258 37.5 54.5508 38.125 55.3516 38.125C56.1328 38.125 56.7773 37.5 56.7773 36.6992C56.7773 25.4883 47.8516 16.5625 36.6602 16.5625Z" fill="black" fill-opacity="0.85"/>
  <path d="M36.6602 22.0703C28.5352 22.0703 22.0898 28.5547 22.0898 36.6992C22.0898 37.5 22.7148 38.125 23.4961 38.125C24.3164 38.125 24.9609 37.5 24.9609 36.6992C24.9609 30.2344 30.1953 24.9414 36.6602 24.9414C43.1445 24.9414 48.3984 30.2344 48.3984 36.6992C48.3984 37.5 49.0234 38.125 49.8242 38.125C50.625 38.125 51.2695 37.5 51.2695 36.6992C51.2695 28.5547 44.7852 22.0703 36.6602 22.0703Z" fill="black" fill-opacity="0.85"/>
 </g>
</svg>
