<?xml version="1.0" encoding="UTF-8"?>
<!--Generator: Apple Native CoreSVG 326-->
<!DOCTYPE svg
PUBLIC "-//W3C//DTD SVG 1.1//EN"
       "http://www.w3.org/Graphics/SVG/1.1/DTD/svg11.dtd">
<svg version="1.1" xmlns="http://www.w3.org/2000/svg" xmlns:xlink="http://www.w3.org/1999/xlink" viewBox="0 0 39.0039 54.8242">
 <g>
  <rect height="54.8242" opacity="0" width="39.0039" x="0" y="0"/>
  <path d="M2.46094 26.0156L5.70312 26.0156L5.70312 6.73828C5.70312 4.43359 6.93359 3.16406 9.39453 3.16406L29.2188 3.16406C31.6992 3.16406 32.9492 4.43359 32.9492 6.73828L32.9492 8.75L36.1719 8.75L36.1719 6.32812C36.1719 2.51953 33.6914 0 29.6094 0L9.00391 0C4.92188 0 2.44141 2.51953 2.44141 6.32812ZM9.02344 53.9648L29.6289 53.9648C33.7109 53.9648 36.1914 51.4453 36.1914 47.6367L36.1914 27.9492L32.9688 27.9492L32.9688 47.2266C32.9688 49.5312 31.7188 50.8008 29.2383 50.8008L9.41406 50.8008C6.95312 50.8008 5.70312 49.5312 5.70312 47.2266L5.70312 45.2148L2.46094 45.2148L2.46094 47.6367C2.46094 51.4453 4.94141 53.9648 9.02344 53.9648Z" fill="black" fill-opacity="0.85"/>
  <path d="M26.5625 11.6406C25.6445 11.6406 25.1758 12.3438 25.1758 13.0469C25.1758 13.75 25.6641 14.4727 26.6211 14.4727L30.293 14.4727L33.9062 14.3359L30.7812 17.3047L26.6406 21.4258C26.2891 21.7773 26.1719 22.1289 26.1719 22.5C26.1719 23.3594 26.9531 24.1211 27.8125 24.1211C28.1641 24.1211 28.5352 24.0039 28.8672 23.6719L32.9883 19.5312L35.9375 16.4062L35.8008 19.9805L35.8008 23.8477C35.8008 24.8047 36.5234 25.293 37.2461 25.293C37.9492 25.293 38.6328 24.8438 38.6328 23.9062L38.6328 13.4375C38.6328 12.2852 37.9883 11.6406 36.8359 11.6406ZM1.79688 42.3242L12.0898 42.3242C13.0078 42.3242 13.4766 41.6211 13.4766 40.918C13.4766 40.1953 12.9883 39.4922 12.0312 39.4922L8.33984 39.4922L4.72656 39.6289L7.85156 36.6602L12.0117 32.5391C12.3438 32.207 12.4805 31.8359 12.4805 31.4648C12.4805 30.6055 11.6797 29.8438 10.8203 29.8438C10.4688 29.8438 10.0977 29.9609 9.78516 30.293L5.64453 34.4531L2.69531 37.5586L2.83203 33.9844L2.83203 30.1172C2.83203 29.1602 2.10938 28.6719 1.38672 28.6719C0.703125 28.6719 0 29.1211 0 30.0586L0 40.5273C0 41.6797 0.644531 42.3242 1.79688 42.3242Z" fill="black" fill-opacity="0.85"/>
 </g>
</svg>
