<?xml version="1.0" encoding="UTF-8"?>
<!--Generator: Apple Native CoreSVG 326-->
<!DOCTYPE svg
PUBLIC "-//W3C//DTD SVG 1.1//EN"
       "http://www.w3.org/Graphics/SVG/1.1/DTD/svg11.dtd">
<svg version="1.1" xmlns="http://www.w3.org/2000/svg" xmlns:xlink="http://www.w3.org/1999/xlink" viewBox="0 0 34.8242 45.957">
 <g>
  <rect height="45.957" opacity="0" width="34.8242" x="0" y="0"/>
  <path d="M7.59766 45.957L26.8359 45.957C31.8945 45.957 34.4531 43.418 34.4531 38.4375L34.4531 7.57812C34.4531 2.59766 31.8945 0.0585938 26.8359 0.0585938L7.59766 0.0585938C2.55859 0.0585938 0 2.57812 0 7.57812L0 38.4375C0 43.4375 2.55859 45.957 7.59766 45.957ZM7.67578 42.5C4.94141 42.5 3.45703 41.0547 3.45703 38.2617L3.45703 7.75391C3.45703 4.96094 4.94141 3.51562 7.67578 3.51562L26.7773 3.51562C29.4531 3.51562 30.9766 4.96094 30.9766 7.75391L30.9766 38.2617C30.9766 41.0547 29.4531 42.5 26.7773 42.5Z" fill="black" fill-opacity="0.85"/>
 </g>
</svg>
