<?xml version="1.0" encoding="UTF-8"?>
<!--Generator: Apple Native CoreSVG 326-->
<!DOCTYPE svg
PUBLIC "-//W3C//DTD SVG 1.1//EN"
       "http://www.w3.org/Graphics/SVG/1.1/DTD/svg11.dtd">
<svg version="1.1" xmlns="http://www.w3.org/2000/svg" xmlns:xlink="http://www.w3.org/1999/xlink" viewBox="0 0 66.7188 57.0508">
 <g>
  <rect height="57.0508" opacity="0" width="66.7188" x="0" y="0"/>
  <path d="M7.59766 24.5508L25.5664 24.5508C30.6055 24.5508 33.1641 21.9922 33.1641 17.0312L33.1641 7.53906C33.1641 2.55859 30.6055 0 25.5664 0L7.59766 0C2.55859 0 0 2.53906 0 7.53906L0 17.0312C0 22.0117 2.55859 24.5508 7.59766 24.5508ZM7.67578 21.0938C4.94141 21.0938 3.45703 19.6484 3.45703 16.8359L3.45703 7.71484C3.45703 4.90234 4.94141 3.45703 7.67578 3.45703L25.5078 3.45703C28.1836 3.45703 29.707 4.90234 29.707 7.71484L29.707 16.8359C29.707 19.6484 28.1836 21.0938 25.5078 21.0938ZM40.7812 57.0117L58.75 57.0117C63.7695 57.0117 66.3477 54.4531 66.3477 49.4922L66.3477 40C66.3477 35.0195 63.7695 32.4609 58.75 32.4609L40.7812 32.4609C35.7422 32.4609 33.1641 35 33.1641 40L33.1641 49.4922C33.1641 54.4922 35.7422 57.0117 40.7812 57.0117ZM40.8398 53.5547C38.125 53.5547 36.6406 52.1094 36.6406 49.2969L36.6406 40.1758C36.6406 37.3828 38.125 35.9375 40.8398 35.9375L58.6719 35.9375C61.3477 35.9375 62.8906 37.3828 62.8906 40.1758L62.8906 49.2969C62.8906 52.1094 61.3477 53.5547 58.6719 53.5547Z" fill="black" fill-opacity="0.85"/>
  <path d="M53.2422 27.3828C54.0039 28.418 54.8438 28.3984 55.5859 27.3828L60.1562 21.0547C61.1133 19.7852 60.7031 18.4766 59.0625 18.4766L55.625 18.4766L55.625 17.9883C55.625 10.5859 50.7422 5.70312 43.5352 5.70312L39.5898 5.70312C38.8281 5.70312 38.2031 6.32812 38.2031 7.07031C38.2031 7.8125 38.8281 8.4375 39.5898 8.4375L43.5156 8.4375C49.0039 8.4375 53.0469 12.0703 53.0469 18.0078L53.0469 18.4766L49.7852 18.4766C48.1836 18.4766 47.7734 19.7852 48.6914 21.0547ZM22.793 51.3281L26.7578 51.3281C27.5 51.3281 28.125 50.7031 28.125 49.9414C28.125 49.1992 27.5 48.5742 26.7578 48.5742L22.832 48.5742C17.3242 48.5742 13.2812 44.9609 13.2812 39.0234L13.2812 38.5547L16.543 38.5547C18.1641 38.5547 18.5547 37.2266 17.6367 35.957L13.0859 29.6289C12.3438 28.5938 11.4844 28.6133 10.7422 29.6289L6.17188 35.957C5.23438 37.2266 5.625 38.5547 7.28516 38.5547L10.7227 38.5547L10.7227 39.043C10.7227 46.4453 15.6055 51.3281 22.793 51.3281Z" fill="black" fill-opacity="0.85"/>
 </g>
</svg>
