<?xml version="1.0" encoding="UTF-8"?>
<!--Generator: Apple Native CoreSVG 326-->
<!DOCTYPE svg
PUBLIC "-//W3C//DTD SVG 1.1//EN"
       "http://www.w3.org/Graphics/SVG/1.1/DTD/svg11.dtd">
<svg version="1.1" xmlns="http://www.w3.org/2000/svg" xmlns:xlink="http://www.w3.org/1999/xlink" viewBox="0 0 59.5508 59.3213">
 <g>
  <rect height="59.3213" opacity="0" width="59.5508" x="0" y="0"/>
  <path d="M46.4216 52.6196L7.61719 52.6196C2.57812 52.6196 0 50.1001 0 45.1001L0 14.2407C0 11.5944 0.722179 9.63747 2.1565 8.38875ZM59.1797 14.2407L59.1797 45.1001C59.1797 47.6885 58.4885 49.6229 57.1022 50.8745L12.9122 6.70167L51.582 6.70167C56.6406 6.70167 59.1797 9.26026 59.1797 14.2407Z" fill="black" fill-opacity="0.85"/>
  <path d="M53.75 56.0962C54.4141 56.7603 55.4688 56.7603 56.1133 56.0962C56.7578 55.4321 56.7578 54.397 56.1133 53.7525L5.58594 3.24464C4.94141 2.60011 3.88672 2.58058 3.22266 3.24464C2.57812 3.86964 2.57812 4.96339 3.22266 5.60792Z" fill="black" fill-opacity="0.85"/>
 </g>
</svg>
