<?xml version="1.0" encoding="UTF-8"?>
<!--Generator: Apple Native CoreSVG 326-->
<!DOCTYPE svg
PUBLIC "-//W3C//DTD SVG 1.1//EN"
       "http://www.w3.org/Graphics/SVG/1.1/DTD/svg11.dtd">
<svg version="1.1" xmlns="http://www.w3.org/2000/svg" xmlns:xlink="http://www.w3.org/1999/xlink" viewBox="0 0 49.6875 69.5065">
 <g>
  <rect height="69.5065" opacity="0" width="49.6875" x="0" y="0"/>
  <path d="M48.0664 19.1771C48.7109 19.1771 49.3164 18.5911 49.3164 17.9076L49.3164 14.8997C49.3164 8.61068 45.1172 4.50912 38.7109 4.50912L38.2812 4.50912L38.2812 1.44271C38.2812-0.041666 37.1094-0.393229 35.957 0.446615L30.2539 4.54818C29.3359 5.21224 29.3164 5.97396 30.2539 6.65755L35.957 10.7591C37.1094 11.599 38.2812 11.2279 38.2812 9.78255L38.2812 6.8724L38.6914 6.8724C43.5938 6.8724 46.7773 10.056 46.7773 14.9193L46.7773 17.9076C46.7773 18.5911 47.3633 19.1771 48.0664 19.1771ZM1.25 50.2904C0.605469 50.2904 0 50.8763 0 51.5794L0 54.5677C0 60.8568 4.19922 64.9583 10.6055 64.9583L11.0352 64.9583L11.0352 68.0247C11.0352 69.5286 12.207 69.8802 13.3594 69.0404L19.043 64.9193C19.9805 64.2552 20 63.4935 19.043 62.8099L13.3594 58.7083C12.207 57.8685 11.0352 58.2396 11.0352 59.6849L11.0352 62.6146L10.625 62.6146C5.72266 62.6146 2.53906 59.431 2.53906 54.5482L2.53906 51.5794C2.53906 50.8763 1.95312 50.2904 1.25 50.2904Z" fill="black" fill-opacity="0.85"/>
  <path d="M14.9219 54.1771L34.3945 54.1771C37.3438 54.1771 39.5117 52.1458 39.5117 49.3138L39.5117 20.1536C39.5117 17.3216 37.3438 15.2904 34.3945 15.2904L14.9219 15.2904C11.9727 15.2904 9.82422 17.3216 9.82422 20.1536L9.82422 49.3138C9.82422 52.1458 11.9727 54.1771 14.9219 54.1771ZM15.1953 50.9154C13.9648 50.9154 13.0859 50.1146 13.0859 48.9622L13.0859 20.5052C13.0859 19.3529 13.9648 18.5326 15.1953 18.5326L34.1211 18.5326C35.3906 18.5326 36.2695 19.3529 36.2695 20.5052L36.2695 48.9622C36.2695 50.1146 35.3906 50.9154 34.1211 50.9154Z" fill="black" fill-opacity="0.85"/>
 </g>
</svg>
