<?xml version="1.0" encoding="UTF-8"?>
<!--Generator: Apple Native CoreSVG 326-->
<!DOCTYPE svg
PUBLIC "-//W3C//DTD SVG 1.1//EN"
       "http://www.w3.org/Graphics/SVG/1.1/DTD/svg11.dtd">
<svg version="1.1" xmlns="http://www.w3.org/2000/svg" xmlns:xlink="http://www.w3.org/1999/xlink" viewBox="0 0 58.0859 53.8477">
 <g>
  <rect height="53.8477" opacity="0" width="58.0859" x="0" y="0"/>
  <path d="M7.51953 53.8477L34.4141 53.8477C39.4141 53.8477 41.9336 51.2891 41.9336 46.25L41.9336 7.61719C41.9336 2.57812 39.4141 0.0195312 34.4141 0.0195312L7.51953 0.0195312C2.51953 0.0195312 0 2.57812 0 7.61719L0 46.25C0 51.2891 2.51953 53.8477 7.51953 53.8477ZM21.3672 26.9141C21.3672 25.9766 22.1289 25.1953 23.0273 25.1953L49.2383 25.1953L52.9492 25.332L51.3477 23.7695L46.875 19.5312C46.543 19.2188 46.3672 18.75 46.3672 18.3398C46.3672 17.4414 47.0117 16.7773 47.8906 16.7773C48.3398 16.7773 48.6914 16.9727 49.0039 17.3047L57.1484 25.6641C57.5781 26.0938 57.7148 26.4648 57.7148 26.9141C57.7148 27.3438 57.5781 27.7148 57.1484 28.1445L49.0039 36.5039C48.6914 36.8359 48.3398 37.0117 47.8906 37.0117C47.0117 37.0117 46.3672 36.3281 46.3672 35.4492C46.3672 35.0391 46.543 34.5898 46.875 34.2773L51.3477 30.0195L52.9492 28.4961L49.2383 28.6133L23.0273 28.6133C22.1289 28.6133 21.3672 27.832 21.3672 26.9141Z" fill="black" fill-opacity="0.85"/>
 </g>
</svg>
