<?xml version="1.0" encoding="UTF-8"?>
<!--Generator: Apple Native CoreSVG 326-->
<!DOCTYPE svg
PUBLIC "-//W3C//DTD SVG 1.1//EN"
       "http://www.w3.org/Graphics/SVG/1.1/DTD/svg11.dtd">
<svg version="1.1" xmlns="http://www.w3.org/2000/svg" xmlns:xlink="http://www.w3.org/1999/xlink" viewBox="0 0 69.091 59.4205">
 <g>
  <rect height="59.4205" opacity="0" width="69.091" x="0" y="0"/>
  <path d="M52.5045 8.62625L52.5045 19.5968C50.1041 18.6576 47.5808 19.2965 46.1568 20.3645C43.9693 18.6653 41.1959 18.8216 39.2818 19.6809L36.3131 11.5559C35.0826 8.17703 31.7623 6.61453 28.6568 7.76687C25.4147 8.95828 23.9498 12.2591 25.1803 15.5989L31.0983 31.8489L29.9459 30.6966C28.4225 29.72 26.7623 29.5833 25.1608 30.1887C22.0748 31.3411 20.5123 34.4856 21.6256 37.5716C21.899 38.3333 22.3287 39.0559 22.8365 39.72L24.0524 41.2434L12.0748 41.2434C7.13341 41.2434 4.65294 38.8216 4.65294 33.9192L4.65294 8.62625C4.65294 3.72391 7.13341 1.30203 12.0748 1.30203L45.0826 1.30203C50.024 1.30203 52.5045 3.72391 52.5045 8.62625Z" fill="black" fill-opacity="0.85"/>
  <path d="M54.8483 55.1692C64.985 51.4778 68.3443 43.3137 64.3404 32.2395L62.7584 27.8841C61.2545 23.763 58.3443 21.9661 56.0787 22.7864C55.5514 22.9817 55.3951 23.3528 55.5514 23.8216L56.3131 25.9505C56.6256 26.7903 56.3326 27.3762 55.8443 27.5716C55.2779 27.7864 54.6725 27.513 54.36 26.6536L53.8522 25.2278C52.9733 22.7864 50.8248 21.7512 48.6959 22.5325C47.7389 22.8841 47.4264 23.4309 47.7389 24.2512L48.774 27.0637C49.0865 27.9231 48.7936 28.5091 48.2858 28.7044C47.7389 28.8997 47.1334 28.6262 46.8209 27.8059L45.8834 25.1497C44.9068 22.3958 42.7975 21.7122 40.7467 22.4544C39.8483 22.7669 39.4967 23.3919 39.7897 24.1536L41.7818 29.6223C42.0748 30.4817 41.8014 31.0677 41.2936 31.263C40.7467 31.4583 40.1412 31.1848 39.8287 30.3255L33.3834 12.6497C32.7389 10.8723 31.2154 10.1692 29.7506 10.7161C28.1686 11.2825 27.4654 12.8059 28.11 14.5637L37.4264 40.0716C37.6412 40.6966 37.3483 41.1848 36.9381 41.302C36.567 41.4192 36.1764 41.3411 35.6686 40.8137L29.2623 33.9778C28.2858 32.9622 27.2897 32.7278 26.274 33.1184C24.6529 33.7239 24.067 35.1692 24.5553 36.5364C24.7311 37.0247 25.0045 37.4348 25.2975 37.7864L33.3639 47.9622C39.8092 56.0286 47.4459 57.8645 54.8483 55.1692Z" fill="black" fill-opacity="0.85"/>
 </g>
</svg>
