<?xml version="1.0" encoding="UTF-8"?>
<!--Generator: Apple Native CoreSVG 326-->
<!DOCTYPE svg
PUBLIC "-//W3C//DTD SVG 1.1//EN"
       "http://www.w3.org/Graphics/SVG/1.1/DTD/svg11.dtd">
<svg version="1.1" xmlns="http://www.w3.org/2000/svg" xmlns:xlink="http://www.w3.org/1999/xlink" viewBox="0 0 51.25 50.918">
 <g>
  <rect height="50.918" opacity="0" width="51.25" x="0" y="0"/>
  <path d="M50.8789 25.4492C50.8789 39.4922 39.4727 50.8789 25.4297 50.8789C11.3867 50.8789 0 39.4922 0 25.4492C0 11.4062 11.3867 0 25.4297 0C39.4727 0 50.8789 11.4062 50.8789 25.4492ZM3.63281 25.4492C3.63281 37.5 13.3789 47.2461 25.4297 47.2461C37.4805 47.2461 47.2266 37.5 47.2266 25.4492C47.2266 13.3984 37.4805 3.65234 25.4297 3.65234C13.3789 3.65234 3.63281 13.3984 3.63281 25.4492Z" fill="black" fill-opacity="0.85"/>
  <path d="M11.7188 15.5469L15.3717 19.1998C14.9597 19.9192 14.7461 20.8137 14.7461 21.8555L14.7461 31.9727L14.082 31.9727C11.8555 31.9727 10.7422 30.8789 10.7422 28.6523L10.7422 16.7188C10.7422 15.9355 10.8875 15.2848 11.1803 14.7753C11.3082 15.0556 11.4889 15.317 11.7188 15.5469ZM34.5898 16.7188L34.5898 17.0898L20.9331 17.0898L17.2447 13.3984L31.2305 13.3984C33.457 13.3984 34.5898 14.5508 34.5898 16.7188Z" fill="black" fill-opacity="0.85"/>
  <path d="M33.3008 37.1289L19.5508 37.1289C17.3242 37.1289 16.2109 36.0156 16.2109 33.7891L16.2109 21.8555C16.2109 21.2553 16.2962 20.7345 16.4701 20.2982ZM40.0586 21.8555L40.0586 33.7891C40.0586 34.6305 39.8968 35.313 39.5748 35.8358C39.47 35.6717 39.3442 35.5161 39.1992 35.3711L22.3967 18.5547L36.6992 18.5547C38.9258 18.5547 40.0586 19.6875 40.0586 21.8555Z" fill="black" fill-opacity="0.85"/>
  <path d="M36.5625 37.9883C36.9531 38.3984 37.6172 38.3984 38.0273 37.9883C38.4375 37.5781 38.4375 36.9531 38.0273 36.5234L14.375 12.8711C13.9648 12.4609 13.3008 12.4609 12.8906 12.8711C12.4805 13.2812 12.5 13.9453 12.8906 14.3359Z" fill="black" fill-opacity="0.85"/>
 </g>
</svg>
