<?xml version="1.0" encoding="UTF-8"?>
<!--Generator: Apple Native CoreSVG 326-->
<!DOCTYPE svg
PUBLIC "-//W3C//DTD SVG 1.1//EN"
       "http://www.w3.org/Graphics/SVG/1.1/DTD/svg11.dtd">
<svg version="1.1" xmlns="http://www.w3.org/2000/svg" xmlns:xlink="http://www.w3.org/1999/xlink" viewBox="0 0 54.5703 45.957">
 <g>
  <rect height="45.957" opacity="0" width="54.5703" x="0" y="0"/>
  <path d="M5.25391 45.957L48.9453 45.957C52.4219 45.957 54.1992 44.2773 54.1992 40.7422L54.1992 30.3516C54.1992 26.8164 52.4219 25.1367 48.9453 25.1367L5.25391 25.1367C1.77734 25.1367 0 26.8164 0 30.3516L0 40.7422C0 44.2773 1.77734 45.957 5.25391 45.957Z" fill="black" fill-opacity="0.85"/>
  <path d="M5.25391 20.8594L48.9453 20.8594C52.4219 20.8594 54.1992 19.1992 54.1992 15.6445L54.1992 5.25391C54.1992 1.71875 52.4219 0.0585938 48.9453 0.0585938L5.25391 0.0585938C1.77734 0.0585938 0 1.71875 0 5.25391L0 15.6445C0 19.1992 1.77734 20.8594 5.25391 20.8594Z" fill="black" fill-opacity="0.85"/>
 </g>
</svg>
