<?xml version="1.0" encoding="UTF-8"?>
<!--Generator: Apple Native CoreSVG 326-->
<!DOCTYPE svg
PUBLIC "-//W3C//DTD SVG 1.1//EN"
       "http://www.w3.org/Graphics/SVG/1.1/DTD/svg11.dtd">
<svg version="1.1" xmlns="http://www.w3.org/2000/svg" xmlns:xlink="http://www.w3.org/1999/xlink" viewBox="0 0 56.0547 68.3398">
 <g>
  <rect height="68.3398" opacity="0" width="56.0547" x="0" y="0"/>
  <path d="M41.6992 10.7031L41.6992 12.1094L21.5039 12.1094C14.7656 12.1094 10.8594 16.0547 10.8594 22.832L10.8594 53.1055L10.2734 53.1055C5.29297 53.1055 2.73438 50.5273 2.73438 45.5078L2.73438 10.7031C2.73438 5.66406 5.27344 3.10547 10.2734 3.10547L34.1797 3.10547C39.1797 3.10547 41.6992 5.66406 41.6992 10.7031Z" fill="black" fill-opacity="0.85"/>
  <path d="M52.9297 22.832C52.9297 17.7734 50.4102 15.2344 45.4102 15.2344L21.5039 15.2344C16.5039 15.2344 13.9648 17.7734 13.9648 22.832L13.9648 57.6172C13.9648 62.6562 16.5234 65.2344 21.5039 65.2344L45.4102 65.2344C50.3711 65.2344 52.9297 62.6562 52.9297 57.6172Z" fill="black" fill-opacity="0.85"/>
 </g>
</svg>
