<?xml version="1.0" encoding="UTF-8"?>
<!--Generator: Apple Native CoreSVG 326-->
<!DOCTYPE svg
PUBLIC "-//W3C//DTD SVG 1.1//EN"
       "http://www.w3.org/Graphics/SVG/1.1/DTD/svg11.dtd">
<svg version="1.1" xmlns="http://www.w3.org/2000/svg" xmlns:xlink="http://www.w3.org/1999/xlink" viewBox="0 0 62.8668 56.8164">
 <g>
  <rect height="56.8164" opacity="0" width="62.8668" x="0" y="0"/>
  <path d="M49.4022 7.32422L49.4022 19.0672C48.6 18.1794 47.5359 17.7128 46.3358 17.7556L46.3358 7.5C46.3358 4.62891 44.7342 3.06641 41.9217 3.06641L9.03107 3.06641C6.15998 3.06641 4.61701 4.62891 4.61701 7.5L4.61701 32.4414C4.61701 35.3125 6.21857 36.875 9.03107 36.875L21.412 36.875L23.9423 39.9414L8.97248 39.9414C4.03107 39.9414 1.5506 37.5195 1.5506 32.6172L1.5506 7.32422C1.5506 2.42188 4.03107 0 8.97248 0L41.9803 0C46.9217 0 49.4022 2.42188 49.4022 7.32422Z" fill="black" fill-opacity="0.85"/>
  <path d="M51.3944 53.8281C61.0233 50.332 65.3787 41.5234 61.3944 30.5273L59.5779 25.5469C57.5858 20.1172 53.992 17.8906 49.6756 19.3945C48.5428 17.8906 46.7654 17.3438 44.7928 18.0664C44.0701 18.3203 43.4256 18.7109 42.8006 19.1992C41.5897 17.5586 39.6561 16.9727 37.6248 17.6953C37.0584 17.9102 36.492 18.2422 35.9451 18.6328L33.0154 10.5859C31.9803 7.71484 29.4022 6.5625 26.8045 7.48047C24.1483 8.45703 22.9178 10.9961 23.9529 13.8672L31.3748 34.1797C31.3944 34.3164 31.3748 34.4141 31.2576 34.4727C31.16 34.5117 31.0623 34.4727 30.9842 34.375L27.449 30.4883C26.0037 28.9258 24.324 28.4961 22.7029 29.0625C20.4959 29.8828 19.0701 31.9922 19.9881 34.4922C20.2225 35.1562 20.6912 35.9766 21.2186 36.6406L29.7928 47.0312C35.9451 54.4727 43.2498 56.7969 51.3944 53.8281ZM50.4764 50.9961C43.8162 53.418 37.5858 52.0117 31.9998 45.2344L23.4256 34.8633C23.1326 34.5508 22.9569 34.2383 22.8006 33.8086C22.4686 32.9102 22.8787 31.9336 23.9139 31.543C24.7342 31.25 25.4569 31.582 26.16 32.3242L31.9608 38.3984C32.8201 39.3359 33.6404 39.4336 34.4412 39.1602C35.3592 38.8086 35.7889 37.8516 35.4178 36.8164L26.6287 12.6953C26.2186 11.5625 26.6678 10.5273 27.7615 10.1172C28.8358 9.72656 29.8123 10.2539 30.2225 11.4062L36.4725 28.5352C36.7459 29.2773 37.5272 29.6289 38.2889 29.3555C39.0115 29.1016 39.3631 28.3203 39.0897 27.5781L36.8045 21.3477C37.2147 20.9961 37.742 20.625 38.2498 20.4688C39.5194 20 40.5936 20.5469 41.1014 21.9336L42.9959 27.168C43.3084 27.9883 44.1092 28.2617 44.8123 28.0078C45.5154 27.7539 45.9256 27.0312 45.6131 26.2109L43.992 21.6992C44.3631 21.3281 44.91 20.9961 45.3983 20.8008C46.7069 20.3516 47.7811 20.8789 48.2694 22.2852L49.5584 25.8203C49.8514 26.6406 50.6717 26.9141 51.3748 26.6602C52.0389 26.4258 52.4686 25.6836 52.1756 24.8633L51.1404 22.0312C53.4451 21.1914 55.5545 22.9492 56.9998 26.9336L58.5428 31.1914C62.0584 40.8203 58.699 47.9883 50.4764 50.9961Z" fill="black" fill-opacity="0.85"/>
 </g>
</svg>
