<?xml version="1.0" encoding="UTF-8"?>
<!--Generator: Apple Native CoreSVG 326-->
<!DOCTYPE svg
PUBLIC "-//W3C//DTD SVG 1.1//EN"
       "http://www.w3.org/Graphics/SVG/1.1/DTD/svg11.dtd">
<svg version="1.1" xmlns="http://www.w3.org/2000/svg" xmlns:xlink="http://www.w3.org/1999/xlink" viewBox="0 0 61.8945 48.4961">
 <g>
  <rect height="48.4961" opacity="0" width="61.8945" x="0" y="0"/>
  <path d="M22.4219 48.4961L39.1016 48.4961C44.0625 48.4961 46.6211 45.957 46.6211 40.8984L46.6211 7.61719C46.6211 2.55859 44.1016 0.0195312 39.1016 0.0195312L22.4219 0.0195312C17.4219 0.0195312 14.9023 2.55859 14.9023 7.61719L14.9023 40.8984C14.9023 45.957 17.4609 48.4961 22.4219 48.4961ZM22.6172 45.0391C19.8047 45.0391 18.3594 43.4961 18.3594 40.8398L18.3594 7.67578C18.3594 4.96094 19.8047 3.47656 22.6172 3.47656L38.9258 3.47656C41.7188 3.47656 43.1641 4.96094 43.1641 7.67578L43.1641 40.8398C43.1641 43.4961 41.7188 45.0391 38.9258 45.0391Z" fill="black" fill-opacity="0.85"/>
  <path d="M0 29.8828C0 31.1328 1.01562 31.6211 2.08984 30.9766L11.0547 25.5273C12.0898 24.8633 12.0703 23.6523 11.0547 23.0273L2.07031 17.5195C0.996094 16.875 0 17.4023 0 18.6328ZM61.5234 29.8828L61.5234 18.6328C61.5234 17.4023 60.5078 16.8555 59.4531 17.5195L50.4688 23.0273C49.4531 23.6328 49.4141 24.8828 50.4688 25.5273L59.4336 30.9766C60.4883 31.6406 61.5234 31.1328 61.5234 29.8828Z" fill="black" fill-opacity="0.85"/>
 </g>
</svg>
