<?xml version="1.0" encoding="UTF-8"?>
<!--Generator: Apple Native CoreSVG 326-->
<!DOCTYPE svg
PUBLIC "-//W3C//DTD SVG 1.1//EN"
       "http://www.w3.org/Graphics/SVG/1.1/DTD/svg11.dtd">
<svg version="1.1" xmlns="http://www.w3.org/2000/svg" xmlns:xlink="http://www.w3.org/1999/xlink" viewBox="0 0 62.6466 48.4961">
 <g>
  <rect height="48.4961" opacity="0" width="62.6466" x="0" y="0"/>
  <path d="M22.8077 48.4961L39.4874 48.4961C44.4483 48.4961 47.0069 45.957 47.0069 40.8984L47.0069 7.61719C47.0069 2.55859 44.4678 0.0195312 39.4874 0.0195312L22.8077 0.0195312C17.8077 0.0195312 15.2882 2.55859 15.2882 7.61719L15.2882 40.8984C15.2882 45.957 17.8272 48.4961 22.8077 48.4961ZM22.9835 45.0391C20.1905 45.0391 18.7452 43.4961 18.7452 40.8398L18.7452 7.67578C18.7452 4.96094 20.1905 3.47656 22.9835 3.47656L39.2921 3.47656C42.1046 3.47656 43.5499 4.96094 43.5499 7.67578L43.5499 40.8398C43.5499 43.4961 42.1046 45.0391 39.2921 45.0391Z" fill="black" fill-opacity="0.85"/>
  <path d="M11.8311 29.8828L11.8311 18.6328C11.8311 17.4023 10.8155 16.8555 9.76081 17.5195L0.776436 23.0273C-0.239189 23.6328-0.278251 24.8828 0.776436 25.5273L9.74128 30.9766C10.796 31.6406 11.8311 31.1328 11.8311 29.8828ZM50.4639 29.8828C50.4639 31.1328 51.4796 31.6406 52.5342 30.9766L61.5186 25.5273C62.5538 24.8828 62.5342 23.6328 61.5186 23.0273L52.5342 17.5195C51.4796 16.8555 50.4639 17.4023 50.4639 18.6328Z" fill="black" fill-opacity="0.85"/>
 </g>
</svg>
