<?xml version="1.0" encoding="UTF-8"?>
<!--Generator: Apple Native CoreSVG 326-->
<!DOCTYPE svg
PUBLIC "-//W3C//DTD SVG 1.1//EN"
       "http://www.w3.org/Graphics/SVG/1.1/DTD/svg11.dtd">
<svg version="1.1" xmlns="http://www.w3.org/2000/svg" xmlns:xlink="http://www.w3.org/1999/xlink" viewBox="0 0 46.2891 45.918">
 <g>
  <rect height="45.918" opacity="0" width="46.2891" x="0" y="0"/>
  <path d="M45.918 7.53906L45.918 38.3984C45.918 43.3594 43.3594 45.918 38.3008 45.918L7.59766 45.918C2.55859 45.918 0 43.3984 0 38.3984L0 7.53906C0 2.53906 2.55859 0 7.59766 0L38.3008 0C43.3594 0 45.918 2.55859 45.918 7.53906ZM16.9531 15.8594C14.668 15.8594 13.5156 17.0312 13.5156 19.2578L13.5156 31.4648C13.5156 33.75 14.668 34.9023 16.9531 34.9023L34.5117 34.9023C36.7969 34.9023 37.9492 33.75 37.9492 31.4648L37.9492 19.2578C37.9492 17.0312 36.7969 15.8594 34.5117 15.8594ZM11.3477 10.5859C9.04297 10.5859 7.91016 11.7578 7.91016 13.9844L7.91016 26.2109C7.91016 28.4961 9.04297 29.6094 11.3477 29.6094L12.0117 29.6094L12.0117 19.2578C12.0117 16.1914 13.8086 14.3555 16.9531 14.3555L32.3437 14.3555L32.3438 13.9844C32.3438 11.7578 31.1914 10.5859 28.9062 10.5859Z" fill="black" fill-opacity="0.85"/>
 </g>
</svg>
