<?xml version="1.0" encoding="UTF-8"?>
<!--Generator: Apple Native CoreSVG 326-->
<!DOCTYPE svg
PUBLIC "-//W3C//DTD SVG 1.1//EN"
       "http://www.w3.org/Graphics/SVG/1.1/DTD/svg11.dtd">
<svg version="1.1" xmlns="http://www.w3.org/2000/svg" xmlns:xlink="http://www.w3.org/1999/xlink" viewBox="0 0 69.2578 45.0195">
 <g>
  <rect height="45.0195" opacity="0" width="69.2578" x="0" y="0"/>
  <path d="M4.66797 21.4453L29.1016 21.4453C32.1875 21.4453 33.7695 19.9023 33.7695 16.6797L33.7695 4.78516C33.7695 1.54297 32.1875 0.0390625 29.1016 0.0390625L4.66797 0.0390625C1.58203 0.0390625 0 1.54297 0 4.78516L0 16.6797C0 19.9023 1.58203 21.4453 4.66797 21.4453ZM10.8398 45.0195L32.207 45.0195C35.3125 45.0195 36.8945 43.4961 36.8945 40.2734L36.8945 31.6016C36.8945 28.3594 35.3125 26.8359 32.207 26.8359L10.8398 26.8359C7.73438 26.8359 6.15234 28.3594 6.15234 31.6016L6.15234 40.2734C6.15234 43.4961 7.73438 45.0195 10.8398 45.0195ZM46.4062 41.8945L64.1992 41.8945C67.3047 41.8945 68.8867 40.3711 68.8867 37.1484L68.8867 8.22266C68.8867 5 67.3047 3.45703 64.1992 3.45703L46.4062 3.45703C43.3008 3.45703 41.7188 5 41.7188 8.22266L41.7188 37.1484C41.7188 40.3711 43.3008 41.8945 46.4062 41.8945Z" fill="black" fill-opacity="0.85"/>
 </g>
</svg>
