<?xml version="1.0" encoding="UTF-8"?>
<!--Generator: Apple Native CoreSVG 326-->
<!DOCTYPE svg
PUBLIC "-//W3C//DTD SVG 1.1//EN"
       "http://www.w3.org/Graphics/SVG/1.1/DTD/svg11.dtd">
<svg version="1.1" xmlns="http://www.w3.org/2000/svg" xmlns:xlink="http://www.w3.org/1999/xlink" viewBox="0 0 34.9609 55.9961">
 <g>
  <rect height="55.9961" opacity="0" width="34.9609" x="0" y="0"/>
  <path d="M0 18.6328L34.5898 18.6328L34.5898 5.15625C34.5898 2.07031 32.6172 0 29.668 0L4.92188 0C1.97266 0 0 2.07031 0 5.15625ZM6.89453 14.0039C6.25 14.0039 5.76172 13.5352 5.76172 12.8711L5.76172 7.01172C5.76172 6.36719 6.23047 5.87891 6.89453 5.87891C7.53906 5.87891 8.02734 6.34766 8.02734 7.01172L8.02734 12.8711C8.02734 13.5156 7.55859 14.0039 6.89453 14.0039ZM0 46.4062L34.5898 46.4062L34.5898 21.3477L0 21.3477ZM6.89453 33.1055C6.25 33.1055 5.76172 32.6367 5.76172 31.9531L5.76172 26.1133C5.76172 25.4688 6.23047 24.9805 6.89453 24.9805C7.53906 24.9805 8.02734 25.4492 8.02734 26.1133L8.02734 31.9531C8.02734 32.6172 7.55859 33.1055 6.89453 33.1055ZM0 49.1211L0 50.8398C0 53.9258 1.97266 55.9961 4.92188 55.9961L29.668 55.9961C32.6172 55.9961 34.5898 53.9258 34.5898 50.8398L34.5898 49.1211Z" fill="black" fill-opacity="0.85"/>
 </g>
</svg>
