<?xml version="1.0" encoding="UTF-8"?>
<!--Generator: Apple Native CoreSVG 326-->
<!DOCTYPE svg
PUBLIC "-//W3C//DTD SVG 1.1//EN"
       "http://www.w3.org/Graphics/SVG/1.1/DTD/svg11.dtd">
<svg version="1.1" xmlns="http://www.w3.org/2000/svg" xmlns:xlink="http://www.w3.org/1999/xlink" viewBox="0 0 51.25 50.918">
 <g>
  <rect height="50.918" opacity="0" width="51.25" x="0" y="0"/>
  <path d="M50.8789 25.4492C50.8789 39.4531 39.4531 50.8789 25.4297 50.8789C11.4258 50.8789 0 39.4531 0 25.4492C0 11.4258 11.4258 0 25.4297 0C39.4531 0 50.8789 11.4258 50.8789 25.4492ZM38.2617 26.2695L38.2617 27.5977C38.2617 30.1562 36.4844 31.8164 33.8672 31.8164L23.6719 31.8164L23.6719 28.5547C23.6719 27.7734 23.2031 27.3047 22.4414 27.3047C22.1289 27.3047 21.7578 27.4219 21.4844 27.6562L15.6836 32.3633C15.0195 32.9102 15.0195 33.7891 15.6836 34.3555L21.4844 39.082C21.7773 39.3359 22.1289 39.4531 22.4414 39.4531C23.2031 39.4531 23.6719 38.9648 23.6719 38.2031L23.6719 34.8242L33.6523 34.8242C38.2812 34.8242 41.3281 32.0312 41.3281 27.7344L41.3281 26.2695C41.3281 25.4102 40.6641 24.7656 39.8047 24.7656C38.9258 24.7656 38.2617 25.4102 38.2617 26.2695ZM27.2656 12.8125L27.2656 16.1719L17.2852 16.1719C12.6562 16.1719 9.60938 18.9648 9.60938 23.2617L9.60938 24.7266C9.60938 25.5664 10.293 26.2305 11.1133 26.2305C11.9922 26.2305 12.6758 25.5664 12.6758 24.7266L12.6758 23.3984C12.6758 20.8398 14.4336 19.1602 17.0703 19.1602L27.2656 19.1602L27.2656 22.4609C27.2656 23.2422 27.7344 23.7109 28.4961 23.7109C28.8086 23.7109 29.1797 23.5938 29.4531 23.3594L35.2539 18.6523C35.918 18.1055 35.918 17.207 35.2539 16.6602L29.4531 11.9336C29.1797 11.6797 28.8086 11.5625 28.4961 11.5625C27.7344 11.5625 27.2656 12.0508 27.2656 12.8125Z" fill="black" fill-opacity="0.85"/>
 </g>
</svg>
