<?xml version="1.0" encoding="UTF-8"?>
<!--Generator: Apple Native CoreSVG 326-->
<!DOCTYPE svg
PUBLIC "-//W3C//DTD SVG 1.1//EN"
       "http://www.w3.org/Graphics/SVG/1.1/DTD/svg11.dtd">
<svg version="1.1" xmlns="http://www.w3.org/2000/svg" xmlns:xlink="http://www.w3.org/1999/xlink" viewBox="0 0 42.3047 53.8477">
 <g>
  <rect height="53.8477" opacity="0" width="42.3047" x="0" y="0"/>
  <path d="M8.4375 22.8125C7.69531 22.8125 7.24609 22.3828 7.24609 21.6797C7.24609 21.5039 7.30469 21.2305 7.40234 20.957L11.3672 10.2539C11.6797 9.35547 12.207 8.92578 13.0859 8.92578C13.9844 8.92578 14.5312 9.35547 14.8438 10.2539L18.8086 20.957C18.9062 21.25 18.9453 21.5039 18.9453 21.6797C18.9453 22.3828 18.5352 22.8125 17.7734 22.8125C17.207 22.8125 16.8164 22.4805 16.6211 21.7773L15.5664 18.9453L10.625 18.9453L9.58984 21.7773C9.39453 22.5 9.02344 22.8125 8.4375 22.8125ZM11.1719 17.0508L15.0391 17.0508L13.1641 11.543L13.0273 11.543ZM24.1992 13.1836C23.3984 13.1836 22.8125 12.5781 22.8125 11.8164C22.8125 11.0547 23.3984 10.4688 24.1992 10.4688L33.4961 10.4688C34.2773 10.4688 34.8633 11.0547 34.8633 11.8164C34.8633 12.5781 34.2773 13.1836 33.4961 13.1836ZM24.1992 22.0117C23.3984 22.0117 22.8125 21.4062 22.8125 20.625C22.8125 19.8828 23.3984 19.2969 24.1992 19.2969L33.4961 19.2969C34.2773 19.2969 34.8633 19.8828 34.8633 20.625C34.8633 21.4062 34.2773 22.0117 33.4961 22.0117ZM6.95312 44.2188L6.95312 31.3672C6.95312 29.1602 8.16406 28.0273 10.3125 28.0273L31.6406 28.0273C33.8477 28.0273 34.9805 29.1602 34.9805 31.3672L34.9805 44.0234L32.6562 44.0234L27.2656 37.9102C26.7773 37.3438 26.0742 37.1094 25.4297 37.1094C24.8047 37.1094 24.1797 37.3633 23.5547 37.8906L18.1641 42.6367L16.0352 40.7031C15.5273 40.2344 14.9609 40.0195 14.4141 40.0195C13.9062 40.0195 13.3789 40.2344 12.8711 40.7031L9.27734 44.2188ZM16.2305 37.8711C17.793 37.8711 19.082 36.582 19.082 35.0391C19.082 33.4766 17.793 32.2266 16.2305 32.1875C14.668 32.1484 13.3984 33.4766 13.3984 35.0391C13.3984 36.582 14.668 37.8711 16.2305 37.8711ZM0 46.25C0 51.2891 2.51953 53.8477 7.51953 53.8477L34.4141 53.8477C39.4141 53.8477 41.9336 51.2891 41.9336 46.25L41.9336 7.61719C41.9336 2.57812 39.4141 0.0195312 34.4141 0.0195312L7.51953 0.0195312C2.51953 0.0195312 0 2.57812 0 7.61719Z" fill="black" fill-opacity="0.85"/>
 </g>
</svg>
