<?xml version="1.0" encoding="UTF-8"?>
<!--Generator: Apple Native CoreSVG 326-->
<!DOCTYPE svg
PUBLIC "-//W3C//DTD SVG 1.1//EN"
       "http://www.w3.org/Graphics/SVG/1.1/DTD/svg11.dtd">
<svg version="1.1" xmlns="http://www.w3.org/2000/svg" xmlns:xlink="http://www.w3.org/1999/xlink" viewBox="0 0 51.25 50.918">
 <g>
  <rect height="50.918" opacity="0" width="51.25" x="0" y="0"/>
  <path d="M25.4297 50.8789C39.4727 50.8789 50.8789 39.4922 50.8789 25.4492C50.8789 11.4062 39.4727 0 25.4297 0C11.3867 0 0 11.4062 0 25.4492C0 39.4922 11.3867 50.8789 25.4297 50.8789ZM25.4297 47.2461C13.3789 47.2461 3.63281 37.5 3.63281 25.4492C3.63281 13.3984 13.3789 3.65234 25.4297 3.65234C37.4805 3.65234 47.2266 13.3984 47.2266 25.4492C47.2266 37.5 37.4805 47.2461 25.4297 47.2461Z" fill="black" fill-opacity="0.85"/>
  <path d="M19.0039 36.9336C20.1172 36.9336 20.7422 36.2109 20.7422 35.0391L20.7422 28.2031L25.7812 28.2031L30.332 35.7812C30.8398 36.6211 31.2891 36.9336 32.0508 36.9336C32.9883 36.9336 33.6133 36.3281 33.6133 35.4688C33.6133 34.9805 33.4961 34.6289 33.2031 34.1797L29.1797 27.7344C32.1875 26.8359 34.1406 24.2383 34.1406 21.0742C34.1406 16.6992 30.9961 13.8672 26.1328 13.8672L18.9648 13.8672C17.8711 13.8672 17.2852 14.6484 17.2852 15.8008L17.2852 35.0391C17.2852 36.1719 17.8906 36.9336 19.0039 36.9336ZM20.7422 25.625L20.7422 16.5625L25.7617 16.5625C28.7109 16.5625 30.7227 18.2617 30.7227 21.1523C30.7227 23.9648 28.75 25.625 25.6836 25.625Z" fill="black" fill-opacity="0.85"/>
 </g>
</svg>
