<?xml version="1.0" encoding="UTF-8"?>
<!--Generator: Apple Native CoreSVG 326-->
<!DOCTYPE svg
PUBLIC "-//W3C//DTD SVG 1.1//EN"
       "http://www.w3.org/Graphics/SVG/1.1/DTD/svg11.dtd">
<svg version="1.1" xmlns="http://www.w3.org/2000/svg" xmlns:xlink="http://www.w3.org/1999/xlink" viewBox="0 0 25.2344 37.2852">
 <g>
  <rect height="37.2852" opacity="0" width="25.2344" x="0" y="0"/>
  <path d="M1.875 37.2852C3.00781 37.2852 3.75 36.543 3.75 35.3711L3.75 22.3047L12.207 22.3047C12.4805 22.3047 12.832 22.2852 13.0859 22.2656L20.9766 36.1523C21.4258 36.9531 21.9531 37.2852 22.7539 37.2852C23.8086 37.2852 24.6484 36.5625 24.6484 35.5273C24.6484 35.1172 24.4922 34.7461 24.2383 34.2969L16.9336 21.6602C21.7773 20.3125 24.6289 16.4453 24.6289 11.3477C24.6289 4.74609 20 0.566406 12.832 0.566406L1.875 0.566406C0.800781 0.566406 0 1.36719 0 2.5L0 35.3711C0 36.543 0.742188 37.2852 1.875 37.2852ZM3.75 18.9062L3.75 3.98438L12.4609 3.98438C17.7344 3.98438 20.7812 6.69922 20.7812 11.4453C20.7812 16.1914 17.832 18.9062 12.5781 18.9062Z" fill="black" fill-opacity="0.85"/>
 </g>
</svg>
