<?xml version="1.0" encoding="UTF-8"?>
<!--Generator: Apple Native CoreSVG 326-->
<!DOCTYPE svg
PUBLIC "-//W3C//DTD SVG 1.1//EN"
       "http://www.w3.org/Graphics/SVG/1.1/DTD/svg11.dtd">
<svg version="1.1" xmlns="http://www.w3.org/2000/svg" xmlns:xlink="http://www.w3.org/1999/xlink" viewBox="0 0 58.9258 44.5898">
 <g>
  <rect height="44.5898" opacity="0" width="58.9258" x="0" y="0"/>
  <path d="M58.5547 18.4766L58.5547 26.0742C58.5547 39.2188 53.6328 44.5508 39.3555 44.5508L19.1992 44.5508C4.92188 44.5508 0 39.2188 0 26.0742L0 18.4766C0 5.33203 4.92188 0 19.1992 0L39.3555 0C53.6328 0 58.5547 5.33203 58.5547 18.4766ZM40.9961 13.5156L37.1484 28.3789L37.0312 28.3789L33.125 13.5156C32.832 12.207 32.0312 11.5625 30.8008 11.5625C29.3164 11.5625 28.4375 12.4414 28.4375 13.9062L28.4375 31.5039C28.4375 32.4609 29.0234 33.0859 29.9023 33.0859C30.8203 33.0859 31.4062 32.4609 31.4062 31.5039L31.4062 16.7578L31.543 16.7578L35.3711 31.1523C35.6055 32.0703 36.1328 32.7344 37.0898 32.7344C38.0859 32.7344 38.5547 32.0898 38.8086 31.1328L42.6172 16.7578L42.7539 16.7578L42.7539 31.5039C42.7539 32.4805 43.3008 33.0859 44.2188 33.0859C45.1953 33.0859 45.7031 32.4609 45.7031 31.5039L45.7031 13.9062C45.7031 12.3828 44.8242 11.5625 43.3789 11.5625C42.0508 11.5625 41.2695 12.207 40.9961 13.5156ZM14.1602 11.8359C13.1055 11.8359 12.5195 12.4805 12.5195 13.5547L12.5195 31.2891C12.5195 32.3242 13.1445 33.0273 14.1992 33.0273C15.2344 33.0273 15.8594 32.3438 15.8594 31.2891L15.8594 24.5312L18.6133 24.5312L21.5234 31.6992C21.8555 32.5391 22.3633 33.0273 23.2617 33.0273C24.0234 33.0273 24.8242 32.5391 24.8242 31.4258C24.8242 31.1719 24.668 30.7031 24.4727 30.1953L21.7773 23.8281C23.8477 22.832 24.8828 20.6641 24.8828 18.1641C24.8828 14.1016 22.4805 11.8359 18.5156 11.8359ZM21.5234 18.2422C21.5234 20.4297 20.5078 22.0312 18.2227 22.0312L15.8594 22.0312L15.8594 14.5117L18.2031 14.5117C20.3125 14.5117 21.5234 15.9766 21.5234 18.2422Z" fill="black" fill-opacity="0.85"/>
 </g>
</svg>
