<?xml version="1.0" encoding="UTF-8"?>
<!--Generator: Apple Native CoreSVG 326-->
<!DOCTYPE svg
PUBLIC "-//W3C//DTD SVG 1.1//EN"
       "http://www.w3.org/Graphics/SVG/1.1/DTD/svg11.dtd">
<svg version="1.1" xmlns="http://www.w3.org/2000/svg" xmlns:xlink="http://www.w3.org/1999/xlink" viewBox="0 0 58.9258 44.5898">
 <g>
  <rect height="44.5898" opacity="0" width="58.9258" x="0" y="0"/>
  <path d="M19.1992 44.5508L39.3555 44.5508C53.6328 44.5508 58.5547 39.2188 58.5547 26.0742L58.5547 18.4766C58.5547 5.33203 53.6328 0 39.3555 0L19.1992 0C4.92188 0 0 5.33203 0 18.4766L0 26.0742C0 39.2188 4.92188 44.5508 19.1992 44.5508ZM19.1992 41.0938C7.22656 41.0938 3.45703 37.0703 3.45703 26.0742L3.45703 18.4766C3.45703 7.48047 7.22656 3.47656 19.1992 3.47656L39.3555 3.47656C51.3281 3.47656 55.0977 7.48047 55.0977 18.4766L55.0977 26.0742C55.0977 37.0703 51.3281 41.0938 39.3555 41.0938Z" fill="black" fill-opacity="0.85"/>
  <path d="M14.5703 32.7734C15.5664 32.7734 16.1719 32.1094 16.1719 31.0938L16.1719 24.4727L18.8867 24.4727L21.7383 31.4844C22.0703 32.3047 22.5391 32.7734 23.418 32.7734C24.1602 32.7734 24.9219 32.3047 24.9219 31.2109C24.9219 30.957 24.7852 30.5273 24.5898 30.0391L21.9336 23.7891C23.9648 22.8125 24.9805 20.7031 24.9805 18.2617C24.9805 14.3164 22.6367 12.0898 18.7891 12.0898L14.5508 12.0898C13.5156 12.0898 12.9297 12.7148 12.9297 13.75L12.9297 31.0938C12.9297 32.0898 13.5352 32.7734 14.5703 32.7734ZM16.1719 22.0508L16.1719 14.668L18.4766 14.668C20.5469 14.668 21.7188 16.1133 21.7188 18.3398C21.7188 20.4688 20.7227 22.0508 18.4961 22.0508ZM29.8828 32.832C30.7617 32.832 31.3281 32.2266 31.3281 31.2891L31.3281 16.8555L31.4648 16.8555L35.2148 30.957C35.4297 31.8359 35.957 32.4609 36.8945 32.4609C37.832 32.4609 38.3203 31.8555 38.5547 30.9375L42.3047 16.8555L42.4219 16.8555L42.4219 31.2891C42.4219 32.2461 42.9688 32.832 43.8477 32.832C44.7852 32.832 45.293 32.207 45.293 31.2891L45.293 14.082C45.293 12.6172 44.4336 11.8164 43.0273 11.8164C41.7383 11.8164 40.9961 12.4414 40.7031 13.7109L36.9531 28.2617L36.8359 28.2617L33.0078 13.7109C32.7148 12.4414 31.9336 11.8164 30.7422 11.8164C29.3164 11.8164 28.457 12.6758 28.457 14.082L28.457 31.2891C28.457 32.207 29.0234 32.832 29.8828 32.832Z" fill="black" fill-opacity="0.85"/>
 </g>
</svg>
