<?xml version="1.0" encoding="UTF-8"?>
<!--Generator: Apple Native CoreSVG 326-->
<!DOCTYPE svg
PUBLIC "-//W3C//DTD SVG 1.1//EN"
       "http://www.w3.org/Graphics/SVG/1.1/DTD/svg11.dtd">
<svg version="1.1" xmlns="http://www.w3.org/2000/svg" xmlns:xlink="http://www.w3.org/1999/xlink" viewBox="0 0 63.5074 37.2461">
 <g>
  <rect height="37.2461" opacity="0" width="63.5074" x="0" y="0"/>
  <path d="M1.45094 37.2461L4.47829 37.2461C5.6111 37.2461 6.15797 36.7188 6.35329 35.918C9.26344 24.4727 9.43922 12.6367 5.65016 0.9375C5.43532 0.273438 4.9861 0.0390625 4.26344 0.0390625L3.32594 0.0390625C2.66188 0.0390625 2.13454 0.449219 2.32985 1.28906C5.16188 13.6523 4.38063 24.1602 0.14235 35.2734C-0.267806 36.3867 0.220475 37.2461 1.45094 37.2461ZM58.658 37.2461L61.5095 37.2461C62.8963 37.2461 63.3064 36.3086 63.0525 35.2344C59.5173 18.9648 50.2986 7.87109 41.2752 0.761719C40.4939 0.15625 40.0642 0.0390625 39.4978 0.0390625L38.5408 0.0390625C37.8767 0.0390625 37.447 0.800781 38.0134 1.38672C48.9314 12.5195 54.1658 22.8125 56.4509 35.4297C56.6463 36.4844 57.115 37.2461 58.658 37.2461ZM24.4978 6.11328L25.2791 6.11328C26.2752 6.11328 26.6658 5.17578 26.1189 4.375C25.0642 2.8125 23.9509 1.40625 23.1502 0.546875C22.7791 0.136719 22.408 0 21.783 0L21.1775 0C20.4353 0 19.947 0.644531 20.4353 1.36719C21.5486 3.06641 22.2713 4.29688 22.7986 5.19531C23.1697 5.87891 23.6189 6.11328 24.4978 6.11328ZM29.322 18.457L30.9236 18.457C31.9783 18.457 32.3689 17.7344 32.0564 16.8359C31.49 15.1953 30.865 13.5742 30.3181 12.3242C29.9666 11.582 29.5759 11.2891 28.7166 11.2891L27.5056 11.2891C26.6853 11.2891 26.0798 11.7969 26.4314 12.8516C26.9783 14.4531 27.408 15.9961 27.6814 17.1289C27.8963 17.9883 28.3455 18.457 29.322 18.457ZM31.9002 37.2461L33.4822 37.2461C34.4978 37.2461 35.0447 36.6797 35.0252 35.6055C34.8884 32.207 34.4588 27.9688 33.8142 25.2344C33.5994 24.3359 32.9939 23.9648 32.1736 23.9648L30.9822 23.9648C29.947 23.9648 29.4392 24.375 29.615 25.625C29.9666 28.1445 30.2009 31.8555 30.2595 35.625C30.2595 36.7188 30.865 37.2461 31.9002 37.2461Z" fill="black" fill-opacity="0.85"/>
 </g>
</svg>
