<?xml version="1.0" encoding="UTF-8"?>
<!--Generator: Apple Native CoreSVG 326-->
<!DOCTYPE svg
PUBLIC "-//W3C//DTD SVG 1.1//EN"
       "http://www.w3.org/Graphics/SVG/1.1/DTD/svg11.dtd">
<svg version="1.1" xmlns="http://www.w3.org/2000/svg" xmlns:xlink="http://www.w3.org/1999/xlink" viewBox="0 0 80.2148 37.2461">
 <g>
  <rect height="37.2461" opacity="0" width="80.2148" x="0" y="0"/>
  <path d="M10.7812 37.2461L13.8867 37.2461C15.1953 37.2461 15.8398 36.6211 16.2305 35.6445L30.1172 1.34766C30.4102 0.625 30.0781 0.0390625 29.3359 0.0390625L27.8711 0.0390625C27.1484 0.0390625 26.6602 0.371094 26.3477 1.01562L9.25781 34.8242C8.67188 35.957 9.10156 37.2461 10.7812 37.2461ZM65.9766 37.2461L69.082 37.2461C70.7422 37.2461 71.1719 35.957 70.5859 34.8242L53.5156 1.01562C53.1836 0.371094 52.7148 0.0390625 51.9727 0.0390625L50.5078 0.0390625C49.7656 0.0390625 49.4336 0.625 49.7266 1.34766L63.6133 35.6445C64.0039 36.6211 64.668 37.2461 65.9766 37.2461Z" fill="black" fill-opacity="0.85"/>
  <path d="M2.08984 20.8398L11.0547 15.3711C12.1094 14.7461 12.0703 13.4961 11.0547 12.8711L2.07031 7.36328C1.01562 6.71875 0 7.26562 0 8.49609L0 19.7461C0 20.9961 1.03516 21.4844 2.08984 20.8398ZM77.7734 20.8398C78.8477 21.4648 79.8438 20.9961 79.8438 19.7461L79.8438 8.49609C79.8438 7.26562 78.8477 6.73828 77.7734 7.36328L68.7891 12.8711C67.7734 13.5156 67.7539 14.7266 68.7891 15.3711Z" fill="black" fill-opacity="0.85"/>
 </g>
</svg>
