<?xml version="1.0" encoding="UTF-8"?>
<!--Generator: Apple Native CoreSVG 326-->
<!DOCTYPE svg
PUBLIC "-//W3C//DTD SVG 1.1//EN"
       "http://www.w3.org/Graphics/SVG/1.1/DTD/svg11.dtd">
<svg version="1.1" xmlns="http://www.w3.org/2000/svg" xmlns:xlink="http://www.w3.org/1999/xlink" viewBox="0 0 61.7578 62.2188">
 <g>
  <rect height="62.2188" opacity="0" width="61.7578" x="0" y="0"/>
  <path d="M60.3711 22.2129C61.1328 22.2129 61.7578 21.5879 61.7578 20.8262L61.7578 17.0176C61.7578 9.81058 56.875 4.92777 49.4727 4.92777L48.9844 4.92777L48.9844 1.60746C48.9844-0.0331666 47.6562-0.443323 46.3867 0.494177L40.0586 5.06449C39.043 5.82621 39.0234 6.66605 40.0586 7.42777L46.3867 11.959C47.6562 12.8965 48.9844 12.4864 48.9844 10.8848L48.9844 7.5059L49.4531 7.5059C55.3906 7.5059 59.0039 11.5489 59.0039 17.0371L59.0039 20.8262C59.0039 21.5879 59.6289 22.2129 60.3711 22.2129Z" fill="black" fill-opacity="0.85"/>
  <path d="M18.125 54.0684L43.2617 54.0684C47.3242 54.0684 49.375 52.0957 49.375 47.9746L49.375 22.9161C49.375 18.7754 47.3242 16.8223 43.2617 16.8223L18.125 16.8223C14.0625 16.8223 12.0117 18.7754 12.0117 22.9161L12.0117 47.9746C12.0117 52.0957 14.0625 54.0684 18.125 54.0684ZM18.2031 50.6114C16.3281 50.6114 15.4883 49.8106 15.4883 47.8965L15.4883 22.9942C15.4883 21.0801 16.3281 20.2793 18.2031 20.2793L43.1836 20.2793C45.0586 20.2793 45.918 21.0801 45.918 22.9942L45.918 47.8965C45.918 49.8106 45.0586 50.6114 43.1836 50.6114Z" fill="black" fill-opacity="0.85"/>
 </g>
</svg>
