<?xml version="1.0" encoding="UTF-8"?>
<!--Generator: Apple Native CoreSVG 326-->
<!DOCTYPE svg
PUBLIC "-//W3C//DTD SVG 1.1//EN"
       "http://www.w3.org/Graphics/SVG/1.1/DTD/svg11.dtd">
<svg version="1.1" xmlns="http://www.w3.org/2000/svg" xmlns:xlink="http://www.w3.org/1999/xlink" viewBox="0 0 51.25 50.918">
 <g>
  <rect height="50.918" opacity="0" width="51.25" x="0" y="0"/>
  <path d="M16.2695 30.9766C16.1523 29.1992 16.0938 27.3633 16.0938 25.4492C16.0938 14.1797 17.8906 5.13672 20.6641 0.488281C8.98438 2.73438 0 13.1445 0 25.4492C0 28.0273 6.30859 30.1758 16.2695 30.9766ZM19.707 31.1523C21.5234 31.25 23.4375 31.3086 25.4297 31.3086C40.5273 31.3086 50.8789 28.75 50.8789 25.4492C50.8789 11.5234 39.3359 0 25.4102 0C22.1094 0 19.5508 10.3516 19.5508 25.4492C19.5508 27.4414 19.6094 29.3359 19.707 31.1523ZM16.4844 34.375C9.39453 33.7109 3.78906 32.1875 0.488281 30.2148C2.40234 40.332 10.5273 48.457 20.6445 50.3906C18.6719 47.0898 17.1484 41.4648 16.4844 34.375ZM19.8828 34.5898C20.6836 44.5508 22.8125 50.8594 25.4102 50.8789C37.7344 50.8789 48.1445 41.875 50.3906 30.1953C45.7422 32.9688 36.6992 34.7656 25.4297 34.7656C23.4961 34.7656 21.6602 34.707 19.8828 34.5898Z" fill="black" fill-opacity="0.85"/>
 </g>
</svg>
