<?xml version="1.0" encoding="UTF-8"?>
<!--Generator: Apple Native CoreSVG 326-->
<!DOCTYPE svg
PUBLIC "-//W3C//DTD SVG 1.1//EN"
       "http://www.w3.org/Graphics/SVG/1.1/DTD/svg11.dtd">
<svg version="1.1" xmlns="http://www.w3.org/2000/svg" xmlns:xlink="http://www.w3.org/1999/xlink" viewBox="0 0 51.25 50.918">
 <g>
  <rect height="50.918" opacity="0" width="51.25" x="0" y="0"/>
  <path d="M50.8789 25.4492C50.8789 39.4531 39.4531 50.8789 25.4297 50.8789C11.4258 50.8789 0 39.4531 0 25.4492C0 11.4258 11.4258 0 25.4297 0C39.4531 0 50.8789 11.4258 50.8789 25.4492ZM21.0352 14.0039C20.2539 14.0039 19.6875 14.5898 19.6875 15.4297L19.6875 26.4258L16.9727 26.4258C16.5039 26.4258 16.1914 26.7383 16.1914 27.2266C16.1914 27.7148 16.5039 28.0078 16.9727 28.0078L19.6875 28.0078L19.6875 31.4062L16.9727 31.4062C16.5039 31.4062 16.1914 31.7188 16.1914 32.1875C16.1914 32.6758 16.5039 32.9883 16.9727 32.9883L19.6875 32.9883L19.6875 35.7422C19.6875 36.582 20.1953 37.1094 21.0156 37.1094C21.8555 37.1094 22.3633 36.582 22.3633 35.7422L22.3633 32.9883L28.6133 32.9883C29.0625 32.9883 29.3555 32.6758 29.3555 32.1875C29.3555 31.7188 29.0625 31.4062 28.6133 31.4062L22.3633 31.4062L22.3633 28.0078L27.0703 28.0078C31.7578 28.0078 34.4922 24.9609 34.4922 21.0352C34.4922 16.9922 31.6602 14.0039 27.1289 14.0039ZM31.6992 21.0352C31.6992 24.0625 29.7266 25.7812 26.4258 25.7812L22.3633 25.7812L22.3633 16.3281L26.4258 16.3281C30.0977 16.3281 31.6992 18.3398 31.6992 21.0352Z" fill="black" fill-opacity="0.85"/>
 </g>
</svg>
