<?xml version="1.0" encoding="UTF-8"?>
<!--Generator: Apple Native CoreSVG 326-->
<!DOCTYPE svg
PUBLIC "-//W3C//DTD SVG 1.1//EN"
       "http://www.w3.org/Graphics/SVG/1.1/DTD/svg11.dtd">
<svg version="1.1" xmlns="http://www.w3.org/2000/svg" xmlns:xlink="http://www.w3.org/1999/xlink" viewBox="0 0 46.2891 45.918">
 <g>
  <rect height="45.918" opacity="0" width="46.2891" x="0" y="0"/>
  <path d="M45.918 7.53906L45.918 38.3984C45.918 43.3594 43.3594 45.918 38.3008 45.918L7.59766 45.918C2.55859 45.918 0 43.3984 0 38.3984L0 7.53906C0 2.53906 2.55859 0 7.59766 0L38.3008 0C43.3594 0 45.918 2.55859 45.918 7.53906ZM18.5742 11.5039C17.793 11.5039 17.2266 12.0898 17.2266 12.9297L17.2266 23.9258L14.5117 23.9258C14.043 23.9258 13.7305 24.2383 13.7305 24.7266C13.7305 25.2148 14.043 25.5078 14.5117 25.5078L17.2266 25.5078L17.2266 28.9062L14.5117 28.9062C14.043 28.9062 13.7305 29.2188 13.7305 29.6875C13.7305 30.1758 14.043 30.4883 14.5117 30.4883L17.2266 30.4883L17.2266 33.2422C17.2266 34.082 17.7344 34.6094 18.5547 34.6094C19.3945 34.6094 19.9023 34.082 19.9023 33.2422L19.9023 30.4883L26.1328 30.4883C26.6016 30.4883 26.8945 30.1758 26.8945 29.6875C26.8945 29.2188 26.6016 28.9062 26.1328 28.9062L19.9023 28.9062L19.9023 25.5078L24.6094 25.5078C29.2969 25.5078 32.0117 22.4609 32.0117 18.5352C32.0117 14.4922 29.1992 11.5039 24.668 11.5039ZM29.2383 18.5352C29.2383 21.5625 27.2656 23.2812 23.9648 23.2812L19.9023 23.2812L19.9023 13.8281L23.9648 13.8281C27.6367 13.8281 29.2383 15.8398 29.2383 18.5352Z" fill="black" fill-opacity="0.85"/>
 </g>
</svg>
