<?xml version="1.0" encoding="UTF-8"?>
<!--Generator: Apple Native CoreSVG 326-->
<!DOCTYPE svg
PUBLIC "-//W3C//DTD SVG 1.1//EN"
       "http://www.w3.org/Graphics/SVG/1.1/DTD/svg11.dtd">
<svg version="1.1" xmlns="http://www.w3.org/2000/svg" xmlns:xlink="http://www.w3.org/1999/xlink" viewBox="0 0 46.2891 45.918">
 <g>
  <rect height="45.918" opacity="0" width="46.2891" x="0" y="0"/>
  <path d="M7.59766 45.918L38.3008 45.918C43.3594 45.918 45.918 43.3594 45.918 38.3984L45.918 7.53906C45.918 2.55859 43.3594 0 38.3008 0L7.59766 0C2.55859 0 0 2.53906 0 7.53906L0 38.3984C0 43.3984 2.55859 45.918 7.59766 45.918ZM7.67578 42.4609C4.94141 42.4609 3.45703 41.0156 3.45703 38.2031L3.45703 7.71484C3.45703 4.92188 4.94141 3.45703 7.67578 3.45703L38.2422 3.45703C40.918 3.45703 42.4609 4.92188 42.4609 7.71484L42.4609 38.2031C42.4609 41.0156 40.918 42.4609 38.2422 42.4609Z" fill="black" fill-opacity="0.85"/>
  <path d="M18.6523 34.3359C19.4727 34.3359 19.9609 33.8086 19.9609 33.0078L19.9609 30.293L26.0547 30.293C26.5039 30.293 26.7969 30 26.7969 29.5117C26.7969 29.0625 26.5039 28.7695 26.0547 28.7695L19.9609 28.7695L19.9609 25.4492L24.5703 25.4492C29.1406 25.4492 31.7773 22.4805 31.7773 18.6523C31.7773 14.6875 29.043 11.7969 24.6289 11.7969L18.6719 11.7969C17.9102 11.7969 17.3633 12.3633 17.3633 13.1641L17.3633 23.9062L14.7266 23.9062C14.2578 23.9062 13.9648 24.2188 13.9648 24.6875C13.9648 25.1562 14.2578 25.4492 14.7266 25.4492L17.3633 25.4492L17.3633 28.7695L14.7266 28.7695C14.2578 28.7695 13.9648 29.0625 13.9648 29.5117C13.9648 30 14.2578 30.293 14.7266 30.293L17.3633 30.293L17.3633 33.0078C17.3633 33.8086 17.8711 34.3359 18.6523 34.3359ZM19.9609 23.2812L19.9609 14.043L23.9453 14.043C27.5195 14.043 29.1016 15.9961 29.1016 18.6523C29.1016 21.6016 27.168 23.2812 23.9453 23.2812Z" fill="black" fill-opacity="0.85"/>
 </g>
</svg>
