<?xml version="1.0" encoding="UTF-8"?>
<!--Generator: Apple Native CoreSVG 326-->
<!DOCTYPE svg
PUBLIC "-//W3C//DTD SVG 1.1//EN"
       "http://www.w3.org/Graphics/SVG/1.1/DTD/svg11.dtd">
<svg version="1.1" xmlns="http://www.w3.org/2000/svg" xmlns:xlink="http://www.w3.org/1999/xlink" viewBox="0 0 50.9921 50.64">
 <g>
  <rect height="50.64" opacity="0" width="50.9921" x="0" y="0"/>
  <path d="M49.4316 5.44695C49.2168 4.62664 48.9629 3.96258 48.6504 3.47429L33.9043 18.1618L35.8379 20.0954C36.2285 20.5055 36.2285 21.1696 35.8379 21.5602C35.4082 21.9704 34.7441 21.9704 34.3535 21.5602L29.041 16.2673C28.6308 15.8571 28.6308 15.193 29.041 14.7634C29.4511 14.3923 30.1152 14.3727 30.5254 14.7634L32.4394 16.7165L47.166 1.98992C46.6386 1.67742 45.9941 1.44304 45.1738 1.18914C34.4902-2.05305 20.7597 1.36492 11.0527 11.072C1.36521 20.7595-2.05276 34.4899 1.18943 45.1735C1.44333 46.0134 1.69724 46.6384 2.00974 47.1657L16.8144 32.361L14.8613 30.4274C14.4707 29.9977 14.4707 29.3532 14.8613 28.9235C15.291 28.5329 15.9551 28.5134 16.3847 28.9235L21.6582 34.2165C22.0879 34.6462 22.0879 35.3298 21.6582 35.7399C21.2676 36.1501 20.6035 36.1501 20.1933 35.7399L18.2793 33.8259L3.49411 48.6501C4.00193 48.9235 4.64646 49.1774 5.44724 49.4313C16.1504 52.6735 29.8418 49.2555 39.5488 39.5485C49.2558 29.861 52.6738 16.1501 49.4316 5.44695ZM25.5058 19.8024C25.0957 19.3923 25.0957 18.7282 25.5058 18.318C25.916 17.9274 26.5605 17.8884 26.9902 18.318L32.3027 23.6305C32.7129 24.0407 32.6933 24.7048 32.3027 25.1149C31.873 25.5055 31.209 25.5251 30.7988 25.1149ZM21.9316 23.318C21.5605 22.9274 21.5605 22.2634 21.9316 21.8532C22.3613 21.443 23.0058 21.4235 23.4355 21.8532L28.748 27.1657C29.1582 27.5759 29.1386 28.2399 28.748 28.6501C28.3379 29.0407 27.6738 29.0602 27.2441 28.6501ZM18.3965 26.8727C18.0058 26.4626 18.0254 25.818 18.3965 25.3884C18.8261 24.9977 19.4902 24.9587 19.9199 25.3884L25.2129 30.6813C25.6426 31.111 25.623 31.7751 25.2129 32.2048C24.8027 32.5954 24.1386 32.6149 23.7285 32.2048Z" fill="black" fill-opacity="0.85"/>
 </g>
</svg>
