<?xml version="1.0" encoding="UTF-8"?>
<!--Generator: Apple Native CoreSVG 326-->
<!DOCTYPE svg
PUBLIC "-//W3C//DTD SVG 1.1//EN"
       "http://www.w3.org/Graphics/SVG/1.1/DTD/svg11.dtd">
<svg version="1.1" xmlns="http://www.w3.org/2000/svg" xmlns:xlink="http://www.w3.org/1999/xlink" viewBox="0 0 61.2891 26.5039">
 <g>
  <rect height="26.5039" opacity="0" width="61.2891" x="0" y="0"/>
  <path d="M60.918 6.58203C60.918 2.28516 58.6328 0 54.2773 0L6.62109 0C2.28516 0 0 2.26562 0 6.58203L0 19.9219C0 24.2188 2.30469 26.5039 6.64062 26.5039L54.2773 26.5039C58.6523 26.5039 60.918 24.2188 60.918 19.9219ZM7.44141 3.69141L7.44141 15.2539C7.44141 15.8203 7.05078 16.2109 6.50391 16.2109C5.97656 16.2109 5.54688 15.8398 5.54688 15.2734L5.54688 3.69141ZM12.2266 3.69141L12.2266 10.8594C12.2266 11.4258 11.8555 11.8164 11.2891 11.8164C10.7617 11.8164 10.3516 11.4453 10.3516 10.8789L10.3516 3.69141ZM17.0312 3.69141L17.0312 10.8594C17.0312 11.4258 16.6602 11.8164 16.0938 11.8164C15.5664 11.8164 15.1562 11.4453 15.1562 10.8789L15.1562 3.69141ZM21.8164 3.69141L21.8164 10.8594C21.8164 11.4258 21.4453 11.8164 20.8789 11.8164C20.3516 11.8164 19.9414 11.4453 19.9414 10.8789L19.9414 3.69141ZM26.6211 3.69141L26.6211 10.8594C26.6211 11.4258 26.2305 11.8164 25.6836 11.8164C25.1562 11.8164 24.7266 11.4453 24.7266 10.8789L24.7266 3.69141ZM31.4062 3.69141L31.4062 15.2539C31.4062 15.8203 31.0352 16.2109 30.4688 16.2109C29.9414 16.2109 29.5312 15.8398 29.5312 15.2734L29.5312 3.69141ZM36.2109 3.69141L36.2109 10.8594C36.2109 11.4258 35.8398 11.8164 35.2734 11.8164C34.7461 11.8164 34.3359 11.4453 34.3359 10.8789L34.3359 3.69141ZM41.0156 3.69141L41.0156 10.8594C41.0156 11.4258 40.625 11.8164 40.0586 11.8164C39.5508 11.8164 39.1211 11.4453 39.1211 10.8789L39.1211 3.69141ZM45.7812 3.69141L45.7812 10.8594C45.7812 11.4258 45.4102 11.8164 44.8438 11.8164C44.3164 11.8164 43.9062 11.4453 43.9062 10.8789L43.9062 3.69141ZM50.5859 3.69141L50.5859 10.8594C50.5859 11.4258 50.2148 11.8164 49.6484 11.8164C49.1211 11.8164 48.7109 11.4453 48.7109 10.8789L48.7109 3.69141ZM55.3516 3.69141L55.3516 15.2539C55.3516 15.8203 54.9805 16.2109 54.4141 16.2109C53.8867 16.2109 53.4766 15.8398 53.4766 15.2734L53.4766 3.69141Z" fill="black" fill-opacity="0.85"/>
 </g>
</svg>
