<?xml version="1.0" encoding="UTF-8"?>
<!--Generator: Apple Native CoreSVG 326-->
<!DOCTYPE svg
PUBLIC "-//W3C//DTD SVG 1.1//EN"
       "http://www.w3.org/Graphics/SVG/1.1/DTD/svg11.dtd">
<svg version="1.1" xmlns="http://www.w3.org/2000/svg" xmlns:xlink="http://www.w3.org/1999/xlink" viewBox="0 0 55.5273 53.1055">
 <g>
  <rect height="53.1055" opacity="0" width="55.5273" x="0" y="0"/>
  <path d="M3.06641 47.6758L52.0898 47.6758L52.0898 46.1719C52.0898 45.332 51.582 44.8242 50.7227 44.8242L49.1211 44.8242L49.1211 16.6797L51.3867 16.6797C52.5781 16.6797 53.2422 15.8398 53.2422 14.9609C53.2422 14.3164 52.8906 13.75 52.1094 13.3008L30.5273 0.839844C29.5703 0.292969 28.5547 0 27.5781 0C26.6016 0 25.5664 0.292969 24.6289 0.839844L3.04688 13.3008C2.24609 13.75 1.91406 14.3164 1.91406 14.9609C1.91406 15.8398 2.57812 16.6797 3.76953 16.6797L6.05469 16.6797L6.05469 44.8242L4.45312 44.8242C3.57422 44.8242 3.06641 45.332 3.06641 46.1719ZM9.31641 44.8242L9.31641 13.7109L26.4453 4.0625C26.7773 3.86719 27.1875 3.75 27.5781 3.75C27.9492 3.75 28.3398 3.86719 28.7109 4.0625L45.8594 13.7109L45.8594 44.8242ZM1.73828 53.0664L53.418 53.0664C54.375 53.0664 55.1562 52.2852 55.1562 51.3477C55.1562 50.3906 54.375 49.6094 53.418 49.6094L1.73828 49.6094C0.78125 49.6094 0 50.3906 0 51.3477C0 52.2852 0.78125 53.0664 1.73828 53.0664Z" fill="black" fill-opacity="0.85"/>
  <path d="M17.7344 36.8359C18.5352 36.8359 19.0039 36.3281 19.0039 35.5273L19.0039 28.2812L22.3438 28.2812L25.625 35.9375C25.8789 36.543 26.25 36.8359 26.875 36.8359C27.5977 36.8359 28.1445 36.3867 28.1445 35.6641C28.1445 35.332 28.0273 35.0781 27.8711 34.7266L24.8242 27.7344C27.1094 26.7969 28.1641 24.6094 28.1641 22.1875C28.1641 18.7305 26.1523 16.1719 22.1094 16.1719L17.7148 16.1719C16.9336 16.1719 16.4648 16.6797 16.4648 17.4609L16.4648 35.5273C16.4648 36.3281 16.9336 36.8359 17.7344 36.8359ZM19.0039 26.2305L19.0039 18.3008L21.8555 18.3008C24.2578 18.3008 25.6055 19.8242 25.6055 22.2266C25.6055 24.6289 24.3359 26.2305 21.875 26.2305ZM35.7031 36.8555C38.6133 36.8555 40.9766 35.1758 40.9766 32.2656C40.9766 29.9023 39.5703 28.7891 37.168 28.125L35.1758 27.5781C33.9453 27.2461 32.9492 26.6016 32.9492 25.3125C32.9492 23.8086 34.1406 22.8711 35.625 22.8711C37.1875 22.8711 38.1445 23.7695 38.6523 25.0391C38.8086 25.3906 39.1406 25.6445 39.5508 25.6445C40.2539 25.6445 40.5078 25.1953 40.5078 24.7266C40.5078 24.5508 40.4688 24.3359 40.4102 24.1211C39.9219 22.3438 38.0664 20.9961 35.7031 20.9961C32.5391 20.9961 30.5664 22.8125 30.5664 25.4297C30.5664 27.7734 32.0898 28.9844 34.3359 29.5703L36.3477 30.0977C37.6758 30.4688 38.5742 31.1914 38.5742 32.5195C38.5742 34.0234 37.4414 35 35.8008 35C34.082 35 33.1055 34.3164 32.3438 32.7734C32.0703 32.2461 31.6797 32.0312 31.3086 32.0312C30.7031 32.0312 30.293 32.4219 30.293 33.0273C30.293 33.2031 30.3516 33.457 30.4297 33.6914C31.0938 35.8398 33.3984 36.8555 35.7031 36.8555Z" fill="black" fill-opacity="0.85"/>
 </g>
</svg>
