<?xml version="1.0" encoding="UTF-8"?>
<!--Generator: Apple Native CoreSVG 326-->
<!DOCTYPE svg
PUBLIC "-//W3C//DTD SVG 1.1//EN"
       "http://www.w3.org/Graphics/SVG/1.1/DTD/svg11.dtd">
<svg version="1.1" xmlns="http://www.w3.org/2000/svg" xmlns:xlink="http://www.w3.org/1999/xlink" viewBox="0 0 60.4102 49.8382">
 <g>
  <rect height="49.8382" opacity="0" width="60.4102" x="0" y="0"/>
  <path d="M60.0391 29.9093C60.0391 14.1867 47.9492 1.29605 32.5977 0.00698344C31.7969-0.0711416 31.1719 0.514796 31.1719 1.33511L31.1719 9.32339C31.1719 9.98745 31.6602 10.5148 32.3438 10.5734C41.9727 11.7453 49.4531 19.9484 49.4531 29.9093C49.4531 34.4406 47.9102 38.6007 45.1758 42.0382C44.8047 42.507 44.8242 43.0929 45.2344 43.5031L51.0352 49.3039C51.6211 49.8703 52.4609 49.8703 52.9688 49.2453C57.3828 44.0109 60.0391 37.2531 60.0391 29.9093Z" fill="black" fill-opacity="0.85"/>
  <path d="M0 29.9093C0 37.2726 2.65625 44.05 7.08984 49.2843C7.57812 49.8703 8.39844 49.8703 8.98438 49.3039L14.7852 43.5031C15.1953 43.0929 15.2148 42.507 14.8438 42.0382C12.1094 38.6007 10.5664 34.4406 10.5664 29.9093C10.5664 19.9484 18.0664 11.7453 27.6758 10.5734C28.3789 10.5148 28.8477 9.98745 28.8477 9.32339L28.8477 1.33511C28.8477 0.514796 28.2422-0.0711416 27.4414 0.00698344C12.0703 1.29605 0 14.1867 0 29.9093Z" fill="black" fill-opacity="0.85"/>
  <path d="M20.1367 40.671C20.9375 40.671 21.4062 40.1437 21.4062 39.3429L21.4062 32.1164L24.7461 32.1164L28.0273 39.7531C28.2812 40.3585 28.6523 40.671 29.2773 40.671C30 40.671 30.5469 40.2218 30.5469 39.4796C30.5469 39.1671 30.4297 38.8937 30.2734 38.5421L27.2266 31.55C29.5117 30.6125 30.5664 28.425 30.5664 26.0031C30.5664 22.5656 28.5547 19.9875 24.5117 19.9875L20.1172 19.9875C19.3359 19.9875 18.8672 20.4953 18.8672 21.296L18.8672 39.3429C18.8672 40.1437 19.3359 40.671 20.1367 40.671ZM21.4062 30.046L21.4062 22.1164L24.2578 22.1164C26.6602 22.1164 28.0078 23.6593 28.0078 26.0617C28.0078 28.4445 26.7383 30.046 24.2773 30.046ZM38.1055 40.6906C41.0156 40.6906 43.3984 39.0109 43.3984 36.0812C43.3984 33.7179 41.9727 32.6242 39.5703 31.9601L37.5781 31.4132C36.3477 31.0812 35.3516 30.4171 35.3516 29.1281C35.3516 27.6437 36.543 26.6867 38.0273 26.6867C39.6094 26.6867 40.5469 27.6046 41.0742 28.8546C41.2109 29.2062 41.543 29.4601 41.9531 29.4601C42.6562 29.4601 42.9102 29.0304 42.9102 28.5421C42.9102 28.3859 42.8711 28.1515 42.8125 27.9367C42.3242 26.1593 40.4688 24.8117 38.1055 24.8117C34.9414 24.8117 32.9688 26.6476 32.9688 29.2453C32.9688 31.589 34.4922 32.8 36.7383 33.3859L38.75 33.9328C40.0781 34.2843 40.9766 35.0265 40.9766 36.3351C40.9766 37.839 39.8438 38.8156 38.2031 38.8156C36.4844 38.8156 35.5078 38.1515 34.7461 36.589C34.4727 36.0617 34.082 35.8664 33.7109 35.8664C33.1055 35.8664 32.6953 36.257 32.6953 36.8429C32.6953 37.0382 32.7539 37.2726 32.832 37.507C33.4961 39.675 35.8008 40.6906 38.1055 40.6906Z" fill="black" fill-opacity="0.85"/>
 </g>
</svg>
