<?xml version="1.0" encoding="UTF-8"?>
<!--Generator: Apple Native CoreSVG 326-->
<!DOCTYPE svg
PUBLIC "-//W3C//DTD SVG 1.1//EN"
       "http://www.w3.org/Graphics/SVG/1.1/DTD/svg11.dtd">
<svg version="1.1" xmlns="http://www.w3.org/2000/svg" xmlns:xlink="http://www.w3.org/1999/xlink" viewBox="0 0 46.2891 45.918">
 <g>
  <rect height="45.918" opacity="0" width="46.2891" x="0" y="0"/>
  <path d="M7.59766 45.918L38.3008 45.918C43.3594 45.918 45.918 43.3594 45.918 38.3984L45.918 7.53906C45.918 2.55859 43.3594 0 38.3008 0L7.59766 0C2.55859 0 0 2.53906 0 7.53906L0 38.3984C0 43.3984 2.55859 45.918 7.59766 45.918ZM7.67578 42.4609C4.94141 42.4609 3.45703 41.0156 3.45703 38.2031L3.45703 7.71484C3.45703 4.92188 4.94141 3.45703 7.67578 3.45703L38.2422 3.45703C40.918 3.45703 42.4609 4.92188 42.4609 7.71484L42.4609 38.2031C42.4609 41.0156 40.918 42.4609 38.2422 42.4609Z" fill="black" fill-opacity="0.85"/>
  <path d="M22.7344 34.6875C28.2227 34.6875 31.8164 31.9922 31.8164 27.7734C31.8164 24.5703 29.5703 22.8125 25.1367 21.6211L21.7578 20.7031C19.1797 20 18.1055 19.043 18.1055 17.4219C18.1055 15.1953 20.0781 13.6523 22.8906 13.6523C25.5664 13.6523 27.3633 14.8047 28.125 16.9922C28.4375 17.7539 28.8867 18.1445 29.7266 18.1445C30.6445 18.1445 31.2891 17.6562 31.2891 16.6406C31.2891 16.3281 31.2109 15.957 31.0742 15.5273C30.1953 12.8125 27.207 10.8594 23.0273 10.8594C18.0273 10.8594 14.5312 13.6523 14.5312 17.5781C14.5312 20.6641 16.5039 22.4219 20.332 23.4766L23.9648 24.4727C27.1289 25.3516 28.2617 26.1914 28.2617 28.0664C28.2617 30.3711 25.918 31.8359 22.9883 31.8359C20.1562 31.8359 18.1055 30.625 17.3438 28.457C16.9727 27.6562 16.5039 27.2656 15.7031 27.2656C14.7461 27.2656 14.1406 27.8516 14.1406 28.8281C14.1406 29.1797 14.1992 29.5508 14.375 29.9609C15.2148 32.5 18.3008 34.6875 22.7344 34.6875Z" fill="black" fill-opacity="0.85"/>
 </g>
</svg>
