<?xml version="1.0" encoding="UTF-8"?>
<!--Generator: Apple Native CoreSVG 326-->
<!DOCTYPE svg
PUBLIC "-//W3C//DTD SVG 1.1//EN"
       "http://www.w3.org/Graphics/SVG/1.1/DTD/svg11.dtd">
<svg version="1.1" xmlns="http://www.w3.org/2000/svg" xmlns:xlink="http://www.w3.org/1999/xlink" viewBox="0 0 55.1758 68.5742">
 <g>
  <rect height="68.5742" opacity="0" width="55.1758" x="0" y="0"/>
  <path d="M23.0273 54.8438L26.2891 54.8438L30.7227 3.88672C30.7617 3.57422 31.1719 3.51562 31.2891 3.82812C33.3789 9.27734 34.7266 15.8984 34.7266 22.4023C34.7266 30.7422 32.5195 38.9648 26.8555 44.4922L26.4062 48.3594C33.6523 49.1016 40.918 48.8281 45.5469 48.0859C48.9844 47.5781 50.6836 46.1914 51.8359 43.1445C53.2227 39.4922 53.7891 35.6836 53.7891 31.543C53.7891 20.7422 49.0234 8.63281 34.3359 0.878906C33.2422 0.292969 32.168 0 31.2109 0C29.2578 0 27.7734 1.17188 27.5781 3.45703ZM34.9609 4.62891C46.6602 10.7031 50.4883 21.7188 50.4883 31.4648C50.4883 35.3516 49.9023 38.9062 48.7695 42.0508C48.1641 43.7305 47.2266 44.4922 45.4102 44.7852C41.7578 45.3906 36.0547 45.7031 30.4492 45.3711C35.8594 39.0625 37.9883 30.7812 37.9883 22.4609C37.9883 16.2695 36.7969 10.0586 34.9609 4.62891ZM6.52344 48.3203C12.2461 48.9648 18.9258 48.9648 24.6484 48.3789L24.9023 45.1172C19.4336 45.7031 13.5547 45.6836 8.63281 45.1172C8.45703 45.0781 8.39844 44.9414 8.51562 44.7852L27.4219 18.418L27.5781 12.7539L4.98047 44.2969C3.55469 46.25 4.27734 48.1055 6.52344 48.3203ZM6.28906 64.2773L8.92578 63.1445L6.62109 56.8359C6.5625 56.6797 6.66016 56.5039 6.85547 56.5039C19.9805 56.5039 34.5508 56.5039 47.4805 54.668C47.6758 54.6289 47.8125 54.7656 47.7539 54.9414C47.1484 56.8164 45 60.1172 41.1523 62.0508L44.4727 63.7891C48.1055 61.3086 51.1523 56.4648 51.1523 53.9453C51.1523 52.5586 50.2344 51.5234 48.3398 51.7773C35.0977 53.6328 19.9219 53.6328 6.05469 53.6328C3.98438 53.6328 2.94922 55.1758 3.63281 57.0508ZM26.2305 68.5352C32.9297 68.5352 34.0039 63.418 38.2031 63.418C42.5 63.418 43.1641 68.5352 50.8203 68.5352L53.2617 68.5352C54.1211 68.5352 54.8047 67.8516 54.8047 66.9922C54.8047 66.1523 54.1211 65.4688 53.2617 65.4688L50.8203 65.4688C48.0273 65.4688 46.4453 64.2969 44.5312 62.9492C42.8906 61.7578 40.918 60.3516 38.2031 60.3516C35.3906 60.3516 33.3984 61.8555 31.7578 63.0664C30.0195 64.3945 28.5742 65.4688 26.2305 65.4688C23.8867 65.4688 22.4609 64.3945 20.7227 63.0664C19.082 61.8555 17.0703 60.3516 14.2773 60.3516C11.543 60.3516 9.57031 61.7578 7.92969 62.9492C6.03516 64.2969 4.45312 65.4688 1.66016 65.4688L1.52344 65.4688C0.683594 65.4688 0 66.1523 0 66.9922C0 67.8516 0.683594 68.5352 1.52344 68.5352L1.66016 68.5352C9.29688 68.5352 9.98047 63.418 14.2773 63.418C18.4766 63.418 19.5508 68.5352 26.2305 68.5352Z" fill="black" fill-opacity="0.85"/>
 </g>
</svg>
