<?xml version="1.0" encoding="UTF-8"?>
<!--Generator: Apple Native CoreSVG 326-->
<!DOCTYPE svg
PUBLIC "-//W3C//DTD SVG 1.1//EN"
       "http://www.w3.org/Graphics/SVG/1.1/DTD/svg11.dtd">
<svg version="1.1" xmlns="http://www.w3.org/2000/svg" xmlns:xlink="http://www.w3.org/1999/xlink" viewBox="0 0 49.6568 52.5586">
 <g>
  <rect height="52.5586" opacity="0" width="49.6568" x="0" y="0"/>
  <path d="M0.365492 44.6484C-0.904039 49.6875 1.16627 52.5391 6.06862 52.5391L43.2171 52.5391C48.1194 52.5391 50.2092 49.6875 48.9397 44.6484L43.2952 22.1875C42.3967 18.5547 39.8577 16.5234 36.2835 16.5234L13.0022 16.5234C9.42799 16.5234 6.90846 18.5547 5.99049 22.1875ZM3.72487 44.8242L9.23268 23.3008C9.81862 21.0742 11.1272 19.9805 13.2756 19.9805L36.0296 19.9805C38.178 19.9805 39.4866 21.0742 40.053 23.3008L45.5803 44.8242C46.303 47.6367 45.2874 49.082 42.846 49.082L6.45924 49.082C3.9983 49.082 3.00221 47.6367 3.72487 44.8242ZM22.9241 18.9258L26.3811 18.9258L26.3811 12.3242L22.9241 12.3242ZM24.6428 14.043C28.4905 14.043 31.6936 10.8789 31.6936 7.05078C31.6936 3.18359 28.471 0 24.6428 0C20.8147 0 17.6116 3.20312 17.6116 7.05078C17.6116 10.8789 20.8147 14.043 24.6428 14.043ZM24.6428 11.0156C22.4749 11.0156 20.6585 9.21875 20.6585 7.05078C20.6585 4.86328 22.4553 3.02734 24.6428 3.02734C26.8303 3.02734 28.6467 4.86328 28.6467 7.05078C28.6467 9.19922 26.8303 11.0156 24.6428 11.0156Z" fill="black" fill-opacity="0.85"/>
 </g>
</svg>
