<?xml version="1.0" encoding="UTF-8"?>
<!--Generator: Apple Native CoreSVG 326-->
<!DOCTYPE svg
PUBLIC "-//W3C//DTD SVG 1.1//EN"
       "http://www.w3.org/Graphics/SVG/1.1/DTD/svg11.dtd">
<svg version="1.1" xmlns="http://www.w3.org/2000/svg" xmlns:xlink="http://www.w3.org/1999/xlink" viewBox="0 0 58.9648 45.3711">
 <g>
  <rect height="45.3711" opacity="0" width="58.9648" x="0" y="0"/>
  <path d="M0 37.832C0 42.832 2.55859 45.3711 7.59766 45.3711L50.9766 45.3711C56.0156 45.3711 58.5938 42.8125 58.5938 37.832L58.5938 29.9023C58.5938 28.3203 58.1641 26.7383 56.9727 25.4492L47.1289 15C44.8828 12.6172 43.2812 11.3477 39.9219 11.3477L18.1055 11.3477C15.3125 11.3477 13.7109 12.6172 11.4453 15L1.62109 25.4492C0.410156 26.7383 0 28.3203 0 29.9023ZM3.45703 37.6562L3.45703 32.3828L55.1172 32.3828L55.1172 37.6562C55.1172 40.4688 53.5938 41.9141 50.918 41.9141L7.67578 41.9141C4.94141 41.9141 3.45703 40.4688 3.45703 37.6562ZM4.78516 27.2852L14.3555 16.7383C15.6641 15.3125 16.6406 14.5508 18.3008 14.5508L40.293 14.5508C41.9336 14.5508 42.9102 15.293 44.2383 16.7383L53.8086 27.2852C54.3945 27.9297 54.082 28.9062 53.0273 28.9062L5.58594 28.9062C4.53125 28.9062 4.19922 27.9297 4.78516 27.2852ZM3.94531 3.18359L11.6797 11.0938C13.9258 13.3789 15.0586 14.1602 17.7734 14.1602L40.4492 14.1602C43.5352 14.1602 44.6875 13.3789 46.9141 11.0938L54.6484 3.18359C55.7812 2.03125 55.1953 0 53.2422 0L5.35156 0C3.41797 0 2.8125 2.03125 3.94531 3.18359ZM8.06641 3.14453L50.5273 3.14453L43.6914 10.0781C42.8516 10.9766 42.0508 11.3477 40.6445 11.3477L17.9688 11.3477C16.543 11.3477 15.7617 10.9766 14.9023 10.0781ZM14.082 25.1172C14.2773 25.6836 14.9023 25.9375 15.4492 25.7227L27.2461 21.4258C27.832 21.2305 28.1055 20.6641 27.9102 20.0781C27.6953 19.5312 27.1289 19.2773 26.543 19.4727L14.7461 23.7891C14.1602 24.0039 13.8867 24.5508 14.082 25.1172ZM14.5117 20.6641C14.7266 21.25 15.332 21.4648 15.8789 21.2695L24.0625 18.3008C24.6289 18.1055 24.9219 17.5195 24.7266 16.9531C24.5117 16.3867 23.9258 16.1523 23.3594 16.3477L15.1758 19.3164C14.6094 19.5312 14.3164 20.0977 14.5117 20.6641ZM40.625 37.1289C40.625 37.832 41.1914 38.3008 41.8555 38.3008L48.6133 38.3008C49.2969 38.3008 49.8242 37.8125 49.8242 37.1094C49.8242 36.4453 49.2969 35.957 48.6133 35.957L41.8555 35.957C41.1523 35.957 40.625 36.4453 40.625 37.1289Z" fill="black" fill-opacity="0.85"/>
 </g>
</svg>
