<?xml version="1.0" encoding="UTF-8"?>
<!--Generator: Apple Native CoreSVG 326-->
<!DOCTYPE svg
PUBLIC "-//W3C//DTD SVG 1.1//EN"
       "http://www.w3.org/Graphics/SVG/1.1/DTD/svg11.dtd">
<svg version="1.1" xmlns="http://www.w3.org/2000/svg" xmlns:xlink="http://www.w3.org/1999/xlink" viewBox="0 0 63.0732 63.4529">
 <g>
  <rect height="63.4529" opacity="0" width="63.0732" x="0" y="0"/>
  <path d="M24.5347 24.5292C23.187 25.8573 23.2456 27.576 24.5151 28.8456L34.6518 38.9823C35.9409 40.2714 37.6011 40.2518 38.9487 38.9237L42.7573 35.1542C41.8003 33.9237 41.8784 32.3221 43.0112 31.1893C44.1245 30.076 45.7261 29.9589 46.9565 30.9354L60.0425 17.8495C63.5776 14.3339 63.5776 10.3885 60.062 6.89246L56.5854 3.43542C53.0503-0.080201 49.144-0.080201 45.6284 3.43542L32.562 16.5409C33.4995 17.7714 33.4409 19.3729 32.2886 20.4667C31.1167 21.5995 29.5737 21.6776 28.3237 20.7206ZM27.2886 25.7206L28.9487 24.0409C30.7847 24.4706 32.5229 23.9042 34.0268 22.4003C35.5308 20.9159 36.0386 19.1776 35.5893 17.4198L47.7573 5.25183C49.9058 3.12292 52.3667 3.16199 54.5347 5.31042L58.1675 8.94324C60.3354 11.0917 60.355 13.5917 58.2261 15.7206L46.0581 27.9276C44.3003 27.4589 42.6011 27.9667 41.0972 29.4706C39.5933 30.955 39.0073 32.6737 39.4175 34.5487L37.7573 36.2284C37.1714 36.8143 36.4292 36.8339 35.8042 36.2284L27.269 27.6932C26.644 27.0878 26.6831 26.3456 27.2886 25.7206ZM40.9018 18.0057C40.5112 18.3964 40.4917 19.0018 40.9214 19.412C41.2339 19.705 41.8784 19.744 42.23 19.3925L50.8628 10.6815C51.2143 10.3495 51.2339 9.76355 50.8628 9.37292C50.5112 9.04089 49.9253 9.00183 49.5347 9.37292ZM44.1245 21.2675C43.7534 21.6385 43.7534 22.2635 44.1245 22.5956C44.4956 22.9471 45.0815 22.9471 45.4722 22.576L54.105 13.9432C54.4956 13.5721 54.4761 13.0253 54.105 12.6151C53.7534 12.244 53.1479 12.2831 52.7964 12.6151ZM6.13622 48.494L0.354974 56.9901C-0.0747136 57.6151-0.152839 58.2401 0.335443 58.7284L4.74951 63.1229C5.21826 63.5917 5.84326 63.5331 6.46826 63.1229L14.9839 57.3026C15.7065 56.8143 16.1753 56.1112 16.2925 55.33L16.7026 52.6346L33.519 35.8768L31.605 33.9432L13.9683 51.5995L13.4409 54.7245L5.90185 60.4667L3.01122 57.576L8.73388 50.0175L11.8589 49.4706L29.5151 31.8534L27.6206 29.9589L10.8237 46.7557L8.12841 47.1854C7.34716 47.3026 6.62451 47.7714 6.13622 48.494Z" fill="black" fill-opacity="0.85"/>
 </g>
</svg>
