<?xml version="1.0" encoding="UTF-8"?>
<!--Generator: Apple Native CoreSVG 326-->
<!DOCTYPE svg
PUBLIC "-//W3C//DTD SVG 1.1//EN"
       "http://www.w3.org/Graphics/SVG/1.1/DTD/svg11.dtd">
<svg version="1.1" xmlns="http://www.w3.org/2000/svg" xmlns:xlink="http://www.w3.org/1999/xlink" viewBox="0 0 62.1399 62.3332">
 <g>
  <rect height="62.3332" opacity="0" width="62.1399" x="0" y="0"/>
  <path d="M24.4098 24.1842C23.1403 25.4537 23.1598 27.0748 24.4098 28.3639L34.0387 38.0709C35.3083 39.3014 36.9684 39.2037 38.1989 37.9928L40.9723 35.1803C40.0739 33.7936 40.1715 32.0553 41.4606 30.8248C42.6715 29.6139 44.3903 29.4576 45.8356 30.3756L59.4684 16.7233C62.5153 13.6568 62.5348 9.98497 59.5075 6.95763L55.445 2.91466C52.3981-0.112686 48.7458-0.132218 45.6793 2.93419L32.027 16.5475C32.9254 18.0123 32.8083 19.7701 31.5583 20.9615C30.3278 22.192 28.6286 22.3092 27.1637 21.4303ZM38.6481 18.6178L48.8043 8.40294C49.195 8.05138 49.82 8.09044 50.2106 8.42247C50.5817 8.7545 50.5622 9.39903 50.1715 9.77013L39.9176 19.9654C39.527 20.3365 38.9997 20.3365 38.6676 20.0045C38.2575 19.5943 38.2184 19.0475 38.6481 18.6178ZM42.4762 22.4459L52.6715 12.2897C53.0426 11.899 53.609 11.899 53.9801 12.2701C54.3317 12.6803 54.3317 13.2272 53.9997 13.5787L43.8043 23.7936C43.3942 24.2037 42.8083 24.1842 42.4567 23.8326C42.027 23.4225 42.0465 22.8951 42.4762 22.4459ZM5.23013 49.1451L0.327782 57.5436C-0.0628428 58.2467-0.160499 58.8326 0.347313 59.3014L3.02309 62.0162C3.53091 62.5045 4.13638 62.3678 4.78091 62.0162L13.2379 57.0943C14.0192 56.6647 14.527 55.8639 14.5465 55.1412L14.7418 52.3873L29.4098 37.7193L24.6442 32.9537L9.95669 47.6022L7.24184 47.817C6.48013 47.8561 5.67934 48.3443 5.23013 49.1451Z" fill="black" fill-opacity="0.85"/>
 </g>
</svg>
