<?xml version="1.0" encoding="UTF-8"?>
<!--Generator: Apple Native CoreSVG 326-->
<!DOCTYPE svg
PUBLIC "-//W3C//DTD SVG 1.1//EN"
       "http://www.w3.org/Graphics/SVG/1.1/DTD/svg11.dtd">
<svg version="1.1" xmlns="http://www.w3.org/2000/svg" xmlns:xlink="http://www.w3.org/1999/xlink" viewBox="0 0 53.3204 49.7103">
 <g>
  <rect height="49.7103" opacity="0" width="53.3204" x="0" y="0"/>
  <path d="M1.01567 31.8961C2.2852 33.1461 4.76567 33.361 6.6602 31.6618C7.32427 31.1149 8.75005 29.5915 12.3633 25.9196C24.4922 13.6149 32.9102 5.15786 34.9219 6.81802C36.6407 8.20474 32.2071 14.5329 28.3008 19.9626C19.9024 31.779 13.9258 39.1618 18.3399 43.5954C21.7969 47.0329 27.3243 43.7907 36.3868 35.8415C41.6211 31.2321 45.4297 27.6383 46.7383 28.9274C47.6758 29.8454 46.504 31.9547 44.4532 35.5094C42.0118 39.7086 39.1016 44.0446 41.875 46.7985C43.8086 48.7321 47.5 47.736 52.2852 43.1266C53.0079 42.404 53.2032 41.5836 52.5782 40.9782C52.0118 40.4313 51.211 40.5094 50.6055 41.0758C47.2071 44.4157 44.7266 45.6852 44.043 44.9626C43.2422 44.2008 44.4532 41.8766 47.0508 37.3649C50.3711 31.6422 51.7969 28.2829 49.2969 25.8415C45.8008 22.443 41.6602 25.9586 33.6133 33.029C26.1719 39.5915 23.5352 40.861 22.5 39.8258C21.0938 38.4196 23.086 35.8415 32.2071 23.0876C39.7266 12.5407 43.8086 5.93911 39.6875 2.09146C34.1211-3.16245 26.8555 0.958645 7.12895 20.4508C3.35942 24.1227 1.85552 25.568 1.26958 26.2321C-0.527297 28.2047-0.234328 30.6461 1.01567 31.8961Z" fill="black" fill-opacity="0.85"/>
 </g>
</svg>
