<?xml version="1.0" encoding="UTF-8"?>
<!--Generator: Apple Native CoreSVG 326-->
<!DOCTYPE svg
PUBLIC "-//W3C//DTD SVG 1.1//EN"
       "http://www.w3.org/Graphics/SVG/1.1/DTD/svg11.dtd">
<svg version="1.1" xmlns="http://www.w3.org/2000/svg" xmlns:xlink="http://www.w3.org/1999/xlink" viewBox="0 0 53.3203 52.9492">
 <g>
  <rect height="52.9492" opacity="0" width="53.3203" x="0" y="0"/>
  <path d="M0 11.8945C0 13.2422 0.878906 14.1016 2.28516 14.1016L9.02344 14.1016L9.02344 45.3125C9.02344 50.3711 11.543 52.9297 16.6016 52.9297L45.3125 52.9297C49.9219 52.9297 52.9492 49.7852 52.9492 44.9805L52.9492 38.1445C52.9492 36.7773 52.0703 35.918 50.6836 35.918L48.3789 35.918L48.3789 7.59766C48.3789 2.55859 45.8398 0 40.8594 0L6.23047 0C2.55859 0 0 2.48047 0 6.52344ZM12.4805 45.3125L12.4805 6.52344C12.4805 5.33203 12.3047 4.29688 11.9531 3.45703L40.6641 3.45703C43.4766 3.45703 44.9219 4.94141 44.9219 7.65625L44.9219 35.918L22.9688 35.918C21.582 35.918 20.6836 36.7773 20.6836 38.1445L20.6836 45.3125C20.6836 47.8711 19.0625 49.4531 16.6016 49.4727C14.1016 49.4531 12.4805 47.8125 12.4805 45.3125ZM3.45703 10.6445L3.45703 6.52344C3.45703 4.58984 4.66797 3.45703 6.23047 3.45703C7.92969 3.45703 9.02344 4.58984 9.02344 6.52344L9.02344 10.6445ZM22.9297 49.4727C23.7305 48.3594 24.1602 46.9141 24.1602 45.1172L24.1602 39.375L49.4922 39.375L49.4922 44.9805C49.4922 47.6367 47.7734 49.4727 45.3125 49.4727ZM19.6289 22.9492L28.9844 22.9492C29.7656 22.9492 30.3516 22.3633 30.3516 21.6016C30.3516 20.8398 29.7656 20.2344 28.9844 20.2344L19.6289 20.2344C18.8281 20.2344 18.2422 20.8398 18.2422 21.6016C18.2422 22.3633 18.8281 22.9492 19.6289 22.9492ZM19.6289 14.1211L37.793 14.1211C38.5742 14.1211 39.1602 13.5156 39.1602 12.7539C39.1602 11.9922 38.5742 11.4062 37.793 11.4062L19.6289 11.4062C18.8281 11.4062 18.2422 11.9922 18.2422 12.7539C18.2422 13.5156 18.8281 14.1211 19.6289 14.1211Z" fill="black" fill-opacity="0.85"/>
 </g>
</svg>
