<?xml version="1.0" encoding="UTF-8"?>
<!--Generator: Apple Native CoreSVG 326-->
<!DOCTYPE svg
PUBLIC "-//W3C//DTD SVG 1.1//EN"
       "http://www.w3.org/Graphics/SVG/1.1/DTD/svg11.dtd">
<svg version="1.1" xmlns="http://www.w3.org/2000/svg" xmlns:xlink="http://www.w3.org/1999/xlink" viewBox="0 0 53.125 52.9492">
 <g>
  <rect height="52.9492" opacity="0" width="53.125" x="0" y="0"/>
  <path d="M0 11.8945C0 13.2422 0.878906 14.1016 2.28516 14.1016L5.89844 14.1016L5.89844 6.15234C5.89844 4.47266 4.51172 3.32031 2.96875 3.32031C1.40625 3.32031 0 4.45312 0 6.15234ZM6.38672 0C8.33984 0.976562 9.02344 2.42188 9.02344 5L9.02344 46.3086C9.02344 49.8047 11.1523 51.7383 14.1211 51.7383C16.875 51.7383 18.9062 49.8633 18.9062 46.4648L18.9062 39.5117C18.9062 36.4453 20.4102 34.7852 23.4961 34.7852L47.793 34.7852L47.793 7.59766C47.793 2.55859 45.2539 0 40.2539 0ZM18.2422 12.7539C18.2422 11.9922 18.8281 11.4062 19.6289 11.4062L37.793 11.4062C38.5742 11.4062 39.1602 11.9922 39.1602 12.7539C39.1602 13.5156 38.5742 14.1211 37.793 14.1211L19.6289 14.1211C18.8281 14.1211 18.2422 13.5156 18.2422 12.7539ZM18.2422 21.6016C18.2422 20.8398 18.8281 20.2344 19.6289 20.2344L28.9844 20.2344C29.7656 20.2344 30.3516 20.8398 30.3516 21.6016C30.3516 22.3633 29.7656 22.9492 28.9844 22.9492L19.6289 22.9492C18.8281 22.9492 18.2422 22.3633 18.2422 21.6016ZM19.0039 52.9297L45.0977 52.9297C49.7266 52.9297 52.7539 49.7852 52.7539 44.9805L52.7539 40.1172C52.7539 38.75 51.875 37.8906 50.4883 37.8906L24.2969 37.8906C22.8906 37.8906 22.0117 38.75 22.0117 40.1172L22.0117 45.8008C22.0117 48.8281 21.3281 51.2109 19.0039 52.9297Z" fill="black" fill-opacity="0.85"/>
 </g>
</svg>
