<?xml version="1.0" encoding="UTF-8"?>
<!--Generator: Apple Native CoreSVG 326-->
<!DOCTYPE svg
PUBLIC "-//W3C//DTD SVG 1.1//EN"
       "http://www.w3.org/Graphics/SVG/1.1/DTD/svg11.dtd">
<svg version="1.1" xmlns="http://www.w3.org/2000/svg" xmlns:xlink="http://www.w3.org/1999/xlink" viewBox="0 0 34.4336 40.9468">
 <g>
  <rect height="40.9468" opacity="0" width="34.4336" x="0" y="0"/>
  <path d="M0 39.1745L5.9375 40.7566C8.35938 41.4011 9.82422 40.3855 9.82422 38.0417L9.82422 28.6472L22.3047 28.6472L22.3047 21.7722L2.01172 21.7722L2.01172 37.1824C2.01172 38.3933 1.23047 39.1745 0 39.1745ZM2.01172 18.237L9.82422 18.237L9.82422 7.26049C9.82422 5.15111 8.86719 4.11596 6.93359 3.60814L1.17188 2.06517C1.67969 2.39721 2.01172 2.94408 2.01172 3.74486ZM24.2188 39.1745L30.1562 40.7566C32.5781 41.4011 34.0625 40.3855 34.0625 38.0417L34.0625 7.26049C34.0625 5.15111 33.0664 4.09642 31.1328 3.58861L25.3906 2.06517C25.8984 2.39721 26.2305 2.94408 26.2305 3.74486L26.2305 37.1824C26.2305 38.3933 25.4492 39.1745 24.2188 39.1745Z" fill="black" fill-opacity="0.85"/>
 </g>
</svg>
