<?xml version="1.0" encoding="UTF-8"?>
<!--Generator: Apple Native CoreSVG 326-->
<!DOCTYPE svg
PUBLIC "-//W3C//DTD SVG 1.1//EN"
       "http://www.w3.org/Graphics/SVG/1.1/DTD/svg11.dtd">
<svg version="1.1" xmlns="http://www.w3.org/2000/svg" xmlns:xlink="http://www.w3.org/1999/xlink" viewBox="0 0 61.2891 58.1348">
 <g>
  <rect height="58.1348" opacity="0" width="61.2891" x="0" y="0"/>
  <path d="M12.0898 33.7256L12.0898 38.8623C12.0898 41.167 10.918 42.3584 8.55469 42.3584L3.53516 42.3584C1.19141 42.3584 0 41.1866 0 38.8623L0 33.7256C0 31.4209 1.19141 30.2491 3.53516 30.2491L8.55469 30.2491C10.918 30.2491 12.0898 31.4209 12.0898 33.7256Z" fill="black" fill-opacity="0.85"/>
  <path d="M18.9777 24.585L9.98047 24.585C7.63672 24.585 6.44531 23.4131 6.44531 21.1084L6.44531 12.0476ZM31.543 9.03813L31.543 12.7931C28.4688 13.026 25.6943 14.5914 23.7872 16.9782L12.3796 5.56156L28.0078 5.56156C30.3516 5.56156 31.543 6.73344 31.543 9.03813Z" fill="black" fill-opacity="0.85"/>
  <path d="M60.918 19.8389L60.918 34.2725C60.918 36.5772 59.7266 37.7491 57.3828 37.7491L50.0391 37.7491C47.6758 37.7491 46.4844 36.5967 46.4844 34.2725L46.4844 19.8389C46.4844 17.5147 47.6758 16.3428 50.0391 16.3428L57.3828 16.3428C59.7266 16.3428 60.918 17.5342 60.918 19.8389Z" fill="black" fill-opacity="0.85"/>
  <path d="M46.8734 52.4918C46.6517 52.5202 46.4173 52.5342 46.1719 52.5342L18.4961 52.5342C16.4258 52.5342 15.1367 51.5381 15.1367 49.8975C15.1367 44.7086 21.4812 37.6051 31.7331 37.3455ZM40.4883 24.6436C40.4883 27.25 39.5131 29.55 37.9688 31.1711L26.0026 19.1954C27.5074 17.1546 29.8281 15.8741 32.3633 15.8741C36.7383 15.8741 40.4883 19.6631 40.4883 24.6436Z" fill="black" fill-opacity="0.85"/>
  <path d="M53.1641 54.9366C53.8086 55.5811 54.8828 55.5811 55.5078 54.9366C56.1523 54.253 56.1719 53.2373 55.5078 52.5733L6.46484 3.49125C5.80078 2.82719 4.74609 2.82719 4.08203 3.49125C3.45703 4.11625 3.45703 5.21 4.08203 5.835Z" fill="black" fill-opacity="0.85"/>
 </g>
</svg>
