<?xml version="1.0" encoding="UTF-8"?>
<!--Generator: Apple Native CoreSVG 326-->
<!DOCTYPE svg
PUBLIC "-//W3C//DTD SVG 1.1//EN"
       "http://www.w3.org/Graphics/SVG/1.1/DTD/svg11.dtd">
<svg version="1.1" xmlns="http://www.w3.org/2000/svg" xmlns:xlink="http://www.w3.org/1999/xlink" viewBox="0 0 61.2891 47.0117">
 <g>
  <rect height="47.0117" opacity="0" width="61.2891" x="0" y="0"/>
  <path d="M12.0898 28.1641L12.0898 33.3008C12.0898 35.6055 10.918 36.7969 8.55469 36.7969L3.53516 36.7969C1.19141 36.7969 0 35.625 0 33.3008L0 28.1641C0 25.8594 1.19141 24.6875 3.53516 24.6875L8.55469 24.6875C10.918 24.6875 12.0898 25.8594 12.0898 28.1641Z" fill="black" fill-opacity="0.425"/>
  <path d="M31.543 3.47656L31.543 7.23152C25.8241 7.66485 21.1426 12.7093 21.0985 19.0234L9.98047 19.0234C7.63672 19.0234 6.44531 17.8516 6.44531 15.5469L6.44531 3.47656C6.44531 1.17188 7.63672 0 9.98047 0L28.0078 0C30.3516 0 31.543 1.17188 31.543 3.47656Z" fill="black" fill-opacity="0.425"/>
  <path d="M60.918 14.2773L60.918 28.7109C60.918 31.0156 59.7266 32.1875 57.3828 32.1875L50.0391 32.1875C47.6758 32.1875 46.4844 31.0352 46.4844 28.7109L46.4844 14.2773C46.4844 11.9531 47.6758 10.7812 50.0391 10.7812L57.3828 10.7812C59.7266 10.7812 60.918 11.9727 60.918 14.2773Z" fill="black" fill-opacity="0.425"/>
  <path d="M32.3633 28.1055C36.7578 28.1055 40.4883 24.1797 40.4883 19.082C40.4883 14.1016 36.7383 10.3125 32.3633 10.3125C27.9688 10.3125 24.2188 14.1602 24.2188 19.1211C24.2188 24.1797 27.9492 28.1055 32.3633 28.1055ZM18.4961 46.9727L46.1719 46.9727C48.2422 46.9727 49.5312 45.9766 49.5312 44.3359C49.5312 39.043 42.9297 31.7578 32.3438 31.7578C21.7383 31.7578 15.1367 39.043 15.1367 44.3359C15.1367 45.9766 16.4258 46.9727 18.4961 46.9727Z" fill="black" fill-opacity="0.85"/>
 </g>
</svg>
