<?xml version="1.0" encoding="UTF-8"?>
<!--Generator: Apple Native CoreSVG 326-->
<!DOCTYPE svg
PUBLIC "-//W3C//DTD SVG 1.1//EN"
       "http://www.w3.org/Graphics/SVG/1.1/DTD/svg11.dtd">
<svg version="1.1" xmlns="http://www.w3.org/2000/svg" xmlns:xlink="http://www.w3.org/1999/xlink" viewBox="0 0 51.25 50.918">
 <g>
  <rect height="50.918" opacity="0" width="51.25" x="0" y="0"/>
  <path d="M50.8789 25.4688C50.8789 39.4922 39.4531 50.918 25.4297 50.918C11.4258 50.918 0 39.4922 0 25.4688C0 11.4648 11.4258 0.0390625 25.4297 0.0390625C39.4531 0.0390625 50.8789 11.4648 50.8789 25.4688ZM22.5391 19.4336C21.1523 20.625 19.5898 22.3047 19.5703 22.3438C18.5742 23.457 18.6523 25.0977 19.6875 26.0156C20.7422 27.0508 22.4219 26.9727 23.3984 25.918C23.4375 25.8984 24.8047 24.3164 26.0352 23.3008C27.9688 21.543 31.0938 21.875 32.7148 23.2031C33.8867 24.2773 34.5898 25.6445 34.6875 27.1484C34.8242 28.5352 34.2969 29.8828 33.3398 30.957C31.3672 33.1836 27.4609 36.8359 27.4414 36.8555C26.3867 37.9297 26.3477 39.5508 27.4023 40.5664C28.3984 41.6211 30.0586 41.6797 31.0938 40.6836C31.2695 40.5078 35.0977 36.8359 37.2266 34.4727C39.1797 32.3633 40.1367 29.668 39.9805 26.8164C39.7852 23.9258 38.418 21.2109 36.1719 19.2773C34.2773 17.6562 31.8555 16.8555 29.4141 16.8555C26.8945 16.8555 24.4531 17.6953 22.5391 19.4336ZM19.7266 10.8008C19.5898 10.9961 15.7422 14.668 13.6133 17.0312C11.6406 19.1406 10.7031 21.875 10.8594 24.6875C11.0742 27.5781 12.4023 30.2734 14.7266 32.2266C16.5625 33.8477 18.9648 34.6289 21.4062 34.6289C23.9453 34.6289 26.4062 33.8086 28.2812 32.0703C29.6875 30.8789 31.2305 29.1797 31.2695 29.1602C32.2461 28.0664 32.1875 26.4258 31.1328 25.4688C30.0781 24.4336 28.3984 24.5117 27.4414 25.6055C27.4023 25.6055 26.0352 27.1484 24.8047 28.2031C22.8711 29.9414 19.7266 29.668 18.1055 28.3008C16.9336 27.2266 16.2305 25.8594 16.1328 24.375C16.0156 22.9688 16.5234 21.6211 17.4805 20.5859C19.4727 18.3203 23.3594 14.668 23.3984 14.6094C24.4531 13.5742 24.4727 11.9531 23.4375 10.9375C22.4219 9.92188 20.7812 9.82422 19.7266 10.8008Z" fill="black" fill-opacity="0.85"/>
 </g>
</svg>
