<?xml version="1.0" encoding="UTF-8"?>
<!--Generator: Apple Native CoreSVG 326-->
<!DOCTYPE svg
PUBLIC "-//W3C//DTD SVG 1.1//EN"
       "http://www.w3.org/Graphics/SVG/1.1/DTD/svg11.dtd">
<svg version="1.1" xmlns="http://www.w3.org/2000/svg" xmlns:xlink="http://www.w3.org/1999/xlink" viewBox="0 0 60.4102 50.0586">
 <g>
  <rect height="50.0586" opacity="0" width="60.4102" x="0" y="0"/>
  <path d="M60.0391 30.0195C60.0391 22.6562 57.3828 15.918 52.9688 10.6836C52.4609 10.0781 51.6016 10.0977 51.0352 10.6641L45.3906 16.3086C44.9023 16.7969 44.8828 17.4805 45.3125 18.0273C47.9102 21.3477 49.4531 25.4883 49.4531 30.0195C49.4531 34.5508 47.9102 38.7109 45.1953 42.1484C44.8242 42.6172 44.8438 43.2031 45.2539 43.6133L51.0352 49.4141C51.6016 50 52.4414 49.9805 52.9688 49.375C57.3828 44.1406 60.0391 37.3633 60.0391 30.0195Z" fill="black" fill-opacity="0.85"/>
  <path d="M30.0195 10.5664C34.5508 10.5664 38.7305 12.1289 42.0508 14.7656C42.5781 15.1562 43.2227 15.1172 43.7109 14.6289L49.375 8.96484C49.9609 8.39844 49.9414 7.55859 49.3359 7.03125C44.1211 2.65625 37.3633 0 30.0195 0C22.6758 0 15.918 2.65625 10.7031 7.03125C10.0977 7.55859 10.0781 8.39844 10.6445 8.96484L16.3281 14.6289C16.7969 15.1172 17.5 15.1367 18.0469 14.707C21.3477 12.1289 25.5078 10.5664 30.0195 10.5664Z" fill="black" fill-opacity="0.85"/>
  <path d="M0 30.0195C0 37.3633 2.65625 44.1406 7.07031 49.375C7.57812 49.9805 8.4375 50 9.00391 49.4141L14.7852 43.6133C15.1758 43.2031 15.2148 42.6172 14.8438 42.1484C12.1289 38.7109 10.5664 34.5508 10.5664 30.0195C10.5664 25.4883 12.1094 21.3477 14.7266 18.0273C15.1367 17.4805 15.1367 16.7969 14.6484 16.3086L8.98438 10.6641C8.41797 10.0977 7.57812 10.0781 7.05078 10.6836C2.63672 15.918 0 22.6562 0 30.0195Z" fill="black" fill-opacity="0.85"/>
  <path d="M20.8008 41.4648C21.4648 41.4648 21.875 41.0156 21.875 40.3125L21.875 21.8945L27.6758 21.8945C30.5859 21.8945 31.9531 22.6953 31.9531 25.9961L31.9531 33.7891C31.9531 34.5117 32.3828 34.9609 33.0664 34.9609C33.75 34.9609 34.1797 34.5117 34.1797 33.7891L34.1797 25.5469C34.1797 21.543 32.5 19.4531 28.418 19.4531L21.3477 19.4531C20.3125 19.4531 19.668 20.0977 19.668 21.1328L19.668 40.3125C19.668 41.0156 20.1172 41.4648 20.8008 41.4648ZM27.4219 41.25L34.668 41.25C38.9062 41.25 40.3125 39.0039 40.3125 34.7656L40.3125 20.4492C40.3125 19.707 39.8828 19.2383 39.2188 19.2383C38.5156 19.2383 38.0859 19.707 38.0859 20.4492L38.0859 34.668C38.0859 37.9297 37.3047 38.8281 34.043 38.8281L28.0273 38.8281L28.0273 26.8945C28.0273 26.1719 27.5977 25.7422 26.9336 25.7422C26.25 25.7422 25.8203 26.1719 25.8203 26.8945L25.8203 39.668C25.8203 40.6836 26.4844 41.25 27.4219 41.25Z" fill="black" fill-opacity="0.85"/>
 </g>
</svg>
