<?xml version="1.0" encoding="UTF-8"?>
<!--Generator: Apple Native CoreSVG 326-->
<!DOCTYPE svg
PUBLIC "-//W3C//DTD SVG 1.1//EN"
       "http://www.w3.org/Graphics/SVG/1.1/DTD/svg11.dtd">
<svg version="1.1" xmlns="http://www.w3.org/2000/svg" xmlns:xlink="http://www.w3.org/1999/xlink" viewBox="0 0 56.2305 55.8789">
 <g>
  <rect height="55.8789" opacity="0" width="56.2305" x="0" y="0"/>
  <path d="M27.9297 55.8594C43.2812 55.8594 55.8594 43.3008 55.8594 27.9297C55.8594 12.5586 43.2812 0 27.9297 0C12.5781 0 0 12.5586 0 27.9297C0 43.3008 12.5781 55.8594 27.9297 55.8594ZM27.9297 46.6797C17.5586 46.6797 9.16016 38.3008 9.16016 27.9297C9.16016 17.5586 17.5586 9.16016 27.9297 9.16016C38.3008 9.16016 46.6992 17.5586 46.6992 27.9297C46.6992 38.3008 38.3008 46.6797 27.9297 46.6797Z" fill="black" fill-opacity="0.85"/>
  <path d="M18.7305 39.043C19.3945 39.043 19.8242 38.6133 19.8242 37.8906L19.8242 19.4727L25.6055 19.4727C28.5352 19.4727 29.9023 20.293 29.9023 23.5938L29.9023 31.3672C29.9023 32.0898 30.3125 32.5586 30.9961 32.5586C31.6797 32.5586 32.1094 32.0898 32.1094 31.3672L32.1094 23.125C32.1094 19.1406 30.4297 17.0508 26.3477 17.0508L19.2773 17.0508C18.2422 17.0508 17.5977 17.6758 17.5977 18.7109L17.5977 37.8906C17.5977 38.6133 18.0469 39.043 18.7305 39.043ZM25.3516 38.8477L32.5977 38.8477C36.8359 38.8477 38.2422 36.582 38.2422 32.3438L38.2422 18.0273C38.2422 17.2852 37.832 16.8164 37.1484 16.8164C36.4648 16.8164 36.0156 17.2852 36.0156 18.0273L36.0156 32.2461C36.0156 35.5273 35.2539 36.4062 31.9727 36.4062L25.957 36.4062L25.957 24.4727C25.957 23.75 25.5469 23.3203 24.8633 23.3203C24.1992 23.3203 23.75 23.75 23.75 24.4727L23.75 37.2461C23.75 38.2617 24.4141 38.8477 25.3516 38.8477Z" fill="black" fill-opacity="0.85"/>
 </g>
</svg>
