<?xml version="1.0" encoding="UTF-8"?>
<!--Generator: Apple Native CoreSVG 326-->
<!DOCTYPE svg
PUBLIC "-//W3C//DTD SVG 1.1//EN"
       "http://www.w3.org/Graphics/SVG/1.1/DTD/svg11.dtd">
<svg version="1.1" xmlns="http://www.w3.org/2000/svg" xmlns:xlink="http://www.w3.org/1999/xlink" viewBox="0 0 50.918 54.6631">
 <g>
  <rect height="54.6631" opacity="0" width="50.918" x="0" y="0"/>
  <path d="M3.26172 42.8491L23.2812 54.0991C24.6484 54.8413 25.8984 54.8609 27.2656 54.0991L47.2852 42.8491C49.4727 41.6187 50.5469 40.3491 50.5469 37.1265L50.5469 16.6187C50.5469 14.3531 49.668 12.9273 47.793 11.8726L29.3359 1.44289C26.6211-0.100074 23.9258-0.100074 21.1914 1.44289L2.75391 11.8726C0.878906 12.9273 0 14.3531 0 16.6187L0 37.1265C0 40.3491 1.07422 41.6187 3.26172 42.8491ZM5.27344 40.0562C3.75 39.2163 3.32031 38.396 3.32031 36.9898L3.32031 17.3609L23.5742 28.7866L23.5742 50.3296ZM45.2734 40.0562L26.9727 50.3296L26.9727 28.7866L47.2266 17.3609L47.2266 36.9898C47.2266 38.396 46.7969 39.2163 45.2734 40.0562ZM25.2734 25.7593L5.07812 14.4507L13.5547 9.64602L33.7891 21.0132ZM37.2461 19.0601L16.9531 7.71243L22.7344 4.47024C24.4531 3.49368 26.0938 3.47414 27.8125 4.47024L45.4688 14.4507Z" fill="black" fill-opacity="0.85"/>
 </g>
</svg>
