<?xml version="1.0" encoding="UTF-8"?>
<!--Generator: Apple Native CoreSVG 326-->
<!DOCTYPE svg
PUBLIC "-//W3C//DTD SVG 1.1//EN"
       "http://www.w3.org/Graphics/SVG/1.1/DTD/svg11.dtd">
<svg version="1.1" xmlns="http://www.w3.org/2000/svg" xmlns:xlink="http://www.w3.org/1999/xlink" viewBox="0 0 51.25 50.918">
 <g>
  <rect height="50.918" opacity="0" width="51.25" x="0" y="0"/>
  <path d="M25.4297 50.8789C39.4727 50.8789 50.8789 39.4922 50.8789 25.4492C50.8789 11.4062 39.4727 0 25.4297 0C11.3867 0 0 11.4062 0 25.4492C0 39.4922 11.3867 50.8789 25.4297 50.8789ZM25.4297 47.2461C13.3789 47.2461 3.63281 37.5 3.63281 25.4492C3.63281 13.3984 13.3789 3.65234 25.4297 3.65234C37.4805 3.65234 47.2266 13.3984 47.2266 25.4492C47.2266 37.5 37.4805 47.2461 25.4297 47.2461Z" fill="black" fill-opacity="0.85"/>
  <path d="M26.25 39.7852C26.3672 39.7656 26.4453 39.707 26.5234 39.668L37.1094 33.7109C38.2617 33.0469 38.8672 32.3633 38.8672 30.6836L38.8672 20.1172C38.8672 19.7461 38.8477 19.4531 38.7695 19.1992L26.25 26.25ZM24.6094 39.7852L24.6094 26.25L12.1094 19.1992C12.0117 19.4531 12.0117 19.7461 12.0117 20.1172L12.0117 30.6836C12.0117 32.3633 12.5977 33.0469 13.75 33.7109L24.3359 39.668C24.4141 39.707 24.4922 39.7656 24.6094 39.7852ZM25.4297 24.8242L31.1914 21.582L18.5352 14.4336L13.5352 17.2656C13.2422 17.4023 13.0273 17.5586 12.8516 17.7344ZM32.8906 20.625L38.0078 17.7344C37.8516 17.5586 37.6172 17.4023 37.3242 17.2656L27.5977 11.7383C26.8555 11.3086 26.1328 11.1133 25.4297 11.1133C24.7461 11.1133 24.0039 11.3086 23.2812 11.7383L20.1953 13.4766Z" fill="black" fill-opacity="0.85"/>
 </g>
</svg>
