<?xml version="1.0" encoding="UTF-8"?>
<!--Generator: Apple Native CoreSVG 326-->
<!DOCTYPE svg
PUBLIC "-//W3C//DTD SVG 1.1//EN"
       "http://www.w3.org/Graphics/SVG/1.1/DTD/svg11.dtd">
<svg version="1.1" xmlns="http://www.w3.org/2000/svg" xmlns:xlink="http://www.w3.org/1999/xlink" viewBox="0 0 73.125 54.5508">
 <g>
  <rect height="54.5508" opacity="0" width="73.125" x="0" y="0"/>
  <path d="M31.1133 30.1172C31.1133 31.0352 30.3516 31.8164 29.4531 31.8164L8.45703 31.8164L4.76562 31.6797L6.36719 33.2227L10.8203 37.4805C11.1719 37.7734 11.3477 38.2227 11.3477 38.6523C11.3477 39.5312 10.7031 40.2148 9.82422 40.2148C9.375 40.2148 9.02344 40.0391 8.69141 39.707L0.566406 31.3477C0.136719 30.918 0 30.5469 0 30.1172C0 29.668 0.136719 29.2969 0.566406 28.8672L8.69141 20.4883C9.02344 20.1758 9.375 19.9805 9.82422 19.9805C10.7031 19.9805 11.3477 20.6445 11.3477 21.543C11.3477 21.9531 11.1719 22.4219 10.8203 22.7344L6.36719 26.9727L4.74609 28.5352L8.45703 28.3984L29.4531 28.3984C30.3516 28.3984 31.1133 29.1797 31.1133 30.1172ZM47.6562 54.5508C47.832 54.5117 48.0078 54.4141 48.1836 54.3164L68.1445 43.0664C70.3516 41.8164 71.4648 40.5273 71.4648 37.2656L71.4648 17.3438C71.4648 16.6406 71.4062 16.0938 71.2891 15.6055L47.6562 28.9648ZM44.5312 54.5508L44.5312 28.9648L20.918 15.6055C20.7812 16.0938 20.7227 16.6406 20.7227 17.3438L20.7227 37.2656C20.7227 40.5273 21.8359 41.8164 24.043 43.0664L44.0039 54.3164C44.1797 54.4141 44.3555 54.5117 44.5312 54.5508ZM46.0938 26.2305L56.9922 20.0977L33.0469 6.58203L23.6328 11.9141C23.0859 12.207 22.6758 12.5 22.3438 12.832ZM60.1758 18.3008L69.8438 12.832C69.5117 12.5 69.1211 12.207 68.5742 11.9141L50.2148 1.50391C48.8086 0.703125 47.4414 0.292969 46.0938 0.292969C44.7461 0.292969 43.3789 0.703125 41.9922 1.50391L36.1914 4.78516Z" fill="black" fill-opacity="0.85"/>
 </g>
</svg>
