<?xml version="1.0" encoding="UTF-8"?>
<!--Generator: Apple Native CoreSVG 326-->
<!DOCTYPE svg
PUBLIC "-//W3C//DTD SVG 1.1//EN"
       "http://www.w3.org/Graphics/SVG/1.1/DTD/svg11.dtd">
<svg version="1.1" xmlns="http://www.w3.org/2000/svg" xmlns:xlink="http://www.w3.org/1999/xlink" viewBox="0 0 39.6289 53.1445">
 <g>
  <rect height="53.1445" opacity="0" width="39.6289" x="0" y="0"/>
  <path d="M7.32422 52.4414C8.26172 52.4414 9.00391 51.6797 9.00391 50.7617C9.00391 49.8438 8.26172 49.082 7.32422 49.082C6.40625 49.082 5.64453 49.8438 5.64453 50.7617C5.64453 51.6797 6.40625 52.4414 7.32422 52.4414ZM15.5273 52.4414C16.4453 52.4414 17.207 51.6797 17.207 50.7617C17.207 49.8438 16.4453 49.082 15.5273 49.082C14.5898 49.082 13.8281 49.8438 13.8281 50.7617C13.8281 51.6797 14.5898 52.4414 15.5273 52.4414ZM23.7109 52.4414C24.6289 52.4414 25.3906 51.6797 25.3906 50.7617C25.3906 49.8438 24.6289 49.082 23.7109 49.082C22.7734 49.082 22.0312 49.8438 22.0312 50.7617C22.0312 51.6797 22.7734 52.4414 23.7109 52.4414Z" fill="black" fill-opacity="0.85"/>
  <path d="M7.32422 45.0781C8.26172 45.0781 9.00391 44.3359 9.00391 43.3984C9.00391 42.4805 8.26172 41.7188 7.32422 41.7188C6.40625 41.7188 5.64453 42.4805 5.64453 43.3984C5.64453 44.3359 6.40625 45.0781 7.32422 45.0781ZM15.5273 45.0781C16.4453 45.0781 17.207 44.3359 17.207 43.3984C17.207 42.4805 16.4453 41.7188 15.5273 41.7188C14.5898 41.7188 13.8281 42.4805 13.8281 43.3984C13.8281 44.3359 14.5898 45.0781 15.5273 45.0781ZM23.7109 45.0781C24.6289 45.0781 25.3906 44.3359 25.3906 43.3984C25.3906 42.4805 24.6289 41.7188 23.7109 41.7188C22.7734 41.7188 22.0312 42.4805 22.0312 43.3984C22.0312 44.3359 22.7734 45.0781 23.7109 45.0781Z" fill="black" fill-opacity="0.85"/>
  <path d="M7.32422 37.7148C8.26172 37.7148 9.00391 36.9727 9.00391 36.0352C9.00391 35.1172 8.26172 34.3555 7.32422 34.3555C6.40625 34.3555 5.64453 35.1172 5.64453 36.0352C5.64453 36.9727 6.40625 37.7148 7.32422 37.7148ZM15.5273 37.7148C16.4453 37.7148 17.207 36.9727 17.207 36.0352C17.207 35.1172 16.4453 34.3555 15.5273 34.3555C14.5898 34.3555 13.8281 35.1172 13.8281 36.0352C13.8281 36.9727 14.5898 37.7148 15.5273 37.7148ZM23.7109 37.7148C24.6289 37.7148 25.3906 36.9727 25.3906 36.0352C25.3906 35.1172 24.6289 34.3555 23.7109 34.3555C22.7734 34.3555 22.0312 35.1172 22.0312 36.0352C22.0312 36.9727 22.7734 37.7148 23.7109 37.7148Z" fill="black" fill-opacity="0.85"/>
  <path d="M27.1875 0L20.3516 0C16.3867 0 13.9258 2.42188 13.9258 6.28906L13.9258 10.6055L17.1875 10.6055L17.1875 6.28906C17.1875 4.41406 18.3984 3.28125 20.3516 3.28125L27.1875 3.28125C32.5195 3.28125 35.9961 7.03125 35.9961 12.7539L35.9961 51.4453C35.9961 52.4023 36.6797 53.1055 37.6367 53.1055C38.5742 53.1055 39.2578 52.4023 39.2578 51.4453L39.2578 12.7539C39.2578 5.03906 34.5117 0 27.1875 0ZM0 29.7461C0 30.5273 0.664062 31.1719 1.42578 31.1719L29.668 31.1719C30.4492 31.1719 31.0938 30.5273 31.0938 29.7461C31.0938 28.9648 30.4688 28.3008 29.707 28.3008L29.4922 28.3008C29.3164 23.0664 25.957 18.4375 21.3086 16.3477L21.3086 14.3359C21.3086 11.0547 18.8867 8.61328 15.5469 8.61328C12.2266 8.61328 9.80469 11.0547 9.80469 14.3359L9.80469 16.3477C5.13672 18.4375 1.77734 23.0664 1.60156 28.3008L1.38672 28.3008C0.644531 28.3008 0 28.9648 0 29.7461Z" fill="black" fill-opacity="0.85"/>
 </g>
</svg>
