<?xml version="1.0" encoding="UTF-8"?>
<!--Generator: Apple Native CoreSVG 326-->
<!DOCTYPE svg
PUBLIC "-//W3C//DTD SVG 1.1//EN"
       "http://www.w3.org/Graphics/SVG/1.1/DTD/svg11.dtd">
<svg version="1.1" xmlns="http://www.w3.org/2000/svg" xmlns:xlink="http://www.w3.org/1999/xlink" viewBox="0 0 59.5508 45.957">
 <g>
  <rect height="45.957" opacity="0" width="59.5508" x="0" y="0"/>
  <path d="M7.59766 45.957L51.5625 45.957C56.6211 45.957 59.1797 43.418 59.1797 38.4375L59.1797 7.57812C59.1797 2.59766 56.6211 0.0585938 51.5625 0.0585938L7.59766 0.0585938C2.55859 0.0585938 0 2.57812 0 7.57812L0 38.4375C0 43.4375 2.55859 45.957 7.59766 45.957ZM7.67578 42.5C4.94141 42.5 3.45703 41.0547 3.45703 38.2617L3.45703 7.75391C3.45703 4.96094 4.94141 3.51562 7.67578 3.51562L51.5039 3.51562C54.1797 3.51562 55.7031 4.96094 55.7031 7.75391L55.7031 38.2617C55.7031 41.0547 54.1797 42.5 51.5039 42.5ZM36.9141 43.1836L40.293 43.1836L40.293 2.77344L36.9141 2.77344ZM50.4883 15.6836C51.1133 15.6836 51.5625 15.2539 51.5625 14.6484L51.5625 9.74609C51.5625 9.10156 51.1328 8.69141 50.4883 8.69141L45.5469 8.69141C44.9414 8.69141 44.5117 9.10156 44.5117 9.74609L44.5117 14.6484C44.5117 15.2539 44.9609 15.6836 45.5469 15.6836ZM50.4883 26.4844C51.1133 26.4844 51.5625 26.0352 51.5625 25.4492L51.5625 20.5273C51.5625 19.9219 51.1328 19.4531 50.4883 19.4531L45.5469 19.4531C44.9414 19.4531 44.5117 19.9219 44.5117 20.5273L44.5117 25.4492C44.5117 26.0352 44.9609 26.4844 45.5469 26.4844ZM50.4883 37.2461C51.1133 37.2461 51.5625 36.8164 51.5625 36.2109L51.5625 31.3086C51.5625 30.6836 51.1328 30.2539 50.4883 30.2539L45.5469 30.2539C44.9414 30.2539 44.5117 30.6836 44.5117 31.3086L44.5117 36.2109C44.5117 36.8164 44.9609 37.2461 45.5469 37.2461Z" fill="black" fill-opacity="0.85"/>
 </g>
</svg>
