<?xml version="1.0" encoding="UTF-8"?>
<!--Generator: Apple Native CoreSVG 326-->
<!DOCTYPE svg
PUBLIC "-//W3C//DTD SVG 1.1//EN"
       "http://www.w3.org/Graphics/SVG/1.1/DTD/svg11.dtd">
<svg version="1.1" xmlns="http://www.w3.org/2000/svg" xmlns:xlink="http://www.w3.org/1999/xlink" viewBox="0 0 51.25 50.918">
 <g>
  <rect height="50.918" opacity="0" width="51.25" x="0" y="0"/>
  <path d="M50.8789 25.4688C50.8789 39.4922 39.4531 50.918 25.4297 50.918C11.4258 50.918 0 39.4922 0 25.4688C0 11.4648 11.4258 0.0390625 25.4297 0.0390625C39.4531 0.0390625 50.8789 11.4648 50.8789 25.4688ZM24.1406 11.0938L24.1406 13.8281L15.4688 13.8281C13.5938 13.8281 12.5195 14.8438 12.5195 16.7188L12.5195 25.3711C12.5195 27.207 13.5938 28.2422 15.4688 28.2422L24.1406 28.2422L24.1406 38.5742L19.8047 38.5742C19.1211 38.5742 18.5352 39.1602 18.5352 39.8633C18.5352 40.5469 19.1211 41.1328 19.8047 41.1328L31.0156 41.1328C31.7188 41.1328 32.2852 40.5273 32.2852 39.8633C32.2852 39.1797 31.7188 38.5742 31.0156 38.5742L26.6797 38.5742L26.6797 28.2422L35.3516 28.2422C37.2461 28.2422 38.3008 27.207 38.3008 25.3711L38.3008 16.7188C38.3008 14.8438 37.2461 13.8281 35.3516 13.8281L26.6797 13.8281L26.6797 11.0938C26.6797 10.4102 26.0938 9.82422 25.4102 9.82422C24.7266 9.82422 24.1406 10.4102 24.1406 11.0938ZM26.1914 17.793L29.6875 22.7734C30.2344 23.5547 29.9414 24.1992 29.0039 24.1992L21.8555 24.1992C20.8984 24.1992 20.625 23.5547 21.1719 22.7734L24.668 17.793C25.0977 17.1875 25.7617 17.168 26.1914 17.793Z" fill="black" fill-opacity="0.85"/>
 </g>
</svg>
