<?xml version="1.0" encoding="UTF-8"?>
<!--Generator: Apple Native CoreSVG 326-->
<!DOCTYPE svg
PUBLIC "-//W3C//DTD SVG 1.1//EN"
       "http://www.w3.org/Graphics/SVG/1.1/DTD/svg11.dtd">
<svg version="1.1" xmlns="http://www.w3.org/2000/svg" xmlns:xlink="http://www.w3.org/1999/xlink" viewBox="0 0 51.25 50.918">
 <g>
  <rect height="50.918" opacity="0" width="51.25" x="0" y="0"/>
  <path d="M25.4297 50.8789C39.4727 50.8789 50.8789 39.4922 50.8789 25.4492C50.8789 11.4062 39.4727 0 25.4297 0C11.3867 0 0 11.4062 0 25.4492C0 39.4922 11.3867 50.8789 25.4297 50.8789ZM25.4297 47.2461C13.3789 47.2461 3.63281 37.5 3.63281 25.4492C3.63281 13.3984 13.3789 3.65234 25.4297 3.65234C37.4805 3.65234 47.2266 13.3984 47.2266 25.4492C47.2266 37.5 37.4805 47.2461 25.4297 47.2461Z" fill="black" fill-opacity="0.85"/>
  <path d="M34.7461 27.8711C36.3867 27.8711 37.3242 26.9336 37.3242 25.3125L37.3242 18.2812C37.3242 16.6797 36.3867 15.7812 34.7461 15.7812L26.6797 15.7812L26.6797 12.7734C26.6797 12.0898 26.1328 11.5234 25.4102 11.5234C24.7656 11.5234 24.1992 12.0898 24.1992 12.7734L24.1992 15.7812L17.832 15.7812C16.7578 15.7812 16.2109 16.0938 15.5859 16.6797L12.168 19.9023C10.8008 21.1719 10.8594 22.4805 12.1484 23.7109L15.5859 26.9336C16.2109 27.5195 16.7578 27.8516 17.832 27.8516L24.1992 27.8516L24.1992 36.875L20.5078 36.875C19.8242 36.875 19.2773 37.4219 19.2773 38.1055C19.2773 38.7891 19.8242 39.3359 20.5078 39.3359L30.3516 39.3359C31.0156 39.3359 31.582 38.7891 31.582 38.1055C31.582 37.4219 31.0156 36.875 30.3516 36.875L26.6797 36.875L26.6797 27.8516Z" fill="black" fill-opacity="0.85"/>
 </g>
</svg>
