<?xml version="1.0" encoding="UTF-8"?>
<!--Generator: Apple Native CoreSVG 326-->
<!DOCTYPE svg
PUBLIC "-//W3C//DTD SVG 1.1//EN"
       "http://www.w3.org/Graphics/SVG/1.1/DTD/svg11.dtd">
<svg version="1.1" xmlns="http://www.w3.org/2000/svg" xmlns:xlink="http://www.w3.org/1999/xlink" viewBox="0 0 47.7931 55.293">
 <g>
  <rect height="55.293" opacity="0" width="47.7931" x="0" y="0"/>
  <path d="M21.9922 7.69531L25.4493 7.69531L25.4493 1.73828C25.4493 0.78125 24.668 0 23.7305 0C22.7735 0 21.9922 0.78125 21.9922 1.73828ZM15.6641 22.2266L38.3204 22.2266C39.668 22.2266 40.586 21.8359 41.4844 21.0156L46.1329 16.582C47.8711 14.9609 47.8711 13.3008 46.0938 11.582L41.4844 7.14844C40.6055 6.32812 39.6875 5.95703 38.3399 5.95703L15.6641 5.95703C13.5352 5.95703 12.2852 7.14844 12.2852 9.29688L12.2852 18.8867C12.2852 21.0156 13.5352 22.2266 15.6641 22.2266ZM9.12113 42.5L31.7579 42.5C33.8868 42.5 35.1368 41.2891 35.1368 39.1602L35.1368 29.5703C35.1368 27.4219 33.8868 26.2305 31.7579 26.2305L9.1016 26.2305C7.75395 26.2305 6.81645 26.6016 5.95707 27.4219L1.32817 31.875C-0.429647 33.5547-0.449178 35.2148 1.30863 36.875L5.95707 41.2891C6.83598 42.1289 7.77348 42.5 9.12113 42.5ZM21.9922 27.5977L25.4493 27.5977L25.4493 20.7031L21.9922 20.7031ZM21.9922 53.418L25.4493 53.418L25.4493 40.0781L21.9922 40.0781ZM15.0196 55.0586L32.4219 55.0586C33.3594 55.0586 34.1407 54.2773 34.1407 53.3203C34.1407 52.3828 33.3594 51.6016 32.4219 51.6016L15.0196 51.6016C14.0625 51.6016 13.2813 52.3828 13.2813 53.3203C13.2813 54.2773 14.0625 55.0586 15.0196 55.0586Z" fill="black" fill-opacity="0.85"/>
 </g>
</svg>
