<?xml version="1.0" encoding="UTF-8"?>
<!--Generator: Apple Native CoreSVG 326-->
<!DOCTYPE svg
PUBLIC "-//W3C//DTD SVG 1.1//EN"
       "http://www.w3.org/Graphics/SVG/1.1/DTD/svg11.dtd">
<svg version="1.1" xmlns="http://www.w3.org/2000/svg" xmlns:xlink="http://www.w3.org/1999/xlink" viewBox="0 0 52.173 52.168">
 <g>
  <rect height="52.168" opacity="0" width="52.173" x="0" y="0"/>
  <path d="M45.4615 30.9375C48.7037 30.9375 50.5201 29.1406 50.5201 25.9766L50.5201 12.3633C50.5201 9.19922 48.7037 7.42188 45.4615 7.42188L12.9224 7.42188C10.7935 7.42188 9.77789 8.06641 8.54742 9.21875L1.96539 15.4492C-0.690856 17.9688-0.612731 20.4688 1.94586 22.8711L8.54742 29.1211C9.77789 30.2734 10.7935 30.8984 12.942 30.8984ZM45.3834 27.4609L13.0591 27.4609C12.0045 27.4609 11.6138 27.2461 11.067 26.7383L4.21149 20.293C3.4693 19.6094 3.4693 18.6719 4.19196 18.0078L11.0474 11.6016C11.6138 11.0938 12.0045 10.8789 13.0396 10.8789L45.3834 10.8789C46.3795 10.8789 46.9654 11.4844 46.9654 12.4609L46.9654 25.8789C46.9654 26.8555 46.3795 27.4609 45.3834 27.4609ZM29.3091 10.0391L29.3091 1.73828C29.3091 0.78125 28.5279 0 27.5709 0C26.6334 0 25.8521 0.78125 25.8521 1.73828L25.8521 10.0391ZM29.3091 29.668L25.8521 29.668L25.8521 51.875L29.3091 51.875ZM38.7818 50.4102C38.7818 49.4531 38.0005 48.6719 37.063 48.6719L18.0787 48.6719C17.1216 48.6719 16.3404 49.4531 16.3404 50.4102C16.3404 51.3477 17.1216 52.1289 18.0787 52.1289L37.063 52.1289C38.0005 52.1289 38.7818 51.3477 38.7818 50.4102Z" fill="black" fill-opacity="0.85"/>
 </g>
</svg>
