<?xml version="1.0" encoding="UTF-8"?>
<!--Generator: Apple Native CoreSVG 326-->
<!DOCTYPE svg
PUBLIC "-//W3C//DTD SVG 1.1//EN"
       "http://www.w3.org/Graphics/SVG/1.1/DTD/svg11.dtd">
<svg version="1.1" xmlns="http://www.w3.org/2000/svg" xmlns:xlink="http://www.w3.org/1999/xlink" viewBox="0 0 44.2578 52.168">
 <g>
  <rect height="52.168" opacity="0" width="44.2578" x="0" y="0"/>
  <path d="M23.6719 1.73828L23.6719 6.23047L38.8477 6.23047C42.0703 6.23047 43.8867 8.00781 43.8867 11.1719L43.8867 25.9766C43.8867 29.1406 42.0703 30.9375 38.8477 30.9375L23.6719 30.9375L23.6719 48.6719L31.4453 48.6719C32.4023 48.6719 33.1641 49.4531 33.1641 50.4102C33.1641 51.3477 32.4023 52.1289 31.4453 52.1289L12.4609 52.1289C11.5234 52.1289 10.7227 51.3477 10.7227 50.4102C10.7227 49.4531 11.5234 48.6719 12.4609 48.6719L20.2148 48.6719L20.2148 30.9375L5.03906 30.9375C1.81641 30.9375 0 29.1406 0 25.9766L0 11.1719C0 8.00781 1.81641 6.23047 5.03906 6.23047L20.2148 6.23047L20.2148 1.73828C20.2148 0.78125 20.9961 0 21.9336 0C22.8906 0 23.6719 0.78125 23.6719 1.73828ZM20.625 13.125L14.7461 21.5039C13.7695 22.8711 14.2188 24.0039 15.918 24.0039L28.0078 24.0039C29.6289 24.0039 30.1367 22.8711 29.1992 21.5234L23.3008 13.125C22.5195 12.0117 21.3867 12.0117 20.625 13.125Z" fill="black" fill-opacity="0.85"/>
 </g>
</svg>
