<?xml version="1.0" encoding="UTF-8"?>
<!--Generator: Apple Native CoreSVG 326-->
<!DOCTYPE svg
PUBLIC "-//W3C//DTD SVG 1.1//EN"
       "http://www.w3.org/Graphics/SVG/1.1/DTD/svg11.dtd">
<svg version="1.1" xmlns="http://www.w3.org/2000/svg" xmlns:xlink="http://www.w3.org/1999/xlink" viewBox="0 0 50.6641 53.8477">
 <g>
  <rect height="53.8477" opacity="0" width="50.6641" x="0" y="0"/>
  <path d="M25.625 1.71875L30.2045 6.28906L25.5738 6.28906L23.75 4.45312C23.0273 3.75 22.2656 3.45703 21.2109 3.45703L6.91406 3.45703C4.62891 3.45703 3.45703 4.64844 3.45703 6.875L3.45703 40.4102C3.45703 42.6758 4.60938 43.8281 6.89453 43.8281L13.3594 43.8281L13.3594 46.7383C13.3594 46.9262 13.3634 47.1104 13.3774 47.2852L6.77734 47.2852C2.30469 47.2852 0 44.9414 0 40.4492L0 6.875C0 2.34375 2.30469 0 6.77734 0L21.2891 0C23.1641 0 24.4531 0.546875 25.625 1.71875ZM13.3594 40.1953L11.0742 40.1953C9.04297 40.1953 7.79297 38.9453 7.79297 36.8945L7.79297 28.8672L13.3594 28.8672ZM7.79297 26.582L7.79297 23.6914C7.79297 21.6211 9.04297 20.3906 11.0742 20.3906L13.3594 20.3906L13.3594 26.582Z" fill="black" fill-opacity="0.85"/>
  <path d="M20.1367 53.5742L43.5156 53.5742C47.9883 53.5742 50.293 51.2305 50.293 46.7383L50.293 22.0312C50.293 20 49.8633 18.8672 48.6914 17.6953L38.9844 8.00781C37.8125 6.83594 36.5039 6.28906 34.6484 6.28906L20.1367 6.28906C15.6641 6.28906 13.3594 8.63281 13.3594 13.1641L13.3594 46.7383C13.3594 51.2305 15.6641 53.5742 20.1367 53.5742ZM20.2539 50.1172C17.9688 50.1172 16.8164 48.9648 16.8164 46.6992L16.8164 13.1836C16.8164 10.9375 17.9883 9.76562 20.2734 9.76562L34.5703 9.76562C35.625 9.76562 36.3867 10.0391 37.1094 10.7617L45.9375 19.6289C46.582 20.293 46.8359 20.957 46.8359 22.2266L46.8359 46.6992C46.8359 48.9648 45.6641 50.1172 43.3789 50.1172ZM21.1523 43.1836C21.1523 45.2539 22.4023 46.4844 24.4336 46.4844L27.4609 46.4844L27.4609 35.5078C27.4609 35.293 27.3242 35.1562 27.0898 35.1562L21.1523 35.1562ZM21.1523 32.8906L28.3398 32.8906C29.2383 32.8906 29.7266 33.3984 29.7266 34.2578L29.7266 46.4844L34.1406 46.4844L34.1406 26.6797L24.4336 26.6797C22.4023 26.6797 21.1523 27.9102 21.1523 30ZM36.4258 46.4844L39.082 46.4844C41.1328 46.4844 42.3633 45.2539 42.3633 43.1836L42.3633 30C42.3633 27.9102 41.1328 26.6797 39.082 26.6797L36.4258 26.6797Z" fill="black" fill-opacity="0.85"/>
 </g>
</svg>
