<?xml version="1.0" encoding="UTF-8"?>
<!--Generator: Apple Native CoreSVG 326-->
<!DOCTYPE svg
PUBLIC "-//W3C//DTD SVG 1.1//EN"
       "http://www.w3.org/Graphics/SVG/1.1/DTD/svg11.dtd">
<svg version="1.1" xmlns="http://www.w3.org/2000/svg" xmlns:xlink="http://www.w3.org/1999/xlink" viewBox="0 0 55.5273 53.1055">
 <g>
  <rect height="53.1055" opacity="0" width="55.5273" x="0" y="0"/>
  <path d="M3.06641 47.6758L52.0898 47.6758L52.0898 46.1719C52.0898 45.332 51.582 44.8242 50.7227 44.8242L49.1211 44.8242L49.1211 16.6797L51.3867 16.6797C52.5781 16.6797 53.2422 15.8398 53.2422 14.9609C53.2422 14.3164 52.8906 13.75 52.1094 13.3008L30.5273 0.839844C29.5703 0.292969 28.5547 0 27.5781 0C26.6016 0 25.5664 0.292969 24.6289 0.839844L3.04688 13.3008C2.24609 13.75 1.91406 14.3164 1.91406 14.9609C1.91406 15.8398 2.57812 16.6797 3.76953 16.6797L6.05469 16.6797L6.05469 44.8242L4.45312 44.8242C3.57422 44.8242 3.06641 45.332 3.06641 46.1719ZM9.31641 44.8242L9.31641 13.7109L26.4453 4.0625C26.7773 3.86719 27.1875 3.75 27.5781 3.75C27.9492 3.75 28.3398 3.86719 28.7109 4.0625L45.8594 13.7109L45.8594 44.8242ZM1.73828 53.0664L53.418 53.0664C54.375 53.0664 55.1562 52.2852 55.1562 51.3477C55.1562 50.3906 54.375 49.6094 53.418 49.6094L1.73828 49.6094C0.78125 49.6094 0 50.3906 0 51.3477C0 52.2852 0.78125 53.0664 1.73828 53.0664Z" fill="black" fill-opacity="0.85"/>
  <path d="M20.7422 36.8164C24.7852 36.8164 26.7773 34.2773 26.7773 30.957C26.7773 27.5391 24.7266 26.2305 22.0312 25.1953L20.625 24.6484C18.7305 23.9062 17.4609 23.0078 17.4609 20.9766C17.4609 19.1016 18.5938 17.7344 20.6055 17.7344C22.4609 17.7344 23.6328 18.8477 24.0625 20.7812C24.2188 21.4258 24.6289 21.6992 25.2539 21.6992C25.918 21.6992 26.3281 21.2305 26.3281 20.5859C26.3281 20.3711 26.2891 20.0977 26.2305 19.8828C25.6445 17.2656 23.5156 15.5664 20.625 15.5664C17.0117 15.5664 14.9609 18.0469 14.9609 21.1328C14.9609 24.1602 16.7383 25.8008 19.5703 26.8555L21.0156 27.3828C22.9492 28.1055 24.2773 29.1406 24.2773 31.2109C24.2773 33.0664 23.1055 34.6484 20.8008 34.6484C18.75 34.6484 17.4414 33.457 17.0312 31.4258C16.875 30.8008 16.4844 30.5078 15.8594 30.5078C15.1953 30.5078 14.7266 30.9961 14.7266 31.6797C14.7266 31.9727 14.7852 32.3438 14.8633 32.5977C15.6445 35.2734 17.7539 36.8164 20.7422 36.8164ZM34.7656 36.0938C38.2031 36.0938 40.6445 34.1797 40.6445 30.9375C40.6445 27.9688 38.7891 26.6797 36.3086 25.5078L34.5117 24.6875C32.8125 23.8672 31.4648 22.8711 31.4648 21.1523C31.4648 19.2773 32.8711 18.3398 34.707 18.3398C36.8359 18.3398 37.6758 19.707 37.9883 21.543C38.1055 22.1094 38.4766 22.4609 39.1797 22.4609C39.8633 22.4609 40.293 22.0703 40.293 21.3477C40.293 21.0742 40.2734 20.8789 40.2148 20.6445C39.6094 17.5195 37.3828 16.3086 34.707 16.3086C31.6602 16.3086 29.0625 18.0078 29.0625 21.2891C29.0625 24.082 30.7227 25.4492 33.3008 26.6992L35.0586 27.5391C36.7773 28.3789 38.2031 29.2383 38.2031 31.1523C38.2031 33.0078 36.9141 34.043 34.7852 34.043C32.4609 34.043 31.4258 32.832 31.1523 30.7031C31.0547 30.1953 30.6445 29.7656 29.9805 29.7656C29.3359 29.7656 28.8281 30.2148 28.8281 30.8984C28.8281 31.0742 28.8477 31.3086 28.9062 31.582C29.5117 34.8438 31.9727 36.0938 34.7656 36.0938ZM34.7266 38.7891C35.0781 38.7891 35.3906 38.4961 35.3906 38.1445L35.3906 14.3359C35.3906 13.9844 35.0781 13.6719 34.7266 13.6719C34.375 13.6719 34.0625 13.9844 34.0625 14.3359L34.0625 38.1445C34.0625 38.4961 34.375 38.7891 34.7266 38.7891Z" fill="black" fill-opacity="0.85"/>
 </g>
</svg>
