<?xml version="1.0" encoding="UTF-8"?>
<!--Generator: Apple Native CoreSVG 326-->
<!DOCTYPE svg
PUBLIC "-//W3C//DTD SVG 1.1//EN"
       "http://www.w3.org/Graphics/SVG/1.1/DTD/svg11.dtd">
<svg version="1.1" xmlns="http://www.w3.org/2000/svg" xmlns:xlink="http://www.w3.org/1999/xlink" viewBox="0 0 60.4102 50.0586">
 <g>
  <rect height="50.0586" opacity="0" width="60.4102" x="0" y="0"/>
  <path d="M60.0391 30.0195C60.0391 22.6562 57.3828 15.918 52.9688 10.6836C52.4609 10.0781 51.6016 10.0977 51.0352 10.6641L45.3906 16.3086C44.9023 16.7969 44.8828 17.4805 45.3125 18.0273C47.9102 21.3477 49.4531 25.4883 49.4531 30.0195C49.4531 34.5508 47.9102 38.7109 45.1953 42.1484C44.8242 42.6172 44.8438 43.2031 45.2539 43.6133L51.0352 49.4141C51.6016 50 52.4414 49.9805 52.9688 49.375C57.3828 44.1406 60.0391 37.3633 60.0391 30.0195Z" fill="black" fill-opacity="0.85"/>
  <path d="M30.0195 10.5664C34.5508 10.5664 38.7305 12.1289 42.0508 14.7656C42.5781 15.1562 43.2227 15.1172 43.7109 14.6289L49.375 8.96484C49.9609 8.39844 49.9414 7.55859 49.3359 7.03125C44.1211 2.65625 37.3633 0 30.0195 0C22.6758 0 15.918 2.65625 10.7031 7.03125C10.0977 7.55859 10.0781 8.39844 10.6445 8.96484L16.3281 14.6289C16.7969 15.1172 17.5 15.1367 18.0469 14.707C21.3477 12.1289 25.5078 10.5664 30.0195 10.5664Z" fill="black" fill-opacity="0.85"/>
  <path d="M0 30.0195C0 37.3633 2.65625 44.1406 7.07031 49.375C7.57812 49.9805 8.4375 50 9.00391 49.4141L14.7852 43.6133C15.1758 43.2031 15.2148 42.6172 14.8438 42.1484C12.1289 38.7109 10.5664 34.5508 10.5664 30.0195C10.5664 25.4883 12.1094 21.3477 14.7266 18.0273C15.1367 17.4805 15.1367 16.7969 14.6484 16.3086L8.98438 10.6641C8.41797 10.0977 7.57812 10.0781 7.05078 10.6836C2.63672 15.918 0 22.6562 0 30.0195Z" fill="black" fill-opacity="0.85"/>
  <path d="M23.1445 40.7422C27.1875 40.7422 29.1797 38.2227 29.1797 34.8828C29.1797 31.4844 27.1289 30.1758 24.4336 29.1211L23.0273 28.5742C21.1328 27.832 19.8633 26.9531 19.8633 24.9023C19.8633 23.0469 20.9961 21.6797 23.0078 21.6797C24.8633 21.6797 26.0352 22.793 26.4648 24.707C26.6211 25.3516 27.0312 25.625 27.6562 25.625C28.3203 25.625 28.7305 25.1758 28.7305 24.5117C28.7305 24.2969 28.6914 24.043 28.6328 23.8281C28.0469 21.1914 25.918 19.4922 23.0273 19.4922C19.4336 19.4922 17.3633 21.9727 17.3633 25.0586C17.3633 28.1055 19.1406 29.7461 21.9727 30.8008L23.418 31.3281C25.3516 32.0312 26.6797 33.0664 26.6797 35.1367C26.6797 36.9922 25.5078 38.5742 23.2031 38.5742C21.1523 38.5742 19.8438 37.3828 19.4336 35.3516C19.2773 34.7266 18.8867 34.4336 18.2617 34.4336C17.5977 34.4336 17.1289 34.9219 17.1289 35.625C17.1289 35.918 17.1875 36.2695 17.2656 36.543C18.0469 39.1992 20.1562 40.7422 23.1445 40.7422ZM37.168 40.0195C40.6055 40.0195 43.0469 38.1055 43.0469 34.8633C43.0469 31.9141 41.1914 30.625 38.7109 29.4531L36.9141 28.6133C35.2148 27.793 33.8672 26.8164 33.8672 25.0781C33.8672 23.2031 35.2734 22.2656 37.1094 22.2656C39.2383 22.2656 40.0781 23.6328 40.3906 25.4688C40.5078 26.0352 40.8789 26.4062 41.582 26.4062C42.2656 26.4062 42.6953 25.9961 42.6953 25.293C42.6953 25.0195 42.6758 24.8047 42.6367 24.5703C42.0117 21.4453 39.7852 20.2344 37.1094 20.2344C34.0625 20.2344 31.4648 21.9531 31.4648 25.2148C31.4648 28.0078 33.125 29.3945 35.7031 30.625L37.4609 31.4648C39.1797 32.3047 40.6055 33.1641 40.6055 35.0781C40.6055 36.9336 39.3164 37.9883 37.1875 37.9883C34.8633 37.9883 33.8281 36.7578 33.5547 34.6484C33.457 34.1211 33.0469 33.6914 32.3828 33.6914C31.7383 33.6914 31.2305 34.1406 31.2305 34.8438C31.2305 35 31.25 35.2539 31.3086 35.5273C31.9141 38.7695 34.375 40.0195 37.168 40.0195ZM37.1289 42.7344C37.4805 42.7344 37.793 42.4219 37.793 42.0703L37.793 18.2617C37.793 17.9102 37.4805 17.5977 37.1289 17.5977C36.7773 17.5977 36.4648 17.9102 36.4648 18.2617L36.4648 42.0703C36.4648 42.4219 36.7773 42.7344 37.1289 42.7344Z" fill="black" fill-opacity="0.85"/>
 </g>
</svg>
