<?xml version="1.0" encoding="UTF-8"?>
<!--Generator: Apple Native CoreSVG 326-->
<!DOCTYPE svg
PUBLIC "-//W3C//DTD SVG 1.1//EN"
       "http://www.w3.org/Graphics/SVG/1.1/DTD/svg11.dtd">
<svg version="1.1" xmlns="http://www.w3.org/2000/svg" xmlns:xlink="http://www.w3.org/1999/xlink" viewBox="0 0 63.4375 56.543">
 <g>
  <rect height="56.543" opacity="0" width="63.4375" x="0" y="0"/>
  <path d="M14.6094 51.9727C22.9102 51.9727 29.0234 47.3242 29.0234 38.9453C29.0234 31.4453 24.0625 28.418 17.2852 26.3477L13.4375 25.1953C8.76953 23.7891 4.92188 21.4844 4.92188 16.4258C4.92188 10.9961 9.31641 8.04688 14.1992 8.04688C18.9258 8.04688 23.1641 10.625 24.1016 15.7422C24.3359 16.8359 24.9805 17.4023 26.0742 17.4023C27.168 17.4023 28.0078 16.7188 28.0078 15.4688C28.0078 15.0586 27.9492 14.5703 27.832 14.1016C26.3867 7.75391 20.6836 4.25781 14.2578 4.25781C6.67969 4.25781 0.722656 9.16016 0.722656 16.6406C0.722656 23.7109 5.3125 27.1094 12.1094 29.1602L15.9766 30.3516C20.9766 31.8555 24.8047 34.1211 24.8047 39.3359C24.8047 44.8828 20.4102 48.1836 14.7852 48.1836C9.16016 48.1836 4.84375 45.2344 3.86719 39.8438C3.57422 38.6523 2.92969 38.1641 1.89453 38.1641C0.761719 38.1641 0 38.9844 0 40.1562C0 40.8984 0.0976562 41.5234 0.273438 42.1289C1.85547 48.3984 7.69531 51.9727 14.6094 51.9727ZM49.1211 50.4102C56.6992 50.4102 63.0664 46.4258 63.0664 38.75C63.0664 31.875 58.1641 29.0625 52.207 26.8359L47.9102 25.2344C44.0234 23.8281 39.7656 21.5234 39.7656 16.875C39.7656 12.0703 44.1406 9.51172 48.9844 9.51172C54.0234 9.51172 57.4414 12.2266 58.3203 17.2266C58.5938 18.3203 59.2578 19.0039 60.3906 19.0039C61.6016 19.0039 62.3438 18.2617 62.3438 17.0703C62.3438 16.7578 62.3242 16.2109 62.207 15.6445C60.9766 9.14062 55.4297 5.83984 48.9844 5.83984C41.8945 5.83984 35.6445 9.90234 35.6445 17.0898C35.6445 23.3594 40.2734 26.6016 46.2305 28.8281L50.5273 30.4492C55.0586 32.0898 58.9844 34.1797 58.9844 39.082C58.9844 44.1992 54.7266 46.7383 49.1406 46.7383C43.5352 46.7383 39.668 44.0625 38.8867 38.5547C38.6914 37.4609 37.9492 36.7383 36.8164 36.7383C35.7227 36.7383 34.8438 37.4609 34.8438 38.7305C34.8438 39.0234 34.8828 39.3555 34.9219 39.6484C36.1133 46.9727 42.0898 50.4102 49.1211 50.4102ZM48.9453 56.5234C49.7266 56.5234 50.3711 55.8789 50.3711 55.1172L50.3711 1.40625C50.3711 0.644531 49.7266 0 48.9453 0C48.1641 0 47.5195 0.644531 47.5195 1.40625L47.5195 55.1172C47.5195 55.8789 48.1641 56.5234 48.9453 56.5234Z" fill="black" fill-opacity="0.85"/>
 </g>
</svg>
