<?xml version="1.0" encoding="UTF-8"?>
<!--Generator: Apple Native CoreSVG 326-->
<!DOCTYPE svg
PUBLIC "-//W3C//DTD SVG 1.1//EN"
       "http://www.w3.org/Graphics/SVG/1.1/DTD/svg11.dtd">
<svg version="1.1" xmlns="http://www.w3.org/2000/svg" xmlns:xlink="http://www.w3.org/1999/xlink" viewBox="0 0 59.3359 54.7852">
 <g>
  <rect height="54.7852" opacity="0" width="59.3359" x="0" y="0"/>
  <path d="M0 37.207C0 40.1758 2.42188 42.5977 5.37109 42.5977C7.51953 42.5977 9.375 41.3086 10.2148 39.4922L48.418 50.625C48.9258 53.0078 51.0742 54.7852 53.6133 54.7852C56.5625 54.7852 58.9648 52.3633 58.9648 49.4141C58.9648 47.1094 57.5 45.1367 55.4688 44.4141L54.5117 19.082C56.7188 18.457 58.3008 16.4258 58.3008 14.0039C58.3008 11.0547 55.8984 8.63281 52.9492 8.63281C50.9961 8.63281 49.2969 9.6875 48.3398 11.25L26.9336 5.39062C26.875 2.48047 24.4727 0.117188 21.582 0.117188C18.6328 0.117188 16.2109 2.53906 16.2109 5.48828C16.2109 7.10938 16.9336 8.55469 18.0469 9.55078L6.38672 32.0117C6.03516 31.8945 5.72266 31.8359 5.37109 31.8359C2.42188 31.8359 0 34.2578 0 37.207ZM9.19922 33.4766L20.8789 10.7422C22.9492 11.1328 25.0586 10.1367 25.9961 8.33984L47.7148 14.2773C47.6953 16.5234 49.2773 18.5742 51.4648 19.1797L52.2656 44.2188C50.5469 44.6484 49.1406 45.9375 48.5938 47.5977L10.6055 36.4648C10.4688 35.293 10.0586 34.3359 9.19922 33.4766Z" fill="black" fill-opacity="0.85"/>
 </g>
</svg>
