<?xml version="1.0" encoding="UTF-8"?>
<!--Generator: Apple Native CoreSVG 326-->
<!DOCTYPE svg
PUBLIC "-//W3C//DTD SVG 1.1//EN"
       "http://www.w3.org/Graphics/SVG/1.1/DTD/svg11.dtd">
<svg version="1.1" xmlns="http://www.w3.org/2000/svg" xmlns:xlink="http://www.w3.org/1999/xlink" viewBox="0 0 48.0078 55.7227">
 <g>
  <rect height="55.7227" opacity="0" width="48.0078" x="0" y="0"/>
  <path d="M33.2422 55.625C36.4453 55.625 39.0625 53.0078 39.0625 49.8047C39.0625 46.6211 36.4453 44.0039 33.2422 44.0039C30.0586 44.0039 27.4414 46.6211 27.4414 49.8047C27.4414 53.0078 30.0586 55.625 33.2422 55.625ZM33.2422 52.8516C31.543 52.8516 30.2148 51.5039 30.2148 49.8047C30.2148 48.0859 31.543 46.7578 33.2422 46.7578C34.9609 46.7578 36.2891 48.0859 36.2891 49.8047C36.2891 51.5039 34.9609 52.8516 33.2422 52.8516ZM29.2188 48.0859L1.73828 48.0859C0.761719 48.0859 0 48.8477 0 49.8047C0 50.7812 0.761719 51.543 1.73828 51.543L29.2188 51.543ZM45.9961 48.0859L37.5586 48.0859L37.5586 51.543L45.9961 51.543C46.875 51.543 47.6367 50.7812 47.6367 49.8047C47.6367 48.8477 46.875 48.0859 45.9961 48.0859Z" fill="black" fill-opacity="0.85"/>
  <path d="M24.2969 30.2539C29.5898 30.2539 33.9844 25.8594 33.9844 20.5664C33.9844 15.2539 29.5898 10.8594 24.2969 10.8594C19.0039 10.8594 14.6094 15.2539 14.6094 20.5664C14.6094 25.8594 19.0039 30.2539 24.2969 30.2539ZM24.3164 0C23.3789 0 22.5781 0.820312 22.5781 1.75781L22.5781 5.95703C22.5781 6.875 23.3789 7.65625 24.3164 7.65625C25.2539 7.65625 26.0547 6.875 26.0547 5.95703L26.0547 1.75781C26.0547 0.820312 25.2539 0 24.3164 0ZM38.8477 6.01562C38.1445 5.37109 37.0703 5.35156 36.4258 6.01562L33.3984 9.0625C32.7344 9.72656 32.793 10.8398 33.3984 11.4844C34.0625 12.1289 35.1953 12.1484 35.8398 11.4844L38.8477 8.4375C39.4922 7.77344 39.4922 6.69922 38.8477 6.01562ZM44.8047 20.5664C44.8047 19.5898 44.043 18.8281 43.1055 18.8281L38.9062 18.8281C37.9688 18.8281 37.207 19.6289 37.207 20.5664C37.207 21.5039 37.9688 22.2852 38.9062 22.2852L43.1055 22.2852C44.043 22.2852 44.8047 21.543 44.8047 20.5664ZM38.8477 35.0977C39.5117 34.375 39.5117 33.3398 38.8477 32.6758L35.8203 29.6484C35.1562 28.9844 34.0625 29.0039 33.3984 29.6484C32.7734 30.332 32.7344 31.4258 33.3984 32.0898L36.4258 35.0977C37.0898 35.7422 38.1445 35.7227 38.8477 35.0977ZM24.3164 41.1133C25.2539 41.1133 26.0547 40.293 26.0547 39.3555L26.0547 35.1758C26.0547 34.2383 25.2539 33.457 24.3164 33.457C23.3789 33.457 22.5781 34.2383 22.5781 35.1758L22.5781 39.3555C22.5781 40.293 23.3789 41.1133 24.3164 41.1133ZM9.78516 35.0781C10.4492 35.7227 11.5625 35.7422 12.207 35.0977L15.2344 32.0898C15.8789 31.4453 15.8594 30.3516 15.2344 29.6484C14.5703 29.0039 13.4375 29.0039 12.793 29.6484L9.78516 32.6758C9.14062 33.3203 9.16016 34.375 9.78516 35.0781ZM3.82812 20.5664C3.82812 21.543 4.58984 22.2852 5.52734 22.2852L9.72656 22.2852C10.6641 22.2852 11.4453 21.5039 11.4453 20.5664C11.4453 19.6289 10.6641 18.8281 9.72656 18.8281L5.52734 18.8281C4.58984 18.8281 3.82812 19.5898 3.82812 20.5664ZM9.80469 6.01562C9.19922 6.69922 9.14062 7.79297 9.78516 8.4375L12.793 11.4844C13.4375 12.1484 14.5508 12.1289 15.2344 11.4844C15.8594 10.8008 15.8789 9.70703 15.2344 9.0625L12.207 6.01562C11.582 5.39062 10.4883 5.39062 9.80469 6.01562Z" fill="black" fill-opacity="0.85"/>
 </g>
</svg>
