<?xml version="1.0" encoding="UTF-8"?>
<!--Generator: Apple Native CoreSVG 326-->
<!DOCTYPE svg
PUBLIC "-//W3C//DTD SVG 1.1//EN"
       "http://www.w3.org/Graphics/SVG/1.1/DTD/svg11.dtd">
<svg version="1.1" xmlns="http://www.w3.org/2000/svg" xmlns:xlink="http://www.w3.org/1999/xlink" viewBox="0 0 62.2266 46.5039">
 <g>
  <rect height="46.5039" opacity="0" width="62.2266" x="0" y="0"/>
  <path d="M22.8711 29.6094C26.8164 29.6094 29.0039 27.4609 29.0039 23.5938L29.0039 6.91406C29.0039 3.02734 26.8164 0.878906 22.8711 0.878906L6.11328 0.878906C2.1875 0.878906 0 3.02734 0 6.91406L0 23.5938C0 27.4609 2.1875 29.6094 6.11328 29.6094ZM22.832 26.2305L6.15234 26.2305C4.25781 26.2305 3.39844 25.3516 3.39844 23.4375L3.39844 7.05078C3.39844 5.15625 4.25781 4.25781 6.15234 4.25781L22.832 4.25781C24.7266 4.25781 25.6055 5.15625 25.6055 7.05078L25.6055 23.4375C25.6055 25.3516 24.7266 26.2305 22.832 26.2305Z" fill="black" fill-opacity="0.85"/>
  <path d="M55.8789 29.3555C59.707 29.3555 61.8555 27.2656 61.8555 23.418L61.8555 7.07031C61.8555 3.22266 59.707 1.13281 55.8789 1.13281L39.3945 1.13281C35.5469 1.13281 33.3594 3.24219 33.3594 7.07031L33.3594 23.418C33.3594 27.2461 35.5469 29.3555 39.3945 29.3555ZM1.66016 38.9648C0.761719 38.9648 0 39.7266 0 40.7031C0 41.6602 0.761719 42.4219 1.66016 42.4219L10.0781 42.4219L10.0781 38.9648ZM14.3945 46.5039C17.5977 46.5039 20.2148 43.8867 20.2148 40.7031C20.2148 37.5 17.5977 34.8828 14.3945 34.8828C11.1914 34.8828 8.59375 37.5 8.59375 40.7031C8.59375 43.8867 11.1914 46.5039 14.3945 46.5039ZM14.3945 43.7305C12.6758 43.7305 11.3477 42.3828 11.3477 40.6836C11.3477 38.9648 12.6758 37.6367 14.3945 37.6367C16.0938 37.6367 17.4414 38.9648 17.4414 40.6836C17.4414 42.3828 16.0938 43.7305 14.3945 43.7305ZM18.418 38.9648L18.418 42.4219L60.1172 42.4219C61.0938 42.4219 61.8555 41.6602 61.8555 40.7031C61.8555 39.7266 61.0938 38.9648 60.1172 38.9648Z" fill="black" fill-opacity="0.85"/>
 </g>
</svg>
