<?xml version="1.0" encoding="UTF-8"?>
<!--Generator: Apple Native CoreSVG 326-->
<!DOCTYPE svg
PUBLIC "-//W3C//DTD SVG 1.1//EN"
       "http://www.w3.org/Graphics/SVG/1.1/DTD/svg11.dtd">
<svg version="1.1" xmlns="http://www.w3.org/2000/svg" xmlns:xlink="http://www.w3.org/1999/xlink" viewBox="0 0 62.2266 46.5039">
 <g>
  <rect height="46.5039" opacity="0" width="62.2266" x="0" y="0"/>
  <path d="M38.9648 29.6094L55.7227 29.6094C59.668 29.6094 61.8555 27.4609 61.8555 23.5938L61.8555 6.91406C61.8555 3.02734 59.668 0.878906 55.7227 0.878906L38.9648 0.878906C35.0391 0.878906 32.8516 3.02734 32.8516 6.91406L32.8516 23.5938C32.8516 27.4609 35.0391 29.6094 38.9648 29.6094ZM39.0234 26.2305C37.1289 26.2305 36.25 25.3516 36.25 23.4375L36.25 7.05078C36.25 5.15625 37.1289 4.25781 39.0234 4.25781L55.6836 4.25781C57.5977 4.25781 58.457 5.15625 58.457 7.05078L58.457 23.4375C58.457 25.3516 57.5977 26.2305 55.6836 26.2305Z" fill="black" fill-opacity="0.85"/>
  <path d="M5.97656 29.3555L22.4609 29.3555C26.3086 29.3555 28.4961 27.2461 28.4961 23.418L28.4961 7.07031C28.4961 3.24219 26.3086 1.13281 22.4609 1.13281L5.97656 1.13281C2.14844 1.13281 0 3.22266 0 7.07031L0 23.418C0 27.2656 2.14844 29.3555 5.97656 29.3555ZM1.66016 38.9648C0.761719 38.9648 0 39.7266 0 40.7031C0 41.6602 0.761719 42.4219 1.66016 42.4219L10.0781 42.4219L10.0781 38.9648ZM14.3945 46.5039C17.5977 46.5039 20.2148 43.8867 20.2148 40.7031C20.2148 37.5 17.5977 34.8828 14.3945 34.8828C11.1914 34.8828 8.59375 37.5 8.59375 40.7031C8.59375 43.8867 11.1914 46.5039 14.3945 46.5039ZM14.3945 43.7305C12.6758 43.7305 11.3477 42.3828 11.3477 40.6836C11.3477 38.9648 12.6758 37.6367 14.3945 37.6367C16.0938 37.6367 17.4414 38.9648 17.4414 40.6836C17.4414 42.3828 16.0938 43.7305 14.3945 43.7305ZM18.418 38.9648L18.418 42.4219L60.1172 42.4219C61.0938 42.4219 61.8555 41.6602 61.8555 40.7031C61.8555 39.7266 61.0938 38.9648 60.1172 38.9648Z" fill="black" fill-opacity="0.85"/>
 </g>
</svg>
