<?xml version="1.0" encoding="UTF-8"?>
<!--Generator: Apple Native CoreSVG 326-->
<!DOCTYPE svg
PUBLIC "-//W3C//DTD SVG 1.1//EN"
       "http://www.w3.org/Graphics/SVG/1.1/DTD/svg11.dtd">
<svg version="1.1" xmlns="http://www.w3.org/2000/svg" xmlns:xlink="http://www.w3.org/1999/xlink" viewBox="0 0 51.25 50.918">
 <g>
  <rect height="50.918" opacity="0" width="51.25" x="0" y="0"/>
  <path d="M50.8789 25.4492C50.8789 39.4531 39.4531 50.8789 25.4297 50.8789C11.4258 50.8789 0 39.4531 0 25.4492C0 11.4258 11.4258 0 25.4297 0C39.4531 0 50.8789 11.4258 50.8789 25.4492ZM15.9375 25.4492C15.9375 30.7031 20.1758 34.9414 25.4297 34.9414C30.6836 34.9414 34.9414 30.7031 34.9414 25.4492C34.9414 20.1953 30.6836 15.9375 25.4297 15.9375C20.1758 15.9375 15.9375 20.1953 15.9375 25.4492ZM31.4062 25.4492C31.4062 28.75 28.75 31.4258 25.4297 31.4258C22.1289 31.4258 19.4531 28.75 19.4531 25.4492C19.4531 22.1289 22.1289 19.4727 25.4297 19.4727C28.75 19.4727 31.4062 22.1289 31.4062 25.4492Z" fill="black" fill-opacity="0.85"/>
 </g>
</svg>
