<?xml version="1.0" encoding="UTF-8"?>
<!--Generator: Apple Native CoreSVG 326-->
<!DOCTYPE svg
PUBLIC "-//W3C//DTD SVG 1.1//EN"
       "http://www.w3.org/Graphics/SVG/1.1/DTD/svg11.dtd">
<svg version="1.1" xmlns="http://www.w3.org/2000/svg" xmlns:xlink="http://www.w3.org/1999/xlink" viewBox="0 0 51.25 50.918">
 <g>
  <rect height="50.918" opacity="0" width="51.25" x="0" y="0"/>
  <path d="M50.8789 25.4688C50.8789 39.4922 39.4531 50.918 25.4297 50.918C11.4258 50.918 0 39.4922 0 25.4688C0 11.4648 11.4258 0.0390625 25.4297 0.0390625C39.4531 0.0390625 50.8789 11.4648 50.8789 25.4688ZM25.293 22.1289C24.6094 21.9336 24.0625 21.8359 23.418 21.8359C20.6836 21.8359 18.457 23.8086 18.0469 26.5039C15.2148 26.582 12.9492 28.9062 12.9492 31.6602C12.9492 34.5703 15.1172 36.8164 18.2812 36.8164L36.0938 36.8164C39.668 36.8164 42.1094 34.3555 42.1094 31.1133C42.1094 28.3203 40.0977 25.9961 37.3828 25.4883C37.2266 22.0117 34.4336 19.1602 30.8594 19.1602C28.5156 19.1602 26.5039 20.293 25.293 22.1289ZM12.4023 18.2812C9.64844 18.8086 7.67578 21.1328 7.67578 23.9258C7.67578 26.4062 9.14062 28.4961 11.6602 29.2969C12.4609 27.1289 14.3555 25.4688 16.6602 24.9609C17.6367 22.1094 20.2734 20.0781 23.418 20.0781C23.8086 20.0781 24.2383 20.1367 24.6289 20.1953C26.1523 18.418 28.3203 17.4805 30.7617 17.4609C30.3125 15.957 28.7891 14.668 26.3672 14.668C25.6641 14.668 25.1367 14.7852 24.4922 14.9805C23.2227 13.0859 21.25 11.9531 19.0039 11.9531C15.4688 11.9531 12.5391 14.7852 12.4023 18.2812Z" fill="black" fill-opacity="0.85"/>
 </g>
</svg>
