<?xml version="1.0" encoding="UTF-8"?>
<!--Generator: Apple Native CoreSVG 326-->
<!DOCTYPE svg
PUBLIC "-//W3C//DTD SVG 1.1//EN"
       "http://www.w3.org/Graphics/SVG/1.1/DTD/svg11.dtd">
<svg version="1.1" xmlns="http://www.w3.org/2000/svg" xmlns:xlink="http://www.w3.org/1999/xlink" viewBox="0 0 55.3369 54.9953">
 <g>
  <rect height="54.9953" opacity="0" width="55.3369" x="0" y="0"/>
  <path d="M28.8397 35.0751L28.9868 38.2496L28.9868 41.9019L35.1978 45.4371C36.0376 45.9059 36.272 46.7262 35.8814 47.4098C35.4126 48.191 34.5923 48.2691 33.7915 47.8199L28.9868 45.066L28.9868 51.1207C28.9868 52.0777 28.4204 52.7223 27.4829 52.7223C26.5845 52.7223 25.9985 52.0777 25.9985 51.1207L25.9985 45.0465L21.1157 47.8199C20.315 48.2691 19.5532 48.191 19.065 47.4098C18.6939 46.7262 18.9478 45.9059 19.7681 45.4371L25.9985 41.8824L25.9985 38.2496L26.2651 32.5005ZM24.4294 30.6648L18.9087 34.1871L15.7446 35.984L15.7642 43.1324C15.7642 44.0894 15.1978 44.734 14.4165 44.734C13.4985 44.734 13.0298 44.0699 13.0298 43.1324L13.0103 37.5855L7.73683 40.6129C6.93605 41.0621 6.0962 40.9059 5.62745 40.1051C5.17823 39.3434 5.43214 38.484 6.25245 38.0152L11.5064 34.9879L6.68214 32.1363C5.88136 31.6676 5.58839 30.984 6.03761 30.1441C6.4087 29.4801 7.24855 29.2848 8.06886 29.7535L14.2407 33.3863L17.4243 31.5699L22.6594 28.8948ZM48.9673 30.1832C49.4165 30.9254 49.0845 31.6676 48.3032 32.1363L43.4595 34.9879L48.7329 38.0152C49.5142 38.4644 49.7681 39.3043 49.3384 40.1051C48.8892 40.8863 48.0689 41.1012 47.229 40.6129L46.1633 39.9932L38.0156 31.8421L40.7056 33.3863L46.9165 29.7535C47.7173 29.2848 48.5181 29.4801 48.9673 30.1832ZM41.936 11.8043L41.9556 17.3902L47.2485 14.3629C48.0884 13.8746 48.9087 14.0699 49.3384 14.8316C49.8071 15.6715 49.5728 16.4723 48.7329 16.9605L43.479 19.9684L48.2837 22.7809C49.065 23.2691 49.4165 24.0113 48.9868 24.773C48.5767 25.4762 47.6978 25.6519 46.8775 25.1832L40.7251 21.5504L37.561 23.4059L32.2759 26.1L30.5123 24.3356L36.0571 20.7887L39.2212 18.9723L39.2017 11.8043C39.2017 10.8473 39.7681 10.2223 40.5493 10.2223C41.4673 10.2223 41.936 10.8668 41.936 11.8043ZM7.73683 14.3629L8.65395 14.8894L16.8416 23.077L14.2603 21.5699L8.10792 25.1832C7.24855 25.6519 6.38917 25.4762 5.99855 24.7926C5.54933 23.9527 5.88136 23.2691 6.68214 22.7809L11.4868 19.9684L6.23292 16.9605C5.43214 16.4918 5.1587 15.6715 5.62745 14.8316C6.05714 14.0699 6.91651 13.9137 7.73683 14.3629ZM28.9868 3.81601L28.9868 9.8707L33.7915 7.11679C34.5923 6.66757 35.4126 6.7457 35.8814 7.52695C36.272 8.21054 36.0376 9.03085 35.1978 9.4996L28.9868 13.0348L28.9868 16.7066L28.717 22.5396L26.1495 19.971L25.9985 16.7066L25.9985 13.0543L19.7681 9.4996C18.9478 9.03085 18.6939 8.21054 19.065 7.52695C19.5532 6.7457 20.315 6.66757 21.1157 7.11679L25.9985 9.89023L25.9985 3.81601C25.9985 2.85898 26.5845 2.21445 27.4829 2.21445C28.4204 2.21445 28.9868 2.85898 28.9868 3.81601Z" fill="black" fill-opacity="0.85"/>
  <path d="M49.397 51.8043C50.061 52.4488 51.1157 52.4293 51.7603 51.7848C52.4048 51.1207 52.4048 50.0855 51.7603 49.4215L5.56886 3.23007C4.94386 2.58554 3.86964 2.56601 3.20558 3.23007C2.56105 3.8746 2.56105 4.94882 3.20558 5.59335Z" fill="black" fill-opacity="0.85"/>
 </g>
</svg>
