<?xml version="1.0" encoding="UTF-8"?>
<!--Generator: Apple Native CoreSVG 326-->
<!DOCTYPE svg
PUBLIC "-//W3C//DTD SVG 1.1//EN"
       "http://www.w3.org/Graphics/SVG/1.1/DTD/svg11.dtd">
<svg version="1.1" xmlns="http://www.w3.org/2000/svg" xmlns:xlink="http://www.w3.org/1999/xlink" viewBox="0 0 51.25 50.918">
 <g>
  <rect height="50.918" opacity="0" width="51.25" x="0" y="0"/>
  <path d="M25.4297 50.8789C39.4727 50.8789 50.8789 39.4922 50.8789 25.4492C50.8789 11.4062 39.4727 0 25.4297 0C11.3867 0 0 11.4062 0 25.4492C0 39.4922 11.3867 50.8789 25.4297 50.8789ZM25.4297 47.2461C13.3789 47.2461 3.63281 37.5 3.63281 25.4492C3.63281 13.3984 13.3789 3.65234 25.4297 3.65234C37.4805 3.65234 47.2266 13.3984 47.2266 25.4492C47.2266 37.5 37.4805 47.2461 25.4297 47.2461Z" fill="black" fill-opacity="0.85"/>
  <path d="M25.4102 38.9062C32.8516 38.9062 38.8672 32.8906 38.8672 25.4492C38.8672 17.9883 32.8516 11.9922 25.4102 11.9922C17.9688 11.9922 11.9531 17.9883 11.9531 25.4492C11.9531 32.8906 17.9688 38.9062 25.4102 38.9062ZM15.7031 31.7578C14.5312 29.9414 13.8477 27.832 13.8281 25.5078L16.875 23.7891L20.4688 25.2539L21.7188 29.1602L19.7461 31.6992ZM16.3086 18.2422C17.6562 16.582 19.4141 15.2734 21.4453 14.5508L24.4336 16.9531L24.4336 20.7031L21.0156 23.3203L17.4219 21.875ZM34.5312 18.2422L33.457 21.875L29.8438 23.3203L26.4258 20.7031L26.4258 16.8945L29.3945 14.5508C31.4453 15.2734 33.2227 16.582 34.5312 18.2422ZM35.1562 31.7969L31.0938 31.7383L29.1406 29.1797L30.3906 25.2539L34.0039 23.7891L37.0312 25.5078C37.0117 27.832 36.3281 29.9805 35.1562 31.7969ZM25.4297 37.0312C24.2969 37.0312 23.2422 36.875 22.207 36.582L21.3477 32.8906L23.0664 30.6445L27.7539 30.6445L29.5312 32.9492L28.6719 36.582C27.6367 36.8945 26.5625 37.0312 25.4297 37.0312Z" fill="black" fill-opacity="0.85"/>
 </g>
</svg>
