<?xml version="1.0" encoding="UTF-8"?>
<!--Generator: Apple Native CoreSVG 326-->
<!DOCTYPE svg
PUBLIC "-//W3C//DTD SVG 1.1//EN"
       "http://www.w3.org/Graphics/SVG/1.1/DTD/svg11.dtd">
<svg version="1.1" xmlns="http://www.w3.org/2000/svg" xmlns:xlink="http://www.w3.org/1999/xlink" viewBox="0 0 85.0056 42.0898">
 <g>
  <rect height="42.0898" opacity="0" width="85.0056" x="0" y="0"/>
  <path d="M12.62 42.0117C20.4716 42.0117 25.0614 37.3438 25.0614 30.2539C25.0614 24.4727 22.8349 21.6602 16.2138 18.3008L13.7333 17.0312C9.82704 15.0195 8.49891 13.4375 8.49891 10.6055C8.49891 8.125 10.1395 6.48438 12.62 6.48438C15.2763 6.48438 16.702 8.26172 17.0536 11.3867C17.1122 11.9336 17.4052 12.207 17.913 12.207L23.577 12.207C24.1044 12.207 24.4559 11.8945 24.4169 11.3086C24.0653 4.375 20.3349 0 12.62 0C5.02235 0 0.588758 4.64844 0.588758 11.5039C0.588758 17.2656 2.93251 20.5078 9.08485 23.6914L11.5458 25.0195C15.6278 27.1289 17.1513 28.4961 17.1513 31.1914C17.1513 33.9648 15.6474 35.5078 12.7372 35.5078C9.78798 35.5078 8.0497 33.6719 7.69813 30.5469C7.62001 30 7.40516 29.707 6.89735 29.707L0.842664 29.707C0.334852 29.707-0.0362421 30.0391 0.00282043 30.6055C0.432508 37.9102 4.41688 42.0117 12.62 42.0117ZM42.3466 42.0117C51.663 42.0117 56.6239 34.9219 56.6239 21.0547C56.6239 7.26562 51.663 0.0585938 42.3466 0.0585938C32.913 0.0585938 28.0302 7.26562 28.0302 21.0547C28.0302 34.9219 32.913 42.0117 42.3466 42.0117ZM42.3466 35.1562C38.2255 35.1562 36.1552 30.7812 36.1552 21.0547C36.1552 11.3867 38.2255 6.91406 42.3466 6.91406C46.3505 6.91406 48.4208 11.3867 48.4208 21.0547C48.4208 30.7812 46.3505 35.1562 42.3466 35.1562ZM72.1903 42.0117C80.0419 42.0117 84.6317 37.3438 84.6317 30.2539C84.6317 24.4727 82.4247 21.6406 75.7841 18.3008L73.3231 17.0312C69.3974 15.0391 68.0692 13.4375 68.0692 10.6055C68.0692 8.125 69.7099 6.48438 72.1903 6.48438C74.8661 6.48438 76.2724 8.26172 76.6239 11.3867C76.702 11.9336 76.9755 12.207 77.5028 12.207L83.1669 12.207C83.6747 12.207 84.0263 11.8945 83.9872 11.3086C83.6161 4.375 79.9052 0 72.1903 0C64.5927 0 60.1591 4.64844 60.1591 11.5039C60.1591 17.2656 62.5419 20.4492 68.6552 23.6914L71.1356 25.0195C75.1786 27.168 76.7216 28.4961 76.7216 31.1914C76.7216 33.9648 75.2177 35.5078 72.327 35.5078C69.3583 35.5078 67.62 33.6719 67.2684 30.5469C67.2099 30 66.9755 29.707 66.4677 29.707L60.413 29.707C59.9052 29.707 59.5536 30.0391 59.5731 30.6055C60.0028 37.9102 63.9872 42.0117 72.1903 42.0117Z" fill="black" fill-opacity="0.85"/>
 </g>
</svg>
