<?xml version="1.0" encoding="UTF-8"?>
<!--Generator: Apple Native CoreSVG 326-->
<!DOCTYPE svg
PUBLIC "-//W3C//DTD SVG 1.1//EN"
       "http://www.w3.org/Graphics/SVG/1.1/DTD/svg11.dtd">
<svg version="1.1" xmlns="http://www.w3.org/2000/svg" xmlns:xlink="http://www.w3.org/1999/xlink" viewBox="0 0 62.3438 49.2383">
 <g>
  <rect height="49.2383" opacity="0" width="62.3438" x="0" y="0"/>
  <path d="M45.2344 47.4609C45.2344 48.418 44.4531 49.1992 43.4961 49.1992L18.4961 49.1992C17.5195 49.1992 16.7383 48.418 16.7383 47.4609C16.7383 46.4844 17.5195 45.7031 18.4961 45.7031L43.4961 45.7031C44.4531 45.7031 45.2344 46.4844 45.2344 47.4609ZM61.9727 6.09375L61.9727 35.0977C61.9727 39.1992 59.9023 41.1914 55.8789 41.1914L6.11328 41.1914C2.08984 41.1914 0 39.1992 0 35.0977L0 6.09375C0 1.99219 2.08984 0 6.11328 0L55.8789 0C59.9023 0 61.9727 1.99219 61.9727 6.09375ZM21.4062 24.4141C20.7227 28.0859 20.9766 28.418 16.7383 29.0625C16.4258 29.1016 16.2109 29.3555 16.2109 29.668C16.2109 30.0195 16.4258 30.2148 16.7773 30.2734C20.9766 30.8594 20.7227 31.1914 21.4062 34.9023C21.5039 35.2344 21.6992 35.4492 22.0117 35.4492C22.3242 35.4492 22.5586 35.2539 22.6367 34.9609C23.2812 31.1914 23.0859 30.8594 27.3242 30.2734C27.6367 30.2148 27.8516 29.9805 27.8516 29.668C27.8516 29.3555 27.6367 29.1016 27.3242 29.0625C23.1055 28.418 23.2812 28.0859 22.6367 24.4141C22.5586 24.082 22.3438 23.8477 22.0117 23.8477C21.7188 23.8477 21.5039 24.0625 21.4062 24.4141ZM31.3867 8.10547C29.9609 16.3086 29.3359 17.4023 21.0352 18.5156C20.5664 18.5742 20.2539 18.9258 20.2539 19.3359C20.2539 19.8047 20.5664 20.1367 21.0352 20.1953C29.375 20.8203 30.2734 22.4805 31.3867 30.5859C31.4648 31.0352 31.7773 31.3477 32.2852 31.3477C32.7148 31.3477 33.0273 31.0352 33.1055 30.6055C34.5117 22.4805 35.1953 21.2891 43.4961 20.1953C43.9648 20.1367 44.2578 19.8047 44.2578 19.3359C44.2578 18.9258 43.9648 18.5742 43.4961 18.5156C35.2148 17.4023 34.2969 16.1719 33.1055 8.125C33.0469 7.67578 32.7148 7.36328 32.2852 7.36328C31.8164 7.36328 31.5039 7.65625 31.3867 8.10547Z" fill="black" fill-opacity="0.85"/>
 </g>
</svg>
