<?xml version="1.0" encoding="UTF-8"?>
<!--Generator: Apple Native CoreSVG 326-->
<!DOCTYPE svg
PUBLIC "-//W3C//DTD SVG 1.1//EN"
       "http://www.w3.org/Graphics/SVG/1.1/DTD/svg11.dtd">
<svg version="1.1" xmlns="http://www.w3.org/2000/svg" xmlns:xlink="http://www.w3.org/1999/xlink" viewBox="0 0 46.6406 62.0117">
 <g>
  <rect height="62.0117" opacity="0" width="46.6406" x="0" y="0"/>
  <path d="M21.7383 12.1484C22.0508 12.1484 22.207 11.9531 22.2656 11.6602C22.9492 7.65625 22.8906 7.32422 27.3438 6.58203C27.6367 6.54297 27.8125 6.36719 27.8125 6.07422C27.8125 5.78125 27.6367 5.58594 27.3438 5.54688C22.8906 4.80469 22.9492 4.47266 22.2656 0.46875C22.207 0.175781 22.0508 0 21.7383 0C21.4258 0 21.2695 0.175781 21.2109 0.46875C20.5273 4.47266 20.5859 4.80469 16.1328 5.54688C15.8398 5.58594 15.6641 5.78125 15.6641 6.07422C15.6641 6.36719 15.8398 6.54297 16.1328 6.58203C20.5859 7.32422 20.5273 7.65625 21.2109 11.6602C21.2695 11.9531 21.4258 12.1484 21.7383 12.1484Z" fill="black" fill-opacity="0.85"/>
  <path d="M9.45312 29.3555C9.84375 29.3555 10.1367 29.082 10.1953 28.6914C11.1328 21.9336 11.2891 21.9922 18.2422 20.6641C18.6133 20.5859 18.9062 20.332 18.9062 19.9219C18.9062 19.5117 18.6133 19.2383 18.2422 19.1797C11.2891 18.125 11.1133 17.9883 10.1953 11.1719C10.1367 10.7617 9.84375 10.4883 9.45312 10.4883C9.0625 10.4883 8.76953 10.7617 8.71094 11.1914C7.83203 17.9297 7.57812 17.8516 0.664062 19.1797C0.292969 19.2578 0 19.5117 0 19.9219C0 20.3516 0.292969 20.5859 0.742188 20.6641C7.61719 21.8164 7.83203 21.9141 8.71094 28.6523C8.76953 29.082 9.0625 29.3555 9.45312 29.3555Z" fill="black" fill-opacity="0.85"/>
  <path d="M26.543 57.3633C27.1484 57.3633 27.5977 56.9531 27.6758 56.3281C29.3945 42.1289 31.2305 40.2539 45.1953 38.7891C45.8398 38.7305 46.2695 38.2812 46.2695 37.6758C46.2695 37.0703 45.8398 36.6016 45.1953 36.543C31.2305 35.0781 29.3945 33.2031 27.6758 19.0039C27.5977 18.3984 27.1484 17.9688 26.543 17.9688C25.9375 17.9688 25.5078 18.3984 25.4102 19.0039C23.6914 33.2031 21.8555 35.0781 7.89062 36.543C7.24609 36.6016 6.81641 37.0703 6.81641 37.6758C6.81641 38.2812 7.24609 38.7305 7.89062 38.7891C21.8164 40.5859 23.5742 42.1484 25.4102 56.3281C25.5078 56.9531 25.9375 57.3633 26.543 57.3633Z" fill="black" fill-opacity="0.85"/>
 </g>
</svg>
