<?xml version="1.0" encoding="UTF-8"?>
<!--Generator: Apple Native CoreSVG 326-->
<!DOCTYPE svg
PUBLIC "-//W3C//DTD SVG 1.1//EN"
       "http://www.w3.org/Graphics/SVG/1.1/DTD/svg11.dtd">
<svg version="1.1" xmlns="http://www.w3.org/2000/svg" xmlns:xlink="http://www.w3.org/1999/xlink" viewBox="0 0 61.543 63.1836">
 <g>
  <rect height="63.1836" opacity="0" width="61.543" x="0" y="0"/>
  <path d="M46.5107 6.95313L14.6805 6.95313C14.8057 5.18354 15.9546 4.16016 17.832 4.16016L43.3398 4.16016C45.2172 4.16016 46.3835 5.18354 46.5107 6.95313Z" fill="black" fill-opacity="0.85"/>
  <path d="M51.5514 13.7887C50.8512 13.6817 50.1095 13.6328 49.3359 13.6328L11.8359 13.6328C11.0621 13.6328 10.3205 13.6813 9.62066 13.7875C9.88629 11.7108 11.3173 10.5469 13.6133 10.5469L47.5586 10.5469C49.8551 10.5469 51.2861 11.7112 51.5514 13.7887Z" fill="black" fill-opacity="0.85"/>
  <path d="M11.8359 58.9648L49.3359 58.9648C54.375 58.9648 56.9336 56.4062 56.9336 51.4258L56.9336 25.3906C56.9336 20.4102 54.375 17.8711 49.3359 17.8711L11.8359 17.8711C6.77734 17.8711 4.23828 20.3906 4.23828 25.3906L4.23828 51.4258C4.23828 56.4258 6.77734 58.9648 11.8359 58.9648ZM11.8945 55.5078C9.17969 55.5078 7.69531 54.0625 7.69531 51.25L7.69531 25.5664C7.69531 22.7734 9.17969 21.3281 11.8945 21.3281L49.2773 21.3281C51.9531 21.3281 53.4766 22.7734 53.4766 25.5664L53.4766 51.25C53.4766 54.0625 51.9531 55.5078 49.2773 55.5078Z" fill="black" fill-opacity="0.85"/>
  <path d="M31.8164 48.9453C32.2461 48.9453 32.5195 48.6328 32.6172 48.2227C33.9648 40.2344 34.6484 39.1016 42.7734 38.0273C43.2227 37.9688 43.5156 37.6562 43.5156 37.207C43.5156 36.7969 43.2227 36.4648 42.7734 36.4062C34.668 35.3125 33.7891 34.1211 32.6172 26.25C32.5391 25.8008 32.2461 25.5078 31.8164 25.5078C31.3672 25.5078 31.0547 25.7812 30.957 26.2305C29.5508 34.2383 28.9453 35.3125 20.8203 36.4062C20.3711 36.4648 20.0586 36.7969 20.0586 37.207C20.0586 37.6562 20.3711 37.9688 20.8203 38.0273C28.9648 38.6328 29.8633 40.2344 30.957 48.2031C31.0352 48.6328 31.3281 48.9453 31.8164 48.9453ZM21.7969 52.9297C22.0898 52.9297 22.3242 52.7539 22.3828 52.4609C23.0273 48.7891 22.832 48.457 26.9727 47.8711C27.2656 47.832 27.4805 47.5781 27.4805 47.2852C27.4805 46.9922 27.2656 46.7383 26.9727 46.6992C22.832 46.0742 23.0273 45.7422 22.3828 42.168C22.3242 41.8359 22.1094 41.6211 21.7969 41.6211C21.4844 41.6211 21.2695 41.8164 21.1914 42.168C20.5469 45.7422 20.7812 46.0742 16.6406 46.6992C16.3086 46.7383 16.1328 46.9922 16.1328 47.2852C16.1328 47.6172 16.3086 47.832 16.6797 47.8711C20.7812 48.457 20.5469 48.7891 21.1914 52.4023C21.2695 52.7344 21.4648 52.9297 21.7969 52.9297Z" fill="black" fill-opacity="0.85"/>
 </g>
</svg>
