<?xml version="1.0" encoding="UTF-8"?>
<!--Generator: Apple Native CoreSVG 326-->
<!DOCTYPE svg
PUBLIC "-//W3C//DTD SVG 1.1//EN"
       "http://www.w3.org/Graphics/SVG/1.1/DTD/svg11.dtd">
<svg version="1.1" xmlns="http://www.w3.org/2000/svg" xmlns:xlink="http://www.w3.org/1999/xlink" viewBox="0 0 49.4531 49.082">
 <g>
  <rect height="49.082" opacity="0" width="49.4531" x="0" y="0"/>
  <path d="M24.5508 49.043C25.4492 49.043 26.1328 48.418 26.2695 47.4805C28.3594 30.1758 30.5078 27.9883 47.4609 26.25C48.3984 26.1523 49.082 25.4297 49.082 24.5312C49.082 23.6133 48.3984 22.8906 47.4609 22.8125C30.5078 21.0547 28.3594 18.8867 26.2695 1.58203C26.1328 0.625 25.4492 0 24.5508 0C23.6719 0 22.9688 0.625 22.8125 1.58203C20.7422 18.8867 18.5742 21.0547 1.64062 22.8125C0.683594 22.8906 0 23.6133 0 24.5312C0 25.4297 0.683594 26.1328 1.64062 26.25C18.5352 28.418 20.5859 30.1562 22.8125 47.4805C22.9688 48.418 23.6719 49.043 24.5508 49.043Z" fill="black" fill-opacity="0.85"/>
 </g>
</svg>
