<?xml version="1.0" encoding="UTF-8"?>
<!--Generator: Apple Native CoreSVG 326-->
<!DOCTYPE svg
PUBLIC "-//W3C//DTD SVG 1.1//EN"
       "http://www.w3.org/Graphics/SVG/1.1/DTD/svg11.dtd">
<svg version="1.1" xmlns="http://www.w3.org/2000/svg" xmlns:xlink="http://www.w3.org/1999/xlink" viewBox="0 0 51.25 50.918">
 <g>
  <rect height="50.918" opacity="0" width="51.25" x="0" y="0"/>
  <path d="M25.4297 50.8789C39.4727 50.8789 50.8789 39.4922 50.8789 25.4492C50.8789 11.4062 39.4727 0 25.4297 0C11.3867 0 0 11.4062 0 25.4492C0 39.4922 11.3867 50.8789 25.4297 50.8789ZM25.4297 47.2461C13.3789 47.2461 3.63281 37.5 3.63281 25.4492C3.63281 13.3984 13.3789 3.65234 25.4297 3.65234C37.4805 3.65234 47.2266 13.3984 47.2266 25.4492C47.2266 37.5 37.4805 47.2461 25.4297 47.2461Z" fill="black" fill-opacity="0.85"/>
  <path d="M35.0781 34.4727C35.6445 34.8242 36.2891 34.7266 36.6797 34.1797C38.3984 31.8555 39.3945 28.8281 39.3945 25.4102C39.3945 22.2656 38.457 19.1992 36.6992 16.6602C36.3086 16.0938 35.625 15.957 35.0781 16.3281C34.5508 16.7578 34.4531 17.4219 34.8438 18.0078C36.3086 20.0781 37.0898 22.6562 37.0898 25.4102C37.0898 28.2227 36.2891 30.918 34.8242 32.8125C34.4141 33.3789 34.4922 34.1016 35.0781 34.4727Z" fill="black" fill-opacity="0.85"/>
  <path d="M30.4688 31.0938C30.957 31.4648 31.6797 31.3477 32.0898 30.8008C33.1445 29.4531 33.7305 27.4609 33.7305 25.4102C33.7305 23.3984 33.125 21.4258 32.0898 20.0391C31.6992 19.4922 30.957 19.375 30.4688 19.7461C29.9023 20.1758 29.8047 20.8398 30.2148 21.4453C30.9375 22.3633 31.3867 23.8477 31.3867 25.4102C31.3867 26.9141 30.9375 28.3789 30.1953 29.4141C29.8047 30 29.9023 30.6445 30.4688 31.0938Z" fill="black" fill-opacity="0.85"/>
  <path d="M24.6875 36.7969C25.4492 36.7969 25.9766 36.2305 25.9766 35.4688L25.9766 15.4492C25.9766 14.668 25.4492 14.0625 24.668 14.0625C24.1016 14.0625 23.7305 14.3164 23.1641 14.8438L17.4805 20.2344C17.3828 20.332 17.2656 20.3516 17.1289 20.3516L13.2617 20.3516C11.6602 20.3516 10.7031 21.3086 10.7031 22.9883L10.7031 27.9102C10.7031 29.5898 11.6602 30.5469 13.2617 30.5469L17.1289 30.5469C17.2656 30.5469 17.3828 30.5859 17.4805 30.6836L23.1641 36.0742C23.6719 36.5625 24.1211 36.7969 24.6875 36.7969Z" fill="black" fill-opacity="0.85"/>
 </g>
</svg>
