<?xml version="1.0" encoding="UTF-8"?>
<!--Generator: Apple Native CoreSVG 326-->
<!DOCTYPE svg
PUBLIC "-//W3C//DTD SVG 1.1//EN"
       "http://www.w3.org/Graphics/SVG/1.1/DTD/svg11.dtd">
<svg version="1.1" xmlns="http://www.w3.org/2000/svg" xmlns:xlink="http://www.w3.org/1999/xlink" viewBox="0 0 51.25 50.918">
 <g>
  <rect height="50.918" opacity="0" width="51.25" x="0" y="0"/>
  <path d="M50.8789 25.4492C50.8789 39.4922 39.4727 50.8789 25.4297 50.8789C11.3867 50.8789 0 39.4922 0 25.4492C0 11.4062 11.3867 0 25.4297 0C39.4727 0 50.8789 11.4062 50.8789 25.4492ZM3.63281 25.4492C3.63281 37.5 13.3789 47.2461 25.4297 47.2461C37.4805 47.2461 47.2266 37.5 47.2266 25.4492C47.2266 13.3984 37.4805 3.65234 25.4297 3.65234C13.3789 3.65234 3.63281 13.3984 3.63281 25.4492Z" fill="black" fill-opacity="0.85"/>
  <path d="M31.5039 35.332L31.5039 36.0938C31.5039 36.9141 30.9375 37.4805 30.1367 37.4805C29.5312 37.4805 29.043 37.2656 28.4766 36.7188L22.5 31.0352C22.4023 30.9375 22.2266 30.8789 22.0703 30.8789L18.0078 30.8789C16.2695 30.8789 15.293 29.8828 15.293 28.0664L15.293 22.8711C15.293 21.652 15.7328 20.8025 16.5495 20.3776ZM31.5039 14.8438L31.5039 27.6694L23.1375 19.2961L28.4766 14.2188C29.1016 13.6328 29.5117 13.3789 30.1172 13.3789C30.9375 13.3789 31.5039 14.043 31.5039 14.8438Z" fill="black" fill-opacity="0.85"/>
  <path d="M36.5625 37.9883C36.9531 38.3984 37.6172 38.3984 38.0273 37.9883C38.4375 37.5781 38.4375 36.9531 38.0273 36.5234L14.375 12.8711C13.9648 12.4609 13.3008 12.4609 12.8906 12.8711C12.4805 13.2812 12.5 13.9453 12.8906 14.3359Z" fill="black" fill-opacity="0.85"/>
 </g>
</svg>
