<?xml version="1.0" encoding="UTF-8"?>
<!--Generator: Apple Native CoreSVG 326-->
<!DOCTYPE svg
PUBLIC "-//W3C//DTD SVG 1.1//EN"
       "http://www.w3.org/Graphics/SVG/1.1/DTD/svg11.dtd">
<svg version="1.1" xmlns="http://www.w3.org/2000/svg" xmlns:xlink="http://www.w3.org/1999/xlink" viewBox="0 0 44.6289 43.8867">
 <g>
  <rect height="43.8867" opacity="0" width="44.6289" x="0" y="0"/>
  <path d="M38.7891 32.5781C39.5312 33.0859 40.5469 32.9102 41.1133 32.0898C43.0469 29.5508 44.2578 25.8594 44.2578 21.9336C44.2578 17.9883 43.0469 14.3164 41.1133 11.7578C40.5469 10.9375 39.5312 10.7812 38.7891 11.2891C37.9297 11.8945 37.793 12.9492 38.457 13.8477C40.0586 16.0352 40.918 18.8281 40.918 21.9336C40.918 25.0195 40.0391 27.793 38.457 30.0195C37.8125 30.918 37.9297 31.9531 38.7891 32.5781Z" fill="black" fill-opacity="0.85"/>
  <path d="M26.9336 43.8867C28.457 43.8867 29.4922 42.7734 29.4922 41.2891L29.4922 2.71484C29.4922 1.23047 28.457 0.0195312 26.8945 0.0195312C25.8203 0.0195312 25.0781 0.488281 23.9648 1.54297L13.0469 11.8945C12.8711 12.0703 12.6367 12.1484 12.3438 12.1484L4.94141 12.1484C1.81641 12.1484 0 13.9648 0 17.2852L0 26.7383C0 30.0391 1.81641 31.8555 4.94141 31.8555L12.3438 31.8555C12.6367 31.8555 12.8711 31.9531 13.0469 32.1289L23.9648 42.4609C24.9805 43.418 25.8594 43.8867 26.9336 43.8867Z" fill="black" fill-opacity="0.85"/>
 </g>
</svg>
