<?xml version="1.0" encoding="UTF-8"?>
<!--Generator: Apple Native CoreSVG 326-->
<!DOCTYPE svg
PUBLIC "-//W3C//DTD SVG 1.1//EN"
       "http://www.w3.org/Graphics/SVG/1.1/DTD/svg11.dtd">
<svg version="1.1" xmlns="http://www.w3.org/2000/svg" xmlns:xlink="http://www.w3.org/1999/xlink" viewBox="0 0 35.3906 43.8867">
 <g>
  <rect height="43.8867" opacity="0" width="35.3906" x="0" y="0"/>
  <path d="M4.6875 31.8555L12.0703 31.8555C12.3242 31.8555 12.5586 31.9531 12.7539 32.1289L24.3359 42.4609C25.3711 43.3984 26.2305 43.8867 27.3242 43.8867C28.8086 43.8867 29.8828 42.7734 29.8828 41.2891L29.8828 2.71484C29.8828 1.23047 28.8086 0 27.2852 0C26.1914 0 25.4688 0.546875 24.3359 1.54297L12.7539 11.8945C12.5586 12.0703 12.3242 12.1289 12.0703 12.1289L4.6875 12.1289C1.54297 12.1289 0 13.7305 0 17.0508L0 26.9727C0 30.3125 1.54297 31.8555 4.6875 31.8555ZM4.82422 28.7109C3.78906 28.7109 3.35938 28.2617 3.35938 27.2266L3.35938 16.7773C3.35938 15.7422 3.78906 15.293 4.82422 15.293L12.8516 15.293C13.5352 15.293 14.043 15.1758 14.6289 14.6484L25.6836 4.57031C25.8398 4.43359 25.9766 4.31641 26.1719 4.31641C26.3672 4.31641 26.5234 4.47266 26.5234 4.70703L26.5234 39.1602C26.5234 39.4141 26.3672 39.5508 26.1719 39.5508C26.0352 39.5508 25.8789 39.4922 25.7031 39.3164L14.6289 29.375C14.043 28.8477 13.5352 28.7109 12.8516 28.7109Z" fill="black" fill-opacity="0.85"/>
 </g>
</svg>
