<?xml version="1.0" encoding="UTF-8"?>
<!--Generator: Apple Native CoreSVG 326-->
<!DOCTYPE svg
PUBLIC "-//W3C//DTD SVG 1.1//EN"
       "http://www.w3.org/Graphics/SVG/1.1/DTD/svg11.dtd">
<svg version="1.1" xmlns="http://www.w3.org/2000/svg" xmlns:xlink="http://www.w3.org/1999/xlink" viewBox="0 0 51.25 50.918">
 <g>
  <rect height="50.918" opacity="0" width="51.25" x="0" y="0"/>
  <path d="M25.4297 50.8789C39.4727 50.8789 50.8789 39.4922 50.8789 25.4492C50.8789 11.4062 39.4727 0 25.4297 0C11.3867 0 0 11.4062 0 25.4492C0 39.4922 11.3867 50.8789 25.4297 50.8789ZM25.4297 47.2461C13.3789 47.2461 3.63281 37.5 3.63281 25.4492C3.63281 13.3984 13.3789 3.65234 25.4297 3.65234C37.4805 3.65234 47.2266 13.3984 47.2266 25.4492C47.2266 37.5 37.4805 47.2461 25.4297 47.2461Z" fill="black" fill-opacity="0.85"/>
  <path d="M30.1367 37.4805C30.9375 37.4805 31.5039 36.9141 31.5039 36.0938L31.5039 14.8438C31.5039 14.043 30.9375 13.3789 30.1172 13.3789C29.5117 13.3789 29.1016 13.6328 28.4766 14.2188L22.5 19.9023C22.4023 20 22.2266 20.0586 22.0703 20.0586L18.0078 20.0586C16.2695 20.0586 15.293 21.0547 15.293 22.8711L15.293 28.0664C15.293 29.8828 16.2695 30.8789 18.0078 30.8789L22.0703 30.8789C22.2266 30.8789 22.4023 30.9375 22.5 31.0352L28.4766 36.7188C29.043 37.2656 29.5312 37.4805 30.1367 37.4805Z" fill="black" fill-opacity="0.85"/>
 </g>
</svg>
