<?xml version="1.0" encoding="UTF-8"?>
<!--Generator: Apple Native CoreSVG 326-->
<!DOCTYPE svg
PUBLIC "-//W3C//DTD SVG 1.1//EN"
       "http://www.w3.org/Graphics/SVG/1.1/DTD/svg11.dtd">
<svg version="1.1" xmlns="http://www.w3.org/2000/svg" xmlns:xlink="http://www.w3.org/1999/xlink" viewBox="0 0 55.2539 54.9023">
 <g>
  <rect height="54.9023" opacity="0" width="55.2539" x="0" y="0"/>
  <path d="M19.5117 7.28516C19.0234 7.77344 18.8281 8.28125 18.8281 8.76953C18.8281 9.66797 19.5703 10.4102 20.6641 10.4102L34.1992 10.4102C35.332 10.4102 36.0547 9.66797 36.0547 8.76953C36.0547 8.28125 35.8398 7.77344 35.3711 7.28516L29.1016 0.742188C28.6133 0.234375 28.0273 0 27.4414 0C26.875 0 26.2891 0.234375 25.8008 0.742188ZM19.5117 47.5781L25.8008 54.1211C26.2891 54.6484 26.875 54.8828 27.4414 54.8828C28.0273 54.8828 28.6133 54.6484 29.1016 54.1211L35.3711 47.5781C35.8398 47.1094 36.0547 46.582 36.0547 46.0938C36.0547 45.1953 35.332 44.4531 34.1992 44.4531L20.6641 44.4531C19.5703 44.4531 18.8281 45.1953 18.8281 46.0938C18.8281 46.582 19.0234 47.1094 19.5117 47.5781ZM47.5781 19.5312C47.1094 19.0625 46.582 18.8672 46.0938 18.8672C45.2148 18.8672 44.4531 19.5898 44.4531 20.7031L44.4531 34.2383C44.4531 35.3516 45.2148 36.0742 46.0938 36.0742C46.582 36.0742 47.1094 35.8789 47.5781 35.3906L54.1211 29.1211C54.6484 28.6328 54.8828 28.0469 54.8828 27.4609C54.8828 26.8945 54.6484 26.3086 54.1211 25.8203ZM7.28516 19.5312L0.742188 25.8203C0.234375 26.3086 0 26.8945 0 27.4609C0 28.0469 0.234375 28.6328 0.742188 29.1211L7.28516 35.3906C7.77344 35.8789 8.28125 36.0742 8.76953 36.0742C9.66797 36.0742 10.4297 35.3516 10.4297 34.2383L10.4297 20.7031C10.4297 19.5898 9.66797 18.8672 8.76953 18.8672C8.28125 18.8672 7.77344 19.0625 7.28516 19.5312Z" fill="black" fill-opacity="0.85"/>
  <path d="M30.0195 38.3594C30.7617 38.3594 31.2891 37.8125 31.2891 37.0703L31.2891 17.8711C31.2891 17.1094 30.7617 16.5039 30 16.5039C29.4531 16.5039 29.082 16.7773 28.5156 17.2852L23.1055 22.4414C22.9883 22.5391 22.8906 22.5391 22.7539 22.5391L19.043 22.5391C17.5195 22.5391 16.6016 23.457 16.6016 25.0977L16.6016 29.8242C16.6016 31.4648 17.5195 32.3828 19.043 32.3828L22.7539 32.3828C22.8906 32.3828 22.9883 32.4219 23.1055 32.5L28.5156 37.6758C29.0234 38.1445 29.4727 38.3594 30.0195 38.3594Z" fill="black" fill-opacity="0.85"/>
  <path d="M35.5469 32.9297C36.0352 33.2812 36.7578 33.1641 37.1875 32.6172C38.1836 31.3281 38.75 29.3945 38.75 27.4414C38.75 25.5078 38.1641 23.5938 37.1875 22.2461C36.7773 21.6992 36.0352 21.582 35.5469 21.9336C34.9805 22.3438 34.8438 23.0469 35.3125 23.6719C35.9766 24.5703 36.4062 25.9766 36.4062 27.4414C36.4062 28.8672 35.9766 30.2539 35.3125 31.1914C34.8438 31.8359 34.9805 32.5195 35.5469 32.9297Z" fill="black" fill-opacity="0.85"/>
 </g>
</svg>
