<?xml version="1.0" encoding="UTF-8"?>
<!--Generator: Apple Native CoreSVG 326-->
<!DOCTYPE svg
PUBLIC "-//W3C//DTD SVG 1.1//EN"
       "http://www.w3.org/Graphics/SVG/1.1/DTD/svg11.dtd">
<svg version="1.1" xmlns="http://www.w3.org/2000/svg" xmlns:xlink="http://www.w3.org/1999/xlink" viewBox="0 0 55.3906 54.7852">
 <g>
  <rect height="54.7852" opacity="0" width="55.3906" x="0" y="0"/>
  <path d="M55.0195 14.2969L55.0195 34.2188C55.0195 41.1719 51.0742 45.1953 44.0039 45.1953L26.0547 45.1953L16.9336 53.418C15.9375 54.3359 15.293 54.7852 14.4336 54.7852C13.1836 54.7852 12.4609 53.8867 12.4609 52.5195L12.4609 45.1953L11.0156 45.1953C3.92578 45.1953 0 41.2109 0 34.2188L0 14.2969C0 7.30469 3.92578 3.28125 11.0156 3.28125L44.0039 3.28125C51.0742 3.28125 55.0195 7.32422 55.0195 14.2969ZM25.1953 13.3789L19.3945 18.8867C19.2969 18.9844 19.1602 19.0039 19.0039 19.0039L15.0586 19.0039C13.4375 19.0039 12.4414 20 12.4414 21.7188L12.4414 26.7578C12.4414 28.4766 13.4375 29.4727 15.0586 29.4727L19.0039 29.4727C19.1602 29.4727 19.2969 29.5117 19.3945 29.6094L25.1953 35.1172C25.7227 35.625 26.1914 35.8594 26.7773 35.8594C27.5586 35.8594 28.1055 35.2734 28.1055 34.4922L28.1055 14.0039C28.1055 13.2031 27.5586 12.5781 26.7383 12.5781C26.1719 12.5781 25.7812 12.832 25.1953 13.3789ZM37.4023 14.9023C36.8555 15.332 36.7578 16.0352 37.1484 16.6211C38.6523 18.75 39.4531 21.3867 39.4531 24.1992C39.4531 27.0703 38.6328 29.8438 37.1289 31.7773C36.7188 32.3438 36.7969 33.1055 37.4023 33.4766C37.9883 33.8477 38.6523 33.7305 39.043 33.1836C40.8008 30.8008 41.8359 27.6953 41.8359 24.1992C41.8359 20.9766 40.8789 17.832 39.0625 15.2344C38.6719 14.6484 37.9688 14.5117 37.4023 14.9023ZM32.6953 18.3984C32.1094 18.8477 31.9922 19.5312 32.4219 20.1562C33.1641 21.0938 33.6133 22.5977 33.6133 24.1992C33.6133 25.7422 33.1641 27.2266 32.4023 28.2812C31.9922 28.8867 32.1094 29.5508 32.6953 30.0195C33.1836 30.4102 33.9258 30.2734 34.3555 29.7266C35.4297 28.3398 36.0352 26.3086 36.0352 24.1992C36.0352 22.1484 35.4102 20.1172 34.3555 18.6914C33.9453 18.1445 33.1836 17.9883 32.6953 18.3984Z" fill="black" fill-opacity="0.85"/>
 </g>
</svg>
