<?xml version="1.0" encoding="UTF-8"?>
<!--Generator: Apple Native CoreSVG 326-->
<!DOCTYPE svg
PUBLIC "-//W3C//DTD SVG 1.1//EN"
       "http://www.w3.org/Graphics/SVG/1.1/DTD/svg11.dtd">
<svg version="1.1" xmlns="http://www.w3.org/2000/svg" xmlns:xlink="http://www.w3.org/1999/xlink" viewBox="0 0 51.5138 55.5958">
 <g>
  <rect height="55.5958" opacity="0" width="51.5138" x="0" y="0"/>
  <path d="M37.4868 47.7663C37.2412 48.9292 36.2962 49.7413 34.9952 49.7413C33.9209 49.7413 33.042 49.2725 32.0264 48.3155L21.1084 37.9834C20.9327 37.8077 20.6983 37.71 20.4053 37.71L13.003 37.71C9.87797 37.71 8.06157 35.8936 8.06157 32.5928L8.06157 23.1397C8.06157 21.5891 8.45773 20.3664 9.20293 19.5085ZM37.5538 8.56938L37.5538 35.4307L20.118 18.003L20.4053 18.003C20.6983 18.003 20.9327 17.9248 21.1084 17.7491L32.0264 7.3975C33.1397 6.34281 33.8819 5.87406 34.9561 5.87406C36.5186 5.87406 37.5538 7.085 37.5538 8.56938Z" fill="black" fill-opacity="0.85"/>
  <path d="M45.9522 52.378C46.5967 53.042 47.6709 53.042 48.3155 52.378C48.96 51.7139 48.96 50.6788 48.3155 50.0342L5.93266 7.67094C5.28813 7.02641 4.21391 7.00688 3.54985 7.67094C2.92485 8.29594 2.92485 9.38969 3.54985 10.0147Z" fill="black" fill-opacity="0.85"/>
 </g>
</svg>
