<?xml version="1.0" encoding="UTF-8"?>
<!--Generator: Apple Native CoreSVG 326-->
<!DOCTYPE svg
PUBLIC "-//W3C//DTD SVG 1.1//EN"
       "http://www.w3.org/Graphics/SVG/1.1/DTD/svg11.dtd">
<svg version="1.1" xmlns="http://www.w3.org/2000/svg" xmlns:xlink="http://www.w3.org/1999/xlink" viewBox="0 0 51.25 50.918">
 <g>
  <rect height="50.918" opacity="0" width="51.25" x="0" y="0"/>
  <path d="M50.8789 25.4492C50.8789 39.4531 39.4531 50.8789 25.4297 50.8789C11.4258 50.8789 0 39.4531 0 25.4492C0 11.4258 11.4258 0 25.4297 0C39.4531 0 50.8789 11.4258 50.8789 25.4492ZM13.8281 14.5898C11.0352 14.5898 9.53125 16.1523 9.53125 18.9258L9.53125 19.5703L12.4023 19.5703C14.4531 19.5703 15.5859 20.7227 15.5859 22.7734L15.5859 28.1836C15.5859 30.2148 14.4531 31.3672 12.4023 31.3672L9.53125 31.3672L9.53125 32.0117C9.53125 34.7852 11.0352 36.3086 13.8281 36.3086L24.5508 36.3086L24.5508 31.2695C21.6992 30.8203 19.5312 28.418 19.5312 25.4492C19.5312 22.5 21.6992 20.0586 24.5508 19.6484L24.5508 14.5898ZM26.3086 14.5898L26.3086 19.6484C29.1602 20.0586 31.3281 22.5 31.3281 25.4492C31.3281 28.418 29.1602 30.8203 26.3086 31.2695L26.3086 36.3086L37.0508 36.3086C39.8242 36.3086 41.3477 34.7852 41.3477 32.0117L41.3477 31.3672L38.457 31.3672C36.4062 31.3672 35.2734 30.2148 35.2734 28.1836L35.2734 22.7734C35.2734 20.7227 36.4062 19.5703 38.457 19.5703L41.3477 19.5703L41.3477 18.9258C41.3477 16.1523 39.8242 14.5898 37.0508 14.5898ZM9.53125 21.2891L9.53125 29.668L12.4219 29.668C13.418 29.668 13.8672 29.1602 13.8672 28.2031L13.8672 22.7539C13.8672 21.7773 13.418 21.2891 12.4219 21.2891ZM38.457 21.2891C37.4609 21.2891 36.9922 21.7773 36.9922 22.7539L36.9922 28.2031C36.9922 29.1602 37.4609 29.668 38.457 29.668L41.3477 29.668L41.3477 21.2891ZM21.1914 25.4492C21.1914 27.5195 22.6172 29.1992 24.5508 29.5898L24.5508 21.3086C22.6172 21.6992 21.1914 23.3984 21.1914 25.4492ZM26.3086 29.5898C28.2617 29.1992 29.668 27.5195 29.668 25.4492C29.668 23.3984 28.2617 21.6992 26.3086 21.3086Z" fill="black" fill-opacity="0.85"/>
 </g>
</svg>
