<?xml version="1.0" encoding="UTF-8"?>
<!--Generator: Apple Native CoreSVG 326-->
<!DOCTYPE svg
PUBLIC "-//W3C//DTD SVG 1.1//EN"
       "http://www.w3.org/Graphics/SVG/1.1/DTD/svg11.dtd">
<svg version="1.1" xmlns="http://www.w3.org/2000/svg" xmlns:xlink="http://www.w3.org/1999/xlink" viewBox="0 0 44.0234 49.707">
 <g>
  <rect height="49.707" opacity="0" width="44.0234" x="0" y="0"/>
  <path d="M1.67969 21.8555C2.59766 21.8555 3.35938 21.1133 3.35938 20.1758C3.35938 19.2578 2.59766 18.4961 1.67969 18.4961C0.761719 18.4961 0 19.2578 0 20.1758C0 21.1133 0.761719 21.8555 1.67969 21.8555ZM6.95312 7.59766C7.89062 7.59766 8.65234 6.85547 8.65234 5.91797C8.65234 5 7.89062 4.23828 6.95312 4.23828C6.03516 4.23828 5.27344 5 5.27344 5.91797C5.27344 6.85547 6.03516 7.59766 6.95312 7.59766ZM21.8164 3.37891C22.7539 3.37891 23.4961 2.61719 23.4961 1.69922C23.4961 0.761719 22.7539 0 21.8164 0C20.8984 0 20.1367 0.761719 20.1367 1.69922C20.1367 2.61719 20.8984 3.37891 21.8164 3.37891ZM36.6797 7.59766C37.6172 7.59766 38.3594 6.85547 38.3594 5.91797C38.3594 5 37.6172 4.23828 36.6797 4.23828C35.7617 4.23828 35 5 35 5.91797C35 6.85547 35.7617 7.59766 36.6797 7.59766ZM41.9727 21.8555C42.8906 21.8555 43.6523 21.1133 43.6523 20.1758C43.6523 19.2578 42.8906 18.4961 41.9727 18.4961C41.0352 18.4961 40.2734 19.2578 40.2734 20.1758C40.2734 21.1133 41.0352 21.8555 41.9727 21.8555Z" fill="black" fill-opacity="0.85"/>
  <path d="M9.04297 21.8555C9.96094 21.8555 10.7227 21.1133 10.7227 20.1758C10.7227 19.2578 9.96094 18.4961 9.04297 18.4961C8.125 18.4961 7.36328 19.2578 7.36328 20.1758C7.36328 21.1133 8.125 21.8555 9.04297 21.8555ZM12.168 12.8125C13.0859 12.8125 13.8477 12.0508 13.8477 11.1328C13.8477 10.2148 13.0859 9.45312 12.168 9.45312C11.25 9.45312 10.4883 10.2148 10.4883 11.1328C10.4883 12.0508 11.25 12.8125 12.168 12.8125ZM21.8164 10.7422C22.7539 10.7422 23.4961 9.98047 23.4961 9.04297C23.4961 8.125 22.7539 7.36328 21.8164 7.36328C20.8984 7.36328 20.1367 8.125 20.1367 9.04297C20.1367 9.98047 20.8984 10.7422 21.8164 10.7422ZM31.4648 12.8125C32.4023 12.8125 33.1641 12.0508 33.1641 11.1328C33.1641 10.2148 32.4023 9.45312 31.4648 9.45312C30.5469 9.45312 29.7852 10.2148 29.7852 11.1328C29.7852 12.0508 30.5469 12.8125 31.4648 12.8125ZM34.6094 21.8555C35.5273 21.8555 36.2891 21.1133 36.2891 20.1758C36.2891 19.2578 35.5273 18.4961 34.6094 18.4961C33.6719 18.4961 32.9297 19.2578 32.9297 20.1758C32.9297 21.1133 33.6719 21.8555 34.6094 21.8555Z" fill="black" fill-opacity="0.85"/>
  <path d="M17.1875 23.5742L26.4453 23.5742C27.9688 23.5742 29.0625 22.5195 29.0625 20.9766L29.0625 19.1211C29.0625 16.582 27.207 14.7852 24.5117 14.7852L19.1016 14.7852C16.4258 14.7852 14.5898 16.582 14.5898 19.1211L14.5898 20.9766C14.5898 22.5195 15.6641 23.5742 17.1875 23.5742ZM18.0664 20.8398C17.6758 20.8398 17.4414 20.5859 17.4414 20.1758L17.4414 19.1211C17.4414 18.0664 18.0469 17.5391 19.1992 17.5391L24.4141 17.5391C25.6055 17.5391 26.2109 18.0664 26.2109 19.1211L26.2109 20.1758C26.2109 20.5859 25.957 20.8398 25.5664 20.8398ZM17.1875 35.4297L26.4453 35.4297C27.9688 35.4297 29.0625 34.3555 29.0625 32.8125L29.0625 29.082C29.0625 27.5391 27.9688 26.4844 26.4453 26.4844L17.1875 26.4844C15.6641 26.4844 14.5898 27.5391 14.5898 29.082L14.5898 32.8125C14.5898 34.3555 15.6641 35.4297 17.1875 35.4297ZM17.9883 32.6562C17.5977 32.6562 17.3438 32.4219 17.3438 32.0117L17.3438 29.8828C17.3438 29.4727 17.5977 29.2383 17.9883 29.2383L25.6641 29.2383C26.0547 29.2383 26.3086 29.4727 26.3086 29.8828L26.3086 32.0117C26.3086 32.4219 26.0547 32.6562 25.6641 32.6562ZM17.8711 28.2812L20.8008 28.2812L20.8008 22.0898L17.8711 22.0898ZM22.8516 28.2812L25.7812 28.2812L25.7812 22.0898L22.8516 22.0898ZM17.4805 46.3086L20.4102 46.3086L20.4102 34.2188L17.4805 34.2188ZM23.2422 46.3086L26.1719 46.3086L26.1719 34.2188L23.2422 34.2188ZM2.05078 48.1055L41.582 48.1055C42.5 48.1055 43.3008 47.3047 43.3008 46.3867C43.3008 45.4297 42.5 44.6875 41.582 44.6875L2.05078 44.6875C1.15234 44.6875 0.351562 45.4297 0.351562 46.3867C0.351562 47.3047 1.15234 48.1055 2.05078 48.1055Z" fill="black" fill-opacity="0.85"/>
 </g>
</svg>
