<?xml version="1.0" encoding="UTF-8"?>
<!--Generator: Apple Native CoreSVG 326-->
<!DOCTYPE svg
PUBLIC "-//W3C//DTD SVG 1.1//EN"
       "http://www.w3.org/Graphics/SVG/1.1/DTD/svg11.dtd">
<svg version="1.1" xmlns="http://www.w3.org/2000/svg" xmlns:xlink="http://www.w3.org/1999/xlink" viewBox="0 0 51.4844 39.8633">
 <g>
  <rect height="39.8633" opacity="0" width="51.4844" x="0" y="0"/>
  <path d="M19.9609 10.0977L31.1328 10.0977C32.8711 10.0977 34.043 8.92578 34.043 7.20703L34.043 4.98047C34.043 2.03125 31.9336 0.0195312 28.8086 0.0195312L22.2852 0.0195312C19.1797 0.0195312 17.0703 2.03125 17.0703 4.98047L17.0703 7.20703C17.0703 8.92578 18.2422 10.0977 19.9609 10.0977ZM20.6641 7.03125C20.3516 7.03125 20.1367 6.81641 20.1367 6.50391L20.1367 4.98047C20.1367 3.75 20.9375 3.08594 22.2852 3.08594L28.8086 3.08594C30.1953 3.08594 30.9766 3.75 30.9766 4.98047L30.9766 6.50391C30.9766 6.81641 30.7617 7.03125 30.4297 7.03125ZM19.9805 24.375L31.1328 24.375C32.8711 24.375 34.043 23.2031 34.043 21.4844L34.043 16.9922C34.043 15.2734 32.8711 14.1016 31.1328 14.1016L19.9805 14.1016C18.2617 14.1016 17.0898 15.2734 17.0898 16.9922L17.0898 21.4844C17.0898 23.2031 18.2617 24.375 19.9805 24.375ZM20.6836 21.3086C20.3516 21.3086 20.1562 21.0938 20.1562 20.7812L20.1562 17.7148C20.1562 17.3828 20.3516 17.168 20.6836 17.168L30.4297 17.168C30.7617 17.168 30.9766 17.3828 30.9766 17.7148L30.9766 20.7812C30.9766 21.0938 30.7617 21.3086 30.4297 21.3086ZM21.0156 15.7812L24.082 15.7812L24.082 8.80859L21.0156 8.80859ZM27.0508 15.7812L30.1172 15.7812L30.1172 8.80859L27.0508 8.80859ZM21.0156 37.7734L24.082 37.7734L24.082 23.418L21.0156 23.418ZM27.0508 37.7734L30.1172 37.7734L30.1172 23.418L27.0508 23.418ZM1.73828 39.8633L49.3945 39.8633C50.332 39.8633 51.1133 39.082 51.1133 38.125C51.1133 37.1875 50.332 36.4062 49.3945 36.4062L1.73828 36.4062C0.78125 36.4062 0 37.1875 0 38.125C0 39.082 0.78125 39.8633 1.73828 39.8633Z" fill="black" fill-opacity="0.85"/>
 </g>
</svg>
