<?xml version="1.0" encoding="UTF-8"?>
<!--Generator: Apple Native CoreSVG 326-->
<!DOCTYPE svg
PUBLIC "-//W3C//DTD SVG 1.1//EN"
       "http://www.w3.org/Graphics/SVG/1.1/DTD/svg11.dtd">
<svg version="1.1" xmlns="http://www.w3.org/2000/svg" xmlns:xlink="http://www.w3.org/1999/xlink" viewBox="0 0 46.2891 45.957">
 <g>
  <rect height="45.957" opacity="0" width="46.2891" x="0" y="0"/>
  <path d="M20.5078 23.0078L0.898438 3.39844C0.292969 4.51172 0 5.89844 0 7.57812L0 38.4375C0 40.1172 0.292969 41.5039 0.898438 42.6172ZM22.9492 20.5664L42.5586 0.976562C41.4258 0.351562 40.0195 0.0585938 38.3008 0.0585938L7.59766 0.0585938C5.89844 0.0585938 4.47266 0.351562 3.33984 0.957031ZM25.3906 23.0078L45 42.5977C45.6055 41.5039 45.918 40.0977 45.918 38.4375L45.918 7.57812C45.918 5.91797 45.6055 4.51172 45 3.41797ZM22.9492 25.4492L3.33984 45.0586C4.47266 45.6641 5.89844 45.957 7.59766 45.957L38.3008 45.957C40.0195 45.957 41.4258 45.6641 42.5586 45.0391Z" fill="black" fill-opacity="0.85"/>
 </g>
</svg>
