<?xml version="1.0" encoding="UTF-8"?>
<!--Generator: Apple Native CoreSVG 326-->
<!DOCTYPE svg
PUBLIC "-//W3C//DTD SVG 1.1//EN"
       "http://www.w3.org/Graphics/SVG/1.1/DTD/svg11.dtd">
<svg version="1.1" xmlns="http://www.w3.org/2000/svg" xmlns:xlink="http://www.w3.org/1999/xlink" viewBox="0 0 46.6406 46.3086">
 <g>
  <rect height="46.3086" opacity="0" width="46.6406" x="0" y="0"/>
  <path d="M7.32422 3.96484C8.39844 3.96484 9.29688 3.06641 9.29688 1.99219C9.29688 0.898438 8.39844 0 7.32422 0C6.23047 0 5.35156 0.898438 5.35156 1.99219C5.35156 3.06641 6.23047 3.96484 7.32422 3.96484ZM15.2344 3.96484C16.3086 3.96484 17.207 3.06641 17.207 1.99219C17.207 0.898438 16.3086 0 15.2344 0C14.1406 0 13.2422 0.898438 13.2422 1.99219C13.2422 3.06641 14.1406 3.96484 15.2344 3.96484ZM23.125 3.96484C24.2188 3.96484 25.1172 3.06641 25.1172 1.99219C25.1172 0.898438 24.2188 0 23.125 0C22.0508 0 21.1523 0.898438 21.1523 1.99219C21.1523 3.06641 22.0508 3.96484 23.125 3.96484ZM31.0352 3.96484C32.1094 3.96484 33.0078 3.06641 33.0078 1.99219C33.0078 0.898438 32.1094 0 31.0352 0C29.9414 0 29.0625 0.898438 29.0625 1.99219C29.0625 3.06641 29.9414 3.96484 31.0352 3.96484ZM38.9453 3.96484C40.0195 3.96484 40.918 3.06641 40.918 1.99219C40.918 0.898438 40.0195 0 38.9453 0C37.8516 0 36.9531 0.898438 36.9531 1.99219C36.9531 3.06641 37.8516 3.96484 38.9453 3.96484ZM44.2773 9.31641C45.3711 9.31641 46.2695 8.41797 46.2695 7.32422C46.2695 6.25 45.3711 5.35156 44.2773 5.35156C43.2031 5.35156 42.3047 6.25 42.3047 7.32422C42.3047 8.41797 43.2031 9.31641 44.2773 9.31641ZM44.2773 17.207C45.3711 17.207 46.2695 16.3086 46.2695 15.2344C46.2695 14.1602 45.3711 13.2617 44.2773 13.2617C43.2031 13.2617 42.3047 14.1602 42.3047 15.2344C42.3047 16.3086 43.2031 17.207 44.2773 17.207ZM44.2773 25.1172C45.3711 25.1172 46.2695 24.2188 46.2695 23.1445C46.2695 22.0508 45.3711 21.1523 44.2773 21.1523C43.2031 21.1523 42.3047 22.0508 42.3047 23.1445C42.3047 24.2188 43.2031 25.1172 44.2773 25.1172ZM44.2773 33.0273C45.3711 33.0273 46.2695 32.1289 46.2695 31.0352C46.2695 29.9609 45.3711 29.0625 44.2773 29.0625C43.2031 29.0625 42.3047 29.9609 42.3047 31.0352C42.3047 32.1289 43.2031 33.0273 44.2773 33.0273ZM44.2773 40.918C45.3711 40.918 46.2695 40.0195 46.2695 38.9453C46.2695 37.8711 45.3711 36.9727 44.2773 36.9727C43.2031 36.9727 42.3047 37.8711 42.3047 38.9453C42.3047 40.0195 43.2031 40.918 44.2773 40.918ZM38.9453 46.2695C40.0195 46.2695 40.918 45.3711 40.918 44.2969C40.918 43.2031 40.0195 42.3047 38.9453 42.3047C37.8516 42.3047 36.9531 43.2031 36.9531 44.2969C36.9531 45.3711 37.8516 46.2695 38.9453 46.2695ZM31.0352 46.2695C32.1094 46.2695 33.0078 45.3711 33.0078 44.2969C33.0078 43.2031 32.1094 42.3047 31.0352 42.3047C29.9414 42.3047 29.0625 43.2031 29.0625 44.2969C29.0625 45.3711 29.9414 46.2695 31.0352 46.2695ZM23.125 46.2695C24.2188 46.2695 25.1172 45.3711 25.1172 44.2969C25.1172 43.2031 24.2188 42.3047 23.125 42.3047C22.0508 42.3047 21.1523 43.2031 21.1523 44.2969C21.1523 45.3711 22.0508 46.2695 23.125 46.2695ZM15.2344 46.2695C16.3086 46.2695 17.207 45.3711 17.207 44.2969C17.207 43.2031 16.3086 42.3047 15.2344 42.3047C14.1406 42.3047 13.2422 43.2031 13.2422 44.2969C13.2422 45.3711 14.1406 46.2695 15.2344 46.2695ZM7.32422 46.2695C8.39844 46.2695 9.29688 45.3711 9.29688 44.2969C9.29688 43.2031 8.39844 42.3047 7.32422 42.3047C6.23047 42.3047 5.35156 43.2031 5.35156 44.2969C5.35156 45.3711 6.23047 46.2695 7.32422 46.2695ZM1.97266 40.918C3.06641 40.918 3.96484 40.0195 3.96484 38.9453C3.96484 37.8711 3.06641 36.9727 1.97266 36.9727C0.898438 36.9727 0 37.8711 0 38.9453C0 40.0195 0.898438 40.918 1.97266 40.918ZM1.97266 33.0273C3.06641 33.0273 3.96484 32.1289 3.96484 31.0352C3.96484 29.9609 3.06641 29.0625 1.97266 29.0625C0.898438 29.0625 0 29.9609 0 31.0352C0 32.1289 0.898438 33.0273 1.97266 33.0273ZM1.97266 25.1172C3.06641 25.1172 3.96484 24.2188 3.96484 23.1445C3.96484 22.0508 3.06641 21.1523 1.97266 21.1523C0.898438 21.1523 0 22.0508 0 23.1445C0 24.2188 0.898438 25.1172 1.97266 25.1172ZM1.97266 17.207C3.06641 17.207 3.96484 16.3086 3.96484 15.2344C3.96484 14.1602 3.06641 13.2617 1.97266 13.2617C0.898438 13.2617 0 14.1602 0 15.2344C0 16.3086 0.898438 17.207 1.97266 17.207ZM1.97266 9.31641C3.06641 9.31641 3.96484 8.41797 3.96484 7.32422C3.96484 6.25 3.06641 5.35156 1.97266 5.35156C0.898438 5.35156 0 6.25 0 7.32422C0 8.41797 0.898438 9.31641 1.97266 9.31641Z" fill="black" fill-opacity="0.85"/>
 </g>
</svg>
