<?xml version="1.0" encoding="UTF-8"?>
<!--Generator: Apple Native CoreSVG 326-->
<!DOCTYPE svg
PUBLIC "-//W3C//DTD SVG 1.1//EN"
       "http://www.w3.org/Graphics/SVG/1.1/DTD/svg11.dtd">
<svg version="1.1" xmlns="http://www.w3.org/2000/svg" xmlns:xlink="http://www.w3.org/1999/xlink" viewBox="0 0 50.6055 43.0664">
 <g>
  <rect height="43.0664" opacity="0" width="50.6055" x="0" y="0"/>
  <path d="M23.3398 3.45703L48.4766 3.45703C49.4531 3.45703 50.2344 2.71484 50.2344 1.73828C50.2344 0.761719 49.4531 0 48.4766 0L23.3398 0C22.3633 0 21.6211 0.761719 21.6211 1.73828C21.6211 2.71484 22.3633 3.45703 23.3398 3.45703ZM23.3398 16.6602L48.4766 16.6602C49.4531 16.6602 50.2344 15.8984 50.2344 14.9219C50.2344 13.9453 49.4531 13.1836 48.4766 13.1836L23.3398 13.1836C22.3633 13.1836 21.6211 13.9453 21.6211 14.9219C21.6211 15.8984 22.3633 16.6602 23.3398 16.6602ZM23.3398 29.8438L48.4766 29.8438C49.4531 29.8438 50.2344 29.082 50.2344 28.1055C50.2344 27.1289 49.4531 26.3867 48.4766 26.3867L23.3398 26.3867C22.3633 26.3867 21.6211 27.1289 21.6211 28.1055C21.6211 29.082 22.3633 29.8438 23.3398 29.8438ZM23.3398 43.0273L48.4766 43.0273C49.4531 43.0273 50.2344 42.2852 50.2344 41.3086C50.2344 40.3125 49.4531 39.5703 48.4766 39.5703L23.3398 39.5703C22.3633 39.5703 21.6211 40.3125 21.6211 41.3086C21.6211 42.2852 22.3633 43.0273 23.3398 43.0273Z" fill="black" fill-opacity="0.85"/>
  <path d="M4.00391 16.4844L12.4805 16.4844C15 16.4844 16.4844 15.0195 16.4844 12.5586L16.4844 3.92578C16.4844 1.46484 15 0 12.4805 0L4.00391 0C1.48438 0 0 1.46484 0 3.92578L0 12.5586C0 15.0195 1.48438 16.4844 4.00391 16.4844ZM4.00391 43.0273L12.4805 43.0273C15 43.0273 16.4844 41.5625 16.4844 39.1016L16.4844 30.4688C16.4844 28.0078 15 26.5625 12.4805 26.5625L4.00391 26.5625C1.48438 26.5625 0 28.0078 0 30.4688L0 39.1016C0 41.5625 1.48438 43.0273 4.00391 43.0273Z" fill="black" fill-opacity="0.85"/>
 </g>
</svg>
