<?xml version="1.0" encoding="UTF-8"?>
<!--Generator: Apple Native CoreSVG 326-->
<!DOCTYPE svg
PUBLIC "-//W3C//DTD SVG 1.1//EN"
       "http://www.w3.org/Graphics/SVG/1.1/DTD/svg11.dtd">
<svg version="1.1" xmlns="http://www.w3.org/2000/svg" xmlns:xlink="http://www.w3.org/1999/xlink" viewBox="0 0 51.25 50.918">
 <g>
  <rect height="50.918" opacity="0" width="51.25" x="0" y="0"/>
  <path d="M50.8789 25.4492C50.8789 39.4922 39.4727 50.8789 25.4297 50.8789C11.3867 50.8789 0 39.4922 0 25.4492C0 11.4062 11.3867 0 25.4297 0C39.4727 0 50.8789 11.4062 50.8789 25.4492ZM3.63281 25.4492C3.63281 37.5 13.3789 47.2461 25.4297 47.2461C37.4805 47.2461 47.2266 37.5 47.2266 25.4492C47.2266 13.3984 37.4805 3.65234 25.4297 3.65234C13.3789 3.65234 3.63281 13.3984 3.63281 25.4492Z" fill="black" fill-opacity="0.85"/>
  <path d="M36.6992 20.9961L36.6992 33.7305C36.6992 36.3672 35.2734 37.7539 32.6172 37.7539L18.2031 37.7539C15.5469 37.7539 14.1406 36.3477 14.1406 33.7305L14.1406 20.9961C14.1406 18.3789 15.5469 16.9727 18.2031 16.9727L22.3828 16.9727L22.3828 19.2578L18.2227 19.2578C16.9922 19.2578 16.4258 19.8633 16.4258 21.0938L16.4258 33.6523C16.4258 34.8828 16.9922 35.5078 18.2227 35.5078L32.5781 35.5078C33.8086 35.5078 34.4141 34.8633 34.4141 33.6523L34.4141 21.0938C34.4141 19.8828 33.8086 19.2578 32.5781 19.2578L28.457 19.2578L28.457 16.9727L32.6172 16.9727C35.293 16.9727 36.6992 18.3398 36.6992 20.9961Z" fill="black" fill-opacity="0.85"/>
  <path d="M25.4102 27.793C26.0352 27.793 26.5234 27.3047 26.5234 26.6797L26.5234 13.4375L26.4844 12.2461L27.5977 13.4375L29.0625 14.9414C29.2578 15.1562 29.5312 15.2734 29.8633 15.2734C30.4883 15.2734 30.8984 14.8438 30.8984 14.2773C30.8984 13.9844 30.8008 13.7305 30.5664 13.5156L26.1914 9.25781C25.9375 9.00391 25.6836 8.88672 25.4102 8.88672C25.1172 8.88672 24.8438 9.02344 24.6094 9.25781L20.2539 13.5156C20 13.75 19.9219 14.0039 19.9219 14.2773C19.9219 14.8438 20.3516 15.2734 20.918 15.2734C21.25 15.2734 21.5234 15.1562 21.7383 14.9414L23.1836 13.4375L24.3555 12.2461L24.3164 13.4375L24.3164 26.6797C24.3164 27.3047 24.7852 27.793 25.4102 27.793Z" fill="black" fill-opacity="0.85"/>
 </g>
</svg>
