<?xml version="1.0" encoding="UTF-8"?>
<!--Generator: Apple Native CoreSVG 326-->
<!DOCTYPE svg
PUBLIC "-//W3C//DTD SVG 1.1//EN"
       "http://www.w3.org/Graphics/SVG/1.1/DTD/svg11.dtd">
<svg version="1.1" xmlns="http://www.w3.org/2000/svg" xmlns:xlink="http://www.w3.org/1999/xlink" viewBox="0 0 51.25 50.918">
 <g>
  <rect height="50.918" opacity="0" width="51.25" x="0" y="0"/>
  <path d="M25.4297 50.8789C39.4727 50.8789 50.8789 39.4922 50.8789 25.4492C50.8789 11.4062 39.4727 0 25.4297 0C11.3867 0 0 11.4062 0 25.4492C0 39.4922 11.3867 50.8789 25.4297 50.8789ZM25.4297 47.2461C13.3789 47.2461 3.63281 37.5 3.63281 25.4492C3.63281 13.3984 13.3789 3.65234 25.4297 3.65234C37.4805 3.65234 47.2266 13.3984 47.2266 25.4492C47.2266 37.5 37.4805 47.2461 25.4297 47.2461Z" fill="black" fill-opacity="0.85"/>
  <path d="M16.1523 38.125L34.707 38.125C36.9922 38.125 38.0859 36.8555 38.0859 34.375L38.0859 16.1328C38.0859 13.8867 36.9922 12.7734 34.707 12.7734L16.1523 12.7734C14.1211 12.7734 12.7734 14.1211 12.7734 16.1328L12.7734 34.375C12.7734 36.6016 14.1211 38.125 16.1523 38.125ZM17.3828 34.9609C16.5234 34.9609 15.9375 34.3555 15.9375 33.4766L15.9375 17.4219C15.9375 16.543 16.5234 15.9375 17.3828 15.9375L33.4766 15.9375C34.3359 15.9375 34.9219 16.543 34.9219 17.4219L34.9219 33.4766C34.9219 34.3555 34.3359 34.9609 33.4766 34.9609Z" fill="black" fill-opacity="0.85"/>
 </g>
</svg>
