<?xml version="1.0" encoding="UTF-8"?>
<!--Generator: Apple Native CoreSVG 326-->
<!DOCTYPE svg
PUBLIC "-//W3C//DTD SVG 1.1//EN"
       "http://www.w3.org/Graphics/SVG/1.1/DTD/svg11.dtd">
<svg version="1.1" xmlns="http://www.w3.org/2000/svg" xmlns:xlink="http://www.w3.org/1999/xlink" viewBox="0 0 46.2891 45.918">
 <g>
  <rect height="45.918" opacity="0" width="46.2891" x="0" y="0"/>
  <path d="M7.59766 45.918L38.3008 45.918C43.3594 45.918 45.918 43.3594 45.918 38.3984L45.918 7.53906C45.918 2.55859 43.3594 0 38.3008 0L7.59766 0C2.55859 0 0 2.53906 0 7.53906L0 38.3984C0 43.3984 2.55859 45.918 7.59766 45.918ZM7.67578 42.4609C4.94141 42.4609 3.45703 41.0156 3.45703 38.2031L3.45703 7.71484C3.45703 4.92188 4.94141 3.45703 7.67578 3.45703L38.2422 3.45703C40.918 3.45703 42.4609 4.92188 42.4609 7.71484L42.4609 38.2031C42.4609 41.0156 40.918 42.4609 38.2422 42.4609Z" fill="black" fill-opacity="0.85"/>
  <path d="M7.20703 13.4766C7.20703 14.5898 7.94922 15.332 9.08203 15.332L13.4375 15.332C14.5703 15.332 15.3125 14.5898 15.3125 13.4766L15.3125 9.08203C15.3125 7.96875 14.5703 7.22656 13.4375 7.22656L9.08203 7.22656C7.94922 7.22656 7.20703 7.96875 7.20703 9.08203ZM18.9453 13.4766C18.9453 14.5898 19.668 15.332 20.8203 15.332L25.1562 15.332C26.3086 15.332 27.0312 14.5898 27.0312 13.4766L27.0312 9.08203C27.0312 7.96875 26.3086 7.22656 25.1562 7.22656L20.8203 7.22656C19.668 7.22656 18.9453 7.96875 18.9453 9.08203ZM30.625 13.4766C30.625 14.5898 31.3672 15.332 32.5195 15.332L36.8555 15.332C37.9883 15.332 38.7305 14.5898 38.7305 13.4766L38.7305 9.08203C38.7305 7.96875 37.9883 7.22656 36.8555 7.22656L32.5195 7.22656C31.3672 7.22656 30.625 7.96875 30.625 9.08203ZM7.20703 25.1758C7.20703 26.2891 7.94922 27.0312 9.08203 27.0312L13.4375 27.0312C14.5703 27.0312 15.3125 26.2891 15.3125 25.1758L15.3125 20.8008C15.3125 19.668 14.5703 18.9453 13.4375 18.9453L9.08203 18.9453C7.94922 18.9453 7.20703 19.668 7.20703 20.8008ZM18.9453 25.1758C18.9453 26.2891 19.668 27.0312 20.8203 27.0312L25.1562 27.0312C26.3086 27.0312 27.0312 26.2891 27.0312 25.1758L27.0312 20.8008C27.0312 19.668 26.3086 18.9453 25.1562 18.9453L20.8203 18.9453C19.668 18.9453 18.9453 19.668 18.9453 20.8008ZM30.625 25.1758C30.625 26.2891 31.3672 27.0312 32.5195 27.0312L36.8555 27.0312C37.9883 27.0312 38.7305 26.2891 38.7305 25.1758L38.7305 20.8008C38.7305 19.668 37.9883 18.9453 36.8555 18.9453L32.5195 18.9453C31.3672 18.9453 30.625 19.668 30.625 20.8008ZM7.20703 36.875C7.20703 37.9883 7.94922 38.7305 9.08203 38.7305L13.4375 38.7305C14.5703 38.7305 15.3125 37.9883 15.3125 36.875L15.3125 32.4805C15.3125 31.3672 14.5703 30.625 13.4375 30.625L9.08203 30.625C7.94922 30.625 7.20703 31.3672 7.20703 32.4805ZM18.9453 36.875C18.9453 37.9883 19.668 38.7305 20.8203 38.7305L25.1562 38.7305C26.3086 38.7305 27.0312 37.9883 27.0312 36.875L27.0312 32.4805C27.0312 31.3672 26.3086 30.625 25.1562 30.625L20.8203 30.625C19.668 30.625 18.9453 31.3672 18.9453 32.4805ZM30.625 36.875C30.625 37.9883 31.3672 38.7305 32.5195 38.7305L36.8555 38.7305C37.9883 38.7305 38.7305 37.9883 38.7305 36.875L38.7305 32.4805C38.7305 31.3672 37.9883 30.625 36.8555 30.625L32.5195 30.625C31.3672 30.625 30.625 31.3672 30.625 32.4805Z" fill="black" fill-opacity="0.85"/>
 </g>
</svg>
