<?xml version="1.0" encoding="UTF-8"?>
<!--Generator: Apple Native CoreSVG 326-->
<!DOCTYPE svg
PUBLIC "-//W3C//DTD SVG 1.1//EN"
       "http://www.w3.org/Graphics/SVG/1.1/DTD/svg11.dtd">
<svg version="1.1" xmlns="http://www.w3.org/2000/svg" xmlns:xlink="http://www.w3.org/1999/xlink" viewBox="0 0 52.9297 52.5977">
 <g>
  <rect height="52.5977" opacity="0" width="52.9297" x="0" y="0"/>
  <path d="M41.4648 47.0508C41.4648 47.6514 41.56 48.2295 41.7389 48.7695L10.8197 48.7695C10.9986 48.2295 11.0938 47.6514 11.0938 47.0508C11.0938 46.4436 10.9965 45.8586 10.8133 45.3125L41.7453 45.3125C41.5621 45.8586 41.4648 46.4436 41.4648 47.0508ZM48.75 41.7676C48.2045 41.5826 47.6196 41.4844 47.0117 41.4844C46.4038 41.4844 45.8189 41.5826 45.2734 41.7676L45.2734 10.8516C45.8189 11.0353 46.4038 11.1328 47.0117 11.1328C47.6196 11.1328 48.2045 11.0353 48.75 10.8516ZM7.28516 41.7676C6.7397 41.5826 6.1548 41.4844 5.54688 41.4844C4.94629 41.4844 4.36818 41.5803 3.82813 41.7604L3.82813 10.8588C4.36818 11.0377 4.94629 11.1328 5.54688 11.1328C6.1548 11.1328 6.7397 11.0353 7.28516 10.8516ZM41.4648 5.58594C41.4648 6.19387 41.5623 6.77876 41.746 7.32422L10.8126 7.32422C10.9963 6.77876 11.0938 6.19387 11.0938 5.58594C11.0938 4.97801 10.9963 4.39311 10.8126 3.84766L41.746 3.84766C41.5623 4.39311 41.4648 4.97801 41.4648 5.58594Z" fill="black" fill-opacity="0.85"/>
  <path d="M52.5586 47.0508C52.5586 50.1172 50.0781 52.5977 47.0117 52.5977C43.9453 52.5977 41.4648 50.1172 41.4648 47.0508C41.4648 43.9844 43.9453 41.4844 47.0117 41.4844C50.0781 41.4844 52.5586 43.9844 52.5586 47.0508ZM11.0938 47.0508C11.0938 50.1172 8.61328 52.5977 5.54688 52.5977C2.48047 52.5977 0 50.1172 0 47.0508C0 43.9844 2.48047 41.4844 5.54688 41.4844C8.61328 41.4844 11.0938 43.9844 11.0938 47.0508ZM11.0938 5.58594C11.0938 8.65234 8.61328 11.1328 5.54688 11.1328C2.48047 11.1328 0 8.65234 0 5.58594C0 2.51953 2.48047 0.0390625 5.54688 0.0390625C8.61328 0.0390625 11.0938 2.51953 11.0938 5.58594ZM52.5586 5.58594C52.5586 8.65234 50.0781 11.1328 47.0117 11.1328C43.9453 11.1328 41.4648 8.65234 41.4648 5.58594C41.4648 2.51953 43.9453 0.0390625 47.0117 0.0390625C50.0781 0.0390625 52.5586 2.51953 52.5586 5.58594Z" fill="black" fill-opacity="0.85"/>
  <path d="M33.9844 15.8203L33.9844 18.8086L31.1328 18.8086L31.1328 16.6211C31.1328 15.8984 30.7031 15.5078 29.8828 15.5078L16.543 15.5078C15.8203 15.5078 15.4297 15.8984 15.4297 16.6211L15.4297 29.8633C15.4297 30.5859 15.8203 30.9766 16.543 30.9766L18.6914 30.9766L18.6914 33.8477L15.7422 33.8477C13.7109 33.8477 12.5586 32.6953 12.5586 30.6641L12.5586 15.8203C12.5586 13.7891 13.7109 12.6562 15.7422 12.6562L30.6836 12.6562C32.8125 12.6562 33.9844 13.7891 33.9844 15.8203Z" fill="black" fill-opacity="0.85"/>
  <path d="M21.875 40L36.9531 40C38.9844 40 40.1367 38.8672 40.1367 36.8164L40.1367 21.9727C40.1367 19.9609 38.9453 18.8086 36.8164 18.8086L21.875 18.8086C19.8438 18.8086 18.6914 19.9609 18.6914 21.9727L18.6914 36.8164C18.6914 38.8672 19.8438 40 21.875 40ZM22.6758 37.1289C21.9531 37.1289 21.5625 36.7383 21.5625 36.0352L21.5625 22.793C21.5625 22.0703 21.9531 21.6797 22.6758 21.6797L36.0352 21.6797C36.8359 21.6797 37.2656 22.0703 37.2656 22.793L37.2656 36.0352C37.2656 36.7383 36.875 37.1289 36.1523 37.1289Z" fill="black" fill-opacity="0.85"/>
 </g>
</svg>
