<?xml version="1.0" encoding="UTF-8"?>
<!--Generator: Apple Native CoreSVG 326-->
<!DOCTYPE svg
PUBLIC "-//W3C//DTD SVG 1.1//EN"
       "http://www.w3.org/Graphics/SVG/1.1/DTD/svg11.dtd">
<svg version="1.1" xmlns="http://www.w3.org/2000/svg" xmlns:xlink="http://www.w3.org/1999/xlink" viewBox="0 0 64.2969 67.207">
 <g>
  <rect height="67.207" opacity="0" width="64.2969" x="0" y="0"/>
  <path d="M30.8008 57.3633C31.1914 57.5781 31.6016 57.7148 31.9531 57.7148C32.3242 57.7148 32.7344 57.5781 33.125 57.3633L42.2217 52.093L44.8406 54.7099L34.8047 60.5273C33.7305 61.1523 32.8906 61.4648 31.9531 61.4648C31.0352 61.4648 30.1953 61.1523 29.1211 60.5273L9.14062 48.9453C7.36328 47.9102 6.62109 47.0898 6.62109 45.8203C6.62109 45.0612 6.89484 44.4605 7.51014 43.8696ZM57.3047 45.8203C57.3047 47.0898 56.5625 47.9102 54.7852 48.9453L52.7065 50.1503L50.0898 47.5346L56.4156 43.8696C57.0309 44.4605 57.3047 45.0612 57.3047 45.8203Z" fill="black" fill-opacity="0.85"/>
  <path d="M30.8008 45.5859C31.1914 45.8008 31.6016 45.9375 31.9531 45.9375C32.3242 45.9375 32.7344 45.8008 33.125 45.5859L34.7609 44.6381L37.3813 47.2564L34.8047 48.75C33.7305 49.375 32.8906 49.6875 31.9531 49.6875C31.0352 49.6875 30.1953 49.375 29.1211 48.75L9.14062 37.168C7.36328 36.1133 6.62109 35.293 6.62109 34.043C6.62109 33.2838 6.89484 32.6832 7.51014 32.0923ZM57.3047 34.043C57.3047 35.293 56.5625 36.1133 54.7852 37.168L45.249 42.6957L42.6309 40.0786L56.4156 32.0923C57.0309 32.6832 57.3047 33.2838 57.3047 34.043Z" fill="black" fill-opacity="0.85"/>
  <path d="M34.8047 7.08984L54.7852 18.6523C56.5625 19.707 57.3047 20.5273 57.3047 21.7773C57.3047 23.0469 56.5625 23.8672 54.7852 24.9023L37.4824 34.9322L16.776 14.2338L29.1211 7.08984C30.1953 6.44531 31.0352 6.15234 31.9531 6.15234C32.8906 6.15234 33.7305 6.44531 34.8047 7.08984ZM23.1186 33.0049L9.14062 24.9023C7.36328 23.8672 6.62109 23.0469 6.62109 21.7773C6.62109 20.5857 7.29559 19.7846 8.90068 18.7981Z" fill="black" fill-opacity="0.85"/>
  <path d="M54.4727 60.4883C55.1172 61.1328 56.2109 61.1523 56.8359 60.4883C57.4805 59.8242 57.4805 58.7891 56.8359 58.1445L6.97266 8.30078C6.32812 7.65625 5.27344 7.63672 4.60938 8.30078C3.96484 8.92578 3.96484 10.0195 4.60938 10.6445Z" fill="black" fill-opacity="0.85"/>
 </g>
</svg>
