<?xml version="1.0" encoding="UTF-8"?>
<!--Generator: Apple Native CoreSVG 326-->
<!DOCTYPE svg
PUBLIC "-//W3C//DTD SVG 1.1//EN"
       "http://www.w3.org/Graphics/SVG/1.1/DTD/svg11.dtd">
<svg version="1.1" xmlns="http://www.w3.org/2000/svg" xmlns:xlink="http://www.w3.org/1999/xlink" viewBox="0 0 59.8634 58.5645">
 <g>
  <rect height="58.5645" opacity="0" width="59.8634" x="0" y="0"/>
  <path d="M11.7477 15.1741L9.7266 16.3428C8.96489 16.792 8.69145 17.1436 8.69145 18.1202L8.69145 40.7373C8.69145 41.0498 8.88676 41.1866 9.19926 41.0108L15.293 37.4924L15.293 41.6317L10.625 44.3311C7.51957 46.128 5.17582 44.9366 5.17582 41.167L5.17582 18.003C5.17582 15.6788 5.91801 14.4092 7.94926 13.2178L9.1158 12.5443ZM33.3985 4.19438L33.3985 10.3085L29.9024 12.3302L29.9024 5.34672C29.9024 4.99516 29.6289 4.83891 29.3164 5.01469L19.6167 10.6237L16.9902 7.99822L28.2813 1.47953C30.6055 0.151409 33.3985 1.06938 33.3985 4.19438Z" fill="black" fill-opacity="0.85"/>
  <path d="M19.2614 22.6817C18.922 22.9997 18.7891 23.3768 18.7891 24.0577L18.7891 46.6944C18.7891 46.9873 18.9844 47.1241 19.2969 46.9483L26.0938 43.0278L26.0938 47.1739L20.7422 50.2686C17.6172 52.0655 15.293 50.8936 15.293 47.1045L15.293 23.9405C15.293 22.2299 15.695 21.0906 16.7194 20.1418ZM43.5157 10.1319L43.5157 17.0319L40 19.065L40 11.2842C40 10.9327 39.7266 10.7764 39.4141 10.9717L27.085 18.0889L24.4679 15.4729L38.3985 7.41703C40.7227 6.08891 43.5157 7.00688 43.5157 10.1319Z" fill="black" fill-opacity="0.85"/>
  <path d="M29.5899 33.0019L29.5899 53.0225C29.5899 53.335 29.7852 53.4717 30.0977 53.2959L42.6527 46.0541L45.2718 48.6711L31.543 56.5967C28.418 58.3936 26.0938 57.2217 26.0938 53.4522L26.0938 30.2881C26.0938 30.0251 26.1033 29.7754 26.1245 29.5393ZM54.3164 16.46L54.3164 40.1905C54.3164 41.9096 54.0013 43.0187 52.9931 43.9865L50.4413 41.4358C50.7187 41.1178 50.8008 40.7398 50.8008 40.1319L50.8008 17.6123C50.8008 17.2803 50.5274 17.1241 50.2344 17.2998L35.0633 26.064L32.4369 23.4387L49.1993 13.7452C51.5235 12.417 54.3164 13.3545 54.3164 16.46Z" fill="black" fill-opacity="0.85"/>
  <path d="M54.2969 53.8428C54.9414 54.5069 56.0157 54.5069 56.6602 53.8428C57.3047 53.1983 57.3047 52.1436 56.6602 51.4991L8.35942 3.21782C7.71489 2.57328 6.6602 2.55375 5.9766 3.21782C5.3516 3.84282 5.3516 4.93657 5.9766 5.56157Z" fill="black" fill-opacity="0.85"/>
 </g>
</svg>
