<?xml version="1.0" encoding="UTF-8"?>
<!--Generator: Apple Native CoreSVG 326-->
<!DOCTYPE svg
PUBLIC "-//W3C//DTD SVG 1.1//EN"
       "http://www.w3.org/Graphics/SVG/1.1/DTD/svg11.dtd">
<svg version="1.1" xmlns="http://www.w3.org/2000/svg" xmlns:xlink="http://www.w3.org/1999/xlink" viewBox="0 0 57.2852 57.6758">
 <g>
  <rect height="57.6758" opacity="0" width="57.2852" x="0" y="0"/>
  <path d="M51.2695 36.4453C53.0664 37.4805 53.7891 38.3008 53.7891 39.5703C53.7891 40.8203 53.0664 41.6406 51.2695 42.6953L31.3086 54.2773C30.2148 54.9023 29.3555 55.1953 28.457 55.1953C27.5391 55.1953 26.6992 54.9023 25.6055 54.2773L5.64453 42.6953C3.84766 41.6406 3.125 40.8203 3.125 39.5703C3.125 38.3008 3.84766 37.4805 5.64453 36.4453L15.1042 30.9708L24.043 36.1523C25.7227 37.1289 27.0898 37.5 28.457 37.5C29.8047 37.5 31.1719 37.1289 32.8516 36.1523L41.8094 30.9649Z" fill="black" fill-opacity="0.85"/>
  <path d="M28.457 34.3945C29.3555 34.3945 30.2148 34.082 31.3086 33.457L51.2695 21.875C53.0664 20.8203 53.7891 20 53.7891 18.75C53.7891 17.4805 53.0664 16.6797 51.2695 15.625L31.3086 4.04297C30.2148 3.41797 29.3555 3.10547 28.457 3.10547C27.5391 3.10547 26.6992 3.41797 25.6055 4.04297L5.64453 15.625C3.84766 16.6797 3.125 17.4805 3.125 18.75C3.125 20 3.84766 20.8203 5.64453 21.875L25.6055 33.457C26.6992 34.082 27.5391 34.3945 28.457 34.3945Z" fill="black" fill-opacity="0.85"/>
 </g>
</svg>
