<?xml version="1.0" encoding="UTF-8"?>
<!--Generator: Apple Native CoreSVG 326-->
<!DOCTYPE svg
PUBLIC "-//W3C//DTD SVG 1.1//EN"
       "http://www.w3.org/Graphics/SVG/1.1/DTD/svg11.dtd">
<svg version="1.1" xmlns="http://www.w3.org/2000/svg" xmlns:xlink="http://www.w3.org/1999/xlink" viewBox="0 0 71.3867 45.957">
 <g>
  <rect height="45.957" opacity="0" width="71.3867" x="0" y="0"/>
  <path d="M54.668 45.957L66.5234 45.957C69.4922 45.957 71.0156 44.5117 71.0156 41.4062L71.0156 29.707C71.0156 26.6016 69.4922 25.1367 66.5234 25.1367L54.668 25.1367C51.6992 25.1367 50.1953 26.6016 50.1953 29.707L50.1953 41.4062C50.1953 44.5117 51.6992 45.957 54.668 45.957Z" fill="black" fill-opacity="0.85"/>
  <path d="M29.5898 45.957L41.4258 45.957C44.3945 45.957 45.918 44.5117 45.918 41.4062L45.918 29.707C45.918 26.6016 44.3945 25.1367 41.4258 25.1367L29.5898 25.1367C26.6016 25.1367 25.0977 26.6016 25.0977 29.707L25.0977 41.4062C25.0977 44.5117 26.6016 45.957 29.5898 45.957Z" fill="black" fill-opacity="0.85"/>
  <path d="M4.49219 45.957L16.3281 45.957C19.2969 45.957 20.8203 44.5117 20.8203 41.4062L20.8203 29.707C20.8203 26.6016 19.2969 25.1367 16.3281 25.1367L4.49219 25.1367C1.52344 25.1367 0 26.6016 0 29.707L0 41.4062C0 44.5117 1.52344 45.957 4.49219 45.957Z" fill="black" fill-opacity="0.85"/>
  <path d="M54.668 20.8594L66.5234 20.8594C69.4922 20.8594 71.0156 19.4141 71.0156 16.3086L71.0156 4.60938C71.0156 1.50391 69.4922 0.0585938 66.5234 0.0585938L54.668 0.0585938C51.6992 0.0585938 50.1953 1.50391 50.1953 4.60938L50.1953 16.3086C50.1953 19.4141 51.6992 20.8594 54.668 20.8594Z" fill="black" fill-opacity="0.85"/>
  <path d="M29.5898 20.8594L41.4258 20.8594C44.3945 20.8594 45.918 19.4141 45.918 16.3086L45.918 4.60938C45.918 1.50391 44.3945 0.0585938 41.4258 0.0585938L29.5898 0.0585938C26.6016 0.0585938 25.0977 1.50391 25.0977 4.60938L25.0977 16.3086C25.0977 19.4141 26.6016 20.8594 29.5898 20.8594Z" fill="black" fill-opacity="0.85"/>
  <path d="M4.49219 20.8594L16.3281 20.8594C19.2969 20.8594 20.8203 19.4141 20.8203 16.3086L20.8203 4.60938C20.8203 1.50391 19.2969 0.0585938 16.3281 0.0585938L4.49219 0.0585938C1.52344 0.0585938 0 1.50391 0 4.60938L0 16.3086C0 19.4141 1.52344 20.8594 4.49219 20.8594Z" fill="black" fill-opacity="0.85"/>
 </g>
</svg>
