<?xml version="1.0" encoding="UTF-8"?>
<!--Generator: Apple Native CoreSVG 326-->
<!DOCTYPE svg
PUBLIC "-//W3C//DTD SVG 1.1//EN"
       "http://www.w3.org/Graphics/SVG/1.1/DTD/svg11.dtd">
<svg version="1.1" xmlns="http://www.w3.org/2000/svg" xmlns:xlink="http://www.w3.org/1999/xlink" viewBox="0 0 51.25 50.918">
 <g>
  <rect height="50.918" opacity="0" width="51.25" x="0" y="0"/>
  <path d="M25.4297 50.8789C39.4727 50.8789 50.8789 39.4922 50.8789 25.4492C50.8789 11.4062 39.4727 0 25.4297 0C11.3867 0 0 11.4062 0 25.4492C0 39.4922 11.3867 50.8789 25.4297 50.8789ZM25.4297 47.2461C13.3789 47.2461 3.63281 37.5 3.63281 25.4492C3.63281 13.3984 13.3789 3.65234 25.4297 3.65234C37.4805 3.65234 47.2266 13.3984 47.2266 25.4492C47.2266 37.5 37.4805 47.2461 25.4297 47.2461Z" fill="black" fill-opacity="0.85"/>
  <path d="M17.6367 37.4414L32.6562 37.4414C35.0391 37.4414 36.5039 35.9961 36.5039 33.3203L36.5039 19.7852L34.1992 22.1289L34.1992 33.2227C34.1992 34.4531 33.5352 35.1172 32.6172 35.1172L17.6562 35.1172C16.4844 35.1172 15.8008 34.4531 15.8008 33.2227L15.8008 18.5938C15.8008 17.3633 16.4844 16.6992 17.6562 16.6992L28.8867 16.6992L31.2109 14.375L17.6367 14.375C14.9414 14.375 13.4766 15.8398 13.4766 18.5156L13.4766 33.3203C13.4766 35.9961 14.9414 37.4414 17.6367 37.4414ZM22.6758 28.9258L25.0195 27.9102L36.7188 16.2109L34.707 14.2383L23.0469 25.9375L21.9531 28.1836C21.7188 28.6523 22.2266 29.1211 22.6758 28.9258ZM37.793 15.1758L38.7891 14.0625C39.3164 13.4961 39.2969 12.8125 38.8477 12.3633L38.5547 12.0898C38.1055 11.6211 37.3438 11.6406 36.8164 12.1484L35.7812 13.1445Z" fill="black" fill-opacity="0.85"/>
 </g>
</svg>
