<?xml version="1.0" encoding="UTF-8"?>
<!--Generator: Apple Native CoreSVG 326-->
<!DOCTYPE svg
PUBLIC "-//W3C//DTD SVG 1.1//EN"
       "http://www.w3.org/Graphics/SVG/1.1/DTD/svg11.dtd">
<svg version="1.1" xmlns="http://www.w3.org/2000/svg" xmlns:xlink="http://www.w3.org/1999/xlink" viewBox="0 0 51.25 50.918">
 <g>
  <rect height="50.918" opacity="0" width="51.25" x="0" y="0"/>
  <path d="M50.8789 25.4492C50.8789 39.4531 39.4531 50.8789 25.4297 50.8789C11.4258 50.8789 0 39.4531 0 25.4492C0 11.4258 11.4258 0 25.4297 0C39.4531 0 50.8789 11.4258 50.8789 25.4492ZM28.5547 16.8164L28.5547 19.1797L32.793 19.1797C34.0234 19.1797 34.6484 19.8047 34.6484 21.0547L34.6484 33.8867C34.6484 35.1367 34.0234 35.7812 32.793 35.7812L18.0664 35.7812C16.8164 35.7812 16.2305 35.1758 16.2305 33.8867L16.2305 21.0547C16.2305 19.7852 16.8164 19.1797 18.0664 19.1797L22.3242 19.1797L22.3242 16.8164L18.0273 16.8164C15.332 16.8164 13.8867 18.2617 13.8867 20.957L13.8867 33.9648C13.8867 36.6602 15.332 38.1055 18.0273 38.1055L32.8125 38.1055C35.5273 38.1055 36.9922 36.6797 36.9922 33.9648L36.9922 20.957C36.9922 18.2227 35.5469 16.8164 32.8125 16.8164ZM24.6094 8.92578L20.1562 13.2617C19.8828 13.5156 19.8047 13.7695 19.8047 14.0625C19.8047 14.6484 20.2539 15.0781 20.8398 15.0781C21.1523 15.0781 21.4648 14.9609 21.6797 14.7461L23.1445 13.2227L24.3359 11.9922L24.2969 13.2227L24.2969 26.7578C24.2969 27.4023 24.7852 27.9102 25.4297 27.9102C26.0742 27.9102 26.582 27.4023 26.582 26.7578L26.582 13.2227L26.543 11.9922L27.6758 13.2227L29.1602 14.7461C29.3555 14.9609 29.6484 15.0781 29.9805 15.0781C30.625 15.0781 31.0742 14.6484 31.0742 14.0625C31.0742 13.75 30.957 13.4961 30.7031 13.2812L26.2305 8.92578C25.9766 8.65234 25.7031 8.53516 25.4297 8.53516C25.1367 8.53516 24.8438 8.65234 24.6094 8.92578Z" fill="black" fill-opacity="0.85"/>
 </g>
</svg>
