<?xml version="1.0" encoding="UTF-8"?>
<!--Generator: Apple Native CoreSVG 326-->
<!DOCTYPE svg
PUBLIC "-//W3C//DTD SVG 1.1//EN"
       "http://www.w3.org/Graphics/SVG/1.1/DTD/svg11.dtd">
<svg version="1.1" xmlns="http://www.w3.org/2000/svg" xmlns:xlink="http://www.w3.org/1999/xlink" viewBox="0 0 62.5195 70.9471">
 <g>
  <rect height="70.9471" opacity="0" width="62.5195" x="0" y="0"/>
  <path d="M34.5635 9.46418L10.7422 23.1982C10.2344 23.4911 10 23.9013 10 24.4482L10 51.914C8.25782 52.2309 6.50391 51.4858 6.50391 48.4716L6.50391 24.4872C6.50391 21.9286 6.79688 21.4403 8.98438 20.1708L29.6094 8.27628C31.2555 7.32155 33.8033 7.07435 34.5635 9.46418Z" fill="black" fill-opacity="0.85"/>
  <path d="M44.7532 15.3471L20.957 29.0771C20.4297 29.3896 20.1953 29.7802 20.1953 30.3271L20.1953 57.795C18.4542 58.1079 16.7188 57.3632 16.7188 54.37L16.7188 30.3661C16.7188 27.8271 16.9922 27.3388 19.1797 26.0692L39.8047 14.1747C41.4471 13.2221 43.9871 12.9739 44.7532 15.3471Z" fill="black" fill-opacity="0.85"/>
  <path d="M27.3438 60.1122C27.3438 63.7255 30 64.7607 32.832 63.1396L52.832 51.6357C54.9414 50.4247 55.6445 49.2724 55.6445 46.7138L55.6445 23.12C55.6445 19.5849 52.9883 18.8427 50.2344 20.4247L30.1953 31.9872C28.0469 33.2372 27.3438 34.4286 27.3438 36.9091Z" fill="black" fill-opacity="0.85"/>
 </g>
</svg>
