<?xml version="1.0" encoding="UTF-8"?>
<!--Generator: Apple Native CoreSVG 326-->
<!DOCTYPE svg
PUBLIC "-//W3C//DTD SVG 1.1//EN"
       "http://www.w3.org/Graphics/SVG/1.1/DTD/svg11.dtd">
<svg version="1.1" xmlns="http://www.w3.org/2000/svg" xmlns:xlink="http://www.w3.org/1999/xlink" viewBox="0 0 46.3086 46.0742">
 <g>
  <rect height="46.0742" opacity="0" width="46.3086" x="0" y="0"/>
  <path d="M1.97266 46.0742C3.06641 46.0742 3.96484 45.1953 3.96484 44.1016C3.96484 43.0273 3.06641 42.1289 1.97266 42.1289C0.898438 42.1289 0 43.0273 0 44.1016C0 45.1953 0.898438 46.0742 1.97266 46.0742ZM1.97266 39.0625C3.06641 39.0625 3.96484 38.1641 3.96484 37.0898C3.96484 35.9961 3.06641 35.1172 1.97266 35.1172C0.898438 35.1172 0 35.9961 0 37.0898C0 38.1641 0.898438 39.0625 1.97266 39.0625ZM1.97266 32.0508C3.06641 32.0508 3.96484 31.1523 3.96484 30.0781C3.96484 28.9844 3.06641 28.0859 1.97266 28.0859C0.898438 28.0859 0 28.9844 0 30.0781C0 31.1523 0.898438 32.0508 1.97266 32.0508ZM1.97266 25.0195C3.06641 25.0195 3.96484 24.1211 3.96484 23.0469C3.96484 21.9531 3.06641 21.0742 1.97266 21.0742C0.898438 21.0742 0 21.9531 0 23.0469C0 24.1211 0.898438 25.0195 1.97266 25.0195ZM9.00391 25.0195C10.0977 25.0195 10.9766 24.1211 10.9766 23.0469C10.9766 21.9531 10.0977 21.0742 9.00391 21.0742C7.92969 21.0742 7.03125 21.9531 7.03125 23.0469C7.03125 24.1211 7.92969 25.0195 9.00391 25.0195ZM16.0156 25.0195C17.1094 25.0195 18.0078 24.1211 18.0078 23.0469C18.0078 21.9531 17.1094 21.0742 16.0156 21.0742C14.9414 21.0742 14.043 21.9531 14.043 23.0469C14.043 24.1211 14.9414 25.0195 16.0156 25.0195ZM23.0273 25.0195C24.1211 25.0195 25.0195 24.1211 25.0195 23.0469C25.0195 21.9531 24.1211 21.0742 23.0273 21.0742C21.9531 21.0742 21.0547 21.9531 21.0547 23.0469C21.0547 24.1211 21.9531 25.0195 23.0273 25.0195ZM23.0273 32.0508C24.1211 32.0508 25.0195 31.1523 25.0195 30.0781C25.0195 28.9844 24.1211 28.0859 23.0273 28.0859C21.9531 28.0859 21.0547 28.9844 21.0547 30.0781C21.0547 31.1523 21.9531 32.0508 23.0273 32.0508ZM23.0273 39.0625C24.1211 39.0625 25.0195 38.1641 25.0195 37.0898C25.0195 35.9961 24.1211 35.1172 23.0273 35.1172C21.9531 35.1172 21.0547 35.9961 21.0547 37.0898C21.0547 38.1641 21.9531 39.0625 23.0273 39.0625ZM23.0273 46.0742C24.1211 46.0742 25.0195 45.1953 25.0195 44.1016C25.0195 43.0273 24.1211 42.1289 23.0273 42.1289C21.9531 42.1289 21.0547 43.0273 21.0547 44.1016C21.0547 45.1953 21.9531 46.0742 23.0273 46.0742ZM16.0156 46.0742C17.1094 46.0742 18.0078 45.1953 18.0078 44.1016C18.0078 43.0273 17.1094 42.1289 16.0156 42.1289C14.9414 42.1289 14.043 43.0273 14.043 44.1016C14.043 45.1953 14.9414 46.0742 16.0156 46.0742ZM9.00391 46.0742C10.0977 46.0742 10.9766 45.1953 10.9766 44.1016C10.9766 43.0273 10.0977 42.1289 9.00391 42.1289C7.92969 42.1289 7.03125 43.0273 7.03125 44.1016C7.03125 45.1953 7.92969 46.0742 9.00391 46.0742Z" fill="black" fill-opacity="0.85"/>
  <path d="M27.7344 46.0156L44.1211 46.0156C45.2148 46.0156 45.9375 45.3125 45.9375 44.1992L45.9375 5.68359L42.4805 9.0625L42.4805 41.875C42.4805 42.3633 42.2852 42.5586 41.7969 42.5586L27.7344 42.5586ZM0.0195312 18.3398L3.47656 18.3398L3.47656 4.25781C3.47656 3.76953 3.67188 3.57422 4.16016 3.57422L36.5234 3.57422L40.0391 0.117188L1.83594 0.117188C0.742188 0.117188 0.0195312 0.820312 0.0195312 1.93359Z" fill="black" fill-opacity="0.85"/>
  <path d="M44.8828 1.01562C44.3555 0.46875 43.5156 0.507812 43.0078 1.01562L33.7695 10.0977L31.3867 7.67578C30.6641 6.95312 29.5508 7.36328 29.3359 8.41797L27.5977 16.5625C27.3828 17.5391 28.2227 18.3203 29.1992 18.1055L37.3047 16.3867C38.3984 16.1719 38.7891 15.1367 38.0469 14.3945L35.625 11.9727L44.8828 2.89062C45.4102 2.38281 45.3906 1.54297 44.8828 1.01562Z" fill="black" fill-opacity="0.85"/>
 </g>
</svg>
