<?xml version="1.0" encoding="UTF-8"?>
<!--Generator: Apple Native CoreSVG 326-->
<!DOCTYPE svg
PUBLIC "-//W3C//DTD SVG 1.1//EN"
       "http://www.w3.org/Graphics/SVG/1.1/DTD/svg11.dtd">
<svg version="1.1" xmlns="http://www.w3.org/2000/svg" xmlns:xlink="http://www.w3.org/1999/xlink" viewBox="0 0 46.2891 45.918">
 <g>
  <rect height="45.918" opacity="0" width="46.2891" x="0" y="0"/>
  <path d="M45.918 7.53906L45.918 38.3984C45.918 43.3594 43.3594 45.918 38.3008 45.918L7.59766 45.918C2.55859 45.918 0 43.3984 0 38.3984L0 7.53906C0 2.53906 2.55859 0 7.59766 0L38.3008 0C43.3594 0 45.918 2.55859 45.918 7.53906ZM9.12109 35.5078C8.32031 35.5078 7.73438 36.1133 7.73438 36.8945C7.73438 37.6367 8.32031 38.2227 9.12109 38.2227L27.7539 38.2227C28.5352 38.2227 29.1211 37.6367 29.1211 36.8945C29.1211 36.1133 28.5352 35.5078 27.7539 35.5078ZM9.12109 27.0312C8.32031 27.0312 7.73438 27.6172 7.73438 28.3594C7.73438 29.1211 8.32031 29.7266 9.12109 29.7266L34.6094 29.7266C35.3906 29.7266 35.9766 29.1211 35.9766 28.3594C35.9766 27.6172 35.3906 27.0312 34.6094 27.0312ZM10.4688 6.875C8.94531 6.875 7.98828 7.8125 7.98828 9.31641L7.98828 15.9961C7.98828 17.5 8.94531 18.457 10.4688 18.457L17.1094 18.457C18.6328 18.457 19.5898 17.5 19.5898 15.9961L19.5898 9.31641C19.5898 7.8125 18.6328 6.875 17.1094 6.875Z" fill="black" fill-opacity="0.85"/>
 </g>
</svg>
