<?xml version="1.0" encoding="UTF-8"?>
<!--Generator: Apple Native CoreSVG 326-->
<!DOCTYPE svg
PUBLIC "-//W3C//DTD SVG 1.1//EN"
       "http://www.w3.org/Graphics/SVG/1.1/DTD/svg11.dtd">
<svg version="1.1" xmlns="http://www.w3.org/2000/svg" xmlns:xlink="http://www.w3.org/1999/xlink" viewBox="0 0 59.8634 58.5645">
 <g>
  <rect height="58.5645" opacity="0" width="59.8634" x="0" y="0"/>
  <path d="M31.211 1.47953L51.543 13.2178C53.5743 14.4092 54.3164 15.6788 54.3164 18.003L54.3164 41.167C54.3164 42.6236 53.9694 43.6953 53.3602 44.3535L49.6375 40.6323L50.293 41.0108C50.6055 41.1866 50.8008 41.0498 50.8008 40.7373L50.8008 18.1202C50.8008 17.1436 50.5274 16.792 49.7657 16.3428L30.1758 5.01469C29.8633 4.83891 29.5899 4.99516 29.5899 5.34672L29.5899 12.3302L26.0938 10.3085L26.0938 4.19438C26.0938 1.06938 28.8868 0.151409 31.211 1.47953Z" fill="black" fill-opacity="0.85"/>
  <path d="M40.1954 46.9483C40.5079 47.1241 40.7032 46.9873 40.7032 46.6944L40.7032 44.1062L44.1804 47.5806C43.9942 50.9905 41.7382 51.9868 38.75 50.2686L33.3985 47.1739L33.3985 43.0278ZM21.0938 7.41703L41.4258 19.1748C43.4571 20.3467 44.1993 21.6163 44.1993 23.9405L44.1993 35.1963L40.7032 31.7016L40.7032 24.0577C40.7032 23.0811 40.4297 22.7295 39.668 22.2803L20.0782 10.9717C20.012 10.9304 19.9477 10.9048 19.8875 10.8944L16.7641 7.77227C17.7583 6.64634 19.5319 6.52452 21.0938 7.41703Z" fill="black" fill-opacity="0.85"/>
  <path d="M10.293 13.7452L10.3514 13.7789L20.1915 23.6111L9.27739 17.2998C8.96489 17.1241 8.69145 17.2803 8.69145 17.6123L8.69145 40.1319C8.69145 41.0694 8.88676 41.46 9.68754 41.9288L29.3946 53.2959C29.7071 53.4717 29.9024 53.335 29.9024 53.0225L29.9024 33.3141L33.3985 36.8074L33.3985 53.4522C33.3985 57.2217 31.0743 58.3936 27.9493 56.5967L7.98832 45.0733C5.78129 43.7842 5.17582 42.5733 5.17582 40.1905L5.17582 16.46C5.17582 13.3545 7.96879 12.417 10.293 13.7452Z" fill="black" fill-opacity="0.85"/>
  <path d="M54.2969 53.8428C54.9414 54.5069 56.0157 54.5069 56.6602 53.8428C57.3047 53.1983 57.3047 52.1436 56.6602 51.4991L8.35942 3.21782C7.71489 2.57328 6.6602 2.55375 5.9766 3.21782C5.3516 3.84282 5.3516 4.93657 5.9766 5.56157Z" fill="black" fill-opacity="0.85"/>
 </g>
</svg>
