<?xml version="1.0" encoding="UTF-8"?>
<!--Generator: Apple Native CoreSVG 326-->
<!DOCTYPE svg
PUBLIC "-//W3C//DTD SVG 1.1//EN"
       "http://www.w3.org/Graphics/SVG/1.1/DTD/svg11.dtd">
<svg version="1.1" xmlns="http://www.w3.org/2000/svg" xmlns:xlink="http://www.w3.org/1999/xlink" viewBox="0 0 69.5898 65.2539">
 <g>
  <rect height="65.2539" opacity="0" width="69.5898" x="0" y="0"/>
  <path d="M23.125 56.0156C23.125 56.9336 22.3828 57.6953 21.4453 57.6953C20.5273 57.6953 19.7656 56.9336 19.7656 56.0156C19.7656 55.0977 20.5273 54.3359 21.4453 54.3359C22.3828 54.3359 23.125 55.0977 23.125 56.0156ZM20.5664 51.3281C20.5664 52.2656 19.8047 53.0273 18.8867 53.0273C17.9492 53.0273 17.1875 52.2656 17.1875 51.3281C17.1875 50.4102 17.9492 49.6484 18.8867 49.6484C19.8047 49.6484 20.5664 50.4102 20.5664 51.3281ZM17.9688 46.6406C17.9688 47.5586 17.207 48.3203 16.2891 48.3203C15.3516 48.3203 14.5898 47.5586 14.5898 46.6406C14.5898 45.7227 15.3516 44.9609 16.2891 44.9609C17.207 44.9609 17.9688 45.7227 17.9688 46.6406ZM15.3516 41.9922C15.3516 42.9102 14.6094 43.6719 13.6719 43.6719C12.7539 43.6719 11.9922 42.9102 11.9922 41.9922C11.9922 41.0547 12.7539 40.293 13.6719 40.293C14.6094 40.293 15.3516 41.0547 15.3516 41.9922ZM12.793 37.2852C12.793 38.2031 12.0312 38.9648 11.0938 38.9648C10.1758 38.9648 9.41406 38.2031 9.41406 37.2852C9.41406 36.3672 10.1758 35.6055 11.0938 35.6055C12.0312 35.6055 12.793 36.3672 12.793 37.2852ZM10.1953 32.6172C10.1953 33.5352 9.43359 34.2969 8.51562 34.2969C7.57812 34.2969 6.81641 33.5352 6.81641 32.6172C6.81641 31.6797 7.57812 30.9375 8.51562 30.9375C9.43359 30.9375 10.1953 31.6797 10.1953 32.6172ZM12.793 27.9297C12.793 28.8672 12.0312 29.6094 11.0938 29.6094C10.1758 29.6094 9.41406 28.8672 9.41406 27.9297C9.41406 27.0117 10.1758 26.25 11.0938 26.25C12.0312 26.25 12.793 27.0117 12.793 27.9297ZM15.3516 23.2422C15.3516 24.1602 14.6094 24.9219 13.6719 24.9219C12.7539 24.9219 11.9922 24.1602 11.9922 23.2422C11.9922 22.3047 12.7539 21.5625 13.6719 21.5625C14.6094 21.5625 15.3516 22.3047 15.3516 23.2422ZM17.9688 18.5742C17.9688 19.5117 17.207 20.2539 16.2891 20.2539C15.3516 20.2539 14.5898 19.5117 14.5898 18.5742C14.5898 17.6562 15.3516 16.8945 16.2891 16.8945C17.207 16.8945 17.9688 17.6562 17.9688 18.5742ZM20.5664 13.8867C20.5664 14.8047 19.8047 15.5664 18.8867 15.5664C17.9492 15.5664 17.1875 14.8047 17.1875 13.8867C17.1875 12.9688 17.9492 12.207 18.8867 12.207C19.8047 12.207 20.5664 12.9688 20.5664 13.8867ZM23.125 9.19922C23.125 10.1367 22.3828 10.8984 21.4453 10.8984C20.5273 10.8984 19.7656 10.1367 19.7656 9.19922C19.7656 8.28125 20.5273 7.51953 21.4453 7.51953C22.3828 7.51953 23.125 8.28125 23.125 9.19922Z" fill="black" fill-opacity="0.85"/>
  <path d="M36.2059 8.11811L22.6562 31.6992C22.4609 32.0508 22.3633 32.3242 22.3633 32.6172C22.3633 32.832 22.4414 33.1445 22.6758 33.5352L36.2054 57.1127C35.6286 57.7062 35.0324 57.9688 34.2773 57.9688C33.0273 57.9688 32.207 57.2266 31.1523 55.4297L19.668 35.4688C19.043 34.375 18.7305 33.5156 18.7305 32.6172C18.7305 31.6992 19.0234 30.8398 19.668 29.7656L31.1523 9.78516C32.207 8.00781 33.0273 7.26562 34.2773 7.26562C35.0326 7.26562 35.6289 7.52833 36.2059 8.11811Z" fill="black" fill-opacity="0.85"/>
  <path d="M46.7383 57.9688C48.0078 57.9688 48.8281 57.2266 49.8633 55.4297L61.3477 35.4688C61.9922 34.375 62.2852 33.5156 62.2852 32.6172C62.2852 31.6992 61.9922 30.8398 61.3477 29.7656L49.8633 9.78516C48.8281 8.00781 48.0078 7.26562 46.7383 7.26562C45.4883 7.26562 44.668 8.00781 43.6133 9.78516L32.1289 29.7656C31.4844 30.8398 31.1914 31.6992 31.1914 32.6172C31.1914 33.5156 31.5039 34.375 32.1289 35.4688L43.6133 55.4297C44.668 57.2266 45.4883 57.9688 46.7383 57.9688ZM46.3672 53.1445L35.1367 33.5352C34.9219 33.1445 34.8242 32.8906 34.8242 32.6172C34.8242 32.3242 34.9023 32.0898 35.1367 31.6992L46.3672 12.0703C46.5234 11.7773 46.9531 11.7773 47.1289 12.0703L58.3398 31.6992C58.5742 32.0898 58.6719 32.3242 58.6719 32.6172C58.6719 32.8906 58.5742 33.1445 58.3398 33.5352L47.1289 53.1445C46.9336 53.457 46.543 53.457 46.3672 53.1445Z" fill="black" fill-opacity="0.85"/>
 </g>
</svg>
