<?xml version="1.0" encoding="UTF-8"?>
<!--Generator: Apple Native CoreSVG 326-->
<!DOCTYPE svg
PUBLIC "-//W3C//DTD SVG 1.1//EN"
       "http://www.w3.org/Graphics/SVG/1.1/DTD/svg11.dtd">
<svg version="1.1" xmlns="http://www.w3.org/2000/svg" xmlns:xlink="http://www.w3.org/1999/xlink" viewBox="0 0 49.7461 48.1055">
 <g>
  <rect height="48.1055" opacity="0" width="49.7461" x="0" y="0"/>
  <path d="M39.4141 48.0664L45.2344 48.0664C47.8516 48.0664 49.375 46.582 49.375 43.8477L49.375 38.1836C49.375 35.4492 47.8516 33.9648 45.2344 33.9648L39.4141 33.9648C36.7969 33.9648 35.2734 35.4492 35.2734 38.1836L35.2734 43.8477C35.2734 46.582 36.7969 48.0664 39.4141 48.0664ZM39.7852 45.0586C38.7695 45.0586 38.2617 44.5508 38.2617 43.4961L38.2617 38.5156C38.2617 37.4609 38.7695 36.9531 39.7852 36.9531L44.8438 36.9531C45.8594 36.9531 46.3672 37.4609 46.3672 38.5156L46.3672 43.4961C46.3672 44.5508 45.8594 45.0586 44.8438 45.0586Z" fill="black" fill-opacity="0.85"/>
  <path d="M21.7578 48.0664L27.5977 48.0664C30.2148 48.0664 31.7188 46.582 31.7188 43.8477L31.7188 38.1836C31.7188 35.4492 30.2148 33.9648 27.5977 33.9648L21.7578 33.9648C19.1406 33.9648 17.6367 35.4492 17.6367 38.1836L17.6367 43.8477C17.6367 46.582 19.1406 48.0664 21.7578 48.0664ZM22.1289 45.0586C21.1133 45.0586 20.625 44.5508 20.625 43.4961L20.625 38.5156C20.625 37.4609 21.1133 36.9531 22.1289 36.9531L27.207 36.9531C28.2227 36.9531 28.7305 37.4609 28.7305 38.5156L28.7305 43.4961C28.7305 44.5508 28.2227 45.0586 27.207 45.0586Z" fill="black" fill-opacity="0.85"/>
  <path d="M4.14062 48.0664L9.96094 48.0664C12.5781 48.0664 14.082 46.582 14.082 43.8477L14.082 38.1836C14.082 35.4492 12.5781 33.9648 9.96094 33.9648L4.14062 33.9648C1.52344 33.9648 0 35.4492 0 38.1836L0 43.8477C0 46.582 1.52344 48.0664 4.14062 48.0664ZM4.51172 45.0586C3.47656 45.0586 3.00781 44.5508 3.00781 43.4961L3.00781 38.5156C3.00781 37.4609 3.47656 36.9531 4.51172 36.9531L9.55078 36.9531C10.5859 36.9531 11.0938 37.4609 11.0938 38.5156L11.0938 43.4961C11.0938 44.5508 10.5859 45.0586 9.55078 45.0586Z" fill="black" fill-opacity="0.85"/>
  <path d="M39.4141 31.0742L45.2344 31.0742C47.8516 31.0742 49.375 29.6094 49.375 26.875L49.375 21.1914C49.375 18.457 47.8516 16.9922 45.2344 16.9922L39.4141 16.9922C36.7969 16.9922 35.2734 18.457 35.2734 21.1914L35.2734 26.875C35.2734 29.6094 36.7969 31.0742 39.4141 31.0742ZM39.7852 28.0859C38.7695 28.0859 38.2617 27.5781 38.2617 26.5234L38.2617 21.5234C38.2617 20.4883 38.7695 19.9805 39.7852 19.9805L44.8438 19.9805C45.8594 19.9805 46.3672 20.4883 46.3672 21.5234L46.3672 26.5234C46.3672 27.5781 45.8594 28.0859 44.8438 28.0859Z" fill="black" fill-opacity="0.85"/>
  <path d="M21.7578 31.1328L27.5781 31.1328C30.1953 31.1328 31.7188 29.6484 31.7188 26.9141L31.7188 21.25C31.7188 18.5156 30.1953 17.0312 27.5781 17.0312L21.7578 17.0312C19.1406 17.0312 17.6172 18.5156 17.6172 21.25L17.6172 26.9141C17.6172 29.6484 19.1406 31.1328 21.7578 31.1328Z" fill="black" fill-opacity="0.85"/>
  <path d="M4.14062 31.0742L9.96094 31.0742C12.5781 31.0742 14.082 29.6094 14.082 26.875L14.082 21.1914C14.082 18.457 12.5781 16.9922 9.96094 16.9922L4.14062 16.9922C1.52344 16.9922 0 18.457 0 21.1914L0 26.875C0 29.6094 1.52344 31.0742 4.14062 31.0742ZM4.51172 28.0859C3.47656 28.0859 3.00781 27.5781 3.00781 26.5234L3.00781 21.5234C3.00781 20.4883 3.47656 19.9805 4.51172 19.9805L9.55078 19.9805C10.5859 19.9805 11.0938 20.4883 11.0938 21.5234L11.0938 26.5234C11.0938 27.5781 10.5859 28.0859 9.55078 28.0859Z" fill="black" fill-opacity="0.85"/>
  <path d="M39.4141 14.1016L45.2344 14.1016C47.8516 14.1016 49.375 12.6172 49.375 9.88281L49.375 4.21875C49.375 1.48438 47.8516 0 45.2344 0L39.4141 0C36.7969 0 35.2734 1.48438 35.2734 4.21875L35.2734 9.88281C35.2734 12.6172 36.7969 14.1016 39.4141 14.1016ZM39.7852 11.1133C38.7695 11.1133 38.2617 10.6055 38.2617 9.53125L38.2617 4.55078C38.2617 3.51562 38.7695 3.00781 39.7852 3.00781L44.8438 3.00781C45.8594 3.00781 46.3672 3.51562 46.3672 4.55078L46.3672 9.53125C46.3672 10.6055 45.8594 11.1133 44.8438 11.1133Z" fill="black" fill-opacity="0.85"/>
  <path d="M21.7578 14.1016L27.5977 14.1016C30.2148 14.1016 31.7188 12.6172 31.7188 9.88281L31.7188 4.21875C31.7188 1.48438 30.2148 0 27.5977 0L21.7578 0C19.1406 0 17.6367 1.48438 17.6367 4.21875L17.6367 9.88281C17.6367 12.6172 19.1406 14.1016 21.7578 14.1016ZM22.1289 11.1133C21.1133 11.1133 20.625 10.6055 20.625 9.53125L20.625 4.55078C20.625 3.51562 21.1133 3.00781 22.1289 3.00781L27.207 3.00781C28.2227 3.00781 28.7305 3.51562 28.7305 4.55078L28.7305 9.53125C28.7305 10.6055 28.2227 11.1133 27.207 11.1133Z" fill="black" fill-opacity="0.85"/>
  <path d="M4.14062 14.1016L9.96094 14.1016C12.5781 14.1016 14.082 12.6172 14.082 9.88281L14.082 4.21875C14.082 1.48438 12.5781 0 9.96094 0L4.14062 0C1.52344 0 0 1.48438 0 4.21875L0 9.88281C0 12.6172 1.52344 14.1016 4.14062 14.1016ZM4.51172 11.1133C3.47656 11.1133 3.00781 10.6055 3.00781 9.53125L3.00781 4.55078C3.00781 3.51562 3.47656 3.00781 4.51172 3.00781L9.55078 3.00781C10.5859 3.00781 11.0938 3.51562 11.0938 4.55078L11.0938 9.53125C11.0938 10.6055 10.5859 11.1133 9.55078 11.1133Z" fill="black" fill-opacity="0.85"/>
 </g>
</svg>
