<?xml version="1.0" encoding="UTF-8"?>
<!--Generator: Apple Native CoreSVG 326-->
<!DOCTYPE svg
PUBLIC "-//W3C//DTD SVG 1.1//EN"
       "http://www.w3.org/Graphics/SVG/1.1/DTD/svg11.dtd">
<svg version="1.1" xmlns="http://www.w3.org/2000/svg" xmlns:xlink="http://www.w3.org/1999/xlink" viewBox="0 0 56.1377 55.7375">
 <g>
  <rect height="55.7375" opacity="0" width="56.1377" x="0" y="0"/>
  <path d="M8.38136 14.5914L8.38136 43.1129C8.38136 45.9254 9.86573 47.3707 12.5806 47.3707L41.188 47.3707L44.5732 50.7531C44.1507 50.8053 43.6989 50.8277 43.2251 50.8277L12.522 50.8277C7.48292 50.8277 4.92433 48.3082 4.92433 43.3082L4.92433 12.4488C4.92433 12.0124 4.94382 11.5947 4.98991 11.2027ZM50.8423 12.4488L50.8423 43.3082C50.8423 43.7431 50.8226 44.1596 50.7761 44.5506L47.3657 41.1402L47.3657 12.6246C47.3657 9.83164 45.8423 8.36679 43.1665 8.36679L14.5923 8.36679L11.2065 4.98105C11.6193 4.93108 12.0602 4.90976 12.522 4.90976L43.2251 4.90976C48.2837 4.90976 50.8423 7.46836 50.8423 12.4488Z" fill="black" fill-opacity="0.85"/>
  <path d="M50.1978 52.527C50.8423 53.1715 51.9165 53.1715 52.5415 52.527C53.2056 51.8629 53.2056 50.8277 52.5415 50.1637L5.56886 3.21054C4.94386 2.56601 3.86964 2.54648 3.20558 3.21054C2.56105 3.83554 2.56105 4.92929 3.20558 5.57383Z" fill="black" fill-opacity="0.85"/>
 </g>
</svg>
