<?xml version="1.0" encoding="UTF-8"?>
<!--Generator: Apple Native CoreSVG 326-->
<!DOCTYPE svg
PUBLIC "-//W3C//DTD SVG 1.1//EN"
       "http://www.w3.org/Graphics/SVG/1.1/DTD/svg11.dtd">
<svg version="1.1" xmlns="http://www.w3.org/2000/svg" xmlns:xlink="http://www.w3.org/1999/xlink" viewBox="0 0 53.9844 38.457">
 <g>
  <rect height="38.457" opacity="0" width="53.9844" x="0" y="0"/>
  <path d="M47.3633 38.457L51.543 38.457C53.0859 38.457 53.6133 37.9297 53.6133 36.3867L53.6133 32.207C53.6133 30.6641 53.0859 30.1367 51.543 30.1367L47.3633 30.1367C45.8203 30.1367 45.293 30.6641 45.293 32.207L45.293 36.3867C45.293 37.9297 45.8203 38.457 47.3633 38.457Z" fill="black" fill-opacity="0.85"/>
  <path d="M32.3047 38.457L36.4844 38.457C38.0273 38.457 38.5547 37.9297 38.5547 36.3867L38.5547 32.207C38.5547 30.6641 38.0273 30.1367 36.4844 30.1367L32.3047 30.1367C30.7617 30.1367 30.2344 30.6641 30.2344 32.207L30.2344 36.3867C30.2344 37.9297 30.7617 38.457 32.3047 38.457Z" fill="black" fill-opacity="0.85"/>
  <path d="M17.2461 38.457L21.4258 38.457C22.9688 38.457 23.4961 37.9297 23.4961 36.3867L23.4961 32.207C23.4961 30.6641 22.9688 30.1367 21.4258 30.1367L17.2461 30.1367C15.7227 30.1367 15.1758 30.6641 15.1758 32.207L15.1758 36.3867C15.1758 37.9297 15.7227 38.457 17.2461 38.457Z" fill="black" fill-opacity="0.85"/>
  <path d="M2.1875 38.457L6.38672 38.457C7.91016 38.457 8.4375 37.9297 8.4375 36.3867L8.4375 32.207C8.4375 30.6641 7.91016 30.1367 6.38672 30.1367L2.1875 30.1367C0.664062 30.1367 0.136719 30.6641 0.136719 32.207L0.136719 36.3867C0.136719 37.9297 0.664062 38.457 2.1875 38.457Z" fill="black" fill-opacity="0.85"/>
  <path d="M47.3633 23.3984L51.543 23.3984C53.0859 23.3984 53.6133 22.8711 53.6133 21.3281L53.6133 17.1484C53.6133 15.625 53.0859 15.0781 51.543 15.0781L47.3633 15.0781C45.8203 15.0781 45.293 15.625 45.293 17.1484L45.293 21.3281C45.293 22.8711 45.8203 23.3984 47.3633 23.3984Z" fill="black" fill-opacity="0.85"/>
  <path d="M32.3047 23.3984L36.4844 23.3984C38.0273 23.3984 38.5547 22.8711 38.5547 21.3281L38.5547 17.1484C38.5547 15.625 38.0273 15.0781 36.4844 15.0781L32.3047 15.0781C30.7617 15.0781 30.2344 15.625 30.2344 17.1484L30.2344 21.3281C30.2344 22.8711 30.7617 23.3984 32.3047 23.3984Z" fill="black" fill-opacity="0.85"/>
  <path d="M17.2461 23.3984L21.4258 23.3984C22.9688 23.3984 23.4961 22.8711 23.4961 21.3281L23.4961 17.1484C23.4961 15.625 22.9688 15.0781 21.4258 15.0781L17.2461 15.0781C15.7227 15.0781 15.1758 15.625 15.1758 17.1484L15.1758 21.3281C15.1758 22.8711 15.7227 23.3984 17.2461 23.3984Z" fill="black" fill-opacity="0.85"/>
  <path d="M2.1875 23.3984L6.38672 23.3984C7.91016 23.3984 8.4375 22.8711 8.4375 21.3281L8.4375 17.1484C8.4375 15.625 7.91016 15.0781 6.38672 15.0781L2.1875 15.0781C0.664062 15.0781 0.136719 15.625 0.136719 17.1484L0.136719 21.3281C0.136719 22.8711 0.664062 23.3984 2.1875 23.3984Z" fill="black" fill-opacity="0.85"/>
  <path d="M47.2266 8.33984L51.4062 8.33984C52.9492 8.33984 53.4766 7.8125 53.4766 6.28906L53.4766 2.08984C53.4766 0.566406 52.9492 0.0390625 51.4062 0.0390625L47.2266 0.0390625C45.7031 0.0390625 45.1562 0.566406 45.1562 2.08984L45.1562 6.28906C45.1562 7.8125 45.7031 8.33984 47.2266 8.33984Z" fill="black" fill-opacity="0.85"/>
  <path d="M32.168 8.33984L36.3672 8.33984C37.8906 8.33984 38.418 7.8125 38.418 6.28906L38.418 2.08984C38.418 0.566406 37.8906 0.0390625 36.3672 0.0390625L32.168 0.0390625C30.6445 0.0390625 30.1172 0.566406 30.1172 2.08984L30.1172 6.28906C30.1172 7.8125 30.6445 8.33984 32.168 8.33984Z" fill="black" fill-opacity="0.85"/>
  <path d="M17.1289 8.33984L21.3086 8.33984C22.832 8.33984 23.3789 7.8125 23.3789 6.28906L23.3789 2.08984C23.3789 0.566406 22.832 0.0390625 21.3086 0.0390625L17.1289 0.0390625C15.5859 0.0390625 15.0586 0.566406 15.0586 2.08984L15.0586 6.28906C15.0586 7.8125 15.5859 8.33984 17.1289 8.33984Z" fill="black" fill-opacity="0.85"/>
  <path d="M2.07031 8.33984L6.25 8.33984C7.79297 8.33984 8.32031 7.8125 8.32031 6.28906L8.32031 2.08984C8.32031 0.566406 7.79297 0.0390625 6.25 0.0390625L2.07031 0.0390625C0.527344 0.0390625 0 0.566406 0 2.08984L0 6.28906C0 7.8125 0.527344 8.33984 2.07031 8.33984Z" fill="black" fill-opacity="0.85"/>
 </g>
</svg>
