<?xml version="1.0" encoding="UTF-8"?>
<!--Generator: Apple Native CoreSVG 326-->
<!DOCTYPE svg
PUBLIC "-//W3C//DTD SVG 1.1//EN"
       "http://www.w3.org/Graphics/SVG/1.1/DTD/svg11.dtd">
<svg version="1.1" xmlns="http://www.w3.org/2000/svg" xmlns:xlink="http://www.w3.org/1999/xlink" viewBox="0 0 55.3906 54.7852">
 <g>
  <rect height="54.7852" opacity="0" width="55.3906" x="0" y="0"/>
  <path d="M55.0195 14.2969L55.0195 34.2188C55.0195 41.1719 51.0742 45.1953 44.0039 45.1953L26.0547 45.1953L16.9336 53.418C15.9375 54.3359 15.293 54.7852 14.4336 54.7852C13.1836 54.7852 12.4609 53.8867 12.4609 52.5195L12.4609 45.1953L11.0156 45.1953C3.92578 45.1953 0 41.2109 0 34.2188L0 14.2969C0 7.30469 3.92578 3.28125 11.0156 3.28125L44.0039 3.28125C51.0742 3.28125 55.0195 7.32422 55.0195 14.2969ZM26.5234 13.5547L24.3945 20.0977L17.3438 20.0977C16.1719 20.0977 15.7422 21.2891 16.7578 22.0117L22.4805 26.1133L20.2734 32.6758C19.8438 33.9453 20.957 34.5898 21.9336 33.8867L27.5195 29.7852L33.1055 33.8867C34.082 34.5898 35.1758 33.9453 34.7656 32.6758L32.5781 26.1133L38.2812 22.0117C39.2773 21.2891 38.8477 20.0977 37.6953 20.0977L30.6445 20.0977L28.5352 13.5547C28.1836 12.4414 26.875 12.4609 26.5234 13.5547Z" fill="black" fill-opacity="0.85"/>
 </g>
</svg>
