<?xml version="1.0" encoding="UTF-8"?>
<!--Generator: Apple Native CoreSVG 326-->
<!DOCTYPE svg
PUBLIC "-//W3C//DTD SVG 1.1//EN"
       "http://www.w3.org/Graphics/SVG/1.1/DTD/svg11.dtd">
<svg version="1.1" xmlns="http://www.w3.org/2000/svg" xmlns:xlink="http://www.w3.org/1999/xlink" viewBox="0 0 41.1133 50.6836">
 <g>
  <rect height="50.6836" opacity="0" width="41.1133" x="0" y="0"/>
  <path d="M22.3828 1.26953C25.7227 2.40234 34.1406 5.52734 37.4805 6.85547C39.707 7.77344 40.7422 8.63281 40.7422 11.2695L40.7422 30.2734C40.7422 39.0039 36.2305 42.4805 22.0312 50.1758C21.4258 50.4883 20.8203 50.6836 20.3711 50.6836C19.9219 50.6836 19.2969 50.5078 18.7109 50.1758C4.74609 42.0898 0 39.0039 0 30.2734L0 11.2695C0 8.63281 1.03516 7.73438 3.26172 6.85547C6.60156 5.54688 15.0195 2.40234 18.3594 1.26953C19.0234 1.07422 19.6875 0.898438 20.3711 0.898438C21.0547 0.898438 21.7188 1.05469 22.3828 1.26953ZM20.332 11.2109C18.5938 11.2109 18.0273 11.7578 18.0273 13.3789L18.0273 20.7422L11.7188 17.0703C10.1758 16.1719 9.45312 16.3477 8.69141 17.9102L8.59375 18.0859C7.8125 19.6094 8.00781 20.3125 9.41406 21.0742L16.0156 24.6484L9.39453 28.457C7.96875 29.2773 7.79297 29.9805 8.61328 31.4844L8.69141 31.6016C9.51172 33.125 10.2344 33.3203 11.6797 32.4414L18.0273 28.7695L18.0273 36.1133C18.0273 37.793 18.5938 38.3203 20.332 38.3203L20.5078 38.3203C22.207 38.3203 22.7539 37.793 22.7539 36.1133L22.7539 28.7695L29.1211 32.4414C30.6055 33.3594 31.3281 33.1445 32.1094 31.6016L32.168 31.4844C32.9297 29.9609 32.7539 29.2578 31.4062 28.457L24.7852 24.6484L31.3672 21.0742C32.7734 20.3125 32.9688 19.5898 32.207 18.0859L32.1094 17.9102C31.3477 16.3477 30.625 16.1523 29.082 17.0703L22.7539 20.7422L22.7539 13.3789C22.7539 11.7578 22.207 11.2109 20.5078 11.2109Z" fill="black" fill-opacity="0.85"/>
 </g>
</svg>
