<?xml version="1.0" encoding="UTF-8"?>
<!--Generator: Apple Native CoreSVG 326-->
<!DOCTYPE svg
PUBLIC "-//W3C//DTD SVG 1.1//EN"
       "http://www.w3.org/Graphics/SVG/1.1/DTD/svg11.dtd">
<svg version="1.1" xmlns="http://www.w3.org/2000/svg" xmlns:xlink="http://www.w3.org/1999/xlink" viewBox="0 0 51.25 50.918">
 <g>
  <rect height="50.918" opacity="0" width="51.25" x="0" y="0"/>
  <path d="M50.8789 25.4688C50.8789 39.4922 39.4531 50.918 25.4297 50.918C11.4258 50.918 0 39.4922 0 25.4688C0 11.4648 11.4258 0.0390625 25.4297 0.0390625C39.4531 0.0390625 50.8789 11.4648 50.8789 25.4688ZM25.3711 11.9141C23.6328 11.9141 23.0859 12.4414 23.0859 14.082L23.0859 21.4453L16.7578 17.7539C15.2148 16.875 14.4922 17.0508 13.7305 18.6133L13.6328 18.7891C12.8711 20.3125 13.0469 21.0156 14.4727 21.7773L21.0547 25.332L14.4336 29.1602C13.0273 29.9805 12.832 30.6836 13.6719 32.1875L13.7305 32.3047C14.5508 33.8281 15.2734 34.0234 16.7188 33.1445L23.0859 29.4727L23.0859 36.8164C23.0859 38.4961 23.6328 39.0234 25.3711 39.0234L25.5469 39.0234C27.2461 39.0234 27.793 38.4961 27.793 36.8164L27.793 29.4727L34.1602 33.1445C35.6641 34.0625 36.3672 33.8477 37.1484 32.3047L37.2266 32.1875C37.9883 30.6641 37.8125 29.9609 36.4453 29.1602L29.8242 25.332L36.4062 21.7773C37.832 21.0156 38.0273 20.293 37.2461 18.7891L37.1484 18.6133C36.4062 17.0508 35.6836 16.8555 34.1211 17.7539L27.793 21.4453L27.793 14.082C27.793 12.4414 27.2461 11.9141 25.5469 11.9141Z" fill="black" fill-opacity="0.85"/>
 </g>
</svg>
