<?xml version="1.0" encoding="UTF-8"?>
<!--Generator: Apple Native CoreSVG 326-->
<!DOCTYPE svg
PUBLIC "-//W3C//DTD SVG 1.1//EN"
       "http://www.w3.org/Graphics/SVG/1.1/DTD/svg11.dtd">
<svg version="1.1" xmlns="http://www.w3.org/2000/svg" xmlns:xlink="http://www.w3.org/1999/xlink" viewBox="0 0 58.5938 58.0273">
 <g>
  <rect height="58.0273" opacity="0" width="58.5938" x="0" y="0"/>
  <path d="M43.2617 10.6836L43.2617 11.2891L22.5781 11.2891C15.8008 11.2891 11.8555 15.1953 11.8555 21.9336L11.8555 43.6914L10.3516 43.6914C5.29297 43.6914 2.73438 41.1523 2.73438 36.1523L2.73438 10.6836C2.73438 5.70312 5.29297 3.16406 10.3516 3.16406L35.6641 3.16406C40.6836 3.16406 43.2617 5.72266 43.2617 10.6836Z" fill="black" fill-opacity="0.85"/>
  <path d="M55.4883 21.9336L55.4883 47.3828C55.4883 52.3633 52.9102 54.9219 47.8711 54.9219L22.5781 54.9219C17.5195 54.9219 14.9609 52.3828 14.9609 47.3828L14.9609 21.9336C14.9609 16.9336 17.5195 14.3945 22.5781 14.3945L47.8711 14.3945C52.9102 14.3945 55.4883 16.9531 55.4883 21.9336ZM34.1211 23.1641L31.8164 30.4102L24.2383 30.3711C22.8711 30.3516 22.5195 31.7969 23.5352 32.5391L29.707 36.9336L27.3047 44.1602C26.875 45.4297 28.0273 46.2695 29.1016 45.4492L35.2344 40.9766L41.3477 45.4492C42.4414 46.2695 43.5938 45.4297 43.1641 44.1602L40.7617 36.9336L46.9336 32.5195C47.8906 31.8359 47.6172 30.3516 46.2305 30.3711L38.6328 30.4102L36.3281 23.1641C35.9375 21.9336 34.5117 21.9336 34.1211 23.1641Z" fill="black" fill-opacity="0.85"/>
 </g>
</svg>
