<?xml version="1.0" encoding="UTF-8"?>
<!--Generator: Apple Native CoreSVG 326-->
<!DOCTYPE svg
PUBLIC "-//W3C//DTD SVG 1.1//EN"
       "http://www.w3.org/Graphics/SVG/1.1/DTD/svg11.dtd">
<svg version="1.1" xmlns="http://www.w3.org/2000/svg" xmlns:xlink="http://www.w3.org/1999/xlink" viewBox="0 0 64.3164 66.8945">
 <g>
  <rect height="66.8945" opacity="0" width="64.3164" x="0" y="0"/>
  <path d="M36.8443 8.46703C37.0169 10.0317 37.5686 11.4006 38.1414 12.5572C36.1798 11.958 34.0936 11.6406 31.9336 11.6406C24.0234 11.6406 17.0898 15.918 13.457 22.2656C12.5977 23.4766 13.0469 24.8438 14.4922 24.8438L36.799 24.8438C37.0136 28.8927 39.4209 32.0312 42.7148 32.0312C44.2969 32.0312 45.7031 31.3086 46.7188 30.0391C47.5781 31.3477 48.8867 32.0312 50.4492 32.0312C52.0312 32.0312 53.5547 31.2305 54.4141 30.0391C55.1494 31.1012 56.1308 31.7805 57.3478 31.9722C57.4077 32.4515 57.4219 32.9429 57.4219 33.4375C57.4219 47.4805 46.0156 58.8672 31.9727 58.8672C17.9297 58.8672 6.54297 47.4805 6.54297 33.4375C6.54297 19.3945 17.9297 7.98828 31.9727 7.98828C33.6398 7.98828 35.2699 8.14905 36.8443 8.46703ZM10.8789 38.9453C12.5586 45.4688 17.207 50.8398 23.4766 53.4961C24.6875 54.0625 25.5859 53.3203 25.6055 52.1289C26.0352 44.3945 20.0586 37.6953 12.4414 37.0312C11.2305 36.8945 10.5078 37.5781 10.8789 38.9453ZM51.4844 37.0312C43.8086 37.6953 37.8906 44.4336 38.3203 52.1289C38.3398 53.3203 39.2188 54.0625 40.4492 53.4961C46.6992 50.8398 51.3672 45.4688 53.0273 38.9453C53.418 37.5781 52.6758 36.8945 51.4844 37.0312ZM26.4453 34.9609C26.4453 38.0273 28.9062 40.4688 31.9531 40.4688C35 40.4688 37.4609 38.0273 37.4609 34.9609C37.4609 31.9141 35 29.4727 31.9531 29.4727C28.9062 29.4727 26.4453 31.9141 26.4453 34.9609Z" fill="black" fill-opacity="0.85"/>
  <path d="M45.5859 16.0547C45.5859 12.8516 42.6172 10.9961 42.6172 8.59375C42.6172 7.32422 42.9688 6.60156 43.8281 5.42969C44.8828 4.02344 42.9102 2.57812 41.8359 3.96484C40.6445 5.46875 40.1562 6.79688 40.1562 8.45703C40.1562 11.7969 43.0664 13.6523 43.0664 16.0547C43.0664 18.3984 40.1562 20.3125 40.1562 23.5938C40.1562 25.3125 40.6445 26.6406 41.7969 28.1055C42.8711 29.4531 44.8438 28.0273 43.7891 26.6211C42.9688 25.5078 42.6172 24.7656 42.6172 23.457C42.6172 21.1133 45.5859 19.2773 45.5859 16.0547ZM53.2617 16.0547C53.2617 12.8516 50.3125 10.9961 50.3125 8.59375C50.3125 7.32422 50.6445 6.60156 51.5039 5.42969C52.5781 4.02344 50.6055 2.57812 49.5117 3.96484C48.3203 5.46875 47.832 6.79688 47.832 8.45703C47.832 11.7969 50.7617 13.6523 50.7617 16.0547C50.7617 18.3984 47.832 20.3125 47.832 23.5938C47.832 25.3125 48.3203 26.6406 49.4922 28.1055C50.5469 29.4531 52.5391 28.0273 51.4648 26.6211C50.6445 25.5078 50.3125 24.7656 50.3125 23.457C50.3125 21.1133 53.2617 19.2773 53.2617 16.0547ZM60.957 16.0547C60.957 12.8516 57.9883 10.9961 57.9883 8.59375C57.9883 7.32422 58.3398 6.60156 59.1992 5.42969C60.2539 4.02344 58.2812 2.57812 57.1875 3.96484C56.0156 5.46875 55.5078 6.79688 55.5078 8.45703C55.5078 11.7969 58.4375 13.6523 58.4375 16.0547C58.4375 18.3984 55.5078 20.3125 55.5078 23.5938C55.5078 25.3125 56.0156 26.6406 57.168 28.1055C58.2422 29.4531 60.2148 28.0273 59.1602 26.6211C58.3398 25.5078 57.9883 24.7656 57.9883 23.457C57.9883 21.1133 60.957 19.2773 60.957 16.0547Z" fill="black" fill-opacity="0.85"/>
 </g>
</svg>
