<?xml version="1.0" encoding="UTF-8"?>
<!--Generator: Apple Native CoreSVG 326-->
<!DOCTYPE svg
PUBLIC "-//W3C//DTD SVG 1.1//EN"
       "http://www.w3.org/Graphics/SVG/1.1/DTD/svg11.dtd">
<svg version="1.1" xmlns="http://www.w3.org/2000/svg" xmlns:xlink="http://www.w3.org/1999/xlink" viewBox="0 0 52.8516 61.8164">
 <g>
  <rect height="61.8164" opacity="0" width="52.8516" x="0" y="0"/>
  <path d="M26.2305 61.7969C32.9297 61.7969 34.0039 56.6797 38.2031 56.6797C42.5 56.6797 43.1641 61.7969 50.8203 61.7969L50.9375 61.7969C51.7969 61.7969 52.4805 61.1133 52.4805 60.2539C52.4805 59.4141 51.7969 58.7305 50.9375 58.7305L50.8203 58.7305C48.0273 58.7305 46.4453 57.5586 44.5312 56.2109C42.8906 55.0195 40.918 53.6133 38.2031 53.6133C35.3906 53.6133 33.3984 55.0977 31.7578 56.3281C30.0195 57.6562 28.5742 58.7305 26.2305 58.7305C23.8867 58.7305 22.4609 57.6562 20.7227 56.3281C19.082 55.0977 17.0703 53.6133 14.2773 53.6133C11.543 53.6133 9.57031 55.0195 7.92969 56.2109C6.03516 57.5586 4.45312 58.7305 1.66016 58.7305L1.52344 58.7305C0.683594 58.7305 0 59.4141 0 60.2539C0 61.1133 0.683594 61.7969 1.52344 61.7969L1.66016 61.7969C9.29688 61.7969 9.98047 56.6797 14.2773 56.6797C18.4766 56.6797 19.5508 61.7969 26.2305 61.7969Z" fill="black" fill-opacity="0.85"/>
  <path d="M26.2305 49.2773C39.8242 49.2773 50.8594 38.2422 50.8594 24.6289C50.8594 11.0352 39.8242 0 26.2305 0C12.6172 0 1.60156 11.0352 1.60156 24.6289C1.60156 38.2422 12.6172 49.2773 26.2305 49.2773ZM8.20312 13.8477C11.7188 7.67578 18.4766 3.47656 26.1914 3.47656C33.9062 3.47656 40.6445 7.67578 44.1992 13.8281C45 15.0195 44.5898 16.3281 43.1836 16.3281L9.19922 16.3281C7.83203 16.3281 7.40234 15.0195 8.20312 13.8477ZM26.1914 31.4648C23.2422 31.4648 20.8789 29.1016 20.8789 26.1328C20.8789 23.1836 23.2422 20.8203 26.1914 20.8203C29.1602 20.8203 31.5234 23.1836 31.5234 26.1328C31.5234 29.1016 29.1602 31.4648 26.1914 31.4648ZM5.76172 29.9609C5.39062 28.6523 6.09375 28.0078 7.24609 28.125C14.668 28.75 20.4883 35.2734 20.0391 42.8125C20.0195 43.9453 19.1797 44.6484 17.9883 44.1016C11.9141 41.543 7.38281 36.3281 5.76172 29.9609ZM46.6602 29.9609C45.0391 36.3281 40.5078 41.543 34.4336 44.1016C33.2422 44.6484 32.4023 43.9453 32.3633 42.8125C31.9531 35.3125 37.7148 28.75 45.1758 28.125C46.3281 28.0078 47.0312 28.6523 46.6602 29.9609Z" fill="black" fill-opacity="0.85"/>
 </g>
</svg>
