<?xml version="1.0" encoding="UTF-8"?>
<!--Generator: Apple Native CoreSVG 326-->
<!DOCTYPE svg
PUBLIC "-//W3C//DTD SVG 1.1//EN"
       "http://www.w3.org/Graphics/SVG/1.1/DTD/svg11.dtd">
<svg version="1.1" xmlns="http://www.w3.org/2000/svg" xmlns:xlink="http://www.w3.org/1999/xlink" viewBox="0 0 51.25 50.918">
 <g>
  <rect height="50.918" opacity="0" width="51.25" x="0" y="0"/>
  <path d="M50.8789 25.4492C50.8789 39.4531 39.4531 50.8789 25.4297 50.8789C11.4258 50.8789 0 39.4531 0 25.4492C0 11.4258 11.4258 0 25.4297 0C39.4531 0 50.8789 11.4258 50.8789 25.4492ZM10.0586 25.4492C10.0586 33.9453 16.9336 40.8203 25.4297 40.8203C33.9258 40.8203 40.8203 33.9453 40.8203 25.4492C40.8203 16.9336 33.9258 10.0586 25.4297 10.0586C16.9336 10.0586 10.0586 16.9336 10.0586 25.4492ZM14.2188 27.5C18.6328 27.8711 22.0312 31.6992 21.7969 36.1328C21.7773 36.8359 21.25 37.2461 20.5469 36.9336C16.9727 35.3906 14.3164 32.3438 13.3594 28.6133C13.1445 27.8125 13.5547 27.4219 14.2188 27.5ZM37.4805 28.6133C36.5234 32.3438 33.8672 35.3906 30.293 36.9336C29.5898 37.2461 29.0625 36.8359 29.0625 36.1328C28.8281 31.7383 32.207 27.8711 36.6016 27.5C37.2852 27.4219 37.6953 27.8125 37.4805 28.6133ZM28.6133 26.3086C28.6133 28.0664 27.1875 29.4727 25.4297 29.4727C23.6914 29.4727 22.2852 28.0664 22.2852 26.3086C22.2852 24.5312 23.6914 23.1445 25.4297 23.1445C27.1875 23.1445 28.6133 24.5312 28.6133 26.3086ZM35.9961 19.0039C36.4648 19.707 36.2305 20.5078 35.4102 20.5078L15.4297 20.5078C14.6094 20.5078 14.375 19.707 14.8242 19.0039C16.9531 15.4102 20.8789 12.9492 25.4102 12.9492C29.9414 12.9492 33.8867 15.4102 35.9961 19.0039Z" fill="black" fill-opacity="0.85"/>
 </g>
</svg>
