<?xml version="1.0" encoding="UTF-8"?>
<!--Generator: Apple Native CoreSVG 326-->
<!DOCTYPE svg
PUBLIC "-//W3C//DTD SVG 1.1//EN"
       "http://www.w3.org/Graphics/SVG/1.1/DTD/svg11.dtd">
<svg version="1.1" xmlns="http://www.w3.org/2000/svg" xmlns:xlink="http://www.w3.org/1999/xlink" viewBox="0 0 51.25 50.918">
 <g>
  <rect height="50.918" opacity="0" width="51.25" x="0" y="0"/>
  <path d="M25.4297 50.8789C39.4727 50.8789 50.8789 39.4922 50.8789 25.4492C50.8789 11.4062 39.4727 0 25.4297 0C11.3867 0 0 11.4062 0 25.4492C0 39.4922 11.3867 50.8789 25.4297 50.8789ZM25.4297 47.2461C13.3789 47.2461 3.63281 37.5 3.63281 25.4492C3.63281 13.3984 13.3789 3.65234 25.4297 3.65234C37.4805 3.65234 47.2266 13.3984 47.2266 25.4492C47.2266 37.5 37.4805 47.2461 25.4297 47.2461Z" fill="black" fill-opacity="0.85"/>
  <path d="M25.4102 40.4492C33.6914 40.4492 40.4297 33.7305 40.4297 25.4492C40.4297 17.168 33.6914 10.4297 25.4102 10.4297C17.1289 10.4297 10.4102 17.168 10.4102 25.4492C10.4102 33.7305 17.1289 40.4492 25.4102 40.4492ZM15.0391 19.1797C17.1094 15.6445 20.957 13.2422 25.3906 13.2422C29.8242 13.2422 33.6914 15.6445 35.7422 19.1797C36.2109 19.8633 35.9766 20.625 35.1758 20.625L15.625 20.625C14.8242 20.625 14.5898 19.8633 15.0391 19.1797ZM25.4102 29.375C23.7109 29.375 22.3438 28.0078 22.3438 26.2891C22.3438 24.5703 23.7109 23.2031 25.4102 23.2031C27.1289 23.2031 28.5156 24.5703 28.5156 26.2891C28.5156 28.0078 27.1289 29.375 25.4102 29.375ZM13.6133 28.5352C13.3984 27.7539 13.8086 27.3828 14.4531 27.4609C18.7695 27.8125 22.0898 31.5625 21.8555 35.8984C21.8359 36.5625 21.3281 36.9727 20.6445 36.6797C17.1484 35.1758 14.5508 32.1875 13.6133 28.5352ZM37.1875 28.5352C36.25 32.1875 33.6523 35.1758 30.1562 36.6797C29.4727 36.9727 28.9648 36.5625 28.9648 35.8984C28.7305 31.6016 32.0312 27.8125 36.3281 27.4609C36.9922 27.3828 37.4023 27.7539 37.1875 28.5352Z" fill="black" fill-opacity="0.85"/>
 </g>
</svg>
