<?xml version="1.0" encoding="UTF-8"?>
<!--Generator: Apple Native CoreSVG 326-->
<!DOCTYPE svg
PUBLIC "-//W3C//DTD SVG 1.1//EN"
       "http://www.w3.org/Graphics/SVG/1.1/DTD/svg11.dtd">
<svg version="1.1" xmlns="http://www.w3.org/2000/svg" xmlns:xlink="http://www.w3.org/1999/xlink" viewBox="0 0 60.4102 50.0586">
 <g>
  <rect height="50.0586" opacity="0" width="60.4102" x="0" y="0"/>
  <path d="M60.0391 30.0195C60.0391 22.6562 57.3828 15.918 52.9688 10.6836C52.4609 10.0781 51.6016 10.0977 51.0352 10.6641L45.3906 16.3086C44.9023 16.7969 44.8828 17.4805 45.3125 18.0273C47.9102 21.3477 49.4531 25.4883 49.4531 30.0195C49.4531 34.5508 47.9102 38.7109 45.1953 42.1484C44.8242 42.6172 44.8438 43.2031 45.2539 43.6133L51.0352 49.4141C51.6016 50 52.4414 49.9805 52.9688 49.375C57.3828 44.1406 60.0391 37.3633 60.0391 30.0195Z" fill="black" fill-opacity="0.85"/>
  <path d="M30.0195 10.5664C34.5508 10.5664 38.7305 12.1289 42.0508 14.7656C42.5781 15.1562 43.2227 15.1172 43.7109 14.6289L49.375 8.96484C49.9609 8.39844 49.9414 7.55859 49.3359 7.03125C44.1211 2.65625 37.3633 0 30.0195 0C22.6758 0 15.918 2.65625 10.7031 7.03125C10.0977 7.55859 10.0781 8.39844 10.6445 8.96484L16.3281 14.6289C16.7969 15.1172 17.5 15.1367 18.0469 14.707C21.3477 12.1289 25.5078 10.5664 30.0195 10.5664Z" fill="black" fill-opacity="0.85"/>
  <path d="M0 30.0195C0 37.3633 2.65625 44.1406 7.07031 49.375C7.57812 49.9805 8.4375 50 9.00391 49.4141L14.7852 43.6133C15.1758 43.2031 15.2148 42.6172 14.8438 42.1484C12.1289 38.7109 10.5664 34.5508 10.5664 30.0195C10.5664 25.4883 12.1094 21.3477 14.7266 18.0273C15.1367 17.4805 15.1367 16.7969 14.6484 16.3086L8.98438 10.6641C8.41797 10.0977 7.57812 10.0781 7.05078 10.6836C2.63672 15.918 0 22.6562 0 30.0195Z" fill="black" fill-opacity="0.85"/>
  <path d="M21.9922 41.2695L36.9336 41.2695C37.5977 41.2695 38.125 40.8203 38.125 40.1758C38.125 39.5312 37.5977 39.0625 36.9336 39.0625L25.0391 39.0625L25.0391 38.9453C27.0898 38.2617 28.0859 35.8789 28.0859 33.6914C28.0859 32.7344 27.9883 31.9336 27.793 31.2109L34.375 31.2109C34.9609 31.2109 35.3711 30.8203 35.3711 30.293C35.3711 29.7852 34.9414 29.3945 34.375 29.3945L27.2852 29.3945C26.9336 27.9883 26.7969 27.1484 26.7969 26.0938C26.7969 23.2422 28.9062 21.4453 32.2656 21.4453C33.418 21.4453 34.2578 21.6016 35 21.8164C35.4102 21.9141 35.7812 22.0117 36.0742 22.0117C36.7188 22.0117 37.0703 21.6602 37.0703 21.0352C37.0703 20.4492 36.6602 20.0977 36.0547 19.8633C34.7461 19.3555 33.6523 19.1992 32.0117 19.1992C27.2852 19.1992 24.1016 21.7969 24.1016 26.1719C24.1016 27.2266 24.2773 28.2031 24.6289 29.3945L21.9141 29.3945C21.3477 29.3945 20.918 29.7852 20.918 30.293C20.918 30.8203 21.3477 31.2109 21.9141 31.2109L25.1367 31.2109C25.3711 32.1094 25.5273 32.9688 25.5273 33.7891C25.5273 36.25 24.1992 38.0664 21.875 38.8477C21.25 39.0625 20.8398 39.4922 20.8398 40.1367C20.8398 40.8008 21.3086 41.2695 21.9922 41.2695Z" fill="black" fill-opacity="0.85"/>
 </g>
</svg>
