<?xml version="1.0" encoding="UTF-8"?>
<!--Generator: Apple Native CoreSVG 326-->
<!DOCTYPE svg
PUBLIC "-//W3C//DTD SVG 1.1//EN"
       "http://www.w3.org/Graphics/SVG/1.1/DTD/svg11.dtd">
<svg version="1.1" xmlns="http://www.w3.org/2000/svg" xmlns:xlink="http://www.w3.org/1999/xlink" viewBox="0 0 56.2305 55.8789">
 <g>
  <rect height="55.8789" opacity="0" width="56.2305" x="0" y="0"/>
  <path d="M27.9297 55.8594C43.2812 55.8594 55.8594 43.3008 55.8594 27.9297C55.8594 12.5586 43.2812 0 27.9297 0C12.5781 0 0 12.5586 0 27.9297C0 43.3008 12.5781 55.8594 27.9297 55.8594ZM27.9297 46.6797C17.5586 46.6797 9.16016 38.3008 9.16016 27.9297C9.16016 17.5586 17.5586 9.16016 27.9297 9.16016C38.3008 9.16016 46.6992 17.5586 46.6992 27.9297C46.6992 38.3008 38.3008 46.6797 27.9297 46.6797Z" fill="black" fill-opacity="0.85"/>
  <path d="M19.9219 38.8672L34.8633 38.8672C35.5469 38.8672 36.0742 38.418 36.0742 37.7539C36.0742 37.1289 35.5469 36.6406 34.8633 36.6406L22.9883 36.6406L22.9883 36.5234C25.0195 35.8398 26.0156 33.457 26.0156 31.2695C26.0156 30.332 25.918 29.5117 25.7227 28.8086L32.3242 28.8086C32.8906 28.8086 33.3008 28.3984 33.3008 27.8906C33.3008 27.3633 32.8711 26.9727 32.3242 26.9727L25.2148 26.9727C24.8633 25.5859 24.7266 24.7266 24.7266 23.6914C24.7266 20.8203 26.8359 19.043 30.1953 19.043C31.3672 19.043 32.1875 19.1797 32.9297 19.3945C33.3398 19.5117 33.7305 19.5898 34.0234 19.5898C34.6484 19.5898 35 19.2383 35 18.6328C35 18.0273 34.5898 17.6758 33.9844 17.4414C32.6758 16.9336 31.582 16.7773 29.9414 16.7773C25.2148 16.7773 22.0508 19.375 22.0508 23.75C22.0508 24.8047 22.207 25.8008 22.5781 26.9727L19.8438 26.9727C19.2773 26.9727 18.8477 27.3828 18.8477 27.8906C18.8477 28.3984 19.2773 28.8086 19.8438 28.8086L23.0664 28.8086C23.3008 29.707 23.457 30.5469 23.457 31.3867C23.457 33.8281 22.1289 35.6641 19.8047 36.4258C19.1992 36.6406 18.7695 37.0703 18.7695 37.7148C18.7695 38.3789 19.2578 38.8672 19.9219 38.8672Z" fill="black" fill-opacity="0.85"/>
 </g>
</svg>
