<?xml version="1.0" encoding="UTF-8"?>
<!--Generator: Apple Native CoreSVG 326-->
<!DOCTYPE svg
PUBLIC "-//W3C//DTD SVG 1.1//EN"
       "http://www.w3.org/Graphics/SVG/1.1/DTD/svg11.dtd">
<svg version="1.1" xmlns="http://www.w3.org/2000/svg" xmlns:xlink="http://www.w3.org/1999/xlink" viewBox="0 0 68.8086 54.1211">
 <g>
  <rect height="54.1211" opacity="0" width="68.8086" x="0" y="0"/>
  <path d="M10.6055 4.00391C10.6055 4.65467 10.7875 5.26396 11.1059 5.78125L9.96094 5.78125C7.26562 5.78125 5.99609 7.44141 5.99609 10.3906C5.99609 18.8477 13.6719 32.2656 20.8594 32.2656C28.0469 32.2656 35.7227 18.8477 35.7227 10.3906C35.7227 7.44141 34.4531 5.78125 31.7578 5.78125L30.5738 5.78125C30.8922 5.26396 31.0742 4.65467 31.0742 4.00391C31.0742 3.38652 30.9069 2.80514 30.613 2.30469L31.4453 2.30469C36.582 2.30469 39.1797 5.01953 39.1797 10.4492C39.1797 20.3018 30.7434 34.3459 22.56 35.5962C22.7721 45.3236 25.8145 50.6641 31.2305 50.6641C37.6562 50.6641 39.707 45.1562 41.4453 35.1562C43.3008 24.6875 46.4062 20.5469 52.3633 20.5469C58.4444 20.5469 61.5154 25.4517 62.4141 35.4249C61.9306 35.3263 61.4299 35.2757 60.918 35.2734C60.2527 35.2705 59.6069 35.3501 58.9936 35.5117C58.4231 27.7586 56.3052 24.0234 52.3633 24.0234C48.5352 24.0234 46.2891 27.0508 44.8242 35.9766C42.8516 48.3398 39.0625 54.1211 31.4258 54.1211C23.7756 54.1211 19.359 47.7272 19.1075 35.5928C10.9341 34.3096 2.51953 20.2891 2.51953 10.4492C2.51953 5.01953 5.11719 2.30469 10.2734 2.30469L11.0667 2.30469C10.7728 2.80514 10.6055 3.38652 10.6055 4.00391Z" fill="black" fill-opacity="0.85"/>
  <path d="M14.0234 7.44141C15.8984 7.44141 17.4414 5.89844 17.4414 4.00391C17.4414 2.12891 15.8984 0.585938 14.0234 0.585938C12.1484 0.585938 10.6055 2.12891 10.6055 4.00391C10.6055 5.89844 12.1484 7.44141 14.0234 7.44141ZM27.6562 7.44141C29.5312 7.44141 31.0742 5.89844 31.0742 4.00391C31.0742 2.12891 29.5312 0.585938 27.6562 0.585938C25.7812 0.585938 24.2383 2.12891 24.2383 4.00391C24.2383 5.89844 25.7812 7.44141 27.6562 7.44141ZM60.918 51.0742C65.2734 51.0742 68.8086 47.5586 68.8086 43.1445C68.8086 38.8086 65.2734 35.293 60.918 35.2734C56.543 35.2539 53.0078 38.8086 53.0078 43.1445C53.0078 47.5586 56.543 51.0742 60.918 51.0742ZM60.918 48.0078C58.2227 48.0078 56.0547 45.8398 56.0547 43.1445C56.0547 40.4688 58.2227 38.3203 60.918 38.3203C63.5938 38.3203 65.7617 40.4688 65.7617 43.1445C65.7617 45.8398 63.5938 48.0078 60.918 48.0078Z" fill="black" fill-opacity="0.85"/>
 </g>
</svg>
