<?xml version="1.0" encoding="UTF-8"?>
<!--Generator: Apple Native CoreSVG 326-->
<!DOCTYPE svg
PUBLIC "-//W3C//DTD SVG 1.1//EN"
       "http://www.w3.org/Graphics/SVG/1.1/DTD/svg11.dtd">
<svg version="1.1" xmlns="http://www.w3.org/2000/svg" xmlns:xlink="http://www.w3.org/1999/xlink" viewBox="0 0 51.25 61.4258">
 <g>
  <rect height="61.4258" opacity="0" width="51.25" x="0" y="0"/>
  <path d="M25.4297 56.1328C39.3555 56.1328 50.8789 44.6094 50.8789 30.7031C50.8789 16.7773 39.3359 5.25391 25.4102 5.25391C11.5039 5.25391 0 16.7773 0 30.7031C0 44.6094 11.5234 56.1328 25.4297 56.1328ZM25.4297 52.5C13.3594 52.5 3.65234 42.7734 3.65234 30.7031C3.65234 18.6133 13.3398 8.90625 25.4102 8.90625C37.5 8.90625 47.207 18.6133 47.2266 30.7031C47.2461 42.7734 37.5195 52.5 25.4297 52.5ZM23.0664 6.73828L27.7734 6.73828L27.7734 2.42188C27.7734 1.09375 26.7383 0 25.4102 0C24.1211 0 23.0664 1.09375 23.0664 2.42188ZM41.2305 12.4023L44.4922 15.7617L47.6172 12.5977C48.125 12.0898 48.418 11.4258 48.418 10.8203C48.418 9.58984 47.4219 8.59375 46.1328 8.59375C45.4102 8.59375 44.8633 8.80859 44.3359 9.31641Z" fill="black" fill-opacity="0.85"/>
  <path d="M25.4297 34.4727C27.5 34.4727 29.1406 32.793 29.1406 30.7227C29.1406 29.2578 28.3203 28.0078 26.9336 27.3438L26.9336 14.1016C26.9336 13.2617 26.2695 12.6172 25.4102 12.6172C24.5898 12.6172 23.9062 13.2617 23.9062 14.1016L23.9062 27.3242C22.5586 28.0078 21.6992 29.2578 21.6992 30.7227C21.6992 32.793 23.3398 34.4727 25.4297 34.4727Z" fill="black" fill-opacity="0.85"/>
 </g>
</svg>
