<?xml version="1.0" encoding="UTF-8"?>
<!--Generator: Apple Native CoreSVG 326-->
<!DOCTYPE svg
PUBLIC "-//W3C//DTD SVG 1.1//EN"
       "http://www.w3.org/Graphics/SVG/1.1/DTD/svg11.dtd">
<svg version="1.1" xmlns="http://www.w3.org/2000/svg" xmlns:xlink="http://www.w3.org/1999/xlink" viewBox="0 0 48.5742 48.1445">
 <g>
  <rect height="48.1445" opacity="0" width="48.5742" x="0" y="0"/>
  <path d="M5.58594 43.7305L42.6172 43.7305C45.9766 43.7305 48.2031 41.4648 48.2031 38.0664L48.2031 5.68359C48.2031 2.28516 45.9766 0 42.6172 0L5.58594 0C2.22656 0 0 2.28516 0 5.68359L0 38.0664C0 41.4648 2.22656 43.7305 5.58594 43.7305ZM5.60547 40.2734C4.31641 40.2734 3.45703 39.3359 3.45703 37.9297L3.45703 5.80078C3.45703 4.39453 4.31641 3.47656 5.60547 3.47656L42.5977 3.47656C43.8867 3.47656 44.7461 4.39453 44.7461 5.80078L44.7461 37.9297C44.7461 39.3359 43.8867 40.2734 42.5977 40.2734ZM10.9961 10.6445C12.3438 10.6445 13.4375 9.57031 13.4375 8.24219C13.4375 6.875 12.3438 5.82031 10.9961 5.82031C9.64844 5.82031 8.57422 6.875 8.57422 8.24219C8.57422 9.57031 9.64844 10.6445 10.9961 10.6445ZM19.707 10.6445C21.0547 10.6445 22.1484 9.57031 22.1484 8.24219C22.1484 6.875 21.0547 5.82031 19.707 5.82031C18.3594 5.82031 17.2852 6.875 17.2852 8.24219C17.2852 9.57031 18.3594 10.6445 19.707 10.6445ZM28.418 10.6445C29.7461 10.6445 30.8398 9.57031 30.8398 8.24219C30.8398 6.875 29.7461 5.82031 28.418 5.82031C27.0703 5.82031 25.9766 6.875 25.9766 8.24219C25.9766 9.57031 27.0703 10.6445 28.418 10.6445ZM37.1289 10.6445C38.457 10.6445 39.5508 9.57031 39.5508 8.24219C39.5508 6.875 38.457 5.82031 37.1289 5.82031C35.7812 5.82031 34.6875 6.875 34.6875 8.24219C34.6875 9.57031 35.7812 10.6445 37.1289 10.6445ZM2.10938 15.8398L46.1133 15.8398L46.1133 12.9688L2.10938 12.9688ZM9.35547 37.1094L38.8477 37.1094C40.332 37.1094 41.2695 36.1523 41.2695 34.6875L41.2695 21.4258C41.2695 19.9609 40.332 19.0039 38.8477 19.0039L9.35547 19.0039C7.89062 19.0039 6.95312 19.9609 6.95312 21.4258L6.95312 34.6875C6.95312 36.1523 7.89062 37.1094 9.35547 37.1094ZM10.2344 34.6289C9.76562 34.6289 9.41406 34.2969 9.41406 33.8086L9.41406 22.3047C9.41406 21.8164 9.76562 21.4844 10.2344 21.4844L37.9883 21.4844C38.457 21.4844 38.7891 21.8164 38.7891 22.3047L38.7891 33.8086C38.7891 34.2969 38.457 34.6289 37.9883 34.6289ZM6.71875 48.1055C7.75391 48.1055 8.45703 47.4023 8.45703 46.3867L8.45703 41.6016L5 41.6016L5 46.3867C5 47.4023 5.70312 48.1055 6.71875 48.1055ZM41.4844 48.1055C42.5 48.1055 43.2031 47.4023 43.2031 46.3867L43.2031 41.6016L39.7461 41.6016L39.7461 46.3867C39.7461 47.4023 40.4492 48.1055 41.4844 48.1055Z" fill="black" fill-opacity="0.85"/>
 </g>
</svg>
