<?xml version="1.0" encoding="UTF-8"?>
<!--Generator: Apple Native CoreSVG 326-->
<!DOCTYPE svg
PUBLIC "-//W3C//DTD SVG 1.1//EN"
       "http://www.w3.org/Graphics/SVG/1.1/DTD/svg11.dtd">
<svg version="1.1" xmlns="http://www.w3.org/2000/svg" xmlns:xlink="http://www.w3.org/1999/xlink" viewBox="0 0 51.3867 54.1602">
 <g>
  <rect height="54.1602" opacity="0" width="51.3867" x="0" y="0"/>
  <path d="M11.4844 21.3281L8.39844 21.3281L9.58984 27.6172C10.5273 32.6953 14.7461 35.7617 21.5625 35.7617L37.6953 35.7617C48.0273 35.7617 50.7617 27.7344 50.7617 20.2148C50.7617 9.29688 43.4375 0.664062 31.5625 0.664062C29.7266 0.664062 28.4961 1.91406 28.4961 3.78906L28.4961 19.2773L31.5625 19.2773L31.5625 4.94141C31.5625 4.27734 32.0117 3.82812 32.6953 3.82812C39.3555 3.82812 47.6758 8.69141 47.6758 20.2148C47.6758 26.1523 45.7227 32.6953 37.6953 32.6953L21.5625 32.6953C16.3867 32.6953 13.3203 30.5859 12.6367 27.0703ZM48.1641 18.8086L7.75391 18.8086C6.91406 18.8086 6.23047 19.4922 6.23047 20.332C6.23047 21.1914 6.91406 21.875 7.75391 21.875L48.1836 21.875ZM15.9375 20.5664L20.5273 20.5664L8.71094 8.75C8.16406 8.20312 7.63672 7.98828 6.89453 7.98828L1.64062 7.98828C0.742188 7.98828 0 8.73047 0 9.60938C0 10.5078 0.742188 11.25 1.64062 11.25L6.62109 11.25ZM16.582 42.2656L18.8672 44.6484L28.3203 35.1953L25.9766 32.8711ZM40.2148 44.9023L42.5781 42.5977L33.2227 33.2422L30.625 35.3125ZM14.2578 54.1602C18.1055 54.1602 21.1133 51.1523 21.1133 47.2852C21.1133 43.4375 18.1055 40.4297 14.2578 40.4297C10.4102 40.4297 7.38281 43.4375 7.38281 47.2852C7.38281 51.1523 10.4102 54.1602 14.2578 54.1602ZM14.2578 51.2891C12.0312 51.2891 10.2539 49.5117 10.2539 47.2852C10.2539 45.0586 12.0312 43.3008 14.2578 43.3008C16.5039 43.3008 18.2617 45.0586 18.2617 47.2852C18.2617 49.5117 16.5039 51.2891 14.2578 51.2891ZM44.5703 53.7695C48.1445 53.7695 51.0156 50.8789 51.0156 47.2852C51.0156 43.6914 48.1445 40.8203 44.5703 40.8203C40.957 40.8203 38.0859 43.6914 38.0859 47.2852C38.0859 50.8789 40.9766 53.7695 44.5703 53.7695ZM44.5703 51.2891C42.3242 51.2891 40.5469 49.5117 40.5469 47.2852C40.5469 45.0586 42.3242 43.3008 44.5703 43.3008C46.7969 43.3008 48.5547 45.0586 48.5547 47.2852C48.5547 49.5117 46.7969 51.2891 44.5703 51.2891ZM19.8633 48.7109L39.1406 48.7109L39.1406 45.8594L19.8633 45.8594Z" fill="black" fill-opacity="0.85"/>
 </g>
</svg>
