<?xml version="1.0" encoding="UTF-8"?>
<!--Generator: Apple Native CoreSVG 326-->
<!DOCTYPE svg
PUBLIC "-//W3C//DTD SVG 1.1//EN"
       "http://www.w3.org/Graphics/SVG/1.1/DTD/svg11.dtd">
<svg version="1.1" xmlns="http://www.w3.org/2000/svg" xmlns:xlink="http://www.w3.org/1999/xlink" viewBox="0 0 48.3984 56.2305">
 <g>
  <rect height="56.2305" opacity="0" width="48.3984" x="0" y="0"/>
  <path d="M8.35938 54.8828C9.33594 54.8828 9.76562 54.3555 10 53.4375L12.1289 45.4688L36.2305 45.4688L38.3398 53.4375C38.5742 54.3555 39.0625 54.8828 39.9805 54.8828C41.0742 54.8828 41.6602 54.2578 41.6602 53.3008C41.6602 53.1055 41.6406 52.8906 41.582 52.6367L37.5 37.4023L39.3555 37.4023C40.7227 37.4023 41.7188 36.5234 41.7188 35.3125C41.7188 34.0234 40.8203 33.1836 39.4531 33.1836L10.6055 33.1836C8.41797 33.1836 7.24609 32.0898 7.24609 29.9609L7.24609 22.9102L11.5625 22.9102L11.5625 25.0781C11.5625 27.8906 12.9492 29.2188 15.8398 29.2188L32.4414 29.2188C35.3125 29.2188 36.6992 27.8906 36.6992 25.0781L36.6992 22.9102L46.1523 22.9102C47.2852 22.9102 48.0273 22.2656 48.0273 21.25C48.0273 20.2344 47.3047 19.5703 46.2305 19.5703L1.67969 19.5703C0.664062 19.5703 0 20.2539 0 21.25C0 22.2656 0.703125 22.9102 1.77734 22.9102L3.92578 22.9102L3.92578 31.9531C3.92578 35.4102 5.95703 37.4023 9.43359 37.4023L10.8398 37.4023L6.77734 52.6367C6.71875 52.8711 6.67969 53.0664 6.67969 53.3203C6.67969 54.2188 7.1875 54.8828 8.35938 54.8828ZM13.0273 42.1094L14.2773 37.4023L34.082 37.4023L35.3125 42.1094ZM15.6641 15.5273L32.6172 15.5273C35.5469 15.5273 36.9727 14.1602 36.9727 11.3086L36.9727 4.23828C36.9727 1.34766 35.5469 0 32.6172 0L15.6641 0C12.7344 0 11.3086 1.34766 11.3086 4.23828L11.3086 11.3086C11.3086 14.1602 12.7344 15.5273 15.6641 15.5273Z" fill="black" fill-opacity="0.85"/>
 </g>
</svg>
