<?xml version="1.0" encoding="UTF-8"?>
<!--Generator: Apple Native CoreSVG 326-->
<!DOCTYPE svg
PUBLIC "-//W3C//DTD SVG 1.1//EN"
       "http://www.w3.org/Graphics/SVG/1.1/DTD/svg11.dtd">
<svg version="1.1" xmlns="http://www.w3.org/2000/svg" xmlns:xlink="http://www.w3.org/1999/xlink" viewBox="0 0 47.1875 50.1758">
 <g>
  <rect height="50.1758" opacity="0" width="47.1875" x="0" y="0"/>
  <path d="M0 29.5898C0 35.5859 4.51172 40.1172 10.5469 40.1172C13.9648 40.1172 17.3438 38.9062 18.8281 36.0156L19.082 36.0156C18.9648 39.4141 15.4492 42.207 13.7305 43.9453C11.9922 45.7422 13.0469 48.2812 15.332 48.2812L31.4844 48.2812C33.7695 48.2812 34.8242 45.7422 33.0859 43.9453C31.3672 42.207 27.8516 39.4141 27.7148 36.0156L27.9883 36.0156C29.4727 38.9062 32.8516 40.1172 36.2695 40.1172C42.3047 40.1172 46.8164 35.5859 46.8164 29.5898C46.8164 18.3789 31.6797 13.8086 25.7031 1.66016C25.2344 0.703125 24.5703 0 23.3984 0C22.2266 0 21.5625 0.703125 21.0938 1.66016C15.1367 13.8086 0 18.3789 0 29.5898Z" fill="black" fill-opacity="0.85"/>
 </g>
</svg>
