<?xml version="1.0" encoding="UTF-8"?>
<!--Generator: Apple Native CoreSVG 326-->
<!DOCTYPE svg
PUBLIC "-//W3C//DTD SVG 1.1//EN"
       "http://www.w3.org/Graphics/SVG/1.1/DTD/svg11.dtd">
<svg version="1.1" xmlns="http://www.w3.org/2000/svg" xmlns:xlink="http://www.w3.org/1999/xlink" viewBox="0 0 38.9062 66.4258">
 <g>
  <rect height="66.4258" opacity="0" width="38.9062" x="0" y="0"/>
  <path d="M6.77734 61.8945L31.7578 61.8945C35.7422 61.8945 38.5352 59.082 38.5352 55.0391L38.5352 20.293C38.5352 16.25 35.7422 13.4375 31.7578 13.4375L6.77734 13.4375C2.79297 13.4375 0 16.25 0 20.293L0 55.0391C0 59.082 2.79297 61.8945 6.77734 61.8945ZM6.79688 58.4375C4.80469 58.4375 3.45703 56.9922 3.45703 54.9023L3.45703 20.4297C3.45703 18.3203 4.80469 16.8945 6.79688 16.8945L31.7383 16.8945C33.7305 16.8945 35.0781 18.3203 35.0781 20.4297L35.0781 54.9023C35.0781 56.9922 33.7305 58.4375 31.7383 58.4375ZM1.64062 52.0117L36.9336 52.0117L36.9336 48.5547L1.64062 48.5547ZM8.53516 15.8594L11.875 15.8594L11.875 5.46875C11.875 4.0625 12.8125 3.16406 14.2383 3.16406L24.5117 3.16406C25.8203 3.16406 26.6602 4.0625 26.6602 5.46875L26.6602 15.8203L30.0195 15.8203L30.0195 5.52734C30.0195 2.16797 27.9102 0 24.6484 0L14.1016 0C10.7031 0 8.53516 2.16797 8.53516 5.52734ZM8.16406 65.5273L9.60938 65.5273C10.8789 65.5273 11.6992 64.7266 11.6992 63.4375L11.6992 59.9219L6.07422 59.9219L6.07422 63.4375C6.07422 64.7266 6.875 65.5273 8.16406 65.5273ZM28.9258 65.5273L30.3711 65.5273C31.6406 65.5273 32.4414 64.7266 32.4414 63.4375L32.4414 59.9219L26.8359 59.9219L26.8359 63.4375C26.8359 64.7266 27.6367 65.5273 28.9258 65.5273Z" fill="black" fill-opacity="0.85"/>
 </g>
</svg>
