<?xml version="1.0" encoding="UTF-8"?>
<!--Generator: Apple Native CoreSVG 326-->
<!DOCTYPE svg
PUBLIC "-//W3C//DTD SVG 1.1//EN"
       "http://www.w3.org/Graphics/SVG/1.1/DTD/svg11.dtd">
<svg version="1.1" xmlns="http://www.w3.org/2000/svg" xmlns:xlink="http://www.w3.org/1999/xlink" viewBox="0 0 64.9609 44.707">
 <g>
  <rect height="44.707" opacity="0" width="64.9609" x="0" y="0"/>
  <path d="M45.7812 29.043C45.7812 21.6602 39.6875 15.5273 32.3047 15.5273C24.9023 15.5273 18.8086 21.6602 18.8086 29.043C18.8086 31.0352 19.2773 32.9297 20.1172 34.6094L44.4727 34.6094C45.3125 32.9297 45.7812 31.0352 45.7812 29.043ZM5.09766 30.1758L12.0312 30.1758C13.125 30.1758 13.9453 29.3945 13.9258 28.4375C13.9062 27.4805 13.125 26.6992 12.0312 26.6992L5.09766 26.6992C4.02344 26.6992 3.22266 27.4805 3.22266 28.4375C3.22266 29.3945 4.02344 30.1758 5.09766 30.1758ZM16.7188 15.9766C17.5 16.7383 18.6328 16.7578 19.2969 16.0742C19.9609 15.3906 19.9609 14.2773 19.1992 13.4961L14.2969 8.61328C13.5156 7.8125 12.4023 7.85156 11.7383 8.51562C11.0547 9.17969 11.0352 10.293 11.8359 11.0742ZM45.293 16.0742C45.9766 16.7383 47.1094 16.7383 47.8711 15.9766L52.7734 11.0742C53.5547 10.293 53.5156 9.19922 52.8516 8.51562C52.207 7.83203 51.0938 7.8125 50.293 8.61328L45.3906 13.4961C44.6289 14.2773 44.6094 15.4102 45.293 16.0742ZM52.5586 30.1758L59.4922 30.1758C60.5859 30.1758 61.3672 29.3945 61.3672 28.4375C61.3672 27.4805 60.5859 26.6992 59.4922 26.6992L52.5586 26.6992C51.4844 26.6992 50.6445 27.4805 50.6641 28.4375C50.6836 29.3945 51.4844 30.1758 52.5586 30.1758ZM32.3047 10.7031C33.2422 10.6836 34.043 9.88281 34.043 8.80859L34.043 1.875C34.043 0.78125 33.2422 0 32.3047 0C31.3477 0 30.5664 0.78125 30.5664 1.875L30.5664 8.80859C30.5664 9.88281 31.3477 10.7227 32.3047 10.7031Z" fill="black" fill-opacity="0.85"/>
  <path d="M1.875 40.7812L62.7148 40.7812C63.7305 40.7812 64.5898 40 64.5898 39.0625C64.5898 38.1055 63.7305 37.3438 62.7148 37.3438L1.875 37.3438C0.859375 37.3438 0 38.1055 0 39.0625C0 40 0.859375 40.7812 1.875 40.7812Z" fill="black" fill-opacity="0.85"/>
 </g>
</svg>
