<?xml version="1.0" encoding="UTF-8"?>
<!--Generator: Apple Native CoreSVG 326-->
<!DOCTYPE svg
PUBLIC "-//W3C//DTD SVG 1.1//EN"
       "http://www.w3.org/Graphics/SVG/1.1/DTD/svg11.dtd">
<svg version="1.1" xmlns="http://www.w3.org/2000/svg" xmlns:xlink="http://www.w3.org/1999/xlink" viewBox="0 0 68.8867 63.6914">
 <g>
  <rect height="63.6914" opacity="0" width="68.8867" x="0" y="0"/>
  <path d="M47.8906 30.625C47.8906 33.695 46.8511 36.5446 45.0975 38.8281L40.2335 38.8281C42.7758 36.9794 44.4336 33.9821 44.4336 30.625C44.4336 25.0391 39.8438 20.4492 34.2578 20.4492C28.6719 20.4492 24.082 25.0391 24.082 30.625C24.082 33.9821 25.7398 36.9794 28.2821 38.8281L23.4362 38.8281C21.6841 36.5446 20.6445 33.695 20.6445 30.625C20.6445 23.1641 26.8164 16.9922 34.2578 16.9922C41.7188 16.9922 47.8906 23.1641 47.8906 30.625ZM15.8984 29.9805C15.918 30.957 15.0781 31.7188 13.9844 31.7188L7.07031 31.7188C5.97656 31.7188 5.17578 30.9375 5.17578 29.9805C5.17578 29.0234 5.97656 28.2422 7.07031 28.2422L13.9844 28.2422C15.0781 28.2422 15.8789 29.043 15.8984 29.9805ZM63.3398 29.9805C63.3398 30.957 62.5586 31.7188 61.4648 31.7188L54.5312 31.7188C53.457 31.7188 52.6562 30.9375 52.6367 29.9805C52.6172 29.0234 53.457 28.2422 54.5312 28.2422L61.4648 28.2422C62.5586 28.2422 63.3398 29.043 63.3398 29.9805ZM16.2695 10.1562L21.1523 15.0586C21.9336 15.8203 21.9336 16.9531 21.2695 17.6367C20.6055 18.3203 19.4531 18.3008 18.6914 17.5195L13.7891 12.6367C13.0078 11.8359 13.0078 10.7422 13.7109 10.0781C14.375 9.41406 15.4688 9.375 16.2695 10.1562ZM54.8242 10.0781C55.4883 10.7617 55.5273 11.8359 54.7266 12.6367L49.8242 17.5195C49.0625 18.3008 47.9297 18.3008 47.2656 17.6367C46.582 16.9727 46.6016 15.8203 47.3633 15.0586L52.2656 10.1562C53.0469 9.375 54.1602 9.39453 54.8242 10.0781ZM35.9961 3.4375L35.9961 10.3516C35.9961 11.4453 35.2148 12.2656 34.2578 12.2656C33.3008 12.2656 32.5195 11.4453 32.5195 10.3516L32.5195 3.4375C32.5195 2.34375 33.3008 1.54297 34.2578 1.54297C35.2148 1.54297 35.9961 2.34375 35.9961 3.4375Z" fill="black" fill-opacity="0.85"/>
  <path d="M20.293 54.2383C20.7617 54.2383 21.0547 53.8281 21.0352 53.3594L20.8789 50.8984L22.9492 52.2656C23.3203 52.5 23.8477 52.4219 24.082 52.0508C24.3164 51.6797 24.1602 51.1523 23.7109 50.918L21.5039 49.8242L23.7305 48.6914C24.1602 48.4766 24.2969 47.9688 24.1016 47.5977C23.8867 47.1875 23.3203 47.1289 22.9492 47.3828L20.8789 48.7695L21.0547 46.2891C21.0938 45.8203 20.7617 45.4297 20.293 45.4297C19.8047 45.4297 19.5117 45.8203 19.5312 46.2891L19.668 48.7695L17.5977 47.3828C17.2266 47.1289 16.7188 47.168 16.4844 47.5977C16.2695 47.9688 16.3867 48.4766 16.8359 48.6914L19.043 49.8242L16.8359 50.9375C16.3672 51.1719 16.25 51.6602 16.4453 52.0508C16.6797 52.4609 17.2266 52.5195 17.5977 52.2656L19.668 50.918L19.5508 53.3594C19.5312 53.8281 19.8047 54.2383 20.293 54.2383ZM34.2578 54.2383C34.7266 54.2383 35.0195 53.8281 35 53.3594L34.8438 50.8984L36.9141 52.2656C37.2852 52.5 37.8125 52.4219 38.0469 52.0508C38.2812 51.6797 38.125 51.1523 37.6562 50.918L35.4688 49.8242L37.6758 48.6914C38.125 48.4766 38.2617 47.9688 38.0664 47.5977C37.8516 47.1875 37.2852 47.1289 36.9141 47.3828L34.8438 48.7695L35.0195 46.2891C35.0586 45.8203 34.7266 45.4297 34.2578 45.4297C33.7695 45.4297 33.4766 45.8203 33.4961 46.2891L33.6328 48.7695L31.543 47.3828C31.1914 47.1289 30.6836 47.168 30.4492 47.5977C30.2148 47.9688 30.3516 48.4766 30.8008 48.6914L33.0078 49.8242L30.8008 50.9375C30.332 51.1719 30.1953 51.6602 30.4102 52.0508C30.6445 52.4609 31.1914 52.5195 31.543 52.2656L33.6328 50.918L33.5156 53.3594C33.4961 53.8281 33.7695 54.2383 34.2578 54.2383ZM48.2227 54.2383C48.6719 54.2383 48.9648 53.8281 48.9453 53.3594L48.8086 50.8984L50.8789 52.2656C51.25 52.5 51.7578 52.4219 52.0117 52.0508C52.2461 51.6797 52.0898 51.1523 51.6211 50.918L49.4336 49.8242L51.6406 48.6914C52.0898 48.4766 52.2266 47.9688 52.0312 47.5977C51.7969 47.1875 51.25 47.1289 50.8789 47.3828L48.8086 48.7695L48.9648 46.2891C49.0039 45.8203 48.6719 45.4297 48.2227 45.4297C47.7344 45.4297 47.4414 45.8203 47.4609 46.2891L47.5977 48.7695L45.5078 47.3828C45.1367 47.1289 44.6484 47.168 44.4141 47.5977C44.1797 47.9688 44.3164 48.4766 44.7656 48.6914L46.9727 49.8242L44.7656 50.9375C44.2969 51.1719 44.1602 51.6602 44.375 52.0508C44.6094 52.4609 45.1367 52.5195 45.5078 52.2656L47.5977 50.918L47.4805 53.3594C47.4609 53.8281 47.7344 54.2383 48.2227 54.2383ZM14.8242 63.6914C15.293 63.6914 15.5859 63.2812 15.5664 62.8125L15.4102 60.3516L17.4805 61.7188C17.8516 61.9727 18.3789 61.8945 18.6133 61.5039C18.8477 61.1328 18.6914 60.6055 18.2422 60.3906L16.0352 59.2773L18.2617 58.1641C18.6914 57.9297 18.8281 57.4414 18.6328 57.0508C18.418 56.6602 17.8516 56.6016 17.4805 56.8359L15.4102 58.2422L15.5859 55.7422C15.625 55.2734 15.293 54.8828 14.8242 54.8828C14.3359 54.8828 14.043 55.2734 14.0625 55.7422L14.1992 58.2422L12.1289 56.8359C11.7578 56.6016 11.25 56.6406 11.0156 57.0508C10.8008 57.4414 10.918 57.9297 11.3672 58.1641L13.5742 59.2773L11.3672 60.3906C10.8984 60.625 10.7812 61.1133 10.9766 61.5039C11.2109 61.9141 11.7578 61.9727 12.1289 61.7383L14.1992 60.3711L14.082 62.8125C14.0625 63.2812 14.3359 63.6914 14.8242 63.6914ZM28.7891 63.6914C29.2578 63.6914 29.5508 63.2812 29.5312 62.8125L29.375 60.3516L31.4453 61.7188C31.8164 61.9727 32.3438 61.8945 32.5781 61.5039C32.8125 61.1328 32.6562 60.6055 32.1875 60.3906L30 59.2773L32.207 58.1641C32.6562 57.9297 32.793 57.4414 32.5977 57.0508C32.3828 56.6602 31.8164 56.6016 31.4453 56.8359L29.375 58.2422L29.5508 55.7422C29.5898 55.2734 29.2578 54.8828 28.7891 54.8828C28.3008 54.8828 28.0078 55.2734 28.0273 55.7422L28.1641 58.2422L26.0742 56.8359C25.7227 56.6016 25.2148 56.6406 24.9805 57.0508C24.7461 57.4414 24.8828 57.9297 25.332 58.1641L27.5391 59.2773L25.332 60.3906C24.8633 60.625 24.7266 61.1133 24.9414 61.5039C25.1758 61.9141 25.7227 61.9727 26.0742 61.7383L28.1641 60.3711L28.0469 62.8125C28.0273 63.2812 28.3008 63.6914 28.7891 63.6914ZM42.7539 63.6914C43.2031 63.6914 43.4961 63.2812 43.4766 62.8125L43.3398 60.3516L45.4102 61.7188C45.7812 61.9727 46.2891 61.8945 46.543 61.5039C46.7773 61.1328 46.6211 60.6055 46.1523 60.3906L43.9648 59.2773L46.1719 58.1641C46.6211 57.9297 46.7578 57.4414 46.5625 57.0508C46.3281 56.6602 45.7812 56.6016 45.4102 56.8359L43.3398 58.2422L43.4961 55.7422C43.5352 55.2734 43.2031 54.8828 42.7539 54.8828C42.2656 54.8828 41.9727 55.2734 41.9922 55.7422L42.1289 58.2422L40.0391 56.8359C39.668 56.6016 39.1797 56.6406 38.9453 57.0508C38.7109 57.4414 38.8477 57.9297 39.2969 58.1641L41.5039 59.2773L39.2969 60.3906C38.8281 60.625 38.6914 61.1133 38.9062 61.5039C39.1406 61.9141 39.668 61.9727 40.0391 61.7383L42.1289 60.3711L42.0117 62.8125C41.9922 63.2812 42.2656 63.6914 42.7539 63.6914ZM8.4375 41.6016L60 41.6016C60.7812 41.6016 61.4062 40.9961 61.4062 40.2148C61.4062 39.4336 60.7812 38.8281 60 38.8281L8.4375 38.8281C7.65625 38.8281 7.03125 39.4336 7.03125 40.2148C7.03125 40.9961 7.65625 41.6016 8.4375 41.6016Z" fill="black" fill-opacity="0.85"/>
 </g>
</svg>
