<?xml version="1.0" encoding="UTF-8"?>
<!--Generator: Apple Native CoreSVG 326-->
<!DOCTYPE svg
PUBLIC "-//W3C//DTD SVG 1.1//EN"
       "http://www.w3.org/Graphics/SVG/1.1/DTD/svg11.dtd">
<svg version="1.1" xmlns="http://www.w3.org/2000/svg" xmlns:xlink="http://www.w3.org/1999/xlink" viewBox="0 0 51.25 50.918">
 <g>
  <rect height="50.918" opacity="0" width="51.25" x="0" y="0"/>
  <path d="M50.8789 25.4688C50.8789 39.4922 39.4531 50.918 25.4297 50.918C11.4258 50.918 0 39.4922 0 25.4688C0 11.4648 11.4258 0.0390625 25.4297 0.0390625C39.4531 0.0390625 50.8789 11.4648 50.8789 25.4688ZM16.25 34.9219L16.3281 36.5625L14.9609 35.6445C14.6484 35.4297 14.1797 35.4688 14.0039 35.8398C13.7891 36.1523 13.9062 36.582 14.3164 36.8359L15.7422 37.5586L14.3164 38.2617C13.8867 38.4766 13.7891 38.9258 13.9648 39.2578C14.1406 39.6289 14.6289 39.707 14.9609 39.4922L16.3281 38.5742L16.2695 40.2148C16.25 40.6055 16.5039 40.9766 16.9336 40.9766C17.3242 40.9766 17.6172 40.6055 17.5781 40.2148L17.5 38.5742L18.8672 39.4922C19.1602 39.6875 19.6289 39.5898 19.8242 39.2969C20.0586 38.9648 19.9414 38.4766 19.5117 38.2617L18.0859 37.5586L19.5117 36.8164C19.9219 36.582 20.0195 36.1914 19.8438 35.8398C19.668 35.4883 19.1602 35.4492 18.8672 35.6445L17.5 36.5625L17.5781 34.9414C17.6172 34.5117 17.3242 34.1602 16.9336 34.1602C16.5039 34.1602 16.2305 34.5117 16.25 34.9219ZM24.7266 34.9219L24.8047 36.5625L23.4375 35.6445C23.125 35.4297 22.6758 35.4688 22.4805 35.8398C22.2656 36.1523 22.3828 36.582 22.8125 36.8359L24.2188 37.5586L22.8125 38.2617C22.3633 38.4766 22.2656 38.9258 22.4414 39.2578C22.6367 39.6289 23.1055 39.707 23.4375 39.4922L24.8047 38.5742L24.7461 40.2148C24.7266 40.6055 24.9805 40.9766 25.4102 40.9766C25.8203 40.9766 26.0938 40.6055 26.0742 40.2148L25.9961 38.5742L27.3438 39.4922C27.6562 39.6875 28.1055 39.5898 28.3203 39.2969C28.5547 38.9648 28.4375 38.4766 27.9883 38.2617L26.582 37.5586L27.9883 36.8164C28.418 36.582 28.5156 36.1914 28.3398 35.8398C28.1445 35.4883 27.6562 35.4492 27.3438 35.6445L25.9961 36.5625L26.0742 34.9414C26.0938 34.5117 25.8203 34.1602 25.4102 34.1602C24.9805 34.1602 24.707 34.5117 24.7266 34.9219ZM33.2031 34.9219L33.3008 36.5625L31.9141 35.6445C31.6211 35.4297 31.1523 35.4688 30.9766 35.8398C30.7617 36.1523 30.8789 36.582 31.2891 36.8359L32.7148 37.5586L31.2891 38.2617C30.8398 38.4766 30.7812 38.9258 30.9375 39.2578C31.1133 39.6289 31.6016 39.707 31.9141 39.4922L33.3008 38.5742L33.2227 40.2148C33.2031 40.6055 33.4766 40.9766 33.8867 40.9766C34.2969 40.9766 34.5703 40.6055 34.5508 40.2148L34.4727 38.5742L35.8203 39.4922C36.1328 39.6875 36.6016 39.5898 36.7969 39.2969C37.0312 38.9648 36.8945 38.4766 36.4844 38.2617L35.0586 37.5586L36.4844 36.8164C36.875 36.582 37.0117 36.1914 36.8164 35.8398C36.6406 35.4883 36.1328 35.4297 35.8203 35.6445L34.4727 36.5625L34.5508 34.9414C34.5703 34.5117 34.2969 34.1602 33.8867 34.1602C33.4766 34.1602 33.1836 34.5117 33.2031 34.9219ZM10.6055 29.6094C9.88281 29.6094 9.25781 30.1367 9.25781 30.8594C9.25781 31.582 9.90234 32.1094 10.6055 32.1094L40.2344 32.1094C40.9375 32.1094 41.5625 31.582 41.5625 30.8594C41.5625 30.1367 40.957 29.6094 40.2344 29.6094ZM17.7539 25.1758C17.7539 26.0938 17.9492 27.0117 18.2812 27.832L32.5391 27.832C32.8711 27.0117 33.0859 26.0938 33.0859 25.1758C33.0859 20.957 29.6289 17.4805 25.4102 17.4805C21.2109 17.4805 17.7539 20.957 17.7539 25.1758ZM10.625 23.5547C9.84375 23.5547 9.25781 24.1406 9.25781 24.8438C9.25781 25.5469 9.84375 26.1133 10.625 26.1133L14.375 26.1133C15.1953 26.1133 15.7812 25.5664 15.7812 24.8438C15.7812 24.1211 15.1758 23.5547 14.375 23.5547ZM36.4453 23.5547C35.6445 23.5547 35.0391 24.1211 35.0391 24.8438C35.0391 25.5664 35.6836 26.1133 36.4453 26.1133L40.2148 26.1133C40.9961 26.1133 41.5625 25.5469 41.5625 24.8438C41.5625 24.1406 40.9961 23.5547 40.2148 23.5547ZM13.9648 13.7891C13.5156 14.3164 13.5156 15.0586 14.082 15.625L16.7383 18.3008C17.2852 18.8281 18.0859 18.8867 18.5938 18.3594C19.1211 17.8516 19.0625 17.0312 18.5352 16.4844L15.8203 13.8086C15.2734 13.2227 14.4727 13.3203 13.9648 13.7891ZM35 13.8086L32.3047 16.4844C31.7383 17.0508 31.7188 17.8516 32.2461 18.3594C32.7539 18.8477 33.5547 18.8477 34.1016 18.3008L36.7383 15.625C37.3047 15.0586 37.3242 14.3164 36.8555 13.7891C36.3477 13.2812 35.5273 13.2422 35 13.8086ZM24.1406 9.51172L24.1406 13.2617C24.1406 14.043 24.707 14.668 25.4102 14.668C26.1328 14.668 26.6797 14.0039 26.6797 13.2617L26.6797 9.51172C26.6797 8.71094 26.1133 8.14453 25.4102 8.14453C24.707 8.14453 24.1406 8.71094 24.1406 9.51172Z" fill="black" fill-opacity="0.85"/>
 </g>
</svg>
