<?xml version="1.0" encoding="UTF-8"?>
<!--Generator: Apple Native CoreSVG 326-->
<!DOCTYPE svg
PUBLIC "-//W3C//DTD SVG 1.1//EN"
       "http://www.w3.org/Graphics/SVG/1.1/DTD/svg11.dtd">
<svg version="1.1" xmlns="http://www.w3.org/2000/svg" xmlns:xlink="http://www.w3.org/1999/xlink" viewBox="0 0 64.2188 60.6055">
 <g>
  <rect height="60.6055" opacity="0" width="64.2188" x="0" y="0"/>
  <path d="M45.4297 29.0625C45.4297 31.0177 44.9987 32.8861 44.2168 34.5703L19.6503 34.5703C18.8685 32.8861 18.4375 31.0177 18.4375 29.0625C18.4375 21.6797 24.5508 15.5469 31.9336 15.5469C39.3164 15.5469 45.4297 21.6797 45.4297 29.0625ZM13.5547 28.4375C13.5742 29.4141 12.7539 30.1758 11.6602 30.1758L4.72656 30.1758C3.65234 30.1758 2.85156 29.3945 2.85156 28.4375C2.85156 27.4805 3.65234 26.6992 4.72656 26.6992L11.6602 26.6992C12.7539 26.6992 13.5352 27.5 13.5547 28.4375ZM61.0156 28.4375C61.0156 29.4141 60.2148 30.1953 59.1211 30.1758L52.207 30.1758C51.1133 30.1758 50.3125 29.3945 50.293 28.4375C50.2734 27.4805 51.1133 26.6992 52.207 26.6992L59.1211 26.6992C60.2148 26.7188 61.0156 27.5 61.0156 28.4375ZM13.9258 8.61328L18.8281 13.5156C19.5898 14.2773 19.5898 15.4102 18.9258 16.0938C18.2812 16.7773 17.1289 16.7578 16.3477 15.9766L11.4648 11.0938C10.6641 10.293 10.6836 9.19922 11.3672 8.53516C12.0312 7.87109 13.1445 7.83203 13.9258 8.61328ZM52.4805 8.53516C53.1641 9.21875 53.1836 10.293 52.4023 11.0938L47.5 15.9766C46.7383 16.7578 45.6055 16.7578 44.9219 16.0938C44.2383 15.4297 44.2578 14.2773 45.0391 13.5156L49.9219 8.61328C50.7227 7.83203 51.8359 7.85156 52.4805 8.53516ZM33.6719 1.89453L33.6719 8.80859C33.6719 9.90234 32.8906 10.7031 31.9336 10.7227C30.9766 10.7422 30.1953 9.90234 30.1953 8.80859L30.1953 1.89453C30.1953 0.800781 30.9766 0 31.9336 0C32.8906 0 33.6719 0.800781 33.6719 1.89453Z" fill="black" fill-opacity="0.85"/>
  <path d="M16.3086 51.9531L19.7656 45.9766C20.1758 45.293 19.9609 44.5117 19.2969 44.1211C18.6328 43.75 17.8906 43.9648 17.4805 44.668L14.0039 50.6836C13.6133 51.3281 13.7891 52.1094 14.4727 52.5C15.1367 52.8711 15.918 52.6367 16.3086 51.9531ZM22.1875 59.1211L29.8047 45.957C30.1953 45.2734 30 44.5312 29.3555 44.1406C28.7305 43.75 27.9297 43.9453 27.5391 44.6484L19.9609 57.793C19.5703 58.4766 19.7656 59.2578 20.4102 59.6484C21.0547 60.0195 21.8164 59.8047 22.1875 59.1211ZM36.3672 51.9336L39.8047 45.957C40.2344 45.2734 40.0195 44.4922 39.3555 44.1016C38.6914 43.7305 37.9492 43.9453 37.5195 44.6484L34.043 50.6641C33.6719 51.3086 33.8477 52.0898 34.5312 52.4805C35.1953 52.8516 35.9766 52.6172 36.3672 51.9336ZM42.2461 59.1016L49.8438 45.9375C50.2539 45.2539 50.0586 44.5117 49.4141 44.1211C48.7891 43.7305 48.0078 43.9258 47.5781 44.6289L40.0195 57.7734C39.6289 58.457 39.8242 59.2383 40.4688 59.6289C41.1133 60 41.8555 59.7852 42.2461 59.1016Z" fill="black" fill-opacity="0.85"/>
  <path d="M6.11328 40.0586L57.6758 40.0586C58.457 40.0586 59.0625 39.4531 59.0625 38.6719C59.0625 37.8906 58.457 37.2852 57.6758 37.2852L6.11328 37.2852C5.33203 37.2852 4.70703 37.8906 4.70703 38.6719C4.70703 39.4531 5.33203 40.0586 6.11328 40.0586Z" fill="black" fill-opacity="0.85"/>
 </g>
</svg>
