<?xml version="1.0" encoding="UTF-8"?>
<!--Generator: Apple Native CoreSVG 326-->
<!DOCTYPE svg
PUBLIC "-//W3C//DTD SVG 1.1//EN"
       "http://www.w3.org/Graphics/SVG/1.1/DTD/svg11.dtd">
<svg version="1.1" xmlns="http://www.w3.org/2000/svg" xmlns:xlink="http://www.w3.org/1999/xlink" viewBox="0 0 49.6289 49.2773">
 <g>
  <rect height="49.2773" opacity="0" width="49.6289" x="0" y="0"/>
  <path d="M24.6289 4.78516C25.957 4.78516 27.0312 3.73047 27.0312 2.40234C27.0312 1.05469 25.957 0 24.6289 0C23.3008 0 22.2266 1.05469 22.2266 2.40234C22.2266 3.73047 23.3008 4.78516 24.6289 4.78516ZM40.3516 11.2891C41.6992 11.2891 42.7539 10.2344 42.7539 8.88672C42.7539 7.55859 41.6992 6.48438 40.3516 6.48438C39.0234 6.48438 37.9688 7.55859 37.9688 8.88672C37.9688 10.2344 39.0234 11.2891 40.3516 11.2891ZM46.8555 27.0117C48.2031 27.0117 49.2578 25.957 49.2578 24.6289C49.2578 23.2812 48.2031 22.2266 46.8555 22.2266C45.5273 22.2266 44.4531 23.2812 44.4531 24.6289C44.4531 25.957 45.5273 27.0117 46.8555 27.0117ZM40.3516 42.7539C41.6992 42.7539 42.7539 41.6797 42.7539 40.3516C42.7539 39.0234 41.6992 37.9492 40.3516 37.9492C39.0234 37.9492 37.9688 39.0234 37.9688 40.3516C37.9688 41.6797 39.0234 42.7539 40.3516 42.7539ZM24.6289 49.2578C25.957 49.2578 27.0312 48.1836 27.0312 46.8555C27.0312 45.5078 25.957 44.4531 24.6289 44.4531C23.3008 44.4531 22.2266 45.5078 22.2266 46.8555C22.2266 48.1836 23.3008 49.2578 24.6289 49.2578ZM8.90625 42.7539C10.2344 42.7539 11.2891 41.6797 11.2891 40.3516C11.2891 39.0234 10.2344 37.9492 8.90625 37.9492C7.55859 37.9492 6.50391 39.0234 6.50391 40.3516C6.50391 41.6797 7.55859 42.7539 8.90625 42.7539ZM2.40234 27.0117C3.73047 27.0117 4.80469 25.957 4.80469 24.6289C4.80469 23.2812 3.73047 22.2266 2.40234 22.2266C1.05469 22.2266 0 23.2812 0 24.6289C0 25.957 1.05469 27.0117 2.40234 27.0117ZM8.90625 11.2891C10.2344 11.2891 11.2891 10.2344 11.2891 8.88672C11.2891 7.55859 10.2344 6.48438 8.90625 6.48438C7.55859 6.48438 6.50391 7.55859 6.50391 8.88672C6.50391 10.2344 7.55859 11.2891 8.90625 11.2891Z" fill="black" fill-opacity="0.85"/>
  <path d="M24.6289 37.1875C31.5625 37.1875 37.207 31.5625 37.207 24.6289C37.207 17.6953 31.5625 12.0508 24.6289 12.0508C17.6953 12.0508 12.0508 17.6953 12.0508 24.6289C12.0508 31.5625 17.6953 37.1875 24.6289 37.1875ZM24.6289 33.9062C19.4922 33.9062 15.3516 29.7656 15.3516 24.6289C15.3516 19.4727 19.4922 15.332 24.6289 15.332C29.7656 15.332 33.9062 19.4727 33.9062 24.6289C33.9062 29.7656 29.7656 33.9062 24.6289 33.9062Z" fill="black" fill-opacity="0.85"/>
 </g>
</svg>
