<?xml version="1.0" encoding="UTF-8"?>
<!--Generator: Apple Native CoreSVG 326-->
<!DOCTYPE svg
PUBLIC "-//W3C//DTD SVG 1.1//EN"
       "http://www.w3.org/Graphics/SVG/1.1/DTD/svg11.dtd">
<svg version="1.1" xmlns="http://www.w3.org/2000/svg" xmlns:xlink="http://www.w3.org/1999/xlink" viewBox="0 0 51.25 50.918">
 <g>
  <rect height="50.918" opacity="0" width="51.25" x="0" y="0"/>
  <path d="M25.4297 50.8789C39.4727 50.8789 50.8789 39.4922 50.8789 25.4492C50.8789 11.4062 39.4727 0 25.4297 0C11.3867 0 0 11.4062 0 25.4492C0 39.4922 11.3867 50.8789 25.4297 50.8789ZM25.4297 47.2461C13.3789 47.2461 3.63281 37.5 3.63281 25.4492C3.63281 13.3984 13.3789 3.65234 25.4297 3.65234C37.4805 3.65234 47.2266 13.3984 47.2266 25.4492C47.2266 37.5 37.4805 47.2461 25.4297 47.2461Z" fill="black" fill-opacity="0.85"/>
  <path d="M25.4297 9.43359C24.707 9.43359 24.0625 10.0781 24.0625 10.7812L24.0625 13.9453C24.0625 14.6484 24.707 15.2734 25.4297 15.2734C26.1523 15.2734 26.7773 14.6484 26.7773 13.9453L26.7773 10.7812C26.7773 10.0781 26.1523 9.43359 25.4297 9.43359ZM36.7383 14.1211C36.1914 13.6133 35.332 13.6133 34.8242 14.1211L32.5977 16.3867C32.0703 16.9336 32.0898 17.7734 32.5977 18.2617C33.1055 18.8086 33.9648 18.7891 34.4922 18.2617L36.7383 16.0352C37.2461 15.5273 37.2461 14.6484 36.7383 14.1211ZM41.3867 25.4492C41.3867 24.707 40.7812 24.082 40.0586 24.082L36.9141 24.082C36.1914 24.082 35.5664 24.7266 35.5664 25.4492C35.5664 26.1523 36.1914 26.7969 36.9141 26.7969L40.0586 26.7969C40.7812 26.7969 41.3867 26.1719 41.3867 25.4492ZM36.7383 36.7578C37.2656 36.2109 37.2461 35.3516 36.7383 34.8438L34.4727 32.6172C33.9648 32.1094 33.1055 32.1094 32.5977 32.6172C32.0703 33.1445 32.0703 33.9844 32.5977 34.5117L34.8242 36.7578C35.3516 37.2656 36.1914 37.2656 36.7383 36.7578ZM25.4297 41.4453C26.1523 41.4453 26.7773 40.8203 26.7773 40.0977L26.7773 36.9531C26.7773 36.2305 26.1523 35.6055 25.4297 35.6055C24.707 35.6055 24.0625 36.2305 24.0625 36.9531L24.0625 40.0977C24.0625 40.8203 24.707 41.4453 25.4297 41.4453ZM14.1016 36.7383C14.6289 37.2656 15.4883 37.2656 16.0156 36.7578L18.2617 34.5312C18.75 34.0234 18.7695 33.1641 18.2617 32.6172C17.7344 32.1094 16.8555 32.1094 16.3477 32.6172L14.1016 34.8438C13.5938 35.3711 13.5938 36.2109 14.1016 36.7383ZM9.45312 25.4492C9.45312 26.1719 10.0781 26.7969 10.8008 26.7969L13.9453 26.7969C14.6484 26.7969 15.293 26.1523 15.293 25.4492C15.293 24.7266 14.6484 24.082 13.9453 24.082L10.8008 24.082C10.0781 24.082 9.45312 24.707 9.45312 25.4492ZM14.1406 14.1211C13.6328 14.6484 13.5938 15.5273 14.1211 16.0352L16.3477 18.2617C16.875 18.8086 17.7148 18.7891 18.2617 18.2617C18.75 17.7734 18.75 16.9141 18.2617 16.3867L16.0156 14.1211C15.5273 13.6328 14.6484 13.6328 14.1406 14.1211ZM25.4102 32.9883C29.5898 32.9883 32.9492 29.6094 32.9492 25.4492C32.9492 21.2695 29.5898 17.9102 25.4102 17.9102C21.2305 17.9102 17.8711 21.2695 17.8711 25.4492C17.8711 29.6094 21.2305 32.9883 25.4102 32.9883Z" fill="black" fill-opacity="0.85"/>
 </g>
</svg>
