<?xml version="1.0" encoding="UTF-8"?>
<!--Generator: Apple Native CoreSVG 326-->
<!DOCTYPE svg
PUBLIC "-//W3C//DTD SVG 1.1//EN"
       "http://www.w3.org/Graphics/SVG/1.1/DTD/svg11.dtd">
<svg version="1.1" xmlns="http://www.w3.org/2000/svg" xmlns:xlink="http://www.w3.org/1999/xlink" viewBox="0 0 51.25 50.918">
 <g>
  <rect height="50.918" opacity="0" width="51.25" x="0" y="0"/>
  <path d="M50.8789 25.4688C50.8789 39.4922 39.4531 50.918 25.4297 50.918C11.4258 50.918 0 39.4922 0 25.4688C0 11.4648 11.4258 0.0390625 25.4297 0.0390625C39.4531 0.0390625 50.8789 11.4648 50.8789 25.4688ZM10.6055 32.832C9.88281 32.832 9.25781 33.3594 9.25781 34.0625C9.25781 34.8047 9.90234 35.332 10.6055 35.332L40.2344 35.332C40.9375 35.332 41.5625 34.8047 41.5625 34.0625C41.5625 33.3398 40.957 32.832 40.2344 32.832ZM17.7539 28.3984C17.7539 29.3164 17.9492 30.2148 18.2812 31.0547L32.5391 31.0547C32.8711 30.2148 33.0859 29.3164 33.0859 28.3984C33.0859 24.1602 29.6289 20.7031 25.4102 20.7031C21.2109 20.7031 17.7539 24.1602 17.7539 28.3984ZM10.625 26.7773C9.84375 26.7773 9.25781 27.3633 9.25781 28.0469C9.25781 28.75 9.84375 29.3359 10.625 29.3359L14.375 29.3359C15.1953 29.3359 15.7812 28.7891 15.7812 28.0469C15.7812 27.3438 15.1758 26.7773 14.375 26.7773ZM36.4453 26.7773C35.6445 26.7773 35.0391 27.3438 35.0391 28.0469C35.0391 28.7695 35.6836 29.3359 36.4453 29.3359L40.2148 29.3359C40.9961 29.3359 41.5625 28.7695 41.5625 28.0469C41.5625 27.3438 40.9961 26.7773 40.2148 26.7773ZM13.9648 16.9922C13.5156 17.5195 13.5156 18.2812 14.082 18.8477L16.7383 21.5039C17.2656 22.0508 18.0859 22.0898 18.5938 21.6016C19.1211 21.0742 19.0625 20.2344 18.5352 19.7266L15.8203 17.0312C15.2734 16.4453 14.4727 16.5234 13.9648 16.9922ZM35 17.0312L32.3047 19.7266C31.7383 20.2734 31.7188 21.0742 32.2461 21.6016C32.7539 22.0703 33.5547 22.0703 34.1016 21.5039L36.7383 18.8477C37.3047 18.2812 37.3242 17.5195 36.8555 16.9922C36.3477 16.4844 35.5273 16.4648 35 17.0312ZM24.1406 12.7344L24.1406 16.4844C24.1406 17.2461 24.707 17.8711 25.4102 17.8711C26.1328 17.8711 26.6797 17.2266 26.6797 16.4844L26.6797 12.7344C26.6797 11.9141 26.1133 11.3672 25.4102 11.3672C24.707 11.3672 24.1406 11.9141 24.1406 12.7344Z" fill="black" fill-opacity="0.85"/>
 </g>
</svg>
