<?xml version="1.0" encoding="UTF-8"?>
<!--Generator: Apple Native CoreSVG 326-->
<!DOCTYPE svg
PUBLIC "-//W3C//DTD SVG 1.1//EN"
       "http://www.w3.org/Graphics/SVG/1.1/DTD/svg11.dtd">
<svg version="1.1" xmlns="http://www.w3.org/2000/svg" xmlns:xlink="http://www.w3.org/1999/xlink" viewBox="0 0 68.8867 60.6055">
 <g>
  <rect height="60.6055" opacity="0" width="68.8867" x="0" y="0"/>
  <path d="M47.8906 29.082C47.8906 32.152 46.8511 35.0016 45.0975 37.2852L40.2335 37.2852C42.7758 35.4364 44.4336 32.4391 44.4336 29.082C44.4336 23.4961 39.8438 18.9062 34.2578 18.9062C28.6719 18.9062 24.082 23.4961 24.082 29.082C24.082 32.4391 25.7398 35.4364 28.2821 37.2852L23.4362 37.2852C21.6841 35.0016 20.6445 32.152 20.6445 29.082C20.6445 21.6211 26.8164 15.4492 34.2578 15.4492C41.7188 15.4492 47.8906 21.6211 47.8906 29.082ZM15.8984 28.4375C15.918 29.4141 15.0781 30.1758 13.9844 30.1758L7.07031 30.1758C5.97656 30.1758 5.17578 29.3945 5.17578 28.4375C5.17578 27.4805 5.97656 26.6992 7.07031 26.6992L13.9844 26.6992C15.0781 26.6992 15.8789 27.5 15.8984 28.4375ZM63.3398 28.4375C63.3398 29.4141 62.5586 30.1758 61.4648 30.1758L54.5312 30.1758C53.457 30.1758 52.6562 29.3945 52.6367 28.4375C52.6172 27.4805 53.457 26.6992 54.5312 26.6992L61.4648 26.6992C62.5586 26.6992 63.3398 27.5 63.3398 28.4375ZM16.2695 8.61328L21.1523 13.5156C21.9336 14.2773 21.9336 15.4102 21.2695 16.0938C20.6055 16.7773 19.4531 16.7578 18.6914 15.9766L13.7891 11.0938C13.0078 10.293 13.0078 9.19922 13.7109 8.53516C14.375 7.87109 15.4688 7.83203 16.2695 8.61328ZM54.8242 8.53516C55.4883 9.21875 55.5273 10.293 54.7266 11.0938L49.8242 15.9766C49.0625 16.7578 47.9297 16.7578 47.2656 16.0938C46.582 15.4297 46.6016 14.2773 47.3633 13.5156L52.2656 8.61328C53.0469 7.83203 54.1602 7.85156 54.8242 8.53516ZM35.9961 1.89453L35.9961 8.80859C35.9961 9.90234 35.2148 10.7031 34.2578 10.7227C33.3008 10.7422 32.5195 9.90234 32.5195 8.80859L32.5195 1.89453C32.5195 0.800781 33.3008 0 34.2578 0C35.2148 0 35.9961 0.800781 35.9961 1.89453Z" fill="black" fill-opacity="0.85"/>
  <path d="M8.4375 40.0586L60 40.0586C60.7812 40.0586 61.4062 39.4531 61.4062 38.6719C61.4062 37.8906 60.7812 37.2852 60 37.2852L8.4375 37.2852C7.65625 37.2852 7.03125 37.8906 7.03125 38.6719C7.03125 39.4531 7.65625 40.0586 8.4375 40.0586ZM10.8789 48.3398C11.5625 48.3398 12.0898 47.8125 12.0898 47.1289C12.0898 46.4258 11.5625 45.8984 10.8789 45.8984C10.1953 45.8984 9.64844 46.4258 9.64844 47.1289C9.64844 47.8125 10.1953 48.3398 10.8789 48.3398ZM21.5234 48.3398C22.207 48.3398 22.7539 47.8125 22.7539 47.1289C22.7539 46.4258 22.207 45.8984 21.5234 45.8984C20.8398 45.8984 20.293 46.4258 20.293 47.1289C20.293 47.8125 20.8398 48.3398 21.5234 48.3398ZM32.168 48.3398C32.8516 48.3398 33.3984 47.8125 33.3984 47.1289C33.3984 46.4258 32.8516 45.8984 32.168 45.8984C31.4844 45.8984 30.957 46.4258 30.957 47.1289C30.957 47.8125 31.4844 48.3398 32.168 48.3398ZM42.8125 48.3398C43.4961 48.3398 44.043 47.8125 44.043 47.1289C44.043 46.4258 43.4961 45.8984 42.8125 45.8984C42.1289 45.8984 41.6016 46.4258 41.6016 47.1289C41.6016 47.8125 42.1289 48.3398 42.8125 48.3398ZM53.457 48.3398C54.1602 48.3398 54.6875 47.8125 54.6875 47.1289C54.6875 46.4258 54.1602 45.8984 53.457 45.8984C52.7734 45.8984 52.2461 46.4258 52.2461 47.1289C52.2461 47.8125 52.7734 48.3398 53.457 48.3398ZM7.65625 54.4531C8.33984 54.4531 8.88672 53.9258 8.88672 53.2422C8.88672 52.5391 8.33984 52.0117 7.65625 52.0117C6.97266 52.0117 6.44531 52.5391 6.44531 53.2422C6.44531 53.9258 6.97266 54.4531 7.65625 54.4531ZM18.3008 54.4531C18.9844 54.4531 19.5312 53.9258 19.5312 53.2422C19.5312 52.5391 18.9844 52.0117 18.3008 52.0117C17.6172 52.0117 17.0898 52.5391 17.0898 53.2422C17.0898 53.9258 17.6172 54.4531 18.3008 54.4531ZM28.9453 54.4531C29.6484 54.4531 30.1758 53.9258 30.1758 53.2422C30.1758 52.5391 29.6484 52.0117 28.9453 52.0117C28.2617 52.0117 27.7344 52.5391 27.7344 53.2422C27.7344 53.9258 28.2617 54.4531 28.9453 54.4531ZM39.6094 54.4531C40.293 54.4531 40.8203 53.9258 40.8203 53.2422C40.8203 52.5391 40.293 52.0117 39.6094 52.0117C38.9258 52.0117 38.3789 52.5391 38.3789 53.2422C38.3789 53.9258 38.9258 54.4531 39.6094 54.4531ZM50.2539 54.4531C50.9375 54.4531 51.4648 53.9258 51.4648 53.2422C51.4648 52.5391 50.9375 52.0117 50.2539 52.0117C49.5703 52.0117 49.0234 52.5391 49.0234 53.2422C49.0234 53.9258 49.5703 54.4531 50.2539 54.4531ZM60.8984 54.4531C61.582 54.4531 62.1094 53.9258 62.1094 53.2422C62.1094 52.5391 61.582 52.0117 60.8984 52.0117C60.2148 52.0117 59.668 52.5391 59.668 53.2422C59.668 53.9258 60.2148 54.4531 60.8984 54.4531ZM15.0977 60.5664C15.7812 60.5664 16.3086 60.0391 16.3086 59.3359C16.3086 58.6523 15.7812 58.125 15.0977 58.125C14.4141 58.125 13.8672 58.6523 13.8672 59.3359C13.8672 60.0391 14.4141 60.5664 15.0977 60.5664ZM25.7422 60.5664C26.4258 60.5664 26.9531 60.0391 26.9531 59.3359C26.9531 58.6523 26.4258 58.125 25.7422 58.125C25.0586 58.125 24.5117 58.6523 24.5117 59.3359C24.5117 60.0391 25.0586 60.5664 25.7422 60.5664ZM36.3867 60.5664C37.0703 60.5664 37.5977 60.0391 37.5977 59.3359C37.5977 58.6523 37.0703 58.125 36.3867 58.125C35.7031 58.125 35.1562 58.6523 35.1562 59.3359C35.1562 60.0391 35.7031 60.5664 36.3867 60.5664ZM47.0312 60.5664C47.7148 60.5664 48.2617 60.0391 48.2617 59.3359C48.2617 58.6523 47.7148 58.125 47.0312 58.125C46.3477 58.125 45.8203 58.6523 45.8203 59.3359C45.8203 60.0391 46.3477 60.5664 47.0312 60.5664ZM57.6758 60.5664C58.3594 60.5664 58.9062 60.0391 58.9062 59.3359C58.9062 58.6523 58.3594 58.125 57.6758 58.125C56.9922 58.125 56.4648 58.6523 56.4648 59.3359C56.4648 60.0391 56.9922 60.5664 57.6758 60.5664Z" fill="black" fill-opacity="0.85"/>
 </g>
</svg>
