<?xml version="1.0" encoding="UTF-8"?>
<!--Generator: Apple Native CoreSVG 326-->
<!DOCTYPE svg
PUBLIC "-//W3C//DTD SVG 1.1//EN"
       "http://www.w3.org/Graphics/SVG/1.1/DTD/svg11.dtd">
<svg version="1.1" xmlns="http://www.w3.org/2000/svg" xmlns:xlink="http://www.w3.org/1999/xlink" viewBox="0 0 64.2188 60.6055">
 <g>
  <rect height="60.6055" opacity="0" width="64.2188" x="0" y="0"/>
  <path d="M45.4297 29.0625C45.4297 31.0177 44.9987 32.8861 44.2168 34.5703L19.6503 34.5703C18.8685 32.8861 18.4375 31.0177 18.4375 29.0625C18.4375 21.6797 24.5508 15.5469 31.9336 15.5469C39.3164 15.5469 45.4297 21.6797 45.4297 29.0625ZM13.5547 28.4375C13.5742 29.4141 12.7539 30.1758 11.6602 30.1758L4.72656 30.1758C3.65234 30.1758 2.85156 29.3945 2.85156 28.4375C2.85156 27.4805 3.65234 26.6992 4.72656 26.6992L11.6602 26.6992C12.7539 26.6992 13.5352 27.5 13.5547 28.4375ZM61.0156 28.4375C61.0156 29.4141 60.2148 30.1953 59.1211 30.1758L52.207 30.1758C51.1133 30.1758 50.3125 29.3945 50.293 28.4375C50.2734 27.4805 51.1133 26.6992 52.207 26.6992L59.1211 26.6992C60.2148 26.7188 61.0156 27.5 61.0156 28.4375ZM13.9258 8.61328L18.8281 13.5156C19.5898 14.2773 19.5898 15.4102 18.9258 16.0938C18.2812 16.7773 17.1289 16.7578 16.3477 15.9766L11.4648 11.0938C10.6641 10.293 10.6836 9.19922 11.3672 8.53516C12.0312 7.87109 13.1445 7.83203 13.9258 8.61328ZM52.4805 8.53516C53.1641 9.21875 53.1836 10.293 52.4023 11.0938L47.5 15.9766C46.7383 16.7578 45.6055 16.7578 44.9219 16.0938C44.2383 15.4297 44.2578 14.2773 45.0391 13.5156L49.9219 8.61328C50.7227 7.83203 51.8359 7.85156 52.4805 8.53516ZM33.6719 1.89453L33.6719 8.80859C33.6719 9.90234 32.8906 10.7031 31.9336 10.7227C30.9766 10.7422 30.1953 9.90234 30.1953 8.80859L30.1953 1.89453C30.1953 0.800781 30.9766 0 31.9336 0C32.8906 0 33.6719 0.800781 33.6719 1.89453Z" fill="black" fill-opacity="0.85"/>
  <path d="M6.11328 40.0586L57.6758 40.0586C58.457 40.0586 59.0625 39.4531 59.0625 38.6719C59.0625 37.8906 58.457 37.2852 57.6758 37.2852L6.11328 37.2852C5.33203 37.2852 4.70703 37.8906 4.70703 38.6719C4.70703 39.4531 5.33203 40.0586 6.11328 40.0586ZM8.53516 48.3398C9.21875 48.3398 9.76562 47.8125 9.76562 47.1289C9.76562 46.4258 9.21875 45.8984 8.53516 45.8984C7.85156 45.8984 7.32422 46.4258 7.32422 47.1289C7.32422 47.8125 7.85156 48.3398 8.53516 48.3398ZM19.1992 48.3398C19.8828 48.3398 20.4102 47.8125 20.4102 47.1289C20.4102 46.4258 19.8828 45.8984 19.1992 45.8984C18.4961 45.8984 17.9688 46.4258 17.9688 47.1289C17.9688 47.8125 18.4961 48.3398 19.1992 48.3398ZM29.8438 48.3398C30.5273 48.3398 31.0547 47.8125 31.0547 47.1289C31.0547 46.4258 30.5273 45.8984 29.8438 45.8984C29.1602 45.8984 28.6133 46.4258 28.6133 47.1289C28.6133 47.8125 29.1602 48.3398 29.8438 48.3398ZM40.4883 48.3398C41.1719 48.3398 41.6992 47.8125 41.6992 47.1289C41.6992 46.4258 41.1719 45.8984 40.4883 45.8984C39.8047 45.8984 39.2578 46.4258 39.2578 47.1289C39.2578 47.8125 39.8047 48.3398 40.4883 48.3398ZM51.1328 48.3398C51.8164 48.3398 52.3633 47.8125 52.3633 47.1289C52.3633 46.4258 51.8164 45.8984 51.1328 45.8984C50.4492 45.8984 49.9023 46.4258 49.9023 47.1289C49.9023 47.8125 50.4492 48.3398 51.1328 48.3398ZM5.33203 54.4531C6.01562 54.4531 6.54297 53.9258 6.54297 53.2422C6.54297 52.5391 6.01562 52.0117 5.33203 52.0117C4.64844 52.0117 4.10156 52.5391 4.10156 53.2422C4.10156 53.9258 4.64844 54.4531 5.33203 54.4531ZM15.9766 54.4531C16.6602 54.4531 17.1875 53.9258 17.1875 53.2422C17.1875 52.5391 16.6602 52.0117 15.9766 52.0117C15.293 52.0117 14.7461 52.5391 14.7461 53.2422C14.7461 53.9258 15.293 54.4531 15.9766 54.4531ZM26.6211 54.4531C27.3047 54.4531 27.8516 53.9258 27.8516 53.2422C27.8516 52.5391 27.3047 52.0117 26.6211 52.0117C25.9375 52.0117 25.3906 52.5391 25.3906 53.2422C25.3906 53.9258 25.9375 54.4531 26.6211 54.4531ZM37.2656 54.4531C37.9492 54.4531 38.4961 53.9258 38.4961 53.2422C38.4961 52.5391 37.9492 52.0117 37.2656 52.0117C36.582 52.0117 36.0547 52.5391 36.0547 53.2422C36.0547 53.9258 36.582 54.4531 37.2656 54.4531ZM47.9102 54.4531C48.5938 54.4531 49.1406 53.9258 49.1406 53.2422C49.1406 52.5391 48.5938 52.0117 47.9102 52.0117C47.2266 52.0117 46.6992 52.5391 46.6992 53.2422C46.6992 53.9258 47.2266 54.4531 47.9102 54.4531ZM58.5547 54.4531C59.2578 54.4531 59.7852 53.9258 59.7852 53.2422C59.7852 52.5391 59.2578 52.0117 58.5547 52.0117C57.8711 52.0117 57.3438 52.5391 57.3438 53.2422C57.3438 53.9258 57.8711 54.4531 58.5547 54.4531ZM12.7539 60.5664C13.4375 60.5664 13.9844 60.0391 13.9844 59.3359C13.9844 58.6523 13.4375 58.125 12.7539 58.125C12.0703 58.125 11.543 58.6523 11.543 59.3359C11.543 60.0391 12.0703 60.5664 12.7539 60.5664ZM23.3984 60.5664C24.082 60.5664 24.6289 60.0391 24.6289 59.3359C24.6289 58.6523 24.082 58.125 23.3984 58.125C22.7148 58.125 22.1875 58.6523 22.1875 59.3359C22.1875 60.0391 22.7148 60.5664 23.3984 60.5664ZM34.043 60.5664C34.7461 60.5664 35.2734 60.0391 35.2734 59.3359C35.2734 58.6523 34.7461 58.125 34.043 58.125C33.3594 58.125 32.832 58.6523 32.832 59.3359C32.832 60.0391 33.3594 60.5664 34.043 60.5664ZM44.707 60.5664C45.3906 60.5664 45.918 60.0391 45.918 59.3359C45.918 58.6523 45.3906 58.125 44.707 58.125C44.0234 58.125 43.4766 58.6523 43.4766 59.3359C43.4766 60.0391 44.0234 60.5664 44.707 60.5664ZM55.3516 60.5664C56.0352 60.5664 56.5625 60.0391 56.5625 59.3359C56.5625 58.6523 56.0352 58.125 55.3516 58.125C54.668 58.125 54.1211 58.6523 54.1211 59.3359C54.1211 60.0391 54.668 60.5664 55.3516 60.5664Z" fill="black" fill-opacity="0.85"/>
 </g>
</svg>
