<?xml version="1.0" encoding="UTF-8"?>
<!--Generator: Apple Native CoreSVG 326-->
<!DOCTYPE svg
PUBLIC "-//W3C//DTD SVG 1.1//EN"
       "http://www.w3.org/Graphics/SVG/1.1/DTD/svg11.dtd">
<svg version="1.1" xmlns="http://www.w3.org/2000/svg" xmlns:xlink="http://www.w3.org/1999/xlink" viewBox="0 0 51.25 50.918">
 <g>
  <rect height="50.918" opacity="0" width="51.25" x="0" y="0"/>
  <path d="M50.8789 25.4688C50.8789 39.4922 39.4531 50.918 25.4297 50.918C11.4258 50.918 0 39.4922 0 25.4688C0 11.4648 11.4258 0.0390625 25.4297 0.0390625C39.4531 0.0390625 50.8789 11.4648 50.8789 25.4688ZM11.5039 33.9258C10.8398 33.9258 10.2539 34.4531 10.2539 35.1172C10.2539 35.7812 10.8594 36.2891 11.5039 36.2891L39.3555 36.2891C40.0195 36.2891 40.625 35.7812 40.625 35.1172C40.625 34.4336 40.0391 33.9258 39.3555 33.9258ZM18.2227 29.8438C18.2227 30.7422 18.3984 31.6016 18.75 32.4023L32.1289 32.4023C32.4609 31.6016 32.6367 30.7422 32.6367 29.8438C32.6367 25.918 29.3945 22.6367 25.4297 22.6367C21.5039 22.6367 18.2227 25.918 18.2227 29.8438ZM11.5234 28.3398C10.8008 28.3398 10.2539 28.8867 10.2539 29.5508C10.2539 30.1953 10.8008 30.7422 11.5234 30.7422L15.0977 30.7422C15.8203 30.7422 16.3867 30.2344 16.3867 29.5508C16.3867 28.8672 15.8203 28.3398 15.0977 28.3398ZM35.7812 28.3398C35.0586 28.3398 34.4922 28.8672 34.4922 29.5508C34.4922 30.2344 35.0781 30.7422 35.7812 30.7422L39.3359 30.7422C40.0781 30.7422 40.625 30.2148 40.625 29.5508C40.625 28.8867 40.0781 28.3398 39.3359 28.3398ZM14.6875 19.1602C14.2383 19.6484 14.2383 20.3516 14.7852 20.8984L17.3047 23.4375C17.793 23.9258 18.5742 23.9648 19.043 23.4766C19.5312 22.9688 19.4531 22.207 18.9648 21.7188L16.4453 19.1797C15.8984 18.6523 15.1562 18.7109 14.6875 19.1602ZM34.4336 19.1797L31.9141 21.7188C31.4062 22.2266 31.3477 22.9688 31.8555 23.4766C32.3047 23.9453 33.0859 23.9453 33.5938 23.4375L36.0938 20.8984C36.6016 20.3516 36.6211 19.6484 36.1719 19.1602C35.7227 18.6719 34.9414 18.6719 34.4336 19.1797ZM24.2188 10.4102L24.2188 15.3711L24.2969 16.4062L23.9844 16.0938L22.1094 14.2383C21.875 14.0234 21.582 13.8867 21.2695 13.8867C20.6445 13.8867 20.2148 14.3359 20.2148 14.9414C20.2148 15.2539 20.293 15.5273 20.6055 15.8203L24.6289 19.6289C24.8828 19.8633 25.1562 19.9805 25.4297 19.9805C25.7031 19.9805 25.9766 19.8633 26.2305 19.6289L30.2734 15.8203C30.5859 15.5078 30.6641 15.2539 30.6641 14.9414C30.6641 14.3359 30.2148 13.8867 29.5898 13.8867C29.3164 13.8867 28.9648 14.0039 28.7695 14.2188L27.0508 16.0156L26.582 16.4648L26.6406 15.3711L26.6406 10.4102C26.6406 9.72656 26.1133 9.14062 25.4297 9.14062C24.7461 9.14062 24.2188 9.72656 24.2188 10.4102Z" fill="black" fill-opacity="0.85"/>
 </g>
</svg>
