<?xml version="1.0" encoding="UTF-8"?>
<!--Generator: Apple Native CoreSVG 326-->
<!DOCTYPE svg
PUBLIC "-//W3C//DTD SVG 1.1//EN"
       "http://www.w3.org/Graphics/SVG/1.1/DTD/svg11.dtd">
<svg version="1.1" xmlns="http://www.w3.org/2000/svg" xmlns:xlink="http://www.w3.org/1999/xlink" viewBox="0 0 71.1914 59.3555">
 <g>
  <rect height="59.3555" opacity="0" width="71.1914" x="0" y="0"/>
  <path d="M48.9062 43.7891C48.9062 45.7658 48.4657 47.6552 47.6666 49.3555L23.1537 49.3555C22.3546 47.6552 21.9141 45.7658 21.9141 43.7891C21.9141 36.4062 28.0273 30.2734 35.4102 30.2734C42.793 30.2734 48.9062 36.4062 48.9062 43.7891ZM17.0508 43.1836C17.0703 44.1211 16.25 44.9023 15.1367 44.9023L8.22266 44.9023C7.12891 44.9023 6.32812 44.1211 6.32812 43.1836C6.32812 42.2266 7.12891 41.4453 8.22266 41.4453L15.1367 41.4453C16.2305 41.4453 17.0312 42.2266 17.0508 43.1836ZM64.4922 43.1836C64.4922 44.1211 63.7109 44.9023 62.6172 44.9023L55.6836 44.9023C54.6094 44.9023 53.8086 44.1211 53.7891 43.1836C53.7695 42.2266 54.6094 41.4453 55.6836 41.4453L62.6172 41.4453C63.7109 41.4453 64.4922 42.2266 64.4922 43.1836ZM17.4219 23.3398L22.3047 28.2422C23.0859 29.0039 23.0859 30.1367 22.4219 30.8203C21.7578 31.5039 20.6055 31.4844 19.8438 30.7227L14.9414 25.8203C14.1602 25.0195 14.1602 23.9258 14.8633 23.2617C15.5273 22.5977 16.6211 22.5586 17.4219 23.3398ZM55.9766 23.2617C56.6406 23.9453 56.6797 25.0195 55.8789 25.8203L50.9766 30.7227C50.2148 31.4844 49.082 31.4844 48.418 30.8203C47.7344 30.1562 47.7539 29.0039 48.5156 28.2422L53.418 23.3398C54.1992 22.5586 55.3125 22.5781 55.9766 23.2617Z" fill="black" fill-opacity="0.85"/>
  <path d="M4.98047 55.5078L65.8398 55.5078C66.8555 55.5078 67.7148 54.7461 67.7148 53.8086C67.7148 52.8516 66.8555 52.0898 65.8398 52.0898L4.98047 52.0898C3.96484 52.0898 3.125 52.8516 3.125 53.8086C3.125 54.7461 3.96484 55.5078 4.98047 55.5078Z" fill="black" fill-opacity="0.85"/>
  <path d="M35.4102 3.78906C34.4727 3.78906 33.6719 4.62891 33.6719 5.68359L33.6719 15.4102L33.9258 19.3945L32.0508 17.2656L28.4375 13.6328C28.1055 13.3008 27.6953 13.125 27.2852 13.125C26.4062 13.125 25.7812 13.7305 25.7812 14.5898C25.7812 15.0586 25.957 15.4102 26.3281 15.7812L34.2383 23.2617C34.6875 23.6523 35.0195 23.8086 35.4102 23.8086C35.8008 23.8086 36.1328 23.6523 36.582 23.2617L44.4922 15.7812C44.8828 15.4102 45.0391 15.0586 45.0391 14.5898C45.0391 13.7305 44.4141 13.125 43.5547 13.125C43.125 13.125 42.7148 13.3008 42.4023 13.6328L38.9844 17.0703L36.9141 19.3945L37.168 15.4102L37.168 5.68359C37.168 4.62891 36.3672 3.78906 35.4102 3.78906Z" fill="black" fill-opacity="0.85"/>
 </g>
</svg>
