<?xml version="1.0" encoding="UTF-8"?>
<!--Generator: Apple Native CoreSVG 326-->
<!DOCTYPE svg
PUBLIC "-//W3C//DTD SVG 1.1//EN"
       "http://www.w3.org/Graphics/SVG/1.1/DTD/svg11.dtd">
<svg version="1.1" xmlns="http://www.w3.org/2000/svg" xmlns:xlink="http://www.w3.org/1999/xlink" viewBox="0 0 20.2148 57.0508">
 <g>
  <rect height="57.0508" opacity="0" width="20.2148" x="0" y="0"/>
  <path d="M9.92188 16.0742C14.375 16.0742 17.9688 12.5 17.9688 8.02734C17.9688 3.59375 14.375 0 9.92188 0C5.48828 0 1.89453 3.59375 1.89453 8.02734C1.89453 12.5 5.48828 16.0742 9.92188 16.0742ZM9.92188 13.2031C7.07031 13.2031 4.74609 10.8984 4.74609 8.02734C4.74609 5.17578 7.07031 2.87109 9.92188 2.87109C12.793 2.87109 15.0977 5.17578 15.0977 8.02734C15.0977 10.8984 12.793 13.2031 9.92188 13.2031ZM1.52344 18.2227L18.3008 18.2227C19.1602 18.2227 19.8438 17.5391 19.8438 16.6797C19.8438 15.8398 19.1602 15.1562 18.3008 15.1562L1.52344 15.1562C0.683594 15.1562 0 15.8398 0 16.6797C0 17.5391 0.683594 18.2227 1.52344 18.2227ZM1.52344 26.2695L18.3008 26.2695C19.1602 26.2695 19.8438 25.5859 19.8438 24.7266C19.8438 23.8867 19.1602 23.2031 18.3008 23.2031L1.52344 23.2031C0.683594 23.2031 0 23.8867 0 24.7266C0 25.5859 0.683594 26.2695 1.52344 26.2695ZM1.52344 34.5117L18.3008 34.5117C19.1602 34.5117 19.8438 33.8086 19.8438 32.9688C19.8438 32.1289 19.1602 31.4453 18.3008 31.4453L1.52344 31.4453C0.683594 31.4453 0 32.1289 0 32.9688C0 33.8086 0.683594 34.5117 1.52344 34.5117ZM3.30078 32.9102L3.30078 44.7461C3.30078 47.5586 4.72656 48.9258 7.40234 48.9258L12.4609 48.9258C15.1367 48.9258 16.543 47.5586 16.543 44.7461L16.543 32.9102ZM9.92188 57.0508C12.7148 57.0508 14.9805 54.7852 14.9805 51.9922C14.9805 49.1992 12.7148 46.9336 9.92188 46.9336C7.14844 46.9336 4.88281 49.1992 4.88281 51.9922C4.88281 54.7852 7.14844 57.0508 9.92188 57.0508ZM9.92188 54.2383C8.69141 54.2383 7.67578 53.2227 7.67578 51.9922C7.67578 50.7617 8.69141 49.7461 9.92188 49.7461C11.1523 49.7461 12.168 50.7617 12.168 51.9922C12.168 53.2227 11.1523 54.2383 9.92188 54.2383Z" fill="black" fill-opacity="0.85"/>
 </g>
</svg>
