<?xml version="1.0" encoding="UTF-8"?>
<!--Generator: Apple Native CoreSVG 326-->
<!DOCTYPE svg
PUBLIC "-//W3C//DTD SVG 1.1//EN"
       "http://www.w3.org/Graphics/SVG/1.1/DTD/svg11.dtd">
<svg version="1.1" xmlns="http://www.w3.org/2000/svg" xmlns:xlink="http://www.w3.org/1999/xlink" viewBox="0 0 79.6832 66.6384">
 <g>
  <rect height="66.6384" opacity="0" width="79.6832" x="0" y="0"/>
  <path d="M7.79081 65.4774C8.29862 66.3368 9.35331 66.5907 10.1541 66.1415L74.6658 28.9344C75.4471 28.5047 75.74 27.4305 75.2908 26.6102C74.783 25.7508 73.7088 25.5165 72.9275 25.9461L8.41581 63.1532C7.63456 63.6024 7.34159 64.6766 7.79081 65.4774ZM9.88065 52.6844L15.1736 49.6375L13.7674 47.1961L8.59159 50.1844C7.34159 50.9071 6.16971 50.5165 5.3494 49.0907L3.76737 46.3563C1.87284 43.0946 2.94706 40.0477 7.14628 36.8641L13.7478 31.8641L18.5721 22.7821C21.0721 18.0946 23.0642 16.1805 29.8611 12.2743L43.5525 4.36411C46.6385 2.58677 48.9822 2.39145 51.6385 3.64145L53.1033 4.32505C55.1346 5.30161 56.8338 6.80552 57.8299 8.5438L62.3221 16.2977C63.1619 17.7625 62.9471 18.8172 61.5994 19.579L57.4588 21.9813L58.865 24.4032L63.1424 21.9422C66.0525 20.2625 66.5213 17.9774 64.6658 14.7743L60.2713 7.13755C59.0017 4.96958 56.8338 2.99692 54.3142 1.80552L52.8494 1.10239C49.2752-0.596827 46.1111-0.34292 42.1463 1.94224L28.4549 9.83286C21.2478 13.993 18.8064 16.3172 16.0916 21.454L11.5603 30.0086L5.44706 34.618C-0.00216231 38.7391-1.34982 43.0946 1.34549 47.7625L3.08378 50.7704C4.68534 53.5438 7.18534 54.2469 9.88065 52.6844ZM23.6697 44.7157L50.4861 29.2469L49.0994 26.8055L22.2635 42.2938ZM21.658 51.2196C24.9588 49.325 26.0525 45.243 24.1385 41.9618C22.2439 38.661 18.1814 37.5672 14.8807 39.4813C11.5799 41.3758 10.4861 45.4383 12.4002 48.7391C14.2947 52.0204 18.3767 53.1141 21.658 51.2196ZM20.2517 48.7977C18.3182 49.911 15.9353 49.2665 14.8221 47.3329C13.7088 45.3993 14.3338 43.0165 16.2869 41.9032C18.2205 40.7899 20.6033 41.4149 21.7166 43.3485C22.8299 45.3016 22.2049 47.6649 20.2517 48.7977ZM57.0682 30.7704C60.3689 28.8758 61.4627 24.8133 59.5486 21.5125C57.6541 18.2118 53.5721 17.118 50.2908 19.0321C46.99 20.9266 45.8963 24.9891 47.8103 28.2899C49.7049 31.5907 53.7674 32.6844 57.0682 30.7704ZM55.6619 28.3485C53.7283 29.4618 51.3455 28.8368 50.2322 26.8836C49.1189 24.95 49.7439 22.5672 51.6971 21.454C53.6307 20.3407 56.0135 20.9657 57.1267 22.9188C58.24 24.8524 57.615 27.2352 55.6619 28.3485Z" fill="black" fill-opacity="0.85"/>
  <path d="M74.9783 66.5321C76.5994 66.5321 77.7322 65.7118 78.4549 64.5008C78.9041 63.7782 79.3142 62.5868 79.3142 61.786C79.3142 61.0829 78.8064 60.6336 78.1033 60.6336C77.5369 60.6336 77.1072 61.0243 76.99 61.6493C76.6775 63.1922 76.2478 64.286 74.9002 64.286C73.24 64.286 72.5174 61.7665 72.5174 58.3485C72.5174 54.5985 73.4744 52.4305 74.9002 52.4305C76.1307 52.4305 76.7166 53.661 76.9314 55.0672C77.0291 55.7508 77.4978 56.161 78.1619 56.161C78.8455 56.161 79.2557 55.6727 79.2557 54.9891C79.2557 54.0711 78.8064 52.6649 78.0447 51.7665C77.2635 50.7899 76.1697 50.204 74.8807 50.204C72.6932 50.204 71.4041 51.6883 70.7205 53.4266C70.0955 54.911 69.9392 56.6102 69.9392 58.3485C69.9392 60.3993 70.1346 62.4305 71.0525 64.1102C71.9119 65.6532 73.201 66.5321 74.9783 66.5321ZM48.7088 66.3954C49.49 66.3954 49.9978 65.8875 49.9978 65.0868L49.9978 59.286L54.2557 59.286L54.2557 65.0868C54.2557 65.8875 54.7635 66.3954 55.5447 66.3954C56.326 66.3954 56.8338 65.8875 56.8338 65.0868L56.8338 51.6493C56.8338 50.8485 56.326 50.3407 55.5447 50.3407C54.7635 50.3407 54.2557 50.8485 54.2557 51.6493L54.2557 57.1375L49.9978 57.1375L49.9978 51.6493C49.9978 50.8485 49.49 50.3407 48.7088 50.3407C47.9471 50.3407 47.4588 50.8485 47.4588 51.6493L47.4588 65.0868C47.4588 65.8875 47.9471 66.3954 48.7088 66.3954ZM60.2908 66.3954L63.0447 66.3954C67.1072 66.3954 68.4353 62.3719 68.4353 58.329C68.4353 53.954 66.9314 50.3407 63.0447 50.3407L60.2908 50.3407C59.5486 50.3407 59.0017 50.7899 59.0017 51.6688L59.0017 65.0672C59.0017 65.9461 59.5486 66.3954 60.2908 66.3954ZM61.5213 64.2469L61.5213 52.5086L62.7322 52.5086C65.3299 52.5086 65.8377 55.7508 65.8377 58.3485C65.8377 60.9461 65.3689 64.2469 62.7322 64.2469Z" fill="black" fill-opacity="0.85"/>
 </g>
</svg>
