<?xml version="1.0" encoding="UTF-8"?>
<!--Generator: Apple Native CoreSVG 326-->
<!DOCTYPE svg
PUBLIC "-//W3C//DTD SVG 1.1//EN"
       "http://www.w3.org/Graphics/SVG/1.1/DTD/svg11.dtd">
<svg version="1.1" xmlns="http://www.w3.org/2000/svg" xmlns:xlink="http://www.w3.org/1999/xlink" viewBox="0 0 83.7888 68.5134">
 <g>
  <rect height="68.5134" opacity="0" width="83.7888" x="0" y="0"/>
  <path d="M32.7342 50.7313C35.41 49.1883 36.3084 45.8485 34.7655 43.1727C33.2225 40.4969 29.8631 39.5985 27.1873 41.1415C24.5311 42.6844 23.6327 46.0438 25.1561 48.7196C26.6991 51.3758 30.0584 52.2743 32.7342 50.7313ZM68.0663 30.3407C70.742 28.7977 71.6405 25.4383 70.0975 22.7625C68.5545 20.1063 65.1952 19.2079 62.5389 20.7508C59.8827 22.2743 58.9647 25.6532 60.5077 28.3094C62.0506 30.9852 65.41 31.8836 68.0663 30.3407ZM65.6639 1.80552L64.1991 1.10239C60.6248-0.596827 57.4608-0.34292 53.4959 1.94224L39.8045 9.85239C32.5975 14.0125 30.1561 16.3172 27.4413 21.4735L22.91 30.0282L16.7967 34.6375C11.3475 38.7391 9.99985 43.0946 12.6952 47.7821L14.4334 50.7899C16.035 53.5438 18.535 54.2469 21.2303 52.704L24.1209 51.0243C23.8084 50.6532 23.5155 50.2625 23.2616 49.8133C21.1131 46.1024 22.3631 41.3758 26.0936 39.2469C29.8045 37.0985 34.5116 38.3485 36.66 42.079C36.9334 42.5282 37.1288 42.9774 37.285 43.4266L59.4725 30.6141C59.1405 30.2625 58.8475 29.8524 58.5936 29.4032C56.4647 25.7118 57.7342 20.9657 61.4256 18.8368C65.1561 16.6883 69.8631 17.9579 72.0116 21.6688C72.2655 22.118 72.4608 22.5672 72.617 23.036L74.492 21.9422C77.4022 20.2625 77.8709 17.9969 76.0155 14.7743L71.6209 7.13755C70.3514 4.96958 68.1834 3.01645 65.6639 1.80552Z" fill="black" fill-opacity="0.85"/>
  <path d="M10.742 55.536L5.74203 46.8641C4.98032 45.5165 3.43735 45.829 2.9686 47.1571L0.136565 54.5594C-0.25406 55.5555 0.21469 56.3758 1.26938 56.5321L9.08188 57.8016C10.4881 58.0555 11.5233 56.8641 10.742 55.536ZM15.7225 67.4891C16.2303 68.329 17.285 68.5829 18.0858 68.1532L82.578 30.9461C83.3788 30.4969 83.6717 29.4422 83.2225 28.6219C82.6952 27.7625 81.6209 27.5086 80.8397 27.9579L16.328 65.1649C15.5467 65.5946 15.2538 66.6688 15.7225 67.4891Z" fill="black" fill-opacity="0.85"/>
 </g>
</svg>
