<?xml version="1.0" encoding="UTF-8"?>
<!--Generator: Apple Native CoreSVG 326-->
<!DOCTYPE svg
PUBLIC "-//W3C//DTD SVG 1.1//EN"
       "http://www.w3.org/Graphics/SVG/1.1/DTD/svg11.dtd">
<svg version="1.1" xmlns="http://www.w3.org/2000/svg" xmlns:xlink="http://www.w3.org/1999/xlink" viewBox="0 0 82.2852 63.7305">
 <g>
  <rect height="63.7305" opacity="0" width="82.2852" x="0" y="0"/>
  <path d="M5.64453 46.5039L9.19922 46.5039C9.08203 45.8594 9.0625 45.332 9.0625 44.7461C9.0625 39.5898 13.125 35.7422 18.125 35.7422C23.3398 35.7422 27.207 39.7461 27.207 44.8047C27.207 45.5273 27.1094 46.0742 26.9922 46.5039L56.1328 46.5039C56.0742 45.9766 55.9961 45.5273 55.9961 44.7461C55.9961 39.5898 60.0781 35.7422 65.0586 35.7422C70.2734 35.7422 74.1406 39.7461 74.1406 44.8047C74.1406 45.332 74.1016 45.9766 73.9844 46.5039L76.2695 46.5039C80.1172 46.5039 81.9141 44.5312 81.9141 40.2734L81.9141 30.1562C81.9141 27.2656 80.8984 24.0234 79.0625 21.4062L77.9883 19.9023C75.3906 16.1914 72.1289 14.5703 66.875 14.5703L48.7305 14.5703C39.1602 14.5703 35.4102 15.4688 29.7656 19.0234L20.3516 24.9219L11.6211 26.0156C3.82812 26.9727 0 30.5273 0 36.7188L0 40.7031C0 44.375 2.08984 46.5039 5.64453 46.5039ZM18.125 51.1719C21.6797 51.1719 24.4727 48.3594 24.4727 44.8047C24.4727 41.2695 21.6797 38.457 18.125 38.457C14.5898 38.457 11.7773 41.2695 11.7773 44.8047C11.7773 48.3398 14.5898 51.1719 18.125 51.1719ZM65.0586 51.1719C68.6133 51.1719 71.4258 48.3398 71.4258 44.8047C71.4258 41.2695 68.6133 38.457 65.0586 38.457C61.543 38.457 58.7109 41.2891 58.7109 44.8047C58.7109 48.3398 61.5234 51.1719 65.0586 51.1719Z" fill="black" fill-opacity="0.85"/>
  <path d="M40.7031 10.918L71.4258 10.918C73.3594 10.918 74.3945 9.66797 74.3945 7.71484L74.3945 5.15625C74.3945 1.75781 72.6172 0 68.5547 0L59.3555 0C55.0391 0 51.582 1.07422 46.0547 3.47656L40.2539 6.09375C38.7305 6.75781 38.2812 7.71484 38.2812 8.71094C38.2812 10.1367 39.0039 10.918 40.7031 10.918Z" fill="black" fill-opacity="0.85"/>
 </g>
</svg>
