<?xml version="1.0" encoding="UTF-8"?>
<!--Generator: Apple Native CoreSVG 326-->
<!DOCTYPE svg
PUBLIC "-//W3C//DTD SVG 1.1//EN"
       "http://www.w3.org/Graphics/SVG/1.1/DTD/svg11.dtd">
<svg version="1.1" xmlns="http://www.w3.org/2000/svg" xmlns:xlink="http://www.w3.org/1999/xlink" viewBox="0 0 88.4375 40.0977">
 <g>
  <rect height="40.0977" opacity="0" width="88.4375" x="0" y="0"/>
  <path d="M33.1641 19.0625C29.8047 19.0625 27.5781 17.9297 25.5078 15.1953L18.5938 6.07422C17.207 4.23828 16.0352 3.73047 13.3203 3.73047L6.95312 3.73047C6.01562 3.73047 5.23438 2.94922 5.23438 1.99219C5.23438 1.05469 6.01562 0.273438 6.95312 0.273438L13.3203 0.273438C16.9336 0.273438 19.2578 1.30859 21.2891 3.94531L28.2617 13.0664C29.7852 15.0391 30.8398 15.6055 33.1641 15.6055L39.1016 15.6055L39.1016 13.2031C39.1016 11.6602 40.4492 11.2109 41.6016 11.9531L47.8711 15.9766C48.9844 16.6992 48.9648 18.0078 47.8906 18.6914L41.582 22.7344C40.4492 23.4766 39.1016 23.0273 39.1016 21.5039L39.1016 19.0625ZM19.5898 39.3555C23.418 39.3555 26.4258 36.3477 26.4258 32.5195C26.4258 28.7109 23.3984 25.6836 19.5898 25.6836C15.7812 25.6836 12.7539 28.7109 12.7539 32.5195C12.7539 36.3281 15.7812 39.3555 19.5898 39.3555ZM69.9609 39.3555C73.7695 39.3555 76.7969 36.3281 76.7969 32.5195C76.7969 28.7109 73.7695 25.6836 69.9609 25.6836C66.1914 25.6836 63.125 28.7305 63.125 32.5195C63.125 36.3281 66.1719 39.3555 69.9609 39.3555ZM85 7.36328L83.8672 5.72266C81.1133 1.69922 77.5586 0 71.9141 0L52.4023 0C42.1289 0 38.0859 0.976562 32.0117 4.78516L21.8945 11.1523L12.5 12.3047C4.14062 13.3398 0 17.1484 0 23.8281L0 28.1055C0 32.0508 2.24609 34.3555 6.07422 34.3555L10.2148 34.3555C10.0977 33.7695 10.0391 33.1641 10.0391 32.5195C10.0391 27.2266 14.2969 22.9688 19.5898 22.9688C24.8828 22.9688 29.1406 27.2266 29.1406 32.5195C29.1406 33.1641 29.082 33.7695 28.9648 34.3555L60.5859 34.3555C60.4688 33.7695 60.4102 33.1641 60.4102 32.5195C60.4102 27.2461 64.6875 22.9688 69.9609 22.9688C75.2734 22.9688 79.5312 27.2266 79.5312 32.5195C79.5312 33.1641 79.4531 33.7695 79.3359 34.3555L82.0117 34.3555C86.1523 34.3555 88.0664 32.207 88.0664 27.6172L88.0664 16.7578C88.0664 13.6523 86.9531 10.2148 85 7.36328Z" fill="black" fill-opacity="0.85"/>
 </g>
</svg>
