<?xml version="1.0" encoding="UTF-8"?>
<!--Generator: Apple Native CoreSVG 326-->
<!DOCTYPE svg
PUBLIC "-//W3C//DTD SVG 1.1//EN"
       "http://www.w3.org/Graphics/SVG/1.1/DTD/svg11.dtd">
<svg version="1.1" xmlns="http://www.w3.org/2000/svg" xmlns:xlink="http://www.w3.org/1999/xlink" viewBox="0 0 88.4375 60.7764">
 <g>
  <rect height="60.7764" opacity="0" width="88.4375" x="0" y="0"/>
  <path d="M19.5898 49.6948C23.418 49.6948 26.4258 46.687 26.4258 42.8589C26.4258 39.0503 23.3984 36.023 19.5898 36.023C15.7812 36.023 12.7539 39.0503 12.7539 42.8589C12.7539 46.6675 15.7812 49.6948 19.5898 49.6948ZM69.9609 49.6948C73.7695 49.6948 76.7969 46.6675 76.7969 42.8589C76.7969 39.0503 73.7695 36.023 69.9609 36.023C66.1914 36.023 63.125 39.0698 63.125 42.8589C63.125 46.6675 66.1719 49.6948 69.9609 49.6948ZM85 17.7027L83.8672 16.062C81.1133 12.0386 77.5586 10.3394 71.9141 10.3394L52.4023 10.3394C42.1289 10.3394 38.0859 11.3159 32.0117 15.1245L21.8945 21.4917L12.5 22.6441C4.14062 23.6792 0 27.4878 0 34.1675L0 38.4448C0 42.3902 2.24609 44.6948 6.07422 44.6948L10.2148 44.6948C10.0977 44.1089 10.0391 43.5034 10.0391 42.8589C10.0391 37.5659 14.2969 33.3081 19.5898 33.3081C24.8828 33.3081 29.1406 37.5659 29.1406 42.8589C29.1406 43.5034 29.082 44.1089 28.9648 44.6948L60.5859 44.6948C60.4688 44.1089 60.4102 43.5034 60.4102 42.8589C60.4102 37.5855 64.6875 33.3081 69.9609 33.3081C75.2734 33.3081 79.5312 37.5659 79.5312 42.8589C79.5312 43.5034 79.4531 44.1089 79.3359 44.6948L82.0117 44.6948C86.1523 44.6948 88.0664 42.5464 88.0664 37.9566L88.0664 27.0972C88.0664 23.9917 86.9531 20.5542 85 17.7027Z" fill="black" fill-opacity="0.85"/>
  <path d="M39.1211 48.9527C37.8711 48.9527 37.3633 49.9683 38.0078 51.023L43.4766 60.0073C44.1211 61.0425 45.3516 61.023 45.9766 60.0073L51.4844 51.023C52.1289 49.9683 51.6016 48.9527 50.3711 48.9527Z" fill="black" fill-opacity="0.85"/>
 </g>
</svg>
