<?xml version="1.0" encoding="UTF-8"?>
<!--Generator: Apple Native CoreSVG 326-->
<!DOCTYPE svg
PUBLIC "-//W3C//DTD SVG 1.1//EN"
       "http://www.w3.org/Graphics/SVG/1.1/DTD/svg11.dtd">
<svg version="1.1" xmlns="http://www.w3.org/2000/svg" xmlns:xlink="http://www.w3.org/1999/xlink" viewBox="0 0 88.4375 40.0977">
 <g>
  <rect height="40.0977" opacity="0" width="88.4375" x="0" y="0"/>
  <path d="M26.4258 32.5195C26.4258 36.3477 23.418 39.3555 19.5898 39.3555C15.7812 39.3555 12.7539 36.3281 12.7539 32.5195C12.7539 28.7109 15.7812 25.6836 19.5898 25.6836C23.3984 25.6836 26.4258 28.7109 26.4258 32.5195ZM76.7969 32.5195C76.7969 36.3281 73.7695 39.3555 69.9609 39.3555C66.1719 39.3555 63.125 36.3281 63.125 32.5195C63.125 28.7305 66.1914 25.6836 69.9609 25.6836C73.7695 25.6836 76.7969 28.7109 76.7969 32.5195ZM83.8672 5.72266L85 7.36328C86.9531 10.2148 88.0664 13.6523 88.0664 16.7578L88.0664 27.6172C88.0664 32.207 86.1523 34.3555 82.0117 34.3555L79.3359 34.3555C79.4531 33.7695 79.5312 33.1641 79.5312 32.5195C79.5312 27.2266 75.2734 22.9688 69.9609 22.9688C64.6875 22.9688 60.4102 27.2461 60.4102 32.5195C60.4102 33.1641 60.4688 33.7695 60.5859 34.3555L28.9648 34.3555C29.082 33.7695 29.1406 33.1641 29.1406 32.5195C29.1406 27.2266 24.8828 22.9688 19.5898 22.9688C14.2969 22.9688 10.0391 27.2266 10.0391 32.5195C10.0391 33.1641 10.0977 33.7695 10.2148 34.3555L6.07422 34.3555C2.24609 34.3555 0 32.0508 0 28.1055L0 23.8281C0 17.1484 4.14062 13.3398 12.5 12.3047L21.8945 11.1523L32.0117 4.78516C38.0859 0.976562 42.1289 0 52.4023 0L71.9141 0C77.5586 0 81.1133 1.69922 83.8672 5.72266ZM43.4766 16.7578L38.0078 25.7422C37.3633 26.7969 37.8711 27.8125 39.1211 27.8125L50.3711 27.8125C51.6016 27.8125 52.1289 26.7969 51.4844 25.7422L45.9766 16.7578C45.3516 15.7422 44.1211 15.7227 43.4766 16.7578Z" fill="black" fill-opacity="0.85"/>
 </g>
</svg>
