<?xml version="1.0" encoding="UTF-8"?>
<!--Generator: Apple Native CoreSVG 326-->
<!DOCTYPE svg
PUBLIC "-//W3C//DTD SVG 1.1//EN"
       "http://www.w3.org/Graphics/SVG/1.1/DTD/svg11.dtd">
<svg version="1.1" xmlns="http://www.w3.org/2000/svg" xmlns:xlink="http://www.w3.org/1999/xlink" viewBox="0 0 88.4375 73.2617">
 <g>
  <rect height="73.2617" opacity="0" width="88.4375" x="0" y="0"/>
  <path d="M26.4258 49.1016C26.4258 52.9297 23.418 55.9375 19.5898 55.9375C15.7812 55.9375 12.7539 52.9102 12.7539 49.1016C12.7539 45.293 15.7812 42.2656 19.5898 42.2656C23.3984 42.2656 26.4258 45.293 26.4258 49.1016ZM76.7969 49.1016C76.7969 52.9102 73.7695 55.9375 69.9609 55.9375C66.1719 55.9375 63.125 52.9102 63.125 49.1016C63.125 45.3125 66.1914 42.2656 69.9609 42.2656C73.7695 42.2656 76.7969 45.293 76.7969 49.1016ZM83.8672 22.3047L85 23.9453C86.9531 26.7969 88.0664 30.2344 88.0664 33.3398L88.0664 44.1992C88.0664 48.7891 86.1523 50.9375 82.0117 50.9375L79.3359 50.9375C79.4531 50.3516 79.5312 49.7461 79.5312 49.1016C79.5312 43.8086 75.2734 39.5508 69.9609 39.5508C64.6875 39.5508 60.4102 43.8281 60.4102 49.1016C60.4102 49.7461 60.4688 50.3516 60.5859 50.9375L28.9648 50.9375C29.082 50.3516 29.1406 49.7461 29.1406 49.1016C29.1406 43.8086 24.8828 39.5508 19.5898 39.5508C14.2969 39.5508 10.0391 43.8086 10.0391 49.1016C10.0391 49.7461 10.0977 50.3516 10.2148 50.9375L6.07422 50.9375C2.24609 50.9375 0 48.6328 0 44.6875L0 40.4102C0 33.7305 4.14062 29.9219 12.5 28.8867L21.8945 27.7344L32.0117 21.3672C33.5631 20.3944 34.982 19.6064 36.4063 18.9744L36.4062 21.8164C36.4062 25.7422 38.8477 28.2227 42.6172 28.2227L54.043 28.2227C57.832 28.2227 60.2539 25.7422 60.2539 21.8164L60.2539 16.582L71.9141 16.582C77.5586 16.582 81.1133 18.2812 83.8672 22.3047Z" fill="black" fill-opacity="0.85"/>
  <path d="M42.6172 25.2148L54.043 25.2148C56.0938 25.2148 57.1484 24.1406 57.1484 21.9531L57.1484 12.9492C57.1484 10.7422 56.0938 9.6875 54.043 9.6875L42.6172 9.6875C40.5664 9.6875 39.5117 10.7422 39.5117 12.9492L39.5117 21.9531C39.5117 24.1406 40.5664 25.2148 42.6172 25.2148ZM51.9922 11.6211L54.4336 11.6211L54.4336 6.79688C54.4336 4.12109 56.0547 2.42188 58.5547 2.42188C61.0742 2.42188 62.6758 4.12109 62.6758 6.79688L62.6758 9.58984C62.6758 10.2734 63.2227 10.8203 63.8867 10.8203C64.5508 10.8203 65.0977 10.2734 65.0977 9.58984L65.0977 7.12891C65.0977 2.77344 62.5391 0 58.5547 0C54.5898 0 51.9922 2.77344 51.9922 7.12891Z" fill="black" fill-opacity="0.85"/>
 </g>
</svg>
