<?xml version="1.0" encoding="UTF-8"?>
<!--Generator: Apple Native CoreSVG 326-->
<!DOCTYPE svg
PUBLIC "-//W3C//DTD SVG 1.1//EN"
       "http://www.w3.org/Graphics/SVG/1.1/DTD/svg11.dtd">
<svg version="1.1" xmlns="http://www.w3.org/2000/svg" xmlns:xlink="http://www.w3.org/1999/xlink" viewBox="0 0 82.2852 67.0411">
 <g>
  <rect height="67.0411" opacity="0" width="82.2852" x="0" y="0"/>
  <path d="M24.4727 46.46C24.4727 50.0147 21.6797 52.8272 18.125 52.8272C14.5898 52.8272 11.7773 49.9952 11.7773 46.46C11.7773 42.9248 14.5898 40.1123 18.125 40.1123C21.6797 40.1123 24.4727 42.9248 24.4727 46.46ZM71.4258 46.46C71.4258 49.4851 69.3663 51.9953 66.542 52.6504L58.8864 44.9948C59.5395 42.1885 62.0485 40.1123 65.0586 40.1123C68.6133 40.1123 71.4258 42.9248 71.4258 46.46ZM49.6361 48.1592L26.9922 48.1592C27.1094 47.7295 27.207 47.1827 27.207 46.46C27.207 41.4014 23.3398 37.3975 18.125 37.3975C13.125 37.3975 9.0625 41.2452 9.0625 46.4014C9.0625 46.9873 9.08203 47.5147 9.19922 48.1592L5.64453 48.1592C2.08984 48.1592 0 46.0303 0 42.3584L0 38.3741C0 32.1827 3.82812 28.628 11.6211 27.6709L20.3516 26.5772L25.0764 23.6168ZM77.9883 21.5577L79.0625 23.0616C80.8984 25.6788 81.9141 28.9209 81.9141 31.8116L81.9141 41.9288C81.9141 46.1866 80.1172 48.1592 76.2695 48.1592L73.9844 48.1592C74.1016 47.6319 74.1406 46.9873 74.1406 46.46C74.1406 41.4014 70.2734 37.3975 65.0586 37.3975C61.323 37.3975 58.0928 39.5621 56.7115 42.8199L32.824 18.9324C37.0411 16.8157 40.9744 16.2256 48.7305 16.2256L66.875 16.2256C72.1289 16.2256 75.3906 17.8467 77.9883 21.5577Z" fill="black" fill-opacity="0.85"/>
  <path d="M74.3945 6.81156L74.3945 9.37016C74.3945 11.3233 73.3594 12.5733 71.4258 12.5733L40.7031 12.5733C39.0039 12.5733 38.2812 11.792 38.2812 10.3663C38.2812 9.37016 38.7305 8.41313 40.2539 7.74906L46.0547 5.13188C51.582 2.72953 55.0391 1.65531 59.3555 1.65531L68.5547 1.65531C72.6172 1.65531 74.3945 3.41313 74.3945 6.81156Z" fill="black" fill-opacity="0.85"/>
  <path d="M69.1992 63.8428C69.8438 64.4873 70.918 64.4873 71.5625 63.8428C72.207 63.1592 72.207 62.1241 71.5625 61.4795L15.8594 5.79594C15.1953 5.15141 14.1602 5.13188 13.4961 5.79594C12.8516 6.44047 12.832 7.51469 13.4961 8.15922Z" fill="black" fill-opacity="0.85"/>
 </g>
</svg>
