<?xml version="1.0" encoding="UTF-8"?>
<!--Generator: Apple Native CoreSVG 326-->
<!DOCTYPE svg
PUBLIC "-//W3C//DTD SVG 1.1//EN"
       "http://www.w3.org/Graphics/SVG/1.1/DTD/svg11.dtd">
<svg version="1.1" xmlns="http://www.w3.org/2000/svg" xmlns:xlink="http://www.w3.org/1999/xlink" viewBox="0 0 60.8594 63.8477">
 <g>
  <rect height="63.8477" opacity="0" width="60.8594" x="0" y="0"/>
  <path d="M41.7969 47.5L28.9694 54.8991L37.508 40.077ZM51.9922 24.3555L56.3477 31.9336C58.2617 35.2148 57.4219 38.4961 54.2188 40.332L44.4922 45.957L39.3015 36.9636L48.0273 21.8164C48.1471 21.6076 48.2591 21.3987 48.3525 21.19C49.7724 21.6277 51.0384 22.6958 51.9922 24.3555Z" fill="black" fill-opacity="0.85"/>
  <path d="M28.2422 49.8633L27.5391 51.0989L27.5391 49.4578ZM38.1641 32.6953L29.8047 47.168L27.5391 45.8603L27.5391 26.5564ZM35.4297 7.53906L43.0078 11.9141C46.2891 13.8086 47.1875 17.0508 45.3516 20.2539L39.7266 29.9805L27.5391 22.9517L27.5391 9.19922C27.5391 9.01504 27.5348 8.83283 27.5155 8.65792C29.4315 6.24418 32.3915 5.77554 35.4297 7.53906Z" fill="black" fill-opacity="0.85"/>
  <path d="M3.10547 20.4297L24.4336 20.4297L24.4336 9.19922C24.4336 5.46875 22.0508 3.125 18.2422 3.125L9.49219 3.125C5.56641 3.125 3.10547 5.46875 3.10547 9.19922ZM3.10547 40.2734L24.4336 40.2734L24.4336 23.5352L3.10547 23.5352ZM9.49219 60.6836L18.2422 60.6836C22.0508 60.6836 24.4336 58.3398 24.4336 54.6094L24.4336 43.3789L3.10547 43.3789L3.10547 54.6094C3.10547 58.3398 5.56641 60.6836 9.49219 60.6836Z" fill="black" fill-opacity="0.85"/>
 </g>
</svg>
