<?xml version="1.0" encoding="UTF-8"?>
<!--Generator: Apple Native CoreSVG 326-->
<!DOCTYPE svg
PUBLIC "-//W3C//DTD SVG 1.1//EN"
       "http://www.w3.org/Graphics/SVG/1.1/DTD/svg11.dtd">
<svg version="1.1" xmlns="http://www.w3.org/2000/svg" xmlns:xlink="http://www.w3.org/1999/xlink" viewBox="0 0 51.25 50.918">
 <g>
  <rect height="50.918" opacity="0" width="51.25" x="0" y="0"/>
  <path d="M25.4297 50.8789C39.4727 50.8789 50.8789 39.4922 50.8789 25.4492C50.8789 11.4062 39.4727 0 25.4297 0C11.3867 0 0 11.4062 0 25.4492C0 39.4922 11.3867 50.8789 25.4297 50.8789ZM25.4297 47.2461C13.3789 47.2461 3.63281 37.5 3.63281 25.4492C3.63281 13.3984 13.3789 3.65234 25.4297 3.65234C37.4805 3.65234 47.2266 13.3984 47.2266 25.4492C47.2266 37.5 37.4805 47.2461 25.4297 47.2461Z" fill="black" fill-opacity="0.85"/>
  <path d="M17.168 35.8984C17.8906 35.8984 18.3789 35.3711 18.3789 34.6094L18.3789 30L19.9219 28.4766L24.7852 35.293C25.0586 35.6641 25.4102 35.8984 25.8789 35.8984C26.5234 35.8984 27.0312 35.4492 27.0312 34.8047C27.0312 34.5117 26.9141 34.2188 26.6992 33.9453L21.6797 26.9531L26.3867 21.9336C26.6797 21.6211 26.8359 21.4453 26.8359 21.0547C26.8359 20.4883 26.3477 20 25.7422 20C25.3906 20 25.0195 20.1953 24.7852 20.4492L18.4766 27.4023L18.3789 27.4023L18.3789 15.2734C18.3789 14.4922 17.8906 13.9453 17.168 13.9453C16.4453 13.9453 15.9375 14.4727 15.9375 15.2539L15.9375 34.6094C15.9375 35.3711 16.4453 35.8984 17.168 35.8984ZM31.1914 35.8984C31.7578 35.8984 32.3633 35.5469 32.3633 34.6094L32.3633 26.3867C32.3633 24.5312 33.0859 22.3438 35.3125 22.3438C35.8008 22.3438 36.25 22.3242 36.6211 22.1484C36.9531 22.0117 37.1484 21.7188 37.1484 21.2891C37.1484 20.4297 36.4258 20 35.5664 20C33.9062 20 32.793 21.4062 32.4219 23.0664L32.2461 23.0664L32.2461 21.2305C32.2461 20.5273 31.7773 20 31.1328 20C30.4883 20 30 20.5273 30 21.2305L30 34.6094C30 35.3906 30.4297 35.8984 31.1914 35.8984Z" fill="black" fill-opacity="0.85"/>
 </g>
</svg>
