<?xml version="1.0" encoding="UTF-8"?>
<!--Generator: Apple Native CoreSVG 326-->
<!DOCTYPE svg
PUBLIC "-//W3C//DTD SVG 1.1//EN"
       "http://www.w3.org/Graphics/SVG/1.1/DTD/svg11.dtd">
<svg version="1.1" xmlns="http://www.w3.org/2000/svg" xmlns:xlink="http://www.w3.org/1999/xlink" viewBox="0 0 55.8008 49.707">
 <g>
  <rect height="49.707" opacity="0" width="55.8008" x="0" y="0"/>
  <path d="M0 31.7383C4.19922 38.5938 15.1562 49.1406 29.9219 49.1406C39.3164 49.1406 41.9141 44.7461 47.3633 44.7461C51.9141 44.7461 53.7109 47.8125 54.4141 49.0039C54.5898 49.3945 54.9414 49.6289 55.1562 48.9062C55.293 48.3789 55.4297 47.6758 55.4297 46.8359C55.4297 44.4336 54.6875 39.8438 50.6836 34.8438C51.5625 32.3828 51.6602 29.668 51.6602 28.0469C51.6602 20.8008 47.5586 8.14453 34.0234 0C36.8359 3.96484 40.625 10.0391 40.625 18.4375C40.625 21.4844 39.7852 24.8438 39.1016 26.5039C31.7578 22.2461 17.6562 10.5078 12.0117 4.51172C16.543 11.4648 21.8945 17.7344 27.832 24.3359C19.8438 19.2773 12.4023 13.6328 5.46875 7.42188C12.1094 17.0703 20.5078 26.5625 31.6211 35.5273C28.4375 37.3047 25.1953 38.6914 19.6094 38.6914C12.8125 38.6914 4.51172 35.4102 0 31.7383Z" fill="black" fill-opacity="0.85"/>
 </g>
</svg>
