<?xml version="1.0" encoding="UTF-8"?>
<!--Generator: Apple Native CoreSVG 326-->
<!DOCTYPE svg
PUBLIC "-//W3C//DTD SVG 1.1//EN"
       "http://www.w3.org/Graphics/SVG/1.1/DTD/svg11.dtd">
<svg version="1.1" xmlns="http://www.w3.org/2000/svg" xmlns:xlink="http://www.w3.org/1999/xlink" viewBox="0 0 55.8008 49.707">
 <g>
  <rect height="49.707" opacity="0" width="55.8008" x="0" y="0"/>
  <path d="M51.6602 28.0469C51.6602 24.1406 50.4688 18.6523 47.2461 13.125C48.75 17.0117 49.7461 21.3867 49.7461 25.7227C49.7461 40.1367 38.0273 48.0078 24.082 48.0078C23.0664 48.0078 22.0898 47.9688 21.1523 47.8711C23.5156 48.6719 26.8945 49.1406 29.9219 49.1406C39.3164 49.1406 41.9141 44.7461 47.3633 44.7461C51.9141 44.7461 53.7109 47.8125 54.4141 49.0039C54.5898 49.3945 54.9414 49.6289 55.1562 48.9062C55.293 48.3789 55.4297 47.6758 55.4297 46.8359C55.4297 44.4336 54.6875 39.8438 50.6836 34.8438C51.5625 32.3828 51.6602 29.668 51.6602 28.0469ZM37.7734 2.61719C42.168 8.10547 45.0586 15.1562 45.0586 22.2266C45.0586 34.668 35.8789 43.457 22.832 43.457C15.0977 43.457 8.20312 39.8828 4.10156 37.0898C9.62891 42.9492 17.7344 46.7383 24.1406 46.7383C37.3438 46.7383 48.4766 37.7148 48.4766 24.2773C48.4766 15.7812 44.3945 8.00781 37.7734 2.61719ZM43.4766 21.1914C43.4766 13.0273 39.7266 5.29297 34.0234 0C36.8359 3.96484 40.625 10.0391 40.625 18.4375C40.625 21.4844 39.7852 24.8438 39.1016 26.5039C31.7578 22.2461 17.6562 10.5078 12.0117 4.51172C16.543 11.4648 21.8945 17.7344 27.832 24.3359C19.8438 19.2773 12.4023 13.6328 5.46875 7.42188C12.1094 17.0703 20.5078 26.5625 31.6211 35.5273C28.4375 37.3047 25.1953 38.6914 19.6094 38.6914C12.8125 38.6914 4.51172 35.4102 0 31.7383C5.3125 37.5195 13.2422 41.875 21.7383 41.875C33.3203 41.875 43.4766 34.8438 43.4766 21.1914Z" fill="black" fill-opacity="0.85"/>
 </g>
</svg>
