<?xml version="1.0" encoding="UTF-8"?>
<!--Generator: Apple Native CoreSVG 326-->
<!DOCTYPE svg
PUBLIC "-//W3C//DTD SVG 1.1//EN"
       "http://www.w3.org/Graphics/SVG/1.1/DTD/svg11.dtd">
<svg version="1.1" xmlns="http://www.w3.org/2000/svg" xmlns:xlink="http://www.w3.org/1999/xlink" viewBox="0 0 36.3672 55.1758">
 <g>
  <rect height="55.1758" opacity="0" width="36.3672" x="0" y="0"/>
  <path d="M35.9961 7.61719L35.9961 47.5781C35.9961 52.6367 33.457 55.1758 28.4766 55.1758L7.51953 55.1758C2.51953 55.1758 0 52.6367 0 47.5781L0 7.61719C0 2.57812 2.51953 0.0195312 7.51953 0.0195312L28.4766 0.0195312C33.457 0.0195312 35.9961 2.57812 35.9961 7.61719ZM8.82812 32.5977C7.07031 32.5977 6.28906 33.3594 6.28906 35.0977L6.28906 46.582C6.28906 48.3398 7.07031 49.082 8.82812 49.082L27.0703 49.082C28.8477 49.082 29.6289 48.3398 29.6289 46.582L29.6289 35.0977C29.6289 33.3594 28.8477 32.5977 27.0703 32.5977ZM8.82812 6.11328C7.07031 6.11328 6.28906 6.85547 6.28906 8.61328L6.28906 20.0977C6.28906 21.8359 7.07031 22.5977 8.82812 22.5977L27.0703 22.5977C28.8477 22.5977 29.6289 21.8359 29.6289 20.0977L29.6289 8.61328C29.6289 6.85547 28.8477 6.11328 27.0703 6.11328Z" fill="black" fill-opacity="0.85"/>
 </g>
</svg>
