<?xml version="1.0" encoding="UTF-8"?>
<!--Generator: Apple Native CoreSVG 326-->
<!DOCTYPE svg
PUBLIC "-//W3C//DTD SVG 1.1//EN"
       "http://www.w3.org/Graphics/SVG/1.1/DTD/svg11.dtd">
<svg version="1.1" xmlns="http://www.w3.org/2000/svg" xmlns:xlink="http://www.w3.org/1999/xlink" viewBox="0 0 57.1487 56.2012">
 <g>
  <rect height="56.2012" opacity="0" width="57.1487" x="0" y="0"/>
  <path d="M0.468864 55.7275C1.03527 56.2939 1.97277 56.2744 2.55871 55.6885L14.6486 43.5791L12.5782 41.4893L0.468864 53.5986C-0.136604 54.1846-0.175667 55.1416 0.468864 55.7275ZM32.8126 10.4736L29.2579 14.0479L35.3907 20.1807C35.7814 20.5908 35.8009 21.3135 35.3907 21.6846C34.9415 22.0947 34.3361 22.0947 33.8868 21.6846L27.7345 15.5322L24.004 19.2822L30.1564 25.3955C30.5665 25.8447 30.5665 26.5088 30.1759 26.9189C29.7267 27.3291 29.1017 27.3096 28.6525 26.9189L22.5392 20.7666L18.7696 24.5166L24.9025 30.6689C25.3126 31.0791 25.3321 31.7432 24.922 32.1533C24.4923 32.583 23.8478 32.583 23.4181 32.1533L17.2657 26.0205L13.5353 29.7705L19.6681 35.8838C20.0782 36.2744 20.0782 36.9385 19.6876 37.3682C19.2775 37.8174 18.6329 37.8174 18.1642 37.3877L12.0509 31.2354L9.10168 34.165C6.64074 36.6455 6.60168 39.6143 8.94543 41.9775L14.2384 47.29C16.6017 49.6533 19.6095 49.5752 22.0704 47.0947L45.7618 23.4229ZM31.9142 6.05957L50.1954 24.3408C50.879 25.0244 51.9728 25.0244 52.6368 24.3408C53.3204 23.6768 53.3204 22.5635 52.6368 21.8994L49.9611 19.2041L51.1525 18.0127C51.8361 17.3486 51.8556 16.2549 51.172 15.5908L47.2462 11.6846L50.7618 8.18848L53.8282 11.2744C54.5118 11.9385 55.6251 11.9385 56.2696 11.2744C56.9532 10.6104 56.9532 9.49707 56.2696 8.81348L47.9689 0.512695C47.2853-0.170898 46.1915-0.170898 45.5079 0.512695C44.8439 1.15723 44.8439 2.27051 45.5079 2.9541L48.5939 6.04004L45.1173 9.5166L40.6642 5.08301C40.0196 4.43848 38.9064 4.41895 38.2228 5.08301L37.0314 6.27441L34.3751 3.61816C33.672 2.91504 32.5978 2.9541 31.9142 3.61816C31.2501 4.30176 31.2111 5.35645 31.9142 6.05957Z" fill="black" fill-opacity="0.85"/>
 </g>
</svg>
