<?xml version="1.0" encoding="UTF-8"?>
<!--Generator: Apple Native CoreSVG 326-->
<!DOCTYPE svg
PUBLIC "-//W3C//DTD SVG 1.1//EN"
       "http://www.w3.org/Graphics/SVG/1.1/DTD/svg11.dtd">
<svg version="1.1" xmlns="http://www.w3.org/2000/svg" xmlns:xlink="http://www.w3.org/1999/xlink" viewBox="0 0 46.2891 45.918">
 <g>
  <rect height="45.918" opacity="0" width="46.2891" x="0" y="0"/>
  <path d="M45.918 7.53906L45.918 38.3984C45.918 43.3594 43.3594 45.918 38.3008 45.918L7.59766 45.918C2.55859 45.918 0 43.3984 0 38.3984L0 7.53906C0 2.53906 2.55859 0 7.59766 0L38.3008 0C43.3594 0 45.918 2.55859 45.918 7.53906ZM14.5898 11.1523C13.7305 11.1523 13.0859 11.6992 13.0859 12.6367C13.0859 13.5352 13.7305 14.1211 14.5898 14.1211L21.1133 14.1211L21.1133 32.8125C21.1133 33.9844 21.7383 34.8047 22.8711 34.8047C24.043 34.8047 24.6875 34.0234 24.6875 32.8125L24.6875 14.1211L31.3086 14.1211C32.1875 14.1211 32.832 13.5352 32.832 12.6367C32.832 11.6992 32.1875 11.1523 31.3086 11.1523Z" fill="black" fill-opacity="0.85"/>
 </g>
</svg>
