<?xml version="1.0" encoding="UTF-8"?>
<!--Generator: Apple Native CoreSVG 326-->
<!DOCTYPE svg
PUBLIC "-//W3C//DTD SVG 1.1//EN"
       "http://www.w3.org/Graphics/SVG/1.1/DTD/svg11.dtd">
<svg version="1.1" xmlns="http://www.w3.org/2000/svg" xmlns:xlink="http://www.w3.org/1999/xlink" viewBox="0 0 51.0742 43.9648">
 <g>
  <rect height="43.9648" opacity="0" width="51.0742" x="0" y="0"/>
  <path d="M25.4102 0C11.5039 0 0 11.5039 0 25.4297C0 32.3633 2.87109 38.7109 7.46094 43.3203C8.18359 44.043 9.27734 44.043 10.0586 43.3203C10.7812 42.6172 10.6055 41.5039 9.80469 40.6641C6.01562 36.7188 3.65234 31.3477 3.65234 25.4297C3.65234 13.3398 13.3398 3.63281 25.4102 3.63281C36.3867 3.63281 45.3711 11.6992 46.8359 22.207C47.0312 23.2227 47.8125 23.8672 48.8086 23.7891C49.9023 23.7109 50.6445 22.7539 50.4102 21.5625C48.6133 9.45312 38.0273 0 25.4102 0ZM48.6133 31.2891C49.7656 31.2891 50.7031 30.3516 50.7031 29.2188C50.7031 28.0664 49.7656 27.1484 48.6133 27.1484C47.4805 27.1484 46.543 28.0664 46.543 29.2188C46.543 30.3516 47.4805 31.2891 48.6133 31.2891ZM46.3867 38.1836C47.5195 38.1836 48.457 37.2461 48.457 36.1133C48.457 34.9609 47.5195 34.0234 46.3867 34.0234C45.2344 34.0234 44.3164 34.9609 44.3164 36.1133C44.3164 37.2461 45.2344 38.1836 46.3867 38.1836ZM42.1289 43.8672C43.2812 43.8672 44.2188 42.9297 44.2188 41.7969C44.2188 40.6445 43.2812 39.707 42.1289 39.707C40.9961 39.707 40.0586 40.6445 40.0586 41.7969C40.0586 42.9297 40.9961 43.8672 42.1289 43.8672Z" fill="black" fill-opacity="0.85"/>
  <path d="M23.2422 28.457C24.7852 29.9805 27.0312 29.9805 28.5742 28.457C30.0977 26.9141 30.0977 24.668 28.5742 23.1445C28.3008 22.8516 27.7148 22.4414 27.3633 22.168L15.0586 13.4766C14.5312 13.1055 14.0039 13.2031 13.6523 13.5352C13.3203 13.8867 13.2227 14.4141 13.5938 14.9219L22.3047 27.2461C22.5586 27.5977 22.9883 28.1836 23.2422 28.457Z" fill="black" fill-opacity="0.85"/>
 </g>
</svg>
