<?xml version="1.0" encoding="UTF-8"?>
<!--Generator: Apple Native CoreSVG 326-->
<!DOCTYPE svg
PUBLIC "-//W3C//DTD SVG 1.1//EN"
       "http://www.w3.org/Graphics/SVG/1.1/DTD/svg11.dtd">
<svg version="1.1" xmlns="http://www.w3.org/2000/svg" xmlns:xlink="http://www.w3.org/1999/xlink" viewBox="0 0 65 43.9423">
 <g>
  <rect height="43.9423" opacity="0" width="65" x="0" y="0"/>
  <path d="M41.5234 21.9614C41.5625 16.9614 41.1523 12.3716 39.8438 7.74265C38.3594 2.74265 35.3711 0.887184 29.5312 0.887184L28.2227 0.887184C13.5156 0.887184 0 10.6137 0 21.9614C0 33.3091 13.5156 42.9966 28.2227 42.9966L29.5312 42.9966C35.3906 42.9966 38.3789 41.1606 39.8438 36.1606C41.1523 31.5317 41.5625 26.9419 41.5234 21.9614ZM38.0469 21.9614C38.0859 27.3911 37.6172 31.3169 36.5234 35.2231C35.6055 38.3091 33.6328 39.5591 29.5312 39.5591L28.2227 39.5591C15.5078 39.5591 3.45703 31.3364 3.45703 21.9614C3.45703 12.5864 15.5078 4.32468 28.2227 4.32468L29.5312 4.32468C33.5352 4.32468 35.5664 5.53562 36.5234 8.69968C37.6172 12.5864 38.0859 16.5317 38.0469 21.9614ZM62.8906 10.6919L43.7109 10.6919C43.9258 11.8442 44.082 13.0356 44.2383 14.188L62.8906 14.1684C63.8086 14.1684 64.6289 13.3872 64.6289 12.4302C64.6289 11.4927 63.8281 10.6919 62.8906 10.6919ZM62.8906 20.2231L44.6094 20.2231C44.6289 20.9067 44.6289 23.0161 44.6094 23.6802L62.8906 23.6802C63.8281 23.6802 64.6289 22.9184 64.6289 21.9809C64.6289 21.0434 63.8281 20.2231 62.8906 20.2231ZM62.8906 29.7544L44.2383 29.7739C44.082 30.9067 43.9258 32.0591 43.7109 33.2309L62.8906 33.2114C63.8281 33.2114 64.6289 32.4302 64.6289 31.4927C64.6289 30.5552 63.8281 29.7544 62.8906 29.7544ZM50.4297 40.8872C48.6523 42.6645 50.9961 45.0278 52.832 43.3091C57.5195 38.6606 58.418 30.2036 55.2734 22.2153L54.8242 21.063C52.0703 14.0122 52.4805 6.82468 56.0938 3.01609C57.8906 1.25828 55.5273-1.12453 53.6719 0.594215C48.9648 5.26218 48.1055 13.6997 51.25 21.688L51.6992 22.8403C54.4922 29.9106 54.043 37.0786 50.4297 40.8872Z" fill="black" fill-opacity="0.85"/>
 </g>
</svg>
