<?xml version="1.0" encoding="UTF-8"?>
<!--Generator: Apple Native CoreSVG 326-->
<!DOCTYPE svg
PUBLIC "-//W3C//DTD SVG 1.1//EN"
       "http://www.w3.org/Graphics/SVG/1.1/DTD/svg11.dtd">
<svg version="1.1" xmlns="http://www.w3.org/2000/svg" xmlns:xlink="http://www.w3.org/1999/xlink" viewBox="0 0 51.25 50.918">
 <g>
  <rect height="50.918" opacity="0" width="51.25" x="0" y="0"/>
  <path d="M25.4297 50.8789C39.4727 50.8789 50.8789 39.4922 50.8789 25.4492C50.8789 11.4062 39.4727 0 25.4297 0C11.3867 0 0 11.4062 0 25.4492C0 39.4922 11.3867 50.8789 25.4297 50.8789ZM25.4297 47.2461C13.3789 47.2461 3.63281 37.5 3.63281 25.4492C3.63281 13.3984 13.3789 3.65234 25.4297 3.65234C37.4805 3.65234 47.2266 13.3984 47.2266 25.4492C47.2266 37.5 37.4805 47.2461 25.4297 47.2461Z" fill="black" fill-opacity="0.85"/>
  <path d="M25.4102 12.6953C20.5273 12.6953 14.9609 13.5938 12.2656 16.4062C11.2109 17.4219 10.6055 18.75 10.6055 20.4102C10.6055 21.5039 10.9375 23.0469 12.1094 23.2812C12.5 23.4766 12.9297 23.457 13.4961 23.3594L17.1875 22.7539C18.457 22.5391 19.0625 22.0703 19.4141 20.8398L20 18.5938C20.1562 18.1836 20.2734 18.0078 20.7812 17.8516C21.7969 17.4609 23.418 17.2656 25.4102 17.2656C27.4219 17.2656 29.043 17.4609 30.0586 17.8516C30.5664 18.0078 30.6836 18.1836 30.8203 18.5938L31.4258 20.8398C31.7578 22.0703 32.3828 22.5391 33.6523 22.7539L37.3242 23.3594C37.8906 23.457 38.3398 23.4766 38.7109 23.2812C39.8828 23.0469 40.2148 21.5039 40.2148 20.4102C40.2148 18.75 39.6094 17.4219 38.5547 16.4062C35.8594 13.5938 30.3125 12.6953 25.4102 12.6953ZM13.6719 31.0742L16.0547 31.0742C16.9727 31.0742 17.4805 30.5859 17.4805 29.6484L17.4805 27.2461C17.4805 26.3477 16.9727 25.8203 16.0547 25.8203L13.6719 25.8203C12.7539 25.8203 12.2266 26.3477 12.2266 27.2461L12.2266 29.6484C12.2266 30.5859 12.7539 31.0742 13.6719 31.0742ZM20.7227 31.0742L23.0859 31.0742C24.0039 31.0742 24.5312 30.5859 24.5312 29.6484L24.5312 27.2461C24.5312 26.3477 24.0039 25.8203 23.0859 25.8203L20.7227 25.8203C19.7656 25.8203 19.2188 26.3477 19.2188 27.2461L19.2188 29.6484C19.2188 30.5859 19.7656 31.0742 20.7227 31.0742ZM27.6758 31.0742L30.0586 31.0742C30.9766 31.0742 31.543 30.5859 31.543 29.6484L31.543 27.2461C31.543 26.3477 30.9766 25.8203 30.0586 25.8203L27.6758 25.8203C26.7578 25.8203 26.2305 26.3477 26.2305 27.2461L26.2305 29.6484C26.2305 30.5859 26.7578 31.0742 27.6758 31.0742ZM34.6875 31.0742L37.0508 31.0742C38.0078 31.0742 38.5547 30.5859 38.5547 29.6484L38.5547 27.2461C38.5547 26.3477 38.0078 25.8203 37.0508 25.8203L34.6875 25.8203C33.7891 25.8203 33.2422 26.3477 33.2422 27.2461L33.2422 29.6484C33.2422 30.5859 33.7891 31.0742 34.6875 31.0742ZM13.6523 38.125L16.0156 38.125C16.9727 38.125 17.4805 37.5781 17.4805 36.6602L17.4805 34.2773C17.4805 33.3594 16.9727 32.8125 16.0156 32.8125L13.6523 32.8125C12.7344 32.8125 12.2266 33.3594 12.2266 34.2773L12.2266 36.6602C12.2266 37.5781 12.7344 38.125 13.6523 38.125ZM20.6641 38.125L30.0977 38.125C31.0352 38.125 31.5625 37.5781 31.5625 36.6602L31.5625 34.2773C31.5625 33.3594 31.0352 32.8125 30.0977 32.8125L20.6641 32.8125C19.7461 32.8125 19.2188 33.3594 19.2188 34.2773L19.2188 36.6602C19.2188 37.5781 19.7461 38.125 20.6641 38.125ZM34.7461 38.125L37.1094 38.125C38.0469 38.125 38.5547 37.5781 38.5547 36.6602L38.5547 34.2773C38.5547 33.3594 38.0469 32.8125 37.1094 32.8125L34.7461 32.8125C33.8086 32.8125 33.2617 33.3594 33.2617 34.2773L33.2617 36.6602C33.2617 37.5781 33.8086 38.125 34.7461 38.125Z" fill="black" fill-opacity="0.85"/>
 </g>
</svg>
