<?xml version="1.0" encoding="UTF-8"?>
<!--Generator: Apple Native CoreSVG 326-->
<!DOCTYPE svg
PUBLIC "-//W3C//DTD SVG 1.1//EN"
       "http://www.w3.org/Graphics/SVG/1.1/DTD/svg11.dtd">
<svg version="1.1" xmlns="http://www.w3.org/2000/svg" xmlns:xlink="http://www.w3.org/1999/xlink" viewBox="0 0 55.5273 53.1055">
 <g>
  <rect height="53.1055" opacity="0" width="55.5273" x="0" y="0"/>
  <path d="M3.06641 47.6758L52.0898 47.6758L52.0898 46.1719C52.0898 45.332 51.582 44.8242 50.7227 44.8242L49.1211 44.8242L49.1211 16.6797L51.3867 16.6797C52.5781 16.6797 53.2422 15.8398 53.2422 14.9609C53.2422 14.3164 52.8906 13.75 52.1094 13.3008L30.5273 0.839844C29.5703 0.292969 28.5547 0 27.5781 0C26.6016 0 25.5664 0.292969 24.6289 0.839844L3.04688 13.3008C2.24609 13.75 1.91406 14.3164 1.91406 14.9609C1.91406 15.8398 2.57812 16.6797 3.76953 16.6797L6.05469 16.6797L6.05469 44.8242L4.45312 44.8242C3.57422 44.8242 3.06641 45.332 3.06641 46.1719ZM9.31641 44.8242L9.31641 13.7109L26.4453 4.0625C26.7773 3.86719 27.1875 3.75 27.5781 3.75C27.9492 3.75 28.3398 3.86719 28.7109 4.0625L45.8594 13.7109L45.8594 44.8242ZM1.73828 53.0664L53.418 53.0664C54.375 53.0664 55.1562 52.2852 55.1562 51.3477C55.1562 50.3906 54.375 49.6094 53.418 49.6094L1.73828 49.6094C0.78125 49.6094 0 50.3906 0 51.3477C0 52.2852 0.78125 53.0664 1.73828 53.0664Z" fill="black" fill-opacity="0.85"/>
  <path d="M27.6172 38.0273C28.3594 38.0273 28.9062 37.4609 28.9062 36.6992L28.9062 21.8164L35.0781 21.8164C35.6836 21.8164 36.1133 21.3477 36.1133 20.7812C36.1133 20.1953 35.6836 19.7656 35.0781 19.7656L20.1172 19.7656C19.5117 19.7656 19.082 20.1953 19.082 20.7812C19.082 21.3477 19.5117 21.8164 20.1172 21.8164L26.3086 21.8164L26.3086 36.6992C26.3086 37.4609 26.875 38.0273 27.6172 38.0273ZM19.0039 16.0352C19.0039 16.4844 19.3555 16.7969 19.7852 16.7969L35.332 16.7969C35.7812 16.7969 36.1133 16.4648 36.1133 16.0352C36.1133 15.625 35.7812 15.2734 35.332 15.2734L19.7852 15.2734C19.3555 15.2734 19.0039 15.625 19.0039 16.0352Z" fill="black" fill-opacity="0.85"/>
 </g>
</svg>
