<?xml version="1.0" encoding="UTF-8"?>
<!--Generator: Apple Native CoreSVG 326-->
<!DOCTYPE svg
PUBLIC "-//W3C//DTD SVG 1.1//EN"
       "http://www.w3.org/Graphics/SVG/1.1/DTD/svg11.dtd">
<svg version="1.1" xmlns="http://www.w3.org/2000/svg" xmlns:xlink="http://www.w3.org/1999/xlink" viewBox="0 0 51.25 50.918">
 <g>
  <rect height="50.918" opacity="0" width="51.25" x="0" y="0"/>
  <path d="M25.4297 50.8789C39.4727 50.8789 50.8789 39.4922 50.8789 25.4492C50.8789 11.4062 39.4727 0 25.4297 0C11.3867 0 0 11.4062 0 25.4492C0 39.4922 11.3867 50.8789 25.4297 50.8789ZM25.4297 47.2461C13.3789 47.2461 3.63281 37.5 3.63281 25.4492C3.63281 13.3984 13.3789 3.65234 25.4297 3.65234C37.4805 3.65234 47.2266 13.3984 47.2266 25.4492C47.2266 37.5 37.4805 47.2461 25.4297 47.2461Z" fill="black" fill-opacity="0.85"/>
  <path d="M25.4492 37.0703C26.1914 37.0703 26.7383 36.5039 26.7383 35.7422L26.7383 20.8398L32.9102 20.8398C33.4961 20.8398 33.9453 20.3906 33.9453 19.8047C33.9453 19.2383 33.4961 18.7891 32.9102 18.7891L17.9297 18.7891C17.3438 18.7891 16.8945 19.2383 16.8945 19.8047C16.8945 20.3906 17.3438 20.8398 17.9297 20.8398L24.1406 20.8398L24.1406 35.7422C24.1406 36.5039 24.707 37.0703 25.4492 37.0703ZM16.8359 15.0781C16.8359 15.5273 17.168 15.8398 17.5977 15.8398L33.1641 15.8398C33.5938 15.8398 33.9453 15.4883 33.9453 15.0781C33.9453 14.668 33.5938 14.3164 33.1641 14.3164L17.5977 14.3164C17.168 14.3164 16.8359 14.668 16.8359 15.0781Z" fill="black" fill-opacity="0.85"/>
 </g>
</svg>
