<?xml version="1.0" encoding="UTF-8"?>
<!--Generator: Apple Native CoreSVG 326-->
<!DOCTYPE svg
PUBLIC "-//W3C//DTD SVG 1.1//EN"
       "http://www.w3.org/Graphics/SVG/1.1/DTD/svg11.dtd">
<svg version="1.1" xmlns="http://www.w3.org/2000/svg" xmlns:xlink="http://www.w3.org/1999/xlink" viewBox="0 0 51.25 50.918">
 <g>
  <rect height="50.918" opacity="0" width="51.25" x="0" y="0"/>
  <path d="M50.8789 25.4492C50.8789 39.4531 39.4531 50.8789 25.4297 50.8789C11.4258 50.8789 0 39.4531 0 25.4492C0 11.4258 11.4258 0 25.4297 0C39.4531 0 50.8789 11.4258 50.8789 25.4492ZM24.1797 11.7383C24.4922 12.7148 24.6289 13.7695 24.6289 14.8633C24.6289 20.6445 20 25.293 14.1992 25.293C13.3203 25.293 12.4414 25.1953 11.6016 24.9805C11.6016 25.1562 11.582 25.3125 11.582 25.5078C11.582 33.0664 17.832 39.3164 25.3906 39.3164C25.8203 39.3164 26.2891 39.2969 26.7188 39.2383C26.3672 38.2422 26.2305 37.1484 26.2305 36.0547C26.2305 30.2539 30.8398 25.6055 36.6406 25.6055C37.5195 25.6055 38.3594 25.7031 39.1992 25.9375C39.1992 25.7812 39.1992 25.6445 39.1992 25.5078C39.1992 17.9102 32.9492 11.6992 25.3906 11.6992C24.9805 11.6992 24.5898 11.6992 24.1797 11.7383ZM28.0273 36.0547C28.0273 37.0703 28.1836 38.0664 28.5352 38.9453C33.9062 37.6562 38.125 33.2031 39.0234 27.7539C38.2812 27.5391 37.5 27.4219 36.6406 27.4219C31.7383 27.4219 28.0273 31.1328 28.0273 36.0547ZM11.7969 23.1445C12.5391 23.3594 13.3594 23.4766 14.1992 23.4766C19.082 23.4766 22.8125 19.7656 22.8125 14.8633C22.8125 13.8672 22.6562 12.9102 22.3438 12.0508C16.9727 13.2617 12.7539 17.6953 11.7969 23.1445Z" fill="black" fill-opacity="0.85"/>
 </g>
</svg>
