<?xml version="1.0" encoding="UTF-8"?>
<!--Generator: Apple Native CoreSVG 326-->
<!DOCTYPE svg
PUBLIC "-//W3C//DTD SVG 1.1//EN"
       "http://www.w3.org/Graphics/SVG/1.1/DTD/svg11.dtd">
<svg version="1.1" xmlns="http://www.w3.org/2000/svg" xmlns:xlink="http://www.w3.org/1999/xlink" viewBox="0 0 51.25 50.918">
 <g>
  <rect height="50.918" opacity="0" width="51.25" x="0" y="0"/>
  <path d="M25.4297 50.8789C39.4727 50.8789 50.8789 39.4922 50.8789 25.4492C50.8789 11.4062 39.4727 0 25.4297 0C11.3867 0 0 11.4062 0 25.4492C0 39.4922 11.3867 50.8789 25.4297 50.8789ZM25.4297 47.2461C13.3789 47.2461 3.63281 37.5 3.63281 25.4492C3.63281 13.3984 13.3789 3.65234 25.4297 3.65234C37.4805 3.65234 47.2266 13.3984 47.2266 25.4492C47.2266 37.5 37.4805 47.2461 25.4297 47.2461Z" fill="black" fill-opacity="0.85"/>
  <path d="M37.5 13.3008C34.1602 10 28.457 10.4297 24.6289 14.2578C22.4023 16.5234 21.4258 19.3945 21.4648 22.0508C21.4844 26.0352 20.9961 28.3008 17.2656 31.9922L18.8086 33.5352C22.5 29.8047 24.6875 29.4141 28.6914 29.3555C31.4258 29.2969 34.2578 28.4375 36.5234 26.1719C40.3516 22.3047 40.8203 16.6016 37.5 13.3008ZM36.0547 14.7266C38.6328 17.3047 38.2617 21.6016 35.0977 24.7266C31.9336 27.8711 27.6758 28.2617 25.0977 25.6836C22.5195 23.125 22.9102 18.8477 26.0938 15.7031C29.2188 12.5391 33.4961 12.1484 36.0547 14.7266ZM11.6992 38.1641L12.5781 39.082C13.1641 39.6484 14.0039 39.6484 14.5703 39.082L19.7266 33.8867C20.3125 33.3008 20.3125 32.5195 19.7266 31.9336L18.8477 31.0156C18.3008 30.4688 17.4609 30.4492 16.875 31.0156L11.6992 36.2305C11.1523 36.7969 11.1328 37.5977 11.6992 38.1641ZM36.8945 23.8477L38.0469 22.5977L28.2812 12.832L27.0703 14.0039ZM33.0273 27.5977L34.3164 26.4844L24.4727 16.6406L23.2617 17.832ZM23.0859 23.1641L23.8281 24.8047L35.0391 13.5938L33.6328 12.6172ZM26.3867 27.0312L27.9297 27.8516L38.3008 17.4805L37.3047 16.0547Z" fill="black" fill-opacity="0.85"/>
 </g>
</svg>
