<?xml version="1.0" encoding="UTF-8"?>
<!--Generator: Apple Native CoreSVG 326-->
<!DOCTYPE svg
PUBLIC "-//W3C//DTD SVG 1.1//EN"
       "http://www.w3.org/Graphics/SVG/1.1/DTD/svg11.dtd">
<svg version="1.1" xmlns="http://www.w3.org/2000/svg" xmlns:xlink="http://www.w3.org/1999/xlink" viewBox="0 0 52.7148 54.0039">
 <g>
  <rect height="54.0039" opacity="0" width="52.7148" x="0" y="0"/>
  <path d="M48.3203 5.72266C42.3242-0.273438 31.9531 0.507812 24.9805 7.5C20.8594 11.6016 19.1602 16.7578 19.1602 21.6602C19.1992 28.9844 18.3398 33.3008 11.5625 40.0781L13.9844 42.5C20.7422 35.7422 24.9609 35.0391 32.3242 34.8828C37.3438 34.7852 42.3828 33.2031 46.543 29.082C53.5352 22.0508 54.3164 11.7188 48.3203 5.72266ZM46.0156 8.02734C50.957 12.9883 50.3906 20.6445 44.2383 26.7578C38.0664 32.9102 30.4297 33.5156 25.4883 28.5547C20.5078 23.6328 21.0938 15.9766 27.2656 9.82422C33.418 3.67188 41.0742 3.08594 46.0156 8.02734ZM23.1836 30.8789C23.9453 31.6992 24.8828 32.3438 25.8398 32.9102C23.0664 33.3398 20.5273 34.2969 17.6562 36.3867C19.7656 33.5547 20.7031 30.9766 21.1328 28.2227C21.6602 29.1797 22.3633 30.0781 23.1836 30.8789ZM0.761719 51.582L2.42188 53.2422C3.45703 54.2578 4.98047 54.2578 5.99609 53.2422L15.5664 43.6523C16.6016 42.6172 16.6016 41.0938 15.5664 40.0586L13.9258 38.418C12.8906 37.4023 11.3672 37.4023 10.332 38.418L0.761719 48.0078C-0.253906 49.0234-0.253906 50.5273 0.761719 51.582ZM20.7617 21.3281L21.9531 22.5195L39.9609 4.49219L38.7891 3.30078ZM22.2266 27.0312L23.3984 28.2227L45.6836 5.95703L44.5117 4.74609ZM25.8008 30.6445L27.0117 31.8359L49.2969 9.55078L48.1055 8.35938ZM31.543 32.0898L32.7148 33.2812L50.7422 15.2539L49.5508 14.082ZM37.3828 4.16016L49.7266 16.5234L50.918 15.332L38.5547 2.98828ZM31.5039 5.19531L48.8086 22.5391L50.0195 21.3477L32.6953 4.02344ZM27.6172 8.125L45.8203 26.3672L47.0508 25.1758L28.8086 6.91406ZM24.3945 11.3477L42.5977 29.5898L43.8281 28.3984L25.5664 10.1367ZM21.4844 15.2344L38.7891 32.5391L39.9609 31.3672L22.6562 14.0625ZM20.3516 21.0156L32.8711 33.5352L34.082 32.3438L21.5625 19.8242Z" fill="black" fill-opacity="0.85"/>
 </g>
</svg>
