<?xml version="1.0" encoding="UTF-8"?>
<!--Generator: Apple Native CoreSVG 326-->
<!DOCTYPE svg
PUBLIC "-//W3C//DTD SVG 1.1//EN"
       "http://www.w3.org/Graphics/SVG/1.1/DTD/svg11.dtd">
<svg version="1.1" xmlns="http://www.w3.org/2000/svg" xmlns:xlink="http://www.w3.org/1999/xlink" viewBox="0 0 51.25 50.918">
 <g>
  <rect height="50.918" opacity="0" width="51.25" x="0" y="0"/>
  <path d="M0.332031 21.3672C1.75781 21.7383 3.28125 21.9336 4.84375 21.9336C13.9453 21.9336 20.8789 15 20.8789 5.85938C20.8789 4.02344 20.5664 2.20703 20.0195 0.605469C9.96094 2.77344 1.97266 11.0352 0.332031 21.3672ZM25.4297 50.8789C26.3281 50.8789 27.168 50.8203 28.0273 50.7227C27.4219 48.8672 27.1289 46.9531 27.1289 44.8828C27.1289 34.3164 35.5859 25.8594 46.1328 25.8594C47.7734 25.8594 49.2969 26.0352 50.8398 26.4453C50.8594 26.1133 50.8789 25.7812 50.8789 25.4492C50.8789 11.4258 39.4727 0 25.4297 0C24.5898 0 23.7695 0.0585938 22.9883 0.136719C23.5742 1.93359 23.8477 3.84766 23.8477 5.85938C23.8477 16.4258 15.3906 24.9023 4.84375 24.9023C3.20312 24.9023 1.5625 24.6875 0.0585938 24.3164C0.0195312 24.6875 0 25.0586 0 25.4492C0 39.4922 11.3867 50.8789 25.4297 50.8789ZM30.9961 50.2539C41.0352 47.9883 48.9062 39.6484 50.5664 29.3945C49.1797 29.0234 47.7148 28.8086 46.1328 28.8086C37.0117 28.8086 30.0977 35.7422 30.0977 44.8828C30.0977 46.7969 30.3711 48.6133 30.9961 50.2539Z" fill="black" fill-opacity="0.85"/>
 </g>
</svg>
