<?xml version="1.0" encoding="UTF-8"?>
<!--Generator: Apple Native CoreSVG 326-->
<!DOCTYPE svg
PUBLIC "-//W3C//DTD SVG 1.1//EN"
       "http://www.w3.org/Graphics/SVG/1.1/DTD/svg11.dtd">
<svg version="1.1" xmlns="http://www.w3.org/2000/svg" xmlns:xlink="http://www.w3.org/1999/xlink" viewBox="0 0 51.25 50.918">
 <g>
  <rect height="50.918" opacity="0" width="51.25" x="0" y="0"/>
  <path d="M25.4297 50.8789C39.4727 50.8789 50.8789 39.4922 50.8789 25.4492C50.8789 11.4062 39.4727 0 25.4297 0C11.3867 0 0 11.4062 0 25.4492C0 39.4922 11.3867 50.8789 25.4297 50.8789ZM25.4297 47.2461C13.3789 47.2461 3.63281 37.5 3.63281 25.4492C3.63281 13.3984 13.3789 3.65234 25.4297 3.65234C37.4805 3.65234 47.2266 13.3984 47.2266 25.4492C47.2266 37.5 37.4805 47.2461 25.4297 47.2461Z" fill="black" fill-opacity="0.85"/>
  <path d="M19.043 35.9375L40.1172 35.9375C41.4258 35.9375 41.8164 34.7852 41.3086 33.75L30.9961 13.0664C30.6836 12.4805 30.1758 12.1289 29.5898 12.1289C29.0039 12.1289 28.4766 12.4609 28.2031 13.0469L17.8711 33.75C17.3438 34.7852 17.7539 35.9375 19.043 35.9375ZM23.9258 34.1992L28.9258 23.5156C29.1992 22.8906 29.9219 22.8906 30.2539 23.5156L35.2344 34.1992L31.4062 34.1992L29.5898 25.9961L27.7734 34.1992ZM18.0664 30.2734L16.7773 24.4141L15.4492 30.2734L12.7148 30.2734L16.3086 22.5977C16.5234 22.0898 17.0703 22.1875 17.2656 22.5977L20.5664 29.6875L22.9297 25L17.9492 15.0391C17.6953 14.5703 17.2461 14.2383 16.7773 14.2383C16.2695 14.2383 15.8203 14.5703 15.5859 15.0391L8.06641 30.1367C7.63672 31.0156 7.98828 32.0312 9.08203 32.0312L19.3945 32.0312L20.2539 30.2734Z" fill="black" fill-opacity="0.85"/>
 </g>
</svg>
