<?xml version="1.0" encoding="UTF-8"?>
<!--Generator: Apple Native CoreSVG 326-->
<!DOCTYPE svg
PUBLIC "-//W3C//DTD SVG 1.1//EN"
       "http://www.w3.org/Graphics/SVG/1.1/DTD/svg11.dtd">
<svg version="1.1" xmlns="http://www.w3.org/2000/svg" xmlns:xlink="http://www.w3.org/1999/xlink" viewBox="0 0 72.1161 51.4648">
 <g>
  <rect height="51.4648" opacity="0" width="72.1161" x="0" y="0"/>
  <path d="M21.5854 6.91406L31.3614 26.5377L26.3816 36.5284L20.0229 22.9297C19.7885 22.4609 19.4174 22.2266 18.9877 22.2266C18.5581 22.2266 18.1674 22.4609 17.9526 22.9297L10.062 39.8047L16.0581 39.8047L18.9877 26.8164L21.9174 39.8047L24.7485 39.8047L23.1033 43.1055L2.64009 43.1055C0.237748 43.1055-0.563033 40.8984 0.393998 38.9844L16.3901 6.91406C16.9174 5.85938 17.894 5.17578 18.9877 5.17578C20.062 5.17578 21.0385 5.85938 21.5854 6.91406Z" fill="black" fill-opacity="0.85"/>
  <path d="M23.8706 51.4648L68.6948 51.4648C71.5463 51.4648 72.4057 48.9648 71.2534 46.6992L49.3588 2.75391C48.7143 1.44531 47.5229 0.664062 46.2729 0.664062C45.0229 0.664062 43.8706 1.40625 43.2456 2.69531L21.312 46.6992C20.1792 48.9648 21.0385 51.4648 23.8706 51.4648ZM33.9682 48.125L44.8276 24.9023C45.1596 24.2383 45.687 23.9258 46.2729 23.9258C46.8588 23.9258 47.4057 24.2383 47.7182 24.9023L58.5776 48.125L50.2573 48.125L46.2729 30.2148L42.2885 48.125Z" fill="black" fill-opacity="0.85"/>
 </g>
</svg>
