<?xml version="1.0" encoding="UTF-8"?>
<!--Generator: Apple Native CoreSVG 326-->
<!DOCTYPE svg
PUBLIC "-//W3C//DTD SVG 1.1//EN"
       "http://www.w3.org/Graphics/SVG/1.1/DTD/svg11.dtd">
<svg version="1.1" xmlns="http://www.w3.org/2000/svg" xmlns:xlink="http://www.w3.org/1999/xlink" viewBox="0 0 72.0966 51.4648">
 <g>
  <rect height="51.4648" opacity="0" width="72.0966" x="0" y="0"/>
  <path d="M21.5854 6.91406L31.3614 26.5377L29.524 30.2239L19.2221 9.51172C19.1635 9.41406 19.0659 9.33594 18.9877 9.33594C18.8901 9.33594 18.812 9.41406 18.7534 9.51172L3.89009 39.3945C3.79244 39.6094 3.8315 39.8047 4.12447 39.8047L10.0424 39.8047L17.9526 22.9297C18.1674 22.4609 18.5581 22.2266 18.9877 22.2266C19.4174 22.2266 19.7885 22.4609 20.0229 22.9297L26.3897 36.5121L23.1033 43.1055L2.64009 43.1055C0.237748 43.1055-0.563033 40.8984 0.393998 38.9844L16.3901 6.91406C16.9174 5.85938 17.894 5.17578 18.9877 5.17578C20.062 5.17578 21.0385 5.85938 21.5854 6.91406ZM16.048 39.8047L21.9097 39.8047L18.9877 26.8164Z" fill="black" fill-opacity="0.85"/>
  <path d="M23.8706 51.4648L68.6948 51.4648C71.5268 51.4648 72.3862 48.9648 71.2338 46.6992L49.3002 2.69531C48.6948 1.40625 47.5229 0.664062 46.2729 0.664062C45.0229 0.664062 43.8706 1.40625 43.2456 2.69531L21.312 46.6992C20.1792 48.9648 21.0385 51.4648 23.8706 51.4648ZM25.2377 48.1445C24.6518 48.1445 24.5151 47.7148 24.7495 47.2266L45.8627 4.84375C46.0581 4.45312 46.5073 4.45312 46.6831 4.84375L67.8159 47.2266C68.0698 47.7539 67.9526 48.1445 67.4448 48.1445ZM33.187 49.7656L41.8784 49.7656L46.2729 30.2148L50.687 49.7656L59.3588 49.7656L47.7182 24.9023C47.4057 24.2383 46.8588 23.9258 46.2729 23.9258C45.687 23.9258 45.1596 24.2383 44.8276 24.9023Z" fill="black" fill-opacity="0.85"/>
 </g>
</svg>
