<?xml version="1.0" encoding="UTF-8"?>
<!--Generator: Apple Native CoreSVG 326-->
<!DOCTYPE svg
PUBLIC "-//W3C//DTD SVG 1.1//EN"
       "http://www.w3.org/Graphics/SVG/1.1/DTD/svg11.dtd">
<svg version="1.1" xmlns="http://www.w3.org/2000/svg" xmlns:xlink="http://www.w3.org/1999/xlink" viewBox="0 0 51.25 50.918">
 <g>
  <rect height="50.918" opacity="0" width="51.25" x="0" y="0"/>
  <path d="M25.4297 50.8789C39.4727 50.8789 50.8789 39.4922 50.8789 25.4492C50.8789 11.4062 39.4727 0 25.4297 0C11.3867 0 0 11.4062 0 25.4492C0 39.4922 11.3867 50.8789 25.4297 50.8789ZM25.4297 47.2461C13.3789 47.2461 3.63281 37.5 3.63281 25.4492C3.63281 13.3984 13.3789 3.65234 25.4297 3.65234C37.4805 3.65234 47.2266 13.3984 47.2266 25.4492C47.2266 37.5 37.4805 47.2461 25.4297 47.2461Z" fill="black" fill-opacity="0.85"/>
  <path d="M12.9297 37.3633L37.9297 37.3633C39.4922 37.3633 39.9414 35.9766 39.3359 34.7461L27.3438 10.6836C26.4648 8.90625 24.4141 8.94531 23.5742 10.6445L11.543 34.7461C10.9375 35.9766 11.3867 37.3633 12.9297 37.3633ZM18.6914 35.3906L24.6484 22.6562C24.8242 22.2852 25.1367 22.1094 25.4297 22.1094C25.7617 22.1094 26.0547 22.2852 26.2305 22.6562L32.168 35.3906L27.6172 35.3906L25.4297 25.5859L23.2422 35.3906Z" fill="black" fill-opacity="0.85"/>
 </g>
</svg>
