<?xml version="1.0" encoding="UTF-8"?>
<!--Generator: Apple Native CoreSVG 326-->
<!DOCTYPE svg
PUBLIC "-//W3C//DTD SVG 1.1//EN"
       "http://www.w3.org/Graphics/SVG/1.1/DTD/svg11.dtd">
<svg version="1.1" xmlns="http://www.w3.org/2000/svg" xmlns:xlink="http://www.w3.org/1999/xlink" viewBox="0 0 42.3047 53.8477">
 <g>
  <rect height="53.8477" opacity="0" width="42.3047" x="0" y="0"/>
  <path d="M14.043 15.5859L33.6523 15.5859C34.4336 15.5859 35.0977 14.9414 35.0977 14.1602C35.0977 13.3594 34.4336 12.7148 33.6523 12.7148L14.043 12.7148C13.2617 12.7148 12.6172 13.3594 12.6172 14.1602C12.6172 14.9414 13.2617 15.5859 14.043 15.5859ZM14.043 22.4219L28.5547 22.4219C29.3359 22.4219 29.9805 21.7773 29.9805 20.9766C29.9805 20.1953 29.3359 19.5508 28.5547 19.5508L14.043 19.5508C13.2617 19.5508 12.6172 20.1953 12.6172 20.9766C12.6172 21.7773 13.2617 22.4219 14.043 22.4219ZM7.40234 53.8477L40.2148 53.8477C41.1719 53.8477 41.9336 53.0859 41.9336 52.1094C41.9336 51.3867 41.4258 50.7227 40.7617 50.4688C37.4414 48.9453 36.7188 44.7656 39.9023 41.4648C40.8789 40.4688 41.9336 39.1406 41.9336 36.6992L41.9336 7.63672C41.9336 2.59766 39.4141 0.0390625 34.4141 0.0390625L7.51953 0.0390625C2.51953 0.0390625 0 2.57812 0 7.63672L0 46.4648C0 51.3281 2.53906 53.8477 7.40234 53.8477ZM3.45703 40.332L3.45703 7.71484C3.45703 4.98047 4.90234 3.49609 7.69531 3.49609L34.2188 3.49609C37.0312 3.49609 38.4766 4.98047 38.4766 7.71484L38.4766 36.25C38.4766 38.0859 37.4609 39.082 35.6055 39.082L7.73438 39.082C5.9375 39.082 4.57031 39.5117 3.45703 40.332ZM7.57812 50.3906C4.92188 50.3906 3.45703 48.9453 3.45703 46.4258C3.45703 44.043 5.11719 42.5391 7.75391 42.5391L33.9844 42.5391C34.4727 42.5391 34.8828 42.4805 35.2734 42.3828C33.8867 45.1953 34.1797 48.1641 35.8984 50.3906ZM6.48438 40.918L9.35547 40.918L9.35547 2.57812L6.48438 2.57812Z" fill="black" fill-opacity="0.85"/>
 </g>
</svg>
