<?xml version="1.0" encoding="UTF-8"?>
<!--Generator: Apple Native CoreSVG 326-->
<!DOCTYPE svg
PUBLIC "-//W3C//DTD SVG 1.1//EN"
       "http://www.w3.org/Graphics/SVG/1.1/DTD/svg11.dtd">
<svg version="1.1" xmlns="http://www.w3.org/2000/svg" xmlns:xlink="http://www.w3.org/1999/xlink" viewBox="0 0 50.6055 43.0664">
 <g>
  <rect height="43.0664" opacity="0" width="50.6055" x="0" y="0"/>
  <path d="M31.2695 3.45703L48.4766 3.45703C49.4531 3.45703 50.2344 2.71484 50.2344 1.73828C50.2344 0.761719 49.4531 0 48.4766 0L31.2695 0C30.293 0 29.5508 0.761719 29.5508 1.73828C29.5508 2.71484 30.293 3.45703 31.2695 3.45703ZM31.2695 16.6602L48.4766 16.6602C49.4531 16.6602 50.2344 15.8984 50.2344 14.9219C50.2344 13.9453 49.4531 13.1836 48.4766 13.1836L31.2695 13.1836C30.293 13.1836 29.5508 13.9453 29.5508 14.9219C29.5508 15.8984 30.293 16.6602 31.2695 16.6602ZM1.73828 29.8438L48.4766 29.8438C49.4531 29.8438 50.2344 29.082 50.2344 28.1055C50.2344 27.1289 49.4531 26.3867 48.4766 26.3867L1.73828 26.3867C0.742188 26.3867 0 27.1289 0 28.1055C0 29.082 0.742188 29.8438 1.73828 29.8438ZM1.73828 43.0273L48.4766 43.0273C49.4531 43.0273 50.2344 42.2852 50.2344 41.3086C50.2344 40.3125 49.4531 39.5703 48.4766 39.5703L1.73828 39.5703C0.742188 39.5703 0 40.3125 0 41.3086C0 42.2852 0.742188 43.0273 1.73828 43.0273Z" fill="black" fill-opacity="0.85"/>
  <path d="M2.5 18.5938C3.71094 18.5938 4.66797 17.6367 4.66797 16.4258L4.66797 11.6211C4.66797 10.957 5.01953 10.6055 5.68359 10.6055L13.3008 10.6055L13.3008 14.1406C13.3008 15.7031 14.707 16.4844 16.0742 15.4492L23.3398 9.90234C24.2773 9.17969 24.2773 7.85156 23.3398 7.12891L16.0742 1.5625C14.707 0.527344 13.3008 1.30859 13.3008 2.87109L13.3008 6.28906L5.41016 6.28906C2.16797 6.28906 0.351562 8.00781 0.351562 11.0938L0.351562 16.4258C0.351562 17.6367 1.30859 18.5938 2.5 18.5938Z" fill="black" fill-opacity="0.85"/>
 </g>
</svg>
