<?xml version="1.0" encoding="UTF-8"?>
<!--Generator: Apple Native CoreSVG 326-->
<!DOCTYPE svg
PUBLIC "-//W3C//DTD SVG 1.1//EN"
       "http://www.w3.org/Graphics/SVG/1.1/DTD/svg11.dtd">
<svg version="1.1" xmlns="http://www.w3.org/2000/svg" xmlns:xlink="http://www.w3.org/1999/xlink" viewBox="0 0 42.3047 53.8477">
 <g>
  <rect height="53.8477" opacity="0" width="42.3047" x="0" y="0"/>
  <path d="M10.9766 13.6328C10.1562 13.6328 9.55078 13.0078 9.55078 12.207C9.55078 11.4453 10.1562 10.8398 10.9766 10.8398L30.9766 10.8398C31.7773 10.8398 32.3828 11.4453 32.3828 12.207C32.3828 13.0078 31.7773 13.6328 30.9766 13.6328ZM10.9766 22.6758C10.1562 22.6758 9.55078 22.0508 9.55078 21.25C9.55078 20.4883 10.1562 19.8828 10.9766 19.8828L30.9766 19.8828C31.7773 19.8828 32.3828 20.4883 32.3828 21.25C32.3828 22.0508 31.7773 22.6758 30.9766 22.6758ZM10.9766 31.7188C10.1562 31.7188 9.55078 31.1133 9.55078 30.332C9.55078 29.5508 10.1562 28.9258 10.9766 28.9258L20.5469 28.9258C21.3672 28.9258 21.9531 29.5508 21.9531 30.332C21.9531 31.1133 21.3672 31.7188 20.5469 31.7188ZM0 46.25C0 51.2891 2.51953 53.8477 7.51953 53.8477L34.4141 53.8477C39.4141 53.8477 41.9336 51.2891 41.9336 46.25L41.9336 7.61719C41.9336 2.57812 39.4141 0.0195312 34.4141 0.0195312L7.51953 0.0195312C2.51953 0.0195312 0 2.57812 0 7.61719Z" fill="black" fill-opacity="0.85"/>
 </g>
</svg>
