<?xml version="1.0" encoding="UTF-8"?>
<!--Generator: Apple Native CoreSVG 326-->
<!DOCTYPE svg
PUBLIC "-//W3C//DTD SVG 1.1//EN"
       "http://www.w3.org/Graphics/SVG/1.1/DTD/svg11.dtd">
<svg version="1.1" xmlns="http://www.w3.org/2000/svg" xmlns:xlink="http://www.w3.org/1999/xlink" viewBox="0 0 42.3047 53.8477">
 <g>
  <rect height="53.8477" opacity="0" width="42.3047" x="0" y="0"/>
  <path d="M11.2109 13.9062L30.7422 13.9062C31.5234 13.9062 32.1094 13.3008 32.1094 12.5195C32.1094 11.7773 31.5234 11.1914 30.7422 11.1914L11.2109 11.1914C10.4102 11.1914 9.82422 11.7773 9.82422 12.5195C9.82422 13.3008 10.4102 13.9062 11.2109 13.9062ZM11.2109 22.7148L30.7422 22.7148C31.5234 22.7148 32.1094 22.1094 32.1094 21.3477C32.1094 20.6055 31.5234 20.0195 30.7422 20.0195L11.2109 20.0195C10.4102 20.0195 9.82422 20.6055 9.82422 21.3477C9.82422 22.1094 10.4102 22.7148 11.2109 22.7148ZM11.2109 31.543L20.5664 31.543C21.3477 31.543 21.9336 30.957 21.9336 30.2148C21.9336 29.4336 21.3477 28.8281 20.5664 28.8281L11.2109 28.8281C10.4102 28.8281 9.82422 29.4336 9.82422 30.2148C9.82422 30.957 10.4102 31.543 11.2109 31.543ZM0 46.25C0 51.2891 2.51953 53.8477 7.51953 53.8477L34.4141 53.8477C39.4141 53.8477 41.9336 51.2891 41.9336 46.25L41.9336 7.61719C41.9336 2.57812 39.4141 0.0195312 34.4141 0.0195312L7.51953 0.0195312C2.51953 0.0195312 0 2.57812 0 7.61719ZM3.45703 46.1719L3.45703 7.69531C3.45703 4.96094 4.90234 3.47656 7.71484 3.47656L34.2188 3.47656C37.0312 3.47656 38.4766 4.96094 38.4766 7.69531L38.4766 46.1719C38.4766 48.9062 37.0312 50.3906 34.2188 50.3906L7.71484 50.3906C4.90234 50.3906 3.45703 48.9062 3.45703 46.1719Z" fill="black" fill-opacity="0.85"/>
 </g>
</svg>
