<?xml version="1.0" encoding="UTF-8"?>
<!--Generator: Apple Native CoreSVG 326-->
<!DOCTYPE svg
PUBLIC "-//W3C//DTD SVG 1.1//EN"
       "http://www.w3.org/Graphics/SVG/1.1/DTD/svg11.dtd">
<svg version="1.1" xmlns="http://www.w3.org/2000/svg" xmlns:xlink="http://www.w3.org/1999/xlink" viewBox="0 0 58.75 37.2461">
 <g>
  <rect height="37.2461" opacity="0" width="58.75" x="0" y="0"/>
  <path d="M45.293 37.1875C49.8242 37.1875 53.2617 34.9414 54.7656 31.0156L54.9219 31.0156L54.9219 35.4297C54.9219 36.543 55.625 37.2461 56.6211 37.2461C57.6758 37.2461 58.3789 36.5234 58.3789 35.4102L58.3789 10.7617C58.3789 9.62891 57.6758 8.88672 56.6211 8.88672C55.625 8.88672 54.9219 9.62891 54.9219 10.7617L54.9219 15.1758L54.7656 15.1758C53.2812 11.3281 49.668 8.92578 45.293 8.92578C38.4375 8.92578 33.8086 14.6289 33.8086 23.0469C33.8086 31.543 38.4375 37.1875 45.293 37.1875ZM46.1133 34.0625C40.8789 34.0625 37.5 29.7656 37.5 23.0469C37.5 16.3672 40.8984 12.0508 46.1133 12.0508C51.3281 12.0508 54.8242 16.5234 54.8242 23.1445C54.8242 29.7656 51.3867 34.0625 46.1133 34.0625Z" fill="black" fill-opacity="0.85"/>
  <path d="M1.81641 37.1875C2.91016 37.1875 3.47656 36.7578 3.88672 35.5859L7.48047 25.8789L22.8516 25.8789L26.4453 35.5859C26.8555 36.7578 27.4219 37.1875 28.5156 37.1875C29.6484 37.1875 30.3711 36.5234 30.3711 35.4297C30.3711 35.0781 30.293 34.7266 30.1367 34.2773L17.8711 1.95312C17.3828 0.664062 16.5234 0 15.1758 0C13.8477 0 12.9688 0.644531 12.5195 1.93359L0.234375 34.2969C0.078125 34.7461 0 35.0977 0 35.4492C0 36.543 0.683594 37.1875 1.81641 37.1875ZM8.53516 22.6367L15.0977 4.84375L15.2344 4.84375L21.7773 22.6367Z" fill="black" fill-opacity="0.85"/>
 </g>
</svg>
