<?xml version="1.0" encoding="UTF-8"?>
<!--Generator: Apple Native CoreSVG 326-->
<!DOCTYPE svg
PUBLIC "-//W3C//DTD SVG 1.1//EN"
       "http://www.w3.org/Graphics/SVG/1.1/DTD/svg11.dtd">
<svg version="1.1" xmlns="http://www.w3.org/2000/svg" xmlns:xlink="http://www.w3.org/1999/xlink" viewBox="0 0 50.6055 43.0664">
 <g>
  <rect height="43.0664" opacity="0" width="50.6055" x="0" y="0"/>
  <path d="M1.73828 3.45703L48.4766 3.45703C49.4531 3.45703 50.2344 2.71484 50.2344 1.73828C50.2344 0.761719 49.4531 0 48.4766 0L1.73828 0C0.742188 0 0 0.761719 0 1.73828C0 2.71484 0.742188 3.45703 1.73828 3.45703ZM11.3867 16.6602L38.8281 16.6602C39.8047 16.6602 40.5859 15.8984 40.5859 14.9219C40.5859 13.9453 39.8047 13.1836 38.8281 13.1836L11.3867 13.1836C10.4102 13.1836 9.64844 13.9453 9.64844 14.9219C9.64844 15.8984 10.4102 16.6602 11.3867 16.6602ZM1.73828 29.8438L48.4766 29.8438C49.4531 29.8438 50.2344 29.082 50.2344 28.1055C50.2344 27.1289 49.4531 26.3867 48.4766 26.3867L1.73828 26.3867C0.742188 26.3867 0 27.1289 0 28.1055C0 29.082 0.742188 29.8438 1.73828 29.8438ZM11.3867 43.0273L38.8281 43.0273C39.8047 43.0273 40.5859 42.2852 40.5859 41.3086C40.5859 40.3125 39.8047 39.5703 38.8281 39.5703L11.3867 39.5703C10.4102 39.5703 9.64844 40.3125 9.64844 41.3086C9.64844 42.2852 10.4102 43.0273 11.3867 43.0273Z" fill="black" fill-opacity="0.85"/>
 </g>
</svg>
