<?xml version="1.0" encoding="UTF-8"?>
<!--Generator: Apple Native CoreSVG 326-->
<!DOCTYPE svg
PUBLIC "-//W3C//DTD SVG 1.1//EN"
       "http://www.w3.org/Graphics/SVG/1.1/DTD/svg11.dtd">
<svg version="1.1" xmlns="http://www.w3.org/2000/svg" xmlns:xlink="http://www.w3.org/1999/xlink" viewBox="0 0 53.3594 44.9414">
 <g>
  <rect height="44.9414" opacity="0" width="53.3594" x="0" y="0"/>
  <path d="M7.67578 3.45703L45.3125 3.45703C46.2891 3.45703 47.0508 2.71484 47.0508 1.73828C47.0508 0.761719 46.2891 0 45.3125 0L7.67578 0C6.67969 0 5.9375 0.761719 5.9375 1.73828C5.9375 2.71484 6.67969 3.45703 7.67578 3.45703ZM7.67578 35.3125L45.3125 35.3125C46.2891 35.3125 47.0508 34.5508 47.0508 33.5742C47.0508 32.5977 46.2891 31.8555 45.3125 31.8555L7.67578 31.8555C6.67969 31.8555 5.9375 32.5977 5.9375 33.5742C5.9375 34.5508 6.67969 35.3125 7.67578 35.3125ZM7.67578 44.9023L45.3125 44.9023C46.2891 44.9023 47.0508 44.1602 47.0508 43.1836C47.0508 42.207 46.2891 41.4453 45.3125 41.4453L7.67578 41.4453C6.67969 41.4453 5.9375 42.207 5.9375 43.1836C5.9375 44.1602 6.67969 44.9023 7.67578 44.9023Z" fill="black" fill-opacity="0.85"/>
  <path d="M7.67578 19.4531L45.3125 19.4531C46.2695 19.4531 47.0508 18.6719 47.0508 17.7148C47.0508 16.7383 46.2695 15.9766 45.3125 15.9766L7.67578 15.9766C6.69922 15.9766 5.9375 16.7383 5.9375 17.7148C5.9375 18.6719 6.69922 19.4531 7.67578 19.4531ZM7.67578 25.3125L45.332 25.3125C49.6289 25.3125 52.9883 21.9531 52.9883 17.6562C52.9883 13.3594 49.6289 9.98047 45.332 9.98047L7.67578 9.98047C3.37891 9.98047 0 13.3594 0 17.6562C0 21.9531 3.37891 25.3125 7.67578 25.3125ZM7.67578 22.8516C4.76562 22.8516 2.48047 20.5664 2.48047 17.6562C2.48047 14.7461 4.76562 12.4609 7.67578 12.4609L45.332 12.4609C48.2227 12.4609 50.5273 14.7461 50.5273 17.6562C50.5273 20.5664 48.2227 22.8516 45.332 22.8516Z" fill="black" fill-opacity="0.85"/>
 </g>
</svg>
