<?xml version="1.0" encoding="UTF-8"?>
<!--Generator: Apple Native CoreSVG 326-->
<!DOCTYPE svg
PUBLIC "-//W3C//DTD SVG 1.1//EN"
       "http://www.w3.org/Graphics/SVG/1.1/DTD/svg11.dtd">
<svg version="1.1" xmlns="http://www.w3.org/2000/svg" xmlns:xlink="http://www.w3.org/1999/xlink" viewBox="0 0 37.0312 47.168">
 <g>
  <rect height="47.168" opacity="0" width="37.0312" x="0" y="0"/>
  <path d="M1.81641 42.1484C2.91016 42.1484 3.47656 41.7188 3.88672 40.5469L7.48047 30.8398L22.8516 30.8398L26.4453 40.5469C26.8555 41.7188 27.4219 42.1484 28.5156 42.1484C29.6484 42.1484 30.3711 41.4844 30.3711 40.3906C30.3711 40.0391 30.293 39.6875 30.1367 39.2383L17.8711 6.91406C17.3828 5.625 16.5234 4.96094 15.1758 4.96094C13.8477 4.96094 12.9688 5.60547 12.5195 6.89453L0.234375 39.2578C0.078125 39.707 0 40.0586 0 40.4102C0 41.5039 0.683594 42.1484 1.81641 42.1484ZM8.53516 27.5977L15.0977 9.80469L15.2344 9.80469L21.7773 27.5977Z" fill="black" fill-opacity="0.85"/>
  <path d="M35.0781 20.6836C36.0352 20.6836 36.6602 20.0391 36.6602 19.1406L36.6602 1.73828C36.6602 0.664062 36.0156 0 34.9609 0C34.0039 0 33.5352 0.351562 32.8711 0.820312L28.6133 3.69141C27.9883 4.10156 27.7539 4.49219 27.7539 4.96094C27.7539 5.68359 28.2812 6.23047 28.9648 6.23047C29.3945 6.23047 29.668 6.09375 30.0781 5.82031L33.4375 3.59375L33.5156 3.59375L33.5156 19.1406C33.5156 20.0391 34.1406 20.6836 35.0781 20.6836Z" fill="black" fill-opacity="0.85"/>
 </g>
</svg>
