<?xml version="1.0" encoding="UTF-8"?>
<!--Generator: Apple Native CoreSVG 326-->
<!DOCTYPE svg
PUBLIC "-//W3C//DTD SVG 1.1//EN"
       "http://www.w3.org/Graphics/SVG/1.1/DTD/svg11.dtd">
<svg version="1.1" xmlns="http://www.w3.org/2000/svg" xmlns:xlink="http://www.w3.org/1999/xlink" viewBox="0 0 84.1406 52.5586">
 <g>
  <rect height="52.5586" opacity="0" width="84.1406" x="0" y="0"/>
  <path d="M2.8125 52.5586C4.375 52.5586 5.64453 51.3086 5.64453 49.7461C5.64453 48.1836 4.375 46.9336 2.8125 46.9336C1.26953 46.9336 0 48.1836 0 49.7461C0 51.3086 1.26953 52.5586 2.8125 52.5586ZM15.8398 52.5586C17.4023 52.5586 18.6719 51.3086 18.6719 49.7461C18.6719 48.1836 17.4023 46.9336 15.8398 46.9336C14.2969 46.9336 13.0273 48.1836 13.0273 49.7461C13.0273 51.3086 14.2969 52.5586 15.8398 52.5586ZM28.8672 52.5586C30.4297 52.5586 31.6797 51.3086 31.6797 49.7461C31.6797 48.1836 30.4297 46.9336 28.8672 46.9336C27.3047 46.9336 26.0547 48.1836 26.0547 49.7461C26.0547 51.3086 27.3047 52.5586 28.8672 52.5586ZM41.8945 52.5586C43.457 52.5586 44.707 51.3086 44.707 49.7461C44.707 48.1836 43.457 46.9336 41.8945 46.9336C40.332 46.9336 39.082 48.1836 39.082 49.7461C39.082 51.3086 40.332 52.5586 41.8945 52.5586ZM54.9219 52.5586C56.4844 52.5586 57.7344 51.3086 57.7344 49.7461C57.7344 48.1836 56.4844 46.9336 54.9219 46.9336C53.3594 46.9336 52.1094 48.1836 52.1094 49.7461C52.1094 51.3086 53.3594 52.5586 54.9219 52.5586ZM67.9492 52.5586C69.4922 52.5586 70.7617 51.3086 70.7617 49.7461C70.7617 48.1836 69.4922 46.9336 67.9492 46.9336C66.3867 46.9336 65.1172 48.1836 65.1172 49.7461C65.1172 51.3086 66.3867 52.5586 67.9492 52.5586ZM80.9375 52.5586C82.4805 52.5586 83.75 51.3086 83.75 49.7461C83.75 48.1836 82.4805 46.9336 80.9375 46.9336C79.375 46.9336 78.1055 48.1836 78.1055 49.7461C78.1055 51.3086 79.375 52.5586 80.9375 52.5586Z" fill="black" fill-opacity="0.85"/>
  <path d="M1.75781 37.2852C2.57812 37.2852 3.33984 36.7969 3.75 35.6836L7.36328 25.918L22.8516 25.918L26.4648 35.6836C26.875 36.8164 27.6172 37.2852 28.418 37.2852C29.3555 37.2852 30.2344 36.6016 30.2344 35.5664C30.2344 35.1953 30.1562 34.8828 30 34.4141L17.7148 2.08984C17.2461 0.839844 16.4258 0.214844 15.0977 0.214844C13.8086 0.214844 12.9883 0.820312 12.5195 2.07031L0.253906 34.4336C0.078125 34.9023 0.0195312 35.2148 0.0195312 35.5859C0.0195312 36.6406 0.839844 37.2852 1.75781 37.2852ZM8.35938 22.832L14.9609 4.88281L15.2148 4.88281L21.8164 22.832ZM35.7227 37.2852C36.7188 37.2852 37.5 36.582 37.5 35.4492L37.5 31.0156L37.5391 31.0156C38.9453 34.8633 42.4219 37.3047 46.7188 37.3047C53.457 37.3047 57.9492 31.8359 57.9492 23.6133C57.9492 15.3906 53.4375 9.94141 46.7578 9.94141C42.5 9.94141 39.043 12.3828 37.6367 16.1914L37.5781 16.1914L37.5781 2.44141C37.5781 1.26953 36.8359 0.507812 35.7617 0.507812C34.6875 0.507812 33.9453 1.26953 33.9453 2.44141L33.9453 35.4492C33.9453 36.6016 34.668 37.2852 35.7227 37.2852ZM45.9961 34.1406C41.0742 34.1406 37.6172 29.9609 37.6172 23.6328C37.6172 17.3242 41.0742 13.125 45.9961 13.125C51.0156 13.125 54.2188 17.207 54.2188 23.6133C54.2188 30.0586 51.0156 34.1406 45.9961 34.1406ZM73.125 37.3047C77.9883 37.3047 82.1484 34.6094 83.5547 30.6836C83.6914 30.293 83.7695 29.9023 83.7695 29.5508C83.7695 28.6523 83.1055 27.9883 82.1875 27.9883C81.3672 27.9883 80.9375 28.3398 80.4688 29.2578C79.2188 32.4023 76.6992 34.1406 73.1445 34.1406C67.9688 34.1406 64.6875 30.1562 64.6875 23.6328C64.6875 17.1484 68.0078 13.1055 73.1055 13.1055C76.543 13.1055 79.1211 14.7852 80.4102 18.0078C80.8594 18.9062 81.3086 19.2383 82.0898 19.2383C83.0273 19.2383 83.6719 18.6133 83.6719 17.6953C83.6719 17.4023 83.6133 17.0312 83.5156 16.7383C82.2461 12.7734 78.0273 9.94141 73.0273 9.94141C65.7031 9.94141 60.9766 15.3516 60.9766 23.6719C60.9766 31.9922 65.7617 37.3047 73.125 37.3047Z" fill="black" fill-opacity="0.85"/>
 </g>
</svg>
