<?xml version="1.0" encoding="UTF-8"?>
<!--Generator: Apple Native CoreSVG 326-->
<!DOCTYPE svg
PUBLIC "-//W3C//DTD SVG 1.1//EN"
       "http://www.w3.org/Graphics/SVG/1.1/DTD/svg11.dtd">
<svg version="1.1" xmlns="http://www.w3.org/2000/svg" xmlns:xlink="http://www.w3.org/1999/xlink" viewBox="0 0 49.1797 49.2773">
 <g>
  <rect height="49.2773" opacity="0" width="49.1797" x="0" y="0"/>
  <path d="M0 19.7656C0 30.6445 8.86719 39.5117 19.7656 39.5117C24.1602 39.5117 28.2031 38.0664 31.4844 35.625L44.3555 48.5156C44.8438 49.0234 45.5273 49.2773 46.2305 49.2773C47.7734 49.2773 48.8086 48.1055 48.8086 46.6406C48.8086 45.918 48.5547 45.293 48.0859 44.8047L35.2734 31.9336C37.9297 28.5938 39.5312 24.3555 39.5312 19.7656C39.5312 8.86719 30.6641 0 19.7656 0C8.86719 0 0 8.86719 0 19.7656ZM3.65234 19.7656C3.65234 10.8789 10.8789 3.65234 19.7656 3.65234C28.6523 3.65234 35.8594 10.8789 35.8594 19.7656C35.8594 28.6328 28.6523 35.8594 19.7656 35.8594C10.8789 35.8594 3.65234 28.6328 3.65234 19.7656ZM11.7383 18.0078L27.9297 18.0078C28.7695 18.0078 29.4336 17.3242 29.4336 16.4648C29.4336 15.625 28.7695 14.9609 27.9297 14.9609L11.7383 14.9609C10.8594 14.9609 10.2148 15.625 10.2148 16.4648C10.2148 17.3242 10.8594 18.0078 11.7383 18.0078ZM11.7383 24.5312L23.457 24.5312C24.2969 24.5312 25 23.8672 25 23.0078C25 22.168 24.2969 21.4844 23.457 21.4844L11.7383 21.4844C10.8594 21.4844 10.2148 22.168 10.2148 23.0078C10.2148 23.8672 10.8594 24.5312 11.7383 24.5312Z" fill="black" fill-opacity="0.85"/>
 </g>
</svg>
