<?xml version="1.0" encoding="UTF-8"?>
<!--Generator: Apple Native CoreSVG 326-->
<!DOCTYPE svg
PUBLIC "-//W3C//DTD SVG 1.1//EN"
       "http://www.w3.org/Graphics/SVG/1.1/DTD/svg11.dtd">
<svg version="1.1" xmlns="http://www.w3.org/2000/svg" xmlns:xlink="http://www.w3.org/1999/xlink" viewBox="0 0 51.25 50.918">
 <g>
  <rect height="50.918" opacity="0" width="51.25" x="0" y="0"/>
  <path d="M25.4297 50.8789C39.4727 50.8789 50.8789 39.4922 50.8789 25.4492C50.8789 11.4062 39.4727 0 25.4297 0C11.3867 0 0 11.4062 0 25.4492C0 39.4922 11.3867 50.8789 25.4297 50.8789ZM25.4297 47.2461C13.3789 47.2461 3.63281 37.5 3.63281 25.4492C3.63281 13.3984 13.3789 3.65234 25.4297 3.65234C37.4805 3.65234 47.2266 13.3984 47.2266 25.4492C47.2266 37.5 37.4805 47.2461 25.4297 47.2461Z" fill="black" fill-opacity="0.85"/>
  <path d="M22.3242 34.6484C27.6367 33.2031 29.9414 29.082 28.4375 23.5156L26.3477 15.8398C25.8203 13.8867 24.5508 13.1836 22.5977 13.6914L11.6406 16.6016C9.64844 17.1289 8.94531 18.3789 9.47266 20.3711L11.5039 28.0859C12.9688 33.6133 17.0117 36.0352 22.3242 34.6484ZM21.3281 30.8594C19.0234 31.4648 16.7773 30.6836 15.5859 28.7695C15.3711 28.3984 15.5664 28.1055 15.9961 28.1445C17.6562 28.2812 19.3359 27.9883 20.4688 27.6758C21.6016 27.3828 23.2227 26.7969 24.5703 25.8398C24.9414 25.5859 25.293 25.7812 25.2539 26.1914C25.1758 28.457 23.6719 30.2344 21.3281 30.8594ZM15.8008 23.6523C15 23.9062 14.9023 24.4141 14.5508 24.4727C14.375 24.5312 14.1797 24.3359 14.082 24.043C13.8086 23.0859 14.3945 22.0898 15.3516 21.875C16.2891 21.6211 17.2266 22.207 17.5 23.0859C17.5977 23.4375 17.5 23.6914 17.3242 23.75C16.9336 23.8477 16.543 23.457 15.8008 23.6523ZM22.4805 21.875C21.7188 22.0508 21.5625 22.6172 21.25 22.6562C21.0742 22.7148 20.8789 22.5 20.7422 22.207C20.5078 21.3086 21.0938 20.293 22.0117 20.0391C22.9883 19.8242 23.9453 20.332 24.1602 21.3086C24.2969 21.6211 24.1406 21.8945 24.0234 21.9531C23.6328 22.0508 23.2422 21.6406 22.4805 21.875ZM39.8242 19.4922L28.8867 16.543C28.6914 16.4844 28.4961 16.4648 28.3203 16.4453L30.1367 23.0469C30.7617 25.3906 30.7812 27.5586 30.2734 29.4531C30.5664 29.4922 30.8984 29.5312 31.1914 29.6094C33.1445 30.0977 34.4727 31.6211 34.5312 33.4375C34.5312 33.8672 34.1406 34.0625 33.8477 33.75C32.793 32.793 31.7578 32.2656 30.5664 31.9336C30.1562 31.8164 29.707 31.7188 29.2969 31.6797C28.3984 33.2617 26.9922 34.5312 25.1758 35.4492C26.1719 36.3477 27.5195 37.0508 29.1406 37.4805C34.4336 38.8867 38.457 36.4648 39.9414 30.918L41.9922 23.2227C42.5391 21.25 41.7969 19.9805 39.8242 19.4922ZM35.2148 27.6172C34.4922 27.4609 34.043 26.6602 34.2578 25.918C34.4141 25.1758 35.1953 24.7656 35.9375 24.9609C36.6797 25.1562 37.1094 25.918 36.9141 26.6406C36.6992 27.3828 35.9375 27.832 35.2148 27.6172Z" fill="black" fill-opacity="0.85"/>
 </g>
</svg>
