<?xml version="1.0" encoding="UTF-8"?>
<!--Generator: Apple Native CoreSVG 326-->
<!DOCTYPE svg
PUBLIC "-//W3C//DTD SVG 1.1//EN"
       "http://www.w3.org/Graphics/SVG/1.1/DTD/svg11.dtd">
<svg version="1.1" xmlns="http://www.w3.org/2000/svg" xmlns:xlink="http://www.w3.org/1999/xlink" viewBox="0 0 90.6863 63.8094">
 <g>
  <rect height="63.8094" opacity="0" width="90.6863" x="0" y="0"/>
  <path d="M56.6224 9.98087L81.7592 16.7582C86.3099 18.0082 88.0678 20.8793 86.8568 25.391L82.1107 43.1059C78.6928 55.9184 69.4154 61.5043 57.1693 58.2426C51.2035 56.6346 46.9017 53.5479 44.4709 49.3211C50.731 43.8287 52.9051 35.3549 50.2162 25.3324L47.6589 15.8266L47.892 14.9613C49.1224 10.391 52.0326 8.73087 56.6224 9.98087ZM50.9388 43.9652C50.4506 44.766 50.9779 45.5473 51.9349 45.3324C55.0599 44.6684 57.7943 44.7074 60.5287 45.4496C63.2631 46.1527 65.5482 47.4027 68.0092 49.6488C68.7123 50.2738 69.5912 49.8832 69.5521 48.9262C69.4349 44.727 66.4076 41.2699 61.9349 40.1371C57.6381 38.9848 53.1654 40.391 50.9388 43.9652ZM68.9467 31.641C68.4584 33.3598 69.474 35.1371 71.1732 35.5668C72.892 36.0356 74.6303 35.0199 75.099 33.3207C75.5482 31.602 74.5521 29.8441 72.8334 29.4145C71.1146 28.9457 69.3763 29.9418 68.9467 31.641ZM54.1029 27.7152C53.6537 29.4731 54.6693 31.1918 56.3881 31.6215C58.0873 32.0902 59.8256 31.1137 60.3138 29.3949C60.7435 27.6957 59.7474 25.9184 58.0287 25.4496C56.3099 24.9809 54.5717 26.016 54.1029 27.7152Z" fill="black" fill-opacity="0.85"/>
  <path d="M33.1654 51.7191C45.392 48.3988 50.6459 38.9262 47.2084 26.1332L42.4428 8.41837C41.2318 3.90665 38.2826 2.30509 33.7123 3.49649L8.55603 10.1957C3.96619 11.4066 2.26697 14.2777 3.49744 18.8676L8.20447 36.5824C11.6029 49.3559 20.8998 54.9809 33.1654 51.7191ZM18.1654 26.4262C16.3099 26.9535 16.056 28.184 15.2553 28.3402C14.9037 28.3988 14.3959 28.0082 14.181 27.2465C13.5756 25.1176 14.9232 22.8324 17.0717 22.3051C19.2396 21.7777 21.4857 23.0473 22.0326 25.1176C22.267 25.8988 22.0326 26.4848 21.642 26.6215C20.7826 26.9145 19.8646 25.977 18.1654 26.4262ZM33.5365 22.2856C31.7006 22.7934 31.4271 24.0238 30.6263 24.1606C30.2748 24.2387 29.7865 23.8285 29.5521 23.0863C28.9662 20.977 30.2943 18.6918 32.4428 18.1449C34.6303 17.5785 36.8568 18.8676 37.4232 20.9574C37.6576 21.7582 37.4037 22.3246 37.0131 22.4613C36.1537 22.7543 35.2357 21.8168 33.5365 22.2856ZM30.8803 43.0082C25.5482 44.3949 20.4115 42.5785 17.6771 38.184C17.1888 37.3637 17.599 36.641 18.5756 36.7387C22.3451 37.0707 26.2709 36.3871 28.9076 35.684C31.5053 35.0004 35.1967 33.6527 38.3412 31.4457C39.142 30.8793 39.9037 31.2895 39.8646 32.266C39.7279 37.4418 36.2123 41.5434 30.8803 43.0082Z" fill="black" fill-opacity="0.85"/>
 </g>
</svg>
