<?xml version="1.0" encoding="UTF-8"?>
<!--Generator: Apple Native CoreSVG 326-->
<!DOCTYPE svg
PUBLIC "-//W3C//DTD SVG 1.1//EN"
       "http://www.w3.org/Graphics/SVG/1.1/DTD/svg11.dtd">
<svg version="1.1" xmlns="http://www.w3.org/2000/svg" xmlns:xlink="http://www.w3.org/1999/xlink" viewBox="0 0 51.25 50.918">
 <g>
  <rect height="50.918" opacity="0" width="51.25" x="0" y="0"/>
  <path d="M50.8789 25.4688C50.8789 39.4922 39.4531 50.918 25.4297 50.918C11.4258 50.918 0 39.4922 0 25.4688C0 11.4648 11.4258 0.0390625 25.4297 0.0390625C39.4531 0.0390625 50.8789 11.4648 50.8789 25.4688ZM16.2891 16.9727L16.2891 29.6094C16.2891 30.0195 16.25 30.1758 15.957 30.4102C14.2773 31.8555 13.4375 33.7109 13.4375 35.7617C13.4375 39.6875 16.6016 42.8516 20.5664 42.8516C24.5117 42.8516 27.6758 39.6875 27.6758 35.7617C27.6758 33.7109 26.7969 31.8555 25.1367 30.4102C24.8438 30.1758 24.8047 30 24.8047 29.6094L24.8242 16.9727C24.8242 14.2578 23.0664 12.3633 20.5664 12.3633C18.0078 12.3633 16.2891 14.2578 16.2891 16.9727ZM22.8125 17.0508L22.8125 30.3125C22.8125 30.9375 22.9883 31.2695 23.4766 31.582C24.9414 32.5781 25.7031 34.0625 25.7031 35.7617C25.7031 38.6328 23.3984 40.918 20.5664 40.918C17.6758 40.918 15.4102 38.6328 15.4102 35.7617C15.4102 34.0625 16.1719 32.5781 17.5781 31.582C18.0664 31.2695 18.2617 30.9375 18.2617 30.3125L18.2617 17.0508C18.2617 15.4102 19.1602 14.3555 20.5664 14.3555C21.9141 14.3555 22.8125 15.4102 22.8125 17.0508ZM19.4531 18.2617L19.4531 31.6211C19.4531 32.2656 19.375 32.4219 18.8867 32.6367C17.793 33.2422 16.9922 34.375 16.9922 35.7422C16.9922 37.7539 18.5742 39.3359 20.5469 39.3359C22.5391 39.3359 24.1211 37.7344 24.1211 35.7422C24.1211 34.375 23.3203 33.2617 22.168 32.6367C21.7578 32.4219 21.6602 32.2656 21.6602 31.6211L21.6602 18.2617C21.6602 17.5391 21.1523 17.0703 20.5469 17.0703C19.9023 17.0703 19.4531 17.5391 19.4531 18.2617ZM33.2227 27.6953C32.7539 28.125 32.7148 28.9258 33.2031 29.375L35.4688 31.6602C35.918 32.0703 36.6602 32.0898 37.1289 31.6602C37.6172 31.1914 37.6172 30.3711 37.1484 29.9414L34.9023 27.6953C34.4336 27.2266 33.6914 27.2266 33.2227 27.6953ZM26.25 14.8047C26.5039 15.4883 26.6211 16.2109 26.6211 16.9727L26.6016 28.2812C30.5859 28.4961 33.8477 25.5469 33.8477 21.5234C33.8477 17.7539 30.8398 14.707 27.0703 14.707C26.7969 14.707 26.5234 14.7461 26.25 14.8047ZM36.9336 20.3125C36.25 20.3125 35.7227 20.8789 35.7227 21.5234C35.7227 22.1289 36.2695 22.7344 36.9336 22.7344L40.0977 22.7344C40.7617 22.7344 41.2891 22.1289 41.2891 21.5234C41.2891 20.8789 40.7617 20.3125 40.0977 20.3125ZM35.4688 11.4062L33.2031 13.6914C32.7148 14.1602 32.7539 14.9414 33.2227 15.3906C33.6719 15.8398 34.4531 15.8398 34.9219 15.3906L37.1484 13.125C37.5977 12.6758 37.6172 11.875 37.1289 11.4062C36.6602 10.957 35.918 10.957 35.4688 11.4062ZM25.8594 8.4375L25.8594 11.6211C25.8594 12.2852 26.4062 12.832 27.0703 12.832C27.7539 12.832 28.2812 12.2461 28.2812 11.6211L28.2812 8.4375C28.2812 7.8125 27.7539 7.26562 27.0703 7.26562C26.3867 7.26562 25.8594 7.8125 25.8594 8.4375Z" fill="black" fill-opacity="0.85"/>
 </g>
</svg>
