<?xml version="1.0" encoding="UTF-8"?>
<!--Generator: Apple Native CoreSVG 326-->
<!DOCTYPE svg
PUBLIC "-//W3C//DTD SVG 1.1//EN"
       "http://www.w3.org/Graphics/SVG/1.1/DTD/svg11.dtd">
<svg version="1.1" xmlns="http://www.w3.org/2000/svg" xmlns:xlink="http://www.w3.org/1999/xlink" viewBox="0 0 51.4648 56.4648">
 <g>
  <rect height="56.4648" opacity="0" width="51.4648" x="0" y="0"/>
  <path d="M28.1055 33.418C28.1055 34.6289 29.0625 35.6055 30.2734 35.6055C31.4844 35.6055 32.4414 34.6289 32.4414 33.418L32.4414 23.8672C32.4414 23.4375 32.793 23.0859 33.2227 23.0859C33.6523 23.0859 34.0039 23.4375 34.0039 23.8672L34.0039 52.8516C34.0039 54.1797 35.0781 55.2539 36.4062 55.2539C37.7344 55.2539 38.7891 54.1797 38.7891 52.8516L38.7891 35.1953C38.7891 34.7656 39.1602 34.3945 39.5898 34.3945C40.0195 34.3945 40.3906 34.7656 40.3906 35.1953L40.3906 52.8516C40.3906 54.1797 41.4648 55.2539 42.793 55.2539C44.1211 55.2539 45.1758 54.1797 45.1758 52.8516L45.1758 23.8672C45.1758 23.4375 45.5273 23.0859 45.957 23.0859C46.3867 23.0859 46.7383 23.4375 46.7383 23.8672L46.7383 33.418C46.7383 34.6289 47.7148 35.6055 48.9258 35.6055C50.1172 35.6055 51.0938 34.6289 51.0938 33.418L51.0938 22.7539C51.0938 17.2852 47.0898 13.6719 41.3477 13.6719L37.8516 13.6719C32.0898 13.6719 28.1055 17.2852 28.1055 22.7539ZM39.5898 10.7617C42.5781 10.7617 44.9805 8.37891 44.9805 5.39062C44.9805 2.40234 42.5781 0 39.5898 0C36.6211 0 34.2188 2.40234 34.2188 5.39062C34.2188 8.37891 36.6211 10.7617 39.5898 10.7617Z" fill="black" fill-opacity="0.85"/>
  <path d="M12.9297 56.1133C20.0391 56.1133 25.8008 50.332 25.8008 43.2227C25.8008 39.4727 24.2578 36.1523 21.2305 33.4961C20.6445 32.9883 20.5078 32.6562 20.5078 31.8359L20.5078 8.51562C20.5078 3.63281 17.4219 0.292969 12.9297 0.292969C8.39844 0.292969 5.29297 3.63281 5.29297 8.51562L5.29297 31.8359C5.29297 32.6562 5.17578 32.9883 4.57031 33.4961C1.54297 36.1523 0 39.4727 0 43.2227C0 50.332 5.76172 56.1133 12.9297 56.1133ZM12.9297 52.9883C7.53906 52.9883 3.16406 48.5938 3.16406 43.2227C3.16406 40.0586 4.60938 37.1875 7.32422 35.3516C8.14453 34.7852 8.45703 34.2188 8.45703 33.1641L8.45703 8.63281C8.45703 5.56641 10.2734 3.45703 12.9297 3.45703C15.5273 3.45703 17.3438 5.56641 17.3438 8.63281L17.3438 33.1641C17.3438 34.2188 17.6562 34.7852 18.4766 35.3516C21.1914 37.1875 22.6367 40.0586 22.6367 43.2227C22.6367 48.5938 18.2812 52.9883 12.9297 52.9883Z" fill="black" fill-opacity="0.85"/>
  <path d="M12.9102 49.5898C16.4258 49.5898 19.2578 46.7578 19.2578 43.2031C19.2578 40.7422 17.8711 38.7109 15.8398 37.6172C15 37.168 14.7266 36.8359 14.7266 35.5664L14.7266 27.2852C14.7266 26.2695 13.9062 25.4688 12.9102 25.4688C11.8945 25.4688 11.0938 26.2695 11.0938 27.2852L11.0938 35.5664C11.0938 36.8359 10.8008 37.168 9.96094 37.6172C7.92969 38.7109 6.54297 40.7422 6.54297 43.2031C6.54297 46.7578 9.375 49.5898 12.9102 49.5898ZM12.9102 22.8906C13.9062 22.8906 14.7266 22.0703 14.7266 21.0742C14.7266 20.0586 13.9062 19.2578 12.9102 19.2578C11.8945 19.2578 11.0938 20.0586 11.0938 21.0742C11.0938 22.0703 11.8945 22.8906 12.9102 22.8906ZM12.9102 16.6602C13.9062 16.6602 14.7266 15.8594 14.7266 14.8438C14.7266 13.8477 13.9062 13.0273 12.9102 13.0273C11.8945 13.0273 11.0938 13.8477 11.0938 14.8438C11.0938 15.8594 11.8945 16.6602 12.9102 16.6602ZM12.9102 10.4492C13.9062 10.4492 14.7266 9.64844 14.7266 8.63281C14.7266 7.63672 13.9062 6.83594 12.9102 6.83594C11.8945 6.83594 11.0938 7.63672 11.0938 8.63281C11.0938 9.64844 11.8945 10.4492 12.9102 10.4492Z" fill="black" fill-opacity="0.85"/>
 </g>
</svg>
