<?xml version="1.0" encoding="UTF-8"?>
<!--Generator: Apple Native CoreSVG 326-->
<!DOCTYPE svg
PUBLIC "-//W3C//DTD SVG 1.1//EN"
       "http://www.w3.org/Graphics/SVG/1.1/DTD/svg11.dtd">
<svg version="1.1" xmlns="http://www.w3.org/2000/svg" xmlns:xlink="http://www.w3.org/1999/xlink" viewBox="0 0 52.9541 55.8789">
 <g>
  <rect height="55.8789" opacity="0" width="52.9541" x="0" y="0"/>
  <path d="M45.1587 29.082C45.1587 29.7656 44.6118 30.3516 43.8306 30.3516L39.6314 30.3516L37.4792 28.1994C37.7138 27.9498 38.0552 27.793 38.4595 27.793L43.8306 27.793C44.6118 27.793 45.1587 28.3789 45.1587 29.082ZM45.1587 21.9922C45.1587 22.6953 44.6118 23.2812 43.8306 23.2812L38.4595 23.2812C37.6782 23.2812 37.1314 22.6953 37.1314 21.9922C37.1314 21.3086 37.6782 20.7227 38.4595 20.7227L43.8306 20.7227C44.6118 20.7227 45.1587 21.3086 45.1587 21.9922ZM45.1587 14.9219C45.1587 15.6055 44.6118 16.2109 43.8306 16.2109L38.4595 16.2109C37.6782 16.2109 37.1314 15.6055 37.1314 14.9219C37.1314 14.2383 37.6782 13.6328 38.4595 13.6328L43.8306 13.6328C44.6118 13.6328 45.1587 14.2383 45.1587 14.9219ZM45.1587 7.85156C45.1587 8.53516 44.6118 9.12109 43.8306 9.12109L38.4595 9.12109C37.6782 9.12109 37.1314 8.53516 37.1314 7.85156C37.1314 7.14844 37.6782 6.5625 38.4595 6.5625L43.8306 6.5625C44.6118 6.5625 45.1587 7.14844 45.1587 7.85156Z" fill="black" fill-opacity="0.85"/>
  <path d="M21.8579 24.9686L21.8579 32.8711C21.8579 33.9258 21.5454 34.4922 20.7251 35.0586C18.0103 36.8945 16.5454 39.7656 16.5454 42.9297C16.5454 48.3008 20.9204 52.6953 26.311 52.6953C31.6626 52.6953 36.0376 48.3008 36.0376 42.9297C36.0376 40.8999 35.4348 38.9907 34.2828 37.3997L39.1678 42.2872C39.1964 42.4964 39.2017 42.7123 39.2017 42.9297C39.2017 50.0391 33.44 55.8203 26.311 55.8203C19.1431 55.8203 13.3814 50.0391 13.3814 42.9297C13.3814 39.1797 14.9439 35.8594 17.9712 33.2031C18.5571 32.6953 18.6743 32.3633 18.6743 31.543L18.6743 21.7834ZM32.1613 35.2772C32.0644 35.201 31.9621 35.129 31.8579 35.0586C31.4116 34.7504 31.1156 34.4422 30.9394 34.0547ZM33.9087 8.22266L33.9087 24.6289L30.7251 21.4453L30.7251 8.33984C30.7251 5.27344 28.9087 3.16406 26.311 3.16406C23.6743 3.16406 21.8579 5.27344 21.8579 8.33984L21.8579 12.5781L18.6743 9.39453L18.6743 8.22266C18.6743 3.33984 21.7798 0 26.311 0C30.8228 0 33.9087 3.33984 33.9087 8.22266Z" fill="black" fill-opacity="0.85"/>
  <path d="M28.1079 31.2218L28.1079 35.2734C28.1079 36.543 28.3814 36.875 29.2407 37.3242C31.272 38.418 32.6392 40.4492 32.6392 42.9102C32.6392 46.4648 29.8071 49.2969 26.2915 49.2969C22.7759 49.2969 19.9439 46.4648 19.9439 42.9102C19.9439 40.4492 21.311 38.418 23.3423 37.3242C24.2017 36.875 24.4751 36.543 24.4751 35.2734L24.4751 27.5871Z" fill="black" fill-opacity="0.85"/>
  <path d="M47.3853 46.6602C48.0493 47.3047 49.1235 47.3047 49.7485 46.6602C50.3931 45.9961 50.3931 44.9609 49.7485 44.2969L10.7642 5.3125C10.1196 4.6875 9.04542 4.64844 8.38136 5.3125C7.75636 5.95703 7.73683 7.05078 8.38136 7.67578Z" fill="black" fill-opacity="0.85"/>
 </g>
</svg>
