<?xml version="1.0" encoding="UTF-8"?>
<!--Generator: Apple Native CoreSVG 326-->
<!DOCTYPE svg
PUBLIC "-//W3C//DTD SVG 1.1//EN"
       "http://www.w3.org/Graphics/SVG/1.1/DTD/svg11.dtd">
<svg version="1.1" xmlns="http://www.w3.org/2000/svg" xmlns:xlink="http://www.w3.org/1999/xlink" viewBox="0 0 51.25 50.918">
 <g>
  <rect height="50.918" opacity="0" width="51.25" x="0" y="0"/>
  <path d="M50.8789 25.4688C50.8789 39.4922 39.4531 50.918 25.4297 50.918C11.4258 50.918 0 39.4922 0 25.4688C0 11.4648 11.4258 0.0390625 25.4297 0.0390625C39.4531 0.0390625 50.8789 11.4648 50.8789 25.4688ZM16.3086 16.9531L16.3086 29.5898C16.3086 30 16.2695 30.1367 15.9766 30.3906C14.2969 31.8164 13.457 33.6914 13.457 35.7422C13.457 39.668 16.6211 42.832 20.5859 42.832C24.5117 42.832 27.6758 39.668 27.6758 35.7422C27.6758 33.6914 26.7969 31.8164 25.1367 30.3906C24.8633 30.1367 24.8242 29.9805 24.8242 29.5898L24.8438 16.9531C24.8438 14.2383 23.0859 12.3438 20.5859 12.3438C18.0273 12.3438 16.3086 14.2383 16.3086 16.9531ZM22.832 17.0117L22.832 30.293C22.832 30.918 23.0078 31.25 23.4961 31.5625C24.9609 32.5391 25.7227 34.043 25.7227 35.7422C25.7227 38.6133 23.418 40.8984 20.5859 40.8984C17.6953 40.8984 15.4297 38.6133 15.4297 35.7422C15.4297 34.043 16.1914 32.5391 17.5977 31.5625C18.0859 31.25 18.2812 30.918 18.2812 30.293L18.2812 17.0117C18.2812 15.3711 19.1797 14.3359 20.5859 14.3359C21.9336 14.3359 22.832 15.3711 22.832 17.0117ZM19.4531 28.9844L19.4531 31.6016C19.4531 32.2266 19.375 32.4023 18.9062 32.6172C17.8125 33.2227 17.0117 34.3555 17.0117 35.7227C17.0117 37.7148 18.5742 39.3164 20.5664 39.3164C22.5586 39.3164 24.1211 37.6953 24.1211 35.7227C24.1211 34.3555 23.3203 33.2422 22.1875 32.6172C21.7773 32.4023 21.6797 32.2266 21.6797 31.6016L21.6797 28.9844C21.6797 28.2617 21.1719 27.7539 20.5664 27.7539C19.9219 27.7539 19.4531 28.2617 19.4531 28.9844ZM29.6289 9.29688L29.6289 11.2891L28.0859 10.3906C27.6367 10.0977 27.0898 10.2148 26.8359 10.6836C26.582 11.1133 26.7773 11.6016 27.2266 11.8945L29.6484 13.2812L29.6875 18.0664L26.3672 16.1133C26.4844 16.8164 26.582 17.5391 26.6211 18.3008L28.8477 19.5703L26.6406 20.8203L26.6406 22.8711L29.6875 21.0547L29.6484 25.8203L27.3438 27.1875C27.2461 27.6758 27.8516 28.418 28.3789 28.5742L29.6289 27.8125L29.6289 29.8438C29.6289 30.3906 30 30.8789 30.5469 30.8789C31.0938 30.8789 31.4453 30.3711 31.4453 29.8438L31.4258 27.832L33.0078 28.7305C33.4766 29.0039 34.0039 28.9062 34.2383 28.4766C34.4922 27.9883 34.2969 27.5195 33.8281 27.2266L31.4258 25.8203L31.3867 21.0547L35.4883 23.457L35.4883 26.2305C35.4883 26.7773 35.8398 27.1875 36.3477 27.207C36.8555 27.207 37.1875 26.7578 37.1875 26.2695L37.207 24.4727L38.9648 25.4883C39.4727 25.7617 40.0195 25.7031 40.332 25.2344C40.6055 24.7266 40.3906 24.2188 39.8828 23.9258L38.1055 22.8906L39.668 21.9727C40.0977 21.7188 40.293 21.2109 40.0586 20.8203C39.7852 20.332 39.2578 20.2734 38.8086 20.5273L36.3672 21.8945L32.2461 19.5703L36.3867 17.2266L38.8086 18.5938C39.2773 18.8672 39.8047 18.8086 40.0781 18.3398C40.3516 17.9102 40.1172 17.4219 39.6875 17.1484L38.1641 16.2305L39.9023 15.2344C40.4102 14.9219 40.6055 14.3945 40.332 13.9453C40.0586 13.4766 39.4922 13.3398 39.0234 13.6133L37.2266 14.6484L37.2266 12.8516C37.2266 12.3438 36.8945 11.9336 36.3867 11.9336C35.8789 11.9336 35.5273 12.3438 35.5273 12.9102L35.5078 15.6641L31.3867 18.0664L31.4258 13.2812L33.8477 11.8945C34.3555 11.6016 34.4727 11.1133 34.2578 10.6836C34.0234 10.1953 33.4766 10.1367 33.0078 10.3906L31.4258 11.2891L31.4453 9.29688C31.4453 8.73047 31.0938 8.30078 30.5469 8.30078C30 8.30078 29.6289 8.73047 29.6289 9.29688Z" fill="black" fill-opacity="0.85"/>
 </g>
</svg>
