<?xml version="1.0" encoding="UTF-8"?>
<!--Generator: Apple Native CoreSVG 326-->
<!DOCTYPE svg
PUBLIC "-//W3C//DTD SVG 1.1//EN"
       "http://www.w3.org/Graphics/SVG/1.1/DTD/svg11.dtd">
<svg version="1.1" xmlns="http://www.w3.org/2000/svg" xmlns:xlink="http://www.w3.org/1999/xlink" viewBox="0 0 52.6841 61.3477">
 <g>
  <rect height="61.3477" opacity="0" width="52.6841" x="0" y="0"/>
  <path d="M37.2014 1.62109L37.1819 5.70312L40.4436 3.82812C41.0295 3.47656 41.7327 3.59375 42.0647 4.17969C42.3967 4.78516 42.1428 5.41016 41.4983 5.80078L37.1624 8.30078L37.1038 17.3828L44.9163 12.832L44.9358 7.85156C44.9358 7.08984 45.3459 6.5625 46.0686 6.5625C46.7131 6.5625 47.1624 7.08984 47.1624 7.79297L47.1624 11.5039L50.7952 9.41406C51.4006 9.0625 52.1624 9.16016 52.5139 9.78516C52.885 10.4492 52.6311 11.1523 51.928 11.543L48.3538 13.5742L51.6155 15.4688C52.1819 15.7812 52.4358 16.4648 52.1233 17.0312C51.7327 17.6562 51.0491 17.7148 50.4436 17.3633L46.0881 14.8633L38.2366 19.3164L46.0295 23.7695L50.385 21.2695C51.01 20.918 51.7131 20.9961 52.0647 21.6016C52.3772 22.1875 52.1428 22.8516 51.5374 23.1836L48.2952 25.0586L51.9084 27.1484C52.592 27.5195 52.885 28.2227 52.5139 28.8672C52.1233 29.5117 51.3811 29.5898 50.717 29.1992L47.1233 27.1289L47.1038 30.8594C47.1038 31.5039 46.6545 32.0898 46.01 32.0898C45.3069 32.0703 44.8772 31.5039 44.8772 30.8008L44.8772 25.8008L37.1038 21.25L37.1624 30.293L41.4788 32.8125C42.1233 33.1836 42.3967 33.8086 42.0452 34.4336C41.7131 35.0195 41.01 35.1172 40.4241 34.7852L37.1819 32.9102L37.2014 37.0117C37.2014 37.7734 36.7522 38.3789 36.01 38.3789C35.2483 38.3789 34.7991 37.7734 34.7991 37.0117L34.8186 32.9102L31.5959 34.7852C30.9905 35.1172 30.3069 35.0195 29.9749 34.4336C29.6233 33.8086 29.8967 33.1836 30.5217 32.8125L34.8381 30.293L34.8967 21.25L29.358 24.4925L29.3602 21.844L33.7834 19.3164L29.3645 16.8101L29.3667 14.1616L34.8967 17.3828L34.8381 8.30078L30.5022 5.80078C29.8772 5.41016 29.6038 4.78516 29.9553 4.17969C30.2874 3.59375 30.9709 3.47656 31.5764 3.82812L34.8186 5.70312L34.7991 1.62109C34.7991 0.878906 35.2483 0.273438 36.01 0.273438C36.7522 0.273438 37.2014 0.878906 37.2014 1.62109Z" fill="black" fill-opacity="0.85"/>
  <path d="M19.0374 58.5547C26.1663 58.5547 31.928 52.7734 31.928 45.6641C31.928 41.9141 30.3655 38.5938 27.3381 35.9375C26.7522 35.4297 26.635 35.0977 26.635 34.2773L26.6545 10.957C26.6545 6.07422 23.5491 2.73438 19.0374 2.73438C14.5061 2.73438 11.3811 6.07422 11.3811 10.957L11.4006 34.2773C11.4006 35.0977 11.2834 35.4297 10.6975 35.9375C7.67017 38.5938 6.10767 41.9141 6.10767 45.6641C6.10767 52.7734 11.8694 58.5547 19.0374 58.5547ZM19.0374 55.4297C13.6467 55.4297 9.27173 51.0352 9.27173 45.6641C9.27173 42.5 10.7366 39.6289 13.4514 37.793C14.2717 37.2266 14.5842 36.6602 14.5842 35.6055L14.5842 11.0742C14.5842 8.00781 16.4006 5.89844 19.0374 5.89844C21.635 5.89844 23.4514 8.00781 23.4514 11.0742L23.4514 35.6055C23.4514 36.6602 23.7639 37.2266 24.5842 37.793C27.2991 39.6289 28.7639 42.5 28.7639 45.6641C28.7639 51.0352 24.3889 55.4297 19.0374 55.4297Z" fill="black" fill-opacity="0.85"/>
  <path d="M19.0178 52.0312C22.5334 52.0312 25.3655 49.1992 25.3655 45.6445C25.3655 43.1836 23.9983 41.1523 21.967 40.0586C21.1077 39.6094 20.8342 39.2773 20.8342 38.0078L20.8342 33.2031C20.8342 31.9922 20.0334 31.1914 19.0178 31.1914C18.0022 31.1914 17.2014 31.9922 17.2014 33.2031L17.2014 38.0078C17.2014 39.2773 16.928 39.6094 16.0686 40.0586C14.0374 41.1523 12.6702 43.1836 12.6702 45.6445C12.6702 49.1992 15.5022 52.0312 19.0178 52.0312Z" fill="black" fill-opacity="0.85"/>
 </g>
</svg>
