<?xml version="1.0" encoding="UTF-8"?>
<!--Generator: Apple Native CoreSVG 326-->
<!DOCTYPE svg
PUBLIC "-//W3C//DTD SVG 1.1//EN"
       "http://www.w3.org/Graphics/SVG/1.1/DTD/svg11.dtd">
<svg version="1.1" xmlns="http://www.w3.org/2000/svg" xmlns:xlink="http://www.w3.org/1999/xlink" viewBox="0 0 51.25 50.918">
 <g>
  <rect height="50.918" opacity="0" width="51.25" x="0" y="0"/>
  <path d="M50.8789 25.4688C50.8789 39.4922 39.4531 50.918 25.4297 50.918C11.4258 50.918 0 39.4922 0 25.4688C0 11.4648 11.4258 0.0390625 25.4297 0.0390625C39.4531 0.0390625 50.8789 11.4648 50.8789 25.4688ZM14.3164 14.8438L14.3164 27.9492C14.3164 28.3789 14.2773 28.5156 13.9648 28.75C12.2852 30.2148 11.4453 32.0508 11.4453 34.1406C11.4453 38.0664 14.6094 41.2305 18.5742 41.2305C22.5195 41.2305 25.6836 38.0664 25.6836 34.1406C25.6836 32.0508 24.8047 30.2148 23.1445 28.75C22.8711 28.5156 22.832 28.3789 22.832 27.9492L22.8516 14.8438C22.8516 12.1094 21.0938 10.2344 18.5742 10.2344C16.0352 10.2344 14.3164 12.1094 14.3164 14.8438ZM31.4453 17.1289C28.2227 17.1289 25.957 19.1602 25.957 22.2266L25.957 28.2422C25.957 28.9258 26.5234 29.4922 27.168 29.4922C27.8516 29.4922 28.3984 28.9258 28.3984 28.2422L28.3984 22.8711C28.3984 22.6562 28.6133 22.4414 28.8281 22.4414C29.1016 22.4414 29.2773 22.6562 29.2773 22.8711L29.2773 39.1992C29.2773 39.9805 29.8828 40.5664 30.625 40.5664C31.3867 40.5664 31.9531 39.9805 31.9531 39.1992L31.9531 29.2773C31.9531 29.0234 32.1875 28.8281 32.4219 28.8281C32.6758 28.8281 32.8906 29.0234 32.8906 29.2773L32.8906 39.1992C32.8906 39.9805 33.457 40.5664 34.2188 40.5664C34.9805 40.5664 35.5859 39.9805 35.5859 39.1992L35.5859 22.8711C35.5859 22.6562 35.7617 22.4414 36.0156 22.4414C36.25 22.4414 36.4648 22.6562 36.4648 22.8711L36.4648 28.2422C36.4648 28.9258 37.0117 29.4922 37.6562 29.4922C38.3203 29.4922 38.8867 28.9258 38.8867 28.2422L38.8867 22.2266C38.8867 19.1602 36.6406 17.1289 33.418 17.1289ZM20.8594 14.9023L20.8594 28.6914C20.8594 29.2773 21.0156 29.6484 21.5039 29.9609C22.9492 30.9375 23.7109 32.4414 23.7109 34.1406C23.7109 36.9922 21.4062 39.2969 18.5742 39.2969C15.7031 39.2969 13.418 36.9922 13.418 34.1406C13.418 32.4414 14.1797 30.9375 15.625 29.9609C16.0938 29.6484 16.2695 29.2773 16.2695 28.6914L16.2695 14.9023C16.2695 13.2617 17.168 12.2266 18.5742 12.2266C19.9414 12.2266 20.8594 13.2617 20.8594 14.9023ZM17.4805 26.1719L17.4805 29.9609C17.4805 30.6055 17.3633 30.7422 16.8945 30.9961C15.7812 31.582 15 32.7344 15 34.1211C15 36.1133 16.582 37.6953 18.5547 37.6953C20.5469 37.6953 22.1289 36.0938 22.1289 34.1211C22.1289 32.7344 21.3477 31.6211 20.1953 30.9961C19.7656 30.7617 19.668 30.6055 19.668 29.9609L19.668 26.1719C19.668 25.5859 19.1797 25.0781 18.5742 25.0781C17.9492 25.0781 17.4805 25.5859 17.4805 26.1719ZM17.4805 22.4219C17.4805 23.0469 17.9492 23.5547 18.5742 23.5547C19.1797 23.5547 19.668 23.0469 19.668 22.4219C19.668 21.8359 19.1797 21.3281 18.5742 21.3281C17.9492 21.3281 17.4805 21.8359 17.4805 22.4219ZM17.4805 18.6914C17.4805 19.2969 17.9492 19.8047 18.5742 19.8047C19.1797 19.8047 19.668 19.2969 19.668 18.6914C19.668 18.1055 19.1797 17.6172 18.5742 17.6172C17.9492 17.6172 17.4805 18.1055 17.4805 18.6914ZM17.4805 14.9414C17.4805 15.5664 17.9492 16.0352 18.5742 16.0352C19.1797 16.0352 19.668 15.5664 19.668 14.9414C19.668 14.3359 19.1797 13.8477 18.5742 13.8477C17.9492 13.8477 17.4805 14.3359 17.4805 14.9414ZM29.4141 12.4609C29.4141 14.1406 30.7617 15.4883 32.4219 15.4883C34.1211 15.4883 35.4492 14.1406 35.4492 12.4609C35.4492 10.7812 34.1211 9.43359 32.4219 9.43359C30.7617 9.43359 29.4141 10.7812 29.4141 12.4609Z" fill="black" fill-opacity="0.85"/>
 </g>
</svg>
