<?xml version="1.0" encoding="UTF-8"?>
<!--Generator: Apple Native CoreSVG 326-->
<!DOCTYPE svg
PUBLIC "-//W3C//DTD SVG 1.1//EN"
       "http://www.w3.org/Graphics/SVG/1.1/DTD/svg11.dtd">
<svg version="1.1" xmlns="http://www.w3.org/2000/svg" xmlns:xlink="http://www.w3.org/1999/xlink" viewBox="0 0 70.4688 48.6523">
 <g>
  <rect height="48.6523" opacity="0" width="70.4688" x="0" y="0"/>
  <path d="M0 24.3164C0 32.1875 2.59766 39.4531 6.97266 45.3125C7.65625 46.2109 8.76953 46.3086 9.62891 45.625C10.4102 44.9609 10.5078 43.9258 9.90234 43.0664C5.97656 37.8516 3.65234 31.3281 3.65234 24.3164C3.65234 17.2656 5.97656 10.7812 9.90234 5.52734C10.5078 4.70703 10.4297 3.67188 9.62891 2.98828C8.78906 2.30469 7.63672 2.42188 6.97266 3.32031C2.59766 9.16016 0 16.4258 0 24.3164ZM70.0977 24.3164C70.0977 16.4258 67.5 9.16016 63.1055 3.32031C62.4414 2.42188 61.3086 2.30469 60.4492 2.98828C59.668 3.67188 59.5898 4.70703 60.1953 5.52734C64.1211 10.7812 66.4258 17.2656 66.4258 24.3164C66.4258 31.3281 64.1211 37.8516 60.1953 43.0664C59.5898 43.9258 59.668 44.9609 60.4492 45.625C61.3086 46.3086 62.4414 46.2109 63.1055 45.3125C67.5 39.4531 70.0977 32.1875 70.0977 24.3164Z" fill="black" fill-opacity="0.85"/>
  <path d="M35.0391 48.6133C48.457 48.6133 59.3555 37.7344 59.3555 24.3164C59.3555 10.8984 48.457 0 35.0391 0C21.6211 0 10.7422 10.8984 10.7422 24.3164C10.7422 37.7344 21.6211 48.6133 35.0391 48.6133ZM35.0391 44.9805C23.6328 44.9805 14.375 35.7227 14.375 24.3164C14.375 12.9102 23.6328 3.63281 35.0391 3.63281C46.4453 3.63281 55.7227 12.9102 55.7227 24.3164C55.7227 35.7227 46.4453 44.9805 35.0391 44.9805Z" fill="black" fill-opacity="0.85"/>
  <path d="M34.0625 37.8516C37.2852 37.8516 39.8828 35.2539 39.8828 32.0117C39.8828 29.7461 38.6133 27.8906 36.7578 26.8945C36.1523 26.543 35.918 26.1914 35.918 25.2148L35.918 13.3789C35.918 12.3242 35.0977 11.5039 34.0625 11.5039C33.0273 11.5039 32.2266 12.3242 32.2266 13.3789L32.2266 25.2148C32.2266 26.1914 32.0117 26.543 31.3672 26.8945C29.5117 27.8906 28.2422 29.7461 28.2422 32.0117C28.2422 35.2539 30.8398 37.8516 34.0625 37.8516ZM40 16.3281L44.4336 16.3281C45.0391 16.3281 45.5469 15.8203 45.5469 15.2148C45.5469 14.6094 45.0391 14.1016 44.4336 14.1016L40 14.1016C39.3945 14.1016 38.8867 14.6094 38.8867 15.2148C38.8867 15.8203 39.3945 16.3281 40 16.3281ZM40 20.6445L44.4336 20.6445C45.0391 20.6445 45.5469 20.1367 45.5469 19.5312C45.5469 18.9258 45.0391 18.418 44.4336 18.418L40 18.418C39.3945 18.418 38.8867 18.9258 38.8867 19.5312C38.8867 20.1367 39.3945 20.6445 40 20.6445ZM40 25L44.4336 25C45.0391 25 45.5469 24.4922 45.5469 23.8672C45.5469 23.2617 45.0391 22.7734 44.4336 22.7734L40 22.7734C39.3945 22.7734 38.8867 23.2617 38.8867 23.8672C38.8867 24.4922 39.3945 25 40 25Z" fill="black" fill-opacity="0.85"/>
 </g>
</svg>
