<?xml version="1.0" encoding="UTF-8"?>
<!--Generator: Apple Native CoreSVG 326-->
<!DOCTYPE svg
PUBLIC "-//W3C//DTD SVG 1.1//EN"
       "http://www.w3.org/Graphics/SVG/1.1/DTD/svg11.dtd">
<svg version="1.1" xmlns="http://www.w3.org/2000/svg" xmlns:xlink="http://www.w3.org/1999/xlink" viewBox="0 0 51.25 50.918">
 <g>
  <rect height="50.918" opacity="0" width="51.25" x="0" y="0"/>
  <path d="M25.4297 50.8789C39.4727 50.8789 50.8789 39.4922 50.8789 25.4492C50.8789 11.4062 39.4727 0 25.4297 0C11.3867 0 0 11.4062 0 25.4492C0 39.4922 11.3867 50.8789 25.4297 50.8789ZM25.4297 47.2461C13.3789 47.2461 3.63281 37.5 3.63281 25.4492C3.63281 13.3984 13.3789 3.65234 25.4297 3.65234C37.4805 3.65234 47.2266 13.3984 47.2266 25.4492C47.2266 37.5 37.4805 47.2461 25.4297 47.2461Z" fill="black" fill-opacity="0.85"/>
  <path d="M17.1094 12.0508L33.75 12.0508C34.2969 12.0508 34.7461 11.6016 34.7461 11.0547C34.7461 10.5078 34.2969 10.0586 33.75 10.0586L17.1094 10.0586C16.5625 10.0586 16.1133 10.5078 16.1133 11.0547C16.1133 11.6016 16.5625 12.0508 17.1094 12.0508ZM25.4492 19.9219C28.5156 19.9219 31.1914 20.332 33.0859 21.1328L33.6523 13.5352L17.207 13.5352L17.793 21.1328C19.707 20.3516 22.3828 19.9219 25.4492 19.9219ZM25.4492 28.2617C30.9375 28.2617 34.8242 26.8359 34.8242 24.8242C34.8242 22.8125 30.8789 21.4062 25.4492 21.4062C20 21.4062 16.0352 22.8125 16.0352 24.8242C16.0352 26.8359 20 28.2617 25.4492 28.2617ZM25.4492 26.1914C21.4258 26.1914 18.8867 25.5859 18.8867 24.8242C18.8867 24.0625 21.4258 23.457 25.4492 23.457C29.4531 23.457 31.9727 24.0625 31.9727 24.8242C31.9727 25.5859 29.4531 26.1914 25.4492 26.1914ZM25.0391 34.375L25.8203 34.375C30.2734 34.375 33.6914 31.8945 34.5898 27.6562C32.7344 28.9648 29.4727 29.707 25.4492 29.707C21.4648 29.707 18.1445 28.9648 16.2695 27.6367C17.1484 31.8945 20.5859 34.375 25.0391 34.375ZM25.4297 42.5391C27.7148 42.5391 30.5078 41.9336 31.6992 40.8008C32.0703 40.4297 32.0703 40 31.9336 39.4727L30.5664 34.8633C29.1406 35.5273 27.4805 35.8594 25.8203 35.8594L25 35.8594C23.3594 35.8594 21.7188 35.5273 20.293 34.9023L18.9258 39.4727C18.7891 40 18.7891 40.4297 19.1602 40.8008C20.3516 41.9336 23.1445 42.5391 25.4297 42.5391Z" fill="black" fill-opacity="0.85"/>
 </g>
</svg>
