<?xml version="1.0" encoding="UTF-8"?>
<!--Generator: Apple Native CoreSVG 326-->
<!DOCTYPE svg
PUBLIC "-//W3C//DTD SVG 1.1//EN"
       "http://www.w3.org/Graphics/SVG/1.1/DTD/svg11.dtd">
<svg version="1.1" xmlns="http://www.w3.org/2000/svg" xmlns:xlink="http://www.w3.org/1999/xlink" viewBox="0 0 47.5781 55.1003">
 <g>
  <rect height="55.1003" opacity="0" width="47.5781" x="0" y="0"/>
  <path d="M23.1641 22.0911C38.125 22.0911 47.207 18.3411 47.207 13.1263C47.207 8.4388 40.3125 5.50912 30.332 5.50912C22.9688 5.50912 17.0898 6.95443 12.5781 9.0638C11.5039 9.57162 11.2695 10.5872 11.6602 11.349C12.0898 12.1693 13.1445 12.3841 14.0625 11.9935C18.0859 10.2943 23.2422 8.65365 30.1562 8.65365C38.7305 8.65365 43.8672 10.7044 43.8672 13.1068C43.8672 15.9388 35.7812 18.8685 23.0273 18.8685C10.293 18.8685 3.35938 16.2904 3.35938 11.388C3.35938 8.4388 6.17188 5.35287 13.3984 3.06771C14.4336 2.73568 14.8828 1.89583 14.5898 0.997397C14.2773 0.118491 13.4766-0.213541 12.3047 0.138022C4.12109 2.57943 0 6.91537 0 11.4857C0 18.3802 8.00781 22.0911 23.1641 22.0911ZM23.9453 30.2747C31.7969 30.2747 39.0234 29.0052 44.1211 26.8568C44.9805 26.5052 45.3906 25.6458 44.9805 24.8841C44.5898 24.1419 43.7891 24.0052 42.793 24.3763C38.0273 26.2513 31.2305 27.4232 23.9453 27.4232C18.457 27.4232 12.1484 26.7201 7.42188 25.3529C6.44531 25.0599 5.625 25.3529 5.39062 26.1927C5.13672 27.013 5.56641 27.7747 6.5625 28.0482C11.6602 29.513 18.2812 30.2747 23.9453 30.2747ZM25.7031 38.3411C32.3633 38.3021 38.5547 37.2865 44.082 35.4115C45.2344 35.0404 45.4102 34.1224 45.1562 33.4388C44.8438 32.6771 44.0625 32.4427 42.9492 32.7943C37.5195 34.5911 31.7969 35.5091 25.7031 35.5091C23.1055 35.5091 20.4297 35.3529 18.3203 35.0599C17.2656 34.9036 16.6016 35.3333 16.4648 36.1146C16.3281 36.8958 16.7383 37.638 17.8711 37.8333C19.8242 38.1654 22.5977 38.3607 25.7031 38.3411ZM23.3789 45.9974C27.9102 46.5247 33.4961 46.4271 38.1641 45.0794C39.1406 44.8255 39.5117 43.9466 39.2578 43.1849C39.0039 42.3841 38.2227 42.0911 37.1875 42.3646C33.0664 43.4583 28.2422 43.8099 23.8477 43.2435C22.832 43.1068 22.0898 43.5951 21.9922 44.3763C21.875 45.1966 22.2852 45.8607 23.3789 45.9974ZM21.6602 53.888C23.1836 54.1029 25.1758 54.0638 26.7773 53.8685C27.7734 53.7318 28.2422 53.0872 28.1641 52.2865C28.0664 51.5638 27.4805 51.0365 26.4062 51.1732C25.0195 51.3685 23.3594 51.388 21.9336 51.2122C20.9375 51.0755 20.332 51.6029 20.2148 52.2865C20.1172 53.0482 20.5859 53.7513 21.6602 53.888Z" fill="black" fill-opacity="0.85"/>
 </g>
</svg>
