<?xml version="1.0" encoding="UTF-8"?>
<!--Generator: Apple Native CoreSVG 326-->
<!DOCTYPE svg
PUBLIC "-//W3C//DTD SVG 1.1//EN"
       "http://www.w3.org/Graphics/SVG/1.1/DTD/svg11.dtd">
<svg version="1.1" xmlns="http://www.w3.org/2000/svg" xmlns:xlink="http://www.w3.org/1999/xlink" viewBox="0 0 51.25 50.918">
 <g>
  <rect height="50.918" opacity="0" width="51.25" x="0" y="0"/>
  <path d="M50.8789 25.4688C50.8789 39.4922 39.4531 50.918 25.4297 50.918C11.4258 50.918 0 39.4922 0 25.4688C0 11.4648 11.4258 0.0390625 25.4297 0.0390625C39.4531 0.0390625 50.8789 11.4648 50.8789 25.4688ZM26.9922 38.9648C26.1914 39.0625 25.332 39.082 24.5117 38.9648C23.7891 38.8672 23.3398 39.2969 23.2422 39.8047C23.1641 40.3516 23.4961 40.8984 24.2773 41.0352C25.1758 41.1328 26.3281 41.1133 27.2656 41.0156C27.9883 40.8984 28.3398 40.3906 28.2812 39.8242C28.2031 39.2773 27.7539 38.8477 26.9922 38.9648ZM33.0469 33.9844C30.7422 34.6094 28.0273 34.7852 25.6055 34.4336C24.8633 34.375 24.3359 34.7461 24.2383 35.3516C24.1797 35.9375 24.5117 36.4453 25.2734 36.5625C27.8711 36.8555 31.0742 36.8164 33.7695 36.0352C34.4727 35.8203 34.7461 35.1953 34.5703 34.6289C34.375 34.0234 33.8086 33.7695 33.0469 33.9844ZM36.3281 28.5352C33.2812 29.5508 30.0391 30.0977 26.6211 30.0977C25.1562 30.0977 23.6523 29.9805 22.4609 29.8242C21.7383 29.7461 21.2305 30.0586 21.1133 30.625C21.0156 31.2109 21.3281 31.7773 22.1094 31.9336C23.2422 32.1289 24.8633 32.2266 26.6211 32.207C30.4492 32.1875 33.9844 31.6211 37.1484 30.5469C37.9297 30.293 38.0859 29.5898 37.8906 29.0625C37.6953 28.4961 37.0898 28.2812 36.3281 28.5352ZM36.1914 23.7891C33.5352 24.8438 29.707 25.4883 25.6055 25.4883C22.5195 25.4883 18.9844 25.0977 16.3281 24.3359C15.6445 24.1211 15.0195 24.3555 14.8242 24.9805C14.668 25.5859 15 26.1914 15.7031 26.3867C18.5938 27.2266 22.4219 27.6562 25.6055 27.6562C30.1172 27.6562 34.2578 26.9336 37.168 25.6836C37.793 25.4297 38.0859 24.7852 37.793 24.1992C37.5 23.6328 36.8945 23.5156 36.1914 23.7891ZM18.9453 10.0391C14.1992 11.4648 11.7773 14.0039 11.7773 16.7188C11.7773 20.8789 16.5039 23.0078 25.1953 23.0078C33.6914 23.0078 39.082 20.8789 39.082 17.6953C39.082 14.8047 34.9805 13.1055 29.2383 13.1055C25.0391 13.1055 21.6406 13.9258 19.043 15.1172C18.3008 15.4883 18.125 16.25 18.4375 16.7969C18.7109 17.3828 19.4727 17.5586 20.1367 17.2461C22.3828 16.2891 25.2539 15.3711 29.1406 15.3711C33.9453 15.3711 36.6602 16.4453 36.6602 17.6758C36.6602 19.082 32.2656 20.6836 25.1172 20.6836C17.8906 20.6836 14.1992 19.2578 14.1992 16.6797C14.1992 15.1172 15.7031 13.4766 19.707 12.2266C20.4102 11.9922 20.7812 11.3672 20.5859 10.7031C20.3711 10.0586 19.7656 9.82422 18.9453 10.0391Z" fill="black" fill-opacity="0.85"/>
 </g>
</svg>
