<?xml version="1.0" encoding="UTF-8"?>
<!--Generator: Apple Native CoreSVG 326-->
<!DOCTYPE svg
PUBLIC "-//W3C//DTD SVG 1.1//EN"
       "http://www.w3.org/Graphics/SVG/1.1/DTD/svg11.dtd">
<svg version="1.1" xmlns="http://www.w3.org/2000/svg" xmlns:xlink="http://www.w3.org/1999/xlink" viewBox="0 0 51.25 50.918">
 <g>
  <rect height="50.918" opacity="0" width="51.25" x="0" y="0"/>
  <path d="M50.8789 25.4492C50.8789 39.4531 39.4531 50.8789 25.4297 50.8789C11.4258 50.8789 0 39.4531 0 25.4492C0 11.4258 11.4258 0 25.4297 0C39.4531 0 50.8789 11.4258 50.8789 25.4492ZM26.4844 32.8711C27.4219 34.2188 29.375 35.0586 31.2695 35.0586C32.832 35.0586 33.9648 34.375 33.9648 33.2422C33.9648 32.2852 33.0859 31.5625 31.9727 31.4258C31.4258 31.4062 30.9961 31.3867 30.4102 31.3672C29.2383 31.4453 27.3438 32.3242 26.4844 32.8711ZM9.19922 31.543C8.08594 31.8359 7.1875 32.2266 7.1875 33.1641C7.1875 34.3359 8.33984 35 9.90234 35C11.7969 35 13.7305 34.1406 14.707 32.793C13.2617 31.9922 12.0898 31.3867 10.5469 31.3477C10.1172 31.4648 9.62891 31.4844 9.19922 31.543ZM20.7812 24.9414C19.6875 24.9414 18.6914 24.8242 17.6953 24.5703C17.4609 26.7188 16.3867 29.1211 14.6094 31.0156C16.1523 31.6797 17.9492 33.0664 20.625 33.0664C23.3984 33.0664 25.332 31.7773 27.0117 31.0156C25.1953 29.2188 24.1016 26.8945 23.9062 24.5117C22.8711 24.8047 21.8164 24.9414 20.7812 24.9414ZM10.1758 24.2383C9.12109 26.2305 7.87109 27.4219 7.01172 28.0859C6.75781 28.3398 6.5625 28.6914 6.5625 29.082C6.5625 29.6289 7.10938 29.9609 8.22266 29.9609C8.73047 29.9609 9.31641 29.9609 9.82422 29.9609C11.1719 29.9609 12.1289 30.1562 13.0469 30.4492C14.7852 28.7109 16.0547 26.2109 16.3477 24.1211C14.7852 23.5547 13.0078 22.4609 11.875 21.3477C11.3281 22.2266 10.7031 23.2031 10.1758 24.2383ZM25.2734 24.0625C25.4883 26.25 26.543 28.5156 28.457 30.4297C29.5508 30.0977 30.5664 29.9023 31.9336 29.9023C32.9297 29.9023 33.9258 29.7852 34.3945 29.4727C33.0859 27.8516 30.8594 23.1836 29.6289 21.2305C28.4375 22.3828 26.6211 23.5352 25.2734 24.0625ZM34.9414 22.1094C34.3945 23.9648 33.8086 24.6875 33.2422 25.2148C33.9062 26.2305 34.8242 27.793 35.6641 28.9062C37.3633 28.0859 38.2031 27.2656 40.3516 27.2656C43.2422 27.2656 45.2148 26.1523 45.2148 24.3945C45.2148 20.5664 43.1445 17.832 40.0195 17.832C37.2656 17.832 35.6055 19.5312 34.9414 22.1094ZM12.7734 20.0586C14.9219 22.2852 17.6172 23.3984 20.7422 23.3789C24.0234 23.3594 26.6797 22.2461 28.8281 20.0195C26.7188 17.3633 24.4141 15.918 20.8789 15.8984C17.3438 15.8984 15 16.9922 12.7734 20.0586ZM41.3281 22.3047C41.3281 22.8516 40.8398 23.2812 40.3711 23.2812C39.8242 23.2812 39.3945 22.8516 39.3945 22.3047C39.3945 21.7773 39.8242 21.3281 40.3711 21.3281C40.8398 21.3281 41.3281 21.7773 41.3281 22.3047Z" fill="black" fill-opacity="0.85"/>
 </g>
</svg>
