<?xml version="1.0" encoding="UTF-8"?>
<!--Generator: Apple Native CoreSVG 326-->
<!DOCTYPE svg
PUBLIC "-//W3C//DTD SVG 1.1//EN"
       "http://www.w3.org/Graphics/SVG/1.1/DTD/svg11.dtd">
<svg version="1.1" xmlns="http://www.w3.org/2000/svg" xmlns:xlink="http://www.w3.org/1999/xlink" viewBox="0 0 51.25 50.918">
 <g>
  <rect height="50.918" opacity="0" width="51.25" x="0" y="0"/>
  <path d="M25.4297 50.8789C39.4727 50.8789 50.8789 39.4922 50.8789 25.4492C50.8789 11.4062 39.4727 0 25.4297 0C11.3867 0 0 11.4062 0 25.4492C0 39.4922 11.3867 50.8789 25.4297 50.8789ZM25.4297 47.2461C13.3789 47.2461 3.63281 37.5 3.63281 25.4492C3.63281 13.3984 13.3789 3.65234 25.4297 3.65234C37.4805 3.65234 47.2266 13.3984 47.2266 25.4492C47.2266 37.5 37.4805 47.2461 25.4297 47.2461Z" fill="black" fill-opacity="0.85"/>
  <path d="M20.8594 23.4375C24.082 23.418 26.6602 22.3242 28.7695 20.1562C26.7188 17.5586 24.4531 16.1523 20.9961 16.1328C17.5391 16.1328 15.2539 17.207 13.0664 20.1953C15.1758 22.3633 17.8125 23.457 20.8594 23.4375ZM13.3398 30.332C15.0391 28.6328 16.2695 26.1914 16.5625 24.1602C15.0391 23.5938 13.3008 22.5391 12.207 21.4453C11.6602 22.3047 11.0547 23.2617 10.5469 24.2773C9.51172 26.2305 8.28125 27.3828 7.44141 28.0469C7.1875 28.2812 7.01172 28.6328 7.01172 29.0039C7.01172 29.5312 7.53906 29.8633 8.61328 29.8633C9.10156 29.8633 9.6875 29.8633 10.1758 29.8633C11.5234 29.8633 12.4414 30.0586 13.3398 30.332ZM20.7422 32.8906C23.457 32.8906 25.3516 31.6406 26.9922 30.8984C25.2148 29.1211 24.1602 26.875 23.9648 24.5312C22.9492 24.8242 21.9336 24.9609 20.8984 24.9609C19.8242 24.9609 18.8477 24.8438 17.8711 24.5898C17.6367 26.6992 16.6016 29.0234 14.8633 30.8984C16.3672 31.543 18.125 32.8906 20.7422 32.8906ZM28.3984 30.3125C29.4727 30 30.4688 29.8047 31.8164 29.8047C32.7734 29.8047 33.75 29.6875 34.1992 29.375C32.9297 27.793 30.7227 23.2422 29.5508 21.3281C28.3789 22.4609 26.6211 23.5742 25.293 24.1016C25.5078 26.25 26.543 28.4375 28.3984 30.3125ZM40.0195 27.2266C42.8516 27.2266 44.7656 26.1328 44.7656 24.4141C44.7656 20.6836 42.7539 18.0078 39.707 18.0078C37.0117 18.0078 35.3906 19.6875 34.7461 22.1875C34.1992 24.0039 33.6133 24.707 33.0859 25.2344C33.7305 26.2305 34.6289 27.7539 35.4492 28.8281C37.0898 28.0273 37.9297 27.2266 40.0195 27.2266ZM40.0391 23.3398C39.5117 23.3398 39.1016 22.9102 39.1016 22.3828C39.1016 21.875 39.5117 21.4258 40.0391 21.4258C40.5078 21.4258 40.9766 21.875 40.9766 22.3828C40.9766 22.9102 40.5078 23.3398 40.0391 23.3398ZM10.2734 34.7656C12.1094 34.7656 14.0039 33.9258 14.9805 32.6172C13.5352 31.8359 12.4023 31.25 10.8984 31.2109C10.4883 31.3086 10.0195 31.3281 9.58984 31.4062C8.49609 31.6797 7.63672 32.0508 7.63672 32.9883C7.63672 34.1211 8.75 34.7656 10.2734 34.7656ZM31.1523 34.8242C32.6758 34.8242 33.7891 34.1602 33.7891 33.0469C33.7891 32.1289 32.9297 31.4258 31.8359 31.2891C31.2891 31.2695 30.8789 31.25 30.3125 31.2305C29.1797 31.3086 27.3242 32.168 26.4844 32.6953C27.4023 34.0039 29.3164 34.8242 31.1523 34.8242Z" fill="black" fill-opacity="0.85"/>
 </g>
</svg>
