<?xml version="1.0" encoding="UTF-8"?>
<!--Generator: Apple Native CoreSVG 326-->
<!DOCTYPE svg
PUBLIC "-//W3C//DTD SVG 1.1//EN"
       "http://www.w3.org/Graphics/SVG/1.1/DTD/svg11.dtd">
<svg version="1.1" xmlns="http://www.w3.org/2000/svg" xmlns:xlink="http://www.w3.org/1999/xlink" viewBox="0 0 68.5547 51.7383">
 <g>
  <rect height="51.7383" opacity="0" width="68.5547" x="0" y="0"/>
  <path d="M0 17.8125C0 21.0742 2.44141 23.4766 5.72266 23.4766L9.04297 23.4766C11.3086 23.4766 12.1484 23.9648 13.1445 25.5469L23.1445 41.5039C24.5703 43.7891 26.9727 45.7031 31.25 45.7031L62.4609 45.7031C65.7422 45.7031 68.1836 43.2422 68.1836 39.9414C68.1836 36.6797 65.7422 34.2773 62.4609 34.2773L33.4375 34.2773C32.5391 34.2773 31.6797 34.1016 31.2109 33.3594L21.4453 17.4219C19.1016 13.5547 16.1719 12.0508 12.1484 12.0508L5.72266 12.0508C2.44141 12.0508 0 14.5117 0 17.8125ZM3.26172 17.793C3.26172 16.3281 4.27734 15.3125 5.72266 15.3125L11.25 15.332C15 15.3516 16.7578 16.1523 18.5742 19.082L28.6133 35.2344C29.6289 36.8555 30.8789 37.5391 33.125 37.5391L62.4609 37.5391C63.8867 37.5391 64.9219 38.5547 64.9219 39.9609C64.9219 41.4453 63.8867 42.4414 62.4609 42.4414L31.875 42.4414C28.3984 42.4414 26.8945 41.4648 25.4297 39.1211L15.4492 23.125C14.0234 20.8789 12.7148 20.2148 9.72656 20.2148L5.72266 20.2148C4.27734 20.2148 3.26172 19.1992 3.26172 17.793ZM41.0742 27.4805L54.2578 27.4805C55.1172 27.4805 55.9375 27.2461 56.6406 26.7383C60.1953 23.9648 62.5391 19.707 62.5391 14.9219C62.5391 6.81641 55.8008 0 47.6758 0C39.5703 0 32.832 6.81641 32.832 14.9219C32.832 19.707 35.1367 23.9648 38.6719 26.7188C39.375 27.2461 40.2344 27.4805 41.0742 27.4805ZM42.207 24.1602C41.1133 24.1602 40.3711 23.9453 39.5508 23.1055C37.5586 21.0352 36.2891 18.2031 36.2891 14.9219C36.2891 8.39844 41.3086 3.49609 47.6953 3.49609C54.1016 3.49609 59.0234 8.39844 59.0234 14.9219C59.0234 18.1836 57.8125 21.0352 55.8203 23.0469C54.9805 23.9453 54.2773 24.1602 53.1641 24.1602ZM42.6953 35.8594L52.5391 35.8594L52.5391 26.0742L42.6953 26.0742ZM47.6758 51.582C50.5273 51.582 52.5391 49.5117 52.5391 46.6602L52.5391 44.5117L42.6953 44.5117L42.6953 46.6602C42.6953 49.5117 44.7656 51.582 47.6758 51.582Z" fill="black" fill-opacity="0.85"/>
 </g>
</svg>
