<?xml version="1.0" encoding="UTF-8"?>
<!--Generator: Apple Native CoreSVG 326-->
<!DOCTYPE svg
PUBLIC "-//W3C//DTD SVG 1.1//EN"
       "http://www.w3.org/Graphics/SVG/1.1/DTD/svg11.dtd">
<svg version="1.1" xmlns="http://www.w3.org/2000/svg" xmlns:xlink="http://www.w3.org/1999/xlink" viewBox="0 0 81.8555 51.8945">
 <g>
  <rect height="51.8945" opacity="0" width="81.8555" x="0" y="0"/>
  <path d="M78.4961 42.4023C80.1172 42.4023 81.4844 41.0742 81.4844 39.5312C81.4844 37.9297 80.1367 36.6406 78.4961 36.6406C76.8555 36.6406 75.5273 37.9297 75.5273 39.5312C75.5273 41.0742 76.8945 42.4023 78.4961 42.4023ZM78.4961 31.5234C79.5508 31.5234 80.293 30.7617 80.332 29.6875L80.7617 11.6992C80.8008 10.332 79.9023 9.43359 78.4961 9.43359C77.1094 9.43359 76.2109 10.332 76.25 11.6992L76.6797 29.6875C76.7188 30.7617 77.4609 31.5234 78.4961 31.5234Z" fill="black" fill-opacity="0.85"/>
  <path d="M0 17.8516C0 20.4688 2.10938 22.5781 4.72656 22.5781L10.0391 22.5781C11.3086 22.5781 12.0703 23.0273 12.8516 24.2578L22.6758 39.9414C24.8438 43.3594 27.2266 44.7852 32.2461 44.7852L62.8516 44.7852C65.4688 44.7852 67.5781 42.6953 67.5781 40.0781C67.5781 37.4414 65.4688 35.3516 62.8516 35.3516L32.4609 35.3516C31.1914 35.3516 30.4492 35.0391 29.9609 34.1992L19.9219 17.8516C17.9492 14.6289 15.1758 13.125 11.7578 13.125L4.72656 13.125C2.10938 13.125 0 15.2344 0 17.8516ZM41.2891 26.6992L54.0625 26.6992C54.8828 26.6992 55.6836 26.4648 56.3672 25.9766C59.8047 23.2812 62.0898 19.1602 62.0898 14.5117C62.0898 6.67969 55.5469 0.078125 47.6758 0.078125C39.8242 0.078125 33.3008 6.67969 33.3008 14.5117C33.3008 19.1602 35.5273 23.2812 38.9648 25.957C39.6289 26.4844 40.4688 26.6992 41.2891 26.6992ZM42.6953 33.2617L52.5391 33.2617L52.5391 26.1523L42.6953 26.1523ZM47.6758 51.8945C50.5273 51.8945 52.5391 49.8242 52.5391 46.9727L52.5391 46.875L42.6953 46.875L42.6953 46.9727C42.6953 49.8242 44.7656 51.8945 47.6758 51.8945Z" fill="black" fill-opacity="0.85"/>
 </g>
</svg>
