<?xml version="1.0" encoding="UTF-8"?>
<!--Generator: Apple Native CoreSVG 326-->
<!DOCTYPE svg
PUBLIC "-//W3C//DTD SVG 1.1//EN"
       "http://www.w3.org/Graphics/SVG/1.1/DTD/svg11.dtd">
<svg version="1.1" xmlns="http://www.w3.org/2000/svg" xmlns:xlink="http://www.w3.org/1999/xlink" viewBox="0 0 51.25 50.918">
 <g>
  <rect height="50.918" opacity="0" width="51.25" x="0" y="0"/>
  <path d="M25.4297 50.8789C39.4727 50.8789 50.8789 39.4922 50.8789 25.4492C50.8789 11.4062 39.4727 0 25.4297 0C11.3867 0 0 11.4062 0 25.4492C0 39.4922 11.3867 50.8789 25.4297 50.8789ZM25.4297 47.2461C13.3789 47.2461 3.63281 37.5 3.63281 25.4492C3.63281 13.3984 13.3789 3.65234 25.4297 3.65234C37.4805 3.65234 47.2266 13.3984 47.2266 25.4492C47.2266 37.5 37.4805 47.2461 25.4297 47.2461Z" fill="black" fill-opacity="0.85"/>
  <path d="M18.6914 35.6445L32.1484 35.6445C34.5508 35.6445 35.7812 34.043 35.7812 31.8945L35.7812 23.3008C35.7812 19.8242 35.293 16.4453 34.7852 14.4531C34.2969 12.4609 32.9102 11.0156 30.8594 10.8008C29.9414 10.6836 27.8906 10.5273 25.4102 10.5273C22.9492 10.5273 20.8984 10.6836 19.9609 10.8008C17.9297 11.0156 16.543 12.4609 16.0547 14.4531C15.5469 16.4453 15.0391 19.8242 15.0391 23.3008L15.0391 31.8945C15.0391 34.043 16.2695 35.6445 18.6914 35.6445ZM25.4102 27.6367C22.6367 27.6172 20.1562 27.5 18.7695 27.3438C18.0078 27.2656 17.6562 26.7578 17.6562 26.0156L17.6562 23.125C17.6562 20.7422 17.9102 18.75 18.1445 17.6953C18.2617 17.1094 18.6328 16.6992 19.1797 16.6406C20.6055 16.4648 22.3438 16.3672 25.4102 16.3672C28.457 16.3477 30.2148 16.4648 31.5625 16.6211C32.168 16.6992 32.5391 17.1094 32.6758 17.6953C32.8906 18.75 33.1641 20.7422 33.1641 23.125L33.1641 26.0156C33.1641 26.7578 32.8125 27.2656 32.0508 27.3438C30.1562 27.5391 27.6562 27.6367 25.4102 27.6367ZM19.668 32.9883C18.7305 32.9883 18.0469 32.3242 18.0469 31.3672C18.0469 30.4492 18.7305 29.7461 19.668 29.7461C20.6055 29.7461 21.2891 30.4492 21.2891 31.3672C21.2891 32.3242 20.5859 32.9883 19.668 32.9883ZM31.1523 33.0078C30.2148 33.0078 29.5117 32.3047 29.5117 31.3672C29.5117 30.4492 30.2148 29.7266 31.1523 29.7266C32.0898 29.7266 32.793 30.4492 32.793 31.3672C32.793 32.3047 32.0508 33.0078 31.1523 33.0078ZM22.2266 14.3555C21.7969 14.3555 21.5234 14.0625 21.5234 13.6523C21.5234 13.2422 21.7969 12.9688 22.2266 12.9688L28.6133 12.9688C29.0234 12.9688 29.2969 13.2422 29.2969 13.6523C29.2969 14.0625 29.0234 14.3555 28.6133 14.3555ZM16.9531 40.7617L17.5977 40.7617C17.9102 40.7617 18.0859 40.6641 18.2422 40.4102L21.582 35.0195L19.4727 35.0195L16.4648 39.8047C16.1914 40.2734 16.4258 40.7617 16.9531 40.7617ZM18.0859 39.2578L32.7539 39.2578L32.7539 37.5781L18.0859 37.5781ZM33.2812 40.7617L33.9062 40.7617C34.4336 40.7617 34.6484 40.2734 34.3555 39.8047L31.4062 35.0195L29.2773 35.0195L32.6172 40.4102C32.7734 40.6641 32.9492 40.7617 33.2812 40.7617Z" fill="black" fill-opacity="0.85"/>
 </g>
</svg>
