<?xml version="1.0" encoding="UTF-8"?>
<!--Generator: Apple Native CoreSVG 326-->
<!DOCTYPE svg
PUBLIC "-//W3C//DTD SVG 1.1//EN"
       "http://www.w3.org/Graphics/SVG/1.1/DTD/svg11.dtd">
<svg version="1.1" xmlns="http://www.w3.org/2000/svg" xmlns:xlink="http://www.w3.org/1999/xlink" viewBox="0 0 51.0319 59.043">
 <g>
  <rect height="59.043" opacity="0" width="51.0319" x="0" y="0"/>
  <path d="M5.34992 49.6875L45.3109 49.6875C49.2757 49.6875 51.346 47.2461 50.4671 43.5742L43.3968 14.5703C42.5179 11.0352 40.2913 9.19922 36.7757 9.19922L13.8851 9.19922C10.3694 9.19922 8.14288 11.0352 7.26398 14.5703L0.193666 43.5742C-0.665709 47.2461 1.38507 49.6875 5.34992 49.6875ZM25.3694 58.8672C24.3343 58.8672 23.7093 58.2227 23.7093 57.1484L23.7093 1.73828C23.7093 0.664062 24.3343 0 25.3694 0C26.346 0 26.971 0.664062 26.971 1.73828L26.971 57.1484C26.971 58.2227 26.346 58.8672 25.3694 58.8672Z" fill="black" fill-opacity="0.85"/>
 </g>
</svg>
