<?xml version="1.0" encoding="UTF-8"?>
<!--Generator: Apple Native CoreSVG 326-->
<!DOCTYPE svg
PUBLIC "-//W3C//DTD SVG 1.1//EN"
       "http://www.w3.org/Graphics/SVG/1.1/DTD/svg11.dtd">
<svg version="1.1" xmlns="http://www.w3.org/2000/svg" xmlns:xlink="http://www.w3.org/1999/xlink" viewBox="0 0 60.4688 43.8091">
 <g>
  <rect height="43.8091" opacity="0" width="60.4688" x="0" y="0"/>
  <path d="M16.1914 38.555L43.9062 43.3792C48.3789 44.1604 51.0742 41.2307 51.0742 36.2698L51.0742 7.24637C51.0742 2.09012 48.5352-0.663791 43.9062 0.13699L16.1914 4.96121C11.5625 5.78152 9.02344 8.02762 9.02344 12.0706L9.02344 31.4456C9.02344 35.469 11.5625 37.7346 16.1914 38.555ZM16.0742 35.3128C13.5938 34.9026 12.2852 33.7307 12.2852 31.4846L12.2852 12.0315C12.2852 9.78543 13.5938 8.61355 16.0742 8.2034L44.0234 3.37918C46.5039 2.96902 47.8125 4.4534 47.8125 7.2073L47.8125 36.3089C47.8125 38.9846 46.4453 40.5471 44.0234 40.137ZM1.71875 23.3987L58.3789 23.3987C59.4531 23.3987 60.0977 22.7542 60.0977 21.7776C60.0977 20.7425 59.4531 20.1175 58.3789 20.1175L1.71875 20.1175C0.644531 20.1175 0 20.7425 0 21.7776C0 22.7542 0.644531 23.3987 1.71875 23.3987Z" fill="black" fill-opacity="0.85"/>
 </g>
</svg>
