<?xml version="1.0" encoding="UTF-8"?>
<!--Generator: Apple Native CoreSVG 326-->
<!DOCTYPE svg
PUBLIC "-//W3C//DTD SVG 1.1//EN"
       "http://www.w3.org/Graphics/SVG/1.1/DTD/svg11.dtd">
<svg version="1.1" xmlns="http://www.w3.org/2000/svg" xmlns:xlink="http://www.w3.org/1999/xlink" viewBox="0 0 54.2285 60.0586">
 <g>
  <rect height="60.0586" opacity="0" width="54.2285" x="0" y="0"/>
  <path d="M17.2006 24.5004L17.8369 46.8945C17.8564 47.6953 18.4229 48.2227 19.2627 48.2227C20.1221 48.2227 20.6885 47.6758 20.6689 46.875L20.0883 27.3881L25.5127 32.8125L25.5127 46.875C25.5127 47.6758 26.0986 48.2227 26.958 48.2227C27.7979 48.2227 28.4033 47.6758 28.4033 46.875L28.4033 35.7031L33.4118 40.7116L33.2275 46.8945C33.208 47.6758 33.7744 48.2227 34.6338 48.2227C35.4736 48.2227 36.04 47.7148 36.0596 46.8945L36.1573 43.4571L44.1463 51.4461C43.5015 54.0769 41.3409 55.7812 38.4229 55.7812L15.4736 55.7812C12.0752 55.7812 9.73145 53.5156 9.5752 50.1562L7.85687 15.1567ZM37.7783 5.60547L37.7783 9.60938L49.5361 9.60938C50.415 9.60938 51.1572 10.3516 51.1572 11.25C51.1572 12.1289 50.4346 12.8711 49.5361 12.8711L46.1521 12.8711L44.847 39.7216L36.5009 31.3719L36.8604 18.7305C36.8799 17.9102 36.333 17.3828 35.4736 17.3828C34.6729 17.3828 34.0869 17.8906 34.0674 18.7109L33.7715 28.6412L28.4033 23.2708L28.4033 18.7109C28.4033 17.9102 27.7979 17.3828 26.958 17.3828C26.0986 17.3828 25.5127 17.9102 25.5127 18.7109L25.5127 20.3789L14.7478 9.60938L16.0791 9.60938L16.0791 5.60547C16.0791 2.12891 18.3252 0 22.0557 0L31.8018 0C35.5322 0 37.7783 2.12891 37.7783 5.60547ZM22.2314 3.22266C20.5713 3.22266 19.4971 4.23828 19.4971 5.80078L19.4971 9.60938L34.3604 9.60938L34.3604 5.80078C34.3604 4.23828 33.2861 3.22266 31.6064 3.22266Z" fill="black" fill-opacity="0.85"/>
  <path d="M48.3057 51.7578C48.9502 52.4023 50.0244 52.4023 50.6494 51.7578C51.3135 51.0938 51.3135 50.0391 50.6494 49.3945L5.57129 4.29688C4.94629 3.65234 3.87207 3.63281 3.20801 4.29688C2.56348 4.92188 2.56348 6.01562 3.20801 6.66016Z" fill="black" fill-opacity="0.85"/>
 </g>
</svg>
