<?xml version="1.0" encoding="UTF-8"?>
<!--Generator: Apple Native CoreSVG 326-->
<!DOCTYPE svg
PUBLIC "-//W3C//DTD SVG 1.1//EN"
       "http://www.w3.org/Graphics/SVG/1.1/DTD/svg11.dtd">
<svg version="1.1" xmlns="http://www.w3.org/2000/svg" xmlns:xlink="http://www.w3.org/1999/xlink" viewBox="0 0 54.2285 60.0586">
 <g>
  <rect height="60.0586" opacity="0" width="54.2285" x="0" y="0"/>
  <path d="M11.4101 18.7099L12.9541 49.7852C13.0322 51.3477 14.2236 52.5195 15.7666 52.5195L38.1104 52.5195C39.6729 52.5195 40.8447 51.3672 40.9229 49.7852L40.9938 48.2936L44.1463 51.4461C43.5015 54.0769 41.3409 55.7812 38.4229 55.7812L15.4736 55.7812C12.0752 55.7812 9.73145 53.5156 9.5752 50.1562L7.85313 15.1529ZM20.2394 27.5392L20.8057 46.5625C20.8252 47.3242 20.2783 47.8711 19.4385 47.8711C18.6377 47.8711 18.0908 47.3438 18.0713 46.5625L17.4362 24.736ZM28.3643 35.6641L28.3643 46.5625C28.3643 47.3242 27.7783 47.8711 26.958 47.8711C26.1182 47.8711 25.5518 47.3242 25.5518 46.5625L25.5518 32.8516ZM35.9229 43.2227L35.8252 46.582C35.8057 47.3633 35.2588 47.8711 34.458 47.8711C33.6182 47.8711 33.0713 47.3242 33.0908 46.5625L33.2693 40.5692ZM37.7783 5.60547L37.7783 9.60938L49.5361 9.60938C50.415 9.60938 51.1572 10.3516 51.1572 11.25C51.1572 12.1289 50.4346 12.8711 49.5361 12.8711L46.1549 12.8711L44.8478 39.7224L41.5581 36.4312L42.6788 12.8711L18.0081 12.8711L14.7478 9.60938L16.0791 9.60938L16.0791 5.60547C16.0791 2.12891 18.3252 0 22.0557 0L31.8018 0C35.5322 0 37.7783 2.12891 37.7783 5.60547ZM36.626 19.043L36.2741 31.1449L33.6289 28.4986L33.9111 19.0234C33.9307 18.2422 34.4971 17.7539 35.2588 17.7539C36.0986 17.7539 36.6455 18.2617 36.626 19.043ZM28.3643 19.043L28.3643 23.2317L25.5518 20.418L25.5518 19.043C25.5518 18.2617 26.1182 17.7344 26.958 17.7344C27.7783 17.7344 28.3643 18.2617 28.3643 19.043ZM22.2314 3.22266C20.5713 3.22266 19.4971 4.23828 19.4971 5.80078L19.4971 9.60938L34.3604 9.60938L34.3604 5.80078C34.3604 4.23828 33.2861 3.22266 31.6064 3.22266Z" fill="black" fill-opacity="0.85"/>
  <path d="M48.3057 51.7578C48.9502 52.4023 50.0244 52.4023 50.6494 51.7578C51.3135 51.0938 51.3135 50.0391 50.6494 49.3945L5.57129 4.29688C4.94629 3.65234 3.87207 3.63281 3.20801 4.29688C2.56348 4.92188 2.56348 6.01562 3.20801 6.66016Z" fill="black" fill-opacity="0.85"/>
 </g>
</svg>
