<?xml version="1.0" encoding="UTF-8"?>
<!--Generator: Apple Native CoreSVG 326-->
<!DOCTYPE svg
PUBLIC "-//W3C//DTD SVG 1.1//EN"
       "http://www.w3.org/Graphics/SVG/1.1/DTD/svg11.dtd">
<svg version="1.1" xmlns="http://www.w3.org/2000/svg" xmlns:xlink="http://www.w3.org/1999/xlink" viewBox="0 0 59.5508 42.4023">
 <g>
  <rect height="42.4023" opacity="0" width="59.5508" x="0" y="0"/>
  <path d="M7.59766 42.4023L51.5625 42.4023C56.6211 42.4023 59.1797 39.8438 59.1797 34.8633L59.1797 21.0352C59.1797 18.9844 58.8477 18.0273 57.8711 16.7188L48.6914 4.43359C46.1328 0.976562 44.6875 0.0585938 40.4883 0.0585938L18.6914 0.0585938C14.4922 0.0585938 13.0469 0.976562 10.4883 4.43359L1.28906 16.7188C0.332031 18.0273 0 18.9844 0 21.0352L0 34.8633C0 39.8633 2.55859 42.4023 7.59766 42.4023ZM29.5898 28.1836C25.7422 28.1836 23.1836 24.9609 23.1836 21.6406L23.1836 21.5234C23.1836 20.5078 22.5781 19.5898 21.3477 19.5898L4.62891 19.5898C3.90625 19.5898 3.75 18.9844 4.10156 18.4766L13.8672 5.29297C15.0391 3.69141 16.4844 3.10547 18.3984 3.10547L40.7812 3.10547C42.6953 3.10547 44.1406 3.69141 45.3125 5.29297L55.0586 18.4766C55.4102 18.9844 55.2539 19.5898 54.5312 19.5898L37.832 19.5898C36.6016 19.5898 35.9961 20.5078 35.9961 21.5234L35.9961 21.6406C35.9961 24.9609 33.4375 28.1836 29.5898 28.1836Z" fill="black" fill-opacity="0.85"/>
 </g>
</svg>
