<?xml version="1.0" encoding="UTF-8"?>
<!--Generator: Apple Native CoreSVG 326-->
<!DOCTYPE svg
PUBLIC "-//W3C//DTD SVG 1.1//EN"
       "http://www.w3.org/Graphics/SVG/1.1/DTD/svg11.dtd">
<svg version="1.1" xmlns="http://www.w3.org/2000/svg" xmlns:xlink="http://www.w3.org/1999/xlink" viewBox="0 0 59.5508 64.2773">
 <g>
  <rect height="64.2773" opacity="0" width="59.5508" x="0" y="0"/>
  <path d="M48.6914 20.5078L57.8711 32.793C58.8477 34.1016 59.1797 35.0586 59.1797 37.1094L59.1797 50.9375C59.1797 55.918 56.6211 58.4766 51.5625 58.4766L7.59766 58.4766C2.55859 58.4766 0 55.9375 0 50.9375L0 37.1094C0 35.0586 0.332031 34.1016 1.28906 32.793L10.4883 20.5078C13.0469 17.0508 14.4922 16.1328 18.6914 16.1328L23.4766 16.1328L23.4766 19.1797L18.3984 19.1797C16.4844 19.1797 15.0391 19.7656 13.8672 21.3672L4.10156 34.5508C3.75 35.0586 3.90625 35.6641 4.62891 35.6641L21.3477 35.6641C22.5781 35.6641 23.1836 36.582 23.1836 37.5977L23.1836 37.7148C23.1836 41.0352 25.7422 44.2773 29.5898 44.2773C33.4375 44.2773 35.9961 41.0352 35.9961 37.7148L35.9961 37.5977C35.9961 36.582 36.6016 35.6641 37.832 35.6641L54.5312 35.6641C55.2539 35.6641 55.4102 35.0586 55.0586 34.5508L45.3125 21.3672C44.1406 19.7656 42.6953 19.1797 40.7812 19.1797L35.7031 19.1797L35.7031 16.1328L40.4883 16.1328C44.6875 16.1328 46.1328 17.0508 48.6914 20.5078Z" fill="black" fill-opacity="0.85"/>
  <path d="M29.5898 0C28.6523 0 27.8711 0.761719 27.8711 1.66016L27.8711 25.8984L28.0078 29.6094L26.4453 28.0078L22.207 23.5547C21.8945 23.2031 21.4258 23.0273 21.0156 23.0273C20.1172 23.0273 19.4727 23.6719 19.4727 24.5508C19.4727 25 19.6484 25.3516 19.9805 25.6836L28.3398 33.8086C28.7695 34.2383 29.1406 34.375 29.5898 34.375C30.0195 34.375 30.4102 34.2383 30.8203 33.8086L39.1797 25.6836C39.5117 25.3516 39.6875 25 39.6875 24.5508C39.6875 23.6719 39.0039 23.0273 38.125 23.0273C37.7148 23.0273 37.2656 23.2031 36.9531 23.5547L32.7148 28.0078L31.1719 29.6094L31.2891 25.8984L31.2891 1.66016C31.2891 0.761719 30.5078 0 29.5898 0Z" fill="black" fill-opacity="0.85"/>
 </g>
</svg>
