<?xml version="1.0" encoding="UTF-8"?>
<!--Generator: Apple Native CoreSVG 326-->
<!DOCTYPE svg
PUBLIC "-//W3C//DTD SVG 1.1//EN"
       "http://www.w3.org/Graphics/SVG/1.1/DTD/svg11.dtd">
<svg version="1.1" xmlns="http://www.w3.org/2000/svg" xmlns:xlink="http://www.w3.org/1999/xlink" viewBox="0 0 59.5508 42.4023">
 <g>
  <rect height="42.4023" opacity="0" width="59.5508" x="0" y="0"/>
  <path d="M18.8281 9.0625L40.3516 9.0625C40.957 9.0625 41.4258 8.59375 41.4258 7.96875C41.4258 7.36328 40.957 6.875 40.3516 6.875L18.8281 6.875C18.2031 6.875 17.7344 7.36328 17.7344 7.96875C17.7344 8.59375 18.2031 9.0625 18.8281 9.0625ZM15.2734 15.0195L43.9062 15.0195C44.5312 15.0195 45.0195 14.5117 45.0195 13.8867C45.0195 13.2812 44.5312 12.7344 43.9062 12.7344L15.2734 12.7344C14.6289 12.7344 14.1406 13.2812 14.1406 13.8867C14.1406 14.5117 14.6289 15.0195 15.2734 15.0195ZM7.59766 42.4023L51.5625 42.4023C56.6211 42.4023 59.1797 39.8438 59.1797 34.8633L59.1797 20.2539C59.1797 18.1836 58.8867 17.1875 57.8711 15.918L48.6914 4.43359C45.9766 1.07422 44.6875 0.0585938 40.4883 0.0585938L18.6914 0.0585938C14.4922 0.0585938 13.2031 1.07422 10.4883 4.43359L1.28906 15.918C0.292969 17.1875 0 18.1836 0 20.2539L0 34.8633C0 39.8633 2.55859 42.4023 7.59766 42.4023ZM4.58984 18.7891C3.86719 18.7891 3.71094 18.1641 4.08203 17.6953L13.8672 5.29297C15.0977 3.73047 16.4844 3.10547 18.3984 3.10547L40.7812 3.10547C42.6953 3.10547 44.082 3.73047 45.3125 5.29297L55.0977 17.6953C55.4688 18.1641 55.3125 18.7891 54.5898 18.7891L37.4414 18.7891C36.2695 18.7891 35.7227 19.6484 35.7227 20.6055L35.7227 20.7227C35.7227 23.9258 33.2422 27.0117 29.5898 27.0117C25.918 27.0117 23.457 23.9258 23.457 20.7227L23.457 20.6055C23.457 19.6484 22.8906 18.7891 21.7383 18.7891ZM7.67578 38.9258C4.94141 38.9258 3.45703 37.4805 3.45703 34.6875L3.45703 21.9531L20.1562 21.9531C20.6445 26.7383 24.5703 30.2148 29.5898 30.2148C34.6094 30.2148 38.5156 26.7188 39.0039 21.9531L55.7031 21.9531L55.7031 34.6875C55.7031 37.4805 54.1797 38.9258 51.5039 38.9258Z" fill="black" fill-opacity="0.85"/>
 </g>
</svg>
