<?xml version="1.0" encoding="UTF-8"?>
<!--Generator: Apple Native CoreSVG 326-->
<!DOCTYPE svg
PUBLIC "-//W3C//DTD SVG 1.1//EN"
       "http://www.w3.org/Graphics/SVG/1.1/DTD/svg11.dtd">
<svg version="1.1" xmlns="http://www.w3.org/2000/svg" xmlns:xlink="http://www.w3.org/1999/xlink" viewBox="0 0 64.2773 64.5898">
 <g>
  <rect height="64.5898" opacity="0" width="64.2773" x="0" y="0"/>
  <path d="M31.9531 64.5898C34.1602 64.5898 35.6641 63.8867 35.6641 62.8125C35.6641 61.3086 35.2344 57.4219 35.2344 53.457C35.2344 48.8477 38.7891 41.4062 42.8125 33.9453L39.7461 32.0703C36.6602 37.6953 35.1758 40.5469 33.8477 43.5938L33.75 32.1484L30.0195 31.9727L30.0586 43.6133C28.75 40.5664 27.1289 37.5 24.3359 32.6562L21.8945 35.8008C25.1172 41.4062 28.6719 48.8477 28.6719 53.457C28.6719 57.4219 28.2422 61.3086 28.2422 62.8125C28.2422 63.8867 29.7461 64.5898 31.9531 64.5898Z" fill="black" fill-opacity="0.85"/>
  <path d="M0 38.9844C0 44.9219 3.94531 48.9844 9.6875 48.9844C11.5234 48.9844 13.4961 48.4961 15.625 47.4219C17.3242 49.043 21.4062 50.918 25.6445 50.9766C24.8047 47.0703 22.2266 41.8359 20.5273 38.7891C24.0625 38.3398 26.0352 36.3086 26.9727 33.5352C28.3594 34.5898 29.9023 35.1562 31.9531 35.1562C34.0039 35.1562 35.5469 34.5898 36.9336 33.5352C37.8711 36.3086 39.8438 38.3398 43.3984 38.7891C41.6797 41.8359 39.1211 47.0703 38.2617 50.9766C42.5 50.918 46.582 49.043 48.2812 47.4219C50.4102 48.4961 52.3828 48.9844 54.2188 48.9844C59.9609 48.9844 63.9062 44.9219 63.9062 38.9844C63.9062 35.9375 62.6562 32.7734 59.7656 29.9023C62.0703 27.5391 63.0078 24.7852 63.0078 21.9531C63.0078 16.0352 58.3984 10.6641 52.7344 10.0586C52.5391 4.29688 46.3086 0.175781 40.1758 0.175781C37.0312 0.175781 34.1211 1.21094 31.9531 3.49609C29.7852 1.21094 26.875 0.175781 23.7305 0.175781C17.5977 0.175781 11.3672 4.29688 11.1719 10.0586C5.50781 10.6641 0.898438 16.0352 0.898438 21.9531C0.898438 24.7852 1.83594 27.5391 4.14062 29.9023C1.25 32.7734 0 35.9375 0 38.9844Z" fill="black" fill-opacity="0.85"/>
 </g>
</svg>
