<?xml version="1.0" encoding="UTF-8"?>
<!--Generator: Apple Native CoreSVG 326-->
<!DOCTYPE svg
PUBLIC "-//W3C//DTD SVG 1.1//EN"
       "http://www.w3.org/Graphics/SVG/1.1/DTD/svg11.dtd">
<svg version="1.1" xmlns="http://www.w3.org/2000/svg" xmlns:xlink="http://www.w3.org/1999/xlink" viewBox="0 0 51.25 50.918">
 <g>
  <rect height="50.918" opacity="0" width="51.25" x="0" y="0"/>
  <path d="M25.4297 50.8789C39.4727 50.8789 50.8789 39.4922 50.8789 25.4492C50.8789 11.4062 39.4727 0 25.4297 0C11.3867 0 0 11.4062 0 25.4492C0 39.4922 11.3867 50.8789 25.4297 50.8789ZM25.4297 47.2461C13.3789 47.2461 3.63281 37.5 3.63281 25.4492C3.63281 13.3984 13.3789 3.65234 25.4297 3.65234C37.4805 3.65234 47.2266 13.3984 47.2266 25.4492C47.2266 37.5 37.4805 47.2461 25.4297 47.2461Z" fill="black" fill-opacity="0.85"/>
  <path d="M12.9297 30.4688C11.3867 33.1445 12.5391 35.7422 15.625 35.7422L35.2539 35.7422C38.3398 35.7422 39.4922 33.1445 37.9492 30.4688L28.4375 13.9453C27.0117 11.4453 23.9453 11.3086 22.3828 14.0234ZM15.7617 31.6211L24.8047 15.8398C25.0977 15.332 25.7617 15.332 26.0352 15.8398L35.1172 31.6211C35.4492 32.168 35.3516 32.7148 34.5898 32.7148L16.2891 32.7148C15.5273 32.7148 15.4297 32.168 15.7617 31.6211Z" fill="black" fill-opacity="0.85"/>
 </g>
</svg>
