<?xml version="1.0" encoding="UTF-8"?>
<!--Generator: Apple Native CoreSVG 326-->
<!DOCTYPE svg
PUBLIC "-//W3C//DTD SVG 1.1//EN"
       "http://www.w3.org/Graphics/SVG/1.1/DTD/svg11.dtd">
<svg version="1.1" xmlns="http://www.w3.org/2000/svg" xmlns:xlink="http://www.w3.org/1999/xlink" viewBox="0 0 95.3516 60.7764">
 <g>
  <rect height="60.7764" opacity="0" width="95.3516" x="0" y="0"/>
  <path d="M6.07422 45.0855L9.45312 45.0855C9.27734 44.3628 9.17969 43.6402 9.17969 42.8589C9.17969 37.5659 13.4375 33.3081 18.7305 33.3081C24.043 33.3081 28.3008 37.5659 28.3008 42.8589C28.3008 43.6402 28.2031 44.3823 28.0469 45.0855L62.4219 45.0855C62.2461 44.3628 62.1484 43.6402 62.1484 42.8589C62.1484 37.5855 66.4258 33.3081 71.6992 33.3081C77.0117 33.3081 81.2695 37.5659 81.2695 42.8589C81.2695 43.6402 81.1523 44.3628 80.9766 45.0855L88.8867 45.0855C92.7344 45.0855 94.9805 42.7808 94.9805 38.8355L94.9805 29.0308C94.9805 25.0855 92.7344 22.7808 88.8867 22.7808L67.9102 22.7808L67.3047 17.4683C66.7578 12.7612 64.0625 10.3394 59.3945 10.3394L49.2188 10.3394C41.0547 10.3394 36.3672 11.5112 30.8789 14.9487L20.5078 21.4917L11.1133 22.8589C3.49609 23.9722 0 27.273 0 33.1714L0 38.8355C0 42.7808 2.24609 45.0855 6.07422 45.0855ZM18.7305 49.6948C22.5586 49.6948 25.5859 46.687 25.5859 42.8589C25.5859 39.0503 22.5391 36.023 18.7305 36.023C14.9414 36.023 11.8945 39.0503 11.8945 42.8589C11.8945 46.6675 14.9414 49.6948 18.7305 49.6948ZM71.6992 49.6948C75.5078 49.6948 78.5352 46.6675 78.5352 42.8589C78.5352 39.0503 75.5078 36.023 71.6992 36.023C67.9102 36.023 64.8633 39.0698 64.8633 42.8589C64.8633 46.6675 67.8906 49.6948 71.6992 49.6948Z" fill="black" fill-opacity="0.85"/>
  <path d="M39.7461 48.9527C38.4961 48.9527 37.9883 49.9683 38.6523 51.023L44.1016 60.0073C44.7461 61.0425 45.9766 61.023 46.6016 60.0073L52.1094 51.023C52.7734 49.9683 52.2266 48.9527 50.9961 48.9527Z" fill="black" fill-opacity="0.85"/>
 </g>
</svg>
