<?xml version="1.0" encoding="UTF-8"?>
<!--Generator: Apple Native CoreSVG 326-->
<!DOCTYPE svg
PUBLIC "-//W3C//DTD SVG 1.1//EN"
       "http://www.w3.org/Graphics/SVG/1.1/DTD/svg11.dtd">
<svg version="1.1" xmlns="http://www.w3.org/2000/svg" xmlns:xlink="http://www.w3.org/1999/xlink" viewBox="0 0 95.3516 59.9854">
 <g>
  <rect height="59.9854" opacity="0" width="95.3516" x="0" y="0"/>
  <path d="M6.07422 44.2993L12.793 44.2993L12.793 40.8423L6.26953 40.8423C4.47266 40.8423 3.45703 39.69 3.45703 37.6587L3.45703 32.7759C3.45703 28.8111 5.89844 26.7212 11.5625 25.9009L21.6797 24.4165L32.7344 17.522C37.6562 14.4556 41.7969 13.4009 49.2188 13.4009L59.2188 13.4009C61.9531 13.4009 63.5352 14.8462 63.8281 17.5611L64.6484 25.0611L88.7109 25.0611C90.5078 25.0611 91.5234 26.1939 91.5234 28.2251L91.5234 37.6587C91.5234 39.69 90.5078 40.8423 88.7109 40.8423L78.3398 40.8423L78.3398 44.2993L88.8867 44.2993C92.7344 44.2993 94.9805 41.9946 94.9805 38.0493L94.9805 27.8345C94.9805 23.8892 92.7344 21.5845 88.8867 21.5845L67.8125 21.5845L67.3047 17.0728C66.7578 12.3657 64.0625 9.94386 59.3945 9.94386L49.2188 9.94386C41.0547 9.94386 36.3672 11.1157 30.8789 14.5532L20.5078 21.0962L11.1133 22.4634C3.49609 23.5767 0 26.8775 0 32.7759L0 38.0493C0 41.9946 2.24609 44.2993 6.07422 44.2993ZM24.9023 44.2993L65.6641 44.2993L65.6641 40.8423L24.9023 40.8423ZM18.7305 49.9829C23.4375 49.9829 27.1094 46.3111 27.1094 41.6236C27.1094 36.9165 23.4375 33.2446 18.7305 33.2446C14.043 33.2446 10.3711 36.9165 10.3711 41.6236C10.3711 46.3111 14.043 49.9829 18.7305 49.9829ZM18.7305 46.5259C15.9766 46.5259 13.8281 44.3775 13.8281 41.6236C13.8281 38.8501 15.9766 36.7017 18.7305 36.7017C21.5039 36.7017 23.6523 38.8501 23.6523 41.6236C23.6523 44.3775 21.5039 46.5259 18.7305 46.5259ZM71.6992 49.9829C76.4062 49.9829 80.0781 46.3111 80.0781 41.6236C80.0781 36.9165 76.4062 33.2446 71.6992 33.2446C67.0117 33.2446 63.3203 36.9165 63.3203 41.6236C63.3203 46.3111 67.0117 49.9829 71.6992 49.9829ZM71.6992 46.5259C68.9453 46.5259 66.7969 44.3775 66.7969 41.6236C66.7969 38.8501 68.9453 36.7017 71.6992 36.7017C74.4727 36.7017 76.6211 38.8501 76.6211 41.6236C76.6211 44.3775 74.4727 46.5259 71.6992 46.5259Z" fill="black" fill-opacity="0.85"/>
  <path d="M39.6875 48.147C38.4375 48.147 37.9297 49.1821 38.5938 50.2368L44.043 59.2017C44.6875 60.2564 45.918 60.2368 46.543 59.2017L52.0508 50.2173C52.6953 49.1626 52.168 48.147 50.9375 48.147Z" fill="black" fill-opacity="0.85"/>
  <path d="M39.6875 36.9751L50.9375 36.9751C52.168 36.9751 52.6953 35.9595 52.0508 34.9048L46.543 25.9204C45.918 24.9048 44.6875 24.8657 44.043 25.9204L38.5938 34.8853C37.9297 35.94 38.4375 36.9751 39.6875 36.9751Z" fill="black" fill-opacity="0.85"/>
 </g>
</svg>
