<?xml version="1.0" encoding="UTF-8"?>
<!--Generator: Apple Native CoreSVG 326-->
<!DOCTYPE svg
PUBLIC "-//W3C//DTD SVG 1.1//EN"
       "http://www.w3.org/Graphics/SVG/1.1/DTD/svg11.dtd">
<svg version="1.1" xmlns="http://www.w3.org/2000/svg" xmlns:xlink="http://www.w3.org/1999/xlink" viewBox="0 0 88.6914 67.0411">
 <g>
  <rect height="67.0411" opacity="0" width="88.6914" x="0" y="0"/>
  <path d="M23.7891 46.46C23.7891 50.0147 20.9766 52.8272 17.4219 52.8272C13.8867 52.8272 11.0742 49.9952 11.0742 46.46C11.0742 42.9248 13.8867 40.1123 17.4219 40.1123C20.9766 40.1123 23.7891 42.9248 23.7891 46.46ZM73.0469 46.46C73.0469 49.3612 71.1658 51.7889 68.5248 52.563L60.5991 44.6373C61.3771 42.0144 63.802 40.1123 66.6992 40.1123C70.2539 40.1123 73.0469 42.9248 73.0469 46.46ZM52.1108 48.5498L26.25 48.5498C26.4258 47.7686 26.5039 47.1827 26.5039 46.46C26.5039 41.4014 22.6367 37.3975 17.4219 37.3975C12.4219 37.3975 8.35938 41.2452 8.35938 46.4014C8.35938 47.1827 8.45703 47.7686 8.59375 48.5498L5.64453 48.5498C2.08984 48.5498 0 46.4014 0 42.7295L0 37.4561C0 31.9678 3.26172 28.9209 10.3516 27.8663L19.0625 26.5772L25.8423 22.309ZM62.5781 22.8467L63.1641 27.8077L82.6758 27.8077C86.25 27.8077 88.3203 29.9366 88.3203 33.6084L88.3203 42.7295C88.3203 46.4014 86.25 48.5498 82.6758 48.5498L75.5078 48.5498C75.7031 47.8272 75.7812 47.2413 75.7812 46.46C75.7812 41.4014 71.9141 37.3975 66.6992 37.3975C63.0642 37.3975 59.9247 39.4311 58.4901 42.5283L33.8794 17.9176C37.2017 16.6885 40.7875 16.2256 45.7617 16.2256L55.2148 16.2256C59.5898 16.2256 62.0703 18.4913 62.5781 22.8467Z" fill="black" fill-opacity="0.85"/>
  <path d="M61.1328 6.18656L61.1328 9.37016C61.1328 11.3233 60.0977 12.5733 58.1836 12.5733L36.582 12.5733C34.9023 12.5733 34.1602 11.792 34.1602 10.3663C34.1602 9.38969 34.6875 8.68656 36.1328 7.82719L42.3438 3.86235C46.6211 1.42094 49.0234 0.815471 52.7344 0.815471L55.3125 0.815471C59.375 0.815471 61.1328 2.57328 61.1328 6.18656Z" fill="black" fill-opacity="0.85"/>
  <path d="M71.25 63.8428C71.9141 64.4873 72.9688 64.4873 73.6133 63.8428C74.2578 63.1592 74.2578 62.1241 73.6133 61.4795L17.9102 5.79594C17.2656 5.15141 16.2305 5.13188 15.5469 5.79594C14.9023 6.44047 14.8828 7.51469 15.5469 8.15922Z" fill="black" fill-opacity="0.85"/>
 </g>
</svg>
