<?xml version="1.0" encoding="UTF-8"?>
<!--Generator: Apple Native CoreSVG 326-->
<!DOCTYPE svg
PUBLIC "-//W3C//DTD SVG 1.1//EN"
       "http://www.w3.org/Graphics/SVG/1.1/DTD/svg11.dtd">
<svg version="1.1" xmlns="http://www.w3.org/2000/svg" xmlns:xlink="http://www.w3.org/1999/xlink" viewBox="0 0 88.6914 65.4102">
 <g>
  <rect height="65.4102" opacity="0" width="88.6914" x="0" y="0"/>
  <path d="M5.64453 47.7344L8.59375 47.7344C8.45703 46.9531 8.35938 46.3672 8.35938 45.5859C8.35938 40.4297 12.4219 36.582 17.4219 36.582C22.6367 36.582 26.5039 40.5859 26.5039 45.6445C26.5039 46.3672 26.4258 46.9531 26.25 47.7344L57.832 47.7344C57.7148 47.0312 57.6367 46.3672 57.6367 45.5859C57.6367 40.4297 61.6992 36.582 66.6992 36.582C71.9141 36.582 75.7812 40.5859 75.7812 45.6445C75.7812 46.4258 75.7031 47.0117 75.5078 47.7344L82.6758 47.7344C86.25 47.7344 88.3203 45.5859 88.3203 41.9141L88.3203 32.793C88.3203 29.1211 86.25 26.9922 82.6758 26.9922L63.1641 26.9922L62.5781 22.0312C62.0703 17.6758 59.5898 15.4102 55.2148 15.4102L45.7617 15.4102C38.1836 15.4102 33.8281 16.4844 28.7109 19.6875L19.0625 25.7617L10.3516 27.0508C3.26172 28.1055 0 31.1523 0 36.6406L0 41.9141C0 45.5859 2.08984 47.7344 5.64453 47.7344ZM17.4219 52.0117C20.9766 52.0117 23.7891 49.1992 23.7891 45.6445C23.7891 42.1094 20.9766 39.2969 17.4219 39.2969C13.8867 39.2969 11.0742 42.1094 11.0742 45.6445C11.0742 49.1797 13.8867 52.0117 17.4219 52.0117ZM66.6992 52.0117C70.2539 52.0117 73.0469 49.1797 73.0469 45.6445C73.0469 42.1094 70.2539 39.2969 66.6992 39.2969C63.1641 39.2969 60.332 42.1289 60.332 45.6445C60.332 49.1797 63.1445 52.0117 66.6992 52.0117Z" fill="black" fill-opacity="0.85"/>
  <path d="M36.582 11.7578L58.1836 11.7578C60.0977 11.7578 61.1328 10.5078 61.1328 8.55469L61.1328 5.37109C61.1328 1.75781 59.375 0 55.3125 0L52.7344 0C49.0234 0 46.6211 0.605469 42.3438 3.04688L36.1328 7.01172C34.6875 7.87109 34.1602 8.57422 34.1602 9.55078C34.1602 10.9766 34.9023 11.7578 36.582 11.7578Z" fill="black" fill-opacity="0.85"/>
 </g>
</svg>
