<?xml version="1.0" encoding="UTF-8"?>
<!--Generator: Apple Native CoreSVG 326-->
<!DOCTYPE svg
PUBLIC "-//W3C//DTD SVG 1.1//EN"
       "http://www.w3.org/Graphics/SVG/1.1/DTD/svg11.dtd">
<svg version="1.1" xmlns="http://www.w3.org/2000/svg" xmlns:xlink="http://www.w3.org/1999/xlink" viewBox="0 0 86.0424 65.4203">
 <g>
  <rect height="65.4203" opacity="0" width="86.0424" x="0" y="0"/>
  <path d="M15.7849 19.7902L20.4919 22.5051L21.8982 20.0637L17.3083 17.427C16.0583 16.7043 15.8044 15.4934 16.6442 14.0676L18.6169 10.6301C20.2185 7.85665 22.7771 7.36837 27.0739 9.10665L34.7888 12.1535L45.3161 11.802C50.0232 11.6457 53.3435 12.5832 58.5388 15.591L65.57 19.634C67.4841 20.7473 68.0114 22.3879 67.1325 24.4191L64.6716 30.0051L81.5466 39.7512C82.7966 40.4738 83.0505 41.6848 82.2302 43.1106L78.4021 49.7316C77.5817 51.1574 76.4099 51.5481 75.1599 50.8254L67.8747 46.6262L66.488 49.0481L73.8708 53.3254C76.5661 54.8684 79.0857 54.1652 80.6677 51.4113L84.8083 44.2434C86.4099 41.4699 85.7653 38.9504 83.07 37.3879L68.2849 28.8527L69.7497 25.4738C71.2927 21.9582 70.3747 19.1652 67.0935 17.2707L59.945 13.1496C54.2224 9.84884 50.4724 8.77462 45.2185 8.96993L35.2966 9.34102L28.1482 6.50899C22.3669 4.2043 18.5778 5.10274 16.1755 9.24337L14.0466 12.9348C12.445 15.7082 13.0896 18.2277 15.7849 19.7902ZM28.988 27.4074L57.5817 43.9113L58.988 41.4895L30.3942 24.966ZM22.3669 28.9113C25.6482 30.8059 29.7107 29.7121 31.6247 26.4309C33.5192 23.1301 32.4255 19.0676 29.1442 17.1535C25.8435 15.259 21.781 16.3527 19.8669 19.634C17.9724 22.9348 19.0661 26.9973 22.3669 28.9113ZM23.7536 26.4699C21.82 25.3566 21.1755 22.9738 22.3083 21.0402C23.4216 19.1066 25.8044 18.4621 27.738 19.5949C29.6716 20.7082 30.3161 23.091 29.2028 25.0246C28.07 26.9582 25.6872 27.6027 23.7536 26.4699ZM59.5153 50.3566C62.7966 52.2512 66.8786 51.1574 68.7732 47.8762C70.6677 44.5754 69.5935 40.5129 66.2927 38.6184C62.9919 36.7043 58.9294 37.7981 57.0349 41.0988C55.1208 44.3801 56.2146 48.4621 59.5153 50.3566ZM60.9021 47.9348C58.9685 46.802 58.3435 44.4387 59.4567 42.4856C60.57 40.552 62.9528 39.927 64.8864 41.0402C66.82 42.1535 67.4646 44.5363 66.3513 46.4699C65.2185 48.4035 62.8552 49.0481 60.9021 47.9348Z" fill="black" fill-opacity="0.85"/>
  <path d="M8.10909 12.134L13.1091 3.46212C13.8903 2.13399 12.8357 0.942585 11.4489 1.19649L3.6169 2.44649C2.58175 2.62227 2.113 3.42305 2.48409 4.43868L5.31612 11.8215C5.8044 13.1496 7.32784 13.4621 8.10909 12.134ZM0.237997 22.4074C-0.250284 23.2668 0.0426845 24.3215 0.843466 24.7902L70.7263 65.2004C71.5075 65.6496 72.5817 65.3957 73.0505 64.5754C73.5388 63.6965 73.2263 62.6418 72.445 62.1926L2.56222 21.7824C1.78097 21.3332 0.706747 21.6066 0.237997 22.4074Z" fill="black" fill-opacity="0.85"/>
 </g>
</svg>
