<?xml version="1.0" encoding="UTF-8"?>
<!--Generator: Apple Native CoreSVG 326-->
<!DOCTYPE svg
PUBLIC "-//W3C//DTD SVG 1.1//EN"
       "http://www.w3.org/Graphics/SVG/1.1/DTD/svg11.dtd">
<svg version="1.1" xmlns="http://www.w3.org/2000/svg" xmlns:xlink="http://www.w3.org/1999/xlink" viewBox="0 0 95.3516 62.0898">
 <g>
  <rect height="62.0898" opacity="0" width="95.3516" x="0" y="0"/>
  <path d="M47.4219 33.8281C45.7422 33.8281 44.3555 32.4609 44.3555 30.8594C44.3555 29.2188 45.7227 27.9102 47.4219 27.9102C49.1211 27.9102 50.4883 29.2188 50.4883 30.8594C50.4883 32.4609 49.1016 33.8281 47.4219 33.8281ZM47.4219 22.6562C46.3477 22.6562 45.5664 21.8945 45.5273 20.7617L45.0781 2.32422C45.0391 0.9375 45.9766 0 47.4219 0C48.8672 0 49.8047 0.9375 49.7656 2.32422L49.3164 20.7617C49.2773 21.8945 48.5156 22.6562 47.4219 22.6562ZM6.07422 45.7422L9.45312 45.7422C9.27734 45.0195 9.17969 44.2969 9.17969 43.5156C9.17969 38.2227 13.4375 33.9648 18.7305 33.9648C24.043 33.9648 28.3008 38.2227 28.3008 43.5156C28.3008 44.2969 28.2031 45.0391 28.0469 45.7422L62.4219 45.7422C62.2461 45.0195 62.1484 44.2969 62.1484 43.5156C62.1484 38.2422 66.4258 33.9648 71.6992 33.9648C77.0117 33.9648 81.2695 38.2227 81.2695 43.5156C81.2695 44.2969 81.1523 45.0195 80.9766 45.7422L88.8867 45.7422C92.7344 45.7422 94.9805 43.4375 94.9805 39.4922L94.9805 29.6875C94.9805 25.7422 92.7344 23.4375 88.8867 23.4375L67.9102 23.4375L67.3047 18.125C66.7578 13.418 64.0625 10.9961 59.3945 10.9961L49.2188 10.9961C41.0547 10.9961 36.3672 12.168 30.8789 15.6055L20.5078 22.1484L11.1133 23.5156C3.49609 24.6289 0 27.9297 0 33.8281L0 39.4922C0 43.4375 2.24609 45.7422 6.07422 45.7422ZM18.7305 50.3516C22.5586 50.3516 25.5859 47.3438 25.5859 43.5156C25.5859 39.707 22.5391 36.6797 18.7305 36.6797C14.9414 36.6797 11.8945 39.707 11.8945 43.5156C11.8945 47.3242 14.9414 50.3516 18.7305 50.3516ZM71.6992 50.3516C75.5078 50.3516 78.5352 47.3242 78.5352 43.5156C78.5352 39.707 75.5078 36.6797 71.6992 36.6797C67.9102 36.6797 64.8633 39.7266 64.8633 43.5156C64.8633 47.3242 67.8906 50.3516 71.6992 50.3516Z" fill="black" fill-opacity="0.85"/>
 </g>
</svg>
