<?xml version="1.0" encoding="UTF-8"?>
<!--Generator: Apple Native CoreSVG 326-->
<!DOCTYPE svg
PUBLIC "-//W3C//DTD SVG 1.1//EN"
       "http://www.w3.org/Graphics/SVG/1.1/DTD/svg11.dtd">
<svg version="1.1" xmlns="http://www.w3.org/2000/svg" xmlns:xlink="http://www.w3.org/1999/xlink" viewBox="0 0 95.3516 40.0977">
 <g>
  <rect height="40.0977" opacity="0" width="95.3516" x="0" y="0"/>
  <path d="M1.62109 3.28125L8.88672 3.28125C9.92188 3.28125 10.625 3.51562 11.2305 4.14062L20.0977 12.9883L23.0664 11.3477L13.7891 2.07031C12.4609 0.722656 10.7422 0.15625 8.53516 0.15625L1.62109 0.15625C0.625 0.15625 0 0.78125 0 1.69922C0 2.63672 0.625 3.28125 1.62109 3.28125ZM6.07422 34.3555L12.793 34.3555L12.793 30.8984L6.26953 30.8984C4.47266 30.8984 3.45703 29.7461 3.45703 27.7148L3.45703 22.832C3.45703 18.8672 5.89844 16.7773 11.5625 15.957L21.6797 14.4727L32.7344 7.57812C37.6562 4.51172 41.7969 3.45703 49.2188 3.45703L59.2188 3.45703C61.9531 3.45703 63.5352 4.90234 63.8281 7.61719L64.6484 15.1172L88.7109 15.1172C90.5078 15.1172 91.5234 16.25 91.5234 18.2812L91.5234 27.7148C91.5234 29.7461 90.5078 30.8984 88.7109 30.8984L78.3398 30.8984L78.3398 34.3555L88.8867 34.3555C92.7344 34.3555 94.9805 32.0508 94.9805 28.1055L94.9805 17.8906C94.9805 13.9453 92.7344 11.6406 88.8867 11.6406L67.8125 11.6406L67.3047 7.12891C66.7578 2.42188 64.0625 0 59.3945 0L49.2188 0C41.0547 0 36.3672 1.17188 30.8789 4.60938L20.5078 11.1523L11.1133 12.5195C3.49609 13.6328 0 16.9336 0 22.832L0 28.1055C0 32.0508 2.24609 34.3555 6.07422 34.3555ZM24.9023 34.3555L65.6641 34.3555L65.6641 30.8984L24.9023 30.8984ZM18.7305 40.0391C23.4375 40.0391 27.1094 36.3672 27.1094 31.6797C27.1094 26.9727 23.4375 23.3008 18.7305 23.3008C14.043 23.3008 10.3711 26.9727 10.3711 31.6797C10.3711 36.3672 14.043 40.0391 18.7305 40.0391ZM18.7305 36.582C15.9766 36.582 13.8281 34.4336 13.8281 31.6797C13.8281 28.9062 15.9766 26.7578 18.7305 26.7578C21.5039 26.7578 23.6523 28.9062 23.6523 31.6797C23.6523 34.4336 21.5039 36.582 18.7305 36.582ZM71.6992 40.0391C76.4062 40.0391 80.0781 36.3672 80.0781 31.6797C80.0781 26.9727 76.4062 23.3008 71.6992 23.3008C67.0117 23.3008 63.3203 26.9727 63.3203 31.6797C63.3203 36.3672 67.0117 40.0391 71.6992 40.0391ZM71.6992 36.582C68.9453 36.582 66.7969 34.4336 66.7969 31.6797C66.7969 28.9062 68.9453 26.7578 71.6992 26.7578C74.4727 26.7578 76.6211 28.9062 76.6211 31.6797C76.6211 34.4336 74.4727 36.582 71.6992 36.582Z" fill="black" fill-opacity="0.85"/>
 </g>
</svg>
