<?xml version="1.0" encoding="UTF-8"?>
<!--Generator: Apple Native CoreSVG 326-->
<!DOCTYPE svg
PUBLIC "-//W3C//DTD SVG 1.1//EN"
       "http://www.w3.org/Graphics/SVG/1.1/DTD/svg11.dtd">
<svg version="1.1" xmlns="http://www.w3.org/2000/svg" xmlns:xlink="http://www.w3.org/1999/xlink" viewBox="0 0 51.25 50.918">
 <g>
  <rect height="50.918" opacity="0" width="51.25" x="0" y="0"/>
  <path d="M50.8789 25.4492C50.8789 39.4531 39.4531 50.8789 25.4297 50.8789C11.4258 50.8789 0 39.4531 0 25.4492C0 11.4258 11.4258 0 25.4297 0C39.4531 0 50.8789 11.4258 50.8789 25.4492ZM30.3125 12.3633C28.7305 13.125 27.2266 13.5352 25.3711 13.5352C23.5352 13.5352 22.0117 13.125 20.4492 12.3633C20.0586 12.1484 19.6289 12.1289 19.1406 12.3438L10.293 16.1914C9.25781 16.6602 8.80859 17.4414 9.10156 18.5352L10.2539 22.8711C10.5078 23.9844 11.2109 24.4141 12.2852 24.1797L15.5078 23.4766L15.6641 35.918C15.7031 38.125 16.7969 39.1797 19.043 39.1797L31.7188 39.1797C33.9648 39.1797 35.0586 38.125 35.0977 35.918L35.2539 23.4766L38.4766 24.1797C39.5508 24.4141 40.2539 23.9844 40.5273 22.8711L41.6797 18.5352C41.9531 17.4414 41.5039 16.6602 40.4688 16.1914L31.6211 12.3438C31.1328 12.1289 30.7227 12.1484 30.3125 12.3633ZM25.3711 17.1484C23.4766 17.1484 21.9141 16.25 21.3281 14.6289C22.5977 15.0781 24.0039 15.293 25.3711 15.293C26.7578 15.293 28.1641 15.0781 29.4336 14.6289C28.8477 16.2305 27.3242 17.1484 25.3711 17.1484Z" fill="black" fill-opacity="0.85"/>
 </g>
</svg>
