<?xml version="1.0" encoding="UTF-8"?>
<!--Generator: Apple Native CoreSVG 326-->
<!DOCTYPE svg
PUBLIC "-//W3C//DTD SVG 1.1//EN"
       "http://www.w3.org/Graphics/SVG/1.1/DTD/svg11.dtd">
<svg version="1.1" xmlns="http://www.w3.org/2000/svg" xmlns:xlink="http://www.w3.org/1999/xlink" viewBox="0 0 46.2891 45.918">
 <g>
  <rect height="45.918" opacity="0" width="46.2891" x="0" y="0"/>
  <path d="M7.59766 45.918L38.3008 45.918C43.3594 45.918 45.918 43.3594 45.918 38.3984L45.918 7.53906C45.918 2.55859 43.3594 0 38.3008 0L7.59766 0C2.55859 0 0 2.53906 0 7.53906L0 38.3984C0 43.3984 2.55859 45.918 7.59766 45.918ZM7.67578 42.4609C4.94141 42.4609 3.45703 41.0156 3.45703 38.2031L3.45703 7.71484C3.45703 4.92188 4.94141 3.45703 7.67578 3.45703L38.2422 3.45703C40.918 3.45703 42.4609 4.92188 42.4609 7.71484L42.4609 38.2031C42.4609 41.0156 40.918 42.4609 38.2422 42.4609Z" fill="black" fill-opacity="0.85"/>
  <path d="M22.9688 34.7461C23.7891 34.7461 24.2773 34.2578 24.2773 33.4375L24.2773 14.5898L30.5273 14.5898C31.2695 14.5898 31.7578 14.082 31.7578 13.4375C31.7578 12.7344 31.25 12.2852 30.5273 12.2852L15.3906 12.2852C14.668 12.2852 14.1602 12.7344 14.1602 13.4375C14.1602 14.1211 14.6875 14.5898 15.3906 14.5898L21.6602 14.5898L21.6602 33.4375C21.6602 34.2578 22.168 34.7461 22.9688 34.7461ZM17.6367 25.4492C17.7734 25.4492 17.9297 25.4102 18.0859 25.3711L28.4766 21.1133C28.8672 20.957 29.043 20.7227 29.043 20.3711C29.043 19.8438 28.6914 19.6094 28.3008 19.6094C28.1641 19.6094 28.0273 19.6484 27.8711 19.707L17.4609 23.9453C17.0703 24.1016 16.8945 24.3555 16.8945 24.707C16.8945 25.0977 17.168 25.4492 17.6367 25.4492ZM17.6367 30.332C17.7734 30.332 17.9297 30.293 18.0859 30.2344L28.4766 25.9961C28.8672 25.8203 29.043 25.6055 29.043 25.2344C29.043 24.7266 28.6914 24.4922 28.3008 24.4922C28.1641 24.4922 28.0273 24.5312 27.8711 24.5703L17.4609 28.8086C17.0703 28.9844 16.8945 29.2383 16.8945 29.5703C16.8945 29.9805 17.168 30.332 17.6367 30.332Z" fill="black" fill-opacity="0.85"/>
 </g>
</svg>
