<?xml version="1.0" encoding="UTF-8"?>
<!--Generator: Apple Native CoreSVG 326-->
<!DOCTYPE svg
PUBLIC "-//W3C//DTD SVG 1.1//EN"
       "http://www.w3.org/Graphics/SVG/1.1/DTD/svg11.dtd">
<svg version="1.1" xmlns="http://www.w3.org/2000/svg" xmlns:xlink="http://www.w3.org/1999/xlink" viewBox="0 0 60.4102 49.8382">
 <g>
  <rect height="49.8382" opacity="0" width="60.4102" x="0" y="0"/>
  <path d="M60.0391 29.9093C60.0391 14.1867 47.9492 1.29605 32.5977 0.00698344C31.7969-0.0711416 31.1719 0.514796 31.1719 1.33511L31.1719 9.32339C31.1719 9.98745 31.6602 10.5148 32.3438 10.5734C41.9727 11.7453 49.4531 19.9484 49.4531 29.9093C49.4531 34.4406 47.9102 38.6007 45.1758 42.0382C44.8047 42.507 44.8242 43.0929 45.2344 43.5031L51.0352 49.3039C51.6211 49.8703 52.4609 49.8703 52.9688 49.2453C57.3828 44.0109 60.0391 37.2531 60.0391 29.9093Z" fill="black" fill-opacity="0.85"/>
  <path d="M0 29.9093C0 37.2726 2.65625 44.05 7.08984 49.2843C7.57812 49.8703 8.39844 49.8703 8.98438 49.3039L14.7852 43.5031C15.1953 43.0929 15.2148 42.507 14.8438 42.0382C12.1094 38.6007 10.5664 34.4406 10.5664 29.9093C10.5664 19.9484 18.0664 11.7453 27.6758 10.5734C28.3789 10.5148 28.8477 9.98745 28.8477 9.32339L28.8477 1.33511C28.8477 0.514796 28.2422-0.0711416 27.4414 0.00698344C12.0703 1.29605 0 14.1867 0 29.9093Z" fill="black" fill-opacity="0.85"/>
  <path d="M30 42.0382C30.8008 42.0382 31.2891 41.55 31.2891 40.7296L31.2891 21.882L37.5586 21.882C38.3008 21.882 38.7891 21.3742 38.7891 20.7296C38.7891 20.0265 38.2812 19.5773 37.5586 19.5773L22.4219 19.5773C21.6797 19.5773 21.1719 20.0265 21.1719 20.7296C21.1719 21.4132 21.6992 21.882 22.4219 21.882L28.6914 21.882L28.6914 40.7296C28.6914 41.55 29.1992 42.0382 30 42.0382ZM24.668 32.7414C24.8047 32.7414 24.9414 32.7023 25.0977 32.6437L35.4883 28.4054C35.8789 28.2492 36.0547 28.0148 36.0547 27.6437C36.0547 27.1359 35.7227 26.9015 35.332 26.9015C35.1953 26.9015 35.0391 26.9406 34.9023 26.9796L24.4922 31.2179C24.1016 31.3937 23.9258 31.6476 23.9258 31.9796C23.9258 32.3898 24.1992 32.7414 24.668 32.7414ZM24.668 37.6046C24.8047 37.6046 24.9414 37.5851 25.0977 37.5265L35.4883 33.2882C35.8789 33.1125 36.0547 32.8976 36.0547 32.5265C36.0547 31.9992 35.7227 31.7843 35.332 31.7843C35.1953 31.7843 35.0391 31.8039 34.9023 31.8625L24.4922 36.1007C24.1016 36.2765 23.9258 36.5109 23.9258 36.8625C23.9258 37.2531 24.1992 37.6046 24.668 37.6046Z" fill="black" fill-opacity="0.85"/>
 </g>
</svg>
