<?xml version="1.0" encoding="UTF-8"?>
<!--Generator: Apple Native CoreSVG 326-->
<!DOCTYPE svg
PUBLIC "-//W3C//DTD SVG 1.1//EN"
       "http://www.w3.org/Graphics/SVG/1.1/DTD/svg11.dtd">
<svg version="1.1" xmlns="http://www.w3.org/2000/svg" xmlns:xlink="http://www.w3.org/1999/xlink" viewBox="0 0 46.2891 45.918">
 <g>
  <rect height="45.918" opacity="0" width="46.2891" x="0" y="0"/>
  <path d="M45.918 7.53906L45.918 38.3984C45.918 43.3594 43.3594 45.918 38.3008 45.918L7.59766 45.918C2.55859 45.918 0 43.3984 0 38.3984L0 7.53906C0 2.53906 2.55859 0 7.59766 0L38.3008 0C43.3594 0 45.918 2.55859 45.918 7.53906ZM15.2344 12.0117C14.4727 12.0117 13.9648 12.4609 13.9648 13.1836C13.9648 13.8867 14.4922 14.375 15.2344 14.375L21.6406 14.375L21.6406 22.1875L17.3438 23.9453C16.9336 24.1211 16.7578 24.375 16.7578 24.7461C16.7578 25.1367 17.0508 25.5078 17.5195 25.5078C17.6562 25.5078 17.832 25.4688 17.9883 25.4297L21.6406 23.9062L21.6406 27.207L17.3438 28.9648C16.9336 29.1211 16.7578 29.375 16.7578 29.7266C16.7578 30.1562 17.0508 30.5078 17.5195 30.5078C17.6562 30.5078 17.832 30.4688 17.9883 30.4102L21.6406 28.9258L21.6406 33.6914C21.6406 34.5312 22.168 35.0195 22.9883 35.0195C23.8281 35.0195 24.3359 34.5312 24.3359 33.6914L24.3359 27.832L28.6328 26.0742C29.043 25.8789 29.2188 25.6641 29.2188 25.2734C29.2188 24.7656 28.8477 24.5117 28.4766 24.5117C28.3398 24.5117 28.1641 24.5508 28.0078 24.5898L24.3359 26.0938L24.3359 22.832L28.6328 21.0547C29.043 20.8984 29.2188 20.6641 29.2188 20.2734C29.2188 19.7461 28.8477 19.5117 28.4766 19.5117C28.3398 19.5117 28.1641 19.5508 28.0078 19.6094L24.3359 21.1133L24.3359 14.375L30.7422 14.375C31.5234 14.375 32.0117 13.8477 32.0117 13.1836C32.0117 12.4609 31.5039 12.0117 30.7422 12.0117Z" fill="black" fill-opacity="0.85"/>
 </g>
</svg>
