<?xml version="1.0" encoding="UTF-8"?>
<!--Generator: Apple Native CoreSVG 326-->
<!DOCTYPE svg
PUBLIC "-//W3C//DTD SVG 1.1//EN"
       "http://www.w3.org/Graphics/SVG/1.1/DTD/svg11.dtd">
<svg version="1.1" xmlns="http://www.w3.org/2000/svg" xmlns:xlink="http://www.w3.org/1999/xlink" viewBox="0 0 52.8906 52.7148">
 <g>
  <rect height="52.7148" opacity="0" width="52.8906" x="0" y="0"/>
  <path d="M13.75 26.3477L13.7305 35.8984L3.59375 46.0547L6.64062 49.082L16.6406 39.1211L26.4844 39.0625C28.1641 39.0625 29.8633 38.5156 31.1523 37.2461L51.8945 16.7188C52.7539 15.8789 52.7148 14.5312 51.8945 13.6719C51.0742 12.832 49.668 12.832 48.8477 13.6914L28.75 33.8477C27.9688 34.6289 26.9727 35.1172 25.8008 35.1172L18.2812 35.1172L17.9688 34.7266L17.9688 26.7969C17.9688 25.625 18.4375 24.6289 19.2188 23.8281L39.1406 3.96484C39.9805 3.14453 39.9414 1.75781 39.1406 0.917969C38.3203 0.078125 36.9141 0.0585938 36.0938 0.917969L15.5859 21.6797C14.2773 23.0078 13.7695 24.668 13.75 26.3477ZM4.33594 52.7148C6.71875 52.7148 8.67188 50.7617 8.67188 48.3789C8.67188 45.957 6.71875 44.0039 4.31641 44.0234C1.93359 44.043 0 45.957 0 48.3789C0 50.7617 1.93359 52.7148 4.33594 52.7148Z" fill="black" fill-opacity="0.85"/>
 </g>
</svg>
