<?xml version="1.0" encoding="UTF-8"?>
<!--Generator: Apple Native CoreSVG 326-->
<!DOCTYPE svg
PUBLIC "-//W3C//DTD SVG 1.1//EN"
       "http://www.w3.org/Graphics/SVG/1.1/DTD/svg11.dtd">
<svg version="1.1" xmlns="http://www.w3.org/2000/svg" xmlns:xlink="http://www.w3.org/1999/xlink" viewBox="0 0 55.5273 53.1055">
 <g>
  <rect height="53.1055" opacity="0" width="55.5273" x="0" y="0"/>
  <path d="M3.06641 47.6758L52.0898 47.6758L52.0898 46.1719C52.0898 45.332 51.582 44.8242 50.7227 44.8242L49.1211 44.8242L49.1211 16.6797L51.3867 16.6797C52.5781 16.6797 53.2422 15.8398 53.2422 14.9609C53.2422 14.3164 52.8906 13.75 52.1094 13.3008L30.5273 0.839844C29.5703 0.292969 28.5547 0 27.5781 0C26.6016 0 25.5664 0.292969 24.6289 0.839844L3.04688 13.3008C2.24609 13.75 1.91406 14.3164 1.91406 14.9609C1.91406 15.8398 2.57812 16.6797 3.76953 16.6797L6.05469 16.6797L6.05469 44.8242L4.45312 44.8242C3.57422 44.8242 3.06641 45.332 3.06641 46.1719ZM9.31641 44.8242L9.31641 13.7109L26.4453 4.0625C26.7773 3.86719 27.1875 3.75 27.5781 3.75C27.9492 3.75 28.3398 3.86719 28.7109 4.0625L45.8594 13.7109L45.8594 44.8242ZM1.73828 53.0664L53.418 53.0664C54.375 53.0664 55.1562 52.2852 55.1562 51.3477C55.1562 50.3906 54.375 49.6094 53.418 49.6094L1.73828 49.6094C0.78125 49.6094 0 50.3906 0 51.3477C0 52.2852 0.78125 53.0664 1.73828 53.0664Z" fill="black" fill-opacity="0.85"/>
  <path d="M24.5898 37.2656L24.8828 37.2656C27.9102 37.2656 30.918 36.1328 32.8906 34.2578C34.5312 32.6172 35.7227 30.3906 35.7227 28.1836C35.7227 27.4609 35.3516 26.9336 34.5312 26.9336C33.7695 26.9336 33.3789 27.3828 33.3008 28.1445C33.1055 29.8242 32.3633 31.2891 31.2891 32.4023C29.8047 33.9844 27.6562 34.7656 25.5078 34.7656L25.5078 26.6016L30.8008 24.3945C31.1914 24.2383 31.3867 24.0039 31.3867 23.6719C31.3867 23.2031 31.0742 22.8906 30.625 22.8906C30.4883 22.8906 30.3516 22.9492 30.2148 23.0078L25.5078 24.9609L25.5078 21.7383L30.8008 19.5508C31.1914 19.3945 31.3867 19.1211 31.3867 18.7695C31.3867 18.457 31.1914 18.0273 30.6641 18.0273C30.5078 18.0273 30.3711 18.0859 30.2148 18.1445L25.5078 20.0977L25.5078 16.3477C25.5078 15.5664 24.9805 15.0195 24.1992 15.0195C23.418 15.0195 22.8711 15.5664 22.8711 16.3477L22.8711 21.1523L19.668 22.4805C19.2969 22.6172 19.1406 22.8516 19.1406 23.2031C19.1406 23.6328 19.4531 23.9648 19.8633 23.9648C19.9805 23.9648 20.1367 23.9258 20.3125 23.8672L22.8711 22.793L22.8711 26.0156L19.668 27.3438C19.2969 27.5 19.1406 27.7148 19.1406 28.0664C19.1406 28.4961 19.4531 28.8281 19.8633 28.8281C19.9805 28.8281 20.1758 28.7891 20.332 28.7305L22.8711 27.6562L22.8711 35.625C22.8711 36.6211 23.5938 37.2656 24.5898 37.2656Z" fill="black" fill-opacity="0.85"/>
 </g>
</svg>
