<?xml version="1.0" encoding="UTF-8"?>
<!--Generator: Apple Native CoreSVG 326-->
<!DOCTYPE svg
PUBLIC "-//W3C//DTD SVG 1.1//EN"
       "http://www.w3.org/Graphics/SVG/1.1/DTD/svg11.dtd">
<svg version="1.1" xmlns="http://www.w3.org/2000/svg" xmlns:xlink="http://www.w3.org/1999/xlink" viewBox="0 0 60.4102 50.0586">
 <g>
  <rect height="50.0586" opacity="0" width="60.4102" x="0" y="0"/>
  <path d="M60.0391 30.0195C60.0391 22.6562 57.3828 15.918 52.9688 10.6836C52.4609 10.0781 51.6016 10.0977 51.0352 10.6641L45.3906 16.3086C44.9023 16.7969 44.8828 17.4805 45.3125 18.0273C47.9102 21.3477 49.4531 25.4883 49.4531 30.0195C49.4531 34.5508 47.9102 38.7109 45.1953 42.1484C44.8242 42.6172 44.8438 43.2031 45.2539 43.6133L51.0352 49.4141C51.6016 50 52.4414 49.9805 52.9688 49.375C57.3828 44.1406 60.0391 37.3633 60.0391 30.0195Z" fill="black" fill-opacity="0.85"/>
  <path d="M30.0195 10.5664C34.5508 10.5664 38.7305 12.1289 42.0508 14.7656C42.5781 15.1562 43.2227 15.1172 43.7109 14.6289L49.375 8.96484C49.9609 8.39844 49.9414 7.55859 49.3359 7.03125C44.1211 2.65625 37.3633 0 30.0195 0C22.6758 0 15.918 2.65625 10.7031 7.03125C10.0977 7.55859 10.0781 8.39844 10.6445 8.96484L16.3281 14.6289C16.7969 15.1172 17.5 15.1367 18.0469 14.707C21.3477 12.1289 25.5078 10.5664 30.0195 10.5664Z" fill="black" fill-opacity="0.85"/>
  <path d="M0 30.0195C0 37.3633 2.65625 44.1406 7.07031 49.375C7.57812 49.9805 8.4375 50 9.00391 49.4141L14.7852 43.6133C15.1758 43.2031 15.2148 42.6172 14.8438 42.1484C12.1289 38.7109 10.5664 34.5508 10.5664 30.0195C10.5664 25.4883 12.1094 21.3477 14.7266 18.0273C15.1367 17.4805 15.1367 16.7969 14.6484 16.3086L8.98438 10.6641C8.41797 10.0977 7.57812 10.0781 7.05078 10.6836C2.63672 15.918 0 22.6562 0 30.0195Z" fill="black" fill-opacity="0.85"/>
  <path d="M26.9922 41.1914L27.2852 41.1914C30.3125 41.1914 33.3203 40.0781 35.293 38.1836C36.9336 36.543 38.125 34.3164 38.125 32.1094C38.125 31.3867 37.7539 30.8594 36.9336 30.8594C36.1914 30.8594 35.7812 31.3086 35.7031 32.0703C35.5078 33.75 34.7656 35.2344 33.6914 36.3477C32.207 37.9102 30.0586 38.7109 27.9102 38.7109L27.9102 30.5273L33.2031 28.3398C33.5938 28.1836 33.7891 27.9297 33.7891 27.6172C33.7891 27.1484 33.4766 26.8359 33.0273 26.8359C32.8906 26.8359 32.7539 26.875 32.6172 26.9531L27.9102 28.8867L27.9102 25.6641L33.2031 23.4766C33.5938 23.3398 33.7891 23.0664 33.7891 22.6953C33.7891 22.3828 33.5938 21.9531 33.0664 21.9531C32.9102 21.9531 32.7734 22.0117 32.6172 22.0703L27.9102 24.0234L27.9102 20.293C27.9102 19.4922 27.3828 18.9453 26.6016 18.9453C25.8203 18.9453 25.2734 19.4922 25.2734 20.293L25.2734 25.0781L22.0703 26.4062C21.6992 26.543 21.543 26.7969 21.543 27.1484C21.543 27.5586 21.8555 27.8906 22.2656 27.8906C22.3828 27.8906 22.5391 27.8711 22.7148 27.793L25.2734 26.7188L25.2734 29.9609L22.0703 31.2695C21.6992 31.4258 21.543 31.6406 21.543 32.0117C21.543 32.4219 21.8555 32.7539 22.2656 32.7539C22.3828 32.7539 22.5781 32.7148 22.7344 32.6562L25.2734 31.6016L25.2734 39.5508C25.2734 40.5469 25.9961 41.1914 26.9922 41.1914Z" fill="black" fill-opacity="0.85"/>
 </g>
</svg>
