<?xml version="1.0" encoding="UTF-8"?>
<!--Generator: Apple Native CoreSVG 326-->
<!DOCTYPE svg
PUBLIC "-//W3C//DTD SVG 1.1//EN"
       "http://www.w3.org/Graphics/SVG/1.1/DTD/svg11.dtd">
<svg version="1.1" xmlns="http://www.w3.org/2000/svg" xmlns:xlink="http://www.w3.org/1999/xlink" viewBox="0 0 46.2891 45.918">
 <g>
  <rect height="45.918" opacity="0" width="46.2891" x="0" y="0"/>
  <path d="M7.59766 45.918L38.3008 45.918C43.3594 45.918 45.918 43.3594 45.918 38.3984L45.918 7.53906C45.918 2.55859 43.3594 0 38.3008 0L7.59766 0C2.55859 0 0 2.53906 0 7.53906L0 38.3984C0 43.3984 2.55859 45.918 7.59766 45.918ZM7.67578 42.4609C4.94141 42.4609 3.45703 41.0156 3.45703 38.2031L3.45703 7.71484C3.45703 4.92188 4.94141 3.45703 7.67578 3.45703L38.2422 3.45703C40.918 3.45703 42.4609 4.92188 42.4609 7.71484L42.4609 38.2031C42.4609 41.0156 40.918 42.4609 38.2422 42.4609Z" fill="black" fill-opacity="0.85"/>
  <path d="M19.9609 33.8086L20.2539 33.8086C23.2812 33.8086 26.3086 32.6758 28.2617 30.7812C29.9023 29.1406 31.1133 26.9141 31.1133 24.707C31.1133 24.0039 30.7422 23.457 29.9219 23.457C29.1602 23.457 28.75 23.9258 28.6719 24.668C28.4961 26.3477 27.7539 27.832 26.6602 28.9453C25.1758 30.5273 23.0469 31.3086 20.8789 31.3086L20.8789 23.125L26.1914 20.9375C26.5625 20.7812 26.7578 20.5273 26.7578 20.2148C26.7578 19.7461 26.4453 19.4336 26.0156 19.4336C25.8789 19.4336 25.7422 19.4922 25.5859 19.5508L20.8789 21.4844L20.8789 18.2812L26.1914 16.0742C26.582 15.9375 26.7773 15.6641 26.7773 15.293C26.7773 15 26.582 14.5703 26.0352 14.5703C25.8984 14.5703 25.7422 14.6094 25.5859 14.6875L20.8789 16.6406L20.8789 12.8906C20.8789 12.0898 20.3516 11.543 19.5898 11.543C18.8086 11.543 18.2617 12.0898 18.2617 12.8906L18.2617 17.6953L15.0586 19.0234C14.668 19.1602 14.5117 19.3945 14.5117 19.7461C14.5117 20.1758 14.8242 20.5078 15.2539 20.5078C15.3711 20.5078 15.5273 20.4688 15.6836 20.4102L18.2617 19.3359L18.2617 22.5586L15.0586 23.8672C14.668 24.0234 14.5117 24.2383 14.5117 24.6094C14.5117 25.0195 14.8242 25.3516 15.2539 25.3516C15.3711 25.3516 15.5469 25.332 15.7227 25.2539L18.2617 24.1992L18.2617 32.168C18.2617 33.1445 18.9648 33.8086 19.9609 33.8086Z" fill="black" fill-opacity="0.85"/>
 </g>
</svg>
