<?xml version="1.0" encoding="UTF-8"?>
<!--Generator: Apple Native CoreSVG 326-->
<!DOCTYPE svg
PUBLIC "-//W3C//DTD SVG 1.1//EN"
       "http://www.w3.org/Graphics/SVG/1.1/DTD/svg11.dtd">
<svg version="1.1" xmlns="http://www.w3.org/2000/svg" xmlns:xlink="http://www.w3.org/1999/xlink" viewBox="0 0 60.4102 49.8382">
 <g>
  <rect height="49.8382" opacity="0" width="60.4102" x="0" y="0"/>
  <path d="M60.0391 29.9093C60.0391 14.1867 47.9492 1.29605 32.5977 0.00698344C31.7969-0.0711416 31.1719 0.514796 31.1719 1.33511L31.1719 9.32339C31.1719 9.98745 31.6602 10.5148 32.3438 10.5734C41.9727 11.7453 49.4531 19.9484 49.4531 29.9093C49.4531 34.4406 47.9102 38.6007 45.1758 42.0382C44.8047 42.507 44.8242 43.0929 45.2344 43.5031L51.0352 49.3039C51.6211 49.8703 52.4609 49.8703 52.9688 49.2453C57.3828 44.0109 60.0391 37.2531 60.0391 29.9093Z" fill="black" fill-opacity="0.85"/>
  <path d="M0 29.9093C0 37.2726 2.65625 44.05 7.08984 49.2843C7.57812 49.8703 8.39844 49.8703 8.98438 49.3039L14.7852 43.5031C15.1953 43.0929 15.2148 42.507 14.8438 42.0382C12.1094 38.6007 10.5664 34.4406 10.5664 29.9093C10.5664 19.9484 18.0664 11.7453 27.6758 10.5734C28.3789 10.5148 28.8477 9.98745 28.8477 9.32339L28.8477 1.33511C28.8477 0.514796 28.2422-0.0711416 27.4414 0.00698344C12.0703 1.29605 0 14.1867 0 29.9093Z" fill="black" fill-opacity="0.85"/>
  <path d="M26.9922 41.0812L27.2852 41.0812C30.3125 41.0812 33.3203 39.9679 35.293 38.0734C36.9336 36.4328 38.125 34.2062 38.125 31.9992C38.125 31.2765 37.7539 30.7492 36.9336 30.7492C36.1914 30.7492 35.7812 31.1984 35.7031 31.9601C35.5078 33.6398 34.7656 35.1242 33.6914 36.2375C32.207 37.8 30.0586 38.6007 27.9102 38.6007L27.9102 30.4171L33.2031 28.2296C33.5938 28.0734 33.7891 27.8195 33.7891 27.507C33.7891 27.0382 33.4766 26.7257 33.0273 26.7257C32.8906 26.7257 32.7539 26.7648 32.6172 26.8429L27.9102 28.7765L27.9102 25.5539L33.2031 23.3664C33.5938 23.2296 33.7891 22.9562 33.7891 22.5851C33.7891 22.2726 33.5938 21.8429 33.0664 21.8429C32.9102 21.8429 32.7734 21.9015 32.6172 21.9601L27.9102 23.9132L27.9102 20.1828C27.9102 19.382 27.3828 18.8351 26.6016 18.8351C25.8203 18.8351 25.2734 19.382 25.2734 20.1828L25.2734 24.9679L22.0703 26.296C21.6992 26.4328 21.543 26.6867 21.543 27.0382C21.543 27.4484 21.8555 27.7804 22.2656 27.7804C22.3828 27.7804 22.5391 27.7609 22.7148 27.6828L25.2734 26.6085L25.2734 29.8507L22.0703 31.1593C21.6992 31.3156 21.543 31.5304 21.543 31.9015C21.543 32.3117 21.8555 32.6437 22.2656 32.6437C22.3828 32.6437 22.5781 32.6046 22.7344 32.546L25.2734 31.4914L25.2734 39.4406C25.2734 40.4367 25.9961 41.0812 26.9922 41.0812Z" fill="black" fill-opacity="0.85"/>
 </g>
</svg>
