<?xml version="1.0" encoding="UTF-8"?>
<!--Generator: Apple Native CoreSVG 326-->
<!DOCTYPE svg
PUBLIC "-//W3C//DTD SVG 1.1//EN"
       "http://www.w3.org/Graphics/SVG/1.1/DTD/svg11.dtd">
<svg version="1.1" xmlns="http://www.w3.org/2000/svg" xmlns:xlink="http://www.w3.org/1999/xlink" viewBox="0 0 62.3438 49.2383">
 <g>
  <rect height="49.2383" opacity="0" width="62.3438" x="0" y="0"/>
  <path d="M6.17188 37.7539C4.47266 37.7539 3.45703 36.7578 3.45703 35.0586L3.45703 6.17188C3.45703 4.45312 4.47266 3.45703 6.17188 3.45703L55.8008 3.45703C57.5 3.45703 58.5156 4.45312 58.5156 6.17188L58.5156 35.0586C58.5156 36.7578 57.5 37.7539 55.8008 37.7539Z" fill="black" fill-opacity="0.2125"/>
  <path d="M6.11328 41.2109L55.8789 41.2109C59.6875 41.2109 61.9727 38.9258 61.9727 35.1172L61.9727 6.09375C61.9727 2.28516 59.6875 0 55.8789 0L6.11328 0C2.30469 0 0 2.28516 0 6.09375L0 35.1172C0 38.9258 2.30469 41.2109 6.11328 41.2109ZM6.17188 37.7539C4.47266 37.7539 3.45703 36.7578 3.45703 35.0586L3.45703 6.17188C3.45703 4.45312 4.47266 3.45703 6.17188 3.45703L55.8008 3.45703C57.5 3.45703 58.5156 4.45312 58.5156 6.17188L58.5156 35.0586C58.5156 36.7578 57.5 37.7539 55.8008 37.7539ZM18.4961 49.2188L43.4961 49.2188C44.4531 49.2188 45.2344 48.4375 45.2344 47.4805C45.2344 46.5039 44.4531 45.7227 43.4961 45.7227L18.4961 45.7227C17.5195 45.7227 16.7383 46.5039 16.7383 47.4805C16.7383 48.4375 17.5195 49.2188 18.4961 49.2188Z" fill="black" fill-opacity="0.85"/>
 </g>
</svg>
