<?xml version="1.0" encoding="UTF-8"?>
<!--Generator: Apple Native CoreSVG 326-->
<!DOCTYPE svg
PUBLIC "-//W3C//DTD SVG 1.1//EN"
       "http://www.w3.org/Graphics/SVG/1.1/DTD/svg11.dtd">
<svg version="1.1" xmlns="http://www.w3.org/2000/svg" xmlns:xlink="http://www.w3.org/1999/xlink" viewBox="0 0 51.25 50.918">
 <g>
  <rect height="50.918" opacity="0" width="51.25" x="0" y="0"/>
  <path d="M25.4297 50.8789C39.4727 50.8789 50.8789 39.4922 50.8789 25.4492C50.8789 11.4062 39.4727 0 25.4297 0C11.3867 0 0 11.4062 0 25.4492C0 39.4922 11.3867 50.8789 25.4297 50.8789ZM25.4297 47.2461C13.3789 47.2461 3.63281 37.5 3.63281 25.4492C3.63281 13.3984 13.3789 3.65234 25.4297 3.65234C37.4805 3.65234 47.2266 13.3984 47.2266 25.4492C47.2266 37.5 37.4805 47.2461 25.4297 47.2461Z" fill="black" fill-opacity="0.85"/>
  <path d="M25.4102 37.1875C31.0742 37.1875 34.9609 33.8672 34.9609 28.6914L34.9609 15.5273C34.9609 14.3164 34.3164 13.6133 33.2227 13.6133C32.1484 13.6133 31.5039 14.3164 31.5039 15.5273L31.5039 28.3789C31.5039 31.9727 29.043 34.2969 25.4102 34.2969C21.7773 34.2969 19.3164 31.9727 19.3164 28.3789L19.3164 15.5273C19.3164 14.3164 18.6914 13.6133 17.5781 13.6133C16.5234 13.6133 15.8789 14.3164 15.8789 15.5273L15.8789 28.6914C15.8789 33.8672 19.7461 37.1875 25.4102 37.1875Z" fill="black" fill-opacity="0.85"/>
 </g>
</svg>
