<?xml version="1.0" encoding="UTF-8"?>
<!--Generator: Apple Native CoreSVG 326-->
<!DOCTYPE svg
PUBLIC "-//W3C//DTD SVG 1.1//EN"
       "http://www.w3.org/Graphics/SVG/1.1/DTD/svg11.dtd">
<svg version="1.1" xmlns="http://www.w3.org/2000/svg" xmlns:xlink="http://www.w3.org/1999/xlink" viewBox="0 0 54.4531 58.8867">
 <g>
  <rect height="58.8867" opacity="0" width="54.4531" x="0" y="0"/>
  <path d="M24.3945 7.20703L28.1055 7.20703L28.1055 1.85547C28.1055 0.820312 27.3047 0 26.25 0C25.1953 0 24.3945 0.820312 24.3945 1.85547ZM3.26172 31.3672C3.94531 31.3672 4.53125 30.918 5.01953 30.1758C6.73828 27.5781 8.59375 26.4844 11.0352 26.4844C13.4375 26.4844 15.0781 27.5586 16.543 30.1367C17.0508 30.9961 17.5391 31.3672 18.1836 31.3672C18.8672 31.3672 19.3555 30.9766 19.8047 30.1367C21.1719 27.8125 23.7891 26.3672 26.25 26.3672C28.7109 26.3672 31.3281 27.8125 32.6953 30.1367C33.1445 30.9766 33.6328 31.3672 34.3164 31.3672C34.9609 31.3672 35.4492 30.9961 35.957 30.1367C37.4219 27.5586 39.0625 26.4844 41.4648 26.4844C43.9062 26.4844 45.7617 27.5781 47.4805 30.1758C47.9688 30.918 48.5547 31.3672 49.2383 31.3672C50.332 31.3672 51.0547 30.4883 51.0547 29.2773C51.0547 19.2773 43.1641 5.52734 26.25 5.52734C9.33594 5.52734 1.44531 19.2773 1.44531 29.2773C1.44531 30.4883 2.16797 31.3672 3.26172 31.3672ZM26.25 23.0078C23.1836 23.0078 20.1562 24.4727 18.3789 26.7773C18.2617 26.9141 18.1836 26.9141 18.0859 26.7773C16.3867 24.3359 14.0625 23.125 11.0352 23.125C7.85156 23.125 5.21484 24.4727 3.02734 27.2266L4.94141 27.3828C5.91797 17.6172 14.1211 8.88672 26.25 8.88672C38.3398 8.88672 46.543 17.5586 47.5586 27.3047L49.4141 27.1484C47.2461 24.4531 44.6289 23.125 41.4648 23.125C38.4375 23.125 36.1133 24.3359 34.4141 26.7773C34.3164 26.9141 34.2383 26.9141 34.1211 26.7773C32.3438 24.4727 29.3164 23.0078 26.25 23.0078ZM20.3516 57.5781C24.7461 57.5781 28.1055 54.2188 28.1055 49.8047L28.1055 25.2734L24.3945 25.2734L24.3945 49.8047C24.3945 52.1289 22.6953 53.8086 20.3516 53.8086C18.0078 53.8086 16.3477 52.1289 16.3477 49.8047C16.3477 48.4961 15.5664 47.6172 14.4141 47.6172C13.3008 47.6172 12.5781 48.4766 12.5781 49.8047C12.5781 54.2383 15.918 57.5781 20.3516 57.5781Z" fill="black" fill-opacity="0.85"/>
  <path d="M38.0469 47.4023C40.6055 47.4023 42.2461 45.3125 42.2461 42.0508C42.2461 38.7695 40.5859 36.6797 38.0469 36.6797C35.5078 36.6797 33.8867 38.7695 33.8867 42.0508C33.8867 45.3125 35.4883 47.4023 38.0469 47.4023ZM38.0469 44.7266C37.2266 44.7266 36.7383 43.7305 36.7383 42.0508C36.7383 40.3906 37.2461 39.3555 38.0469 39.3555C38.8477 39.3555 39.3945 40.3906 39.3945 42.0508C39.3945 43.7305 38.8672 44.7266 38.0469 44.7266ZM37.3633 57.3438C38.0273 57.7344 38.9258 57.5195 39.3945 56.875L51.3281 38.8672C51.875 38.0859 51.6406 37.1289 50.918 36.7383C50.2539 36.3672 49.4141 36.5625 48.9258 37.2656L36.9336 55.2344C36.3867 56.0352 36.6016 56.9336 37.3633 57.3438ZM50.2734 57.4219C52.8125 57.4219 54.4531 55.293 54.4531 52.0312C54.4531 48.7695 52.8125 46.6602 50.2734 46.6602C47.7148 46.6602 46.0938 48.75 46.0938 52.0312C46.0938 55.293 47.7148 57.4219 50.2734 57.4219ZM50.2734 54.707C49.4336 54.707 48.9453 53.7305 48.9453 52.0312C48.9453 50.3711 49.4531 49.3555 50.2734 49.3555C51.0547 49.3555 51.6016 50.3906 51.6016 52.0312C51.6016 53.7305 51.0938 54.707 50.2734 54.707Z" fill="black" fill-opacity="0.85"/>
 </g>
</svg>
