<?xml version="1.0" encoding="UTF-8"?>
<!--Generator: Apple Native CoreSVG 326-->
<!DOCTYPE svg
PUBLIC "-//W3C//DTD SVG 1.1//EN"
       "http://www.w3.org/Graphics/SVG/1.1/DTD/svg11.dtd">
<svg version="1.1" xmlns="http://www.w3.org/2000/svg" xmlns:xlink="http://www.w3.org/1999/xlink" viewBox="0 0 49.9609 58.8867">
 <g>
  <rect height="58.8867" opacity="0" width="49.9609" x="0" y="0"/>
  <path d="M22.9492 7.20703L26.6602 7.20703L26.6602 1.85547C26.6602 0.820312 25.8398 0 24.8047 0C23.75 0 22.9492 0.820312 22.9492 1.85547ZM1.79688 31.3672C2.48047 31.3672 3.08594 30.918 3.57422 30.1758C5.29297 27.5781 7.12891 26.4844 9.57031 26.4844C11.9922 26.4844 13.6133 27.5586 15.0977 30.1367C15.6055 30.9961 16.0938 31.3672 16.7383 31.3672C17.4219 31.3672 17.8906 30.9766 18.3594 30.1367C19.7266 27.8125 22.3438 26.3672 24.8047 26.3672C27.2461 26.3672 29.8633 27.8125 31.2305 30.1367C31.6992 30.9766 32.1875 31.3672 32.8516 31.3672C33.4961 31.3672 33.9844 30.9961 34.4922 30.1367C35.9766 27.5586 37.6172 26.4844 40.0195 26.4844C42.4609 26.4844 44.2969 27.5781 46.0156 30.1758C46.5039 30.918 47.1094 31.3672 47.793 31.3672C48.8867 31.3672 49.5898 30.4883 49.5898 29.2773C49.5898 19.2773 41.7188 5.52734 24.8047 5.52734C7.87109 5.52734 0 19.2773 0 29.2773C0 30.4883 0.722656 31.3672 1.79688 31.3672ZM24.8047 23.0078C21.7383 23.0078 18.7109 24.4727 16.9336 26.7773C16.8164 26.9141 16.7188 26.9141 16.6406 26.7773C14.9219 24.3359 12.5977 23.125 9.57031 23.125C6.38672 23.125 3.75 24.4727 1.58203 27.2266L3.49609 27.3828C4.47266 17.6172 12.6758 8.88672 24.8047 8.88672C36.875 8.88672 45.0977 17.5586 46.0938 27.3047L47.9688 27.1484C45.8008 24.4531 43.1836 23.125 40.0195 23.125C36.9922 23.125 34.668 24.3359 32.9688 26.7773C32.8711 26.9141 32.7734 26.9141 32.6758 26.7773C30.8984 24.4727 27.8711 23.0078 24.8047 23.0078ZM18.8867 57.5781C23.3008 57.5781 26.6602 54.2188 26.6602 49.8047L26.6602 25.2734L22.9492 25.2734L22.9492 49.8047C22.9492 52.1289 21.25 53.8086 18.8867 53.8086C16.5625 53.8086 14.8828 52.1289 14.8828 49.8047C14.8828 48.4961 14.1211 47.6172 12.9688 47.6172C11.8555 47.6172 11.1328 48.4766 11.1328 49.8047C11.1328 54.2383 14.4727 57.5781 18.8867 57.5781Z" fill="black" fill-opacity="0.85"/>
 </g>
</svg>
