<?xml version="1.0" encoding="UTF-8"?>
<!--Generator: Apple Native CoreSVG 326-->
<!DOCTYPE svg
PUBLIC "-//W3C//DTD SVG 1.1//EN"
       "http://www.w3.org/Graphics/SVG/1.1/DTD/svg11.dtd">
<svg version="1.1" xmlns="http://www.w3.org/2000/svg" xmlns:xlink="http://www.w3.org/1999/xlink" viewBox="0 0 51.25 50.918">
 <g>
  <rect height="50.918" opacity="0" width="51.25" x="0" y="0"/>
  <path d="M25.4297 50.8789C39.4727 50.8789 50.8789 39.4922 50.8789 25.4492C50.8789 11.4062 39.4727 0 25.4297 0C11.3867 0 0 11.4062 0 25.4492C0 39.4922 11.3867 50.8789 25.4297 50.8789ZM25.4297 47.2461C13.3789 47.2461 3.63281 37.5 3.63281 25.4492C3.63281 13.3984 13.3789 3.65234 25.4297 3.65234C37.4805 3.65234 47.2266 13.3984 47.2266 25.4492C47.2266 37.5 37.4805 47.2461 25.4297 47.2461Z" fill="black" fill-opacity="0.85"/>
  <path d="M25.4297 37.1289C26.6992 37.1289 27.5 36.4648 28.0078 35.0977L35.2344 16.1914C35.3711 15.8203 35.4102 15.5664 35.4102 15.2344C35.4102 14.2773 34.6875 13.6328 33.6719 13.6328C32.7344 13.6328 32.207 14.0625 31.8359 15.0977L25.4883 33.0078L25.332 33.0078L18.9844 15.0977C18.6328 14.043 18.0859 13.6328 17.1484 13.6328C16.1328 13.6328 15.4102 14.2969 15.4102 15.2344C15.4102 15.5664 15.4492 15.8203 15.5859 16.1914L22.832 35.1172C23.3789 36.5625 24.1016 37.1289 25.4297 37.1289Z" fill="black" fill-opacity="0.85"/>
 </g>
</svg>
