<?xml version="1.0" encoding="UTF-8"?>
<!--Generator: Apple Native CoreSVG 326-->
<!DOCTYPE svg
PUBLIC "-//W3C//DTD SVG 1.1//EN"
       "http://www.w3.org/Graphics/SVG/1.1/DTD/svg11.dtd">
<svg version="1.1" xmlns="http://www.w3.org/2000/svg" xmlns:xlink="http://www.w3.org/1999/xlink" viewBox="0 0 46.2891 45.918">
 <g>
  <rect height="45.918" opacity="0" width="46.2891" x="0" y="0"/>
  <path d="M7.59766 45.918L38.3008 45.918C43.3594 45.918 45.918 43.3594 45.918 38.3984L45.918 7.53906C45.918 2.55859 43.3594 0 38.3008 0L7.59766 0C2.55859 0 0 2.53906 0 7.53906L0 38.3984C0 43.3984 2.55859 45.918 7.59766 45.918ZM7.67578 42.4609C4.94141 42.4609 3.45703 41.0156 3.45703 38.2031L3.45703 7.71484C3.45703 4.92188 4.94141 3.45703 7.67578 3.45703L38.2422 3.45703C40.918 3.45703 42.4609 4.92188 42.4609 7.71484L42.4609 38.2031C42.4609 41.0156 40.918 42.4609 38.2422 42.4609Z" fill="black" fill-opacity="0.85"/>
  <path d="M22.9883 34.6289C24.2578 34.6289 25.0586 33.9648 25.5664 32.5977L32.793 13.6914C32.9297 13.3203 32.9688 13.0664 32.9688 12.7344C32.9688 11.7773 32.2461 11.1328 31.2305 11.1328C30.293 11.1328 29.7461 11.5625 29.3945 12.5977L23.0469 30.5078L22.8906 30.5078L16.543 12.5977C16.1719 11.543 15.6445 11.1328 14.707 11.1328C13.6914 11.1328 12.9688 11.7969 12.9688 12.7344C12.9688 13.0664 13.0078 13.3203 13.1445 13.6914L20.3906 32.6172C20.9375 34.0625 21.6602 34.6289 22.9883 34.6289Z" fill="black" fill-opacity="0.85"/>
 </g>
</svg>
