<?xml version="1.0" encoding="UTF-8"?>
<!--Generator: Apple Native CoreSVG 326-->
<!DOCTYPE svg
PUBLIC "-//W3C//DTD SVG 1.1//EN"
       "http://www.w3.org/Graphics/SVG/1.1/DTD/svg11.dtd">
<svg version="1.1" xmlns="http://www.w3.org/2000/svg" xmlns:xlink="http://www.w3.org/1999/xlink" viewBox="0 0 73.8477 34.5117">
 <g>
  <rect height="34.5117" opacity="0" width="73.8477" x="0" y="0"/>
  <path d="M33.4961 29.4336L28.6133 25.9961L7.40234 25.9961C4.98047 25.9961 3.45703 24.5117 3.45703 22.1484L3.45703 8.24219C3.45703 5.87891 4.98047 4.375 7.40234 4.375L28.2617 4.375L32.7148 0.917969L7.40234 0.917969C2.59766 0.917969 0 3.45703 0 8.22266L0 22.1289C0 26.8945 2.59766 29.4336 7.40234 29.4336ZM44.2383 25.9961L40.1367 29.4336L66.0742 29.4336C70.918 29.4336 73.4766 26.8945 73.4766 22.1289L73.4766 8.22266C73.4766 3.45703 70.918 0.917969 66.0742 0.917969L40.8008 0.917969L44.3945 4.375L66.0742 4.375C68.4961 4.375 70.0195 5.87891 70.0195 8.24219L70.0195 22.1484C70.0195 24.5117 68.4961 25.9961 66.0742 25.9961ZM36.7188 30.3906C45.293 30.3906 51.9336 23.75 51.9336 15.2148C51.9336 6.64062 45.293 0 36.7188 0C28.1641 0 21.543 6.64062 21.543 15.2148C21.543 23.75 28.1641 30.3906 36.7188 30.3906ZM36.7188 27.1094C29.9609 27.1094 24.8047 21.9727 24.8047 15.2148C24.8047 8.4375 29.9609 3.26172 36.7188 3.26172C43.4961 3.26172 48.6719 8.4375 48.6719 15.2148C48.6719 21.9727 43.4961 27.1094 36.7188 27.1094ZM36.7188 24.3164C41.8359 24.3164 45.8594 20.3125 45.8594 15.2148C45.8594 10.0977 41.8359 6.07422 36.7188 6.07422C31.6211 6.07422 27.5977 10.0977 27.5977 15.2148C27.5977 20.3125 31.6211 24.3164 36.7188 24.3164ZM36.7188 21.4453C33.2031 21.4453 30.4688 18.7109 30.4688 15.2148C30.4688 11.6992 33.2031 8.92578 36.7188 8.92578C40.2344 8.92578 42.9883 11.6992 42.9883 15.2148C42.9883 18.7109 40.2344 21.4453 36.7188 21.4453ZM18.3008 28.0469L5.60547 28.0469L5.60547 31.6797C5.60547 32.8125 6.34766 33.5547 7.5 33.5547L16.3867 33.5547C17.5391 33.5547 18.3008 32.8125 18.3008 31.6797ZM55.1953 28.0469L55.1953 31.6797C55.1953 32.8125 55.9375 33.5547 57.0898 33.5547L65.9961 33.5547C67.1289 33.5547 67.8906 32.8125 67.8906 31.6797L67.8906 28.0469ZM55.4883 9.96094C55.4883 10.8398 56.1328 11.4844 57.0117 11.4844L63.4961 11.4844C64.375 11.4844 65.0195 10.8398 65.0195 9.96094C65.0195 9.0625 64.375 8.41797 63.4961 8.41797L57.0117 8.41797C56.1328 8.41797 55.4883 9.0625 55.4883 9.96094ZM55.4883 15.5859C55.4883 16.4844 56.1328 17.1289 57.0117 17.1289L63.4961 17.1289C64.375 17.1289 65.0195 16.4844 65.0195 15.5859C65.0195 14.707 64.375 14.0625 63.4961 14.0625L57.0117 14.0625C56.1328 14.0625 55.4883 14.707 55.4883 15.5859Z" fill="black" fill-opacity="0.85"/>
 </g>
</svg>
