<?xml version="1.0" encoding="UTF-8"?>
<!--Generator: Apple Native CoreSVG 326-->
<!DOCTYPE svg
PUBLIC "-//W3C//DTD SVG 1.1//EN"
       "http://www.w3.org/Graphics/SVG/1.1/DTD/svg11.dtd">
<svg version="1.1" xmlns="http://www.w3.org/2000/svg" xmlns:xlink="http://www.w3.org/1999/xlink" viewBox="0 0 51.25 50.918">
 <g>
  <rect height="50.918" opacity="0" width="51.25" x="0" y="0"/>
  <path d="M25.4297 50.8789C39.4727 50.8789 50.8789 39.4922 50.8789 25.4492C50.8789 11.4062 39.4727 0 25.4297 0C11.3867 0 0 11.4062 0 25.4492C0 39.4922 11.3867 50.8789 25.4297 50.8789ZM25.4297 47.2461C13.3789 47.2461 3.63281 37.5 3.63281 25.4492C3.63281 13.3984 13.3789 3.65234 25.4297 3.65234C37.4805 3.65234 47.2266 13.3984 47.2266 25.4492C47.2266 37.5 37.4805 47.2461 25.4297 47.2461Z" fill="black" fill-opacity="0.85"/>
  <path d="M14.9805 35.5273L28.3008 35.5273C30.8203 35.5273 32.2852 34.082 32.2852 31.582L32.2852 19.375C32.2852 16.8555 30.918 15.4297 28.3984 15.4297L14.9805 15.4297C12.5391 15.4297 10.9766 16.8555 10.9766 19.375L10.9766 31.582C10.9766 34.082 12.4609 35.5273 14.9805 35.5273ZM33.6719 28.9258L38.457 32.9688C38.9062 33.3203 39.375 33.5742 39.8242 33.5742C40.7227 33.5742 41.3281 32.9102 41.3281 31.8945L41.3281 19.0234C41.3281 18.0469 40.7227 17.3828 39.8242 17.3828C39.375 17.3828 38.8867 17.6367 38.457 17.9688L33.6719 22.0117Z" fill="black" fill-opacity="0.85"/>
 </g>
</svg>
