<?xml version="1.0" encoding="UTF-8"?>
<!--Generator: Apple Native CoreSVG 326-->
<!DOCTYPE svg
PUBLIC "-//W3C//DTD SVG 1.1//EN"
       "http://www.w3.org/Graphics/SVG/1.1/DTD/svg11.dtd">
<svg version="1.1" xmlns="http://www.w3.org/2000/svg" xmlns:xlink="http://www.w3.org/1999/xlink" viewBox="0 0 55.3906 54.7852">
 <g>
  <rect height="54.7852" opacity="0" width="55.3906" x="0" y="0"/>
  <path d="M55.0195 14.2969L55.0195 34.2188C55.0195 41.1719 51.0742 45.1953 44.0039 45.1953L26.0547 45.1953L16.9336 53.418C15.9375 54.3359 15.293 54.7852 14.4336 54.7852C13.1836 54.7852 12.4609 53.8867 12.4609 52.5195L12.4609 45.1953L11.0156 45.1953C3.92578 45.1953 0 41.2109 0 34.2188L0 14.2969C0 7.30469 3.92578 3.28125 11.0156 3.28125L44.0039 3.28125C51.0742 3.28125 55.0195 7.32422 55.0195 14.2969ZM16.9141 13.9258C14.4336 13.9258 12.832 15.3906 12.832 17.9688L12.832 30.5078C12.832 33.0664 14.3555 34.5508 16.9141 34.5508L30.5664 34.5508C33.1445 34.5508 34.6484 33.0664 34.6484 30.5078L34.6484 17.9688C34.6484 15.3906 33.2617 13.9258 30.6641 13.9258ZM40.9961 16.543L36.0742 20.6836L36.0742 27.7734L40.9961 31.9336C41.4453 32.3047 41.9336 32.5391 42.3828 32.5391C43.3203 32.5391 43.9258 31.875 43.9258 30.8203L43.9258 17.6367C43.9258 16.6016 43.3203 15.957 42.3828 15.957C41.9336 15.957 41.4062 16.1719 40.9961 16.543Z" fill="black" fill-opacity="0.85"/>
 </g>
</svg>
