<?xml version="1.0" encoding="UTF-8"?>
<!--Generator: Apple Native CoreSVG 326-->
<!DOCTYPE svg
PUBLIC "-//W3C//DTD SVG 1.1//EN"
       "http://www.w3.org/Graphics/SVG/1.1/DTD/svg11.dtd">
<svg version="1.1" xmlns="http://www.w3.org/2000/svg" xmlns:xlink="http://www.w3.org/1999/xlink" viewBox="0 0 51.25 50.918">
 <g>
  <rect height="50.918" opacity="0" width="51.25" x="0" y="0"/>
  <path d="M50.8789 25.4492C50.8789 39.4922 39.4727 50.8789 25.4297 50.8789C11.3867 50.8789 0 39.4922 0 25.4492C0 11.4062 11.3867 0 25.4297 0C39.4727 0 50.8789 11.4062 50.8789 25.4492ZM3.63281 25.4492C3.63281 37.5 13.3789 47.2461 25.4297 47.2461C37.4805 47.2461 47.2266 37.5 47.2266 25.4492C47.2266 13.3984 37.4805 3.65234 25.4297 3.65234C13.3789 3.65234 3.63281 13.3984 3.63281 25.4492Z" fill="black" fill-opacity="0.85"/>
  <path d="M30.929 34.7571C30.2701 35.2608 29.3827 35.5273 28.3008 35.5273L14.9805 35.5273C12.4609 35.5273 10.9766 34.082 10.9766 31.582L10.9766 19.375C10.9766 17.9409 11.4827 16.8612 12.3704 16.1985ZM41.3281 19.0234L41.3281 31.8945C41.3281 32.9102 40.7227 33.5742 39.8242 33.5742C39.375 33.5742 38.9062 33.3203 38.457 32.9688L33.6719 28.9258L33.6719 22.0117L38.457 17.9688C38.8867 17.6367 39.375 17.3828 39.8242 17.3828C40.7227 17.3828 41.3281 18.0469 41.3281 19.0234ZM32.2852 19.375L32.2852 28.4513L19.2743 15.4297L28.3984 15.4297C30.918 15.4297 32.2852 16.8555 32.2852 19.375Z" fill="black" fill-opacity="0.85"/>
  <path d="M36.5625 37.9883C36.9531 38.3984 37.6172 38.3984 38.0273 37.9883C38.4375 37.5781 38.4375 36.9531 38.0273 36.5234L14.375 12.8711C13.9648 12.4609 13.3008 12.4609 12.8906 12.8711C12.4805 13.2812 12.5 13.9453 12.8906 14.3359Z" fill="black" fill-opacity="0.85"/>
 </g>
</svg>
