<?xml version="1.0" encoding="UTF-8"?>
<!--Generator: Apple Native CoreSVG 326-->
<!DOCTYPE svg
PUBLIC "-//W3C//DTD SVG 1.1//EN"
       "http://www.w3.org/Graphics/SVG/1.1/DTD/svg11.dtd">
<svg version="1.1" xmlns="http://www.w3.org/2000/svg" xmlns:xlink="http://www.w3.org/1999/xlink" viewBox="0 0 51.25 50.918">
 <g>
  <rect height="50.918" opacity="0" width="51.25" x="0" y="0"/>
  <path d="M25.4297 50.8789C39.4727 50.8789 50.8789 39.4922 50.8789 25.4492C50.8789 11.4062 39.4727 0 25.4297 0C11.3867 0 0 11.4062 0 25.4492C0 39.4922 11.3867 50.8789 25.4297 50.8789ZM25.4297 47.2461C13.3789 47.2461 3.63281 37.5 3.63281 25.4492C3.63281 13.3984 13.3789 3.65234 25.4297 3.65234C37.4805 3.65234 47.2266 13.3984 47.2266 25.4492C47.2266 37.5 37.4805 47.2461 25.4297 47.2461Z" fill="black" fill-opacity="0.85"/>
  <path d="M17.3828 13.0273C14.3945 13.0273 12.8125 14.5898 12.8125 17.5586L12.8125 20.9961C12.8125 21.9531 13.4375 22.5977 14.375 22.5977C15.332 22.5977 15.9375 21.9727 15.9375 20.9961L15.9375 18.0469C15.9375 16.7578 16.543 16.1523 17.8125 16.1523L20.8398 16.1523C21.7773 16.1523 22.4219 15.5078 22.4219 14.5898C22.4219 13.6523 21.7773 13.0273 20.8398 13.0273ZM33.1055 13.0273L29.668 13.0273C28.7109 13.0273 28.0664 13.6523 28.0664 14.5898C28.0664 15.5078 28.7109 16.1523 29.668 16.1523L32.6758 16.1523C33.9453 16.1523 34.5703 16.7578 34.5703 18.0469L34.5703 20.9961C34.5703 21.9727 35.1758 22.5977 36.1133 22.5977C37.0508 22.5977 37.6953 21.9531 37.6953 20.9961L37.6953 17.5586C37.6953 14.5898 36.1133 13.0273 33.1055 13.0273ZM17.3828 37.9102L20.8398 37.9102C21.7773 37.9102 22.4219 37.2656 22.4219 36.3281C22.4219 35.4102 21.7773 34.7852 20.8398 34.7852L17.8125 34.7852C16.543 34.7852 15.9375 34.1602 15.9375 32.8711L15.9375 29.9219C15.9375 28.9453 15.332 28.3203 14.375 28.3203C13.4375 28.3203 12.8125 28.9648 12.8125 29.9219L12.8125 33.3594C12.8125 36.3477 14.3945 37.9102 17.3828 37.9102ZM33.1055 37.9102C36.1133 37.9102 37.6953 36.3477 37.6953 33.3594L37.6953 29.9219C37.6953 28.9648 37.0508 28.3203 36.1133 28.3203C35.1758 28.3203 34.5703 28.9453 34.5703 29.9219L34.5703 32.8711C34.5703 34.1602 33.9453 34.7852 32.6758 34.7852L29.668 34.7852C28.7109 34.7852 28.0664 35.4102 28.0664 36.3281C28.0664 37.2656 28.7109 37.9102 29.668 37.9102Z" fill="black" fill-opacity="0.85"/>
 </g>
</svg>
