<?xml version="1.0" encoding="UTF-8"?>
<!--Generator: Apple Native CoreSVG 326-->
<!DOCTYPE svg
PUBLIC "-//W3C//DTD SVG 1.1//EN"
       "http://www.w3.org/Graphics/SVG/1.1/DTD/svg11.dtd">
<svg version="1.1" xmlns="http://www.w3.org/2000/svg" xmlns:xlink="http://www.w3.org/1999/xlink" viewBox="0 0 59.9023 37.3242">
 <g>
  <rect height="37.3242" opacity="0" width="59.9023" x="0" y="0"/>
  <path d="M32.8711 36.6992L42.6172 36.6992C52.9102 36.6992 59.5312 29.4531 59.5312 18.5938C59.5312 7.77344 52.9102 0.585938 42.6172 0.585938L32.8711 0.585938C31.6992 0.585938 30.9375 1.36719 30.9375 2.57812L30.9375 34.7266C30.9375 35.9375 31.6992 36.6992 32.8711 36.6992ZM34.8047 33.2031L34.8047 4.04297L42.3633 4.04297C50.4492 4.04297 55.5664 9.86328 55.5664 18.6133C55.5664 27.3633 50.4492 33.2031 42.3633 33.2031Z" fill="black" fill-opacity="0.85"/>
  <path d="M12.6758 37.3047C20.2539 37.3047 25.7227 32.832 25.7227 26.7188C25.7227 21.6992 22.1094 18.3594 16.3477 17.9688L16.3477 17.8906C21.1719 17.0508 24.1602 13.8281 24.1602 9.35547C24.1602 3.94531 19.2578 0 12.5195 0C7.32422 0 3.10547 2.40234 1.42578 6.28906C1.01562 7.14844 0.839844 7.96875 0.839844 8.84766C0.839844 9.88281 1.52344 10.5273 2.51953 10.5273C3.53516 10.5273 3.94531 10.0977 4.25781 9.0625C5.25391 5.52734 8.30078 3.37891 12.4023 3.37891C17.1289 3.37891 20.3125 5.97656 20.3125 9.82422C20.3125 13.8086 16.9922 16.4844 12.1484 16.4844L9.16016 16.4844C8.14453 16.4844 7.48047 17.1094 7.48047 18.1055C7.48047 19.0625 8.14453 19.707 9.16016 19.707L12.207 19.707C18.1641 19.707 21.7188 22.2461 21.7188 26.6992C21.7188 30.8984 17.9688 33.8672 12.7148 33.8672C8.08594 33.8672 4.62891 31.6602 3.59375 28.0664C3.28125 27.1094 2.75391 26.6797 1.83594 26.6797C0.722656 26.6797 0 27.3438 0 28.4961C0 29.2969 0.214844 30.0391 0.605469 30.8203C2.55859 34.9805 7.03125 37.3047 12.6758 37.3047Z" fill="black" fill-opacity="0.85"/>
 </g>
</svg>
