<?xml version="1.0" encoding="UTF-8"?>
<!--Generator: Apple Native CoreSVG 326-->
<!DOCTYPE svg
PUBLIC "-//W3C//DTD SVG 1.1//EN"
       "http://www.w3.org/Graphics/SVG/1.1/DTD/svg11.dtd">
<svg version="1.1" xmlns="http://www.w3.org/2000/svg" xmlns:xlink="http://www.w3.org/1999/xlink" viewBox="0 0 51.25 50.918">
 <g>
  <rect height="50.918" opacity="0" width="51.25" x="0" y="0"/>
  <path d="M25.4297 50.8789C39.4727 50.8789 50.8789 39.4922 50.8789 25.4492C50.8789 11.4062 39.4727 0 25.4297 0C11.3867 0 0 11.4062 0 25.4492C0 39.4922 11.3867 50.8789 25.4297 50.8789ZM25.4297 47.2461C13.3789 47.2461 3.63281 37.5 3.63281 25.4492C3.63281 13.3984 13.3789 3.65234 25.4297 3.65234C37.4805 3.65234 47.2266 13.3984 47.2266 25.4492C47.2266 37.5 37.4805 47.2461 25.4297 47.2461Z" fill="black" fill-opacity="0.85"/>
  <path d="M25.4102 31.0742C27.5586 31.0742 29.9219 34.9414 34.6094 34.9414C39.1992 34.9414 42.5977 30.7617 42.5977 25.3711C42.5977 16.4844 34.8047 15.5078 25.4102 15.5078C16.0156 15.5078 8.22266 16.4844 8.22266 25.3711C8.22266 30.7617 11.6406 34.9414 16.2305 34.9414C20.8984 34.9414 23.2617 31.0742 25.4102 31.0742ZM25.4102 28.6523C21.7578 28.6523 20.0586 32.5 16.2305 32.5C12.793 32.5 10.6445 29.8633 10.6445 25.3711C10.6445 18.6328 16.2891 17.9492 25.4102 17.9492C34.5508 17.9492 40.1953 18.6328 40.1953 25.3711C40.1953 29.8633 38.0273 32.5 34.6094 32.5C30.7812 32.5 29.0625 28.6523 25.4102 28.6523Z" fill="black" fill-opacity="0.85"/>
 </g>
</svg>
