<?xml version="1.0" encoding="UTF-8"?>
<!--Generator: Apple Native CoreSVG 326-->
<!DOCTYPE svg
PUBLIC "-//W3C//DTD SVG 1.1//EN"
       "http://www.w3.org/Graphics/SVG/1.1/DTD/svg11.dtd">
<svg version="1.1" xmlns="http://www.w3.org/2000/svg" xmlns:xlink="http://www.w3.org/1999/xlink" viewBox="0 0 51.25 50.918">
 <g>
  <rect height="50.918" opacity="0" width="51.25" x="0" y="0"/>
  <path d="M50.8789 25.4492C50.8789 39.4922 39.4727 50.8789 25.4297 50.8789C11.3867 50.8789 0 39.4922 0 25.4492C0 11.4062 11.3867 0 25.4297 0C39.4727 0 50.8789 11.4062 50.8789 25.4492ZM3.63281 25.4492C3.63281 37.5 13.3789 47.2461 25.4297 47.2461C37.4805 47.2461 47.2266 37.5 47.2266 25.4492C47.2266 13.3984 37.4805 3.65234 25.4297 3.65234C13.3789 3.65234 3.63281 13.3984 3.63281 25.4492Z" fill="black" fill-opacity="0.85"/>
  <path d="M15.1286 18.9567C12.2438 19.9131 10.6445 21.7844 10.6445 25.3711C10.6445 29.8633 12.793 32.5 16.2305 32.5C19.8601 32.5 21.5758 29.0411 24.8601 28.6882L29.4035 33.2316C27.7876 32.1968 26.5677 31.0742 25.4102 31.0742C23.2617 31.0742 20.8984 34.9414 16.2305 34.9414C11.6406 34.9414 8.22266 30.7617 8.22266 25.3711C8.22266 20.9326 10.1666 18.4673 13.2837 17.1118ZM42.5977 25.3711C42.5977 29.3407 40.7548 32.6536 37.9468 34.1177L36.1288 32.2981C38.6585 31.6201 40.1953 29.1532 40.1953 25.3711C40.1953 18.6328 34.5508 17.9492 25.4102 17.9492C24.1522 17.9492 22.9604 17.9622 21.8476 18.0052L19.5702 15.7259C21.3924 15.5542 23.3633 15.5078 25.4102 15.5078C34.8047 15.5078 42.5977 16.4844 42.5977 25.3711Z" fill="black" fill-opacity="0.85"/>
  <path d="M36.5625 37.9883C36.9531 38.3984 37.6172 38.3984 38.0273 37.9883C38.4375 37.5781 38.4375 36.9531 38.0273 36.5234L14.375 12.8711C13.9648 12.4609 13.3008 12.4609 12.8906 12.8711C12.4805 13.2812 12.5 13.9453 12.8906 14.3359Z" fill="black" fill-opacity="0.85"/>
 </g>
</svg>
