<?xml version="1.0" encoding="UTF-8"?>
<!--Generator: Apple Native CoreSVG 326-->
<!DOCTYPE svg
PUBLIC "-//W3C//DTD SVG 1.1//EN"
       "http://www.w3.org/Graphics/SVG/1.1/DTD/svg11.dtd">
<svg version="1.1" xmlns="http://www.w3.org/2000/svg" xmlns:xlink="http://www.w3.org/1999/xlink" viewBox="0 0 51.25 50.918">
 <g>
  <rect height="50.918" opacity="0" width="51.25" x="0" y="0"/>
  <path d="M50.8789 25.4492C50.8789 39.4531 39.4531 50.8789 25.4297 50.8789C11.4258 50.8789 0 39.4531 0 25.4492C0 11.4258 11.4258 0 25.4297 0C39.4531 0 50.8789 11.4258 50.8789 25.4492ZM36.25 15.0781L32.1289 32.3242L31.9531 32.3242L27.3828 14.8828C27.1094 13.8867 26.4844 13.3984 25.4102 13.3984C24.3359 13.3984 23.6719 13.8867 23.418 14.8828L18.8477 32.3242L18.6914 32.3242L14.5898 15.0781C14.2969 13.8086 13.8086 13.3203 12.7734 13.3203C11.7383 13.3203 11.0742 14.0039 11.0742 15C11.0742 15.2148 11.0938 15.4297 11.1523 15.6836L16.3086 35.6055C16.6016 36.7969 17.3828 37.4219 18.5742 37.4219C19.8047 37.4219 20.625 36.8164 20.8984 35.6641L25.3125 18.6523L25.4883 18.6523L29.9023 35.6641C30.1758 36.8164 30.9961 37.4219 32.207 37.4219C33.4375 37.4219 34.1992 36.7969 34.5117 35.6055L39.668 15.6836C39.7461 15.4297 39.7656 15.2148 39.7656 15C39.7656 14.0039 39.082 13.3203 38.0469 13.3203C37.0117 13.3203 36.5234 13.8086 36.25 15.0781Z" fill="black" fill-opacity="0.85"/>
 </g>
</svg>
