<?xml version="1.0" encoding="UTF-8"?>
<!--Generator: Apple Native CoreSVG 326-->
<!DOCTYPE svg
PUBLIC "-//W3C//DTD SVG 1.1//EN"
       "http://www.w3.org/Graphics/SVG/1.1/DTD/svg11.dtd">
<svg version="1.1" xmlns="http://www.w3.org/2000/svg" xmlns:xlink="http://www.w3.org/1999/xlink" viewBox="0 0 51.25 50.918">
 <g>
  <rect height="50.918" opacity="0" width="51.25" x="0" y="0"/>
  <path d="M25.4297 50.8789C39.4727 50.8789 50.8789 39.4922 50.8789 25.4492C50.8789 11.4062 39.4727 0 25.4297 0C11.3867 0 0 11.4062 0 25.4492C0 39.4922 11.3867 50.8789 25.4297 50.8789ZM25.4297 47.2461C13.3789 47.2461 3.63281 37.5 3.63281 25.4492C3.63281 13.3984 13.3789 3.65234 25.4297 3.65234C37.4805 3.65234 47.2266 13.3984 47.2266 25.4492C47.2266 37.5 37.4805 47.2461 25.4297 47.2461Z" fill="black" fill-opacity="0.85"/>
  <path d="M25.4297 10.0195C16.9141 10.0195 10.0195 16.9336 10.0195 25.4492C10.0195 33.9453 16.9141 40.8594 25.4297 40.8594C33.9453 40.8594 40.8594 33.9453 40.8594 25.4492C40.8594 16.9336 33.9453 10.0195 25.4297 10.0195ZM13.1445 25.4492C13.1445 23.8672 13.4375 22.3633 14.0039 20.9961L36.9141 20.9961C37.4609 22.3633 37.7734 23.8672 37.7734 25.4492C37.7734 32.2461 32.2461 37.7539 25.4492 37.7539C18.6523 37.7539 13.1445 32.2461 13.1445 25.4492ZM15.6055 18.1055C17.832 15.0977 21.4062 13.125 25.4492 13.125C29.4922 13.125 33.0859 15.0977 35.293 18.1055Z" fill="black" fill-opacity="0.85"/>
 </g>
</svg>
