<?xml version="1.0" encoding="UTF-8"?>
<!--Generator: Apple Native CoreSVG 326-->
<!DOCTYPE svg
PUBLIC "-//W3C//DTD SVG 1.1//EN"
       "http://www.w3.org/Graphics/SVG/1.1/DTD/svg11.dtd">
<svg version="1.1" xmlns="http://www.w3.org/2000/svg" xmlns:xlink="http://www.w3.org/1999/xlink" viewBox="0 0 42.3047 53.8477">
 <g>
  <rect height="53.8477" opacity="0" width="42.3047" x="0" y="0"/>
  <path d="M7.51953 53.8477L34.4141 53.8477C39.375 53.8477 41.9336 51.2695 41.9336 46.25L41.9336 7.61719C41.9336 2.55859 39.4141 0.0195312 34.4141 0.0195312L26.9336 0.0195312C26.1914 0.0195312 25.7227 0.527344 25.7227 1.30859C25.7227 4.02344 23.7891 5.99609 20.9766 5.99609C18.1445 5.99609 16.1914 4.02344 16.1914 1.30859C16.1914 0.527344 15.7227 0.0195312 14.9805 0.0195312L7.51953 0.0195312C2.51953 0.0195312 0 2.55859 0 7.61719L0 46.25C0 51.2695 2.55859 53.8477 7.51953 53.8477ZM7.71484 50.3906C4.90234 50.3906 3.45703 48.8477 3.45703 46.1719L3.45703 7.69531C3.45703 4.96094 4.90234 3.47656 7.71484 3.47656L14.9219 3.47656L12.8906 2.22656C13.3008 6.54297 16.4844 9.35547 20.9766 9.35547C25.4492 9.35547 28.6328 6.54297 29.043 2.22656L27.0117 3.47656L34.2188 3.47656C37.0312 3.47656 38.4766 4.96094 38.4766 7.69531L38.4766 46.1719C38.4766 48.8477 37.0312 50.3906 34.2188 50.3906ZM11.2109 18.2617L30.7617 18.2617C31.5234 18.2617 32.1094 17.6562 32.1094 16.875C32.1094 16.1133 31.5234 15.5273 30.7617 15.5273L11.2109 15.5273C10.4102 15.5273 9.82422 16.1133 9.82422 16.875C9.82422 17.6562 10.4102 18.2617 11.2109 18.2617ZM11.2109 27.3633L20.5664 27.3633C21.3477 27.3633 21.9336 26.7773 21.9336 26.0156C21.9336 25.2539 21.3477 24.6484 20.5664 24.6484L11.2109 24.6484C10.4102 24.6484 9.82422 25.2539 9.82422 26.0156C9.82422 26.7773 10.4102 27.3633 11.2109 27.3633Z" fill="black" fill-opacity="0.85"/>
 </g>
</svg>
