<?xml version="1.0" encoding="UTF-8"?>
<!--Generator: Apple Native CoreSVG 326-->
<!DOCTYPE svg
PUBLIC "-//W3C//DTD SVG 1.1//EN"
       "http://www.w3.org/Graphics/SVG/1.1/DTD/svg11.dtd">
<svg version="1.1" xmlns="http://www.w3.org/2000/svg" xmlns:xlink="http://www.w3.org/1999/xlink" viewBox="0 0 42.3047 53.8477">
 <g>
  <rect height="53.8477" opacity="0" width="42.3047" x="0" y="0"/>
  <path d="M7.51953 53.8477L34.4141 53.8477C39.375 53.8477 41.9336 51.2695 41.9336 46.25L41.9336 7.61719C41.9336 2.55859 39.4141 0.0195312 34.4141 0.0195312L27.7734 0.0195312C27.0508 0.0195312 26.5625 0.527344 26.5625 1.30859C26.5625 1.38672 26.5625 1.50391 26.5625 1.60156C26.5625 4.82422 24.2969 6.875 20.9766 6.875C17.6367 6.875 15.3711 4.82422 15.3711 1.60156C15.3711 1.50391 15.3711 1.38672 15.3711 1.30859C15.3711 0.527344 14.8828 0.0195312 14.1602 0.0195312L7.51953 0.0195312C2.51953 0.0195312 0 2.55859 0 7.61719L0 46.25C0 51.2695 2.55859 53.8477 7.51953 53.8477ZM11.2109 18.2617C10.4102 18.2617 9.82422 17.6562 9.82422 16.875C9.82422 16.1133 10.4102 15.5273 11.2109 15.5273L30.7617 15.5273C31.5234 15.5273 32.1094 16.1133 32.1094 16.875C32.1094 17.6562 31.5234 18.2617 30.7617 18.2617ZM11.2109 27.3633C10.4102 27.3633 9.82422 26.7773 9.82422 26.0156C9.82422 25.2539 10.4102 24.6484 11.2109 24.6484L20.5664 24.6484C21.3477 24.6484 21.9336 25.2539 21.9336 26.0156C21.9336 26.7773 21.3477 27.3633 20.5664 27.3633Z" fill="black" fill-opacity="0.85"/>
 </g>
</svg>
