<?xml version="1.0" encoding="UTF-8"?>
<!--Generator: Apple Native CoreSVG 326-->
<!DOCTYPE svg
PUBLIC "-//W3C//DTD SVG 1.1//EN"
       "http://www.w3.org/Graphics/SVG/1.1/DTD/svg11.dtd">
<svg version="1.1" xmlns="http://www.w3.org/2000/svg" xmlns:xlink="http://www.w3.org/1999/xlink" viewBox="0 0 59.2188 51.5039">
 <g>
  <rect height="51.5039" opacity="0" width="59.2188" x="0" y="0"/>
  <path d="M7.22656 51.5039L48.3203 51.5039C53.125 51.5039 55.5469 49.0625 55.5469 44.3555L55.5469 40.4297L46.4844 40.4297C40.3711 40.4297 36.6406 36.6797 36.6406 31.2891C36.6406 25.8789 40.3711 22.1289 46.4844 22.1289L55.5469 22.1289L55.5469 18.2031C55.5469 13.4961 53.125 11.0547 48.3203 11.0547L7.22656 11.0547C2.44141 11.0547 0 13.4766 0 18.2031L0 44.3555C0 49.082 2.44141 51.5039 7.22656 51.5039ZM45.8398 33.9258C44.375 33.9258 43.1836 32.7344 43.1836 31.2891C43.1836 29.8242 44.375 28.6523 45.8398 28.6523C47.3047 28.6523 48.4766 29.8242 48.4766 31.2891C48.4766 32.7344 47.3047 33.9258 45.8398 33.9258ZM46.4844 37.4609L55.332 37.4609C57.5391 37.4609 58.8477 35.957 58.8477 33.9844L58.8477 28.5742C58.8477 26.6016 57.5391 25.0977 55.332 25.0977L46.4844 25.0977C42.2656 25.0977 39.6094 27.3047 39.6094 31.2891C39.6094 35.2734 42.2656 37.4609 46.4844 37.4609ZM15.625 7.94922L47.1875 7.94922C47.1875 7.59766 47.1875 7.24609 47.1875 6.89453C46.9922 1.85547 43.3789 0.0976562 38.2812 1.5625Z" fill="black" fill-opacity="0.85"/>
 </g>
</svg>
