<?xml version="1.0" encoding="UTF-8"?>
<!--Generator: Apple Native CoreSVG 326-->
<!DOCTYPE svg
PUBLIC "-//W3C//DTD SVG 1.1//EN"
       "http://www.w3.org/Graphics/SVG/1.1/DTD/svg11.dtd">
<svg version="1.1" xmlns="http://www.w3.org/2000/svg" xmlns:xlink="http://www.w3.org/1999/xlink" viewBox="0 0 54.0039 53.8477">
 <g>
  <rect height="53.8477" opacity="0" width="54.0039" x="0" y="0"/>
  <path d="M51.2305 51.4648C52.168 50.4688 52.1875 48.9648 51.2305 47.9883L27.1484 23.8477C26.2109 22.8711 24.5898 22.8711 23.6719 23.8477C22.7344 24.8242 22.7539 26.3672 23.6719 27.3242L47.7539 51.4648C48.7305 52.4609 50.3125 52.4414 51.2305 51.4648ZM49.8242 50.0977C49.4727 50.4492 48.9844 50.3906 48.5742 49.9805L32.8125 34.1797L33.9648 33.0469L49.7266 48.8477C50.0977 49.2383 50.2148 49.707 49.8242 50.0977Z" fill="black" fill-opacity="0.85"/>
  <path d="M51.7578 28.6914C52.7734 28.6914 53.6328 27.832 53.6328 26.8164C53.6328 25.8008 52.7734 24.9219 51.7578 24.9219L43.9648 24.9219C42.9492 24.9219 42.0703 25.8008 42.0703 26.8164C42.0703 27.832 42.9492 28.6914 43.9648 28.6914Z" fill="black" fill-opacity="0.85"/>
  <path d="M37.5586 13.418C36.8359 14.1602 36.8359 15.3516 37.5586 16.0742C38.2812 16.7969 39.4922 16.7969 40.2148 16.0742L45.7227 10.5664C46.4453 9.84375 46.4453 8.63281 45.7227 7.91016C45 7.16797 43.8086 7.16797 43.0859 7.91016Z" fill="black" fill-opacity="0.85"/>
  <path d="M28.7109 1.875C28.7109 0.859375 27.832 0 26.8164 0C25.8008 0 24.9414 0.859375 24.9414 1.875L24.9414 9.66797C24.9414 10.6836 25.8008 11.5625 26.8164 11.5625C27.832 11.5625 28.7109 10.6836 28.7109 9.66797Z" fill="black" fill-opacity="0.85"/>
  <path d="M13.3984 16.0742C14.1211 16.7969 15.332 16.7969 16.0547 16.0742C16.7773 15.3711 16.7773 14.1602 16.0547 13.418L10.5859 7.92969C9.86328 7.20703 8.65234 7.16797 7.92969 7.91016C7.20703 8.61328 7.20703 9.82422 7.92969 10.5469Z" fill="black" fill-opacity="0.85"/>
  <path d="M1.89453 24.9219C0.859375 24.9219 0 25.8008 0 26.8164C0 27.832 0.859375 28.6914 1.89453 28.6914L9.6875 28.6914C10.7227 28.6914 11.582 27.832 11.582 26.8164C11.582 25.8008 10.7227 24.9219 9.6875 24.9219Z" fill="black" fill-opacity="0.85"/>
  <path d="M7.89062 43.0469C7.1875 43.7695 7.16797 44.9805 7.87109 45.7031C8.59375 46.4062 9.82422 46.4453 10.5469 45.7227L16.0547 40.2344C16.7578 39.5117 16.7773 38.3008 16.0547 37.5781C15.3516 36.875 14.1211 36.8555 13.3984 37.5781Z" fill="black" fill-opacity="0.85"/>
  <path d="M28.7109 43.9648C28.7109 42.9492 27.832 42.0898 26.8164 42.0898C25.8008 42.0898 24.9414 42.9492 24.9414 43.9648L24.9414 51.7578C24.9414 52.7734 25.8008 53.6523 26.8164 53.6523C27.832 53.6523 28.7109 52.7734 28.7109 51.7578Z" fill="black" fill-opacity="0.85"/>
 </g>
</svg>
