<?xml version="1.0" encoding="UTF-8"?>
<!--Generator: Apple Native CoreSVG 326-->
<!DOCTYPE svg
PUBLIC "-//W3C//DTD SVG 1.1//EN"
       "http://www.w3.org/Graphics/SVG/1.1/DTD/svg11.dtd">
<svg version="1.1" xmlns="http://www.w3.org/2000/svg" xmlns:xlink="http://www.w3.org/1999/xlink" viewBox="0 0 51.6016 53.1055">
 <g>
  <rect height="53.1055" opacity="0" width="51.6016" x="0" y="0"/>
  <path d="M34.9609 18.6328C35.293 18.6328 35.5469 18.3984 35.625 18.0664C36.7383 12.0898 37.6172 10.8789 43.6719 9.98047C44.0234 9.92188 44.2383 9.66797 44.2383 9.33594C44.2383 8.96484 44.0234 8.71094 43.6719 8.65234C37.6172 7.75391 36.543 6.44531 35.625 0.625C35.5469 0.234375 35.293 0 34.9609 0C34.5898 0 34.3359 0.234375 34.2773 0.605469C33.1445 6.52344 32.2461 7.75391 26.2305 8.65234C25.8398 8.71094 25.625 8.96484 25.625 9.33594C25.625 9.66797 25.8398 9.90234 26.2305 9.98047C32.2461 10.8789 33.3203 12.0703 34.2773 18.0469C34.3164 18.3984 34.5508 18.6328 34.9609 18.6328ZM6.875 38.8281C7.22656 38.8281 7.42188 38.6133 7.48047 38.2812C8.16406 33.7305 8.16406 33.2812 13.2031 32.5586C13.5547 32.5 13.7695 32.2852 13.7695 31.9531C13.7695 31.6211 13.5547 31.4062 13.2031 31.3477C8.16406 30.6055 8.16406 30.1758 7.48047 25.625C7.42188 25.293 7.22656 25.0586 6.875 25.0586C6.54297 25.0586 6.32812 25.293 6.26953 25.625C5.58594 30.1758 5.58594 30.6055 0.546875 31.3477C0.214844 31.4062 0 31.6211 0 31.9531C0 32.2852 0.214844 32.5 0.546875 32.5586C5.58594 33.2812 5.58594 33.7305 6.26953 38.2812C6.32812 38.6133 6.54297 38.8281 6.875 38.8281ZM15.3125 46.1719C15.5664 46.1719 15.7617 45.9766 15.8008 45.7227C16.25 42.9688 16.1719 42.7148 19.4336 42.1094C19.707 42.0508 19.8633 41.8555 19.8633 41.6016C19.8633 41.3477 19.707 41.1719 19.4336 41.1133C16.1914 40.5078 16.2891 40.2734 15.8008 37.4805C15.7617 37.2266 15.5469 37.0508 15.3125 37.0508C15.0586 37.0508 14.8828 37.2266 14.8242 37.5195C14.2773 40.2734 14.4336 40.5664 11.2109 41.1133C10.9375 41.1719 10.7617 41.3281 10.7617 41.6016C10.7617 41.8555 10.9375 42.0508 11.1914 42.1094C14.4336 42.7148 14.2773 42.9688 14.8242 45.7227C14.8828 45.9766 15.0586 46.1719 15.3125 46.1719Z" fill="black" fill-opacity="0.85"/>
  <path d="M47.6953 48.3398C48.6719 47.3438 48.6914 45.8203 47.6953 44.8047L15.2148 12.3438C14.2188 11.3281 12.5781 11.3477 11.6406 12.3438C10.6641 13.3594 10.6641 14.8828 11.6602 15.8984L44.1211 48.3398C45.1367 49.3945 46.7578 49.3555 47.6953 48.3398ZM46.4062 47.0508C46.0938 47.3633 45.5859 47.3828 45.2734 47.0508L21.6797 23.4766L22.832 22.3242L46.4062 45.918C46.7383 46.25 46.7383 46.7383 46.4062 47.0508Z" fill="black" fill-opacity="0.85"/>
 </g>
</svg>
