<?xml version="1.0" encoding="UTF-8"?>
<!--Generator: Apple Native CoreSVG 326-->
<!DOCTYPE svg
PUBLIC "-//W3C//DTD SVG 1.1//EN"
       "http://www.w3.org/Graphics/SVG/1.1/DTD/svg11.dtd">
<svg version="1.1" xmlns="http://www.w3.org/2000/svg" xmlns:xlink="http://www.w3.org/1999/xlink" viewBox="0 0 41.6406 58.8477">
 <g>
  <rect height="58.8477" opacity="0" width="41.6406" x="0" y="0"/>
  <path d="M9.60938 12.9883L19.4531 12.2852L29.2969 12.9688L29.2969 2.53906C29.2969 1.05469 28.2227 0.0195312 26.6797 0.0195312L12.2266 0.0390625C10.6836 0.0390625 9.60938 1.07422 9.60938 2.57812ZM12.2266 58.8281L26.6797 58.8477C28.2227 58.8477 29.2969 57.8125 29.2969 56.3281L29.2969 45.8203L19.4531 46.4648L9.60938 45.8008L9.60938 56.3086C9.60938 57.793 10.6836 58.8281 12.2266 58.8281ZM19.4531 48.8672C30.4297 48.8672 38.9062 40.3906 38.9062 29.4141C38.9062 18.418 30.4297 9.96094 19.4531 9.96094C8.47656 9.96094 0 18.418 0 29.4141C0 40.3906 8.47656 48.8672 19.4531 48.8672ZM19.4531 45.6055C9.82422 45.6055 3.26172 39.043 3.26172 29.4141C3.26172 19.7852 9.82422 13.2227 19.4531 13.2227C29.082 13.2227 35.6445 19.7852 35.6445 29.4141C35.6445 39.043 29.082 45.6055 19.4531 45.6055ZM37.6562 33.2031L40.0391 33.2031C40.7422 33.2031 41.2695 32.6562 41.2695 31.9336L41.2695 26.8555C41.2695 26.1133 40.7227 25.5859 40.0195 25.5859L37.6562 25.5859Z" fill="black" fill-opacity="0.85"/>
  <path d="M20.9375 30.625L29.0234 23.5938C29.6484 23.0273 29.6484 22.0508 29.0234 21.4062C28.457 20.8594 27.5391 20.8594 26.875 21.4258L19.4531 27.8711L14.8633 23.9844C14.2578 23.4766 13.3008 23.5547 12.7344 24.1992C12.207 24.8438 12.2852 25.8008 12.9492 26.3477L18.0273 30.625C19.0234 31.4844 19.9805 31.4844 20.9375 30.625Z" fill="black" fill-opacity="0.85"/>
 </g>
</svg>
