<?xml version="1.0" encoding="UTF-8"?>
<!--Generator: Apple Native CoreSVG 326-->
<!DOCTYPE svg
PUBLIC "-//W3C//DTD SVG 1.1//EN"
       "http://www.w3.org/Graphics/SVG/1.1/DTD/svg11.dtd">
<svg version="1.1" xmlns="http://www.w3.org/2000/svg" xmlns:xlink="http://www.w3.org/1999/xlink" viewBox="0 0 53.7012 53.2227">
 <g>
  <rect height="53.2227" opacity="0" width="53.7012" x="0" y="0"/>
  <path d="M21.1377 40.2539C22.876 41.5821 24.3213 42.6563 26.665 42.6563C29.0088 42.6563 30.4346 41.5821 32.1729 40.2539C32.5234 39.9973 32.886 39.7286 33.2698 39.4673L35.4975 41.693C33.2887 43.1897 31.3598 45.7227 26.665 45.7227C19.9658 45.7227 18.8916 40.6055 14.6924 40.6055C10.3955 40.6055 9.73145 45.7227 2.0752 45.7227L1.95801 45.7227C1.09863 45.7227 0.415039 45.0391 0.415039 44.1797C0.415039 43.3399 1.09863 42.6563 1.95801 42.6563L2.0752 42.6563C4.86816 42.6563 6.4502 41.4844 8.36426 40.1368C10.0049 38.9454 11.9775 37.5391 14.6924 37.5391C17.5049 37.5391 19.4971 39.043 21.1377 40.2539Z" fill="black" fill-opacity="0.85"/>
  <path d="M44.9658 25.0782C46.8604 26.4063 48.4424 27.5782 51.2354 27.5782L51.3721 27.5782C52.2119 27.5782 52.8955 28.2618 52.8955 29.1211C52.8955 29.961 52.2119 30.6446 51.3721 30.6446L51.2354 30.6446C43.5986 30.6446 42.9346 25.5274 38.6182 25.5274C36.6938 25.5274 35.4258 26.602 33.9714 27.7672L31.7313 25.5262C31.8763 25.4186 32.0234 25.3078 32.1729 25.1954C33.8135 23.9649 35.8252 22.461 38.6182 22.461C41.3525 22.461 43.3252 23.8868 44.9658 25.0782ZM16.4571 22.6694L24.1556 30.3611C19.6015 29.3054 18.3005 25.5274 14.6924 25.5274C10.3955 25.5274 9.73145 30.6446 2.0752 30.6446L1.95801 30.6446C1.09863 30.6446 0.415039 29.961 0.415039 29.1211C0.415039 28.2618 1.09863 27.5782 1.95801 27.5782L2.0752 27.5782C4.86816 27.5782 6.4502 26.4063 8.36426 25.0782C10.0049 23.8868 11.9775 22.461 14.6924 22.461C15.3205 22.461 15.9077 22.536 16.4571 22.6694Z" fill="black" fill-opacity="0.85"/>
  <path d="M44.9658 10C46.8604 11.3477 48.4424 12.5196 51.2354 12.5196L51.3721 12.5196C52.2119 12.5196 52.8955 13.2032 52.8955 14.043C52.8955 14.9024 52.2119 15.586 51.3721 15.586L51.2354 15.586C43.5986 15.586 42.9346 10.4688 38.6182 10.4688C34.4189 10.4688 33.3447 15.586 26.665 15.586C21.8222 15.586 19.9189 12.9119 17.6476 11.4363L13.6843 7.47122C14.0072 7.42572 14.3434 7.40239 14.6924 7.40239C17.5049 7.40239 19.4971 8.90629 21.1377 10.1172C22.876 11.4454 24.3213 12.5196 26.665 12.5196C29.0088 12.5196 30.4346 11.4454 32.1729 10.1172C33.8135 8.90629 35.8252 7.40239 38.6182 7.40239C41.3525 7.40239 43.3252 8.80864 44.9658 10Z" fill="black" fill-opacity="0.85"/>
  <path d="M47.6025 49.961C48.2471 50.6055 49.3213 50.6055 49.9658 49.961C50.6104 49.2969 50.6104 48.2422 49.9658 47.5977L5.57129 3.2227C4.94629 2.57817 3.87207 2.55864 3.20801 3.2227C2.56348 3.8477 2.56348 4.94145 3.20801 5.56645Z" fill="black" fill-opacity="0.85"/>
 </g>
</svg>
