<?xml version="1.0" encoding="UTF-8"?>
<!--Generator: Apple Native CoreSVG 326-->
<!DOCTYPE svg
PUBLIC "-//W3C//DTD SVG 1.1//EN"
       "http://www.w3.org/Graphics/SVG/1.1/DTD/svg11.dtd">
<svg version="1.1" xmlns="http://www.w3.org/2000/svg" xmlns:xlink="http://www.w3.org/1999/xlink" viewBox="0 0 52.8516 51.5186">
 <g>
  <rect height="51.5186" opacity="0" width="52.8516" x="0" y="0"/>
  <path d="M44.5312 9.14796C46.4453 10.4956 48.0273 11.6675 50.8203 11.6675L50.9375 11.6675C51.7969 11.6675 52.4805 12.3511 52.4805 13.1909C52.4805 14.0503 51.7969 14.7339 50.9375 14.7339L50.8203 14.7339C43.1641 14.7339 42.5 9.61671 38.2031 9.61671C34.0039 9.61671 32.9297 14.7339 26.2305 14.7339C19.5508 14.7339 18.4766 9.61671 14.2773 9.61671C9.98047 9.61671 9.29688 14.7339 1.66016 14.7339L1.52344 14.7339C0.683594 14.7339 0 14.0503 0 13.1909C0 12.3511 0.683594 11.6675 1.52344 11.6675L1.66016 11.6675C4.45312 11.6675 6.03516 10.4956 7.92969 9.14796C9.57031 7.95655 11.543 6.5503 14.2773 6.5503C17.0703 6.5503 19.082 8.05421 20.7227 9.26514C22.4609 10.5933 23.8867 11.6675 26.2305 11.6675C28.5742 11.6675 30.0195 10.5933 31.7578 9.26514C33.3984 8.05421 35.3906 6.5503 38.2031 6.5503C40.918 6.5503 42.8906 7.95655 44.5312 9.14796Z" fill="black" fill-opacity="0.85"/>
  <path d="M44.5312 24.2261C46.4453 25.5542 48.0273 26.7261 50.8203 26.7261L50.9375 26.7261C51.7969 26.7261 52.4805 27.4097 52.4805 28.2691C52.4805 29.1089 51.7969 29.7925 50.9375 29.7925L50.8203 29.7925C43.1641 29.7925 42.5 24.6753 38.2031 24.6753C35.162 24.6753 33.7599 27.3592 30.6641 28.8332L30.6641 25.1463C31.0229 24.8959 31.3836 24.625 31.7578 24.3433C33.3984 23.1128 35.3906 21.6089 38.2031 21.6089C40.918 21.6089 42.8906 23.0347 44.5312 24.2261ZM20.7227 24.3433C21.0909 24.6205 21.4451 24.8872 21.7969 25.1342L21.7969 28.8273C18.7169 27.3522 17.3145 24.6753 14.2773 24.6753C9.98047 24.6753 9.29688 29.7925 1.66016 29.7925L1.52344 29.7925C0.683594 29.7925 0 29.1089 0 28.2691C0 27.4097 0.683594 26.7261 1.52344 26.7261L1.66016 26.7261C4.45312 26.7261 6.03516 25.5542 7.92969 24.2261C9.57031 23.0347 11.543 21.6089 14.2773 21.6089C17.0703 21.6089 19.082 23.1128 20.7227 24.3433Z" fill="black" fill-opacity="0.85"/>
  <path d="M19.6289 36.8433C18.1445 36.8433 17.5391 38.23 18.418 39.3628L24.8828 47.9761C25.7227 49.0698 26.7578 49.0503 27.5781 47.9761L34.043 39.3433C34.9023 38.23 34.2969 36.8433 32.832 36.8433L27.9492 36.8433L27.9492 21.023C27.9492 20.1245 27.1484 19.3628 26.2305 19.3628C25.3125 19.3628 24.5117 20.1245 24.5117 21.023L24.5117 36.8433Z" fill="black" fill-opacity="0.85"/>
 </g>
</svg>
