<?xml version="1.0" encoding="UTF-8"?>
<!--Generator: Apple Native CoreSVG 326-->
<!DOCTYPE svg
PUBLIC "-//W3C//DTD SVG 1.1//EN"
       "http://www.w3.org/Graphics/SVG/1.1/DTD/svg11.dtd">
<svg version="1.1" xmlns="http://www.w3.org/2000/svg" xmlns:xlink="http://www.w3.org/1999/xlink" viewBox="0 0 52.8516 38.418">
 <g>
  <rect height="38.418" opacity="0" width="52.8516" x="0" y="0"/>
  <path d="M26.2305 8.18359C32.9297 8.18359 34.0039 3.06641 38.2031 3.06641C42.5 3.06641 43.1641 8.18359 50.8203 8.18359L50.9375 8.18359C51.7969 8.18359 52.4805 7.5 52.4805 6.64062C52.4805 5.80078 51.7969 5.11719 50.9375 5.11719L50.8203 5.11719C48.0273 5.11719 46.4453 3.94531 44.5312 2.59766C42.8906 1.40625 40.918 0 38.2031 0C35.3906 0 33.3984 1.50391 31.7578 2.71484C30.0195 4.04297 28.5742 5.11719 26.2305 5.11719C23.8867 5.11719 22.4609 4.04297 20.7227 2.71484C19.082 1.50391 17.0703 0 14.2773 0C11.543 0 9.57031 1.40625 7.92969 2.59766C6.03516 3.94531 4.45312 5.11719 1.66016 5.11719L1.52344 5.11719C0.683594 5.11719 0 5.80078 0 6.64062C0 7.5 0.683594 8.18359 1.52344 8.18359L1.66016 8.18359C9.29688 8.18359 9.98047 3.06641 14.2773 3.06641C18.4766 3.06641 19.5508 8.18359 26.2305 8.18359Z" fill="black" fill-opacity="0.85"/>
  <path d="M26.2305 23.2422C32.9297 23.2422 34.0039 18.125 38.2031 18.125C42.5 18.125 43.1641 23.2422 50.8203 23.2422L50.9375 23.2422C51.7969 23.2422 52.4805 22.5586 52.4805 21.7188C52.4805 20.8594 51.7969 20.1758 50.9375 20.1758L50.8203 20.1758C48.0273 20.1758 46.4453 19.0039 44.5312 17.6758C42.8906 16.4844 40.918 15.0586 38.2031 15.0586C35.3906 15.0586 33.3984 16.5625 31.7578 17.793C30.0195 19.1016 28.5742 20.1758 26.2305 20.1758C23.8867 20.1758 22.4609 19.1016 20.7227 17.793C19.082 16.5625 17.0703 15.0586 14.2773 15.0586C11.543 15.0586 9.57031 16.4844 7.92969 17.6758C6.03516 19.0039 4.45312 20.1758 1.66016 20.1758L1.52344 20.1758C0.683594 20.1758 0 20.8594 0 21.7188C0 22.5586 0.683594 23.2422 1.52344 23.2422L1.66016 23.2422C9.29688 23.2422 9.98047 18.125 14.2773 18.125C18.4766 18.125 19.5508 23.2422 26.2305 23.2422Z" fill="black" fill-opacity="0.85"/>
  <path d="M26.2305 38.3203C32.9297 38.3203 34.0039 33.2031 38.2031 33.2031C42.5 33.2031 43.1641 38.3203 50.8203 38.3203L50.9375 38.3203C51.7969 38.3203 52.4805 37.6367 52.4805 36.7773C52.4805 35.9375 51.7969 35.2539 50.9375 35.2539L50.8203 35.2539C48.0273 35.2539 46.4453 34.082 44.5312 32.7344C42.8906 31.543 40.918 30.1367 38.2031 30.1367C35.3906 30.1367 33.3984 31.6406 31.7578 32.8516C30.0195 34.1797 28.5742 35.2539 26.2305 35.2539C23.8867 35.2539 22.4609 34.1797 20.7227 32.8516C19.082 31.6406 17.0703 30.1367 14.2773 30.1367C11.543 30.1367 9.57031 31.543 7.92969 32.7344C6.03516 34.082 4.45312 35.2539 1.66016 35.2539L1.52344 35.2539C0.683594 35.2539 0 35.9375 0 36.7773C0 37.6367 0.683594 38.3203 1.52344 38.3203L1.66016 38.3203C9.29688 38.3203 9.98047 33.2031 14.2773 33.2031C18.4766 33.2031 19.5508 38.3203 26.2305 38.3203Z" fill="black" fill-opacity="0.85"/>
 </g>
</svg>
