<?xml version="1.0" encoding="UTF-8"?>
<!--Generator: Apple Native CoreSVG 326-->
<!DOCTYPE svg
PUBLIC "-//W3C//DTD SVG 1.1//EN"
       "http://www.w3.org/Graphics/SVG/1.1/DTD/svg11.dtd">
<svg version="1.1" xmlns="http://www.w3.org/2000/svg" xmlns:xlink="http://www.w3.org/1999/xlink" viewBox="0 0 50.2148 53.5889">
 <g>
  <rect height="53.5889" opacity="0" width="50.2148" x="0" y="0"/>
  <path d="M1.54297 31.4136L12.6953 31.4136C13.6914 31.4136 14.3164 30.9644 14.5117 30.0659L19.4531 7.62452L17.8711 7.62452L25.3906 52.4097C25.6641 53.9917 28.0859 53.9722 28.3984 52.4097L35.7227 18.562L34.3945 18.5425L36.7773 29.8901C36.9922 30.9253 37.5781 31.4136 38.6328 31.4136L48.3008 31.4136C49.1602 31.4136 49.8438 30.7495 49.8438 29.9097C49.8438 29.0308 49.1797 28.3472 48.3008 28.3472L36.8359 28.3472L39.9023 30.8276L36.3672 15.4175C36.0156 13.9136 33.8086 13.9136 33.4375 15.4761L26.0352 48.4448L27.5 48.4448L20.0391 3.67921C19.7852 2.13624 17.5391 2.09718 17.1875 3.67921L11.25 30.8276L14.2969 28.3472L1.54297 28.3472C0.683594 28.3472 0 29.0503 0 29.9097C0 30.7495 0.683594 31.4136 1.54297 31.4136Z" fill="black" fill-opacity="0.85"/>
 </g>
</svg>
