<?xml version="1.0" encoding="UTF-8"?>
<!--Generator: Apple Native CoreSVG 326-->
<!DOCTYPE svg
PUBLIC "-//W3C//DTD SVG 1.1//EN"
       "http://www.w3.org/Graphics/SVG/1.1/DTD/svg11.dtd">
<svg version="1.1" xmlns="http://www.w3.org/2000/svg" xmlns:xlink="http://www.w3.org/1999/xlink" viewBox="0 0 58.8526 54.2139">
 <g>
  <rect height="54.2139" opacity="0" width="58.8526" x="0" y="0"/>
  <path d="M51.7603 20.5542L51.7603 33.6597C51.7603 34.6167 50.9985 35.398 50.022 35.398C49.0259 35.398 48.3032 34.6167 48.3032 33.6597L48.3032 20.5542C48.3032 19.5972 49.0259 18.7964 50.022 18.7964C50.9985 18.7964 51.7603 19.5972 51.7603 20.5542Z" fill="black" fill-opacity="0.85"/>
  <path d="M43.44 8.67921L43.44 32.5464L39.9829 29.0894L39.9829 8.67921C39.9829 7.72218 40.7056 6.9214 41.7212 6.9214C42.6978 6.9214 43.44 7.72218 43.44 8.67921Z" fill="black" fill-opacity="0.85"/>
  <path d="M35.1196 36.648L35.1196 40.1636C35.1196 41.1206 34.3775 41.8823 33.4009 41.8823C32.4048 41.8823 31.6626 41.1206 31.6626 40.1636L31.6626 33.1909ZM35.1196 15.7691L35.1196 24.2261L31.6626 20.7691L31.6626 15.7691C31.6626 14.812 32.4048 14.0308 33.4009 14.0308C34.3775 14.0308 35.1196 14.812 35.1196 15.7691Z" fill="black" fill-opacity="0.85"/>
  <path d="M26.8189 28.3472L26.8189 51.4526C26.8189 52.4097 26.0571 53.1714 25.061 53.1714C24.0845 53.1714 23.3618 52.4097 23.3618 51.4526L23.3618 24.8901ZM26.8189 2.76124L26.8189 15.9253L23.3618 12.4683L23.3618 2.76124C23.3618 1.80421 24.0845 1.04249 25.061 1.04249C26.0571 1.04249 26.8189 1.80421 26.8189 2.76124Z" fill="black" fill-opacity="0.85"/>
  <path d="M18.4985 20.0269L18.4985 41.2964C18.4985 42.2534 17.7564 43.0151 16.7603 43.0151C15.7642 43.0151 15.0415 42.2534 15.0415 41.2964L15.0415 16.5698Z" fill="black" fill-opacity="0.85"/>
  <path d="M10.1978 22.8589L10.1978 31.355C10.1978 32.3316 9.43605 33.0933 8.43995 33.0933C7.46339 33.0933 6.7212 32.3316 6.7212 31.355L6.7212 22.8589C6.7212 21.8823 7.46339 21.1011 8.43995 21.1011C9.43605 21.1011 10.1978 21.8823 10.1978 22.8589Z" fill="black" fill-opacity="0.85"/>
  <path d="M53.2837 50.9448C53.9282 51.6089 55.0025 51.6089 55.647 50.9448C56.2915 50.2808 56.2915 49.2456 55.647 48.6011L10.2564 3.21046C9.61183 2.56593 8.53761 2.5464 7.87355 3.21046C7.24855 3.85499 7.24855 4.92921 7.87355 5.57374Z" fill="black" fill-opacity="0.85"/>
 </g>
</svg>
