<?xml version="1.0" encoding="UTF-8"?>
<!--Generator: Apple Native CoreSVG 326-->
<!DOCTYPE svg
PUBLIC "-//W3C//DTD SVG 1.1//EN"
       "http://www.w3.org/Graphics/SVG/1.1/DTD/svg11.dtd">
<svg version="1.1" xmlns="http://www.w3.org/2000/svg" xmlns:xlink="http://www.w3.org/1999/xlink" viewBox="0 0 51.25 50.918">
 <g>
  <rect height="50.918" opacity="0" width="51.25" x="0" y="0"/>
  <path d="M50.8789 25.4688C50.8789 39.4922 39.4531 50.918 25.4297 50.918C11.4258 50.918 0 39.4922 0 25.4688C0 11.4648 11.4258 0.0390625 25.4297 0.0390625C39.4531 0.0390625 50.8789 11.4648 50.8789 25.4688ZM21.4453 12.2852L21.4453 38.6133C21.4453 39.4141 22.0117 39.9805 22.8125 39.9805C23.5742 39.9805 24.1797 39.3945 24.1797 38.6133L24.1797 12.2852C24.1797 11.5039 23.5742 10.918 22.8125 10.918C22.0312 10.918 21.4453 11.5039 21.4453 12.2852ZM31.8945 16.1523L31.8945 34.7461C31.8945 35.5078 32.5 36.0938 33.2812 36.0938C34.0625 36.0938 34.6484 35.5078 34.6484 34.7461L34.6484 16.1523C34.6484 15.3906 34.0625 14.7852 33.2812 14.7852C32.5 14.7852 31.8945 15.3906 31.8945 16.1523ZM16.2109 18.3398L16.2109 32.5391C16.2109 33.3398 16.7969 33.9258 17.5781 33.9258C18.3594 33.9258 18.9453 33.3398 18.9453 32.5391L18.9453 18.3398C18.9453 17.5586 18.3594 16.9531 17.5781 16.9531C16.7969 16.9531 16.2109 17.5586 16.2109 18.3398ZM26.6797 20.6836L26.6797 30.2148C26.6797 30.9766 27.2656 31.5625 28.0273 31.5625C28.8086 31.5625 29.4141 30.9766 29.4141 30.2148L29.4141 20.6836C29.4141 19.9219 28.8086 19.3359 28.0273 19.3359C27.2656 19.3359 26.6797 19.9219 26.6797 20.6836ZM37.1484 21.7578L37.1484 29.1406C37.1484 29.9219 37.7539 30.5078 38.5352 30.5078C39.3164 30.5078 39.8828 29.9414 39.8828 29.1406L39.8828 21.7578C39.8828 20.957 39.3164 20.3711 38.5352 20.3711C37.7539 20.3711 37.1484 20.9766 37.1484 21.7578ZM10.9766 23.0078L10.9766 27.8711C10.9766 28.6523 11.582 29.2383 12.3242 29.2383C13.1055 29.2383 13.7109 28.6523 13.7109 27.8711L13.7109 23.0078C13.7109 22.2461 13.1055 21.6406 12.3242 21.6406C11.5625 21.6406 10.9766 22.2461 10.9766 23.0078Z" fill="black" fill-opacity="0.85"/>
 </g>
</svg>
