<?xml version="1.0" encoding="UTF-8"?>
<!--Generator: Apple Native CoreSVG 326-->
<!DOCTYPE svg
PUBLIC "-//W3C//DTD SVG 1.1//EN"
       "http://www.w3.org/Graphics/SVG/1.1/DTD/svg11.dtd">
<svg version="1.1" xmlns="http://www.w3.org/2000/svg" xmlns:xlink="http://www.w3.org/1999/xlink" viewBox="0 0 89.1406 40.0586">
 <g>
  <rect height="40.0586" opacity="0" width="89.1406" x="0" y="0"/>
  <path d="M26.8555 32.2852C26.8555 36.5039 23.5547 39.8242 19.3359 39.8242C15.0977 39.8242 11.7969 36.5039 11.7969 32.2852C11.7969 28.0664 15.0977 24.7656 19.3359 24.7656C23.5547 24.7656 26.8555 28.0664 26.8555 32.2852ZM76.9727 32.2852C76.9727 36.5039 73.6719 39.8242 69.4336 39.8242C65.2148 39.8242 61.8945 36.5039 61.8945 32.2852C61.8945 28.0664 65.2148 24.7656 69.4336 24.7656C73.6719 24.7656 76.9727 28.0664 76.9727 32.2852ZM77.9102 9.33594L81.9336 10.6836C86.6211 12.2266 88.7695 14.9805 88.7695 19.5117L88.7695 26.4844C88.7695 32.0508 86.3477 34.6094 81.0742 34.6094L79.4336 34.6094C79.6094 33.8477 79.707 33.0859 79.707 32.2852C79.707 26.5625 75.1758 22.0508 69.4336 22.0508C63.6914 22.0508 59.1797 26.5625 59.1797 32.2852C59.1797 33.0859 59.2773 33.8477 59.4336 34.6094L29.3164 34.6094C29.4922 33.8477 29.5898 33.0859 29.5898 32.2852C29.5898 26.5625 25.0781 22.0508 19.3359 22.0508C13.5742 22.0508 9.0625 26.5625 9.0625 32.2852C9.0625 33.0859 9.16016 33.8477 9.31641 34.6094L7.67578 34.6094C2.46094 34.6094 0 32.0898 0 26.6016L0 23.3203C0 17.5781 4.0625 13.457 10.7617 12.6172L22.0508 11.2305L32.2656 4.84375C38.3203 1.03516 42.7344 0 52.8125 0L56.4453 0C65.8594 0 72.5 4.84375 77.9102 9.33594ZM31.875 20.8203C31.4648 21.3867 31.6016 22.168 32.2461 22.6172C35.9375 25.2148 40.5469 26.6211 45.332 26.6211C50.0977 26.6211 54.707 25.2148 58.4375 22.6172C59.082 22.1875 59.2383 21.4258 58.8086 20.8203C58.3789 20.2344 57.6172 20.1172 56.9922 20.5664C53.8281 22.8516 49.707 24.1016 45.332 24.1016C41.0156 24.1016 36.8555 22.832 33.6914 20.5664C33.0469 20.1172 32.2852 20.2148 31.875 20.8203ZM53.3008 15.1172C51.1914 16.6602 48.3398 17.5391 45.332 17.5391C42.3242 17.5391 39.4922 16.6602 37.3828 15.1172C36.7188 14.668 35.9375 14.8438 35.5469 15.4102C35.1367 15.9961 35.293 16.7188 35.8789 17.1875C38.457 19.0625 41.7969 20.0977 45.332 20.0977C48.9062 20.0977 52.2656 19.0625 54.7852 17.1875C55.3906 16.7188 55.5273 15.9961 55.1367 15.4102C54.7461 14.8438 53.9453 14.668 53.3008 15.1172ZM49.5898 9.74609C48.5156 10.5469 46.9727 11.0156 45.332 11.0156C43.7695 11.0156 42.1875 10.5469 41.0938 9.74609C40.4492 9.25781 39.6484 9.375 39.1992 9.98047C38.7891 10.5664 38.9062 11.3867 39.5117 11.7773C40.9961 12.9102 43.1641 13.5742 45.332 13.5742C47.4805 13.5742 49.6289 12.9102 51.1914 11.7773C51.7578 11.3672 51.8945 10.5664 51.5039 9.98047C51.0547 9.35547 50.2344 9.23828 49.5898 9.74609Z" fill="black" fill-opacity="0.85"/>
 </g>
</svg>
