<?xml version="1.0" encoding="UTF-8"?>
<!--Generator: Apple Native CoreSVG 326-->
<!DOCTYPE svg
PUBLIC "-//W3C//DTD SVG 1.1//EN"
       "http://www.w3.org/Graphics/SVG/1.1/DTD/svg11.dtd">
<svg version="1.1" xmlns="http://www.w3.org/2000/svg" xmlns:xlink="http://www.w3.org/1999/xlink" viewBox="0 0 62.3828 58.208">
 <g>
  <rect height="58.208" opacity="0" width="62.3828" x="0" y="0"/>
  <path d="M1.54297 33.7232L9.25781 33.7232C9.84375 33.7232 10.4102 33.3716 10.5469 32.7271L11.8945 27.0044L11.1328 27.0044L15.2148 46.0669C15.5078 47.4146 17.6562 47.4341 17.8711 46.0669L21.1719 24.3091L24.9414 56.9849C25.1367 58.6255 27.4609 58.606 27.5977 56.9849L31.1133 17.6099L34.6094 56.9458C34.7461 58.5864 37.0898 58.606 37.2852 56.9458L41.0547 24.3091L44.3555 46.0864C44.5508 47.4536 46.6992 47.4536 47.0117 46.0864L51.0547 27.1021L50.2344 27.1216L51.6602 32.7271C51.8359 33.4497 52.3633 33.7232 52.9492 33.7232L60.4688 33.7232C61.3281 33.7232 62.0117 33.0591 62.0117 32.2192C62.0117 31.3599 61.3281 30.6567 60.4688 30.6567L53.9453 30.6567L51.8555 22.5708C51.4844 21.106 49.5312 21.106 49.2188 22.5708L45.8789 38.4302L42.168 14.0552C41.9336 12.4341 39.6875 12.4732 39.4922 14.0747L36.1133 43.5864L32.4609 2.33644C32.3242 0.67628 29.9023 0.67628 29.7461 2.33644L26.1133 43.5864L22.7148 14.0747C22.5195 12.4341 20.293 12.4341 20.0391 14.0552L16.3281 38.4302L12.9883 22.6099C12.6953 21.2036 10.7227 21.2036 10.3516 22.6099L8.26172 30.6567L1.54297 30.6567C0.683594 30.6567 0 31.3599 0 32.2192C0 33.0591 0.683594 33.7232 1.54297 33.7232Z" fill="black" fill-opacity="0.85"/>
 </g>
</svg>
