<?xml version="1.0" encoding="UTF-8"?>
<!--Generator: Apple Native CoreSVG 326-->
<!DOCTYPE svg
PUBLIC "-//W3C//DTD SVG 1.1//EN"
       "http://www.w3.org/Graphics/SVG/1.1/DTD/svg11.dtd">
<svg version="1.1" xmlns="http://www.w3.org/2000/svg" xmlns:xlink="http://www.w3.org/1999/xlink" viewBox="0 0 59.2717 36.4585">
 <g>
  <rect height="36.4585" opacity="0" width="59.2717" x="0" y="0"/>
  <path d="M29.4503 1.01246C18.9815 1.01246 9.17685 4.27418 0.973722 10.114C-1.25284 11.7156 0.739347 14.7429 2.94638 13.1414C10.5831 7.63356 19.7237 4.68434 29.4503 4.68434C39.1964 4.68434 48.337 7.63356 55.9737 13.1414C58.2198 14.782 60.0948 11.6375 57.9464 10.114C49.7433 4.25465 39.9386 1.01246 29.4503 1.01246Z" fill="black" fill-opacity="0.85"/>
  <path d="M29.4503 14.5672C21.6573 14.5672 14.3331 17.0281 8.337 21.4812C6.07138 23.1609 8.25888 26.1492 10.3487 24.5476C15.7979 20.4265 22.3995 18.239 29.4503 18.239C36.5011 18.239 43.1222 20.4265 48.5714 24.5476C50.6612 26.1492 52.8487 23.1609 50.5831 21.4812C44.587 17.0281 37.2628 14.5672 29.4503 14.5672Z" fill="black" fill-opacity="0.85"/>
  <path d="M29.4503 28.1023C24.3331 28.1023 19.5479 29.8797 15.8565 33.0437C13.7667 34.8015 16.13 37.3992 17.8097 36.0711C21.5206 33.0632 24.9581 31.7742 29.4503 31.7742C33.962 31.7742 37.3604 33.0632 41.0909 36.0906C42.7901 37.4187 45.212 34.8601 43.0636 33.0437C39.3722 29.8797 34.587 28.1023 29.4503 28.1023Z" fill="black" fill-opacity="0.85"/>
 </g>
</svg>
