<?xml version="1.0" encoding="UTF-8"?>
<!--Generator: Apple Native CoreSVG 326-->
<!DOCTYPE svg
PUBLIC "-//W3C//DTD SVG 1.1//EN"
       "http://www.w3.org/Graphics/SVG/1.1/DTD/svg11.dtd">
<svg version="1.1" xmlns="http://www.w3.org/2000/svg" xmlns:xlink="http://www.w3.org/1999/xlink" viewBox="0 0 35.8203 58.9124">
 <g>
  <rect height="58.9124" opacity="0" width="35.8203" x="0" y="0"/>
  <path d="M0 29.466C0 39.9152 3.26172 49.7394 9.10156 57.9425C10.7031 60.1691 13.7305 58.1574 12.1289 55.9699C6.64062 48.3331 3.69141 39.1925 3.69141 29.466C3.69141 19.7199 6.62109 10.5792 12.1289 2.94252C13.7695 0.696424 10.6445-1.17858 9.10156 0.95033C3.24219 9.17299 0 18.9777 0 29.466Z" fill="black" fill-opacity="0.85"/>
  <path d="M13.5742 29.466C13.5742 37.2394 16.0156 44.5831 20.4688 50.5792C22.168 52.8449 25.1367 50.6574 23.5352 48.5675C19.4336 43.1183 17.2461 36.5167 17.2461 29.466C17.2461 22.4152 19.4336 15.7941 23.5352 10.3449C25.1367 8.25502 22.168 6.04799 20.4688 8.33314C16.0156 14.3292 13.5742 21.6535 13.5742 29.466Z" fill="black" fill-opacity="0.85"/>
  <path d="M27.1094 29.466C27.1094 34.5831 28.8672 39.3683 32.0508 43.0597C33.8086 45.1495 36.3867 42.7863 35.0586 41.1066C32.0508 37.3956 30.7812 33.9581 30.7812 29.466C30.7812 24.9542 32.0508 21.5363 35.0781 17.8253C36.4258 16.1261 33.8477 13.7042 32.0508 15.8527C28.8672 19.5441 27.1094 24.3292 27.1094 29.466Z" fill="black" fill-opacity="0.85"/>
 </g>
</svg>
