<?xml version="1.0" encoding="UTF-8"?>
<!--Generator: Apple Native CoreSVG 326-->
<!DOCTYPE svg
PUBLIC "-//W3C//DTD SVG 1.1//EN"
       "http://www.w3.org/Graphics/SVG/1.1/DTD/svg11.dtd">
<svg version="1.1" xmlns="http://www.w3.org/2000/svg" xmlns:xlink="http://www.w3.org/1999/xlink" viewBox="0 0 51.25 50.918">
 <g>
  <rect height="50.918" opacity="0" width="51.25" x="0" y="0"/>
  <path d="M50.8789 25.4688C50.8789 39.4922 39.4531 50.918 25.4297 50.918C11.4258 50.918 0 39.4922 0 25.4688C0 11.4648 11.4258 0.0390625 25.4297 0.0390625C39.4531 0.0390625 50.8789 11.4648 50.8789 25.4688ZM19.7656 9.10156C16.5234 13.7695 14.7852 19.5117 14.7852 25.4492C14.7852 31.4062 16.5234 37.168 19.7656 41.7969C20.3125 42.5586 21.25 42.7344 21.9336 42.2461C22.6562 41.7188 22.7734 40.8008 22.2656 40.0586C19.3945 36.0742 17.8125 30.8789 17.8125 25.4492C17.8125 19.9805 19.375 14.8242 22.2656 10.8398C22.7734 10.0977 22.6562 9.17969 21.9336 8.65234C21.2305 8.14453 20.293 8.32031 19.7656 9.10156ZM26.582 13.6523C24.2188 16.8164 22.9297 20.9961 22.9297 25.4492C22.9297 29.8438 24.2188 34.0234 26.582 37.2461C27.1289 37.9688 28.0078 38.1445 28.7109 37.6367C29.3945 37.168 29.5898 36.2109 29.043 35.4297C27.1094 32.793 25.9961 29.2188 25.9961 25.4492C25.9961 21.6797 27.1094 18.1055 29.043 15.4688C29.5898 14.6875 29.3945 13.7305 28.7109 13.2617C28.0078 12.7539 27.1289 12.9297 26.582 13.6523ZM33.3203 18.1836C31.9141 20.1172 31.0938 22.793 31.0938 25.4492C31.0938 28.1641 31.9141 30.8594 33.3203 32.6953C33.8086 33.3984 34.7656 33.5742 35.4492 33.0859C36.2305 32.5195 36.3477 31.582 35.7812 30.7812C34.7656 29.4141 34.1602 27.4414 34.1602 25.4492C34.1602 23.418 34.7656 21.4453 35.7812 20.1172C36.3672 19.3164 36.25 18.3398 35.4492 17.793C34.7656 17.3242 33.8281 17.5 33.3203 18.1836Z" fill="black" fill-opacity="0.85"/>
 </g>
</svg>
