<?xml version="1.0" encoding="UTF-8"?>
<!--Generator: Apple Native CoreSVG 326-->
<!DOCTYPE svg
PUBLIC "-//W3C//DTD SVG 1.1//EN"
       "http://www.w3.org/Graphics/SVG/1.1/DTD/svg11.dtd">
<svg version="1.1" xmlns="http://www.w3.org/2000/svg" xmlns:xlink="http://www.w3.org/1999/xlink" viewBox="0 0 35.814 58.9124">
 <g>
  <rect height="58.9124" opacity="0" width="35.814" x="0" y="0"/>
  <path d="M35.4461 29.466C35.4461 18.9777 32.2039 9.17299 26.3445 0.95033C24.8015-1.17858 21.6765 0.696424 23.3172 2.94252C28.825 10.5792 31.7742 19.7199 31.7742 29.466C31.7742 39.1925 28.8054 48.3331 23.3172 55.9699C21.7156 58.1574 24.7429 60.1691 26.3445 57.9425C32.1843 49.7394 35.4461 39.9152 35.4461 29.466Z" fill="black" fill-opacity="0.85"/>
  <path d="M21.8718 29.466C21.8718 21.6535 19.4304 14.3292 14.9773 8.33314C13.2781 6.04799 10.3093 8.25502 11.9109 10.3449C16.0125 15.7941 18.2 22.4152 18.2 29.466C18.2 36.5167 16.0125 43.1183 11.9109 48.5675C10.3093 50.6574 13.2781 52.8449 14.9773 50.5792C19.4304 44.5831 21.8718 37.2394 21.8718 29.466Z" fill="black" fill-opacity="0.85"/>
  <path d="M8.33668 29.466C8.33668 24.3292 6.57887 19.5441 3.41481 15.8527C1.5984 13.7042-0.960192 16.1261 0.367933 17.8253C3.39528 21.5363 4.66481 24.9542 4.66481 29.466C4.66481 33.9581 3.39528 37.3956 0.387464 41.1066C-0.940661 42.7863 1.63746 45.1495 3.41481 43.0597C6.57887 39.3683 8.33668 34.5831 8.33668 29.466Z" fill="black" fill-opacity="0.85"/>
 </g>
</svg>
