<?xml version="1.0" encoding="UTF-8"?>
<!--Generator: Apple Native CoreSVG 326-->
<!DOCTYPE svg
PUBLIC "-//W3C//DTD SVG 1.1//EN"
       "http://www.w3.org/Graphics/SVG/1.1/DTD/svg11.dtd">
<svg version="1.1" xmlns="http://www.w3.org/2000/svg" xmlns:xlink="http://www.w3.org/1999/xlink" viewBox="0 0 95.3516 40.0977">
 <g>
  <rect height="40.0977" opacity="0" width="95.3516" x="0" y="0"/>
  <path d="M25.5859 32.5195C25.5859 36.3477 22.5586 39.3555 18.7305 39.3555C14.9414 39.3555 11.8945 36.3281 11.8945 32.5195C11.8945 28.7109 14.9414 25.6836 18.7305 25.6836C22.5391 25.6836 25.5859 28.7109 25.5859 32.5195ZM78.5352 32.5195C78.5352 36.3281 75.5078 39.3555 71.6992 39.3555C67.8906 39.3555 64.8633 36.3281 64.8633 32.5195C64.8633 28.7305 67.9102 25.6836 71.6992 25.6836C75.5078 25.6836 78.5352 28.7109 78.5352 32.5195ZM67.3047 7.12891L67.9102 12.4414L88.8867 12.4414C92.7344 12.4414 94.9805 14.7461 94.9805 18.6914L94.9805 28.4961C94.9805 32.4414 92.7344 34.7461 88.8867 34.7461L80.9766 34.7461C81.1523 34.0234 81.2695 33.3008 81.2695 32.5195C81.2695 27.2266 77.0117 22.9688 71.6992 22.9688C66.4258 22.9688 62.1484 27.2461 62.1484 32.5195C62.1484 33.3008 62.2461 34.0234 62.4219 34.7461L28.0469 34.7461C28.2031 34.043 28.3008 33.3008 28.3008 32.5195C28.3008 27.2266 24.043 22.9688 18.7305 22.9688C13.4375 22.9688 9.17969 27.2266 9.17969 32.5195C9.17969 33.3008 9.27734 34.0234 9.45312 34.7461L6.07422 34.7461C2.24609 34.7461 0 32.4414 0 28.4961L0 22.832C0 16.9336 3.49609 13.6328 11.1133 12.5195L20.5078 11.1523L30.8789 4.60938C36.3672 1.17188 41.0547 0 49.2188 0L59.3945 0C64.0625 0 66.7578 2.42188 67.3047 7.12891ZM32.4805 20.5664C32.0703 21.1328 32.207 21.9141 32.8516 22.3633C36.543 24.9805 41.1523 26.3672 45.9375 26.3672C50.7031 26.3672 55.3125 24.9805 59.043 22.3633C59.6875 21.9336 59.8438 21.1719 59.4141 20.5664C58.9844 19.9805 58.2227 19.8633 57.5977 20.3125C54.4336 22.5977 50.3125 23.8477 45.9375 23.8477C41.6211 23.8477 37.4609 22.5781 34.2969 20.3125C33.6523 19.8633 32.8906 19.9609 32.4805 20.5664ZM53.9062 14.8633C51.7969 16.4258 48.9453 17.3047 45.9375 17.3047C42.9297 17.3047 40.0977 16.4258 37.9883 14.8633C37.3242 14.4141 36.5625 14.5898 36.1523 15.1562C35.7422 15.7422 35.8984 16.4648 36.4844 16.9336C39.0625 18.8086 42.4023 19.8438 45.9375 19.8438C49.5117 19.8438 52.8711 18.8086 55.3906 16.9336C55.9961 16.4648 56.1328 15.7422 55.7422 15.1562C55.3516 14.5898 54.5508 14.4141 53.9062 14.8633ZM50.1953 9.49219C49.1211 10.293 47.5781 10.7617 45.9375 10.7617C44.375 10.7617 42.8125 10.293 41.6992 9.49219C41.0547 9.00391 40.2539 9.14062 39.8047 9.74609C39.3945 10.332 39.5117 11.1328 40.1172 11.5234C41.6016 12.6562 43.7695 13.3203 45.9375 13.3203C48.0859 13.3203 50.2344 12.6562 51.7969 11.5234C52.3633 11.1133 52.5 10.332 52.1094 9.74609C51.6602 9.12109 50.8398 8.98438 50.1953 9.49219Z" fill="black" fill-opacity="0.85"/>
 </g>
</svg>
