<?xml version="1.0" encoding="UTF-8"?>
<!--Generator: Apple Native CoreSVG 326-->
<!DOCTYPE svg
PUBLIC "-//W3C//DTD SVG 1.1//EN"
       "http://www.w3.org/Graphics/SVG/1.1/DTD/svg11.dtd">
<svg version="1.1" xmlns="http://www.w3.org/2000/svg" xmlns:xlink="http://www.w3.org/1999/xlink" viewBox="0 0 59.5508 45.918">
 <g>
  <rect height="45.918" opacity="0" width="59.5508" x="0" y="0"/>
  <path d="M7.59766 45.918L51.5625 45.918C56.6211 45.918 59.1797 43.3594 59.1797 38.3984L59.1797 7.53906C59.1797 2.55859 56.6211 0 51.5625 0L7.59766 0C2.55859 0 0 2.53906 0 7.53906L0 38.3984C0 43.3984 2.55859 45.918 7.59766 45.918ZM7.67578 42.4609C4.94141 42.4609 3.45703 41.0156 3.45703 38.2031L3.45703 7.71484C3.45703 4.92188 4.94141 3.45703 7.67578 3.45703L51.5039 3.45703C54.1797 3.45703 55.7031 4.92188 55.7031 7.71484L55.7031 38.2031C55.7031 41.0156 54.1797 42.4609 51.5039 42.4609Z" fill="black" fill-opacity="0.85"/>
  <path d="M3.47656 24.9609L9.35547 24.9609C10.2734 24.9609 10.6836 24.5508 11.0352 23.7109L14.5898 15.1172L20.8984 34.9219C21.2891 36.1523 23.2422 36.1133 23.6523 34.8633L26.8359 24.9609L33.1055 24.9609C34.0234 24.9609 34.4336 24.5508 34.7852 23.7109L38.4375 15.1172L44.7461 34.9219C45.1367 36.1523 47.0898 36.1133 47.5 34.8633L50.6836 24.9609L55.7227 24.9609L55.7227 22.1289L49.9414 22.1289C49.043 22.1289 48.5547 22.5586 48.2617 23.3594L46.0742 29.6289L39.7852 10.6445C39.3945 9.45312 37.5781 9.39453 37.0508 10.7031L32.3633 22.1289L26.0938 22.1289C25.1953 22.1289 24.707 22.5586 24.4141 23.3594L22.2266 29.6289L15.9375 10.6445C15.5469 9.45312 13.7305 9.39453 13.2031 10.7031L8.51562 22.1289L3.47656 22.1289Z" fill="black" fill-opacity="0.85"/>
 </g>
</svg>
