<?xml version="1.0" encoding="UTF-8"?>
<!--Generator: Apple Native CoreSVG 326-->
<!DOCTYPE svg
PUBLIC "-//W3C//DTD SVG 1.1//EN"
       "http://www.w3.org/Graphics/SVG/1.1/DTD/svg11.dtd">
<svg version="1.1" xmlns="http://www.w3.org/2000/svg" xmlns:xlink="http://www.w3.org/1999/xlink" viewBox="0 0 51.25 50.918">
 <g>
  <rect height="50.918" opacity="0" width="51.25" x="0" y="0"/>
  <path d="M25.4297 50.8789C39.4727 50.8789 50.8789 39.4922 50.8789 25.4492C50.8789 11.4062 39.4727 0 25.4297 0C11.3867 0 0 11.4062 0 25.4492C0 39.4922 11.3867 50.8789 25.4297 50.8789ZM25.4297 47.2461C13.3789 47.2461 3.63281 37.5 3.63281 25.4492C3.63281 13.3984 13.3789 3.65234 25.4297 3.65234C37.4805 3.65234 47.2266 13.3984 47.2266 25.4492C47.2266 37.5 37.4805 47.2461 25.4297 47.2461Z" fill="black" fill-opacity="0.85"/>
  <path d="M15.0195 25.4102C15.0195 31.25 16.7188 36.875 19.8828 41.3867C20.4297 42.1094 21.3281 42.2852 21.9922 41.8164C22.6953 41.3086 22.8125 40.4102 22.3047 39.6875C19.5117 35.8203 17.9492 30.7227 17.9492 25.4102C17.9492 20.0781 19.4922 15.0195 22.3047 11.1523C22.8125 10.4297 22.6953 9.53125 21.9922 9.02344C21.3086 8.51562 20.4102 8.71094 19.8828 9.45312C16.7188 14.0039 15.0195 19.6094 15.0195 25.4102Z" fill="black" fill-opacity="0.85"/>
  <path d="M22.9883 25.4102C22.9883 29.707 24.2383 33.7891 26.543 36.9336C27.0508 37.6367 27.9297 37.793 28.6133 37.3047C29.2773 36.8555 29.4531 35.9375 28.9258 35.1758C27.0312 32.5977 25.957 29.1016 25.957 25.4102C25.957 21.7188 27.0312 18.2422 28.9258 15.6445C29.4531 14.9023 29.2773 13.9844 28.6133 13.5352C27.9297 13.0273 27.0508 13.2031 26.543 13.9062C24.2383 16.9922 22.9883 21.0547 22.9883 25.4102Z" fill="black" fill-opacity="0.85"/>
  <path d="M30.957 25.4102C30.957 28.0664 31.7578 30.6836 33.125 32.4805C33.6133 33.1641 34.5312 33.3398 35.1953 32.8906C35.957 32.3438 36.0547 31.4258 35.5078 30.625C34.5117 29.2969 33.9258 27.3633 33.9258 25.4102C33.9258 23.418 34.5117 21.5039 35.5078 20.2148C36.0742 19.4141 35.9766 18.4766 35.1953 17.9297C34.5312 17.5 33.6328 17.6758 33.125 18.3398C31.7578 20.2148 30.957 22.832 30.957 25.4102Z" fill="black" fill-opacity="0.85"/>
 </g>
</svg>
