<?xml version="1.0" encoding="UTF-8"?>
<!--Generator: Apple Native CoreSVG 326-->
<!DOCTYPE svg
PUBLIC "-//W3C//DTD SVG 1.1//EN"
       "http://www.w3.org/Graphics/SVG/1.1/DTD/svg11.dtd">
<svg version="1.1" xmlns="http://www.w3.org/2000/svg" xmlns:xlink="http://www.w3.org/1999/xlink" viewBox="0 0 40.1758 49.9414">
 <g>
  <rect height="49.9414" opacity="0" width="40.1758" x="0" y="0"/>
  <path d="M39.8047 19.9023C39.8047 30.3291 31.8253 38.8659 21.6602 39.7364L21.6602 46.4453L28.5742 46.4453C29.5312 46.4453 30.3125 47.2266 30.3125 48.1836C30.3125 49.1211 29.5312 49.9023 28.5742 49.9023L11.25 49.9023C10.3125 49.9023 9.53125 49.1211 9.53125 48.1836C9.53125 47.2266 10.3125 46.4453 11.2695 46.4453L18.1836 46.4453L18.1836 39.7365C7.99855 38.8676 0 30.3301 0 19.9023C0 8.90625 8.92578 0 19.9219 0C30.8984 0 39.8047 8.90625 39.8047 19.9023ZM8.10547 19.9023C8.10547 26.5234 13.3203 31.7383 19.9219 31.7383C26.5234 31.7383 31.6992 26.5234 31.6992 19.9023C31.6992 13.3203 26.5234 8.08594 19.9219 8.08594C13.3203 8.08594 8.10547 13.3203 8.10547 19.9023ZM25.3906 19.9023C25.3906 22.9883 22.9883 25.4297 19.9219 25.4297C16.8555 25.4297 14.4141 22.9883 14.4141 19.9023C14.4141 16.8359 16.8555 14.4141 19.9219 14.4141C22.9883 14.4141 25.3906 16.8359 25.3906 19.9023Z" fill="black" fill-opacity="0.85"/>
 </g>
</svg>
