<?xml version="1.0" encoding="UTF-8"?>
<!--Generator: Apple Native CoreSVG 326-->
<!DOCTYPE svg
PUBLIC "-//W3C//DTD SVG 1.1//EN"
       "http://www.w3.org/Graphics/SVG/1.1/DTD/svg11.dtd">
<svg version="1.1" xmlns="http://www.w3.org/2000/svg" xmlns:xlink="http://www.w3.org/1999/xlink" viewBox="0 0 76.5234 46.9727">
 <g>
  <rect height="46.9727" opacity="0" width="76.5234" x="0" y="0"/>
  <path d="M13.1445 46.9727L63.0273 46.9727C67.5 46.9727 70.8789 46.5039 73.3008 44.082C75.7227 41.6602 76.1523 38.3203 76.1523 33.8281L76.1523 13.1445C76.1523 8.67188 75.7227 5.33203 73.3008 2.91016C70.8789 0.488281 67.5 0.0195312 63.0273 0.0195312L13.1445 0.0195312C8.67188 0.0195312 5.29297 0.488281 2.85156 2.91016C0.429688 5.3125 0 8.67188 0 13.1445L0 33.8281C0 38.3203 0.429688 41.6602 2.85156 44.082C5.29297 46.5039 8.67188 46.9727 13.1445 46.9727ZM12.4609 43.4961C9.62891 43.4961 6.93359 43.0664 5.39062 41.543C3.86719 40 3.45703 37.3438 3.45703 34.5117L3.45703 12.4609C3.45703 9.62891 3.86719 6.97266 5.39062 5.44922C6.93359 3.90625 9.62891 3.47656 12.4609 3.47656L63.7109 3.47656C66.543 3.47656 69.2188 3.88672 70.7617 5.44922C72.2852 6.97266 72.6953 9.62891 72.6953 12.4609L72.6953 34.5117C72.6953 37.3438 72.2852 40 70.7617 41.543C69.2188 43.0859 66.543 43.4961 63.7109 43.4961Z" fill="black" fill-opacity="0.85"/>
  <path d="M11.7969 19.0234L17.2656 19.0234C19.4531 19.0234 20.957 17.5195 20.957 15.332L20.957 11.4648C20.957 9.27734 19.4531 7.77344 17.2656 7.77344L11.7969 7.77344C9.60938 7.77344 8.08594 9.27734 8.08594 11.4648L8.08594 15.332C8.08594 17.5195 9.60938 19.0234 11.7969 19.0234ZM10.2148 38.3594L65.9375 38.3594C66.6992 38.3594 67.3047 37.7539 67.3047 36.9922C67.3047 36.25 66.6992 35.6445 65.9375 35.6445L10.2148 35.6445C9.47266 35.6445 8.84766 36.25 8.84766 36.9922C8.84766 37.7539 9.47266 38.3594 10.2148 38.3594Z" fill="black" fill-opacity="0.85"/>
 </g>
</svg>
