<?xml version="1.0" encoding="UTF-8"?>
<!--Generator: Apple Native CoreSVG 326-->
<!DOCTYPE svg
PUBLIC "-//W3C//DTD SVG 1.1//EN"
       "http://www.w3.org/Graphics/SVG/1.1/DTD/svg11.dtd">
<svg version="1.1" xmlns="http://www.w3.org/2000/svg" xmlns:xlink="http://www.w3.org/1999/xlink" viewBox="0 0 86.158 50.8008">
 <g>
  <rect height="50.8008" opacity="0" width="86.158" x="0" y="0"/>
  <path d="M83.8505 38.9844C83.8505 40.5273 82.5028 41.8555 80.8817 41.8555C79.2606 41.8555 77.913 40.5273 77.913 38.9844C77.913 37.3828 79.2411 36.0938 80.8817 36.0938C82.5224 36.0938 83.8505 37.3828 83.8505 38.9844ZM83.1474 11.1523L82.7177 29.1406C82.6786 30.2148 81.9169 30.9766 80.8817 30.9766C79.827 30.9766 79.0849 30.2148 79.0458 29.1406L78.6161 11.1523C78.577 9.78516 79.4755 8.88672 80.8817 8.88672C82.288 8.88672 83.1864 9.78516 83.1474 11.1523Z" fill="black" fill-opacity="0.85"/>
  <path d="M70.7841 12.3633C72.7177 13.8477 72.9911 15.918 71.4677 17.8906L54.6317 39.4141C53.8895 40.3711 52.6395 40.6055 51.5067 40.0195C47.1317 37.793 41.37 36.3086 36.2138 36.3086C35.1714 36.3086 34.1032 36.3697 33.0235 36.5005L31.1388 33.2823C32.8825 32.9965 34.5844 32.8516 36.2138 32.8516C41.0184 32.8516 46.4286 34.1016 51.6044 36.2305C52.2099 36.4648 52.5224 36.4453 53.0302 35.8203L68.0302 16.6406C68.5184 15.9766 68.4403 15.3711 67.7567 14.9023C59.1825 9.41406 47.6981 6.21094 36.2138 6.21094C29.6423 6.21094 23.0643 7.2633 17.0504 9.2257L15.1124 5.91662C21.4236 3.95394 28.7764 2.75391 36.2138 2.75391C50.0809 2.75391 63.6356 6.91406 70.7841 12.3633ZM13.7155 10.406C10.4589 11.6323 7.42643 13.151 4.69032 14.9023C4.00673 15.3711 3.9286 15.9766 4.41688 16.6406L19.4169 35.8203C19.9247 36.4453 20.2372 36.4648 20.8427 36.2305C23.0568 35.3197 25.3139 34.5699 27.545 34.0218L29.3469 37.0988C26.3415 37.7353 23.4185 38.7583 20.9403 40.0195C19.8075 40.6055 18.5575 40.3711 17.8153 39.4141L0.979383 17.8906C-0.544055 15.918-0.270617 13.8477 1.66298 12.3633C4.27084 10.3753 7.73132 8.55892 11.7544 7.05715Z" fill="black" fill-opacity="0.85"/>
  <path d="M32.7958 42.9883L35.8622 41.3477L12.288 1.09375C11.8388 0.292969 10.8427-0.0585938 9.8661 0.449219C8.9872 0.898438 8.79188 2.01172 9.28016 2.83203ZM36.2138 50.8008C39.163 50.8008 41.6044 48.3789 41.6044 45.4297C41.6044 42.4414 39.1825 40.0195 36.2138 40.0195C33.2645 40.0195 30.8231 42.4414 30.8231 45.4297C30.8231 48.3789 33.245 50.8008 36.2138 50.8008ZM36.2138 47.9102C34.827 47.9102 33.7138 46.7969 33.7138 45.4297C33.7138 44.0234 34.827 42.8711 36.2138 42.8711C37.5809 42.8711 38.7528 44.043 38.7528 45.4297C38.7528 46.7969 37.6005 47.9102 36.2138 47.9102Z" fill="black" fill-opacity="0.85"/>
 </g>
</svg>
