<?xml version="1.0" encoding="UTF-8"?>
<!--Generator: Apple Native CoreSVG 326-->
<!DOCTYPE svg
PUBLIC "-//W3C//DTD SVG 1.1//EN"
       "http://www.w3.org/Graphics/SVG/1.1/DTD/svg11.dtd">
<svg version="1.1" xmlns="http://www.w3.org/2000/svg" xmlns:xlink="http://www.w3.org/1999/xlink" viewBox="0 0 51.25 50.918">
 <g>
  <rect height="50.918" opacity="0" width="51.25" x="0" y="0"/>
  <path d="M50.8789 25.4688C50.8789 39.4922 39.4531 50.918 25.4297 50.918C11.4258 50.918 0 39.4922 0 25.4688C0 11.4648 11.4258 0.0390625 25.4297 0.0390625C39.4531 0.0390625 50.8789 11.4648 50.8789 25.4688ZM8.90625 31.8555C8.22266 32.1289 7.87109 32.7539 8.125 33.3203C8.28125 33.9453 8.92578 34.3164 9.66797 34.0625C12.207 33.125 15.1172 32.5977 18.0469 32.5977C23.7891 32.5977 26.6992 34.0039 26.6992 36.25C26.6992 37.6367 25.7812 38.4375 24.5703 38.4375C23.3594 38.4375 22.6562 37.7344 22.4609 36.4062C22.3633 35.7812 21.875 35.2344 21.1523 35.293C20.293 35.332 19.9805 36.0547 20.0781 36.7188C20.3516 39.0234 22.0898 40.7617 24.5703 40.7617C27.0703 40.7617 29.0234 38.9062 29.0234 36.25C29.0234 32.3828 25.0781 30.2734 18.0469 30.2734C15 30.2734 11.6602 30.8984 8.90625 31.8555ZM34.707 34.6484L34.7461 34.8633L34.5898 34.6875C34.4922 34.6094 34.2773 34.6484 34.2383 34.8047C34.1992 34.8633 34.1406 35.0781 34.3164 35.1953L34.5117 35.2539L34.3164 35.293C34.1406 35.3711 34.1797 35.5859 34.2188 35.7031C34.2383 35.8398 34.4922 35.8984 34.5898 35.8203L34.7461 35.6641L34.7266 35.8398C34.707 35.957 34.8242 36.1133 35 36.1133C35.1367 36.1133 35.2734 35.957 35.2539 35.8398L35.1953 35.6641L35.332 35.8203C35.4102 35.8789 35.6641 35.8203 35.7031 35.7422C35.8008 35.625 35.7812 35.3516 35.625 35.293L35.4102 35.2539L35.625 35.1758C35.8008 35.0781 35.7422 34.9219 35.7422 34.8047C35.6836 34.668 35.4297 34.6094 35.332 34.6875L35.1953 34.8633L35.2539 34.668C35.2734 34.5117 35.1367 34.375 35 34.375C34.8242 34.375 34.6875 34.5117 34.707 34.6484ZM29.8242 23.0469C29.6875 23.7695 30.1758 24.375 30.7812 24.4531C31.4258 24.5312 32.0117 24.1016 32.1289 23.3398C32.3633 21.6797 33.6719 20.5078 35.3711 20.5078C37.2852 20.5078 38.7695 21.8945 38.7695 23.9062C38.7695 25.9766 37.1875 27.3242 34.5898 27.3242C29.7656 27.3242 24.5312 24.5508 18.0664 24.5508C14.7656 24.5508 11.7188 25.1562 8.88672 26.1719C8.20312 26.4062 7.89062 27.0703 8.125 27.6562C8.28125 28.2812 8.92578 28.6328 9.66797 28.3789C12.207 27.3242 14.9023 26.9141 18.0664 26.9141C24.3359 26.9141 29.1797 29.668 34.5898 29.668C38.4375 29.668 41.0938 27.2656 41.0938 23.9062C41.0938 20.625 38.5352 18.1641 35.3711 18.1641C32.4219 18.1641 30.1562 20.293 29.8242 23.0469ZM20.4883 15.5078C20.2344 16.0547 20.3906 16.7773 21.0547 17.0312C21.6211 17.2852 22.2852 17.0703 22.5977 16.3867C22.9297 15.5273 23.7109 14.8633 24.7656 14.8633C26.0352 14.8633 26.9727 15.7227 26.9727 17.1289C26.9727 18.5156 26.0547 19.3945 24.5508 19.3945C21.7969 19.3945 19.668 18.8477 16.4844 18.8477C13.8867 18.8477 11.25 19.3945 8.90625 20.1953C8.18359 20.4102 7.89062 21.0547 8.125 21.6602C8.28125 22.2852 8.92578 22.6172 9.64844 22.3828C11.875 21.6016 14.1992 21.2109 16.4844 21.2109C19.5117 21.2109 21.6602 21.6992 24.5508 21.6992C27.4219 21.6992 29.3164 19.7266 29.3164 17.1289C29.3164 14.4922 27.2656 12.5391 24.7656 12.5391C22.7734 12.5391 21.0742 13.8281 20.4883 15.5078ZM34.707 10.2539L34.8047 11.8945L33.418 10.9766C33.1055 10.7422 32.6562 10.7812 32.4805 11.1719C32.2656 11.4648 32.3828 11.9141 32.793 12.1484L34.2188 12.8906L32.793 13.5938C32.3438 13.8086 32.2852 14.2578 32.4414 14.5703C32.6172 14.9609 33.1055 15.0391 33.418 14.8242L34.8047 13.8867L34.7266 15.5273C34.707 15.9375 34.9805 16.2891 35.3906 16.2891C35.8008 16.2891 36.0547 15.9375 36.0352 15.5273L35.9766 13.8867L37.3242 14.8242C37.6367 15.0195 38.1055 14.9219 38.3008 14.6094C38.5352 14.2969 38.3984 13.8086 37.9688 13.5938L36.5625 12.8906L37.9688 12.1289C38.3789 11.9141 38.5156 11.5039 38.3203 11.1719C38.1445 10.8203 37.6367 10.7422 37.3242 10.9766L35.9766 11.8945L36.0352 10.2734C36.0547 9.82422 35.8008 9.49219 35.3906 9.49219C34.9805 9.49219 34.6875 9.82422 34.707 10.2539Z" fill="black" fill-opacity="0.85"/>
 </g>
</svg>
