<?xml version="1.0" encoding="UTF-8"?>
<!--Generator: Apple Native CoreSVG 326-->
<!DOCTYPE svg
PUBLIC "-//W3C//DTD SVG 1.1//EN"
       "http://www.w3.org/Graphics/SVG/1.1/DTD/svg11.dtd">
<svg version="1.1" xmlns="http://www.w3.org/2000/svg" xmlns:xlink="http://www.w3.org/1999/xlink" viewBox="0 0 42.6172 52.9102">
 <g>
  <rect height="52.9102" opacity="0" width="42.6172" x="0" y="0"/>
  <path d="M0 48.3203C0 51.0352 1.875 52.8711 4.6875 52.8711L37.5781 52.8711C40.3906 52.8711 42.2461 51.0352 42.2461 48.3203L42.2461 4.57031C42.2461 1.83594 40.3906 0 37.5781 0L4.6875 0C1.875 0 0 1.83594 0 4.57031ZM3.47656 48.0664L3.47656 4.80469C3.47656 4.00391 3.98438 3.47656 4.74609 3.47656L37.5 3.47656C38.2617 3.47656 38.7891 4.00391 38.7891 4.80469L38.7891 48.0664C38.7891 48.8672 38.2617 49.4141 37.5 49.4141L4.74609 49.4141C3.98438 49.4141 3.47656 48.8672 3.47656 48.0664Z" fill="black" fill-opacity="0.85"/>
  <path d="M6.93359 14.7656L35.332 14.7656C35.7422 14.7656 36.0547 14.4336 36.0547 14.0234L36.0547 6.93359C36.0547 6.52344 35.7422 6.19141 35.332 6.19141L6.93359 6.19141C6.52344 6.19141 6.19141 6.52344 6.19141 6.93359L6.19141 14.0234C6.19141 14.4336 6.52344 14.7656 6.93359 14.7656ZM17.168 11.6406C16.4844 11.6406 15.9961 11.1523 15.9961 10.4688C15.9961 9.78516 16.4844 9.31641 17.168 9.31641L25.0977 9.31641C25.7812 9.31641 26.25 9.78516 26.25 10.4688C26.25 11.1523 25.7812 11.6406 25.0977 11.6406Z" fill="black" fill-opacity="0.85"/>
 </g>
</svg>
