<?xml version="1.0" encoding="UTF-8"?>
<!--Generator: Apple Native CoreSVG 326-->
<!DOCTYPE svg
PUBLIC "-//W3C//DTD SVG 1.1//EN"
       "http://www.w3.org/Graphics/SVG/1.1/DTD/svg11.dtd">
<svg version="1.1" xmlns="http://www.w3.org/2000/svg" xmlns:xlink="http://www.w3.org/1999/xlink" viewBox="0 0 61.6406 47.793">
 <g>
  <rect height="47.793" opacity="0" width="61.6406" x="0" y="0"/>
  <path d="M61.2695 21.4453L61.2695 40.2734C61.2695 45.2344 58.7305 47.793 53.6719 47.793L7.59766 47.793C2.55859 47.793 0 45.2539 0 40.2734L0 21.4453C0 16.4453 2.55859 13.9258 7.59766 13.9258L25.8008 13.9258L25.8008 17.3828L7.67578 17.3828C4.94141 17.3828 3.45703 18.8281 3.45703 21.6406L3.45703 31.3399C5.49776 31.0122 7.15472 30.0961 8.28125 28.8086C8.82812 28.1641 9.41406 28.1836 9.98047 28.8086C11.4844 30.5273 13.7891 31.5039 16.2891 31.5039C18.7891 31.5039 21.0938 30.5273 22.5977 28.8086C23.1445 28.1836 23.75 28.1641 24.2969 28.8086C24.7221 29.3037 25.2289 29.7432 25.8008 30.1147L25.8008 32.8125C25.8008 35.4688 27.9688 37.6562 30.6445 37.6562C33.3008 37.6562 35.4883 35.4688 35.4883 32.8125L35.4883 30.1065C36.0576 29.7369 36.5643 29.3001 36.9922 28.8086C37.5195 28.1641 38.125 28.1836 38.6719 28.8086C40.1758 30.5273 42.4805 31.5039 44.9805 31.5039C47.5 31.5039 49.7852 30.5273 51.2891 28.8086C51.8555 28.1836 52.4414 28.1641 52.9883 28.8086C54.1136 30.0946 55.7813 31.0102 57.8125 31.3387L57.8125 21.6406C57.8125 18.8281 56.2695 17.3828 53.6133 17.3828L35.4883 17.3828L35.4883 13.9258L53.6719 13.9258C58.7305 13.9258 61.2695 16.4844 61.2695 21.4453Z" fill="black" fill-opacity="0.85"/>
  <path d="M3.16406 7.85156C3.96484 8.35938 4.90234 8.125 5.54688 7.36328C6.95312 5.625 8.75 4.33594 10.7812 3.65234C11.7188 3.32031 12.3047 2.5 12.0898 1.5625C11.875 0.507812 10.8398 0 9.53125 0.429688C6.99219 1.26953 4.60938 2.96875 2.79297 5.23438C2.01172 6.19141 2.28516 7.32422 3.16406 7.85156ZM27.6172 7.8125C28.4961 7.28516 28.7109 6.17188 27.9492 5.21484C26.1328 2.94922 23.7305 1.26953 21.2109 0.449219C19.8438-0.0195312 18.8477 0.585938 18.6523 1.60156C18.4961 2.51953 19.0234 3.32031 19.9609 3.65234C21.9727 4.33594 23.7695 5.625 25.1758 7.34375C25.8789 8.16406 26.7969 8.32031 27.6172 7.8125ZM33.6523 7.8125C34.4922 8.32031 35.3906 8.16406 36.0938 7.34375C37.5 5.625 39.2969 4.33594 41.3086 3.65234C42.2461 3.32031 42.7734 2.51953 42.6172 1.60156C42.4414 0.585938 41.4258-0.0195312 40.0586 0.449219C37.5586 1.26953 35.1367 2.94922 33.3203 5.21484C32.5781 6.17188 32.793 7.28516 33.6523 7.8125ZM58.125 7.85156C58.9844 7.32422 59.2578 6.19141 58.4961 5.23438C56.6797 2.96875 54.2773 1.26953 51.7383 0.429688C50.4492 0 49.3945 0.507812 49.1797 1.5625C48.9648 2.5 49.5508 3.32031 50.4883 3.65234C52.5195 4.33594 54.3164 5.625 55.7227 7.36328C56.3867 8.125 57.3047 8.35938 58.125 7.85156ZM30.6445 20.8789C31.582 20.8789 32.3633 20.0977 32.3633 19.1406L32.3633 12.7148C32.3633 11.7773 31.582 10.9766 30.6445 10.9766C29.6875 10.9766 28.9062 11.7773 28.9062 12.7148L28.9062 19.1406C28.9062 20.0977 29.6875 20.8789 30.6445 20.8789ZM30.6445 34.5312C31.582 34.5312 32.3633 33.75 32.3633 32.8125L32.3633 26.3672C32.3633 25.4297 31.582 24.6484 30.6445 24.6484C29.6875 24.6484 28.9062 25.4297 28.9062 26.3672L28.9062 32.8125C28.9062 33.75 29.6875 34.5312 30.6445 34.5312Z" fill="black" fill-opacity="0.85"/>
 </g>
</svg>
