<?xml version="1.0" encoding="UTF-8"?>
<!--Generator: Apple Native CoreSVG 326-->
<!DOCTYPE svg
PUBLIC "-//W3C//DTD SVG 1.1//EN"
       "http://www.w3.org/Graphics/SVG/1.1/DTD/svg11.dtd">
<svg version="1.1" xmlns="http://www.w3.org/2000/svg" xmlns:xlink="http://www.w3.org/1999/xlink" viewBox="0 0 51.25 50.918">
 <g>
  <rect height="50.918" opacity="0" width="51.25" x="0" y="0"/>
  <path d="M25.4297 50.8789C39.4727 50.8789 50.8789 39.4922 50.8789 25.4492C50.8789 11.4062 39.4727 0 25.4297 0C11.3867 0 0 11.4062 0 25.4492C0 39.4922 11.3867 50.8789 25.4297 50.8789ZM25.4297 47.2461C13.3789 47.2461 3.63281 37.5 3.63281 25.4492C3.63281 13.3984 13.3789 3.65234 25.4297 3.65234C37.4805 3.65234 47.2266 13.3984 47.2266 25.4492C47.2266 37.5 37.4805 47.2461 25.4297 47.2461Z" fill="black" fill-opacity="0.85"/>
  <path d="M10 22.4023C12.168 21.6406 14.4336 21.25 16.6797 21.25C19.6289 21.25 21.7188 21.7383 24.5703 21.7383C27.3633 21.7383 29.2188 19.8047 29.2188 17.2656C29.2188 14.707 27.2266 12.8125 24.7852 12.8125C22.832 12.8125 21.1719 14.0625 20.6055 15.7031C20.3711 16.25 20.5273 16.9531 21.1719 17.207C21.7188 17.4414 22.3438 17.2266 22.6562 16.5625C22.9688 15.7031 23.7305 15.0586 24.7852 15.0586C26.0352 15.0586 26.9336 15.918 26.9336 17.2656C26.9336 18.6523 26.0352 19.4922 24.5703 19.4922C21.8555 19.4922 19.8047 18.9844 16.6797 18.9844C14.1406 18.9844 11.5625 19.4922 9.27734 20.2734C8.57422 20.4883 8.30078 21.1328 8.49609 21.6992C8.67188 22.3047 9.29688 22.6562 10 22.4023ZM34.375 29.5312C38.125 29.5312 40.7227 27.168 40.7227 23.8867C40.7227 20.6836 38.2227 18.3008 35.1367 18.3008C32.2461 18.3008 30.0391 20.3906 29.7266 23.0664C29.6094 23.7695 30.0586 24.3555 30.6641 24.4141C31.2695 24.4922 31.8359 24.1016 31.9727 23.3398C32.207 21.7383 33.4766 20.5664 35.1367 20.5664C37.0312 20.5664 38.457 21.9141 38.457 23.8867C38.457 25.9375 36.9336 27.2461 34.375 27.2461C29.6484 27.2461 24.5312 24.5508 18.2227 24.5508C14.9805 24.5508 12.0312 25.1172 9.25781 26.1133C8.59375 26.3672 8.30078 26.9922 8.49609 27.5586C8.67188 28.1641 9.29688 28.4961 10.0195 28.2617C12.5 27.2266 15.1367 26.8164 18.2227 26.8164C24.3555 26.8164 29.1016 29.5312 34.375 29.5312ZM24.5898 40.3516C27.0117 40.3516 28.9453 38.5352 28.9453 35.957C28.9453 32.1875 25.0781 30.1172 18.2031 30.1172C15.2344 30.1172 11.9531 30.7227 9.25781 31.6797C8.59375 31.9336 8.28125 32.5391 8.49609 33.0859C8.67188 33.6914 9.29688 34.0625 10.0195 33.8281C12.5 32.9102 15.3516 32.3633 18.2031 32.3633C23.8281 32.3633 26.6602 33.75 26.6602 35.957C26.6602 37.3047 25.7812 38.1055 24.5898 38.1055C23.3789 38.1055 22.7148 37.4219 22.5 36.1133C22.4219 35.5078 21.9531 34.9805 21.2305 35.0391C20.4297 35.0781 20.1172 35.7812 20.2148 36.4062C20.4883 38.6523 22.168 40.3516 24.5898 40.3516ZM35.1758 16.4648C35.5664 16.4648 35.8203 16.1133 35.8008 15.7227L35.7227 14.1406L37.0508 15.0195C37.3438 15.2148 37.8125 15.1367 37.9883 14.8438C38.2227 14.5312 38.1055 14.043 37.6953 13.8477L36.2891 13.1641L37.6953 12.4023C38.0664 12.207 38.2031 11.8164 38.0078 11.4844C37.832 11.1328 37.3633 11.0742 37.0508 11.2891L35.7227 12.168L35.8008 10.6055C35.8203 10.1562 35.5664 9.84375 35.1758 9.84375C34.7461 9.84375 34.4922 10.1562 34.5117 10.5859L34.5703 12.168L33.2422 11.2891C32.9102 11.0742 32.4805 11.1133 32.3047 11.4844C32.1094 11.7773 32.207 12.207 32.6172 12.4219L34.0039 13.1641L32.6172 13.8477C32.1875 14.0625 32.1094 14.4922 32.2852 14.8047C32.4414 15.1562 32.9102 15.2344 33.2422 15.0195L34.5703 14.1406L34.5312 15.7227C34.5117 16.1133 34.7461 16.4648 35.1758 16.4648ZM34.7656 35.7422C34.9023 35.7422 35.0391 35.625 35.0195 35.4883L34.9805 35.3516L35.0781 35.4883C35.1562 35.5469 35.3711 35.4883 35.4102 35.4102C35.5078 35.3125 35.5078 35.0781 35.3516 35L35.1758 34.9805L35.3516 34.9023C35.5078 34.8242 35.4688 34.668 35.4492 34.5703C35.3906 34.4531 35.1562 34.375 35.0781 34.4531L34.9805 34.6289L35.0195 34.4531C35.0391 34.2969 34.9023 34.1992 34.7656 34.1992C34.6094 34.1992 34.4727 34.2969 34.4922 34.4336L34.5508 34.6289L34.4141 34.4531C34.3359 34.375 34.1406 34.4336 34.082 34.5703C34.043 34.6289 33.9844 34.8242 34.1797 34.9219L34.3359 34.9805L34.1797 35C33.9844 35.0781 34.043 35.2734 34.0625 35.3711C34.082 35.5078 34.3164 35.5664 34.4141 35.4883L34.5508 35.3516L34.5117 35.4883C34.4922 35.625 34.6094 35.7422 34.7656 35.7422Z" fill="black" fill-opacity="0.85"/>
 </g>
</svg>
