<?xml version="1.0" encoding="UTF-8"?>
<!--Generator: Apple Native CoreSVG 326-->
<!DOCTYPE svg
PUBLIC "-//W3C//DTD SVG 1.1//EN"
       "http://www.w3.org/Graphics/SVG/1.1/DTD/svg11.dtd">
<svg version="1.1" xmlns="http://www.w3.org/2000/svg" xmlns:xlink="http://www.w3.org/1999/xlink" viewBox="0 0 61.6406 61.7773">
 <g>
  <rect height="61.7773" opacity="0" width="61.6406" x="0" y="0"/>
  <path d="M6.26883 12.8868C4.43612 13.3249 3.45703 14.7043 3.45703 16.9727L3.45703 35.4297C3.45703 38.2227 4.94141 39.668 7.67578 39.668L21.9574 39.668L23.9825 43.125L7.59766 43.125C2.55859 43.125 0 40.6055 0 35.6055L0 16.7969C0 12.9974 1.47742 10.619 4.40187 9.69982ZM61.2695 16.7969L61.2695 35.6055C61.2695 40.5859 58.7305 43.125 53.6719 43.125L28.0099 43.125L25.9846 39.668L53.6133 39.668C56.2695 39.668 57.8125 38.2227 57.8125 35.4297L57.8125 16.9727C57.8125 14.1797 56.2695 12.7344 53.6133 12.7344L51.8482 12.7344C51.7692 12.5566 51.6934 12.388 51.6211 12.2266C51.1853 11.2853 50.6735 10.2835 50.1115 9.25781L53.6719 9.25781C58.7305 9.25781 61.2695 11.8164 61.2695 16.7969ZM33.8527 9.25781C33.2914 10.2835 32.7795 11.2853 32.3438 12.2266C32.2714 12.388 32.1956 12.5566 32.1166 12.7344L10.2058 12.7344L8.16914 9.25781Z" fill="black" fill-opacity="0.85"/>
  <path d="M43.2617 3.92578C45.2148 6.91406 47.4023 10.5273 48.7695 13.5156C49.6484 15.4102 50.6445 17.6758 50.6445 20.1172C50.6445 25.1562 47.168 28.5156 41.9727 28.5156C36.7969 28.5156 33.3008 25.1562 33.3008 20.1172C33.3008 17.6758 34.3164 15.4102 35.1953 13.5156C36.5625 10.5273 38.7305 6.91406 40.6836 3.92578C41.0938 3.35938 41.4844 3.10547 41.9727 3.10547C42.4805 3.10547 42.8711 3.35938 43.2617 3.92578Z" fill="black" fill-opacity="0.85"/>
  <path d="M30.5664 56.3281C33.4961 56.3281 35.957 53.8867 35.957 50.9375C35.957 47.9492 33.5156 45.5273 30.5664 45.5273C27.6172 45.5273 25.1758 47.9492 25.1758 50.9375C25.1758 53.8867 27.5781 56.3281 30.5664 56.3281ZM30.5664 53.418C29.1797 53.418 28.0469 52.3047 28.0469 50.9375C28.0469 49.5312 29.1797 48.3789 30.5664 48.3789C31.9141 48.3789 33.0859 49.5508 33.0859 50.9375C33.0859 52.3047 31.9336 53.418 30.5664 53.418ZM27.1289 48.4961L30.1953 46.8555L6.60156 6.58203C6.15234 5.78125 5.17578 5.42969 4.19922 5.9375C3.30078 6.38672 3.125 7.5 3.59375 8.32031Z" fill="black" fill-opacity="0.85"/>
 </g>
</svg>
