<?xml version="1.0" encoding="UTF-8"?>
<!--Generator: Apple Native CoreSVG 326-->
<!DOCTYPE svg
PUBLIC "-//W3C//DTD SVG 1.1//EN"
       "http://www.w3.org/Graphics/SVG/1.1/DTD/svg11.dtd">
<svg version="1.1" xmlns="http://www.w3.org/2000/svg" xmlns:xlink="http://www.w3.org/1999/xlink" viewBox="0 0 72.8377 50.8008">
 <g>
  <rect height="50.8008" opacity="0" width="72.8377" x="0" y="0"/>
  <path d="M70.8036 12.3633C72.7177 13.8477 73.0106 15.918 71.4677 17.8906L54.6317 39.4141C53.8895 40.3711 52.6395 40.6055 51.5263 40.0195C47.1317 37.793 41.37 36.3086 36.2333 36.3086C35.1832 36.3086 34.1089 36.3702 33.0242 36.5017L31.1393 33.2832C32.887 32.9968 34.5953 32.8516 36.2333 32.8516C41.038 32.8516 46.4481 34.1016 51.6044 36.2305C52.2294 36.4648 52.5224 36.4453 53.0302 35.8203L68.0302 16.6406C68.538 15.9766 68.4403 15.3711 67.7567 14.9023C59.1825 9.41406 47.6981 6.21094 36.2333 6.21094C29.657 6.21094 23.0742 7.26484 17.0528 9.22986L15.1127 5.91713C21.4265 3.95414 28.7848 2.75391 36.2333 2.75391C50.0809 2.75391 63.6356 6.91406 70.8036 12.3633ZM13.718 10.4102C10.4626 11.6357 7.42962 13.1529 4.69032 14.9023C4.02626 15.3711 3.9286 15.9766 4.41688 16.6406L19.4169 35.8203C19.9247 36.4453 20.2372 36.4648 20.8622 36.2305C23.0664 35.3204 25.3171 34.5709 27.5456 34.0229L29.348 37.1007C26.3455 37.7372 23.4271 38.7596 20.9403 40.0195C19.8075 40.6055 18.577 40.3711 17.8153 39.4141L0.979383 17.8906C-0.544055 15.918-0.270617 13.8477 1.66298 12.3633C4.27067 10.3754 7.73087 8.55915 11.7546 7.05745Z" fill="black" fill-opacity="0.85"/>
  <path d="M32.7958 42.9883L35.8622 41.3477L12.288 1.09375C11.8388 0.292969 10.8427-0.0585938 9.88563 0.449219C8.9872 0.898438 8.81141 2.01172 9.28016 2.83203ZM36.2333 50.8008C39.163 50.8008 41.6239 48.3789 41.6239 45.4297C41.6239 42.4414 39.1825 40.0195 36.2333 40.0195C33.2841 40.0195 30.8427 42.4414 30.8427 45.4297C30.8427 48.3789 33.245 50.8008 36.2333 50.8008ZM36.2333 47.9102C34.8466 47.9102 33.7138 46.7969 33.7138 45.4297C33.7138 44.0234 34.8466 42.8711 36.2333 42.8711C37.5809 42.8711 38.7528 44.043 38.7528 45.4297C38.7528 46.7969 37.6005 47.9102 36.2333 47.9102Z" fill="black" fill-opacity="0.85"/>
 </g>
</svg>
