<?xml version="1.0" encoding="UTF-8"?>
<!--Generator: Apple Native CoreSVG 326-->
<!DOCTYPE svg
PUBLIC "-//W3C//DTD SVG 1.1//EN"
       "http://www.w3.org/Graphics/SVG/1.1/DTD/svg11.dtd">
<svg version="1.1" xmlns="http://www.w3.org/2000/svg" xmlns:xlink="http://www.w3.org/1999/xlink" viewBox="0 0 52.9688 43.9648">
 <g>
  <rect height="43.9648" opacity="0" width="52.9688" x="0" y="0"/>
  <path d="M3.41797 14.7656C6.99219 13.5352 10.7617 12.8906 14.3945 12.8906C19.2383 12.8906 22.5977 13.6914 27.1484 13.6914C31.5039 13.6914 34.2773 10.7227 34.2773 6.83594C34.2773 2.89062 31.2891 0.0195312 27.5 0.0195312C24.5508 0.0195312 22.0508 1.91406 21.1328 4.375C20.8008 5.11719 20.9766 5.9375 21.7578 6.28906C22.4609 6.62109 23.2617 6.36719 23.7109 5.48828C24.2188 4.02344 25.7031 2.85156 27.5 2.85156C29.7266 2.85156 31.4453 4.47266 31.4453 6.83594C31.4453 9.23828 29.7461 10.8594 27.1484 10.8594C22.7539 10.8594 19.3945 10.0586 14.3945 10.0586C10.3125 10.0586 6.19141 10.8203 2.51953 12.0898C1.60156 12.3633 1.26953 13.1445 1.50391 13.9062C1.71875 14.6484 2.46094 15.0586 3.41797 14.7656ZM43.125 26.3281C48.9844 26.3281 52.9688 22.6953 52.9688 17.5977C52.9688 12.6367 49.1602 8.94531 44.3359 8.94531C39.8242 8.94531 36.4844 12.168 35.9375 16.3086C35.8203 17.207 36.3477 17.9297 37.1289 18.0273C37.9297 18.125 38.6133 17.6172 38.7891 16.6211C39.1797 13.8281 41.4844 11.7773 44.3359 11.7773C47.5586 11.7773 50.1367 14.2188 50.1367 17.5977C50.1367 21.0742 47.4023 23.4766 43.125 23.4766C35.332 23.4766 27.0312 19.1016 16.8945 19.1016C11.6406 19.1016 6.95312 20 2.51953 21.6016C1.64062 21.9141 1.26953 22.6953 1.50391 23.4375C1.71875 24.1992 2.48047 24.6289 3.41797 24.2969C7.53906 22.6367 11.8555 21.9531 16.8945 21.9531C26.9531 21.9531 34.6289 26.3281 43.125 26.3281ZM27.1875 43.9648C30.9375 43.9648 33.8281 41.1719 33.8281 37.207C33.8281 31.4062 27.832 28.1641 16.8359 28.1641C12.0312 28.1641 6.83594 29.1211 2.51953 30.6445C1.64062 30.9375 1.26953 31.7188 1.50391 32.4609C1.71875 33.2227 2.48047 33.6719 3.41797 33.3398C7.5 31.8359 12.207 30.9961 16.8359 30.9961C26.0547 30.9961 30.9961 33.3789 30.9961 37.207C30.9961 39.6094 29.3164 41.1328 27.1875 41.1328C25.0977 41.1328 23.75 39.7461 23.3984 37.5391C23.2617 36.7188 22.6758 36.0547 21.7578 36.1133C20.7812 36.1719 20.3711 37.0117 20.4883 37.8906C20.9375 41.3477 23.4766 43.9648 27.1875 43.9648Z" fill="black" fill-opacity="0.85"/>
 </g>
</svg>
