<?xml version="1.0" encoding="UTF-8"?>
<!--Generator: Apple Native CoreSVG 326-->
<!DOCTYPE svg
PUBLIC "-//W3C//DTD SVG 1.1//EN"
       "http://www.w3.org/Graphics/SVG/1.1/DTD/svg11.dtd">
<svg version="1.1" xmlns="http://www.w3.org/2000/svg" xmlns:xlink="http://www.w3.org/1999/xlink" viewBox="0 0 36.4062 58.9648">
 <g>
  <rect height="58.9648" opacity="0" width="36.4062" x="0" y="0"/>
  <path d="M18.0078 36.2305C28.8477 36.2305 36.0352 29.8242 36.0352 20.0781C36.0352 14.9805 33.9062 8.30078 30.7812 3.49609C29.3359 1.26953 24.6289 0 18.0273 0C11.3867 0 6.67969 1.26953 5.23438 3.49609C2.10938 8.30078 0 14.9805 0 20.0781C0 29.8242 7.16797 36.2305 18.0078 36.2305ZM18.0078 32.9688C8.94531 32.9688 3.26172 28.0078 3.26172 20.0781C3.26172 16.2305 4.64844 11.2109 6.91406 7.10938C8.98438 8.32031 13.0273 9.0625 18.0273 9.0625C22.9883 9.0625 27.0312 8.32031 29.1016 7.10938C31.3672 11.2109 32.7734 16.2305 32.7734 20.0781C32.7734 28.0078 27.0703 32.9688 18.0078 32.9688ZM18.0273 5.99609C12.9492 5.99609 8.24219 5.15625 8.24219 4.53125C8.24219 3.92578 13.0273 3.08594 18.0273 3.08594C23.0078 3.08594 27.793 3.92578 27.793 4.53125C27.793 5.15625 23.0664 5.99609 18.0273 5.99609ZM18.0078 53.2812C18.8867 53.2812 19.6484 52.5195 19.6484 51.6406L19.6484 34.5703L16.4062 34.5703L16.4062 51.6406C16.4062 52.5391 17.1289 53.2812 18.0078 53.2812ZM18.0078 58.9258C26.7969 58.9062 32.1484 56.7773 32.1484 53.2031C32.1484 49.6484 26.7773 47.4805 18.0078 47.4805C9.23828 47.4805 3.90625 49.6484 3.90625 53.2031C3.90625 56.7773 9.21875 58.9062 18.0078 58.9258ZM18.0078 55.7422C11.582 55.7422 7.36328 54.6289 7.36328 53.2031C7.36328 51.7969 11.6211 50.6445 18.0078 50.6445C24.4141 50.6445 28.6914 51.7969 28.6914 53.2031C28.6914 54.6094 24.4336 55.7422 18.0078 55.7422Z" fill="black" fill-opacity="0.85"/>
 </g>
</svg>
