<?xml version="1.0" encoding="UTF-8"?>
<!--Generator: Apple Native CoreSVG 326-->
<!DOCTYPE svg
PUBLIC "-//W3C//DTD SVG 1.1//EN"
       "http://www.w3.org/Graphics/SVG/1.1/DTD/svg11.dtd">
<svg version="1.1" xmlns="http://www.w3.org/2000/svg" xmlns:xlink="http://www.w3.org/1999/xlink" viewBox="0 0 56.2305 55.8789">
 <g>
  <rect height="55.8789" opacity="0" width="56.2305" x="0" y="0"/>
  <path d="M27.9297 55.8594C43.2812 55.8594 55.8594 43.3008 55.8594 27.9297C55.8594 12.5586 43.2812 0 27.9297 0C12.5781 0 0 12.5586 0 27.9297C0 43.3008 12.5781 55.8594 27.9297 55.8594ZM27.9297 46.6797C17.5586 46.6797 9.16016 38.3008 9.16016 27.9297C9.16016 17.5586 17.5586 9.16016 27.9297 9.16016C38.3008 9.16016 46.6992 17.5586 46.6992 27.9297C46.6992 38.3008 38.3008 46.6797 27.9297 46.6797Z" fill="black" fill-opacity="0.85"/>
  <path d="M21.4844 39.3945C22.3242 39.3945 22.9492 38.8672 23.1836 38.0273L27.8516 20.8398L28.0078 20.8398L32.6562 38.0273C32.8906 38.9062 33.4766 39.3945 34.375 39.3945C35.293 39.3945 35.9375 38.9062 36.1133 37.9883L40.1562 18.4375C40.1953 18.2422 40.2148 18.0078 40.2148 17.8125C40.2148 16.9922 39.6094 16.6211 38.9258 16.6211C38.3789 16.6211 37.8125 16.9531 37.6758 17.6758L34.2969 35.9375L34.1602 35.9375L29.2969 17.793C29.1211 17.0508 28.6914 16.6602 27.9492 16.6602C27.2461 16.6602 26.7773 17.0898 26.582 17.832L21.6992 35.9375L21.5625 35.9375L18.2031 17.6758C18.0859 17.0312 17.5586 16.6211 16.9141 16.6211C16.1719 16.6211 15.625 17.0508 15.625 17.7734C15.625 17.9297 15.6445 18.1836 15.7031 18.4766L19.7461 37.9883C19.9219 38.8477 20.5664 39.3945 21.4844 39.3945ZM13.8867 27.8516C13.8867 28.3008 14.2383 28.6523 14.6875 28.6523L41.1719 28.6523C41.6211 28.6523 41.9727 28.3008 41.9727 27.8516C41.9727 27.4023 41.6211 27.0898 41.1719 27.0898L14.6875 27.0898C14.2383 27.0898 13.8867 27.4023 13.8867 27.8516Z" fill="black" fill-opacity="0.85"/>
 </g>
</svg>
