<?xml version="1.0" encoding="UTF-8"?>
<!--Generator: Apple Native CoreSVG 326-->
<!DOCTYPE svg
PUBLIC "-//W3C//DTD SVG 1.1//EN"
       "http://www.w3.org/Graphics/SVG/1.1/DTD/svg11.dtd">
<svg version="1.1" xmlns="http://www.w3.org/2000/svg" xmlns:xlink="http://www.w3.org/1999/xlink" viewBox="0 0 56.3086 45.8789">
 <g>
  <rect height="45.8789" opacity="0" width="56.3086" x="0" y="0"/>
  <path d="M14.8047 45.8398C16.1914 45.8398 17.2656 45.0195 17.6367 43.6328L27.793 7.42188L28.0859 7.42188L38.2617 43.6523C38.6328 45.0195 39.6875 45.8398 41.0547 45.8398C42.5781 45.8398 43.6328 44.9805 43.9258 43.5742L52.5781 3.10547C52.6758 2.69531 52.7148 2.34375 52.7148 1.93359C52.7148 0.722656 51.7578 0 50.5859 0C49.4727 0 48.6523 0.644531 48.457 1.77734L40.9961 39.8828L40.7227 39.8828L30.1758 1.95312C29.8633 0.78125 29.1016 0.175781 27.9883 0.175781C26.7578 0.175781 25.9961 0.800781 25.6836 2.03125L15.1367 39.8828L14.8828 39.8828L7.38281 1.71875C7.1875 0.566406 6.32812 0 5.3125 0C4.10156 0 3.16406 0.742188 3.16406 1.89453C3.16406 2.22656 3.22266 2.75391 3.32031 3.14453L11.9531 43.5547C12.2461 44.9805 13.3008 45.8398 14.8047 45.8398ZM0 22.6172C0 23.457 0.644531 24.0625 1.46484 24.0625L54.4727 24.0625C55.293 24.0625 55.9375 23.4375 55.9375 22.6172C55.9375 21.7773 55.293 21.1719 54.4727 21.1719L1.46484 21.1719C0.644531 21.1719 0 21.7773 0 22.6172Z" fill="black" fill-opacity="0.85"/>
 </g>
</svg>
