<?xml version="1.0" encoding="UTF-8"?>
<!--Generator: Apple Native CoreSVG 326-->
<!DOCTYPE svg
PUBLIC "-//W3C//DTD SVG 1.1//EN"
       "http://www.w3.org/Graphics/SVG/1.1/DTD/svg11.dtd">
<svg version="1.1" xmlns="http://www.w3.org/2000/svg" xmlns:xlink="http://www.w3.org/1999/xlink" viewBox="0 0 46.2891 45.918">
 <g>
  <rect height="45.918" opacity="0" width="46.2891" x="0" y="0"/>
  <path d="M45.918 7.53906L45.918 38.3984C45.918 43.3594 43.3594 45.918 38.3008 45.918L7.59766 45.918C2.55859 45.918 0 43.3984 0 38.3984L0 7.53906C0 2.53906 2.55859 0 7.59766 0L38.3008 0C43.3594 0 45.918 2.55859 45.918 7.53906ZM32.9492 12.4414L31.1719 22.0898L26.9336 22.0898L24.375 12.5586C24.1992 11.7969 23.75 11.3867 22.9883 11.3867C22.2656 11.3867 21.7773 11.8359 21.582 12.5977L19.0234 22.0898L14.7852 22.0898L13.0078 12.4414C12.8906 11.7773 12.3438 11.3477 11.6797 11.3477C10.918 11.3477 10.3516 11.7969 10.3516 12.5391C10.3516 12.6953 10.3711 12.9688 10.4297 13.2617L12.2656 22.0898L9.39453 22.0898C8.92578 22.0898 8.57422 22.4023 8.57422 22.8711C8.57422 23.3398 8.92578 23.6914 9.39453 23.6914L12.5977 23.6914L14.5703 33.2422C14.7461 34.1406 15.4102 34.707 16.3672 34.707C17.2266 34.707 17.8711 34.1602 18.125 33.2812L20.7227 23.6914L25.2148 23.6914L27.793 33.2812C28.0664 34.1992 28.6719 34.707 29.5898 34.707C30.5469 34.707 31.1914 34.1992 31.3672 33.2422L33.3594 23.6914L36.5625 23.6914C37.0312 23.6914 37.3633 23.3398 37.3633 22.8711C37.3633 22.4023 37.0312 22.0898 36.5625 22.0898L33.6719 22.0898L35.5273 13.2227C35.5469 13.0273 35.5664 12.793 35.5664 12.5586C35.5664 11.7383 34.9414 11.3477 34.2578 11.3477C33.6719 11.3477 33.0859 11.6992 32.9492 12.4414ZM16.582 31.1328L16.4453 31.1328L15.0586 23.6914L18.6133 23.6914ZM29.5117 31.1328L29.3555 31.1328L27.3633 23.6914L30.8789 23.6914ZM24.8047 22.0898L21.1328 22.0898L22.8906 15.7031L23.0469 15.7031Z" fill="black" fill-opacity="0.85"/>
 </g>
</svg>
