<?xml version="1.0" encoding="UTF-8"?>
<!--Generator: Apple Native CoreSVG 326-->
<!DOCTYPE svg
PUBLIC "-//W3C//DTD SVG 1.1//EN"
       "http://www.w3.org/Graphics/SVG/1.1/DTD/svg11.dtd">
<svg version="1.1" xmlns="http://www.w3.org/2000/svg" xmlns:xlink="http://www.w3.org/1999/xlink" viewBox="0 0 51.25 50.918">
 <g>
  <rect height="50.918" opacity="0" width="51.25" x="0" y="0"/>
  <path d="M50.8789 25.4492C50.8789 39.4531 39.4531 50.8789 25.4297 50.8789C11.4258 50.8789 0 39.4531 0 25.4492C0 11.4258 11.4258 0 25.4297 0C39.4531 0 50.8789 11.4258 50.8789 25.4492ZM35.4102 14.9414L33.6328 24.5898L29.3945 24.5898L26.8359 15.0586C26.6602 14.2969 26.2109 13.8867 25.4492 13.8867C24.7266 13.8867 24.2578 14.3359 24.043 15.0977L21.4844 24.5898L17.2461 24.5898L15.4688 14.9414C15.3516 14.2773 14.8047 13.8477 14.1406 13.8477C13.3789 13.8477 12.8125 14.2969 12.8125 15.0391C12.8125 15.1953 12.832 15.4688 12.8906 15.7617L14.7266 24.5898L11.8555 24.5898C11.3867 24.5898 11.0352 24.9023 11.0352 25.3711C11.0352 25.8398 11.3867 26.1914 11.8555 26.1914L15.0586 26.1914L17.0312 35.7422C17.207 36.6406 17.8711 37.207 18.8477 37.207C19.6875 37.207 20.3516 36.6602 20.5859 35.7812L23.1836 26.1914L27.6758 26.1914L30.2734 35.7812C30.5273 36.6992 31.1328 37.207 32.0508 37.207C33.0078 37.207 33.6523 36.6992 33.8281 35.7422L35.8203 26.1914L39.0234 26.1914C39.4922 26.1914 39.8242 25.8398 39.8242 25.3711C39.8242 24.9023 39.4922 24.5898 39.0234 24.5898L36.1328 24.5898L37.9883 15.7227C38.0273 15.5273 38.0469 15.293 38.0469 15.0586C38.0469 14.2383 37.4023 13.8477 36.7188 13.8477C36.1328 13.8477 35.5469 14.1992 35.4102 14.9414ZM19.043 33.6328L18.9062 33.6328L17.5195 26.1914L21.0742 26.1914ZM31.9727 33.6328L31.8164 33.6328L29.8242 26.1914L33.3398 26.1914ZM27.2656 24.5898L23.6133 24.5898L25.3516 18.2031L25.5078 18.2031Z" fill="black" fill-opacity="0.85"/>
 </g>
</svg>
