<?xml version="1.0" encoding="UTF-8"?>
<!--Generator: Apple Native CoreSVG 326-->
<!DOCTYPE svg
PUBLIC "-//W3C//DTD SVG 1.1//EN"
       "http://www.w3.org/Graphics/SVG/1.1/DTD/svg11.dtd">
<svg version="1.1" xmlns="http://www.w3.org/2000/svg" xmlns:xlink="http://www.w3.org/1999/xlink" viewBox="0 0 58.7404 60.0739">
 <g>
  <rect height="60.0739" opacity="0" width="58.7404" x="0" y="0"/>
  <path d="M3.03232 57.0584C7.11436 61.1404 13.0128 61.199 17.1534 56.492C21.6847 51.3358 27.0753 41.3358 34.3214 34.0701C40.0831 28.3279 46.2159 34.0897 54.087 26.5311C57.0362 23.699 58.6769 19.6756 58.2276 16.6483L48.794 19.2069C46.9386 19.6951 45.7472 18.5819 45.2394 16.7654L44.4972 14.1873C43.9698 12.3904 44.5362 10.8279 46.3917 10.3201L55.7862 7.78107C55.4933 6.98029 54.7315 5.88654 53.7745 4.90998C48.0714-0.910333 38.4815-0.910333 32.8956 4.38264C24.5948 12.2928 31.0206 20.6522 25.2589 26.4139C18.7354 32.9373 8.73545 38.4061 3.5792 42.9373C-1.12783 47.0584-1.06924 52.9764 3.03232 57.0584ZM5.12217 54.9686C2.30967 52.0975 2.3292 47.8397 5.61045 44.9686C10.8644 40.3983 21.5089 34.3436 27.3487 28.5037C33.8917 21.9608 27.212 13.6795 35.005 6.47248C39.6144 2.21467 47.6222 2.42951 52.1144 7.15607L52.8175 5.80842L45.7667 7.66389C42.212 8.60139 40.669 11.2967 41.7433 15.0272L42.4464 17.4686C43.6378 21.5701 46.0792 22.742 49.38 21.8436L56.587 19.8709L55.2784 19.1287C54.7901 20.9842 53.8526 22.9959 52.0558 24.7537C45.6104 31.0428 38.5792 25.6326 32.2315 31.9803C25.6886 38.5037 19.712 49.2264 15.1222 54.4803C12.212 57.8397 7.91514 57.8397 5.12217 54.9686ZM35.5714 24.9881L40.9815 23.5233C41.4112 23.4061 41.6847 22.9373 41.5675 22.4881C41.4503 22.0584 41.0206 21.785 40.5519 21.9217L35.1417 23.367C34.6925 23.4842 34.4386 23.9334 34.5362 24.3826C34.6339 24.8709 35.1222 25.1053 35.5714 24.9881ZM34.9073 22.1951L40.2784 20.7694C40.7276 20.6522 41.0011 20.1834 40.8644 19.7147C40.7472 19.2654 40.2979 19.0115 39.8683 19.1287L34.4386 20.574C33.9894 20.6912 33.7354 21.16 33.8526 21.5897C33.9894 22.0779 34.419 22.3319 34.9073 22.1951ZM34.2433 19.4022L39.6144 17.9764C40.0636 17.8592 40.337 17.3904 40.2003 16.9217C40.0831 16.4725 39.6339 16.2186 39.2042 16.3358L33.7745 17.7811C33.3253 17.8983 33.0714 18.367 33.1886 18.7967C33.3253 19.285 33.755 19.5389 34.2433 19.4022ZM45.6886 29.1092L47.7394 28.66L44.5167 17.0584L42.4464 17.4686ZM10.005 53.1522C11.6651 53.1522 13.0128 51.8045 13.0128 50.1053C13.0128 48.4451 11.6651 47.0779 10.005 47.0779C8.32529 47.0779 6.95811 48.4451 6.95811 50.1053C6.95811 51.8045 8.32529 53.1522 10.005 53.1522Z" fill="black" fill-opacity="0.85"/>
 </g>
</svg>
