<?xml version="1.0" encoding="UTF-8"?>
<!--Generator: Apple Native CoreSVG 326-->
<!DOCTYPE svg
PUBLIC "-//W3C//DTD SVG 1.1//EN"
       "http://www.w3.org/Graphics/SVG/1.1/DTD/svg11.dtd">
<svg version="1.1" xmlns="http://www.w3.org/2000/svg" xmlns:xlink="http://www.w3.org/1999/xlink" viewBox="0 0 59.4288 60.2257">
 <g>
  <rect height="60.2257" opacity="0" width="59.4288" x="0" y="0"/>
  <path d="M47.1265 44.0679L49.4898 44.4195C50.3101 44.5367 51.0328 45.0445 51.5406 45.7671L56.8726 53.6187C57.3609 54.3218 57.4195 55.064 56.8921 55.5914L52.6539 59.8101C52.1265 60.3375 51.4234 60.3765 50.6617 59.8492L42.8296 54.4781C42.107 53.9703 41.5992 53.2476 41.482 52.4273L41.1109 50.064L29.8314 38.8207C30.4265 38.064 31.0776 37.268 31.7917 36.4296L44.1578 48.814L44.6851 51.6851L51.3648 56.7437L53.8062 54.3218L48.7476 47.6031L45.8765 47.1343L33.3419 34.6365C33.9819 33.9101 34.6663 33.1546 35.4048 32.3645ZM16.0914 5.39605L32.1209 21.4256C32.1333 21.4609 32.1493 21.4949 32.1656 21.5289C31.4344 22.2559 30.7238 22.9497 30.0402 23.6006L13.8257 7.36871C11.9898 5.53277 9.86089 5.53277 7.98589 7.40777L4.50933 10.9429C2.63433 12.857 2.59526 14.9078 4.4312 16.7632L19.9521 32.2675C19.0721 32.9245 18.2417 33.5138 17.4591 34.0427L2.45854 19.0093C-0.842236 15.7281-0.803174 12.0367 2.47808 8.75542L5.81792 5.41558C9.09917 2.13433 12.7906 2.09527 16.0914 5.39605ZM9.25542 14.1265L18.8062 23.6773C19.1773 24.0289 19.1578 24.5562 18.8257 24.8882C18.4937 25.2398 17.9273 25.2593 17.5757 24.9078L8.00542 15.3765C7.65386 15.0445 7.69292 14.4781 8.00542 14.1265C8.35698 13.775 8.96245 13.814 9.25542 14.1265ZM12.4 10.982L21.9703 20.5132C22.3023 20.8453 22.3023 21.3921 21.9507 21.7828C21.6578 22.0953 21.0523 22.1343 20.7203 21.7828L11.189 12.1929C10.857 11.8609 10.8375 11.3335 11.189 10.982C11.5015 10.65 12.0484 10.6304 12.4 10.982Z" fill="black" fill-opacity="0.85"/>
  <path d="M3.70854 56.9585C7.96636 61.1773 13.689 61.2164 17.8882 56.9976C23.2984 51.5484 21.9703 45.7281 39.1382 28.482C44.4117 31.0015 50.8375 30.1617 55.0953 25.9039C59.5093 21.5093 60.3101 14.6148 57.1851 9.04839L50.5445 15.689C49.7632 16.4703 48.8453 16.4898 48.025 15.689L44.9976 12.6421C44.1968 11.8218 44.1382 10.8843 44.9195 10.1031L51.5796 3.48199C46.0328 0.337456 39.1773 1.13824 34.7632 5.57183C30.4859 9.82964 29.646 16.2554 32.1656 21.5289C14.9195 38.6773 9.09917 37.3492 3.64995 42.7398C-0.568799 46.9585-0.529736 52.6812 3.70854 56.9585ZM37.0875 23.5601C32.5953 19.0484 32.4585 11.9 36.7945 7.58355C39.3726 5.02496 43.025 4.02886 46.4429 4.69292L42.6148 8.50152C40.7984 10.3375 40.8375 12.564 42.7125 14.4L46.2476 17.9351C48.1031 19.771 50.3296 19.7906 52.107 18.0328L55.9742 14.146C56.6382 17.6226 55.6421 21.275 53.0445 23.8726C48.7085 28.189 41.6187 28.0328 37.0875 23.5601ZM5.85698 54.7906C2.88823 51.7632 2.90776 47.8765 5.79839 44.9859C11.5601 39.2437 15.3687 41.8218 33.65 23.9507C34.0601 24.5171 34.5289 25.064 35.0367 25.5914C35.564 26.0992 36.1109 26.5875 36.7164 26.9976C18.8257 45.2789 21.4039 49.0875 15.6617 54.8492C12.771 57.7398 8.86479 57.7789 5.85698 54.7906ZM10.7007 53.0523C12.3804 53.0523 13.7281 51.7046 13.7281 50.025C13.7281 48.3453 12.3804 46.9976 10.7007 46.9976C9.02104 46.9976 7.67339 48.3453 7.67339 50.025C7.67339 51.7046 9.02104 53.0523 10.7007 53.0523Z" fill="black" fill-opacity="0.85"/>
 </g>
</svg>
