<?xml version="1.0" encoding="UTF-8"?>
<!--Generator: Apple Native CoreSVG 326-->
<!DOCTYPE svg
PUBLIC "-//W3C//DTD SVG 1.1//EN"
       "http://www.w3.org/Graphics/SVG/1.1/DTD/svg11.dtd">
<svg version="1.1" xmlns="http://www.w3.org/2000/svg" xmlns:xlink="http://www.w3.org/1999/xlink" viewBox="0 0 51.9727 43.7695">
 <g>
  <rect height="43.7695" opacity="0" width="51.9727" x="0" y="0"/>
  <path d="M8.88672 43.7695C10.8594 43.7695 11.8945 42.3828 12.4414 40.6055L23.7109 3.82812L49.5703 3.82812C50.7812 3.82812 51.6016 3.06641 51.6016 1.91406C51.6016 0.78125 50.7812 0.0390625 49.5703 0.0390625L23.6523 0.0390625C21.5039 0.0390625 20.5273 0.839844 19.9414 2.67578L9.14062 38.6914L8.76953 38.6914L3.92578 21.7578C3.59375 20.5859 2.96875 20.0391 1.95312 20.0391C0.839844 20.0391 0 20.8398 0 21.8945C0 22.3047 0.0976562 22.6953 0.214844 23.0469L5.58594 40.8398C6.11328 42.5586 7.07031 43.7695 8.88672 43.7695ZM28.5352 38.9062C29.3164 38.9062 29.7266 38.6328 30.332 37.793L36.3867 29.0625L36.5039 29.0625L42.5195 37.793C43.125 38.6328 43.5352 38.9062 44.3164 38.9062C45.3906 38.9062 46.1719 38.1836 46.1719 37.168C46.1719 36.6797 46.0547 36.3281 45.7422 35.8984L38.8477 26.3086L45.8008 16.6797C46.1328 16.2305 46.25 15.8594 46.25 15.4102C46.25 14.4727 45.4883 13.75 44.4531 13.75C43.6914 13.75 43.2422 14.0234 42.6953 14.8047L36.8164 23.5547L36.6992 23.5547L30.7031 14.7852C30.1562 14.0234 29.707 13.75 28.8867 13.75C27.8711 13.75 27.0312 14.5312 27.0312 15.5273C27.0312 16.0352 27.168 16.3867 27.5391 16.875L34.1797 26.2109L27.207 36.0352C26.875 36.4648 26.7773 36.7773 26.7773 37.2656C26.7773 38.1836 27.5391 38.9062 28.5352 38.9062Z" fill="black" fill-opacity="0.85"/>
 </g>
</svg>
