<?xml version="1.0" encoding="UTF-8"?>
<!--Generator: Apple Native CoreSVG 326-->
<!DOCTYPE svg
PUBLIC "-//W3C//DTD SVG 1.1//EN"
       "http://www.w3.org/Graphics/SVG/1.1/DTD/svg11.dtd">
<svg version="1.1" xmlns="http://www.w3.org/2000/svg" xmlns:xlink="http://www.w3.org/1999/xlink" viewBox="0 0 46.2891 45.918">
 <g>
  <rect height="45.918" opacity="0" width="46.2891" x="0" y="0"/>
  <path d="M45.918 7.53906L45.918 38.3984C45.918 43.3594 43.3594 45.918 38.3008 45.918L7.59766 45.918C2.55859 45.918 0 43.3984 0 38.3984L0 7.53906C0 2.53906 2.55859 0 7.59766 0L38.3008 0C43.3594 0 45.918 2.55859 45.918 7.53906ZM28.8672 11.7969L23.2227 20.1758L23.1055 20.1758L17.3828 11.7773C16.875 11.0742 16.4453 10.8008 15.6836 10.8008C14.7461 10.8008 13.9453 11.543 13.9453 12.4609C13.9453 12.9492 14.082 13.2617 14.4336 13.7305L20.7617 22.6562L14.1211 32.0117C13.8281 32.4414 13.7109 32.7148 13.7109 33.1836C13.7109 34.0625 14.4336 34.7266 15.3711 34.7266C16.0938 34.7266 16.4648 34.4531 17.0312 33.6914L22.832 25.332L22.9297 25.332L28.6914 33.6914C29.2578 34.4531 29.6484 34.7266 30.3711 34.7266C31.3672 34.7266 32.1094 34.0625 32.1094 33.1055C32.1094 32.6367 31.9727 32.3047 31.6797 31.9141L25.1172 22.7539L31.7383 13.5547C32.0508 13.1445 32.1875 12.7734 32.1875 12.3828C32.1875 11.4844 31.4453 10.8008 30.4883 10.8008C29.7852 10.8008 29.3359 11.0742 28.8672 11.7969Z" fill="black" fill-opacity="0.85"/>
 </g>
</svg>
