<?xml version="1.0" encoding="UTF-8"?>
<!--Generator: Apple Native CoreSVG 326-->
<!DOCTYPE svg
PUBLIC "-//W3C//DTD SVG 1.1//EN"
       "http://www.w3.org/Graphics/SVG/1.1/DTD/svg11.dtd">
<svg version="1.1" xmlns="http://www.w3.org/2000/svg" xmlns:xlink="http://www.w3.org/1999/xlink" viewBox="0 0 52.6172 52.2852">
 <g>
  <rect height="52.2852" opacity="0" width="52.6172" x="0" y="0"/>
  <path d="M10.293 26.875C13.125 22.3047 15.7227 18.3984 18.9062 14.5508C18.9844 14.4727 18.9844 14.3945 18.9062 14.3164C17.4414 12.832 16.0938 11.582 14.9219 10.6836C13.1836 9.33594 10.625 7.36328 8.55469 7.36328C8.14453 7.36328 7.91016 7.44141 7.79297 7.55859C5.42969 9.84375 3.4375 12.8125 2.08984 15.8984C0.703125 19.2383 0 22.5977 0 26.1328C0 31.9141 1.77734 37.1875 5.3125 41.9141C5.37109 42.0117 5.50781 41.9531 5.46875 41.8555C5.33203 41.5039 5.27344 40.8594 5.27344 40.2734C5.27344 38.9648 5.50781 37.5391 5.91797 36.2305C7.16797 32.5977 8.51562 29.668 10.293 26.875ZM33.3203 14.5508C36.5039 18.3984 39.1211 22.3047 41.9531 26.875C43.7109 29.668 45.0586 32.5977 46.3281 36.2305C46.7383 37.5391 46.9727 38.9648 46.9727 40.2734C46.9727 40.8594 46.8945 41.5039 46.7773 41.8555C46.7383 41.9531 46.875 42.0117 46.9336 41.9141C50.4688 37.1875 52.2461 31.9141 52.2461 26.1328C52.2461 22.5977 51.5234 19.2383 50.1562 15.8984C48.7891 12.8125 46.7969 9.84375 44.4531 7.55859C44.3359 7.44141 44.1016 7.36328 43.6914 7.36328C41.6211 7.36328 39.043 9.33594 37.3242 10.6836C36.1523 11.582 34.8047 12.832 33.3203 14.3164C33.2617 14.3945 33.2617 14.4727 33.3203 14.5508ZM12.6172 3.76953C12.4805 3.82812 12.5195 4.02344 12.6758 4.00391C13.1836 3.90625 13.8086 3.82812 14.4141 3.82812C16.6016 3.82812 18.6523 4.41406 21.2305 5.41016C22.3242 5.82031 23.2617 6.25 24.1602 6.73828C24.9609 7.10938 25.5664 7.46094 25.918 7.65625C26.0547 7.73438 26.1914 7.73438 26.3086 7.65625C26.6602 7.46094 27.2852 7.10938 28.0859 6.73828C28.9844 6.25 29.9219 5.82031 31.0156 5.41016C33.5742 4.41406 35.6445 3.82812 37.832 3.82812C38.4375 3.82812 39.043 3.90625 39.5703 4.00391C39.7266 4.02344 39.7656 3.82812 39.6289 3.76953C37.6367 2.61719 35.5859 1.67969 33.3984 1.07422C31.1719 0.351562 28.75 0 26.1133 0C23.4766 0 21.0742 0.351562 18.8477 1.07422C16.6602 1.67969 14.6094 2.61719 12.6172 3.76953ZM8.14453 43.7305C8.14453 44.5312 8.39844 45.1758 9.33594 46.0352C13.3203 49.7461 19.6289 52.2461 26.1133 52.2461C32.6172 52.2461 38.9258 49.7461 42.9102 46.0352C43.8477 45.1758 44.1016 44.5312 44.1016 43.7305C44.1016 42.7539 43.8086 41.6602 43.2031 40.4492C42.0117 37.7344 39.7852 34.6484 37.6953 32.168C34.1211 28.0469 30.2734 24.043 26.4062 21.1719C26.2891 21.0742 26.2109 21.0156 26.1133 21.0156C26.0156 21.0156 25.957 21.0742 25.8398 21.1719C21.9727 24.043 18.1055 28.0469 14.5312 32.168C12.4414 34.6484 10.2344 37.7344 9.04297 40.4492C8.4375 41.6602 8.14453 42.7539 8.14453 43.7305Z" fill="black" fill-opacity="0.85"/>
 </g>
</svg>
