<?xml version="1.0" encoding="UTF-8"?>
<!--Generator: Apple Native CoreSVG 326-->
<!DOCTYPE svg
PUBLIC "-//W3C//DTD SVG 1.1//EN"
       "http://www.w3.org/Graphics/SVG/1.1/DTD/svg11.dtd">
<svg version="1.1" xmlns="http://www.w3.org/2000/svg" xmlns:xlink="http://www.w3.org/1999/xlink" viewBox="0 0 41.6211 51.7383">
 <g>
  <rect height="51.7383" opacity="0" width="41.6211" x="0" y="0"/>
  <path d="M20.625 51.7383C21.0742 51.7383 21.7188 51.5625 22.3047 51.2109C36.5039 43.1055 41.25 39.9023 41.25 31.0547L41.25 11.8359C41.25 9.16016 40.1953 8.30078 37.9492 7.36328C34.5898 6.01562 26.0352 2.87109 22.6758 1.71875C22.0117 1.48438 21.3086 1.32812 20.625 1.32812C19.9414 1.32812 19.2578 1.52344 18.5938 1.71875C15.2344 2.77344 6.66016 6.03516 3.30078 7.36328C1.05469 8.26172 0 9.16016 0 11.8359L0 31.0547C0 39.9023 4.80469 43.0273 18.9453 51.2109C19.5508 51.5625 20.1953 51.7383 20.625 51.7383ZM20.625 47.8906C20.2148 47.8906 19.7656 47.6953 19.1211 47.2852C7.44141 40.0977 3.41797 38.0078 3.41797 30.3125L3.41797 12.5C3.41797 11.3867 3.63281 10.957 4.49219 10.625C8.00781 9.21875 15.9766 6.44531 19.4922 5.05859C19.9414 4.88281 20.332 4.78516 20.625 4.78516C20.918 4.78516 21.3086 4.88281 21.7578 5.05859C25.293 6.44531 33.1836 9.35547 36.7773 10.625C37.6172 10.9375 37.832 11.3867 37.832 12.5L37.832 30.3125C37.832 38.0078 33.7891 40.0586 22.1289 47.2852C21.4844 47.6953 21.0352 47.8906 20.625 47.8906Z" fill="black" fill-opacity="0.85"/>
  <path d="M11.9336 35.8008C12.4219 35.8008 12.8516 35.625 13.1836 35.2539L20.6445 27.793L28.1055 35.2539C28.457 35.6055 28.8672 35.8008 29.375 35.8008C30.3516 35.8008 31.1133 35.0195 31.1133 34.0625C31.1133 33.5547 30.9375 33.1641 30.5859 32.8125L23.1055 25.332L30.6055 17.8125C30.9766 17.4414 31.1328 17.0703 31.1328 16.582C31.1328 15.625 30.3711 14.8633 29.3945 14.8633C28.9258 14.8633 28.5547 15.0195 28.1641 15.4102L20.6445 22.9102L13.1445 15.4297C12.8125 15.0586 12.4219 14.9023 11.9336 14.9023C10.957 14.9023 10.1758 15.6445 10.1758 16.6016C10.1758 17.0898 10.3711 17.5 10.7227 17.832L18.1836 25.332L10.7227 32.832C10.3711 33.1641 10.1758 33.5742 10.1758 34.0625C10.1758 35.0195 10.957 35.8008 11.9336 35.8008Z" fill="black" fill-opacity="0.85"/>
 </g>
</svg>
