<?xml version="1.0" encoding="UTF-8"?>
<!--Generator: Apple Native CoreSVG 326-->
<!DOCTYPE svg
PUBLIC "-//W3C//DTD SVG 1.1//EN"
       "http://www.w3.org/Graphics/SVG/1.1/DTD/svg11.dtd">
<svg version="1.1" xmlns="http://www.w3.org/2000/svg" xmlns:xlink="http://www.w3.org/1999/xlink" viewBox="0 0 56.8656 56.5284">
 <g>
  <rect height="56.5284" opacity="0" width="56.8656" x="0" y="0"/>
  <path d="M33.6379 2.70756L53.8137 22.8833C57.3879 26.4576 57.3879 30.0513 53.8527 33.5865L33.5988 53.8599C30.0637 57.3951 26.4699 57.3755 22.8957 53.8013L2.71991 33.6255C-0.873843 30.0513-0.912906 26.4771 2.64178 22.9224L22.9348 2.6685C26.4894-0.905717 30.0637-0.886186 33.6379 2.70756ZM35.5324 18.5474L28.2668 25.774L21.0402 18.5669C20.6887 18.2154 20.298 18.0396 19.7902 18.0396C18.7941 18.0396 17.9933 18.8013 17.9933 19.7974C17.9933 20.2857 18.1691 20.7154 18.5207 21.0669L25.7277 28.274L18.5207 35.481C18.1691 35.8326 17.9933 36.2818 17.9933 36.7505C17.9933 37.7662 18.7941 38.5669 19.7902 38.5669C20.298 38.5669 20.7473 38.3716 21.0988 38.0201L28.2668 30.813L35.4543 38.0201C35.7863 38.3716 36.2551 38.5669 36.7433 38.5669C37.759 38.5669 38.5598 37.7662 38.5598 36.7505C38.5598 36.2623 38.4035 35.813 38.0324 35.4615L30.8254 28.274L38.0519 21.0474C38.4426 20.6568 38.5793 20.2662 38.5793 19.7583C38.5793 18.7818 37.7785 18.0005 36.7824 18.0005C36.3137 18.0005 35.9035 18.1568 35.5324 18.5474Z" fill="black" fill-opacity="0.85"/>
 </g>
</svg>
