<?xml version="1.0" encoding="UTF-8"?>
<!--Generator: Apple Native CoreSVG 326-->
<!DOCTYPE svg
PUBLIC "-//W3C//DTD SVG 1.1//EN"
       "http://www.w3.org/Graphics/SVG/1.1/DTD/svg11.dtd">
<svg version="1.1" xmlns="http://www.w3.org/2000/svg" xmlns:xlink="http://www.w3.org/1999/xlink" viewBox="0 0 46.7578 45.8008">
 <g>
  <rect height="45.8008" opacity="0" width="46.7578" x="0" y="0"/>
  <path d="M29.9219 45.4492L41.7578 45.4492C44.7461 45.4492 46.25 43.9844 46.25 40.8789L46.25 29.1992C46.25 26.0938 44.7461 24.6289 41.7578 24.6289L29.9219 24.6289C26.9531 24.6289 25.4297 26.0938 25.4297 29.1992L25.4297 40.8789C25.4297 43.9844 26.9531 45.4492 29.9219 45.4492Z" fill="black" fill-opacity="0.85"/>
  <path d="M10.7422 45.8008C16.6602 45.8008 21.4648 41.0156 21.4648 35.0781C21.4648 29.1406 16.6602 24.3555 10.7422 24.3555C4.80469 24.3555 0 29.1406 0 35.0781C0 41.0156 4.80469 45.8008 10.7422 45.8008Z" fill="black" fill-opacity="0.85"/>
  <path d="M27.8516 19.7656L43.8086 19.7656C46.0156 19.7656 46.8555 17.9102 45.8203 16.0742L37.9492 1.99219C36.9141 0.078125 34.7656 0.078125 33.7109 1.99219L25.8594 16.0742C24.8438 17.8711 25.625 19.7656 27.8516 19.7656Z" fill="black" fill-opacity="0.85"/>
  <path d="M17.7734 19.1211C18.3594 19.7266 19.2969 19.668 19.8633 19.082C20.4688 18.5156 20.5273 17.5586 19.9219 16.9727L3.67188 0.742188C3.08594 0.15625 2.12891 0.195312 1.5625 0.800781C0.996094 1.36719 0.9375 2.32422 1.50391 2.89062ZM3.69141 19.1211L19.9414 2.89062C20.5273 2.32422 20.4688 1.36719 19.8828 0.800781C19.3164 0.195312 18.3594 0.15625 17.793 0.742188L1.52344 16.9727C0.9375 17.5586 0.996094 18.5156 1.58203 19.082C2.14844 19.668 3.08594 19.7266 3.69141 19.1211Z" fill="black" fill-opacity="0.85"/>
 </g>
</svg>
