<?xml version="1.0" encoding="UTF-8"?>
<!--Generator: Apple Native CoreSVG 326-->
<!DOCTYPE svg
PUBLIC "-//W3C//DTD SVG 1.1//EN"
       "http://www.w3.org/Graphics/SVG/1.1/DTD/svg11.dtd">
<svg version="1.1" xmlns="http://www.w3.org/2000/svg" xmlns:xlink="http://www.w3.org/1999/xlink" viewBox="0 0 62.7734 46.6992">
 <g>
  <rect height="46.6992" opacity="0" width="62.7734" x="0" y="0"/>
  <path d="M49.1602 42.9492C56.6016 42.9492 62.4023 37.5781 62.4023 30.8203C62.4023 25.6445 59.4727 21.1133 54.5117 19.1602C54.6484 8.06641 46.7188 0 36.6016 0C29.7461 0 24.9609 3.71094 22.0703 8.18359C15.9766 6.21094 9.25781 10.8984 9.17969 17.8906C3.57422 18.6719 0 23.5742 0 29.6484C0 36.9336 6.32812 42.9297 14.7461 42.9297ZM49.1406 39.4922L14.7266 39.4727C8.26172 39.4727 3.45703 35 3.45703 29.6484C3.45703 24.5703 6.52344 20.5859 11.875 20.5859C12.1875 20.5859 12.3242 20.4102 12.3242 20.0977C12.3242 12.5586 17.9297 9.92188 23.1641 11.7578C23.457 11.8555 23.6328 11.7969 23.7891 11.5234C26.25 7.14844 30.0391 3.45703 36.6016 3.45703C44.8438 3.45703 50.6836 10 51.1523 17.7148C51.2305 18.7891 51.1523 20.0586 51.0742 21.1914C51.0547 21.4844 51.1719 21.6797 51.4453 21.7383C56.0156 22.8125 58.9453 26.25 58.9453 30.8203C58.9453 35.6836 54.668 39.4922 49.1406 39.4922Z" fill="black" fill-opacity="0.85"/>
  <path d="M25.9766 32.0898L31.1914 26.875L36.4258 32.0898C37.0898 32.7734 38.0078 32.6562 38.5938 32.0898C39.1797 31.5234 39.2969 30.5664 38.6328 29.9219L33.3984 24.668L38.6328 19.4336C39.2969 18.7695 39.1797 17.8711 38.6133 17.2852C38.0469 16.6992 37.1094 16.5625 36.4258 17.2656L31.1914 22.4805L25.9766 17.2656C25.293 16.582 24.3945 16.7188 23.8086 17.2852C23.2227 17.832 23.1055 18.7695 23.75 19.4336L29.0039 24.668L23.75 29.9219C23.1055 30.5664 23.2227 31.5039 23.7891 32.0508C24.3555 32.6367 25.293 32.7734 25.9766 32.0898Z" fill="black" fill-opacity="0.85"/>
 </g>
</svg>
