<?xml version="1.0" encoding="UTF-8"?>
<!--Generator: Apple Native CoreSVG 326-->
<!DOCTYPE svg
PUBLIC "-//W3C//DTD SVG 1.1//EN"
       "http://www.w3.org/Graphics/SVG/1.1/DTD/svg11.dtd">
<svg version="1.1" xmlns="http://www.w3.org/2000/svg" xmlns:xlink="http://www.w3.org/1999/xlink" viewBox="0 0 51.25 50.918">
 <g>
  <rect height="50.918" opacity="0" width="51.25" x="0" y="0"/>
  <path d="M50.8789 25.4492C50.8789 39.4531 39.4531 50.8789 25.4297 50.8789C11.4258 50.8789 0 39.4531 0 25.4492C0 11.4258 11.4258 0 25.4297 0C39.4531 0 50.8789 11.4258 50.8789 25.4492ZM31.7188 14.4141L25.5273 24.5312L25.3711 24.5312L19.1992 14.4141C18.7305 13.5742 18.3008 13.3008 17.5 13.3008C16.5625 13.3008 15.8398 14.0039 15.8398 14.8633C15.8398 15.2148 15.957 15.5664 16.1719 15.918L23.6523 27.9492L23.6523 35.2344C23.6523 36.4258 24.2773 37.2266 25.4102 37.2266C26.582 37.2266 27.2266 36.4844 27.2266 35.2344L27.2266 27.9102L34.668 15.918C34.8828 15.6055 34.9805 15.2344 34.9805 14.9023C34.9805 13.9844 34.3164 13.3008 33.3594 13.3008C32.5977 13.3008 32.168 13.5938 31.7188 14.4141Z" fill="black" fill-opacity="0.85"/>
 </g>
</svg>
