<?xml version="1.0" encoding="UTF-8"?>
<!--Generator: Apple Native CoreSVG 326-->
<!DOCTYPE svg
PUBLIC "-//W3C//DTD SVG 1.1//EN"
       "http://www.w3.org/Graphics/SVG/1.1/DTD/svg11.dtd">
<svg version="1.1" xmlns="http://www.w3.org/2000/svg" xmlns:xlink="http://www.w3.org/1999/xlink" viewBox="0 0 51.25 50.918">
 <g>
  <rect height="50.918" opacity="0" width="51.25" x="0" y="0"/>
  <path d="M25.4297 50.8789C39.4727 50.8789 50.8789 39.4922 50.8789 25.4492C50.8789 11.4062 39.4727 0 25.4297 0C11.3867 0 0 11.4062 0 25.4492C0 39.4922 11.3867 50.8789 25.4297 50.8789ZM25.4297 47.2461C13.3789 47.2461 3.63281 37.5 3.63281 25.4492C3.63281 13.3984 13.3789 3.65234 25.4297 3.65234C37.4805 3.65234 47.2266 13.3984 47.2266 25.4492C47.2266 37.5 37.4805 47.2461 25.4297 47.2461Z" fill="black" fill-opacity="0.85"/>
  <path d="M25.3906 36.9336C26.5234 36.9336 27.1484 36.1914 27.1484 35.0195L27.1484 27.832L34.4336 16.1328C34.6289 15.8203 34.7266 15.4688 34.7266 15.1367C34.7266 14.2578 34.082 13.6133 33.1641 13.6133C32.4219 13.6133 32.0117 13.8867 31.5625 14.668L25.5078 24.5508L25.3516 24.5508L19.2969 14.668C18.8477 13.8672 18.4375 13.6133 17.6562 13.6133C16.7578 13.6133 16.0742 14.2773 16.0742 15.0977C16.0742 15.4492 16.1719 15.7812 16.3672 16.1328L23.6914 27.8711L23.6914 35.0195C23.6914 36.1523 24.2969 36.9336 25.3906 36.9336Z" fill="black" fill-opacity="0.85"/>
 </g>
</svg>
