<?xml version="1.0" encoding="UTF-8"?>
<!--Generator: Apple Native CoreSVG 326-->
<!DOCTYPE svg
PUBLIC "-//W3C//DTD SVG 1.1//EN"
       "http://www.w3.org/Graphics/SVG/1.1/DTD/svg11.dtd">
<svg version="1.1" xmlns="http://www.w3.org/2000/svg" xmlns:xlink="http://www.w3.org/1999/xlink" viewBox="0 0 46.2891 45.918">
 <g>
  <rect height="45.918" opacity="0" width="46.2891" x="0" y="0"/>
  <path d="M45.918 7.53906L45.918 38.3984C45.918 43.3594 43.3594 45.918 38.3008 45.918L7.59766 45.918C2.55859 45.918 0 43.3984 0 38.3984L0 7.53906C0 2.53906 2.55859 0 7.59766 0L38.3008 0C43.3594 0 45.918 2.55859 45.918 7.53906ZM29.2578 11.9141L23.0664 22.0312L22.9102 22.0312L16.7188 11.9141C16.25 11.0742 15.8203 10.8008 15.0391 10.8008C14.1016 10.8008 13.3789 11.5039 13.3789 12.3633C13.3789 12.7148 13.4961 13.0664 13.7109 13.418L21.1914 25.4492L21.1914 32.7344C21.1914 33.9258 21.8164 34.7266 22.9492 34.7266C24.1211 34.7266 24.7656 33.9844 24.7656 32.7344L24.7656 25.4102L32.207 13.418C32.4219 13.1055 32.5195 12.7344 32.5195 12.4023C32.5195 11.4844 31.8555 10.8008 30.8984 10.8008C30.1367 10.8008 29.707 11.0938 29.2578 11.9141Z" fill="black" fill-opacity="0.85"/>
 </g>
</svg>
