<?xml version="1.0" encoding="UTF-8"?>
<!--Generator: Apple Native CoreSVG 326-->
<!DOCTYPE svg
PUBLIC "-//W3C//DTD SVG 1.1//EN"
       "http://www.w3.org/Graphics/SVG/1.1/DTD/svg11.dtd">
<svg version="1.1" xmlns="http://www.w3.org/2000/svg" xmlns:xlink="http://www.w3.org/1999/xlink" viewBox="0 0 55.5273 53.1055">
 <g>
  <rect height="53.1055" opacity="0" width="55.5273" x="0" y="0"/>
  <path d="M3.06641 47.6758L52.0898 47.6758L52.0898 46.1719C52.0898 45.332 51.582 44.8242 50.7227 44.8242L49.1211 44.8242L49.1211 16.6797L51.3867 16.6797C52.5781 16.6797 53.2422 15.8398 53.2422 14.9609C53.2422 14.3164 52.8906 13.75 52.1094 13.3008L30.5273 0.839844C29.5703 0.292969 28.5547 0 27.5781 0C26.6016 0 25.5664 0.292969 24.6289 0.839844L3.04688 13.3008C2.24609 13.75 1.91406 14.3164 1.91406 14.9609C1.91406 15.8398 2.57812 16.6797 3.76953 16.6797L6.05469 16.6797L6.05469 44.8242L4.45312 44.8242C3.57422 44.8242 3.06641 45.332 3.06641 46.1719ZM9.31641 44.8242L9.31641 13.7109L26.4453 4.0625C26.7773 3.86719 27.1875 3.75 27.5781 3.75C27.9492 3.75 28.3398 3.86719 28.7109 4.0625L45.8594 13.7109L45.8594 44.8242ZM1.73828 53.0664L53.418 53.0664C54.375 53.0664 55.1562 52.2852 55.1562 51.3477C55.1562 50.3906 54.375 49.6094 53.418 49.6094L1.73828 49.6094C0.78125 49.6094 0 50.3906 0 51.3477C0 52.2852 0.78125 53.0664 1.73828 53.0664Z" fill="black" fill-opacity="0.85"/>
  <path d="M27.5977 38.0273C28.3594 38.0273 28.8867 37.4805 28.8867 36.6797L28.8867 28.3398L36.0742 16.8359C36.2695 16.5234 36.3477 16.3477 36.3477 15.9961C36.3477 15.293 35.7617 14.8242 35.0586 14.8242C34.5703 14.8242 34.1797 15.0781 33.8867 15.5469L27.6562 25.957L27.5391 25.957L21.3281 15.5469C21.0352 15.0781 20.7031 14.8047 20.1172 14.8047C19.3945 14.8047 18.8477 15.2734 18.8477 15.9961C18.8477 16.25 18.9258 16.543 19.1211 16.875L26.3086 28.3398L26.3086 36.6797C26.3086 37.4805 26.8359 38.0273 27.5977 38.0273ZM20.6055 27.793C20.6055 28.2227 20.9375 28.5742 21.3867 28.5742L33.9258 28.5742C34.3555 28.5742 34.707 28.2227 34.707 27.793C34.707 27.3633 34.3555 27.0117 33.9258 27.0117L21.3867 27.0117C20.9375 27.0117 20.6055 27.3633 20.6055 27.793ZM20.6055 32.0508C20.6055 32.4805 20.9375 32.832 21.3867 32.832L33.9258 32.832C34.3555 32.832 34.707 32.4805 34.707 32.0508C34.707 31.6211 34.3555 31.2695 33.9258 31.2695L21.3867 31.2695C20.9375 31.2695 20.6055 31.6211 20.6055 32.0508Z" fill="black" fill-opacity="0.85"/>
 </g>
</svg>
