<?xml version="1.0" encoding="UTF-8"?>
<!--Generator: Apple Native CoreSVG 326-->
<!DOCTYPE svg
PUBLIC "-//W3C//DTD SVG 1.1//EN"
       "http://www.w3.org/Graphics/SVG/1.1/DTD/svg11.dtd">
<svg version="1.1" xmlns="http://www.w3.org/2000/svg" xmlns:xlink="http://www.w3.org/1999/xlink" viewBox="0 0 51.25 50.918">
 <g>
  <rect height="50.918" opacity="0" width="51.25" x="0" y="0"/>
  <path d="M50.8789 25.4492C50.8789 39.4531 39.4531 50.8789 25.4297 50.8789C11.4258 50.8789 0 39.4531 0 25.4492C0 11.4258 11.4258 0 25.4297 0C39.4531 0 50.8789 11.4258 50.8789 25.4492ZM16.4844 14.7656C16.4844 15.0391 16.5625 15.3516 16.7578 15.6641L23.2617 26.0742L19.0625 26.0742C18.6133 26.0742 18.2617 26.4062 18.2617 26.875C18.2617 27.3242 18.6133 27.6758 19.0625 27.6758L24.1016 27.6758L24.1016 30.4297L19.0625 30.4297C18.6133 30.4297 18.2617 30.7812 18.2617 31.25C18.2617 31.6797 18.6133 32.0312 19.0625 32.0312L24.1016 32.0312L24.1016 35.9766C24.1016 36.7773 24.6484 37.3438 25.4297 37.3438C26.2109 37.3438 26.7578 36.7773 26.7578 35.9766L26.7578 32.0312L31.9336 32.0312C32.3828 32.0312 32.7148 31.6797 32.7148 31.25C32.7148 30.7812 32.3828 30.4297 31.9336 30.4297L26.7578 30.4297L26.7578 27.6758L31.9336 27.6758C32.3828 27.6758 32.7148 27.3242 32.7148 26.875C32.7148 26.4062 32.3828 26.0742 31.9336 26.0742L27.5977 26.0742L34.1406 15.625C34.3164 15.3125 34.3945 15.1367 34.3945 14.7656C34.3945 14.043 33.8281 13.5547 33.0859 13.5547C32.5977 13.5547 32.168 13.8086 31.875 14.3164L25.4883 24.9609L25.3906 24.9609L19.0234 14.3164C18.7305 13.8086 18.3984 13.5352 17.793 13.5352C17.0312 13.5352 16.4844 14.0234 16.4844 14.7656Z" fill="black" fill-opacity="0.85"/>
 </g>
</svg>
