<?xml version="1.0" encoding="UTF-8"?>
<!--Generator: Apple Native CoreSVG 326-->
<!DOCTYPE svg
PUBLIC "-//W3C//DTD SVG 1.1//EN"
       "http://www.w3.org/Graphics/SVG/1.1/DTD/svg11.dtd">
<svg version="1.1" xmlns="http://www.w3.org/2000/svg" xmlns:xlink="http://www.w3.org/1999/xlink" viewBox="0 0 52.9492 48.1445">
 <g>
  <rect height="48.1445" opacity="0" width="52.9492" x="0" y="0"/>
  <path d="M52.5781 6.48438C52.5781 7.63672 52.2461 8.84766 51.6016 9.98047L31.8555 44.5117C30.625 46.6602 28.457 47.7344 26.2891 47.7344C24.1016 47.7344 21.9531 46.6602 20.7227 44.5117L0.976562 9.98047C0.3125 8.82812 0 7.63672 0 6.48438C0 2.85156 2.46094 0 6.52344 0L46.0352 0C50.1172 0 52.5781 2.85156 52.5781 6.48438ZM9.23828 6.64062C8.18359 6.64062 7.55859 7.65625 8.125 8.67188L25.1367 38.4766C25.6641 39.4531 26.875 39.4531 27.4414 38.4766L44.4336 8.67188C44.9805 7.67578 44.375 6.64062 43.3008 6.64062Z" fill="black" fill-opacity="0.85"/>
 </g>
</svg>
