<?xml version="1.0" encoding="UTF-8"?>
<!--Generator: Apple Native CoreSVG 326-->
<!DOCTYPE svg
PUBLIC "-//W3C//DTD SVG 1.1//EN"
       "http://www.w3.org/Graphics/SVG/1.1/DTD/svg11.dtd">
<svg version="1.1" xmlns="http://www.w3.org/2000/svg" xmlns:xlink="http://www.w3.org/1999/xlink" viewBox="0 0 51.25 50.918">
 <g>
  <rect height="50.918" opacity="0" width="51.25" x="0" y="0"/>
  <path d="M25.4297 50.8789C39.4727 50.8789 50.8789 39.4922 50.8789 25.4492C50.8789 11.4062 39.4727 0 25.4297 0C11.3867 0 0 11.4062 0 25.4492C0 39.4922 11.3867 50.8789 25.4297 50.8789ZM25.4297 47.2461C13.3789 47.2461 3.63281 37.5 3.63281 25.4492C3.63281 13.3984 13.3789 3.65234 25.4297 3.65234C37.4805 3.65234 47.2266 13.3984 47.2266 25.4492C47.2266 37.5 37.4805 47.2461 25.4297 47.2461Z" fill="black" fill-opacity="0.85"/>
  <path d="M18.1836 36.6797L32.9297 36.6797C33.7695 36.6797 34.375 36.1133 34.375 35.2344C34.375 34.3555 33.7695 33.8086 32.9297 33.8086L21.0156 33.8086L21.0156 33.6133L33.0664 16.9531C33.5156 16.3281 33.6328 16.0156 33.6328 15.4883C33.6328 14.5312 32.9297 13.8672 31.9336 13.8672L17.9688 13.8672C17.1289 13.8672 16.5039 14.4336 16.5039 15.293C16.5039 16.1914 17.1289 16.7383 17.9688 16.7383L29.2383 16.7383L29.2383 16.9141L17.168 33.5742C16.6602 34.2773 16.543 34.6094 16.543 35.1172C16.543 36.0352 17.207 36.6797 18.1836 36.6797Z" fill="black" fill-opacity="0.85"/>
 </g>
</svg>
