<?xml version="1.0" encoding="UTF-8"?>
<!--Generator: Apple Native CoreSVG 326-->
<!DOCTYPE svg
PUBLIC "-//W3C//DTD SVG 1.1//EN"
       "http://www.w3.org/Graphics/SVG/1.1/DTD/svg11.dtd">
<svg version="1.1" xmlns="http://www.w3.org/2000/svg" xmlns:xlink="http://www.w3.org/1999/xlink" viewBox="0 0 46.2891 45.918">
 <g>
  <rect height="45.918" opacity="0" width="46.2891" x="0" y="0"/>
  <path d="M45.918 7.53906L45.918 38.3984C45.918 43.3594 43.3594 45.918 38.3008 45.918L7.59766 45.918C2.55859 45.918 0 43.3984 0 38.3984L0 7.53906C0 2.53906 2.55859 0 7.59766 0L38.3008 0C43.3594 0 45.918 2.55859 45.918 7.53906ZM15.332 11.0938C14.4531 11.0938 13.8281 11.6797 13.8281 12.5586C13.8281 13.4961 14.4531 14.043 15.332 14.043L26.8555 14.043L26.8555 14.2383L14.4922 31.2695C14.0039 31.9922 13.8672 32.3242 13.8672 32.8711C13.8672 33.7891 14.5508 34.4531 15.5664 34.4531L30.6641 34.4531C31.543 34.4531 32.168 33.8672 32.168 32.9688C32.168 32.0508 31.543 31.5039 30.6641 31.5039L18.4961 31.5039L18.4961 31.2891L30.8203 14.2578C31.2695 13.6133 31.4062 13.3008 31.4062 12.7344C31.4062 11.7773 30.6836 11.0938 29.6484 11.0938Z" fill="black" fill-opacity="0.85"/>
 </g>
</svg>
