<?xml version="1.0" encoding="UTF-8"?>
<!--Generator: Apple Native CoreSVG 326-->
<!DOCTYPE svg
PUBLIC "-//W3C//DTD SVG 1.1//EN"
       "http://www.w3.org/Graphics/SVG/1.1/DTD/svg11.dtd">
<svg version="1.1" xmlns="http://www.w3.org/2000/svg" xmlns:xlink="http://www.w3.org/1999/xlink" viewBox="0 0 46.2891 45.918">
 <g>
  <rect height="45.918" opacity="0" width="46.2891" x="0" y="0"/>
  <path d="M7.59766 45.918L38.3008 45.918C43.3594 45.918 45.918 43.3594 45.918 38.3984L45.918 7.53906C45.918 2.55859 43.3594 0 38.3008 0L7.59766 0C2.55859 0 0 2.53906 0 7.53906L0 38.3984C0 43.3984 2.55859 45.918 7.59766 45.918ZM7.67578 42.4609C4.94141 42.4609 3.45703 41.0156 3.45703 38.2031L3.45703 7.71484C3.45703 4.92188 4.94141 3.45703 7.67578 3.45703L38.2422 3.45703C40.918 3.45703 42.4609 4.92188 42.4609 7.71484L42.4609 38.2031C42.4609 41.0156 40.918 42.4609 38.2422 42.4609Z" fill="black" fill-opacity="0.85"/>
  <path d="M15.7422 34.1797L30.4883 34.1797C31.3281 34.1797 31.9336 33.6133 31.9336 32.7344C31.9336 31.8555 31.3281 31.3086 30.4883 31.3086L18.5742 31.3086L18.5742 31.1133L30.625 14.4531C31.0742 13.8281 31.1719 13.5156 31.1719 12.9883C31.1719 12.0312 30.4883 11.3672 29.4922 11.3672L15.5273 11.3672C14.6875 11.3672 14.0625 11.9336 14.0625 12.793C14.0625 13.6914 14.6875 14.2383 15.5273 14.2383L26.7969 14.2383L26.7969 14.4141L14.7266 31.0742C14.2188 31.7773 14.1016 32.1094 14.1016 32.6172C14.1016 33.5352 14.7656 34.1797 15.7422 34.1797Z" fill="black" fill-opacity="0.85"/>
 </g>
</svg>
