<?xml version="1.0" encoding="UTF-8"?>
<!--Generator: Apple Native CoreSVG 326-->
<!DOCTYPE svg
PUBLIC "-//W3C//DTD SVG 1.1//EN"
       "http://www.w3.org/Graphics/SVG/1.1/DTD/svg11.dtd">
<svg version="1.1" xmlns="http://www.w3.org/2000/svg" xmlns:xlink="http://www.w3.org/1999/xlink" viewBox="0 0 57.6367 43.3008">
 <g>
  <rect height="43.3008" opacity="0" width="57.6367" x="0" y="0"/>
  <path d="M20.4883 0C6.21094 0 0 6.62109 0 19.9805L0 35.918C0 40.7812 2.51953 43.2617 7.42188 43.2617L49.8633 43.2617C54.7461 43.2617 57.2656 40.7617 57.2656 35.918L57.2656 19.9805C57.2656 6.62109 51.0742 0 36.7773 0ZM20.5273 3.47656L36.7578 3.47656C48.75 3.47656 53.8086 8.76953 53.8086 19.8047L53.8086 35.7422C53.8086 38.4375 52.3633 39.8047 49.7656 39.8047L7.5 39.8047C4.86328 39.8047 3.45703 38.4375 3.45703 35.7422L3.45703 19.8047C3.45703 8.76953 8.51562 3.47656 20.5273 3.47656Z" fill="black" fill-opacity="0.85"/>
  <path d="M17.7734 31.9141L26.9727 31.9141C27.6953 31.9141 28.3203 31.3086 28.3203 30.5664C28.3203 29.8242 27.6953 29.2188 26.9727 29.2188L19.7656 29.2188L19.7656 29.0625L27.6172 14.4141C27.8516 13.9648 28.0078 13.6133 28.0078 13.0664C28.0078 12.1484 27.3828 11.5039 26.3867 11.5039L17.5586 11.5039C16.8164 11.5039 16.1914 12.1094 16.1914 12.8516C16.1914 13.5938 16.8164 14.1992 17.5586 14.1992L24.4531 14.1992L24.4531 14.3555L16.5234 29.043C16.2695 29.5312 16.1523 29.8828 16.1523 30.3906C16.1523 31.3672 16.8359 31.9141 17.7734 31.9141ZM33.2422 31.8555L40.5859 31.8555C41.3281 31.8555 41.9336 31.25 41.9336 30.5078C41.9336 29.7656 41.3281 29.1602 40.5859 29.1602L34.8633 29.1602L34.8633 12.7539C34.8633 11.8945 34.1211 11.1719 33.2617 11.1719C32.4023 11.1719 31.6602 11.8945 31.6602 12.7539L31.6602 30.1953C31.6602 31.2305 32.2461 31.8555 33.2422 31.8555Z" fill="black" fill-opacity="0.85"/>
 </g>
</svg>
